<svg width="17" height="17" viewBox="0 0 17 17" fill="none" xmlns="http://www.w3.org/2000/svg">
<path d="M7.86174 0.957033C8.06264 0.347655 8.93737 0.347656 9.13826 0.957034L10.6848 5.64799C10.7746 5.92052 11.0323 6.10503 11.323 6.10503H16.3276C16.9777 6.10503 17.248 6.92494 16.7221 7.30156L12.6733 10.2007C12.4381 10.3692 12.3396 10.6677 12.4295 10.9402L13.976 15.6312C14.1769 16.2406 13.4692 16.7473 12.9433 16.3707L8.89447 13.4715C8.65925 13.3031 8.34075 13.3031 8.10553 13.4715L4.05674 16.3707C3.53078 16.7473 2.82311 16.2406 3.02401 15.6312L4.57051 10.9402C4.66036 10.6677 4.56193 10.3692 4.32672 10.2007L0.277927 7.30156C-0.24803 6.92494 0.0222772 6.10503 0.672396 6.10503H5.67698C5.96772 6.10503 6.22539 5.92052 6.31524 5.64799L7.86174 0.957033Z" fill="#F3CE00"/>
</svg>
