<svg width="210" height="140" viewBox="0 0 210 140" fill="none" xmlns="http://www.w3.org/2000/svg">
<g clip-path="url(#clip0_512_32787)">
<path d="M89.9837 138.919C89.9837 138.919 137.098 137.473 161.695 122.192C190.466 104.317 198.537 79.9184 208.007 56.8105C217.478 33.7025 174.825 4.19439 141.558 4.90045C121.67 5.32255 104.167 23.6503 78.9055 32.0353C54.7616 40.0495 30.768 26.1869 15.6489 47.2421C-0.483177 69.7078 -8.56458 98.9995 24.024 118.557C56.6126 138.115 89.9837 138.919 89.9837 138.919Z" fill="#FFECB2"/>
<path d="M89.9837 138.919C89.9837 138.919 137.098 137.473 161.695 122.192C190.466 104.317 198.537 79.9184 208.007 56.8105C217.478 33.7025 174.825 4.19439 141.558 4.90045C121.67 5.32255 104.167 23.6503 78.9055 32.0353C54.7616 40.0495 30.768 26.1869 15.6489 47.2421C-0.483177 69.7078 -8.56458 98.9995 24.024 118.557C56.6126 138.115 89.9837 138.919 89.9837 138.919Z" fill="#FFECB2"/>
<path opacity="0.8" d="M148.62 12.9619H170.69C171.917 12.9619 172.912 13.991 172.912 15.2603V30.4926C172.912 31.762 171.917 32.7911 170.69 32.7911H162.542C163.73 37.4825 167.839 41.5811 167.839 41.5811C161.498 39.3422 158.67 35.3556 157.457 32.7911H148.62C147.392 32.7911 146.397 31.762 146.397 30.4926V15.2603C146.397 13.991 147.392 12.9619 148.62 12.9619Z" fill="white"/>
<path d="M154.306 22.8727C154.306 23.1741 154.22 23.4688 154.058 23.7194C153.896 23.97 153.666 24.1654 153.397 24.2807C153.128 24.3961 152.831 24.4263 152.546 24.3675C152.26 24.3087 151.997 24.1635 151.791 23.9504C151.585 23.7372 151.445 23.4657 151.388 23.17C151.331 22.8744 151.36 22.5679 151.472 22.2895C151.583 22.011 151.772 21.7729 152.014 21.6055C152.257 21.438 152.542 21.3486 152.833 21.3486C153.026 21.3486 153.218 21.3881 153.397 21.4646C153.576 21.5412 153.738 21.6535 153.875 21.795C154.012 21.9365 154.12 22.1046 154.194 22.2895C154.268 22.4744 154.306 22.6725 154.306 22.8727Z" fill="#969696"/>
<path d="M159.651 24.3967C160.465 24.3967 161.125 23.7144 161.125 22.8727C161.125 22.031 160.465 21.3486 159.651 21.3486C158.837 21.3486 158.178 22.031 158.178 22.8727C158.178 23.7144 158.837 24.3967 159.651 24.3967Z" fill="#969696"/>
<path d="M166.469 24.3967C167.282 24.3967 167.942 23.7144 167.942 22.8727C167.942 22.031 167.282 21.3486 166.469 21.3486C165.655 21.3486 164.995 22.031 164.995 22.8727C164.995 23.7144 165.655 24.3967 166.469 24.3967Z" fill="#969696"/>
<path opacity="0.8" d="M120.293 53.6006H112.189C110.961 53.6006 109.967 52.5716 109.967 51.3022V36.0699C109.967 34.8005 110.961 33.7715 112.189 33.7715H134.259C135.486 33.7715 136.481 34.8005 136.481 36.0699V51.3022C136.481 52.5716 135.486 53.6006 134.259 53.6006H125.406C124.19 56.1683 121.362 60.1419 115.04 62.3742C115.04 62.3742 119.105 58.2837 120.293 53.6006Z" fill="white"/>
<path d="M128.572 43.6818C128.571 43.9836 128.656 44.2791 128.817 44.5308C128.978 44.7825 129.207 44.9791 129.476 45.0957C129.745 45.2123 130.042 45.2437 130.328 45.1858C130.615 45.128 130.878 44.9835 131.085 44.7707C131.292 44.5578 131.433 44.2863 131.49 43.9904C131.548 43.6946 131.519 43.3877 131.408 43.1088C131.297 42.8298 131.108 42.5913 130.865 42.4234C130.623 42.2556 130.338 42.166 130.046 42.166C129.656 42.166 129.283 42.3254 129.007 42.6095C128.731 42.8935 128.574 43.2791 128.572 43.6818Z" fill="#969696"/>
<path d="M121.73 43.6818C121.729 43.984 121.814 44.2798 121.975 44.5317C122.137 44.7835 122.367 44.9802 122.636 45.0965C122.906 45.2129 123.203 45.2438 123.489 45.1852C123.776 45.1267 124.039 44.9814 124.246 44.7677C124.452 44.5541 124.593 44.2818 124.649 43.9854C124.706 43.689 124.676 43.3819 124.564 43.103C124.451 42.8242 124.261 42.5863 124.017 42.4195C123.774 42.2526 123.488 42.1644 123.196 42.166C122.807 42.166 122.434 42.3257 122.16 42.61C121.885 42.8943 121.73 43.2798 121.73 43.6818Z" fill="#969696"/>
<path d="M114.929 43.6818C114.927 43.9836 115.012 44.2791 115.173 44.5308C115.334 44.7825 115.564 44.9791 115.833 45.0957C116.102 45.2123 116.398 45.2437 116.685 45.1858C116.971 45.128 117.234 44.9835 117.441 44.7707C117.648 44.5578 117.789 44.2863 117.847 43.9904C117.904 43.6946 117.876 43.3877 117.764 43.1088C117.653 42.8298 117.464 42.5913 117.222 42.4234C116.979 42.2556 116.694 42.166 116.402 42.166C116.013 42.166 115.639 42.3254 115.363 42.6095C115.087 42.8935 114.931 43.2791 114.929 43.6818Z" fill="#969696"/>
<path d="M59.7494 8.33203H75.209C76.4363 8.33203 77.4312 9.36107 77.4312 10.6305V25.8627C77.4312 27.1321 76.4363 28.1612 75.209 28.1612H69.2971C68.0826 30.7263 65.2555 34.7005 58.9291 36.9345C58.9291 36.9345 62.9985 32.8456 64.184 28.1612H59.7494C58.5221 28.1612 57.5272 27.1321 57.5272 25.8627V10.6305C57.5272 9.36107 58.5221 8.33203 59.7494 8.33203Z" fill="#E2E3E3"/>
<path d="M65.8161 21.2777V21.0875C65.8198 20.4347 65.8776 19.9144 65.9895 19.5265C66.1051 19.1386 66.273 18.8253 66.493 18.5866C66.7131 18.3479 66.9779 18.1315 67.2875 17.9376C67.5188 17.7884 67.7258 17.6336 67.9085 17.4732C68.0913 17.3128 68.2368 17.1357 68.3449 16.9417C68.4531 16.744 68.5072 16.524 68.5072 16.2815C68.5072 16.0242 68.4456 15.7985 68.3225 15.6046C68.1995 15.4106 68.0335 15.2614 67.8246 15.157C67.6195 15.0525 67.3919 15.0003 67.142 15.0003C66.8996 15.0003 66.6702 15.0544 66.4539 15.1626C66.2375 15.267 66.0604 15.4237 65.9224 15.6325C65.7844 15.8377 65.7098 16.0932 65.6986 16.399H63.4159C63.4346 15.653 63.6136 15.0376 63.953 14.5527C64.2924 14.0641 64.7419 13.7005 65.3014 13.4618C65.8608 13.2193 66.4781 13.0981 67.1532 13.0981C67.8955 13.0981 68.5519 13.2212 69.1226 13.4673C69.6933 13.7098 70.1409 14.0623 70.4653 14.5248C70.7898 14.9873 70.9521 15.5449 70.9521 16.1976C70.9521 16.634 70.8794 17.0219 70.7339 17.3613C70.5922 17.697 70.3926 17.9954 70.1353 18.2565C69.8779 18.5139 69.5739 18.747 69.2233 18.9558C68.9286 19.1311 68.6862 19.3139 68.496 19.5041C68.3095 19.6944 68.1696 19.9144 68.0764 20.1643C67.9869 20.4142 67.9402 20.7219 67.9365 21.0875V21.2777H65.8161ZM66.9238 24.8584C66.5509 24.8584 66.232 24.7278 65.9671 24.4667C65.706 24.2019 65.5774 23.8849 65.5811 23.5156C65.5774 23.1501 65.706 22.8368 65.9671 22.5757C66.232 22.3146 66.5509 22.184 66.9238 22.184C67.2782 22.184 67.5896 22.3146 67.8582 22.5757C68.1267 22.8368 68.2629 23.1501 68.2666 23.5156C68.2629 23.7618 68.1976 23.9874 68.0708 24.1926C67.9477 24.394 67.7854 24.5562 67.584 24.6793C67.3826 24.7987 67.1626 24.8584 66.9238 24.8584Z" fill="#969696"/>
<mask id="mask0_512_32787" style="mask-type:alpha" maskUnits="userSpaceOnUse" x="1" y="4" width="209" height="135">
<path d="M89.9838 138.919C89.9838 138.919 137.098 137.473 161.695 122.192C190.466 104.317 198.537 79.9184 208.007 56.8105C217.478 33.7025 174.825 4.19439 141.558 4.90045C121.67 5.32255 104.167 23.6503 78.9057 32.0353C54.7617 40.0495 30.7681 26.1869 15.649 47.2421C-0.483054 69.7078 -8.56446 98.9995 24.0241 118.557C56.6127 138.115 89.9838 138.919 89.9838 138.919Z" fill="#FFECB2"/>
<path d="M89.9838 138.919C89.9838 138.919 137.098 137.473 161.695 122.192C190.466 104.317 198.537 79.9184 208.007 56.8105C217.478 33.7025 174.825 4.19439 141.558 4.90045C121.67 5.32255 104.167 23.6503 78.9057 32.0353C54.7617 40.0495 30.7681 26.1869 15.649 47.2421C-0.483054 69.7078 -8.56446 98.9995 24.0241 118.557C56.6127 138.115 89.9838 138.919 89.9838 138.919Z" fill="#FFECB2"/>
</mask>
<g mask="url(#mask0_512_32787)">
<path d="M177.109 63.5854C176 63.1481 174.769 63.1836 173.685 63.6839C172.601 64.1842 171.753 65.1087 171.327 66.2545V66.304C170.53 68.4129 169.734 70.629 168.937 72.7791C168.141 74.9293 167.281 77.0877 166.421 79.2049C165.56 81.3221 164.644 83.3981 163.697 85.3835C163.227 86.372 162.717 87.3359 162.223 88.2421C161.992 88.6457 161.753 89.0659 161.522 89.3954C161.323 89.1153 161.124 88.8105 160.925 88.4975C160.248 87.4183 159.595 86.232 158.95 85.0127C158.305 83.7935 157.667 82.5413 157.046 81.3221L156.998 81.2314C156.75 80.7595 156.35 80.3913 155.869 80.1897C155.387 79.9881 154.852 79.9656 154.356 80.1259C153.86 80.2863 153.433 80.6195 153.148 81.069C152.863 81.5185 152.738 82.0562 152.793 82.5907C152.972 84.1159 153.238 85.6288 153.589 87.1217C153.939 88.6426 154.381 90.1393 154.912 91.6032C155.208 92.3905 155.546 93.1605 155.923 93.9099C156.364 94.804 156.915 95.6349 157.564 96.3813C158.024 96.9214 158.561 97.3854 159.157 97.7571C160.08 98.3587 161.156 98.6627 162.247 98.6303C162.875 98.6062 163.494 98.4725 164.079 98.2349C164.566 98.0177 165.026 97.7411 165.449 97.4111C165.905 97.0504 166.322 96.6387 166.691 96.1836C167.63 95.1348 168.49 94.0139 169.264 92.8307L169.439 92.5588C170.1 91.5456 170.682 90.5405 171.239 89.5272C172.466 87.3276 173.533 85.1198 174.537 82.9367C174.903 82.1129 175.262 81.2891 175.604 80.4653C176.217 79.0483 176.791 77.6231 177.348 76.1897C178.208 73.916 179.053 71.6999 179.809 69.3356C180.16 68.2019 180.076 66.9719 179.573 65.9012C179.07 64.8304 178.188 64.001 177.109 63.5854Z" fill="#263238"/>
<path opacity="0.2" d="M175.548 80.4982C175.205 81.3221 174.847 82.1459 174.481 82.9697C173.477 85.194 172.41 87.4018 171.183 89.5602C170.626 90.5735 170.044 91.5785 169.383 92.5918C168.212 85.8613 172.29 77.8291 172.29 77.8291C173.405 78.0433 174.52 79.0319 175.548 80.4982Z" fill="#121313"/>
<path d="M206.579 89.2962C206.579 90.499 206.483 91.7677 206.42 93.0116C206.221 96.7847 205.878 100.912 205.36 105.369C205.196 106.852 205.007 108.376 204.795 109.941L170.945 110.542C169.296 105.88 167.815 95.8208 172.45 87.0719C172.45 81.4783 171.12 75.2832 170.953 69.2941C170.849 65.5457 173.995 62.1022 178.288 61.3196C184.867 60.1945 191.552 59.893 198.2 60.4216C201.848 60.677 204.723 62.9425 205.289 66.0812C205.842 69.3246 206.22 72.5975 206.42 75.8846C206.643 79.6329 206.746 84.098 206.579 89.2962Z" fill="#263238"/>
<path d="M181.753 60.1423C180.959 60.5216 180.332 61.1946 179.994 62.0288C179.657 62.8629 179.633 63.7976 179.929 64.6486C180.249 65.8817 180.866 67.0107 181.723 67.93C182.579 68.8492 183.648 69.5285 184.827 69.9045C186.189 70.201 194.266 65.7854 195.277 61.8723C196.289 57.9592 181.753 60.1423 181.753 60.1423Z" fill="#E0BD4E"/>
<path opacity="0.5" d="M181.753 60.1423C180.959 60.5216 180.332 61.1946 179.994 62.0288C179.657 62.8629 179.633 63.7976 179.929 64.6486C180.249 65.8817 180.866 67.0107 181.723 67.93C182.579 68.8492 183.648 69.5285 184.827 69.9045C186.189 70.201 194.266 65.7854 195.277 61.8723C196.289 57.9592 181.753 60.1423 181.753 60.1423Z" fill="white"/>
<path opacity="0.2" d="M206.42 92.9873C206.221 96.7604 205.878 100.888 205.36 105.344C201.378 105.262 195.452 104.76 194.027 102.552C191.844 99.1659 193.581 97.1558 193.581 97.1558C193.581 97.1558 202.907 95.0304 206.42 92.9873Z" fill="#121313"/>
<path opacity="0.2" d="M206.579 89.2967C202.294 84.8317 201.195 71.1729 201.195 71.1729C201.195 71.1729 203.672 73.1665 206.404 75.8933C206.643 79.6334 206.747 84.0985 206.579 89.2967Z" fill="#121313"/>
<path d="M154.617 85.3995L148.245 83.5047L152.857 77.8369C152.857 77.8369 158.233 79.4845 157.373 82.9363L154.617 85.3995Z" fill="#FFC3BD"/>
<path d="M146.19 79.3363L147.783 76.7248C147.915 76.5023 148.088 76.3095 148.293 76.158C148.499 76.0065 148.731 75.8994 148.977 75.8433C149.224 75.7871 149.478 75.783 149.726 75.8311C149.974 75.8793 150.21 75.9787 150.419 76.1235L152.897 77.837L148.285 83.5048L146.525 81.7419C146.21 81.4415 146.006 81.0385 145.945 80.6005C145.884 80.1625 145.971 79.7161 146.19 79.3363Z" fill="#FFC3BD"/>
<path d="M180.431 170.425C187.599 139.252 194.465 125.725 191.749 110.287L170.937 110.542C170.937 110.542 162.733 152.944 164.478 171.224C166.294 190.238 168.946 234.485 168.946 234.485L178.448 234.625C178.448 234.625 183.983 191.688 180.431 170.425Z" fill="#959595"/>
<path opacity="0.2" d="M181.466 166.01C185.313 150.118 188.921 139.071 190.857 129.812C177.34 134.837 178.495 152.252 181.466 166.01Z" fill="#121313"/>
<path d="M202.437 170.426C205.671 139.253 209.478 125.38 204.826 109.925L183.13 110.526C183.13 110.526 182.541 152.928 186.611 171.208C190.848 190.222 200.732 234.469 200.732 234.469L210.29 234.609C210.29 234.609 208.689 191.688 202.437 170.426Z" fill="#959595"/>
<path d="M191.063 51.8457C191.063 55.4293 191.27 59.6225 194.106 62.1434C192.513 64.3429 189.462 67.7123 185.042 67.1274C180.176 66.4848 181.115 61.9127 182.191 60.4792C184.58 59.0541 183.919 56.9121 183.648 55.421L191.063 51.8457Z" fill="#FFC3BD"/>
<path opacity="0.2" d="M189.431 53.3122C189.431 53.0898 189.431 52.8591 189.431 52.6367L183.656 55.4212C183.94 56.4243 183.994 57.4818 183.816 58.5105C186.588 57.6372 189.367 55.4789 189.431 53.3122Z" fill="#121313"/>
<path d="M193.955 41.9107C193.214 47.9163 193.079 51.4669 189.933 54.342C185.21 58.6588 178.177 55.3388 177.189 49.2097C176.281 43.6984 177.643 34.8012 183.505 32.8405C184.803 32.4097 186.184 32.3261 187.521 32.5974C188.859 32.8687 190.107 33.4862 191.151 34.3921C192.195 35.298 192.999 36.4628 193.49 37.7777C193.98 39.0925 194.14 40.5145 193.955 41.9107Z" fill="#FFC3BD"/>
<path d="M184.652 43.1461C184.652 43.6404 184.342 44.0193 184.031 43.9699C183.721 43.9205 183.498 43.5251 183.529 43.039C183.561 42.553 183.832 42.1658 184.143 42.2152C184.453 42.2646 184.692 42.6601 184.652 43.1461Z" fill="#263238"/>
<path d="M178.719 42.8824C178.719 43.3767 178.416 43.7557 178.105 43.7062C177.795 43.6568 177.564 43.2614 177.596 42.7753C177.628 42.2893 177.906 41.9021 178.217 41.9515C178.528 42.001 178.751 42.3881 178.719 42.8824Z" fill="#263238"/>
<path d="M180.447 43.5088C179.699 44.9201 178.766 46.2176 177.675 47.3642C177.966 47.6476 178.314 47.8621 178.694 47.993C179.073 48.1238 179.476 48.1679 179.873 48.1221L180.447 43.5088Z" fill="#FF5652"/>
<path d="M185.736 39.8848C185.783 39.8757 185.829 39.859 185.871 39.8353C185.932 39.7918 185.975 39.7255 185.99 39.6502C186.005 39.5749 185.991 39.4965 185.951 39.4317C185.716 39.0403 185.393 38.7128 185.011 38.4764C184.629 38.2399 184.197 38.1014 183.753 38.0724C183.716 38.0713 183.679 38.0779 183.645 38.092C183.61 38.1061 183.579 38.1273 183.553 38.1543C183.527 38.1813 183.506 38.2136 183.493 38.2491C183.479 38.2846 183.473 38.3226 183.474 38.3607C183.474 38.3986 183.481 38.4361 183.495 38.4711C183.509 38.5061 183.53 38.5378 183.555 38.5646C183.581 38.5914 183.612 38.6126 183.646 38.6271C183.68 38.6416 183.716 38.6491 183.753 38.6491C184.105 38.6777 184.445 38.7928 184.746 38.9848C185.046 39.1768 185.298 39.4401 185.481 39.753C185.51 39.7949 185.548 39.8289 185.592 39.8518C185.637 39.8748 185.686 39.8861 185.736 39.8848Z" fill="#263238"/>
<path d="M176.919 40.3781C176.963 40.3876 177.009 40.3851 177.053 40.3706C177.096 40.3562 177.135 40.3304 177.166 40.2957C177.402 40.0281 177.696 39.8227 178.024 39.6966C178.353 39.5705 178.705 39.5273 179.053 39.5708C179.089 39.5779 179.126 39.5776 179.162 39.5699C179.198 39.5622 179.232 39.5471 179.263 39.5257C179.293 39.5043 179.319 39.4768 179.339 39.445C179.359 39.4131 179.373 39.3775 179.38 39.3401C179.387 39.3028 179.386 39.2644 179.379 39.2272C179.371 39.19 179.357 39.1546 179.336 39.1233C179.315 39.0919 179.289 39.065 179.258 39.0443C179.227 39.0235 179.193 39.0093 179.157 39.0023C178.719 38.9409 178.273 38.9897 177.857 39.1446C177.441 39.2995 177.067 39.5559 176.767 39.8921C176.741 39.9189 176.72 39.951 176.705 39.9863C176.691 40.0217 176.684 40.0597 176.684 40.098C176.684 40.1364 176.691 40.1744 176.705 40.2097C176.72 40.2451 176.741 40.2771 176.767 40.304C176.808 40.3462 176.861 40.3724 176.919 40.3781Z" fill="#263238"/>
<path d="M180.304 49.3251C180.873 50.0855 181.389 50.8866 181.849 51.7224L182.311 51.5411C184.39 50.7173 185.091 49.6299 185.242 48.666C185.325 47.9243 185.156 47.1759 184.764 46.5488C183.912 47.661 182.032 48.5836 181.005 49.0203C180.582 49.2427 180.304 49.3251 180.304 49.3251Z" fill="#263238"/>
<path d="M181.004 49.0528L181.482 49.7448C183.433 48.9622 184.715 48.1384 185.098 47.2734C185.017 47.0205 184.904 46.7795 184.763 46.5566C183.911 47.677 182.031 48.5997 181.004 49.0528Z" fill="white"/>
<path d="M182.31 51.5577C184.389 50.7339 185.09 49.6465 185.241 48.6826C184.456 49.0125 183.733 49.4839 183.107 50.0749C182.696 50.4693 182.417 50.9886 182.31 51.5577Z" fill="#DE5753"/>
<path d="M180.064 35.271C180.064 35.271 178.336 34.233 179.387 31.6133C180.438 28.9935 190.45 30.9048 194.831 34.9085C199.211 38.9122 193.413 46.5654 193.413 46.5654L190.729 48.1307C190.729 48.1307 188.148 41.9521 189.932 37.4211C188.844 36.5891 187.712 35.8217 186.539 35.1227C185.799 34.7849 182.382 37.0257 180.064 35.271Z" fill="#263238"/>
<path d="M195.556 48.2051C194.761 49.4845 193.51 50.3876 192.075 50.7177C190.172 51.1296 189.327 49.3337 189.949 47.5378C190.506 45.8902 192.179 43.7565 194.05 44.1437C194.458 44.2361 194.836 44.4316 195.153 44.7128C195.469 44.994 195.712 45.352 195.862 45.7547C196.011 46.1574 196.061 46.5921 196.008 47.0198C195.954 47.4475 195.799 47.8548 195.556 48.2051Z" fill="#FFC3BD"/>
<path d="M217.005 91.8746C217.005 91.6192 217.005 91.2732 216.957 91.1579L216.853 90.1858C216.766 89.5514 216.678 88.9089 216.559 88.2992C215.572 83.6125 213.992 79.0809 211.859 74.8217C210.848 72.7457 209.781 70.7026 208.618 68.7584C208.044 67.7699 207.455 66.7978 206.842 65.8339C206.228 64.87 205.623 63.9474 204.906 62.9258C204.205 61.9671 203.17 61.3282 202.021 61.1443C200.873 60.9604 199.7 61.246 198.751 61.9406C197.802 62.6352 197.152 63.6843 196.937 64.866C196.723 66.0477 196.962 67.2693 197.602 68.2724L197.642 68.3465C198.16 69.1209 198.741 70.0518 199.283 70.9168C199.825 71.7818 200.382 72.6963 200.876 73.5942C201.927 75.4066 202.963 77.2107 203.911 79.0561C205.825 82.5692 207.351 86.2944 208.458 90.1611C208.594 90.6224 208.674 91.0673 208.777 91.5203L208.897 92.1876C208.897 92.3442 208.897 92.2783 208.897 92.2947C208.897 92.2947 208.96 92.1876 208.984 92.2206C209.008 92.2535 208.984 92.3771 208.833 92.5501C208.39 93.0566 207.864 93.4778 207.28 93.7941C206.516 94.2597 205.717 94.6592 204.89 94.9886C203.042 95.7205 201.15 96.3314 199.227 96.8175C198.24 97.0646 197.244 97.3282 196.233 97.5589C195.221 97.7896 194.186 97.9873 193.222 98.1932H193.094C192.558 98.2963 192.078 98.5995 191.744 99.0452C191.41 99.4909 191.246 100.048 191.284 100.611C191.321 101.173 191.557 101.702 191.947 102.096C192.336 102.49 192.853 102.723 193.397 102.749C197.931 103.113 202.493 102.791 206.937 101.793C208.149 101.499 209.336 101.108 210.489 100.623C211.862 100.046 213.13 99.2323 214.241 98.2179C214.951 97.5629 215.548 96.7886 216.009 95.9277C216.54 94.9304 216.855 93.8258 216.933 92.6902C216.997 92.4348 217.021 92.1629 217.005 91.8746Z" fill="#263238"/>
<path d="M192.147 58.6836C192.29 60.0758 190.681 65.0105 185.042 67.1277C187.216 67.1277 188.164 69.9945 188.164 69.9945C188.164 69.9945 195.643 65.8755 194.751 60.9326C194.639 60.302 194.318 59.7318 193.842 59.321C193.366 58.9102 192.766 58.6847 192.147 58.6836Z" fill="#E0BD4E"/>
<path d="M183.29 59.0625C183.433 60.4218 181.904 63.2886 185.042 67.1276C182.86 67.1276 181.562 69.3849 181.562 69.3849C180.721 68.0276 180.224 66.4737 180.115 64.8659C180.007 63.2581 180.291 61.6478 180.94 60.1829C181.595 59.5706 182.415 59.1797 183.29 59.0625Z" fill="#E0BD4E"/>
<path d="M170.515 109.2L170.315 113.921L205.599 112.932L205.018 108.22L170.515 109.2Z" fill="#E0BD4E"/>
<path opacity="0.3" d="M170.515 109.2L170.315 113.921L205.599 112.932L205.018 108.22L170.515 109.2Z" fill="#121313"/>
<path d="M202.143 111.622L205.599 111.556L205.137 109.184L202.143 109.249V111.622Z" fill="#263238"/>
<path d="M201.203 109.266L188.714 109.546V111.885L201.203 111.638V109.266Z" fill="#263238"/>
<path d="M173.039 109.884L170.315 109.95V112.232L173.039 112.182V109.884Z" fill="#263238"/>
<path d="M173.844 109.867V112.165L187.488 111.902V109.57L173.844 109.867Z" fill="#263238"/>
<path d="M181.259 112.61H178.328C178.145 112.61 177.97 112.536 177.841 112.403C177.711 112.271 177.637 112.09 177.635 111.902V110.106C177.635 109.919 177.706 109.739 177.832 109.605C177.959 109.471 178.131 109.393 178.312 109.389L181.243 109.323C181.428 109.329 181.606 109.402 181.745 109.529C181.81 109.596 181.862 109.675 181.898 109.763C181.933 109.851 181.952 109.945 181.952 110.04V111.935C181.941 112.118 181.864 112.289 181.735 112.415C181.606 112.541 181.436 112.611 181.259 112.61ZM178.368 110.139V111.935L181.259 111.885L181.219 110.073L178.368 110.139Z" fill="white"/>
<path d="M180.948 111.35H180.096C179.999 111.348 179.907 111.307 179.839 111.236C179.771 111.166 179.732 111.071 179.729 110.971C179.729 110.87 179.768 110.774 179.837 110.703C179.906 110.632 179.999 110.592 180.096 110.592H180.948C180.997 110.591 181.045 110.6 181.09 110.618C181.135 110.637 181.175 110.665 181.21 110.7C181.244 110.736 181.271 110.778 181.289 110.825C181.307 110.871 181.316 110.921 181.314 110.971C181.314 111.071 181.276 111.168 181.207 111.239C181.138 111.31 181.045 111.35 180.948 111.35Z" fill="white"/>
<path d="M183.49 102.585H189.439L190.522 91.6279H182.398L183.49 102.585Z" fill="#E0BD4E"/>
<path d="M181.96 92.0811H190.96V90.9771H181.96V92.0811Z" fill="white"/>
<path d="M183.776 96.7855C183.844 97.2153 184.03 97.6159 184.312 97.9399C184.593 98.2639 184.958 98.4978 185.364 98.614C185.77 98.7302 186.2 98.7239 186.602 98.5956C187.005 98.4674 187.363 98.2227 187.636 97.8905C187.908 97.5582 188.083 97.1523 188.139 96.7206C188.196 96.289 188.131 95.8496 187.954 95.4545C187.777 95.0593 187.494 94.7249 187.139 94.4907C186.784 94.2565 186.371 94.1323 185.95 94.1328C185.323 94.1895 184.743 94.4999 184.336 94.9966C183.929 95.4934 183.727 96.1362 183.776 96.7855Z" fill="white"/>
<path d="M195.97 97.8722L190.291 95.9609L190.076 103.375C190.076 103.375 195.42 104.463 196.448 101.612L195.97 97.8722Z" fill="#FFC3BD"/>
<path d="M184.74 98.8282L185.082 101.44C185.15 101.942 185.388 102.404 185.754 102.742C186.12 103.08 186.591 103.272 187.081 103.285L190.076 103.367L190.291 95.9531L186.548 96.4062C186.274 96.4386 186.009 96.5275 185.768 96.6676C185.528 96.8078 185.318 96.9963 185.149 97.2221C184.98 97.4479 184.857 97.7064 184.787 97.9823C184.717 98.2582 184.701 98.5458 184.74 98.8282Z" fill="#FFC3BD"/>
<path d="M192.147 58.6836C192.29 60.0758 190.681 65.0105 185.042 67.1277C187.216 67.1277 188.164 69.9945 188.164 69.9945C188.164 69.9945 195.643 65.8755 194.751 60.9326C194.639 60.302 194.318 59.7318 193.842 59.321C193.366 58.9102 192.766 58.6847 192.147 58.6836Z" fill="white"/>
<path d="M183.29 59.0625C183.433 60.4218 181.904 63.2886 185.042 67.1276C182.86 67.1276 181.562 69.3849 181.562 69.3849C180.721 68.0276 180.224 66.4737 180.115 64.8659C180.007 63.2581 180.291 61.6478 180.94 60.1829C181.595 59.5706 182.415 59.1797 183.29 59.0625Z" fill="white"/>
<path d="M139.03 97.9796L145.091 97.1558L142.51 91.7021C142.51 91.7021 136.935 93.391 137.094 95.261L139.03 97.9796Z" fill="#FFB573"/>
<path d="M148.173 92.5178L145.425 89.2061L142.51 91.7352L145.091 97.1888L148.173 92.5178Z" fill="#FFB573"/>
<path d="M109.105 88.1344C109.105 88.1344 113.287 98.7781 120.073 102.658C126.859 106.538 139.634 97.979 139.634 97.979L137.659 94.1977C137.659 94.1977 123.593 97.7648 123.012 97.2211C122.43 96.6773 116.138 79.0972 108.086 76.7246L109.105 88.1344Z" fill="#E0BD4E"/>
<path d="M139.643 97.9874C139.643 97.9874 126.899 106.547 120.073 102.658C117.813 101.266 115.843 99.4231 114.275 97.2378C112.192 94.4531 110.455 91.4086 109.106 88.1758L108.118 76.7578C116.163 79.1057 122.455 96.7188 123.044 97.2625C123.634 97.8062 137.659 94.1979 137.659 94.1979L139.643 97.9874Z" fill="white"/>
<path opacity="0.1" d="M114.274 97.2376C112.944 95.4795 111.763 93.6052 110.746 91.6357C110.834 90.1578 111.269 88.7244 112.012 87.459C112.012 87.459 114.824 90.9272 114.274 97.2376Z" fill="#121313"/>
<path d="M88.3579 47.5043C88.3579 47.5043 92.9774 41.0044 101.301 45.8567C111.965 52.0188 105.761 80.8275 105.761 80.8275L87.4419 83.9003C87.4419 83.9003 76.2833 49.984 88.3579 47.5043Z" fill="#263238"/>
<path d="M111.694 114.225C111.694 114.225 115.732 146.699 115.374 167.328C116.776 186.671 117.955 227.268 120.073 231.651C120.002 232.639 116.537 232.837 115.637 232.244C115.637 232.244 101.794 198.731 103.69 167.328C90.8426 134.573 91.6072 114.225 91.6072 114.225H111.694Z" fill="#FFB573"/>
<path d="M106.223 114.225C106.223 114.225 97.0396 150.884 93.3997 168.885C89.5846 187.783 85.6659 210.619 85.6101 232.12C84.5907 232.746 83.4517 233.669 81.3809 233.01C81.3809 233.01 72.4364 189.958 80.68 169.717C77.064 124.934 88.5173 114.225 88.5173 114.225H106.223Z" fill="#FFB573"/>
<path d="M88.3579 113.385L111.384 116.68C111.663 111.63 113.917 86.6934 113.845 84.4938C113.71 80.3747 110.372 76.7994 106.143 76.2557C104.972 76.0992 103.754 75.9509 102.567 75.852C98.9419 75.5962 95.3042 75.5962 91.6792 75.852C90.6438 75.9014 89.6402 75.9838 88.6924 76.0744C85.1401 76.4287 82.687 79.7981 83.9135 83.1427C85.4587 87.3359 87.8641 110.024 88.3579 113.385Z" fill="#E0BD4E"/>
<path d="M113.844 84.4773C113.908 86.6851 111.662 111.614 111.383 116.672L88.3571 113.377C88.3014 113.006 88.2297 112.421 88.1341 111.663C87.8474 109.332 87.3854 105.353 86.8518 101.052C86.6208 99.273 86.3898 97.4277 86.1349 95.6318C85.6889 92.3365 85.227 89.2143 84.7889 86.8252C84.5844 85.5575 84.2889 84.3074 83.9048 83.0851C82.6862 79.7239 85.1314 76.3546 88.6837 76.0085C89.6315 75.9179 90.635 75.8438 91.6704 75.7861C95.2931 75.5387 98.9276 75.5387 102.55 75.7861C103.737 75.8932 104.94 76.0415 106.134 76.198C110.372 76.7829 113.717 80.3665 113.844 84.4773Z" fill="white"/>
<path d="M92.4435 63.1406C93.3913 66.7654 94.5542 73.4053 92.2762 75.8191C92.2762 75.8191 90.6435 78.999 99.8906 78.7024C100.687 80.6961 102.28 84.3455 102.28 84.3455C102.28 84.3455 102.391 80.0535 101.754 78.5789C107.696 78.0516 103.188 75.7944 103.188 75.7944C99.2056 74.8305 99.0941 71.8318 99.572 69.0144L92.4435 63.1406Z" fill="#FFB573"/>
<path opacity="0.2" d="M95.3427 65.5459L99.5481 69.0389C99.4218 69.6982 99.3578 70.3686 99.3569 71.0407C97.8436 70.8183 95.6772 69.1212 95.3745 67.5066C95.2475 66.8606 95.2367 66.1959 95.3427 65.5459Z" fill="#121313"/>
<path d="M89.1783 56.8385C90.1818 62.358 90.5004 64.7059 93.5589 67.3503C98.1705 71.3211 104.495 69.2204 105.1 63.602C105.641 58.5438 103.905 50.3798 98.3776 48.5592C97.2081 48.1217 95.9469 48.0154 94.7244 48.2514C93.502 48.4874 92.3627 49.057 91.4245 49.9013C90.4864 50.7457 89.7835 51.834 89.3885 53.0537C88.9936 54.2734 88.921 55.58 89.1783 56.8385Z" fill="#FFB573"/>
<path d="M93.7891 52.8594C90.8262 56.789 96.9113 61.3035 90.8262 61.0399C84.7412 60.7762 87.2182 51.9779 90.8262 49.9514C94.4343 47.9248 93.7891 52.8594 93.7891 52.8594Z" fill="#263238"/>
<path d="M90.8505 50.0168C91.6469 53.7734 92.1965 54.7537 95.4541 53.7322C94.9687 52.9778 94.7545 52.0711 94.8488 51.1702C95.1739 52.0757 95.8244 52.8164 96.6647 53.2379C97.5394 52.865 98.4498 52.5888 99.3807 52.4141C99.2028 51.8856 99.1483 51.321 99.2214 50.7665C99.4777 51.3897 99.9039 51.9221 100.448 52.2988C101.449 52.3159 102.441 52.4966 103.387 52.8343C103.411 48.8635 96.84 44.5961 90.8505 50.0168Z" fill="#263238"/>
<path d="M97.6764 57.7608C97.7401 58.2304 98.0348 58.5846 98.3215 58.5846C98.6082 58.5846 98.7994 58.1645 98.7277 57.6949C98.656 57.2253 98.3773 56.8711 98.0826 56.8711C97.7879 56.8711 97.6127 57.2912 97.6764 57.7608Z" fill="#263238"/>
<path d="M103.156 57.4313C103.228 57.8926 103.515 58.2551 103.801 58.2551C104.088 58.2551 104.279 57.8432 104.215 57.3736C104.152 56.904 103.857 56.5498 103.57 56.5498C103.284 56.5498 103.092 56.9617 103.156 57.4313Z" fill="#263238"/>
<path d="M103.411 56.5824L104.43 56.1787C104.43 56.1787 104.04 57.0931 103.411 56.5824Z" fill="#263238"/>
<path d="M101.738 58.3125C102.286 59.3478 102.961 60.3059 103.745 61.1629C103.536 61.3504 103.288 61.4869 103.021 61.5625C102.753 61.6381 102.473 61.6507 102.2 61.5995L101.738 58.3125Z" fill="#ED893E"/>
<path d="M88.6525 62.16C88.8762 62.6465 89.1947 63.0799 89.5881 63.4329C89.9815 63.7859 90.4412 64.0509 90.9384 64.2113C92.1889 64.549 92.7305 63.0826 92.3163 61.608C91.934 60.2899 90.8349 58.5187 89.6163 58.84C88.3977 59.1613 88.0233 60.8583 88.6525 62.16Z" fill="#FFB573"/>
<path d="M96.1471 55.2561C96.2163 55.2547 96.2821 55.2251 96.3303 55.1737C96.5437 54.9194 96.8147 54.7238 97.1191 54.6044C97.4236 54.4851 97.7519 54.4458 98.0746 54.49C98.1081 54.4958 98.1424 54.4947 98.1755 54.4866C98.2086 54.4785 98.2398 54.4637 98.2673 54.443C98.2947 54.4222 98.3179 54.3961 98.3354 54.3659C98.3529 54.3358 98.3645 54.3023 98.3693 54.2675C98.3748 54.1942 98.3544 54.1212 98.312 54.0622C98.2695 54.0031 98.2078 53.9619 98.1383 53.9463C97.7333 53.8821 97.3192 53.9238 96.9338 54.0677C96.5484 54.2117 96.2041 54.4531 95.9321 54.7701C95.9073 54.7954 95.8876 54.8255 95.8741 54.8587C95.8607 54.892 95.8538 54.9276 95.8538 54.9637C95.8538 54.9997 95.8607 55.0354 95.8741 55.0686C95.8876 55.1018 95.9073 55.132 95.9321 55.1573C95.9584 55.1894 95.9914 55.215 96.0287 55.2321C96.0659 55.2492 96.1064 55.2574 96.1471 55.2561Z" fill="#263238"/>
<path d="M104.391 54.7541C104.458 54.758 104.524 54.7343 104.574 54.6882C104.599 54.6629 104.618 54.6328 104.632 54.5995C104.645 54.5663 104.652 54.5306 104.652 54.4946C104.652 54.4586 104.645 54.4229 104.632 54.3897C104.618 54.3564 104.599 54.3263 104.574 54.301C104.297 53.9603 103.949 53.6897 103.555 53.5098C103.162 53.3299 102.734 53.2455 102.304 53.263C102.27 53.2669 102.237 53.2781 102.207 53.2959C102.177 53.3137 102.152 53.3377 102.131 53.3663C102.111 53.395 102.097 53.4277 102.09 53.4624C102.082 53.4971 102.082 53.533 102.089 53.5678C102.104 53.6397 102.144 53.7035 102.201 53.7474C102.258 53.7913 102.329 53.8124 102.399 53.8067C102.739 53.7979 103.075 53.8673 103.385 54.0098C103.695 54.1523 103.971 54.3643 104.192 54.6305C104.215 54.6644 104.244 54.6928 104.278 54.7141C104.313 54.7354 104.351 54.749 104.391 54.7541Z" fill="#263238"/>
<path d="M97.963 56.9125L98.9825 56.5088C98.9825 56.5088 98.5604 57.4232 97.963 56.9125Z" fill="#263238"/>
<path d="M101.857 63.8328C101.405 64.4362 100.995 65.0722 100.631 65.7358L100.264 65.5958C98.6077 64.9367 98.0582 64.0717 97.9387 63.3138C97.8865 62.9393 97.9248 62.5572 98.0502 62.2017C98.1128 61.9968 98.204 61.8025 98.321 61.625C99.1635 62.4998 100.18 63.1744 101.3 63.6022C101.634 63.7504 101.857 63.8328 101.857 63.8328Z" fill="#263238"/>
<path d="M101.3 63.6012L100.926 64.1531C99.3728 63.5353 98.3533 62.8762 98.0507 62.2007C98.1132 61.9958 98.2044 61.8015 98.3215 61.624C99.164 62.4988 100.18 63.1735 101.3 63.6012Z" fill="white"/>
<path d="M100.265 65.5954C98.6085 64.9364 98.0589 64.0714 97.9395 63.3135C98.5637 63.5709 99.1383 63.942 99.6359 64.4091C99.9593 64.7277 100.179 65.1422 100.265 65.5954Z" fill="#DE5753"/>
<path d="M100.337 74.3525C100.337 74.3525 102.089 76.2967 101.731 78.6034L105.761 79.4849C105.554 78.1197 104.905 76.8679 103.919 75.9352C102.933 75.0025 101.67 74.4443 100.337 74.3525Z" fill="#E0BD4E"/>
<path d="M99.8905 78.7017C99.8905 78.7017 94.4904 75.4888 93.2877 73.7588L90.8983 75.6288C90.8983 75.6288 90.1416 78.5451 93.4072 81.1648L99.8905 78.7017Z" fill="#E0BD4E"/>
<path opacity="0.6" d="M100.337 74.3525C100.337 74.3525 102.089 76.2967 101.731 78.6034L105.761 79.4849C105.554 78.1197 104.905 76.8679 103.919 75.9352C102.933 75.0025 101.67 74.4443 100.337 74.3525Z" fill="white"/>
<path opacity="0.6" d="M99.8905 78.7017C99.8905 78.7017 94.4904 75.4888 93.2877 73.7588L90.8983 75.6288C90.8983 75.6288 90.1416 78.5451 93.4072 81.1648L99.8905 78.7017Z" fill="white"/>
<path d="M79.1105 162.517C79.7184 163.21 80.4379 163.79 81.237 164.23C81.3486 160.111 82.5034 158.15 82.5034 158.15C82.3061 160.518 82.5164 162.903 83.1247 165.194C89.2496 167.871 101.061 169.634 115.828 165.894C115.828 147.976 112.403 117.825 112.164 114.884C112.164 114.884 94.6418 115.362 87.5372 115.362C79.7556 124.959 77.6609 155.77 79.1105 162.517Z" fill="#263238"/>
<path opacity="0.2" d="M79.1105 162.517C79.7184 163.21 80.4379 163.79 81.237 164.23C81.3486 160.111 82.5034 158.15 82.5034 158.15C82.3061 160.518 82.5164 162.903 83.1247 165.194C89.2496 167.871 101.061 169.634 115.828 165.894C115.828 147.976 112.403 117.825 112.164 114.884C112.164 114.884 94.6418 115.362 87.5372 115.362C79.7556 124.959 77.6609 155.77 79.1105 162.517Z" fill="white"/>
<path d="M112.029 115.996C103.822 116.913 95.5418 116.897 87.338 115.947C87.2493 115.938 87.1641 115.906 87.0901 115.854C87.0161 115.803 86.9555 115.733 86.9138 115.652C86.872 115.57 86.8503 115.479 86.8507 115.387C86.8511 115.295 86.8735 115.204 86.9159 115.123L87.5132 113.69C87.5543 113.583 87.6278 113.493 87.7227 113.434C87.8175 113.374 87.9286 113.348 88.0389 113.36C95.9201 114.233 103.869 114.233 111.75 113.36C111.819 113.353 111.889 113.361 111.955 113.382C112.021 113.403 112.083 113.438 112.136 113.484C112.19 113.53 112.234 113.586 112.266 113.65C112.298 113.713 112.317 113.783 112.323 113.854L112.467 115.346C112.479 115.418 112.478 115.492 112.463 115.564C112.448 115.636 112.419 115.704 112.378 115.765C112.338 115.825 112.286 115.877 112.226 115.917C112.166 115.956 112.099 115.983 112.029 115.996Z" fill="#263238"/>
<path opacity="0.1" d="M88.5644 86.7342C88.5644 86.7342 88.2697 92.5421 86.1351 95.6478C85.6891 92.3526 85.2271 89.2303 84.7891 86.8413C85.9952 86.3426 87.3336 86.3046 88.5644 86.7342Z" fill="#121313"/>
<path opacity="0.1" d="M92.173 103.697V108.871C90.9275 109.96 89.5739 110.91 88.1349 111.704C87.8481 109.373 87.3862 105.394 86.8525 101.094C88.5696 102.08 90.3468 102.949 92.173 103.697Z" fill="#121313"/>
<path d="M100.879 109.48H94.9289L93.8457 98.5234H101.97L100.879 109.48Z" fill="#E0BD4E"/>
<path d="M102.407 97.8721H93.4072V98.976H102.407V97.8721Z" fill="white"/>
<path d="M100.591 103.697C100.523 104.126 100.337 104.527 100.056 104.851C99.7741 105.175 99.4089 105.409 99.003 105.525C98.5971 105.641 98.1676 105.635 97.7651 105.507C97.3626 105.379 97.004 105.134 96.7317 104.802C96.4593 104.469 96.2846 104.063 96.2282 103.632C96.1717 103.2 96.2359 102.761 96.4131 102.366C96.5904 101.97 96.8732 101.636 97.2283 101.402C97.5834 101.168 97.9959 101.043 98.417 101.044C99.0443 101.101 99.6245 101.411 100.032 101.908C100.439 102.404 100.64 103.047 100.591 103.697Z" fill="white"/>
<path d="M97.7081 103.565L96.1629 102.626C95.876 102.455 95.5542 102.356 95.2235 102.337C94.8928 102.319 94.5625 102.381 94.2594 102.519L91.3921 103.853C90.8271 104.115 90.3307 104.512 89.9442 105.012C89.5576 105.512 89.2922 106.101 89.1699 106.728L89.0186 107.552C91.4797 109.282 95.3904 109.282 95.3904 109.282L96.4975 109.406C96.7242 109.439 96.955 109.426 97.1767 109.367C97.3983 109.307 97.6063 109.203 97.7886 109.059C97.9709 108.916 98.1239 108.737 98.2386 108.532C98.3533 108.327 98.4275 108.1 98.4568 107.865L98.7276 105.591C98.7711 105.187 98.6974 104.779 98.5159 104.418C98.3343 104.057 98.0532 103.76 97.7081 103.565Z" fill="#FFB573"/>
<path d="M86.9 76.5107C80.1299 77.6147 73.2563 99.7175 74.2758 103.697C75.2953 107.676 90.4045 108.425 90.4045 108.425L90.8505 103.697C90.8505 103.697 83.2601 101.373 82.1769 99.8658C81.0937 98.3582 86.9 89.3952 86.9 89.3952C88.1745 87.3889 88.9137 85.0698 89.0425 82.6729C89.0744 78.076 86.9 76.5107 86.9 76.5107Z" fill="#E0BD4E"/>
<path d="M86.9 76.5107C80.1299 77.6147 73.2563 99.7175 74.2758 103.697C75.2953 107.676 90.4045 108.425 90.4045 108.425L90.8505 103.697C90.8505 103.697 83.2601 101.373 82.1769 99.8658C81.0937 98.3582 86.9 89.3952 86.9 89.3952C88.1745 87.3889 88.9137 85.0698 89.0425 82.6729C89.0744 78.076 86.9 76.5107 86.9 76.5107Z" fill="white"/>
<path d="M50.3025 43.3365C49.506 43.3365 48.8609 42.282 48.8051 40.9062C48.7647 40.3063 48.8715 39.7055 49.1157 39.1597C49.1955 38.94 49.332 38.747 49.5103 38.6018C49.6886 38.4565 49.902 38.3646 50.1273 38.3359H50.1671C50.9636 38.3359 51.6087 39.3904 51.6724 40.8074C51.7104 41.408 51.6008 42.0088 51.3538 42.5539C51.2741 42.7736 51.1376 42.9666 50.9593 43.1118C50.781 43.2571 50.5676 43.349 50.3423 43.3777L50.3025 43.3365ZM50.1671 38.7149C49.9042 38.7149 49.6573 38.9456 49.4662 39.3327C49.2506 39.8199 49.1574 40.3554 49.1954 40.8897C49.2432 42.0348 49.7529 42.9905 50.3503 42.9575C50.5098 42.9285 50.6588 42.856 50.7821 42.7473C50.9053 42.6387 50.9982 42.4979 51.0512 42.3397C51.2695 41.8562 51.3655 41.3232 51.3299 40.7909C51.2583 39.654 50.7405 38.7149 50.1671 38.7149Z" fill="#263238"/>
<path d="M49.1717 40.8892C49.1717 41.3341 49.4346 41.7131 49.7213 41.7131C50.008 41.7131 50.2151 41.3259 50.1992 40.8892C50.1833 40.4526 49.9364 40.0654 49.6496 40.0654C49.3629 40.0654 49.1478 40.4361 49.1717 40.8892Z" fill="#263238"/>
<path d="M49.3945 41.6885C49.9726 43.039 50.7285 44.3004 51.6406 45.4368C51.352 45.6692 51.0183 45.8344 50.6622 45.9212C50.3062 46.0079 49.9363 46.0141 49.5777 45.9393L49.3945 41.6885Z" fill="#ED847E"/>
<path d="M47.4749 38.4676C47.4091 38.4577 47.3493 38.4224 47.3077 38.3687C47.2872 38.3412 47.2721 38.3097 47.2634 38.2761C47.2547 38.2426 47.2526 38.2075 47.257 38.1731C47.2614 38.1386 47.2724 38.1054 47.2893 38.0754C47.3062 38.0453 47.3287 38.019 47.3555 37.998C47.6675 37.7296 48.0371 37.5424 48.4334 37.4522C48.8297 37.3619 49.2412 37.3711 49.6334 37.479C49.6957 37.5049 49.7465 37.5537 49.7759 37.6162C49.8054 37.6786 49.8113 37.7501 49.7927 37.8168C49.7819 37.8499 49.7649 37.8805 49.7426 37.9068C49.7203 37.9331 49.6932 37.9546 49.6628 37.9699C49.6324 37.9852 49.5993 37.9942 49.5656 37.9962C49.5318 37.9982 49.498 37.9932 49.4661 37.9815C49.1547 37.9014 48.8293 37.8984 48.5165 37.9728C48.2037 38.0473 47.9123 38.197 47.6661 38.4099C47.6398 38.4327 47.6093 38.4496 47.5764 38.4596C47.5435 38.4695 47.5089 38.4722 47.4749 38.4676Z" fill="#263238"/>
<path d="M49.8962 47.3481C49.8962 47.48 49.8564 47.6035 49.8405 47.7353C49.5222 49.5126 48.6048 51.1154 47.2514 52.2588C45.898 53.4022 44.1964 54.012 42.4492 53.9798C40.8195 53.9168 39.269 53.2366 38.0925 52.0686C35.2729 49.3582 35.2092 46.1124 34.6437 40.6094C34.4968 39.3318 34.6681 38.0366 35.1414 36.8467C35.6147 35.6569 36.3743 34.612 37.3479 33.8113C38.3216 33.0106 39.477 32.4807 40.7044 32.2719C41.9318 32.0631 43.1904 32.1824 44.3607 32.6184C49.5538 34.4967 50.7007 42.3147 49.8962 47.3481Z" fill="#FFC3BD"/>
<path d="M35.711 49.5972C37.6863 51.2448 46.2564 48.2214 45.6112 41.4497C45.6112 41.4497 49.1954 38.1956 49.4821 34.0354C49.7688 29.8751 47.2679 27.8156 44.2094 28.2275C41.5173 28.5982 41.366 30.0646 41.366 30.0646C41.366 30.0646 28.9728 29.5703 30.7968 35.1146C24.9586 39.8597 33.218 47.5541 35.711 49.5972Z" fill="#263238"/>
<path d="M51.4729 40.5792L45.5674 41.2568L45.6078 41.6335L51.5133 40.9559L51.4729 40.5792Z" fill="#263238"/>
<path d="M43.2935 42.2402C43.441 43.606 44.0206 44.8832 44.9422 45.8732C46.1688 47.1666 47.3316 46.2851 47.5148 44.6458C47.6423 43.1711 47.1644 40.7244 45.7068 40.0406C44.2493 39.3569 43.1342 40.5844 43.2935 42.2402Z" fill="#FFC3BD"/>
<path opacity="0.2" d="M49.8963 47.3483C49.8963 47.4802 49.8564 47.6037 49.8405 47.7355C49.5222 49.5128 48.6048 51.1156 47.2514 52.259C45.898 53.4024 44.1964 54.0122 42.4492 53.98C43.9227 53.0079 45.9218 51.3191 46.5351 48.9548C47.5467 45.0499 46.0095 40.2224 46.0095 40.2224L46.8059 39.0938C46.8059 39.0938 48.2237 45.3547 48.0564 47.0023C47.9688 48.131 49.1316 47.7191 49.8963 47.3483Z" fill="#121313"/>
<path d="M75.6384 77.4753H69.6807L68.5975 66.5186H76.7216L75.6384 77.4753Z" fill="#E0BD4E"/>
<path d="M77.1594 65.8672H68.1592V66.9711H77.1594V65.8672Z" fill="#E0BD4E"/>
<path d="M75.3441 71.6673C75.2758 72.0961 75.0906 72.4958 74.8102 72.8194C74.5299 73.143 74.166 73.3771 73.7614 73.4941C73.3568 73.6112 72.9283 73.6063 72.5263 73.4801C72.1243 73.3538 71.7655 73.1115 71.4921 72.7816C71.2187 72.4517 71.042 72.0478 70.9829 71.6176C70.9238 71.1874 70.9846 70.7487 71.1583 70.353C71.332 69.9574 71.6114 69.6212 71.9634 69.3841C72.3155 69.147 72.7257 69.0189 73.1458 69.0146C73.7773 69.0651 74.3636 69.3729 74.7758 69.8704C75.188 70.3678 75.3924 71.0141 75.3441 71.6673Z" fill="white"/>
<path opacity="0.8" d="M77.1594 65.8672H68.1592V66.9711H77.1594V65.8672Z" fill="white"/>
<path d="M36.5075 50.0586C37.304 54.1777 37.4553 57.2917 34.6915 60.0185C34.6915 60.0185 35.7747 64.1375 43.1023 64.1375C51.1627 64.1375 46.9493 60.0185 46.9493 60.0185C42.5527 58.931 42.6643 55.5534 43.4368 52.39L36.5075 50.0586Z" fill="#FFC3BD"/>
<path d="M33.1304 60.7762C32.541 59.6393 31.8879 58.3047 33.2339 57.934C34.7074 57.4892 44.1934 56.6571 46.9811 57.4974C46.1209 59.0791 47.5705 61.0068 47.5705 61.0068L33.1304 60.7762Z" fill="#E0BD4E"/>
<path opacity="0.2" d="M33.1304 60.7762C32.541 59.6393 31.8879 58.3047 33.2339 57.934C34.7074 57.4892 44.1934 56.6571 46.9811 57.4974C46.1209 59.0791 47.5705 61.0068 47.5705 61.0068L33.1304 60.7762Z" fill="#121313"/>
<path d="M45.3559 109.76C45.3559 109.76 39.239 149.229 35.8858 164.024C32.2061 180.212 12.4853 233.793 12.4853 233.793L2.83203 231.791C2.83203 231.791 16.627 188.129 19.7094 165.491C22.0988 148.1 26.7502 109.76 26.7502 109.76H45.3559Z" fill="#E0BD4E"/>
<path d="M45.3559 109.76C45.3559 109.76 39.239 149.229 35.8858 164.024C32.2061 180.212 12.4853 233.793 12.4853 233.793L2.83203 231.791C2.83203 231.791 16.627 188.129 19.7094 165.491C22.0988 148.1 26.7502 109.76 26.7502 109.76H45.3559Z" fill="white"/>
<path d="M29.3947 70.6047C28.3513 71.7992 27.1804 73.1667 26.1132 74.5013C25.0459 75.8359 23.9866 77.2116 22.983 78.6204C20.9774 81.2942 19.215 84.154 17.7183 87.1633C17.5272 87.5258 17.3758 87.8882 17.2245 88.2507L16.9935 88.7944L16.882 89.0663L16.8342 89.1734C16.8342 89.0992 16.7068 89.3876 16.7864 89.8983C17.1063 91.2739 17.6446 92.5851 18.3794 93.7785C20.1802 96.6878 22.1904 99.4526 24.3928 102.05L21.7724 105.238C18.5978 103.104 15.7313 100.516 13.258 97.5515C11.8134 95.8644 10.6942 93.907 9.96062 91.7849C9.46042 90.2694 9.38585 88.6384 9.74557 87.0809L9.83318 86.7431L9.90488 86.529L10.0243 86.1582L10.2712 85.4168C10.4305 84.9225 10.5978 84.4282 10.7969 83.9669C12.2782 80.3248 14.1483 76.8653 16.3723 73.6528C17.4634 72.0793 18.5626 70.5305 19.7573 69.0641C20.952 67.5978 22.1467 66.1726 23.5087 64.7227L29.3947 70.6047Z" fill="#FFC3BD"/>
<path d="M22.8081 100.401L26.7905 100.706L24.9984 106.877C24.9984 106.877 21.9957 106.316 20.8408 103.894L22.8081 100.401Z" fill="#FFC3BD"/>
<path d="M32.2942 101.53L29.7136 106.588L24.9905 106.91L26.7826 100.739L32.2942 101.53Z" fill="#FFC3BD"/>
<path d="M26.3361 60.9079C21.151 61.0314 14.4766 73.2651 14.4766 73.2651L22.8555 83.2085C25.9986 80.9138 28.508 77.81 30.1353 74.2042C33.1938 67.7208 31.6327 60.7843 26.3361 60.9079Z" fill="#E0BD4E"/>
<path opacity="0.2" d="M28.6702 71.4199C25.4285 73.603 23.5568 78.4223 22.4816 82.7391L22.8559 83.1757C25.9925 80.8876 28.501 77.7963 30.1357 74.2044C30.3162 73.82 30.4835 73.4328 30.6375 73.0428L28.6702 71.4199Z" fill="#121313"/>
<path d="M57.8769 80.6304C57.7893 83.835 57.5743 87.5422 57.1601 91.8507C56.8017 95.665 56.284 99.9406 55.5671 104.735H26.894C26.6869 100.616 29.3392 80.548 25.0701 61.1637C28.2643 60.5967 31.4874 60.2199 34.7234 60.0351C38.8038 59.8125 42.8927 59.8125 46.9732 60.0351C49.7647 60.2963 52.5352 60.7587 55.2645 61.4191C55.2645 61.4191 58.2991 64.5661 57.8769 80.6304Z" fill="#E0BD4E"/>
<path opacity="0.2" d="M57.8772 80.6299C57.7896 83.8345 57.5746 87.5417 57.1604 91.8502C54.771 89.3129 51.6966 85.3503 51.9992 81.9645L57.8772 80.6299Z" fill="#121313"/>
<path opacity="0.2" d="M41.4934 123.822C34.4207 125.149 35.1694 150.432 36.0216 163.431C38.0606 154.238 41.0474 136.559 43.0863 124.004C42.5871 123.771 42.0296 123.708 41.4934 123.822Z" fill="#121313"/>
<path d="M55.6229 109.76C55.6229 109.76 56.3716 148.718 55.7822 164.601C55.1769 181.127 49.2033 235.243 49.2033 235.243H40.0279C40.0279 235.243 39.6934 182.099 39.2872 165.861C38.8411 148.166 36.6349 109.76 36.6349 109.76H55.6229Z" fill="#E0BD4E"/>
<path d="M57.7894 67.1777C58.2513 68.6935 58.7929 70.3906 59.3823 71.9806C59.9717 73.5705 60.5452 75.1934 61.1823 76.7587C62.3765 79.844 63.8289 82.8155 65.5231 85.6394C65.9373 86.3149 66.3754 86.9575 66.8214 87.5671L67.1639 88.0119C67.0103 87.8767 66.8419 87.7606 66.6621 87.6659C66.2542 87.4506 65.7965 87.3565 65.3399 87.3941C65.025 87.4109 64.7187 87.507 64.4479 87.6742C64.193 87.8719 64.3444 87.8307 64.4479 87.6742C64.6467 87.4802 64.828 87.2679 64.9895 87.0398C65.4304 86.4357 65.8373 85.8058 66.2081 85.1533C67.8011 82.3276 69.2666 79.0571 70.7082 75.8937L74.6109 77.0223C74.1499 80.7868 73.2761 84.4848 72.0065 88.0449C71.6532 89.0235 71.2299 89.9735 70.7401 90.887C70.4435 91.4241 70.1109 91.9389 69.7445 92.4276C69.2192 93.144 68.5647 93.7483 67.817 94.207C67.1659 94.5926 66.4389 94.8207 65.6904 94.8743C64.7978 94.9314 63.9074 94.7318 63.1178 94.2976C62.5583 93.9843 62.0524 93.5779 61.6204 93.0949L61.1107 92.5182C60.4416 91.7493 59.8204 90.9667 59.2469 90.1703C57.0507 87.036 55.1818 83.6698 53.6716 80.1281C52.9309 78.3981 52.222 76.6598 51.6167 74.8968C51.0113 73.1339 50.4219 71.4039 49.9202 69.4597L57.7894 67.1777Z" fill="#FFC3BD"/>
<path d="M46.7183 67.5725C43.182 74.336 53.9822 84.8725 53.9822 84.8725L64.7585 77.2111C63.0715 72.9493 61.0884 68.8195 58.8248 64.8539C54.5636 57.5632 49.4184 62.4319 46.7183 67.5725Z" fill="#E0BD4E"/>
<path d="M73.289 78.9161L78.6175 74.6405L74.3085 70.5215C74.3085 70.5215 70.1748 72.9929 70.7562 76.9802L73.289 78.9161Z" fill="#FFC3BD"/>
<path d="M79.5494 71.9471L76.6582 67.8115L74.3086 70.4807L78.6175 74.6409L79.5494 71.9471Z" fill="#FFC3BD"/>
<path d="M55.6229 109.76C55.6229 109.76 56.3716 148.718 55.7822 164.601C55.1769 181.127 49.2033 235.243 49.2033 235.243H40.0279C40.0279 235.243 39.6934 182.099 39.2872 165.861C38.8411 148.166 36.6349 109.76 36.6349 109.76H55.6229Z" fill="white"/>
<path d="M26.9896 103.697C25.1072 110.208 24.4555 117.033 25.0701 123.798H55.822L55.9654 104.027L26.9896 103.697Z" fill="#E0BD4E"/>
<path d="M26.9896 103.697C25.1072 110.208 24.4555 117.033 25.0701 123.798H55.822L55.9654 104.027L26.9896 103.697Z" fill="white"/>
<path d="M33.9986 104.438L26.4639 104.348L26.2648 106.374L33.9986 106.448V104.438Z" fill="#263238"/>
<path d="M46.7738 104.595L35.1611 104.455V106.457L46.7738 106.572V104.595Z" fill="#263238"/>
<path d="M47.5947 104.604V106.581L55.9657 106.655V104.702L47.5947 104.604Z" fill="#263238"/>
<path opacity="0.2" d="M40.7451 54.935C40.9547 54.8033 41.176 54.6929 41.4062 54.6055C41.0478 54.8032 40.8009 54.9103 40.7451 54.935Z" fill="#121313"/>
</g>
<path d="M34.5235 46.0317C36.4988 47.6794 45.0689 44.656 44.4237 37.8842C44.4237 37.8842 48.0079 34.6302 48.2946 30.4699C48.5813 26.3097 46.0804 24.2502 43.0219 24.6621C40.3298 25.0328 40.1785 26.4992 40.1785 26.4992C40.1785 26.4992 27.7853 26.0049 29.6093 31.5491C23.7711 36.2943 32.0305 43.9887 34.5235 46.0317Z" fill="#263238"/>
</g>
<defs>
<clipPath id="clip0_512_32787">
<rect width="210" height="140" fill="white"/>
</clipPath>
</defs>
</svg>
