<svg width="210" height="140" viewBox="0 0 210 140" fill="none" xmlns="http://www.w3.org/2000/svg">
<path fill-rule="evenodd" clip-rule="evenodd" d="M112.398 27.6499C137.611 26.4312 175.726 7.48299 193.825 20.6122C211.947 33.7585 197.494 56.0497 198.277 74.8811C199.108 94.8781 173.812 93.2485 157.254 104.005C143.433 112.984 147.538 129.571 120.953 125.863C102.133 123.238 63.7226 143.834 35.7738 127.886C13.0816 114.937 4.11315 96.7439 1.37403 74.8811C-1.35466 53.1017 10.9209 39.3081 35.7738 27.6499C54.8277 18.7119 89.9268 28.736 112.398 27.6499Z" fill="#FFECB2"/>
<path d="M108.13 20.8849C108.088 21.6409 107.896 22.381 107.566 23.0624C107.236 23.7438 106.774 24.353 106.207 24.8548C104.676 26.189 103.023 25.0348 102.703 23.1359C102.417 21.4251 102.867 18.6667 104.758 18.061C105.175 17.9385 105.617 17.921 106.042 18.01C106.468 18.0989 106.866 18.2916 107.199 18.5709C107.533 18.8503 107.792 19.2076 107.955 19.6113C108.117 20.0149 108.177 20.4524 108.13 20.8849Z" fill="#FFB473"/>
<path d="M109.619 38.3279L98.6997 42.0522L98.2577 38.9254C99.3218 37.0592 99.5919 35.8805 98.6916 33.7114L105.976 25.3379C105.788 29.627 106.566 35.4876 109.619 38.3279Z" fill="#FFB473"/>
<path d="M87.2084 16.7105C86.7909 19.1661 87.8468 23.9299 90.9163 21.9163C93.9858 19.9027 87.9369 12.5032 87.2084 16.7105Z" fill="#263238"/>
<path d="M104.544 17.5862C105.723 23.5778 106.721 27.0238 104.544 30.8054C101.27 36.486 93.2239 35.6184 90.269 30.0933C87.6088 25.1085 86.1273 16.1783 91.3085 12.3558C92.456 11.5193 93.7965 10.9864 95.2051 10.8069C96.6138 10.6273 98.045 10.8068 99.3657 11.3287C100.686 11.8506 101.854 12.698 102.759 13.792C103.664 14.886 104.278 16.1912 104.544 17.5862Z" fill="#FFB473"/>
<path d="M108.13 21.9083C108.088 22.6643 107.896 23.4044 107.566 24.0858C107.236 24.7672 106.774 25.3764 106.207 25.8782C104.676 27.2124 103.023 26.0583 102.703 24.1593C102.417 22.4486 102.867 19.6901 104.758 19.0844C105.175 18.962 105.617 18.9444 106.042 19.0334C106.468 19.1223 106.866 19.315 107.199 19.5944C107.533 19.8737 107.792 20.231 107.955 20.6347C108.117 21.0383 108.177 21.4758 108.13 21.9083Z" fill="#FFB473"/>
<path d="M96.0143 21.4906C96.1453 21.9736 96.0143 22.4238 95.6705 22.5056C95.3267 22.5875 94.9993 22.26 94.852 21.7771C94.7047 21.2942 94.852 20.844 95.1958 20.7703C95.5396 20.6967 95.8915 21.0159 96.0143 21.4906Z" fill="#263238"/>
<path d="M90.5722 22.8651C90.695 23.3398 90.5722 23.7982 90.2284 23.8718C89.8847 23.9455 89.5491 23.6263 89.4099 23.1515C89.2708 22.6768 89.4099 22.2184 89.7537 22.1366C90.0975 22.0547 90.4413 22.3821 90.5722 22.8651Z" fill="#263238"/>
<path d="M92.3647 22.6689C92.1428 24.237 91.702 25.7662 91.0551 27.2118C91.4457 27.3503 91.8611 27.4052 92.2742 27.3728C92.6874 27.3403 93.0892 27.2213 93.4534 27.0235L92.3647 22.6689Z" fill="#A02724"/>
<path d="M96.5144 28.2103C96.3154 28.2944 96.1102 28.3628 95.9005 28.415C95.8626 28.4228 95.8232 28.4162 95.7899 28.3965C95.7566 28.3769 95.7318 28.3455 95.7204 28.3085C95.7155 28.2897 95.7144 28.2701 95.7171 28.2509C95.7198 28.2316 95.7262 28.2131 95.7361 28.1963C95.746 28.1796 95.7591 28.165 95.7747 28.1533C95.7903 28.1417 95.808 28.1332 95.8268 28.1285C96.4277 27.9944 96.9878 27.7187 97.4605 27.3243C97.9332 26.9299 98.3048 26.4283 98.5444 25.8612C98.559 25.8255 98.5864 25.7965 98.6211 25.7799C98.6559 25.7632 98.6957 25.7601 98.7326 25.7711C98.7516 25.7765 98.7692 25.7859 98.7843 25.7986C98.7994 25.8113 98.8116 25.8271 98.8201 25.8449C98.8286 25.8627 98.8333 25.8821 98.8337 25.9019C98.8341 25.9216 98.8304 25.9412 98.8227 25.9594C98.6146 26.4738 98.302 26.9395 97.9047 27.327C97.5074 27.7145 97.034 28.0152 96.5144 28.2103Z" fill="#263238"/>
<path d="M97.2345 19.322C97.1867 19.3401 97.1349 19.3451 97.0846 19.3365C97.0342 19.3278 96.987 19.3059 96.948 19.2729C96.6654 19.0376 96.3318 18.8714 95.9738 18.7876C95.6157 18.7038 95.243 18.7046 94.8853 18.79C94.8488 18.8026 94.8101 18.8078 94.7716 18.8051C94.733 18.8024 94.6954 18.792 94.661 18.7744C94.6266 18.7568 94.5961 18.7324 94.5713 18.7028C94.5466 18.6731 94.5281 18.6387 94.517 18.6017C94.5043 18.5663 94.4988 18.5286 94.5011 18.491C94.5033 18.4535 94.5131 18.4167 94.53 18.3831C94.5468 18.3494 94.5703 18.3195 94.599 18.2952C94.6277 18.2708 94.6611 18.2526 94.6971 18.2415C95.147 18.1215 95.6192 18.1116 96.0737 18.2128C96.5282 18.3139 96.9517 18.5231 97.3082 18.8227C97.3388 18.8459 97.3645 18.8751 97.3836 18.9085C97.4028 18.9418 97.415 18.9787 97.4196 19.0169C97.4242 19.0551 97.421 19.0938 97.4103 19.1308C97.3996 19.1677 97.3816 19.2021 97.3573 19.232C97.3236 19.2708 97.2816 19.3015 97.2345 19.322Z" fill="#263238"/>
<path d="M87.7327 21.5891C87.6829 21.607 87.6293 21.6115 87.5772 21.6023C87.5252 21.593 87.4764 21.5703 87.4358 21.5363C87.3953 21.5024 87.3643 21.4584 87.346 21.4088C87.3277 21.3592 87.3228 21.3056 87.3316 21.2535C87.418 20.7991 87.6116 20.372 87.8964 20.0075C88.1811 19.643 88.5487 19.3518 88.9687 19.158C89.0415 19.1306 89.1221 19.1324 89.1938 19.1629C89.2654 19.1933 89.3226 19.2502 89.3534 19.3217C89.3804 19.3935 89.3784 19.4729 89.3479 19.5432C89.3173 19.6135 89.2606 19.6691 89.1897 19.6983C88.8637 19.8501 88.579 20.0781 88.3596 20.363C88.1403 20.6479 87.9926 20.9814 87.9291 21.3353C87.9225 21.3915 87.9008 21.4448 87.8661 21.4895C87.8315 21.5342 87.7854 21.5686 87.7327 21.5891Z" fill="#263238"/>
<path d="M102.955 15.802C102.825 15.9123 102.685 16.0109 102.538 16.0967C102.145 16.3317 101.699 16.4646 101.242 16.4832C100.784 16.5018 100.329 16.4055 99.9185 16.2031C98.2323 15.3846 97.7003 10.5717 92.9037 13.0191C92.3767 12.892 91.8243 12.9203 91.313 13.1004C90.8017 13.2805 90.3535 13.6048 90.0225 14.034C88.7865 15.5483 89.6378 21.0734 87.0021 20.3121C84.3665 19.5509 84.8249 18.7324 84.8249 18.7324C84.8249 18.7324 85.5615 19.1989 85.9953 18.8306C85.6046 18.5019 85.326 18.0596 85.1984 17.5652C85.0707 17.0708 85.1004 16.5489 85.2832 16.0722C85.2832 16.0722 85.9217 16.8334 86.3473 16.6861C85.9077 14.4508 86.1619 12.1345 87.0758 10.0478C88.6064 6.23346 97.9704 7.08473 97.9704 7.08473C97.9704 7.08473 99.1491 5.11207 103.381 6.48719C107.613 7.86232 109.544 12.9618 108.873 15.18" fill="#263238"/>
<path d="M107.425 12.0034L100.64 11.6924L100.46 15.5886L100.861 15.3676C100.861 15.3676 101.286 21.0973 104.536 23.0044C108.932 19.6485 110.225 14.1562 107.425 12.0034Z" fill="#263238"/>
<mask id="mask0_512_35556" style="mask-type:alpha" maskUnits="userSpaceOnUse" x="1" y="8" width="202" height="126">
<path fill-rule="evenodd" clip-rule="evenodd" d="M112.398 20.4397C137.611 19.1384 175.726 -1.09444 193.825 12.9249C211.947 26.9625 197.494 50.7649 198.277 70.8731C199.108 92.2258 173.812 90.4857 157.254 101.971C143.433 111.559 147.538 129.27 120.953 125.311C102.133 122.508 63.7226 144.501 35.7738 127.471C13.0816 113.644 4.11315 94.218 1.37403 70.8731C-1.35466 47.6171 10.9209 32.8883 35.7738 20.4397C54.8277 10.8958 89.9268 21.5995 112.398 20.4397Z" fill="#FFECB2"/>
</mask>
<g mask="url(#mask0_512_35556)">
<path d="M153.973 46.7314H139.478V79.9945H153.973V46.7314Z" fill="#FFC100"/>
<path opacity="0.2" d="M153.973 46.7314H139.478V79.9945H153.973V46.7314Z" fill="black"/>
<path d="M136.089 46.5957H171.854L178.537 37.11L185.54 46.8673L193.774 46.7364L184.9 34.7822L145.022 34.952L136.089 46.5957Z" fill="#FFC100"/>
<path opacity="0.2" d="M136.089 46.5957H171.854L178.537 37.11L185.54 46.8673L193.774 46.7364L184.9 34.7822L145.022 34.952L136.089 46.5957Z" fill="white"/>
<path d="M153.972 46.7367V79.9949H189.689V46.7367H185.591L178.535 37.1104L171.828 46.5863L153.972 46.7367Z" fill="#FFC100"/>
<g opacity="0.2">
<path d="M159.023 79.9948V65.5771H167.374V79.9948" fill="black"/>
</g>
<path opacity="0.7" d="M185.544 65.1699H172.382V73.322H185.544V65.1699Z" fill="white"/>
<path opacity="0.7" d="M185.544 48.8555H172.382V57.0076H185.544V48.8555Z" fill="white"/>
<path opacity="0.7" d="M166.5 48.9287H158.202V56.785H166.5V48.9287Z" fill="white"/>
<path d="M176.243 65.1699H176.122V73.3996H176.243V65.1699Z" fill="#FFC100"/>
<path d="M181.713 65.1699H181.591V73.3996H181.713V65.1699Z" fill="#FFC100"/>
<path d="M181.65 69.4717H176.18V69.5929H181.65V69.4717Z" fill="#FFC100"/>
<path d="M176.243 48.8555H176.122V57.0851H176.243V48.8555Z" fill="#FFC100"/>
<path d="M181.713 48.8555H181.591V57.0851H181.713V48.8555Z" fill="#FFC100"/>
<path d="M181.65 53.1572H176.18V53.2785H181.65V53.1572Z" fill="#FFC100"/>
<path d="M162.411 48.9287H162.29V56.785H162.411V48.9287Z" fill="#FFC100"/>
<path d="M166.5 52.9873H158.202V53.1085H166.5V52.9873Z" fill="#FFC100"/>
<path opacity="0.7" d="M180.276 43.4586C180.276 43.8068 180.173 44.1472 179.979 44.4366C179.786 44.7261 179.511 44.9518 179.189 45.085C178.868 45.2182 178.514 45.2531 178.172 45.1852C177.831 45.1173 177.517 44.9496 177.271 44.7034C177.025 44.4572 176.857 44.1435 176.789 43.8021C176.721 43.4606 176.756 43.1066 176.889 42.785C177.023 42.4633 177.248 42.1883 177.538 41.9949C177.827 41.8015 178.168 41.6982 178.516 41.6982C178.982 41.6995 179.429 41.8854 179.759 42.2153C180.089 42.5451 180.275 42.9921 180.276 43.4586Z" fill="white"/>
<path d="M165.961 41.3002L168.182 38.5603V31.9697H163.531V41.3487L165.961 41.3002Z" fill="#FFC100"/>
<path opacity="0.2" d="M165.961 41.3002V31.9697H168.182V38.5603L165.961 41.3002Z" fill="black"/>
<path d="M168.497 31H163.012V31.9699H168.497V31Z" fill="#FFC100"/>
<path d="M154.385 61.2852H127V79.9995H154.385V61.2852Z" fill="#FFC100"/>
<path opacity="0.2" d="M143.886 61.2852H127V79.9995H143.886V61.2852Z" fill="black"/>
<path d="M140.331 79.966C140.313 79.8865 140.305 79.8051 140.307 79.7235C140.307 79.5344 140.307 79.3016 140.307 79.0204C140.307 78.3705 140.307 77.4879 140.268 76.3871C140.268 74.1078 140.239 70.9604 140.22 67.3184L140.356 67.4542H130.332L130.463 67.3184C130.463 70.9604 130.429 74.1078 130.414 76.3871C130.414 77.4879 130.385 78.3705 130.375 79.0204C130.375 79.3016 130.375 79.5344 130.351 79.7235C130.359 79.8042 130.359 79.8854 130.351 79.966C130.329 79.8871 130.321 79.8052 130.327 79.7235C130.327 79.5344 130.327 79.3016 130.327 79.0204C130.327 78.3705 130.327 77.4879 130.288 76.3871C130.288 74.1126 130.259 70.9604 130.24 67.3184V67.1826H140.511V67.3184C140.487 70.9604 140.472 74.1078 140.457 76.3871C140.457 77.4879 140.428 78.3705 140.419 79.0204C140.419 79.3016 140.419 79.5344 140.419 79.7235C140.397 79.807 140.368 79.8881 140.331 79.966Z" fill="#263238"/>
<path opacity="0.2" d="M153.114 66.8379H146V68.6516H153.114V66.8379Z" fill="black"/>
<path d="M136.089 46.5956V47.5607H171.83V46.5859L136.089 46.5956Z" fill="#FFC100"/>
<path d="M171.83 47.5611L178.517 38.1772L178.537 37.1104L171.854 46.5961L171.83 47.5611Z" fill="#FFC100"/>
<path d="M193.599 46.7314H185.592V47.3522H193.599V46.7314Z" fill="#FFC100"/>
<path d="M164.525 63.3652H161.572V64.4903H164.525V63.3652Z" fill="#263238"/>
<path opacity="0.3" d="M136.089 46.5956V47.5607H171.83V46.5859L136.089 46.5956Z" fill="black"/>
<path opacity="0.3" d="M171.83 47.5611L178.517 38.1772L178.537 37.1104L171.854 46.5961L171.83 47.5611Z" fill="black"/>
<path opacity="0.3" d="M193.599 46.7314H185.592V47.3522H193.599V46.7314Z" fill="black"/>
<path d="M166.698 72.8519C166.674 72.8519 166.698 72.6677 166.48 72.527C166.424 72.4895 166.36 72.4659 166.294 72.4583C166.227 72.4507 166.159 72.4593 166.097 72.4834C166.023 72.5131 165.96 72.5641 165.916 72.6297C165.872 72.6954 165.848 72.7728 165.848 72.8519C165.848 72.9311 165.872 73.0085 165.916 73.0742C165.96 73.1398 166.023 73.1908 166.097 73.2205C166.159 73.2446 166.227 73.2532 166.294 73.2456C166.36 73.238 166.424 73.2144 166.48 73.1769C166.679 73.0362 166.674 72.8471 166.698 72.8519C166.722 72.8568 166.78 73.0605 166.553 73.2739C166.482 73.3312 166.399 73.3697 166.31 73.3858C166.221 73.4019 166.129 73.3951 166.043 73.366C165.936 73.3294 165.843 73.2602 165.777 73.168C165.711 73.0758 165.676 72.9653 165.676 72.8519C165.676 72.7386 165.711 72.6281 165.777 72.5359C165.843 72.4438 165.936 72.3745 166.043 72.3379C166.129 72.3088 166.221 72.302 166.31 72.3181C166.399 72.3342 166.482 72.3727 166.553 72.43C166.78 72.6483 166.713 72.8665 166.698 72.8519Z" fill="#263238"/>
<g opacity="0.3">
<path d="M57.8674 80.0332V181.522C57.8674 182.169 57.66 182.79 57.2908 183.247C56.9216 183.705 56.4208 183.962 55.8987 183.962H17.7047C17.5063 183.962 17.316 183.864 17.1757 183.69C17.0354 183.517 16.9566 183.281 16.9566 183.035V180.018C16.9566 179.772 17.0352 179.535 17.1753 179.36C17.3154 179.185 17.5057 179.085 17.7047 179.083H53.9299V82.4727H18.3216C17.959 82.4705 17.6118 82.2905 17.356 81.972C17.1002 81.6535 16.9566 81.2225 16.9566 80.7732V77.5938H55.8987C56.4208 77.5938 56.9216 77.8508 57.2908 78.3083C57.66 78.7657 57.8674 79.3862 57.8674 80.0332Z" fill="white"/>
</g>
<path opacity="0.2" d="M57.8674 80.045V106.053C56.5877 106.467 55.308 106.867 54.0283 107.254V82.4963H19.3102C18.9567 82.4941 18.6182 82.3133 18.3688 81.9932C18.1194 81.6732 17.9794 81.2401 17.9794 80.7886V77.5938H55.9479C56.457 77.5938 56.9452 77.852 57.3052 78.3117C57.6652 78.7714 57.8674 79.3949 57.8674 80.045Z" fill="black"/>
<path d="M103.128 148.347H106.279C107.084 148.347 107.857 148.027 108.426 147.457C108.996 146.888 109.316 146.115 109.316 145.31V123.21H100.091V145.31C100.091 146.115 100.411 146.888 100.98 147.457C101.55 148.027 102.322 148.347 103.128 148.347Z" fill="#263238"/>
<path opacity="0.2" d="M103.128 148.347H106.279C107.084 148.347 107.857 148.027 108.426 147.457C108.996 146.888 109.316 146.115 109.316 145.31V123.21H100.091V145.31C100.091 146.115 100.411 146.888 100.98 147.457C101.55 148.027 102.322 148.347 103.128 148.347Z" fill="white"/>
<path d="M124.959 72.4775C124.959 72.4775 122.847 114.902 113.712 122.203H123.486C123.486 122.203 132.195 107.748 132.841 72.4775H124.959Z" fill="#263238"/>
<path opacity="0.1" d="M124.959 72.4775C124.959 72.4775 122.847 114.902 113.712 122.203H123.486C123.486 122.203 132.195 107.748 132.841 72.4775H124.959Z" fill="white"/>
<path d="M125.751 118.683H82.4429C81.4682 118.683 80.5333 119.07 79.8441 119.759C79.1549 120.448 78.7677 121.383 78.7677 122.358V125.714H129.435V122.358C129.435 121.875 129.339 121.396 129.154 120.949C128.969 120.503 128.697 120.098 128.355 119.756C128.013 119.415 127.607 119.144 127.16 118.96C126.713 118.776 126.235 118.682 125.751 118.683Z" fill="#263238"/>
<path d="M78.3103 122.202H129.878C130.696 122.202 131.359 122.865 131.359 123.684V124.232C131.359 125.05 130.696 125.714 129.878 125.714H78.3103C77.4921 125.714 76.8288 125.05 76.8288 124.232V123.684C76.8288 122.865 77.4921 122.202 78.3103 122.202Z" fill="#263238"/>
<path d="M134.56 81.7587H118.902C114.318 81.7587 111.011 77.6661 111.535 72.5503L112.198 65.7729C112.705 60.6898 116.822 56.5645 121.406 56.5645H137.04C141.624 56.5645 144.931 60.6571 144.407 65.7729L143.744 72.5503C143.269 77.6661 139.144 81.7587 134.56 81.7587Z" fill="#41423F"/>
<path d="M82.8855 45.1621C81.9114 48.248 80.7655 51.4648 79.505 54.4115C78.4409 56.8671 76.9266 59.9939 75.1995 61.6391C73.6279 63.0388 69.8873 63.5708 67.4562 63.89C64.1821 64.3075 60.6952 64.463 57.2983 64.6022L56.6926 69.1859C60.2936 70.1524 63.9865 70.7368 67.71 70.9294C71.8681 71.0767 76.7138 70.9294 80.3153 68.3756C85.5457 64.2829 87.8212 58.8315 90.1376 53.0773C90.7925 51.252 91.3818 49.5822 91.8811 47.6668L82.8773 45.1621H82.8855Z" fill="#FFB473"/>
<path d="M86.9057 40.832C84.3273 41.716 81.9945 45.424 75.5036 60.2966C75.5036 60.2966 74.4477 62.1138 69.1845 63.2515L69.6675 71.6005C69.6675 71.6005 77.1816 71.2731 78.925 70.0699C80.6685 68.8666 91.1211 51.6693 91.1211 51.6693L86.9057 40.832Z" fill="#263238"/>
<path opacity="0.2" d="M69.1835 63.2679L69.6664 71.6169C69.6664 71.6169 75.6908 71.3549 78.2037 70.43C78.4569 70.3452 78.6988 70.2298 78.924 70.0862C79.9307 69.3823 83.8351 63.3334 86.9865 58.3567C89.2702 54.7388 91.0791 51.6857 91.0791 51.6857L86.9046 40.832C84.3262 41.716 81.9934 45.424 75.4943 60.2884C75.4943 60.3048 74.4466 62.1138 69.1835 63.2679Z" fill="white"/>
<path opacity="0.2" d="M78.2023 70.4305C78.4555 70.3458 78.6974 70.2303 78.9226 70.0868C79.9294 69.3828 83.8338 63.3339 86.9851 58.3573C86.1648 55.5356 85.1949 52.7595 84.0793 50.041C84.0793 50.041 78.0877 62.0488 78.2023 70.4305Z" fill="black"/>
<path d="M59.0842 65.02L53.2154 62.9082L53.9357 70.7661C53.9357 70.7661 59.3216 71.4536 59.9846 68.6215L59.0842 65.02Z" fill="#FFB473"/>
<path d="M48.3525 64.4961L49.2528 70.9707L53.9348 70.7661L53.2145 62.9082L48.3525 64.4961Z" fill="#FFB473"/>
<path d="M69.1415 62.9082L66.1456 63.8086L67.2425 71.9284L70.2383 72.444L69.1415 62.9082Z" fill="#263238"/>
<path d="M82.6572 92.4736C82.6572 92.4736 43.0486 108.099 33.8402 114.631C24.6317 121.163 1.41008 165.2 1.41008 165.2L11.0114 172.567C11.0114 172.567 38.7104 132.344 42.1155 129.618C45.5205 126.893 89.5901 113.362 89.5901 113.362L82.6572 92.4736Z" fill="#969696"/>
<path opacity="0.2" d="M24.5246 153.199C32.0796 142.485 40.3222 131.099 42.0738 129.65C44.5294 127.653 68.7988 119.877 81.6579 115.85L83.1558 100.298L78.4574 99.4795L77.9254 100.675C77.9254 100.675 48.573 107.329 40.2731 111.487C34.9281 114.115 27.7496 140.373 24.5246 153.199Z" fill="black"/>
<path d="M27.8491 166.166C27.8491 166.166 37.8351 116.064 39.8814 113.084C43.2047 108.173 83.1652 100.258 83.1652 100.258L78.475 99.4393L83.8937 85.0332L119.475 86.4329C119.475 86.4329 118.73 109.941 115.112 116.244C111.494 122.546 57.9709 125.444 54.4922 126.885C51.0134 128.325 40.3971 167.623 40.3971 167.623L27.8491 166.166Z" fill="#969696"/>
<path d="M108.21 86.9815L118.524 86.8096L118.745 89.9282L107.768 90.1901L108.21 86.9815Z" fill="#263238"/>
<path d="M106.625 86.9237L106.174 90.1651L83.1573 89.8377L83.9022 86.8828L106.625 86.9237Z" fill="#263238"/>
<path d="M95.5419 87.4883L95.2473 89.6246C95.2042 89.8855 95.069 90.1223 94.8663 90.292C94.6635 90.4617 94.4066 90.5531 94.1423 90.5496L90.4589 90.435C90.337 90.4372 90.2161 90.4122 90.1051 90.3617C89.9941 90.3112 89.8958 90.2365 89.8173 90.1432C89.7389 90.0498 89.6822 89.9401 89.6516 89.8221C89.621 89.7041 89.6172 89.5807 89.6404 89.4609L89.9432 87.3164C89.9865 87.0563 90.1219 86.8205 90.3249 86.6521C90.5278 86.4837 90.7846 86.3941 91.0482 86.3997L94.7234 86.5142C94.8453 86.512 94.9662 86.5371 95.0772 86.5876C95.1882 86.638 95.2866 86.7127 95.365 86.806C95.4435 86.8994 95.5001 87.0091 95.5307 87.1271C95.5613 87.2452 95.5651 87.3686 95.5419 87.4883Z" fill="white"/>
<path d="M118.575 86.3511H84.7699C84.3652 86.3536 83.9739 86.2061 83.6716 85.937C83.3693 85.6679 83.1774 85.2964 83.1329 84.8941C78.9584 52.153 86.9308 40.8492 86.9308 40.8492C89.9664 39.9823 93.0641 39.3502 96.1966 38.9584C100.774 38.5983 105.368 38.4999 109.956 38.6637C113.082 38.7479 116.198 39.057 119.279 39.5886C120.916 40.3008 122.61 47.5938 120.916 70.3162C120.474 76.2669 120.409 81.4072 120.45 84.4194C120.456 84.9238 120.263 85.4103 119.911 85.7724C119.56 86.1344 119.08 86.3425 118.575 86.3511Z" fill="#263238"/>
<path d="M91.6436 52.4307H85.1281L84.6369 60.2067L88.1321 62.474L91.6436 60.7387V52.4307Z" fill="#263238"/>
<path opacity="0.2" d="M83.1071 84.8939C83.1516 85.2961 83.3435 85.6676 83.6458 85.9367C83.9481 86.2058 84.3394 86.3533 84.7441 86.3508H118.549C118.803 86.352 119.053 86.3026 119.287 86.2057C119.521 86.1088 119.734 85.9664 119.912 85.7865C120.09 85.6067 120.231 85.3932 120.326 85.1584C120.421 84.9237 120.468 84.6723 120.465 84.4191C120.465 81.4069 120.465 76.2338 120.923 70.3159C121.158 67.0418 121.33 64.0842 121.439 61.443C121.706 56.6111 121.678 51.7674 121.357 46.9387C120.948 42.0276 120.105 39.9567 119.253 39.572C116.161 39.0392 113.034 38.73 109.897 38.6471C105.312 38.4833 100.721 38.5817 96.1462 38.9417C93.022 39.3348 89.9325 39.9669 86.905 40.8325C86.905 40.8325 78.9326 52.1855 83.1071 84.8939Z" fill="white"/>
<path d="M102.711 43.6736L100.567 44.5658L98.7004 45.7363C98.7004 45.7363 96.2039 60.0278 96.8996 72.0929L94.8042 73.8118L92.5942 72.0356C92.5942 72.0356 95.3444 49.878 96.3348 45.5644L95.901 44.5248L94.8942 42.3803L96.7523 41.4062L99.7072 42.0529H101.77L102.711 43.6736Z" fill="white"/>
<path opacity="0.2" d="M103.013 28.751L98.6998 33.7113C99.0237 34.4714 99.2838 35.2572 99.4774 36.0604C101.303 35.512 103.57 33.081 103.464 31.1001C103.458 30.2962 103.305 29.5002 103.013 28.751Z" fill="black"/>
<path d="M108.939 36.3467C105.857 38.3985 102.564 40.1136 99.1167 41.4625C98.7402 39.9384 98.7402 38.3455 99.1167 36.8214L94.2956 39.2279C94.2956 39.2279 93.8945 42.9686 94.9995 44.9576L98.5438 42.3629L102.522 45.637C102.522 45.637 110.052 42.7312 111.231 38.7859L108.939 36.3467Z" fill="#263238"/>
<path opacity="0.2" d="M84.3756 65.3888L95.5404 74.3926C111.567 77.9614 118.615 67.9671 121.447 61.4189C121.714 56.587 121.686 51.7432 121.365 46.9146C117.518 46.7345 112.729 46.7345 111.436 47.7331C109.185 49.4602 101.344 61.5662 100.173 62.4666C99.0027 63.367 84.3756 65.3888 84.3756 65.3888Z" fill="black"/>
<path d="M78.0235 64.9628L72.1546 62.8428L72.8749 70.7006C72.8749 70.7006 78.2608 71.3882 78.9238 68.5561L78.0235 64.9628Z" fill="#FFB473"/>
<path d="M67.3028 64.4307L68.195 70.9053L72.877 70.7006L72.1566 62.8428L67.3028 64.4307Z" fill="#FFB473"/>
<path d="M112.165 49.1082C110.433 52.5283 108.521 55.8536 106.435 59.0697C105.152 61.1728 103.544 63.0596 101.671 64.6602C101.53 64.7833 101.366 64.8779 101.188 64.9385C99.1381 65.4805 97.0215 65.7286 94.9018 65.6752C88.9593 65.7325 82.9103 65.1841 76.9433 64.6766L75.9692 69.1948C79.9667 70.4974 84.043 71.5445 88.1735 72.3298C92.6508 73.1483 96.7353 73.7622 101.499 73.3039C103.036 73.1431 104.528 72.6903 105.895 71.9697C111.199 68.8674 114.448 63.8499 117.526 58.8732C118.631 56.9415 119.638 55.1407 120.571 53.078L112.14 49.0918L112.165 49.1082Z" fill="#FFB473"/>
<path d="M119.278 39.5879C129.837 43.394 116.143 69.7015 110.38 72.6482C104.618 75.5949 94.8938 74.3917 94.8938 74.3917L94.2062 65.2487C94.2062 65.2487 99.2483 64.6349 100.754 64.2747C103.153 63.7017 107.998 53.11 111.264 47.3557C113.067 43.9993 115.867 41.2851 119.278 39.5879Z" fill="#263238"/>
<path opacity="0.2" d="M119.278 39.5879C129.837 43.394 116.143 69.7015 110.38 72.6482C104.618 75.5949 94.8938 74.3917 94.8938 74.3917L94.2062 65.2487C94.2062 65.2487 99.2483 64.6349 100.754 64.2747C103.153 63.7017 107.998 53.11 111.264 47.3557C113.067 43.9993 115.867 41.2851 119.278 39.5879Z" fill="white"/>
<path d="M95.5645 64.5615L96.4158 75.1778L93.3872 74.613L92.5932 65.1263L95.5645 64.5615Z" fill="#263238"/>
<path d="M107.425 10.981L100.64 10.6699L100.46 14.5661L100.861 14.3451C100.861 14.3451 101.286 20.0748 104.536 21.982C108.932 18.626 110.225 13.1337 107.425 10.981Z" fill="#263238"/>
<path d="M108.13 20.8849C108.087 21.6409 107.896 22.381 107.565 23.0624C107.235 23.7438 106.773 24.353 106.206 24.8548C104.676 26.189 103.022 25.0348 102.703 23.1359C102.417 21.4251 102.867 18.6667 104.758 18.061C105.175 17.9385 105.616 17.921 106.042 18.01C106.468 18.0989 106.865 18.2916 107.199 18.5709C107.533 18.8503 107.792 19.2076 107.954 19.6113C108.117 20.0149 108.177 20.4524 108.13 20.8849Z" fill="#FFB473"/>
<path d="M109.619 38.3279L98.6995 42.0522L98.2575 38.9254C99.3216 37.0592 99.5917 35.8805 98.6913 33.7114L105.976 25.3379C105.788 29.627 106.566 35.4876 109.619 38.3279Z" fill="#FFB473"/>
<path d="M87.2084 16.7105C86.7909 19.1661 87.8468 23.9299 90.9163 21.9163C93.9858 19.9027 87.9369 12.5032 87.2084 16.7105Z" fill="#263238"/>
<path d="M104.544 17.5862C105.723 23.5778 106.721 27.0238 104.544 30.8054C101.27 36.486 93.2239 35.6184 90.269 30.0933C87.6088 25.1085 86.1273 16.1783 91.3085 12.3558C92.456 11.5193 93.7965 10.9864 95.2051 10.8069C96.6138 10.6273 98.045 10.8068 99.3657 11.3287C100.686 11.8506 101.854 12.698 102.759 13.792C103.664 14.886 104.278 16.1912 104.544 17.5862Z" fill="#FFB473"/>
<path d="M108.13 21.9083C108.087 22.6643 107.896 23.4044 107.565 24.0858C107.235 24.7672 106.773 25.3764 106.206 25.8782C104.676 27.2124 103.022 26.0583 102.703 24.1593C102.417 22.4486 102.867 19.6901 104.758 19.0844C105.175 18.962 105.616 18.9444 106.042 19.0334C106.468 19.1223 106.865 19.315 107.199 19.5944C107.533 19.8737 107.792 20.231 107.954 20.6347C108.117 21.0383 108.177 21.4758 108.13 21.9083Z" fill="#FFB473"/>
<path d="M96.0141 21.4906C96.145 21.9736 96.0141 22.4238 95.6703 22.5056C95.3265 22.5875 94.9991 22.26 94.8517 21.7771C94.7044 21.2942 94.8517 20.844 95.1955 20.7703C95.5393 20.6967 95.8913 21.0159 96.0141 21.4906Z" fill="#263238"/>
<path d="M90.5722 22.8651C90.695 23.3398 90.5722 23.7982 90.2284 23.8718C89.8847 23.9455 89.5491 23.6263 89.4099 23.1515C89.2708 22.6768 89.4099 22.2184 89.7537 22.1366C90.0975 22.0547 90.4413 22.3821 90.5722 22.8651Z" fill="#263238"/>
<path d="M92.3645 22.6689C92.1426 24.237 91.7018 25.7662 91.0548 27.2118C91.4454 27.3503 91.8608 27.4052 92.274 27.3728C92.6872 27.3403 93.0889 27.2213 93.4531 27.0235L92.3645 22.6689Z" fill="#A02724"/>
<path d="M96.5144 28.2103C96.3154 28.2944 96.1102 28.3628 95.9005 28.415C95.8626 28.4228 95.8232 28.4162 95.7899 28.3965C95.7566 28.3769 95.7318 28.3455 95.7204 28.3085C95.7155 28.2897 95.7144 28.2701 95.7171 28.2509C95.7198 28.2316 95.7262 28.2131 95.7361 28.1963C95.746 28.1796 95.7591 28.165 95.7747 28.1533C95.7903 28.1417 95.808 28.1332 95.8268 28.1285C96.4277 27.9944 96.9878 27.7187 97.4605 27.3243C97.9332 26.9299 98.3048 26.4283 98.5444 25.8612C98.559 25.8255 98.5864 25.7965 98.6211 25.7799C98.6559 25.7632 98.6957 25.7601 98.7326 25.7711C98.7516 25.7765 98.7692 25.7859 98.7843 25.7986C98.7994 25.8113 98.8116 25.8271 98.8201 25.8449C98.8286 25.8627 98.8333 25.8821 98.8337 25.9019C98.8341 25.9216 98.8304 25.9412 98.8227 25.9594C98.6146 26.4738 98.302 26.9395 97.9047 27.327C97.5074 27.7145 97.034 28.0152 96.5144 28.2103Z" fill="#263238"/>
<path d="M97.2343 19.322C97.1865 19.3401 97.1347 19.3451 97.0843 19.3365C97.0339 19.3278 96.9868 19.3059 96.9478 19.2729C96.6652 19.0376 96.3316 18.8714 95.9735 18.7876C95.6154 18.7038 95.2428 18.7046 94.8851 18.79C94.8486 18.8026 94.8099 18.8078 94.7713 18.8051C94.7328 18.8024 94.6952 18.792 94.6607 18.7744C94.6263 18.7568 94.5958 18.7324 94.5711 18.7028C94.5463 18.6731 94.5279 18.6387 94.5167 18.6017C94.504 18.5663 94.4986 18.5286 94.5008 18.491C94.503 18.4535 94.5129 18.4167 94.5297 18.3831C94.5466 18.3494 94.57 18.3195 94.5988 18.2952C94.6275 18.2708 94.6608 18.2526 94.6968 18.2415C95.1467 18.1215 95.6189 18.1116 96.0735 18.2128C96.528 18.3139 96.9514 18.5231 97.3079 18.8227C97.3386 18.8459 97.3643 18.8751 97.3834 18.9085C97.4025 18.9418 97.4148 18.9787 97.4193 19.0169C97.4239 19.0551 97.4208 19.0938 97.4101 19.1308C97.3994 19.1677 97.3813 19.2021 97.357 19.232C97.3234 19.2708 97.2814 19.3015 97.2343 19.322Z" fill="#263238"/>
<path d="M87.7324 21.5891C87.6827 21.607 87.6291 21.6115 87.577 21.6023C87.5249 21.593 87.4762 21.5703 87.4356 21.5363C87.395 21.5024 87.3641 21.4584 87.3458 21.4088C87.3275 21.3592 87.3225 21.3056 87.3314 21.2535C87.4178 20.7991 87.6114 20.372 87.8961 20.0075C88.1809 19.643 88.5485 19.3518 88.9684 19.158C89.0413 19.1306 89.1219 19.1324 89.1935 19.1629C89.2652 19.1933 89.3223 19.2502 89.3531 19.3217C89.3802 19.3935 89.3782 19.4729 89.3476 19.5432C89.3171 19.6135 89.2603 19.6691 89.1894 19.6983C88.8635 19.8501 88.5788 20.0781 88.3594 20.363C88.14 20.6479 87.9924 20.9814 87.9289 21.3353C87.9223 21.3915 87.9005 21.4448 87.8659 21.4895C87.8313 21.5342 87.7852 21.5686 87.7324 21.5891Z" fill="#263238"/>
<path d="M102.955 15.802C102.825 15.9123 102.685 16.0109 102.538 16.0967C102.145 16.3317 101.699 16.4646 101.241 16.4832C100.784 16.5018 100.329 16.4055 99.9183 16.2031C98.2321 15.3846 97.7 10.5717 92.9035 13.0191C92.3765 12.892 91.824 12.9203 91.3127 13.1004C90.8015 13.2805 90.3533 13.6048 90.0223 14.034C88.7863 15.5483 89.6376 21.0734 87.0019 20.3121C84.3662 19.5509 84.8246 18.7324 84.8246 18.7324C84.8246 18.7324 85.5613 19.1989 85.9951 18.8306C85.6043 18.5019 85.3258 18.0596 85.1981 17.5652C85.0705 17.0708 85.1002 16.5489 85.283 16.0722C85.283 16.0722 85.9214 16.8334 86.3471 16.6861C85.9075 14.4508 86.1617 12.1345 87.0756 10.0478C88.6062 6.23346 97.9702 7.08473 97.9702 7.08473C97.9702 7.08473 99.1488 5.11207 103.381 6.48719C107.612 7.86232 109.544 12.9618 108.873 15.18" fill="#263238"/>
<path d="M47.0846 70.0864L47.6903 67.8027H72.5162L83.9429 68.9405L84.3767 70.0864H47.0846Z" fill="#263238"/>
<path opacity="0.5" d="M47.0846 70.0864L47.6903 67.8027H72.5162L83.9429 68.9405L84.3767 70.0864H47.0846Z" fill="white"/>
<path opacity="0.2" d="M72.5149 67.8027V70.0864H47.0832L47.6889 67.8027H72.5149Z" fill="black"/>
<path d="M64.1174 56.8677C64.1501 57.1446 64.1232 57.4253 64.0386 57.6909C63.954 57.9565 63.8136 58.201 63.6268 58.408C63.44 58.6149 63.2111 58.7795 62.9555 58.8908C62.6999 59.0021 62.4235 59.0575 62.1447 59.0532H24.1159C23.5216 59.039 22.9526 58.8096 22.5146 58.4077C22.0766 58.0058 21.7992 57.4586 21.734 56.8677L19.4749 32.5247C19.4533 32.289 19.4699 32.0513 19.524 31.8208C19.6282 31.3918 19.8756 31.0113 20.2253 30.7419C20.575 30.4725 21.0061 30.3305 21.4475 30.3392H59.4763C60.0706 30.3535 60.6396 30.5829 61.0776 30.9848C61.5156 31.3867 61.793 31.9338 61.8582 32.5247L64.1174 56.8677Z" fill="#263238"/>
<path opacity="0.5" d="M64.1174 56.8677C64.1501 57.1446 64.1232 57.4253 64.0386 57.6909C63.954 57.9565 63.8136 58.201 63.6268 58.408C63.44 58.6149 63.2111 58.7795 62.9555 58.8908C62.6999 59.0021 62.4235 59.0575 62.1447 59.0532H24.1159C23.5216 59.039 22.9526 58.8096 22.5146 58.4077C22.0766 58.0058 21.7992 57.4586 21.734 56.8677L19.4749 32.5247C19.4533 32.289 19.4699 32.0513 19.524 31.8208C19.6282 31.3918 19.8756 31.0113 20.2253 30.7419C20.575 30.4725 21.0061 30.3305 21.4475 30.3392H59.4763C60.0706 30.3535 60.6396 30.5829 61.0776 30.9848C61.5156 31.3867 61.793 31.9338 61.8582 32.5247L64.1174 56.8677Z" fill="white"/>
<path opacity="0.1" d="M61.9807 59.0527H24.091C23.4967 59.0385 22.9277 58.8091 22.4897 58.4072C22.0517 58.0053 21.7743 57.4581 21.7091 56.8673L19.4499 32.5242C19.4284 32.2885 19.445 32.0508 19.4991 31.8203H57.3969C57.9898 31.8365 58.5568 32.0667 58.9931 32.4685C59.4294 32.8702 59.7056 33.4163 59.7706 34.0058L62.0298 58.3488C62.0555 58.5845 62.0389 58.8229 61.9807 59.0527Z" fill="black"/>
<path d="M35.887 44.123H43.7531L41.6576 66.6489L54.0911 68.5152V70.0867H27.89V68.5152L33.2595 66.6489L35.887 44.123Z" fill="#263238"/>
<path opacity="0.5" d="M35.887 44.123H43.7531L41.6576 66.6489L54.0911 68.5152V70.0867H27.89V68.5152L33.2595 66.6489L35.887 44.123Z" fill="white"/>
<path opacity="0.2" d="M43.7524 44.123L37.9245 69.7266L33.2589 69.5875L35.8864 44.123H43.7524Z" fill="white"/>
<path d="M108.686 184.173H61.0474C60.9242 184.173 60.8022 184.148 60.6885 184.101C60.5747 184.053 60.4715 183.984 60.3847 183.896C60.298 183.809 60.2294 183.705 60.183 183.591C60.1366 183.477 60.1132 183.355 60.1143 183.231V180.195C60.1143 179.947 60.2126 179.71 60.3876 179.535C60.5626 179.36 60.8 179.261 61.0474 179.261H106.23V82.0039H61.8169C61.3653 82.0039 60.9323 81.8246 60.613 81.5053C60.2937 81.186 60.1143 80.753 60.1143 80.3014V77.0928H108.686C109.337 77.0928 109.962 77.3515 110.422 77.812C110.883 78.2725 111.141 78.8971 111.141 79.5484V181.717C111.141 182.368 110.883 182.993 110.422 183.453C109.962 183.914 109.337 184.173 108.686 184.173Z" fill="#929292"/>
<path d="M16.1725 77.5937L115.927 77.5937C116.261 77.5937 116.582 77.4368 116.819 77.1575C117.055 76.8781 117.188 76.4992 117.188 76.1041V72.4799L14.9111 72.4799V76.1118C14.9129 76.5056 15.0465 76.8825 15.2829 77.1602C15.5192 77.4379 15.8391 77.5938 16.1725 77.5937Z" fill="white"/>
<path opacity="0.2" d="M116.165 75.5488L14.9111 75.5488V72.4805L116.165 72.4805V75.5488Z" fill="black"/>
<path d="M119.041 73.5029H13.0586C12.7373 73.5029 12.429 73.342 12.2012 73.0552C11.9734 72.7685 11.8446 72.3794 11.8429 71.9728C11.8429 71.5649 11.971 71.1736 12.1989 70.8851C12.4269 70.5967 12.7361 70.4346 13.0586 70.4346H119.041C119.363 70.4346 119.673 70.5967 119.901 70.8851C120.129 71.1736 120.257 71.5649 120.257 71.9728C120.255 72.3794 120.126 72.7685 119.898 73.0552C119.67 73.342 119.362 73.5029 119.041 73.5029Z" fill="white"/>
</g>
</svg>
