<svg width="210" height="140" viewBox="0 0 210 140" fill="none" xmlns="http://www.w3.org/2000/svg">
<g clip-path="url(#clip0_512_35833)">
<path d="M94.4836 38.6913C93.7662 37.8618 93.2499 36.8781 92.9748 35.8165C92.6997 34.7549 92.6732 33.6442 92.8975 32.5707L83.2221 24.7334C84.3324 33.1305 84.4257 35.575 82.4757 39.3351C82.4757 39.3351 85.9745 43.0671 90.8728 42.1994C95.7712 41.3317 94.4836 38.6913 94.4836 38.6913Z" fill="#EEC1BB"/>
<path opacity="0.2" d="M92.8967 32.5707L83.2213 24.7334C83.4732 26.5994 83.6692 28.2135 83.7998 29.5851C84.6023 31.3525 85.8866 32.858 87.5054 33.9289C89.1243 34.9999 91.0122 35.5931 92.9526 35.6403C92.6921 34.6359 92.6729 33.584 92.8967 32.5707Z" fill="black"/>
<path d="M89.3793 8.14533C89.3793 8.14533 92.8221 4.91711 95.0613 5.9061C97.3006 6.8951 92.9061 7.5482 92.9061 7.5482C92.9061 7.5482 100.725 6.82978 97.9537 13.8834L89.3793 8.14533Z" fill="#263238"/>
<path d="M81.5987 18.5482C82.9609 24.7993 83.4647 28.5221 87.1408 31.2558C92.6922 35.3891 100.026 31.2558 100.548 24.7247C101.015 18.8187 98.6821 9.61922 92.151 8.07042C90.705 7.71827 89.1928 7.74276 87.7589 8.14156C86.325 8.54035 85.0173 9.30011 83.9607 10.3483C82.9041 11.3965 82.1339 12.6981 81.7236 14.1287C81.3133 15.5594 81.2768 17.0713 81.6173 18.5202L81.5987 18.5482Z" fill="#EEC1BB"/>
<path d="M91.75 18.8468C91.834 19.36 92.1699 19.7332 92.5057 19.6772C92.8416 19.6212 93.0469 19.1734 92.9629 18.6509C92.8789 18.1284 92.5431 17.7739 92.2072 17.8205C91.8713 17.8672 91.666 18.3244 91.75 18.8468Z" fill="#263238"/>
<path d="M97.5537 17.9142C97.6377 18.4273 97.9643 18.8005 98.3095 18.7445C98.6547 18.6886 98.8506 18.2314 98.7666 17.7276C98.6827 17.2237 98.3468 16.7945 98.0109 16.8878C97.675 16.9811 97.4697 17.4197 97.5537 17.9142Z" fill="#263238"/>
<path d="M95.4242 18.4639C96.2845 19.9354 97.3425 21.2822 98.5685 22.4665C98.2548 22.7715 97.8791 23.0052 97.4669 23.1517C97.0547 23.2982 96.6157 23.3541 96.1799 23.3155L95.4242 18.4639Z" fill="#A02724"/>
<path d="M89.3785 16.7389C89.326 16.7481 89.2723 16.7481 89.2199 16.7389C89.152 16.698 89.102 16.6331 89.0795 16.5572C89.0571 16.4812 89.0639 16.3996 89.0986 16.3284C89.3188 15.8969 89.6384 15.524 90.0309 15.2401C90.4234 14.9562 90.8777 14.7696 91.3565 14.6956C91.3969 14.6919 91.4377 14.6963 91.4764 14.7083C91.5152 14.7204 91.5512 14.74 91.5824 14.766C91.6136 14.792 91.6393 14.8239 91.6582 14.8598C91.6771 14.8958 91.6887 14.9351 91.6923 14.9755C91.696 15.0159 91.6917 15.0567 91.6796 15.0955C91.6676 15.1342 91.6479 15.1702 91.622 15.2014C91.596 15.2326 91.5641 15.2584 91.5281 15.2772C91.4922 15.2961 91.4529 15.3077 91.4124 15.3114C91.0341 15.3717 90.6757 15.5217 90.3673 15.749C90.0588 15.9762 89.8094 16.2741 89.6397 16.6176C89.6088 16.657 89.5691 16.6885 89.5237 16.7096C89.4783 16.7307 89.4285 16.7407 89.3785 16.7389Z" fill="#263238"/>
<path d="M99.4855 15.2365C99.4343 15.2398 99.3831 15.2295 99.3372 15.2066C99.2913 15.1836 99.2523 15.1488 99.2243 15.1059C99.0188 14.7913 98.7435 14.5283 98.4199 14.3373C98.0963 14.1464 97.733 14.0326 97.3582 14.0049C97.3183 14.0074 97.2782 14.0019 97.2404 13.9886C97.2026 13.9753 97.1679 13.9545 97.1383 13.9275C97.1087 13.9006 97.0848 13.8679 97.0681 13.8315C97.0514 13.7951 97.0422 13.7557 97.041 13.7157C97.0409 13.6347 97.0717 13.5567 97.1272 13.4977C97.1827 13.4387 97.2587 13.4032 97.3396 13.3984C97.8247 13.4147 98.2989 13.5468 98.7226 13.7838C99.1462 14.0208 99.507 14.3557 99.7747 14.7606C99.8199 14.8256 99.8383 14.9055 99.8261 14.9836C99.814 15.0618 99.7722 15.1323 99.7094 15.1805C99.6802 15.2085 99.6441 15.2283 99.6049 15.2381C99.5656 15.2479 99.5245 15.2474 99.4855 15.2365Z" fill="#263238"/>
<path fill-rule="evenodd" clip-rule="evenodd" d="M84.5079 13.0062C83.183 15.3107 84.8531 20.2277 85.7861 22.4203L83.8921 22.7468L81.345 22.3923C74.7112 16.8408 77.8742 13.8086 77.8742 13.8086C73.9275 11.644 80.0201 9.31142 80.0201 9.31142C75.4856 7.05353 83.6215 6.59635 83.6215 6.59635C78.6672 0.223863 87.7734 4.03989 89.173 5.12218C94.7151 9.44204 84.5079 13.0062 84.5079 13.0062Z" fill="#263238"/>
<path d="M79.434 24.9114C80.4912 26.1216 81.9832 26.8659 83.5859 26.9827C85.7132 27.104 86.3383 25.1167 85.3679 23.3253C84.5002 21.7298 82.3543 19.7332 80.395 20.4329C79.9686 20.5939 79.5895 20.8592 79.2922 21.2046C78.9949 21.5501 78.7891 21.9646 78.6935 22.4101C78.5978 22.8557 78.6155 23.3182 78.7449 23.7552C78.8743 24.1921 79.1112 24.5897 79.434 24.9114Z" fill="#EEC1BB"/>
<path d="M98.169 25.3772C96.103 25.1462 94.0212 25.09 91.9458 25.2093C92.5523 26.4409 93.6159 27.4206 95.9578 27.3366C98.2996 27.2526 98.169 25.3772 98.169 25.3772Z" fill="#263238"/>
<path d="M94.8172 26.3943C95.7119 26.3192 96.6093 26.5038 97.4017 26.9261C96.9731 27.2004 96.4736 27.3432 95.9648 27.3366C95.0701 27.4118 94.1727 27.2271 93.3804 26.8048C93.8094 26.5315 94.3086 26.3889 94.8172 26.3943Z" fill="#FF5652"/>
<path d="M97.9546 25.3787C97.9158 25.538 97.8318 25.6827 97.7126 25.7953C97.5934 25.9079 97.4441 25.9836 97.2828 26.0132C95.9269 26.0508 94.5702 25.9853 93.2242 25.8172C93.0123 25.813 92.8044 25.7583 92.6178 25.6577C92.4312 25.5571 92.2713 25.4135 92.1512 25.2388C94.0866 25.1547 96.0255 25.2015 97.9546 25.3787Z" fill="white"/>
<path fill-rule="evenodd" clip-rule="evenodd" d="M22.1707 128.609C7.99987 115.143 -2.90183 84.3041 6.49978 62.7241C16.4177 39.9591 50.2628 41.9923 77.9264 30.961C103.378 20.8118 112.789 28.3817 135.008 28.3693C160.277 28.3552 188.228 18.3015 199.294 31.6448C211.108 45.8906 205.767 66.532 192.069 86.7636C179.492 105.339 156.454 119.436 133.37 129.013C114.525 136.83 96.6845 137.467 78.5904 137.401C57.534 137.324 34.065 139.911 22.1707 128.609Z" fill="#FFECB2"/>
<mask id="mask0_512_35833" style="mask-type:alpha" maskUnits="userSpaceOnUse" x="2" y="24" width="204" height="114">
<path fill-rule="evenodd" clip-rule="evenodd" d="M22.1707 128.609C7.99987 115.143 -2.90183 84.3041 6.49978 62.7241C16.4177 39.9591 50.2628 41.9923 77.9264 30.961C103.378 20.8118 112.789 28.3817 135.008 28.3693C160.277 28.3552 188.228 18.3015 199.294 31.6448C211.108 45.8906 205.767 66.532 192.069 86.7636C179.492 105.339 156.454 119.436 133.37 129.013C114.525 136.83 96.6845 137.467 78.5904 137.401C57.534 137.324 34.065 139.911 22.1707 128.609Z" fill="#FFECB2"/>
</mask>
<g mask="url(#mask0_512_35833)">
<path fill-rule="evenodd" clip-rule="evenodd" d="M131.059 38.6094L105.185 -1.80493C104.398 -3.03377 102.603 -3.03377 101.816 -1.80493L75.942 38.6094C74.8568 40.3045 73.1724 41.5283 71.2249 42.0366L24.7931 54.1556C23.3813 54.524 22.8265 56.2315 23.7521 57.3594L54.1928 94.4558C55.4696 96.0118 56.113 97.9919 55.9946 100.001L53.1722 147.905C53.0864 149.362 54.5388 150.417 55.8976 149.885L100.585 132.398C102.459 131.665 104.541 131.665 106.416 132.398L151.103 149.885C152.462 150.417 153.914 149.362 153.829 147.905L151.006 100.001C150.888 97.9919 151.531 96.0118 152.808 94.4558L183.249 57.3594C184.174 56.2315 183.62 54.524 182.208 54.1556L135.776 42.0366C133.828 41.5283 132.144 40.3045 131.059 38.6094ZM107.711 -3.42249C105.745 -6.49459 101.256 -6.49459 99.2895 -3.42249L73.4155 36.9918C72.7372 38.0513 71.6845 38.8161 70.4672 39.1338L24.0354 51.2528C20.5059 52.174 19.119 56.4426 21.4329 59.2625L51.8737 96.3589C52.6717 97.3313 53.0738 98.5689 52.9998 99.8247L50.1774 147.729C49.9629 151.37 53.5939 154.009 56.9909 152.679L101.678 135.192C102.85 134.733 104.151 134.733 105.323 135.192L150.01 152.679C153.407 154.009 157.038 151.37 156.823 147.729L154.001 99.8247C153.927 98.5689 154.329 97.3313 155.127 96.3589L185.568 59.2625C187.882 56.4426 186.495 52.174 182.965 51.2528L136.534 39.1338C135.316 38.8161 134.264 38.0513 133.585 36.9918L107.711 -3.42249Z" fill="#EFE1B6"/>
<path d="M105.382 35.499C96.2927 35.499 87.4076 38.1943 79.8502 43.2439C72.2929 48.2936 66.4026 55.4709 62.9243 63.8682C59.4461 72.2655 58.536 81.5057 60.3092 90.4202C62.0824 99.3347 66.4593 107.523 72.8863 113.95C79.3133 120.377 87.5018 124.754 96.4163 126.527C105.331 128.301 114.571 127.39 122.968 123.912C131.366 120.434 138.543 114.544 143.593 106.986C148.642 99.4289 151.338 90.5439 151.338 81.4547C151.338 69.2665 146.496 57.5775 137.877 48.9591C129.259 40.3408 117.57 35.499 105.382 35.499ZM105.382 123.588C98.9317 123.583 92.5687 122.099 86.7822 119.249C80.9958 116.399 75.9403 112.26 72.0047 107.15C68.069 102.04 65.3581 96.0945 64.0806 89.7722C62.8031 83.4498 62.993 76.9187 64.6357 70.6813C64.8064 70.617 64.9605 70.5151 65.0865 70.3832C65.2125 70.2512 65.3072 70.0926 65.3636 69.9191C65.4207 69.5799 66.1257 69.1569 66.9108 68.9854C67.6958 68.8139 68.58 68.9626 68.8429 69.3055C69.1359 69.7671 69.2697 70.3118 69.224 70.8566C69.2129 71.0804 69.1443 71.2976 69.0249 71.4872C68.9054 71.6768 68.739 71.8323 68.5418 71.9389C68.2255 72.0303 67.8788 73.0478 67.7797 74.1949C67.7797 74.3207 67.7797 74.3817 67.753 74.5074C67.6463 75.6507 68.0045 76.9464 68.5495 77.4189C69.0944 77.8915 69.4031 78.6194 69.2316 79.0081C69.0601 79.3968 69.7651 79.8884 70.8131 80.1514C71.8611 80.4143 72.7186 80.7497 72.7186 80.9135C72.7186 81.0774 73.054 81.2946 73.4808 81.4242C73.7017 81.5104 73.8967 81.6522 74.0469 81.8358C74.1971 82.0193 74.2975 82.2385 74.3382 82.4722C74.3954 82.9181 74.6888 83.1353 74.9823 82.9524C75.1085 82.8595 75.2621 82.8113 75.4187 82.8155C75.5754 82.8196 75.7262 82.8758 75.8473 82.9752C75.9429 83.1348 76.0023 83.3134 76.0214 83.4984C76.0405 83.6834 76.0188 83.8704 75.9579 84.0461C75.9146 84.2187 75.8337 84.3795 75.7211 84.5172C75.6084 84.6549 75.4668 84.766 75.3062 84.8426C75.0699 84.8921 74.8756 85.3799 74.8756 85.9287C74.8756 86.4775 75.3367 87.4073 75.9007 88.0133C76.4647 88.6192 76.7848 89.5795 76.6057 90.1169C76.4266 90.6542 76.7925 91.4812 77.4212 91.969C78.05 92.4568 78.5645 93.9735 78.5645 95.3302V97.9978C78.5645 99.3545 78.8122 100.715 79.1133 101.024C79.279 101.249 79.3981 101.504 79.4635 101.776C79.529 102.048 79.5395 102.329 79.4944 102.605C79.4029 103.162 79.9212 104.13 80.6377 104.774C81.3541 105.418 82.1087 105.486 82.2916 104.93C82.3832 104.666 82.4008 104.383 82.3423 104.11C82.2838 103.837 82.1516 103.585 81.96 103.383C81.598 103.089 81.3236 101.889 81.3541 100.715C81.4757 99.3606 82.0948 98.0993 83.0919 97.1747C83.6483 96.7021 83.9265 96.462 84.4867 95.9704C85.4165 95.1473 86.0834 93.7487 85.9615 92.8988C85.8592 91.9727 86.1186 91.0429 86.6856 90.3036C87.2115 89.7205 87.1848 88.2991 86.6322 87.1749C86.0796 86.0506 85.0469 85.0407 84.3457 84.9112C83.6445 84.7816 83.069 84.3548 83.069 83.9623C83.0592 83.7668 82.9746 83.5826 82.8327 83.4478C82.6908 83.313 82.5025 83.2379 82.3068 83.2382C81.764 83.161 81.2709 82.8804 80.9273 82.4531C80.5957 82.0301 79.3305 81.691 78.1263 81.691H77.5623C76.3618 81.691 75.3595 81.3823 75.3329 81.0279C75.2828 80.8174 75.1755 80.6248 75.0228 80.4715C74.8701 80.3182 74.6781 80.21 74.4678 80.159C74.2643 80.115 74.0788 80.0108 73.9354 79.8599C73.7919 79.709 73.6973 79.5184 73.6637 79.313C73.6421 79.1145 73.5653 78.9262 73.4421 78.7692C73.3188 78.6122 73.154 78.493 72.9663 78.425C72.5852 78.2878 72.4404 77.7924 72.6462 77.3122C72.9825 76.7177 73.5125 76.2564 74.1477 76.0051C74.765 75.7612 75.4967 75.8603 75.7635 76.2338C76.0303 76.6072 76.3961 76.9045 76.5752 76.893C76.7543 76.8816 76.903 76.512 76.903 76.0318C76.903 75.5516 77.7299 74.5493 78.7551 73.7452L78.8656 73.6576C79.8869 72.842 80.6567 71.7026 80.5652 71.1614C80.4738 70.6203 81.3846 70.182 82.6003 70.2163H82.9432C84.1589 70.2544 85.1612 69.5037 85.1612 68.5281C85.1612 67.5525 84.9363 66.7789 84.6581 66.8132C84.38 66.8475 83.9569 66.4321 83.713 65.8948C83.4691 65.3574 82.6231 65.1707 81.8305 65.4718C81.0378 65.7728 80.2756 66.2149 80.1232 66.4474C79.9707 66.6798 79.4791 66.7294 79.0295 66.5731C78.5798 66.4169 78.6979 65.8681 79.3 65.346C79.968 64.7218 80.4607 63.9334 80.7291 63.0595C80.912 62.3316 80.066 61.84 78.8618 62.0077L77.9891 62.1296C76.7886 62.3087 75.573 62.8918 75.2757 63.391C74.9785 63.8902 73.7704 64.4009 72.6081 64.5724C70.4699 64.8625 68.3502 65.2748 66.2591 65.8071C69.4466 57.8492 74.9846 51.0523 82.1345 46.323C89.2844 41.5937 97.7064 39.1568 106.277 39.3373C114.848 39.5178 123.159 42.3072 130.104 47.3334C137.048 52.3596 142.295 59.3836 145.145 67.4687C144.135 67.2019 143.14 66.7065 142.832 66.253C142.523 65.7995 141.273 64.843 140.126 64.2713L138.918 63.6502C137.583 63.0247 136.149 62.6378 134.68 62.5069L134.177 62.4878C133.003 62.4535 131.509 61.7904 130.884 60.9635C129.99 59.9644 128.812 59.2613 127.508 58.9475C126.052 58.6426 125.32 58.5016 123.849 58.2501C122.615 58.0367 121.182 58.1586 120.698 58.5016C120.214 58.8446 119.795 59.4124 119.795 59.7516C119.795 60.0908 119.261 60.4909 118.609 60.6472C117.958 60.8034 117.344 60.7501 117.253 60.51C117.161 60.2699 116.369 60.0107 115.492 59.9383C114.616 59.8659 113.648 59.8011 113.335 59.7821C112.448 59.5424 111.588 59.2103 110.77 58.7913C109.673 58.2768 108.133 58.2311 107.341 58.6884C106.434 59.3055 105.752 60.2001 105.397 61.2379C105.115 62.1753 105.066 63.3643 105.283 63.8712C105.392 64.1232 105.566 64.342 105.786 64.5053C106.007 64.6686 106.267 64.7706 106.54 64.801C106.764 64.8083 106.984 64.7443 107.169 64.6183C107.354 64.4923 107.494 64.3107 107.569 64.0998C107.629 63.891 107.73 63.6965 107.867 63.5281C108.004 63.3597 108.173 63.221 108.366 63.1204C108.713 62.968 109.048 63.6502 109.109 64.6257C109.123 65.1354 108.991 65.6386 108.729 66.0755C108.466 66.5125 108.083 66.8651 107.626 67.0914C106.746 67.4725 105.95 67.3429 105.854 66.7941C105.822 66.538 105.719 66.2958 105.558 66.0941C105.396 65.8924 105.183 65.7391 104.94 65.6509C104.532 65.5747 104.2 66.032 104.2 66.6493C104.195 66.9658 104.101 67.2745 103.929 67.5404C103.757 67.8064 103.515 68.0191 103.229 68.1546C102.662 68.3817 102.182 68.7818 101.857 69.2979C101.636 69.7648 101.595 70.2967 101.742 70.7918C101.902 71.1729 101.62 71.5044 101.117 71.512C100.614 71.5197 100.306 72.1942 100.431 73.0135C100.557 73.8329 101.072 74.4922 101.575 74.4884C101.815 74.4874 102.049 74.4106 102.243 74.269C102.438 74.1274 102.583 73.9281 102.657 73.6995C102.718 73.4783 102.854 73.2852 103.042 73.1537C103.229 73.0221 103.457 72.9604 103.686 72.9792C104.187 73.0087 104.684 72.8837 105.111 72.621C105.428 72.3847 105.942 72.5753 106.255 73.0478C106.572 73.5311 106.694 74.1166 106.598 74.6865C106.472 75.1172 106.704 75.2772 107.112 75.0448C107.52 74.8123 107.699 74.0768 107.512 73.4099C107.325 72.743 107.322 72.1027 107.512 71.9846C107.703 71.8665 108.213 72.3657 108.655 73.0631C109.097 73.7605 109.841 74.1606 110.309 73.932C110.778 73.7033 111.498 73.9739 111.906 74.5227C112.312 75.0723 112.514 75.7459 112.478 76.4281C112.382 76.9311 111.46 77.5714 110.424 77.8953C109.387 78.2192 108.053 78.1964 107.459 77.8953C106.838 77.5578 106.338 77.034 106.03 76.3976C105.843 75.8908 104.966 75.4411 104.09 75.403C103.213 75.3649 101.685 76.1652 100.702 77.1331L99.715 78.1201C98.7318 79.1034 97.8515 80.6315 97.76 81.5233C97.6686 82.415 97.4323 83.2687 97.2456 83.4287C97.0588 83.5888 96.9064 84.4043 96.9064 85.2542C96.9064 86.104 97.5199 87.4454 98.2707 88.2343C99.2081 89.1086 100.421 89.6288 101.701 89.7053C102.844 89.7053 104.086 89.9797 104.498 90.296C104.909 90.6123 105.26 91.5079 105.294 92.2929C105.328 93.0779 105.736 93.9392 106.209 94.1983C106.681 94.4575 106.948 95.9704 106.799 97.5329C106.799 97.712 106.777 97.7996 106.758 97.9788C106.613 99.5412 106.758 101.332 107.139 101.954C107.563 102.893 107.815 103.901 107.882 104.93C107.943 105.944 108.686 106.919 109.536 107.083C110.386 107.247 111.769 106.496 112.611 105.433C113.453 104.37 114.135 102.518 114.094 101.321C114.052 100.124 114.52 98.6533 115.115 98.0283C115.709 97.4033 116.22 95.7418 116.258 94.3317C116.296 92.9217 116.799 91.1039 117.401 90.315C118.004 89.5262 118.4 88.4096 118.308 87.857C118.217 87.3044 117.501 86.6299 116.723 86.3784C115.946 86.1269 115.279 85.418 115.248 84.8007C115.199 84.1299 114.984 83.4818 114.623 82.9143C114.267 82.3442 114.089 81.6807 114.113 81.0088C114.143 80.3876 114.349 79.8846 114.566 79.8846C114.783 79.8846 115.397 80.6163 115.93 81.4966C116.464 82.3769 116.868 83.5011 116.837 83.9966C116.807 84.492 117.009 84.9912 117.291 85.1017C117.573 85.2122 118.51 84.7549 119.383 84.0995C120.256 83.444 120.427 81.9425 119.764 80.7382C119.101 79.534 119.036 78.5051 119.596 78.4746C119.857 78.453 120.118 78.5153 120.341 78.6524C120.564 78.7895 120.737 78.9943 120.835 79.2367C121.155 79.9508 121.636 80.5809 122.241 81.0774C122.861 81.6151 123.539 82.0829 124.261 82.4722C124.722 82.6894 125.046 83.4859 124.985 84.2519C124.924 85.0179 125.602 86.4241 126.49 87.3425C127.378 88.261 128.442 87.8684 128.865 86.5232L129.322 85.0598C129.741 83.726 130.465 82.7352 130.964 82.8266C131.464 82.9181 132.108 83.8251 132.443 84.8197C132.706 85.6873 133.112 86.505 133.643 87.2396C133.971 87.575 134.215 87.312 134.185 86.6566C134.154 86.0011 134.253 85.4523 134.402 85.4447C134.642 85.4901 134.855 85.6267 134.996 85.8258C135.175 86.043 135.736 85.9211 136.239 85.5667C136.742 85.2122 137.127 83.9775 137.1 82.8114C137.073 81.6452 137.405 80.5858 137.862 80.4677C138.126 80.3536 138.36 80.1795 138.546 79.9592C138.731 79.7389 138.862 79.4785 138.929 79.1986C138.982 78.8398 138.962 78.4739 138.871 78.123C138.779 77.772 138.617 77.4431 138.396 77.156C137.957 76.6034 137.813 75.7421 138.076 75.2696C138.339 74.797 138.75 74.4426 138.983 74.4731C139.215 74.5036 139.813 73.6614 140.305 72.6515C140.686 71.8626 140.88 71.4777 141.261 70.7194C141.753 69.7552 142.386 69.195 142.672 69.4427C143 69.7812 143.187 70.2324 143.194 70.7041C143.194 70.9262 143.24 71.1459 143.329 71.3492C143.418 71.5526 143.548 71.7352 143.712 71.8855C143.998 72.0875 144.512 71.7178 144.855 71.0967C145.14 70.6444 145.533 70.2699 145.998 70.0067C147.763 76.2774 148.051 82.8717 146.839 89.2722C145.627 95.6726 142.948 101.705 139.013 106.897C135.078 112.088 129.993 116.297 124.158 119.193C118.323 122.089 111.896 123.593 105.382 123.588Z" fill="#EFE1B6"/>
<path d="M89.9818 56.3142L89.8713 56.2456C88.8157 55.6092 86.9864 55.6397 85.8013 56.2838C85.0696 56.6648 84.6999 56.8859 83.972 57.2936C82.7945 57.9491 81.8341 58.818 81.8341 59.1991C81.8963 59.807 82.0653 60.3991 82.3333 60.9483C82.6107 61.5533 82.706 62.226 82.6077 62.8842C82.4858 63.3644 82.8859 63.7836 83.4957 63.8293C84.2619 63.9619 84.9539 64.3682 85.443 64.9726C85.8405 65.5131 86.3637 65.9487 86.9674 66.2416C87.3485 66.3483 88.0154 65.5824 88.4917 64.5305C89.0319 63.3819 89.8669 62.397 90.9117 61.6762C91.3437 61.4138 91.6941 61.0364 91.9236 60.5861C92.1532 60.1357 92.2527 59.6304 92.2112 59.1267C92.0435 58.2387 91.0374 56.9545 89.9818 56.3142Z" fill="#FFC100"/>
<path d="M119.04 96.7171C118.837 96.588 118.605 96.512 118.365 96.4961C118.209 96.4961 117.851 96.9725 117.573 97.525C117.252 98.2603 117.078 99.0514 117.062 99.8535C117.034 100.489 117.165 101.122 117.443 101.694C117.523 101.825 117.651 101.918 117.799 101.955C117.948 101.991 118.105 101.967 118.236 101.889C118.453 101.717 118.807 100.532 119.025 99.2628C119.242 97.9938 119.261 96.8353 119.04 96.7171Z" fill="#FFC100"/>
<path d="M100.877 67.2737C101.284 67.331 101.699 67.2729 102.074 67.106C102.421 66.9421 102.703 66.2028 102.703 65.4597C102.703 64.7165 102.497 64.1106 102.246 64.1182C101.994 64.1259 101.712 64.4498 101.621 64.8423C101.579 65.0294 101.489 65.202 101.358 65.3421C101.227 65.4822 101.061 65.5846 100.877 65.6388C100.707 65.6882 100.557 65.7936 100.454 65.9381C100.35 66.0825 100.298 66.2576 100.306 66.4353C100.3 66.6175 100.352 66.7969 100.455 66.9476C100.558 67.0983 100.706 67.2124 100.877 67.2737Z" fill="#FFC100"/>
<path d="M141.204 97.388C141.598 96.7478 141.832 96.0224 141.886 95.2729C141.816 94.4482 141.584 93.6455 141.204 92.9102C140.823 92.1746 140.354 91.5154 140.149 91.4658C139.943 91.4163 139.768 91.6411 139.768 91.9727C139.775 92.0428 139.769 92.1138 139.75 92.1816C139.73 92.2494 139.697 92.3125 139.653 92.3675C139.608 92.4224 139.554 92.468 139.492 92.5016C139.429 92.5353 139.361 92.5562 139.291 92.5634C139.011 92.5544 138.742 92.4495 138.529 92.2661C138.384 92.1099 137.854 92.1289 137.355 92.3157C136.791 92.5471 136.306 92.936 135.957 93.4361C135.573 93.9915 135.099 94.4785 134.554 94.8766C134.047 95.2348 133.682 96.3095 133.739 97.2584C133.796 98.2073 134.238 98.8856 134.714 98.7828L136.334 98.3712C136.742 98.26 137.175 98.2827 137.569 98.436C138.119 98.6145 138.701 98.6717 139.276 98.6036C139.663 98.5424 140.034 98.403 140.365 98.1941C140.697 97.9851 140.982 97.7108 141.204 97.388Z" fill="#FFC100"/>
<path d="M141.46 79.3774C141.692 79.3774 142.188 78.8591 142.561 78.2342C142.965 77.4355 143.128 76.5363 143.03 75.6466C142.915 74.8425 142.611 74.0307 142.351 73.8478C142.224 73.7565 142.077 73.6966 141.922 73.6727C141.767 73.6489 141.609 73.6619 141.46 73.7106C141.227 73.8211 141.159 74.2441 141.3 74.6443C141.441 75.0444 141.3 75.9781 140.987 76.7441C140.675 77.5101 140.549 78.4323 140.724 78.7677C140.794 78.9177 140.896 79.0503 141.023 79.1558C141.15 79.2613 141.299 79.337 141.46 79.3774Z" fill="#FFC100"/>
<path d="M143.343 96.0086C143.171 96.3173 142.889 96.8547 142.718 97.1976C142.334 97.8248 141.895 98.4165 141.407 98.9659C140.858 99.5985 140.5 100.338 140.618 100.593C140.736 100.848 141.209 100.906 141.67 100.719C142.131 100.532 142.672 99.8005 142.874 99.0993C143.095 98.352 143.447 97.65 143.914 97.0261C144.295 96.5879 144.375 96.062 144.12 95.8486C144.062 95.7974 143.994 95.7604 143.919 95.7405C143.845 95.7206 143.767 95.7183 143.691 95.7338C143.616 95.7494 143.545 95.7823 143.484 95.83C143.424 95.8777 143.375 95.9389 143.343 96.0086Z" fill="#FFC100"/>
<path d="M64.6623 72.5156H63.9642V87.2912H64.6623V72.5156Z" fill="#E0E0E0"/>
<path d="M55.8026 75.151C55.6392 75.3126 55.4187 75.4033 55.1889 75.4033C54.9591 75.4033 54.7385 75.3126 54.5752 75.151L52.4693 73.0452C52.3077 72.8818 52.217 72.6613 52.217 72.4314C52.217 72.2016 52.3077 71.9811 52.4693 71.8177C52.6327 71.6561 52.8532 71.5654 53.0831 71.5654C53.3129 71.5654 53.5334 71.6561 53.6968 71.8177L55.8026 73.9235C55.9642 74.0869 56.0549 74.3074 56.0549 74.5373C56.0549 74.7671 55.9642 74.9876 55.8026 75.151Z" fill="#E0E0E0"/>
<path d="M61.6668 87.2916H60.9687V83.4755C60.9751 82.6399 60.8159 81.8113 60.5004 81.0375C60.1849 80.2638 59.7193 79.5601 59.1305 78.9672L53.895 73.7318L54.3895 73.2373L59.6249 78.4728C60.2841 79.1281 60.8065 79.9077 61.162 80.7665C61.5175 81.6253 61.699 82.5461 61.6959 83.4755L61.6668 87.2916Z" fill="#E0E0E0"/>
<path d="M72.6151 75.151C72.7785 75.3126 72.999 75.4033 73.2288 75.4033C73.4586 75.4033 73.6791 75.3126 73.8425 75.151L75.9483 73.0452C76.11 72.8818 76.2006 72.6613 76.2006 72.4314C76.2006 72.2016 76.11 71.9811 75.9483 71.8177C75.785 71.6561 75.5644 71.5654 75.3346 71.5654C75.1048 71.5654 74.8843 71.6561 74.7209 71.8177L72.6151 73.9235C72.4535 74.0869 72.3628 74.3074 72.3628 74.5373C72.3628 74.7671 72.4535 74.9876 72.6151 75.151Z" fill="#E0E0E0"/>
<path d="M67.4437 87.2916H66.7456V83.4755C66.7438 82.5463 66.9258 81.6258 67.2812 80.7672C67.6367 79.9086 68.1584 79.1288 68.8165 78.4728L74.052 73.2373L74.5465 73.7318L69.311 78.9672C68.7169 79.5577 68.2459 80.2603 67.9254 81.0342C67.6048 81.8081 67.4411 82.6379 67.4437 83.4755V87.2916Z" fill="#E0E0E0"/>
<path d="M79.3274 99.3742H49.305L47.2108 86.21H81.4216L79.3274 99.3742Z" fill="#E0E0E0"/>
<path d="M81.4216 83.918H47.2108V86.2099H81.4216V83.918Z" fill="#F0F0F0"/>
<path d="M70.9625 89.124H57.6644V155.3H70.9625V89.124Z" fill="#F0F0F0"/>
<path d="M87.4601 115.662C87.4601 115.662 79.7757 127.756 80.0723 142.677C80.0723 142.677 84.1967 124.667 87.4601 115.662Z" fill="#F0F0F0"/>
<path d="M73.2717 109.345C73.2717 109.345 82.9108 123.486 80.8341 141.252C80.8282 141.252 77.4136 118.809 73.2717 109.345Z" fill="#F0F0F0"/>
<path d="M80.6827 145.538C80.6827 145.538 83.184 127.168 71.9045 121.624C71.9278 121.641 77.8846 126.254 80.6827 145.538Z" fill="#F5F5F5"/>
<path d="M81.8176 150.862C81.7885 150.647 78.909 129.233 83.2428 110.805L83.8245 110.95C79.5082 129.263 82.3819 150.559 82.411 150.774L81.8176 150.862Z" fill="#E0E0E0"/>
<path d="M81.7182 111.131L81.5146 111.178C81.3672 111.217 81.2413 111.313 81.164 111.445C81.0867 111.577 81.0643 111.733 81.1016 111.882L81.3925 112.795C81.4206 112.886 81.4721 112.968 81.5419 113.033C81.6117 113.099 81.6974 113.144 81.7903 113.166C81.8833 113.188 81.9803 113.185 82.0717 113.157C82.1632 113.13 82.2459 113.079 82.3116 113.01L82.6432 112.673C82.7103 112.613 82.7902 112.57 82.8766 112.547C82.9631 112.524 83.0537 112.521 83.1415 112.538C83.2294 112.556 83.312 112.593 83.3829 112.648C83.4539 112.702 83.5113 112.773 83.5506 112.853L84.0509 114.104C84.0853 114.175 84.134 114.239 84.194 114.291C84.254 114.343 84.3241 114.383 84.3998 114.407C84.4756 114.431 84.5555 114.439 84.6345 114.431C84.7136 114.423 84.7902 114.398 84.8595 114.36L85.895 113.696C85.9649 113.652 86.0238 113.593 86.0673 113.522C86.1109 113.452 86.1379 113.372 86.1463 113.29C86.1547 113.208 86.1443 113.125 86.1159 113.047C86.0874 112.969 86.0417 112.899 85.9822 112.841L85.8077 112.667C85.7431 112.588 85.7003 112.493 85.6838 112.393C85.6672 112.292 85.6775 112.189 85.7134 112.093C85.7494 111.998 85.8098 111.914 85.8886 111.849C85.9674 111.784 86.0619 111.741 86.1626 111.724L87.0817 111.672C87.2342 111.655 87.3735 111.577 87.4694 111.458C87.5653 111.338 87.6099 111.185 87.5936 111.032L87.4656 110.259C87.4464 110.175 87.4089 110.097 87.3559 110.029C87.3028 109.962 87.2356 109.907 87.1588 109.869C87.0821 109.83 86.9979 109.809 86.9121 109.807C86.8264 109.805 86.7412 109.822 86.6628 109.857L86.5988 109.892C86.4984 109.93 86.3893 109.94 86.2837 109.92C86.1781 109.9 86.0801 109.851 86.0005 109.779C85.921 109.707 85.863 109.614 85.8331 109.51C85.8032 109.407 85.8024 109.298 85.831 109.194L86.1102 108.496C86.1423 108.417 86.1556 108.332 86.1489 108.247C86.1422 108.162 86.1157 108.08 86.0717 108.007C86.0276 107.934 85.9671 107.872 85.895 107.827C85.8229 107.782 85.7412 107.754 85.6565 107.746L84.6734 107.647C84.5987 107.642 84.5238 107.652 84.4534 107.678C84.3829 107.703 84.3185 107.743 84.2639 107.794C84.2094 107.845 84.166 107.907 84.1363 107.976C84.1067 108.045 84.0915 108.119 84.0916 108.193C84.0751 108.305 84.0267 108.409 83.9523 108.493C83.8778 108.577 83.7806 108.638 83.6723 108.668C83.5639 108.698 83.4492 108.697 83.3419 108.663C83.2347 108.629 83.1394 108.565 83.0678 108.478L82.9282 108.257C82.8855 108.185 82.8269 108.124 82.7567 108.078C82.6865 108.032 82.6068 108.003 82.5235 107.993C82.4403 107.983 82.3559 107.992 82.2768 108.02C82.1977 108.047 82.126 108.093 82.0673 108.153L81.3634 108.851C81.2585 108.959 81.1999 109.104 81.1999 109.255C81.1999 109.406 81.2585 109.551 81.3634 109.659L81.9451 110.177C82.0131 110.247 82.0622 110.334 82.0881 110.428C82.114 110.522 82.1157 110.621 82.0931 110.716C82.0705 110.811 82.0243 110.899 81.9588 110.972C81.8932 111.044 81.8105 111.099 81.7182 111.131Z" fill="#E0E0E0"/>
<path d="M82.981 140.629L83.743 134.486H76.7624L77.5536 140.635C75.937 141.194 74.5349 142.243 73.5423 143.636C72.5498 145.029 72.0161 146.696 72.0156 148.407C72.1528 151.39 73.1981 154.26 75.0115 156.632H85.4824C87.2935 154.259 88.3385 151.389 88.4782 148.407C88.481 146.701 87.9536 145.036 86.9687 143.642C85.9839 142.249 84.5904 141.196 82.981 140.629Z" fill="#F0F0F0"/>
<path d="M111.076 107.008L121.133 237.807L112.54 238.236C112.54 238.236 103.882 207.447 102.277 188.693C102.165 187.396 102.091 186.165 102.053 184.961C101.913 179.496 101.289 174.054 100.187 168.699L99.7861 166.833L94.188 140.559C94.188 140.559 85.6696 126.293 90.5026 106.383L111.076 107.008Z" fill="#263238"/>
<path opacity="0.4" d="M97.0805 154.47C99.9262 140.148 98.4987 123.148 98.4987 123.148L94.2815 124.837L91.4824 132.749C91.4824 132.749 91.4824 133.384 91.4824 134.438C92.1636 136.567 93.0478 138.626 94.1229 140.586L97.0805 154.47Z" fill="black"/>
<path d="M102.997 107.007L93.9652 149.776L79.6994 238.021L71.1437 237.647C71.1437 237.647 69.2777 209.2 71.8248 190.26C72.03 188.767 72.2633 187.33 72.5245 185.968C73.7841 179.655 74.4093 173.232 74.3906 166.794V164.928L74.1293 140.577C74.1293 140.577 72.3566 122.103 77.2736 106.4L102.997 107.007Z" fill="#263238"/>
<path opacity="0.4" d="M111.075 107.007L90.4457 106.41C90.4457 106.513 90.399 106.615 90.3804 106.718L77.2435 106.41C75.7331 111.44 74.742 116.611 74.2859 121.842L93.1794 124.529C94.2172 124.678 95.2737 124.444 96.1513 123.871C97.0289 123.297 97.6673 122.423 97.9471 121.413L99.8131 114.574L101.679 121.385C101.956 122.376 102.598 123.225 103.475 123.762C104.353 124.299 105.401 124.483 106.41 124.277L112.297 123.074L111.075 107.007Z" fill="black"/>
<path d="M136.958 77.4963L142.295 77.7669C143.395 77.2324 144.53 76.7711 145.691 76.3861C146.624 76.1808 148.695 75.677 149.498 76.1901C150.006 76.6875 150.404 77.2855 150.668 77.9458C150.931 78.6062 151.054 79.3143 151.028 80.0248C150.757 81.3404 148.565 83.5983 147.24 83.8688C145.915 84.1394 141.931 81.7136 141.931 81.7136L136.473 81.6576L136.958 77.4963Z" fill="#EEC1BB"/>
<path d="M135.912 76.7129L140.466 77.2634L139.215 82.227L134.662 82.171L135.912 76.7129Z" fill="#FFC100"/>
<path opacity="0.8" d="M135.912 76.7129L140.466 77.2634L139.215 82.227L134.662 82.171L135.912 76.7129Z" fill="white"/>
<path d="M106.336 40.2227C106.336 40.2227 110.32 42.0887 116.348 59.0882C121.638 74.0164 137.994 76.4609 137.994 76.4609L136.594 82.7401C136.594 82.7401 114.202 83.1226 110.096 66.1138C105.991 49.1049 106.336 40.2227 106.336 40.2227Z" fill="#263238"/>
<path opacity="0.4" d="M110.143 66.1133C110.807 68.9937 112.154 71.6721 114.071 73.9226C113.795 66.4286 112.757 58.9821 110.973 51.6982L107.997 52.482L107.791 54.7119C108.277 57.9774 109.051 61.7655 110.143 66.1133Z" fill="black"/>
<path d="M74.1098 86.9565L72.1318 118.838L93.162 121.823C94.1997 121.972 95.2563 121.738 96.1338 121.165C97.0114 120.591 97.6499 119.717 97.9297 118.707L99.7957 111.868L101.662 118.679C101.933 119.677 102.574 120.533 103.455 121.074C104.335 121.615 105.389 121.8 106.401 121.59L114.388 119.967L112.942 86.9565C112.942 86.9565 114.099 56.9508 109.602 44.2525C109.165 43.011 108.424 41.8991 107.446 41.0188C106.468 40.1384 105.284 39.5179 104.004 39.2142C92.9851 36.702 81.4643 37.5834 70.9562 41.7427C70.3032 41.9998 69.7538 42.4663 69.3942 43.069C69.0346 43.6717 68.885 44.3767 68.9689 45.0735L74.1098 86.9565Z" fill="#263238"/>
<path opacity="0.4" d="M73.2336 79.866C74.8423 69.2046 74.7478 58.3554 72.9537 47.7236L70.9757 48.1155L70.024 53.5736L73.2336 79.866Z" fill="black"/>
<path d="M70.5095 106.27L71.8157 112.465C72.8574 113.574 73.8236 114.753 74.708 115.992C75.2772 116.999 76.574 119.248 76.1542 120.311C75.7343 121.375 72.9446 123.054 71.5358 123.11C69.6697 123.166 66.0217 121.244 65.2473 119.808C64.4729 118.371 66.4602 113.127 66.4602 113.127L64.8274 106.857L70.5095 106.27Z" fill="#EEC1BB"/>
<path d="M71.0874 103.061L72.207 110.114L64.8642 111.327L63.1101 104.18L71.0874 103.061Z" fill="#FFC100"/>
<path opacity="0.8" d="M71.0874 103.061L72.207 110.114L64.8642 111.327L63.1101 104.18L71.0874 103.061Z" fill="white"/>
<path d="M63.4918 109.2C63.4918 109.2 59.228 97.2202 60.1237 77.6269C61.0194 58.0336 67.0466 38.6829 73.1859 42.4336C79.3251 46.1843 71.889 68.2968 71.2452 78.3547C70.6014 88.4125 72.1782 107.829 72.1782 107.829L63.4918 109.2Z" fill="#263238"/>
<path d="M96.5487 72.9894C97.033 72.9894 97.4257 72.5968 97.4257 72.1124C97.4257 71.628 97.033 71.2354 96.5487 71.2354C96.0643 71.2354 95.6716 71.628 95.6716 72.1124C95.6716 72.5968 96.0643 72.9894 96.5487 72.9894Z" fill="#FFC100"/>
<path d="M99.7512 90.8375C99.7287 91.0557 99.6262 91.2579 99.4633 91.4048C99.3004 91.5517 99.0889 91.6331 98.8695 91.6331C98.6502 91.6331 98.4386 91.5517 98.2757 91.4048C98.1129 91.2579 98.0103 91.0557 97.9878 90.8375C97.9751 90.7141 97.9884 90.5894 98.027 90.4715C98.0655 90.3536 98.1283 90.2451 98.2114 90.1529C98.2945 90.0608 98.3961 89.9872 98.5094 89.9368C98.6228 89.8864 98.7455 89.8604 98.8695 89.8604C98.9936 89.8604 99.1163 89.8864 99.2296 89.9368C99.343 89.9872 99.4445 90.0608 99.5276 90.1529C99.6107 90.2451 99.6735 90.3536 99.7121 90.4715C99.7506 90.5894 99.7639 90.7141 99.7512 90.8375Z" fill="#FFC100"/>
<path d="M99.7476 108.873C100.232 108.873 100.625 108.481 100.625 107.996C100.625 107.512 100.232 107.119 99.7476 107.119C99.2633 107.119 98.8706 107.512 98.8706 107.996C98.8706 108.481 99.2633 108.873 99.7476 108.873Z" fill="#FFC100"/>
<path d="M108.734 58.7422H101.877V62.8848H108.734V58.7422Z" fill="#FFC100"/>
<path opacity="0.4" d="M108.734 60.0957H101.877V62.8854H108.734V60.0957Z" fill="white"/>
<path opacity="0.4" d="M108.734 61.374H101.877V62.8855H108.734V61.374Z" fill="white"/>
<path d="M83.2704 37.4508C86.6375 36.1954 90.2963 35.9427 93.8041 36.723L95.9687 37.9453L96.7244 40.3525L93.9907 42.4984L87.5249 43.1608L82.1508 40.9496L82.4493 38.5797L83.2704 37.4508Z" fill="#263238"/>
<path d="M94.8787 38.6913C94.1614 37.8618 93.645 36.8781 93.3699 35.8165C93.0948 34.7549 93.0684 33.6442 93.2926 32.5707L83.6173 24.7334C84.7275 33.1305 84.8208 35.575 82.8708 39.3351C82.8708 39.3351 86.3697 43.0671 91.268 42.1994C96.1663 41.3317 94.8787 38.6913 94.8787 38.6913Z" fill="#EEC1BB"/>
<path opacity="0.2" d="M93.2918 32.5707L83.6165 24.7334C83.8684 26.5994 84.0643 28.2135 84.1949 29.5851C84.9974 31.3525 86.2817 32.858 87.9006 33.9289C89.5194 34.9999 91.4073 35.5931 93.3478 35.6403C93.0873 34.6359 93.0681 33.584 93.2918 32.5707Z" fill="black"/>
<path d="M81.9938 18.5482C83.356 24.7993 83.8598 28.5221 87.5359 31.2558C93.0873 35.3891 100.421 31.2558 100.943 24.7247C101.41 18.8187 99.0773 9.61922 92.5462 8.07042C91.1001 7.71827 89.5879 7.74276 88.154 8.14156C86.7201 8.54035 85.4124 9.30011 84.3558 10.3483C83.2992 11.3965 82.529 12.6981 82.1187 14.1287C81.7085 15.5594 81.6719 17.0713 82.0125 18.5202L81.9938 18.5482Z" fill="#EEC1BB"/>
<path d="M79.8291 24.9114C80.8864 26.1216 82.3783 26.8659 83.981 26.9827C86.1083 27.104 86.7334 25.1167 85.7631 23.3253C84.8954 21.7298 82.7494 19.7332 80.7901 20.4329C80.3638 20.5939 79.9846 20.8592 79.6873 21.2046C79.3901 21.5501 79.1842 21.9646 79.0886 22.4101C78.993 22.8557 79.0107 23.3182 79.14 23.7552C79.2694 24.1921 79.5063 24.5897 79.8291 24.9114Z" fill="#EEC1BB"/>
<path d="M98.5641 25.3772C96.4982 25.1462 94.4164 25.09 92.3409 25.2093C92.9474 26.4409 94.011 27.4206 96.3529 27.3366C98.6948 27.2526 98.5641 25.3772 98.5641 25.3772Z" fill="#263238"/>
<path d="M95.2123 26.3943C96.1071 26.3192 97.0044 26.5038 97.7968 26.9261C97.3683 27.2004 96.8687 27.3432 96.36 27.3366C95.4652 27.4118 94.5679 27.2271 93.7755 26.8048C94.2045 26.5315 94.7037 26.3889 95.2123 26.3943Z" fill="#FF5652"/>
<path d="M98.3497 25.3787C98.311 25.538 98.2269 25.6827 98.1077 25.7953C97.9885 25.9079 97.8392 25.9836 97.678 26.0132C96.3221 26.0508 94.9653 25.9853 93.6193 25.8172C93.4074 25.813 93.1995 25.7583 93.013 25.6577C92.8264 25.5571 92.6664 25.4135 92.5464 25.2388C94.4818 25.1547 96.4206 25.2015 98.3497 25.3787Z" fill="white"/>
<path d="M82.7302 45.6058L85.296 53.9749L91.2767 62.6146L96.1843 67.7182L98.0223 60.2354L97.4252 44.6261L97.3319 41.2673L95.9604 39.3359L93.7771 41.2486L91.9204 41.967L89.2054 41.9857L82.0585 39.8118L82.7302 45.6058Z" fill="#FFC100"/>
<path opacity="0.8" d="M82.7302 45.6058L85.296 53.9749L91.2767 62.6146L96.1843 67.7182L98.0223 60.2354L97.4252 44.6261L97.3319 41.2673L95.9604 39.3359L93.7771 41.2486L91.9204 41.967L89.2054 41.9857L82.0585 39.8118L82.7302 45.6058Z" fill="white"/>
<path d="M88.4957 44.6263C89.1832 45.9882 90.1347 47.1997 91.2948 48.1904C91.2948 48.1904 90.1005 56.7275 91.9386 62.7081L96.2024 67.7184L97.4433 61.5232C97.4433 61.5232 95.5773 51.5959 92.9835 47.8452C93.6407 46.5541 94.1178 45.1792 94.4017 43.7586L92.8716 42.499C92.8716 42.499 90.7443 44.0198 89.4754 42.9655L88.4957 44.6263Z" fill="#FFC100"/>
<path d="M82.5637 38.2256C82.5637 38.2256 86.501 41.5844 90.4663 41.5844C94.4316 41.5844 94.8608 37.4512 94.8608 37.4512L96.5309 39.2519C96.6175 41.346 96.1474 43.4258 95.1687 45.2792L91.0355 42.4801L88.2364 46.5107C88.2364 46.5107 83.8513 44.4021 81.7053 40.6234L82.5637 38.2256Z" fill="#FFC100"/>
<path opacity="0.5" d="M82.5637 38.2256C82.5637 38.2256 86.501 41.5844 90.4663 41.5844C94.4316 41.5844 94.8608 37.4512 94.8608 37.4512L96.5309 39.2519C96.6175 41.346 96.1474 43.4258 95.1687 45.2792L91.0355 42.4801L88.2364 46.5107C88.2364 46.5107 83.8513 44.4021 81.7053 40.6234L82.5637 38.2256Z" fill="white"/>
<path d="M83.2704 37.4514C83.2704 37.4514 80.0421 47.416 95.9594 66.4308C95.9594 66.4308 98.8144 43.1054 93.8041 36.7236L97.2842 38.0952L100.914 43.572L98.2546 45.2794L101.539 46.7442C101.539 46.7442 101.072 54.2923 96.4539 68.81C96.4539 68.81 85.9854 60.7207 79.1464 49.7951L82.328 47.2574L78.0735 46.5856L79.9395 39.0188L83.2704 37.4514Z" fill="#263238"/>
<path opacity="0.3" d="M83.2704 37.4514C83.2704 37.4514 80.0421 47.416 95.9594 66.4308C95.9594 66.4308 98.8144 43.1054 93.8041 36.7236L97.2842 38.0952L100.914 43.572L98.2546 45.2794L101.539 46.7442C101.539 46.7442 101.072 54.2923 96.4539 68.81C96.4539 68.81 85.9854 60.7207 79.1464 49.7951L82.328 47.2574L78.0735 46.5856L79.9395 39.0188L83.2704 37.4514Z" fill="black"/>
<path d="M163.89 78.2134L157.862 78.4909C156.62 77.9478 155.341 77.4779 154.033 77.0843C152.975 76.8738 150.627 76.3571 149.728 76.8833C149.154 77.3903 148.704 78.0005 148.407 78.6746C148.11 79.3488 147.973 80.0718 148.004 80.797C148.376 81.6789 148.943 82.4828 149.67 83.1591C150.398 83.8355 151.271 84.37 152.235 84.7298C153.811 85.0264 158.232 82.5289 158.232 82.5289L164.398 82.4715L163.89 78.2134Z" fill="#71403E"/>
<path d="M168.946 76.6162L161.374 77.42L162.452 83.056H169.56L168.946 76.6162Z" fill="#FFC100"/>
<path opacity="0.8" d="M168.946 76.6162L161.374 77.42L162.452 83.056H169.56L168.946 76.6162Z" fill="white"/>
<path d="M203.196 41.3759C200.742 44.7559 196.741 54.7459 194.011 74.2859L166.257 77.3559L166.754 85.2759C166.754 85.2759 189.103 85.7659 197.703 83.5259C205.23 81.5259 213.906 48.0259 208.103 40.9359C206.932 39.4959 204.367 39.7759 203.196 41.3759Z" fill="#263238"/>
<path opacity="0.4" d="M161.512 57.9188C161.512 58.0324 161.474 58.1434 161.405 58.2378C161.335 58.3322 161.236 58.4058 161.12 58.4493C161.004 58.4927 160.876 58.5041 160.753 58.4819C160.63 58.4598 160.517 58.4051 160.428 58.3248C160.34 58.2445 160.279 58.1422 160.255 58.0308C160.23 57.9195 160.243 57.804 160.291 57.6991C160.339 57.5942 160.42 57.5046 160.524 57.4415C160.629 57.3784 160.752 57.3447 160.877 57.3447C161.045 57.3447 161.207 57.4052 161.326 57.5129C161.445 57.6206 161.512 57.7666 161.512 57.9188Z" fill="white"/>
</g>
</g>
<defs>
<clipPath id="clip0_512_35833">
<rect width="210" height="140" fill="white"/>
</clipPath>
</defs>
</svg>
