<svg width="210" height="140" viewBox="0 0 210 140" fill="none" xmlns="http://www.w3.org/2000/svg">
<g clip-path="url(#clip0_512_36046)">
<path d="M122.547 55.1982H116.133L116.062 72.578H122.468L122.547 55.1982Z" fill="#FFC100"/>
<path opacity="0.6" d="M122.547 55.1982H116.133L116.062 72.578H122.468L122.547 55.1982Z" fill="white"/>
<path d="M175.872 25.1572H169.466V72.5775H175.872V25.1572Z" fill="#FFC100"/>
<g opacity="0.1">
<path d="M175.873 25.1572H169.467V72.5775H175.873V25.1572Z" fill="white"/>
</g>
<path d="M133.457 54.7998H127.051L126.741 72.5774H133.147L133.457 54.7998Z" fill="#FFC100"/>
<path opacity="0.7" d="M133.457 54.7998H127.051L126.741 72.5774H133.147L133.457 54.7998Z" fill="white"/>
<path d="M165.233 35.5264H158.827L158.787 72.5777H165.193L165.233 35.5264Z" fill="#FFC100"/>
<path opacity="0.3" d="M165.233 35.5264H158.827L158.787 72.5777H165.193L165.233 35.5264Z" fill="white"/>
<path d="M154.323 37.0781H147.917L148.108 72.5777H154.514L154.323 37.0781Z" fill="#FFC100"/>
<path opacity="0.4" d="M154.323 37.0781H147.917L148.108 72.5777H154.514L154.323 37.0781Z" fill="white"/>
<path d="M143.468 37.8105H137.054L137.42 72.578H143.834L143.468 37.8105Z" fill="#FFC100"/>
<g opacity="0.3">
<path d="M143.468 37.8105H137.054L137.42 72.578H143.834L143.468 37.8105Z" fill="white"/>
</g>
<g opacity="0.1">
<path d="M116.197 56.4317L127.195 67.1588L138.153 45.2431L146.373 37.0307L156.233 46.8903L174.201 28.9217L175.952 30.6804V24.3301H169.602L171.36 26.0887L156.233 41.2165L146.373 31.3568L134.858 42.8637L126.097 60.3867L116.213 50.8851L116.197 56.4317Z" fill="black"/>
</g>
<path d="M116.245 54.4499L126.829 64.6597L137.787 42.7441L145.999 34.5316L155.859 44.3913L169.18 31.07L170.939 32.8287L175.586 21.8311L164.588 26.4704L166.347 28.2291L155.859 38.7174L145.999 28.8578L134.492 40.3647L125.723 57.8877L116.261 48.9034L116.245 54.4499Z" fill="#263238"/>
<path opacity="0.1" d="M177.208 79.2381C194.189 62.2576 194.189 34.7268 177.208 17.7463C160.228 0.765843 132.697 0.765825 115.717 17.7463C98.7361 34.7268 98.7361 62.2576 115.717 79.2381C132.697 96.2185 160.228 96.2185 177.208 79.2381Z" fill="black"/>
<path d="M146.168 96C145.723 96 145.277 96 144.832 96C132.293 95.8237 120.333 90.696 111.56 81.7355C102.787 72.775 97.913 60.7086 98.0012 48.1684C98.0893 35.6281 103.133 23.6315 112.031 14.7952C120.929 5.95896 132.96 1 145.5 1C158.04 1 170.071 5.95896 178.969 14.7952C187.867 23.6315 192.911 35.6281 192.999 48.1684C193.087 60.7086 188.213 72.775 179.44 81.7355C170.667 90.696 158.707 95.8237 146.168 96ZM146.041 9.27283C135.616 9.41978 125.672 13.6833 118.378 21.1335C111.084 28.5837 107.032 38.6161 107.105 49.0424C107.178 59.4687 111.372 69.4429 118.77 76.7896C126.168 84.1363 136.171 88.2593 146.597 88.2593C157.023 88.2593 167.026 84.1363 174.425 76.7896C181.823 69.4429 186.016 59.4687 186.089 49.0424C186.163 38.6161 182.111 28.5837 174.817 21.1335C167.523 13.6833 157.579 9.41978 147.154 9.27283C146.772 9.27283 146.406 9.27283 146.041 9.27283Z" fill="#FFC100"/>
<path opacity="0.5" d="M139.293 11.2263C124.808 14.4283 108.898 31.4628 109 49.6501C109.661 53.6125 110.109 56.0541 110.817 59.256C110.86 59.4577 110.967 59.6395 111.121 59.7736C111.275 59.9077 111.468 59.9867 111.671 59.9985C111.873 60.0103 112.074 59.9542 112.242 59.8389C112.41 59.7237 112.537 59.5555 112.602 59.3601C119.554 39.2516 131.697 23.9382 149.564 12.7712C149.733 12.6638 149.863 12.5039 149.936 12.3153C150.009 12.1266 150.02 11.9192 149.968 11.7235C149.916 11.5279 149.803 11.3545 149.647 11.2289C149.491 11.1034 149.299 11.0323 149.1 11.0262C145.821 10.9541 143.312 11.0342 139.293 11.2263Z" fill="white"/>
<g opacity="0.5">
<path d="M181.864 37.0916C173.509 56.3052 159.092 73.6509 142.036 85.7842C141.881 85.8906 141.697 85.9489 141.509 85.9518L136.927 85.9997C136.739 86.0046 136.554 85.9508 136.399 85.846C136.243 85.7411 136.124 85.5904 136.058 85.4147C135.992 85.239 135.982 85.0472 136.03 84.8659C136.079 84.6846 136.183 84.5229 136.327 84.4032C153.154 69.6796 167.376 52.2306 178.394 32.7891C178.546 32.5197 178.775 32.3018 179.052 32.1635C179.329 32.0252 179.641 31.9729 179.949 32.0132C180.256 32.0536 180.544 32.1848 180.775 32.3899C181.007 32.5951 181.172 32.8648 181.249 33.1643C181.465 34.0344 181.681 34.9444 181.952 36.0619C182.038 36.4054 182.007 36.7676 181.864 37.0916Z" fill="white"/>
</g>
<path fill-rule="evenodd" clip-rule="evenodd" d="M78.8557 4.14249C107.307 2.40905 130.339 16.8302 152.052 28.9796C176.44 42.6259 211.953 55.9639 208.804 76.8548C205.671 97.6397 165.235 104.312 138.913 116.136C119.839 124.704 101.898 133.847 78.8557 135.227C53.2659 136.759 22.5124 137.299 6.69368 124.054C-8.70846 111.157 6.99687 93.1594 9.143 76.8548C10.9675 62.9936 6.83359 48.9255 18.1341 37.1388C32.6673 21.9802 51.6179 5.80201 78.8557 4.14249Z" fill="#FFECB2"/>
<mask id="mask0_512_36046" style="mask-type:alpha" maskUnits="userSpaceOnUse" x="0" y="4" width="209" height="132">
<path fill-rule="evenodd" clip-rule="evenodd" d="M78.8557 4.14249C107.307 2.40905 130.339 16.8302 152.052 28.9796C176.44 42.6259 211.953 55.9639 208.804 76.8548C205.671 97.6397 165.235 104.312 138.913 116.136C119.839 124.704 101.898 133.847 78.8557 135.227C53.2659 136.759 22.5124 137.299 6.69368 124.054C-8.70846 111.157 6.99687 93.1594 9.143 76.8548C10.9675 62.9936 6.83359 48.9255 18.1341 37.1388C32.6673 21.9802 51.6179 5.80201 78.8557 4.14249Z" fill="#FFECB2"/>
</mask>
<g mask="url(#mask0_512_36046)">
<path d="M122.547 55.1982H116.133L116.062 72.578H122.468L122.547 55.1982Z" fill="#FFC100"/>
<path opacity="0.6" d="M122.547 55.1982H116.133L116.062 72.578H122.468L122.547 55.1982Z" fill="white"/>
<path d="M175.872 25.1572H169.466V72.5775H175.872V25.1572Z" fill="#FFC100"/>
<g opacity="0.1">
<path d="M175.873 25.1572H169.467V72.5775H175.873V25.1572Z" fill="white"/>
</g>
<path d="M133.457 54.7998H127.051L126.741 72.5774H133.147L133.457 54.7998Z" fill="#FFC100"/>
<path opacity="0.7" d="M133.457 54.7998H127.051L126.741 72.5774H133.147L133.457 54.7998Z" fill="white"/>
<path d="M165.233 35.5264H158.827L158.787 72.5777H165.193L165.233 35.5264Z" fill="#FFC100"/>
<path opacity="0.3" d="M165.233 35.5264H158.827L158.787 72.5777H165.193L165.233 35.5264Z" fill="white"/>
<path d="M154.323 37.0781H147.917L148.108 72.5777H154.514L154.323 37.0781Z" fill="#FFC100"/>
<path opacity="0.4" d="M154.323 37.0781H147.917L148.108 72.5777H154.514L154.323 37.0781Z" fill="white"/>
<path d="M143.468 37.8105H137.054L137.42 72.578H143.834L143.468 37.8105Z" fill="#FFC100"/>
<g opacity="0.3">
<path d="M143.468 37.8105H137.054L137.42 72.578H143.834L143.468 37.8105Z" fill="white"/>
</g>
<g opacity="0.1">
<path d="M116.197 56.4317L127.195 67.1588L138.153 45.2431L146.373 37.0307L156.233 46.8903L174.201 28.9217L175.952 30.6804V24.3301H169.602L171.36 26.0887L156.233 41.2165L146.373 31.3568L134.858 42.8637L126.097 60.3867L116.213 50.8851L116.197 56.4317Z" fill="black"/>
</g>
<path d="M116.245 54.4499L126.829 64.6597L137.787 42.7441L145.999 34.5316L155.859 44.3913L169.18 31.07L170.939 32.8287L175.586 21.8311L164.588 26.4704L166.347 28.2291L155.859 38.7174L145.999 28.8578L134.492 40.3647L125.723 57.8877L116.261 48.9034L116.245 54.4499Z" fill="#263238"/>
<path opacity="0.1" d="M177.208 79.2381C194.189 62.2576 194.189 34.7268 177.208 17.7463C160.228 0.765843 132.697 0.765825 115.717 17.7463C98.7361 34.7268 98.7361 62.2576 115.717 79.2381C132.697 96.2185 160.228 96.2185 177.208 79.2381Z" fill="black"/>
<path d="M115.951 121.038C109.291 124.398 92.131 109.698 83.511 101.658C82.914 101.106 82.4345 100.438 82.1014 99.6963C81.7682 98.9541 81.5882 98.1523 81.572 97.3389C81.5558 96.5255 81.7039 95.7172 82.0073 94.9624C82.3107 94.2075 82.7632 93.5216 83.3378 92.9457C83.9124 92.3697 84.5972 91.9156 85.3514 91.6104C86.1055 91.3053 86.9135 91.1553 87.7269 91.1696C88.5403 91.1839 89.3425 91.362 90.0855 91.6935C90.8284 92.0249 91.4969 92.5028 92.051 93.0985C96.891 98.3085 105.161 106.418 108.541 104.938C111.921 103.458 110.771 89.9385 110.771 89.9385L112.821 90.4785L118.081 91.8685L119.311 92.1985C119.311 92.1985 122.411 117.828 115.951 121.038Z" fill="#263238"/>
<path d="M62.021 65.039C62.021 65.039 67.391 62.259 66.661 69.039L62.131 68.299L62.021 65.039Z" fill="#263238"/>
<path d="M57.941 85.1084C60.211 88.7084 63.591 95.1784 63.011 99.4884C62.9434 99.9911 63.0493 100.502 63.3111 100.936C63.5729 101.371 63.975 101.703 64.451 101.878C67.9463 103.353 71.8623 103.488 75.451 102.258C80.0511 100.678 79.451 98.1384 77.8111 96.5884C77.5968 96.3823 77.3424 96.2226 77.0636 96.1194C76.7849 96.0161 76.4878 95.9715 76.191 95.9884C71.381 96.2584 69.641 92.6284 69.191 89.0584L57.941 85.1084Z" fill="#FFC3BD"/>
<path opacity="0.2" d="M62.531 86.7393L69.181 89.0393C69.3076 89.9138 69.5049 90.7766 69.771 91.6193C68.5943 91.8468 67.3798 91.7836 66.2331 91.4351C65.0863 91.0865 64.0421 90.4632 63.191 89.6193C62.221 88.5593 62.101 87.0393 62.531 86.7393Z" fill="black"/>
<path d="M53.8111 79.3688C56.8911 85.0188 58.401 88.4688 62.751 90.0788C69.281 92.5088 75.2411 86.4888 73.9211 80.0788C72.7211 74.2488 67.921 66.0188 61.101 66.3588C58.7753 66.4627 56.5856 67.4839 55.0112 69.1989C53.4368 70.9138 52.6061 73.1827 52.701 75.5088C52.7646 76.8645 53.1447 78.1865 53.8111 79.3688Z" fill="#FFC3BD"/>
<path d="M63.6011 76.2288C63.8211 76.7088 64.2511 76.9787 64.6011 76.8287C64.9511 76.6787 64.9811 76.1887 64.7611 75.7087C64.5411 75.2287 64.1111 74.9788 63.7611 75.1188C63.4111 75.2588 63.3911 75.7688 63.6011 76.2288Z" fill="#263238"/>
<path d="M68.671 73.309C68.901 73.769 69.321 74.039 69.671 73.899C70.021 73.759 70.051 73.249 69.831 72.779C69.611 72.309 69.171 72.039 68.831 72.189C68.491 72.339 68.451 72.829 68.671 73.309Z" fill="#263238"/>
<path d="M67.141 74.9287C68.6195 75.8142 70.2151 76.4874 71.881 76.9287C71.7551 77.352 71.5388 77.7429 71.247 78.0744C70.9552 78.4059 70.5949 78.6701 70.191 78.8487L67.141 74.9287Z" fill="#ED847E"/>
<path d="M61.911 75.6787H61.761C61.7214 75.6727 61.6834 75.6588 61.6492 75.6378C61.615 75.6168 61.5854 75.5892 61.5621 75.5565C61.5388 75.5239 61.5223 75.4869 61.5135 75.4478C61.5047 75.4087 61.5039 75.3682 61.511 75.3287C61.5798 74.8445 61.7625 74.3835 62.0441 73.9837C62.3257 73.5838 62.6982 73.2566 63.131 73.0287C63.1671 73.012 63.2061 73.0027 63.2458 73.0012C63.2856 72.9997 63.3252 73.0061 63.3624 73.0201C63.3996 73.034 63.4337 73.0552 63.4626 73.0825C63.4916 73.1097 63.5148 73.1424 63.531 73.1787C63.5651 73.253 63.5685 73.3378 63.5404 73.4146C63.5123 73.4914 63.455 73.554 63.381 73.5887C63.0423 73.7748 62.7513 74.0369 62.5309 74.3545C62.3106 74.672 62.1668 75.0363 62.111 75.4187C62.1053 75.4764 62.0836 75.5314 62.0482 75.5774C62.0129 75.6233 61.9653 75.6584 61.911 75.6787Z" fill="#263238"/>
<path d="M70.121 71.0385C70.0773 71.0649 70.0271 71.0789 69.976 71.0789C69.9249 71.0789 69.8747 71.0649 69.831 71.0385C69.4754 70.8958 69.0916 70.8378 68.7098 70.869C68.3279 70.9003 67.9586 71.0199 67.631 71.2185C67.5657 71.2668 67.4841 71.2875 67.4037 71.2763C67.3233 71.2651 67.2505 71.2228 67.201 71.1585C67.1538 71.092 67.1346 71.0096 67.1477 70.9291C67.1608 70.8486 67.2051 70.7765 67.271 70.7285C67.6818 70.462 68.1506 70.2984 68.638 70.2514C69.1254 70.2044 69.6169 70.2754 70.071 70.4585C70.1433 70.4876 70.2019 70.5429 70.2353 70.6133C70.2686 70.6837 70.2742 70.7641 70.251 70.8385C70.2497 70.8805 70.2369 70.9214 70.2139 70.9566C70.191 70.9919 70.1589 71.0202 70.121 71.0385Z" fill="#263238"/>
<path d="M48.601 111.239L65.601 154.289L97.441 145.969L91.101 95.139C90.9915 94.489 90.7369 93.872 90.3563 93.3337C89.9757 92.7955 89.4788 92.35 88.9024 92.0301C88.326 91.7102 87.685 91.5242 87.0269 91.4859C86.3688 91.4477 85.7106 91.5581 85.101 91.809L51.101 105.909C50.0936 106.324 49.2783 107.102 48.8156 108.088C48.3529 109.075 48.2763 110.199 48.601 111.239Z" fill="#263238"/>
<path d="M68.701 101.878L70.381 99.6484L73.441 99.3584L74.641 102.638L74.861 105.038L76.591 106.728L85.041 134.288L83.301 139.178L77.911 136.448L72.471 108.798L72.491 106.068L68.821 103.068L68.701 101.878Z" fill="#FFC100"/>
<path d="M61.881 98.7792L59.051 102.599L66.971 105.829L70.561 100.329L79.421 99.8792L77.161 94.9592L74.271 94.4492L69.471 98.2692L61.881 98.7792Z" fill="#263238"/>
<path opacity="0.2" d="M61.881 98.7792L59.051 102.599L66.971 105.829L70.561 100.329L79.421 99.8792L77.161 94.9592L74.271 94.4492L69.471 98.2692L61.881 98.7792Z" fill="white"/>
<path d="M66.601 82.2884C66.2867 82.2092 65.9791 82.1056 65.681 81.9784C65.6571 81.9696 65.6352 81.956 65.6166 81.9386C65.5981 81.9211 65.5832 81.9001 65.573 81.8767C65.5627 81.8534 65.5572 81.8283 65.5569 81.8028C65.5566 81.7773 65.5613 81.752 65.571 81.7284C65.5928 81.6812 65.6322 81.6444 65.6807 81.6257C65.7292 81.607 65.7831 81.608 65.831 81.6284C66.5825 81.9625 67.4019 82.1158 68.2233 82.0758C69.0448 82.0359 69.8454 81.8039 70.561 81.3984C70.582 81.384 70.6056 81.3738 70.6306 81.3685C70.6555 81.3632 70.6813 81.3629 70.7063 81.3675C70.7314 81.3722 70.7553 81.3817 70.7767 81.3956C70.7981 81.4095 70.8165 81.4274 70.831 81.4484C70.8454 81.4694 70.8556 81.4931 70.8609 81.518C70.8662 81.543 70.8665 81.5687 70.8619 81.5938C70.8573 81.6189 70.8477 81.6428 70.8338 81.6642C70.8199 81.6855 70.802 81.704 70.781 81.7184C70.1569 82.0859 69.4659 82.3256 68.7482 82.4234C68.0306 82.5213 67.3007 82.4754 66.601 82.2884Z" fill="#263238"/>
<path d="M54.341 85.1093C54.341 85.1093 60.731 83.5893 55.071 76.5393C55.071 76.5393 54.921 75.4493 54.531 72.0493C54.531 72.0493 67.261 65.0493 63.261 61.4493C59.261 57.8493 57.011 63.8193 57.011 63.8193C57.011 63.8193 51.421 61.3593 51.011 68.1793C51.011 68.1793 45.371 70.5893 48.801 75.4993C48.3582 76.6006 48.3159 77.8223 48.6814 78.9516C49.0468 80.0809 49.797 81.0462 50.801 81.6793C50.801 81.6793 51.601 84.9593 54.341 85.1093Z" fill="#263238"/>
<path d="M53.1711 85.6587C54.3629 86.7596 55.9393 87.3485 57.5611 87.2987C59.7111 87.1987 60.1211 85.1388 58.9711 83.4588C57.9711 81.9588 55.5611 80.1888 53.6811 81.0888C53.2703 81.2914 52.9172 81.5941 52.6541 81.969C52.3911 82.344 52.2266 82.779 52.1758 83.2342C52.125 83.6894 52.1895 84.15 52.3634 84.5737C52.5374 84.9974 52.8151 85.3705 53.1711 85.6587Z" fill="#FFC3BD"/>
<path d="M113.94 74.2809L20.0791 163.196L25.3876 168.8L119.249 79.8847L113.94 74.2809Z" fill="#FFC100"/>
<path opacity="0.5" d="M113.94 74.2809L20.0791 163.196L25.3876 168.8L119.249 79.8847L113.94 74.2809Z" fill="black"/>
<path d="M78.8888 125.182L33.4829 168.322C32.9013 168.874 32.2168 169.307 31.4685 169.595C30.7201 169.882 29.9226 170.019 29.1215 169.998C28.3204 169.976 27.5313 169.797 26.7994 169.469C26.0675 169.142 25.407 168.673 24.8558 168.09L20.6736 163.656C20.1223 163.073 19.6909 162.386 19.4041 161.636C19.1173 160.885 18.9807 160.086 19.0022 159.282C19.0236 158.479 19.2027 157.687 19.5291 156.953C19.8556 156.219 20.323 155.557 20.9047 155.004L66.3106 111.864C67.623 110.623 69.3727 109.953 71.1763 110.003C72.98 110.052 74.6906 110.816 75.9335 112.128L79.1198 115.539C79.7367 116.187 80.2201 116.951 80.5424 117.786C80.8647 118.622 81.0195 119.513 80.998 120.409C80.9766 121.304 80.7793 122.187 80.4173 123.006C80.0554 123.825 79.536 124.564 78.8888 125.182Z" fill="white"/>
<path d="M146.168 96C145.723 96 145.277 96 144.832 96C132.293 95.8237 120.333 90.696 111.56 81.7355C102.787 72.775 97.913 60.7086 98.0012 48.1684C98.0893 35.6281 103.133 23.6315 112.031 14.7952C120.929 5.95896 132.96 1 145.5 1C158.04 1 170.071 5.95896 178.969 14.7952C187.867 23.6315 192.911 35.6281 192.999 48.1684C193.087 60.7086 188.213 72.775 179.44 81.7355C170.667 90.696 158.707 95.8237 146.168 96ZM146.041 9.27283C135.616 9.41978 125.672 13.6833 118.378 21.1335C111.084 28.5837 107.032 38.6161 107.105 49.0424C107.178 59.4687 111.372 69.4429 118.77 76.7896C126.168 84.1363 136.171 88.2593 146.597 88.2593C157.023 88.2593 167.026 84.1363 174.425 76.7896C181.823 69.4429 186.016 59.4687 186.089 49.0424C186.163 38.6161 182.111 28.5837 174.817 21.1335C167.523 13.6833 157.579 9.41978 147.154 9.27283C146.772 9.27283 146.406 9.27283 146.041 9.27283Z" fill="#FFC100"/>
<path d="M56.501 137.529L61.501 137.479L65.501 132.239L67.661 132.779C68.367 132.959 69.0003 133.352 69.4745 133.905C69.9488 134.458 70.2409 135.144 70.311 135.869C70.3675 136.456 70.2752 137.048 70.0428 137.59C69.8104 138.131 69.4452 138.606 68.981 138.969L64.691 142.359C64.2798 142.68 63.8041 142.907 63.2966 143.026C62.7891 143.146 62.2618 143.153 61.751 143.049L61.171 142.919L55.251 142.659L56.501 137.529Z" fill="#FFC3BD"/>
<path d="M57.021 108.588C56.4852 107.892 55.8045 107.32 55.0261 106.912C54.2476 106.505 53.3899 106.271 52.5123 106.227C51.6346 106.184 50.7579 106.331 49.9428 106.659C49.1276 106.987 48.3935 107.489 47.791 108.128C39.701 116.708 24.901 133.768 28.211 140.458C31.421 146.938 57.031 143.988 57.031 143.988L59.341 135.458C59.341 135.458 45.861 136.608 44.341 133.138C42.821 129.668 51.041 121.528 56.281 116.718C57.4044 115.704 58.1028 114.302 58.2364 112.795C58.3699 111.287 57.9286 109.784 57.001 108.588H57.021Z" fill="#263238"/>
<path opacity="0.5" d="M139.293 11.2263C124.808 14.4283 108.898 31.4628 109 49.6501C109.661 53.6125 110.109 56.0541 110.817 59.256C110.86 59.4577 110.967 59.6395 111.121 59.7736C111.275 59.9077 111.468 59.9867 111.671 59.9985C111.873 60.0103 112.074 59.9542 112.242 59.8389C112.41 59.7237 112.537 59.5555 112.602 59.3601C119.554 39.2516 131.697 23.9382 149.564 12.7712C149.733 12.6638 149.863 12.5039 149.936 12.3153C150.009 12.1266 150.02 11.9192 149.968 11.7235C149.916 11.5279 149.803 11.3545 149.647 11.2289C149.491 11.1034 149.299 11.0323 149.1 11.0262C145.821 10.9541 143.312 11.0342 139.293 11.2263Z" fill="white"/>
<g opacity="0.5">
<path d="M181.864 37.0916C173.509 56.3052 159.092 73.6509 142.036 85.7842C141.881 85.8906 141.697 85.9489 141.509 85.9518L136.927 85.9997C136.739 86.0046 136.554 85.9508 136.399 85.846C136.243 85.7411 136.124 85.5904 136.058 85.4147C135.992 85.239 135.982 85.0472 136.03 84.8659C136.079 84.6846 136.183 84.5229 136.327 84.4032C153.154 69.6796 167.376 52.2306 178.394 32.7891C178.546 32.5197 178.775 32.3018 179.052 32.1635C179.329 32.0252 179.641 31.9729 179.949 32.0132C180.256 32.0536 180.544 32.1848 180.775 32.3899C181.007 32.5951 181.172 32.8648 181.249 33.1643C181.465 34.0344 181.681 34.9444 181.952 36.0619C182.038 36.4054 182.007 36.7676 181.864 37.0916Z" fill="white"/>
</g>
<path d="M118.341 87.6792L118.221 88.2592L118.081 92.0592L112.821 90.6692L112.771 87.9292L107.511 84.0392L108.041 81.8692C108.217 81.161 108.607 80.5244 109.158 80.0464C109.709 79.5685 110.395 79.2726 111.121 79.1992H111.471C111.999 79.2022 112.521 79.3232 112.996 79.5533C113.472 79.7834 113.89 80.1168 114.221 80.5292L117.631 84.8092C117.949 85.2085 118.176 85.6715 118.299 86.1668C118.421 86.662 118.436 87.1779 118.341 87.6792Z" fill="#FFC3BD"/>
</g>
</g>
<defs>
<clipPath id="clip0_512_36046">
<rect width="210" height="140" fill="white"/>
</clipPath>
</defs>
</svg>
