<svg width="210" height="140" viewBox="0 0 210 140" fill="none" xmlns="http://www.w3.org/2000/svg">
<g clip-path="url(#clip0_512_36792)">
<path d="M121.775 129.989C102.456 130.223 79.1152 126.779 66.5577 117.017C47.5754 102.269 24.2574 105.611 6.91502 75.1535C4.34959 70.7153 2.5795 66.1196 1.63591 61.4473C1.18624 59.1593 0.974649 56.8561 1.00242 54.5517C1.25851 34.2442 20.8384 18.9317 47.0138 11.7059C81.438 2.19995 107.852 13.128 123.936 20.4913C140.02 27.8546 185.547 30.3933 202.979 60.2481C205.672 64.8004 207.498 69.5279 208.42 74.3365C210.45 85.3113 207.278 97.7412 196.895 107.033C196.118 107.731 195.296 108.408 194.447 109.085C177.801 122.188 148.139 129.67 121.775 129.989Z" fill="#FFECB2"/>
<mask id="mask0_512_36792" style="mask-type:alpha" maskUnits="userSpaceOnUse" x="1" y="8" width="208" height="122">
<path d="M121.775 129.989C102.456 130.223 79.1152 126.779 66.5577 117.017C47.5754 102.269 24.2574 105.611 6.91502 75.1535C4.34959 70.7153 2.5795 66.1196 1.63591 61.4473C1.18624 59.1593 0.974649 56.8561 1.00242 54.5517C1.25851 34.2442 20.8384 18.9317 47.0138 11.7059C81.438 2.19995 107.852 13.128 123.936 20.4913C140.02 27.8546 185.547 30.3933 202.979 60.2481C205.672 64.8004 207.498 69.5279 208.42 74.3365C210.45 85.3113 207.278 97.7412 196.895 107.033C196.118 107.731 195.296 108.408 194.447 109.085C177.801 122.188 148.139 129.67 121.775 129.989Z" fill="#FFECB2"/>
</mask>
<g mask="url(#mask0_512_36792)">
<g opacity="0.3">
<path d="M92.4825 21.2702C92.4825 21.2234 92.4825 21.1741 92.4825 21.1199C92.5126 20.599 92.3536 20.0823 92.0247 19.6317C91.6958 19.181 91.2109 18.8156 90.6281 18.5791C88.1896 17.4505 86.7741 18.5791 86.0663 19.5821C85.3586 20.5851 84.2583 18.9562 82.5275 19.1435C80.7968 19.3308 80.8771 20.8365 80.4043 21.6522C79.9314 22.4679 78.9115 21.4057 77.5733 21.5906C76.235 21.7754 76.1577 22.4038 75.9229 22.6552C75.688 22.9065 73.5554 22.2929 72.3748 22.7858C71.624 23.1316 71.0005 23.6288 70.5668 24.2274H96.3643C96.3643 24.2274 96.6734 22.7242 95.6566 22.1598C94.7417 21.6472 92.6618 22.458 92.4825 21.2702Z" stroke="black" stroke-linecap="round" stroke-linejoin="round"/>
<path d="M80.5122 23.1484C80.4243 23.1647 80.3427 23.1977 80.2742 23.2445C79.9404 23.4762 79.9404 23.6413 79.9404 23.6413" stroke="black" stroke-linecap="round" stroke-linejoin="round"/>
<path d="M86.2118 21.1992C85.98 21.6009 85.7791 22.0396 85.3062 22.217C84.6294 22.4634 83.9958 21.8991 83.3746 21.7709C83.1976 21.7251 83.0071 21.7242 82.8294 21.7684C82.6517 21.8125 82.4956 21.8995 82.3825 22.0174C82.1043 22.2638 82.0982 22.8528 81.7304 23.0179C81.5039 23.0871 81.2617 23.1173 81.0195 23.1066" stroke="black" stroke-linecap="round" stroke-linejoin="round"/>
<path d="M93.8885 23.052C93.87 23.0151 93.8514 22.9806 93.8298 22.9461C93.3322 22.155 92.1609 22.7908 91.4407 22.569C90.7979 22.3719 91.0081 21.5636 90.9215 21.1422C90.7546 20.3265 89.4689 19.703 88.4645 19.8287C87.7175 19.9289 87.0419 20.2425 86.5637 20.7109" stroke="black" stroke-linecap="round" stroke-linejoin="round"/>
<path d="M94.0929 23.7715C94.0738 23.6307 94.0448 23.4908 94.006 23.3525" stroke="black" stroke-linecap="round" stroke-linejoin="round"/>
</g>
<g opacity="0.3">
<path d="M45.0466 30.8097C45.0334 30.728 45.0273 30.6457 45.028 30.5633C45.0002 28.7273 44.1441 27.4557 42.0579 26.4897C38.1514 24.6809 35.8766 26.4897 34.7486 28.0989C33.6205 29.7081 31.8495 27.0935 29.0742 27.3941C26.2988 27.6948 26.4286 30.1049 25.6744 31.4159C24.9203 32.727 23.2792 31.0143 21.1343 31.3149C18.9894 31.6156 18.8658 32.621 18.4887 33.0227C18.1117 33.4244 14.7058 32.4214 12.8143 33.2248C11.6093 33.7781 10.6092 34.5755 9.91528 35.5363H51.2618C51.2618 35.5363 51.7656 33.1262 50.1276 32.2193C48.6595 31.411 45.3278 32.7147 45.0466 30.8097Z" stroke="black" stroke-linecap="round" stroke-linejoin="round"/>
<path d="M25.8532 33.8184C25.7119 33.8455 25.5807 33.8986 25.4699 33.9736C24.9384 34.3457 24.9384 34.6094 24.9384 34.6094" stroke="black" stroke-linecap="round" stroke-linejoin="round"/>
<path d="M34.9958 30.6963C34.628 31.3395 34.3035 32.0418 33.5432 32.3252C32.4615 32.7294 31.4477 31.8176 30.4525 31.6106C30.1699 31.5375 29.866 31.5354 29.5818 31.6046C29.2977 31.6738 29.0471 31.8109 28.864 31.9975C28.4158 32.409 28.4065 33.3381 27.8162 33.6018C27.4534 33.7142 27.0644 33.763 26.6758 33.7447" stroke="black" stroke-linecap="round" stroke-linejoin="round"/>
<path d="M47.2935 33.666C47.2626 33.6068 47.2317 33.5501 47.1977 33.4959C46.4034 32.2268 44.5243 33.2495 43.3684 32.8922C42.3423 32.5767 42.6792 31.2829 42.5401 30.6052C42.2743 29.2967 40.2129 28.2986 38.5996 28.5007C37.4035 28.6612 36.3215 29.1631 35.5553 29.9128" stroke="black" stroke-linecap="round" stroke-linejoin="round"/>
<path d="M47.6169 34.826C47.5894 34.6014 47.5442 34.3783 47.4816 34.1582" stroke="black" stroke-linecap="round" stroke-linejoin="round"/>
</g>
<path d="M7 72C17.6175 64.4235 42.2917 47.028 44.9286 47.028C48.3112 47.028 70.7547 59.102 70.7547 59.102C70.7547 59.102 104.575 36.7747 108.57 37.0017C112.565 37.2287 151 68.4424 151 68.4424" stroke="#E5D4A0" stroke-linecap="round" stroke-linejoin="round"/>
<path d="M89 47.8666L101.125 44L103.347 49.1554L105.773 47.8666L107.593 49.6384L110.22 46.5777L120.123 55.925L120.324 48.6724L123.152 50.1215L123.356 48.6724" stroke="#E5D4A0" stroke-linecap="round" stroke-linejoin="round"/>
<path d="M33.1631 54.448L37.8114 53.3193L38.0123 54.931L42.4597 53.8048L41.65 57.9942L49.5311 53.965L55.5949 57.6714L55.9998 55.5767L57.8171 56.7029L59.8384 54.1252" stroke="#B2B2B2" stroke-linecap="round" stroke-linejoin="round"/>
<path d="M62.7917 65.7195C62.7917 65.6184 62.699 65.5445 62.6063 65.5593L57.2997 66.4662C57.1111 66.4982 57.037 66.2197 57.21 66.1409L62.5568 63.7357C62.5903 63.7166 62.6168 63.6909 62.6336 63.661C62.6504 63.6311 62.657 63.5982 62.6527 63.5656C62.4301 60.4926 62.0871 57.1213 61.6389 53.6811C61.6389 53.585 61.54 53.5185 61.4504 53.5357L56.7557 54.4968C56.5826 54.5313 56.4899 54.2923 56.6352 54.1888L61.163 50.9062C61.1898 50.8844 61.2099 50.8579 61.2217 50.8289C61.2335 50.7998 61.2367 50.7689 61.231 50.7387C60.9899 49.0777 60.7241 47.4167 60.4367 45.7804L60.0658 44.1465C60.0442 44.043 59.9391 43.9863 59.8494 44.0282L57.1173 45.2284C56.9535 45.2998 56.8083 45.083 56.9412 44.9499L59.6609 42.0617C59.6812 42.0391 59.6955 42.0135 59.7029 41.9864C59.7103 41.9593 59.7108 41.9312 59.7042 41.904C59.1602 39.2129 58.5606 36.6524 57.9116 34.3483C57.8807 34.2398 57.7633 34.193 57.6736 34.2521L54.1596 36.5539C54.0112 36.6524 53.8505 36.4627 53.9463 36.3074L57.037 31.6991C57.0689 31.6506 57.0766 31.5942 57.0586 31.5414C56.5872 30.0744 56.004 28.6317 55.3124 27.2213C55.2722 27.1425 55.1826 27.1104 55.1084 27.1474L52.6637 28.2884C52.537 28.3476 52.4041 28.2219 52.4443 28.0839L53.2138 25.6195C53.2138 25.5752 53.2818 25.3953 53.3406 25.2375L53.5414 24.6042C52.9759 24.0497 52.3948 23.7441 51.8014 23.7441C51.208 23.7441 50.5466 24.0892 49.947 24.7299L50.8588 28.0888C50.899 28.2268 50.7661 28.3525 50.6393 28.2933L48.4419 27.2657C48.4223 27.2578 48.4007 27.2535 48.3788 27.2532C48.3568 27.2528 48.3351 27.2565 48.3151 27.2639C48.2952 27.2712 48.2776 27.2821 48.2637 27.2956C48.2498 27.3092 48.2399 27.3251 48.2348 27.3421C47.5269 28.8161 46.9314 30.323 46.4515 31.8543C46.434 31.907 46.4406 31.9629 46.4701 32.012L49.366 36.3173C49.468 36.4701 49.3011 36.6598 49.1527 36.5637L45.8859 34.4296C45.7963 34.3704 45.6789 34.4173 45.648 34.5257C44.9958 36.8619 44.3932 39.4544 43.8461 42.1775C43.8354 42.2329 43.8521 42.2894 43.8925 42.3352L46.365 44.9598C46.4886 45.0928 46.365 45.3097 46.1919 45.2382L43.6514 44.1219C43.5587 44.08 43.4505 44.1391 43.432 44.2451C43.024 46.4359 42.6562 48.6809 42.3286 50.9383C42.3236 50.9681 42.3271 50.9985 42.3389 51.0271C42.3507 51.0556 42.3704 51.0817 42.3966 51.1034L46.6555 54.1888C46.7977 54.2923 46.705 54.5313 46.535 54.4968L42.1463 53.5899C42.0535 53.5702 41.967 53.6368 41.9546 53.7329C41.5034 57.2027 41.1603 60.5986 40.9409 63.6889C40.9359 63.7215 40.9422 63.7546 40.959 63.7845C40.9759 63.8145 41.0028 63.8402 41.0367 63.8589L46.0899 66.1335C46.263 66.2123 46.1888 66.4908 46.0003 66.4588L40.9935 65.6037C40.9007 65.5864 40.8142 65.6628 40.808 65.7638C40.7122 67.5406 40.6597 69.1868 40.6597 70.6507C40.6597 71.5773 40.6803 72.4677 40.7215 73.322C40.7201 73.3536 40.7298 73.3848 40.7495 73.4122C40.7691 73.4397 40.7979 73.4622 40.8327 73.4773L46.1239 75.2442C46.2939 75.3009 46.263 75.5646 46.0868 75.5769L41.0954 75.9293C41.0446 75.9403 41.0007 75.9662 40.9727 76.0019C40.9446 76.0375 40.9344 76.0802 40.944 76.1215C41.1648 78.5762 41.7139 81.0051 42.582 83.3667C42.6129 83.4505 42.6995 83.4899 42.7798 83.4628L45.8458 82.4081C46.0034 82.3539 46.1239 82.5584 46.0127 82.6866L43.6298 85.3801C43.6047 85.4104 43.5898 85.4454 43.5865 85.4817C43.5833 85.5179 43.5918 85.5542 43.6112 85.5871C45.6449 89.1604 48.5562 90.7056 51.8014 90.7056C54.9755 90.7056 57.8405 89.227 59.8711 85.7966C59.8897 85.7631 59.8977 85.7265 59.8945 85.69C59.8912 85.6535 59.8768 85.6182 59.8525 85.5871L57.2997 82.6964C57.1884 82.5683 57.2997 82.3637 57.4666 82.4179L60.7983 83.5663C60.8192 83.5719 60.8414 83.5738 60.8633 83.5718C60.8852 83.5699 60.9064 83.5641 60.9252 83.555C60.944 83.5458 60.9601 83.5335 60.9724 83.5188C60.9846 83.5042 60.9927 83.4876 60.9961 83.4702C61.8834 81.0867 62.444 78.6335 62.6681 76.1536C62.6777 76.1122 62.6675 76.0695 62.6394 76.0339C62.6114 75.9983 62.5675 75.9724 62.5167 75.9613L57.2255 75.5868C57.0493 75.5744 57.0184 75.3107 57.1884 75.2541L62.7083 73.4132C62.7367 73.402 62.7612 73.3853 62.7795 73.3646C62.7979 73.344 62.8095 73.32 62.8134 73.2949L62.8937 72.9819C62.8937 72.9819 62.8937 72.9573 62.8937 72.945C62.9215 72.2057 62.937 71.454 62.937 70.6679C62.9432 69.1819 62.8906 67.516 62.7917 65.7195Z" fill="#FFC100"/>
<path opacity="0.4" d="M62.7917 65.7195C62.7917 65.6184 62.699 65.5445 62.6063 65.5593L57.2997 66.4662C57.1111 66.4982 57.037 66.2197 57.21 66.1409L62.5568 63.7357C62.5903 63.7166 62.6168 63.6909 62.6336 63.661C62.6504 63.6311 62.657 63.5982 62.6527 63.5656C62.4301 60.4926 62.0871 57.1213 61.6389 53.6811C61.6389 53.585 61.54 53.5185 61.4504 53.5357L56.7557 54.4968C56.5826 54.5313 56.4899 54.2923 56.6352 54.1888L61.163 50.9062C61.1898 50.8844 61.2099 50.8579 61.2217 50.8289C61.2335 50.7998 61.2367 50.7689 61.231 50.7387C60.9899 49.0777 60.7241 47.4167 60.4367 45.7804L60.0658 44.1465C60.0442 44.043 59.9391 43.9863 59.8494 44.0282L57.1173 45.2284C56.9535 45.2998 56.8083 45.083 56.9412 44.9499L59.6609 42.0617C59.6812 42.0391 59.6955 42.0135 59.7029 41.9864C59.7103 41.9593 59.7108 41.9312 59.7042 41.904C59.1602 39.2129 58.5606 36.6524 57.9116 34.3483C57.8807 34.2398 57.7633 34.193 57.6736 34.2521L54.1596 36.5539C54.0112 36.6524 53.8505 36.4627 53.9463 36.3074L57.037 31.6991C57.0689 31.6506 57.0766 31.5942 57.0586 31.5414C56.5872 30.0744 56.004 28.6317 55.3124 27.2213C55.2722 27.1425 55.1826 27.1104 55.1084 27.1474L52.6637 28.2884C52.537 28.3476 52.4041 28.2219 52.4443 28.0839L53.2138 25.6195C53.2138 25.5752 53.2818 25.3953 53.3406 25.2375L53.5414 24.6042C52.9759 24.0497 52.3948 23.7441 51.8014 23.7441C51.208 23.7441 50.5466 24.0892 49.947 24.7299L50.8588 28.0888C50.899 28.2268 50.7661 28.3525 50.6393 28.2933L48.4419 27.2657C48.4223 27.2578 48.4007 27.2535 48.3788 27.2532C48.3568 27.2528 48.3351 27.2565 48.3151 27.2639C48.2952 27.2712 48.2776 27.2821 48.2637 27.2956C48.2498 27.3092 48.2399 27.3251 48.2348 27.3421C47.5269 28.8161 46.9314 30.323 46.4515 31.8543C46.434 31.907 46.4406 31.9629 46.4701 32.012L49.366 36.3173C49.468 36.4701 49.3011 36.6598 49.1527 36.5637L45.8859 34.4296C45.7963 34.3704 45.6789 34.4173 45.648 34.5257C44.9958 36.8619 44.3932 39.4544 43.8461 42.1775C43.8354 42.2329 43.8521 42.2894 43.8925 42.3352L46.365 44.9598C46.4886 45.0928 46.365 45.3097 46.1919 45.2382L43.6514 44.1219C43.5587 44.08 43.4505 44.1391 43.432 44.2451C43.024 46.4359 42.6562 48.6809 42.3286 50.9383C42.3236 50.9681 42.3271 50.9985 42.3389 51.0271C42.3507 51.0556 42.3704 51.0817 42.3966 51.1034L46.6555 54.1888C46.7977 54.2923 46.705 54.5313 46.535 54.4968L42.1463 53.5899C42.0535 53.5702 41.967 53.6368 41.9546 53.7329C41.5034 57.2027 41.1603 60.5986 40.9409 63.6889C40.9359 63.7215 40.9422 63.7546 40.959 63.7845C40.9759 63.8145 41.0028 63.8402 41.0367 63.8589L46.0899 66.1335C46.263 66.2123 46.1888 66.4908 46.0003 66.4588L40.9935 65.6037C40.9007 65.5864 40.8142 65.6628 40.808 65.7638C40.7122 67.5406 40.6597 69.1868 40.6597 70.6507C40.6597 71.5773 40.6803 72.4677 40.7215 73.322C40.7201 73.3536 40.7298 73.3848 40.7495 73.4122C40.7691 73.4397 40.7979 73.4622 40.8327 73.4773L46.1239 75.2442C46.2939 75.3009 46.263 75.5646 46.0868 75.5769L41.0954 75.9293C41.0446 75.9403 41.0007 75.9662 40.9727 76.0019C40.9446 76.0375 40.9344 76.0802 40.944 76.1215C41.1648 78.5762 41.7139 81.0051 42.582 83.3667C42.6129 83.4505 42.6995 83.4899 42.7798 83.4628L45.8458 82.4081C46.0034 82.3539 46.1239 82.5584 46.0127 82.6866L43.6298 85.3801C43.6047 85.4104 43.5898 85.4454 43.5865 85.4817C43.5833 85.5179 43.5918 85.5542 43.6112 85.5871C45.6449 89.1604 48.5562 90.7056 51.8014 90.7056C54.9755 90.7056 57.8405 89.227 59.8711 85.7966C59.8897 85.7631 59.8977 85.7265 59.8945 85.69C59.8912 85.6535 59.8768 85.6182 59.8525 85.5871L57.2997 82.6964C57.1884 82.5683 57.2997 82.3637 57.4666 82.4179L60.7983 83.5663C60.8192 83.5719 60.8414 83.5738 60.8633 83.5718C60.8852 83.5699 60.9064 83.5641 60.9252 83.555C60.944 83.5458 60.9601 83.5335 60.9724 83.5188C60.9846 83.5042 60.9927 83.4876 60.9961 83.4702C61.8834 81.0867 62.444 78.6335 62.6681 76.1536C62.6777 76.1122 62.6675 76.0695 62.6394 76.0339C62.6114 75.9983 62.5675 75.9724 62.5167 75.9613L57.2255 75.5868C57.0493 75.5744 57.0184 75.3107 57.1884 75.2541L62.7083 73.4132C62.7367 73.402 62.7612 73.3853 62.7795 73.3646C62.7979 73.344 62.8095 73.32 62.8134 73.2949L62.8937 72.9819C62.8937 72.9819 62.8937 72.9573 62.8937 72.945C62.9215 72.2057 62.937 71.454 62.937 70.6679C62.9432 69.1819 62.8906 67.516 62.7917 65.7195Z" fill="white"/>
<path d="M52.243 77.8514L51.903 62.4073L57.8556 58.4717L51.8566 60.4161L51.7454 55.3667L51.6959 55.448L51.733 54.7087L51.5723 47.4512L56.5019 43.8212L51.6681 46.1352L51.5599 46.9041L51.3621 37.9092L51.254 39.6811L50.7317 53.1241L50.506 52.7668L46.6396 50.7608L50.7007 53.9102L50.0394 70.9537L43.9323 69.4233L49.9714 72.733L49.517 84.4386L47.2176 84.0739L49.4459 86.2918L49.1956 92.6721L48.8927 106.029H52.8642L52.2739 79.2512L57.0829 78.3665L52.243 77.8514Z" fill="#263238"/>
<path opacity="0.5" d="M52.243 77.8514L51.903 62.4073L57.8556 58.4717L51.8566 60.4161L51.7454 55.3667L51.6959 55.448L51.733 54.7087L51.5723 47.4512L56.5019 43.8212L51.6681 46.1352L51.5599 46.9041L51.3621 37.9092L51.254 39.6811L50.7317 53.1241L50.506 52.7668L46.6396 50.7608L50.7007 53.9102L50.0394 70.9537L43.9323 69.4233L49.9714 72.733L49.517 84.4386L47.2176 84.0739L49.4459 86.2918L49.1956 92.6721L48.8927 106.029H52.8642L52.2739 79.2512L57.0829 78.3665L52.243 77.8514Z" fill="white"/>
<path d="M29.4339 72.4272C29.4339 72.3434 29.3566 72.2818 29.2794 72.2941L24.8598 73.0581C24.7021 73.0852 24.6403 72.8511 24.7856 72.787L29.2392 70.781C29.2678 70.7659 29.2908 70.7448 29.3055 70.72C29.3202 70.6953 29.3261 70.6678 29.3227 70.6405C29.1372 68.0776 28.8498 65.2682 28.4758 62.4022C28.4758 62.3209 28.3955 62.2642 28.3182 62.2814L24.4054 63.0799C24.2633 63.1095 24.1829 62.9099 24.3035 62.8335L28.0802 60.098C28.1025 60.0796 28.1193 60.0574 28.1294 60.0331C28.1396 60.0088 28.1428 59.983 28.1389 59.9576C27.935 58.5751 27.7124 57.1901 27.4745 55.8248L27.1654 54.462C27.1468 54.3783 27.0603 54.3314 26.983 54.3635L24.7052 55.3665C24.5723 55.4256 24.458 55.2432 24.56 55.1324L26.8285 52.7247C26.8612 52.6865 26.8745 52.6398 26.8656 52.5941C26.4113 50.349 25.9106 48.2149 25.3697 46.2952C25.345 46.2065 25.2461 46.167 25.1719 46.2163L22.2358 48.1336C22.1122 48.2149 21.9731 48.0572 22.0566 47.9315L24.6403 44.0896C24.6656 44.0491 24.6711 44.0025 24.6558 43.959C24.2636 42.734 23.7785 41.5292 23.2032 40.3512C23.1692 40.2871 23.095 40.26 23.0332 40.2896L20.9965 41.2433C20.8914 41.2925 20.7801 41.1866 20.8141 41.0708L21.4539 39.0229C21.4539 38.9859 21.5095 38.8356 21.559 38.705L21.7259 38.1751C21.253 37.7118 20.7709 37.458 20.2764 37.458C19.7818 37.458 19.2317 37.7463 18.731 38.2712L19.4913 41.0708C19.5253 41.1866 19.4141 41.2925 19.309 41.2433L17.4762 40.3857C17.4113 40.3561 17.3372 40.3857 17.3032 40.4497C16.7148 41.6787 16.2184 42.9345 15.8166 44.2103C15.8086 44.232 15.8062 44.2547 15.8094 44.2771C15.8125 44.2996 15.8213 44.3212 15.8351 44.341L18.2427 47.9217C18.3292 48.0473 18.1902 48.2051 18.0665 48.1237L15.3437 46.3445C15.2664 46.2952 15.1706 46.3445 15.1428 46.4258C14.6019 48.3726 14.0982 50.5339 13.6438 52.8035C13.6382 52.8262 13.6386 52.8495 13.645 52.872C13.6514 52.8945 13.6636 52.9157 13.6809 52.9342L15.7393 55.1225C15.8444 55.2334 15.7393 55.4158 15.594 55.3566L13.4924 54.4325C13.4151 54.398 13.3255 54.4473 13.3101 54.536C12.9701 56.3621 12.6641 58.2325 12.3829 60.1128C12.3792 60.1363 12.3819 60.1602 12.391 60.1828C12.4001 60.2053 12.4152 60.226 12.4354 60.2434L15.9835 62.8137C16.104 62.9 16.0267 63.0996 15.8846 63.0602L12.216 62.3209C12.1387 62.3061 12.0676 62.3603 12.0583 62.4416C11.6813 65.3323 11.3939 68.1639 11.2115 70.7391C11.2075 70.7665 11.2128 70.7943 11.227 70.8194C11.2411 70.8446 11.2635 70.8662 11.2919 70.882L15.526 72.7796C15.6713 72.8437 15.6095 73.0778 15.455 73.0507L11.2795 72.3385C11.2022 72.3237 11.1311 72.3878 11.125 72.4715C11.0446 73.9502 11.0013 75.3253 11.0013 76.5451C11.0013 77.3165 11.0199 78.0607 11.0539 78.763C11.0525 78.7892 11.0605 78.8152 11.0769 78.8379C11.0933 78.8605 11.1175 78.8791 11.1466 78.8912L15.5477 80.3698C15.6868 80.4166 15.662 80.636 15.5168 80.6483L11.3413 80.944C11.264 80.944 11.2084 81.0229 11.2177 81.1042C11.4014 83.1505 11.8583 85.1753 12.5807 87.1443C12.6085 87.2133 12.6796 87.2478 12.7476 87.2232L15.3004 86.3434C15.4333 86.299 15.5353 86.4691 15.4395 86.575L13.4646 88.8127C13.447 88.8393 13.4378 88.8689 13.4378 88.8989C13.4378 88.929 13.447 88.9586 13.4646 88.9852C15.1613 91.9646 17.5906 93.2534 20.2918 93.2534C22.9374 93.2534 25.3265 92.0213 27.017 89.1602C27.036 89.1335 27.046 89.1033 27.046 89.0727C27.046 89.042 27.036 89.0119 27.017 88.9852L24.8907 86.575C24.798 86.4691 24.8907 86.299 25.0298 86.3434L27.8113 87.2996C27.8762 87.3242 27.9504 87.2996 27.9751 87.2207C28.7153 85.2338 29.1827 83.1888 29.369 81.1214C29.376 81.087 29.367 81.0517 29.3437 81.0222C29.3204 80.9927 29.2843 80.971 29.2423 80.9613L24.798 80.6458C24.6496 80.6335 24.6249 80.4142 24.767 80.3673L29.369 78.8345C29.3926 78.8252 29.4129 78.8112 29.428 78.794C29.4432 78.7768 29.4526 78.7568 29.4555 78.7359L29.5235 78.4747C29.5235 78.4747 29.5235 78.455 29.5235 78.4427C29.5483 77.8315 29.5606 77.199 29.5606 76.5451C29.5637 75.3129 29.5205 73.9255 29.4339 72.4272Z" fill="#FFC100"/>
<path opacity="0.4" d="M29.4339 72.4272C29.4339 72.3434 29.3566 72.2818 29.2794 72.2941L24.8598 73.0581C24.7021 73.0852 24.6403 72.8511 24.7856 72.787L29.2392 70.781C29.2678 70.7659 29.2908 70.7448 29.3055 70.72C29.3202 70.6953 29.3261 70.6678 29.3227 70.6405C29.1372 68.0776 28.8498 65.2682 28.4758 62.4022C28.4758 62.3209 28.3955 62.2642 28.3182 62.2814L24.4054 63.0799C24.2633 63.1095 24.1829 62.9099 24.3035 62.8335L28.0802 60.098C28.1025 60.0796 28.1193 60.0574 28.1294 60.0331C28.1396 60.0088 28.1428 59.983 28.1389 59.9576C27.935 58.5751 27.7124 57.1901 27.4745 55.8248L27.1654 54.462C27.1468 54.3783 27.0603 54.3314 26.983 54.3635L24.7052 55.3665C24.5723 55.4256 24.458 55.2432 24.56 55.1324L26.8285 52.7247C26.8612 52.6865 26.8745 52.6398 26.8656 52.5941C26.4113 50.349 25.9106 48.2149 25.3697 46.2952C25.345 46.2065 25.2461 46.167 25.1719 46.2163L22.2358 48.1336C22.1122 48.2149 21.9731 48.0572 22.0566 47.9315L24.6403 44.0896C24.6656 44.0491 24.6711 44.0025 24.6558 43.959C24.2636 42.734 23.7785 41.5292 23.2032 40.3512C23.1692 40.2871 23.095 40.26 23.0332 40.2896L20.9965 41.2433C20.8914 41.2925 20.7801 41.1866 20.8141 41.0708L21.4539 39.0229C21.4539 38.9859 21.5095 38.8356 21.559 38.705L21.7259 38.1751C21.253 37.7118 20.7709 37.458 20.2764 37.458C19.7818 37.458 19.2317 37.7463 18.731 38.2712L19.4913 41.0708C19.5253 41.1866 19.4141 41.2925 19.309 41.2433L17.4762 40.3857C17.4113 40.3561 17.3372 40.3857 17.3032 40.4497C16.7148 41.6787 16.2184 42.9345 15.8166 44.2103C15.8086 44.232 15.8062 44.2547 15.8094 44.2771C15.8125 44.2996 15.8213 44.3212 15.8351 44.341L18.2427 47.9217C18.3292 48.0473 18.1902 48.2051 18.0665 48.1237L15.3437 46.3445C15.2664 46.2952 15.1706 46.3445 15.1428 46.4258C14.6019 48.3726 14.0982 50.5339 13.6438 52.8035C13.6382 52.8262 13.6386 52.8495 13.645 52.872C13.6514 52.8945 13.6636 52.9157 13.6809 52.9342L15.7393 55.1225C15.8444 55.2334 15.7393 55.4158 15.594 55.3566L13.4924 54.4325C13.4151 54.398 13.3255 54.4473 13.3101 54.536C12.9701 56.3621 12.6641 58.2325 12.3829 60.1128C12.3792 60.1363 12.3819 60.1602 12.391 60.1828C12.4001 60.2053 12.4152 60.226 12.4354 60.2434L15.9835 62.8137C16.104 62.9 16.0267 63.0996 15.8846 63.0602L12.216 62.3209C12.1387 62.3061 12.0676 62.3603 12.0583 62.4416C11.6813 65.3323 11.3939 68.1639 11.2115 70.7391C11.2075 70.7665 11.2128 70.7943 11.227 70.8194C11.2411 70.8446 11.2635 70.8662 11.2919 70.882L15.526 72.7796C15.6713 72.8437 15.6095 73.0778 15.455 73.0507L11.2795 72.3385C11.2022 72.3237 11.1311 72.3878 11.125 72.4715C11.0446 73.9502 11.0013 75.3253 11.0013 76.5451C11.0013 77.3165 11.0199 78.0607 11.0539 78.763C11.0525 78.7892 11.0605 78.8152 11.0769 78.8379C11.0933 78.8605 11.1175 78.8791 11.1466 78.8912L15.5477 80.3698C15.6868 80.4166 15.662 80.636 15.5168 80.6483L11.3413 80.944C11.264 80.944 11.2084 81.0229 11.2177 81.1042C11.4014 83.1505 11.8583 85.1753 12.5807 87.1443C12.6085 87.2133 12.6796 87.2478 12.7476 87.2232L15.3004 86.3434C15.4333 86.299 15.5353 86.4691 15.4395 86.575L13.4646 88.8127C13.447 88.8393 13.4378 88.8689 13.4378 88.8989C13.4378 88.929 13.447 88.9586 13.4646 88.9852C15.1613 91.9646 17.5906 93.2534 20.2918 93.2534C22.9374 93.2534 25.3265 92.0213 27.017 89.1602C27.036 89.1335 27.046 89.1033 27.046 89.0727C27.046 89.042 27.036 89.0119 27.017 88.9852L24.8907 86.575C24.798 86.4691 24.8907 86.299 25.0298 86.3434L27.8113 87.2996C27.8762 87.3242 27.9504 87.2996 27.9751 87.2207C28.7153 85.2338 29.1827 83.1888 29.369 81.1214C29.376 81.087 29.367 81.0517 29.3437 81.0222C29.3204 80.9927 29.2843 80.971 29.2423 80.9613L24.798 80.6458C24.6496 80.6335 24.6249 80.4142 24.767 80.3673L29.369 78.8345C29.3926 78.8252 29.4129 78.8112 29.428 78.794C29.4432 78.7768 29.4526 78.7568 29.4555 78.7359L29.5235 78.4747C29.5235 78.4747 29.5235 78.455 29.5235 78.4427C29.5483 77.8315 29.5606 77.199 29.5606 76.5451C29.5637 75.3129 29.5205 73.9255 29.4339 72.4272Z" fill="white"/>
<path d="M20.6439 82.5415L20.3596 69.6677L25.3232 66.3876L20.3225 68.0067L20.2298 63.8001L20.1896 63.8666L20.2205 63.2505L20.0845 57.2005L24.1951 54.1768L20.1649 56.1039L20.0753 56.7446L19.9115 49.248L19.8187 50.7242L19.386 61.9296L19.1975 61.6314L15.974 59.9606L19.3613 62.5851L18.8081 76.7921L13.7147 75.5156L18.7494 78.2757L18.3723 88.0321L16.4561 87.7265L18.3136 89.5772L18.1065 94.8977L17.8531 106.029H21.1601L20.6687 83.7096L24.6772 82.9703L20.6439 82.5415Z" fill="#263238"/>
<path opacity="0.5" d="M20.6439 82.5415L20.3596 69.6677L25.3232 66.3876L20.3225 68.0067L20.2298 63.8001L20.1896 63.8666L20.2205 63.2505L20.0845 57.2005L24.1951 54.1768L20.1649 56.1039L20.0753 56.7446L19.9115 49.248L19.8187 50.7242L19.386 61.9296L19.1975 61.6314L15.974 59.9606L19.3613 62.5851L18.8081 76.7921L13.7147 75.5156L18.7494 78.2757L18.3723 88.0321L16.4561 87.7265L18.3136 89.5772L18.1065 94.8977L17.8531 106.029H21.1601L20.6687 83.7096L24.6772 82.9703L20.6439 82.5415Z" fill="white"/>
<path d="M104.231 91.1441C104.231 91.0726 104.166 91.0184 104.098 91.0307L100.318 91.6764C100.185 91.6985 100.133 91.4989 100.256 91.4447L104.064 89.7197C104.087 89.7057 104.105 89.6873 104.116 89.6661C104.128 89.645 104.132 89.6218 104.129 89.5989C103.971 87.4106 103.727 85.0078 103.409 82.5582C103.409 82.4892 103.338 82.4424 103.273 82.4547L99.9288 83.1398C99.8051 83.1645 99.7402 82.9944 99.8422 82.9205L103.069 80.5818C103.088 80.5664 103.102 80.5477 103.111 80.5272C103.119 80.5067 103.122 80.485 103.118 80.4635C102.945 79.2807 102.754 78.0978 102.55 76.9321L102.287 75.7665C102.271 75.6926 102.197 75.6531 102.132 75.6827L100.185 76.5378C100.071 76.5896 99.972 76.4343 100.062 76.3407L101.999 74.2805C102.027 74.248 102.038 74.2083 102.03 74.1696C101.641 72.2523 101.214 70.4287 100.751 68.7874C100.729 68.7086 100.646 68.6765 100.581 68.7184L98.0775 70.3769C97.9693 70.4484 97.8518 70.3129 97.9229 70.2044L100.13 66.9219C100.152 66.8869 100.158 66.8466 100.145 66.8086C99.8118 65.7627 99.399 64.734 98.9088 63.7281C98.9053 63.7161 98.8985 63.7049 98.8888 63.6953C98.879 63.6858 98.8667 63.6781 98.8527 63.6729C98.8387 63.6676 98.8235 63.665 98.808 63.6652C98.7926 63.6654 98.7774 63.6684 98.7636 63.6739L97.0236 64.4871C96.9339 64.529 96.8381 64.4403 96.869 64.3417L97.413 62.5921C97.413 62.56 97.4624 62.4319 97.5057 62.3185L97.6479 61.8675C97.243 61.4708 96.8288 61.2539 96.4116 61.2539C95.9944 61.2539 95.5184 61.5003 95.0888 61.9489L95.7378 64.3417C95.7657 64.4403 95.6729 64.529 95.5833 64.4871L94.0164 63.7478C94.0027 63.7418 93.9874 63.7384 93.9717 63.7378C93.9561 63.7372 93.9405 63.7395 93.9262 63.7445C93.9118 63.7495 93.8991 63.7571 93.889 63.7666C93.8789 63.7762 93.8717 63.7875 93.868 63.7996C93.3652 64.8506 92.9411 65.9245 92.5978 67.0156C92.5806 67.0513 92.5806 67.0908 92.5978 67.1265L94.6592 70.1946C94.7334 70.303 94.6129 70.441 94.5078 70.3671L92.1805 68.8466C92.1156 68.8047 92.0322 68.8466 92.0105 68.9156C91.5469 70.579 91.1173 72.4273 90.7279 74.3667C90.7232 74.3863 90.7235 74.4065 90.7289 74.4259C90.7342 74.4454 90.7444 74.4638 90.7588 74.4801L92.5205 76.3505C92.607 76.4442 92.5205 76.597 92.3938 76.5477L90.5981 75.7591C90.5332 75.7295 90.4559 75.7591 90.4436 75.8478C90.1531 77.4077 89.8904 79.012 89.6586 80.6139C89.6539 80.6351 89.6557 80.6569 89.6638 80.6775C89.6719 80.6981 89.6859 80.7168 89.7049 80.7322L92.7399 82.9304C92.8419 83.0043 92.7739 83.1768 92.6534 83.1497L89.5164 82.509C89.4546 82.4942 89.3928 82.5435 89.3835 82.6125C89.0744 85.0768 88.8148 87.5017 88.6603 89.7049C88.6566 89.7277 88.6611 89.7509 88.6731 89.7718C88.6851 89.7927 88.7042 89.8105 88.7283 89.8232L92.3258 91.4447C92.4525 91.4989 92.3969 91.6911 92.264 91.6764L88.7036 91.0775C88.6386 91.0775 88.5768 91.1194 88.5707 91.1909C88.5027 92.4576 88.4656 93.6306 88.4656 94.6705C88.4656 95.3335 88.481 95.9668 88.5088 96.5755C88.5082 96.5981 88.5154 96.6204 88.5295 96.6399C88.5437 96.6595 88.5643 96.6756 88.5892 96.6864L92.3505 97.9383C92.471 97.9777 92.4494 98.1675 92.3227 98.1847L88.7654 98.4311C88.7005 98.4311 88.6541 98.4977 88.6603 98.5667C88.8176 100.315 89.2082 102.045 89.8255 103.727C89.8278 103.74 89.8335 103.752 89.8423 103.762C89.8511 103.773 89.8627 103.782 89.8762 103.788C89.8898 103.795 89.905 103.799 89.9208 103.8C89.9366 103.802 89.9526 103.8 89.9676 103.796L92.1496 103.044C92.264 103.005 92.3505 103.15 92.2702 103.244L90.5827 105.156C90.5642 105.177 90.5531 105.202 90.5504 105.227C90.5477 105.253 90.5535 105.279 90.5672 105.302C92.0167 107.847 94.0936 108.949 96.4023 108.949C98.6647 108.949 100.705 107.889 102.151 105.452C102.166 105.429 102.174 105.403 102.174 105.377C102.174 105.351 102.166 105.325 102.151 105.302L100.334 103.244C100.253 103.15 100.334 102.998 100.451 103.044L102.825 103.863C102.88 103.882 102.942 103.863 102.967 103.794C103.598 102.095 103.997 100.348 104.157 98.5815C104.163 98.5522 104.156 98.5219 104.136 98.4968C104.116 98.4717 104.085 98.4535 104.049 98.4459L100.278 98.1773C100.151 98.1773 100.133 97.9802 100.253 97.9309L104.185 96.6198C104.205 96.6115 104.222 96.5996 104.235 96.5851C104.249 96.5706 104.258 96.5538 104.262 96.5361L104.317 96.3143C104.317 96.3143 104.317 96.297 104.317 96.2872C104.336 95.7647 104.348 95.225 104.348 94.6632C104.339 93.6109 104.302 92.4255 104.231 91.1441Z" fill="#E5D4A0"/>
<path d="M97.922 103.452L97.6779 92.4491L101.921 89.6471L97.647 91.0321L97.5697 87.4342L97.5326 87.4933L97.5573 86.9659L97.443 81.7957L100.957 79.2106L97.511 80.8593L97.4337 81.4063L97.2946 74.999L97.2174 76.2632L96.8465 85.8372L96.6858 85.5834L93.9289 84.1541L96.8249 86.3991L96.352 98.5385L92.0004 97.4468L96.3025 99.8077L95.9811 108.145L94.3431 107.883L95.9286 109.465L95.7524 114.01L95.5361 123.525H98.364L97.9437 104.451L101.368 103.82L97.922 103.452Z" fill="#CCC5B1"/>
<path d="M156.675 95.5679C155.912 104.225 154.605 112.832 152.762 121.346C152.103 124.497 151.352 127.858 150.509 131.429C151.93 153.018 144.512 182 144.512 182L138.878 181.883C138.878 181.883 136.963 148.484 137.001 130.997C137.044 102.348 139.799 75.0584 139.799 75.0584L155.135 75C155.135 75 157.933 79.3061 156.675 95.5679Z" fill="#263238"/>
<path opacity="0.2" d="M157 95.1553C156.128 103.834 154.634 112.464 152.526 121C148.36 109.511 154.044 85 154.044 85L157 95.1553Z" fill="black"/>
<path d="M152 79.4359C152 79.4359 155.053 121.607 157.919 135.965L178.883 179L184 176.298C184 176.298 174.73 136.923 168.998 130.07C168.998 130.07 174.351 94.1504 168.998 78L152 79.4359Z" fill="#263238"/>
</g>
<path d="M145.415 42.6439C144.657 46.7535 143.7 50.736 142.593 54.7385C142.046 56.7464 141.425 58.7544 140.766 60.7624C140.424 61.7663 140.064 62.7703 139.66 63.8011C139.238 64.9215 138.744 66.0085 138.181 67.054C137.991 67.3989 137.784 67.7319 137.559 68.0512C137.416 68.2453 137.279 68.4394 137.074 68.6804C136.808 68.9942 136.51 69.2748 136.186 69.517C136.105 69.5773 135.931 69.6911 135.788 69.7781C135.637 69.8656 135.481 69.9439 135.322 70.0123C135.166 70.0726 135.005 70.1328 134.843 70.1797L134.501 70.26C134.195 70.3123 133.885 70.3392 133.575 70.3403C133.201 70.3337 132.828 70.3047 132.457 70.2533C131.387 70.0772 130.328 69.8291 129.287 69.5104C127.348 68.9214 125.508 68.2855 123.693 67.5894C120.045 66.2039 116.484 64.698 112.966 62.9845L114.035 59.33C117.764 60.0462 121.493 60.8561 125.185 61.599C127.049 61.9537 128.87 62.3353 130.648 62.5963C131.459 62.7306 132.277 62.8199 133.097 62.864C133.197 62.8819 133.3 62.8819 133.401 62.864C133.401 62.864 133.401 62.864 133.184 62.864C133.127 62.8705 133.07 62.884 133.016 62.9042C132.909 62.9297 132.805 62.9656 132.705 63.0113C132.6 63.0506 132.498 63.0999 132.401 63.1585C132.314 63.206 132.231 63.2596 132.152 63.3192C132.023 63.4147 131.901 63.5198 131.785 63.6337C131.742 63.6806 131.742 63.6672 131.742 63.6337C131.742 63.6003 131.81 63.4731 131.866 63.3192C132.115 62.7168 132.419 61.8333 132.68 60.9565C132.941 60.0797 133.196 59.1359 133.438 58.1989C133.948 56.3181 134.383 54.3771 134.856 52.4427C135.757 48.5607 136.645 44.5983 137.59 40.7363L145.415 42.6439Z" fill="#FFC3BD"/>
<path d="M137.546 38.4012L131.809 54.1369L142.033 57.1287C142.033 57.1287 146.812 48.4276 145.905 42.6648C144.998 36.9019 137.546 38.4012 137.546 38.4012Z" fill="#FFC100"/>
<path opacity="0.2" d="M137.749 38.5369L132.013 54.2726L142.237 57.2645C142.237 57.2645 147.016 48.5633 146.109 42.8005C145.201 37.0377 137.749 38.5369 137.749 38.5369Z" fill="#A0A0A0"/>
<path d="M111.131 61.4862C111.131 61.4862 109.54 60.5558 108.136 59.8329C106.731 59.1101 108.931 58.4943 110.081 58.8089C111.015 59.0676 111.912 59.4616 112.747 59.9802L111.131 61.4862Z" fill="#FFC3BD"/>
<path opacity="0.2" d="M111.131 61.4862C111.131 61.4862 109.54 60.5558 108.136 59.8329C106.731 59.1101 108.931 58.4943 110.081 58.8089C111.015 59.0676 111.912 59.4616 112.747 59.9802L111.131 61.4862Z" fill="black"/>
<path d="M114.469 62.7115C114.469 62.7115 111.983 63.6686 109.174 64.4851C106.365 65.3017 103.997 62.8989 102.425 62.4236C100.852 61.9484 104.053 60.5897 105.439 61.4866C106.825 62.3835 109.721 60.5763 110.821 59.8602C111.921 59.144 114.041 58.7223 114.948 59.579C115.19 60.5897 114.948 62.1693 114.469 62.7115Z" fill="#FFC3BD"/>
<path d="M158.77 28.629L157.974 25.6572L158.229 28.7963C155.246 29.6999 150 30.9247 145.239 30.1349L144.518 28.2943L144.705 30.0412C142.434 29.6692 140.311 28.6003 138.589 26.9624C138.589 26.9624 138.956 20.5905 139.422 15.43C139.907 10.0755 142.268 5.00202 147.415 5.00202C149.528 4.96162 151.613 5.5276 153.456 6.64185C153.456 6.64185 157.638 6.90958 159.006 12.7059C159.907 16.5545 160.671 27.953 160.671 27.953C160.671 27.953 159.982 28.2475 158.77 28.629Z" fill="#263238"/>
<path d="M137.317 41.8295C137.534 48.2617 132.885 51.9496 138.435 56.5545C138.92 61.9091 136.62 71.989 138.162 80.7638C138.22 81.1086 138.364 81.4301 138.577 81.6949C138.79 81.9598 139.065 82.1583 139.374 82.2698C143.519 83.7289 157.808 83.0462 168.634 80.2083C169.131 80.0762 169.56 79.7408 169.83 79.2733C170.101 78.8058 170.191 78.2432 170.083 77.705C168.454 69.6732 167.597 56.6482 169.579 40.1161C169.692 39.1907 169.634 38.2503 169.407 37.3494C169.181 36.4484 168.791 35.6048 168.26 34.8672C167.729 34.1297 167.067 33.5128 166.313 33.0524C165.559 32.5919 164.728 32.297 163.867 32.1846C162.848 32.0575 161.761 31.9504 160.654 31.8701C156.75 31.5029 152.827 31.4358 148.914 31.6693C147.671 31.7764 146.335 31.9236 145.079 32.0909C142.89 32.3787 140.881 33.5373 139.444 35.3391C138.008 37.141 137.249 39.456 137.317 41.8295Z" fill="#C9A948"/>
<path d="M147.313 43.604C146.961 43.6073 146.615 43.5078 146.312 43.3162C143.205 41.3819 146.573 32.5201 146.716 32.1453C146.726 32.1169 146.742 32.0909 146.761 32.0691C146.781 32.0472 146.805 32.0298 146.831 32.0179C146.857 32.0061 146.885 32 146.913 32C146.942 32 146.97 32.0062 146.996 32.0181C147.022 32.0298 147.045 32.0469 147.065 32.0684C147.084 32.0899 147.1 32.1155 147.11 32.1435C147.121 32.1715 147.126 32.2015 147.125 32.2317C147.125 32.2619 147.119 32.2917 147.108 32.3193C147.108 32.4063 143.745 41.1878 146.523 42.9146C146.731 43.0438 146.962 43.1221 147.2 43.1441C147.439 43.166 147.679 43.1311 147.903 43.0418C151.303 41.9174 155.672 32.2256 155.716 32.1319C155.743 32.0846 155.786 32.0499 155.835 32.0343C155.885 32.0187 155.939 32.0233 155.985 32.0472C156.032 32.0712 156.069 32.1128 156.089 32.1642C156.109 32.2156 156.111 32.2732 156.095 32.326C155.914 32.7343 151.601 42.2989 148.015 43.4836C147.788 43.5598 147.551 43.6003 147.313 43.604Z" fill="white"/>
<path d="M170.1 43.4346L174.047 52.6712C174.712 54.1972 175.377 55.7233 176.061 57.2092C176.744 58.695 177.44 60.1542 178.155 61.4459C178.452 61.9845 178.775 62.5052 179.125 63.0055C179.168 63.0724 179.206 63.1192 179.162 63.0925C178.932 62.9502 178.685 62.8421 178.429 62.7712L178.174 62.7176C178.067 62.6995 177.959 62.6884 177.851 62.6842C177.72 62.6842 177.608 62.6842 177.465 62.6842C177.322 62.6842 177.148 62.731 177.148 62.731C177.032 62.7559 176.919 62.7964 176.813 62.8515C176.751 62.9051 176.813 62.8515 176.813 62.8515C176.875 62.798 176.856 62.8515 176.918 62.8114C177.49 62.5035 178.043 62.1547 178.572 61.7672C179.193 61.3322 179.815 60.8503 180.436 60.3617C182.953 58.4005 185.514 56.2922 188.081 54.2575L190.896 57.2828C188.911 60.1168 186.771 62.8212 184.488 65.3815C183.904 66.0509 183.301 66.6666 182.661 67.3025C181.958 68.0248 181.199 68.6809 180.393 69.2636C180.281 69.3439 180.107 69.451 179.964 69.538C179.784 69.6518 179.597 69.7524 179.404 69.8392C179.109 69.9735 178.804 70.0788 178.491 70.1538C178.339 70.1895 178.186 70.2141 178.031 70.2274C177.853 70.2406 177.674 70.2406 177.496 70.2274C177.329 70.2274 177.179 70.2274 177.024 70.1739C176.888 70.1504 176.753 70.1192 176.62 70.0802C176.232 69.9732 175.858 69.8135 175.508 69.6049C175.273 69.4694 175.049 69.315 174.836 69.1431C174.534 68.9057 174.248 68.6463 173.979 68.3667C173.252 67.5844 172.593 66.7331 172.008 65.8233C171.007 64.3147 170.08 62.7508 169.23 61.1381C168.385 59.5785 167.608 58.0123 166.862 56.4528C165.364 53.2869 163.991 50.1345 162.748 46.8347L170.1 43.4346Z" fill="#FFC3BD"/>
<path d="M168.783 35.9242L173.898 49.1231L163.19 53.4202L158.609 42.1288C157.98 40.6386 157.816 38.9687 158.143 37.3699C158.431 36.1642 159.048 35.0794 159.916 34.2563C160.783 33.4332 161.86 32.9098 163.007 32.7539C164.154 32.5981 165.318 32.817 166.348 33.3823C167.378 33.9476 168.226 34.8332 168.783 35.9242Z" fill="#ECBA20"/>
<path d="M191.841 56.078C191.841 56.078 193.37 55.0205 194.719 54.1838C196.068 53.3472 193.836 52.9255 192.711 53.3204C191.797 53.65 190.929 54.1139 190.132 54.6992L191.841 56.078Z" fill="#FFC3BD"/>
<path opacity="0.2" d="M191.841 56.078C191.841 56.078 193.37 55.0205 194.719 54.1838C196.068 53.3472 193.836 52.9255 192.711 53.3204C191.797 53.65 190.929 54.1139 190.132 54.6992L191.841 56.078Z" fill="black"/>
<path d="M188.603 57.5639C188.603 57.5639 191.176 58.3135 194.004 58.9025C196.832 59.4915 199.057 56.8945 200.598 56.3055C202.139 55.7165 198.845 54.6122 197.491 55.6362C196.136 56.6603 193.14 55.074 192.009 54.4515C190.878 53.8291 188.721 53.5747 187.876 54.4984C187.739 55.5091 188.087 57.0619 188.603 57.5639Z" fill="#FFC3BD"/>
<path d="M147.832 31.8682C147.801 31.9284 147.776 31.9887 147.751 32.0489C146.726 36.9952 152.966 35.7435 155.501 31.4532C153.817 29.0437 153.488 24.8336 153.879 21.7949L148.795 26.3262L147.807 27.3436C148.039 28.0912 148.185 28.8667 148.242 29.6527C148.314 30.4188 148.171 31.1905 147.832 31.8682Z" fill="#FFC3BD"/>
<g opacity="0.2">
<path d="M148.235 29.6532C148.178 28.8672 148.032 28.0917 147.8 27.3441L148.788 26.3267L151.423 26.2598C151.423 26.2598 150.18 29.004 148.235 29.6532Z" fill="black"/>
</g>
<path d="M155.793 16.1194C155.097 21.6078 154.873 23.0134 152.139 25.6371C148.024 29.5928 142.07 28.4081 141.256 22.8059C140.523 17.7593 141.778 9.62703 146.85 7.82656C151.921 6.02609 156.483 10.6243 155.793 16.1194Z" fill="#FFC3BD"/>
<path d="M152.593 8.19509C152.593 8.19509 151.238 12.0236 148.106 11.796C146.059 11.5715 144.105 10.7654 142.444 9.4601C142.444 9.4601 144.594 6.03988 149.423 6.85645C154.252 7.67302 152.593 8.19509 152.593 8.19509Z" fill="#263238"/>
<path d="M152.444 8.44238C152.444 8.44238 150.1 15.3297 151.977 17.6321C153.854 19.9346 157.13 16.588 157.13 16.588C157.13 16.588 156.825 9.05146 152.444 8.44238Z" fill="#263238"/>
<path d="M144.756 22.3981C144.728 22.5233 144.727 22.6537 144.754 22.7791C144.781 22.9046 144.834 23.0217 144.91 23.1213C144.985 23.221 145.081 23.3006 145.19 23.3538C145.299 23.407 145.418 23.4325 145.537 23.4282C145.656 23.4239 145.773 23.39 145.879 23.3292C145.984 23.2683 146.075 23.1821 146.144 23.0772C146.213 22.9724 146.259 22.8517 146.278 22.7246C146.297 22.5975 146.289 22.4675 146.253 22.3445C146.253 21.7622 145.887 21.3004 145.476 21.3138C145.249 21.358 145.046 21.496 144.912 21.6984C144.777 21.9009 144.721 22.1518 144.756 22.3981Z" fill="#B47575"/>
<path d="M148.099 16.8761C148.068 17.3246 147.819 17.6659 147.552 17.6458C147.285 17.6257 147.08 17.2442 147.111 16.7958C147.142 16.3473 147.391 15.9993 147.664 16.0194C147.938 16.0395 148.13 16.4277 148.099 16.8761Z" fill="#263238"/>
<path d="M143.742 16.6408C143.711 17.0892 143.462 17.4305 143.189 17.4105C142.915 17.3904 142.723 17.0089 142.754 16.5604C142.785 16.112 143.033 15.764 143.307 15.784C143.58 15.8041 143.773 16.1856 143.742 16.6408Z" fill="#263238"/>
<path d="M143.426 15.8052L142.444 15.417C142.444 15.417 142.897 16.3005 143.426 15.8052Z" fill="#263238"/>
<path d="M145.065 16.8486C145.065 16.8486 144.264 17.9798 143.412 18.9503C143.345 19.0226 143.294 19.1105 143.263 19.2072C143.232 19.304 143.223 19.4071 143.235 19.5086C143.247 19.6101 143.28 19.7072 143.332 19.7926C143.385 19.878 143.455 19.9493 143.536 20.0011C143.931 20.2412 144.347 20.4364 144.78 20.5834L145.065 16.8486Z" fill="#ED847E"/>
<path d="M148.926 15.8847C148.866 15.8537 148.818 15.8018 148.789 15.7374C148.688 15.4198 148.518 15.1327 148.293 14.8999C148.068 14.6672 147.795 14.4954 147.496 14.3988C147.465 14.3918 147.435 14.3781 147.408 14.3587C147.382 14.3393 147.359 14.3144 147.342 14.2855C147.324 14.2566 147.312 14.2242 147.306 14.1903C147.3 14.1563 147.3 14.1214 147.307 14.0876C147.313 14.0537 147.326 14.0216 147.344 13.993C147.362 13.9645 147.385 13.94 147.412 13.921C147.439 13.9021 147.469 13.889 147.5 13.8826C147.532 13.8761 147.564 13.8764 147.596 13.8834C147.972 13.9919 148.319 14.1963 148.607 14.4794C148.894 14.7624 149.115 15.1159 149.249 15.5099C149.273 15.5756 149.273 15.6491 149.247 15.7143C149.222 15.7796 149.173 15.8312 149.112 15.8579C149.052 15.8814 148.986 15.8814 148.926 15.8579" fill="#263238"/>
<path d="M142.015 14.4661C141.954 14.4579 141.899 14.4243 141.86 14.3724C141.819 14.3173 141.8 14.247 141.807 14.1768C141.814 14.1066 141.847 14.0422 141.897 13.9976C142.195 13.7251 142.549 13.5341 142.93 13.4409C143.311 13.3477 143.707 13.355 144.085 13.4622C144.12 13.4686 144.154 13.4832 144.184 13.505C144.213 13.5268 144.238 13.5552 144.257 13.5883C144.275 13.6215 144.287 13.6585 144.291 13.6969C144.295 13.7353 144.291 13.7741 144.279 13.8108C144.268 13.8474 144.249 13.881 144.225 13.9092C144.2 13.9373 144.171 13.9595 144.137 13.9741C144.104 13.9886 144.068 13.9953 144.032 13.9936C143.997 13.9919 143.962 13.9818 143.93 13.9641C143.629 13.8868 143.316 13.8871 143.016 13.965C142.716 14.043 142.437 14.1963 142.202 14.4126C142.177 14.4359 142.147 14.4529 142.114 14.4621C142.082 14.4714 142.048 14.4728 142.015 14.4661Z" fill="#263238"/>
<path d="M147.781 16.0523L146.799 15.6641C146.799 15.6641 147.253 16.5476 147.781 16.0523Z" fill="#263238"/>
<path d="M157.347 20.0882C157.125 20.5326 156.818 20.9211 156.446 21.228C156.074 21.535 155.646 21.7533 155.19 21.8686C154.028 22.1163 153.555 20.7308 153.947 19.3921C154.32 18.1874 155.376 16.6011 156.501 16.9625C157.626 17.3239 157.931 18.9236 157.322 20.0882" fill="#FFC3BD"/>
</g>
<defs>
<clipPath id="clip0_512_36792">
<rect width="210" height="140" fill="white"/>
</clipPath>
</defs>
</svg>
