<svg width="210" height="140" viewBox="0 0 210 140" fill="none" xmlns="http://www.w3.org/2000/svg">
<g clip-path="url(#clip0_512_36231)">
<path d="M41.9417 46.2204C41.9417 46.2204 45.1956 48.7224 49.3853 52.3327C50.258 53.0849 51.2189 53.7354 52.2364 54.2759C54.9818 55.734 57.4844 56.5683 58.162 55.2447C58.3127 54.9537 58.4286 54.6384 58.5145 54.3079C59.0899 52.0915 58.8539 48.9756 57.0623 47.5496C55.0422 45.9417 54.0682 44.5661 54.4325 42.3897C54.6236 41.1556 55.0702 39.8819 55.5921 38.6446L54.0026 36.7862L45.6887 28.3955C45.8966 33.9983 46.3209 43.1791 41.9417 46.2204Z" fill="#EEC1BB"/>
<path opacity="0.2" d="M54.3656 42.8668C52.0789 41.5094 49.5702 39.1551 49.8709 36.4651C50.005 35.3325 50.2492 34.2592 50.5206 33.5713L55.1649 39.7203C54.7837 40.7114 54.6445 41.3666 54.3656 42.8668Z" fill="black"/>
<path d="M43.3357 19.3937C44.1182 27.9361 44.2691 31.5586 48.6772 36.0378C55.3079 42.7752 65.5088 40.5088 67.2649 32.0416C68.8456 24.4205 67.3003 11.7316 58.9142 8.14134C50.652 4.60445 42.5533 10.8513 43.3357 19.3937Z" fill="#EEC1BB"/>
<path d="M53.9759 22.0869C54.0203 22.8867 54.5118 23.5445 55.0736 23.5562C55.6353 23.568 56.0546 22.9294 56.0102 22.1297C55.9658 21.3301 55.4743 20.6722 54.9126 20.6603C54.3509 20.6485 53.9316 21.2872 53.9759 22.0869Z" fill="#263238"/>
<path d="M62.8279 21.9659C62.8727 22.7407 63.3632 23.3786 63.9232 23.3905C64.4833 23.4022 64.901 22.7837 64.8561 22.0086C64.8112 21.2339 64.3209 20.5959 63.7607 20.5842C63.2007 20.5723 62.7832 21.1909 62.8279 21.9659Z" fill="#263238"/>
<path d="M52.6174 19.0262C52.7262 19.0383 52.8367 19.0067 52.9211 18.9287C54.2371 17.7103 55.7188 18.1381 55.736 18.1431C55.9556 18.207 56.1778 18.0827 56.2281 17.8586C56.2779 17.6349 56.1383 17.3997 55.916 17.3324C55.8385 17.3095 53.9789 16.7706 52.3458 18.2834C52.1832 18.4342 52.1799 18.7012 52.3384 18.8795C52.4152 18.9651 52.5156 19.0148 52.6174 19.0262Z" fill="#263238"/>
<path d="M65.5618 18.6013C65.6627 18.6259 65.7701 18.6131 65.8612 18.5562C66.0495 18.4387 66.0983 18.1798 65.971 17.9782C64.6921 15.9563 62.7907 15.8333 62.7094 15.8297C62.4819 15.8177 62.3011 15.9966 62.3054 16.2299C62.3094 16.4626 62.4968 16.6609 62.7236 16.674C62.7982 16.6777 64.2725 16.7951 65.289 18.4029C65.3549 18.5069 65.4548 18.5755 65.5618 18.6013Z" fill="#263238"/>
<path d="M46.9751 24.7531C46.9751 24.7531 49.6108 20.7689 48.5249 13.0102C48.3428 11.7095 49.1657 10.4779 50.4551 10.2275C54.1404 9.51169 59.0678 4.86292 65.0797 14.0961C65.0797 14.0961 62.2126 3.03585 45.4271 7.4915C30.4891 11.4567 40.7165 24.1176 42.2571 25.4199C43.7977 26.7222 46.9751 24.7531 46.9751 24.7531Z" fill="#263238"/>
<path d="M40.7508 26.3556C41.7596 28.1076 43.3993 29.2077 44.9026 29.5848C47.1637 30.1518 48.3313 26.5164 47.5596 24.251C46.8646 22.2118 44.6429 20.8619 42.4423 21.3065C40.2744 21.7447 39.5971 24.3525 40.7508 26.3556Z" fill="#EEC1BB"/>
<path d="M60.6754 30.3109C59.9799 31.3814 59.1439 33.4556 59.1439 33.4556C58.9423 33.4137 58.7407 33.372 58.5419 33.3196C55.8225 32.6832 54.7709 31.4893 54.4302 30.359C54.2461 29.7399 54.2824 29.1341 54.3748 28.655C54.476 28.0995 54.6746 27.7266 54.6746 27.7266C55.9148 28.9252 58.4045 29.7138 59.7517 30.0795C60.3142 30.2385 60.6754 30.3109 60.6754 30.3109Z" fill="#263238"/>
<path d="M59.7522 30.0795L59.2768 30.9949C56.7166 30.3891 54.9956 29.6192 54.3752 28.655C54.4765 28.0995 54.675 27.7266 54.675 27.7266C55.9153 28.9252 58.4049 29.7138 59.7522 30.0795Z" fill="white"/>
<path d="M58.5423 33.32C55.8228 32.6836 54.7713 31.4897 54.4305 30.3594C55.349 30.612 56.4282 31.0188 57.3103 31.6646C57.9868 32.1557 58.3443 32.7534 58.5423 33.32Z" fill="#DC5753"/>
<path d="M60.5323 21.7324C60.5323 21.7324 61.8688 24.9299 63.3764 26.9233C63.6399 27.2717 63.4768 27.7802 63.067 27.931C62.0122 28.3193 60.7776 27.9679 60.7776 27.9679L60.5323 21.7324Z" fill="#D4827D"/>
<path d="M54.7415 20.6409L56.7021 20.1777C56.7021 20.1777 55.6299 21.6398 54.7415 20.6409Z" fill="#263238"/>
<path d="M63.5593 20.6048L65.5198 20.1416C65.5198 20.1416 64.4477 21.6036 63.5593 20.6048Z" fill="#263238"/>
<path d="M66.5742 17.7092C66.5742 17.7092 71.7476 11.5889 68.2958 6.54383C66.9987 4.6479 64.6169 4.36526 62.5149 3.43902C57.6647 1.30213 53.7337 0.870449 47.5437 6.93701C41.1037 13.2487 39.9386 15.3741 47.042 23.1504C47.042 23.1504 46.2754 22.1335 48.9015 19.8201C51.5274 17.5066 54.426 15.4483 53.0187 13.2047C53.0187 13.2047 55.202 14.0468 55.3583 16.1243L59.1983 15.0757C59.1983 15.0757 59.0315 13.5908 58.0155 12.1057C58.0155 12.1057 60.0058 13.2782 60.6518 14.9974L63.974 15.6227C63.974 15.6227 63.4862 12.5746 62.5483 11.4805C62.5483 11.4805 65.5917 14.6095 66.5742 17.7092Z" fill="#263238"/>
<path fill-rule="evenodd" clip-rule="evenodd" d="M171.685 18.209C191.859 28.7267 205.048 45.0817 206.889 64.6486C208.64 83.2617 192.847 97.1543 180.344 110.261C169.942 121.164 132.533 121.452 117 123.5C101.284 125.573 79.4403 141.058 64.7058 133.758C45.1334 124.061 9.47611 108.872 3.72446 88.4622C-2.09423 67.8151 10.4121 40.5389 30.0877 35.4925C55.8896 28.8747 79.96 48.0917 97.028 45.7718C114.607 43.3825 142.219 2.8468 171.685 18.209Z" fill="#FFECB2"/>
<path d="M151.194 90.9782C151.896 91.3083 152.328 92.0804 153.054 92.351C153.462 92.5031 153.911 92.4675 154.323 92.3151V81.9531H144.406C144.393 81.7284 144.419 81.5036 144.499 81.2904C144.769 80.564 145.541 80.1319 145.871 79.4306C146.359 78.3959 145.672 77.1068 144.665 76.5645C143.884 76.1438 143.475 76.0648 142.8 76.1034C142.125 76.0648 141.716 76.1438 140.935 76.5645C139.929 77.1068 139.242 78.3959 139.729 79.4306C140.059 80.1319 140.831 80.564 141.102 81.2904C141.181 81.5036 141.207 81.7284 141.195 81.9531H131.277V104.999H154.323V95.7836C153.911 95.6312 153.462 95.5956 153.054 95.7477C152.328 96.0183 151.893 96.7843 151.194 97.1205C150.263 97.5688 148.875 96.9194 148.328 95.9142C147.904 95.1349 147.829 94.7242 147.867 94.0493C147.829 93.3745 147.907 92.9655 148.328 92.1844C148.871 91.1776 150.16 90.491 151.194 90.9782Z" fill="#FFC100"/>
<path opacity="0.4" d="M151.194 90.9782C151.896 91.3083 152.328 92.0804 153.054 92.351C153.462 92.5031 153.911 92.4675 154.323 92.3151V81.9531H144.406C144.393 81.7284 144.419 81.5036 144.499 81.2904C144.769 80.564 145.541 80.1319 145.871 79.4306C146.359 78.3959 145.672 77.1068 144.665 76.5645C143.884 76.1438 143.475 76.0648 142.8 76.1034C142.125 76.0648 141.716 76.1438 140.935 76.5645C139.929 77.1068 139.242 78.3959 139.729 79.4306C140.059 80.1319 140.831 80.564 141.102 81.2904C141.181 81.5036 141.207 81.7284 141.195 81.9531H131.277V104.999H154.323V95.7836C153.911 95.6312 153.462 95.5956 153.054 95.7477C152.328 96.0183 151.893 96.7843 151.194 97.1205C150.263 97.5688 148.875 96.9194 148.328 95.9142C147.904 95.1349 147.829 94.7242 147.867 94.0493C147.829 93.3745 147.907 92.9655 148.328 92.1844C148.871 91.1776 150.16 90.491 151.194 90.9782Z" fill="black"/>
<path d="M152.324 90.9782C153.026 91.3083 153.458 92.0804 154.184 92.351C154.592 92.5031 155.041 92.4675 155.453 92.3151V81.9531H145.536C145.524 81.7284 145.549 81.5036 145.629 81.2904C145.899 80.564 146.671 80.1319 147.002 79.4306C147.489 78.3959 146.802 77.1068 145.795 76.5645C145.014 76.1438 144.605 76.0648 143.93 76.1034C143.256 76.0648 142.847 76.1438 142.066 76.5645C141.059 77.1068 140.372 78.3959 140.859 79.4306C141.189 80.1319 141.962 80.564 142.232 81.2904C142.312 81.5036 142.337 81.7284 142.325 81.9531H132.407V104.999H155.453V95.7836C155.041 95.6312 154.592 95.5956 154.184 95.7477C153.458 96.0183 153.023 96.7843 152.324 97.1205C151.393 97.5688 150.005 96.9194 149.458 95.9142C149.034 95.1349 148.959 94.7242 148.997 94.0493C148.959 93.3745 149.038 92.9655 149.458 92.1844C150.001 91.1776 151.29 90.491 152.324 90.9782Z" fill="#FFC100"/>
<mask id="mask0_512_36231" style="mask-type:alpha" maskUnits="userSpaceOnUse" x="2" y="14" width="206" height="122">
<path fill-rule="evenodd" clip-rule="evenodd" d="M171.685 18.209C191.859 28.7267 205.048 45.0817 206.889 64.6486C208.639 83.2617 192.847 97.1543 180.343 110.261C169.941 121.164 132.533 121.452 117 123.5C101.283 125.573 79.44 141.058 64.7055 133.758C45.1331 124.061 9.47586 108.872 3.72421 88.4622C-2.09447 67.8151 10.4119 40.5389 30.0874 35.4925C55.8894 28.8747 79.9598 48.0917 97.0277 45.7718C114.606 43.3825 142.219 2.8468 171.685 18.209Z" fill="#FFECB2"/>
</mask>
<g mask="url(#mask0_512_36231)">
<path d="M177.312 59.0714C177.312 59.0714 177.176 61.4139 176.032 65.5193C175.314 68.0561 174.443 70.5471 173.424 72.9784C172.853 74.3519 172.198 75.8099 171.446 77.3434C171.108 78.0407 170.746 78.75 170.366 79.4775C169.928 91.9023 162.955 104.532 162.955 104.532C162.569 104.732 161.219 104.514 161.228 104.122C162.261 102.483 164.292 86.5623 165.602 79.0096C165.684 77.9833 165.802 76.8966 165.946 75.7465C166.33 72.6976 166.897 69.3831 167.456 66.4671C168.322 61.8727 169.146 58.2715 169.146 58.2715L171.443 58.4949L177.312 59.0714Z" fill="#EEC1BB"/>
<path d="M162.88 107.213H162.487L162.376 106.718L161.047 107.322H157.682C157.682 107.322 157.147 106.785 158.747 106.359C158.825 106.337 158.901 106.307 158.974 106.271C159.828 105.87 161.041 104.518 161.041 104.518H162.886C162.943 104.603 162.993 104.693 163.037 104.786C163.239 105.185 163.586 106.048 162.88 107.213Z" fill="#263238"/>
<path d="M163.036 104.78C162.795 104.508 161.687 105.7 160.875 106.108C160.151 106.467 159.336 106.627 158.973 106.262C159.828 105.86 161.349 103.981 161.349 103.981L162.653 104.112C162.653 104.112 162.952 104.604 163.036 104.78Z" fill="#EEC1BB"/>
<path d="M180.053 76.2718C179.868 77.6081 179.63 79.0379 179.338 80.5614C181.828 88.8717 176.706 105.091 176.706 105.091C175.839 105.263 175.073 105.151 174.683 104.859C175.649 99.9713 174.955 87.2658 174.203 79.6739C174.137 78.9856 174.052 78.2279 173.962 77.4189C173.808 76.0485 173.624 74.5391 173.427 72.9785C173.095 70.3674 172.724 67.6204 172.389 65.1843C171.978 62.2411 171.622 59.7507 171.438 58.498C171.363 57.9486 171.317 57.6377 171.317 57.6377L178.508 58.4165C178.508 58.4165 180.337 60.4662 180.621 66.8687C180.715 70.0138 180.525 73.1609 180.053 76.2718Z" fill="#EEC1BB"/>
<path d="M176.884 107.213H176.483L176.371 106.718L175.046 107.322H171.683C171.683 107.322 171.149 106.785 172.751 106.359C172.829 106.337 172.905 106.307 172.978 106.271C173.829 105.87 175.046 104.518 175.046 104.518H176.89C176.946 104.604 176.996 104.694 177.041 104.786C177.243 105.185 177.581 106.048 176.884 107.213Z" fill="#263238"/>
<path d="M177.041 104.779C176.797 104.508 175.689 105.7 174.877 106.108C174.153 106.467 173.338 106.627 172.978 106.262C173.83 105.86 175.173 104.112 175.173 104.112H176.655C176.655 104.112 176.954 104.604 177.041 104.779Z" fill="#EEC1BB"/>
<path d="M181.941 41.016C181.572 40.6971 180.975 40.8193 180.467 40.7596C179.697 40.669 179.075 40.1122 178.744 39.4804C178.412 38.8486 178.315 38.1416 178.197 37.4511C178.079 36.7606 177.926 36.0533 177.503 35.4673C177.08 34.8813 176.061 34.1549 175.32 34.5992L174.328 36.1361C174.924 37.9367 175.408 39.767 175.777 41.6158C175.943 42.4413 176.107 43.3145 176.706 43.9575C177.293 44.5874 178.222 44.8945 179.134 44.9533C179.597 44.9832 180.075 44.9536 180.497 44.7821C180.92 44.6105 181.279 44.2793 181.373 43.8713C181.467 43.4633 181.242 42.9922 180.812 42.8361C181.227 42.661 181.658 42.4739 181.935 42.1453C182.211 41.8167 182.271 41.3014 181.941 41.016Z" fill="#263238"/>
<path d="M167.735 33.3673C166.602 34.4641 166.459 35.7696 166.639 36.6633C167.019 37.845 167.595 38.6256 168.137 39.7429L170.057 32.0713C169.333 32.3568 168.968 32.2643 167.735 33.3673Z" fill="#263238"/>
<path d="M171.155 32.0264C173.368 32.0712 175.59 33.9217 175.763 35.7172C175.937 37.5127 174.171 39.8296 173.84 39.9718L172.792 40.3571C172.792 40.3571 173.948 37.6839 173.468 36.9697C172.988 36.2554 172.641 36.2476 172.641 36.2476L171.155 32.0264Z" fill="#263238"/>
<path d="M169.276 32.4523C170.427 31.6382 171.787 32.1036 172.594 32.4522C173.503 32.9769 174.144 33.8652 174.356 34.8933C174.532 35.8584 174.745 37.0284 174.251 37.638C173.977 37.9891 173.567 38.2085 173.123 38.2425L167.547 34.7073C167.922 33.8209 168.517 33.0448 169.276 32.4523Z" fill="#263238"/>
<path d="M171.524 45.5247C171.96 45.8365 172.272 45.649 172.725 45.3595C175.449 43.7803 174.33 42.53 174.33 42.53C173.659 41.9819 173.493 41.2102 173.48 39.9905C173.477 39.9553 173.472 39.9203 173.465 39.8858C173.434 39.7282 173.356 39.5841 173.24 39.4731C172.931 39.1612 172.429 39.1584 172.117 39.4668L172.116 39.4677L170.879 40.0783C170.879 40.0969 170.878 40.1154 170.878 40.1363C170.992 40.7841 171.102 41.283 171.17 41.679C171.169 41.7278 171.186 41.7769 171.193 41.8235C171.192 41.8722 171.205 41.9235 171.213 41.9701C171.281 42.5172 170.51 43.4788 170.171 43.7355C169.968 43.9062 170.046 44.475 171.524 45.5247Z" fill="#EEC1BB"/>
<path d="M173.648 35.3017C174.004 37.5424 174.204 38.4796 173.365 39.8844C172.1 41.995 169.338 41.9964 168.324 39.9187C167.427 38.0451 166.985 34.7043 168.902 33.297C170.819 31.8898 173.289 33.0588 173.648 35.3017Z" fill="#EEC1BB"/>
<path d="M174.984 37.0335C174.846 37.5564 174.5 37.955 174.138 38.1575C173.594 38.462 173.038 37.6052 173.079 36.9664C173.116 36.3913 173.595 35.8874 174.194 35.8484C174.784 35.8099 175.142 36.4357 174.984 37.0335Z" fill="#EEC1BB"/>
<path opacity="0.2" d="M173.719 37.3052C173.693 37.3052 173.669 37.2869 173.664 37.2603C173.619 37.0321 173.666 36.79 173.795 36.5962C173.923 36.4023 174.128 36.2644 174.356 36.218C174.385 36.2116 174.416 36.2314 174.422 36.2617C174.428 36.2919 174.409 36.3214 174.378 36.3277C174.179 36.3682 174 36.4886 173.888 36.658C173.776 36.8274 173.734 37.0389 173.774 37.2383C173.78 37.2686 173.76 37.2981 173.73 37.3041C173.726 37.3049 173.722 37.3052 173.719 37.3052Z" fill="black"/>
<path d="M170.916 36.7916C170.968 37.0279 170.894 37.2538 170.75 37.296C170.605 37.3383 170.446 37.1811 170.394 36.9448C170.341 36.7086 170.416 36.4827 170.56 36.4405C170.704 36.3982 170.864 36.5554 170.916 36.7916Z" fill="#263238"/>
<path d="M168.739 37.3747C168.79 37.6038 168.714 37.8237 168.57 37.8659C168.426 37.9081 168.269 37.7566 168.219 37.5275C168.168 37.2985 168.244 37.0785 168.388 37.0364C168.532 36.9941 168.689 37.1457 168.739 37.3747Z" fill="#263238"/>
<path d="M171.156 35.8545C171.128 35.8653 171.098 35.8648 171.071 35.8506C170.646 35.6281 170.293 35.8422 170.289 35.8446C170.237 35.8765 170.171 35.86 170.142 35.8056C170.113 35.7513 170.133 35.6809 170.186 35.6479C170.204 35.6366 170.647 35.3674 171.174 35.6438C171.226 35.6713 171.246 35.74 171.217 35.7972C171.204 35.8246 171.181 35.8445 171.156 35.8545Z" fill="#263238"/>
<path d="M167.708 36.4655C167.684 36.464 167.661 36.4525 167.645 36.431C167.611 36.3865 167.618 36.3164 167.661 36.2745C168.088 35.8546 168.52 35.9688 168.539 35.9741C168.59 35.9885 168.618 36.0481 168.6 36.1076C168.583 36.1669 168.527 36.2033 168.476 36.1893C168.459 36.1845 168.123 36.1016 167.783 36.4356C167.761 36.4572 167.734 36.4671 167.708 36.4655Z" fill="#263238"/>
<path d="M169.301 37.1064C169.301 37.1064 169.18 38.0254 168.93 38.6454C168.887 38.7537 168.964 38.8736 169.081 38.8839C169.38 38.9103 169.674 38.7333 169.674 38.7333L169.301 37.1064Z" fill="#D4827D"/>
<path d="M170.645 36.4277L170.107 36.4453C170.107 36.4453 170.486 36.7477 170.645 36.4277Z" fill="#263238"/>
<path d="M168.441 37.0273L167.903 37.0449C167.903 37.0449 168.282 37.3473 168.441 37.0273Z" fill="#263238"/>
<path d="M172.975 35.9862C172.975 35.9862 171.435 34.7619 171.168 33.5231C171.168 33.5231 166.422 33.342 167.56 37.2022C167.56 37.2022 165.954 33.9773 169.58 32.7427C173.205 31.5081 174.861 36.235 173.48 38.2391C173.471 38.2227 173.93 36.755 172.975 35.9862Z" fill="#263238"/>
<path d="M167.974 33.5393C167.569 34.0993 167.353 34.7737 167.357 35.4646C167.446 35.9502 168.171 36.1807 168.171 36.1807L168.785 34.9749L168.955 35.905C170.25 35.5191 170.887 34.678 171.155 33.5823L170.178 32.4004C170.178 32.4004 168.343 33.0791 167.974 33.5393Z" fill="#263238"/>
<path d="M170.674 39.1963C170.646 39.1963 170.619 39.1941 170.591 39.1897C170.561 39.1847 170.54 39.156 170.545 39.1255C170.55 39.0953 170.578 39.0741 170.609 39.0794C170.74 39.1004 170.881 39.0562 170.976 38.9631C171.071 38.8703 171.119 38.7307 171.101 38.5989C171.097 38.5683 171.118 38.5402 171.149 38.536C171.183 38.5303 171.208 38.5534 171.212 38.5839C171.235 38.7501 171.174 38.926 171.054 39.0431C170.954 39.1409 170.814 39.1963 170.674 39.1963Z" fill="#263238"/>
<path d="M169.008 57.6377H178.556L178.815 58.8693C178.815 58.8693 182.323 63.7233 180.545 75.8281C180.545 75.8281 172.862 76.7156 165.627 75.164C165.627 75.164 167.251 62.7271 168.947 58.6671L169.008 57.6377Z" fill="#263238"/>
<path d="M178.074 53.8836L178.753 58.9611L168.286 58.5393C168.258 57.4485 169.231 54.5537 169.119 53.7622C168.801 52.7844 167.193 51.3087 166.765 50.1272C166.308 48.4867 167.251 43.9757 167.558 43.8326C167.931 43.6593 168.396 43.6749 168.681 43.5492C169.792 43.2878 172.32 42.3849 173.453 42.2441C173.672 42.2236 173.889 42.184 174.106 42.1589C174.106 42.1589 178.388 41.9528 178.578 43.6952C178.597 43.7921 177.557 48.3629 178.074 53.8836Z" fill="#FFC100"/>
<path opacity="0.2" d="M173.433 57.3381C173.573 57.3198 174.816 55.9696 174.816 55.9696L178.371 56.1042L178.199 54.8186C178.305 54.7353 174.044 54.9296 174.044 54.9296L173.433 56.2565V57.3381Z" fill="black"/>
<path d="M176.961 42.5639C177.144 42.5867 177.888 42.1652 179.232 43.8912C180.576 45.6172 182.083 52.1972 182.168 53.1573C182.276 54.3765 181.463 54.9776 180.653 55.1114C178.222 55.5127 173.736 55.5936 173.736 55.5936V53.5269L178.212 52.5134C178.212 52.5134 175.672 46.3978 176.073 44.8222C176.474 43.2467 176.961 42.5639 176.961 42.5639Z" fill="#FFC100"/>
<path d="M174.947 42.1531C174.624 43.91 173.31 45.289 171.58 45.7346C170.973 45.8804 170.295 45.5447 169.815 45.1471C169.329 44.7414 169.006 44.1742 168.904 43.5492C171.01 42.7187 172.919 42.0063 174.947 42.1531Z" fill="#EEC1BB"/>
<path opacity="0.2" d="M178.212 52.5141C178.212 52.5141 178.94 52.4729 179.248 52.8696C179.248 52.8696 179.063 52.1094 178.112 52.2691L178.212 52.5141Z" fill="black"/>
<path d="M172.29 65.7745V42.7285H149.277V51.9364C149.694 52.0949 151.057 52.1993 151.471 52.0449C152.198 51.7742 151.724 50.9373 152.425 50.6071C153.46 50.1199 154.749 50.8065 155.291 51.8134C155.712 52.5944 155.791 53.0035 155.752 53.6783C155.791 54.3531 155.712 54.7621 155.291 55.5432C154.749 56.55 153.46 57.2366 152.425 56.7495C151.724 56.4193 152.294 55.6032 151.568 55.3325C151.153 55.1781 149.694 55.2616 149.277 55.4201V65.7745H159.568C159.58 65.9992 159.555 66.224 159.475 66.4372C159.204 67.1636 158.432 67.5957 158.102 68.297C157.615 69.3317 158.302 70.6208 159.309 71.1631C160.09 71.5838 160.499 71.6628 161.173 71.6242C161.848 71.6628 162.257 71.5838 163.038 71.1631C164.045 70.6208 164.732 69.3317 164.245 68.297C163.914 67.5957 163.142 67.1636 162.872 66.4372C162.792 66.224 162.767 65.9992 162.779 65.7745H172.29Z" fill="#FFC100"/>
<path d="M173.434 65.7745V42.7285H150.42V51.9364C150.838 52.0949 151.294 52.1344 151.709 51.98C152.435 51.7093 152.867 50.9373 153.568 50.6071C154.603 50.1199 155.892 50.8065 156.435 51.8134C156.855 52.5944 156.934 53.0035 156.896 53.6783C156.934 54.3531 156.855 54.7621 156.435 55.5432C155.892 56.55 154.603 57.2366 153.568 56.7495C152.867 56.4193 152.435 55.6472 151.709 55.3766C151.294 55.2222 150.838 55.2616 150.42 55.4201V65.7745H160.712C160.724 65.9992 160.698 66.224 160.619 66.4372C160.348 67.1636 159.576 67.5957 159.246 68.297C158.759 69.3317 159.445 70.6208 160.452 71.1631C161.233 71.5838 161.642 71.6628 162.317 71.6242C162.992 71.6628 163.401 71.5838 164.182 71.1631C165.189 70.6208 165.875 69.3317 165.388 68.297C165.058 67.5957 164.286 67.1636 164.015 66.4372C163.936 66.224 163.91 65.9992 163.922 65.7745H173.434Z" fill="#FFC100"/>
<g opacity="0.3">
<path d="M173.434 65.7745V42.7285H150.421V51.9364C150.838 52.0949 151.295 52.1344 151.709 51.98C152.435 51.7093 152.868 50.9373 153.569 50.6071C154.604 50.1199 155.893 50.8065 156.435 51.8134C156.856 52.5944 156.935 53.0035 156.896 53.6783C156.935 54.3531 156.856 54.7621 156.435 55.5432C155.893 56.55 154.604 57.2366 153.569 56.7495C152.868 56.4193 152.435 55.6472 151.709 55.3766C151.295 55.2222 150.838 55.2616 150.421 55.4201V65.7745H160.712C160.724 65.9992 160.699 66.224 160.619 66.4372C160.349 67.1636 159.576 67.5957 159.246 68.297C158.759 69.3317 159.446 70.6208 160.453 71.1631C161.234 71.5838 161.643 71.6628 162.317 71.6242C162.992 71.6628 163.401 71.5838 164.182 71.1631C165.189 70.6208 165.876 69.3317 165.389 68.297C165.058 67.5957 164.286 67.1636 164.016 66.4372C163.936 66.224 163.911 65.9992 163.923 65.7745H173.434Z" fill="white"/>
</g>
<path d="M173.434 53.9307C173.434 53.9307 171.889 54.3168 171.72 54.6802C171.55 55.0437 172.122 55.0159 172.122 55.0159C172.122 55.0159 171.495 55.0851 171.488 55.3553C171.48 55.6795 172.079 55.6477 172.079 55.6477C172.079 55.6477 171.569 55.7252 171.58 55.9659C171.59 56.2156 172.269 56.2276 172.269 56.2276C172.269 56.2276 171.92 56.3501 172.022 56.5134C172.124 56.6767 173.563 56.7301 173.986 56.4608C174.41 56.1915 174.412 54.3424 174.329 53.9389C174.247 53.5354 173.94 53.3178 173.434 52.7051V53.9307Z" fill="#EEC1BB"/>
<path opacity="0.2" d="M172.123 55.0463L172.126 55.046L173.213 54.8729C173.228 54.8706 173.238 54.8552 173.235 54.8387C173.233 54.8221 173.219 54.8104 173.205 54.8128L172.118 54.9859C172.103 54.9883 172.093 55.0036 172.095 55.0202C172.097 55.0358 172.11 55.047 172.123 55.0463Z" fill="black"/>
<path opacity="0.2" d="M172.112 55.6769L172.112 55.6769L173.17 55.5937C173.185 55.5925 173.196 55.5781 173.194 55.5614C173.193 55.5446 173.183 55.5347 173.166 55.5332L172.108 55.6164C172.093 55.6176 172.082 55.632 172.084 55.6487C172.085 55.6652 172.097 55.6776 172.112 55.6769Z" fill="black"/>
<path opacity="0.2" d="M172.306 56.2563L173.094 56.2169C173.108 56.2162 173.12 56.202 173.119 56.1853C173.118 56.1686 173.105 56.1556 173.091 56.1563L172.303 56.1956C172.288 56.1964 172.277 56.2106 172.278 56.2273C172.279 56.244 172.291 56.257 172.306 56.2563Z" fill="black"/>
<path d="M155.768 53.3201C155.768 53.3201 157.422 53.7825 157.592 54.1459C157.761 54.5094 157.189 54.4816 157.189 54.4816C157.189 54.4816 157.816 54.5509 157.823 54.821C157.831 55.1453 157.232 55.1134 157.232 55.1134C157.232 55.1134 157.742 55.1909 157.731 55.4316C157.721 55.6813 157.043 55.6934 157.043 55.6934C157.043 55.6934 157.391 55.8158 157.289 55.9792C157.187 56.1424 155.748 56.1959 155.325 55.9266C154.901 55.6573 154.899 53.8082 154.982 53.4047C155.065 53.0012 155.098 53.0678 155.605 52.4551L155.697 52.7981C155.722 52.8914 155.739 52.9867 155.747 53.0829L155.768 53.3201Z" fill="#EEC1BB"/>
<path opacity="0.2" d="M157.187 54.5121L157.185 54.5118L156.098 54.3388C156.083 54.3364 156.073 54.321 156.075 54.3045C156.078 54.288 156.092 54.2762 156.106 54.2787L157.193 54.4517C157.208 54.4541 157.218 54.4694 157.215 54.486C157.213 54.5016 157.201 54.5128 157.187 54.5121Z" fill="black"/>
<path opacity="0.2" d="M157.199 55.1418L157.198 55.1418L156.141 55.0586C156.126 55.0574 156.115 55.0429 156.117 55.0263C156.118 55.0095 156.128 54.9995 156.145 54.998L157.203 55.0812C157.218 55.0824 157.229 55.0969 157.227 55.1135C157.226 55.1301 157.214 55.1425 157.199 55.1418Z" fill="black"/>
<path opacity="0.2" d="M157.005 55.7221L156.217 55.6827C156.202 55.682 156.191 55.6678 156.192 55.6511C156.193 55.6344 156.205 55.6214 156.22 55.6221L157.008 55.6615C157.022 55.6622 157.034 55.6764 157.033 55.6931C157.032 55.7098 157.019 55.7228 157.005 55.7221Z" fill="black"/>
<path d="M77.5621 114.364C77.5621 114.364 84.3083 144.155 87.5234 170.104C88.5034 178.013 88.6901 188.589 86.9588 196.376L73.9559 261.018L57.5935 259.379C60.165 231.5 63.7483 197.115 64.7747 182.486C61.1756 165.342 53.5063 144.589 45.9661 123.951L77.5621 114.364Z" fill="#949494"/>
<g opacity="0.2">
<path d="M77.5623 114.364C77.5623 114.364 84.3085 144.155 87.5237 170.104C88.5036 178.013 88.6903 188.589 86.959 196.376L73.9562 261.018L57.5938 259.379C60.1652 231.5 63.7485 197.115 64.7749 182.486C61.1758 165.342 53.5065 144.589 45.9663 123.951L77.5623 114.364Z" fill="black"/>
</g>
<path d="M23.7967 187.691C24.1668 186.079 24.7578 182.804 25.4834 178.485C25.4615 178.48 25.4371 178.475 25.4157 178.47C25.9474 172.758 26.931 146.263 28.738 129.364C30.1268 118.6 32.8781 111.315 35.648 107.748C35.7908 107.565 35.9216 107.399 36.0406 107.25C36.5007 106.676 36.7801 106.36 36.7801 106.36C37.3068 106.492 37.8301 106.614 38.351 106.728C38.546 106.771 38.7397 106.813 38.9325 106.853C58.4908 110.942 75.7021 105.802 75.7021 105.802C77.5023 110.248 78.8474 119.729 80.1608 129.561C78.115 131.806 69.137 134.719 58.837 136.649L55.8999 149.933C54.3544 158.169 52.37 166.247 50.6844 173.521L48.923 181.487C48.8159 182.009 48.711 182.528 48.6118 183.036C47.7181 187.616 26.4522 261.406 26.4522 261.406L12.5974 260.594C12.5974 260.594 18.786 209.524 23.7967 187.691Z" fill="#949494"/>
<path opacity="0.2" d="M23.7967 187.691C24.1668 186.079 24.7578 182.804 25.4834 178.485C25.4615 178.48 25.4371 178.475 25.4157 178.47C25.9474 172.758 26.931 146.263 28.738 129.364C30.1268 118.6 32.8781 111.315 35.648 107.748C35.7908 107.565 35.9216 107.399 36.0406 107.25C36.5007 106.676 36.7801 106.36 36.7801 106.36C37.3068 106.492 37.8301 106.614 38.351 106.728C38.546 106.771 38.7397 106.813 38.9325 106.853C58.4908 110.942 75.7021 105.802 75.7021 105.802C77.5023 110.248 78.8474 119.729 80.1608 129.561C78.115 131.806 69.137 134.719 58.837 136.649L55.8999 149.933C54.3544 158.169 52.37 166.247 50.6844 173.521L48.923 181.487C48.8159 182.009 48.711 182.528 48.6118 183.036C47.7181 187.616 26.4522 261.406 26.4522 261.406L12.5974 260.594C12.5974 260.594 18.786 209.524 23.7967 187.691Z" fill="black"/>
<path opacity="0.2" d="M55.7109 151.16C55.6569 151.432 62.0561 128.172 62.0561 128.172C62.0561 128.172 67.4435 148.938 59.2461 161.927L55.7109 151.16Z" fill="black"/>
<path d="M41.9415 46.2204C41.9415 46.2204 45.1955 48.7224 49.3852 52.3327C50.2578 53.0849 51.2188 53.7354 52.2363 54.2759C54.9817 55.734 57.4843 56.5683 58.1619 55.2447C58.3126 54.9537 58.4285 54.6384 58.5144 54.3079C59.0897 52.0915 58.8538 48.9756 57.0622 47.5496C55.0421 45.9417 54.0681 44.5661 54.4324 42.3897C54.6235 41.1556 55.0701 39.8819 55.592 38.6446L54.0025 36.7862L45.6886 28.3955C45.8965 33.9983 46.3207 43.1791 41.9415 46.2204Z" fill="#EEC1BB"/>
<path opacity="0.2" d="M54.3654 42.8668C52.0788 41.5094 49.5701 39.1551 49.8708 36.4651C50.0049 35.3325 50.2491 34.2592 50.5205 33.5713L55.1648 39.7203C54.7836 40.7114 54.6443 41.3666 54.3654 42.8668Z" fill="black"/>
<path d="M43.3355 19.3937C44.1181 27.9361 44.269 31.5586 48.6771 36.0378C55.3078 42.7752 65.5087 40.5088 67.2648 32.0416C68.8455 24.4205 67.3002 11.7316 58.9141 8.14134C50.6519 4.60445 42.5532 10.8513 43.3355 19.3937Z" fill="#EEC1BB"/>
<path d="M53.9757 22.0869C54.0202 22.8867 54.5117 23.5445 55.0735 23.5562C55.6352 23.568 56.0544 22.9294 56.01 22.1297C55.9656 21.3301 55.4742 20.6722 54.9125 20.6603C54.3508 20.6485 53.9315 21.2872 53.9757 22.0869Z" fill="#263238"/>
<path d="M62.8277 21.9659C62.8726 22.7407 63.363 23.3786 63.9231 23.3905C64.4831 23.4022 64.9009 22.7837 64.856 22.0086C64.811 21.2339 64.3208 20.5959 63.7606 20.5842C63.2006 20.5723 62.783 21.1909 62.8277 21.9659Z" fill="#263238"/>
<path d="M52.6172 19.0262C52.726 19.0383 52.8366 19.0067 52.921 18.9287C54.237 17.7103 55.7187 18.1381 55.7359 18.1431C55.9555 18.207 56.1777 18.0827 56.228 17.8586C56.2777 17.6349 56.1382 17.3997 55.9159 17.3324C55.8383 17.3095 53.9788 16.7706 52.3457 18.2834C52.1831 18.4342 52.1798 18.7012 52.3383 18.8795C52.415 18.9651 52.5155 19.0148 52.6172 19.0262Z" fill="#263238"/>
<path d="M65.5617 18.6013C65.6626 18.6259 65.77 18.6131 65.8611 18.5562C66.0494 18.4387 66.0982 18.1798 65.9709 17.9782C64.692 15.9563 62.7906 15.8333 62.7093 15.8297C62.4818 15.8177 62.3009 15.9966 62.3053 16.2299C62.3092 16.4626 62.4967 16.6609 62.7235 16.674C62.798 16.6777 64.2724 16.7951 65.2889 18.4029C65.3548 18.5069 65.4547 18.5755 65.5617 18.6013Z" fill="#263238"/>
<path d="M46.975 24.7531C46.975 24.7531 49.6107 20.7689 48.5248 13.0102C48.3427 11.7095 49.1656 10.4779 50.455 10.2275C54.1402 9.51169 59.0677 4.86292 65.0796 14.0961C65.0796 14.0961 62.2125 3.03585 45.427 7.4915C30.4889 11.4567 40.7164 24.1176 42.2569 25.4199C43.7975 26.7222 46.975 24.7531 46.975 24.7531Z" fill="#263238"/>
<path d="M40.7507 26.3556C41.7595 28.1076 43.3992 29.2077 44.9025 29.5848C47.1636 30.1518 48.3312 26.5164 47.5595 24.251C46.8645 22.2118 44.6428 20.8619 42.4422 21.3065C40.2743 21.7447 39.597 24.3525 40.7507 26.3556Z" fill="#EEC1BB"/>
<path d="M60.6752 30.3109C59.9798 31.3814 59.1438 33.4556 59.1438 33.4556C58.9421 33.4137 58.7406 33.372 58.5418 33.3196C55.8224 32.6832 54.7708 31.4893 54.4301 30.359C54.246 29.7399 54.2823 29.1341 54.3747 28.655C54.4759 28.0995 54.6744 27.7266 54.6744 27.7266C55.9147 28.9252 58.4044 29.7138 59.7516 30.0795C60.3141 30.2385 60.6752 30.3109 60.6752 30.3109Z" fill="#263238"/>
<path d="M59.7521 30.0795L59.2766 30.9949C56.7165 30.3891 54.9955 29.6192 54.3751 28.655C54.4763 28.0995 54.6749 27.7266 54.6749 27.7266C55.9152 28.9252 58.4048 29.7138 59.7521 30.0795Z" fill="white"/>
<path d="M58.5422 33.32C55.8227 32.6836 54.7712 31.4897 54.4304 30.3594C55.3489 30.612 56.4281 31.0188 57.3102 31.6646C57.9867 32.1557 58.3442 32.7534 58.5422 33.32Z" fill="#DC5753"/>
<path d="M60.5322 21.7324C60.5322 21.7324 61.8686 24.9299 63.3763 26.9233C63.6398 27.2717 63.4767 27.7802 63.0669 27.931C62.012 28.3193 60.7775 27.9679 60.7775 27.9679L60.5322 21.7324Z" fill="#D4827D"/>
<path d="M54.7413 20.6409L56.702 20.1777C56.702 20.1777 55.6298 21.6398 54.7413 20.6409Z" fill="#263238"/>
<path d="M63.5592 20.6048L65.5197 20.1416C65.5197 20.1416 64.4476 21.6036 63.5592 20.6048Z" fill="#263238"/>
<path d="M66.5741 17.7092C66.5741 17.7092 71.7475 11.5889 68.2957 6.54383C66.9986 4.6479 64.6168 4.36526 62.5148 3.43902C57.6646 1.30213 53.7336 0.870449 47.5436 6.93701C41.1036 13.2487 39.9385 15.3741 47.0419 23.1504C47.0419 23.1504 46.2752 22.1335 48.9013 19.8201C51.5273 17.5066 54.4258 15.4483 53.0186 13.2047C53.0186 13.2047 55.2018 14.0468 55.3581 16.1243L59.1982 15.0757C59.1982 15.0757 59.0314 13.5908 58.0154 12.1057C58.0154 12.1057 60.0057 13.2782 60.6517 14.9974L63.9739 15.6227C63.9739 15.6227 63.4861 12.5746 62.5482 11.4805C62.5482 11.4805 65.5916 14.6095 66.5741 17.7092Z" fill="#263238"/>
<path opacity="0.2" d="M45.8266 26.3042C45.7246 26.3042 45.6375 26.226 45.6285 26.1224C45.562 25.3666 45.2082 24.633 44.6579 24.11C44.1084 23.5873 43.3576 23.2713 42.5987 23.2432C42.4886 23.239 42.403 23.1467 42.4069 23.0366C42.4111 22.9268 42.4847 22.8545 42.6135 22.8447C43.4682 22.8766 44.3135 23.2324 44.9327 23.8212C45.5522 24.41 45.9508 25.2363 46.0255 26.0874C46.0352 26.1972 45.9539 26.2937 45.8445 26.3034L45.8266 26.3042Z" fill="black"/>
<path d="M86.4405 96.9891C85.9595 96.6187 85.5037 96.2089 85.077 95.7632C84.7142 95.3831 84.4613 94.8927 84.5493 94.8927C84.5302 94.8382 84.5082 94.7849 84.4833 94.7333L84.3293 94.3778L83.9554 93.4215C83.7026 92.7349 83.4607 91.9871 83.2188 91.227C82.713 89.719 82.2402 88.1497 81.7783 86.5682C80.8437 83.3928 79.953 80.1807 79.0513 76.9563L77.3969 70.1967C77.1573 69.1015 76.786 67.506 76.2928 65.6851L76.2914 65.6797C74.9463 60.7148 72.6982 54.0919 69.7591 51.4586C65.1962 47.9675 62.2837 52.2744 60.4054 56.752C58.603 61.0494 63.0521 72.7935 63.0521 72.7935L68.4726 72.4018C69.1579 74.9008 69.8766 77.3862 70.5845 79.9232C71.5081 83.2334 72.6077 86.4823 73.7073 89.7312C74.2681 91.3618 74.8509 92.9924 75.4886 94.6353C75.8625 95.4689 76.2034 96.2904 76.5883 97.1607C76.7752 97.5899 76.9842 98.0436 77.2151 98.4972L77.6219 99.2572C77.7927 99.5746 77.9838 99.8778 78.1937 100.164C78.9973 101.199 79.9861 102.034 81.0966 102.617C81.9519 103.096 82.8516 103.47 83.7795 103.732C85.4693 104.221 87.2142 104.432 88.9587 104.357L89.9373 99.6251C88.7717 98.7546 87.4852 97.8473 86.4405 96.9891Z" fill="#E1E1E1"/>
<g opacity="0.3">
<path d="M70.7603 59.0879C71.6759 60.6521 71.9902 61.5429 72.564 63.3448C73.1377 65.1467 73.7876 74.8798 70.502 77.7568V71.0088C70.6218 66.8744 70.6403 63.2222 70.7603 59.0879Z" fill="black"/>
</g>
<path d="M30.3417 71.3966L25.2533 54.0462C28.4723 49.2421 44.3991 45.5508 44.3991 45.5508L52.5619 48.4153L54.8922 46.1244C54.8922 46.1244 58.9251 47.0242 62.378 48.1502C66.9875 49.6534 69.4802 50.8626 70.5792 53.4202C70.5792 53.4202 72.5025 59.0872 71.346 70.7649C71.028 73.9761 71.3887 90.6705 72.2852 96.1856L77.7162 113.376C58.5436 128.307 31.7063 114.364 31.7063 114.364C32.5681 111.728 35.4399 103.633 35.8295 101.056C35.5482 97.769 35.9398 92.7001 34.5475 86.9443C34.2788 85.8333 30.8084 72.476 30.3417 71.3966Z" fill="#E1E1E1"/>
<path d="M88.5889 90.0828C89.1855 82.8625 94.753 77.0444 101.94 76.1309L100.469 78.5828L103.276 76.9155L90.4034 93.062L88.5889 90.0828Z" fill="#FFC100"/>
<path opacity="0.8" d="M88.5889 90.0828C89.1855 82.8625 94.753 77.0444 101.94 76.1309L100.469 78.5828L103.276 76.9155L90.4034 93.062L88.5889 90.0828Z" fill="white"/>
<path d="M68.421 76.8293L72.8467 76.6943L94.032 83.8787L74.7225 113.376L55.7195 108.632C54.6363 108.332 54.0014 107.21 54.3016 106.127C54.3463 105.966 54.4107 105.81 54.4934 105.665L62.1683 91.7865C62.321 91.5121 62.321 91.1782 62.1683 90.9038L61.1261 89.0525C60.9071 88.6732 60.9071 88.2058 61.1261 87.8264L66.2754 78.1779C66.7116 77.3898 67.5216 76.8807 68.421 76.8293Z" fill="#FFC100"/>
<path d="M94.309 83.7483L106.373 76L86.5362 105.473L74.9995 113.246L94.309 83.7483Z" fill="#CC9A00"/>
<path d="M91.6639 97.5859C91.6639 97.5859 86.9756 96.3571 85.9452 97.1611C84.9149 97.9651 86.3251 98.7292 86.3251 98.7292C86.3251 98.7292 84.7113 98.0032 84.2296 98.7771C83.6514 99.7059 85.1332 100.499 85.1332 100.499C85.1332 100.499 83.7848 99.97 83.3941 100.683C82.9887 101.423 84.5844 102.461 84.5844 102.461C84.5844 102.461 83.5425 102.301 83.5034 102.925C83.4645 103.549 86.802 105.832 88.2766 105.677C89.7512 105.522 92.9449 100.162 93.4442 98.8692C93.9434 97.5766 93.8919 96.57 92.9448 95.6709L91.6639 97.5859Z" fill="#EEC1BB"/>
<path opacity="0.2" d="M86.2758 98.8188L86.2825 98.8219L89.1724 99.9272C89.2112 99.9418 89.2617 99.9122 89.2849 99.861C89.308 99.8095 89.2944 99.7544 89.2568 99.7408L86.3668 98.6356C86.3279 98.621 86.2775 98.6505 86.2544 98.7017C86.2324 98.7502 86.2423 98.8007 86.2758 98.8188Z" fill="black"/>
<path opacity="0.2" d="M85.1605 100.631L85.1622 100.631L87.8263 101.953C87.8635 101.972 87.9145 101.946 87.9403 101.896C87.9664 101.845 87.9582 101.801 87.9202 101.771L85.2561 100.449C85.2189 100.431 85.168 100.457 85.1421 100.507C85.1164 100.557 85.1248 100.611 85.1605 100.631Z" fill="black"/>
<path opacity="0.2" d="M84.6244 102.599L86.5694 103.649C86.6058 103.669 86.6573 103.645 86.684 103.595C86.7108 103.545 86.7032 103.489 86.6668 103.469L84.7218 102.419C84.6853 102.399 84.634 102.424 84.6071 102.473C84.5802 102.523 84.5879 102.58 84.6244 102.599Z" fill="black"/>
<path d="M57.9003 46.8599L54.3623 43.433L52.5617 48.4162L44.7012 42.1514L40.7148 46.5236L50.5875 53.403L52.5617 49.0343L57.9003 53.039V46.8599Z" fill="#B6B6B6"/>
<path opacity="0.3" d="M57.9001 46.8604C58.1507 47.2458 57.9001 53.0395 57.9001 53.0395L52.5614 49.0347L50.5873 53.4035L41.1005 46.8604L50.8108 55.3208L52.5614 50.1842L58.5153 55.3208L57.9001 46.8604Z" fill="black"/>
<path opacity="0.3" d="M62.9516 73.7312L35.7589 99.9317V94.7538C35.7589 94.7538 60.2362 72.3317 60.533 72.2994C60.8298 72.267 62.9516 73.7312 62.9516 73.7312Z" fill="black"/>
<path opacity="0.3" d="M37.4118 75.8049L34.4664 63.6572L33.8829 77.7572L37.4118 75.8049Z" fill="black"/>
<path d="M25.2522 54.0469C25.2522 54.0469 21.5754 57.6264 20.3379 69.8382C19.4498 78.6032 17.2039 97.5044 24.0155 99.9315C30.8271 102.359 60.5322 73.9586 60.5322 73.9586L55.71 65.6807L33.8819 77.7568C33.8819 77.7568 36.1075 57.7368 32.2603 55.9069C28.4131 54.0771 25.2522 54.0469 25.2522 54.0469Z" fill="#E1E1E1"/>
<path d="M57.5748 65.0664C57.5748 65.0664 60.4405 59.3279 61.8004 59.0748C63.1604 58.8217 64.2557 59.2757 64.2557 59.2757C64.2557 59.2757 73.5167 53.8196 74.1332 55.2554C74.4668 56.0324 72.4102 57.7446 67.9956 60.2631C67.9956 60.2631 70.5377 61.1988 69.5131 62.6886C69.5131 62.6886 71.3845 63.547 70.386 65.4066C70.386 65.4066 71.245 67.0493 70.1649 68.0983C69.0848 69.1471 63.9965 72.043 61.0499 72.4752C58.1033 72.9073 56.3851 67.1812 56.3851 67.1812L57.5748 65.0664Z" fill="#EEC1BB"/>
<path d="M180.005 85.116L187.883 82.089L192.43 77.6808C192.556 77.5346 193.875 75.2607 193.875 75.2607L196.107 80.0414C196.107 80.0414 190.557 85.6179 188.525 86.2672C186.882 86.7919 181.066 88.2169 181.066 88.2169L180.005 85.116Z" fill="#FFC100"/>
<path opacity="0.4" d="M184.834 87.2717C184.834 87.2717 185.784 83.5485 187.907 82.7741C190.03 81.9996 192.774 83.2142 192.696 83.2666C192.617 83.319 190.318 85.4594 190.239 85.4856C190.181 85.5051 187.258 86.5353 185.746 87.035L184.834 87.2717Z" fill="black"/>
<path d="M170.532 82.0723C170.52 82.297 170.546 82.5218 170.625 82.735C170.896 83.4613 171.668 83.8935 171.998 84.5948C172.485 85.6295 171.798 86.9186 170.792 87.4609C170.011 87.8816 169.601 87.9606 168.927 87.922C168.252 87.9606 167.843 87.8816 167.062 87.4609C166.055 86.9186 165.368 85.6295 165.855 84.5948C166.186 83.8935 166.958 83.4613 167.228 82.735C167.308 82.5218 167.333 82.297 167.321 82.0723H157.049V92.4266C156.632 92.5851 156.175 92.6245 155.761 92.4702C155.034 92.1995 154.602 91.4274 153.901 91.0973C152.866 90.6101 151.577 91.2967 151.035 92.3036C150.614 93.0846 150.535 93.4936 150.574 94.1685C150.535 94.8433 150.614 95.2523 151.035 96.0334C151.577 97.0402 152.866 97.7268 153.901 97.2396C154.602 96.9094 155.034 96.1374 155.761 95.8668C156.175 95.7124 156.632 95.7518 157.049 95.9103V105.118L180.015 105.221V82.1749L170.532 82.0723Z" fill="#263238"/>
<g opacity="0.4">
<path d="M170.532 82.0723C170.52 82.297 170.545 82.5218 170.625 82.735C170.895 83.4613 171.667 83.8935 171.998 84.5948C172.485 85.6295 171.798 86.9186 170.791 87.4609C170.01 87.8816 169.601 87.9606 168.926 87.922C168.252 87.9606 167.843 87.8816 167.062 87.4609C166.055 86.9186 165.368 85.6295 165.855 84.5948C166.185 83.8935 166.957 83.4613 167.228 82.735C167.308 82.5218 167.333 82.297 167.321 82.0723H157.049V92.4266C156.632 92.5851 156.175 92.6245 155.761 92.4702C155.034 92.1995 154.602 91.4274 153.901 91.0973C152.866 90.6101 151.577 91.2967 151.035 92.3036C150.614 93.0846 150.535 93.4936 150.574 94.1685C150.535 94.8433 150.614 95.2523 151.035 96.0334C151.577 97.0402 152.866 97.7268 153.901 97.2396C154.602 96.9094 155.034 96.1374 155.761 95.8668C156.175 95.7124 156.632 95.7518 157.049 95.9103V105.118L180.015 105.221V82.1749L170.532 82.0723Z" fill="black"/>
</g>
<path d="M171.549 82.0723C171.536 82.297 171.562 82.5218 171.642 82.735C171.912 83.4613 172.684 83.8935 173.014 84.5948C173.502 85.6295 172.815 86.9186 171.808 87.4609C171.027 87.8816 170.618 87.9606 169.943 87.922C169.268 87.9606 168.859 87.8816 168.078 87.4609C167.072 86.9186 166.385 85.6295 166.872 84.5948C167.202 83.8935 167.974 83.4613 168.245 82.735C168.324 82.5218 168.35 82.297 168.338 82.0723H158.066V92.4266C157.649 92.5851 157.192 92.6245 156.777 92.4702C156.051 92.1995 155.619 91.4274 154.918 91.0973C153.883 90.6101 152.594 91.2967 152.052 92.3036C151.631 93.0846 151.552 93.4936 151.59 94.1685C151.552 94.8433 151.631 95.2523 152.052 96.0334C152.594 97.0402 153.883 97.7268 154.918 97.2396C155.619 96.9094 156.051 96.1374 156.777 95.8668C157.192 95.7124 157.649 95.7518 158.066 95.9103V105.118L181.032 105.221V82.1749L171.549 82.0723Z" fill="#263238"/>
<path d="M187.724 97.6072L191.336 97.3887C190.758 100.571 190.164 102.636 190.417 104.269L188.961 105.243L187.613 103.917C187.613 103.917 187.364 101.316 187.724 97.6072Z" fill="#E9B376"/>
<path d="M187.395 101.684L188.708 101.699C189.343 102.799 189.783 102.54 190.456 101.764C190.837 101.724 190.934 102.162 190.964 102.28L191.647 104.884C191.706 105.101 191.578 105.326 191.361 105.385C191.322 105.396 191.282 105.401 191.242 105.4C190.083 105.386 189.534 105.379 188.092 105.363L183.679 105.311C182.477 105.297 182.241 104.082 182.738 103.975C184.972 103.509 186.557 102.872 187.254 102.232C187.383 102.12 187.252 102.033 187.395 101.684Z" fill="#FFC100"/>
<path d="M187.529 103C187.51 103 187.491 102.991 187.481 102.973C187.315 102.703 187.029 102.514 186.716 102.468C186.685 102.463 186.664 102.435 186.669 102.404C186.673 102.374 186.7 102.352 186.732 102.357C187.078 102.409 187.394 102.617 187.576 102.915C187.592 102.941 187.584 102.976 187.558 102.992C187.549 102.997 187.539 103 187.529 103Z" fill="#263238"/>
<path d="M186.93 103.439C186.911 103.439 186.893 103.43 186.882 103.413C186.717 103.143 186.43 102.954 186.117 102.907C186.087 102.902 186.066 102.874 186.07 102.843C186.075 102.813 186.101 102.792 186.134 102.797C186.479 102.848 186.795 103.056 186.978 103.354C186.994 103.381 186.985 103.415 186.959 103.431C186.95 103.437 186.94 103.439 186.93 103.439Z" fill="#263238"/>
<path d="M186.187 103.807C186.168 103.807 186.15 103.797 186.14 103.78C185.974 103.51 185.688 103.321 185.374 103.274C185.344 103.27 185.323 103.241 185.327 103.211C185.332 103.18 185.358 103.159 185.391 103.164C185.736 103.215 186.052 103.423 186.235 103.721C186.251 103.748 186.243 103.782 186.216 103.798C186.207 103.804 186.197 103.807 186.187 103.807Z" fill="#263238"/>
<path opacity="0.7" d="M191.361 105.385C191.322 105.396 191.282 105.4 191.242 105.399C190.083 105.386 189.535 105.379 188.092 105.362L183.68 105.311C183.029 105.303 182.664 104.944 182.542 104.599C182.725 104.602 191.492 104.773 191.608 104.735L191.655 104.93C191.686 105.132 191.563 105.33 191.361 105.385Z" fill="white"/>
<path d="M201.559 88.0262C201.559 88.0262 191.693 82.9316 189.772 82.7864C187.851 82.6412 186.015 83.6815 185.648 87.659C185.281 91.6366 186.015 101.866 186.015 101.866L191.337 101.957L191.997 90.1065C191.997 90.1065 200.238 96.127 200.483 96.0658C200.728 96.0046 203.945 95.859 203.945 95.859L201.559 88.0262Z" fill="#263238"/>
<path opacity="0.3" d="M201.559 88.0262C201.559 88.0262 191.693 82.9316 189.772 82.7864C187.851 82.6412 186.015 83.6815 185.648 87.659C185.281 91.6366 186.015 101.866 186.015 101.866L191.337 101.957L191.997 90.1065C191.997 90.1065 200.238 96.127 200.483 96.0658C200.728 96.0046 203.945 95.859 203.945 95.859L201.559 88.0262Z" fill="white"/>
<path opacity="0.4" d="M191.694 95.6494C191.694 95.6494 187.347 97.1721 187.3 100.758C187.254 104.343 191.089 103.661 191.089 103.661L191.694 95.6494Z" fill="black"/>
<path d="M205.336 104.99L204.357 101.435C207.776 101.065 210.06 101.906 211.65 101.156L213.081 102.347L212.136 104.122C212.136 104.122 209.615 104.978 205.336 104.99Z" fill="#E9B376"/>
<path d="M212.371 89.9688L212.799 92.119C212.799 92.119 213.897 96.3844 212.358 98.5267C210.888 100.573 208.718 100.938 208.718 100.938L209.164 105.052L208.718 105.33C208.718 105.33 205.88 105.33 200.071 105.064C194.553 104.812 189.81 104.549 188.83 102.835C187.851 101.122 187.625 100.29 189.226 98.2459C190.673 96.3987 201.691 93.6777 202.074 93.5675L201.92 92.6288L201.741 91.964L212.371 89.9688Z" fill="#263238"/>
<path opacity="0.3" d="M212.371 89.9688L212.799 92.119C212.799 92.119 213.897 96.3844 212.358 98.5267C210.888 100.573 208.718 100.938 208.718 100.938L209.164 105.052L208.718 105.33C208.718 105.33 205.88 105.33 200.071 105.064C194.553 104.812 189.81 104.549 188.83 102.835C187.851 101.122 187.625 100.29 189.226 98.2459C190.673 96.3987 201.691 93.6777 202.074 93.5675L201.92 92.6288L201.741 91.964L212.371 89.9688Z" fill="white"/>
<path opacity="0.4" d="M208.718 100.938C208.379 101.027 196.412 100.641 196.412 100.641C196.412 100.641 199.949 101.247 202.565 101.468C205.181 101.688 208.718 100.938 208.718 100.938Z" fill="black"/>
<path opacity="0.4" d="M202.074 93.5671L208.965 92.3653C208.965 92.3653 203.998 92.2845 202.074 93.5671Z" fill="black"/>
<path d="M184.506 88.6877C184.506 88.6877 183.931 87.8027 183.075 87.6314C182.22 87.4601 181.582 87.0956 180.937 87.0122C180.292 86.9287 180.877 87.5829 181.259 87.868C181.641 88.153 182.071 88.48 181.81 88.732C181.55 88.984 178.528 89.7505 178.207 90.141C177.885 90.5316 178.413 90.5605 178.413 90.5605C178.413 90.5605 177.684 90.7664 177.687 91.0773C177.688 91.1581 177.821 91.3447 178.167 91.3029C178.948 91.2089 180.575 90.9273 180.575 90.9273C180.481 90.9416 178.497 91.4326 178.21 91.5449C177.834 91.6917 177.732 91.9526 177.824 92.1677C177.955 92.4739 180.436 91.949 180.556 92C180.556 92 179.118 92.2544 178.98 92.6616C178.843 93.0688 179.757 92.958 180.544 92.7073C181.266 92.4774 182.742 92.2154 183.454 91.9105C184.33 91.5348 184.834 91.0857 184.853 90.1918C184.872 89.2979 184.506 88.6877 184.506 88.6877Z" fill="#E9B376"/>
<path d="M183.561 88.6678L185.767 87.7852L186.529 90.1722L183.942 91.095L183.561 88.6678Z" fill="#E9B376"/>
<path d="M199.569 72.1597C199.569 72.1597 198.97 70.8062 199.097 68.1267C199.096 68.1241 198.95 68.0971 198.949 68.0945C198.965 67.7201 198.995 67.3708 199.028 67.0661C199.028 67.0574 199.028 67.0547 199.028 67.0547L196.107 69.9928C196.379 70.7748 196.462 72.3919 196.447 73.0867C196.447 73.0867 196.297 74.3744 197.885 74.0494C199.045 73.8118 199.569 72.1597 199.569 72.1597Z" fill="#E9B376"/>
<path opacity="0.2" d="M196.318 71.1333L198.184 70.2168C198.152 70.8731 197.783 71.73 196.424 72.1178C196.424 72.1178 196.397 71.3985 196.318 71.1333Z" fill="black"/>
<path d="M198.656 65.3837C198.945 67.6119 199.153 68.8627 198.254 70.1973C196.902 72.2048 194.054 71.7331 193.103 69.6299C192.246 67.7368 191.918 64.411 193.913 63.1395C195.879 61.8868 198.368 63.1556 198.656 65.3837Z" fill="#E9B376"/>
<path d="M197.798 62.25C196.767 61.0424 194.846 62.0998 194.116 62.8834C194.007 63.0005 195.982 63.5586 195.866 63.5398L196.49 64.0572C196.57 64.0223 196.737 64.7882 196.877 65.4516C197.007 66.0609 197.298 66.6219 197.722 67.0775C198.078 67.4591 198.555 67.9163 199.091 68.2872C199.787 67.7642 199.575 66.4174 199.664 65.5739C199.796 64.3172 199.767 61.9644 197.798 62.25Z" fill="#263238"/>
<path d="M199.879 67.0525C199.813 67.6534 199.473 68.165 199.078 68.4661C198.483 68.9191 198.1 68.2477 198.029 67.5419C197.965 66.9067 198 66.1109 198.711 65.9352C199.41 65.7622 199.956 66.3655 199.879 67.0525Z" fill="#E9B376"/>
<path d="M195.626 66.6268C195.67 66.8522 195.585 67.0567 195.437 67.0836C195.29 67.1106 195.135 66.9498 195.091 66.7244C195.048 66.4991 195.132 66.2945 195.28 66.2676C195.428 66.2406 195.583 66.4014 195.626 66.6268Z" fill="#263238"/>
<path d="M193.426 67.0966C193.469 67.3219 193.384 67.5264 193.237 67.5534C193.089 67.5803 192.934 67.4195 192.89 67.1941C192.847 66.9688 192.932 66.7642 193.079 66.7373C193.227 66.7104 193.382 66.8712 193.426 67.0966Z" fill="#263238"/>
<path d="M194.12 66.833C194.12 66.833 193.623 68.0901 193.482 68.59C193.85 68.813 194.365 68.5783 194.365 68.5783L194.12 66.833Z" fill="#D58745"/>
<path d="M195.973 65.4583C195.942 65.4787 195.901 65.4822 195.864 65.4638C195.436 65.245 195.089 65.4354 195.086 65.4373C195.034 65.4664 194.968 65.4484 194.939 65.3971C194.909 65.3458 194.927 65.2805 194.978 65.2514C194.997 65.241 195.431 65.0023 195.963 65.2739C196.016 65.301 196.037 65.3655 196.01 65.4179C196.001 65.435 195.988 65.4485 195.973 65.4583Z" fill="#263238"/>
<path d="M195.242 69.2384C195.202 69.2384 195.167 69.2102 195.16 69.1698C195.151 69.1242 195.181 69.0805 195.227 69.0719C195.525 69.0171 195.762 68.8385 196.019 68.475C196.046 68.437 196.098 68.4283 196.135 68.4547C196.174 68.4815 196.182 68.5337 196.156 68.5715C195.955 68.8557 195.692 69.1569 195.257 69.2371C195.252 69.238 195.247 69.2384 195.242 69.2384Z" fill="#263238"/>
<path opacity="0.2" d="M198.381 67.4491C198.352 67.4491 198.327 67.4269 198.325 67.3976C198.309 67.1938 198.347 66.9885 198.435 66.8037C198.495 66.6788 198.604 66.5123 198.785 66.4289C198.964 66.3472 199.175 66.376 199.299 66.5005C199.321 66.5224 199.321 66.5577 199.299 66.5796C199.277 66.6016 199.241 66.6012 199.22 66.5796C199.13 66.4892 198.967 66.4682 198.832 66.5304C198.681 66.5999 198.587 66.7436 198.536 66.8517C198.457 67.0188 198.422 67.2045 198.436 67.3889C198.439 67.4197 198.416 67.4465 198.385 67.4489L198.381 67.4491Z" fill="black"/>
<path d="M192.267 66.3326C192.246 66.3322 192.226 66.3258 192.208 66.3133C192.159 66.2792 192.146 66.2122 192.18 66.1636C192.515 65.6755 193.009 65.6897 193.031 65.6875C193.09 65.6896 193.137 65.7392 193.136 65.7985C193.135 65.8576 193.086 65.9039 193.027 65.9024C193.007 65.901 192.626 65.895 192.357 66.2867C192.336 66.3174 192.301 66.3334 192.267 66.3326Z" fill="#263238"/>
<path d="M197.798 62.249C197.798 62.249 196.426 60.554 194.054 61.1132C192.145 61.563 191.15 62.959 191.113 64.2946C191.097 64.8686 191.224 65.2956 191.375 65.5959C191.489 65.8228 191.815 65.7888 191.888 65.5457C191.908 65.4767 191.933 65.4088 191.962 65.3424C191.97 65.3575 191.978 65.3723 191.987 65.3868C192.126 65.6198 192.496 65.5341 192.502 65.2629C192.503 65.1772 192.513 65.0916 192.531 65.007L192.535 65.013C192.662 65.2174 192.981 65.1554 193.031 64.9201C193.256 63.882 194.521 63.1022 195.664 63.5664L196.489 64.0563C197.434 63.5037 197.798 62.249 197.798 62.249Z" fill="#263238"/>
<path opacity="0.4" d="M201.358 92.0268L201.227 92.8995L197.379 94.0577L198.266 94.6262L202.075 93.5675L202.232 91.8721L201.358 92.0268Z" fill="black"/>
<path d="M204.232 72.4328C202.504 71.325 199.46 71.8517 199.46 71.8517L193.874 75.2599L197.693 84.237C197.693 84.237 199.287 88.055 200.147 90.5976C200.36 91.2276 200.768 92.1063 201.427 92.0202L212.035 90.1023C212.554 90.0086 212.881 89.4914 212.741 88.9837C211.717 85.2846 205.78 73.4251 204.232 72.4328Z" fill="#FFC100"/>
<path opacity="0.4" d="M205.23 77.4258C205.23 77.4258 203.53 80.626 200.545 83.4162C199.339 84.543 198.502 86.1677 198.502 86.1677L197.754 84.256L205.23 77.4258Z" fill="black"/>
<path d="M199.971 74.9602L192.739 83.9779L184.249 87.8325L185.095 91.3469C185.095 91.3469 191.979 89.4894 194.746 87.7651C197.513 86.0408 202.074 81.2193 202.074 81.2193C202.074 81.2193 206.053 78.0266 205.863 75.4438C205.673 72.861 201.886 72.2577 199.971 74.9602Z" fill="#FFC100"/>
<path d="M196.045 73.9359C196.045 73.9359 196.314 72.5583 196.444 72.6138C196.574 72.6692 197.867 73.4453 197.867 73.4453L199.313 71.2793L200.181 71.8534L198.183 75.9941L196.045 73.9359Z" fill="#FFC100"/>
<path opacity="0.4" d="M195.41 79.7157L193.742 77.4268L195.089 81.0109L195.745 80.3131L200.35 74.4922L195.41 79.7157Z" fill="black"/>
<path opacity="0.4" d="M196.045 73.9358C196.118 73.9619 197.316 74.7693 197.25 74.7825C197.185 74.7958 197.754 73.8168 197.754 73.8168L199.024 74.2997L200.066 71.7773L199.04 74.6828L197.837 74.1014L197.25 75.1662L196.045 73.9358Z" fill="black"/>
<path d="M125.638 65.2027C125.65 64.9902 125.626 64.7777 125.55 64.5762C125.295 63.8895 124.565 63.481 124.253 62.818C123.792 61.8399 124.441 60.6213 125.393 60.1086C126.131 59.7109 126.518 59.6362 127.156 59.6727C127.794 59.6362 128.181 59.7109 128.919 60.1086C129.871 60.6213 130.52 61.8399 130.059 62.818C129.747 63.481 129.017 63.8895 128.761 64.5762C128.686 64.7777 128.662 64.9902 128.674 65.2027H138.384V55.4143C138.779 55.2645 139.21 55.2272 139.602 55.3732C140.289 55.629 140.697 56.3588 141.36 56.671C142.338 57.1315 143.557 56.4825 144.07 55.5306C144.467 54.7923 144.542 54.4056 144.506 53.7677C144.542 53.1297 144.467 52.7431 144.07 52.0047C143.557 51.0529 142.338 50.4038 141.36 50.8644C140.697 51.1765 140.289 51.9063 139.602 52.1622C139.21 52.3081 138.779 52.2708 138.384 52.121V43.4164L116.673 43.3193V65.1056L125.638 65.2027Z" fill="#263238"/>
<g opacity="0.4">
<path d="M125.638 65.2027C125.65 64.9902 125.626 64.7777 125.55 64.5762C125.295 63.8895 124.565 63.481 124.253 62.818C123.792 61.8399 124.441 60.6213 125.393 60.1086C126.131 59.7109 126.518 59.6362 127.156 59.6727C127.794 59.6362 128.181 59.7109 128.919 60.1086C129.871 60.6213 130.52 61.8399 130.059 62.818C129.747 63.481 129.017 63.8895 128.761 64.5762C128.686 64.7777 128.662 64.9902 128.674 65.2027H138.384V55.4143C138.779 55.2645 139.21 55.2272 139.602 55.3732C140.289 55.629 140.697 56.3588 141.36 56.671C142.338 57.1315 143.557 56.4825 144.07 55.5306C144.467 54.7923 144.542 54.4056 144.506 53.7677C144.542 53.1297 144.467 52.7431 144.07 52.0047C143.557 51.0529 142.338 50.4038 141.36 50.8644C140.697 51.1765 140.289 51.9063 139.602 52.1622C139.21 52.3081 138.779 52.2708 138.384 52.121V43.4164L116.673 43.3193V65.1056L125.638 65.2027Z" fill="black"/>
</g>
<path d="M126.297 65.2027C126.308 64.9902 126.284 64.7777 126.209 64.5762C125.953 63.8895 125.223 63.481 124.911 62.818C124.451 61.8399 125.1 60.6213 126.051 60.1086C126.79 59.7109 127.176 59.6362 127.814 59.6727C128.452 59.6362 128.839 59.7109 129.577 60.1086C130.529 60.6213 131.178 61.8399 130.718 62.818C130.406 63.481 129.676 63.8895 129.42 64.5762C129.345 64.7777 129.321 64.9902 129.332 65.2027H139.043V55.4143C139.437 55.2645 139.869 55.2272 140.261 55.3732C140.947 55.629 141.356 56.3588 142.019 56.671C142.997 57.1315 144.215 56.4825 144.728 55.5306C145.126 54.7923 145.201 54.4056 145.164 53.7677C145.201 53.1297 145.126 52.7431 144.728 52.0047C144.215 51.0529 142.997 50.4038 142.019 50.8644C141.356 51.1765 140.947 51.9063 140.261 52.1622C139.869 52.3081 139.437 52.2708 139.043 52.121V43.4164L117.332 43.3193V65.1056L126.297 65.2027Z" fill="#263238"/>
<path d="M111.862 53.542C111.862 53.542 110.277 59.1587 111.291 60.1364C112.305 61.1142 115.854 60.4623 115.672 60.3899C115.491 60.3175 116.578 53.5626 116.65 53.8076C116.723 54.0526 111.862 53.542 111.862 53.542Z" fill="#B97964"/>
<path d="M113.834 104.256L113.829 109.128L116.091 109.304L116.887 104.727C115.852 103.979 114.834 103.801 113.834 104.256Z" fill="#B97964"/>
<path d="M113.809 108.62C113.587 109.263 113.572 111.894 113.572 111.894L118.368 111.9C118.653 110.948 118.212 110.299 117.652 110.213C117.412 110.176 117.129 109.909 116.923 109.675C116.922 109.645 116.628 108.183 116.447 108.114C116.447 108.114 116.322 107.962 116.216 108.113C116.11 108.265 116.017 108.759 116.017 108.759C115.269 107.752 114.535 107.887 113.809 108.62Z" fill="#263238"/>
<path d="M113.75 109.384C114.292 109.168 114.874 109.25 115.346 109.609C115.429 109.672 115.507 109.525 115.425 109.463C114.922 109.08 114.286 108.99 113.709 109.22C113.615 109.258 113.655 109.422 113.75 109.384Z" fill="white"/>
<path d="M118.353 111.515L113.628 111.51C113.585 111.51 113.549 111.472 113.55 111.425C113.55 111.378 113.585 111.34 113.628 111.34L118.353 111.345C118.396 111.345 118.432 111.383 118.431 111.43C118.431 111.477 118.396 111.515 118.353 111.515Z" fill="white"/>
<path d="M123.595 103.621L123.59 109.121L125.767 109.3L126.837 104.153C125.963 103.449 124.948 103.105 123.595 103.621Z" fill="#B97964"/>
<path d="M123.491 108.632C123.268 109.275 123.254 111.906 123.254 111.906L128.763 111.913C129.048 110.961 128.453 110.397 127.894 110.311C127.653 110.274 126.811 109.92 126.605 109.687C126.604 109.657 126.31 108.195 126.129 108.125C126.129 108.125 126.004 107.973 125.898 108.125C125.791 108.277 125.699 108.771 125.699 108.771C124.951 107.764 124.217 107.899 123.491 108.632Z" fill="#263238"/>
<path d="M123.432 109.397C123.974 109.18 124.556 109.263 125.028 109.622C125.111 109.685 125.189 109.538 125.107 109.475C124.604 109.092 123.968 109.003 123.391 109.233C123.297 109.27 123.337 109.435 123.432 109.397Z" fill="white"/>
<path d="M128.764 111.528L123.31 111.521C123.266 111.521 123.231 111.483 123.231 111.436C123.231 111.39 123.267 111.352 123.31 111.352L128.764 111.358C128.807 111.358 128.842 111.396 128.842 111.443C128.842 111.49 128.807 111.528 128.764 111.528Z" fill="white"/>
<path d="M112.897 106.657L117.718 106.914C118.8 103.408 119.869 90.839 119.979 87.0654C120.112 82.5565 121.726 71.2402 120.298 68.8854C118.871 66.5306 112.414 68.406 112.414 68.406C112.414 68.406 113.219 82.185 112.897 86.5794C112.618 90.3881 112.187 101.584 112.897 106.657Z" fill="#263238"/>
<path d="M118.239 105.644L117.925 107.254L112.701 107.085L112.509 105.538L118.239 105.644Z" fill="#FFC100"/>
<path d="M122.526 106.657L127.305 106.914C127.887 103.033 130.225 88.9007 130.033 86.1935C129.798 82.8869 127.03 68.5736 126.001 67.47C124.971 66.3665 117.435 69.227 117.435 69.227C117.435 69.227 120.532 81.5354 122.974 86.8587C123.482 87.9646 122.133 101.937 122.526 106.657Z" fill="#263238"/>
<path d="M127.852 105.764L127.608 107.254L122.296 106.913L122.189 105.354L127.852 105.764Z" fill="#FFC100"/>
<path opacity="0.3" d="M120.45 80.078L119.047 75.387L116.557 74.5742L118.503 76.0837L120.069 84.6339L120.45 80.078Z" fill="black"/>
<path d="M123.137 38.5316C123.137 38.7339 123.225 38.8866 123.353 38.9079C123.481 38.9292 123.598 38.7588 123.609 38.5529C123.62 38.3469 123.524 38.1978 123.396 38.1765C123.268 38.1552 123.162 38.3363 123.137 38.5316Z" fill="#263238"/>
<path d="M123.219 38.5029C123.29 39.1553 123.451 39.7946 123.698 40.4025C123.378 40.5202 123.023 40.4916 122.726 40.3244L123.219 38.5029Z" fill="#A24E3F"/>
<path d="M122.771 37.8818C122.745 37.8844 122.719 37.8781 122.697 37.864C122.65 37.8186 122.65 37.7444 122.695 37.6983L122.697 37.6971C122.933 37.4021 123.299 37.2406 123.676 37.2639C123.739 37.2696 123.785 37.3247 123.78 37.3872L123.779 37.3882C123.769 37.4512 123.712 37.4957 123.648 37.4912C123.349 37.4776 123.062 37.6099 122.878 37.8463C122.851 37.8761 122.81 37.8895 122.771 37.8818Z" fill="#263238"/>
<path d="M123.223 41.2188C123.196 41.3268 123.164 41.4333 123.125 41.5377C122.908 42.1336 122.512 42.6512 121.991 43.0224C121.86 43.117 121.721 43.2012 121.577 43.2743C120.441 43.8718 119.039 43.6527 118.147 42.7383C117 41.5993 117.03 40.2835 116.899 38.0564C116.864 37.5778 116.944 37.0979 117.131 36.6547C117.788 35.0993 119.604 34.3623 121.186 35.0087L121.187 35.0092C123.4 35.8989 123.705 39.2114 123.223 41.2188Z" fill="#B97964"/>
<path opacity="0.2" d="M121.982 43.0227C121.851 43.1173 121.713 43.2015 121.568 43.2746C120.799 43.6776 119.886 43.717 119.085 43.3818C119.187 43.1141 119.324 42.8602 119.491 42.6261C120.343 42.521 121.208 42.6587 121.982 43.0227Z" fill="black"/>
<path d="M117.422 45.9109C118.539 46.9079 121.273 46.5407 121.273 46.5407C121.273 46.5407 122.98 46.0798 122.62 45.5571C121.617 45.3937 121.129 44.9327 120.927 44.3404C120.818 43.9745 120.784 43.5911 120.826 43.2121C120.842 43.0008 120.871 42.7905 120.911 42.5823L117.531 40.1221C117.972 41.7461 118.515 44.7344 117.422 45.9109Z" fill="#B97964"/>
<path d="M121.982 39.1929L122.47 39.3724L122.228 38.3915C122.228 38.3915 122.942 37.3195 122.228 36.3896C122.228 36.3896 124.201 35.8 123.086 34.7815C122.672 34.401 122.157 34.7815 120.794 34.2C120.055 33.8811 117.744 33.8569 117.629 34.7815C117.629 34.7815 115.964 34.7815 115.784 37.5688C115.677 39.222 116.324 40.8363 117.547 41.9747C117.547 41.9747 119.559 42.441 120.546 41.6478C121.533 40.8545 121.982 39.1929 121.982 39.1929Z" fill="#263238"/>
<path d="M120.696 39.3503C120.782 39.7747 121.058 40.1381 121.448 40.3393C121.909 40.5322 122.214 39.8944 122.146 39.2244C122.083 38.6294 121.77 37.7932 121.276 37.9058C120.783 38.0184 120.535 38.75 120.696 39.3503Z" fill="#B97964"/>
<path d="M113.984 45.375C113.984 45.375 113.198 45.6138 112.807 45.7569C111.993 46.0553 111.456 46.9619 111.161 47.8521C110.441 50.0273 109.277 55.1768 109.277 55.1768L113.5 56.0643L115.753 51.2126L113.984 45.375Z" fill="#FFC100"/>
<path opacity="0.5" d="M113.984 45.375C113.984 45.375 112.853 45.5853 112.258 46.0768C111.806 46.4509 111.445 46.9935 111.161 47.8521C110.441 50.0273 109.277 55.1768 109.277 55.1768L113.5 56.0643L115.753 51.2126L113.984 45.375Z" fill="white"/>
<path d="M124.211 45.6252C122.966 45.491 119.134 44.6254 113.983 45.3755L112.778 64.4202C112.778 64.4202 112.623 67.3338 112.167 69.8342C117.401 72.0818 123.594 71.4391 127.095 69.5496C127.055 69.629 126.94 67.5509 126.76 64.5068C126.444 59.1425 125.926 50.7785 125.258 45.9362C125.24 45.8165 124.335 45.6386 124.211 45.6252Z" fill="#FFC100"/>
<g opacity="0.5">
<path d="M124.211 45.6252C122.965 45.491 119.134 44.6254 113.983 45.3755L112.778 64.4202C112.778 64.4202 112.623 67.3338 112.167 69.8342C117.401 72.0818 123.593 71.4391 127.095 69.5496C127.054 69.629 126.94 67.5509 126.76 64.5068C126.444 59.1425 125.926 50.7785 125.258 45.9362C125.239 45.8165 124.335 45.6386 124.211 45.6252Z" fill="white"/>
</g>
<path d="M117.364 45.1776C117.513 44.7349 117.72 44.4235 117.985 44.2432L120.854 44.4643L122.199 45.3509L117.364 45.1776Z" fill="#FFC100"/>
<path opacity="0.5" d="M117.364 45.1776C117.513 44.735 117.72 44.4234 117.985 44.2432L120.854 44.4642L122.199 45.3508L117.364 45.1776Z" fill="white"/>
<path opacity="0.2" d="M124.078 51.5527C124.537 53.6977 125.198 57.9028 126.444 59.3683L126.148 55.1126L124.078 51.5527Z" fill="black"/>
<path opacity="0.2" d="M113.232 56.0059L113.343 50.5059L112.188 55.7443L113.232 56.0059Z" fill="black"/>
<path d="M126.277 53.2502C126.116 53.3121 129.222 60.3007 130.486 60.3631C131.751 60.4255 137.689 57.7236 137.689 57.7236L136.356 56.1336L131.869 56.391L129.58 51.5186L126.277 53.2502Z" fill="#B97964"/>
<path d="M124.715 45.8653C123.104 46.9293 122.306 49.3382 126.624 56.7759L131.288 53.9278C130.345 52.1872 129.345 50.9217 128.234 48.4008C125.995 45.1773 124.715 45.8653 124.715 45.8653Z" fill="#FFC100"/>
<path opacity="0.5" d="M124.715 45.8653C123.104 46.9293 122.306 49.3382 126.624 56.7759L131.288 53.9278C130.345 52.1872 129.345 50.9217 128.234 48.4008C125.995 45.1773 124.715 45.8653 124.715 45.8653Z" fill="white"/>
<path d="M139.78 56.0861C139.78 55.6783 139.655 55.2348 139.435 55.2213C139.216 55.2078 138.043 55.22 138.043 55.22C138.043 54.8908 138.66 54.5308 138.459 54.3059C138.196 54.0126 136.676 55.2657 136.58 55.5215C136.392 56.0234 136.298 56.1489 136.298 56.1489L137.102 57.9928C137.102 57.9928 138.588 58.9722 138.933 58.6271C139.278 58.2821 139.247 57.9133 139.247 57.9133C139.247 57.9133 139.592 57.435 139.561 57.1213C139.529 56.8076 139.78 56.4939 139.78 56.0861Z" fill="#B97964"/>
</g>
</g>
<defs>
<clipPath id="clip0_512_36231">
<rect width="210" height="140" fill="white"/>
</clipPath>
</defs>
</svg>
