<svg width="210" height="140" viewBox="0 0 210 140" fill="none" xmlns="http://www.w3.org/2000/svg">
<g clip-path="url(#clip0_512_36957)">
<path d="M92.6485 14.7125L90.1328 7.9284C90.7964 8.66836 91.7058 9.1426 92.6924 9.26318C93.679 9.38376 94.6758 9.14251 95.4981 8.58416C98.7292 6.65264 98.4789 2.30078 98.4789 2.30078C98.4789 2.30078 99.7546 7.71975 104.154 7.13553C104.897 7.05452 105.609 6.79047 106.224 6.36702C106.84 5.94358 107.342 5.37396 107.683 4.70921L108.351 10.4143L92.6485 14.7125Z" fill="#FFC100"/>
<path d="M98.0667 0L97.5957 1.62152L98.6091 3.09996L99.1099 1.2996L98.0667 0Z" fill="#FFC100"/>
<path d="M103.445 2.92188L103.027 4.37051L103.933 5.688L104.381 4.08436L103.445 2.92188Z" fill="#FFC100"/>
<path d="M102.485 8.33986C103.315 7.58723 103.826 6.547 103.916 5.43066C104.4 6.51009 105.242 7.38858 106.301 7.91659" fill="#FFC100"/>
<path d="M93.4059 4.57227L93.084 6.04475L94.0855 7.29665L94.4194 5.66321L93.4059 4.57227Z" fill="#FFC100"/>
<path d="M89.787 6.21191L89.5664 7.30286L90.3235 8.22093L90.55 7.00479L89.787 6.21191Z" fill="#FFC100"/>
<path d="M107.374 2.90332L107.04 3.96446L107.696 4.95406L108.048 3.77369L107.374 2.90332Z" fill="#FFC100"/>
<path d="M92.8389 10.1467C93.6084 9.34341 94.0451 8.27837 94.061 7.16602C94.617 8.20419 95.5139 9.01898 96.6005 9.4731" fill="#FFC100"/>
<g opacity="0.4">
<path d="M92.6471 14.7125L90.1313 7.9284C90.7949 8.66836 91.7043 9.1426 92.6909 9.26318C93.6775 9.38376 94.6744 9.14251 95.4967 8.58416C98.7278 6.65264 98.4774 2.30078 98.4774 2.30078C98.4774 2.30078 99.7531 7.71975 104.153 7.13553C104.896 7.05452 105.607 6.79047 106.223 6.36702C106.839 5.94358 107.34 5.37396 107.682 4.70921L108.35 10.4143L92.6471 14.7125Z" fill="white"/>
<path d="M98.0664 0L97.5955 1.62152L98.6089 3.09996L99.1097 1.2996L98.0664 0Z" fill="white"/>
<path d="M103.444 2.9209L103.027 4.36953L103.933 5.68702L104.38 4.08339L103.444 2.9209Z" fill="white"/>
<path d="M102.485 8.33986C103.314 7.58723 103.826 6.547 103.915 5.43066C104.399 6.51009 105.242 7.38858 106.3 7.91659" fill="white"/>
<path d="M93.4042 4.57227L93.0823 6.04475L94.0838 7.29665L94.4176 5.66321L93.4042 4.57227Z" fill="white"/>
<path d="M89.786 6.21191L89.5654 7.30286L90.3225 8.22093L90.5491 7.00479L89.786 6.21191Z" fill="white"/>
<path d="M107.372 2.90332L107.038 3.96446L107.694 4.95406L108.046 3.77369L107.372 2.90332Z" fill="white"/>
<path d="M92.8386 10.1467C93.6082 9.34341 94.0449 8.27837 94.0607 7.16602C94.6168 8.20419 95.5137 9.01898 96.6003 9.4731" fill="white"/>
</g>
<path d="M93.56 5.13281L93.3633 6.02107L93.9654 6.78414L94.1681 5.79453L93.56 5.13281Z" fill="#FFC100"/>
<path d="M98.1868 0.72168L97.9424 1.59802L98.5087 2.39089L98.7591 1.41321L98.1868 0.72168Z" fill="#FFC100"/>
<path d="M103.57 3.45801L103.332 4.33434L103.892 5.12126L104.149 4.14954L103.57 3.45801Z" fill="#FFC100"/>
<path d="M98.9313 5.25195L98.4961 6.86155L99.5215 8.31018L99.9924 6.52174L98.9313 5.25195Z" fill="#FFC100"/>
<path d="M110.712 11.6905C109.001 8.88268 102.962 6.7127 96.5716 10.224C90.8187 13.3895 89.9543 22.3138 94.3301 22.2065C98.7058 22.0992 103.403 17.3479 103.403 17.3479L110.712 11.6905Z" fill="#263238"/>
<path fill-rule="evenodd" clip-rule="evenodd" d="M95.5809 5.63029C119.339 8.85116 126.256 31.8648 144.4 44.2263C165.304 58.4673 208.414 60.5997 207.997 82.2169C207.579 103.913 166.615 107.601 142.957 119.084C127.506 126.584 113.561 134.534 95.5809 136.781C73.1124 139.59 48.3493 143.745 30.0716 133.195C10.1295 121.685 1.76528 101.53 1.04631 82.2169C0.305556 62.3185 8.44191 42.5533 26.1629 28.1968C44.2222 13.5661 69.8983 2.14849 95.5809 5.63029Z" fill="#FFECB2"/>
<mask id="mask0_512_36957" style="mask-type:alpha" maskUnits="userSpaceOnUse" x="1" y="5" width="207" height="135">
<path fill-rule="evenodd" clip-rule="evenodd" d="M95.5809 5.63029C119.339 8.85116 126.256 31.8648 144.4 44.2263C165.304 58.4673 208.414 60.5997 207.997 82.2169C207.579 103.913 166.615 107.601 142.957 119.084C127.506 126.584 113.561 134.534 95.5809 136.781C73.1124 139.59 48.3493 143.745 30.0716 133.195C10.1295 121.685 1.76528 101.53 1.04631 82.2169C0.305556 62.3185 8.44191 42.5533 26.1629 28.1968C44.2222 13.5661 69.8983 2.14849 95.5809 5.63029Z" fill="#FFECB2"/>
</mask>
<g mask="url(#mask0_512_36957)">
<path d="M86.312 99.1682H15.462C14.8524 99.1682 14.2677 98.9263 13.8363 98.4956C13.4048 98.0649 13.162 97.4807 13.1609 96.8711V-6.32295C13.1594 -6.62593 13.2178 -6.92623 13.3328 -7.20654C13.4478 -7.48686 13.6171 -7.74165 13.8309 -7.95626C14.0448 -8.17087 14.299 -8.34104 14.579 -8.45699C14.8589 -8.57293 15.159 -8.63235 15.462 -8.63183H86.312C86.9213 -8.63183 87.5056 -8.38982 87.9364 -7.95902C88.3671 -7.52823 88.6092 -6.94395 88.6092 -6.33471V96.8789C88.6071 97.4868 88.3642 98.069 87.9336 98.4981C87.503 98.9272 86.9199 99.1682 86.312 99.1682ZM15.462 -8.52207C14.8784 -8.52207 14.3186 -8.29051 13.9056 -7.8782C13.4925 -7.4659 13.26 -6.90656 13.2589 -6.32295V96.8789C13.26 97.4625 13.4925 98.0218 13.9056 98.4341C14.3186 98.8464 14.8784 99.078 15.462 99.078H86.312C86.6008 99.078 86.8868 99.0211 87.1536 98.9106C87.4204 98.8001 87.6628 98.6381 87.8671 98.4339C88.0713 98.2297 88.2332 97.9873 88.3438 97.7205C88.4543 97.4536 88.5112 97.1677 88.5112 96.8789V-6.32295C88.5112 -6.61175 88.4543 -6.89771 88.3438 -7.16452C88.2332 -7.43133 88.0713 -7.67376 87.8671 -7.87797C87.6628 -8.08217 87.4204 -8.24416 87.1536 -8.35467C86.8868 -8.46519 86.6008 -8.52207 86.312 -8.52207H15.462Z" fill="#E0E0E0"/>
<path d="M190 123.115H-6V123.213H190V123.115Z" fill="#E0E0E0"/>
<path d="M20.5502 128.709H14.2546V128.807H20.5502V128.709Z" fill="#E0E0E0"/>
<path d="M81.7609 127.647H60.7771V127.745H81.7609V127.647Z" fill="#E0E0E0"/>
<path d="M35.1521 132.352H20.9421V132.45H35.1521V132.352Z" fill="#E0E0E0"/>
<path d="M159.244 127.596H142.313V127.694H159.244V127.596Z" fill="#E0E0E0"/>
<path d="M165.218 127.596H162.736V127.694H165.218V127.596Z" fill="#E0E0E0"/>
<path d="M139.079 130.038H117.954V130.136H139.079V130.038Z" fill="#E0E0E0"/>
<path d="M207.973 12.0251L214.6 15.3716L140.31 145.501L87.0001 118.582L207.973 12.0251Z" fill="#FAFAFA"/>
<path d="M15.3514 4.3922L7.99997 5.43141L36.5304 152.532L95.6637 144.173L15.3514 4.3922Z" fill="#FAFAFA"/>
<path d="M85.5554 -16.4561L20.55 160.081L154.379 160.477L96.4334 -16.4561H85.5554Z" fill="#F0F0F0"/>
<path d="M139.013 39.3452L140.248 40.043L138.997 40.7094L138.299 41.9442L137.633 40.6898L136.398 39.9959L137.649 39.3295L138.346 38.0947L139.013 39.3452Z" fill="#E0E0E0"/>
<path d="M74.901 38.1655L76.1397 38.8594L74.8853 39.5258L74.1915 40.7606L73.5251 39.5101L72.2903 38.8123L73.5408 38.1499L74.2385 36.9111L74.901 38.1655Z" fill="#E0E0E0"/>
<path d="M135.637 31.3525L136.178 31.6583L135.629 31.9484L135.324 32.4932L135.03 31.9444L134.485 31.6348L135.038 31.3447L135.343 30.7998L135.637 31.3525Z" fill="#EBEBEB"/>
<path d="M123.517 47.9302L124.755 48.624L123.501 49.2904L122.807 50.5252L122.141 49.2747L120.906 48.577L122.156 47.9145L122.854 46.6758L123.517 47.9302Z" fill="#E0E0E0"/>
<path d="M91.6786 13.187L92.9173 13.8809L91.6629 14.5473L90.9691 15.7821L90.3027 14.5316L89.064 13.8338L90.3184 13.1674L91.0161 11.9326L91.6786 13.187Z" fill="#E0E0E0"/>
<path d="M75.9594 77.2007L77.1942 77.8984L75.9437 78.5648L75.2459 79.7996L74.5834 78.5492L73.3447 77.8514L74.5991 77.185L75.293 75.9502L75.9594 77.2007Z" fill="#E0E0E0"/>
<path d="M107.68 71.3364L108.919 72.0342L107.664 72.6967L106.971 73.9354L106.304 72.681L105.065 71.9871L106.32 71.3207L107.014 70.0859L107.68 71.3364Z" fill="#FAFAFA"/>
<path d="M113.482 37.0283L114.026 37.3341L113.474 37.6241L113.168 38.169L112.874 37.6202L112.333 37.3145L112.882 37.0205L113.188 36.4756L113.482 37.0283Z" fill="#EBEBEB"/>
<path d="M130.275 23.1201L130.816 23.4259L130.267 23.7199L129.961 24.2647L129.667 23.712L129.122 23.4063L129.675 23.1123L129.981 22.5674L130.275 23.1201Z" fill="#EBEBEB"/>
<path d="M128.17 32.4028L129.122 32.9359L128.158 33.4494L127.625 34.402L127.111 33.4377L126.159 32.9006L127.123 32.3871L127.656 31.4346L128.17 32.4028Z" fill="#EBEBEB"/>
<path d="M97.9623 18.8235L98.8717 19.3331L97.9505 19.8231L97.4409 20.7287L96.9549 19.8114L96.0454 19.2979L96.9666 18.8118L97.4762 17.9023L97.9623 18.8235Z" fill="#FAFAFA"/>
<path d="M67.2963 50.3138L68.2057 50.8234L67.2845 51.3134L66.7749 52.2189L66.2888 51.3016L65.3794 50.792L66.3006 50.302L66.8102 49.3965L67.2963 50.3138Z" fill="#FAFAFA"/>
<path d="M138.828 53.8411L139.734 54.3507L138.817 54.8368L138.307 55.7462L137.817 54.825L136.912 54.3154L137.829 53.8294L138.338 52.9199L138.828 53.8411Z" fill="#EBEBEB"/>
<path d="M133.497 61.5171L134.732 62.2109L133.482 62.8773L132.788 64.1121L132.121 62.8617L130.883 62.1639L132.137 61.4975L132.831 60.2627L133.497 61.5171Z" fill="#E0E0E0"/>
<path d="M20.0993 25.6411L21.3341 26.3389L20.0836 27.0053L19.3858 28.2401L18.7194 26.9857L17.4846 26.2918L18.7351 25.6254L19.4329 24.3906L20.0993 25.6411Z" fill="#E0E0E0"/>
<path d="M18.1747 48.6274L19.4095 49.3252L18.159 49.9877L17.4613 51.2264L16.7949 49.972L15.5601 49.2781L16.8105 48.6118L17.5083 47.377L18.1747 48.6274Z" fill="#E0E0E0"/>
<path d="M89.852 27.8933C90.1083 32.43 90.627 36.9369 90.7522 41.4795C90.9921 47.6518 90.4472 53.8296 89.1306 59.8646C88.2393 63.7415 86.9176 67.5067 85.1901 71.0901C85.0649 71.3524 85.4524 71.5789 85.5776 71.3166C91.0741 59.9898 91.7835 47.3813 90.8475 34.9994C90.6687 32.6148 90.4302 30.266 90.2991 27.8933C90.2991 27.6072 89.8341 27.6072 89.852 27.8933Z" fill="#263238"/>
<path d="M87.9932 68.9864C91.1528 62.7686 91.5701 55.6447 90.9739 48.8188C90.3778 41.993 88.9649 35.2565 88.649 28.4127C88.4999 25.122 88.649 21.7657 89.7161 18.6121C90.7832 15.4585 93.0604 12.0187 96.1723 10.4688L113.127 15.8341C120.585 39.0838 119.303 48.4492 117.592 65.5884C117.566 66.6861 117.271 67.7607 116.733 68.7182C115.905 69.9701 114.349 70.6139 112.93 71.1803C109.27 72.6348 105.574 74.0954 101.699 74.8823C97.8237 75.6692 93.7043 75.7467 90.0141 74.471C88.7682 74.0358 87.4567 73.2787 87.1646 72.0864C86.9201 71.0074 87.4984 69.9582 87.9932 68.9864Z" fill="#263238"/>
<path d="M104.518 13.5211C104.518 13.5211 110.665 22.3917 111.201 25.289C113.365 26.7853 114.438 23.2025 113.908 18.5943C113.472 14.8266 111.094 10.9457 107.684 9.80113C102.897 8.1975 104.518 13.5211 104.518 13.5211Z" fill="#263238"/>
<path d="M106.825 40.5559C106.363 40.2257 105.991 39.7833 105.746 39.2703C105.501 38.7573 105.39 38.1904 105.424 37.6229C105.471 36.5869 105.641 35.5602 105.931 34.5647L104.488 33.277L97.0843 27.5957C97.8414 31.9595 99.3318 38.9225 96.2259 41.784C94.2333 42.1727 92.2694 42.6965 90.3479 43.3518C89.8948 45.4264 88.8516 56.8545 88.8516 56.8545C89.3523 67.2096 100.28 78.125 105.83 76.9149C109.907 76.0206 117.473 61.886 117.943 51.5667C118.152 46.9228 114.092 42.4576 114.182 41.6707C112.411 41.3726 108.477 40.705 106.825 40.5559Z" fill="#DB8C7E"/>
<path opacity="0.2" d="M105.418 38.0043C103.486 37.1816 101.245 35.6197 101.245 33.4677C101.218 32.6856 101.284 31.9032 101.442 31.1367L105.734 35.4528C105.541 36.2902 105.435 37.1452 105.418 38.0043Z" fill="black"/>
<path d="M94.2822 20.7994C95.8024 27.4047 96.3091 30.2245 100.244 33.2589C106.157 37.8313 113.901 34.9698 114.372 28.1499C114.796 22.0156 112.238 12.2447 105.287 10.3251C98.4254 8.43536 92.7561 14.1941 94.2822 20.7994Z" fill="#DB8C7E"/>
<path d="M103.618 22.254C103.69 22.8502 104.101 23.3807 104.548 23.3688C104.995 23.3569 105.293 22.8323 105.228 22.1765C105.162 21.5208 104.745 21.0498 104.304 21.0617C103.863 21.0737 103.553 21.6221 103.618 22.254Z" fill="#263238"/>
<path d="M110.39 20.9846C110.42 21.5808 110.807 22.1054 111.248 22.1173C111.689 22.1292 112.023 21.6463 111.993 21.0323C111.964 20.4183 111.582 19.9116 111.135 19.8996C110.688 19.8877 110.348 20.3765 110.39 20.9846Z" fill="#263238"/>
<path d="M101.62 20.2687C101.664 20.2661 101.706 20.2547 101.745 20.2352C101.784 20.2158 101.819 20.1886 101.847 20.1554C102.094 19.8372 102.416 19.5852 102.784 19.4218C103.152 19.2585 103.555 19.189 103.957 19.2194C103.999 19.2262 104.042 19.2241 104.083 19.2134C104.124 19.2026 104.162 19.1835 104.195 19.1571C104.228 19.1307 104.255 19.0977 104.275 19.0602C104.295 19.0227 104.306 18.9815 104.309 18.9393C104.312 18.8506 104.283 18.7639 104.227 18.6949C104.171 18.626 104.092 18.5794 104.005 18.5637C103.497 18.5168 102.985 18.5981 102.516 18.8002C102.047 19.0022 101.637 19.3185 101.322 19.7202C101.269 19.79 101.245 19.8779 101.257 19.9649C101.268 20.0519 101.313 20.1311 101.382 20.1852C101.449 20.2406 101.533 20.2702 101.62 20.2687Z" fill="#263238"/>
<path d="M111.886 17.8605C111.961 17.8251 112.02 17.7637 112.053 17.6876C112.079 17.6038 112.072 17.513 112.031 17.4349C111.991 17.3568 111.922 17.2977 111.838 17.2703C111.343 17.0697 110.807 16.9858 110.274 17.025C109.741 17.0643 109.223 17.2258 108.762 17.4969C108.727 17.521 108.698 17.5521 108.676 17.5884C108.653 17.6246 108.639 17.6651 108.633 17.7072C108.628 17.7493 108.631 17.7922 108.643 17.8329C108.655 17.8737 108.675 17.9116 108.703 17.944C108.759 18.0131 108.839 18.0591 108.926 18.0734C109.014 18.0877 109.104 18.0692 109.18 18.0215C109.547 17.8102 109.958 17.6864 110.381 17.6595C110.803 17.6326 111.227 17.7035 111.618 17.8665C111.661 17.8834 111.707 17.8916 111.753 17.8906C111.799 17.8896 111.844 17.8793 111.886 17.8605Z" fill="#263238"/>
<path d="M92.9998 26.5286C93.8695 27.6684 95.1559 28.4167 96.5766 28.6091C98.4068 28.8118 98.9314 25.843 98.0909 24.15C97.7002 23.388 97.0492 22.7916 96.2561 22.4688C95.463 22.1461 94.5804 22.1186 93.7688 22.3913C92.1354 22.9875 91.8671 25.08 92.9998 26.5286Z" fill="#DB8C7E"/>
<path d="M107.994 20.793C108.789 22.1396 109.722 23.4002 110.778 24.5546C110.833 24.6135 110.874 24.6843 110.897 24.7615C110.921 24.8387 110.926 24.9203 110.913 24.9999C110.899 25.0795 110.868 25.155 110.821 25.2204C110.774 25.2859 110.712 25.3396 110.641 25.3773C110.081 25.6319 109.462 25.7268 108.852 25.6516L107.994 20.793Z" fill="#B2584F"/>
<path d="M104.166 21.0799L105.692 20.6328C105.692 20.6328 104.905 21.8311 104.166 21.0799Z" fill="#263238"/>
<path d="M110.98 19.9173L112.53 19.5596C112.53 19.5596 111.672 20.7101 110.98 19.9173Z" fill="#263238"/>
<path d="M92.1058 17.3122C91.3249 18.7191 93.5187 22.3616 93.5187 22.3616C93.5187 22.3616 96.6425 21.0858 97.2983 25.9384C98.4906 26.0159 99.3907 21.3541 98.7409 16.8234C98.2521 14.254 93.4829 14.8322 92.1058 17.3122Z" fill="#263238"/>
<path opacity="0.2" d="M96.041 26.9692C95.6602 26.9429 95.29 26.8324 94.957 26.6458C94.6241 26.4593 94.3366 26.2012 94.1154 25.8901C93.9889 25.7137 93.9003 25.5129 93.8552 25.3006C93.8101 25.0882 93.8093 24.8688 93.8531 24.6561C93.9411 24.3521 94.1419 24.0932 94.4146 23.9325C94.6872 23.7718 95.011 23.7214 95.3196 23.7917C95.3402 23.795 95.3599 23.8027 95.3774 23.8141C95.3949 23.8255 95.4097 23.8405 95.4211 23.858C95.4324 23.8756 95.4399 23.8953 95.4431 23.9159C95.4463 23.9366 95.4451 23.9576 95.4397 23.9778C95.4342 23.9979 95.4246 24.0167 95.4114 24.0329C95.3982 24.0491 95.3818 24.0623 95.3632 24.0718C95.3445 24.0812 95.3241 24.0866 95.3033 24.0877C95.2824 24.0887 95.2616 24.0854 95.2421 24.0779C95.0088 24.0293 94.7657 24.0704 94.5613 24.193C94.3569 24.3157 94.2062 24.5108 94.1392 24.7396C94.1073 24.9099 94.1103 25.085 94.1483 25.2541C94.1862 25.4232 94.2582 25.5828 94.3598 25.7232C94.5576 25.9988 94.8143 26.2269 95.1113 26.3909C95.4083 26.5548 95.7381 26.6506 96.0767 26.6711C96.1157 26.677 96.151 26.6976 96.1754 26.7286C96.1997 26.7596 96.2114 26.7987 96.2079 26.838C96.202 26.877 96.1814 26.9123 96.1504 26.9367C96.1194 26.961 96.0802 26.9726 96.041 26.9692Z" fill="black"/>
<path d="M95.003 28.818C95.0293 28.9983 95.1083 29.1669 95.2301 29.3024C95.352 29.438 95.5112 29.5345 95.6877 29.5798C95.8642 29.6251 96.0502 29.6172 96.2222 29.5571C96.3943 29.4969 96.5447 29.3873 96.6546 29.2419C96.7645 29.0965 96.8289 28.9218 96.8398 28.7399C96.8506 28.558 96.8075 28.3769 96.7157 28.2194C96.6239 28.062 96.4876 27.9352 96.3239 27.855C96.1603 27.7748 95.9766 27.7448 95.7959 27.7688C95.5516 27.8028 95.3309 27.9324 95.1822 28.1292C95.0335 28.3259 94.969 28.5737 95.003 28.818Z" fill="#FFC100"/>
<path d="M95.5272 32.687C95.5525 32.8692 95.6313 33.0398 95.7536 33.1772C95.8759 33.3146 96.0362 33.4126 96.2142 33.4589C96.3922 33.5052 96.58 33.4977 96.7537 33.4373C96.9274 33.3769 97.0794 33.2663 97.1903 33.1196C97.3012 32.9728 97.366 32.7965 97.3767 32.6129C97.3874 32.4292 97.3434 32.2466 97.2502 32.0879C97.1571 31.9293 97.019 31.8019 96.8534 31.7218C96.6878 31.6417 96.5022 31.6124 96.3201 31.6378C96.0758 31.6718 95.855 31.8014 95.7063 31.9982C95.5577 32.195 95.4932 32.4427 95.5272 32.687Z" fill="#FFC100"/>
<path d="M96.3984 32.7646L95.7903 28.2816L95.9393 28.2637L96.5474 32.7467L96.3984 32.7646Z" fill="#FFC100"/>
<path opacity="0.3" d="M95.003 28.818C95.0293 28.9983 95.1083 29.1669 95.2301 29.3024C95.352 29.438 95.5112 29.5345 95.6877 29.5798C95.8642 29.6251 96.0502 29.6172 96.2222 29.5571C96.3943 29.4969 96.5447 29.3873 96.6546 29.2419C96.7645 29.0965 96.8289 28.9218 96.8398 28.7399C96.8506 28.558 96.8075 28.3769 96.7157 28.2194C96.6239 28.062 96.4876 27.9352 96.3239 27.855C96.1603 27.7748 95.9766 27.7448 95.7959 27.7688C95.5516 27.8028 95.3309 27.9324 95.1822 28.1292C95.0335 28.3259 94.969 28.5737 95.003 28.818Z" fill="white"/>
<path opacity="0.3" d="M95.5272 32.687C95.5525 32.8692 95.6313 33.0398 95.7536 33.1772C95.8759 33.3146 96.0362 33.4126 96.2142 33.4589C96.3922 33.5052 96.58 33.4977 96.7537 33.4373C96.9274 33.3769 97.0794 33.2663 97.1903 33.1196C97.3012 32.9728 97.366 32.7965 97.3767 32.6129C97.3874 32.4292 97.3434 32.2466 97.2502 32.0879C97.1571 31.9293 97.019 31.8019 96.8534 31.7218C96.6878 31.6417 96.5022 31.6124 96.3201 31.6378C96.0758 31.6718 95.855 31.8014 95.7063 31.9982C95.5577 32.195 95.4932 32.4427 95.5272 32.687Z" fill="white"/>
<path d="M109.686 27.7862C109.33 28.5262 109.029 29.2913 108.786 30.0754L108.351 30.0157C106.407 29.7177 105.602 28.9367 105.298 28.1617C105.163 27.7798 105.118 27.3717 105.167 26.9694C105.19 26.7405 105.244 26.5158 105.328 26.3018C106.264 27.0767 108.058 27.494 109.024 27.6789C109.43 27.7564 109.686 27.7862 109.686 27.7862Z" fill="#263238"/>
<path d="M109.024 27.673L108.744 28.3407C106.908 28.0545 105.656 27.6074 105.167 26.9636C105.19 26.7347 105.244 26.51 105.328 26.2959C106.264 27.0709 108.059 27.4882 109.024 27.673Z" fill="white"/>
<path d="M108.352 30.0161C106.408 29.7181 105.604 28.9371 105.3 28.1621C106.039 28.2874 106.749 28.5438 107.398 28.9192C107.822 29.1767 108.156 29.5601 108.352 30.0161Z" fill="#DC5753"/>
<path d="M101.645 44.4007C99.6654 44.4007 97.6087 42.9998 96.2257 41.9387C96.1997 41.9101 96.1853 41.8729 96.1853 41.8343C96.1853 41.7957 96.1997 41.7585 96.2257 41.73C96.239 41.7157 96.2552 41.7044 96.2731 41.6966C96.2911 41.6888 96.3104 41.6848 96.33 41.6848C96.3495 41.6848 96.3689 41.6888 96.3868 41.6966C96.4048 41.7044 96.4209 41.7157 96.4343 41.73C97.7756 42.7554 99.7787 44.1146 101.668 44.1146C102.716 44.0797 103.726 43.7146 104.554 43.0713C105.464 42.3839 106.254 41.5498 106.891 40.6033C106.902 40.5872 106.916 40.5736 106.933 40.5631C106.95 40.5526 106.968 40.5455 106.988 40.5422C107.007 40.5389 107.027 40.5394 107.046 40.5437C107.065 40.5481 107.083 40.5562 107.099 40.5675C107.115 40.5789 107.129 40.5933 107.14 40.6099C107.15 40.6265 107.157 40.6451 107.16 40.6644C107.164 40.6838 107.163 40.7037 107.159 40.7228C107.155 40.742 107.146 40.7601 107.135 40.7762C106.483 41.7463 105.678 42.6041 104.751 43.3158C103.872 43.9947 102.802 44.3786 101.692 44.4127L101.645 44.4007Z" fill="white"/>
<path d="M92.649 14.7125L90.1333 7.9284C90.7969 8.66836 91.7063 9.1426 92.6929 9.26318C93.6795 9.38376 94.6763 9.14251 95.4986 8.58416C98.7297 6.65264 98.4793 2.30078 98.4793 2.30078C98.4793 2.30078 99.7551 7.71975 104.155 7.13553C104.898 7.05452 105.609 6.79047 106.225 6.36702C106.841 5.94358 107.342 5.37396 107.684 4.70921L108.352 10.4143L92.649 14.7125Z" fill="#FFC100"/>
<path d="M103.445 2.9209L103.027 4.36953L103.933 5.68702L104.381 4.08339L103.445 2.9209Z" fill="#FFC100"/>
<path d="M102.485 8.33986C103.314 7.58723 103.826 6.547 103.916 5.43066C104.399 6.51009 105.242 7.38858 106.3 7.91659" fill="#FFC100"/>
<path d="M93.4062 4.57227L93.0842 6.04475L94.0858 7.29665L94.4196 5.66321L93.4062 4.57227Z" fill="#FFC100"/>
<path d="M89.7865 6.21191L89.5659 7.30286L90.323 8.22093L90.5496 7.00479L89.7865 6.21191Z" fill="#FFC100"/>
<path d="M92.8391 10.1467C93.6087 9.34341 94.0453 8.27837 94.0612 7.16602C94.6173 8.20419 95.5142 9.01898 96.6008 9.4731" fill="#FFC100"/>
<g opacity="0.4">
<path d="M92.6471 14.7125L90.1313 7.9284C90.7949 8.66836 91.7043 9.1426 92.6909 9.26318C93.6775 9.38376 94.6744 9.14251 95.4967 8.58416C98.7278 6.65264 98.4774 2.30078 98.4774 2.30078C98.4774 2.30078 99.7531 7.71975 104.153 7.13553C104.896 7.05452 105.607 6.79047 106.223 6.36702C106.839 5.94358 107.34 5.37396 107.682 4.70921L108.35 10.4143L92.6471 14.7125Z" fill="white"/>
<path d="M103.444 2.9209L103.027 4.36953L103.933 5.68702L104.38 4.08339L103.444 2.9209Z" fill="white"/>
<path d="M102.485 8.33986C103.314 7.58723 103.826 6.547 103.915 5.43066C104.399 6.51009 105.242 7.38858 106.3 7.91659" fill="white"/>
<path d="M93.4042 4.57227L93.0823 6.04475L94.0838 7.29665L94.4176 5.66321L93.4042 4.57227Z" fill="white"/>
<path d="M89.786 6.21191L89.5654 7.30286L90.3225 8.22093L90.5491 7.00479L89.786 6.21191Z" fill="white"/>
<path d="M92.8386 10.1467C93.6082 9.34341 94.0449 8.27837 94.0607 7.16602C94.6168 8.20419 95.5137 9.01898 96.6003 9.4731" fill="white"/>
</g>
<path d="M93.5603 5.13281L93.3635 6.02107L93.9656 6.78414L94.1683 5.79453L93.5603 5.13281Z" fill="#FFC100"/>
<path d="M103.57 3.45801L103.332 4.33434L103.892 5.12126L104.149 4.14954L103.57 3.45801Z" fill="#FFC100"/>
<path d="M98.9313 5.25195L98.4961 6.86155L99.5215 8.31018L99.9924 6.52174L98.9313 5.25195Z" fill="#FFC100"/>
<path d="M95.7906 32.1982L95.6237 32.55C95.6062 32.5911 95.5772 32.6263 95.5402 32.6513L95.2302 32.8421L95.5402 33.0388C95.5781 33.0602 95.6075 33.0938 95.6237 33.1342L95.7906 33.4859L95.9635 33.1342C95.9796 33.0938 96.0091 33.0602 96.0469 33.0388L96.3569 32.8421L96.0469 32.6513C96.01 32.6263 95.981 32.5911 95.9635 32.55L95.7906 32.1982Z" fill="white"/>
<path d="M110.712 11.6905C109.001 8.88268 102.962 6.7127 96.5716 10.224C90.8187 13.3895 89.9543 22.3138 94.3301 22.2065C98.7058 22.0992 103.403 17.3479 103.403 17.3479L110.712 11.6905Z" fill="#263238"/>
<path d="M93.9182 10.1465L93.4711 11.0765C93.4223 11.1822 93.3435 11.2713 93.2446 11.3328L92.4338 11.8395L93.2446 12.3463C93.3444 12.4093 93.4233 12.5006 93.4711 12.6086L93.9182 13.5326L94.3594 12.6086C94.4098 12.5022 94.4881 12.4116 94.5859 12.3463L95.3967 11.8395L94.5859 11.3328C94.4883 11.2698 94.4099 11.1811 94.3594 11.0765L93.9182 10.1465Z" fill="white"/>
<path d="M121.251 44.6693L135.266 55.9961L137.258 37.748H142.277C142.277 37.748 142.826 56.0915 142.903 58.3807C142.984 60.4714 142.645 62.5571 141.908 64.515C141.633 65.2065 141.209 65.8288 140.666 66.3371C140.122 66.8454 139.473 67.2272 138.765 67.4551C138.057 67.683 137.307 67.7514 136.569 67.6554C135.831 67.5593 135.124 67.3012 134.497 66.8996L117.656 56.169L114.115 41.6111L116.887 42.2847C118.48 42.7963 119.96 43.6055 121.251 44.6693Z" fill="#DB8C7E"/>
<path d="M137.234 38.3138C137.234 38.3138 135.607 36.9129 135.493 35.1423C135.38 33.3717 134.79 31.9887 134.79 30.6653C134.79 29.3418 135.952 30.701 136.423 31.5475C136.894 32.3941 137.443 33.336 138.015 32.9008C138.587 32.4656 140.93 26.5697 141.8 26.0332C142.671 25.4967 142.593 26.5638 142.593 26.5638C142.593 26.5638 143.189 25.1569 143.821 25.2463C143.982 25.2463 144.322 25.5861 144.149 26.2776C143.756 27.8216 142.754 31.017 142.754 31.017C142.808 30.8322 144.322 26.9751 144.626 26.4267C145.02 25.7113 145.568 25.5801 145.979 25.8305C146.576 26.1763 144.847 31.0289 144.918 31.2852C144.918 31.2852 145.813 28.4595 146.665 28.3045C147.518 28.1495 147.058 29.9499 146.343 31.4641C145.687 32.8591 144.769 35.7563 143.959 37.1036C142.969 38.7669 141.932 39.6551 140.131 39.4465C139.085 39.3213 138.088 38.9314 137.234 38.3138Z" fill="#DB8C7E"/>
<path opacity="0.2" d="M135.267 56.0132C135.071 56.997 135.071 58.0101 135.267 58.9939C135.267 58.9939 133.08 57.1101 133.634 54.6719L135.267 56.0132Z" fill="black"/>
<path opacity="0.3" d="M59.2405 216.419H42C42 216.419 47.7528 190.069 54.7098 179.488C61.6669 168.906 94.3058 75.9014 94.3058 75.9014L115.397 75.4424C115.397 75.4424 126.766 79.7704 130.73 99.9619C135.136 122.431 130.48 178.737 133.502 184.823C136.525 190.91 137.813 193.604 138.725 197.39C139.637 201.176 138.301 206.41 140.978 210.547C143.655 214.684 144.096 217.772 144.096 217.772L59.2405 216.419Z" fill="#FFC100"/>
<g opacity="0.3">
<path d="M95.3072 74.0055C91.0149 93.3444 83.271 102.132 82.1144 113.28C81.566 118.514 78.5376 124.451 76.8564 129.471C75.4257 133.644 72.5701 137.614 72.8503 141.99C73.0173 144.625 74.3288 147.308 73.4465 149.817C72.5642 152.327 69.804 153.859 69.2735 156.375C68.8919 158.163 69.7802 159.988 70.1259 161.806C70.4717 163.624 54.6261 188.603 53.4756 216.425L70.2869 216.139C88.6422 188.817 127.91 105.255 128.512 100.093C129.252 93.7796 121.329 79.8596 114.3 75.4303C107.272 71.0009 95.3072 74.0055 95.3072 74.0055Z" fill="#FFC100"/>
</g>
<path d="M127.756 110.108C128.195 104.052 127.423 97.9695 125.485 92.2152C123.548 86.4608 120.483 81.15 116.471 76.5928C115.803 75.8357 115.398 75.4303 115.398 75.4303L117.657 56.2106L115.869 42.0819L109.532 40.8896L98.8788 51.0778L89.2809 60.3836L90.4732 65.0693L94.3123 75.8655C94.015 78.6936 93.4542 81.4878 92.6372 84.2116C92.6372 84.2116 89.6564 89.249 87.1169 100.397C80.7917 128.314 79.6352 154.14 74.7349 166.659L59.2351 216.401L131.595 217.742C127.041 182.021 125.139 146.169 127.756 110.108Z" fill="#FFC100"/>
<path opacity="0.4" d="M79.08 192.555C79.0604 192.555 79.0412 192.55 79.0234 192.542C79.0056 192.534 78.9896 192.522 78.9763 192.508C78.963 192.493 78.9527 192.476 78.9459 192.458C78.9392 192.439 78.9361 192.42 78.9369 192.4C79.5688 179.106 82.1918 170.725 85.4945 160.119C88.9581 149.055 93.2444 135.284 96.7259 110.836C96.7286 110.816 96.7352 110.797 96.7452 110.78C96.7552 110.763 96.7685 110.748 96.7843 110.736C96.8001 110.725 96.818 110.716 96.8372 110.711C96.8563 110.706 96.8762 110.705 96.8958 110.708C96.9154 110.71 96.9342 110.717 96.9512 110.727C96.9683 110.737 96.9832 110.75 96.9951 110.766C97.007 110.782 97.0156 110.8 97.0206 110.819C97.0256 110.838 97.0267 110.858 97.024 110.877C93.5604 135.349 89.2741 149.132 85.7806 160.208C82.4661 170.796 79.8192 179.16 79.223 192.4C79.2232 192.439 79.2085 192.477 79.1819 192.506C79.1554 192.535 79.119 192.552 79.08 192.555Z" fill="white"/>
<path opacity="0.4" d="M94.7702 106.752H94.7344C94.6963 106.742 94.6635 106.718 94.6425 106.685C94.6214 106.652 94.6138 106.612 94.6211 106.573L95.1636 104.105C95.1679 104.086 95.176 104.068 95.1873 104.052C95.1986 104.036 95.213 104.022 95.2296 104.012C95.2462 104.001 95.2647 103.994 95.2841 103.99C95.3034 103.987 95.3233 103.988 95.3425 103.992C95.3616 103.996 95.3798 104.004 95.3959 104.016C95.4119 104.027 95.4256 104.041 95.4361 104.058C95.4466 104.074 95.4538 104.093 95.4572 104.112C95.4605 104.132 95.46 104.152 95.4557 104.171L94.9132 106.639C94.9044 106.67 94.8858 106.698 94.8601 106.719C94.8344 106.739 94.8029 106.751 94.7702 106.752Z" fill="white"/>
<path opacity="0.4" d="M111.635 211.537H111.605C111.566 211.528 111.532 211.504 111.51 211.471C111.488 211.438 111.479 211.397 111.486 211.358C115.951 189.253 116.565 168.858 113.316 150.73C112.947 148.685 112.524 146.61 112.124 144.601C111.2 140.468 110.491 136.289 110.002 132.082C109.406 125.841 109.877 122.437 111.546 112.606C111.549 112.587 111.556 112.568 111.566 112.551C111.576 112.534 111.59 112.52 111.606 112.509C111.623 112.497 111.641 112.49 111.66 112.486C111.68 112.482 111.7 112.483 111.719 112.487C111.738 112.49 111.757 112.496 111.774 112.507C111.791 112.517 111.805 112.531 111.816 112.547C111.827 112.563 111.835 112.582 111.839 112.601C111.843 112.621 111.842 112.641 111.838 112.66C110.175 122.454 109.68 125.852 110.294 132.052C110.786 136.245 111.492 140.409 112.41 144.53C112.828 146.539 113.251 148.613 113.603 150.664C116.858 168.829 116.244 189.265 111.772 211.405C111.77 211.44 111.754 211.473 111.729 211.497C111.703 211.521 111.67 211.535 111.635 211.537Z" fill="white"/>
<path d="M103.718 74.0059L103.426 74.5424C103.391 74.6064 103.34 74.6599 103.277 74.6974L102.735 74.9895L103.277 75.2816C103.34 75.3191 103.391 75.3726 103.426 75.4366L103.718 75.9731L104.016 75.4366C104.048 75.3702 104.1 75.3158 104.165 75.2816L104.702 74.9895L104.165 74.6974C104.1 74.6632 104.048 74.6088 104.016 74.5424L103.718 74.0059Z" fill="white"/>
<path d="M110.945 71.2041L110.796 71.4724C110.78 71.5048 110.755 71.5318 110.724 71.5499L110.45 71.6989L110.724 71.842C110.754 71.8616 110.778 71.8882 110.796 71.9195L110.945 72.1877L111.094 71.9195C111.109 71.887 111.134 71.86 111.165 71.842L111.434 71.6989L111.165 71.5499C111.133 71.5336 111.107 71.5061 111.094 71.4724L110.945 71.2041Z" fill="white"/>
<path d="M98.4251 71.6982L98.282 71.9665C98.2626 71.998 98.2361 72.0245 98.2046 72.044L97.9363 72.1871L98.2046 72.3361C98.2372 72.3541 98.2641 72.381 98.282 72.4136L98.4251 72.6819L98.5742 72.4136C98.5901 72.3795 98.6176 72.3521 98.6517 72.3361L98.9199 72.1871L98.6517 72.044C98.619 72.026 98.5921 71.9992 98.5742 71.9665L98.4251 71.6982Z" fill="white"/>
<path d="M97.1853 63.126L96.8932 63.6685C96.8556 63.731 96.8022 63.7825 96.7382 63.8175L96.2017 64.1096L96.7382 64.4077C96.8046 64.4393 96.859 64.4916 96.8932 64.5567L97.1853 65.0933L97.4774 64.5567C97.5116 64.4916 97.566 64.4393 97.6324 64.4077L98.1689 64.1096L97.6324 63.8175C97.5684 63.7825 97.5149 63.731 97.4774 63.6685L97.1853 63.126Z" fill="white"/>
<path d="M114.116 54.166L113.818 54.7085C113.784 54.772 113.732 54.824 113.669 54.8575L113.132 55.1497L113.669 55.4477C113.734 55.478 113.787 55.5309 113.818 55.5968L114.116 56.1333L114.408 55.5968C114.441 55.5332 114.493 55.4813 114.557 55.4477L115.099 55.1497L114.557 54.8575C114.496 54.8205 114.445 54.7694 114.408 54.7085L114.116 54.166Z" fill="white"/>
<path d="M109.717 51.0059L109.574 51.2741C109.556 51.3068 109.529 51.3337 109.496 51.3516L109.228 51.5007L109.496 51.6437C109.529 51.6617 109.556 51.6886 109.574 51.7212L109.717 51.9895L109.866 51.7212C109.882 51.6871 109.909 51.6597 109.943 51.6437L110.211 51.5007L109.943 51.3516C109.909 51.3357 109.882 51.3082 109.866 51.2741L109.717 51.0059Z" fill="white"/>
<path d="M105.919 54.9463L105.627 55.4888C105.59 55.5496 105.539 55.6007 105.478 55.6378L104.942 55.9299L105.478 56.228C105.542 56.2616 105.594 56.3135 105.627 56.377L105.919 56.9136L106.217 56.377C106.249 56.3123 106.302 56.2599 106.366 56.228L106.903 55.9299L106.366 55.6378C106.304 55.6024 106.253 55.5509 106.217 55.4888L105.919 54.9463Z" fill="white"/>
<path d="M111.857 64.1211L111.559 64.6576C111.527 64.7241 111.475 64.7785 111.41 64.8126L110.873 65.1047L111.41 65.3968C111.475 65.431 111.527 65.4854 111.559 65.5518L111.857 66.0884L112.149 65.5518C112.184 65.4879 112.236 65.4344 112.298 65.3968L112.841 65.1047L112.298 64.8126C112.236 64.7751 112.184 64.7216 112.149 64.6576L111.857 64.1211Z" fill="white"/>
<path d="M102.474 60.1572L102.325 60.4255C102.309 60.4596 102.281 60.487 102.247 60.503L101.979 60.652L102.247 60.7951C102.28 60.8131 102.307 60.8399 102.325 60.8726L102.474 61.1409L102.617 60.8726C102.636 60.8411 102.663 60.8146 102.694 60.7951L102.962 60.652L102.694 60.503C102.661 60.485 102.635 60.4581 102.617 60.4255L102.474 60.1572Z" fill="white"/>
<path d="M92.1652 61.1406L92.0162 61.4089C92.0002 61.443 91.9728 61.4704 91.9387 61.4864L91.6704 61.6354L91.9387 61.7785C91.9713 61.7965 91.9982 61.8233 92.0162 61.856L92.1652 62.1243L92.3083 61.856C92.3278 61.8245 92.3543 61.798 92.3858 61.7785L92.6541 61.6354L92.3858 61.4864C92.3531 61.4684 92.3263 61.4415 92.3083 61.4089L92.1652 61.1406Z" fill="white"/>
<path d="M97.8593 55.9307L97.7103 56.1989C97.6948 56.2314 97.6698 56.2584 97.6387 56.2764L97.3645 56.4255L97.6387 56.5685C97.6685 56.5882 97.693 56.6148 97.7103 56.646L97.8593 56.9143L98.0024 56.646C98.0218 56.6145 98.0484 56.588 98.0799 56.5685L98.3481 56.4255L98.0799 56.2764C98.0472 56.2585 98.0203 56.2316 98.0024 56.1989L97.8593 55.9307Z" fill="white"/>
<path d="M104.94 67.21L104.791 67.4842C104.773 67.5153 104.746 67.5402 104.714 67.5557L104.446 67.7048L104.714 67.8478C104.746 67.8658 104.773 67.8927 104.791 67.9253L104.94 68.1936L105.083 67.9253C105.103 67.8938 105.129 67.8673 105.161 67.8478L105.429 67.7048L105.161 67.5557C105.13 67.5385 105.103 67.514 105.083 67.4842L104.94 67.21Z" fill="white"/>
<path d="M111.004 60.0137L110.855 60.2819C110.842 60.3156 110.816 60.3432 110.784 60.3594L110.515 60.5085L110.784 60.6515C110.815 60.6696 110.84 60.6966 110.855 60.729L111.004 60.9973L111.153 60.729C111.17 60.6978 111.195 60.6712 111.225 60.6515L111.499 60.5085L111.225 60.3594C111.194 60.3414 111.169 60.3144 111.153 60.2819L111.004 60.0137Z" fill="white"/>
<path d="M104.703 102.274L104.411 102.811C104.375 102.876 104.321 102.93 104.256 102.966L103.719 103.258L104.256 103.55C104.321 103.586 104.375 103.64 104.411 103.705L104.703 104.242L104.995 103.705C105.031 103.64 105.084 103.586 105.15 103.55L105.687 103.258L105.15 102.966C105.084 102.93 105.031 102.876 104.995 102.811L104.703 102.274Z" fill="white"/>
<path d="M111.952 99.4609L111.803 99.7292C111.785 99.7603 111.757 99.7852 111.725 99.8007L111.457 99.9498L111.725 100.099C111.757 100.114 111.785 100.139 111.803 100.17L111.952 100.439L112.095 100.17C112.114 100.141 112.141 100.116 112.172 100.099L112.44 99.9498L112.172 99.8007C112.141 99.7835 112.114 99.759 112.095 99.7292L111.952 99.4609Z" fill="white"/>
<path d="M99.3785 99.9502L99.2295 100.218C99.2122 100.25 99.1877 100.276 99.1579 100.296L98.8896 100.439L99.1579 100.588C99.189 100.606 99.2139 100.633 99.2295 100.666L99.3785 100.934L99.5275 100.666C99.543 100.633 99.568 100.606 99.5991 100.588L99.8673 100.439L99.5991 100.296C99.5693 100.276 99.5448 100.25 99.5275 100.218L99.3785 99.9502Z" fill="white"/>
<path d="M115.117 82.4229L114.819 82.9594C114.783 83.0215 114.732 83.073 114.67 83.1084L114.133 83.4005L114.67 83.6986C114.733 83.7322 114.785 83.7841 114.819 83.8476L115.117 84.3842L115.409 83.8476C115.444 83.7855 115.496 83.734 115.558 83.6986L116.094 83.4005L115.558 83.1084C115.497 83.0713 115.446 83.0202 115.409 82.9594L115.117 82.4229Z" fill="white"/>
<path d="M110.7 79.2637L110.551 79.5319C110.535 79.5644 110.51 79.5914 110.479 79.6094L110.211 79.7585L110.479 79.9016C110.509 79.9212 110.534 79.9478 110.551 79.9791L110.7 80.2473L110.849 79.9791C110.866 79.9478 110.891 79.9212 110.92 79.9016L111.195 79.7585L110.944 79.6214C110.913 79.6033 110.888 79.5763 110.873 79.5439L110.7 79.2637Z" fill="white"/>
<path d="M106.903 83.1982L106.61 83.7348C106.575 83.7969 106.524 83.8484 106.461 83.8838L105.919 84.1759L106.461 84.474C106.524 84.5094 106.575 84.5609 106.61 84.623L106.903 85.1596L107.201 84.623C107.233 84.5583 107.285 84.5059 107.35 84.474L107.886 84.1759L107.35 83.8838C107.285 83.8519 107.233 83.7995 107.201 83.7348L106.903 83.1982Z" fill="white"/>
<path d="M112.84 92.3613L112.542 92.9038C112.507 92.9659 112.455 93.0174 112.393 93.0529L111.856 93.345L112.393 93.643C112.458 93.675 112.51 93.7273 112.542 93.7921L112.84 94.3286L113.132 93.7921C113.166 93.7286 113.218 93.6766 113.281 93.643L113.818 93.345L113.281 93.0529C113.22 93.0158 113.169 92.9647 113.132 92.9038L112.84 92.3613Z" fill="white"/>
<path d="M103.457 88.4141L103.308 88.6823C103.29 88.7134 103.263 88.7384 103.23 88.7539L102.962 88.9029L103.23 89.0519C103.263 89.0675 103.29 89.0924 103.308 89.1235L103.457 89.3917L103.6 89.1235C103.618 89.0924 103.645 89.0675 103.677 89.0519L103.946 88.9029L103.677 88.7539C103.645 88.7384 103.618 88.7134 103.6 88.6823L103.457 88.4141Z" fill="white"/>
<path d="M93.1498 89.3926L93.0008 89.6608C92.9848 89.6949 92.9574 89.7224 92.9233 89.7383L92.655 89.8874L92.9233 90.0305C92.9559 90.0484 92.9828 90.0753 93.0008 90.108L93.1498 90.3762L93.2929 90.108C93.3109 90.0753 93.3377 90.0484 93.3704 90.0305L93.6387 89.8874L93.3704 89.7383C93.3363 89.7224 93.3089 89.6949 93.2929 89.6608L93.1498 89.3926Z" fill="white"/>
<path d="M98.8425 84.1816L98.6934 84.4559C98.6754 84.487 98.6484 84.5119 98.6159 84.5274L98.3477 84.6764L98.6159 84.8255C98.6484 84.841 98.6754 84.8659 98.6934 84.897L98.8425 85.1653L98.9855 84.897C99.0052 84.8673 99.0318 84.8427 99.063 84.8255L99.3313 84.6764L99.063 84.5274C99.0318 84.5102 99.0052 84.4856 98.9855 84.4559L98.8425 84.1816Z" fill="white"/>
<path d="M105.919 95.4668L105.776 95.7351C105.756 95.7648 105.73 95.7894 105.698 95.8066L105.43 95.9556L105.698 96.1047C105.73 96.1219 105.756 96.1465 105.776 96.1762L105.919 96.4445L106.068 96.1762C106.086 96.1451 106.113 96.1202 106.146 96.1047L106.414 95.9556L106.146 95.8066C106.113 95.7911 106.086 95.7662 106.068 95.7351L105.919 95.4668Z" fill="white"/>
<path d="M111.987 88.2656L111.838 88.5339C111.823 88.5663 111.798 88.5933 111.767 88.6114L111.499 88.7604L111.767 88.9035C111.797 88.9232 111.821 88.9498 111.838 88.981L111.987 89.2493L112.136 88.981C112.154 88.9498 112.178 88.9232 112.208 88.9035L112.476 88.7604L112.208 88.6114C112.181 88.6015 112.156 88.5852 112.136 88.5637L111.987 88.2656Z" fill="white"/>
<path d="M85.7393 120.242L85.4471 120.785C85.4096 120.847 85.3561 120.899 85.2921 120.934L84.7556 121.226L85.2921 121.524C85.3586 121.555 85.413 121.608 85.4471 121.673L85.7393 122.209L86.0314 121.673C86.0655 121.608 86.1199 121.555 86.1864 121.524L86.7229 121.226L86.1864 120.934C86.1224 120.899 86.0689 120.847 86.0314 120.785L85.7393 120.242Z" fill="white"/>
<path d="M90.7825 118.02L90.6395 118.288C90.6214 118.319 90.5944 118.344 90.562 118.359L90.2937 118.508L90.562 118.657C90.5932 118.675 90.6198 118.699 90.6395 118.729L90.7825 119.003L90.9316 118.729C90.9496 118.698 90.9766 118.673 91.0091 118.657L91.2773 118.508L91.0091 118.359C90.9754 118.346 90.9478 118.32 90.9316 118.288L90.7825 118.02Z" fill="white"/>
<path d="M92.9467 99.998L92.6546 100.535C92.621 100.598 92.5691 100.65 92.5055 100.684L91.969 100.982L92.5055 101.274C92.5664 101.311 92.6175 101.362 92.6546 101.423L92.9467 101.965L93.2447 101.423C93.2802 101.361 93.3317 101.309 93.3938 101.274L93.9303 100.982L93.3938 100.684C93.3291 100.652 93.2767 100.599 93.2447 100.535L92.9467 99.998Z" fill="white"/>
<path d="M89.5366 97.8213L89.3875 98.0955C89.3695 98.1266 89.3425 98.1515 89.31 98.167L89.0417 98.3161L89.31 98.4592C89.3427 98.4771 89.3695 98.504 89.3875 98.5367L89.5366 98.8049L89.6796 98.5367C89.6991 98.5052 89.7256 98.4786 89.7571 98.4592L90.0254 98.3161L89.7571 98.167C89.7259 98.1498 89.6993 98.1253 89.6796 98.0955L89.5366 97.8213Z" fill="white"/>
<path d="M91.6709 110.925L91.3788 111.461C91.3417 111.522 91.2906 111.573 91.2297 111.61L90.6873 111.902L91.2297 112.201C91.2919 112.236 91.3433 112.287 91.3788 112.35L91.6709 112.886L91.969 112.35C92.0009 112.285 92.0533 112.232 92.118 112.201L92.6545 111.902L92.118 111.61C92.0545 111.577 92.0025 111.525 91.969 111.461L91.6709 110.925Z" fill="white"/>
<path d="M85.7389 112.791L85.5899 113.059C85.5725 113.089 85.5479 113.113 85.5184 113.131L85.2441 113.28L85.5184 113.429C85.5479 113.446 85.5725 113.471 85.5899 113.5L85.7389 113.769L85.888 113.5C85.9039 113.47 85.9288 113.445 85.9595 113.429L86.2278 113.28L85.9595 113.131C85.9288 113.115 85.9039 113.09 85.888 113.059L85.7389 112.791Z" fill="white"/>
<path d="M88.9351 106.114L88.7921 106.383C88.7726 106.414 88.7461 106.441 88.7146 106.46L88.4463 106.603L88.7146 106.752C88.7472 106.77 88.7741 106.797 88.7921 106.83L88.9351 107.098L89.0842 106.83C89.1001 106.796 89.1276 106.768 89.1617 106.752L89.4299 106.603L89.1617 106.46C89.129 106.442 89.1021 106.415 89.0842 106.383L88.9351 106.114Z" fill="white"/>
<path d="M109.276 127.128L108.984 127.664C108.947 127.728 108.894 127.78 108.829 127.813L108.292 128.112L108.829 128.404C108.893 128.439 108.946 128.49 108.984 128.553L109.276 129.089L109.568 128.553C109.605 128.49 109.659 128.439 109.723 128.404L110.259 128.112L109.723 127.813C109.658 127.78 109.604 127.728 109.568 127.664L109.276 127.128Z" fill="white"/>
<path d="M116.524 124.332L116.375 124.6C116.359 124.634 116.332 124.662 116.298 124.678L116.03 124.827L116.298 124.97C116.33 124.988 116.357 125.015 116.375 125.047L116.524 125.316L116.667 125.047C116.687 125.016 116.713 124.989 116.745 124.97L117.013 124.827L116.745 124.678C116.712 124.66 116.685 124.633 116.667 124.6L116.524 124.332Z" fill="white"/>
<path d="M103.951 124.821L103.802 125.09C103.785 125.119 103.76 125.144 103.731 125.161L103.462 125.31L103.731 125.459C103.76 125.477 103.785 125.501 103.802 125.531L103.951 125.799L104.1 125.531C104.118 125.501 104.142 125.477 104.172 125.459L104.44 125.31L104.172 125.161C104.142 125.144 104.118 125.119 104.1 125.09L103.951 124.821Z" fill="white"/>
<path d="M119.672 107.288L119.374 107.825C119.34 107.89 119.288 107.944 119.225 107.98L118.688 108.272L119.225 108.564C119.288 108.6 119.34 108.654 119.374 108.719L119.672 109.255L119.964 108.719C119.997 108.654 120.049 108.6 120.113 108.564L120.649 108.272L120.113 107.98C120.049 107.944 119.997 107.89 119.964 107.825L119.672 107.288Z" fill="white"/>
<path d="M111.475 108.069L111.183 108.606C111.147 108.671 111.094 108.725 111.028 108.761L110.491 109.053L111.028 109.345C111.094 109.381 111.147 109.435 111.183 109.5L111.475 110.037L111.767 109.5C111.803 109.435 111.857 109.381 111.922 109.345L112.459 109.053L111.922 108.761C111.857 108.725 111.803 108.671 111.767 108.606L111.475 108.069Z" fill="white"/>
<path d="M117.407 117.232L117.115 117.769C117.083 117.834 117.03 117.886 116.966 117.918L116.429 118.216L116.966 118.508C117.028 118.544 117.079 118.595 117.115 118.657L117.407 119.2L117.705 118.657C117.74 118.595 117.792 118.544 117.854 118.508L118.391 118.216L117.854 117.918C117.789 117.886 117.737 117.834 117.705 117.769L117.407 117.232Z" fill="white"/>
<path d="M108.024 113.279L107.88 113.548C107.861 113.579 107.834 113.606 107.803 113.625L107.535 113.768L107.803 113.917C107.836 113.935 107.862 113.962 107.88 113.995L108.024 114.263L108.173 113.995C108.189 113.961 108.216 113.933 108.25 113.917L108.518 113.768L108.25 113.625C108.217 113.607 108.191 113.58 108.173 113.548L108.024 113.279Z" fill="white"/>
<path d="M97.7152 114.263L97.5721 114.531C97.5526 114.562 97.5261 114.589 97.4946 114.608L97.2263 114.752L97.4946 114.901C97.5272 114.919 97.5541 114.945 97.5721 114.978L97.7152 115.246L97.8642 114.978C97.8802 114.944 97.9076 114.917 97.9417 114.901L98.21 114.752L97.9417 114.608C97.909 114.591 97.8822 114.564 97.8642 114.531L97.7152 114.263Z" fill="white"/>
<path d="M103.415 109.053L103.266 109.321C103.248 109.354 103.221 109.381 103.189 109.399L102.92 109.542L103.189 109.691C103.223 109.707 103.25 109.734 103.266 109.768L103.415 110.036L103.558 109.768C103.576 109.735 103.603 109.709 103.636 109.691L103.904 109.542L103.636 109.399C103.604 109.379 103.578 109.353 103.558 109.321L103.415 109.053Z" fill="white"/>
<path d="M110.492 120.332L110.349 120.6C110.331 120.633 110.304 120.66 110.271 120.678L110.003 120.827L110.271 120.97C110.303 120.989 110.329 121.016 110.349 121.047L110.492 121.316L110.641 121.047C110.659 121.015 110.686 120.988 110.718 120.97L110.987 120.827L110.718 120.678C110.684 120.662 110.657 120.634 110.641 120.6L110.492 120.332Z" fill="white"/>
<path d="M116.56 113.137L116.411 113.405C116.394 113.436 116.369 113.463 116.339 113.482L116.065 113.626L116.339 113.775C116.371 113.793 116.395 113.82 116.411 113.852L116.56 114.12L116.709 113.852C116.723 113.818 116.748 113.791 116.781 113.775L117.049 113.626L116.781 113.482C116.749 113.464 116.725 113.437 116.709 113.405L116.56 113.137Z" fill="white"/>
<path d="M124.06 106.03L123.911 106.299C123.893 106.331 123.866 106.358 123.833 106.376L123.565 106.519L123.833 106.668C123.868 106.684 123.895 106.712 123.911 106.746L124.06 107.014L124.203 106.746C124.221 106.713 124.248 106.686 124.281 106.668L124.549 106.519L124.281 106.376C124.249 106.357 124.223 106.33 124.203 106.299L124.06 106.03Z" fill="white"/>
<path d="M122.868 97.458L122.575 98.0005C122.54 98.0626 122.489 98.1141 122.426 98.1495L121.89 98.4416L122.426 98.7397C122.491 98.7716 122.544 98.824 122.575 98.8888L122.868 99.4253L123.166 98.8888C123.198 98.824 123.25 98.7716 123.315 98.7397L123.851 98.4416L123.315 98.1495C123.253 98.1141 123.201 98.0626 123.166 98.0005L122.868 97.458Z" fill="white"/>
<path d="M117.502 87.7764L117.353 88.0446C117.335 88.0759 117.311 88.1025 117.281 88.1221L117.013 88.2652L117.281 88.4142C117.312 88.4323 117.337 88.4593 117.353 88.4917L117.502 88.76L117.651 88.4917C117.666 88.4593 117.691 88.4323 117.722 88.4142L117.99 88.2652L117.722 88.1221C117.692 88.1025 117.668 88.0759 117.651 88.0446L117.502 87.7764Z" fill="white"/>
<path d="M117.842 95.4727L117.699 95.7409C117.681 95.7736 117.654 95.8005 117.621 95.8184L117.353 95.9675L117.621 96.1105C117.653 96.13 117.679 96.1565 117.699 96.188L117.842 96.4563L117.991 96.188C118.009 96.1554 118.036 96.1285 118.068 96.1105L118.336 95.9675L118.068 95.8184C118.034 95.8025 118.007 95.775 117.991 95.7409L117.842 95.4727Z" fill="white"/>
<path d="M123.534 90.2627L123.391 90.531C123.373 90.5636 123.346 90.5905 123.314 90.6085L123.045 90.7575L123.314 90.9006C123.345 90.92 123.372 90.9466 123.391 90.9781L123.534 91.2463L123.683 90.9781C123.701 90.9454 123.728 90.9185 123.761 90.9006L124.029 90.7575L123.761 90.6085C123.727 90.5925 123.699 90.5651 123.683 90.531L123.534 90.2627Z" fill="white"/>
<path d="M125.813 121.674L125.521 122.21C125.486 122.276 125.432 122.328 125.366 122.359L124.829 122.657L125.366 122.95C125.43 122.985 125.483 123.036 125.521 123.099L125.813 123.641L126.105 123.099C126.142 123.036 126.196 122.985 126.26 122.95L126.796 122.657L126.26 122.359C126.193 122.328 126.139 122.276 126.105 122.21L125.813 121.674Z" fill="white"/>
<path d="M120.793 119.688L120.644 119.957C120.627 119.989 120.6 120.015 120.566 120.028L120.298 120.177L120.566 120.326C120.599 120.342 120.626 120.367 120.644 120.398L120.793 120.672L120.936 120.398C120.955 120.368 120.982 120.344 121.013 120.326L121.281 120.177L121.013 120.028C120.981 120.013 120.954 119.988 120.936 119.957L120.793 119.688Z" fill="white"/>
<path d="M126.485 114.479L126.336 114.747C126.319 114.778 126.294 114.805 126.265 114.824L125.99 114.967L126.265 115.116C126.296 115.134 126.321 115.161 126.336 115.194L126.485 115.462L126.634 115.194C126.648 115.16 126.673 115.133 126.706 115.116L126.974 114.967L126.706 114.824C126.675 114.806 126.65 114.779 126.634 114.747L126.485 114.479Z" fill="white"/>
<path d="M82.7409 134.323L82.4487 134.866C82.4117 134.927 82.3606 134.978 82.2997 135.015L81.7632 135.307L82.2997 135.605C82.3632 135.639 82.4152 135.69 82.4487 135.754L82.7409 136.291L83.0389 135.754C83.0709 135.689 83.1232 135.637 83.188 135.605L83.7245 135.307L83.188 135.015C83.1258 134.979 83.0744 134.928 83.0389 134.866L82.7409 134.323Z" fill="white"/>
<path d="M99.0207 125.363L98.7286 125.906C98.6915 125.967 98.6404 126.018 98.5796 126.055L98.0371 126.347L98.5796 126.645C98.6431 126.679 98.695 126.731 98.7286 126.794L99.0207 127.331L99.3188 126.794C99.3491 126.728 99.402 126.675 99.4679 126.645L100.004 126.347L99.4679 126.055C99.4043 126.021 99.3524 125.969 99.3188 125.906L99.0207 125.363Z" fill="white"/>
<path d="M94.6039 122.21L94.4549 122.478C94.4389 122.512 94.4115 122.54 94.3774 122.556L94.1091 122.705L94.3774 122.848C94.4101 122.866 94.4369 122.893 94.4549 122.925L94.6039 123.194L94.747 122.925C94.7665 122.894 94.793 122.867 94.8245 122.848L95.0928 122.705L94.8484 122.544C94.8157 122.526 94.7888 122.499 94.7709 122.466L94.6039 122.21Z" fill="white"/>
<path d="M96.7383 135.308L96.4462 135.844C96.4111 135.908 96.3597 135.962 96.2971 135.999L95.7546 136.291L96.2971 136.583C96.3597 136.621 96.4111 136.674 96.4462 136.738L96.7383 137.275L97.0363 136.738C97.0679 136.672 97.1202 136.618 97.1854 136.583L97.7219 136.291L97.1854 135.999C97.1202 135.965 97.0679 135.911 97.0363 135.844L96.7383 135.308Z" fill="white"/>
<path d="M87.3548 131.354L87.2117 131.623C87.1938 131.655 87.1669 131.682 87.1342 131.7L86.866 131.849L87.1342 131.992C87.1657 132.012 87.1923 132.038 87.2117 132.07L87.3548 132.338L87.5038 132.07C87.5218 132.037 87.5487 132.01 87.5813 131.992L87.8496 131.849L87.5813 131.7C87.5472 131.684 87.5198 131.657 87.5038 131.623L87.3548 131.354Z" fill="white"/>
<path d="M84.4513 128.601L84.3023 128.869C84.2863 128.903 84.2589 128.93 84.2248 128.946L83.9565 129.089L84.2248 129.238C84.2589 129.254 84.2863 129.282 84.3023 129.316L84.4513 129.584L84.5944 129.316C84.6124 129.283 84.6393 129.256 84.6719 129.238L84.9402 129.089L84.6719 128.946C84.6393 128.928 84.6124 128.901 84.5944 128.869L84.4513 128.601Z" fill="white"/>
<path d="M89.8231 138.407L89.674 138.681C89.6566 138.711 89.632 138.736 89.6025 138.753L89.3342 138.902L89.6025 139.051C89.6332 139.067 89.6582 139.092 89.674 139.123L89.8231 139.391L89.9721 139.123C89.988 139.092 90.013 139.067 90.0436 139.051L90.3119 138.902L90.0436 138.753C90.0141 138.736 89.9895 138.711 89.9721 138.681L89.8231 138.407Z" fill="white"/>
<path d="M95.8915 131.212L95.7425 131.48C95.7265 131.514 95.6991 131.542 95.665 131.558L95.3967 131.707L95.665 131.85C95.6976 131.868 95.7245 131.895 95.7425 131.927L95.8915 132.196L96.0346 131.927C96.0541 131.896 96.0806 131.869 96.1121 131.85L96.3804 131.707L96.1121 131.558C96.0824 131.54 96.0578 131.516 96.0406 131.486L95.8915 131.212Z" fill="white"/>
<path d="M119.29 128.291L119.147 128.559C119.129 128.592 119.102 128.619 119.069 128.637L118.801 128.78L119.069 128.929C119.103 128.945 119.131 128.972 119.147 129.006L119.29 129.275L119.439 129.006C119.455 128.972 119.482 128.945 119.516 128.929L119.785 128.78L119.516 128.637C119.484 128.619 119.457 128.592 119.439 128.559L119.29 128.291Z" fill="white"/>
<path d="M115.504 132.226L115.206 132.768C115.171 132.83 115.119 132.882 115.057 132.917L114.521 133.209L115.057 133.501C115.121 133.537 115.173 133.591 115.206 133.656L115.504 134.193L115.797 133.656C115.832 133.592 115.883 133.539 115.946 133.501L116.482 133.209L115.946 132.917C115.885 132.88 115.834 132.829 115.797 132.768L115.504 132.226Z" fill="white"/>
<path d="M112.053 137.447L111.904 137.716C111.888 137.748 111.863 137.775 111.832 137.793L111.558 137.942L111.832 138.085C111.862 138.105 111.886 138.131 111.904 138.163L112.053 138.431L112.202 138.163C112.219 138.131 112.243 138.105 112.273 138.085L112.541 137.942L112.273 137.793C112.242 137.775 112.217 137.748 112.202 137.716L112.053 137.447Z" fill="white"/>
<path d="M107.438 133.209L107.289 133.477C107.274 133.51 107.249 133.537 107.218 133.555L106.949 133.704L107.218 133.847C107.247 133.867 107.272 133.893 107.289 133.924L107.438 134.193L107.587 133.924C107.605 133.893 107.629 133.867 107.659 133.847L107.927 133.704L107.659 133.555C107.628 133.537 107.603 133.51 107.587 133.477L107.438 133.209Z" fill="white"/>
<path d="M120.583 137.292L120.44 137.56C120.422 137.593 120.395 137.62 120.363 137.638L120.094 137.787L120.363 137.93C120.395 137.948 120.422 137.975 120.44 138.007L120.583 138.276L120.732 138.007C120.748 137.973 120.776 137.946 120.81 137.93L121.078 137.787L120.81 137.638C120.776 137.622 120.748 137.594 120.732 137.56L120.583 137.292Z" fill="white"/>
<path d="M90.5203 43.2568C90.1865 43.4834 88.2311 43.853 85.316 47.4716C82.7048 50.7027 70.2573 63.5198 70.6687 68.0148C71.0323 72.0328 87.9569 84.7546 87.9569 84.7546L90.7528 80.8796L80.0937 66.8106L90.1626 57.7015L90.5203 43.2568Z" fill="#DB8C7E"/>
<path d="M90.2825 81.5584C90.2825 81.5584 92.7147 78.1306 93.752 77.91C94.7893 77.6895 99.5227 78.2677 99.6122 78.9414C99.6229 79.0336 99.6149 79.1271 99.5886 79.2163C99.5624 79.3054 99.5185 79.3883 99.4595 79.4601C99.4005 79.5319 99.3277 79.591 99.2454 79.634C99.163 79.677 99.0728 79.703 98.9802 79.7104L100.173 81.0636C100.173 81.0636 100.173 81.469 99.63 81.5584C99.63 81.5584 99.5823 82.548 99.0339 82.5957C98.1273 82.4606 97.2366 82.2349 96.3751 81.9221L98.1277 83.1144C98.1277 83.1144 98.402 83.5615 97.0487 83.4303C96.7055 83.4265 96.3667 83.3526 96.053 83.2132C95.7393 83.0737 95.4574 82.8718 95.2245 82.6196C95.2245 82.6196 92.0888 85.2784 90.5567 85.2784C89.6707 85.289 88.7934 85.1038 87.9873 84.7359L90.2825 81.5584Z" fill="#DB8C7E"/>
<path opacity="0.2" d="M89.054 58.7325L86.8125 54.166L87.6352 60.0142L89.054 58.7325Z" fill="black"/>
</g>
<path d="M136.717 27.1509C140.322 25.442 141.86 21.1337 140.151 17.5282C138.442 13.9227 134.134 12.3852 130.528 14.0942C126.923 15.8031 125.385 20.1113 127.094 23.7168C128.803 27.3224 133.111 28.8598 136.717 27.1509Z" fill="#FFC100"/>
<path d="M128.869 23.6973L128.497 25.5201L126.149 25.5593L126.968 23.4033L128.869 23.6973Z" fill="#FFC100"/>
<path d="M125.957 16.4137H125.918C125.894 16.4027 125.876 16.3829 125.867 16.3587C125.859 16.3345 125.86 16.3078 125.87 16.2844C126.368 15.1986 127.125 14.2518 128.074 13.5272C129.024 12.8027 130.137 12.3226 131.315 12.1292C131.341 12.125 131.368 12.1314 131.389 12.1468C131.411 12.1622 131.425 12.1855 131.429 12.2115C131.433 12.2375 131.427 12.2641 131.411 12.2854C131.396 12.3067 131.373 12.321 131.347 12.3252C130.2 12.5122 129.117 12.9783 128.193 13.6824C127.269 14.3865 126.532 15.3069 126.047 16.3628C126.038 16.3788 126.025 16.3921 126.009 16.4011C125.993 16.4101 125.975 16.4145 125.957 16.4137Z" fill="#FFC100"/>
<path d="M125.255 18.4362C125.242 18.4352 125.23 18.4317 125.218 18.4259C125.207 18.42 125.196 18.4119 125.188 18.4021C125.18 18.3922 125.173 18.3808 125.169 18.3685C125.165 18.3562 125.164 18.3433 125.165 18.3304C125.194 17.9582 125.301 17.5963 125.478 17.2681C125.485 17.2567 125.493 17.2467 125.503 17.2386C125.513 17.2305 125.525 17.2244 125.537 17.2208C125.549 17.2171 125.562 17.216 125.575 17.2174C125.588 17.2188 125.6 17.2227 125.612 17.2289C125.634 17.242 125.65 17.2631 125.658 17.2878C125.665 17.3125 125.662 17.3391 125.651 17.3622C125.487 17.6664 125.388 18.0015 125.361 18.3461C125.36 18.359 125.356 18.3715 125.351 18.383C125.345 18.3946 125.337 18.4048 125.327 18.4132C125.317 18.4216 125.305 18.4279 125.293 18.4319C125.281 18.4358 125.268 18.4373 125.255 18.4362Z" fill="#FFC100"/>
<g opacity="0.6">
<path d="M136.717 27.1509C140.322 25.442 141.86 21.1337 140.151 17.5282C138.442 13.9227 134.134 12.3852 130.528 14.0942C126.923 15.8031 125.385 20.1113 127.094 23.7168C128.803 27.3224 133.111 28.8598 136.717 27.1509Z" fill="white"/>
<path d="M128.869 23.6973L128.497 25.5201L126.149 25.5593L126.968 23.4033L128.869 23.6973Z" fill="white"/>
</g>
<path d="M136.717 18.4757C136.491 18.296 136.221 18.178 135.935 18.1333C135.65 18.0887 135.357 18.1189 135.087 18.2209C134.68 18.3763 134.329 18.6492 134.079 19.0049C133.911 19.2228 133.778 19.4663 133.687 19.7262C133.594 19.467 133.462 19.2237 133.295 19.0049C133.045 18.6492 132.694 18.3763 132.288 18.2209C132.016 18.1193 131.723 18.0893 131.437 18.134C131.151 18.1786 130.881 18.2963 130.653 18.4757C130.433 18.6965 130.278 18.9732 130.204 19.2758C130.13 19.5784 130.14 19.8954 130.234 20.1927C130.415 20.8135 130.734 21.3856 131.167 21.8665C131.863 22.7473 132.724 23.4837 133.703 24.0343C134.684 23.4877 135.546 22.7508 136.239 21.8665C136.672 21.3856 136.99 20.8135 137.172 20.1927C137.262 19.8924 137.267 19.5731 137.186 19.2701C137.106 18.9672 136.944 18.6923 136.717 18.4757Z" fill="#FFC100"/>
<path d="M138.444 41.0716C138.444 41.0716 136.817 39.6707 136.703 37.9001C136.59 36.1296 136 34.7465 136 33.4231C136 32.0996 137.162 33.4588 137.633 34.3054C138.104 35.1519 138.653 36.0938 139.225 35.6586C139.797 35.2234 142.14 29.3275 143.011 28.791C143.881 28.2545 143.804 29.3216 143.804 29.3216C143.804 29.3216 144.4 27.9147 145.032 28.0041C145.193 28.0041 145.532 28.3439 145.359 29.0354C144.966 30.5794 143.965 33.7748 143.965 33.7748C144.018 33.59 145.532 29.7329 145.836 29.1845C146.23 28.4691 146.778 28.3379 147.19 28.5883C147.786 28.9341 146.057 33.7867 146.129 34.0431C146.129 34.0431 147.023 31.2173 147.875 31.0623C148.728 30.9073 148.269 32.7077 147.553 34.2219C146.898 35.6169 145.979 38.5141 145.169 39.8614C144.179 41.5247 140.659 46.2957 141 43C139.954 42.8748 139.298 41.6893 138.444 41.0716Z" fill="#DB8C7E"/>
</g>
<defs>
<clipPath id="clip0_512_36957">
<rect width="210" height="140" fill="white"/>
</clipPath>
</defs>
</svg>
