<svg width="210" height="140" viewBox="0 0 210 140" fill="none" xmlns="http://www.w3.org/2000/svg">
<path d="M112.18 21.6172L113.166 11.6123L104.397 12.1628C104.397 12.1628 102.726 19.0632 107.527 22.4045C107.228 24.1329 107.374 24.915 108 26C112.078 25.4171 113.988 24.917 112.18 21.6172Z" fill="#EAB276"/>
<path d="M110.439 5L104 6.97154L104.397 12.1628L113.166 11.6123L110.439 5Z" fill="#EAB276"/>
<path d="M152.188 33.3242C152.188 33.3242 155.785 29.0547 151.164 25.2909C149.096 23.6138 144.327 15.7405 144.327 15.7405C143.459 16.3276 142.84 17.2178 142.593 18.2369C140.754 16.7105 139.053 15.0248 137.51 13.1992C137.51 13.1992 131.903 16.707 131.711 19.197L128.152 16.0797C128.152 16.0797 128.491 25.3997 133.132 26.8912C137.773 28.3826 142.58 27.8257 140.993 34.15C139.405 40.4743 142.727 42.657 142.727 42.657L142.977 48.9557C142.977 48.9557 148.738 48.4116 151.618 42.0553C154.499 35.699 152.188 33.3242 152.188 33.3242Z" fill="#263238"/>
<path fill-rule="evenodd" clip-rule="evenodd" d="M168.105 20.9268C191.567 32.4217 215.247 49.4027 207.589 70.2943C200.139 90.6183 162.548 97.389 135.662 109.431C108.934 121.403 84.2607 142.005 55.5774 138.38C25.569 134.589 14.1079 112.587 5.95784 93.0426C-2.13017 73.6473 7.45718 58.703 21.5561 44.802C36.1671 30.3962 42.1132 32.6302 72.0565 30.3018C98.1854 28.2701 148.493 11.3187 168.105 20.9268Z" fill="#FFECB2"/>
<mask id="mask0_512_37534" style="mask-type:alpha" maskUnits="userSpaceOnUse" x="3" y="18" width="207" height="121">
<path fill-rule="evenodd" clip-rule="evenodd" d="M168.105 20.9268C191.567 32.4217 215.248 49.4027 207.59 70.2943C200.139 90.6183 162.548 97.389 135.662 109.431C108.934 121.403 84.2609 142.005 55.5777 138.38C25.5692 134.589 14.1082 112.587 5.95808 93.0426C-2.12993 73.6473 7.45742 58.703 21.5564 44.802C36.1673 30.3962 42.1134 32.6302 72.0567 30.3018C98.1856 28.2701 148.493 11.3187 168.105 20.9268Z" fill="#FFECB2"/>
</mask>
<g mask="url(#mask0_512_37534)">
<path d="M151.016 62.6621L155.379 63.2598L146.739 126.336L142.376 125.738L151.016 62.6621Z" fill="#263238"/>
<path d="M178.302 62.665L182.665 63.2627L174.024 126.339L169.661 125.741L178.302 62.665Z" fill="#263238"/>
<g opacity="0.3">
<path d="M151.017 62.6621L155.38 63.2598L146.74 126.336L142.376 125.738L151.017 62.6621Z" fill="white"/>
</g>
<g opacity="0.4">
<path d="M178.302 62.665L182.665 63.2627L174.025 126.339L169.661 125.741L178.302 62.665Z" fill="white"/>
</g>
<path d="M148.052 84.0474H180.953C181.82 84.0467 182.656 83.7306 183.306 83.158C183.957 82.5855 184.376 81.7958 184.487 80.9365L186.823 62.6934C186.872 62.3053 186.838 61.9113 186.723 61.5374C186.608 61.1635 186.415 60.8183 186.157 60.5247C185.898 60.2311 185.58 59.9958 185.224 59.8345C184.867 59.6731 184.481 59.5894 184.09 59.5889H151.188C150.321 59.5882 149.484 59.9039 148.834 60.4767C148.183 61.0494 147.764 61.8399 147.655 62.6998L145.318 80.9237C145.266 81.3133 145.298 81.7094 145.412 82.0856C145.525 82.4619 145.718 82.8095 145.977 83.1053C146.236 83.401 146.555 83.6381 146.912 83.8006C147.27 83.9631 147.659 84.0472 148.052 84.0474Z" fill="#263238"/>
<path opacity="0.6" d="M148.052 84.0474H180.953C181.82 84.0467 182.656 83.7306 183.306 83.158C183.957 82.5855 184.376 81.7958 184.487 80.9365L186.823 62.6934C186.872 62.3053 186.838 61.9113 186.723 61.5374C186.608 61.1635 186.415 60.8183 186.157 60.5247C185.898 60.2311 185.58 59.9958 185.224 59.8345C184.867 59.6731 184.481 59.5894 184.09 59.5889H151.188C150.321 59.5882 149.484 59.9039 148.834 60.4767C148.183 61.0494 147.764 61.8399 147.655 62.6998L145.318 80.9237C145.266 81.3133 145.298 81.7094 145.412 82.0856C145.525 82.4619 145.718 82.8095 145.977 83.1053C146.236 83.401 146.555 83.6381 146.912 83.8006C147.27 83.9631 147.659 84.0472 148.052 84.0474Z" fill="white"/>
<path d="M147.738 172.19H141.6L140.844 139.75L140.531 126.045H148.801L148.487 139.75L147.738 172.19Z" fill="#263238"/>
<path opacity="0.4" d="M147.738 172.19H141.6L140.844 139.75L140.531 126.045H148.801L148.487 139.75L147.738 172.19Z" fill="white"/>
<path opacity="0.2" d="M140.531 126.045L140.844 140.127H148.487L148.801 126.045H140.531Z" fill="black"/>
<path d="M116.398 172.19L119.068 127.011H126.256L122.524 172.19H116.398Z" fill="#263238"/>
<path opacity="0.5" d="M122.531 172.19H116.405L118.671 133.701L119.068 126.922H126.256L125.699 133.701L122.531 172.19Z" fill="white"/>
<path opacity="0.2" d="M126.256 126.922L125.706 133.963H118.671L119.068 126.922H126.256Z" fill="black"/>
<path d="M166.814 172.19L163.076 127.011H170.27L172.94 172.19H166.814Z" fill="#263238"/>
<path opacity="0.5" d="M166.807 172.19L163.638 133.701L163.081 126.922H170.27L170.666 133.701L172.932 172.19H166.807Z" fill="white"/>
<path opacity="0.2" d="M163.081 126.922L163.638 133.963H170.666L170.269 126.922H163.081Z" fill="black"/>
<path d="M170.987 119.291H118.358C117.526 119.291 116.728 119.621 116.14 120.21C115.552 120.798 115.221 121.596 115.221 122.428V129.584H174.111V122.434C174.113 121.603 173.785 120.806 173.199 120.216C172.614 119.627 171.818 119.294 170.987 119.291Z" fill="#263238"/>
<path d="M113.652 124.438H175.685C176.382 124.438 176.946 125.002 176.946 125.699V128.323C176.946 129.019 176.382 129.584 175.685 129.584H113.652C112.956 129.584 112.391 129.019 112.391 128.323V125.699C112.391 125.002 112.956 124.438 113.652 124.438Z" fill="#263238"/>
<path opacity="0.6" d="M113.652 124.438H175.685C176.382 124.438 176.946 125.002 176.946 125.699V128.323C176.946 129.019 176.382 129.584 175.685 129.584H113.652C112.956 129.584 112.391 129.019 112.391 128.323V125.699C112.391 125.002 112.956 124.438 113.652 124.438Z" fill="white"/>
<path d="M128.618 50.8763C128.618 50.8763 117.96 40.2825 116.456 35.9809C114.952 31.6794 112.225 21.0088 112.225 21.0088L107.047 22.0458C107.047 22.0458 108.967 34.6879 110.023 38.0485C111.079 41.4091 122.505 57.2517 122.505 57.2517L128.618 50.8763Z" fill="#E8B276"/>
<path opacity="0.2" d="M121.347 43.042L115.867 47.766L117.82 50.6209L123.946 45.9289L121.347 43.042Z" fill="black"/>
<path d="M116.264 49.8201L124.131 43.7646L124.272 43.8735C124.317 43.9055 124.374 43.9567 124.445 44.0015C124.675 44.1807 125.014 44.4432 125.418 44.7824L125.814 45.1025L125.917 45.1921L126.333 45.5506L126.883 46.0434C127.908 46.9588 133.361 51.5292 134.225 52.643C134.373 52.8478 134.52 53.0398 134.648 53.2383C134.922 53.6231 135.16 54.0324 135.358 54.4609C135.385 54.5254 135.406 54.5917 135.422 54.6593C135.444 54.7016 135.459 54.7469 135.467 54.7937C135.501 54.8846 135.525 54.9791 135.538 55.0754C135.556 55.145 135.571 55.2155 135.582 55.2866C135.582 55.3442 135.582 55.3954 135.582 55.4594C135.582 55.5234 135.582 55.6899 135.621 55.8179C135.659 55.9459 135.621 56.0803 135.621 56.2276C135.621 56.3748 135.621 56.4964 135.621 56.6372C135.621 56.6756 135.621 56.7141 135.621 56.7525C135.621 56.8613 135.621 56.9637 135.621 57.0661C135.621 57.1685 135.621 57.3734 135.576 57.527C135.531 57.6806 135.576 57.8342 135.525 57.9943C135.474 58.1543 135.486 58.3207 135.454 58.4808C134.731 62.9615 127.773 65.4003 125.757 64.2929C121.711 62.0654 117.768 53.4431 116.584 50.6586C116.386 50.1401 116.264 49.8201 116.264 49.8201Z" fill="#FFC100"/>
<path d="M115.592 49.372L123.517 42.4844L124.65 43.2845L125.046 43.5598L124.483 44.0334L124.425 44.0846L116.629 50.697L116.418 50.8762L115.592 49.372Z" fill="#FFC100"/>
<path opacity="0.2" d="M127.223 64.6133C126.734 64.6438 126.245 64.5513 125.802 64.3445C124.399 63.4607 123.193 62.2997 122.255 60.9327C123.452 59.3802 124.984 58.1178 126.736 57.2393C128.72 59.6589 127.984 62.1937 127.223 64.6133Z" fill="black"/>
<path d="M97.0865 113.581C103.545 105.061 128.292 104.197 128.292 104.197C128.292 104.197 160.937 118.76 142.425 119.726C139.519 119.88 134.891 119.694 132.248 119.822C118.069 120.539 110.996 121.397 108.871 124.438C106.983 127.158 113.55 166.928 113.55 166.928H107.808C107.808 166.928 91.1655 121.416 97.0865 113.581Z" fill="#EAB276"/>
<path d="M116.437 124.438C121.007 123.797 130.346 122.274 137.496 121.909L145.818 121.499C164.336 120.526 125.667 101.739 125.667 101.739C125.667 101.739 112.545 103.058 102.86 106.931C107.891 111.77 112.673 120.482 116.437 124.438Z" fill="#C1C1C1"/>
<path d="M163.831 98.3789C163.831 98.3789 172.024 121.583 148.776 121.583C125.527 121.583 123.677 112.525 125.642 101.861L163.831 98.3789Z" fill="#FFC100"/>
<path d="M166.059 102.918C166.059 102.918 161.808 71.7061 158.845 65.2987C155.881 58.8912 151.099 50.1409 130.385 55.2105C130.385 55.2105 122.531 57.4189 123.869 67.1038C125.207 76.7886 125.655 101.906 125.655 101.906L166.059 102.918Z" fill="#FFC100"/>
<path d="M133.54 61.0095L131.14 57.1241L127.843 61.0095C127.843 61.0095 128.772 50.6974 140.761 50.4605C142.081 50.3692 143.395 50.7188 144.495 51.4544C145.596 52.19 146.421 53.2701 146.842 54.5252C144.736 57.9178 139.16 61.6112 139.16 61.6112L136.946 58.2506L133.54 61.0095Z" fill="#FFC100"/>
<path d="M142.873 41.7236C142.545 44.0683 142.448 46.4396 142.585 48.8032C142.64 50.3908 142.998 51.9533 143.642 53.4056C143.642 53.4056 140.441 56.5101 137.548 57.1695L134.347 59.5379L134.558 56.3373C134.558 56.3373 134.558 56.1709 134.597 55.8828C134.674 54.6026 134.597 50.698 131.019 49.2257C126.135 47.1518 142.873 41.7236 142.873 41.7236Z" fill="#EAB276"/>
<path opacity="0.2" d="M142.873 41.7236C142.544 44.0683 142.448 46.4396 142.585 48.8032C140.556 51.8245 137.951 54.7178 134.603 55.8444C134.68 54.5642 134.603 50.6595 131.025 49.1873C126.134 47.1517 142.873 41.7236 142.873 41.7236Z" fill="black"/>
<path opacity="0.2" d="M124.842 78.6128C124.893 79.6498 124.951 80.7188 125.008 81.7813C125.124 84.2458 125.226 86.7294 125.309 89.0658C125.309 89.469 125.309 89.8787 125.361 90.2756C151.701 89.0722 155.817 69.6129 155.817 69.6129C155.817 69.6129 148.981 62.4756 145.146 63.2502C141.312 64.0247 132.613 74.5225 132.613 74.5225L132.978 75.9755C131.979 77.0701 127.102 78.1583 124.842 78.6128Z" fill="black"/>
<path d="M109.781 63.1985L111.328 63.7959L104.27 82.0675L102.724 81.4701L109.781 63.1985Z" fill="#263238"/>
<path d="M102.84 75.5657L105.062 74.6312C105.473 74.4564 105.92 74.3826 106.365 74.416C106.811 74.4494 107.242 74.5891 107.622 74.8232L111.232 77.0444C111.942 77.4823 112.537 78.0839 112.967 78.7988C113.397 79.5138 113.649 80.3213 113.703 81.1539L113.773 82.1972C110.202 84.0023 105.004 83.3238 105.004 83.3238L103.506 83.2918C103.197 83.2952 102.891 83.2372 102.605 83.1213C102.319 83.0053 102.059 82.8336 101.84 82.6163C101.621 82.3989 101.447 82.1401 101.328 81.855C101.21 81.5699 101.15 81.2641 101.15 80.9554V77.9789C101.167 77.4559 101.335 76.9489 101.635 76.5202C101.936 76.0916 102.354 75.7598 102.84 75.5657Z" fill="#EAB276"/>
<path d="M143.174 67.2441C143.174 67.2441 131.281 78.5164 128.759 78.3884L111.982 77.5435L112.545 82.4147C112.474 82.4147 127.607 85.1736 131.646 84.6679C135.672 85.3848 148.82 72.173 148.82 72.173L143.174 67.2441Z" fill="#E8B276"/>
<path opacity="0.2" d="M136.811 82.5046L132.785 76.1867L135.057 74.4072L139.404 80.6035L136.811 82.5046Z" fill="black"/>
<path d="M152.289 58.6471C146.388 53.1998 134.411 73.504 134.411 73.504L141.657 82.4335C141.657 82.4335 165.079 70.4443 152.289 58.6471Z" fill="#FFC100"/>
<path d="M143.174 82.8371L134.411 72.1729L132.785 74.5413L140.364 84.6038L143.174 82.8371Z" fill="#FFC100"/>
<path d="M130.417 23.083C130.417 23.083 125.386 25.9379 126.243 31.6925C127.101 37.4471 136.485 27.6598 136.485 27.6598L130.417 23.083Z" fill="#263238"/>
<path d="M149.697 38.1835C146.163 45.0583 144.499 49.2766 138.924 51.1649C130.532 54.0326 122.089 46.5753 123.228 38.6892C124.214 31.584 129.834 21.5535 138.84 22.0784C147.847 22.6033 153.217 31.328 149.697 38.1835Z" fill="#EAB276"/>
<path d="M135.973 37.2873C135.73 38.017 135.134 38.4843 134.654 38.3114C134.174 38.1386 134.014 37.4217 134.245 36.692C134.475 35.9622 135.09 35.5014 135.57 35.6678C136.05 35.8342 136.197 36.5575 135.973 37.2873Z" fill="#263238"/>
<path d="M128.931 33.5036C128.681 34.2333 128.086 34.7006 127.613 34.5278C127.139 34.355 126.972 33.6317 127.203 32.9019C127.433 32.1722 128.041 31.7177 128.521 31.8778C129.002 32.0378 129.168 32.7739 128.931 33.5036Z" fill="#263238"/>
<path d="M136.152 31.481C136.116 31.394 136.105 31.2987 136.12 31.2058C136.161 31.0916 136.245 30.9977 136.353 30.9439C136.462 30.8902 136.587 30.8808 136.703 30.9177C137.394 31.1229 138.025 31.4937 138.54 31.9979C139.055 32.5021 139.44 33.1245 139.66 33.811C139.675 33.8682 139.679 33.9278 139.672 33.9865C139.664 34.0452 139.645 34.1018 139.615 34.153C139.585 34.2042 139.545 34.249 139.498 34.2848C139.451 34.3206 139.397 34.3466 139.34 34.3615C139.224 34.3895 139.101 34.3719 138.998 34.3123C138.894 34.2528 138.817 34.1559 138.783 34.0415C138.594 33.4984 138.277 33.0092 137.858 32.6157C137.438 32.2222 136.93 31.9361 136.376 31.7819C136.321 31.7491 136.273 31.7056 136.234 31.6539C136.196 31.6023 136.168 31.5435 136.152 31.481Z" fill="#263238"/>
<path d="M127.242 28.0118C127.161 27.9635 127.097 27.8922 127.056 27.807C127.02 27.6915 127.03 27.5664 127.086 27.4586C127.141 27.3508 127.236 27.269 127.351 27.2309C128.031 26.9933 128.759 26.9234 129.472 27.027C130.185 27.1307 130.863 27.4048 131.448 27.8262C131.495 27.863 131.535 27.9089 131.564 27.9614C131.593 28.0138 131.612 28.0716 131.618 28.1313C131.625 28.191 131.619 28.2514 131.602 28.309C131.585 28.3665 131.556 28.42 131.518 28.4663C131.44 28.5565 131.33 28.6139 131.212 28.627C131.093 28.64 130.974 28.6078 130.878 28.5367C130.405 28.2086 129.86 28 129.29 27.9286C128.719 27.8573 128.139 27.9254 127.6 28.127C127.536 28.1341 127.471 28.1275 127.409 28.1077C127.347 28.0878 127.29 28.0552 127.242 28.0118Z" fill="#263238"/>
<path d="M129.976 36.0967L127.281 37.012C127.281 37.012 127.537 38.0682 129.489 38.99L129.976 36.0967Z" fill="#D48645"/>
<path d="M152.091 33.3252C152.091 33.3252 155.689 29.0557 151.067 25.2919C148.999 23.6148 144.231 15.7414 144.231 15.7414C143.362 16.3286 142.743 17.2188 142.496 18.2379C140.657 16.7115 138.956 15.0258 137.413 13.2002C137.413 13.2002 131.806 16.708 131.614 19.198L128.055 16.0807C128.055 16.0807 128.394 25.4007 133.035 26.8921C137.676 28.3836 142.483 27.8267 140.896 34.151C139.308 40.4752 142.63 42.658 142.63 42.658L142.88 48.9567C142.88 48.9567 148.641 48.4126 151.521 42.0563C154.402 35.7 152.091 33.3252 152.091 33.3252Z" fill="#263238"/>
<path d="M141.772 40.5521C141.772 40.5521 144.832 37.0251 146.535 38.9839C148.237 40.9426 145.645 47.6317 142.508 46.6332C139.372 45.6346 139.653 42.2996 141.772 40.5521Z" fill="#EAB276"/>
<path d="M128.01 41.1918C128.224 42.2472 128.361 43.3169 128.419 44.3923L128.989 44.4499C131.55 44.6996 132.83 43.9634 133.47 43.0673C133.932 42.3622 134.134 41.5176 134.04 40.6797C132.593 41.3646 130.199 41.3198 128.88 41.243C128.349 41.2366 128.01 41.1918 128.01 41.1918Z" fill="#263238"/>
<path d="M128.893 41.2625L129.04 42.2099C131.466 42.4339 133.207 42.2675 134.039 41.6082C134.082 41.3067 134.082 41.0007 134.039 40.6992C132.606 41.3841 130.212 41.3393 128.893 41.2625Z" fill="white"/>
<path d="M128.99 44.4696C131.55 44.7192 132.83 43.9831 133.47 43.0869C132.488 43.0115 131.499 43.1112 130.552 43.3814C129.931 43.574 129.385 43.9541 128.99 44.4696Z" fill="#DD5753"/>
<path opacity="0.2" d="M131.173 104.197L116.45 108.115L118.14 109.965C118.14 109.965 116.86 110.445 114.671 114.317C112.481 118.19 113.48 120.571 113.48 120.571L116.45 124.412L130.705 122.677L131.173 104.197Z" fill="black"/>
<path d="M117.122 116.513C120.739 111.738 131.973 107.379 139.526 106.169L147.694 120.149C136.28 120.616 129.438 123.381 129.175 124.438C127.953 129.501 136.517 166.928 136.517 166.928H129.572C129.572 166.928 110.663 125.033 117.122 116.513Z" fill="#EAB276"/>
<path d="M134.891 125.686C141.815 124.571 148.646 122.934 155.323 120.79C157.096 120.207 158.684 114.126 158.249 111.111C156.738 100.524 134.308 102.38 134.308 102.38C129.32 104.604 124.473 107.136 119.797 109.959C124.233 115.182 130.756 120.418 134.891 125.686Z" fill="#C1C1C1"/>
<path d="M88.9497 81.7872C91.1197 81.7168 96.535 82.1137 96.535 82.1137L99.0442 81.1855C99.0442 81.1855 111.706 83.1571 113.127 83.0674C114.548 82.9778 118.433 84.4821 118.433 84.4821L90.4924 85.7367L88.9497 81.7872Z" fill="#FFC100"/>
<path opacity="0.9" d="M88.9497 81.7872C91.1197 81.7168 96.535 82.1137 96.535 82.1137L99.0442 81.1855C99.0442 81.1855 111.706 83.1571 113.127 83.0674C114.548 82.9778 118.433 84.4821 118.433 84.4821L90.4924 85.7367L88.9497 81.7872Z" fill="white"/>
<path d="M82.8437 84.457C82.8437 84.457 87.7214 79.829 92.2534 82.7031C92.2534 82.7031 98.3152 79.2337 104.524 82.7031L112.794 84.1625L82.8437 84.457Z" fill="#FFC100"/>
<path opacity="0.7" d="M82.8437 84.457C82.8437 84.457 87.7214 79.829 92.2534 82.7031C92.2534 82.7031 98.3152 79.2337 104.524 82.7031L112.794 84.1625L82.8437 84.457Z" fill="white"/>
<path d="M124.687 171.742H127.792L129.149 89.6416H123.33L124.687 171.742Z" fill="#CDCCCA"/>
<path d="M90.4481 171.742H93.5526L94.9097 89.6416H89.0911L90.4481 171.742Z" fill="#CDCCCA"/>
<path d="M67.705 88.2656H126.243V107.578H67.705V88.2656Z" fill="#CDCCCA"/>
<path d="M33.3756 88.2656H67.7046V107.578H33.3756V88.2656Z" fill="#AEADAB"/>
<path d="M31.91 171.742H35.0081L36.3716 89.6416H30.5466L31.91 171.742Z" fill="#AEADAB"/>
<path d="M28.6965 84.1367H74.4451C75.3819 84.1367 76.1414 84.8962 76.1414 85.833V87.9454C76.1414 88.8822 75.3819 89.6417 74.4451 89.6417H28.6965C27.7597 89.6417 27.0002 88.8822 27.0002 87.9454V85.833C27.0002 84.8962 27.7597 84.1367 28.6965 84.1367Z" fill="#263238"/>
<path opacity="0.4" d="M28.6965 84.1367H74.4451C75.3819 84.1367 76.1414 84.8962 76.1414 85.833V87.9454C76.1414 88.8822 75.3819 89.6417 74.4451 89.6417H28.6965C27.7597 89.6417 27.0002 88.8822 27.0002 87.9454V85.833C27.0002 84.8962 27.7597 84.1367 28.6965 84.1367Z" fill="white"/>
<path d="M70.1888 84.1367H132.279C133.216 84.1367 133.976 84.8962 133.976 85.833V87.9454C133.976 88.8822 133.216 89.6417 132.279 89.6417H70.1888C69.2519 89.6417 68.4925 88.8822 68.4925 87.9454V85.833C68.4925 84.8962 69.2519 84.1367 70.1888 84.1367Z" fill="#263238"/>
<path opacity="0.3" d="M70.1888 84.1367H132.279C133.216 84.1367 133.976 84.8962 133.976 85.833V87.9454C133.976 88.8822 133.216 89.6417 132.279 89.6417H70.1888C69.2519 89.6417 68.4925 88.8822 68.4925 87.9454V85.833C68.4925 84.8962 69.2519 84.1367 70.1888 84.1367Z" fill="white"/>
<path d="M66.149 171.742H69.2535L70.6106 89.6416H64.792L66.149 171.742Z" fill="#AEADAB"/>
</g>
</svg>
