<svg width="210" height="140" viewBox="0 0 210 140" fill="none" xmlns="http://www.w3.org/2000/svg">
<g clip-path="url(#clip0_512_37707)">
<path fill-rule="evenodd" clip-rule="evenodd" d="M39.3156 134.067C19.1416 123.55 5.95262 107.195 4.11216 87.6277C2.36143 69.0147 18.1539 55.122 30.6572 42.0158C41.0593 31.1122 85.5621 12.0331 101.095 9.98473C116.811 7.91213 131.561 11.2187 146.295 18.5185C165.868 28.2151 201.525 43.4049 207.277 63.8141C213.095 84.4613 200.589 111.737 180.913 116.784C155.111 123.402 131.041 104.185 113.973 106.505C96.3942 108.894 68.7816 149.43 39.3156 134.067Z" fill="#FFECB2"/>
<mask id="mask0_512_37707" style="mask-type:alpha" maskUnits="userSpaceOnUse" x="3" y="9" width="206" height="129">
<path fill-rule="evenodd" clip-rule="evenodd" d="M39.3156 134.067C19.1416 123.55 5.95262 107.195 4.11216 87.6277C2.36143 69.0147 18.1539 55.122 30.6572 42.0158C41.0593 31.1122 85.5621 12.0331 101.095 9.98473C116.811 7.91213 131.561 11.2187 146.295 18.5185C165.868 28.2151 201.525 43.4049 207.277 63.8141C213.095 84.4613 200.589 111.737 180.913 116.784C155.111 123.402 131.041 104.185 113.973 106.505C96.3942 108.894 68.7816 149.43 39.3156 134.067Z" fill="#FFECB2"/>
</mask>
<g mask="url(#mask0_512_37707)">
<path d="M82.4718 189.301L75.1145 190.598C67.689 172.103 62.4064 156.658 58.68 143.84C56.6667 136.927 55.1037 130.777 53.9025 125.324L54.237 145.465V191.192H46.7295C28.5546 104.515 41.4333 84.7225 41.4333 84.7225L63.1777 81.0098C64.0435 85.0214 64.6567 89.0834 65.0136 93.1718L65.9964 100.359L74.4934 144.25L82.4718 189.301Z" fill="#9F9984"/>
<path opacity="0.2" d="M58.6803 143.84C56.6669 136.926 55.104 130.777 53.9028 125.323C54.002 118.864 54.4692 112.415 55.302 106.009C55.302 106.009 58.4892 130.92 58.6803 143.84Z" fill="black"/>
<path d="M184.362 77.0918H155.015C152.223 92.3388 143.48 146.304 149.752 194.386L159.696 193.157C159.696 193.157 158.775 129.323 167.552 105.723C168.562 118.356 169.763 131.794 170.807 138.94C173.36 156.541 178.827 195 178.827 195H188.955C188.955 195 186.908 158.186 185.925 140.892C184.853 122.116 184.403 80.9547 184.362 77.0918Z" fill="#C8C8C8"/>
<path opacity="0.2" d="M167.525 105.729C166.08 109.867 164.982 114.118 164.242 118.437C163.423 107.197 166.706 95.2871 166.706 95.2871L167.525 105.729Z" fill="black"/>
</g>
<path d="M62.6726 47.3105C68.3237 49.0714 68.4602 54.8794 81.3935 66.3795C88.6006 72.7881 100.108 75.5045 100.108 75.5045L98.5514 79.9543C98.5514 79.9543 81.2979 80.4799 63.6418 59.9231L62.6726 47.3105Z" fill="#FFC100"/>
<path opacity="0.6" d="M100.108 75.5045L98.5514 79.9543C96.4769 79.9196 94.4144 79.6332 92.4089 79.1012C91.8834 78.9715 91.3238 78.8282 90.7437 78.6576C88.7873 78.0913 86.8738 77.3866 85.0175 76.5487C84.5193 76.3234 84.0074 76.0846 83.4819 75.8252C81.787 74.9962 80.1397 74.0734 78.5475 73.0611C78.0925 72.7654 77.6215 72.4582 77.1347 72.1397C75.797 71.2297 74.432 70.2197 73.0397 69.1095C72.6097 68.7682 72.1798 68.427 71.743 68.0311C71.0605 67.4305 70.3097 66.789 69.5863 66.1201C69.0812 65.656 68.5762 65.1715 68.0711 64.6732C67.5661 64.175 67.2521 63.8679 66.8426 63.4447C65.853 62.4142 64.8429 61.3222 63.8397 60.1551C63.7662 60.0825 63.6978 60.005 63.6349 59.9231L63.28 55.3094L63.0753 52.634L62.6658 47.3105C62.9797 47.4129 63.28 47.5153 63.5598 47.6381C64.1808 47.9131 64.7654 48.2638 65.3002 48.6824C66.8222 49.8494 68.0302 51.5761 69.8661 53.9444C70.2961 54.5109 70.7534 55.1183 71.2311 55.7667C72.3709 57.1931 73.7222 58.8106 75.4216 60.626C75.8379 61.0697 76.2747 61.5201 76.732 61.991C77.824 63.1035 79.0457 64.2842 80.4175 65.5332C80.7246 65.8062 81.0317 66.0928 81.3525 66.3727C81.4958 66.5023 81.6323 66.6252 81.7825 66.7412C83.1861 67.9233 84.6885 68.9828 86.2733 69.908C86.7715 70.2015 87.2629 70.4813 87.768 70.7475C89.3776 71.6076 91.0316 72.3822 92.7229 73.0679C93.2757 73.2863 93.8012 73.4979 94.3131 73.6822C96.2072 74.4025 98.142 75.011 100.108 75.5045Z" fill="white"/>
<path d="M63.8468 60.1556C63.7733 60.0831 63.7049 60.0055 63.642 59.9236L63.2871 55.3099C63.6383 52.7688 63.732 50.1987 63.5669 47.6387C64.1879 47.9136 64.7725 48.2644 65.3073 48.6829C65.4233 51.8019 65.2459 56.2245 63.8468 60.1556Z" fill="#FFC100"/>
<path d="M71.2719 55.7666C70.7433 58.9013 69.6618 61.917 68.0779 64.6732C67.6752 64.2774 67.2589 63.8679 66.8494 63.4447C68.4178 60.4942 69.442 57.2853 69.8728 53.9717C70.3028 54.5109 70.7601 55.1183 71.2719 55.7666Z" fill="#FFC100"/>
<path d="M76.7734 61.991C75.8622 64.5207 74.6084 66.9135 73.047 69.1026C72.617 68.7613 72.187 68.4201 71.7502 68.0242C73.3349 65.7457 74.5852 63.2521 75.463 60.6191C75.8793 61.0696 76.3161 61.52 76.7734 61.991Z" fill="#FFC100"/>
<path d="M81.8238 66.7481C80.9881 68.972 79.8955 71.0907 78.5683 73.0611C78.1133 72.7654 77.6424 72.4583 77.1555 72.1398C78.532 70.0889 79.6421 67.8711 80.4588 65.54C80.7659 65.813 81.073 66.0997 81.3938 66.3795C81.5371 66.5092 81.6736 66.632 81.8238 66.7481Z" fill="#FFC100"/>
<path d="M87.8092 70.7545C87.0829 72.7743 86.1545 74.7156 85.0383 76.5489C84.5401 76.3237 84.0282 76.0848 83.5027 75.8255C84.6436 73.9588 85.586 71.9779 86.3146 69.915C86.8128 70.2085 87.3042 70.4883 87.8092 70.7545Z" fill="#FFC100"/>
<path d="M94.3607 73.6894C93.8697 75.5436 93.226 77.3538 92.436 79.1016C91.9105 78.972 91.3509 78.8286 90.7708 78.658C91.6103 76.8636 92.2798 74.9945 92.7705 73.0752C93.3165 73.2936 93.842 73.5052 94.3607 73.6894Z" fill="#FFC100"/>
<path opacity="0.2" d="M69.5933 66.1209C69.0882 65.6568 68.5832 65.1722 68.0782 64.674C67.5731 64.1758 67.2592 63.8687 66.8497 63.4455C65.86 62.4149 64.8499 61.3229 63.8467 60.1559C63.7732 60.0833 63.7048 60.0058 63.6419 59.9238L63.287 55.3102L63.0823 52.6348C65.0888 54.5116 68.2147 58.5315 69.5933 66.1209Z" fill="black"/>
<path d="M42.7097 19.8881C42.7097 19.8881 42.9418 16.0593 39.1061 15.2608C35.2705 14.4623 32.404 15.3018 31.0936 19.622C29.7832 23.9422 32.4586 29.0268 32.52 30.7808C32.5815 32.5348 29.6126 31.8318 30.0426 33.6063C30.4726 35.3808 32.4313 35.8108 32.3426 36.8755C32.2539 37.9402 30.22 37.2372 30.7524 40.3835C31.2847 43.5298 34.472 43.8779 35.0931 42.861C35.7141 41.844 33.4073 41.8509 34.8269 40.3835C36.2465 38.9161 37.6934 39.5304 37.1474 36.8755C36.6014 34.2206 36.7856 33.0467 39.3928 31.6407C41.9999 30.2348 42.7097 19.8881 42.7097 19.8881Z" fill="#263238"/>
<path d="M56.3595 30.7668C56.3595 30.7668 56.8918 25.8119 55.3971 23.9418C54.3297 22.6686 53.1181 21.5234 51.7867 20.5293C50.5738 19.6671 49.1974 19.0619 47.7421 18.7509C46.2868 18.4399 44.7832 18.4296 43.3238 18.7207C38.5463 19.7786 36.2463 24.249 36.7718 30.0775C36.9168 31.7663 37.4392 33.401 38.3003 34.8611C39.1614 36.3211 40.3394 37.5691 41.7472 38.5131C41.7472 38.5131 42.2113 41.6731 47.057 39.7826C51.9028 37.892 56.3595 30.7668 56.3595 30.7668Z" fill="#263238"/>
<path d="M41.4678 82.466V85.7147L63.6421 84.0085V80.1729L41.4678 82.466Z" fill="#263238"/>
<path d="M58.5201 80.9622L53.6733 81.3965L54.0028 85.0741L58.8496 84.6398L58.5201 80.9622Z" fill="white"/>
<path d="M48.917 81.0972L47.8196 81.1533L48.1063 86.7561L49.2037 86.6999L48.917 81.0972Z" fill="#FFC100"/>
<path d="M62.4543 79.6198L61.3569 79.6758L61.6427 85.2786L62.7401 85.2226L62.4543 79.6198Z" fill="#FFC100"/>
<path d="M63.7375 80.5891L41.5564 82.5069C41.3398 77.009 40.5483 71.5489 39.1949 66.2157C38.6626 64.0932 38.0006 61.7181 37.1474 58.9813C36.6902 57.5139 36.1851 55.9373 35.6187 54.2447C35.1955 52.9616 34.7382 51.5967 34.2537 50.1498C37.2631 49.1886 40.3377 48.4451 43.4537 47.9248C46.7461 47.3392 50.076 46.988 53.4181 46.8738C57.7315 46.8397 62.6864 47.3242 62.6864 47.3242C62.6864 47.3242 63.3689 47.4949 63.8399 52.0676C64.2289 56.3468 64.6247 64.9395 63.7375 80.5891Z" fill="#FFC100"/>
<path d="M60.277 48.5118C60.277 48.5118 58.7686 54.5723 52.9879 55.2753C46.081 56.1216 39.3926 50.1361 39.3926 50.1361C39.3926 50.1361 37.2564 50.7026 34.7038 51.5011C34.5537 51.0461 34.3967 50.5911 34.2329 50.1361C37.2446 49.1764 40.3215 48.4351 43.4398 47.918C46.7343 47.3298 50.0664 46.9763 53.411 46.8601C57.7244 46.826 62.6862 47.3106 62.6862 47.3106C62.6862 47.3106 62.966 47.3788 63.2936 48.58C62.3022 48.3605 61.2773 48.3373 60.277 48.5118Z" fill="#FFC100"/>
<path d="M64.1399 57.0637C55.1707 57.1265 46.2314 58.1053 37.4611 59.9848C37.3587 59.6503 37.2495 59.3023 37.1472 58.9474C37.0857 58.7631 37.0243 58.5652 36.9629 58.3741C45.8697 56.4587 54.9479 55.4526 64.058 55.3711C64.0921 55.8966 64.1194 56.4631 64.1399 57.0637Z" fill="#FFC100"/>
<path d="M64.2632 64.4965C55.9041 64.442 47.56 65.2124 39.3521 66.7965C39.2975 66.5986 39.2497 66.3938 39.1951 66.1891C39.1132 65.8478 39.0245 65.5066 38.9358 65.1653C47.2818 63.5638 55.7651 62.7865 64.2632 62.8448C64.27 63.3567 64.27 63.9232 64.2632 64.4965Z" fill="#FFC100"/>
<path d="M64.1744 70.3925C64.1744 70.9453 64.1403 71.4981 64.1266 72.0782C56.2993 72.0318 48.4849 72.7173 40.7852 74.1257C40.7033 73.5865 40.6214 73.0337 40.5327 72.4673C48.332 71.0446 56.2466 70.35 64.1744 70.3925Z" fill="#FFC100"/>
<path d="M63.8606 78.1729C63.8606 78.7257 63.806 79.2921 63.7719 79.8586C56.3084 79.898 48.863 80.5969 41.5225 81.9471C41.4816 81.3738 41.4474 80.8141 41.4065 80.2545C48.8171 78.9138 56.3298 78.2173 63.8606 78.1729Z" fill="#FFC100"/>
<path opacity="0.2" d="M54.9403 77.3544L50.5518 81.0125C47.5743 81.7166 44.4826 81.791 41.4747 81.2309C41.4747 80.9033 41.4269 80.5826 41.4064 80.255C41.2563 78.1665 41.0788 76.2009 40.7853 74.1125C40.7034 73.5733 40.6215 73.0205 40.5328 72.454C40.2393 70.7205 39.8503 68.8709 39.3521 66.7893C39.2975 66.5914 39.2497 66.3867 39.1951 66.1819C39.1132 65.8407 39.0245 65.4994 38.9358 65.1582C38.5194 63.5884 38.0417 61.8685 37.4616 59.978C37.3592 59.6436 37.25 59.2955 37.1476 58.9406C37.0862 58.7563 37.0248 58.5584 36.9634 58.3673C36.6767 57.4528 36.3628 56.4905 36.0352 55.4804C36.8473 54.1973 37.8369 53.7059 38.9358 54.4498C45.0441 58.5994 45.1055 71.8398 54.9403 77.3544Z" fill="black"/>
<path d="M51.5684 51.761C46.1084 51.0785 44.4636 48.7239 44.4636 48.7239C47.9307 45.4547 45.0506 39.7832 45.0506 39.7832L51.6298 41.0117C51.4797 41.9283 51.3931 42.8541 51.3705 43.7826C51.3227 47.7752 53.1313 47.8162 53.1313 47.8162C54.2847 49.9797 51.5684 51.761 51.5684 51.761Z" fill="#EBB376"/>
<path opacity="0.2" d="M51.63 41.0049C51.48 41.9214 51.3933 42.8473 51.3707 43.7758C46.9276 43.7758 45.0508 39.7764 45.0508 39.7764L51.63 41.0049Z" fill="black"/>
<path d="M56.141 33.9473C58.0997 33.9473 59.0006 37.1959 57.3422 38.2197C55.206 39.5369 53.684 36.0903 55.1309 34.3841" stroke="#FFC100" stroke-width="0.5" stroke-linecap="round" stroke-linejoin="round"/>
<path d="M47.992 22.6115C53.7113 22.2975 55.7179 25.2596 56.4618 31.1358C57.39 38.4727 56.0455 43.7893 48.8042 42.6086C38.9762 41.0047 38.4917 23.137 47.992 22.6115Z" fill="#EBB376"/>
<path d="M52.729 31.0127C53.2332 31.8442 53.8359 32.6119 54.524 33.2991C54.3679 33.5429 54.1479 33.7393 53.888 33.8668C53.6281 33.9944 53.3382 34.0482 53.0498 34.0225L52.729 31.0127Z" fill="#D58745"/>
<path d="M49.2207 30.7669C49.2207 31.2378 49.0364 31.6336 48.7225 31.6609C48.4085 31.6882 48.1219 31.3265 48.0877 30.8556C48.0536 30.3847 48.272 29.9888 48.586 29.9615C48.8999 29.9342 49.1866 30.2686 49.2207 30.7669Z" fill="#263238"/>
<path d="M48.4561 29.969L49.4457 29.4844C49.4457 29.4844 49.0089 30.3853 48.4561 29.969Z" fill="#263238"/>
<path d="M55.049 30.187C55.049 30.658 54.8579 31.0538 54.544 31.0811C54.2301 31.1084 53.9502 30.7467 53.9161 30.2758C53.882 29.8048 54.1004 29.4022 54.4143 29.3817C54.7283 29.3612 55.0081 29.7161 55.049 30.187Z" fill="#263238"/>
<path d="M54.2847 29.4025L55.2743 28.918C55.2743 28.918 54.8307 29.8325 54.2847 29.4025Z" fill="#263238"/>
<path d="M48.9477 26.7949C48.4925 26.7641 48.0362 26.8378 47.6139 27.0105C47.1916 27.1832 46.8144 27.4504 46.5112 27.7914" stroke="#263238" stroke-width="0.72468" stroke-linecap="round" stroke-linejoin="round"/>
<path d="M53.0903 26.3244C53.4761 26.204 53.8842 26.1727 54.2838 26.233C54.6834 26.2933 55.0641 26.4436 55.3972 26.6725" stroke="#263238" stroke-width="0.72468" stroke-linecap="round" stroke-linejoin="round"/>
<path d="M52.3598 36.3229C52.1237 36.9909 51.9366 37.6752 51.8002 38.3704C51.6774 38.3772 51.5544 38.3772 51.4316 38.3704C49.7527 38.2953 49.002 37.6879 48.7017 37.0736C48.546 36.7652 48.4708 36.4225 48.4833 36.0772C48.4774 35.8811 48.5027 35.6852 48.5583 35.4971C49.5687 36.0052 50.6768 36.2893 51.807 36.3297L52.3598 36.3229Z" fill="#263238"/>
<path d="M51.7867 36.2887L51.6093 36.8756C50.0327 36.8006 48.9339 36.5344 48.463 36.0362C48.4571 35.84 48.4824 35.6442 48.5381 35.4561C49.5484 35.9642 50.6565 36.2482 51.7867 36.2887Z" fill="white"/>
<path d="M51.4319 38.329C49.7529 38.2539 49.0022 37.6465 48.7019 37.0322C49.3384 37.074 49.9624 37.2289 50.5446 37.4895C50.9189 37.6725 51.2284 37.9654 51.4319 38.329Z" fill="#DE5753"/>
<path d="M42.2664 32.5961C42.2664 32.5961 44.6892 27.7504 44.0818 24.1468C44.0818 24.1468 55.1655 18.8916 56.3667 30.3643C56.3667 30.3643 56.9127 20.1269 47.0711 20.3999C37.2295 20.6729 38.0554 35.094 43.3652 39.1003C43.3515 39.1003 40.7785 35.6264 42.2664 32.5961Z" fill="#263238"/>
<path d="M41.1261 32.5213C40.9437 30.0409 41.5738 27.5685 42.921 25.4779C45.1801 21.9563 52.162 20.9598 55.3834 23.9492C54.2047 21.9744 52.3184 20.5224 50.1077 19.8883C47.0433 19.0966 38.5053 19.2945 40.3958 32.1186L41.1261 32.5213Z" fill="#FFC100"/>
<path d="M43.2693 33.75C43.1761 33.0924 42.8269 32.4982 42.2977 32.0968C41.7685 31.6955 41.1022 31.5194 40.4438 31.607C38.683 31.9004 38.0346 35.5859 42.4913 36.2138C43.1328 36.3094 43.4536 35.6678 43.2693 33.75Z" fill="#EBB376"/>
<path d="M41.8632 35.4629C43.7946 35.7427 44.1973 39.1006 42.4023 39.865C40.0887 40.841 39.1059 37.2033 40.7917 35.7359" stroke="#FFC100" stroke-width="0.5" stroke-linecap="round" stroke-linejoin="round"/>
<path d="M39.3931 49.3315C39.3931 49.3315 45.8154 54.539 51.7872 54.4571C57.759 54.3752 59.8611 47.6321 59.8611 47.6321C59.8611 47.6321 50.5928 44.9089 39.3931 49.3315Z" fill="#EBB376"/>
<path d="M113.901 39.1008L105.39 67.984L103.247 67.7246L112.461 36.166L113.901 39.1008Z" fill="#263238"/>
<path opacity="0.1" d="M113.901 39.1008L105.39 67.984L103.247 67.7246L112.461 36.166L113.901 39.1008Z" fill="white"/>
<path d="M65.116 72.8843L103.247 67.7246L103.001 71.4169L65.9554 77.5389L65.116 72.8843Z" fill="#263238"/>
<path opacity="0.4" d="M65.116 72.8843L103.247 67.7246L103.001 71.4169L65.9554 77.5389L65.116 72.8843Z" fill="white"/>
<path d="M103.247 67.7246L135.85 81.2995L134.226 86.0428L103.002 71.4169L103.247 67.7246Z" fill="#263238"/>
<path opacity="0.2" d="M103.247 67.7246L135.85 81.2995L134.226 86.0428L103.002 71.4169L103.247 67.7246Z" fill="white"/>
<path d="M65.9556 77.539L103.001 71.417L134.226 86.0429L96.0468 98.2254L65.9556 77.539Z" fill="#263238"/>
<path d="M124.07 81.3609C124.036 84.4321 119.975 87.8582 107.404 89.66C89.0377 92.2876 76.316 83.5927 76.1658 80.4122C75.9542 76.1125 79.0186 72.5499 91.5493 71.7923C93.1941 71.6899 94.8594 71.6626 96.5178 71.6831L96.7021 72.0312C96.8181 72.2632 96.9478 72.5089 97.0843 72.7683L97.1935 73.0003L97.2481 73.0549C97.5484 73.6419 97.8487 74.2629 98.1285 74.8772C98.1274 74.9022 98.1274 74.9272 98.1285 74.9523C98.5211 75.7813 98.8497 76.6392 99.1113 77.5184C99.1911 77.7636 99.237 78.0184 99.2478 78.276C99.249 78.5341 99.2834 78.7911 99.3502 79.0404C99.3959 79.23 99.4744 79.4102 99.5822 79.5727C99.6696 79.7236 99.7887 79.8536 99.9313 79.9537C100.074 80.0539 100.237 80.1219 100.408 80.1529C100.408 80.1529 101.773 80.187 103.206 80.3713C103.844 80.4417 104.476 80.558 105.097 80.7193C106.598 81.1288 108.632 80.9992 110.352 80.9104L110.407 80.8627C110.476 80.7976 110.561 80.7529 110.654 80.7337C110.747 80.7144 110.843 80.7212 110.932 80.7535C110.978 80.7845 111.016 80.8267 111.041 80.8763H111.301C113.157 80.8217 113.881 80.5009 115.02 80.7739C115.867 80.9719 116.501 80.8627 117.068 80.9787C117.28 81.0266 117.483 81.1097 117.668 81.2244C117.894 81.3648 118.14 81.4685 118.399 81.5315C118.903 81.6599 119.428 81.6831 119.941 81.5998C120.148 81.5715 120.352 81.5212 120.549 81.4496C121.164 81.2728 121.807 81.2058 122.446 81.2517C122.544 81.2587 122.642 81.2587 122.739 81.2517C123.186 81.2131 123.636 81.25 124.07 81.3609Z" fill="#FFC100"/>
<path opacity="0.3" d="M122.48 81.2723C122.145 84.0023 118.248 86.9234 107.253 88.5067C90.4297 90.916 78.7727 82.9512 78.6362 80.037C78.4451 76.099 81.2501 72.8298 92.7229 72.1405C94.0401 72.0586 95.371 72.0313 96.7018 72.0381C96.8178 72.2702 96.9475 72.5159 97.084 72.7752L97.1932 73.0073L97.2478 73.0619C97.5481 73.6488 97.8484 74.2699 98.1282 74.8841C98.1271 74.9091 98.1271 74.9342 98.1282 74.9592C98.5208 75.7883 98.8494 76.6462 99.111 77.5254C99.1908 77.7705 99.2367 78.0254 99.2475 78.2829C99.2487 78.5411 99.2831 78.798 99.3499 79.0474C99.3956 79.237 99.4741 79.4171 99.582 79.5797C99.6693 79.7305 99.7884 79.8605 99.931 79.9607C100.074 80.0609 100.236 80.1288 100.408 80.1598C100.408 80.1598 101.773 80.1939 103.206 80.3782C103.844 80.4486 104.476 80.5649 105.097 80.7263C106.598 81.1358 108.632 81.0061 110.352 80.9174L110.406 80.8696C110.475 80.8045 110.561 80.7599 110.654 80.7406C110.746 80.7213 110.843 80.7282 110.932 80.7604C110.978 80.7914 111.016 80.8337 111.041 80.8833H111.3C113.157 80.8287 113.88 80.5079 115.02 80.7809C115.866 80.9788 116.501 80.8696 117.068 80.9856C117.28 81.0336 117.483 81.1166 117.668 81.2313C117.894 81.3718 118.14 81.4755 118.398 81.5385C118.902 81.6669 119.427 81.6901 119.941 81.6067C120.148 81.5785 120.352 81.5282 120.548 81.4566C121.176 81.2803 121.83 81.2179 122.48 81.2723Z" fill="white"/>
<path opacity="0.3" d="M120.351 82.5547C120.219 82.438 120.116 82.292 120.051 82.1284C119.986 81.9649 119.96 81.7883 119.975 81.6129C119.462 81.6963 118.937 81.673 118.433 81.5446C118.436 81.6037 118.436 81.663 118.433 81.7221C118.437 81.8527 118.405 81.982 118.338 82.0945C118.272 82.207 118.174 82.2981 118.057 82.3568C118.015 82.385 117.969 82.4079 117.921 82.4251C117.341 82.7254 116.788 82.6844 116.235 83.1076C116.149 83.1796 116.057 83.2457 115.962 83.3055C115.856 83.3775 115.734 83.4242 115.607 83.442C115.245 83.4761 114.925 83.2168 114.577 83.1349C114.198 83.0922 113.815 83.1561 113.471 83.3191C113.171 83.4606 112.838 83.5172 112.509 83.4829C112.462 83.3395 112.471 83.184 112.532 83.0465C112.594 82.909 112.705 82.7994 112.843 82.739C113.127 82.6275 113.435 82.5899 113.737 82.6298C114.039 82.6711 114.347 82.6261 114.624 82.5001C114.734 82.4387 114.822 82.3568 114.931 82.2954C115.441 82.0512 115.98 81.8746 116.535 81.7699L117.068 81.6265C117.007 81.4869 116.991 81.3322 117.02 81.1829C117.034 81.113 117.064 81.0475 117.109 80.9918C116.522 80.8758 115.887 80.9918 115.061 80.7871C113.921 80.5141 113.198 80.8348 111.342 80.8894H111.082C111.335 81.332 111.435 81.8449 111.369 82.35C111.204 82.6238 110.968 82.8479 110.686 82.9984C110.525 83.0733 110.356 83.1283 110.181 83.1622C109.672 83.2852 109.141 83.2852 108.632 83.1622C108.516 83.1076 108.414 83.0257 108.298 82.9847C108.047 82.9433 107.791 82.9433 107.54 82.9847C107.412 82.9805 107.286 82.9462 107.174 82.8846C107.061 82.8229 106.964 82.7357 106.892 82.6298C106.827 82.5246 106.798 82.4013 106.809 82.2784C106.82 82.1554 106.871 82.0393 106.953 81.9473C107.178 81.7426 107.526 81.7972 107.827 81.7289C108.127 81.6607 108.434 81.4354 108.762 81.3808C109.089 81.3262 109.642 81.5037 110.018 81.3058C110.159 81.2193 110.29 81.1161 110.407 80.9986C108.687 81.0874 106.653 81.217 105.151 80.8075C104.53 80.6462 103.899 80.5299 103.261 80.4595C103.253 80.5148 103.234 80.5682 103.206 80.6164C103.07 80.8417 102.728 80.7802 102.599 80.9713C102.469 81.1624 102.599 81.4013 102.558 81.6538C102.567 81.692 102.567 81.7317 102.558 81.7699C102.289 82.0499 101.949 82.2526 101.575 82.3568C101.37 82.3568 101.254 82.1111 101.125 81.9473C101.043 81.8456 100.94 81.762 100.824 81.7016C100.659 81.6113 100.479 81.5534 100.292 81.531C99.9742 81.5003 99.6542 81.5003 99.3365 81.531C99.2589 81.5455 99.1787 81.5309 99.1112 81.49C99.0702 81.4504 99.0396 81.4012 99.0225 81.3467C98.9529 81.2038 98.9134 81.0482 98.9065 80.8894C98.9031 80.8107 98.9217 80.7325 98.9603 80.6638C98.9989 80.5951 99.0559 80.5385 99.1249 80.5004C99.2409 80.4458 99.4252 80.4322 99.432 80.3025C99.4388 80.1728 99.3842 80.1933 99.3569 80.1387C99.3301 80.0544 99.3362 79.9631 99.3743 79.8832C99.4123 79.8034 99.4793 79.741 99.5617 79.7087L99.6709 79.6746C99.5631 79.512 99.4846 79.3319 99.4388 79.1423C99.372 78.8929 99.3376 78.636 99.3365 78.3779C99.3256 78.1203 99.2797 77.8654 99.2 77.6203C98.9383 76.7411 98.6098 75.8832 98.2172 75.0541C98.216 75.0291 98.216 75.004 98.2172 74.979C97.9373 74.3648 97.6371 73.7437 97.3368 73.1568L97.2822 73.1022L97.173 72.8701L97.0706 72.9452C96.9083 73.0731 96.7373 73.1894 96.5587 73.2933C96.3089 73.4391 96.0433 73.5559 95.767 73.6413C95.2278 73.8051 94.9617 73.7778 94.8183 73.6413C94.5385 73.4298 94.6887 72.9179 94.1358 72.8769C93.3373 72.8292 92.6275 73.5594 91.7608 73.5594C90.894 73.5594 91.1533 73.2523 90.3958 73.0339C89.6382 72.8155 89.8293 73.8529 88.5667 73.9962C87.3041 74.1396 86.0414 73.4639 85.9459 74.3307C85.864 75.0609 83.8575 74.5218 83.5435 75.0678C83.2296 75.6138 83.6937 75.7912 82.6699 75.9209C81.6462 76.0505 81.3936 76.6307 80.7112 77.6817C80.0287 78.7328 81.2503 78.7601 81.4687 79.3538C81.5779 79.6405 81.3732 79.893 81.1548 80.1455C80.9364 80.3981 80.7112 80.671 80.8067 80.985C80.991 81.6061 82.8064 81.9064 83.6732 81.9951C84.54 82.0838 83.9598 82.8687 84.3557 83.7969C84.7515 84.7251 86.6147 83.9266 86.642 84.4179C86.6693 84.9093 88.0889 85.8375 89.372 85.9126C89.6013 85.9286 89.8318 85.9079 90.0545 85.8512C90.3303 85.7764 90.6151 85.7396 90.9008 85.742C91.3441 85.7631 91.7775 85.8802 92.1711 86.0852C92.5647 86.2902 92.909 86.5783 93.1804 86.9295C93.7332 87.6461 95.1664 86.7453 95.6305 86.8613C96.0946 86.9773 96.1219 87.4482 96.6679 87.7622C97.2139 88.0761 99.6914 86.95 100.21 87.0797C100.729 87.2094 102.258 88.0147 103.117 88.1171C103.977 88.2194 105.342 86.8613 106.052 86.9705C106.762 87.0797 108.98 87.339 109.465 86.4791C109.949 85.6191 112.133 85.9331 113.082 85.9672C114.031 86.0013 115.129 85.9672 115.437 85.2369C115.744 84.5067 116.283 84.6227 117.191 84.3224C118.098 84.0221 121.272 83.5785 120.351 82.5547ZM103.5 82.7936C103.534 82.7322 103.561 82.6639 103.588 82.6025C103.691 82.4551 103.841 82.3471 104.014 82.2962C104.186 82.2454 104.371 82.2547 104.537 82.3227C104.868 82.4626 105.174 82.6538 105.445 82.8892C105.511 82.9516 105.59 83.0001 105.675 83.0318C105.761 83.0634 105.852 83.0776 105.943 83.0734C105.943 83.3055 105.984 83.5307 106.011 83.7559C106.039 83.9812 106.011 84.0562 105.861 84.0562C105.711 84.0562 105.738 83.9811 105.677 83.9538C105.648 83.9466 105.617 83.9466 105.588 83.9538C105.397 83.9538 105.097 84.22 104.906 84.2541C104.382 84.3178 103.852 84.2151 103.39 83.9607C103.179 83.872 102.981 83.7696 102.776 83.6809C102.69 83.6538 102.614 83.6015 102.558 83.5307C102.53 83.4621 102.527 83.3856 102.551 83.3153C102.575 83.2451 102.623 83.1858 102.688 83.1485C102.817 83.0787 102.958 83.0325 103.104 83.012C103.259 82.9915 103.4 82.9135 103.5 82.7936ZM92.8528 76.4191C93.037 76.3577 93.235 76.4191 93.4192 76.3577C93.7195 76.2758 93.8765 75.9482 94.1017 75.7229C94.266 75.5575 94.4721 75.4396 94.698 75.3819C94.924 75.3242 95.1613 75.3289 95.3848 75.3954C95.7738 75.5182 96.1083 75.8322 96.5178 75.8458C96.6827 75.8184 96.851 75.8184 97.016 75.8458C97.3368 75.9618 97.3914 76.4123 97.6985 76.6034C97.7531 76.6443 97.8282 76.6784 97.8418 76.7467C97.8555 76.8149 97.7804 76.9037 97.7053 76.9378C97.4222 77.0147 97.1316 77.0605 96.8385 77.0743C96.5456 77.1762 96.2624 77.3041 95.9922 77.4565C95.7711 77.522 95.5391 77.5429 95.3097 77.5179C95.0846 77.5578 94.8558 77.5738 94.6272 77.5657C94.5538 77.5562 94.4849 77.5252 94.429 77.4767C94.3731 77.4281 94.3329 77.3641 94.3133 77.2927C94.3133 77.2176 94.3133 77.1357 94.3133 77.0538C94.3018 76.9912 94.2708 76.9338 94.2246 76.89C94.0786 76.7719 93.8932 76.7134 93.7059 76.7262C93.4756 76.7273 93.2463 76.7571 93.0234 76.8149C92.9379 76.8488 92.8427 76.8488 92.7572 76.8149C92.5525 76.7535 92.6753 76.4942 92.8528 76.4191ZM85.632 78.6918C85.6378 78.62 85.6587 78.5502 85.6934 78.4871C85.8221 78.3025 86.0138 78.1714 86.2325 78.1185L87.8774 77.5111C88.0695 77.4158 88.2865 77.3824 88.4984 77.4155C88.5599 77.4155 88.6349 77.4701 88.6418 77.5316C88.6486 77.593 88.594 77.6544 88.553 77.7022C88.4893 77.7671 88.4383 77.8436 88.4029 77.9274C88.3555 78.0069 88.3365 78.1001 88.3489 78.1918C88.3613 78.2836 88.4044 78.3684 88.4711 78.4325C88.5257 78.4734 88.594 78.5007 88.6486 78.5417C88.6734 78.5472 88.6953 78.5618 88.71 78.5826C88.7502 78.6446 88.7717 78.7169 88.7717 78.7908C88.7717 78.8647 88.7502 78.937 88.71 78.9989C88.6729 79.0628 88.6453 79.1318 88.6281 79.2037C88.7612 79.5477 88.9659 79.8594 89.2287 80.1182C89.3648 80.162 89.4954 80.2216 89.6177 80.2957C89.7406 80.3844 89.802 80.596 89.6723 80.6847C89.6304 80.7033 89.5851 80.7129 89.5392 80.7129C89.4934 80.7129 89.448 80.7033 89.4062 80.6847C89.1599 80.6521 88.9175 80.595 88.6827 80.5141C88.4984 80.439 88.3415 80.2615 88.1572 80.2138C87.9729 80.166 87.659 80.3161 87.4337 80.1319C87.2085 79.9476 87.2153 79.6814 86.9901 79.661C86.922 79.6607 86.8546 79.6747 86.7922 79.7019C86.6393 79.7484 86.4772 79.7555 86.3208 79.7226C86.1644 79.6897 86.0189 79.6179 85.8977 79.5137C85.7766 79.4096 85.6837 79.2765 85.6277 79.1268C85.5716 78.9772 85.5543 78.8158 85.5774 78.6577L85.632 78.6918ZM88.6486 83.6536C88.6074 83.6841 88.5564 83.6987 88.5053 83.6945C88.0889 83.6945 87.8228 83.8993 87.3791 83.6945C87.1904 83.5789 86.9858 83.4915 86.7717 83.4352C86.7357 83.4282 86.6986 83.4282 86.6625 83.4352H86.4032H86.2394C85.9677 83.3837 85.7111 83.2717 85.4886 83.1076C85.3616 83.0464 85.2601 82.9425 85.202 82.8141C85.1337 82.6093 85.2907 82.4046 85.4408 82.2476L85.5569 82.1248C85.6792 81.9927 85.828 81.8881 85.9937 81.8176C86.1369 81.7712 86.2867 81.7481 86.4373 81.7494C87.1558 81.7272 87.8713 81.8526 88.5394 82.1179C88.7578 82.2067 89.0035 82.3636 88.9762 82.5889C88.9489 82.8141 88.7168 82.9165 88.6691 83.1212C88.6588 83.1868 88.6588 83.2536 88.6691 83.3191C88.6729 83.3759 88.6729 83.4329 88.6691 83.4898C88.6781 83.5169 88.681 83.5456 88.6774 83.574C88.6739 83.6023 88.664 83.6295 88.6486 83.6536ZM92.805 85.3598C92.7918 85.4321 92.7564 85.4985 92.7039 85.5498C92.6513 85.6012 92.5841 85.6349 92.5115 85.6464C91.8904 85.7625 91.5014 85.1482 90.9145 85.1209C90.6483 85.1209 90.3616 85.2028 90.1296 85.0663C90.075 85.0303 90.0289 84.9828 89.9945 84.9271C89.9601 84.8715 89.9383 84.809 89.9305 84.7441C89.9227 84.6791 89.9292 84.6132 89.9494 84.551C89.9696 84.4888 90.0032 84.4318 90.0477 84.3838C90.1284 84.3191 90.2215 84.2718 90.3214 84.2448C90.4212 84.2177 90.5255 84.2116 90.6278 84.2269C91.0484 84.3078 91.4757 84.3489 91.9041 84.3497C92.0815 84.3497 92.2999 84.2951 92.3887 84.4452C92.4259 84.5293 92.4467 84.6196 92.4501 84.7114C92.5115 84.9503 92.8118 85.0936 92.805 85.3257V85.3598ZM94.6341 81.7357C94.5112 81.7357 94.3952 81.8313 94.2723 81.8586C94.1235 81.8899 93.9685 81.8731 93.8299 81.8105C93.6912 81.748 93.5761 81.6429 93.5011 81.5105C93.3919 81.2989 93.3851 81.0328 93.2077 80.8826C93.1057 80.8326 93.0115 80.7683 92.9278 80.6915C92.805 80.5209 92.9278 80.2752 93.1258 80.1865C93.3184 80.1217 93.5175 80.0782 93.7195 80.0568C93.9716 79.9679 94.2178 79.8631 94.4566 79.7428C94.5733 79.6771 94.7049 79.6425 94.8388 79.6425C94.9727 79.6425 95.1044 79.6771 95.221 79.7428L95.2893 79.8043C95.3753 79.9155 95.4764 80.0143 95.5896 80.0977C95.7976 80.1524 96.0162 80.1524 96.2243 80.0977C96.3319 80.0907 96.4392 80.1169 96.5314 80.1728C96.6313 80.2594 96.7146 80.3635 96.7771 80.4799C96.8072 80.5382 96.8535 80.5866 96.9104 80.6193C96.9673 80.652 97.0324 80.6676 97.0979 80.6642C97.128 80.7244 97.1342 80.7938 97.1152 80.8584C97.0962 80.923 97.0534 80.978 96.9955 81.0123C96.8765 81.0751 96.7533 81.1298 96.627 81.1761C96.4617 81.2616 96.3062 81.3646 96.1629 81.4832C96.0258 81.5944 95.8645 81.6715 95.6919 81.7084C95.337 81.8108 94.989 81.6265 94.6341 81.7357ZM98.5038 85.9672C97.9474 85.9716 97.3913 85.942 96.8385 85.8785C96.7065 85.8726 96.5798 85.8248 96.4768 85.742C96.377 85.6475 96.3182 85.5176 96.313 85.3803C96.312 85.2457 96.3634 85.116 96.4563 85.0185C96.5003 84.9674 96.5548 84.9263 96.616 84.8981C96.6772 84.8698 96.7438 84.855 96.8112 84.8547C97.364 84.9185 97.9201 84.9481 98.4765 84.9435C98.6123 84.9435 98.7425 84.9974 98.8385 85.0934C98.9345 85.1894 98.9884 85.3196 98.9884 85.4553C98.9884 85.5911 98.9345 85.7213 98.8385 85.8173C98.7425 85.9133 98.6123 85.9672 98.4765 85.9672H98.5038ZM100.442 86.8545C100.321 86.8087 100.204 86.7516 100.094 86.6838C99.9048 86.5823 99.7059 86.5 99.5003 86.4381C99.4252 86.3221 99.5003 86.172 99.6163 86.0628L100.217 85.3803C100.34 85.2165 100.508 85.0929 100.701 85.0254C100.814 84.9987 100.932 85.0104 101.037 85.0587C101.142 85.1069 101.228 85.1889 101.282 85.2915C101.329 85.3871 101.35 85.4963 101.391 85.5918C101.475 85.7238 101.588 85.836 101.719 85.9208C101.851 86.0056 102 86.061 102.155 86.0832C102.449 86.1583 102.756 86.3562 102.544 86.6975C102.519 86.7416 102.484 86.7791 102.442 86.8067C102.344 86.8625 102.233 86.8908 102.121 86.8886C101.973 86.896 101.825 86.896 101.677 86.8886C101.266 86.9291 100.851 86.9176 100.442 86.8545ZM106.202 86.3016C105.787 86.4807 105.351 86.6112 104.906 86.6907H104.721C104.394 86.6429 103.902 86.3631 104.128 86.0082C104.22 85.908 104.347 85.847 104.482 85.8375L104.892 85.7556C105.115 85.6999 105.345 85.6769 105.574 85.6874C105.844 85.7092 106.098 85.8196 106.298 86.0013C106.325 86.0207 106.347 86.0463 106.363 86.076C106.378 86.1056 106.386 86.1385 106.387 86.172C106.393 86.2266 106.291 86.2743 106.202 86.3016Z" fill="white"/>
<path d="M92.3138 75.0886C92.3138 75.5117 91.5016 75.8802 90.4778 75.9075C89.4541 75.9348 88.6078 75.6209 88.5942 75.225C88.5805 74.8292 89.4063 74.4334 90.4301 74.4061C91.4538 74.3788 92.266 74.6722 92.3138 75.0886Z" fill="#FFC100"/>
<path d="M94.238 78.44C94.238 78.8631 93.4258 79.2248 92.3952 79.259C91.3646 79.2931 90.5252 78.9655 90.5184 78.5423C90.5115 78.1192 91.3237 77.7575 92.3543 77.7302C93.3848 77.7029 94.2243 78.0168 94.238 78.44Z" fill="#FFC100"/>
<path d="M99.3635 79.0611H99.2816C98.251 79.0611 97.4115 78.7676 97.3979 78.3786C97.3842 77.9895 98.1555 77.6142 99.1246 77.5664C99.2044 77.8115 99.2503 78.0664 99.2611 78.324C99.2645 78.573 99.2989 78.8206 99.3635 79.0611Z" fill="#FFC100"/>
<path d="M103.399 85.4716C104.428 85.4425 105.252 85.0768 105.24 84.6548C105.228 84.2328 104.384 83.9143 103.356 83.9434C102.327 83.9725 101.503 84.3382 101.515 84.7602C101.527 85.1822 102.37 85.5007 103.399 85.4716Z" fill="#FFC100"/>
<path d="M115.034 80.7877C115.034 81.2108 114.222 81.5726 113.198 81.5999C112.174 81.6272 111.328 81.3132 111.314 80.9174C113.171 80.8355 113.894 80.5147 115.034 80.7877Z" fill="#FFC100"/>
<path d="M88.5735 82.6365C88.5735 83.0596 87.7614 83.4214 86.7308 83.4555C85.7002 83.4896 84.8607 83.162 84.8471 82.773C84.8334 82.384 85.6593 81.9881 86.6898 81.9608C87.7204 81.9335 88.5599 82.2133 88.5735 82.6365Z" fill="#FFC100"/>
<path d="M111.069 85.2575C111.069 85.6807 110.256 86.0492 109.226 86.0765C108.195 86.1038 107.356 85.7831 107.342 85.394C107.329 85.005 108.154 84.6023 109.185 84.575C110.216 84.5477 111.055 84.8344 111.069 85.2575Z" fill="#FFC100"/>
<path d="M98.1418 74.9725H97.9917L98.1077 74.8906C98.1176 74.9185 98.129 74.9459 98.1418 74.9725Z" fill="#FFC100"/>
<path d="M92.061 83.9064L90.6482 83.1488L92.4978 82.7666L93.9174 83.0601L92.061 83.9064Z" fill="#FFC100"/>
<path d="M94.989 86.2199L95.692 85.6943L97.992 86.6635L98.0056 87.1958L94.989 86.2199Z" fill="#FFC100"/>
<path d="M98.77 82.3502C98.9686 82.0323 99.2647 81.7874 99.6142 81.652C99.9636 81.5167 100.347 81.4982 100.708 81.5994C101.985 81.968 102.367 81.4697 102.367 81.4697L102.974 81.8383C102.974 81.8383 102.155 82.9576 101.241 82.5208C100.947 82.3989 100.629 82.3501 100.313 82.3786C99.9965 82.4072 99.6919 82.5122 99.4252 82.6846L98.77 82.3502Z" fill="#FFC100"/>
<path d="M82.7175 79.1224L83.9392 78.7334C83.9392 78.7334 84.7718 80.0574 85.3042 80.0984C85.7459 80.12 86.1887 80.1063 86.6282 80.0574L85.9457 81.2313C85.9457 81.2313 82.7926 80.5147 82.7175 79.1224Z" fill="#FFC100"/>
<path d="M115.764 83.2376L117.197 82.1797L118.351 82.5619L116.719 83.572L115.764 83.2376Z" fill="#FFC100"/>
<path d="M107.731 79.429L109.171 78.3711L110.325 78.7465L108.694 79.7566L107.731 79.429Z" fill="#FFC100"/>
<path d="M107.847 82.3296C107.902 82.2172 107.982 82.1188 108.08 82.0417C108.179 81.9647 108.293 81.911 108.416 81.8847C108.538 81.8584 108.664 81.8602 108.786 81.89C108.907 81.9197 109.02 81.9767 109.117 82.0566C109.977 82.6026 110.284 82.0566 110.284 82.0566L110.966 82.3705C110.642 82.6794 110.213 82.8527 109.765 82.8551C109.31 82.8105 108.851 82.8265 108.4 82.9029L107.847 82.3296Z" fill="#FFC100"/>
<path d="M97.2481 73.0822L96.8454 73.5122C96.7613 73.3743 96.6376 73.2649 96.4905 73.1982C96.2994 73.1163 96.0265 73.1504 95.6989 73.5463C95.0164 74.3926 93.6514 73.6009 93.6514 73.6009L94.0882 73.1504C94.1465 73.2727 94.237 73.3767 94.3501 73.4513C94.4631 73.5258 94.5944 73.5681 94.7297 73.5736C94.8093 73.5722 94.888 73.556 94.9618 73.5258C95.4805 73.3347 96.3268 72.5294 97.0092 72.8433C97.091 72.8785 97.1634 72.9323 97.2208 73.0003L97.2481 73.0822Z" fill="#FFC100"/>
<path d="M85.7754 75.2728L86.9766 74.8838L87.0244 76.474L85.9665 76.5013L85.7754 75.2728Z" fill="#FFC100"/>
<path d="M81.4211 76.6308L83.1479 76.583L83.5574 77.0403L82.049 77.6477L81.4211 76.6308Z" fill="#FFC100"/>
<path d="M80.4106 79.5927L81.1682 79.5723L81.2092 80.9782L80.8338 80.985L80.4106 79.5927Z" fill="#FFC100"/>
<path d="M88.8599 85.7356L90.7026 85.2715L91.3373 86.5819L88.8599 85.7356Z" fill="#FFC100"/>
<path d="M94.8321 80.5894C94.2588 80.5894 95.112 79.5998 95.5146 79.8728C95.7495 80.0288 96.019 80.1248 96.2995 80.1527C96.2995 80.1527 96.2995 80.8351 96.0197 80.9648C95.7398 81.0945 95.1597 80.5894 94.8321 80.5894Z" fill="#FFC100"/>
<path d="M94.5318 76.6586C94.5318 76.6586 94.6683 75.587 95.3508 75.7713C96.0333 75.9556 96.7158 76.5016 96.2176 76.7268C95.7194 76.952 94.3612 77.1773 94.5318 76.6586Z" fill="#FFC100"/>
<path d="M100.886 75.9959C100.886 75.9959 101.022 74.9244 101.698 75.1019C102.374 75.2793 103.063 75.8321 102.565 76.0642C102.067 76.2962 100.742 76.4942 100.886 75.9959Z" fill="#FFC100"/>
<path d="M87.4062 78.3439L88.6347 77.832L88.662 78.6988L87.4062 78.3439Z" fill="#FFC100"/>
<path d="M96.9204 84.1313L96.8999 83.2168L98.8382 84.8411L96.9204 84.1313Z" fill="#FFC100"/>
<path d="M114.085 79.8589L114.065 78.9443L116.003 80.5687L114.085 79.8589Z" fill="#FFC100"/>
<path d="M101.377 87.3807L101.37 87.1008L103.11 86.6572L103.131 87.3329L101.377 87.3807Z" fill="#FFC100"/>
<path d="M105.527 76.6648L105.52 76.385L107.26 75.9346L107.281 76.6171L105.527 76.6648Z" fill="#FFC100"/>
<path d="M113.13 85.2987L113.116 84.6366L114.686 84.5889L114.174 85.2714L113.13 85.2987Z" fill="#FFC100"/>
<path d="M102.21 79.4569L102.189 78.7948L103.766 78.7471L103.247 79.4296L102.21 79.4569Z" fill="#FFC100"/>
<path d="M111.055 80.8965L110.373 80.9306L110.427 80.8829C110.496 80.8178 110.582 80.7731 110.674 80.7539C110.767 80.7346 110.864 80.7414 110.953 80.7737C110.996 80.8055 111.032 80.8477 111.055 80.8965Z" fill="white"/>
<path d="M95.8215 90.301L135.85 81.2988L134.226 86.0422L96.0468 98.2247L95.8215 90.301Z" fill="#263238"/>
<path opacity="0.4" d="M95.8215 90.301L135.85 81.2988L134.226 86.0422L96.0468 98.2247L95.8215 90.301Z" fill="white"/>
<path d="M65.9554 77.5384L65.116 72.8838L95.8215 90.3011L96.0467 98.2249L65.9554 77.5384Z" fill="#263238"/>
<path opacity="0.2" d="M65.9554 77.5384L65.116 72.8838L95.8215 90.3011L96.0467 98.2249L65.9554 77.5384Z" fill="white"/>
<path d="M65.116 72.8843L73.8178 36.712L112.461 36.166L103.247 67.7246L65.116 72.8843Z" fill="#263238"/>
<path opacity="0.2" d="M65.116 72.8843L73.8178 36.712L112.461 36.166L103.247 67.7246L65.116 72.8843Z" fill="white"/>
<path d="M73.8178 36.7119L76.1519 39.7695L67.9756 73.5121L65.116 72.8842L73.8178 36.7119Z" fill="#263238"/>
<path opacity="0.3" d="M73.8178 36.7119L76.1519 39.7695L67.9756 73.5121L65.116 72.8842L73.8178 36.7119Z" fill="white"/>
<path d="M73.8176 36.712L76.1518 39.7696L113.901 39.1008L112.461 36.166L73.8176 36.712Z" fill="#263238"/>
<path opacity="0.4" d="M73.8176 36.712L76.1518 39.7696L113.901 39.1008L112.461 36.166L73.8176 36.712Z" fill="white"/>
<path d="M69.0608 80.835L75.3193 82.4388C75.7427 81.998 76.2334 81.6271 76.773 81.34C77.2712 81.1899 82.0896 82.821 82.4718 83.2442C82.854 83.6673 84.3623 87.6463 84.3623 88.8065C84.3623 89.9668 77.981 88.7314 77.4486 88.24C76.7937 87.7136 76.1102 87.2237 75.4012 86.7727L67.532 85.1006L69.0608 80.835Z" fill="#EBB376"/>
<path d="M71.2719 80.3988L70.6645 86.7733C70.6645 86.7733 68.5488 86.473 65.4093 85.8451C64.8838 85.7428 64.3241 85.6268 63.7508 85.4971C61.8876 85.1012 59.7787 84.6098 57.6084 84.0297L55.984 83.5724C53.4746 82.8572 51.007 82.0027 48.5926 81.0131C48.0602 80.781 47.5279 80.549 47.016 80.2965C44.9373 79.3864 43.0179 78.1491 41.3308 76.6315C41.2421 76.5496 41.1534 76.4608 41.0715 76.3721C40.7668 76.0603 40.4819 75.7297 40.2184 75.3825C38.9034 73.6444 37.7906 71.7622 36.9014 69.7724C36.6626 69.2741 36.4305 68.7623 36.2189 68.2367C35.2889 66.0435 34.5202 63.7852 33.9189 61.48C33.7688 60.934 33.6391 60.3812 33.5231 59.8421C32.9358 57.5527 32.7534 55.1782 32.9839 52.826C33.0605 52.2483 33.2215 51.6849 33.4617 51.1539C33.6462 50.7599 33.914 50.4106 34.2465 50.1301C34.2465 50.1301 37.1881 49.4135 39.9181 54.1773C40.5143 55.2395 41.0167 56.3516 41.4196 57.5011L41.597 57.9925C41.8632 58.7501 42.1771 59.651 42.532 60.6201C42.7914 61.3026 43.0644 62.0397 43.351 62.7836C43.7878 63.9234 44.2724 65.0836 44.7843 66.1961C45.0368 66.7421 45.2893 67.2744 45.5487 67.7863C46.0573 68.8074 46.6605 69.7785 47.3504 70.6869C47.5312 70.9248 47.7249 71.1527 47.9306 71.3694C48.1353 71.5742 48.3537 71.7789 48.6131 71.97C49.8669 73.027 51.2415 73.9319 52.708 74.6659C53.2472 74.9525 53.8 75.2187 54.3733 75.478C55.7869 76.1228 57.2335 76.6923 58.7072 77.1843C59.2395 77.3822 59.7855 77.5596 60.3315 77.7234C61.8671 78.2148 63.4505 78.6585 65.0544 79.0543C65.5936 79.1976 66.1396 79.3205 66.6924 79.4502C68.1802 79.7914 69.7431 80.119 71.2719 80.3988Z" fill="#FFC100"/>
<path opacity="0.5" d="M71.2719 80.3988L70.6645 86.7733C70.6645 86.7733 68.5488 86.473 65.4093 85.8451C64.8838 85.7428 64.3241 85.6268 63.7508 85.4971C61.8876 85.1012 59.7787 84.6098 57.6084 84.0297L55.984 83.5724C53.4746 82.8572 51.007 82.0027 48.5926 81.0131C48.0602 80.781 47.5279 80.549 47.016 80.2965C44.9373 79.3864 43.0179 78.1491 41.3308 76.6315C41.2421 76.5496 41.1534 76.4608 41.0715 76.3721C40.7668 76.0603 40.4819 75.7297 40.2184 75.3825C38.9034 73.6444 37.7906 71.7622 36.9014 69.7724C36.6626 69.2741 36.4305 68.7623 36.2189 68.2367C35.2889 66.0435 34.5202 63.7852 33.9189 61.48C33.7688 60.934 33.6391 60.3812 33.5231 59.8421C32.9358 57.5527 32.7534 55.1782 32.9839 52.826C33.0605 52.2483 33.2215 51.6849 33.4617 51.1539C33.6462 50.7599 33.914 50.4106 34.2465 50.1301C34.2465 50.1301 37.1881 49.4135 39.9181 54.1773C40.5143 55.2395 41.0167 56.3516 41.4196 57.5011L41.597 57.9925C41.8632 58.7501 42.1771 59.651 42.532 60.6201C42.7914 61.3026 43.0644 62.0397 43.351 62.7836C43.7878 63.9234 44.2724 65.0836 44.7843 66.1961C45.0368 66.7421 45.2893 67.2744 45.5487 67.7863C46.0573 68.8074 46.6605 69.7785 47.3504 70.6869C47.5312 70.9248 47.7249 71.1527 47.9306 71.3694C48.1353 71.5742 48.3537 71.7789 48.6131 71.97C49.8669 73.027 51.2415 73.9319 52.708 74.6659C53.2472 74.9525 53.8 75.2187 54.3733 75.478C55.7869 76.1228 57.2335 76.6923 58.7072 77.1843C59.2395 77.3822 59.7855 77.5596 60.3315 77.7234C61.8671 78.2148 63.4505 78.6585 65.0544 79.0543C65.5936 79.1976 66.1396 79.3205 66.6924 79.4502C68.1802 79.7914 69.7431 80.119 71.2719 80.3988Z" fill="white"/>
<path d="M41.5838 57.9919C38.3419 54.5317 35.3321 53.2145 32.9707 52.8254C33.0473 52.2477 33.2083 51.6843 33.4484 51.1533C35.8138 51.623 38.0296 52.6606 39.9049 54.1768C40.5011 55.2389 41.0035 56.351 41.4064 57.5005L41.5838 57.9919Z" fill="#FFC100"/>
<path d="M43.3377 62.7833C40.4002 61.3969 37.109 60.942 33.9056 61.4797C33.7555 60.9337 33.6258 60.3809 33.5098 59.8418C36.5303 59.3359 39.6297 59.6036 42.5187 60.6198C42.7781 61.3159 43.0511 62.0394 43.3377 62.7833Z" fill="#FFC100"/>
<path d="M45.5353 67.7855C42.6029 68.1949 39.7118 68.8594 36.8949 69.7716C36.656 69.2734 36.424 68.7615 36.2124 68.236C39.0015 67.302 41.8678 66.6168 44.7777 66.1885C45.0234 66.7413 45.2759 67.2737 45.5353 67.7855Z" fill="#FFC100"/>
<path d="M48.5659 71.9491C45.9719 73.2116 43.5404 74.7837 41.3246 76.6311C41.2359 76.5492 41.1472 76.4604 41.0653 76.3717C40.7606 76.0599 40.4757 75.7293 40.2122 75.3821C42.3899 73.5363 44.7823 71.9597 47.3374 70.6865C47.5182 70.9244 47.7119 71.1523 47.9175 71.369C48.1223 71.5533 48.3407 71.758 48.5659 71.9491Z" fill="#FFC100"/>
<path d="M54.3056 75.4567C52.2104 77.1037 50.2935 78.9657 48.5863 81.0122C48.054 80.7802 47.5216 80.5481 47.0098 80.2956C48.6746 78.212 50.5628 76.317 52.6404 74.6445C53.1795 74.9312 53.7323 75.1974 54.3056 75.4567Z" fill="#FFC100"/>
<path d="M60.2363 77.7023C59.2097 79.7498 58.3205 81.8634 57.5745 84.029L55.9502 83.5717C56.6919 81.3779 57.5812 79.2368 58.6119 77.1631C59.1716 77.361 59.7176 77.5385 60.2363 77.7023Z" fill="#FFC100"/>
<path d="M66.6243 79.4291C66.0535 81.5328 65.6473 83.6777 65.4094 85.8445C64.8839 85.7421 64.3243 85.6261 63.751 85.4964C64.0012 83.3143 64.4141 81.1538 64.9863 79.0332C65.5255 79.1765 66.0715 79.2994 66.6243 79.4291Z" fill="#FFC100"/>
<path d="M143.501 52.4646C143.501 52.4646 136.389 74.8778 131.53 76.3519C126.67 77.8261 114.303 59.3237 114.303 59.3237C114.303 59.3237 103.227 59.2145 102.701 58.4569C102.176 57.6993 105.581 49.8779 106.393 49.8779C107.206 49.8779 116.849 53.5088 117.225 54.1162C117.6 54.7237 128.663 65.3092 129.202 65.0362C129.742 64.7632 133.932 51.3863 133.932 51.3863L143.501 52.4646Z" fill="#DFAD9D"/>
<path d="M147.507 49.878L146.64 51.475L142.593 58.9825L141.753 60.5249L130.403 56.5801C130.403 56.5801 135.119 38.958 136.757 37.1562L147.507 49.878Z" fill="#263238"/>
<path d="M115.627 54.0273C115.84 54.3458 115.95 54.7224 115.941 55.1057C115.941 55.7882 115.333 56.846 114.48 56.9006C113.627 56.9552 112.863 56.3273 111.689 56.9006C110.515 57.4739 109.962 58.0131 108.993 58.2656C108.314 58.4524 107.689 58.7987 107.171 59.2757C106.895 59.5076 106.575 59.68 106.229 59.7822C105.884 59.8843 105.521 59.9141 105.164 59.8695C104.296 59.9166 103.425 59.9166 102.557 59.8695C102.086 59.7944 100.469 61.0025 100.469 61.0025C100.469 61.0025 99.786 59.7262 102.038 57.0235C104.291 54.3208 115.627 54.0273 115.627 54.0273Z" fill="#FFC100"/>
<path d="M115.627 54.0273L115.47 54.3481C115.333 54.6347 115.183 54.9623 115.013 55.3036C114.972 55.4059 114.917 55.5151 114.869 55.6175C114.542 56.3 113.969 56.3 113.347 56.2181H113.17C112.726 56.0957 112.262 56.0609 111.805 56.1157C111.257 56.2637 110.735 56.4938 110.256 56.7982C110.296 56.8531 110.341 56.9034 110.392 56.9484L110.126 56.8801C109.444 57.2828 108.693 57.8151 107.792 58.4294C107.474 58.648 107.136 58.8354 106.782 58.989L106.536 59.0914C105.849 59.3469 105.119 59.4697 104.386 59.4531C103.831 59.4415 103.277 59.3936 102.728 59.3098C100.946 59.0641 100.482 61.0161 100.482 61.0161C100.365 60.9741 100.26 60.9043 100.176 60.8128C100.091 60.7213 100.03 60.6107 99.9978 60.4905C99.9232 60.2712 99.9022 60.0372 99.9364 59.808C99.9459 59.5408 99.9136 59.2737 99.8408 59.0163C99.7134 58.5324 99.5585 58.0562 99.3767 57.5899C99.0077 56.7047 98.7088 55.7919 98.4827 54.8599C98.485 54.0058 98.6256 53.1576 98.899 52.3483C98.9331 52.1914 98.9809 52.0412 99.0218 51.8843C99.0628 51.7273 99.0901 51.6659 99.1174 51.5635C104.697 51.7477 110.237 52.5744 115.627 54.0273Z" fill="#FFC100"/>
<path opacity="0.3" d="M115.47 54.3476C115.333 54.6342 115.183 54.9618 115.013 55.3031C114.972 55.4055 114.917 55.5147 114.869 55.617C114.542 56.2995 113.969 56.2995 113.347 56.2176H113.17C112.726 56.0953 112.262 56.0605 111.805 56.1153C111.257 56.2633 110.735 56.4934 110.256 56.7978C110.296 56.8526 110.341 56.903 110.392 56.9479L110.126 56.8797C109.444 57.2823 108.693 57.8147 107.792 58.4289C107.474 58.6476 107.136 58.835 106.782 58.9886L106.536 59.0909C105.849 59.3465 105.119 59.4692 104.386 59.4527C103.831 59.441 103.277 59.3932 102.728 59.3093C100.946 59.0637 100.482 61.0156 100.482 61.0156C100.365 60.9736 100.26 60.9039 100.176 60.8124C100.091 60.7208 100.03 60.6103 99.9978 60.4901C99.9232 60.2707 99.9022 60.0367 99.9364 59.8076C99.9459 59.5403 99.9136 59.2732 99.8408 59.0159C99.7134 58.532 99.5585 58.0557 99.3767 57.5895C99.0077 56.7043 98.7088 55.7915 98.4827 54.8595C98.485 54.0053 98.6256 53.1571 98.899 52.3479C98.9331 52.1909 98.9809 52.0408 99.0218 51.8838C104.586 52.0138 110.112 52.8416 115.47 54.3476Z" fill="white"/>
<path opacity="0.3" d="M112.863 54.4234C112.181 53.8024 111.443 54.2255 110.338 54.13C109.526 54.0617 109.41 54.13 109.13 53.8501C109.027 53.7546 108.911 53.6249 108.727 53.4338C108.045 52.7104 107.43 53.1949 106.373 53.2973C105.315 53.3997 105.13 53.0584 104.168 52.9083C103.453 52.6749 102.674 52.7287 101.998 53.0584C101.035 53.4748 100.817 53.2427 99.4793 52.567C99.2935 52.4663 99.0932 52.3949 98.8856 52.3555C98.6122 53.1647 98.4716 54.0129 98.4692 54.867C98.6953 55.799 98.9943 56.7118 99.3633 57.597C99.545 58.0633 99.7 58.5395 99.8274 59.0234C99.9002 59.2808 99.9324 59.5479 99.9229 59.8151C99.8887 60.0443 99.9098 60.2783 99.9844 60.4976C99.9991 60.4755 100.021 60.4587 100.046 60.4499C100.162 60.3953 100.346 60.3748 100.353 60.2451C100.36 60.1154 100.305 60.1359 100.278 60.0745C100.253 59.9894 100.261 59.898 100.3 59.8184C100.339 59.7388 100.407 59.6768 100.489 59.6445C100.655 59.5837 100.832 59.5604 101.008 59.5763C101.188 59.5853 101.364 59.5296 101.506 59.4193C101.629 59.2964 101.663 59.1054 101.793 58.9893C101.891 58.9194 102.003 58.8737 102.122 58.8559C102.241 58.8381 102.362 58.8487 102.475 58.8869L103.793 59.0644C103.925 59.0738 104.053 59.1135 104.168 59.1804C104.26 59.2625 104.34 59.3566 104.407 59.4602C105.14 59.4768 105.87 59.354 106.557 59.0985L106.803 58.9962C107.156 58.8426 107.495 58.6551 107.813 58.4365C108.714 57.8223 109.478 57.2899 110.147 56.8872L110.413 56.9555C110.362 56.9105 110.316 56.8602 110.276 56.8053C110.085 56.5255 110.065 56.2252 109.635 56.0546H109.546C109.078 55.8907 108.568 55.8907 108.099 56.0546C107.834 56.0695 107.577 56.1543 107.355 56.3003C107.205 56.4368 107.048 56.6142 106.843 56.6142C106.751 56.6098 106.66 56.5866 106.577 56.546L106.093 56.3617C106.018 56.3617 105.922 56.2798 105.929 56.1979C105.936 56.116 106.1 56.0751 106.216 56.0819C106.486 56.0755 106.744 55.9627 106.932 55.7679C107.519 55.222 107.97 54.7578 108.877 54.8329C109.481 54.9236 110.055 55.1576 110.549 55.5154L110.679 55.5905C110.829 55.686 110.979 55.7679 111.13 55.8498L111.273 55.9181L111.443 55.959H111.71C112.194 55.8635 112.447 55.727 112.897 55.959C113.001 56.0125 113.097 56.079 113.184 56.157C113.254 56.2038 113.318 56.2588 113.375 56.3208C113.996 56.4231 114.569 56.4163 114.897 55.7202C114.945 55.6178 114.999 55.5086 115.04 55.4062C114.625 55.4272 114.211 55.349 113.833 55.1781C113.454 55.0072 113.122 54.7485 112.863 54.4234ZM100.537 54.2528C100.892 54.1745 101.26 54.1745 101.616 54.2528C101.761 54.2783 101.904 54.3219 102.039 54.3825C102.25 54.4985 102.414 54.7169 102.653 54.7647C102.786 54.7633 102.919 54.7794 103.049 54.8124C103.088 54.8332 103.123 54.8622 103.15 54.8976C103.177 54.933 103.196 54.9739 103.206 55.0174C103.216 55.0609 103.216 55.106 103.206 55.1496C103.197 55.1932 103.178 55.2342 103.151 55.2697C103.087 55.3312 103.007 55.3739 102.921 55.3931C102.834 55.4124 102.744 55.4075 102.66 55.3789C102.494 55.319 102.322 55.2755 102.148 55.2492C101.677 55.2834 101.203 55.249 100.742 55.1469C100.56 55.1063 100.399 54.9992 100.292 54.8466C100.263 54.7954 100.242 54.7402 100.23 54.6828C100.182 54.4507 100.319 54.3279 100.53 54.2664L100.537 54.2528ZM103.868 57.1398C103.759 57.2353 103.677 57.365 103.567 57.4537C103.346 57.5938 103.085 57.6584 102.824 57.638C102.462 57.682 102.094 57.6303 101.759 57.4878C101.643 57.4264 101.54 57.3445 101.424 57.2899C101.308 57.2353 100.994 57.1807 100.783 57.0988C100.675 57.0699 100.579 57.0073 100.509 56.9202C100.439 56.833 100.399 56.7259 100.394 56.6142C100.418 56.497 100.47 56.3872 100.544 56.2935C100.742 56.0205 101.015 55.7133 101.349 55.7679C101.46 55.7952 101.566 55.8389 101.663 55.8976C102.05 56.0754 102.473 56.1641 102.899 56.157C103.291 56.2212 103.679 56.3125 104.059 56.43C104.096 56.4379 104.131 56.4534 104.163 56.4754C104.194 56.4975 104.22 56.5257 104.24 56.5583C104.26 56.5909 104.273 56.6272 104.278 56.665C104.283 56.7028 104.281 56.7413 104.27 56.778C104.216 56.9555 104.011 57.0237 103.868 57.1398Z" fill="white"/>
<path d="M102.141 58.183C102.141 58.613 101.322 58.9816 100.278 59.0089C100.128 59.0193 99.9771 59.0193 99.8271 59.0089C99.6997 58.5249 99.5448 58.0487 99.363 57.5824C99.6473 57.5158 99.9379 57.4793 100.23 57.4733C101.274 57.4323 102.134 57.7531 102.141 58.183Z" fill="#FFC100"/>
<path d="M113.177 56.1424C113.18 56.1605 113.18 56.179 113.177 56.197C112.733 56.0747 112.269 56.0399 111.812 56.0947C111.264 56.2427 110.742 56.4728 110.263 56.7772C110.303 56.832 110.348 56.8824 110.399 56.9273L110.133 56.8591C109.703 56.7294 109.451 56.5178 109.417 56.2789C109.417 56.1741 109.459 56.0737 109.533 55.9991C109.851 55.7226 110.246 55.551 110.665 55.5077C110.871 55.4724 111.078 55.4519 111.287 55.4463C112.256 55.4463 113.061 55.6988 113.177 56.081C113.18 56.1014 113.18 56.1221 113.177 56.1424Z" fill="#FFC100"/>
<path d="M100.135 54L101.432 54.7917L98.9678 54.86L100.135 54Z" fill="#FFC100"/>
<path d="M105.069 55.5971L104.707 54.6962L106.038 54.6143L106.488 55.5561L105.069 55.5971Z" fill="#FFC100"/>
<path d="M106.768 58.9412L106.522 59.0436L106.577 58.832L106.768 58.9412Z" fill="#FFC100"/>
<path d="M103.124 53.59C102.373 53.2555 103.171 52.8733 103.806 53.0098C104.441 53.1463 104.42 54.1701 103.124 53.59Z" fill="#FFC100"/>
<path d="M104.23 57.3444L105.649 57.1328L105.431 57.9791L104.23 57.3444Z" fill="#FFC100"/>
<path d="M109.123 53.6172L110.338 54.1291L109.137 54.1632L109.123 53.6172Z" fill="#FFC100"/>
<path d="M112.863 58.1355C112.773 58.1198 112.684 58.0993 112.597 58.0741L112.727 57.9922C112.767 58.0449 112.812 58.0929 112.863 58.1355Z" fill="#DFAD9D"/>
<path opacity="0.2" d="M146.64 51.4748L142.593 58.9823C140.095 54.0683 140.818 47.3457 140.818 47.3457L146.64 51.4748Z" fill="black"/>
<path d="M136.757 37.1289C138.895 34.659 141.514 32.6496 144.453 31.2229C147.392 29.7962 150.59 28.982 153.854 28.8298C164.978 28.3111 168.473 29.4167 172.54 33.0476C178.478 38.3506 185.863 84.0437 185.863 84.0437C175.019 87.063 163.755 88.2895 152.516 87.6746C152.516 87.6746 152.386 74.987 148.373 66.4421C143.856 56.9391 139.976 47.1465 136.757 37.1289Z" fill="#263238"/>
<path opacity="0.3" d="M185.48 81.7496C185.126 79.6543 184.532 76.2896 183.774 72.2356C183.242 69.4305 182.634 66.3047 181.966 63.0833C181.699 61.8071 181.426 60.5103 181.147 59.2136C180.962 58.3673 180.771 57.5142 180.58 56.6679C179.898 53.6785 179.215 50.7233 178.458 47.9524C178.294 47.3382 178.13 46.7307 177.966 46.137C177.082 42.7519 175.941 39.439 174.554 36.2271C174.078 35.0474 173.383 33.9682 172.506 33.0467C171.611 32.2215 170.632 31.4918 169.585 30.8695C166.343 28.979 162.296 28.433 153.819 28.822H153.451C147.606 29.1932 142.092 31.663 137.924 35.7767C137.497 36.1908 137.096 36.6307 136.723 37.0939C136.723 37.0939 136.948 37.8515 137.405 39.2369C137.753 40.2812 138.231 41.6871 138.839 43.3933C139.385 44.9289 140.04 46.7171 140.804 48.71C141.869 51.4877 143.145 54.6682 144.633 58.1421C145.316 59.7937 146.1 61.5546 146.906 63.2949C147.361 64.3096 147.838 65.3447 148.339 66.4003C149.229 68.3447 149.94 70.3665 150.462 72.4404C150.687 73.3208 150.892 74.2012 151.069 75.0748C151.403 76.6991 151.663 78.2962 151.854 79.7772C152.045 81.2582 152.181 82.5072 152.27 83.6743C152.468 86.0766 152.482 87.6396 152.482 87.6396C163.721 88.2545 174.985 87.028 185.828 84.0087C185.828 84.0087 185.726 83.2102 185.48 81.7496ZM158.617 30.3508C158.44 31.0675 156.645 33.2719 154.174 34.9031C152.876 35.8088 151.398 36.4255 149.84 36.7117C145.377 37.3942 143.637 34.5209 143.514 33.3811C143.391 32.2413 147.964 29.8458 150.98 29.4431C151.663 29.3544 152.42 29.293 153.205 29.2657C155.928 29.1838 158.829 29.5045 158.617 30.3508Z" fill="white"/>
<g opacity="0.2">
<path d="M178.458 47.9528C177.161 48.0893 175.414 47.5297 173.967 47.3181C171.92 47.0178 168.883 48.4306 166.46 48.8128C164.037 49.195 163.218 47.8914 161.314 47.3181C159.41 46.7448 157.007 48.1576 154.489 49.1472C151.97 50.1368 152.667 48.4306 152.667 47.3113C152.667 46.192 155.908 45.4549 158.618 44.7314C161.327 44.008 160.631 43.2982 161.3 40.3225C161.873 37.7427 171.893 36.5142 174.561 36.2275C176.173 40.025 177.476 43.9461 178.458 47.9528Z" fill="black"/>
<path d="M149.172 45.5092C148.094 45.4546 146.94 45.3522 145.828 46.4852C144.715 47.6181 147.077 49.0718 143.924 48.8125C142.899 48.6998 141.867 48.6769 140.839 48.7442C140.074 46.7513 139.419 44.9632 138.873 43.4276C141.603 43.4276 144.531 43.7552 144.531 43.7552C145.89 43.7272 147.246 43.6201 148.592 43.4344C150.114 43.1614 151.704 42.1786 152.598 42.8065C153.492 43.4344 150.25 45.557 149.172 45.5092Z" fill="black"/>
<path d="M165.675 59.1052C164.153 59.228 160.897 58.7093 159.833 59.1052C158.768 59.501 157.942 59.1939 156.058 60.6271C154.175 62.0604 153.328 63.4254 150.981 63.1524C149.633 62.9837 148.267 63.0437 146.94 63.3298C146.135 61.5553 145.377 59.8286 144.667 58.177C146.66 58.0678 149.268 57.8494 149.841 57.4535C150.789 56.771 152.673 55.406 154.502 55.7541C156.331 56.1022 160.106 57.0577 160.645 57.1191C161.818 57.303 163.02 57.1516 164.112 56.6823C166.159 55.9998 166.439 55.9043 167.524 56.1431C168.609 56.382 167.197 58.9755 165.675 59.1052Z" fill="black"/>
<path d="M181.966 63.0834C181.736 63.0603 181.504 63.0835 181.283 63.1517C180.452 63.4251 179.555 63.4251 178.724 63.1517C176.882 63.0083 175.031 63.0083 173.189 63.1517C170.759 63.295 169.811 63.9502 167.511 64.0185C165.211 64.0867 165.224 63.5475 165.661 62.1962C166.098 60.8448 167.517 62.1962 168.2 62.1962C169.769 62.1511 171.282 61.6006 172.513 60.6264C173.994 59.3297 175.748 59.5003 176.881 58.1353C177.564 57.3232 178.615 56.8113 180.567 56.668C181.038 58.811 181.529 60.9677 181.966 63.0834Z" fill="black"/>
<path d="M172.254 72.8844C171.015 73.9542 169.516 74.6771 167.907 74.9797C165.371 75.3889 162.81 75.6284 160.242 75.6963C160.242 75.6963 155.465 76.4948 153.854 75.6963C152.985 75.3469 152.061 75.1506 151.124 75.1162C150.947 74.2426 150.742 73.3622 150.517 72.4817C152.332 72.7957 154.776 73.0823 156.209 72.6387C157.983 72.0146 159.699 71.2335 161.334 70.3046C166.064 67.5746 167.415 67.4313 169.169 67.9909C170.923 68.5506 173.326 69.2126 173.742 69.0147C174.159 68.8167 174.807 69.6153 176.916 69.0147C179.025 68.4141 179.298 66.6191 179.837 67.9909C180.376 69.3627 172.254 72.8844 172.254 72.8844Z" fill="black"/>
<path d="M185.481 81.7503C184.003 82.5172 182.406 83.0317 180.758 83.2723C176.172 83.9548 175.633 84.3029 171.449 84.5895C168.92 84.7582 166.38 84.4903 163.942 83.7978C163.942 83.7978 162.413 83.7296 161.894 82.6854C160.966 80.8836 165.211 80.3444 167.941 79.5732C169.525 79.2122 171.04 78.5943 172.425 77.7441C173.64 77.0616 174.855 76.2972 174.855 76.2972L178.499 74.8844C178.499 74.8844 180.458 72.6322 182.144 72.4957C182.703 72.4409 183.259 72.3543 183.809 72.2363C184.533 76.2767 185.133 79.6551 185.481 81.7503Z" fill="black"/>
<path d="M153.485 82.2753C153.056 82.7221 152.661 83.2013 152.305 83.7085C152.216 82.5756 152.08 81.2447 151.888 79.8114C152.815 79.7396 153.746 79.7396 154.673 79.8114C156.461 80.0094 156.72 79.0812 157.123 79.75C157.526 80.4189 154.68 81.115 153.485 82.2753Z" fill="black"/>
<path d="M169.62 30.8699C168.844 31.4461 167.916 31.7808 166.951 31.8323C162.262 32.3646 163.074 31.6002 160.645 32.6581C158.215 33.7159 160.522 33.8388 157.123 34.5145C156.151 34.713 155.165 34.843 154.175 34.9035C156.645 33.2723 158.44 31.0679 158.618 30.3512C158.829 29.5049 155.929 29.1842 153.206 29.2661L153.485 28.8566H153.854C162.331 28.4334 166.378 28.9794 169.62 30.8699Z" fill="black"/>
<path d="M138.375 39.0466C138.047 39.0128 137.717 39.0923 137.44 39.2718C136.983 37.9068 136.758 37.1287 136.758 37.1287C137.131 36.6656 137.532 36.2257 137.959 35.8115C138.663 35.8588 139.36 35.9777 140.04 36.1664C141.137 36.4573 142.249 36.6852 143.371 36.8489C143.774 36.9513 139.058 39.1148 138.375 39.0466Z" fill="black"/>
</g>
<path d="M157.151 30.3785C155.949 33.791 151.472 35.3812 149.124 35.5792C148.26 35.7145 147.375 35.5621 146.605 35.1453C145.836 34.7285 145.225 34.0704 144.866 33.2723C144.866 33.2723 147.548 31.9415 147.282 30.4331C147.084 29.5182 146.708 28.651 146.176 27.8806C145.895 27.4429 145.59 27.0213 145.262 26.618L149.554 17.4043C150.489 21.4242 153.424 29.0886 157.151 30.3785Z" fill="#DFAD9D"/>
<path opacity="0.2" d="M149.698 21.6836C151.745 26.1471 148.858 29.2525 147.254 30.4332C147.056 29.5182 146.681 28.651 146.149 27.8807L149.698 21.6836Z" fill="black"/>
<path d="M135.311 9.71989C135.311 9.71989 133.946 17.3092 137.897 20.36C141.849 23.4108 142.265 9.21484 142.265 9.21484L135.311 9.71989Z" fill="#263238"/>
<path d="M149.452 26.748C148.568 27.978 147.305 28.8843 145.856 29.3281C144.408 29.7718 142.854 29.7286 141.432 29.205C139.583 28.5592 138.048 27.2343 137.14 25.499C137.01 25.2602 136.901 25.0145 136.792 24.7551C134.935 20.0391 134.532 11.8764 139.522 8.96217C140.625 8.3133 141.877 7.95753 143.157 7.92867C144.437 7.8998 145.703 8.19881 146.835 8.79727C147.967 9.39572 148.927 10.2737 149.624 11.3478C150.321 12.4219 150.732 13.6565 150.817 14.934C151.288 20.4008 151.813 23.5881 149.452 26.748Z" fill="#DFAD9D"/>
<path d="M142.818 17.6225C142.907 18.0524 142.702 18.4551 142.409 18.4961C142.115 18.537 141.835 18.2026 141.767 17.7658C141.699 17.329 141.89 16.9331 142.177 16.8922C142.463 16.8512 142.75 17.172 142.818 17.6225Z" fill="#263238"/>
<path d="M137.822 18.3322C137.911 18.7622 137.699 19.1648 137.412 19.199C137.126 19.2331 136.839 18.9123 136.771 18.4755C136.703 18.0387 136.894 17.6429 137.18 17.6019C137.467 17.561 137.761 17.909 137.822 18.3322Z" fill="#263238"/>
<path d="M139.439 18.3193C139.106 19.7508 138.576 21.129 137.863 22.4143C138.196 22.5895 138.564 22.6889 138.941 22.7054C139.317 22.7219 139.692 22.6551 140.04 22.5099L139.439 18.3193Z" fill="#A24E3F"/>
<path d="M144.135 15.787C144.089 15.8002 144.04 15.8008 143.993 15.7888C143.946 15.7768 143.903 15.7526 143.869 15.7188C143.642 15.4816 143.363 15.3007 143.054 15.1905C142.744 15.0803 142.414 15.0439 142.088 15.084C142.053 15.0947 142.017 15.098 141.981 15.0939C141.946 15.0898 141.911 15.0784 141.88 15.0602C141.849 15.0421 141.822 15.0177 141.801 14.9886C141.78 14.9594 141.765 14.9263 141.758 14.8911C141.75 14.8559 141.75 14.8196 141.757 14.7844C141.764 14.7491 141.779 14.7158 141.799 14.6864C141.82 14.6571 141.847 14.6324 141.878 14.6139C141.909 14.5954 141.943 14.5835 141.979 14.579C142.389 14.5158 142.808 14.5522 143.201 14.6853C143.595 14.8183 143.95 15.0441 144.238 15.3434C144.285 15.3929 144.312 15.459 144.312 15.5277C144.312 15.5963 144.285 15.6624 144.238 15.7119L144.135 15.787Z" fill="#263238"/>
<path d="M135.426 16.9129C135.381 16.9384 135.329 16.9503 135.276 16.947C135.211 16.9251 135.157 16.8787 135.125 16.8176C135.093 16.7565 135.086 16.6855 135.106 16.6194C135.223 16.2193 135.436 15.8536 135.726 15.554C136.016 15.2544 136.375 15.0298 136.771 14.8995C136.803 14.8902 136.837 14.8875 136.87 14.8914C136.904 14.8953 136.936 14.9058 136.965 14.9223C136.994 14.9389 137.02 14.961 137.041 14.9876C137.061 15.0142 137.076 15.0445 137.085 15.077C137.104 15.143 137.096 15.214 137.062 15.2741C137.029 15.3342 136.973 15.3787 136.907 15.3978C136.601 15.5106 136.325 15.6925 136.1 15.9292C135.875 16.1658 135.708 16.451 135.611 16.7627C135.592 16.7992 135.566 16.8315 135.534 16.8573C135.503 16.8832 135.466 16.9021 135.426 16.9129Z" fill="#263238"/>
<path d="M145.896 8.72949L145.827 11.166C146.252 11.3211 146.603 11.6309 146.809 12.0332C147.015 12.4356 147.062 12.901 146.94 13.3363C146.353 15.4316 147.793 18.4619 149.465 19.5675C149.465 19.5675 149.431 18.6871 150.189 18.8304C150.946 18.9738 151.171 23.5533 149.929 25.8601C149.929 25.8601 152.577 23.4305 153.342 18.5233C154.065 13.9847 153.942 11.1114 153.294 8.96836L145.896 8.72949Z" fill="#263238"/>
<path d="M153.84 19.0495C153.411 20.3631 152.478 21.4528 151.247 22.0798C149.616 22.8988 148.448 21.5202 148.605 19.7935C148.762 18.2578 149.786 15.9374 151.574 15.8555C153.362 15.7736 154.345 17.432 153.84 19.0495Z" fill="#DFAD9D"/>
<path d="M147.186 10.9207C146.814 11.5691 146.286 12.1138 145.649 12.5049C145.012 12.8961 144.287 13.121 143.541 13.1593C143.541 13.1593 144.421 13.0296 145.138 11.6851C145.138 11.6851 141.726 13.7326 138.593 13.0501C138.94 12.9966 139.273 12.875 139.573 12.6923C139.873 12.5096 140.134 12.2693 140.34 11.9854C140.34 11.9854 136.853 13.3845 134.198 11.8079C131.543 10.2314 132.15 7.28298 134.361 6.17733C134.361 6.17733 134.054 7.30345 134.675 7.6993C134.675 7.6993 134.675 4.28682 140.593 3.29037C146.51 2.29393 152.25 3.97287 153.881 6.6346C153.444 6.30159 152.92 6.10033 152.373 6.05448C152.373 6.05448 156.167 8.91414 153.642 11.105C151.444 12.9818 147.186 10.9207 147.186 10.9207Z" fill="#263238"/>
<path d="M140.818 24.0929C141.312 24.6101 141.768 25.1621 142.183 25.7445L142.524 25.5807C144.046 24.83 144.503 23.9768 144.572 23.2534C144.587 22.9036 144.519 22.5551 144.374 22.2365C144.295 22.0527 144.192 21.8805 144.067 21.7246C143.332 22.6108 142.415 23.3278 141.378 23.8267C141.023 23.9973 140.818 24.0929 140.818 24.0929Z" fill="#263238"/>
<path d="M141.336 23.8267L141.746 24.3045C143.179 23.5879 144.094 22.8917 144.333 22.257C144.254 22.0732 144.151 21.901 144.025 21.7451C143.289 22.6239 142.372 23.3338 141.336 23.8267Z" fill="white"/>
<path d="M142.504 25.5812C144.026 24.8305 144.483 23.9774 144.551 23.2539C143.977 23.5531 143.46 23.9504 143.022 24.4278C142.732 24.7479 142.551 25.1516 142.504 25.5812Z" fill="#DE5753"/>
<path opacity="0.2" d="M181.147 59.2141C174.097 56.2862 168.521 44.1992 168.521 44.1992L172.527 41.7764L177.987 46.1512C178.151 46.7449 178.314 47.3524 178.478 47.9666C179.208 50.7375 179.925 53.6927 180.601 56.6821C180.771 57.5147 180.962 58.3678 181.147 59.2141Z" fill="black"/>
<path d="M176.751 34.9922C176.751 34.9922 190.04 48.335 191.855 50.9285C193.671 53.5219 197.131 82.2687 197.131 82.2687C197.131 82.2687 197.861 82.5212 197.929 83.1423C197.998 83.7634 198.045 91.8373 197.929 92.2127C197.813 92.588 191.691 96.3554 190.79 95.4613C189.89 94.5673 188.627 85.4218 188.627 85.4218L191.855 82.2687C191.855 82.2687 188.101 61.1113 185.754 57.6988C183.406 54.2864 173.721 46.929 173.721 46.929L176.751 34.9922Z" fill="#DFAD9D"/>
<path d="M166.534 29.6211C164.596 33.7161 166.07 42.3633 169.64 45.4072C173.415 48.5391 177.406 51.4013 181.583 53.9725L188.115 45.4413C188.115 45.4413 181.181 38.6642 176.983 34.7671C171.872 30.0306 166.534 29.6211 166.534 29.6211Z" fill="#263238"/>
</g>
<defs>
<clipPath id="clip0_512_37707">
<rect width="210" height="140" fill="white"/>
</clipPath>
</defs>
</svg>
