<svg width="210" height="140" viewBox="0 0 210 140" fill="none" xmlns="http://www.w3.org/2000/svg">
<path d="M39.2303 43.8686C35.9503 46.8686 27.9203 45.7386 27.9203 45.7386C27.9203 45.7386 22.9203 44.3686 23.9203 42.7986C26.9203 42.3186 28.3103 40.9386 28.9203 39.1686C29.2404 38.0758 29.3423 36.9307 29.2203 35.7986C29.2203 35.5186 29.1703 35.2386 29.1303 34.9686C29.0903 34.6986 29.0303 34.2686 28.9703 33.9186L38.9003 26.5586C38.5403 27.8986 38.1603 29.5586 37.9003 31.3286C37.2003 35.4986 36.9803 40.3286 38.6603 43.0486C38.8221 43.3405 39.0131 43.6152 39.2303 43.8686Z" fill="#E6C7C3"/>
<path opacity="0.2" d="M37.5705 39.9189C33.9505 39.5189 31.2505 37.1789 28.9805 33.9189L37.3705 34.6189C37.2916 36.3881 37.3585 38.1608 37.5705 39.9189Z" fill="black"/>
<path d="M21.1704 22.0792C21.0984 22.3768 21.1162 22.689 21.2215 22.9765C21.3267 23.264 21.5148 23.5139 21.7619 23.6946C22.009 23.8754 22.3041 23.9789 22.61 23.9921C22.9159 24.0053 23.2188 23.9277 23.4806 23.7689C23.7424 23.6102 23.9513 23.3775 24.081 23.1001C24.2107 22.8228 24.2554 22.5132 24.2093 22.2106C24.1633 21.9079 24.0287 21.6256 23.8224 21.3993C23.6162 21.1731 23.3475 21.013 23.0504 20.9392C22.8521 20.89 22.646 20.8805 22.444 20.9112C22.2419 20.9419 22.048 21.0122 21.8733 21.1182C21.6986 21.2241 21.5465 21.3636 21.4259 21.5285C21.3052 21.6935 21.2184 21.8806 21.1704 22.0792Z" fill="#263238"/>
<path d="M45.0303 11.2891C45.0303 11.2891 47.4703 20.6491 42.8003 24.8391C38.1303 29.0291 36.2803 11.2891 36.2803 11.2891H45.0303Z" fill="#263238"/>
<path d="M44.5803 30.209C44.4808 30.5493 44.3605 30.8833 44.2203 31.209C43.2455 33.4477 41.459 35.2341 39.2203 36.209C37.1998 37.1153 34.9133 37.233 32.8103 36.539C31.31 36.0271 29.9785 35.114 28.9603 33.899C25.7103 30.179 26.0603 26.129 26.1003 19.259C26.0824 17.6517 26.4765 16.0665 27.2451 14.6548C28.0137 13.243 29.1311 12.0517 30.4908 11.1943C31.8505 10.337 33.4072 9.84226 35.0124 9.7573C36.6175 9.67233 38.2177 9.99997 39.6603 10.709C46.1803 13.879 46.4603 24.139 44.5803 30.209Z" fill="#E6C7C3"/>
<path d="M36.3704 21.8591C36.2904 22.4091 36.5904 22.859 36.9704 22.909C37.3504 22.959 37.6504 22.499 37.6904 21.909C37.7304 21.319 37.4604 20.9091 37.1004 20.8591C36.7404 20.8091 36.4104 21.2891 36.3704 21.8591Z" fill="#263238"/>
<path d="M42.6799 22.2886C42.6099 22.8386 42.9199 23.2886 43.2799 23.3386C43.6399 23.3886 43.9699 22.9286 44.0099 22.3386C44.0499 21.7486 43.7799 21.3386 43.4099 21.2886C43.0399 21.2386 42.7199 21.7386 42.6799 22.2886Z" fill="#263238"/>
<path d="M40.6598 22.4092C41.209 24.1779 42.0034 25.861 43.0198 27.4092C42.6168 27.6564 42.1652 27.8139 41.6958 27.8708C41.2264 27.9278 40.7503 27.8829 40.2998 27.7392L40.6598 22.4092Z" fill="#892B29"/>
<path d="M45.1999 19.7188C45.1489 19.7507 45.09 19.7677 45.0299 19.7677C44.9698 19.7677 44.9108 19.7507 44.8599 19.7188C44.5315 19.4675 44.1482 19.2976 43.7415 19.2229C43.3348 19.1481 42.9162 19.1707 42.5199 19.2888C42.4389 19.3182 42.3497 19.3148 42.2712 19.2793C42.1928 19.2438 42.1313 19.179 42.0999 19.0988C42.084 19.0588 42.0763 19.016 42.0772 18.973C42.0782 18.93 42.0879 18.8876 42.1056 18.8484C42.1233 18.8092 42.1488 18.774 42.1805 18.7448C42.2121 18.7157 42.2493 18.6932 42.2899 18.6788C42.7857 18.5197 43.3125 18.4821 43.8259 18.5691C44.3392 18.6562 44.8242 18.8652 45.2399 19.1788C45.2758 19.202 45.3067 19.2322 45.3308 19.2676C45.3549 19.303 45.3716 19.3428 45.38 19.3848C45.3884 19.4268 45.3882 19.47 45.3796 19.5119C45.371 19.5538 45.3541 19.5935 45.3299 19.6288C45.2957 19.6703 45.2507 19.7014 45.1999 19.7188Z" fill="#263238"/>
<path d="M35.2804 19.2893C35.2145 19.2857 35.1515 19.2612 35.1004 19.2193C35.0479 19.1501 35.0247 19.0631 35.036 18.977C35.0472 18.8908 35.0919 18.8126 35.1604 18.7593C35.5718 18.4373 36.0546 18.2192 36.5682 18.1234C37.0817 18.0277 37.6107 18.0571 38.1104 18.2093C38.151 18.2237 38.1882 18.2462 38.2199 18.2753C38.2515 18.3044 38.277 18.3397 38.2947 18.3789C38.3125 18.4181 38.3221 18.4605 38.3231 18.5035C38.3241 18.5465 38.3164 18.5893 38.3004 18.6293C38.2691 18.7095 38.2076 18.7743 38.1291 18.8098C38.0506 18.8453 37.9614 18.8487 37.8804 18.8193C37.4815 18.7122 37.0631 18.6998 36.6585 18.7831C36.254 18.8665 35.8745 19.0432 35.5504 19.2993C35.5071 19.3161 35.4608 19.324 35.4144 19.3222C35.368 19.3205 35.3224 19.3093 35.2804 19.2893Z" fill="#263238"/>
<path d="M31.6706 11.0293L31.9906 14.0293C31.4731 14.2626 31.0629 14.6828 30.8422 15.2058C30.6215 15.7287 30.6066 16.3158 30.8006 16.8493C31.7406 19.4193 30.2206 23.3493 28.2406 24.8493C28.2406 24.8493 28.2406 23.7493 27.2406 23.9893C26.2406 24.2293 26.4606 29.9893 28.2406 32.7693C28.2406 32.7693 25.5406 30.2393 24.0906 24.1793C22.7506 18.5693 22.6506 13.9093 23.8306 11.7693L31.6706 11.0293Z" fill="#263238"/>
<path d="M22.7101 24.6995C23.3725 26.2998 24.6417 27.5726 26.2401 28.2395C28.3701 29.1095 29.6901 27.2395 29.3301 25.1295C28.9901 23.2295 27.4901 20.4195 25.2501 20.4795C24.7603 20.4945 24.2821 20.6322 23.8593 20.8799C23.4365 21.1275 23.0825 21.4773 22.8298 21.8971C22.5771 22.3169 22.4337 22.7934 22.4128 23.283C22.3919 23.7726 22.4941 24.2596 22.7101 24.6995Z" fill="#E6C7C3"/>
<path d="M40.2606 29.5497C39.7347 30.3918 39.2702 31.2708 38.8706 32.1797L38.3606 32.0397C36.0706 31.4197 35.2106 30.3697 34.9606 29.3997C34.8452 28.9232 34.8452 28.4261 34.9606 27.9497C35.0229 27.6814 35.1204 27.4225 35.2506 27.1797C36.4965 28.1785 37.9424 28.8981 39.4906 29.2897C39.9606 29.4797 40.2606 29.5497 40.2606 29.5497Z" fill="#263238"/>
<path d="M39.49 29.2887L39.05 30.0487C36.9 29.4587 35.46 28.7487 34.96 27.9087C35.0223 27.6404 35.1198 27.3815 35.25 27.1387C36.4923 28.1518 37.9385 28.8851 39.49 29.2887Z" fill="white"/>
<path d="M38.36 32.0394C36.07 31.4194 35.21 30.3694 34.96 29.3994C35.8239 29.6563 36.6361 30.0624 37.36 30.5994C37.8358 30.9629 38.1856 31.4666 38.36 32.0394Z" fill="#DE5753"/>
<path d="M21.4598 13.6193C21.3554 14.048 21.3805 14.498 21.532 14.9125C21.6834 15.3269 21.9544 15.6871 22.3107 15.9475C22.6669 16.2078 23.0924 16.3566 23.5333 16.375C23.9741 16.3935 24.4106 16.2807 24.7873 16.051C25.1641 15.8214 25.4642 15.4851 25.6497 15.0847C25.8353 14.6844 25.8979 14.238 25.8296 13.8021C25.7614 13.3661 25.5654 12.9602 25.2663 12.6358C24.9673 12.3113 24.5787 12.0828 24.1498 11.9793C23.5757 11.8407 22.97 11.9355 22.4657 12.243C21.9613 12.5504 21.5996 13.0454 21.4598 13.6193Z" fill="#263238"/>
<path d="M21.7104 17.0097C21.6385 17.3073 21.6562 17.6196 21.7615 17.9071C21.8668 18.1945 22.0548 18.4444 22.3019 18.6252C22.5491 18.8059 22.8442 18.9094 23.1501 18.9226C23.4559 18.9359 23.7589 18.8582 24.0207 18.6995C24.2825 18.5407 24.4914 18.308 24.6211 18.0306C24.7508 17.7533 24.7954 17.4438 24.7494 17.1411C24.7034 16.8384 24.5687 16.5561 24.3625 16.3299C24.1562 16.1036 23.8876 15.9435 23.5904 15.8697C23.19 15.7731 22.7677 15.8387 22.4155 16.0523C22.0633 16.2658 21.8098 16.61 21.7104 17.0097Z" fill="#263238"/>
<path d="M21.5005 19.1289C21.4285 19.4265 21.4463 19.7387 21.5515 20.0262C21.6568 20.3137 21.8449 20.5636 22.092 20.7443C22.3391 20.9251 22.6342 21.0286 22.9401 21.0418C23.246 21.055 23.5489 20.9773 23.8107 20.8186C24.0725 20.6598 24.2814 20.4271 24.4111 20.1498C24.5408 19.8724 24.5854 19.5629 24.5394 19.2602C24.4934 18.9575 24.3588 18.6753 24.1525 18.449C23.9463 18.2228 23.6776 18.0626 23.3805 17.9889C22.9801 17.8922 22.5577 17.9578 22.2055 18.1714C21.8533 18.385 21.5999 18.7292 21.5005 19.1289Z" fill="#263238"/>
<path d="M22.6401 13.0697C22.6401 13.0697 22.0001 9.06968 28.3401 6.13968C34.6801 3.20968 41.4401 6.93967 45.6901 4.37967C49.9401 1.81967 49.8001 12.8097 40.8301 13.8097C34.7603 14.3513 28.6459 14.1026 22.6401 13.0697Z" fill="#263238"/>
<path d="M35.22 4.53914C35.0607 5.18227 35.0963 5.85824 35.3223 6.48108C35.5483 7.10391 35.9544 7.64547 36.4889 8.03688C37.0235 8.42829 37.6624 8.65186 38.3244 8.67917C38.9864 8.70647 39.6416 8.53626 40.2066 8.1902C40.7716 7.84414 41.2209 7.33786 41.4974 6.73575C41.7739 6.13363 41.865 5.46288 41.7592 4.80882C41.6535 4.15476 41.3556 3.54694 40.9034 3.06265C40.4513 2.57836 39.8653 2.23949 39.22 2.08914C38.3649 1.88722 37.4647 2.03143 36.7154 2.49034C35.9662 2.94925 35.4287 3.68566 35.22 4.53914Z" fill="#263238"/>
<path d="M25.8902 5.68953C25.7335 6.33038 25.7707 7.00335 25.9971 7.62303C26.2235 8.24271 26.6288 8.78118 27.1617 9.17013C27.6946 9.55908 28.331 9.78098 28.9902 9.80768C29.6494 9.83437 30.3016 9.66467 30.8642 9.32008C31.4268 8.97549 31.8744 8.47156 32.1501 7.87222C32.4258 7.27288 32.5173 6.60513 32.413 5.9537C32.3086 5.30227 32.0132 4.69653 31.564 4.2133C31.1148 3.73007 30.5323 3.39115 29.8902 3.23953C29.0351 3.03761 28.1349 3.18182 27.3856 3.64073C26.6364 4.09964 26.0989 4.83605 25.8902 5.68953Z" fill="#263238"/>
<path d="M44.6302 8.35888C44.5263 8.78721 44.5517 9.23668 44.7032 9.65057C44.8546 10.0645 45.1253 10.4242 45.4811 10.6844C45.8368 10.9445 46.2617 11.0934 46.702 11.1123C47.1423 11.1311 47.5784 11.0191 47.9551 10.7903C48.3318 10.5614 48.6322 10.2262 48.8185 9.82672C49.0047 9.42728 49.0684 8.98162 49.0016 8.54599C48.9347 8.11036 48.7403 7.70431 48.4428 7.37912C48.1453 7.05393 47.7581 6.82417 47.3302 6.71887C47.0452 6.64875 46.7492 6.63559 46.4591 6.68011C46.169 6.72464 45.8905 6.82598 45.6397 6.97835C45.3889 7.13071 45.1706 7.33109 44.9973 7.56799C44.8241 7.80489 44.6993 8.07366 44.6302 8.35888Z" fill="#263238"/>
<path d="M31.8899 3.7495C31.7861 4.17783 31.8115 4.62731 31.9629 5.04121C32.1144 5.4551 32.3851 5.81482 32.7408 6.07498C33.0966 6.33513 33.5215 6.48403 33.9618 6.50288C34.4021 6.52172 34.8381 6.40967 35.2148 6.18087C35.5915 5.95207 35.892 5.61678 36.0782 5.21734C36.2645 4.8179 36.3282 4.37224 36.2613 3.93661C36.1945 3.50098 36 3.09493 35.7025 2.76974C35.4051 2.44455 35.0179 2.2148 34.5899 2.10951C34.3049 2.03939 34.0089 2.02621 33.7188 2.07073C33.4287 2.11526 33.1503 2.2166 32.8995 2.36897C32.6486 2.52133 32.4303 2.72171 32.2571 2.95861C32.0838 3.19551 31.9591 3.46428 31.8899 3.7495Z" fill="#263238"/>
<path d="M22.8899 8.28857C22.7861 8.71689 22.8115 9.16638 22.9629 9.58027C23.1144 9.99416 23.3851 10.3539 23.7408 10.6141C24.0966 10.8742 24.5215 11.0231 24.9618 11.042C25.4021 11.0608 25.8381 10.9487 26.2148 10.7199C26.5915 10.4911 26.892 10.1559 27.0782 9.75642C27.2645 9.35698 27.3282 8.9113 27.2613 8.47567C27.1945 8.04004 27 7.63399 26.7025 7.3088C26.4051 6.98361 26.0179 6.75387 25.5899 6.64857C25.3049 6.57845 25.0089 6.56527 24.7188 6.6098C24.4287 6.65432 24.1503 6.75567 23.8995 6.90803C23.6486 7.06039 23.4303 7.26077 23.2571 7.49767C23.0838 7.73458 22.9591 8.00334 22.8899 8.28857Z" fill="#263238"/>
<path d="M41.5304 4.93897C41.3718 5.58614 41.4087 6.2658 41.6363 6.89204C41.8639 7.51828 42.272 8.06299 42.8091 8.45735C43.3461 8.8517 43.9881 9.07801 44.6537 9.10764C45.3194 9.13728 45.9789 8.96892 46.5489 8.62385C47.1189 8.27878 47.5738 7.77248 47.8561 7.16894C48.1384 6.5654 48.2355 5.89171 48.1351 5.23301C48.0347 4.57431 47.7412 3.96017 47.2918 3.46819C46.8425 2.97622 46.2574 2.6285 45.6104 2.46897C44.742 2.25755 43.8251 2.39874 43.0605 2.86164C42.2958 3.32454 41.7457 4.07146 41.5304 4.93897Z" fill="#263238"/>
<path d="M136.817 49.6003C136.817 49.6003 144.907 49.6703 147.817 46.3103C145.987 44.7603 145.197 41.6803 144.957 38.3803C144.805 36.0474 144.848 33.7059 145.087 31.3803C145.147 30.6203 145.237 29.9203 145.327 29.2803L136.427 37.8003C136.427 37.9503 136.517 38.1003 136.567 38.2603C136.697 38.7103 136.817 39.1803 136.907 39.6303C137.168 40.738 137.212 41.8858 137.037 43.0103C136.999 43.7771 136.841 44.5331 136.567 45.2503C136.277 45.7203 135.687 46.1003 134.377 46.4903C133.487 48.1303 136.817 49.6003 136.817 49.6003Z" fill="#EEC1BB"/>
<path opacity="0.2" d="M136.526 45.2099C139.266 44.2099 142.646 40.0199 144.726 36.2899C144.635 34.633 144.743 32.9712 145.046 31.3398L136.526 38.2198C136.656 38.6698 136.776 39.1398 136.866 39.5898C137.127 40.6976 137.171 41.8453 136.996 42.9698C136.959 43.7366 136.8 44.4926 136.526 45.2099Z" fill="black"/>
<path d="M127.616 14.8604C127.616 14.8604 125.046 24.3204 129.726 28.6004C134.406 32.8804 136.466 14.9404 136.466 14.9404L127.616 14.8604Z" fill="#263238"/>
<path d="M143.676 37.9399C142.426 39.4022 140.731 40.4134 138.85 40.8181C136.969 41.2228 135.007 40.9986 133.266 40.1799C131.005 39.1574 129.217 37.3125 128.266 35.0199C128.125 34.6947 128.005 34.3607 127.906 34.0199C126.066 27.8499 126.446 17.4699 133.106 14.3299C134.234 13.7895 135.457 13.4764 136.705 13.4086C137.953 13.3407 139.203 13.5194 140.382 13.9345C141.562 14.3496 142.648 14.9929 143.578 15.8277C144.509 16.6625 145.266 17.6725 145.806 18.7999C146.461 20.1438 146.784 21.6254 146.746 23.1199C146.696 30.1199 147.006 34.2099 143.676 37.9399Z" fill="#EEC1BB"/>
<path d="M136.276 25.6798C136.346 26.2398 136.036 26.6798 135.656 26.7398C135.276 26.7998 134.966 26.3098 134.936 25.7398C134.906 25.1698 135.176 24.7398 135.546 24.6798C135.916 24.6198 136.236 25.1098 136.276 25.6798Z" fill="#263238"/>
<path d="M129.876 26.0301C129.946 26.5901 129.626 27.0301 129.266 27.0901C128.906 27.1501 128.566 26.6601 128.536 26.0901C128.506 25.5201 128.786 25.0901 129.146 25.0301C129.506 24.9701 129.846 25.4901 129.876 26.0301Z" fill="#263238"/>
<path d="M131.926 26.2002C131.345 27.9703 130.524 29.6525 129.486 31.2002C129.891 31.4568 130.347 31.622 130.822 31.6841C131.297 31.7463 131.779 31.704 132.236 31.5602L131.926 26.2002Z" fill="#D4827D"/>
<path d="M127.397 23.53C127.452 23.5549 127.514 23.5634 127.574 23.5545C127.634 23.5457 127.691 23.5198 127.737 23.48C128.058 23.2184 128.435 23.0338 128.839 22.9402C129.243 22.8466 129.663 22.8465 130.067 22.94C130.107 22.9555 130.151 22.9622 130.194 22.9599C130.237 22.9575 130.28 22.946 130.318 22.9262C130.357 22.9065 130.391 22.8788 130.418 22.845C130.446 22.8111 130.466 22.772 130.477 22.73C130.491 22.6893 130.496 22.6463 130.493 22.6034C130.49 22.5605 130.478 22.5187 130.459 22.4804C130.439 22.4421 130.412 22.4082 130.379 22.3807C130.346 22.3531 130.308 22.3325 130.267 22.32C129.756 22.1919 129.221 22.1877 128.708 22.3077C128.195 22.4277 127.718 22.6685 127.317 23.01C127.281 23.0365 127.252 23.0698 127.229 23.108C127.207 23.1462 127.193 23.1885 127.187 23.2323C127.182 23.2761 127.185 23.3207 127.197 23.3632C127.209 23.4058 127.229 23.4455 127.257 23.48L127.397 23.53Z" fill="#263238"/>
<path d="M137.397 23.0599C137.463 23.0578 137.527 23.0331 137.577 22.9899C137.605 22.9568 137.626 22.9184 137.638 22.8771C137.651 22.8357 137.655 22.7922 137.65 22.7492C137.645 22.7062 137.632 22.6646 137.611 22.6269C137.59 22.5892 137.561 22.5562 137.527 22.5299C137.115 22.1902 136.626 21.9562 136.104 21.8482C135.581 21.7401 135.04 21.7613 134.527 21.9099C134.444 21.9395 134.377 21.9996 134.338 22.0778C134.299 22.156 134.291 22.2463 134.317 22.3299C134.35 22.4115 134.413 22.478 134.492 22.5167C134.571 22.5554 134.662 22.5637 134.747 22.5399C135.151 22.4371 135.574 22.4316 135.981 22.5237C136.387 22.6158 136.766 22.803 137.087 23.0699C137.136 23.0908 137.189 23.1007 137.243 23.099C137.296 23.0972 137.349 23.0839 137.397 23.0599Z" fill="#263238"/>
<path d="M141.146 14.7598L140.546 16.0898C142.846 16.8198 142.416 19.4898 141.956 20.7098C140.956 23.2998 142.486 27.2898 144.476 28.8698C144.476 28.8698 144.476 27.7498 145.476 28.0098C146.476 28.2698 146.196 34.0898 144.376 36.8798C144.376 36.8798 147.146 34.3498 148.676 28.2298C150.086 22.5598 150.236 17.8498 149.056 15.6698L141.146 14.7598Z" fill="#263238"/>
<path d="M150.067 28.6905C149.383 30.3029 148.088 31.5792 146.467 32.2405C144.307 33.1005 142.977 31.2405 143.367 29.0605C143.727 27.1305 145.277 24.3105 147.547 24.4005C148.037 24.431 148.512 24.5813 148.931 24.8385C149.35 25.0956 149.699 25.4517 149.948 25.8753C150.196 26.2989 150.337 26.7772 150.358 27.2681C150.379 27.759 150.279 28.2474 150.067 28.6905Z" fill="#EEC1BB"/>
<path d="M132.427 33.4898C132.93 34.3631 133.367 35.2722 133.737 36.2098L134.257 36.0998C136.607 35.5698 137.517 34.5398 137.817 33.5698C137.949 33.0909 137.97 32.5879 137.877 32.0998C137.827 31.8225 137.74 31.5533 137.617 31.2998C136.313 32.272 134.816 32.9539 133.227 33.2998C132.747 33.4298 132.427 33.4898 132.427 33.4898Z" fill="#263238"/>
<path d="M133.227 33.3L133.637 34.09C135.847 33.58 137.337 32.93 137.877 32.09C137.827 31.8127 137.74 31.5435 137.617 31.29C136.314 32.2658 134.817 32.9512 133.227 33.3Z" fill="white"/>
<path d="M134.257 36.1003C136.607 35.5703 137.517 34.5403 137.817 33.5703C136.928 33.7899 136.085 34.1657 135.327 34.6803C134.827 35.0269 134.452 35.5247 134.257 36.1003Z" fill="#DE5753"/>
<path d="M127.616 14.86C128.166 11.7 129.616 9.08 131.286 6L131.776 9.59C132.568 8.23501 133.659 7.07892 134.966 6.21001L135.606 10.07C136.356 8.41001 138.036 7.45 140.226 6.88L139.906 10.21C140.881 8.73261 142.365 7.66498 144.076 7.21001L143.906 10.37C144.153 9.96454 144.495 9.62579 144.903 9.38344C145.311 9.14109 145.772 9.00255 146.246 8.98L149.056 15.63L142.226 17.83L128.946 18.28L127.616 14.86Z" fill="#263238"/>
<path d="M195.749 28.1592C195.749 28.1592 189.204 24.0606 183.867 27.1571C181.407 28.56 180.546 32.1676 180.022 34.9534C179.302 38.8615 179.187 42.8799 178.69 46.8281C178.515 48.4996 178.092 50.1258 177.437 51.6382C176.549 53.6423 174.675 55.6465 175.048 58.1017C175.368 60.2662 177.331 61.5689 179.045 62.1601C183.583 63.7334 188.725 62.8616 193.414 63.1622C197.188 63.4328 200.838 64.8758 204.621 64.976C205.698 65.0814 206.78 64.8381 207.738 64.2745C211.388 61.8194 209.799 55.5062 208.626 51.9989C207.623 48.9926 208.36 45.9864 208.04 42.8498C207.809 40.1005 207.235 37.4017 206.335 34.8331C204.435 29.7725 200.634 27.0869 195.749 28.1592Z" fill="#263238"/>
<path d="M194.666 33.0098C187.666 33.0098 185.476 36.7298 184.966 43.8798C184.326 52.8298 186.306 59.1798 194.966 57.2798C206.786 54.6898 206.196 33.0198 194.666 33.0098Z" fill="#EBB376"/>
<path d="M189.456 43.5C188.907 44.5363 188.235 45.5032 187.456 46.38C187.659 46.6664 187.938 46.891 188.261 47.0286C188.584 47.1663 188.939 47.2118 189.286 47.16L189.456 43.5Z" fill="#D58745"/>
<path d="M193.706 42.9401C193.706 43.5101 193.996 43.9401 194.376 43.9401C194.756 43.9401 195.076 43.5001 195.086 42.9401C195.096 42.3801 194.806 41.9401 194.426 41.8901C194.046 41.8401 193.726 42.3601 193.706 42.9401Z" fill="#263238"/>
<path d="M194.577 41.9399L193.347 41.4199C193.347 41.4199 193.947 42.4899 194.577 41.9399Z" fill="#263238"/>
<path d="M186.616 42.6403C186.616 43.2103 186.906 43.6403 187.286 43.6903C187.666 43.7403 187.986 43.2503 187.996 42.6903C188.006 42.1303 187.716 41.6903 187.336 41.6403C186.956 41.5903 186.636 42.0703 186.616 42.6403Z" fill="#263238"/>
<path d="M187.487 41.6597L186.267 41.1396C186.267 41.1396 186.857 42.1997 187.487 41.6597Z" fill="#263238"/>
<path d="M196.797 39.5301C196.745 39.5305 196.693 39.519 196.646 39.4965C196.6 39.4739 196.559 39.441 196.526 39.4001C196.174 39.0546 195.748 38.7926 195.281 38.6333C194.814 38.4741 194.317 38.4218 193.827 38.4801C193.782 38.4857 193.736 38.4823 193.693 38.4702C193.65 38.4581 193.609 38.4375 193.574 38.4096C193.538 38.3817 193.509 38.347 193.487 38.3076C193.465 38.2682 193.451 38.2249 193.446 38.1801C193.439 38.136 193.441 38.0909 193.452 38.0475C193.463 38.0042 193.483 37.9635 193.51 37.928C193.537 37.8924 193.571 37.8628 193.61 37.8408C193.649 37.8188 193.692 37.805 193.737 37.8001C194.342 37.7182 194.958 37.7786 195.536 37.9765C196.114 38.1744 196.638 38.5043 197.066 38.9401C197.095 38.9749 197.116 39.0149 197.129 39.0578C197.142 39.1008 197.146 39.1459 197.141 39.1905C197.137 39.2352 197.123 39.2784 197.102 39.3178C197.08 39.3572 197.051 39.392 197.017 39.4201C196.99 39.4535 196.957 39.4806 196.919 39.4996C196.881 39.5186 196.839 39.529 196.797 39.5301Z" fill="#263238"/>
<path d="M185.966 38.75C185.891 38.7529 185.817 38.7307 185.756 38.687C185.695 38.6433 185.649 38.5805 185.628 38.5085C185.606 38.4364 185.609 38.3592 185.636 38.2889C185.663 38.2186 185.712 38.1592 185.776 38.12C186.211 37.794 186.714 37.5707 187.247 37.4668C187.781 37.3629 188.331 37.3811 188.856 37.5201C188.94 37.5536 189.007 37.618 189.044 37.7C189.082 37.7819 189.086 37.8751 189.056 37.9601C189.041 38.0022 189.017 38.0409 188.986 38.0738C188.956 38.1067 188.919 38.1332 188.878 38.1518C188.837 38.1704 188.793 38.1808 188.748 38.1822C188.703 38.1836 188.658 38.1761 188.616 38.1601C188.192 38.0615 187.751 38.0588 187.325 38.1522C186.9 38.2457 186.5 38.4328 186.156 38.7C186.097 38.7305 186.032 38.7476 185.966 38.75Z" fill="#263238"/>
<path d="M202.246 44.7197C202.246 44.7197 199.006 39.0197 199.496 34.6097C199.496 34.6097 185.736 28.9797 185.046 42.9497C185.046 42.9497 183.716 30.5397 195.656 30.2697C207.596 29.9997 207.526 47.4697 201.356 52.6697C201.356 52.6697 204.256 48.2897 202.246 44.7197Z" fill="#263238"/>
<path d="M201.117 46.1903C201.144 45.7904 201.252 45.4001 201.433 45.0425C201.613 44.6848 201.864 44.3671 202.17 44.1079C202.476 43.8488 202.83 43.6535 203.213 43.5337C203.595 43.4139 203.998 43.3719 204.397 43.4103C206.547 43.6403 207.567 48.0602 202.217 49.1202C201.447 49.2702 201.067 48.5203 201.117 46.1903Z" fill="#EBB376"/>
<path d="M189.066 48.9404C189.407 49.7888 189.684 50.6612 189.896 51.5504H190.376C192.556 51.3604 193.506 50.5504 193.906 49.7204C194.179 49.0628 194.214 48.3311 194.006 47.6504C192.713 48.3655 191.28 48.792 189.806 48.9004C189.336 48.9404 189.066 48.9404 189.066 48.9404Z" fill="#263238"/>
<path d="M189.786 48.8799L190.056 49.6399C192.106 49.4599 193.526 49.0599 194.116 48.3799C194.107 48.1252 194.063 47.8729 193.986 47.6299C192.693 48.345 191.26 48.7715 189.786 48.8799Z" fill="white"/>
<path d="M190.356 51.5302C192.536 51.3402 193.486 50.5302 193.886 49.7002C193.059 49.7815 192.252 50.0119 191.506 50.3802C191.014 50.6362 190.612 51.0378 190.356 51.5302Z" fill="#DE5753"/>
<path fill-rule="evenodd" clip-rule="evenodd" d="M64.199 13.1147C85.6575 8.01819 104.206 21.7449 125.56 27.135C154.204 34.3653 194.637 26.3722 206.728 49.0916C219.117 72.3687 193.81 97.4056 172.844 115.98C155.117 131.685 130.466 138.217 104.581 139.59C77.4514 141.029 48.9388 139.349 29.5049 123.582C8.08465 106.203 -5.44038 80.5053 2.11314 56.4546C9.28712 33.6123 36.8403 19.6126 64.199 13.1147Z" fill="#FFECB2"/>
<mask id="mask0_512_38076" style="mask-type:alpha" maskUnits="userSpaceOnUse" x="0" y="12" width="210" height="128">
<path fill-rule="evenodd" clip-rule="evenodd" d="M64.199 13.1147C85.6575 8.01819 104.206 21.7449 125.56 27.135C154.204 34.3653 194.637 26.3722 206.728 49.0916C219.117 72.3687 193.81 97.4056 172.844 115.98C155.117 131.685 130.466 138.217 104.581 139.59C77.4514 141.029 48.9388 139.349 29.5049 123.582C8.08465 106.203 -5.44038 80.5053 2.11314 56.4546C9.28712 33.6123 36.8403 19.6126 64.199 13.1147Z" fill="#FFECB2"/>
</mask>
<g mask="url(#mask0_512_38076)">
<path d="M-3.23052 52.2891C-3.23052 52.2891 -12.3305 55.5891 -10.7405 60.1991C-9.15051 64.8091 1.71949 58.5791 1.71949 58.5791L-3.23052 52.2891Z" fill="#E6C7C3"/>
<path opacity="0.2" d="M-3.23052 52.2891C-3.23052 52.2891 -12.3305 55.5891 -10.7405 60.1991C-9.15051 64.8091 1.71949 58.5791 1.71949 58.5791L-3.23052 52.2891Z" fill="black"/>
<path d="M12.5003 42.1289C7.45034 43.1989 -5.39966 51.9489 -5.39966 51.9489L-1.04966 62.3789L10.5903 58.5389L12.5003 42.1289Z" fill="#FFC100"/>
<path d="M7.05995 83.2891C7.05995 83.2891 -13.5601 151.659 -12.4301 171.979C-11.1901 194.259 18.7599 241.129 18.7599 241.129L30.05 233.999C30.05 233.999 8.88996 187.769 8.09996 170.669C9.26996 145.929 34.99 85.8391 34.99 85.8391L7.05995 83.2891Z" fill="#263238"/>
<path opacity="0.2" d="M23.43 107.289C17.19 111.109 14.72 127.379 16.04 135.639C19.41 125.179 23.26 114.869 26.34 106.959C25.8686 106.754 25.3516 106.677 24.8408 106.734C24.33 106.792 23.8434 106.984 23.43 107.289Z" fill="black"/>
<path d="M16.6199 84.6289C16.6199 84.6289 22.3299 151.629 25.2799 171.929C28.5199 194.209 35.4399 242.819 35.4399 242.819H48.2599C48.2599 242.819 45.6399 196.289 44.4299 174.399C43.0399 149.399 42.3699 86.7389 42.3699 86.7389L16.6199 84.6289Z" fill="#263238"/>
<path d="M11.27 95.2987L29.22 95.5187V91.1387H11.27V95.2987Z" fill="black"/>
<path d="M30.5798 91.1387V95.5287L42.8498 95.6787V91.1387H30.5798Z" fill="black"/>
<path d="M9.90996 91.1387H4.68996L4.19995 95.2087L9.90996 95.2787V91.1387Z" fill="black"/>
<path d="M22.08 90.3389H15.02V95.4289H22.08V90.3389Z" fill="white"/>
<path d="M5 90.5189L43.18 93.0489C45.27 74.5389 51.36 55.4989 53.18 48.7689C53.3095 48.3035 53.2497 47.8058 53.0136 47.3843C52.7776 46.9628 52.3845 46.6517 51.92 46.5189C50.03 45.9689 48.07 45.5189 46.1 45.0389C37.1714 43.1655 28.1169 41.9522 19.01 41.4089C16.8176 41.2071 14.6071 41.4486 12.51 42.1189C6.76999 58.3589 5.42 78.2089 5 90.5189Z" fill="#FFC100"/>
<path opacity="0.2" d="M51.6499 54.1391C50.7399 57.3191 49.6499 61.2791 48.4799 65.7491C44.2999 59.8691 48.0299 51.3291 48.0299 51.3291C49.478 51.9046 50.7332 52.879 51.6499 54.1391Z" fill="black"/>
<path d="M39.2298 43.8696C35.9498 46.8696 27.9198 45.7396 27.9198 45.7396C27.9198 45.7396 22.9198 44.3696 23.9198 42.7996C26.9198 42.3196 28.3098 40.9396 28.9198 39.1696C29.2399 38.0768 29.3418 36.9317 29.2198 35.7996C29.2198 35.5196 29.1698 35.2396 29.1298 34.9696C29.0898 34.6996 29.0298 34.2696 28.9698 33.9196L38.8998 26.5596C38.5398 27.8996 38.1598 29.5596 37.8998 31.3296C37.1998 35.4996 36.9798 40.3296 38.6598 43.0496C38.8216 43.3414 39.0126 43.6162 39.2298 43.8696Z" fill="#E6C7C3"/>
<path opacity="0.2" d="M37.57 39.9189C33.95 39.5189 31.25 37.1789 28.98 33.9189L37.37 34.6189C37.2911 36.3881 37.358 38.1608 37.57 39.9189Z" fill="black"/>
<path d="M-10.8001 58.449C-11.6301 63.579 -8.57007 65.079 3.50993 79.329C3.50993 79.329 2.73993 81.649 3.10993 82.209C3.47993 82.769 10.5099 89.879 10.5099 89.879L16.5099 82.039C16.5099 82.039 12.1099 76.649 10.6999 75.669C10.1099 75.259 7.31993 75.369 7.31993 75.369C7.31993 75.369 -2.89007 58.039 -4.92007 56.439C-6.95007 54.839 -10.2501 55.049 -10.8001 58.449Z" fill="#E6C7C3"/>
<path d="M57.8899 66.6396C57.8899 66.6396 64.3999 75.3496 70.4499 73.8796C76.4999 72.4096 82.7299 66.8796 82.7299 66.8796C82.7299 66.8796 85.5699 68.6596 86.8999 68.6296C88.2299 68.5996 95.2399 67.3996 95.2399 67.3996L91.9599 59.9296C91.9599 59.9296 85.8699 60.3296 84.2599 60.2896C82.6499 60.2496 80.6799 62.7896 80.6799 62.7896C80.6799 62.7896 71.0499 65.2296 69.6799 65.1696C68.3099 65.1096 63.5699 59.8496 63.5699 59.8496L57.8899 66.6396Z" fill="#E6C7C3"/>
<path d="M51.89 46.5088C57.48 49.1388 68.61 62.2788 68.61 62.2788L60.31 71.8488L48.26 62.2888C48.26 62.2888 47.07 54.6688 48.03 51.2888C48.6505 49.2564 50.0339 47.5433 51.89 46.5088Z" fill="#FFC100"/>
<path d="M21.1699 22.0792C21.0979 22.3768 21.1157 22.689 21.221 22.9765C21.3263 23.264 21.5143 23.5139 21.7614 23.6946C22.0085 23.8754 22.3037 23.9789 22.6095 23.9921C22.9154 24.0053 23.2184 23.9277 23.4802 23.7689C23.7419 23.6102 23.9509 23.3775 24.0805 23.1001C24.2102 22.8228 24.2549 22.5132 24.2088 22.2106C24.1628 21.9079 24.0282 21.6256 23.8219 21.3993C23.6157 21.1731 23.347 21.013 23.0499 20.9392C22.8516 20.89 22.6455 20.8805 22.4435 20.9112C22.2415 20.9419 22.0475 21.0122 21.8728 21.1182C21.6981 21.2241 21.546 21.3636 21.4254 21.5285C21.3048 21.6935 21.2179 21.8806 21.1699 22.0792Z" fill="#263238"/>
<path d="M45.03 11.2891C45.03 11.2891 47.47 20.6491 42.8 24.8391C38.13 29.0291 36.28 11.2891 36.28 11.2891H45.03Z" fill="#263238"/>
<path d="M44.5798 30.209C44.4803 30.5493 44.3601 30.8833 44.2198 31.209C43.245 33.4477 41.4585 35.2341 39.2198 36.209C37.1993 37.1153 34.9128 37.233 32.8098 36.539C31.3095 36.0271 29.978 35.114 28.9598 33.899C25.7098 30.179 26.0598 26.129 26.0998 19.259C26.0819 17.6517 26.476 16.0665 27.2446 14.6548C28.0132 13.243 29.1306 12.0517 30.4903 11.1943C31.85 10.337 33.4067 9.84226 35.0119 9.7573C36.617 9.67233 38.2172 9.99997 39.6598 10.709C46.1798 13.879 46.4598 24.139 44.5798 30.209Z" fill="#E6C7C3"/>
<path d="M36.3699 21.8591C36.2899 22.4091 36.5899 22.859 36.9699 22.909C37.3499 22.959 37.6499 22.499 37.6899 21.909C37.7299 21.319 37.4599 20.9091 37.0999 20.8591C36.7399 20.8091 36.4099 21.2891 36.3699 21.8591Z" fill="#263238"/>
<path d="M42.6799 22.2896C42.6099 22.8396 42.9199 23.2896 43.2799 23.3396C43.6399 23.3896 43.9699 22.9296 44.0099 22.3396C44.0499 21.7496 43.7799 21.3396 43.4099 21.2896C43.0399 21.2396 42.7199 21.7396 42.6799 22.2896Z" fill="#263238"/>
<path d="M40.66 22.4092C41.2092 24.1779 42.0036 25.861 43.0201 27.4092C42.617 27.6564 42.1654 27.8139 41.696 27.8708C41.2266 27.9278 40.7505 27.8829 40.3 27.7392L40.66 22.4092Z" fill="#892B29"/>
<path d="M45.1999 19.7188C45.1489 19.7507 45.09 19.7677 45.0299 19.7677C44.9698 19.7677 44.9108 19.7507 44.8599 19.7188C44.5315 19.4675 44.1482 19.2976 43.7415 19.2229C43.3348 19.1481 42.9162 19.1707 42.5199 19.2888C42.4389 19.3182 42.3497 19.3148 42.2712 19.2793C42.1928 19.2438 42.1313 19.179 42.0999 19.0988C42.084 19.0588 42.0763 19.016 42.0772 18.973C42.0782 18.93 42.0879 18.8876 42.1056 18.8484C42.1233 18.8092 42.1488 18.774 42.1805 18.7448C42.2121 18.7157 42.2493 18.6932 42.2899 18.6788C42.7857 18.5197 43.3125 18.4821 43.8259 18.5691C44.3392 18.6562 44.8242 18.8652 45.2399 19.1788C45.2758 19.202 45.3067 19.2322 45.3308 19.2676C45.3549 19.303 45.3716 19.3428 45.38 19.3848C45.3884 19.4268 45.3882 19.47 45.3796 19.5119C45.371 19.5538 45.3541 19.5935 45.3299 19.6288C45.2957 19.6703 45.2507 19.7014 45.1999 19.7188Z" fill="#263238"/>
<path d="M35.2799 19.2893C35.214 19.2857 35.151 19.2612 35.1 19.2193C35.0474 19.1501 35.0243 19.0631 35.0355 18.977C35.0467 18.8908 35.0914 18.8126 35.16 18.7593C35.5713 18.4373 36.0541 18.2192 36.5677 18.1234C37.0812 18.0277 37.6102 18.0571 38.11 18.2093C38.1505 18.2237 38.1877 18.2462 38.2194 18.2753C38.2511 18.3044 38.2765 18.3397 38.2943 18.3789C38.312 18.4181 38.3216 18.4605 38.3226 18.5035C38.3236 18.5465 38.3159 18.5893 38.3 18.6293C38.2686 18.7095 38.2071 18.7743 38.1286 18.8098C38.0502 18.8453 37.9609 18.8487 37.88 18.8193C37.481 18.7122 37.0626 18.6998 36.6581 18.7831C36.2535 18.8665 35.8741 19.0432 35.55 19.2993C35.5067 19.3161 35.4604 19.324 35.4139 19.3222C35.3675 19.3205 35.3219 19.3093 35.2799 19.2893Z" fill="#263238"/>
<path d="M31.6698 11.0293L31.9898 14.0293C31.4723 14.2626 31.0621 14.6828 30.8414 15.2058C30.6208 15.7287 30.6059 16.3158 30.7998 16.8493C31.7398 19.4193 30.2198 23.3493 28.2398 24.8493C28.2398 24.8493 28.2398 23.7493 27.2398 23.9893C26.2398 24.2293 26.4598 29.9893 28.2398 32.7693C28.2398 32.7693 25.5398 30.2393 24.0898 24.1793C22.7498 18.5693 22.6498 13.9093 23.8298 11.7693L31.6698 11.0293Z" fill="#263238"/>
<path d="M22.7099 24.6995C23.3722 26.2998 24.6414 27.5726 26.2399 28.2395C28.3699 29.1095 29.6898 27.2395 29.3298 25.1295C28.9898 23.2295 27.4898 20.4195 25.2498 20.4795C24.7601 20.4945 24.2819 20.6322 23.859 20.8799C23.4362 21.1275 23.0823 21.4773 22.8296 21.8971C22.5769 22.3169 22.4335 22.7934 22.4126 23.283C22.3917 23.7726 22.4939 24.2596 22.7099 24.6995Z" fill="#E6C7C3"/>
<path d="M40.2598 29.5487C39.734 30.3909 39.2694 31.2698 38.8698 32.1787L38.3598 32.0387C36.0698 31.4187 35.2098 30.3687 34.9598 29.3987C34.8444 28.9223 34.8444 28.4252 34.9598 27.9487C35.0222 27.6804 35.1197 27.4215 35.2498 27.1787C36.4958 28.1776 37.9417 28.8971 39.4898 29.2887C39.9598 29.4787 40.2598 29.5487 40.2598 29.5487Z" fill="#263238"/>
<path d="M39.49 29.2887L39.05 30.0487C36.9 29.4587 35.46 28.7487 34.96 27.9087C35.0223 27.6404 35.1198 27.3815 35.25 27.1387C36.4923 28.1518 37.9385 28.8851 39.49 29.2887Z" fill="white"/>
<path d="M38.36 32.0394C36.07 31.4194 35.21 30.3694 34.96 29.3994C35.8239 29.6563 36.6361 30.0624 37.36 30.5994C37.8358 30.9629 38.1856 31.4666 38.36 32.0394Z" fill="#DE5753"/>
<path d="M21.4601 13.6193C21.3557 14.048 21.3808 14.498 21.5322 14.9125C21.6837 15.3269 21.9547 15.6871 22.3109 15.9475C22.6672 16.2078 23.0927 16.3566 23.5335 16.375C23.9744 16.3935 24.4108 16.2807 24.7876 16.051C25.1643 15.8214 25.4644 15.4851 25.65 15.0847C25.8355 14.6844 25.8981 14.238 25.8299 13.8021C25.7616 13.3661 25.5656 12.9602 25.2666 12.6358C24.9676 12.3113 24.579 12.0828 24.1501 11.9793C23.5759 11.8407 22.9702 11.9355 22.4659 12.243C21.9616 12.5504 21.5998 13.0454 21.4601 13.6193Z" fill="#263238"/>
<path d="M21.7099 17.0088C21.638 17.3064 21.6557 17.6186 21.761 17.9061C21.8663 18.1936 22.0543 18.4434 22.3015 18.6242C22.5486 18.8049 22.8437 18.9084 23.1496 18.9217C23.4555 18.9349 23.7584 18.8572 24.0202 18.6985C24.282 18.5397 24.4909 18.307 24.6206 18.0297C24.7503 17.7523 24.7949 17.4428 24.7489 17.1401C24.7029 16.8374 24.5682 16.5552 24.362 16.3289C24.1557 16.1026 23.8871 15.9425 23.5899 15.8688C23.1895 15.7721 22.7672 15.8377 22.415 16.0513C22.0628 16.2648 21.8093 16.609 21.7099 17.0088Z" fill="#263238"/>
<path d="M21.5 19.1289C21.428 19.4265 21.4458 19.7387 21.5511 20.0262C21.6563 20.3137 21.8444 20.5636 22.0915 20.7443C22.3386 20.9251 22.6337 21.0286 22.9396 21.0418C23.2455 21.055 23.5484 20.9773 23.8102 20.8186C24.072 20.6598 24.2809 20.4271 24.4106 20.1498C24.5403 19.8724 24.5849 19.5629 24.5389 19.2602C24.4929 18.9575 24.3583 18.6753 24.152 18.449C23.9458 18.2228 23.6771 18.0626 23.38 17.9889C22.9796 17.8922 22.5572 17.9578 22.205 18.1714C21.8528 18.385 21.5994 18.7292 21.5 19.1289Z" fill="#263238"/>
<path d="M22.6399 13.0687C22.6399 13.0687 21.9999 9.0687 28.3399 6.1387C34.6799 3.2087 41.4399 6.93869 45.6899 4.37869C49.9399 1.81869 49.7999 12.8087 40.8299 13.8087C34.7601 14.3504 28.6456 14.1016 22.6399 13.0687Z" fill="#263238"/>
<path d="M89.8899 64.3985L103.55 77.9285C105.55 77.8485 106.33 73.2085 106.65 69.4685L104.71 65.7485L106.65 61.9785H112.59L113.95 66.1185L113.21 69.4685L110.27 70.8885C110.27 70.8885 108.21 87.7485 105.61 87.7485C103.01 87.7485 86.1199 73.0085 86.1199 73.0085L89.8899 64.3985Z" fill="#EEC1BB"/>
<path d="M86.2 74.2684L93.7 80.3984L99.7599 70.8284L89.85 64.3984L86.2 74.2684Z" fill="#263238"/>
<path opacity="0.2" d="M90.3899 77.6986L91.5499 71.8486L93.6999 80.3986L90.3899 77.6986Z" fill="black"/>
<path d="M91.24 93.4092V102.939L65.34 104.739L64.2 94.6892L91.24 93.4092Z" fill="#EEC1BB"/>
<path d="M116.18 240.418L106.78 242.078C97.2899 218.428 90.5299 198.698 85.7799 182.318C83.2099 173.478 81.0699 165.618 79.5299 158.648L79.8199 184.388V242.388H70.5499C47.3199 131.738 63.7799 106.528 63.7799 106.528L91.5799 101.898C92.6707 107.042 93.4422 112.249 93.8899 117.488L95.1499 126.708L106.01 182.828L116.18 240.418Z" fill="#FFC100"/>
<g opacity="0.3">
<path d="M116.18 240.418L106.78 242.078C97.2899 218.428 90.5299 198.698 85.7799 182.318C83.2099 173.478 81.0699 165.618 79.5299 158.648L79.8199 184.388V242.388H70.5499C47.3199 131.738 63.7799 106.528 63.7799 106.528L91.5799 101.898C92.6707 107.042 93.4422 112.249 93.8899 117.488L95.1499 126.708L106.01 182.828L116.18 240.418Z" fill="white"/>
</g>
<path opacity="0.2" d="M85.7699 182.288C83.1999 173.448 81.1999 165.588 79.6599 158.618C79.7937 150.364 80.3946 142.125 81.4599 133.938C81.4599 133.938 85.5299 165.798 85.7699 182.288Z" fill="black"/>
<path d="M93.5799 106.629L61.5199 109.289C62.5199 102.999 62.9799 92.3389 60.9399 85.1189C60.6299 84.0389 60.2899 82.8989 59.9399 81.6789C59.4999 80.2789 58.9999 78.7755 58.4399 77.1689C58.0099 75.9289 57.5399 74.6089 57.0199 73.1689C56.8799 72.7589 56.7199 72.3389 56.5599 71.9189C56.0399 70.5089 55.4799 69.0089 54.8599 67.4289C58.5806 66.3747 62.365 65.5597 66.1899 64.9889C70.2519 64.3499 74.3499 63.9658 78.4599 63.8389C83.7699 63.8389 89.8799 64.3289 89.8799 64.3289C89.8799 64.3289 90.7399 64.5189 91.2899 69.5389C91.7599 74.2889 94.6699 89.4689 93.5799 106.629Z" fill="#263238"/>
<path d="M78.12 65.4991C77.8518 65.3634 77.5744 65.2464 77.29 65.1491C76.65 64.6491 75.89 63.4491 75.93 60.5391C75.9509 59.3965 76.0545 58.2568 76.24 57.1291L68.14 55.6191C68.14 55.6191 70.9 61.0691 68.6 65.1191C67.81 65.4691 67.33 65.9691 67.42 66.6291C68.03 71.3091 76.95 72.2291 76.95 72.2291C76.95 72.2291 83 68.1891 78.12 65.4991Z" fill="#EEC1BB"/>
<path opacity="0.2" d="M76.2399 57.1291C75.2899 59.6991 73.1799 61.4791 69.4799 62.1891C69.603 59.9205 69.1416 57.6583 68.1399 55.6191L76.2399 57.1291Z" fill="black"/>
<path d="M80.3699 30.0089C80.3699 30.0089 79.3699 21.3889 87.2999 24.2189C95.2299 27.0489 94.1999 41.4589 98.0099 46.2189C101.82 50.9789 104.67 50.4589 104.67 50.4589C104.67 50.4589 99.9099 54.3989 95.3499 52.2189C90.7899 50.0389 80.3699 30.0089 80.3699 30.0089Z" fill="#263238"/>
<path d="M80.26 31.3386L82.14 30.0586C82.8376 30.2237 83.4915 30.5368 84.0574 30.9768C84.6233 31.4168 85.088 31.9733 85.42 32.6086C86.1344 33.8908 86.5577 35.3144 86.66 36.7786L84.12 37.8686L80.26 31.3386Z" fill="#FFC100"/>
<path d="M70.77 31.1494C70.77 31.1494 61.22 30.4794 59.9 38.2193C59.5136 40.4175 59.7607 42.6802 60.6125 44.7432C61.4642 46.8061 62.8854 48.5841 64.71 49.8694L70.77 31.1494Z" fill="#263238"/>
<path d="M71.8898 35.1689C64.8398 35.1689 62.5698 38.9589 62.0598 46.2289C61.4298 55.3089 63.4498 61.7689 72.2698 59.8189C84.2098 57.1689 83.5698 35.1589 71.8898 35.1689Z" fill="#EEC1BB"/>
<path d="M66.5898 45.8291C66.0431 46.8824 65.3716 47.8662 64.5898 48.7591C64.7966 49.0498 65.0798 49.2776 65.4082 49.417C65.7365 49.5565 66.0971 49.6022 66.4498 49.5491L66.5898 45.8291Z" fill="#D4827D"/>
<path d="M70.8899 45.2891C70.8899 45.8691 71.1799 46.3491 71.5599 46.3491C71.9399 46.3491 72.2699 45.8991 72.2899 45.3491C72.3099 44.7991 71.9999 44.2891 71.6099 44.2891C71.2199 44.2891 70.8899 44.6691 70.8899 45.2891Z" fill="#263238"/>
<path d="M71.79 44.2888L70.54 43.7588C70.54 43.7588 71.15 44.7988 71.79 44.2888Z" fill="#263238"/>
<path d="M63.71 44.9688C63.71 45.5487 64 45.9688 64.38 46.0288C64.76 46.0888 65.09 45.5788 65.11 45.0288C65.13 44.4788 64.8199 43.9688 64.4299 43.9688C64.0399 43.9688 63.72 44.3888 63.71 44.9688Z" fill="#263238"/>
<path d="M64.5898 43.9685L63.3398 43.4385C63.3398 43.4385 63.9498 44.5185 64.5898 43.9685Z" fill="#263238"/>
<path d="M74.0301 41.7785C73.9804 41.78 73.931 41.77 73.8859 41.7492C73.8408 41.7284 73.8011 41.6973 73.7701 41.6585C73.4121 41.3047 72.9788 41.0365 72.5026 40.8737C72.0265 40.7109 71.5196 40.6579 71.0201 40.7185C70.9291 40.7273 70.8382 40.7012 70.7658 40.6455C70.6934 40.5898 70.6449 40.5086 70.6301 40.4185C70.6245 40.3738 70.6278 40.3284 70.6399 40.285C70.6521 40.2416 70.6727 40.2011 70.7006 40.1657C70.7285 40.1304 70.7631 40.1009 70.8025 40.0791C70.8419 40.0572 70.8853 40.0434 70.93 40.0385C71.5448 39.9607 72.1692 40.0268 72.754 40.2316C73.3388 40.4363 73.8681 40.7742 74.3001 41.2185C74.3642 41.2839 74.4001 41.3719 74.4001 41.4635C74.4001 41.5551 74.3642 41.643 74.3001 41.7085C74.2626 41.7386 74.2191 41.7604 74.1726 41.7724C74.126 41.7845 74.0774 41.7866 74.0301 41.7785Z" fill="#263238"/>
<path d="M63.0398 41.0092C62.9829 41.0097 62.9268 40.9963 62.8762 40.9701C62.8257 40.944 62.7823 40.9059 62.7498 40.8592C62.7239 40.8214 62.706 40.7788 62.697 40.7339C62.688 40.689 62.6882 40.6428 62.6976 40.5979C62.7069 40.5531 62.7252 40.5106 62.7514 40.4731C62.7775 40.4355 62.811 40.4036 62.8498 40.3792C63.2875 40.0473 63.7948 39.819 64.3335 39.7117C64.8722 39.6043 65.4283 39.6205 65.9598 39.7592C66.0451 39.7909 66.1148 39.8545 66.154 39.9366C66.1932 40.0188 66.1989 40.113 66.1698 40.1992C66.1382 40.2846 66.0745 40.3542 65.9924 40.3934C65.9102 40.4327 65.816 40.4383 65.7298 40.4092C65.2983 40.3108 64.8504 40.3091 64.4182 40.4042C63.986 40.4993 63.5801 40.6888 63.2298 40.9592C63.1709 40.9897 63.106 41.0068 63.0398 41.0092Z" fill="#263238"/>
<path d="M79.5799 47.0485C79.5799 47.0485 76.2799 41.2585 76.7699 36.7885C76.7699 36.7885 62.7699 31.0885 62.1199 45.2785C62.1199 45.2785 60.7299 32.6885 72.8599 32.3885C84.9899 32.0885 84.9499 49.8285 78.6999 55.1285C78.6999 55.1285 81.6299 50.6685 79.5799 47.0485Z" fill="#263238"/>
<path d="M69.54 30.6687C69.54 30.6687 63.68 29.5787 62.13 31.1987C60.58 32.8187 72.85 42.9587 79.02 43.7087C79.02 43.7087 81.47 50.3487 80.02 53.6087C80.02 53.6087 86.76 50.8187 86.5 40.3387C86.24 29.8587 75 26.5387 69.54 30.6687Z" fill="#263238"/>
<path d="M78.43 48.5386C78.4989 47.7227 78.8877 46.9673 79.5116 46.437C80.1355 45.9068 80.9438 45.645 81.76 45.7086C83.95 45.9486 84.99 50.4286 79.56 51.5186C78.78 51.6686 78.34 50.9086 78.43 48.5386Z" fill="#EEC1BB"/>
<path d="M65.72 52.0585C66.2029 52.9243 66.624 53.8232 66.98 54.7485L67.49 54.6385C69.81 54.1285 70.72 53.1285 71.02 52.1685C71.16 51.7013 71.184 51.207 71.09 50.7285C71.0477 50.4551 70.9669 50.1892 70.85 49.9385C69.5551 50.8863 68.0716 51.5445 66.5 51.8685C66.02 51.9985 65.72 52.0585 65.72 52.0585Z" fill="#263238"/>
<path d="M66.5 51.8685L66.9 52.6485C69.08 52.1685 70.55 51.5385 71.09 50.7285C71.0477 50.4551 70.9669 50.1892 70.85 49.9385C69.5552 50.8863 68.0716 51.5445 66.5 51.8685Z" fill="white"/>
<path d="M67.49 54.6389C69.81 54.1289 70.72 53.1289 71.02 52.1689C70.1438 52.3841 69.3114 52.7496 68.56 53.2489C68.0684 53.5907 67.6946 54.0763 67.49 54.6389Z" fill="#DE5753"/>
<path opacity="0.2" d="M59.89 81.6991C59.45 80.2991 58.95 78.7957 58.39 77.1891C57.96 75.9491 57.49 74.6291 56.97 73.1891C57.225 72.565 57.6102 72.0024 58.1 71.5391C58.1 71.5391 60.2 77.2891 59.89 81.6991Z" fill="black"/>
<path d="M54.8299 67.4993C51.1999 69.2893 40.3599 86.4993 43.4499 92.2893C46.5399 98.0793 60.4499 103.169 60.4499 103.169C60.4499 103.169 54.6499 106.359 54.8499 107.169C55.0499 107.979 59.8499 111.169 60.4499 111.169C62.1185 109.895 63.6834 108.491 65.1299 106.969C65.8199 106.189 65.2199 102.909 65.2199 102.909C61.2999 99.7193 50.5299 92.0393 49.8699 90.3193C49.2099 88.5993 58.2899 76.7493 58.2899 76.7493C58.2899 76.7493 58.5499 71.8293 57.4599 69.6293C56.3699 67.4293 54.8299 67.4993 54.8299 67.4993Z" fill="#EEC1BB"/>
<path d="M54.1698 83.9984L46.0999 77.9384C49.2399 73.5884 51.7198 67.3584 54.8298 67.4984C57.9398 67.6384 58.4599 71.9684 58.4099 77.1884L54.1698 83.9984Z" fill="#263238"/>
<path d="M195.749 28.1592C195.749 28.1592 189.204 24.0606 183.867 27.1571C181.407 28.56 180.546 32.1676 180.022 34.9534C179.302 38.8615 179.187 42.8799 178.69 46.8281C178.515 48.4996 178.092 50.1258 177.437 51.6382C176.549 53.6423 174.675 55.6465 175.048 58.1017C175.368 60.2662 177.331 61.5689 179.045 62.1601C183.583 63.7334 188.725 62.8616 193.414 63.1622C197.188 63.4328 200.838 64.8758 204.621 64.976C205.698 65.0814 206.78 64.8381 207.738 64.2745C211.388 61.8194 209.799 55.5062 208.626 51.9989C207.623 48.9926 208.36 45.9864 208.04 42.8498C207.809 40.1005 207.235 37.4017 206.335 34.8331C204.435 29.7725 200.634 27.0869 195.749 28.1592Z" fill="#263238"/>
<path d="M162.726 81.1399C164.096 81.0199 177.636 72.2299 177.636 72.2299L178.116 68.5599L178.626 64.5599C176.626 64.4899 164.476 74.19 162.736 75.04C159.206 76.78 159.606 81.4 162.726 81.1399Z" fill="#EBB376"/>
<path opacity="0.2" d="M173.986 74.56L177.636 72.22L178.146 68.29L173.986 74.56Z" fill="black"/>
<path d="M213.516 66.09C213.516 66.09 207.456 72.25 206.706 98.44L179.576 96.25C179.576 96.25 175.256 77.56 178.576 64.35C190.178 61.9084 202.214 62.5078 213.516 66.09Z" fill="#FFC100"/>
<path opacity="0.4" d="M213.516 66.09C213.516 66.09 207.456 72.25 206.706 98.44L179.576 96.25C179.576 96.25 175.256 77.56 178.576 64.35C190.178 61.9084 202.214 62.5078 213.516 66.09Z" fill="white"/>
<path d="M156.856 235.75L165.776 237.33C174.776 214.9 181.186 196.18 185.706 180.64C188.146 172.26 190.176 164.8 191.636 158.18L191.366 182.6V237.6H200.156C222.156 132.6 206.366 101.89 206.366 101.89L179.566 100.19C178.566 104.12 178.446 114.69 178.006 119.13L176.816 127.94L166.506 181.17L156.856 235.75Z" fill="#263238"/>
<path opacity="0.2" d="M185.706 180.64C188.146 172.26 190.046 164.8 191.506 158.18C191.38 150.35 190.809 142.534 189.796 134.77C189.796 134.77 185.936 164.94 185.706 180.64Z" fill="black"/>
<path d="M206.706 98.44L179.576 96.25V100.86L207.106 103.29L206.706 98.44Z" fill="black"/>
<path d="M187.066 98.2895V100.42C187.065 100.838 187.22 101.241 187.501 101.55C187.783 101.86 188.17 102.052 188.586 102.09L191.946 102.38H192.066C192.485 102.378 192.887 102.221 193.196 101.94C193.368 101.784 193.504 101.594 193.597 101.382C193.69 101.17 193.738 100.941 193.736 100.71V98.5695C193.74 98.1508 193.586 97.746 193.304 97.4363C193.022 97.1265 192.634 96.9348 192.216 96.8995L188.856 96.6095C188.626 96.5916 188.394 96.6215 188.176 96.6973C187.957 96.773 187.757 96.893 187.587 97.0498C187.417 97.2065 187.282 97.3966 187.188 97.6082C187.095 97.8199 187.047 98.0484 187.046 98.2795L187.066 98.2895ZM187.926 100.42V99.7195L188.866 99.7895C188.945 99.8043 189.026 99.8024 189.104 99.7838C189.181 99.7653 189.254 99.7307 189.318 99.6821C189.381 99.6336 189.434 99.5722 189.472 99.502C189.51 99.4317 189.533 99.3543 189.54 99.2746C189.546 99.1949 189.536 99.1147 189.509 99.0394C189.482 98.964 189.44 98.8951 189.385 98.8371C189.33 98.779 189.264 98.7333 189.19 98.7027C189.116 98.6721 189.036 98.6574 188.956 98.6595L188.016 98.5795H187.886V98.2595C187.884 98.1468 187.907 98.0349 187.951 97.9314C187.996 97.8279 188.063 97.7352 188.146 97.6595C188.293 97.5228 188.486 97.4476 188.686 97.4495H188.766L192.116 97.7395C192.32 97.7548 192.51 97.8471 192.647 97.9977C192.785 98.1482 192.86 98.3456 192.856 98.5495V100.69C192.857 100.802 192.834 100.914 192.79 101.017C192.745 101.12 192.679 101.213 192.596 101.29C192.514 101.366 192.415 101.423 192.308 101.457C192.201 101.492 192.088 101.503 191.976 101.49L188.626 101.2C188.438 101.171 188.266 101.078 188.139 100.935C188.013 100.792 187.941 100.61 187.936 100.42H187.926Z" fill="white"/>
<path d="M199.496 63.3703C199.993 63.541 200.402 63.9002 200.636 64.3703C198 66.3053 194.796 67.3111 191.526 67.2303C190.606 67.2303 188.696 64.6303 190.126 63.8303C190.391 63.691 190.665 63.5707 190.946 63.4703C191.556 62.9803 192.306 61.7903 192.256 58.9303C192.228 57.8038 192.117 56.6808 191.926 55.5703L199.926 54.0303C199.926 54.0303 197.206 59.4003 199.496 63.3703Z" fill="#EBB376"/>
<path opacity="0.2" d="M191.926 55.5498C192.117 56.6603 192.228 57.7833 192.256 58.9098C197.646 58.9098 199.896 54.0098 199.896 54.0098L191.926 55.5498Z" fill="black"/>
<path d="M194.666 33.0098C187.666 33.0098 185.476 36.7298 184.966 43.8798C184.326 52.8298 186.306 59.1798 194.966 57.2798C206.786 54.6898 206.196 33.0198 194.666 33.0098Z" fill="#EBB376"/>
<path d="M189.456 43.5C188.907 44.5363 188.235 45.5032 187.456 46.38C187.659 46.6664 187.938 46.891 188.261 47.0286C188.584 47.1663 188.939 47.2118 189.286 47.16L189.456 43.5Z" fill="#D58745"/>
<path d="M193.706 42.9401C193.706 43.5101 193.996 43.9401 194.376 43.9401C194.756 43.9401 195.076 43.5001 195.086 42.9401C195.096 42.3801 194.806 41.9401 194.426 41.8901C194.046 41.8401 193.726 42.3601 193.706 42.9401Z" fill="#263238"/>
<path d="M194.576 41.9399L193.346 41.4199C193.346 41.4199 193.946 42.4899 194.576 41.9399Z" fill="#263238"/>
<path d="M186.616 42.6403C186.616 43.2103 186.906 43.6403 187.286 43.6903C187.666 43.7403 187.986 43.2503 187.996 42.6903C188.006 42.1303 187.716 41.6903 187.336 41.6403C186.956 41.5903 186.636 42.0703 186.616 42.6403Z" fill="#263238"/>
<path d="M187.486 41.6597L186.266 41.1396C186.266 41.1396 186.856 42.1997 187.486 41.6597Z" fill="#263238"/>
<path d="M196.796 39.5301C196.744 39.5305 196.693 39.519 196.646 39.4965C196.599 39.4739 196.558 39.441 196.526 39.4001C196.174 39.0546 195.748 38.7926 195.281 38.6333C194.814 38.4741 194.316 38.4218 193.826 38.4801C193.782 38.4857 193.736 38.4823 193.693 38.4702C193.649 38.4581 193.609 38.4375 193.574 38.4096C193.538 38.3817 193.509 38.347 193.487 38.3076C193.465 38.2682 193.451 38.2249 193.446 38.1801C193.439 38.136 193.441 38.0909 193.452 38.0475C193.463 38.0042 193.483 37.9635 193.51 37.928C193.537 37.8924 193.571 37.8628 193.61 37.8408C193.649 37.8188 193.692 37.805 193.736 37.8001C194.342 37.7182 194.958 37.7786 195.536 37.9765C196.114 38.1744 196.638 38.5043 197.066 38.9401C197.095 38.9749 197.116 39.0149 197.129 39.0578C197.142 39.1008 197.146 39.1459 197.141 39.1905C197.137 39.2352 197.123 39.2784 197.102 39.3178C197.08 39.3572 197.051 39.392 197.016 39.4201C196.99 39.4535 196.957 39.4806 196.918 39.4996C196.88 39.5186 196.839 39.529 196.796 39.5301Z" fill="#263238"/>
<path d="M185.966 38.75C185.891 38.7529 185.817 38.7307 185.756 38.687C185.695 38.6433 185.65 38.5805 185.628 38.5085C185.606 38.4364 185.609 38.3592 185.636 38.2889C185.663 38.2186 185.712 38.1592 185.776 38.12C186.211 37.794 186.714 37.5707 187.248 37.4668C187.781 37.3629 188.331 37.3811 188.856 37.5201C188.94 37.5536 189.007 37.618 189.045 37.7C189.082 37.7819 189.086 37.8751 189.056 37.9601C189.041 38.0022 189.017 38.0409 188.987 38.0738C188.956 38.1067 188.919 38.1332 188.878 38.1518C188.837 38.1704 188.793 38.1808 188.748 38.1822C188.703 38.1836 188.658 38.1761 188.616 38.1601C188.192 38.0615 187.751 38.0588 187.325 38.1522C186.9 38.2457 186.501 38.4328 186.156 38.7C186.098 38.7305 186.033 38.7476 185.966 38.75Z" fill="#263238"/>
<path d="M202.246 44.7197C202.246 44.7197 199.006 39.0197 199.496 34.6097C199.496 34.6097 185.736 28.9797 185.046 42.9497C185.046 42.9497 183.716 30.5397 195.656 30.2697C207.596 29.9997 207.526 47.4697 201.356 52.6697C201.356 52.6697 204.256 48.2897 202.246 44.7197Z" fill="#263238"/>
<path d="M201.117 46.1903C201.144 45.7904 201.252 45.4001 201.433 45.0425C201.613 44.6848 201.864 44.3671 202.17 44.1079C202.476 43.8488 202.83 43.6535 203.213 43.5337C203.595 43.4139 203.998 43.3719 204.397 43.4103C206.547 43.6403 207.567 48.0602 202.217 49.1202C201.447 49.2702 201.067 48.5203 201.117 46.1903Z" fill="#EBB376"/>
<path d="M189.066 48.9404C189.407 49.7888 189.684 50.6612 189.896 51.5504H190.376C192.556 51.3604 193.506 50.5504 193.906 49.7204C194.179 49.0628 194.214 48.3311 194.006 47.6504C192.713 48.3655 191.28 48.792 189.806 48.9004C189.336 48.9404 189.066 48.9404 189.066 48.9404Z" fill="#263238"/>
<path d="M189.786 48.8799L190.056 49.6399C192.106 49.4599 193.526 49.0599 194.116 48.3799C194.107 48.1252 194.063 47.8729 193.986 47.6299C192.693 48.345 191.26 48.7715 189.786 48.8799Z" fill="white"/>
<path d="M190.356 51.5302C192.536 51.3402 193.486 50.5302 193.886 49.7002C193.059 49.7815 192.252 50.0119 191.506 50.3802C191.014 50.6362 190.612 51.0378 190.356 51.5302Z" fill="#DE5753"/>
<path opacity="0.2" d="M200.986 86.4604C202.556 87.6904 205.516 86.5704 207.686 85.1904C208.686 79.5904 209.076 75.3604 210.026 72.4404C208.466 73.9404 198.116 84.2004 200.986 86.4604Z" fill="black"/>
<path d="M189.606 81.5396C189.561 81.5326 189.518 81.5129 189.482 81.4829C189.447 81.4529 189.421 81.4136 189.406 81.3696C189.266 80.8496 186.086 68.5396 188.656 62.8996C188.668 62.8709 188.686 62.8449 188.708 62.8232C188.73 62.8015 188.757 62.7845 188.786 62.7733C188.815 62.7621 188.846 62.7569 188.877 62.7579C188.908 62.759 188.938 62.7664 188.966 62.7796C189.021 62.8075 189.062 62.8551 189.083 62.9127C189.103 62.9704 189.101 63.0336 189.076 63.0896C186.886 67.8796 189.076 78.0296 189.706 80.6396C193.846 72.2996 202.636 63.5696 202.706 63.4796C202.727 63.4578 202.752 63.4404 202.779 63.4285C202.807 63.4167 202.836 63.4106 202.866 63.4106C202.896 63.4106 202.926 63.4167 202.954 63.4285C202.981 63.4404 203.006 63.4578 203.026 63.4796C203.069 63.5241 203.092 63.5832 203.092 63.6446C203.092 63.7059 203.069 63.765 203.026 63.8096C202.936 63.8996 193.796 72.9796 189.816 81.4096C189.797 81.449 189.768 81.4821 189.73 81.5051C189.693 81.5282 189.65 81.5401 189.606 81.5396Z" fill="white"/>
<path d="M189.486 85.6199C189.025 85.6219 188.573 85.4867 188.188 85.2314C187.804 84.9762 187.503 84.6124 187.326 84.1862C187.148 83.7601 187.101 83.2908 187.191 82.8378C187.28 82.3849 187.502 81.9689 187.829 81.6424C188.155 81.316 188.571 81.0938 189.024 81.0042C189.477 80.9147 189.947 80.9616 190.373 81.1392C190.799 81.3168 191.163 81.617 191.418 82.0017C191.673 82.3864 191.808 82.8383 191.806 83.2999C191.806 83.9152 191.562 84.5053 191.127 84.9404C190.692 85.3755 190.102 85.6199 189.486 85.6199ZM189.486 81.9C189.21 81.9 188.939 81.982 188.709 82.1359C188.478 82.2897 188.299 82.5084 188.193 82.7642C188.087 83.02 188.059 83.3015 188.113 83.5731C188.167 83.8447 188.301 84.0941 188.497 84.2899C188.692 84.4857 188.942 84.619 189.213 84.673C189.485 84.7271 189.766 84.6993 190.022 84.5934C190.278 84.4874 190.497 84.308 190.651 84.0777C190.804 83.8475 190.886 83.5768 190.886 83.2999C190.876 82.9356 190.724 82.5897 190.463 82.3358C190.201 82.0818 189.851 81.9398 189.486 81.9399V81.9Z" fill="#263238"/>
<path d="M190.126 74.6404L187.566 69.6404C187.566 69.6404 187.936 65.0904 187.566 64.7304C187.196 64.3704 182.106 62.1904 180.276 62.1904C178.446 62.1904 178.276 68.8804 179.006 69.6404C179.736 70.4004 184.366 71.9404 184.366 71.9404L189.006 75.4104L190.126 74.6404Z" fill="#EBB376"/>
<path d="M213.516 66.0898C218.016 70.5598 204.516 88.2399 199.896 88.2399C195.276 88.2399 184.366 71.9398 184.366 71.9398L187.566 69.6599C187.566 69.6599 198.456 81.0599 199.396 81.0999C200.336 81.1399 207.576 70.0999 208.896 68.7699C210.236 67.5692 211.809 66.657 213.516 66.0898Z" fill="#EBB376"/>
<path d="M100.926 67.0096L95.6864 64.0096C95.034 62.9264 94.2329 61.9401 93.3064 61.0796C92.2264 60.2696 87.7864 59.0796 87.7864 59.0796C86.1464 58.7196 85.2764 59.2296 84.7864 60.1896L82.2964 65.8496C81.8864 66.8496 81.9164 67.3096 82.2964 67.3796C82.2964 67.3796 90.9364 69.5196 93.0764 67.6496L98.3963 70.7396L100.926 67.0096Z" fill="#EEC1BB"/>
<path d="M130.976 49.86C131.115 50.6419 130.958 51.4474 130.536 52.12C129.216 54.58 123.846 65.04 121.256 68.39C117.056 73.83 113.656 76.74 111.046 76.92C106.726 77.23 93.9663 71.57 93.9663 71.57L99.0163 64.01C99.0163 64.01 106.576 67.49 109.786 66.76C112.996 66.03 119.136 49.25 121.326 45.04C121.326 45.04 130.066 45.94 130.976 49.86Z" fill="#FFC100"/>
<path opacity="0.2" d="M117.216 73.0804C116.455 74.0904 115.487 74.9257 114.376 75.5304C116.216 71.5304 119.006 56.1504 119.006 56.1504L117.216 73.0804Z" fill="black"/>
<path d="M156.626 94.0498H118.806C115.216 113.68 103.956 193.41 112.036 255.32H124.836C124.836 255.32 123.646 161.32 134.956 130.92C136.256 147.18 149.466 255.26 149.466 255.26H162.466C162.466 255.26 160.516 214.6 158.566 176.2C157.376 152.01 156.676 99.0098 156.626 94.0498Z" fill="#263238"/>
<path opacity="0.2" d="M156.626 94.0498H118.806C115.216 113.68 103.956 193.41 112.036 255.32H124.836C124.836 255.32 123.646 161.32 134.956 130.92C136.256 147.18 149.466 255.26 149.466 255.26H162.466C162.466 255.26 160.516 214.6 158.566 176.2C157.376 152.01 156.676 99.0098 156.626 94.0498Z" fill="white"/>
<path opacity="0.2" d="M134.946 130.94C133.091 136.268 131.68 141.74 130.726 147.3C129.666 132.83 133.896 117.48 133.896 117.48L134.946 130.94Z" fill="black"/>
<path d="M123.706 98.63L118.006 98.57L118.496 94.5H123.706V98.63Z" fill="black"/>
<path d="M144.326 94.5H156.556V99.03L144.326 98.89V94.5Z" fill="black"/>
<path d="M142.966 98.87L125.066 98.65V94.5H142.966V98.87Z" fill="black"/>
<path d="M134.436 99.1402H130.206C130.062 99.1402 129.92 99.1117 129.787 99.0563C129.654 99.0009 129.533 98.9197 129.432 98.8174C129.331 98.7152 129.251 98.5938 129.196 98.4604C129.142 98.327 129.115 98.1842 129.116 98.0402V95.3302C129.116 95.0411 129.231 94.7639 129.436 94.5595C129.64 94.3551 129.917 94.2402 130.206 94.2402H134.436C134.725 94.2402 135.003 94.3551 135.207 94.5595C135.411 94.7639 135.526 95.0411 135.526 95.3302V98.0402C135.528 98.1842 135.5 98.327 135.446 98.4604C135.392 98.5938 135.312 98.7152 135.211 98.8174C135.109 98.9197 134.989 99.0009 134.856 99.0563C134.723 99.1117 134.58 99.1402 134.436 99.1402ZM130.206 95.2402C130.182 95.2402 130.16 95.2497 130.143 95.2666C130.126 95.2835 130.116 95.3064 130.116 95.3302V98.0402C130.116 98.0651 130.125 98.0891 130.142 98.1076C130.159 98.1261 130.182 98.1377 130.206 98.1402H134.436C134.461 98.1377 134.484 98.1261 134.501 98.1076C134.517 98.0891 134.526 98.0651 134.526 98.0402V95.3302C134.526 95.3064 134.517 95.2835 134.5 95.2666C134.483 95.2497 134.46 95.2402 134.436 95.2402H130.206Z" fill="white"/>
<path d="M134.946 97.0703H132.756C132.624 97.0703 132.497 97.0176 132.403 96.9239C132.309 96.8301 132.256 96.7029 132.256 96.5703C132.256 96.4377 132.309 96.3105 132.403 96.2168C132.497 96.123 132.624 96.0703 132.756 96.0703H134.946C135.079 96.0703 135.206 96.123 135.3 96.2168C135.394 96.3105 135.446 96.4377 135.446 96.5703C135.446 96.7029 135.394 96.8301 135.3 96.9239C135.206 97.0176 135.079 97.0703 134.946 97.0703Z" fill="white"/>
<path d="M162.526 48.0602C162.086 49.6302 161.596 51.6802 161.116 54.1702C160.556 57.0002 159.996 60.4002 159.516 64.2402C158.377 74.2843 157.926 84.3946 158.166 94.5002L117.286 94.1502C117.286 94.1502 115.596 67.6302 121.286 45.0402L159.786 44.5602C160.22 44.5453 160.65 44.6329 161.043 44.8159C161.435 44.999 161.779 45.2722 162.047 45.6134C162.314 45.9546 162.496 46.3541 162.58 46.7793C162.663 47.2045 162.645 47.6434 162.526 48.0602Z" fill="#FFC100"/>
<path opacity="0.2" d="M161.116 54.1703C160.556 57.0003 159.556 64.4603 159.066 68.3003C155.296 66.4703 155.016 56.5703 155.016 56.5703C156.676 56.3303 160.316 53.4303 161.116 54.1703Z" fill="black"/>
<path d="M136.816 48.6003C136.816 48.6003 144.906 48.6703 147.816 45.3103C145.986 43.7603 145.196 40.6803 144.956 37.3803C144.804 35.0474 144.848 32.7059 145.086 30.3803C145.146 29.6203 145.236 28.9203 145.326 28.2803L136.426 36.8003C136.426 36.9503 136.516 37.1003 136.566 37.2603C136.696 37.7103 136.816 38.1803 136.906 38.6303C137.167 39.738 137.211 40.8858 137.036 42.0103C136.999 42.7771 136.84 43.5331 136.566 44.2503C136.276 44.7203 135.686 45.1003 134.376 45.4903C133.486 47.1303 136.816 48.6003 136.816 48.6003Z" fill="#EEC1BB"/>
<path opacity="0.2" d="M136.526 44.2099C139.266 43.2099 142.646 39.0199 144.726 35.2899C144.635 33.633 144.743 31.9712 145.046 30.3398L136.526 37.2198C136.656 37.6698 136.776 38.1398 136.866 38.5898C137.127 39.6976 137.171 40.8453 136.996 41.9698C136.959 42.7366 136.8 43.4926 136.526 44.2099Z" fill="black"/>
<path d="M127.616 13.8604C127.616 13.8604 125.046 23.3204 129.726 27.6004C134.406 31.8804 136.466 13.9404 136.466 13.9404L127.616 13.8604Z" fill="#263238"/>
<path d="M143.676 36.9399C142.426 38.4022 140.731 39.4134 138.85 39.8181C136.969 40.2228 135.007 39.9986 133.266 39.1799C131.005 38.1574 129.217 36.3125 128.266 34.0199C128.125 33.6947 128.005 33.3607 127.906 33.0199C126.066 26.8499 126.446 16.4699 133.106 13.3299C134.234 12.7895 135.457 12.4764 136.705 12.4086C137.953 12.3407 139.203 12.5194 140.382 12.9345C141.562 13.3496 142.648 13.9929 143.578 14.8277C144.509 15.6625 145.266 16.6725 145.806 17.7999C146.461 19.1438 146.784 20.6254 146.746 22.1199C146.696 29.1199 147.006 33.2099 143.676 36.9399Z" fill="#EEC1BB"/>
<path d="M136.276 24.6798C136.346 25.2398 136.036 25.6798 135.656 25.7398C135.276 25.7998 134.966 25.3098 134.936 24.7398C134.906 24.1698 135.176 23.7398 135.546 23.6798C135.916 23.6198 136.236 24.1098 136.276 24.6798Z" fill="#263238"/>
<path d="M129.876 25.0301C129.946 25.5901 129.626 26.0301 129.266 26.0901C128.906 26.1501 128.566 25.6601 128.536 25.0901C128.506 24.5201 128.786 24.0901 129.146 24.0301C129.506 23.9701 129.846 24.4901 129.876 25.0301Z" fill="#263238"/>
<path d="M131.926 25.2002C131.345 26.9703 130.524 28.6525 129.486 30.2002C129.891 30.4568 130.347 30.622 130.822 30.6841C131.297 30.7463 131.779 30.704 132.236 30.5602L131.926 25.2002Z" fill="#D4827D"/>
<path d="M127.396 22.53C127.452 22.5549 127.514 22.5634 127.574 22.5545C127.634 22.5457 127.69 22.5198 127.736 22.48C128.058 22.2184 128.435 22.0338 128.839 21.9402C129.243 21.8466 129.663 21.8465 130.066 21.94C130.107 21.9555 130.15 21.9622 130.194 21.9599C130.237 21.9575 130.28 21.946 130.318 21.9262C130.357 21.9065 130.391 21.8788 130.418 21.845C130.445 21.8111 130.465 21.772 130.476 21.73C130.49 21.6893 130.496 21.6463 130.493 21.6034C130.49 21.5605 130.478 21.5187 130.459 21.4804C130.439 21.4421 130.412 21.4082 130.379 21.3807C130.346 21.3531 130.308 21.3325 130.266 21.32C129.755 21.1919 129.221 21.1877 128.708 21.3077C128.195 21.4277 127.718 21.6685 127.316 22.01C127.281 22.0365 127.251 22.0698 127.229 22.108C127.207 22.1462 127.193 22.1885 127.187 22.2323C127.181 22.2761 127.185 22.3207 127.197 22.3632C127.209 22.4058 127.229 22.4455 127.256 22.48L127.396 22.53Z" fill="#263238"/>
<path d="M137.396 22.0599C137.463 22.0578 137.526 22.0331 137.576 21.9899C137.604 21.9568 137.625 21.9184 137.638 21.8771C137.65 21.8357 137.654 21.7922 137.65 21.7492C137.645 21.7062 137.632 21.6646 137.61 21.6269C137.589 21.5892 137.561 21.5562 137.526 21.5299C137.114 21.1902 136.626 20.9562 136.103 20.8482C135.58 20.7401 135.039 20.7613 134.526 20.9099C134.444 20.9395 134.376 20.9996 134.337 21.0778C134.298 21.156 134.291 21.2463 134.316 21.3299C134.35 21.4115 134.412 21.478 134.491 21.5167C134.571 21.5554 134.661 21.5637 134.746 21.5399C135.15 21.4371 135.573 21.4316 135.98 21.5237C136.387 21.6158 136.766 21.803 137.086 22.0699C137.136 22.0908 137.189 22.1007 137.242 22.099C137.296 22.0972 137.348 22.0839 137.396 22.0599Z" fill="#263238"/>
<path d="M141.146 13.7598L140.546 15.0898C142.846 15.8198 142.416 18.4898 141.956 19.7098C140.956 22.2998 142.486 26.2898 144.476 27.8698C144.476 27.8698 144.476 26.7498 145.476 27.0098C146.476 27.2698 146.196 33.0898 144.376 35.8798C144.376 35.8798 147.146 33.3498 148.676 27.2298C150.086 21.5598 150.236 16.8498 149.056 14.6698L141.146 13.7598Z" fill="#263238"/>
<path d="M150.066 27.6896C149.382 29.3019 148.088 30.5782 146.466 31.2396C144.306 32.0996 142.976 30.2396 143.366 28.0596C143.726 26.1296 145.276 23.3096 147.546 23.3996C148.037 23.43 148.512 23.5804 148.931 23.8375C149.349 24.0947 149.698 24.4507 149.947 24.8743C150.196 25.298 150.337 25.7762 150.358 26.2671C150.379 26.758 150.278 27.2464 150.066 27.6896Z" fill="#EEC1BB"/>
<path d="M132.426 32.4898C132.929 33.3631 133.367 34.2722 133.736 35.2098L134.256 35.0998C136.606 34.5698 137.516 33.5398 137.816 32.5698C137.949 32.0909 137.969 31.5879 137.876 31.0998C137.827 30.8225 137.739 30.5533 137.616 30.2998C136.312 31.272 134.816 31.9539 133.226 32.2998C132.746 32.4298 132.426 32.4898 132.426 32.4898Z" fill="#263238"/>
<path d="M133.226 32.3L133.636 33.09C135.846 32.58 137.336 31.93 137.876 31.09C137.827 30.8127 137.739 30.5435 137.616 30.29C136.313 31.2658 134.816 31.9512 133.226 32.3Z" fill="white"/>
<path d="M134.256 35.1003C136.606 34.5703 137.516 33.5403 137.816 32.5703C136.927 32.7899 136.084 33.1657 135.326 33.6803C134.827 34.0269 134.452 34.5247 134.256 35.1003Z" fill="#DE5753"/>
<path d="M127.616 13.86C128.166 10.7 129.616 8.08 131.286 5L131.776 8.59C132.568 7.23501 133.66 6.07892 134.966 5.21001L135.606 9.07001C136.356 7.41001 138.036 6.45 140.226 5.88L139.906 9.21001C140.882 7.73261 142.366 6.66498 144.076 6.21001L143.906 9.37C144.153 8.96454 144.495 8.62579 144.903 8.38344C145.311 8.14109 145.772 8.00255 146.246 7.98L149.056 14.63L142.226 16.83L128.946 17.28L127.616 13.86Z" fill="#263238"/>
<path d="M166.896 93.9404L166.546 100.09C167.106 101.245 167.497 102.474 167.706 103.74C167.786 105.11 164.846 114.16 164.846 114.16L157.566 110.42C157.566 110.42 159.206 100.99 161.996 100.22L162.346 93.9804L166.896 93.9404Z" fill="#EEC1BB"/>
<path d="M162.506 46.4805C167.806 57.6505 173.656 68.4205 172.236 75.2505L168.406 99.1405L161.036 98.8405L163.516 76.9405C165.816 72.9405 159.256 64.1305 155.016 56.5905L162.506 46.4805Z" fill="#FFC100"/>
<path d="M162.936 75.0498L178.746 84.0098L175.716 86.7798L161.636 80.9098L162.936 75.0498Z" fill="#EBB376"/>
<path d="M172.116 82.4795L175.716 86.7795C175.716 86.7795 176.376 91.2895 176.806 91.5595C177.236 91.8295 182.706 92.8195 184.476 92.4095C186.246 91.9995 184.946 85.4095 184.066 84.8695C183.186 84.3295 178.336 83.8695 178.336 83.8695L173.036 81.5195L172.116 82.4795Z" fill="#EBB376"/>
</g>
</svg>
