<svg width="210" height="140" viewBox="0 0 210 140" fill="none" xmlns="http://www.w3.org/2000/svg">
<g clip-path="url(#clip0_512_38599)">
<path d="M79.9084 8.61366C79.9084 8.61366 81.9343 2.12097 94.3385 3.10069C106.743 4.0804 113.642 16.7752 109.209 24.231C104.775 31.6868 105.34 37.9968 107.108 42.555C108.876 47.1131 114.705 58.0228 99.6356 61.2775C84.5662 64.5321 89.2988 69.796 76.1805 70.2859C63.0623 70.7757 56.6693 60.0404 55.756 52.7589C54.8427 45.4775 63.2284 43.0531 63.8843 36.6269C64.5402 30.2006 63.4193 9.44393 79.9084 8.61366Z" fill="#263238"/>
<path d="M93.8063 13.3964C103.371 16.0781 105.015 22.0561 102.939 32.1106C100.365 44.6725 95.1845 52.6597 83.9593 46.6818C68.7322 38.5535 77.9233 8.94613 93.8063 13.3964Z" fill="#EEC1BB"/>
<path d="M96.9202 29.8438C97.2807 31.4878 97.8383 33.0823 98.5807 34.5929C98.1905 34.9096 97.7202 35.1121 97.222 35.178C96.7238 35.244 96.217 35.1708 95.7578 34.9665L96.9202 29.8438Z" fill="#D4827D"/>
<path d="M91.2587 27.5684L92.5622 28.573C92.5622 28.573 91.1425 28.7639 91.2587 27.5684Z" fill="#263238"/>
<path d="M91.2579 27.5686C91.2579 27.5686 90.0956 28.2494 88.5928 26.6055C88.6438 26.9097 88.7617 27.1988 88.9381 27.4519C89.1144 27.705 89.3447 27.9159 89.6124 28.0692C89.8801 28.2225 90.1784 28.3144 90.486 28.3384C90.7935 28.3624 91.1025 28.3178 91.3908 28.2079L91.2579 27.5686Z" fill="#263238"/>
<path d="M88.4848 21.3747C88.4358 21.3734 88.3878 21.3607 88.3446 21.3377C88.3013 21.3146 88.2641 21.2818 88.2357 21.2419C88.1907 21.1768 88.1733 21.0967 88.1873 21.0189C88.2014 20.9411 88.2456 20.872 88.3104 20.8267C90.3861 19.3571 93.0429 20.4614 93.1592 20.5112C93.2322 20.544 93.2896 20.604 93.319 20.6784C93.3485 20.7529 93.3478 20.8359 93.3169 20.9097C93.2826 20.9814 93.2224 21.0374 93.1486 21.0667C93.0747 21.0959 92.9925 21.0962 92.9184 21.0675C92.9184 21.0675 90.4276 20.0463 88.6591 21.3166C88.6094 21.3554 88.5478 21.376 88.4848 21.3747Z" fill="#263238"/>
<path d="M103.697 24.4883C103.657 24.4873 103.618 24.4778 103.582 24.4607C103.547 24.4435 103.515 24.419 103.489 24.3887C103.104 23.8652 102.605 23.4362 102.03 23.1342C101.454 22.8321 100.818 22.6649 100.168 22.6452C100.088 22.6477 100.011 22.62 99.9507 22.5676C99.8906 22.5153 99.8526 22.4421 99.8443 22.3629C99.8397 22.2827 99.8666 22.2039 99.9194 22.1434C99.9722 22.0829 100.047 22.0454 100.127 22.0391C100.873 22.0506 101.607 22.2332 102.272 22.5729C102.937 22.9126 103.515 23.4003 103.962 23.9985C103.991 24.0257 104.014 24.0585 104.03 24.0949C104.046 24.1313 104.054 24.1705 104.054 24.2102C104.054 24.2499 104.046 24.2891 104.03 24.3255C104.014 24.362 103.991 24.3948 103.962 24.4219C103.926 24.4522 103.883 24.474 103.837 24.4855C103.791 24.497 103.743 24.498 103.697 24.4883Z" fill="#263238"/>
<path d="M78.8379 26.5807C78.8379 26.5807 85.48 19.9801 86.5345 13.7199C86.5345 13.7199 107.656 11.2955 103.198 30.7902C103.198 30.7902 109.84 14.1848 93.5004 9.20322C77.1608 4.22162 70.4937 28.2994 76.9781 37.8391C76.9781 37.8723 74.6866 30.7237 78.8379 26.5807Z" fill="#263238"/>
<path d="M79.8334 29.0377C80.048 27.9052 79.8063 26.7339 79.1608 25.7789C78.5154 24.824 77.5186 24.1629 76.3878 23.9399C73.3324 23.4334 70.2189 29.1207 77.1766 32.6494C78.1729 33.1558 79.0613 32.2923 79.8334 29.0377Z" fill="#EEC1BB"/>
<path d="M100.905 30.2002L102.209 31.2048C102.209 31.2048 100.781 31.3958 100.905 30.2002Z" fill="#263238"/>
<path d="M100.906 30.2009C100.906 30.2009 99.744 30.8734 98.2412 29.2295C98.2922 29.5337 98.4102 29.8228 98.5865 30.076C98.7628 30.3291 98.9931 30.5399 99.2608 30.6932C99.5285 30.8465 99.8269 30.9385 100.134 30.9624C100.442 30.9864 100.751 30.9418 101.039 30.8319L100.906 30.2009Z" fill="#263238"/>
<path fill-rule="evenodd" clip-rule="evenodd" d="M81 20.9995C103.793 21.9916 136.673 7.50943 156.428 15.3921C181.501 25.3972 207.55 40.7596 207.995 60.6934C208.442 80.7227 179.406 93.4723 158.483 107.408C138.089 120.991 118.857 140.47 90.5576 138.912C62.7746 137.381 49.1062 115.979 32.7048 100.481C19.8596 88.343 10.5433 75.5849 7.7811 60.6934C4.48366 42.9164 -4.33245 20.6599 15.7862 9.27042C35.869 -2.09881 55.0402 19.8696 81 20.9995Z" fill="#FFECB2"/>
<mask id="mask0_512_38599" style="mask-type:alpha" maskUnits="userSpaceOnUse" x="3" y="6" width="205" height="134">
<path fill-rule="evenodd" clip-rule="evenodd" d="M81 21.0005C103.793 21.9926 136.673 7.51041 156.428 15.3931C181.501 25.3982 207.55 40.7606 207.995 60.6944C208.442 80.7236 179.406 93.4733 158.483 107.409C138.089 120.992 118.857 140.471 90.5576 138.913C62.7746 137.382 49.1062 115.98 32.7048 100.482C19.8596 88.344 10.5433 75.5859 7.7811 60.6944C4.48366 42.9174 -4.33245 20.6609 15.7862 9.2714C35.869 -2.09784 55.0402 19.8705 81 21.0005Z" fill="#FFECB2"/>
</mask>
<g mask="url(#mask0_512_38599)">
<path d="M79.9088 8.61366C79.9088 8.61366 81.9346 2.12097 94.3388 3.10069C106.743 4.0804 113.643 16.7752 109.209 24.231C104.775 31.6868 105.34 37.9968 107.108 42.555C108.877 47.1131 114.705 58.0228 99.6359 61.2775C84.5666 64.5321 89.2991 69.796 76.1809 70.2859C63.0627 70.7757 56.6696 60.0404 55.7563 52.7589C54.843 45.4775 63.2287 43.0531 63.8847 36.6269C64.5406 30.2006 63.4197 9.44393 79.9088 8.61366Z" fill="#263238"/>
<path d="M134.208 115.793C134.15 116.872 126.96 118.633 126.96 118.633L125.274 109.906L126.296 108.03C126.296 108.03 115.66 97.4026 111.085 92.338C110.377 91.5911 109.72 90.7979 109.117 89.9634C107.797 87.7466 102.06 73.4411 102.06 73.4411L102.301 67.0065L102.816 53.4316C108.055 53.5977 114.547 85.5132 114.547 85.5132L131.319 106.195C131.319 106.195 133.428 107.208 133.56 107.698C133.693 108.188 134.299 114.705 134.208 115.793Z" fill="#EEC1BB"/>
<path opacity="0.2" d="M111.085 92.313C110.377 91.5662 109.72 90.773 109.117 89.9385C107.797 87.7217 102.06 73.4162 102.06 73.4162L102.301 66.9816L104.534 62.083C104.534 62.083 112.056 75.8654 111.085 92.313Z" fill="black"/>
<path d="M106.709 71.4561C106.709 71.4561 101.064 74.1378 96.1899 84.0097C91.3162 93.8816 108.054 82.2246 108.054 82.2246L106.709 71.4561Z" fill="#EEC1BB"/>
<path d="M55.7566 58.9521C56.5869 61.1274 56.2631 61.9577 56.9688 63.9337C57.7492 66.026 58.4716 67.9937 59.1109 69.8535C60.6635 74.2374 61.8674 78.0317 62.8388 81.3943C65.8111 91.7809 66.3176 111.757 66.3176 111.757L106.403 108.951C109.193 71.7881 102.808 53.4309 102.808 53.4309L100.192 53.2316C97.1288 53.0157 91.8898 52.7085 87.0992 52.7417C81.4447 52.9213 75.8071 53.4565 70.2198 54.3442C66.4255 54.8838 60.3563 55.8719 55.7566 58.9521Z" fill="#FFC100"/>
<path d="M78.8289 52.0038C89.6224 50.7003 95.949 58.1976 95.7663 62.0832C95.5837 65.9689 87.2976 63.337 87.2976 63.337V70.2614L85.5624 63.503C85.5624 63.503 80.5808 66.7826 75.3501 64.6488C70.1194 62.515 69.3057 53.1496 78.8289 52.0038Z" fill="white"/>
<path d="M85.6373 62.0832C76.5044 59.2686 74.3872 54.7935 74.3872 54.7935C81.2867 50.227 78.0404 39.6826 78.0404 39.6826L88.9169 43.7343C88.3877 45.2526 87.966 46.8063 87.6549 48.3838C86.3929 55.2003 89.4649 55.7981 89.4649 55.7981C90.8016 59.8332 85.6373 62.0832 85.6373 62.0832Z" fill="#EEC1BB"/>
<path opacity="0.2" d="M88.9169 43.7343C88.3877 45.2526 87.966 46.8063 87.6549 48.3838C80.6889 50.1523 78.0404 39.6826 78.0404 39.6826L88.9169 43.7343Z" fill="black"/>
<path d="M93.8067 13.3964C103.371 16.0781 105.015 22.0561 102.94 32.1106C100.366 44.6725 95.1849 52.6597 83.9597 46.6818C68.7326 38.5535 77.9236 8.94613 93.8067 13.3964Z" fill="#EEC1BB"/>
<path d="M96.9203 29.8438C97.2809 31.4878 97.8384 33.0823 98.5808 34.5929C98.1906 34.9096 97.7203 35.1121 97.2221 35.178C96.7239 35.244 96.2171 35.1708 95.7579 34.9665L96.9203 29.8438Z" fill="#D4827D"/>
<path d="M91.259 27.5684L92.5625 28.573C92.5625 28.573 91.1427 28.7639 91.259 27.5684Z" fill="#263238"/>
<path d="M91.2582 27.5686C91.2582 27.5686 90.0958 28.2494 88.593 26.6055C88.644 26.9097 88.762 27.1988 88.9383 27.4519C89.1146 27.705 89.3449 27.9159 89.6126 28.0692C89.8803 28.2225 90.1787 28.3144 90.4862 28.3384C90.7938 28.3624 91.1028 28.3178 91.391 28.2079L91.2582 27.5686Z" fill="#263238"/>
<path d="M88.485 21.3747C88.436 21.3734 88.388 21.3607 88.3448 21.3377C88.3016 21.3146 88.2643 21.2818 88.2359 21.2419C88.191 21.1768 88.1736 21.0967 88.1876 21.0189C88.2016 20.9411 88.2458 20.872 88.3107 20.8267C90.3863 19.3571 93.0432 20.4614 93.1594 20.5112C93.2325 20.544 93.2898 20.604 93.3193 20.6784C93.3488 20.7529 93.348 20.8359 93.3172 20.9097C93.2828 20.9814 93.2227 21.0374 93.1488 21.0667C93.0749 21.0959 92.9927 21.0962 92.9187 21.0675C92.9187 21.0675 90.4278 20.0463 88.6594 21.3166C88.6097 21.3554 88.5481 21.376 88.485 21.3747Z" fill="#263238"/>
<path d="M103.696 24.4883C103.657 24.4873 103.618 24.4778 103.582 24.4607C103.546 24.4435 103.514 24.419 103.489 24.3887C103.104 23.8652 102.605 23.4362 102.029 23.1342C101.454 22.8321 100.817 22.6649 100.168 22.6452C100.088 22.6477 100.01 22.62 99.9503 22.5676C99.8903 22.5153 99.8522 22.4421 99.8439 22.3629C99.8393 22.2827 99.8663 22.2039 99.919 22.1434C99.9718 22.0829 100.046 22.0454 100.126 22.0391C100.873 22.0506 101.607 22.2332 102.272 22.5729C102.937 22.9126 103.515 23.4003 103.962 23.9985C103.991 24.0257 104.014 24.0585 104.03 24.0949C104.045 24.1313 104.054 24.1705 104.054 24.2102C104.054 24.2499 104.045 24.2891 104.03 24.3255C104.014 24.362 103.991 24.3948 103.962 24.4219C103.926 24.4522 103.883 24.474 103.837 24.4855C103.791 24.497 103.743 24.498 103.696 24.4883Z" fill="#263238"/>
<path d="M78.8377 26.5807C78.8377 26.5807 85.4798 19.9801 86.5342 13.7199C86.5342 13.7199 107.656 11.2955 103.198 30.7902C103.198 30.7902 109.84 14.1848 93.5002 9.20322C77.1605 4.22162 70.4935 28.2994 76.9779 37.8391C76.9779 37.8723 74.6863 30.7237 78.8377 26.5807Z" fill="#263238"/>
<path d="M79.8339 29.0377C80.0485 27.9052 79.8068 26.7339 79.1613 25.7789C78.5159 24.824 77.5191 24.1629 76.3883 23.9399C73.3329 23.4334 70.2194 29.1207 77.177 32.6494C78.1734 33.1558 79.0617 32.2923 79.8339 29.0377Z" fill="#EEC1BB"/>
<path d="M94.3554 39.2342C94.3139 39.2342 89.9716 38.736 89.515 34.5681C89.5078 34.4913 89.5306 34.4148 89.5786 34.3545C89.6265 34.2941 89.696 34.2547 89.7723 34.2443C89.8105 34.2397 89.8493 34.2427 89.8863 34.2532C89.9233 34.2636 89.9579 34.2814 89.988 34.3053C90.0182 34.3292 90.0432 34.3589 90.0618 34.3926C90.0803 34.4264 90.092 34.4634 90.0961 34.5017C90.503 38.1964 94.2475 38.653 94.4218 38.653C94.4601 38.6571 94.4972 38.6688 94.5309 38.6874C94.5646 38.7059 94.5943 38.731 94.6182 38.7611C94.6421 38.7912 94.6599 38.8258 94.6703 38.8628C94.6808 38.8999 94.6838 38.9386 94.6792 38.9768C94.6688 39.0532 94.6294 39.1226 94.569 39.1706C94.5087 39.2185 94.4322 39.2413 94.3554 39.2342Z" fill="#263238"/>
<path d="M100.905 30.2002L102.209 31.2048C102.209 31.2048 100.781 31.3958 100.905 30.2002Z" fill="#263238"/>
<path d="M100.906 30.2009C100.906 30.2009 99.7438 30.8734 98.241 29.2295C98.292 29.5337 98.4099 29.8228 98.5862 30.076C98.7626 30.3291 98.9929 30.5399 99.2606 30.6932C99.5283 30.8465 99.8266 30.9385 100.134 30.9624C100.442 30.9864 100.751 30.9418 101.039 30.8319L100.906 30.2009Z" fill="#263238"/>
<path d="M146.82 193.813C149.153 209.148 131.717 210.717 126.329 211.199C108.711 212.669 66.3421 211.199 66.3421 211.199L56.4951 189.861L63.7184 186.424C63.7184 186.424 44.7967 143.823 66.3172 111.451L106.402 108.96L109.724 128.596C109.724 128.596 137.762 164.073 146.82 193.813Z" fill="#FFC100"/>
<path opacity="0.4" d="M146.82 193.813C149.153 209.148 131.717 210.717 126.329 211.199C108.711 212.669 66.3421 211.199 66.3421 211.199L56.4951 189.861L63.7184 186.424C63.7184 186.424 44.7967 143.823 66.3172 111.451L106.402 108.96L109.724 128.596C109.724 128.596 137.762 164.073 146.82 193.813Z" fill="#263238"/>
<path opacity="0.3" d="M72.5107 114.672C72.5107 114.824 72.4654 114.974 72.3806 115.101C72.2958 115.228 72.1752 115.326 72.0341 115.385C71.893 115.443 71.7377 115.459 71.5879 115.429C71.4382 115.399 71.3006 115.326 71.1926 115.218C71.0846 115.11 71.0111 114.972 70.9813 114.822C70.9515 114.672 70.9668 114.517 71.0252 114.376C71.0836 114.235 71.1826 114.114 71.3096 114.03C71.4366 113.945 71.5859 113.899 71.7386 113.899C71.9434 113.899 72.1398 113.981 72.2846 114.126C72.4294 114.27 72.5107 114.467 72.5107 114.672Z" fill="white"/>
<path opacity="0.3" d="M80.656 114.672C80.656 114.825 80.6105 114.974 80.5253 115.101C80.44 115.229 80.319 115.328 80.1774 115.386C80.0358 115.444 79.8801 115.459 79.7301 115.428C79.5801 115.398 79.4426 115.323 79.3349 115.215C79.2273 115.106 79.1544 114.967 79.1255 114.817C79.0967 114.667 79.1132 114.511 79.1729 114.37C79.2326 114.229 79.3329 114.109 79.4609 114.026C79.589 113.942 79.7391 113.898 79.8921 113.899C80.0955 113.902 80.2898 113.984 80.4328 114.129C80.5758 114.273 80.656 114.468 80.656 114.672Z" fill="white"/>
<path opacity="0.3" d="M88.8098 114.672C88.8098 114.824 88.7645 114.974 88.6797 115.101C88.5948 115.228 88.4742 115.326 88.3331 115.385C88.192 115.443 88.0368 115.459 87.887 115.429C87.7372 115.399 87.5996 115.326 87.4917 115.218C87.3837 115.11 87.3101 114.972 87.2803 114.822C87.2505 114.672 87.2658 114.517 87.3243 114.376C87.3827 114.235 87.4817 114.114 87.6087 114.03C87.7356 113.945 87.8849 113.899 88.0376 113.899C88.2424 113.899 88.4388 113.981 88.5836 114.126C88.7284 114.27 88.8098 114.467 88.8098 114.672Z" fill="white"/>
<path opacity="0.3" d="M96.9542 114.672C96.9542 114.825 96.9087 114.974 96.8235 115.101C96.7383 115.229 96.6172 115.328 96.4756 115.386C96.334 115.444 96.1784 115.459 96.0283 115.428C95.8783 115.398 95.7408 115.323 95.6331 115.215C95.5255 115.106 95.4526 114.967 95.4238 114.817C95.3949 114.667 95.4114 114.511 95.4711 114.37C95.5308 114.229 95.6311 114.109 95.7591 114.026C95.8872 113.942 96.0373 113.898 96.1904 113.899C96.3937 113.902 96.588 113.984 96.731 114.129C96.874 114.273 96.9542 114.468 96.9542 114.672Z" fill="white"/>
<path opacity="0.3" d="M105.149 114.672C105.149 114.824 105.104 114.974 105.019 115.101C104.934 115.228 104.813 115.326 104.672 115.385C104.531 115.443 104.376 115.459 104.226 115.429C104.076 115.399 103.939 115.326 103.831 115.218C103.723 115.11 103.649 114.972 103.619 114.822C103.59 114.672 103.605 114.517 103.663 114.376C103.722 114.235 103.821 114.114 103.948 114.03C104.075 113.945 104.224 113.899 104.377 113.899C104.581 113.899 104.778 113.981 104.923 114.126C105.067 114.27 105.149 114.467 105.149 114.672Z" fill="white"/>
<path opacity="0.3" d="M67.6625 120.244C68.089 120.244 68.4347 119.898 68.4347 119.471C68.4347 119.045 68.089 118.699 67.6625 118.699C67.2361 118.699 66.8904 119.045 66.8904 119.471C66.8904 119.898 67.2361 120.244 67.6625 120.244Z" fill="white"/>
<path opacity="0.3" d="M75.8155 120.244C76.2419 120.244 76.5876 119.898 76.5876 119.471C76.5876 119.045 76.2419 118.699 75.8155 118.699C75.389 118.699 75.0433 119.045 75.0433 119.471C75.0433 119.898 75.389 120.244 75.8155 120.244Z" fill="white"/>
<path opacity="0.3" d="M83.9607 120.244C84.3872 120.244 84.7329 119.898 84.7329 119.471C84.7329 119.045 84.3872 118.699 83.9607 118.699C83.5343 118.699 83.1886 119.045 83.1886 119.471C83.1886 119.898 83.5343 120.244 83.9607 120.244Z" fill="white"/>
<path opacity="0.3" d="M92.1129 120.244C92.5393 120.244 92.885 119.898 92.885 119.471C92.885 119.045 92.5393 118.699 92.1129 118.699C91.6864 118.699 91.3407 119.045 91.3407 119.471C91.3407 119.898 91.6864 120.244 92.1129 120.244Z" fill="white"/>
<path opacity="0.3" d="M100.259 120.244C100.685 120.244 101.031 119.898 101.031 119.471C101.031 119.045 100.685 118.699 100.259 118.699C99.8325 118.699 99.4868 119.045 99.4868 119.471C99.4868 119.898 99.8325 120.244 100.259 120.244Z" fill="white"/>
<path opacity="0.3" d="M106.752 120.244C107.178 120.244 107.524 119.898 107.524 119.471C107.524 119.045 107.178 118.699 106.752 118.699C106.325 118.699 105.979 119.045 105.979 119.471C105.979 119.898 106.325 120.244 106.752 120.244Z" fill="white"/>
<path opacity="0.3" d="M64.3663 125.499C64.3663 125.651 64.321 125.801 64.2362 125.928C64.1513 126.055 64.0307 126.154 63.8897 126.212C63.7486 126.271 63.5933 126.286 63.4435 126.256C63.2938 126.226 63.1562 126.153 63.0482 126.045C62.9402 125.937 62.8667 125.799 62.8369 125.649C62.8071 125.5 62.8224 125.344 62.8808 125.203C62.9392 125.062 63.0382 124.942 63.1652 124.857C63.2922 124.772 63.4414 124.727 63.5942 124.727C63.799 124.727 63.9954 124.808 64.1402 124.953C64.285 125.098 64.3663 125.294 64.3663 125.499Z" fill="white"/>
<path opacity="0.3" d="M72.5107 125.499C72.5107 125.651 72.4654 125.801 72.3806 125.928C72.2958 126.055 72.1752 126.154 72.0341 126.212C71.893 126.271 71.7377 126.286 71.5879 126.256C71.4382 126.226 71.3006 126.153 71.1926 126.045C71.0846 125.937 71.0111 125.799 70.9813 125.649C70.9515 125.5 70.9668 125.344 71.0252 125.203C71.0836 125.062 71.1826 124.942 71.3096 124.857C71.4366 124.772 71.5859 124.727 71.7386 124.727C71.9434 124.727 72.1398 124.808 72.2846 124.953C72.4294 125.098 72.5107 125.294 72.5107 125.499Z" fill="white"/>
<path opacity="0.3" d="M80.656 125.499C80.656 125.652 80.6105 125.801 80.5253 125.929C80.44 126.056 80.319 126.155 80.1774 126.213C80.0358 126.271 79.8801 126.286 79.7301 126.255C79.5801 126.225 79.4426 126.151 79.3349 126.042C79.2273 125.933 79.1544 125.795 79.1255 125.644C79.0967 125.494 79.1132 125.338 79.1729 125.197C79.2326 125.057 79.3329 124.937 79.4609 124.853C79.589 124.769 79.7391 124.725 79.8921 124.727C79.9932 124.727 80.0932 124.747 80.1864 124.786C80.2796 124.824 80.3642 124.881 80.4352 124.953C80.5063 125.025 80.5624 125.11 80.6003 125.204C80.6381 125.298 80.6571 125.398 80.656 125.499Z" fill="white"/>
<path opacity="0.3" d="M88.8098 125.499C88.8098 125.651 88.7645 125.801 88.6797 125.928C88.5948 126.055 88.4742 126.154 88.3331 126.212C88.192 126.271 88.0368 126.286 87.887 126.256C87.7372 126.226 87.5996 126.153 87.4917 126.045C87.3837 125.937 87.3101 125.799 87.2803 125.649C87.2505 125.5 87.2658 125.344 87.3243 125.203C87.3827 125.062 87.4817 124.942 87.6087 124.857C87.7356 124.772 87.8849 124.727 88.0376 124.727C88.2424 124.727 88.4388 124.808 88.5836 124.953C88.7284 125.098 88.8098 125.294 88.8098 125.499Z" fill="white"/>
<path opacity="0.3" d="M96.9542 125.499C96.9542 125.652 96.9087 125.801 96.8235 125.929C96.7383 126.056 96.6172 126.155 96.4756 126.213C96.334 126.271 96.1784 126.286 96.0283 126.255C95.8783 126.225 95.7408 126.151 95.6331 126.042C95.5255 125.933 95.4526 125.795 95.4238 125.644C95.3949 125.494 95.4114 125.338 95.4711 125.197C95.5308 125.057 95.6311 124.937 95.7591 124.853C95.8872 124.769 96.0373 124.725 96.1904 124.727C96.2914 124.727 96.3914 124.747 96.4846 124.786C96.5778 124.824 96.6624 124.881 96.7334 124.953C96.8045 125.025 96.8606 125.11 96.8985 125.204C96.9364 125.298 96.9553 125.398 96.9542 125.499Z" fill="white"/>
<path opacity="0.3" d="M105.149 125.499C105.149 125.651 105.104 125.801 105.019 125.928C104.934 126.055 104.813 126.154 104.672 126.212C104.531 126.271 104.376 126.286 104.226 126.256C104.076 126.226 103.939 126.153 103.831 126.045C103.723 125.937 103.649 125.799 103.619 125.649C103.59 125.5 103.605 125.344 103.663 125.203C103.722 125.062 103.821 124.942 103.948 124.857C104.075 124.772 104.224 124.727 104.377 124.727C104.581 124.727 104.778 124.808 104.923 124.953C105.067 125.098 105.149 125.294 105.149 125.499Z" fill="white"/>
<path opacity="0.3" d="M59.5173 131.07C59.9437 131.07 60.2894 130.724 60.2894 130.298C60.2894 129.871 59.9437 129.525 59.5173 129.525C59.0908 129.525 58.7451 129.871 58.7451 130.298C58.7451 130.724 59.0908 131.07 59.5173 131.07Z" fill="white"/>
<path opacity="0.3" d="M67.6625 131.07C68.089 131.07 68.4347 130.724 68.4347 130.298C68.4347 129.871 68.089 129.525 67.6625 129.525C67.2361 129.525 66.8904 129.871 66.8904 130.298C66.8904 130.724 67.2361 131.07 67.6625 131.07Z" fill="white"/>
<path opacity="0.3" d="M75.8155 131.07C76.2419 131.07 76.5876 130.724 76.5876 130.298C76.5876 129.871 76.2419 129.525 75.8155 129.525C75.389 129.525 75.0433 129.871 75.0433 130.298C75.0433 130.724 75.389 131.07 75.8155 131.07Z" fill="white"/>
<path opacity="0.3" d="M83.9607 131.07C84.3872 131.07 84.7329 130.724 84.7329 130.298C84.7329 129.871 84.3872 129.525 83.9607 129.525C83.5343 129.525 83.1886 129.871 83.1886 130.298C83.1886 130.724 83.5343 131.07 83.9607 131.07Z" fill="white"/>
<path opacity="0.3" d="M92.1129 131.07C92.5393 131.07 92.885 130.724 92.885 130.298C92.885 129.871 92.5393 129.525 92.1129 129.525C91.6864 129.525 91.3407 129.871 91.3407 130.298C91.3407 130.724 91.6864 131.07 92.1129 131.07Z" fill="white"/>
<path opacity="0.3" d="M100.259 131.07C100.685 131.07 101.031 130.724 101.031 130.298C101.031 129.871 100.685 129.525 100.259 129.525C99.8325 129.525 99.4868 129.871 99.4868 130.298C99.4868 130.724 99.8325 131.07 100.259 131.07Z" fill="white"/>
<path opacity="0.3" d="M108.412 131.07C108.838 131.07 109.184 130.724 109.184 130.298C109.184 129.871 108.838 129.525 108.412 129.525C107.985 129.525 107.64 129.871 107.64 130.298C107.64 130.724 107.985 131.07 108.412 131.07Z" fill="white"/>
<path opacity="0.3" d="M64.3663 136.317C64.3679 136.47 64.324 136.62 64.2402 136.748C64.1564 136.876 64.0364 136.976 63.8954 137.036C63.7545 137.096 63.599 137.112 63.4486 137.083C63.2983 137.054 63.16 136.981 63.0511 136.874C62.9423 136.766 62.868 136.629 62.8375 136.479C62.807 136.329 62.8218 136.173 62.88 136.031C62.9382 135.89 63.0371 135.769 63.1643 135.683C63.2914 135.598 63.4411 135.553 63.5941 135.553C63.7975 135.553 63.9926 135.633 64.1372 135.776C64.2818 135.919 64.3641 136.113 64.3663 136.317Z" fill="white"/>
<path opacity="0.3" d="M72.5115 136.317C72.5132 136.47 72.4693 136.62 72.3855 136.748C72.3016 136.876 72.1816 136.976 72.0407 137.036C71.8997 137.096 71.7442 137.112 71.5939 137.083C71.4436 137.054 71.3052 136.981 71.1964 136.874C71.0876 136.766 71.0132 136.629 70.9827 136.479C70.9523 136.329 70.9671 136.173 71.0253 136.031C71.0834 135.89 71.1824 135.769 71.3096 135.683C71.4367 135.598 71.5863 135.553 71.7394 135.553C71.9427 135.553 72.1379 135.633 72.2825 135.776C72.427 135.919 72.5094 136.113 72.5115 136.317Z" fill="white"/>
<path opacity="0.3" d="M80.6559 136.317C80.6576 136.47 80.6135 136.62 80.5293 136.749C80.4451 136.877 80.3246 136.977 80.1831 137.037C80.0417 137.096 79.8858 137.112 79.7352 137.083C79.5847 137.053 79.4463 136.979 79.3379 136.871C79.2294 136.762 79.1557 136.624 79.1261 136.473C79.0966 136.323 79.1126 136.167 79.1721 136.026C79.2315 135.884 79.3318 135.764 79.46 135.679C79.5883 135.595 79.7387 135.551 79.8921 135.553C80.0947 135.553 80.289 135.633 80.4322 135.776C80.5755 135.92 80.6559 136.114 80.6559 136.317Z" fill="white"/>
<path opacity="0.3" d="M88.8098 136.317C88.8114 136.47 88.7675 136.62 88.6837 136.748C88.5998 136.876 88.4798 136.976 88.3389 137.036C88.198 137.096 88.0424 137.112 87.8921 137.083C87.7418 137.054 87.6034 136.981 87.4946 136.874C87.3858 136.766 87.3114 136.629 87.281 136.479C87.2505 136.329 87.2653 136.173 87.3235 136.031C87.3817 135.89 87.4806 135.769 87.6078 135.683C87.7349 135.598 87.8845 135.553 88.0376 135.553C88.241 135.553 88.4361 135.633 88.5807 135.776C88.7253 135.919 88.8076 136.113 88.8098 136.317Z" fill="white"/>
<path opacity="0.3" d="M96.9542 136.317C96.9558 136.47 96.9117 136.62 96.8275 136.749C96.7433 136.877 96.6228 136.977 96.4814 137.037C96.3399 137.096 96.184 137.112 96.0334 137.083C95.8829 137.053 95.7446 136.979 95.6361 136.871C95.5276 136.762 95.4539 136.624 95.4244 136.473C95.3948 136.323 95.4108 136.167 95.4703 136.026C95.5297 135.884 95.63 135.764 95.7582 135.679C95.8865 135.595 96.0369 135.551 96.1903 135.553C96.3929 135.553 96.5872 135.633 96.7304 135.776C96.8737 135.92 96.9542 136.114 96.9542 136.317Z" fill="white"/>
<path opacity="0.3" d="M105.149 136.317C105.15 136.47 105.106 136.62 105.023 136.748C104.939 136.876 104.819 136.976 104.678 137.036C104.537 137.096 104.381 137.112 104.231 137.083C104.081 137.054 103.942 136.981 103.834 136.874C103.725 136.766 103.65 136.629 103.62 136.479C103.589 136.329 103.604 136.173 103.662 136.031C103.721 135.89 103.82 135.769 103.947 135.683C104.074 135.598 104.224 135.553 104.377 135.553C104.58 135.553 104.775 135.633 104.92 135.776C105.064 135.919 105.147 136.113 105.149 136.317Z" fill="white"/>
<path opacity="0.3" d="M112.488 137.089C112.914 137.089 113.26 136.744 113.26 136.317C113.26 135.891 112.914 135.545 112.488 135.545C112.061 135.545 111.716 135.891 111.716 136.317C111.716 136.744 112.061 137.089 112.488 137.089Z" fill="white"/>
<path d="M187.744 162.803L183.543 169.063C183.543 169.063 166.514 164.388 146.181 150.116C140.365 146.039 134.836 141.568 129.634 136.732L137.53 124.992C142.45 131.64 148.116 137.702 154.417 143.059C171.405 157.572 187.744 162.803 187.744 162.803Z" fill="#EEC1BB"/>
<path opacity="0.2" d="M154.392 143.059C151.886 145.67 149.133 148.034 146.172 150.116C140.356 146.039 134.828 141.568 129.625 136.732L137.529 124.992C142.442 131.639 148.1 137.7 154.392 143.059Z" fill="black"/>
<path d="M136.964 64.7068C133.641 58.275 131.467 51.3125 130.538 44.1328C130.538 44.1328 129.01 44.8053 126.819 45.8846C125.083 42.8375 122.941 40.5045 121.073 39.6825C114.19 36.677 96.4224 42.522 100.101 55.4576C101.404 60.0158 98.9547 70.7926 111.467 70.967C113.019 74.3545 116.158 77.277 121.986 78.4394C136.25 81.4533 140.252 71.3821 136.964 64.7068Z" fill="#263238"/>
<path d="M140.602 103.829C140.444 84.5829 135.761 72.5856 135.761 72.5856C135.761 72.5856 132.365 67.604 120.078 68.5837C107.79 69.5634 106.71 71.4564 106.71 71.4564C107.889 84.3837 104.319 101.495 103.389 107.872C99.9518 113.684 97.8596 134.947 100.583 149.717C100.583 149.717 106.752 152.748 125.74 150.44C141.349 148.547 155.696 141.016 155.696 141.016C146.272 132.473 142.628 104.974 140.602 103.829Z" fill="#515B60"/>
<path d="M127.566 70.5594C126.624 72.2608 125.237 73.6741 123.553 74.6481C121.87 75.6221 119.954 76.1202 118.009 76.089C114.248 76.089 114.165 72.2781 114.165 72.2781C114.607 71.7805 114.973 71.2211 115.253 70.6176C117.063 66.5742 113.169 63.0621 113.169 63.0621L117.229 61.5427L126.138 58.2217C122.792 65.9016 127.566 70.5594 127.566 70.5594Z" fill="#EEC1BB"/>
<path opacity="0.2" d="M124.917 61.5098C124.917 61.5098 121.381 69.8955 115.27 70.5846C117.08 66.5412 113.186 63.0291 113.186 63.0291L117.246 61.5098H124.917Z" fill="black"/>
<path d="M101.288 40.8525C101.288 40.8525 94.6459 51.5132 107.631 56.254C122.294 61.6009 101.288 40.8525 101.288 40.8525Z" fill="#263238"/>
<path d="M127.791 45.8515C129.675 53.1163 128.33 62.3157 122.809 65.3627C112.671 70.9587 107.756 70.3443 103.862 62.7059C100.325 55.8728 99.0301 43.6097 107.241 38.4953C115.453 33.3808 125.175 35.772 127.791 45.8515Z" fill="#EEC1BB"/>
<path d="M101.828 45.9757C105.581 45.9946 109.269 44.993 112.497 43.0781C112.497 43.0781 121.231 43.568 121.937 48.7488C122.643 53.9297 124.992 53.4232 127.383 59.7831C127.383 59.7831 133.818 56.7028 130.098 42.2561C127.392 31.7284 117.13 30.7569 108.03 34.0282C100.4 36.7266 96.8463 44.0827 101.828 45.9757Z" fill="#263238"/>
<path d="M108.305 49.5461C108.222 49.5106 108.15 49.4532 108.097 49.3801C108.049 49.277 108.043 49.1597 108.078 49.0519C108.113 48.944 108.188 48.8536 108.288 48.7989C108.887 48.4715 109.557 48.2944 110.239 48.2828C110.922 48.2713 111.597 48.4256 112.207 48.7325C112.304 48.7897 112.374 48.8825 112.404 48.991C112.433 49.0996 112.419 49.2153 112.365 49.3137C112.304 49.4095 112.21 49.479 112.101 49.5083C111.991 49.5376 111.875 49.5244 111.775 49.4714C111.286 49.2359 110.746 49.1241 110.203 49.1459C109.66 49.1676 109.131 49.3221 108.662 49.5959C108.541 49.6262 108.413 49.6083 108.305 49.5461Z" fill="#263238"/>
<path d="M101.33 52.003C101.239 52.0117 101.146 51.9944 101.064 51.9532C100.973 51.8865 100.911 51.7872 100.891 51.6759C100.871 51.5646 100.894 51.4498 100.956 51.3554C101.326 50.7828 101.829 50.3079 102.421 49.9711C103.014 49.6343 103.679 49.4455 104.36 49.4209C104.474 49.4252 104.582 49.4735 104.661 49.5555C104.74 49.6376 104.784 49.7471 104.784 49.8609C104.776 49.9734 104.726 50.0789 104.645 50.157C104.564 50.2352 104.457 50.2806 104.344 50.2844C103.801 50.3093 103.273 50.4668 102.806 50.7433C102.338 51.0198 101.945 51.4067 101.662 51.8702C101.619 51.9135 101.567 51.9477 101.51 51.9705C101.453 51.9933 101.391 52.0044 101.33 52.003Z" fill="#263238"/>
<path d="M106.611 55.7891L108.711 59.3841C107.818 59.9071 106.788 60.15 105.755 60.0815C106.301 58.7151 106.591 57.2602 106.611 55.7891Z" fill="#D58745"/>
<path d="M121.248 52.85C121.248 52.85 121.746 47.8685 124.445 48.5244C127.143 49.1803 129.028 56.6444 125.665 57.7154C122.303 58.7865 120.476 55.6896 121.248 52.85Z" fill="#EEC1BB"/>
<path d="M110.213 62.2243C110.136 62.2298 110.06 62.2045 110.002 62.1539C109.943 62.1033 109.907 62.0315 109.902 61.9545C109.896 61.8774 109.922 61.8013 109.972 61.7429C110.023 61.6845 110.095 61.6486 110.172 61.6431C110.33 61.6431 113.925 61.0619 113.974 57.3922C113.974 57.3151 114.005 57.2412 114.06 57.1867C114.114 57.1322 114.188 57.1016 114.265 57.1016C114.342 57.1016 114.416 57.1322 114.471 57.1867C114.525 57.2412 114.556 57.3151 114.556 57.3922C114.506 61.5435 110.296 62.2077 110.255 62.216L110.213 62.2243Z" fill="#263238"/>
<path d="M109.45 54.5603C109.45 54.5603 111.011 55.4404 112.306 53.5723C112.306 53.5723 111.767 56.171 109.542 55.2328L109.11 55.4487L109.45 54.5603Z" fill="#263238"/>
<path d="M102.999 56.2872C102.999 56.2872 104.269 57.3666 105.622 55.6895C105.622 55.6895 104.85 58.1803 102.999 56.993L102.6 57.1507L102.999 56.2872Z" fill="#263238"/>
<path d="M115.378 40.2885C115.378 40.2885 114.855 44.1326 107.234 46.7479C105.324 47.3489 103.631 48.495 102.364 50.0454C101.097 51.5957 100.31 53.4827 100.102 55.474C100.102 55.474 93.036 45.2119 102.833 37.0172C110.488 30.6076 115.378 40.2885 115.378 40.2885Z" fill="#263238"/>
<path opacity="0.2" d="M97 88L108.013 100C108.013 100 125.462 94.5674 127.875 92.8531C130.288 91.1388 97 88 97 88Z" fill="black"/>
<path d="M101.421 88.6261C101.421 88.6261 102.634 84.9149 101.704 83.6445C100.774 82.3742 92.6455 78.2561 91.8153 79.0449C90.985 79.8336 89.6898 86.8992 90.6695 88.3355C91.6492 89.7719 99.1382 92.8024 99.5783 91.8974C100.018 90.9924 101.421 88.6261 101.421 88.6261Z" fill="#EEC1BB"/>
<path d="M135.263 72.0298C139.506 76.123 128.314 94.1565 123.498 96.3484C118.683 98.5403 99.0883 91.292 99.0883 91.292L101.114 86.161C101.114 86.161 116.383 91.7487 119.554 90.3123C122.726 88.8759 128.305 76.8454 129.625 73.8896C130.946 70.9339 133.893 70.7097 135.263 72.0298Z" fill="#EEC1BB"/>
<path opacity="0.2" d="M72.6769 97.8594L101.039 114.473H120.201L124.27 106.17H105.622L72.6769 97.8594Z" fill="black"/>
<path d="M55.7561 58.9533C62.8964 54.5196 74.4039 84.2598 78.0404 88.2202C81.677 92.1805 112.14 104.925 112.14 104.925L110.711 110.737C110.711 110.737 83.6613 103.364 74.4288 98.8642C65.1962 94.3642 59.3511 77.0116 55.7312 68.4515C55.0617 66.957 54.7177 65.3373 54.722 63.6997C54.7263 62.0621 55.0787 60.4442 55.7561 58.9533Z" fill="#EEC1BB"/>
<path d="M108.055 104.925C108.055 104.925 112.688 102.434 114.265 102.343C115.843 102.252 128.596 105.249 128.596 105.905C128.596 106.561 124.054 115.104 122.784 115.403C121.514 115.702 108.952 111.766 108.952 111.766L108.055 104.925Z" fill="#EEC1BB"/>
</g>
</g>
<defs>
<clipPath id="clip0_512_38599">
<rect width="210" height="140" fill="white"/>
</clipPath>
</defs>
</svg>
