<svg width="210" height="140" viewBox="0 0 210 140" fill="none" xmlns="http://www.w3.org/2000/svg">
<g clip-path="url(#clip0_512_33997)">
<g clip-path="url(#clip1_512_33997)">
<path fill-rule="evenodd" clip-rule="evenodd" d="M172.685 7.20898C192.859 17.7267 206.048 34.0817 207.889 53.6486C209.64 72.2617 193.847 86.1544 181.344 99.2606C170.942 110.164 126.439 129.243 110.906 131.292C95.1898 133.364 80.4403 130.058 65.7058 122.758C46.1334 113.061 10.4761 97.8715 4.72445 77.4622C-1.09423 56.8151 11.4121 29.5389 31.0877 24.4925C56.8896 17.8747 80.96 37.0917 98.028 34.7718C115.607 32.3825 143.219 -8.1532 172.685 7.20898Z" fill="#FFECB2"/>
<mask id="mask0_512_33997" style="mask-type:alpha" maskUnits="userSpaceOnUse" x="3" y="3" width="206" height="129">
<path fill-rule="evenodd" clip-rule="evenodd" d="M172.685 7.20898C192.859 17.7267 206.048 34.0817 207.889 53.6486C209.64 72.2617 193.847 86.1544 181.344 99.2606C170.942 110.164 126.439 129.243 110.906 131.292C95.1898 133.364 80.4403 130.058 65.7058 122.758C46.1334 113.061 10.4761 97.8715 4.72445 77.4622C-1.09423 56.8151 11.4121 29.5389 31.0877 24.4925C56.8896 17.8747 80.96 37.0917 98.028 34.7718C115.607 32.3825 143.219 -8.1532 172.685 7.20898Z" fill="#FFECB2"/>
</mask>
<g mask="url(#mask0_512_33997)">
<path d="M34.8591 45.0686C34.8591 45.0686 20.376 49.5737 15.999 40.3577C15.999 40.3577 19.06 37.1552 27.3703 38.7565C27.3703 38.7565 19.5035 32.0633 22.339 28.9741C25.1746 25.885 37.4548 31.7595 37.4548 31.7595C37.4548 31.7595 35.3463 26.0188 40.872 22.9297C40.872 22.9297 45.5543 23.702 47.5028 29.4324C47.5028 29.4324 46.8994 26.1836 50.1493 24.9428C50.1493 24.9428 53.9228 30.6062 48.0336 37.6753C42.1443 44.7443 34.8591 45.0686 34.8591 45.0686Z" fill="#FFC100"/>
<path opacity="0.6" d="M34.8591 45.0686C34.8591 45.0686 20.376 49.5737 15.999 40.3577C15.999 40.3577 19.06 37.1552 27.3703 38.7565C27.3703 38.7565 19.5035 32.0633 22.339 28.9741C25.1746 25.885 37.4548 31.7595 37.4548 31.7595C37.4548 31.7595 35.3463 26.0188 40.872 22.9297C40.872 22.9297 45.5543 23.702 47.5028 29.4324C47.5028 29.4324 46.8994 26.1836 50.1493 24.9428C50.1493 24.9428 53.9228 30.6062 48.0336 37.6753C42.1443 44.7443 34.8591 45.0686 34.8591 45.0686Z" fill="white"/>
<path d="M48.2517 98.3457C48.2517 98.3457 59.3903 101.857 60.0301 110.048C60.4736 115.748 65.2069 117.385 65.2069 117.385C65.2069 117.385 43.2276 119.599 48.2517 98.3457Z" fill="#FFC100"/>
<path opacity="0.7" d="M48.2517 98.3457C48.2517 98.3457 59.3903 101.857 60.0301 110.048C60.4736 115.748 65.2069 117.385 65.2069 117.385C65.2069 117.385 43.2276 119.599 48.2517 98.3457Z" fill="white"/>
<path d="M49.8002 99.7881C49.8002 99.7881 55.3405 102.455 55.6676 103.629C55.9948 104.803 51.8287 101.137 52.4904 102.682C53.152 104.226 57.6525 106.718 58.2342 107.748C58.8158 108.778 54.0099 104.911 54.3226 106.965C54.6352 109.02 59.2739 110.368 59.2594 111.321C59.2448 112.273 55.4423 109.503 55.6895 110.466C55.8494 111.074 57.0055 112.613 58.2851 113.921C58.3199 113.962 58.3332 114.011 58.3227 114.058C58.3122 114.106 58.2786 114.149 58.2277 114.181C58.1767 114.213 58.1117 114.231 58.0438 114.232C57.976 114.234 57.9096 114.218 57.8561 114.189C56.8717 113.554 55.9779 112.852 55.1878 112.093C53.3338 110.235 54.5262 114.153 53.7845 113.741C53.0429 113.329 53.4864 110.368 52.8975 108.515C52.3086 106.661 51.6542 105.065 50.7163 107.882C49.7784 110.698 49.1313 106.548 50.4328 104.278C51.3198 102.831 49.8002 99.7881 49.8002 99.7881Z" fill="#FFC100"/>
<path opacity="0.4" d="M49.8002 99.7881C49.8002 99.7881 55.3405 102.455 55.6676 103.629C55.9948 104.803 51.8287 101.137 52.4904 102.682C53.152 104.226 57.6525 106.718 58.2342 107.748C58.8158 108.778 54.0099 104.911 54.3226 106.965C54.6352 109.02 59.2739 110.368 59.2594 111.321C59.2448 112.273 55.4423 109.503 55.6895 110.466C55.8494 111.074 57.0055 112.613 58.2851 113.921C58.3199 113.962 58.3332 114.011 58.3227 114.058C58.3122 114.106 58.2786 114.149 58.2277 114.181C58.1767 114.213 58.1117 114.231 58.0438 114.232C57.976 114.234 57.9096 114.218 57.8561 114.189C56.8717 113.554 55.9779 112.852 55.1878 112.093C53.3338 110.235 54.5262 114.153 53.7845 113.741C53.0429 113.329 53.4864 110.368 52.8975 108.515C52.3086 106.661 51.6542 105.065 50.7163 107.882C49.7784 110.698 49.1313 106.548 50.4328 104.278C51.3198 102.831 49.8002 99.7881 49.8002 99.7881Z" fill="white"/>
<path d="M92.5445 102.939C92.5445 102.939 83.0926 102.831 79.1592 97.1365C76.4036 93.1773 72.332 93.0177 72.332 93.0177C72.332 93.0177 87.0333 86.7415 92.5445 102.939Z" fill="#FFC100"/>
<path opacity="0.7" d="M92.5445 102.939C92.5445 102.939 83.0926 102.831 79.1592 97.1365C76.4036 93.1773 72.332 93.0177 72.332 93.0177C72.332 93.0177 87.0333 86.7415 92.5445 102.939Z" fill="white"/>
<path d="M90.8444 102.249C90.8444 102.249 85.7549 101.539 85.0278 100.772C84.3008 100.004 88.8231 101.724 87.6889 100.772C86.5547 99.819 82.2941 99.0055 81.4361 98.3929C80.5782 97.7802 85.6531 99.5101 84.5552 98.1148C83.4574 96.7196 79.5748 96.7556 79.1749 96.0554C78.7751 95.3552 82.6721 96.5291 82.0832 95.8958C81.1143 95.1497 79.9946 94.5095 78.7605 93.9959C78.7185 93.974 78.6885 93.9424 78.6758 93.9065C78.663 93.8706 78.6682 93.8327 78.6906 93.7993C78.7129 93.7659 78.7509 93.739 78.7982 93.7232C78.8454 93.7074 78.8989 93.7037 78.9496 93.7128C79.9228 93.9526 80.8603 94.2595 81.7488 94.6292C83.8573 95.556 81.3271 93.0074 82.0396 93.1567C82.7521 93.306 83.6973 95.4942 84.9042 96.6835C86.1112 97.8728 87.2672 98.8717 86.7074 96.6835C86.1475 94.4954 88.4087 97.2859 88.4378 99.1703C88.445 100.406 90.8444 102.249 90.8444 102.249Z" fill="#FFC100"/>
<path opacity="0.4" d="M90.8444 102.249C90.8444 102.249 85.7549 101.539 85.0278 100.772C84.3008 100.004 88.8231 101.724 87.6889 100.772C86.5547 99.819 82.2941 99.0055 81.4361 98.3929C80.5782 97.7802 85.6531 99.5101 84.5552 98.1148C83.4574 96.7196 79.5748 96.7556 79.1749 96.0554C78.7751 95.3552 82.6721 96.5291 82.0832 95.8958C81.1143 95.1497 79.9946 94.5095 78.7605 93.9959C78.7185 93.974 78.6885 93.9424 78.6758 93.9065C78.663 93.8706 78.6682 93.8327 78.6906 93.7993C78.7129 93.7659 78.7509 93.739 78.7982 93.7232C78.8454 93.7074 78.8989 93.7037 78.9496 93.7128C79.9228 93.9526 80.8603 94.2595 81.7488 94.6292C83.8573 95.556 81.3271 93.0074 82.0396 93.1567C82.7521 93.306 83.6973 95.4942 84.9042 96.6835C86.1112 97.8728 87.2672 98.8717 86.7074 96.6835C86.1475 94.4954 88.4087 97.2859 88.4378 99.1703C88.445 100.406 90.8444 102.249 90.8444 102.249Z" fill="white"/>
<path d="M78.1924 85.7429C78.1924 85.7429 72.3759 75.6001 57.7327 74.6837C47.5538 74.0453 44.8273 69.7256 44.8273 69.7256C44.8273 69.7256 39.9487 89.3469 78.1924 85.7429Z" fill="#FFC100"/>
<path opacity="0.7" d="M78.1924 85.7429C78.1924 85.7429 72.3759 75.6001 57.7327 74.6837C47.5538 74.0453 44.8273 69.7256 44.8273 69.7256C44.8273 69.7256 39.9487 89.3469 78.1924 85.7429Z" fill="white"/>
<path opacity="0.5" d="M75.6763 84.2852C75.6763 84.2852 71.1321 79.2035 69.0455 78.8586C66.9588 78.5136 73.3497 82.4059 70.6159 81.7521C67.8821 81.0982 63.607 76.9484 61.7821 76.3821C59.9571 75.8158 66.6825 80.2899 63.0181 79.9243C59.3537 79.5588 57.1361 75.3421 55.4275 75.2906C53.7189 75.2391 58.5248 78.7968 56.8162 78.5291C55.7329 78.3592 53.0282 77.2625 50.7379 76.0526C50.6651 76.0186 50.5778 76.0039 50.4912 76.011C50.4046 76.0181 50.3243 76.0466 50.2644 76.0915C50.2045 76.1363 50.1689 76.1947 50.1637 76.2563C50.1586 76.3179 50.1842 76.3789 50.2362 76.4284C51.3312 77.339 52.5487 78.1718 53.8716 78.9152C57.1143 80.6554 50.1199 79.4301 50.8615 80.1045C51.6031 80.779 56.8889 80.5164 60.1752 81.1342C63.4616 81.7521 66.2971 82.3957 61.2295 83.0907C56.1618 83.7858 63.5416 84.5735 67.6277 83.4923C70.296 82.7972 75.6763 84.2852 75.6763 84.2852Z" fill="white"/>
<path d="M54.5837 52.1224C54.5837 52.1224 61.8543 47.7924 59.7895 41.5832C58.379 37.2636 61.4108 35.3174 61.4108 35.3174C61.4108 35.3174 44.3102 37.0422 54.5837 52.1224Z" fill="#FFC100"/>
<path opacity="0.3" d="M54.5837 52.1224C54.5837 52.1224 61.8543 47.7924 59.7895 41.5832C58.379 37.2636 61.4108 35.3174 61.4108 35.3174C61.4108 35.3174 44.3102 37.0422 54.5837 52.1224Z" fill="white"/>
<path opacity="0.3" d="M55.2969 50.8093C55.2969 50.8093 58.6123 47.9724 58.4959 47.0405C58.3796 46.1086 56.402 49.4913 56.4165 48.2401C56.4311 46.989 59.034 44.4353 59.1503 43.5755C59.2666 42.7157 56.8746 46.3403 56.4747 44.7597C56.0748 43.1791 59.1285 41.4646 58.8304 40.7541C58.5323 40.0436 56.5329 42.6951 56.4238 41.9383C56.5106 40.9212 56.8069 39.9187 57.3036 38.9624C57.3164 38.9265 57.3112 38.8886 57.2889 38.8552C57.2666 38.8217 57.2286 38.7948 57.1814 38.779C57.1341 38.7632 57.0806 38.7595 57.03 38.7685C56.9793 38.7775 56.9347 38.7988 56.9037 38.8285C56.3605 39.4538 55.9074 40.1161 55.5513 40.8056C54.737 42.4737 54.4244 39.3537 54.0027 39.7759C53.581 40.198 54.8097 42.3502 54.9333 43.8124C55.0569 45.2746 55.0642 46.5772 53.5301 44.6155C51.996 42.6539 52.7521 45.8512 54.4171 47.334C55.5004 48.3071 55.2969 50.8093 55.2969 50.8093Z" fill="white"/>
<path d="M88.7206 78.6789C88.7206 78.6789 81.5226 80.9082 75.7352 77.5668C71.7072 75.2396 68.5518 76.1252 68.5518 76.1252C68.5518 76.1252 76.6149 67.7536 88.7206 78.6789Z" fill="#FFC100"/>
<path opacity="0.3" d="M88.7206 78.6789C88.7206 78.6789 81.5226 80.9082 75.7352 77.5668C71.7072 75.2396 68.5518 76.1252 68.5518 76.1252C68.5518 76.1252 76.6149 67.7536 88.7206 78.6789Z" fill="white"/>
<path opacity="0.3" d="M87.084 78.5754C87.084 78.5754 82.8815 79.2859 81.9436 78.8843C81.0057 78.4827 85.2881 78.6732 83.9649 78.2252C82.6416 77.7773 79.0135 78.2252 78.0611 77.9627C77.1086 77.7001 81.8055 77.767 80.2859 76.9844C78.7663 76.2019 75.8508 77.1749 75.1964 76.7527C74.5421 76.3306 78.1047 76.2379 77.3267 75.9238C76.2253 75.5956 75.0616 75.384 73.8732 75.2957C73.825 75.2957 73.7787 75.2821 73.7446 75.258C73.7106 75.2339 73.6914 75.2011 73.6914 75.167C73.6914 75.1329 73.7106 75.1001 73.7446 75.076C73.7787 75.0518 73.825 75.0383 73.8732 75.0383C74.7266 74.9791 75.5862 74.9791 76.4397 75.0383C78.4973 75.2236 75.3273 73.9159 75.938 73.8489C76.5488 73.782 78.3446 75.2185 79.8424 75.8209C81.3401 76.4232 82.6998 76.9021 81.202 75.3729C79.7042 73.8438 82.787 75.4141 83.7322 76.8351C84.372 77.767 87.084 78.5754 87.084 78.5754Z" fill="white"/>
<path d="M68.5586 61.827C68.5586 61.827 62.742 56.0966 53.3265 57.116C46.7829 57.8265 44.1582 55.417 44.1582 55.417C44.1582 55.417 45.3579 68.237 68.5586 61.827Z" fill="#FFC100"/>
<path opacity="0.7" d="M68.5586 61.827C68.5586 61.827 62.742 56.0966 53.3265 57.116C46.7829 57.8265 44.1582 55.417 44.1582 55.417C44.1582 55.417 45.3579 68.237 68.5586 61.827Z" fill="white"/>
<path d="M66.6677 61.1938C66.6677 61.1938 62.7125 58.496 61.331 58.5114C59.9496 58.5269 64.7991 60.2671 62.9378 60.1538C61.0766 60.0406 57.5067 57.9039 56.2343 57.7494C54.9619 57.595 60.1604 59.6647 57.7829 59.8346C55.4054 60.0045 53.1006 57.6001 52.0173 57.7752C50.934 57.9502 54.722 59.639 53.595 59.6596C52.087 59.516 50.6171 59.2159 49.2326 58.7689C49.1786 58.747 49.1146 58.7412 49.0546 58.7528C48.9946 58.7644 48.9436 58.7924 48.9127 58.8306C48.8819 58.8689 48.8737 58.9142 48.8901 58.9567C48.9065 58.9992 48.946 59.0353 49 59.0572C49.8855 59.5082 50.8302 59.8978 51.821 60.2208C54.2349 60.957 49.5744 60.9467 50.1924 61.2917C50.8104 61.6366 54.0604 60.8952 56.2561 60.9158C58.4518 60.9364 60.364 61.0394 57.3394 62.0279C54.3148 63.0164 59.1062 62.7075 61.4328 61.5851C62.9669 60.8437 66.6677 61.1938 66.6677 61.1938Z" fill="#FFC100"/>
<path opacity="0.4" d="M66.6677 61.1938C66.6677 61.1938 62.7125 58.496 61.331 58.5114C59.9496 58.5269 64.7991 60.2671 62.9378 60.1538C61.0766 60.0406 57.5067 57.9039 56.2343 57.7494C54.9619 57.595 60.1604 59.6647 57.7829 59.8346C55.4054 60.0045 53.1006 57.6001 52.0173 57.7752C50.934 57.9502 54.722 59.639 53.595 59.6596C52.087 59.516 50.6171 59.2159 49.2326 58.7689C49.1786 58.747 49.1146 58.7412 49.0546 58.7528C48.9946 58.7644 48.9436 58.7924 48.9127 58.8306C48.8819 58.8689 48.8737 58.9142 48.8901 58.9567C48.9065 58.9992 48.946 59.0353 49 59.0572C49.8855 59.5082 50.8302 59.8978 51.821 60.2208C54.2349 60.957 49.5744 60.9467 50.1924 61.2917C50.8104 61.6366 54.0604 60.8952 56.2561 60.9158C58.4518 60.9364 60.364 61.0394 57.3394 62.0279C54.3148 63.0164 59.1062 62.7075 61.4328 61.5851C62.9669 60.8437 66.6677 61.1938 66.6677 61.1938Z" fill="white"/>
<path d="M86.2627 74.5233C86.2627 74.5233 79.2683 64.9006 87.7168 56.5393C93.5915 50.7214 90.7778 46.4893 90.7778 46.4893C90.7778 46.4893 114.72 56.5393 86.2627 74.5233Z" fill="#FFC100"/>
<path opacity="0.7" d="M86.2627 74.5233C86.2627 74.5233 79.2683 64.9006 87.7168 56.5393C93.5915 50.7214 90.7778 46.4893 90.7778 46.4893C90.7778 46.4893 114.72 56.5393 86.2627 74.5233Z" fill="white"/>
<path d="M86.3501 72.2587C86.3501 72.2587 83.8927 66.5695 84.896 65.2411C85.8994 63.9128 85.8775 69.808 86.9463 67.9339C88.0151 66.0598 86.3719 61.1223 86.9463 59.7888C87.5207 58.4553 87.9279 64.9065 89.8982 62.7235C91.8686 60.5405 88.8294 56.6533 89.8982 55.7214C90.967 54.7895 91.6214 59.624 92.4357 58.5428C92.9592 57.8581 93.5336 55.7163 93.7299 53.7237C93.725 53.6555 93.7587 53.5886 93.8235 53.5379C93.8883 53.4873 93.9788 53.4569 94.0752 53.4534C94.1716 53.45 94.266 53.4739 94.3376 53.5197C94.4092 53.5656 94.4521 53.6297 94.4569 53.698C94.7211 54.8654 94.8186 56.0487 94.7478 57.2299C94.5005 60.0771 97.6996 55.5618 97.9469 56.3959C98.1941 57.2299 94.4787 59.866 93.0246 62.0027C91.5705 64.1393 90.4217 66.0649 94.4206 63.815C98.4194 61.5651 94.5006 65.998 90.7344 67.4756C88.2332 68.4384 86.3501 72.2587 86.3501 72.2587Z" fill="#FFC100"/>
<path opacity="0.4" d="M86.3501 72.2587C86.3501 72.2587 83.8927 66.5695 84.896 65.2411C85.8994 63.9128 85.8775 69.808 86.9463 67.9339C88.0151 66.0598 86.3719 61.1223 86.9463 59.7888C87.5207 58.4553 87.9279 64.9065 89.8982 62.7235C91.8686 60.5405 88.8294 56.6533 89.8982 55.7214C90.967 54.7895 91.6214 59.624 92.4357 58.5428C92.9592 57.8581 93.5336 55.7163 93.7299 53.7237C93.725 53.6555 93.7587 53.5886 93.8235 53.5379C93.8883 53.4873 93.9788 53.4569 94.0752 53.4534C94.1716 53.45 94.266 53.4739 94.3376 53.5197C94.4092 53.5656 94.4521 53.6297 94.4569 53.698C94.7211 54.8654 94.8186 56.0487 94.7478 57.2299C94.5005 60.0771 97.6996 55.5618 97.9469 56.3959C98.1941 57.2299 94.4787 59.866 93.0246 62.0027C91.5705 64.1393 90.4217 66.0649 94.4206 63.815C98.4194 61.5651 94.5006 65.998 90.7344 67.4756C88.2332 68.4384 86.3501 72.2587 86.3501 72.2587Z" fill="white"/>
<path d="M76.0328 64.8807C54.9479 53.0389 45.6632 43.7148 43.3148 41.0942C43.1337 40.8954 42.852 40.7532 42.5276 40.6967C42.2032 40.6402 41.8605 40.6738 41.5699 40.7904C41.4127 40.851 41.2749 40.9338 41.1651 41.0338C41.0552 41.1337 40.9756 41.2487 40.9313 41.3714C40.8869 41.4941 40.8788 41.622 40.9073 41.747C40.9359 41.8721 41.0005 41.9916 41.0973 42.0982C43.1443 44.3172 45.3933 46.4395 47.8299 48.4515C52.6576 52.5086 61.1861 58.9083 74.426 66.3377C85.7173 72.6705 91.6938 81.7835 92.2609 93.4708C91.1267 90.8965 89.2436 88.5333 86.1899 86.9527C80.3734 83.9305 71.5395 84.4762 60.0155 88.5694C42.217 94.897 42.9731 106.373 43.7074 117.468C44.1219 123.811 44.5508 130.34 41.4681 135.859C41.3477 136.08 41.3516 136.324 41.4788 136.543C41.606 136.761 41.8468 136.937 42.1515 137.033C42.3151 137.085 42.492 137.113 42.6712 137.115C42.8505 137.117 43.0285 137.093 43.1944 137.045C43.3603 136.997 43.5107 136.925 43.6364 136.835C43.7621 136.744 43.8604 136.637 43.9256 136.518C47.1974 130.654 46.7538 123.914 46.3249 117.381C45.5978 106.394 44.9144 96.0194 61.1934 90.2272C71.7504 86.4739 79.6391 85.8767 84.6267 88.4561C93.2643 92.9148 90.9886 105.622 90.7414 106.847C89.861 110.277 88.6166 113.656 87.0188 116.954C86.9092 117.18 86.9274 117.429 87.0696 117.646C87.2118 117.864 87.467 118.034 87.7822 118.122C87.9457 118.168 88.1205 118.19 88.2963 118.187C88.4721 118.184 88.6453 118.156 88.8054 118.105C88.9656 118.054 89.1095 117.98 89.2285 117.888C89.3475 117.796 89.4392 117.689 89.4981 117.571C92.4701 111.452 94.2461 105.074 94.7766 98.6143C95.9326 84.0592 89.389 72.3873 76.0328 64.8807Z" fill="#FFC100"/>
<path d="M34.1826 133.171C34.1826 133.171 35.026 139.864 36.0366 140.544C37.0473 141.224 42.6384 134.994 42.6384 134.994L39.4757 131.029L34.1826 133.171Z" fill="#FFC100"/>
<g opacity="0.2">
<path d="M34.1826 133.171C34.1826 133.171 35.026 139.864 36.0366 140.544C37.0473 141.224 42.6384 134.994 42.6384 134.994L39.4757 131.029L34.1826 133.171Z" fill="black"/>
</g>
<path d="M45.0743 120.98C45.0743 120.98 35.7024 116.346 32.1544 122.988C28.6063 129.629 34.8227 132.718 33.0705 136.791L37.8909 132.564L41.5262 138.562L47.2919 133.197L51.8579 138.011C52.0967 135.554 52.854 133.137 54.1045 130.839C57.0637 125.454 56.671 119.348 45.0743 120.98Z" fill="#FFC100"/>
<path opacity="0.5" d="M34.8591 126.241C34.8591 126.241 36.2551 130.787 38.0873 131.143C39.9195 131.498 43.0095 127.163 43.0095 127.163C43.0095 127.163 40.1013 129.737 38.509 129.505C36.9167 129.274 34.8591 126.241 34.8591 126.241Z" fill="white"/>
<path opacity="0.5" d="M44.7178 126.313C44.7178 126.313 45.3721 130.947 47.1389 131.462C48.9057 131.977 52.6646 127.904 52.6646 127.904C52.6646 127.904 49.3346 130.216 47.8224 129.871C46.3101 129.526 44.7178 126.313 44.7178 126.313Z" fill="white"/>
<path d="M80.4026 120.702C80.4026 120.702 83.1437 104.994 80.4026 104.226C77.6616 103.459 79.6101 109.2 78.6359 110.508C77.6616 111.815 70.2237 100.211 66.6684 102.502C63.9927 104.226 70.0638 107.341 72.3322 110.508C74.6006 113.674 65.8831 112.207 67.5045 114.256C69.1258 116.305 78.774 115.981 80.4026 120.702Z" fill="#FFC100"/>
<path opacity="0.6" d="M80.4026 120.702C80.4026 120.702 83.1437 104.994 80.4026 104.226C77.6616 103.459 79.6101 109.2 78.6359 110.508C77.6616 111.815 70.2237 100.211 66.6684 102.502C63.9927 104.226 70.0638 107.341 72.3322 110.508C74.6006 113.674 65.8831 112.207 67.5045 114.256C69.1258 116.305 78.774 115.981 80.4026 120.702Z" fill="white"/>
<path d="M74.0552 101.431C74.0552 101.431 65.5704 92.2972 59.2594 95.8549C52.9485 99.4125 65.3959 96.0093 74.0552 101.431Z" fill="#FFC100"/>
<path d="M55.9446 67.6607C55.9446 67.6607 39.7019 65.2975 38.9603 54.7892C38.2187 44.281 28.0543 58.7228 42.661 65.6734C42.661 65.6734 31.6242 63.6139 32.4821 65.6734C33.3401 67.7328 42.1666 68.7522 55.9446 67.6607Z" fill="#FFC100"/>
<path opacity="0.4" d="M55.9446 67.6607C55.9446 67.6607 39.7019 65.2975 38.9603 54.7892C38.2187 44.281 28.0543 58.7228 42.661 65.6734C42.661 65.6734 31.6242 63.6139 32.4821 65.6734C33.3401 67.7328 42.1666 68.7522 55.9446 67.6607Z" fill="white"/>
<path d="M51.9746 86.6434C51.9746 86.6434 31.6168 86.1285 33.7471 88.8933C35.8774 91.6581 41.9338 86.8081 43.3443 88.8933C44.7549 90.9785 32.133 97.9085 35.8192 102.11C39.5054 106.311 47.714 86.7206 51.9746 86.6434Z" fill="#FFC100"/>
<path d="M33.5868 42.0365C33.5868 42.0365 23.6551 40.7339 22.3391 37.1763C22.3391 37.1763 27.2032 33.9996 37.4548 37.6911C37.4548 37.6911 32.9543 31.7702 34.8592 28.5215C37.0505 28.8859 39.0121 29.7498 40.4426 30.9804C41.873 32.211 42.6932 33.7403 42.777 35.3331C43.2932 41.0943 33.5868 42.0365 33.5868 42.0365Z" fill="#FFC100"/>
<path opacity="0.3" d="M33.5868 42.0365C33.5868 42.0365 23.6551 40.7339 22.3391 37.1763C22.3391 37.1763 27.2032 33.9996 37.4548 37.6911C37.4548 37.6911 32.9543 31.7702 34.8592 28.5215C37.0505 28.8859 39.0121 29.7498 40.4426 30.9804C41.873 32.211 42.6932 33.7403 42.777 35.3331C43.2932 41.0943 33.5868 42.0365 33.5868 42.0365Z" fill="white"/>
<path d="M35.6808 40.3527C35.6808 40.3527 31.5074 37.0216 32.3944 33.9221C32.3944 33.9221 35.7826 33.4073 40.872 37.14C40.872 37.14 39.1998 30.9617 43.3441 28.9692C43.3441 28.9692 47.2702 30.0555 46.6159 35.3174C46.6159 35.3174 51.6472 31.909 51.9743 27.8828C51.9743 27.8828 56.0241 35.4718 43.0096 42.9785C29.9951 50.4851 22.3391 46.3096 22.3391 46.3096C22.3391 46.3096 28.2284 47.0304 32.3944 44.8114C32.3944 44.8114 26.0617 45.9647 23.6696 42.0363C23.6551 42.0363 26.0326 39.184 35.6808 40.3527Z" fill="#FFC100"/>
<path d="M126.694 44.8887C126.694 44.8887 122.47 40.1056 126.352 35.5028C129.05 32.3004 127.326 30.1895 127.326 30.1895C127.326 30.1895 140.377 34.6739 126.694 44.8887Z" fill="#FFC100"/>
<path opacity="0.3" d="M126.694 44.8887C126.694 44.8887 122.47 40.1056 126.352 35.5028C129.05 32.3004 127.326 30.1895 127.326 30.1895C127.326 30.1895 140.377 34.6739 126.694 44.8887Z" fill="white"/>
<path opacity="0.3" d="M126.601 43.7095C126.601 43.7095 124.979 40.8314 125.408 40.1055C125.837 39.3795 126.201 42.4481 126.637 41.439C127.073 40.4298 125.91 37.9173 126.143 37.2068C126.375 36.4963 126.964 39.8377 127.851 38.6433C128.738 37.4488 126.928 35.5232 127.422 35.0084C127.917 34.4935 128.556 36.9803 128.92 36.3933C129.22 35.5631 129.345 34.706 129.291 33.8499C129.291 33.8177 129.308 33.7866 129.338 33.7624C129.368 33.7382 129.409 33.7224 129.454 33.718C129.499 33.7137 129.545 33.7209 129.583 33.7385C129.621 33.7562 129.649 33.7829 129.662 33.8139C129.869 34.4132 129.993 35.0253 130.032 35.6416C130.076 37.1296 131.486 34.684 131.639 35.1268C131.792 35.5696 130.061 37.0318 129.458 38.2159C128.854 39.4001 128.353 40.4041 130.294 39.1169C132.235 37.8298 130.469 40.2445 128.6 41.13C127.349 41.6707 126.601 43.7095 126.601 43.7095Z" fill="white"/>
<path d="M148.282 34.3079C148.282 34.3079 157.465 33.8497 160.897 28.1554C163.289 24.1961 167.237 23.8975 167.237 23.8975C167.237 23.8975 152.448 18.2958 148.282 34.3079Z" fill="#FFC100"/>
<path opacity="0.7" d="M148.282 34.3079C148.282 34.3079 157.465 33.8497 160.897 28.1554C163.289 24.1961 167.237 23.8975 167.237 23.8975C167.237 23.8975 152.448 18.2958 148.282 34.3079Z" fill="white"/>
<path d="M149.896 33.5716C149.896 33.5716 154.825 32.7117 155.458 31.9137C156.09 31.1157 151.822 32.9846 152.862 32.0064C153.902 31.0281 157.988 30.086 158.78 29.4578C159.573 28.8297 154.752 30.7038 155.719 29.3034C156.686 27.903 160.467 27.7948 160.809 27.1152C161.151 26.4356 157.435 27.7073 157.959 27.0689C158.85 26.3051 159.896 25.6388 161.063 25.0918C161.106 25.0696 161.136 25.037 161.147 25.0002C161.159 24.9634 161.151 24.9249 161.125 24.892C161.099 24.8591 161.057 24.8341 161.007 24.8216C160.957 24.8091 160.902 24.81 160.852 24.8241C159.925 25.0964 159.036 25.4308 158.199 25.8229C156.206 26.8012 158.482 24.2269 157.806 24.3968C157.13 24.5667 156.352 26.7394 155.269 27.9441C154.185 29.1489 153.131 30.1632 153.516 28.0008C153.902 25.8384 151.902 28.6546 152.011 30.4927C152.084 31.682 149.896 33.5716 149.896 33.5716Z" fill="#FFC100"/>
<path opacity="0.4" d="M149.896 33.5716C149.896 33.5716 154.825 32.7117 155.458 31.9137C156.09 31.1157 151.822 32.9846 152.862 32.0064C153.902 31.0281 157.988 30.086 158.78 29.4578C159.573 28.8297 154.752 30.7038 155.719 29.3034C156.686 27.903 160.467 27.7948 160.809 27.1152C161.151 26.4356 157.435 27.7073 157.959 27.0689C158.85 26.3051 159.896 25.6388 161.063 25.0918C161.106 25.0696 161.136 25.037 161.147 25.0002C161.159 24.9634 161.151 24.9249 161.125 24.892C161.099 24.8591 161.057 24.8341 161.007 24.8216C160.957 24.8091 160.902 24.81 160.852 24.8241C159.925 25.0964 159.036 25.4308 158.199 25.8229C156.206 26.8012 158.482 24.2269 157.806 24.3968C157.13 24.5667 156.352 26.7394 155.269 27.9441C154.185 29.1489 153.131 30.1632 153.516 28.0008C153.902 25.8384 151.902 28.6546 152.011 30.4927C152.084 31.682 149.896 33.5716 149.896 33.5716Z" fill="white"/>
<path d="M163.332 31.5333C163.332 31.5333 166 37.7682 174.594 38.8803C180.578 39.6577 181.865 42.3196 181.865 42.3196C181.865 42.3196 186.278 30.8742 163.332 31.5333Z" fill="#FFC100"/>
<path opacity="0.7" d="M163.332 31.5333C163.332 31.5333 166 37.7682 174.594 38.8803C180.578 39.6577 181.865 42.3196 181.865 42.3196C181.865 42.3196 186.278 30.8742 163.332 31.5333Z" fill="white"/>
<path d="M164.713 32.4854C164.713 32.4854 167.01 35.6775 168.225 35.9607C169.439 36.2438 165.949 33.6901 167.498 34.1895C169.046 34.689 171.271 37.2787 172.311 37.7112C173.35 38.1437 169.708 35.2038 171.853 35.5642C173.998 35.9246 174.979 38.5092 175.99 38.5967C177 38.6843 174.426 36.3983 175.423 36.6197C176.671 37.066 177.82 37.6402 178.833 38.3239C178.873 38.3453 178.922 38.3562 178.972 38.3548C179.023 38.3533 179.071 38.3396 179.108 38.316C179.146 38.2924 179.171 38.2603 179.179 38.2251C179.187 38.1899 179.178 38.1539 179.152 38.1231C178.576 37.5389 177.919 36.9973 177.189 36.5064C175.401 35.348 179.458 36.3519 179.065 35.9195C178.673 35.487 175.524 35.4406 173.627 34.9515C171.729 34.4624 170.093 33.9681 173.176 33.7416C176.259 33.5151 171.925 32.7737 169.417 33.2268C167.781 33.582 164.713 32.4854 164.713 32.4854Z" fill="#FFC100"/>
<path opacity="0.4" d="M164.713 32.4854C164.713 32.4854 167.01 35.6775 168.225 35.9607C169.439 36.2438 165.949 33.6901 167.498 34.1895C169.046 34.689 171.271 37.2787 172.311 37.7112C173.35 38.1437 169.708 35.2038 171.853 35.5642C173.998 35.9246 174.979 38.5092 175.99 38.5967C177 38.6843 174.426 36.3983 175.423 36.6197C176.671 37.066 177.82 37.6402 178.833 38.3239C178.873 38.3453 178.922 38.3562 178.972 38.3548C179.023 38.3533 179.071 38.3396 179.108 38.316C179.146 38.2924 179.171 38.2603 179.179 38.2251C179.187 38.1899 179.178 38.1539 179.152 38.1231C178.576 37.5389 177.919 36.9973 177.189 36.5064C175.401 35.348 179.458 36.3519 179.065 35.9195C178.673 35.487 175.524 35.4406 173.627 34.9515C171.729 34.4624 170.093 33.9681 173.176 33.7416C176.259 33.5151 171.925 32.7737 169.417 33.2268C167.781 33.582 164.713 32.4854 164.713 32.4854Z" fill="white"/>
<path d="M114.262 54.3364C114.095 54.2624 113.951 54.1651 113.839 54.0504C113.726 53.9358 113.648 53.8061 113.609 53.6693C113.569 53.5326 113.569 53.3916 113.609 53.2549C113.649 53.1182 113.728 52.9887 113.841 52.8742C118.902 47.8746 125.089 43.4983 132.155 39.9203C143.629 34.0664 162.656 27.7233 188.59 30.3697C188.782 30.3897 188.965 30.4365 189.131 30.5075C189.296 30.5784 189.44 30.6719 189.554 30.7827C189.668 30.8934 189.749 31.0191 189.793 31.1524C189.838 31.2857 189.844 31.424 189.812 31.559C189.749 31.8257 189.541 32.0642 189.232 32.2232C188.924 32.3821 188.539 32.4487 188.161 32.4085C163.245 29.8651 144.966 35.9353 133.951 41.5421C127.124 45.0003 121.135 49.2204 116.218 54.0378C116.008 54.2553 115.688 54.4076 115.324 54.4631C114.96 54.5187 114.58 54.4733 114.262 54.3364Z" fill="#FFC100"/>
<path d="M203.96 30.4473C203.96 30.4473 210.504 32.7487 210.061 33.9174C209.617 35.0861 202.63 34.9832 202.63 34.9832L200.114 32.1206L203.96 30.4473Z" fill="#FFC100"/>
<path opacity="0.4" d="M203.96 30.4473C203.96 30.4473 210.504 32.7487 210.061 33.9174C209.617 35.0861 202.63 34.9832 202.63 34.9832L200.114 32.1206L203.96 30.4473Z" fill="black"/>
<path d="M199.423 36.7687C199.423 36.7687 206.432 36.8099 207.232 36.3362C208.032 35.8626 201.932 32.4902 201.932 32.4902L197.569 33.8546L199.423 36.7687Z" fill="#FFC100"/>
<path d="M203.277 28.0166C203.277 28.0166 209.093 30.7762 209.377 31.4919C209.66 32.2076 201.946 32.5525 201.946 32.5525L199.431 29.6899L203.277 28.0166Z" fill="#FFC100"/>
<g opacity="0.2">
<path d="M199.423 36.7687C199.423 36.7687 206.432 36.8099 207.232 36.3362C208.032 35.8626 201.931 32.4902 201.931 32.4902L197.569 33.8546L199.423 36.7687Z" fill="black"/>
<path d="M203.277 28.0166C203.277 28.0166 209.093 30.7762 209.377 31.4919C209.66 32.2076 201.946 32.5525 201.946 32.5525L199.431 29.6899L203.277 28.0166Z" fill="black"/>
</g>
<path d="M187.543 30.2101C187.543 30.2101 182.017 34.7718 188.685 37.0887C195.352 39.4055 199.002 36.4039 203.11 37.6035L199.067 34.7718L205.56 33.325L200.398 29.927L205.72 27.9139C203.192 27.6089 200.741 27.0398 198.449 26.2251C193.054 24.2738 186.671 24.0524 187.543 30.2101Z" fill="#FFC100"/>
<path opacity="0.5" d="M192.27 35.9141C192.27 35.9141 197.097 35.5176 197.599 34.5857C198.101 33.6538 193.818 31.7334 193.818 31.7334C193.818 31.7334 196.268 33.453 195.927 34.2459C195.585 35.0388 192.27 35.9141 192.27 35.9141Z" fill="white"/>
<path opacity="0.5" d="M193.054 30.7765C193.054 30.7765 197.911 30.7765 198.565 29.8858C199.219 28.9951 195.264 26.7451 195.264 26.7451C195.264 26.7451 197.445 28.6501 196.951 29.4121C196.456 30.1741 193.054 30.7765 193.054 30.7765Z" fill="white"/>
<path d="M98.1133 45.4701C98.1133 45.4701 88.705 35.3428 81.7106 39.2918C74.7163 43.2408 88.5305 39.4617 98.1133 45.4701Z" fill="#FFC100"/>
<path d="M107.791 49.033C107.791 49.033 102.702 36.5168 116.909 30.6062C131.116 24.6956 105.872 25.0612 103.72 38.7719C103.72 38.7719 100.92 30.0192 98.4775 31.6771C96.0345 33.3349 99.2482 40.0127 107.791 49.033Z" fill="#FFC100"/>
<path opacity="0.4" d="M107.791 49.033C107.791 49.033 102.702 36.5168 116.909 30.6062C131.116 24.6956 105.872 25.0612 103.72 38.7719C103.72 38.7719 100.92 30.0192 98.4775 31.6771C96.0345 33.3349 99.2482 40.0127 107.791 49.033Z" fill="white"/>
</g>
<path d="M115.409 24.6496C115.409 24.2434 115.248 23.8538 114.961 23.5661C114.674 23.2785 114.285 23.1164 113.879 23.1152H113.831C113.758 22.7931 113.581 22.5037 113.329 22.2903C113.077 22.077 112.762 21.9514 112.432 21.9322C112.102 21.9131 111.775 22.0016 111.5 22.1844C111.225 22.3671 111.016 22.6343 110.906 22.9457C110.608 22.7849 110.264 22.728 109.93 22.784C109.596 22.8399 109.29 23.0054 109.06 23.2545C108.831 23.5036 108.691 23.8221 108.662 24.1596C108.633 24.4972 108.718 24.8348 108.902 25.119C108.583 25.2626 108.323 25.5111 108.165 25.8233C108.007 26.1354 107.961 26.4923 108.034 26.8344C108.107 27.1765 108.295 27.4832 108.567 27.7033C108.839 27.9235 109.178 28.0438 109.528 28.0443C109.786 28.0428 110.039 27.9755 110.263 27.8487C110.329 28.0627 110.443 28.2592 110.595 28.4238C110.747 28.5885 110.934 28.7171 111.143 28.8004C111.351 28.8836 111.575 28.9195 111.799 28.9052C112.022 28.8909 112.24 28.827 112.436 28.718C112.668 28.8283 112.925 28.8778 113.182 28.8619C113.439 28.846 113.687 28.7652 113.904 28.6272C114.122 28.4891 114.3 28.2982 114.423 28.0723C114.547 27.8465 114.611 27.5931 114.609 27.3358C114.607 27.065 114.534 26.7996 114.396 26.5664C114.502 26.3835 114.569 26.1808 114.592 25.9709C114.834 25.8441 115.038 25.6545 115.181 25.422C115.325 25.1896 115.404 24.9228 115.409 24.6496Z" fill="#FFC100"/>
<path d="M111.713 20.3554C111.854 20.3554 111.992 20.3135 112.109 20.2349C112.227 20.1564 112.318 20.0448 112.372 19.9143C112.426 19.7838 112.44 19.6403 112.412 19.5019C112.384 19.3635 112.315 19.2365 112.215 19.1369C112.115 19.0374 111.988 18.9699 111.849 18.9429C111.711 18.9158 111.567 18.9306 111.437 18.9852C111.307 19.0398 111.196 19.1319 111.118 19.2497C111.04 19.3675 110.999 19.5057 111 19.6469C111 19.7403 111.018 19.8328 111.054 19.919C111.09 20.0053 111.143 20.0836 111.209 20.1494C111.275 20.2153 111.354 20.2674 111.44 20.3027C111.527 20.3381 111.619 20.3559 111.713 20.3554Z" fill="#FFC100"/>
<path d="M105.713 24.3554C106.107 24.3554 106.426 24.0362 106.426 23.6425C106.426 23.2488 106.107 22.9297 105.713 22.9297C105.319 22.9297 105 23.2488 105 23.6425C105 24.0362 105.319 24.3554 105.713 24.3554Z" fill="#FFC100"/>
<path d="M116.813 23.7998H116.365V25.5124H116.813V23.7998Z" fill="#263238"/>
<path opacity="0.4" d="M116.813 23.7998H116.365V25.5124H116.813V23.7998Z" fill="white"/>
<path d="M118.53 26.2468C118.543 26.5094 118.502 26.7718 118.41 27.0181C118.318 27.2644 118.177 27.4895 117.995 27.6797C117.814 27.8699 117.596 28.0214 117.354 28.1248C117.112 28.2283 116.852 28.2816 116.589 28.2816C116.327 28.2816 116.066 28.2283 115.825 28.1248C115.583 28.0214 115.365 27.8699 115.183 27.6797C115.002 27.4895 114.861 27.2644 114.769 27.0181C114.677 26.7718 114.636 26.5094 114.649 26.2468C114.649 25.1776 115.518 24.6299 116.587 24.6299C117.657 24.6299 118.53 25.1993 118.53 26.2468Z" fill="#263238"/>
<path opacity="0.7" d="M118.53 26.2468C118.543 26.5094 118.502 26.7718 118.41 27.0181C118.318 27.2644 118.177 27.4895 117.995 27.6797C117.814 27.8699 117.596 28.0214 117.354 28.1248C117.112 28.2283 116.852 28.2816 116.589 28.2816C116.327 28.2816 116.066 28.2283 115.825 28.1248C115.583 28.0214 115.365 27.8699 115.183 27.6797C115.002 27.4895 114.861 27.2644 114.769 27.0181C114.677 26.7718 114.636 26.5094 114.649 26.2468C114.649 25.1776 115.518 24.6299 116.587 24.6299C117.657 24.6299 118.53 25.1993 118.53 26.2468Z" fill="white"/>
<path d="M118.534 26.1035H114.648V34.0882H118.534V26.1035Z" fill="#8C897F"/>
<path d="M118.491 25.6562H114.683C114.515 25.6562 114.379 25.7925 114.379 25.9605V26.0866C114.379 26.2546 114.515 26.3908 114.683 26.3908H118.491C118.659 26.3908 118.795 26.2546 118.795 26.0866V25.9605C118.795 25.7925 118.659 25.6562 118.491 25.6562Z" fill="#8C897F"/>
<path opacity="0.3" d="M118.491 25.6562H114.683C114.515 25.6562 114.379 25.7925 114.379 25.9605V26.0866C114.379 26.2546 114.515 26.3908 114.683 26.3908H118.491C118.659 26.3908 118.795 26.2546 118.795 26.0866V25.9605C118.795 25.7925 118.659 25.6562 118.491 25.6562Z" fill="white"/>
<path d="M117.257 24.1435H115.922L116.179 22.8135H117L117.257 24.1435Z" fill="#8C897F"/>
<path opacity="0.5" d="M117.257 24.1435H115.922L116.179 22.8135H117L117.257 24.1435Z" fill="white"/>
<path opacity="0.9" d="M116.587 29.7722C117.303 29.7722 117.883 29.1923 117.883 28.4769C117.883 27.7616 117.303 27.1816 116.587 27.1816C115.872 27.1816 115.292 27.7616 115.292 28.4769C115.292 29.1923 115.872 29.7722 116.587 29.7722Z" fill="white"/>
<path d="M158.976 15.2109H158.385V17.4712H158.976V15.2109Z" fill="#263238"/>
<path opacity="0.4" d="M158.976 15.2109H158.385V17.4712H158.976V15.2109Z" fill="white"/>
<path d="M161.244 18.4446C161.244 19.1248 160.974 19.7771 160.493 20.258C160.012 20.739 159.36 21.0091 158.68 21.0091C158 21.0091 157.347 20.739 156.866 20.258C156.385 19.7771 156.115 19.1248 156.115 18.4446C156.115 17.0276 157.263 16.3018 158.68 16.3018C160.097 16.3018 161.244 17.0276 161.244 18.4446Z" fill="#263238"/>
<path opacity="0.7" d="M161.244 18.4446C161.244 19.1248 160.974 19.7771 160.493 20.258C160.012 20.739 159.36 21.0091 158.68 21.0091C158 21.0091 157.347 20.739 156.866 20.258C156.385 19.7771 156.115 19.1248 156.115 18.4446C156.115 17.0276 157.263 16.3018 158.68 16.3018C160.097 16.3018 161.244 17.0276 161.244 18.4446Z" fill="white"/>
<path d="M161.244 18.2539H156.11V28.8118H161.244V18.2539Z" fill="#8C897F"/>
<path d="M161.114 18.6314H156.254C156.19 18.6314 156.127 18.6188 156.068 18.5943C156.009 18.5699 155.955 18.534 155.91 18.4888C155.865 18.4436 155.829 18.3899 155.805 18.3309C155.78 18.2718 155.768 18.2085 155.768 18.1446C155.769 18.0162 155.821 17.8935 155.912 17.8032C156.003 17.7128 156.126 17.6621 156.254 17.6621H161.123C161.251 17.6621 161.374 17.7128 161.465 17.8032C161.556 17.8935 161.608 18.0162 161.609 18.1446C161.609 18.2093 161.597 18.2733 161.572 18.3329C161.547 18.3925 161.51 18.4466 161.464 18.4919C161.418 18.5373 161.363 18.5729 161.303 18.5969C161.243 18.6208 161.179 18.6326 161.114 18.6314Z" fill="#8C897F"/>
<path opacity="0.3" d="M161.114 18.6314H156.254C156.19 18.6314 156.127 18.6188 156.068 18.5943C156.009 18.5699 155.955 18.534 155.91 18.4888C155.865 18.4436 155.829 18.3899 155.805 18.3309C155.78 18.2718 155.768 18.2085 155.768 18.1446C155.769 18.0162 155.821 17.8935 155.912 17.8032C156.003 17.7128 156.126 17.6621 156.254 17.6621H161.123C161.251 17.6621 161.374 17.7128 161.465 17.8032C161.556 17.8935 161.608 18.0162 161.609 18.1446C161.609 18.2093 161.597 18.2733 161.572 18.3329C161.547 18.3925 161.51 18.4466 161.464 18.4919C161.418 18.5373 161.363 18.5729 161.303 18.5969C161.243 18.6208 161.179 18.6326 161.114 18.6314Z" fill="white"/>
<path d="M159.562 15.6627H157.802L158.136 13.9023H159.223L159.562 15.6627Z" fill="#8C897F"/>
<path opacity="0.5" d="M159.562 15.6627H157.802L158.136 13.9023H159.223L159.562 15.6627Z" fill="white"/>
<path d="M158.51 14.7678C158.51 14.9764 158.414 15.146 158.301 15.146C158.188 15.146 158.093 14.9764 158.093 14.7678C158.093 14.5592 158.184 14.3896 158.301 14.3896C158.419 14.3896 158.51 14.5374 158.51 14.7678Z" fill="#8C897F"/>
<path opacity="0.9" d="M158.679 23.1048C159.625 23.1048 160.392 22.3381 160.392 21.3923C160.392 20.4464 159.625 19.6797 158.679 19.6797C157.734 19.6797 156.967 20.4464 156.967 21.3923C156.967 22.3381 157.734 23.1048 158.679 23.1048Z" fill="white"/>
<path d="M165.722 15.2109H165.131V17.4712H165.722V15.2109Z" fill="#263238"/>
<path opacity="0.4" d="M165.722 15.2109H165.131V17.4712H165.722V15.2109Z" fill="white"/>
<path d="M167.99 18.4446C167.99 19.1248 167.72 19.7771 167.239 20.258C166.758 20.739 166.106 21.0091 165.426 21.0091C164.745 21.0091 164.093 20.739 163.612 20.258C163.131 19.7771 162.861 19.1248 162.861 18.4446C162.861 17.0276 164.009 16.3018 165.426 16.3018C166.843 16.3018 167.99 17.0276 167.99 18.4446Z" fill="#263238"/>
<path opacity="0.7" d="M167.99 18.4446C167.99 19.1248 167.72 19.7771 167.239 20.258C166.758 20.739 166.106 21.0091 165.426 21.0091C164.745 21.0091 164.093 20.739 163.612 20.258C163.131 19.7771 162.861 19.1248 162.861 18.4446C162.861 17.0276 164.009 16.3018 165.426 16.3018C166.843 16.3018 167.99 17.0276 167.99 18.4446Z" fill="white"/>
<path d="M167.991 18.2539H162.857V28.8118H167.991V18.2539Z" fill="#8C897F"/>
<path d="M167.86 18.6314H162.992C162.928 18.6314 162.864 18.6188 162.805 18.5943C162.746 18.5699 162.693 18.534 162.647 18.4888C162.602 18.4436 162.566 18.3899 162.542 18.3309C162.517 18.2718 162.505 18.2085 162.505 18.1446C162.506 18.0162 162.558 17.8935 162.649 17.8032C162.74 17.7128 162.863 17.6621 162.992 17.6621H167.86C167.988 17.6621 168.111 17.7128 168.203 17.8032C168.294 17.8935 168.346 18.0162 168.347 18.1446C168.347 18.2085 168.334 18.2718 168.31 18.3309C168.285 18.3899 168.249 18.4436 168.204 18.4888C168.159 18.534 168.105 18.5699 168.046 18.5943C167.987 18.6188 167.924 18.6314 167.86 18.6314Z" fill="#8C897F"/>
<path opacity="0.3" d="M167.86 18.6314H162.992C162.928 18.6314 162.864 18.6188 162.805 18.5943C162.746 18.5699 162.693 18.534 162.647 18.4888C162.602 18.4436 162.566 18.3899 162.542 18.3309C162.517 18.2718 162.505 18.2085 162.505 18.1446C162.506 18.0162 162.558 17.8935 162.649 17.8032C162.74 17.7128 162.863 17.6621 162.992 17.6621H167.86C167.988 17.6621 168.111 17.7128 168.203 17.8032C168.294 17.8935 168.346 18.0162 168.347 18.1446C168.347 18.2085 168.334 18.2718 168.31 18.3309C168.285 18.3899 168.249 18.4436 168.204 18.4888C168.159 18.534 168.105 18.5699 168.046 18.5943C167.987 18.6188 167.924 18.6314 167.86 18.6314Z" fill="white"/>
<path d="M166.304 15.6627H164.548L164.883 13.9023H165.969L166.304 15.6627Z" fill="#8C897F"/>
<path opacity="0.5" d="M166.304 15.6627H164.548L164.883 13.9023H165.969L166.304 15.6627Z" fill="white"/>
<path d="M165.252 14.7678C165.252 14.9764 165.161 15.146 165.048 15.146C164.934 15.146 164.839 14.9764 164.839 14.7678C164.839 14.5592 164.93 14.3896 165.048 14.3896C165.165 14.3896 165.252 14.5374 165.252 14.7678Z" fill="#8C897F"/>
<path opacity="0.9" d="M165.425 23.1048C166.371 23.1048 167.138 22.3381 167.138 21.3923C167.138 20.4464 166.371 19.6797 165.425 19.6797C164.48 19.6797 163.713 20.4464 163.713 21.3923C163.713 22.3381 164.48 23.1048 165.425 23.1048Z" fill="white"/>
<path d="M172.216 15.2109H171.625V17.4712H172.216V15.2109Z" fill="#263238"/>
<path opacity="0.4" d="M172.216 15.2109H171.625V17.4712H172.216V15.2109Z" fill="white"/>
<path d="M174.484 18.4446C174.484 19.1248 174.214 19.7771 173.733 20.258C173.252 20.739 172.6 21.0091 171.92 21.0091C171.24 21.0091 170.588 20.739 170.107 20.258C169.626 19.7771 169.355 19.1248 169.355 18.4446C169.355 17.0276 170.503 16.3018 171.92 16.3018C173.337 16.3018 174.484 17.0276 174.484 18.4446Z" fill="#263238"/>
<path opacity="0.7" d="M174.484 18.4446C174.484 19.1248 174.214 19.7771 173.733 20.258C173.252 20.739 172.6 21.0091 171.92 21.0091C171.24 21.0091 170.588 20.739 170.107 20.258C169.626 19.7771 169.355 19.1248 169.355 18.4446C169.355 17.0276 170.503 16.3018 171.92 16.3018C173.337 16.3018 174.484 17.0276 174.484 18.4446Z" fill="white"/>
<path d="M174.484 18.2539H169.351V28.8118H174.484V18.2539Z" fill="#263238"/>
<path d="M174.354 18.6314H169.485C169.422 18.6314 169.359 18.6188 169.3 18.5943C169.241 18.5698 169.188 18.5338 169.143 18.4886C169.098 18.4433 169.062 18.3896 169.038 18.3306C169.014 18.2715 169.002 18.2083 169.003 18.1446C169.003 18.0166 169.054 17.8939 169.144 17.8034C169.235 17.7129 169.357 17.6621 169.485 17.6621H174.354C174.482 17.6621 174.605 17.7128 174.696 17.8032C174.788 17.8935 174.839 18.0162 174.84 18.1446C174.84 18.2085 174.828 18.2718 174.803 18.3309C174.779 18.3899 174.743 18.4436 174.698 18.4888C174.653 18.534 174.599 18.5699 174.54 18.5943C174.481 18.6188 174.418 18.6314 174.354 18.6314Z" fill="#8C897F"/>
<path opacity="0.3" d="M174.354 18.6314H169.485C169.422 18.6314 169.359 18.6188 169.3 18.5943C169.241 18.5698 169.188 18.5338 169.143 18.4886C169.098 18.4433 169.062 18.3896 169.038 18.3306C169.014 18.2715 169.002 18.2083 169.003 18.1446C169.003 18.0166 169.054 17.8939 169.144 17.8034C169.235 17.7129 169.357 17.6621 169.485 17.6621H174.354C174.482 17.6621 174.605 17.7128 174.696 17.8032C174.788 17.8935 174.839 18.0162 174.84 18.1446C174.84 18.2085 174.828 18.2718 174.803 18.3309C174.779 18.3899 174.743 18.4436 174.698 18.4888C174.653 18.534 174.599 18.5699 174.54 18.5943C174.481 18.6188 174.418 18.6314 174.354 18.6314Z" fill="white"/>
<path d="M172.801 15.6627H171.041L171.376 13.9023H172.467L172.801 15.6627Z" fill="#8C897F"/>
<path opacity="0.5" d="M172.801 15.6627H171.041L171.376 13.9023H172.467L172.801 15.6627Z" fill="white"/>
<path d="M171.75 14.7678C171.75 14.9764 171.655 15.146 171.542 15.146C171.429 15.146 171.333 14.9764 171.333 14.7678C171.333 14.5592 171.424 14.3896 171.542 14.3896C171.659 14.3896 171.75 14.5374 171.75 14.7678Z" fill="#8C897F"/>
<path opacity="0.9" d="M171.92 23.1048C172.865 23.1048 173.632 22.3381 173.632 21.3923C173.632 20.4464 172.865 19.6797 171.92 19.6797C170.974 19.6797 170.207 20.4464 170.207 21.3923C170.207 22.3381 170.974 23.1048 171.92 23.1048Z" fill="white"/>
<path d="M175.496 21.3574H165.073V30.8678H175.496V21.3574Z" fill="#263238"/>
<path opacity="0.4" d="M175.496 21.3574H165.073V30.8678H175.496V21.3574Z" fill="white"/>
<path d="M153.906 21.3574V30.8504H165.073V21.3574H153.906ZM161.8 25.791H157.179C156.891 25.791 156.615 25.6765 156.411 25.4727C156.207 25.2689 156.093 24.9925 156.093 24.7043C156.093 24.4161 156.207 24.1397 156.411 23.9359C156.615 23.7322 156.891 23.6177 157.179 23.6177H161.8C162.088 23.6177 162.364 23.7322 162.568 23.9359C162.772 24.1397 162.886 24.4161 162.886 24.7043C162.886 24.9925 162.772 25.2689 162.568 25.4727C162.364 25.6765 162.088 25.791 161.8 25.791Z" fill="#263238"/>
<path opacity="0.6" d="M153.906 21.3574V30.8504H165.073V21.3574H153.906ZM161.8 25.791H157.179C156.891 25.791 156.615 25.6765 156.411 25.4727C156.207 25.2689 156.093 24.9925 156.093 24.7043C156.093 24.4161 156.207 24.1397 156.411 23.9359C156.615 23.7322 156.891 23.6177 157.179 23.6177H161.8C162.088 23.6177 162.364 23.7322 162.568 23.9359C162.772 24.1397 162.886 24.4161 162.886 24.7043C162.886 24.9925 162.772 25.2689 162.568 25.4727C162.364 25.6765 162.088 25.791 161.8 25.791Z" fill="white"/>
<path d="M197.791 136.39L180.065 32.9839C180.008 32.6381 179.815 32.3293 179.53 32.1255C179.244 31.9217 178.89 31.8396 178.544 31.8972C178.198 31.9549 177.889 32.1475 177.686 32.4328C177.482 32.7181 177.4 33.0727 177.457 33.4186L177.662 34.6269H150.482L150.195 32.9709C150.138 32.625 149.945 32.3162 149.66 32.1125C149.374 31.9087 149.02 31.8266 148.674 31.8842C148.328 31.9418 148.019 32.1345 147.816 32.4198C147.612 32.7051 147.53 33.0597 147.587 33.4055L165.313 136.807C165.37 137.153 165.563 137.462 165.848 137.666C166.134 137.869 166.488 137.951 166.834 137.894C167.18 137.836 167.489 137.644 167.693 137.358C167.896 137.073 167.978 136.718 167.921 136.373L167.643 134.734H194.839L195.196 136.82C195.224 136.991 195.286 137.155 195.378 137.303C195.47 137.45 195.59 137.578 195.731 137.679C195.873 137.78 196.032 137.852 196.202 137.891C196.371 137.93 196.546 137.935 196.717 137.907C196.888 137.878 197.052 137.816 197.2 137.724C197.347 137.633 197.475 137.513 197.576 137.371C197.676 137.23 197.749 137.07 197.788 136.901C197.827 136.732 197.832 136.557 197.804 136.386L197.791 136.39ZM160.923 95.5317H188.12L191.114 113.027H163.922L160.923 95.5317ZM184.394 73.8247H157.202L154.203 56.3339H181.395L184.394 73.8247ZM184.755 75.9328L187.754 93.428H160.562L157.558 75.9459L184.755 75.9328ZM178.035 36.7307L181.035 54.2258H153.842L150.843 36.7307H178.035ZM167.282 132.643L164.283 115.148H191.462L194.461 132.643H167.282Z" fill="#8C897F"/>
<path opacity="0.3" d="M197.791 136.39L180.065 32.9839C180.008 32.6381 179.815 32.3293 179.53 32.1255C179.244 31.9217 178.89 31.8396 178.544 31.8972C178.198 31.9549 177.889 32.1475 177.686 32.4328C177.482 32.7181 177.4 33.0727 177.457 33.4186L177.662 34.6269H150.482L150.195 32.9709C150.138 32.625 149.945 32.3162 149.66 32.1125C149.374 31.9087 149.02 31.8266 148.674 31.8842C148.328 31.9418 148.019 32.1345 147.816 32.4198C147.612 32.7051 147.53 33.0597 147.587 33.4055L165.313 136.807C165.37 137.153 165.563 137.462 165.848 137.666C166.134 137.869 166.488 137.951 166.834 137.894C167.18 137.836 167.489 137.644 167.693 137.358C167.896 137.073 167.978 136.718 167.921 136.373L167.643 134.734H194.839L195.196 136.82C195.224 136.991 195.286 137.155 195.378 137.303C195.47 137.45 195.59 137.578 195.731 137.679C195.873 137.78 196.032 137.852 196.202 137.891C196.371 137.93 196.546 137.935 196.717 137.907C196.888 137.878 197.052 137.816 197.2 137.724C197.347 137.633 197.475 137.513 197.576 137.371C197.676 137.23 197.749 137.07 197.788 136.901C197.827 136.732 197.832 136.557 197.804 136.386L197.791 136.39ZM160.923 95.5317H188.12L191.114 113.027H163.922L160.923 95.5317ZM184.394 73.8247H157.202L154.203 56.3339H181.395L184.394 73.8247ZM184.755 75.9328L187.754 93.428H160.562L157.558 75.9459L184.755 75.9328ZM178.035 36.7307L181.035 54.2258H153.842L150.843 36.7307H178.035ZM167.282 132.643L164.283 115.148H191.462L194.461 132.643H167.282Z" fill="white"/>
<path d="M179.652 34.3494C180.072 34.3494 180.413 34.0089 180.413 33.5888C180.413 33.1687 180.072 32.8281 179.652 32.8281C179.232 32.8281 178.892 33.1687 178.892 33.5888C178.892 34.0089 179.232 34.3494 179.652 34.3494Z" fill="#8C897F"/>
<path d="M176.266 30.4375H131.079C130.298 30.4375 129.666 31.07 129.666 31.8502V33.5888C129.666 34.369 130.298 35.0014 131.079 35.0014H176.266C177.046 35.0014 177.679 34.369 177.679 33.5888V31.8502C177.679 31.07 177.046 30.4375 176.266 30.4375Z" fill="#8C897F"/>
<path opacity="0.3" d="M176.266 30.4375H131.079C130.298 30.4375 129.666 31.07 129.666 31.8502V33.5888C129.666 34.369 130.298 35.0014 131.079 35.0014H176.266C177.046 35.0014 177.679 34.369 177.679 33.5888V31.8502C177.679 31.07 177.046 30.4375 176.266 30.4375Z" fill="white"/>
<path d="M176.249 30.4375H159.801C159.626 30.4369 159.452 30.4711 159.29 30.5379C159.128 30.6048 158.98 30.703 158.856 30.8271C158.732 30.9511 158.634 31.0984 158.567 31.2606C158.5 31.4227 158.466 31.5965 158.467 31.7719V33.667C158.467 34.0209 158.607 34.3604 158.858 34.6106C159.108 34.8609 159.447 35.0015 159.801 35.0015H176.249C176.434 35.0015 176.618 34.9649 176.789 34.8938C176.96 34.8228 177.115 34.7187 177.246 34.5874C177.377 34.4562 177.481 34.3004 177.551 34.1291C177.622 33.9577 177.658 33.7741 177.657 33.5888V31.8502C177.658 31.6649 177.622 31.4813 177.551 31.3099C177.481 31.1385 177.377 30.9828 177.246 30.8515C177.115 30.7203 176.96 30.6162 176.789 30.5451C176.618 30.4741 176.434 30.4375 176.249 30.4375Z" fill="#8C897F"/>
<path d="M110.428 137.907C110.598 137.938 110.773 137.934 110.942 137.896C111.111 137.859 111.27 137.788 111.411 137.688C111.553 137.588 111.672 137.461 111.764 137.314C111.856 137.168 111.917 137.004 111.945 136.833L112.306 134.747H139.498L139.22 136.39C139.192 136.561 139.197 136.737 139.236 136.906C139.275 137.075 139.347 137.235 139.448 137.376C139.549 137.517 139.677 137.637 139.824 137.729C139.972 137.821 140.135 137.883 140.307 137.911C140.653 137.969 141.007 137.887 141.292 137.683C141.434 137.582 141.554 137.455 141.646 137.307C141.737 137.16 141.799 136.996 141.828 136.825L159.554 33.4231C159.582 33.2519 159.577 33.0767 159.537 32.9075C159.498 32.7384 159.426 32.5787 159.325 32.4374C159.224 32.2961 159.097 32.1761 158.949 32.0842C158.802 31.9923 158.638 31.9303 158.467 31.9018C158.296 31.8732 158.12 31.8787 157.951 31.9179C157.782 31.957 157.622 32.0291 157.481 32.13C157.34 32.2309 157.22 32.3587 157.128 32.506C157.036 32.6532 156.974 32.8172 156.946 32.9884L156.663 34.6445H129.466L129.675 33.4361C129.733 33.0903 129.65 32.7357 129.447 32.4504C129.243 32.1651 128.934 31.9725 128.588 31.9148C128.242 31.8572 127.888 31.9393 127.603 32.1431C127.317 32.3469 127.125 32.6556 127.067 33.0015L109.341 136.407C109.314 136.577 109.32 136.751 109.359 136.919C109.399 137.086 109.471 137.244 109.572 137.384C109.673 137.523 109.801 137.641 109.948 137.731C110.095 137.821 110.258 137.881 110.428 137.907ZM143.215 113.04H116.027L119.026 95.5449H146.218L143.215 113.04ZM125.741 56.3472H152.938L149.939 73.8379H122.746L125.741 56.3472ZM149.574 75.946L146.583 93.4412H119.386L122.386 75.946H149.574ZM156.298 36.7439L153.299 54.239H126.106L129.105 36.7439H156.298ZM112.667 132.643L115.666 115.148H142.858L139.859 132.643H112.667Z" fill="#8C897F"/>
<path opacity="0.6" d="M110.428 137.907C110.598 137.938 110.773 137.934 110.942 137.896C111.111 137.859 111.27 137.788 111.411 137.688C111.553 137.588 111.672 137.461 111.764 137.314C111.856 137.168 111.917 137.004 111.945 136.833L112.306 134.747H139.498L139.22 136.39C139.192 136.561 139.197 136.737 139.236 136.906C139.275 137.075 139.347 137.235 139.448 137.376C139.549 137.517 139.677 137.637 139.824 137.729C139.972 137.821 140.135 137.883 140.307 137.911C140.653 137.969 141.007 137.887 141.292 137.683C141.434 137.582 141.554 137.455 141.646 137.307C141.737 137.16 141.799 136.996 141.828 136.825L159.554 33.4231C159.582 33.2519 159.577 33.0767 159.537 32.9075C159.498 32.7384 159.426 32.5787 159.325 32.4374C159.224 32.2961 159.097 32.1761 158.949 32.0842C158.802 31.9923 158.638 31.9303 158.467 31.9018C158.296 31.8732 158.12 31.8787 157.951 31.9179C157.782 31.957 157.622 32.0291 157.481 32.13C157.34 32.2309 157.22 32.3587 157.128 32.506C157.036 32.6532 156.974 32.8172 156.946 32.9884L156.663 34.6445H129.466L129.675 33.4361C129.733 33.0903 129.65 32.7357 129.447 32.4504C129.243 32.1651 128.934 31.9725 128.588 31.9148C128.242 31.8572 127.888 31.9393 127.603 32.1431C127.317 32.3469 127.125 32.6556 127.067 33.0015L109.341 136.407C109.314 136.577 109.32 136.751 109.359 136.919C109.399 137.086 109.471 137.244 109.572 137.384C109.673 137.523 109.801 137.641 109.948 137.731C110.095 137.821 110.258 137.881 110.428 137.907ZM143.215 113.04H116.027L119.026 95.5449H146.218L143.215 113.04ZM125.741 56.3472H152.938L149.939 73.8379H122.746L125.741 56.3472ZM149.574 75.946L146.583 93.4412H119.386L122.386 75.946H149.574ZM156.298 36.7439L153.299 54.239H126.106L129.105 36.7439H156.298ZM112.667 132.643L115.666 115.148H142.858L139.859 132.643H112.667Z" fill="white"/>
<path d="M158.515 34.3494C158.935 34.3494 159.275 34.0089 159.275 33.5888C159.275 33.1687 158.935 32.8281 158.515 32.8281C158.094 32.8281 157.754 33.1687 157.754 33.5888C157.754 34.0089 158.094 34.3494 158.515 34.3494Z" fill="#8C897F"/>
<path d="M118.974 26.5034L121.873 30.7675L125.129 25.2646L128.749 27.3945C128.749 27.3945 125.39 34.3839 122.486 34.3491C119.582 34.3143 117.227 27.2293 117.227 27.2293C117.227 27.2293 117.313 26.147 118.974 26.5034Z" fill="#FF8B7B"/>
<path d="M111.053 96.7402L108.771 103.069L112.284 104.425L115.026 98.5919L111.053 96.7402Z" fill="#FF8B7B"/>
<path d="M115.053 104.995C115.028 104.87 114.957 104.76 114.853 104.686C114.482 104.501 114.066 104.426 113.653 104.469C113.466 104.471 113.279 104.482 113.093 104.504C112.862 104.53 112.697 104.556 112.658 104.56C112.64 104.564 112.623 104.572 112.609 104.586C112.596 104.599 112.587 104.616 112.584 104.634C112.582 104.653 112.585 104.671 112.592 104.688C112.6 104.705 112.612 104.719 112.628 104.73C112.876 104.881 113.134 105.015 113.401 105.13L113.701 105.247C114.158 105.421 114.662 105.512 114.888 105.369C114.952 105.332 115.002 105.276 115.032 105.209C115.062 105.142 115.069 105.067 115.053 104.995ZM114.814 105.221C114.597 105.364 113.914 105.156 113.319 104.886C113.197 104.834 113.08 104.778 112.971 104.721C113.054 104.706 113.138 104.696 113.223 104.691C113.677 104.636 114.137 104.658 114.583 104.756C114.64 104.775 114.693 104.803 114.74 104.838C114.774 104.857 114.804 104.884 114.825 104.917C114.847 104.949 114.861 104.986 114.866 105.025C114.892 105.178 114.849 105.199 114.814 105.221Z" fill="#8C897F"/>
<path d="M114.231 103.439C114.147 103.399 114.057 103.375 113.964 103.37C113.872 103.365 113.779 103.378 113.692 103.409C113.324 103.594 113.021 103.887 112.822 104.248C112.696 104.448 112.618 104.604 112.609 104.621C112.6 104.635 112.595 104.651 112.595 104.667C112.595 104.683 112.6 104.699 112.609 104.713C112.614 104.72 112.621 104.725 112.628 104.729C112.636 104.733 112.644 104.735 112.653 104.734H112.692C112.86 104.717 113.026 104.682 113.188 104.63C113.344 104.581 113.498 104.523 113.648 104.456C114.052 104.274 114.418 104.022 114.461 103.787C114.492 103.7 114.461 103.548 114.231 103.439ZM113.07 104.482L112.862 104.53C112.888 104.473 112.918 104.418 112.953 104.365C113.151 104.037 113.433 103.767 113.77 103.583C113.881 103.544 114.002 103.544 114.113 103.583H114.161C114.313 103.652 114.3 103.717 114.3 103.743C114.239 103.987 113.6 104.309 113.07 104.478V104.482Z" fill="#8C897F"/>
<path d="M112.462 104.078L108.442 102.57C108.368 102.542 108.288 102.541 108.214 102.565C108.139 102.59 108.076 102.639 108.033 102.704L106.094 105.699C106.053 105.762 106.024 105.833 106.01 105.907C105.996 105.981 105.997 106.057 106.012 106.131C106.027 106.205 106.057 106.275 106.1 106.338C106.142 106.4 106.196 106.453 106.26 106.495C106.294 106.517 106.33 106.536 106.368 106.551C107.824 107.064 109.137 107.46 110.941 108.133C113.066 108.924 112.432 108.977 114.918 109.942C116.418 110.52 117.33 108.911 116.722 108.59C113.936 107.138 113.962 106.143 113.223 104.678C113.049 104.393 112.779 104.18 112.462 104.078Z" fill="#263238"/>
<path opacity="0.2" d="M109.963 99.7742L113.645 101.535L115.027 98.5919L111.054 96.7402L109.963 99.7742Z" fill="#263238"/>
<path d="M132.057 102.795L132.665 109.493L136.421 109.241L136.438 102.795H132.057Z" fill="#FF8B7B"/>
<path d="M139.389 108.454C139.32 108.349 139.212 108.275 139.09 108.246C138.68 108.216 138.27 108.304 137.907 108.498C137.733 108.572 137.563 108.657 137.399 108.75C137.194 108.859 137.051 108.946 137.034 108.959C137.019 108.969 137.007 108.984 137 109.001C136.993 109.018 136.991 109.036 136.995 109.054C136.998 109.073 137.008 109.091 137.022 109.104C137.036 109.117 137.054 109.126 137.073 109.128C137.36 109.173 137.651 109.198 137.942 109.202H138.264C138.672 109.232 139.077 109.112 139.403 108.863C139.445 108.803 139.467 108.73 139.465 108.657C139.462 108.583 139.436 108.512 139.389 108.454ZM139.259 108.754C139.116 108.972 138.39 109.037 137.751 109.015C137.62 109.015 137.49 109.015 137.368 108.993L137.586 108.867C137.993 108.647 138.434 108.493 138.89 108.411C138.949 108.405 139.009 108.405 139.068 108.411C139.106 108.417 139.143 108.431 139.176 108.453C139.208 108.475 139.235 108.503 139.255 108.537C139.303 108.654 139.303 108.724 139.259 108.754Z" fill="#8C897F"/>
<path d="M138.394 107.577C138.394 107.473 138.294 107.342 138.038 107.329C137.945 107.322 137.853 107.334 137.765 107.364C137.678 107.394 137.598 107.441 137.529 107.503C137.253 107.815 137.077 108.203 137.025 108.616C136.997 108.759 136.98 108.904 136.973 109.05C136.973 109.067 136.977 109.083 136.984 109.097C136.992 109.111 137.003 109.124 137.016 109.133C137.024 109.137 137.033 109.139 137.042 109.139C137.051 109.139 137.06 109.137 137.068 109.133H137.129C137.285 109.054 137.43 108.958 137.564 108.846C137.692 108.74 137.814 108.627 137.929 108.507C138.207 108.177 138.433 107.812 138.394 107.577ZM137.364 108.733C137.303 108.776 137.246 108.82 137.19 108.855C137.19 108.79 137.19 108.729 137.212 108.668C137.268 108.288 137.426 107.931 137.668 107.633C137.754 107.553 137.868 107.508 137.985 107.507H138.038C138.203 107.507 138.216 107.581 138.224 107.607C138.255 107.833 137.794 108.394 137.364 108.733Z" fill="#8C897F"/>
<path d="M136.647 108.594L132.37 108.751C132.291 108.752 132.216 108.781 132.155 108.831C132.095 108.882 132.054 108.952 132.039 109.029L131.392 112.541C131.363 112.687 131.393 112.839 131.474 112.964C131.555 113.088 131.681 113.177 131.826 113.21C131.865 113.217 131.905 113.217 131.944 113.21C133.487 113.132 134.856 112.997 136.777 112.932C139.046 112.849 138.477 113.141 141.146 113.084C142.754 113.049 142.98 111.211 142.297 111.146C139.168 110.867 138.82 109.937 137.568 108.864C137.303 108.667 136.976 108.571 136.647 108.594Z" fill="#263238"/>
<path opacity="0.2" d="M136.438 102.795H132.057L132.374 106.294L136.429 106.181L136.438 102.795Z" fill="#263238"/>
<path d="M128.831 40.7432C128.831 40.7432 122.112 45.1637 123.22 58.1818L122.103 72.9255C122.103 72.9255 115.435 77.3938 110.128 97.9925C111.502 99.0832 113.099 99.8605 114.805 100.27L130.827 75.7508L136.76 50.2188L137.451 41.7168L128.831 40.7432Z" fill="#263238"/>
<path opacity="0.6" d="M133.787 63.0155L131.37 53.6485L127.515 51.749C127.515 51.749 127.515 70.0266 129.253 78.1808L130.835 75.7641L133.787 63.0155Z" fill="black"/>
<path d="M125.089 25.0176L128.966 27.3213C128.966 27.3213 125.615 34.5106 122.555 34.5106C119.495 34.5106 117.687 29.4816 117.687 29.4816C117.687 29.4816 118.391 28.6122 120.329 28.3167L121.838 30.5812L125.089 25.0176Z" fill="#263238"/>
<path d="M132.248 20.7617C132.248 20.7617 128.51 20.9008 126.485 22.6047C124.459 24.3086 124.15 25.3213 124.15 25.3213C124.15 25.3213 125.48 27.2643 129.458 28.3161L132.248 20.7617Z" fill="#8C897F"/>
<path opacity="0.1" d="M129.458 28.3163L130.966 24.2392L129.349 22.5918C128.351 24.1198 127.723 25.8597 127.515 27.673C128.147 27.9324 128.796 28.1474 129.458 28.3163Z" fill="black"/>
<path d="M130.431 40.7432C130.431 40.7432 124.885 46.8284 128.258 58.6903L130.636 73.6036C130.636 73.6036 127.593 87.8083 131.331 104.691C133.209 104.954 135.117 104.912 136.982 104.565L140.459 72.7734L142.198 42.3862L130.431 40.7432Z" fill="#263238"/>
<path d="M136.207 9.8947C136.189 9.88607 136.174 9.8733 136.162 9.85743C136.149 9.84156 136.141 9.82305 136.138 9.80342C136.12 9.65418 136.067 9.51131 135.983 9.3866C135.899 9.2619 135.787 9.15894 135.655 9.08623C135.641 9.08018 135.628 9.07121 135.617 9.05987C135.606 9.04854 135.598 9.0351 135.593 9.02039C135.587 9.00568 135.585 8.99003 135.586 8.97443C135.587 8.95883 135.592 8.94361 135.599 8.92975C135.605 8.91536 135.614 8.90234 135.625 8.89146C135.636 8.88057 135.65 8.87205 135.664 8.86638C135.679 8.86071 135.694 8.85801 135.71 8.85844C135.726 8.85888 135.741 8.86243 135.755 8.8689C135.923 8.9586 136.067 9.08703 136.175 9.24352C136.283 9.40001 136.352 9.58004 136.377 9.76865C136.38 9.78377 136.38 9.79938 136.377 9.81457C136.374 9.82976 136.369 9.84424 136.36 9.85716C136.352 9.87009 136.341 9.88121 136.328 9.88989C136.315 9.89857 136.301 9.90463 136.286 9.90774C136.259 9.9134 136.231 9.90875 136.207 9.8947Z" fill="#263238"/>
<path d="M135.652 10.3081C135.56 10.5429 135.365 10.6863 135.217 10.6298C135.069 10.5733 135.008 10.3342 135.1 10.0952C135.137 9.9893 135.203 9.89598 135.291 9.82567C135.152 9.72985 135.05 9.58842 135.004 9.42578L135.539 9.77351L135.591 9.80828C135.651 9.87498 135.69 9.95894 135.701 10.0485C135.712 10.1381 135.695 10.2288 135.652 10.3081Z" fill="#263238"/>
<path d="M135.691 10.7295L133.652 11.5249C133.747 11.7659 133.896 11.9814 134.088 12.1543C134.281 12.3271 134.511 12.4525 134.761 12.5203L135.691 10.7295Z" fill="#FF5652"/>
<path d="M139.932 7.16584C138.472 7.12238 137.207 7.87869 136.203 8.98273C136.16 9.0262 136.116 9.07401 136.077 9.12182L135.921 9.30438C135.79 9.46086 135.668 9.62168 135.551 9.78685C135.383 10.0193 135.226 10.2601 135.082 10.5084C134.999 10.6475 134.916 10.7866 134.843 10.9431C134.614 11.3652 134.411 11.8006 134.234 12.247C134.003 12.8429 133.825 13.4582 133.704 14.0857C133.555 14.7921 133.635 15.5277 133.934 16.1851C134.049 16.4315 134.195 16.6623 134.369 16.8718C134.481 17.0161 134.608 17.1486 134.747 17.2674C134.952 17.4565 135.177 17.624 135.416 17.7672C135.486 17.8151 135.555 17.8542 135.625 17.8933L135.855 18.0107C136.054 18.1031 136.259 18.1829 136.468 18.2497L136.755 18.3367C136.946 18.3888 137.142 18.4323 137.338 18.467L137.637 18.5105C137.983 18.5561 138.332 18.5735 138.681 18.5627C138.902 18.5627 139.115 18.5279 139.341 18.4931C139.376 18.4952 139.411 18.4952 139.446 18.4931H139.472C141.606 17.6542 142.171 16.4241 143.644 13.5945C143.963 12.9979 144.14 12.3361 144.162 11.6602C144.181 11.0869 144.087 10.5153 143.885 9.9784C143.683 9.44154 143.376 8.95002 142.983 8.53221C142.59 8.1144 142.118 7.77855 141.594 7.54404C141.071 7.30953 140.506 7.181 139.932 7.16584Z" fill="#FF8B7B"/>
<path opacity="0.2" d="M137.421 16.8454C136.694 16.7281 135.955 16.7179 135.226 16.8149C134.973 16.8369 134.718 16.7908 134.489 16.6815C134.26 16.5722 134.064 16.4037 133.922 16.1934C134.535 17.4973 136.017 18.3189 137.621 18.5188L137.864 18.2276L137.629 17.4669L137.421 16.8454Z" fill="black"/>
<path d="M139.824 22.444C139.824 22.444 138.055 21.3921 139.663 17.9931C139.663 17.9931 138.307 16.4152 136.734 16.9108C135.16 17.4063 136.177 20.7445 134.339 21.0966C134.339 21.0966 135.173 22.4744 139.824 22.444Z" fill="#FF8B7B"/>
<path d="M133.218 21.0872C133.218 21.0872 132.509 18.0446 137.056 19.3833C141.602 20.7221 141.229 23.2953 141.229 23.2953L133.218 21.0872Z" fill="#8C897F"/>
<path opacity="0.5" d="M133.218 21.0872C133.218 21.0872 132.509 18.0446 137.056 19.3833C141.602 20.7221 141.229 23.2953 141.229 23.2953L133.218 21.0872Z" fill="white"/>
<path d="M127.133 42.26C127.133 42.26 129.25 34.9663 129.067 30.2416C128.884 25.5168 127.189 19.8879 135.013 20.7746C142.837 21.6613 144.502 24.3736 144.502 28.6724C144.502 32.9712 142.307 45.1635 142.307 45.1635C142.307 45.1635 134.34 47.2499 127.133 42.26Z" fill="#8C897F"/>
<path opacity="0.1" d="M144.483 28.6769C144.504 27.7276 144.387 26.7804 144.136 25.8646L141.528 24.6562L140.059 26.8296C140.059 26.8296 142.167 31.5717 144.079 33.5103C144.301 31.9076 144.436 30.2941 144.483 28.6769Z" fill="black"/>
<path d="M147.182 26.8169C148.573 27.7834 149.912 28.8222 151.194 29.929L158.649 28.1904L160.161 26.6821L162.435 26.1736C162.572 26.1543 162.712 26.172 162.84 26.2247C162.969 26.2774 163.081 26.3632 163.165 26.4735L163.626 27.0733C163.751 27.2345 163.809 27.4384 163.786 27.6414C163.763 27.8445 163.662 28.0306 163.504 28.16C162.826 28.7532 162.064 29.2438 161.244 29.6161H159.731C159.731 29.6161 153.363 33.3542 150.82 33.1151C148.278 32.8761 144.496 30.2464 144.496 30.2464L147.182 26.8169Z" fill="#FF8B7B"/>
<path d="M147.148 26.5039C147.148 26.5039 150.443 28.9641 151.151 29.6943L157.906 28.1904C158.442 28.9226 158.852 29.7395 159.119 30.6071C159.119 30.6071 153.633 33.3107 151.134 33.3151C148.635 33.3194 144.179 30.4202 144.179 30.4202L147.148 26.5039Z" fill="#263238"/>
<path d="M140.845 22.2227C143.019 22.54 145.262 23.844 148.73 26.9127C148.73 26.9127 147.591 29.9553 145.066 31.581C145.066 31.581 143.04 30.7117 140.637 27.6343C137.725 23.9266 139.507 22.0271 140.845 22.2227Z" fill="#8C897F"/>
<path d="M145.575 14.3852C145.031 16.1401 144.67 17.9462 144.497 19.775C144.402 20.9559 144.175 22.1224 143.818 23.2523C143.703 23.6152 143.57 23.972 143.419 24.3215C143.277 24.6559 143.117 24.9823 142.94 25.2995L142.71 25.682C142.223 26.4601 141.754 27.0295 141.037 27.3077C141.368 26.8847 141.537 26.3577 141.515 25.8211C141.239 26.3868 140.865 26.899 140.411 27.3338L140.332 27.399L140.159 27.5294C139.095 27.6276 138.023 27.5154 137.003 27.199C136.664 27.1121 136.325 27.0034 135.99 26.8904C135.189 26.6101 134.404 26.285 133.639 25.9168C134.456 25.2039 134.917 23.3088 134.917 23.3088C133.952 24.8258 133.308 25.3778 132.935 25.5777C132.304 25.2517 131.913 25.017 131.913 25.017C132.896 23.9431 133.708 22.7249 134.321 21.405C134.356 21.3398 134.386 21.2702 134.417 21.2007C134.447 21.1311 134.46 21.1137 134.478 21.0703C134.495 21.0268 134.578 20.8573 134.621 20.7486C134.864 20.1879 135.082 19.6229 135.269 19.0621C135.399 18.6753 135.516 18.2884 135.621 17.9103C135.725 17.5321 135.821 17.1583 135.903 16.7932C136.11 15.9102 136.266 15.0163 136.373 14.1157C136.442 13.527 136.48 12.935 136.486 12.3423C136.486 12.1728 136.486 12.0119 136.486 11.8641C136.495 11.4956 136.541 11.1287 136.62 10.7688C136.794 9.99075 137.055 9.81254 137.055 9.81254H137.033L136.164 9.02145L136.029 8.89975C136.523 8.26176 137.195 7.78391 137.959 7.52622C137.539 7.55377 137.131 7.67889 136.767 7.89165C136.403 8.10441 136.094 8.39897 135.864 8.75197L135.06 8.13909C135.06 8.13909 136.703 3.86637 143.479 7.20457C146.17 8.47378 146.692 10.6558 145.575 14.3852Z" fill="#263238"/>
<path d="M140.128 14.3027C139.885 14.846 139.693 16.1587 139.446 17.78C139.415 18.0147 139.381 18.2538 139.341 18.5015L139.276 18.9362C139.215 19.3709 139.15 19.7794 139.076 20.2141C139.05 20.388 139.02 20.5618 138.994 20.7357C138.95 20.9791 138.907 21.2269 138.859 21.4703C138.802 21.7832 138.742 22.0962 138.676 22.4005L138.637 22.5743C138.25 24.4129 137.733 26.1212 137.003 27.1861C136.884 27.3652 136.749 27.5326 136.599 27.6859C136.255 27.599 135.916 27.4947 135.586 27.3817C135.732 27.2228 135.867 27.0543 135.99 26.8775C136.907 25.5096 137.564 23.9846 137.929 22.3787C137.929 22.3787 137.929 22.3787 137.929 22.3526C138.016 22.0223 138.098 21.6702 138.181 21.2964C138.263 20.9226 138.337 20.514 138.407 20.0881C138.407 20.0185 138.429 19.949 138.442 19.8838C138.52 19.41 138.598 18.9666 138.672 18.5494L138.894 17.3236C139.563 13.7246 139.915 12.3772 139.328 11.6078C138.672 10.7385 137.403 11.0471 136.625 10.7385C136.799 9.96044 137.059 9.78223 137.059 9.78223H137.038C137.059 9.78223 137.355 9.93001 138.876 10.1082C140.398 10.2864 140.889 12.5945 140.128 14.3027Z" fill="#8C897F"/>
<path opacity="0.6" d="M140.128 14.3027C139.885 14.846 139.694 16.1587 139.446 17.78C139.415 18.0147 139.381 18.2538 139.341 18.5015L139.276 18.9362C139.215 19.3709 139.15 19.7794 139.076 20.2141C139.05 20.388 139.02 20.5618 138.994 20.7357C138.95 20.9791 138.907 21.2269 138.859 21.4703C138.802 21.7832 138.742 22.0962 138.676 22.4005L138.637 22.5743C138.25 24.4129 137.733 26.1212 137.003 27.1861C136.664 27.0992 136.325 26.9905 135.99 26.8775C136.907 25.5096 137.564 23.9846 137.929 22.3787C137.929 22.3787 137.929 22.3787 137.929 22.3526C138.016 22.0223 138.098 21.6702 138.181 21.2964C138.264 20.9226 138.337 20.514 138.407 20.0881C138.407 20.0185 138.429 19.949 138.442 19.8838C138.52 19.41 138.598 18.9666 138.672 18.5494L138.894 17.3236C139.563 13.7246 139.915 12.3772 139.328 11.6078C138.672 10.7385 137.403 11.0471 136.625 10.7385C136.799 9.96044 137.059 9.78223 137.059 9.78223H137.038C137.06 9.78223 137.355 9.93001 138.876 10.1082C140.398 10.2864 140.889 12.5945 140.128 14.3027Z" fill="#FFC100"/>
<path d="M136.855 11.5557C136.588 11.7369 136.359 11.9691 136.181 12.2392C136.004 12.5092 135.881 12.8117 135.821 13.1292C135.669 13.9985 136.447 14.3332 137.212 14.0333C137.899 13.7682 138.803 13.0031 138.616 12.1729C138.572 11.9929 138.484 11.8268 138.359 11.6895C138.235 11.5522 138.078 11.4482 137.903 11.3869C137.728 11.3256 137.541 11.3089 137.358 11.3384C137.175 11.3679 137.002 11.4426 136.855 11.5557Z" fill="#FF8B7B"/>
<path d="M117.213 27.2684L116.053 25.3081L116.14 23.9563C116.235 22.9609 117.813 23.0478 117.813 23.0478C118.046 23.0512 118.273 23.1259 118.463 23.2619C118.652 23.3979 118.796 23.5886 118.874 23.8085L119.234 25.282L118.848 27.0989C118.848 27.0989 118.439 27.6378 117.213 27.2684Z" fill="#FF8B7B"/>
</g>
</g>
<defs>
<clipPath id="clip0_512_33997">
<rect width="210" height="140" fill="white"/>
</clipPath>
<clipPath id="clip1_512_33997">
<rect width="213" height="140" fill="white"/>
</clipPath>
</defs>
</svg>
