<svg width="210" height="140" viewBox="0 0 210 140" fill="none" xmlns="http://www.w3.org/2000/svg">
<path fill-rule="evenodd" clip-rule="evenodd" d="M165.379 105.191C149.361 116.213 130.935 125.462 108.362 127.398C84.0821 129.481 59.0058 126.277 39.7606 115.966C19.3045 105.007 5.41833 88.8583 3.40554 71.1679C1.3513 53.1133 6.68298 31.6679 29.0608 21.9264C50.1144 12.7613 75.4627 27.9631 100.396 28.9458C119.864 29.713 139.206 20.9324 156.596 26.9526C178.156 34.4165 199.034 47.2878 200.88 63.7328C202.742 80.3219 182.549 93.3749 165.379 105.191Z" fill="#FFECB2"/>
<path d="M61.4844 8.03323C61.4844 8.03323 63.8204 7.60085 64.6907 9.54377C64.6907 9.56061 64.8255 6.31493 61.4844 8.03323Z" fill="#263238"/>
<path d="M54.4648 17.208C55.3408 19.6395 56.2618 23.6264 54.7063 25.5861C55.2594 26.8797 56.2588 27.9316 57.5224 28.55C58.7861 29.1684 60.2299 29.3123 61.5907 28.9553C64.1738 28.3938 62.7138 24.3451 62.7138 24.3451C59.7377 24.1261 59.7714 22.5707 59.9847 20.5379L54.4648 17.208Z" fill="#FAC3BB"/>
<path opacity="0.2" d="M56.7164 18.5615L59.9845 20.5269C59.925 20.9999 59.91 21.4774 59.9396 21.9532C58.8165 21.9532 57.1319 21.0267 56.8567 19.9261C56.7249 19.484 56.6773 19.0211 56.7164 18.5615Z" fill="black"/>
<path d="M51.6631 11.3401C52.3144 15.5123 52.5054 17.2924 54.8133 19.3532C58.2836 22.4585 63.2363 21.0378 63.7979 16.8039C64.3594 13.0079 63.1745 6.81975 58.9406 5.31484C58.0428 4.96752 57.0687 4.86588 56.1186 5.02038C55.1685 5.17488 54.2767 5.57994 53.5353 6.19381C52.7938 6.80768 52.2295 7.60815 51.9004 8.51274C51.5713 9.41734 51.4894 10.3933 51.6631 11.3401Z" fill="#FAC3BB"/>
<path d="M58.2953 13.1874C58.3346 13.5411 58.548 13.8219 58.7782 13.8107C59.0084 13.7994 59.1544 13.5074 59.1095 13.1537C59.0646 12.7999 58.8568 12.5247 58.6322 12.5304C58.4076 12.536 58.256 12.8392 58.2953 13.1874Z" fill="#263238"/>
<path d="M62.6804 12.8673C62.7197 13.2154 62.9331 13.4962 63.1577 13.485C63.3823 13.4738 63.5339 13.1817 63.4946 12.828C63.4553 12.4742 63.2419 12.1991 63.0117 12.2103C62.7815 12.2215 62.6411 12.5248 62.6804 12.8673Z" fill="#263238"/>
<path d="M62.916 12.2329L63.719 11.9521C63.719 11.9521 63.3652 12.6316 62.916 12.2329Z" fill="#263238"/>
<path d="M61.4346 13.2949C61.8335 14.0868 62.3316 14.8246 62.917 15.4905C62.7519 15.627 62.5579 15.7242 62.3498 15.7747C62.1416 15.8253 61.9247 15.828 61.7153 15.7825L61.4346 13.2949Z" fill="#BA4D3C"/>
<path d="M57.3966 11.009C57.424 11.0101 57.4513 11.0052 57.4766 10.9945C57.5018 10.9838 57.5244 10.9676 57.5426 10.9472C57.7118 10.7614 57.9247 10.6209 58.1621 10.5385C58.3995 10.4561 58.6537 10.4344 58.9016 10.4755C58.9274 10.4821 58.9544 10.4831 58.9808 10.4786C59.0071 10.4741 59.0322 10.4641 59.0544 10.4493C59.0766 10.4345 59.0955 10.4152 59.1098 10.3926C59.1241 10.37 59.1335 10.3447 59.1374 10.3183C59.1459 10.2634 59.1332 10.2074 59.1019 10.1615C59.0706 10.1156 59.0231 10.0834 58.9689 10.0712C58.6567 10.0131 58.3349 10.034 58.0328 10.1321C57.7307 10.2302 57.458 10.4023 57.2394 10.6327C57.2023 10.6723 57.1816 10.7245 57.1816 10.7787C57.1816 10.833 57.2023 10.8852 57.2394 10.9247C57.2788 10.9723 57.3352 11.0026 57.3966 11.009Z" fill="#263238"/>
<path d="M64.0672 10.5543C64.0928 10.5542 64.118 10.5486 64.1412 10.5379C64.1645 10.5273 64.1852 10.5118 64.202 10.4925C64.2189 10.4711 64.2315 10.4466 64.239 10.4204C64.2465 10.3941 64.2487 10.3666 64.2456 10.3395C64.2425 10.3124 64.234 10.2862 64.2208 10.2623C64.2075 10.2385 64.1897 10.2175 64.1683 10.2005C63.9214 9.97679 63.6264 9.81284 63.306 9.72131C62.9857 9.62979 62.6486 9.61314 62.3208 9.67265C62.2951 9.67901 62.271 9.69065 62.2501 9.70681C62.2291 9.72298 62.2118 9.74332 62.1991 9.76655C62.1864 9.78979 62.1787 9.81541 62.1765 9.84177C62.1742 9.86814 62.1775 9.89469 62.186 9.91973C62.205 9.9721 62.242 10.0161 62.2903 10.0438C62.3386 10.0716 62.3952 10.0813 62.45 10.0713C62.7102 10.0264 62.9773 10.042 63.2305 10.117C63.4837 10.192 63.7162 10.3243 63.91 10.5037C63.9313 10.5224 63.9563 10.5366 63.9833 10.5453C64.0104 10.554 64.0389 10.557 64.0672 10.5543Z" fill="#263238"/>
<path d="M58.5361 12.5591L59.3335 12.2783C59.3335 12.2783 58.9854 12.9578 58.5361 12.5591Z" fill="#263238"/>
<path d="M53.0371 15.9624C53.0371 15.9624 54.9794 16.0969 54.8758 9.67782C54.8758 9.67782 58.3525 6.31837 62.5996 8.75035C62.5996 8.75035 65.4289 6.27538 62.5997 5.95969C62.5997 5.95969 55.2707 0.867725 49.6898 7.09968C44.1089 13.3316 54.1393 18.7261 54.1393 18.7261L53.0371 15.9624Z" fill="#263238"/>
<path d="M50.7539 15.6868C50.9971 16.0582 51.3113 16.3779 51.6784 16.6275C52.0456 16.8771 52.4585 17.0516 52.8933 17.1411C54.0164 17.3489 54.4263 16.2202 53.9771 15.1308C53.5672 14.1538 52.4946 12.8847 51.4277 13.1486C50.3608 13.4125 50.1249 14.7378 50.7539 15.6868Z" fill="#FAC3BB"/>
<path d="M61.092 17.5791C61.257 17.5685 61.4206 17.5422 61.5806 17.5005C61.5911 17.4979 61.601 17.4932 61.6097 17.4866C61.6183 17.48 61.6255 17.4717 61.6308 17.4622C61.6361 17.4527 61.6393 17.4423 61.6403 17.4314C61.6414 17.4206 61.6401 17.4097 61.6367 17.3994C61.6302 17.3774 61.6155 17.3588 61.5956 17.3473C61.5758 17.3358 61.5523 17.3324 61.53 17.3376C61.1678 17.4281 60.7898 17.4357 60.4243 17.3599C60.0587 17.2841 59.715 17.1267 59.4186 16.8996C59.4014 16.885 59.3795 16.877 59.3569 16.877C59.3343 16.877 59.3124 16.885 59.2951 16.8996C59.2793 16.9163 59.2705 16.9384 59.2705 16.9614C59.2705 16.9844 59.2793 17.0065 59.2951 17.0232C59.8042 17.4253 60.4448 17.6234 61.092 17.5791Z" fill="#263238"/>
<path d="M169.728 85.2721C167.769 83.1135 165.482 78.2269 168.928 74.3138C172.375 70.4006 171.837 78.8624 173.909 77.8053C175.98 76.7482 170.862 71.337 175.916 69.3846C180.97 67.4322 178.475 74.9821 180.729 74.3168C182.983 73.6514 178.856 66.3955 186.025 65.4742C193.193 64.5529 186.951 70.1469 189.491 70.8904C192.031 71.634 190.755 66.8085 195.655 66.2982C200.555 65.7879 202.093 69.4365 198.409 70.9244C194.725 72.4122 203.588 73.518 202.142 76.0626C200.695 78.6072 192.712 75.5313 191.487 76.3833C190.262 77.2352 198.944 78.977 197.801 80.4842C196.658 81.9915 192.583 84.7761 190.243 83.7356C187.902 82.695 185.055 79.3608 183.905 79.9408C182.756 80.5208 190.855 84.8903 189.566 85.7011C188.276 86.5118 184.189 88.4136 182.845 87.4548C181.501 86.496 178.631 82.755 177.865 83.4692C177.099 84.1834 183.961 88.5836 182.37 88.9327C180.779 89.2818 175.93 92.0891 169.728 85.2721Z" fill="white"/>
<mask id="mask0_512_34392" style="mask-type:alpha" maskUnits="userSpaceOnUse" x="3" y="19" width="198" height="109">
<path fill-rule="evenodd" clip-rule="evenodd" d="M165.379 105.191C149.361 116.213 130.935 125.462 108.362 127.398C84.0821 129.481 59.0058 126.277 39.7606 115.966C19.3045 105.007 5.41833 88.8583 3.40554 71.1679C1.3513 53.1133 6.68298 31.6679 29.0608 21.9264C50.1144 12.7613 75.4627 27.9631 100.396 28.9458C119.864 29.713 139.206 20.9324 156.596 26.9526C178.156 34.4165 199.034 47.2878 200.88 63.7328C202.742 80.3219 182.549 93.3749 165.379 105.191Z" fill="#FFECB2"/>
</mask>
<g mask="url(#mask0_512_34392)">
<path d="M39.2581 124.209H15.0054V124.349H39.2581V124.209Z" fill="#EBEBEB"/>
<path d="M47.8155 124.209H44.261V124.349H47.8155V124.209Z" fill="#EBEBEB"/>
<path d="M111.977 126.579H59.3721V126.719H111.977V126.579Z" fill="#EBEBEB"/>
<path d="M153.5 77.8529C156.105 76.9656 160.406 73.9221 159.873 68.8683C159.34 63.8145 155.302 71.3334 154.308 69.4298C153.314 67.5262 160.002 65.3868 157.239 61.237C154.477 57.0873 152.376 64.7747 151.062 63.0957C149.748 61.4167 156.639 57.2333 151.759 52.9319C146.879 48.6306 148.603 56.4808 146.306 55.8688C144.01 55.2567 147.514 51.7583 144.116 48.9226C140.719 46.0868 137.636 48.4509 139.624 51.5281C141.612 54.6053 134.379 51.208 134.121 54.0943C133.863 56.9806 141.471 58.2777 141.932 59.5917C142.392 60.9057 134.986 58.1542 135.047 59.996C135.109 61.8379 136.698 66.2235 138.978 66.4818C141.258 66.7401 145.194 65.2913 145.717 66.3414C146.239 67.3915 137.906 67.1725 138.417 68.4808C138.928 69.7892 141 73.4336 142.521 73.2764C144.043 73.1191 148.137 71.3222 148.356 72.3049C148.575 73.2876 141.09 73.6919 142.1 74.7756C143.111 75.8594 145.262 80.6493 153.5 77.8529Z" fill="#E0E0E0"/>
<path d="M169.645 85.5719C167.687 83.4133 165.4 78.5268 168.846 74.6136C172.293 70.7004 171.755 79.1622 173.826 78.1051C175.898 77.048 170.779 71.6368 175.834 69.6844C180.888 67.732 178.393 75.2819 180.647 74.6166C182.901 73.9512 178.774 66.6953 185.943 65.774C193.111 64.8528 186.869 70.4467 189.409 71.1902C191.949 71.9338 190.673 67.1083 195.573 66.598C200.472 66.0877 202.011 69.7363 198.327 71.2242C194.643 72.712 203.506 73.8178 202.06 76.3624C200.613 78.907 192.63 75.8311 191.405 76.6831C190.18 77.535 198.862 79.2768 197.719 80.784C196.576 82.2913 192.501 85.0759 190.16 84.0354C187.82 82.9948 184.973 79.6606 183.823 80.2406C182.674 80.8206 190.773 85.1901 189.483 86.0009C188.193 86.8116 184.107 88.7134 182.763 87.7546C181.418 86.7958 178.549 83.0548 177.783 83.769C177.017 84.4832 183.878 88.8834 182.288 89.2325C180.697 89.5817 175.847 92.3889 169.645 85.5719Z" fill="white"/>
<path d="M154.685 90.2387C151.445 89.1156 146.099 85.3421 146.761 79.0697C147.424 72.7973 152.444 82.1357 153.679 79.7492C154.915 77.3626 146.598 74.729 150.029 69.5685C153.46 64.408 156.077 73.9653 157.739 71.8821C159.401 69.7988 150.81 64.5821 156.869 59.2531C162.928 53.9241 160.8 63.6612 163.652 62.9031C166.505 62.145 162.153 57.7875 166.376 54.2667C170.599 50.7459 174.428 53.6771 171.991 57.5067C169.554 61.3364 178.511 57.1081 178.836 60.6907C179.162 64.2733 169.7 65.8961 169.127 67.5245C168.555 69.153 177.764 65.7445 177.679 68.0243C177.595 70.3041 175.635 75.7679 172.783 76.0879C169.93 76.408 165.056 74.6111 164.394 75.9139C163.731 77.2166 174.102 76.9471 173.462 78.5755C172.822 80.204 170.256 84.7524 168.364 84.5334C166.471 84.3144 161.361 82.102 161.114 83.3262C160.867 84.5503 170.144 85.0557 168.891 86.3978C167.639 87.7398 164.921 93.7146 154.685 90.2387Z" fill="#F0F0F0"/>
<path d="M43.4743 119.312C41.7336 118.723 38.8641 116.684 39.2179 113.309C39.5716 109.935 42.2726 114.96 42.9352 113.68C43.5978 112.4 39.1336 110.985 40.9755 108.211C42.8173 105.437 44.2268 110.569 45.1196 109.452C46.0124 108.334 41.3966 105.521 44.6535 102.663C47.9104 99.8044 46.7593 105.032 48.2923 104.628C49.8253 104.224 47.4893 101.882 49.7579 99.9841C52.0265 98.0861 54.0817 99.6697 52.7677 101.725C51.4537 103.78 56.2717 101.512 56.4402 103.409C56.6086 105.307 51.5323 106.217 51.2235 107.082C50.9147 107.947 55.8674 106.122 55.8225 107.351C55.7776 108.581 54.6994 111.512 53.1889 111.681C51.6783 111.849 49.0391 110.889 48.6966 111.591C48.3541 112.293 53.9133 112.153 53.5707 113.023C53.2282 113.893 51.8468 116.325 50.8248 116.224C49.8028 116.123 47.0681 114.915 46.9334 115.572C46.7986 116.229 51.785 116.499 51.1112 117.223C50.4374 117.948 48.9998 121.182 43.4743 119.312Z" fill="#E0E0E0"/>
<path d="M31.6368 117.488C32.9452 116.196 34.6466 113.113 32.861 110.233C31.0753 107.352 30.8282 113.04 29.6771 112.175C28.5259 111.311 31.9232 108.093 29.0594 106.397C26.1955 104.701 27.1614 109.941 25.8698 109.317C24.5783 108.694 27.5208 104.174 23.3429 103.006C19.1651 101.838 22.4726 106.055 20.9115 106.375C19.3504 106.695 20.4454 103.567 17.576 102.837C14.7065 102.107 13.5441 104.432 15.6274 105.712C17.7107 106.992 12.3761 107.043 13.0612 108.851C13.7463 110.659 18.6766 109.233 19.3504 109.89C20.0243 110.547 14.7571 111.013 15.3298 112.136C15.9026 113.259 18.1375 115.404 19.5863 114.893C21.035 114.382 22.9555 112.372 23.6012 112.849C24.247 113.327 19.1427 115.618 19.8333 116.258C20.524 116.898 22.8263 118.504 23.6967 117.942C24.5671 117.381 26.5044 115.135 26.9199 115.663C27.3355 116.19 22.9555 118.605 23.8764 118.964C24.7973 119.324 27.4927 121.559 31.6368 117.488Z" fill="#E6E6E6"/>
<path d="M39.2399 119.173C41.4074 118.437 44.9732 115.905 44.5352 111.716C44.0972 107.527 40.7392 113.765 39.9137 112.17C39.0883 110.576 44.6419 108.801 42.3508 105.37C40.0597 101.939 38.3302 108.307 37.2071 106.914C36.0841 105.522 41.8342 102.052 37.7687 98.4914C33.7031 94.9313 35.1463 101.439 33.2427 100.928C31.3391 100.417 34.2422 97.52 31.4233 95.1615C28.6044 92.8031 26.0494 94.7741 27.6835 97.3291C29.3176 99.884 23.3316 97.0595 23.1182 99.4573C22.9048 101.855 29.2165 102.933 29.5983 104.017C29.9802 105.101 23.8314 102.826 23.8875 104.354C23.9437 105.881 25.252 109.52 27.1556 109.739C29.0592 109.958 32.3162 108.751 32.771 109.621C33.2258 110.491 26.2853 110.312 26.712 111.401C27.1388 112.491 28.8515 115.506 30.1205 115.377C31.3896 115.248 34.7925 113.754 34.961 114.568C35.1294 115.382 28.9301 115.725 29.7668 116.623C30.6035 117.522 32.406 121.498 39.2399 119.173Z" fill="#F0F0F0"/>
<path d="M58.265 134.654C58.265 136.9 89.711 138.753 128.457 138.753C167.203 138.753 198.649 136.917 198.649 134.654C198.649 116.038 191.254 98.1842 178.09 85.0207C164.927 71.8571 147.073 64.4619 128.457 64.4619C109.841 64.4619 91.9873 71.8571 78.8238 85.0207C65.6602 98.1842 58.265 116.038 58.265 134.654Z" fill="#F5F5F5"/>
<path d="M58.265 134.654C58.265 136.9 89.711 138.753 128.457 138.753C167.203 138.753 198.649 136.917 198.649 134.654C198.649 116.038 191.254 98.1842 178.09 85.0207C164.927 71.8571 147.073 64.4619 128.457 64.4619C109.841 64.4619 91.9873 71.8571 78.8238 85.0207C65.6602 98.1842 58.265 116.038 58.265 134.654Z" fill="#949494"/>
<path d="M87.9473 77.3262L89.3736 77.6968C89.5529 77.9006 89.7787 78.0582 90.0319 78.1559C90.2852 78.2537 90.5583 78.2888 90.828 78.2583L97.4485 77.5283C97.7089 77.4999 97.9723 77.5326 98.2178 77.6238L103.036 79.3645C103.199 79.423 103.353 79.5063 103.491 79.6116L105.372 81.0435C105.603 81.2105 105.788 81.4334 105.909 81.6914C106.031 81.9493 106.084 82.2338 106.066 82.5183C106.047 82.8027 105.957 83.0778 105.803 83.3178C105.649 83.5578 105.437 83.7549 105.186 83.8905L104.063 84.5307L103.867 84.6598L98.2515 88.978C98.0433 89.1393 97.8748 89.3462 97.759 89.5827C97.6431 89.8193 97.583 90.0792 97.5833 90.3426V95.3964C97.5825 95.6361 97.5322 95.873 97.4356 96.0923C97.3389 96.3117 97.1981 96.5087 97.0217 96.6711L90.9515 102.185C90.7496 102.379 90.5027 102.519 90.233 102.593C89.9634 102.667 89.6796 102.673 89.4072 102.61C89.1347 102.547 88.8822 102.417 88.6725 102.232C88.4627 102.047 88.3023 101.813 88.2056 101.551L88.0709 101.197C87.9423 100.87 87.7145 100.591 87.4195 100.4L81.1247 96.2387L81.0573 96.205L75.0825 93.6219C74.9948 93.5834 74.9216 93.5181 74.8732 93.4354C74.8248 93.3527 74.8037 93.2568 74.813 93.1615C74.8209 93.0621 74.7959 92.9628 74.7418 92.879C74.6878 92.7952 74.6077 92.7315 74.5139 92.6977C74.42 92.6638 74.3177 92.6618 74.2226 92.6918C74.1275 92.7218 74.0449 92.7823 73.9876 92.8639C73.9876 92.8639 70.8486 96.0365 71.4887 97.0866C71.528 97.154 75.2679 98.9228 75.2679 98.9228C75.3529 98.9658 75.4224 99.0344 75.4664 99.1189C75.5104 99.2035 75.5267 99.2997 75.513 99.394C75.4994 99.4884 75.4564 99.576 75.3903 99.6446C75.3241 99.7132 75.2381 99.7593 75.1443 99.7764C75.1443 99.7764 70.2927 99.9111 69.0685 100.849C67.4906 102.051 65.6993 108.02 65.6993 108.02C65.659 108.109 65.6486 108.208 65.6699 108.303C65.6912 108.399 65.7429 108.484 65.8172 108.548L66.0924 108.783C66.1158 108.808 66.1446 108.827 66.1766 108.84L66.3844 108.952C66.4399 108.982 66.4886 109.023 66.5274 109.073C66.5661 109.123 66.594 109.18 66.6093 109.242C66.6246 109.303 66.627 109.367 66.6163 109.429C66.6056 109.491 66.5821 109.551 66.5472 109.603L64.3965 112.815C64.3745 112.851 64.3557 112.888 64.3404 112.928L63.0376 117.145L65.4691 119.952C65.5146 120.005 65.5478 120.067 65.5663 120.134C65.5848 120.201 65.588 120.271 65.5758 120.34L64.3909 126.286C64.3678 126.403 64.3921 126.524 64.4583 126.623C64.4583 126.623 68.7203 128.353 67.8724 132.755C67.5973 134.198 64.9861 135.299 62.3245 136.052C59.6965 135.619 58.2589 135.159 58.2589 134.676C58.2478 123.437 60.9392 112.36 66.1061 102.379C71.273 92.3978 78.7639 83.8055 87.9473 77.3262Z" fill="#37474F"/>
<path d="M87.3855 52.9559C87.3855 51.3219 88.8736 49.9349 90.9456 49.4014C92.1259 48.5111 93.5725 48.0461 95.0505 48.0818C95.4262 48.0807 95.8016 48.107 96.1735 48.1604C96.6288 47.6903 97.1784 47.3216 97.7861 47.0787C98.3938 46.8358 99.046 46.7241 99.7 46.751C101.946 46.751 103.794 48.0313 103.794 49.6148C103.768 50.0539 103.63 50.4792 103.393 50.8498C103.156 51.2204 102.828 51.5241 102.44 51.7318C102.727 51.9932 102.955 52.3129 103.108 52.6696C103.938 52.1686 104.891 51.9099 105.86 51.9227C108.106 51.9227 109.954 53.203 109.954 54.7866C109.954 55.9096 109.01 56.8923 107.646 57.3584C109.375 57.6953 110.639 58.7959 110.639 60.1099C110.639 61.6934 108.808 62.9737 106.545 62.9737C106.259 62.9733 105.974 62.9527 105.692 62.912C105.192 64.0968 103.625 64.9672 101.761 64.9672C99.7168 64.9672 98.0322 63.9227 97.7234 62.5582C97.0506 62.8369 96.3289 62.9782 95.6008 62.9737C93.3546 62.9737 91.5072 61.6934 91.5072 60.1099C91.5129 59.6691 91.6519 59.2404 91.9059 58.8801C91.6526 58.5195 91.5136 58.091 91.5072 57.6504C91.509 57.3077 91.5938 56.9705 91.7542 56.6677C89.2554 56.3251 87.3855 54.7753 87.3855 52.9559Z" fill="#FFC100"/>
<path opacity="0.2" d="M96.1296 60.3062C96.6436 60.306 97.1565 60.3511 97.6626 60.4409C98.1399 59.812 99.5774 59.3516 101.273 59.3516C102.969 59.3516 104.401 59.8064 104.878 60.4353C105.381 60.3472 105.89 60.304 106.4 60.3062C108.197 60.3062 109.696 60.8172 110.078 61.5022C109.625 61.9875 109.072 62.3689 108.458 62.6199C107.843 62.871 107.181 62.9859 106.518 62.9566C106.232 62.9562 105.947 62.9356 105.664 62.8949C105.165 64.0797 103.598 64.9501 101.734 64.9501C99.6897 64.9501 98.0051 63.9056 97.6963 62.5411C97.0236 62.8198 96.3019 62.9611 95.5737 62.9566C94.3954 62.9847 93.2466 62.5858 92.3392 61.8335C92.3448 60.9969 94.0407 60.3062 96.1296 60.3062Z" fill="#FFC100"/>
<path d="M93.9221 56.3248L90.2552 53.1185L90.4518 52.7647L94.0625 55.6454L95.6067 50.8105L96.0503 50.9509L94.5285 56.089L100.408 66.7582H100.481L103.957 60.6374C104.057 60.4629 104.12 60.2701 104.145 60.0705C104.169 59.8708 104.153 59.6683 104.097 59.475L103.311 56.7011L103.614 56.673L104.692 59.5424C104.807 59.8483 104.807 60.1856 104.692 60.4914L103.929 62.4231L106.972 60.177L107.259 60.5363L103.429 63.7034C103.429 63.7034 101.834 67.0389 101.649 68.2462C101.177 71.3796 102.149 79.4039 102.631 82.9978C102.661 83.2211 102.643 83.4481 102.577 83.6637C102.512 83.8793 102.402 84.0785 102.254 84.248C102.105 84.4176 101.923 84.5535 101.718 84.6468C101.513 84.7401 101.29 84.7886 101.065 84.7891H100.06C99.8341 84.7895 99.6111 84.7416 99.4057 84.6487C99.2003 84.5557 99.0171 84.4197 98.8687 84.25C98.7202 84.0802 98.6098 83.8806 98.545 83.6646C98.4802 83.4486 98.4625 83.2212 98.493 82.9978C98.9703 79.4208 99.9193 71.4694 99.3634 68.3978C98.7569 65.1522 93.9221 56.3248 93.9221 56.3248Z" fill="#263238"/>
<path opacity="0.2" d="M96.7693 50.8278C96.7693 50.8278 98.6785 49.7665 99.0154 51.6139C98.9761 51.6139 97.4768 52.2148 96.7693 50.8278Z" fill="#FFC100"/>
<path opacity="0.2" d="M88.0088 51.569C88.0088 51.569 89.9124 50.5077 90.2549 52.3552C90.2381 52.3552 88.7163 52.956 88.0088 51.569Z" fill="#FFC100"/>
<path opacity="0.2" d="M105.456 53.0347C105.456 53.0347 107.36 51.979 107.702 53.8264C107.685 53.8264 106.164 54.4217 105.456 53.0347Z" fill="white"/>
<path opacity="0.2" d="M102.738 54.326C102.738 54.326 103.81 52.428 105.051 53.8318C105.051 53.8318 104.063 55.1402 102.738 54.326Z" fill="white"/>
<path opacity="0.2" d="M105.438 54.2979C105.438 54.2979 107.589 54.646 106.702 56.3025C106.702 56.325 105.152 55.8252 105.438 54.2979Z" fill="white"/>
<path opacity="0.2" d="M92.8839 50.9456C92.8839 50.9456 94.2765 49.261 95.248 50.8726C95.248 50.8726 94.0463 51.9789 92.8839 50.9456Z" fill="#FFC100"/>
<path opacity="0.2" d="M96.7305 51.8721C96.7305 51.8721 98.1962 52.2595 97.4718 53.3433C97.1881 53.2332 96.9553 53.0219 96.8184 52.7501C96.6815 52.4784 96.6502 52.1655 96.7305 51.8721Z" fill="#FFC100"/>
<path opacity="0.2" d="M107.545 59.6947C107.545 59.6947 108.455 58.4818 109.185 59.5656C108.975 59.7846 108.692 59.9189 108.39 59.9427C108.087 59.9665 107.787 59.8782 107.545 59.6947Z" fill="#FFC100"/>
<path opacity="0.2" d="M102.064 58.3239C102.064 58.3239 103.563 58.1105 103.316 59.3908C103.012 59.399 102.716 59.2945 102.485 59.0976C102.254 58.9006 102.104 58.625 102.064 58.3239Z" fill="#FFC100"/>
<path opacity="0.2" d="M88.4084 54.0391C88.4084 54.0391 88.7791 52.5679 89.8684 53.2867C89.7606 53.57 89.5519 53.8035 89.2825 53.9424C89.013 54.0813 88.7018 54.1157 88.4084 54.0391Z" fill="#FFC100"/>
<path d="M82.3987 83.7959L82.6907 89.6527L83.3646 90.7982L81.9439 90.3771L80.2874 90.7982L81.2813 89.108L81.4947 83.7959H82.3987Z" fill="#263238"/>
<path d="M81.9156 73.3506L83.6058 77.023L82.7635 76.7198L84.2123 78.9659L83.0611 78.7582L84.6334 81.6725L83.6058 81.4142L85.0546 85.2439L83.4823 84.5813L83.1847 85.2439L81.9156 84.6318L79.8042 85.2439L80.2254 84.4297L78.8328 84.9407L80.4051 81.4142L79.501 82.0263L80.6465 79.2972L79.8604 79.7802L81.253 76.6187L80.5286 76.8714L81.9156 73.3506Z" fill="#37474F"/>
<path opacity="0.3" d="M81.9156 73.3506L83.6058 77.023L82.7635 76.7198L84.2123 78.9659L83.0611 78.7582L84.6334 81.6725L83.6058 81.4142L85.0546 85.2439L83.4823 84.5813L83.1847 85.2439L81.9156 84.6318L79.8042 85.2439L80.2254 84.4297L78.8328 84.9407L80.4051 81.4142L79.501 82.0263L80.6465 79.2972L79.8604 79.7802L81.253 76.6187L80.5286 76.8714L81.9156 73.3506Z" fill="#FFC100"/>
<path d="M90.1149 80.623L91.9905 84.7054L91.0527 84.3629L92.6643 86.8617L91.3896 86.6315L93.1304 89.8659L91.9905 89.5852L93.6021 93.836L91.8557 93.1004L91.5188 93.836L90.1149 93.1565L87.7621 93.836L88.2338 92.9319L86.6896 93.4991L88.436 89.5852L87.4308 90.2646L88.7055 87.2267L87.8295 87.7658L89.3737 84.2506L88.5707 84.537L90.1149 80.623Z" fill="#37474F"/>
<path d="M91.9906 89.585L92.2939 95.6102L92.9846 96.7895L91.5246 96.3571L89.8175 96.7895L90.8395 95.0487L91.0585 89.585H91.9906Z" fill="#263238"/>
<path opacity="0.3" d="M91.4963 78.8369L93.2314 82.6161L92.3611 82.3016L93.8547 84.6151L92.6755 84.4017L94.2927 87.3947L93.2314 87.1364L94.7251 91.0728L93.1079 90.3933L92.799 91.0728L91.4963 90.4439L89.3175 91.0728L89.7555 90.2305L88.3236 90.7583L89.9408 87.1364L89.0087 87.7653L90.1879 84.952L89.3793 85.4518L90.8112 82.1949L90.0644 82.4588L91.4963 78.8369Z" fill="#FFC100"/>
<path d="M119.758 109.645C130.979 118.948 141.448 127.386 150.319 134.309L154.569 132.446C154.791 132.353 154.969 132.199 155.087 131.999L160.127 123.593L163.031 123.991L171.077 121.029C171.513 120.869 172.007 120.824 172.515 120.899C173.023 120.974 173.531 121.166 173.993 121.459C174.455 121.752 174.859 122.136 175.168 122.579C175.477 123.022 175.683 123.51 175.768 124L175.841 124.433C175.889 124.711 175.899 124.986 175.87 125.25L175.184 131.128C175.166 131.281 175.207 131.448 175.3 131.598C175.394 131.748 175.533 131.872 175.694 131.948C175.854 132.025 176.027 132.049 176.18 132.016C176.334 131.983 176.459 131.896 176.534 131.769L179.315 128.446C179.352 128.402 179.392 128.355 179.429 128.311L184.228 121.486C184.394 121.253 184.514 120.987 184.584 120.699L188.104 106.096C188.212 105.656 188.201 105.174 188.07 104.692C187.939 104.21 187.694 103.741 187.354 103.326L186.237 101.965C185.857 101.496 185.37 101.112 184.829 100.853L180.64 98.8451C180.184 98.6257 179.766 98.3171 179.417 97.9429L172.368 90.4166C172.073 90.1016 171.73 89.8323 171.355 89.6232L165.234 86.2074C165.034 86.0987 164.843 85.9707 164.665 85.8257L159.368 81.5754C158.72 81.0577 158.248 80.3629 158.041 79.6245L157.358 77.0946C157.217 76.578 156.945 76.0779 156.567 75.6429C156.189 75.2079 155.719 74.8528 155.202 74.612L153.493 73.8187C153.217 73.6893 152.952 73.527 152.706 73.3363L151.904 72.7121C151.334 72.2695 150.667 71.9885 150.001 71.9101C149.334 71.8317 148.704 71.9601 148.202 72.2766L147.357 72.8158C146.838 73.1433 146.485 73.6546 146.355 74.2692C146.224 74.8838 146.323 75.5668 146.636 76.2108L147.218 77.4092C147.341 77.6682 147.434 77.9345 147.493 78.2021L147.972 80.6355L149.091 85.0889C149.133 85.2637 149.16 85.4385 149.173 85.6117L149.295 87.2791C149.324 87.6931 149.263 88.0904 149.116 88.4457C148.968 88.8011 148.737 89.1066 148.438 89.3429C148.138 89.5792 147.777 89.741 147.376 89.8182C146.975 89.8954 146.545 89.8861 146.111 89.791L142.679 89.0125C142.532 88.9794 142.386 88.9364 142.242 88.8837L141.858 88.7518C141.055 88.4644 140.336 87.904 139.855 87.1894C139.373 86.4749 139.165 85.6623 139.276 84.9241L139.757 81.7351L139.782 81.5253L139.989 78.4529C140.038 77.7136 139.782 76.9238 139.273 76.2455C138.763 75.5672 138.039 75.0516 137.249 74.8043L132.678 73.3635C132.479 73.3 132.282 73.2195 132.091 73.123L129.823 71.9765C129.096 71.6045 128.307 71.4788 127.603 71.623L123.132 72.5566C122.738 72.6171 122.378 72.758 122.073 72.9709C121.768 73.1838 121.524 73.4642 121.358 73.7954C121.191 74.1266 121.104 74.5018 121.102 74.8983C121.1 75.2949 121.183 75.7046 121.346 76.103L122.44 78.7532C122.684 79.3475 122.747 79.9625 122.622 80.5178C122.497 81.0732 122.189 81.5429 121.738 81.8656L120.844 82.5131L118.434 82.1362L122.892 90.2242L122.104 93.5493L122.711 98.1232C122.734 98.2973 122.727 98.4679 122.691 98.6281L121.662 102.802C121.647 102.859 121.636 102.918 121.631 102.979L121.109 108.261C121.076 108.619 120.899 108.923 120.614 109.114L119.758 109.645Z" fill="#37474F"/>
<path d="M159.297 91.1787L159.74 100.012L160.751 101.741L158.612 101.101L156.113 101.741L157.612 99.1918L157.932 91.1787H159.297Z" fill="#263238"/>
<path d="M158.566 75.4336L161.116 80.9759L159.841 80.5099L162.025 83.9015L160.296 83.5927L162.666 87.9783L161.116 87.5908L163.3 93.3634L160.936 92.3639L160.481 93.3634L158.566 92.4425L155.382 93.3634L156.017 92.1337L153.928 92.903L156.292 87.5908L154.928 88.5174L156.657 84.4013L155.472 85.1313L157.567 80.3583L156.472 80.7457L158.566 75.4336Z" fill="#9B8327"/>
<path d="M174.054 107.756L174.498 116.695L175.526 118.442L173.364 117.802L170.826 118.442L172.347 115.864L172.667 107.756H174.054Z" fill="#263238"/>
<path d="M173.313 91.8193L175.896 97.4291L174.605 96.9574L176.817 100.388L175.065 100.074L177.463 104.516L175.896 104.128L178.109 109.968L175.711 108.957L175.25 109.968L173.313 109.036L170.09 109.968L170.736 108.722L168.619 109.502L171.011 104.128L169.629 105.06L171.381 100.894L170.18 101.635L172.302 96.8058L171.196 97.1932L173.313 91.8193Z" fill="#9B8327"/>
<path d="M139.671 79.915L138.234 85.7719L138.952 94.9979L139.671 97.2609H135.218L136.19 89.3488L132.534 79.915H133.522L136.442 85.5809L137.666 80.9707L139.671 79.915Z" fill="#263238"/>
<path d="M125.447 76.5624C124.846 74.6082 126.154 72.4744 128.372 71.7893C128.557 71.7364 128.744 71.6933 128.934 71.6602C129.187 70.5218 129.744 69.4733 130.546 68.6268C131.348 67.7802 132.365 67.1673 133.488 66.8535C136.857 65.8258 140.282 67.3757 141.186 70.3237C141.186 70.3799 141.215 70.4417 141.231 70.4978C142.029 70.4604 142.825 70.5945 143.565 70.8911C144.306 71.1877 144.975 71.6399 145.526 72.2171C146.077 72.7943 146.498 73.4831 146.76 74.2369C147.022 74.9907 147.119 75.792 147.045 76.5866C146.971 77.3812 146.727 78.1506 146.329 78.8428C145.932 79.535 145.391 80.1339 144.743 80.599C144.094 81.0641 143.353 81.3845 142.57 81.5387C141.787 81.6929 140.98 81.6772 140.204 81.4927C139.522 81.9028 138.779 82.2004 138.003 82.3743C136.212 82.8017 134.325 82.505 132.752 81.5488C132.526 81.9307 132.169 82.2179 131.747 82.3574C130.456 82.7561 128.939 81.4927 128.322 79.5498C128.264 79.3651 128.215 79.1777 128.176 78.9882C127.546 78.8635 126.961 78.5728 126.481 78.1464C126.002 77.7199 125.644 77.1731 125.447 76.5624Z" fill="#9B8327"/>
<path d="M89.257 41.4671L85.1578 37.6318V38.5415C85.1549 38.9956 85.0344 39.4412 84.8081 39.8348C84.5817 40.2285 84.2572 40.5567 83.8662 40.7877L76.4371 45.3136V48.6267L85.4217 42.0511C85.9319 41.6839 86.5451 41.4874 87.1737 41.4896L89.257 41.4671Z" fill="#37474F"/>
<path opacity="0.5" d="M89.257 41.4671L85.1578 37.6318V38.5415C85.1549 38.9956 85.0344 39.4412 84.8081 39.8348C84.5817 40.2285 84.2572 40.5567 83.8662 40.7877L76.4371 45.3136V48.6267L85.4217 42.0511C85.9319 41.6839 86.5451 41.4874 87.1737 41.4896L89.257 41.4671Z" fill="#FFC100"/>
<path opacity="0.5" d="M79.5761 43.3867L76.4371 45.2959V48.609L79.5761 46.3067V43.3867Z" fill="black"/>
<path d="M70.0405 29.3714L70.0012 29.7477L69.9731 30.2306C69.9731 30.5563 69.9731 30.8876 69.9731 31.2189C69.9905 31.8798 70.0562 32.5386 70.1697 33.1899C70.3964 34.4626 70.851 35.6839 71.5117 36.7949C71.8457 37.3447 72.2332 37.8601 72.6685 38.3336C72.8819 38.575 73.1177 38.7996 73.3592 39.0299L73.7354 39.3555L74.0667 39.6588C74.4255 39.9999 74.8232 40.2977 75.2516 40.546C75.4129 40.6383 75.587 40.7064 75.7682 40.7482C75.8624 40.7683 75.9583 40.7796 76.0546 40.7819H76.3129C76.3129 40.7819 76.3129 40.7818 76.3129 40.8212C76.5199 40.5613 76.8216 40.3943 77.1518 40.3569C77.4819 40.3195 77.8134 40.4148 78.0733 40.6218C78.3332 40.8288 78.5002 41.1306 78.5375 41.4607C78.5749 41.7909 78.4796 42.1223 78.2726 42.3822L78.0929 42.6461C78.0424 42.7135 77.9919 42.7865 77.9413 42.8427C77.8363 42.9673 77.7238 43.0854 77.6044 43.1965C77.3632 43.4138 77.0975 43.6023 76.8126 43.758C76.2335 44.0558 75.5939 44.2172 74.9427 44.2297C73.7965 44.238 72.6673 43.9519 71.6634 43.3986C71.4444 43.2751 71.2141 43.1515 71.0064 43.0168L70.4448 42.6012C70.0645 42.309 69.699 41.9979 69.3498 41.6691C68.6442 41.0052 68.0099 40.2694 67.4575 39.4735C66.3576 37.8768 65.5934 36.0734 65.2113 34.1726C65.0199 33.2482 64.9109 32.3086 64.8856 31.3649C64.8856 30.8932 64.8856 30.4159 64.9193 29.9386C64.9193 29.7028 64.9418 29.4613 64.9867 29.2142L65.0372 28.8436C65.0372 28.7032 65.0709 28.6134 65.1159 28.4C65.2442 27.767 65.6106 27.2075 66.1394 26.8367C66.6682 26.466 67.3192 26.3123 67.958 26.4074C68.5968 26.5024 69.1747 26.839 69.5727 27.3477C69.9706 27.8563 70.1582 28.4983 70.0967 29.1412L70.0405 29.3714Z" fill="#37474F"/>
<path opacity="0.6" d="M70.0405 29.3714L70.0012 29.7477L69.9731 30.2306C69.9731 30.5563 69.9731 30.8876 69.9731 31.2189C69.9905 31.8798 70.0562 32.5386 70.1697 33.1899C70.3964 34.4626 70.851 35.6839 71.5117 36.7949C71.8457 37.3447 72.2332 37.8601 72.6685 38.3336C72.8819 38.575 73.1177 38.7996 73.3592 39.0299L73.7354 39.3555L74.0667 39.6588C74.4255 39.9999 74.8232 40.2977 75.2516 40.546C75.4129 40.6383 75.587 40.7064 75.7682 40.7482C75.8624 40.7683 75.9583 40.7796 76.0546 40.7819H76.3129C76.3129 40.7819 76.3129 40.7818 76.3129 40.8212C76.5199 40.5613 76.8216 40.3943 77.1518 40.3569C77.4819 40.3195 77.8134 40.4148 78.0733 40.6218C78.3332 40.8288 78.5002 41.1306 78.5375 41.4607C78.5749 41.7909 78.4796 42.1223 78.2726 42.3822L78.0929 42.6461C78.0424 42.7135 77.9919 42.7865 77.9413 42.8427C77.8363 42.9673 77.7238 43.0854 77.6044 43.1965C77.3632 43.4138 77.0975 43.6023 76.8126 43.758C76.2335 44.0558 75.5939 44.2172 74.9427 44.2297C73.7965 44.238 72.6673 43.9519 71.6634 43.3986C71.4444 43.2751 71.2141 43.1515 71.0064 43.0168L70.4448 42.6012C70.0645 42.309 69.699 41.9979 69.3498 41.6691C68.6442 41.0052 68.0099 40.2694 67.4575 39.4735C66.3576 37.8768 65.5934 36.0734 65.2113 34.1726C65.0199 33.2482 64.9109 32.3086 64.8856 31.3649C64.8856 30.8932 64.8856 30.4159 64.9193 29.9386C64.9193 29.7028 64.9418 29.4613 64.9867 29.2142L65.0372 28.8436C65.0372 28.7032 65.0709 28.6134 65.1159 28.4C65.2442 27.767 65.6106 27.2075 66.1394 26.8367C66.6682 26.466 67.3192 26.3123 67.958 26.4074C68.5968 26.5024 69.1747 26.839 69.5727 27.3477C69.9706 27.8563 70.1582 28.4983 70.0967 29.1412L70.0405 29.3714Z" fill="white"/>
<path d="M80.345 39.1252L80.2158 40.3044C80.1925 40.5309 80.1189 40.7492 80.0004 40.9435C79.8819 41.1378 79.7214 41.3032 79.5307 41.4275L77.7563 42.5843C77.4229 42.8096 77.0404 42.9517 76.6408 42.9986C76.2411 43.0455 75.8361 42.9958 75.4596 42.8538L75.0048 42.6741C75.089 40.72 76.5939 38.5412 76.5939 38.5412L76.9589 37.8786C77.0926 37.6067 77.3258 37.3967 77.6102 37.2922C77.8946 37.1876 78.2083 37.1965 78.4863 37.3171L79.7273 37.9292C79.9389 38.0429 80.1112 38.218 80.2214 38.4315C80.3317 38.645 80.3747 38.8868 80.345 39.1252Z" fill="#FAC3BB"/>
<path d="M65.9194 24.5588C69.0977 24.396 71.5348 26.7095 72.7309 31.5949C71.5292 33.841 66.4024 36.0591 66.4024 36.0591C66.4024 36.0591 63.2971 28.5513 65.9194 24.5588Z" fill="#FFC100"/>
<path d="M71.5012 47.9023C71.5012 47.9023 73.1521 76.0353 73.6182 89.1696C74.1123 102.955 77.9476 124.501 80.132 133.16C79.4638 133.722 76.6898 133.958 75.1231 133.778C75.1231 133.778 65.4029 113.338 64.9312 97.9015C64.8102 93.0398 64.0993 88.2108 62.8142 83.5205C55.986 59.1948 59.5012 48.7952 59.5012 48.7952L71.5012 47.9023Z" fill="#263238"/>
<path opacity="0.5" d="M63.8689 87.103C66.5306 77.7815 65.0425 60.767 65.0425 60.767L64.2732 55.292L62.2292 56.8868L58.6691 60.1886C58.9611 66.3711 60.2301 75.2321 63.8689 87.103Z" fill="black"/>
<path d="M67.4017 50.7373C67.4017 50.7373 62.6231 77.5226 60.0063 90.3986C57.2604 103.92 55.9464 125.775 56.0419 134.692C55.2557 135.102 52.5042 134.659 51.0273 134.131C51.0273 134.131 46.0128 111.417 48.9104 96.9236C49.8694 92.3088 50.2747 87.596 50.1177 82.8852C49.0844 58.245 54.4752 52.1692 54.4752 52.1692L67.4017 50.7373Z" fill="#263238"/>
<path d="M71.1634 30.444C71.5194 32.8256 71.707 35.2293 71.7249 37.6372C71.8372 41.1637 72.0113 46.3579 71.9046 52.1866L53.4357 53.2704C53.4357 48.2447 52.8742 42.6686 48.8592 31.9882C48.6434 31.3925 48.556 30.758 48.6029 30.1262C48.6497 29.4944 48.8296 28.8796 49.1308 28.3223C49.432 27.7649 49.8477 27.2776 50.3506 26.8922C50.8535 26.5069 51.4322 26.2323 52.0487 26.0865C52.7506 25.9012 53.4975 25.7271 54.2949 25.5698C56.9545 24.9672 59.6525 24.5488 62.3697 24.3176C63.257 24.2559 64.1779 24.2222 65.0595 24.2053C68.249 24.1323 70.8489 27.3499 71.1634 30.444Z" fill="#FFC100"/>
<path d="M54.5255 17.208C55.4015 19.6395 56.3224 23.6264 54.767 25.5861C55.32 26.8797 56.3195 27.9316 57.5831 28.55C58.8468 29.1684 60.2906 29.3123 61.6514 28.9553C64.2345 28.3938 62.7745 24.3451 62.7745 24.3451C59.7983 24.1261 59.832 22.5707 60.0454 20.5379L54.5255 17.208Z" fill="#FAC3BB"/>
<path opacity="0.2" d="M56.7765 18.5615L60.0447 20.5269C59.9852 20.9999 59.9702 21.4774 59.9997 21.9532C58.8767 21.9532 57.1921 21.0267 56.9169 19.9261C56.7851 19.484 56.7375 19.0211 56.7765 18.5615Z" fill="black"/>
<path d="M51.7237 11.3401C52.3751 15.5123 52.566 17.2924 54.8739 19.3532C58.3442 22.4585 63.297 21.0378 63.8585 16.8039C64.4201 13.0079 63.2352 6.81975 59.0012 5.31484C58.1035 4.96752 57.1294 4.86588 56.1792 5.02038C55.2291 5.17488 54.3374 5.57994 53.596 6.19381C52.8545 6.80768 52.2902 7.60815 51.9611 8.51274C51.632 9.41734 51.5501 10.3933 51.7237 11.3401Z" fill="#FAC3BB"/>
<path d="M63.5099 44.5326C63.4195 44.2103 63.205 43.9371 62.9133 43.7729C62.6217 43.6086 62.2768 43.5668 61.9544 43.6566H61.9039C61.0503 43.8925 60.1519 44.1564 59.2759 44.3529C58.3999 44.5494 57.5239 44.7572 56.676 44.8808C55.8996 45.017 55.1104 45.0659 54.3231 45.0268C54.0963 45.0161 53.8717 44.9765 53.6549 44.9088C53.049 43.4106 52.6705 41.8302 52.5318 40.22C52.4606 39.3347 52.44 38.446 52.4701 37.5583C52.4701 37.1147 52.5094 36.6711 52.5543 36.2331L52.6329 35.5817L52.6722 35.2729L52.7115 35.0202L52.7452 34.8068C52.8614 34.1478 52.711 33.4696 52.3272 32.9215C51.9433 32.3734 51.3574 32.0002 50.6984 31.884C50.0394 31.7679 49.3613 31.9182 48.8131 32.3021C48.265 32.6859 47.8918 33.2718 47.7756 33.9308L47.6746 34.425L47.6016 34.8574C47.5566 35.1437 47.523 35.4189 47.4949 35.7109C47.4331 36.2724 47.3938 36.834 47.377 37.3955C47.347 38.5217 47.409 39.6485 47.5623 40.7647C47.7116 41.9086 47.9653 43.0363 48.3203 44.1339C48.6731 45.2414 49.1418 46.3087 49.7186 47.3178L49.7916 47.4526C49.8544 47.562 49.9298 47.6638 50.0162 47.7558C50.6368 48.4508 51.4596 48.9339 52.369 49.1372C53.0302 49.2841 53.7094 49.3332 54.3849 49.2832C55.4859 49.1892 56.5707 48.9572 57.6137 48.5925C58.5731 48.2601 59.5109 47.8682 60.4214 47.4189C61.3109 46.9706 62.1751 46.4739 63.0101 45.9308C63.2303 45.7804 63.3973 45.564 63.4871 45.3129C63.5768 45.0617 63.5848 44.7886 63.5099 44.5326Z" fill="#37474F"/>
<path opacity="0.6" d="M63.5099 44.5326C63.4195 44.2103 63.205 43.9371 62.9133 43.7729C62.6217 43.6086 62.2768 43.5668 61.9544 43.6566H61.9039C61.0503 43.8925 60.1519 44.1564 59.2759 44.3529C58.3999 44.5494 57.5239 44.7572 56.676 44.8808C55.8996 45.017 55.1104 45.0659 54.3231 45.0268C54.0963 45.0161 53.8717 44.9765 53.6549 44.9088C53.049 43.4106 52.6705 41.8302 52.5318 40.22C52.4606 39.3347 52.44 38.446 52.4701 37.5583C52.4701 37.1147 52.5094 36.6711 52.5543 36.2331L52.6329 35.5817L52.6722 35.2729L52.7115 35.0202L52.7452 34.8068C52.8614 34.1478 52.711 33.4696 52.3272 32.9215C51.9433 32.3734 51.3574 32.0002 50.6984 31.884C50.0394 31.7679 49.3613 31.9182 48.8131 32.3021C48.265 32.6859 47.8918 33.2718 47.7756 33.9308L47.6746 34.425L47.6016 34.8574C47.5566 35.1437 47.523 35.4189 47.4949 35.7109C47.4331 36.2724 47.3938 36.834 47.377 37.3955C47.347 38.5217 47.409 39.6485 47.5623 40.7647C47.7116 41.9086 47.9653 43.0363 48.3203 44.1339C48.6731 45.2414 49.1418 46.3087 49.7186 47.3178L49.7916 47.4526C49.8544 47.562 49.9298 47.6638 50.0162 47.7558C50.6368 48.4508 51.4596 48.9339 52.369 49.1372C53.0302 49.2841 53.7094 49.3332 54.3849 49.2832C55.4859 49.1892 56.5707 48.9572 57.6137 48.5925C58.5731 48.2601 59.5109 47.8682 60.4214 47.4189C61.3109 46.9706 62.1751 46.4739 63.0101 45.9308C63.2303 45.7804 63.3973 45.564 63.4871 45.3129C63.5768 45.0617 63.5848 44.7886 63.5099 44.5326Z" fill="white"/>
<path d="M50.7578 26.6699C47.3436 28.4331 46.7597 29.8707 47.164 36.0532C49.1069 37.3672 54.638 36.6147 54.638 36.6147C54.638 36.6147 54.6661 28.7757 50.7578 26.6699Z" fill="#FFC100"/>
<path d="M66.166 41.9441L65.0429 41.6802C64.8214 41.6362 64.5928 41.6426 64.3741 41.699C64.1553 41.7554 63.9521 41.8603 63.7795 42.0059L62.0949 43.4153C61.421 43.9769 60.6798 45.5492 61.0729 46.1669C62.1005 47.8178 65.4865 45.9366 65.4865 45.9366L66.2334 45.785C66.5456 45.7291 66.8263 45.5603 67.022 45.3107C67.2178 45.0611 67.3148 44.7483 67.2947 44.4317L67.1431 42.9717C67.1119 42.7183 67.0001 42.4816 66.8242 42.2966C66.6483 42.1116 66.4175 41.988 66.166 41.9441Z" fill="#FAC3BB"/>
<path d="M69.7434 48.6094H66.0372C65.6725 48.6087 65.3119 48.5319 64.9785 48.3839C64.6451 48.2359 64.3462 48.02 64.101 47.7499C63.8558 47.4799 63.6696 47.1616 63.5544 46.8155C63.4391 46.4694 63.3973 46.1031 63.4317 45.74L64.1617 38.1199C64.2233 37.4721 64.5246 36.8705 65.0066 36.4332C65.4885 35.9959 66.1164 35.7543 66.7672 35.7559H69.7265L69.7434 48.6094ZM66.7841 37.1597C66.4828 37.1597 66.1923 37.2718 65.9691 37.4742C65.7459 37.6766 65.6061 37.9548 65.5768 38.2547L64.8299 45.8747C64.8135 46.0432 64.8325 46.2132 64.8856 46.3739C64.9388 46.5345 65.0251 46.6823 65.1388 46.8076C65.2525 46.933 65.3912 47.0331 65.5459 47.1017C65.7006 47.1702 65.868 47.2056 66.0372 47.2056H68.3395V37.1597H66.7841Z" fill="#37474F"/>
<g opacity="0.5">
<path d="M69.7434 48.6094H66.0372C65.6725 48.6087 65.3119 48.5319 64.9785 48.3839C64.6451 48.2359 64.3462 48.02 64.101 47.7499C63.8558 47.4799 63.6696 47.1616 63.5544 46.8155C63.4391 46.4694 63.3973 46.1031 63.4317 45.74L64.1617 38.1199C64.2233 37.4721 64.5246 36.8705 65.0066 36.4332C65.4885 35.9959 66.1164 35.7543 66.7672 35.7559H69.7265L69.7434 48.6094ZM66.7841 37.1597C66.4828 37.1597 66.1923 37.2718 65.9691 37.4742C65.7459 37.6766 65.6061 37.9548 65.5768 38.2547L64.8299 45.8747C64.8135 46.0432 64.8325 46.2132 64.8856 46.3739C64.9388 46.5345 65.0251 46.6823 65.1388 46.8076C65.2525 46.933 65.3912 47.0331 65.5459 47.1017C65.7006 47.1702 65.868 47.2056 66.0372 47.2056H68.3395V37.1597H66.7841Z" fill="#FFC100"/>
</g>
<path opacity="0.5" d="M66.7102 37.1709H66.7832H68.3387V47.2168H65.9578C66.135 47.7843 66.4917 48.2789 66.9741 48.6263H69.7425V35.7559H66.845L66.7102 37.1709Z" fill="black"/>
<path d="M75.7126 49.132H69.4964C69.1124 49.1314 68.7328 49.0506 68.3818 48.8948C68.0309 48.739 67.7163 48.5116 67.4584 48.2272C67.2004 47.9428 67.0047 47.6077 66.8837 47.2432C66.7628 46.8788 66.7193 46.4931 66.7561 46.1109L67.8791 34.2513C67.946 33.5706 68.2635 32.9391 68.7699 32.4794C69.2763 32.0197 69.9355 31.7646 70.6194 31.7637H75.6733C76.4045 31.7637 77.1058 32.0542 77.6228 32.5712C78.1399 33.0883 78.4304 33.7896 78.4304 34.5208V46.3748C78.4305 47.0993 78.1454 47.7947 77.6368 48.3107C77.1282 48.8266 76.437 49.1216 75.7126 49.132Z" fill="#37474F"/>
<path opacity="0.5" d="M75.7126 49.132H69.4964C69.1124 49.1314 68.7328 49.0506 68.3818 48.8948C68.0309 48.739 67.7163 48.5116 67.4584 48.2272C67.2004 47.9428 67.0047 47.6077 66.8837 47.2432C66.7628 46.8788 66.7193 46.4931 66.7561 46.1109L67.8791 34.2513C67.946 33.5706 68.2635 32.9391 68.7699 32.4794C69.2763 32.0197 69.9355 31.7646 70.6194 31.7637H75.6733C76.4045 31.7637 77.1058 32.0542 77.6228 32.5712C78.1399 33.0883 78.4304 33.7896 78.4304 34.5208V46.3748C78.4305 47.0993 78.1454 47.7947 77.6368 48.3107C77.1282 48.8266 76.437 49.1216 75.7126 49.132Z" fill="#FFC100"/>
<path d="M86.6227 38.4852C86.6227 38.4852 100.217 32.9597 99.7963 49.9967C99.7963 49.9967 99.5268 48.8736 99.2067 48.8736C98.8866 48.8736 98.5665 49.9967 98.5665 49.9967C98.5665 49.9967 98.3307 47.4024 97.64 47.3968C97.2245 47.3968 96.9662 48.3346 96.8314 49.0814C96.8199 49.1455 96.7898 49.2048 96.7448 49.2518C96.6998 49.2989 96.642 49.3317 96.5784 49.3461C96.5149 49.3604 96.4486 49.3558 96.3877 49.3327C96.3269 49.3096 96.2741 49.269 96.2362 49.2162C96.0677 48.9747 95.8712 48.7726 95.7139 48.7669C95.5645 48.7881 95.4284 48.8642 95.3321 48.9803C95.2848 49.0316 95.2224 49.0664 95.1539 49.0795C95.0854 49.0926 95.0145 49.0834 94.9516 49.0533C94.8888 49.0231 94.8372 48.9735 94.8046 48.9119C94.772 48.8502 94.7601 48.7797 94.7706 48.7108C95.0738 45.8413 95.1299 39.2938 88.9643 40.7201L86.6227 38.4852Z" fill="#37474F"/>
<path opacity="0.6" d="M86.6227 38.4852C86.6227 38.4852 100.217 32.9597 99.7963 49.9967C99.7963 49.9967 99.5268 48.8736 99.2067 48.8736C98.8866 48.8736 98.5665 49.9967 98.5665 49.9967C98.5665 49.9967 98.3307 47.4024 97.64 47.3968C97.2245 47.3968 96.9662 48.3346 96.8314 49.0814C96.8199 49.1455 96.7898 49.2048 96.7448 49.2518C96.6998 49.2989 96.642 49.3317 96.5784 49.3461C96.5149 49.3604 96.4486 49.3558 96.3877 49.3327C96.3269 49.3096 96.2741 49.269 96.2362 49.2162C96.0677 48.9747 95.8712 48.7726 95.7139 48.7669C95.5645 48.7881 95.4284 48.8642 95.3321 48.9803C95.2848 49.0316 95.2224 49.0664 95.1539 49.0795C95.0854 49.0926 95.0145 49.0834 94.9516 49.0533C94.8888 49.0231 94.8372 48.9735 94.8046 48.9119C94.772 48.8502 94.7601 48.7797 94.7706 48.7108C95.0738 45.8413 95.1299 39.2938 88.9643 40.7201L86.6227 38.4852Z" fill="white"/>
</g>
</svg>
