<svg width="210" height="140" viewBox="0 0 210 140" fill="none" xmlns="http://www.w3.org/2000/svg">
<g clip-path="url(#clip0_512_39060)">
<path fill-rule="evenodd" clip-rule="evenodd" d="M172.685 7.20898C192.859 17.7267 206.048 34.0817 207.889 53.6486C209.64 72.2617 193.847 86.1544 181.344 99.2606C170.942 110.164 126.439 129.243 110.906 131.292C95.1898 133.364 80.4403 130.058 65.7058 122.758C46.1334 113.061 10.4761 97.8715 4.72445 77.4622C-1.09423 56.8151 11.4121 29.5389 31.0877 24.4925C56.8896 17.8747 80.96 37.0917 98.028 34.7718C115.607 32.3825 143.219 -8.1532 172.685 7.20898Z" fill="#FFECB2"/>
<mask id="mask0_512_39060" style="mask-type:alpha" maskUnits="userSpaceOnUse" x="3" y="3" width="206" height="129">
<path fill-rule="evenodd" clip-rule="evenodd" d="M172.686 7.20898C192.86 17.7267 206.049 34.0817 207.889 53.6486C209.64 72.2617 193.847 86.1544 181.344 99.2606C170.942 110.164 126.439 129.243 110.906 131.292C95.19 133.364 80.4405 130.058 65.706 122.758C46.1336 113.061 10.4763 97.8715 4.7247 77.4622C-1.09398 56.8151 11.4123 29.5389 31.0879 24.4925C56.8898 17.8747 80.9603 37.0917 98.0282 34.7718C115.607 32.3825 143.22 -8.1532 172.686 7.20898Z" fill="#FFECB2"/>
</mask>
<g mask="url(#mask0_512_39060)">
<path d="M162.389 66.2652L143.022 56.5645L126.537 89.4764L145.903 99.1771L162.389 66.2652Z" fill="#C4C4C4"/>
<path opacity="0.7" d="M148.077 59.0978L143.025 56.5674L126.54 89.4793L131.591 92.0097L148.077 59.0978Z" fill="white"/>
<path opacity="0.7" d="M162.391 66.2697L157.339 63.7393L140.854 96.6512L145.905 99.1816L162.391 66.2697Z" fill="white"/>
<path opacity="0.4" d="M157.337 63.7346L148.074 59.0947L131.588 92.0066L140.851 96.6465L157.337 63.7346Z" fill="white"/>
<path d="M180.885 93.3129L123.948 64.793L114.583 83.4886L171.52 112.009L180.885 93.3129Z" fill="#C4C4C4"/>
<path opacity="0.4" d="M180.885 93.3129L123.948 64.793L114.583 83.4886L171.52 112.009L180.885 93.3129Z" fill="white"/>
<path d="M181.982 91.1195L125.045 62.5996L123.948 64.7902L180.885 93.3101L181.982 91.1195Z" fill="#C4C4C4"/>
<path opacity="0.4" d="M181.982 91.1195L125.045 62.5996L123.948 64.7902L180.885 93.3101L181.982 91.1195Z" fill="black"/>
<path d="M163.479 64.0786L144.113 54.3779L143.016 56.5685L162.382 66.2692L163.479 64.0786Z" fill="#C4C4C4"/>
<path opacity="0.4" d="M163.479 64.0786L144.113 54.3779L143.016 56.5685L162.382 66.2692L163.479 64.0786Z" fill="black"/>
<path d="M163.501 64.0853L144.125 54.3822L160.525 45.8232L163.501 64.0853Z" fill="#C4C4C4"/>
<path opacity="0.3" d="M144.125 54.3822L160.525 45.8232L147.836 56.2353L144.125 54.3822Z" fill="black"/>
<path opacity="0.3" d="M163.501 64.0853L160.525 45.8232L159.788 62.2225L163.501 64.0853Z" fill="black"/>
<path opacity="0.3" d="M152.156 58.3976L160.525 45.8232L155.745 60.2053L152.156 58.3976Z" fill="black"/>
<path opacity="0.2" d="M147.836 56.2353L160.525 45.8232L152.156 58.3976L147.836 56.2353Z" fill="black"/>
<path opacity="0.2" d="M159.788 62.2225L155.745 60.2053L160.525 45.8232L159.788 62.2225Z" fill="black"/>
<path d="M131.185 82.3166C130.738 82.0937 130.221 82.0568 129.747 82.2141C129.272 82.3713 128.88 82.7099 128.655 83.1558L125.706 89.0552L129.076 90.7462L132.014 84.8489C132.239 84.4029 132.277 83.8862 132.122 83.4117C131.966 82.9372 131.63 82.5435 131.185 82.3166Z" fill="#263238"/>
<path d="M161.389 97.4497C160.942 97.2268 160.425 97.1899 159.951 97.3472C159.477 97.5044 159.084 97.843 158.859 98.2889L155.911 104.188L159.278 105.87L162.229 99.98C162.452 99.5329 162.488 99.0158 162.331 98.5417C162.174 98.0675 161.835 97.6749 161.389 97.4497Z" fill="#263238"/>
<path d="M125.406 67.6726C125.084 67.5064 124.575 67.8508 124.278 68.4669L122.358 72.2946L123.507 72.8867L125.418 69.0611C125.755 68.4876 125.734 67.8681 125.406 67.6726Z" fill="#263238"/>
<path d="M177.204 93.6498C176.884 93.4934 176.373 93.828 176.078 94.4539L174.158 98.2816L175.307 98.8737L177.225 95.0362C177.546 94.4355 177.526 93.816 177.204 93.6498Z" fill="#263238"/>
<path d="M149.321 79.7063C148.999 79.5401 148.49 79.8845 148.194 80.5103L146.274 84.338L147.422 84.9203L149.342 81.0926C149.69 80.4759 149.67 79.8564 149.321 79.7063Z" fill="#263238"/>
<path d="M137.387 73.7044C137.065 73.5382 136.556 73.8826 136.249 74.5008L134.341 78.3361L135.488 78.9185L137.408 75.0908C137.718 74.4824 137.707 73.8608 137.387 73.7044Z" fill="#263238"/>
<path d="M163.282 86.6737C162.962 86.5173 162.451 86.8519 162.156 87.4777L160.235 91.3054L161.383 91.8877L163.303 88.0601C163.615 87.4615 163.604 86.8399 163.282 86.6737Z" fill="#263238"/>
<path d="M156.316 83.187C155.996 83.0306 155.485 83.3653 155.19 83.9911L153.27 87.8188L154.417 88.4011L156.345 84.5615C156.659 83.9727 156.638 83.3532 156.316 83.187Z" fill="#263238"/>
<path d="M170.248 90.16C169.928 90.0036 169.417 90.3382 169.112 90.9662L167.192 94.7939L168.341 95.386L170.269 91.5464C170.581 90.9478 170.57 90.3262 170.248 90.16Z" fill="#263238"/>
<path d="M143.368 76.6969C143.048 76.5405 142.537 76.8751 142.241 77.501L140.321 81.3287L141.471 81.9208L143.409 78.1301C143.73 77.4784 143.69 76.8631 143.368 76.6969Z" fill="#263238"/>
<path d="M143.603 61.296C143.272 61.1319 142.763 61.4763 142.467 62.1022L140.547 65.9299L141.695 66.5122L143.625 62.6824C143.934 62.074 143.923 61.4524 143.603 61.296Z" fill="#263238"/>
<path d="M150.753 64.876C150.421 64.7119 149.912 65.0563 149.617 65.6822L147.697 69.5098L148.844 70.0922L150.765 66.2645C151.084 65.654 151.073 65.0324 150.753 64.876Z" fill="#263238"/>
<path d="M158.098 68.5579C157.776 68.3917 157.267 68.7361 156.96 69.3543L155.052 73.1897L156.199 73.772L158.12 69.9443C158.429 69.3359 158.418 68.7143 158.098 68.5579Z" fill="#263238"/>
<path d="M131.488 70.7566C131.166 70.5905 130.657 70.9349 130.359 71.5509L128.441 75.3884L129.589 75.9707L131.509 72.143C131.828 71.5325 131.818 70.9109 131.488 70.7566Z" fill="#263238"/>
<path d="M34.1198 80.5536L21.3896 85.6436L24.4488 93.2946L37.179 88.2046L34.1198 80.5536Z" fill="#C4C4C4"/>
<path opacity="0.2" d="M34.1198 80.5536L21.3896 85.6436L24.4488 93.2946L37.179 88.2046L34.1198 80.5536Z" fill="black"/>
<path d="M75.0249 64.2048L61.4591 69.6289L64.5183 77.28L78.0841 71.8559L75.0249 64.2048Z" fill="#C4C4C4"/>
<path opacity="0.2" d="M75.0249 64.2048L61.4591 69.6289L64.5183 77.28L78.0841 71.8559L75.0249 64.2048Z" fill="black"/>
<path d="M34.0015 75.7682L31.7337 85.2239L67.2083 71.0405L58.7286 65.8838L34.0015 75.7682Z" fill="#C4C4C4"/>
<path opacity="0.1" d="M34.0015 75.7682L31.7337 85.2239L67.2083 71.0405L58.7286 65.8838L34.0015 75.7682Z" fill="black"/>
<path d="M67.2286 71.0241L31.7495 85.21L37.7565 100.234L73.2356 86.0477L67.2286 71.0241Z" fill="#C4C4C4"/>
<path opacity="0.5" d="M67.2286 71.0241L31.7495 85.21L37.7565 100.234L73.2356 86.0477L67.2286 71.0241Z" fill="white"/>
<path d="M59.7575 74.0141L53.6013 76.4756L59.6083 91.4992L65.7645 89.0378L59.7575 74.0141Z" fill="#C4C4C4"/>
<path opacity="0.3" d="M59.7575 74.0141L53.6013 76.4756L59.6083 91.4992L65.7645 89.0378L59.7575 74.0141Z" fill="white"/>
<path d="M45.3577 79.7641L39.2015 82.2256L45.2085 97.2492L51.3647 94.7878L45.3577 79.7641Z" fill="#C4C4C4"/>
<path opacity="0.3" d="M45.3577 79.7641L39.2015 82.2256L45.2085 97.2492L51.3647 94.7878L45.3577 79.7641Z" fill="white"/>
<path d="M51.1016 62.6364L39.1582 67.4248L44.7316 81.3261L56.6749 76.5377L51.1016 62.6364Z" fill="#C4C4C4"/>
<path opacity="0.4" d="M51.1016 62.6364L39.1582 67.4248L44.7316 81.3261L56.6749 76.5377L51.1016 62.6364Z" fill="white"/>
<path d="M43.5177 54.7195L37.6772 57.0547L41.0334 65.4486L46.8739 63.1134L43.5177 54.7195Z" fill="#C4C4C4"/>
<path opacity="0.2" d="M43.5177 54.7195L37.6772 57.0547L41.0334 65.4486L46.8739 63.1134L43.5177 54.7195Z" fill="black"/>
<path d="M33.5346 89.662L24.4536 93.293L28.6823 103.869L37.7633 100.238L33.5346 89.662Z" fill="#C4C4C4"/>
<path opacity="0.3" d="M33.5346 89.662L24.4536 93.293L28.6823 103.869L37.7633 100.238L33.5346 89.662Z" fill="white"/>
<path d="M78.0839 71.8505L69.0029 75.4814L73.2316 86.0574L82.3126 82.4265L78.0839 71.8505Z" fill="#C4C4C4"/>
<path opacity="0.3" d="M78.0839 71.8505L69.0029 75.4814L73.2316 86.0574L82.3126 82.4265L78.0839 71.8505Z" fill="white"/>
<path d="M36.8893 46.6448C36.1232 46.9517 35.5099 47.5497 35.1837 48.3077C34.8575 49.0658 34.8449 49.9223 35.1488 50.6896L37.7004 57.0562L43.4942 54.791L40.9524 48.4224C40.8041 48.0375 40.5809 47.686 40.2959 47.3879C40.0108 47.0899 39.6695 46.8513 39.2917 46.686C38.9138 46.5207 38.507 46.4319 38.0946 46.4249C37.6823 46.4178 37.2726 46.4925 36.8893 46.6448Z" fill="#C4C4C4"/>
<path opacity="0.3" d="M36.6046 50.7703L35.3511 51.2715L37.664 57.0562L38.9175 56.555L36.6046 50.7703Z" fill="white"/>
<path opacity="0.3" d="M41.1247 48.9756L39.8711 49.4766L42.183 55.2617L43.4366 54.7607L41.1247 48.9756Z" fill="white"/>
<path opacity="0.3" d="M38.1323 50.155L36.8788 50.6562L39.1917 56.441L40.4453 55.9398L38.1323 50.155Z" fill="white"/>
<path opacity="0.3" d="M39.6349 49.5564L38.3813 50.0576L40.6943 55.8424L41.9478 55.3412L39.6349 49.5564Z" fill="white"/>
<path d="M52.1627 84.4833C51.6146 84.7058 51.1768 85.136 50.9447 85.6801C50.7127 86.2242 50.7053 86.838 50.9241 87.3876L53.5456 93.9846L57.6982 92.3168L55.0669 85.7219C54.8445 85.1738 54.4142 84.736 53.8701 84.5039C53.326 84.2719 52.7122 84.2645 52.1627 84.4833Z" fill="#263238"/>
<path d="M39.2383 89.648C38.7894 89.913 38.4617 90.3429 38.3251 90.8459C38.1884 91.349 38.2536 91.8855 38.5067 92.3412L41.138 98.9361L44.2549 97.6848L41.6341 91.1388C41.1744 89.9487 40.1043 89.2986 39.2383 89.648Z" fill="#263238"/>
<path d="M64.7008 79.4732C64.2519 79.7382 63.9243 80.1681 63.7876 80.6711C63.651 81.1742 63.7162 81.7107 63.9693 82.1664L66.6005 88.7613L69.7174 87.51L67.0862 80.9151C66.6271 79.776 65.557 79.1259 64.7008 79.4732Z" fill="#263238"/>
<path d="M36.0131 91.0149C35.7382 91.1288 35.5187 91.3457 35.4016 91.6193C35.2844 91.8928 35.2789 92.2013 35.3862 92.4789L36.3084 94.7766L38.3896 93.9417L37.4771 91.6419C37.3632 91.367 37.1463 91.1475 36.8727 91.0304C36.5992 90.9132 36.2907 90.9077 36.0131 91.0149Z" fill="#263238"/>
<path d="M42.7123 66.5979C42.4357 66.7097 42.2145 66.9264 42.0971 67.2007C41.9796 67.475 41.9754 67.7846 42.0853 68.0619L43.0055 70.3498L45.0888 69.5247L44.1763 67.2249C44.0624 66.95 43.8455 66.7305 43.572 66.6134C43.2984 66.4962 42.9899 66.4907 42.7123 66.5979Z" fill="#263238"/>
<path d="M46.6212 65.0336C46.3463 65.1475 46.1269 65.3644 46.0097 65.638C45.8926 65.9115 45.887 66.22 45.9943 66.4976L46.9165 68.7953L49.0075 67.9583L48.0852 65.6606C47.9713 65.3857 47.7544 65.1662 47.4809 65.0491C47.2073 64.9319 46.8988 64.9264 46.6212 65.0336Z" fill="#263238"/>
<path d="M44.3417 70.6663C44.0651 70.7781 43.844 70.9948 43.7265 71.2691C43.609 71.5433 43.6048 71.8529 43.7147 72.1303L44.6349 74.4182L46.7182 73.593L45.8057 71.2933C45.6918 71.0183 45.4749 70.7989 45.2013 70.6817C44.9278 70.5646 44.6193 70.559 44.3417 70.6663Z" fill="#263238"/>
<path d="M48.2505 69.1018C47.9756 69.2157 47.7562 69.4326 47.639 69.7062C47.5219 69.9797 47.5163 70.2882 47.6236 70.5658L48.5458 72.8635L50.627 72.0286L49.7146 69.7288C49.6006 69.4539 49.3837 69.2344 49.1102 69.1173C48.8366 69.0001 48.5281 68.9946 48.2505 69.1018Z" fill="#263238"/>
<path d="M45.9892 74.7727C45.8524 74.8269 45.7276 74.9074 45.6219 75.0098C45.5162 75.1122 45.4318 75.2344 45.3733 75.3695C45.3149 75.5046 45.2837 75.6498 45.2814 75.7969C45.2791 75.944 45.3059 76.0902 45.3601 76.227L46.2824 78.5247L48.3636 77.6897L47.4532 75.3997C47.3989 75.2619 47.3178 75.1362 47.2146 75.03C47.1114 74.9237 46.9882 74.839 46.8521 74.7807C46.7159 74.7223 46.5695 74.6916 46.4214 74.6903C46.2733 74.6889 46.1264 74.7169 45.9892 74.7727Z" fill="#263238"/>
<path d="M49.8883 73.2104C49.7507 73.2645 49.6254 73.3456 49.5196 73.4488C49.4138 73.552 49.3297 73.6754 49.2722 73.8115C49.2147 73.9477 49.185 74.094 49.1848 74.2418C49.1846 74.3896 49.2139 74.536 49.2711 74.6723L50.1815 76.9623L52.2724 76.1253L51.3522 73.8373C51.298 73.6995 51.2169 73.5739 51.1137 73.4676C51.0105 73.3613 50.8873 73.2766 50.7511 73.2183C50.615 73.16 50.4686 73.1293 50.3205 73.1279C50.1723 73.1265 50.0255 73.1546 49.8883 73.2104Z" fill="#263238"/>
<path d="M68.0412 78.2151C67.7646 78.3269 67.5434 78.5436 67.426 78.8179C67.3085 79.0921 67.3043 79.4017 67.4142 79.6791L68.3344 81.967L70.4177 81.1419L69.5052 78.8421C69.3913 78.5672 69.1744 78.3477 68.9008 78.2306C68.6273 78.1134 68.3188 78.1079 68.0412 78.2151Z" fill="#263238"/>
<path d="M50.684 90.1322C54.0347 88.8106 57.3973 87.6239 60.7718 86.5719C86.6137 78.5903 114.29 78.3931 138.418 86.0187C162.547 93.6443 181.405 108.548 191.325 127.831L192.039 129.253C196.705 138.816 199.066 149.162 199.004 159.779C198.886 175.612 193.4 191.542 183.135 205.857C172.871 220.172 158.216 232.33 140.745 241.027C137.489 242.629 134.129 244.133 130.652 245.517C117.403 250.888 103.217 254.182 88.9121 255.211C74.6076 256.239 60.468 254.981 47.3094 251.508C34.1508 248.036 22.2339 242.418 12.2463 234.98C2.25877 227.541 -5.60159 218.429 -10.8811 208.169C-16.1605 197.908 -18.7545 186.704 -18.5134 175.201C-18.2724 163.698 -15.2009 152.126 -9.47631 141.151C-3.75175 130.176 4.51256 120.016 14.8396 111.258C25.1667 102.499 37.3519 95.316 50.6922 90.1223L50.684 90.1322Z" fill="#565656"/>
<g opacity="0.5">
<path d="M50.684 90.1322C54.0347 88.8106 57.3973 87.6239 60.7718 86.5719C86.6137 78.5903 114.29 78.3931 138.418 86.0187C162.547 93.6443 181.405 108.548 191.325 127.831L192.039 129.253C196.705 138.816 199.066 149.162 199.004 159.779C198.886 175.612 193.4 191.542 183.135 205.857C172.871 220.172 158.216 232.33 140.745 241.027C137.489 242.629 134.129 244.133 130.652 245.517C117.403 250.888 103.217 254.182 88.9121 255.211C74.6076 256.239 60.468 254.981 47.3094 251.508C34.1508 248.036 22.2339 242.418 12.2463 234.98C2.25877 227.541 -5.60159 218.429 -10.8811 208.169C-16.1605 197.908 -18.7545 186.704 -18.5134 175.201C-18.2724 163.698 -15.2009 152.126 -9.47631 141.151C-3.75175 130.176 4.51256 120.016 14.8396 111.258C25.1667 102.499 37.3519 95.316 50.6922 90.1223L50.684 90.1322Z" fill="#E1E1E1"/>
</g>
<path opacity="0.4" d="M5.35462 173.202C4.42706 171.786 1.77635 172.064 -0.275317 172.512L-9.50548 174.491C-9.82101 177.789 -14.1312 179.246 -17.6361 179.118C-18.3485 161.282 -12.1707 143.165 0.0548406 127.236C12.2804 111.307 29.9587 98.3422 50.6794 90.1086C54.0302 88.7871 57.3927 87.6003 60.7672 86.5483L61.0122 86.6895C63.4048 88.3084 61.9145 90.8972 61.349 93.0293C61.2364 93.5056 60.655 99.3316 61.4989 99.0699C58.7528 99.906 56.1387 101.06 53.7443 102.493C53.547 102.583 53.3944 102.729 53.32 102.899C53.2023 103.304 53.917 103.441 54.4435 103.369C55.7573 103.2 57.0346 102.813 58.3959 102.723C59.0535 102.639 59.7119 102.672 60.3237 102.82C60.9356 102.968 61.4856 103.227 61.9341 103.58C62.752 104.341 62.816 105.498 63.463 106.369C63.8952 106.88 64.4741 107.295 65.1572 107.583C65.8402 107.871 66.61 108.025 67.4099 108.034C68.9533 108.032 70.5096 107.864 72.0379 107.534C69.4705 109.869 72.7907 111.903 71.0576 114.552C70.5026 115.398 69.6288 116.474 70.4201 117.111C71.2114 117.749 72.8207 117.146 73.3351 117.875C73.7004 118.386 73.1253 119.091 72.4546 119.445C71.7449 119.723 71.077 120.075 70.4701 120.492C70.2934 120.666 70.1583 120.862 70.073 121.071C69.9876 121.28 69.9537 121.496 69.9733 121.708C69.9928 121.919 70.0654 122.121 70.1867 122.301C70.3081 122.481 70.4757 122.636 70.6796 122.757C71.5353 123.044 72.4807 123.162 73.4432 123.101C74.3892 123.173 75.4282 123.725 75.1828 124.489C75.1148 124.669 74.997 124.838 74.8386 124.982C73.7624 126.021 71.822 126.081 70.2622 125.818C68.7024 125.555 67.0474 125.135 65.5015 125.652C65.4629 125.795 65.4594 125.94 65.4913 126.078C65.5232 126.216 65.5898 126.346 65.6873 126.458C65.7847 126.57 65.911 126.663 66.0587 126.732C66.2064 126.8 66.3726 126.843 66.5474 126.857C66.796 126.842 67.0418 126.86 67.2749 126.911C67.7517 127.084 67.6654 127.635 67.5282 128.092C67.2766 129.121 67.2753 130.161 67.5245 131.151C67.7736 132.141 68.2683 133.062 68.9802 133.862C72.1274 132.799 75.2735 131.732 78.4184 130.659C78.7055 131.187 78.9153 131.497 79.7369 131.418C78.2496 134.042 76.9209 136.712 75.7559 139.418C75.6782 139.764 75.4693 140.091 75.1588 140.354C74.7689 140.539 74.3593 140.692 73.9372 140.81C72.6215 141.399 72.9689 142.923 73.5266 143.95C73.4659 144.335 72.7355 144.411 72.3728 144.198C72.0101 143.985 71.7872 143.613 71.3724 143.443C71.049 143.358 70.6927 143.352 70.346 143.426C69.9993 143.501 69.6768 143.652 69.4169 143.863C68.4685 144.588 67.8737 145.557 67.7591 146.563C67.6445 147.569 68.0191 148.534 68.8031 149.251C68.9869 149.424 69.2369 149.542 69.5201 149.59C70.1579 149.655 70.7042 149.151 71.2773 148.866C73.5731 147.744 74.0156 149.951 73.8074 151.126C73.5353 152.719 71.52 154.338 69.9427 155.233C68.1196 156.27 55.531 162.571 59.0522 165.257C59.4074 165.488 59.8622 165.607 60.3416 165.594C61.7898 165.622 63.1967 164.982 64.6592 164.886C66.1216 164.79 67.8392 165.407 67.631 166.582C67.5477 167.053 67.1707 167.489 67.0434 167.944C66.7084 169.243 68.4043 170.236 68.3057 171.541C68.156 172.136 67.9395 172.723 67.6591 173.295C67.4914 173.896 67.7123 174.641 68.44 174.743C69.1676 174.845 69.9919 174.063 70.8253 174.086C71.0288 174.12 71.2139 174.195 71.3647 174.304C71.5155 174.413 71.6273 174.553 71.6904 174.711C71.7536 174.869 71.7662 175.041 71.7272 175.212C71.6882 175.384 71.5987 175.548 71.4664 175.693C71.1607 175.97 70.7694 176.177 70.3406 176.288C69.9118 176.398 69.4643 176.408 69.0533 176.315C68.6367 176.19 68.1794 176.15 67.719 176.198C66.9172 176.37 66.5642 177.156 66.3772 177.81L65.4643 180.945C65.0928 181.026 64.7106 181.018 64.3659 180.922C64.0213 180.827 63.7298 180.647 63.5285 180.407C63.0753 179.963 62.8028 179.408 62.322 178.978C60.0095 176.922 55.2554 178.79 54.5638 175.183C54.8943 175.09 55.2006 174.938 55.4579 174.738C55.7153 174.539 55.9164 174.297 56.0451 174.034C56.1738 173.771 56.2265 173.492 56.1988 173.222C56.1711 172.951 56.0639 172.696 55.8858 172.477C54.9056 171.435 52.326 171.52 52.1602 170.175C52.1115 169.709 52.4148 169.216 52.3252 168.75C52.101 167.466 49.5434 167.796 48.4102 167.854C44.6569 168.045 45.1063 169.854 42.1939 170.915C40.8648 171.394 39.3749 171.075 37.9914 171.396C36.6079 171.717 35.6483 172.488 34.3839 172.84C30.9151 173.786 31.2099 169.628 30.8475 167.986C29.3881 169.526 26.5072 169.207 24.5444 168.401C21.5366 167.156 21.8832 167.437 18.8789 168.307C18.4883 168.437 18.0711 168.481 17.6731 168.434C17.2752 168.387 16.9117 168.251 16.6227 168.04C15.6858 167.248 16.4542 165.823 16.061 164.753C15.8799 164.242 15.4318 163.822 15.2899 163.303C14.9315 161.918 16.7719 160.676 17.5928 159.353C17.9666 158.766 18.1671 158.129 18.1773 157.496C18.1875 156.862 18.007 156.251 17.6512 155.714C16.7582 155.954 15.8972 156.285 15.0908 156.7L14.4574 159.516C14.3439 160.349 13.9986 161.169 13.4475 161.913C13.0391 162.275 12.698 162.68 12.4371 163.115C12.0551 164.005 12.9513 164.798 13.4382 165.59C14.6104 167.527 14.6359 171.414 14.7899 173.658C14.9444 176.048 13.426 177.504 13.5456 179.731C13.5323 179.829 13.493 179.925 13.4306 180.014C13.3682 180.102 13.284 180.181 13.1839 180.243C13.0838 180.306 12.9701 180.352 12.8505 180.378C12.7309 180.404 12.6083 180.409 12.4911 180.393C12.0209 180.305 11.6314 180.067 11.4077 179.729C10.817 178.987 10.5756 178.079 10.7227 177.155C10.5194 178.353 6.18795 176.754 5.79678 176.313C5.1503 175.588 5.34148 174.19 5.02398 173.33C4.12026 171.214 2.98862 170.229 0.799988 172.709C-0.0122235 173.691 -1.15174 174.815 -2.50412 174.661C-2.53553 174.335 -2.70596 174.037 -2.98719 173.819C-3.26843 173.6 -3.64361 173.473 -4.05069 173.459C-4.87219 173.456 -5.69874 173.67 -6.40514 174.068C-6.92295 174.28 -7.34602 174.629 -7.59571 175.051C-7.67022 175.286 -7.77496 175.517 -7.9082 175.739C-8.45885 176.415 -9.67365 175.948 -10.3227 175.45" fill="#565656"/>
<path opacity="0.4" d="M106.058 138.364C105.542 138.106 104.948 137.95 104.322 137.909C103.695 137.867 103.051 137.94 102.437 138.123C101.728 138.437 101.037 138.782 100.368 139.156C100.03 139.34 99.644 139.449 99.2534 139.472C98.8628 139.494 98.4827 139.429 98.1554 139.283C97.3842 138.835 97.5621 137.852 97.8009 137.058C97.9092 136.398 98.3138 135.771 98.9367 135.296C99.4784 135.069 100.032 134.864 100.595 134.682C101.653 134.18 102.043 133.136 102.514 132.235C102.986 131.335 103.963 130.358 105.111 130.467C105.863 130.54 106.39 131.089 107.129 131.197C108.952 131.444 110.182 129.218 111.853 129.377C113.776 129.57 113.987 131.842 113.763 133.231C113.373 134.643 112.664 136.009 111.671 137.257C109.251 140.853 109.431 139.878 106.058 138.364Z" fill="#565656"/>
<path opacity="0.4" d="M144.651 88.216C165.877 95.5352 182.573 110.771 191.344 127.827L192.058 129.249C189.902 132.788 184.268 136.418 180.852 132.411C180.219 132.652 180.2 132.995 179.825 133.439C179.227 134.132 177.869 133.858 177.209 133.354C174.933 131.613 173.651 128.924 169.978 130.778C165.603 132.984 169.369 133.517 168.635 136.008C168.476 136.36 168.263 136.699 168.002 137.016C167.245 138.252 167.937 139.622 168.634 140.773C168.829 140.619 169.057 140.496 169.304 140.412C169.552 140.328 169.813 140.284 170.072 140.284C170.331 140.284 170.583 140.327 170.81 140.41C171.038 140.494 171.237 140.616 171.395 140.77C171.552 141.051 171.786 141.295 172.08 141.487C172.792 141.803 173.705 141.001 173.724 140.327C173.596 139.662 173.425 139.006 173.21 138.362C173.138 137.691 173.774 136.795 174.595 136.902C174.933 136.971 175.216 137.14 175.392 137.377C175.807 137.846 176.063 138.401 176.139 138.994C176.214 139.587 176.107 140.201 175.825 140.781C176.246 140.733 176.66 140.8 177 140.971C177.341 141.142 177.589 141.407 177.703 141.723C177.817 142.039 177.79 142.388 177.628 142.712C177.466 143.036 177.178 143.317 176.809 143.509C175.753 144.067 173.923 144.072 173.796 145.052C173.731 144.663 173.532 144.307 173.222 144.022C172.912 143.737 172.503 143.534 172.038 143.434C168.363 142.704 162.191 146.402 160.922 141.199C160.821 140.342 160.657 139.495 160.429 138.664C160.302 138.251 160.005 137.896 159.583 137.655C159.162 137.414 158.64 137.3 158.098 137.331C159.475 135.598 157.781 133.183 159.355 131.554C159.736 131.174 160.25 130.896 160.818 130.763C161.385 130.63 161.973 130.648 162.49 130.817C162.647 130.893 162.828 130.937 163.019 130.946C163.411 130.918 163.639 130.546 163.979 130.368C164.576 130.054 165.324 130.395 165.991 130.211C166.908 129.958 167.071 128.954 166.963 128.21C166.854 127.466 166.757 126.534 167.525 126.063C167.798 125.907 168.131 125.836 168.403 125.673C168.658 125.49 168.847 125.255 168.945 124.998C169.043 124.741 169.046 124.473 168.952 124.23C168.753 123.746 168.426 123.31 167.993 122.95C167.506 122.78 166.898 123.185 166.659 123.599C166.488 124.04 166.28 124.473 166.037 124.896C165.858 125.112 160.315 126.543 160.603 126.788C159.233 125.596 157.577 122.551 155.101 124.261C154.209 124.872 153.369 125.723 152.314 125.812C153.196 126.68 154.07 127.559 154.932 128.48C154.632 128.892 153.847 128.713 153.516 128.364C153.186 128.015 152.97 127.536 152.424 127.419C152.033 127.373 151.622 127.436 151.255 127.597C150.007 128.026 148.768 128.446 147.53 128.873C146.292 129.3 144.596 129.784 143.433 129.226C142.27 128.668 142.092 126.978 142.769 125.751C142.898 125.63 142.988 125.486 143.029 125.334C143.07 125.183 143.061 125.03 143.002 124.89C142.944 124.75 142.839 124.629 142.698 124.539C142.557 124.449 142.384 124.394 142.199 124.379C141.358 124.135 140.621 123.727 140.049 123.188C139.477 122.65 139.085 121.996 138.906 121.282C138.767 120.558 138.963 119.792 139.46 119.126C139.956 118.46 140.719 117.938 141.607 117.658C142.301 117.509 143.207 117.396 143.474 116.83C143.618 116.5 143.451 116.1 143.766 115.854C144.082 115.609 144.72 115.868 145.16 116.056C145.568 116.22 146.047 116.262 146.519 116.174C146.99 116.086 147.426 115.874 147.756 115.572C148.088 115.259 148.165 111.851 147.671 111.553C146.537 110.794 143.135 112.34 141.737 112.736C141.477 112.84 141.199 112.903 140.918 112.922C140.638 112.94 140.361 112.914 140.104 112.844C139.361 112.527 139.5 111.601 139.935 110.959C140.37 110.316 141.048 109.71 141.111 109.002C141.118 108.594 141.016 108.197 140.81 107.839C140.702 107.442 140.494 107.074 140.198 106.758C139.901 106.441 139.523 106.182 139.085 105.997C138.641 105.882 138.134 105.902 137.7 105.785C137.221 105.599 136.829 105.303 136.569 104.931C136.308 104.559 136.189 104.125 136.226 103.678C136.19 102.798 136.456 101.893 136.331 101.023C136.077 99.1718 134.135 97.6986 134.38 95.7887C134.501 94.8744 135.576 93.8284 136.607 94.1078C137.639 94.3873 137.916 95.4423 138.894 95.2326C139.872 95.0229 140.239 92.9173 140.842 92.3438C141.445 91.7703 142.68 91.9496 143.512 90.9637C144.175 90.1917 143.92 89.0512 144.651 88.216Z" fill="#565656"/>
<path opacity="0.7" d="M5.35462 173.202C4.42706 171.786 1.77635 172.064 -0.275317 172.512L-9.50548 174.491C-9.82101 177.789 -14.1312 179.246 -17.6361 179.118C-18.3485 161.282 -12.1707 143.165 0.0548406 127.236C12.2804 111.307 29.9587 98.3422 50.6794 90.1086C54.0302 88.7871 57.3927 87.6003 60.7672 86.5483L61.0122 86.6895C63.4048 88.3084 61.9145 90.8972 61.349 93.0293C61.2364 93.5056 60.655 99.3316 61.4989 99.0699C58.7528 99.906 56.1387 101.06 53.7443 102.493C53.547 102.583 53.3944 102.729 53.32 102.899C53.2023 103.304 53.917 103.441 54.4435 103.369C55.7573 103.2 57.0346 102.813 58.3959 102.723C59.0535 102.639 59.7119 102.672 60.3237 102.82C60.9356 102.968 61.4856 103.227 61.9341 103.58C62.752 104.341 62.816 105.498 63.463 106.369C63.8952 106.88 64.4741 107.295 65.1572 107.583C65.8402 107.871 66.61 108.025 67.4099 108.034C68.9533 108.032 70.5096 107.864 72.0379 107.534C69.4705 109.869 72.7907 111.903 71.0576 114.552C70.5026 115.398 69.6288 116.474 70.4201 117.111C71.2114 117.749 72.8207 117.146 73.3351 117.875C73.7004 118.386 73.1253 119.091 72.4546 119.445C71.7449 119.723 71.077 120.075 70.4701 120.492C70.2934 120.666 70.1583 120.862 70.073 121.071C69.9876 121.28 69.9537 121.496 69.9733 121.708C69.9928 121.919 70.0654 122.121 70.1867 122.301C70.3081 122.481 70.4757 122.636 70.6796 122.757C71.5353 123.044 72.4807 123.162 73.4432 123.101C74.3892 123.173 75.4282 123.725 75.1828 124.489C75.1148 124.669 74.997 124.838 74.8386 124.982C73.7624 126.021 71.822 126.081 70.2622 125.818C68.7024 125.555 67.0474 125.135 65.5015 125.652C65.4629 125.795 65.4594 125.94 65.4913 126.078C65.5232 126.216 65.5898 126.346 65.6873 126.458C65.7847 126.57 65.911 126.663 66.0587 126.732C66.2064 126.8 66.3726 126.843 66.5474 126.857C66.796 126.842 67.0418 126.86 67.2749 126.911C67.7517 127.084 67.6654 127.635 67.5282 128.092C67.2766 129.121 67.2753 130.161 67.5245 131.151C67.7736 132.141 68.2683 133.062 68.9802 133.862C72.1274 132.799 75.2735 131.732 78.4184 130.659C78.7055 131.187 78.9153 131.497 79.7369 131.418C78.2496 134.042 76.9209 136.712 75.7559 139.418C75.6782 139.764 75.4693 140.091 75.1588 140.354C74.7689 140.539 74.3593 140.692 73.9372 140.81C72.6215 141.399 72.9689 142.923 73.5266 143.95C73.4659 144.335 72.7355 144.411 72.3728 144.198C72.0101 143.985 71.7872 143.613 71.3724 143.443C71.049 143.358 70.6927 143.352 70.346 143.426C69.9993 143.501 69.6768 143.652 69.4169 143.863C68.4685 144.588 67.8737 145.557 67.7591 146.563C67.6445 147.569 68.0191 148.534 68.8031 149.251C68.9869 149.424 69.2369 149.542 69.5201 149.59C70.1579 149.655 70.7042 149.151 71.2773 148.866C73.5731 147.744 74.0156 149.951 73.8074 151.126C73.5353 152.719 71.52 154.338 69.9427 155.233C68.1196 156.27 55.531 162.571 59.0522 165.257C59.4074 165.488 59.8622 165.607 60.3416 165.594C61.7898 165.622 63.1967 164.982 64.6592 164.886C66.1216 164.79 67.8392 165.407 67.631 166.582C67.5477 167.053 67.1707 167.489 67.0434 167.944C66.7084 169.243 68.4043 170.236 68.3057 171.541C68.156 172.136 67.9395 172.723 67.6591 173.295C67.4914 173.896 67.7123 174.641 68.44 174.743C69.1676 174.845 69.9919 174.063 70.8253 174.086C71.0288 174.12 71.2139 174.195 71.3647 174.304C71.5155 174.413 71.6273 174.553 71.6904 174.711C71.7536 174.869 71.7662 175.041 71.7272 175.212C71.6882 175.384 71.5987 175.548 71.4664 175.693C71.1607 175.97 70.7694 176.177 70.3406 176.288C69.9118 176.398 69.4643 176.408 69.0533 176.315C68.6367 176.19 68.1794 176.15 67.719 176.198C66.9172 176.37 66.5642 177.156 66.3772 177.81L65.4643 180.945C65.0928 181.026 64.7106 181.018 64.3659 180.922C64.0213 180.827 63.7298 180.647 63.5285 180.407C63.0753 179.963 62.8028 179.408 62.322 178.978C60.0095 176.922 55.2554 178.79 54.5638 175.183C54.8943 175.09 55.2006 174.938 55.4579 174.738C55.7153 174.539 55.9164 174.297 56.0451 174.034C56.1738 173.771 56.2265 173.492 56.1988 173.222C56.1711 172.951 56.0639 172.696 55.8858 172.477C54.9056 171.435 52.326 171.52 52.1602 170.175C52.1115 169.709 52.4148 169.216 52.3252 168.75C52.101 167.466 49.5434 167.796 48.4102 167.854C44.6569 168.045 45.1063 169.854 42.1939 170.915C40.8648 171.394 39.3749 171.075 37.9914 171.396C36.6079 171.717 35.6483 172.488 34.3839 172.84C30.9151 173.786 31.2099 169.628 30.8475 167.986C29.3881 169.526 26.5072 169.207 24.5444 168.401C21.5366 167.156 21.8832 167.437 18.8789 168.307C18.4883 168.437 18.0711 168.481 17.6731 168.434C17.2752 168.387 16.9117 168.251 16.6227 168.04C15.6858 167.248 16.4542 165.823 16.061 164.753C15.8799 164.242 15.4318 163.822 15.2899 163.303C14.9315 161.918 16.7719 160.676 17.5928 159.353C17.9666 158.766 18.1671 158.129 18.1773 157.496C18.1875 156.862 18.007 156.251 17.6512 155.714C16.7582 155.954 15.8972 156.285 15.0908 156.7L14.4574 159.516C14.3439 160.349 13.9986 161.169 13.4475 161.913C13.0391 162.275 12.698 162.68 12.4371 163.115C12.0551 164.005 12.9513 164.798 13.4382 165.59C14.6104 167.527 14.6359 171.414 14.7899 173.658C14.9444 176.048 13.426 177.504 13.5456 179.731C13.5323 179.829 13.493 179.925 13.4306 180.014C13.3682 180.102 13.284 180.181 13.1839 180.243C13.0838 180.306 12.9701 180.352 12.8505 180.378C12.7309 180.404 12.6083 180.409 12.4911 180.393C12.0209 180.305 11.6314 180.067 11.4077 179.729C10.817 178.987 10.5756 178.079 10.7227 177.155C10.5194 178.353 6.18795 176.754 5.79678 176.313C5.1503 175.588 5.34148 174.19 5.02398 173.33C4.12026 171.214 2.98862 170.229 0.799988 172.709C-0.0122235 173.691 -1.15174 174.815 -2.50412 174.661C-2.53553 174.335 -2.70596 174.037 -2.98719 173.819C-3.26843 173.6 -3.64361 173.473 -4.05069 173.459C-4.87219 173.456 -5.69874 173.67 -6.40514 174.068C-6.92295 174.28 -7.34602 174.629 -7.59571 175.051C-7.67022 175.286 -7.77496 175.517 -7.9082 175.739C-8.45885 176.415 -9.67365 175.948 -10.3227 175.45" fill="#E1E1E1"/>
<path opacity="0.7" d="M106.058 138.364C105.542 138.106 104.948 137.95 104.322 137.909C103.695 137.867 103.051 137.94 102.437 138.123C101.728 138.437 101.037 138.782 100.368 139.156C100.03 139.34 99.644 139.449 99.2534 139.472C98.8628 139.494 98.4827 139.429 98.1554 139.283C97.3842 138.835 97.5621 137.852 97.8009 137.058C97.9092 136.398 98.3138 135.771 98.9367 135.296C99.4784 135.069 100.032 134.864 100.595 134.682C101.653 134.18 102.043 133.136 102.514 132.235C102.986 131.335 103.963 130.358 105.111 130.467C105.863 130.54 106.39 131.089 107.129 131.197C108.952 131.444 110.182 129.218 111.853 129.377C113.776 129.57 113.987 131.842 113.763 133.231C113.373 134.643 112.664 136.009 111.671 137.257C109.251 140.853 109.431 139.878 106.058 138.364Z" fill="#E1E1E1"/>
<path opacity="0.7" d="M144.651 88.216C165.877 95.5352 182.573 110.771 191.344 127.827L192.058 129.249C189.902 132.788 184.268 136.418 180.852 132.411C180.219 132.652 180.2 132.995 179.825 133.439C179.227 134.132 177.869 133.858 177.209 133.354C174.933 131.613 173.651 128.924 169.978 130.778C165.603 132.984 169.369 133.517 168.635 136.008C168.476 136.36 168.263 136.699 168.002 137.016C167.245 138.252 167.937 139.622 168.634 140.773C168.829 140.619 169.057 140.496 169.304 140.412C169.552 140.328 169.813 140.284 170.072 140.284C170.331 140.284 170.583 140.327 170.81 140.41C171.038 140.494 171.237 140.616 171.395 140.77C171.552 141.051 171.786 141.295 172.08 141.487C172.792 141.803 173.705 141.001 173.724 140.327C173.596 139.662 173.425 139.006 173.21 138.362C173.138 137.691 173.774 136.795 174.595 136.902C174.933 136.971 175.216 137.14 175.392 137.377C175.807 137.846 176.063 138.401 176.139 138.994C176.214 139.587 176.107 140.201 175.825 140.781C176.246 140.733 176.66 140.8 177 140.971C177.341 141.142 177.589 141.407 177.703 141.723C177.817 142.039 177.79 142.388 177.628 142.712C177.466 143.036 177.178 143.317 176.809 143.509C175.753 144.067 173.923 144.072 173.796 145.052C173.731 144.663 173.532 144.307 173.222 144.022C172.912 143.737 172.503 143.534 172.038 143.434C168.363 142.704 162.191 146.402 160.922 141.199C160.821 140.342 160.657 139.495 160.429 138.664C160.302 138.251 160.005 137.896 159.583 137.655C159.162 137.414 158.64 137.3 158.098 137.331C159.475 135.598 157.781 133.183 159.355 131.554C159.736 131.174 160.25 130.896 160.818 130.763C161.385 130.63 161.973 130.648 162.49 130.817C162.647 130.893 162.828 130.937 163.019 130.946C163.411 130.918 163.639 130.546 163.979 130.368C164.576 130.054 165.324 130.395 165.991 130.211C166.908 129.958 167.071 128.954 166.963 128.21C166.854 127.466 166.757 126.534 167.525 126.063C167.798 125.907 168.131 125.836 168.403 125.673C168.658 125.49 168.847 125.255 168.945 124.998C169.043 124.741 169.046 124.473 168.952 124.23C168.753 123.746 168.426 123.31 167.993 122.95C167.506 122.78 166.898 123.185 166.659 123.599C166.488 124.04 166.28 124.473 166.037 124.896C165.858 125.112 160.315 126.543 160.603 126.788C159.233 125.596 157.577 122.551 155.101 124.261C154.209 124.872 153.369 125.723 152.314 125.812C153.196 126.68 154.07 127.559 154.932 128.48C154.632 128.892 153.847 128.713 153.516 128.364C153.186 128.015 152.97 127.536 152.424 127.419C152.033 127.373 151.622 127.436 151.255 127.597C150.007 128.026 148.768 128.446 147.53 128.873C146.292 129.3 144.596 129.784 143.433 129.226C142.27 128.668 142.092 126.978 142.769 125.751C142.898 125.63 142.988 125.486 143.029 125.334C143.07 125.183 143.061 125.03 143.002 124.89C142.944 124.75 142.839 124.629 142.698 124.539C142.557 124.449 142.384 124.394 142.199 124.379C141.358 124.135 140.621 123.727 140.049 123.188C139.477 122.65 139.085 121.996 138.906 121.282C138.767 120.558 138.963 119.792 139.46 119.126C139.956 118.46 140.719 117.938 141.607 117.658C142.301 117.509 143.207 117.396 143.474 116.83C143.618 116.5 143.451 116.1 143.766 115.854C144.082 115.609 144.72 115.868 145.16 116.056C145.568 116.22 146.047 116.262 146.519 116.174C146.99 116.086 147.426 115.874 147.756 115.572C148.088 115.259 148.165 111.851 147.671 111.553C146.537 110.794 143.135 112.34 141.737 112.736C141.477 112.84 141.199 112.903 140.918 112.922C140.638 112.94 140.361 112.914 140.104 112.844C139.361 112.527 139.5 111.601 139.935 110.959C140.37 110.316 141.048 109.71 141.111 109.002C141.118 108.594 141.016 108.197 140.81 107.839C140.702 107.442 140.494 107.074 140.198 106.758C139.901 106.441 139.523 106.182 139.085 105.997C138.641 105.882 138.134 105.902 137.7 105.785C137.221 105.599 136.829 105.303 136.569 104.931C136.308 104.559 136.189 104.125 136.226 103.678C136.19 102.798 136.456 101.893 136.331 101.023C136.077 99.1718 134.135 97.6986 134.38 95.7887C134.501 94.8744 135.576 93.8284 136.607 94.1078C137.639 94.3873 137.916 95.4423 138.894 95.2326C139.872 95.0229 140.239 92.9173 140.842 92.3438C141.445 91.7703 142.68 91.9496 143.512 90.9637C144.175 90.1917 143.92 89.0512 144.651 88.216Z" fill="#E1E1E1"/>
<path d="M62.7093 146.972C63.386 146.264 64.1116 145.546 64.8825 144.849L65.5615 145.583C64.808 146.266 64.0901 146.972 63.4407 147.664L62.7093 146.972ZM67.1912 142.881C67.9671 142.254 68.7863 141.639 69.6117 141.053L70.1859 141.871C69.3779 142.443 68.5762 143.044 67.8178 143.657L67.1912 142.881ZM72.1167 139.38C72.9667 138.861 73.848 138.344 74.7377 137.867L75.2212 138.786C74.351 139.259 73.4871 139.761 72.6568 140.277L72.1167 139.38ZM77.453 136.508C78.3826 136.073 79.3184 135.668 80.2626 135.302L80.6287 136.246C79.6866 136.622 78.7487 137.017 77.905 137.423L77.453 136.508ZM83.11 134.272C84.0647 133.955 85.0257 133.667 85.9951 133.418L86.2536 134.385C85.2758 134.595 84.3232 134.922 83.3664 135.229L83.11 134.272ZM89.1276 133.718L88.9179 132.74C89.8957 132.53 90.8839 132.369 91.8764 132.228L92.0176 133.221C91.0894 133.328 90.1116 133.537 89.1534 133.743L89.1276 133.718ZM95.0138 132.885L94.9215 131.882C95.9265 131.799 96.9378 131.746 97.9533 131.713L97.987 132.728C97.0085 132.744 96.007 132.795 95.0334 132.881L95.0138 132.885ZM100.95 132.716L100.966 131.69C101.992 131.706 103.026 131.76 103.994 131.839L103.92 132.877C102.958 132.828 101.947 132.738 100.97 132.712L100.95 132.716ZM106.878 133.174L107.004 132.185C107.992 132.311 108.996 132.464 109.995 132.638L109.816 133.617C108.859 133.444 107.864 133.29 106.898 133.17L106.878 133.174ZM112.743 134.197L112.953 133.221C113.919 133.433 114.901 133.673 115.889 133.941L115.626 134.908C114.669 134.643 113.709 134.409 112.763 134.193L112.743 134.197ZM118.493 135.735L118.79 134.782C119.732 135.071 120.691 135.397 121.651 135.723L121.323 136.673C120.39 136.331 119.464 136.018 118.513 135.731L118.493 135.735ZM124.113 137.711L124.486 136.782C125.401 137.138 126.332 137.521 127.269 137.934L126.872 138.848C125.966 138.438 125.018 138.069 124.132 137.707L124.113 137.711ZM129.6 140.073L130.019 139.165C130.92 139.585 131.823 140.026 132.726 140.487L132.274 141.381C131.396 140.915 130.496 140.484 129.619 140.069L129.6 140.073ZM134.923 142.767L135.399 141.887C136.024 142.224 136.65 142.57 137.291 142.934L138.026 143.359L137.526 144.223L136.793 143.808L134.923 142.767ZM140.064 145.755L140.599 144.914C141.462 145.455 142.3 146.022 143.115 146.584L142.536 147.414C141.764 146.863 140.94 146.314 140.088 145.771L140.064 145.755ZM144.889 149.18L145.496 148.385C146.293 149.001 147.084 149.639 147.846 150.284L147.202 151.046C146.524 150.414 145.745 149.784 144.962 149.184L144.889 149.18ZM149.426 153.024L150.108 152.294C150.847 152.975 151.573 153.688 152.269 154.408L151.549 155.105C150.938 154.397 150.226 153.701 149.499 153.029L149.426 153.024ZM153.564 157.25L154.312 156.588C154.976 157.346 155.663 158.119 156.253 158.913L155.465 159.532C154.941 158.806 154.295 158.034 153.684 157.286L153.564 157.25ZM167.196 216.049C167.196 216.049 167.455 214.97 167.769 213.144L168.754 213.301C168.443 215.188 168.179 216.247 168.168 216.29L167.196 216.049ZM157.228 161.936L158.044 161.352C158.628 162.168 159.198 163.017 159.738 163.863L158.892 164.402C158.471 163.582 157.924 162.748 157.334 161.954L157.228 161.936ZM168.194 210.21C168.307 209.306 168.411 208.312 168.498 207.24L169.536 207.314C169.441 208.398 169.34 209.402 169.231 210.325L168.194 210.21ZM160.43 166.946L161.345 166.443C161.848 167.358 162.318 168.218 162.776 169.112L161.851 169.566C161.494 168.712 161.058 167.824 160.536 166.964L160.43 166.946ZM168.688 204.264C168.73 203.314 168.761 202.315 168.764 201.282L169.788 201.287C169.773 202.313 169.748 203.341 169.708 204.301L168.688 204.264ZM163.104 172.263L164.038 171.848C164.453 172.782 164.839 173.722 165.205 174.666L164.258 175.023C163.989 174.099 163.607 173.178 163.21 172.282L163.104 172.263ZM168.739 198.301C168.705 197.285 168.667 196.342 168.601 195.323L169.609 195.251C169.672 196.26 169.715 197.273 169.749 198.289L168.739 198.301ZM168.343 192.352C168.231 191.353 168.109 190.356 167.958 189.366L168.948 189.215C169.09 190.207 169.221 191.202 169.323 192.203L168.343 192.352ZM165.225 177.812L166.179 177.495C166.497 178.45 166.794 179.409 167.063 180.374L166.097 180.642C165.951 179.722 165.654 178.763 165.341 177.828L165.225 177.812ZM167.467 186.454C167.257 185.476 167.047 184.499 166.837 183.521L167.815 183.311C168.025 184.289 168.235 185.267 168.444 186.244L167.467 186.454Z" fill="#FFC100"/>
<path d="M27.2094 122.644C26.9494 121.432 26.7355 120.435 26.639 119.698L27.6168 119.489C27.7762 120.232 27.9272 121.222 28.1872 122.435L27.2094 122.644ZM27.8384 125.578L28.8162 125.368C29.0112 126.277 29.3068 127.226 29.6017 128.268L28.6386 128.546C28.3884 127.475 28.1277 126.497 27.8915 125.587L27.8384 125.578ZM29.5169 131.354L30.4737 131.047C30.7707 131.955 31.0956 132.897 31.4645 133.902L30.5161 134.249C30.2142 133.271 29.8774 132.32 29.5763 131.393L29.5169 131.354ZM31.6159 137.04L32.5559 136.655C32.9318 137.597 33.3244 138.474 33.7373 139.398L32.8036 139.813C32.4459 138.908 32.0427 137.982 31.6731 137.069L31.6159 137.04ZM34.1143 142.539L35.0396 142.085C35.4937 143.01 35.9485 143.843 36.4334 144.721L35.5653 145.204C35.0784 144.316 34.6173 143.454 34.1716 142.567L34.1143 142.539ZM37.0492 147.831L37.897 147.302C38.4167 148.151 38.956 148.997 39.5086 149.809L38.679 150.376C38.1795 149.573 37.6283 148.719 37.1162 147.858L37.0492 147.831ZM40.4331 152.833L41.2369 152.241C41.8363 153.033 42.4552 153.821 43.0776 154.577L42.3039 155.213C41.7268 154.478 41.0939 153.673 40.4904 152.861L40.4331 152.833ZM44.2968 157.496L45.0308 156.817C45.6979 157.544 46.365 158.27 47.104 158.95L46.4078 159.662C45.7435 158.996 45.0352 158.269 44.3052 157.535L44.2968 157.496ZM48.6207 161.683L49.2771 160.928C50.0315 161.585 50.8013 162.217 51.5746 162.819L50.9656 163.604C50.2343 163.055 49.4408 162.407 48.6843 161.741L48.6207 161.683ZM53.4125 165.38L53.9816 164.552C54.7975 165.114 55.6385 165.649 56.4829 166.154L55.9711 167.01C55.1867 166.595 54.3038 166.007 53.4761 165.438L53.4125 165.38ZM58.6079 168.48L59.0722 167.593C59.9355 168.042 60.8359 168.472 61.7516 168.879L61.3446 169.795C60.4805 169.438 59.5585 169.002 58.6715 168.538L58.6079 168.48ZM64.1454 170.933L64.4973 169.999C65.4081 170.335 66.3496 170.624 67.2996 170.952L67.0029 171.906C66.1032 171.669 65.1436 171.343 64.209 170.991L64.1454 170.933ZM69.9273 172.762L70.1688 171.789C71.1194 172.025 72.0952 172.235 73.0667 172.426L72.8783 173.407C71.9402 173.23 70.9547 173.022 69.9825 172.78L69.9273 172.762ZM75.8586 173.903L75.9939 172.913C76.9627 173.043 77.9586 173.156 78.9483 173.241L78.8647 174.281C77.9099 174.169 76.9041 174.057 75.9137 173.922L75.8586 173.903ZM81.8756 174.444L81.9104 173.413C82.8798 173.451 83.8765 173.473 84.8787 173.472L84.8928 174.492C83.9283 174.525 82.9198 174.496 81.9308 174.462L81.8756 174.444ZM87.9087 174.439L87.8652 173.425C88.8402 173.393 89.8299 173.335 90.8342 173.249L90.9168 174.254C89.9571 174.357 88.9479 174.42 87.9638 174.457L87.9087 174.439ZM93.9409 173.953L93.8192 172.956C94.8159 172.835 95.8083 172.693 96.7966 172.533L96.9574 173.521C95.9852 173.709 94.983 173.852 93.9765 173.976L93.9409 173.953ZM99.6566 171.991C100.634 171.781 101.612 171.572 102.575 171.293L102.834 172.261C101.866 172.519 100.893 172.748 99.9152 172.958L99.6566 171.991ZM105.394 170.464C106.351 170.156 107.303 169.829 108.201 169.484L108.557 170.43C107.611 170.786 106.66 171.123 105.704 171.431L105.394 170.464ZM110.945 168.353C111.881 167.948 112.751 167.526 113.616 167.075L114.08 167.998C113.157 168.462 112.276 168.886 111.352 169.299L110.945 168.353ZM116.224 165.646C117.069 165.148 117.917 164.618 118.733 164.085L119.29 164.917C118.458 165.474 117.591 166.008 116.723 166.49L116.224 165.646ZM121.155 162.359C121.947 161.76 122.725 161.143 123.477 160.501L124.123 161.273C123.361 161.917 122.556 162.55 121.754 163.151L121.155 162.359ZM125.691 158.523C126.398 157.86 127.124 157.193 127.8 156.434L128.52 157.118C127.818 157.852 127.102 158.568 126.38 159.254L125.691 158.523ZM129.792 154.227C130.429 153.477 131.061 152.707 131.668 151.912L132.455 152.531C131.839 153.328 131.201 154.12 130.544 154.874L129.792 154.227ZM133.426 149.521C133.989 148.715 134.537 147.881 135.072 147.04L135.923 147.574C135.382 148.437 134.817 149.284 134.244 150.092L133.426 149.521ZM136.612 144.491C137.11 143.617 137.588 142.748 138.045 141.872L138.932 142.337C138.468 143.224 137.982 144.105 137.456 144.995L136.612 144.491ZM139.363 139.196C139.792 138.286 140.191 137.382 140.579 136.471L141.502 136.866C141.105 137.78 140.7 138.705 140.263 139.627L139.363 139.196ZM141.766 133.711C142.126 132.764 142.468 131.832 142.781 130.906L143.728 131.224C143.408 132.162 143.109 133.106 142.701 134.062L141.766 133.711ZM143.704 128.059C144.006 127.084 144.311 126.118 144.531 125.191L145.498 125.455C145.24 126.4 144.958 127.37 144.658 128.355L143.704 128.059ZM145.27 122.292C145.513 121.279 145.723 120.303 145.922 119.37L146.895 119.571C146.701 120.523 146.481 121.501 146.24 122.524L145.27 122.292ZM146.477 116.429C146.659 115.367 146.816 114.382 146.939 113.476L147.929 113.612C147.798 114.529 147.646 115.534 147.457 116.607L146.477 116.429ZM147.254 110.514C147.446 108.642 147.486 107.54 147.494 107.528L148.524 107.562C148.524 107.562 148.481 108.697 148.278 110.612L147.254 110.514Z" fill="#FFC100"/>
<path d="M150.486 100.374L148.253 103.839L144.952 101.704L147.197 98.2466L143.73 96.0037L145.867 92.7124L149.323 94.9476L151.567 91.49L154.857 93.6176L152.624 97.0829L156.079 99.318L153.954 102.617L150.486 100.374Z" fill="#FFC100"/>
<path d="M35.3989 105.319L33.1659 108.784L29.8648 106.648L32.1097 103.191L28.6424 100.948L30.7798 97.6567L34.2352 99.8919L36.4802 96.4343L39.7694 98.5619L37.5363 102.027L40.9918 104.262L38.8663 107.561L35.3989 105.319Z" fill="#FFC100"/>
<path d="M145.116 32.8544C144.747 32.583 144.334 32.3763 143.896 32.2431L142.528 31.8194L139.486 33.3842L147.63 36.3928C147.822 36.4611 148.025 36.4897 148.229 36.4768C148.432 36.464 148.63 36.4099 148.812 36.3179L149.086 36.1718C149.125 36.1518 149.158 36.1222 149.183 36.0858C149.207 36.0493 149.222 36.0073 149.226 35.9635C149.23 35.9197 149.223 35.8757 149.205 35.8355C149.188 35.7953 149.16 35.7602 149.125 35.7336L145.116 32.8544Z" fill="#FFC100"/>
<path opacity="0.3" d="M145.116 32.8544C144.747 32.583 144.334 32.3763 143.896 32.2431L142.528 31.8194L139.486 33.3842L147.63 36.3928C147.822 36.4611 148.025 36.4897 148.229 36.4768C148.432 36.464 148.63 36.4099 148.812 36.3179L149.086 36.1718C149.125 36.1518 149.158 36.1222 149.183 36.0858C149.207 36.0493 149.222 36.0073 149.226 35.9635C149.23 35.9197 149.223 35.8757 149.205 35.8355C149.188 35.7953 149.16 35.7602 149.125 35.7336L145.116 32.8544Z" fill="white"/>
<path d="M144.38 26.0514L139.845 13.7979L136.931 15.2838L138.07 29.8034L144.713 26.7037L144.38 26.0514Z" fill="#FFC100"/>
<path opacity="0.6" d="M144.38 26.0514L139.845 13.7979L136.931 15.2838L138.07 29.8034L144.713 26.7037L144.38 26.0514Z" fill="white"/>
<path d="M163.424 28.8718L189.662 37.2461C190.048 37.3729 190.465 37.3786 190.855 37.2626L191.597 37.0479C191.694 37.0167 191.782 36.9603 191.85 36.8844C191.919 36.8085 191.966 36.7159 191.987 36.6158C192.008 36.5158 192.003 36.412 191.971 36.3148C191.939 36.2177 191.882 36.1307 191.806 36.0626C191.6 35.8936 191.327 35.6884 190.967 35.4454C189.49 34.4596 173.324 23.8249 173.324 23.8249L163.424 28.8718Z" fill="#FFC100"/>
<path opacity="0.3" d="M163.424 28.8718L189.662 37.2461C190.048 37.3729 190.465 37.3786 190.855 37.2626L191.597 37.0479C191.694 37.0167 191.782 36.9603 191.85 36.8844C191.919 36.8085 191.966 36.7159 191.987 36.6158C192.008 36.5158 192.003 36.412 191.971 36.3148C191.939 36.2177 191.882 36.1307 191.806 36.0626C191.6 35.8936 191.327 35.6884 190.967 35.4454C189.49 34.4596 173.324 23.8249 173.324 23.8249L163.424 28.8718Z" fill="white"/>
<path d="M133.877 32.4494C133.798 32.6323 133.761 32.8308 133.769 33.03C133.778 33.2292 133.831 33.4239 133.925 33.5994C134.02 33.775 134.153 33.927 134.314 34.0438C134.476 34.1607 134.662 34.2394 134.858 34.2742C138.348 34.878 150.852 36.1787 167.582 27.6272C186.536 17.8895 190.776 13.8215 189.919 11.1645C189.846 10.9466 189.735 10.7431 189.592 10.5629C188.693 9.38801 184.711 4.97513 176.377 9.23862L138.167 28.8277C138.167 28.8277 134.743 30.5189 133.877 32.4494Z" fill="#FFC100"/>
<path d="M145.449 25.1026L176.414 9.27223C184.749 4.99878 188.76 9.4243 189.629 10.5965C189.772 10.7767 189.883 10.9802 189.957 11.1981C190.816 13.8252 186.573 17.9231 167.611 27.6301C150.893 36.1725 138.388 34.8817 134.888 34.277C134.692 34.2423 134.506 34.1635 134.344 34.0467C134.183 33.9298 134.05 33.7779 133.955 33.6023C133.861 33.4267 133.808 33.232 133.799 33.0328C133.791 32.8336 133.828 32.6351 133.907 32.4522C134.773 30.5217 138.248 28.825 138.248 28.825L145.449 25.1026Z" fill="#FFC100"/>
<path opacity="0.1" d="M175.301 16.8829C161.593 24.2091 143.395 32.4484 136.067 34.4526C140.713 35.0395 152.409 35.3843 167.572 27.6262C186.46 17.9528 190.742 13.8585 189.924 11.225C188.016 11.2348 183.938 12.2551 175.301 16.8829Z" fill="black"/>
<path d="M153.64 25.2245L160.427 21.7561C160.77 21.5828 161.039 21.2909 161.183 20.9347C161.328 20.5785 161.338 20.1819 161.213 19.8185C160.985 19.2903 160.634 18.8239 160.191 18.4577C159.747 18.0916 159.223 17.8361 158.661 17.7124L121.053 8.04857C120.813 7.98091 120.563 7.95851 120.316 7.98255L117.486 8.30135C117.439 8.30752 117.395 8.32965 117.362 8.3641C117.329 8.39856 117.308 8.44328 117.304 8.49087C117.3 8.53846 117.312 8.58607 117.338 8.62586C117.365 8.66565 117.404 8.69523 117.449 8.70971L153.64 25.2245Z" fill="#FFC100"/>
<path opacity="0.3" d="M153.64 25.2245L160.427 21.7561C160.77 21.5828 161.039 21.2909 161.183 20.9347C161.328 20.5785 161.338 20.1819 161.213 19.8185C160.985 19.2903 160.634 18.8239 160.191 18.4577C159.747 18.0916 159.223 17.8361 158.661 17.7124L121.053 8.04857C120.813 7.98091 120.563 7.95851 120.316 7.98255L117.486 8.30135C117.439 8.30752 117.395 8.32965 117.362 8.3641C117.329 8.39856 117.308 8.44328 117.304 8.49087C117.3 8.53846 117.312 8.58607 117.338 8.62586C117.365 8.66565 117.404 8.69523 117.449 8.70971L153.64 25.2245Z" fill="white"/>
<g opacity="0.7">
<path d="M143.573 28.4489C143.342 28.5588 143.154 28.4115 143.148 28.1498L143.132 27.6564C143.129 27.5152 143.163 27.3757 143.231 27.2516C143.298 27.1275 143.397 27.0229 143.516 26.9479C143.737 26.8372 143.925 26.9845 143.931 27.2461L143.957 27.7404C143.958 27.8813 143.923 28.02 143.855 28.1438C143.788 28.2677 143.691 28.3726 143.573 28.4489Z" fill="black"/>
<path d="M145.101 27.6322C144.88 27.7529 144.693 27.5956 144.686 27.3439L144.67 26.8406C144.665 26.7002 144.697 26.5609 144.765 26.4378C144.833 26.3147 144.933 26.2124 145.054 26.142C145.276 26.0213 145.463 26.1786 145.47 26.4303L145.485 26.9337C145.491 27.074 145.458 27.2133 145.391 27.3365C145.323 27.4596 145.223 27.5619 145.101 27.6322Z" fill="black"/>
<path d="M146.729 26.8345C146.509 26.9453 146.321 26.798 146.314 26.5363L146.288 26.042C146.289 25.9013 146.324 25.7629 146.391 25.6393C146.458 25.5156 146.555 25.4106 146.673 25.3335C146.904 25.2237 147.081 25.3701 147.098 25.6326L147.114 26.126C147.118 26.2676 147.085 26.4078 147.017 26.5323C146.95 26.6568 146.85 26.7611 146.729 26.8345Z" fill="black"/>
<path d="M148.258 26.0176C148.036 26.1383 147.85 25.981 147.842 25.7293L147.817 25.2251C147.816 25.0856 147.851 24.9483 147.918 24.826C147.986 24.7038 148.083 24.6007 148.201 24.5266C148.423 24.4058 148.609 24.5631 148.627 24.8157L148.642 25.3191C148.645 25.4589 148.611 25.597 148.543 25.7195C148.476 25.8421 148.378 25.9449 148.258 26.0176Z" fill="black"/>
<path d="M149.886 25.2193C149.665 25.3301 149.477 25.1827 149.46 24.9302L149.445 24.4268C149.445 24.2861 149.481 24.1477 149.548 24.024C149.615 23.9004 149.712 23.7953 149.829 23.7183C150.05 23.6076 150.238 23.7549 150.255 24.0174L150.271 24.5108C150.272 24.6519 150.237 24.7909 150.17 24.9149C150.103 25.0389 150.005 25.1436 149.886 25.2193Z" fill="black"/>
<path d="M161.864 19.0537C161.643 19.1645 161.456 19.0172 161.448 18.7655L161.423 18.2612C161.422 18.1218 161.457 17.9844 161.524 17.8622C161.591 17.74 161.689 17.6369 161.807 17.5627C162.028 17.442 162.215 17.5993 162.233 17.8518L162.249 18.3452C162.253 18.4868 162.22 18.627 162.152 18.7515C162.084 18.876 161.985 18.9803 161.864 19.0537Z" fill="black"/>
<path d="M163.442 18.2508C163.221 18.3616 163.033 18.2143 163.017 17.9517L163.001 17.4583C162.999 17.3173 163.034 17.1782 163.101 17.0542C163.168 16.9303 163.266 16.8255 163.385 16.7498C163.606 16.6391 163.794 16.7864 163.811 17.039L163.826 17.5423C163.826 17.683 163.791 17.8214 163.723 17.9451C163.656 18.0688 163.559 18.1738 163.442 18.2508Z" fill="black"/>
<path d="M165.02 17.4385C164.799 17.5592 164.612 17.4019 164.594 17.1494L164.579 16.646C164.579 16.5065 164.613 16.3692 164.681 16.2469C164.748 16.1247 164.845 16.0216 164.963 15.9475C165.185 15.8267 165.372 15.984 165.389 16.2366L165.404 16.74C165.405 16.8794 165.37 17.0168 165.303 17.139C165.236 17.2612 165.138 17.3643 165.02 17.4385Z" fill="black"/>
<path d="M166.598 16.6365C166.378 16.7473 166.19 16.5999 166.173 16.3374L166.157 15.844C166.153 15.7024 166.186 15.5622 166.254 15.4378C166.322 15.3133 166.421 15.209 166.542 15.1355C166.763 15.0248 166.95 15.1721 166.957 15.4337L166.983 15.928C166.983 16.0687 166.947 16.2071 166.88 16.3308C166.813 16.4545 166.716 16.5595 166.598 16.6365Z" fill="black"/>
<path d="M168.177 15.8234C167.946 15.9432 167.759 15.7859 167.751 15.5342L167.736 15.0309C167.733 14.891 167.767 14.7529 167.835 14.6304C167.902 14.5078 168.001 14.405 168.12 14.3323C168.342 14.2116 168.528 14.3689 168.536 14.6206L168.561 15.1248C168.562 15.2643 168.527 15.4016 168.46 15.5239C168.392 15.6461 168.295 15.7492 168.177 15.8234Z" fill="black"/>
<path d="M169.881 14.9619C169.66 15.0727 169.472 14.9254 169.455 14.6728L169.44 14.1694C169.439 14.03 169.474 13.8926 169.541 13.7704C169.608 13.6482 169.705 13.5451 169.824 13.4709C170.045 13.3502 170.232 13.5075 170.249 13.76L170.265 14.2534C170.267 14.3945 170.232 14.5336 170.165 14.6575C170.098 14.7815 170 14.8863 169.881 14.9619Z" fill="black"/>
<path d="M171.439 14.1581C171.218 14.2688 171.03 14.1215 171.014 13.859L170.998 13.3655C170.996 13.2245 171.031 13.0854 171.098 12.9614C171.166 12.8375 171.263 12.7327 171.382 12.657C171.603 12.5463 171.791 12.6936 171.808 12.9462L171.823 13.4496C171.823 13.5903 171.788 13.7287 171.72 13.8523C171.653 13.976 171.556 14.081 171.439 14.1581Z" fill="black"/>
<path d="M173.037 13.3478C172.816 13.4585 172.629 13.3112 172.611 13.0586L172.596 12.5553C172.594 12.4154 172.628 12.2774 172.695 12.1548C172.762 12.0322 172.861 11.9294 172.98 11.8567C173.202 11.736 173.388 11.8933 173.396 12.145L173.421 12.6492C173.422 12.7887 173.387 12.9261 173.32 13.0483C173.253 13.1705 173.155 13.2736 173.037 13.3478Z" fill="black"/>
<path d="M174.595 12.5428C174.365 12.6527 174.177 12.5054 174.17 12.2437L174.183 11.763C174.179 11.6214 174.212 11.4812 174.28 11.3567C174.347 11.2322 174.447 11.1279 174.568 11.0545C174.789 10.9437 174.976 11.091 174.983 11.3527L175.009 11.847C175.003 11.9882 174.963 12.1258 174.89 12.2473C174.818 12.3688 174.717 12.4704 174.595 12.5428Z" fill="black"/>
<path d="M176.194 11.7328C175.972 11.8535 175.786 11.6962 175.778 11.4445L175.763 10.9412C175.757 10.8008 175.79 10.6615 175.857 10.5384C175.925 10.4152 176.025 10.313 176.147 10.2426C176.368 10.1219 176.555 10.2792 176.563 10.5309L176.578 11.0343C176.584 11.1746 176.551 11.3139 176.483 11.4371C176.416 11.5602 176.316 11.6625 176.194 11.7328Z" fill="black"/>
</g>
<path opacity="0.7" d="M182.534 8.20362C181.995 8.43801 181.51 8.78071 181.109 9.21045C181.109 9.21045 181.77 9.10908 182.721 9.03359L182.534 8.20362Z" fill="black"/>
<g opacity="0.7">
<path d="M184.88 8.91665C185.802 8.90446 186.724 8.98697 187.629 9.16289C186.77 8.5366 185.775 8.1239 184.725 7.95898L184.88 8.91665Z" fill="black"/>
<path d="M184.19 7.88075C183.788 7.87393 183.388 7.92601 183.001 8.03533L183.217 8.98839L184.327 8.92717L184.19 7.88075Z" fill="black"/>
</g>
<path d="M152.014 14.576C149.952 15.8235 147.96 17.1835 146.047 18.6499C145.839 19.4824 145.95 20.3625 146.358 21.1175C146.738 21.8979 147.402 22.5034 148.214 22.8099C150.518 22.1089 152.784 21.2863 155.001 20.3456C156.2 19.7401 156.511 17.9507 155.687 16.391C154.863 14.8312 153.204 13.9597 152.014 14.576Z" fill="#FFC100"/>
<path opacity="0.1" d="M152.014 14.576C149.952 15.8235 147.96 17.1835 146.047 18.6499C145.839 19.4824 145.95 20.3625 146.358 21.1175C146.738 21.8979 147.402 22.5034 148.214 22.8099C150.518 22.1089 152.784 21.2863 155.001 20.3456C156.2 19.7401 156.511 17.9507 155.687 16.391C154.863 14.8312 153.204 13.9597 152.014 14.576Z" fill="black"/>
<path opacity="0.7" d="M155.218 16.5808C155.867 17.8538 155.619 19.2773 154.662 19.7639C153.705 20.2504 152.415 19.6229 151.776 18.3508C151.137 17.0787 151.375 15.6542 152.333 15.1677C153.29 14.6812 154.559 15.3069 155.218 16.5808Z" fill="black"/>
<path d="M176.887 25.2884C175.023 26.4182 173.22 27.6476 171.487 28.9713C171.306 29.7314 171.4 30.5313 171.753 31.2285C172.106 31.9257 172.695 32.4749 173.415 32.7785C175.494 32.1324 177.536 31.3735 179.533 30.5052C180.586 29.9569 180.901 28.3386 180.157 26.8965C179.413 25.4543 177.971 24.7329 176.887 25.2884Z" fill="#FFC100"/>
<path opacity="0.1" d="M176.887 25.2884C175.023 26.4182 173.22 27.6476 171.487 28.9713C171.306 29.7314 171.4 30.5313 171.753 31.2285C172.106 31.9257 172.695 32.4749 173.415 32.7785C175.494 32.1324 177.536 31.3735 179.533 30.5052C180.586 29.9569 180.901 28.3386 180.157 26.8965C179.413 25.4543 177.971 24.7329 176.887 25.2884Z" fill="black"/>
<path opacity="0.7" d="M179.838 27.0988C179.91 27.4325 179.887 27.7796 179.772 28.1009C179.657 28.4223 179.454 28.7051 179.187 28.9174C178.92 29.1297 178.599 29.263 178.26 29.3024C177.921 29.3417 177.577 29.2854 177.269 29.1399C176.96 28.9944 176.698 28.7654 176.513 28.4789C176.327 28.1924 176.225 27.8597 176.219 27.5184C176.213 27.1772 176.302 26.841 176.477 26.5478C176.652 26.2546 176.905 26.0161 177.208 25.8592C177.722 25.6918 178.28 25.7268 178.769 25.9572C179.258 26.1876 179.64 26.5959 179.838 27.0988Z" fill="black"/>
<path d="M138.102 30.4583L125.732 26.6495C125.487 26.5772 125.229 26.5542 124.975 26.5817L123.404 26.7522C123.33 26.7674 123.263 26.8059 123.213 26.862C123.163 26.9181 123.133 26.9888 123.126 27.0636C123.119 27.1385 123.137 27.2135 123.176 27.2776C123.215 27.3416 123.274 27.3914 123.344 27.4195L135.386 31.8616L138.102 30.4583Z" fill="#FFC100"/>
<path opacity="0.4" d="M138.102 30.4583L125.732 26.6495C125.487 26.5772 125.229 26.5542 124.975 26.5817L123.404 26.7522C123.33 26.7674 123.263 26.8059 123.213 26.862C123.163 26.9181 123.133 26.9888 123.126 27.0636C123.119 27.1385 123.137 27.2135 123.176 27.2776C123.215 27.3416 123.274 27.3914 123.344 27.4195L135.386 31.8616L138.102 30.4583Z" fill="white"/>
<path d="M89.938 102.056L119.594 102.774C122.45 120.522 133.336 181.515 124.874 237.126L113.212 236.883C113.212 236.883 115.865 163.333 106.254 135.721C104.777 150.385 91.0229 236.37 91.0229 236.37L79.3594 236.097C79.3594 236.097 81.6675 210.631 84.1761 176.069C85.7611 154.207 89.8023 106.52 89.938 102.056Z" fill="#FFC100"/>
<path d="M113.655 66.5359C113.655 66.5359 114.666 80.2004 116.653 84.245C119.31 89.8702 132.953 102.338 132.953 102.338L137.174 107.848L139.545 110.001C139.935 110.371 140.447 110.586 140.985 110.605C141.522 110.625 142.048 110.447 142.464 110.106L144.61 108.433C144.858 108.242 145.062 108 145.21 107.725C145.358 107.45 145.447 107.147 145.47 106.835C145.494 106.523 145.452 106.21 145.347 105.915C145.242 105.621 145.076 105.352 144.861 105.125L139.829 99.6758L135.16 98.3328C135.16 98.3328 124.301 84.9311 122.649 79.5226C122.068 74.6959 122.01 69.8204 122.476 64.9812L113.655 66.5359Z" fill="#EEC1BB"/>
<path d="M113.737 48.3667C113.737 48.3667 109.725 48.838 113.137 70.5626L123.07 70.2646C123.07 70.2646 127.952 57.5615 123.563 51.7442C122.558 50.1433 121.034 48.9349 119.246 48.3204C117.458 47.7059 115.514 47.7222 113.737 48.3667Z" fill="#263238"/>
<path opacity="0.3" d="M113.737 48.3667C113.737 48.3667 109.725 48.838 113.137 70.5626L123.07 70.2646C123.07 70.2646 127.952 57.5615 123.563 51.7442C122.558 50.1433 121.034 48.9349 119.246 48.3204C117.458 47.7059 115.514 47.7222 113.737 48.3667Z" fill="black"/>
<path d="M112.522 71.3064L124.359 70.7802L125.724 67.1862L112.113 67.3487L112.522 71.3064Z" fill="#263238"/>
<path opacity="0.3" d="M112.522 71.3064L124.359 70.7802L125.724 67.1862L112.113 67.3487L112.522 71.3064Z" fill="white"/>
<path d="M85.7984 53.9539L88.0611 108.161L121.298 107.304C122.688 89.0465 122.782 70.7135 121.577 52.4429C121.454 51.1333 120.844 49.9175 119.868 49.0358C118.892 48.154 117.621 47.6704 116.306 47.6805L90.9553 48.5076C90.2559 48.5161 89.5653 48.665 88.9245 48.9454C88.2837 49.2257 87.7057 49.6319 87.2247 50.1398C86.7438 50.6477 86.3698 51.247 86.1247 51.9022C85.8797 52.5574 85.7688 53.255 85.7984 53.9539Z" fill="#263238"/>
<path d="M111.282 47.8488C111.312 48.2541 113.165 54.0261 107.891 54.7364C102.617 55.4467 98.6801 50.2363 97.8665 48.288C102.437 48.2993 100.761 32.3262 100.761 32.3262L104.342 35.8746L109.241 40.7227C109.241 40.7227 107.755 47.382 111.282 47.8488Z" fill="#EEC1BB"/>
<path opacity="0.5" d="M86.0633 60.6596L86.6226 74.1246C95.6956 64.9539 95.6482 57.6221 95.6482 57.6221L92.0734 58.0902L86.0633 60.6596Z" fill="black"/>
<path opacity="0.1" d="M109.532 46.6099C108.837 44.7608 108.688 42.751 109.103 40.8199C107.104 39.3668 105.271 38.1925 105.271 38.1925L103.533 37.9135L102.417 38.5782C102.811 40.4162 103.673 42.1214 104.92 43.5285C106.166 44.9357 107.755 45.9971 109.532 46.6099Z" fill="black"/>
<path d="M78.5472 62.5544C78.5472 62.5544 70.6073 73.2714 69.4756 78.0416C68.3439 82.8118 76.117 106.048 76.117 106.048L75.8653 112.878L76.3035 116.047C76.3672 116.571 76.6163 117.054 77.0057 117.41C77.3951 117.765 77.8991 117.97 78.4262 117.986L81.169 118.074C81.4793 118.088 81.7891 118.036 82.078 117.922C82.367 117.808 82.6286 117.634 82.8457 117.412C83.0628 117.19 83.2306 116.925 83.338 116.633C83.4455 116.342 83.4902 116.031 83.4692 115.721L82.9296 108.425L80.2141 104.376C80.2141 104.376 75.87 81.0617 76.9264 78.422C77.9828 75.7823 86.2484 67.1079 86.2484 67.1079L78.5472 62.5544Z" fill="#EEC1BB"/>
<path d="M90.1867 48.7398C90.1867 48.7398 86.7891 46.4878 75.4611 65.3147L83.2511 71.4626C83.2511 71.4626 95.1267 64.7625 95.5307 57.6302C95.8037 55.7591 95.4206 53.8512 94.4465 52.2306C93.4723 50.6099 91.9671 49.3765 90.1867 48.7398Z" fill="#263238"/>
<path d="M73.4557 65.7545L82.8679 72.9759L86.1931 71.0999L75.6584 62.477L73.4557 65.7545Z" fill="#263238"/>
<path opacity="0.3" d="M73.4557 65.7545L82.8679 72.9759L86.1931 71.0999L75.6584 62.477L73.4557 65.7545Z" fill="white"/>
<path d="M98.9457 25.8821C99.4146 32.2221 99.3124 35.9556 102.526 39.2691C103.558 40.3706 104.873 41.1677 106.326 41.5735C107.78 41.9793 109.317 41.9783 110.77 41.5706C112.224 41.1628 113.537 40.364 114.567 39.2612C115.598 38.1583 116.306 36.7938 116.614 35.3164C117.944 29.6874 117.014 20.2668 110.79 17.5834C109.462 16.9582 107.992 16.6951 106.53 16.8206C105.067 16.9461 103.664 17.4559 102.462 18.2982C101.26 19.1405 100.301 20.2855 99.6838 21.6172C99.0663 22.949 98.8117 24.4203 98.9457 25.8821Z" fill="#EEC1BB"/>
<path d="M100.516 30.9763C100.516 30.9763 103.36 30.0674 102.382 26.2974C101.405 22.5273 105.031 22.754 106.004 19.7712C106.004 19.7712 110.416 22.3557 110.564 20.4236C110.564 20.4236 115.132 21.9778 114.93 19.6349C114.93 19.6349 119.23 17.1629 113.353 16.0257C113.353 16.0257 112.589 11.5995 107.691 13.8538C107.691 13.8538 106.287 10.6102 102.08 13.9486C101.657 13.7951 101.206 13.7336 100.758 13.7682C100.309 13.8028 99.8729 13.9327 99.4784 14.1492C99.0839 14.3657 98.7402 14.6639 98.4701 15.0237C98.2 15.3836 98.0098 15.797 97.9121 16.2362C97.9121 16.2362 94.3983 17.1365 95.4755 20.2879C95.4755 20.2879 91.818 22.3922 94.2368 23.6106C94.2368 23.6106 91.5794 27.0381 93.8782 27.4212C93.8782 27.4212 93.2795 31.1331 95.1775 30.0322C95.1775 30.0322 94.9142 34.7381 97.6259 34.0136C97.6259 34.0136 97.9064 37.806 99.2137 36.1957C100.097 34.5999 100.546 32.8001 100.516 30.9763Z" fill="#263238"/>
<path d="M96.5714 31.1523C97.0133 32.5055 97.937 33.6492 99.1669 34.3661C100.776 35.2658 102.043 33.8914 101.912 32.1254C101.781 30.3595 100.713 28.1099 98.9542 27.9488C97.1958 27.7878 96.0688 29.4721 96.5714 31.1523Z" fill="#EEC1BB"/>
<path d="M108.777 28.1246C108.813 28.6168 109.079 29.0629 109.397 29.0393C109.716 29.0158 110.008 28.6448 109.999 28.1216C109.989 27.5983 109.726 27.1812 109.378 27.2069C109.031 27.2326 108.767 27.6014 108.777 28.1246Z" fill="#263238"/>
<path d="M114.61 28.2755C114.646 28.7677 114.881 29.1869 115.23 29.1902C115.58 29.1934 115.811 28.7689 115.83 28.2435C115.849 27.7181 115.53 27.3342 115.209 27.3288C114.889 27.3234 114.6 27.7523 114.61 28.2755Z" fill="#263238"/>
<path d="M112.761 28.47C113.381 30.0679 114.217 31.5731 115.246 32.9435C114.895 33.1886 114.493 33.3527 114.071 33.4242C113.648 33.4957 113.215 33.4728 112.803 33.3571L112.761 28.47Z" fill="#D4827D"/>
<path d="M107.441 26.5931C107.395 26.6103 107.344 26.614 107.296 26.6038C107.257 26.5998 107.22 26.5879 107.185 26.569C107.151 26.55 107.121 26.5243 107.097 26.4935C107.073 26.4626 107.056 26.4273 107.046 26.3895C107.035 26.3517 107.033 26.3122 107.039 26.2735C107.119 25.8035 107.313 25.3604 107.605 24.9835C107.897 24.6065 108.278 24.3072 108.713 24.1121C108.75 24.0961 108.79 24.0878 108.83 24.088C108.87 24.0882 108.91 24.0968 108.947 24.1133C108.984 24.1297 109.017 24.1537 109.044 24.1836C109.071 24.2135 109.091 24.2487 109.104 24.287C109.129 24.3623 109.124 24.444 109.092 24.5163C109.06 24.5886 109.002 24.6464 108.929 24.6783C108.585 24.8307 108.284 25.0654 108.052 25.3618C107.82 25.6582 107.665 26.007 107.6 26.3776C107.589 26.4222 107.569 26.4642 107.542 26.5012C107.514 26.5382 107.48 26.5694 107.441 26.5931Z" fill="#263238"/>
<path d="M117.193 26.2219C117.097 26.1972 117.011 26.1423 116.949 26.0654C116.75 25.7365 116.478 25.4574 116.155 25.2492C115.832 25.0411 115.466 24.9094 115.084 24.8643C115.006 24.8438 114.937 24.7968 114.89 24.7312C114.843 24.6657 114.819 24.5857 114.825 24.505C114.838 24.4397 114.871 24.3802 114.92 24.3348C114.969 24.2895 115.031 24.2605 115.097 24.252C115.577 24.3021 116.038 24.4621 116.446 24.7197C116.854 24.9773 117.197 25.3256 117.448 25.7373C117.505 25.7875 117.54 25.8581 117.546 25.9339C117.552 26.0096 117.527 26.0846 117.478 26.1426C117.396 26.204 117.295 26.2323 117.193 26.2219Z" fill="#263238"/>
<path d="M112.996 35.5851C112.666 36.3796 112.396 37.1974 112.187 38.0318C112.042 38.0425 111.897 38.0533 111.753 38.064C109.7 37.8664 108.772 37.1201 108.451 36.3287C108.34 35.9238 108.309 35.5009 108.359 35.0839C108.371 34.8438 108.412 34.6062 108.482 34.3762C109.693 35.0471 111.033 35.4539 112.412 35.5701C112.733 35.5755 112.996 35.5851 112.996 35.5851Z" fill="#263238"/>
<path d="M112.291 35.5204L112.053 36.2366C110.683 36.274 109.339 35.8506 108.238 35.0342C108.25 34.7942 108.291 34.5565 108.36 34.3266C109.572 34.9974 110.911 35.4042 112.291 35.5204Z" fill="white"/>
<path d="M111.748 38.0067C109.696 37.8092 108.768 37.0628 108.447 36.2715C109.227 36.3356 109.986 36.5567 110.678 36.9215C111.142 37.1596 111.517 37.5399 111.748 38.0067Z" fill="#DE5753"/>
</g>
<path d="M163.502 64.0853L144.126 54.3822L160.526 45.8232L163.502 64.0853Z" fill="#838383"/>
<path opacity="0.3" d="M144.126 54.3822L160.526 45.8232L147.837 56.2353L144.126 54.3822Z" fill="black"/>
<path opacity="0.3" d="M163.502 64.0853L160.526 45.8232L159.788 62.2225L163.502 64.0853Z" fill="black"/>
<path opacity="0.3" d="M152.157 58.3976L160.526 45.8232L155.746 60.2053L152.157 58.3976Z" fill="black"/>
<path opacity="0.2" d="M147.837 56.2353L160.526 45.8232L152.157 58.3976L147.837 56.2353Z" fill="black"/>
<path opacity="0.2" d="M159.788 62.2225L155.746 60.2053L160.526 45.8232L159.788 62.2225Z" fill="black"/>
<path d="M145.116 32.8534C144.747 32.5821 144.334 32.3754 143.896 32.2421L142.528 31.8184L139.487 33.3832L147.631 36.3918C147.822 36.4602 148.026 36.4887 148.229 36.4759C148.432 36.463 148.631 36.4089 148.812 36.3169L149.086 36.1708C149.125 36.1508 149.159 36.1212 149.183 36.0848C149.208 36.0484 149.223 36.0063 149.227 35.9625C149.231 35.9188 149.223 35.8747 149.206 35.8345C149.188 35.7943 149.16 35.7592 149.125 35.7326L145.116 32.8534Z" fill="#FFC100"/>
<path opacity="0.3" d="M145.116 32.8534C144.747 32.5821 144.334 32.3754 143.896 32.2421L142.528 31.8184L139.487 33.3832L147.631 36.3918C147.822 36.4602 148.026 36.4887 148.229 36.4759C148.432 36.463 148.631 36.4089 148.812 36.3169L149.086 36.1708C149.125 36.1508 149.159 36.1212 149.183 36.0848C149.208 36.0484 149.223 36.0063 149.227 35.9625C149.231 35.9188 149.223 35.8747 149.206 35.8345C149.188 35.7943 149.16 35.7592 149.125 35.7326L145.116 32.8534Z" fill="white"/>
<path d="M144.38 26.0504L139.845 13.7969L136.931 15.2829L138.07 29.8024L144.713 26.7027L144.38 26.0504Z" fill="#FFC100"/>
<path opacity="0.6" d="M144.38 26.0504L139.845 13.7969L136.931 15.2829L138.07 29.8024L144.713 26.7027L144.38 26.0504Z" fill="white"/>
<path d="M163.425 28.8708L189.662 37.2451C190.049 37.3719 190.465 37.3777 190.855 37.2616L191.598 37.047C191.695 37.0157 191.782 36.9593 191.851 36.8834C191.919 36.8076 191.967 36.7149 191.988 36.6149C192.009 36.5148 192.003 36.411 191.971 36.3138C191.94 36.2167 191.883 36.1297 191.806 36.0617C191.601 35.8926 191.328 35.6875 190.968 35.4444C189.49 34.4586 173.324 23.8239 173.324 23.8239L163.425 28.8708Z" fill="#FFC100"/>
<path opacity="0.3" d="M163.425 28.8708L189.662 37.2451C190.049 37.3719 190.465 37.3777 190.855 37.2616L191.598 37.047C191.695 37.0157 191.782 36.9593 191.851 36.8834C191.919 36.8076 191.967 36.7149 191.988 36.6149C192.009 36.5148 192.003 36.411 191.971 36.3138C191.94 36.2167 191.883 36.1297 191.806 36.0617C191.601 35.8926 191.328 35.6875 190.968 35.4444C189.49 34.4586 173.324 23.8239 173.324 23.8239L163.425 28.8708Z" fill="white"/>
<path d="M133.877 32.4484C133.798 32.6313 133.761 32.8298 133.77 33.029C133.778 33.2282 133.832 33.4229 133.926 33.5985C134.02 33.7741 134.153 33.926 134.315 34.0428C134.476 34.1597 134.662 34.2385 134.859 34.2732C138.349 34.877 150.852 36.1777 167.582 27.6262C186.536 17.8885 190.776 13.8205 189.92 11.1635C189.846 10.9456 189.735 10.7421 189.592 10.5619C188.694 9.38703 184.711 4.97415 176.378 9.23764L138.168 28.8267C138.168 28.8267 134.743 30.5179 133.877 32.4484Z" fill="#FFC100"/>
<path d="M145.449 25.1017L176.415 9.27125C184.749 4.9978 188.761 9.42332 189.629 10.5955C189.772 10.7757 189.883 10.9793 189.957 11.1971C190.816 13.8243 186.574 17.9221 167.612 27.6291C150.893 36.1715 138.388 34.8807 134.888 34.276C134.692 34.2413 134.506 34.1625 134.345 34.0457C134.183 33.9288 134.05 33.7769 133.956 33.6013C133.861 33.4257 133.808 33.231 133.8 33.0318C133.791 32.8326 133.828 32.6341 133.907 32.4512C134.773 30.5208 138.248 28.824 138.248 28.824L145.449 25.1017Z" fill="#FFC100"/>
<path opacity="0.1" d="M175.302 16.882C161.593 24.2081 143.396 32.4474 136.068 34.4516C140.714 35.0385 152.41 35.3834 167.572 27.6252C186.461 17.9518 190.743 13.8576 189.925 11.224C188.016 11.2338 183.939 12.2541 175.302 16.882Z" fill="black"/>
<path d="M153.641 25.2235L160.427 21.7552C160.771 21.5818 161.039 21.29 161.184 20.9337C161.328 20.5775 161.339 20.181 161.213 19.8175C160.985 19.2894 160.635 18.8229 160.191 18.4568C159.747 18.0906 159.223 17.8351 158.661 17.7114L121.053 8.04759C120.814 7.97993 120.564 7.95754 120.316 7.98157L117.487 8.30038C117.439 8.30654 117.395 8.32867 117.362 8.36313C117.329 8.39758 117.309 8.4423 117.304 8.48989C117.3 8.53748 117.312 8.5851 117.339 8.62489C117.365 8.66468 117.404 8.69425 117.45 8.70874L153.641 25.2235Z" fill="#FFC100"/>
<path opacity="0.3" d="M153.641 25.2235L160.427 21.7552C160.771 21.5818 161.039 21.29 161.184 20.9337C161.328 20.5775 161.339 20.181 161.213 19.8175C160.985 19.2894 160.635 18.8229 160.191 18.4568C159.747 18.0906 159.223 17.8351 158.661 17.7114L121.053 8.04759C120.814 7.97993 120.564 7.95754 120.316 7.98157L117.487 8.30038C117.439 8.30654 117.395 8.32867 117.362 8.36313C117.329 8.39758 117.309 8.4423 117.304 8.48989C117.3 8.53748 117.312 8.5851 117.339 8.62489C117.365 8.66468 117.404 8.69425 117.45 8.70874L153.641 25.2235Z" fill="white"/>
<g opacity="0.7">
<path d="M143.573 28.4479C143.342 28.5578 143.155 28.4105 143.148 28.1488L143.132 27.6554C143.13 27.5142 143.164 27.3748 143.231 27.2506C143.299 27.1265 143.397 27.0219 143.517 26.9469C143.737 26.8362 143.925 26.9835 143.932 27.2452L143.958 27.7395C143.958 27.8803 143.923 28.0191 143.856 28.1429C143.789 28.2667 143.691 28.3716 143.573 28.4479Z" fill="black"/>
<path d="M145.102 27.6312C144.88 27.7519 144.694 27.5947 144.686 27.343L144.671 26.8396C144.665 26.6992 144.698 26.5599 144.765 26.4368C144.833 26.3137 144.933 26.2114 145.055 26.1411C145.276 26.0204 145.463 26.1777 145.471 26.4293L145.486 26.9327C145.492 27.0731 145.459 27.2124 145.391 27.3355C145.324 27.4586 145.224 27.5609 145.102 27.6312Z" fill="black"/>
<path d="M146.73 26.8336C146.509 26.9443 146.321 26.797 146.315 26.5353L146.289 26.0411C146.289 25.9003 146.325 25.7619 146.392 25.6383C146.459 25.5146 146.556 25.4096 146.673 25.3326C146.904 25.2227 147.082 25.3691 147.098 25.6317L147.115 26.1251C147.119 26.2666 147.086 26.4068 147.018 26.5313C146.95 26.6558 146.851 26.7601 146.73 26.8336Z" fill="black"/>
<path d="M148.259 26.0166C148.037 26.1373 147.85 25.98 147.843 25.7284L147.818 25.2241C147.817 25.0846 147.852 24.9473 147.919 24.8251C147.986 24.7028 148.083 24.5998 148.201 24.5256C148.423 24.4049 148.61 24.5622 148.627 24.8147L148.642 25.3181C148.645 25.4579 148.611 25.596 148.544 25.7186C148.476 25.8411 148.378 25.9439 148.259 26.0166Z" fill="black"/>
<path d="M149.886 25.2183C149.666 25.3291 149.478 25.1818 149.46 24.9292L149.445 24.4258C149.446 24.2851 149.481 24.1467 149.548 24.0231C149.615 23.8994 149.712 23.7943 149.83 23.7173C150.051 23.6066 150.238 23.7539 150.255 24.0164L150.271 24.5098C150.272 24.6509 150.238 24.79 150.17 24.9139C150.103 25.0379 150.005 25.1427 149.886 25.2183Z" fill="black"/>
<path d="M161.864 19.0528C161.644 19.1635 161.456 19.0162 161.448 18.7645L161.423 18.2603C161.423 18.1208 161.457 17.9834 161.525 17.8612C161.592 17.739 161.689 17.6359 161.807 17.5617C162.029 17.441 162.216 17.5983 162.233 17.8509L162.249 18.3443C162.253 18.4858 162.22 18.626 162.153 18.7505C162.085 18.875 161.985 18.9793 161.864 19.0528Z" fill="black"/>
<path d="M163.442 18.2499C163.221 18.3606 163.034 18.2133 163.017 17.9507L163.001 17.4573C163 17.3163 163.034 17.1772 163.102 17.0532C163.169 16.9293 163.267 16.8245 163.386 16.7488C163.607 16.6381 163.794 16.7854 163.812 17.038L163.827 17.5414C163.826 17.6821 163.791 17.8205 163.724 17.9441C163.657 18.0678 163.56 18.1728 163.442 18.2499Z" fill="black"/>
<path d="M165.021 17.4375C164.799 17.5582 164.612 17.4009 164.595 17.1484L164.58 16.645C164.579 16.5055 164.614 16.3682 164.681 16.246C164.748 16.1237 164.846 16.0207 164.964 15.9465C165.185 15.8258 165.372 15.9831 165.39 16.2356L165.405 16.739C165.405 16.8785 165.371 17.0158 165.303 17.138C165.236 17.2603 165.139 17.3633 165.021 17.4375Z" fill="black"/>
<path d="M166.599 16.6356C166.378 16.7463 166.19 16.599 166.174 16.3364L166.158 15.843C166.153 15.7015 166.187 15.5613 166.254 15.4368C166.322 15.3123 166.421 15.208 166.543 15.1345C166.763 15.0238 166.951 15.1711 166.958 15.4328L166.984 15.9271C166.983 16.0678 166.948 16.2062 166.881 16.3298C166.813 16.4535 166.717 16.5585 166.599 16.6356Z" fill="black"/>
<path d="M168.178 15.8224C167.946 15.9422 167.759 15.7849 167.752 15.5332L167.737 15.0299C167.734 14.89 167.768 14.752 167.835 14.6294C167.903 14.5068 168.001 14.4041 168.12 14.3313C168.342 14.2106 168.529 14.3679 168.536 14.6196L168.561 15.1238C168.562 15.2633 168.527 15.4007 168.46 15.5229C168.393 15.6451 168.296 15.7482 168.178 15.8224Z" fill="black"/>
<path d="M169.881 14.961C169.66 15.0717 169.473 14.9244 169.455 14.6718L169.44 14.1685C169.439 14.029 169.474 13.8916 169.541 13.7694C169.609 13.6472 169.706 13.5441 169.824 13.4699C170.046 13.3492 170.232 13.5065 170.25 13.7591L170.266 14.2525C170.267 14.3935 170.233 14.5326 170.165 14.6566C170.098 14.7805 170 14.8853 169.881 14.961Z" fill="black"/>
<path d="M171.439 14.1571C171.218 14.2678 171.031 14.1205 171.014 13.858L170.998 13.3646C170.997 13.2235 171.031 13.0844 171.099 12.9605C171.166 12.8365 171.264 12.7317 171.383 12.6561C171.604 12.5453 171.791 12.6927 171.809 12.9452L171.824 13.4486C171.823 13.5893 171.788 13.7277 171.721 13.8514C171.654 13.975 171.557 14.0801 171.439 14.1571Z" fill="black"/>
<path d="M173.038 13.3468C172.817 13.4575 172.629 13.3102 172.612 13.0576L172.597 12.5543C172.594 12.4145 172.628 12.2764 172.695 12.1538C172.763 12.0312 172.861 11.9285 172.981 11.8557C173.202 11.735 173.389 11.8923 173.396 12.144L173.422 12.6483C173.422 12.7877 173.387 12.9251 173.32 13.0473C173.253 13.1695 173.156 13.2726 173.038 13.3468Z" fill="black"/>
<path d="M174.596 12.5419C174.365 12.6517 174.177 12.5044 174.171 12.2428L174.184 11.762C174.179 11.6204 174.213 11.4802 174.28 11.3557C174.348 11.2312 174.447 11.127 174.568 11.0535C174.789 10.9427 174.977 11.0901 174.983 11.3517L175.009 11.846C175.004 11.9872 174.963 12.1248 174.891 12.2464C174.819 12.3679 174.717 12.4694 174.596 12.5419Z" fill="black"/>
<path d="M176.194 11.7318C175.973 11.8525 175.786 11.6952 175.779 11.4436L175.763 10.9402C175.758 10.7998 175.79 10.6605 175.858 10.5374C175.926 10.4143 176.026 10.312 176.147 10.2417C176.369 10.121 176.556 10.2782 176.563 10.5299L176.578 11.0333C176.584 11.1737 176.551 11.3129 176.484 11.4361C176.416 11.5592 176.316 11.6615 176.194 11.7318Z" fill="black"/>
</g>
<path opacity="0.7" d="M182.535 8.20265C181.996 8.43704 181.51 8.77974 181.109 9.20948C181.109 9.20948 181.771 9.10811 182.721 9.03261L182.535 8.20265Z" fill="black"/>
<g opacity="0.7">
<path d="M184.881 8.91567C185.803 8.90348 186.724 8.986 187.63 9.16192C186.771 8.53562 185.775 8.12293 184.725 7.95801L184.881 8.91567Z" fill="black"/>
<path d="M184.19 7.87978C183.789 7.87295 183.388 7.92503 183.002 8.03436L183.218 8.98741L184.327 8.92619L184.19 7.87978Z" fill="black"/>
</g>
<path d="M152.014 14.5751C149.952 15.8226 147.96 17.1826 146.047 18.6489C145.839 19.4815 145.95 20.3616 146.358 21.1165C146.738 21.8969 147.403 22.5024 148.215 22.8089C150.519 22.1079 152.784 21.2853 155.002 20.3446C156.2 19.7391 156.511 17.9497 155.687 16.39C154.863 14.8302 153.204 13.9588 152.014 14.5751Z" fill="#FFC100"/>
<path opacity="0.1" d="M152.014 14.5751C149.952 15.8226 147.96 17.1826 146.047 18.6489C145.839 19.4815 145.95 20.3616 146.358 21.1165C146.738 21.8969 147.403 22.5024 148.215 22.8089C150.519 22.1079 152.784 21.2853 155.002 20.3446C156.2 19.7391 156.511 17.9497 155.687 16.39C154.863 14.8302 153.204 13.9588 152.014 14.5751Z" fill="black"/>
<path opacity="0.7" d="M155.219 16.5798C155.868 17.8528 155.62 19.2763 154.662 19.7629C153.705 20.2494 152.416 19.6219 151.777 18.3498C151.138 17.0777 151.376 15.6533 152.333 15.1667C153.29 14.6802 154.56 15.3059 155.219 16.5798Z" fill="black"/>
<path d="M176.888 25.2874C175.023 26.4173 173.22 27.6467 171.488 28.9703C171.306 29.7304 171.401 30.5303 171.754 31.2275C172.107 31.9247 172.696 32.4739 173.416 32.7775C175.495 32.1314 177.537 31.3726 179.533 30.5042C180.586 29.956 180.902 28.3377 180.157 26.8955C179.413 25.4534 177.972 24.7319 176.888 25.2874Z" fill="#FFC100"/>
<path opacity="0.1" d="M176.888 25.2874C175.023 26.4173 173.22 27.6467 171.488 28.9703C171.306 29.7304 171.401 30.5303 171.754 31.2275C172.107 31.9247 172.696 32.4739 173.416 32.7775C175.495 32.1314 177.537 31.3726 179.533 30.5042C180.586 29.956 180.902 28.3377 180.157 26.8955C179.413 25.4534 177.972 24.7319 176.888 25.2874Z" fill="black"/>
<path opacity="0.7" d="M179.838 27.0978C179.91 27.4315 179.887 27.7786 179.772 28.0999C179.657 28.4213 179.455 28.7041 179.188 28.9164C178.92 29.1287 178.599 29.2621 178.26 29.3014C177.921 29.3407 177.578 29.2844 177.269 29.1389C176.96 28.9934 176.699 28.7644 176.513 28.4779C176.328 28.1914 176.226 27.8587 176.22 27.5175C176.213 27.1762 176.303 26.84 176.477 26.5468C176.652 26.2536 176.905 26.0151 177.208 25.8583C177.722 25.6908 178.28 25.7258 178.769 25.9562C179.258 26.1866 179.64 26.595 179.838 27.0978Z" fill="black"/>
<path d="M138.102 30.4573L125.733 26.6485C125.487 26.5762 125.23 26.5532 124.976 26.5807L123.404 26.7512C123.331 26.7664 123.264 26.805 123.214 26.8611C123.164 26.9172 123.133 26.9878 123.127 27.0627C123.12 27.1375 123.137 27.2125 123.177 27.2766C123.216 27.3407 123.275 27.3904 123.344 27.4185L135.386 31.8606L138.102 30.4573Z" fill="#FFC100"/>
<path opacity="0.4" d="M138.102 30.4573L125.733 26.6485C125.487 26.5762 125.23 26.5532 124.976 26.5807L123.404 26.7512C123.331 26.7664 123.264 26.805 123.214 26.8611C123.164 26.9172 123.133 26.9878 123.127 27.0627C123.12 27.1375 123.137 27.2125 123.177 27.2766C123.216 27.3407 123.275 27.3904 123.344 27.4185L135.386 31.8606L138.102 30.4573Z" fill="white"/>
<path d="M111.283 47.8488C111.313 48.2541 113.167 54.0261 107.892 54.7364C102.618 55.4467 98.6813 50.2363 97.8677 48.288C102.439 48.2993 100.762 32.3262 100.762 32.3262L104.343 35.8746L109.243 40.7227C109.243 40.7227 107.756 47.382 111.283 47.8488Z" fill="#EEC1BB"/>
<path opacity="0.1" d="M109.533 46.6099C108.838 44.7608 108.689 42.751 109.104 40.8199C107.105 39.3668 105.272 38.1925 105.272 38.1925L103.534 37.9135L102.418 38.5782C102.812 40.4162 103.674 42.1214 104.921 43.5285C106.167 44.9357 107.756 45.9971 109.533 46.6099Z" fill="black"/>
<path d="M98.9467 25.8821C99.4156 32.2221 99.3133 35.9556 102.527 39.2691C103.559 40.3706 104.874 41.1677 106.327 41.5735C107.781 41.9793 109.318 41.9783 110.771 41.5706C112.225 41.1628 113.538 40.364 114.568 39.2612C115.599 38.1583 116.307 36.7938 116.615 35.3164C117.945 29.6874 117.015 20.2668 110.791 17.5834C109.463 16.9582 107.993 16.6951 106.531 16.8206C105.068 16.9461 103.665 17.4559 102.463 18.2982C101.26 19.1405 100.302 20.2855 99.6847 21.6172C99.0673 22.949 98.8127 24.4203 98.9467 25.8821Z" fill="#EEC1BB"/>
<path d="M100.517 30.9763C100.517 30.9763 103.361 30.0674 102.383 26.2974C101.406 22.5273 105.032 22.754 106.005 19.7712C106.005 19.7712 110.417 22.3557 110.565 20.4236C110.565 20.4236 115.134 21.9778 114.931 19.6349C114.931 19.6349 119.231 17.1629 113.354 16.0257C113.354 16.0257 112.59 11.5995 107.692 13.8538C107.692 13.8538 106.288 10.6102 102.081 13.9486C101.658 13.7951 101.207 13.7336 100.759 13.7682C100.31 13.8028 99.8741 13.9327 99.4796 14.1492C99.0852 14.3657 98.7414 14.6639 98.4713 15.0237C98.2012 15.3836 98.011 15.797 97.9133 16.2362C97.9133 16.2362 94.3995 17.1365 95.4768 20.2879C95.4768 20.2879 91.8192 22.3922 94.238 23.6106C94.238 23.6106 91.5807 27.0381 93.8794 27.4212C93.8794 27.4212 93.2807 31.1331 95.1787 30.0322C95.1787 30.0322 94.9154 34.7381 97.6272 34.0136C97.6272 34.0136 97.9077 37.806 99.2149 36.1957C100.098 34.5999 100.547 32.8001 100.517 30.9763Z" fill="#263238"/>
<path d="M96.5722 31.1523C97.0141 32.5055 97.9377 33.6492 99.1676 34.3661C100.777 35.2658 102.043 33.8914 101.913 32.1254C101.782 30.3595 100.713 28.1099 98.955 27.9488C97.1966 27.7878 96.0695 29.4721 96.5722 31.1523Z" fill="#EEC1BB"/>
<path d="M108.778 28.1246C108.814 28.6168 109.08 29.0629 109.398 29.0393C109.717 29.0158 110.009 28.6448 110 28.1216C109.99 27.5983 109.727 27.1812 109.379 27.2069C109.032 27.2326 108.768 27.6014 108.778 28.1246Z" fill="#263238"/>
<path d="M114.611 28.2765C114.647 28.7686 114.882 29.1879 115.231 29.1912C115.581 29.1944 115.812 28.7699 115.831 28.2445C115.85 27.7191 115.531 27.3352 115.21 27.3298C114.89 27.3244 114.601 27.7533 114.611 28.2765Z" fill="#263238"/>
<path d="M112.762 28.4709C113.382 30.0688 114.218 31.5741 115.247 32.9445C114.895 33.1895 114.494 33.3537 114.071 33.4252C113.649 33.4967 113.216 33.4738 112.803 33.3581L112.762 28.4709Z" fill="#630F0F"/>
<path d="M107.441 26.5931C107.395 26.6103 107.345 26.614 107.297 26.6038C107.258 26.5998 107.22 26.5879 107.186 26.569C107.152 26.55 107.122 26.5243 107.098 26.4935C107.074 26.4626 107.056 26.4273 107.046 26.3895C107.036 26.3517 107.034 26.3122 107.039 26.2735C107.119 25.8035 107.314 25.3604 107.606 24.9835C107.898 24.6065 108.278 24.3072 108.713 24.1121C108.75 24.0961 108.79 24.0878 108.83 24.088C108.871 24.0882 108.911 24.0968 108.947 24.1133C108.984 24.1297 109.017 24.1537 109.044 24.1836C109.071 24.2135 109.092 24.2487 109.105 24.287C109.129 24.3623 109.125 24.444 109.093 24.5163C109.06 24.5886 109.002 24.6464 108.93 24.6783C108.586 24.8307 108.284 25.0654 108.053 25.3618C107.821 25.6582 107.665 26.007 107.6 26.3776C107.589 26.4222 107.569 26.4642 107.542 26.5012C107.515 26.5382 107.481 26.5694 107.441 26.5931Z" fill="#263238"/>
<path d="M117.193 26.2219C117.097 26.1972 117.011 26.1423 116.949 26.0654C116.75 25.7365 116.479 25.4574 116.155 25.2492C115.832 25.0411 115.466 24.9094 115.084 24.8643C115.006 24.8438 114.937 24.7968 114.89 24.7312C114.843 24.6657 114.82 24.5857 114.825 24.505C114.838 24.4397 114.872 24.3802 114.92 24.3348C114.969 24.2895 115.031 24.2605 115.097 24.252C115.577 24.3021 116.039 24.4621 116.447 24.7197C116.854 24.9773 117.197 25.3256 117.448 25.7373C117.505 25.7875 117.541 25.8581 117.546 25.9339C117.552 26.0096 117.527 26.0846 117.478 26.1426C117.397 26.204 117.295 26.2323 117.193 26.2219Z" fill="#263238"/>
<path d="M112.996 35.5851C112.667 36.3796 112.396 37.1974 112.188 38.0318C112.043 38.0425 111.898 38.0533 111.753 38.064C109.701 37.8664 108.773 37.1201 108.452 36.3287C108.341 35.9238 108.309 35.5009 108.36 35.0839C108.371 34.8438 108.412 34.6062 108.482 34.3762C109.694 35.0471 111.033 35.4539 112.413 35.5701C112.734 35.5755 112.996 35.5851 112.996 35.5851Z" fill="#263238"/>
<path d="M112.292 35.5204L112.054 36.2366C110.683 36.274 109.34 35.8506 108.239 35.0342C108.25 34.7942 108.291 34.5565 108.361 34.3266C109.573 34.9974 110.912 35.4042 112.292 35.5204Z" fill="white"/>
<path d="M111.749 38.0057C109.697 37.8082 108.768 37.0618 108.448 36.2705C109.228 36.3346 109.987 36.5557 110.679 36.9205C111.143 37.1586 111.518 37.539 111.749 38.0057Z" fill="#DE5753"/>
</g>
<defs>
<clipPath id="clip0_512_39060">
<rect width="210" height="140" fill="white"/>
</clipPath>
</defs>
</svg>
