<svg width="210" height="140" viewBox="0 0 210 140" fill="none" xmlns="http://www.w3.org/2000/svg">
<g clip-path="url(#clip0_512_34615)">
<path fill-rule="evenodd" clip-rule="evenodd" d="M101.556 136.856C74.6424 135.162 59.4548 115.736 41.6897 101.21C25.7763 88.1974 8.09132 75.6763 5.71719 58.4892C3.11806 39.673 6.89049 17.2686 28.5968 6.42583C49.3756 -3.95358 76.808 6.65259 101.556 10.6156C118.702 13.3612 132.946 18.7794 147.773 25.5095C169.744 35.4825 201.566 40.3205 207.026 58.4892C212.775 77.6221 191.997 95.3594 173.003 109.473C153.536 123.936 129.55 138.617 101.556 136.856Z" fill="#FFECB2"/>
<path d="M68.5598 49.5279C68.8121 49.4933 69.0663 49.4743 69.321 49.4711C73.047 45.8529 76.8242 43.5412 79.4995 43.5412C81.4307 43.5412 82.4872 44.7453 82.6746 46.7901C89.644 39.764 96.8349 35.1973 101.85 35.1973C105.889 35.1973 107.769 38.1679 107.53 43.0129C110.984 40.2581 114.272 38.6053 116.777 38.6053C121.174 38.6053 121.855 43.7173 119.01 50.9138C121.85 49.3064 124.553 48.3124 126.865 48.1533C131.409 47.8296 133.403 50.7605 132.801 55.5373C133.807 54.8073 134.977 54.3353 136.209 54.1628C138.691 53.9867 138.969 56.6222 136.958 60.1495H53.292C57.1601 54.8103 63.817 50.13 68.5598 49.5279Z" fill="#F0F0F0"/>
<path d="M133.544 43.6832L132.533 45.1998C132.193 45.728 131.835 46.2506 131.494 46.7902C130.801 47.858 130.136 48.9486 129.483 50.0448C128.83 51.1411 128.194 52.243 127.603 53.3676L126.723 55.0716L126.302 55.9236L126.109 56.3155C126.109 56.3553 126.064 56.3894 126.041 56.4348C125.8 57.1932 125.755 58.0002 125.911 58.7807C126.076 59.9201 126.346 61.0418 126.717 62.1319C127.551 64.5394 128.531 66.8935 129.654 69.1807L126.484 71.5152C125.477 70.4803 124.541 69.3777 123.684 68.2151C122.809 67.0453 122.013 65.8175 121.304 64.5402C120.539 63.1776 119.923 61.7359 119.469 60.2404C119.221 59.3932 119.056 58.5238 118.975 57.6447C118.868 56.6108 118.935 55.5663 119.174 54.5547C119.242 54.2764 119.333 53.9867 119.424 53.7141L119.617 53.1461L119.981 52.1237C120.236 51.4535 120.492 50.7775 120.781 50.1243C121.349 48.8009 121.946 47.5059 122.599 46.2335C123.252 44.9612 123.962 43.723 124.712 42.5018C125.093 41.894 125.479 41.2863 125.888 40.6955C126.098 40.3945 126.297 40.0991 126.518 39.8038L127.217 38.8779L133.544 43.6832Z" fill="#EBEBEB"/>
<path d="M128.478 37.1851C126.479 39.1845 125.007 42.0756 123.82 44.2397L130.494 49.9197C133.221 46.8525 137.674 40.8317 137.657 37.9917C137.623 33.7942 132.704 32.999 128.478 37.1851Z" fill="#FFC100"/>
<path d="M129.352 71.0446L133.709 71.8853C134.246 71.9908 134.755 72.2108 135.2 72.5303C135.645 72.8498 136.016 73.2613 136.288 73.7369L137.486 75.8385L140.536 73.2712C141.195 72.7205 142.014 72.3977 142.871 72.351L153.731 71.8171C153.992 69.8177 153.788 63.263 154.537 54.9475C155.053 48.7707 156.143 42.6554 157.792 36.6806C157.843 36.5108 157.857 36.3321 157.835 36.1562C157.812 35.9804 157.753 35.8112 157.661 35.6597C157.569 35.5082 157.446 35.3777 157.3 35.2766C157.155 35.1756 156.989 35.1063 156.815 35.0732C156.361 34.9823 155.815 34.8857 155.202 34.7835C153.742 34.5336 151.907 34.2723 150.09 34.136C146.645 33.8445 143.186 33.7345 139.73 33.8065C138.134 33.8917 136.566 34.0849 135.316 34.2666C134.3 34.42 133.868 34.3859 133.419 34.4938C133.024 34.6137 132.671 34.8444 132.402 35.1584C130.852 37.1464 124.967 46.5979 129.352 71.0446Z" fill="#EBEBEB"/>
<path d="M145.536 48.5268C146.185 43.5795 144.215 39.241 141.134 38.8365C138.053 38.432 135.029 42.1145 134.379 47.0618C133.73 52.009 135.701 56.3475 138.781 56.752C141.862 57.1566 144.886 53.474 145.536 48.5268Z" fill="#FFC100"/>
<path d="M156.781 35.0441C152.561 34.2944 150.607 37.0321 152.101 42.1896C153.204 45.7733 154.746 49.2072 156.69 52.4136L163.858 50.312C162.614 45.3192 159.61 35.544 156.781 35.0441Z" fill="#FFC100"/>
<path d="M148.494 22.1787L144.927 24.5757L140.088 27.8473C140.246 28.4488 140.366 29.0597 140.446 29.6763C140.77 32.1244 140.133 34.2657 136.203 34.7883C136.203 34.7883 133.545 37.6624 139.554 38.6791C147.319 39.9912 149.67 36.0549 149.67 36.0549C146.631 33.1297 147.586 26.0411 148.494 22.1787Z" fill="#FFB573"/>
<path d="M136.061 30.4321C134.896 29.8641 133.88 32.1361 134.158 33.1187C134.436 34.1014 133.357 33.1187 132.176 34.6239C130.994 36.1291 135.016 42.2692 140.559 45.5409C145.427 43.9278 149.29 41.4967 150.954 39.9802C152.425 38.6397 156.316 34.2434 154.742 33.7322C153.169 33.221 154.061 31.3011 152.55 30.4434C151.039 29.5858 142.616 33.6754 136.061 30.4321Z" fill="#FFC100"/>
<path opacity="0.7" d="M136.061 30.4321C134.896 29.8641 133.88 32.1361 134.158 33.1187C134.436 34.1014 133.357 33.1187 132.176 34.6239C130.994 36.1291 135.016 42.2692 140.559 45.5409C145.427 43.9278 149.29 41.4967 150.954 39.9802C152.425 38.6397 156.316 34.2434 154.742 33.7322C153.169 33.221 154.061 31.3011 152.55 30.4434C151.039 29.5858 142.616 33.6754 136.061 30.4321Z" fill="white"/>
<path opacity="0.4" d="M135.266 33.8398C136.277 34.902 142.689 35.9301 148.171 34.7202C143.201 36.2822 136.919 36.3504 135.266 33.8398Z" fill="#FFC100"/>
<path opacity="0.4" d="M141.599 40.361C141.599 40.361 145.643 39.793 148.415 37.8164C147.017 39.1342 145.347 40.7757 141.599 40.361Z" fill="#FFC100"/>
<path opacity="0.2" d="M140.088 27.8475C140.246 28.4489 140.365 29.0598 140.446 29.6765C142.28 29.5061 144.706 27.9725 144.922 26.2685C144.989 25.7025 144.989 25.1304 144.922 24.5645L140.088 27.8475Z" fill="black"/>
<path d="M139.315 12.2101C137.196 13.0621 135.725 18.8557 138.298 20.2189C140.871 21.5821 143.342 10.5913 139.315 12.2101Z" fill="#263238"/>
<path d="M148.443 18.9068C147.335 22.9624 146.892 25.382 144.376 27.1485C143.578 27.7381 142.633 28.0962 141.645 28.1833C140.657 28.2703 139.664 28.083 138.776 27.642C137.887 27.201 137.137 26.5233 136.609 25.6836C136.081 24.8439 135.795 23.8747 135.782 22.8828C135.669 19.0602 137.486 13.0735 141.866 12.0908C142.798 11.85 143.778 11.861 144.705 12.1228C145.632 12.3846 146.473 12.8877 147.142 13.5809C147.811 14.274 148.284 15.1323 148.512 16.068C148.741 17.0037 148.717 17.9834 148.443 18.9068Z" fill="#FFB573"/>
<path d="M139.593 17.6524C139.593 17.6524 137.889 16.3006 136.367 16.8743C136.367 16.8743 133.822 21.2081 138.974 19.8506C144.398 22.5656 144.932 17.8796 144.932 17.8796C141.689 16.5335 139.593 17.6524 139.593 17.6524Z" fill="#676767"/>
<path d="M153.947 14.8748C155.884 15.8404 153.947 20.1288 152.152 21.4124C149.716 23.1562 148.574 23.7299 147.279 22.5484C146.097 21.8896 144.138 17.8 146.268 15.3632C144.462 14.0625 138.356 16.6583 136.583 11.5065C135.788 9.20044 136.43 4.40651 142.519 7.13859C142.854 9.59803 146.359 10.2796 149.045 10.1888C153.084 10.0638 155.822 12.0632 153.947 14.8748Z" fill="#263238"/>
<path d="M139.173 13.3405C137.696 13.7551 136.037 12.6986 136.287 14.4765C136.339 14.6949 136.343 14.9221 136.296 15.1419C136.25 15.3616 136.156 15.5684 136.02 15.7472C135.884 15.926 135.71 16.0724 135.511 16.1758C135.311 16.2792 135.092 16.3371 134.867 16.3452C134.867 16.3452 136.986 16.2998 136.804 14.9138C136.622 13.5279 138.355 14.4538 139.826 14.6242C141.297 14.7946 140.002 13.1076 139.173 13.3405Z" fill="#263238"/>
<path d="M149.176 23.2128C148.473 23.9851 147.527 24.4941 146.495 24.6555C145.194 24.8202 144.967 23.6161 145.683 22.4857C146.33 21.469 147.784 20.1626 148.92 20.5091C150.056 20.8556 150.045 22.2415 149.176 23.2128Z" fill="#FFB573"/>
<path d="M141.979 18.8279C141.911 19.163 141.672 19.3959 141.456 19.3959C141.24 19.3959 141.116 19.0608 141.184 18.7313C141.252 18.4019 141.49 18.1633 141.706 18.1917C141.922 18.2201 142.047 18.5041 141.979 18.8279Z" fill="white"/>
<path d="M138.133 18.3167C138.059 18.6462 137.826 18.8847 137.611 18.8847C137.395 18.8847 137.27 18.5496 137.338 18.2145C137.406 17.8794 137.639 17.6465 137.861 17.6465C138.082 17.6465 138.201 17.9816 138.133 18.3167Z" fill="white"/>
<path d="M139.259 18.8047C138.643 19.7626 137.904 20.6354 137.061 21.4004C137.259 21.603 137.5 21.759 137.766 21.8572C138.033 21.9554 138.317 21.9934 138.6 21.9684L139.259 18.8047Z" fill="#ED847E"/>
<path d="M139.872 23.0764C140.267 23.0958 140.662 23.036 141.033 22.9004C141.405 22.7648 141.746 22.5562 142.036 22.2869C142.054 22.2678 142.064 22.2424 142.064 22.2159C142.064 22.1894 142.054 22.1639 142.036 22.1449C142.017 22.1265 141.991 22.1162 141.965 22.1162C141.938 22.1162 141.913 22.1265 141.894 22.1449C141.575 22.4318 141.195 22.6426 140.783 22.7617C140.37 22.8807 139.937 22.9048 139.514 22.8322C139.501 22.8297 139.487 22.8301 139.474 22.8331C139.461 22.8362 139.449 22.8419 139.438 22.8499C139.428 22.8579 139.419 22.868 139.412 22.8796C139.406 22.8912 139.402 22.9041 139.4 22.9174C139.398 22.9301 139.398 22.9431 139.401 22.9558C139.403 22.9684 139.408 22.9804 139.416 22.991C139.423 23.0016 139.433 23.0106 139.444 23.0175C139.455 23.0243 139.467 23.0289 139.48 23.031C139.609 23.054 139.74 23.0692 139.872 23.0764Z" fill="#263238"/>
<path d="M143.587 16.8798C143.619 16.8676 143.648 16.8482 143.672 16.823C143.709 16.7849 143.729 16.734 143.729 16.681C143.729 16.628 143.709 16.5771 143.672 16.539C143.439 16.3293 143.158 16.1798 142.854 16.1036C142.55 16.0273 142.232 16.0267 141.928 16.1016C141.903 16.1094 141.88 16.122 141.86 16.1388C141.839 16.1556 141.823 16.1762 141.811 16.1994C141.799 16.2226 141.791 16.248 141.789 16.2741C141.787 16.3003 141.789 16.3266 141.797 16.3515C141.804 16.3768 141.815 16.4005 141.831 16.421C141.847 16.4415 141.868 16.4585 141.891 16.4708C141.914 16.4831 141.939 16.4904 141.965 16.4924C141.991 16.4944 142.017 16.4909 142.042 16.4822C142.281 16.427 142.53 16.4308 142.767 16.4931C143.005 16.5555 143.224 16.6745 143.405 16.84C143.43 16.861 143.459 16.8755 143.491 16.8825C143.522 16.8894 143.555 16.8885 143.587 16.8798Z" fill="#263238"/>
<path d="M138.691 16.3688C138.676 16.34 138.654 16.3154 138.627 16.2975C138.601 16.2796 138.57 16.2689 138.537 16.2665C138.284 16.2471 138.038 16.1693 137.819 16.0392C137.6 15.9092 137.415 15.7304 137.276 15.5168C137.264 15.4936 137.248 15.4732 137.228 15.4566C137.208 15.44 137.185 15.4276 137.16 15.4201C137.135 15.4127 137.109 15.4104 137.083 15.4133C137.057 15.4163 137.032 15.4244 137.009 15.4373C136.963 15.4615 136.928 15.5032 136.912 15.5532C136.896 15.6032 136.9 15.6575 136.924 15.7042C137.09 15.9763 137.318 16.2051 137.59 16.372C137.861 16.5388 138.168 16.639 138.486 16.6641C138.513 16.6673 138.54 16.665 138.565 16.6575C138.591 16.65 138.615 16.6374 138.636 16.6204C138.656 16.6034 138.673 16.5825 138.686 16.5587C138.698 16.535 138.706 16.509 138.708 16.4824C138.714 16.4437 138.708 16.404 138.691 16.3688Z" fill="#263238"/>
<path d="M158.73 37.8164C159.474 39.1739 160.076 40.4462 160.684 41.7924C161.291 43.1386 161.82 44.4677 162.348 45.8422C162.876 47.2168 163.347 48.6084 163.762 50.0398C164.204 51.485 164.57 52.9525 164.858 54.4361L164.966 55.0041C165.006 55.2199 165.051 55.521 165.086 55.7709C165.12 56.0208 165.131 56.2991 165.148 56.5604C165.165 56.8195 165.165 57.0795 165.148 57.3386C165.116 58.3254 164.952 59.3035 164.66 60.2467C164.144 61.912 163.349 63.4774 162.308 64.8759C161.368 66.1442 160.302 67.3145 159.127 68.3691C158.559 68.886 157.991 69.3631 157.366 69.8289C156.742 70.2946 156.157 70.6979 155.441 71.1353L152.964 68.0738C153.328 67.6137 153.765 67.0684 154.146 66.5515C154.526 66.0346 154.918 65.4894 155.282 64.9611C155.986 63.9341 156.609 62.8535 157.145 61.7292C157.625 60.7645 157.954 59.732 158.122 58.6677C158.184 58.2516 158.184 57.8285 158.122 57.4124C158.118 57.3204 158.104 57.2291 158.082 57.1398C158.067 57.0532 158.046 56.9678 158.02 56.8842L157.804 56.1628C156.999 53.6545 156.065 51.1898 155.004 48.7788C154.47 47.5519 153.919 46.3194 153.356 45.0982L151.652 41.4857L158.73 37.8164Z" fill="#EBEBEB"/>
<path fill-rule="evenodd" clip-rule="evenodd" d="M101.556 136.856C74.6424 135.162 59.4548 115.736 41.6897 101.21C25.7763 88.1974 8.09132 75.6763 5.71719 58.4892C3.11806 39.673 6.89049 17.2686 28.5968 6.42583C49.3756 -3.95358 76.808 6.65259 101.556 10.6156C118.702 13.3612 132.946 18.7794 147.773 25.5095C169.744 35.4825 201.566 40.3205 207.026 58.4892C212.775 77.6221 191.997 95.3594 173.003 109.473C153.536 123.936 129.55 138.617 101.556 136.856Z" fill="#FFECB2"/>
<mask id="mask0_512_34615" style="mask-type:alpha" maskUnits="userSpaceOnUse" x="5" y="2" width="203" height="135">
<path fill-rule="evenodd" clip-rule="evenodd" d="M101.556 136.856C74.6424 135.162 59.4548 115.736 41.6897 101.21C25.7763 88.1974 8.09132 75.6763 5.71719 58.4892C3.11806 39.673 6.89049 17.2686 28.5968 6.42583C49.3756 -3.95358 76.808 6.65259 101.556 10.6156C118.702 13.3612 132.946 18.7794 147.773 25.5095C169.744 35.4825 201.566 40.3205 207.026 58.4892C212.775 77.6221 191.997 95.3594 173.003 109.473C153.536 123.936 129.55 138.617 101.556 136.856Z" fill="#FFECB2"/>
</mask>
<g mask="url(#mask0_512_34615)">
<path d="M40 58C52.1503 58 62 48.1503 62 36C62 23.8497 52.1503 14 40 14C27.8497 14 18 23.8497 18 36C18 48.1503 27.8497 58 40 58Z" fill="#FAFAFA"/>
<path d="M-9.80253 20.4771C-3.27581 12.0198 5.24067 6 11.5787 6C15.5411 6 17.8996 8.36803 18.5257 12.228C21.4331 10.0248 24.3834 8.75836 26.8277 8.75836C31.116 8.75836 32.6855 12.8265 31.116 18.5688C33.3492 17.3524 35.8028 16.6059 38.3288 16.3742C42.7372 16.1227 45.19 18.456 45.4473 22.2639C46.3811 21.6606 47.4413 21.2863 48.5435 21.171C51.1164 21.0235 51.7511 23.3829 50.0529 26.4362L49.7184 27H-20C-18.9708 23.9641 -12.9415 20.6245 -9.80253 20.4771Z" fill="#9C9C9C"/>
<path d="M61.1759 19.962C65.1287 14.7266 70.2866 11 74.1251 11C76.5249 11 77.9533 12.4659 78.3325 14.8554C80.0933 13.4915 81.8801 12.7076 83.3605 12.7076C85.9576 12.7076 86.9081 15.2259 85.9576 18.7807C87.3101 18.0277 88.796 17.5656 90.3259 17.4221C92.9958 17.2664 94.4813 18.7109 94.6371 21.0682C95.2026 20.6947 95.8447 20.463 96.5122 20.3916C98.0705 20.3003 98.4549 21.7608 97.4264 23.651L97.2238 24H55C55.6233 22.1206 59.2748 20.0533 61.1759 19.962Z" fill="#9C9C9C"/>
<path d="M46.7504 59.6514C51.0709 54.0132 56.7086 50 60.9042 50C63.5272 50 65.0885 51.5787 65.5029 54.152C67.4276 52.6832 69.3806 51.8389 70.9986 51.8389C73.8373 51.8389 74.8763 54.551 73.8373 58.3792C75.3157 57.5683 76.9398 57.0706 78.612 56.9162C81.5302 56.7485 83.154 58.304 83.3243 60.8426C83.9424 60.4404 84.6443 60.1909 85.3738 60.114C87.0771 60.0157 87.4972 61.5886 86.3731 63.6241L86.1516 64H40C40.6813 61.976 44.6725 59.7497 46.7504 59.6514Z" fill="#9C9C9C"/>
<path d="M153.652 102.619C158.434 96.4962 164.688 92.1396 169.312 92.1396C172.214 92.1396 173.941 93.8436 174.424 96.6496C176.554 95.0592 178.712 94.1049 180.501 94.1049C183.659 94.1049 184.795 97.0528 183.671 101.211C185.308 100.332 187.107 99.7925 188.959 99.6259C192.185 99.4385 193.997 101.131 194.173 103.886C194.859 103.451 195.637 103.179 196.445 103.091C198.302 102.983 198.791 104.692 197.547 106.908C197.467 107.05 197.388 107.18 197.308 107.317H146.188C146.938 105.147 151.351 102.727 153.652 102.619Z" fill="#FAFAFA"/>
<path d="M193.804 70.5275C193.939 70.5072 194.076 70.4977 194.213 70.4991C196.218 68.5509 198.251 67.307 199.694 67.307C200.733 67.307 201.301 67.9545 201.398 69.0507C205.152 65.2679 209.026 62.8027 211.724 62.8027C213.9 62.8027 214.911 64.3988 214.786 67.0059C216.643 65.5235 218.415 64.6374 219.761 64.6374C222.13 64.6374 222.499 67.3808 220.966 71.2603C222.25 70.4665 223.692 69.9608 225.191 69.7778C227.634 69.6017 228.713 71.1807 228.389 73.7538C228.929 73.3615 229.557 73.1079 230.218 73.0154C231.553 72.9188 231.706 74.3388 230.622 76.2359H185.579C187.664 73.3732 191.248 70.8513 193.804 70.5275Z" fill="#F5F5F5"/>
<path d="M61.8644 0.0100784H62.0745C63.1197 -1.00664 64.1818 -1.65416 64.9145 -1.65416C65.4541 -1.65416 65.7495 -1.31336 65.8063 -0.739681C67.7602 -2.71632 69.7823 -4 71.191 -4C72.327 -4 72.8552 -3.16504 72.7927 -1.80184C73.5068 -2.47647 74.4148 -2.90962 75.3885 -3.04008C76.621 -3.04008 76.8142 -1.60872 76.0133 0.413358C76.6842 0.00118732 77.4357 -0.262235 78.2171 -0.359123C79.4951 -0.450002 80.0574 0.3736 79.887 1.71976C80.1681 1.51369 80.496 1.38093 80.8413 1.33352C81.5399 1.2824 81.6194 2.0208 81.0514 3.03752H57.5703C58.6552 1.49256 60.5296 0.180478 61.8644 0.0100784Z" fill="#F5F5F5"/>
<path d="M23.4151 70.8333H23.6253C24.6761 69.8166 25.7326 69.1691 26.4653 69.1691C27.0333 69.1691 27.3002 69.5042 27.357 70.0779C29.311 68.1069 31.333 66.8232 32.7417 66.8232C33.8777 66.8232 34.4059 67.6582 34.3434 69.0214C35.309 68.2432 36.2349 67.7775 36.9392 67.7775C38.1718 67.7775 38.3649 69.2145 37.564 71.2366C38.2349 70.8244 38.9864 70.561 39.7678 70.4641C41.0458 70.3732 41.6082 71.1968 41.4378 72.5373C41.7201 72.3337 42.0475 72.2012 42.392 72.1511C43.0906 72.1056 43.1702 72.844 42.6022 73.8551H19.104C20.2059 72.3158 22.0803 71.0037 23.4151 70.8333Z" fill="#9C9C9C"/>
<path d="M185.532 46.2284C182.3 45.4218 180.283 43.7576 178 46.5692C181.181 44.3937 185.412 47.5745 185.412 47.5745C185.412 47.5745 190.132 45.1662 192.893 47.8585C191.126 44.6948 188.854 45.9898 185.532 46.2284Z" fill="#9C9C9C"/>
<path d="M200.43 55.4924C198.374 54.9755 197.096 53.9191 195.647 55.7083C197.664 54.3223 200.356 56.3444 200.356 56.3444C200.356 56.3444 203.35 54.8165 205.105 56.5262C203.98 54.5155 202.537 55.3391 200.43 55.4924Z" fill="#9C9C9C"/>
<path d="M37.3595 35.544C34.6615 34.8681 32.9803 33.4765 31.0718 35.828C33.73 34.0218 37.28 36.68 37.28 36.68C37.28 36.68 41.2219 34.6693 43.528 36.9186C42.0342 34.2774 40.12 35.3566 37.3595 35.544Z" fill="#E0E0E0"/>
<path d="M144.808 33.8684C138.816 33.2529 132.802 34.8023 127.853 38.2363C118.737 44.5525 106.94 55.1684 92.4669 71.8676C72.8141 94.5478 38.4615 77.0932 20.8989 94.7126C34.0992 95.0647 48.5208 104.55 51.764 118.887C55.0073 133.223 76.756 140.732 90.7516 139.67C104.747 138.608 138.997 158.3 150.119 137.858C158.383 122.664 170.607 82.3813 167.982 56.0658C167.431 50.4195 164.941 45.1383 160.937 41.1189C156.934 37.0996 151.662 34.5899 146.018 34.0161L144.808 33.8684Z" fill="#2D2D2D"/>
<path opacity="0.2" d="M90.3369 139.693H90.7231C92.4884 139.601 94.2584 139.708 95.9999 140.011C106.44 123.965 114.068 104.608 120.884 87.5791C112.221 105.798 102.001 123.234 90.3369 139.693Z" fill="#FFC100"/>
<path opacity="0.2" d="M54.377 124.897C55.2237 126.155 56.1962 127.323 57.2794 128.384C80.079 118.416 104.378 86.9203 113.983 65.6885C97.5563 91.7313 71.0194 113.094 54.377 124.897Z" fill="#FFC100"/>
<path d="M128.842 71.0273C128.842 71.0273 121.134 105.079 118.771 116.967C116.181 129.986 126.184 166.065 126.184 166.065L134.136 163.714C134.136 163.714 127.706 133.61 131.54 120.983C135.698 107.294 145.109 71.5669 145.109 71.5669L128.842 71.0273Z" fill="#FFC100"/>
<g opacity="0.5">
<path d="M128.842 71.0273C128.842 71.0273 121.134 105.079 118.771 116.967C116.181 129.986 126.184 166.065 126.184 166.065L134.136 163.714C134.136 163.714 127.706 133.61 131.54 120.983C135.698 107.294 145.109 71.5669 145.109 71.5669L128.842 71.0273Z" fill="black"/>
</g>
<path d="M119.702 138.551C120.208 142.697 125.127 165.088 125.735 166.951C126.342 168.814 123.65 174.278 121.304 176.902C119.64 178.759 123.326 179.742 125.848 177.902C130.04 174.812 133.102 170.694 135.669 168.961C137.248 167.894 136.686 165.042 134.817 162.935C133.88 161.878 130.875 136.807 130.551 135.046C130.227 133.285 122.809 136.989 121.071 140.567C120.282 137.784 119.197 134.376 119.702 138.551Z" fill="#FFC100"/>
<path opacity="0.2" d="M139.583 83.0633C132.397 91.5833 132.573 106.351 133.783 113.372C136.623 103.42 140.258 89.8736 142.644 80.9219C141.86 80.9162 140.855 81.5524 139.583 83.0633Z" fill="black"/>
<path d="M133.545 43.6842L132.534 45.2007C132.193 45.729 131.835 46.2516 131.494 46.7912C130.801 47.859 130.137 48.9495 129.483 50.0458C128.83 51.142 128.194 52.244 127.603 53.3686L126.723 55.0726L126.303 55.9246L126.11 56.3165C126.11 56.3563 126.064 56.3903 126.041 56.4358C125.8 57.1941 125.755 58.0012 125.911 58.7816C126.076 59.921 126.346 61.0428 126.717 62.1328C127.551 64.5404 128.532 66.8945 129.654 69.1817L126.484 71.5162C125.477 70.4813 124.541 69.3787 123.684 68.2161C122.809 67.0463 122.014 65.8185 121.304 64.5412C120.539 63.1785 119.924 61.7368 119.47 60.2414C119.221 59.3941 119.056 58.5248 118.975 57.6456C118.868 56.6118 118.936 55.5673 119.174 54.5557C119.242 54.2774 119.333 53.9877 119.424 53.7151L119.617 53.1471L119.981 52.1247C120.236 51.4544 120.492 50.7785 120.782 50.1253C121.35 48.8019 121.946 47.5068 122.599 46.2345C123.253 44.9622 123.963 43.7239 124.712 42.5027C125.093 41.895 125.479 41.2872 125.888 40.6965C126.098 40.3955 126.297 40.1001 126.519 39.8047L127.217 38.8789L133.545 43.6842Z" fill="#EBEBEB"/>
<path d="M128.478 37.1861C126.479 39.1855 125.008 42.0766 123.821 44.2407L130.495 49.9207C133.221 46.8535 137.674 40.8327 137.657 37.9927C137.623 33.7952 132.704 33 128.478 37.1861Z" fill="#FFC100"/>
<path d="M137.753 71.0957C137.753 71.0957 135.868 103.233 136.049 115.303C136.26 128.521 141.161 171.16 141.161 171.16L149.403 169.843C149.403 169.843 148.335 129.975 149.403 116.933C150.59 102.773 153.419 71.5955 153.419 71.5955L137.753 71.0957Z" fill="#FFC100"/>
<g opacity="0.5">
<path d="M137.753 71.0957C137.753 71.0957 135.868 103.233 136.049 115.303C136.26 128.521 141.161 171.16 141.161 171.16L149.403 169.843C149.403 169.843 148.335 129.975 149.403 116.933C150.59 102.773 153.419 71.5955 153.419 71.5955L137.753 71.0957Z" fill="black"/>
</g>
<path d="M129.353 71.0446L133.71 71.8853C134.247 71.9908 134.756 72.2108 135.201 72.5303C135.645 72.8498 136.016 73.2613 136.288 73.7369L137.487 75.8385L140.537 73.2712C141.195 72.7205 142.014 72.3977 142.871 72.351L153.732 71.8171C153.993 69.8177 153.788 63.263 154.538 54.9475C155.054 48.7707 156.143 42.6554 157.793 36.6806C157.844 36.5108 157.858 36.3321 157.836 36.1562C157.813 35.9804 157.754 35.8112 157.662 35.6597C157.57 35.5082 157.447 35.3777 157.301 35.2766C157.155 35.1756 156.99 35.1063 156.816 35.0732C156.361 34.9823 155.816 34.8857 155.203 34.7835C153.743 34.5336 151.908 34.2723 150.091 34.136C146.645 33.8445 143.187 33.7345 139.73 33.8065C138.134 33.8917 136.567 34.0849 135.317 34.2666C134.3 34.42 133.869 34.3859 133.42 34.4938C133.024 34.6137 132.672 34.8444 132.403 35.1584C130.852 37.1464 124.968 46.5979 129.353 71.0446Z" fill="#EBEBEB"/>
<path d="M145.537 48.5277C146.186 43.5805 144.216 39.242 141.135 38.8375C138.054 38.4329 135.03 42.1155 134.38 47.0628C133.731 52.01 135.702 56.3485 138.782 56.753C141.863 57.1575 144.887 53.475 145.537 48.5277Z" fill="#FFC100"/>
<path d="M127.893 67.9888L131.068 67.2617L129.472 71.624C129.472 71.624 126.859 72.3964 126.365 70.6868L127.893 67.9888Z" fill="#FFB573"/>
<path d="M133.346 68.8805L131.097 73.0156L129.472 71.624L131.068 67.2617L133.346 68.8805Z" fill="#FFB573"/>
<path d="M156.782 35.0441C152.561 34.2944 150.607 37.0321 152.101 42.1896C153.205 45.7733 154.746 49.2072 156.691 52.4136L163.859 50.312C162.615 45.3192 159.61 35.544 156.782 35.0441Z" fill="#FFC100"/>
<path d="M148.494 22.1797L144.927 24.5766L140.088 27.8483C140.246 28.4497 140.366 29.0606 140.446 29.6773C140.77 32.1254 140.133 34.2667 136.203 34.7893C136.203 34.7893 133.545 37.6634 139.554 38.6801C147.319 39.9922 149.67 36.0559 149.67 36.0559C146.631 33.1307 147.586 26.0421 148.494 22.1797Z" fill="#FFB573"/>
<path d="M136.061 30.4321C134.896 29.8641 133.88 32.1361 134.158 33.1187C134.436 34.1014 133.357 33.1187 132.176 34.6239C130.994 36.1291 135.016 42.2692 140.559 45.5409C145.427 43.9278 149.29 41.4967 150.954 39.9802C152.425 38.6397 156.316 34.2434 154.742 33.7322C153.169 33.221 154.061 31.3011 152.55 30.4434C151.039 29.5858 142.616 33.6754 136.061 30.4321Z" fill="#FFC100"/>
<path opacity="0.7" d="M136.061 30.4321C134.896 29.8641 133.88 32.1361 134.158 33.1187C134.436 34.1014 133.357 33.1187 132.176 34.6239C130.994 36.1291 135.016 42.2692 140.559 45.5409C145.427 43.9278 149.29 41.4967 150.954 39.9802C152.425 38.6397 156.316 34.2434 154.742 33.7322C153.169 33.221 154.061 31.3011 152.55 30.4434C151.039 29.5858 142.616 33.6754 136.061 30.4321Z" fill="white"/>
<path opacity="0.4" d="M135.266 33.8398C136.277 34.902 142.689 35.9301 148.171 34.7202C143.201 36.2822 136.919 36.3504 135.266 33.8398Z" fill="#FFC100"/>
<path opacity="0.4" d="M141.599 40.361C141.599 40.361 145.643 39.793 148.415 37.8164C147.018 39.1342 145.348 40.7757 141.599 40.361Z" fill="#FFC100"/>
<path opacity="0.2" d="M140.088 27.8475C140.246 28.4489 140.366 29.0598 140.446 29.6765C142.281 29.5061 144.706 27.9725 144.922 26.2685C144.99 25.7025 144.99 25.1304 144.922 24.5645L140.088 27.8475Z" fill="black"/>
<path d="M139.316 12.211C137.197 13.063 135.726 18.8566 138.299 20.2198C140.872 21.583 143.343 10.5922 139.316 12.211Z" fill="#263238"/>
<path d="M148.443 18.9078C147.336 22.9633 146.893 25.383 144.376 27.1495C143.579 27.7391 142.634 28.0972 141.646 28.1842C140.657 28.2713 139.664 28.084 138.776 27.643C137.887 27.2019 137.138 26.5243 136.61 25.6846C136.081 24.8449 135.795 23.8757 135.783 22.8838C135.669 19.0612 137.487 13.0745 141.866 12.0918C142.799 11.8509 143.778 11.862 144.705 12.1238C145.632 12.3855 146.473 12.8887 147.142 13.5818C147.811 14.275 148.284 15.1332 148.512 16.069C148.741 17.0047 148.717 17.9843 148.443 18.9078Z" fill="#FFB573"/>
<path d="M139.594 17.6524C139.594 17.6524 137.89 16.3006 136.368 16.8743C136.368 16.8743 133.823 21.2081 138.975 19.8506C144.399 22.5656 144.933 17.8796 144.933 17.8796C141.69 16.5335 139.594 17.6524 139.594 17.6524Z" fill="#676767"/>
<path d="M153.947 14.8748C155.884 15.8404 153.947 20.1288 152.152 21.4124C149.716 23.1562 148.574 23.7299 147.279 22.5484C146.097 21.8896 144.138 17.8 146.268 15.3632C144.462 14.0625 138.356 16.6583 136.583 11.5065C135.788 9.20044 136.43 4.40651 142.519 7.13859C142.854 9.59803 146.359 10.2796 149.045 10.1888C153.084 10.0638 155.822 12.0632 153.947 14.8748Z" fill="#263238"/>
<path d="M139.174 13.3415C137.697 13.7561 136.038 12.6996 136.288 14.4775C136.34 14.6958 136.344 14.9231 136.297 15.1429C136.251 15.3626 136.157 15.5694 136.021 15.7482C135.885 15.927 135.711 16.0733 135.512 16.1768C135.312 16.2802 135.093 16.338 134.868 16.3462C134.868 16.3462 136.987 16.3007 136.805 14.9148C136.623 13.5289 138.356 14.4547 139.827 14.6251C141.298 14.7955 140.003 13.1086 139.174 13.3415Z" fill="#263238"/>
<path d="M149.176 23.2128C148.473 23.9851 147.527 24.4941 146.495 24.6555C145.194 24.8202 144.967 23.6161 145.683 22.4857C146.33 21.469 147.784 20.1626 148.92 20.5091C150.056 20.8556 150.045 22.2415 149.176 23.2128Z" fill="#FFB573"/>
<path d="M141.979 18.8279C141.911 19.163 141.673 19.3959 141.457 19.3959C141.241 19.3959 141.116 19.0608 141.184 18.7313C141.252 18.4019 141.491 18.1633 141.707 18.1917C141.923 18.2201 142.048 18.5041 141.979 18.8279Z" fill="white"/>
<path d="M138.134 18.3167C138.06 18.6462 137.827 18.8847 137.612 18.8847C137.396 18.8847 137.271 18.5496 137.339 18.2145C137.407 17.8794 137.64 17.6465 137.862 17.6465C138.083 17.6465 138.202 17.9816 138.134 18.3167Z" fill="white"/>
<path d="M139.259 18.8057C138.643 19.7636 137.904 20.6363 137.061 21.4014C137.259 21.604 137.5 21.7599 137.766 21.8581C138.033 21.9564 138.317 21.9944 138.6 21.9694L139.259 18.8057Z" fill="#ED847E"/>
<path d="M139.872 23.0764C140.267 23.0958 140.662 23.036 141.034 22.9004C141.406 22.7648 141.746 22.5562 142.036 22.2869C142.055 22.2678 142.065 22.2424 142.065 22.2159C142.065 22.1894 142.055 22.1639 142.036 22.1449C142.017 22.1265 141.992 22.1162 141.965 22.1162C141.939 22.1162 141.913 22.1265 141.894 22.1449C141.575 22.4318 141.195 22.6426 140.783 22.7617C140.371 22.8807 139.937 22.9048 139.514 22.8322C139.501 22.8297 139.488 22.8301 139.475 22.8331C139.462 22.8362 139.449 22.8419 139.439 22.8499C139.428 22.8579 139.419 22.868 139.413 22.8796C139.406 22.8912 139.402 22.9041 139.401 22.9174C139.398 22.9301 139.398 22.9431 139.401 22.9558C139.404 22.9684 139.409 22.9804 139.416 22.991C139.424 23.0016 139.433 23.0106 139.444 23.0175C139.455 23.0243 139.467 23.0289 139.48 23.031C139.61 23.054 139.741 23.0692 139.872 23.0764Z" fill="#263238"/>
<path d="M143.587 16.8798C143.619 16.8676 143.648 16.8482 143.672 16.823C143.709 16.7849 143.729 16.734 143.729 16.681C143.729 16.628 143.709 16.5771 143.672 16.539C143.439 16.3293 143.158 16.1798 142.854 16.1036C142.551 16.0273 142.233 16.0267 141.928 16.1016C141.903 16.1094 141.88 16.122 141.86 16.1388C141.84 16.1556 141.823 16.1762 141.811 16.1994C141.799 16.2226 141.791 16.248 141.789 16.2741C141.787 16.3003 141.79 16.3266 141.798 16.3515C141.804 16.3768 141.816 16.4005 141.832 16.421C141.848 16.4415 141.868 16.4585 141.891 16.4708C141.914 16.4831 141.939 16.4904 141.965 16.4924C141.991 16.4944 142.017 16.4909 142.042 16.4822C142.281 16.427 142.53 16.4308 142.768 16.4931C143.005 16.5555 143.224 16.6745 143.405 16.84C143.43 16.861 143.459 16.8755 143.491 16.8825C143.523 16.8894 143.556 16.8885 143.587 16.8798Z" fill="#263238"/>
<path d="M138.691 16.3688C138.676 16.34 138.654 16.3154 138.627 16.2975C138.601 16.2796 138.57 16.2689 138.537 16.2665C138.284 16.2471 138.038 16.1693 137.819 16.0392C137.6 15.9092 137.415 15.7304 137.276 15.5168C137.264 15.4936 137.248 15.4732 137.228 15.4566C137.208 15.44 137.185 15.4276 137.16 15.4201C137.135 15.4127 137.109 15.4104 137.083 15.4133C137.057 15.4163 137.032 15.4244 137.009 15.4373C136.963 15.4615 136.928 15.5032 136.912 15.5532C136.896 15.6032 136.9 15.6575 136.924 15.7042C137.09 15.9763 137.318 16.2051 137.59 16.372C137.861 16.5388 138.168 16.639 138.486 16.6641C138.513 16.6673 138.54 16.665 138.565 16.6575C138.591 16.65 138.615 16.6374 138.636 16.6204C138.656 16.6034 138.673 16.5825 138.686 16.5587C138.698 16.535 138.706 16.509 138.708 16.4824C138.714 16.4437 138.708 16.404 138.691 16.3688Z" fill="#263238"/>
<path d="M153.305 68.2381L149.102 67.6133L151.312 72.4072C151.312 72.4072 155.14 72.2879 154.941 70.3226L153.305 68.2381Z" fill="#FFB573"/>
<path d="M158.73 37.8164C159.474 39.1739 160.076 40.4462 160.684 41.7924C161.292 43.1386 161.82 44.4677 162.348 45.8422C162.876 47.2168 163.348 48.6084 163.762 50.0398C164.204 51.485 164.57 52.9525 164.859 54.4361L164.967 55.0041C165.006 55.2199 165.052 55.521 165.086 55.7709C165.12 56.0208 165.131 56.2991 165.148 56.5604C165.165 56.8195 165.165 57.0795 165.148 57.3386C165.116 58.3254 164.952 59.3035 164.66 60.2467C164.144 61.912 163.349 63.4774 162.308 64.8759C161.368 66.1442 160.302 67.3145 159.127 68.3691C158.559 68.886 157.991 69.3631 157.367 69.8289C156.742 70.2946 156.157 70.6979 155.441 71.1353L152.965 68.0738C153.328 67.6137 153.766 67.0684 154.146 66.5515C154.527 66.0346 154.919 65.4894 155.282 64.9611C155.987 63.9341 156.609 62.8535 157.145 61.7292C157.625 60.7645 157.954 59.732 158.122 58.6677C158.184 58.2516 158.184 57.8285 158.122 57.4124C158.118 57.3204 158.105 57.2291 158.082 57.1398C158.068 57.0532 158.047 56.9678 158.02 56.8842L157.804 56.1628C157 53.6545 156.065 51.1898 155.004 48.7788C154.47 47.5519 153.919 46.3194 153.357 45.0982L151.653 41.4857L158.73 37.8164Z" fill="#EBEBEB"/>
<path d="M146.001 70.1352L148.023 73.9976L151.312 72.4072L149.102 67.6133L146.001 70.1352Z" fill="#FFB573"/>
</g>
</g>
<defs>
<clipPath id="clip0_512_34615">
<rect width="210" height="140" fill="white"/>
</clipPath>
</defs>
</svg>
