<svg width="210" height="140" viewBox="0 0 210 140" fill="none" xmlns="http://www.w3.org/2000/svg">
<g clip-path="url(#clip0_512_39539)">
<path fill-rule="evenodd" clip-rule="evenodd" d="M2.76337 69.5627C-3.89351 51.21 17.3682 32.6727 41.8298 20.8028C64.5772 9.7647 95.6205 8.85815 125.132 10.1837C152.337 11.4056 182.183 14.7222 198.13 27.823C212.948 39.9967 204.276 56.3179 199.037 70.8984C195.114 81.8148 183.274 89.8343 172.55 99.0051C157.287 112.058 151.252 134.164 124.284 134.824C97.5063 135.48 90.9832 112.171 71.0968 101.491C48.7603 89.495 9.06506 86.9362 2.76337 69.5627Z" fill="#FFECB2"/>
<path d="M123.982 10.8926C120.014 4.23228 127.39 2.30502 132.144 4.04806C136.899 5.79109 139.938 0.909177 144.19 1.00129C148.441 1.0934 148.93 7.08774 145.408 8.68197C141.887 10.2762 137.685 14.6267 133.625 14.8747C134.001 21.1029 129.707 33.1411 127.588 29.8251C125.47 26.5091 110.491 16.6815 123.982 10.8926Z" fill="#263238"/>
<path d="M124.117 11.8703C122.947 11.8703 120.347 11.4381 118.533 7.89534C118.399 7.63037 118.375 7.32288 118.468 7.04051C118.56 6.75814 118.761 6.52403 119.026 6.38967C119.291 6.2553 119.598 6.2317 119.88 6.32405C120.163 6.4164 120.397 6.61714 120.531 6.88211C122.09 9.92887 124.23 9.63837 124.322 9.6242C124.611 9.57662 124.907 9.64419 125.147 9.81241C125.387 9.98064 125.551 10.2361 125.605 10.5241C125.656 10.8123 125.592 11.1094 125.427 11.3508C125.261 11.5923 125.007 11.7585 124.719 11.8136C124.52 11.8496 124.319 11.8686 124.117 11.8703Z" fill="#263238"/>
<path d="M126.277 24.8584C127.539 29.4073 129.112 37.7965 126.107 41.1551C128.807 43.4508 132.307 46.0795 137.806 45.8527C143.304 45.626 142.057 41.9203 140.448 40.0426C135.205 39.2136 135.049 35.3804 135.666 31.7242L126.277 24.8584Z" fill="#FAC3BB"/>
<path opacity="0.2" d="M130.082 27.6504L135.637 31.6962C135.481 32.5471 135.4 33.4102 135.396 34.2753C133.405 34.1407 130.536 32.1922 130.167 30.1516C129.989 29.3298 129.96 28.4824 130.082 27.6504Z" fill="black"/>
<path d="M125.194 17.9564C126.058 24.1775 126.249 27.8761 129.658 30.8237C134.773 35.2876 142.27 31.8228 143.283 25.4671C144.19 19.7491 142.617 10.5379 136.304 8.52564C134.915 8.07358 133.433 7.98455 132 8.26702C130.567 8.5495 129.23 9.19408 128.116 10.1394C127.002 11.0847 126.149 12.2994 125.638 13.6677C125.126 15.0359 124.973 16.5124 125.194 17.9564Z" fill="#FAC3BB"/>
<path d="M125.123 21.613C126.773 24.1992 131.5 15.9446 130.047 12.4018C128.594 8.85909 124.754 12.0901 124.754 12.0901C124.754 12.0901 122.288 17.142 125.123 21.613Z" fill="#263238"/>
<path d="M126.199 11.9414C132.413 14.4426 139.485 14.1237 141.887 13.9466C144.289 13.7695 147.208 13.0963 146.266 10.2055C145.012 6.3297 136.814 8.1365 133.753 7.13035C130.692 6.12421 123.55 8.8167 126.199 11.9414Z" fill="#263238"/>
<path d="M123.068 23.6887C123.752 24.9624 124.907 25.9184 126.285 26.3529C128.092 26.8914 128.964 25.2192 128.411 23.4478C127.936 21.8536 126.42 19.65 124.627 19.9051C122.835 20.1601 122.218 22.1016 123.068 23.6887Z" fill="#FAC3BB"/>
<path d="M134.334 18.9696C134.377 19.4797 134.674 19.8694 135.007 19.8411C135.34 19.8128 135.581 19.3876 135.539 18.8775C135.496 18.3673 135.199 17.9776 134.865 17.9989C134.532 18.0201 134.277 18.4594 134.334 18.9696Z" fill="#263238"/>
<path d="M140.066 18.5233C140.109 19.0335 140.406 19.4232 140.775 19.4019C141.143 19.3806 141.349 18.9413 141.306 18.4312C141.264 17.921 140.966 17.5313 140.598 17.5526C140.229 17.5738 140.003 18.0131 140.066 18.5233Z" fill="#263238"/>
<path d="M138.748 18.9199C139.477 20.4285 140.409 21.8302 141.518 23.0862C140.682 23.9931 139.124 23.731 139.124 23.731L138.748 18.9199Z" fill="#FF5652"/>
<path d="M137.083 25.2548C136.512 25.2356 135.951 25.1 135.435 24.8563C134.918 24.6126 134.457 24.266 134.079 23.8377C134.065 23.8239 134.053 23.8073 134.046 23.7891C134.038 23.7708 134.034 23.7512 134.034 23.7314C134.034 23.7116 134.038 23.692 134.046 23.6738C134.053 23.6555 134.065 23.639 134.079 23.6251C134.107 23.5987 134.143 23.584 134.182 23.584C134.22 23.584 134.257 23.5987 134.284 23.6251C134.711 24.0973 135.242 24.463 135.835 24.6931C136.428 24.9232 137.066 25.0112 137.7 24.9501C137.738 24.9481 137.775 24.961 137.805 24.9861C137.834 25.0112 137.852 25.0465 137.855 25.0848C137.857 25.1043 137.855 25.1241 137.85 25.1429C137.844 25.1617 137.835 25.1792 137.822 25.1943C137.81 25.2095 137.794 25.222 137.777 25.2311C137.759 25.2403 137.74 25.2459 137.721 25.2477C137.509 25.2662 137.296 25.2686 137.083 25.2548Z" fill="#263238"/>
<path d="M132.917 17.2488C132.866 17.2464 132.816 17.2291 132.775 17.1992C132.741 17.1789 132.712 17.152 132.689 17.1201C132.666 17.0882 132.649 17.0519 132.641 17.0134C132.632 16.975 132.632 16.9352 132.639 16.8965C132.646 16.8578 132.661 16.8209 132.683 16.7882C132.931 16.3823 133.273 16.0418 133.68 15.7952C134.087 15.5487 134.547 15.4032 135.021 15.3711C135.1 15.3711 135.176 15.4024 135.232 15.4583C135.287 15.5141 135.319 15.5898 135.319 15.6687C135.321 15.708 135.315 15.7473 135.301 15.7842C135.287 15.8211 135.266 15.8548 135.239 15.8833C135.212 15.9118 135.179 15.9345 135.143 15.95C135.107 15.9655 135.068 15.9734 135.028 15.9734C134.652 16.0033 134.288 16.1231 133.967 16.3229C133.647 16.5226 133.379 16.7964 133.186 17.1212C133.157 17.1648 133.116 17.1997 133.069 17.2221C133.022 17.2446 132.969 17.2538 132.917 17.2488Z" fill="#263238"/>
<path d="M142.886 16.3559C142.837 16.3537 142.789 16.3389 142.747 16.3128C142.704 16.2868 142.67 16.2504 142.646 16.2071C142.464 15.8766 142.208 15.5937 141.896 15.3819C141.584 15.17 141.227 15.0351 140.853 14.9884C140.774 14.9812 140.701 14.9442 140.648 14.885C140.595 14.8258 140.567 14.7487 140.569 14.6695C140.571 14.6304 140.581 14.5921 140.597 14.5567C140.614 14.5212 140.638 14.4895 140.667 14.4631C140.695 14.4368 140.729 14.4165 140.766 14.4032C140.803 14.39 140.842 14.3842 140.881 14.3861C141.355 14.4382 141.809 14.603 142.206 14.8669C142.603 15.1307 142.931 15.4858 143.163 15.9024C143.183 15.9363 143.196 15.9739 143.202 16.013C143.208 16.0521 143.206 16.0919 143.196 16.1302C143.186 16.1684 143.168 16.2043 143.145 16.2358C143.121 16.2672 143.091 16.2936 143.056 16.3134C143.004 16.3407 142.946 16.3553 142.886 16.3559Z" fill="#263238"/>
<path d="M119.223 137.901C117.57 137.665 115.991 137.055 114.605 136.116L96.8246 124.005C95.2916 122.966 94.0452 121.552 93.2022 119.894C92.3593 118.237 91.9475 116.39 92.0054 114.528L93.2138 72.8764C93.2363 72.0829 93.4247 71.3032 93.7666 70.5882C94.1085 69.8732 94.5962 69.2391 95.1978 68.7274C95.7994 68.2158 96.5013 67.838 97.2576 67.6189C98.0139 67.3997 98.8075 67.3442 99.5866 67.4559C100.033 67.5146 100.47 67.6292 100.888 67.7969C102.303 68.3216 103.773 68.6795 105.269 68.8636C107.956 69.2155 110.673 69.2908 113.375 69.0886C118.928 68.6967 123.445 67.2092 125.466 65.903C126.591 65.1688 127.941 64.8673 129.268 65.0539C130.595 65.2404 131.812 65.9024 132.695 66.9189C134.278 68.7258 138.219 71.4034 143.484 73.3045C146.029 74.2463 148.664 74.9199 151.346 75.3146C152.833 75.5505 154.341 75.6114 155.842 75.496C156.855 75.3947 157.877 75.5719 158.799 76.0088C159.721 76.4457 160.508 77.126 161.078 77.9777C161.506 78.6323 161.794 79.3701 161.923 80.1437C162.052 80.9172 162.019 81.7094 161.826 82.4694L151.756 122.873C151.311 124.68 150.417 126.343 149.158 127.705C147.9 129.067 146.319 130.084 144.563 130.659L124.172 137.429C122.579 137.965 120.887 138.127 119.223 137.901Z" fill="#FFC100"/>
<path opacity="0.3" d="M127.296 68.4096C124.498 70.2107 119.321 71.7056 113.637 72.0994C107.952 72.4931 102.899 71.866 99.6871 70.5972C99.3109 70.4427 98.903 70.3822 98.4985 70.4208C98.094 70.4594 97.7048 70.596 97.3641 70.8189C97.0235 71.0418 96.7417 71.3443 96.5427 71.7007C96.3437 72.057 96.2334 72.4565 96.2214 72.865L95.0034 114.721C94.9644 116.06 95.263 117.388 95.8715 118.58C96.48 119.772 97.3786 120.79 98.4835 121.539L116.406 133.717C117.409 134.393 118.552 134.832 119.749 135L129 68.0231C128.404 67.9412 127.799 68.0785 127.296 68.4096Z" fill="white"/>
<path d="M124.819 110.298C124.541 110.27 124.26 110.298 123.994 110.379C123.728 110.46 123.482 110.593 123.272 110.769L127 85C121.792 92.0417 121 98.3663 121 98.3663L123.445 101.474L121.664 113.79C121.362 115.913 122.268 117.796 123.702 117.985C125.136 118.173 126.562 116.608 126.864 114.485C127.166 112.363 126.245 110.486 124.819 110.298ZM123.86 116.927C122.826 116.789 122.17 115.435 122.389 113.906C122.608 112.377 123.634 111.24 124.653 111.378C125.672 111.515 126.351 112.87 126.162 114.406C125.974 115.942 124.902 117.065 123.86 116.927Z" fill="white"/>
<path d="M117.639 104.738C117.797 104.951 117.907 105.192 117.963 105.447C118.018 105.702 118.018 105.966 117.962 106.221L139 91C135.239 98.5401 130.053 102.18 130.053 102.18L126.145 101.66L116.038 108.954C114.304 110.205 112.211 110.36 111.359 109.278C110.506 108.195 111.226 106.305 112.953 105.061C114.679 103.818 116.787 103.635 117.639 104.738ZM112.225 108.652C112.842 109.425 114.356 109.355 115.604 108.42C116.853 107.486 117.367 106.151 116.758 105.378C116.148 104.605 114.635 104.675 113.379 105.609C112.123 106.544 111.608 107.851 112.225 108.631V108.652Z" fill="white"/>
<path d="M78.4777 16.773C85.5112 14.1354 93.002 18.447 95.2246 26.6693C97.4472 34.8915 92.7277 43.1138 89.7314 44.8933C86.4889 42.3049 77.8376 42.0799 70.8814 44.5346C64.9099 34.2374 66.1056 16.1963 78.4777 16.773Z" fill="#263238"/>
<path d="M68.567 59.5652C68.4544 61.619 68.2153 63.4969 67.9551 65.4523C67.6948 67.4076 67.3291 69.2997 66.9282 71.2128C66.1509 75.0863 65.0305 78.883 63.5802 82.558C63.2355 83.4934 62.7783 84.4008 62.3774 85.3222C61.9765 86.2436 61.5123 87.0595 61.0622 87.9105C60.1619 89.6056 59.2475 91.2726 58.2979 92.9255C56.3918 96.2242 54.4365 99.4737 52.3194 102.646L49.4497 101.155C50.8072 97.638 52.2631 94.1212 53.7332 90.6677L55.9276 85.4839L56.9756 82.9237C57.2851 82.0867 57.6368 81.2919 57.897 80.4338C59.0342 77.0055 59.9274 73.5011 60.5698 69.9467C60.9144 68.1602 61.1677 66.3455 61.4349 64.5379C61.7022 62.7303 61.8921 60.8734 62.0469 59.1572L68.567 59.5652Z" fill="#F3C8A9"/>
<path d="M64.1299 51.7796C61.4993 52.4477 59.6565 63.2865 59.6565 63.2865L69.7286 70.1372C69.7286 70.1372 73.8714 57.2868 71.8387 54.396C69.7356 51.3786 67.9772 50.8019 64.1299 51.7796Z" fill="#263238"/>
<path opacity="0.2" d="M64.368 54.1992L60.9497 64.1799L66.4218 67.8866L64.368 54.1992Z" fill="black"/>
<path d="M49.9843 99.8816L47.3115 106.212L52.9947 105.199C52.9947 105.199 54.3381 101.316 52.5375 99.3682L49.9843 99.8816Z" fill="#F3C8A9"/>
<path d="M46.3342 109.384L51.94 108.315L52.995 105.199L47.3119 106.212L46.3342 109.384Z" fill="#F3C8A9"/>
<path d="M59.8882 99.791L48.7922 105.751C48.5822 105.864 48.4994 106.133 48.6073 106.353L51.4381 112.109C51.5461 112.329 51.8039 112.415 52.0139 112.302L63.11 106.343C63.32 106.23 63.4028 105.96 63.2949 105.741L60.4641 99.9842C60.3561 99.7647 60.0983 99.6782 59.8882 99.791Z" fill="#FFC100"/>
<path opacity="0.2" d="M59.8882 99.791L48.7922 105.751C48.5822 105.864 48.4994 106.133 48.6073 106.353L51.4381 112.109C51.5461 112.329 51.8039 112.415 52.0139 112.302L63.11 106.343C63.32 106.23 63.4028 105.96 63.2949 105.741L60.4641 99.9842C60.3561 99.7647 60.0983 99.6782 59.8882 99.791Z" fill="black"/>
<path d="M45.1158 100.002L44.8528 100.143C44.4327 100.369 44.267 100.908 44.4829 101.347L52.9337 118.54C53.1496 118.979 53.6651 119.152 54.0853 118.926L54.3483 118.785C54.7685 118.559 54.9341 118.021 54.7183 117.581L46.2674 100.389C46.0516 99.9497 45.536 99.7765 45.1158 100.002Z" fill="#FFC100"/>
<path d="M24.244 130.538L51.6155 115.837L45.8139 104.039L18.4425 118.741L24.244 130.538Z" fill="#FFC100"/>
<path opacity="0.2" d="M20.6583 123.25L48.0298 108.549L46.6663 105.776L19.2948 120.478L20.6583 123.25Z" fill="white"/>
<path opacity="0.2" d="M23.3888 128.796L50.7603 114.095L49.3967 111.322L22.0253 126.023L23.3888 128.796Z" fill="white"/>
<path d="M46.6293 98.9088C46.8058 99.3349 46.8771 99.8169 46.8339 100.294C46.7908 100.77 46.6353 101.22 46.3871 101.586C46.1389 101.953 45.8092 102.218 45.4399 102.35C45.0707 102.481 44.6784 102.473 44.313 102.325C43.9476 102.178 43.6255 101.898 43.3876 101.522C43.1497 101.145 43.0067 100.688 42.9768 100.21C42.9469 99.7318 43.0315 99.2532 43.2197 98.835C43.408 98.4168 43.6914 98.0779 44.0341 97.8614C44.4896 97.5717 45.0184 97.5192 45.5048 97.7155C45.9912 97.9118 46.3955 98.3409 46.6293 98.9088Z" fill="#FFC100"/>
<path d="M56.3196 118.025C56.4949 118.366 56.5652 118.751 56.5217 119.131C56.4781 119.512 56.3228 119.872 56.0752 120.164C55.8276 120.457 55.499 120.669 55.1307 120.775C54.7625 120.88 54.3712 120.874 54.0063 120.758C53.6414 120.641 53.3193 120.419 53.0807 120.119C52.8421 119.819 52.6977 119.455 52.6657 119.073C52.6337 118.691 52.7156 118.308 52.9011 117.973C53.0866 117.638 53.3672 117.365 53.7076 117.189C54.1649 116.954 54.6966 116.91 55.1862 117.067C55.6758 117.224 56.0834 117.568 56.3196 118.025Z" fill="#FFC100"/>
<path d="M11 130.201L24.5634 130.538L18.6223 118.912L11 130.201Z" fill="#FFC100"/>
<path opacity="0.6" d="M18.5368 118.912L24.5635 130.538L14.5993 130.293L12.9377 127.085L18.5368 118.912Z" fill="white"/>
<path d="M62.3564 54.0366C62.0259 57.7785 62.3564 67.0628 66.0702 90.0978H92.0171C91.6091 80.089 91.574 73.7096 95.8715 54.6204C95.9684 54.1918 95.9765 53.7478 95.8954 53.3159C95.8144 52.884 95.6458 52.4732 95.4 52.1089C95.1543 51.7445 94.8366 51.4343 94.4665 51.1973C94.0964 50.9604 93.6817 50.8016 93.2479 50.7309C90.7165 50.3138 88.1642 50.0343 85.6024 49.8939C81.6781 49.6122 77.7385 49.6122 73.8142 49.8939C70.5928 50.1893 67.0971 50.7731 64.987 51.1599C64.2934 51.2839 63.66 51.6328 63.1845 52.1528C62.7091 52.6727 62.4181 53.3348 62.3564 54.0366Z" fill="#263238"/>
<path opacity="0.2" d="M94.4794 59.9307C92.1302 60.5145 89.9568 63.0747 90.217 67.8012C90.3587 69.9482 91.1103 72.0101 92.3834 73.7446C92.7984 70.1153 93.4947 65.8951 94.599 60.5004L94.4794 59.9307Z" fill="black"/>
<path d="M84.4351 36.6289C83.6896 40.42 82.944 47.3622 85.6027 49.8942C85.6027 49.8942 82.951 52.2505 76.037 55.9009C70.7829 51.6808 73.8144 49.8942 73.8144 49.8942C78.0346 48.8884 77.9361 45.7515 77.1976 42.8044L84.4351 36.6289Z" fill="#F3C8A9"/>
<path opacity="0.2" d="M81.4813 39.1465L77.2048 42.7969C77.3853 43.4886 77.5053 44.1946 77.5635 44.907C79.1813 44.6749 81.7204 43.2963 82.065 41.5379C82.2338 40.6939 81.6219 39.5404 81.4813 39.1465Z" fill="black"/>
<path d="M88.8945 29.1659C87.9028 35.4328 87.6214 38.1056 84.1257 41.0316C78.8787 45.4416 71.402 42.8533 70.4947 36.4246C69.6858 30.6359 71.4372 21.3586 77.8448 19.4455C79.2554 19.014 80.7529 18.9506 82.1949 19.2615C83.6369 19.5723 84.9754 20.247 86.083 21.2213C87.1905 22.1956 88.0303 23.4372 88.5225 24.8278C89.0146 26.2184 89.1427 27.7118 88.8945 29.1659Z" fill="#F3C8A9"/>
<path d="M78.6887 29.8692C78.6394 30.3826 78.3229 30.7695 77.9853 30.7343C77.6477 30.6991 77.4156 30.263 77.4648 29.7496C77.5141 29.2361 77.8235 28.8493 78.1682 28.8774C78.5128 28.9056 78.7379 29.3838 78.6887 29.8692Z" fill="#263238"/>
<path d="M72.8858 29.3418C72.8366 29.8553 72.5271 30.2421 72.1824 30.214C71.8378 30.1858 71.6197 29.7357 71.6619 29.2222C71.7041 28.7088 72.0277 28.3219 72.3653 28.3501C72.7029 28.3782 72.935 28.8284 72.8858 29.3418Z" fill="#263238"/>
<path d="M72.5138 28.3992L71.3181 27.9209C71.3181 27.9209 71.8597 28.9478 72.5138 28.3992Z" fill="#263238"/>
<path d="M74.5884 30.4395C74.0192 31.5649 73.2973 32.6063 72.4431 33.5342C72.6877 33.7461 72.9754 33.9023 73.2863 33.9922C73.5971 34.082 73.9238 34.1034 74.2437 34.0547L74.5884 30.4395Z" fill="#BA4D3C"/>
<path d="M76.8463 36.3338C76.5934 36.3509 76.3396 36.3509 76.0867 36.3338C76.0475 36.3338 76.0099 36.3182 75.9822 36.2905C75.9545 36.2628 75.939 36.2253 75.939 36.1861C75.939 36.1469 75.9545 36.1093 75.9822 36.0816C76.0099 36.0539 76.0475 36.0384 76.0867 36.0384C76.7239 36.1117 77.3695 36.0347 77.9716 35.8136C78.5738 35.5925 79.1158 35.2335 79.5542 34.7653C79.5662 34.7501 79.5811 34.7373 79.5981 34.7278C79.615 34.7184 79.6336 34.7123 79.6529 34.71C79.6721 34.7077 79.6917 34.7093 79.7104 34.7145C79.729 34.7198 79.7465 34.7287 79.7617 34.7407C79.777 34.7527 79.7897 34.7676 79.7992 34.7845C79.8087 34.8014 79.8147 34.8201 79.817 34.8393C79.8193 34.8586 79.8178 34.8781 79.8125 34.8968C79.8072 34.9155 79.7983 34.9329 79.7863 34.9482C79.4122 35.362 78.9597 35.6975 78.4551 35.9354C77.9504 36.1732 77.4036 36.3086 76.8463 36.3338Z" fill="#263238"/>
<path d="M90.2802 34.2796C89.8136 35.4137 88.9191 36.3183 87.7903 36.7976C86.2852 37.4166 85.3427 36.0943 85.6029 34.5961C85.835 33.2316 86.8971 31.2622 88.4796 31.2903C88.8232 31.3093 89.1569 31.4119 89.4517 31.5894C89.7465 31.7669 89.9935 32.0137 90.171 32.3085C90.3486 32.6032 90.4513 32.9369 90.4704 33.2805C90.4894 33.624 90.4241 33.9671 90.2802 34.2796Z" fill="#F3C8A9"/>
<path d="M85.9544 24.7985C86.8618 27.7315 87.0657 33.295 84.6392 36.629C88.5076 33.2036 90.8217 29.4195 89.007 23.5254C87.9617 23.8798 86.9418 24.3051 85.9544 24.7985Z" fill="#263238"/>
<path d="M78.3156 18.2149C73.5117 18.6229 72.8997 22.1608 71.915 23.9403C75.4318 23.3213 85.4125 26.1629 87.1357 28.5613C90.8424 29.3421 90.118 23.3213 90.118 23.3213C90.118 23.3213 89.3232 17.6382 78.3156 18.2149Z" fill="#263238"/>
<path d="M80.7077 27.2106C80.6471 27.232 80.5814 27.234 80.5196 27.2164C80.4579 27.1987 80.4032 27.1623 80.363 27.1122C79.4838 26.029 77.6832 26.1275 77.6621 26.1275C77.5895 26.1215 77.5215 26.0895 77.4706 26.0374C77.4197 25.9853 77.3893 25.9165 77.385 25.8438C77.3808 25.7711 77.4029 25.6992 77.4473 25.6415C77.4918 25.5838 77.5556 25.5441 77.627 25.5296C77.7114 25.5296 79.737 25.403 80.8343 26.7324C80.8596 26.7636 80.8784 26.7996 80.8897 26.8382C80.9009 26.8768 80.9043 26.9173 80.8997 26.9572C80.8952 26.9972 80.8826 27.0358 80.863 27.0709C80.8433 27.1059 80.8168 27.1367 80.785 27.1614C80.762 27.1818 80.7359 27.1985 80.7077 27.2106Z" fill="#263238"/>
<path d="M70.7831 26.5704C70.7157 26.5762 70.6484 26.5594 70.5917 26.5225C70.5351 26.4856 70.4925 26.4308 70.4706 26.3669C70.4487 26.3029 70.4489 26.2335 70.4711 26.1697C70.4934 26.1058 70.5363 26.0513 70.5932 26.0147C70.9854 25.737 71.4384 25.557 71.9143 25.4897C72.3902 25.4224 72.8753 25.4698 73.3292 25.6279C73.3956 25.6633 73.4464 25.7222 73.4717 25.7931C73.4969 25.864 73.4949 25.9418 73.4659 26.0112C73.4369 26.0807 73.383 26.1368 73.3148 26.1687C73.2466 26.2005 73.169 26.2058 73.0971 26.1835C72.7356 26.0631 72.3507 26.0303 71.9741 26.0878C71.5975 26.1453 71.2399 26.2914 70.9308 26.5141C70.8876 26.5459 70.8365 26.5654 70.7831 26.5704Z" fill="#263238"/>
<path d="M48.8735 104.067L49.1267 108.161C49.1267 108.161 50.2873 107.232 50.1396 106.114C49.9919 104.996 51.7362 104.356 52.2497 103.033L48.8735 104.067Z" fill="#F3C8A9"/>
<path d="M78.3158 28.9478L77.113 28.4766C77.113 28.4766 77.6546 29.5035 78.3158 28.9478Z" fill="#263238"/>
<path d="M92.4049 88.5717L93.1083 90.8928C93.1997 91.0756 92.9816 91.2585 92.6862 91.2585H65.9586C65.7195 91.2585 65.5296 91.146 65.5155 90.9983L65.2764 88.6772C65.2764 88.5154 65.4663 88.3818 65.7195 88.3818H91.9969C92.0754 88.3769 92.1538 88.3917 92.2251 88.4249C92.2963 88.458 92.3581 88.5085 92.4049 88.5717Z" fill="#263238"/>
<path d="M88.7885 91.5119H89.4919C89.6326 91.5119 89.7451 91.4415 89.731 91.3501L89.4005 88.3327C89.4005 88.2483 89.2668 88.1709 89.1332 88.1709H88.4298C88.2962 88.1709 88.1837 88.2483 88.1977 88.3327L88.5283 91.3501C88.5283 91.4415 88.6479 91.5119 88.7885 91.5119Z" fill="#FFC100"/>
<path d="M67.9204 91.5119H68.6238C68.7644 91.5119 68.8699 91.4415 68.8629 91.3501L68.5323 88.3327C68.5323 88.2483 68.3987 88.1709 68.258 88.1709H67.5547C67.414 88.1709 67.3085 88.2483 67.3155 88.3327L67.6461 91.3501C67.6531 91.4415 67.7797 91.5119 67.9204 91.5119Z" fill="#FFC100"/>
<path d="M78.3086 91.5119H79.0119C79.1526 91.5119 79.2651 91.4415 79.2511 91.3501L78.9205 88.3327C78.9205 88.2483 78.7868 88.1709 78.6532 88.1709H77.9499C77.8162 88.1709 77.7037 88.2483 77.7177 88.3327L78.0483 91.3501C78.0483 91.4415 78.1679 91.5119 78.3086 91.5119Z" fill="#FFC100"/>
<path d="M96.7014 89.8242L90.0547 91.6881L95.4283 95.3385C95.4283 95.3385 99.0858 93.4817 99.1421 90.83L96.7014 89.8242Z" fill="#F3C8A9"/>
<path d="M99.3048 56.9346C100.585 59.8183 101.806 62.7256 102.969 65.6562C104.151 68.5892 105.29 71.5222 106.359 74.5467C106.627 75.3063 106.887 76.0589 107.147 76.8889L107.239 77.1983L107.365 77.6907C107.441 78.0119 107.491 78.3389 107.513 78.6684C107.567 79.2806 107.546 79.8971 107.45 80.5041C107.078 82.4437 106.268 84.2723 105.079 85.8496C103.087 88.5767 100.656 90.9537 97.884 92.8832L95.7317 90.4707C97.6366 88.217 99.3075 85.7755 100.719 83.1839C101.301 82.1505 101.665 81.0086 101.788 79.8289C101.791 79.6537 101.772 79.4789 101.731 79.3084C101.719 79.2479 101.7 79.189 101.675 79.1326L101.548 78.809C101.295 78.1549 100.986 77.4023 100.69 76.6989L96.9767 68.1109C95.7176 65.2483 94.4938 62.3575 93.2981 59.4667L99.3048 56.9346Z" fill="#F3C8A9"/>
<path d="M93.037 50.8438C99.4024 50.8438 102.399 61.1901 102.399 61.1901L93.5927 68.8497C93.5927 68.8497 89.8438 62.8571 89.3725 59.3544C88.9154 55.704 89.9352 50.8438 93.037 50.8438Z" fill="#263238"/>
<path d="M86.855 96.0132L91.5112 98.8266L95.4078 95.3379L90.0342 91.6875L86.855 96.0132Z" fill="#F3C8A9"/>
<path fill-rule="evenodd" clip-rule="evenodd" d="M2.76313 69.5627C-3.89376 51.21 17.368 32.6727 41.8295 20.8028C64.5769 9.7647 95.6202 8.85815 125.132 10.1837C152.337 11.4056 182.182 14.7222 198.129 27.823C212.948 39.9967 204.276 56.3179 199.037 70.8984C195.114 81.8148 183.274 89.8343 172.549 99.0051C157.286 112.058 151.252 134.164 124.284 134.824C97.506 135.48 90.983 112.171 71.0965 101.491C48.76 89.495 9.06482 86.9362 2.76313 69.5627Z" fill="#FFECB2"/>
<mask id="mask0_512_39539" style="mask-type:alpha" maskUnits="userSpaceOnUse" x="1" y="9" width="206" height="126">
<path fill-rule="evenodd" clip-rule="evenodd" d="M2.76337 69.5627C-3.89351 51.21 17.3682 32.6727 41.8298 20.8028C64.5772 9.7647 95.6205 8.85815 125.132 10.1837C152.337 11.4056 182.183 14.7222 198.13 27.823C212.948 39.9967 204.276 56.3179 199.037 70.8984C195.114 81.8148 183.274 89.8343 172.55 99.0051C157.287 112.058 151.252 134.164 124.284 134.824C97.5063 135.48 90.9832 112.171 71.0968 101.491C48.7603 89.495 9.06506 86.9362 2.76337 69.5627Z" fill="#FFECB2"/>
</mask>
<g mask="url(#mask0_512_39539)">
<path d="M78.4777 16.773C85.5112 14.1354 93.002 18.447 95.2246 26.6693C97.4472 34.8915 92.7277 43.1138 89.7314 44.8933C86.4889 42.3049 77.8376 42.0799 70.8814 44.5346C64.9099 34.2374 66.1056 16.1963 78.4777 16.773Z" fill="#263238"/>
<path d="M68.567 59.5652C68.4544 61.619 68.2153 63.4969 67.9551 65.4523C67.6948 67.4076 67.3291 69.2997 66.9282 71.2128C66.1509 75.0863 65.0305 78.883 63.5802 82.558C63.2355 83.4934 62.7783 84.4008 62.3774 85.3222C61.9765 86.2436 61.5123 87.0595 61.0622 87.9105C60.1619 89.6056 59.2475 91.2726 58.2979 92.9255C56.3918 96.2242 54.4365 99.4737 52.3194 102.646L49.4497 101.155C50.8072 97.638 52.2631 94.1212 53.7332 90.6677L55.9276 85.4839L56.9756 82.9237C57.2851 82.0867 57.6368 81.2919 57.897 80.4338C59.0342 77.0055 59.9274 73.5011 60.5698 69.9467C60.9144 68.1602 61.1677 66.3455 61.4349 64.5379C61.7022 62.7303 61.8921 60.8734 62.0469 59.1572L68.567 59.5652Z" fill="#F3C8A9"/>
<path d="M64.1299 51.7796C61.4993 52.4477 59.6565 63.2865 59.6565 63.2865L69.7286 70.1372C69.7286 70.1372 73.8714 57.2868 71.8387 54.396C69.7356 51.3786 67.9772 50.8019 64.1299 51.7796Z" fill="#263238"/>
<path opacity="0.2" d="M64.368 54.1992L60.9497 64.1799L66.4218 67.8866L64.368 54.1992Z" fill="black"/>
<path d="M49.9843 99.8816L47.3115 106.212L52.9947 105.199C52.9947 105.199 54.3381 101.316 52.5375 99.3682L49.9843 99.8816Z" fill="#F3C8A9"/>
<path d="M46.3342 109.384L51.94 108.315L52.995 105.199L47.3119 106.212L46.3342 109.384Z" fill="#F3C8A9"/>
<path d="M59.8882 99.791L48.7922 105.751C48.5822 105.864 48.4994 106.133 48.6073 106.353L51.4381 112.109C51.5461 112.329 51.8039 112.415 52.0139 112.302L63.11 106.343C63.32 106.23 63.4028 105.96 63.2949 105.741L60.4641 99.9842C60.3561 99.7647 60.0983 99.6782 59.8882 99.791Z" fill="#FFC100"/>
<path opacity="0.2" d="M59.8882 99.791L48.7922 105.751C48.5822 105.864 48.4994 106.133 48.6073 106.353L51.4381 112.109C51.5461 112.329 51.8039 112.415 52.0139 112.302L63.11 106.343C63.32 106.23 63.4028 105.96 63.2949 105.741L60.4641 99.9842C60.3561 99.7647 60.0983 99.6782 59.8882 99.791Z" fill="black"/>
<path d="M45.1158 100.002L44.8528 100.143C44.4327 100.369 44.267 100.908 44.4829 101.347L52.9337 118.54C53.1496 118.979 53.6651 119.152 54.0853 118.926L54.3483 118.785C54.7685 118.559 54.9341 118.021 54.7183 117.581L46.2674 100.389C46.0516 99.9497 45.536 99.7765 45.1158 100.002Z" fill="#FFC100"/>
<path d="M24.244 130.538L51.6155 115.837L45.8139 104.039L18.4425 118.741L24.244 130.538Z" fill="#FFC100"/>
<path opacity="0.2" d="M20.6583 123.25L48.0298 108.549L46.6663 105.776L19.2948 120.478L20.6583 123.25Z" fill="white"/>
<path opacity="0.2" d="M23.3888 128.796L50.7603 114.095L49.3967 111.322L22.0253 126.023L23.3888 128.796Z" fill="white"/>
<path d="M46.6293 98.9088C46.8058 99.3349 46.8771 99.8169 46.8339 100.294C46.7908 100.77 46.6353 101.22 46.3871 101.586C46.1389 101.953 45.8092 102.218 45.4399 102.35C45.0707 102.481 44.6784 102.473 44.313 102.325C43.9476 102.178 43.6255 101.898 43.3876 101.522C43.1497 101.145 43.0067 100.688 42.9768 100.21C42.9469 99.7318 43.0315 99.2532 43.2197 98.835C43.408 98.4168 43.6914 98.0779 44.0341 97.8614C44.4896 97.5717 45.0184 97.5192 45.5048 97.7155C45.9912 97.9118 46.3955 98.3409 46.6293 98.9088Z" fill="#FFC100"/>
<path d="M56.3196 118.025C56.4949 118.366 56.5652 118.751 56.5217 119.131C56.4781 119.512 56.3228 119.872 56.0752 120.164C55.8276 120.457 55.499 120.669 55.1307 120.775C54.7625 120.88 54.3712 120.874 54.0063 120.758C53.6414 120.641 53.3193 120.419 53.0807 120.119C52.8421 119.819 52.6977 119.455 52.6657 119.073C52.6337 118.691 52.7156 118.308 52.9011 117.973C53.0866 117.638 53.3672 117.365 53.7076 117.189C54.1649 116.954 54.6966 116.91 55.1862 117.067C55.6758 117.224 56.0834 117.568 56.3196 118.025Z" fill="#FFC100"/>
<path d="M11 130.201L24.5634 130.538L18.6223 118.912L11 130.201Z" fill="#FFC100"/>
<path opacity="0.6" d="M18.5368 118.912L24.5635 130.538L14.5993 130.293L12.9377 127.085L18.5368 118.912Z" fill="white"/>
<path d="M62.3564 54.0366C62.0259 57.7785 62.3564 67.0628 66.0702 90.0978H92.0171C91.6091 80.089 91.574 73.7096 95.8715 54.6204C95.9684 54.1918 95.9765 53.7478 95.8954 53.3159C95.8144 52.884 95.6458 52.4732 95.4 52.1089C95.1543 51.7445 94.8366 51.4343 94.4665 51.1973C94.0964 50.9604 93.6817 50.8016 93.2479 50.7309C90.7165 50.3138 88.1642 50.0343 85.6024 49.8939C81.6781 49.6122 77.7385 49.6122 73.8142 49.8939C70.5928 50.1893 67.0971 50.7731 64.987 51.1599C64.2934 51.2839 63.66 51.6328 63.1845 52.1528C62.7091 52.6727 62.4181 53.3348 62.3564 54.0366Z" fill="#263238"/>
<path opacity="0.2" d="M94.4794 59.9307C92.1302 60.5145 89.9568 63.0747 90.217 67.8012C90.3587 69.9482 91.1103 72.0101 92.3834 73.7446C92.7984 70.1153 93.4947 65.8951 94.599 60.5004L94.4794 59.9307Z" fill="black"/>
<path d="M84.4351 36.6289C83.6896 40.42 82.944 47.3622 85.6027 49.8942C85.6027 49.8942 82.951 52.2505 76.037 55.9009C70.7829 51.6808 73.8144 49.8942 73.8144 49.8942C78.0346 48.8884 77.9361 45.7515 77.1976 42.8044L84.4351 36.6289Z" fill="#F3C8A9"/>
<path opacity="0.2" d="M81.4813 39.1465L77.2048 42.7969C77.3853 43.4886 77.5053 44.1946 77.5635 44.907C79.1813 44.6749 81.7204 43.2963 82.065 41.5379C82.2338 40.6939 81.6219 39.5404 81.4813 39.1465Z" fill="black"/>
<path d="M88.8945 29.1659C87.9028 35.4328 87.6214 38.1056 84.1257 41.0316C78.8787 45.4416 71.402 42.8533 70.4947 36.4246C69.6858 30.6359 71.4372 21.3586 77.8448 19.4455C79.2554 19.014 80.7529 18.9506 82.1949 19.2615C83.6369 19.5723 84.9754 20.247 86.083 21.2213C87.1905 22.1956 88.0303 23.4372 88.5225 24.8278C89.0146 26.2184 89.1427 27.7118 88.8945 29.1659Z" fill="#F3C8A9"/>
<path d="M78.6887 29.8692C78.6394 30.3826 78.3229 30.7695 77.9853 30.7343C77.6477 30.6991 77.4156 30.263 77.4648 29.7496C77.5141 29.2361 77.8235 28.8493 78.1682 28.8774C78.5128 28.9056 78.7379 29.3838 78.6887 29.8692Z" fill="#263238"/>
<path d="M72.8858 29.3418C72.8366 29.8553 72.5271 30.2421 72.1824 30.214C71.8378 30.1858 71.6197 29.7357 71.6619 29.2222C71.7041 28.7088 72.0277 28.3219 72.3653 28.3501C72.7029 28.3782 72.935 28.8284 72.8858 29.3418Z" fill="#263238"/>
<path d="M72.5138 28.3992L71.3181 27.9209C71.3181 27.9209 71.8597 28.9478 72.5138 28.3992Z" fill="#263238"/>
<path d="M74.5884 30.4395C74.0192 31.5649 73.2973 32.6063 72.4431 33.5342C72.6877 33.7461 72.9754 33.9023 73.2863 33.9922C73.5971 34.082 73.9238 34.1034 74.2437 34.0547L74.5884 30.4395Z" fill="#BA4D3C"/>
<path d="M76.8463 36.3338C76.5934 36.3509 76.3396 36.3509 76.0867 36.3338C76.0475 36.3338 76.0099 36.3182 75.9822 36.2905C75.9545 36.2628 75.939 36.2253 75.939 36.1861C75.939 36.1469 75.9545 36.1093 75.9822 36.0816C76.0099 36.0539 76.0475 36.0384 76.0867 36.0384C76.7239 36.1117 77.3695 36.0347 77.9716 35.8136C78.5738 35.5925 79.1158 35.2335 79.5542 34.7653C79.5662 34.7501 79.5811 34.7373 79.5981 34.7278C79.615 34.7184 79.6336 34.7123 79.6529 34.71C79.6721 34.7077 79.6917 34.7093 79.7104 34.7145C79.729 34.7198 79.7465 34.7287 79.7617 34.7407C79.777 34.7527 79.7897 34.7676 79.7992 34.7845C79.8087 34.8014 79.8147 34.8201 79.817 34.8393C79.8193 34.8586 79.8178 34.8781 79.8125 34.8968C79.8072 34.9155 79.7983 34.9329 79.7863 34.9482C79.4122 35.362 78.9597 35.6975 78.4551 35.9354C77.9504 36.1732 77.4036 36.3086 76.8463 36.3338Z" fill="#263238"/>
<path d="M90.2802 34.2796C89.8136 35.4137 88.9191 36.3183 87.7903 36.7976C86.2852 37.4166 85.3427 36.0943 85.6029 34.5961C85.835 33.2316 86.8971 31.2622 88.4796 31.2903C88.8232 31.3093 89.1569 31.4119 89.4517 31.5894C89.7465 31.7669 89.9935 32.0137 90.171 32.3085C90.3486 32.6032 90.4513 32.9369 90.4704 33.2805C90.4894 33.624 90.4241 33.9671 90.2802 34.2796Z" fill="#F3C8A9"/>
<path d="M85.9544 24.7985C86.8618 27.7315 87.0657 33.295 84.6392 36.629C88.5076 33.2036 90.8217 29.4195 89.007 23.5254C87.9617 23.8798 86.9418 24.3051 85.9544 24.7985Z" fill="#263238"/>
<path d="M78.3156 18.2149C73.5117 18.6229 72.8997 22.1608 71.915 23.9403C75.4318 23.3213 85.4125 26.1629 87.1357 28.5613C90.8424 29.3421 90.118 23.3213 90.118 23.3213C90.118 23.3213 89.3232 17.6382 78.3156 18.2149Z" fill="#263238"/>
<path d="M80.7077 27.2106C80.6471 27.232 80.5814 27.234 80.5196 27.2164C80.4579 27.1987 80.4032 27.1623 80.363 27.1122C79.4838 26.029 77.6832 26.1275 77.6621 26.1275C77.5895 26.1215 77.5215 26.0895 77.4706 26.0374C77.4197 25.9853 77.3893 25.9165 77.385 25.8438C77.3808 25.7711 77.4029 25.6992 77.4473 25.6415C77.4918 25.5838 77.5556 25.5441 77.627 25.5296C77.7114 25.5296 79.737 25.403 80.8343 26.7324C80.8596 26.7636 80.8784 26.7996 80.8897 26.8382C80.9009 26.8768 80.9043 26.9173 80.8997 26.9572C80.8952 26.9972 80.8826 27.0358 80.863 27.0709C80.8433 27.1059 80.8168 27.1367 80.785 27.1614C80.762 27.1818 80.7359 27.1985 80.7077 27.2106Z" fill="#263238"/>
<path d="M70.7831 26.5704C70.7157 26.5762 70.6484 26.5594 70.5917 26.5225C70.5351 26.4856 70.4925 26.4308 70.4706 26.3669C70.4487 26.3029 70.4489 26.2335 70.4711 26.1697C70.4934 26.1058 70.5363 26.0513 70.5932 26.0147C70.9854 25.737 71.4384 25.557 71.9143 25.4897C72.3902 25.4224 72.8753 25.4698 73.3292 25.6279C73.3956 25.6633 73.4464 25.7222 73.4717 25.7931C73.4969 25.864 73.4949 25.9418 73.4659 26.0112C73.4369 26.0807 73.383 26.1368 73.3148 26.1687C73.2466 26.2005 73.169 26.2058 73.0971 26.1835C72.7356 26.0631 72.3507 26.0303 71.9741 26.0878C71.5975 26.1453 71.2399 26.2914 70.9308 26.5141C70.8876 26.5459 70.8365 26.5654 70.7831 26.5704Z" fill="#263238"/>
<path d="M66.0706 90.0977C66.0706 90.0977 55.0841 139.593 52.0878 158.83C48.979 178.84 40.6653 223.426 40.6653 223.426L48.9579 225.846C48.9579 225.846 61.2878 179.959 65.5501 160.314C70.1993 138.904 85.1949 110.263 85.0683 90.0977H66.0706Z" fill="#FFC100"/>
<path d="M48.8735 104.067L49.1267 108.161C49.1267 108.161 50.2873 107.232 50.1396 106.114C49.9919 104.996 51.7362 104.356 52.2497 103.033L48.8735 104.067Z" fill="#F3C8A9"/>
<path opacity="0.2" d="M79.2516 102.456C72 111.832 70.748 131.027 70.8113 142.442C76.2975 126.504 83.4155 109.195 84.8152 95.043C83.1412 97.0616 81.0733 100.1 79.2516 102.456Z" fill="black"/>
<path d="M73.3569 90.0977C73.3569 90.0977 75.9594 139.938 77.7107 159.343C79.5324 179.537 81.7339 225.29 81.7339 225.29H90.3712C90.3712 225.29 91.9115 179.713 91.3137 159.8C90.6595 138.095 95.8714 110.263 92.3547 90.0977H73.3569Z" fill="#FFC100"/>
<path d="M78.3158 28.9478L77.113 28.4766C77.113 28.4766 77.6546 29.5035 78.3158 28.9478Z" fill="#263238"/>
<path d="M92.4049 88.5717L93.1083 90.8928C93.1997 91.0756 92.9816 91.2585 92.6862 91.2585H65.9586C65.7195 91.2585 65.5296 91.146 65.5155 90.9983L65.2764 88.6772C65.2764 88.5154 65.4663 88.3818 65.7195 88.3818H91.9969C92.0754 88.3769 92.1538 88.3917 92.2251 88.4249C92.2963 88.458 92.3581 88.5085 92.4049 88.5717Z" fill="#263238"/>
<path d="M88.7885 91.5119H89.4919C89.6326 91.5119 89.7451 91.4415 89.731 91.3501L89.4005 88.3327C89.4005 88.2483 89.2668 88.1709 89.1332 88.1709H88.4298C88.2962 88.1709 88.1837 88.2483 88.1977 88.3327L88.5283 91.3501C88.5283 91.4415 88.6479 91.5119 88.7885 91.5119Z" fill="#FFC100"/>
<path d="M67.9204 91.5119H68.6238C68.7644 91.5119 68.8699 91.4415 68.8629 91.3501L68.5323 88.3327C68.5323 88.2483 68.3987 88.1709 68.258 88.1709H67.5547C67.414 88.1709 67.3085 88.2483 67.3155 88.3327L67.6461 91.3501C67.6531 91.4415 67.7797 91.5119 67.9204 91.5119Z" fill="#FFC100"/>
<path d="M78.3086 91.5119H79.0119C79.1526 91.5119 79.2651 91.4415 79.2511 91.3501L78.9205 88.3327C78.9205 88.2483 78.7868 88.1709 78.6532 88.1709H77.9499C77.8162 88.1709 77.7037 88.2483 77.7177 88.3327L78.0483 91.3501C78.0483 91.4415 78.1679 91.5119 78.3086 91.5119Z" fill="#FFC100"/>
<path d="M96.7014 89.8242L90.0547 91.6881L95.4283 95.3385C95.4283 95.3385 99.0858 93.4817 99.1421 90.83L96.7014 89.8242Z" fill="#F3C8A9"/>
<path d="M99.3048 56.9346C100.585 59.8183 101.806 62.7256 102.969 65.6562C104.151 68.5892 105.29 71.5222 106.359 74.5467C106.627 75.3063 106.887 76.0589 107.147 76.8889L107.239 77.1983L107.365 77.6907C107.441 78.0119 107.491 78.3389 107.513 78.6684C107.567 79.2806 107.546 79.8971 107.45 80.5041C107.078 82.4437 106.268 84.2723 105.079 85.8496C103.087 88.5767 100.656 90.9537 97.884 92.8832L95.7317 90.4707C97.6366 88.217 99.3075 85.7755 100.719 83.1839C101.301 82.1505 101.665 81.0086 101.788 79.8289C101.791 79.6537 101.772 79.4789 101.731 79.3084C101.719 79.2479 101.7 79.189 101.675 79.1326L101.548 78.809C101.295 78.1549 100.986 77.4023 100.69 76.6989L96.9767 68.1109C95.7176 65.2483 94.4938 62.3575 93.2981 59.4667L99.3048 56.9346Z" fill="#F3C8A9"/>
<path d="M93.037 50.8438C99.4024 50.8438 102.399 61.1901 102.399 61.1901L93.5927 68.8497C93.5927 68.8497 89.8438 62.8571 89.3725 59.3544C88.9154 55.704 89.9352 50.8438 93.037 50.8438Z" fill="#263238"/>
<path d="M88.4161 49.7045C88.347 49.697 88.2771 49.7073 88.2131 49.7344C88.1491 49.7615 88.0931 49.8045 88.0503 49.8593C86.1583 52.3421 65.3037 80.0615 63.264 99.7204C63.1796 100.951 63.0178 104.074 63.0178 104.074C63.0178 104.074 66.3799 82.678 90.3785 50.5275C90.4226 50.4699 90.4507 50.4016 90.4596 50.3296C90.4686 50.2576 90.4583 50.1845 90.4296 50.1179C90.4009 50.0513 90.355 49.9935 90.2966 49.9505C90.2381 49.9075 90.1693 49.8809 90.0971 49.8733L88.4161 49.7045Z" fill="#FFC100"/>
<path opacity="0.4" d="M88.4161 49.7045C88.347 49.697 88.2771 49.7073 88.2131 49.7344C88.1491 49.7615 88.0931 49.8045 88.0503 49.8593C86.1583 52.3421 65.3037 80.0615 63.264 99.7204C63.1796 100.951 63.0178 104.074 63.0178 104.074C63.0178 104.074 66.3799 82.678 90.3785 50.5275C90.4226 50.4699 90.4507 50.4016 90.4596 50.3296C90.4686 50.2576 90.4583 50.1845 90.4296 50.1179C90.4009 50.0513 90.355 49.9935 90.2966 49.9505C90.2381 49.9075 90.1693 49.8809 90.0971 49.8733L88.4161 49.7045Z" fill="white"/>
<path d="M123.982 10.8926C120.014 4.23228 127.39 2.30502 132.144 4.04806C136.899 5.79109 139.938 0.909177 144.19 1.00129C148.441 1.0934 148.93 7.08774 145.408 8.68197C141.887 10.2762 137.685 14.6267 133.625 14.8747C134.001 21.1029 129.707 33.1411 127.588 29.8251C125.47 26.5091 110.491 16.6815 123.982 10.8926Z" fill="#263238"/>
<path d="M124.117 11.8703C122.947 11.8703 120.347 11.4381 118.533 7.89534C118.399 7.63037 118.375 7.32288 118.468 7.04051C118.56 6.75814 118.761 6.52403 119.026 6.38967C119.291 6.2553 119.598 6.2317 119.88 6.32405C120.163 6.4164 120.397 6.61714 120.531 6.88211C122.09 9.92887 124.23 9.63837 124.322 9.6242C124.611 9.57662 124.907 9.64419 125.147 9.81241C125.387 9.98064 125.551 10.2361 125.605 10.5241C125.656 10.8123 125.592 11.1094 125.427 11.3508C125.261 11.5923 125.007 11.7585 124.719 11.8136C124.52 11.8496 124.319 11.8686 124.117 11.8703Z" fill="#263238"/>
<path d="M154.69 46.3555C156.107 50.5359 157.418 54.6951 158.608 58.9322C159.799 63.1694 160.876 67.4348 161.804 71.7782C162.279 74.1235 162.59 75.7745 163.143 77.7159L163.582 79.133L164.078 80.5501C164.418 81.5066 164.787 82.4703 165.162 83.4268C166.672 87.2601 168.535 91.1358 170.399 94.877L166.53 97.6403C165.014 95.9675 163.595 94.2098 162.279 92.3758C160.942 90.5513 159.701 88.6594 158.559 86.7074C157.374 84.7099 156.328 82.6337 155.427 80.4934C154.56 78.3462 153.834 76.1451 153.252 73.9039C152.061 69.8368 150.786 65.7414 149.482 61.6531L145.606 49.381L154.69 46.3555Z" fill="#FAC3BB"/>
<path d="M143.135 45.9514C141.448 51.7615 147.995 60.9089 147.995 60.9089L159.226 57.2882C159.226 57.2882 158.751 50.4011 154.904 45.1082C150.185 38.5754 144.963 39.5744 143.135 45.9514Z" fill="#263238"/>
<path opacity="0.2" d="M148.767 48.5596C145.933 47.2276 143.715 47.3693 142.858 48.0282C142.858 53.6966 147.995 60.8743 147.995 60.8743L155.952 58.3093C155.591 55.6097 153.217 50.6357 148.767 48.5596Z" fill="black"/>
<path d="M169.839 93.9131L174.239 98.8729L167.671 101.367C167.671 101.367 163.512 98.5328 166.211 94.7846L169.839 93.9131Z" fill="#FAC3BB"/>
<path d="M175.607 102.105L170.237 104.152L167.672 101.353L174.24 98.8594L175.607 102.105Z" fill="#FAC3BB"/>
<path d="M114.848 43.3234C121.735 67.3433 120.439 92.8652 121.069 98.0306L154.818 95.4231C158.566 64.1902 152.366 46.1434 150.651 41.8851C150.531 41.5889 150.339 41.3277 150.091 41.1258C149.843 40.9239 149.549 40.7878 149.234 40.7301C148.313 40.5813 146.861 40.3688 145.139 40.1916C144.211 40.0995 143.212 40.0216 142.17 39.972C141.596 39.972 141.015 39.9224 140.42 39.9082C135.609 39.9938 130.806 40.3557 126.036 40.9923C125.137 41.1057 124.223 41.2474 123.337 41.3962C122.451 41.545 121.707 41.6867 120.949 41.8425C117.505 42.5653 114.848 43.3234 114.848 43.3234Z" fill="#263238"/>
<path opacity="0.2" d="M117.187 52.9454C117.945 56.6724 118.548 60.3781 119.008 63.9492C120.652 57.7139 121.729 51.252 121.729 51.252L117.187 52.9454Z" fill="black"/>
<path d="M126.277 24.8584C127.538 29.4073 129.111 37.7965 126.107 41.1551C128.807 43.4508 132.307 46.0795 137.805 45.8527C143.304 45.626 142.057 41.9203 140.448 40.0426C135.205 39.2136 135.049 35.3804 135.666 31.7242L126.277 24.8584Z" fill="#FAC3BB"/>
<path d="M141.526 39.8511C140.93 39.7489 140.321 39.7489 139.726 39.8511C139.726 39.8511 144.473 44.7613 138.443 45.7533C133.995 45.0482 129.773 43.3134 126.115 40.6871C125.635 40.7486 125.168 40.8874 124.733 41.0981C126.107 45.817 136.36 49.8558 136.36 49.8558C136.28 49.2754 136.338 48.6844 136.529 48.1305C136.72 47.5766 137.038 47.0754 137.458 46.6673L139.882 46.4547C140.912 47.0593 141.689 48.0154 142.071 49.1472C142.071 49.1472 145.748 44.2582 141.526 39.8511Z" fill="white"/>
<path opacity="0.2" d="M130.083 27.6494L135.638 31.6952C135.481 32.5461 135.401 33.4092 135.397 34.2744C133.406 34.1397 130.536 32.1912 130.168 30.1506C129.989 29.3288 129.96 28.4815 130.083 27.6494Z" fill="black"/>
<path d="M125.194 17.9574C126.058 24.1785 126.25 27.8771 129.658 30.8247C134.774 35.2886 142.27 31.8237 143.283 25.468C144.19 19.75 142.617 10.5389 136.304 8.52662C134.915 8.07456 133.433 7.98552 132 8.268C130.567 8.55047 129.23 9.19505 128.116 10.1404C127.003 11.0857 126.149 12.3003 125.638 13.6686C125.126 15.0369 124.974 16.5134 125.194 17.9574Z" fill="#FAC3BB"/>
<path d="M125.123 21.613C126.773 24.1992 131.5 15.9446 130.047 12.4018C128.594 8.85909 124.754 12.0901 124.754 12.0901C124.754 12.0901 122.288 17.142 125.123 21.613Z" fill="#263238"/>
<path d="M126.199 11.9414C132.413 14.4426 139.485 14.1237 141.887 13.9466C144.289 13.7695 147.208 13.0963 146.266 10.2055C145.012 6.3297 136.814 8.1365 133.753 7.13035C130.692 6.12421 123.55 8.8167 126.199 11.9414Z" fill="#263238"/>
<path d="M123.068 23.6887C123.752 24.9624 124.907 25.9184 126.285 26.3529C128.092 26.8914 128.964 25.2192 128.411 23.4478C127.936 21.8536 126.42 19.65 124.627 19.9051C122.835 20.1601 122.218 22.1016 123.068 23.6887Z" fill="#FAC3BB"/>
<path d="M176.351 227.454L165.886 229.764C165.886 229.764 154.598 189.788 151.339 170.31C150.354 164.393 148.108 155.954 146.06 147.069C143.467 135.874 140.229 123.765 137.558 114.292C134.766 104.308 132.697 97.1304 132.697 97.1304L154.768 95.4229C154.768 95.4229 165.638 147.466 167.926 166.646C170.364 186.592 176.351 227.454 176.351 227.454Z" fill="#FFC100"/>
<path opacity="0.3" d="M176.351 227.454L165.886 229.764C165.886 229.764 154.598 189.788 151.339 170.31C150.354 164.393 148.108 155.954 146.06 147.069C143.467 135.874 140.229 123.765 137.558 114.292C134.766 104.308 132.697 97.1304 132.697 97.1304L154.768 95.4229C154.768 95.4229 165.638 147.466 167.926 166.646C170.364 186.592 176.351 227.454 176.351 227.454Z" fill="black"/>
<path opacity="0.2" d="M146.081 147.069C143.488 135.874 140.25 123.765 137.579 114.292L139.846 109.332C145.429 115.815 147.087 136.059 146.081 147.069Z" fill="black"/>
<path d="M144.303 96.2588C144.303 96.2588 140.923 150.675 138.387 169.048C135.616 189.164 134.093 229.629 134.093 229.629H122.501C122.501 229.629 120.127 191.367 121.75 171.663C123.599 149.187 121.042 98.0514 121.042 98.0514L144.303 96.2588Z" fill="#FFC100"/>
<path opacity="0.3" d="M144.303 96.2588C144.303 96.2588 140.923 150.675 138.387 169.048C135.616 189.164 134.093 229.629 134.093 229.629H122.501C122.501 229.629 120.127 191.367 121.75 171.663C123.599 149.187 121.042 98.0514 121.042 98.0514L144.303 96.2588Z" fill="black"/>
<path d="M134.334 18.9706C134.376 19.4807 134.674 19.8704 135.007 19.8421C135.34 19.8137 135.581 19.3886 135.538 18.8785C135.496 18.3683 135.198 17.9786 134.865 17.9999C134.532 18.0211 134.277 18.4604 134.334 18.9706Z" fill="#263238"/>
<path d="M140.066 18.5233C140.109 19.0335 140.406 19.4232 140.775 19.4019C141.143 19.3806 141.349 18.9413 141.306 18.4312C141.264 17.921 140.966 17.5313 140.598 17.5526C140.229 17.5738 140.003 18.0131 140.066 18.5233Z" fill="#263238"/>
<path d="M138.748 18.9209C139.477 20.4294 140.409 21.8312 141.518 23.0872C140.682 23.9941 139.124 23.732 139.124 23.732L138.748 18.9209Z" fill="#C48F8E"/>
<path d="M137.083 25.2548C136.512 25.2356 135.951 25.1 135.435 24.8563C134.918 24.6126 134.457 24.266 134.079 23.8377C134.065 23.8239 134.053 23.8073 134.046 23.7891C134.038 23.7708 134.034 23.7512 134.034 23.7314C134.034 23.7116 134.038 23.692 134.046 23.6738C134.053 23.6555 134.065 23.639 134.079 23.6251C134.107 23.5987 134.143 23.584 134.182 23.584C134.22 23.584 134.257 23.5987 134.284 23.6251C134.711 24.0973 135.242 24.463 135.835 24.6931C136.428 24.9232 137.066 25.0112 137.7 24.9501C137.738 24.9481 137.775 24.961 137.805 24.9861C137.834 25.0112 137.852 25.0465 137.855 25.0848C137.857 25.1043 137.855 25.1241 137.85 25.1429C137.844 25.1617 137.835 25.1792 137.822 25.1943C137.81 25.2095 137.794 25.222 137.777 25.2311C137.759 25.2403 137.74 25.2459 137.721 25.2477C137.509 25.2662 137.296 25.2686 137.083 25.2548Z" fill="#263238"/>
<path d="M132.917 17.2488C132.866 17.2464 132.817 17.2291 132.775 17.1992C132.742 17.1789 132.712 17.152 132.689 17.1201C132.666 17.0882 132.65 17.0519 132.641 17.0134C132.632 16.975 132.632 16.9352 132.639 16.8965C132.646 16.8578 132.661 16.8209 132.683 16.7882C132.931 16.3823 133.273 16.0418 133.68 15.7952C134.087 15.5487 134.547 15.4032 135.021 15.3711C135.1 15.3711 135.176 15.4024 135.232 15.4583C135.288 15.5141 135.319 15.5898 135.319 15.6687C135.321 15.708 135.315 15.7473 135.301 15.7842C135.287 15.8211 135.266 15.8548 135.239 15.8833C135.212 15.9118 135.179 15.9345 135.143 15.95C135.107 15.9655 135.068 15.9734 135.029 15.9734C134.652 16.0033 134.288 16.1231 133.968 16.3229C133.647 16.5226 133.379 16.7964 133.186 17.1212C133.157 17.1648 133.117 17.1997 133.069 17.2221C133.022 17.2446 132.969 17.2538 132.917 17.2488Z" fill="#263238"/>
<path d="M142.886 16.3559C142.837 16.3537 142.789 16.3389 142.747 16.3128C142.704 16.2868 142.67 16.2504 142.646 16.2071C142.464 15.8766 142.208 15.5937 141.896 15.3819C141.584 15.17 141.227 15.0351 140.853 14.9884C140.774 14.9812 140.701 14.9442 140.648 14.885C140.595 14.8258 140.567 14.7487 140.569 14.6695C140.571 14.6304 140.581 14.5921 140.597 14.5567C140.614 14.5212 140.638 14.4895 140.667 14.4631C140.695 14.4368 140.729 14.4165 140.766 14.4032C140.803 14.39 140.842 14.3842 140.881 14.3861C141.355 14.4382 141.809 14.603 142.206 14.8669C142.603 15.1307 142.931 15.4858 143.163 15.9024C143.183 15.9363 143.196 15.9739 143.202 16.013C143.208 16.0521 143.206 16.0919 143.196 16.1302C143.186 16.1684 143.168 16.2043 143.145 16.2358C143.121 16.2672 143.091 16.2936 143.056 16.3134C143.004 16.3407 142.946 16.3553 142.886 16.3559Z" fill="#263238"/>
<path d="M121.771 51.8613C120.751 53.7532 119.646 55.7938 118.64 57.7919C117.633 59.79 116.613 61.8235 115.664 63.85C113.748 67.7908 112.124 71.8664 110.803 76.0441L110.392 77.5392C110.342 77.7234 110.392 77.6526 110.35 77.6313C110.336 77.6848 110.336 77.7408 110.35 77.7943C110.426 78.489 110.622 79.1651 110.931 79.7924C111.819 81.6399 112.881 83.3981 114.105 85.0427C116.649 88.5855 119.681 92.0786 122.664 95.4655L119.582 99.0791C117.583 97.733 115.658 96.2807 113.814 94.7286C111.94 93.1766 110.154 91.5207 108.465 89.7688C106.637 87.902 105.03 85.8312 103.675 83.5973C102.827 82.2001 102.23 80.6654 101.911 79.0626C101.818 78.5434 101.77 78.017 101.769 77.4896C101.769 77.2062 101.769 76.9015 101.812 76.6039L101.875 76.1363C101.875 75.945 101.911 75.9449 101.932 75.8387L102.3 73.9398C102.842 71.503 103.53 69.1013 104.362 66.748C105.156 64.431 106.049 62.1778 107.005 59.9671C107.962 57.7565 108.968 55.5741 110.052 53.4414C111.136 51.3087 112.227 49.2255 113.51 47.0645L121.771 51.8613Z" fill="#FAC3BB"/>
<path d="M114.849 43.3229C111.42 44.7826 108.118 55.1628 108.118 55.1628L117.208 62.0074C117.208 62.0074 120.17 57.3452 122.395 53.5048C126.675 46.1146 121.58 40.4604 114.849 43.3229Z" fill="#263238"/>
<path d="M120.992 94.6074L127.128 96.3788L122.522 101.204C122.522 101.204 116.939 98.9508 118.604 96.4709L120.992 94.6074Z" fill="#FAC3BB"/>
<path d="M129.771 101.679L125.505 104.421L122.515 101.204L127.121 96.3789L129.771 101.679Z" fill="#FAC3BB"/>
<path d="M119.223 137.901C117.57 137.665 115.991 137.055 114.605 136.116L96.8246 124.005C95.2916 122.966 94.0452 121.552 93.2022 119.894C92.3593 118.237 91.9475 116.39 92.0054 114.528L93.2138 72.8764C93.2363 72.0829 93.4247 71.3032 93.7666 70.5882C94.1085 69.8732 94.5962 69.2391 95.1978 68.7274C95.7994 68.2158 96.5013 67.838 97.2576 67.6189C98.0139 67.3997 98.8075 67.3442 99.5866 67.4559C100.033 67.5146 100.47 67.6292 100.888 67.7969C102.303 68.3216 103.773 68.6795 105.269 68.8636C107.956 69.2155 110.673 69.2908 113.375 69.0886C118.928 68.6967 123.445 67.2092 125.466 65.903C126.591 65.1688 127.941 64.8673 129.268 65.0539C130.595 65.2404 131.812 65.9024 132.695 66.9189C134.278 68.7258 138.219 71.4034 143.484 73.3045C146.029 74.2463 148.664 74.9199 151.346 75.3146C152.833 75.5505 154.341 75.6114 155.842 75.496C156.855 75.3947 157.877 75.5719 158.799 76.0088C159.721 76.4457 160.508 77.126 161.078 77.9777C161.506 78.6323 161.794 79.3701 161.923 80.1437C162.052 80.9172 162.019 81.7094 161.826 82.4694L151.756 122.873C151.311 124.68 150.417 126.343 149.158 127.705C147.9 129.067 146.319 130.084 144.563 130.659L124.172 137.429C122.579 137.965 120.887 138.127 119.223 137.901Z" fill="#FFC100"/>
<path opacity="0.3" d="M127.296 68.4096C124.498 70.2107 119.321 71.7056 113.637 72.0994C107.952 72.4931 102.899 71.866 99.6871 70.5972C99.3109 70.4427 98.903 70.3822 98.4985 70.4208C98.094 70.4594 97.7048 70.596 97.3641 70.8189C97.0235 71.0418 96.7417 71.3443 96.5427 71.7007C96.3437 72.057 96.2334 72.4565 96.2214 72.865L95.0034 114.721C94.9644 116.06 95.263 117.388 95.8715 118.58C96.48 119.772 97.3786 120.79 98.4835 121.539L116.406 133.717C117.409 134.393 118.552 134.832 119.749 135L129 68.0231C128.404 67.9412 127.799 68.0785 127.296 68.4096Z" fill="white"/>
<path opacity="0.2" d="M143.276 126.273C144.514 125.866 145.63 125.153 146.518 124.199C147.406 123.245 148.039 122.081 148.356 120.817L158.276 81.3722C158.372 80.9865 158.373 80.5832 158.28 80.1968C158.187 79.8104 158.001 79.4524 157.739 79.1531C157.478 78.8539 157.148 78.6223 156.777 78.4782C156.407 78.3341 156.007 78.2817 155.612 78.3254C152.253 78.6585 147.244 77.872 142.1 76.0156C136.956 74.1592 132.393 71.3604 130.239 68.9301C129.85 68.4851 129.314 68.1957 128.729 68.1152L119.688 133.196C120.854 133.358 122.042 133.251 123.16 132.884L143.276 126.273Z" fill="white"/>
<path d="M124.819 110.298C124.541 110.27 124.26 110.298 123.994 110.379C123.728 110.46 123.482 110.593 123.272 110.769L127 85C121.792 92.0417 121 98.3663 121 98.3663L123.445 101.474L121.664 113.79C121.362 115.913 122.268 117.796 123.702 117.985C125.136 118.173 126.562 116.608 126.864 114.485C127.166 112.363 126.245 110.486 124.819 110.298ZM123.86 116.927C122.826 116.789 122.17 115.435 122.389 113.906C122.608 112.377 123.634 111.24 124.653 111.378C125.672 111.515 126.351 112.87 126.162 114.406C125.974 115.942 124.902 117.065 123.86 116.927Z" fill="white"/>
<path d="M117.639 104.738C117.797 104.951 117.907 105.192 117.963 105.447C118.018 105.702 118.018 105.966 117.962 106.221L139 91C135.239 98.5401 130.053 102.18 130.053 102.18L126.145 101.66L116.038 108.954C114.304 110.205 112.211 110.36 111.359 109.278C110.506 108.195 111.226 106.305 112.953 105.061C114.679 103.818 116.787 103.635 117.639 104.738ZM112.225 108.652C112.842 109.425 114.356 109.355 115.604 108.42C116.853 107.486 117.367 106.151 116.758 105.378C116.148 104.605 114.635 104.675 113.379 105.609C112.123 106.544 111.608 107.851 112.225 108.631V108.652Z" fill="white"/>
<path d="M127.028 82.5702L126.483 82.4922L126.681 81.0751L127.227 81.1531L127.028 82.5702ZM127.524 78.9778L126.986 78.8999L127.283 76.7317L127.829 76.8097L127.524 78.9778ZM128.126 74.6415L127.588 74.5706L127.886 72.4025L128.424 72.4804L128.126 74.6415ZM128.729 70.3123L128.19 70.2343L128.488 68.0732L129.026 68.1512L128.729 70.3123Z" fill="white"/>
<path d="M119.986 133.224L119.447 133.153L119.645 131.736L120.184 131.807L119.986 133.224ZM120.489 129.639L119.943 129.561L120.248 127.393L120.786 127.471L120.489 129.639ZM121.091 125.303L120.545 125.232L120.85 123.064L121.388 123.142L121.091 125.303ZM121.693 120.973L121.148 120.895L121.452 118.734L121.991 118.805L121.693 120.973Z" fill="white"/>
</g>
</g>
<defs>
<clipPath id="clip0_512_39539">
<rect width="210" height="140" fill="white"/>
</clipPath>
</defs>
</svg>
