<svg width="210" height="140" viewBox="0 0 210 140" fill="none" xmlns="http://www.w3.org/2000/svg">
<path fill-rule="evenodd" clip-rule="evenodd" d="M40.0001 14.0004C67.416 4.09913 92.1461 21.6103 113.5 27.0004C142.144 34.2307 186.909 13.7811 199 36.5005C211.389 59.7776 193.81 85.4061 172.844 103.981C155.118 119.686 130.466 126.217 104.581 127.59C77.4515 129.029 48.9388 127.35 29.505 111.583C8.08471 94.2038 -4.50345 72.5883 6.50028 46.5005C13.8779 29.0095 22.1455 20.4486 40.0001 14.0004Z" fill="#FFECB2"/>
<path d="M88.6615 86.6798C86.9858 86.6767 85.3595 86.1121 84.0423 85.0763C82.7251 84.0405 81.793 82.5932 81.3949 80.9655C81.35 80.7811 81.3803 80.5865 81.479 80.4244C81.5776 80.2623 81.7367 80.1461 81.9211 80.1013C82.1054 80.0564 82.3001 80.0867 82.4622 80.1853C82.6242 80.284 82.7405 80.4431 82.7853 80.6274C83.1642 82.1903 84.1484 83.5387 85.5214 84.3759C86.8945 85.2131 88.5438 85.4706 90.1067 85.0917C91.6695 84.7128 93.0179 83.7286 93.8551 82.3556C94.6923 80.9826 94.9498 79.3332 94.5709 77.7703L78.633 10.3757C78.5888 10.1914 78.6196 9.99696 78.7188 9.83532C78.8179 9.67368 78.9772 9.55804 79.1615 9.51384C79.3459 9.46964 79.5403 9.50049 79.702 9.59962C79.8636 9.69875 79.9792 9.85802 80.0234 10.0424L95.9566 77.4227C96.1894 78.3792 96.2313 79.3722 96.0798 80.3449C95.9284 81.3176 95.5865 82.2509 95.0739 83.0913C94.5612 83.9317 93.8878 84.6627 93.0923 85.2425C92.2967 85.8223 91.3946 86.2395 90.4376 86.4702C89.856 86.6102 89.2597 86.6806 88.6615 86.6798Z" fill="#263238"/>
<path d="M27.2126 46.3996C26.9935 44.4329 30.4649 41.9901 35.1696 40.852C40.041 39.6758 44.3648 40.3377 44.8505 42.333C44.3743 40.3377 49.2409 37.4521 55.7361 35.8806C62.2313 34.3092 67.8693 34.6521 68.3455 36.6473C67.8693 34.6521 74.4359 31.3569 83.0216 29.2807C91.6072 27.2045 98.9738 27.1331 99.4547 29.1283C98.9785 27.1331 103.84 24.2474 110.336 22.676C116.831 21.1046 122.474 21.4474 122.954 23.4427C122.478 21.4474 126.031 18.8808 130.888 17.7284C135.592 16.5903 139.811 17.1713 140.511 19.0284C137.345 7.02377 109.721 3.39047 78.5787 10.9333C47.4362 18.476 24.5364 34.2759 27.2126 46.3996Z" fill="#B0BEC5"/>
<path d="M44.85 42.3331C44.3738 40.3379 49.2404 37.4522 55.7356 35.8808C62.2308 34.3094 67.8688 34.6523 68.345 36.6475C67.8688 34.6523 74.4354 31.357 83.0211 29.2809C91.6067 27.2047 98.9733 27.1333 99.4542 29.1285C98.978 27.1333 103.84 24.2476 110.335 22.6762C116.83 21.1048 122.473 21.4476 122.954 23.4428C120.021 11.3001 100.154 5.68111 78.5782 10.9001C57.0023 16.1191 41.9119 30.1856 44.85 42.3331Z" fill="#FFC100"/>
<path d="M68.3455 36.6476C67.8693 34.6524 74.4359 31.3572 83.0215 29.281C91.6072 27.2048 98.9737 27.1334 99.4547 29.1286C96.5309 16.9811 87.1786 8.83833 78.593 10.9002C70.0074 12.9621 65.4217 24.5001 68.3455 36.6476Z" fill="#B0BEC5"/>
<mask id="mask0_512_34808" style="mask-type:alpha" maskUnits="userSpaceOnUse" x="2" y="11" width="202" height="117">
<path fill-rule="evenodd" clip-rule="evenodd" d="M39.9998 13.9994C67.4157 4.09815 92.1459 21.6093 113.5 26.9994C142.144 34.2297 186.909 13.7802 199 36.4995C211.388 59.7767 193.81 85.4051 172.844 103.98C155.117 119.685 130.466 126.217 104.581 127.589C77.4512 129.028 48.9386 127.349 29.5047 111.582C8.08447 94.2028 -4.5037 72.5873 6.50003 46.4995C13.8777 29.0085 22.1453 20.4476 39.9998 13.9994Z" fill="#FFECB2"/>
</mask>
<g mask="url(#mask0_512_34808)">
<path d="M138.506 129.431C141.018 118.127 145.178 106.19 140.797 96.0469L120.809 97.8127C120.809 97.8127 122.79 121.873 123.321 132.039C123.877 142.61 130.662 166.999 130.662 166.999H138.896C138.896 166.999 140.167 141.135 138.506 129.431Z" fill="#263238"/>
<path d="M156.641 128.504C156.234 117.563 155.547 101.2 151.432 96.5225L128.904 98.0469C128.904 98.0469 137.319 121.325 140.563 131.161C143.94 141.388 158.516 162.712 158.516 162.712L166.046 160.555C166.046 160.555 160.699 140.676 156.641 128.504Z" fill="#263238"/>
<path d="M100.199 80.9423L100.809 83.9377C100.343 87.1134 96.4264 85.7605 96.4264 85.7605L94.3004 85.884C93.9232 85.8817 93.5591 85.7423 93.2735 85.4909C92.9879 85.2395 92.7994 84.8925 92.7419 84.5121L92.3 82.4234C92.1822 81.9992 92.2316 81.5448 92.4376 81.1573C92.6436 80.7697 92.9899 80.4796 93.4025 80.3489L95.2168 79.9359C95.7442 79.817 96.292 79.8317 96.8125 79.9787L100.199 80.9423Z" fill="#FFC3BD"/>
<path d="M88.6612 86.6798C86.9856 86.6767 85.3593 86.1121 84.0421 85.0763C82.7249 84.0405 81.7928 82.5932 81.3946 80.9655C81.3498 80.7811 81.38 80.5865 81.4787 80.4244C81.5774 80.2623 81.7364 80.1461 81.9208 80.1013C82.1052 80.0564 82.2998 80.0867 82.4619 80.1853C82.624 80.284 82.7402 80.4431 82.7851 80.6274C83.164 82.1903 84.1482 83.5387 85.5212 84.3759C86.8942 85.2131 88.5436 85.4706 90.1064 85.0917C91.6693 84.7128 93.0177 83.7286 93.8549 82.3556C94.6921 80.9826 94.9496 79.3332 94.5707 77.7703L78.6327 10.3757C78.5885 10.1914 78.6194 9.99696 78.7185 9.83532C78.8176 9.67368 78.9769 9.55804 79.1613 9.51384C79.3457 9.46964 79.5401 9.50049 79.7017 9.59962C79.8634 9.69875 79.979 9.85802 80.0232 10.0424L95.9564 77.4227C96.1892 78.3792 96.2311 79.3722 96.0796 80.3449C95.9281 81.3176 95.5863 82.2509 95.0736 83.0913C94.561 83.9317 93.8876 84.6627 93.092 85.2425C92.2965 85.8223 91.3944 86.2395 90.4374 86.4702C89.8557 86.6102 89.2595 86.6806 88.6612 86.6798Z" fill="#263238"/>
<path d="M27.2126 46.3996C26.9935 44.4329 30.4649 41.9901 35.1696 40.852C40.041 39.6758 44.3648 40.3377 44.8505 42.333C44.3743 40.3377 49.2409 37.4521 55.7361 35.8806C62.2313 34.3092 67.8693 34.6521 68.3455 36.6473C67.8693 34.6521 74.4359 31.3569 83.0216 29.2807C91.6072 27.2045 98.9738 27.1331 99.4547 29.1283C98.9785 27.1331 103.84 24.2474 110.336 22.676C116.831 21.1046 122.474 21.4474 122.954 23.4427C122.478 21.4474 126.031 18.8808 130.888 17.7284C135.592 16.5903 139.811 17.1713 140.511 19.0284C137.345 7.02377 109.721 3.39047 78.5787 10.9333C47.4362 18.476 24.5364 34.2759 27.2126 46.3996Z" fill="#B0BEC5"/>
<path d="M44.8505 42.3331C44.3743 40.3379 49.2409 37.4522 55.7361 35.8808C62.2313 34.3094 67.8693 34.6523 68.3455 36.6475C67.8693 34.6523 74.4359 31.357 83.0215 29.2809C91.6072 27.2047 98.9738 27.1333 99.4547 29.1285C98.9785 27.1333 103.84 24.2476 110.336 22.6762C116.831 21.1048 122.474 21.4476 122.954 23.4428C120.021 11.3001 100.155 5.68111 78.5787 10.9001C57.0027 16.1191 41.9124 30.1856 44.8505 42.3331Z" fill="#FFC100"/>
<path d="M68.3452 36.6476C67.869 34.6524 74.4357 31.3572 83.0213 29.281C91.6069 27.2048 98.9735 27.1334 99.4545 29.1286C96.5307 16.9811 87.1784 8.83833 78.5928 10.9002C70.0071 12.9621 65.4215 24.5001 68.3452 36.6476Z" fill="#B0BEC5"/>
<path d="M100.802 81.4571C99.5838 79.2374 97.3713 79.3663 95.6272 78.9104C95.3327 78.8321 94.8644 79.5229 95.2257 79.9558C95.4254 80.2398 95.6784 80.4795 95.9696 80.6607C96.2607 80.8418 96.5842 80.9607 96.9208 81.0104C97.0055 81.8024 97.9869 83.8747 100.155 83.6491C100.623 83.0248 100.853 82.2449 100.802 81.4571Z" fill="#FFC3BD"/>
<path d="M134.142 62.5876C133.149 64.0546 132.128 65.4747 131.112 66.9088C130.095 68.343 129.055 69.7583 128 71.169C125.896 73.9903 123.744 76.7881 121.477 79.5764L120.523 80.7661L119.63 81.1469C119.153 81.3491 118.676 81.5607 118.232 81.7347L116.925 82.2049C116.085 82.4777 115.25 82.7457 114.434 82.9761C112.802 83.4463 111.184 83.8507 109.581 84.2269C107.977 84.603 106.365 84.9322 104.761 85.2331C103.158 85.534 101.554 85.8162 99.9034 86.0466L97.9517 78.6642L106.751 75.2693C108.206 74.7144 109.614 74.1219 111.022 73.5436C111.719 73.252 112.377 72.9511 113.031 72.6549L113.938 72.1846L114.711 71.7615L112.85 73.332C114.734 70.5107 116.615 67.6001 118.504 64.7082L121.367 60.3634C122.322 58.9246 123.276 57.4622 124.231 56.0469L134.142 62.5876Z" fill="#B0BEC5"/>
<path d="M127.56 51.905C133.289 50.6528 139.12 50.1461 144.945 50.3942C145.743 50.4474 146.524 50.6901 147.239 51.1075C147.954 51.5249 148.589 52.1081 149.104 52.8216C149.619 53.535 150.004 54.3636 150.235 55.2566C150.467 56.1497 150.539 57.0884 150.449 58.0152C148.981 74.1562 151.797 93.1275 151.76 96.2926C151.76 96.2926 126.351 108.499 119.551 99.2521C116.273 80.013 120.994 63.2601 123.199 56.2558C123.545 55.1551 124.127 54.1767 124.891 53.4147C125.655 52.6528 126.574 52.1329 127.56 51.905Z" fill="#B0BEC5"/>
<path d="M132.175 52.8477C132.545 51.9663 133.209 51.232 134.06 50.7641C134.314 49.8978 134.253 48.9729 133.887 48.1455L143.659 44.1426C143.144 47.451 142.748 50.0649 144.142 51.529C142.271 52.8759 138.838 55.3067 134.88 55.5461C130.922 55.7854 131.659 54.2602 132.175 52.8477Z" fill="#FFC3BD"/>
<path opacity="0.2" d="M134.142 48.5789L141.761 47.4756C139.599 50.1537 136.054 51.3984 134.308 50.5403C134.427 49.8835 134.37 49.2083 134.142 48.5789Z" fill="black"/>
<path d="M134.618 55.769L136.129 54.1426L138.427 55.1111C138.427 55.1111 137.143 56.665 134.618 55.769Z" fill="#B0BEC5"/>
<path opacity="0.3" d="M134.618 55.769L136.129 54.1426L138.427 55.1111C138.427 55.1111 137.143 56.665 134.618 55.769Z" fill="black"/>
<path d="M133.776 42.7134C131.863 42.4054 130.97 39.6049 132.223 38.0506C133.477 36.4964 130.502 35.8993 131.489 34.4019C132.476 32.9046 135.305 31.4024 137.031 32.7814C138.757 34.1603 134.838 38.2402 135.684 40.6569C135.084 41.3753 134.447 42.0618 133.776 42.7134Z" fill="#263238"/>
<path d="M145.009 39.022C144.282 43.7998 143.69 47.0283 140.813 48.7942C135.079 52.3017 132.096 49.3667 131.424 44.4638C130.818 40.042 132.105 32.9739 136.841 31.5497C137.888 31.2358 138.994 31.2006 140.058 31.4474C141.121 31.6942 142.106 32.215 142.922 32.9611C143.737 33.7072 144.357 34.6543 144.721 35.7142C145.086 36.774 145.185 37.912 145.009 39.022Z" fill="#FFC3BD"/>
<path d="M133.192 45.2093C133.192 45.2093 134.455 44.9764 137.951 45.1747C137.458 46.25 136.664 47.1074 134.874 46.9884C134.645 46.9909 134.418 46.9459 134.207 46.8562C133.996 46.7665 133.805 46.634 133.647 46.4671C133.49 46.3001 133.368 46.1023 133.29 45.8859C133.211 45.6695 133.178 45.4392 133.192 45.2093Z" fill="#263238"/>
<path d="M135.5 46.0581C134.862 46.0149 134.219 46.0969 133.666 46.2919C133.957 46.4302 134.316 46.5074 134.688 46.512C135.326 46.555 135.97 46.472 136.523 46.2754C136.231 46.1375 135.871 46.0611 135.5 46.0581Z" fill="#A02724"/>
<path d="M133.189 45.2352C133.189 45.5307 133.284 45.7065 133.594 45.8964C134.498 46.0559 135.41 46.0889 136.318 45.9949C136.759 45.969 137.175 45.6857 137.475 45.2071C136.048 45.0484 134.615 45.0578 133.189 45.2352Z" fill="white"/>
<path d="M142.854 44.1421C141.019 43.4019 140.729 40.3629 142.325 39.0835C143.921 37.8042 141.081 36.5199 142.392 35.2259C143.702 33.9318 147.552 32.6672 148.252 34.8485C149.353 38.2797 144.884 39.8678 145.198 42.5C144.445 43.0888 143.662 43.6369 142.854 44.1421Z" fill="#263238"/>
<path d="M143.683 35.1334C139.028 36.7065 140.135 33.5033 137.544 33.9487C134.953 34.3942 132.371 34.8301 131.844 32.5272C131.414 30.6697 132.671 28.9734 135.165 29.1392C133.874 29.9826 134.198 30.8214 135.47 30.3996C136.741 29.9779 139.951 26.9311 141.629 29.3572C143.306 31.7833 146.193 29.921 147.541 31.5037C148.89 33.0863 146.729 35.7399 143.683 35.1334Z" fill="#263238"/>
<path d="M147.075 43.6275C146.737 44.1197 146.304 44.5414 145.801 44.8684C145.297 45.1954 144.732 45.4214 144.14 45.5332C142.546 45.8238 141.878 44.3898 142.425 42.9796C142.909 41.7123 144.363 40.0353 145.898 40.3783C147.433 40.7213 147.893 42.3936 147.075 43.6275Z" fill="#FFC3BD"/>
<path d="M137.47 39.1937C137.431 39.5852 137.191 39.88 136.932 39.8559C136.673 39.8317 136.493 39.4886 136.527 39.0971C136.561 38.7056 136.805 38.4059 137.069 38.4301C137.333 38.4542 137.509 38.8119 137.47 39.1937Z" fill="#263238"/>
<path d="M133.66 39.1927C133.621 39.5842 133.382 39.8791 133.123 39.8549C132.864 39.8307 132.683 39.4876 132.717 39.0961C132.751 38.7046 132.996 38.4049 133.26 38.4291C133.523 38.4533 133.699 38.7964 133.66 39.1927Z" fill="#263238"/>
<path d="M134.618 39.3809L134.374 42.692C134.374 42.692 133.294 42.8663 132.713 42.237C133.121 41.0978 133.779 40.111 134.618 39.3809Z" fill="#ED847E"/>
<path d="M139.121 38.4284C139.169 38.4286 139.215 38.4174 139.255 38.3962C139.315 38.3649 139.357 38.3154 139.373 38.2584C139.389 38.2014 139.376 38.1416 139.339 38.0921C139.125 37.7873 138.826 37.5291 138.466 37.3392C138.107 37.1492 137.698 37.033 137.273 37.0002C137.238 36.999 137.203 37.0035 137.17 37.0135C137.137 37.0236 137.107 37.0389 137.082 37.0587C137.056 37.0784 137.036 37.1022 137.022 37.1285C137.007 37.1549 137 37.1833 136.999 37.2121C136.998 37.2412 137.003 37.2702 137.015 37.2975C137.027 37.3248 137.046 37.3499 137.07 37.3713C137.093 37.3927 137.122 37.41 137.154 37.4222C137.186 37.4344 137.221 37.4413 137.256 37.4425C137.593 37.4729 137.916 37.5684 138.199 37.7213C138.482 37.8742 138.718 38.0802 138.887 38.3225C138.911 38.3559 138.945 38.3833 138.986 38.4019C139.028 38.4206 139.074 38.4297 139.121 38.4284Z" fill="#263238"/>
<path d="M131.472 37.9513C131.507 37.9545 131.541 37.947 131.572 37.9293C131.604 37.9116 131.631 37.8844 131.651 37.8501C131.802 37.5923 132.001 37.3838 132.23 37.242C132.459 37.1002 132.712 37.0295 132.967 37.0356C132.994 37.0386 133.021 37.0348 133.047 37.0246C133.073 37.0144 133.097 36.9979 133.117 36.9761C133.138 36.9544 133.155 36.9277 133.167 36.8977C133.179 36.8677 133.187 36.835 133.189 36.8014C133.193 36.7339 133.175 36.6673 133.14 36.6157C133.105 36.564 133.055 36.5314 133.002 36.5246C132.678 36.5123 132.357 36.5978 132.065 36.7739C131.774 36.95 131.521 37.2115 131.328 37.536C131.295 37.5891 131.28 37.6563 131.286 37.7231C131.292 37.7899 131.32 37.8508 131.362 37.8927C131.394 37.9241 131.432 37.9444 131.472 37.9513Z" fill="#263238"/>
<path d="M156.919 90.4996L159.724 89.38C162.889 89.3513 162.225 93.5234 162.225 93.5234L162.693 95.662C162.753 96.0438 162.678 96.4351 162.482 96.7657C162.286 97.0962 161.981 97.3444 161.622 97.4658L159.663 98.2648C159.271 98.4542 158.823 98.4792 158.413 98.3343C158.003 98.1895 157.665 97.8863 157.471 97.4897L156.765 95.7194C156.561 95.2043 156.484 94.6456 156.541 94.0927L156.919 90.4996Z" fill="#FFC3BD"/>
<path d="M146.911 51.7617L147.528 52.2388L148.084 52.7159C148.447 53.0212 148.795 53.3313 149.144 53.6414C149.841 54.2664 150.524 54.8962 151.193 55.5498C152.53 56.8427 153.816 58.2119 155.06 59.6431C155.688 60.3588 156.295 61.0967 156.882 61.8568C157.47 62.617 158.041 63.4121 158.597 64.2422C159.756 65.9463 160.761 67.7521 161.602 69.6381L162.021 70.5922L162.073 71.2983C162.2 72.9586 162.299 74.6379 162.402 76.2934L162.718 81.2884C162.897 84.628 163.076 87.9676 163.189 91.3072L154.914 92.2375C154.292 88.9647 153.741 85.6824 153.18 82.4048L152.389 77.4861C152.125 75.8449 151.862 74.2037 151.621 72.5626L152.092 74.2228C151.423 73.0092 150.651 71.8567 149.785 70.7783C148.871 69.6381 147.863 68.5121 146.789 67.4101C145.715 66.308 144.571 65.2441 143.393 64.2136C142.806 63.692 142.208 63.1847 141.599 62.6917L140.694 61.9665L140.247 61.6183L139.856 61.3225L146.911 51.7617Z" fill="#B0BEC5"/>
<path d="M143.378 49.3809C143.378 49.3809 140.586 53.636 136.523 54.2389C138.165 54.9581 139.631 56.0651 140.809 57.476C140.809 57.476 144.998 54.0166 145.57 50.6263C145.165 49.4056 143.378 49.3809 143.378 49.3809Z" fill="#B0BEC5"/>
<path d="M143.041 72.7133H135.938C135.816 72.7167 135.694 72.6924 135.583 72.6422C135.471 72.5919 135.372 72.5169 135.292 72.4227C135.213 72.3285 135.155 72.2175 135.123 72.0976C135.091 71.9778 135.085 71.8522 135.107 71.7301L135.579 68.4351C135.631 68.1702 135.77 67.9311 135.974 67.7569C136.177 67.5826 136.432 67.4836 136.698 67.4758H143.778C143.898 67.473 144.016 67.4969 144.126 67.5458C144.236 67.5947 144.334 67.6674 144.413 67.7588C144.492 67.8502 144.551 67.9581 144.584 68.0749C144.618 68.1918 144.626 68.3147 144.608 68.4351L144.136 71.7301C144.09 71.9955 143.956 72.2371 143.758 72.4157C143.559 72.5942 143.306 72.6991 143.041 72.7133Z" fill="#FFD800"/>
<path d="M140.758 67.9511H140.054C140.025 67.9523 139.997 67.9466 139.971 67.9344C139.944 67.9222 139.921 67.9038 139.902 67.8805C139.884 67.8573 139.87 67.8299 139.863 67.8002C139.855 67.7706 139.854 67.7395 139.859 67.7093L140.123 65.8122C140.133 65.7457 140.164 65.685 140.212 65.6408C140.259 65.5967 140.32 65.5718 140.382 65.5705H141.087C141.115 65.5693 141.144 65.575 141.17 65.5872C141.196 65.5994 141.219 65.6178 141.238 65.641C141.257 65.6642 141.27 65.6917 141.278 65.7213C141.285 65.751 141.287 65.7821 141.281 65.8122L141.018 67.7093C141.008 67.7759 140.976 67.8365 140.929 67.8807C140.881 67.9249 140.821 67.9498 140.758 67.9511Z" fill="#B0BEC5"/>
<path d="M134.618 55.6079L132.842 54.1426L130.808 55.0388C130.808 55.0388 132.55 56.8598 134.618 55.6079Z" fill="#B0BEC5"/>
<path opacity="0.3" d="M134.618 55.6079L132.842 54.1426L130.808 55.0388C130.808 55.0388 132.55 56.8598 134.618 55.6079Z" fill="black"/>
<path d="M134.142 50.8098C134.142 50.8098 132.786 52.7837 132.786 54.1088C131.431 54.7482 129.38 56.5228 129.38 56.5228C129.38 56.5228 129.646 53.7428 132.362 51.3195C132.891 50.9695 133.512 50.7919 134.142 50.8098Z" fill="#B0BEC5"/>
<path d="M65.5384 93.1182L62.2564 130.972L57.2545 164.512L53.3846 163.928C53.3846 163.928 52.0762 149.903 53.0171 138.867C53.2339 136.323 54.2703 133.475 54.274 131.443C54.274 129.664 53.7521 128.47 53.3589 124.375C52.8811 119.425 52.5908 112.839 53.6308 107.9C53.6308 107.9 52.8444 100.057 55.2148 92.9639L65.5384 93.1182Z" fill="#DFB8AD"/>
<path d="M74.858 129.421L74.5273 164.791L74.4023 168.466L71.6937 168.315L70.6426 161.869C70.6426 161.869 67.5371 149.613 66.8756 138.561C66.7286 136.014 67.3313 133.049 67.052 131.035C66.8058 129.27 66.1075 128.168 65.1225 124.188C63.9318 119.355 62.7043 112.887 63.0056 107.841C63.0056 107.841 57.8347 102.442 59.1577 95.0768L70.7713 92.3682L74.858 129.421Z" fill="#DFB8AD"/>
<path d="M55.3577 48.5386C55.4544 48.1836 55.4172 47.8055 55.2532 47.4761C55.0892 47.1468 54.8099 46.8892 54.4683 46.7525C54.1214 46.6308 53.7494 46.5991 53.3869 46.6601C53.0245 46.7212 52.6834 46.873 52.3955 47.1016C51.8249 47.5683 51.3929 48.1821 51.146 48.8767C50.6948 50.0467 50.5505 51.3127 50.7268 52.5542C50.903 53.7958 51.394 54.9715 52.1529 55.9698C52.888 56.9216 53.9428 57.7081 55.1445 57.8441C56.3463 57.9801 57.6731 57.3222 58.0406 56.1719L55.3577 48.5386Z" fill="#263238"/>
<path d="M63.2738 46.4581C63.2738 46.4581 66.4381 52.6839 66.53 54.5876C67.7869 55.7379 68.7902 53.5328 68.849 50.5449C68.9005 48.0899 67.7134 45.3997 65.6296 44.3633C62.6968 42.9043 63.2738 46.4581 63.2738 46.4581Z" fill="#263238"/>
<path d="M62.1864 63.9962C61.9183 63.7441 61.7187 63.4281 61.6062 63.0777C61.4937 62.7274 61.472 62.3542 61.5433 61.9932C61.6631 61.3324 61.8617 60.6883 62.135 60.0748L61.3228 59.1413L57.0706 54.834C57.1772 57.7006 57.5226 62.3019 55.2808 63.8565C55.2808 63.8565 52.5024 65.0068 51.2896 65.2567C52.0246 65.8521 56.6553 72.1587 60.9479 71.8132C64.8509 71.4972 65.1302 65.9955 65.5418 64.3857C64.4319 64.0403 63.2338 64.2351 62.1864 63.9962Z" fill="#DFB8AD"/>
<path opacity="0.2" d="M61.5506 62.1216C60.3819 61.427 59.0993 60.2215 59.2537 58.847C59.3045 58.3455 59.4156 57.8519 59.5844 57.377L61.9586 60.5229C61.7678 61.0403 61.6311 61.576 61.5506 62.1216Z" fill="black"/>
<path d="M56.0744 50.2328C56.475 54.6026 56.5522 56.4548 58.8051 58.7445C62.1973 62.1881 67.4123 61.0304 68.3127 56.7011C69.1213 52.8017 68.3311 46.3151 64.0422 44.4775C59.8268 42.6693 55.6738 45.863 56.0744 50.2328Z" fill="#DFB8AD"/>
<path d="M61.9358 51.9787C61.9358 52.3903 62.1453 52.7468 62.4319 52.7762C62.7186 52.8056 62.9575 52.4969 62.9722 52.089C62.9869 51.681 62.759 51.3245 62.4724 51.2915C62.1857 51.2584 61.9468 51.5708 61.9358 51.9787Z" fill="#263238"/>
<path d="M66.3866 51.7577C66.3537 51.9233 66.3812 52.0951 66.4641 52.2421C66.5471 52.3891 66.6799 52.5015 66.8386 52.5589C67.1216 52.6067 67.3789 52.3237 67.412 51.9268C67.4447 51.7618 67.4171 51.5904 67.3341 51.4441C67.2511 51.2977 67.1183 51.186 66.9599 51.1293C66.6769 51.0815 66.4197 51.3645 66.3866 51.7577Z" fill="#263238"/>
<path d="M60.8262 50.5347C60.8541 50.5373 60.8822 50.5341 60.9087 50.5252C60.9353 50.5164 60.9598 50.5021 60.9805 50.4833C61.167 50.3004 61.3957 50.1664 61.6464 50.0934C61.8971 50.0203 62.162 50.0103 62.4175 50.0643C62.4436 50.072 62.471 50.0743 62.4979 50.071C62.5249 50.0677 62.5509 50.0588 62.5744 50.045C62.5978 50.0313 62.6182 50.0128 62.6342 49.9908C62.6502 49.9689 62.6615 49.9438 62.6674 49.9173C62.6771 49.8601 62.6657 49.8014 62.6353 49.752C62.6048 49.7027 62.5575 49.666 62.502 49.649C62.1806 49.5741 61.8455 49.5812 61.5276 49.6699C61.2096 49.7585 60.9191 49.9258 60.6828 50.1562C60.6435 50.1972 60.6216 50.2519 60.6216 50.3087C60.6216 50.3655 60.6435 50.4202 60.6828 50.4612C60.7215 50.5004 60.7718 50.5262 60.8262 50.5347Z" fill="#263238"/>
<path d="M67.6182 49.8836C67.6438 49.8765 67.6677 49.8645 67.6885 49.8481C67.7094 49.8316 67.7267 49.8112 67.7395 49.788C67.7525 49.7631 67.7602 49.7357 67.7622 49.7077C67.7641 49.6797 67.7604 49.6516 67.7511 49.6251C67.7418 49.5985 67.7271 49.5742 67.7081 49.5536C67.689 49.5329 67.666 49.5164 67.6403 49.505C67.3403 49.3323 67.0044 49.2312 66.6589 49.2095C66.3134 49.1878 65.9676 49.2462 65.6483 49.3801C65.6238 49.3926 65.6021 49.4102 65.5847 49.4316C65.5673 49.4531 65.5545 49.4779 65.5473 49.5045C65.54 49.5311 65.5384 49.559 65.5425 49.5863C65.5466 49.6136 65.5564 49.6397 65.5712 49.663C65.6004 49.7127 65.6474 49.7493 65.7027 49.7657C65.7579 49.7821 65.8173 49.7769 65.8689 49.7512C66.1241 49.6511 66.3985 49.6094 66.6719 49.6291C66.9454 49.6489 67.2109 49.7295 67.4492 49.8652C67.4746 49.8797 67.5027 49.8888 67.5318 49.892C67.5609 49.8951 67.5903 49.8923 67.6182 49.8836Z" fill="#263238"/>
<path d="M54.7554 53.7947C55.2166 54.6032 55.9789 55.1964 56.8759 55.4448C58.0336 55.7352 58.629 53.8755 58.2357 52.7179C58.0501 52.1965 57.6847 51.7584 57.2051 51.4822C56.7255 51.2061 56.1631 51.1099 55.619 51.2111C54.5091 51.4242 54.1637 52.7693 54.7554 53.7947Z" fill="#DFB8AD"/>
<path d="M64.8691 51.4238C65.2672 52.3574 65.7598 53.2478 66.3392 54.081C66.3696 54.1233 66.3898 54.1721 66.3982 54.2235C66.4066 54.2749 66.403 54.3276 66.3877 54.3774C66.3724 54.4272 66.3458 54.4728 66.31 54.5106C66.2742 54.5485 66.2301 54.5775 66.1812 54.5955C65.7995 54.7094 65.3938 54.7157 65.0088 54.6139L64.8691 51.4238Z" fill="#BD7C70"/>
<path d="M62.3994 51.2764L63.4174 51.1221C63.4174 51.1221 62.7963 51.824 62.3994 51.2764Z" fill="#263238"/>
<path d="M66.8577 51.1222L67.883 51.0303C67.883 51.0303 67.2362 51.6955 66.8577 51.1222Z" fill="#263238"/>
<path d="M54.9833 47.8074C54.3622 48.6416 55.4501 51.1664 55.4501 51.1664C55.4501 51.1664 57.5633 50.6225 57.5633 53.7758C58.3314 53.9338 59.3053 51.0231 59.2869 48.0573C59.1914 46.3814 56.0822 46.3373 54.9833 47.8074Z" fill="#263238"/>
<path d="M67.4049 45.83C66.5522 43.8785 62.8587 41.9564 58.4669 43.6543C54.5014 45.1795 53.1673 50.8245 55.9825 51.1406C58.7976 51.4567 62.2303 48.8142 62.2303 48.8142L67.4049 45.83Z" fill="#263238"/>
<path opacity="0.2" d="M56.6589 54.3379H56.6332C56.392 54.2877 56.1649 54.1845 55.9685 54.0358C55.7721 53.8871 55.6112 53.6965 55.4976 53.4779C55.4318 53.3547 55.3926 53.2191 55.3825 53.0799C55.3724 52.9406 55.3915 52.8008 55.4388 52.6694C55.5214 52.4832 55.6721 52.3356 55.86 52.2571C56.048 52.1785 56.2589 52.1748 56.4494 52.2467C56.4609 52.2511 56.4713 52.2578 56.48 52.2664C56.4888 52.2751 56.4956 52.2854 56.5001 52.2968C56.5046 52.3082 56.5066 52.3205 56.5062 52.3327C56.5057 52.345 56.5026 52.357 56.4972 52.368C56.4868 52.3898 56.4685 52.4069 56.446 52.4158C56.4235 52.4246 56.3984 52.4246 56.3759 52.4158C56.2302 52.3634 56.0701 52.368 55.9277 52.4286C55.7852 52.4893 55.671 52.6015 55.6078 52.7429C55.5711 52.8504 55.5571 52.9643 55.5665 53.0776C55.576 53.1908 55.6089 53.3008 55.6629 53.4007C55.7662 53.5947 55.9109 53.7634 56.0869 53.8949C56.2629 54.0264 56.4657 54.1174 56.681 54.1615C56.6927 54.164 56.7039 54.169 56.7137 54.176C56.7234 54.183 56.7317 54.192 56.7379 54.2023C56.7441 54.2126 56.7481 54.2241 56.7497 54.2361C56.7513 54.248 56.7504 54.2601 56.7471 54.2717C56.741 54.2905 56.7293 54.307 56.7135 54.3188C56.6977 54.3307 56.6786 54.3373 56.6589 54.3379Z" fill="black"/>
<path d="M64.2036 56.0138C63.7943 56.0087 63.3938 55.8938 63.0441 55.6811C62.6943 55.4685 62.4081 55.1658 62.2153 54.8047C62.2056 54.7803 62.2059 54.753 62.2163 54.7289C62.2266 54.7048 62.2461 54.6858 62.2705 54.676C62.2948 54.6663 62.3221 54.6666 62.3462 54.6769C62.3703 54.6873 62.3893 54.7068 62.3991 54.7312C62.5794 55.0691 62.8494 55.3508 63.1795 55.5453C63.5095 55.7398 63.8867 55.8396 64.2697 55.8337C64.2818 55.8326 64.2939 55.8342 64.3053 55.8382C64.3166 55.8422 64.327 55.8486 64.3357 55.8569C64.3444 55.8653 64.3512 55.8754 64.3557 55.8866C64.3602 55.8978 64.3622 55.9099 64.3616 55.9219C64.3621 55.934 64.3602 55.946 64.3561 55.9574C64.3519 55.9687 64.3455 55.9791 64.3373 55.988C64.3291 55.9968 64.3193 56.004 64.3083 56.0091C64.2973 56.0141 64.2855 56.017 64.2734 56.0175L64.2036 56.0138Z" fill="#263238"/>
<path d="M56.4384 56.036C56.7693 56.036 57.0375 55.7678 57.0375 55.4369C57.0375 55.1061 56.7693 54.8379 56.4384 54.8379C56.1076 54.8379 55.8394 55.1061 55.8394 55.4369C55.8394 55.7678 56.1076 56.036 56.4384 56.036Z" fill="#FFC100"/>
<path d="M66.3501 46.3006C65.3468 47.5685 63.9429 48.3697 62.5316 49.1084C60.9219 49.9464 59.1836 50.8982 57.3055 50.5307C57.1328 50.494 57.0593 50.7586 57.232 50.7953C59.0917 51.1628 60.8006 50.3139 62.4067 49.4833C63.9245 48.6968 65.4644 47.8589 66.5449 46.4954C66.6552 46.3594 66.4604 46.1609 66.3501 46.3006Z" fill="#263238"/>
<path d="M76.1558 106.97C74.7886 95.8309 69.4596 87.2861 68.3902 85.6323C68.2697 85.445 68.2202 85.2208 68.2505 85.0002L68.8055 73.8828L67.894 64.3274C67.2839 64.1951 64.5129 64.026 63.8734 63.9893C63.8734 63.9893 60.9112 73.7211 54.5973 64.1216L50.9515 65.1396L49.8159 73.7064C49.8857 74.2246 50.8082 77.1757 51.1279 78.4841L53.4249 85.3272C53.4544 85.4361 53.4656 85.5491 53.458 85.6617C53.2963 87.7345 52.2525 91.0017 51.874 92.3909C50.0915 98.9327 50.6024 99.5318 49.5807 106.864C47.6622 120.657 46.5744 129.734 43.5461 137.702C43.4913 137.843 43.4716 137.995 43.4886 138.145C43.5057 138.296 43.559 138.44 43.6439 138.565C43.7289 138.69 43.843 138.792 43.9764 138.864C44.1098 138.935 44.2585 138.973 44.4097 138.974L79.6729 139.363L76.1558 106.97Z" fill="#B0BEC5"/>
<path opacity="0.3" d="M76.1558 106.97C74.7886 95.8309 69.4596 87.2861 68.3902 85.6323C68.2697 85.445 68.2202 85.2208 68.2505 85.0002L68.8055 73.8828L67.894 64.3274C67.2839 64.1951 64.5129 64.026 63.8734 63.9893C63.8734 63.9893 60.9112 73.7211 54.5973 64.1216L50.9515 65.1396L49.8159 73.7064C49.8857 74.2246 50.8082 77.1757 51.1279 78.4841L53.4249 85.3272C53.4544 85.4361 53.4656 85.5491 53.458 85.6617C53.2963 87.7345 52.2525 91.0017 51.874 92.3909C50.0915 98.9327 50.6024 99.5318 49.5807 106.864C47.6622 120.657 46.5744 129.734 43.5461 137.702C43.4913 137.843 43.4716 137.995 43.4886 138.145C43.5057 138.296 43.559 138.44 43.6439 138.565C43.7289 138.69 43.843 138.792 43.9764 138.864C44.1098 138.935 44.2585 138.973 44.4097 138.974L79.6729 139.363L76.1558 106.97Z" fill="white"/>
<g opacity="0.2">
<path d="M64.9717 82.5857C62.9798 80.4174 59.0915 79.4582 56.5703 80.5791C59.4369 80.5681 62.0941 81.3803 64.9717 82.5857Z" fill="black"/>
</g>
<path d="M50.7675 65.1611C50.7675 65.1611 48.9299 65.6499 48.0993 66.8811C47.2688 68.1123 44.2698 83.8751 44.619 85.9552C44.9681 88.0353 51.7635 93.7723 51.7635 93.7723L53.7297 91.0821L49.3563 84.3602L50.8704 73.6581L50.7675 65.1611Z" fill="#DFB8AD"/>
<path d="M72.7085 71.8135L68.1697 74.0186L69.75 83.0043L61.5029 92.5598L62.9179 96.1284C62.9179 96.1284 74.1198 86.4627 74.8952 84.5001C75.6707 82.5376 73.2671 73.1843 72.7085 71.8135Z" fill="#DFB8AD"/>
<path d="M67.9121 64.3379C67.9121 64.3379 70.5729 64.5253 71.9107 67.7411C73.1492 70.729 74.8949 74.8672 74.8949 74.8672L68.2612 76.7379C68.2612 76.7379 67.1587 68.1307 67.2506 68.1013C67.3424 68.0719 67.9121 64.3379 67.9121 64.3379Z" fill="#B0BEC5"/>
<path opacity="0.3" d="M67.9121 64.3379C67.9121 64.3379 70.5729 64.5253 71.9107 67.7411C73.1492 70.729 74.8949 74.8672 74.8949 74.8672L68.2612 76.7379C68.2612 76.7379 67.1587 68.1307 67.2506 68.1013C67.3424 68.0719 67.9121 64.3379 67.9121 64.3379Z" fill="white"/>
<path d="M50.5875 79.1157C50.389 79.1782 43.8914 76.5137 43.8914 76.5137C43.8914 76.5137 46.464 68.0093 47.5334 66.6348C48.5551 65.3154 52.5831 64.6943 52.5831 64.6943L51.8481 74.4703L50.5875 79.1157Z" fill="#B0BEC5"/>
<path opacity="0.3" d="M50.5875 79.1157C50.389 79.1782 43.8914 76.5137 43.8914 76.5137C43.8914 76.5137 46.464 68.0093 47.5334 66.6348C48.5551 65.3154 52.5831 64.6943 52.5831 64.6943L51.8481 74.4703L50.5875 79.1157Z" fill="white"/>
<path opacity="0.2" d="M50.9474 77.7933C50.9474 77.7933 49.8155 74.2174 49.8449 71.9131C49.8449 71.9131 48.7423 75.9006 50.5799 79.1238L50.9474 77.7933Z" fill="black"/>
<path opacity="0.2" d="M68.669 76.6206C68.8055 75.7148 68.8511 74.7976 68.805 73.8827C68.7094 72.6257 67.9597 69.873 67.9597 69.873C67.9597 69.873 69.8414 73.0851 69.7458 76.3156L68.669 76.6206Z" fill="black"/>
<path opacity="0.2" d="M69.7496 83.004C69.7496 83.004 70.8521 83.004 71.4107 83.6251C71.2746 83.2822 71.0317 82.9924 70.7179 82.7984C70.4042 82.6044 70.0362 82.5167 69.6687 82.5483L69.7496 83.004Z" fill="black"/>
<path opacity="0.2" d="M39.1137 95.7907L39.3526 93.7216C39.3531 93.7148 39.3522 93.708 39.3501 93.7016C39.348 93.6952 39.3446 93.6892 39.3401 93.6841C39.3357 93.679 39.3303 93.6748 39.3242 93.6718C39.3182 93.6687 39.3116 93.6669 39.3048 93.6665C39.298 93.6642 39.2908 93.6635 39.2837 93.6645C39.2767 93.6654 39.2699 93.6678 39.2639 93.6717C39.2579 93.6756 39.2528 93.6808 39.2491 93.6869C39.2454 93.6929 39.2431 93.6998 39.2423 93.7069L38.9998 95.776C38.9998 95.8017 39.0218 95.8275 39.0512 95.8348C39.0652 95.8361 39.0791 95.8324 39.0906 95.8243C39.1021 95.8162 39.1102 95.8043 39.1137 95.7907Z" fill="black"/>
<path opacity="0.2" d="M40.2568 96.136L40.6427 94.1698C40.6449 94.1557 40.6415 94.1413 40.6332 94.1297C40.625 94.118 40.6126 94.11 40.5986 94.1073C40.5845 94.1049 40.5701 94.1076 40.5579 94.1151C40.5458 94.1225 40.5367 94.1341 40.5325 94.1477L40.1429 96.1139C40.1419 96.1212 40.1423 96.1286 40.1441 96.1357C40.146 96.1427 40.1492 96.1494 40.1537 96.1552C40.1581 96.161 40.1637 96.1659 40.17 96.1695C40.1764 96.1732 40.1834 96.1755 40.1907 96.1764C40.2048 96.1798 40.2197 96.1774 40.232 96.1698C40.2444 96.1622 40.2533 96.1501 40.2568 96.136Z" fill="black"/>
<path opacity="0.2" d="M41.4103 96.0767L41.741 94.6067C41.7423 94.5927 41.7386 94.5787 41.7305 94.5673C41.7224 94.5558 41.7105 94.5476 41.6969 94.5442C41.6828 94.5414 41.6682 94.5435 41.6555 94.5502C41.6428 94.5569 41.6327 94.5677 41.6271 94.581L41.2963 96.051C41.2952 96.0655 41.2994 96.0799 41.3082 96.0914C41.3171 96.103 41.3298 96.1108 41.3441 96.1135C41.3577 96.117 41.3722 96.1151 41.3845 96.1083C41.3968 96.1014 41.406 96.0902 41.4103 96.0767Z" fill="black"/>
<g opacity="0.2">
<path d="M56.6515 92.0199C56.6515 92.0199 57.5298 94.383 57.2321 95.1107C56.9345 95.8384 56.2141 94.9784 56.2141 94.9784C56.2141 94.9784 56.9492 95.9743 56.5816 96.3419C56.1259 96.7866 55.3762 95.8825 55.3762 95.8825C55.3762 95.8825 55.9422 96.7167 55.582 97.0218C55.2218 97.3268 54.2883 96.3786 54.2883 96.3786C54.2883 96.3786 54.575 97.0438 54.2038 97.1137C53.8326 97.1835 51.8444 95.1879 51.6679 94.2176C51.4915 93.2474 53.7591 90.774 54.5456 90.5792C55.3321 90.3844 56.3428 90.7152 57.5262 91.4723L56.6662 92.0199H56.6515Z" fill="black"/>
</g>
<path d="M56.2735 91.7618C56.2735 91.7618 57.1482 94.125 56.8505 94.849C56.5528 95.573 55.8325 94.7167 55.8325 94.7167C55.8325 94.7167 56.5675 95.7126 56.2 96.0801C55.7443 96.5248 54.9946 95.6207 54.9946 95.6207C54.9946 95.6207 55.5606 96.455 55.2004 96.7637C54.8402 97.0724 53.9067 96.1206 53.9067 96.1206C53.9067 96.1206 54.1934 96.7821 53.8222 96.8556C53.451 96.9291 51.4627 94.9261 51.2863 93.9559C51.1099 92.9857 53.3812 90.5123 54.164 90.3175C54.9468 90.1227 55.9611 90.4535 57.1446 91.2106L56.2882 91.7618H56.2735Z" fill="#DFB8AD"/>
<path opacity="0.2" d="M55.7842 94.7575L54.5861 92.953C54.5821 92.9468 54.5794 92.9398 54.5782 92.9325C54.5769 92.9252 54.5772 92.9177 54.5789 92.9105C54.5806 92.9033 54.5838 92.8965 54.5882 92.8906C54.5925 92.8846 54.5981 92.8796 54.6045 92.8758C54.6093 92.8703 54.6152 92.866 54.6219 92.863C54.6285 92.86 54.6358 92.8584 54.6431 92.8584C54.6504 92.8584 54.6576 92.86 54.6642 92.863C54.6709 92.866 54.6768 92.8703 54.6816 92.8758L55.8798 94.6693C55.8869 94.6821 55.8889 94.6972 55.8855 94.7115C55.8821 94.7257 55.8735 94.7382 55.8614 94.7465C55.8521 94.7574 55.8391 94.7646 55.8249 94.7666C55.8107 94.7686 55.7962 94.7654 55.7842 94.7575Z" fill="black"/>
<path opacity="0.2" d="M54.8948 95.6137L53.6085 93.982C53.5984 93.9716 53.5928 93.9578 53.5928 93.9434C53.5928 93.9289 53.5984 93.9151 53.6085 93.9048C53.6195 93.8944 53.6339 93.8887 53.649 93.8887C53.664 93.8887 53.6785 93.8944 53.6894 93.9048L54.9757 95.5365C54.9858 95.5469 54.9915 95.5607 54.9915 95.5751C54.9915 95.5896 54.9858 95.6034 54.9757 95.6137C54.9705 95.6193 54.9643 95.6237 54.9573 95.6268C54.9504 95.6298 54.9429 95.6314 54.9353 95.6314C54.9277 95.6314 54.9202 95.6298 54.9132 95.6268C54.9063 95.6237 54.9 95.6193 54.8948 95.6137Z" fill="black"/>
<path opacity="0.2" d="M53.7996 96.1023L52.811 94.9189C52.8007 94.908 52.7949 94.8935 52.7949 94.8785C52.7949 94.8634 52.8007 94.8489 52.811 94.838C52.8213 94.8279 52.8352 94.8223 52.8496 94.8223C52.8641 94.8223 52.8779 94.8279 52.8882 94.838L53.8805 96.0214C53.8908 96.0323 53.8966 96.0468 53.8966 96.0619C53.8966 96.0769 53.8908 96.0914 53.8805 96.1023C53.8692 96.1119 53.8549 96.1171 53.8401 96.1171C53.8253 96.1171 53.8109 96.1119 53.7996 96.1023Z" fill="black"/>
<path d="M62.2448 92.9935C61.6972 92.4201 60.9768 92.5157 59.5729 92.523L59.4921 93.0706C59.4921 93.0706 57.6766 94.5995 57.5369 95.3713C57.3972 96.1431 58.4667 95.805 58.4667 95.805C58.4667 95.805 57.3164 96.2533 57.4377 96.7679C57.5847 97.3853 58.7056 97.0251 58.7056 97.0251C58.7056 97.0251 57.7795 97.4257 57.9191 97.8777C58.0588 98.3298 59.3561 98.0284 59.3561 98.0284C59.3561 98.0284 58.7571 98.4327 59.0327 98.6936C59.3083 98.9546 62.0574 98.3261 62.7262 97.5911C63.3951 96.8561 62.8034 93.5741 62.2448 92.9935Z" fill="#DFB8AD"/>
<path opacity="0.2" d="M58.4858 95.864L60.4594 94.9893C60.4728 94.9822 60.483 94.9702 60.4878 94.9559C60.4926 94.9415 60.4916 94.9258 60.4851 94.9121C60.4801 94.8985 60.47 94.8875 60.457 94.8813C60.4439 94.8751 60.4289 94.8743 60.4153 94.879L58.4417 95.7537C58.4289 95.7614 58.4193 95.7734 58.4146 95.7875C58.4099 95.8017 58.4104 95.8171 58.416 95.8309C58.421 95.8445 58.4311 95.8555 58.4442 95.8617C58.4572 95.8679 58.4722 95.8687 58.4858 95.864Z" fill="black"/>
<path opacity="0.2" d="M58.7789 97.0617L60.7377 96.3707C60.7449 96.3683 60.7515 96.3644 60.7571 96.3593C60.7627 96.3543 60.7671 96.3481 60.7702 96.3412C60.7734 96.3343 60.775 96.3268 60.7751 96.3193C60.7752 96.3117 60.7737 96.3042 60.7708 96.2972C60.7687 96.2902 60.7652 96.2836 60.7606 96.278C60.7559 96.2723 60.7502 96.2676 60.7436 96.2642C60.7371 96.2607 60.73 96.2586 60.7227 96.258C60.7154 96.2574 60.708 96.2582 60.701 96.2605L58.7385 96.9477C58.7253 96.9541 58.715 96.9652 58.7095 96.9788C58.7041 96.9924 58.7039 97.0075 58.709 97.0213C58.7107 97.0286 58.7139 97.0356 58.7184 97.0417C58.7229 97.0478 58.7286 97.0529 58.7352 97.0567C58.7417 97.0605 58.749 97.0629 58.7565 97.0637C58.764 97.0646 58.7716 97.0639 58.7789 97.0617Z" fill="black"/>
<path opacity="0.2" d="M59.4595 98.0618L60.9296 97.5914C60.9364 97.5885 60.9426 97.5844 60.9478 97.5792C60.953 97.5739 60.9571 97.5677 60.9599 97.5608C60.9626 97.554 60.964 97.5466 60.9638 97.5392C60.9637 97.5319 60.962 97.5246 60.959 97.5178C60.9548 97.5042 60.9457 97.4926 60.9335 97.4852C60.9214 97.4778 60.9069 97.475 60.8929 97.4774L59.4228 97.9478C59.41 97.9547 59.3997 97.9657 59.3938 97.979C59.3878 97.9923 59.3864 98.0072 59.3897 98.0213C59.3914 98.0287 59.3946 98.0357 59.3991 98.0418C59.4036 98.0479 59.4093 98.053 59.4158 98.0568C59.4224 98.0606 59.4296 98.063 59.4372 98.0638C59.4447 98.0647 59.4523 98.064 59.4595 98.0618Z" fill="black"/>
</g>
</svg>
