<svg width="210" height="140" viewBox="0 0 210 140" fill="none" xmlns="http://www.w3.org/2000/svg">
<g clip-path="url(#clip0_512_35013)">
<path d="M81.2129 22.0478C80.9029 24.3278 79.1029 27.3678 76.7629 28.2078C76.4079 28.3541 76.0183 28.3952 75.6405 28.326C75.2628 28.2569 74.913 28.0804 74.6329 27.8178C74.4662 27.7244 74.32 27.5984 74.2032 27.4472C74.0863 27.2959 74.0012 27.1227 73.9529 26.9378C73.3 26.921 72.6502 26.8406 72.0129 26.6978C71.0129 26.4678 70.3329 24.9978 71.2129 24.3378C75.2129 21.4178 76.5629 17.0778 75.6729 15.1778C71.1829 5.56783 81.0729 -4.82217 88.9329 2.42783C97.7329 10.5678 85.5629 13.4278 81.1029 13.2278C80.8729 13.2178 82.0629 18.3678 81.2129 22.0478Z" fill="#263238"/>
<path d="M84.4325 14.9379C84.4325 14.9379 81.8525 10.9379 84.8125 7.83791C87.7725 4.73791 91.6525 7.33791 91.6525 7.33791L84.4325 14.9379Z" fill="#FFC100"/>
<path d="M85.872 26.4074C86.9763 25.8183 87.9247 24.9752 88.6393 23.9477C89.3539 22.9202 89.8141 21.7376 89.982 20.4974C90.462 16.3274 94.682 17.0674 94.682 17.0674C94.682 17.0674 106.842 21.0674 110.382 16.5174C113.922 11.9674 106.552 12.2574 106.552 12.2574C106.552 12.2574 109.552 4.50737 102.162 8.73737C102.162 8.73737 93.022 3.58737 86.692 8.68737C76.462 16.9374 81.802 25.7574 81.802 25.7574C81.802 25.7574 77.802 31.0574 82.702 31.0874C82.702 31.0874 79.702 32.8774 82.702 34.7074C87.422 37.5574 85.872 26.4074 85.872 26.4074Z" fill="#263238"/>
<path d="M107.163 18.3776C95.7428 13.8576 86.0128 17.8976 80.7828 23.2076C80.7828 23.3676 80.7828 23.4877 80.7328 23.5877C80.6488 24.0155 80.7069 24.459 80.8982 24.8507C81.0896 25.2424 81.4037 25.5609 81.7928 25.7577C82.3028 25.2677 93.0728 14.4976 107.243 20.8276C107.243 20.8276 107.953 20.3377 107.893 19.8977C107.833 19.4577 107.693 18.6276 107.163 18.3776Z" fill="#FFC100"/>
<path fill-rule="evenodd" clip-rule="evenodd" d="M4.44292 86.9083C-3.59415 62.1554 11.2166 32.0357 36.628 17.1348C60.0356 3.40889 89.9172 20.4902 118.258 20.1687C144.008 19.8765 172.57 1.93913 192.435 15.367C212.387 28.8529 206.904 55.7299 202.545 77.1421C199.129 93.9206 186.289 107.346 171.335 119.02C157.975 129.449 142.142 137.019 124.086 138.389C105.398 139.806 86.147 121.318 69.6006 114.198C44.1113 103.231 11.9831 110.131 4.44292 86.9083Z" fill="#FFECB2"/>
<mask id="mask0_512_35013" style="mask-type:alpha" maskUnits="userSpaceOnUse" x="1" y="9" width="205" height="130">
<path fill-rule="evenodd" clip-rule="evenodd" d="M3.7157 86.4387C-4.32647 61.5824 10.4783 31.3417 35.8869 16.3847C59.292 2.60705 89.1774 19.7647 117.518 19.4476C143.268 19.1594 171.827 1.15406 191.696 14.6412C211.65 28.1866 206.172 55.1732 201.817 76.6726C198.405 93.5194 185.568 106.998 170.616 118.716C157.258 129.185 141.426 136.784 123.37 138.155C104.682 139.575 85.4276 121.007 68.8796 113.854C43.3878 102.836 11.2607 109.758 3.7157 86.4387Z" fill="#FFECB2"/>
</mask>
<g mask="url(#mask0_512_35013)">
<path d="M51.7825 41.118L49.4425 36.628C49.2016 36.122 48.8238 35.6937 48.3519 35.3914C47.88 35.0892 47.3328 34.9252 46.7725 34.918H37.4325C36.8704 34.9233 36.3212 35.0865 35.8474 35.3888C35.3735 35.6911 34.9942 36.1205 34.7525 36.628L32.4125 41.098C32.1414 41.6254 32 42.2099 32 42.803C32 43.396 32.1414 43.9805 32.4125 44.508L34.7525 48.978C34.9942 49.4855 35.3735 49.9148 35.8474 50.2171C36.3212 50.5195 36.8704 50.6826 37.4325 50.688H46.7725C47.3328 50.6808 47.88 50.5168 48.3519 50.2145C48.8238 49.9123 49.2016 49.4839 49.4425 48.978L51.7825 44.508C52.055 43.9846 52.1974 43.4031 52.1974 42.813C52.1974 42.2228 52.055 41.6414 51.7825 41.118Z" fill="#FFC100"/>
<path opacity="0.2" d="M51.7825 41.118L49.4425 36.628C49.2016 36.122 48.8238 35.6937 48.3519 35.3914C47.88 35.0892 47.3328 34.9252 46.7725 34.918H37.4325C36.8704 34.9233 36.3212 35.0865 35.8474 35.3888C35.3735 35.6911 34.9942 36.1205 34.7525 36.628L32.4125 41.098C32.1414 41.6254 32 42.2099 32 42.803C32 43.396 32.1414 43.9805 32.4125 44.508L34.7525 48.978C34.9942 49.4855 35.3735 49.9148 35.8474 50.2171C36.3212 50.5195 36.8704 50.6826 37.4325 50.688H46.7725C47.3328 50.6808 47.88 50.5168 48.3519 50.2145C48.8238 49.9123 49.2016 49.4839 49.4425 48.978L51.7825 44.508C52.055 43.9846 52.1974 43.4031 52.1974 42.813C52.1974 42.2228 52.055 41.6414 51.7825 41.118Z" fill="black"/>
<path d="M46.6024 34.9375H42.2924C41.698 34.937 41.1149 35.0999 40.607 35.4086C40.099 35.7173 39.6857 36.1597 39.4124 36.6875L36.9924 41.3175C36.7481 41.7797 36.6204 42.2947 36.6204 42.8175C36.6204 43.3403 36.7481 43.8553 36.9924 44.3175L39.4124 48.9575C39.688 49.4827 40.102 49.9225 40.6097 50.2292C41.1173 50.5359 41.6993 50.6979 42.2924 50.6975H46.6024C47.1938 50.6961 47.7736 50.5333 48.2794 50.2266C48.7851 49.92 49.1976 49.4812 49.4724 48.9575L51.9024 44.3175C52.1418 43.8537 52.2667 43.3394 52.2667 42.8175C52.2667 42.2956 52.1418 41.7813 51.9024 41.3175L49.4724 36.6875C49.1998 36.1612 48.7881 35.7198 48.2821 35.4112C47.7761 35.1026 47.1951 34.9388 46.6024 34.9375Z" fill="#FFC100"/>
<path d="M64.7525 42.8278C64.7525 44.9578 60.1825 46.6878 54.5425 46.6878C48.9025 46.6878 44.3325 44.9578 44.3325 42.8278C44.3325 40.6978 48.9125 38.9678 54.5425 38.9678C60.1725 38.9678 64.7525 40.6978 64.7525 42.8278Z" fill="#FFC100"/>
<path opacity="0.2" d="M64.7525 42.8278C64.7525 44.9578 60.1825 46.6878 54.5425 46.6878C48.9025 46.6878 44.3325 44.9578 44.3325 42.8278C44.3325 40.6978 48.9125 38.9678 54.5425 38.9678C60.1725 38.9678 64.7525 40.6978 64.7525 42.8278Z" fill="black"/>
<path d="M105.602 50.2777C105.602 50.2777 116.522 48.9077 119.022 61.2777C120.4 68.0316 121.163 74.8963 121.302 81.7877C123.907 81.933 126.497 82.2672 129.052 82.7877C132.112 83.3077 133.952 84.0177 141.002 85.3377C141.002 85.3377 144.862 79.8077 146.792 78.6677C147.792 78.0477 150.452 77.3577 151.582 77.8277C152.582 78.2177 155.202 79.5977 155.452 80.6077C155.642 81.3677 153.792 84.8577 153.792 84.8577C153.792 84.8577 146.022 89.5377 144.172 89.9377C138.122 91.2777 134.082 91.7577 123.762 92.6777C110.292 93.8777 111.482 88.2477 109.502 82.0377C107.522 75.8277 101.402 47.8677 105.602 50.2777Z" fill="#FFB473"/>
<path d="M100.933 49.1279C100.899 49.1231 100.865 49.128 100.834 49.1418C100.803 49.1557 100.776 49.178 100.758 49.2063C100.739 49.2345 100.728 49.2674 100.728 49.3013C100.727 49.3352 100.735 49.3687 100.753 49.3979C101.643 50.9379 105.033 57.5379 96.8826 57.5479C88.7326 57.5579 84.7326 50.7279 84.0226 49.3279C83.9833 49.2525 83.9264 49.1878 83.8568 49.1391C83.7871 49.0903 83.7068 49.0591 83.6226 49.0479C81.8226 48.8379 72.0626 48.0479 71.6826 55.2579C71.2726 63.2579 79.6026 74.7479 81.1326 99.9679C86.9905 103.147 93.6522 104.537 100.293 103.968C111.113 102.968 115.553 99.4079 115.553 99.4079C115.562 93.6964 115.97 87.9927 116.773 82.3379C118.983 66.4779 118.013 61.3379 106.343 49.7579L100.933 49.1279Z" fill="#263238"/>
<path d="M132 183.245L123.517 183.766C120.339 178.475 113.271 166.588 110.974 161.426C109.954 159.031 109.211 156.609 108.747 154.172C107.846 149.755 108.499 148.076 107.757 146.099C106.945 143.954 103.213 139.988 101.54 137.981C100.105 136.268 97.4714 132.833 95.1648 129.775C95.046 129.628 94.9371 129.481 94.8282 129.339C92.5613 126.35 90.6804 123.827 90.6804 123.827C75.0098 117.074 80.4247 106.827 83.1965 103.023C83.4539 102.67 83.6915 102.375 83.8895 102.14C84.2063 101.747 84.4141 101.531 84.4141 101.531L90.7695 101.374L98.1247 101.188L103.193 101.06L111.271 100.859L115.013 100.766L115.132 101.521L115.359 102.994L116.864 112.559L125.655 144.852L132 183.245Z" fill="#A4A4A4"/>
<path d="M108 100.419C108 100.445 108 100.564 107.912 100.763C107.846 101.036 107.747 101.459 107.615 101.989C107.527 102.355 107.428 102.773 107.307 103.236C106.461 106.587 108.88 113.707 108 116C106.901 118.932 104.823 122.936 102.206 127.495C102.206 127.539 100.196 136.061 98 132.5C86.9403 151.693 66.5536 174 66.5536 174L57 173.414C57.9125 168.466 60.0892 157.355 61.8153 152.69C62.6654 150.552 63.8216 148.435 65.2783 146.35C67.8508 142.589 69.8627 141.359 70.6542 139.599C71.5117 137.69 70.8191 133.704 70.6542 131.733C70.4344 128.294 70.7202 118.012 70.7202 118.012C70.8521 110.309 80.4277 102.099 82.5934 100.344C82.8683 100.119 83.0222 100 83.0222 100C83.0222 100 98.2925 100.26 101.558 100.243L108 100.419Z" fill="#A4A4A4"/>
<path d="M115 101.05C113.568 105.351 107.285 106.563 103.423 107.384C96.8179 108.916 90.1234 107.582 83.8053 103.474C83.4201 103.22 83.025 102.926 82.6299 102.633C82.4126 102.477 82.2051 102.242 81.9878 102.086C81.7595 101.928 81.5522 101.67 81.3812 101.331C81.2102 100.993 81.0799 100.583 81 100.131C81.2469 99.1339 81.3852 98.6061 81.3852 98.6061C81.3852 98.6061 95.1058 99.7595 98.0395 99.6813L103.097 99.173L111.157 98.3714L114.891 98L115 101.05Z" fill="#CC9A00"/>
<path d="M81.7026 55.9875C81.9326 48.6275 73.8426 45.5675 67.3626 60.0775C65.3257 64.8471 63.6542 69.7646 62.3626 74.7875C62.3626 74.7875 56.5026 63.2275 54.1226 52.0975C54.1226 52.0975 60.1226 46.4875 60.5726 43.8175C60.8426 42.3375 59.9026 38.9075 58.5726 38.1475C56.8526 37.1475 52.0626 38.0475 50.6726 39.4875C48.4926 41.7375 48.9526 51.8975 48.9526 51.8975C48.5644 61.2255 49.8272 70.5488 52.6826 79.4375C57.9626 96.0975 69.2126 87.9275 73.5026 79.9875C76.9626 73.6275 81.4826 63.3175 81.7026 55.9875Z" fill="#FFB473"/>
<path d="M81.2124 22.0478C80.9024 24.3278 79.1024 27.3678 76.7624 28.2078C76.4074 28.3541 76.0178 28.3952 75.6401 28.326C75.2624 28.2569 74.9125 28.0804 74.6324 27.8178C74.4657 27.7244 74.3195 27.5984 74.2027 27.4472C74.0858 27.2959 74.0007 27.1227 73.9524 26.9378C73.2995 26.921 72.6497 26.8406 72.0124 26.6978C71.0124 26.4678 70.3324 24.9978 71.2124 24.3378C75.2124 21.4178 76.5624 17.0778 75.6724 15.1778C71.1824 5.56783 81.0724 -4.82217 88.9324 2.42783C97.7324 10.5678 85.5624 13.4278 81.1024 13.2278C80.8724 13.2178 82.0624 18.3678 81.2124 22.0478Z" fill="#263238"/>
<path d="M84.4325 14.9379C84.4325 14.9379 81.8525 10.9379 84.8125 7.83791C87.7725 4.73791 91.6525 7.33791 91.6525 7.33791L84.4325 14.9379Z" fill="#FFC100"/>
<path d="M85.4025 49.1081H82.7825C84.2825 51.7681 90.8625 60.7581 98.5425 60.1681C105.752 59.6081 105.412 51.9681 103.152 49.2881C102.331 49.2671 101.514 49.1666 100.712 48.9881C97.3525 48.1081 96.4625 44.2381 96.9625 41.0681L87.0425 33.7881C88.1144 38.1649 88.3418 42.706 87.7125 47.1681C87.62 47.7128 87.3369 48.207 86.9138 48.5624C86.4907 48.9177 85.955 49.1111 85.4025 49.1081Z" fill="#FFB473"/>
<path d="M84.5425 21.5078C84.3925 29.7378 84.1425 33.2177 87.9425 37.7477C93.6625 44.5577 103.793 42.9477 106.403 34.9377C108.743 27.7177 108.603 15.4878 100.853 11.5878C99.1483 10.7171 97.2495 10.2972 95.3371 10.368C93.4246 10.4389 91.5622 10.9983 89.9271 11.9927C88.292 12.9872 86.9387 14.3838 85.9962 16.0493C85.0536 17.7149 84.5532 19.594 84.5425 21.5078Z" fill="#FFB473"/>
<path d="M102.413 27.3877C102.98 28.9251 103.754 30.3784 104.713 31.7077C104.368 31.9459 103.975 32.1052 103.562 32.1744C103.149 32.2435 102.726 32.2207 102.323 32.1077L102.413 27.3877Z" fill="#EC883E"/>
<path d="M96.1726 23.1282C96.1204 23.1078 96.0728 23.0772 96.0326 23.0382C96.0017 23.0083 95.9772 22.9726 95.9604 22.9331C95.9437 22.8936 95.9351 22.8511 95.9351 22.8082C95.9351 22.7652 95.9437 22.7228 95.9604 22.6832C95.9772 22.6437 96.0017 22.608 96.0326 22.5782C96.457 22.1383 96.9815 21.8077 97.5613 21.6144C98.1412 21.4211 98.7591 21.371 99.3626 21.4682C99.4458 21.4895 99.5179 21.5416 99.5643 21.614C99.6107 21.6864 99.6279 21.7736 99.6126 21.8582C99.5934 21.9406 99.5432 22.0126 99.4725 22.0591C99.4018 22.1056 99.3159 22.1232 99.2326 22.1082C98.7309 22.0342 98.2189 22.0809 97.7389 22.2444C97.2589 22.4079 96.8248 22.6834 96.4726 23.0482C96.4335 23.0859 96.3854 23.113 96.3329 23.127C96.2804 23.141 96.2253 23.1414 96.1726 23.1282Z" fill="#2E353A"/>
<path d="M107.423 23.4678C107.367 23.4531 107.316 23.4257 107.273 23.3878C106.922 23.0273 106.491 22.7564 106.014 22.598C105.537 22.4396 105.029 22.3984 104.533 22.4778C104.448 22.499 104.358 22.4856 104.283 22.4406C104.208 22.3956 104.154 22.3226 104.133 22.2378C104.114 22.1517 104.13 22.062 104.177 21.9874C104.224 21.9128 104.297 21.8592 104.383 21.8378C104.987 21.7377 105.606 21.7835 106.189 21.9714C106.771 22.1592 107.301 22.4837 107.733 22.9178C107.763 22.9476 107.788 22.9834 107.805 23.0229C107.821 23.0624 107.83 23.1049 107.83 23.1478C107.83 23.1907 107.821 23.2332 107.805 23.2727C107.788 23.3122 107.763 23.348 107.733 23.3778C107.69 23.4233 107.636 23.4559 107.576 23.4719C107.515 23.4878 107.452 23.4864 107.393 23.4678H107.423Z" fill="#2E353A"/>
<path d="M96.8125 26.2179C96.8125 26.8879 97.0925 27.4479 97.5325 27.4779C97.9725 27.5079 98.3525 26.9879 98.3825 26.3079C98.4125 25.6279 98.1025 25.0879 97.6725 25.0579C97.2425 25.0279 96.8525 25.5479 96.8125 26.2179Z" fill="#2E353A"/>
<path d="M104.353 26.6781C104.353 27.3381 104.633 27.8981 105.073 27.9281C105.513 27.9581 105.893 27.4381 105.933 26.7681C105.973 26.0981 105.653 25.5381 105.223 25.5081C104.793 25.4781 104.393 25.9981 104.353 26.6781Z" fill="#2E353A"/>
<path d="M105.022 25.5377L106.652 25.1777C106.652 25.1777 105.752 26.3677 105.022 25.5377Z" fill="#2E353A"/>
<path d="M97.4824 25.0878L99.1124 24.7178C99.1124 24.7178 98.2124 25.9178 97.4824 25.0878Z" fill="#2E353A"/>
<path d="M102.812 34.5573C102.812 34.5573 100.972 33.6873 95.4824 32.7773C95.6724 34.8573 96.4824 36.6473 99.3224 37.1073C100.073 37.2316 100.842 37.0664 101.475 36.645C102.108 36.2236 102.558 35.5775 102.732 34.8374C102.762 34.7374 102.792 34.6273 102.812 34.5573Z" fill="#2E353A"/>
<path d="M98.3824 35.3275C99.4853 35.4357 100.505 35.9617 101.232 36.7975C100.655 37.1106 99.987 37.2131 99.3425 37.0875C98.2429 36.9855 97.2253 36.4624 96.5024 35.6275C97.0713 35.3008 97.7402 35.1941 98.3824 35.3275Z" fill="#882B29"/>
<path d="M102.602 34.4678C102.509 34.6872 102.36 34.8788 102.171 35.0242C101.982 35.1696 101.759 35.2638 101.522 35.2979C99.9005 35.011 98.3099 34.569 96.7725 33.9779C96.5143 33.8906 96.2848 33.7346 96.1086 33.5267C95.9325 33.3188 95.8162 33.0668 95.7725 32.7979C98.0968 33.1372 100.384 33.6963 102.602 34.4678Z" fill="white"/>
<path d="M85.8725 26.4074C86.9768 25.8183 87.9252 24.9752 88.6398 23.9477C89.3544 22.9202 89.8146 21.7376 89.9825 20.4974C90.4625 16.3274 94.6825 17.0674 94.6825 17.0674C94.6825 17.0674 106.843 21.0674 110.383 16.5174C113.923 11.9674 106.553 12.2574 106.553 12.2574C106.553 12.2574 109.553 4.50737 102.163 8.73737C102.163 8.73737 93.0225 3.58737 86.6925 8.68737C76.4625 16.9374 81.8025 25.7574 81.8025 25.7574C81.8025 25.7574 77.8025 31.0574 82.7025 31.0874C82.7025 31.0874 79.7025 32.8774 82.7025 34.7074C87.4225 37.5574 85.8725 26.4074 85.8725 26.4074Z" fill="#263238"/>
<path d="M107.163 18.3776C95.7425 13.8576 86.0125 17.8976 80.7825 23.2076C80.7825 23.3676 80.7825 23.4877 80.7325 23.5877C80.6485 24.0155 80.7067 24.459 80.898 24.8507C81.0894 25.2424 81.4035 25.5609 81.7925 25.7577C82.3025 25.2677 93.0725 14.4976 107.243 20.8276C107.243 20.8276 107.953 20.3377 107.893 19.8977C107.833 19.4577 107.693 18.6276 107.163 18.3776Z" fill="#FFC100"/>
<path d="M77.7725 41.118L75.4325 36.628C75.1908 36.1205 74.8114 35.6911 74.3376 35.3888C73.8637 35.0865 73.3145 34.9233 72.7525 34.918H63.4125C62.8522 34.9312 62.3063 35.0976 61.8339 35.3991C61.3615 35.7005 60.9806 36.1255 60.7325 36.628L58.3925 41.098C58.1214 41.6254 57.98 42.2099 57.98 42.803C57.98 43.396 58.1214 43.9805 58.3925 44.508L60.7325 48.978C60.9806 49.4805 61.3615 49.9055 61.8339 50.2069C62.3063 50.5083 62.8522 50.6747 63.4125 50.688H72.7525C73.3145 50.6826 73.8637 50.5195 74.3376 50.2171C74.8114 49.9148 75.1908 49.4855 75.4325 48.978L77.7725 44.508C78.0402 43.9831 78.1798 43.4022 78.1798 42.813C78.1798 42.2237 78.0402 41.6429 77.7725 41.118Z" fill="#FFC100"/>
<path opacity="0.2" d="M77.7725 41.118L75.4325 36.628C75.1908 36.1205 74.8114 35.6911 74.3376 35.3888C73.8637 35.0865 73.3145 34.9233 72.7525 34.918H63.4125C62.8522 34.9312 62.3063 35.0976 61.8339 35.3991C61.3615 35.7005 60.9806 36.1255 60.7325 36.628L58.3925 41.098C58.1214 41.6254 57.98 42.2099 57.98 42.803C57.98 43.396 58.1214 43.9805 58.3925 44.508L60.7325 48.978C60.9806 49.4805 61.3615 49.9055 61.8339 50.2069C62.3063 50.5083 62.8522 50.6747 63.4125 50.688H72.7525C73.3145 50.6826 73.8637 50.5195 74.3376 50.2171C74.8114 49.9148 75.1908 49.4855 75.4325 48.978L77.7725 44.508C78.0402 43.9831 78.1798 43.4022 78.1798 42.813C78.1798 42.2237 78.0402 41.6429 77.7725 41.118Z" fill="black"/>
<path d="M72.6025 34.9375H68.2825C67.6898 34.9388 67.1088 35.1026 66.6028 35.4112C66.0968 35.7198 65.6851 36.1612 65.4125 36.6875L62.9825 41.3175C62.7431 41.7813 62.6182 42.2956 62.6182 42.8175C62.6182 43.3394 62.7431 43.8537 62.9825 44.3175L65.4125 48.9575C65.6873 49.4812 66.0998 49.92 66.6055 50.2266C67.1112 50.5333 67.6911 50.6961 68.2825 50.6975H72.6025C73.1956 50.6979 73.7775 50.5359 74.2852 50.2292C74.7929 49.9225 75.2069 49.4827 75.4825 48.9575L77.9025 44.3175C78.1468 43.8553 78.2745 43.3403 78.2745 42.8175C78.2745 42.2947 78.1468 41.7797 77.9025 41.3175L75.4825 36.6875C75.2092 36.1597 74.7959 35.7173 74.2879 35.4086C73.78 35.0999 73.1969 34.937 72.6025 34.9375Z" fill="#FFC100"/>
<path d="M163.572 94.2137L127.228 66.0118L154.44 54.9076L190.792 83.1208L163.572 94.2137Z" fill="#FFC100"/>
<path opacity="0.15" d="M163.572 94.2137L127.228 66.0118L154.44 54.9076L190.792 83.1208L163.572 94.2137Z" fill="black"/>
<path d="M145.966 79.8879L146.063 79.1746C146.182 78.3127 144.967 75.6126 143.189 74.228L128.758 63.0225L128.325 66.1829L145.966 79.8879Z" fill="#F5F5F5"/>
<path d="M128.758 63.0224L143.2 74.2194C144.979 75.604 146.193 78.3041 146.075 79.166L145.977 79.8793L172.012 69.2597L172.109 68.5563C172.228 67.6844 171.024 64.9857 169.244 63.611L154.795 52.4635L128.758 63.0224Z" fill="#FAFAFA"/>
<path d="M128.758 63.0224L143.2 74.2194C144.979 75.604 146.193 78.3041 146.075 79.166L145.977 79.8793L172.012 69.2597L172.109 68.5563C172.228 67.6844 171.024 64.9857 169.244 63.611L154.785 52.4622L128.758 63.0224Z" fill="#FAFAFA"/>
<path d="M146.057 79.2244L147.681 78.5691L149.82 77.6918C149.011 77.4292 148.138 77.437 147.334 77.714C147.008 77.8334 146.719 78.0355 146.496 78.3003C146.272 78.5651 146.12 78.8836 146.057 79.2244Z" fill="#F0F0F0"/>
<path d="M146.057 79.2244L147.681 78.5691L149.82 77.6918C149.011 77.4292 148.138 77.437 147.334 77.714C147.008 77.8334 146.719 78.0355 146.496 78.3003C146.272 78.5651 146.12 78.8836 146.057 79.2244Z" fill="#E0E0E0"/>
<path d="M163.481 94.8776L163.572 94.2138L190.792 83.1209L190.702 83.7748L163.481 94.8776Z" fill="#FFC100"/>
<path opacity="0.3" d="M163.481 94.8776L163.572 94.2138L190.792 83.1209L190.702 83.7748L163.481 94.8776Z" fill="black"/>
<path d="M163.481 94.8778L127.128 66.6646L127.228 66.0121L163.572 94.214L163.481 94.8778Z" fill="#FFC100"/>
<path d="M146.057 79.224C146.175 78.3621 147.869 77.8577 149.659 79.2337L164.11 90.3614L163.665 93.6109L145.966 79.8878L146.057 79.224Z" fill="#F5F5F5"/>
<path d="M163.665 93.6105L164.11 90.361L190.134 79.7499L189.689 82.9994L163.665 93.6105Z" fill="#EBEBEB"/>
<path d="M149.659 79.2342L150.308 79.727L164.1 90.3605L187.098 80.9895L190.134 79.7507L175.694 68.6145C174.389 67.6078 173.578 67.5571 172.98 67.798L146.588 78.5908C147.111 78.4193 147.67 78.3884 148.209 78.5014C148.748 78.6143 149.248 78.867 149.659 79.2342Z" fill="#FAFAFA"/>
<path d="M165.536 88.0641L153.247 78.5353L152.599 78.0326L152.043 78.2591L152.691 78.7618L164.98 88.2906L165.536 88.0641Z" fill="#E0E0E0"/>
<path d="M166.871 87.5305L154.574 77.9904L153.926 77.4877L153.37 77.7142L154.018 78.2169L166.316 87.7471L166.871 87.5305Z" fill="#E0E0E0"/>
<path d="M168.197 86.986L155.91 77.4473L155.261 76.9545L154.705 77.181L155.354 77.6738L167.641 87.2125L168.197 86.986Z" fill="#E0E0E0"/>
<path d="M169.523 86.4411L157.236 76.9023L156.587 76.4095L156.031 76.6361L156.68 77.1289L168.977 86.669L169.523 86.4411Z" fill="#E0E0E0"/>
<path d="M170.86 85.8971L158.571 76.3683L157.913 75.8642L157.367 76.0921L158.016 76.5849L170.304 86.1237L170.86 85.8971Z" fill="#E0E0E0"/>
<path d="M172.186 85.3522L159.897 75.8234L159.25 75.3207L158.694 75.5472L159.341 76.0499L171.64 85.5801L172.186 85.3522Z" fill="#E0E0E0"/>
<path d="M173.522 84.8092L161.224 75.2791L160.576 74.7764L160.03 75.0042L160.668 75.5056L172.967 85.0358L173.522 84.8092Z" fill="#E0E0E0"/>
<path d="M174.849 84.2643L162.56 74.7355L161.912 74.2328L161.356 74.4593L162.004 74.962L174.293 84.4908L174.849 84.2643Z" fill="#E0E0E0"/>
<path d="M176.184 83.7305L163.886 74.1904L163.237 73.6976L162.681 73.9242L163.33 74.4169L175.628 83.957L176.184 83.7305Z" fill="#E0E0E0"/>
<path d="M177.51 83.1862L165.223 73.6475L164.574 73.1547L164.018 73.3812L164.667 73.874L176.954 83.4127L177.51 83.1862Z" fill="#E0E0E0"/>
<path d="M178.846 82.6426L166.549 73.1025L165.9 72.6097L165.344 72.8363L165.993 73.3291L178.29 82.8692L178.846 82.6426Z" fill="#E0E0E0"/>
<path d="M180.173 82.0983L167.874 72.5681L167.236 72.0668L166.68 72.2933L167.328 72.796L179.617 82.3248L180.173 82.0983Z" fill="#E0E0E0"/>
<path d="M181.499 81.5534L169.21 72.0246L168.563 71.5219L168.007 71.7484L168.654 72.2511L180.953 81.7813L181.499 81.5534Z" fill="#E0E0E0"/>
<path d="M182.835 81.0094L170.536 71.4793L169.889 70.9766L169.343 71.2044L169.99 71.7071L182.279 81.236L182.835 81.0094Z" fill="#E0E0E0"/>
<path d="M184.162 80.4655L171.873 70.9367L171.225 70.434L170.669 70.6605L171.317 71.1632L183.604 80.7019L184.162 80.4655Z" fill="#E0E0E0"/>
<path d="M185.496 79.9317L173.199 70.3916L172.55 69.8988L171.994 70.1254L172.643 70.6181L184.941 80.1582L185.496 79.9317Z" fill="#E0E0E0"/>
<path d="M186.823 79.3864L174.536 69.8477L173.887 69.3549L173.331 69.5814L173.98 70.0742L186.267 79.6129L186.823 79.3864Z" fill="#E0E0E0"/>
<path opacity="0.1" d="M149.626 78.3711C149.913 78.4105 150.496 78.7226 150.823 78.8382C152.924 79.8308 154.927 81.018 156.807 82.3844C159.805 84.4411 162.6 86.5809 162.6 86.5809L186.42 76.8786L175.694 68.6139C175.287 68.2804 174.829 68.0133 174.339 67.8224C173.983 67.833 173.632 67.9043 173.301 68.0332L173.189 67.7453L173 67.8001L146.588 78.5902C147.532 78.1193 148.624 78.0406 149.626 78.3711Z" fill="black"/>
<path d="M164.022 91.0765L161.802 89.5303L163.98 91.3129L166.558 90.2534L164.022 91.0765Z" fill="#E6E6E6"/>
<path d="M163.78 92.6986L159.739 89.5602L163.803 92.5302L169.105 90.5222L163.78 92.6986Z" fill="#E6E6E6"/>
<path d="M190.036 80.4637L186.045 82.1871L189.99 80.8005L190.036 80.4637Z" fill="#E6E6E6"/>
<path d="M189.862 81.7322L183.924 84.3291L189.82 82.0393L189.862 81.7322Z" fill="#E6E6E6"/>
<path d="M149.82 77.6912C150.107 77.7306 150.412 77.8633 150.739 77.9788C152.837 78.9713 154.837 80.1581 156.713 81.5237C159.711 83.5803 162.508 85.7102 162.508 85.7102L188.561 75.1032C188.561 75.1032 180.102 68.5626 176.587 67.404C175.516 66.9343 174.312 66.8622 173.193 67.2009L147.324 77.7828C148.124 77.481 149 77.4489 149.82 77.6912Z" fill="#F5F5F5"/>
<path d="M150.286 76.5036C151.091 76.2323 151.962 76.2245 152.772 76.4814C153.083 76.5651 153.389 76.6644 153.69 76.7789C155.003 77.3439 156.26 78.0301 157.446 78.8285C158.178 79.3025 158.946 79.8116 159.693 80.3279C161.539 81.5904 163.226 82.8313 164.287 83.6329L163.698 83.8752C162.609 83.0595 160.875 81.7921 159.105 80.5701C158.348 80.0525 157.59 79.5447 156.858 79.0708C155.671 78.2739 154.414 77.5879 153.101 77.0212C152.775 76.8957 152.465 76.8027 152.134 76.7168C151.325 76.4543 150.452 76.4621 149.648 76.7391L150.286 76.5036Z" fill="#E0E0E0"/>
<path d="M151.622 75.9606C152.427 75.6893 153.298 75.6815 154.108 75.9384C154.395 75.9778 154.7 76.1104 155.026 76.2359C156.338 76.8026 157.596 77.4887 158.782 78.2855C159.515 78.7595 160.273 79.2672 161.03 79.7849C162.826 81.0407 164.562 82.2883 165.623 83.0899L165.035 83.3322C163.935 82.5152 162.211 81.2491 160.441 80.0272C159.694 79.5109 158.936 79.0031 158.194 78.5278C157.008 77.7307 155.75 77.0446 154.438 76.4782C154.112 76.3527 153.802 76.2597 153.47 76.1739C152.66 75.917 151.789 75.9248 150.984 76.1961L151.622 75.9606Z" fill="#E0E0E0"/>
<path d="M152.957 75.4269C153.762 75.1556 154.633 75.1478 155.443 75.4046C155.73 75.444 156.035 75.5767 156.361 75.7022C157.673 76.2686 158.931 76.9547 160.117 77.7518C160.86 78.2271 161.618 78.7348 162.364 79.2511C164.21 80.5137 165.897 81.7545 166.958 82.5562L166.36 82.7971C165.27 81.9815 163.535 80.7239 161.766 79.492C161.019 78.9757 160.251 78.4666 159.519 77.9927C158.333 77.1942 157.076 76.5081 155.763 75.9431C155.462 75.8286 155.156 75.7292 154.845 75.6455C154.035 75.3887 153.164 75.3965 152.359 75.6678L152.957 75.4269Z" fill="#E0E0E0"/>
<path d="M154.285 74.8718C155.09 74.6005 155.961 74.5927 156.771 74.8496C157.082 74.9333 157.388 75.0326 157.689 75.1471C159.001 75.7138 160.258 76.3999 161.445 77.1967C162.178 77.6707 162.945 78.1798 163.692 78.6961C165.488 79.9518 167.225 81.1995 168.286 82.0011L167.697 82.2434C166.608 81.4277 164.873 80.1702 163.104 78.9383C162.347 78.4207 161.589 77.9129 160.857 77.439C159.67 76.6422 158.413 75.9561 157.1 75.3894C156.775 75.2639 156.464 75.1709 156.182 75.0918C155.372 74.835 154.502 74.8428 153.696 75.1141L154.285 74.8718Z" fill="#E0E0E0"/>
<path d="M155.581 74.323C156.387 74.0517 157.257 74.0439 158.067 74.3007C158.355 74.3401 158.66 74.4728 158.985 74.5983C160.299 75.1648 161.556 75.8545 162.74 76.6578C163.474 77.1218 164.232 77.6296 164.989 78.1472C166.785 79.403 168.521 80.6506 169.582 81.4523L168.994 81.6945C167.895 80.8776 166.169 79.6214 164.4 78.3895C163.654 77.8732 162.896 77.3655 162.153 76.8902C160.967 76.0931 159.709 75.407 158.397 74.8405C158.071 74.7151 157.761 74.6221 157.479 74.543C156.669 74.2862 155.798 74.294 154.993 74.5653L155.581 74.323Z" fill="#E0E0E0"/>
<path d="M156.957 73.7848C157.763 73.517 158.633 73.5127 159.442 73.7724C159.754 73.8486 160.061 73.9447 160.361 74.0601C161.675 74.6264 162.933 75.316 164.116 76.1196C164.86 76.585 165.618 77.0927 166.365 77.609C168.21 78.8716 169.897 80.1124 170.958 80.9141L170.36 81.155C169.271 80.3394 167.535 79.0818 165.766 77.85C165.02 77.3337 164.252 76.8246 163.519 76.3506C162.333 75.5538 161.075 74.8677 159.763 74.301C159.437 74.1755 159.127 74.0825 158.845 74.0034C158.035 73.7466 157.164 73.7544 156.359 74.0257L156.957 73.7848Z" fill="#E0E0E0"/>
<path d="M158.283 73.2405C159.089 72.9727 159.96 72.9684 160.768 73.2281C161.081 73.3043 161.388 73.4004 161.688 73.5158C163.001 74.0824 164.259 74.7719 165.443 75.5753C166.176 76.0393 166.944 76.5484 167.691 77.0647C169.487 78.3205 171.223 79.5681 172.284 80.3697L171.696 80.612C170.607 79.7964 168.872 78.5389 167.103 77.307C166.346 76.7893 165.588 76.2816 164.854 75.8175C163.67 75.0142 162.413 74.3246 161.099 73.758C160.773 73.6325 160.463 73.5395 160.181 73.4605C159.371 73.2077 158.501 73.2155 157.695 73.4827L158.283 73.2405Z" fill="#E0E0E0"/>
<path d="M159.62 72.6975C160.426 72.4297 161.296 72.4254 162.104 72.6851C162.417 72.7613 162.724 72.8574 163.024 72.9728C164.338 73.5394 165.595 74.229 166.779 75.0323C167.512 75.4963 168.27 76.0041 169.027 76.5217C170.823 77.7775 172.56 79.0251 173.621 79.8268L173.032 80.069C171.933 79.2521 170.208 77.9959 168.439 76.764C167.692 76.2477 166.924 75.7386 166.19 75.2746C165.007 74.4709 163.749 73.7814 162.435 73.215C162.135 73.1004 161.828 73.0044 161.516 72.9274C160.707 72.6676 159.837 72.672 159.031 72.9398L159.62 72.6975Z" fill="#E0E0E0"/>
<path d="M162.843 72.3821C163.155 72.4583 163.462 72.5544 163.762 72.6697C165.867 73.6539 167.871 74.8416 169.745 76.216C171.541 77.4718 173.278 78.7194 174.339 79.521L174.937 79.2801C173.837 78.473 172.113 77.207 170.344 75.9751C168.47 74.6007 166.466 73.413 164.36 72.4288C164.064 72.314 163.76 72.2183 163.451 72.1426C162.642 71.8828 161.772 71.8871 160.966 72.1549L160.368 72.3958C161.17 72.1297 162.037 72.125 162.843 72.3821Z" fill="#E0E0E0"/>
<path d="M164.179 71.8386C164.491 71.9147 164.798 72.0108 165.098 72.1262C167.203 73.1103 169.207 74.2981 171.082 75.6724C172.878 76.9282 174.614 78.1758 175.675 78.9775L176.263 78.7352C175.173 77.9295 173.439 76.662 171.67 75.4301C169.796 74.0558 167.792 72.8681 165.686 71.8839C165.386 71.7685 165.079 71.6725 164.767 71.5963C163.958 71.3365 163.088 71.3409 162.282 71.6086L161.694 71.8509C162.5 71.5831 163.37 71.5788 164.179 71.8386Z" fill="#E0E0E0"/>
<path d="M165.505 71.2942C165.818 71.3696 166.125 71.4657 166.425 71.5818C168.53 72.566 170.534 73.7538 172.408 75.1281C174.254 76.3907 175.941 77.6315 177.001 78.4331L177.6 78.1922C176.509 77.3865 174.775 76.1191 173.006 74.8872C171.132 73.5128 169.128 72.3251 167.023 71.341C166.723 71.2256 166.416 71.1295 166.103 71.0533C165.295 70.7936 164.425 70.7979 163.619 71.0657L163.03 71.3079C163.833 71.0418 164.7 71.0371 165.505 71.2942Z" fill="#E0E0E0"/>
<path d="M166.841 70.7504C167.154 70.8265 167.461 70.9226 167.761 71.038C169.866 72.0222 171.87 73.2099 173.744 74.5842C175.59 75.8468 177.277 77.0876 178.338 77.8893L178.926 77.647C177.836 76.8413 176.112 75.5752 174.333 74.342C172.459 72.9676 170.455 71.7799 168.349 70.7957C168.049 70.6796 167.742 70.5835 167.43 70.5081C166.624 70.2509 165.758 70.2557 164.955 70.5218L164.357 70.7627C165.163 70.4949 166.033 70.4906 166.841 70.7504Z" fill="#E0E0E0"/>
<path d="M168.178 70.2071C168.49 70.2833 168.797 70.3794 169.097 70.4947C171.199 71.4788 173.2 72.6661 175.071 74.0396C176.916 75.3022 178.613 76.5444 179.664 77.3446L180.252 77.1024C179.162 76.2967 177.428 75.0292 175.659 73.7973C173.785 72.423 171.781 71.2353 169.675 70.2511C169.375 70.1357 169.068 70.0396 168.756 69.9635C167.947 69.7037 167.077 69.708 166.271 69.9758L165.683 70.2181C166.492 69.9486 167.366 69.9447 168.178 70.2071Z" fill="#E0E0E0"/>
<path d="M169.509 69.6229C169.822 69.6983 170.129 69.7944 170.429 69.9106C172.534 70.8948 174.538 72.0825 176.412 73.4568C178.258 74.7194 179.945 75.9602 181.006 76.7619L181.604 76.521C180.513 75.7152 178.78 74.4478 177.011 73.2159C175.14 71.8424 173.139 70.6551 171.037 69.671C170.737 69.5557 170.43 69.4596 170.118 69.3834C169.309 69.1236 168.439 69.128 167.633 69.3958L167.044 69.638C167.844 69.3737 168.707 69.3684 169.509 69.6229Z" fill="#E0E0E0"/>
<path d="M170.84 69.1195C171.152 69.1956 171.46 69.2917 171.76 69.4071C173.865 70.3913 175.869 71.579 177.743 72.9533C179.589 74.2159 181.276 75.4567 182.336 76.2584L182.925 76.0161C181.834 75.2104 180.11 73.9443 178.331 72.7111C176.457 71.3367 174.453 70.149 172.348 69.1648C172.032 69.0442 171.708 68.9458 171.379 68.8704C170.573 68.6132 169.707 68.618 168.904 68.8841L168.306 69.125C169.128 68.8485 170.017 68.8466 170.84 69.1195Z" fill="#E0E0E0"/>
<path d="M172.177 68.5752C172.489 68.6514 172.796 68.7475 173.096 68.8629C175.198 69.8469 177.199 71.0342 179.07 72.4077C180.915 73.6703 182.602 74.9111 183.663 75.7128L184.251 75.4705C183.161 74.6648 181.427 73.3974 179.658 72.1655C177.781 70.7951 175.778 69.6076 173.674 68.6192C173.358 68.4995 173.035 68.4011 172.705 68.3248C171.897 68.065 171.027 68.0694 170.221 68.3372L169.632 68.5794C170.457 68.3012 171.351 68.2997 172.177 68.5752Z" fill="#E0E0E0"/>
<path d="M173.503 68.0313C173.832 68.1067 174.156 68.2051 174.472 68.3258C176.577 69.3099 178.581 70.4976 180.455 71.872C182.301 73.1346 183.988 74.3754 185.049 75.177L185.647 74.9361C184.546 74.129 182.823 72.863 181.054 71.6311C179.18 70.2615 177.18 69.0745 175.08 68.0862C174.764 67.9664 174.44 67.8681 174.111 67.7918C173.302 67.5292 172.429 67.5371 171.625 67.814L171.028 68.045C171.831 67.779 172.697 67.7741 173.503 68.0313Z" fill="#E0E0E0"/>
<path d="M145.636 73.2411C146.323 73.7892 146.915 74.4468 147.388 75.1873L147.924 74.958C147.451 74.2196 146.859 73.5652 146.171 73.0218L133.224 62.9889L132.688 63.2181L145.636 73.2411Z" fill="#E0E0E0"/>
<path d="M146.962 72.696C147.65 73.2432 148.242 73.9009 148.714 74.6422L149.26 74.4143C148.788 73.6759 148.195 73.0215 147.507 72.4781L134.559 62.4551L134.015 62.6731L146.962 72.696Z" fill="#E0E0E0"/>
<path d="M148.289 72.1521C148.976 72.7002 149.567 73.3577 150.04 74.0983L150.575 73.8789C150.103 73.1376 149.511 72.4799 148.823 71.9328L135.886 61.9111L135.341 62.1291L148.289 72.1521Z" fill="#E0E0E0"/>
<path d="M149.625 71.6082C150.313 72.1553 150.905 72.813 151.377 73.5543L151.921 73.3363C151.449 72.595 150.857 71.9374 150.17 71.3902L137.222 61.3672L136.677 61.5852L149.625 71.6082Z" fill="#E0E0E0"/>
<path d="M150.974 71.1169C151.659 71.6675 152.25 72.3246 152.726 73.0631L153.261 72.8438C152.789 72.1024 152.197 71.4448 151.509 70.8976L138.571 60.876L138.027 61.0939L150.974 71.1169Z" fill="#E0E0E0"/>
<path d="M152.286 70.5302C152.974 71.0736 153.567 71.728 154.039 72.4665L154.584 72.2485C154.112 71.5072 153.52 70.8495 152.832 70.3023L139.884 60.2793L139.34 60.4973L152.286 70.5302Z" fill="#E0E0E0"/>
<path d="M153.613 69.9852C154.3 70.5293 154.892 71.1836 155.366 71.9215L155.9 71.7022C155.425 70.9632 154.834 70.306 154.149 69.756L141.211 59.7344L140.666 59.9524L153.613 69.9852Z" fill="#E0E0E0"/>
<path d="M154.949 69.4415C155.637 69.9849 156.229 70.6393 156.702 71.3778L157.247 71.1598C156.774 70.4213 156.182 69.7669 155.494 69.2235L142.517 59.1865L141.971 59.4144L154.949 69.4415Z" fill="#E0E0E0"/>
<path d="M156.325 68.9042C157.015 69.4491 157.607 70.1072 158.076 70.8504L158.613 70.6211C158.14 69.8827 157.547 69.2283 156.859 68.6849L143.923 58.6533L143.377 58.8812L156.325 68.9042Z" fill="#E0E0E0"/>
<path d="M157.611 68.3533C158.299 68.9004 158.891 69.5581 159.363 70.2994L159.909 70.0715C159.437 69.3331 158.844 68.6787 158.156 68.1353L145.208 58.1123L144.664 58.3303L157.611 68.3533Z" fill="#E0E0E0"/>
<path d="M158.948 67.8103C159.633 68.3599 160.225 69.0171 160.699 69.7565L161.234 69.5371C160.765 68.7934 160.173 68.1352 159.482 67.591L146.545 57.5693L146 57.7873L158.948 67.8103Z" fill="#E0E0E0"/>
<path d="M160.274 67.2658C160.962 67.813 161.554 68.4706 162.026 69.2119L162.571 68.994C162.099 68.2527 161.507 67.595 160.819 67.0478L147.861 57.0234L147.317 57.2414L160.274 67.2658Z" fill="#E0E0E0"/>
<path d="M161.61 66.7224C162.296 67.272 162.888 67.9293 163.362 68.6686L163.897 68.4492C163.425 67.7079 162.833 67.0503 162.145 66.5031L149.207 56.4814L148.663 56.6994L161.61 66.7224Z" fill="#E0E0E0"/>
<path d="M162.937 66.1778C163.622 66.7277 164.213 67.385 164.688 68.124L165.233 67.906C164.761 67.1647 164.169 66.507 163.481 65.9598L150.536 55.917L149.992 56.135L162.937 66.1778Z" fill="#E0E0E0"/>
<path d="M164.272 65.6434C164.957 66.1894 165.549 66.8434 166.025 67.5797L166.56 67.3604C166.088 66.6191 165.496 65.9614 164.808 65.4142L151.87 55.3926L151.325 55.6106L164.272 65.6434Z" fill="#E0E0E0"/>
<path d="M165.598 65.0991C166.286 65.6425 166.879 66.297 167.351 67.0354L167.896 66.8174C167.421 66.0784 166.829 65.4212 166.144 64.8712L153.206 54.8496L152.66 55.0775L165.598 65.0991Z" fill="#E0E0E0"/>
<path d="M166.934 64.5556C167.622 65.099 168.215 65.7534 168.687 66.4918L169.222 66.2725C168.75 65.534 168.157 64.8796 167.469 64.3362L154.533 54.3047L153.987 54.5326L166.934 64.5556Z" fill="#E0E0E0"/>
<path d="M131.667 66.2476L128.616 64.0626L128.654 63.7852L131.667 66.2476Z" fill="#E6E6E6"/>
<path d="M128.484 65.0233L133.541 68.8462L128.511 64.8252L128.484 65.0233Z" fill="#E6E6E6"/>
<path opacity="0.02" d="M185.099 72.5284C182.342 70.5552 178.647 68.0598 176.611 67.3767C175.54 66.907 174.336 66.8349 173.217 67.1735L147.348 77.7555C148.153 77.4785 149.025 77.4707 149.834 77.7332C149.834 77.7332 162.715 72.1321 170.684 70.7019C175.564 69.8664 180.582 70.5022 185.099 72.5284Z" fill="black"/>
</g>
</g>
<defs>
<clipPath id="clip0_512_35013">
<rect width="210" height="140" fill="white"/>
</clipPath>
</defs>
</svg>
