<svg width="210" height="140" viewBox="0 0 210 140" fill="none" xmlns="http://www.w3.org/2000/svg">
<g clip-path="url(#clip0_512_35244)">
<path fill-rule="evenodd" clip-rule="evenodd" d="M88.1535 12.3224C62.3282 7.09848 30.5891 -4.78397 11.4839 10.5899C-7.61455 25.9584 7.43951 52.482 11.0252 74.3873C13.89 91.8887 15.0233 110.262 29.8663 122.889C44.8429 135.629 66.7357 139.946 88.1535 140C109.646 140.053 128.892 133.08 146.792 123.181C171.008 109.79 210.085 98.4266 206.806 74.3873C203.453 49.8098 160.003 48.7059 134.837 35.5418C118.881 27.1957 106.467 16.0268 88.1535 12.3224Z" fill="#FFECB2"/>
<path d="M157.988 20.0828L164.304 19.1587L157.988 18.2346L159.549 15.7622L157.076 17.3228L156.152 11.001L155.228 17.3228L152.756 15.7622L154.322 18.2346L148 19.1587L154.322 20.0828L152.756 22.5552L155.228 20.9885L156.152 27.3103L157.076 20.9885L159.549 22.5552L157.988 20.0828Z" fill="#F5F5F5"/>
<path d="M99.4211 36.4031L105.743 35.479L99.4211 34.5488L100.988 32.0825L98.5154 33.6431L97.5913 27.3213L96.6672 33.6431L94.1948 32.0825L95.7615 34.5488L89.4397 35.479L95.7615 36.4031L94.1948 38.8755L96.6672 37.3088L97.5913 43.6306L98.5154 37.3088L100.988 38.8755L99.4211 36.4031Z" fill="#F5F5F5"/>
<path d="M45.989 36.4031L52.3047 35.479L45.989 34.5488L47.5496 32.0825L45.0772 33.6431L44.1531 27.3213L43.229 33.6431L40.7566 32.0825L42.3232 34.5488L36.0015 35.479L42.3232 36.4031L40.7566 38.8755L43.229 37.3088L44.1531 43.6306L45.0772 37.3088L47.5496 38.8755L45.989 36.4031Z" fill="#F5F5F5"/>
<path d="M76.2581 74.034L82.5798 73.1099L76.2581 72.1797L77.8247 69.7134L75.3523 71.2739L74.4282 64.9521L73.498 71.2739L71.0317 69.7134L72.5923 72.1797L66.2705 73.1099L72.5923 74.034L71.0317 76.5064L73.498 74.9397L74.4282 81.2615L75.3523 74.9397L77.8247 76.5064L76.2581 74.034Z" fill="#F5F5F5"/>
<path d="M200.435 53.771L206.757 52.8469L200.435 51.9228L202.002 49.4504L199.53 51.0171L198.605 44.6953L197.681 51.0171L195.209 49.4504L196.769 51.9228L190.454 52.8469L196.769 53.771L195.209 56.2434L197.681 54.6829L198.605 61.0046L199.53 54.6829L202.002 56.2434L200.435 53.771Z" fill="#F5F5F5"/>
<path d="M192.988 73.0828L199.31 72.1587L192.988 71.2285L194.555 68.7622L192.082 70.3228L191.158 64.001L190.228 70.3228L187.762 68.7622L189.322 71.2285L183 72.1587L189.322 73.0828L187.762 75.5552L190.228 73.9885L191.158 80.3103L192.082 73.9885L194.555 75.5552L192.988 73.0828Z" fill="#F5F5F5"/>
<path d="M76.2581 121.01L82.5798 120.079L76.2581 119.155L77.8247 116.683L75.3523 118.25L74.4282 111.928L73.498 118.25L71.0317 116.683L72.5923 119.155L66.2705 120.079L72.5923 121.01L71.0317 123.476L73.498 121.915L74.4282 128.237L75.3523 121.915L77.8247 123.476L76.2581 121.01Z" fill="#F5F5F5"/>
<path d="M144.946 92.2769L151.268 91.3528L144.946 90.4287L146.513 87.9563L144.04 89.5168L143.116 83.2012L142.192 89.5168L139.72 87.9563L141.28 90.4287L134.958 91.3528L141.28 92.2769L139.72 94.7493L142.192 93.1826L143.116 99.5044L144.04 93.1826L146.513 94.7493L144.946 92.2769Z" fill="#F5F5F5"/>
<path d="M180.202 42.1126C176.445 36.5497 174.835 27.8228 171.39 24.3651C174.057 22.3175 176.888 20.4918 179.854 18.9062C181.965 24.9832 183.22 34.4139 188.666 36.6537C185.999 38.7014 183.168 40.5271 180.202 42.1126Z" fill="#EBEBEB"/>
<path d="M186.567 37.6946C186.041 37.3457 186.176 36.6603 186.818 36.2319C183.049 33.2026 181.696 26.1526 179.989 20.8773C179.85 20.9404 179.699 20.9728 179.546 20.9724C179.393 20.972 179.242 20.9387 179.104 20.8749C178.965 20.811 178.841 20.7181 178.742 20.6023C178.642 20.4866 178.569 20.3508 178.526 20.2041C176.736 21.1956 175 22.2803 173.324 23.4537C173.454 23.7624 173.464 24.1087 173.35 24.4239C173.237 24.7391 173.009 25.0001 172.712 25.155C175.264 28.7596 176.819 35.4119 179.609 40.3812C179.923 40.2646 180.266 40.2535 180.586 40.3496C180.906 40.4457 181.186 40.6437 181.384 40.9136C183.167 39.932 184.897 38.8575 186.567 37.6946ZM177.388 31.5196C176.831 30.0325 177.345 28.4169 178.483 27.8906C179.621 27.3643 180.931 28.2394 181.451 29.7633C181.971 31.2871 181.568 32.866 180.435 33.3678C179.303 33.8697 177.938 33.019 177.406 31.5196H177.388Z" fill="#E0E0E0"/>
<path d="M94.7396 23.8578C89.3603 26.7586 81.2026 27.1196 77.8 30.0082C76.0928 27.1141 74.6036 24.0968 73.3447 20.9815C79.0912 19.7575 87.8732 19.8432 90.2844 14.8311C91.9964 17.7226 93.4858 20.7402 94.7396 23.8578Z" fill="#EBEBEB"/>
<path d="M91.1042 17.0219C90.7493 17.4932 90.119 17.2667 89.7701 16.5752C86.7102 19.8371 80.1314 20.1859 75.1438 21.1222C75.1978 21.2562 75.2218 21.4004 75.2139 21.5447C75.2061 21.6889 75.1666 21.8297 75.0983 21.957C75.0299 22.0843 74.9345 22.195 74.8186 22.2813C74.7027 22.3676 74.5693 22.4274 74.4277 22.4563C75.156 24.1944 76.0189 26.0242 77.0715 27.9642C77.5427 27.7255 78.2343 28.0988 78.6014 28.7965C82.0959 26.8075 88.332 26.2078 93.1115 24.1699C93.0176 23.8646 93.0266 23.5369 93.1372 23.2372C93.2477 22.9375 93.4538 22.6825 93.7235 22.5114C93.0014 20.7795 92.1507 18.9558 91.1104 17.0036L91.1042 17.0219ZM84.7886 25.1552C84.1442 25.3292 83.4587 25.2654 82.8575 24.9754C82.2563 24.6855 81.7796 24.1888 81.5145 23.5763C81.1045 22.3523 82.0041 21.2446 83.4422 20.9386C84.8804 20.6326 86.3124 21.2507 86.698 22.4257C87.0835 23.6007 86.2023 24.8002 84.7886 25.1552Z" fill="#E0E0E0"/>
<path d="M108.129 22.7178C103.558 18.6481 100.424 11.0901 96.5444 8.90537C98.6779 6.30864 101.004 3.87628 103.503 1.62891C106.618 6.61044 109.549 14.8906 115.081 15.4352C112.95 18.0336 110.626 20.4679 108.129 22.7178Z" fill="#EBEBEB"/>
<path d="M113.3 16.9527C112.743 16.7814 112.737 16.1143 113.269 15.5513C109.175 13.7949 106.574 7.73017 103.985 3.39121C103.878 3.48888 103.751 3.56152 103.612 3.60389C103.473 3.64627 103.327 3.65731 103.183 3.63623C103.04 3.61515 102.903 3.56247 102.782 3.482C102.662 3.40152 102.561 3.29527 102.486 3.1709C101.103 4.45606 99.677 5.8881 98.2021 7.55269C98.5877 7.91376 98.4714 8.69098 97.939 9.27236C100.999 11.8794 103.704 17.5341 107.259 21.3223C107.514 21.1302 107.825 21.0262 108.144 21.0262C108.463 21.0262 108.773 21.1302 109.028 21.3223C110.405 20.0494 111.825 18.6234 113.312 16.9772L113.3 16.9527ZM103.508 13.7949C103.123 13.2489 102.949 12.5824 103.016 11.9179C103.083 11.2534 103.389 10.6356 103.875 10.1781C104.854 9.38863 106.225 9.84151 107.015 11.0899C107.804 12.3384 107.7 13.8928 106.727 14.6578C105.754 15.4228 104.322 15.0189 103.526 13.7949H103.508Z" fill="#E0E0E0"/>
<path d="M162.474 79.5413C160.387 73.7948 161.219 65.6738 158.863 61.8856C161.975 60.6248 165.176 59.5979 168.441 58.8135C168.814 64.6763 167.443 73.3542 172.052 76.4753C168.94 77.7363 165.739 78.7612 162.474 79.5413Z" fill="#EBEBEB"/>
<path d="M169.763 76.9408C169.353 76.5185 169.671 75.9371 170.375 75.7168C167.596 72.2163 168.214 65.6497 168.019 60.5825C167.877 60.6179 167.73 60.6217 167.587 60.5934C167.444 60.5651 167.31 60.5055 167.192 60.4189C167.075 60.3323 166.979 60.2208 166.91 60.0925C166.841 59.9642 166.802 59.8222 166.795 59.6768C164.959 60.148 163.031 60.7294 160.938 61.4821C161.103 61.9839 160.632 62.6143 159.885 62.8713C161.342 66.6228 161.024 72.8833 162.333 77.9016C162.649 77.8574 162.97 77.9155 163.25 78.0676C163.529 78.2196 163.753 78.4575 163.888 78.7461C165.724 78.281 167.639 77.7057 169.726 76.9591L169.763 76.9408ZM162.676 69.5113C162.595 68.8487 162.757 68.1791 163.131 67.6266C163.506 67.0741 164.068 66.6762 164.714 66.5065C165.938 66.2739 166.941 67.3265 167.039 68.7953C167.137 70.264 166.311 71.5859 165.093 71.8001C163.875 72.0143 162.786 70.9617 162.676 69.5113Z" fill="#E0E0E0"/>
<path d="M135.356 44.059C131.25 49.3526 127.498 55.0196 125.84 61.0721C123.074 59.9277 120.234 58.7772 117.462 57.4369C119.634 51.1396 123.386 45.6134 126.978 40.4238C129.744 41.5682 132.584 42.7188 135.356 44.059Z" fill="#EBEBEB"/>
<path d="M128.264 41.4758C128.057 41.7528 127.767 41.9556 127.436 42.0538C127.105 42.152 126.751 42.1403 126.428 42.0205C123.466 46.3472 120.504 50.9126 118.509 55.9737C118.81 56.1353 119.044 56.3991 119.168 56.7176C119.293 57.0361 119.3 57.3886 119.188 57.7117C120.92 58.5073 122.67 59.2478 124.402 59.9699C124.445 59.8193 124.52 59.6797 124.622 59.5605C124.724 59.4414 124.85 59.3455 124.993 59.2794C125.135 59.2133 125.289 59.1784 125.446 59.1772C125.603 59.176 125.758 59.2084 125.901 59.2723C127.584 54.3458 130.54 49.6948 133.82 45.2946C133.678 45.2314 133.552 45.1355 133.453 45.0148C133.354 44.894 133.284 44.7517 133.251 44.5993C133.217 44.4469 133.219 44.2887 133.257 44.1373C133.296 43.986 133.369 43.8458 133.472 43.7279C131.733 42.9324 129.989 42.1919 128.257 41.4697L128.264 41.4758ZM127.756 51.4695C127.429 52.0719 126.893 52.5333 126.249 52.7658C125.604 52.9983 124.897 52.9856 124.261 52.7302C123.965 52.5882 123.702 52.3852 123.49 52.1346C123.278 51.884 123.121 51.5914 123.03 51.276C122.938 50.9605 122.915 50.6293 122.96 50.3041C123.006 49.9789 123.12 49.667 123.294 49.3888C123.644 48.7868 124.2 48.3315 124.859 48.1066C125.518 47.8817 126.236 47.9024 126.88 48.1648C127.176 48.3029 127.437 48.5041 127.646 48.7542C127.855 49.0044 128.007 49.2974 128.091 49.6126C128.174 49.9278 128.187 50.2574 128.129 50.5783C128.072 50.8991 127.944 51.2034 127.756 51.4695Z" fill="#E0E0E0"/>
<path d="M126.82 50.7599L127.15 50.9129L127.01 51.1577L126.679 51.0047C126.519 51.2656 126.291 51.4773 126.018 51.6167L125.792 51.3413C126.021 51.2275 126.217 51.0568 126.361 50.8456L125.749 50.5702C125.48 50.8639 125.168 51.1822 124.758 50.9863C124.458 50.8456 124.317 50.4968 124.543 50.0072L124.213 49.8542L124.354 49.6094L124.684 49.7624C124.82 49.5492 125.005 49.371 125.223 49.2422L125.449 49.4992C125.276 49.6065 125.124 49.7456 125.002 49.9092L125.614 50.1846C125.89 49.8909 126.226 49.5727 126.624 49.7685C126.924 49.9215 127.052 50.2458 126.82 50.7599ZM125.412 50.4172L124.886 50.1724C124.794 50.3988 124.849 50.5396 124.978 50.6008C125.106 50.662 125.259 50.5702 125.412 50.4172ZM126.422 50.1785C126.275 50.1112 126.128 50.2091 125.975 50.3682L126.502 50.6069C126.593 50.3744 126.532 50.2458 126.422 50.1785Z" fill="#E0E0E0"/>
<path d="M213.323 4.13923C212.999 -2.53749 207.026 -7.13348 206.702 -13.8102L215.269 -16.9619C215.6 -10.2852 221.567 -5.6892 221.897 0.981401L213.323 4.13923Z" fill="#EBEBEB"/>
<path d="M220.221 1.07273C220.185 0.723969 220.261 0.372942 220.438 0.070406C220.616 -0.232131 220.884 -0.47049 221.206 -0.610211C220.172 -5.80594 216.035 -9.85114 215.013 -15.0469C214.87 -14.9843 214.715 -14.9572 214.56 -14.9677C214.405 -14.9782 214.255 -15.0262 214.123 -15.1074C213.991 -15.1886 213.88 -15.3007 213.8 -15.434C213.721 -15.5674 213.675 -15.718 213.666 -15.873L208.342 -13.9086C208.378 -13.5605 208.303 -13.21 208.127 -12.9076C207.951 -12.6051 207.683 -12.3663 207.363 -12.2256C208.385 -7.02991 212.522 -2.97858 213.556 2.21715C213.697 2.1545 213.852 2.12709 214.006 2.13726C214.16 2.14743 214.31 2.19487 214.441 2.27553C214.573 2.35618 214.683 2.46764 214.763 2.60031C214.842 2.73298 214.888 2.8829 214.896 3.0372L220.214 1.07273H220.221ZM211.989 -5.65906C211.823 -5.93316 211.721 -6.24121 211.691 -6.56026C211.66 -6.87931 211.702 -7.20114 211.813 -7.50174C211.924 -7.80235 212.102 -8.07398 212.333 -8.2964C212.564 -8.51881 212.842 -8.68627 213.146 -8.78629C213.812 -9.0045 214.533 -8.98741 215.188 -8.73788C215.843 -8.48836 216.392 -8.02153 216.744 -7.41545C216.912 -7.14204 217.015 -6.83427 217.047 -6.51522C217.078 -6.19618 217.037 -5.87414 216.926 -5.57325C216.816 -5.27237 216.638 -5.00045 216.408 -4.7779C216.177 -4.55535 215.899 -4.38794 215.594 -4.28823C214.924 -4.07057 214.2 -4.09051 213.543 -4.3447C212.887 -4.59888 212.338 -5.07175 211.989 -5.68354V-5.65906Z" fill="#E0E0E0"/>
<path d="M39.8936 83.2193C39.5632 76.5609 33.5963 71.9466 33.2659 65.2699L41.8336 62.1182C42.1641 68.7949 48.1309 73.3848 48.4614 80.0615L39.8936 83.2193Z" fill="#EBEBEB"/>
<path d="M46.7901 80.1538C46.7541 79.8057 46.8295 79.4552 47.0055 79.1528C47.1815 78.8503 47.4489 78.6115 47.7693 78.4708C46.7412 73.2751 42.6042 69.2299 41.576 64.0281C41.4345 64.092 41.2795 64.1204 41.1245 64.1109C40.9694 64.1014 40.8191 64.0542 40.6864 63.9734C40.5538 63.8926 40.4429 63.7806 40.3633 63.6473C40.2837 63.5139 40.2378 63.3631 40.2297 63.208L34.9054 65.1725C34.9415 65.5205 34.866 65.871 34.6901 66.1735C34.5141 66.4759 34.2467 66.7147 33.9263 66.8554C34.9544 72.0512 39.0914 76.1025 40.1195 81.2982C40.2611 81.2343 40.4161 81.2058 40.5711 81.2154C40.7261 81.2249 40.8765 81.2721 41.0091 81.3529C41.1418 81.4337 41.2527 81.5456 41.3323 81.679C41.4119 81.8124 41.4578 81.9631 41.4659 82.1183L46.7901 80.1538ZM38.5529 73.422C38.3867 73.1479 38.2846 72.8399 38.2541 72.5208C38.2236 72.2017 38.2655 71.8799 38.3767 71.5793C38.4879 71.2787 38.6655 71.0071 38.8962 70.7847C39.127 70.5623 39.405 70.3948 39.7095 70.2948C40.3748 70.0781 41.0942 70.096 41.7479 70.3455C42.4016 70.5949 42.95 71.0608 43.3018 71.6656C43.4693 71.939 43.5726 72.2468 43.6041 72.5658C43.6356 72.8849 43.5945 73.2069 43.4838 73.5078C43.3731 73.8087 43.1957 74.0806 42.9649 74.3032C42.7342 74.5257 42.456 74.6931 42.1513 74.7928C41.4825 75.0089 40.7597 74.9882 40.1044 74.7341C39.449 74.48 38.9012 74.008 38.5529 73.3975V73.422Z" fill="#E0E0E0"/>
<path d="M39.8026 73.2261L39.4476 73.3546L39.313 73.1098L39.6618 72.9813C39.5274 72.7303 39.478 72.4426 39.5211 72.1612H39.9127C39.8694 72.3936 39.9016 72.6338 40.0045 72.8466L40.6165 72.6141C40.5125 72.253 40.4329 71.8552 40.8735 71.6961C41.0694 71.6392 41.279 71.652 41.4665 71.7324C41.654 71.8127 41.8078 71.9556 41.9017 72.1367L42.2566 72.0082L42.3913 72.253L42.0424 72.3815C42.1527 72.5879 42.2016 72.8215 42.1832 73.0547H41.7976C41.807 72.8681 41.7735 72.6817 41.6997 72.51L41.0877 72.7487C41.1918 73.1037 41.2775 73.5076 40.8429 73.6667C40.6453 73.7255 40.4334 73.7137 40.2436 73.6333C40.0537 73.5529 39.8978 73.4089 39.8026 73.2261ZM41.0265 72.4856L41.5896 72.2775C41.5453 72.1989 41.4763 72.1371 41.3933 72.1017C41.3103 72.0663 41.218 72.0592 41.1306 72.0816C40.9715 72.1367 40.9715 72.2775 41.0143 72.4856H41.0265ZM40.6043 73.3056C40.7634 73.2505 40.7634 73.0914 40.7144 72.8895L40.1575 73.0975C40.3044 73.3056 40.4574 73.3546 40.592 73.3056H40.6043Z" fill="#E0E0E0"/>
<path d="M61.7537 7.0042C59.4221 13.4423 51.35 13.3137 48.694 18.7726C46.2094 16.5878 43.7982 14.4887 41.3931 12.6161C43.7186 6.17802 51.7968 6.30654 54.4528 0.847656C56.9313 3.06303 59.3792 5.11317 61.7537 7.0042Z" fill="#EBEBEB"/>
<path d="M55.6401 2.48242C55.328 3.05769 54.5569 3.05157 53.9939 2.54974C51.0931 6.33179 45.2058 6.95601 42.5376 11.3745C42.798 11.6053 42.9773 11.9138 43.0489 12.2543C43.1205 12.5948 43.0807 12.9494 42.9354 13.2655C44.4327 14.4895 45.9545 15.7828 47.5008 17.1455C47.8129 16.5764 48.584 16.5764 49.1409 17.0782C52.0417 13.2961 57.9289 12.6719 60.6033 8.25341C60.3426 8.02416 60.163 7.71675 60.0913 7.37705C60.0196 7.03734 60.0597 6.68356 60.2055 6.3685C58.7 5.14454 57.1762 3.85122 55.634 2.48854L55.6401 2.48242ZM53.4676 11.6622C52.2926 12.2741 50.4077 11.9314 49.2755 10.8849C48.1434 9.83844 48.0516 8.43701 49.2755 7.82502C50.4995 7.21304 52.3354 7.55575 53.4737 8.60836C54.612 9.66097 54.6365 11.0563 53.4676 11.6744V11.6622Z" fill="#E0E0E0"/>
<path d="M52.7021 10.6524C52.8123 10.7503 52.9163 10.8421 53.0142 10.94L52.7878 11.0624L52.4757 10.7809C52.1892 10.9067 51.8753 10.9573 51.5638 10.9278L51.4047 10.6034C51.6664 10.6336 51.9315 10.5978 52.1758 10.4994L51.6189 9.99142C51.418 10.074 51.1988 10.1017 50.9837 10.0716C50.7686 10.0415 50.5654 9.95465 50.395 9.82006C50.32 9.77158 50.2595 9.70376 50.2199 9.62375C50.1803 9.54374 50.163 9.45453 50.1699 9.36551C50.1768 9.2765 50.2076 9.19101 50.2591 9.11805C50.3105 9.0451 50.3807 8.9874 50.4623 8.95104L50.144 8.66341L50.3705 8.54102L50.6826 8.82253C50.9156 8.72023 51.1688 8.6721 51.4231 8.68177L51.5883 9C51.3802 8.99637 51.173 9.02952 50.9763 9.09792L51.5455 9.61811C51.7449 9.53002 51.9648 9.49883 52.1808 9.528C52.3968 9.55716 52.6005 9.64553 52.7694 9.78334C52.8427 9.83302 52.9015 9.90119 52.9399 9.98093C52.9783 10.0607 52.9949 10.1492 52.9881 10.2374C52.9812 10.3256 52.9512 10.4105 52.901 10.4834C52.8507 10.5562 52.7821 10.6145 52.7021 10.6524ZM51.2579 9.68543L50.756 9.22644C50.7231 9.24672 50.696 9.27507 50.6771 9.30881C50.6583 9.34256 50.6484 9.38056 50.6484 9.41921C50.6484 9.45786 50.6583 9.49587 50.6771 9.52961C50.696 9.56336 50.7231 9.59171 50.756 9.61198C50.8296 9.65938 50.9124 9.69047 50.999 9.70313C51.0855 9.7158 51.1738 9.70977 51.2579 9.68543ZM52.4206 9.99754C52.3426 9.94464 52.2534 9.91049 52.1599 9.89775C52.0665 9.88501 51.9714 9.89403 51.8821 9.9241L52.3778 10.377C52.5736 10.2423 52.5675 10.1077 52.4451 9.99754H52.4206Z" fill="#E0E0E0"/>
<path d="M68.0269 95.055C65.7014 101.493 57.6232 101.365 54.9672 106.823C52.5193 104.639 50.0713 102.54 47.6663 100.667C49.9979 94.2288 58.07 94.3573 60.726 88.8984C63.2106 91.0832 65.6524 93.164 68.0269 95.055Z" fill="#EBEBEB"/>
<path d="M61.9128 90.5332C61.6007 91.1023 60.8358 91.1024 60.2727 90.6005C57.3719 94.3826 51.4847 95.0068 48.8103 99.4253C49.0726 99.6548 49.2536 99.9629 49.3264 100.304C49.3992 100.645 49.3598 101 49.2142 101.316C50.7136 102.54 52.2374 103.85 53.7796 105.196C54.0856 104.627 54.8567 104.627 55.4197 105.129C58.3144 101.347 64.2078 100.717 66.876 96.3042C66.6153 96.075 66.4357 95.7675 66.364 95.4278C66.2923 95.0881 66.3324 94.7344 66.4782 94.4193C64.9809 93.1953 63.4591 91.902 61.9128 90.5393V90.5332ZM59.7403 99.7129C58.5714 100.325 56.6804 99.9822 55.5543 98.9357C54.4283 97.8892 54.3304 96.4878 55.5543 95.8758C56.7783 95.2638 58.6143 95.6065 59.7464 96.6592C60.8786 97.7118 60.9092 99.1071 59.7403 99.7252V99.7129Z" fill="#E0E0E0"/>
<path d="M58.9817 98.7031L59.2938 98.9908C59.2142 99.0275 59.1408 99.0703 59.0673 99.1132L58.7552 98.8255C58.4675 98.9545 58.1513 99.0072 57.8373 98.9785C57.7883 98.8684 57.7332 98.7643 57.6843 98.6542C57.9459 98.6838 58.2109 98.6481 58.4554 98.5501L57.8923 98.0422C57.6909 98.124 57.4714 98.1506 57.2563 98.1194C57.0412 98.0882 56.8383 98.0003 56.6684 97.8647C56.5949 97.8158 56.5359 97.7483 56.4973 97.6689C56.4587 97.5896 56.442 97.5015 56.4488 97.4135C56.4557 97.3256 56.4859 97.2411 56.5363 97.1687C56.5868 97.0963 56.6556 97.0387 56.7357 97.0018L56.4236 96.7142L56.65 96.5918L56.9621 96.8733C57.1935 96.7719 57.444 96.7218 57.6965 96.7264C57.7516 96.8366 57.8128 96.9406 57.8679 97.0447C57.6593 97.0423 57.452 97.0776 57.2559 97.1487L57.8189 97.6628C58.0198 97.5802 58.239 97.5525 58.4541 97.5826C58.6692 97.6127 58.8724 97.6995 59.0429 97.8341C59.1163 97.8833 59.1755 97.951 59.2144 98.0305C59.2533 98.1099 59.2705 98.1982 59.2643 98.2864C59.2581 98.3746 59.2287 98.4596 59.179 98.5328C59.1294 98.6059 59.0613 98.6647 58.9817 98.7031ZM57.5557 97.7301L57.06 97.2772C56.8887 97.4118 56.9071 97.5465 57.06 97.6628C57.1333 97.7083 57.2153 97.7378 57.3007 97.7494C57.3861 97.761 57.473 97.7544 57.5557 97.7301ZM58.7185 98.0483C58.6418 97.9926 58.5524 97.9568 58.4585 97.944C58.3645 97.9312 58.2688 97.9418 58.18 97.9749L58.6757 98.4277C58.847 98.2931 58.8409 98.1585 58.7185 98.0483Z" fill="#E0E0E0"/>
<path d="M178.465 31.3972L178.159 31.5258C178.128 31.4279 178.091 31.3299 178.055 31.2259L178.355 31.0974C178.247 30.7807 178.216 30.4432 178.263 30.1121L178.593 30.1549C178.552 30.427 178.571 30.7048 178.648 30.9689L179.181 30.7363C179.113 30.3018 179.058 29.8245 179.438 29.6653C179.713 29.5429 180.05 29.7143 180.282 30.2773L180.582 30.1427L180.692 30.4426L180.392 30.5711C180.477 30.8336 180.51 31.1099 180.49 31.385L180.166 31.3483C180.179 31.1298 180.156 30.9108 180.099 30.6996L179.56 30.9321C179.627 31.3667 179.695 31.8501 179.321 32.0092C179.046 32.1194 178.709 31.948 178.465 31.3972ZM179.511 30.6017L179.989 30.3936C179.866 30.1488 179.732 30.0754 179.615 30.1304C179.499 30.1855 179.481 30.3691 179.511 30.6017ZM179.126 31.5441C179.26 31.489 179.266 31.2993 179.23 31.0607L178.758 31.2687C178.881 31.5196 179.015 31.5931 179.126 31.5441Z" fill="#E0E0E0"/>
<path d="M84.74 24.0711C84.7767 24.169 84.8073 24.2792 84.844 24.3832L84.5625 24.4444C84.5258 24.3404 84.4952 24.2363 84.4646 24.1323C84.1594 24.1941 83.8435 24.1772 83.5466 24.0833C83.5466 23.9793 83.5895 23.8753 83.6078 23.7651C83.8517 23.848 84.112 23.871 84.3667 23.8324C84.3055 23.6488 84.2443 23.4591 84.1892 23.2755C83.7792 23.2755 83.3386 23.2755 83.21 22.8777C83.1244 22.5901 83.3018 22.2658 83.822 22.1372C83.7914 22.0332 83.7547 21.9292 83.7241 21.819L84.0056 21.7578C84.0056 21.8618 84.0729 21.9659 84.1035 22.0699C84.352 22.0206 84.6078 22.0206 84.8563 22.0699C84.8563 22.174 84.8563 22.278 84.8073 22.382C84.6048 22.3478 84.3979 22.3478 84.1953 22.382C84.2504 22.5718 84.3116 22.7553 84.3728 22.9451C84.7767 22.9451 85.2296 22.9451 85.3459 23.3245C85.4499 23.5999 85.2663 23.9303 84.74 24.0711ZM84.0791 22.9389C84.0301 22.7737 83.975 22.6024 83.9261 22.4432C83.6874 22.5228 83.6139 22.6452 83.6568 22.7676C83.6996 22.89 83.8649 22.9328 84.0791 22.9389ZM84.9297 23.4408C84.8869 23.3 84.7094 23.2755 84.4891 23.2694C84.5442 23.4346 84.5931 23.5999 84.6482 23.7651C84.9175 23.6794 84.9664 23.557 84.9175 23.4408H84.9297Z" fill="#E0E0E0"/>
<path d="M104.506 13.3912L104.243 13.5932L104.09 13.3545L104.347 13.1526C104.186 12.8875 104.094 12.5869 104.078 12.2774L104.396 12.2224C104.405 12.4796 104.474 12.7312 104.598 12.9567L105.063 12.6018C104.916 12.2224 104.775 11.8001 105.1 11.5492C105.424 11.2983 105.712 11.4329 106.005 11.8735L106.269 11.6716L106.422 11.9164L106.164 12.1122C106.291 12.3331 106.374 12.5761 106.409 12.8282L106.097 12.8833C106.067 12.6831 106.005 12.4889 105.914 12.308L105.448 12.6691C105.595 13.0485 105.748 13.4708 105.448 13.7156C105.149 13.9604 104.836 13.8319 104.506 13.3912ZM105.338 12.3815L105.754 12.0694C105.595 11.8735 105.455 11.8491 105.351 11.9225C105.247 11.9959 105.271 12.1795 105.338 12.3815ZM105.161 13.3484C105.271 13.2627 105.24 13.0914 105.161 12.8833L104.751 13.1954C104.922 13.3974 105.057 13.428 105.161 13.3484Z" fill="#E0E0E0"/>
<path d="M163.722 69.6213L163.398 69.6764C163.398 69.5785 163.398 69.4805 163.398 69.3887L163.722 69.3337C163.708 69.0233 163.771 68.7143 163.906 68.434L164.212 68.5442C164.095 68.7714 164.034 69.0231 164.034 69.2786L164.616 69.1868C164.665 68.7829 164.744 68.3484 165.148 68.281C165.442 68.2321 165.711 68.4524 165.791 68.9971L166.115 68.9481V69.2357L165.797 69.2847C165.805 69.5392 165.764 69.7929 165.674 70.0313L165.368 69.9334C165.442 69.7378 165.482 69.5306 165.485 69.3214L164.903 69.4193C164.848 69.8232 164.787 70.2639 164.383 70.3312C164.083 70.3863 163.808 70.166 163.722 69.6213ZM164.946 69.1317L165.46 69.046C165.411 68.8012 165.301 68.7156 165.172 68.7339C165.044 68.7523 164.977 68.9175 164.94 69.1317H164.946ZM164.334 69.8967C164.475 69.8967 164.53 69.707 164.567 69.4867L164.053 69.5662C164.089 69.8294 164.193 69.915 164.316 69.8967H164.334Z" fill="#E0E0E0"/>
<path d="M142.443 24.3774C137.058 27.2782 128.906 27.6454 125.504 30.5278C123.796 27.6294 122.311 24.6057 121.061 21.4827C126.807 20.2587 135.589 20.3383 138 15.3262C139.707 18.2272 141.192 21.2529 142.443 24.3774Z" fill="#FFC100"/>
<path opacity="0.5" d="M142.443 24.3774C137.058 27.2782 128.906 27.6454 125.504 30.5278C123.796 27.6294 122.311 24.6057 121.061 21.4827C126.807 20.2587 135.589 20.3383 138 15.3262C139.707 18.2272 141.192 21.2529 142.443 24.3774Z" fill="white"/>
<path opacity="0.2" d="M138.814 17.5473C138.459 18.0124 137.835 17.786 137.486 17.1006C134.426 20.3563 127.841 20.7113 122.859 21.6415C122.913 21.7763 122.937 21.9213 122.929 22.0663C122.921 22.2113 122.881 22.3527 122.812 22.4806C122.743 22.6084 122.647 22.7196 122.53 22.8062C122.414 22.8928 122.28 22.9527 122.137 22.9817C122.872 24.7198 123.728 26.5435 124.781 28.4896C125.258 28.2509 125.95 28.6242 126.311 29.328C129.811 27.3391 136.048 26.7393 140.821 24.7014C140.731 24.395 140.741 24.0677 140.852 23.7679C140.962 23.4681 141.166 23.2118 141.433 23.0368C140.705 21.3049 139.854 19.4873 138.814 17.529V17.5473ZM132.498 25.6439C131.855 25.8215 131.168 25.7594 130.567 25.4689C129.966 25.1785 129.491 24.6795 129.23 24.0649C128.82 22.8777 129.714 21.7394 131.158 21.4273C132.602 21.1152 134.022 21.7455 134.407 22.9205C134.793 24.0955 133.918 25.3195 132.498 25.6439Z" fill="black"/>
<g opacity="0.2">
<path d="M132.456 24.5914C132.493 24.6954 132.523 24.7994 132.554 24.9035L132.273 24.9708C132.273 24.8667 132.205 24.7627 132.175 24.6587C131.869 24.7166 131.554 24.6998 131.257 24.6097C131.257 24.4996 131.299 24.3955 131.324 24.2915C131.566 24.375 131.825 24.396 132.077 24.3527C132.022 24.1691 131.96 23.9855 131.899 23.7958C131.495 23.7958 131.049 23.7958 130.926 23.398C130.834 23.1165 131.012 22.8166 131.538 22.6575C131.501 22.5535 131.471 22.4494 131.434 22.3454L131.722 22.2842C131.722 22.3882 131.783 22.4923 131.82 22.5963C132.068 22.5443 132.324 22.5443 132.572 22.5963L132.517 22.9084C132.315 22.8742 132.108 22.8742 131.905 22.9084C131.967 23.092 132.028 23.2817 132.083 23.4714C132.493 23.4714 132.94 23.4714 133.062 23.8509C133.166 24.1201 132.982 24.4261 132.456 24.5914ZM131.795 23.4592C131.74 23.2939 131.691 23.1287 131.636 22.9635C131.404 23.0492 131.33 23.1716 131.367 23.294C131.404 23.4164 131.581 23.4531 131.795 23.4592ZM132.64 23.961C132.597 23.8264 132.426 23.7958 132.205 23.7958C132.254 23.961 132.309 24.1262 132.358 24.2854C132.603 24.1997 132.652 24.0834 132.652 23.961H132.64Z" fill="black"/>
</g>
<path d="M74.6233 51.0597C69.9967 46.2372 62.4755 46.6901 57.8489 41.8799C59.3054 39.2198 60.764 36.5577 62.2246 33.8936C66.8511 38.716 74.3724 38.2692 78.999 43.0733C77.5425 45.7374 76.0839 48.3996 74.6233 51.0597Z" fill="#FFC100"/>
<path opacity="0.5" d="M74.6233 51.0597C69.9967 46.2372 62.4755 46.6901 57.8489 41.8799C59.3054 39.2198 60.764 36.5577 62.2246 33.8936C66.8511 38.716 74.3724 38.2692 78.999 43.0733C77.5425 45.7374 76.0839 48.3996 74.6233 51.0597Z" fill="white"/>
<path opacity="0.2" d="M77.8174 44.2237C77.5601 43.9853 77.3857 43.6708 77.3196 43.3262C77.2536 42.9816 77.2993 42.625 77.4502 42.3082C73.2643 39.0647 67.4871 38.7281 63.3012 35.4785C63.2356 35.6191 63.1367 35.7417 63.0131 35.8355C62.8895 35.9293 62.7448 35.9915 62.5917 36.0169C62.4386 36.0422 62.2817 36.0298 62.1344 35.9808C61.9872 35.9317 61.8541 35.8476 61.7468 35.7355L59.0234 40.7171C59.2784 40.9559 59.4508 41.2696 59.5157 41.6128C59.5807 41.9561 59.5347 42.3111 59.3845 42.6265C63.5705 45.8761 69.3476 46.2127 73.5335 49.4623C73.5985 49.3212 73.697 49.1981 73.8203 49.1037C73.9436 49.0093 74.0881 48.9464 74.2413 48.9204C74.3944 48.8945 74.5516 48.9064 74.6992 48.9549C74.8467 49.0035 74.9802 49.0873 75.088 49.1992L77.8113 44.2237H77.8174ZM67.1689 44.5297C66.8639 44.4312 66.585 44.2653 66.3528 44.0444C66.1207 43.8234 65.9412 43.553 65.8278 43.2532C65.7143 42.9535 65.6698 42.632 65.6975 42.3127C65.7252 41.9934 65.8244 41.6844 65.9878 41.4086C66.3486 40.8047 66.9064 40.3435 67.5674 40.1028C68.2284 39.862 68.9522 39.8563 69.6168 40.0867C69.922 40.183 70.2015 40.3471 70.4344 40.5666C70.6673 40.7861 70.8475 41.0553 70.9617 41.3543C71.0759 41.6533 71.121 41.9741 71.0937 42.293C71.0664 42.6118 70.9674 42.9204 70.8041 43.1956C70.4449 43.8031 69.8869 44.2677 69.2244 44.5108C68.5619 44.754 67.8358 44.7606 67.1689 44.5297Z" fill="black"/>
<g opacity="0.2">
<path d="M67.9956 43.5815C67.9405 43.6917 67.8793 43.8018 67.8181 43.912L67.555 43.8141L67.7324 43.4897C67.465 43.389 67.2374 43.2044 67.0837 42.9634L67.3897 42.7186C67.5133 42.9187 67.6947 43.0766 67.9099 43.1715C68.014 42.9757 68.1241 42.7798 68.2343 42.5595C67.9222 42.3514 67.6223 42.1066 67.8242 41.6966C67.9347 41.5253 68.1016 41.3978 68.296 41.3364C68.4904 41.2749 68.7002 41.2833 68.8891 41.36L69.0727 41.0234L69.3358 41.1214L69.1522 41.4457C69.3711 41.5302 69.562 41.6744 69.703 41.8619L69.4093 42.1066C69.2929 41.9628 69.1468 41.8458 68.9809 41.7639L68.6565 42.3759C68.9686 42.584 69.2685 42.8288 69.0727 43.2388C68.9602 43.4113 68.7915 43.5397 68.5952 43.6021C68.3989 43.6646 68.1871 43.6573 67.9956 43.5815ZM68.424 42.229L68.7116 41.7027C68.4668 41.6538 68.3138 41.7027 68.2465 41.8557C68.1792 42.0087 68.271 42.1066 68.424 42.229ZM68.6504 43.1225C68.73 42.9757 68.6504 42.8594 68.4607 42.737L68.1731 43.2572C68.424 43.3123 68.577 43.2449 68.6504 43.1225Z" fill="black"/>
</g>
<mask id="mask0_512_35244" style="mask-type:alpha" maskUnits="userSpaceOnUse" x="2" y="3" width="206" height="137">
<path fill-rule="evenodd" clip-rule="evenodd" d="M88.154 12.3224C62.3286 7.09848 30.5896 -4.78397 11.4844 10.5899C-7.61406 25.9584 7.44 52.482 11.0257 74.3873C13.8905 91.8887 15.0238 110.262 29.8667 122.889C44.8434 135.629 66.7362 139.946 88.154 140C109.647 140.053 128.892 133.08 146.793 123.181C171.008 109.79 210.086 98.4266 206.807 74.3873C203.454 49.8098 160.004 48.7059 134.837 35.5418C118.882 27.1957 106.467 16.0268 88.154 12.3224Z" fill="#FFECB2"/>
</mask>
<g mask="url(#mask0_512_35244)">
<path d="M167.609 171.267C167.787 173.313 167.999 175.394 168.245 177.508H24.4885C28.9865 139.508 24.4885 123.034 24.4885 123.034C72.5303 119.418 168.245 123.034 168.245 123.034C168.245 123.034 165.353 141.34 167.301 167.555C167.392 168.772 167.495 170.009 167.609 171.267Z" fill="#FFC100"/>
<path opacity="0.2" d="M168.245 123.034C161.949 125.973 131.154 126.39 113.435 125.29C95.7172 124.189 72.5303 127.546 72.5303 127.546C59.1048 122.911 24.4885 123.034 24.4885 123.034C72.5303 119.418 168.245 123.034 168.245 123.034Z" fill="white"/>
<path opacity="0.2" d="M24.4885 177.508C28.9865 139.508 24.4885 123.033 24.4885 123.033C24.4885 123.033 52.9868 122.411 72.5303 127.545C72.5303 127.545 73.2139 133.342 72.5303 136.322C72.5303 136.322 96.0385 132.508 116.963 133.014C116.963 133.014 84.5749 136.739 72.5303 139.508C72.5303 139.508 53.1577 136.486 40.9012 136.322C40.9012 136.322 66.3849 139.638 72.5303 141.62C72.5303 141.62 79.8172 140.294 83.6316 140.294C83.6316 140.294 74.5058 141.955 72.5303 143.438V153.938C72.5303 153.938 52.187 154.341 41.9813 152.885C46.8278 153.644 66.59 156.686 72.5303 156.686C72.5303 156.686 94.9789 155.859 108.015 156.686C108.015 156.686 78.3133 158.395 72.5303 159.776H47.0329L72.5303 161.915V164.041H83.4675L72.5303 165.928C72.5303 165.928 40.9012 163.918 31.8028 165.928C31.8028 165.928 69.1329 167.623 72.4893 168.942L72.5303 172.087C72.5303 172.087 114.392 166.557 151.415 171.314C151.415 171.314 97.3509 169.168 72.5303 175.183C72.5303 175.183 150.191 173.495 168.231 177.508H24.4885Z" fill="black"/>
<path d="M25.3295 127.545L21.5356 128.871C21.5356 128.871 44.3876 129.657 59.1324 131.913C59.1187 131.913 36.4034 127.873 25.3295 127.545Z" fill="#FFC100"/>
<path opacity="0.2" d="M75.8589 131.914L81.6419 133.014C81.6419 133.014 108.568 130.089 140.395 129.733C140.395 129.733 94.4248 127.505 75.8589 131.914Z" fill="white"/>
<path opacity="0.2" d="M94.105 138.099C94.105 138.099 110.251 133.697 124.408 133.916C138.565 134.135 165.511 131.913 165.511 131.913L166.571 133.916C166.571 133.916 145.442 135.153 128.004 135.01C116.635 135.031 105.29 136.065 94.105 138.099Z" fill="white"/>
<path d="M111.378 138.721C111.378 138.721 127.955 137.354 142.262 138.099C156.569 138.844 171.594 139.514 171.594 139.514L166.57 140.936C166.57 140.936 132.124 137.484 111.378 138.721Z" fill="#FFC100"/>
<path opacity="0.2" d="M111.378 138.721C111.378 138.721 127.955 137.354 142.262 138.099C156.569 138.844 171.594 139.514 171.594 139.514L166.57 140.936C166.57 140.936 132.124 137.484 111.378 138.721Z" fill="black"/>
<path d="M167.808 126.438L171.595 127.046L167.528 129.172L143.603 128.666C143.603 128.666 161.54 128.427 167.808 126.438Z" fill="#FFC100"/>
<path opacity="0.2" d="M167.808 126.438L171.595 127.046L167.528 129.172L143.603 128.666C143.603 128.666 161.54 128.427 167.808 126.438Z" fill="black"/>
<path d="M65.4143 143.247C65.4143 143.247 40.7577 139.337 26.3821 140.335C28.5427 140.826 30.5554 141.824 32.254 143.247H65.4143Z" fill="#FFC100"/>
<path d="M74.5883 121.188C74.5883 121.188 112.978 127.75 135.242 101.48L177.186 112.247C177.186 112.247 169.469 128.256 111.501 126.13C53.5342 124.004 74.5883 121.188 74.5883 121.188Z" fill="#FFC100"/>
<path opacity="0.5" d="M74.5883 121.188C74.5883 121.188 112.978 127.75 135.242 101.48L177.186 112.247C177.186 112.247 169.469 128.256 111.501 126.13C53.5342 124.004 74.5883 121.188 74.5883 121.188Z" fill="white"/>
<path opacity="0.2" d="M96.5103 122.603C96.5103 122.603 119.977 121.366 133.246 106.354C134.463 106.731 135.766 106.733 136.985 106.36C138.204 105.987 139.283 105.257 140.081 104.263L170.699 112.377C170.699 112.377 167.404 113.532 168.559 117.346C168.532 117.346 128.344 133.629 96.5103 122.603Z" fill="black"/>
<path d="M131.536 46.4667L132.253 42.6591C132.253 42.6591 130.77 41.251 130.941 39.9248C131.112 38.5987 137.715 36.507 138.884 36.3908C140.053 36.2745 139.609 41.0596 139.253 41.9277C138.898 42.7959 134.933 43.8417 134.933 43.8417L134.434 47.8543L131.536 46.4667Z" fill="#EBB376"/>
<path d="M55.4062 65.1823L52.7881 62.325C52.7881 62.325 53.3008 60.3495 52.4668 59.3378C51.6328 58.3261 44.8996 59.9871 43.8606 60.5272C42.8215 61.0672 45.7062 64.8747 46.4718 65.4216C47.2374 65.9684 51.1475 64.738 51.1475 64.738L53.6904 67.8893L55.4062 65.1823Z" fill="#EBB376"/>
<path d="M107.475 59.0436C114.837 58.6334 121.509 60.1715 124.933 59.0436C128.358 57.9157 131.68 43.6699 131.68 43.6699L135.283 44.8867C135.283 44.8867 133.916 59.7135 127.996 63.685C122.076 67.6566 108.357 67.6224 108.357 67.6224L107.475 59.0436Z" fill="#FFC100"/>
<path d="M135.283 44.8867C135.283 44.8867 133.916 59.7135 127.996 63.685C124.578 65.9408 118.72 66.9047 114.27 67.3217C110.9 67.6293 108.357 67.6224 108.357 67.6224L107.947 63.6167L107.475 59.0436C114.837 58.6334 121.509 60.1715 124.933 59.0436C128.358 57.9157 131.68 43.6699 131.68 43.6699L135.283 44.8867Z" fill="white"/>
<path opacity="0.2" d="M114.269 67.3222C110.899 67.6298 108.356 67.623 108.356 67.623L107.946 63.6172C110.238 64.5077 112.372 65.7585 114.269 67.3222Z" fill="black"/>
<path d="M114.925 107.961L113.469 91.8828L86.6247 92.5117C86.6247 92.5117 83.4461 114.912 85.7565 119.028C89.858 126.376 116.941 122.206 123.271 122.828C125.855 124.195 139.677 170.043 139.677 170.043L147.422 166.919C147.422 166.919 139.096 128.235 137.168 120.948C134.564 110.818 123.818 110.996 114.925 107.961Z" fill="#263238"/>
<path d="M159.411 166.126L152.576 166.755C152.576 166.755 144.202 124.107 143.552 123.922C142.39 123.587 138.993 123.205 137.168 122.726C124.494 119.431 93.2822 113.368 93.2822 113.368L104.794 102.28C104.794 102.28 156.978 108.542 158.113 120.792C158.694 126.657 159.411 166.126 159.411 166.126Z" fill="#263238"/>
<path opacity="0.2" d="M141.715 123.957C140.546 123.622 138.98 123.212 137.169 122.733C137.675 123 136.212 116.362 134.749 114.646C131.844 111.229 120.182 109.369 116.005 108.699C112.505 108.139 100.775 107.107 100.775 107.107C100.775 107.107 121.488 105.316 137.094 109.602C144.811 111.721 143.437 119.254 141.715 123.957Z" fill="black"/>
<path d="M83.0439 62.9473C83.0439 62.9473 92.949 57.6906 107.475 59.044C107.475 59.044 112.513 71.8543 113.47 91.8557L86.4618 93.7287C86.4618 93.7287 86.9472 76.5846 83.0439 62.9473Z" fill="#FFC100"/>
<path d="M86.4618 93.7561C86.531 89.0882 86.3576 84.4199 85.9423 79.7701C85.7031 77.0358 85.3613 74.1579 84.8691 71.2254C84.4169 68.4339 83.8075 65.6701 83.0439 62.9473C83.0439 62.9473 92.949 57.6906 107.475 59.044C107.475 59.044 112.513 71.8543 113.47 91.8557L86.4618 93.7561Z" fill="white"/>
<path opacity="0.2" d="M85.9629 79.7703C85.7236 77.036 85.3818 74.1581 84.8896 71.2256C85.3693 70.7381 85.9472 70.3582 86.5849 70.1113L86.6191 69.8105C86.5986 70.1387 88.0136 75.1903 85.9629 79.7703Z" fill="black"/>
<path d="M90.5291 61.0876C93.0036 63.3365 99.0601 62.5026 99.0601 62.5026C99.0601 62.5026 102.84 61.4704 102.047 60.2878C99.8189 59.9186 98.7456 58.8796 98.2945 57.5535C98.0551 56.7261 97.9785 55.8602 98.0689 55.0037C98.0689 54.5389 98.1783 54.0604 98.2603 53.5887L90.7478 48.0449C91.7527 51.7021 92.9557 58.4353 90.5291 61.0876Z" fill="#EBB376"/>
<path opacity="0.2" d="M92.4968 51.5654C92.7976 56.0565 96.4889 57.3006 98.2936 57.5536C98.0542 56.7262 97.9776 55.8603 98.068 55.0038L92.4968 51.5654Z" fill="black"/>
<path d="M97.2484 32.6371C100.031 33.389 102.348 39.8078 100.263 44.0528C98.1781 48.2978 91.896 36.4241 91.896 36.4241C91.896 36.4241 95.4506 32.1586 97.2484 32.6371Z" fill="#263238"/>
<path d="M103.052 47.3618C103.066 47.6213 103.066 47.8815 103.052 48.141C103.004 49.9935 102.257 51.7593 100.96 53.0833C99.8014 54.2902 98.2341 55.0215 96.5648 55.134C95.3772 55.1928 94.1959 54.9282 93.1469 54.3684C89.8247 52.68 88.9292 49.7543 86.9947 44.9282C86.5129 43.8052 86.3293 42.5769 86.4617 41.3621C86.594 40.1473 87.0379 38.9873 87.7502 37.9944C88.4626 37.0015 89.4192 36.2095 90.5276 35.6949C91.6359 35.1803 92.8584 34.9607 94.0765 35.0574C99.5452 35.4607 102.628 42.5767 103.052 47.3618Z" fill="#EBB376"/>
<path d="M94.9306 43.8005C95.0331 44.2038 95.3749 44.484 95.6141 44.3678C95.8534 44.2516 95.9833 43.8825 95.8534 43.486C95.7235 43.0895 95.3954 42.8024 95.1698 42.9186C94.9442 43.0349 94.8007 43.3903 94.9306 43.8005Z" fill="#263238"/>
<path d="M99.4621 42.3106C99.5647 42.7139 99.9133 42.96 100.146 42.878C100.378 42.796 100.515 42.3927 100.385 41.9894C100.255 41.586 99.9338 41.34 99.7014 41.422C99.469 41.504 99.3391 41.9278 99.4621 42.3106Z" fill="#263238"/>
<path d="M98.0884 42.9795C98.9699 44.048 99.9933 44.9909 101.13 45.7822C100.919 46.0701 100.648 46.3081 100.335 46.4794C100.022 46.6507 99.675 46.751 99.3188 46.7733L98.0884 42.9795Z" fill="#D58745"/>
<path d="M100.509 39.8423C100.476 39.8742 100.435 39.8976 100.391 39.9107C100.347 39.9238 100.301 39.9261 100.256 39.9175C99.9566 39.8358 99.6424 39.8253 99.3385 39.8871C99.0346 39.9488 98.7494 40.081 98.5058 40.273C98.4587 40.3183 98.3955 40.3431 98.3301 40.3418C98.2647 40.3405 98.2025 40.3133 98.1572 40.2662C98.1119 40.219 98.0871 40.1558 98.0884 40.0904C98.0897 40.0251 98.1169 39.9629 98.164 39.9175C98.4677 39.6682 98.8263 39.4948 99.2102 39.4116C99.5942 39.3284 99.9924 39.3378 100.372 39.439C100.404 39.4455 100.434 39.4583 100.461 39.4767C100.488 39.495 100.511 39.5186 100.529 39.5459C100.547 39.5733 100.559 39.6039 100.565 39.636C100.571 39.6681 100.57 39.7011 100.563 39.733C100.549 39.7714 100.531 39.808 100.509 39.8423Z" fill="#263238"/>
<path d="M93.4341 42.2823C93.3878 42.2996 93.3369 42.2996 93.2906 42.2823C93.2346 42.2495 93.1938 42.1958 93.1772 42.1331C93.1605 42.0704 93.1693 42.0036 93.2017 41.9473C93.4011 41.607 93.6787 41.3191 94.0116 41.1075C94.3444 40.8959 94.7229 40.7667 95.1157 40.7306C95.148 40.7297 95.1802 40.7351 95.2104 40.7467C95.2406 40.7582 95.2683 40.7756 95.2917 40.7978C95.3152 40.82 95.3341 40.8466 95.3473 40.8761C95.3605 40.9057 95.3677 40.9375 95.3686 40.9698C95.3687 41.0346 95.344 41.0969 95.2995 41.144C95.2549 41.191 95.1941 41.2192 95.1294 41.2227C94.8199 41.2601 94.5235 41.3691 94.2636 41.5412C94.0037 41.7133 93.7876 41.9436 93.6324 42.2139C93.6059 42.2385 93.5746 42.2572 93.5404 42.269C93.5063 42.2808 93.4701 42.2853 93.4341 42.2823Z" fill="#263238"/>
<path d="M88.5934 37.5449L89.6666 39.5957C89.3759 39.9102 89.2145 40.3227 89.2145 40.7509C89.2145 41.1791 89.3759 41.5916 89.6666 41.9061C91.0337 43.4374 91.0884 46.6091 90.1314 48.2497C90.1314 48.2497 89.7965 47.491 89.2086 47.9216C88.6207 48.3523 90.357 52.3375 92.3736 53.7799C92.3736 53.7799 89.7691 52.775 87.0485 48.9401C84.5329 45.3992 83.1521 42.1659 83.3777 40.3339L88.5934 37.5449Z" fill="#263238"/>
<path d="M86.1807 49.6244C87.0905 50.56 88.3346 51.0961 89.6396 51.1146C91.3759 51.1146 91.786 49.4671 90.9247 48.0658C90.1522 46.8285 88.3134 45.2905 86.7617 45.9672C85.21 46.644 85.0733 48.4623 86.1807 49.6244Z" fill="#EBB376"/>
<path d="M99.8518 48.4892C99.5368 49.1779 99.2718 49.8884 99.0588 50.6151L98.6623 50.5673C96.8714 50.3281 96.1126 49.624 95.8255 48.913C95.6921 48.5649 95.6429 48.1901 95.6819 47.8193C95.6958 47.6063 95.7419 47.3965 95.8187 47.1973C96.8581 47.8396 98.0239 48.25 99.2365 48.4004C99.633 48.4687 99.8518 48.4892 99.8518 48.4892Z" fill="#263238"/>
<path d="M99.2445 48.4004L98.9916 49.0224C97.3032 48.79 96.1411 48.4004 95.6831 47.8193C95.697 47.6063 95.7431 47.3965 95.8198 47.1973C96.8613 47.8405 98.0296 48.2509 99.2445 48.4004Z" fill="white"/>
<path d="M98.663 50.5673C96.8721 50.3281 96.1133 49.624 95.8262 48.9131C96.5081 49.0265 97.165 49.2578 97.7675 49.5967C98.1592 49.8199 98.472 50.159 98.663 50.5673Z" fill="#DE5753"/>
<path d="M93.1668 37.9009C93.1668 37.9009 92.6883 34.6334 94.7527 35.2691C96.8171 35.9048 96.9606 34.6607 96.3454 32.1383C95.7302 29.6159 89.8104 28.7204 86.4609 32.8561C83.1114 36.9917 81.9425 40.4575 83.5625 42.2894C85.1826 44.1214 91.3553 38.7143 91.3553 38.7143C91.5236 37.7907 91.9155 36.9223 92.4969 36.1851C92.5348 36.8131 92.7691 37.4133 93.1668 37.9009Z" fill="#263238"/>
<path d="M96.3584 62.2431L99.6327 65.1347C99.6327 65.1347 101.431 77.3023 105.846 82.6205H108.581L109.121 80.7339C105.013 76.1477 102.064 70.6439 100.521 64.6835V60.8076L96.3584 62.2431Z" fill="#263238"/>
<path d="M91.3625 58.456L98.0889 60.9784L98.6631 57.5537L102.156 58.8183L103.052 63.1454L98.294 61.9696L95.9356 65.1277L89.0793 60.6913L91.3625 58.456Z" fill="#FFC100"/>
<path opacity="0.5" d="M91.3625 58.456L98.0889 60.9784L98.6631 57.5537L102.156 58.8183L103.052 63.1454L98.294 61.9696L95.9356 65.1277L89.0793 60.6913L91.3625 58.456Z" fill="white"/>
<path d="M86.0776 93.3046L113.783 90.6729L113.845 94.0361L86.0913 96.3055L86.0776 93.3046Z" fill="black"/>
<path d="M107.918 91.3634C107.793 91.2506 107.646 91.1656 107.486 91.1138C107.326 91.0619 107.156 91.0445 106.989 91.0626L104.535 91.3155C104.231 91.3463 103.951 91.4899 103.748 91.7177C103.546 91.9456 103.436 92.2412 103.441 92.546V94.1182C103.448 94.4415 103.583 94.7489 103.816 94.973C104.049 95.1972 104.362 95.32 104.685 95.3145H104.788L107.242 95.0547C107.544 95.0238 107.824 94.8801 108.026 94.652C108.227 94.424 108.335 94.1284 108.329 93.8243V92.2589C108.328 92.089 108.291 91.9214 108.22 91.767C108.149 91.6126 108.047 91.475 107.918 91.3634ZM107.201 94.4258L104.754 94.6856C104.67 94.6971 104.584 94.6909 104.503 94.6672C104.422 94.6435 104.346 94.6029 104.282 94.548C104.217 94.4932 104.165 94.4253 104.128 94.3489C104.092 94.2725 104.072 94.1892 104.07 94.1045V92.5391C104.067 92.3903 104.121 92.246 104.22 92.1346C104.318 92.0233 104.455 91.953 104.603 91.9376L107.05 91.6847H107.105C107.26 91.6846 107.41 91.7454 107.521 91.854C107.632 91.9626 107.696 92.1104 107.7 92.2657V92.4776H107.604L106.92 92.5391C106.866 92.5441 106.812 92.5597 106.764 92.5853C106.715 92.6108 106.672 92.6456 106.637 92.6879C106.601 92.7301 106.575 92.7788 106.558 92.8313C106.542 92.8838 106.536 92.939 106.541 92.9937C106.546 93.0485 106.562 93.1017 106.587 93.1504C106.613 93.1991 106.648 93.2423 106.69 93.2776C106.732 93.3128 106.781 93.3393 106.833 93.3557C106.886 93.3721 106.941 93.378 106.996 93.3731L107.679 93.3047H107.713V93.8448C107.713 93.9873 107.661 94.1248 107.566 94.2317C107.472 94.3386 107.342 94.4076 107.201 94.4258Z" fill="white"/>
<path d="M83.0434 62.9473C78.4224 65.6816 71.7507 74.6843 69.406 74.4997C67.0614 74.3151 54.4152 63.084 54.4152 63.084L51.5305 66.2079C51.5305 66.2079 63.2128 80.1597 68.6541 81.2124C74.0954 82.2651 86.0785 72.1755 86.0785 72.1755C86.7562 70.4369 86.7562 68.5071 86.0785 66.7685C85.4639 65.2243 84.4083 63.8953 83.0434 62.9473Z" fill="#FFC100"/>
<path d="M83.0434 62.9473C78.4224 65.6816 71.7507 74.6843 69.406 74.4997C67.0614 74.3151 54.4152 63.084 54.4152 63.084L51.5305 66.2079C51.5305 66.2079 63.2128 80.1597 68.6541 81.2124C74.0954 82.2651 86.0785 72.1755 86.0785 72.1755C86.7562 70.4369 86.7562 68.5071 86.0785 66.7685C85.4639 65.2243 84.4083 63.8953 83.0434 62.9473Z" fill="white"/>
<path d="M125.344 126.493C125.344 126.493 33.6012 127.129 27.907 114.243L68.7643 111.276C76.8728 114.678 85.1717 117.606 93.6192 120.047C103.053 122.801 114.236 125.413 125.344 126.493Z" fill="#FFC100"/>
<path opacity="0.2" d="M125.343 126.493C125.343 126.493 122.465 126.493 117.68 126.493C98.0546 125.126 75.1411 115.378 75.1411 115.378C66.8699 117.196 61.1825 113.935 61.1825 113.935L38.8842 115.214C39.0043 115.763 38.9991 116.332 38.8689 116.879C38.7387 117.425 38.4869 117.936 38.1323 118.372C49.6916 121.619 62.1532 123.594 72.3111 124.791C50.8537 123.184 30.4899 120.122 27.8787 114.264L68.736 111.297C68.736 111.297 97.2753 123.758 125.343 126.493Z" fill="white"/>
<path opacity="0.2" d="M125.344 126.493C125.344 126.493 33.6012 127.129 27.907 114.243C27.907 114.243 58.9072 127.634 93.6192 120.047C103.053 122.802 114.236 125.413 125.344 126.493Z" fill="black"/>
</g>
</g>
<defs>
<clipPath id="clip0_512_35244">
<rect width="210" height="140" fill="white"/>
</clipPath>
</defs>
</svg>
