<svg width="200" height="200" viewBox="0 0 200 200" fill="none" xmlns="http://www.w3.org/2000/svg">
<g clip-path="url(#clip0_666_27417)">
<path fill-rule="evenodd" clip-rule="evenodd" d="M96.6489 40.0786C72.5164 41.5624 60.8087 65.3973 46.0572 82.1754C34.101 95.7741 23.0389 109.409 20.7142 126.445C18.0291 146.122 16.4425 168.605 32.3369 182.721C48.2827 196.882 74.0361 195.809 96.6489 193.883C119.863 194.322 138.62 187.342 149.552 172.737C165.068 160.174 178.921 144.922 179.935 126.445C180.989 107.244 169.055 90.1752 154.888 75.4837C139.04 59.05 121.162 38.5713 96.6489 40.0786Z" fill="#FFF3CC"/>
<path fill-rule="evenodd" clip-rule="evenodd" d="M96.6489 40.0786C72.5164 41.5624 60.8087 65.3973 46.0572 82.1754C34.101 95.7741 23.0389 109.409 20.7142 126.445C18.0291 146.122 16.4425 168.605 32.3369 182.721C48.2827 196.882 74.0361 195.809 96.6489 193.883C119.863 194.322 138.62 187.342 149.552 172.737C165.068 160.174 178.921 144.922 179.935 126.445C180.989 107.244 169.055 90.1752 154.888 75.4837C139.04 59.05 121.162 38.5713 96.6489 40.0786Z" fill="#FFF3CC"/>
<path d="M24.0725 109.064V75.6016C25.4554 75.6016 26.8247 75.8739 28.1024 76.4031C29.38 76.9323 30.5408 77.708 31.5187 78.6859C32.4965 79.6637 33.2722 80.8246 33.8014 82.1022C34.3306 83.3798 34.603 84.7492 34.603 86.132V98.5339C34.603 99.9168 34.3306 101.286 33.8014 102.564C33.2722 103.841 32.4965 105.002 31.5187 105.98C30.5408 106.958 29.38 107.734 28.1024 108.263C26.8247 108.792 25.4554 109.064 24.0725 109.064Z" fill="#A5A5A5"/>
<path d="M56.1134 147.617H30.847C25.2195 147.617 22.1274 143.593 22.1274 136.215L22 86.1113H24.0122L24.1262 136.202C24.1262 142.439 26.3866 145.592 30.8335 145.592H56.1L56.1134 147.617Z" fill="#263238"/>
<path d="M72.2379 145.941H36.1525C30.7867 145.941 26.4604 142.882 26.4604 139.106C26.4604 135.33 30.8001 132.271 36.1525 132.271H72.2379C77.6038 132.271 81.93 135.33 81.93 139.106C81.93 142.882 77.5903 145.941 72.2379 145.941Z" fill="#A5A5A5"/>
<path d="M24.0725 109.064V75.6016C25.4554 75.6016 26.8247 75.8739 28.1024 76.4031C29.38 76.9323 30.5408 77.708 31.5187 78.6859C32.4965 79.6637 33.2722 80.8246 33.8014 82.1022C34.3306 83.3798 34.603 84.7492 34.603 86.132V98.5339C34.603 99.9168 34.3306 101.286 33.8014 102.564C33.2722 103.841 32.4965 105.002 31.5187 105.98C30.5408 106.958 29.38 107.734 28.1024 108.263C26.8247 108.792 25.4554 109.064 24.0725 109.064Z" fill="#A5A5A5"/>
<path d="M72.2379 145.941H36.1525C30.7867 145.941 26.4604 142.882 26.4604 139.106C26.4604 135.33 30.8001 132.271 36.1525 132.271H72.2379C77.6038 132.271 81.93 135.33 81.93 139.106C81.93 142.882 77.5903 145.941 72.2379 145.941Z" fill="#A5A5A5"/>
<path d="M56.2207 146.611H50.4524V167.236H56.2207V146.611Z" fill="#263238"/>
<path d="M29.606 173.769L50.4523 167.236H56.2273L78.5358 173.769V175.681H29.606V173.769Z" fill="#263238"/>
<path d="M34.2275 175.682H29.6062V180.303H34.2275V175.682Z" fill="#263238"/>
<path d="M32.0274 187.841C33.9796 187.841 35.5622 186.258 35.5622 184.306C35.5622 182.354 33.9796 180.771 32.0274 180.771C30.0752 180.771 28.4927 182.354 28.4927 184.306C28.4927 186.258 30.0752 187.841 32.0274 187.841Z" fill="#263238"/>
<path d="M78.375 175.682H73.7537V180.303H78.375V175.682Z" fill="#263238"/>
<path d="M76.1749 187.841C78.1271 187.841 79.7096 186.258 79.7096 184.306C79.7096 182.354 78.1271 180.771 76.1749 180.771C74.2227 180.771 72.6401 182.354 72.6401 184.306C72.6401 186.258 74.2227 187.841 76.1749 187.841Z" fill="#263238"/>
<path d="M59.2055 105.717H50.9756L36.4744 190.189H40.1366L59.2055 105.717Z" fill="#263238"/>
<path opacity="0.1" d="M59.2055 105.717H50.9756L36.4744 190.189H40.1366L59.2055 105.717Z" fill="white"/>
<path d="M109 106H117.327L132 183H128.294L109 106Z" fill="#263238"/>
<path opacity="0.1" d="M109 106H117.327L132 183H128.294L109 106Z" fill="white"/>
<path d="M122.006 99.1777H46.9377V112.089H122.006V99.1777Z" fill="#263238"/>
<path opacity="0.2" d="M122.006 99.1777H46.9377V112.089H122.006V99.1777Z" fill="white"/>
<path d="M124.126 99.1788H43.4633C42.9818 99.1796 42.5049 99.0856 42.0598 98.9019C41.6147 98.7183 41.2102 98.4487 40.8694 98.1085C40.5287 97.7683 40.2583 97.3643 40.0738 96.9196C39.8894 96.4748 39.7944 95.9981 39.7944 95.5166C39.7944 95.0348 39.8893 94.5577 40.0737 94.1125C40.2581 93.6674 40.5283 93.2629 40.869 92.9222C41.2097 92.5816 41.6142 92.3113 42.0593 92.1269C42.5044 91.9426 42.9815 91.8477 43.4633 91.8477H124.126C124.607 91.8477 125.084 91.9426 125.529 92.1271C125.973 92.3115 126.377 92.5819 126.717 92.9227C127.058 93.2634 127.327 93.6679 127.511 94.113C127.695 94.5581 127.789 95.0351 127.788 95.5166C127.789 95.9977 127.694 96.4743 127.511 96.9191C127.327 97.3638 127.057 97.7679 126.717 98.1081C126.377 98.4483 125.973 98.7181 125.528 98.9018C125.083 99.0855 124.607 99.1796 124.126 99.1788Z" fill="#A5A5A5"/>
<path opacity="0.3" d="M124.126 99.1788H43.4633C42.9818 99.1796 42.5049 99.0856 42.0598 98.9019C41.6147 98.7183 41.2102 98.4487 40.8694 98.1085C40.5287 97.7683 40.2583 97.3643 40.0738 96.9196C39.8894 96.4748 39.7944 95.9981 39.7944 95.5166C39.7944 95.0348 39.8893 94.5577 40.0737 94.1125C40.2581 93.6674 40.5283 93.2629 40.869 92.9222C41.2097 92.5816 41.6142 92.3113 42.0593 92.1269C42.5044 91.9426 42.9815 91.8477 43.4633 91.8477H124.126C124.607 91.8477 125.084 91.9426 125.529 92.1271C125.973 92.3115 126.377 92.5819 126.717 92.9227C127.058 93.2634 127.327 93.6679 127.511 94.113C127.695 94.5581 127.789 95.0351 127.788 95.5166C127.789 95.9977 127.694 96.4743 127.511 96.9191C127.327 97.3638 127.057 97.7679 126.717 98.1081C126.377 98.4483 125.973 98.7181 125.528 98.9018C125.083 99.0855 124.607 99.1796 124.126 99.1788Z" fill="black"/>
<path d="M55.3891 91.4512H92.2458V82.289H55.3891V91.4512Z" fill="#A5A5A5"/>
<path opacity="0.6" d="M55.51 91.4863H92.3667V82.3241H55.51V91.4863Z" fill="white"/>
<path opacity="0.6" d="M55.3892 91.4863H83.6807V82.3241H55.3892V91.4863Z" fill="white"/>
<path d="M55.5704 90.2839L92.246 91.4242L92.2058 90.4918L55.5503 90.0156L55.5704 90.2839Z" fill="#A5A5A5"/>
<path d="M92.246 86.0455L55.624 83.9863V84.2949L92.246 86.743V86.0455Z" fill="#A5A5A5"/>
<path d="M92.246 83.2832L55.624 84.1216V84.4235L92.246 83.9808V83.2832Z" fill="#A5A5A5"/>
<path d="M92.3533 87.8506L55.7246 89.6347V89.3664L92.3533 87.2402V87.8506Z" fill="#A5A5A5"/>
<path d="M55.4832 82.4102L92.1051 82.437V82.7388H55.4832V82.4102Z" fill="#A5A5A5"/>
<path d="M58.0386 64.1602H94.8953V54.998L58.0386 54.998V64.1602Z" fill="#A5A5A5"/>
<path opacity="0.6" d="M58.1526 64.1992H95.0093V55.037L58.1526 55.037V64.1992Z" fill="white"/>
<path opacity="0.6" d="M58.0318 64.1992H86.3232V55.037H58.0318V64.1992Z" fill="white"/>
<path d="M58.213 62.9929L94.8953 64.1331L94.8484 63.2008L58.1929 62.7246L58.213 62.9929Z" fill="#A5A5A5"/>
<path d="M94.8954 58.7545L58.2734 56.6953V57.0038L94.8954 59.452V58.7545Z" fill="#A5A5A5"/>
<path d="M94.8954 55.9844L58.2734 56.8228V57.1246L94.8954 56.6819V55.9844Z" fill="#A5A5A5"/>
<path d="M94.9959 60.5518L58.3672 62.3359V62.0676L94.9959 59.9414V60.5518Z" fill="#A5A5A5"/>
<path d="M57.5757 82.1621H94.4324V72.9999H57.5757V82.1621Z" fill="#A5A5A5"/>
<path opacity="0.6" d="M57.6965 82.2031H94.5532V73.0409H57.6965V82.2031Z" fill="white"/>
<path opacity="0.6" d="M85.9477 73.0332H57.6562V82.1954H85.9477V73.0332Z" fill="white"/>
<path d="M94.2714 80.7266L57.6159 81.2028L57.5757 82.1351L94.2513 80.9949L94.2714 80.7266Z" fill="#A5A5A5"/>
<path d="M57.8105 73.1133L94.4325 73.1468V73.4486H57.8105V73.1133Z" fill="#A5A5A5"/>
<path d="M57.5757 77.454L94.1976 75.0058V74.6973L57.5757 76.7564V77.454Z" fill="#A5A5A5"/>
<path d="M94.4325 73.9863L57.8105 74.8247V75.1266L94.4325 74.6839V73.9863Z" fill="#A5A5A5"/>
<path d="M94.5398 78.5537L57.9111 80.3446V80.0696L94.5398 77.9434V78.5537Z" fill="#A5A5A5"/>
<path d="M93.1582 64.3535L56.3149 64.5413L56.2612 73.5224H93.1582V64.3535Z" fill="#A5A5A5"/>
<path opacity="0.6" d="M56.3015 73.5234H93.1582V64.3612H56.3015V73.5234Z" fill="white"/>
<path opacity="0.6" d="M84.5527 64.3535H56.2612V73.5157H84.5527V64.3535Z" fill="white"/>
<path d="M85.6595 64.543H56.3149V65.4753H85.029L85.6595 64.543Z" fill="#A5A5A5"/>
<path d="M92.9436 68.2988L56.3149 68.6409V68.9092H92.9436V68.2988Z" fill="#A5A5A5"/>
<path d="M56.3149 72.5381L92.9436 70.7539V71.0222L56.3149 73.1484V72.5381Z" fill="#A5A5A5"/>
<path d="M56.3147 69.0898L92.9434 69.8209V70.0825L56.3147 69.7002V69.0898Z" fill="#A5A5A5"/>
<path d="M102.568 44.4199H65.9465V49.0346H102.568V44.4199Z" fill="#A5A5A5"/>
<path opacity="0.6" d="M102.568 44.4199H65.9465V49.0346H102.568V44.4199Z" fill="white"/>
<path opacity="0.6" d="M95.1301 44.4199H65.9465V49.0346H95.1301V44.4199Z" fill="white"/>
<path d="M102.589 47.6934L65.9666 47.8745V48.0086H102.589V47.6934Z" fill="#A5A5A5"/>
<path d="M65.9666 45.9694L102.589 45.0371V45.178L65.9666 46.2847V45.9694Z" fill="#A5A5A5"/>
<path d="M65.8459 45.7148L102.468 46.0905V46.2313L65.8459 46.0301V45.7148Z" fill="#A5A5A5"/>
<path d="M97.4442 42.3887H60.8223V44.6155H97.4442V42.3887Z" fill="#A5A5A5"/>
<path opacity="0.6" d="M97.4442 42.4082H60.8223V44.6149H97.4442V42.4082Z" fill="white"/>
<path opacity="0.6" d="M90.0058 42.2676H60.8223V44.6084H90.0058V42.2676Z" fill="white"/>
<path d="M60.8423 44.0847L97.4575 43.1523V43.2932L60.8423 44.3999V44.0847Z" fill="#A5A5A5"/>
<path d="M60.8423 42.9648L97.4575 43.3405V43.4813L60.8423 43.2801V42.9648Z" fill="#A5A5A5"/>
<path d="M100.851 40.1211H64.2295V42.3479H100.851V40.1211Z" fill="#A5A5A5"/>
<path opacity="0.6" d="M100.851 40.1348H64.2295V42.3415H100.851V40.1348Z" fill="white"/>
<path opacity="0.6" d="M93.413 40H64.2295V42.3409H93.413V40Z" fill="white"/>
<path d="M64.2494 41.1211L100.885 41.5705L100.878 41.7113L64.2427 41.4363L64.2494 41.1211Z" fill="#A5A5A5"/>
<path d="M64.2495 40.6973L100.871 41.0729V41.2137L64.2495 41.0125V40.6973Z" fill="#A5A5A5"/>
<path d="M100.087 49.0352H63.4648V54.9778H100.087V49.0352Z" fill="#A5A5A5"/>
<path opacity="0.6" d="M100.087 49.0352H63.4648V54.9778H100.087V49.0352Z" fill="white"/>
<path opacity="0.6" d="M91.7228 49.0352H63.4648V54.9778H91.7228V49.0352Z" fill="white"/>
<path d="M99.8588 50.8865L63.2368 50.6786V50.5176H99.8588V50.8865Z" fill="#A5A5A5"/>
<path d="M63.4849 51.745L100.107 52.8182V52.6572L63.4849 51.3828V51.745Z" fill="#A5A5A5"/>
<path d="M100.107 49.041H65.564L66.3286 49.7721H100.107V49.041Z" fill="#A5A5A5"/>
<path d="M63.6123 54.0579L100.234 53.6152V53.4609L63.6123 53.689V54.0579Z" fill="#A5A5A5"/>
<path d="M107.94 44.8647L107.07 44.8164C102.876 44.5763 98.7456 45.9237 95.4999 48.5907C92.2541 51.2577 90.1313 55.0488 89.5536 59.2099C88.4427 67.2599 89.7307 68.6774 89.5536 73.0002C89.1431 81.968 97.816 88.5002 97.816 88.5002L95.2933 94.952C95.1675 96.3825 95.3256 97.8237 95.7585 99.1929C96.1915 100.562 96.8907 101.832 97.816 102.93C98.7413 104.029 99.8745 104.933 101.151 105.592C102.426 106.251 103.82 106.651 105.251 106.769C108.103 106.998 110.93 106.096 113.123 104.259C115.316 102.422 116.698 99.796 116.972 96.9484L120.192 63.6937C121.496 54.4362 117.23 45.9515 107.94 44.8647Z" fill="#FFBF9D"/>
<path d="M98 88.5007C102.149 88.7417 106.371 87.6491 110 85.6777C110 85.6777 105.881 91.7827 97 90.5007L98 88.5007Z" fill="#FF9A6C"/>
<path d="M104.004 68.3284C103.975 68.7349 104.102 69.1368 104.357 69.447C104.613 69.7572 104.976 69.9508 105.368 69.9858C105.559 70.0133 105.753 70.0008 105.939 69.9492C106.125 69.8975 106.299 69.8078 106.451 69.6852C106.603 69.5627 106.729 69.4099 106.823 69.2358C106.917 69.0617 106.976 68.8698 106.997 68.6716C107.021 68.2663 106.892 67.8672 106.638 67.5581C106.384 67.249 106.023 67.054 105.633 67.0142C105.442 66.9867 105.248 66.9992 105.062 67.0509C104.876 67.1025 104.702 67.1922 104.55 67.3148C104.398 67.4373 104.272 67.5901 104.178 67.7642C104.084 67.9383 104.025 68.1302 104.004 68.3284Z" fill="#263238"/>
<path d="M91.212 63.701C91.3649 63.8781 92.3712 63.21 93.7477 63.2985C95.1243 63.3871 96.0984 64.1035 96.2513 63.9667C96.4043 63.8298 96.1869 63.5883 95.7683 63.2422C95.1958 62.793 94.4986 62.5316 93.7719 62.4935C93.0568 62.4539 92.3472 62.6397 91.7433 63.0248C91.3166 63.3227 91.1556 63.6125 91.212 63.701Z" fill="#263238"/>
<path d="M92.0028 68.3284C91.9789 68.7337 92.1076 69.1328 92.3621 69.4419C92.6165 69.751 92.9767 69.946 93.3671 69.9858C93.5579 70.0133 93.752 70.0008 93.938 69.9491C94.1241 69.8975 94.2982 69.8078 94.4501 69.6852C94.6021 69.5627 94.7287 69.4099 94.8226 69.2358C94.9165 69.0617 94.9756 68.8698 94.9966 68.6716C95.023 68.2657 94.8951 67.8652 94.6402 67.5556C94.3854 67.2459 94.0237 67.0516 93.6323 67.0142C93.4416 66.9867 93.2474 66.9992 93.0614 67.0509C92.8754 67.1025 92.7012 67.1922 92.5493 67.3148C92.3974 67.4373 92.2707 67.5901 92.1769 67.7642C92.083 67.9383 92.0238 68.1302 92.0028 68.3284Z" fill="#263238"/>
<path d="M104.744 64.7316C104.889 64.9087 105.903 64.2486 107.28 64.3291C108.656 64.4096 109.622 65.1341 109.783 64.9973C109.944 64.8604 109.719 64.6189 109.292 64.2728C108.724 63.8278 108.033 63.5691 107.312 63.5322C106.596 63.4864 105.885 63.6727 105.283 64.0635C104.833 64.3613 104.672 64.6511 104.744 64.7316Z" fill="#263238"/>
<path d="M99.1652 74.6567C98.4536 74.3823 97.7095 74.201 96.9514 74.1173C96.5972 74.061 96.2752 73.9724 96.2269 73.7309C96.2149 73.3658 96.3162 73.0059 96.5167 72.7005C96.9031 71.8955 97.3217 71.002 97.7162 70.0843C99.3745 66.3571 100.598 63.29 100.453 63.2256C100.308 63.1612 98.8432 66.1237 97.1688 69.8508C96.7663 70.7685 96.3638 71.646 96.0176 72.4832C95.7753 72.8956 95.6816 73.3786 95.752 73.8517C95.7956 73.9799 95.8685 74.0961 95.9649 74.1911C96.0613 74.2862 96.1786 74.3574 96.3074 74.3991C96.497 74.4654 96.6947 74.506 96.8951 74.5198C97.6438 74.6547 98.4057 74.7006 99.1652 74.6567Z" fill="#263238"/>
<path d="M104.641 60.4005C104.761 60.7788 106.146 60.6822 107.748 60.972C109.35 61.2618 110.63 61.777 110.863 61.447C110.968 61.294 110.759 60.9318 110.26 60.5373C109.582 60.0516 108.803 59.7266 107.982 59.5871C107.16 59.4476 106.318 59.4973 105.518 59.7323C104.914 59.9416 104.592 60.2153 104.641 60.4005Z" fill="#263238"/>
<path d="M91.9137 60.827C92.1311 61.149 93.0971 60.8833 94.2402 60.9316C95.3833 60.9799 96.3332 61.2617 96.5747 60.9316C96.6793 60.7787 96.5747 60.4567 96.148 60.1266C95.6025 59.7358 94.9513 59.5197 94.2804 59.5068C93.608 59.4784 92.9436 59.6614 92.3806 60.03C91.962 60.352 91.8091 60.666 91.9137 60.827Z" fill="#263238"/>
<path d="M90.6564 55.1525C90.6564 55.1525 93.337 49.6784 96.1223 48.5192C99.4872 47.1266 100.687 50.8054 103.858 50.1292C107.03 49.453 110.242 48.1006 113.293 50.6927C116.626 53.5344 114.903 55.2974 114.903 59.2821C114.855 75.4385 117.535 80.1639 118.807 72.629C118.944 71.824 121.295 71.2686 121.834 67.799C122.543 63.2749 123.034 57.7526 122.204 54.4602C121.504 51.6909 120.063 49.7187 117.374 47.4808C113.164 43.9549 107.135 43.5363 103.005 43.7134C98.8754 43.8905 90.6805 48.1006 90.6564 55.1525Z" fill="#263238"/>
<path d="M118.22 72.3236C118.247 71.9929 118.342 71.6713 118.499 71.3788C118.655 71.0864 118.871 70.8295 119.131 70.624C119.392 70.4185 119.692 70.269 120.013 70.1847C120.334 70.1004 120.669 70.0831 120.997 70.134C122.655 70.3916 124.458 71.4462 124.153 74.8916C123.605 81.0016 117.584 79.1903 117.584 79.0132C117.584 78.8361 117.97 74.8835 118.22 72.3236Z" fill="#FFBF9D"/>
<path d="M119.105 76.8303C119.105 76.8303 119.202 76.9188 119.379 77.0154C119.626 77.1475 119.914 77.1793 120.184 77.104C120.844 76.9269 121.48 75.9448 121.609 74.85C121.673 74.3266 121.617 73.7955 121.448 73.2963C121.408 73.1011 121.321 72.9186 121.195 72.7643C121.068 72.6101 120.907 72.4888 120.723 72.4108C120.604 72.3686 120.474 72.3688 120.356 72.4113C120.237 72.4538 120.136 72.5361 120.071 72.6443C119.967 72.8053 119.999 72.934 119.967 72.9421C119.934 72.9501 119.846 72.8294 119.918 72.5798C119.964 72.4305 120.061 72.3022 120.192 72.2176C120.372 72.1045 120.589 72.0669 120.796 72.1129C121.041 72.1861 121.264 72.3205 121.443 72.5036C121.621 72.6868 121.751 72.9125 121.818 73.1595C122.031 73.7126 122.106 74.3096 122.035 74.8983C121.882 76.1299 121.15 77.2247 120.248 77.4018C120.08 77.4353 119.907 77.4302 119.741 77.387C119.575 77.3438 119.421 77.2635 119.29 77.1523C119.105 76.9832 119.081 76.8464 119.105 76.8303Z" fill="#FF9A6C"/>
<path d="M89.3524 48.5191C90.2943 47.8107 91.5903 47.7141 92.5241 46.9977C96.6835 43.8042 103.387 37.7091 109.111 40.8959C111.289 42.1085 114.038 42.2125 115.982 43.6006C116.547 44.0475 117.013 44.608 117.348 45.2458C117.684 45.8835 117.882 46.5845 117.93 47.3036C117.93 47.3036 118.566 46.9816 120.498 48.5111C121.73 49.4851 122.736 51.5862 123.187 53.0835C123.855 55.3294 122.881 57.6962 121.923 59.8294C121.408 60.9806 120.764 62.2444 119.564 62.655C118.107 63.146 116.497 62.0029 115.926 60.57C115.354 59.1371 114.452 57.6962 113.76 56.3196C112.553 53.9046 111.345 51.6989 112.335 50.1694C109.07 49.1089 106.906 51.0056 104.003 52.0289C102.783 52.4594 97.8575 53.276 96.4995 52.9513C96.0607 52.8464 95.6512 52.6439 95.3014 52.359C94.7484 53.2599 93.8762 53.9194 92.8587 54.2059C91.8411 54.4923 90.753 54.3848 89.8112 53.9046C87.9919 52.7776 87.6699 49.791 89.3524 48.5191Z" fill="#263238"/>
<path d="M122.535 58.3875C122.252 58.8294 122.015 59.2987 121.826 59.7882C121.606 60.2826 121.258 60.7102 120.82 61.0279C120.234 61.3278 119.559 61.405 118.92 61.2452C118.256 61.1164 117.629 60.8414 117.085 60.4402C116.646 60.0994 116.246 59.7106 115.893 59.281C115.585 58.8596 115.243 58.4638 114.871 58.0977C115.067 58.5852 115.339 59.0388 115.676 59.442C116.013 59.9161 116.414 60.3413 116.867 60.7059C117.449 61.1447 118.124 61.4424 118.84 61.5753C119.565 61.7551 120.332 61.6484 120.981 61.2774C121.466 60.9224 121.835 60.4324 122.044 59.8687C122.268 59.397 122.433 58.8995 122.535 58.3875Z" fill="#B9B8B6"/>
<path d="M122.301 63.1146C121.933 63.394 121.526 63.619 121.094 63.7828C120.623 63.9318 120.126 63.9757 119.636 63.9116C119.036 63.8203 118.462 63.6007 117.954 63.2676C117.031 62.6266 116.248 61.805 115.652 60.8526C115.424 60.4394 115.154 60.0509 114.847 59.6934C114.988 60.1539 115.197 60.5907 115.467 60.9894C116.014 62.0378 116.806 62.9383 117.777 63.6137C118.33 63.9795 118.962 64.2085 119.62 64.2819C120.167 64.342 120.72 64.2674 121.23 64.0645C122.051 63.6701 122.341 63.1227 122.301 63.1146Z" fill="#B9B8B6"/>
<path d="M103.297 79.6289C103.503 79.9662 103.618 80.3164 103.638 80.6697C103.663 80.8368 103.617 81.0047 103.503 81.1618C103.389 81.319 103.211 81.4618 102.98 81.5804C102.74 81.7262 102.441 81.8432 102.104 81.9233C101.766 82.0034 101.398 82.0446 101.027 82.0439C100.356 82.0432 99.7074 81.92 99.1981 81.6964C98.6888 81.4729 98.3518 81.1636 98.2479 80.8242L98.0098 80.0558C99.3991 79.8525 103.194 79.6818 103.297 79.6289Z" fill="#FF9A6C"/>
<path d="M99.0522 81.1252C99.0522 81.1252 99.2472 81.1252 99.5693 81.1411C100.021 81.163 100.482 81.163 100.934 81.1411C101.587 81.1089 102.177 81.0007 102.587 80.8381C103.075 80.6348 103.307 80.3822 103.239 80.1285C103.22 79.9858 103.101 79.8462 102.892 79.7193L103.095 79.7485C101.646 79.8176 100.374 79.8734 99.476 79.9053C98.9928 79.9336 98.5011 79.9452 98.0098 79.9399C98.4676 79.884 98.9459 79.8465 99.4336 79.8282C100.332 79.7751 101.586 79.7033 103.036 79.6289H103.171L103.231 79.6661C103.556 79.8636 103.694 80.086 103.629 80.3073C103.565 80.5286 103.3 80.7395 102.866 80.9152C102.39 81.0951 101.709 81.2096 100.968 81.2341C100.486 81.2474 100.001 81.233 99.5354 81.1916C99.361 81.1806 99.1962 81.1579 99.0522 81.1252Z" fill="#263238"/>
<path d="M139.512 106.576C140.043 106.576 147.626 109.603 149.623 117.041C151.619 124.479 157.069 151.769 157.069 151.769L162.857 159.787C162.857 159.787 160.981 174.414 150.347 171.628C150.347 171.628 143.247 172.868 140.985 165.671C138.723 158.475 134.336 137.005 134.336 137.005L139.512 106.576Z" fill="#FFD000"/>
<path d="M117.853 94L121.88 100.196L140 106.752L134.814 160.234V185.5C115.5 197.5 77.2791 196.215 74.5409 195C73.1154 194.959 71.3195 191.408 71.0859 189.425C70.8846 187.645 71.038 185.841 71.5369 184.123L74.5409 173.403C74.0979 180.074 76.063 133.607 76.1516 131.911L71.7624 108.006L92.3795 99.5154L95.6009 94.5081L104.879 101.687L117.853 94Z" fill="#FFD000"/>
<path d="M71.3363 107.84C71.3363 107.84 67.1905 111.478 66.5063 114.28C65.822 117.081 50.9134 149.354 50.9134 149.354L43.5074 151.35L41.5271 155.456C40.3704 157.81 40.0591 160.49 40.6454 163.047C41.2318 165.603 42.6801 167.88 44.7471 169.495C45.0045 169.69 45.2733 169.871 45.5521 170.034C49.5771 172.449 56.7416 172.321 60.9357 167.378C64.9043 162.693 76.5205 145.852 76.5205 145.852V125.244L71.3363 107.84Z" fill="#FFD000"/>
<path d="M47.0495 152.59L36.3993 146.303L31.2634 152.59L32.326 155.633L46.0594 165.848C47.7643 164.457 48.9081 162.495 49.2794 160.326C49.8831 156.486 47.0495 152.59 47.0495 152.59Z" fill="#FFBF9D"/>
<path d="M50.4305 149.337C50.4305 149.442 51.3402 149.337 52.6765 149.788C54.4033 150.385 55.9323 151.446 57.0959 152.855C58.2458 154.295 59.1937 155.885 59.9134 157.581C60.1847 158.307 60.5215 159.008 60.9197 159.674C60.8123 158.901 60.5955 158.147 60.2757 157.436C59.6431 155.646 58.7093 153.977 57.5145 152.501C56.2929 151.009 54.6394 149.932 52.7811 149.418C52.0213 149.167 51.2057 149.139 50.4305 149.337Z" fill="#263238"/>
<path d="M36.5764 149.789C36.8418 148.399 36.7467 146.964 36.3 145.621C35.8532 144.277 35.0698 143.071 34.0245 142.117C31.5099 140.049 28.6664 138.416 25.6122 137.287C23.7446 136.482 19.8564 133.206 19.1722 133.995C18.4879 134.784 18.182 135.959 19.1722 137.392C20.1623 138.825 25.7893 140.958 25.0004 142.769C24.6784 143.502 22.9074 143.639 22.9074 143.639C19.6927 143.865 16.4686 143.929 13.2474 143.832C10.3977 143.582 7.83777 144.13 7.99072 145.112C8.14367 146.094 8.67497 146.633 11.0336 146.834C13.3923 147.036 17.2321 146.883 17.4736 147.422C17.7151 147.961 16.8779 148.308 15.5014 148.227C14.1248 148.147 7.63652 148.122 7.19377 148.863C7.0861 149.051 7.02143 149.261 7.00446 149.477C6.98749 149.692 7.01864 149.91 7.09563 150.112C7.17262 150.314 7.29354 150.497 7.44971 150.648C7.60588 150.798 7.79341 150.911 7.99878 150.98L9.52022 151.52C9.52022 151.52 8.63472 152.751 9.37532 153.435C10.1159 154.12 11.7903 153.878 11.7903 153.878L20.3958 153.637C20.3958 153.637 20.8869 154.152 20.6454 154.506C20.4039 154.86 13.6579 154.369 13.6096 155.11C13.5613 155.85 12.9737 156.189 14.9862 156.72C17.9336 157.211 20.9421 157.211 23.8895 156.72C25.7088 156.221 33.3322 155.915 33.3322 155.915L36.5764 149.789Z" fill="#FFBF9D"/>
<path d="M153.535 153.709L163.493 145.449L169.208 151.889L168.508 155.037L156.063 166.758C154.218 165.7 152.826 164.001 152.15 161.984C150.911 158.434 153.535 153.709 153.535 153.709Z" fill="#FFBF9D"/>
<path d="M163.606 149.747C163.178 148.399 163.101 146.964 163.382 145.578C163.664 144.192 164.295 142.9 165.216 141.826C167.481 139.475 170.13 137.526 173.048 136.062C174.803 135.008 178.281 131.337 179.062 132.037C179.525 132.455 179.82 133.026 179.893 133.646C179.965 134.265 179.81 134.889 179.456 135.402C178.651 136.94 174.771 138.727 174.908 140.699C174.922 140.89 174.974 141.076 175.06 141.247C175.146 141.418 175.265 141.57 175.41 141.695C175.555 141.82 175.724 141.915 175.905 141.975C176.087 142.034 176.279 142.058 176.47 142.044C179.682 141.896 182.884 141.587 186.065 141.118C188.875 140.538 191.475 140.78 191.443 141.77C191.411 142.76 190.936 143.38 188.617 143.839C186.299 144.298 182.467 144.644 182.338 145.167C182.209 145.69 183.022 145.972 184.383 145.722C185.743 145.473 192.183 144.708 192.707 145.392C192.836 145.564 192.926 145.763 192.97 145.974C193.013 146.185 193.01 146.403 192.959 146.613C192.908 146.822 192.811 147.018 192.676 147.185C192.54 147.353 192.369 147.488 192.175 147.582L190.726 148.298C190.726 148.298 191.749 149.417 191.097 150.182C190.445 150.947 188.754 150.907 188.754 150.907L180.173 151.663C180.173 151.663 179.746 152.235 180.036 152.557C180.326 152.879 186.951 151.607 187.088 152.34C187.225 153.072 187.852 153.338 185.904 154.062C183.03 154.895 180.038 155.246 177.049 155.101C175.182 154.819 167.566 155.366 167.566 155.366L163.606 149.747Z" fill="#FFBF9D"/>
<path d="M92.4597 101.006C92.9982 101.678 93.5964 102.301 94.2468 102.865C95.3819 103.976 96.9355 105.53 98.5777 107.301C98.9239 107.679 99.27 108.05 99.592 108.412L99.8094 108.645L100.011 108.396C101.283 106.786 102.385 105.305 103.158 104.25C103.612 103.714 103.999 103.125 104.309 102.495C103.775 102.952 103.294 103.468 102.876 104.033C102.031 105.031 100.872 106.448 99.584 108.058H99.9945L98.9883 106.939C97.5736 105.41 96.0796 103.956 94.5125 102.584C93.8949 101.976 93.2056 101.446 92.4597 101.006Z" fill="#263238"/>
<path d="M138.377 120.502C138.229 120.857 138.129 121.231 138.079 121.613C137.926 122.337 137.733 123.392 137.524 124.696C137.105 127.304 136.662 130.927 136.292 134.936C135.922 138.945 135.648 142.583 135.439 145.216C135.358 146.439 135.278 147.478 135.221 148.331C135.171 148.713 135.171 149.1 135.221 149.482C135.336 149.115 135.412 148.738 135.447 148.355C135.559 147.622 135.696 146.56 135.841 145.248C136.147 142.631 136.485 139.001 136.856 134.992C137.226 130.983 137.588 127.369 137.902 124.793C138.055 123.577 138.184 122.539 138.288 121.693C138.372 121.302 138.401 120.901 138.377 120.502Z" fill="#263238"/>
<path d="M75.3936 118.676C75.2787 119.132 75.2112 119.599 75.1924 120.068C75.1038 120.978 75.0072 122.282 74.9267 123.908C74.7416 127.128 74.653 131.636 74.6369 136.579V153.09C74.6111 153.56 74.6299 154.032 74.6933 154.498C74.7976 154.039 74.8489 153.569 74.8462 153.098C74.9106 152.188 74.975 150.876 75.0233 149.258C75.136 146.038 75.1763 141.53 75.1843 136.587C75.1924 131.644 75.2326 127.161 75.3131 123.924C75.3534 122.387 75.3856 121.099 75.4097 120.085C75.4479 119.615 75.4425 119.144 75.3936 118.676Z" fill="#263238"/>
<path d="M146.548 165.123C146.8 164.209 146.985 163.279 147.103 162.338C147.48 160.092 148.208 157.918 149.261 155.898C150.334 153.917 151.948 152.282 153.914 151.181C154.759 150.777 155.633 150.438 156.53 150.166C156.265 150.109 155.99 150.109 155.725 150.166C155.027 150.283 154.35 150.497 153.712 150.802C151.597 151.857 149.864 153.546 148.753 155.632C147.688 157.706 147.012 159.957 146.757 162.274C146.568 163.211 146.497 164.168 146.548 165.123Z" fill="#263238"/>
<path d="M143.964 154.248C144.076 154.377 145.678 152.727 148.286 151.833C150.895 150.94 153.116 151.246 153.165 151.077C153.213 150.908 150.854 150.36 148.109 151.318C145.364 152.276 143.843 154.184 143.964 154.248Z" fill="#263238"/>
<path d="M103.11 191.656C103.159 191.358 103.18 191.057 103.174 190.755C103.174 190.119 103.174 189.258 103.231 188.179C103.279 185.885 103.343 182.657 103.424 178.688C103.609 170.638 103.867 159.585 104.156 147.381C104.446 135.177 104.599 124.076 104.583 116.059C104.583 112.034 104.543 108.814 104.495 106.56C104.495 105.481 104.438 104.62 104.414 103.984C104.421 103.682 104.399 103.38 104.35 103.082C104.327 103.382 104.327 103.684 104.35 103.984C104.35 104.62 104.35 105.481 104.35 106.56C104.35 108.854 104.301 112.09 104.269 116.051C104.189 124.101 103.955 135.137 103.681 147.365C103.408 159.593 103.166 170.662 103.102 178.68C103.102 182.705 103.102 185.925 103.102 188.179C103.102 189.258 103.102 190.119 103.142 190.755C103.111 191.054 103.1 191.356 103.11 191.656Z" fill="#263238"/>
<path d="M154.002 153.37C154.002 153.305 153.197 153.909 152.553 155.246C152.158 156.007 151.871 156.82 151.7 157.661C151.534 158.728 151.534 159.814 151.7 160.881C151.82 161.949 152.137 162.986 152.634 163.94C153.064 164.713 153.657 165.383 154.372 165.904C155.001 166.426 155.793 166.71 156.61 166.709C155.903 166.416 155.233 166.041 154.614 165.59C153.979 165.069 153.456 164.426 153.076 163.698C152.646 162.788 152.373 161.81 152.271 160.808C152.127 159.804 152.127 158.785 152.271 157.781C152.41 156.952 152.645 156.141 152.972 155.366C153.471 154.086 154.083 153.418 154.002 153.37Z" fill="#263238"/>
<path d="M44.0629 166.967C44.0629 166.967 44.3205 166.967 44.7311 166.765C45.3074 166.511 45.8485 166.184 46.3411 165.791C48.0279 164.492 49.1816 162.621 49.5849 160.531C49.9882 158.44 49.6133 156.274 48.5307 154.441C48.2152 153.89 47.8311 153.381 47.3876 152.927C47.0736 152.621 46.8724 152.476 46.8482 152.501C46.8241 152.525 47.4922 153.249 48.1926 154.626C49.129 156.407 49.4312 158.453 49.0493 160.428C48.6674 162.404 47.6242 164.19 46.0915 165.493C44.9404 166.508 44.0227 166.878 44.0629 166.967Z" fill="#263238"/>
<path d="M23.5917 140.41C23.5273 140.475 23.9942 140.917 24.5818 141.698C24.9199 142.145 25.1537 142.662 25.2661 143.212C25.3949 143.831 25.3788 144.556 25.4915 145.353C25.5874 146.037 25.8182 146.695 26.1706 147.29C26.523 147.884 26.9899 148.402 27.5443 148.814C27.9679 149.196 28.5053 149.428 29.0738 149.474C29.114 149.386 28.5183 149.161 27.7858 148.508C26.8427 147.673 26.2218 146.534 26.0308 145.288C25.9778 144.56 25.8865 143.834 25.7572 143.115C25.6031 142.515 25.3046 141.963 24.8877 141.505C24.5496 141.042 24.1051 140.666 23.5917 140.41Z" fill="#FF9A6C"/>
<path d="M178.861 148.879C178.861 149.024 181.541 149.169 184.85 149.008C188.158 148.847 190.815 148.46 190.799 148.307C190.783 148.155 188.118 148.307 184.826 148.46C181.533 148.613 178.861 148.718 178.861 148.879Z" fill="#FF9A6C"/>
<path d="M172.767 148.42C172.767 148.477 173.403 148.372 174.159 147.736C174.65 147.31 175.039 146.781 175.301 146.187C175.563 145.592 175.69 144.948 175.673 144.299C175.615 143.612 175.491 142.933 175.303 142.27C175.162 141.745 175.094 141.203 175.101 140.66C175.148 140.175 175.259 139.699 175.431 139.243C175.431 139.187 174.844 139.613 174.715 140.628C174.65 141.198 174.683 141.775 174.811 142.334C174.963 142.973 175.068 143.621 175.125 144.274C175.143 145.442 174.7 146.569 173.894 147.414C173.274 148.138 172.727 148.34 172.767 148.42Z" fill="#FF9A6C"/>
<path d="M22.0942 150.328C22.0942 150.175 19.2204 150.288 15.7106 150.578C12.2008 150.867 9.35908 151.238 9.36713 151.383C9.37518 151.528 12.241 151.423 15.7508 151.125C19.2606 150.827 22.1023 150.473 22.0942 150.328Z" fill="#FF9A6C"/>
<path d="M104.961 101.971C105.283 103.043 105.689 104.087 106.177 105.095C106.394 105.578 106.62 106.101 106.853 106.64C107.084 107.255 107.353 107.854 107.658 108.435C107.774 108.626 107.943 108.78 108.145 108.877C108.346 108.974 108.571 109.011 108.793 108.983C109.183 108.88 109.546 108.693 109.856 108.435L111.756 107.139C114.348 105.352 116.674 103.702 118.349 102.494C119.285 101.882 120.168 101.193 120.989 100.434C119.992 100.936 119.036 101.518 118.131 102.172C116.401 103.307 114.034 104.893 111.442 106.688L109.55 107.993C109.303 108.206 109.016 108.368 108.705 108.468C108.578 108.483 108.449 108.459 108.336 108.401C108.222 108.342 108.129 108.25 108.069 108.137C107.457 107.027 106.95 105.827 106.459 104.917C106.042 103.895 105.542 102.91 104.961 101.971Z" fill="#263238"/>
<path d="M13.6979 144.565C18.4299 147.451 24.3314 148.834 29.3843 146.874C33.8846 155.071 39.9586 162.28 47.2316 168.058L47.0284 168.516C42.2871 170.045 37.5066 171.581 32.5387 172.025C27.5708 172.468 22.3127 171.712 18.0183 168.965C12.8058 165.619 9.64475 159.799 6.93827 154.154C3.79347 147.587 0.870196 140.51 1.4767 133.316C5.17843 137.452 8.98266 141.716 13.6979 144.565Z" fill="#B7B7B7"/>
<path d="M15.6979 142.565C20.4299 145.451 26.3314 146.834 31.3843 144.874C35.8846 153.071 41.9586 160.28 49.2316 166.058L49.0284 166.516C44.2871 168.045 39.5066 169.581 34.5387 170.025C29.5708 170.468 24.3127 169.712 20.0183 166.965C14.8058 163.619 11.6447 157.799 8.93827 152.154C5.79347 145.587 2.8702 138.51 3.4767 131.316C7.17843 135.452 10.9827 139.716 15.6979 142.565Z" fill="#EDECE9"/>
<path d="M187.894 120.754C187.894 120.754 187.883 120.767 187.877 120.773L163.291 167.392L163.282 167.401C163.276 167.413 163.271 167.425 163.267 167.437C163.233 167.506 163.211 167.579 163.199 167.654C163.183 167.737 163.177 167.822 163.179 167.906C163.201 168.221 163.306 168.523 163.483 168.784C164.156 169.853 165.726 170.678 166.986 170.629C167.392 170.638 167.786 170.491 168.087 170.22C168.151 170.154 168.205 170.08 168.245 169.998L192.597 123.847L192.852 123.364C193.044 123.003 192.991 122.516 192.647 121.982C191.969 120.912 190.397 120.082 189.137 120.132C188.525 120.149 188.086 120.388 187.894 120.754Z" fill="#E6E6E6"/>
<path d="M193.173 115.75L192.494 116.986C192.476 117.023 192.468 117.065 192.473 117.107C192.477 117.149 192.494 117.188 192.52 117.221C192.585 117.314 192.672 117.39 192.773 117.443C192.873 117.497 192.985 117.525 193.099 117.527C193.14 117.529 193.18 117.52 193.217 117.502C193.253 117.483 193.284 117.456 193.307 117.422L193.979 116.201C194.026 116.096 194.031 115.977 193.994 115.867C193.957 115.758 193.881 115.666 193.781 115.61C193.68 115.554 193.562 115.537 193.45 115.562C193.337 115.588 193.239 115.655 193.173 115.75Z" fill="#455A64"/>
<path d="M193.218 115.683C193.2 115.702 193.18 115.725 193.162 115.744C193.425 115.608 193.956 115.85 193.987 116.156C193.994 116.151 194 116.144 194.005 116.137L194.023 116.118C194.039 116.07 194.045 116.02 194.042 115.969C194.037 115.847 193.984 115.731 193.894 115.648C193.804 115.564 193.685 115.52 193.563 115.524C193.497 115.524 193.432 115.538 193.373 115.565C193.313 115.593 193.261 115.633 193.218 115.683Z" fill="#263238"/>
<path d="M191.452 117.581C191.844 117.587 192.23 117.685 192.577 117.868C192.924 118.051 193.223 118.313 193.45 118.634C193.583 118.817 193.642 119.042 193.615 119.267L192.962 122.949C192.964 122.599 192.859 122.258 192.659 121.971C191.982 120.899 190.412 120.071 189.149 120.12C188.787 120.117 188.433 120.232 188.142 120.447L190.803 117.827C190.819 117.807 190.836 117.789 190.854 117.773C191.025 117.641 191.236 117.573 191.452 117.581Z" fill="#E0E0E0"/>
<path opacity="0.1" d="M190.431 118.879C190.92 118.886 191.399 119.009 191.831 119.236C192.263 119.464 192.635 119.79 192.917 120.188C193.158 120.57 193.191 120.91 193.052 121.165C192.913 121.42 192.616 121.602 192.161 121.62C191.673 121.614 191.194 121.493 190.762 121.265C190.329 121.038 189.957 120.712 189.676 120.313C189.435 119.932 189.397 119.581 189.541 119.322C189.684 119.062 189.988 118.895 190.431 118.879Z" fill="black"/>
<path d="M191.452 117.581C191.844 117.587 192.23 117.685 192.577 117.868C192.924 118.051 193.223 118.313 193.45 118.634C193.583 118.817 193.642 119.042 193.615 119.267L192.962 122.949C192.964 122.599 192.859 122.258 192.659 121.971C191.982 120.899 190.412 120.071 189.149 120.12C188.787 120.117 188.433 120.232 188.142 120.447L190.803 117.827C190.819 117.807 190.836 117.789 190.854 117.773C191.025 117.641 191.236 117.573 191.452 117.581Z" fill="#E0E0E0"/>
<path d="M192.143 116.732L189.712 119.124C189.692 119.146 189.671 119.168 189.65 119.191C189.405 119.454 189.408 119.859 189.687 120.32C189.968 120.717 190.339 121.042 190.77 121.268C191.2 121.495 191.678 121.616 192.165 121.623C192.679 121.604 193.008 121.382 193.105 121.053C193.108 121.046 193.11 121.039 193.11 121.031L193.129 120.938L193.73 117.552C193.745 117.425 193.712 117.297 193.638 117.193C193.509 117.013 193.34 116.865 193.144 116.762C192.948 116.659 192.731 116.604 192.51 116.6C192.443 116.596 192.376 116.606 192.312 116.628C192.249 116.651 192.192 116.687 192.143 116.732Z" fill="#FFD000"/>
<path opacity="0.1" d="M192.143 116.732L189.712 119.124C189.692 119.146 189.671 119.168 189.65 119.191C189.405 119.454 189.408 119.859 189.687 120.32C189.968 120.717 190.339 121.042 190.77 121.268C191.2 121.495 191.678 121.616 192.165 121.623C192.679 121.604 193.008 121.382 193.105 121.053C193.108 121.046 193.11 121.039 193.11 121.031L193.129 120.938L193.73 117.552C193.745 117.425 193.712 117.297 193.638 117.193C193.509 117.013 193.34 116.865 193.144 116.762C192.948 116.659 192.731 116.604 192.51 116.6C192.443 116.596 192.376 116.606 192.312 116.628C192.249 116.651 192.192 116.687 192.143 116.732Z" fill="black"/>
<path d="M190.431 118.879C190.92 118.886 191.399 119.009 191.831 119.236C192.263 119.464 192.635 119.79 192.917 120.188C193.158 120.57 193.191 120.91 193.052 121.165C192.913 121.42 192.616 121.602 192.161 121.62C191.673 121.614 191.194 121.493 190.762 121.265C190.329 121.038 189.957 120.712 189.676 120.313C189.435 119.932 189.397 119.581 189.541 119.322C189.684 119.062 189.988 118.895 190.431 118.879Z" fill="#FFD000"/>
<path d="M190.431 118.879C190.92 118.886 191.399 119.009 191.831 119.236C192.263 119.464 192.635 119.79 192.917 120.188C193.158 120.57 193.191 120.91 193.052 121.165C192.913 121.42 192.616 121.602 192.161 121.62C191.673 121.614 191.194 121.493 190.762 121.265C190.329 121.038 189.957 120.712 189.676 120.313C189.435 119.932 189.397 119.581 189.541 119.322C189.684 119.062 189.988 118.895 190.431 118.879Z" fill="#FFD000"/>
<path opacity="0.05" d="M189.542 119.322C189.481 119.451 189.453 119.593 189.461 119.736C189.468 119.878 189.51 120.017 189.583 120.14C190.657 120.279 191.648 120.794 192.378 121.594C192.517 121.581 192.65 121.535 192.767 121.46C192.885 121.386 192.982 121.284 193.052 121.163C193.191 120.908 193.152 120.563 192.917 120.187C192.635 119.789 192.263 119.463 191.831 119.235C191.399 119.008 190.92 118.885 190.431 118.877C189.988 118.894 189.685 119.056 189.542 119.322Z" fill="black"/>
<path d="M192.5 116.592C192.722 116.596 192.939 116.652 193.136 116.755C193.332 116.858 193.501 117.006 193.63 117.186C193.703 117.291 193.734 117.419 193.718 117.546L193.43 119.183C193.429 119.005 193.374 118.832 193.273 118.685C193.068 118.397 192.799 118.162 192.487 117.997C192.174 117.832 191.827 117.744 191.474 117.738C191.288 117.735 191.106 117.795 190.958 117.906L192.144 116.735C192.191 116.688 192.247 116.652 192.308 116.627C192.369 116.603 192.434 116.591 192.5 116.592Z" fill="#FFD000"/>
<path d="M167.689 162.994C167.655 163.076 167.644 163.164 167.656 163.252C167.668 163.339 167.704 163.421 167.758 163.49C167.899 163.689 168.085 163.851 168.301 163.964C168.517 164.077 168.756 164.137 168.999 164.14C169.087 164.147 169.175 164.129 169.254 164.09C169.332 164.05 169.399 163.99 169.446 163.916L173.432 156.343C173.38 156.403 173.316 156.45 173.244 156.482C173.171 156.513 173.093 156.527 173.014 156.524C172.769 156.52 172.528 156.459 172.312 156.345C172.095 156.231 171.908 156.067 171.766 155.867C171.717 155.804 171.683 155.729 171.669 155.649C171.654 155.57 171.658 155.488 171.682 155.411L167.689 162.994Z" fill="#FAFAFA"/>
<path d="M168.134 162.771C168.378 162.775 168.617 162.836 168.833 162.95C169.049 163.063 169.234 163.226 169.376 163.424C169.429 163.492 169.463 163.573 169.475 163.659C169.487 163.745 169.476 163.832 169.443 163.912C169.397 163.987 169.331 164.048 169.253 164.088C169.175 164.128 169.087 164.146 168.999 164.14C168.756 164.137 168.517 164.077 168.301 163.964C168.085 163.851 167.899 163.688 167.758 163.49C167.7 163.424 167.663 163.342 167.653 163.255C167.642 163.168 167.658 163.079 167.698 163.001C167.738 162.923 167.801 162.859 167.879 162.818C167.956 162.776 168.044 162.759 168.131 162.768L168.134 162.771Z" fill="#E0E0E0"/>
<path d="M164.739 165.266L164.721 165.285C164.721 165.285 164.706 165.301 164.698 165.311L163.554 167.487L163.518 167.554L163.504 167.569C163.361 167.893 163.41 168.311 163.701 168.77C164.301 169.726 165.72 170.476 166.856 170.43C167.427 170.407 167.819 170.191 167.987 169.853L169.15 167.641C169.153 167.636 169.157 167.632 169.161 167.628L169.175 167.614C169.333 167.287 169.284 166.855 168.988 166.386C168.388 165.43 166.969 164.68 165.833 164.726C165.304 164.758 164.921 164.959 164.739 165.266Z" fill="#FFD000"/>
<path opacity="0.05" d="M164.739 165.266L164.721 165.285C164.721 165.285 164.706 165.301 164.698 165.311L163.554 167.487L163.518 167.554L163.504 167.569C163.361 167.893 163.41 168.311 163.701 168.77C164.301 169.726 165.72 170.476 166.856 170.43C167.427 170.407 167.819 170.191 167.987 169.853L169.15 167.641C169.153 167.636 169.157 167.632 169.161 167.628L169.175 167.614C169.333 167.287 169.284 166.855 168.988 166.386C168.388 165.43 166.969 164.68 165.833 164.726C165.304 164.758 164.921 164.959 164.739 165.266Z" fill="black"/>
<path d="M190.466 119.782L188.806 122.936L171.7 155.335C171.7 155.335 171.7 155.335 171.692 155.344L171.655 155.412C171.632 155.489 171.628 155.571 171.643 155.651C171.657 155.73 171.691 155.805 171.74 155.869C171.882 156.069 172.069 156.234 172.286 156.348C172.504 156.463 172.745 156.524 172.991 156.528C173.069 156.532 173.148 156.518 173.22 156.487C173.292 156.456 173.356 156.409 173.407 156.349L173.452 156.263L190.545 123.861L192.21 120.705C192.243 120.625 192.254 120.538 192.242 120.452C192.23 120.366 192.196 120.285 192.142 120.217C191.937 119.925 191.635 119.713 191.29 119.619C191.245 119.604 191.199 119.592 191.152 119.582C191.069 119.567 190.985 119.561 190.901 119.564C190.816 119.559 190.731 119.577 190.655 119.615C190.579 119.654 190.514 119.711 190.466 119.782Z" fill="#455A64"/>
<path d="M172.111 155.161C172.354 155.165 172.594 155.226 172.809 155.339C173.025 155.453 173.211 155.615 173.352 155.814C173.405 155.882 173.44 155.963 173.451 156.049C173.463 156.135 173.452 156.222 173.419 156.302C173.373 156.377 173.306 156.437 173.228 156.477C173.15 156.517 173.062 156.534 172.974 156.528C172.73 156.527 172.491 156.466 172.275 156.353C172.059 156.24 171.874 156.076 171.734 155.876C171.679 155.808 171.643 155.725 171.631 155.638C171.619 155.551 171.631 155.462 171.665 155.381C171.713 155.308 171.78 155.249 171.858 155.211C171.937 155.172 172.024 155.155 172.111 155.161Z" fill="#263238"/>
<path d="M190.466 119.783L190.215 120.262C190.858 120.443 191.455 120.757 191.968 121.185L192.222 120.706C192.255 120.626 192.266 120.539 192.254 120.453C192.242 120.368 192.208 120.286 192.155 120.218C191.949 119.926 191.648 119.714 191.303 119.62C191.179 119.577 191.049 119.557 190.918 119.56C190.83 119.553 190.741 119.57 190.661 119.61C190.582 119.649 190.515 119.709 190.466 119.783Z" fill="#263238"/>
<path d="M164.559 166.759C165.821 166.711 167.393 167.538 168.07 168.61C168.401 169.141 168.456 169.629 168.267 169.984C168.077 170.338 167.65 170.602 167.008 170.627C165.746 170.684 164.176 169.856 163.5 168.784C163.16 168.245 163.105 167.751 163.309 167.387C163.514 167.023 163.932 166.784 164.559 166.759Z" fill="#E0E0E0"/>
<path d="M164.439 167.014C165.701 166.966 167.273 167.792 167.949 168.864C168.281 169.395 168.336 169.884 168.154 170.246L168.143 170.258L167.89 170.744C167.882 170.751 167.875 170.758 167.87 170.767C167.85 170.788 167.831 170.808 167.823 170.839C167.799 170.87 167.773 170.898 167.744 170.924C167.728 170.942 167.712 170.959 167.694 170.978C167.693 170.981 167.692 170.983 167.691 170.984C167.689 170.986 167.687 170.987 167.685 170.988C167.67 171.008 167.653 171.026 167.634 171.042C167.547 171.114 167.45 171.174 167.346 171.218C167.316 171.233 167.284 171.245 167.252 171.255C167.236 171.263 167.22 171.269 167.203 171.273C167.175 171.283 167.147 171.291 167.118 171.297C166.957 171.342 166.793 171.367 166.627 171.371C165.366 171.42 163.796 170.595 163.121 169.528C162.947 169.266 162.842 168.964 162.817 168.65C162.815 168.609 162.817 168.569 162.821 168.528L162.835 168.413C162.839 168.39 162.844 168.367 162.851 168.345L162.862 168.301C162.872 168.275 162.88 168.247 162.893 168.22L162.905 168.207C162.922 168.188 162.926 168.155 162.94 168.13L163.161 167.707C163.168 167.686 163.177 167.666 163.19 167.647C163.365 167.269 163.798 167.037 164.439 167.014Z" fill="#FFD000"/>
<path opacity="0.3" d="M164.181 167.496C165.441 167.447 167.013 168.276 167.689 169.345C168.021 169.88 168.074 170.367 167.886 170.719C167.699 171.072 167.27 171.337 166.628 171.362C165.369 171.419 163.797 170.59 163.121 169.521C162.782 168.982 162.728 168.486 162.931 168.124C163.133 167.761 163.554 167.521 164.181 167.496Z" fill="white"/>
</g>
<defs>
<clipPath id="clip0_666_27417">
<rect width="200" height="200" fill="white"/>
</clipPath>
</defs>
</svg>
