<svg width="200" height="200" viewBox="0 0 200 200" fill="none" xmlns="http://www.w3.org/2000/svg">
<path fill-rule="evenodd" clip-rule="evenodd" d="M95.3511 40.0786C119.484 41.5624 131.191 65.3973 145.943 82.1754C157.899 95.7741 168.961 109.409 171.286 126.445C173.971 146.122 175.558 168.605 159.663 182.721C143.717 196.882 117.964 195.809 95.3511 193.883C72.1366 194.322 53.3796 187.342 42.4481 172.737C26.9316 160.174 13.0786 144.922 12.0648 126.445C11.0113 107.244 22.9446 90.1752 37.1121 75.4837C52.9597 59.05 70.8381 38.5713 95.3511 40.0786Z" fill="#FFF3CC"/>
<path d="M92.0601 44.8647L92.9295 44.8164C97.1236 44.5763 101.254 45.9237 104.5 48.5907C107.746 51.2577 109.869 55.0488 110.446 59.2099C111.557 67.2599 108.823 69.6774 109 74.0002C109.411 82.968 102.184 88.5002 102.184 88.5002L104.707 94.952C104.833 96.3825 104.674 97.8237 104.241 99.1929C103.809 100.562 103.109 101.832 102.184 102.93C101.259 104.029 100.125 104.933 98.8495 105.592C97.5735 106.251 96.1799 106.651 94.7488 106.769C91.8972 106.998 89.07 106.096 86.8772 104.259C84.6845 102.422 83.302 99.796 83.028 96.9484L79.808 63.6937C78.5039 54.4362 82.7704 45.9515 92.0601 44.8647Z" fill="#FFBF9D"/>
<path d="M102 88.5007C97.8507 88.7417 93.6289 87.6491 90 85.6777C90 85.6777 94.1185 91.7827 103 90.5007L102 88.5007Z" fill="#FF9A6C"/>
<path d="M95.996 68.3284C96.0248 68.7349 95.8978 69.1368 95.6425 69.447C95.3872 69.7572 95.0242 69.9508 94.632 69.9858C94.4413 70.0133 94.2472 70.0008 94.0612 69.9492C93.8752 69.8975 93.7011 69.8078 93.5492 69.6852C93.3973 69.5627 93.2706 69.4099 93.1768 69.2358C93.083 69.0617 93.0238 68.8698 93.0028 68.6716C92.9789 68.2663 93.1076 67.8672 93.362 67.5581C93.6163 67.249 93.9765 67.054 94.3668 67.0142C94.5575 66.9867 94.7516 66.9992 94.9376 67.0509C95.1236 67.1025 95.2977 67.1922 95.4496 67.3148C95.6015 67.4373 95.7282 67.5901 95.822 67.7642C95.9158 67.9383 95.975 68.1302 95.996 68.3284Z" fill="#263238"/>
<path d="M108.788 63.701C108.635 63.8781 107.629 63.21 106.252 63.2985C104.876 63.3871 103.902 64.1035 103.749 63.9667C103.596 63.8298 103.813 63.5883 104.232 63.2422C104.804 62.793 105.501 62.5316 106.228 62.4935C106.943 62.4539 107.653 62.6397 108.257 63.0248C108.683 63.3227 108.844 63.6125 108.788 63.701Z" fill="#263238"/>
<path d="M107.997 68.3284C108.021 68.7337 107.892 69.1328 107.638 69.4419C107.384 69.751 107.023 69.946 106.633 69.9858C106.442 70.0133 106.248 70.0008 106.062 69.9491C105.876 69.8975 105.702 69.8078 105.55 69.6852C105.398 69.5627 105.271 69.4099 105.177 69.2358C105.084 69.0617 105.024 68.8698 105.003 68.6716C104.977 68.2657 105.105 67.8652 105.36 67.5556C105.615 67.2459 105.976 67.0516 106.368 67.0142C106.558 66.9867 106.753 66.9992 106.939 67.0509C107.125 67.1025 107.299 67.1922 107.451 67.3148C107.603 67.4373 107.729 67.5901 107.823 67.7642C107.917 67.9383 107.976 68.1302 107.997 68.3284Z" fill="#263238"/>
<path d="M95.256 64.7316C95.1111 64.9087 94.0968 64.2486 92.7202 64.3291C91.3437 64.4096 90.3777 65.1341 90.2167 64.9973C90.0557 64.8604 90.2811 64.6189 90.7077 64.2728C91.2758 63.8278 91.9674 63.5691 92.688 63.5322C93.4038 63.4864 94.1152 63.6727 94.7166 64.0635C95.1674 64.3613 95.3284 64.6511 95.256 64.7316Z" fill="#263238"/>
<path d="M100.835 74.6567C101.546 74.3823 102.29 74.201 103.049 74.1173C103.403 74.061 103.725 73.9724 103.773 73.7309C103.785 73.3658 103.684 73.0059 103.483 72.7005C103.097 71.8955 102.678 71.002 102.284 70.0843C100.626 66.3571 99.4019 63.29 99.5468 63.2256C99.6917 63.1612 101.157 66.1237 102.831 69.8508C103.234 70.7685 103.636 71.646 103.982 72.4832C104.225 72.8956 104.318 73.3786 104.248 73.8517C104.204 73.9799 104.132 74.0961 104.035 74.1911C103.939 74.2862 103.821 74.3574 103.693 74.3991C103.503 74.4654 103.305 74.506 103.105 74.5198C102.356 74.6547 101.594 74.7006 100.835 74.6567Z" fill="#263238"/>
<path d="M95.359 60.4005C95.2383 60.7788 93.8537 60.6822 92.2517 60.972C90.6498 61.2618 89.3698 61.777 89.1364 61.447C89.0317 61.294 89.241 60.9318 89.7401 60.5373C90.4173 60.0516 91.1963 59.7266 92.0179 59.5871C92.8395 59.4476 93.6821 59.4973 94.4816 59.7323C95.0853 59.9416 95.4073 60.2153 95.359 60.4005Z" fill="#263238"/>
<path d="M108.086 60.827C107.869 61.149 106.903 60.8833 105.76 60.9316C104.617 60.9799 103.667 61.2617 103.425 60.9316C103.321 60.7787 103.425 60.4567 103.852 60.1266C104.397 59.7358 105.049 59.5197 105.72 59.5068C106.392 59.4784 107.056 59.6614 107.619 60.03C108.038 60.352 108.191 60.666 108.086 60.827Z" fill="#263238"/>
<path d="M109.344 55.1525C109.344 55.1525 106.663 49.6784 103.878 48.5192C100.513 47.1266 99.3133 50.8054 96.1416 50.1292C92.9699 49.453 89.7579 48.1006 86.707 50.6927C83.3743 53.5344 85.097 55.2974 85.097 59.2821C85.1453 75.4385 82.4646 80.1639 81.1927 72.629C81.0559 71.824 78.7052 71.2686 78.1659 67.799C77.4575 63.2749 76.9664 57.7526 77.7956 54.4602C78.4959 51.6909 79.9369 49.7187 82.6256 47.4808C86.8358 43.9549 92.8652 43.5363 96.9949 43.7134C101.125 43.8905 109.319 48.1006 109.344 55.1525Z" fill="#263238"/>
<path d="M81.7803 72.3236C81.7532 71.9929 81.6583 71.6713 81.5014 71.3788C81.3446 71.0864 81.1291 70.8295 80.8685 70.624C80.6079 70.4185 80.3078 70.269 79.9868 70.1847C79.6658 70.1004 79.331 70.0831 79.003 70.134C77.3447 70.3916 75.5415 71.4462 75.8474 74.8916C76.3948 81.0016 82.4162 79.1903 82.4162 79.0132C82.4162 78.8361 82.0298 74.8835 81.7803 72.3236Z" fill="#FFBF9D"/>
<path d="M80.8948 76.8303C80.8948 76.8303 80.7982 76.9188 80.6211 77.0154C80.3742 77.1475 80.0858 77.1793 79.8161 77.104C79.156 76.9269 78.52 75.9448 78.3912 74.85C78.3275 74.3266 78.3825 73.7955 78.5522 73.2963C78.5923 73.1011 78.6792 72.9186 78.8054 72.7643C78.9316 72.6101 79.0933 72.4888 79.2767 72.4108C79.3957 72.3686 79.5255 72.3688 79.6444 72.4113C79.7632 72.4538 79.8637 72.5361 79.9288 72.6443C80.0334 72.8053 80.0012 72.934 80.0334 72.9421C80.0656 72.9501 80.1542 72.8294 80.0817 72.5798C80.0362 72.4305 79.9392 72.3022 79.808 72.2176C79.6284 72.1045 79.4114 72.0669 79.2043 72.1129C78.9589 72.1861 78.7363 72.3205 78.5574 72.5036C78.3785 72.6868 78.2493 72.9125 78.1819 73.1595C77.9686 73.7126 77.894 74.3096 77.9646 74.8983C78.1175 76.1299 78.8501 77.2247 79.7517 77.4018C79.9198 77.4353 80.0934 77.4302 80.2593 77.387C80.4252 77.3438 80.5792 77.2635 80.7096 77.1523C80.8948 76.9832 80.9189 76.8464 80.8948 76.8303Z" fill="#FF9A6C"/>
<path d="M110.648 48.5191C109.706 47.8107 108.41 47.7141 107.476 46.9977C103.316 43.8042 96.6129 37.7091 90.8888 40.8959C88.7107 42.1085 85.9615 42.2125 84.0181 43.6006C83.4528 44.0475 82.9874 44.608 82.6519 45.2458C82.3164 45.8835 82.1182 46.5845 82.07 47.3036C82.07 47.3036 81.4341 46.9816 79.5021 48.5111C78.2704 49.4851 77.2642 51.5862 76.8134 53.0835C76.1452 55.3294 77.1193 57.6962 78.0772 59.8294C78.5924 60.9806 79.2364 62.2444 80.4359 62.655C81.8929 63.146 83.5029 62.0029 84.0745 60.57C84.646 59.1371 85.5476 57.6962 86.2399 56.3196C87.4474 53.9046 88.6549 51.6989 87.6648 50.1694C90.93 49.1089 93.0942 51.0056 95.9966 52.0289C97.2173 52.4594 102.143 53.276 103.5 52.9513C103.939 52.8464 104.349 52.6439 104.699 52.359C105.252 53.2599 106.124 53.9194 107.141 54.2059C108.159 54.4923 109.247 54.3848 110.189 53.9046C112.008 52.7776 112.33 49.791 110.648 48.5191Z" fill="#263238"/>
<path d="M77.4653 58.3875C77.7478 58.8294 77.9852 59.2987 78.1737 59.7882C78.3945 60.2826 78.7415 60.7102 79.18 61.0279C79.7661 61.3278 80.4411 61.405 81.0798 61.2452C81.7438 61.1164 82.3707 60.8414 82.9152 60.4402C83.3543 60.0994 83.7539 59.7106 84.1066 59.281C84.4148 58.8596 84.7568 58.4638 85.129 58.0977C84.9327 58.5852 84.6611 59.0388 84.324 59.442C83.9868 59.9161 83.5859 60.3413 83.1325 60.7059C82.5515 61.1447 81.8763 61.4424 81.1603 61.5753C80.4348 61.7551 79.6679 61.6484 79.019 61.2774C78.5341 60.9224 78.1645 60.4324 77.9564 59.8687C77.7324 59.397 77.5674 58.8995 77.4653 58.3875Z" fill="#B9B8B6"/>
<path d="M77.6989 63.1146C78.0674 63.394 78.474 63.619 78.9065 63.7828C79.3769 63.9318 79.8743 63.9757 80.3635 63.9116C80.9641 63.8203 81.5379 63.6007 82.046 63.2676C82.9688 62.6266 83.7521 61.805 84.3483 60.8526C84.5759 60.4394 84.8457 60.0509 85.1533 59.6934C85.0124 60.1539 84.8035 60.5907 84.5334 60.9894C83.9864 62.0378 83.1937 62.9383 82.2231 63.6137C81.6703 63.9795 81.0384 64.2085 80.3796 64.2819C79.8332 64.342 79.2805 64.2674 78.7696 64.0645C77.9485 63.6701 77.6587 63.1227 77.6989 63.1146Z" fill="#B9B8B6"/>
<path d="M96.7029 79.6289C96.4969 79.9662 96.3821 80.3164 96.3615 80.6697C96.3372 80.8368 96.3835 81.0047 96.4972 81.1618C96.6109 81.319 96.7894 81.4618 97.0205 81.5804C97.2599 81.7262 97.5589 81.8432 97.8964 81.9233C98.2338 82.0034 98.6015 82.0446 98.9734 82.0439C99.6443 82.0432 100.293 81.92 100.802 81.6964C101.311 81.4729 101.648 81.1636 101.752 80.8242L101.99 80.0558C100.601 79.8525 96.8061 79.6818 96.7029 79.6289Z" fill="#FF9A6C"/>
<path d="M100.948 81.1252C100.948 81.1252 100.753 81.1252 100.431 81.1411C99.9786 81.163 99.5184 81.163 99.0662 81.1411C98.4134 81.1089 97.8233 81.0007 97.4135 80.8381C96.9255 80.6348 96.6932 80.3822 96.7609 80.1285C96.7805 79.9858 96.8991 79.8462 97.1084 79.7193L96.9049 79.7485C98.3542 79.8176 99.6256 79.8734 100.524 79.9053C101.007 79.9336 101.499 79.9452 101.99 79.9399C101.532 79.884 101.054 79.8465 100.566 79.8282C99.668 79.7751 98.4136 79.7033 96.9643 79.6289H96.8287L96.7693 79.6661C96.4444 79.8636 96.3061 80.086 96.3707 80.3073C96.4353 80.5286 96.7 80.7395 97.1338 80.9152C97.6097 81.0951 98.291 81.2096 99.0323 81.2341C99.514 81.2474 99.9994 81.233 100.465 81.1916C100.639 81.1806 100.804 81.1579 100.948 81.1252Z" fill="#263238"/>
<path d="M83 98L78.1204 100.196L60 106.752L65.1865 160.234L63.2697 188.228C80 197.5 124.262 195.715 127 194.5C128.425 194.459 128.681 191.408 128.914 189.425C129.115 187.645 128.962 185.841 128.463 184.123L125.459 173.403C125.902 180.074 123.937 133.607 123.848 131.911L128.238 108.006L107.621 99.5154L104.5 95C102.159 103.399 87.597 105.091 83 98Z" fill="#FFD000"/>
<path d="M128.129 108L132.908 114.557L143 130C143 130 148.623 154.742 147.952 155.143L148.893 156.482H157.621C158.766 158.879 157.006 159.13 156.426 161.733C155.846 164.336 157.621 165.788 154.543 169.844C154.288 170.043 151.994 172.719 151.718 172.885C147.736 175.344 142.569 173.653 138.419 168.621C134.493 163.85 123 146.704 123 146.704V125.721L128.129 108Z" fill="#FFBF9D"/>
<path d="M144 159.5L163.601 146.303L168.737 152.59L167.674 155.633L153.5 171C151.795 169.608 144.371 168.669 144 166.5C143.396 162.66 144 159.5 144 159.5Z" fill="#FFBF9D"/>
<path d="M163.424 149.789C163.158 148.399 163.253 146.964 163.7 145.621C164.147 144.277 164.93 143.071 165.976 142.117C168.49 140.049 171.334 138.416 174.388 137.287C176.255 136.482 180.144 133.206 180.828 133.995C181.512 134.784 181.818 135.959 180.828 137.392C179.838 138.825 174.211 140.958 175 142.769C175.322 143.502 177.093 143.639 177.093 143.639C180.307 143.865 183.531 143.929 186.753 143.832C189.602 143.582 192.162 144.13 192.009 145.112C191.856 146.094 191.325 146.633 188.966 146.834C186.608 147.036 182.768 146.883 182.526 147.422C182.285 147.961 183.122 148.308 184.499 148.227C185.875 148.147 192.363 148.122 192.806 148.863C192.914 149.051 192.979 149.261 192.996 149.477C193.013 149.692 192.981 149.91 192.904 150.112C192.827 150.314 192.706 150.497 192.55 150.648C192.394 150.798 192.207 150.911 192.001 150.98L190.48 151.52C190.48 151.52 191.365 152.751 190.625 153.435C189.884 154.12 188.21 153.878 188.21 153.878L179.604 153.637C179.604 153.637 179.113 154.152 179.355 154.506C179.596 154.86 186.342 154.369 186.39 155.11C186.439 155.85 187.026 156.189 185.014 156.72C182.066 157.211 179.058 157.211 176.11 156.72C174.291 156.221 166.668 155.915 166.668 155.915L163.424 149.789Z" fill="#FFBF9D"/>
<path d="M52.0001 115.5C54.2768 111.264 59.9567 106.576 60.488 106.576L65.6642 137.005C67.3604 133.739 63.243 154.689 59.0149 165.671C56.7528 172.868 51.8054 173.256 49.6527 171.628C47.5001 170 45.3743 168.016 43.9372 166.758C42.5001 165.5 31.4919 155.037 31.4919 155.037L30.7915 151.89L36.507 145.45L46.4649 153.709C46.4649 153.709 46.5273 153.821 46.6283 154.024L46.4649 129C46.4649 129 49.1021 120.893 52.0001 115.5Z" fill="#FFBF9D"/>
<path d="M36.3943 149.747C36.8225 148.399 36.8994 146.964 36.6176 145.578C36.3359 144.192 35.7048 142.9 34.7843 141.826C32.5191 139.475 29.8704 137.526 26.9516 136.062C25.1967 135.008 21.7191 131.337 20.9382 132.037C20.4752 132.455 20.1799 133.026 20.1074 133.646C20.0348 134.265 20.1899 134.889 20.5438 135.402C21.3488 136.94 25.2289 138.727 25.092 140.699C25.0778 140.89 25.026 141.076 24.9398 141.247C24.8536 141.418 24.7346 141.57 24.5896 141.695C24.4446 141.82 24.2764 141.915 24.0946 141.975C23.9129 142.034 23.7211 142.058 23.5303 142.044C20.3183 141.896 17.1157 141.587 13.9347 141.118C11.1252 140.538 8.52508 140.78 8.55728 141.77C8.58948 142.76 9.06443 143.38 11.3828 143.839C13.7012 144.298 17.5331 144.644 17.6619 145.167C17.7907 145.69 16.9776 145.972 15.6171 145.722C14.2567 145.473 7.81668 144.708 7.29343 145.392C7.16372 145.564 7.07381 145.763 7.03018 145.974C6.98654 146.185 6.99027 146.403 7.04109 146.613C7.09191 146.822 7.18855 147.018 7.32406 147.185C7.45957 147.353 7.63057 147.488 7.82473 147.582L9.27373 148.298C9.27373 148.298 8.25138 149.417 8.90343 150.182C9.55548 150.947 11.246 150.907 11.246 150.907L19.8273 151.663C19.8273 151.663 20.254 152.235 19.9642 152.557C19.6744 152.879 13.0492 151.607 12.9123 152.34C12.7755 153.072 12.1476 153.338 14.0957 154.062C16.9698 154.895 19.9619 155.246 22.9507 155.101C24.8183 154.819 32.4336 155.366 32.4336 155.366L36.3943 149.747Z" fill="#FFBF9D"/>
<path d="M54.9873 165C54.7858 164.33 54.6372 163.647 54.5429 162.957C54.241 161.31 53.6585 159.716 52.8166 158.235C51.9574 156.782 50.6664 155.583 49.0935 154.776C48.417 154.48 47.7172 154.231 47 154.032C47.2122 153.989 47.4319 153.989 47.6441 154.032C48.2022 154.117 48.7443 154.274 49.2545 154.498C50.947 155.272 52.3341 156.51 53.2224 158.04C54.0748 159.56 54.6162 161.211 54.8199 162.91C54.9714 163.598 55.0277 164.3 54.9873 165Z" fill="#FF9A6C"/>
<path d="M55.9956 156.994C55.9222 157.105 54.8784 155.685 53.179 154.917C51.4796 154.148 50.0319 154.411 50.0005 154.266C49.969 154.121 51.5058 153.65 53.2944 154.474C55.083 155.298 56.0743 156.938 55.9956 156.994Z" fill="#FF9A6C"/>
<path d="M176.408 140.41C176.473 140.475 176.006 140.917 175.418 141.698C175.08 142.145 174.846 142.662 174.734 143.212C174.605 143.831 174.621 144.556 174.509 145.353C174.413 146.037 174.182 146.695 173.829 147.29C173.477 147.884 173.01 148.402 172.456 148.814C172.032 149.196 171.495 149.428 170.926 149.474C170.886 149.386 171.482 149.161 172.214 148.508C173.157 147.673 173.778 146.534 173.969 145.288C174.022 144.56 174.114 143.834 174.243 143.115C174.397 142.515 174.695 141.963 175.112 141.505C175.45 141.042 175.895 140.666 176.408 140.41Z" fill="#FF9A6C"/>
<path d="M21.1394 148.879C21.1394 149.024 18.4588 149.169 15.1502 149.008C11.8417 148.847 9.18514 148.46 9.20124 148.307C9.21734 148.155 11.8819 148.307 15.1744 148.46C18.4668 148.613 21.1394 148.718 21.1394 148.879Z" fill="#FF9A6C"/>
<path d="M27.2332 148.42C27.2332 148.477 26.5973 148.372 25.8406 147.736C25.3505 147.31 24.9606 146.781 24.699 146.187C24.4374 145.592 24.3104 144.948 24.3272 144.299C24.3845 143.612 24.5085 142.933 24.6975 142.27C24.8384 141.745 24.9061 141.203 24.8987 140.66C24.8525 140.175 24.7415 139.699 24.5687 139.243C24.5687 139.187 25.1563 139.613 25.2851 140.628C25.3502 141.198 25.3175 141.775 25.1885 142.334C25.037 142.973 24.9321 143.621 24.8746 144.274C24.8575 145.442 25.2998 146.569 26.1062 147.414C26.7261 148.138 27.2735 148.34 27.2332 148.42Z" fill="#FF9A6C"/>
<path d="M177.906 150.328C177.906 150.175 180.779 150.288 184.289 150.578C187.799 150.867 190.641 151.238 190.633 151.383C190.625 151.528 187.759 151.423 184.249 151.125C180.739 150.827 177.897 150.473 177.906 150.328Z" fill="#FF9A6C"/>
<path d="M149.075 167.804C148.878 167.271 148.642 166.752 148.37 166.253C147.767 165.027 147.36 163.713 147.164 162.36C146.993 161.019 147.206 159.657 147.778 158.432C148.049 157.939 148.356 157.468 148.697 157.021C148.548 157.086 148.414 157.182 148.305 157.303C148.006 157.604 147.751 157.946 147.548 158.318C146.887 159.573 146.634 161.003 146.824 162.409C147.032 163.792 147.491 165.125 148.179 166.343C148.415 166.866 148.716 167.357 149.075 167.804Z" fill="#FF9A6C"/>
<path d="M144.168 162.706C144.261 162.73 144.415 161.454 145.265 160.211C146.115 158.968 147.197 158.406 147.162 158.312C147.126 158.218 145.904 158.711 145.014 160.028C144.125 161.344 144.094 162.714 144.168 162.706Z" fill="#FF9A6C"/>
<path d="M36.5277 145.629C36.8095 147.015 36.7326 148.45 36.3044 149.798L32.3438 155.417C32.3438 155.417 27.4946 155.069 24.5863 155.071C26.6368 153.164 27.9101 150.499 27.9101 147.55C27.9101 144.8 27.3131 142.872 25.5 141C25.3427 139.927 23.5779 138.334 22.4076 137.386C21.568 136.705 20.7715 136.06 20.4539 135.453C20.1 134.94 19.9449 134.315 20.0175 133.696C20.09 133.077 20.3854 132.506 20.8483 132.088C21.3504 131.638 22.9673 132.995 24.5243 134.301C25.389 135.027 26.2351 135.737 26.8617 136.113C29.7806 137.576 32.4292 139.525 34.6944 141.877C35.6149 142.951 36.246 144.242 36.5277 145.629Z" fill="#FFBF9D"/>
<path d="M48.8856 115.968C48.652 116.426 48.8442 123.057 47.4691 125.907C46.8191 127.208 46.0812 128.423 45.2622 129.539C45.0064 129.895 44.8322 130.341 44.7543 130.841C44.6764 131.34 44.6971 131.878 44.8146 132.409C44.9321 132.94 45.143 133.449 45.4296 133.893C45.7161 134.337 46.07 134.703 46.4615 134.96L67.2549 148.557L71.0867 124.088C71.0867 124.088 70.4349 107.524 61.7879 107.1C53.1409 106.677 48.8856 115.968 48.8856 115.968Z" fill="#FFD000"/>
<path d="M141.72 116.968C141.954 117.426 141.762 124.057 143.137 126.907C143.787 128.208 144.525 129.423 145.344 130.539C145.6 130.895 145.774 131.341 145.852 131.841C145.93 132.34 145.909 132.878 145.791 133.409C145.674 133.94 145.463 134.449 145.176 134.893C144.89 135.337 144.536 135.703 144.145 135.96L123.351 149.557L119.519 125.088C119.519 125.088 120.171 108.524 128.818 108.1C137.465 107.677 141.72 116.968 141.72 116.968Z" fill="#FFD000"/>
<path d="M95 191.696C95.1095 191.346 95.2606 191.01 95.45 190.696C95.6379 190.314 95.8482 189.944 96.08 189.586C96.3679 189.103 96.6817 188.636 97.02 188.186C97.8876 186.997 98.8616 185.889 99.93 184.876C102.557 182.383 105.687 180.481 109.11 179.296C110.502 178.818 111.935 178.467 113.39 178.246C113.946 178.155 114.507 178.091 115.07 178.056C115.492 178.012 115.916 177.996 116.34 178.006C116.704 177.988 117.07 178.009 117.43 178.066C117.43 178.176 115.88 178.156 113.43 178.606C112.008 178.876 110.61 179.261 109.25 179.756C107.597 180.38 106.003 181.153 104.49 182.066C102.988 182.998 101.573 184.063 100.26 185.246C99.195 186.224 98.2117 187.288 97.32 188.426C95.8 190.366 95.09 191.746 95 191.696Z" fill="#263238"/>
<path d="M116.322 125.163C116.523 125.278 116.715 125.435 116.894 125.629C117.112 125.824 117.323 126.04 117.525 126.278C117.8 126.574 118.064 126.895 118.317 127.241C118.988 128.128 119.609 129.12 120.171 130.205C121.554 132.873 122.577 136.034 123.172 139.475C123.412 140.875 123.576 142.312 123.664 143.771C123.702 144.329 123.723 144.89 123.727 145.453C123.741 145.876 123.738 146.3 123.72 146.724C123.72 147.088 123.697 147.453 123.653 147.812C123.589 147.81 123.645 146.261 123.452 143.805C123.335 142.379 123.15 140.975 122.899 139.607C122.581 137.944 122.175 136.338 121.684 134.81C121.182 133.294 120.6 131.861 119.945 130.529C119.403 129.448 118.809 128.447 118.168 127.537C117.077 125.985 116.29 125.252 116.322 125.163Z" fill="#263238"/>
<path d="M102.935 109.139C102.597 109.281 102.243 109.382 101.881 109.44C101.468 109.543 101.049 109.622 100.626 109.675C100.071 109.767 99.5117 109.828 98.9501 109.86C97.4816 109.964 96.0067 109.935 94.5437 109.772C90.9438 109.373 87.4709 108.208 84.3579 106.357C83.0946 105.602 81.902 104.734 80.7945 103.764C80.3654 103.398 79.9552 103.011 79.5655 102.603C79.2598 102.309 78.9733 101.996 78.708 101.665C78.4592 101.398 78.2389 101.106 78.0507 100.793C78.1348 100.722 79.1194 101.92 81.0438 103.501C82.1673 104.414 83.363 105.234 84.6191 105.953C86.1625 106.814 87.7811 107.533 89.4548 108.1C91.1359 108.646 92.8622 109.041 94.6135 109.281C96.0479 109.464 97.4948 109.529 98.9399 109.476C101.403 109.386 102.915 109.038 102.935 109.139Z" fill="#263238"/>
<path d="M95 185.03C95.2779 184.741 95.5864 184.483 95.92 184.26C96.53 183.8 97.4 183.13 98.47 182.26C101.257 180.068 103.928 177.732 106.47 175.26C108.996 172.768 111.393 170.148 113.65 167.41L115.65 164.89C115.875 164.564 116.136 164.265 116.43 164C116.263 164.357 116.055 164.692 115.81 165C115.39 165.64 114.74 166.54 113.91 167.63C109.537 173.284 104.405 178.308 98.66 182.56C97.56 183.37 96.66 184 96 184.41C95.6902 184.652 95.3549 184.86 95 185.03Z" fill="#263238"/>
<path d="M129 143C129.169 142.835 129.356 142.688 129.558 142.561C129.928 142.298 130.456 141.916 131.105 141.419C132.796 140.169 134.416 138.836 135.958 137.425C137.491 136.003 138.944 134.508 140.314 132.946L141.527 131.508C141.663 131.322 141.822 131.151 142 131C141.899 131.203 141.773 131.395 141.624 131.571C141.369 131.936 140.975 132.449 140.471 133.071C137.818 136.297 134.705 139.164 131.22 141.591C130.553 142.053 130.007 142.412 129.607 142.646C129.419 142.785 129.215 142.903 129 143Z" fill="#263238"/>
<path d="M131 137C131.13 136.89 131.274 136.792 131.429 136.707C131.714 136.532 132.12 136.277 132.619 135.946C133.92 135.113 135.166 134.224 136.352 133.283C137.531 132.335 138.649 131.339 139.703 130.297L140.636 129.339C140.741 129.215 140.863 129.101 141 129C140.922 129.136 140.825 129.263 140.711 129.38C140.515 129.624 140.211 129.966 139.824 130.381C137.783 132.532 135.389 134.443 132.708 136.06C132.195 136.369 131.775 136.608 131.467 136.764C131.322 136.856 131.166 136.935 131 137Z" fill="#263238"/>
<path d="M65.1846 146.267C65.1481 146.252 66.5 144 66.4439 143.445C66.5 143.5 66.3336 143.084 66.2281 142.805C65.9381 142.021 65.5892 141.236 65.1846 140.458C63.849 137.87 61.9682 135.406 59.7114 133.29C57.4545 131.173 54.8924 129.47 52.2553 128.332C51.4576 127.982 50.6574 127.688 49.8622 127.455C49.5827 127.368 49.3706 127.326 49.22 127.287C49.0693 127.249 49.0013 127.238 49.0003 127.246C48.9994 127.254 49.3131 127.352 49.8712 127.532C53.2717 128.633 56.6592 130.692 59.5699 133.426C62.4806 136.16 64.8695 139.947 66.2281 143.316C66.4247 143.692 65.0825 146.018 65.1846 146.267Z" fill="#263238"/>
<path opacity="0.2" d="M64 147.159C64.6041 148.432 65.3235 147.62 66.9978 144.606C68.6721 141.591 72.1616 150.537 71.9942 155.843C71.8075 161.76 65.2938 174.263 64.9993 166.569C64.7048 158.875 64.5143 154.591 64 147.159Z" fill="black"/>
<path d="M104.496 130.613H104.629C104.702 130.599 104.771 130.569 104.831 130.525C104.891 130.481 104.941 130.425 104.976 130.359C116.513 110.451 107.994 99.6495 107.647 99.1955C107.602 99.1411 107.547 99.0961 107.485 99.063C107.423 99.0299 107.355 99.0093 107.285 99.0025C107.215 98.9957 107.144 99.0028 107.077 99.0233C107.009 99.0438 106.947 99.0773 106.892 99.1221C106.838 99.1668 106.793 99.2217 106.76 99.2838C106.727 99.346 106.706 99.414 106.699 99.484C106.693 99.5541 106.7 99.6248 106.72 99.6921C106.741 99.7595 106.774 99.8221 106.819 99.8764C107.153 100.304 115.097 110.371 104.362 129.251C87.8188 117.408 79.7275 104.363 79.0598 99.9566C79.04 99.8169 78.9656 99.6907 78.8531 99.6056C78.7405 99.5206 78.5988 99.4835 78.459 99.5026C78.3182 99.5256 78.192 99.6027 78.1072 99.7174C78.0224 99.8322 77.9857 99.9754 78.005 100.117C78.6993 104.723 87.0978 118.356 104.229 130.48C104.306 130.544 104.397 130.59 104.496 130.613Z" fill="#263238"/>
<path d="M105.51 127.221H102.72V138.05H108.221V129.931C108.226 129.574 108.16 129.219 108.026 128.888C107.891 128.557 107.692 128.256 107.439 128.003C107.186 127.75 106.885 127.551 106.554 127.416C106.223 127.282 105.868 127.216 105.51 127.221Z" fill="#263238"/>
<path d="M101.959 132.63C102.667 132.63 103.346 132.349 103.847 131.848C104.348 131.347 104.629 130.668 104.629 129.959V127.289H101.959C101.25 127.289 100.571 127.57 100.07 128.071C99.5696 128.572 99.2883 129.251 99.2883 129.959C99.2883 130.668 99.5696 131.347 100.07 131.848C100.571 132.349 101.25 132.63 101.959 132.63Z" fill="#263238"/>
</svg>
