<svg width="200" height="200" viewBox="0 0 200 200" fill="none" xmlns="http://www.w3.org/2000/svg">
<path fill-rule="evenodd" clip-rule="evenodd" d="M95.3511 40.0786C119.484 41.5624 131.191 65.3973 145.943 82.1754C157.899 95.7741 168.961 109.409 171.286 126.445C173.971 146.122 175.558 168.605 159.663 182.721C143.717 196.882 117.964 195.809 95.3511 193.883C72.1366 194.322 53.3796 187.342 42.4481 172.737C26.9316 160.174 13.0786 144.922 12.0648 126.445C11.0113 107.244 22.9446 90.1752 37.1121 75.4837C52.9597 59.05 70.8381 38.5713 95.3511 40.0786Z" fill="#FFF3CC"/>
<path d="M92.0601 44.8647L92.9295 44.8164C97.1236 44.5763 101.254 45.9237 104.5 48.5907C107.746 51.2577 109.869 55.0488 110.446 59.2099C111.557 67.2599 108.823 69.6774 109 74.0002C109.411 82.968 102.184 88.5002 102.184 88.5002L104.707 94.952C104.833 96.3825 104.674 97.8237 104.241 99.1929C103.809 100.562 103.109 101.832 102.184 102.93C101.259 104.029 100.125 104.933 98.8495 105.592C97.5735 106.251 96.1799 106.651 94.7488 106.769C91.8972 106.998 89.07 106.096 86.8772 104.259C84.6845 102.422 83.302 99.796 83.028 96.9484L79.808 63.6937C78.5039 54.4362 82.7704 45.9515 92.0601 44.8647Z" fill="#FFBF9D"/>
<path d="M102 88.5007C97.8507 88.7417 93.6289 87.6491 90 85.6777C90 85.6777 94.1185 91.7827 103 90.5007L102 88.5007Z" fill="#FF9A6C"/>
<path d="M95.996 68.3284C96.0248 68.7349 95.8978 69.1368 95.6425 69.447C95.3872 69.7572 95.0242 69.9508 94.632 69.9858C94.4413 70.0133 94.2472 70.0008 94.0612 69.9492C93.8752 69.8975 93.7011 69.8078 93.5492 69.6852C93.3973 69.5627 93.2706 69.4099 93.1768 69.2358C93.083 69.0617 93.0238 68.8698 93.0028 68.6716C92.9789 68.2663 93.1076 67.8672 93.362 67.5581C93.6163 67.249 93.9765 67.054 94.3668 67.0142C94.5575 66.9867 94.7516 66.9992 94.9376 67.0509C95.1236 67.1025 95.2977 67.1922 95.4496 67.3148C95.6015 67.4373 95.7282 67.5901 95.822 67.7642C95.9158 67.9383 95.975 68.1302 95.996 68.3284Z" fill="#263238"/>
<path d="M108.788 63.701C108.635 63.8781 107.629 63.21 106.252 63.2985C104.876 63.3871 103.902 64.1035 103.749 63.9667C103.596 63.8298 103.813 63.5883 104.232 63.2422C104.804 62.793 105.501 62.5316 106.228 62.4935C106.943 62.4539 107.653 62.6397 108.257 63.0248C108.683 63.3227 108.844 63.6125 108.788 63.701Z" fill="#263238"/>
<path d="M107.997 68.3284C108.021 68.7337 107.892 69.1328 107.638 69.4419C107.384 69.751 107.023 69.946 106.633 69.9858C106.442 70.0133 106.248 70.0008 106.062 69.9491C105.876 69.8975 105.702 69.8078 105.55 69.6852C105.398 69.5627 105.271 69.4099 105.177 69.2358C105.084 69.0617 105.024 68.8698 105.003 68.6716C104.977 68.2657 105.105 67.8652 105.36 67.5556C105.615 67.2459 105.976 67.0516 106.368 67.0142C106.558 66.9867 106.753 66.9992 106.939 67.0509C107.125 67.1025 107.299 67.1922 107.451 67.3148C107.603 67.4373 107.729 67.5901 107.823 67.7642C107.917 67.9383 107.976 68.1302 107.997 68.3284Z" fill="#263238"/>
<path d="M95.256 64.7316C95.1111 64.9087 94.0968 64.2486 92.7202 64.3291C91.3437 64.4096 90.3777 65.1341 90.2167 64.9973C90.0557 64.8604 90.2811 64.6189 90.7077 64.2728C91.2758 63.8278 91.9674 63.5691 92.688 63.5322C93.4038 63.4864 94.1152 63.6727 94.7166 64.0635C95.1674 64.3613 95.3284 64.6511 95.256 64.7316Z" fill="#263238"/>
<path d="M100.835 74.6567C101.546 74.3823 102.29 74.201 103.049 74.1173C103.403 74.061 103.725 73.9724 103.773 73.7309C103.785 73.3658 103.684 73.0059 103.483 72.7005C103.097 71.8955 102.678 71.002 102.284 70.0843C100.626 66.3571 99.4019 63.29 99.5468 63.2256C99.6917 63.1612 101.157 66.1237 102.831 69.8508C103.234 70.7685 103.636 71.646 103.982 72.4832C104.225 72.8956 104.318 73.3786 104.248 73.8517C104.204 73.9799 104.132 74.0961 104.035 74.1911C103.939 74.2862 103.821 74.3574 103.693 74.3991C103.503 74.4654 103.305 74.506 103.105 74.5198C102.356 74.6547 101.594 74.7006 100.835 74.6567Z" fill="#263238"/>
<path d="M95.359 60.4005C95.2383 60.7788 93.8537 60.6822 92.2517 60.972C90.6498 61.2618 89.3698 61.777 89.1364 61.447C89.0317 61.294 89.241 60.9318 89.7401 60.5373C90.4173 60.0516 91.1963 59.7266 92.0179 59.5871C92.8395 59.4476 93.6821 59.4973 94.4816 59.7323C95.0853 59.9416 95.4073 60.2153 95.359 60.4005Z" fill="#263238"/>
<path d="M108.086 60.827C107.869 61.149 106.903 60.8833 105.76 60.9316C104.617 60.9799 103.667 61.2617 103.425 60.9316C103.321 60.7787 103.425 60.4567 103.852 60.1266C104.397 59.7358 105.049 59.5197 105.72 59.5068C106.392 59.4784 107.056 59.6614 107.619 60.03C108.038 60.352 108.191 60.666 108.086 60.827Z" fill="#263238"/>
<path d="M109.344 55.1525C109.344 55.1525 106.663 49.6784 103.878 48.5192C100.513 47.1266 99.3133 50.8054 96.1416 50.1292C92.9699 49.453 89.7579 48.1006 86.707 50.6927C83.3743 53.5344 85.097 55.2974 85.097 59.2821C85.1453 75.4385 82.4646 80.1639 81.1927 72.629C81.0559 71.824 78.7052 71.2686 78.1659 67.799C77.4575 63.2749 76.9664 57.7526 77.7956 54.4602C78.4959 51.6909 79.9369 49.7187 82.6256 47.4808C86.8358 43.9549 92.8652 43.5363 96.9949 43.7134C101.125 43.8905 109.319 48.1006 109.344 55.1525Z" fill="#263238"/>
<path d="M81.7803 72.3236C81.7532 71.9929 81.6583 71.6713 81.5014 71.3788C81.3446 71.0864 81.1291 70.8295 80.8685 70.624C80.6079 70.4185 80.3078 70.269 79.9868 70.1847C79.6658 70.1004 79.331 70.0831 79.003 70.134C77.3447 70.3916 75.5415 71.4462 75.8474 74.8916C76.3948 81.0016 82.4162 79.1903 82.4162 79.0132C82.4162 78.8361 82.0298 74.8835 81.7803 72.3236Z" fill="#FFBF9D"/>
<path d="M80.8948 76.8303C80.8948 76.8303 80.7982 76.9188 80.6211 77.0154C80.3742 77.1475 80.0858 77.1793 79.8161 77.104C79.156 76.9269 78.52 75.9448 78.3912 74.85C78.3275 74.3266 78.3825 73.7955 78.5522 73.2963C78.5923 73.1011 78.6792 72.9186 78.8054 72.7643C78.9316 72.6101 79.0933 72.4888 79.2767 72.4108C79.3957 72.3686 79.5255 72.3688 79.6444 72.4113C79.7632 72.4538 79.8637 72.5361 79.9288 72.6443C80.0334 72.8053 80.0012 72.934 80.0334 72.9421C80.0656 72.9501 80.1542 72.8294 80.0817 72.5798C80.0362 72.4305 79.9392 72.3022 79.808 72.2176C79.6284 72.1045 79.4114 72.0669 79.2043 72.1129C78.9589 72.1861 78.7363 72.3205 78.5574 72.5036C78.3785 72.6868 78.2493 72.9125 78.1819 73.1595C77.9686 73.7126 77.894 74.3096 77.9646 74.8983C78.1175 76.1299 78.8501 77.2247 79.7517 77.4018C79.9198 77.4353 80.0934 77.4302 80.2593 77.387C80.4252 77.3438 80.5792 77.2635 80.7096 77.1523C80.8948 76.9832 80.9189 76.8464 80.8948 76.8303Z" fill="#FF9A6C"/>
<path d="M110.648 48.5191C109.706 47.8107 108.41 47.7141 107.476 46.9977C103.316 43.8042 96.6129 37.7091 90.8888 40.8959C88.7107 42.1085 85.9615 42.2125 84.0181 43.6006C83.4528 44.0475 82.9874 44.608 82.6519 45.2458C82.3164 45.8835 82.1182 46.5845 82.07 47.3036C82.07 47.3036 81.4341 46.9816 79.5021 48.5111C78.2704 49.4851 77.2642 51.5862 76.8134 53.0835C76.1452 55.3294 77.1193 57.6962 78.0772 59.8294C78.5924 60.9806 79.2364 62.2444 80.4359 62.655C81.8929 63.146 83.5029 62.0029 84.0745 60.57C84.646 59.1371 85.5476 57.6962 86.2399 56.3196C87.4474 53.9046 88.6549 51.6989 87.6648 50.1694C90.93 49.1089 93.0942 51.0056 95.9966 52.0289C97.2173 52.4594 102.143 53.276 103.5 52.9513C103.939 52.8464 104.349 52.6439 104.699 52.359C105.252 53.2599 106.124 53.9194 107.141 54.2059C108.159 54.4923 109.247 54.3848 110.189 53.9046C112.008 52.7776 112.33 49.791 110.648 48.5191Z" fill="#263238"/>
<path d="M77.4653 58.3875C77.7478 58.8294 77.9852 59.2987 78.1737 59.7882C78.3945 60.2826 78.7415 60.7102 79.18 61.0279C79.7661 61.3278 80.4411 61.405 81.0798 61.2452C81.7438 61.1164 82.3707 60.8414 82.9152 60.4402C83.3543 60.0994 83.7539 59.7106 84.1066 59.281C84.4148 58.8596 84.7568 58.4638 85.129 58.0977C84.9327 58.5852 84.6611 59.0388 84.324 59.442C83.9868 59.9161 83.5859 60.3413 83.1325 60.7059C82.5515 61.1447 81.8763 61.4424 81.1603 61.5753C80.4348 61.7551 79.6679 61.6484 79.019 61.2774C78.5341 60.9224 78.1645 60.4324 77.9564 59.8687C77.7324 59.397 77.5674 58.8995 77.4653 58.3875Z" fill="#B9B8B6"/>
<path d="M77.6989 63.1146C78.0674 63.394 78.474 63.619 78.9065 63.7828C79.3769 63.9318 79.8743 63.9757 80.3635 63.9116C80.9641 63.8203 81.5379 63.6007 82.046 63.2676C82.9688 62.6266 83.7521 61.805 84.3483 60.8526C84.5759 60.4394 84.8457 60.0509 85.1533 59.6934C85.0124 60.1539 84.8035 60.5907 84.5334 60.9894C83.9864 62.0378 83.1937 62.9383 82.2231 63.6137C81.6703 63.9795 81.0384 64.2085 80.3796 64.2819C79.8332 64.342 79.2805 64.2674 78.7696 64.0645C77.9485 63.6701 77.6587 63.1227 77.6989 63.1146Z" fill="#B9B8B6"/>
<path d="M96.7029 79.6289C96.4969 79.9662 96.3821 80.3164 96.3615 80.6697C96.3372 80.8368 96.3835 81.0047 96.4972 81.1618C96.6109 81.319 96.7894 81.4618 97.0205 81.5804C97.2599 81.7262 97.5589 81.8432 97.8964 81.9233C98.2338 82.0034 98.6015 82.0446 98.9734 82.0439C99.6443 82.0432 100.293 81.92 100.802 81.6964C101.311 81.4729 101.648 81.1636 101.752 80.8242L101.99 80.0558C100.601 79.8525 96.8061 79.6818 96.7029 79.6289Z" fill="#FF9A6C"/>
<path d="M100.948 81.1252C100.948 81.1252 100.753 81.1252 100.431 81.1411C99.9786 81.163 99.5184 81.163 99.0662 81.1411C98.4134 81.1089 97.8233 81.0007 97.4135 80.8381C96.9255 80.6348 96.6932 80.3822 96.7609 80.1285C96.7805 79.9858 96.8991 79.8462 97.1084 79.7193L96.9049 79.7485C98.3542 79.8176 99.6256 79.8734 100.524 79.9053C101.007 79.9336 101.499 79.9452 101.99 79.9399C101.532 79.884 101.054 79.8465 100.566 79.8282C99.668 79.7751 98.4136 79.7033 96.9643 79.6289H96.8287L96.7693 79.6661C96.4444 79.8636 96.3061 80.086 96.3707 80.3073C96.4353 80.5286 96.7 80.7395 97.1338 80.9152C97.6097 81.0951 98.291 81.2096 99.0323 81.2341C99.514 81.2474 99.9994 81.233 100.465 81.1916C100.639 81.1806 100.804 81.1579 100.948 81.1252Z" fill="#263238"/>
<path d="M60.4879 106.576C59.9566 106.576 52.3735 109.603 50.3771 117.041C48.3807 124.479 42.9308 151.769 42.9308 151.769L37.1428 159.787C37.1428 159.787 39.0185 174.414 49.6526 171.628C49.6526 171.628 56.7527 172.868 59.0147 165.671C61.2768 158.475 65.6641 137.005 65.6641 137.005L60.4879 106.576Z" fill="#B9B8B6"/>
<path d="M82.1472 94L78.1204 100.196L60 106.752L65.1865 160.234L63.2697 188.228C80 197.5 124.262 195.715 127 194.5C128.425 194.459 128.681 191.408 128.914 189.425C129.115 187.645 128.962 185.841 128.463 184.123L125.459 173.403C125.902 180.074 123.937 133.607 123.848 131.911L128.238 108.006L107.621 99.5154L104.399 94.5081L95.1215 101.687L82.1472 94Z" fill="#B9B8B6"/>
<path d="M127.447 108C127.447 108 131.804 111.654 132.523 114.468C133.242 117.281 148 152.5 148 152.5L151.5 159C153.065 163.716 155.827 165.568 155 170C153.281 179.214 137.73 177.58 131 170C126.83 165.295 122 146.176 122 146.176V125.479L127.447 108Z" fill="#B9B8B6"/>
<path d="M134.786 158.287L124.136 152L119 158.287L120.063 161.33L133.796 171.545C135.501 170.154 136.645 168.192 137.016 166.023C137.62 162.183 134.786 158.287 134.786 158.287Z" fill="#FFBF9D"/>
<path d="M149.725 158.365C149.653 158.44 149.069 157.734 147.794 157.133C146.135 156.366 144.298 156.071 142.482 156.28C140.656 156.521 138.871 157.009 137.176 157.733C136.477 158.069 135.748 158.34 135 158.544C135.613 158.061 136.292 157.668 137.015 157.377C138.712 156.525 140.542 155.97 142.426 155.735C144.341 155.506 146.279 155.876 147.975 156.794C148.696 157.14 149.304 157.685 149.725 158.365Z" fill="#263238"/>
<path d="M46.4649 153.709L36.507 145.449L30.7915 151.889L31.4919 155.037L43.9372 166.758C45.7822 165.7 47.1744 164.001 47.8495 161.984C49.0892 158.434 46.4649 153.709 46.4649 153.709Z" fill="#FFBF9D"/>
<path d="M36.3943 149.747C36.8225 148.399 36.8994 146.964 36.6176 145.578C36.3359 144.192 35.7048 142.9 34.7843 141.826C32.5191 139.475 29.8704 137.526 26.9516 136.062C25.1967 135.008 21.7191 131.337 20.9382 132.037C20.4752 132.455 20.1799 133.026 20.1074 133.646C20.0348 134.265 20.1899 134.889 20.5438 135.402C21.3488 136.94 25.2289 138.727 25.092 140.699C25.0778 140.89 25.026 141.076 24.9398 141.247C24.8536 141.418 24.7346 141.57 24.5896 141.695C24.4446 141.82 24.2764 141.915 24.0946 141.975C23.9129 142.034 23.7211 142.058 23.5303 142.044C20.3183 141.896 17.1157 141.587 13.9347 141.118C11.1252 140.538 8.52508 140.78 8.55728 141.77C8.58948 142.76 9.06443 143.38 11.3828 143.839C13.7012 144.298 17.5331 144.644 17.6619 145.167C17.7907 145.69 16.9776 145.972 15.6171 145.722C14.2567 145.473 7.81668 144.708 7.29343 145.392C7.16372 145.564 7.07381 145.763 7.03018 145.974C6.98654 146.185 6.99027 146.403 7.04109 146.613C7.09191 146.822 7.18855 147.018 7.32406 147.185C7.45957 147.353 7.63057 147.488 7.82473 147.582L9.27373 148.298C9.27373 148.298 8.25138 149.417 8.90343 150.182C9.55548 150.947 11.246 150.907 11.246 150.907L19.8273 151.663C19.8273 151.663 20.254 152.235 19.9642 152.557C19.6744 152.879 13.0492 151.607 12.9123 152.34C12.7755 153.072 12.1476 153.338 14.0957 154.062C16.9698 154.895 19.9619 155.246 22.9507 155.101C24.8183 154.819 32.4336 155.366 32.4336 155.366L36.3943 149.747Z" fill="#FFBF9D"/>
<path d="M107.54 101.006C107.002 101.678 106.404 102.301 105.753 102.865C104.618 103.976 103.065 105.53 101.422 107.301C101.076 107.679 100.73 108.05 100.408 108.412L100.191 108.645L99.9894 108.396C98.7175 106.786 97.6146 105.305 96.8418 104.25C96.3881 103.714 96.0015 103.125 95.6907 102.495C96.225 102.952 96.7058 103.468 97.1236 104.033C97.9688 105.031 99.128 106.448 100.416 108.058H100.005L101.012 106.939C102.426 105.41 103.92 103.956 105.488 102.584C106.105 101.976 106.794 101.446 107.54 101.006Z" fill="#263238"/>
<path d="M61.623 120.502C61.771 120.857 61.8711 121.231 61.9209 121.613C62.0738 122.337 62.267 123.392 62.4763 124.696C62.8949 127.304 63.3377 130.927 63.708 134.936C64.0783 138.945 64.352 142.583 64.5613 145.216C64.6418 146.439 64.7223 147.478 64.7786 148.331C64.8291 148.713 64.8291 149.1 64.7786 149.482C64.6638 149.115 64.5882 148.738 64.5532 148.355C64.4405 147.622 64.3037 146.56 64.1588 145.248C63.8529 142.631 63.5148 139.001 63.1445 134.992C62.7742 130.983 62.4119 127.369 62.098 124.793C61.945 123.577 61.8162 122.539 61.7116 121.693C61.6284 121.302 61.5986 120.901 61.623 120.502Z" fill="#263238"/>
<path d="M124.606 118.676C124.721 119.132 124.789 119.599 124.808 120.068C124.896 120.978 124.993 122.282 125.073 123.908C125.258 127.128 125.347 131.636 125.363 136.579V153.09C125.389 153.56 125.37 154.032 125.307 154.498C125.202 154.039 125.151 153.569 125.154 153.098C125.089 152.188 125.025 150.876 124.977 149.258C124.864 146.038 124.824 141.53 124.816 136.587C124.808 131.644 124.767 127.161 124.687 123.924C124.647 122.387 124.614 121.099 124.59 120.085C124.552 119.615 124.557 119.144 124.606 118.676Z" fill="#263238"/>
<path d="M53.4522 165.123C53.2003 164.209 53.0147 163.279 52.8968 162.338C52.5196 160.092 51.7915 157.918 50.7394 155.898C49.6657 153.917 48.0523 152.282 46.0865 151.181C45.2411 150.777 44.3666 150.438 43.4702 150.166C43.7354 150.109 44.01 150.109 44.2752 150.166C44.9726 150.283 45.6502 150.497 46.2877 150.802C48.4029 151.857 50.1364 153.546 51.2465 155.632C52.3118 157.706 52.9884 159.957 53.2429 162.274C53.4324 163.211 53.5027 164.168 53.4522 165.123Z" fill="#263238"/>
<path d="M56.0364 154.248C55.9237 154.377 54.3217 152.727 51.7135 151.833C49.1053 150.94 46.8835 151.246 46.8352 151.077C46.7869 150.908 49.1456 150.36 51.8906 151.318C54.6357 152.276 56.1571 154.184 56.0364 154.248Z" fill="#263238"/>
<path d="M96.8901 191.656C96.8413 191.358 96.8197 191.057 96.8257 190.755C96.8257 190.119 96.8257 189.258 96.7693 188.179C96.721 185.885 96.6566 182.657 96.5761 178.688C96.391 170.638 96.1334 159.585 95.8436 147.381C95.5538 135.177 95.4008 124.076 95.4169 116.059C95.4169 112.034 95.4572 108.814 95.5055 106.56C95.5055 105.481 95.5618 104.62 95.586 103.984C95.5792 103.682 95.6008 103.38 95.6504 103.082C95.6728 103.382 95.6728 103.684 95.6504 103.984C95.6504 104.62 95.6504 105.481 95.6504 106.56C95.6504 108.854 95.6987 112.09 95.7309 116.051C95.8114 124.101 96.0448 135.137 96.3185 147.365C96.5922 159.593 96.8337 170.662 96.8981 178.68C96.8981 182.705 96.8981 185.925 96.8981 188.179C96.8981 189.258 96.8981 190.119 96.8579 190.755C96.8892 191.054 96.8999 191.356 96.8901 191.656Z" fill="#263238"/>
<path d="M45.9979 153.37C45.9979 153.305 46.8029 153.909 47.4469 155.246C47.8415 156.007 48.1287 156.82 48.3002 157.661C48.4655 158.728 48.4655 159.814 48.3002 160.881C48.18 161.949 47.8634 162.986 47.3664 163.94C46.936 164.713 46.3427 165.383 45.6276 165.904C44.9987 166.426 44.2068 166.71 43.3896 166.709C44.0971 166.416 44.7673 166.041 45.3861 165.59C46.0209 165.069 46.5439 164.426 46.9236 163.698C47.3544 162.788 47.6266 161.81 47.7286 160.808C47.8735 159.804 47.8735 158.785 47.7286 157.781C47.5903 156.952 47.3553 156.141 47.0283 155.366C46.5292 154.086 45.9174 153.418 45.9979 153.37Z" fill="#263238"/>
<path d="M133.77 156.588C133.77 156.588 133.735 156.333 133.878 155.899C134.052 155.293 134.303 154.713 134.625 154.172C135.684 152.324 137.381 150.928 139.398 150.245C141.415 149.562 143.611 149.64 145.574 150.464C146.163 150.702 146.719 151.014 147.229 151.392C147.574 151.661 147.745 151.841 147.725 151.868C147.704 151.896 146.896 151.332 145.437 150.824C143.546 150.138 141.477 150.116 139.572 150.762C137.666 151.408 136.038 152.683 134.954 154.379C134.105 155.657 133.863 156.616 133.77 156.588Z" fill="#263238"/>
<path d="M21.1394 148.879C21.1394 149.024 18.4588 149.169 15.1502 149.008C11.8417 148.847 9.18514 148.46 9.20124 148.307C9.21734 148.155 11.8819 148.307 15.1744 148.46C18.4668 148.613 21.1394 148.718 21.1394 148.879Z" fill="#FF9A6C"/>
<path d="M27.2332 148.42C27.2332 148.477 26.5973 148.372 25.8406 147.736C25.3505 147.31 24.9606 146.781 24.699 146.187C24.4374 145.592 24.3104 144.948 24.3272 144.299C24.3845 143.612 24.5085 142.933 24.6975 142.27C24.8384 141.745 24.9061 141.203 24.8987 140.66C24.8525 140.175 24.7415 139.699 24.5687 139.243C24.5687 139.187 25.1563 139.613 25.2851 140.628C25.3502 141.198 25.3175 141.775 25.1885 142.334C25.037 142.973 24.9321 143.621 24.8746 144.274C24.8575 145.442 25.2998 146.569 26.1062 147.414C26.7261 148.138 27.2735 148.34 27.2332 148.42Z" fill="#FF9A6C"/>
<path d="M95.0386 101.971C94.717 103.043 94.3106 104.087 93.823 105.095C93.6057 105.578 93.3803 106.101 93.1468 106.64C92.9159 107.255 92.6471 107.854 92.3418 108.435C92.2256 108.626 92.0566 108.78 91.8552 108.877C91.6538 108.974 91.4286 109.011 91.2068 108.983C90.8168 108.88 90.4541 108.693 90.1442 108.435L88.2444 107.139C85.6522 105.352 83.3258 103.702 81.6514 102.494C80.7152 101.882 79.832 101.193 79.011 100.434C80.0083 100.936 80.9639 101.518 81.8687 102.172C83.5995 103.307 85.9662 104.893 88.5583 106.688L90.4501 107.993C90.6968 108.206 90.9844 108.368 91.2953 108.468C91.4222 108.483 91.5508 108.459 91.6642 108.401C91.7776 108.342 91.8707 108.25 91.9313 108.137C92.5431 107.027 93.0502 105.827 93.5413 104.917C93.9576 103.895 94.4584 102.91 95.0386 101.971Z" fill="#263238"/>
<path d="M36.5277 145.629C36.8095 147.015 36.7326 148.45 36.3044 149.798L32.3438 155.417C32.3438 155.417 27.4946 155.069 24.5863 155.071C26.6368 153.164 27.9101 150.499 27.9101 147.55C27.9101 144.8 27.3131 142.872 25.5 141C25.3427 139.927 23.5779 138.334 22.4076 137.386C21.568 136.705 20.7715 136.06 20.4539 135.453C20.1 134.94 19.9449 134.315 20.0175 133.696C20.09 133.077 20.3854 132.506 20.8483 132.088C21.3504 131.638 22.9673 132.995 24.5243 134.301C25.389 135.027 26.2351 135.737 26.8617 136.113C29.7806 137.576 32.4292 139.525 34.6944 141.877C35.6149 142.951 36.246 144.242 36.5277 145.629Z" fill="#FFBF9D"/>
<rect width="14.0387" height="42.6397" transform="matrix(0.996285 0.0861233 -0.110134 0.993917 103.12 126.805)" fill="#B38700"/>
<path d="M99.6875 127.555L119.648 129.28L118.029 143.893C117.725 146.637 115.248 148.669 112.497 148.432L102.499 147.567C99.7479 147.329 97.7642 144.912 98.0683 142.167L99.6875 127.555Z" fill="#FFD000"/>
<path d="M164.499 115.676C164.595 115.743 164.646 115.807 164.673 115.879C164.719 116.002 164.693 116.147 164.691 116.364L164.686 117.02L168.509 116.97C172.287 116.92 172.331 116.919 172.927 117.174C173.465 117.407 174.001 117.87 174.405 118.456C174.535 118.629 174.638 118.562 175.328 117.929C175.767 117.52 176.021 117.268 176.333 117.111C176.868 116.842 177.576 116.85 179.684 116.822C182.456 116.786 182.616 116.795 183.081 117.029C183.532 117.253 184.387 117.985 184.56 118.311C184.617 118.409 184.837 118.285 185.204 117.952C185.513 117.675 185.997 117.286 186.261 117.086L186.774 116.729L192.493 116.654L193.336 117.025L194.194 117.397L194.752 117.007C195.074 116.795 195.469 116.614 195.659 116.612C196.286 116.615 197.217 117.018 198.305 117.802L199.408 118.586L198.747 119.152C198.38 119.463 197.764 119.887 197.369 120.078L196.651 120.426L193.792 120.464C190.991 120.501 190.932 120.501 190.526 120.244C190.293 120.105 190.018 119.857 189.903 119.706L189.701 119.424L189.04 119.969L188.365 120.513L184.746 120.638C181.536 120.756 181.055 120.752 180.487 120.584C180.123 120.491 179.701 120.288 179.557 120.137L179.267 119.868L178.768 120.257L178.255 120.636L174.767 120.758C170.754 120.909 170.303 120.861 169.651 120.279L169.23 119.901L168.643 120.358C168.101 120.758 167.969 120.804 167.327 120.812C166.919 120.818 166.189 120.86 165.693 120.899L164.802 120.988L164.793 122.125L164.446 122.248L164.499 115.676Z" fill="#3C474C"/>
<path d="M108.388 109.686L161.082 112.36L167.744 115.57V122.525L161.082 124.13L108.388 125.734V109.686Z" fill="#D9D9D9"/>
<path d="M148.362 108.615L156.476 108.615C158.685 108.615 160.476 110.406 160.476 112.615L160.476 123.874C160.476 126.083 158.685 127.874 156.476 127.874L148.362 127.874L148.362 108.615Z" fill="#FFD000"/>
<path d="M120.921 103.266C120.921 103.266 61.1449 91.4965 42.9746 97.916C38.9524 99.3371 35.8223 105.406 35.8223 105.406L3 163.879L31.2175 176.235L54.7755 134.267L120.921 131.512L133.826 126.804L132.615 108.08L120.921 103.266Z" fill="#9C9C9C"/>
<path d="M35.0024 108.744L35.0631 108.967L35.2952 109.584C35.4464 110.138 35.8118 110.897 36.2489 111.832C37.4444 114.258 39.0433 116.543 41.0267 118.659C43.0129 120.771 45.2452 122.769 47.7126 124.643C48.6375 125.371 49.4184 125.947 49.954 126.347L50.5692 126.809L50.7735 126.978L50.5347 126.827L49.8923 126.382C49.3432 125.989 48.5487 125.421 47.6017 124.699C45.102 122.839 42.852 120.845 40.8645 118.729C38.8771 116.608 37.2907 114.312 36.1252 111.87C35.2895 109.968 35.0024 108.744 35.0024 108.744Z" fill="#263238"/>
<path d="M60.0007 131.884L60.2194 131.956L60.8628 132.103C61.4076 132.282 62.2425 132.397 63.2635 132.548C65.9464 132.89 68.7339 132.818 71.5932 132.332C74.4508 131.841 77.3489 131.082 80.2732 130.059C81.3908 129.69 82.3024 129.356 82.9319 129.131L83.6559 128.872L83.9103 128.796L83.652 128.911L82.9264 129.201C82.2961 129.442 81.3837 129.791 80.259 130.183C77.3279 131.24 74.4235 132.016 71.5624 132.506C68.697 132.993 65.9068 133.048 63.2271 132.673C61.1794 132.319 60.0007 131.884 60.0007 131.884Z" fill="#263238"/>
<path d="M85.5844 102.251L85.4018 102.111L84.8436 101.759C84.3888 101.409 83.6388 101.025 82.7254 100.544C80.3069 99.3336 77.6525 98.4795 74.7934 97.992C71.9345 97.5092 68.9486 97.2662 65.8504 97.2641C64.6735 97.243 63.703 97.2557 63.0343 97.2603L62.2655 97.2647L62.0001 97.2528L62.282 97.2294L63.0628 97.1957C63.7374 97.1765 64.7139 97.1493 65.9046 97.1523C69.0206 97.1242 72.0181 97.3532 74.8801 97.8378C77.7452 98.3268 80.3966 99.1975 82.8009 100.439C84.6164 101.45 85.5844 102.251 85.5844 102.251Z" fill="#263238"/>
<path d="M44.8292 100.429C43.7263 101 42.9217 101.421 43.0061 102.583C43.0709 103.387 43.0904 103.978 43.8949 104.062C44.1419 104.07 44.3883 104.033 44.6216 103.952C48.6832 102.829 52.9265 102.09 56.9881 100.967C57.4158 100.899 57.8062 100.683 58.0911 100.357C58.4544 99.8122 58.0132 98.5859 57.4423 98.255C56.7985 98.004 56.0977 97.9366 55.4179 98.0604C51.6807 98.255 48.4756 99.2023 44.9266 100.383" fill="#FFD000"/>
<path d="M47.8292 106.429C46.7263 107 45.9217 107.421 46.0061 108.583C46.0709 109.387 46.0904 109.978 46.8949 110.062C47.1419 110.07 47.3883 110.033 47.6216 109.952C51.6832 108.829 55.9265 108.09 59.9881 106.967C60.4158 106.899 60.8062 106.683 61.0911 106.357C61.4544 105.812 61.0132 104.586 60.4423 104.255C59.7985 104.004 59.0977 103.937 58.4179 104.06C54.6807 104.255 51.4756 105.202 47.9266 106.383" fill="#FFD000"/>
<path d="M50.8292 113.429C49.7263 114 48.9217 114.421 49.0061 115.583C49.0709 116.387 49.0904 116.978 49.8949 117.062C50.1419 117.07 50.3883 117.033 50.6216 116.952C54.6832 115.829 58.9265 115.09 62.9881 113.967C63.4158 113.899 63.8062 113.683 64.0911 113.357C64.4544 112.812 64.0132 111.586 63.4423 111.255C62.7985 111.004 62.0977 110.937 61.4179 111.06C57.6807 111.255 54.4756 112.202 50.9266 113.383" fill="#FFD000"/>
<path opacity="0.2" d="M35.5803 163.828C35.9241 163.836 36.071 162.786 35.9085 161.484L34.6524 151.42C34.4898 150.117 34.0792 149.054 33.7354 149.046C33.3915 149.038 33.2446 150.087 33.4072 151.39L34.6633 161.454C34.8259 162.757 35.2364 163.819 35.5803 163.828Z" fill="#263238"/>
<path opacity="0.2" d="M29.2414 160.31C29.5852 160.318 29.7322 159.269 29.5696 157.966L28.3135 147.902C28.1509 146.599 27.7403 145.537 27.3965 145.528C27.0527 145.52 26.9057 146.57 27.0683 147.872L28.3244 157.936C28.487 159.239 28.8976 160.302 29.2414 160.31Z" fill="#263238"/>
<path opacity="0.2" d="M22.9025 156.792C23.2464 156.801 23.3933 155.751 23.2307 154.449L21.9746 144.384C21.812 143.082 21.4015 142.019 21.0576 142.011C20.7138 142.003 20.5669 143.052 20.7295 144.355L21.9855 154.419C22.1481 155.722 22.5587 156.784 22.9025 156.792Z" fill="#263238"/>
<path opacity="0.2" d="M33.5156 163.228C33.8594 163.236 34.0063 162.187 33.8438 160.884L32.5877 150.82C32.4251 149.517 32.0145 148.455 31.6707 148.446C31.3268 148.438 31.1799 149.488 31.3425 150.79L32.5986 160.854C32.7612 162.157 33.1717 163.22 33.5156 163.228Z" fill="#263238"/>
<path opacity="0.2" d="M27.1767 159.71C27.5205 159.719 27.6675 158.669 27.5049 157.366L26.2488 147.302C26.0862 146 25.6756 144.937 25.3318 144.929C24.988 144.921 24.841 145.97 25.0036 147.273L26.2597 157.337C26.4223 158.64 26.8329 159.702 27.1767 159.71Z" fill="#263238"/>
<path opacity="0.2" d="M20.8378 156.191C21.1817 156.199 21.3286 155.15 21.166 153.847L19.9099 143.783C19.7473 142.48 19.3368 141.418 18.9929 141.409C18.6491 141.401 18.5022 142.451 18.6648 143.753L19.9209 153.817C20.0834 155.12 20.494 156.183 20.8378 156.191Z" fill="#263238"/>
<path opacity="0.2" d="M31.2929 161.49C31.6367 161.498 31.7837 160.448 31.6211 159.146L30.365 149.082C30.2024 147.779 29.7919 146.716 29.448 146.708C29.1042 146.7 28.9573 147.749 29.1198 149.052L30.3759 159.116C30.5385 160.419 30.9491 161.482 31.2929 161.49Z" fill="#263238"/>
<path opacity="0.2" d="M24.954 157.972C25.2979 157.98 25.4448 156.931 25.2822 155.628L24.0261 145.564C23.8636 144.261 23.453 143.199 23.1092 143.191C22.7653 143.182 22.6184 144.232 22.781 145.535L24.0371 155.599C24.1996 156.901 24.6102 157.964 24.954 157.972Z" fill="#263238"/>
<path opacity="0.2" d="M18.6152 154.455C18.959 154.463 19.1059 153.413 18.9434 152.111L17.6873 142.047C17.5247 140.744 17.1141 139.681 16.7703 139.673C16.4265 139.665 16.2795 140.714 16.4421 142.017L17.6982 152.081C17.8608 153.384 18.2713 154.446 18.6152 154.455Z" fill="#263238"/>
<path d="M77.61 125.934C77.9455 126.01 78.296 125.01 78.3927 123.7L79.14 113.586C79.2367 112.277 79.0431 111.154 78.7076 111.078C78.3721 111.003 78.0217 112.003 77.925 113.312L77.1777 123.427C77.0809 124.736 77.2745 125.858 77.61 125.934Z" fill="#263238"/>
<path d="M75.7038 124.94C76.0393 125.016 76.3897 124.016 76.4864 122.706L77.2337 112.592C77.3305 111.283 77.1369 110.16 76.8014 110.084C76.4659 110.009 76.1154 111.009 76.0187 112.318L75.2714 122.432C75.1747 123.742 75.3683 124.864 75.7038 124.94Z" fill="#263238"/>
<path d="M73.8659 122.801C74.2014 122.877 74.5518 121.877 74.6486 120.568L75.3958 110.453C75.4926 109.144 75.299 108.021 74.9635 107.946C74.628 107.87 74.2775 108.87 74.1808 110.179L73.4335 120.294C73.3368 121.603 73.5304 122.726 73.8659 122.801Z" fill="#263238"/>
<path d="M127.769 106.475L143.151 106.475C145.36 106.475 147.151 108.265 147.151 110.475L147.151 123.873C147.151 126.082 145.36 127.873 143.151 127.873L127.769 127.873L127.769 106.475Z" fill="#E5AD00"/>
<path d="M88.5913 96L115.528 97.8411C117.732 97.9918 119.397 99.9006 119.246 102.105L117.201 132.035C117.05 134.239 115.141 135.903 112.937 135.753L86.0001 133.912C90.5153 121.187 90.9347 112.801 88.5913 96Z" fill="#B38700"/>
<path d="M89.5913 96L116.528 97.8411C118.732 97.9918 120.397 99.9006 120.246 102.105L118.201 132.035C118.05 134.239 116.141 135.903 113.937 135.753L87.0001 133.912C91.5153 121.187 91.9347 112.801 89.5913 96Z" fill="#E5AD00"/>
<rect width="40.3334" height="13.2567" rx="2" transform="matrix(0.89837 0.439239 -0.531052 0.847339 10.04 153.553)" fill="#FFD000"/>
<path d="M116.584 104.251L116.402 104.111L115.844 103.759C115.389 103.409 114.639 103.025 113.725 102.544C111.307 101.334 108.652 100.48 105.793 99.992C102.935 99.5092 99.9486 99.2662 96.8504 99.2641C95.6735 99.243 94.703 99.2557 94.0343 99.2603L93.2655 99.2647L93.0001 99.2528L93.282 99.2294L94.0628 99.1957C94.7374 99.1765 95.7139 99.1493 96.9046 99.1523C100.021 99.1242 103.018 99.3532 105.88 99.8378C108.745 100.327 111.397 101.197 113.801 102.439C115.616 103.45 116.584 104.251 116.584 104.251Z" fill="#263238"/>
<path d="M147 109.74L146.941 109.688L146.764 109.553C146.618 109.424 146.385 109.268 146.101 109.076C145.351 108.584 144.55 108.187 143.707 107.891C142.864 107.596 141.996 107.367 141.106 107.204C140.767 107.137 140.489 107.09 140.297 107.056L140.077 107.017L140 107L140.08 107.008L140.302 107.038C140.495 107.068 140.774 107.11 141.117 107.173C142.01 107.328 142.881 107.553 143.725 107.849C144.57 108.146 145.371 108.547 146.118 109.048C146.685 109.448 147 109.74 147 109.74Z" fill="#263238"/>
<path d="M112.999 107.002L112.841 106.881L112.362 106.575C111.97 106.274 111.328 105.936 110.546 105.514C108.477 104.448 106.219 103.672 103.798 103.195C101.377 102.721 98.8545 102.443 96.2442 102.362C95.2521 102.314 94.4347 102.3 93.8715 102.286L93.2238 102.27L92.9999 102.253L93.2369 102.241L93.8938 102.233C94.4617 102.235 95.2837 102.237 96.287 102.27C98.9116 102.327 101.443 102.594 103.867 103.069C106.293 103.548 108.549 104.338 110.607 105.429C112.163 106.313 112.999 107.002 112.999 107.002Z" fill="#263238"/>
<path d="M146.175 113.418L146.122 113.372L145.964 113.248C145.832 113.132 145.624 112.989 145.37 112.812C144.701 112.358 143.991 111.982 143.249 111.689C142.506 111.396 141.744 111.158 140.967 110.974C140.67 110.899 140.428 110.845 140.26 110.807L140.067 110.763L140 110.744L140.07 110.755L140.264 110.792C140.432 110.827 140.676 110.878 140.975 110.949C141.755 111.125 142.519 111.361 143.262 111.654C144.006 111.949 144.717 112.329 145.384 112.789C145.891 113.156 146.175 113.418 146.175 113.418Z" fill="#263238"/>
<path d="M115.463 114.123L115.305 114.002L114.829 113.692C114.437 113.391 113.803 113.043 113.03 112.609C110.988 111.509 108.778 110.67 106.426 110.101C104.075 109.537 101.637 109.149 99.1238 108.942C98.1678 108.847 97.3814 108.792 96.8393 108.751L96.216 108.703L96 108.677L96.2271 108.677L96.8581 108.703C97.4041 108.733 98.1943 108.777 99.1604 108.858C101.686 109.044 104.133 109.421 106.486 109.988C108.843 110.557 111.051 111.409 113.084 112.532C114.624 113.437 115.463 114.123 115.463 114.123Z" fill="#263238"/>
<path d="M146.902 122.492L146.822 122.562L146.58 122.743C146.38 122.919 146.058 123.123 145.665 123.376C144.625 124.019 143.501 124.509 142.305 124.841C141.108 125.171 139.868 125.397 138.589 125.518C138.103 125.574 137.703 125.606 137.427 125.63L137.11 125.657L137 125.673L137.115 125.673L137.437 125.658C137.714 125.64 138.116 125.615 138.608 125.567C139.893 125.458 141.138 125.238 142.335 124.907C143.534 124.574 144.658 124.077 145.692 123.421C146.476 122.892 146.902 122.492 146.902 122.492Z" fill="#263238"/>
<path d="M95.0005 131.281L95.1922 131.332L95.751 131.436C96.2286 131.565 96.9474 131.643 97.8274 131.748C100.135 131.983 102.498 131.912 104.888 131.537C107.276 131.159 109.677 130.583 112.078 129.813C112.998 129.535 113.745 129.284 114.262 129.115L114.856 128.92L115.066 128.862L114.856 128.949L114.263 129.166C113.747 129.347 113 129.609 112.076 129.904C109.672 130.699 107.267 131.287 104.876 131.665C102.481 132.041 100.115 132.099 97.8066 131.84C96.0377 131.593 95.0005 131.281 95.0005 131.281Z" fill="#263238"/>
<path d="M96.0005 125.281L96.1922 125.332L96.751 125.436C97.2286 125.565 97.9474 125.643 98.8274 125.748C101.135 125.983 103.498 125.912 105.888 125.537C108.276 125.159 110.677 124.583 113.078 123.813C113.998 123.535 114.745 123.284 115.262 123.115L115.856 122.92L116.066 122.862L115.856 122.949L115.263 123.166C114.747 123.347 114 123.609 113.076 123.904C110.672 124.699 108.267 125.287 105.876 125.665C103.481 126.041 101.115 126.099 98.8066 125.84C97.0377 125.593 96.0005 125.281 96.0005 125.281Z" fill="#263238"/>
<path d="M114.592 145.525C113.205 144.631 111.939 143.904 111.576 144.323C110.892 145.112 110.586 146.287 111.576 147.72C111.945 148.255 112.961 148.887 114.047 149.564C114.078 149.582 114.108 149.601 114.138 149.62L114.592 145.525Z" fill="#455A64" fill-opacity="0.2"/>
<path d="M114.241 152.867C111.579 153.008 108.912 153.038 106.247 152.958C103.398 152.708 100.838 153.256 100.991 154.238C101.144 155.22 101.675 155.759 104.034 155.961C104.818 156.027 105.767 156.055 106.692 156.082C108.549 156.137 110.313 156.188 110.474 156.548C110.715 157.088 109.878 157.434 108.501 157.353C107.125 157.273 100.637 157.249 100.194 157.989C100.086 158.177 100.021 158.387 100.005 158.603C99.9875 158.819 100.019 159.036 100.096 159.238C100.173 159.441 100.294 159.623 100.45 159.774C100.606 159.924 100.793 160.037 100.999 160.106L102.52 160.646C102.52 160.646 101.635 161.877 102.375 162.562C103.116 163.246 104.79 163.004 104.79 163.004L113.144 162.77L114.241 152.867Z" fill="#455A64" fill-opacity="0.2"/>
<path d="M113.036 163.749L112.763 166.212C111.166 166.232 109.567 166.109 107.986 165.846C106.362 165.417 106.431 165.114 106.544 164.624C106.571 164.507 106.6 164.379 106.61 164.236C106.638 163.798 109.009 163.791 110.992 163.785C111.799 163.782 112.541 163.78 113.036 163.749Z" fill="#455A64" fill-opacity="0.2"/>
<path d="M129.576 159.916C129.842 158.526 129.747 157.09 129.3 155.747C128.853 154.404 128.07 153.198 127.024 152.244C124.51 150.176 121.666 148.543 118.612 147.414C116.745 146.609 112.856 143.333 112.172 144.122C111.488 144.911 111.182 146.086 112.172 147.519C113.162 148.952 118.789 151.085 118 152.896C117.678 153.629 115.907 153.766 115.907 153.766C112.693 153.992 109.469 154.056 106.247 153.959C103.398 153.709 100.838 154.257 100.991 155.239C101.144 156.221 101.675 156.76 104.034 156.961C106.392 157.163 110.232 157.01 110.474 157.549C110.715 158.088 109.878 158.435 108.501 158.354C107.125 158.274 100.637 158.249 100.194 158.99C100.086 159.178 100.021 159.388 100.004 159.603C99.9875 159.819 100.019 160.036 100.096 160.239C100.173 160.441 100.294 160.624 100.45 160.774C100.606 160.925 100.793 161.038 100.999 161.107L102.52 161.647C102.52 161.647 101.635 162.878 102.375 163.562C103.116 164.247 104.79 164.005 104.79 164.005L113.396 163.764C113.396 163.764 113.887 164.279 113.645 164.633C113.404 164.987 106.658 164.496 106.61 165.237C106.561 165.977 105.974 166.316 107.986 166.847C110.934 167.338 113.942 167.338 116.89 166.847C118.709 166.348 126.332 166.042 126.332 166.042L129.576 159.916Z" fill="#FFBF9D"/>
<g opacity="0.3">
<path d="M76.2393 58.3656C76.2393 58.3656 81.5077 53.6552 91.6292 52.403C101.751 51.1508 112.476 51.313 114.643 50.2879L112.047 48.9902L80.781 52.7339L75.3828 55.7704L76.2393 58.3656Z" fill="black"/>
</g>
<path d="M87.3145 34.3139C86.9382 34.3982 77.8158 37.1557 75.9927 44.2278C74.1695 51.2999 75 53.3761 75 53.3761C74.6561 53.6324 74.3503 53.936 74.0916 54.278C73.7348 54.7581 74.455 56.8733 75.6488 56.5618C84.4208 51.9033 95.1133 50.7225 107.084 50.2424L116.219 49.4768C118.815 48.9577 114.202 47.0437 113.079 46.4792C112.216 46.0445 108.323 44.5328 108.323 44.5328C107.148 42.8403 105.771 41.2977 104.223 39.9391C104.223 39.9391 104.943 38.7778 103.976 38.2392C103.009 37.7007 94.8084 32.7178 87.3145 34.3139Z" fill="#FFD000"/>
<path d="M108.68 44.5138H108.323L107.305 44.5657C106.416 44.5657 105.131 44.6955 103.555 44.8447C99.4389 45.2824 95.37 46.0836 91.3957 47.2388C87.4262 48.3972 83.5268 49.7836 79.717 51.3913C78.2506 51.9882 77.0698 52.5007 76.2523 52.8511L75.3115 53.2534L74.9741 53.3831L75.2985 53.2209L76.2263 52.7927C77.0374 52.4294 78.2117 51.9038 79.678 51.2874C83.4813 49.6502 87.3815 48.2483 91.3568 47.0896C95.3397 45.9322 99.4206 45.1438 103.548 44.7344C106.734 44.4749 108.68 44.5138 108.68 44.5138Z" fill="#263238"/>
<g opacity="0.3">
<path d="M79.1394 38.9926C79.1394 38.9926 89.0209 36.6633 93.6469 38.493L93.1084 38.2724C94.5618 38.7914 95.5415 39.875 97.0013 40.394C97.3019 40.5385 97.6352 40.6014 97.9677 40.5763C98.3003 40.5512 98.6204 40.4392 98.8959 40.2513C97.003 39.1451 95.0539 38.1381 93.0565 37.2343C88.9041 35.6447 83.0518 35.729 79.1394 38.9926Z" fill="black"/>
</g>
<path d="M78.9966 39.044C79.2645 38.8055 79.5508 38.5885 79.853 38.3952C80.6604 37.8439 81.5319 37.3929 82.4483 37.0522C83.8027 36.5371 85.2262 36.2266 86.6721 36.1308C88.4417 35.9664 90.2258 36.1878 91.9016 36.7796C92.7584 37.1051 93.5947 37.4821 94.406 37.9086C95.1911 38.3173 95.9632 38.6742 96.6639 39.0959C97.3051 39.5127 97.9801 39.8752 98.6817 40.1794C99.3019 40.4145 99.9685 40.5012 100.628 40.4325C103.074 40.2833 104.521 39.6669 104.417 39.5241C104.384 39.6132 104.319 39.6871 104.236 39.7318C104.005 39.8631 103.758 39.9655 103.502 40.0367C102.568 40.3103 101.606 40.4779 100.635 40.5363C99.9573 40.6154 99.2708 40.5354 98.6298 40.3027C97.9188 39.9981 97.2351 39.6334 96.586 39.2127C95.8918 38.8104 95.1132 38.4536 94.3281 38.0448C93.5234 37.6204 92.6936 37.2456 91.8432 36.9224C90.1786 36.3402 88.4092 36.1191 86.6526 36.2736C85.2201 36.3672 83.8085 36.6665 82.4613 37.1624C81.552 37.5004 80.6819 37.9354 79.866 38.4601C79.574 38.6482 79.3534 38.804 79.2172 38.9078L78.9966 39.044Z" fill="#263238"/>
<g opacity="0.3">
<path d="M75.3309 47.1726L75.3763 46.8547C76.9463 46.3686 78.5485 45.9935 80.1711 45.7323C82.0634 45.3936 83.9284 44.9165 85.7509 44.3049C87.1459 43.8247 88.8004 43.3576 89.6438 42.2676C89.7336 42.6072 89.7354 42.9641 89.6491 43.3046C89.5629 43.6451 89.3913 43.9581 89.1507 44.214C88.6447 44.7785 86.9188 45.5117 86.2051 45.7777C82.137 47.2051 79.3147 48.1718 75.0325 48.7752C75.0938 48.2346 75.1935 47.6991 75.3309 47.1726Z" fill="black"/>
</g>
<path d="M76.3104 43.2216C75.2075 43.7925 74.4029 44.2142 74.4873 45.3756C74.5522 46.1802 74.5716 46.7706 75.3761 46.8549C75.6231 46.8634 75.8695 46.826 76.1028 46.7446C80.1644 45.6222 84.4077 44.8825 88.4693 43.7601C88.897 43.6922 89.2874 43.4764 89.5723 43.1502C89.9356 42.6052 89.4944 41.3789 88.9235 41.048C88.2797 40.7969 87.5789 40.7295 86.8991 40.8534C83.1619 41.048 79.9568 41.9953 76.4078 43.1761" fill="#FFD000"/>
<path d="M89.3907 43.3455C89.5391 43.1902 89.6423 42.9972 89.6892 42.7876C89.7355 42.4981 89.6992 42.2015 89.5844 41.9317C89.4697 41.662 89.2811 41.4301 89.0404 41.2628C88.2653 40.8574 87.3762 40.7248 86.5165 40.8865C85.5238 41.0098 84.4403 41.1525 83.3048 41.3472C81.3662 41.6534 79.4594 42.1355 77.6082 42.7876C76.901 43.0341 76.3106 43.2742 75.9537 43.4364L75.5061 43.6375L75.3503 43.6959L75.4931 43.6051L75.9278 43.3845C76.3106 43.1963 76.8621 42.9433 77.5693 42.6773C79.4188 41.9949 81.3314 41.4972 83.2789 41.1915C84.4208 40.9968 85.5043 40.8541 86.523 40.7373C87.4116 40.5784 88.3278 40.7296 89.1182 41.1655C89.3664 41.3492 89.5565 41.6004 89.6658 41.8892C89.775 42.178 89.799 42.4921 89.7346 42.794C89.6965 42.9557 89.6184 43.1051 89.5075 43.2287C89.4426 43.3196 89.3972 43.352 89.3907 43.3455Z" fill="#263238"/>
<path d="M105.176 41.373L98.3054 41.9505L98.4417 43.8969L106.889 43.1184L105.176 41.373Z" fill="white"/>
</svg>
