<svg width="200" height="200" viewBox="0 0 200 200" fill="none" xmlns="http://www.w3.org/2000/svg">
<g clip-path="url(#clip0_675_30742)">
<path fill-rule="evenodd" clip-rule="evenodd" d="M96.6489 40.0786C72.5164 41.5624 60.8087 65.3973 46.0572 82.1754C34.101 95.7741 23.0389 109.409 20.7142 126.445C18.0291 146.122 16.4425 168.605 32.3369 182.721C48.2827 196.882 74.0361 195.809 96.6489 193.883C119.863 194.322 138.62 187.342 149.552 172.737C165.068 160.174 178.921 144.922 179.935 126.445C180.989 107.244 169.055 90.1752 154.888 75.4837C139.04 59.05 121.162 38.5713 96.6489 40.0786Z" fill="#FFF3CC"/>
<path d="M76.0433 130.609V129.572L57.5889 140.248L58.4704 140.766L76.0433 130.609Z" fill="#37474F"/>
<path d="M53.0339 60.343C53.0792 60.3692 53.1151 60.4091 53.1365 60.4569C53.1578 60.5047 53.1634 60.5581 53.1526 60.6093L37.8645 128.483L37.4255 130.408C37.2158 130.424 37.0057 130.383 36.8175 130.289L35.792 129.699C35.747 129.672 35.7118 129.631 35.6911 129.583C35.6705 129.534 35.6655 129.481 35.6769 129.429L51.3716 59.753C51.3801 59.7157 51.3971 59.6809 51.4215 59.6515C51.4458 59.622 51.4767 59.5986 51.5116 59.5832C51.5466 59.5678 51.5847 59.5608 51.6229 59.5628C51.661 59.5648 51.6982 59.5757 51.7314 59.5946L53.0339 60.343Z" fill="#37474F"/>
<path d="M54.9514 59.418L39.1775 129.422C39.1655 129.477 39.142 129.529 39.1085 129.574C39.075 129.619 39.0323 129.657 38.9833 129.684L37.9578 130.278C37.7944 130.366 37.611 130.411 37.4253 130.408L37.8643 128.483L53.1776 60.4326L54.9514 59.418Z" fill="#455A64"/>
<path d="M56.7147 153.759V155.784C56.5174 155.788 56.3222 155.744 56.1462 155.655L55.1927 155.104C55.1287 155.075 55.0736 155.029 55.0331 154.972C54.9926 154.914 54.9682 154.847 54.9624 154.777V93.9805L56.7254 94.9951L56.7147 153.759Z" fill="#37474F"/>
<path d="M58.474 93.9844V154.791C58.464 154.858 58.4373 154.921 58.3964 154.974C58.3555 155.028 58.3018 155.07 58.2402 155.097L57.2903 155.651C57.1143 155.749 56.9156 155.797 56.7146 155.792V94.9846L58.474 93.9844Z" fill="#455A64"/>
<path d="M79.5261 142.611C79.3337 142.603 79.1462 142.548 78.9792 142.453L78.0041 141.888C77.9416 141.851 77.8877 141.802 77.8461 141.743C77.8045 141.684 77.7762 141.617 77.763 141.546L67.2783 86.8555L69.0378 87.8701L79.1555 140.636L79.5261 142.611Z" fill="#37474F"/>
<path d="M81.2819 141.586C81.2754 141.658 81.2495 141.727 81.2071 141.785C81.1646 141.843 81.1072 141.889 81.0409 141.917L80.163 142.45L80.1198 142.475C79.9424 142.568 79.7444 142.615 79.5441 142.612L79.1843 140.644L69.0342 87.8782L70.8008 86.8672L81.2676 141.511L81.2819 141.586Z" fill="#455A64"/>
<path d="M57.866 143.137L77.8028 131.627V129.598L57.866 141.108V143.137Z" fill="#455A64"/>
<path d="M41.6025 106.52V107.24C41.6131 107.435 41.6698 107.625 41.768 107.795C41.8661 107.964 42.003 108.108 42.1674 108.215L48.0718 111.622C48.2456 111.711 48.438 111.757 48.6331 111.757C48.8283 111.757 49.0206 111.711 49.1944 111.622L76.1439 96.0676C76.3074 95.9606 76.4434 95.8165 76.5409 95.6471C76.6385 95.4777 76.6947 95.2878 76.7051 95.0926V94.373C76.6947 94.1783 76.6384 93.9888 76.5409 93.82C76.4434 93.6512 76.3073 93.5078 76.1439 93.4015L70.2394 89.9905C70.065 89.9017 69.8721 89.8555 69.6763 89.8555C69.4806 89.8555 69.2877 89.9017 69.1133 89.9905L42.1674 105.545C42.003 105.651 41.8661 105.795 41.768 105.965C41.6698 106.134 41.6131 106.324 41.6025 106.52Z" fill="#FFD000"/>
<path opacity="0.4" d="M42.1677 106.196L48.0721 109.596C48.2459 109.684 48.4382 109.731 48.6334 109.731C48.8285 109.731 49.0209 109.684 49.1947 109.596L76.1441 94.0413C76.2049 94.0119 76.2562 93.9659 76.2921 93.9086C76.328 93.8513 76.3471 93.7851 76.3471 93.7175C76.3471 93.6499 76.328 93.5837 76.2921 93.5264C76.2562 93.4691 76.2049 93.4231 76.1441 93.3937L70.2397 89.9827C70.0653 89.8939 69.8723 89.8477 69.6766 89.8477C69.4809 89.8477 69.2879 89.8939 69.1135 89.9827L42.1677 105.544C42.1059 105.573 42.0536 105.619 42.017 105.677C41.9804 105.735 41.9609 105.802 41.9609 105.87C41.9609 105.938 41.9804 106.005 42.017 106.063C42.0536 106.12 42.1059 106.166 42.1677 106.196Z" fill="white"/>
<path opacity="0.1" d="M48.6334 109.74V111.754C48.4382 111.757 48.2453 111.712 48.0721 111.621L42.1677 108.21C42.0051 108.103 41.8696 107.96 41.7722 107.791C41.6748 107.622 41.618 107.433 41.6064 107.239V106.519C41.6155 106.347 41.6601 106.179 41.7376 106.026C41.815 105.872 41.9235 105.736 42.0562 105.627C41.8619 105.803 41.9015 106.041 42.1677 106.195L48.0721 109.596C48.2445 109.689 48.4373 109.739 48.6334 109.74Z" fill="black"/>
<path d="M40.0268 111.78L38.3861 110.83C38.1104 110.651 37.8778 110.413 37.7049 110.133C37.532 109.853 37.4231 109.538 37.3858 109.211L34 50.4911C33.998 50.1695 34.0771 49.8526 34.2299 49.5696C34.3827 49.2866 34.6043 49.0467 34.8744 48.872L73.4023 26.6576C73.6922 26.5103 74.0127 26.4336 74.3378 26.4336C74.6629 26.4336 74.9835 26.5103 75.2733 26.6576L76.9248 27.6075C77.2005 27.7867 77.4329 28.025 77.6053 28.305C77.7776 28.585 77.8856 28.8998 77.9215 29.2266L81.3108 87.9469C81.3129 88.2685 81.2338 88.5854 81.081 88.8684C80.9282 89.1513 80.7065 89.3913 80.4365 89.566L41.9014 111.78C41.6109 111.928 41.2898 112.004 40.9641 112.004C40.6384 112.004 40.3173 111.928 40.0268 111.78Z" fill="#E0E0E0"/>
<path d="M77.8927 29.0643C77.792 28.5894 77.3854 28.4203 76.914 28.7045L38.3861 50.9009C38.1091 51.0767 37.8862 51.3258 37.742 51.6205L34.2231 49.5912C34.3733 49.2983 34.5979 49.0502 34.8744 48.8716L73.4023 26.6608C73.6921 26.5153 74.0118 26.4395 74.336 26.4395C74.6603 26.4395 74.98 26.5153 75.2697 26.6608L76.9248 27.6143C77.1747 27.7793 77.389 27.9925 77.5553 28.2415C77.7215 28.4906 77.8362 28.7703 77.8927 29.0643Z" fill="#FAFAFA"/>
<path d="M37.5117 52.5198L40.9011 111.24C40.8888 111.361 40.9126 111.483 40.9695 111.59C41.0265 111.698 41.114 111.786 41.221 111.844C41.3281 111.902 41.4498 111.926 41.5709 111.915C41.692 111.903 41.807 111.856 41.9013 111.78L80.4293 89.5653C80.6993 89.3906 80.921 89.1507 81.0738 88.8677C81.2266 88.5847 81.3056 88.2678 81.3036 87.9462L77.9143 29.226C77.9277 29.105 77.9047 28.9828 77.8483 28.875C77.7919 28.7672 77.7046 28.6786 77.5976 28.6207C77.4906 28.5627 77.3687 28.538 77.2476 28.5497C77.1264 28.5614 77.0116 28.6089 76.9176 28.6863L38.386 50.9007C38.1172 51.0766 37.8964 51.3167 37.7438 51.5995C37.5911 51.8822 37.5113 52.1985 37.5117 52.5198Z" fill="#F0F0F0"/>
<path d="M49.2594 40.5703L52.7459 42.5852C52.8925 42.6598 53.0546 42.6987 53.219 42.6987C53.3835 42.6987 53.5456 42.6598 53.6922 42.5852L63.0903 37.1594C63.2275 37.069 63.3417 36.9477 63.4235 36.8052C63.5054 36.6628 63.5527 36.5031 63.5616 36.339V35.7273C63.5527 35.5633 63.5054 35.4036 63.4235 35.2611C63.3417 35.1186 63.2275 34.9973 63.0903 34.907L59.6002 32.8921C59.4537 32.8192 59.2924 32.7812 59.1288 32.7812C58.9653 32.7812 58.8039 32.8192 58.6575 32.8921L49.2594 38.3179C49.1213 38.4077 49.0063 38.5287 48.9237 38.6713C48.8412 38.8138 48.7935 38.9738 48.7844 39.1383V39.7536C48.7935 39.9175 48.8412 40.077 48.9238 40.219C49.0063 40.361 49.1213 40.4813 49.2594 40.5703Z" fill="#FFD000"/>
<path opacity="0.4" d="M49.2595 38.8662L52.746 40.8739C52.8926 40.9485 53.0547 40.9873 53.2191 40.9873C53.3836 40.9873 53.5457 40.9485 53.6923 40.8739L63.0904 35.448C63.148 35.4291 63.1981 35.3925 63.2337 35.3434C63.2692 35.2943 63.2884 35.2352 63.2884 35.1746C63.2884 35.114 63.2692 35.0549 63.2337 35.0058C63.1981 34.9567 63.148 34.92 63.0904 34.9011L59.6003 32.8862C59.4539 32.8133 59.2925 32.7754 59.1289 32.7754C58.9654 32.7754 58.804 32.8133 58.6576 32.8862L49.2595 38.3193C49.2019 38.3382 49.1518 38.3748 49.1162 38.4239C49.0807 38.473 49.0615 38.5321 49.0615 38.5927C49.0615 38.6533 49.0807 38.7124 49.1162 38.7615C49.1518 38.8106 49.2019 38.8472 49.2595 38.8662Z" fill="white"/>
<path opacity="0.1" d="M53.1778 40.9914V42.6897C53.0335 42.6889 52.8915 42.6531 52.764 42.5853L49.2775 40.574C49.1401 40.4839 49.0258 40.3626 48.9439 40.2201C48.862 40.0776 48.8148 39.9178 48.8062 39.7537V39.1384C48.8136 38.9925 48.8518 38.8498 48.9181 38.7196C48.9845 38.5894 49.0775 38.4746 49.1911 38.3828C49.0184 38.5267 49.0472 38.7426 49.2775 38.865L52.746 40.8727C52.8776 40.9482 53.0261 40.989 53.1778 40.9914Z" fill="black"/>
<path d="M50.123 21.0228C50.1173 20.8877 50.1477 20.7536 50.2109 20.6341C50.2741 20.5146 50.3679 20.4141 50.4828 20.3428L52.6416 19.0942C52.7637 19.0323 52.8987 19 53.0356 19C53.1725 19 53.3075 19.0323 53.4296 19.0942L54.3075 19.598C54.4237 19.6748 54.5227 19.7749 54.5983 19.892C54.6739 20.009 54.7243 20.1405 54.7465 20.278L56.1857 34.3284L51.7385 36.8866L50.123 21.0228Z" fill="#455A64"/>
<path d="M53.2172 36.0334L51.7384 36.8861L50.1193 21.0259C50.1121 20.8941 50.1394 20.7626 50.1985 20.6445L51.8644 21.6016C51.8028 21.7201 51.7754 21.8534 51.7852 21.9866L53.2172 36.0334Z" fill="#263238"/>
<path d="M51.7888 21.9825C51.7828 21.8474 51.813 21.7131 51.8762 21.5935C51.9395 21.474 52.0335 21.3735 52.1486 21.3025L54.3075 20.054C54.348 20.0213 54.3971 20.001 54.4488 19.9956C54.5006 19.9902 54.5528 19.9999 54.5992 20.0234C54.6456 20.047 54.6841 20.0835 54.7103 20.1285C54.7364 20.1735 54.749 20.2251 54.7464 20.277L56.1857 34.3274L53.2281 36.0329L51.7888 21.9825Z" fill="#37474F"/>
<path d="M107.94 44.8647L107.07 44.8164C102.876 44.5763 98.7456 45.9237 95.4999 48.5907C92.2541 51.2577 90.1313 55.0488 89.5536 59.2099C88.4427 67.2599 89.7307 68.6774 89.5536 73.0002C89.1431 81.968 97.816 88.5002 97.816 88.5002L95.2933 94.952C95.1675 96.3825 95.3256 97.8237 95.7585 99.1929C96.1915 100.562 96.8907 101.832 97.816 102.93C98.7413 104.029 99.8745 104.933 101.151 105.592C102.426 106.251 103.82 106.651 105.251 106.769C108.103 106.998 110.93 106.096 113.123 104.259C115.316 102.422 116.698 99.796 116.972 96.9484L120.192 63.6937C121.496 54.4362 117.23 45.9515 107.94 44.8647Z" fill="#FFBF9D"/>
<path d="M98 88.5007C102.149 88.7417 106.371 87.6491 110 85.6777C110 85.6777 105.881 91.7827 97 90.5007L98 88.5007Z" fill="#FF9A6C"/>
<path d="M104.004 68.3284C103.975 68.7349 104.102 69.1368 104.357 69.447C104.613 69.7572 104.976 69.9508 105.368 69.9858C105.559 70.0133 105.753 70.0008 105.939 69.9492C106.125 69.8975 106.299 69.8078 106.451 69.6852C106.603 69.5627 106.729 69.4099 106.823 69.2358C106.917 69.0617 106.976 68.8698 106.997 68.6716C107.021 68.2663 106.892 67.8672 106.638 67.5581C106.384 67.249 106.023 67.054 105.633 67.0142C105.442 66.9867 105.248 66.9992 105.062 67.0509C104.876 67.1025 104.702 67.1922 104.55 67.3148C104.398 67.4373 104.272 67.5901 104.178 67.7642C104.084 67.9383 104.025 68.1302 104.004 68.3284Z" fill="#263238"/>
<path d="M91.212 63.701C91.3649 63.8781 92.3712 63.21 93.7477 63.2985C95.1243 63.3871 96.0984 64.1035 96.2513 63.9667C96.4043 63.8298 96.1869 63.5883 95.7683 63.2422C95.1958 62.793 94.4986 62.5316 93.7719 62.4935C93.0568 62.4539 92.3472 62.6397 91.7433 63.0248C91.3166 63.3227 91.1556 63.6125 91.212 63.701Z" fill="#263238"/>
<path d="M92.0028 68.3284C91.9789 68.7337 92.1076 69.1328 92.3621 69.4419C92.6165 69.751 92.9767 69.946 93.3671 69.9858C93.5579 70.0133 93.752 70.0008 93.938 69.9491C94.1241 69.8975 94.2982 69.8078 94.4501 69.6852C94.6021 69.5627 94.7287 69.4099 94.8226 69.2358C94.9165 69.0617 94.9756 68.8698 94.9966 68.6716C95.023 68.2657 94.8951 67.8652 94.6402 67.5556C94.3854 67.2459 94.0237 67.0516 93.6323 67.0142C93.4416 66.9867 93.2474 66.9992 93.0614 67.0509C92.8754 67.1025 92.7012 67.1922 92.5493 67.3148C92.3974 67.4373 92.2707 67.5901 92.1769 67.7642C92.083 67.9383 92.0238 68.1302 92.0028 68.3284Z" fill="#263238"/>
<path d="M104.744 64.7316C104.889 64.9087 105.903 64.2486 107.28 64.3291C108.656 64.4096 109.622 65.1341 109.783 64.9973C109.944 64.8604 109.719 64.6189 109.292 64.2728C108.724 63.8278 108.033 63.5691 107.312 63.5322C106.596 63.4864 105.885 63.6727 105.283 64.0635C104.833 64.3613 104.672 64.6511 104.744 64.7316Z" fill="#263238"/>
<path d="M99.1652 74.6567C98.4536 74.3823 97.7095 74.201 96.9514 74.1173C96.5972 74.061 96.2752 73.9724 96.2269 73.7309C96.2149 73.3658 96.3162 73.0059 96.5167 72.7005C96.9031 71.8955 97.3217 71.002 97.7162 70.0843C99.3745 66.3571 100.598 63.29 100.453 63.2256C100.308 63.1612 98.8432 66.1237 97.1688 69.8508C96.7663 70.7685 96.3638 71.646 96.0176 72.4832C95.7753 72.8956 95.6816 73.3786 95.752 73.8517C95.7956 73.9799 95.8685 74.0961 95.9649 74.1911C96.0613 74.2862 96.1786 74.3574 96.3074 74.3991C96.497 74.4654 96.6947 74.506 96.8951 74.5198C97.6438 74.6547 98.4057 74.7006 99.1652 74.6567Z" fill="#263238"/>
<path d="M104.641 60.4005C104.761 60.7788 106.146 60.6822 107.748 60.972C109.35 61.2618 110.63 61.777 110.863 61.447C110.968 61.294 110.759 60.9318 110.26 60.5373C109.582 60.0516 108.803 59.7266 107.982 59.5871C107.16 59.4476 106.318 59.4973 105.518 59.7323C104.914 59.9416 104.592 60.2153 104.641 60.4005Z" fill="#263238"/>
<path d="M91.9137 60.827C92.1311 61.149 93.0971 60.8833 94.2402 60.9316C95.3833 60.9799 96.3332 61.2617 96.5747 60.9316C96.6793 60.7787 96.5747 60.4567 96.148 60.1266C95.6025 59.7358 94.9513 59.5197 94.2804 59.5068C93.608 59.4784 92.9436 59.6614 92.3806 60.03C91.962 60.352 91.8091 60.666 91.9137 60.827Z" fill="#263238"/>
<path d="M90.6564 55.1525C90.6564 55.1525 93.337 49.6784 96.1223 48.5192C99.4872 47.1266 100.687 50.8054 103.858 50.1292C107.03 49.453 110.242 48.1006 113.293 50.6927C116.626 53.5344 114.903 55.2974 114.903 59.2821C114.855 75.4385 117.535 80.1639 118.807 72.629C118.944 71.824 121.295 71.2686 121.834 67.799C122.543 63.2749 123.034 57.7526 122.204 54.4602C121.504 51.6909 120.063 49.7187 117.374 47.4808C113.164 43.9549 107.135 43.5363 103.005 43.7134C98.8754 43.8905 90.6805 48.1006 90.6564 55.1525Z" fill="#263238"/>
<path d="M118.22 72.3236C118.247 71.9929 118.342 71.6713 118.499 71.3788C118.655 71.0864 118.871 70.8295 119.131 70.624C119.392 70.4185 119.692 70.269 120.013 70.1847C120.334 70.1004 120.669 70.0831 120.997 70.134C122.655 70.3916 124.458 71.4462 124.153 74.8916C123.605 81.0016 117.584 79.1903 117.584 79.0132C117.584 78.8361 117.97 74.8835 118.22 72.3236Z" fill="#FFBF9D"/>
<path d="M119.105 76.8303C119.105 76.8303 119.202 76.9188 119.379 77.0154C119.626 77.1475 119.914 77.1793 120.184 77.104C120.844 76.9269 121.48 75.9448 121.609 74.85C121.673 74.3266 121.617 73.7955 121.448 73.2963C121.408 73.1011 121.321 72.9186 121.195 72.7643C121.068 72.6101 120.907 72.4888 120.723 72.4108C120.604 72.3686 120.474 72.3688 120.356 72.4113C120.237 72.4538 120.136 72.5361 120.071 72.6443C119.967 72.8053 119.999 72.934 119.967 72.9421C119.934 72.9501 119.846 72.8294 119.918 72.5798C119.964 72.4305 120.061 72.3022 120.192 72.2176C120.372 72.1045 120.589 72.0669 120.796 72.1129C121.041 72.1861 121.264 72.3205 121.443 72.5036C121.621 72.6868 121.751 72.9125 121.818 73.1595C122.031 73.7126 122.106 74.3096 122.035 74.8983C121.882 76.1299 121.15 77.2247 120.248 77.4018C120.08 77.4353 119.907 77.4302 119.741 77.387C119.575 77.3438 119.421 77.2635 119.29 77.1523C119.105 76.9832 119.081 76.8464 119.105 76.8303Z" fill="#FF9A6C"/>
<path d="M89.3524 48.5191C90.2943 47.8107 91.5903 47.7141 92.5241 46.9977C96.6835 43.8042 103.387 37.7091 109.111 40.8959C111.289 42.1085 114.038 42.2125 115.982 43.6006C116.547 44.0475 117.013 44.608 117.348 45.2458C117.684 45.8835 117.882 46.5845 117.93 47.3036C117.93 47.3036 118.566 46.9816 120.498 48.5111C121.73 49.4851 122.736 51.5862 123.187 53.0835C123.855 55.3294 122.881 57.6962 121.923 59.8294C121.408 60.9806 120.764 62.2444 119.564 62.655C118.107 63.146 116.497 62.0029 115.926 60.57C115.354 59.1371 114.452 57.6962 113.76 56.3196C112.553 53.9046 111.345 51.6989 112.335 50.1694C109.07 49.1089 106.906 51.0056 104.003 52.0289C102.783 52.4594 97.8575 53.276 96.4995 52.9513C96.0607 52.8464 95.6512 52.6439 95.3014 52.359C94.7484 53.2599 93.8762 53.9194 92.8587 54.2059C91.8411 54.4923 90.753 54.3848 89.8112 53.9046C87.9919 52.7776 87.6699 49.791 89.3524 48.5191Z" fill="#263238"/>
<path d="M122.535 58.3875C122.252 58.8294 122.015 59.2987 121.826 59.7882C121.606 60.2826 121.258 60.7102 120.82 61.0279C120.234 61.3278 119.559 61.405 118.92 61.2452C118.256 61.1164 117.629 60.8414 117.085 60.4402C116.646 60.0994 116.246 59.7106 115.893 59.281C115.585 58.8596 115.243 58.4638 114.871 58.0977C115.067 58.5852 115.339 59.0388 115.676 59.442C116.013 59.9161 116.414 60.3413 116.867 60.7059C117.449 61.1447 118.124 61.4424 118.84 61.5753C119.565 61.7551 120.332 61.6484 120.981 61.2774C121.466 60.9224 121.835 60.4324 122.044 59.8687C122.268 59.397 122.433 58.8995 122.535 58.3875Z" fill="#B9B8B6"/>
<path d="M122.301 63.1146C121.933 63.394 121.526 63.619 121.094 63.7828C120.623 63.9318 120.126 63.9757 119.636 63.9116C119.036 63.8203 118.462 63.6007 117.954 63.2676C117.031 62.6266 116.248 61.805 115.652 60.8526C115.424 60.4394 115.154 60.0509 114.847 59.6934C114.988 60.1539 115.197 60.5907 115.467 60.9894C116.014 62.0378 116.806 62.9383 117.777 63.6137C118.33 63.9795 118.962 64.2085 119.62 64.2819C120.167 64.342 120.72 64.2674 121.23 64.0645C122.051 63.6701 122.341 63.1227 122.301 63.1146Z" fill="#B9B8B6"/>
<path d="M103.297 79.6289C103.503 79.9662 103.618 80.3164 103.638 80.6697C103.663 80.8368 103.617 81.0047 103.503 81.1618C103.389 81.319 103.211 81.4618 102.98 81.5804C102.74 81.7262 102.441 81.8432 102.104 81.9233C101.766 82.0034 101.398 82.0446 101.027 82.0439C100.356 82.0432 99.7074 81.92 99.1981 81.6964C98.6888 81.4729 98.3518 81.1636 98.2479 80.8242L98.0098 80.0558C99.3991 79.8525 103.194 79.6818 103.297 79.6289Z" fill="#FF9A6C"/>
<path d="M99.0522 81.1252C99.0522 81.1252 99.2472 81.1252 99.5693 81.1411C100.021 81.163 100.482 81.163 100.934 81.1411C101.587 81.1089 102.177 81.0007 102.587 80.8381C103.075 80.6348 103.307 80.3822 103.239 80.1285C103.22 79.9858 103.101 79.8462 102.892 79.7193L103.095 79.7485C101.646 79.8176 100.374 79.8734 99.476 79.9053C98.9928 79.9336 98.5011 79.9452 98.0098 79.9399C98.4676 79.884 98.9459 79.8465 99.4336 79.8282C100.332 79.7751 101.586 79.7033 103.036 79.6289H103.171L103.231 79.6661C103.556 79.8636 103.694 80.086 103.629 80.3073C103.565 80.5286 103.3 80.7395 102.866 80.9152C102.39 81.0951 101.709 81.2096 100.968 81.2341C100.486 81.2474 100.001 81.233 99.5354 81.1916C99.361 81.1806 99.1962 81.1579 99.0522 81.1252Z" fill="#263238"/>
<path d="M139.512 106.576C140.043 106.576 147.626 109.603 149.623 117.041C151.619 124.479 157.069 151.769 157.069 151.769L162.857 159.787C162.857 159.787 160.981 174.414 150.347 171.628C150.347 171.628 143.247 172.868 140.985 165.671C138.723 158.475 134.336 137.005 134.336 137.005L139.512 106.576Z" fill="#B9B8B6"/>
<path d="M117.853 94L121.88 100.196L140 106.752L134.814 160.234V185.5C115.5 197.5 77.2791 196.215 74.5409 195C73.1154 194.959 71.3195 191.408 71.0859 189.425C70.8846 187.645 71.038 185.841 71.5369 184.123L74.5409 173.403C74.0979 180.074 76.063 133.607 76.1516 131.911L71.7624 108.006L92.3795 99.5154L95.6009 94.5081L104.879 101.687L117.853 94Z" fill="#B9B8B6"/>
<path d="M71.3363 107.84C71.3363 107.84 67.1905 111.478 66.5063 114.28C65.822 117.081 50.9134 149.354 50.9134 149.354L43.5074 151.35L41.5271 155.456C40.3704 157.81 40.0591 160.49 40.6454 163.047C41.2318 165.603 42.6801 167.88 44.7471 169.495C45.0045 169.69 45.2733 169.871 45.5521 170.034C49.5771 172.449 56.7416 172.321 60.9357 167.378C64.9043 162.693 76.5205 145.852 76.5205 145.852V125.244L71.3363 107.84Z" fill="#B9B8B6"/>
<path d="M47.0495 152.59L36.3993 146.303L31.2634 152.59L32.326 155.633L46.0594 165.848C47.7643 164.457 48.9081 162.495 49.2794 160.326C49.8831 156.486 47.0495 152.59 47.0495 152.59Z" fill="#FFBF9D"/>
<path d="M50.4305 149.337C50.4305 149.442 51.3402 149.337 52.6765 149.788C54.4033 150.385 55.9323 151.446 57.0959 152.855C58.2458 154.295 59.1937 155.885 59.9134 157.581C60.1847 158.307 60.5215 159.008 60.9197 159.674C60.8123 158.901 60.5955 158.147 60.2757 157.436C59.6431 155.646 58.7093 153.977 57.5145 152.501C56.2929 151.009 54.6394 149.932 52.7811 149.418C52.0213 149.167 51.2057 149.139 50.4305 149.337Z" fill="#263238"/>
<path d="M36.5764 149.789C36.8418 148.399 36.7467 146.964 36.3 145.621C35.8532 144.277 35.0698 143.071 34.0245 142.117C31.5099 140.049 28.6664 138.416 25.6122 137.287C23.7446 136.482 19.8564 133.206 19.1722 133.995C18.4879 134.784 18.182 135.959 19.1722 137.392C20.1623 138.825 25.7893 140.958 25.0004 142.769C24.6784 143.502 22.9074 143.639 22.9074 143.639C19.6927 143.865 16.4686 143.929 13.2474 143.832C10.3977 143.582 7.83777 144.13 7.99072 145.112C8.14367 146.094 8.67497 146.633 11.0336 146.834C13.3923 147.036 17.2321 146.883 17.4736 147.422C17.7151 147.961 16.8779 148.308 15.5014 148.227C14.1248 148.147 7.63652 148.122 7.19377 148.863C7.0861 149.051 7.02143 149.261 7.00446 149.477C6.98749 149.692 7.01864 149.91 7.09563 150.112C7.17262 150.314 7.29354 150.497 7.44971 150.648C7.60588 150.798 7.79341 150.911 7.99878 150.98L9.52022 151.52C9.52022 151.52 8.63472 152.751 9.37532 153.435C10.1159 154.12 11.7903 153.878 11.7903 153.878L20.3958 153.637C20.3958 153.637 20.8869 154.152 20.6454 154.506C20.4039 154.86 13.6579 154.369 13.6096 155.11C13.5613 155.85 12.9737 156.189 14.9862 156.72C17.9336 157.211 20.9421 157.211 23.8895 156.72C25.7088 156.221 33.3322 155.915 33.3322 155.915L36.5764 149.789Z" fill="#FFBF9D"/>
<path d="M153.535 153.709L163.493 145.449L169.208 151.889L168.508 155.037L156.063 166.758C154.218 165.7 152.826 164.001 152.15 161.984C150.911 158.434 153.535 153.709 153.535 153.709Z" fill="#FFBF9D"/>
<path d="M163.606 149.748C163.178 148.4 163.101 146.965 163.382 145.579C174.32 137.229 176.934 146.575 176.47 142.044C179.682 141.897 182.884 141.588 186.065 141.119C188.875 140.539 191.475 140.781 191.443 141.771C191.411 142.761 190.936 143.381 188.617 143.84C186.299 144.298 182.467 144.645 182.338 145.168C182.209 145.691 183.022 145.973 184.383 145.723C185.743 145.474 192.183 144.709 192.707 145.393C192.836 145.565 192.926 145.764 192.97 145.975C193.013 146.186 193.01 146.404 192.959 146.614C192.908 146.823 192.811 147.019 192.676 147.186C192.54 147.354 192.369 147.489 192.175 147.583L190.726 148.299C190.726 148.299 191.749 149.418 191.097 150.183C190.445 150.948 188.754 150.908 188.754 150.908L180.173 151.664C180.173 151.664 179.746 152.236 180.036 152.558C180.326 152.88 186.951 151.608 187.088 152.34C187.225 153.073 187.852 153.339 185.904 154.063C183.03 154.896 180.038 155.247 177.049 155.102C175.182 154.82 167.566 155.367 167.566 155.367L163.606 149.748Z" fill="#FFBF9D"/>
<path d="M92.4597 101.006C92.9982 101.678 93.5964 102.301 94.2468 102.865C95.3819 103.976 96.9355 105.53 98.5777 107.301C98.9239 107.679 99.27 108.05 99.592 108.412L99.8094 108.645L100.011 108.396C101.283 106.786 102.385 105.305 103.158 104.25C103.612 103.714 103.999 103.125 104.309 102.495C103.775 102.952 103.294 103.468 102.876 104.033C102.031 105.031 100.872 106.448 99.584 108.058H99.9945L98.9883 106.939C97.5736 105.41 96.0796 103.956 94.5125 102.584C93.8949 101.976 93.2056 101.446 92.4597 101.006Z" fill="#263238"/>
<path d="M138.377 120.502C138.229 120.857 138.129 121.231 138.079 121.613C137.926 122.337 137.733 123.392 137.524 124.696C137.105 127.304 136.662 130.927 136.292 134.936C135.922 138.945 135.648 142.583 135.439 145.216C135.358 146.439 135.278 147.478 135.221 148.331C135.171 148.713 135.171 149.1 135.221 149.482C135.336 149.115 135.412 148.738 135.447 148.355C135.559 147.622 135.696 146.56 135.841 145.248C136.147 142.631 136.485 139.001 136.856 134.992C137.226 130.983 137.588 127.369 137.902 124.793C138.055 123.577 138.184 122.539 138.288 121.693C138.372 121.302 138.401 120.901 138.377 120.502Z" fill="#263238"/>
<path d="M75.3936 118.676C75.2787 119.132 75.2112 119.599 75.1924 120.068C75.1038 120.978 75.0072 122.282 74.9267 123.908C74.7416 127.128 74.653 131.636 74.6369 136.579V153.09C74.6111 153.56 74.6299 154.032 74.6933 154.498C74.7976 154.039 74.8489 153.569 74.8462 153.098C74.9106 152.188 74.975 150.876 75.0233 149.258C75.136 146.038 75.1763 141.53 75.1843 136.587C75.1924 131.644 75.2326 127.161 75.3131 123.924C75.3534 122.387 75.3856 121.099 75.4097 120.085C75.4479 119.615 75.4425 119.144 75.3936 118.676Z" fill="#263238"/>
<path d="M146.548 165.123C146.8 164.209 146.985 163.279 147.103 162.338C147.48 160.092 148.208 157.918 149.261 155.898C150.334 153.917 151.948 152.282 153.914 151.181C154.759 150.777 155.633 150.438 156.53 150.166C156.265 150.109 155.99 150.109 155.725 150.166C155.027 150.283 154.35 150.497 153.712 150.802C151.597 151.857 149.864 153.546 148.753 155.632C147.688 157.706 147.012 159.957 146.757 162.274C146.568 163.211 146.497 164.168 146.548 165.123Z" fill="#263238"/>
<path d="M143.964 154.248C144.076 154.377 145.678 152.727 148.286 151.833C150.895 150.94 153.116 151.246 153.165 151.077C153.213 150.908 150.854 150.36 148.109 151.318C145.364 152.276 143.843 154.184 143.964 154.248Z" fill="#263238"/>
<path d="M103.11 191.656C103.159 191.358 103.18 191.057 103.174 190.755C103.174 190.119 103.174 189.258 103.231 188.179C103.279 185.885 103.343 182.657 103.424 178.688C103.609 170.638 103.867 159.585 104.156 147.381C104.446 135.177 104.599 124.076 104.583 116.059C104.583 112.034 104.543 108.814 104.495 106.56C104.495 105.481 104.438 104.62 104.414 103.984C104.421 103.682 104.399 103.38 104.35 103.082C104.327 103.382 104.327 103.684 104.35 103.984C104.35 104.62 104.35 105.481 104.35 106.56C104.35 108.854 104.301 112.09 104.269 116.051C104.189 124.101 103.955 135.137 103.681 147.365C103.408 159.593 103.166 170.662 103.102 178.68C103.102 182.705 103.102 185.925 103.102 188.179C103.102 189.258 103.102 190.119 103.142 190.755C103.111 191.054 103.1 191.356 103.11 191.656Z" fill="#263238"/>
<path d="M154.002 153.37C154.002 153.305 153.197 153.909 152.553 155.246C152.158 156.007 151.871 156.82 151.7 157.661C151.534 158.728 151.534 159.814 151.7 160.881C151.82 161.949 152.137 162.986 152.634 163.94C153.064 164.713 153.657 165.383 154.372 165.904C155.001 166.426 155.793 166.71 156.61 166.709C155.903 166.416 155.233 166.041 154.614 165.59C153.979 165.069 153.456 164.426 153.076 163.698C152.646 162.788 152.373 161.81 152.271 160.808C152.127 159.804 152.127 158.785 152.271 157.781C152.41 156.952 152.645 156.141 152.972 155.366C153.471 154.086 154.083 153.418 154.002 153.37Z" fill="#263238"/>
<path d="M44.0629 166.967C44.0629 166.967 44.3205 166.967 44.7311 166.765C45.3074 166.511 45.8485 166.184 46.3411 165.791C48.0279 164.492 49.1816 162.621 49.5849 160.531C49.9882 158.44 49.6133 156.274 48.5307 154.441C48.2152 153.89 47.8311 153.381 47.3876 152.927C47.0736 152.621 46.8724 152.476 46.8482 152.501C46.8241 152.525 47.4922 153.249 48.1926 154.626C49.129 156.407 49.4312 158.453 49.0493 160.428C48.6674 162.404 47.6242 164.19 46.0915 165.493C44.9404 166.508 44.0227 166.878 44.0629 166.967Z" fill="#263238"/>
<path d="M23.5917 140.41C23.5273 140.475 23.9942 140.917 24.5818 141.698C24.9199 142.145 25.1537 142.662 25.2661 143.212C25.3949 143.831 25.3788 144.556 25.4915 145.353C25.5874 146.037 25.8182 146.695 26.1706 147.29C26.523 147.884 26.9899 148.402 27.5443 148.814C27.9679 149.196 28.5053 149.428 29.0738 149.474C29.114 149.386 28.5183 149.161 27.7858 148.508C26.8427 147.673 26.2218 146.534 26.0308 145.288C25.9778 144.56 25.8865 143.834 25.7572 143.115C25.6031 142.515 25.3046 141.963 24.8877 141.505C24.5496 141.042 24.1051 140.666 23.5917 140.41Z" fill="#FF9A6C"/>
<path d="M178.861 148.879C178.861 149.024 181.541 149.169 184.85 149.008C188.158 148.847 190.815 148.46 190.799 148.307C190.783 148.155 188.118 148.307 184.826 148.46C181.533 148.613 178.861 148.718 178.861 148.879Z" fill="#FF9A6C"/>
<path d="M172.767 148.42C172.767 148.477 173.403 148.372 174.159 147.736C174.65 147.31 175.039 146.781 175.301 146.187C175.563 145.592 175.69 144.948 175.673 144.299C175.615 143.612 175.491 142.933 175.303 142.27C175.162 141.745 175.094 141.203 175.101 140.66C175.148 140.175 175.259 139.699 175.431 139.243C175.431 139.187 174.844 139.613 174.715 140.628C174.65 141.198 174.683 141.775 174.811 142.334C174.963 142.973 175.068 143.621 175.125 144.274C175.143 145.442 174.7 146.569 173.894 147.414C173.274 148.138 172.727 148.34 172.767 148.42Z" fill="#FF9A6C"/>
<path d="M22.0942 150.328C22.0942 150.175 19.2204 150.288 15.7106 150.578C12.2008 150.867 9.35908 151.238 9.36713 151.383C9.37518 151.528 12.241 151.423 15.7508 151.125C19.2606 150.827 22.1023 150.473 22.0942 150.328Z" fill="#FF9A6C"/>
<path d="M104.961 101.971C105.283 103.043 105.689 104.087 106.177 105.095C106.394 105.578 106.62 106.101 106.853 106.64C107.084 107.255 107.353 107.854 107.658 108.435C107.774 108.626 107.943 108.78 108.145 108.877C108.346 108.974 108.571 109.011 108.793 108.983C109.183 108.88 109.546 108.693 109.856 108.435L111.756 107.139C114.348 105.352 116.674 103.702 118.349 102.494C119.285 101.882 120.168 101.193 120.989 100.434C119.992 100.936 119.036 101.518 118.131 102.172C116.401 103.307 114.034 104.893 111.442 106.688L109.55 107.993C109.303 108.206 109.016 108.368 108.705 108.468C108.578 108.483 108.449 108.459 108.336 108.401C108.222 108.342 108.129 108.25 108.069 108.137C107.457 107.027 106.95 105.827 106.459 104.917C106.042 103.895 105.542 102.91 104.961 101.971Z" fill="#263238"/>
<path d="M190.261 141.441C185.224 139.649 179.702 140.667 177.023 142.976C174.345 145.285 174.549 147.33 174.707 149.277C174.833 150.867 172.881 153.113 168.074 153.113C162.996 153.107 157.58 154.735 155.506 158.707C152.865 163.755 158.713 168.494 167.667 169.621C179.955 171.168 193.418 165.275 198.414 155.997C203.124 147.228 193.925 142.744 190.261 141.441Z" fill="#263238"/>
<path d="M187.464 161.989C186.127 163.218 184.125 163.717 182.995 163.113C181.865 162.51 182.03 161.017 183.373 159.788C184.716 158.559 186.713 158.061 187.842 158.671C188.972 159.28 188.802 160.761 187.464 161.989Z" fill="#FFD000"/>
<path opacity="0.7" d="M166.724 161.417C165.381 162.64 163.379 163.146 162.249 162.536C161.119 161.926 161.289 160.445 162.627 159.217C163.965 157.989 165.967 157.49 167.102 158.092C168.237 158.694 168.062 160.189 166.724 161.417Z" fill="#FAFAFA"/>
<path opacity="0.4" d="M176.096 164.532C174.758 165.761 172.756 166.26 171.626 165.656C170.497 165.053 170.661 163.56 172.004 162.331C173.348 161.102 175.344 160.604 176.474 161.213C177.603 161.823 177.433 163.304 176.096 164.532Z" fill="#FAFAFA"/>
<path opacity="0.3" d="M194.706 153.834C193.368 155.056 191.366 155.562 190.236 154.952C189.107 154.342 189.277 152.861 190.614 151.633C191.952 150.405 193.954 149.906 195.084 150.509C196.214 151.112 196.054 152.604 194.706 153.834Z" fill="black"/>
<path opacity="0.5" d="M189.152 147.792C187.815 149.013 185.813 149.519 184.683 148.909C183.554 148.299 183.723 146.818 185.061 145.59C186.399 144.362 188.401 143.863 189.531 144.466C190.66 145.069 190.496 146.562 189.152 147.792Z" fill="black"/>
<path d="M165.39 143.981C159.108 156.689 174.143 148.393 177.017 146.782C177.779 146.01 180.144 145.772 181.649 145.701C182.728 145.65 183.753 145.601 184.368 145.301C184.957 145.097 185.452 144.685 185.76 144.144C186.068 143.602 186.169 142.966 186.043 142.356C185.905 141.696 183.799 141.831 181.77 141.962C180.644 142.034 179.542 142.105 178.814 142.038C175.595 141.488 172.307 141.49 169.089 142.043C167.711 142.364 166.438 143.031 165.39 143.981Z" fill="#FFBF9D"/>
<path d="M16.4858 119.655C19.5684 126.682 22.2745 133.869 24.5927 141.184C26.9862 149.423 28.6789 157.85 29.6527 166.374C29.6605 166.504 29.6376 166.634 29.5858 166.754C29.5339 166.873 29.4547 166.979 29.3545 167.062C29.1809 167.205 28.958 167.273 28.7344 167.251C28.5109 167.23 28.3048 167.121 28.1613 166.948C28.1212 166.897 28.0867 166.842 28.0583 166.784C28.0583 166.784 21.1405 153.726 17.8935 143.087C15.7331 135.759 13.9655 128.32 12.5984 120.804C12.584 120.63 12.6128 120.455 12.6822 120.295C12.7516 120.135 12.8594 119.995 12.996 119.886C13.3611 119.535 13.8039 119.275 14.2884 119.127C14.773 118.979 15.2855 118.947 15.7845 119.035C15.9431 119.073 16.09 119.15 16.2122 119.258C16.3345 119.366 16.4284 119.502 16.4858 119.655Z" fill="#FFD000"/>
<path opacity="0.1" d="M28.1229 166.986C28.0828 166.935 28.0483 166.88 28.0199 166.821C28.0199 166.821 21.1021 153.763 17.8551 143.125C15.6718 135.966 14.0116 128.38 13.1885 124.143L15.8042 123.817C15.8042 123.817 28.5774 167.27 29.316 167.1C29.1425 167.242 28.9195 167.31 28.696 167.289C28.4724 167.267 28.2664 167.159 28.1229 166.986Z" fill="black"/>
<path d="M14.2121 119.192C13.672 118.653 10.7269 115.741 10.4766 112.723C10.8526 112.6 11.2022 112.408 11.5071 112.156C12.6902 111.186 12.1657 110.033 12.9714 109.205C13.7771 108.377 15.4328 109.661 15.4512 109.669C16.6507 111.074 17.3845 112.816 17.5514 114.656C17.6825 116.386 17.3106 118.117 16.4806 119.641L12.5549 120.828L14.2121 119.192Z" fill="#455A64"/>
<path d="M7.88759 114.195C8.4324 112.938 9.3943 113.083 10.4673 112.719C10.7267 115.742 13.6718 118.653 14.2028 119.188L12.5507 120.838C12.1987 120.543 11.81 120.233 11.4017 119.893L11.1008 119.631C10.9072 119.449 10.6952 119.259 10.5004 119.055C10.1836 118.733 9.88805 118.39 9.61568 118.029C9.41692 117.769 9.23175 117.5 9.06092 117.221C8.67976 116.591 8.36689 115.922 8.12761 115.226C8.01791 114.89 7.9376 114.545 7.88759 114.195Z" fill="#37474F"/>
<path d="M7.88656 114.173C7.85521 113.995 7.83489 113.815 7.82573 113.635L7.81689 113.228L7.82149 113.066L7.86523 112.965L7.88452 112.745L7.92369 112.478L8.03506 111.894L8.19231 111.33L8.42296 110.798C8.88656 109.708 9.55628 108.718 10.3953 107.882L10.5785 107.711L10.6064 107.647L10.8199 107.456C11.2763 107.08 11.7645 106.745 12.2788 106.453C12.5092 106.324 12.7223 106.21 12.9407 106.108L13.5182 105.857L13.7773 105.762L14.0152 105.691C14.1362 105.642 14.2617 105.605 14.3899 105.581C14.4972 105.548 14.6065 105.523 14.7172 105.505C14.5003 105.996 14.3961 106.53 14.4123 107.067C14.4285 107.604 14.5647 108.13 14.8108 108.608C14.9947 109.005 15.2179 109.383 15.4772 109.736C15.4772 109.736 13.845 108.473 12.9974 109.271C12.1498 110.07 12.7162 111.253 11.5331 112.223C11.2282 112.475 10.8786 112.667 10.5026 112.789C9.42965 113.153 8.45338 112.991 7.92294 114.265L7.88656 114.173Z" fill="#FFD000"/>
<path opacity="0.1" d="M14.6819 105.435C12.6517 106.741 11.195 108.772 10.6078 111.113C10.4684 111.637 10.4208 112.18 10.4673 112.72C9.39435 113.083 8.41808 112.922 7.88764 114.196C7.85629 114.018 7.83599 113.838 7.82682 113.657L7.81797 113.25L7.82258 113.088L7.86632 112.988L7.88561 112.767L7.92477 112.501L8.03615 111.917L8.1934 111.353L8.42405 110.821C8.88765 109.731 9.55735 108.741 10.3964 107.904L10.5796 107.733L10.6075 107.669L10.8209 107.478C11.2774 107.103 11.7656 106.767 12.2799 106.476C12.5103 106.347 12.7234 106.232 12.9418 106.13L13.5193 105.879L13.7783 105.785L14.0163 105.713C14.1373 105.665 14.2628 105.628 14.391 105.603C14.4983 105.571 14.6076 105.545 14.7183 105.527L14.6819 105.435Z" fill="black"/>
<path d="M12.5598 120.841C12.5455 120.667 12.5743 120.493 12.6437 120.332C12.713 120.172 12.8208 120.032 12.9575 119.924C13.3226 119.572 13.7654 119.312 14.2499 119.164C14.7344 119.016 15.247 118.985 15.746 119.072C15.9126 119.09 16.072 119.15 16.2095 119.246C16.347 119.342 16.4582 119.47 16.5329 119.62C17.1913 121.094 17.8714 122.718 18.5748 124.44C18.4782 124.245 18.3349 124.077 18.1577 123.95C17.9804 123.824 17.7747 123.744 17.5588 123.716C16.9299 123.606 16.284 123.646 15.6733 123.832C15.0626 124.018 14.5042 124.345 14.0432 124.786C13.8761 124.931 13.749 125.116 13.6741 125.324C13.5992 125.532 13.5791 125.756 13.6156 125.974C13.1588 124.011 12.787 122.128 12.5598 120.841Z" fill="#EBEBEB"/>
<path d="M15.8041 123.817C15.12 123.977 14.4939 124.325 13.9959 124.821C13.8288 124.965 13.7017 125.151 13.6268 125.359C13.5519 125.567 13.5317 125.791 13.5682 126.009C13.1588 124.011 12.787 122.128 12.5415 120.834C12.5272 120.66 12.556 120.485 12.6254 120.325C12.6947 120.165 12.8025 120.024 12.9392 119.916C13.3039 119.558 13.7509 119.295 14.241 119.151L14.2868 119.17L15.8332 123.775L15.8041 123.817Z" fill="#E0E0E0"/>
<path d="M36.6278 146.578C35.361 160.698 26.8583 145.779 25.2461 142.905C24.998 141.849 23.1041 140.413 21.8573 139.568C20.9629 138.961 20.1143 138.386 19.7462 137.808C19.3499 137.327 19.1422 136.718 19.1618 136.095C19.1814 135.472 19.427 134.877 19.8528 134.422C20.3147 133.93 22.0412 135.145 23.7038 136.314C24.627 136.963 25.5306 137.599 26.1869 137.92C29.2197 139.13 32.0247 140.846 34.4818 142.997C35.4904 143.988 36.2291 145.221 36.6278 146.578Z" fill="#FFBF9D"/>
</g>
<defs>
<clipPath id="clip0_675_30742">
<rect width="200" height="200" fill="white"/>
</clipPath>
</defs>
</svg>
