<svg width="200" height="200" viewBox="0 0 200 200" fill="none" xmlns="http://www.w3.org/2000/svg">
<g clip-path="url(#clip0_682_25435)">
<path fill-rule="evenodd" clip-rule="evenodd" d="M95.3511 40.0786C119.484 41.5624 131.191 65.3973 145.943 82.1754C157.899 95.7741 168.961 109.409 171.286 126.445C173.971 146.122 175.558 168.605 159.663 182.721C143.717 196.882 117.964 195.809 95.3511 193.883C72.1366 194.322 53.3796 187.342 42.4481 172.737C26.9316 160.174 13.0786 144.922 12.0648 126.445C11.0113 107.244 22.9446 90.1752 37.1121 75.4837C52.9597 59.05 70.8381 38.5713 95.3511 40.0786Z" fill="#FFF3CC"/>
<path d="M91.0604 36.8647L91.9298 36.8164C96.1238 36.5763 100.255 37.9237 103.5 40.5907C106.746 43.2577 108.869 47.0488 109.447 51.2099C110.558 59.2599 107.823 61.6774 108 66.0002C108.411 74.968 101.184 80.5002 101.184 80.5002L103.707 86.952C103.833 88.3825 103.675 89.8237 103.242 91.1929C102.809 92.5621 102.11 93.8323 101.184 94.9304C100.259 96.0285 99.1257 96.933 97.8497 97.5918C96.5738 98.2506 95.1802 98.6508 93.7491 98.7694C90.8974 98.9981 88.0702 98.0964 85.8775 96.2591C83.6847 94.4217 82.3022 91.796 82.0282 88.9484L78.8082 55.6937C77.5041 46.4362 81.7706 37.9515 91.0604 36.8647Z" fill="#FFBF9D"/>
<path d="M101 80.5007C96.8507 80.7417 92.6289 79.6491 89 77.6777C89 77.6777 93.1185 83.7827 102 82.5007L101 80.5007Z" fill="#FF9A6C"/>
<path d="M94.9962 60.3284C95.0251 60.7349 94.8981 61.1368 94.6428 61.447C94.3875 61.7572 94.0244 61.9508 93.6323 61.9858C93.4415 62.0133 93.2474 62.0008 93.0614 61.9492C92.8754 61.8975 92.7013 61.8078 92.5494 61.6852C92.3975 61.5627 92.2709 61.4099 92.177 61.2358C92.0832 61.0617 92.024 60.8698 92.0031 60.6716C91.9791 60.2663 92.1078 59.8672 92.3622 59.5581C92.6166 59.249 92.9767 59.054 93.367 59.0142C93.5578 58.9867 93.7519 58.9992 93.9379 59.0509C94.1239 59.1025 94.298 59.1922 94.4499 59.3148C94.6018 59.4373 94.7284 59.5901 94.8222 59.7642C94.9161 59.9383 94.9752 60.1302 94.9962 60.3284Z" fill="#263238"/>
<path d="M107.788 55.701C107.635 55.8781 106.629 55.21 105.252 55.2985C103.876 55.3871 102.902 56.1035 102.749 55.9667C102.596 55.8298 102.813 55.5883 103.232 55.2422C103.804 54.793 104.502 54.5316 105.228 54.4935C105.943 54.4539 106.653 54.6397 107.257 55.0248C107.684 55.3227 107.845 55.6125 107.788 55.701Z" fill="#263238"/>
<path d="M106.997 60.3284C107.021 60.7337 106.893 61.1328 106.638 61.4419C106.384 61.751 106.024 61.946 105.633 61.9858C105.442 62.0133 105.248 62.0008 105.062 61.9491C104.876 61.8975 104.702 61.8078 104.55 61.6852C104.398 61.5627 104.272 61.4099 104.178 61.2358C104.084 61.0617 104.025 60.8698 104.004 60.6716C103.977 60.2657 104.105 59.8652 104.36 59.5556C104.615 59.2459 104.977 59.0516 105.368 59.0142C105.559 58.9867 105.753 58.9992 105.939 59.0509C106.125 59.1025 106.299 59.1922 106.451 59.3148C106.603 59.4373 106.73 59.5901 106.823 59.7642C106.917 59.9383 106.976 60.1302 106.997 60.3284Z" fill="#263238"/>
<path d="M94.2562 56.7316C94.1113 56.9087 93.097 56.2486 91.7205 56.3291C90.3439 56.4096 89.3779 57.1341 89.2169 56.9973C89.0559 56.8604 89.2813 56.6189 89.708 56.2728C90.276 55.8278 90.9676 55.5691 91.6883 55.5322C92.404 55.4864 93.1155 55.6727 93.7169 56.0635C94.1677 56.3613 94.3287 56.6511 94.2562 56.7316Z" fill="#263238"/>
<path d="M99.8348 66.6567C100.546 66.3823 101.29 66.201 102.049 66.1173C102.403 66.061 102.725 65.9724 102.773 65.7309C102.785 65.3658 102.684 65.0059 102.483 64.7005C102.097 63.8955 101.678 63.002 101.284 62.0843C99.6255 58.3571 98.4019 55.29 98.5468 55.2256C98.6917 55.1612 100.157 58.1237 101.831 61.8508C102.234 62.7685 102.636 63.646 102.982 64.4832C103.225 64.8956 103.318 65.3786 103.248 65.8517C103.204 65.9799 103.132 66.0961 103.035 66.1911C102.939 66.2862 102.821 66.3574 102.693 66.3991C102.503 66.4654 102.305 66.506 102.105 66.5198C101.356 66.6547 100.594 66.7006 99.8348 66.6567Z" fill="#263238"/>
<path d="M94.3593 52.4005C94.2385 52.7788 92.8539 52.6822 91.252 52.972C89.65 53.2618 88.3701 53.777 88.1366 53.447C88.032 53.294 88.2413 52.9318 88.7404 52.5373C89.4175 52.0516 90.1965 51.7266 91.0181 51.5871C91.8397 51.4476 92.6823 51.4973 93.4818 51.7323C94.0856 51.9416 94.4076 52.2153 94.3593 52.4005Z" fill="#263238"/>
<path d="M107.086 52.827C106.869 53.149 105.903 52.8833 104.76 52.9316C103.617 52.9799 102.667 53.2617 102.425 52.9316C102.321 52.7787 102.425 52.4567 102.852 52.1266C103.397 51.7358 104.049 51.5197 104.72 51.5068C105.392 51.4784 106.056 51.6614 106.619 52.03C107.038 52.352 107.191 52.666 107.086 52.827Z" fill="#263238"/>
<path d="M108.344 47.1525C108.344 47.1525 105.663 41.6784 102.878 40.5192C99.5128 39.1266 98.3133 42.8054 95.1416 42.1292C91.9699 41.453 88.7579 40.1006 85.707 42.6927C82.3743 45.5344 84.097 47.2974 84.097 51.2821C84.1453 67.4385 81.4646 72.1639 80.1927 64.629C80.0559 63.824 77.7052 63.2686 77.1659 59.799C76.4575 55.2749 75.9664 49.7526 76.7956 46.4602C77.4959 43.6909 78.9369 41.7187 81.6256 39.4808C85.8358 35.9549 91.8652 35.5363 95.9949 35.7134C100.125 35.8905 108.319 40.1006 108.344 47.1525Z" fill="#263238"/>
<path d="M80.7803 64.3236C80.7532 63.9929 80.6583 63.6713 80.5014 63.3788C80.3446 63.0864 80.1291 62.8295 79.8685 62.624C79.6079 62.4185 79.3078 62.269 78.9868 62.1847C78.6658 62.1004 78.331 62.0831 78.003 62.134C76.3447 62.3916 74.5415 63.4462 74.8474 66.8916C75.3948 73.0016 81.4162 71.1903 81.4162 71.0132C81.4162 70.8361 81.0298 66.8835 80.7803 64.3236Z" fill="#FFBF9D"/>
<path d="M79.895 68.8303C79.895 68.8303 79.7984 68.9188 79.6213 69.0154C79.3744 69.1475 79.086 69.1793 78.8163 69.104C78.1562 68.9269 77.5203 67.9448 77.3915 66.85C77.3277 66.3266 77.3828 65.7955 77.5525 65.2963C77.5926 65.1011 77.6795 64.9186 77.8057 64.7643C77.9318 64.6101 78.0936 64.4888 78.277 64.4108C78.3959 64.3686 78.5258 64.3688 78.6446 64.4113C78.7634 64.4538 78.8639 64.5361 78.929 64.6443C79.0337 64.8053 79.0015 64.934 79.0337 64.9421C79.0659 64.9501 79.1544 64.8294 79.082 64.5798C79.0364 64.4305 78.9395 64.3022 78.8083 64.2176C78.6287 64.1045 78.4117 64.0669 78.2045 64.1129C77.9592 64.1861 77.7365 64.3205 77.5577 64.5036C77.3788 64.6868 77.2495 64.9125 77.1822 65.1595C76.9688 65.7126 76.8942 66.3096 76.9648 66.8983C77.1178 68.1299 77.8503 69.2247 78.7519 69.4018C78.9201 69.4353 79.0936 69.4302 79.2595 69.387C79.4254 69.3438 79.5794 69.2635 79.7099 69.1523C79.895 68.9832 79.9192 68.8464 79.895 68.8303Z" fill="#FF9A6C"/>
<path d="M109.648 40.5191C108.706 39.8107 107.41 39.7141 106.476 38.9977C102.317 35.8042 95.6131 29.7091 89.8891 32.8959C87.7109 34.1085 84.9617 34.2125 83.0184 35.6006C82.4531 36.0475 81.9877 36.608 81.6521 37.2458C81.3166 37.8835 81.1184 38.5845 81.0703 39.3036C81.0703 39.3036 80.4343 38.9816 78.5023 40.5111C77.2707 41.4851 76.2644 43.5862 75.8136 45.0835C75.1454 47.3294 76.1195 49.6962 77.0775 51.8294C77.5927 52.9806 78.2367 54.2444 79.4361 54.655C80.8932 55.146 82.5032 54.0029 83.0747 52.57C83.6463 51.1371 84.5479 49.6962 85.2402 48.3196C86.4477 45.9046 87.6552 43.6989 86.665 42.1694C89.9303 41.1089 92.0945 43.0056 94.9968 44.0289C96.2175 44.4594 101.143 45.276 102.501 44.9513C102.94 44.8464 103.349 44.6439 103.699 44.359C104.252 45.2599 105.124 45.9194 106.142 46.2059C107.159 46.4923 108.247 46.3848 109.189 45.9046C111.008 44.7776 111.33 41.791 109.648 40.5191Z" fill="#263238"/>
<path d="M76.4656 50.3875C76.7481 50.8294 76.9854 51.2987 77.174 51.7882C77.3947 52.2826 77.7418 52.7102 78.1802 53.0279C78.7663 53.3278 79.4413 53.405 80.08 53.2452C80.744 53.1164 81.371 52.8414 81.9154 52.4402C82.3545 52.0994 82.7541 51.7106 83.1068 51.281C83.4151 50.8596 83.757 50.4638 84.1292 50.0977C83.933 50.5852 83.6613 51.0388 83.3242 51.442C82.987 51.9161 82.5861 52.3413 82.1328 52.7059C81.5517 53.1447 80.8765 53.4424 80.1605 53.5753C79.435 53.7551 78.6681 53.6484 78.0192 53.2774C77.5343 52.9224 77.1648 52.4324 76.9566 51.8687C76.7326 51.397 76.5677 50.8995 76.4656 50.3875Z" fill="#B9B8B6"/>
<path d="M76.6989 55.1146C77.0674 55.394 77.474 55.619 77.9065 55.7828C78.3769 55.9318 78.8743 55.9757 79.3635 55.9116C79.9641 55.8203 80.5379 55.6007 81.046 55.2676C81.9688 54.6266 82.7521 53.805 83.3483 52.8526C83.5759 52.4394 83.8457 52.0509 84.1533 51.6934C84.0124 52.1539 83.8035 52.5907 83.5334 52.9894C82.9864 54.0378 82.1937 54.9383 81.2231 55.6137C80.6703 55.9795 80.0384 56.2085 79.3796 56.2819C78.8332 56.342 78.2805 56.2674 77.7696 56.0645C76.9485 55.6701 76.6587 55.1227 76.6989 55.1146Z" fill="#B9B8B6"/>
<path d="M95.7032 71.6289C95.4972 71.9662 95.3823 72.3164 95.3618 72.6697C95.3375 72.8368 95.3837 73.0047 95.4974 73.1618C95.6111 73.319 95.7896 73.4618 96.0207 73.5804C96.2601 73.7262 96.5591 73.8432 96.8966 73.9233C97.2341 74.0034 97.6018 74.0446 97.9737 74.0439C98.6445 74.0432 99.2928 73.92 99.8022 73.6964C100.311 73.4729 100.648 73.1636 100.752 72.8242L100.99 72.0558C99.6012 71.8525 95.8064 71.6818 95.7032 71.6289Z" fill="#FF9A6C"/>
<path d="M99.948 73.1252C99.948 73.1252 99.7531 73.1252 99.431 73.1411C98.9788 73.163 98.5186 73.163 98.0664 73.1411C97.4136 73.1089 96.8235 73.0007 96.4137 72.8381C95.9257 72.6348 95.6934 72.3822 95.7611 72.1285C95.7807 71.9858 95.8993 71.8462 96.1086 71.7193L95.9052 71.7485C97.3545 71.8176 98.6258 71.8734 99.5242 71.9053C100.007 71.9336 100.499 71.9452 100.99 71.9399C100.533 71.884 100.054 71.8465 99.5666 71.8282C98.6682 71.7751 97.4138 71.7033 95.9645 71.6289H95.8289L95.7696 71.6661C95.4447 71.8636 95.3064 72.086 95.3709 72.3073C95.4355 72.5286 95.7002 72.7395 96.134 72.9152C96.6099 73.0951 97.2912 73.2096 98.0325 73.2341C98.5143 73.2474 98.9997 73.233 99.4649 73.1916C99.6393 73.1806 99.8041 73.1579 99.948 73.1252Z" fill="#263238"/>
<path d="M81.1475 86L77.1207 92.1956L59.0002 98.7517L64.1867 152.234L62.27 180.228C79.0002 189.5 123.262 187.715 126 186.5C127.426 186.459 127.681 183.408 127.914 181.425C128.116 179.645 127.962 177.841 127.463 176.123L124.459 165.403C124.902 172.074 122.937 125.607 122.849 123.911L127.238 100.006L106.621 91.5154L103.399 86.5081L94.1217 93.6871L81.1475 86Z" fill="#B9B8B6"/>
<path d="M106.541 93.0059C106.002 93.6782 105.404 94.3006 104.753 94.8654C103.618 95.9763 102.065 97.53 100.423 99.301C100.076 99.6793 99.7302 100.05 99.4082 100.412L99.1909 100.645L98.9896 100.396C97.7177 98.7858 96.6149 97.3046 95.8421 96.25C95.3883 95.7141 95.0017 95.1248 94.6909 94.4951C95.2253 94.9517 95.706 95.4675 96.1238 96.0327C96.9691 97.0309 98.1283 98.4477 99.4163 100.058H99.0057L100.012 98.9387C101.427 97.4097 102.921 95.956 104.488 94.5837C105.105 93.9762 105.795 93.4464 106.541 93.0059Z" fill="#263238"/>
<path d="M60.6233 112.502C60.7712 112.857 60.8714 113.231 60.9211 113.613C61.0741 114.337 61.2673 115.392 61.4766 116.696C61.8952 119.304 62.3379 122.927 62.7082 126.936C63.0785 130.945 63.3522 134.583 63.5615 137.216C63.642 138.439 63.7225 139.478 63.7789 140.331C63.8293 140.713 63.8293 141.1 63.7789 141.482C63.664 141.115 63.5885 140.738 63.5535 140.355C63.4408 139.622 63.3039 138.56 63.159 137.248C62.8531 134.631 62.515 131.001 62.1447 126.992C61.7744 122.983 61.4122 119.369 61.0982 116.793C60.9453 115.577 60.8165 114.539 60.7118 113.693C60.6286 113.302 60.5988 112.901 60.6233 112.502Z" fill="#263238"/>
<path d="M123.607 110.676C123.722 111.132 123.789 111.599 123.808 112.068C123.896 112.978 123.993 114.282 124.074 115.908C124.259 119.128 124.347 123.636 124.363 128.579V145.09C124.389 145.56 124.37 146.032 124.307 146.498C124.203 146.039 124.151 145.569 124.154 145.098C124.09 144.188 124.025 142.876 123.977 141.258C123.864 138.038 123.824 133.53 123.816 128.587C123.808 123.644 123.768 119.161 123.687 115.924C123.647 114.387 123.615 113.099 123.591 112.085C123.552 111.615 123.558 111.144 123.607 110.676Z" fill="#263238"/>
<path d="M95.8903 183.656C95.8415 183.358 95.82 183.057 95.8259 182.755C95.8259 182.119 95.8259 181.258 95.7696 180.179C95.7213 177.885 95.6569 174.657 95.5764 170.688C95.3912 162.638 95.1336 151.585 94.8438 139.381C94.554 127.177 94.4011 116.076 94.4172 108.059C94.4172 104.034 94.4574 100.814 94.5057 98.5596C94.5057 97.4809 94.5621 96.6196 94.5862 95.9836C94.5795 95.6817 94.601 95.3799 94.6506 95.082C94.673 95.3821 94.673 95.6835 94.6506 95.9836C94.6506 96.6196 94.6506 97.4809 94.6506 98.5596C94.6506 100.854 94.6989 104.09 94.7311 108.051C94.8116 116.101 95.0451 127.137 95.3188 139.365C95.5925 151.593 95.834 162.662 95.8984 170.68C95.8984 174.705 95.8984 177.925 95.8984 180.179C95.8984 181.258 95.8984 182.119 95.8581 182.755C95.8894 183.054 95.9002 183.356 95.8903 183.656Z" fill="#263238"/>
<path d="M26.2335 140.42C26.2335 140.477 25.5975 140.372 24.8408 139.736C24.3507 139.31 23.9609 138.781 23.6992 138.187C23.4376 137.592 23.3106 136.948 23.3274 136.299C23.3848 135.612 23.5088 134.933 23.6977 134.27C23.8386 133.745 23.9063 133.203 23.8989 132.66C23.8527 132.175 23.7417 131.699 23.5689 131.243C23.5689 131.187 24.1565 131.613 24.2853 132.628C24.3504 133.198 24.3177 133.775 24.1888 134.334C24.0373 134.973 23.9323 135.621 23.8748 136.274C23.8577 137.442 24.3 138.569 25.1065 139.414C25.7263 140.138 26.2737 140.34 26.2335 140.42Z" fill="#FF9A6C"/>
<path d="M94.0388 93.9711C93.7173 95.0429 93.3108 96.0874 92.8233 97.0946C92.6059 97.5776 92.3805 98.1008 92.1471 98.6402C91.9162 99.2546 91.6473 99.8542 91.3421 100.435C91.2258 100.626 91.0568 100.78 90.8554 100.877C90.654 100.974 90.4288 101.011 90.207 100.983C89.8171 100.88 89.4544 100.693 89.1444 100.435L87.2446 99.1393C84.6525 97.3522 82.326 95.7019 80.6516 94.4944C79.7154 93.8825 78.8322 93.1931 78.0112 92.4336C79.0085 92.9363 79.9642 93.5177 80.869 94.1724C82.5997 95.3074 84.9664 96.8933 87.5585 98.6885L89.4503 99.9926C89.6971 100.206 89.9846 100.368 90.2956 100.468C90.4225 100.483 90.551 100.459 90.6644 100.401C90.7779 100.342 90.8709 100.25 90.9315 100.137C91.5433 99.0266 92.0505 97.8271 92.5415 96.9174C92.9578 95.8954 93.4587 94.9099 94.0388 93.9711Z" fill="#263238"/>
<path d="M102.763 85.2203L95.0275 93.0327L81.2467 84.3633L77.2142 91.5712L84.0549 172.542L112.175 172.772L110.308 98.6338L102.763 85.2203Z" fill="#F5F5F5"/>
<path d="M147.35 172.773L148.965 155.381L132.896 99.5918L127.67 119.701C127.67 119.701 124.311 154.899 124.311 155.626C124.311 156.352 128.389 163.048 128.389 163.048L127.134 172.773H147.35Z" fill="#263238"/>
<path d="M102.251 84.8086L110.851 91.6952L132.881 99.5994L128.657 122.096L124.77 156.766L124.15 172.781H106.406L105.105 143.658C105.105 143.658 108.38 101.987 106.696 94.3197L102.251 84.8086Z" fill="#263238"/>
<path d="M81.2465 84.3633L73.0515 90.0103L62.515 94.5248C62.515 94.5248 51.1599 97.0269 51.6419 97.7385C52.124 98.4501 55.3377 137.872 55.3377 137.872L54.2665 172.741H91.4922V157.055L79.9381 96.0092L81.2465 84.3633Z" fill="#263238"/>
<path d="M51.9404 97.7695C50.3642 98.198 41.3275 114.917 41.3275 114.917L32.6274 122.133L27.6156 112.889L15.6789 113.035L14.3475 128.66C14.3475 128.66 21.4253 143.963 24.2258 145.616C27.0264 147.269 35.8718 143.994 40.2945 142.372C44.7172 140.749 56.8682 126.303 56.8682 126.303L51.9404 97.7695Z" fill="#263238"/>
<path d="M128.45 163.184C129.086 162.508 129.672 161.787 130.202 161.026C131.544 159.279 133.129 157.733 134.908 156.435C136.701 155.157 138.794 154.366 140.984 154.139C141.9 154.108 142.817 154.126 143.731 154.193C143.514 154.059 143.271 153.97 143.019 153.933C142.347 153.781 141.657 153.717 140.968 153.742C138.671 153.852 136.455 154.626 134.587 155.968C132.754 157.303 131.162 158.941 129.881 160.812C129.307 161.54 128.826 162.337 128.45 163.184Z" fill="#455A64"/>
<path d="M127.256 157.767C127.394 157.882 129.101 155.28 132.291 153.344C135.482 151.408 138.558 151.003 138.512 150.827C137.838 150.756 137.156 150.821 136.507 151.018C133.299 151.75 130.423 153.523 128.328 156.06C127.858 156.55 127.494 157.131 127.256 157.767Z" fill="#455A64"/>
<path d="M106.337 159.565C106.504 159.36 106.647 159.137 106.765 158.899C107.025 158.456 107.416 157.805 107.882 156.941C108.831 155.234 110.178 152.732 111.616 149.541C113.332 145.821 114.786 141.986 115.97 138.064C117.404 133.234 118.3 128.261 118.641 123.235C118.97 117.802 118.99 112.356 118.702 106.921C118.648 105.689 118.595 104.488 118.549 103.333C118.547 102.193 118.382 101.059 118.059 99.9658C117.892 99.4422 117.633 98.9526 117.294 98.5196C116.946 98.1133 116.512 97.7893 116.024 97.5708C115.579 97.3371 115.077 97.2359 114.576 97.2793C114.076 97.3227 113.598 97.5089 113.2 97.8156L113.414 98.114L115.205 96.9663L115.35 96.8745L115.259 96.7444C114.656 95.873 113.964 95.0676 113.193 94.3417C112.542 93.6913 111.984 93.148 111.547 92.6889C111.111 92.2298 110.782 91.8626 110.591 91.61C110.4 91.3575 110.293 91.2045 110.277 91.2198C110.342 91.374 110.424 91.5203 110.522 91.656C110.791 92.0631 111.09 92.4493 111.417 92.8114C111.831 93.2934 112.374 93.852 113.009 94.5177C113.741 95.2501 114.4 96.0522 114.975 96.9127L115.029 96.6908L113.223 97.8003L113.437 98.0987C113.785 97.8491 114.196 97.7017 114.623 97.6733C115.051 97.6449 115.478 97.7366 115.855 97.938C116.282 98.1419 116.66 98.434 116.965 98.795C117.269 99.1906 117.502 99.6359 117.654 100.111C117.95 101.164 118.094 102.254 118.082 103.348C118.12 104.511 118.166 105.705 118.212 106.944C118.458 112.36 118.42 117.785 118.097 123.196C117.432 133.848 114.073 143.053 111.272 149.411C109.872 152.61 108.594 155.127 107.706 156.872L106.681 158.877C106.546 159.095 106.43 159.326 106.337 159.565Z" fill="#455A64"/>
<path d="M90.5281 160.163C90.4605 159.9 90.3682 159.643 90.2526 159.398C90.0307 158.862 89.7323 158.158 89.365 157.286C88.5998 155.457 87.4903 152.794 86.1895 149.496C83.5879 142.885 80.2977 133.634 77.0533 123.289C75.1021 117.106 73.3422 111.245 71.7889 106.096C71.4063 104.81 71.0238 103.563 70.6718 102.369C70.2864 101.262 70.0672 100.105 70.0214 98.9335C69.9219 96.7451 71.743 94.8551 73.4187 95.1535L73.4646 94.8245L70.8095 94.6103L70.9319 94.7174C70.8151 94.1128 70.8459 93.4889 71.0217 92.8988C71.1976 92.3087 71.5132 91.7697 71.942 91.3277C72.2596 91.0384 72.6057 90.782 72.975 90.5625C72.5452 90.6883 72.1551 90.9228 71.8425 91.2435C71.3644 91.6893 71.0061 92.248 70.8002 92.8683C70.5943 93.4887 70.5475 94.1508 70.6641 94.7939V94.8857H70.7713L73.4187 95.1612L73.4646 94.8322C71.4981 94.4572 69.5087 96.5615 69.5776 98.9335C69.6125 100.146 69.8239 101.347 70.205 102.499C70.557 103.701 70.9167 104.948 71.2992 106.233C72.8296 111.398 74.5512 117.267 76.5024 123.457C79.7468 133.81 83.1058 143.061 85.7993 149.642C87.1613 152.932 88.3167 155.564 89.1507 157.37L90.1302 159.444C90.2354 159.697 90.3688 159.939 90.5281 160.163Z" fill="#455A64"/>
<path d="M84.4144 164.876C84.4144 165.037 85.5698 165.267 87.0313 165.404C88.4928 165.542 89.6865 165.519 89.7018 165.404C89.7171 165.289 88.5464 165.014 87.0849 164.884C85.6234 164.754 84.4297 164.723 84.4144 164.876Z" fill="#455A64"/>
<path d="M108.931 163.667C108.931 163.751 109.459 163.759 109.872 164.371C109.986 164.533 110.064 164.716 110.102 164.91C110.141 165.104 110.138 165.303 110.094 165.496C110.009 165.709 109.869 165.896 109.687 166.037C109.506 166.177 109.29 166.266 109.062 166.295C108.834 166.323 108.603 166.289 108.393 166.197C108.182 166.105 108.001 165.958 107.867 165.771C107.778 165.595 107.727 165.401 107.718 165.203C107.709 165.005 107.741 164.808 107.813 164.624C108.066 163.935 108.579 163.79 108.579 163.713C108.579 163.637 107.913 163.637 107.469 164.478C107.353 164.717 107.292 164.978 107.292 165.243C107.292 165.509 107.353 165.77 107.469 166.009C107.643 166.301 107.898 166.536 108.203 166.685C108.508 166.835 108.851 166.893 109.188 166.851C109.525 166.81 109.843 166.671 110.103 166.453C110.363 166.234 110.554 165.944 110.652 165.618C110.687 165.354 110.662 165.084 110.577 164.831C110.492 164.578 110.35 164.347 110.162 164.157C109.558 163.43 108.885 163.606 108.931 163.667Z" fill="#455A64"/>
<path d="M55.9882 127.306C56.188 126.961 56.3326 126.586 56.4167 126.197C56.7027 125.154 56.9023 124.089 57.0135 123.013C57.3425 119.479 57.3656 115.923 57.0824 112.385C57.017 110.421 56.7608 108.469 56.3172 106.555C55.9483 104.988 55.3773 103.475 54.6185 102.055C54.1158 101.094 53.502 100.195 52.7898 99.3772C52.5458 99.0616 52.2571 98.7832 51.9328 98.5508C52.8062 99.7144 53.5865 100.945 54.2666 102.231C54.9496 103.645 55.4633 105.135 55.7969 106.669C56.1987 108.561 56.4342 110.483 56.5009 112.416C56.7687 115.929 56.7994 119.457 56.5927 122.975C56.4652 124.428 56.2634 125.874 55.9882 127.306Z" fill="#455A64"/>
<path d="M42.261 115.292C42.261 115.46 44.7019 115.636 47.0356 117.404C49.3694 119.171 50.2876 121.444 50.4407 121.36C50.4005 120.812 50.2186 120.285 49.9127 119.829C49.2875 118.687 48.4205 117.695 47.3723 116.922C46.3274 116.149 45.1303 115.606 43.8601 115.33C43.3392 115.18 42.7885 115.167 42.261 115.292Z" fill="#455A64"/>
<path d="M39.9807 137.176C39.7554 136.166 39.4272 135.181 39.0013 134.238C38.3126 132.463 37.2796 130.037 36.0018 127.42C34.724 124.803 33.4231 122.508 32.4361 120.878C31.9431 119.971 31.3613 119.115 30.6991 118.322C31.088 119.277 31.5537 120.198 32.0917 121.077C32.987 122.753 34.2189 125.071 35.4968 127.673C36.7746 130.274 37.8535 132.654 38.634 134.391C39.0052 135.355 39.4557 136.287 39.9807 137.176Z" fill="#455A64"/>
<path d="M43.5923 135.233C43.5179 134.367 43.3275 133.515 43.0261 132.7C42.4287 130.68 41.4976 128.774 40.2714 127.061C39.0095 125.357 37.3768 123.962 35.4967 122.982C34.7456 122.539 33.9259 122.223 33.0711 122.049C33.7896 122.517 34.5329 122.946 35.2978 123.334C37.0424 124.391 38.561 125.782 39.7664 127.428C40.9476 129.104 41.8973 130.931 42.5899 132.861C42.8568 133.678 43.1921 134.472 43.5923 135.233Z" fill="#455A64"/>
<path d="M22.9862 138.837C22.9862 138.837 23.1851 139.028 23.6519 139.12C24.3216 139.222 25.0064 139.112 25.6107 138.806C26.4873 138.339 27.224 137.647 27.7456 136.801C28.395 135.814 28.9315 134.756 29.3448 133.649C30.0989 131.638 30.4423 129.497 30.3548 127.352C30.3775 126.464 30.2294 125.581 29.9187 124.75C29.8268 124.75 29.9952 125.76 29.9646 127.359C29.9354 129.45 29.5472 131.521 28.8168 133.481C27.9445 135.723 26.8044 137.743 25.4271 138.477C24.6791 138.874 23.817 139.001 22.9862 138.837Z" fill="#455A64"/>
<path d="M91.3316 98.6352C91.3316 98.6352 91.7677 94.5415 93.6807 94.289C95.5936 94.0365 99.3123 94.4114 99.4424 98.6352L97.5218 101.696C97.5218 101.696 101.103 110.388 101.868 113.173C102.633 115.959 104.929 170.493 104.929 170.493L98.9068 182.85L92.4028 170.301L91.3316 111.482L93.8107 102.178L91.3316 98.6352Z" fill="#FFD000"/>
<path d="M80.2671 95.8875C80.2671 95.8875 80.4507 96.1859 80.8715 96.6526C81.2924 97.1194 81.9199 97.7468 82.7309 98.4967C84.8565 100.465 87.1392 102.256 89.5563 103.853L89.9618 104.121V103.631V103.386C90.0013 101.787 90.1831 100.194 90.5051 98.6268C90.7595 97.361 91.319 96.1764 92.1349 95.1759C92.9416 94.289 93.9104 93.5643 94.989 93.041C94.6559 93.0652 94.3321 93.1619 94.0402 93.3241C93.2033 93.6963 92.4529 94.2382 91.8365 94.9157C90.9293 95.9353 90.2995 97.1711 90.0077 98.5044C89.6449 100.097 89.4424 101.722 89.4032 103.356V103.6L89.8394 103.386C87.4422 101.796 85.1426 100.064 82.9528 98.1983C81.3154 96.7674 80.3206 95.8339 80.2671 95.8875Z" fill="#263238"/>
<path d="M95.1499 92.9961C95.1499 93.0956 96.0987 93.4629 97.3842 94.5877C99.0721 96.0975 100.291 98.0601 100.896 100.242C101.004 100.655 101.08 101.069 101.149 101.467L101.248 102.056L101.593 101.604C103.054 99.7067 104.317 98.0156 105.212 96.7837C105.736 96.1491 106.192 95.4619 106.574 94.733C105.975 95.2802 105.432 95.885 104.952 96.5389C103.988 97.7096 102.656 99.3623 101.202 101.245L101.654 101.382C101.585 100.962 101.501 100.525 101.386 100.089C100.769 97.7996 99.4462 95.7623 97.6061 94.2663C97.0665 93.8453 96.4782 93.4908 95.8539 93.2103C95.4101 93.0497 95.1576 92.9961 95.1499 92.9961Z" fill="#263238"/>
<path d="M94.0938 101.176C94.0938 101.329 94.9126 101.474 95.9226 101.489C96.9326 101.505 97.759 101.405 97.759 101.244C97.759 101.084 96.948 100.954 95.9303 100.931C94.9126 100.908 94.0938 101.022 94.0938 101.176Z" fill="#263238"/>
<path d="M92.3493 95.7186C92.2346 95.8105 93.1834 97.249 94.7597 98.588C96.3359 99.9271 97.8739 100.685 97.9428 100.555C98.0117 100.424 96.6573 99.4909 95.1269 98.1595C93.5966 96.8281 92.4794 95.6192 92.3493 95.7186Z" fill="#263238"/>
<path d="M97.2846 109.232C97.4377 109.232 97.2846 107.326 96.9938 105.031C96.7031 102.735 96.3052 100.884 96.1522 100.906C95.9991 100.929 96.1522 102.804 96.4353 105.107C96.7184 107.41 97.1546 109.247 97.2846 109.232Z" fill="#263238"/>
<path d="M95.8002 116.601C95.9609 116.601 95.9762 113.15 95.8002 108.904C95.6242 104.657 95.4253 101.252 95.2646 101.252C95.1039 101.252 95.0963 104.703 95.2646 108.95C95.4329 113.196 95.6242 116.601 95.8002 116.601Z" fill="#263238"/>
<path d="M124.15 172.772C124.202 172.544 124.226 172.31 124.219 172.076C124.219 171.563 124.272 170.905 124.303 170.094C124.364 168.365 124.471 165.87 124.64 162.794C124.953 156.635 125.611 148.134 126.69 138.783C127.769 129.433 129.039 120.993 130.011 114.902C130.501 111.91 130.891 109.462 131.182 107.686C131.304 106.921 131.412 106.233 131.488 105.728C131.532 105.498 131.555 105.265 131.557 105.031C131.469 105.248 131.407 105.474 131.373 105.705C131.274 106.21 131.136 106.852 130.968 107.648C130.623 109.339 130.157 111.795 129.621 114.841C128.542 120.916 127.218 129.379 126.132 138.714C125.045 148.049 124.456 156.604 124.242 162.771C124.127 165.832 124.073 168.357 124.089 170.086C124.089 170.905 124.089 171.563 124.089 172.076C124.084 172.309 124.105 172.543 124.15 172.772Z" fill="#455A64"/>
<g opacity="0.4">
<path d="M118.304 103.172C119.291 112.897 120.278 122.676 119.49 132.417C118.702 142.158 116.039 151.952 110.308 159.871C109.956 160.437 109.483 160.918 108.923 161.279C108.639 161.454 108.31 161.542 107.976 161.531C107.643 161.52 107.32 161.411 107.048 161.218C106.176 160.453 106.681 159.06 107.232 158.05C116.364 141.289 120.223 122.162 118.304 103.172Z" fill="black"/>
</g>
<g opacity="0.4">
<path d="M57.0135 115.951C57.0135 115.951 57.4038 127.513 54.4808 129.411L55.3531 138.042C55.3531 138.042 55.2077 145.694 55.0623 148.402C57.5338 143.628 58.4903 138.179 58.5898 132.8C58.6892 127.421 57.9777 122.088 57.266 116.732" fill="black"/>
</g>
<g opacity="0.4">
<path d="M28.197 113.93C27.8885 115.225 27.3232 116.445 26.5346 117.518C25.746 118.59 24.7501 119.494 23.606 120.174C22.8853 120.61 22.0732 120.872 21.234 120.939C20.329 120.916 19.447 120.65 18.6808 120.168C17.9146 119.686 17.2925 119.006 16.8801 118.2C15.9772 116.67 15.8547 114.78 15.6405 112.989L27.5772 112.844L28.197 113.93Z" fill="black"/>
</g>
<g opacity="0.4">
<path d="M128.527 163.253C129.909 160.452 132.118 158.143 134.855 156.638C137.592 155.133 140.725 154.504 143.83 154.836C144.277 154.928 144.738 154.928 145.185 154.836C145.402 154.78 145.596 154.654 145.734 154.476C145.872 154.299 145.948 154.081 145.95 153.856C145.877 153.525 145.683 153.233 145.406 153.038C142.399 150.444 137.594 150.635 134.35 152.931C132.705 154.142 131.335 155.688 130.332 157.467C129.328 159.247 128.713 161.218 128.527 163.253Z" fill="black"/>
</g>
<g opacity="0.4">
<path d="M33.1861 122.109C36.0054 122.907 38.6026 124.344 40.7753 126.31C42.9479 128.275 44.6374 130.716 45.712 133.442C45.9416 134.038 46.1099 134.804 45.6584 135.263C45.4075 135.454 45.0936 135.542 44.7798 135.511C44.4661 135.48 44.1758 135.331 43.9674 135.094C43.5696 134.605 43.2872 134.032 43.141 133.419C42.3123 130.989 40.9957 128.754 39.272 126.851C37.5482 124.948 35.4538 123.418 33.1172 122.354" fill="black"/>
</g>
<path d="M27.3476 116.211L27.1563 109.186C27.1497 108.975 27.103 108.768 27.0186 108.574L25.4347 104.748C25.4347 104.748 31.8851 97.3873 32.2294 96.4844C32.5738 95.5815 32.3671 94.6174 30.7603 95.2831C29.1534 95.9488 23.9655 100.746 23.9655 100.746L21.9684 97.2036C21.9684 97.2036 26.636 92.2147 27.1027 91.6867C27.5695 91.1588 27.3017 88.3506 25.5724 89.2841C23.8431 90.2176 19.451 94.2195 19.451 94.2195L18.2497 93.0181L21.7159 87.6619C21.7159 87.6619 22.9325 85.8408 21.4022 85.3434C19.8718 84.8461 19.2674 85.8791 18.2038 87.0804C17.2232 88.3007 16.3162 89.5782 15.4874 90.9063L14.462 90.8297L12.8705 90.4395L12.9929 88.5878C12.9929 88.5878 15.1278 85.5271 15.4874 84.8155C15.7858 84.2492 16.6887 82.9255 15.4874 82.3899C14.2861 81.8542 13.5056 81.7548 12.8705 82.8413C12.5041 83.3734 12.0606 83.8479 11.5544 84.2492C10.9191 83.6647 10.2026 83.175 9.42719 82.7954C8.47837 82.497 7.3536 83.5606 8.45545 86.6213C8.63909 87.1263 9.72562 92.7427 9.72562 92.7427L9.99346 95.6733L11.2713 98.2978L17.0024 108.322L16.7882 115.208C16.7423 116.67 16.9106 118.437 17.8288 119.577C18.3425 120.23 19.0464 120.706 19.843 120.941C20.6395 121.175 21.4893 121.156 22.2745 120.886C23.3906 120.487 24.415 119.867 25.2865 119.064C26.1581 118.261 26.8591 117.29 27.3476 116.211Z" fill="#FFBE9D"/>
<path d="M17.0866 100.028C17.2517 99.5271 17.3821 99.0158 17.4769 98.4973L17.936 96.8522C18.0202 96.5384 18.1043 96.2094 18.1808 95.8651C18.188 95.8092 18.188 95.7526 18.1808 95.6968C18.1899 95.6513 18.1899 95.6045 18.1808 95.559V95.5208C18.1568 95.4774 18.1212 95.4415 18.078 95.4172C18.0347 95.3929 17.9855 95.3811 17.936 95.383C17.865 95.3843 17.797 95.4116 17.7447 95.4596L17.7064 95.5055V95.5743V95.6662C17.6951 95.7217 17.6951 95.779 17.7064 95.8345C17.7175 95.8815 17.7401 95.9249 17.7721 95.961C17.8042 95.9971 17.8447 96.0246 17.8901 96.0411C17.925 96.0565 17.9628 96.0644 18.001 96.0644C18.0392 96.0644 18.077 96.0565 18.112 96.0411L18.1808 95.9799V95.934V95.8881L18.2421 95.7733C18.3285 95.6303 18.4231 95.4923 18.5252 95.3601C19.3673 94.4383 20.2779 93.5814 21.2492 92.7968C22.0144 92.1617 22.4276 91.7408 22.374 91.6796C22.3205 91.6184 21.8078 91.9245 21.0043 92.483C19.9264 93.1967 18.9464 94.0482 18.089 95.0158C17.962 95.1711 17.8494 95.3375 17.7523 95.5131L17.6835 95.6355C17.6376 95.5973 17.7983 95.7197 17.8289 95.7274C17.8595 95.735 17.8901 95.8039 17.9284 95.7886C18.2803 95.8421 18.1502 95.8268 18.1808 95.7886L18.0278 95.7197C17.9819 95.7197 17.9437 95.6432 17.9284 95.6585C17.9131 95.6738 17.8519 95.6585 17.7371 95.6585C17.6223 95.6585 17.6988 95.6585 17.6682 95.6585V95.7427C17.5917 96.0717 17.5228 96.3931 17.454 96.7221C17.3086 97.3495 17.1862 97.9158 17.1173 98.4055C16.9579 98.9331 16.9472 99.4944 17.0866 100.028Z" fill="#EB996E"/>
<path d="M13.9341 96.4996C14.1025 96.4613 13.7199 94.9004 14.4009 93.1252C15.0819 91.3499 16.1685 90.2022 16.0154 90.0645C15.1656 90.6725 14.4921 91.4949 14.0633 92.4478C13.6346 93.4007 13.4659 94.4502 13.5745 95.4895C13.674 96.1552 13.8806 96.5149 13.9341 96.4996Z" fill="#EB996E"/>
<path d="M23.2694 107.25C23.3918 107.349 24.5855 106.163 25.9475 104.595C27.3095 103.026 28.3119 101.672 28.1971 101.572C28.0823 101.473 26.881 102.659 25.5267 104.227C24.1723 105.796 23.1546 107.143 23.2694 107.25Z" fill="#EB996E"/>
<path d="M20.9126 103.898C21.0274 104.006 22.2287 103.011 23.5984 101.672C24.968 100.333 25.9857 99.1697 25.8939 99.0472C25.8021 98.9248 24.5931 99.9272 23.2081 101.274C21.8232 102.621 20.7978 103.791 20.9126 103.898Z" fill="#EB996E"/>
<path d="M25.0523 113.74C25.0523 113.786 25.6568 113.587 26.2842 112.86C27.1011 111.897 27.527 110.663 27.4779 109.401C27.446 108.707 27.2632 108.028 26.9422 107.412C26.6438 106.861 26.3377 106.417 26.1158 106.027C25.6567 105.262 25.6185 104.711 25.5343 104.711C25.4502 104.711 25.366 105.331 25.7639 106.203C26.1618 107.075 26.8963 108.085 26.9193 109.424C26.95 110.562 26.6176 111.679 25.9704 112.615C25.4731 113.342 24.9911 113.656 25.0523 113.74Z" fill="#EB996E"/>
<path d="M17.0331 108.238C17.6852 109.729 18.4527 111.166 19.3286 112.538C19.6515 113.104 20.0563 113.62 20.5299 114.068C20.928 114.444 21.3959 114.738 21.9073 114.933C22.7949 115.254 23.3917 115.086 23.3764 115.032C23.3611 114.979 22.8178 114.948 22.0603 114.566C21.0948 114.027 20.3096 113.215 19.803 112.232C18.4793 109.929 17.1861 108.123 17.0331 108.238Z" fill="#EB996E"/>
<path d="M12.9854 91.6876C13.1079 91.6876 13.215 90.4786 13.2532 88.7799L13.2073 88.9253C13.5134 88.5124 13.7969 88.0833 14.0567 87.6398C14.6688 86.5762 15.128 85.5815 15.4952 84.8852C15.8625 84.1889 16.0461 83.8139 16.0461 83.7298C16.0461 83.6456 15.6329 84.0511 15.1815 84.7168C14.73 85.3825 14.1944 86.3466 13.5976 87.3873C13.3451 87.8311 13.0849 88.2519 12.8324 88.6269L12.7865 88.7034V88.7799C12.7134 89.7537 12.7804 90.7328 12.9854 91.6876Z" fill="#EB996E"/>
<path d="M10.1848 95.9188C10.2308 95.9188 10.1006 95.4903 10.0471 94.7481C9.98919 93.7287 9.98919 92.7068 10.0471 91.6874V91.6338C9.88638 90.7233 9.7104 89.7592 9.52676 88.7491C9.52676 88.6726 9.52676 88.5961 9.52676 88.5272V88.5655C9.52676 87.7314 10.116 86.9892 10.5904 86.3159L11.8682 84.5024C12.3036 83.9728 12.6641 83.3857 12.9395 82.7578C12.413 83.203 11.9496 83.7179 11.5621 84.2882L10.1772 86.0251C9.89829 86.3726 9.64267 86.7381 9.41201 87.1193C9.11763 87.5743 8.96822 88.1079 8.98351 88.6497C8.99255 88.7217 9.00531 88.7932 9.02176 88.8639C9.22071 89.8739 9.41199 90.8304 9.58798 91.741V91.6874C9.57121 92.7283 9.6532 93.7685 9.83285 94.794C9.87876 95.5439 10.1313 95.9494 10.1848 95.9188Z" fill="#EB996E"/>
<path d="M21.4866 101.703C21.6473 101.657 21.4407 100.639 21.5784 99.4071C21.7161 98.1752 22.1217 97.234 21.9763 97.1499C21.8309 97.0657 21.1652 97.9839 21.0199 99.3459C20.8745 100.708 21.3565 101.756 21.4866 101.703Z" fill="#EB996E"/>
<path d="M17.2168 97.7702C17.3774 97.7702 17.4004 96.6683 17.76 95.3905C18.1196 94.1127 18.6476 93.1562 18.5252 93.095C18.4027 93.0338 17.607 93.8601 17.232 95.2757C16.8571 96.6913 17.0714 97.7931 17.2168 97.7702Z" fill="#EB996E"/>
<path d="M156.429 157.663C157.257 143.063 152.65 128.674 143.497 117.27L142.908 117.675C151.956 128.97 156.5 143.215 155.663 157.663H156.429Z" fill="#263238"/>
<path d="M146.221 121.783L146.359 121.691C146.648 121.508 146.896 121.267 147.086 120.982C147.277 120.698 147.406 120.377 147.465 120.04C147.524 119.702 147.512 119.357 147.429 119.024C147.347 118.692 147.196 118.381 146.986 118.11L143.107 113.068C142.657 112.511 142.015 112.142 141.308 112.034C140.6 111.925 139.878 112.083 139.281 112.479L139.143 112.57C138.854 112.754 138.606 112.996 138.415 113.282C138.225 113.567 138.096 113.888 138.037 114.226C137.978 114.564 137.99 114.91 138.072 115.243C138.155 115.576 138.306 115.888 138.516 116.159L142.395 121.202C142.846 121.757 143.488 122.124 144.196 122.232C144.903 122.339 145.625 122.179 146.221 121.783Z" fill="#263238"/>
<mask id="mask0_682_25435" style="mask-type:alpha" maskUnits="userSpaceOnUse" x="12" y="40" width="161" height="155">
<path fill-rule="evenodd" clip-rule="evenodd" d="M95.3511 40.0786C119.484 41.5624 131.191 65.3973 145.943 82.1754C157.899 95.7741 168.961 109.409 171.286 126.445C173.971 146.122 175.558 168.605 159.663 182.721C143.717 196.882 117.964 195.809 95.3511 193.883C72.1366 194.322 53.3796 187.342 42.4481 172.737C26.9316 160.174 13.0786 144.922 12.0648 126.445C11.0113 107.244 22.9446 90.1752 37.1121 75.4837C52.9597 59.05 70.8381 38.5713 95.3511 40.0786Z" fill="#FFF3CC"/>
</mask>
<g mask="url(#mask0_682_25435)">
<path d="M49 154H157.159V331.153H49V154Z" fill="#455A64"/>
<path d="M126.367 154.031C126.367 154.031 126.397 154.2 126.47 154.513C126.543 154.827 126.665 155.34 126.799 155.898C126.872 156.204 126.957 156.541 127.042 156.901C127.127 157.26 127.279 157.666 127.407 158.056C127.692 159.007 128.019 159.937 128.387 160.841L129.032 162.425C129.257 162.968 129.549 163.504 129.823 164.078C130.419 165.295 131.065 166.472 131.757 167.605C133.398 170.198 135.252 172.565 137.288 174.668C139.385 176.755 141.646 178.568 144.035 180.078C145.167 180.721 146.232 181.379 147.284 181.822C147.808 182.052 148.3 182.32 148.793 182.503L150.223 183.024C151.123 183.383 151.975 183.552 152.711 183.789C153.077 183.881 153.417 183.98 153.74 184.049L154.616 184.187L155.833 184.37C156.113 184.409 156.259 184.416 156.259 184.416C156.259 184.416 156.113 184.416 155.839 184.332L154.622 184.11L153.746 183.957C153.429 183.888 153.089 183.781 152.724 183.682C151.888 183.483 151.061 183.227 150.247 182.917L148.83 182.389C148.337 182.197 147.85 181.93 147.327 181.7C146.28 181.249 145.228 180.59 144.102 179.948C141.732 178.435 139.49 176.625 137.41 174.546C135.382 172.453 133.534 170.099 131.897 167.521C131.202 166.4 130.554 165.233 129.957 164.024C129.683 163.458 129.391 162.923 129.159 162.379L128.508 160.849C128.136 159.949 127.802 159.025 127.511 158.079C127.377 157.666 127.237 157.314 127.133 156.931L126.878 155.937C126.732 155.386 126.616 154.927 126.519 154.567C126.422 154.207 126.367 154.031 126.367 154.031Z" fill="#263238"/>
<path d="M137.312 154.428C137.312 154.428 137.312 154.558 137.349 154.795C137.385 155.032 137.434 155.43 137.489 155.836C137.554 156.389 137.65 156.936 137.775 157.473C137.91 158.196 138.079 158.909 138.28 159.608C138.395 159.998 138.511 160.411 138.633 160.832C138.754 161.253 138.931 161.682 139.083 162.125C139.424 163.075 139.803 164.002 140.221 164.903C141.208 166.976 142.367 168.912 143.676 170.68C145.027 172.45 146.52 174.039 148.13 175.424C148.897 176.036 149.608 176.641 150.339 177.1C150.698 177.337 151.032 177.59 151.373 177.781L152.365 178.347C152.973 178.722 153.581 178.959 154.105 179.204C154.545 179.414 154.993 179.593 155.449 179.74L156.313 180.03L156.617 180.122C156.617 180.122 156.52 180.069 156.325 179.992L155.468 179.663C155.016 179.506 154.571 179.32 154.135 179.105C153.624 178.852 153.028 178.607 152.413 178.225L151.434 177.658C151.093 177.452 150.758 177.199 150.405 176.962C149.681 176.503 148.976 175.899 148.215 175.286C146.624 173.895 145.144 172.311 143.798 170.558C142.496 168.797 141.34 166.874 140.348 164.819C139.929 163.926 139.548 163.007 139.204 162.064C139.046 161.62 138.876 161.2 138.748 160.779C138.62 160.358 138.505 159.96 138.389 159.57C138.184 158.875 138.007 158.168 137.86 157.45C137.731 156.915 137.628 156.371 137.55 155.82C137.483 155.422 137.428 155.055 137.379 154.787C137.331 154.52 137.312 154.428 137.312 154.428Z" fill="#263238"/>
<path d="M106.453 174.911C106.635 174.971 106.802 175.087 106.94 175.248C107.106 175.458 107.22 175.724 107.269 176.013C107.31 176.209 107.312 176.414 107.276 176.612C107.24 176.809 107.167 176.992 107.062 177.146C105.686 177.447 104.29 177.585 102.894 177.559C101.939 177.527 100.998 177.267 100.12 176.794C99.1402 176.211 98.359 175.207 97.9171 173.963C97.6748 173.305 97.5701 172.581 97.6129 171.858C97.6733 171.086 97.9595 170.369 98.416 169.846C99.3834 168.714 100.923 168.507 102.377 168.614C105.594 168.891 108.748 169.88 111.692 171.537C113.306 172.435 114.838 173.551 116.261 174.866C117.753 176.201 118.895 178.066 119.54 180.222C119.835 181.327 119.811 182.526 119.473 183.611C119.1 184.739 118.438 185.679 117.593 186.282C115.841 187.544 113.663 187.851 111.54 187.812C107.281 187.682 102.73 187.047 98.6289 184.53C96.5669 183.312 94.7243 181.578 93.214 179.434C91.6928 177.33 90.7129 174.698 90.4031 171.881C90.2164 170.252 90.3058 168.592 90.6654 167.01C91.0251 165.427 91.6469 163.958 92.49 162.699C94.2179 160.189 96.8402 158.827 99.4381 158.391C102.021 157.992 104.639 158.157 107.177 158.881C108.394 159.264 109.611 159.7 110.828 160.098C111.99 160.633 113.152 161.131 114.271 161.682C118.451 163.921 122.447 166.668 126.203 169.884C129.737 172.838 132.926 175.768 135.876 178.37C138.827 180.972 141.547 183.275 143.987 185.18C146.097 186.796 148.272 188.274 150.503 189.61L152.979 190.995C153.715 191.347 154.348 191.615 154.853 191.852C155.869 192.311 156.405 192.541 156.405 192.541L154.865 191.776C154.36 191.539 153.734 191.263 152.997 190.904L150.527 189.503C148.307 188.157 146.142 186.671 144.041 185.05C141.608 183.137 138.876 180.872 135.949 178.232C133.023 175.592 129.817 172.685 126.282 169.716C122.522 166.488 118.519 163.73 114.332 161.483C113.207 160.924 112.045 160.427 110.876 159.891C109.66 159.486 108.443 159.049 107.226 158.667C104.67 157.936 102.033 157.768 99.432 158.169C96.8036 158.606 94.1388 159.991 92.3805 162.539C91.5299 163.814 90.9018 165.3 90.5371 166.9C90.1724 168.501 90.079 170.179 90.2632 171.828C90.5766 174.68 91.5668 177.347 93.1045 179.48C94.6389 181.628 96.501 183.366 98.5803 184.591C102.718 187.085 107.287 187.759 111.564 187.881C113.706 187.881 115.902 187.606 117.697 186.305C118.571 185.685 119.253 184.711 119.632 183.543C119.98 182.426 120.006 181.191 119.705 180.053C119.045 177.869 117.885 175.981 116.37 174.628C114.938 173.309 113.396 172.19 111.771 171.292C108.811 169.632 105.641 168.642 102.407 168.369C100.941 168.27 99.3651 168.476 98.3734 169.647C97.9011 170.19 97.6062 170.935 97.5459 171.736C97.5037 172.475 97.6126 173.215 97.8623 173.886C98.316 175.152 99.1144 176.172 100.113 176.763C101.001 177.233 101.95 177.492 102.912 177.528C104.314 177.548 105.713 177.399 107.092 177.085C107.198 176.924 107.272 176.734 107.308 176.531C107.344 176.327 107.341 176.116 107.299 175.914C107.243 175.622 107.123 175.357 106.952 175.149C106.807 175.013 106.634 174.931 106.453 174.911Z" fill="#263238"/>
<path d="M62.7199 154.199C62.7199 154.199 63.0728 154.391 63.7542 154.727C64.7239 155.252 65.6459 155.906 66.5042 156.678C67.8131 157.927 68.9657 159.415 69.9236 161.093C71.0735 162.999 72.2295 165.302 73.708 167.689C75.1864 170.077 76.7501 172.739 78.4536 175.548C80.2787 178.592 82.3147 181.426 84.5378 184.018C85.772 185.415 87.0879 186.694 88.4743 187.844C89.9425 189.034 91.4755 190.092 93.0618 191.012C96.4234 192.919 99.9435 194.348 103.557 195.274C111.065 197.233 118.421 197.317 125.04 197.37C131.66 197.424 137.653 197.37 142.648 197.883C146.592 198.163 150.425 199.63 153.825 202.16C154.719 202.851 155.565 203.634 156.356 204.502C156.885 205.099 157.159 205.42 157.159 205.42C157.159 205.42 156.903 205.083 156.38 204.471C155.592 203.595 154.75 202.799 153.861 202.091C150.471 199.526 146.64 198.023 142.691 197.707C137.689 197.179 131.703 197.171 125.046 197.156C118.39 197.141 111.083 197.003 103.6 195.052C99.9764 194.137 96.4458 192.715 93.074 190.813C91.497 189.896 89.9723 188.842 88.5108 187.66C87.1291 186.526 85.8173 185.262 84.5865 183.88C82.3773 181.304 80.3535 178.488 78.5388 175.463C76.8048 172.663 75.2655 169.992 73.7749 167.613C72.2842 165.233 71.1343 162.945 69.9723 161.04C69.0081 159.358 67.8447 157.871 66.5225 156.632C65.6613 155.872 64.7372 155.23 63.7663 154.72L62.7199 154.199Z" fill="#263238"/>
<path d="M160 243.644C160 243.644 159.897 243.116 159.671 242.113C159.544 241.494 159.389 240.883 159.209 240.284C159.014 239.565 158.783 238.754 158.461 237.836C157.72 235.605 156.772 233.491 155.638 231.539C154.109 228.903 152.283 226.563 150.217 224.591C145.562 220.222 138.979 216.48 131.21 214.819C127.334 213.955 123.215 213.473 118.95 212.983C114.55 212.566 110.171 211.854 105.832 210.848C101.525 209.861 97.3914 207.923 93.6213 205.125C90.2282 202.474 87.1807 199.181 84.5863 195.361C82.2717 191.95 80.1026 188.387 78.0883 184.687C76.1718 181.251 74.4074 178.022 72.7038 175.153C71.8459 173.722 71.0306 172.36 70.1971 171.128C69.7834 170.508 69.4001 169.881 68.9803 169.315L67.7634 167.677C67.0151 166.598 66.218 165.703 65.5062 164.846C65.1472 164.433 64.8186 164.012 64.4779 163.645L63.4741 162.635C62.8291 162.015 62.2998 161.403 61.7705 160.982L60.438 159.888L59.3368 159C59.3368 159 59.7018 159.329 60.4198 159.926L61.7644 161.051C62.2937 161.472 62.817 162.091 63.4558 162.719L64.4536 163.729C64.7943 164.096 65.1168 164.494 65.4758 164.938C66.1815 165.787 66.9725 166.69 67.7147 167.769L68.9316 169.406C69.3331 169.98 69.7164 170.6 70.1484 171.22C70.982 172.459 71.7912 173.821 72.643 175.252C74.3405 178.129 76.0988 181.374 78.0153 184.802C80.0254 188.516 82.1925 192.092 84.5072 195.514C87.1088 199.352 90.1668 202.661 93.5726 205.324C97.3466 208.116 101.482 210.051 105.79 211.04C110.137 212.048 114.524 212.761 118.932 213.174C123.191 213.664 127.31 214.138 131.173 215.003C138.924 216.648 145.495 220.359 150.138 224.706C153.763 228.105 156.611 232.647 158.394 237.874C158.722 238.769 158.96 239.596 159.16 240.315C159.361 241.034 159.525 241.631 159.635 242.129C159.872 243.123 160 243.644 160 243.644Z" fill="#263238"/>
<path d="M60.3228 223.517C60.3447 224.313 60.4139 225.106 60.5297 225.889C60.6572 226.851 60.8906 227.785 61.2232 228.666C61.4397 229.301 61.7645 229.867 62.1746 230.326C62.5846 230.785 63.0699 231.125 63.5961 231.321C64.2488 231.552 64.9413 231.533 65.5856 231.268C66.2776 230.971 66.912 230.494 67.4474 229.868C68.0164 229.208 68.5062 228.447 68.9015 227.61C69.1148 227.178 69.3 226.725 69.4552 226.256C69.6134 225.774 69.8081 225.307 69.9358 224.802C71.1786 220.228 71.3705 215.306 70.4895 210.6C70.0128 207.857 69.3135 205.183 68.4026 202.62C67.9398 201.231 67.3756 199.899 66.7173 198.641C66.0201 197.285 65.0587 196.176 63.9246 195.419C63.3051 195.045 62.6211 194.872 61.9347 194.914C61.2483 194.957 60.5813 195.215 59.9942 195.664C58.8816 196.646 58.0024 197.989 57.451 199.551C56.351 202.717 55.4379 205.98 54.7192 209.315C53.1599 216.434 52.3961 223.792 52.4498 231.176C52.4498 233.089 52.5168 235.017 52.6506 236.961C52.7549 238.929 53.0324 240.877 53.478 242.768C53.9372 244.729 54.7396 246.536 55.8265 248.056C56.9675 249.665 58.4837 250.779 60.1585 251.239C61.8627 251.655 63.6222 251.537 65.2814 250.895C66.8921 250.28 68.4142 249.345 69.7898 248.125C71.1236 246.944 72.4014 245.667 73.6168 244.299C74.8336 242.975 76.0505 241.659 77.1699 240.282C79.4272 237.542 81.4289 234.443 82.3354 230.87C83.242 227.297 82.9925 223.57 82.4084 220.158C82.1132 218.451 81.7456 216.765 81.3072 215.107C80.8752 213.47 80.4798 211.84 79.9808 210.279L79.2812 207.938C79.0195 207.173 78.764 206.407 78.5085 205.642C78.0217 204.112 77.4498 202.681 76.9083 201.258C74.8347 195.948 72.4001 190.874 69.6316 186.092C65.5712 179.085 60.8544 172.719 55.5832 167.131C53.6849 165.157 52.176 163.672 51.1113 162.731L49.505 161.277L51.0931 162.762C52.1517 163.711 53.6545 165.203 55.5406 167.184C60.7919 172.786 65.49 179.16 69.5343 186.168C72.2955 190.954 74.722 196.03 76.7866 201.342C77.3281 202.773 77.894 204.211 78.3807 205.726C78.6362 206.492 78.8918 207.257 79.1473 208.022C79.4029 208.787 79.6158 209.552 79.847 210.356C80.3459 211.886 80.7353 213.546 81.1673 215.176C81.5993 216.83 81.9648 218.511 82.2624 220.211C82.8404 223.631 83.0838 227.327 82.1833 230.862C81.2829 234.397 79.3055 237.473 77.0543 240.197C75.9227 241.575 74.7241 242.883 73.5072 244.207C72.2966 245.576 71.0228 246.853 69.6925 248.033C68.334 249.24 66.8303 250.164 65.2388 250.772C63.605 251.403 61.8727 251.519 60.195 251.109C58.549 250.664 57.0578 249.573 55.9361 247.995C54.866 246.492 54.0742 244.71 53.618 242.776C53.1753 240.897 52.9019 238.962 52.8027 237.007C52.6729 235.073 52.6039 233.148 52.5958 231.23C52.5486 223.864 53.3123 216.525 54.8652 209.422C55.5834 206.097 56.4924 202.841 57.5849 199.681C58.1279 198.147 58.9896 196.826 60.0794 195.856C60.6449 195.42 61.2883 195.17 61.9506 195.129C62.6129 195.087 63.2728 195.256 63.8699 195.618C64.9842 196.363 65.9288 197.453 66.6139 198.786C67.2702 200.034 67.8324 201.355 68.2931 202.734C69.2048 205.288 69.9061 207.952 70.386 210.685C71.2652 215.368 71.0818 220.267 69.8567 224.825C69.729 225.33 69.5343 225.797 69.3822 226.271C68.9269 227.63 68.2514 228.855 67.3987 229.868C66.8746 230.486 66.2526 230.958 65.5735 231.253C64.9428 231.509 64.2666 231.53 63.6265 231.314C63.1071 231.122 62.6275 230.788 62.2217 230.337C61.8159 229.886 61.4938 229.329 61.278 228.705C60.9408 227.83 60.7032 226.9 60.5722 225.942C60.4566 225.177 60.4141 224.58 60.3776 224.182C60.341 223.784 60.3228 223.517 60.3228 223.517Z" fill="#263238"/>
</g>
</g>
<defs>
<clipPath id="clip0_682_25435">
<rect width="200" height="200" fill="white"/>
</clipPath>
</defs>
</svg>
