<svg width="200" height="200" viewBox="0 0 200 200" fill="none" xmlns="http://www.w3.org/2000/svg">
<path fill-rule="evenodd" clip-rule="evenodd" d="M96.6489 40.0786C72.5164 41.5624 60.8087 65.3973 46.0572 82.1754C34.101 95.7741 23.0389 109.409 20.7142 126.445C18.0291 146.122 16.4425 168.605 32.3369 182.721C48.2827 196.882 74.0361 195.809 96.6489 193.883C119.863 194.322 138.62 187.342 149.552 172.737C165.068 160.174 178.921 144.922 179.935 126.445C180.989 107.244 169.055 90.1752 154.888 75.4837C139.04 59.05 121.162 38.5713 96.6489 40.0786Z" fill="#FFF3CC"/>
<mask id="mask0_682_25994" style="mask-type:alpha" maskUnits="userSpaceOnUse" x="19" y="40" width="161" height="155">
<path fill-rule="evenodd" clip-rule="evenodd" d="M96.6489 40.0786C72.5164 41.5624 60.8087 65.3973 46.0572 82.1754C34.101 95.7741 23.0389 109.409 20.7142 126.445C18.0291 146.122 16.4425 168.605 32.3369 182.721C48.2827 196.882 74.0361 195.809 96.6489 193.883C119.863 194.322 138.62 187.342 149.552 172.737C165.068 160.174 178.921 144.922 179.935 126.445C180.989 107.244 169.055 90.1752 154.888 75.4837C139.04 59.05 121.162 38.5713 96.6489 40.0786Z" fill="#FFF3CC"/>
</mask>
<g mask="url(#mask0_682_25994)">
<rect x="22" y="154" width="146" height="41" fill="#D9D9D9"/>
</g>
<path d="M134.199 55.5501L133.355 55.336C129.285 54.2961 124.972 54.8265 121.275 56.8217C117.578 58.8169 114.768 62.1306 113.403 66.1036C110.769 73.7913 111.762 75.4294 110.759 79.6381C108.636 88.3607 115.896 96.4348 115.896 96.4348L112.183 102.283C111.785 103.663 111.664 105.108 111.826 106.535C111.989 107.961 112.431 109.342 113.129 110.597C113.827 111.852 114.765 112.957 115.891 113.849C117.017 114.74 118.308 115.4 119.69 115.791C122.445 116.562 125.393 116.219 127.897 114.836C130.401 113.453 132.262 111.141 133.077 108.399L142.613 76.379C145.668 67.5433 143.108 58.3979 134.199 55.5501Z" fill="#FFBF9D"/>
<path d="M116.076 96.4697C120.102 97.5018 124.455 97.239 128.395 96C128.395 96 123.182 101.202 114.711 98.2409L116.076 96.4697Z" fill="#FF9A6C"/>
<path d="M125.837 77.823C125.731 78.2164 125.778 78.6352 125.969 78.9886C126.16 79.3421 126.48 79.6017 126.858 79.7113C127.04 79.7747 127.233 79.7997 127.425 79.7847C127.617 79.7697 127.806 79.715 127.978 79.6239C128.151 79.5327 128.304 79.407 128.43 79.2541C128.555 79.1012 128.65 78.9243 128.709 78.7338C128.81 78.3406 128.76 77.9242 128.57 77.5721C128.379 77.2199 128.063 76.9595 127.688 76.8456C127.506 76.7821 127.313 76.7571 127.121 76.7721C126.928 76.7871 126.74 76.8418 126.567 76.933C126.395 77.0241 126.241 77.1498 126.116 77.3027C125.99 77.4556 125.895 77.6325 125.837 77.823Z" fill="#263238"/>
<path d="M114.169 70.8298C114.285 71.033 115.401 70.5702 116.735 70.921C118.069 71.2719 118.888 72.1618 119.064 72.0568C119.241 71.9518 119.074 71.6731 118.729 71.2531C118.253 70.7026 117.619 70.3123 116.913 70.1356C116.219 69.9596 115.487 70.0059 114.82 70.268C114.345 70.4786 114.131 70.7321 114.169 70.8298Z" fill="#263238"/>
<path d="M114.058 75.522C113.957 75.9152 114.007 76.3316 114.197 76.6838C114.388 77.0359 114.704 77.2963 115.08 77.4103C115.261 77.4738 115.454 77.4988 115.647 77.4838C115.839 77.4688 116.027 77.4141 116.2 77.323C116.373 77.2318 116.526 77.1061 116.652 76.9532C116.777 76.8003 116.872 76.6234 116.931 76.4329C117.035 76.0396 116.986 75.622 116.795 75.2692C116.604 74.9165 116.287 74.6564 115.91 74.5446C115.728 74.4811 115.535 74.4562 115.342 74.4712C115.15 74.4862 114.962 74.5408 114.789 74.632C114.616 74.7231 114.463 74.8488 114.337 75.0017C114.212 75.1546 114.117 75.3315 114.058 75.522Z" fill="#263238"/>
<path d="M127.253 74.4361C127.361 74.6377 128.483 74.1844 129.819 74.5273C131.154 74.8703 131.963 75.7666 132.148 75.6631C132.332 75.5597 132.157 75.2794 131.805 74.8579C131.332 74.3122 130.703 73.9258 130.003 73.7513C129.309 73.5691 128.575 73.6156 127.91 73.8838C127.411 74.0897 127.197 74.3432 127.253 74.4361Z" fill="#263238"/>
<path d="M119.874 83.1075C119.228 82.7017 118.533 82.3812 117.805 82.1537C117.468 82.0304 117.169 81.8818 117.168 81.6355C117.226 81.2748 117.395 80.941 117.65 80.6798C118.184 79.9638 118.766 79.1671 119.329 78.3421C121.671 75.002 123.46 72.2265 123.33 72.1355C123.2 72.0445 121.194 74.671 118.836 78.008C118.265 78.8315 117.702 79.6155 117.202 80.3708C116.885 80.7291 116.7 81.1851 116.679 81.6629C116.697 81.7971 116.746 81.9252 116.823 82.0369C116.899 82.1487 117 82.2411 117.119 82.3067C117.292 82.4082 117.478 82.4859 117.673 82.5379C118.381 82.8138 119.12 83.005 119.874 83.1075Z" fill="#263238"/>
<path d="M127.982 70.1643C128.028 70.5587 129.405 70.7294 130.922 71.321C132.439 71.9126 133.596 72.6637 133.888 72.3845C134.02 72.2545 133.884 71.8588 133.47 71.376C132.899 70.7694 132.197 70.3011 131.417 70.0066C130.637 69.7122 129.801 69.5994 128.971 69.6768C128.338 69.7664 127.97 69.9733 127.982 70.1643Z" fill="#263238"/>
<path d="M115.409 68.1437C115.561 68.5014 116.56 68.4259 117.672 68.6925C118.785 68.9591 119.663 69.4177 119.963 69.1401C120.096 69.0101 120.055 68.674 119.699 68.2682C119.239 67.7801 118.641 67.4431 117.985 67.3018C117.331 67.145 116.643 67.1972 116.02 67.4511C115.548 67.6868 115.337 67.9656 115.409 68.1437Z" fill="#263238"/>
<path d="M115.263 62.3327C115.263 62.3327 118.944 57.4742 121.9 56.8706C125.469 56.149 125.941 59.9896 129.184 59.934C132.426 59.8785 135.838 59.1671 138.335 62.2961C141.061 65.7241 139.032 67.124 138.268 71.0348C135.123 86.8822 136.848 92.0338 139.541 84.8827C139.83 84.1189 142.243 84.0244 143.438 80.7227C145 76.4183 146.541 71.0926 146.359 67.7023C146.202 64.8502 145.166 62.6382 142.957 59.9263C139.501 55.6586 133.663 54.0916 129.576 53.4736C125.489 52.8556 116.639 55.4163 115.263 62.3327Z" fill="#263238"/>
<path d="M139.023 84.4704C139.113 84.151 139.268 83.8535 139.478 83.5966C139.688 83.3397 139.948 83.1288 140.244 82.9771C140.539 82.8254 140.862 82.7362 141.193 82.715C141.524 82.6938 141.856 82.7411 142.168 82.8539C143.746 83.4247 145.314 84.8054 144.353 88.1283C142.644 94.0199 137.082 91.0877 137.116 90.9139C137.15 90.7401 138.287 86.9349 139.023 84.4704Z" fill="#FFBF9D"/>
<path d="M139.028 89.0642C139.028 89.0642 139.105 89.1697 139.261 89.2984C139.478 89.4755 139.755 89.5619 140.034 89.5397C140.716 89.4925 141.528 88.6505 141.864 87.6007C142.027 87.0992 142.075 86.5675 142.004 86.045C142.002 85.8458 141.952 85.6499 141.858 85.4744C141.763 85.2988 141.628 85.1487 141.463 85.037C141.354 84.9728 141.227 84.9481 141.102 84.967C140.977 84.986 140.863 85.0475 140.778 85.1411C140.645 85.2791 140.652 85.4117 140.618 85.4134C140.585 85.4151 140.522 85.2796 140.64 85.0486C140.714 84.9108 140.834 84.8034 140.979 84.7456C141.176 84.669 141.397 84.6737 141.591 84.7586C141.818 84.8774 142.011 85.0521 142.151 85.2661C142.292 85.4801 142.375 85.7264 142.394 85.9817C142.497 86.5655 142.456 87.1657 142.274 87.7299C141.888 88.9094 140.959 89.8434 140.04 89.8444C139.868 89.845 139.699 89.8067 139.544 89.7325C139.39 89.6582 139.254 89.55 139.147 89.4158C138.998 89.2144 139.001 89.0754 139.028 89.0642Z" fill="#FF9A6C"/>
<path d="M115.255 55.5716C116.316 55.0569 117.606 55.2106 118.66 54.6865C123.354 52.3498 131.102 47.6532 136.109 51.8783C138.014 53.4861 140.693 54.1153 142.334 55.8502C142.803 56.3973 143.152 57.0366 143.359 57.7269C143.566 58.4172 143.626 59.1431 143.536 59.8581C143.536 59.8581 144.222 59.664 145.825 61.5356C146.847 62.7277 147.431 64.9827 147.587 66.5387C147.812 68.8711 146.402 71.0071 145.053 72.9171C144.326 73.9481 143.452 75.065 142.196 75.238C140.672 75.4405 139.311 74.0099 139.025 72.494C138.739 70.9781 138.13 69.391 137.714 67.9073C136.992 65.3055 136.23 62.9092 137.495 61.598C134.494 59.9311 132.006 61.3776 128.962 61.8255C127.681 62.0138 122.69 61.8709 121.42 61.2919C121.009 61.1048 120.646 60.8276 120.358 60.4808C119.642 61.259 118.66 61.739 117.606 61.8251C116.553 61.9111 115.505 61.5969 114.673 60.9451C113.104 59.4901 113.36 56.4973 115.255 55.5716Z" fill="#263238"/>
<path d="M145.93 71.6204C145.568 72 145.245 72.415 144.966 72.8592C144.654 73.3022 144.232 73.6553 143.74 73.883C143.108 74.065 142.43 74.0113 141.834 73.732C141.207 73.4783 140.645 73.0882 140.187 72.5901C139.822 72.1714 139.504 71.7132 139.24 71.2239C139.018 70.7512 138.759 70.2972 138.464 69.8665C138.563 70.3826 138.742 70.8799 138.996 71.3403C139.236 71.8702 139.548 72.3644 139.923 72.8091C140.409 73.3513 141.015 73.7729 141.692 74.0405C142.369 74.3561 143.143 74.3985 143.851 74.1588C144.395 73.9033 144.851 73.4933 145.164 72.9799C145.474 72.56 145.731 72.1033 145.93 71.6204Z" fill="#B9B8B6"/>
<path d="M144.794 76.2145C144.379 76.418 143.937 76.5609 143.481 76.6387C142.991 76.6948 142.494 76.6425 142.026 76.4858C141.454 76.281 140.933 75.9554 140.499 75.5311C139.716 74.725 139.105 73.7685 138.702 72.7195C138.558 72.2703 138.368 71.8374 138.134 71.4274C138.184 71.9064 138.306 72.3752 138.494 72.8183C138.83 73.9521 139.435 74.9878 140.258 75.8369C140.731 76.3019 141.307 76.6478 141.94 76.8461C142.464 77.0099 143.021 77.0426 143.561 76.9415C144.443 76.7118 144.832 76.2301 144.794 76.2145Z" fill="#B9B8B6"/>
<path d="M122.976 88.779C123.114 89.1496 123.159 89.5153 123.112 89.866C123.103 90.0347 123.026 90.1905 122.884 90.323C122.742 90.4554 122.54 90.5613 122.29 90.6335C122.027 90.7306 121.711 90.7882 121.365 90.802C121.018 90.8159 120.65 90.7858 120.285 90.7139C119.626 90.5846 119.014 90.3393 118.557 90.0223C118.1 89.7052 117.828 89.337 117.791 88.984L117.705 88.1842C119.108 88.2511 122.865 88.8111 122.976 88.779Z" fill="#FF9A6C"/>
<path d="M118.523 89.4336C118.523 89.4336 118.714 89.471 119.028 89.5484C119.467 89.6566 119.919 89.7448 120.367 89.81C121.014 89.9036 121.614 89.9106 122.047 89.8296C122.565 89.7236 122.841 89.5202 122.823 89.2583C122.832 89.1145 122.742 88.9546 122.561 88.79L122.755 88.8577C121.319 88.6476 120.061 88.4586 119.173 88.3176C118.693 88.2528 118.208 88.1699 117.727 88.0704C118.187 88.1034 118.664 88.1583 119.146 88.2339C120.038 88.354 121.283 88.5241 122.72 88.7289L122.853 88.7549L122.904 88.8028C123.185 89.0589 123.278 89.3038 123.172 89.5086C123.066 89.7134 122.766 89.8696 122.307 89.9589C121.805 90.0442 121.114 90.0259 120.382 89.9078C119.907 89.8285 119.433 89.7213 118.985 89.5915C118.816 89.5472 118.658 89.4934 118.523 89.4336Z" fill="#263238"/>
<path d="M84.5384 94.4258C84.5384 94.4258 91.216 95.9878 96.5002 96.5001C103.344 98.5621 107.5 100 107.5 100H113.376V105.801L119.426 115.526L125.562 113.138L130.519 111.396L132.939 107.765L148.929 116.143L129.656 155.827H61.7075L72.4776 130.758L84.5384 94.4258Z" fill="#FFD000"/>
<path d="M37.7954 146.718C37.9205 146.226 37.392 138.002 41.5468 135.791C45.7015 133.581 69.6175 101.561 72.9292 98.7533C81.3718 91.5935 91.0568 95.4901 91.0568 95.4901C91.0568 95.4901 83.9938 112.617 82.2754 116.99C80.557 121.362 69.9281 135.948 70.1177 135.61C71.4529 133.189 60.1705 150.167 60.1705 150.167L37.7954 146.718Z" fill="#FFD000"/>
<path d="M80.1778 110.443C80.1574 110.541 80.1277 110.637 80.089 110.73L79.7946 111.536C79.5203 112.255 79.1411 113.259 78.6732 114.489C77.697 116.998 76.3659 120.427 74.8976 124.21C73.4293 127.994 72.0498 131.411 71.0615 133.912C70.5694 135.122 70.166 136.126 69.8756 136.84L69.5448 137.647C69.5128 137.742 69.4694 137.833 69.4158 137.917C69.4355 137.819 69.4652 137.723 69.5045 137.631C69.5812 137.429 69.678 137.159 69.803 136.824C70.0733 136.106 70.4565 135.102 70.9244 133.867L74.7 124.13L78.532 114.449C79.0282 113.239 79.4315 112.23 79.7179 111.516C79.8551 111.19 79.968 110.927 80.0487 110.71C80.0853 110.618 80.1285 110.529 80.1778 110.443Z" fill="#263238"/>
<path d="M116.683 114.396C116.612 114.327 116.546 114.253 116.486 114.174L115.965 113.504L114.017 111.015L112.67 109.289C112.574 109.127 112.428 109 112.254 108.928C112.081 108.855 111.888 108.84 111.706 108.886C111.344 109.098 111.022 109.371 110.754 109.692L106.643 113.847L106.462 114.033V113.775C106.462 113.351 106.462 112.899 106.462 112.447C106.537 108.623 106.807 104.805 107.268 101.008C107.446 99.5516 107.619 98.3737 107.748 97.567C107.813 97.1771 107.865 96.8665 107.906 96.6352C107.92 96.5259 107.943 96.418 107.974 96.3125C107.977 96.4221 107.967 96.5316 107.946 96.6392C107.918 96.8732 107.878 97.1838 107.829 97.5751C107.724 98.3818 107.575 99.5677 107.426 101.024C107.091 103.96 106.764 107.994 106.688 112.464C106.688 112.915 106.688 113.367 106.688 113.787L106.506 113.714L110.633 109.575C110.79 109.414 110.947 109.261 111.105 109.108C111.258 108.936 111.447 108.798 111.657 108.704C111.766 108.663 111.883 108.646 111.999 108.654C112.116 108.663 112.229 108.696 112.331 108.753C112.514 108.856 112.677 108.993 112.811 109.156C113.303 109.785 113.734 110.366 114.142 110.907L116.038 113.436L116.542 114.125C116.598 114.211 116.645 114.301 116.683 114.396Z" fill="#263238"/>
<path d="M135.149 109.148C135.132 109.231 135.107 109.312 135.077 109.39C135.024 109.544 134.948 109.774 134.835 110.06C134.516 110.885 134.155 111.692 133.754 112.48C132.422 115.085 130.696 117.467 128.635 119.543L128.498 119.676L128.457 119.495C128.425 119.362 128.393 119.217 128.361 119.092C127.959 117.3 127.757 115.47 127.756 113.634L127.881 113.727L122.891 115.381L121.471 115.832L121.092 115.945C121.003 115.969 120.959 115.982 120.959 115.974C120.996 115.949 121.037 115.93 121.08 115.917L121.451 115.776L122.855 115.272L127.82 113.545L127.945 113.501V113.634C127.96 115.454 128.168 117.267 128.566 119.043L128.659 119.447L128.486 119.398C130.532 117.335 132.264 114.983 133.625 112.416C134.145 111.436 134.516 110.617 134.758 110.048L135.041 109.39C135.067 109.306 135.104 109.225 135.149 109.148Z" fill="#263238"/>
<path d="M99.334 155.847C99.2815 155.819 103.606 146.852 108.991 135.816C114.376 124.779 118.781 115.853 118.833 115.881C118.885 115.909 114.561 124.872 109.176 135.908C103.791 146.945 99.3864 155.871 99.334 155.847Z" fill="#263238"/>
<path d="M93.1543 142.508C93.3084 142.509 93.4617 142.531 93.6101 142.572C93.9005 142.629 94.316 142.722 94.8202 142.847C95.8448 143.101 97.2405 143.5 98.7612 144.057C100.282 144.613 101.617 145.17 102.569 145.622C103.045 145.848 103.428 146.025 103.686 146.179C103.83 146.24 103.966 146.32 104.09 146.417C103.941 146.378 103.796 146.324 103.658 146.255L102.517 145.759C101.553 145.356 100.209 144.791 98.7007 144.254C97.1921 143.718 95.8004 143.294 94.788 143.008L93.5778 142.669C93.4316 142.63 93.2897 142.576 93.1543 142.508Z" fill="#263238"/>
<path d="M91.6899 148.292C91.8292 148.238 91.9739 148.199 92.1215 148.175C92.3999 148.111 92.8073 148.034 93.3317 147.949C94.6513 147.729 95.9816 147.578 97.317 147.497C98.6533 147.415 99.9929 147.402 101.331 147.457C101.847 147.477 102.258 147.505 102.541 147.534C102.69 147.539 102.839 147.561 102.984 147.598C102.836 147.618 102.685 147.618 102.537 147.598H101.327C100.302 147.598 98.8861 147.598 97.3291 147.703C95.7721 147.808 94.3643 147.957 93.3478 148.106L92.1377 148.268C91.9904 148.298 91.8396 148.306 91.6899 148.292Z" fill="#263238"/>
<g opacity="0.3">
<path d="M107.172 113.166L107.906 115.465C107.906 115.465 111.169 111.169 112.186 111.625C113.202 112.081 116.147 113.694 116.147 113.694C116.147 113.694 112.601 108.926 112.254 108.854C111.907 108.781 111.544 108.777 110.822 109.503L107.172 113.166Z" fill="black"/>
</g>
<g opacity="0.3">
<path d="M128.639 119.145C128.162 117.327 127.926 115.454 127.937 113.574C126.187 114.179 122.605 115.24 120.959 115.946C122.375 115.761 124.323 115.684 125.743 115.498C125.837 115.465 125.939 115.456 126.037 115.475C126.136 115.493 126.228 115.536 126.304 115.602C126.38 115.667 126.438 115.751 126.471 115.845C126.504 115.94 126.512 116.041 126.493 116.14C126.69 117.871 126.772 119.613 126.739 121.355C127.672 120.966 128.513 120.385 129.208 119.651C129.903 118.917 130.436 118.045 130.773 117.092L128.639 119.145Z" fill="black"/>
</g>
<g opacity="0.3">
<path d="M55.4228 136.052C53.059 135.02 50.3322 135.169 47.8152 135.738C52.2321 136.093 56.3667 138.513 59.3718 142.111C59.6623 139.55 57.7866 137.089 55.4228 136.052Z" fill="black"/>
</g>
<path d="M151.728 117.582C151.728 117.582 156.286 119.167 161.752 132.019C164.781 139.15 168.88 146.367 166.048 152.671C164.721 155.616 144.596 156.705 144.596 156.705C144.596 156.705 141.519 153.825 141.414 151.502C141.309 149.178 141.414 146.964 141.414 146.964L135.456 143.696L145.411 121.394L151.728 117.582Z" fill="#FFD000"/>
<path d="M162.055 138.776L152.446 111.057L141.24 115.466L146.726 144.702C146.726 144.702 154.148 147.167 158.089 144.888C162.03 142.609 162.055 138.776 162.055 138.776Z" fill="#FFBF9D"/>
<path d="M162.986 91.7708C162.631 91.0205 161.663 90.722 160.844 90.8713C160.036 91.0828 159.283 91.4683 158.638 92.0007L161.865 94.7638C162.273 94.3675 162.618 93.912 162.889 93.4125C163.025 93.1627 163.104 92.8861 163.12 92.6024C163.137 92.3187 163.091 92.0348 162.986 91.7708Z" fill="#FF9A6C"/>
<path d="M141.24 115.465C141.321 115.276 139.558 107.575 141.442 105.139C143.326 102.702 150.139 95.5749 150.139 95.5749C150.139 95.5749 149.147 91.8114 152.382 91.7711C152.382 91.7711 153.144 88.7014 155.584 89.5646C155.584 89.5646 156.682 88.7579 158.174 90.0648C159.667 91.3717 165.092 95.8855 165.362 97.6885C165.488 98.8719 165.203 100.062 164.555 101.061C164.555 101.061 159.86 104.461 157.912 105.792C156.383 106.841 152.668 108.749 152.813 112.351L141.24 115.465Z" fill="#FFBF9D"/>
<path d="M156.254 97.2166C156.254 97.2166 156.339 97.1481 156.452 97.0029C156.612 96.8021 156.701 96.5539 156.706 96.297C156.692 95.9122 156.55 95.5432 156.302 95.2482C155.994 94.8733 155.658 94.5215 155.298 94.1954C154.658 93.5811 153.984 93.0021 153.281 92.4609C152.976 92.2525 152.684 92.0262 152.406 91.7832C152.751 91.924 153.075 92.1112 153.37 92.3399C154.107 92.8509 154.801 93.4201 155.447 94.0421C155.814 94.3776 156.154 94.7418 156.464 95.1312C156.731 95.462 156.873 95.8759 156.867 96.301C156.858 96.588 156.745 96.8619 156.548 97.0714C156.367 97.2005 156.258 97.2247 156.254 97.2166Z" fill="#FF9A6C"/>
<path d="M161.296 95.5505C161.003 95.2672 160.734 94.961 160.489 94.6349C160.009 94.058 159.344 93.2715 158.557 92.4405C157.771 91.6096 157.02 90.9037 156.468 90.3994C156.154 90.1412 155.857 89.8623 155.58 89.5645C155.932 89.7708 156.262 90.0127 156.565 90.2865C157.32 90.9143 158.037 91.5878 158.711 92.3034C159.384 93.0165 160.017 93.7666 160.606 94.5501C160.868 94.8609 161.099 95.1959 161.296 95.5505Z" fill="#FF9A6C"/>
<path d="M160.55 99.5235C160.719 99.2409 160.868 98.9471 160.998 98.6441C161.066 98.3221 161.113 97.9961 161.139 97.668C161.229 97.8247 161.282 98.0007 161.292 98.1816C161.301 98.3624 161.268 98.543 161.195 98.7087C161.014 99.2694 160.578 99.5558 160.55 99.5235Z" fill="#FF9A6C"/>
<path d="M138.409 125.134L140.022 132.98C139.679 134.307 143.205 154.56 144.572 156.996C145.94 159.433 149.231 160.869 154.915 160.982C160.598 161.095 164.547 156.379 165.911 153.06C167.274 149.74 163.894 142.495 162.401 136.63C160.909 130.765 158.416 121.883 158.416 121.883L138.409 125.134Z" fill="#FFD000"/>
<path d="M138.409 125.134L138.752 125.07L139.788 124.892L143.774 124.227L158.408 121.807H158.477L158.497 121.879C159.735 126.433 161.159 131.685 162.712 137.425C163.499 140.285 164.584 143.189 165.459 146.267C165.572 146.671 165.677 147.042 165.77 147.433C165.862 147.824 165.955 148.22 166.036 148.619C166.116 149.018 166.173 149.426 166.241 149.829C166.27 150.035 166.278 150.232 166.298 150.446C166.321 150.652 166.331 150.86 166.326 151.067C166.367 151.912 166.198 152.753 165.834 153.516C165.48 154.28 165.058 155.01 164.571 155.698C163.145 157.785 161.146 159.416 158.815 160.393C157.68 160.847 156.469 161.084 155.245 161.091C154.06 161.096 152.875 161.019 151.7 160.861C150.553 160.714 149.425 160.443 148.336 160.055C147.266 159.681 146.285 159.089 145.456 158.316C145.064 157.923 144.729 157.478 144.459 156.993C144.237 156.5 144.055 155.99 143.915 155.468C143.62 154.448 143.382 153.431 143.152 152.439C142.261 148.458 141.599 144.775 141.043 141.507C140.774 139.87 140.536 138.34 140.329 136.917C140.232 136.207 140.143 135.521 140.067 134.868C140.034 134.541 140.002 134.222 139.978 133.908C139.946 133.598 139.946 133.286 139.978 132.976V133.004L138.804 127.172C138.675 126.51 138.574 126.006 138.505 125.659C138.473 125.493 138.449 125.368 138.433 125.276C138.417 125.183 138.413 125.151 138.413 125.151L138.445 125.284L138.53 125.687C138.606 126.034 138.715 126.542 138.856 127.204C139.139 128.535 139.55 130.487 140.067 132.996V133.004C140.036 133.302 140.036 133.602 140.067 133.9C140.091 134.21 140.127 134.529 140.163 134.856C140.24 135.509 140.333 136.187 140.434 136.897C140.639 138.317 140.885 139.85 141.168 141.479C141.732 144.746 142.406 148.425 143.306 152.398C143.536 153.391 143.778 154.415 144.072 155.416C144.21 155.925 144.388 156.423 144.605 156.904C144.866 157.371 145.191 157.8 145.569 158.179C146.38 158.934 147.342 159.509 148.392 159.865C149.467 160.254 150.582 160.525 151.716 160.672C154.003 160.934 156.468 161.16 158.731 160.212C161.017 159.244 162.977 157.639 164.378 155.589C164.859 154.912 165.276 154.193 165.624 153.439C165.976 152.704 166.139 151.893 166.1 151.079C166.104 150.877 166.093 150.675 166.068 150.474C166.068 150.273 166.044 150.071 166.012 149.869C165.947 149.466 165.903 149.063 165.814 148.659C165.725 148.256 165.648 147.873 165.548 147.485C165.447 147.098 165.35 146.707 165.241 146.324C164.37 143.258 163.285 140.35 162.502 137.474C160.961 131.738 159.545 126.482 158.323 121.92L158.412 121.98L143.838 124.291L139.804 124.921L138.752 125.082L138.409 125.134Z" fill="#263238"/>
<path d="M140.026 132.98C140.005 133.063 139.974 133.143 139.933 133.218C139.857 133.392 139.756 133.622 139.635 133.892C139.361 134.497 138.977 135.328 138.514 136.349C137.566 138.426 136.295 141.31 134.903 144.501C133.512 147.691 132.217 150.572 131.237 152.633C130.745 153.665 130.341 154.496 130.055 155.053C129.914 155.319 129.805 155.537 129.716 155.707C129.683 155.786 129.64 155.861 129.587 155.928C129.61 155.846 129.641 155.766 129.68 155.69L129.978 155.017C130.257 154.412 130.636 153.581 131.1 152.56C132.047 150.483 133.318 147.599 134.73 144.404C136.142 141.209 137.416 138.353 138.397 136.276C138.889 135.243 139.292 134.412 139.583 133.856L139.917 133.202C139.944 133.124 139.98 133.049 140.026 132.98Z" fill="#263238"/>
<g opacity="0.3">
<path d="M141.458 142.967C140.652 137.57 139.825 131.995 138.76 126.832C138.147 136.469 140.063 146.17 143.834 155.068L141.458 142.967Z" fill="black"/>
</g>
<path d="M82.1946 162.455L82.2753 162.741L82.844 164.795L82.1946 182.414L81.3516 180.788" fill="#EBEBEB"/>
<path d="M35.1008 181.025L35.6333 182.712L82.1947 182.413L81.6219 181.025" fill="#EBEBEB"/>
<path d="M41.934 162.248L35.1008 181.025H81.6219L82.1947 162.454L41.934 162.248Z" fill="white"/>
<path d="M41.934 162.249H42.1195H44.8867H53.1841L82.1947 162.354H82.2955V162.45C82.1221 168.186 81.9285 174.467 81.7308 181.006V181.107H77.8019L35.1089 181.078H35L35.0363 180.977L40.0785 167.234C40.6755 165.621 41.1353 164.367 41.454 163.511C41.6113 163.088 41.7323 162.769 41.813 162.547C41.8937 162.325 41.9421 162.225 41.9421 162.225C41.9421 162.225 41.9058 162.342 41.8291 162.563C41.7525 162.785 41.6315 163.116 41.4822 163.544L40.1349 167.295C38.9652 170.546 37.271 175.237 35.1815 181.03L35.1089 180.925L77.8019 180.897H81.63L81.5251 181.002C81.7308 174.447 81.9285 168.162 82.1059 162.426L82.2027 162.527L53.2405 162.338L44.927 162.265L42.7125 162.241H42.1397L41.934 162.249Z" fill="#263238"/>
<path d="M79.3871 182.618C78.9656 182.618 78.5614 182.451 78.2633 182.153C77.9653 181.854 77.7979 181.45 77.7979 181.029C77.7979 180.975 77.8191 180.924 77.8569 180.886C77.8947 180.848 77.946 180.827 77.9995 180.827C78.0527 180.828 78.1034 180.85 78.141 180.887C78.1786 180.925 78.2002 180.976 78.2012 181.029C78.2012 181.263 78.2708 181.493 78.4011 181.688C78.5314 181.883 78.7166 182.035 78.9333 182.124C79.15 182.214 79.3885 182.238 79.6185 182.192C79.8485 182.146 80.0599 182.033 80.2257 181.867C80.3916 181.701 80.5045 181.49 80.5503 181.26C80.596 181.03 80.5725 180.792 80.4828 180.575C80.393 180.358 80.241 180.173 80.046 180.043C79.851 179.912 79.6217 179.843 79.3871 179.843C79.3337 179.843 79.2823 179.822 79.2445 179.784C79.2067 179.746 79.1855 179.695 79.1855 179.641C79.1855 179.588 79.2067 179.536 79.2445 179.499C79.2823 179.461 79.3337 179.439 79.3871 179.439C79.8086 179.439 80.2129 179.607 80.5109 179.905C80.809 180.203 80.9764 180.607 80.9764 181.029C80.9764 181.45 80.809 181.854 80.5109 182.153C80.2129 182.451 79.8086 182.618 79.3871 182.618Z" fill="#263238"/>
<path d="M76.7734 182.618C76.3519 182.618 75.9476 182.451 75.6496 182.153C75.3515 181.854 75.1841 181.45 75.1841 181.029C75.1841 180.975 75.2053 180.924 75.2432 180.886C75.281 180.848 75.3323 180.827 75.3858 180.827C75.4393 180.827 75.4906 180.848 75.5284 180.886C75.5662 180.924 75.5875 180.975 75.5875 181.029C75.5875 181.263 75.657 181.493 75.7873 181.688C75.9176 181.883 76.1028 182.035 76.3195 182.124C76.5362 182.214 76.7747 182.238 77.0047 182.192C77.2348 182.146 77.4461 182.033 77.6119 181.867C77.7778 181.701 77.8907 181.49 77.9365 181.26C77.9823 181.03 77.9588 180.792 77.869 180.575C77.7793 180.358 77.6273 180.173 77.4322 180.043C77.2372 179.912 77.0079 179.843 76.7734 179.843C76.7199 179.843 76.6686 179.822 76.6308 179.784C76.5929 179.746 76.5717 179.695 76.5717 179.641C76.5717 179.588 76.5929 179.536 76.6308 179.499C76.6686 179.461 76.7199 179.439 76.7734 179.439C76.9821 179.439 77.1888 179.481 77.3816 179.56C77.5744 179.64 77.7496 179.757 77.8972 179.905C78.0448 180.053 78.1618 180.228 78.2417 180.421C78.3216 180.613 78.3627 180.82 78.3627 181.029C78.3627 181.237 78.3216 181.444 78.2417 181.637C78.1618 181.83 78.0448 182.005 77.8972 182.153C77.7496 182.3 77.5744 182.417 77.3816 182.497C77.1888 182.577 76.9821 182.618 76.7734 182.618Z" fill="#263238"/>
<path d="M74.1596 182.618C73.7381 182.618 73.3339 182.451 73.0358 182.153C72.7378 181.854 72.5703 181.45 72.5703 181.029C72.5713 180.976 72.5929 180.925 72.6305 180.887C72.6681 180.85 72.7188 180.828 72.772 180.827C72.8255 180.827 72.8768 180.848 72.9146 180.886C72.9524 180.924 72.9737 180.975 72.9737 181.029C72.9737 181.263 73.0432 181.493 73.1736 181.688C73.3039 181.883 73.4891 182.035 73.7058 182.124C73.9225 182.214 74.1609 182.238 74.391 182.192C74.621 182.146 74.8323 182.033 74.9982 181.867C75.164 181.701 75.277 181.49 75.3227 181.26C75.3685 181.03 75.345 180.792 75.2552 180.575C75.1655 180.358 75.0135 180.173 74.8185 180.043C74.6234 179.912 74.3942 179.843 74.1596 179.843C74.1061 179.843 74.0548 179.822 74.017 179.784C73.9792 179.746 73.9579 179.695 73.9579 179.641C73.959 179.588 73.9805 179.537 74.0181 179.5C74.0557 179.462 74.1064 179.44 74.1596 179.439C74.3683 179.439 74.575 179.481 74.7678 179.56C74.9606 179.64 75.1358 179.757 75.2834 179.905C75.431 180.053 75.5481 180.228 75.6279 180.421C75.7078 180.613 75.7489 180.82 75.7489 181.029C75.7489 181.237 75.7078 181.444 75.6279 181.637C75.5481 181.83 75.431 182.005 75.2834 182.153C75.1358 182.3 74.9606 182.417 74.7678 182.497C74.575 182.577 74.3683 182.618 74.1596 182.618Z" fill="#263238"/>
<path d="M71.5496 182.618C71.3406 182.619 71.1335 182.578 70.9402 182.498C70.7469 182.419 70.5712 182.302 70.4232 182.154C70.2752 182.006 70.1578 181.831 70.0777 181.638C69.9975 181.445 69.9563 181.238 69.9563 181.029C69.9573 180.976 69.9789 180.925 70.0165 180.887C70.0541 180.85 70.1048 180.828 70.158 180.827C70.2115 180.827 70.2628 180.848 70.3006 180.886C70.3384 180.924 70.3597 180.975 70.3597 181.029C70.3589 181.264 70.428 181.495 70.5583 181.691C70.6885 181.887 70.8741 182.04 71.0914 182.131C71.3088 182.222 71.5482 182.246 71.7793 182.2C72.0104 182.155 72.2228 182.042 72.3896 181.876C72.5564 181.709 72.6702 181.497 72.7164 181.266C72.7626 181.035 72.7393 180.796 72.6494 180.578C72.5594 180.361 72.4069 180.175 72.2111 180.044C72.0154 179.913 71.7851 179.843 71.5496 179.843C71.4961 179.843 71.4448 179.822 71.407 179.784C71.3692 179.746 71.3479 179.695 71.3479 179.641C71.3479 179.588 71.3692 179.536 71.407 179.499C71.4448 179.461 71.4961 179.439 71.5496 179.439C71.7583 179.439 71.965 179.481 72.1578 179.56C72.3506 179.64 72.5258 179.757 72.6734 179.905C72.821 180.053 72.9381 180.228 73.0179 180.421C73.0978 180.613 73.1389 180.82 73.1389 181.029C73.1389 181.237 73.0978 181.444 73.0179 181.637C72.9381 181.83 72.821 182.005 72.6734 182.153C72.5258 182.3 72.3506 182.417 72.1578 182.497C71.965 182.577 71.7583 182.618 71.5496 182.618Z" fill="#263238"/>
<path d="M68.936 182.618C68.5145 182.618 68.1102 182.451 67.8122 182.153C67.5141 181.854 67.3467 181.45 67.3467 181.029C67.3467 180.975 67.3679 180.924 67.4057 180.886C67.4436 180.848 67.4949 180.827 67.5484 180.827C67.6015 180.828 67.6522 180.85 67.6898 180.887C67.7274 180.925 67.749 180.976 67.7501 181.029C67.7501 181.263 67.8196 181.493 67.9499 181.688C68.0802 181.883 68.2654 182.035 68.4821 182.124C68.6988 182.214 68.9373 182.238 69.1673 182.192C69.3974 182.146 69.6087 182.033 69.7745 181.867C69.9404 181.701 70.0533 181.49 70.0991 181.26C70.1449 181.03 70.1214 180.792 70.0316 180.575C69.9419 180.358 69.7899 180.173 69.5948 180.043C69.3998 179.912 69.1705 179.843 68.936 179.843C68.8825 179.843 68.8312 179.822 68.7934 179.784C68.7555 179.746 68.7343 179.695 68.7343 179.641C68.7343 179.588 68.7555 179.536 68.7934 179.499C68.8312 179.461 68.8825 179.439 68.936 179.439C69.1447 179.439 69.3513 179.481 69.5442 179.56C69.737 179.64 69.9122 179.757 70.0598 179.905C70.2073 180.053 70.3244 180.228 70.4043 180.421C70.4842 180.613 70.5253 180.82 70.5253 181.029C70.5253 181.237 70.4842 181.444 70.4043 181.637C70.3244 181.83 70.2073 182.005 70.0598 182.153C69.9122 182.3 69.737 182.417 69.5442 182.497C69.3513 182.577 69.1447 182.618 68.936 182.618Z" fill="#263238"/>
<path d="M66.322 182.618C65.9004 182.618 65.4962 182.451 65.1982 182.153C64.9001 181.854 64.7327 181.45 64.7327 181.029C64.7327 180.975 64.7539 180.924 64.7917 180.886C64.8296 180.848 64.8809 180.827 64.9344 180.827C64.9878 180.827 65.0391 180.848 65.077 180.886C65.1148 180.924 65.136 180.975 65.136 181.029C65.136 181.263 65.2056 181.493 65.3359 181.688C65.4662 181.883 65.6514 182.035 65.8681 182.124C66.0848 182.214 66.3233 182.238 66.5533 182.192C66.7834 182.146 66.9947 182.033 67.1605 181.867C67.3264 181.701 67.4393 181.49 67.4851 181.26C67.5308 181.03 67.5074 180.792 67.4176 180.575C67.3278 180.358 67.1758 180.173 66.9808 180.043C66.7858 179.912 66.5565 179.843 66.322 179.843C66.2685 179.843 66.2172 179.822 66.1793 179.784C66.1415 179.746 66.1203 179.695 66.1203 179.641C66.1203 179.588 66.1415 179.536 66.1793 179.499C66.2172 179.461 66.2685 179.439 66.322 179.439C66.7435 179.439 67.1477 179.607 67.4458 179.905C67.7438 180.203 67.9112 180.607 67.9112 181.029C67.9112 181.45 67.7438 181.854 67.4458 182.153C67.1477 182.451 66.7435 182.618 66.322 182.618Z" fill="#263238"/>
<path d="M63.7079 182.618C63.2864 182.618 62.8822 182.451 62.5841 182.153C62.2861 181.854 62.1187 181.45 62.1187 181.029C62.1197 180.976 62.1413 180.925 62.1789 180.887C62.2165 180.85 62.2672 180.828 62.3203 180.827C62.3738 180.827 62.4251 180.848 62.463 180.886C62.5008 180.924 62.522 180.975 62.522 181.029C62.522 181.263 62.5916 181.493 62.7219 181.688C62.8522 181.883 63.0374 182.035 63.2541 182.124C63.4708 182.214 63.7093 182.238 63.9393 182.192C64.1693 182.146 64.3807 182.033 64.5465 181.867C64.7124 181.701 64.8253 181.49 64.8711 181.26C64.9168 181.03 64.8933 180.792 64.8036 180.575C64.7138 180.358 64.5618 180.173 64.3668 180.043C64.1718 179.912 63.9425 179.843 63.7079 179.843C63.6545 179.843 63.6032 179.822 63.5653 179.784C63.5275 179.746 63.5063 179.695 63.5063 179.641C63.5073 179.588 63.5289 179.537 63.5665 179.5C63.6041 179.462 63.6548 179.44 63.7079 179.439C64.1295 179.439 64.5337 179.607 64.8317 179.905C65.1298 180.203 65.2972 180.607 65.2972 181.029C65.2972 181.45 65.1298 181.854 64.8317 182.153C64.5337 182.451 64.1295 182.618 63.7079 182.618Z" fill="#263238"/>
<path d="M61.1064 182.618C60.8975 182.619 60.6906 182.578 60.4976 182.498C60.3045 182.418 60.1291 182.301 59.9814 182.154C59.8337 182.006 59.7167 181.831 59.637 181.638C59.5573 181.445 59.5166 181.238 59.5171 181.029C59.5171 180.975 59.5383 180.924 59.5762 180.886C59.614 180.848 59.6653 180.827 59.7188 180.827C59.7719 180.828 59.8227 180.85 59.8603 180.887C59.8979 180.925 59.9194 180.976 59.9205 181.029C59.9205 181.263 59.99 181.493 60.1203 181.688C60.2506 181.883 60.4359 182.035 60.6526 182.124C60.8693 182.214 61.1077 182.238 61.3377 182.192C61.5678 182.146 61.7791 182.033 61.945 181.867C62.1108 181.701 62.2238 181.49 62.2695 181.26C62.3153 181.03 62.2918 180.792 62.202 180.575C62.1123 180.358 61.9603 180.173 61.7652 180.043C61.5702 179.912 61.3409 179.843 61.1064 179.843C61.0529 179.843 61.0016 179.822 60.9638 179.784C60.926 179.746 60.9047 179.695 60.9047 179.641C60.9047 179.588 60.926 179.536 60.9638 179.499C61.0016 179.461 61.0529 179.439 61.1064 179.439C61.5279 179.439 61.9321 179.607 62.2302 179.905C62.5282 180.203 62.6957 180.607 62.6957 181.029C62.6957 181.45 62.5282 181.854 62.2302 182.153C61.9321 182.451 61.5279 182.618 61.1064 182.618Z" fill="#263238"/>
<path d="M58.4843 182.618C58.0628 182.618 57.6586 182.451 57.3605 182.153C57.0625 181.854 56.895 181.45 56.895 181.029C56.895 180.975 56.9163 180.924 56.9541 180.886C56.9919 180.848 57.0432 180.827 57.0967 180.827C57.1499 180.828 57.2006 180.85 57.2382 180.887C57.2758 180.925 57.2974 180.976 57.2984 181.029C57.2984 181.263 57.3679 181.493 57.4983 181.688C57.6286 181.883 57.8138 182.035 58.0305 182.124C58.2472 182.214 58.4856 182.238 58.7157 182.192C58.9457 182.146 59.157 182.033 59.3229 181.867C59.4887 181.701 59.6017 181.49 59.6474 181.26C59.6932 181.03 59.6697 180.792 59.58 180.575C59.4902 180.358 59.3382 180.173 59.1432 180.043C58.9481 179.912 58.7189 179.843 58.4843 179.843C58.4308 179.843 58.3795 179.822 58.3417 179.784C58.3039 179.746 58.2826 179.695 58.2826 179.641C58.2826 179.588 58.3039 179.536 58.3417 179.499C58.3795 179.461 58.4308 179.439 58.4843 179.439C58.693 179.439 58.8997 179.481 59.0925 179.56C59.2853 179.64 59.4605 179.757 59.6081 179.905C59.7557 180.053 59.8728 180.228 59.9526 180.421C60.0325 180.613 60.0736 180.82 60.0736 181.029C60.0736 181.237 60.0325 181.444 59.9526 181.637C59.8728 181.83 59.7557 182.005 59.6081 182.153C59.4605 182.3 59.2853 182.417 59.0925 182.497C58.8997 182.577 58.693 182.618 58.4843 182.618Z" fill="#263238"/>
<path d="M55.6003 182.618C55.1788 182.618 54.7745 182.451 54.4765 182.153C54.1784 181.854 54.011 181.45 54.011 181.029C54.012 180.976 54.0336 180.925 54.0712 180.887C54.1088 180.85 54.1595 180.828 54.2127 180.827C54.2662 180.827 54.3175 180.848 54.3553 180.886C54.3931 180.924 54.4144 180.975 54.4144 181.029C54.4144 181.263 54.4839 181.493 54.6142 181.688C54.7445 181.883 54.9297 182.035 55.1464 182.124C55.3631 182.214 55.6016 182.238 55.8316 182.192C56.0617 182.146 56.273 182.033 56.4388 181.867C56.6047 181.701 56.7176 181.49 56.7634 181.26C56.8092 181.03 56.7857 180.792 56.6959 180.575C56.6062 180.358 56.4542 180.173 56.2591 180.043C56.0641 179.912 55.8348 179.843 55.6003 179.843C55.5468 179.843 55.4955 179.822 55.4577 179.784C55.4198 179.746 55.3986 179.695 55.3986 179.641C55.3996 179.588 55.4212 179.537 55.4588 179.5C55.4964 179.462 55.5471 179.44 55.6003 179.439C55.809 179.439 56.0156 179.481 56.2085 179.56C56.4013 179.64 56.5765 179.757 56.7241 179.905C56.8717 180.053 56.9887 180.228 57.0686 180.421C57.1485 180.613 57.1896 180.82 57.1896 181.029C57.1896 181.237 57.1485 181.444 57.0686 181.637C56.9887 181.83 56.8717 182.005 56.7241 182.153C56.5765 182.3 56.4013 182.417 56.2085 182.497C56.0156 182.577 55.809 182.618 55.6003 182.618Z" fill="#263238"/>
<path d="M52.9904 182.618C52.7816 182.619 52.5747 182.578 52.3816 182.498C52.1885 182.418 52.0131 182.301 51.8654 182.154C51.7178 182.006 51.6007 181.831 51.521 181.638C51.4413 181.445 51.4006 181.238 51.4011 181.029C51.4011 180.975 51.4224 180.924 51.4602 180.886C51.498 180.848 51.5493 180.827 51.6028 180.827C51.656 180.828 51.7067 180.85 51.7443 180.887C51.7819 180.925 51.8035 180.976 51.8045 181.029C51.8045 181.263 51.8741 181.493 52.0044 181.688C52.1347 181.883 52.3199 182.035 52.5366 182.124C52.7533 182.214 52.9917 182.238 53.2218 182.192C53.4518 182.146 53.6631 182.033 53.829 181.867C53.9948 181.701 54.1078 181.49 54.1535 181.26C54.1993 181.03 54.1758 180.792 54.0861 180.575C53.9963 180.358 53.8443 180.173 53.6493 180.043C53.4543 179.912 53.225 179.843 52.9904 179.843C52.9369 179.843 52.8856 179.822 52.8478 179.784C52.81 179.746 52.7887 179.695 52.7887 179.641C52.7887 179.588 52.81 179.536 52.8478 179.499C52.8856 179.461 52.9369 179.439 52.9904 179.439C53.1991 179.439 53.4058 179.481 53.5986 179.56C53.7914 179.64 53.9666 179.757 54.1142 179.905C54.2618 180.053 54.3789 180.228 54.4587 180.421C54.5386 180.613 54.5797 180.82 54.5797 181.029C54.5797 181.237 54.5386 181.444 54.4587 181.637C54.3789 181.83 54.2618 182.005 54.1142 182.153C53.9666 182.3 53.7914 182.417 53.5986 182.497C53.4058 182.577 53.1991 182.618 52.9904 182.618Z" fill="#263238"/>
<path d="M50.3766 182.618C49.9551 182.618 49.5509 182.451 49.2528 182.153C48.9548 181.854 48.7874 181.45 48.7874 181.029C48.7874 180.975 48.8086 180.924 48.8464 180.886C48.8842 180.848 48.9355 180.827 48.989 180.827C49.0422 180.828 49.0929 180.85 49.1305 180.887C49.1681 180.925 49.1897 180.976 49.1907 181.029C49.1907 181.263 49.2603 181.493 49.3906 181.688C49.5209 181.883 49.7061 182.035 49.9228 182.124C50.1395 182.214 50.378 182.238 50.608 182.192C50.8381 182.146 51.0494 182.033 51.2152 181.867C51.3811 181.701 51.494 181.49 51.5398 181.26C51.5855 181.03 51.562 180.792 51.4723 180.575C51.3825 180.358 51.2305 180.173 51.0355 180.043C50.8405 179.912 50.6112 179.843 50.3766 179.843C50.3231 179.843 50.2719 179.822 50.234 179.784C50.1962 179.746 50.175 179.695 50.175 179.641C50.175 179.588 50.1962 179.536 50.234 179.499C50.2719 179.461 50.3231 179.439 50.3766 179.439C50.5853 179.439 50.792 179.481 50.9848 179.56C51.1777 179.64 51.3529 179.757 51.5004 179.905C51.648 180.053 51.7651 180.228 51.845 180.421C51.9248 180.613 51.9659 180.82 51.9659 181.029C51.9659 181.237 51.9248 181.444 51.845 181.637C51.7651 181.83 51.648 182.005 51.5004 182.153C51.3529 182.3 51.1777 182.417 50.9848 182.497C50.792 182.577 50.5853 182.618 50.3766 182.618Z" fill="#263238"/>
<path d="M47.7626 182.618C47.3411 182.618 46.9369 182.451 46.6388 182.153C46.3408 181.854 46.1733 181.45 46.1733 181.029C46.1733 180.975 46.1946 180.924 46.2324 180.886C46.2702 180.848 46.3215 180.827 46.375 180.827C46.4285 180.827 46.4798 180.848 46.5176 180.886C46.5555 180.924 46.5767 180.975 46.5767 181.029C46.5767 181.263 46.6463 181.493 46.7766 181.688C46.9069 181.883 47.0921 182.035 47.3088 182.124C47.5255 182.214 47.7639 182.238 47.994 182.192C48.224 182.146 48.4354 182.033 48.6012 181.867C48.7671 181.701 48.88 181.49 48.9258 181.26C48.9715 181.03 48.948 180.792 48.8583 180.575C48.7685 180.358 48.6165 180.173 48.4215 180.043C48.2265 179.912 47.9972 179.843 47.7626 179.843C47.7091 179.843 47.6578 179.822 47.62 179.784C47.5822 179.746 47.5609 179.695 47.5609 179.641C47.5609 179.588 47.5822 179.536 47.62 179.499C47.6578 179.461 47.7091 179.439 47.7626 179.439C47.9713 179.439 48.178 179.481 48.3708 179.56C48.5637 179.64 48.7388 179.757 48.8864 179.905C49.034 180.053 49.1511 180.228 49.2309 180.421C49.3108 180.613 49.3519 180.82 49.3519 181.029C49.3519 181.237 49.3108 181.444 49.2309 181.637C49.1511 181.83 49.034 182.005 48.8864 182.153C48.7388 182.3 48.5637 182.417 48.3708 182.497C48.178 182.577 47.9713 182.618 47.7626 182.618Z" fill="#263238"/>
<path d="M45.1489 182.618C44.7274 182.618 44.3231 182.451 44.0251 182.153C43.727 181.854 43.5596 181.45 43.5596 181.029C43.5606 180.976 43.5822 180.925 43.6198 180.887C43.6574 180.85 43.7081 180.828 43.7613 180.827C43.8147 180.827 43.866 180.848 43.9039 180.886C43.9417 180.924 43.9629 180.975 43.9629 181.029C43.9629 181.263 44.0325 181.493 44.1628 181.688C44.2931 181.883 44.4783 182.035 44.695 182.124C44.9117 182.214 45.1502 182.238 45.3802 182.192C45.6103 182.146 45.8216 182.033 45.9874 181.867C46.1533 181.701 46.2662 181.49 46.312 181.26C46.3577 181.03 46.3343 180.792 46.2445 180.575C46.1547 180.358 46.0027 180.173 45.8077 180.043C45.6127 179.912 45.3834 179.843 45.1489 179.843C45.0954 179.843 45.0441 179.822 45.0062 179.784C44.9684 179.746 44.9472 179.695 44.9472 179.641C44.9482 179.588 44.9698 179.537 45.0074 179.5C45.045 179.462 45.0957 179.44 45.1489 179.439C45.5704 179.439 45.9746 179.607 46.2727 179.905C46.5707 180.203 46.7382 180.607 46.7382 181.029C46.7382 181.45 46.5707 181.854 46.2727 182.153C45.9746 182.451 45.5704 182.618 45.1489 182.618Z" fill="#263238"/>
<path d="M42.5512 182.618C42.3424 182.619 42.1354 182.578 41.9424 182.498C41.7493 182.418 41.5739 182.301 41.4262 182.154C41.2785 182.006 41.1615 181.831 41.0818 181.638C41.0021 181.445 40.9614 181.238 40.9619 181.029C40.9619 180.975 40.9832 180.924 41.021 180.886C41.0588 180.848 41.1101 180.827 41.1636 180.827C41.2168 180.828 41.2675 180.85 41.3051 180.887C41.3427 180.925 41.3643 180.976 41.3653 181.029C41.3653 181.263 41.4348 181.493 41.5652 181.688C41.6955 181.883 41.8807 182.035 42.0974 182.124C42.3141 182.214 42.5525 182.238 42.7826 182.192C43.0126 182.146 43.2239 182.033 43.3898 181.867C43.5556 181.701 43.6686 181.49 43.7143 181.26C43.7601 181.03 43.7366 180.792 43.6469 180.575C43.5571 180.358 43.4051 180.173 43.2101 180.043C43.015 179.912 42.7858 179.843 42.5512 179.843C42.4977 179.843 42.4464 179.822 42.4086 179.784C42.3708 179.746 42.3495 179.695 42.3495 179.641C42.3495 179.588 42.3708 179.536 42.4086 179.499C42.4464 179.461 42.4977 179.439 42.5512 179.439C42.9727 179.439 43.377 179.607 43.675 179.905C43.9731 180.203 44.1405 180.607 44.1405 181.029C44.1405 181.45 43.9731 181.854 43.675 182.153C43.377 182.451 42.9727 182.618 42.5512 182.618Z" fill="#263238"/>
<path d="M39.9252 182.618C39.5037 182.618 39.0995 182.451 38.8014 182.153C38.5034 181.854 38.3359 181.45 38.3359 181.029C38.3359 180.975 38.3572 180.924 38.395 180.886C38.4328 180.848 38.4841 180.827 38.5376 180.827C38.5908 180.828 38.6415 180.85 38.6791 180.887C38.7167 180.925 38.7383 180.976 38.7393 181.029C38.7393 181.263 38.8089 181.493 38.9392 181.688C39.0695 181.883 39.2547 182.035 39.4714 182.124C39.6881 182.214 39.9265 182.238 40.1566 182.192C40.3866 182.146 40.5979 182.033 40.7638 181.867C40.9297 181.701 41.0426 181.49 41.0884 181.26C41.1341 181.03 41.1106 180.792 41.0209 180.575C40.9311 180.358 40.7791 180.173 40.5841 180.043C40.3891 179.912 40.1598 179.843 39.9252 179.843C39.8717 179.843 39.8204 179.822 39.7826 179.784C39.7448 179.746 39.7235 179.695 39.7235 179.641C39.7235 179.588 39.7448 179.536 39.7826 179.499C39.8204 179.461 39.8717 179.439 39.9252 179.439C40.1339 179.439 40.3406 179.481 40.5334 179.56C40.7262 179.64 40.9014 179.757 41.049 179.905C41.1966 180.053 41.3137 180.228 41.3935 180.421C41.4734 180.613 41.5145 180.82 41.5145 181.029C41.5145 181.237 41.4734 181.444 41.3935 181.637C41.3137 181.83 41.1966 182.005 41.049 182.153C40.9014 182.3 40.7262 182.417 40.5334 182.497C40.3406 182.577 40.1339 182.618 39.9252 182.618Z" fill="#263238"/>
<path d="M37.3073 182.618C36.8858 182.618 36.4816 182.451 36.1835 182.153C35.8855 181.854 35.718 181.45 35.718 181.029C35.718 180.975 35.7393 180.924 35.7771 180.886C35.8149 180.848 35.8662 180.827 35.9197 180.827C35.9732 180.827 36.0245 180.848 36.0623 180.886C36.1001 180.924 36.1214 180.975 36.1214 181.029C36.1214 181.263 36.1909 181.493 36.3213 181.688C36.4516 181.883 36.6368 182.035 36.8535 182.124C37.0702 182.214 37.3086 182.238 37.5387 182.192C37.7687 182.146 37.98 182.033 38.1459 181.867C38.3117 181.701 38.4247 181.49 38.4704 181.26C38.5162 181.03 38.4927 180.792 38.403 180.575C38.3132 180.358 38.1612 180.173 37.9662 180.043C37.7711 179.912 37.5419 179.843 37.3073 179.843C37.2538 179.843 37.2025 179.822 37.1647 179.784C37.1269 179.746 37.1056 179.695 37.1056 179.641C37.1056 179.588 37.1269 179.536 37.1647 179.499C37.2025 179.461 37.2538 179.439 37.3073 179.439C37.516 179.439 37.7227 179.481 37.9155 179.56C38.1083 179.64 38.2835 179.757 38.4311 179.905C38.5787 180.053 38.6958 180.228 38.7756 180.421C38.8555 180.613 38.8966 180.82 38.8966 181.029C38.8966 181.237 38.8555 181.444 38.7756 181.637C38.6958 181.83 38.5787 182.005 38.4311 182.153C38.2835 182.3 38.1083 182.417 37.9155 182.497C37.7227 182.577 37.516 182.618 37.3073 182.618Z" fill="#263238"/>
<path d="M40.4778 138.703C40.4778 138.703 36.3795 139.3 36.0972 145.016C35.8148 150.732 36.8273 151.813 37.0491 152.91C37.271 154.007 40.9296 159.432 41.5911 159.872C42.2526 160.312 60.348 159.872 60.348 159.872C60.348 159.872 61.3725 154.225 61.5944 152.765C61.8163 151.305 61.3725 147.049 56.9758 143.386C52.579 139.724 40.4778 138.703 40.4778 138.703Z" fill="#FFD000"/>
<path d="M66.6689 158.117C66.6689 158.117 69.2667 158.565 70.8277 160.049C72.3888 161.534 73.8006 162.353 73.7239 163.837C73.6473 165.321 71.7071 168.444 71.0496 168.371L70.384 168.298L66.6689 158.117Z" fill="#FFBF9D"/>
<path d="M72.7637 168.581L72.9291 170.674C72.9317 170.71 72.9242 170.747 72.9074 170.779C72.8905 170.812 72.865 170.839 72.8337 170.858C72.8023 170.877 72.7664 170.886 72.7298 170.886C72.6932 170.886 72.6575 170.875 72.6266 170.856L70.7751 169.645L57.5646 145.354C57.4936 145.224 57.4489 145.081 57.4331 144.933C57.4174 144.786 57.4309 144.637 57.4728 144.494C57.5148 144.352 57.5844 144.219 57.6777 144.104C57.7709 143.988 57.886 143.892 58.0164 143.821C58.1467 143.75 58.2897 143.706 58.4373 143.69C58.5848 143.674 58.7341 143.688 58.8764 143.73C59.0188 143.772 59.1515 143.841 59.2669 143.934C59.3823 144.028 59.4783 144.143 59.5492 144.273L72.7637 168.581Z" fill="#263238"/>
<path d="M60.3806 144.377L60.345 144.396C60.1763 144.487 60.1131 144.697 60.2039 144.866L63.5827 151.146C63.6735 151.315 63.8839 151.378 64.0526 151.288L64.0881 151.268C64.2568 151.178 64.32 150.967 64.2293 150.799L60.8504 144.518C60.7596 144.349 60.5493 144.286 60.3806 144.377Z" fill="#263238"/>
<path d="M52.6637 165.734C52.6637 165.734 41.3128 159.893 41.3128 159.566C41.3128 159.239 36.9039 148.994 48.3274 148.881C48.3274 148.881 54.854 148.199 57.8107 153.431L62.1389 157.985L52.6637 165.734Z" fill="#FFBF9D"/>
<path d="M62.0622 154.553C62.0622 154.553 60.0897 152.847 58.7344 153.29C57.3791 153.734 56.7861 155.965 56.7861 155.965C56.7861 155.965 53.664 156.114 53.071 157.078C52.6425 157.92 52.342 158.822 52.1796 159.752C52.1796 159.752 49.0615 161.314 50.6952 164.286C50.6952 164.286 49.5052 165.92 50.9896 167.852C52.474 169.784 57.0846 172.088 58.3472 172.309C59.6097 172.531 62.3567 172.309 62.3567 172.309C62.3567 172.309 67.6328 174.02 69.0446 173.201L69.4157 172.487C69.7775 172.217 70.0501 171.845 70.1983 171.418C70.5774 170.264 68.9115 169.264 68.9115 169.264C68.9115 169.264 70.17 168.966 70.2386 167.247C70.3072 165.529 67.7054 161.971 66.1484 160.261C64.5914 158.55 62.0622 154.553 62.0622 154.553Z" fill="#FFBF9D"/>
<path d="M69.4158 168.743C69.4158 168.743 69.4158 168.808 69.3634 168.909C69.2837 169.057 69.1556 169.174 69.0003 169.24C68.8869 169.288 68.7647 169.313 68.6413 169.312C68.4945 169.319 68.3485 169.287 68.2178 169.219C67.921 169.051 67.6413 168.854 67.3828 168.631C66.2171 167.675 64.7286 166.23 63.1232 164.597C62.3165 163.79 61.5581 163.003 60.9127 162.237C60.2673 161.471 59.7429 160.757 59.2992 160.152C58.4078 158.942 57.9076 158.135 57.9721 158.135C58.0367 158.135 57.9963 158.183 58.0649 158.276L58.3432 158.679C58.5933 159.014 58.9563 159.486 59.4162 160.091C59.876 160.696 60.4246 161.386 61.062 162.14C61.6993 162.895 62.4778 163.657 63.2724 164.48C64.8859 166.093 66.3461 167.566 67.4756 168.542C67.7271 168.765 67.997 168.966 68.2823 169.143C68.3966 169.208 68.5261 169.241 68.6575 169.24C68.7669 169.245 68.8763 169.23 68.9802 169.195C69.127 169.142 69.2528 169.043 69.3392 168.913C69.3876 168.796 69.4078 168.739 69.4158 168.743Z" fill="#FF9A6C"/>
<path d="M69.0447 173.092C68.9803 173.083 68.9177 173.064 68.8592 173.035L68.3429 172.826C67.8951 172.64 67.2457 172.366 66.4551 172.019C64.3761 171.116 62.3981 169.997 60.5537 168.679C59.5492 167.935 58.6233 167.09 57.7906 166.158C57.1179 165.393 56.4876 164.592 55.9028 163.758C55.4026 163.048 55.0154 162.459 54.7532 162.056L54.4547 161.58C54.3902 161.471 54.3579 161.41 54.366 161.406C54.4135 161.451 54.4555 161.501 54.491 161.555L54.8218 162.007C55.1041 162.411 55.5075 162.975 56.0319 163.669C56.6294 164.487 57.2676 165.275 57.9439 166.029C58.7755 166.944 59.6942 167.776 60.6868 168.514C62.5219 169.82 64.4778 170.948 66.5277 171.882L68.3832 172.761L68.8834 173.003C68.9411 173.025 68.9954 173.055 69.0447 173.092Z" fill="#FF9A6C"/>
<path d="M62.3568 172.309C62.1963 172.297 62.0379 172.266 61.8848 172.216C61.4601 172.103 61.0414 171.969 60.6303 171.813C59.2559 171.333 57.9765 170.615 56.8507 169.691C56.5324 169.423 56.2357 169.131 55.9633 168.816C55.7052 168.517 55.443 168.239 55.1848 167.981C54.6725 167.461 54.1925 167.013 53.7851 166.642L52.813 165.766C52.6884 165.664 52.5724 165.553 52.4661 165.432C52.6104 165.506 52.7457 165.597 52.8694 165.702C53.1155 165.891 53.4624 166.17 53.8859 166.509C54.3095 166.847 54.8016 167.315 55.326 167.824C55.5882 168.082 55.8584 168.36 56.1327 168.663C56.4026 168.964 56.6924 169.247 57 169.51C58.1111 170.427 59.361 171.163 60.7029 171.688C61.7033 172.099 62.3689 172.273 62.3568 172.309Z" fill="#FF9A6C"/>
<path d="M58.9724 153.236C58.6151 153.379 58.2742 153.56 57.9559 153.777C57.6053 154.037 57.3184 154.374 57.1169 154.761C56.8648 155.266 56.7063 155.813 56.649 156.375V156.463H56.5562C55.9757 156.407 55.3898 156.468 54.8338 156.645C54.5319 156.737 54.2452 156.873 53.9827 157.048C53.7228 157.242 53.5058 157.488 53.3454 157.77C52.9167 158.377 52.735 159.124 52.8371 159.86L52.8694 159.997H52.7363C52.5493 159.985 52.3619 160.012 52.1852 160.074C52.0085 160.136 51.8461 160.234 51.7077 160.36C51.447 160.602 51.2228 160.88 51.0421 161.187C50.8644 161.45 50.7169 161.733 50.6024 162.03C50.5164 162.29 50.4689 162.562 50.4613 162.837C50.4492 163.225 50.5165 163.612 50.6589 163.974C50.7638 164.228 50.8445 164.357 50.8324 164.377C50.8203 164.398 50.8001 164.349 50.7598 164.293C50.6979 164.205 50.6439 164.112 50.5984 164.014C50.4237 163.649 50.3341 163.249 50.3362 162.845C50.335 162.559 50.3772 162.275 50.4613 162.002C50.5694 161.69 50.7157 161.394 50.8969 161.118C51.0785 160.79 51.3098 160.492 51.5826 160.235C51.9014 159.952 52.3191 159.807 52.7444 159.831L52.6435 159.957C52.5175 159.167 52.7058 158.359 53.1679 157.706C53.3424 157.398 53.5803 157.132 53.8657 156.923C54.1464 156.744 54.4524 156.608 54.7733 156.52C55.3595 156.342 55.9755 156.285 56.5845 156.35L56.4796 156.431C56.5457 155.848 56.7208 155.283 56.9959 154.765C57.2149 154.364 57.5259 154.022 57.9035 153.765C58.144 153.601 58.406 153.473 58.682 153.382C58.7702 153.318 58.8683 153.268 58.9724 153.236Z" fill="#FF9A6C"/>
<path d="M57.9641 144.271C57.7819 144.069 57.6109 143.858 57.4518 143.638C56.9893 143.067 56.4894 142.528 55.9553 142.024C54.1948 140.343 52.0512 139.117 49.7101 138.45C47.3689 137.784 44.9007 137.698 42.5189 138.2C41.7975 138.347 41.0872 138.544 40.3931 138.789C40.143 138.893 39.8871 138.982 39.6267 139.055C39.6843 139.015 39.7466 138.983 39.8123 138.959C39.9373 138.902 40.1188 138.805 40.3649 138.713C41.0528 138.435 41.7625 138.215 42.4866 138.055C44.8909 137.506 47.3948 137.573 49.7666 138.248C52.1384 138.924 54.3016 140.186 56.0561 141.919C56.5883 142.437 57.0767 142.999 57.5163 143.597C57.6736 143.803 57.7785 143.981 57.8592 144.094C57.8999 144.149 57.935 144.209 57.9641 144.271Z" fill="#263238"/>
<path d="M59.6864 142.636C59.6582 142.66 59.283 142.139 58.5569 141.377C57.6314 140.381 56.6069 139.483 55.4994 138.695C54.3872 137.914 53.1993 137.248 51.9537 136.706C50.9937 136.303 50.3765 136.097 50.3846 136.061C50.5378 136.076 50.6883 136.111 50.8323 136.165C51.2318 136.279 51.6249 136.414 52.0102 136.569C54.5796 137.582 56.8688 139.196 58.686 141.276C58.9605 141.588 59.219 141.914 59.4605 142.252C59.5507 142.371 59.6266 142.499 59.6864 142.636Z" fill="#263238"/>
<path d="M118.685 157.212C118.777 155.946 118.777 154.674 118.685 153.408C118.592 153.22 116.273 152.512 116.273 152.512L114.042 152.673L111.815 148.023L106.046 148.662L105.208 150.066L101.527 152.012L98.2461 157.212L99.4538 160.927L102.146 166.216L109.754 167.516L112.415 165.662L116.158 165.847L120.058 160.343L116.808 158.25L118.685 157.212Z" fill="#FAFAFA"/>
<path d="M118.684 157.212C118.684 157.212 118.65 157.238 118.573 157.285L118.223 157.488L116.846 158.258V158.2L120.108 160.277L120.158 160.308L120.123 160.354L116.242 165.888L116.219 165.923H116.173L112.427 165.746H112.481L109.823 167.608L109.796 167.627H109.758L102.15 166.335H102.104L102.081 166.292C101.211 164.592 100.304 162.831 99.3884 161L99.073 160.031C98.773 159.103 98.4755 158.187 98.1807 157.285V157.242L98.2037 157.2C99.3345 155.415 100.431 153.677 101.488 152.004V151.981H101.511L105.192 150.035L105.158 150.069L105.992 148.669L106.015 148.631H106.061L111.831 148H111.885L111.911 148.054L114.127 152.712L114.061 152.673L116.288 152.519H116.311C116.796 152.669 117.25 152.819 117.677 152.969C117.892 153.046 118.096 153.119 118.296 153.2C118.393 153.238 118.49 153.281 118.584 153.327C118.636 153.351 118.684 153.382 118.727 153.419C118.759 153.468 118.775 153.526 118.773 153.585C118.831 154.377 118.811 155.05 118.808 155.596C118.804 156.142 118.781 156.562 118.761 156.846C118.761 156.988 118.738 157.096 118.731 157.165C118.728 157.202 118.72 157.238 118.708 157.273C118.708 157.273 118.75 156.688 118.746 155.596C118.746 155.05 118.746 154.373 118.684 153.596C118.684 153.546 118.684 153.496 118.654 153.477C118.62 153.45 118.582 153.428 118.542 153.412C118.45 153.365 118.358 153.327 118.258 153.288C118.061 153.212 117.873 153.138 117.642 153.065C117.215 152.923 116.761 152.777 116.277 152.631H116.3L114.069 152.8H114.027L114.008 152.758L111.765 148.115L111.846 148.158L106.077 148.812L106.146 148.765C105.873 149.227 105.592 149.692 105.311 150.169V150.192H105.288L101.585 152.1L101.623 152.065L98.3422 157.265V157.181C98.6345 158.085 98.9345 159 99.2345 159.927L99.5499 160.892C100.473 162.708 101.381 164.481 102.242 166.185L102.173 166.131L109.777 167.438H109.711L112.373 165.585H112.396H112.427L116.169 165.781L116.104 165.812L120.046 160.308V160.388L116.808 158.277L116.761 158.246L116.811 158.219L118.196 157.45L118.558 157.258L118.684 157.212Z" fill="#263238"/>
<path d="M116.827 158.251L106.504 156.539L120.077 160.343L116.827 158.251Z" fill="#E0E0E0"/>
<path d="M110.004 158.281L114.842 161.42L112.435 165.65H112.627C112.627 165.65 117.277 161.143 117.315 161.035C117.354 160.927 110.004 158.281 110.004 158.281Z" fill="#E0E0E0"/>
<path d="M101.542 152.012C101.442 152.592 98.2615 157.212 98.2615 157.212L101.435 155.289L103.7 157.596C103.7 157.481 104.119 154.519 104.004 154.419L101.542 152.012Z" fill="#E0E0E0"/>
<path d="M105.223 150.066L110.004 155.327L115.7 154.304L111.289 154.224L106.058 148.662L105.223 150.066Z" fill="#E0E0E0"/>
<path d="M102.323 166.241L103.858 159.068L106.138 163.307L104.231 164.388L102.323 166.241Z" fill="#E0E0E0"/>
<path d="M105.223 150.064C105.365 150.178 105.494 150.307 105.608 150.449L106.639 151.538C107.504 152.468 108.708 153.776 110.069 155.264L109.981 155.234L111.346 154.988L115.677 154.218H115.754L115.773 154.291C116.092 155.445 116.362 156.438 116.542 157.161L116.75 157.968C116.781 158.063 116.799 158.161 116.804 158.261C116.761 158.171 116.727 158.079 116.7 157.984C116.631 157.772 116.55 157.511 116.446 157.191C116.231 156.468 115.942 155.495 115.592 154.338L115.692 154.399L111.365 155.168L110 155.414H109.946L109.908 155.376C108.554 153.88 107.369 152.557 106.527 151.603L105.562 150.503C105.437 150.366 105.324 150.22 105.223 150.064Z" fill="#263238"/>
<path d="M112.435 165.661C112.47 165.545 112.52 165.435 112.585 165.334C112.708 165.103 112.865 164.811 113.054 164.453L114.762 161.376L114.792 161.495L111.815 159.572L109.95 158.357H110.015L105.608 158.888L104.323 159.022C104.169 159.047 104.013 159.056 103.858 159.049C104.007 159.005 104.16 158.974 104.315 158.957L105.592 158.765L109.992 158.195H110.046L110.077 158.215L111.942 159.422L114.911 161.345L114.981 161.395L114.938 161.468L113.169 164.511L112.654 165.368C112.59 165.472 112.516 165.57 112.435 165.661Z" fill="#263238"/>
<path d="M119.95 172.776C119.251 173.838 118.63 174.948 118.092 176.099C118.092 176.307 119.765 178.057 119.765 178.057L121.788 179.003L121.465 184.149L126.8 186.399L128.212 185.584L132.377 185.676L137.761 182.738L138.531 178.911L138.758 172.972L132.754 168.13L129.527 168.453L126.346 166.461L120.262 169.349L122.077 172.761L119.95 172.776Z" fill="#FAFAFA"/>
<path d="M119.95 172.777C119.995 172.774 120.04 172.774 120.085 172.777H120.469L122.058 172.758L122.027 172.808L120.192 169.408L120.165 169.354L120.219 169.331L126.296 166.408L126.335 166.389L126.373 166.412L129.554 168.396H129.5L132.727 168.066H132.765L132.796 168.089C134.654 169.589 136.685 171.219 138.804 172.927L138.842 172.958V173.008C138.769 174.931 138.692 176.908 138.615 178.946C138.554 179.262 138.485 179.6 138.419 179.943C138.227 180.896 138.035 181.843 137.858 182.773V182.819L137.819 182.843L132.415 185.777H132.392H132.365L128.204 185.681H128.25L126.838 186.496L126.8 186.519H126.758L121.423 184.262L121.373 184.243V184.185C121.496 182.304 121.608 180.581 121.711 179.039L121.75 179.1L119.727 178.146C119.377 177.781 119.054 177.427 118.754 177.089C118.604 176.919 118.461 176.75 118.327 176.585C118.261 176.504 118.196 176.419 118.138 176.335C118.105 176.287 118.077 176.236 118.058 176.181C118.053 176.123 118.066 176.065 118.096 176.016C118.435 175.296 118.781 174.719 119.05 174.243C119.319 173.766 119.542 173.412 119.7 173.173C119.777 173.054 119.838 172.966 119.881 172.908C119.903 172.879 119.927 172.852 119.954 172.827C119.954 172.827 119.631 173.316 119.104 174.273C118.842 174.75 118.504 175.339 118.181 176.05C118.161 176.096 118.138 176.139 118.15 176.166C118.167 176.207 118.189 176.245 118.215 176.281C118.273 176.362 118.335 176.443 118.404 176.523C118.535 176.689 118.681 176.85 118.831 177.019C119.131 177.354 119.461 177.704 119.811 178.066H119.792L121.819 179.004L121.861 179.023V179.069C121.769 180.608 121.665 182.339 121.55 184.216L121.504 184.139L126.842 186.377H126.761L128.173 185.562H128.196H128.223L132.388 185.65H132.338L137.723 182.712L137.673 182.777C137.858 181.846 138.058 180.9 138.231 179.946L138.431 178.95C138.511 176.912 138.588 174.923 138.661 173.012L138.696 173.093L132.7 168.196L132.765 168.216L129.538 168.535H129.508H129.485L126.308 166.543H126.385L120.285 169.423L120.311 169.346L122.108 172.769L122.135 172.819H122.077L120.5 172.8H120.092L119.95 172.777Z" fill="#263238"/>
<path d="M122.077 172.777L130.254 179.308L120.261 169.365L122.077 172.777Z" fill="#E0E0E0"/>
<path d="M128.05 176.077L125.358 170.977L129.531 168.453L129.365 168.35C129.365 168.35 123.104 170.015 123.019 170.092C122.934 170.169 128.05 176.077 128.05 176.077Z" fill="#E0E0E0"/>
<path d="M132.377 185.677C132.761 185.219 137.761 182.739 137.761 182.739L134.054 182.869L133.204 179.754C133.146 179.858 131.342 182.223 131.388 182.381C131.434 182.539 132.377 185.677 132.377 185.677Z" fill="#E0E0E0"/>
<path d="M128.215 185.585L126.608 178.658L121.138 176.773L124.946 178.993L126.8 186.4L128.215 185.585Z" fill="#E0E0E0"/>
<path d="M138.638 172.877L133.8 178.388L133.877 173.577L136.069 173.565L138.638 172.877Z" fill="#E0E0E0"/>
<path d="M128.211 185.585C128.147 185.415 128.095 185.24 128.057 185.062C127.961 184.677 127.838 184.204 127.673 183.612C127.369 182.373 126.954 180.647 126.496 178.681L126.561 178.754L125.246 178.3L121.096 176.854L121.019 176.827L121.038 176.75C121.331 175.577 121.573 174.593 121.754 173.862C121.842 173.539 121.911 173.274 121.969 173.058C121.989 172.961 122.02 172.867 122.061 172.777C122.057 172.876 122.043 172.974 122.019 173.07C121.977 173.285 121.919 173.558 121.854 173.885C121.688 174.62 121.469 175.612 121.208 176.793L121.15 176.693L125.311 178.112L126.623 178.566L126.677 178.585V178.635C127.131 180.604 127.519 182.339 127.788 183.581L128.1 185.047C128.154 185.222 128.192 185.402 128.211 185.585Z" fill="#263238"/>
<path d="M129.531 168.453C129.441 168.532 129.343 168.602 129.239 168.661L128.396 169.199L125.404 171.057L125.439 170.934L127.1 174.065C127.462 174.749 127.812 175.415 128.135 176.034L128.085 175.988L132.192 177.676L133.381 178.184C133.527 178.238 133.667 178.307 133.8 178.388C133.647 178.353 133.498 178.306 133.354 178.245L132.146 177.788L128.015 176.169H127.981V176.138L126.939 174.172L125.292 171.034L125.254 170.961L125.327 170.915L128.358 169.122L129.223 168.626C129.318 168.555 129.421 168.497 129.531 168.453Z" fill="#263238"/>
<path d="M41.2498 158.549C41.1427 157.284 40.9435 156.028 40.6537 154.791C40.5306 154.622 38.1268 154.288 38.1268 154.288L35.9537 154.799L33.0191 150.568L27.4383 152.107L26.8345 153.622L23.5075 156.115L21.0845 161.764L22.8614 165.226L26.3614 170.026L34.0768 170.111L36.4114 167.861L40.1383 167.453L43.1229 161.422L39.5845 159.864L41.2498 158.549Z" fill="#FAFAFA"/>
<path d="M41.25 158.55L41.15 158.638L40.8384 158.896L39.6038 159.892V159.834L43.15 161.373L43.2038 161.396L43.1769 161.45L40.2038 167.504V167.542H40.1615L36.4346 167.957L36.4846 167.934C35.75 168.646 34.9461 169.407 34.1538 170.188L34.1269 170.215H34.0923L26.3731 170.138H26.3269L26.2962 170.1L22.7962 165.3L22.3346 164.392L21.0192 161.823L21 161.78L21.0192 161.738C21.85 159.796 22.6615 157.892 23.4423 156.088V156.065H23.4615L26.7923 153.561L26.7615 153.604L27.3538 152.061V152.019H27.4L32.9846 150.48H33.0385L33.0731 150.53L35.9923 154.78L35.9231 154.754L38.1231 154.23C38.6269 154.304 39.1 154.38 39.5461 154.461C39.7654 154.504 39.9808 154.542 40.1884 154.592C40.2923 154.615 40.3961 154.642 40.4961 154.673C40.5508 154.687 40.6027 154.711 40.65 154.742C40.7038 154.784 40.7077 154.854 40.7231 154.896C40.9038 155.665 40.9884 156.338 41.0731 156.877C41.1577 157.415 41.2 157.838 41.2269 158.119C41.2269 158.261 41.2269 158.369 41.2461 158.442C41.2496 158.478 41.2496 158.514 41.2461 158.55C41.2461 158.55 41.1961 157.965 41.0192 156.888C40.9269 156.35 40.8308 155.68 40.6346 154.919C40.6346 154.877 40.6115 154.827 40.5846 154.811C40.5461 154.789 40.5047 154.772 40.4615 154.761C40.3692 154.73 40.2654 154.707 40.1654 154.684C39.9577 154.642 39.7461 154.6 39.5231 154.561C39.0769 154.488 38.6038 154.415 38.1038 154.346H38.1269L35.9538 154.861H35.9077L35.8846 154.823L32.9385 150.592L33.0269 150.627L27.4461 152.165L27.5077 152.111L26.9038 153.627V153.654H26.8846L23.5615 156.161L23.5923 156.123L21.1692 161.773V161.688L22.4808 164.257L22.9423 165.165C24.1423 166.811 25.3154 168.419 26.4385 169.965L26.3615 169.927L34.0769 170.019L34.0115 170.046L36.3461 167.811L36.3692 167.792H36.3961L40.1269 167.407L40.0654 167.45L43.0692 161.411L43.0961 161.488L39.5654 159.911L39.5154 159.888L39.5577 159.854L40.8077 158.892L41.1346 158.646L41.25 158.55Z" fill="#263238"/>
<path d="M39.5806 159.866L29.1152 159.801L43.1191 161.424L39.5806 159.866Z" fill="#E0E0E0"/>
<path d="M32.8462 160.973L38.1231 163.311L36.4116 167.877L36.6039 167.853C36.6039 167.853 40.4885 162.673 40.5077 162.557C40.527 162.442 32.8462 160.973 32.8462 160.973Z" fill="#E0E0E0"/>
<path d="M23.5078 156.115C23.5078 156.704 21.0847 161.765 21.0847 161.765L23.9193 159.369L26.5155 161.292C26.4963 161.177 26.4501 158.215 26.3155 158.108L23.5078 156.115Z" fill="#E0E0E0"/>
<path d="M26.8345 153.607L32.3806 158.053L37.846 156.149L33.4768 156.761L27.4383 152.092L26.8345 153.607Z" fill="#E0E0E0"/>
<path d="M26.5154 170.046L26.9038 162.719L29.8192 166.546L28.1077 167.911L26.5154 170.046Z" fill="#E0E0E0"/>
<path d="M26.8347 153.611C26.993 153.701 27.1424 153.805 27.2809 153.923L28.4655 154.834C29.4693 155.604 30.8655 156.719 32.4424 157.977H32.3501L33.6616 157.515L37.8155 156.084L37.8924 156.057L37.9232 156.127C38.4193 157.227 38.8386 158.154 39.1501 158.838L39.4809 159.607C39.5246 159.696 39.5582 159.789 39.5809 159.884C39.5224 159.805 39.4722 159.72 39.4309 159.631C39.3347 159.431 39.2116 159.184 39.0462 158.884C38.7232 158.207 38.277 157.292 37.7578 156.192L37.8616 156.238L33.7155 157.696L32.4039 158.154L32.3501 158.173L32.3078 158.138C30.7347 156.873 29.3578 155.754 28.3732 154.942L27.2193 153.984C27.0814 153.87 26.9528 153.746 26.8347 153.611Z" fill="#263238"/>
<path d="M36.4076 167.877C36.4249 167.759 36.4572 167.644 36.5037 167.535C36.5884 167.285 36.6999 166.969 36.8307 166.589C37.1345 165.746 37.5499 164.612 38.0307 163.277L38.0807 163.393L34.8384 161.966L32.8076 161.062H32.873L28.6037 162.277L27.3537 162.619C27.2055 162.665 27.0537 162.699 26.8999 162.719C27.0387 162.651 27.1844 162.596 27.3345 162.558L28.5653 162.173L32.7961 160.889H32.8307H32.8614L34.896 161.785L38.1307 163.231L38.2114 163.266L38.1807 163.346C37.6691 164.669 37.2307 165.796 36.9114 166.631C36.7576 167.016 36.6345 167.316 36.5268 167.558C36.4969 167.668 36.457 167.775 36.4076 167.877Z" fill="#263238"/>
<path d="M147.431 157.081L149.012 152.531L145.481 151.139L142.696 153.746C142.696 153.746 138.15 153.616 137.869 153.816C137.588 154.016 135.085 158.635 135.085 158.635L134.25 163.135L136.558 164.877L135.073 166.362C135.073 166.362 142.315 168.669 143.335 168.593C144.354 168.516 145.565 167.323 145.565 167.323H150.485L153.177 163.862L150.204 157.085L147.431 157.081Z" fill="#FAFAFA"/>
<path d="M147.431 157.08H147.623H148.165L150.215 157.057H150.242V157.08L153.242 163.845L153.261 163.884L153.235 163.918C152.423 164.972 151.515 166.141 150.542 167.38L150.519 167.411H150.477H145.558L145.619 167.384C145.299 167.688 144.95 167.959 144.577 168.195C144.196 168.456 143.758 168.622 143.3 168.68C142.837 168.65 142.378 168.574 141.931 168.453C141.481 168.349 141.035 168.23 140.581 168.111C138.777 167.618 136.927 167.053 135.035 166.453L134.881 166.403L134.996 166.288L135.612 165.672L136.481 164.803V164.953L134.173 163.207L134.123 163.172V163.111C134.408 161.572 134.688 160.064 134.962 158.611C135.427 157.768 135.885 156.949 136.327 156.145L137.004 154.965C137.222 154.567 137.462 154.181 137.723 153.811C137.746 153.788 137.762 153.757 137.796 153.741C137.829 153.728 137.862 153.716 137.896 153.707C137.953 153.695 138.011 153.686 138.069 153.68C138.181 153.68 138.288 153.661 138.396 153.653L139.038 153.63C139.462 153.63 139.877 153.63 140.288 153.63C141.106 153.63 141.897 153.645 142.661 153.676L142.604 153.699L145.396 151.099L145.431 151.068H145.469L148.992 152.476L149.038 152.495V152.541C148.523 153.98 148.123 155.103 147.846 155.88C147.708 156.265 147.6 156.557 147.527 156.765L147.442 156.995C147.433 157.023 147.421 157.05 147.408 157.076L147.431 157.003C147.45 156.945 147.473 156.872 147.5 156.78C147.569 156.572 147.669 156.28 147.792 155.903C148.061 155.111 148.446 153.98 148.946 152.507L148.977 152.576L145.442 151.199H145.515C144.667 151.997 143.741 152.868 142.738 153.815L142.711 153.838H142.681C141.912 153.838 141.142 153.807 140.312 153.803C139.9 153.803 139.485 153.803 139.065 153.803C138.854 153.803 138.642 153.803 138.431 153.826L138.115 153.853C138.065 153.853 138.008 153.853 137.965 153.88H137.915C137.896 153.88 137.888 153.911 137.873 153.926C137.396 154.607 136.965 155.418 136.515 156.211C136.065 157.003 135.619 157.834 135.154 158.676V158.645C134.885 160.104 134.606 161.606 134.319 163.149L134.285 163.049L136.592 164.791L136.685 164.861L136.604 164.945L135.735 165.814L135.119 166.43L135.077 166.265C136.965 166.861 138.815 167.418 140.615 167.918C141.065 168.041 141.512 168.161 141.958 168.264C142.386 168.382 142.826 168.456 143.269 168.488C143.696 168.433 144.103 168.278 144.458 168.034C144.82 167.811 145.16 167.553 145.473 167.264L145.5 167.238H145.538H150.458L150.392 167.268L153.085 163.807V163.88L150.146 157.091L150.181 157.115L148.104 157.091H147.573L147.431 157.08Z" fill="#263238"/>
<path d="M148.946 152.547L147.208 151.9L147.431 157.081L148.946 152.547Z" fill="#E0E0E0"/>
<path d="M150.461 167.078L145.185 159.174L145.542 167.078H150.461Z" fill="#E0E0E0"/>
<path d="M136.865 164.808L139.438 162.52L139.631 159.174L137.523 162.185L134.542 163.066L136.865 164.808Z" fill="#E0E0E0"/>
<path d="M150.496 167.324C150.45 167.277 150.408 167.226 150.373 167.17L150.054 166.709C149.765 166.282 149.373 165.705 148.9 164.993L145.104 159.224L145.188 159.27H144.484L139.8 159.316H139.738L139.715 159.255C139.165 157.655 138.696 156.305 138.357 155.324L137.973 154.209C137.923 154.077 137.884 153.942 137.857 153.805C137.927 153.927 137.984 154.055 138.027 154.189C138.13 154.466 138.269 154.835 138.442 155.289C138.8 156.262 139.288 157.597 139.869 159.197L139.784 159.135L144.465 159.07H145.173H145.227L145.257 159.116L149 164.916L150.104 166.666L150.392 167.143C150.434 167.199 150.468 167.26 150.496 167.324Z" fill="#263238"/>
<path d="M107.411 178.123L108.615 174.661L105.923 173.6L103.804 175.584C103.804 175.584 100.342 175.484 100.131 175.638C99.9192 175.792 98.0077 179.307 98.0077 179.307L97.373 182.73L99.1384 184.061L98.0077 185.192C98.0077 185.192 103.523 186.957 104.3 186.888C105.077 186.819 105.996 185.919 105.996 185.919H109.742L111.792 183.28L109.531 178.123H107.411Z" fill="#FAFAFA"/>
<path d="M107.411 178.124H107.561H107.973L109.534 178.097H109.561V178.124C110.111 179.355 110.892 181.109 111.869 183.27V183.309L111.842 183.343L109.8 185.989L109.777 186.02H109.734H105.988L106.054 185.997C105.806 186.227 105.539 186.435 105.254 186.616C104.963 186.822 104.626 186.954 104.273 187.001C103.918 186.98 103.566 186.922 103.223 186.828C102.881 186.751 102.538 186.659 102.196 186.566C100.819 186.182 99.4114 185.762 97.9652 185.305L97.8075 185.255L97.9229 185.139L98.3921 184.67L99.0537 184.009V184.159C98.4575 183.712 97.8652 183.27 97.2883 182.832L97.2383 182.793V182.736C97.4575 181.562 97.6691 180.428 97.8767 179.309V179.282L98.9191 177.405C99.2729 176.793 99.5767 176.209 99.9844 175.636C100.021 175.591 100.071 175.56 100.127 175.547C100.177 175.547 100.215 175.547 100.261 175.528C100.308 175.509 100.431 175.528 100.511 175.509C100.677 175.509 100.838 175.509 101 175.509H101.954C102.577 175.509 103.181 175.509 103.761 175.543L103.704 175.566L105.831 173.589L105.865 173.559H105.904L108.596 174.636L108.642 174.655V174.701L107.738 177.212C107.634 177.501 107.554 177.724 107.492 177.886L107.427 178.062C107.421 178.084 107.412 178.105 107.4 178.124C107.419 178.048 107.442 177.974 107.469 177.901L107.688 177.236C107.892 176.624 108.181 175.755 108.554 174.643L108.584 174.709L105.892 173.666H105.965L103.85 175.659L103.827 175.682H103.796C103.215 175.682 102.611 175.659 101.992 175.655H101.042H100.561C100.481 175.655 100.4 175.655 100.323 175.678H100.211C100.192 175.678 100.169 175.678 100.15 175.716C99.796 176.232 99.4614 176.87 99.119 177.451L98.096 179.351V179.32C97.8921 180.428 97.6806 181.574 97.4614 182.747L97.4267 182.651L99.1921 183.978L99.2844 184.047L99.2037 184.128L98.5421 184.789L98.0729 185.259L98.0306 185.093C99.469 185.547 100.877 185.978 102.261 186.355C102.604 186.447 102.942 186.539 103.281 186.616C103.606 186.703 103.938 186.761 104.273 186.789C104.595 186.746 104.902 186.628 105.169 186.443C105.445 186.272 105.702 186.073 105.938 185.851L105.965 185.824H106.004H109.75L109.661 185.889C110.404 184.943 111.096 184.055 111.723 183.259V183.332L109.492 178.159L109.531 178.186L107.942 178.159H107.538L107.411 178.124Z" fill="#263238"/>
<path d="M108.565 174.674L107.242 174.182L107.411 178.124L108.565 174.674Z" fill="#E0E0E0"/>
<path d="M109.719 185.734L105.704 179.715L105.973 185.734H109.719Z" fill="#E0E0E0"/>
<path d="M99.3691 184.007L101.327 182.265L101.473 179.715L99.8691 182.007L97.5999 182.68L99.3691 184.007Z" fill="#E0E0E0"/>
<path d="M109.746 185.919C109.616 185.777 109.5 185.623 109.4 185.458L108.508 184.158C107.762 183.05 106.742 181.504 105.612 179.769L105.696 179.815H105.158L101.592 179.846H101.527L101.508 179.789L100.481 176.792C100.369 176.446 100.281 176.165 100.204 175.939C100.165 175.84 100.14 175.736 100.127 175.631C100.181 175.722 100.225 175.819 100.258 175.919C100.346 176.142 100.45 176.419 100.581 176.754L101.677 179.727L101.592 179.669L105.154 179.615H105.692H105.75L105.777 179.662C106.908 181.396 107.908 182.954 108.623 184.081C108.962 184.627 109.242 185.073 109.454 185.419C109.565 185.577 109.663 185.745 109.746 185.919Z" fill="#263238"/>
</svg>
