<svg width="200" height="200" viewBox="0 0 200 200" fill="none" xmlns="http://www.w3.org/2000/svg">
<g clip-path="url(#clip0_682_25526)">
<path fill-rule="evenodd" clip-rule="evenodd" d="M95.3511 40.0786C119.484 41.5624 131.191 65.3973 145.943 82.1754C157.899 95.7741 168.961 109.409 171.286 126.445C173.971 146.122 175.558 168.605 159.663 182.721C143.717 196.882 117.964 195.809 95.3511 193.883C72.1366 194.322 53.3796 187.342 42.4481 172.737C26.9316 160.174 13.0786 144.922 12.0648 126.445C11.0113 107.244 22.9446 90.1752 37.1121 75.4837C52.9597 59.05 70.8381 38.5713 95.3511 40.0786Z" fill="#FFF3CC"/>
<path d="M92.0601 44.8647L92.9295 44.8164C97.1236 44.5763 101.254 45.9237 104.5 48.5907C107.746 51.2577 109.869 55.0488 110.446 59.2099C111.557 67.2599 108.823 69.6774 109 74.0002C109.411 82.968 102.184 88.5002 102.184 88.5002L104.707 94.952C104.833 96.3825 104.674 97.8237 104.241 99.1929C103.809 100.562 103.109 101.832 102.184 102.93C101.259 104.029 100.125 104.933 98.8495 105.592C97.5735 106.251 96.1799 106.651 94.7488 106.769C91.8972 106.998 89.07 106.096 86.8772 104.259C84.6845 102.422 83.302 99.796 83.028 96.9484L79.808 63.6937C78.5039 54.4362 82.7704 45.9515 92.0601 44.8647Z" fill="#FFBF9D"/>
<path d="M102 88.5007C97.8507 88.7417 93.6289 87.6491 90 85.6777C90 85.6777 94.1185 91.7827 103 90.5007L102 88.5007Z" fill="#FF9A6C"/>
<path d="M95.996 68.3284C96.0248 68.7349 95.8978 69.1368 95.6425 69.447C95.3872 69.7572 95.0242 69.9508 94.632 69.9858C94.4413 70.0133 94.2472 70.0008 94.0612 69.9492C93.8752 69.8975 93.7011 69.8078 93.5492 69.6852C93.3973 69.5627 93.2706 69.4099 93.1768 69.2358C93.083 69.0617 93.0238 68.8698 93.0028 68.6716C92.9789 68.2663 93.1076 67.8672 93.362 67.5581C93.6163 67.249 93.9765 67.054 94.3668 67.0142C94.5575 66.9867 94.7516 66.9992 94.9376 67.0509C95.1236 67.1025 95.2977 67.1922 95.4496 67.3148C95.6015 67.4373 95.7282 67.5901 95.822 67.7642C95.9158 67.9383 95.975 68.1302 95.996 68.3284Z" fill="#263238"/>
<path d="M108.788 63.701C108.635 63.8781 107.629 63.21 106.252 63.2985C104.876 63.3871 103.902 64.1035 103.749 63.9667C103.596 63.8298 103.813 63.5883 104.232 63.2422C104.804 62.793 105.501 62.5316 106.228 62.4935C106.943 62.4539 107.653 62.6397 108.257 63.0248C108.683 63.3227 108.844 63.6125 108.788 63.701Z" fill="#263238"/>
<path d="M107.997 68.3284C108.021 68.7337 107.892 69.1328 107.638 69.4419C107.384 69.751 107.023 69.946 106.633 69.9858C106.442 70.0133 106.248 70.0008 106.062 69.9491C105.876 69.8975 105.702 69.8078 105.55 69.6852C105.398 69.5627 105.271 69.4099 105.177 69.2358C105.084 69.0617 105.024 68.8698 105.003 68.6716C104.977 68.2657 105.105 67.8652 105.36 67.5556C105.615 67.2459 105.976 67.0516 106.368 67.0142C106.558 66.9867 106.753 66.9992 106.939 67.0509C107.125 67.1025 107.299 67.1922 107.451 67.3148C107.603 67.4373 107.729 67.5901 107.823 67.7642C107.917 67.9383 107.976 68.1302 107.997 68.3284Z" fill="#263238"/>
<path d="M95.256 64.7316C95.1111 64.9087 94.0968 64.2486 92.7202 64.3291C91.3437 64.4096 90.3777 65.1341 90.2167 64.9973C90.0557 64.8604 90.2811 64.6189 90.7077 64.2728C91.2758 63.8278 91.9674 63.5691 92.688 63.5322C93.4038 63.4864 94.1152 63.6727 94.7166 64.0635C95.1674 64.3613 95.3284 64.6511 95.256 64.7316Z" fill="#263238"/>
<path d="M100.835 74.6567C101.546 74.3823 102.29 74.201 103.049 74.1173C103.403 74.061 103.725 73.9724 103.773 73.7309C103.785 73.3658 103.684 73.0059 103.483 72.7005C103.097 71.8955 102.678 71.002 102.284 70.0843C100.626 66.3571 99.4019 63.29 99.5468 63.2256C99.6917 63.1612 101.157 66.1237 102.831 69.8508C103.234 70.7685 103.636 71.646 103.982 72.4832C104.225 72.8956 104.318 73.3786 104.248 73.8517C104.204 73.9799 104.132 74.0961 104.035 74.1911C103.939 74.2862 103.821 74.3574 103.693 74.3991C103.503 74.4654 103.305 74.506 103.105 74.5198C102.356 74.6547 101.594 74.7006 100.835 74.6567Z" fill="#263238"/>
<path d="M95.359 60.4005C95.2383 60.7788 93.8537 60.6822 92.2517 60.972C90.6498 61.2618 89.3698 61.777 89.1364 61.447C89.0317 61.294 89.241 60.9318 89.7401 60.5373C90.4173 60.0516 91.1963 59.7266 92.0179 59.5871C92.8395 59.4476 93.6821 59.4973 94.4816 59.7323C95.0853 59.9416 95.4073 60.2153 95.359 60.4005Z" fill="#263238"/>
<path d="M108.086 60.827C107.869 61.149 106.903 60.8833 105.76 60.9316C104.617 60.9799 103.667 61.2617 103.425 60.9316C103.321 60.7787 103.425 60.4567 103.852 60.1266C104.397 59.7358 105.049 59.5197 105.72 59.5068C106.392 59.4784 107.056 59.6614 107.619 60.03C108.038 60.352 108.191 60.666 108.086 60.827Z" fill="#263238"/>
<path d="M109.344 55.1525C109.344 55.1525 106.663 49.6784 103.878 48.5192C100.513 47.1266 99.3133 50.8054 96.1416 50.1292C92.9699 49.453 89.7579 48.1006 86.707 50.6927C83.3743 53.5344 85.097 55.2974 85.097 59.2821C85.1453 75.4385 82.4646 80.1639 81.1927 72.629C81.0559 71.824 78.7052 71.2686 78.1659 67.799C77.4575 63.2749 76.9664 57.7526 77.7956 54.4602C78.4959 51.6909 79.9369 49.7187 82.6256 47.4808C86.8358 43.9549 92.8652 43.5363 96.9949 43.7134C101.125 43.8905 109.319 48.1006 109.344 55.1525Z" fill="#263238"/>
<path d="M81.7803 72.3236C81.7532 71.9929 81.6583 71.6713 81.5014 71.3788C81.3446 71.0864 81.1291 70.8295 80.8685 70.624C80.6079 70.4185 80.3078 70.269 79.9868 70.1847C79.6658 70.1004 79.331 70.0831 79.003 70.134C77.3447 70.3916 75.5415 71.4462 75.8474 74.8916C76.3948 81.0016 82.4162 79.1903 82.4162 79.0132C82.4162 78.8361 82.0298 74.8835 81.7803 72.3236Z" fill="#FFBF9D"/>
<path d="M80.8948 76.8303C80.8948 76.8303 80.7982 76.9188 80.6211 77.0154C80.3742 77.1475 80.0858 77.1793 79.8161 77.104C79.156 76.9269 78.52 75.9448 78.3912 74.85C78.3275 74.3266 78.3825 73.7955 78.5522 73.2963C78.5923 73.1011 78.6792 72.9186 78.8054 72.7643C78.9316 72.6101 79.0933 72.4888 79.2767 72.4108C79.3957 72.3686 79.5255 72.3688 79.6444 72.4113C79.7632 72.4538 79.8637 72.5361 79.9288 72.6443C80.0334 72.8053 80.0012 72.934 80.0334 72.9421C80.0656 72.9501 80.1542 72.8294 80.0817 72.5798C80.0362 72.4305 79.9392 72.3022 79.808 72.2176C79.6284 72.1045 79.4114 72.0669 79.2043 72.1129C78.9589 72.1861 78.7363 72.3205 78.5574 72.5036C78.3785 72.6868 78.2493 72.9125 78.1819 73.1595C77.9686 73.7126 77.894 74.3096 77.9646 74.8983C78.1175 76.1299 78.8501 77.2247 79.7517 77.4018C79.9198 77.4353 80.0934 77.4302 80.2593 77.387C80.4252 77.3438 80.5792 77.2635 80.7096 77.1523C80.8948 76.9832 80.9189 76.8464 80.8948 76.8303Z" fill="#FF9A6C"/>
<path d="M110.648 48.5191C109.706 47.8107 108.41 47.7141 107.476 46.9977C103.316 43.8042 96.6129 37.7091 90.8888 40.8959C88.7107 42.1085 85.9615 42.2125 84.0181 43.6006C83.4528 44.0475 82.9874 44.608 82.6519 45.2458C82.3164 45.8835 82.1182 46.5845 82.07 47.3036C82.07 47.3036 81.4341 46.9816 79.5021 48.5111C78.2704 49.4851 77.2642 51.5862 76.8134 53.0835C76.1452 55.3294 77.1193 57.6962 78.0772 59.8294C78.5924 60.9806 79.2364 62.2444 80.4359 62.655C81.8929 63.146 83.5029 62.0029 84.0745 60.57C84.646 59.1371 85.5476 57.6962 86.2399 56.3196C87.4474 53.9046 88.6549 51.6989 87.6648 50.1694C90.93 49.1089 93.0942 51.0056 95.9966 52.0289C97.2173 52.4594 102.143 53.276 103.5 52.9513C103.939 52.8464 104.349 52.6439 104.699 52.359C105.252 53.2599 106.124 53.9194 107.141 54.2059C108.159 54.4923 109.247 54.3848 110.189 53.9046C112.008 52.7776 112.33 49.791 110.648 48.5191Z" fill="#263238"/>
<path d="M77.4653 58.3875C77.7478 58.8294 77.9852 59.2987 78.1737 59.7882C78.3945 60.2826 78.7415 60.7102 79.18 61.0279C79.7661 61.3278 80.4411 61.405 81.0798 61.2452C81.7438 61.1164 82.3707 60.8414 82.9152 60.4402C83.3543 60.0994 83.7539 59.7106 84.1066 59.281C84.4148 58.8596 84.7568 58.4638 85.129 58.0977C84.9327 58.5852 84.6611 59.0388 84.324 59.442C83.9868 59.9161 83.5859 60.3413 83.1325 60.7059C82.5515 61.1447 81.8763 61.4424 81.1603 61.5753C80.4348 61.7551 79.6679 61.6484 79.019 61.2774C78.5341 60.9224 78.1645 60.4324 77.9564 59.8687C77.7324 59.397 77.5674 58.8995 77.4653 58.3875Z" fill="#B9B8B6"/>
<path d="M77.6989 63.1146C78.0674 63.394 78.474 63.619 78.9065 63.7828C79.3769 63.9318 79.8743 63.9757 80.3635 63.9116C80.9641 63.8203 81.5379 63.6007 82.046 63.2676C82.9688 62.6266 83.7521 61.805 84.3483 60.8526C84.5759 60.4394 84.8457 60.0509 85.1533 59.6934C85.0124 60.1539 84.8035 60.5907 84.5334 60.9894C83.9864 62.0378 83.1937 62.9383 82.2231 63.6137C81.6703 63.9795 81.0384 64.2085 80.3796 64.2819C79.8332 64.342 79.2805 64.2674 78.7696 64.0645C77.9485 63.6701 77.6587 63.1227 77.6989 63.1146Z" fill="#B9B8B6"/>
<path d="M96.7029 79.6289C96.4969 79.9662 96.3821 80.3164 96.3615 80.6697C96.3372 80.8368 96.3835 81.0047 96.4972 81.1618C96.6109 81.319 96.7894 81.4618 97.0205 81.5804C97.2599 81.7262 97.5589 81.8432 97.8964 81.9233C98.2338 82.0034 98.6015 82.0446 98.9734 82.0439C99.6443 82.0432 100.293 81.92 100.802 81.6964C101.311 81.4729 101.648 81.1636 101.752 80.8242L101.99 80.0558C100.601 79.8525 96.8061 79.6818 96.7029 79.6289Z" fill="#FF9A6C"/>
<path d="M100.948 81.1252C100.948 81.1252 100.753 81.1252 100.431 81.1411C99.9786 81.163 99.5184 81.163 99.0662 81.1411C98.4134 81.1089 97.8233 81.0007 97.4135 80.8381C96.9255 80.6348 96.6932 80.3822 96.7609 80.1285C96.7805 79.9858 96.8991 79.8462 97.1084 79.7193L96.9049 79.7485C98.3542 79.8176 99.6256 79.8734 100.524 79.9053C101.007 79.9336 101.499 79.9452 101.99 79.9399C101.532 79.884 101.054 79.8465 100.566 79.8282C99.668 79.7751 98.4136 79.7033 96.9643 79.6289H96.8287L96.7693 79.6661C96.4444 79.8636 96.3061 80.086 96.3707 80.3073C96.4353 80.5286 96.7 80.7395 97.1338 80.9152C97.6097 81.0951 98.291 81.2096 99.0323 81.2341C99.514 81.2474 99.9994 81.233 100.465 81.1916C100.639 81.1806 100.804 81.1579 100.948 81.1252Z" fill="#263238"/>
<path d="M60.4879 106.576C59.9566 106.576 52.3735 109.603 50.3771 117.041C48.3807 124.479 42.9308 151.769 42.9308 151.769L37.1428 159.787C37.1428 159.787 39.0185 174.414 49.6526 171.628C49.6526 171.628 56.7527 172.868 59.0147 165.671C61.2768 158.475 65.6641 137.005 65.6641 137.005L60.4879 106.576Z" fill="#B9B8B6"/>
<path d="M82.1472 94L78.1204 100.196L60 106.752L65.1865 160.234L63.2697 188.228C80 197.5 124.262 195.715 127 194.5C128.425 194.459 128.681 191.408 128.914 189.425C129.115 187.645 128.962 185.841 128.463 184.123L125.459 173.403C125.902 180.074 123.937 133.607 123.848 131.911L128.238 108.006L107.621 99.5154L104.399 94.5081L95.1215 101.687L82.1472 94Z" fill="#B9B8B6"/>
<path d="M127.447 108C127.447 108 131.804 111.654 132.523 114.468C133.242 117.281 148.907 149.692 148.907 149.692L156.689 151.697L158.77 155.82C159.985 158.185 160.312 160.877 159.696 163.444C159.08 166.012 157.558 168.298 155.386 169.92C155.116 170.116 154.833 170.297 154.54 170.462C150.311 172.887 142.783 172.758 138.376 167.794C134.206 163.089 122 146.176 122 146.176V125.479L127.447 108Z" fill="#B9B8B6"/>
<path d="M152.95 152.59L163.601 146.303L168.737 152.59L167.674 155.633L153.941 165.848C152.236 164.457 151.092 162.495 150.721 160.326C150.117 156.486 152.95 152.59 152.95 152.59Z" fill="#FFBF9D"/>
<path d="M149.569 149.337C149.569 149.442 148.66 149.337 147.324 149.788C145.597 150.385 144.068 151.446 142.904 152.855C141.754 154.295 140.806 155.885 140.087 157.581C139.815 158.307 139.478 159.008 139.08 159.674C139.188 158.901 139.405 158.147 139.724 157.436C140.357 155.646 141.291 153.977 142.485 152.501C143.707 151.009 145.361 149.932 147.219 149.418C147.979 149.167 148.794 149.139 149.569 149.337Z" fill="#263238"/>
<path d="M163.424 149.789C163.158 148.399 163.253 146.964 163.7 145.621C164.147 144.277 164.93 143.071 165.976 142.117C168.49 140.049 171.334 138.416 174.388 137.287C176.255 136.482 180.144 133.206 180.828 133.995C181.512 134.784 181.818 135.959 180.828 137.392C179.838 138.825 174.211 140.958 175 142.769C175.322 143.502 177.093 143.639 177.093 143.639C180.307 143.865 183.531 143.929 186.753 143.832C189.602 143.582 192.162 144.13 192.009 145.112C191.856 146.094 191.325 146.633 188.966 146.834C186.608 147.036 182.768 146.883 182.526 147.422C182.285 147.961 183.122 148.308 184.499 148.227C185.875 148.147 192.363 148.122 192.806 148.863C192.914 149.051 192.979 149.261 192.996 149.477C193.013 149.692 192.981 149.91 192.904 150.112C192.827 150.314 192.706 150.497 192.55 150.648C192.394 150.798 192.207 150.911 192.001 150.98L190.48 151.52C190.48 151.52 191.365 152.751 190.625 153.435C189.884 154.12 188.21 153.878 188.21 153.878L179.604 153.637C179.604 153.637 179.113 154.152 179.355 154.506C179.596 154.86 186.342 154.369 186.39 155.11C186.439 155.85 187.026 156.189 185.014 156.72C182.066 157.211 179.058 157.211 176.11 156.72C174.291 156.221 166.668 155.915 166.668 155.915L163.424 149.789Z" fill="#FFBF9D"/>
<path d="M46.4649 153.709L36.507 145.449L30.7915 151.889L31.4919 155.037L43.9372 166.758C45.7822 165.7 47.1744 164.001 47.8495 161.984C49.0892 158.434 46.4649 153.709 46.4649 153.709Z" fill="#FFBF9D"/>
<path d="M36.3943 149.747C36.8225 148.399 36.8994 146.964 36.6176 145.578C36.3359 144.192 35.7048 142.9 34.7843 141.826C32.5191 139.475 29.8704 137.526 26.9516 136.062C25.1967 135.008 21.7191 131.337 20.9382 132.037C20.4752 132.455 20.1799 133.026 20.1074 133.646C20.0348 134.265 20.1899 134.889 20.5438 135.402C21.3488 136.94 25.2289 138.727 25.092 140.699C25.0778 140.89 25.026 141.076 24.9398 141.247C24.8536 141.418 24.7346 141.57 24.5896 141.695C24.4446 141.82 24.2764 141.915 24.0946 141.975C23.9129 142.034 23.7211 142.058 23.5303 142.044C20.3183 141.896 17.1157 141.587 13.9347 141.118C11.1252 140.538 8.52508 140.78 8.55728 141.77C8.58948 142.76 9.06443 143.38 11.3828 143.839C13.7012 144.298 17.5331 144.644 17.6619 145.167C17.7907 145.69 16.9776 145.972 15.6171 145.722C14.2567 145.473 7.81668 144.708 7.29343 145.392C7.16372 145.564 7.07381 145.763 7.03018 145.974C6.98654 146.185 6.99027 146.403 7.04109 146.613C7.09191 146.822 7.18855 147.018 7.32406 147.185C7.45957 147.353 7.63057 147.488 7.82473 147.582L9.27373 148.298C9.27373 148.298 8.25138 149.417 8.90343 150.182C9.55548 150.947 11.246 150.907 11.246 150.907L19.8273 151.663C19.8273 151.663 20.254 152.235 19.9642 152.557C19.6744 152.879 13.0492 151.607 12.9123 152.34C12.7755 153.072 12.1476 153.338 14.0957 154.062C16.9698 154.895 19.9619 155.246 22.9507 155.101C24.8183 154.819 32.4336 155.366 32.4336 155.366L36.3943 149.747Z" fill="#FFBF9D"/>
<path d="M107.54 101.006C107.002 101.678 106.404 102.301 105.753 102.865C104.618 103.976 103.065 105.53 101.422 107.301C101.076 107.679 100.73 108.05 100.408 108.412L100.191 108.645L99.9894 108.396C98.7175 106.786 97.6146 105.305 96.8418 104.25C96.3881 103.714 96.0015 103.125 95.6907 102.495C96.225 102.952 96.7058 103.468 97.1236 104.033C97.9688 105.031 99.128 106.448 100.416 108.058H100.005L101.012 106.939C102.426 105.41 103.92 103.956 105.488 102.584C106.105 101.976 106.794 101.446 107.54 101.006Z" fill="#263238"/>
<path d="M61.623 120.502C61.771 120.857 61.8711 121.231 61.9209 121.613C62.0738 122.337 62.267 123.392 62.4763 124.696C62.8949 127.304 63.3377 130.927 63.708 134.936C64.0783 138.945 64.352 142.583 64.5613 145.216C64.6418 146.439 64.7223 147.478 64.7786 148.331C64.8291 148.713 64.8291 149.1 64.7786 149.482C64.6638 149.115 64.5882 148.738 64.5532 148.355C64.4405 147.622 64.3037 146.56 64.1588 145.248C63.8529 142.631 63.5148 139.001 63.1445 134.992C62.7742 130.983 62.4119 127.369 62.098 124.793C61.945 123.577 61.8162 122.539 61.7116 121.693C61.6284 121.302 61.5986 120.901 61.623 120.502Z" fill="#263238"/>
<path d="M124.606 118.676C124.721 119.132 124.789 119.599 124.808 120.068C124.896 120.978 124.993 122.282 125.073 123.908C125.258 127.128 125.347 131.636 125.363 136.579V153.09C125.389 153.56 125.37 154.032 125.307 154.498C125.202 154.039 125.151 153.569 125.154 153.098C125.089 152.188 125.025 150.876 124.977 149.258C124.864 146.038 124.824 141.53 124.816 136.587C124.808 131.644 124.767 127.161 124.687 123.924C124.647 122.387 124.614 121.099 124.59 120.085C124.552 119.615 124.557 119.144 124.606 118.676Z" fill="#263238"/>
<path d="M53.4522 165.123C53.2003 164.209 53.0147 163.279 52.8968 162.338C52.5196 160.092 51.7915 157.918 50.7394 155.898C49.6657 153.917 48.0523 152.282 46.0865 151.181C45.2411 150.777 44.3666 150.438 43.4702 150.166C43.7354 150.109 44.01 150.109 44.2752 150.166C44.9726 150.283 45.6502 150.497 46.2877 150.802C48.4029 151.857 50.1364 153.546 51.2465 155.632C52.3118 157.706 52.9884 159.957 53.2429 162.274C53.4324 163.211 53.5027 164.168 53.4522 165.123Z" fill="#263238"/>
<path d="M56.0364 154.248C55.9237 154.377 54.3217 152.727 51.7135 151.833C49.1053 150.94 46.8835 151.246 46.8352 151.077C46.7869 150.908 49.1456 150.36 51.8906 151.318C54.6357 152.276 56.1571 154.184 56.0364 154.248Z" fill="#263238"/>
<path d="M96.8901 191.656C96.8413 191.358 96.8197 191.057 96.8257 190.755C96.8257 190.119 96.8257 189.258 96.7693 188.179C96.721 185.885 96.6566 182.657 96.5761 178.688C96.391 170.638 96.1334 159.585 95.8436 147.381C95.5538 135.177 95.4008 124.076 95.4169 116.059C95.4169 112.034 95.4572 108.814 95.5055 106.56C95.5055 105.481 95.5618 104.62 95.586 103.984C95.5792 103.682 95.6008 103.38 95.6504 103.082C95.6728 103.382 95.6728 103.684 95.6504 103.984C95.6504 104.62 95.6504 105.481 95.6504 106.56C95.6504 108.854 95.6987 112.09 95.7309 116.051C95.8114 124.101 96.0448 135.137 96.3185 147.365C96.5922 159.593 96.8337 170.662 96.8981 178.68C96.8981 182.705 96.8981 185.925 96.8981 188.179C96.8981 189.258 96.8981 190.119 96.8579 190.755C96.8892 191.054 96.8999 191.356 96.8901 191.656Z" fill="#263238"/>
<path d="M45.9979 153.37C45.9979 153.305 46.8029 153.909 47.4469 155.246C47.8415 156.007 48.1287 156.82 48.3002 157.661C48.4655 158.728 48.4655 159.814 48.3002 160.881C48.18 161.949 47.8634 162.986 47.3664 163.94C46.936 164.713 46.3427 165.383 45.6276 165.904C44.9987 166.426 44.2068 166.71 43.3896 166.709C44.0971 166.416 44.7673 166.041 45.3861 165.59C46.0209 165.069 46.5439 164.426 46.9236 163.698C47.3544 162.788 47.6266 161.81 47.7286 160.808C47.8735 159.804 47.8735 158.785 47.7286 157.781C47.5903 156.952 47.3553 156.141 47.0283 155.366C46.5292 154.086 45.9174 153.418 45.9979 153.37Z" fill="#263238"/>
<path d="M155.937 166.967C155.937 166.967 155.679 166.967 155.269 166.765C154.693 166.511 154.151 166.184 153.659 165.791C151.972 164.492 150.818 162.621 150.415 160.531C150.012 158.44 150.387 156.274 151.469 154.441C151.785 153.89 152.169 153.381 152.612 152.927C152.926 152.621 153.128 152.476 153.152 152.501C153.176 152.525 152.508 153.249 151.807 154.626C150.871 156.407 150.569 158.453 150.951 160.428C151.333 162.404 152.376 164.19 153.908 165.493C155.06 166.508 155.977 166.878 155.937 166.967Z" fill="#263238"/>
<path d="M176.408 140.41C176.473 140.475 176.006 140.917 175.418 141.698C175.08 142.145 174.846 142.662 174.734 143.212C174.605 143.831 174.621 144.556 174.509 145.353C174.413 146.037 174.182 146.695 173.829 147.29C173.477 147.884 173.01 148.402 172.456 148.814C172.032 149.196 171.495 149.428 170.926 149.474C170.886 149.386 171.482 149.161 172.214 148.508C173.157 147.673 173.778 146.534 173.969 145.288C174.022 144.56 174.114 143.834 174.243 143.115C174.397 142.515 174.695 141.963 175.112 141.505C175.45 141.042 175.895 140.666 176.408 140.41Z" fill="#FF9A6C"/>
<path d="M21.1394 148.879C21.1394 149.024 18.4588 149.169 15.1502 149.008C11.8417 148.847 9.18514 148.46 9.20124 148.307C9.21734 148.155 11.8819 148.307 15.1744 148.46C18.4668 148.613 21.1394 148.718 21.1394 148.879Z" fill="#FF9A6C"/>
<path d="M27.2332 148.42C27.2332 148.477 26.5973 148.372 25.8406 147.736C25.3505 147.31 24.9606 146.781 24.699 146.187C24.4374 145.592 24.3104 144.948 24.3272 144.299C24.3845 143.612 24.5085 142.933 24.6975 142.27C24.8384 141.745 24.9061 141.203 24.8987 140.66C24.8525 140.175 24.7415 139.699 24.5687 139.243C24.5687 139.187 25.1563 139.613 25.2851 140.628C25.3502 141.198 25.3175 141.775 25.1885 142.334C25.037 142.973 24.9321 143.621 24.8746 144.274C24.8575 145.442 25.2998 146.569 26.1062 147.414C26.7261 148.138 27.2735 148.34 27.2332 148.42Z" fill="#FF9A6C"/>
<path d="M177.906 150.328C177.906 150.175 180.779 150.288 184.289 150.578C187.799 150.867 190.641 151.238 190.633 151.383C190.625 151.528 187.759 151.423 184.249 151.125C180.739 150.827 177.897 150.473 177.906 150.328Z" fill="#FF9A6C"/>
<path d="M95.0386 101.971C94.717 103.043 94.3106 104.087 93.823 105.095C93.6057 105.578 93.3803 106.101 93.1468 106.64C92.9159 107.255 92.6471 107.854 92.3418 108.435C92.2256 108.626 92.0566 108.78 91.8552 108.877C91.6538 108.974 91.4286 109.011 91.2068 108.983C90.8168 108.88 90.4541 108.693 90.1442 108.435L88.2444 107.139C85.6522 105.352 83.3258 103.702 81.6514 102.494C80.7152 101.882 79.832 101.193 79.011 100.434C80.0083 100.936 80.9639 101.518 81.8687 102.172C83.5995 103.307 85.9662 104.893 88.5583 106.688L90.4501 107.993C90.6968 108.206 90.9844 108.368 91.2953 108.468C91.4222 108.483 91.5508 108.459 91.6642 108.401C91.7776 108.342 91.8707 108.25 91.9313 108.137C92.5431 107.027 93.0502 105.827 93.5413 104.917C93.9576 103.895 94.4584 102.91 95.0386 101.971Z" fill="#263238"/>
<path d="M36.5277 145.629C36.8095 147.015 36.7326 148.45 36.3044 149.798L32.3438 155.417C32.3438 155.417 27.4946 155.069 24.5863 155.071C26.6368 153.164 27.9101 150.499 27.9101 147.55C27.9101 144.8 27.3131 142.872 25.5 141C25.3427 139.927 23.5779 138.334 22.4076 137.386C21.568 136.705 20.7715 136.06 20.4539 135.453C20.1 134.94 19.9449 134.315 20.0175 133.696C20.09 133.077 20.3854 132.506 20.8483 132.088C21.3504 131.638 22.9673 132.995 24.5243 134.301C25.389 135.027 26.2351 135.737 26.8617 136.113C29.7806 137.576 32.4292 139.525 34.6944 141.877C35.6149 142.951 36.246 144.242 36.5277 145.629Z" fill="#FFBF9D"/>
<path d="M177.896 143.981L179.808 144.596L181.553 143.211C182.158 142.714 183.055 142.522 183.59 142.774C183.66 142.809 183.732 142.839 183.805 142.865C186.606 143.836 191.522 142.501 195.427 139.585C198.952 136.954 200.567 133.841 199.682 131.88C199.533 131.545 198.928 130.215 198.776 129.876C198.557 129.402 198.204 129.001 197.764 128.726C195.219 127.074 189.631 128.359 185.294 131.6C182.468 133.712 180.868 136.13 180.808 138.012C180.753 138.547 180.504 139.036 180.109 139.383C179.137 140.32 178.1 141.185 177.005 141.972L177.896 143.981ZM195.574 134.121C194.859 135.082 194.005 135.925 193.038 136.624C189.979 138.911 186.037 139.985 184.241 139.059C184.396 138.334 184.705 137.657 185.147 137.076C185.858 136.11 186.71 135.263 187.676 134.563C190.745 132.272 194.687 131.198 196.468 132.134C196.313 132.856 196.006 133.531 195.569 134.113L195.574 134.121Z" fill="#3C474C"/>
<path opacity="0.4" d="M177.896 143.981L179.808 144.596L181.553 143.211C182.158 142.714 183.055 142.522 183.59 142.774C183.66 142.809 183.732 142.839 183.805 142.865C186.606 143.836 191.522 142.501 195.427 139.585C198.952 136.954 200.567 133.841 199.682 131.88C199.533 131.545 198.928 130.215 198.776 129.876C198.557 129.402 198.204 129.001 197.764 128.726C195.219 127.074 189.631 128.359 185.294 131.6C182.468 133.712 180.868 136.13 180.808 138.012C180.753 138.547 180.504 139.036 180.109 139.383C179.137 140.32 178.1 141.185 177.005 141.972L177.896 143.981ZM195.574 134.121C194.859 135.082 194.005 135.925 193.038 136.624C189.979 138.911 186.037 139.985 184.241 139.059C184.396 138.334 184.705 137.657 185.147 137.076C185.858 136.11 186.71 135.263 187.676 134.563C190.745 132.272 194.687 131.198 196.468 132.134C196.313 132.856 196.006 133.531 195.569 134.113L195.574 134.121Z" fill="black"/>
<path d="M176.989 141.975L178.901 142.591L180.646 141.205C181.251 140.708 182.146 140.517 182.683 140.768C182.764 140.806 182.836 140.837 182.895 140.859C185.696 141.83 190.611 140.495 194.517 137.578C198.856 134.336 200.306 130.37 197.757 128.717C195.209 127.064 189.624 128.35 185.287 131.59C182.461 133.703 180.861 136.121 180.801 138.002C180.746 138.538 180.497 139.026 180.102 139.373C179.127 140.315 178.087 141.184 176.989 141.975ZM184.233 135.069C184.946 134.104 185.8 133.258 186.766 132.556C189.93 130.19 194.042 129.122 195.741 130.224C196.828 130.928 196.76 132.418 195.566 134.11C194.855 135.075 194.003 135.922 193.038 136.625C189.874 138.991 185.762 140.059 184.063 138.957C182.974 138.255 183.042 136.765 184.236 135.073L184.233 135.069Z" fill="#3C474C"/>
<path d="M178.903 142.591L180.646 141.203C181.252 140.708 182.145 140.515 182.683 140.766C182.763 140.804 182.838 140.837 182.896 140.859C185.696 141.828 190.611 140.493 194.515 137.574C198.007 134.965 199.628 131.891 198.797 129.924L199.683 131.876C200.564 133.836 198.959 136.942 195.426 139.582C191.52 142.507 186.604 143.84 183.796 142.877C183.737 142.855 183.663 142.822 183.584 142.786C183.049 142.534 182.152 142.717 181.547 143.223L179.804 144.607L177.89 143.99L176.983 141.987L178.903 142.591Z" fill="#3C474C"/>
<path opacity="0.2" d="M178.903 142.591L180.646 141.203C181.252 140.708 182.145 140.515 182.683 140.766C182.763 140.804 182.838 140.837 182.896 140.859C185.696 141.828 190.611 140.493 194.515 137.574C198.007 134.965 199.628 131.891 198.797 129.924L199.683 131.876C200.564 133.836 198.959 136.942 195.426 139.582C191.52 142.507 186.604 143.84 183.796 142.877C183.737 142.855 183.663 142.822 183.584 142.786C183.049 142.534 182.152 142.717 181.547 143.223L179.804 144.607L177.89 143.99L176.983 141.987L178.903 142.591Z" fill="black"/>
<path opacity="0.2" d="M178.901 142.589L179.81 144.594L177.897 143.977L176.989 141.974L178.901 142.589Z" fill="black"/>
<path d="M139.644 177.307C139.419 176.786 139.011 175.907 139.011 175.907C138.328 174.328 139.567 171.943 144.126 167.283C148.685 162.623 160.552 152.226 169.5 145.442C171.687 145.492 174.444 144.27 177.121 142.289L179.034 142.905L179.668 144.304C179.668 144.304 148.419 170.934 139.644 177.307Z" fill="#263238"/>
<path d="M176.865 142.004C174.188 143.984 171.424 145.21 169.243 145.157C160.293 151.954 148.425 162.345 143.865 167.003C139.304 171.661 138.067 174.048 138.744 175.619C147.52 169.249 178.772 142.61 178.772 142.61L176.865 142.004Z" fill="#FFD000"/>
<path opacity="0.1" d="M169.406 145.504C168.365 146.295 167.286 147.135 166.187 148.006L169.191 151.234C171.022 149.691 172.691 148.279 174.115 147.072L173.487 145.317C173.278 145.346 173.063 145.325 172.859 145.258C172.654 145.19 172.466 145.077 172.308 144.926C171.423 145.248 170.486 145.414 169.536 145.418L169.406 145.504Z" fill="black"/>
<path d="M162.868 138.978C163.632 140.671 165.543 141.42 168.092 141.164L168.106 141.154C168.162 141.147 168.216 141.145 168.27 141.143L168.216 141.291L169.123 143.297L171.526 143.225L173.053 139.723C173.393 139.008 173.867 138.373 174.451 137.851C176.237 136.141 177.695 134.108 178.757 131.849C180.02 129.169 180.398 126.719 179.692 125.17L178.781 123.157C178.034 121.529 176.084 120.896 172.684 122.034C168.413 123.47 163.555 127.818 162.035 132.541C161.439 134.385 161.456 135.859 161.945 136.946L162.868 138.978ZM165.008 136.768C164.984 135.93 165.113 135.102 165.387 134.323C165.777 133.168 166.335 132.085 167.043 131.108C168.789 128.633 171.545 126.44 173.902 125.647C175.608 125.074 176.281 125.288 176.631 125.483C176.671 126.67 176.291 128.229 175.501 129.912C175.039 130.889 174.496 131.821 173.877 132.7C171.963 135.409 169.613 137.213 167.746 137.401C166.583 137.506 165.635 137.296 165.008 136.768Z" fill="#3C474C"/>
<path opacity="0.2" d="M162.868 138.978C163.632 140.671 165.543 141.42 168.092 141.164L168.106 141.154C168.162 141.147 168.216 141.145 168.27 141.143L168.216 141.291L169.123 143.297L171.526 143.225L173.053 139.723C173.393 139.008 173.867 138.373 174.451 137.851C176.237 136.141 177.695 134.108 178.757 131.849C180.02 129.169 180.398 126.719 179.692 125.17L178.781 123.157C178.034 121.529 176.084 120.896 172.684 122.034C168.413 123.47 163.555 127.818 162.035 132.541C161.439 134.385 161.456 135.859 161.945 136.946L162.868 138.978ZM165.008 136.768C164.984 135.93 165.113 135.102 165.387 134.323C165.777 133.168 166.335 132.085 167.043 131.108C168.789 128.633 171.545 126.44 173.902 125.647C175.608 125.074 176.281 125.288 176.631 125.483C176.671 126.67 176.291 128.229 175.501 129.912C175.039 130.889 174.496 131.821 173.877 132.7C171.963 135.409 169.613 137.213 167.746 137.401C166.583 137.506 165.635 137.296 165.008 136.768Z" fill="black"/>
<path opacity="0.2" d="M170.628 141.237L171.536 143.24L169.129 143.306L168.222 141.299L170.628 141.237Z" fill="black"/>
<path d="M161.963 136.979L162.868 138.978C163.632 140.671 165.543 141.42 168.092 141.164L168.108 141.153C168.162 141.147 168.218 141.144 168.272 141.142L168.575 140.281C168.84 139.542 168.203 139.044 167.195 139.15L167.181 139.16C164.643 139.411 162.727 138.668 161.963 136.979ZM166.134 129.09C165.427 130.07 164.872 131.157 164.485 132.316C163.888 134.162 163.977 135.609 164.741 136.501C164.824 136.597 164.914 136.685 165.012 136.765C164.987 135.928 165.116 135.099 165.391 134.32C165.778 133.162 166.334 132.075 167.04 131.095C168.787 128.626 171.543 126.429 173.9 125.636C175.607 125.06 176.279 125.276 176.632 125.471C176.604 124.513 176.301 123.795 175.718 123.459C175.366 123.256 174.697 123.052 172.992 123.627C170.637 124.425 167.881 126.615 166.134 129.09Z" fill="#3C474C"/>
<path opacity="0.4" d="M161.963 136.979L162.868 138.978C163.632 140.671 165.543 141.42 168.092 141.164L168.108 141.153C168.162 141.147 168.218 141.144 168.272 141.142L168.575 140.281C168.84 139.542 168.203 139.044 167.195 139.15L167.181 139.16C164.643 139.411 162.727 138.668 161.963 136.979ZM166.134 129.09C165.427 130.07 164.872 131.157 164.485 132.316C163.888 134.162 163.977 135.609 164.741 136.501C164.824 136.597 164.914 136.685 165.012 136.765C164.987 135.928 165.116 135.099 165.391 134.32C165.778 133.162 166.334 132.075 167.04 131.095C168.787 128.626 171.543 126.429 173.9 125.636C175.607 125.06 176.279 125.276 176.632 125.471C176.604 124.513 176.301 123.795 175.718 123.459C175.366 123.256 174.697 123.052 172.992 123.627C170.637 124.425 167.881 126.615 166.134 129.09Z" fill="black"/>
<path d="M172.697 122.056C168.427 123.492 163.569 127.84 162.049 132.563C160.528 137.285 162.996 139.582 167.188 139.168L167.204 139.157C168.213 139.055 168.851 139.551 168.587 140.286L168.218 141.303L170.619 141.232L172.144 137.727C172.485 137.013 172.96 136.377 173.544 135.854C175.329 134.144 176.788 132.112 177.852 129.854C180.452 124.354 179.323 119.824 172.697 122.056ZM175.717 123.458C177.02 124.212 176.931 126.859 175.502 129.897C175.04 130.874 174.497 131.806 173.878 132.685C171.964 135.395 169.614 137.198 167.747 137.386C166.385 137.525 165.346 137.215 164.732 136.496C163.968 135.604 163.878 134.157 164.474 132.309C164.864 131.154 165.422 130.07 166.13 129.094C167.876 126.622 170.632 124.426 172.989 123.633C174.701 123.056 175.369 123.261 175.717 123.458Z" fill="#3C474C"/>
<path d="M154.007 178.764C155.889 171.561 167.309 143.953 168.312 141.533L170.691 141.477L171.325 142.876C171.066 143.699 170.99 144.577 171.102 145.448C171.412 145.79 171.802 146.048 172.232 146.195L172.866 147.594C170.449 155.51 165.36 167.062 162.502 172.017C159.643 176.972 157.338 179.164 154.648 180.175L154.007 178.764Z" fill="#37474F"/>
<path d="M168.062 141.255C167.058 143.675 155.629 171.286 153.756 178.486C153.915 178.427 154.073 178.362 154.231 178.294C156.713 177.209 158.915 174.985 161.608 170.33C164.473 165.38 169.561 153.828 171.973 145.908C170.227 145.285 169.784 143.514 170.432 141.186L168.053 141.242L168.062 141.255Z" fill="#FFD000"/>
<path opacity="0.2" d="M154.007 178.766C154.166 178.706 154.323 178.641 154.482 178.573C155.934 177.909 157.224 176.941 158.271 175.731C155.632 177.871 155.131 177.263 156.742 172.977C158.456 168.433 167.242 144.12 167.246 144.108C164.158 151.648 155.619 172.619 154.007 178.766Z" fill="white"/>
<path d="M167.02 149.269C166.982 149.156 166.974 149.036 166.996 148.921C167.018 148.806 167.069 148.7 167.146 148.614C167.347 148.359 167.607 148.159 167.904 148.03C168.201 147.9 168.526 147.844 168.853 147.867C168.971 147.87 169.087 147.904 169.19 147.967C169.293 148.03 169.378 148.118 169.438 148.224L169.662 148.718C169.702 148.832 169.711 148.953 169.69 149.07C169.668 149.186 169.616 149.294 169.539 149.381C169.337 149.635 169.078 149.835 168.781 149.965C168.484 150.095 168.159 150.15 167.831 150.127C167.713 150.125 167.596 150.091 167.493 150.027C167.39 149.964 167.305 149.875 167.246 149.769C167.164 149.583 167.099 149.454 167.02 149.269Z" fill="#263238"/>
<path d="M169.32 148.895C169.117 149.146 168.857 149.344 168.56 149.472C168.264 149.599 167.939 149.653 167.613 149.628C167.015 149.551 166.808 149.097 167.152 148.609C167.354 148.355 167.613 148.155 167.91 148.025C168.207 147.895 168.532 147.84 168.859 147.863C169.452 147.941 169.658 148.398 169.32 148.895Z" fill="#37474F"/>
<path fill-rule="evenodd" clip-rule="evenodd" d="M67.0694 112.317C64.8916 120.683 63.6983 136.391 65.4949 164.339C66.061 173.144 66.0103 179.638 65.4156 184.199C65.1186 186.477 64.6724 188.386 64.0351 189.898C63.4054 191.393 62.4869 192.741 61.0994 193.527C59.6259 194.361 58.0496 194.327 56.6548 193.867C55.3261 193.428 54.068 192.583 52.9149 191.601C50.6019 189.63 48.1333 186.6 45.6558 183.144C41.9382 177.958 37.9186 171.404 34.0837 165.15C32.793 163.046 31.5232 160.975 30.2929 159.002C27.8248 155.045 25.5155 151.478 23.4683 148.713C22.4452 147.331 21.5161 146.188 20.6912 145.314C19.8413 144.412 18.2128 141.942 17.808 141.722C17.0627 141.319 16.542 143.261 16.0684 144C15.0314 145.618 14.6478 149.036 14.1302 153.114C13.1145 161.119 13.4974 171.823 14.4808 179.69L9.51939 180.31C8.50274 172.177 8.08566 161.031 9.16997 152.485C9.70242 148.289 10.6386 144.336 12.3142 141.722C13.1747 140.38 11.817 141.529 13.5001 141C16.308 141.5 17.0001 141 19.5001 141C20.5952 141.593 23.3425 140.837 24.3288 141.883C25.34 142.955 26.3997 144.269 27.4869 145.738C29.6605 148.674 32.0582 152.384 34.5354 156.357C35.8175 158.412 37.1212 160.538 38.4327 162.677C42.2414 168.887 46.1164 175.205 49.7194 180.231C52.1481 183.618 53.5001 186 55.0001 188.5C56.843 191.601 57.5414 193.715 58.0001 193.867C58.4849 194.027 58.609 189.9 59.4272 187.957C59.8234 187.017 60.1911 185.596 60.4576 183.553C60.9898 179.471 61.0642 173.355 60.5052 164.66C58.7019 136.608 59.8419 120.233 62.2307 111.057C63.3991 106.961 63.0655 103.743 70.3887 103.083L71.5001 102.5C71.5001 102.5 69.7022 103.465 69.5001 103.5C69.0402 103.758 68.2388 103.772 68.0001 104C67.0649 104.851 68.1665 108.103 67.0694 112.317Z" fill="#FFD000"/>
<path fill-rule="evenodd" clip-rule="evenodd" d="M67.4969 103.677C67.3026 103.755 67.0942 103.839 66.8713 103.929C66.8503 103.937 66.8042 103.96 66.7347 104.017L65.9999 103.5C66.1948 103.34 66.4867 103.028 66.7347 102.928C67.4999 102.5 67.1099 102.801 67.4999 102.5L67.5252 103.666L67.4969 103.677ZM65.8925 105.235C65.772 105.474 65.6508 105.741 65.5295 106.034L63.9999 105.5C64.137 105.169 64.5031 104.969 64.6493 104.679L65.8925 105.235ZM64.9145 107.745C64.825 108.029 64.7365 108.324 64.6493 108.629L62.7261 108.08C62.818 107.758 62.9119 107.445 63.0076 107.142L64.9145 107.745ZM64.1792 110.43C64.1078 110.728 64.0377 111.032 63.9689 111.342L62.0165 110.909C62.0875 110.588 62.1602 110.273 62.2343 109.964L64.1792 110.43ZM63.589 113.18C63.5304 113.485 63.473 113.793 63.417 114.105L61.4486 113.751C61.506 113.431 61.5649 113.115 61.6251 112.802L63.589 113.18ZM63.1047 115.961C63.0562 116.27 63.0091 116.58 62.9633 116.892L60.9845 116.601C61.0312 116.283 61.0794 115.966 61.1289 115.651L63.1047 115.961ZM62.7079 118.759C62.6683 119.071 62.6302 119.383 62.5935 119.695L60.6072 119.462C60.6445 119.144 60.6834 118.825 60.7238 118.507L62.7079 118.759ZM62.3913 121.569C62.3605 121.883 62.3312 122.196 62.3036 122.508L60.3114 122.331C60.3396 122.013 60.3694 121.694 60.4009 121.374L62.3913 121.569ZM62.1562 124.387C62.1347 124.703 62.1151 125.016 62.0975 125.327L60.1007 125.213C60.1188 124.895 60.1389 124.574 60.1609 124.251L62.1562 124.387ZM62.0133 127.205C62.0031 127.522 61.9953 127.835 61.9899 128.142L59.9902 128.107C59.9958 127.79 60.0038 127.468 60.0143 127.141L62.0133 127.205ZM61.9887 130.011C61.9915 130.167 61.9951 130.32 61.9995 130.471L62.0002 130.498L61.9996 130.524C61.9958 130.683 61.9916 130.847 61.987 131.016L59.9877 130.962C59.992 130.804 59.9959 130.651 59.9995 130.502C59.9953 130.353 59.9918 130.201 59.989 130.048L61.9887 130.011ZM61.928 132.986C61.9179 133.302 61.9074 133.629 61.8965 133.964L59.8976 133.9C59.9084 133.564 59.919 133.238 59.929 132.922L61.928 132.986ZM61.8335 135.93C61.8234 136.251 61.8133 136.577 61.8033 136.909L59.8042 136.849C59.8143 136.516 59.8244 136.189 59.8345 135.867L61.8335 135.93ZM61.7472 138.868C61.7385 139.192 61.7301 139.519 61.7219 139.848L59.7225 139.799C59.7307 139.468 59.7392 139.14 59.7479 138.815L61.7472 138.868ZM18.0999 141.3L17.7665 141.55L16.5665 139.95L16.8999 139.7L18.0999 141.3ZM16.2484 142.304L15.2332 140.95L14.6776 141.367L14.5732 141.624C14.5035 141.796 14.4356 141.967 14.3694 142.137L16.2336 142.862C16.2633 142.785 16.2934 142.709 16.3238 142.632L16.4332 142.55L16.3832 142.483C16.3976 142.448 16.412 142.412 16.4266 142.376L16.2484 142.304ZM19.1298 143.052C19.0154 142.936 18.8997 142.817 18.7824 142.697L20.2173 141.303C20.3314 141.421 20.4444 141.536 20.5561 141.65L19.1298 143.052ZM61.6785 141.808C61.6721 142.133 61.6662 142.459 61.6608 142.787L59.6611 142.754C59.6665 142.424 59.6725 142.096 59.6788 141.769L61.6785 141.808ZM21.211 145.136C20.9866 144.91 20.7577 144.682 20.5224 144.447L21.9331 143.03C22.1688 143.264 22.4014 143.496 22.6306 143.727L21.211 145.136ZM15.5401 144.828C15.4348 145.161 15.3358 145.493 15.2426 145.825L13.3167 145.286C13.4159 144.932 13.5213 144.578 13.6333 144.224L15.5401 144.828ZM61.6352 144.744C61.6321 145.07 61.6297 145.396 61.6279 145.722L59.6279 145.712C59.6297 145.383 59.6322 145.054 59.6353 144.725L61.6352 144.744ZM23.1659 147.23C22.9587 146.988 22.7499 146.753 22.5383 146.521L24.0151 145.172C24.2399 145.418 24.4633 145.67 24.6861 145.931L23.1659 147.23ZM14.7472 147.849C14.6758 148.187 14.6091 148.529 14.5467 148.875L12.5785 148.519C12.6443 148.155 12.7148 147.794 12.7904 147.436L14.7472 147.849ZM24.8795 149.479C24.6972 149.21 24.5164 148.953 24.3362 148.707L25.9497 147.526C26.1443 147.791 26.3392 148.068 26.535 148.356L24.8795 149.479ZM61.6261 147.678C61.6273 148.004 61.6294 148.33 61.6324 148.654L59.6325 148.673C59.6295 148.345 59.6274 148.015 59.6261 147.685L61.6261 147.678ZM26.1316 151.496C26.0513 151.356 25.9715 151.218 25.8922 151.084L27.6152 150.068C27.6952 150.204 27.7755 150.342 27.8562 150.483L28.1352 150.922L26.4479 151.995L26.1434 151.517L26.1316 151.496ZM61.6624 150.606C61.6696 150.934 61.6778 151.259 61.6873 151.581L59.6882 151.64C59.6785 151.312 59.6701 150.982 59.6629 150.65L61.6624 150.606ZM14.2272 150.949C14.1826 151.292 14.1409 151.641 14.1017 151.996L12.1137 151.777C12.1543 151.41 12.1975 151.048 12.2439 150.692L14.2272 150.949ZM28.1979 154.745L27.6145 153.829L29.3019 152.755L29.8852 153.672L28.1979 154.745ZM61.7612 153.526C61.7767 153.853 61.7938 154.176 61.8124 154.494L59.8158 154.611C59.7968 154.285 59.7793 153.955 59.7635 153.621L61.7612 153.526ZM13.9022 154.107C13.8742 154.453 13.8475 154.807 13.822 155.169L11.827 155.028C11.8529 154.66 11.8801 154.3 11.9087 153.946L13.9022 154.107ZM29.9479 157.495L29.3645 156.579L31.0519 155.505L31.6352 156.422L29.9479 157.495ZM61.9516 156.427C61.9656 156.588 61.9802 156.747 61.9953 156.904C62.0109 157.067 62.0265 157.233 62.0419 157.404L60.0502 157.585C60.035 157.418 60.0197 157.255 60.0045 157.096C59.9888 156.932 59.9737 156.768 59.9592 156.601L61.9516 156.427ZM13.6881 157.3C13.6684 157.648 13.6492 158.004 13.6302 158.367L11.6329 158.262C11.652 157.897 11.6714 157.539 11.6913 157.187L13.6881 157.3ZM31.6979 160.245L31.1145 159.329L32.8019 158.255L33.3852 159.172L31.6979 160.245ZM62.2099 159.432C62.2348 159.76 62.2594 160.098 62.2835 160.443L60.2883 160.583C60.2645 160.241 60.2402 159.907 60.2156 159.583L62.2099 159.432ZM13.5012 160.995L13.5242 160.508L11.5264 160.413L11.4985 161.005L11.5293 161.543L13.526 161.429L13.5012 160.995ZM33.1458 162.521L32.8645 162.079L34.5519 161.005L34.8539 161.479L35.1137 161.925L33.3861 162.933L33.1458 162.521ZM62.4143 162.465C62.4342 162.798 62.4536 163.135 62.4725 163.476L60.4756 163.587C60.4568 163.248 60.4376 162.914 60.4179 162.585L62.4143 162.465ZM13.6371 163.374L13.6927 164.346L11.6959 164.46L11.6404 163.488L13.6371 163.374ZM34.8861 165.504L34.3861 164.647L36.1137 163.639L36.6137 164.496L34.8861 165.504ZM62.576 165.5C62.5917 165.835 62.6069 166.172 62.6214 166.512L60.6233 166.597C60.6088 166.261 60.5938 165.926 60.5782 165.593L62.576 165.5ZM36.3861 168.075L35.8861 167.218L37.6137 166.21L38.1137 167.068L36.3861 168.075ZM13.8038 166.29L13.8594 167.262L11.8626 167.377L11.8071 166.404L13.8038 166.29ZM62.6998 168.536C62.7114 168.872 62.7224 169.21 62.7326 169.548L60.7335 169.608C60.7234 169.273 60.7125 168.938 60.701 168.605L62.6998 168.536ZM37.8861 170.647L37.3861 169.79L39.1137 168.782L39.6137 169.639L37.8861 170.647ZM13.9705 169.207L14.026 170.179L12.0293 170.293L11.9737 169.321L13.9705 169.207ZM39.3861 173.218L38.8861 172.361L40.6137 171.353L41.1137 172.21L39.3861 173.218ZM62.7849 171.573C62.7921 171.912 62.7984 172.25 62.8039 172.586L60.8041 172.619C60.7987 172.286 60.7924 171.951 60.7853 171.616L62.7849 171.573ZM14.1371 172.124L14.1927 173.096L12.1959 173.21L12.1404 172.238L14.1371 172.124ZM40.8861 175.79L40.3861 174.932L42.1137 173.925L42.6137 174.782L40.8861 175.79ZM62.826 174.614C62.8278 174.955 62.8286 175.294 62.8282 175.629L60.8282 175.627C60.8285 175.296 60.8278 174.961 60.826 174.624L62.826 174.614ZM14.3038 175.04L14.3594 176.012L12.3626 176.127L12.3071 175.154L14.3038 175.04ZM42.3861 178.361L41.8861 177.504L43.6137 176.496L44.1137 177.353L42.3861 178.361ZM62.8116 177.662C62.8061 178.007 62.7992 178.346 62.7908 178.68L60.7915 178.63C60.7997 178.303 60.8064 177.969 60.8118 177.63L62.8116 177.662ZM14.4705 177.957L14.4982 178.443L12.5015 178.557L12.4737 178.071L14.4705 177.957ZM43.3861 180.075L45.1137 179.068L45.3039 179.394L45.5413 179.641L44.0973 181.025L43.6958 180.606L43.3861 180.075ZM62.7171 180.72C62.7001 181.07 62.6809 181.412 62.6594 181.743L60.6636 181.614C60.6843 181.294 60.7029 180.963 60.7195 180.622L62.7171 180.72ZM46.014 183.025L45.3751 182.359L46.8191 180.975L47.458 181.641L46.014 183.025ZM47.9307 185.025L47.2918 184.359L48.7358 182.975L49.3746 183.641L47.9307 185.025ZM62.4798 183.799C62.437 184.169 62.3895 184.519 62.3367 184.845L60.3624 184.526C60.4095 184.235 60.453 183.915 60.493 183.569L62.4798 183.799ZM49.8473 187.025L49.2084 186.359L50.6524 184.975L51.2913 185.641L49.8473 187.025ZM61.0133 187.858C60.9146 187.917 60.8055 187.997 60.6866 188.1L59.377 186.588C59.5451 186.443 59.7248 186.305 59.9161 186.185C59.9219 186.176 59.9288 186.164 59.9366 186.149L59.9567 186.16C59.9666 186.154 59.9765 186.148 59.9865 186.142C59.9759 186.148 59.9663 186.155 59.9577 186.16L61.6984 187.096C61.5629 187.348 61.3506 187.656 61.0133 187.858ZM50.952 189.69L50.3131 189.023L52.5691 186.975L53.208 187.641L50.952 189.69ZM52.8687 191.69L52.2298 191.023L54.4858 188.975L55.1246 189.642L52.8687 191.69Z" fill="#3C474C"/>
<path d="M13.9347 141.119C11.1252 140.539 8.52508 140.781 8.55728 141.771C8.58948 142.761 9.06443 143.381 11.3828 143.84C13.7012 144.298 17.5331 144.645 17.6619 145.168C17.7907 145.691 16.9776 145.973 15.6171 145.723C14.2567 145.474 7.81668 144.709 7.29343 145.393C7.16372 145.565 7.07381 145.764 7.03018 145.975C6.98654 146.186 6.99027 146.404 7.04109 146.614C7.09191 146.823 7.18855 147.019 7.32406 147.186C7.45957 147.354 7.63057 147.489 7.82473 147.583L9.27373 148.299C9.27373 148.299 8.25138 149.418 8.90343 150.183C9.55548 150.948 11.246 150.908 11.246 150.908L19.8273 151.664C19.8273 151.664 20.254 152.236 19.9642 152.558C19.6744 152.88 13.0492 151.608 12.9123 152.34C12.7755 153.073 12.1476 153.339 14.0957 154.063C19.7611 155.545 24.2783 140.4 13.9347 141.119Z" fill="#FFBF9D"/>
</g>
<defs>
<clipPath id="clip0_682_25526">
<rect width="200" height="200" fill="white"/>
</clipPath>
</defs>
</svg>
