<svg width="200" height="200" viewBox="0 0 200 200" fill="none" xmlns="http://www.w3.org/2000/svg">
<path fill-rule="evenodd" clip-rule="evenodd" d="M96.6489 40.0786C72.5164 41.5624 60.8087 65.3973 46.0572 82.1754C34.101 95.7741 23.0389 109.409 20.7142 126.445C18.0291 146.122 16.4425 168.605 32.3369 182.721C48.2827 196.882 74.0361 195.809 96.6489 193.883C119.863 194.322 138.62 187.342 149.552 172.737C165.068 160.174 178.921 144.922 179.935 126.445C180.989 107.244 169.055 90.1752 154.888 75.4837C139.04 59.05 121.162 38.5713 96.6489 40.0786Z" fill="#FFF3CC"/>
<path d="M102.591 56H106.525V56.562H102.591V56Z" fill="#FFD000"/>
<path d="M110.156 56H129.282V56.562H110.156V56Z" fill="#FFD000"/>
<path opacity="0.5" d="M156.868 129.888H178.119C179.776 129.848 181.364 129.213 182.591 128.098C183.819 126.983 184.603 125.464 184.802 123.818L190.332 68.821C190.428 68.0529 190.358 67.2731 190.126 66.5345C189.894 65.7959 189.507 65.1157 188.989 64.5401C188.472 63.9644 187.836 63.5067 187.126 63.198C186.417 62.8894 185.649 62.7369 184.875 62.7509H163.624C161.961 62.7859 160.367 63.4216 159.136 64.5405C157.906 65.6594 157.122 67.1859 156.93 68.8379L151.393 123.834C151.3 124.603 151.372 125.382 151.606 126.12C151.84 126.858 152.23 127.536 152.749 128.11C153.268 128.684 153.904 129.14 154.615 129.447C155.326 129.753 156.094 129.904 156.868 129.888Z" fill="white"/>
<path d="M119.716 132.135H142.136C143.886 132.094 145.562 131.424 146.857 130.247C148.151 129.07 148.978 127.465 149.185 125.727L155.103 66.937C155.207 66.1248 155.135 65.2996 154.892 64.5178C154.649 63.7359 154.24 63.0156 153.693 62.4059C153.147 61.7963 152.475 61.3116 151.724 60.9849C150.973 60.6582 150.161 60.4972 149.342 60.5127H126.922C125.17 60.5527 123.491 61.225 122.195 62.4057C120.9 63.5865 120.075 65.1959 119.874 66.937L113.955 125.772C113.862 126.58 113.941 127.397 114.189 128.171C114.437 128.945 114.848 129.657 115.393 130.26C115.939 130.862 116.607 131.341 117.352 131.664C118.098 131.988 118.904 132.148 119.716 132.135Z" fill="white"/>
<path opacity="0.5" d="M84.1834 129.888H105.434C107.092 129.849 108.679 129.214 109.906 128.099C111.133 126.984 111.916 125.464 112.112 123.818L117.648 68.821C117.744 68.0529 117.674 67.2731 117.442 66.5345C117.21 65.7959 116.822 65.1157 116.305 64.5401C115.787 63.9644 115.152 63.5067 114.442 63.198C113.732 62.8894 112.964 62.7369 112.19 62.7509H90.9392C89.2816 62.7904 87.6938 63.4257 86.4665 64.5405C85.2392 65.6552 84.4546 67.1749 84.2564 68.821L78.7259 123.818C78.6299 124.586 78.7001 125.365 78.9318 126.104C79.1636 126.843 79.5513 127.523 80.0689 128.098C80.5864 128.674 81.2217 129.132 81.9316 129.44C82.6414 129.749 83.4094 129.902 84.1834 129.888Z" fill="white"/>
<path opacity="0.3" d="M47.8413 129.888H69.0924C70.7493 129.848 72.3365 129.212 73.5628 128.098C74.7892 126.983 75.5727 125.463 75.7696 123.817L81.3058 68.8209C81.3999 68.0526 81.3282 67.2731 81.0954 66.5349C80.8627 65.7967 80.4743 65.1171 79.9565 64.5417C79.4387 63.9664 78.8036 63.5088 78.0939 63.1999C77.3842 62.8909 76.6165 62.7378 75.8426 62.7508H54.5972C52.9331 62.7854 51.3378 63.4207 50.1054 64.5394C48.8731 65.6582 48.0869 67.1848 47.8919 68.8377L42.3614 123.834C42.2677 124.603 42.3404 125.383 42.5747 126.121C42.8089 126.859 43.1991 127.538 43.7188 128.113C44.2385 128.687 44.8757 129.142 45.587 129.449C46.2983 129.755 47.0671 129.905 47.8413 129.888Z" fill="#707070"/>
<path opacity="0.3" d="M11.4993 129.888H32.7504C34.4073 129.848 35.9944 129.212 37.2208 128.098C38.4472 126.983 39.2306 125.463 39.4275 123.817L44.9637 68.8209C45.0579 68.0526 44.9861 67.2731 44.7534 66.5349C44.5206 65.7967 44.1323 65.1171 43.6145 64.5417C43.0967 63.9664 42.4615 63.5088 41.7518 63.1999C41.0422 62.8909 40.2745 62.7378 39.5006 62.7508H18.2551C16.5976 62.7902 15.0097 63.4255 13.7824 64.5403C12.5551 65.6551 11.7705 67.1748 11.5724 68.8209L6.04181 123.817C5.94583 124.586 6.01606 125.365 6.24778 126.104C6.4795 126.843 6.86728 127.523 7.38483 128.098C7.90238 128.674 8.53762 129.132 9.24751 129.44C9.95739 129.749 10.7253 129.902 11.4993 129.888Z" fill="#707070"/>
<path d="M93.2942 80.7748C93.3982 79.9317 93.8027 79.1545 94.4335 78.5856C95.0643 78.0168 95.8791 77.6945 96.7283 77.6779C97.1142 77.6776 97.4963 77.754 97.8524 77.9027C98.2216 77.2696 98.7474 76.7422 99.3794 76.3711C100.011 76 100.728 75.7978 101.461 75.7838C102.29 75.7687 103.095 76.0632 103.719 76.6099C104.342 77.1566 104.74 77.9161 104.833 78.7401C105.229 78.7594 105.617 78.8604 105.972 79.0369C106.327 79.2134 106.642 79.4615 106.896 79.7657C107.151 80.0698 107.34 80.4233 107.451 80.804C107.562 81.1847 107.593 81.5843 107.542 81.9775C107.439 82.8594 107.02 83.6743 106.363 84.2714C105.706 84.8686 104.855 85.2077 103.968 85.2262H93.6371C93.3431 85.2316 93.0514 85.1739 92.7817 85.0568C92.5121 84.9397 92.2707 84.766 92.074 84.5474C91.8774 84.3289 91.7299 84.0706 91.6418 83.7902C91.5536 83.5097 91.5268 83.2135 91.5631 82.9218C91.6228 82.4381 91.8165 81.9807 92.1224 81.6013C92.4283 81.2219 92.8342 80.9356 93.2942 80.7748Z" fill="white"/>
<path d="M129.103 75.2999C129.225 74.3167 129.698 73.4104 130.433 72.7469C131.169 72.0833 132.119 71.7067 133.11 71.686C133.569 71.6845 134.024 71.7743 134.448 71.9501C134.879 71.2119 135.492 70.5967 136.229 70.1637C136.967 69.7307 137.803 69.4942 138.657 69.4771C139.625 69.461 140.563 69.8055 141.29 70.4434C142.018 71.0813 142.482 71.967 142.592 72.9281C143.054 72.9531 143.505 73.0728 143.919 73.2799C144.333 73.4869 144.699 73.7769 144.996 74.1316C145.293 74.4864 145.513 74.8985 145.644 75.3421C145.775 75.7858 145.813 76.2516 145.756 76.7107C145.637 77.7412 145.148 78.6935 144.38 79.391C143.612 80.0886 142.617 80.4842 141.58 80.5045H129.513C129.17 80.5111 128.83 80.4439 128.515 80.3075C128.2 80.1712 127.918 79.9687 127.689 79.714C127.459 79.4592 127.287 79.1581 127.183 78.831C127.08 78.5038 127.048 78.1584 127.09 77.8179C127.16 77.2531 127.385 76.7187 127.74 76.2741C128.095 75.8295 128.567 75.4923 129.103 75.2999Z" fill="#FFD000"/>
<path d="M139.759 86.3559C139.883 86.3557 140.003 86.3097 140.096 86.2266C140.145 86.1828 140.185 86.1297 140.214 86.0703C140.243 86.0109 140.259 85.9465 140.263 85.8807C140.267 85.8149 140.257 85.749 140.235 85.6868C140.213 85.6247 140.179 85.5674 140.135 85.5184L136.999 82.0337C136.908 81.9437 136.787 81.8919 136.659 81.8888C136.531 81.8858 136.407 81.9318 136.312 82.0174C136.217 82.103 136.158 82.2216 136.148 82.3491C136.138 82.4765 136.177 82.603 136.257 82.7025L139.388 86.1873C139.434 86.2401 139.491 86.2825 139.555 86.3115C139.619 86.3406 139.689 86.3557 139.759 86.3559Z" fill="#FFD000"/>
<path d="M136.207 86.3559C136.331 86.3557 136.451 86.3097 136.544 86.2266C136.593 86.1828 136.633 86.1297 136.662 86.0703C136.691 86.0109 136.707 85.9465 136.711 85.8807C136.715 85.8149 136.705 85.749 136.683 85.6868C136.661 85.6247 136.627 85.5674 136.583 85.5184L133.447 82.0337C133.356 81.9437 133.235 81.8919 133.107 81.8888C132.979 81.8858 132.855 81.9318 132.76 82.0174C132.665 82.103 132.606 82.2216 132.596 82.3491C132.586 82.4765 132.625 82.603 132.705 82.7025L135.836 86.1873C135.882 86.2401 135.939 86.2825 136.003 86.3115C136.067 86.3406 136.137 86.3557 136.207 86.3559Z" fill="#FFD000"/>
<path d="M143.311 86.3559C143.436 86.3557 143.556 86.3097 143.648 86.2266C143.697 86.1828 143.738 86.1297 143.766 86.0703C143.795 86.0109 143.811 85.9465 143.815 85.8807C143.819 85.8149 143.809 85.749 143.788 85.6868C143.766 85.6247 143.732 85.5674 143.688 85.5184L140.551 82.0337C140.461 81.9437 140.339 81.8919 140.211 81.8888C140.083 81.8858 139.959 81.9318 139.864 82.0174C139.769 82.103 139.711 82.2216 139.701 82.3491C139.69 82.4765 139.729 82.603 139.809 82.7025L142.94 86.1873C142.986 86.2401 143.043 86.2825 143.107 86.3115C143.171 86.3406 143.241 86.3557 143.311 86.3559Z" fill="#FFD000"/>
<g opacity="0.4">
<path d="M21.7286 78.431C21.8201 77.7047 22.1695 77.0356 22.7132 76.5455C23.257 76.0554 23.9587 75.7771 24.6905 75.7613C25.0297 75.7589 25.3659 75.8238 25.6798 75.9524C25.9981 75.4073 26.4511 74.9531 26.9953 74.6332C27.5395 74.3134 28.1568 74.1386 28.7879 74.1257C29.5055 74.1099 30.2032 74.3628 30.7439 74.8349C31.2846 75.307 31.6294 75.9642 31.7105 76.6774C32.0537 76.6946 32.3895 76.7827 32.6968 76.9363C33.0042 77.0899 33.2763 77.3056 33.496 77.5697C33.7157 77.8338 33.8783 78.1406 33.9734 78.4707C34.0686 78.8008 34.0942 79.1471 34.0487 79.4876C33.9606 80.2498 33.5996 80.9543 33.0323 81.4709C32.4651 81.9875 31.73 82.2812 30.963 82.2979H22.0377C21.7846 82.3032 21.5333 82.2538 21.301 82.1532C21.0688 82.0525 20.861 81.9028 20.6918 81.7145C20.5227 81.5261 20.3962 81.3035 20.3209 81.0618C20.2457 80.82 20.2236 80.5649 20.256 80.3139C20.2995 79.8933 20.4608 79.4936 20.7213 79.1605C20.9818 78.8275 21.3309 78.5746 21.7286 78.431Z" fill="white"/>
<path d="M29.6028 86.6089C29.6945 86.6103 29.7832 86.5761 29.8502 86.5134C29.923 86.4477 29.9669 86.3558 29.9721 86.2578C29.9774 86.1599 29.9436 86.0638 29.8783 85.9907L27.6301 83.5177C27.5976 83.4808 27.5582 83.4506 27.514 83.4289C27.4699 83.4073 27.4219 83.3945 27.3729 83.3914C27.3238 83.3883 27.2746 83.3948 27.2281 83.4107C27.1816 83.4266 27.1386 83.4515 27.1017 83.4839C27.0648 83.5164 27.0347 83.5558 27.013 83.6C26.9913 83.6441 26.9786 83.6921 26.9754 83.7411C26.9723 83.7902 26.9789 83.8394 26.9948 83.8859C27.0106 83.9324 27.0355 83.9754 27.068 84.0123L29.3162 86.4853C29.3516 86.5261 29.3958 86.5584 29.4454 86.5798C29.495 86.6012 29.5488 86.6112 29.6028 86.6089Z" fill="white"/>
<path d="M26.9781 86.6089C27.0236 86.6102 27.0689 86.6024 27.1114 86.586C27.1538 86.5696 27.1926 86.5449 27.2254 86.5134C27.2602 86.4794 27.2879 86.4387 27.3068 86.3938C27.3257 86.3489 27.3354 86.3007 27.3354 86.252C27.3354 86.2033 27.3257 86.1551 27.3068 86.1102C27.2879 86.0654 27.2602 86.0247 27.2254 85.9907L24.9772 83.5177C24.9447 83.4808 24.9053 83.4506 24.8612 83.4289C24.817 83.4073 24.7691 83.3945 24.72 83.3914C24.671 83.3883 24.6218 83.3948 24.5752 83.4107C24.5287 83.4266 24.4858 83.4515 24.4489 83.4839C24.412 83.5164 24.3818 83.5558 24.3601 83.6C24.3385 83.6441 24.3257 83.6921 24.3226 83.7411C24.3195 83.7902 24.326 83.8394 24.3419 83.8859C24.3578 83.9324 24.3827 83.9754 24.4152 84.0123L26.6634 86.4853C26.7017 86.5301 26.7504 86.5648 26.8053 86.5864C26.8602 86.608 26.9195 86.6157 26.9781 86.6089Z" fill="white"/>
<path d="M32.2276 86.6083C32.3192 86.6091 32.4076 86.5749 32.4749 86.5128C32.5478 86.4471 32.5916 86.3552 32.5969 86.2572C32.6021 86.1592 32.5684 86.0632 32.503 85.99L30.2548 83.517C30.1891 83.4442 30.0972 83.4003 29.9993 83.3951C29.9013 83.3898 29.8052 83.4235 29.7321 83.4889C29.6954 83.521 29.6655 83.5602 29.6441 83.6041C29.6227 83.6479 29.6104 83.6956 29.6078 83.7444C29.6051 83.7931 29.6123 83.8418 29.6288 83.8877C29.6454 83.9336 29.6709 83.9758 29.704 84.0116L31.9522 86.4847C31.9864 86.524 32.0287 86.5554 32.0763 86.5768C32.1239 86.5981 32.1755 86.6089 32.2276 86.6083Z" fill="white"/>
</g>
<g opacity="0.7">
<path d="M60.5269 81.1512C60.4808 81.5116 60.5129 81.8777 60.621 82.2245C60.7291 82.5714 60.9107 82.8909 61.1533 83.1613C61.396 83.4317 61.6941 83.6467 62.0273 83.7915C62.3605 83.9364 62.721 84.0078 63.0842 84.0008C63.8623 83.9842 64.608 83.6865 65.1835 83.1626C65.759 82.6388 66.1254 81.9243 66.2149 81.1512C66.261 80.7911 66.229 80.4252 66.1208 80.0786C66.0127 79.732 65.831 79.4128 65.5883 79.1429C65.3455 78.8729 65.0473 78.6585 64.7141 78.5143C64.3809 78.37 64.0205 78.2994 63.6575 78.3072C62.8803 78.3236 62.1353 78.6206 61.5599 79.1433C60.9845 79.666 60.6176 80.3791 60.5269 81.1512Z" fill="white"/>
<path d="M62.8144 86.9174C62.8748 86.9177 62.9331 86.8953 62.9778 86.8547C63.0226 86.8142 63.0505 86.7583 63.0561 86.6982L63.191 85.3999C63.1973 85.3351 63.1778 85.2705 63.1368 85.22C63.0957 85.1695 63.0364 85.1372 62.9718 85.1301C62.907 85.1238 62.8424 85.1432 62.7919 85.1843C62.7414 85.2253 62.7091 85.2846 62.702 85.3493L62.5727 86.6476C62.5696 86.6794 62.5729 86.7114 62.5822 86.7419C62.5916 86.7724 62.6069 86.8008 62.6273 86.8254C62.6477 86.8499 62.6727 86.8702 62.7009 86.885C62.7292 86.8999 62.7601 86.9089 62.7919 86.9118L62.8144 86.9174Z" fill="white"/>
<path d="M63.798 77.1771C63.8589 77.176 63.9173 77.1524 63.9619 77.1109C64.0065 77.0694 64.0342 77.013 64.0397 76.9523L64.169 75.6596C64.1753 75.5948 64.1558 75.5302 64.1148 75.4797C64.0738 75.4292 64.0145 75.3969 63.9498 75.3898C63.918 75.3867 63.886 75.3899 63.8555 75.3993C63.825 75.4087 63.7966 75.424 63.772 75.4444C63.7475 75.4647 63.7272 75.4898 63.7124 75.518C63.6976 75.5463 63.6885 75.5772 63.6856 75.609L63.5507 76.9073C63.5477 76.9391 63.5509 76.9712 63.5602 77.0017C63.5696 77.0322 63.5849 77.0605 63.6053 77.0851C63.6257 77.1097 63.6507 77.1299 63.679 77.1448C63.7073 77.1596 63.7382 77.1687 63.77 77.1715L63.798 77.1771Z" fill="white"/>
<path d="M67.5638 81.3972H68.8621C68.9267 81.3957 68.9882 81.369 69.0333 81.3228C69.0785 81.2766 69.1038 81.2145 69.1038 81.1499C69.1038 81.0858 69.0783 81.0243 69.033 80.979C68.9876 80.9337 68.9262 80.9082 68.8621 80.9082H67.5638C67.4997 80.9082 67.4382 80.9337 67.3929 80.979C67.3475 81.0243 67.3221 81.0858 67.3221 81.1499C67.3221 81.2145 67.3473 81.2766 67.3925 81.3228C67.4377 81.369 67.4991 81.3957 67.5638 81.3972Z" fill="white"/>
<path d="M57.8516 81.3972H59.1331C59.1977 81.3957 59.2592 81.369 59.3043 81.3228C59.3495 81.2766 59.3748 81.2145 59.3748 81.1499C59.3748 81.0858 59.3493 81.0243 59.304 80.979C59.2586 80.9337 59.1972 80.9082 59.1331 80.9082H57.8347C57.7706 80.9082 57.7092 80.9337 57.6639 80.979C57.6185 81.0243 57.5931 81.0858 57.5931 81.1499C57.593 81.1833 57.5998 81.2164 57.6129 81.2472C57.626 81.278 57.6453 81.3057 57.6694 81.3288C57.6936 81.352 57.7222 81.3699 57.7535 81.3817C57.7848 81.3934 57.8182 81.3987 57.8516 81.3972Z" fill="white"/>
<path d="M59.0767 85.2986C59.1366 85.2975 59.1942 85.2757 59.2397 85.2368L60.2514 84.3207C60.2947 84.2755 60.3192 84.2155 60.32 84.1529C60.3209 84.0903 60.2979 84.0298 60.2559 83.9834C60.2138 83.9371 60.1557 83.9084 60.0934 83.9032C60.031 83.898 59.969 83.9166 59.9198 83.9553L58.9137 84.8715C58.8677 84.9178 58.8419 84.9804 58.8419 85.0457C58.8419 85.111 58.8677 85.1736 58.9137 85.2199C58.9558 85.2663 59.0142 85.2945 59.0767 85.2986Z" fill="white"/>
<path d="M66.6589 78.414C66.7197 78.4123 66.7777 78.3883 66.8219 78.3465L67.828 77.4304C67.8516 77.409 67.8708 77.3831 67.8844 77.3543C67.898 77.3255 67.9059 77.2943 67.9074 77.2625C67.909 77.2306 67.9043 77.1988 67.8935 77.1688C67.8828 77.1388 67.8663 77.1112 67.8449 77.0875C67.8234 77.0639 67.7976 77.0447 67.7688 77.0311C67.74 77.0175 67.7087 77.0097 67.6769 77.0081C67.6451 77.0065 67.6133 77.0113 67.5832 77.022C67.5532 77.0327 67.5256 77.0493 67.502 77.0707L66.4903 77.9868C66.4544 78.0207 66.4294 78.0647 66.4187 78.1129C66.4079 78.1611 66.4119 78.2115 66.43 78.2575C66.4482 78.3035 66.4797 78.3429 66.5205 78.3708C66.5613 78.3987 66.6095 78.4138 66.6589 78.414Z" fill="white"/>
<path d="M66.878 85.2984C66.938 85.2982 66.996 85.2763 67.041 85.2366C67.0636 85.2141 67.0815 85.1874 67.0938 85.158C67.106 85.1285 67.1123 85.097 67.1123 85.0651C67.1123 85.0333 67.106 85.0017 67.0938 84.9723C67.0815 84.9429 67.0636 84.9162 67.041 84.8937L66.2148 83.9776C66.1923 83.955 66.1656 83.937 66.1362 83.9248C66.1068 83.9125 66.0752 83.9063 66.0434 83.9062C66.0115 83.9063 65.9799 83.9125 65.9505 83.9248C65.9211 83.937 65.8944 83.955 65.8719 83.9776C65.8259 84.0239 65.8001 84.0865 65.8001 84.1518C65.8001 84.2171 65.8259 84.2797 65.8719 84.326L66.6981 85.2422C66.7486 85.2834 66.813 85.3035 66.878 85.2984Z" fill="white"/>
<path d="M60.6844 78.4139C60.7147 78.4143 60.7448 78.4085 60.7728 78.3969C60.8008 78.3853 60.8262 78.3681 60.8474 78.3465C60.87 78.324 60.8879 78.2973 60.9002 78.2679C60.9124 78.2385 60.9187 78.2069 60.9187 78.1751C60.9187 78.1432 60.9124 78.1116 60.9002 78.0822C60.8879 78.0528 60.87 78.0261 60.8474 78.0036L60.0212 77.0875C59.9757 77.0491 59.9178 77.0285 59.8583 77.0293C59.7988 77.0302 59.7416 77.0524 59.6972 77.0921C59.6527 77.1317 59.6241 77.186 59.6165 77.2451C59.6089 77.3041 59.6229 77.3639 59.6558 77.4135L60.4821 78.3296C60.5064 78.359 60.5376 78.382 60.5728 78.3967C60.6081 78.4114 60.6464 78.4173 60.6844 78.4139Z" fill="white"/>
</g>
<path d="M166.883 80.4265C166.972 79.7092 167.317 79.048 167.854 78.5639C168.39 78.0798 169.083 77.8053 169.806 77.7905C170.14 77.7905 170.471 77.8574 170.778 77.9872C171.092 77.4483 171.539 76.9992 172.077 76.6832C172.614 76.3672 173.224 76.195 173.847 76.183C174.556 76.1606 175.247 76.4072 175.782 76.8731C176.317 77.3391 176.656 77.9901 176.731 78.6954C177.068 78.7129 177.398 78.7997 177.7 78.9505C178.002 79.1013 178.27 79.3128 178.487 79.5717C178.704 79.8307 178.865 80.1317 178.96 80.4557C179.055 80.7797 179.083 81.12 179.041 81.4551C178.952 82.2062 178.595 82.9001 178.035 83.4084C177.475 83.9167 176.75 84.2051 175.994 84.2203H167.198C166.948 84.2256 166.699 84.1768 166.47 84.0773C166.24 83.9778 166.034 83.8299 165.867 83.6437C165.699 83.4576 165.574 83.2375 165.499 82.9985C165.424 82.7595 165.402 82.5072 165.433 82.2588C165.484 81.8498 165.646 81.4626 165.902 81.1395C166.157 80.8163 166.497 80.5697 166.883 80.4265Z" fill="white"/>
<path d="M175.646 75.7105C176.087 75.9281 176.477 76.2363 176.791 76.615C177.105 76.9937 177.335 77.4343 177.467 77.9081C178.061 78.0455 178.601 78.3566 179.018 78.8017C179.552 78.3653 179.894 77.7384 179.974 77.0538C180.013 76.7469 179.985 76.4353 179.892 76.1401C179.8 75.8449 179.645 75.5731 179.438 75.3433C179.231 75.1134 178.977 74.9308 178.693 74.8079C178.409 74.6851 178.102 74.6248 177.793 74.6313C177.376 74.6339 176.966 74.7327 176.593 74.9198C176.221 75.107 175.897 75.3776 175.646 75.7105Z" fill="white"/>
<path d="M177.894 73.6822C177.945 73.6825 177.995 73.6637 178.034 73.6294C178.072 73.5952 178.096 73.5479 178.102 73.4967L178.209 72.3726C178.212 72.3456 178.209 72.3182 178.202 72.2921C178.194 72.266 178.181 72.2418 178.164 72.2208C178.146 72.1998 178.125 72.1825 178.101 72.17C178.077 72.1574 178.05 72.1499 178.023 72.1478C177.996 72.1447 177.969 72.1471 177.943 72.1548C177.917 72.1625 177.892 72.1754 177.871 72.1927C177.85 72.2101 177.833 72.2314 177.821 72.2556C177.808 72.2797 177.8 72.3062 177.798 72.3333L177.686 73.4574C177.683 73.4847 177.685 73.5124 177.693 73.5388C177.7 73.5653 177.713 73.5899 177.731 73.6113C177.748 73.6328 177.769 73.6506 177.793 73.6637C177.817 73.6768 177.844 73.685 177.871 73.6878L177.894 73.6822Z" fill="white"/>
<path d="M181.098 77.2558H182.222C182.249 77.2558 182.276 77.2505 182.301 77.24C182.326 77.2296 182.349 77.2142 182.369 77.1949C182.388 77.1756 182.403 77.1527 182.414 77.1275C182.424 77.1022 182.43 77.0752 182.43 77.0479C182.43 77.0204 182.426 76.993 182.415 76.9674C182.405 76.9418 182.39 76.9186 182.37 76.8991C182.351 76.8796 182.328 76.8644 182.302 76.8542C182.277 76.844 182.249 76.8391 182.222 76.8399H181.098C181.042 76.8399 180.99 76.8618 180.951 76.9008C180.912 76.9398 180.89 76.9927 180.89 77.0479C180.891 77.1026 180.913 77.1547 180.952 77.1934C180.991 77.2321 181.043 77.2544 181.098 77.2558Z" fill="white"/>
<path d="M180.328 74.7109C180.379 74.7115 180.429 74.6935 180.468 74.6603L181.328 73.8791C181.369 73.8418 181.394 73.7898 181.396 73.7344C181.399 73.6791 181.379 73.625 181.342 73.584C181.305 73.543 181.253 73.5185 181.198 73.5159C181.142 73.5132 181.088 73.5327 181.047 73.57L180.187 74.3512C180.149 74.3901 180.127 74.4426 180.127 74.4973C180.127 74.552 180.149 74.6045 180.187 74.6435C180.205 74.6634 180.227 74.6797 180.251 74.6913C180.275 74.7028 180.301 74.7095 180.328 74.7109Z" fill="white"/>
<path d="M180.536 80.5787C180.562 80.5791 180.587 80.5743 180.611 80.5647C180.636 80.555 180.658 80.5407 180.676 80.5225C180.715 80.4836 180.736 80.4311 180.736 80.3764C180.736 80.3217 180.715 80.2692 180.676 80.2302L179.974 79.449C179.933 79.4115 179.88 79.3906 179.825 79.3906C179.769 79.3906 179.716 79.4115 179.676 79.449C179.637 79.4889 179.615 79.5423 179.615 79.5979C179.615 79.6536 179.637 79.707 179.676 79.7469L180.378 80.5281C180.399 80.5472 180.424 80.5615 180.451 80.5702C180.479 80.5789 180.507 80.5818 180.536 80.5787Z" fill="white"/>
<path d="M175.247 74.7114C175.287 74.7127 175.327 74.7019 175.361 74.6805C175.395 74.659 175.422 74.6279 175.438 74.5911C175.454 74.5543 175.459 74.5134 175.452 74.4738C175.445 74.4342 175.426 74.3975 175.398 74.3686L174.696 73.5873C174.657 73.5489 174.604 73.5273 174.55 73.5273C174.495 73.5273 174.443 73.5489 174.404 73.5873C174.367 73.6269 174.346 73.6792 174.346 73.7335C174.346 73.7878 174.367 73.84 174.404 73.8796L175.106 74.6609C175.146 74.6936 175.195 74.7115 175.247 74.7114Z" fill="white"/>
<path d="M157.75 118.483H179.535C179.825 118.476 180.103 118.365 180.317 118.17C180.532 117.975 180.669 117.709 180.704 117.421L180.923 115.235C180.94 115.1 180.927 114.965 180.886 114.836C180.845 114.707 180.777 114.589 180.686 114.489C180.596 114.389 180.485 114.309 180.361 114.255C180.237 114.202 180.103 114.175 179.968 114.178H158.183C157.895 114.185 157.618 114.296 157.405 114.49C157.191 114.684 157.054 114.948 157.019 115.235L156.8 117.421C156.783 117.555 156.795 117.691 156.836 117.82C156.876 117.949 156.943 118.068 157.033 118.168C157.123 118.269 157.234 118.349 157.358 118.404C157.481 118.458 157.615 118.485 157.75 118.483Z" fill="white"/>
<path d="M120.25 119.444H144.16C144.477 119.437 144.782 119.315 145.017 119.101C145.253 118.888 145.403 118.596 145.441 118.28L145.683 115.88C145.701 115.733 145.688 115.584 145.644 115.442C145.599 115.301 145.525 115.17 145.426 115.06C145.327 114.949 145.205 114.862 145.069 114.803C144.933 114.743 144.786 114.714 144.637 114.717H120.722C120.404 114.724 120.1 114.846 119.864 115.06C119.629 115.273 119.479 115.565 119.441 115.88L119.199 118.28C119.181 118.428 119.195 118.577 119.24 118.719C119.285 118.861 119.36 118.991 119.46 119.101C119.559 119.211 119.682 119.299 119.818 119.358C119.954 119.417 120.102 119.446 120.25 119.444Z" fill="#FFD000"/>
<path d="M85.0658 118.483H106.851C107.14 118.476 107.417 118.364 107.631 118.169C107.844 117.974 107.981 117.708 108.014 117.421L108.233 115.235C108.25 115.101 108.238 114.965 108.198 114.836C108.158 114.708 108.091 114.589 108 114.489C107.91 114.389 107.8 114.309 107.676 114.255C107.552 114.202 107.418 114.175 107.284 114.178H85.4986C85.2098 114.184 84.933 114.294 84.7192 114.489C84.5054 114.683 84.369 114.948 84.3352 115.235L84.1103 117.421C84.0943 117.555 84.1072 117.691 84.148 117.82C84.1889 117.949 84.2568 118.068 84.3473 118.169C84.4378 118.269 84.5487 118.349 84.6726 118.404C84.7965 118.458 84.9306 118.485 85.0658 118.483Z" fill="white"/>
<path opacity="0.7" d="M48.7238 118.483H70.5088C70.7981 118.476 71.075 118.364 71.2886 118.169C71.5023 117.974 71.6385 117.708 71.6722 117.421L71.8915 115.235C71.9084 115.101 71.8964 114.965 71.8562 114.836C71.8159 114.708 71.7485 114.589 71.6583 114.489C71.5682 114.389 71.4575 114.309 71.3338 114.255C71.2102 114.202 71.0764 114.175 70.9416 114.178H49.1566C48.8678 114.184 48.591 114.294 48.3772 114.489C48.1634 114.683 48.0269 114.948 47.9931 115.235L47.7683 117.421C47.7523 117.555 47.7651 117.691 47.806 117.82C47.8469 117.949 47.9148 118.068 48.0053 118.169C48.0957 118.269 48.2066 118.349 48.3305 118.404C48.4544 118.458 48.5885 118.485 48.7238 118.483Z" fill="white"/>
<path opacity="0.4" d="M12.3817 118.483H34.1611C34.4514 118.477 34.7296 118.366 34.9445 118.171C35.1594 117.976 35.2964 117.709 35.3302 117.421L35.5494 115.235C35.5664 115.101 35.5544 114.965 35.5141 114.836C35.4739 114.708 35.4064 114.589 35.3163 114.489C35.2262 114.389 35.1155 114.309 34.9918 114.255C34.8681 114.202 34.7343 114.175 34.5995 114.178H12.8145C12.5255 114.185 12.2486 114.296 12.0341 114.489C11.8196 114.683 11.6817 114.948 11.6455 115.235L11.4263 117.421C11.4102 117.555 11.4231 117.691 11.464 117.82C11.5048 117.949 11.5728 118.068 11.6632 118.169C11.7537 118.269 11.8646 118.349 11.9885 118.404C12.1124 118.458 12.2465 118.485 12.3817 118.483Z" fill="white"/>
<path d="M107.94 44.8647L107.07 44.8164C102.876 44.5763 98.7456 45.9237 95.4999 48.5907C92.2541 51.2577 90.1313 55.0488 89.5536 59.2099C88.4427 67.2599 89.7307 68.6774 89.5536 73.0002C89.1431 81.968 97.816 88.5002 97.816 88.5002L95.2933 94.952C95.1675 96.3825 95.3256 97.8237 95.7585 99.1929C96.1915 100.562 96.8907 101.832 97.816 102.93C98.7413 104.029 99.8745 104.933 101.151 105.592C102.426 106.251 103.82 106.651 105.251 106.769C108.103 106.998 110.93 106.096 113.123 104.259C115.316 102.422 116.698 99.796 116.972 96.9484L120.192 63.6937C121.496 54.4362 117.23 45.9515 107.94 44.8647Z" fill="#FFBF9D"/>
<path d="M98 88.5007C102.149 88.7417 106.371 87.6491 110 85.6777C110 85.6777 105.881 91.7827 97 90.5007L98 88.5007Z" fill="#FF9A6C"/>
<path d="M104.004 68.3284C103.975 68.7349 104.102 69.1368 104.357 69.447C104.613 69.7572 104.976 69.9508 105.368 69.9858C105.559 70.0133 105.753 70.0008 105.939 69.9492C106.125 69.8975 106.299 69.8078 106.451 69.6852C106.603 69.5627 106.729 69.4099 106.823 69.2358C106.917 69.0617 106.976 68.8698 106.997 68.6716C107.021 68.2663 106.892 67.8672 106.638 67.5581C106.384 67.249 106.023 67.054 105.633 67.0142C105.442 66.9867 105.248 66.9992 105.062 67.0509C104.876 67.1025 104.702 67.1922 104.55 67.3148C104.398 67.4373 104.272 67.5901 104.178 67.7642C104.084 67.9383 104.025 68.1302 104.004 68.3284Z" fill="#263238"/>
<path d="M91.212 63.701C91.3649 63.8781 92.3712 63.21 93.7477 63.2985C95.1243 63.3871 96.0984 64.1035 96.2513 63.9667C96.4043 63.8298 96.1869 63.5883 95.7683 63.2422C95.1958 62.793 94.4986 62.5316 93.7719 62.4935C93.0568 62.4539 92.3472 62.6397 91.7433 63.0248C91.3166 63.3227 91.1556 63.6125 91.212 63.701Z" fill="#263238"/>
<path d="M92.0028 68.3284C91.9789 68.7337 92.1076 69.1328 92.3621 69.4419C92.6165 69.751 92.9767 69.946 93.3671 69.9858C93.5579 70.0133 93.752 70.0008 93.938 69.9491C94.1241 69.8975 94.2982 69.8078 94.4501 69.6852C94.6021 69.5627 94.7287 69.4099 94.8226 69.2358C94.9165 69.0617 94.9756 68.8698 94.9966 68.6716C95.023 68.2657 94.8951 67.8652 94.6402 67.5556C94.3854 67.2459 94.0237 67.0516 93.6323 67.0142C93.4416 66.9867 93.2474 66.9992 93.0614 67.0509C92.8754 67.1025 92.7012 67.1922 92.5493 67.3148C92.3974 67.4373 92.2707 67.5901 92.1769 67.7642C92.083 67.9383 92.0238 68.1302 92.0028 68.3284Z" fill="#263238"/>
<path d="M104.744 64.7316C104.889 64.9087 105.903 64.2486 107.28 64.3291C108.656 64.4096 109.622 65.1341 109.783 64.9973C109.944 64.8604 109.719 64.6189 109.292 64.2728C108.724 63.8278 108.033 63.5691 107.312 63.5322C106.596 63.4864 105.885 63.6727 105.283 64.0635C104.833 64.3613 104.672 64.6511 104.744 64.7316Z" fill="#263238"/>
<path d="M99.1652 74.6567C98.4536 74.3823 97.7095 74.201 96.9514 74.1173C96.5972 74.061 96.2752 73.9724 96.2269 73.7309C96.2149 73.3658 96.3162 73.0059 96.5167 72.7005C96.9031 71.8955 97.3217 71.002 97.7162 70.0843C99.3745 66.3571 100.598 63.29 100.453 63.2256C100.308 63.1612 98.8432 66.1237 97.1688 69.8508C96.7663 70.7685 96.3638 71.646 96.0176 72.4832C95.7753 72.8956 95.6816 73.3786 95.752 73.8517C95.7956 73.9799 95.8685 74.0961 95.9649 74.1911C96.0613 74.2862 96.1786 74.3574 96.3074 74.3991C96.497 74.4654 96.6947 74.506 96.8951 74.5198C97.6438 74.6547 98.4057 74.7006 99.1652 74.6567Z" fill="#263238"/>
<path d="M104.641 60.4005C104.761 60.7788 106.146 60.6822 107.748 60.972C109.35 61.2618 110.63 61.777 110.863 61.447C110.968 61.294 110.759 60.9318 110.26 60.5373C109.582 60.0516 108.803 59.7266 107.982 59.5871C107.16 59.4476 106.318 59.4973 105.518 59.7323C104.914 59.9416 104.592 60.2153 104.641 60.4005Z" fill="#263238"/>
<path d="M91.9137 60.827C92.1311 61.149 93.0971 60.8833 94.2402 60.9316C95.3833 60.9799 96.3332 61.2617 96.5747 60.9316C96.6793 60.7787 96.5747 60.4567 96.148 60.1266C95.6025 59.7358 94.9513 59.5197 94.2804 59.5068C93.608 59.4784 92.9436 59.6614 92.3806 60.03C91.962 60.352 91.8091 60.666 91.9137 60.827Z" fill="#263238"/>
<path d="M90.6564 55.1525C90.6564 55.1525 93.337 49.6784 96.1223 48.5192C99.4872 47.1266 100.687 50.8054 103.858 50.1292C107.03 49.453 110.242 48.1006 113.293 50.6927C116.626 53.5344 114.903 55.2974 114.903 59.2821C114.855 75.4385 117.535 80.1639 118.807 72.629C118.944 71.824 121.295 71.2686 121.834 67.799C122.543 63.2749 123.034 57.7526 122.204 54.4602C121.504 51.6909 120.063 49.7187 117.374 47.4808C113.164 43.9549 107.135 43.5363 103.005 43.7134C98.8754 43.8905 90.6805 48.1006 90.6564 55.1525Z" fill="#263238"/>
<path d="M118.22 72.3236C118.247 71.9929 118.342 71.6713 118.499 71.3788C118.655 71.0864 118.871 70.8295 119.131 70.624C119.392 70.4185 119.692 70.269 120.013 70.1847C120.334 70.1004 120.669 70.0831 120.997 70.134C122.655 70.3916 124.458 71.4462 124.153 74.8916C123.605 81.0016 117.584 79.1903 117.584 79.0132C117.584 78.8361 117.97 74.8835 118.22 72.3236Z" fill="#FFBF9D"/>
<path d="M119.105 76.8303C119.105 76.8303 119.202 76.9188 119.379 77.0154C119.626 77.1475 119.914 77.1793 120.184 77.104C120.844 76.9269 121.48 75.9448 121.609 74.85C121.673 74.3266 121.617 73.7955 121.448 73.2963C121.408 73.1011 121.321 72.9186 121.195 72.7643C121.068 72.6101 120.907 72.4888 120.723 72.4108C120.604 72.3686 120.474 72.3688 120.356 72.4113C120.237 72.4538 120.136 72.5361 120.071 72.6443C119.967 72.8053 119.999 72.934 119.967 72.9421C119.934 72.9501 119.846 72.8294 119.918 72.5798C119.964 72.4305 120.061 72.3022 120.192 72.2176C120.372 72.1045 120.589 72.0669 120.796 72.1129C121.041 72.1861 121.264 72.3205 121.443 72.5036C121.621 72.6868 121.751 72.9125 121.818 73.1595C122.031 73.7126 122.106 74.3096 122.035 74.8983C121.882 76.1299 121.15 77.2247 120.248 77.4018C120.08 77.4353 119.907 77.4302 119.741 77.387C119.575 77.3438 119.421 77.2635 119.29 77.1523C119.105 76.9832 119.081 76.8464 119.105 76.8303Z" fill="#FF9A6C"/>
<path d="M89.3524 48.5191C90.2943 47.8107 91.5903 47.7141 92.5241 46.9977C96.6835 43.8042 103.387 37.7091 109.111 40.8959C111.289 42.1085 114.038 42.2125 115.982 43.6006C116.547 44.0475 117.013 44.608 117.348 45.2458C117.684 45.8835 117.882 46.5845 117.93 47.3036C117.93 47.3036 118.566 46.9816 120.498 48.5111C121.73 49.4851 122.736 51.5862 123.187 53.0835C123.855 55.3294 122.881 57.6962 121.923 59.8294C121.408 60.9806 120.764 62.2444 119.564 62.655C118.107 63.146 116.497 62.0029 115.926 60.57C115.354 59.1371 114.452 57.6962 113.76 56.3196C112.553 53.9046 111.345 51.6989 112.335 50.1694C109.07 49.1089 106.906 51.0056 104.003 52.0289C102.783 52.4594 97.8575 53.276 96.4995 52.9513C96.0607 52.8464 95.6512 52.6439 95.3014 52.359C94.7484 53.2599 93.8762 53.9194 92.8587 54.2059C91.8411 54.4923 90.753 54.3848 89.8112 53.9046C87.9919 52.7776 87.6699 49.791 89.3524 48.5191Z" fill="#263238"/>
<path d="M122.535 58.3875C122.252 58.8294 122.015 59.2987 121.826 59.7882C121.606 60.2826 121.258 60.7102 120.82 61.0279C120.234 61.3278 119.559 61.405 118.92 61.2452C118.256 61.1164 117.629 60.8414 117.085 60.4402C116.646 60.0994 116.246 59.7106 115.893 59.281C115.585 58.8596 115.243 58.4638 114.871 58.0977C115.067 58.5852 115.339 59.0388 115.676 59.442C116.013 59.9161 116.414 60.3413 116.867 60.7059C117.449 61.1447 118.124 61.4424 118.84 61.5753C119.565 61.7551 120.332 61.6484 120.981 61.2774C121.466 60.9224 121.835 60.4324 122.044 59.8687C122.268 59.397 122.433 58.8995 122.535 58.3875Z" fill="#B9B8B6"/>
<path d="M122.301 63.1146C121.933 63.394 121.526 63.619 121.094 63.7828C120.623 63.9318 120.126 63.9757 119.636 63.9116C119.036 63.8203 118.462 63.6007 117.954 63.2676C117.031 62.6266 116.248 61.805 115.652 60.8526C115.424 60.4394 115.154 60.0509 114.847 59.6934C114.988 60.1539 115.197 60.5907 115.467 60.9894C116.014 62.0378 116.806 62.9383 117.777 63.6137C118.33 63.9795 118.962 64.2085 119.62 64.2819C120.167 64.342 120.72 64.2674 121.23 64.0645C122.051 63.6701 122.341 63.1227 122.301 63.1146Z" fill="#B9B8B6"/>
<path d="M103.297 79.6289C103.503 79.9662 103.618 80.3164 103.638 80.6697C103.663 80.8368 103.617 81.0047 103.503 81.1618C103.389 81.319 103.211 81.4618 102.98 81.5804C102.74 81.7262 102.441 81.8432 102.104 81.9233C101.766 82.0034 101.398 82.0446 101.027 82.0439C100.356 82.0432 99.7074 81.92 99.1981 81.6964C98.6888 81.4729 98.3518 81.1636 98.2479 80.8242L98.0098 80.0558C99.3991 79.8525 103.194 79.6818 103.297 79.6289Z" fill="#FF9A6C"/>
<path d="M99.0522 81.1252C99.0522 81.1252 99.2472 81.1252 99.5693 81.1411C100.021 81.163 100.482 81.163 100.934 81.1411C101.587 81.1089 102.177 81.0007 102.587 80.8381C103.075 80.6348 103.307 80.3822 103.239 80.1285C103.22 79.9858 103.101 79.8462 102.892 79.7193L103.095 79.7485C101.646 79.8176 100.374 79.8734 99.476 79.9053C98.9928 79.9336 98.5011 79.9452 98.0098 79.9399C98.4676 79.884 98.9459 79.8465 99.4336 79.8282C100.332 79.7751 101.586 79.7033 103.036 79.6289H103.171L103.231 79.6661C103.556 79.8636 103.694 80.086 103.629 80.3073C103.565 80.5286 103.3 80.7395 102.866 80.9152C102.39 81.0951 101.709 81.2096 100.968 81.2341C100.486 81.2474 100.001 81.233 99.5354 81.1916C99.361 81.1806 99.1962 81.1579 99.0522 81.1252Z" fill="#263238"/>
<path d="M139.512 106.576C140.043 106.576 147.626 109.603 149.623 117.041C151.619 124.479 157.069 151.769 157.069 151.769L162.857 159.787C162.857 159.787 160.981 174.414 150.347 171.628C150.347 171.628 143.247 172.868 140.985 165.671C138.723 158.475 134.336 137.005 134.336 137.005L139.512 106.576Z" fill="#FFD000"/>
<path d="M117.853 94L121.88 100.196L140 106.752L134.814 160.234V185.5C115.5 197.5 77.2791 196.215 74.5409 195C73.1154 194.959 71.3195 191.408 71.0859 189.425C70.8846 187.645 71.038 185.841 71.5369 184.123L74.5409 173.403C74.0979 180.074 76.063 133.607 76.1516 131.911L71.7624 108.006L92.3795 99.5154L95.6009 94.5081L104.879 101.687L117.853 94Z" fill="#FFD000"/>
<path d="M71.3363 107.84C71.3363 107.84 67.1905 111.478 66.5063 114.28C65.822 117.081 50.9134 149.354 50.9134 149.354L43.5074 151.35L41.5271 155.456C40.3704 157.81 40.0591 160.49 40.6454 163.047C41.2318 165.603 42.6801 167.88 44.7471 169.495C45.0045 169.69 45.2733 169.871 45.5521 170.034C49.5771 172.449 56.7416 172.321 60.9357 167.378C64.9043 162.693 76.5205 145.852 76.5205 145.852V125.244L71.3363 107.84Z" fill="#FFD000"/>
<path d="M47.0495 152.59L36.3993 146.303L31.2634 152.59L32.326 155.633L46.0594 165.848C47.7643 164.457 48.9081 162.495 49.2794 160.326C49.8831 156.486 47.0495 152.59 47.0495 152.59Z" fill="#FFBF9D"/>
<path d="M50.4305 149.337C50.4305 149.442 51.3402 149.337 52.6765 149.788C54.4033 150.385 55.9323 151.446 57.0959 152.855C58.2458 154.295 59.1937 155.885 59.9134 157.581C60.1847 158.307 60.5215 159.008 60.9197 159.674C60.8123 158.901 60.5955 158.147 60.2757 157.436C59.6431 155.646 58.7093 153.977 57.5145 152.501C56.2929 151.009 54.6394 149.932 52.7811 149.418C52.0213 149.167 51.2057 149.139 50.4305 149.337Z" fill="#263238"/>
<path d="M36.5764 149.789C36.8418 148.399 36.7467 146.964 36.3 145.621C35.8532 144.277 35.0698 143.071 34.0245 142.117C31.5099 140.049 28.6664 138.416 25.6122 137.287C23.7446 136.482 19.8564 133.206 19.1722 133.995C18.4879 134.784 18.182 135.959 19.1722 137.392C20.1623 138.825 25.7893 140.958 25.0004 142.769C24.6784 143.502 22.9074 143.639 22.9074 143.639C19.6927 143.865 16.4686 143.929 13.2474 143.832C10.3977 143.582 7.83777 144.13 7.99072 145.112C8.14367 146.094 8.67497 146.633 11.0336 146.834C13.3923 147.036 17.2321 146.883 17.4736 147.422C17.7151 147.961 16.8779 148.308 15.5014 148.227C14.1248 148.147 7.63652 148.122 7.19377 148.863C7.0861 149.051 7.02143 149.261 7.00446 149.477C6.98749 149.692 7.01864 149.91 7.09563 150.112C7.17262 150.314 7.29354 150.497 7.44971 150.648C7.60588 150.798 7.79341 150.911 7.99878 150.98L9.52022 151.52C9.52022 151.52 8.63472 152.751 9.37532 153.435C10.1159 154.12 11.7903 153.878 11.7903 153.878L20.3958 153.637C20.3958 153.637 20.8869 154.152 20.6454 154.506C20.4039 154.86 13.6579 154.369 13.6096 155.11C13.5613 155.85 12.9737 156.189 14.9862 156.72C17.9336 157.211 20.9421 157.211 23.8895 156.72C25.7088 156.221 33.3322 155.915 33.3322 155.915L36.5764 149.789Z" fill="#FFBF9D"/>
<path d="M153.535 153.709L163.493 145.449L169.208 151.889L168.508 155.037L156.063 166.758C154.218 165.7 152.826 164.001 152.15 161.984C150.911 158.434 153.535 153.709 153.535 153.709Z" fill="#FFBF9D"/>
<path d="M163.606 149.747C163.178 148.399 163.101 146.964 163.382 145.578C163.664 144.192 164.295 142.9 165.216 141.826C167.481 139.475 170.13 137.526 173.048 136.062C174.803 135.008 178.281 131.337 179.062 132.037C179.525 132.455 179.82 133.026 179.893 133.646C179.965 134.265 179.81 134.889 179.456 135.402C178.651 136.94 174.771 138.727 174.908 140.699C174.922 140.89 174.974 141.076 175.06 141.247C175.146 141.418 175.265 141.57 175.41 141.695C175.555 141.82 175.724 141.915 175.905 141.975C176.087 142.034 176.279 142.058 176.47 142.044C179.682 141.896 182.884 141.587 186.065 141.118C188.875 140.538 191.475 140.78 191.443 141.77C191.411 142.76 190.936 143.38 188.617 143.839C186.299 144.298 182.467 144.644 182.338 145.167C182.209 145.69 183.022 145.972 184.383 145.722C185.743 145.473 192.183 144.708 192.707 145.392C192.836 145.564 192.926 145.763 192.97 145.974C193.013 146.185 193.01 146.403 192.959 146.613C192.908 146.822 192.811 147.018 192.676 147.185C192.54 147.353 192.369 147.488 192.175 147.582L190.726 148.298C190.726 148.298 191.749 149.417 191.097 150.182C190.445 150.947 188.754 150.907 188.754 150.907L180.173 151.663C180.173 151.663 179.746 152.235 180.036 152.557C180.326 152.879 186.951 151.607 187.088 152.34C187.225 153.072 187.852 153.338 185.904 154.062C183.03 154.895 180.038 155.246 177.049 155.101C175.182 154.819 167.566 155.366 167.566 155.366L163.606 149.747Z" fill="#FFBF9D"/>
<path d="M92.4597 101.006C92.9982 101.678 93.5964 102.301 94.2468 102.865C95.3819 103.976 96.9355 105.53 98.5777 107.301C98.9239 107.679 99.27 108.05 99.592 108.412L99.8094 108.645L100.011 108.396C101.283 106.786 102.385 105.305 103.158 104.25C103.612 103.714 103.999 103.125 104.309 102.495C103.775 102.952 103.294 103.468 102.876 104.033C102.031 105.031 100.872 106.448 99.584 108.058H99.9945L98.9883 106.939C97.5736 105.41 96.0796 103.956 94.5125 102.584C93.8949 101.976 93.2056 101.446 92.4597 101.006Z" fill="#263238"/>
<path d="M138.377 120.502C138.229 120.857 138.129 121.231 138.079 121.613C137.926 122.337 137.733 123.392 137.524 124.696C137.105 127.304 136.662 130.927 136.292 134.936C135.922 138.945 135.648 142.583 135.439 145.216C135.358 146.439 135.278 147.478 135.221 148.331C135.171 148.713 135.171 149.1 135.221 149.482C135.336 149.115 135.412 148.738 135.447 148.355C135.559 147.622 135.696 146.56 135.841 145.248C136.147 142.631 136.485 139.001 136.856 134.992C137.226 130.983 137.588 127.369 137.902 124.793C138.055 123.577 138.184 122.539 138.288 121.693C138.372 121.302 138.401 120.901 138.377 120.502Z" fill="#263238"/>
<path d="M75.3936 118.676C75.2787 119.132 75.2112 119.599 75.1924 120.068C75.1038 120.978 75.0072 122.282 74.9267 123.908C74.7416 127.128 74.653 131.636 74.6369 136.579V153.09C74.6111 153.56 74.6299 154.032 74.6933 154.498C74.7976 154.039 74.8489 153.569 74.8462 153.098C74.9106 152.188 74.975 150.876 75.0233 149.258C75.136 146.038 75.1763 141.53 75.1843 136.587C75.1924 131.644 75.2326 127.161 75.3131 123.924C75.3534 122.387 75.3856 121.099 75.4097 120.085C75.4479 119.615 75.4425 119.144 75.3936 118.676Z" fill="#263238"/>
<path d="M146.548 165.123C146.8 164.209 146.985 163.279 147.103 162.338C147.48 160.092 148.208 157.918 149.261 155.898C150.334 153.917 151.948 152.282 153.914 151.181C154.759 150.777 155.633 150.438 156.53 150.166C156.265 150.109 155.99 150.109 155.725 150.166C155.027 150.283 154.35 150.497 153.712 150.802C151.597 151.857 149.864 153.546 148.753 155.632C147.688 157.706 147.012 159.957 146.757 162.274C146.568 163.211 146.497 164.168 146.548 165.123Z" fill="#263238"/>
<path d="M143.964 154.248C144.076 154.377 145.678 152.727 148.286 151.833C150.895 150.94 153.116 151.246 153.165 151.077C153.213 150.908 150.854 150.36 148.109 151.318C145.364 152.276 143.843 154.184 143.964 154.248Z" fill="#263238"/>
<path d="M103.11 191.656C103.159 191.358 103.18 191.057 103.174 190.755C103.174 190.119 103.174 189.258 103.231 188.179C103.279 185.885 103.343 182.657 103.424 178.688C103.609 170.638 103.867 159.585 104.156 147.381C104.446 135.177 104.599 124.076 104.583 116.059C104.583 112.034 104.543 108.814 104.495 106.56C104.495 105.481 104.438 104.62 104.414 103.984C104.421 103.682 104.399 103.38 104.35 103.082C104.327 103.382 104.327 103.684 104.35 103.984C104.35 104.62 104.35 105.481 104.35 106.56C104.35 108.854 104.301 112.09 104.269 116.051C104.189 124.101 103.955 135.137 103.681 147.365C103.408 159.593 103.166 170.662 103.102 178.68C103.102 182.705 103.102 185.925 103.102 188.179C103.102 189.258 103.102 190.119 103.142 190.755C103.111 191.054 103.1 191.356 103.11 191.656Z" fill="#263238"/>
<path d="M154.002 153.37C154.002 153.305 153.197 153.909 152.553 155.246C152.158 156.007 151.871 156.82 151.7 157.661C151.534 158.728 151.534 159.814 151.7 160.881C151.82 161.949 152.137 162.986 152.634 163.94C153.064 164.713 153.657 165.383 154.372 165.904C155.001 166.426 155.793 166.71 156.61 166.709C155.903 166.416 155.233 166.041 154.614 165.59C153.979 165.069 153.456 164.426 153.076 163.698C152.646 162.788 152.373 161.81 152.271 160.808C152.127 159.804 152.127 158.785 152.271 157.781C152.41 156.952 152.645 156.141 152.972 155.366C153.471 154.086 154.083 153.418 154.002 153.37Z" fill="#263238"/>
<path d="M44.0629 166.967C44.0629 166.967 44.3205 166.967 44.7311 166.765C45.3074 166.511 45.8485 166.184 46.3411 165.791C48.0279 164.492 49.1816 162.621 49.5849 160.531C49.9882 158.44 49.6133 156.274 48.5307 154.441C48.2152 153.89 47.8311 153.381 47.3876 152.927C47.0736 152.621 46.8724 152.476 46.8482 152.501C46.8241 152.525 47.4922 153.249 48.1926 154.626C49.129 156.407 49.4312 158.453 49.0493 160.428C48.6674 162.404 47.6242 164.19 46.0915 165.493C44.9404 166.508 44.0227 166.878 44.0629 166.967Z" fill="#263238"/>
<path d="M23.5917 140.41C23.5273 140.475 23.9942 140.917 24.5818 141.698C24.9199 142.145 25.1537 142.662 25.2661 143.212C25.3949 143.831 25.3788 144.556 25.4915 145.353C25.5874 146.037 25.8182 146.695 26.1706 147.29C26.523 147.884 26.9899 148.402 27.5443 148.814C27.9679 149.196 28.5053 149.428 29.0738 149.474C29.114 149.386 28.5183 149.161 27.7858 148.508C26.8427 147.673 26.2218 146.534 26.0308 145.288C25.9778 144.56 25.8865 143.834 25.7572 143.115C25.6031 142.515 25.3046 141.963 24.8877 141.505C24.5496 141.042 24.1051 140.666 23.5917 140.41Z" fill="#FF9A6C"/>
<path d="M178.861 148.879C178.861 149.024 181.541 149.169 184.85 149.008C188.158 148.847 190.815 148.46 190.799 148.307C190.783 148.155 188.118 148.307 184.826 148.46C181.533 148.613 178.861 148.718 178.861 148.879Z" fill="#FF9A6C"/>
<path d="M172.767 148.42C172.767 148.477 173.403 148.372 174.159 147.736C174.65 147.31 175.039 146.781 175.301 146.187C175.563 145.592 175.69 144.948 175.673 144.299C175.615 143.612 175.491 142.933 175.303 142.27C175.162 141.745 175.094 141.203 175.101 140.66C175.148 140.175 175.259 139.699 175.431 139.243C175.431 139.187 174.844 139.613 174.715 140.628C174.65 141.198 174.683 141.775 174.811 142.334C174.963 142.973 175.068 143.621 175.125 144.274C175.143 145.442 174.7 146.569 173.894 147.414C173.274 148.138 172.727 148.34 172.767 148.42Z" fill="#FF9A6C"/>
<path d="M22.0942 150.328C22.0942 150.175 19.2204 150.288 15.7106 150.578C12.2008 150.867 9.35908 151.238 9.36713 151.383C9.37518 151.528 12.241 151.423 15.7508 151.125C19.2606 150.827 22.1023 150.473 22.0942 150.328Z" fill="#FF9A6C"/>
<path d="M104.961 101.971C105.283 103.043 105.689 104.087 106.177 105.095C106.394 105.578 106.62 106.101 106.853 106.64C107.084 107.255 107.353 107.854 107.658 108.435C107.774 108.626 107.943 108.78 108.145 108.877C108.346 108.974 108.571 109.011 108.793 108.983C109.183 108.88 109.546 108.693 109.856 108.435L111.756 107.139C114.348 105.352 116.674 103.702 118.349 102.494C119.285 101.882 120.168 101.193 120.989 100.434C119.992 100.936 119.036 101.518 118.131 102.172C116.401 103.307 114.034 104.893 111.442 106.688L109.55 107.993C109.303 108.206 109.016 108.368 108.705 108.468C108.578 108.483 108.449 108.459 108.336 108.401C108.222 108.342 108.129 108.25 108.069 108.137C107.457 107.027 106.95 105.827 106.459 104.917C106.042 103.895 105.542 102.91 104.961 101.971Z" fill="#263238"/>
</svg>
