<svg width="200" height="200" viewBox="0 0 200 200" fill="none" xmlns="http://www.w3.org/2000/svg">
<g clip-path="url(#clip0_682_25632)">
<path fill-rule="evenodd" clip-rule="evenodd" d="M95.3511 40.0786C119.484 41.5624 131.191 65.3973 145.943 82.1754C157.899 95.7741 168.961 109.409 171.286 126.445C173.971 146.122 175.558 168.605 159.663 182.721C143.717 196.882 117.964 195.809 95.3511 193.883C72.1366 194.322 53.3796 187.342 42.4481 172.737C26.9316 160.174 13.0786 144.922 12.0648 126.445C11.0113 107.244 22.9446 90.1752 37.1121 75.4837C52.9597 59.05 70.8381 38.5713 95.3511 40.0786Z" fill="#FFF3CC"/>
<path d="M92.0601 44.8647L92.9295 44.8164C97.1236 44.5763 101.254 45.9237 104.5 48.5907C107.746 51.2577 109.869 55.0488 110.446 59.2099C111.557 67.2599 108.823 69.6774 109 74.0002C109.411 82.968 102.184 88.5002 102.184 88.5002L104.707 94.952C104.833 96.3825 104.674 97.8237 104.241 99.1929C103.809 100.562 103.109 101.832 102.184 102.93C101.259 104.029 100.125 104.933 98.8495 105.592C97.5735 106.251 96.1799 106.651 94.7488 106.769C91.8972 106.998 89.07 106.096 86.8772 104.259C84.6845 102.422 83.302 99.796 83.028 96.9484L79.808 63.6937C78.5039 54.4362 82.7704 45.9515 92.0601 44.8647Z" fill="#FFBF9D"/>
<path d="M102 88.5007C97.8507 88.7417 93.6289 87.6491 90 85.6777C90 85.6777 94.1185 91.7827 103 90.5007L102 88.5007Z" fill="#FF9A6C"/>
<path d="M95.996 68.3284C96.0248 68.7349 95.8978 69.1368 95.6425 69.447C95.3872 69.7572 95.0242 69.9508 94.632 69.9858C94.4413 70.0133 94.2472 70.0008 94.0612 69.9492C93.8752 69.8975 93.7011 69.8078 93.5492 69.6852C93.3973 69.5627 93.2706 69.4099 93.1768 69.2358C93.083 69.0617 93.0238 68.8698 93.0028 68.6716C92.9789 68.2663 93.1076 67.8672 93.362 67.5581C93.6163 67.249 93.9765 67.054 94.3668 67.0142C94.5575 66.9867 94.7516 66.9992 94.9376 67.0509C95.1236 67.1025 95.2977 67.1922 95.4496 67.3148C95.6015 67.4373 95.7282 67.5901 95.822 67.7642C95.9158 67.9383 95.975 68.1302 95.996 68.3284Z" fill="#263238"/>
<path d="M108.788 63.701C108.635 63.8781 107.629 63.21 106.252 63.2985C104.876 63.3871 103.902 64.1035 103.749 63.9667C103.596 63.8298 103.813 63.5883 104.232 63.2422C104.804 62.793 105.501 62.5316 106.228 62.4935C106.943 62.4539 107.653 62.6397 108.257 63.0248C108.683 63.3227 108.844 63.6125 108.788 63.701Z" fill="#263238"/>
<path d="M107.997 68.3284C108.021 68.7337 107.892 69.1328 107.638 69.4419C107.384 69.751 107.023 69.946 106.633 69.9858C106.442 70.0133 106.248 70.0008 106.062 69.9491C105.876 69.8975 105.702 69.8078 105.55 69.6852C105.398 69.5627 105.271 69.4099 105.177 69.2358C105.084 69.0617 105.024 68.8698 105.003 68.6716C104.977 68.2657 105.105 67.8652 105.36 67.5556C105.615 67.2459 105.976 67.0516 106.368 67.0142C106.558 66.9867 106.753 66.9992 106.939 67.0509C107.125 67.1025 107.299 67.1922 107.451 67.3148C107.603 67.4373 107.729 67.5901 107.823 67.7642C107.917 67.9383 107.976 68.1302 107.997 68.3284Z" fill="#263238"/>
<path d="M95.256 64.7316C95.1111 64.9087 94.0968 64.2486 92.7202 64.3291C91.3437 64.4096 90.3777 65.1341 90.2167 64.9973C90.0557 64.8604 90.2811 64.6189 90.7077 64.2728C91.2758 63.8278 91.9674 63.5691 92.688 63.5322C93.4038 63.4864 94.1152 63.6727 94.7166 64.0635C95.1674 64.3613 95.3284 64.6511 95.256 64.7316Z" fill="#263238"/>
<path d="M100.835 74.6567C101.546 74.3823 102.29 74.201 103.049 74.1173C103.403 74.061 103.725 73.9724 103.773 73.7309C103.785 73.3658 103.684 73.0059 103.483 72.7005C103.097 71.8955 102.678 71.002 102.284 70.0843C100.626 66.3571 99.4019 63.29 99.5468 63.2256C99.6917 63.1612 101.157 66.1237 102.831 69.8508C103.234 70.7685 103.636 71.646 103.982 72.4832C104.225 72.8956 104.318 73.3786 104.248 73.8517C104.204 73.9799 104.132 74.0961 104.035 74.1911C103.939 74.2862 103.821 74.3574 103.693 74.3991C103.503 74.4654 103.305 74.506 103.105 74.5198C102.356 74.6547 101.594 74.7006 100.835 74.6567Z" fill="#263238"/>
<path d="M95.359 60.4005C95.2383 60.7788 93.8537 60.6822 92.2517 60.972C90.6498 61.2618 89.3698 61.777 89.1364 61.447C89.0317 61.294 89.241 60.9318 89.7401 60.5373C90.4173 60.0516 91.1963 59.7266 92.0179 59.5871C92.8395 59.4476 93.6821 59.4973 94.4816 59.7323C95.0853 59.9416 95.4073 60.2153 95.359 60.4005Z" fill="#263238"/>
<path d="M108.086 60.827C107.869 61.149 106.903 60.8833 105.76 60.9316C104.617 60.9799 103.667 61.2617 103.425 60.9316C103.321 60.7787 103.425 60.4567 103.852 60.1266C104.397 59.7358 105.049 59.5197 105.72 59.5068C106.392 59.4784 107.056 59.6614 107.619 60.03C108.038 60.352 108.191 60.666 108.086 60.827Z" fill="#263238"/>
<path d="M109.344 55.1525C109.344 55.1525 106.663 49.6784 103.878 48.5192C100.513 47.1266 99.3133 50.8054 96.1416 50.1292C92.9699 49.453 89.7579 48.1006 86.707 50.6927C83.3743 53.5344 85.097 55.2974 85.097 59.2821C85.1453 75.4385 82.4646 80.1639 81.1927 72.629C81.0559 71.824 78.7052 71.2686 78.1659 67.799C77.4575 63.2749 76.9664 57.7526 77.7956 54.4602C78.4959 51.6909 79.9369 49.7187 82.6256 47.4808C86.8358 43.9549 92.8652 43.5363 96.9949 43.7134C101.125 43.8905 109.319 48.1006 109.344 55.1525Z" fill="#263238"/>
<path d="M81.7803 72.3236C81.7532 71.9929 81.6583 71.6713 81.5014 71.3788C81.3446 71.0864 81.1291 70.8295 80.8685 70.624C80.6079 70.4185 80.3078 70.269 79.9868 70.1847C79.6658 70.1004 79.331 70.0831 79.003 70.134C77.3447 70.3916 75.5415 71.4462 75.8474 74.8916C76.3948 81.0016 82.4162 79.1903 82.4162 79.0132C82.4162 78.8361 82.0298 74.8835 81.7803 72.3236Z" fill="#FFBF9D"/>
<path d="M80.8948 76.8303C80.8948 76.8303 80.7982 76.9188 80.6211 77.0154C80.3742 77.1475 80.0858 77.1793 79.8161 77.104C79.156 76.9269 78.52 75.9448 78.3912 74.85C78.3275 74.3266 78.3825 73.7955 78.5522 73.2963C78.5923 73.1011 78.6792 72.9186 78.8054 72.7643C78.9316 72.6101 79.0933 72.4888 79.2767 72.4108C79.3957 72.3686 79.5255 72.3688 79.6444 72.4113C79.7632 72.4538 79.8637 72.5361 79.9288 72.6443C80.0334 72.8053 80.0012 72.934 80.0334 72.9421C80.0656 72.9501 80.1542 72.8294 80.0817 72.5798C80.0362 72.4305 79.9392 72.3022 79.808 72.2176C79.6284 72.1045 79.4114 72.0669 79.2043 72.1129C78.9589 72.1861 78.7363 72.3205 78.5574 72.5036C78.3785 72.6868 78.2493 72.9125 78.1819 73.1595C77.9686 73.7126 77.894 74.3096 77.9646 74.8983C78.1175 76.1299 78.8501 77.2247 79.7517 77.4018C79.9198 77.4353 80.0934 77.4302 80.2593 77.387C80.4252 77.3438 80.5792 77.2635 80.7096 77.1523C80.8948 76.9832 80.9189 76.8464 80.8948 76.8303Z" fill="#FF9A6C"/>
<path d="M110.648 48.5191C109.706 47.8107 108.41 47.7141 107.476 46.9977C103.316 43.8042 96.6129 37.7091 90.8888 40.8959C88.7107 42.1085 85.9615 42.2125 84.0181 43.6006C83.4528 44.0475 82.9874 44.608 82.6519 45.2458C82.3164 45.8835 82.1182 46.5845 82.07 47.3036C82.07 47.3036 81.4341 46.9816 79.5021 48.5111C78.2704 49.4851 77.2642 51.5862 76.8134 53.0835C76.1452 55.3294 77.1193 57.6962 78.0772 59.8294C78.5924 60.9806 79.2364 62.2444 80.4359 62.655C81.8929 63.146 83.5029 62.0029 84.0745 60.57C84.646 59.1371 85.5476 57.6962 86.2399 56.3196C87.4474 53.9046 88.6549 51.6989 87.6648 50.1694C90.93 49.1089 93.0942 51.0056 95.9966 52.0289C97.2173 52.4594 102.143 53.276 103.5 52.9513C103.939 52.8464 104.349 52.6439 104.699 52.359C105.252 53.2599 106.124 53.9194 107.141 54.2059C108.159 54.4923 109.247 54.3848 110.189 53.9046C112.008 52.7776 112.33 49.791 110.648 48.5191Z" fill="#263238"/>
<path d="M77.4653 58.3875C77.7478 58.8294 77.9852 59.2987 78.1737 59.7882C78.3945 60.2826 78.7415 60.7102 79.18 61.0279C79.7661 61.3278 80.4411 61.405 81.0798 61.2452C81.7438 61.1164 82.3707 60.8414 82.9152 60.4402C83.3543 60.0994 83.7539 59.7106 84.1066 59.281C84.4148 58.8596 84.7568 58.4638 85.129 58.0977C84.9327 58.5852 84.6611 59.0388 84.324 59.442C83.9868 59.9161 83.5859 60.3413 83.1325 60.7059C82.5515 61.1447 81.8763 61.4424 81.1603 61.5753C80.4348 61.7551 79.6679 61.6484 79.019 61.2774C78.5341 60.9224 78.1645 60.4324 77.9564 59.8687C77.7324 59.397 77.5674 58.8995 77.4653 58.3875Z" fill="#B9B8B6"/>
<path d="M77.6989 63.1146C78.0674 63.394 78.474 63.619 78.9065 63.7828C79.3769 63.9318 79.8743 63.9757 80.3635 63.9116C80.9641 63.8203 81.5379 63.6007 82.046 63.2676C82.9688 62.6266 83.7521 61.805 84.3483 60.8526C84.5759 60.4394 84.8457 60.0509 85.1533 59.6934C85.0124 60.1539 84.8035 60.5907 84.5334 60.9894C83.9864 62.0378 83.1937 62.9383 82.2231 63.6137C81.6703 63.9795 81.0384 64.2085 80.3796 64.2819C79.8332 64.342 79.2805 64.2674 78.7696 64.0645C77.9485 63.6701 77.6587 63.1227 77.6989 63.1146Z" fill="#B9B8B6"/>
<path d="M96.7029 79.6289C96.4969 79.9662 96.3821 80.3164 96.3615 80.6697C96.3372 80.8368 96.3835 81.0047 96.4972 81.1618C96.6109 81.319 96.7894 81.4618 97.0205 81.5804C97.2599 81.7262 97.5589 81.8432 97.8964 81.9233C98.2338 82.0034 98.6015 82.0446 98.9734 82.0439C99.6443 82.0432 100.293 81.92 100.802 81.6964C101.311 81.4729 101.648 81.1636 101.752 80.8242L101.99 80.0558C100.601 79.8525 96.8061 79.6818 96.7029 79.6289Z" fill="#FF9A6C"/>
<path d="M100.948 81.1252C100.948 81.1252 100.753 81.1252 100.431 81.1411C99.9786 81.163 99.5184 81.163 99.0662 81.1411C98.4134 81.1089 97.8233 81.0007 97.4135 80.8381C96.9255 80.6348 96.6932 80.3822 96.7609 80.1285C96.7805 79.9858 96.8991 79.8462 97.1084 79.7193L96.9049 79.7485C98.3542 79.8176 99.6256 79.8734 100.524 79.9053C101.007 79.9336 101.499 79.9452 101.99 79.9399C101.532 79.884 101.054 79.8465 100.566 79.8282C99.668 79.7751 98.4136 79.7033 96.9643 79.6289H96.8287L96.7693 79.6661C96.4444 79.8636 96.3061 80.086 96.3707 80.3073C96.4353 80.5286 96.7 80.7395 97.1338 80.9152C97.6097 81.0951 98.291 81.2096 99.0323 81.2341C99.514 81.2474 99.9994 81.233 100.465 81.1916C100.639 81.1806 100.804 81.1579 100.948 81.1252Z" fill="#263238"/>
<path d="M60.4879 106.576C59.9566 106.576 52.3735 109.603 50.3771 117.041C48.3807 124.479 42.9308 151.769 42.9308 151.769L37.1428 159.787C37.1428 159.787 39.0185 174.414 49.6526 171.628C49.6526 171.628 56.7527 172.868 59.0147 165.671C61.2768 158.475 65.6641 137.005 65.6641 137.005L60.4879 106.576Z" fill="#B9B8B6"/>
<path d="M82.1472 94L78.1204 100.196L60 106.752L65.1865 160.234L63.2697 188.228C80 197.5 124.262 195.715 127 194.5C128.425 194.459 128.681 191.408 128.914 189.425C129.115 187.645 128.962 185.841 128.463 184.123L125.459 173.403C125.902 180.074 123.937 133.607 123.848 131.911L128.238 108.006L107.621 99.5154L104.399 94.5081L95.1215 101.687L82.1472 94Z" fill="#B9B8B6"/>
<path d="M127.447 108C127.447 108 131.804 111.654 132.523 114.468C133.242 117.281 148.907 149.692 148.907 149.692L156.689 151.697L158.77 155.82C159.985 158.185 160.312 160.877 159.696 163.444C159.08 166.012 157.558 168.298 155.386 169.92C155.116 170.116 154.833 170.297 154.54 170.462C150.311 172.887 142.783 172.758 138.376 167.794C134.206 163.089 122 146.176 122 146.176V125.479L127.447 108Z" fill="#B9B8B6"/>
<path d="M152.95 152.59L163.601 146.303L168.737 152.59L167.674 155.633L153.941 165.848C152.236 164.457 151.092 162.495 150.721 160.326C150.117 156.486 152.95 152.59 152.95 152.59Z" fill="#FFBF9D"/>
<path d="M149.569 149.337C149.569 149.442 148.66 149.337 147.324 149.788C145.597 150.385 144.068 151.446 142.904 152.855C141.754 154.295 140.806 155.885 140.087 157.581C139.815 158.307 139.478 159.008 139.08 159.674C139.188 158.901 139.405 158.147 139.724 157.436C140.357 155.646 141.291 153.977 142.485 152.501C143.707 151.009 145.361 149.932 147.219 149.418C147.979 149.167 148.794 149.139 149.569 149.337Z" fill="#263238"/>
<path d="M163.424 149.789C163.158 148.399 163.253 146.964 163.7 145.621C164.147 144.277 164.93 143.071 165.976 142.117C168.49 140.049 171.334 138.416 174.388 137.287C176.255 136.482 180.144 133.206 180.828 133.995C181.512 134.784 181.818 135.959 180.828 137.392C179.838 138.825 174.211 140.958 175 142.769C175.322 143.502 177.093 143.639 177.093 143.639C180.307 143.865 183.531 143.929 186.753 143.832C189.602 143.582 192.162 144.13 192.009 145.112C191.856 146.094 191.325 146.633 188.966 146.834C186.608 147.036 182.768 146.883 182.526 147.422C182.285 147.961 183.122 148.308 184.499 148.227C185.875 148.147 192.363 148.122 192.806 148.863C192.914 149.051 192.979 149.261 192.996 149.477C193.013 149.692 192.981 149.91 192.904 150.112C192.827 150.314 192.706 150.497 192.55 150.648C192.394 150.798 192.207 150.911 192.001 150.98L190.48 151.52C190.48 151.52 191.365 152.751 190.625 153.435C189.884 154.12 188.21 153.878 188.21 153.878L179.604 153.637C179.604 153.637 179.113 154.152 179.355 154.506C179.596 154.86 186.342 154.369 186.39 155.11C186.439 155.85 187.026 156.189 185.014 156.72C182.066 157.211 179.058 157.211 176.11 156.72C174.291 156.221 166.668 155.915 166.668 155.915L163.424 149.789Z" fill="#FFBF9D"/>
<path d="M46.4649 153.709L36.507 145.449L30.7915 151.889L31.4919 155.037L43.9372 166.758C45.7822 165.7 47.1744 164.001 47.8495 161.984C49.0892 158.434 46.4649 153.709 46.4649 153.709Z" fill="#FFBF9D"/>
<path d="M36.3943 149.747C36.8225 148.399 36.8994 146.964 36.6176 145.578C36.3359 144.192 35.7048 142.9 34.7843 141.826C32.5191 139.475 29.8704 137.526 26.9516 136.062C25.1967 135.008 21.7191 131.337 20.9382 132.037C20.4752 132.455 20.1799 133.026 20.1074 133.646C20.0348 134.265 20.1899 134.889 20.5438 135.402C21.3488 136.94 25.2289 138.727 25.092 140.699C25.0778 140.89 25.026 141.076 24.9398 141.247C24.8536 141.418 24.7346 141.57 24.5896 141.695C24.4446 141.82 24.2764 141.915 24.0946 141.975C23.9129 142.034 23.7211 142.058 23.5303 142.044C20.3183 141.896 17.1157 141.587 13.9347 141.118C11.1252 140.538 8.52508 140.78 8.55728 141.77C8.58948 142.76 9.06443 143.38 11.3828 143.839C13.7012 144.298 17.5331 144.644 17.6619 145.167C17.7907 145.69 16.9776 145.972 15.6171 145.722C14.2567 145.473 7.81668 144.708 7.29343 145.392C7.16372 145.564 7.07381 145.763 7.03018 145.974C6.98654 146.185 6.99027 146.403 7.04109 146.613C7.09191 146.822 7.18855 147.018 7.32406 147.185C7.45957 147.353 7.63057 147.488 7.82473 147.582L9.27373 148.298C9.27373 148.298 8.25138 149.417 8.90343 150.182C9.55548 150.947 11.246 150.907 11.246 150.907L19.8273 151.663C19.8273 151.663 20.254 152.235 19.9642 152.557C19.6744 152.879 13.0492 151.607 12.9123 152.34C12.7755 153.072 12.1476 153.338 14.0957 154.062C16.9698 154.895 19.9619 155.246 22.9507 155.101C24.8183 154.819 32.4336 155.366 32.4336 155.366L36.3943 149.747Z" fill="#FFBF9D"/>
<path d="M107.54 101.006C107.002 101.678 106.404 102.301 105.753 102.865C104.618 103.976 103.065 105.53 101.422 107.301C101.076 107.679 100.73 108.05 100.408 108.412L100.191 108.645L99.9894 108.396C98.7175 106.786 97.6146 105.305 96.8418 104.25C96.3881 103.714 96.0015 103.125 95.6907 102.495C96.225 102.952 96.7058 103.468 97.1236 104.033C97.9688 105.031 99.128 106.448 100.416 108.058H100.005L101.012 106.939C102.426 105.41 103.92 103.956 105.488 102.584C106.105 101.976 106.794 101.446 107.54 101.006Z" fill="#263238"/>
<path d="M61.623 120.502C61.771 120.857 61.8711 121.231 61.9209 121.613C62.0738 122.337 62.267 123.392 62.4763 124.696C62.8949 127.304 63.3377 130.927 63.708 134.936C64.0783 138.945 64.352 142.583 64.5613 145.216C64.6418 146.439 64.7223 147.478 64.7786 148.331C64.8291 148.713 64.8291 149.1 64.7786 149.482C64.6638 149.115 64.5882 148.738 64.5532 148.355C64.4405 147.622 64.3037 146.56 64.1588 145.248C63.8529 142.631 63.5148 139.001 63.1445 134.992C62.7742 130.983 62.4119 127.369 62.098 124.793C61.945 123.577 61.8162 122.539 61.7116 121.693C61.6284 121.302 61.5986 120.901 61.623 120.502Z" fill="#263238"/>
<path d="M124.606 118.676C124.721 119.132 124.789 119.599 124.808 120.068C124.896 120.978 124.993 122.282 125.073 123.908C125.258 127.128 125.347 131.636 125.363 136.579V153.09C125.389 153.56 125.37 154.032 125.307 154.498C125.202 154.039 125.151 153.569 125.154 153.098C125.089 152.188 125.025 150.876 124.977 149.258C124.864 146.038 124.824 141.53 124.816 136.587C124.808 131.644 124.767 127.161 124.687 123.924C124.647 122.387 124.614 121.099 124.59 120.085C124.552 119.615 124.557 119.144 124.606 118.676Z" fill="#263238"/>
<path d="M53.4522 165.123C53.2003 164.209 53.0147 163.279 52.8968 162.338C52.5196 160.092 51.7915 157.918 50.7394 155.898C49.6657 153.917 48.0523 152.282 46.0865 151.181C45.2411 150.777 44.3666 150.438 43.4702 150.166C43.7354 150.109 44.01 150.109 44.2752 150.166C44.9726 150.283 45.6502 150.497 46.2877 150.802C48.4029 151.857 50.1364 153.546 51.2465 155.632C52.3118 157.706 52.9884 159.957 53.2429 162.274C53.4324 163.211 53.5027 164.168 53.4522 165.123Z" fill="#263238"/>
<path d="M56.0364 154.248C55.9237 154.377 54.3217 152.727 51.7135 151.833C49.1053 150.94 46.8835 151.246 46.8352 151.077C46.7869 150.908 49.1456 150.36 51.8906 151.318C54.6357 152.276 56.1571 154.184 56.0364 154.248Z" fill="#263238"/>
<path d="M96.8901 191.656C96.8413 191.358 96.8197 191.057 96.8257 190.755C96.8257 190.119 96.8257 189.258 96.7693 188.179C96.721 185.885 96.6566 182.657 96.5761 178.688C96.391 170.638 96.1334 159.585 95.8436 147.381C95.5538 135.177 95.4008 124.076 95.4169 116.059C95.4169 112.034 95.4572 108.814 95.5055 106.56C95.5055 105.481 95.5618 104.62 95.586 103.984C95.5792 103.682 95.6008 103.38 95.6504 103.082C95.6728 103.382 95.6728 103.684 95.6504 103.984C95.6504 104.62 95.6504 105.481 95.6504 106.56C95.6504 108.854 95.6987 112.09 95.7309 116.051C95.8114 124.101 96.0448 135.137 96.3185 147.365C96.5922 159.593 96.8337 170.662 96.8981 178.68C96.8981 182.705 96.8981 185.925 96.8981 188.179C96.8981 189.258 96.8981 190.119 96.8579 190.755C96.8892 191.054 96.8999 191.356 96.8901 191.656Z" fill="#263238"/>
<path d="M45.9979 153.37C45.9979 153.305 46.8029 153.909 47.4469 155.246C47.8415 156.007 48.1287 156.82 48.3002 157.661C48.4655 158.728 48.4655 159.814 48.3002 160.881C48.18 161.949 47.8634 162.986 47.3664 163.94C46.936 164.713 46.3427 165.383 45.6276 165.904C44.9987 166.426 44.2068 166.71 43.3896 166.709C44.0971 166.416 44.7673 166.041 45.3861 165.59C46.0209 165.069 46.5439 164.426 46.9236 163.698C47.3544 162.788 47.6266 161.81 47.7286 160.808C47.8735 159.804 47.8735 158.785 47.7286 157.781C47.5903 156.952 47.3553 156.141 47.0283 155.366C46.5292 154.086 45.9174 153.418 45.9979 153.37Z" fill="#263238"/>
<path d="M155.937 166.967C155.937 166.967 155.679 166.967 155.269 166.765C154.693 166.511 154.151 166.184 153.659 165.791C151.972 164.492 150.818 162.621 150.415 160.531C150.012 158.44 150.387 156.274 151.469 154.441C151.785 153.89 152.169 153.381 152.612 152.927C152.926 152.621 153.128 152.476 153.152 152.501C153.176 152.525 152.508 153.249 151.807 154.626C150.871 156.407 150.569 158.453 150.951 160.428C151.333 162.404 152.376 164.19 153.908 165.493C155.06 166.508 155.977 166.878 155.937 166.967Z" fill="#263238"/>
<path d="M176.408 140.41C176.473 140.475 176.006 140.917 175.418 141.698C175.08 142.145 174.846 142.662 174.734 143.212C174.605 143.831 174.621 144.556 174.509 145.353C174.413 146.037 174.182 146.695 173.829 147.29C173.477 147.884 173.01 148.402 172.456 148.814C172.032 149.196 171.495 149.428 170.926 149.474C170.886 149.386 171.482 149.161 172.214 148.508C173.157 147.673 173.778 146.534 173.969 145.288C174.022 144.56 174.114 143.834 174.243 143.115C174.397 142.515 174.695 141.963 175.112 141.505C175.45 141.042 175.895 140.666 176.408 140.41Z" fill="#FF9A6C"/>
<path d="M21.1394 148.879C21.1394 149.024 18.4588 149.169 15.1502 149.008C11.8417 148.847 9.18514 148.46 9.20124 148.307C9.21734 148.155 11.8819 148.307 15.1744 148.46C18.4668 148.613 21.1394 148.718 21.1394 148.879Z" fill="#FF9A6C"/>
<path d="M27.2332 148.42C27.2332 148.477 26.5973 148.372 25.8406 147.736C25.3505 147.31 24.9606 146.781 24.699 146.187C24.4374 145.592 24.3104 144.948 24.3272 144.299C24.3845 143.612 24.5085 142.933 24.6975 142.27C24.8384 141.745 24.9061 141.203 24.8987 140.66C24.8525 140.175 24.7415 139.699 24.5687 139.243C24.5687 139.187 25.1563 139.613 25.2851 140.628C25.3502 141.198 25.3175 141.775 25.1885 142.334C25.037 142.973 24.9321 143.621 24.8746 144.274C24.8575 145.442 25.2998 146.569 26.1062 147.414C26.7261 148.138 27.2735 148.34 27.2332 148.42Z" fill="#FF9A6C"/>
<path d="M177.906 150.328C177.906 150.175 180.779 150.288 184.289 150.578C187.799 150.867 190.641 151.238 190.633 151.383C190.625 151.528 187.759 151.423 184.249 151.125C180.739 150.827 177.897 150.473 177.906 150.328Z" fill="#FF9A6C"/>
<path d="M95.0386 101.971C94.717 103.043 94.3106 104.087 93.823 105.095C93.6057 105.578 93.3803 106.101 93.1468 106.64C92.9159 107.255 92.6471 107.854 92.3418 108.435C92.2256 108.626 92.0566 108.78 91.8552 108.877C91.6538 108.974 91.4286 109.011 91.2068 108.983C90.8168 108.88 90.4541 108.693 90.1442 108.435L88.2444 107.139C85.6522 105.352 83.3258 103.702 81.6514 102.494C80.7152 101.882 79.832 101.193 79.011 100.434C80.0083 100.936 80.9639 101.518 81.8687 102.172C83.5995 103.307 85.9662 104.893 88.5583 106.688L90.4501 107.993C90.6968 108.206 90.9844 108.368 91.2953 108.468C91.4222 108.483 91.5508 108.459 91.6642 108.401C91.7776 108.342 91.8707 108.25 91.9313 108.137C92.5431 107.027 93.0502 105.827 93.5413 104.917C93.9576 103.895 94.4584 102.91 95.0386 101.971Z" fill="#263238"/>
<path d="M96.1602 168.508C95.8579 168.437 95.5701 168.341 95.301 168.219C94.7492 168.019 93.9741 167.705 93.0347 167.294C90.5762 166.239 88.2108 165.064 85.9483 163.775C83.6859 162.484 81.5272 161.084 79.481 159.579C78.6948 159.002 78.0728 158.521 77.6647 158.182C77.4292 158.018 77.2204 157.829 77.0419 157.62C77.2953 157.76 77.5331 157.917 77.7534 158.09L79.6398 159.426C81.2399 160.545 83.5125 162.035 86.157 163.538C88.8014 165.041 91.3159 166.272 93.1642 167.121L95.3633 168.113C95.6448 168.225 95.9112 168.357 96.1602 168.508Z" fill="#455A64"/>
<path d="M52.2754 111.229L10.747 130.022L36.7034 183.152L52.2754 111.229ZM39.535 126.943L32.7144 156.997L21.9498 134.9L39.535 126.943Z" fill="#FFD000"/>
<path d="M50.7602 118.144C49.7588 118.342 48.7539 118.405 47.7862 118.329C46.7824 118.389 45.8037 118.307 44.8919 118.085C45.9018 117.879 46.9164 117.813 47.8929 117.889C48.8875 117.837 49.8564 117.923 50.7602 118.144Z" fill="#263238"/>
<path d="M48.5173 128.788C47.5272 128.981 46.5342 129.039 45.5795 128.959C44.5999 129.015 43.6466 128.928 42.7629 128.7C43.7517 128.5 44.7445 128.44 45.6979 128.522C46.6801 128.463 47.6353 128.553 48.5173 128.788Z" fill="#263238"/>
<path d="M46.2715 139.424C45.2863 139.536 44.315 139.508 43.3998 139.342C42.429 139.314 41.5049 139.135 40.6736 138.812C41.6618 138.698 42.6362 138.725 43.5543 138.891C44.5206 138.925 45.4408 139.105 46.2715 139.424Z" fill="#263238"/>
<path d="M43.7195 150.03C42.7301 150.153 41.7539 150.126 40.8387 149.951C39.8721 149.912 38.9502 149.733 38.1126 149.421C39.102 149.298 40.0782 149.325 40.9933 149.5C41.9599 149.539 42.8819 149.718 43.7195 150.03Z" fill="#263238"/>
<path d="M41.4578 160.939C40.4419 161.109 39.429 161.136 38.4628 161.02C37.4633 161.044 36.496 160.927 35.6008 160.674C37.6185 160.468 39.6011 160.558 41.4578 160.939Z" fill="#263238"/>
<path d="M39.0203 172.302C38.0695 172.491 37.1155 172.538 36.2055 172.44C35.2609 172.481 34.3449 172.381 33.5001 172.145C34.4551 171.958 35.4126 171.913 36.3268 172.01C37.2688 171.962 38.1822 172.061 39.0203 172.302Z" fill="#263238"/>
<path d="M50.0398 121.473C50.0039 121.593 49.3285 121.685 48.5097 121.681C47.6908 121.676 47.0712 121.567 47.0924 121.437C47.1136 121.307 47.8037 121.225 48.6135 121.234C49.4233 121.242 50.0485 121.364 50.0398 121.473Z" fill="#263238"/>
<path d="M49.3792 124.923C49.3551 125.046 48.6679 125.135 47.8581 125.127C47.0483 125.119 46.4134 125.024 46.4318 124.887C46.4502 124.75 47.1459 124.682 47.9619 124.68C48.778 124.677 49.397 124.811 49.3792 124.923Z" fill="#263238"/>
<path d="M47.6353 132.732C47.5994 132.852 46.924 132.944 46.1051 132.939C45.2863 132.935 44.6577 132.83 44.6879 132.696C44.7182 132.562 45.3992 132.484 46.209 132.492C47.0188 132.501 47.6621 132.616 47.6353 132.732Z" fill="#263238"/>
<path d="M46.9591 136.197C46.9323 136.313 46.2478 136.409 45.438 136.401C44.6282 136.392 43.9905 136.291 44.0117 136.161C44.0329 136.031 44.723 135.949 45.5418 135.954C46.3607 135.958 46.9831 136.074 46.9591 136.197Z" fill="#263238"/>
<path d="M45.1695 143.344C45.1455 143.467 44.4582 143.556 43.6484 143.547C42.8386 143.539 42.2037 143.445 42.2221 143.308C42.2406 143.171 42.9334 143.096 43.7522 143.1C44.5711 143.105 45.1873 143.231 45.1695 143.344Z" fill="#263238"/>
<path d="M44.4702 146.672C44.4462 146.795 43.759 146.884 42.9491 146.876C42.1393 146.868 41.5044 146.773 41.5229 146.636C41.5413 146.499 42.2432 146.421 43.053 146.429C43.8628 146.437 44.4338 146.581 44.4702 146.672Z" fill="#263238"/>
<path d="M42.9117 153.871C42.8759 153.991 42.2005 154.083 41.3816 154.079C40.5628 154.074 39.946 153.973 39.9644 153.835C39.9828 153.698 40.6757 153.624 41.4855 153.632C42.2953 153.64 42.9386 153.755 42.9117 153.871Z" fill="#263238"/>
<path d="M42.0462 157.754C42.0103 157.873 41.3349 157.965 40.516 157.961C39.6972 157.956 39.0685 157.851 39.0988 157.718C39.129 157.584 39.8101 157.506 40.6199 157.514C41.4297 157.522 42.073 157.637 42.0462 157.754Z" fill="#263238"/>
<path d="M40.5116 164.724C40.4847 164.84 39.8003 164.936 38.9905 164.928C38.1806 164.92 37.543 164.818 37.5642 164.688C37.5854 164.558 38.2755 164.476 39.0943 164.481C39.9132 164.486 40.5356 164.601 40.5116 164.724Z" fill="#263238"/>
<path d="M39.6816 168.72C39.6458 168.84 38.9614 168.936 38.1515 168.928C37.3417 168.919 36.704 168.818 36.7343 168.684C36.7645 168.551 37.4456 168.472 38.2554 168.481C39.0652 168.489 39.7085 168.604 39.6816 168.72Z" fill="#263238"/>
<path d="M25.5 141C25.3427 139.927 23.5779 138.334 22.4076 137.386C21.568 136.705 20.7715 136.06 20.4539 135.453C20.1 134.94 19.9449 134.315 20.0175 133.696C20.09 133.077 20.3854 132.506 20.8483 132.088C21.3504 131.638 22.9673 132.995 24.5243 134.301C25.389 135.027 26.2351 135.737 26.8617 136.113C29.7806 137.576 32.4292 139.525 34.6944 141.877C31.4202 147.542 23.9111 144.907 25.5 141Z" fill="#FFBF9D"/>
<path d="M169.695 145.208L179.188 153.35L179.776 152.664L170.283 144.522L169.695 145.208Z" fill="#37474F"/>
<path d="M170.701 146.348L171.037 146.637L171.9 145.631L171.563 145.342L170.701 146.348Z" fill="#263238"/>
<path d="M169.223 145.761C169.582 146.069 170.217 145.918 170.641 145.424C171.066 144.929 171.118 144.278 170.759 143.97C170.4 143.662 169.765 143.813 169.341 144.308C168.916 144.802 168.864 145.453 169.223 145.761Z" fill="#263238"/>
<path d="M164.739 179.259L179.577 147.234L185.453 140.383L171.735 170.066L165.167 179.37L164.739 179.259Z" fill="#455A64"/>
<path d="M165.167 179.37L164.739 179.259L163.352 182.005L165.167 179.37Z" fill="#A6A6A6"/>
<path d="M178.035 152.382C178.044 152.268 178.086 152.148 178.156 152.038C178.225 151.928 178.319 151.833 178.426 151.765C178.533 151.696 178.647 151.658 178.755 151.654C178.862 151.65 178.959 151.681 179.031 151.744C179.103 151.806 179.149 151.896 179.161 152.003C179.174 152.11 179.153 152.229 179.102 152.345C179.051 152.46 178.971 152.568 178.873 152.654C178.775 152.739 178.663 152.799 178.552 152.825C178.402 152.861 178.264 152.834 178.167 152.751C178.07 152.668 178.022 152.535 178.035 152.382Z" fill="#DBDBDB"/>
<path d="M178.454 152.838L178.546 151.703C178.579 151.689 178.612 151.679 178.645 151.672C178.678 151.663 178.71 151.658 178.742 151.658L178.65 152.793C178.617 152.807 178.584 152.818 178.552 152.825C178.519 152.834 178.486 152.839 178.454 152.838Z" fill="#C7C7C7"/>
<path d="M159.545 157.699L178.352 146.183L184.227 139.332L158.71 155.218L159.545 157.699Z" fill="#455A64"/>
<path d="M145.184 158.578L147.558 161.418L165.932 149.173L163.558 146.333L145.184 158.578Z" fill="#FFC727"/>
<path d="M163.56 146.332L165.934 149.172L167.495 148.132L165.121 145.292L163.56 146.332Z" fill="#FF97B8"/>
<path d="M162.872 146.416L165.645 149.732L166.209 149.356L163.436 146.04L162.872 146.416Z" fill="#37474F"/>
<path d="M162.248 146.832L165.021 150.148L165.585 149.772L162.813 146.456L162.248 146.832Z" fill="#37474F"/>
<path d="M145.193 158.584L144.334 160.819L144.049 161.554L144.923 161.525L147.568 161.428L147.681 160.904L147.099 160.863L147.214 160.341L146.632 160.3L146.753 159.784L146.144 159.722L146.262 159.204L145.668 159.153L145.786 158.635L145.193 158.584Z" fill="#EBEBEB"/>
<path d="M144.334 160.818L144.049 161.554L144.923 161.525L144.334 160.818Z" fill="#37474F"/>
<g opacity="0.1">
<path d="M163.2 149.942C162.286 150.524 161.376 151.111 160.47 151.705L157.761 153.494L155.071 155.304L149.558 159.024L148.219 159.934L149.588 159.057L155.134 155.369L157.842 153.581L160.532 151.772C161.425 151.169 162.314 150.559 163.2 149.942Z" fill="black"/>
<path d="M162.63 149.165C161.714 149.745 160.805 150.333 159.902 150.929L157.191 152.717L154.501 154.526L148.977 158.24L147.647 159.162L149.015 158.285L154.56 154.598L157.276 152.814L159.966 151.004C160.856 150.395 161.744 149.782 162.63 149.165Z" fill="black"/>
<path d="M162.056 148.396C161.129 148.969 160.234 149.568 159.328 150.16L156.624 151.94L153.931 153.748L148.41 157.463L147.077 158.383L148.446 157.507L153.991 153.82L156.7 152.031L159.39 150.221C160.282 149.612 161.178 149.006 162.056 148.396Z" fill="black"/>
</g>
<path d="M156.479 156.43L157.267 155.908L157.025 155.199L156.224 155.724L156.479 156.43Z" fill="#263238"/>
<path d="M155.978 156.401L157.614 155.318L155.322 151.584L153.666 152.673L155.978 156.401Z" fill="#37474F"/>
<path d="M161.668 156.741L160.608 153.7L153.854 158.168L154.959 161.088L161.668 156.741Z" fill="#37474F"/>
<path d="M155.565 158.308C155.48 158.408 155.417 158.524 155.387 158.641C155.356 158.759 155.358 158.872 155.392 158.968C155.426 159.063 155.491 159.136 155.579 159.178C155.666 159.219 155.773 159.227 155.884 159.2C155.996 159.174 156.108 159.114 156.205 159.028C156.303 158.943 156.383 158.835 156.434 158.719C156.486 158.604 156.506 158.485 156.493 158.378C156.481 158.271 156.435 158.181 156.363 158.119C156.266 158.035 156.127 158.009 155.978 158.044C155.828 158.08 155.68 158.175 155.565 158.308Z" fill="#DBDBDB"/>
<path d="M156.292 158.07L155.442 159.061C155.46 159.084 155.479 159.105 155.5 159.124C155.522 159.142 155.545 159.157 155.57 159.17L156.42 158.18C156.403 158.157 156.384 158.136 156.363 158.118C156.341 158.099 156.317 158.084 156.292 158.07Z" fill="#C7C7C7"/>
<path d="M172.859 148.198C173.061 148.372 173.418 148.287 173.657 148.008C173.895 147.73 173.925 147.364 173.723 147.191C173.521 147.017 173.163 147.103 172.925 147.381C172.686 147.659 172.657 148.025 172.859 148.198Z" fill="#DBDBDB"/>
<path d="M172.729 147.927L173.837 147.664C173.846 147.629 173.851 147.595 173.854 147.562C173.857 147.528 173.857 147.496 173.853 147.464L172.744 147.727C172.736 147.761 172.73 147.795 172.727 147.829C172.724 147.863 172.725 147.896 172.729 147.927Z" fill="#C7C7C7"/>
<path d="M178.035 152.382C178.044 152.268 178.086 152.148 178.156 152.038C178.225 151.928 178.319 151.833 178.426 151.765C178.533 151.696 178.647 151.658 178.755 151.654C178.862 151.65 178.959 151.681 179.031 151.744C179.103 151.806 179.149 151.896 179.161 152.003C179.174 152.11 179.153 152.229 179.102 152.345C179.051 152.46 178.971 152.568 178.873 152.654C178.775 152.739 178.663 152.799 178.552 152.825C178.402 152.861 178.264 152.834 178.167 152.751C178.07 152.668 178.022 152.535 178.035 152.382Z" fill="#DBDBDB"/>
<path d="M178.454 152.838L178.546 151.703C178.579 151.689 178.612 151.679 178.645 151.672C178.678 151.663 178.71 151.658 178.742 151.658L178.65 152.793C178.617 152.807 178.584 152.818 178.552 152.825C178.519 152.834 178.486 152.839 178.454 152.838Z" fill="#C7C7C7"/>
<path d="M190.403 132.508L191.254 133.238L193.676 130.415L192.824 129.684L190.403 132.508Z" fill="#37474F"/>
<path d="M191.246 131.035L192.581 132.18L197.821 126.07L196.486 124.926L191.246 131.035Z" fill="#455A64"/>
<path d="M191.408 130.848L191.345 130.921L191.342 130.975L191.337 131.033L191.33 131.107L191.382 131.152L191.394 131.019L191.399 130.961L191.408 130.848Z" fill="#37474F"/>
<path d="M191.893 130.281L191.832 130.353L191.827 130.408L191.823 130.466L191.789 130.867L191.786 130.926L191.753 131.327L191.747 131.386L191.741 131.46L191.793 131.504L191.804 131.373L191.81 131.313L191.842 130.912L191.847 130.854L191.879 130.453L191.893 130.281Z" fill="#37474F"/>
<path d="M192.379 129.715L192.317 129.786L192.238 130.76L192.234 130.818L192.201 131.22L192.195 131.279L192.158 131.739L192.152 131.812L192.205 131.857L192.216 131.724L192.221 131.665L192.253 131.264L192.258 131.206L192.379 129.715Z" fill="#37474F"/>
<path d="M192.865 129.148L192.803 129.222L192.8 129.275L192.795 129.334L192.76 129.735L192.756 129.794L192.687 130.655L192.682 130.713L192.65 131.114L192.608 131.631L192.575 132.033L192.571 132.091L192.564 132.166L192.581 132.181L192.623 132.133L192.627 132.077L192.632 132.019L192.664 131.618L192.669 131.56L192.702 131.159L192.706 131.101L192.739 130.699L192.743 130.641L192.776 130.24L192.781 130.182L192.813 129.781L192.819 129.721L192.852 129.32L192.856 129.262L192.865 129.148Z" fill="#37474F"/>
<path d="M193.35 128.584L193.288 128.656L193.285 128.709L193.247 129.168L193.243 129.227L193.211 129.628L193.205 129.688L193.172 130.089L193.168 130.147L193.135 130.548L193.13 130.606L193.098 131.007L193.093 131.065L193.061 131.467L193.056 131.525L193.047 131.638L193.108 131.567L193.187 130.593L193.192 130.535L193.261 129.674L193.267 129.615L193.3 129.213L193.35 128.584Z" fill="#37474F"/>
<path d="M193.836 128.016L193.774 128.089L193.659 129.52L193.653 129.58L193.583 130.441L193.579 130.499L193.532 131.071L193.595 130.998L193.598 130.944L193.603 130.886L193.635 130.485L193.641 130.426L193.674 130.024L193.679 129.966L193.711 129.565L193.716 129.507L193.748 129.106L193.836 128.016Z" fill="#37474F"/>
<path d="M194.322 127.449L194.259 127.522L194.256 127.576L194.251 127.634L194.218 128.035L194.214 128.094L194.144 128.954L194.14 129.012L194.107 129.413L194.101 129.473L194.07 129.873L194.065 129.931L194.033 130.332L194.028 130.39L194.019 130.503L194.08 130.432L194.085 130.376L194.09 130.318L194.122 129.917L194.164 129.4L194.196 128.999L194.201 128.941L194.234 128.539L194.238 128.481L194.271 128.08L194.275 128.022L194.308 127.621L194.313 127.563L194.322 127.449Z" fill="#37474F"/>
<path d="M194.807 126.883L194.746 126.954L194.667 127.928L194.662 127.986L194.63 128.388L194.625 128.446L194.593 128.847L194.588 128.905L194.555 129.306L194.551 129.364L194.504 129.937L194.566 129.866L194.645 128.891L194.649 128.833L194.719 127.973L194.724 127.915L194.807 126.883Z" fill="#37474F"/>
<path d="M195.292 126.318L195.231 126.39L195.228 126.444L195.222 126.503L195.115 127.823L195.11 127.881L195.041 128.742L195.036 128.8L194.99 129.373L195.052 129.3L195.056 129.246L195.06 129.188L195.093 128.786L195.097 128.728L195.13 128.327L195.135 128.269L195.167 127.868L195.172 127.81L195.204 127.408L195.247 126.89L195.28 126.488L195.285 126.43L195.292 126.318Z" fill="#37474F"/>
<path d="M195.779 125.75L195.717 125.823L195.713 125.877L195.709 125.935L195.675 126.335L195.672 126.394L195.639 126.796L195.633 126.855L195.601 127.256L195.596 127.314L195.563 127.716L195.559 127.774L195.526 128.175L195.522 128.233L195.489 128.634L195.484 128.692L195.477 128.804L195.538 128.733L195.621 127.701L195.653 127.301L195.659 127.241L195.691 126.84L195.696 126.782L195.728 126.381L195.733 126.323L195.779 125.75Z" fill="#37474F"/>
<path d="M196.265 125.184L196.203 125.255L196.124 126.229L196.12 126.287L196.087 126.688L196.05 127.148L196.044 127.207L196.012 127.609L196.007 127.667L195.961 128.239L196.023 128.166L196.07 127.594L196.102 127.192L196.107 127.134L196.176 126.274L196.181 126.216L196.265 125.184Z" fill="#37474F"/>
<path d="M196.658 125.076L196.646 125.204L196.643 125.263L196.573 126.123L196.568 126.181L196.499 127.042L196.494 127.1L196.461 127.501L196.455 127.561L196.448 127.673L196.509 127.601L196.513 127.546L196.518 127.488L196.551 127.087L196.555 127.028L196.592 126.569L196.625 126.168L196.63 126.11L196.662 125.709L196.667 125.651L196.699 125.249L196.704 125.191L196.71 125.121L196.658 125.076Z" fill="#37474F"/>
<path d="M197.069 125.428L197.053 125.614L197.021 126.016L197.016 126.074L196.984 126.475L196.979 126.533L196.947 126.934L196.942 126.992L196.933 127.106L196.994 127.034L197.11 125.601L197.115 125.543L197.122 125.473L197.069 125.428Z" fill="#37474F"/>
<path d="M197.48 125.781L197.418 126.541L197.481 126.468L197.489 126.356L197.521 125.955L197.526 125.896L197.533 125.827L197.48 125.781Z" fill="#37474F"/>
<path d="M192.446 132.063L192.498 132.108L192.571 132.089L192.627 132.076L192.68 132.064L192.743 131.991L192.446 132.063Z" fill="#37474F"/>
<path d="M192.034 131.711L192.087 131.757L193.167 131.498L193.228 131.427L193.117 131.453L193.061 131.467L192.669 131.56L192.612 131.573L192.221 131.667L192.163 131.682L192.034 131.711Z" fill="#37474F"/>
<path d="M191.623 131.357L191.676 131.403L191.804 131.372L192.195 131.279L192.253 131.264L192.645 131.171L192.702 131.157L193.093 131.064L193.15 131.051L193.542 130.957L193.598 130.944L193.652 130.931L193.714 130.859L193.603 130.886L193.546 130.899L193.155 130.993L192.65 131.113L192.258 131.206L192.201 131.219L191.623 131.357Z" fill="#37474F"/>
<path d="M191.288 130.988L191.247 131.036L191.263 131.051L192.682 130.713L192.739 130.699L193.13 130.606L193.187 130.593L193.579 130.499L193.635 130.486L194.028 130.391L194.085 130.378L194.138 130.366L194.2 130.293L193.641 130.426L193.583 130.441L193.192 130.535L192.687 130.655L192.295 130.748L192.239 130.762L191.288 130.988Z" fill="#37474F"/>
<path d="M191.773 130.422L191.712 130.493L191.823 130.467L191.879 130.454L192.271 130.36L192.328 130.347L192.719 130.254L192.776 130.24L193.168 130.147L193.224 130.133L193.616 130.04L194.122 129.918L194.512 129.827L194.57 129.812L194.623 129.8L194.684 129.729L194.575 129.754L194.518 129.767L194.127 129.86L194.07 129.874L193.678 129.967L193.621 129.982L193.229 130.075L193.172 130.089L192.781 130.182L192.724 130.196L192.332 130.289L192.275 130.301L191.884 130.395L191.828 130.409L191.773 130.422Z" fill="#37474F"/>
<path d="M192.26 129.854L192.197 129.927L192.308 129.9L192.365 129.887L192.757 129.794L193.261 129.673L193.653 129.58L193.711 129.565L194.101 129.473L194.159 129.458L194.551 129.365L194.608 129.352L194.999 129.258L195.056 129.245L195.109 129.234L195.171 129.16L195.06 129.187L195.004 129.2L194.612 129.294L194.107 129.414L193.716 129.507L192.819 129.72L192.76 129.734L192.37 129.829L192.313 129.842L192.26 129.854Z" fill="#37474F"/>
<path d="M192.746 129.287L192.684 129.359L193.3 129.212L193.69 129.12L193.748 129.105L194.14 129.012L194.196 128.999L194.588 128.905L194.645 128.892L195.036 128.799L195.093 128.785L195.484 128.692L195.541 128.678L195.594 128.667L195.657 128.594L195.546 128.62L195.489 128.634L195.098 128.727L195.041 128.741L194.649 128.834L194.144 128.954L193.753 129.047L193.696 129.061L193.305 129.154L193.247 129.167L192.8 129.274L192.746 129.287Z" fill="#37474F"/>
<path d="M193.231 128.721L193.17 128.792L193.279 128.767L193.337 128.752L193.729 128.659L193.785 128.646L194.177 128.552L194.233 128.539L194.625 128.446L194.682 128.432L195.073 128.339L195.13 128.326L195.522 128.232L195.578 128.219L195.97 128.126L196.026 128.112L196.081 128.099L196.142 128.028L196.033 128.052L195.975 128.068L195.583 128.161L195.078 128.281L194.686 128.374L194.63 128.388L194.238 128.481L194.182 128.494L193.79 128.588L193.732 128.6L193.342 128.694L193.285 128.708L193.231 128.721Z" fill="#37474F"/>
<path d="M193.718 128.155L193.655 128.228L193.766 128.201L193.822 128.188L194.214 128.095L194.719 127.974L195.11 127.881L195.167 127.868L195.559 127.775L195.615 127.761L196.007 127.668L196.064 127.654L196.455 127.561L196.566 127.535L196.627 127.463L195.563 127.717L195.172 127.81L195.115 127.823L194.724 127.916L194.667 127.93L194.275 128.023L194.218 128.036L193.827 128.13L193.77 128.143L193.718 128.155Z" fill="#37474F"/>
<path d="M194.203 127.588L194.142 127.659L194.308 127.621L194.699 127.528L194.756 127.514L195.148 127.421L195.204 127.408L195.596 127.314L195.653 127.301L196.55 127.086L196.942 126.993L196.999 126.979L197.051 126.968L197.114 126.895L197.003 126.921L196.947 126.935L196.555 127.028L196.498 127.041L196.107 127.135L196.05 127.148L195.659 127.241L195.601 127.256L195.21 127.348L195.152 127.363L194.761 127.456L194.703 127.469L194.313 127.563L194.256 127.577L194.203 127.588Z" fill="#37474F"/>
<path d="M194.688 127.021L194.626 127.095L194.737 127.068L194.793 127.055L195.185 126.961L195.241 126.948L195.633 126.855L195.691 126.84L196.083 126.746L196.139 126.733L196.531 126.64L196.587 126.626L196.979 126.533L197.036 126.52L197.427 126.426L197.484 126.413L197.538 126.4L197.6 126.328L197.489 126.355L197.432 126.368L197.04 126.462L196.536 126.582L196.144 126.675L196.087 126.688L195.247 126.888L195.188 126.902L194.799 126.995L194.741 127.01L194.688 127.021Z" fill="#37474F"/>
<path d="M195.174 126.456L195.113 126.528L196.177 126.274L196.568 126.181L196.625 126.168L197.016 126.074L197.073 126.061L197.465 125.968L197.647 125.924L197.595 125.88L197.526 125.896L197.469 125.91L197.078 126.003L197.021 126.016L196.63 126.11L196.573 126.123L196.181 126.216L196.125 126.23L195.733 126.323L195.675 126.336L195.228 126.443L195.174 126.456Z" fill="#37474F"/>
<path d="M195.659 125.89L195.598 125.962L195.709 125.935L195.766 125.922L196.157 125.829L196.214 125.815L196.605 125.722L196.662 125.708L197.054 125.615L197.11 125.602L197.236 125.572L197.183 125.526L197.115 125.544L197.058 125.557L196.667 125.65L196.61 125.664L196.218 125.757L196.161 125.77L195.77 125.864L195.714 125.877L195.659 125.89Z" fill="#37474F"/>
<path d="M196.146 125.323L196.083 125.396L196.194 125.369L196.251 125.356L196.643 125.263L196.824 125.218L196.772 125.174L196.256 125.298L196.199 125.311L196.146 125.323Z" fill="#37474F"/>
<path d="M185.062 133.961C185.712 133.202 186.511 132.601 187.358 132.232C188.205 131.864 189.061 131.745 189.819 131.891C190.577 132.037 191.203 132.441 191.616 133.052C192.03 133.664 192.213 134.454 192.143 135.325C192.072 136.195 191.752 137.106 191.221 137.942C190.691 138.778 189.975 139.502 189.163 140.022C188.351 140.542 187.48 140.834 186.661 140.863C185.842 140.892 185.11 140.655 184.559 140.182C183.822 139.548 183.461 138.537 183.555 137.371C183.65 136.204 184.191 134.978 185.062 133.961ZM185.583 134.408C185.056 135.023 184.673 135.738 184.482 136.463C184.292 137.187 184.303 137.888 184.514 138.477C184.724 139.067 185.126 139.518 185.667 139.774C186.208 140.029 186.864 140.078 187.553 139.914C188.242 139.75 188.932 139.381 189.537 138.852C190.142 138.324 190.633 137.66 190.949 136.945C191.266 136.23 191.393 135.496 191.315 134.836C191.236 134.176 190.956 133.619 190.509 133.236C189.909 132.724 189.054 132.561 188.131 132.781C187.208 133 186.292 133.586 185.583 134.408Z" fill="#263238"/>
<path d="M184.745 136.736L180.891 141.23L178.351 146.181L179.577 147.233L184.084 143.968L187.938 139.474L184.745 136.736Z" fill="#37474F"/>
<path d="M179.42 145.639C179.429 145.522 179.473 145.399 179.544 145.287C179.615 145.174 179.712 145.077 179.821 145.007C179.93 144.937 180.048 144.898 180.158 144.894C180.268 144.89 180.366 144.922 180.441 144.986C180.515 145.049 180.561 145.142 180.574 145.251C180.587 145.361 180.566 145.482 180.514 145.601C180.461 145.72 180.38 145.83 180.28 145.918C180.179 146.005 180.065 146.067 179.951 146.094C179.797 146.13 179.655 146.103 179.556 146.017C179.456 145.932 179.407 145.796 179.42 145.639Z" fill="#DBDBDB"/>
<path d="M179.855 146.102L179.949 144.936C179.983 144.923 180.017 144.912 180.051 144.902C180.084 144.896 180.117 144.892 180.149 144.89L180.055 146.056C180.022 146.069 179.988 146.08 179.955 146.088C179.921 146.096 179.887 146.101 179.855 146.102Z" fill="#C7C7C7"/>
<path d="M184.819 140.417C184.705 140.444 184.596 140.436 184.507 140.393C184.417 140.35 184.35 140.276 184.315 140.178C184.28 140.08 184.279 139.964 184.31 139.843C184.342 139.723 184.406 139.605 184.493 139.503C184.581 139.401 184.688 139.32 184.802 139.27C184.916 139.22 185.031 139.204 185.133 139.224C185.235 139.244 185.319 139.298 185.375 139.38C185.431 139.462 185.456 139.569 185.446 139.686C185.44 139.764 185.419 139.844 185.384 139.923C185.349 140.002 185.301 140.078 185.243 140.146C185.185 140.214 185.117 140.272 185.045 140.319C184.972 140.365 184.895 140.399 184.819 140.417Z" fill="#DBDBDB"/>
<path d="M185.428 139.791L184.29 140.062C184.282 139.997 184.288 139.927 184.307 139.855L185.445 139.584C185.452 139.649 185.447 139.72 185.428 139.791Z" fill="#C7C7C7"/>
</g>
<defs>
<clipPath id="clip0_682_25632">
<rect width="200" height="200" fill="white"/>
</clipPath>
</defs>
</svg>
