<svg width="200" height="200" viewBox="0 0 200 200" fill="none" xmlns="http://www.w3.org/2000/svg">
<path fill-rule="evenodd" clip-rule="evenodd" d="M95.3511 40.0786C119.484 41.5624 131.191 65.3973 145.943 82.1754C157.899 95.7741 168.961 109.409 171.286 126.445C173.971 146.122 175.558 168.605 159.663 182.721C143.717 196.882 117.964 195.809 95.3511 193.883C72.1366 194.322 53.3796 187.342 42.4481 172.737C26.9316 160.174 13.0786 144.922 12.0648 126.445C11.0113 107.244 22.9446 90.1752 37.1121 75.4837C52.9597 59.05 70.8381 38.5713 95.3511 40.0786Z" fill="#FFF3CC"/>
<path d="M92.0601 44.8647L92.9295 44.8164C97.1236 44.5763 101.254 45.9237 104.5 48.5907C107.746 51.2577 109.869 55.0488 110.446 59.2099C111.557 67.2599 108.823 69.6774 109 74.0002C109.411 82.968 102.184 88.5002 102.184 88.5002L104.707 94.952C104.833 96.3825 104.674 97.8237 104.241 99.1929C103.809 100.562 103.109 101.832 102.184 102.93C101.259 104.029 100.125 104.933 98.8495 105.592C97.5735 106.251 96.1799 106.651 94.7488 106.769C91.8972 106.998 89.07 106.096 86.8772 104.259C84.6845 102.422 83.302 99.796 83.028 96.9484L79.808 63.6937C78.5039 54.4362 82.7704 45.9515 92.0601 44.8647Z" fill="#FFBF9D"/>
<path d="M102 88.5007C97.8507 88.7417 93.6289 87.6491 90 85.6777C90 85.6777 94.1185 91.7827 103 90.5007L102 88.5007Z" fill="#FF9A6C"/>
<path d="M95.996 68.3284C96.0248 68.7349 95.8978 69.1368 95.6425 69.447C95.3872 69.7572 95.0242 69.9508 94.632 69.9858C94.4413 70.0133 94.2472 70.0008 94.0612 69.9492C93.8752 69.8975 93.7011 69.8078 93.5492 69.6852C93.3973 69.5627 93.2706 69.4099 93.1768 69.2358C93.083 69.0617 93.0238 68.8698 93.0028 68.6716C92.9789 68.2663 93.1076 67.8672 93.362 67.5581C93.6163 67.249 93.9765 67.054 94.3668 67.0142C94.5575 66.9867 94.7516 66.9992 94.9376 67.0509C95.1236 67.1025 95.2977 67.1922 95.4496 67.3148C95.6015 67.4373 95.7282 67.5901 95.822 67.7642C95.9158 67.9383 95.975 68.1302 95.996 68.3284Z" fill="#263238"/>
<path d="M108.788 63.701C108.635 63.8781 107.629 63.21 106.252 63.2985C104.876 63.3871 103.902 64.1035 103.749 63.9667C103.596 63.8298 103.813 63.5883 104.232 63.2422C104.804 62.793 105.501 62.5316 106.228 62.4935C106.943 62.4539 107.653 62.6397 108.257 63.0248C108.683 63.3227 108.844 63.6125 108.788 63.701Z" fill="#263238"/>
<path d="M107.997 68.3284C108.021 68.7337 107.892 69.1328 107.638 69.4419C107.384 69.751 107.023 69.946 106.633 69.9858C106.442 70.0133 106.248 70.0008 106.062 69.9491C105.876 69.8975 105.702 69.8078 105.55 69.6852C105.398 69.5627 105.271 69.4099 105.177 69.2358C105.084 69.0617 105.024 68.8698 105.003 68.6716C104.977 68.2657 105.105 67.8652 105.36 67.5556C105.615 67.2459 105.976 67.0516 106.368 67.0142C106.558 66.9867 106.753 66.9992 106.939 67.0509C107.125 67.1025 107.299 67.1922 107.451 67.3148C107.603 67.4373 107.729 67.5901 107.823 67.7642C107.917 67.9383 107.976 68.1302 107.997 68.3284Z" fill="#263238"/>
<path d="M95.256 64.7316C95.1111 64.9087 94.0968 64.2486 92.7202 64.3291C91.3437 64.4096 90.3777 65.1341 90.2167 64.9973C90.0557 64.8604 90.2811 64.6189 90.7077 64.2728C91.2758 63.8278 91.9674 63.5691 92.688 63.5322C93.4038 63.4864 94.1152 63.6727 94.7166 64.0635C95.1674 64.3613 95.3284 64.6511 95.256 64.7316Z" fill="#263238"/>
<path d="M100.835 74.6567C101.546 74.3823 102.29 74.201 103.049 74.1173C103.403 74.061 103.725 73.9724 103.773 73.7309C103.785 73.3658 103.684 73.0059 103.483 72.7005C103.097 71.8955 102.678 71.002 102.284 70.0843C100.626 66.3571 99.4019 63.29 99.5468 63.2256C99.6917 63.1612 101.157 66.1237 102.831 69.8508C103.234 70.7685 103.636 71.646 103.982 72.4832C104.225 72.8956 104.318 73.3786 104.248 73.8517C104.204 73.9799 104.132 74.0961 104.035 74.1911C103.939 74.2862 103.821 74.3574 103.693 74.3991C103.503 74.4654 103.305 74.506 103.105 74.5198C102.356 74.6547 101.594 74.7006 100.835 74.6567Z" fill="#263238"/>
<path d="M95.3593 60.4005C95.2385 60.7788 93.8539 60.6822 92.252 60.972C90.65 61.2618 89.3701 61.777 89.1366 61.447C89.032 61.294 89.2413 60.9318 89.7404 60.5373C90.4175 60.0516 91.1965 59.7266 92.0181 59.5871C92.8397 59.4476 93.6823 59.4973 94.4818 59.7323C95.0856 59.9416 95.4076 60.2153 95.3593 60.4005Z" fill="#263238"/>
<path d="M108.086 60.827C107.869 61.149 106.903 60.8833 105.76 60.9316C104.617 60.9799 103.667 61.2617 103.425 60.9316C103.321 60.7787 103.425 60.4567 103.852 60.1266C104.397 59.7358 105.049 59.5197 105.72 59.5068C106.392 59.4784 107.056 59.6614 107.619 60.03C108.038 60.352 108.191 60.666 108.086 60.827Z" fill="#263238"/>
<path d="M109.344 55.1525C109.344 55.1525 106.663 49.6784 103.878 48.5192C100.513 47.1266 99.3133 50.8054 96.1416 50.1292C92.9699 49.453 89.7579 48.1006 86.707 50.6927C83.3743 53.5344 85.097 55.2974 85.097 59.2821C85.1453 75.4385 82.4646 80.1639 81.1927 72.629C81.0559 71.824 78.7052 71.2686 78.1659 67.799C77.4575 63.2749 76.9664 57.7526 77.7956 54.4602C78.4959 51.6909 79.9369 49.7187 82.6256 47.4808C86.8358 43.9549 92.8652 43.5363 96.9949 43.7134C101.125 43.8905 109.319 48.1006 109.344 55.1525Z" fill="#263238"/>
<path d="M81.7803 72.3236C81.7532 71.9929 81.6583 71.6713 81.5014 71.3788C81.3446 71.0864 81.1291 70.8295 80.8685 70.624C80.6079 70.4185 80.3078 70.269 79.9868 70.1847C79.6658 70.1004 79.331 70.0831 79.003 70.134C77.3447 70.3916 75.5415 71.4462 75.8474 74.8916C76.3948 81.0016 82.4162 79.1903 82.4162 79.0132C82.4162 78.8361 82.0298 74.8835 81.7803 72.3236Z" fill="#FFBF9D"/>
<path d="M80.8948 76.8303C80.8948 76.8303 80.7982 76.9188 80.6211 77.0154C80.3742 77.1475 80.0858 77.1793 79.8161 77.104C79.156 76.9269 78.52 75.9448 78.3912 74.85C78.3275 74.3266 78.3825 73.7955 78.5522 73.2963C78.5923 73.1011 78.6792 72.9186 78.8054 72.7643C78.9316 72.6101 79.0933 72.4888 79.2767 72.4108C79.3957 72.3686 79.5255 72.3688 79.6444 72.4113C79.7632 72.4538 79.8637 72.5361 79.9288 72.6443C80.0334 72.8053 80.0012 72.934 80.0334 72.9421C80.0656 72.9501 80.1542 72.8294 80.0817 72.5798C80.0362 72.4305 79.9392 72.3022 79.808 72.2176C79.6284 72.1045 79.4114 72.0669 79.2043 72.1129C78.9589 72.1861 78.7363 72.3205 78.5574 72.5036C78.3785 72.6868 78.2493 72.9125 78.1819 73.1595C77.9686 73.7126 77.894 74.3096 77.9646 74.8983C78.1175 76.1299 78.8501 77.2247 79.7517 77.4018C79.9198 77.4353 80.0934 77.4302 80.2593 77.387C80.4252 77.3438 80.5792 77.2635 80.7096 77.1523C80.8948 76.9832 80.9189 76.8464 80.8948 76.8303Z" fill="#FF9A6C"/>
<path d="M110.648 48.5191C109.706 47.8107 108.41 47.7141 107.476 46.9977C103.316 43.8042 96.6129 37.7091 90.8888 40.8959C88.7107 42.1085 85.9615 42.2125 84.0181 43.6006C83.4528 44.0475 82.9874 44.608 82.6519 45.2458C82.3164 45.8835 82.1182 46.5845 82.07 47.3036C82.07 47.3036 81.4341 46.9816 79.5021 48.5111C78.2704 49.4851 77.2642 51.5862 76.8134 53.0835C76.1452 55.3294 77.1193 57.6962 78.0772 59.8294C78.5924 60.9806 79.2364 62.2444 80.4359 62.655C81.8929 63.146 83.5029 62.0029 84.0745 60.57C84.646 59.1371 85.5476 57.6962 86.2399 56.3196C87.4474 53.9046 88.6549 51.6989 87.6648 50.1694C90.93 49.1089 93.0942 51.0056 95.9966 52.0289C97.2173 52.4594 102.143 53.276 103.5 52.9513C103.939 52.8464 104.349 52.6439 104.699 52.359C105.252 53.2599 106.124 53.9194 107.141 54.2059C108.159 54.4923 109.247 54.3848 110.189 53.9046C112.008 52.7776 112.33 49.791 110.648 48.5191Z" fill="#263238"/>
<path d="M77.4653 58.3875C77.7478 58.8294 77.9852 59.2987 78.1737 59.7882C78.3945 60.2826 78.7415 60.7102 79.18 61.0279C79.7661 61.3278 80.4411 61.405 81.0798 61.2452C81.7438 61.1164 82.3707 60.8414 82.9152 60.4402C83.3543 60.0994 83.7539 59.7106 84.1066 59.281C84.4148 58.8596 84.7568 58.4638 85.129 58.0977C84.9327 58.5852 84.6611 59.0388 84.324 59.442C83.9868 59.9161 83.5859 60.3413 83.1325 60.7059C82.5515 61.1447 81.8763 61.4424 81.1603 61.5753C80.4348 61.7551 79.6679 61.6484 79.019 61.2774C78.5341 60.9224 78.1645 60.4324 77.9564 59.8687C77.7324 59.397 77.5674 58.8995 77.4653 58.3875Z" fill="#FFD000"/>
<path d="M77.6989 63.1146C78.0674 63.394 78.474 63.619 78.9065 63.7828C79.3769 63.9318 79.8743 63.9757 80.3635 63.9116C80.9641 63.8203 81.5379 63.6007 82.046 63.2676C82.9688 62.6266 83.7521 61.805 84.3483 60.8526C84.5759 60.4394 84.8457 60.0509 85.1533 59.6934C85.0124 60.1539 84.8035 60.5907 84.5334 60.9894C83.9864 62.0378 83.1937 62.9383 82.2231 63.6137C81.6703 63.9795 81.0384 64.2085 80.3796 64.2819C79.8332 64.342 79.2805 64.2674 78.7696 64.0645C77.9485 63.6701 77.6587 63.1227 77.6989 63.1146Z" fill="#FFD000"/>
<path d="M96.7029 79.6289C96.4969 79.9662 96.3821 80.3164 96.3615 80.6697C96.3372 80.8368 96.3835 81.0047 96.4972 81.1618C96.6109 81.319 96.7894 81.4618 97.0205 81.5804C97.2599 81.7262 97.5589 81.8432 97.8964 81.9233C98.2338 82.0034 98.6015 82.0446 98.9734 82.0439C99.6443 82.0432 100.293 81.92 100.802 81.6964C101.311 81.4729 101.648 81.1636 101.752 80.8242L101.99 80.0558C100.601 79.8525 96.8061 79.6818 96.7029 79.6289Z" fill="#FF9A6C"/>
<path d="M100.948 81.1252C100.948 81.1252 100.753 81.1252 100.431 81.1411C99.9786 81.163 99.5184 81.163 99.0662 81.1411C98.4134 81.1089 97.8233 81.0007 97.4135 80.8381C96.9255 80.6348 96.6932 80.3822 96.7609 80.1285C96.7805 79.9858 96.8991 79.8462 97.1084 79.7193L96.9049 79.7485C98.3542 79.8176 99.6256 79.8734 100.524 79.9053C101.007 79.9336 101.499 79.9452 101.99 79.9399C101.532 79.884 101.054 79.8465 100.566 79.8282C99.668 79.7751 98.4136 79.7033 96.9643 79.6289H96.8287L96.7693 79.6661C96.4444 79.8636 96.3061 80.086 96.3707 80.3073C96.4353 80.5286 96.7 80.7395 97.1338 80.9152C97.6097 81.0951 98.291 81.2096 99.0323 81.2341C99.514 81.2474 99.9994 81.233 100.465 81.1916C100.639 81.1806 100.804 81.1579 100.948 81.1252Z" fill="#263238"/>
<path d="M60.4881 106.576C59.9568 106.576 52.3737 109.603 50.3773 117.041C48.3809 124.479 42.931 151.769 42.931 151.769L37.1431 159.787C37.1431 159.787 39.0187 174.414 49.6528 171.628C49.6528 171.628 56.7529 172.868 59.015 165.671C61.277 158.475 65.6643 137.005 65.6643 137.005L60.4881 106.576Z" fill="#B9B8B6"/>
<path d="M82.1472 94L78.1204 100.196L60 106.752L65.1865 160.234L63.2697 188.228C80 197.5 124.262 195.715 127 194.5C128.425 194.459 128.681 191.408 128.914 189.425C129.115 187.645 128.962 185.841 128.463 184.123L125.459 173.403C125.902 180.074 123.937 133.607 123.848 131.911L128.238 108.006L107.621 99.5154L104.399 94.5081L95.1215 101.687L82.1472 94Z" fill="#B9B8B6"/>
<path d="M128.664 107.84C128.664 107.84 132.809 111.478 133.494 114.28C134.178 117.081 149.087 149.354 149.087 149.354L156.493 151.35L158.473 155.456C159.63 157.81 159.941 160.49 159.355 163.047C158.768 165.603 157.32 167.88 155.253 169.495C154.995 169.69 154.727 169.871 154.448 170.034C150.423 172.449 143.258 172.321 139.064 167.378C135.096 162.693 123.479 145.852 123.479 145.852V125.244L128.664 107.84Z" fill="#B9B8B6"/>
<path d="M152.95 152.59L163.601 146.303L168.737 152.59L167.674 155.633L153.941 165.848C152.236 164.457 151.092 162.495 150.721 160.326C150.117 156.486 152.95 152.59 152.95 152.59Z" fill="#FFBF9D"/>
<path d="M149.569 149.337C149.569 149.442 148.66 149.337 147.324 149.788C145.597 150.385 144.068 151.446 142.904 152.855C141.754 154.295 140.806 155.885 140.087 157.581C139.815 158.307 139.478 159.008 139.08 159.674C139.188 158.901 139.405 158.147 139.724 157.436C140.357 155.646 141.291 153.977 142.485 152.501C143.707 151.009 145.361 149.932 147.219 149.418C147.979 149.167 148.794 149.139 149.569 149.337Z" fill="#263238"/>
<path d="M163.424 149.789C163.158 148.399 163.253 146.964 163.7 145.621C164.147 144.277 164.93 143.071 165.976 142.117C168.49 140.049 171.334 138.416 174.388 137.287C176.255 136.482 180.144 133.206 180.828 133.995C181.512 134.784 181.818 135.959 180.828 137.392C179.838 138.825 174.211 140.958 175 142.769C175.322 143.502 177.093 143.639 177.093 143.639C180.307 143.865 183.531 143.929 186.753 143.832C189.602 143.582 192.162 144.13 192.009 145.112C191.856 146.094 191.325 146.633 188.966 146.834C186.608 147.036 182.768 146.883 182.526 147.422C182.285 147.961 183.122 148.308 184.499 148.227C185.875 148.147 192.363 148.122 192.806 148.863C192.914 149.051 192.979 149.261 192.996 149.477C193.013 149.692 192.981 149.91 192.904 150.112C192.827 150.314 192.706 150.497 192.55 150.648C192.394 150.798 192.207 150.911 192.001 150.98L190.48 151.52C190.48 151.52 191.365 152.751 190.625 153.435C189.884 154.12 188.21 153.878 188.21 153.878L179.604 153.637C179.604 153.637 179.113 154.152 179.355 154.506C179.596 154.86 186.342 154.369 186.39 155.11C186.439 155.85 187.026 156.189 185.014 156.72C182.066 157.211 179.058 157.211 176.11 156.72C174.291 156.221 166.668 155.915 166.668 155.915L163.424 149.789Z" fill="#FFBF9D"/>
<path d="M46.4649 153.709L36.507 145.449L30.7915 151.889L31.4919 155.037L43.9372 166.758C45.7822 165.7 47.1744 164.001 47.8495 161.984C49.0892 158.434 46.4649 153.709 46.4649 153.709Z" fill="#FFBF9D"/>
<path d="M36.3943 149.747C36.8225 148.399 36.8994 146.964 36.6176 145.578C36.3359 144.192 35.7048 142.9 34.7843 141.826C32.5191 139.475 29.8704 137.526 26.9516 136.062C25.1967 135.008 21.7191 131.337 20.9382 132.037C20.4752 132.455 20.1799 133.026 20.1074 133.646C20.0348 134.265 20.1899 134.889 20.5438 135.402C21.3488 136.94 25.2289 138.727 25.092 140.699C25.0778 140.89 25.026 141.076 24.9398 141.247C24.8536 141.418 24.7346 141.57 24.5896 141.695C24.4446 141.82 24.2764 141.915 24.0946 141.975C23.9129 142.034 23.7211 142.058 23.5303 142.044C20.3183 141.896 17.1157 141.587 13.9347 141.118C11.1252 140.538 8.52508 140.78 8.55728 141.77C8.58948 142.76 9.06443 143.38 11.3828 143.839C13.7012 144.298 17.5331 144.644 17.6619 145.167C17.7907 145.69 16.9776 145.972 15.6171 145.722C14.2567 145.473 7.81668 144.708 7.29343 145.392C7.16372 145.564 7.07381 145.763 7.03018 145.974C6.98654 146.185 6.99027 146.403 7.04109 146.613C7.09191 146.822 7.18855 147.018 7.32406 147.185C7.45957 147.353 7.63057 147.488 7.82473 147.582L9.27373 148.298C9.27373 148.298 8.25138 149.417 8.90343 150.182C9.55548 150.947 11.246 150.907 11.246 150.907L19.8273 151.663C19.8273 151.663 20.254 152.235 19.9642 152.557C19.6744 152.879 13.0492 151.607 12.9123 152.34C12.7755 153.072 12.1476 153.338 14.0957 154.062C16.9698 154.895 19.9619 155.246 22.9507 155.101C24.8183 154.819 32.4336 155.366 32.4336 155.366L36.3943 149.747Z" fill="#FFBF9D"/>
<path d="M107.54 101.006C107.002 101.678 106.404 102.301 105.753 102.865C104.618 103.976 103.065 105.53 101.422 107.301C101.076 107.679 100.73 108.05 100.408 108.412L100.191 108.645L99.9894 108.396C98.7175 106.786 97.6146 105.305 96.8418 104.25C96.3881 103.714 96.0015 103.125 95.6907 102.495C96.225 102.952 96.7058 103.468 97.1236 104.033C97.9688 105.031 99.128 106.448 100.416 108.058H100.005L101.012 106.939C102.426 105.41 103.92 103.956 105.488 102.584C106.105 101.976 106.794 101.446 107.54 101.006Z" fill="#263238"/>
<path d="M61.623 120.502C61.771 120.857 61.8711 121.231 61.9209 121.613C62.0738 122.337 62.267 123.392 62.4763 124.696C62.8949 127.304 63.3377 130.927 63.708 134.936C64.0783 138.945 64.352 142.583 64.5613 145.216C64.6418 146.439 64.7223 147.478 64.7786 148.331C64.8291 148.713 64.8291 149.1 64.7786 149.482C64.6638 149.115 64.5882 148.738 64.5532 148.355C64.4405 147.622 64.3037 146.56 64.1588 145.248C63.8529 142.631 63.5148 139.001 63.1445 134.992C62.7742 130.983 62.4119 127.369 62.098 124.793C61.945 123.577 61.8162 122.539 61.7116 121.693C61.6284 121.302 61.5986 120.901 61.623 120.502Z" fill="#263238"/>
<path d="M124.606 118.676C124.721 119.132 124.789 119.599 124.808 120.068C124.896 120.978 124.993 122.282 125.073 123.908C125.258 127.128 125.347 131.636 125.363 136.579V153.09C125.389 153.56 125.37 154.032 125.307 154.498C125.202 154.039 125.151 153.569 125.154 153.098C125.089 152.188 125.025 150.876 124.977 149.258C124.864 146.038 124.824 141.53 124.816 136.587C124.808 131.644 124.767 127.161 124.687 123.924C124.647 122.387 124.614 121.099 124.59 120.085C124.552 119.615 124.557 119.144 124.606 118.676Z" fill="#263238"/>
<path d="M53.4522 165.123C53.2003 164.209 53.0147 163.279 52.8968 162.338C52.5196 160.092 51.7915 157.918 50.7394 155.898C49.6657 153.917 48.0523 152.282 46.0865 151.181C45.2411 150.777 44.3666 150.438 43.4702 150.166C43.7354 150.109 44.01 150.109 44.2752 150.166C44.9726 150.283 45.6502 150.497 46.2877 150.802C48.4029 151.857 50.1364 153.546 51.2465 155.632C52.3118 157.706 52.9884 159.957 53.2429 162.274C53.4324 163.211 53.5027 164.168 53.4522 165.123Z" fill="#263238"/>
<path d="M56.0364 154.248C55.9237 154.377 54.3217 152.727 51.7135 151.833C49.1053 150.94 46.8835 151.246 46.8352 151.077C46.7869 150.908 49.1456 150.36 51.8906 151.318C54.6357 152.276 56.1571 154.184 56.0364 154.248Z" fill="#263238"/>
<path d="M96.8901 191.656C96.8413 191.358 96.8197 191.057 96.8257 190.755C96.8257 190.119 96.8257 189.258 96.7693 188.179C96.721 185.885 96.6566 182.657 96.5761 178.688C96.391 170.638 96.1334 159.585 95.8436 147.381C95.5538 135.177 95.4008 124.076 95.4169 116.059C95.4169 112.034 95.4572 108.814 95.5055 106.56C95.5055 105.481 95.5618 104.62 95.586 103.984C95.5792 103.682 95.6008 103.38 95.6504 103.082C95.6728 103.382 95.6728 103.684 95.6504 103.984C95.6504 104.62 95.6504 105.481 95.6504 106.56C95.6504 108.854 95.6987 112.09 95.7309 116.051C95.8114 124.101 96.0448 135.137 96.3185 147.365C96.5922 159.593 96.8337 170.662 96.8981 178.68C96.8981 182.705 96.8981 185.925 96.8981 188.179C96.8981 189.258 96.8981 190.119 96.8579 190.755C96.8892 191.054 96.8999 191.356 96.8901 191.656Z" fill="#263238"/>
<path d="M45.9979 153.37C45.9979 153.305 46.8029 153.909 47.4469 155.246C47.8415 156.007 48.1287 156.82 48.3002 157.661C48.4655 158.728 48.4655 159.814 48.3002 160.881C48.18 161.949 47.8634 162.986 47.3664 163.94C46.936 164.713 46.3427 165.383 45.6276 165.904C44.9987 166.426 44.2068 166.71 43.3896 166.709C44.0971 166.416 44.7673 166.041 45.3861 165.59C46.0209 165.069 46.5439 164.426 46.9236 163.698C47.3544 162.788 47.6266 161.81 47.7286 160.808C47.8735 159.804 47.8735 158.785 47.7286 157.781C47.5903 156.952 47.3553 156.141 47.0283 155.366C46.5292 154.086 45.9174 153.418 45.9979 153.37Z" fill="#263238"/>
<path d="M155.937 166.967C155.937 166.967 155.679 166.967 155.269 166.765C154.693 166.511 154.151 166.184 153.659 165.791C151.972 164.492 150.818 162.621 150.415 160.531C150.012 158.44 150.387 156.274 151.469 154.441C151.785 153.89 152.169 153.381 152.612 152.927C152.926 152.621 153.128 152.476 153.152 152.501C153.176 152.525 152.508 153.249 151.807 154.626C150.871 156.407 150.569 158.453 150.951 160.428C151.333 162.404 152.376 164.19 153.908 165.493C155.06 166.508 155.977 166.878 155.937 166.967Z" fill="#263238"/>
<path d="M176.408 140.41C176.473 140.475 176.006 140.917 175.418 141.698C175.08 142.145 174.846 142.662 174.734 143.212C174.605 143.831 174.621 144.556 174.509 145.353C174.413 146.037 174.182 146.695 173.829 147.29C173.477 147.884 173.01 148.402 172.456 148.814C172.032 149.196 171.495 149.428 170.926 149.474C170.886 149.386 171.482 149.161 172.214 148.508C173.157 147.673 173.778 146.534 173.969 145.288C174.022 144.56 174.114 143.834 174.243 143.115C174.397 142.515 174.695 141.963 175.112 141.505C175.45 141.042 175.895 140.666 176.408 140.41Z" fill="#FF9A6C"/>
<path d="M21.1394 148.879C21.1394 149.024 18.4588 149.169 15.1502 149.008C11.8417 148.847 9.18514 148.46 9.20124 148.307C9.21734 148.155 11.8819 148.307 15.1744 148.46C18.4668 148.613 21.1394 148.718 21.1394 148.879Z" fill="#FF9A6C"/>
<path d="M27.2332 148.42C27.2332 148.477 26.5973 148.372 25.8406 147.736C25.3505 147.31 24.9606 146.781 24.699 146.187C24.4374 145.592 24.3104 144.948 24.3272 144.299C24.3845 143.612 24.5085 142.933 24.6975 142.27C24.8384 141.745 24.9061 141.203 24.8987 140.66C24.8525 140.175 24.7415 139.699 24.5687 139.243C24.5687 139.187 25.1563 139.613 25.2851 140.628C25.3502 141.198 25.3175 141.775 25.1885 142.334C25.037 142.973 24.9321 143.621 24.8746 144.274C24.8575 145.442 25.2998 146.569 26.1062 147.414C26.7261 148.138 27.2735 148.34 27.2332 148.42Z" fill="#FF9A6C"/>
<path d="M177.906 150.328C177.906 150.175 180.78 150.288 184.289 150.578C187.799 150.867 190.641 151.238 190.633 151.383C190.625 151.528 187.759 151.423 184.249 151.125C180.739 150.827 177.898 150.473 177.906 150.328Z" fill="#FF9A6C"/>
<path d="M95.0386 101.971C94.717 103.043 94.3106 104.087 93.823 105.095C93.6057 105.578 93.3803 106.101 93.1468 106.64C92.9159 107.255 92.6471 107.854 92.3418 108.435C92.2256 108.626 92.0566 108.78 91.8552 108.877C91.6538 108.974 91.4286 109.011 91.2068 108.983C90.8168 108.88 90.4541 108.693 90.1442 108.435L88.2444 107.139C85.6522 105.352 83.3258 103.702 81.6514 102.494C80.7152 101.882 79.832 101.193 79.011 100.434C80.0083 100.936 80.9639 101.518 81.8687 102.172C83.5995 103.307 85.9662 104.893 88.5583 106.688L90.4501 107.993C90.6968 108.206 90.9844 108.368 91.2953 108.468C91.4222 108.483 91.5508 108.459 91.6642 108.401C91.7776 108.342 91.8707 108.25 91.9313 108.137C92.5431 107.027 93.0502 105.827 93.5413 104.917C93.9576 103.895 94.4584 102.91 95.0386 101.971Z" fill="#263238"/>
<path d="M193.726 140.713L192.161 118.923C192.086 117.877 191.664 117.13 191.036 116.756C190.357 116.353 182.019 111.552 181.384 111.182C180.705 110.788 179.788 110.826 178.812 111.401L150.315 127.839C148.421 128.934 146.771 131.584 146.626 133.763L145.011 158.024C144.934 159.147 145.273 159.924 145.886 160.265C146.458 160.587 154.916 165.478 155.518 165.824C156.12 166.169 156.899 166.093 157.823 165.559L190.6 146.634C192.478 145.542 193.884 142.891 193.726 140.713Z" fill="#FFD000"/>
<path opacity="0.2" d="M193.376 143.044L191.894 142.183L190.799 145.274L156.527 165.061L158.679 137.862L147.32 131.295C146.938 132.067 146.704 132.904 146.628 133.762L145.011 158.023C144.934 159.146 145.273 159.923 145.886 160.265C146.458 160.587 154.916 165.477 155.518 165.823C156.12 166.169 156.899 166.092 157.823 165.558L190.6 146.634C191.828 145.918 192.857 144.53 193.376 143.044Z" fill="#121313"/>
<path d="M193.2 140.75L191.629 118.96C191.541 117.74 190.935 117.014 190.007 117.014C189.546 117.032 189.098 117.169 188.706 117.412L160.216 133.861C158.464 134.872 156.932 137.341 156.792 139.364L155.177 163.625C155.128 164.326 155.264 164.884 155.557 165.199C155.654 165.299 155.771 165.378 155.9 165.429C156.029 165.481 156.167 165.505 156.306 165.499C156.746 165.474 157.173 165.337 157.545 165.101L190.324 146.178C192.053 145.18 193.345 142.744 193.2 140.75ZM189.665 145.036L156.886 163.96C156.763 164.033 156.634 164.093 156.499 164.14C156.484 163.994 156.484 163.847 156.499 163.702L158.114 139.441C158.217 137.862 159.511 135.785 160.881 134.992L189.374 118.544C189.565 118.418 189.785 118.342 190.013 118.325C190.261 118.325 190.313 118.982 190.32 119.047L191.894 140.837C191.992 142.332 190.954 144.292 189.665 145.036Z" fill="#FAFAFA"/>
<path d="M189.624 145.056L156.845 163.981C156.723 164.055 156.593 164.115 156.457 164.16C156.443 164.018 156.443 163.875 156.457 163.733L158.073 139.472C158.176 137.891 159.469 135.814 160.842 135.024L189.326 118.569C189.517 118.443 189.737 118.367 189.965 118.35C190.215 118.35 190.267 119.006 190.272 119.072L191.846 140.862C191.942 142.353 190.913 144.312 189.624 145.056Z" fill="#FFD000"/>
<path opacity="0.7" d="M189.624 145.056L156.845 163.981C156.723 164.055 156.593 164.115 156.457 164.16C156.443 164.018 156.443 163.875 156.457 163.733L158.073 139.472C158.176 137.891 159.469 135.814 160.842 135.024L189.326 118.569C189.517 118.443 189.737 118.367 189.965 118.35C190.215 118.35 190.267 119.006 190.272 119.072L191.846 140.862C191.942 142.353 190.913 144.312 189.624 145.056Z" fill="white"/>
<path d="M165.597 134.515V136.908C165.597 137.271 165.851 137.418 166.166 137.236L182.231 127.961C182.397 127.853 182.536 127.707 182.635 127.536C182.734 127.364 182.792 127.172 182.803 126.974V124.581C182.803 124.218 182.547 124.069 182.231 124.253L166.166 133.528C166 133.636 165.862 133.782 165.763 133.953C165.664 134.125 165.607 134.317 165.597 134.515Z" fill="#455A64"/>
<path d="M166.667 134.41V134.548C166.667 134.62 166.717 134.651 166.781 134.614L181.616 126.048C181.649 126.026 181.677 125.997 181.697 125.963C181.716 125.929 181.728 125.891 181.73 125.851V125.718C181.73 125.643 181.68 125.615 181.616 125.65L166.781 134.215C166.748 134.237 166.721 134.266 166.701 134.3C166.682 134.333 166.67 134.371 166.667 134.41Z" fill="#FAFAFA"/>
<path d="M166.667 135.663V135.797C166.667 135.869 166.717 135.9 166.781 135.863L181.616 127.297C181.649 127.276 181.677 127.247 181.697 127.212C181.717 127.178 181.728 127.139 181.73 127.1V126.966C181.73 126.894 181.68 126.863 181.616 126.901L166.781 135.466C166.747 135.488 166.72 135.517 166.7 135.551C166.68 135.585 166.669 135.624 166.667 135.663Z" fill="#FAFAFA"/>
<path d="M169.743 131.941L169.824 131.895C169.876 131.864 169.92 131.895 169.92 131.95V133.287C169.917 133.32 169.907 133.352 169.891 133.38C169.874 133.409 169.851 133.433 169.824 133.451L169.743 133.5C169.733 133.507 169.722 133.512 169.71 133.513C169.698 133.514 169.686 133.512 169.675 133.506C169.665 133.5 169.657 133.491 169.651 133.48C169.646 133.469 169.644 133.457 169.646 133.445V132.105C169.649 132.072 169.659 132.04 169.676 132.012C169.692 131.984 169.715 131.959 169.743 131.941Z" fill="#FFD000"/>
<path d="M172.096 131.822L172.177 131.774C172.229 131.743 172.273 131.774 172.273 131.829V133.166C172.271 133.199 172.261 133.232 172.244 133.26C172.228 133.289 172.204 133.314 172.177 133.332L172.096 133.378C172.043 133.409 172 133.378 172 133.324V131.986C172.001 131.953 172.011 131.921 172.028 131.892C172.044 131.864 172.068 131.84 172.096 131.822Z" fill="#FFD000"/>
<path d="M188.028 121.633C187.64 121.414 187.106 121.44 186.515 121.782C185.331 122.465 184.372 124.124 184.372 125.49C184.372 126.173 184.613 126.653 185 126.876L186.075 127.495C186.463 127.714 186.995 127.688 187.586 127.347C188.768 126.664 189.729 125.002 189.729 123.636C189.729 122.953 189.488 122.474 189.098 122.25L188.028 121.633Z" fill="#FFD000"/>
<path opacity="0.15" d="M188.028 121.633C187.64 121.414 187.106 121.44 186.515 121.782C185.331 122.465 184.372 124.124 184.372 125.49C184.372 126.173 184.613 126.653 185 126.876L186.075 127.495C186.463 127.714 186.995 127.688 187.586 127.347C188.768 126.664 189.729 125.002 189.729 123.636C189.729 122.953 189.488 122.474 189.098 122.25L188.028 121.633Z" fill="#121313"/>
<path opacity="0.15" d="M186.515 125.488L184.565 124.363C184.443 124.726 184.378 125.106 184.372 125.488C184.372 126.171 184.613 126.651 185 126.874L186.075 127.494C186.463 127.713 186.995 127.686 187.586 127.345C187.913 127.148 188.208 126.902 188.461 126.616L186.515 125.488Z" fill="#121313"/>
<path opacity="0.25" d="M186.167 125.213L184.584 124.3C184.571 124.341 184.556 124.383 184.543 124.427L186.101 125.327L186.167 125.213ZM184.803 123.759L186.368 124.665L186.434 124.552L184.858 123.641C184.838 123.68 184.821 123.72 184.803 123.759ZM184.67 126.568L186.123 127.406L186.189 127.292L184.534 126.338C184.572 126.419 184.617 126.496 184.67 126.568ZM185.983 126.594L184.374 125.666C184.374 125.721 184.374 125.773 184.39 125.826L185.922 126.701L185.983 126.594ZM186.005 125.883L184.411 124.961C184.411 125.009 184.398 125.055 184.394 125.103L185.939 125.996L186.005 125.883ZM185.156 123.129L186.732 124.042L186.798 123.928L185.23 123.024L185.156 123.129ZM185.594 122.562L187.178 123.475L187.244 123.361L185.683 122.461L185.594 122.562ZM186.673 121.701L188.284 122.63L188.352 122.516L186.819 121.64C186.767 121.653 186.717 121.675 186.666 121.701H186.673ZM187.592 121.496C187.506 121.486 187.418 121.486 187.332 121.496L188.991 122.452L189.057 122.338L187.592 121.496ZM186.084 122.085L187.68 123.006L187.745 122.892L186.198 121.999C186.152 122.028 186.115 122.054 186.077 122.085H186.084Z" fill="#121313"/>
<path d="M189.1 125.744C189.936 124.295 189.936 122.729 189.1 122.246C188.263 121.763 186.907 122.546 186.07 123.995C185.234 125.444 185.234 127.011 186.07 127.494C186.907 127.977 188.263 127.193 189.1 125.744Z" fill="#FFD000"/>
<path d="M186.629 127.177C185.972 127.177 185.904 126.43 185.904 126.108C185.904 124.913 186.78 123.396 187.818 122.798C188.035 122.66 188.285 122.58 188.542 122.566C189.199 122.566 189.267 123.313 189.267 123.635C189.267 124.83 188.391 126.347 187.356 126.945C187.137 127.083 186.887 127.163 186.629 127.177ZM188.542 122.7C188.308 122.715 188.082 122.791 187.885 122.919C186.885 123.497 186.04 124.959 186.04 126.115C186.04 126.397 186.097 127.052 186.631 127.052C186.865 127.036 187.091 126.96 187.288 126.833C188.288 126.255 189.133 124.793 189.133 123.637C189.135 123.354 189.076 122.7 188.542 122.7Z" fill="white"/>
<path d="M163.396 135.862C163.009 135.643 162.473 135.669 161.882 136.01C160.7 136.693 159.741 138.355 159.741 139.721C159.741 140.404 159.979 140.881 160.367 141.104L161.442 141.726C161.829 141.945 162.363 141.917 162.954 141.577C164.136 140.894 165.095 139.233 165.095 137.867C165.095 137.184 164.854 136.704 164.467 136.481L163.396 135.862Z" fill="#FFD000"/>
<path opacity="0.15" d="M163.396 135.862C163.009 135.643 162.473 135.669 161.882 136.01C160.7 136.693 159.741 138.355 159.741 139.721C159.741 140.404 159.979 140.881 160.367 141.104L161.442 141.726C161.829 141.945 162.363 141.917 162.954 141.577C164.136 140.894 165.095 139.233 165.095 137.867C165.095 137.184 164.854 136.704 164.467 136.481L163.396 135.862Z" fill="#121313"/>
<path opacity="0.15" d="M161.882 139.711L159.931 138.586C159.81 138.949 159.745 139.328 159.741 139.711C159.741 140.394 159.979 140.871 160.367 141.095L161.442 141.716C161.829 141.935 162.363 141.907 162.954 141.567C163.281 141.37 163.576 141.124 163.83 140.838L161.882 139.711Z" fill="#121313"/>
<path opacity="0.25" d="M161.536 139.435L159.953 138.52C159.938 138.563 159.922 138.605 159.909 138.649L161.47 139.548L161.536 139.435ZM160.17 137.981L161.733 138.885L161.798 138.771L160.222 137.863L160.17 137.981ZM160.036 140.79L161.492 141.628L161.558 141.514L159.903 140.56C159.939 140.641 159.984 140.718 160.036 140.79ZM161.35 140.816L159.741 139.885C159.741 139.942 159.741 139.995 159.758 140.047L161.291 140.923L161.35 140.816ZM161.372 140.102L159.778 139.183C159.778 139.229 159.778 139.277 159.76 139.325L161.306 140.216L161.372 140.102ZM160.516 137.348L162.092 138.259L162.157 138.145L160.59 137.241C160.573 137.276 160.546 137.311 160.522 137.348H160.516ZM160.953 136.781L162.536 137.696L162.602 137.583L161.041 136.681C161.013 136.714 160.984 136.749 160.956 136.781H160.953ZM162.033 135.921L163.644 136.851L163.709 136.738L162.177 135.862L162.033 135.921ZM162.95 135.718C162.863 135.709 162.776 135.709 162.689 135.718L164.349 136.676L164.414 136.562L162.95 135.718ZM161.444 136.3L163.046 137.228L163.112 137.114L161.564 136.219L161.444 136.3Z" fill="#121313"/>
<path d="M164.752 139.881C165.589 138.425 165.586 136.853 164.745 136.371C163.905 135.888 162.545 136.676 161.709 138.132C160.872 139.587 160.875 141.159 161.716 141.642C162.556 142.125 163.915 141.337 164.752 139.881Z" fill="#FFD000"/>
<path d="M161.998 141.396C161.341 141.396 161.273 140.649 161.273 140.33C161.273 139.132 162.149 137.618 163.184 137.018C163.404 136.884 163.654 136.808 163.911 136.799C164.568 136.799 164.633 137.545 164.633 137.867C164.633 139.062 163.758 140.579 162.722 141.177C162.503 141.311 162.254 141.386 161.998 141.396ZM163.922 136.919C163.688 136.935 163.462 137.01 163.265 137.138C162.265 137.714 161.42 139.178 161.42 140.334C161.42 140.614 161.477 141.269 162.013 141.269C162.247 141.254 162.473 141.178 162.67 141.05C163.67 140.472 164.515 139.008 164.515 137.854C164.502 137.574 164.445 136.919 163.922 136.919Z" fill="white"/>
<path d="M180.272 147.952C177.864 147.952 176.301 145.982 176.301 142.959C176.301 138.763 179.256 133.645 182.89 131.545C183.958 130.93 184.989 130.617 185.955 130.617C188.363 130.617 189.928 132.576 189.928 135.61C189.928 139.807 186.97 144.925 183.339 147.024C182.271 147.639 181.237 147.952 180.274 147.952H180.272Z" fill="#FFD000"/>
<path d="M176.75 142.959C176.75 147.018 179.596 148.664 183.116 146.635C186.636 144.606 189.479 139.669 189.479 135.611C189.479 131.552 186.634 129.906 183.116 131.935C179.598 133.965 176.75 138.901 176.75 142.959Z" fill="#263238"/>
<path d="M188.941 135.299C188.941 133.428 188.334 132.073 187.336 131.359C186.213 130.856 184.736 131.009 183.116 131.943C179.6 133.973 176.75 138.909 176.75 142.968C176.75 144.839 177.359 146.194 178.355 146.908C179.478 147.411 180.957 147.258 182.577 146.323C186.091 144.294 188.941 139.364 188.941 135.299Z" fill="#37474F"/>
<path d="M185.638 140.74C187.327 137.814 187.327 134.651 185.637 133.675C183.947 132.699 181.208 134.281 179.518 137.207C177.829 140.134 177.829 143.297 179.519 144.272C181.209 145.248 183.948 143.667 185.638 140.74Z" fill="#FFD000"/>
<path d="M180.644 144.111C179.427 144.111 178.7 143.124 178.7 141.473C178.7 138.862 180.541 135.675 182.802 134.368C183.317 134.047 183.905 133.865 184.51 133.838C185.727 133.838 186.454 134.825 186.454 136.476C186.454 139.087 184.613 142.275 182.352 143.581C181.837 143.902 181.249 144.084 180.644 144.111Z" fill="#37474F"/>
<path d="M181.014 143.125C180.031 143.125 179.442 142.329 179.442 140.993C179.442 138.883 180.931 136.306 182.759 135.249C183.174 134.991 183.649 134.844 184.138 134.822C185.123 134.822 185.71 135.619 185.71 136.954C185.71 139.065 184.223 141.641 182.395 142.698C181.979 142.957 181.504 143.104 181.014 143.125Z" fill="#455A64"/>
<path d="M177.571 141.866C177.58 142.528 177.72 143.183 177.982 143.792C178.235 144.397 178.711 144.882 179.311 145.147C179.919 145.378 180.585 145.403 181.209 145.219C181.837 145.04 182.429 144.754 182.96 144.374C184.038 143.61 184.951 142.638 185.646 141.515C186.006 140.961 186.313 140.375 186.566 139.764C186.823 139.152 187.011 138.512 187.126 137.857C186.966 139.188 186.518 140.468 185.813 141.607C185.466 142.183 185.064 142.723 184.613 143.221C184.164 143.724 183.658 144.174 183.105 144.56C182.547 144.95 181.927 145.24 181.27 145.418C180.605 145.609 179.894 145.569 179.254 145.305C178.629 145.008 178.142 144.482 177.895 143.836C177.65 143.209 177.54 142.538 177.571 141.866Z" fill="#455A64"/>
<path d="M177.468 144.804C177.736 145.247 178.112 145.614 178.562 145.87C179.007 146.119 179.511 146.241 180.02 146.225C181.04 146.205 182.017 145.787 182.866 145.227C183.728 144.66 184.5 143.967 185.156 143.171C185.49 142.778 185.8 142.363 186.082 141.93C186.369 141.498 186.63 141.049 186.863 140.586C186.471 141.555 185.941 142.463 185.289 143.281C184.642 144.109 183.867 144.83 182.995 145.417C182.552 145.703 182.079 145.939 181.583 146.12C181.085 146.308 180.557 146.401 180.025 146.396C179.489 146.392 178.965 146.241 178.51 145.958C178.065 145.674 177.705 145.275 177.468 144.804Z" fill="#455A64"/>
<path d="M173.398 138.154C173.269 138.095 173.126 138.072 172.984 138.086C172.843 138.1 172.708 138.152 172.593 138.235L160.953 144.956C160.622 145.172 160.346 145.462 160.147 145.805C159.949 146.147 159.833 146.531 159.811 146.926V157.893C159.796 158.034 159.82 158.177 159.879 158.306C159.938 158.436 160.03 158.547 160.146 158.629L160.71 158.955C160.84 159.014 160.983 159.038 161.124 159.023C161.266 159.009 161.401 158.957 161.516 158.874L173.155 152.153C173.487 151.938 173.763 151.647 173.961 151.305C174.159 150.962 174.274 150.578 174.296 150.183V139.216C174.311 139.074 174.288 138.931 174.229 138.802C174.17 138.672 174.078 138.56 173.961 138.478C173.867 138.426 173.492 138.211 173.398 138.154Z" fill="#37474F"/>
<path d="M161.514 145.274L173.153 138.554C173.784 138.191 174.294 138.486 174.294 139.211V150.178C174.272 150.573 174.157 150.957 173.959 151.299C173.761 151.641 173.485 151.932 173.153 152.148L161.514 158.882C160.884 159.247 160.371 158.952 160.371 158.225V147.258C160.392 146.86 160.506 146.474 160.705 146.129C160.904 145.784 161.181 145.492 161.514 145.274Z" fill="#455A64"/>
<path d="M161.164 147.257C161.185 147 161.263 146.751 161.392 146.528C161.521 146.305 161.698 146.113 161.91 145.966L173.512 139.271V150.186C173.49 150.443 173.411 150.692 173.282 150.916C173.153 151.139 172.977 151.332 172.766 151.48L161.164 158.174V147.257Z" fill="#263238"/>
<path d="M164.121 156.107C164.149 155.724 164.267 155.352 164.466 155.023C164.664 154.693 164.938 154.416 165.264 154.212L169.405 151.819C170.036 151.456 170.548 151.714 170.548 152.397V153.016L164.123 156.725C164.123 156.725 164.123 156.79 164.121 156.107Z" fill="#455A64"/>
<path d="M162.517 154.869L172.155 149.305V149.613L162.517 155.178V154.869Z" fill="#455A64"/>
<path d="M172.155 140.957L167.871 143.431V144.667L172.155 142.194V140.957Z" fill="#FFD000"/>
<path d="M162.497 148.388L172.155 142.812V148.686L162.517 154.25L162.497 148.388Z" fill="#455A64"/>
<path d="M168.703 147.903C168.703 148.588 169.184 148.864 169.776 148.522C170.087 148.319 170.346 148.044 170.532 147.722C170.718 147.399 170.826 147.038 170.846 146.666C170.846 145.983 170.367 145.705 169.776 146.046C169.464 146.25 169.204 146.524 169.018 146.847C168.832 147.169 168.724 147.531 168.703 147.903Z" fill="#37474F"/>
<path d="M170.012 146.867C169.974 146.85 169.932 146.843 169.89 146.847C169.849 146.851 169.809 146.867 169.775 146.892C169.678 146.955 169.597 147.041 169.539 147.141C169.48 147.242 169.447 147.355 169.441 147.472C169.436 147.513 169.442 147.556 169.459 147.594C169.476 147.633 169.503 147.666 169.537 147.691L170.592 148.301C170.63 148.318 170.672 148.325 170.713 148.321C170.755 148.317 170.795 148.302 170.828 148.277C170.926 148.213 171.008 148.127 171.066 148.026C171.124 147.925 171.157 147.811 171.163 147.695C171.168 147.653 171.162 147.61 171.144 147.572C171.127 147.533 171.099 147.5 171.065 147.476L170.012 146.867Z" fill="#263238"/>
<path d="M170.489 148.08C170.489 148.299 170.64 148.382 170.826 148.275C170.924 148.211 171.006 148.125 171.064 148.024C171.122 147.923 171.155 147.809 171.161 147.693C171.161 147.474 171.012 147.393 170.826 147.5C170.729 147.564 170.647 147.649 170.589 147.75C170.53 147.851 170.496 147.964 170.489 148.08Z" fill="#37474F"/>
<path d="M163.83 150.709C163.83 151.394 164.309 151.67 164.901 151.328C165.213 151.125 165.473 150.851 165.659 150.528C165.846 150.206 165.953 149.844 165.973 149.472C165.973 148.789 165.494 148.511 164.901 148.854C164.589 149.058 164.33 149.331 164.144 149.654C163.958 149.976 163.85 150.337 163.83 150.709Z" fill="#37474F"/>
<path d="M165.139 149.68C165.101 149.662 165.058 149.655 165.016 149.659C164.975 149.664 164.934 149.679 164.9 149.704C164.803 149.768 164.722 149.854 164.664 149.954C164.606 150.055 164.572 150.168 164.566 150.284C164.561 150.326 164.567 150.369 164.585 150.407C164.602 150.446 164.629 150.479 164.664 150.503L165.717 151.114C165.755 151.131 165.797 151.138 165.838 151.134C165.88 151.129 165.92 151.114 165.953 151.09C166.051 151.026 166.133 150.94 166.192 150.839C166.25 150.738 166.284 150.624 166.29 150.507C166.295 150.465 166.288 150.423 166.271 150.385C166.253 150.346 166.226 150.313 166.192 150.288L165.139 149.68Z" fill="#263238"/>
<path d="M165.619 150.895C165.619 151.114 165.77 151.195 165.954 151.088C166.052 151.024 166.133 150.938 166.192 150.837C166.251 150.736 166.284 150.622 166.291 150.505C166.291 150.286 166.14 150.205 165.954 150.313C165.856 150.377 165.775 150.463 165.717 150.564C165.659 150.665 165.625 150.779 165.619 150.895Z" fill="#37474F"/>
<path opacity="0.2" d="M157.25 128.779L160.012 130.374L175.355 121.52L172.593 119.924L157.25 128.779Z" fill="#121313"/>
<path opacity="0.2" d="M172.593 119.924V122.397L173.212 122.756L175.355 121.52L172.593 119.924Z" fill="#121313"/>
<path d="M174.648 121.936L172.604 123.114L172.453 123.201L170.548 122.089L170.743 121.1C170.827 120.768 171.032 120.481 171.317 120.292L172.144 119.806C172.289 119.732 172.45 119.693 172.613 119.693C172.775 119.693 172.936 119.732 173.081 119.806L173.909 120.292C174.195 120.48 174.4 120.768 174.484 121.1L174.648 121.936Z" fill="#37474F"/>
<path d="M173.064 121.318C172.921 121.395 172.802 121.509 172.719 121.648C172.636 121.787 172.593 121.946 172.593 122.108V123.113L172.442 123.2L170.537 122.088L170.732 121.099C170.816 120.768 171.021 120.48 171.306 120.291L173.064 121.318Z" fill="#263238"/>
<path d="M172.133 119.807L171.308 120.291C171.251 120.31 171.201 120.347 171.166 120.396C171.131 120.445 171.112 120.504 171.112 120.565C171.112 120.625 171.131 120.684 171.166 120.733C171.201 120.782 171.251 120.819 171.308 120.838L172.124 121.316C172.27 121.39 172.431 121.428 172.594 121.428C172.757 121.428 172.918 121.39 173.064 121.316L173.895 120.836C173.953 120.817 174.003 120.781 174.038 120.732C174.074 120.683 174.093 120.624 174.093 120.564C174.093 120.503 174.074 120.444 174.038 120.395C174.003 120.346 173.953 120.31 173.895 120.291L173.068 119.805C172.923 119.731 172.763 119.693 172.6 119.693C172.438 119.694 172.278 119.733 172.133 119.807Z" fill="#455A64"/>
<path d="M172.151 123.369L170.106 124.549L169.955 124.634L168.051 123.522L168.248 122.533C168.332 122.202 168.536 121.914 168.821 121.725L169.649 121.241C169.793 121.166 169.953 121.127 170.116 121.127C170.279 121.127 170.439 121.166 170.583 121.241L171.411 121.725C171.697 121.913 171.902 122.201 171.986 122.533L172.151 123.369Z" fill="#EBEBEB"/>
<path d="M170.577 122.751C170.435 122.829 170.316 122.943 170.233 123.082C170.151 123.221 170.107 123.38 170.106 123.542V124.548L169.955 124.634L168.051 123.522L168.248 122.532C168.332 122.201 168.536 121.913 168.821 121.725L170.577 122.751Z" fill="#E0E0E0"/>
<path d="M169.649 121.243L168.821 121.726C168.765 121.747 168.716 121.784 168.682 121.833C168.648 121.882 168.629 121.94 168.629 122C168.629 122.06 168.648 122.118 168.682 122.167C168.716 122.216 168.765 122.253 168.821 122.274L169.638 122.751C169.783 122.825 169.945 122.864 170.108 122.864C170.272 122.864 170.433 122.825 170.579 122.751L171.411 122.271C171.467 122.252 171.516 122.215 171.551 122.166C171.585 122.117 171.604 122.059 171.604 121.999C171.604 121.939 171.585 121.881 171.551 121.832C171.516 121.783 171.467 121.746 171.411 121.726L170.583 121.243C170.439 121.168 170.279 121.129 170.116 121.129C169.953 121.129 169.793 121.168 169.649 121.243Z" fill="#FAFAFA"/>
<path d="M169.666 124.804L167.619 125.984L167.47 126.072L165.566 124.959L165.761 123.968C165.847 123.64 166.049 123.355 166.33 123.167L167.157 122.683C167.302 122.609 167.462 122.57 167.625 122.57C167.787 122.57 167.947 122.609 168.092 122.683L168.92 123.167C169.206 123.355 169.411 123.644 169.495 123.977L169.666 124.804Z" fill="#EBEBEB"/>
<path d="M168.081 124.188C167.939 124.266 167.82 124.38 167.737 124.519C167.655 124.658 167.611 124.817 167.61 124.979V125.983L167.462 126.071L165.557 124.959L165.752 123.967C165.84 123.638 166.046 123.353 166.33 123.166L168.081 124.188Z" fill="#E0E0E0"/>
<path d="M167.162 122.678L166.33 123.166C166.274 123.187 166.225 123.224 166.191 123.273C166.157 123.322 166.138 123.38 166.138 123.44C166.138 123.5 166.157 123.558 166.191 123.607C166.225 123.656 166.274 123.693 166.33 123.714L167.149 124.189C167.294 124.263 167.455 124.301 167.618 124.301C167.781 124.301 167.942 124.263 168.088 124.189L168.92 123.709C168.977 123.69 169.026 123.653 169.062 123.604C169.097 123.555 169.116 123.496 169.116 123.436C169.116 123.375 169.097 123.316 169.062 123.267C169.026 123.218 168.977 123.181 168.92 123.162L168.092 122.678C167.948 122.605 167.789 122.566 167.627 122.566C167.465 122.566 167.306 122.605 167.162 122.678Z" fill="#FAFAFA"/>
<path d="M167.179 126.23L165.132 127.41L164.984 127.496L163.079 126.383L163.274 125.394C163.358 125.063 163.563 124.775 163.847 124.586L164.675 124.102C164.82 124.027 164.98 123.988 165.143 123.988C165.306 123.988 165.467 124.027 165.612 124.102L166.439 124.586C166.725 124.774 166.931 125.062 167.015 125.394L167.179 126.23Z" fill="#EBEBEB"/>
<path d="M165.605 125.622C165.463 125.699 165.344 125.814 165.26 125.953C165.177 126.092 165.133 126.251 165.132 126.413V127.42L164.984 127.505L163.079 126.393L163.274 125.403C163.358 125.072 163.563 124.784 163.847 124.596L165.605 125.622Z" fill="#E0E0E0"/>
<path d="M164.675 124.112L163.847 124.596C163.791 124.616 163.743 124.653 163.708 124.702C163.674 124.751 163.656 124.81 163.656 124.869C163.656 124.929 163.674 124.987 163.708 125.036C163.743 125.085 163.791 125.123 163.847 125.143L164.666 125.62C164.812 125.694 164.973 125.733 165.136 125.733C165.299 125.733 165.46 125.694 165.605 125.62L166.437 125.141C166.494 125.121 166.542 125.084 166.577 125.035C166.611 124.986 166.63 124.928 166.63 124.868C166.63 124.808 166.611 124.75 166.577 124.701C166.542 124.653 166.494 124.616 166.437 124.596L165.61 124.11C165.465 124.036 165.305 123.998 165.142 123.998C164.979 123.998 164.819 124.037 164.675 124.112Z" fill="#FAFAFA"/>
<path d="M164.692 127.673L162.648 128.858L162.497 128.945L160.592 127.833L160.789 126.842C160.873 126.511 161.076 126.223 161.361 126.034L162.188 125.55C162.333 125.476 162.494 125.438 162.657 125.438C162.819 125.438 162.98 125.476 163.125 125.55L163.952 126.034C164.238 126.222 164.443 126.51 164.528 126.842L164.692 127.673Z" fill="#EBEBEB"/>
<path d="M163.118 127.058C162.976 127.135 162.857 127.249 162.774 127.388C162.691 127.527 162.648 127.686 162.648 127.848V128.857L162.497 128.945L160.592 127.833L160.789 126.841C160.873 126.51 161.076 126.222 161.361 126.033L163.118 127.058Z" fill="#E0E0E0"/>
<path d="M162.188 125.547L161.363 126.028C161.306 126.048 161.257 126.085 161.222 126.135C161.187 126.184 161.168 126.243 161.168 126.303C161.168 126.363 161.187 126.422 161.222 126.471C161.257 126.521 161.306 126.558 161.363 126.578L162.171 127.053C162.316 127.127 162.477 127.166 162.64 127.166C162.804 127.166 162.965 127.127 163.11 127.053L163.944 126.575C164.001 126.556 164.051 126.519 164.086 126.47C164.121 126.421 164.14 126.362 164.14 126.302C164.14 126.241 164.121 126.183 164.086 126.134C164.051 126.084 164.001 126.048 163.944 126.028L163.116 125.544C162.973 125.471 162.813 125.433 162.652 125.434C162.491 125.434 162.332 125.473 162.188 125.547Z" fill="#FAFAFA"/>
<path d="M162.208 129.11L160.161 130.287L160.012 130.375L158.108 129.263L158.303 128.273C158.39 127.941 158.598 127.652 158.887 127.466L159.715 126.98C159.859 126.906 160.02 126.867 160.182 126.867C160.345 126.867 160.505 126.906 160.649 126.98L161.477 127.466C161.763 127.654 161.968 127.942 162.053 128.273L162.208 129.11Z" fill="#EBEBEB"/>
<path d="M160.638 128.492C160.496 128.569 160.377 128.683 160.294 128.822C160.211 128.961 160.167 129.12 160.168 129.282V130.287L160.019 130.374L158.114 129.262L158.309 128.273C158.394 127.941 158.6 127.653 158.887 127.465L160.638 128.492Z" fill="#E0E0E0"/>
<path d="M159.704 126.982L158.887 127.466C158.831 127.486 158.782 127.523 158.748 127.572C158.714 127.621 158.695 127.68 158.695 127.739C158.695 127.799 158.714 127.857 158.748 127.906C158.782 127.955 158.831 127.993 158.887 128.013L159.706 128.49C159.851 128.564 160.012 128.603 160.175 128.603C160.338 128.603 160.499 128.564 160.645 128.49L161.477 128.011C161.533 127.991 161.582 127.954 161.616 127.905C161.651 127.856 161.67 127.798 161.67 127.738C161.67 127.678 161.651 127.62 161.616 127.571C161.582 127.522 161.533 127.486 161.477 127.466L160.638 126.982C160.494 126.908 160.333 126.869 160.171 126.869C160.008 126.869 159.848 126.908 159.704 126.982Z" fill="#FAFAFA"/>
<path d="M177.761 118.686C177.956 118.786 178.171 118.837 178.389 118.837C178.608 118.837 178.823 118.786 179.018 118.686C179.366 118.487 179.366 118.161 179.018 117.962C178.823 117.862 178.608 117.811 178.389 117.811C178.171 117.811 177.956 117.862 177.761 117.962C177.413 118.161 177.413 118.487 177.761 118.686Z" fill="#263238"/>
<path d="M179.026 118.428C178.832 118.329 178.617 118.277 178.398 118.277C178.18 118.277 177.964 118.329 177.77 118.428C177.71 118.462 177.656 118.506 177.61 118.558C177.656 118.609 177.71 118.653 177.77 118.687C177.964 118.786 178.18 118.838 178.398 118.838C178.617 118.838 178.832 118.786 179.026 118.687C179.087 118.653 179.141 118.609 179.186 118.558C179.141 118.506 179.087 118.462 179.026 118.428Z" fill="#37474F"/>
<path d="M179.902 117.45C180.097 117.549 180.313 117.601 180.531 117.601C180.75 117.601 180.966 117.549 181.161 117.45C181.507 117.251 181.507 116.925 181.161 116.725C180.966 116.626 180.75 116.574 180.531 116.574C180.313 116.574 180.097 116.626 179.902 116.725C179.556 116.925 179.556 117.255 179.902 117.45Z" fill="#263238"/>
<path d="M181.161 117.192C180.966 117.093 180.75 117.041 180.532 117.041C180.313 117.041 180.097 117.093 179.902 117.192C179.843 117.226 179.789 117.27 179.745 117.321C179.789 117.374 179.842 117.417 179.902 117.45C180.097 117.55 180.313 117.602 180.532 117.602C180.75 117.602 180.966 117.55 181.161 117.45C181.22 117.416 181.273 117.373 181.319 117.321C181.273 117.271 181.22 117.227 181.161 117.192Z" fill="#37474F"/>
<path d="M158.918 104.797C158.793 104.705 158.649 104.644 158.497 104.619C158.345 104.594 158.189 104.604 158.042 104.65C157.99 104.664 157.942 104.692 157.904 104.731C157.865 104.769 157.838 104.817 157.823 104.869L153.994 127.543C153.991 127.599 154.001 127.654 154.026 127.704C154.051 127.754 154.088 127.797 154.135 127.828C154.259 127.919 154.403 127.981 154.555 128.006C154.707 128.031 154.863 128.021 155.01 127.974C155.062 127.96 155.11 127.932 155.149 127.894C155.187 127.855 155.215 127.808 155.229 127.755L159.058 105.081C159.062 105.026 159.051 104.97 159.026 104.92C159.001 104.87 158.964 104.827 158.918 104.797Z" fill="#37474F"/>
<path d="M157.957 105.156C158.081 105.247 158.225 105.309 158.377 105.335C158.529 105.36 158.685 105.35 158.833 105.304C158.889 105.295 158.94 105.269 158.981 105.229C159.021 105.188 159.047 105.137 159.057 105.08C159.066 105.024 159.057 104.967 159.032 104.916C159.007 104.865 158.966 104.823 158.916 104.797C158.791 104.705 158.647 104.644 158.495 104.619C158.343 104.594 158.187 104.604 158.04 104.65C157.985 104.66 157.934 104.686 157.894 104.726C157.854 104.766 157.828 104.818 157.819 104.873C157.81 104.929 157.818 104.986 157.843 105.036C157.868 105.087 157.907 105.129 157.957 105.156Z" fill="#455A64"/>
<path d="M160.492 94.5597C160.409 94.4986 160.313 94.4579 160.211 94.4408C160.11 94.4237 160.006 94.4307 159.907 94.4612C159.871 94.4712 159.839 94.4901 159.812 94.5161C159.786 94.5422 159.767 94.5745 159.756 94.6101L158.031 104.87C158.028 104.907 158.035 104.944 158.051 104.977C158.068 105.01 158.092 105.038 158.123 105.058C158.206 105.12 158.302 105.16 158.404 105.177C158.505 105.194 158.609 105.187 158.708 105.157C158.743 105.147 158.776 105.128 158.802 105.102C158.829 105.076 158.848 105.044 158.859 105.008L160.584 94.7502C160.586 94.7132 160.578 94.6764 160.562 94.6431C160.546 94.6098 160.522 94.5811 160.492 94.5597Z" fill="#37474F"/>
<path d="M159.85 94.7983C159.933 94.8594 160.029 94.9002 160.131 94.9173C160.232 94.9344 160.337 94.9274 160.435 94.8968C160.473 94.8914 160.508 94.8742 160.535 94.8476C160.562 94.8211 160.58 94.7865 160.586 94.749C160.593 94.7115 160.587 94.673 160.57 94.639C160.553 94.6049 160.526 94.5772 160.492 94.5597C160.409 94.4986 160.313 94.4579 160.211 94.4408C160.11 94.4237 160.006 94.4307 159.907 94.4612C159.87 94.4666 159.835 94.4839 159.808 94.5104C159.78 94.537 159.762 94.5715 159.756 94.609C159.75 94.6465 159.755 94.685 159.772 94.7191C159.789 94.7531 159.817 94.7809 159.85 94.7983Z" fill="#455A64"/>
<path d="M162.206 83.7626C162.151 83.7229 162.088 83.6965 162.021 83.6855C161.954 83.6745 161.885 83.6791 161.821 83.6991C161.797 83.7049 161.776 83.7169 161.758 83.7338C161.741 83.7508 161.728 83.772 161.722 83.7954L159.901 94.6094C159.899 94.6338 159.904 94.6582 159.914 94.6802C159.925 94.7022 159.942 94.7208 159.962 94.7341C160.017 94.7745 160.081 94.8015 160.148 94.8129C160.215 94.8243 160.284 94.8198 160.35 94.7998C160.373 94.7932 160.394 94.7807 160.412 94.7634C160.429 94.7462 160.442 94.7248 160.448 94.7013L162.267 83.8874C162.269 83.863 162.264 83.8386 162.253 83.8167C162.243 83.7948 162.226 83.7761 162.206 83.7626Z" fill="#37474F"/>
<path d="M161.783 83.9202C161.838 83.9608 161.902 83.9876 161.969 83.9983C162.037 84.0089 162.106 84.0032 162.171 83.9815C162.194 83.9761 162.215 83.964 162.231 83.9468C162.247 83.9295 162.258 83.9078 162.262 83.8844C162.266 83.861 162.263 83.837 162.253 83.8153C162.244 83.7936 162.228 83.7753 162.208 83.7626C162.153 83.7229 162.089 83.6965 162.023 83.6855C161.956 83.6745 161.887 83.6791 161.822 83.6991C161.702 83.7429 161.687 83.8414 161.783 83.9202Z" fill="#455A64"/>
<path d="M162.552 83.8365C162.636 83.5425 162.466 83.2359 162.172 83.1518C161.878 83.0677 161.571 83.2379 161.487 83.532C161.403 83.8261 161.573 84.1326 161.867 84.2167C162.161 84.3008 162.468 84.1306 162.552 83.8365Z" fill="#455A64"/>
<path d="M186.559 101.7C186.472 100.483 185.865 99.7539 184.937 99.7539C184.477 99.7726 184.029 99.9098 183.637 100.152L158.962 114.41C158.909 114.442 158.867 114.488 158.84 114.543C158.813 114.598 158.802 114.659 158.808 114.72C158.818 114.882 158.864 115.039 158.945 115.179C159.026 115.319 159.138 115.439 159.273 115.528C159.318 115.559 159.371 115.579 159.425 115.586C159.48 115.594 159.536 115.588 159.588 115.57L184.296 101.304C184.488 101.178 184.708 101.102 184.937 101.085C185.184 101.085 185.237 101.742 185.244 101.807L186.119 113.93L187.498 114.723L186.559 101.7Z" fill="#E0E0E0"/>
<path d="M180.517 101.654C180.423 101.586 180.313 101.544 180.198 101.533C180.082 101.521 179.966 101.54 179.861 101.588L158.614 113.847C158.521 113.914 158.447 114.004 158.4 114.109C158.352 114.213 158.333 114.328 158.344 114.442C158.361 114.762 158.454 115.073 158.614 115.35C158.774 115.627 158.998 115.862 159.266 116.036C159.359 116.105 159.47 116.147 159.586 116.157C159.702 116.168 159.818 116.146 159.923 116.095C160.08 116.001 180.99 103.928 181.156 103.836C181.252 103.772 181.328 103.683 181.377 103.579C181.426 103.475 181.446 103.36 181.435 103.245C181.417 102.927 181.325 102.617 181.166 102.34C181.006 102.064 180.784 101.829 180.517 101.654Z" fill="#455A64"/>
<path d="M159.274 113.917C159.543 114.09 159.766 114.324 159.927 114.6C160.088 114.876 160.181 115.186 160.2 115.504C160.2 116.091 159.789 116.329 159.281 116.034C159.013 115.86 158.789 115.625 158.629 115.348C158.469 115.071 158.377 114.76 158.359 114.44C158.353 113.86 158.764 113.624 159.274 113.917Z" fill="#37474F"/>
<path d="M159.273 114.44C159.228 114.408 159.176 114.388 159.122 114.382C159.068 114.375 159.013 114.381 158.962 114.4L155.146 116.598C153.395 117.609 151.863 120.079 151.722 122.099L150.608 138.795L150.569 139.364L151.841 140.1L151.979 138.005L153.034 122.191C153.137 120.613 154.43 118.535 155.801 117.743L159.583 115.554C159.636 115.522 159.678 115.476 159.705 115.421C159.732 115.366 159.742 115.304 159.734 115.243C159.725 115.082 159.679 114.926 159.598 114.787C159.518 114.647 159.407 114.528 159.273 114.44Z" fill="#E0E0E0"/>
<path d="M151.199 138.003C150.746 137.741 150.323 137.719 150.013 137.896L149.524 138.179C149.37 138.284 149.245 138.425 149.159 138.591C149.074 138.757 149.032 138.942 149.036 139.129C148.971 140.098 149.625 141.294 150.496 141.795C150.952 142.06 151.372 142.079 151.685 141.9L152.173 141.62C152.326 141.515 152.45 141.374 152.534 141.21C152.619 141.046 152.662 140.863 152.659 140.678C152.723 139.7 152.07 138.505 151.199 138.003Z" fill="#455A64"/>
<path d="M152.178 140.949C152.241 139.977 151.586 138.784 150.717 138.281C149.848 137.777 149.089 138.158 149.025 139.128C148.962 140.098 149.614 141.293 150.485 141.794C151.357 142.296 152.114 141.919 152.178 140.949Z" fill="#37474F"/>
<path d="M20.4346 135.299C21.3377 133.821 20.6654 132.589 18.9328 132.546C17.9891 132.574 17.0654 132.824 16.2363 133.275C15.4072 133.727 14.6962 134.367 14.1608 135.145C13.2576 136.626 13.9299 137.859 15.6626 137.901C16.6067 137.874 17.531 137.623 18.3602 137.171C19.1894 136.719 19.9002 136.077 20.4346 135.299Z" fill="#E0E0E0"/>
<path d="M40.162 164.295C40.697 165.097 40.6485 166.234 39.8823 167.489C38.4484 169.836 35.0548 171.684 32.3039 171.616C30.7847 171.579 29.781 170.963 29.426 170.026C28.366 168.019 29.4975 165.607 29.4975 165.607L36.4596 162.318C38.2866 162.367 39.4964 163.124 40.162 164.295Z" fill="#CC9A00"/>
<path opacity="0.1" d="M40.162 164.295C40.697 165.097 40.6485 166.234 39.8823 167.489C38.4484 169.836 35.0548 171.684 32.3039 171.616C30.7847 171.579 29.781 170.963 29.426 170.026C28.366 168.019 29.4975 165.607 29.4975 165.607L36.4596 162.318C38.2866 162.367 39.4964 163.124 40.162 164.295Z" fill="#121313"/>
<path opacity="0.1" d="M32.8698 166.63C32.8216 167.496 32.9782 168.36 33.3271 169.154C33.676 169.948 34.2072 170.648 34.8776 171.198C34.0467 171.483 33.1738 171.626 32.2955 171.62C30.7763 171.582 29.7725 170.966 29.4176 170.029C28.53 168.364 29.1782 166.391 29.4105 165.797C29.4519 165.742 29.4789 165.678 29.489 165.61L31.7377 164.548L32.8698 166.63Z" fill="#121313"/>
<path d="M15.0003 126.555C15.0003 126.555 20.3171 132.724 20.6669 133.37L36.4472 162.322C36.7144 162.818 36.6526 163.494 36.2074 164.227C35.6713 165.005 34.9597 165.646 34.13 166.098C33.3002 166.55 32.3757 166.801 31.4313 166.829C30.569 166.808 29.9647 166.489 29.6935 165.99C29.6266 165.869 14.5615 138.24 13.9171 137.045C13.2726 135.851 11.2725 128.624 11.2725 128.624C11.2065 128.453 11.1852 128.269 11.2105 128.088C11.2358 127.906 11.3069 127.734 11.4171 127.588C11.715 127.155 12.1108 126.799 12.5724 126.547C13.034 126.296 13.5483 126.157 14.0737 126.142C14.2499 126.132 14.4258 126.164 14.587 126.236C14.7481 126.308 14.8898 126.417 15.0003 126.555Z" fill="#CC9A00"/>
<path opacity="0.1" d="M14.0611 126.154C14.2356 126.143 14.4101 126.174 14.5705 126.244C14.7308 126.313 14.8725 126.42 14.9838 126.555C14.9838 126.555 19.8971 132.259 20.5708 133.265C20.924 133.771 20.8937 134.506 20.406 135.295C19.8736 136.068 19.1671 136.706 18.3433 137.157C17.5195 137.608 16.6014 137.859 15.6629 137.89C14.7925 137.869 14.1922 137.55 13.921 137.05C13.2725 135.855 11.2765 128.629 11.2765 128.629C11.2105 128.458 11.1892 128.273 11.2145 128.092C11.2398 127.911 11.3109 127.739 11.4211 127.593C11.7182 127.164 12.1117 126.81 12.5702 126.56C13.0286 126.31 13.5392 126.171 14.0611 126.154Z" fill="#121313"/>
<path d="M21.4296 150.841C21.7008 151.341 22.305 151.664 23.1713 151.685C24.1158 151.657 25.0403 151.406 25.87 150.954C26.6997 150.502 27.4114 149.861 27.9474 149.083C28.397 148.342 28.4547 147.666 28.1835 147.166C28.1835 147.166 27.5816 145.574 25.0221 140.388C22.4625 135.202 22.1685 136.131 22.1685 136.131L22.3729 136.506C22.6442 137.006 22.5865 137.682 22.1328 138.423C21.5977 139.201 20.8868 139.842 20.0577 140.294C19.2286 140.746 18.3047 140.997 17.3608 141.025C16.4945 141.004 15.8944 140.681 15.6189 140.186L15.3478 139.682C15.3478 139.682 15.1179 140.346 17.0843 143.923C18.4148 146.301 19.8651 148.61 21.4296 150.841Z" fill="#37474F"/>
<path d="M27.9474 149.083C28.397 148.342 28.4547 147.666 28.1835 147.166C28.1835 147.166 27.5816 145.574 25.0221 140.388C22.4625 135.202 22.1685 136.131 22.1685 136.131L22.3729 136.506C22.6442 137.006 22.5865 137.682 22.1328 138.423C21.8639 138.847 21.5302 139.227 21.1438 139.549L26.9544 150.209C27.3419 149.887 27.677 149.507 27.9474 149.083Z" fill="#455A64"/>
<path opacity="0.25" d="M12.2581 129.136C12.7833 129.121 13.2973 128.981 13.7583 128.729C14.2193 128.477 14.6142 128.119 14.9108 127.686C15.4154 126.876 15.0423 126.177 14.0774 126.153C13.552 126.169 13.0377 126.308 12.5761 126.559C12.1145 126.81 11.7187 127.167 11.4208 127.6C10.9198 128.426 11.2933 129.113 12.2581 129.136Z" fill="#121313"/>
<path d="M3.6606 110.007C3.62856 110.007 3.59702 110.015 3.56873 110.03C3.54045 110.045 3.51625 110.067 3.49825 110.093C3.49367 110.102 3.49117 110.112 3.49093 110.122C3.49068 110.132 3.4927 110.141 3.49684 110.151C3.54278 110.287 4.24009 112.342 4.49135 112.985L4.56512 113.159L12.6244 127.942C12.6541 127.991 12.6968 128.03 12.7477 128.056C12.7986 128.082 12.8556 128.093 12.9125 128.089C13.0691 128.086 13.2225 128.044 13.3592 127.968C13.4984 127.895 13.6169 127.787 13.7037 127.656C13.7367 127.611 13.7574 127.558 13.7638 127.503C13.7702 127.448 13.7621 127.392 13.7402 127.341L5.677 112.55C5.59678 112.414 5.50806 112.282 5.41138 112.157C4.88293 111.425 3.81791 110.126 3.73 110.025C3.72116 110.016 3.71002 110.009 3.6978 110.006C3.68558 110.003 3.67273 110.003 3.6606 110.007Z" fill="#455A64"/>
<path d="M3.66054 110.008C3.62849 110.008 3.59696 110.016 3.56867 110.031C3.54038 110.047 3.51619 110.068 3.49819 110.095C3.49361 110.104 3.49111 110.113 3.49086 110.123C3.49062 110.133 3.49264 110.143 3.49678 110.152C3.54272 110.289 4.24002 112.344 4.49129 112.987C4.67658 112.802 4.58801 112.393 4.42514 111.999C4.26226 111.605 3.56457 110.236 3.6485 110.164C3.73243 110.092 4.26374 111.042 4.65662 111.606C5.0495 112.171 5.37064 112.31 5.40311 112.159C4.87466 111.427 3.80963 110.127 3.72172 110.026C3.71368 110.019 3.70394 110.013 3.6933 110.01C3.68266 110.007 3.67143 110.006 3.66054 110.008Z" fill="#37474F"/>
<path opacity="0.2" d="M13.5351 127.497C13.5351 127.497 5.54041 112.762 5.38563 112.54C5.30212 112.427 5.09914 112.328 4.87947 112.072C4.58576 111.698 4.32078 111.303 4.08681 110.89C3.51844 109.943 4.01507 111.135 4.69569 112.195C4.84997 112.437 5.24302 112.492 5.38829 112.766C6.04425 113.994 13.2072 127.802 13.2072 127.802C13.2072 127.802 13.4899 127.669 13.5351 127.497Z" fill="white"/>
</svg>
