<svg width="200" height="200" viewBox="0 0 200 200" fill="none" xmlns="http://www.w3.org/2000/svg">
<g clip-path="url(#clip0_682_25911)">
<path fill-rule="evenodd" clip-rule="evenodd" d="M95.3511 40.0786C119.484 41.5624 131.191 65.3973 145.943 82.1754C157.899 95.7741 168.961 109.409 171.286 126.445C173.971 146.122 175.558 168.605 159.663 182.721C143.717 196.882 117.964 195.809 95.3511 193.883C72.1366 194.322 53.3796 187.342 42.4481 172.737C26.9316 160.174 13.0786 144.922 12.0648 126.445C11.0113 107.244 22.9446 90.1752 37.1121 75.4837C52.9597 59.05 70.8381 38.5713 95.3511 40.0786Z" fill="#FFF3CC"/>
<path d="M92.0601 44.8647L92.9295 44.8164C97.1236 44.5763 101.254 45.9237 104.5 48.5907C107.746 51.2577 109.869 55.0488 110.446 59.2099C111.557 67.2599 108.823 69.6774 109 74.0002C109.411 82.968 102.184 88.5002 102.184 88.5002L104.707 94.952C104.833 96.3825 104.674 97.8237 104.241 99.1929C103.809 100.562 103.109 101.832 102.184 102.93C101.259 104.029 100.125 104.933 98.8495 105.592C97.5735 106.251 96.1799 106.651 94.7488 106.769C91.8972 106.998 89.07 106.096 86.8772 104.259C84.6845 102.422 83.302 99.796 83.028 96.9484L79.808 63.6937C78.5039 54.4362 82.7704 45.9515 92.0601 44.8647Z" fill="#FFBF9D"/>
<path d="M102 88.5007C97.8507 88.7417 93.6289 87.6491 90 85.6777C90 85.6777 94.1185 91.7827 103 90.5007L102 88.5007Z" fill="#FF9A6C"/>
<path d="M95.996 68.3284C96.0248 68.7349 95.8978 69.1368 95.6425 69.447C95.3872 69.7572 95.0242 69.9508 94.632 69.9858C94.4413 70.0133 94.2472 70.0008 94.0612 69.9492C93.8752 69.8975 93.7011 69.8078 93.5492 69.6852C93.3973 69.5627 93.2706 69.4099 93.1768 69.2358C93.083 69.0617 93.0238 68.8698 93.0028 68.6716C92.9789 68.2663 93.1076 67.8672 93.362 67.5581C93.6163 67.249 93.9765 67.054 94.3668 67.0142C94.5575 66.9867 94.7516 66.9992 94.9376 67.0509C95.1236 67.1025 95.2977 67.1922 95.4496 67.3148C95.6015 67.4373 95.7282 67.5901 95.822 67.7642C95.9158 67.9383 95.975 68.1302 95.996 68.3284Z" fill="#263238"/>
<path d="M108.788 63.701C108.635 63.8781 107.629 63.21 106.252 63.2985C104.876 63.3871 103.902 64.1035 103.749 63.9667C103.596 63.8298 103.813 63.5883 104.232 63.2422C104.804 62.793 105.501 62.5316 106.228 62.4935C106.943 62.4539 107.653 62.6397 108.257 63.0248C108.683 63.3227 108.844 63.6125 108.788 63.701Z" fill="#263238"/>
<path d="M107.997 68.3284C108.021 68.7337 107.892 69.1328 107.638 69.4419C107.384 69.751 107.023 69.946 106.633 69.9858C106.442 70.0133 106.248 70.0008 106.062 69.9491C105.876 69.8975 105.702 69.8078 105.55 69.6852C105.398 69.5627 105.271 69.4099 105.177 69.2358C105.084 69.0617 105.024 68.8698 105.003 68.6716C104.977 68.2657 105.105 67.8652 105.36 67.5556C105.615 67.2459 105.976 67.0516 106.368 67.0142C106.558 66.9867 106.753 66.9992 106.939 67.0509C107.125 67.1025 107.299 67.1922 107.451 67.3148C107.603 67.4373 107.729 67.5901 107.823 67.7642C107.917 67.9383 107.976 68.1302 107.997 68.3284Z" fill="#263238"/>
<path d="M95.256 64.7316C95.1111 64.9087 94.0968 64.2486 92.7202 64.3291C91.3437 64.4096 90.3777 65.1341 90.2167 64.9973C90.0557 64.8604 90.2811 64.6189 90.7077 64.2728C91.2758 63.8278 91.9674 63.5691 92.688 63.5322C93.4038 63.4864 94.1152 63.6727 94.7166 64.0635C95.1674 64.3613 95.3284 64.6511 95.256 64.7316Z" fill="#263238"/>
<path d="M100.835 74.6567C101.546 74.3823 102.29 74.201 103.049 74.1173C103.403 74.061 103.725 73.9724 103.773 73.7309C103.785 73.3658 103.684 73.0059 103.483 72.7005C103.097 71.8955 102.678 71.002 102.284 70.0843C100.626 66.3571 99.4019 63.29 99.5468 63.2256C99.6917 63.1612 101.157 66.1237 102.831 69.8508C103.234 70.7685 103.636 71.646 103.982 72.4832C104.225 72.8956 104.318 73.3786 104.248 73.8517C104.204 73.9799 104.132 74.0961 104.035 74.1911C103.939 74.2862 103.821 74.3574 103.693 74.3991C103.503 74.4654 103.305 74.506 103.105 74.5198C102.356 74.6547 101.594 74.7006 100.835 74.6567Z" fill="#263238"/>
<path d="M95.359 60.4005C95.2383 60.7788 93.8537 60.6822 92.2517 60.972C90.6498 61.2618 89.3698 61.777 89.1364 61.447C89.0317 61.294 89.241 60.9318 89.7401 60.5373C90.4173 60.0516 91.1963 59.7266 92.0179 59.5871C92.8395 59.4476 93.6821 59.4973 94.4816 59.7323C95.0853 59.9416 95.4073 60.2153 95.359 60.4005Z" fill="#263238"/>
<path d="M108.086 60.827C107.869 61.149 106.903 60.8833 105.76 60.9316C104.617 60.9799 103.667 61.2617 103.425 60.9316C103.321 60.7787 103.425 60.4567 103.852 60.1266C104.397 59.7358 105.049 59.5197 105.72 59.5068C106.392 59.4784 107.056 59.6614 107.619 60.03C108.038 60.352 108.191 60.666 108.086 60.827Z" fill="#263238"/>
<path d="M109.344 55.1525C109.344 55.1525 106.663 49.6784 103.878 48.5192C100.513 47.1266 99.3133 50.8054 96.1416 50.1292C92.9699 49.453 89.7579 48.1006 86.707 50.6927C83.3743 53.5344 85.097 55.2974 85.097 59.2821C85.1453 75.4385 82.4646 80.1639 81.1927 72.629C81.0559 71.824 78.7052 71.2686 78.1659 67.799C77.4575 63.2749 76.9664 57.7526 77.7956 54.4602C78.4959 51.6909 79.9369 49.7187 82.6256 47.4808C86.8358 43.9549 92.8652 43.5363 96.9949 43.7134C101.125 43.8905 109.319 48.1006 109.344 55.1525Z" fill="#263238"/>
<path d="M81.7803 72.3236C81.7532 71.9929 81.6583 71.6713 81.5014 71.3788C81.3446 71.0864 81.1291 70.8295 80.8685 70.624C80.6079 70.4185 80.3078 70.269 79.9868 70.1847C79.6658 70.1004 79.331 70.0831 79.003 70.134C77.3447 70.3916 75.5415 71.4462 75.8474 74.8916C76.3948 81.0016 82.4162 79.1903 82.4162 79.0132C82.4162 78.8361 82.0298 74.8835 81.7803 72.3236Z" fill="#FFBF9D"/>
<path d="M80.8948 76.8303C80.8948 76.8303 80.7982 76.9188 80.6211 77.0154C80.3742 77.1475 80.0858 77.1793 79.8161 77.104C79.156 76.9269 78.52 75.9448 78.3912 74.85C78.3275 74.3266 78.3825 73.7955 78.5522 73.2963C78.5923 73.1011 78.6792 72.9186 78.8054 72.7643C78.9316 72.6101 79.0933 72.4888 79.2767 72.4108C79.3957 72.3686 79.5255 72.3688 79.6444 72.4113C79.7632 72.4538 79.8637 72.5361 79.9288 72.6443C80.0334 72.8053 80.0012 72.934 80.0334 72.9421C80.0656 72.9501 80.1542 72.8294 80.0817 72.5798C80.0362 72.4305 79.9392 72.3022 79.808 72.2176C79.6284 72.1045 79.4114 72.0669 79.2043 72.1129C78.9589 72.1861 78.7363 72.3205 78.5574 72.5036C78.3785 72.6868 78.2493 72.9125 78.1819 73.1595C77.9686 73.7126 77.894 74.3096 77.9646 74.8983C78.1175 76.1299 78.8501 77.2247 79.7517 77.4018C79.9198 77.4353 80.0934 77.4302 80.2593 77.387C80.4252 77.3438 80.5792 77.2635 80.7096 77.1523C80.8948 76.9832 80.9189 76.8464 80.8948 76.8303Z" fill="#FF9A6C"/>
<path d="M110.648 48.5191C109.706 47.8107 108.41 47.7141 107.476 46.9977C103.316 43.8042 96.6129 37.7091 90.8888 40.8959C88.7107 42.1085 85.9615 42.2125 84.0181 43.6006C83.4528 44.0475 82.9874 44.608 82.6519 45.2458C82.3164 45.8835 82.1182 46.5845 82.07 47.3036C82.07 47.3036 81.4341 46.9816 79.5021 48.5111C78.2704 49.4851 77.2642 51.5862 76.8134 53.0835C76.1452 55.3294 77.1193 57.6962 78.0772 59.8294C78.5924 60.9806 79.2364 62.2444 80.4359 62.655C81.8929 63.146 83.5029 62.0029 84.0745 60.57C84.646 59.1371 85.5476 57.6962 86.2399 56.3196C87.4474 53.9046 88.6549 51.6989 87.6648 50.1694C90.93 49.1089 93.0942 51.0056 95.9966 52.0289C97.2173 52.4594 102.143 53.276 103.5 52.9513C103.939 52.8464 104.349 52.6439 104.699 52.359C105.252 53.2599 106.124 53.9194 107.141 54.2059C108.159 54.4923 109.247 54.3848 110.189 53.9046C112.008 52.7776 112.33 49.791 110.648 48.5191Z" fill="#263238"/>
<path d="M77.4653 58.3875C77.7478 58.8294 77.9852 59.2987 78.1737 59.7882C78.3945 60.2826 78.7415 60.7102 79.18 61.0279C79.7661 61.3278 80.4411 61.405 81.0798 61.2452C81.7438 61.1164 82.3707 60.8414 82.9152 60.4402C83.3543 60.0994 83.7539 59.7106 84.1066 59.281C84.4148 58.8596 84.7568 58.4638 85.129 58.0977C84.9327 58.5852 84.6611 59.0388 84.324 59.442C83.9868 59.9161 83.5859 60.3413 83.1325 60.7059C82.5515 61.1447 81.8763 61.4424 81.1603 61.5753C80.4348 61.7551 79.6679 61.6484 79.019 61.2774C78.5341 60.9224 78.1645 60.4324 77.9564 59.8687C77.7324 59.397 77.5674 58.8995 77.4653 58.3875Z" fill="#B9B8B6"/>
<path d="M77.6989 63.1146C78.0674 63.394 78.474 63.619 78.9065 63.7828C79.3769 63.9318 79.8743 63.9757 80.3635 63.9116C80.9641 63.8203 81.5379 63.6007 82.046 63.2676C82.9688 62.6266 83.7521 61.805 84.3483 60.8526C84.5759 60.4394 84.8457 60.0509 85.1533 59.6934C85.0124 60.1539 84.8035 60.5907 84.5334 60.9894C83.9864 62.0378 83.1937 62.9383 82.2231 63.6137C81.6703 63.9795 81.0384 64.2085 80.3796 64.2819C79.8332 64.342 79.2805 64.2674 78.7696 64.0645C77.9485 63.6701 77.6587 63.1227 77.6989 63.1146Z" fill="#B9B8B6"/>
<path d="M96.7029 79.6289C96.4969 79.9662 96.3821 80.3164 96.3615 80.6697C96.3372 80.8368 96.3835 81.0047 96.4972 81.1618C96.6109 81.319 96.7894 81.4618 97.0205 81.5804C97.2599 81.7262 97.5589 81.8432 97.8964 81.9233C98.2338 82.0034 98.6015 82.0446 98.9734 82.0439C99.6443 82.0432 100.293 81.92 100.802 81.6964C101.311 81.4729 101.648 81.1636 101.752 80.8242L101.99 80.0558C100.601 79.8525 96.8061 79.6818 96.7029 79.6289Z" fill="#FF9A6C"/>
<path d="M100.948 81.1252C100.948 81.1252 100.753 81.1252 100.431 81.1411C99.9786 81.163 99.5184 81.163 99.0662 81.1411C98.4134 81.1089 97.8233 81.0007 97.4135 80.8381C96.9255 80.6348 96.6932 80.3822 96.7609 80.1285C96.7805 79.9858 96.8991 79.8462 97.1084 79.7193L96.9049 79.7485C98.3542 79.8176 99.6256 79.8734 100.524 79.9053C101.007 79.9336 101.499 79.9452 101.99 79.9399C101.532 79.884 101.054 79.8465 100.566 79.8282C99.668 79.7751 98.4136 79.7033 96.9643 79.6289H96.8287L96.7693 79.6661C96.4444 79.8636 96.3061 80.086 96.3707 80.3073C96.4353 80.5286 96.7 80.7395 97.1338 80.9152C97.6097 81.0951 98.291 81.2096 99.0323 81.2341C99.514 81.2474 99.9994 81.233 100.465 81.1916C100.639 81.1806 100.804 81.1579 100.948 81.1252Z" fill="#263238"/>
<path d="M60.4879 106.576C59.9566 106.576 52.3735 109.603 50.3771 117.041C48.3807 124.479 42.9308 151.769 42.9308 151.769L37.1428 159.787C37.1428 159.787 39.0185 174.414 49.6526 171.628C49.6526 171.628 56.7527 172.868 59.0147 165.671C61.2768 158.475 65.6641 137.005 65.6641 137.005L60.4879 106.576Z" fill="#B9B8B6"/>
<path d="M60.4879 106.576C59.9566 106.576 52.3735 109.603 50.3771 117.041C48.3807 124.479 42.9308 151.769 42.9308 151.769L37.1428 159.787C37.1428 159.787 39.0185 174.414 49.6526 171.628C49.6526 171.628 56.7527 172.868 59.0147 165.671C61.2768 158.475 65.6641 137.005 65.6641 137.005L60.4879 106.576Z" fill="white"/>
<path d="M82.1472 94L78.1204 100.196L60 106.752L65.1865 160.234L63.2697 188.228C80 197.5 124.262 195.715 127 194.5C128.425 194.459 128.681 191.408 128.914 189.425C129.115 187.645 128.962 185.841 128.463 184.123L125.459 173.403C125.902 180.074 123.937 133.607 123.848 131.911L128.238 108.006L107.621 99.5154L104.399 94.5081L95.1215 101.687L82.1472 94Z" fill="#B9B8B6"/>
<path d="M85 104.5L78.1204 100.196L60 106.752L65.1865 160.234L63.2697 188.228C80 197.5 124.262 195.715 127 194.5C128.425 194.459 128.681 191.408 128.914 189.425C129.115 187.645 128.962 185.841 128.463 184.123L125.459 173.403C125.902 180.074 123.937 133.607 123.848 131.911L128.238 108.006L108.5 99.5L103.5 105L107.621 195.482L88.9644 194.5L85 104.5Z" fill="white"/>
<path d="M128.664 107.84C128.664 107.84 132.809 111.478 133.494 114.28C134.178 117.081 149.087 149.354 149.087 149.354L156.493 151.35L158.473 155.456C159.63 157.81 159.941 160.49 159.355 163.047C158.768 165.603 157.32 167.88 155.253 169.495C154.995 169.69 154.727 169.871 154.448 170.034C150.423 172.449 143.258 172.321 139.064 167.378C135.096 162.693 123.479 145.852 123.479 145.852V125.244L128.664 107.84Z" fill="#B9B8B6"/>
<path d="M128.664 107.84C128.664 107.84 132.809 111.478 133.494 114.28C134.178 117.081 149.087 149.354 149.087 149.354L156.493 151.35L158.473 155.456C159.63 157.81 159.941 160.49 159.355 163.047C158.768 165.603 157.32 167.88 155.253 169.495C154.995 169.69 154.727 169.871 154.448 170.034C150.423 172.449 143.258 172.321 139.064 167.378C135.096 162.693 123.479 145.852 123.479 145.852V125.244L128.664 107.84Z" fill="white"/>
<path d="M152.95 152.59L163.601 146.303L168.737 152.59L167.674 155.633L153.941 165.848C152.236 164.457 151.092 162.495 150.721 160.326C150.117 156.486 152.95 152.59 152.95 152.59Z" fill="#FFBF9D"/>
<path d="M149.569 149.337C149.569 149.442 148.66 149.337 147.324 149.788C145.597 150.385 144.068 151.446 142.904 152.855C141.754 154.295 140.806 155.885 140.087 157.581C139.815 158.307 139.478 159.008 139.08 159.674C139.188 158.901 139.405 158.147 139.724 157.436C140.357 155.646 141.291 153.977 142.485 152.501C143.707 151.009 145.361 149.932 147.219 149.418C147.979 149.167 148.794 149.139 149.569 149.337Z" fill="#263238"/>
<path d="M163.424 149.789C163.158 148.399 163.253 146.964 163.7 145.621C164.147 144.277 164.93 143.071 165.976 142.117C168.49 140.049 171.334 138.416 174.388 137.287C176.255 136.482 180.144 133.206 180.828 133.995C181.512 134.784 181.818 135.959 180.828 137.392C179.838 138.825 174.211 140.958 175 142.769C175.322 143.502 177.093 143.639 177.093 143.639C180.307 143.865 183.531 143.929 186.753 143.832C189.602 143.582 192.162 144.13 192.009 145.112C191.856 146.094 191.325 146.633 188.966 146.834C186.608 147.036 182.768 146.883 182.526 147.422C182.285 147.961 183.122 148.308 184.499 148.227C185.875 148.147 192.363 148.122 192.806 148.863C192.914 149.051 192.979 149.261 192.996 149.477C193.013 149.692 192.981 149.91 192.904 150.112C192.827 150.314 192.706 150.497 192.55 150.648C192.394 150.798 192.207 150.911 192.001 150.98L190.48 151.52C190.48 151.52 191.365 152.751 190.625 153.435C189.884 154.12 188.21 153.878 188.21 153.878L179.604 153.637C179.604 153.637 179.113 154.152 179.355 154.506C179.596 154.86 186.342 154.369 186.39 155.11C186.439 155.85 187.026 156.189 185.014 156.72C182.066 157.211 179.058 157.211 176.11 156.72C174.291 156.221 166.668 155.915 166.668 155.915L163.424 149.789Z" fill="#FFBF9D"/>
<path d="M46.4649 153.709L36.507 145.449L30.7915 151.889L31.4919 155.037L43.9372 166.758C45.7822 165.7 47.1744 164.001 47.8495 161.984C49.0892 158.434 46.4649 153.709 46.4649 153.709Z" fill="#FFBF9D"/>
<path d="M36.3943 149.747C36.8225 148.399 36.8994 146.964 36.6176 145.578C36.3359 144.192 35.7048 142.9 34.7843 141.826C32.5191 139.475 29.8704 137.526 26.9516 136.062C25.1967 135.008 21.7191 131.337 20.9382 132.037C20.4752 132.455 20.1799 133.026 20.1074 133.646C20.0348 134.265 20.1899 134.889 20.5438 135.402C21.3488 136.94 25.2289 138.727 25.092 140.699C25.0778 140.89 25.026 141.076 24.9398 141.247C24.8536 141.418 24.7346 141.57 24.5896 141.695C24.4446 141.82 24.2764 141.915 24.0946 141.975C23.9129 142.034 23.7211 142.058 23.5303 142.044C20.3183 141.896 17.1157 141.587 13.9347 141.118C11.1252 140.538 8.52508 140.78 8.55728 141.77C8.58948 142.76 9.06443 143.38 11.3828 143.839C13.7012 144.298 17.5331 144.644 17.6619 145.167C17.7907 145.69 16.9776 145.972 15.6171 145.722C14.2567 145.473 7.81668 144.708 7.29343 145.392C7.16372 145.564 7.07381 145.763 7.03018 145.974C6.98654 146.185 6.99027 146.403 7.04109 146.613C7.09191 146.822 7.18855 147.018 7.32406 147.185C7.45957 147.353 7.63057 147.488 7.82473 147.582L9.27373 148.298C9.27373 148.298 8.25138 149.417 8.90343 150.182C9.55548 150.947 11.246 150.907 11.246 150.907L19.8273 151.663C19.8273 151.663 20.254 152.235 19.9642 152.557C19.6744 152.879 13.0492 151.607 12.9123 152.34C12.7755 153.072 12.1476 153.338 14.0957 154.062C16.9698 154.895 19.9619 155.246 22.9507 155.101C24.8183 154.819 32.4336 155.366 32.4336 155.366L36.3943 149.747Z" fill="#FFBF9D"/>
<path d="M107.54 101.006C107.002 101.678 106.404 102.301 105.753 102.865C104.618 103.976 103.065 105.53 101.422 107.301C101.076 107.679 100.73 108.05 100.408 108.412L100.191 108.645L99.9894 108.396C98.7175 106.786 97.6146 105.305 96.8418 104.25C96.3881 103.714 96.0015 103.125 95.6907 102.495C96.225 102.952 96.7058 103.468 97.1236 104.033C97.9688 105.031 99.128 106.448 100.416 108.058H100.005L101.012 106.939C102.426 105.41 103.92 103.956 105.488 102.584C106.105 101.976 106.794 101.446 107.54 101.006Z" fill="#263238"/>
<path d="M61.623 120.502C61.771 120.857 61.8711 121.231 61.9209 121.613C62.0738 122.337 62.267 123.392 62.4763 124.696C62.8949 127.304 63.3377 130.927 63.708 134.936C64.0783 138.945 64.352 142.583 64.5613 145.216C64.6418 146.439 64.7223 147.478 64.7786 148.331C64.8291 148.713 64.8291 149.1 64.7786 149.482C64.6638 149.115 64.5882 148.738 64.5532 148.355C64.4405 147.622 64.3037 146.56 64.1588 145.248C63.8529 142.631 63.5148 139.001 63.1445 134.992C62.7742 130.983 62.4119 127.369 62.098 124.793C61.945 123.577 61.8162 122.539 61.7116 121.693C61.6284 121.302 61.5986 120.901 61.623 120.502Z" fill="#263238"/>
<path d="M124.606 118.676C124.721 119.132 124.789 119.599 124.808 120.068C124.896 120.978 124.993 122.282 125.073 123.908C125.258 127.128 125.347 131.636 125.363 136.579V153.09C125.389 153.56 125.37 154.032 125.307 154.498C125.202 154.039 125.151 153.569 125.154 153.098C125.089 152.188 125.025 150.876 124.977 149.258C124.864 146.038 124.824 141.53 124.816 136.587C124.808 131.644 124.767 127.161 124.687 123.924C124.647 122.387 124.614 121.099 124.59 120.085C124.552 119.615 124.557 119.144 124.606 118.676Z" fill="#263238"/>
<path d="M53.4522 165.123C53.2003 164.209 53.0147 163.279 52.8968 162.338C52.5196 160.092 51.7915 157.918 50.7394 155.898C49.6657 153.917 48.0523 152.282 46.0865 151.181C45.2411 150.777 44.3666 150.438 43.4702 150.166C43.7354 150.109 44.01 150.109 44.2752 150.166C44.9726 150.283 45.6502 150.497 46.2877 150.802C48.4029 151.857 50.1364 153.546 51.2465 155.632C52.3118 157.706 52.9884 159.957 53.2429 162.274C53.4324 163.211 53.5027 164.168 53.4522 165.123Z" fill="#263238"/>
<path d="M56.0364 154.248C55.9237 154.377 54.3217 152.727 51.7135 151.833C49.1053 150.94 46.8835 151.246 46.8352 151.077C46.7869 150.908 49.1456 150.36 51.8906 151.318C54.6357 152.276 56.1571 154.184 56.0364 154.248Z" fill="#263238"/>
<path d="M96.8901 191.656C96.8413 191.358 96.8197 191.057 96.8257 190.755C96.8257 190.119 96.8257 189.258 96.7693 188.179C96.721 185.885 96.6566 182.657 96.5761 178.688C96.391 170.638 96.1334 159.585 95.8436 147.381C95.5538 135.177 95.4008 124.076 95.4169 116.059C95.4169 112.034 95.4572 108.814 95.5055 106.56C95.5055 105.481 95.5618 104.62 95.586 103.984C95.5792 103.682 95.6008 103.38 95.6504 103.082C95.6728 103.382 95.6728 103.684 95.6504 103.984C95.6504 104.62 95.6504 105.481 95.6504 106.56C95.6504 108.854 95.6987 112.09 95.7309 116.051C95.8114 124.101 96.0448 135.137 96.3185 147.365C96.5922 159.593 96.8337 170.662 96.8981 178.68C96.8981 182.705 96.8981 185.925 96.8981 188.179C96.8981 189.258 96.8981 190.119 96.8579 190.755C96.8892 191.054 96.8999 191.356 96.8901 191.656Z" fill="#263238"/>
<path d="M45.9979 153.37C45.9979 153.305 46.8029 153.909 47.4469 155.246C47.8415 156.007 48.1287 156.82 48.3002 157.661C48.4655 158.728 48.4655 159.814 48.3002 160.881C48.18 161.949 47.8634 162.986 47.3664 163.94C46.936 164.713 46.3427 165.383 45.6276 165.904C44.9987 166.426 44.2068 166.71 43.3896 166.709C44.0971 166.416 44.7673 166.041 45.3861 165.59C46.0209 165.069 46.5439 164.426 46.9236 163.698C47.3544 162.788 47.6266 161.81 47.7286 160.808C47.8735 159.804 47.8735 158.785 47.7286 157.781C47.5903 156.952 47.3553 156.141 47.0283 155.366C46.5292 154.086 45.9174 153.418 45.9979 153.37Z" fill="#263238"/>
<path d="M155.937 166.967C155.937 166.967 155.679 166.967 155.269 166.765C154.693 166.511 154.151 166.184 153.659 165.791C151.972 164.492 150.818 162.621 150.415 160.531C150.012 158.44 150.387 156.274 151.469 154.441C151.785 153.89 152.169 153.381 152.612 152.927C152.926 152.621 153.128 152.476 153.152 152.501C153.176 152.525 152.508 153.249 151.807 154.626C150.871 156.407 150.569 158.453 150.951 160.428C151.333 162.404 152.376 164.19 153.908 165.493C155.06 166.508 155.977 166.878 155.937 166.967Z" fill="#263238"/>
<path d="M176.408 140.41C176.473 140.475 176.006 140.917 175.418 141.698C175.08 142.145 174.846 142.662 174.734 143.212C174.605 143.831 174.621 144.556 174.509 145.353C174.413 146.037 174.182 146.695 173.829 147.29C173.477 147.884 173.01 148.402 172.456 148.814C172.032 149.196 171.495 149.428 170.926 149.474C170.886 149.386 171.482 149.161 172.214 148.508C173.157 147.673 173.778 146.534 173.969 145.288C174.022 144.56 174.114 143.834 174.243 143.115C174.397 142.515 174.695 141.963 175.112 141.505C175.45 141.042 175.895 140.666 176.408 140.41Z" fill="#FF9A6C"/>
<path d="M21.1394 148.879C21.1394 149.024 18.4588 149.169 15.1502 149.008C11.8417 148.847 9.18514 148.46 9.20124 148.307C9.21734 148.155 11.8819 148.307 15.1744 148.46C18.4668 148.613 21.1394 148.718 21.1394 148.879Z" fill="#FF9A6C"/>
<path d="M27.2332 148.42C27.2332 148.477 26.5973 148.372 25.8406 147.736C25.3505 147.31 24.9606 146.781 24.699 146.187C24.4374 145.592 24.3104 144.948 24.3272 144.299C24.3845 143.612 24.5085 142.933 24.6975 142.27C24.8384 141.745 24.9061 141.203 24.8987 140.66C24.8525 140.175 24.7415 139.699 24.5687 139.243C24.5687 139.187 25.1563 139.613 25.2851 140.628C25.3502 141.198 25.3175 141.775 25.1885 142.334C25.037 142.973 24.9321 143.621 24.8746 144.274C24.8575 145.442 25.2998 146.569 26.1062 147.414C26.7261 148.138 27.2735 148.34 27.2332 148.42Z" fill="#FF9A6C"/>
<path d="M177.906 150.328C177.906 150.175 180.779 150.288 184.289 150.578C187.799 150.867 190.641 151.238 190.633 151.383C190.625 151.528 187.759 151.423 184.249 151.125C180.739 150.827 177.897 150.473 177.906 150.328Z" fill="#FF9A6C"/>
<path d="M95.0386 101.971C94.717 103.043 94.3106 104.087 93.823 105.095C93.6057 105.578 93.3803 106.101 93.1468 106.64C92.9159 107.255 92.6471 107.854 92.3418 108.435C92.2256 108.626 92.0566 108.78 91.8552 108.877C91.6538 108.974 91.4286 109.011 91.2068 108.983C90.8168 108.88 90.4541 108.693 90.1442 108.435L88.2444 107.139C85.6522 105.352 83.3258 103.702 81.6514 102.494C80.7152 101.882 79.832 101.193 79.011 100.434C80.0083 100.936 80.9639 101.518 81.8687 102.172C83.5995 103.307 85.9662 104.893 88.5583 106.688L90.4501 107.993C90.6968 108.206 90.9844 108.368 91.2953 108.468C91.4222 108.483 91.5508 108.459 91.6642 108.401C91.7776 108.342 91.8707 108.25 91.9313 108.137C92.5431 107.027 93.0502 105.827 93.5413 104.917C93.9576 103.895 94.4584 102.91 95.0386 101.971Z" fill="#263238"/>
<path d="M78 100L85 104L89 195L86.4286 136.5L82.5 118.5L78 108L81 106L78 100Z" fill="#D9D9D9"/>
<path d="M108.5 98.9994L103.314 104.559L106.774 195.581L105 136.499L106.992 118.806L110.618 107.973L107.464 106.225L108.5 98.9994Z" fill="#D9D9D9"/>
<path d="M81.5449 72.0726C85.476 74.9485 94.1451 74.6726 100.462 71.4312C101.118 71.0941 101.865 70.9791 102.591 71.1035C103.318 71.2279 103.984 71.5849 104.49 72.1209C104.49 72.1209 107.531 74.0726 109.559 71.9277C110.635 76.714 109.407 85.5831 104.918 88.3624C100.428 91.1418 92.0623 90.0866 88.3657 87.9831C86.1889 86.7959 84.4093 84.9947 83.2484 82.8037L83.0967 74.2174L81.5932 73.5278L81.5449 72.0726Z" fill="white"/>
<path d="M109.559 71.9491C107.531 74.0939 104.49 72.1422 104.49 72.1422C104.1 71.7608 103.628 71.4731 103.111 71.3008C104.773 74.9353 104.607 85.5354 100.924 89.7907C101.627 89.6727 102.319 89.4974 102.993 89.2665H103.035C103.317 89.17 103.593 89.0527 103.855 88.9355L104.007 88.8734C104.275 88.7483 104.535 88.6078 104.786 88.4527L104.897 88.3975C106.059 87.6218 107.008 86.5665 107.655 85.3285C107.835 85.0044 108.007 84.6389 108.166 84.3216C109.826 80.4213 110.31 76.1209 109.559 71.9491Z" fill="#D9D9D9"/>
<path d="M95.3382 74.7011C99.0072 73.7424 102.062 71.4183 104.69 73.0252C106.311 74.0252 108.449 74.3011 109.78 73.2873C109.718 72.8183 109.649 72.3631 109.559 71.9493C107.635 73.5631 104.49 72.1424 104.49 72.1424C103.954 71.5844 103.257 71.2082 102.497 71.0665C101.187 70.8803 100.428 71.0665 98.8279 71.8596C93.0071 74.6183 85.4898 74.4735 81.5449 72.0735V73.5217C82.1997 73.9753 82.9147 74.3351 83.6691 74.5907C87.4649 75.7638 91.5208 75.8021 95.3382 74.7011Z" fill="#FAFAFA"/>
<path d="M83.2138 82.8257L81 82.8395L81.0069 81.3361L83.1793 81.3223L83.2138 82.8257Z" fill="#FAFAFA"/>
<path d="M95 196.701H100.027C100.027 196.701 101.224 178.202 112.445 177.279C118.366 176.782 123.83 181.004 128.077 185.723C123.87 180.944 116.409 174.795 109.291 174.795C98.5466 174.8 95 196.701 95 196.701Z" fill="#263238"/>
<path d="M128.167 139.413L120.462 123.701L117.85 127.228L124.461 139.413H128.167Z" fill="#263238"/>
<path d="M117.317 124.721L126.11 141.391L122.112 143.5L113.319 126.83L117.317 124.721Z" fill="#455A64"/>
<path d="M122.107 143.515L119.712 142.864L112.47 129.457L113.315 126.85L122.107 143.515Z" fill="#37474F"/>
<path d="M141.215 141.231L141.783 140.979C142.448 140.684 143.225 140.984 143.52 141.649L147.29 150.149C147.585 150.813 147.285 151.591 146.621 151.886L146.053 152.137C145.389 152.432 144.611 152.132 144.316 151.468L140.546 142.968C140.251 142.303 140.551 141.526 141.215 141.231Z" fill="#37474F"/>
<path d="M132.054 146.733L132.622 146.481C133.286 146.186 134.064 146.486 134.359 147.151L138.129 155.651C138.424 156.315 138.124 157.093 137.46 157.388L136.892 157.639C136.228 157.934 135.45 157.634 135.155 156.97L131.385 148.47C131.09 147.805 131.39 147.028 132.054 146.733Z" fill="#37474F"/>
<path d="M136.941 144.846L137.813 144.459C138.714 144.06 139.767 144.466 140.166 145.366L144.952 156.155C145.351 157.055 144.945 158.109 144.045 158.508L143.173 158.895C142.273 159.294 141.219 158.888 140.82 157.988L136.034 147.199C135.635 146.299 136.041 145.245 136.941 144.846Z" fill="#37474F"/>
<path d="M119.445 99.1097L120.317 98.723C121.217 98.3237 122.271 98.7298 122.67 99.6301L127.456 110.419C127.855 111.319 127.449 112.373 126.549 112.772L125.677 113.159C124.777 113.558 123.723 113.152 123.324 112.251L118.538 101.463C118.139 100.563 118.545 99.5091 119.445 99.1097Z" fill="#37474F"/>
<path d="M112.689 102.116L113.561 101.729C114.461 101.33 115.515 101.736 115.914 102.636L120.699 113.425C121.099 114.325 120.693 115.378 119.792 115.778L118.92 116.164C118.02 116.564 116.967 116.158 116.567 115.257L111.782 104.469C111.383 103.568 111.789 102.515 112.689 102.116Z" fill="#37474F"/>
<path d="M143.545 141.385L127.362 107.691C127.362 107.691 122.742 107.85 114.745 113.399L131.932 147.012C136.143 145.939 140.093 144.025 143.545 141.385Z" fill="#37474F"/>
<path d="M128.713 149.824C128.713 149.824 143.943 145.328 148.155 141.185L146.819 138.205C139.695 139.322 132.991 142.296 127.382 146.828L128.713 149.824Z" fill="#455A64"/>
<path d="M114.139 114.363C114.139 114.363 120.174 109.217 128.365 107.672L126.964 104.692C118.306 104.543 112.738 111.383 112.738 111.383L114.139 114.363Z" fill="#455A64"/>
<path d="M125.4 134.625C125.4 134.625 132.071 130.209 137.818 128.783C137.9 128.751 137.974 128.701 138.035 128.638C138.097 128.575 138.144 128.5 138.174 128.417C138.204 128.335 138.216 128.247 138.21 128.159C138.203 128.071 138.178 127.986 138.136 127.909L136.566 124.576C136.483 124.426 136.349 124.312 136.189 124.254C136.028 124.195 135.852 124.197 135.692 124.258C127.953 126.22 123.274 130.099 123.274 130.099C123.116 130.174 122.995 130.307 122.935 130.471C122.875 130.635 122.883 130.815 122.956 130.974L124.526 134.307C124.6 134.464 124.734 134.586 124.897 134.646C125.061 134.705 125.242 134.698 125.4 134.625Z" fill="#455A64"/>
<path d="M114.636 130.515L113.429 129.979C113.429 129.979 96.5995 137.429 97.4738 157.507C98.05 170.8 107.746 179.984 107.746 179.984C107.746 179.984 95.9538 164.769 100.365 150.677C104.776 136.585 114.636 130.515 114.636 130.515Z" fill="#455A64"/>
<path d="M98.8498 158.889C99.8184 171.148 107.766 179.985 107.766 179.985H119.832C125.36 172.708 134.167 168.456 134.167 168.456L124.521 170.145L123.661 169.703L121.968 168.833C121.968 168.833 119.524 172.574 115.848 172.489C115.095 172.468 114.355 172.299 113.667 171.993C109.375 170.135 107.21 158.735 109.197 151.925C111.184 145.114 120.005 140.907 120.005 140.907L114.636 130.516C105.049 134.822 97.8861 146.649 98.8498 158.889Z" fill="#37474F"/>
<path d="M115.843 172.479C115.843 172.479 119.002 173.552 123.661 169.688L121.968 168.818C121.968 168.818 119.524 172.559 115.848 172.474L115.843 172.479Z" fill="#455A64"/>
<path d="M100.027 196.7H135.995C135.096 195.294 133.536 192.766 131.475 189.984L131.341 189.805C131.286 189.731 131.231 189.661 131.182 189.587C131.145 189.542 131.11 189.496 131.078 189.448L130.765 189.04L130.675 188.926C130.566 188.787 130.457 188.638 130.342 188.499C130.159 188.265 129.96 188.002 129.736 187.744L129.269 187.178C129.021 186.88 128.773 186.572 128.48 186.249C128.336 186.08 128.192 185.916 128.033 185.752C123.786 181.013 118.321 176.811 112.4 177.308C101.224 178.202 100.027 196.7 100.027 196.7Z" fill="#455A64"/>
<path d="M125.683 165.836L161.056 162.885L161.43 167.365L126.057 170.316L125.683 165.836Z" fill="#263238"/>
<path d="M117.838 166.498L125.679 165.844L126.053 170.324L118.212 170.978L117.838 166.498Z" fill="#37474F"/>
<path d="M130.129 194.952C129.457 194.952 128.912 194.407 128.912 193.735C128.912 193.062 129.457 192.518 130.129 192.518C130.801 192.518 131.346 193.062 131.346 193.735C131.346 194.407 130.801 194.952 130.129 194.952Z" fill="#263238"/>
<path d="M103.618 193.735C103.618 193.975 103.69 194.211 103.823 194.411C103.957 194.611 104.147 194.767 104.37 194.859C104.592 194.951 104.837 194.975 105.073 194.928C105.309 194.881 105.526 194.765 105.696 194.595C105.866 194.425 105.982 194.208 106.029 193.972C106.076 193.736 106.052 193.491 105.96 193.269C105.868 193.046 105.712 192.856 105.511 192.723C105.311 192.589 105.076 192.518 104.835 192.518C104.512 192.518 104.203 192.646 103.975 192.874C103.746 193.102 103.618 193.412 103.618 193.735Z" fill="#263238"/>
<path d="M113.642 181.206C113.642 181.448 113.714 181.684 113.848 181.885C113.982 182.086 114.173 182.243 114.397 182.335C114.62 182.428 114.866 182.452 115.103 182.405C115.34 182.358 115.557 182.241 115.728 182.07C115.899 181.899 116.016 181.682 116.063 181.445C116.11 181.208 116.086 180.962 115.993 180.739C115.901 180.515 115.744 180.325 115.543 180.19C115.342 180.056 115.106 179.984 114.864 179.984C114.54 179.984 114.229 180.113 114 180.342C113.771 180.571 113.642 180.882 113.642 181.206Z" fill="#263238"/>
<path d="M124.228 117.065C123.555 117.065 123.011 116.52 123.011 115.848C123.011 115.176 123.555 114.631 124.228 114.631C124.9 114.631 125.445 115.176 125.445 115.848C125.445 116.52 124.9 117.065 124.228 117.065Z" fill="#263238"/>
<path d="M133.551 138.205C133.55 138.447 133.621 138.684 133.755 138.886C133.889 139.088 134.08 139.245 134.303 139.338C134.527 139.431 134.773 139.456 135.01 139.409C135.248 139.362 135.466 139.245 135.637 139.074C135.808 138.903 135.925 138.685 135.972 138.447C136.019 138.21 135.994 137.964 135.901 137.74C135.808 137.517 135.651 137.326 135.449 137.192C135.247 137.058 135.01 136.987 134.768 136.988C134.445 136.988 134.136 137.117 133.908 137.345C133.679 137.573 133.551 137.883 133.551 138.205Z" fill="#263238"/>
<path d="M112.47 139.84C111.798 139.84 111.253 139.295 111.253 138.623C111.253 137.951 111.798 137.406 112.47 137.406C113.142 137.406 113.687 137.951 113.687 138.623C113.687 139.295 113.142 139.84 112.47 139.84Z" fill="#263238"/>
<path d="M121.58 175.037C120.908 175.037 120.363 174.493 120.363 173.821C120.363 173.148 120.908 172.604 121.58 172.604C122.252 172.604 122.797 173.148 122.797 173.821C122.797 174.493 122.252 175.037 121.58 175.037Z" fill="#263238"/>
<path d="M23.3665 125.272L23.5117 158.082C23.5164 159.109 23.1129 160.096 22.3902 160.825C21.6674 161.554 20.6845 161.967 19.6576 161.971C18.6308 161.976 17.6441 161.573 16.9147 160.85C16.1853 160.127 15.7729 159.144 15.7682 158.117L15.6255 125.303L23.3665 125.272Z" fill="#EBEBEB"/>
<path d="M22.9623 134.764L23.0605 158.061C23.0553 158.962 22.6944 159.825 22.0564 160.462C21.4184 161.099 20.5548 161.459 19.6533 161.463C18.7517 161.467 17.8851 161.114 17.2417 160.483C16.5982 159.851 16.2301 158.991 16.2171 158.09L16.1189 134.794L22.9623 134.764Z" fill="#C7C7C7"/>
<path d="M24.5803 122.37L14.4116 122.414L14.4338 127.514L24.6025 127.47L24.5803 122.37Z" fill="#FFC727"/>
<path d="M35.5277 144.629C35.8095 146.015 35.7326 147.45 35.3044 148.798L31.3438 154.417C31.3438 154.417 26.4946 154.069 23.5863 154.071C25.6368 152.164 26.9101 149.499 26.9101 146.55C26.9101 143.8 25.8022 141.296 23.9891 139.424C23.8318 138.351 22.5779 137.334 21.4076 136.386C20.568 135.705 19.7715 135.06 19.4539 134.453C19.1 133.94 18.9449 133.315 19.0175 132.696C19.09 132.077 19.3854 131.506 19.8483 131.088C20.3504 130.638 21.9673 131.995 23.5243 133.301C24.389 134.027 25.2351 134.737 25.8617 135.113C28.7806 136.576 31.4292 138.525 33.6944 140.877C34.6149 141.951 35.246 143.242 35.5277 144.629Z" fill="#FFBF9D"/>
</g>
<defs>
<clipPath id="clip0_682_25911">
<rect width="200" height="200" fill="white"/>
</clipPath>
</defs>
</svg>
