<svg width="200" height="200" viewBox="0 0 200 200" fill="none" xmlns="http://www.w3.org/2000/svg">
<g clip-path="url(#clip0_682_26457)">
<path fill-rule="evenodd" clip-rule="evenodd" d="M96.6489 40.0786C72.5164 41.5624 60.8087 65.3973 46.0572 82.1754C34.101 95.7741 23.0389 109.409 20.7142 126.445C18.0291 146.122 16.4425 168.605 32.3369 182.721C48.2827 196.882 74.0361 195.809 96.6489 193.883C119.863 194.322 138.62 187.342 149.552 172.737C165.068 160.174 178.921 144.922 179.935 126.445C180.989 107.244 169.055 90.1752 154.888 75.4837C139.04 59.05 121.162 38.5713 96.6489 40.0786Z" fill="#FFF3CC"/>
<path d="M55.2812 112.592H176.193V131.608H55.2812V112.592Z" fill="#A1A1A1"/>
<path d="M116.257 97.3699V75.9467C116.257 75.188 115.956 74.4603 115.419 73.9238C114.883 73.3873 114.155 73.0859 113.396 73.0859H63.369C62.6103 73.0859 61.8826 73.3873 61.3461 73.9238C60.8097 74.4603 60.5083 75.188 60.5083 75.9467V105.713H116.257V97.3699Z" fill="#A1A1A1"/>
<path d="M172.262 97.3699V75.9467C172.261 75.57 172.187 75.1971 172.042 74.8493C171.897 74.5016 171.685 74.1858 171.418 73.92C171.151 73.6543 170.834 73.4438 170.486 73.3007C170.137 73.1576 169.764 73.0846 169.387 73.086H119.132C118.755 73.0846 118.382 73.1576 118.033 73.3007C117.685 73.4438 117.368 73.6543 117.101 73.92C116.834 74.1858 116.622 74.5016 116.477 74.8493C116.332 75.1971 116.258 75.57 116.257 75.9467V105.714H172.262V97.3699Z" fill="#A1A1A1"/>
<path d="M174.001 131.604H186.831C188.028 131.604 189 130.465 189 129.06V98.7409C189 97.3361 188.028 96.1973 186.794 96.1973H173.967C172.804 96.1973 171.832 97.3361 171.832 98.7409V129.06C171.832 130.465 172.804 131.604 174.001 131.604Z" fill="#A1A1A1"/>
<path d="M49.853 96.1973H60.7982C62.9261 96.1973 64.6511 97.9223 64.6511 100.05V127.754C64.6511 129.882 62.9261 131.607 60.7982 131.607H49.853C47.725 131.607 46 129.882 46 127.754V100.05C46 97.9223 47.725 96.1973 49.853 96.1973Z" fill="#A1A1A1"/>
<path d="M64.2796 105.324H114.157C115.417 105.324 116.438 106.346 116.438 107.605V114.029C116.438 115.289 115.417 116.31 114.157 116.31H64.2796C63.0198 116.31 61.9985 115.289 61.9985 114.029V107.605C61.9985 106.346 63.0198 105.324 64.2796 105.324Z" fill="#A1A1A1"/>
<path d="M64.2794 116.307C64.2794 116.307 64.1668 116.307 63.9554 116.273C63.639 116.224 63.3367 116.107 63.0689 115.932C62.63 115.649 62.3014 115.224 62.1381 114.728C62.0426 114.411 62.0056 114.08 62.0289 113.749C62.0289 113.408 62.0289 113.016 62.0289 112.614C62.0289 111.809 62.0289 110.909 62.0289 109.941C62.0289 109.453 62.0289 108.945 62.0289 108.413C62.0289 107.881 61.9676 107.322 62.1824 106.797C62.3937 106.253 62.8083 105.813 63.3383 105.57C63.8838 105.297 64.5283 105.382 65.1727 105.368H69.2644L114.136 105.392C114.668 105.393 115.181 105.586 115.582 105.934C115.985 106.284 116.246 106.769 116.315 107.298C116.339 107.564 116.347 107.83 116.339 108.096V113.685C116.35 113.941 116.336 114.198 116.298 114.452C116.247 114.7 116.155 114.937 116.025 115.154C115.768 115.589 115.368 115.92 114.893 116.092C114.406 116.224 113.899 116.269 113.396 116.225H103.024H82.8521L69.2507 116.252H65.5512L69.2507 116.269L82.8521 116.296L103.024 116.314H114.184C114.452 116.31 114.717 116.262 114.968 116.17C115.481 115.982 115.912 115.62 116.185 115.147C116.326 114.917 116.424 114.663 116.475 114.397C116.518 114.132 116.534 113.864 116.523 113.596V108.1C116.531 107.825 116.522 107.551 116.496 107.278C116.42 106.714 116.141 106.198 115.711 105.825C115.279 105.45 114.726 105.243 114.153 105.242L69.2814 105.266H65.1898H64.2316C63.769 105.277 63.32 105.425 62.9422 105.692C62.5643 105.96 62.2749 106.334 62.1108 106.766C62.0097 107.033 61.9577 107.316 61.9573 107.602C61.9573 107.878 61.9573 108.147 61.9573 108.413C61.9573 108.945 61.9573 109.453 61.9573 109.941C61.9573 110.92 61.9573 111.812 61.9573 112.614C61.9573 113.016 61.9573 113.395 61.9573 113.749C61.9356 114.086 61.9772 114.424 62.0801 114.745C62.2467 115.249 62.5845 115.678 63.0348 115.959C63.3082 116.133 63.6169 116.243 63.9384 116.283C64.051 116.302 64.1652 116.31 64.2794 116.307Z" fill="#606060"/>
<path d="M118.719 105.203H171.668C172.928 105.203 173.949 106.224 173.949 107.484V114.154C173.949 115.413 172.928 116.435 171.668 116.435H118.719C117.459 116.435 116.438 115.413 116.438 114.154V107.484C116.438 106.224 117.459 105.203 118.719 105.203Z" fill="#A1A1A1"/>
<path d="M118.719 116.433C118.719 116.433 118.603 116.433 118.378 116.395C117.941 116.327 117.533 116.131 117.206 115.833C116.878 115.535 116.646 115.147 116.537 114.718C116.471 114.381 116.448 114.037 116.469 113.695C116.469 113.32 116.469 112.921 116.469 112.502C116.469 111.656 116.469 110.715 116.469 109.688C116.469 109.174 116.469 108.638 116.469 108.079C116.469 107.803 116.469 107.513 116.489 107.233C116.521 106.946 116.61 106.668 116.752 106.415C116.901 106.149 117.103 105.917 117.345 105.731C117.587 105.546 117.864 105.412 118.16 105.338C118.475 105.273 118.797 105.25 119.118 105.27H120.141H124.451L171.668 105.293C172.228 105.294 172.767 105.507 173.176 105.89C173.581 106.272 173.825 106.794 173.858 107.349C173.858 108.475 173.858 109.613 173.858 110.735V114.077C173.873 114.614 173.695 115.139 173.356 115.557C173.018 115.966 172.543 116.239 172.02 116.327C171.755 116.358 171.488 116.368 171.222 116.358H159.496L138.267 116.375L123.946 116.402H120.056L123.946 116.419L138.267 116.447L159.496 116.464H171.232C171.508 116.476 171.784 116.464 172.057 116.429C172.62 116.335 173.131 116.043 173.496 115.604C173.859 115.157 174.05 114.595 174.035 114.019V110.677C174.035 109.552 174.035 108.427 174.035 107.268C173.995 106.668 173.729 106.106 173.29 105.695C172.851 105.284 172.273 105.055 171.672 105.055L124.454 105.079H120.144H119.121C118.792 105.062 118.462 105.088 118.139 105.154C117.682 105.268 117.27 105.519 116.96 105.874C116.649 106.228 116.454 106.67 116.4 107.138C116.373 107.435 116.4 107.714 116.383 107.994C116.383 108.553 116.383 109.088 116.383 109.603C116.383 110.626 116.383 111.571 116.383 112.416C116.383 112.836 116.383 113.235 116.383 113.61C116.362 113.962 116.388 114.315 116.462 114.66C116.605 115.2 116.939 115.67 117.403 115.983C117.686 116.173 118.009 116.295 118.347 116.341C118.433 116.356 118.52 116.363 118.607 116.361L118.719 116.433Z" fill="#606060"/>
<path d="M171.894 131.603C171.941 131.603 171.979 128.194 171.979 124.02C171.979 119.847 171.941 116.434 171.894 116.434C171.846 116.434 171.808 119.843 171.808 124.02C171.808 128.197 171.846 131.603 171.894 131.603Z" fill="#606060"/>
<path d="M116.257 75.7051C116.209 75.7051 116.172 82.5586 116.172 91.0147C116.172 99.4708 116.209 106.324 116.257 106.324C116.305 106.324 116.342 99.4708 116.342 91.0147C116.342 82.5586 116.305 75.7051 116.257 75.7051Z" fill="#606060"/>
<path d="M87.6803 85.3918C87.6803 85.3918 87.7314 85.4634 87.7962 85.5964C87.8823 85.7851 87.9119 85.9947 87.8814 86.1999C87.8635 86.3489 87.8129 86.4922 87.7333 86.6195C87.6538 86.7467 87.5472 86.8549 87.4211 86.9364C87.2585 87.0151 87.077 87.0466 86.8974 87.0272C86.7177 87.0078 86.5471 86.9384 86.405 86.8269C86.2628 86.7153 86.1549 86.566 86.0934 86.3961C86.032 86.2262 86.0194 86.0425 86.0572 85.8658C86.1071 85.7248 86.1874 85.5965 86.2922 85.4898C86.3971 85.3832 86.524 85.3009 86.6642 85.2486C86.8568 85.1716 87.0678 85.1527 87.2711 85.1941C87.4143 85.2247 87.4893 85.2725 87.4961 85.2588C87.503 85.2452 87.4382 85.1872 87.2882 85.1293C87.0722 85.0585 86.8392 85.0585 86.6233 85.1293C86.4603 85.1818 86.3113 85.2704 86.1874 85.3885C86.0634 85.5065 85.9676 85.651 85.9072 85.8112C85.8391 86.0078 85.8391 86.2216 85.9072 86.4181C85.9845 86.6236 86.1166 86.804 86.2891 86.9399C86.4616 87.0757 86.6679 87.1618 86.8858 87.1887C87.0925 87.2134 87.3015 87.1677 87.4791 87.0592C87.621 86.963 87.7394 86.8361 87.8256 86.688C87.9117 86.5398 87.9635 86.3742 87.9769 86.2033C87.9997 85.9772 87.9482 85.7498 87.8303 85.5555C87.7951 85.489 87.7435 85.4326 87.6803 85.3918Z" fill="#606060"/>
<path d="M82.6101 81.3981C82.6101 81.4288 82.9511 81.4356 83.4694 81.5822C84.1466 81.7692 84.7653 82.1251 85.2675 82.6165C85.7696 83.1079 86.1388 83.7188 86.3404 84.3918C86.5006 84.9101 86.5143 85.2511 86.5449 85.2477C86.5602 85.1688 86.5602 85.0878 86.5449 85.009C86.5358 84.7901 86.5026 84.5728 86.4461 84.3611C86.2682 83.6529 85.898 83.0077 85.3762 82.4968C84.8545 81.9859 84.2016 81.6292 83.4898 81.4663C83.2772 81.4167 83.0602 81.3882 82.842 81.3811C82.7643 81.3721 82.6857 81.3779 82.6101 81.3981Z" fill="#606060"/>
<path d="M94.3462 87.0528C94.3462 87.0528 94.3019 86.9642 94.1893 86.8278C94.0225 86.6355 93.8375 86.4596 93.637 86.3027C92.9765 85.7905 92.1814 85.4813 91.3483 85.4129C90.5153 85.3445 89.6804 85.5198 88.9452 85.9174C88.7239 86.0362 88.5148 86.1767 88.3212 86.3368C88.1883 86.4527 88.1235 86.5243 88.1303 86.5312C88.1371 86.538 88.4406 86.2959 88.9998 86.0265C89.7231 85.6691 90.5299 85.5148 91.334 85.5803C92.1382 85.6457 92.9094 85.9284 93.5654 86.3982C94.0768 86.7698 94.3189 87.0733 94.3462 87.0528Z" fill="#606060"/>
<path d="M86.4529 89.827C86.4699 89.827 86.6029 89.6975 86.7938 89.4383C87.0506 89.104 87.2215 88.7118 87.2917 88.2961C87.3199 88.0812 87.2983 87.8627 87.2285 87.6575C87.1588 87.4524 87.0427 87.266 86.8893 87.1129C86.6336 86.8879 86.4051 86.8947 86.4085 86.9117C86.4119 86.9288 86.6029 86.9765 86.8041 87.1982C86.9296 87.3448 87.023 87.5162 87.0782 87.7012C87.1334 87.8862 87.1492 88.0807 87.1246 88.2722C87.0534 88.6646 86.9076 89.0396 86.695 89.377C86.5921 89.514 86.5105 89.6657 86.4529 89.827Z" fill="#606060"/>
<path d="M144.565 85.3918C144.565 85.3918 144.616 85.4634 144.68 85.5964C144.767 85.7851 144.796 85.9947 144.766 86.1999C144.748 86.3489 144.697 86.4922 144.618 86.6195C144.538 86.7467 144.431 86.8549 144.305 86.9364C144.143 87.0151 143.961 87.0466 143.782 87.0272C143.602 87.0078 143.431 86.9384 143.289 86.8269C143.147 86.7153 143.039 86.566 142.978 86.3961C142.916 86.2262 142.904 86.0425 142.942 85.8658C142.991 85.7248 143.072 85.5965 143.177 85.4898C143.281 85.3832 143.408 85.3009 143.548 85.2486C143.741 85.1716 143.952 85.1527 144.155 85.1941C144.299 85.2247 144.374 85.2725 144.38 85.2588C144.387 85.2452 144.322 85.1872 144.172 85.1293C143.956 85.0585 143.724 85.0585 143.508 85.1293C143.345 85.1814 143.196 85.2698 143.073 85.388C142.949 85.5062 142.854 85.6509 142.795 85.8112C142.725 86.0075 142.725 86.2218 142.795 86.4181C142.872 86.6236 143.004 86.804 143.177 86.9399C143.349 87.0757 143.556 87.1618 143.774 87.1887C143.98 87.2134 144.189 87.1677 144.367 87.0592C144.509 86.963 144.627 86.8361 144.713 86.688C144.799 86.5398 144.851 86.3742 144.865 86.2033C144.887 85.9772 144.836 85.7498 144.718 85.5555C144.682 85.4886 144.629 85.4322 144.565 85.3918Z" fill="#606060"/>
<path d="M139.494 81.3981C139.494 81.4288 139.835 81.4356 140.354 81.5822C141.031 81.7692 141.65 82.1251 142.152 82.6165C142.654 83.1079 143.023 83.7188 143.225 84.3918C143.385 84.9101 143.399 85.2511 143.429 85.2477C143.444 85.1688 143.444 85.0878 143.429 85.009C143.42 84.7901 143.387 84.5728 143.33 84.3611C143.153 83.6529 142.782 83.0077 142.261 82.4968C141.739 81.9859 141.086 81.6292 140.374 81.4663C140.161 81.4167 139.944 81.3882 139.726 81.3811C139.649 81.3721 139.57 81.3779 139.494 81.3981Z" fill="#606060"/>
<path d="M151.23 87.0529C151.23 87.0529 151.186 86.9642 151.074 86.8278C150.908 86.6406 150.726 86.4693 150.528 86.3164C149.868 85.8041 149.072 85.495 148.239 85.4266C147.406 85.3582 146.571 85.5335 145.836 85.9311C145.615 86.0499 145.406 86.1904 145.212 86.3505C145.079 86.4664 145.015 86.538 145.021 86.5448C145.028 86.5517 145.332 86.3096 145.891 86.0402C146.614 85.6827 147.421 85.5285 148.225 85.594C149.029 85.6594 149.801 85.9421 150.456 86.4119C150.961 86.7699 151.21 87.0733 151.23 87.0529Z" fill="#606060"/>
<path d="M143.337 89.827C143.354 89.827 143.487 89.6975 143.678 89.4383C143.935 89.104 144.106 88.7118 144.176 88.2961C144.204 88.0812 144.183 87.8627 144.113 87.6575C144.043 87.4524 143.927 87.266 143.774 87.1129C143.518 86.8879 143.289 86.8947 143.293 86.9117C143.296 86.9288 143.487 86.9765 143.688 87.1982C143.814 87.3448 143.907 87.5162 143.962 87.7012C144.018 87.8862 144.033 88.0807 144.009 88.2722C143.938 88.6646 143.792 89.0396 143.579 89.377C143.476 89.514 143.395 89.6657 143.337 89.827Z" fill="#606060"/>
<path d="M64.3137 130.942C64.3614 130.942 64.3989 127.628 64.3989 123.543C64.3989 119.458 64.3614 116.141 64.3137 116.141C64.2659 116.141 64.2319 119.455 64.2319 123.543C64.2319 127.631 64.2557 130.942 64.3137 130.942Z" fill="#606060"/>
<path d="M61.7631 96.2754C61.7631 96.3027 62.104 96.3538 62.67 96.5311C63.0038 96.6356 63.3242 96.7786 63.6248 96.9573C63.8063 97.0628 63.9737 97.1912 64.1226 97.3392C64.2805 97.4921 64.3977 97.6819 64.4635 97.8916C64.4635 98.4712 64.4635 99.102 64.4635 99.7601C64.4635 101.206 64.4635 102.515 64.4908 103.46C64.4908 103.91 64.5079 104.285 64.5147 104.581C64.5118 104.72 64.5233 104.858 64.5488 104.994C64.5743 104.858 64.5857 104.72 64.5829 104.581C64.5829 104.285 64.5829 103.9 64.6067 103.46C64.6238 102.515 64.634 101.206 64.634 99.7601C64.634 99.102 64.634 98.4712 64.634 97.8916C64.5558 97.6497 64.4159 97.4323 64.2283 97.2608C64.0688 97.1075 63.89 96.9757 63.6964 96.8687C63.3818 96.6951 63.0476 96.56 62.7007 96.4663C62.4769 96.4041 62.249 96.3574 62.0188 96.3265C61.9361 96.2986 61.8501 96.2815 61.7631 96.2754Z" fill="#606060"/>
<path d="M171.832 99.2891C171.747 100.272 171.718 101.259 171.747 102.245C171.718 103.232 171.747 104.219 171.832 105.202C171.916 104.218 171.944 103.232 171.917 102.245C171.944 101.259 171.915 100.272 171.832 99.2891Z" fill="#606060"/>
<path d="M163.386 99.1972C163.99 96.1659 165.381 93.3359 167.082 90.7581C169.05 87.778 171.607 84.9616 174.989 83.833C178.188 82.7555 182.211 83.625 184.046 86.3937C184.246 86.7036 184.378 87.0521 184.434 87.4166C185.396 93.1415 183.752 95.4942 180.408 96.3773C176.735 97.3457 174.669 101.332 171.44 103.333C170.008 104.223 168.518 105.11 166.752 105.099C166.284 105.096 165.822 105.006 165.388 104.833C163.083 103.892 162.963 101.304 163.386 99.1972Z" fill="#FFC727"/>
<g opacity="0.4">
<path d="M163.386 99.1972C163.99 96.1659 165.381 93.3359 167.082 90.7581C169.05 87.778 171.607 84.9616 174.989 83.833C178.188 82.7555 182.211 83.625 184.046 86.3937C184.246 86.7036 184.378 87.0521 184.434 87.4166C185.396 93.1415 183.752 95.4942 180.408 96.3773C176.735 97.3457 174.669 101.332 171.44 103.333C170.008 104.223 168.518 105.11 166.752 105.099C166.284 105.096 165.822 105.006 165.388 104.833C163.083 103.892 162.963 101.304 163.386 99.1972Z" fill="black"/>
</g>
<path d="M156.608 72.9016L153.559 71.1728C151.821 72.2458 149.743 72.6295 147.736 72.2485C145.729 71.8675 143.936 70.7493 142.712 69.1139C141.487 67.4784 140.918 65.4439 141.118 63.4105C141.317 61.377 142.27 59.4917 143.789 58.1251C145.308 56.7586 147.283 56.0097 149.326 56.0256C151.369 56.0416 153.332 56.8213 154.83 58.2114C156.327 59.6016 157.25 61.5016 157.418 63.5379C157.585 65.5742 156.985 67.5995 155.735 69.2156L156.608 72.9016Z" fill="#FAFAFA"/>
<path d="M156.608 72.9017C156.54 72.6017 156.294 71.5003 155.783 69.2056V69.1374L155.728 69.1783L155.789 69.2397C156.681 68.1043 157.254 66.7521 157.45 65.3219C157.511 64.8929 157.534 64.4593 157.518 64.0263C157.518 63.8012 157.518 63.5762 157.481 63.3443L157.378 62.6624C157.168 61.5628 156.736 60.5179 156.107 59.592C155.477 58.666 154.665 57.8787 153.721 57.2785C152.776 56.6782 151.718 56.2778 150.612 56.1019C149.507 55.926 148.377 55.9783 147.292 56.2555C146.045 56.5622 144.89 57.1645 143.924 58.0115C142.932 58.8684 142.159 59.9497 141.67 61.1655C141.205 62.3251 141.006 63.5741 141.087 64.8207C141.169 66.0029 141.508 67.1528 142.082 68.1895C143.118 70.0465 144.827 71.4353 146.856 72.0698C147.72 72.3186 148.617 72.4336 149.516 72.4107C150.952 72.3656 152.35 71.9422 153.57 71.1832H153.525L156.594 72.8881L153.566 71.1219H153.546H153.525C152.32 71.864 150.941 72.2777 149.526 72.3221C148.64 72.3332 147.757 72.2113 146.907 71.9607C145.964 71.6594 145.083 71.1917 144.306 70.5797C143.457 69.9091 142.75 69.077 142.226 68.1315C141.665 67.1145 141.334 65.9865 141.257 64.8275C141.163 63.5757 141.364 62.3192 141.843 61.1591C142.323 59.999 143.068 58.9676 144.019 58.1479C144.966 57.3262 146.095 56.7418 147.313 56.443C148.376 56.1751 149.483 56.1262 150.565 56.2991C151.648 56.4721 152.684 56.8634 153.611 57.4492C154.538 58.0351 155.336 58.8032 155.956 59.707C156.577 60.6108 157.008 61.6314 157.222 62.7067C157.256 62.9351 157.29 63.1602 157.327 63.3886C157.365 63.6171 157.351 63.8353 157.365 64.0706C157.383 64.4965 157.364 64.9233 157.307 65.3458C157.113 66.7453 156.557 68.0699 155.694 69.1886L155.483 69.4613L155.755 69.2533L155.687 69.2295C156.26 71.5072 156.533 72.6017 156.608 72.9017Z" fill="#606060"/>
<path d="M151.295 64.4789C151.295 64.6084 151.334 64.7349 151.406 64.8426C151.478 64.9503 151.58 65.0342 151.7 65.0837C151.819 65.1333 151.951 65.1462 152.078 65.121C152.205 65.0957 152.321 65.0334 152.413 64.9418C152.505 64.8502 152.567 64.7336 152.592 64.6066C152.617 64.4796 152.604 64.348 152.555 64.2284C152.505 64.1087 152.421 64.0065 152.314 63.9345C152.206 63.8626 152.08 63.8242 151.95 63.8242C151.776 63.8242 151.61 63.8932 151.487 64.016C151.364 64.1387 151.295 64.3053 151.295 64.4789Z" fill="#606060"/>
<path d="M148.677 64.4789C148.677 64.6084 148.715 64.7349 148.787 64.8426C148.859 64.9503 148.961 65.0342 149.081 65.0837C149.201 65.1333 149.332 65.1462 149.459 65.121C149.586 65.0957 149.703 65.0334 149.794 64.9418C149.886 64.8502 149.948 64.7336 149.974 64.6066C149.999 64.4796 149.986 64.348 149.936 64.2284C149.887 64.1087 149.803 64.0065 149.695 63.9345C149.587 63.8626 149.461 63.8242 149.331 63.8242C149.158 63.8242 148.991 63.8932 148.868 64.016C148.746 64.1387 148.677 64.3053 148.677 64.4789Z" fill="#606060"/>
<path d="M146.068 64.1634C146.003 64.2755 145.973 64.4043 145.981 64.5336C145.99 64.6629 146.036 64.7868 146.115 64.8897C146.193 64.9926 146.301 65.0698 146.424 65.1116C146.546 65.1533 146.678 65.1578 146.804 65.1243C146.929 65.0909 147.041 65.0211 147.127 64.9237C147.212 64.8263 147.267 64.7058 147.284 64.5774C147.301 64.4489 147.279 64.3184 147.222 64.2022C147.164 64.086 147.074 63.9894 146.962 63.9247C146.887 63.8814 146.805 63.8532 146.72 63.8417C146.635 63.8303 146.548 63.8358 146.465 63.858C146.382 63.8802 146.304 63.9186 146.236 63.971C146.168 64.0234 146.111 64.0888 146.068 64.1634Z" fill="#606060"/>
<path d="M65.1286 97.6558L53.5833 95.5077L56.161 81.1289C57.5249 81.4699 58.9433 89.3941 58.9433 89.3941L66.397 90.4579L65.1286 97.6558Z" fill="#FFC727"/>
<g opacity="0.6">
<path d="M58.7695 93.9627C58.7026 94.0936 58.5898 94.1953 58.4526 94.2481C58.3155 94.301 58.1636 94.3013 58.0262 94.2491C57.8932 94.1873 57.789 94.0767 57.7351 93.9404C57.6812 93.804 57.6816 93.6521 57.7364 93.516C57.8075 93.3777 57.9273 93.2705 58.0727 93.2152C58.2181 93.1598 58.3788 93.1601 58.524 93.216C58.6564 93.295 58.7531 93.4222 58.7938 93.571C58.8345 93.7197 58.816 93.8784 58.7422 94.0139" fill="white"/>
</g>
<g opacity="0.6">
<path d="M53.5832 95.5077L54.7528 95.6782L56.7986 81.8279C56.7986 81.8279 56.6349 81.146 56.1712 81.1289L53.5832 95.5077Z" fill="white"/>
</g>
<path d="M59.0591 89.1875C58.9875 89.1875 58.8921 89.5285 58.6056 89.8285C58.3192 90.1286 57.9885 90.265 58.0055 90.3332C58.0226 90.4014 58.4454 90.3707 58.7863 89.9922C59.1273 89.6137 59.1239 89.1841 59.0591 89.1875Z" fill="#606060"/>
<path d="M58.7046 87.5663C58.6399 87.539 58.466 87.822 58.125 88.0061C57.784 88.1903 57.443 88.2039 57.443 88.2755C57.443 88.3471 57.8249 88.4596 58.2409 88.221C58.6569 87.9823 58.7728 87.5799 58.7046 87.5663Z" fill="#606060"/>
<path d="M57.0544 86.3875C57.0271 86.4489 57.3612 86.6091 57.7772 86.4966C58.1932 86.3841 58.408 86.084 58.3535 86.0465C58.2989 86.009 58.0568 86.1727 57.7158 86.2579C57.3749 86.3432 57.0748 86.3193 57.0544 86.3875Z" fill="#606060"/>
<path d="M60.7299 89.6187C60.6617 89.6187 60.6992 89.9597 60.6003 90.3654C60.5015 90.7712 60.3242 91.0474 60.3753 91.0917C60.4265 91.136 60.7163 90.8871 60.8424 90.4098C60.9686 89.9324 60.7913 89.5914 60.7299 89.6187Z" fill="#606060"/>
<path d="M62.3734 90.2676C62.2695 90.4923 62.2272 90.7406 62.2507 90.987C62.2491 91.2548 62.2812 91.5217 62.3461 91.7815C62.3824 91.936 62.4303 92.0876 62.4894 92.235C62.5202 92.3245 62.5651 92.4085 62.6223 92.4839C62.6638 92.5383 62.722 92.5774 62.788 92.5953C62.8539 92.6132 62.924 92.6088 62.9872 92.5828C63.043 92.5566 63.0918 92.5176 63.1297 92.4691C63.1676 92.4205 63.1936 92.3637 63.2054 92.3032C63.2186 92.2116 63.2186 92.1186 63.2054 92.027C63.1765 91.5957 63.0431 91.1779 62.8167 90.8097C62.5678 90.421 62.3257 90.2608 62.3052 90.2812C62.2848 90.3017 62.4689 90.5097 62.6632 90.895C62.7743 91.1202 62.8568 91.3585 62.9088 91.6042C62.938 91.7481 62.9563 91.894 62.9633 92.0406C62.9633 92.1975 62.9633 92.327 62.8781 92.3543C62.7928 92.3816 62.8406 92.3543 62.7996 92.3236C62.7595 92.2682 62.7274 92.2073 62.7042 92.1429C62.5514 91.7716 62.4538 91.3798 62.4143 90.9802C62.4199 90.742 62.4062 90.5036 62.3734 90.2676Z" fill="#606060"/>
<path d="M62.2677 90.3382C62.2677 90.3621 62.4791 90.5462 62.9292 90.6553C63.1933 90.7135 63.4653 90.7274 63.7339 90.6962C63.8942 90.6786 64.052 90.6431 64.2045 90.5905C64.3065 90.5696 64.4014 90.5224 64.4797 90.4536C64.5581 90.3849 64.6171 90.2969 64.6511 90.1984C64.6622 90.1335 64.6543 90.0667 64.6283 90.0062C64.6023 89.9457 64.5593 89.894 64.5045 89.8574C64.4269 89.8052 64.3418 89.765 64.2522 89.7381C64.0966 89.6826 63.9331 89.6527 63.768 89.6494C63.4917 89.6398 63.2174 89.6996 62.9701 89.8233C62.5473 90.0381 62.4109 90.3143 62.4314 90.3246C62.4519 90.3348 62.6428 90.1336 63.0417 89.9836C63.2698 89.8961 63.5142 89.86 63.7578 89.8779C63.8988 89.8877 64.0377 89.9176 64.1704 89.9665C64.3204 90.0143 64.4329 90.0961 64.409 90.1507C64.3852 90.2052 64.259 90.3212 64.126 90.3587C63.9886 90.4073 63.8471 90.4439 63.7032 90.4678C63.4567 90.5033 63.2064 90.5033 62.9599 90.4678C62.5235 90.4234 62.2677 90.3041 62.2677 90.3382Z" fill="#606060"/>
<path d="M164.781 91.3493L159.629 92.2051L154.514 91.7209L155.411 88.2123L157.675 86.3233L159.574 84.7412C159.574 84.7412 157.829 81.9214 160.29 79.7597C161.48 78.7163 164.099 76.7659 166.493 75.027C167.733 74.1254 169.268 73.7242 170.792 73.903C172.315 74.0818 173.715 74.8276 174.713 75.9919L174.921 76.234C176.988 78.9618 175.835 82.2215 173.06 84.2127L164.774 91.3493" fill="#FFBE9D"/>
<path d="M159.581 84.7344C160.544 85.9008 161.832 86.7553 163.281 87.1894C163.281 87.1894 160.836 87.9566 158.933 85.2833L159.581 84.7344Z" fill="#EB996E"/>
<path d="M165.408 76.9755C165.316 77.0549 165.257 77.1669 165.245 77.2881C165.233 77.4094 165.268 77.5307 165.343 77.6267C165.379 77.6749 165.423 77.7155 165.474 77.7461C165.526 77.7767 165.583 77.7967 165.642 77.805C165.701 77.8133 165.761 77.8096 165.819 77.7942C165.876 77.7788 165.93 77.752 165.978 77.7154C166.071 77.6376 166.131 77.526 166.143 77.4048C166.155 77.2835 166.119 77.1624 166.042 77.0676C166.007 77.0192 165.963 76.9783 165.912 76.9473C165.861 76.9164 165.804 76.896 165.745 76.8874C165.686 76.8789 165.625 76.8822 165.567 76.8974C165.51 76.9125 165.455 76.939 165.408 76.9755Z" fill="#606060"/>
<path d="M165.841 76.4516C165.841 76.5369 166.264 76.6357 166.588 77.0176C166.912 77.3995 166.963 77.8462 167.048 77.8462C167.134 77.8462 167.13 77.7337 167.113 77.5359C167.088 77.2721 166.981 77.0228 166.806 76.8233C166.637 76.6218 166.408 76.4806 166.152 76.4209C165.961 76.38 165.845 76.4141 165.841 76.4516Z" fill="#606060"/>
<path d="M168.596 80.663C168.503 80.7419 168.444 80.854 168.432 80.9755C168.42 81.097 168.456 81.2185 168.531 81.3142C168.566 81.3626 168.611 81.4035 168.662 81.4345C168.713 81.4654 168.77 81.4858 168.829 81.4943C168.888 81.5029 168.948 81.4996 169.006 81.4844C169.064 81.4693 169.118 81.4428 169.166 81.4063C169.258 81.3269 169.316 81.2149 169.328 81.0937C169.341 80.9724 169.305 80.8511 169.23 80.7551C169.195 80.7067 169.151 80.6658 169.1 80.6348C169.049 80.6039 168.992 80.5835 168.933 80.5749C168.874 80.5664 168.813 80.5697 168.756 80.5849C168.698 80.6 168.644 80.6265 168.596 80.663Z" fill="#606060"/>
<path d="M169.213 80.164C169.196 80.2458 169.612 80.3924 169.895 80.8084C170.178 81.2244 170.178 81.6711 170.26 81.6813C170.342 81.6915 170.356 81.5756 170.363 81.3778C170.363 81.1132 170.282 80.8547 170.131 80.6379C169.985 80.4208 169.773 80.2559 169.527 80.1674C169.333 80.1094 169.22 80.1299 169.213 80.164Z" fill="#606060"/>
<path d="M164.87 81.4594C164.758 81.2045 164.616 80.9641 164.447 80.7434C164.375 80.6377 164.314 80.5286 164.368 80.457C164.461 80.3624 164.58 80.2982 164.709 80.2729L165.698 79.9319C167.099 79.4238 168.221 78.9704 168.197 78.909C168.174 78.8476 167.024 79.2193 165.623 79.7239L164.638 80.0887C164.468 80.1295 164.318 80.2269 164.211 80.3649C164.191 80.4093 164.181 80.4576 164.181 80.5064C164.181 80.5553 164.191 80.6035 164.211 80.6479C164.242 80.7156 164.283 80.7787 164.331 80.8355C164.482 81.0665 164.663 81.2763 164.87 81.4594Z" fill="#606060"/>
<path d="M171.15 79.0809C171.058 79.1934 171.379 79.5889 171.631 80.1277C171.883 80.6664 171.999 81.1506 172.146 81.1506C172.214 81.1506 172.279 81.0108 172.289 80.7755C172.29 80.4719 172.222 80.1721 172.091 79.8983C171.96 79.6244 171.769 79.3835 171.532 79.1934C171.341 79.0638 171.195 79.0263 171.15 79.0809Z" fill="#606060"/>
<path d="M166.946 75.807C166.919 75.9502 167.236 76.1309 167.515 76.4378C167.795 76.7447 167.969 77.0652 168.112 77.0481C168.18 77.0481 168.228 76.9186 168.208 76.731C168.17 76.492 168.063 76.2695 167.899 76.0916C167.735 75.9137 167.522 75.7886 167.287 75.732C167.096 75.6979 166.977 75.732 166.946 75.807Z" fill="#606060"/>
<path d="M171.038 85.5859C171.092 85.6132 173.009 86.8612 171.263 88.266C169.517 89.6708 168.467 87.625 168.515 87.584L171.038 85.5859Z" fill="#FFBE9D"/>
<path d="M169.619 87.5836C169.619 87.5836 169.619 87.6313 169.64 87.7029C169.667 87.7992 169.73 87.8811 169.817 87.9314C169.979 87.9866 170.153 87.9977 170.321 87.9635C170.488 87.9294 170.644 87.8512 170.772 87.737C170.925 87.6219 171.051 87.4739 171.14 87.304C171.182 87.244 171.208 87.1748 171.217 87.1023C171.226 87.0298 171.217 86.9563 171.191 86.888C171.172 86.8453 171.139 86.8106 171.097 86.7901C171.056 86.7695 171.008 86.7643 170.963 86.7755C170.894 86.7755 170.867 86.83 170.857 86.8232C170.847 86.8164 170.857 86.7618 170.939 86.7175C170.991 86.6923 171.049 86.6851 171.106 86.697C171.179 86.7177 171.243 86.7651 171.283 86.83C171.329 86.9117 171.353 87.0039 171.353 87.0977C171.353 87.1914 171.329 87.2836 171.283 87.3653C171.19 87.5608 171.052 87.7315 170.881 87.8632C170.731 87.9954 170.546 88.081 170.349 88.1095C170.151 88.138 169.95 88.108 169.769 88.0234C169.718 87.9874 169.676 87.9406 169.645 87.8864C169.615 87.8322 169.596 87.7718 169.592 87.7097C169.578 87.6211 169.609 87.5802 169.619 87.5836Z" fill="#EB996E"/>
<path d="M162.368 70.7308C162.763 70.5679 163.216 70.489 163.673 70.5039C164.13 70.5188 164.572 70.6267 164.943 70.8146C165.154 70.5194 165.499 70.2824 165.923 70.1414C166.348 70.0004 166.827 69.9635 167.284 70.0367C167.742 70.1099 168.151 70.2889 168.447 70.5451C168.743 70.8013 168.909 71.12 168.918 71.4503C169.187 71.2999 169.502 71.1969 169.839 71.15C170.175 71.1031 170.523 71.1136 170.852 71.1807C171.182 71.2477 171.484 71.3694 171.733 71.5355C171.982 71.7016 172.171 71.9073 172.284 72.1353C172.578 71.9316 172.962 71.8048 173.372 71.7761C173.782 71.7473 174.194 71.8183 174.539 71.9772C174.884 72.1361 175.142 72.3734 175.269 72.6496C175.396 72.9258 175.384 73.2243 175.237 73.4955C175.705 73.4533 176.181 73.4864 176.629 73.5924C177.076 73.6984 177.484 73.8745 177.82 74.1074C178.157 74.3403 178.415 74.6241 178.573 74.9372C178.732 75.2503 178.788 75.5847 178.736 75.9152C179.568 76.2753 180.184 76.8383 180.465 77.4971C180.746 78.1559 180.674 78.8645 180.262 79.4881C180.706 79.9122 180.961 80.4194 180.996 80.9457C181.031 81.4719 180.843 81.9937 180.458 82.445C180.736 82.7241 180.906 83.0492 180.953 83.3886C180.999 83.728 180.92 84.0701 180.722 84.3814C180.525 84.6927 180.216 84.9627 179.826 85.1649C179.437 85.3671 178.979 85.4946 178.498 85.535C178.558 85.7537 178.544 85.9791 178.459 86.1936C178.375 86.4081 178.22 86.6059 178.009 86.7715C177.798 86.9371 177.535 87.066 177.241 87.1481C176.947 87.2303 176.63 87.2634 176.315 87.245C176.41 87.5052 176.398 87.779 176.281 88.0347C176.163 88.2903 175.946 88.5172 175.652 88.6891C175.359 88.861 175.003 88.9707 174.625 89.0056C174.246 89.0405 173.862 88.9991 173.516 88.8861C173.887 89.2853 173.39 89.8422 172.76 90.0344C172.13 90.2266 171.423 90.2019 170.773 90.3449C170.234 90.4631 169.758 90.6948 169.233 90.8377C168.738 90.9679 168.209 91.0208 167.682 90.9927C167.155 90.9646 166.643 90.8562 166.182 90.6751C166.182 90.7145 166.182 90.7588 166.182 90.8032C165.811 91.1334 164.971 90.882 164.782 90.4779C164.68 90.0591 164.758 89.6282 165.006 89.241C165.153 88.7673 165.406 88.3131 165.755 87.8956C165.936 87.6878 166.208 87.5272 166.53 87.4383C166.852 87.3493 167.207 87.3368 167.54 87.4028C167.41 87.1221 167.387 86.8226 167.473 86.5338C167.559 86.245 167.751 85.9771 168.029 85.7568C168.595 85.3201 169.268 84.9594 170.017 84.6923L173.201 83.3666C172.682 82.9054 172.352 82.3533 172.246 81.7697C172.14 81.1861 172.262 80.5932 172.599 80.0549C172.242 79.9873 171.908 79.8676 171.621 79.7034C171.333 79.5392 171.098 79.3343 170.93 79.1019C170.763 78.8695 170.666 78.6148 170.648 78.3545C170.629 78.0941 170.688 77.8339 170.822 77.5908C170.01 77.8044 169.113 77.7936 168.312 77.5604C167.511 77.3273 166.865 76.8891 166.504 76.3341C165.902 76.8664 164.118 76.3588 163.32 75.9744C162.774 75.6285 162.403 75.1665 162.263 74.6585C162.263 74.6585 160.493 74.2347 160.164 73.6039C159.835 72.9731 159.947 71.8544 161.004 71.7411C161.341 71.3342 161.808 70.9883 162.368 70.7308Z" fill="#606060"/>
<path d="M176.026 83.7818C175.909 83.8171 175.785 83.8241 175.665 83.8023C175.602 83.7876 175.543 83.7588 175.493 83.7181C175.442 83.6773 175.402 83.6257 175.375 83.567C175.342 83.494 175.329 83.4135 175.337 83.3338C175.345 83.2541 175.375 83.178 175.423 83.1135L175.508 83.0078L175.371 82.9874C175.263 82.9696 175.162 82.9228 175.079 82.8519C174.995 82.781 174.932 82.6888 174.897 82.585C174.862 82.4669 174.865 82.3407 174.904 82.224C174.944 82.1073 175.019 82.0058 175.119 81.9338L175.232 81.8588L175.112 81.8008C174.975 81.7281 174.87 81.6063 174.819 81.4598C174.781 81.3411 174.781 81.2136 174.819 81.095C174.863 80.9876 174.922 80.8867 174.993 80.7949C174.993 80.7949 174.839 80.8358 174.73 81.0575C174.667 81.1939 174.653 81.348 174.689 81.4939C174.712 81.5884 174.754 81.6773 174.813 81.7547C174.871 81.8322 174.946 81.8966 175.03 81.944V81.811C174.898 81.8993 174.797 82.0277 174.743 82.1775C174.689 82.3273 174.685 82.4905 174.73 82.643C174.776 82.7768 174.857 82.8953 174.966 82.9851C175.075 83.0749 175.207 83.1324 175.348 83.151L175.293 83.0249C175.231 83.1123 175.194 83.2154 175.186 83.3225C175.179 83.4297 175.202 83.5368 175.252 83.6318C175.29 83.705 175.346 83.7679 175.413 83.8153C175.481 83.8628 175.559 83.8934 175.641 83.9046C175.92 83.9148 176.04 83.7852 176.026 83.7818Z" fill="#A1A1A1"/>
<path d="M174.618 85.436C174.618 85.436 174.519 85.4156 174.393 85.3167C174.306 85.2504 174.241 85.1589 174.207 85.0546C174.174 84.9504 174.173 84.8383 174.205 84.7336L174.236 84.6484H174.147C174.042 84.6397 173.941 84.6036 173.855 84.5438C173.768 84.4839 173.698 84.4025 173.653 84.3074C173.604 84.1981 173.589 84.0762 173.612 83.9585C173.635 83.8407 173.693 83.7328 173.779 83.6493L173.885 83.5505L173.742 83.5061C173.706 83.4957 173.671 83.4808 173.639 83.4618C173.568 83.4151 173.512 83.3474 173.481 83.2681C173.449 83.1888 173.442 83.1017 173.462 83.0185C173.483 82.9429 173.524 82.8745 173.581 82.8209C173.638 82.7673 173.709 82.7307 173.786 82.7151L173.946 82.6878L173.823 82.5821C173.686 82.4605 173.601 82.2909 173.585 82.1082C173.574 81.9641 173.607 81.8201 173.68 81.6956C173.753 81.5856 173.841 81.4869 173.943 81.4023C173.943 81.4023 173.772 81.4228 173.602 81.6444C173.502 81.7806 173.45 81.9462 173.455 82.115C173.459 82.2244 173.484 82.332 173.53 82.4315C173.576 82.531 173.641 82.6205 173.721 82.6946L173.759 82.5651C173.651 82.5831 173.551 82.6311 173.47 82.7034C173.388 82.7758 173.329 82.8697 173.298 82.9742C173.268 83.0913 173.275 83.2151 173.319 83.3278C173.363 83.4405 173.442 83.5364 173.544 83.6016C173.59 83.6319 173.641 83.6549 173.694 83.6698L173.66 83.5266C173.555 83.6241 173.481 83.7509 173.449 83.8907C173.417 84.0304 173.427 84.1766 173.479 84.3104C173.531 84.4441 173.621 84.5592 173.739 84.6407C173.857 84.7223 173.997 84.7665 174.14 84.7677L174.079 84.6791C174.034 84.8276 174.048 84.9879 174.12 85.1257C174.173 85.2245 174.25 85.3078 174.345 85.3678C174.512 85.4701 174.621 85.4429 174.618 85.436Z" fill="#A1A1A1"/>
<path d="M174.236 73.4133C174.332 73.4288 174.424 73.4612 174.509 73.5088C174.564 73.5432 174.612 73.5886 174.649 73.6423C174.686 73.696 174.711 73.7567 174.724 73.8207C174.736 73.8848 174.735 73.9507 174.721 74.0143C174.707 74.078 174.68 74.138 174.642 74.1907L174.563 74.2964L174.693 74.2726C174.83 74.2514 174.97 74.2654 175.1 74.3131C175.23 74.3608 175.345 74.4407 175.436 74.5453C175.542 74.6742 175.605 74.8335 175.615 75.0002C175.624 75.1669 175.581 75.3324 175.491 75.4728L175.409 75.5989H175.562C175.71 75.5932 175.858 75.6209 175.993 75.6799C176.129 75.739 176.25 75.8278 176.346 75.9399C176.49 76.1141 176.569 76.3329 176.569 76.5588C176.569 76.7847 176.49 77.0035 176.346 77.1776L176.289 77.2458L176.364 77.3004C176.536 77.4268 176.661 77.6074 176.718 77.8133C176.776 78.0192 176.763 78.2384 176.681 78.4358C176.601 78.6056 176.474 78.7488 176.315 78.848C176.156 78.9472 175.971 78.9983 175.784 78.995H175.658L175.719 79.1007C175.859 79.3394 175.899 79.6235 175.832 79.8918C175.776 80.0994 175.657 80.2843 175.491 80.4203C175.345 80.5365 175.18 80.6255 175.003 80.6828C175.003 80.6828 175.054 80.6828 175.153 80.6828C175.293 80.6466 175.425 80.5816 175.538 80.4919C175.724 80.3524 175.86 80.1561 175.924 79.9327C175.967 79.7858 175.981 79.6317 175.964 79.4794C175.947 79.3272 175.9 79.1799 175.825 79.0462L175.763 79.1484C175.999 79.1615 176.232 79.0975 176.428 78.9661C176.623 78.8347 176.771 78.6432 176.848 78.4204C176.925 78.1976 176.928 77.9558 176.855 77.7315C176.782 77.5073 176.638 77.3128 176.445 77.1776L176.462 77.3038C176.562 77.1854 176.635 77.0471 176.677 76.898C176.733 76.7191 176.743 76.5289 176.705 76.3452C176.668 76.1616 176.584 75.9904 176.462 75.8478C176.348 75.7179 176.206 75.6152 176.047 75.5473C175.887 75.4795 175.715 75.4482 175.542 75.4557L175.613 75.5785C175.718 75.4097 175.766 75.2119 175.751 75.0139C175.736 74.8158 175.658 74.6278 175.528 74.4771C175.421 74.3583 175.285 74.2694 175.133 74.2191C174.981 74.1689 174.819 74.1591 174.662 74.1907L174.717 74.2726C174.765 74.199 174.796 74.115 174.807 74.0275C174.817 73.9399 174.808 73.851 174.778 73.7679C174.732 73.6464 174.644 73.5457 174.529 73.4849C174.46 73.4473 174.383 73.4263 174.304 73.4235C174.263 73.3997 174.236 73.4099 174.236 73.4133Z" fill="#A1A1A1"/>
<path d="M163.564 81.7664C162.131 83.0791 164.344 83.8668 164.586 82.6325C164.286 82.288 163.957 81.9687 163.604 81.6777" fill="#EB996E"/>
<path d="M162.967 82.511C163.103 83.1179 164.088 83.551 164.518 82.7701C164.477 82.511 163.932 82.2144 163.782 81.9995C163.222 81.4642 163.267 81.4131 163.87 81.9007C164.102 82.1428 164.573 82.3644 164.716 82.7088C164.532 83.7146 162.854 83.4589 162.967 82.511Z" fill="#606060"/>
<path d="M62.0461 89.3984C62.4348 89.4598 94.7794 89.7735 94.7794 89.7735L125.347 94.8062L128.999 106.474C128.999 106.474 118.913 107.047 114.044 105.7C109.175 104.353 94.493 100.848 94.493 100.848L92.6858 100.535C85.4061 101.534 61.1937 97.5511 61.1937 97.5511L62.0461 89.3984Z" fill="#606060"/>
<path d="M129.412 78.6502L131.734 80.0857C131.734 80.0857 129.688 78.2853 129.224 77.6989C129.089 77.5611 129.011 77.3776 129.006 77.1849C129 76.9922 129.067 76.8044 129.193 76.6589C129.193 76.6589 132.102 79.1548 132.16 78.923C132.218 78.6911 130.189 77.184 129.708 76.3827C129.621 76.2641 129.563 76.127 129.538 75.9821C129.512 75.8373 129.52 75.6885 129.562 75.5473C129.58 75.504 129.608 75.4656 129.644 75.4353C129.68 75.4051 129.722 75.3839 129.768 75.3736C129.814 75.3632 129.861 75.364 129.907 75.3758C129.952 75.3877 129.994 75.4103 130.029 75.4416C130.711 76.0759 132.757 77.9683 132.89 78.1524C133.023 78.3365 133.248 78.1524 133.248 78.1524C133.248 78.1524 130.885 75.3121 130.915 74.9541C130.946 74.596 131.454 74.7393 131.621 74.8381C131.788 74.937 135.208 78.3263 135.44 78.4831C135.734 78.6244 136.042 78.7308 136.361 78.8002C136.361 78.8002 136.361 77.9342 136.316 77.1533C136.246 76.6745 136.361 76.1869 136.637 75.7894C136.824 75.4894 137.442 75.5371 137.442 75.5371C137.442 75.5371 137.503 76.3827 137.493 77.2658C137.483 78.149 137.646 78.0433 137.786 78.5615C137.926 79.0798 137.881 82.0258 137.881 82.0258L137.67 84.3171L143.364 93.5234L136.661 95.3612L133.531 84.5626L131.417 81.2688C130.986 80.7905 130.531 80.3353 130.053 79.905C129.754 79.6962 129.48 79.4549 129.234 79.1855C129.054 78.8684 129.412 78.6502 129.412 78.6502Z" fill="#FFBE9D"/>
<path d="M124.515 93.4905C125.971 94.3293 126.943 93.9781 126.943 93.9781L153.917 87.5917L155.206 87.5508L165.251 90.9605L165.695 92.8188L155.012 104.153L137.026 107.61L126.677 108.418C126.677 108.418 122.732 98.9733 122.084 94.0974C122.071 94.1008 123.025 92.6347 124.515 93.4905Z" fill="#FFC727"/>
<g opacity="0.3">
<path d="M156.57 94.2226C153.689 95.549 150.678 96.3605 147.643 97.2913C147.265 97.4411 146.853 97.487 146.45 97.4243C146.025 97.2669 145.654 96.9898 145.383 96.6264L141.973 92.8314C141.889 92.7072 141.779 92.6021 141.652 92.5228C141.524 92.4436 141.382 92.3919 141.233 92.3711C141.072 92.3902 140.922 92.4627 140.806 92.577C140.691 92.6912 140.616 92.8408 140.596 93.0019C140.564 93.3256 140.608 93.6521 140.722 93.9566C141.155 95.4228 141.629 96.9094 142.522 98.1471C143.415 99.3849 144.813 100.357 146.341 100.36C147.364 100.36 148.325 99.9441 149.256 99.5315L151.708 98.454C151.809 98.4251 151.903 98.3756 151.984 98.3087C152.065 98.2418 152.131 98.159 152.178 98.0653C152.201 97.8921 152.201 97.7168 152.178 97.5436C152.199 97.2027 152.519 96.9503 152.796 96.7492C154.037 95.8797 155.343 95.1057 156.584 94.2362" fill="black"/>
</g>
<path d="M165.551 92.2051C165.551 92.2051 167.154 96.0922 163.846 100.388C163.846 100.388 161.477 103.542 155.936 106.246L151.892 97.1935L156.502 94.6873L165.551 92.2051Z" fill="#FFC727"/>
<path d="M158.04 92.839C158.42 92.8668 158.801 92.8736 159.182 92.8594C160.1 92.8452 161.017 92.946 161.91 93.1595C162.794 93.38 163.609 93.8184 164.28 94.4347C164.543 94.7059 164.786 94.9965 165.006 95.3042C164.978 95.2034 164.935 95.1078 164.876 95.0212C164.735 94.7736 164.563 94.5446 164.365 94.3393C163.699 93.6755 162.866 93.2042 161.954 92.9754C161.052 92.7584 160.123 92.6723 159.196 92.7196C158.855 92.7196 158.555 92.7503 158.36 92.7708C158.25 92.7744 158.142 92.7975 158.04 92.839Z" fill="#606060"/>
<path d="M154.64 103.35C154.596 103.178 154.534 103.012 154.456 102.852C154.309 102.511 154.115 102.061 153.89 101.519C153.406 100.401 152.727 98.8561 151.967 97.1547L151.929 97.2638C153.352 96.5479 154.707 95.7069 155.98 94.7508C156.468 94.3826 156.85 94.0689 157.109 93.8439C157.248 93.7357 157.377 93.6146 157.494 93.4824C157.341 93.5785 157.195 93.6856 157.058 93.8029C156.785 94.0109 156.376 94.311 155.902 94.6656C154.613 95.5876 153.255 96.4094 151.841 97.124L151.769 97.1581L151.803 97.2331C152.564 98.938 153.259 100.472 153.771 101.58C154.023 102.112 154.228 102.552 154.384 102.89C154.459 103.049 154.544 103.203 154.64 103.35Z" fill="#606060"/>
<path d="M129.593 103.067C129.613 103.047 129.289 102.668 128.812 102.024C127.56 100.35 126.564 98.4986 125.859 96.5309C125.586 95.7773 125.446 95.2966 125.419 95.3068C125.428 95.4225 125.45 95.5368 125.484 95.6478C125.535 95.866 125.624 96.1797 125.746 96.565C126.069 97.5671 126.483 98.5374 126.984 99.4632C127.481 100.391 128.061 101.272 128.716 102.096C128.969 102.409 129.183 102.655 129.34 102.818C129.413 102.913 129.497 102.996 129.593 103.067Z" fill="#606060"/>
<g opacity="0.3">
<path d="M125.753 96.3261C127.203 98.6974 129.179 100.703 131.529 102.187C131.867 102.371 132.158 102.628 132.382 102.941C132.484 103.1 132.526 103.291 132.5 103.478C132.475 103.666 132.383 103.838 132.242 103.964C131.901 104.196 131.437 104.001 131.086 103.783C128.419 102.147 126.704 99.4528 125.753 96.3125" fill="black"/>
</g>
<path d="M125.825 82.7395L126.238 82.6952C126.238 82.6952 126.292 81.8769 127.434 82.2792C128.577 82.6816 130.827 83.1964 130.827 83.1964C130.827 83.1964 127.806 81.3825 127.84 81.2392C127.874 81.096 127.84 80.3152 129.105 80.6801C130.37 81.0449 131.901 82.003 132.515 82.2724C133.129 82.5418 134.533 82.1599 134.533 82.1599L134.55 81.379C134.55 81.379 133.933 79.0843 135.232 79.0195C135.232 79.0195 135.44 80.4005 135.696 80.7858C135.952 81.1711 136.579 82.2553 136.579 82.2553L136.92 85.1365C137.994 87.0221 145.598 98.3833 145.598 98.3833L152.025 97.5104L155.183 104.582C142.945 106.931 142.181 105.51 142.181 105.51C138.898 103.634 133.981 89.7499 133.371 87.9939L130.694 87.1756C130.694 87.1756 125.941 85.6821 125.903 85.5048C125.866 85.3275 125.747 84.8706 126.565 84.9217C127.383 84.9729 129.409 85.215 129.409 85.215L125.842 83.8511C125.842 83.8511 125.201 83.0021 125.825 82.7395Z" fill="#FFBE9D"/>
<path d="M135.829 94.4551C135.82 94.4168 135.809 94.3792 135.795 94.3426L135.676 94.0016L135.208 92.7298L133.425 87.9562V87.9324H133.398C131.921 87.4755 130.206 86.9572 128.321 86.323C127.85 86.1661 127.366 86.0025 126.879 85.8252C126.633 85.7365 126.384 85.6478 126.145 85.5421C126.088 85.5204 126.033 85.493 125.982 85.4603C125.982 85.5012 125.982 85.4365 125.982 85.4126C125.98 85.3819 125.98 85.3512 125.982 85.3205C125.973 85.2669 125.982 85.2121 126.006 85.1633C126.029 85.1145 126.067 85.0742 126.115 85.0477C126.364 84.9699 126.63 84.9593 126.885 85.0171L127.721 85.1023L129.426 85.283L130.012 85.3444L129.463 85.133L125.897 83.7691L125.934 83.7964C125.814 83.6372 125.725 83.4567 125.671 83.2645C125.654 83.2214 125.645 83.1751 125.645 83.1285C125.646 83.0819 125.656 83.0359 125.676 82.9934C125.695 82.9509 125.722 82.9128 125.757 82.8814C125.791 82.85 125.832 82.8261 125.876 82.811H125.842H126.261H126.34V82.7291C126.348 82.6417 126.376 82.5574 126.422 82.4828C126.468 82.4082 126.531 82.3454 126.606 82.2995C126.778 82.2244 126.97 82.2088 127.151 82.2552C127.342 82.2927 127.537 82.3711 127.738 82.4325C127.939 82.4939 128.137 82.5586 128.341 82.6166C129.149 82.8451 129.981 83.0531 130.82 83.2508L131.335 83.3736L130.885 83.0974L130.06 82.5962L128.941 81.9142L128.396 81.5562L128.13 81.3687L128.004 81.2732L127.949 81.2254V81.205C127.949 81.205 127.949 81.205 127.949 81.2323C127.948 81.136 127.97 81.0409 128.014 80.9552C128.058 80.8696 128.122 80.7961 128.201 80.7413C128.38 80.6575 128.581 80.6347 128.774 80.6765C129.185 80.7595 129.584 80.8899 129.964 81.0652C130.735 81.4062 131.458 81.7983 132.184 82.1802C132.366 82.289 132.564 82.3674 132.771 82.412C132.976 82.4415 133.184 82.4472 133.391 82.4291C133.792 82.3961 134.189 82.3277 134.578 82.2245H134.636V82.1631C134.636 81.9006 134.636 81.6414 134.636 81.3823V81.3618C134.515 80.911 134.472 80.4428 134.509 79.9775C134.522 79.7585 134.596 79.5473 134.721 79.3672C134.786 79.2868 134.867 79.2211 134.959 79.1747C135.052 79.1282 135.153 79.102 135.256 79.0978L135.178 79.0364C135.229 79.3433 135.283 79.6468 135.355 79.9434C135.413 80.2451 135.512 80.5376 135.648 80.8129L136.542 82.2927V82.2654C136.675 83.3906 136.801 84.4408 136.917 85.4262L140.954 91.4239L142.055 93.0776C142.181 93.2583 142.277 93.3981 142.348 93.497C142.381 93.5465 142.416 93.5943 142.454 93.6402L142.362 93.4868L142.086 93.0572L141.008 91.4103L137.009 85.3819V85.4058C136.896 84.4204 136.777 83.3599 136.647 82.2484V82.2313L135.757 80.7447C135.63 80.4819 135.538 80.2032 135.485 79.9161C135.416 79.6229 135.362 79.3228 135.314 79.0194V78.9512H135.246C135.12 78.9586 134.997 78.9929 134.885 79.0517C134.773 79.1105 134.676 79.1925 134.598 79.2921C134.455 79.4925 134.37 79.7285 134.353 79.9741C134.311 80.4585 134.354 80.9465 134.479 81.4164V81.3925C134.479 81.6517 134.479 81.9108 134.462 82.1734L134.52 82.0983C134.141 82.1987 133.754 82.2649 133.364 82.2961C133.169 82.3143 132.974 82.3086 132.781 82.2791C132.589 82.2362 132.406 82.1624 132.239 82.0608C131.519 81.6824 130.793 81.2732 130.012 80.939C129.619 80.7574 129.206 80.6234 128.781 80.5401C128.551 80.4904 128.311 80.5192 128.099 80.6219C127.998 80.688 127.913 80.7777 127.854 80.8834C127.795 80.9891 127.762 81.1077 127.758 81.2289C127.755 81.2424 127.755 81.2563 127.758 81.2698C127.759 81.2914 127.767 81.312 127.782 81.3277C127.792 81.3447 127.805 81.3597 127.82 81.3721L127.884 81.43L128.017 81.5323L128.287 81.7199L128.839 82.0813L129.961 82.7837L130.783 83.2849L130.844 83.1315C130.009 82.9337 129.18 82.7291 128.372 82.4973C128.171 82.4427 127.973 82.3813 127.775 82.32C127.576 82.248 127.374 82.1865 127.168 82.1358C126.949 82.0816 126.719 82.1032 126.514 82.1972C126.415 82.2578 126.333 82.3411 126.274 82.4403C126.214 82.5394 126.18 82.6513 126.173 82.7666L126.258 82.6882H125.839H125.818H125.801C125.677 82.7376 125.577 82.8328 125.521 82.9542C125.477 83.0732 125.471 83.2032 125.504 83.3258C125.56 83.5423 125.658 83.7453 125.794 83.9225V83.9396H125.815L129.385 85.3035L129.422 85.1569L127.717 84.9795L126.879 84.8943C126.597 84.8313 126.303 84.8467 126.03 84.9386C125.958 84.9784 125.9 85.0385 125.862 85.1113C125.824 85.1841 125.809 85.2664 125.818 85.3478C125.816 85.3841 125.816 85.4206 125.818 85.4569C125.835 85.4944 125.818 85.5115 125.879 85.5899C125.941 85.6305 126.006 85.6648 126.074 85.6922C126.323 85.7979 126.568 85.8865 126.817 85.9752C127.308 86.1491 127.792 86.3162 128.266 86.4696C130.155 87.0936 131.877 87.6016 133.354 88.0517L133.319 88.0176C134.1 90.043 134.721 91.6524 135.147 92.7673L135.641 94.0289L135.774 94.3699C135.79 94.3999 135.808 94.4285 135.829 94.4551Z" fill="#EB996E"/>
<path d="M126.244 82.7533C126.431 82.8948 126.636 83.0095 126.854 83.0942C127.362 83.3236 127.881 83.5261 128.409 83.7012C129.026 83.9092 129.592 84.0728 130.002 84.1888C130.222 84.2671 130.451 84.3175 130.684 84.3388C129.964 84.0241 129.225 83.7576 128.471 83.5409C127.233 83.1215 126.265 82.709 126.244 82.7533Z" fill="#EB996E"/>
<path d="M107.94 44.8647L107.07 44.8164C102.876 44.5763 98.7456 45.9237 95.4999 48.5907C92.2541 51.2577 90.1313 55.0488 89.5536 59.2099C88.4427 67.2599 89.7307 68.6774 89.5536 73.0002C89.1431 81.968 97.816 88.5002 97.816 88.5002L95.2933 94.952C95.1675 96.3825 95.3256 97.8237 95.7585 99.1929C96.1915 100.562 96.8907 101.832 97.816 102.93C98.7413 104.029 99.8745 104.933 101.151 105.592C102.426 106.251 103.82 106.651 105.251 106.769C108.103 106.998 110.93 106.096 113.123 104.259C115.316 102.422 116.698 99.796 116.972 96.9484L120.192 63.6937C121.496 54.4362 117.23 45.9515 107.94 44.8647Z" fill="#FFBF9D"/>
<path d="M98 88.5007C102.149 88.7417 106.371 87.6491 110 85.6777C110 85.6777 105.881 91.7827 97 90.5007L98 88.5007Z" fill="#FF9A6C"/>
<path d="M104.004 68.3284C103.975 68.7349 104.102 69.1368 104.357 69.447C104.613 69.7572 104.976 69.9508 105.368 69.9858C105.559 70.0133 105.753 70.0008 105.939 69.9492C106.125 69.8975 106.299 69.8078 106.451 69.6852C106.603 69.5627 106.729 69.4099 106.823 69.2358C106.917 69.0617 106.976 68.8698 106.997 68.6716C107.021 68.2663 106.892 67.8672 106.638 67.5581C106.384 67.249 106.023 67.054 105.633 67.0142C105.442 66.9867 105.248 66.9992 105.062 67.0509C104.876 67.1025 104.702 67.1922 104.55 67.3148C104.398 67.4373 104.272 67.5901 104.178 67.7642C104.084 67.9383 104.025 68.1302 104.004 68.3284Z" fill="#263238"/>
<path d="M91.212 63.701C91.3649 63.8781 92.3712 63.21 93.7477 63.2985C95.1243 63.3871 96.0984 64.1035 96.2513 63.9667C96.4043 63.8298 96.1869 63.5883 95.7683 63.2422C95.1958 62.793 94.4986 62.5316 93.7719 62.4935C93.0568 62.4539 92.3472 62.6397 91.7433 63.0248C91.3166 63.3227 91.1556 63.6125 91.212 63.701Z" fill="#263238"/>
<path d="M92.0028 68.3284C91.9789 68.7337 92.1076 69.1328 92.3621 69.4419C92.6165 69.751 92.9767 69.946 93.3671 69.9858C93.5579 70.0133 93.752 70.0008 93.938 69.9491C94.1241 69.8975 94.2982 69.8078 94.4501 69.6852C94.6021 69.5627 94.7287 69.4099 94.8226 69.2358C94.9165 69.0617 94.9756 68.8698 94.9966 68.6716C95.023 68.2657 94.8951 67.8652 94.6402 67.5556C94.3854 67.2459 94.0237 67.0516 93.6323 67.0142C93.4416 66.9867 93.2474 66.9992 93.0614 67.0509C92.8754 67.1025 92.7012 67.1922 92.5493 67.3148C92.3974 67.4373 92.2707 67.5901 92.1769 67.7642C92.083 67.9383 92.0238 68.1302 92.0028 68.3284Z" fill="#263238"/>
<path d="M104.744 64.7316C104.889 64.9087 105.903 64.2486 107.28 64.3291C108.656 64.4096 109.622 65.1341 109.783 64.9973C109.944 64.8604 109.719 64.6189 109.292 64.2728C108.724 63.8278 108.033 63.5691 107.312 63.5322C106.596 63.4864 105.885 63.6727 105.283 64.0635C104.833 64.3613 104.672 64.6511 104.744 64.7316Z" fill="#263238"/>
<path d="M99.1652 74.6567C98.4536 74.3823 97.7095 74.201 96.9514 74.1173C96.5972 74.061 96.2752 73.9724 96.2269 73.7309C96.2149 73.3658 96.3162 73.0059 96.5167 72.7005C96.9031 71.8955 97.3217 71.002 97.7162 70.0843C99.3745 66.3571 100.598 63.29 100.453 63.2256C100.308 63.1612 98.8432 66.1237 97.1688 69.8508C96.7663 70.7685 96.3638 71.646 96.0176 72.4832C95.7753 72.8956 95.6816 73.3786 95.752 73.8517C95.7956 73.9799 95.8685 74.0961 95.9649 74.1911C96.0613 74.2862 96.1786 74.3574 96.3074 74.3991C96.497 74.4654 96.6947 74.506 96.8951 74.5198C97.6438 74.6547 98.4057 74.7006 99.1652 74.6567Z" fill="#263238"/>
<path d="M104.641 60.4005C104.761 60.7788 106.146 60.6822 107.748 60.972C109.35 61.2618 110.63 61.777 110.863 61.447C110.968 61.294 110.759 60.9318 110.26 60.5373C109.582 60.0516 108.803 59.7266 107.982 59.5871C107.16 59.4476 106.318 59.4973 105.518 59.7323C104.914 59.9416 104.592 60.2153 104.641 60.4005Z" fill="#263238"/>
<path d="M91.9137 60.827C92.1311 61.149 93.0971 60.8833 94.2402 60.9316C95.3833 60.9799 96.3332 61.2617 96.5747 60.9316C96.6793 60.7787 96.5747 60.4567 96.148 60.1266C95.6025 59.7358 94.9513 59.5197 94.2804 59.5068C93.608 59.4784 92.9436 59.6614 92.3806 60.03C91.962 60.352 91.8091 60.666 91.9137 60.827Z" fill="#263238"/>
<path d="M90.6564 55.1525C90.6564 55.1525 93.337 49.6784 96.1223 48.5192C99.4872 47.1266 100.687 50.8054 103.858 50.1292C107.03 49.453 110.242 48.1006 113.293 50.6927C116.626 53.5344 114.903 55.2974 114.903 59.2821C114.855 75.4385 117.535 80.1639 118.807 72.629C118.944 71.824 121.295 71.2686 121.834 67.799C122.543 63.2749 123.034 57.7526 122.204 54.4602C121.504 51.6909 120.063 49.7187 117.374 47.4808C113.164 43.9549 107.135 43.5363 103.005 43.7134C98.8754 43.8905 90.6805 48.1006 90.6564 55.1525Z" fill="#263238"/>
<path d="M118.22 72.3236C118.247 71.9929 118.342 71.6713 118.499 71.3788C118.655 71.0864 118.871 70.8295 119.131 70.624C119.392 70.4185 119.692 70.269 120.013 70.1847C120.334 70.1004 120.669 70.0831 120.997 70.134C122.655 70.3916 124.458 71.4462 124.153 74.8916C123.605 81.0016 117.584 79.1903 117.584 79.0132C117.584 78.8361 117.97 74.8835 118.22 72.3236Z" fill="#FFBF9D"/>
<path d="M119.105 76.8303C119.105 76.8303 119.202 76.9188 119.379 77.0154C119.626 77.1475 119.914 77.1793 120.184 77.104C120.844 76.9269 121.48 75.9448 121.609 74.85C121.673 74.3266 121.617 73.7955 121.448 73.2963C121.408 73.1011 121.321 72.9186 121.195 72.7643C121.068 72.6101 120.907 72.4888 120.723 72.4108C120.604 72.3686 120.474 72.3688 120.356 72.4113C120.237 72.4538 120.136 72.5361 120.071 72.6443C119.967 72.8053 119.999 72.934 119.967 72.9421C119.934 72.9501 119.846 72.8294 119.918 72.5798C119.964 72.4305 120.061 72.3022 120.192 72.2176C120.372 72.1045 120.589 72.0669 120.796 72.1129C121.041 72.1861 121.264 72.3205 121.443 72.5036C121.621 72.6868 121.751 72.9125 121.818 73.1595C122.031 73.7126 122.106 74.3096 122.035 74.8983C121.882 76.1299 121.15 77.2247 120.248 77.4018C120.08 77.4353 119.907 77.4302 119.741 77.387C119.575 77.3438 119.421 77.2635 119.29 77.1523C119.105 76.9832 119.081 76.8464 119.105 76.8303Z" fill="#FF9A6C"/>
<path d="M89.3524 48.5191C90.2943 47.8107 91.5903 47.7141 92.5241 46.9977C96.6835 43.8042 103.387 37.7091 109.111 40.8959C111.289 42.1085 114.038 42.2125 115.982 43.6006C116.547 44.0475 117.013 44.608 117.348 45.2458C117.684 45.8835 117.882 46.5845 117.93 47.3036C117.93 47.3036 118.566 46.9816 120.498 48.5111C121.73 49.4851 122.736 51.5862 123.187 53.0835C123.855 55.3294 122.881 57.6962 121.923 59.8294C121.408 60.9806 120.764 62.2444 119.564 62.655C118.107 63.146 116.497 62.0029 115.926 60.57C115.354 59.1371 114.452 57.6962 113.76 56.3196C112.553 53.9046 111.345 51.6989 112.335 50.1694C109.07 49.1089 106.906 51.0056 104.003 52.0289C102.783 52.4594 97.8575 53.276 96.4995 52.9513C96.0607 52.8464 95.6512 52.6439 95.3014 52.359C94.7484 53.2599 93.8762 53.9194 92.8587 54.2059C91.8411 54.4923 90.753 54.3848 89.8112 53.9046C87.9919 52.7776 87.6699 49.791 89.3524 48.5191Z" fill="#263238"/>
<path d="M122.535 58.3875C122.252 58.8294 122.015 59.2987 121.826 59.7882C121.606 60.2826 121.258 60.7102 120.82 61.0279C120.234 61.3278 119.559 61.405 118.92 61.2452C118.256 61.1164 117.629 60.8414 117.085 60.4402C116.646 60.0994 116.246 59.7106 115.893 59.281C115.585 58.8596 115.243 58.4638 114.871 58.0977C115.067 58.5852 115.339 59.0388 115.676 59.442C116.013 59.9161 116.414 60.3413 116.867 60.7059C117.449 61.1447 118.124 61.4424 118.84 61.5753C119.565 61.7551 120.332 61.6484 120.981 61.2774C121.466 60.9224 121.835 60.4324 122.044 59.8687C122.268 59.397 122.433 58.8995 122.535 58.3875Z" fill="#B9B8B6"/>
<path d="M122.301 63.1146C121.933 63.394 121.526 63.619 121.094 63.7828C120.623 63.9318 120.126 63.9757 119.636 63.9116C119.036 63.8203 118.462 63.6007 117.954 63.2676C117.031 62.6266 116.248 61.805 115.652 60.8526C115.424 60.4394 115.154 60.0509 114.847 59.6934C114.988 60.1539 115.197 60.5907 115.467 60.9894C116.014 62.0378 116.806 62.9383 117.777 63.6137C118.33 63.9795 118.962 64.2085 119.62 64.2819C120.167 64.342 120.72 64.2674 121.23 64.0645C122.051 63.6701 122.341 63.1227 122.301 63.1146Z" fill="#B9B8B6"/>
<path d="M103.297 79.6289C103.503 79.9662 103.618 80.3164 103.638 80.6697C103.663 80.8368 103.617 81.0047 103.503 81.1618C103.389 81.319 103.211 81.4618 102.98 81.5804C102.74 81.7262 102.441 81.8432 102.104 81.9233C101.766 82.0034 101.398 82.0446 101.027 82.0439C100.356 82.0432 99.7074 81.92 99.1981 81.6964C98.6888 81.4729 98.3518 81.1636 98.2479 80.8242L98.0098 80.0558C99.3991 79.8525 103.194 79.6818 103.297 79.6289Z" fill="#FF9A6C"/>
<path d="M99.0522 81.1252C99.0522 81.1252 99.2472 81.1252 99.5693 81.1411C100.021 81.163 100.482 81.163 100.934 81.1411C101.587 81.1089 102.177 81.0007 102.587 80.8381C103.075 80.6348 103.307 80.3822 103.239 80.1285C103.22 79.9858 103.101 79.8462 102.892 79.7193L103.095 79.7485C101.646 79.8176 100.374 79.8734 99.476 79.9053C98.9928 79.9336 98.5011 79.9452 98.0098 79.9399C98.4676 79.884 98.9459 79.8465 99.4336 79.8282C100.332 79.7751 101.586 79.7033 103.036 79.6289H103.171L103.231 79.6661C103.556 79.8636 103.694 80.086 103.629 80.3073C103.565 80.5286 103.3 80.7395 102.866 80.9152C102.39 81.0951 101.709 81.2096 100.968 81.2341C100.486 81.2474 100.001 81.233 99.5354 81.1916C99.361 81.1806 99.1962 81.1579 99.0522 81.1252Z" fill="#263238"/>
<path d="M139.512 106.576C140.043 106.576 147.626 109.603 149.623 117.041C151.619 124.479 157.069 151.769 157.069 151.769L162.857 159.787C162.857 159.787 160.981 174.414 150.347 171.628C150.347 171.628 143.247 172.868 140.985 165.671C138.723 158.475 134.336 137.005 134.336 137.005L139.512 106.576Z" fill="#B9B8B6"/>
<path d="M117.853 94L121.88 100.196L140 106.752L134.814 160.234V185.5C115.5 197.5 77.2791 196.215 74.5409 195C73.1154 194.959 71.3195 191.408 71.0859 189.425C70.8846 187.645 71.038 185.841 71.5369 184.123L74.5409 173.403C74.0979 180.074 76.063 133.607 76.1516 131.911L71.7624 108.006L92.3795 99.5154L95.6009 94.5081L104.879 101.687L117.853 94Z" fill="#B9B8B6"/>
<path d="M71.3363 107.84C71.3363 107.84 67.1905 111.478 66.5063 114.28C65.822 117.081 50.9134 149.354 50.9134 149.354L43.5074 151.35L41.5271 155.456C40.3704 157.81 40.0591 160.49 40.6454 163.047C41.2318 165.603 42.6801 167.88 44.7471 169.495C45.0045 169.69 45.2733 169.871 45.5521 170.034C49.5771 172.449 56.7416 172.321 60.9357 167.378C64.9043 162.693 76.5205 145.852 76.5205 145.852V125.244L71.3363 107.84Z" fill="#B9B8B6"/>
<path d="M47.0495 152.59L36.3993 146.303L31.2634 152.59L32.326 155.633L46.0594 165.848C47.7643 164.457 48.9081 162.495 49.2794 160.326C49.8831 156.486 47.0495 152.59 47.0495 152.59Z" fill="#FFBF9D"/>
<path d="M50.4305 149.337C50.4305 149.442 51.3402 149.337 52.6765 149.788C54.4033 150.385 55.9323 151.446 57.0959 152.855C58.2458 154.295 59.1937 155.885 59.9134 157.581C60.1847 158.307 60.5215 159.008 60.9197 159.674C60.8123 158.901 60.5955 158.147 60.2757 157.436C59.6431 155.646 58.7093 153.977 57.5145 152.501C56.2929 151.009 54.6394 149.932 52.7811 149.418C52.0213 149.167 51.2057 149.139 50.4305 149.337Z" fill="#263238"/>
<path d="M36.5764 149.789C36.8418 148.399 36.7467 146.964 36.3 145.621C35.8532 144.277 35.0698 143.071 34.0245 142.117C31.5099 140.049 28.6664 138.416 25.6122 137.287C23.7446 136.482 19.8564 133.206 19.1722 133.995C18.4879 134.784 18.182 135.959 19.1722 137.392C20.1623 138.825 25.7893 140.958 25.0004 142.769C24.6784 143.502 22.9074 143.639 22.9074 143.639C19.6927 143.865 16.4686 143.929 13.2474 143.832C10.3977 143.582 7.83777 144.13 7.99072 145.112C8.14367 146.094 8.67497 146.633 11.0336 146.834C13.3923 147.036 17.2321 146.883 17.4736 147.422C17.7151 147.961 16.8779 148.308 15.5014 148.227C14.1248 148.147 7.63652 148.122 7.19377 148.863C7.0861 149.051 7.02143 149.261 7.00446 149.477C6.98749 149.692 7.01864 149.91 7.09563 150.112C7.17262 150.314 7.29354 150.497 7.44971 150.648C7.60588 150.798 7.79341 150.911 7.99878 150.98L9.52022 151.52C9.52022 151.52 8.63472 152.751 9.37532 153.435C10.1159 154.12 11.7903 153.878 11.7903 153.878L20.3958 153.637C20.3958 153.637 20.8869 154.152 20.6454 154.506C20.4039 154.86 13.6579 154.369 13.6096 155.11C13.5613 155.85 12.9737 156.189 14.9862 156.72C17.9336 157.211 20.9421 157.211 23.8895 156.72C25.7088 156.221 33.3322 155.915 33.3322 155.915L36.5764 149.789Z" fill="#FFBF9D"/>
<path d="M153.535 153.709L163.493 145.449L169.208 151.889L168.508 155.037L156.063 166.758C154.218 165.7 152.826 164.001 152.15 161.984C150.911 158.434 153.535 153.709 153.535 153.709Z" fill="#FFBF9D"/>
<path d="M163.606 149.747C163.178 148.399 163.101 146.964 163.382 145.578C163.664 144.192 164.295 142.9 165.216 141.826C167.481 139.475 170.13 137.526 173.048 136.062C174.803 135.008 178.281 131.337 179.062 132.037C179.525 132.455 179.82 133.026 179.893 133.646C179.965 134.265 179.81 134.889 179.456 135.402C178.651 136.94 174.771 138.727 174.908 140.699C174.922 140.89 174.974 141.076 175.06 141.247C175.146 141.418 175.265 141.57 175.41 141.695C175.555 141.82 175.724 141.915 175.905 141.975C176.087 142.034 176.279 142.058 176.47 142.044C179.682 141.896 182.884 141.587 186.065 141.118C188.875 140.538 191.475 140.78 191.443 141.77C191.411 142.76 190.936 143.38 188.617 143.839C186.299 144.298 182.467 144.644 182.338 145.167C182.209 145.69 183.022 145.972 184.383 145.722C185.743 145.473 192.183 144.708 192.707 145.392C192.836 145.564 192.926 145.763 192.97 145.974C193.013 146.185 193.01 146.403 192.959 146.613C192.908 146.822 192.811 147.018 192.676 147.185C192.54 147.353 192.369 147.488 192.175 147.582L190.726 148.298C190.726 148.298 191.749 149.417 191.097 150.182C190.445 150.947 188.754 150.907 188.754 150.907L180.173 151.663C180.173 151.663 179.746 152.235 180.036 152.557C180.326 152.879 186.951 151.607 187.088 152.34C187.225 153.072 187.852 153.338 185.904 154.062C183.03 154.895 180.038 155.246 177.049 155.101C175.182 154.819 167.566 155.366 167.566 155.366L163.606 149.747Z" fill="#FFBF9D"/>
<path d="M92.4597 101.006C92.9982 101.678 93.5964 102.301 94.2468 102.865C95.3819 103.976 96.9355 105.53 98.5777 107.301C98.9239 107.679 99.27 108.05 99.592 108.412L99.8094 108.645L100.011 108.396C101.283 106.786 102.385 105.305 103.158 104.25C103.612 103.714 103.999 103.125 104.309 102.495C103.775 102.952 103.294 103.468 102.876 104.033C102.031 105.031 100.872 106.448 99.584 108.058H99.9945L98.9883 106.939C97.5736 105.41 96.0796 103.956 94.5125 102.584C93.8949 101.976 93.2056 101.446 92.4597 101.006Z" fill="#263238"/>
<path d="M138.377 120.502C138.229 120.857 138.129 121.231 138.079 121.613C137.926 122.337 137.733 123.392 137.524 124.696C137.105 127.304 136.662 130.927 136.292 134.936C135.922 138.945 135.648 142.583 135.439 145.216C135.358 146.439 135.278 147.478 135.221 148.331C135.171 148.713 135.171 149.1 135.221 149.482C135.336 149.115 135.412 148.738 135.447 148.355C135.559 147.622 135.696 146.56 135.841 145.248C136.147 142.631 136.485 139.001 136.856 134.992C137.226 130.983 137.588 127.369 137.902 124.793C138.055 123.577 138.184 122.539 138.288 121.693C138.372 121.302 138.401 120.901 138.377 120.502Z" fill="#263238"/>
<path d="M75.3936 118.676C75.2787 119.132 75.2112 119.599 75.1924 120.068C75.1038 120.978 75.0072 122.282 74.9267 123.908C74.7416 127.128 74.653 131.636 74.6369 136.579V153.09C74.6111 153.56 74.6299 154.032 74.6933 154.498C74.7976 154.039 74.8489 153.569 74.8462 153.098C74.9106 152.188 74.975 150.876 75.0233 149.258C75.136 146.038 75.1763 141.53 75.1843 136.587C75.1924 131.644 75.2326 127.161 75.3131 123.924C75.3534 122.387 75.3856 121.099 75.4097 120.085C75.4479 119.615 75.4425 119.144 75.3936 118.676Z" fill="#263238"/>
<path d="M146.548 165.123C146.8 164.209 146.985 163.279 147.103 162.338C147.48 160.092 148.208 157.918 149.261 155.898C150.334 153.917 151.948 152.282 153.914 151.181C154.759 150.777 155.633 150.438 156.53 150.166C156.265 150.109 155.99 150.109 155.725 150.166C155.027 150.283 154.35 150.497 153.712 150.802C151.597 151.857 149.864 153.546 148.753 155.632C147.688 157.706 147.012 159.957 146.757 162.274C146.568 163.211 146.497 164.168 146.548 165.123Z" fill="#263238"/>
<path d="M143.964 154.248C144.076 154.377 145.678 152.727 148.286 151.833C150.895 150.94 153.116 151.246 153.165 151.077C153.213 150.908 150.854 150.36 148.109 151.318C145.364 152.276 143.843 154.184 143.964 154.248Z" fill="#263238"/>
<path d="M103.11 191.656C103.159 191.358 103.18 191.057 103.174 190.755C103.174 190.119 103.174 189.258 103.231 188.179C103.279 185.885 103.343 182.657 103.424 178.688C103.609 170.638 103.867 159.585 104.156 147.381C104.446 135.177 104.599 124.076 104.583 116.059C104.583 112.034 104.543 108.814 104.495 106.56C104.495 105.481 104.438 104.62 104.414 103.984C104.421 103.682 104.399 103.38 104.35 103.082C104.327 103.382 104.327 103.684 104.35 103.984C104.35 104.62 104.35 105.481 104.35 106.56C104.35 108.854 104.301 112.09 104.269 116.051C104.189 124.101 103.955 135.137 103.681 147.365C103.408 159.593 103.166 170.662 103.102 178.68C103.102 182.705 103.102 185.925 103.102 188.179C103.102 189.258 103.102 190.119 103.142 190.755C103.111 191.054 103.1 191.356 103.11 191.656Z" fill="#263238"/>
<path d="M154.002 153.37C154.002 153.305 153.197 153.909 152.553 155.246C152.158 156.007 151.871 156.82 151.7 157.661C151.534 158.728 151.534 159.814 151.7 160.881C151.82 161.949 152.137 162.986 152.634 163.94C153.064 164.713 153.657 165.383 154.372 165.904C155.001 166.426 155.793 166.71 156.61 166.709C155.903 166.416 155.233 166.041 154.614 165.59C153.979 165.069 153.456 164.426 153.076 163.698C152.646 162.788 152.373 161.81 152.271 160.808C152.127 159.804 152.127 158.785 152.271 157.781C152.41 156.952 152.645 156.141 152.972 155.366C153.471 154.086 154.083 153.418 154.002 153.37Z" fill="#263238"/>
<path d="M44.0629 166.967C44.0629 166.967 44.3205 166.967 44.7311 166.765C45.3074 166.511 45.8485 166.184 46.3411 165.791C48.0279 164.492 49.1816 162.621 49.5849 160.531C49.9882 158.44 49.6133 156.274 48.5307 154.441C48.2152 153.89 47.8311 153.381 47.3876 152.927C47.0736 152.621 46.8724 152.476 46.8482 152.501C46.8241 152.525 47.4922 153.249 48.1926 154.626C49.129 156.407 49.4312 158.453 49.0493 160.428C48.6674 162.404 47.6242 164.19 46.0915 165.493C44.9404 166.508 44.0227 166.878 44.0629 166.967Z" fill="#263238"/>
<path d="M23.5917 140.41C23.5273 140.475 23.9942 140.917 24.5818 141.698C24.9199 142.145 25.1537 142.662 25.2661 143.212C25.3949 143.831 25.3788 144.556 25.4915 145.353C25.5874 146.037 25.8182 146.695 26.1706 147.29C26.523 147.884 26.9899 148.402 27.5443 148.814C27.9679 149.196 28.5053 149.428 29.0738 149.474C29.114 149.386 28.5183 149.161 27.7858 148.508C26.8427 147.673 26.2218 146.534 26.0308 145.288C25.9778 144.56 25.8865 143.834 25.7572 143.115C25.6031 142.515 25.3046 141.963 24.8877 141.505C24.5496 141.042 24.1051 140.666 23.5917 140.41Z" fill="#FF9A6C"/>
<path d="M178.861 148.879C178.861 149.024 181.541 149.169 184.85 149.008C188.158 148.847 190.815 148.46 190.799 148.307C190.783 148.155 188.118 148.307 184.826 148.46C181.533 148.613 178.861 148.718 178.861 148.879Z" fill="#FF9A6C"/>
<path d="M172.767 148.42C172.767 148.477 173.403 148.372 174.159 147.736C174.65 147.31 175.039 146.781 175.301 146.187C175.563 145.592 175.69 144.948 175.673 144.299C175.615 143.612 175.491 142.933 175.303 142.27C175.162 141.745 175.094 141.203 175.101 140.66C175.148 140.175 175.259 139.699 175.431 139.243C175.431 139.187 174.844 139.613 174.715 140.628C174.65 141.198 174.683 141.775 174.811 142.334C174.963 142.973 175.068 143.621 175.125 144.274C175.143 145.442 174.7 146.569 173.894 147.414C173.274 148.138 172.727 148.34 172.767 148.42Z" fill="#FF9A6C"/>
<path d="M22.0942 150.328C22.0942 150.175 19.2204 150.288 15.7106 150.578C12.2008 150.867 9.35908 151.238 9.36713 151.383C9.37518 151.528 12.241 151.423 15.7508 151.125C19.2606 150.827 22.1023 150.473 22.0942 150.328Z" fill="#FF9A6C"/>
<path d="M104.961 101.971C105.283 103.043 105.689 104.087 106.177 105.095C106.394 105.578 106.62 106.101 106.853 106.64C107.084 107.255 107.353 107.854 107.658 108.435C107.774 108.626 107.943 108.78 108.145 108.877C108.346 108.974 108.571 109.011 108.793 108.983C109.183 108.88 109.546 108.693 109.856 108.435L111.756 107.139C114.348 105.352 116.674 103.702 118.349 102.494C119.285 101.882 120.168 101.193 120.989 100.434C119.992 100.936 119.036 101.518 118.131 102.172C116.401 103.307 114.034 104.893 111.442 106.688L109.55 107.993C109.303 108.206 109.016 108.368 108.705 108.468C108.578 108.483 108.449 108.459 108.336 108.401C108.222 108.342 108.129 108.25 108.069 108.137C107.457 107.027 106.95 105.827 106.459 104.917C106.042 103.895 105.542 102.91 104.961 101.971Z" fill="#263238"/>
<path d="M20.6506 134.5L9.04983 132.641L-1.17017 131L36.4122 165.131L62.9817 167.531L27.0393 135.395L20.6506 134.5Z" fill="#E0E0E0"/>
<path d="M26.6654 136.611L3.78101 133.117L36.9771 163.596L59.0303 165.436L26.6654 136.611Z" fill="#FAFAFA"/>
<path d="M10.8981 135.16L7.80371 132.213L19.3125 134.098L21.7049 136.544L10.8981 135.16Z" fill="#E0E0E0"/>
<path d="M12.8718 132.711C12.8718 132.711 12.3788 131.129 14.0689 131.381C15.759 131.634 16.7774 133.426 16.7774 133.426L12.8718 132.711Z" fill="#E0E0E0"/>
<path d="M181.4 132.43C181.4 132.43 181.393 132.437 181.389 132.441L166.732 160.234L166.726 160.24C166.723 160.247 166.72 160.254 166.717 160.262C166.697 160.303 166.684 160.346 166.677 160.391C166.667 160.441 166.663 160.491 166.665 160.541C166.678 160.729 166.74 160.909 166.846 161.065C167.247 161.702 168.183 162.194 168.935 162.164C169.177 162.17 169.411 162.082 169.591 161.921C169.629 161.882 169.661 161.837 169.685 161.788L184.203 134.273L184.355 133.985C184.47 133.771 184.438 133.48 184.233 133.162C183.829 132.524 182.892 132.029 182.141 132.059C181.776 132.069 181.514 132.211 181.4 132.43Z" fill="#E6E6E6"/>
<path d="M184.547 129.447L184.142 130.184C184.131 130.207 184.127 130.232 184.129 130.257C184.132 130.282 184.142 130.305 184.158 130.325C184.197 130.38 184.248 130.426 184.308 130.457C184.368 130.489 184.435 130.506 184.503 130.507C184.527 130.508 184.551 130.503 184.573 130.492C184.595 130.481 184.613 130.465 184.627 130.444L185.028 129.717C185.055 129.654 185.058 129.583 185.036 129.518C185.015 129.452 184.969 129.398 184.909 129.364C184.849 129.331 184.779 129.32 184.712 129.336C184.645 129.351 184.586 129.391 184.547 129.447Z" fill="#455A64"/>
<path d="M184.574 129.408C184.563 129.42 184.551 129.433 184.54 129.444C184.697 129.363 185.013 129.508 185.032 129.69C185.036 129.687 185.04 129.683 185.043 129.679L185.053 129.667C185.063 129.639 185.067 129.609 185.065 129.579C185.062 129.506 185.03 129.437 184.977 129.387C184.923 129.337 184.852 129.311 184.779 129.313C184.74 129.313 184.701 129.322 184.666 129.338C184.63 129.354 184.599 129.378 184.574 129.408Z" fill="#263238"/>
<path d="M183.521 130.539C183.755 130.543 183.984 130.601 184.192 130.71C184.399 130.819 184.577 130.976 184.712 131.167C184.791 131.276 184.826 131.411 184.81 131.544L184.421 133.74C184.423 133.531 184.359 133.327 184.24 133.157C183.837 132.517 182.901 132.024 182.148 132.053C181.932 132.051 181.721 132.12 181.548 132.248L183.134 130.686C183.143 130.674 183.153 130.663 183.164 130.653C183.266 130.575 183.392 130.535 183.521 130.539Z" fill="#E0E0E0"/>
<path opacity="0.1" d="M182.912 131.312C183.203 131.316 183.489 131.389 183.747 131.525C184.004 131.661 184.226 131.855 184.394 132.092C184.538 132.32 184.557 132.522 184.475 132.675C184.392 132.827 184.215 132.935 183.944 132.946C183.653 132.942 183.367 132.87 183.109 132.735C182.852 132.599 182.63 132.405 182.462 132.167C182.318 131.94 182.296 131.731 182.381 131.576C182.467 131.421 182.648 131.321 182.912 131.312Z" fill="black"/>
<path d="M183.521 130.539C183.755 130.543 183.984 130.601 184.192 130.71C184.399 130.819 184.577 130.976 184.712 131.167C184.791 131.276 184.826 131.411 184.81 131.544L184.421 133.74C184.423 133.531 184.359 133.327 184.24 133.157C183.837 132.517 182.901 132.024 182.148 132.053C181.932 132.051 181.721 132.12 181.548 132.248L183.134 130.686C183.143 130.674 183.153 130.663 183.164 130.653C183.266 130.575 183.392 130.535 183.521 130.539Z" fill="#E0E0E0"/>
<path d="M183.933 130.033L182.484 131.458C182.471 131.471 182.459 131.485 182.446 131.498C182.3 131.655 182.302 131.896 182.468 132.172C182.636 132.408 182.857 132.602 183.114 132.737C183.371 132.872 183.656 132.944 183.946 132.948C184.253 132.937 184.448 132.805 184.506 132.608C184.508 132.604 184.509 132.6 184.51 132.595L184.52 132.54L184.879 130.521C184.888 130.445 184.868 130.369 184.824 130.307C184.747 130.2 184.646 130.112 184.53 130.05C184.413 129.989 184.283 129.956 184.151 129.954C184.111 129.951 184.071 129.957 184.034 129.971C183.996 129.984 183.962 130.005 183.933 130.033Z" fill="#FFD000"/>
<path opacity="0.1" d="M183.933 130.033L182.484 131.458C182.471 131.471 182.459 131.485 182.446 131.498C182.3 131.655 182.302 131.896 182.468 132.172C182.636 132.408 182.857 132.602 183.114 132.737C183.371 132.872 183.656 132.944 183.946 132.948C184.253 132.937 184.448 132.805 184.506 132.608C184.508 132.604 184.509 132.6 184.51 132.595L184.52 132.54L184.879 130.521C184.888 130.445 184.868 130.369 184.824 130.307C184.747 130.2 184.646 130.112 184.53 130.05C184.413 129.989 184.283 129.956 184.151 129.954C184.111 129.951 184.071 129.957 184.034 129.971C183.996 129.984 183.962 130.005 183.933 130.033Z" fill="black"/>
<path d="M182.912 131.312C183.203 131.316 183.489 131.389 183.747 131.525C184.004 131.661 184.226 131.855 184.394 132.092C184.538 132.32 184.557 132.522 184.475 132.675C184.392 132.827 184.215 132.935 183.944 132.946C183.653 132.942 183.367 132.87 183.109 132.735C182.852 132.599 182.63 132.405 182.462 132.167C182.318 131.94 182.296 131.731 182.381 131.576C182.467 131.421 182.648 131.321 182.912 131.312Z" fill="#FFD000"/>
<path d="M182.912 131.312C183.203 131.316 183.489 131.389 183.747 131.525C184.004 131.661 184.226 131.855 184.394 132.092C184.538 132.32 184.557 132.522 184.475 132.675C184.392 132.827 184.215 132.935 183.944 132.946C183.653 132.942 183.367 132.87 183.109 132.735C182.852 132.599 182.63 132.405 182.462 132.167C182.318 131.94 182.296 131.731 182.381 131.576C182.467 131.421 182.648 131.321 182.912 131.312Z" fill="#FFD000"/>
<path opacity="0.05" d="M182.382 131.578C182.346 131.655 182.329 131.74 182.334 131.825C182.338 131.91 182.363 131.993 182.406 132.066C183.047 132.149 183.637 132.456 184.073 132.933C184.155 132.925 184.235 132.898 184.305 132.853C184.375 132.809 184.433 132.748 184.475 132.676C184.557 132.524 184.534 132.318 184.394 132.094C184.226 131.857 184.004 131.662 183.747 131.527C183.489 131.391 183.203 131.318 182.912 131.313C182.648 131.323 182.467 131.42 182.382 131.578Z" fill="black"/>
<path d="M184.145 129.949C184.278 129.951 184.407 129.984 184.524 130.046C184.641 130.108 184.742 130.196 184.819 130.303C184.862 130.366 184.881 130.442 184.872 130.517L184.7 131.493C184.699 131.387 184.666 131.284 184.606 131.197C184.484 131.025 184.324 130.885 184.137 130.787C183.951 130.688 183.744 130.635 183.534 130.632C183.423 130.63 183.315 130.666 183.226 130.732L183.933 130.034C183.961 130.006 183.994 129.985 184.031 129.97C184.067 129.955 184.106 129.948 184.145 129.949Z" fill="#FFD000"/>
<path d="M169.354 157.613C169.334 157.662 169.327 157.715 169.334 157.767C169.341 157.819 169.362 157.868 169.395 157.909C169.479 158.027 169.59 158.124 169.718 158.191C169.847 158.259 169.99 158.295 170.135 158.297C170.187 158.3 170.24 158.29 170.286 158.266C170.333 158.243 170.373 158.207 170.401 158.163L172.777 153.648C172.747 153.684 172.708 153.712 172.665 153.731C172.622 153.749 172.575 153.758 172.528 153.756C172.382 153.753 172.239 153.717 172.11 153.649C171.98 153.581 171.869 153.483 171.784 153.364C171.755 153.326 171.735 153.282 171.726 153.234C171.717 153.187 171.72 153.138 171.734 153.092L169.354 157.613Z" fill="#FAFAFA"/>
<path d="M169.619 157.48C169.764 157.483 169.907 157.519 170.035 157.587C170.164 157.655 170.275 157.752 170.359 157.87C170.391 157.911 170.411 157.959 170.418 158.01C170.425 158.061 170.419 158.113 170.399 158.161C170.372 158.205 170.332 158.242 170.286 158.265C170.239 158.289 170.187 158.3 170.135 158.297C169.99 158.295 169.847 158.259 169.718 158.191C169.59 158.124 169.479 158.027 169.395 157.909C169.36 157.87 169.338 157.821 169.332 157.769C169.325 157.717 169.335 157.664 169.359 157.618C169.383 157.571 169.42 157.533 169.466 157.508C169.513 157.483 169.565 157.473 169.617 157.479L169.619 157.48Z" fill="#E0E0E0"/>
<path d="M167.595 158.967L167.584 158.979C167.584 158.979 167.575 158.988 167.57 158.994L166.888 160.291L166.867 160.332L166.859 160.34C166.773 160.534 166.802 160.783 166.976 161.056C167.334 161.626 168.18 162.074 168.857 162.046C169.198 162.033 169.431 161.903 169.531 161.702L170.224 160.383C170.226 160.38 170.229 160.378 170.231 160.376L170.239 160.367C170.333 160.172 170.305 159.915 170.128 159.635C169.77 159.065 168.924 158.618 168.247 158.645C167.931 158.664 167.703 158.784 167.595 158.967Z" fill="#FFD000"/>
<path opacity="0.05" d="M167.595 158.967L167.584 158.979C167.584 158.979 167.575 158.988 167.57 158.994L166.888 160.291L166.867 160.332L166.859 160.34C166.773 160.534 166.802 160.783 166.976 161.056C167.334 161.626 168.18 162.074 168.857 162.046C169.198 162.033 169.431 161.903 169.531 161.702L170.224 160.383C170.226 160.38 170.229 160.378 170.231 160.376L170.239 160.367C170.333 160.172 170.305 159.915 170.128 159.635C169.77 159.065 168.924 158.618 168.247 158.645C167.931 158.664 167.703 158.784 167.595 158.967Z" fill="black"/>
<path d="M182.933 131.852L181.943 133.732L171.745 153.048C171.745 153.048 171.745 153.048 171.74 153.054L171.718 153.094C171.705 153.14 171.702 153.189 171.711 153.236C171.719 153.284 171.739 153.328 171.769 153.366C171.853 153.486 171.965 153.584 172.095 153.652C172.224 153.72 172.368 153.757 172.515 153.759C172.561 153.761 172.608 153.753 172.651 153.735C172.694 153.716 172.732 153.688 172.763 153.653L172.789 153.601L182.98 134.284L183.973 132.402C183.992 132.354 183.999 132.302 183.992 132.251C183.985 132.2 183.964 132.152 183.933 132.111C183.81 131.937 183.63 131.811 183.425 131.754C183.397 131.745 183.37 131.738 183.342 131.733C183.293 131.724 183.243 131.72 183.192 131.722C183.142 131.719 183.091 131.73 183.046 131.752C183 131.775 182.961 131.809 182.933 131.852Z" fill="#FFD000"/>
<path d="M171.99 152.943C172.135 152.945 172.278 152.982 172.406 153.05C172.535 153.117 172.646 153.214 172.73 153.333C172.762 153.373 172.782 153.422 172.789 153.473C172.796 153.524 172.79 153.576 172.77 153.624C172.742 153.668 172.703 153.704 172.656 153.728C172.609 153.752 172.557 153.762 172.504 153.759C172.359 153.757 172.216 153.722 172.088 153.654C171.959 153.586 171.849 153.489 171.765 153.37C171.732 153.329 171.711 153.28 171.704 153.228C171.697 153.176 171.704 153.123 171.724 153.074C171.753 153.031 171.793 152.996 171.839 152.973C171.886 152.95 171.938 152.94 171.99 152.943Z" fill="#A48C09"/>
<path d="M182.933 131.852L182.783 132.137C183.167 132.245 183.523 132.432 183.828 132.687L183.98 132.402C183.999 132.354 184.006 132.302 183.999 132.251C183.992 132.2 183.971 132.151 183.94 132.111C183.817 131.936 183.637 131.81 183.432 131.754C183.358 131.729 183.28 131.716 183.202 131.718C183.15 131.714 183.097 131.725 183.049 131.748C183.002 131.771 182.962 131.807 182.933 131.852Z" fill="#FFD000"/>
<path d="M167.488 159.858C168.24 159.83 169.177 160.322 169.58 160.962C169.778 161.278 169.811 161.569 169.698 161.781C169.585 161.992 169.331 162.149 168.948 162.164C168.195 162.198 167.259 161.705 166.856 161.065C166.654 160.744 166.621 160.449 166.743 160.232C166.864 160.015 167.114 159.873 167.488 159.858Z" fill="#E0E0E0"/>
<path d="M167.416 160.01C168.168 159.982 169.105 160.474 169.509 161.113C169.706 161.43 169.739 161.721 169.631 161.937L169.624 161.945L169.474 162.234C169.469 162.238 169.465 162.243 169.461 162.248C169.45 162.26 169.438 162.272 169.433 162.291C169.419 162.309 169.403 162.326 169.386 162.341C169.377 162.352 169.367 162.362 169.356 162.374C169.356 162.375 169.355 162.376 169.354 162.377C169.354 162.378 169.352 162.379 169.351 162.38C169.342 162.392 169.332 162.402 169.321 162.412C169.269 162.455 169.211 162.49 169.149 162.517C169.131 162.525 169.112 162.533 169.093 162.539C169.084 162.544 169.074 162.547 169.064 162.549C169.047 162.556 169.03 162.56 169.013 162.564C168.917 162.59 168.819 162.605 168.72 162.608C167.969 162.637 167.033 162.145 166.63 161.509C166.526 161.353 166.464 161.173 166.449 160.986C166.448 160.961 166.449 160.937 166.451 160.913L166.46 160.845C166.462 160.831 166.465 160.817 166.469 160.804L166.476 160.778C166.481 160.762 166.486 160.745 166.494 160.729L166.501 160.722C166.512 160.71 166.514 160.691 166.522 160.676L166.654 160.423C166.658 160.411 166.664 160.399 166.671 160.388C166.776 160.162 167.034 160.024 167.416 160.01Z" fill="#FFD000"/>
<path opacity="0.3" d="M167.262 160.298C168.013 160.269 168.95 160.763 169.354 161.401C169.551 161.719 169.583 162.009 169.471 162.22C169.359 162.43 169.104 162.588 168.721 162.603C167.971 162.637 167.033 162.143 166.63 161.505C166.428 161.184 166.396 160.888 166.517 160.672C166.638 160.456 166.888 160.313 167.262 160.298Z" fill="white"/>
</g>
<defs>
<clipPath id="clip0_682_26457">
<rect width="200" height="200" fill="white"/>
</clipPath>
</defs>
</svg>
