<svg width="200" height="200" viewBox="0 0 200 200" fill="none" xmlns="http://www.w3.org/2000/svg">
<path fill-rule="evenodd" clip-rule="evenodd" d="M95.3511 40.0786C119.484 41.5624 131.191 65.3973 145.943 82.1754C157.899 95.7741 168.961 109.409 171.286 126.445C173.971 146.122 175.558 168.605 159.663 182.721C143.717 196.882 117.964 195.809 95.3511 193.883C72.1366 194.322 53.3796 187.342 42.4481 172.737C26.9316 160.174 13.0786 144.922 12.0648 126.445C11.0113 107.244 22.9446 90.1752 37.1121 75.4837C52.9597 59.05 70.8381 38.5713 95.3511 40.0786Z" fill="#FFF3CC"/>
<path d="M92.0601 44.8647L92.9295 44.8164C97.1236 44.5763 101.254 45.9237 104.5 48.5907C107.746 51.2577 109.869 55.0488 110.446 59.2099C111.557 67.2599 108.823 69.6774 109 74.0002C109.411 82.968 102.184 88.5002 102.184 88.5002L104.707 94.952C104.833 96.3825 104.674 97.8237 104.241 99.1929C103.809 100.562 103.109 101.832 102.184 102.93C101.259 104.029 100.125 104.933 98.8495 105.592C97.5735 106.251 96.1799 106.651 94.7488 106.769C91.8972 106.998 89.07 106.096 86.8772 104.259C84.6845 102.422 83.302 99.796 83.028 96.9484L79.808 63.6937C78.5039 54.4362 82.7704 45.9515 92.0601 44.8647Z" fill="#FFBF9D"/>
<path d="M102 88.5007C97.8507 88.7417 93.6289 87.6491 90 85.6777C90 85.6777 94.1185 91.7827 103 90.5007L102 88.5007Z" fill="#FF9A6C"/>
<path d="M95.996 68.3284C96.0248 68.7349 95.8978 69.1368 95.6425 69.447C95.3872 69.7572 95.0242 69.9508 94.632 69.9858C94.4413 70.0133 94.2472 70.0008 94.0612 69.9492C93.8752 69.8975 93.7011 69.8078 93.5492 69.6852C93.3973 69.5627 93.2706 69.4099 93.1768 69.2358C93.083 69.0617 93.0238 68.8698 93.0028 68.6716C92.9789 68.2663 93.1076 67.8672 93.362 67.5581C93.6163 67.249 93.9765 67.054 94.3668 67.0142C94.5575 66.9867 94.7516 66.9992 94.9376 67.0509C95.1236 67.1025 95.2977 67.1922 95.4496 67.3148C95.6015 67.4373 95.7282 67.5901 95.822 67.7642C95.9158 67.9383 95.975 68.1302 95.996 68.3284Z" fill="#263238"/>
<path d="M108.788 63.701C108.635 63.8781 107.629 63.21 106.252 63.2985C104.876 63.3871 103.902 64.1035 103.749 63.9667C103.596 63.8298 103.813 63.5883 104.232 63.2422C104.804 62.793 105.501 62.5316 106.228 62.4935C106.943 62.4539 107.653 62.6397 108.257 63.0248C108.683 63.3227 108.844 63.6125 108.788 63.701Z" fill="#263238"/>
<path d="M107.997 68.3284C108.021 68.7337 107.892 69.1328 107.638 69.4419C107.384 69.751 107.023 69.946 106.633 69.9858C106.442 70.0133 106.248 70.0008 106.062 69.9491C105.876 69.8975 105.702 69.8078 105.55 69.6852C105.398 69.5627 105.271 69.4099 105.177 69.2358C105.084 69.0617 105.024 68.8698 105.003 68.6716C104.977 68.2657 105.105 67.8652 105.36 67.5556C105.615 67.2459 105.976 67.0516 106.368 67.0142C106.558 66.9867 106.753 66.9992 106.939 67.0509C107.125 67.1025 107.299 67.1922 107.451 67.3148C107.603 67.4373 107.729 67.5901 107.823 67.7642C107.917 67.9383 107.976 68.1302 107.997 68.3284Z" fill="#263238"/>
<path d="M95.256 64.7316C95.1111 64.9087 94.0968 64.2486 92.7202 64.3291C91.3437 64.4096 90.3777 65.1341 90.2167 64.9973C90.0557 64.8604 90.2811 64.6189 90.7077 64.2728C91.2758 63.8278 91.9674 63.5691 92.688 63.5322C93.4038 63.4864 94.1152 63.6727 94.7166 64.0635C95.1674 64.3613 95.3284 64.6511 95.256 64.7316Z" fill="#263238"/>
<path d="M100.835 74.6567C101.546 74.3823 102.29 74.201 103.049 74.1173C103.403 74.061 103.725 73.9724 103.773 73.7309C103.785 73.3658 103.684 73.0059 103.483 72.7005C103.097 71.8955 102.678 71.002 102.284 70.0843C100.626 66.3571 99.4019 63.29 99.5468 63.2256C99.6917 63.1612 101.157 66.1237 102.831 69.8508C103.234 70.7685 103.636 71.646 103.982 72.4832C104.225 72.8956 104.318 73.3786 104.248 73.8517C104.204 73.9799 104.132 74.0961 104.035 74.1911C103.939 74.2862 103.821 74.3574 103.693 74.3991C103.503 74.4654 103.305 74.506 103.105 74.5198C102.356 74.6547 101.594 74.7006 100.835 74.6567Z" fill="#263238"/>
<path d="M95.359 60.4005C95.2383 60.7788 93.8537 60.6822 92.2517 60.972C90.6498 61.2618 89.3698 61.777 89.1364 61.447C89.0317 61.294 89.241 60.9318 89.7401 60.5373C90.4173 60.0516 91.1963 59.7266 92.0179 59.5871C92.8395 59.4476 93.6821 59.4973 94.4816 59.7323C95.0853 59.9416 95.4073 60.2153 95.359 60.4005Z" fill="#263238"/>
<path d="M108.086 60.827C107.869 61.149 106.903 60.8833 105.76 60.9316C104.617 60.9799 103.667 61.2617 103.425 60.9316C103.321 60.7787 103.425 60.4567 103.852 60.1266C104.397 59.7358 105.049 59.5197 105.72 59.5068C106.392 59.4784 107.056 59.6614 107.619 60.03C108.038 60.352 108.191 60.666 108.086 60.827Z" fill="#263238"/>
<path d="M109.344 55.1525C109.344 55.1525 106.663 49.6784 103.878 48.5192C100.513 47.1266 99.3133 50.8054 96.1416 50.1292C92.9699 49.453 89.7579 48.1006 86.707 50.6927C83.3743 53.5344 85.097 55.2974 85.097 59.2821C85.1453 75.4385 82.4646 80.1639 81.1927 72.629C81.0559 71.824 78.7052 71.2686 78.1659 67.799C77.4575 63.2749 76.9664 57.7526 77.7956 54.4602C78.4959 51.6909 79.9369 49.7187 82.6256 47.4808C86.8358 43.9549 92.8652 43.5363 96.9949 43.7134C101.125 43.8905 109.319 48.1006 109.344 55.1525Z" fill="#263238"/>
<path d="M81.7803 72.3236C81.7532 71.9929 81.6583 71.6713 81.5014 71.3788C81.3446 71.0864 81.1291 70.8295 80.8685 70.624C80.6079 70.4185 80.3078 70.269 79.9868 70.1847C79.6658 70.1004 79.331 70.0831 79.003 70.134C77.3447 70.3916 75.5415 71.4462 75.8474 74.8916C76.3948 81.0016 82.4162 79.1903 82.4162 79.0132C82.4162 78.8361 82.0298 74.8835 81.7803 72.3236Z" fill="#FFBF9D"/>
<path d="M80.8948 76.8303C80.8948 76.8303 80.7982 76.9188 80.6211 77.0154C80.3742 77.1475 80.0858 77.1793 79.8161 77.104C79.156 76.9269 78.52 75.9448 78.3912 74.85C78.3275 74.3266 78.3825 73.7955 78.5522 73.2963C78.5923 73.1011 78.6792 72.9186 78.8054 72.7643C78.9316 72.6101 79.0933 72.4888 79.2767 72.4108C79.3957 72.3686 79.5255 72.3688 79.6444 72.4113C79.7632 72.4538 79.8637 72.5361 79.9288 72.6443C80.0334 72.8053 80.0012 72.934 80.0334 72.9421C80.0656 72.9501 80.1542 72.8294 80.0817 72.5798C80.0362 72.4305 79.9392 72.3022 79.808 72.2176C79.6284 72.1045 79.4114 72.0669 79.2043 72.1129C78.9589 72.1861 78.7363 72.3205 78.5574 72.5036C78.3785 72.6868 78.2493 72.9125 78.1819 73.1595C77.9686 73.7126 77.894 74.3096 77.9646 74.8983C78.1175 76.1299 78.8501 77.2247 79.7517 77.4018C79.9198 77.4353 80.0934 77.4302 80.2593 77.387C80.4252 77.3438 80.5792 77.2635 80.7096 77.1523C80.8948 76.9832 80.9189 76.8464 80.8948 76.8303Z" fill="#FF9A6C"/>
<path d="M110.648 48.5191C109.706 47.8107 108.41 47.7141 107.476 46.9977C103.316 43.8042 96.6129 37.7091 90.8888 40.8959C88.7107 42.1085 85.9615 42.2125 84.0181 43.6006C83.4528 44.0475 82.9874 44.608 82.6519 45.2458C82.3164 45.8835 82.1182 46.5845 82.07 47.3036C82.07 47.3036 81.4341 46.9816 79.5021 48.5111C78.2704 49.4851 77.2642 51.5862 76.8134 53.0835C76.1452 55.3294 77.1193 57.6962 78.0772 59.8294C78.5924 60.9806 79.2364 62.2444 80.4359 62.655C81.8929 63.146 83.5029 62.0029 84.0745 60.57C84.646 59.1371 85.5476 57.6962 86.2399 56.3196C87.4474 53.9046 88.6549 51.6989 87.6648 50.1694C90.93 49.1089 93.0942 51.0056 95.9966 52.0289C97.2173 52.4594 102.143 53.276 103.5 52.9513C103.939 52.8464 104.349 52.6439 104.699 52.359C105.252 53.2599 106.124 53.9194 107.141 54.2059C108.159 54.4923 109.247 54.3848 110.189 53.9046C112.008 52.7776 112.33 49.791 110.648 48.5191Z" fill="#263238"/>
<path d="M77.4653 58.3875C77.7478 58.8294 77.9852 59.2987 78.1737 59.7882C78.3945 60.2826 78.7415 60.7102 79.18 61.0279C79.7661 61.3278 80.4411 61.405 81.0798 61.2452C81.7438 61.1164 82.3707 60.8414 82.9152 60.4402C83.3543 60.0994 83.7539 59.7106 84.1066 59.281C84.4148 58.8596 84.7568 58.4638 85.129 58.0977C84.9327 58.5852 84.6611 59.0388 84.324 59.442C83.9868 59.9161 83.5859 60.3413 83.1325 60.7059C82.5515 61.1447 81.8763 61.4424 81.1603 61.5753C80.4348 61.7551 79.6679 61.6484 79.019 61.2774C78.5341 60.9224 78.1645 60.4324 77.9564 59.8687C77.7324 59.397 77.5674 58.8995 77.4653 58.3875Z" fill="#FFD000"/>
<path d="M77.6989 63.1146C78.0674 63.394 78.474 63.619 78.9065 63.7828C79.3769 63.9318 79.8743 63.9757 80.3635 63.9116C80.9641 63.8203 81.5379 63.6007 82.046 63.2676C82.9688 62.6266 83.7521 61.805 84.3483 60.8526C84.5759 60.4394 84.8457 60.0509 85.1533 59.6934C85.0124 60.1539 84.8035 60.5907 84.5334 60.9894C83.9864 62.0378 83.1937 62.9383 82.2231 63.6137C81.6703 63.9795 81.0384 64.2085 80.3796 64.2819C79.8332 64.342 79.2805 64.2674 78.7696 64.0645C77.9485 63.6701 77.6587 63.1227 77.6989 63.1146Z" fill="#FFD000"/>
<path d="M96.7029 79.6289C96.4969 79.9662 96.3821 80.3164 96.3615 80.6697C96.3372 80.8368 96.3835 81.0047 96.4972 81.1618C96.6109 81.319 96.7894 81.4618 97.0205 81.5804C97.2599 81.7262 97.5589 81.8432 97.8964 81.9233C98.2338 82.0034 98.6015 82.0446 98.9734 82.0439C99.6443 82.0432 100.293 81.92 100.802 81.6964C101.311 81.4729 101.648 81.1636 101.752 80.8242L101.99 80.0558C100.601 79.8525 96.8061 79.6818 96.7029 79.6289Z" fill="#FF9A6C"/>
<path d="M100.948 81.1252C100.948 81.1252 100.753 81.1252 100.431 81.1411C99.9786 81.163 99.5184 81.163 99.0662 81.1411C98.4134 81.1089 97.8233 81.0007 97.4135 80.8381C96.9255 80.6348 96.6932 80.3822 96.7609 80.1285C96.7805 79.9858 96.8991 79.8462 97.1084 79.7193L96.9049 79.7485C98.3542 79.8176 99.6256 79.8734 100.524 79.9053C101.007 79.9336 101.499 79.9452 101.99 79.9399C101.532 79.884 101.054 79.8465 100.566 79.8282C99.668 79.7751 98.4136 79.7033 96.9643 79.6289H96.8287L96.7693 79.6661C96.4444 79.8636 96.3061 80.086 96.3707 80.3073C96.4353 80.5286 96.7 80.7395 97.1338 80.9152C97.6097 81.0951 98.291 81.2096 99.0323 81.2341C99.514 81.2474 99.9994 81.233 100.465 81.1916C100.639 81.1806 100.804 81.1579 100.948 81.1252Z" fill="#263238"/>
<path d="M82.1472 94L78.1204 100.196L60 106.752L65.1865 160.234L63.2697 188.228C80 197.5 124.262 195.715 127 194.5C128.425 194.459 128.681 191.408 128.914 189.425C129.115 187.645 128.962 185.841 128.463 184.123L125.459 173.403C125.902 180.074 123.937 133.607 123.848 131.911L128.5 108.5C127.379 106.837 117.595 103.502 107.621 99.5154L104.399 94.5081L95.1215 101.687L82.1472 94Z" fill="#FFD000"/>
<path d="M107.54 101.006C107.002 101.678 106.404 102.301 105.753 102.865C104.618 103.976 103.065 105.53 101.422 107.301C101.076 107.679 100.73 108.05 100.408 108.412L100.191 108.645L99.9894 108.396C98.7175 106.786 97.6146 105.305 96.8418 104.25C96.3881 103.714 96.0015 103.125 95.6907 102.495C96.225 102.952 96.7058 103.468 97.1236 104.033C97.9688 105.031 99.128 106.448 100.416 108.058H100.005L101.012 106.939C102.426 105.41 103.92 103.956 105.488 102.584C106.105 101.976 106.794 101.446 107.54 101.006Z" fill="#263238"/>
<path d="M61.623 120.502C61.771 120.857 61.8711 121.231 61.9209 121.613C62.0738 122.337 62.267 123.392 62.4763 124.696C62.8949 127.304 63.3377 130.927 63.708 134.936C64.0783 138.945 64.352 142.583 64.5613 145.216C64.6418 146.439 64.7223 147.478 64.7786 148.331C64.8291 148.713 64.8291 149.1 64.7786 149.482C64.6638 149.115 64.5882 148.738 64.5532 148.355C64.4405 147.622 64.3037 146.56 64.1588 145.248C63.8529 142.631 63.5148 139.001 63.1445 134.992C62.7742 130.983 62.4119 127.369 62.098 124.793C61.945 123.577 61.8162 122.539 61.7116 121.693C61.6284 121.302 61.5986 120.901 61.623 120.502Z" fill="#263238"/>
<path d="M124.606 118.676C124.721 119.132 124.789 119.599 124.808 120.068C124.896 120.978 124.993 122.282 125.073 123.908C125.258 127.128 125.347 131.636 125.363 136.579V153.09C125.389 153.56 125.37 154.032 125.307 154.498C125.202 154.039 125.151 153.569 125.154 153.098C125.089 152.188 125.025 150.876 124.977 149.258C124.864 146.038 124.824 141.53 124.816 136.587C124.808 131.644 124.767 127.161 124.687 123.924C124.647 122.387 124.614 121.099 124.59 120.085C124.552 119.615 124.557 119.144 124.606 118.676Z" fill="#263238"/>
<path d="M96.8901 191.656C96.8413 191.358 96.8197 191.057 96.8257 190.755C96.8257 190.119 96.8257 189.258 96.7693 188.179C96.721 185.885 96.6566 182.657 96.5761 178.688C96.391 170.638 96.1334 159.585 95.8436 147.381C95.5538 135.177 95.4008 124.076 95.4169 116.059C95.4169 112.034 95.4572 108.814 95.5055 106.56C95.5055 105.481 95.5618 104.62 95.586 103.984C95.5792 103.682 95.6008 103.38 95.6504 103.082C95.6728 103.382 95.6728 103.684 95.6504 103.984C95.6504 104.62 95.6504 105.481 95.6504 106.56C95.6504 108.854 95.6987 112.09 95.7309 116.051C95.8114 124.101 96.0448 135.137 96.3185 147.365C96.5922 159.593 96.8337 170.662 96.8981 178.68C96.8981 182.705 96.8981 185.925 96.8981 188.179C96.8981 189.258 96.8981 190.119 96.8579 190.755C96.8892 191.054 96.8999 191.356 96.8901 191.656Z" fill="#263238"/>
<path d="M95.0386 101.971C94.717 103.043 94.3106 104.087 93.823 105.095C93.6057 105.578 93.3803 106.101 93.1468 106.64C92.9159 107.255 92.6471 107.854 92.3418 108.435C92.2256 108.626 92.0566 108.78 91.8552 108.877C91.6538 108.974 91.4286 109.011 91.2068 108.983C90.8168 108.88 90.4541 108.693 90.1442 108.435L88.2444 107.139C85.6522 105.352 83.3258 103.702 81.6514 102.494C80.7152 101.882 79.832 101.193 79.011 100.434C80.0083 100.936 80.9639 101.518 81.8687 102.172C83.5995 103.307 85.9662 104.893 88.5583 106.688L90.4501 107.993C90.6968 108.206 90.9844 108.368 91.2953 108.468C91.4222 108.483 91.5508 108.459 91.6642 108.401C91.7776 108.342 91.8707 108.25 91.9313 108.137C92.5431 107.027 93.0502 105.827 93.5413 104.917C93.9576 103.895 94.4584 102.91 95.0386 101.971Z" fill="#263238"/>
<path d="M150.412 112.314L151.406 144.907C151.406 146.658 150.972 148.382 150.143 149.924C149.314 151.466 148.117 152.779 146.657 153.746C144.646 155.077 142.241 155.683 139.839 155.463C137.437 155.243 135.182 154.211 133.446 152.536L122.791 142.262L123.94 118.234L138.174 132.87L138.892 112.049L150.412 112.314Z" fill="#FFBE9D"/>
<path d="M107.868 99.9551L122.016 106.421L136.993 128.509L124.5 144.865L114.936 140.669L107.868 99.9551Z" fill="#FFD000"/>
<path d="M138.35 132.682C138.296 132.682 138.256 135.116 138.256 138.12C138.256 141.125 138.296 143.563 138.35 143.563C138.404 143.563 138.443 141.129 138.443 138.12C138.443 135.112 138.4 132.682 138.35 132.682Z" fill="#EB996E"/>
<path d="M122.098 127.422C122.048 127.422 121.987 138.07 121.969 151.202C121.951 164.334 121.969 174.985 122.023 174.985C122.077 174.985 122.134 164.341 122.156 151.202C122.177 138.062 122.145 127.422 122.098 127.422Z" fill="#263238"/>
<g opacity="0.3">
<path d="M113.465 134.443C108.467 141.264 104.554 148.857 98.99 155.204C93.4256 161.551 85.5995 166.692 77.1668 166.282C74.4743 166.15 69.7392 165.245 67.833 163.353L68.5509 156.126C82.3723 152.501 95.1566 145.7 105.886 136.263C107.76 134.612 109.925 132.76 112.402 133.072" fill="black"/>
</g>
<path d="M134.304 76.9688C134.34 76.9688 134.283 76.4052 134.333 75.5077C134.358 74.9848 134.472 74.47 134.67 73.9856C134.918 73.3997 135.357 72.915 135.916 72.6106C136.48 72.3109 137.105 72.1439 137.743 72.1224C138.269 72.1077 138.794 72.145 139.312 72.2337C140.199 72.3881 140.748 72.5245 140.748 72.4922C140.634 72.4359 140.513 72.3925 140.389 72.3629C140.145 72.2947 139.793 72.1942 139.344 72.1045C138.819 71.9935 138.283 71.9417 137.747 71.9501C137.079 71.9645 136.423 72.1354 135.833 72.4491C135.24 72.7738 134.777 73.292 134.52 73.9174C134.324 74.4228 134.219 74.9587 134.211 75.5005C134.2 75.86 134.213 76.2198 134.25 76.5775C134.253 76.7096 134.271 76.8409 134.304 76.9688Z" fill="#263238"/>
<path d="M120.028 85L127.586 85.2979L150 92.8374L133.51 101.174L130.738 111L122.071 107.224L114.172 103.199L114 93.4775C114.059 92.2309 114.373 91.0163 114.92 89.9285C115.466 88.8407 116.229 87.9089 117.149 87.2059L120.028 85Z" fill="#455A64"/>
<path d="M142.859 71.8956L140.928 71.7233C140.825 71.7149 140.722 71.7269 140.624 71.7585C140.526 71.7901 140.435 71.8406 140.357 71.9073C140.279 71.974 140.214 72.0555 140.167 72.1471C140.121 72.2387 140.092 72.3387 140.084 72.4413C140.076 72.5438 140.088 72.647 140.119 72.745C140.151 72.8429 140.201 72.9336 140.268 73.012C140.335 73.0903 140.416 73.1548 140.508 73.2016C140.6 73.2484 140.7 73.2767 140.802 73.2849L142.471 73.4321L142.859 71.8956Z" fill="#455A64"/>
<path d="M156.763 75.5153C156.673 74.9086 156.763 76.7287 156.763 77.2888C156.76 77.5415 156.708 77.7913 156.607 78.0233C156.507 78.2553 156.361 78.4648 156.178 78.6395C155.996 78.8142 155.78 78.9505 155.543 79.0404C155.307 79.1302 155.055 79.1718 154.803 79.1627L152.326 79.0694L150.405 77.3282H154.135V75.3789L156.763 75.5153Z" fill="#455A64"/>
<path d="M140.493 91.289C140.493 91.289 138.58 89.6555 137.811 89.5694C137.043 89.4832 132.132 89.5227 132.132 89.5227L128.901 91.7305L121.082 106.09C120.47 108.723 119.658 109.307 118.024 110L126.521 120.03C127.511 116.122 128.64 114.926 132.132 115.363L138.745 113.209L133.694 113.277C132.674 111.662 130.865 109.199 130.865 109.199L129.619 102.019L129.562 99.1653L131.213 94.6779L133.744 91.989L140.493 91.289Z" fill="#FFBE9D"/>
<path d="M149.339 91.7198L146.991 88.4351L137.959 85.3262C137.959 85.3262 136.552 87.0278 138.677 88.5248H139.395C139.395 88.5248 138.382 90.7685 141.24 90.1367C141.506 90.0792 144.144 90.5459 144.144 90.5459L145.551 91.7198H149.339Z" fill="#FFBE9D"/>
<path d="M158.45 91.7266L161.179 94.34L160.892 109.303L158.447 112.003L133.734 113.5L130.517 109.321L131.153 96.1888L132.003 94.0385L134.376 92.4194L158.45 91.7266Z" fill="#455A64"/>
<path d="M135.65 93.4654L135.5 93.5982L135.055 94.0003L133.335 95.6194C133.335 98.7139 133.313 103.998 133.295 110.726V110.755V110.776L134.631 112.356L134.656 112.384H134.696L157.47 111.372L158.027 111.347H158.066L158.091 111.318L160.198 108.902L160.22 108.873V108.841C160.285 103.966 160.349 99.3385 160.403 95.1204V95.0845L160.374 95.0593C159.585 94.2695 158.82 93.5085 158.08 92.7654L158.055 92.7402H158.019L141.804 93.2572L137.252 93.4187L136.056 93.4654H135.751H135.647H136.067L137.27 93.4403L141.829 93.3254L158.019 92.8767L157.962 92.8551C158.705 93.5946 159.466 94.3593 160.256 95.1527L160.231 95.0881C160.17 99.3062 160.102 103.934 160.03 108.809L160.055 108.751L157.951 111.189L158.016 111.157L157.463 111.182L134.688 112.223L134.753 112.248L133.41 110.676V110.722C133.41 103.995 133.378 98.7103 133.371 95.6158V95.6409L135.062 94.0326L135.496 93.6126C135.604 93.5336 135.65 93.4654 135.65 93.4654Z" fill="#263238"/>
<path d="M159.172 94.4336L158.454 109.54L133.931 110.926L134.315 95.1049L159.172 94.4336Z" fill="#263238"/>
<path d="M151.572 96.0137L151.141 105.861L134.983 106.529V96.3475L151.572 96.0137Z" fill="#455A64"/>
<path d="M134.882 101.454C134.396 98.4432 136.442 95.6089 139.453 95.1229C142.463 94.637 145.297 96.6834 145.783 99.6938C146.269 102.704 144.223 105.538 141.212 106.024C138.202 106.51 135.368 104.464 134.882 101.454Z" fill="#263238"/>
<path d="M134.983 103.417C135.434 104.045 136.013 104.572 136.681 104.962C137.35 105.353 138.092 105.598 138.862 105.683C139.631 105.768 140.41 105.69 141.147 105.454C141.884 105.219 142.564 104.831 143.141 104.316C143.719 103.8 144.182 103.17 144.5 102.464C144.818 101.758 144.984 100.994 144.988 100.22C144.991 99.4457 144.832 98.6797 144.52 97.9712C144.209 97.2628 143.751 96.6278 143.178 96.1074L135.532 96.3372C135.327 96.5306 135.143 96.7447 134.983 96.9762V103.417Z" fill="#FAFAFA"/>
<path d="M158.453 109.551C158.475 109.504 156.856 108.643 154.838 107.623C152.821 106.603 151.162 105.828 151.141 105.86C151.119 105.893 152.735 106.769 154.756 107.788C156.777 108.808 158.428 109.597 158.453 109.551Z" fill="#455A64"/>
<path d="M140.328 76.6738L122.02 76.7672V86.7472L124.612 86.2841L128.029 85.8748V83.4121L128.058 81.8003L133.712 81.9869L133.665 85.1317L131.418 88.5745L131.397 89.0842L136.993 88.797L139.093 85.1461C139.093 85.1461 139.14 83.7101 139.093 83.5665L140.407 84.0835C141.101 84.363 141.842 84.5068 142.59 84.5071H149.339C150.136 84.5052 150.9 84.1876 151.464 83.6238C152.028 83.0601 152.346 82.296 152.347 81.4987V79.3447C152.347 77.9088 150.84 76.7133 149.422 76.7025L140.328 76.6738Z" fill="#455A64"/>
<path d="M143.2 76.6738H148.804C150.866 76.6738 152.537 78.3454 152.537 80.4074V80.7735C152.537 82.8355 150.866 84.5071 148.804 84.5071H143.2C141.138 84.5071 139.466 82.8355 139.466 80.7735V80.4074C139.466 78.3454 141.138 76.6738 143.2 76.6738Z" fill="#263238"/>
<path d="M143.204 79.5723H149.547C150.025 79.5723 150.412 79.9596 150.412 80.4374V80.4949C150.412 80.9727 150.025 81.3601 149.547 81.3601H143.204C142.726 81.3601 142.339 80.9727 142.339 80.4949V80.4374C142.339 79.9596 142.726 79.5723 143.204 79.5723Z" fill="#455A64"/>
<path d="M138.038 76.6855C137.921 76.7104 137.809 76.7553 137.707 76.8184C137.415 76.9661 137.149 77.1615 136.921 77.3964C136.583 77.7519 136.337 78.1844 136.203 78.6564C136.039 79.2299 135.981 79.8283 136.031 80.4227C136.131 81.0185 136.404 81.5716 136.817 82.013C137.141 82.3711 137.511 82.686 137.915 82.95C138.185 83.1283 138.467 83.2878 138.759 83.4274C138.862 83.486 138.974 83.5295 139.089 83.5567C139.089 83.5244 138.648 83.309 137.991 82.8387C137.608 82.5656 137.258 82.2501 136.946 81.8981C136.569 81.4752 136.32 80.9534 136.228 80.3939C136.183 79.8247 136.234 79.2519 136.379 78.6995C136.498 78.2496 136.719 77.8332 137.025 77.4825C137.331 77.1788 137.671 76.9114 138.038 76.6855Z" fill="#263238"/>
<path d="M158.971 72.3853L144.252 71.0319C143.749 70.9846 143.248 71.1375 142.857 71.4574C142.466 71.7772 142.216 72.2383 142.163 72.7407C142.136 72.9915 142.159 73.2451 142.23 73.4871C142.301 73.7291 142.419 73.9547 142.578 74.1511C142.736 74.3475 142.931 74.5107 143.153 74.6315C143.374 74.7523 143.617 74.8283 143.868 74.8551L158.357 76.4311L158.971 72.3853Z" fill="#455A64"/>
<path d="M106.795 68.0938H126.906V81.3945H106.795V68.0938Z" fill="#455A64"/>
<path d="M106.798 81.3916C106.798 81.3916 106.798 81.3055 106.798 81.1475C106.798 80.9895 106.798 80.7454 106.798 80.4295C106.798 79.8049 106.798 78.9038 106.816 77.7514C106.816 75.4359 106.841 72.1224 106.855 68.0837L106.784 68.1555L126.887 68.1771C126.909 68.1771 126.711 67.9976 126.794 68.0837V69.8392C126.794 70.4244 126.794 71.0059 126.794 71.5803V74.98C126.794 77.2057 126.794 79.3453 126.794 81.3773L126.877 81.2911L112.409 81.3342L108.263 81.3593H107.157H106.769C106.799 81.3631 106.829 81.3631 106.859 81.3593H107.136H108.212L112.341 81.3808L126.862 81.4239H126.948V81.3378C126.948 79.3059 126.948 77.1663 126.948 74.9405V68.0981C127.035 68.1807 126.837 67.9832 126.855 68.0012L106.751 68.0227H106.676V68.0981C106.676 72.1583 106.705 75.4862 106.715 77.8124C106.715 78.9576 106.715 79.8551 106.733 80.4726C106.733 80.7705 106.733 81.0003 106.733 81.1654C106.733 81.3306 106.798 81.3916 106.798 81.3916Z" fill="#263238"/>
<path d="M150.1 75.5442C150.421 75.6429 150.752 75.7067 151.087 75.7344C151.701 75.8242 152.555 75.9211 153.496 76.0144L155.905 76.237C156.237 76.2862 156.574 76.3054 156.91 76.2945C156.587 76.1977 156.255 76.1339 155.919 76.1042C155.305 76.018 154.454 75.9211 153.514 75.8278L151.101 75.6016C150.769 75.557 150.435 75.5378 150.1 75.5442Z" fill="#263238"/>
<path d="M154.146 77.3105C154.128 77.3105 154.031 77.3967 153.966 77.6085C153.885 77.8914 153.914 78.1946 154.047 78.4571C154.18 78.7196 154.408 78.9218 154.684 79.0229C154.896 79.0947 155.043 79.0768 155.043 79.0553C155.043 79.0337 154.921 78.9978 154.745 78.9009C154.521 78.7828 154.339 78.5977 154.224 78.3712C154.109 78.1447 154.068 77.8882 154.106 77.6372C154.121 77.4541 154.171 77.3321 154.146 77.3105Z" fill="#263238"/>
<path d="M142.651 74.2302C142.672 74.2302 142.565 74.0831 142.46 73.8389C142.325 73.5224 142.255 73.1816 142.256 72.8373C142.256 72.4961 142.36 72.163 142.554 71.8824C142.708 71.6634 142.819 71.5234 142.798 71.5234C142.776 71.5234 142.64 71.6024 142.439 71.8142C142.19 72.0992 142.054 72.466 142.058 72.8445C142.053 73.2213 142.147 73.5929 142.331 73.9215C142.486 74.1477 142.636 74.2482 142.651 74.2302Z" fill="#263238"/>
<path d="M172.322 72.3737L161.721 71.3937C160.855 71.3133 159.99 71.5626 159.3 72.0917C158.61 72.6207 158.145 73.3907 157.998 74.2477C157.918 74.709 157.933 75.1818 158.041 75.6373C158.15 76.0927 158.35 76.5213 158.629 76.8971C158.909 77.2728 159.262 77.5878 159.666 77.8229C160.071 78.0581 160.52 78.2084 160.985 78.2648L171.553 79.5428C172.022 79.6016 172.497 79.5674 172.953 79.4422C173.408 79.317 173.834 79.1032 174.206 78.8131C174.579 78.5229 174.89 78.1622 175.123 77.7515C175.356 77.3408 175.506 76.8882 175.563 76.4196C175.627 75.9394 175.592 75.4513 175.462 74.9848C175.332 74.5183 175.109 74.0829 174.806 73.7049C174.503 73.3269 174.127 73.0141 173.7 72.7853C173.273 72.5566 172.804 72.4166 172.322 72.3737Z" fill="#263238"/>
<path d="M170.473 78.9498C170.243 78.6827 170.033 78.3996 169.844 78.1026C169.453 77.3602 169.292 76.5173 169.385 75.6829C169.508 74.8509 169.92 74.0885 170.548 73.529C170.814 73.3047 171.113 73.1231 171.435 72.9905C171.338 72.9879 171.241 73.005 171.151 73.0407C170.9 73.1253 170.666 73.2555 170.462 73.4249C170.158 73.6739 169.898 73.971 169.69 74.3044C169.43 74.7121 169.262 75.1715 169.198 75.6506C169.098 76.5242 169.286 77.4065 169.733 78.1636C169.869 78.3879 170.036 78.5922 170.229 78.7703C170.299 78.8438 170.382 78.9046 170.473 78.9498Z" fill="#455A64"/>
<path d="M138.892 85.1366C138.763 85.1125 138.632 85.1017 138.501 85.1043L137.424 85.0792L133.673 85.0469H133.626L133.597 85.0864L132.366 86.9675L131.35 88.5327L131.26 88.6727H131.432L135.453 88.6404L136.623 88.6117C136.765 88.6167 136.908 88.6059 137.047 88.5794C136.907 88.5579 136.765 88.5483 136.623 88.5506L135.453 88.5219L131.432 88.4896L131.508 88.6296L132.509 87.0716C132.937 86.4075 133.349 85.772 133.734 85.1833L133.658 85.2228L137.417 85.2084L138.494 85.1833C138.628 85.1777 138.761 85.1621 138.892 85.1366Z" fill="#263238"/>
<path d="M122.045 85.6807C123.008 85.7731 123.975 85.8043 124.942 85.774C125.91 85.8043 126.879 85.7731 127.843 85.6807C126.879 85.5883 125.91 85.5572 124.942 85.5874C123.975 85.5571 123.008 85.5883 122.045 85.6807Z" fill="#263238"/>
<path d="M121.775 104.824C121.792 104.743 121.799 104.662 121.797 104.58C121.797 104.4 121.815 104.167 121.826 103.88C121.851 103.269 121.887 102.39 121.959 101.306C122.03 100.221 122.134 98.929 122.289 97.5002C122.365 96.7823 122.453 96.0344 122.551 95.2565C122.662 94.4847 122.734 93.6734 122.928 92.8764C123.118 92.0985 123.426 91.3541 123.84 90.6686C124.238 90.0419 124.781 89.5199 125.423 89.1465C126.52 88.5101 127.699 88.027 128.927 87.7105C129.971 87.4233 130.836 87.2546 131.44 87.1469L132.129 87.032C132.21 87.0202 132.29 87.0034 132.369 86.9817C132.288 86.9722 132.206 86.9722 132.125 86.9817C131.964 86.9817 131.73 87.0248 131.429 87.0643C130.575 87.186 129.729 87.355 128.894 87.5705C127.646 87.8799 126.447 88.3633 125.333 89.0065C124.667 89.3925 124.103 89.933 123.689 90.5824C123.26 91.2802 122.944 92.0409 122.752 92.8369C122.654 93.239 122.579 93.6466 122.529 94.0575C122.476 94.4596 122.425 94.8545 122.375 95.2422C122.274 96.0212 122.192 96.7715 122.12 97.4895C121.977 98.9255 121.887 100.218 121.833 101.306C121.779 102.393 121.758 103.276 121.758 103.883C121.758 104.188 121.758 104.425 121.758 104.601C121.757 104.676 121.763 104.75 121.775 104.824Z" fill="#263238"/>
<path d="M119.227 103.67C119.232 103.592 119.232 103.514 119.227 103.437C119.227 103.261 119.227 103.038 119.252 102.762C119.27 102.152 119.298 101.308 119.327 100.278C119.397 97.5509 119.609 94.8296 119.962 92.1249C120.08 91.3652 120.323 90.6301 120.68 89.9494C120.994 89.3064 121.421 88.7251 121.941 88.2334C122.426 87.8008 122.97 87.4383 123.556 87.1565C124.067 86.9069 124.596 86.6969 125.139 86.5282C125.928 86.2831 126.733 86.0912 127.548 85.9538L128.212 85.8389C128.29 85.8314 128.367 85.8157 128.442 85.7923C128.364 85.7828 128.286 85.7828 128.209 85.7923C128.054 85.7923 127.824 85.8318 127.534 85.8713C126.711 85.9809 125.899 86.155 125.103 86.3918C124.55 86.5533 124.011 86.7585 123.491 87.0057C122.888 87.2839 122.327 87.6465 121.826 88.0827C121.287 88.5845 120.844 89.1807 120.519 89.8417C120.144 90.5387 119.888 91.2934 119.761 92.0747C119.417 94.798 119.238 97.5398 119.227 100.285C119.205 101.333 119.205 102.184 119.209 102.769C119.209 103.049 119.209 103.272 119.209 103.444C119.205 103.52 119.211 103.596 119.227 103.67Z" fill="#263238"/>
<path d="M133.744 91.9857C133.744 91.9857 133.787 91.9857 133.859 91.9533C133.871 91.9445 133.88 91.9323 133.886 91.9182C133.891 91.9042 133.892 91.8889 133.888 91.8744C133.876 91.8464 133.856 91.8226 133.83 91.8062C133.777 91.7676 133.718 91.7384 133.655 91.72C133.26 91.6144 132.846 91.5985 132.445 91.6733C132.167 91.7205 131.895 91.7963 131.633 91.8995C131.483 91.9538 131.341 92.0274 131.21 92.1185C131.075 92.2153 130.945 92.3196 130.822 92.4308C130.32 92.8796 129.81 93.4109 129.282 93.9745C129.024 94.2545 128.776 94.5309 128.535 94.8002C128.004 95.9597 127.545 96.9793 127.221 97.708L126.862 98.5732C126.809 98.6749 126.77 98.7837 126.748 98.8963C126.817 98.8058 126.875 98.7069 126.92 98.6019L127.315 97.7726C127.674 97.0546 128.148 96.0459 128.69 94.9007V94.9222L129.436 94.1037C129.961 93.5401 130.463 93.0052 130.951 92.5565C131.073 92.4488 131.195 92.3411 131.31 92.2513C131.432 92.1672 131.564 92.0974 131.702 92.0431C131.95 91.9362 132.208 91.8567 132.473 91.8062C132.858 91.7273 133.255 91.7273 133.64 91.8062C133.766 91.8349 133.892 91.8995 133.841 91.9426C133.791 91.9857 133.741 91.9785 133.744 91.9857Z" fill="#EB996E"/>
<path d="M128.603 109.261C128.603 109.315 129.142 109.221 129.774 109.347C130.406 109.473 130.851 109.742 130.894 109.706C130.606 109.411 130.226 109.223 129.817 109.175C129.415 109.061 128.986 109.092 128.603 109.261Z" fill="#EB996E"/>
<path d="M128.758 100.811C128.854 101.226 128.974 101.636 129.117 102.038C129.357 102.792 129.666 103.833 129.932 105.014C130.197 106.195 130.37 107.269 130.477 108.051C130.517 108.478 130.581 108.903 130.668 109.322C130.683 109.203 130.683 109.082 130.668 108.963C130.668 108.741 130.639 108.421 130.603 108.026C130.5 106.995 130.335 105.971 130.108 104.961C129.879 103.951 129.587 102.958 129.235 101.984C129.095 101.625 128.977 101.313 128.876 101.109C128.848 101.005 128.808 100.905 128.758 100.811Z" fill="#EB996E"/>
<path d="M63.4964 150.491C60.8686 149.199 59.9388 146.108 60.3013 143.294C60.6603 140.386 63.6149 137.937 66.2606 136.681C68.9064 135.424 71.8573 134.987 74.7688 134.674C76.4166 134.495 78.1218 134.358 79.687 134.9C81.2522 135.442 82.6415 136.835 82.6487 138.49" fill="#FFD000"/>
<g opacity="0.3">
<path d="M63.4964 150.491C60.8686 149.199 59.9388 146.108 60.3013 143.294C60.6603 140.386 63.6149 137.937 66.2606 136.681C68.9064 135.424 71.8573 134.987 74.7688 134.674C76.4166 134.495 78.1218 134.358 79.687 134.9C81.2522 135.442 82.6415 136.835 82.6487 138.49" fill="black"/>
</g>
<path d="M77.6812 119.758L82.206 138.871C100.678 124.971 114.54 115.711 120.615 107L127 118C123.579 128.696 109.357 139.982 92.3304 156.527C90.2234 158.671 87.618 160.263 84.7453 161.163C81.8727 162.062 78.8218 162.24 75.8634 161.682C68.171 160.229 63.3641 153.526 62.2499 145.805L60 130.163L77.6812 119.758Z" fill="#FFBE9D"/>
<path d="M62.3546 105.232L67 103.5C67 103.5 76.5062 103.639 77.5831 119.395L79.1268 123.48L82.1316 138.669C81.5572 135.707 66.8816 124.956 60.3084 143.293L58.0001 117.187C58.5924 111.745 56.5 108.5 62.3546 105.232Z" fill="#FFD000"/>
<path d="M78.9476 117.664C78.9213 117.73 78.9044 117.798 78.8973 117.869C78.8758 118.005 78.8327 118.206 78.8112 118.468C78.7249 119.206 78.7033 119.949 78.7465 120.69C78.8255 122.571 79.3784 125.131 80.3225 127.834C80.8143 129.181 81.3564 130.43 81.7764 131.593C82.1652 132.614 82.462 133.668 82.6632 134.741C82.7928 135.465 82.8338 136.201 82.7852 136.935C82.7349 137.452 82.6775 137.739 82.6991 137.743C82.7214 137.676 82.7394 137.607 82.7529 137.538C82.7985 137.341 82.8332 137.142 82.857 136.942C82.9357 136.202 82.914 135.454 82.7924 134.72C82.608 133.633 82.3219 132.566 81.938 131.532C81.5251 130.362 80.9867 129.109 80.502 127.773C79.5615 125.084 78.9942 122.546 78.883 120.683C78.8258 119.948 78.8258 119.21 78.883 118.475C78.9224 117.955 78.9619 117.668 78.9476 117.664Z" fill="#263238"/>
<path d="M65.6469 103.847C65.8612 103.833 66.0745 103.806 66.2859 103.768C66.8607 103.693 67.4405 103.664 68.0199 103.682C70.2303 103.754 72.363 104.515 74.1192 105.859C75.8754 107.203 77.1671 109.063 77.8132 111.178C77.8652 111.385 77.93 111.589 78.0071 111.788C78.0071 111.733 77.9999 111.677 77.9855 111.623C77.964 111.516 77.9389 111.358 77.885 111.157C77.738 110.589 77.5385 110.036 77.2891 109.505C76.4746 107.731 75.1692 106.228 73.5272 105.172C71.8853 104.117 69.9754 103.554 68.0235 103.549C67.4362 103.542 66.8495 103.592 66.2716 103.697C66.1154 103.721 65.9608 103.755 65.8085 103.797C65.7522 103.805 65.6975 103.822 65.6469 103.847Z" fill="#263238"/>
<path d="M60.3226 145.016C60.3421 144.914 60.3517 144.809 60.3513 144.704C60.3513 144.596 60.3513 144.471 60.3765 144.327C60.3797 144.155 60.3953 143.984 60.4231 143.814C60.547 142.725 60.8225 141.66 61.2416 140.648C61.8575 139.145 62.7556 137.774 63.8874 136.609C64.5574 135.931 65.3002 135.329 66.1024 134.814C66.9718 134.271 67.9083 133.844 68.8882 133.543C69.8733 133.253 70.8946 133.103 71.9217 133.098C72.8778 133.082 73.8323 133.181 74.7649 133.392C75.6103 133.581 76.4342 133.855 77.224 134.211C77.9072 134.53 78.5587 134.914 79.1698 135.356C80.058 135.996 80.8343 136.778 81.4673 137.671C81.5752 137.805 81.6713 137.948 81.7545 138.099C81.8299 138.224 81.8945 138.332 81.952 138.422C82.0012 138.514 82.0589 138.602 82.1243 138.684C82.0842 138.587 82.0374 138.494 81.9843 138.404C81.9304 138.31 81.873 138.199 81.8012 138.07C81.7232 137.914 81.6331 137.764 81.5319 137.621C80.9138 136.703 80.1413 135.899 79.2487 135.245C78.637 134.788 77.9816 134.392 77.2922 134.064C76.4947 133.696 75.6609 133.413 74.8044 133.22C73.8636 132.998 72.899 132.893 71.9325 132.908C70.8896 132.91 69.8525 133.061 68.8523 133.356C67.8552 133.662 66.9028 134.098 66.0198 134.652C65.2057 135.181 64.4532 135.799 63.7761 136.494C62.6379 137.68 61.7405 139.076 61.1339 140.604C60.722 141.631 60.4631 142.712 60.3657 143.814C60.3437 143.985 60.3329 144.158 60.3334 144.331C60.3334 144.478 60.3334 144.604 60.3334 144.711C60.3223 144.813 60.3187 144.915 60.3226 145.016Z" fill="#263238"/>
<g opacity="0.3">
<path d="M84.2461 136.903C83.5496 131.877 82.207 128.115 79.292 123.943C80.3115 128.822 81.4459 133.173 82.6486 138.231" fill="black"/>
</g>
<path d="M75.9675 143.088C75.9962 143.131 77.3747 142.162 79.0404 140.934C80.0654 140.215 81.0527 139.443 81.9985 138.622C81.9698 138.583 80.5949 139.548 78.9291 140.776C77.2634 142.004 75.9351 143.049 75.9675 143.088Z" fill="#EB996E"/>
</svg>
