<svg width="200" height="200" viewBox="0 0 200 200" fill="none" xmlns="http://www.w3.org/2000/svg">
<g clip-path="url(#clip0_705_27345)">
<path fill-rule="evenodd" clip-rule="evenodd" d="M96.6489 40.0786C72.5164 41.5624 60.8087 65.3973 46.0572 82.1754C34.101 95.7741 23.0389 109.409 20.7142 126.445C18.0291 146.122 16.4425 168.605 32.3369 182.721C48.2827 196.882 74.0361 195.809 96.6489 193.883C119.863 194.322 138.62 187.342 149.552 172.737C165.068 160.174 178.921 144.922 179.935 126.445C180.989 107.244 169.055 90.1752 154.888 75.4837C139.04 59.05 121.162 38.5713 96.6489 40.0786Z" fill="#FFF3CC"/>
<path d="M107.94 44.8647L107.07 44.8164C102.876 44.5763 98.7456 45.9237 95.4999 48.5907C92.2541 51.2577 90.1313 55.0488 89.5536 59.2099C88.4427 67.2599 89.7307 68.6774 89.5536 73.0002C89.1431 81.968 97.816 88.5002 97.816 88.5002L95.2933 94.952C95.1675 96.3825 95.3256 97.8237 95.7585 99.1929C96.1915 100.562 96.8907 101.832 97.816 102.93C98.7413 104.029 99.8745 104.933 101.151 105.592C102.426 106.251 103.82 106.651 105.251 106.769C108.103 106.998 110.93 106.096 113.123 104.259C115.316 102.422 116.698 99.796 116.972 96.9484L120.192 63.6937C121.496 54.4362 117.23 45.9515 107.94 44.8647Z" fill="#FFBF9D"/>
<path d="M98 88.5007C102.149 88.7417 106.371 87.6491 110 85.6777C110 85.6777 105.881 91.7827 97 90.5007L98 88.5007Z" fill="#FF9A6C"/>
<path d="M104.004 68.3284C103.975 68.7349 104.102 69.1368 104.357 69.447C104.613 69.7572 104.976 69.9508 105.368 69.9858C105.559 70.0133 105.753 70.0008 105.939 69.9492C106.125 69.8975 106.299 69.8078 106.451 69.6852C106.603 69.5627 106.729 69.4099 106.823 69.2358C106.917 69.0617 106.976 68.8698 106.997 68.6716C107.021 68.2663 106.892 67.8672 106.638 67.5581C106.384 67.249 106.023 67.054 105.633 67.0142C105.442 66.9867 105.248 66.9992 105.062 67.0509C104.876 67.1025 104.702 67.1922 104.55 67.3148C104.398 67.4373 104.272 67.5901 104.178 67.7642C104.084 67.9383 104.025 68.1302 104.004 68.3284Z" fill="#263238"/>
<path d="M91.212 63.701C91.3649 63.8781 92.3712 63.21 93.7477 63.2985C95.1243 63.3871 96.0984 64.1035 96.2513 63.9667C96.4043 63.8298 96.1869 63.5883 95.7683 63.2422C95.1958 62.793 94.4986 62.5316 93.7719 62.4935C93.0568 62.4539 92.3472 62.6397 91.7433 63.0248C91.3166 63.3227 91.1556 63.6125 91.212 63.701Z" fill="#263238"/>
<path d="M92.0028 68.3284C91.9789 68.7337 92.1076 69.1328 92.3621 69.4419C92.6165 69.751 92.9767 69.946 93.3671 69.9858C93.5579 70.0133 93.752 70.0008 93.938 69.9491C94.1241 69.8975 94.2982 69.8078 94.4501 69.6852C94.6021 69.5627 94.7287 69.4099 94.8226 69.2358C94.9165 69.0617 94.9756 68.8698 94.9966 68.6716C95.023 68.2657 94.8951 67.8652 94.6402 67.5556C94.3854 67.2459 94.0237 67.0516 93.6323 67.0142C93.4416 66.9867 93.2474 66.9992 93.0614 67.0509C92.8754 67.1025 92.7012 67.1922 92.5493 67.3148C92.3974 67.4373 92.2707 67.5901 92.1769 67.7642C92.083 67.9383 92.0238 68.1302 92.0028 68.3284Z" fill="#263238"/>
<path d="M104.744 64.7316C104.889 64.9087 105.903 64.2486 107.28 64.3291C108.656 64.4096 109.622 65.1341 109.783 64.9973C109.944 64.8604 109.719 64.6189 109.292 64.2728C108.724 63.8278 108.033 63.5691 107.312 63.5322C106.596 63.4864 105.885 63.6727 105.283 64.0635C104.833 64.3613 104.672 64.6511 104.744 64.7316Z" fill="#263238"/>
<path d="M99.1652 74.6567C98.4536 74.3823 97.7095 74.201 96.9514 74.1173C96.5972 74.061 96.2752 73.9724 96.2269 73.7309C96.2149 73.3658 96.3162 73.0059 96.5167 72.7005C96.9031 71.8955 97.3217 71.002 97.7162 70.0843C99.3745 66.3571 100.598 63.29 100.453 63.2256C100.308 63.1612 98.8432 66.1237 97.1688 69.8508C96.7663 70.7685 96.3638 71.646 96.0176 72.4832C95.7753 72.8956 95.6816 73.3786 95.752 73.8517C95.7956 73.9799 95.8685 74.0961 95.9649 74.1911C96.0613 74.2862 96.1786 74.3574 96.3074 74.3991C96.497 74.4654 96.6947 74.506 96.8951 74.5198C97.6438 74.6547 98.4057 74.7006 99.1652 74.6567Z" fill="#263238"/>
<path d="M104.641 60.4005C104.761 60.7788 106.146 60.6822 107.748 60.972C109.35 61.2618 110.63 61.777 110.863 61.447C110.968 61.294 110.759 60.9318 110.26 60.5373C109.582 60.0516 108.803 59.7266 107.982 59.5871C107.16 59.4476 106.318 59.4973 105.518 59.7323C104.914 59.9416 104.592 60.2153 104.641 60.4005Z" fill="#263238"/>
<path d="M91.9137 60.827C92.1311 61.149 93.0971 60.8833 94.2402 60.9316C95.3833 60.9799 96.3332 61.2617 96.5747 60.9316C96.6793 60.7787 96.5747 60.4567 96.148 60.1266C95.6025 59.7358 94.9513 59.5197 94.2804 59.5068C93.608 59.4784 92.9436 59.6614 92.3806 60.03C91.962 60.352 91.8091 60.666 91.9137 60.827Z" fill="#263238"/>
<path d="M90.6564 55.1525C90.6564 55.1525 93.337 49.6784 96.1223 48.5192C99.4872 47.1266 100.687 50.8054 103.858 50.1292C107.03 49.453 110.242 48.1006 113.293 50.6927C116.626 53.5344 114.903 55.2974 114.903 59.2821C114.855 75.4385 117.535 80.1639 118.807 72.629C118.944 71.824 121.295 71.2686 121.834 67.799C122.543 63.2749 123.034 57.7526 122.204 54.4602C121.504 51.6909 120.063 49.7187 117.374 47.4808C113.164 43.9549 107.135 43.5363 103.005 43.7134C98.8754 43.8905 90.6805 48.1006 90.6564 55.1525Z" fill="#263238"/>
<path d="M118.22 72.3236C118.247 71.9929 118.342 71.6713 118.499 71.3788C118.655 71.0864 118.871 70.8295 119.131 70.624C119.392 70.4185 119.692 70.269 120.013 70.1847C120.334 70.1004 120.669 70.0831 120.997 70.134C122.655 70.3916 124.458 71.4462 124.153 74.8916C123.605 81.0016 117.584 79.1903 117.584 79.0132C117.584 78.8361 117.97 74.8835 118.22 72.3236Z" fill="#FFBF9D"/>
<path d="M119.105 76.8303C119.105 76.8303 119.202 76.9188 119.379 77.0154C119.626 77.1475 119.914 77.1793 120.184 77.104C120.844 76.9269 121.48 75.9448 121.609 74.85C121.673 74.3266 121.617 73.7955 121.448 73.2963C121.408 73.1011 121.321 72.9186 121.195 72.7643C121.068 72.6101 120.907 72.4888 120.723 72.4108C120.604 72.3686 120.474 72.3688 120.356 72.4113C120.237 72.4538 120.136 72.5361 120.071 72.6443C119.967 72.8053 119.999 72.934 119.967 72.9421C119.934 72.9501 119.846 72.8294 119.918 72.5798C119.964 72.4305 120.061 72.3022 120.192 72.2176C120.372 72.1045 120.589 72.0669 120.796 72.1129C121.041 72.1861 121.264 72.3205 121.443 72.5036C121.621 72.6868 121.751 72.9125 121.818 73.1595C122.031 73.7126 122.106 74.3096 122.035 74.8983C121.882 76.1299 121.15 77.2247 120.248 77.4018C120.08 77.4353 119.907 77.4302 119.741 77.387C119.575 77.3438 119.421 77.2635 119.29 77.1523C119.105 76.9832 119.081 76.8464 119.105 76.8303Z" fill="#FF9A6C"/>
<path d="M89.3524 48.5191C90.2943 47.8107 91.5903 47.7141 92.5241 46.9977C96.6835 43.8042 103.387 37.7091 109.111 40.8959C111.289 42.1085 114.038 42.2125 115.982 43.6006C116.547 44.0475 117.013 44.608 117.348 45.2458C117.684 45.8835 117.882 46.5845 117.93 47.3036C117.93 47.3036 118.566 46.9816 120.498 48.5111C121.73 49.4851 122.736 51.5862 123.187 53.0835C123.855 55.3294 122.881 57.6962 121.923 59.8294C121.408 60.9806 120.764 62.2444 119.564 62.655C118.107 63.146 116.497 62.0029 115.926 60.57C115.354 59.1371 114.452 57.6962 113.76 56.3196C112.553 53.9046 111.345 51.6989 112.335 50.1694C109.07 49.1089 106.906 51.0056 104.003 52.0289C102.783 52.4594 97.8575 53.276 96.4995 52.9513C96.0607 52.8464 95.6512 52.6439 95.3014 52.359C94.7484 53.2599 93.8762 53.9194 92.8587 54.2059C91.8411 54.4923 90.753 54.3848 89.8112 53.9046C87.9919 52.7776 87.6699 49.791 89.3524 48.5191Z" fill="#263238"/>
<path d="M122.535 58.3875C122.252 58.8294 122.015 59.2987 121.826 59.7882C121.606 60.2826 121.258 60.7102 120.82 61.0279C120.234 61.3278 119.559 61.405 118.92 61.2452C118.256 61.1164 117.629 60.8414 117.085 60.4402C116.646 60.0994 116.246 59.7106 115.893 59.281C115.585 58.8596 115.243 58.4638 114.871 58.0977C115.067 58.5852 115.339 59.0388 115.676 59.442C116.013 59.9161 116.414 60.3413 116.867 60.7059C117.449 61.1447 118.124 61.4424 118.84 61.5753C119.565 61.7551 120.332 61.6484 120.981 61.2774C121.466 60.9224 121.835 60.4324 122.044 59.8687C122.268 59.397 122.433 58.8995 122.535 58.3875Z" fill="#FFD000"/>
<path d="M122.301 63.1146C121.933 63.394 121.526 63.619 121.094 63.7828C120.623 63.9318 120.126 63.9757 119.636 63.9116C119.036 63.8203 118.462 63.6007 117.954 63.2676C117.031 62.6266 116.248 61.805 115.652 60.8526C115.424 60.4394 115.154 60.0509 114.847 59.6934C114.988 60.1539 115.197 60.5907 115.467 60.9894C116.014 62.0378 116.806 62.9383 117.777 63.6137C118.33 63.9795 118.962 64.2085 119.62 64.2819C120.167 64.342 120.72 64.2674 121.23 64.0645C122.051 63.6701 122.341 63.1227 122.301 63.1146Z" fill="#FFD000"/>
<path d="M103.297 79.6289C103.503 79.9662 103.618 80.3164 103.638 80.6697C103.663 80.8368 103.617 81.0047 103.503 81.1618C103.389 81.319 103.211 81.4618 102.98 81.5804C102.74 81.7262 102.441 81.8432 102.104 81.9233C101.766 82.0034 101.398 82.0446 101.027 82.0439C100.356 82.0432 99.7074 81.92 99.1981 81.6964C98.6888 81.4729 98.3518 81.1636 98.2479 80.8242L98.0098 80.0558C99.3991 79.8525 103.194 79.6818 103.297 79.6289Z" fill="#FF9A6C"/>
<path d="M99.0522 81.1252C99.0522 81.1252 99.2472 81.1252 99.5693 81.1411C100.021 81.163 100.482 81.163 100.934 81.1411C101.587 81.1089 102.177 81.0007 102.587 80.8381C103.075 80.6348 103.307 80.3822 103.239 80.1285C103.22 79.9858 103.101 79.8462 102.892 79.7193L103.095 79.7485C101.646 79.8176 100.374 79.8734 99.476 79.9053C98.9928 79.9336 98.5011 79.9452 98.0098 79.9399C98.4676 79.884 98.9459 79.8465 99.4336 79.8282C100.332 79.7751 101.586 79.7033 103.036 79.6289H103.171L103.231 79.6661C103.556 79.8636 103.694 80.086 103.629 80.3073C103.565 80.5286 103.3 80.7395 102.866 80.9152C102.39 81.0951 101.709 81.2096 100.968 81.2341C100.486 81.2474 100.001 81.233 99.5354 81.1916C99.361 81.1806 99.1962 81.1579 99.0522 81.1252Z" fill="#263238"/>
<path d="M139.512 106.576C140.043 106.576 147.626 109.603 149.623 117.041C151.619 124.479 157.069 151.769 157.069 151.769L162.857 159.787C162.857 159.787 160.981 174.414 150.347 171.628C150.347 171.628 143.247 172.868 140.985 165.671C138.723 158.475 134.336 137.005 134.336 137.005L139.512 106.576Z" fill="#B9B8B6"/>
<path d="M117.853 94L121.88 100.196L140 106.752L134.814 160.234V185.5C115.5 197.5 77.2791 196.215 74.5409 195C73.1154 194.959 71.3195 191.408 71.0859 189.425C70.8846 187.645 71.038 185.841 71.5369 184.123L74.5409 173.403C74.0979 180.074 76.063 133.607 76.1516 131.911L71.5 108.5C73.0906 106.405 82.0743 103.291 92.3795 99.5154L95.6009 94.5081L104.879 101.687L117.853 94Z" fill="#B9B8B6"/>
<path d="M153.535 153.709L163.493 145.449L169.208 151.889L168.508 155.037L156.063 166.758C154.218 165.7 152.826 164.001 152.15 161.984C150.911 158.434 153.535 153.709 153.535 153.709Z" fill="#FFBF9D"/>
<path d="M163.606 149.747C163.178 148.399 163.101 146.964 163.382 145.578C163.664 144.192 164.295 142.9 165.216 141.826C167.481 139.475 170.13 137.526 173.048 136.062C174.803 135.008 178.281 131.337 179.062 132.037C179.525 132.455 179.82 133.026 179.893 133.646C179.965 134.265 179.81 134.889 179.456 135.402C178.651 136.94 174.771 138.727 174.908 140.699C174.922 140.89 174.974 141.076 175.06 141.247C175.146 141.418 175.265 141.57 175.41 141.695C175.555 141.82 175.724 141.915 175.905 141.975C176.087 142.034 176.279 142.058 176.47 142.044C179.682 141.896 182.884 141.587 186.065 141.118C188.875 140.538 191.475 140.78 191.443 141.77C191.411 142.76 190.936 143.38 188.617 143.839C186.299 144.298 182.467 144.644 182.338 145.167C182.209 145.69 183.022 145.972 184.383 145.722C185.743 145.473 192.183 144.708 192.707 145.392C192.836 145.564 192.926 145.763 192.97 145.974C193.013 146.185 193.01 146.403 192.959 146.613C192.908 146.822 192.811 147.018 192.676 147.185C192.54 147.353 192.369 147.488 192.175 147.582L190.726 148.298C190.726 148.298 191.749 149.417 191.097 150.182C190.445 150.947 188.754 150.907 188.754 150.907L180.173 151.663C180.173 151.663 179.746 152.235 180.036 152.557C180.326 152.879 186.951 151.607 187.088 152.34C187.225 153.072 187.852 153.338 185.904 154.062C183.03 154.895 180.038 155.246 177.049 155.101C175.182 154.819 167.566 155.366 167.566 155.366L163.606 149.747Z" fill="#FFBF9D"/>
<path d="M92.4597 101.006C92.9982 101.678 93.5964 102.301 94.2468 102.865C95.3819 103.976 96.9355 105.53 98.5777 107.301C98.9239 107.679 99.27 108.05 99.592 108.412L99.8094 108.645L100.011 108.396C101.283 106.786 102.385 105.305 103.158 104.25C103.612 103.714 103.999 103.125 104.309 102.495C103.775 102.952 103.294 103.468 102.876 104.033C102.031 105.031 100.872 106.448 99.584 108.058H99.9945L98.9883 106.939C97.5736 105.41 96.0796 103.956 94.5125 102.584C93.8949 101.976 93.2056 101.446 92.4597 101.006Z" fill="#263238"/>
<path d="M138.377 120.502C138.229 120.857 138.129 121.231 138.079 121.613C137.926 122.337 137.733 123.392 137.524 124.696C137.105 127.304 136.662 130.927 136.292 134.936C135.922 138.945 135.648 142.583 135.439 145.216C135.358 146.439 135.278 147.478 135.221 148.331C135.171 148.713 135.171 149.1 135.221 149.482C135.336 149.115 135.412 148.738 135.447 148.355C135.559 147.622 135.696 146.56 135.841 145.248C136.147 142.631 136.485 139.001 136.856 134.992C137.226 130.983 137.588 127.369 137.902 124.793C138.055 123.577 138.184 122.539 138.288 121.693C138.372 121.302 138.401 120.901 138.377 120.502Z" fill="#263238"/>
<path d="M80.3936 138.676C80.2787 139.132 80.2112 139.599 80.1924 140.068C80.1038 140.978 80.0072 142.282 79.9267 143.908C79.7416 147.128 79.653 151.636 79.6369 156.579V173.09C79.6111 173.56 79.6299 174.032 79.6933 174.498C79.7976 174.039 79.8489 173.569 79.8462 173.098C79.9106 172.188 79.975 170.876 80.0233 169.258C80.136 166.038 80.1763 161.53 80.1843 156.587C80.1924 151.644 80.2326 147.161 80.3131 143.924C80.3534 142.387 80.3856 141.099 80.4097 140.085C80.4479 139.615 80.4425 139.144 80.3936 138.676Z" fill="#263238"/>
<path d="M146.548 165.123C146.8 164.209 146.985 163.279 147.103 162.338C147.48 160.092 148.208 157.918 149.261 155.898C150.334 153.917 151.948 152.282 153.914 151.181C154.759 150.777 155.633 150.438 156.53 150.166C156.265 150.109 155.99 150.109 155.725 150.166C155.027 150.283 154.35 150.497 153.712 150.802C151.597 151.857 149.864 153.546 148.753 155.632C147.688 157.706 147.012 159.957 146.757 162.274C146.568 163.211 146.497 164.168 146.548 165.123Z" fill="#263238"/>
<path d="M143.964 154.248C144.076 154.377 145.678 152.727 148.286 151.833C150.895 150.94 153.116 151.246 153.165 151.077C153.213 150.908 150.854 150.36 148.109 151.318C145.364 152.276 143.843 154.184 143.964 154.248Z" fill="#263238"/>
<path d="M103.11 191.656C103.159 191.358 103.18 191.057 103.174 190.755C103.174 190.119 103.174 189.258 103.231 188.179C103.279 185.885 103.343 182.657 103.424 178.688C103.609 170.638 103.867 159.585 104.156 147.381C104.446 135.177 104.599 124.076 104.583 116.059C104.583 112.034 104.543 108.814 104.495 106.56C104.495 105.481 104.438 104.62 104.414 103.984C104.421 103.682 104.399 103.38 104.35 103.082C104.327 103.382 104.327 103.684 104.35 103.984C104.35 104.62 104.35 105.481 104.35 106.56C104.35 108.854 104.301 112.09 104.269 116.051C104.189 124.101 103.955 135.137 103.681 147.365C103.408 159.593 103.166 170.662 103.102 178.68C103.102 182.705 103.102 185.925 103.102 188.179C103.102 189.258 103.102 190.119 103.142 190.755C103.111 191.054 103.1 191.356 103.11 191.656Z" fill="#263238"/>
<path d="M154.002 153.37C154.002 153.305 153.197 153.909 152.553 155.246C152.158 156.007 151.871 156.82 151.7 157.661C151.534 158.728 151.534 159.814 151.7 160.881C151.82 161.949 152.137 162.986 152.634 163.94C153.064 164.713 153.657 165.383 154.372 165.904C155.001 166.426 155.793 166.71 156.61 166.709C155.903 166.416 155.233 166.041 154.614 165.59C153.979 165.069 153.456 164.426 153.076 163.698C152.646 162.788 152.373 161.81 152.271 160.808C152.127 159.804 152.127 158.785 152.271 157.781C152.41 156.952 152.645 156.141 152.972 155.366C153.471 154.086 154.083 153.418 154.002 153.37Z" fill="#263238"/>
<path d="M178.861 148.879C178.861 149.024 181.541 149.169 184.85 149.008C188.158 148.847 190.815 148.46 190.799 148.307C190.783 148.155 188.118 148.307 184.826 148.46C181.533 148.613 178.861 148.718 178.861 148.879Z" fill="#FF9A6C"/>
<path d="M172.767 148.42C172.767 148.477 173.403 148.372 174.159 147.736C174.65 147.31 175.039 146.781 175.301 146.187C175.563 145.592 175.69 144.948 175.673 144.299C175.615 143.612 175.491 142.933 175.303 142.27C175.162 141.745 175.094 141.203 175.101 140.66C175.148 140.175 175.259 139.699 175.431 139.243C175.431 139.187 174.844 139.613 174.715 140.628C174.65 141.198 174.683 141.775 174.811 142.334C174.963 142.973 175.068 143.621 175.125 144.274C175.143 145.442 174.7 146.569 173.894 147.414C173.274 148.138 172.727 148.34 172.767 148.42Z" fill="#FF9A6C"/>
<path d="M104.961 101.971C105.283 103.043 105.689 104.087 106.177 105.095C106.394 105.578 106.62 106.101 106.853 106.64C107.084 107.255 107.353 107.854 107.658 108.435C107.774 108.626 107.943 108.78 108.145 108.877C108.346 108.974 108.571 109.011 108.793 108.983C109.183 108.88 109.546 108.693 109.856 108.435L111.756 107.139C114.348 105.352 116.674 103.702 118.349 102.494C119.285 101.882 120.168 101.193 120.989 100.434C119.992 100.936 119.036 101.518 118.131 102.172C116.401 103.307 114.034 104.893 111.442 106.688L109.55 107.993C109.303 108.206 109.016 108.368 108.705 108.468C108.578 108.483 108.449 108.459 108.336 108.401C108.222 108.342 108.129 108.25 108.069 108.137C107.457 107.027 106.95 105.827 106.459 104.917C106.042 103.895 105.542 102.91 104.961 101.971Z" fill="#263238"/>
<path d="M71.6437 107C71.6437 107 66.8343 110.478 66.1501 113.28C65.4658 116.081 43.1437 150.5 43.1437 150.5C42.1048 152.855 41.6918 153.667 41.1709 154.456C40.0142 156.81 39.7029 159.49 40.2892 162.047C40.8756 164.603 42.3239 166.88 44.3909 168.495C44.6483 168.69 44.9171 168.87 45.1959 169.034C49.2209 171.449 56.3854 171.32 60.5795 166.378C64.5481 161.693 76.1643 144.852 76.1643 144.852V124.244L71.6437 107Z" fill="#B9B8B6"/>
<path opacity="0.2" d="M72.802 126.858L81.4646 115.23C84.6023 117.31 111.643 98.9054 83.4443 135.689C82.1823 144.112 80.2852 147.355 76.118 152.161L72.802 126.858Z" fill="#263238"/>
<path d="M51.4305 147.337C51.4305 147.442 52.3402 147.337 53.6765 147.788C55.4033 148.385 56.9323 149.446 58.0959 150.855C59.2458 152.295 60.1937 153.885 60.9134 155.581C61.1847 156.307 61.5215 157.008 61.9197 157.674C61.8123 156.901 61.5955 156.147 61.2757 155.436C60.6431 153.646 59.7093 151.977 58.5145 150.501C57.2929 149.009 55.6394 147.932 53.7811 147.418C53.0213 147.167 52.2057 147.139 51.4305 147.337Z" fill="#263238"/>
<path d="M76.3936 136.676C76.2787 137.132 76.2112 137.599 76.1924 138.068C76.1038 138.978 76.0072 140.282 75.9267 141.908C75.7416 145.128 75.653 149.636 75.6369 154.579V171.09C75.6111 171.56 75.6299 172.032 75.6933 172.498C75.7976 172.039 75.8489 171.569 75.8462 171.098C75.9106 170.188 75.975 168.876 76.0233 167.258C76.136 164.038 76.1763 159.53 76.1843 154.587C76.1924 149.644 76.2326 145.161 76.3131 141.924C76.3534 140.387 76.3856 139.099 76.4097 138.085C76.4479 137.615 76.4425 137.144 76.3936 136.676Z" fill="#263238"/>
<path d="M43.7606 153C43.7606 153 43.5447 153.14 43.3104 153.533C42.966 154.06 42.6911 154.63 42.4924 155.228C41.7873 157.237 41.8409 159.434 42.6433 161.406C43.4457 163.378 44.9415 164.989 46.8489 165.935C47.4137 166.225 48.0131 166.441 48.6325 166.58C49.0625 166.665 49.3102 166.677 49.3172 166.643C49.3243 166.61 48.3691 166.367 47.0312 165.596C45.275 164.614 43.9054 163.064 43.148 161.2C42.3905 159.336 42.2904 157.27 42.864 155.341C43.2755 153.863 43.8427 153.052 43.7606 153Z" fill="#263238"/>
<path d="M45.9324 168.112C47.2104 168.829 48.6611 169.302 50.1936 169.503C51.7262 169.704 53.3075 169.628 54.8385 169.28C56.3696 168.932 57.8173 168.319 59.091 167.48C60.3646 166.641 61.4368 165.594 62.2403 164.404L83.8936 132.156C77.1065 135.191 73.9641 134.416 70.4984 125.023L41.4428 153.838C40.7945 155.978 42.0951 156.247 41.6424 157.563C41.1897 158.879 41.0556 160.247 41.2488 161.58C41.4419 162.913 41.958 164.182 42.7643 165.307C43.5706 166.431 44.6495 167.387 45.9324 168.112Z" fill="#B9B8B6"/>
<path d="M67.2045 128.528C66.8073 128.78 66.4373 129.072 66.1002 129.4C65.4101 130 64.4427 130.88 63.2655 132.004C60.9157 134.213 57.7497 137.424 54.3373 141L42.9774 152.981C42.635 153.304 42.3242 153.66 42.049 154.042C42.4409 153.78 42.8015 153.475 43.1237 153.131C43.7963 152.515 44.7459 151.607 45.8942 150.466C48.1915 148.207 51.3224 144.963 54.729 141.382C58.1356 137.801 61.2498 134.575 63.5348 132.282C64.6219 131.194 65.5315 130.281 66.2469 129.562C66.5973 129.248 66.9179 128.902 67.2045 128.528Z" fill="#263238"/>
<path d="M99.6393 91.534C99.458 93.6137 98.6639 95.5928 97.3576 97.221C96.0513 98.8493 94.2914 100.054 92.3006 100.682C90.3098 101.309 88.1775 101.333 86.1733 100.749C84.1692 100.165 82.3833 98.9995 81.0415 97.4003C79.6998 95.8011 78.8624 93.84 78.6354 91.7648C78.4084 89.6897 78.8019 87.5939 79.7661 85.7424C80.7304 83.891 82.2221 82.3671 84.0525 81.3635C85.883 80.3599 87.9699 79.9217 90.0494 80.1044C92.8365 80.3492 95.4122 81.6907 97.2105 83.834C99.0088 85.9772 99.8824 88.7469 99.6393 91.534Z" fill="#455A64"/>
<path d="M94.2644 92.4045L81.8063 98.2107C83.6244 99.9691 86.0139 101.016 88.5391 101.159C91.0644 101.303 93.5572 100.534 95.563 98.9937C97.5689 97.4529 98.9543 95.2426 99.4666 92.7657C99.9788 90.2888 99.5839 87.7103 98.3538 85.5003C99.0576 88.2667 98.2714 90.5373 94.2644 92.4045Z" fill="#37474F"/>
<path d="M86.424 97.686L79.4828 92.8138C80.9876 101.46 81.1375 114.254 79.7401 123.507L82.5197 125.451C84.7204 120.008 86.1057 108.625 86.424 97.686Z" fill="#37474F"/>
<path d="M95.3306 98.3984L91.9043 102.032L90.7907 113.531C90.5532 116.062 89.6636 118.489 88.2086 120.574C86.7537 122.66 84.783 124.332 82.489 125.429C84.8276 118.923 85.9969 107.613 86.3998 97.6644L95.3306 98.3984Z" fill="#455A64"/>
<path d="M84.4436 110.65L84.6475 110.792C84.832 110.908 85.0415 110.978 85.2586 110.997C85.4757 111.016 85.6942 110.983 85.8959 110.9L87.6567 110.083C88.0188 109.911 88.3103 110.1 88.276 110.497L88.2546 110.744C88.2214 110.962 88.1365 111.168 88.0071 111.346C87.8778 111.524 87.7076 111.668 87.5109 111.767L85.7218 112.608C85.5213 112.691 85.3038 112.724 85.0878 112.705C84.8717 112.686 84.6633 112.616 84.4799 112.5L84.2885 112.366C84.1188 112.228 83.9833 112.053 83.8925 111.854C83.8018 111.656 83.7582 111.438 83.7653 111.22L83.7879 110.96C83.8423 110.559 84.1164 110.419 84.4436 110.65Z" fill="#FFD000"/>
<path d="M83.8504 114.398L84.0543 114.54C84.2399 114.654 84.4492 114.722 84.6658 114.741C84.8823 114.76 85.1003 114.728 85.3026 114.649L87.0641 113.825C87.4256 113.66 87.7171 113.849 87.6828 114.245L87.6614 114.493C87.6271 114.71 87.5419 114.916 87.4126 115.094C87.2833 115.271 87.1137 115.416 86.9177 115.516L85.1291 116.35C84.9286 116.432 84.7112 116.466 84.4951 116.447C84.279 116.428 84.0706 116.358 83.8872 116.242L83.6964 116.101C83.5259 115.964 83.3898 115.789 83.299 115.59C83.2082 115.391 83.1651 115.174 83.1733 114.955L83.1946 114.708C83.2296 114.305 83.5297 114.168 83.8504 114.398Z" fill="#FFD000"/>
<path d="M83.2595 118.121L83.4634 118.263C83.6479 118.379 83.8574 118.449 84.0745 118.468C84.2916 118.487 84.5101 118.453 84.7118 118.371L86.4727 117.554C86.8347 117.382 87.1262 117.571 87.0919 117.968L87.0705 118.215C87.0362 118.433 86.9509 118.64 86.8216 118.819C86.6922 118.998 86.5226 119.143 86.3263 119.244L84.5377 120.079C84.3372 120.161 84.1198 120.195 83.9037 120.176C83.6876 120.157 83.4792 120.087 83.2958 119.971L83.1044 119.837C82.9284 119.702 82.7864 119.528 82.6899 119.328C82.5934 119.129 82.545 118.91 82.5488 118.688L82.5707 118.434C82.6353 118.067 82.9307 117.909 83.2595 118.121Z" fill="#FFD000"/>
<path d="M75.988 83.0926C77.4687 82.4085 79.3575 82.6114 81.3687 83.8206C81.5808 83.9437 81.7911 84.0864 81.9879 84.2345C82.2451 84.4094 82.4934 84.597 82.7319 84.7968C83.1409 85.1325 83.5298 85.4921 83.8964 85.8737C84.613 86.5935 85.2644 87.3755 85.8427 88.2105C87.4198 90.5428 88.5071 93.1708 89.0388 95.9356C89.2979 97.2353 89.3746 98.5649 89.2667 99.8858C89.0353 102.558 87.9558 104.358 86.3852 105.172L91.9419 102.581C92.9794 102.031 93.8588 101.225 94.4958 100.239C95.1329 99.2523 95.5063 98.1192 95.5806 96.9475C95.6785 95.6916 95.6117 94.4283 95.3819 93.1898C94.865 90.3601 93.7587 87.6708 92.1349 85.2965C91.5659 84.4588 90.9236 83.6732 90.2157 82.9489C89.8491 82.5674 89.4602 82.2078 89.0512 81.872C88.8063 81.6739 88.5544 81.4818 88.3073 81.3097C88.0601 81.1377 87.8735 81.0232 87.6875 80.9023C86.7859 80.3745 85.7749 80.0613 84.7328 79.987C83.6907 79.9127 82.6455 80.0792 81.6782 80.4737L81.5218 80.5388L81.3232 80.6395L75.988 83.0926Z" fill="#FFD000"/>
<path opacity="0.1" d="M91.9686 102.576C93.0062 102.027 93.8855 101.22 94.5225 100.234C95.1596 99.2478 95.5331 98.1147 95.6074 96.943C95.7052 95.6871 95.6384 94.4238 95.4087 93.1853L89.0709 95.9447C89.33 97.2444 89.4067 98.5739 89.2988 99.8949C89.0674 102.567 87.9879 104.367 86.4173 105.181L91.9686 102.576Z" fill="black"/>
<path d="M72.9697 88.4445C72.4951 93.9257 75.7537 100.929 80.2626 104.084C82.5289 105.675 84.6834 105.987 86.3168 105.204L86.4118 105.167C87.9807 104.372 89.0619 102.553 89.2933 99.8807C89.7685 94.393 86.5164 87.3902 82.0075 84.2353C79.7596 82.6584 77.5867 82.3327 75.9881 83.0918C74.3894 83.8508 73.2144 85.6946 72.9697 88.4445Z" fill="#FFD000"/>
<path opacity="0.2" d="M72.9697 88.4445C72.4951 93.9257 75.7537 100.929 80.2626 104.084C82.5289 105.675 84.6834 105.987 86.3168 105.204L86.4118 105.167C87.9807 104.372 89.0619 102.553 89.2933 99.8807C89.7685 94.393 86.5164 87.3902 82.0075 84.2353C79.7596 82.6584 77.5867 82.3327 75.9881 83.0918C74.3894 83.8508 73.2144 85.6946 72.9697 88.4445Z" fill="black"/>
<path d="M46.736 84.7113C46.736 84.7113 55.0235 89.9228 61.3044 103.405C62.4346 105.821 63.3986 108.312 64.1897 110.86C67.1142 120.285 66.2489 126.571 66.2489 126.571C69.3976 120.469 73.1771 114.193 78.9819 109.645C81.2514 107.876 83.6135 106.228 86.0584 104.71C87.5468 104.013 88.5333 102.304 88.7543 99.8268C88.8736 98.097 88.6939 96.3595 88.223 94.6908C87.922 93.567 87.5237 92.4717 87.0325 91.4171C85.862 88.7591 84.0334 86.4431 81.7195 84.6879C79.6938 83.2678 77.7453 82.9222 76.251 83.6117C73.5158 84.5073 70.735 85.2571 67.9204 85.8579C60.6778 87.3401 53.4301 86.2343 46.736 84.7113Z" fill="#FFD000"/>
<path opacity="0.6" d="M46.736 84.7113C46.736 84.7113 55.0235 89.9228 61.3044 103.405C62.4346 105.821 63.3986 108.312 64.1897 110.86C67.1142 120.285 66.2489 126.571 66.2489 126.571C69.3976 120.469 73.1771 114.193 78.9819 109.645C81.2514 107.876 83.6135 106.228 86.0584 104.71C87.5468 104.013 88.5333 102.304 88.7543 99.8268C88.8736 98.097 88.6939 96.3595 88.223 94.6908C87.922 93.567 87.5237 92.4717 87.0325 91.4171C85.862 88.7591 84.0334 86.4431 81.7195 84.6879C79.6938 83.2678 77.7453 82.9222 76.251 83.6117C73.5158 84.5073 70.735 85.2571 67.9204 85.8579C60.6778 87.3401 53.4301 86.2343 46.736 84.7113Z" fill="white"/>
<path opacity="0.1" d="M64.1632 110.865C67.0877 120.289 66.2224 126.575 66.2224 126.575C69.371 120.474 73.1506 114.198 78.9554 109.65C81.2248 107.88 83.587 106.233 86.0319 104.714C87.5203 104.018 88.5068 102.308 88.7278 99.8314C88.8471 98.1016 88.6674 96.3642 88.1965 94.6954C81.3586 97.4049 70.1871 102.576 64.1632 110.865Z" fill="black"/>
<path d="M29.3128 95.6564C28.8179 101.372 30.0247 107.785 32.4496 113.825C35.5535 121.555 40.6437 128.665 46.6657 132.881C57.3939 140.393 67.0125 135.907 68.1615 122.865C68.4029 119.73 68.2198 116.576 67.6173 113.49C66.0352 105.352 62.4104 97.7507 57.0836 91.3989C56.3539 90.5452 55.5967 89.7329 54.8118 88.9618C54.492 88.6458 54.1586 88.3353 53.8246 88.0312C53.3507 87.6037 52.8756 87.1892 52.3853 86.7995C51.8949 86.4099 51.3608 85.9968 50.8357 85.6303C40.0809 78.122 30.4557 82.6078 29.3128 95.6564Z" fill="#FFD000"/>
<path opacity="0.1" d="M32.4627 113.826C35.5666 121.556 40.6568 128.666 46.6788 132.882C57.4071 140.394 67.0257 135.908 68.1746 122.866C68.4118 119.73 68.2244 116.576 67.6174 113.49C66.7038 115.114 63.7451 117.281 62.6626 115.485C63.1879 118.22 63.3448 121.014 63.1289 123.792C62.8046 127.537 61.697 130.494 59.9458 132.334C59.2201 133.103 58.3234 133.69 57.3284 134.048C56.3335 134.405 55.2682 134.524 54.2189 134.393C51.9822 134.199 49.4464 133.148 46.8956 131.361C41.7756 127.773 37.3064 121.739 34.3448 115.089C34.3182 115.094 33.5842 115.626 32.4627 113.826Z" fill="black"/>
<path d="M30.6454 96.5325C30.1465 102.293 31.5921 108.976 34.3418 115.123C37.3034 121.773 41.7597 127.806 46.8927 131.394C49.4435 133.181 51.9793 134.233 54.216 134.426C55.2652 134.557 56.3305 134.439 57.3255 134.081C58.3205 133.723 59.2172 133.136 59.9428 132.367C61.6917 130.553 62.7951 127.57 63.1259 123.825C63.3418 121.048 63.185 118.254 62.6596 115.518C62.4653 114.433 62.1935 113.335 61.9276 112.245C61.4061 110.309 60.7611 108.408 59.9965 106.555C59.833 106.174 59.676 105.794 59.5059 105.412C59.2326 104.786 58.9599 104.153 58.6328 103.542C57.6101 101.444 56.4291 99.4281 55.1001 97.5102L55.0532 97.4472C54.195 96.2262 53.2709 95.0527 52.2852 93.9321C51.5897 93.1382 50.8707 92.3881 50.1283 91.6818C49.8198 91.3865 49.5232 91.1053 49.194 90.8213C48.8648 90.5374 48.4249 90.1717 48.0324 89.8626C47.6399 89.5535 47.2706 89.2791 46.8818 89.0031C44.3251 87.2095 41.7952 86.165 39.5525 85.9643C34.5965 85.4762 31.2661 89.4393 30.6454 96.5325Z" fill="#FFD000"/>
<path opacity="0.4" d="M30.6454 96.5325C30.1465 102.293 31.5921 108.976 34.3418 115.123C37.3034 121.773 41.7597 127.806 46.8927 131.394C49.4435 133.181 51.9793 134.233 54.216 134.426C55.2652 134.557 56.3305 134.439 57.3255 134.081C58.3205 133.723 59.2172 133.136 59.9428 132.367C61.6917 130.553 62.7951 127.57 63.1259 123.825C63.3418 121.048 63.185 118.254 62.6596 115.518C62.4653 114.433 62.1935 113.335 61.9276 112.245C61.4061 110.309 60.7611 108.408 59.9965 106.555C59.833 106.174 59.676 105.794 59.5059 105.412C59.2326 104.786 58.9599 104.153 58.6328 103.542C57.6101 101.444 56.4291 99.4281 55.1001 97.5102L55.0532 97.4472C54.195 96.2262 53.2709 95.0527 52.2852 93.9321C51.5897 93.1382 50.8707 92.3881 50.1283 91.6818C49.8198 91.3865 49.5232 91.1053 49.194 90.8213C48.8648 90.5374 48.4249 90.1717 48.0324 89.8626C47.6399 89.5535 47.2706 89.2791 46.8818 89.0031C44.3251 87.2095 41.7952 86.165 39.5525 85.9643C34.5965 85.4762 31.2661 89.4393 30.6454 96.5325Z" fill="black"/>
<path d="M45.0086 102.768L50.9026 115.725C53.9691 114.431 57.7059 112.809 62.2023 113.31C62.1157 112.948 62.0225 112.587 61.93 112.218C61.4101 110.283 60.7626 108.384 59.9917 106.535C59.8353 106.148 59.6718 105.767 59.5077 105.392C59.2349 104.759 58.9616 104.133 58.6351 103.515C57.6084 101.42 56.4276 99.4042 55.1024 97.4839C55.0832 97.4658 55.0673 97.4445 55.0555 97.4208C54.8634 97.1422 54.6643 96.8694 54.4712 96.6038C51.8757 100.401 45.0086 102.768 45.0086 102.768Z" fill="#37474F"/>
<path d="M49.9169 115.836C51.4384 115.968 52.4551 114.818 52.6367 112.796L52.6423 112.731C52.6995 110.959 52.3386 109.198 51.5889 107.591C50.8393 105.984 49.7219 104.576 48.3271 103.481L48.2779 103.444C47.672 102.991 46.9587 102.704 46.208 102.61C44.6865 102.478 43.6698 103.628 43.4914 105.689L43.4863 105.748C43.4274 107.521 43.7867 109.282 44.5351 110.89C45.2836 112.498 46.4002 113.908 47.7945 115.004L47.853 115.009C48.4562 115.462 49.1676 115.75 49.9164 115.843L49.9169 115.836Z" fill="#FFD000"/>
<path d="M49.1941 148.929C49.2118 149.032 50.0907 148.776 51.4839 148.995C53.2868 149.292 54.9729 150.08 56.3575 151.272C57.7337 152.497 58.9362 153.904 59.9317 155.455C60.3217 156.125 60.7719 156.759 61.2766 157.348C61.0404 156.604 60.6996 155.898 60.2643 155.251C59.3389 153.593 58.1369 152.105 56.7103 150.852C55.2545 149.588 53.443 148.806 51.5246 148.612C50.7334 148.493 49.9248 148.603 49.1941 148.929Z" fill="#263238"/>
<path d="M42.5895 155.805C42.5895 155.805 42.4004 155.98 42.2357 156.407C41.9852 156.984 41.8103 157.592 41.7153 158.215C41.3591 160.314 41.7827 162.471 42.9063 164.279C44.0299 166.088 45.7759 167.423 47.8156 168.034C48.4212 168.224 49.0485 168.337 49.6824 168.369C50.1206 168.38 50.3667 168.35 50.3681 168.316C50.3694 168.282 49.3869 168.203 47.938 167.668C46.0414 166.997 44.4299 165.7 43.3689 163.991C42.3079 162.281 41.8606 160.262 42.1007 158.264C42.257 156.738 42.6792 155.843 42.5895 155.805Z" fill="#263238"/>
<path d="M69.4999 129.5L71.2588 125.556C71.2588 125.556 76.7271 110.329 78.6385 109.329C80.2122 108.505 84.6708 107.707 87.8164 106.394C88.1049 106.274 91.2085 105.897 91.5 106C92.1759 106.238 92.0801 108.715 91.4999 108.999L82.9999 111L83.298 111.172L90.9999 109.499C91.0855 109.516 92.8932 110.986 90.8235 112.267L84.4505 113.504L84.6938 114.016L89.7031 114.293C91.9404 114.293 91.7329 116.021 90.3211 116.491C89.4814 116.97 86.1136 117.11 86.1136 117.11L86.7256 117.636C88.0095 117.376 91.5625 119.603 87.2433 120.997L83.0989 128.461C82.2171 130.054 78.6745 130.35 76.9275 131.096C76.37 131.84 76.0574 132.256 75.4998 133C72.8486 131.835 71.6172 131.015 69.4999 129.5Z" fill="#FFBE9D"/>
<path d="M81.181 112.619C81.1157 112.764 81.8407 112.814 82.2171 113.378C82.5934 113.942 82.4419 114.677 82.5769 114.669C82.7119 114.66 82.7924 114.452 82.8756 114.114C82.9766 113.673 82.9233 113.279 82.723 112.986C82.5298 112.691 82.1934 112.515 81.7639 112.485C81.4389 112.465 81.2087 112.551 81.181 112.619Z" fill="#FF9A6C"/>
<path d="M79.181 109.619C79.1157 109.764 79.8407 109.814 80.2171 110.378C80.5934 110.942 80.4419 111.677 80.5769 111.669C80.7119 111.66 80.7924 111.452 80.8756 111.114C80.9766 110.673 80.9233 110.279 80.723 109.986C80.5298 109.691 80.1934 109.515 79.7639 109.485C79.4389 109.465 79.2087 109.551 79.181 109.619Z" fill="#FF9A6C"/>
<path d="M83.7586 115.776C83.734 115.851 84.1187 115.928 84.3545 116.265C84.5904 116.603 84.5601 116.999 84.6305 117.004C84.701 117.008 84.7293 116.898 84.7503 116.717C84.7737 116.479 84.7192 116.258 84.5942 116.082C84.4727 115.906 84.284 115.786 84.0561 115.741C83.8838 115.708 83.7685 115.74 83.7586 115.776Z" fill="#FF9A6C"/>
<path d="M85.086 118.291C85.0614 118.367 85.4461 118.444 85.6819 118.781C85.9178 119.118 85.8875 119.515 85.9579 119.519C86.0284 119.524 86.0567 119.414 86.0777 119.233C86.1011 118.995 86.0466 118.773 85.9216 118.598C85.8001 118.422 85.6114 118.302 85.3835 118.256C85.2112 118.223 85.0959 118.255 85.086 118.291Z" fill="#FF9A6C"/>
<path d="M77.0089 127.746C76.9786 127.793 77.5713 128.047 78.5512 127.917C79.1933 127.821 79.8063 127.584 80.3462 127.223C80.8861 126.862 81.3395 126.387 81.674 125.83C81.9944 125.22 82.2547 124.58 82.4513 123.92C82.6143 123.402 82.8482 122.908 83.1463 122.454C83.4457 122.07 83.7953 121.727 84.1857 121.436C84.216 121.389 83.4911 121.433 82.8377 122.219C82.4765 122.665 82.1941 123.17 82.0025 123.711C81.7875 124.33 81.5277 124.934 81.2253 125.516C80.6125 126.51 79.6338 127.223 78.5 127.502C77.588 127.78 77.0182 127.656 77.0089 127.746Z" fill="#FF9A6C"/>
<path d="M77.5755 134.06C77.6019 133.891 75.3082 133.722 72.9489 132.296C70.5897 130.869 69.3982 128.969 69.2375 129.04C69.0769 129.112 70.171 131.272 72.6675 132.762C75.164 134.252 77.6036 134.194 77.5755 134.06Z" fill="#263238"/>
<path d="M66.7167 134.592C66.6533 134.581 67.1063 135.479 68.3087 136.348C68.9893 136.87 69.7389 137.296 70.5363 137.612C71.5577 137.962 72.6269 138.153 73.7063 138.177C74.7793 138.247 75.8558 138.117 76.8818 137.795C77.7184 137.508 78.4824 137.041 79.1208 136.429C79.7449 135.901 80.1644 135.172 80.3063 134.367C79.8941 135.012 79.4066 135.606 78.8541 136.136C78.2303 136.669 77.505 137.071 76.7218 137.317C75.7497 137.581 74.7398 137.678 73.7353 137.602C72.7218 137.568 71.7183 137.389 70.7556 137.071C69.9632 136.789 69.2065 136.415 68.5011 135.957C67.3287 135.241 66.7784 134.521 66.7167 134.592Z" fill="#263238"/>
<path d="M190.772 173.125C189.976 167.127 191.27 159.952 195.623 154.241C189.239 147.788 184.599 139.608 181.989 130.206L181.423 130.383C177.658 135.785 173.868 141.232 171.119 147.052C168.37 152.871 166.725 159.198 167.58 164.659C168.63 171.288 173.179 175.829 177.757 179.808C183.085 184.433 189.041 188.865 196.746 189.136C194.185 184.186 191.538 179.097 190.772 173.125Z" fill="#B7B7B7"/>
<path d="M190.943 160.651L198.736 146.686L177.22 136.277C177.22 136.277 167.214 149.955 165.228 158.494C163.242 167.034 162.978 168.688 162.978 168.688L181.038 191.104C181.038 191.104 187.371 164.675 190.943 160.651Z" fill="#F2F2F2"/>
<path d="M175.06 140.424C175.218 139.351 176.471 138.334 177.642 137.386C178.481 136.705 179.278 136.06 179.595 135.453C179.949 134.94 180.104 134.315 180.032 133.696C179.959 133.077 179.664 132.506 179.201 132.088C178.699 131.638 177.082 132.995 175.525 134.301C174.66 135.027 173.814 135.737 173.188 136.113C170.269 137.576 167.62 139.525 165.355 141.877C157.393 151.167 171.916 152.547 175.06 140.424Z" fill="#FFBF9D"/>
</g>
<defs>
<clipPath id="clip0_705_27345">
<rect width="200" height="200" fill="white"/>
</clipPath>
</defs>
</svg>
