<svg width="200" height="200" viewBox="0 0 200 200" fill="none" xmlns="http://www.w3.org/2000/svg">
<path fill-rule="evenodd" clip-rule="evenodd" d="M97.7001 40.2991C73.6001 41.7991 61.9001 65.5991 47.1001 82.3991C35.1001 95.9991 24.1001 109.599 21.8001 126.699C19.1001 146.399 17.5001 168.899 33.4001 182.999C49.3001 197.199 75.1001 196.099 97.7001 194.199C120.9 194.599 139.7 187.699 150.6 173.099C166.1 160.499 180 145.299 181 126.799C182.1 107.599 170.1 90.4991 156 75.7991C140.1 59.1991 122.2 38.6991 97.7001 40.2991Z" fill="#FFF3CC"/>
<path d="M71.5999 138.901L70.6999 137.101L59.0999 134.301C58 138.101 54 152.201 54 152.201L27.2 168.501L25.2 179.501C25.2 179.501 55.5999 171.301 60.5999 165.601C65.5999 159.901 71.5999 138.901 71.5999 138.901Z" fill="#FFBE9D"/>
<path d="M107.9 44.8989H107C102.8 44.6989 98.7001 45.9989 95.4001 48.6989C92.2001 51.3989 90.0001 55.1989 89.5001 59.2989C88.4001 67.2989 89.7001 68.7989 89.5001 73.0989C89.1001 82.0989 97.8001 88.5989 97.8001 88.5989L95.3001 94.9989C95.2001 96.3989 95.3001 97.8989 95.8001 99.1989C96.2001 100.599 96.9001 101.799 97.9001 102.899C98.9001 103.999 100 104.899 101.2 105.599C102.5 106.299 103.9 106.699 105.3 106.799C108.2 106.999 111 106.099 113.2 104.299C115.4 102.499 116.8 99.7989 117 96.9989L120.2 63.6989C121.5 54.3989 117.2 45.9989 107.9 44.8989Z" fill="#FFBF9D"/>
<path d="M98 88.4992C102.1 88.6992 106.4 87.5992 110 85.6992C110 85.6992 105.9 91.7992 97 90.4992L98 88.4992Z" fill="#FF9A6C"/>
<path d="M104 68.3C104 68.7 104.1 69.1 104.4 69.4C104.7 69.7 105 69.9 105.4 69.9C105.6 69.9 105.8 69.9 106 69.9C106.2 69.8 106.4 69.8 106.5 69.6C106.7 69.5 106.8 69.3 106.9 69.2C107 69 107.1 68.8 107.1 68.6C107.1 68.2 107 67.8 106.7 67.5C106.4 67.2 106.1 67 105.7 67C105.5 67 105.3 67 105.1 67C104.9 67.1 104.7 67.1 104.6 67.3C104.4 67.4 104.3 67.6 104.2 67.7C104.1 67.9 104 68.1 104 68.3Z" fill="#263238"/>
<path d="M91.2002 63.6996C91.4002 63.8996 92.4002 63.1996 93.7002 63.2996C95.1002 63.3996 96.1002 64.0996 96.2002 63.9996C96.4002 63.8996 96.1002 63.5996 95.7002 63.2996C95.1002 62.8996 94.4002 62.5996 93.7002 62.5996C93.0002 62.5996 92.3002 62.6996 91.7002 63.0996C91.3002 63.2996 91.2002 63.5996 91.2002 63.6996Z" fill="#263238"/>
<path d="M92 68.3C92 68.7 92.1 69.1 92.4 69.4C92.7 69.7 93 69.9 93.4 69.9C93.6 69.9 93.8 69.9 94 69.9C94.2 69.8 94.4 69.8 94.5 69.6C94.7 69.5 94.8 69.3 94.9 69.2C95 69 95.1 68.8 95.1 68.6C95.1 68.2 95 67.8 94.7 67.5C94.4 67.2 94.1 67 93.7 67C93.5 67 93.3 67 93.1 67C92.9 67.1 92.7 67.1 92.6 67.3C92.4 67.4 92.3 67.6 92.2 67.7C92.1 67.9 92 68.1 92 68.3Z" fill="#263238"/>
<path d="M104.7 64.6996C104.8 64.8996 105.9 64.1996 107.2 64.2996C108.6 64.3996 109.5 65.0996 109.7 64.9996C109.9 64.8996 109.6 64.5996 109.2 64.2996C108.6 63.8996 107.9 63.5996 107.2 63.5996C106.5 63.5996 105.8 63.6996 105.2 64.0996C104.8 64.3996 104.7 64.6996 104.7 64.6996Z" fill="#263238"/>
<path d="M99.2002 74.6993C98.5002 74.3993 97.7002 74.1993 97.0002 74.1993C96.6002 74.0993 96.3002 74.0993 96.3002 73.7993C96.3002 73.3993 96.4002 73.0993 96.6002 72.7993C97.0002 71.9993 97.4002 71.0993 97.8002 70.1993C99.5002 66.4993 100.7 63.3993 100.5 63.2993C100.4 63.1993 98.9002 66.1993 97.2002 69.8993C96.8002 70.7993 96.4002 71.6993 96.0002 72.4993C95.8002 72.8993 95.7002 73.3993 95.7002 73.8993C95.7002 73.9993 95.8002 74.0993 95.9002 74.1993C96.0002 74.2993 96.1002 74.3993 96.2002 74.3993C96.4002 74.4993 96.6002 74.4993 96.8002 74.4993C97.6002 74.6993 98.4002 74.6993 99.2002 74.6993Z" fill="#263238"/>
<path d="M104.6 60.3993C104.7 60.7993 106.1 60.6993 107.7 60.9993C109.3 61.2993 110.6 61.7993 110.8 61.4993C110.9 61.2993 110.7 60.9993 110.2 60.5993C109.5 60.0993 108.7 59.7993 107.9 59.5993C107.1 59.3993 106.2 59.4993 105.4 59.6993C104.9 59.8993 104.6 60.1993 104.6 60.3993Z" fill="#263238"/>
<path d="M91.9 60.8C92.1 61.1 93.1 60.9 94.2 60.9C95.3 60.9 96.3 61.2 96.5 60.9C96.6 60.7 96.5 60.4 96.1 60.1C95.6 59.7 94.9 59.5 94.2 59.5C93.5 59.5 92.9 59.7 92.3 60C92 60.4 91.8 60.7 91.9 60.8Z" fill="#263238"/>
<path d="M90.7002 55.2002C90.7002 55.2002 93.4002 49.7002 96.2002 48.6002C99.6002 47.2002 100.8 50.9002 103.9 50.2002C107.1 49.5002 110.3 48.2002 113.3 50.8002C116.6 53.6002 114.9 55.4002 114.9 59.4002C114.9 75.6002 117.5 80.3002 118.8 72.7002C118.9 71.9002 121.3 71.3002 121.8 67.9002C122.5 63.4002 123 57.9002 122.2 54.6002C121.5 51.8002 120.1 49.9002 117.4 47.6002C113.2 44.1002 107.2 43.7002 103 43.8002C98.9002 43.9002 90.7002 48.1002 90.7002 55.2002Z" fill="#263238"/>
<path d="M118.2 72.2996C118.2 71.9996 118.3 71.5996 118.5 71.3996C118.7 71.0996 118.9 70.8996 119.1 70.5996C119.4 70.3996 119.7 70.1996 120 70.1996C120.3 70.0996 120.7 70.0996 121 70.0996C122.7 70.3996 124.5 71.3996 124.2 74.8996C123.7 80.9996 117.6 79.1996 117.6 78.9996C117.6 78.7996 118 74.8996 118.2 72.2996Z" fill="#FFBF9D"/>
<path d="M119.1 76.7988C119.1 76.7988 119.2 76.8988 119.4 76.9988C119.6 77.0988 119.9 77.1988 120.2 77.0988C120.9 76.8988 121.5 75.8988 121.6 74.7988C121.7 74.2988 121.6 73.6988 121.4 73.1988C121.4 72.9988 121.3 72.7988 121.1 72.6988C121 72.4988 120.8 72.3988 120.6 72.2988C120.5 72.2988 120.4 72.2988 120.2 72.2988C120.1 72.2988 120 72.3988 119.9 72.4988C119.8 72.6988 119.8 72.7988 119.8 72.7988C119.8 72.7988 119.7 72.6988 119.8 72.3988C119.8 72.2988 119.9 72.0988 120.1 71.9988C120.3 71.8988 120.5 71.7988 120.7 71.8988C120.9 71.9988 121.2 72.0988 121.3 72.2988C121.5 72.4988 121.6 72.6988 121.7 72.9988C121.9 73.5988 122 74.1988 121.9 74.6988C121.7 75.8988 121 76.9988 120.1 77.1988C119.9 77.1988 119.8 77.1988 119.6 77.1988C119.4 77.1988 119.3 77.0988 119.1 76.9988V76.7988Z" fill="#FF9A6C"/>
<path d="M89.4002 48.4998C90.3002 47.7998 91.6001 47.6998 92.6001 46.9998C96.8001 43.7998 103.5 37.6998 109.2 40.8998C111.4 42.0998 114.1 42.1998 116.1 43.5998C116.7 43.9998 117.1 44.5998 117.5 45.1998C117.8 45.7998 118 46.4998 118.1 47.2998C118.1 47.2998 118.7 46.9998 120.7 48.4998C121.9 49.4998 122.9 51.5998 123.4 53.0998C124.1 55.2998 123.1 57.6998 122.1 59.7998C121.6 60.9998 120.9 62.1998 119.7 62.5998C118.2 63.0998 116.6 61.8998 116.1 60.4998C115.5 59.0998 114.6 57.5998 113.9 56.1998C112.7 53.7998 111.5 51.5998 112.5 49.9998C109.2 48.8998 107.1 50.7998 104.2 51.8998C103 52.2998 98.1001 53.0998 96.7001 52.7998C96.3001 52.6998 95.9002 52.4998 95.5002 52.1998C94.9002 53.0998 94.1001 53.7998 93.1001 53.9998C92.1001 54.2998 91.0001 54.1998 90.1001 53.6998C88.0001 52.7998 87.7002 49.7998 89.4002 48.4998Z" fill="#263238"/>
<path d="M122.5 58.4C122.2 58.8 122 59.3 121.8 59.8C121.6 60.3 121.2 60.7 120.8 61C120.2 61.3 119.5 61.4 118.9 61.2C118.2 61.1 117.6 60.8 117.1 60.4C116.7 60.1 116.3 59.7 115.9 59.2C115.6 58.8 115.2 58.4 114.9 58C115.1 58.5 115.4 58.9 115.7 59.3C116 59.8 116.4 60.2 116.9 60.6C117.5 61 118.2 61.3 118.9 61.5C119.6 61.7 120.4 61.6 121 61.2C121.5 60.8 121.9 60.4 122.1 59.8C122.3 59.4 122.4 58.9 122.5 58.4Z" fill="#FFD000"/>
<path d="M122.3 63.0992C121.9 63.3992 121.5 63.5992 121.1 63.7992C120.6 63.8992 120.1 63.9992 119.6 63.8992C119 63.7992 118.4 63.5992 117.9 63.2992C117 62.6992 116.2 61.7992 115.6 60.8992C115.4 60.4992 115.1 60.0992 114.8 59.6992C114.9 60.1992 115.1 60.5992 115.4 60.9992C115.9 61.9992 116.7 62.8992 117.7 63.5992C118.3 63.9992 118.9 64.1992 119.5 64.2992C120 64.3992 120.6 64.2992 121.1 64.0992C122.1 63.6992 122.3 63.0992 122.3 63.0992Z" fill="#FFD000"/>
<path d="M103.3 79.5996C103.5 79.8996 103.6 80.2996 103.6 80.5996C103.6 80.7996 103.6 80.8996 103.5 81.0996C103.4 81.2996 103.2 81.3996 103 81.4996C102.8 81.5996 102.5 81.7996 102.1 81.7996C101.8 81.8996 101.4 81.8996 101 81.8996C100.3 81.8996 99.7 81.7996 99.2 81.5996C98.7 81.3996 98.4 81.0996 98.2 80.6996L98 80.0996C99.4 79.8996 103.2 79.6996 103.3 79.5996Z" fill="#FF9A6C"/>
<path d="M99.1002 81.0996C99.1002 81.0996 99.3002 81.0996 99.6002 81.0996C100.1 81.0996 100.5 81.0996 101 81.0996C101.7 81.0996 102.2 80.9996 102.7 80.7996C103.2 80.5996 103.4 80.2996 103.4 80.0996C103.4 79.9996 103.3 79.7996 103.1 79.6996H103.3C101.9 79.7996 100.6 79.7996 99.7002 79.8996C99.2002 79.8996 98.7002 79.8996 98.2002 79.8996C98.7002 79.7996 99.1002 79.7996 99.6002 79.7996C100.5 79.6996 101.8 79.6996 103.2 79.5996H103.3H103.4C103.7 79.7996 103.9 79.9996 103.8 80.1996C103.7 80.3996 103.5 80.5996 103 80.7996C102.5 80.9996 101.8 81.0996 101.1 81.0996C100.6 81.0996 100.1 81.0996 99.7002 81.0996C99.4002 81.1996 99.2002 81.1996 99.1002 81.0996Z" fill="#263238"/>
<path d="M139.5 106.6C140 106.6 147.6 109.6 149.6 117.1C151.6 124.5 157 151.8 157 151.8L162.8 159.8C162.8 159.8 160.9 174.4 150.3 171.6C150.3 171.6 143.2 172.8 140.9 165.6C138.6 158.4 134.3 136.9 134.3 136.9L139.5 106.6Z" fill="#B9B8B6"/>
<path d="M117.9 94L121.9 100.2L140 106.8L134.8 160.3V185.6C115.5 197.6 77.3002 196.3 74.5002 195.1C73.1002 195.1 71.3002 191.5 71.0002 189.5C70.8002 187.7 71.0002 185.9 71.5002 184.2L74.5002 173.5C74.1002 180.2 76.0002 133.7 76.1002 132L71.4002 108.6C73.0002 106.5 82.0002 103.4 92.3002 99.6L95.5002 94.6L104.8 101.8L117.9 94Z" fill="#B9B8B6"/>
<path d="M72.0001 108C72.0001 108 67.5001 111.7 66.8001 114.5C66.1001 117.3 50.8001 149.7 50.8001 149.7L44.5001 152.5L35.7001 162.4C34.5001 164.8 39.7001 160.9 40.3001 163.5C40.9001 166.1 42.4001 168.4 44.5001 170C44.8001 170.2 49.2001 172.8 49.4001 173C55.4001 173.1 56.7001 172.9 61.0001 167.9C65.1001 163.2 76.9001 146.3 76.9001 146.3V125.6L72.0001 108Z" fill="#B9B8B6"/>
<path d="M48.3 155.8C48.3 155.9 49.2 155.8 50.5 156.2C52.2 156.8 53.8001 157.9 54.9001 159.3C56.0001 160.7 57.0001 162.3 57.7001 164C58.0001 164.7 58.3001 165.4 58.7001 166.1C58.6 165.3 58.4 164.6 58.1 163.9C57.5 162.1 56.5 160.4 55.3 159C54.1 157.5 52.4 156.4 50.6 155.9C49.9 155.6 49.1 155.6 48.3 155.8Z" fill="#263238"/>
<path d="M52.2002 154.1C52.2002 154.2 53.1002 154.1 54.4002 154.5C56.1002 155.1 57.7002 156.2 58.8002 157.6C59.9002 159 60.9002 160.6 61.6002 162.3C61.9002 163 62.2002 163.7 62.6002 164.4C62.5002 163.6 62.3002 162.9 62.0002 162.2C61.4002 160.4 60.4002 158.7 59.2002 157.3C58.0002 155.8 56.3002 154.7 54.5002 154.2C53.8002 153.9 53.0002 153.9 52.2002 154.1Z" fill="#263238"/>
<path d="M153.5 153.7L163.5 145.4L169.2 151.8L168.5 154.9L156.1 166.6C154.3 165.5 152.9 163.8 152.2 161.8C150.9 158.4 153.5 153.7 153.5 153.7Z" fill="#FFBF9D"/>
<path d="M163.6 149.7C163.2 148.4 163.1 146.9 163.4 145.5C163.7 144.1 164.3 142.8 165.2 141.7C167.5 139.3 170.1 137.4 173 135.9C174.8 134.8 178.2 131.2 179 131.9C179.5 132.3 179.8 132.9 179.8 133.5C179.9 134.1 179.7 134.7 179.4 135.3C178.6 136.8 174.7 138.6 174.9 140.6C174.9 140.8 175 141 175.1 141.1C175.2 141.3 175.3 141.4 175.5 141.5C175.6 141.6 175.8 141.7 176 141.8C176.2 141.9 176.4 141.9 176.6 141.9C179.8 141.8 183 141.4 186.2 141C189 140.4 191.6 140.7 191.6 141.7C191.6 142.7 191.1 143.3 188.8 143.8C186.5 144.3 182.6 144.6 182.5 145.1C182.4 145.6 183.2 145.9 184.5 145.7C185.9 145.5 192.3 144.7 192.8 145.4C192.9 145.6 193 145.8 193.1 146C193.1 146.2 193.1 146.4 193.1 146.6C193 146.8 193 147 192.8 147.2C192.7 147.4 192.5 147.5 192.3 147.6L190.9 148.3C190.9 148.3 191.9 149.4 191.3 150.2C190.6 151 189 150.9 189 150.9L180.4 151.7C180.4 151.7 180 152.3 180.3 152.6C180.6 152.9 187.2 151.7 187.4 152.4C187.5 153.1 188.2 153.4 186.2 154.1C183.3 154.9 180.3 155.3 177.3 155.1C175.4 154.8 167.8 155.4 167.8 155.4L163.6 149.7Z" fill="#FFBF9D"/>
<path d="M92.5 101C93 101.7 93.6 102.3 94.3 102.9C95.4 104 97 105.6 98.6 107.3C98.9 107.7 99.3 108 99.6 108.4L99.8 108.6L100 108.4C101.3 106.8 102.4 105.3 103.1 104.3C103.6 103.8 103.9 103.2 104.3 102.5C103.8 103 103.3 103.5 102.9 104C102.1 105 100.9 106.4 99.6 108H100L99 106.9C97.6 105.4 96.1 103.9 94.5 102.5C93.9 102 93.2 101.4 92.5 101Z" fill="#263238"/>
<path d="M138.4 120.5C138.3 120.9 138.2 121.2 138.1 121.6C137.9 122.3 137.8 123.4 137.5 124.7C137.1 127.3 136.6 130.9 136.3 134.9C135.9 138.9 135.7 142.5 135.4 145.2C135.3 146.4 135.2 147.5 135.2 148.3C135.2 148.7 135.2 149.1 135.2 149.5C135.3 149.1 135.4 148.8 135.4 148.4C135.5 147.7 135.6 146.6 135.8 145.3C136.1 142.7 136.4 139.1 136.8 135C137.2 131 137.5 127.4 137.8 124.8C138 123.6 138.1 122.5 138.2 121.7C138.4 121.3 138.4 120.9 138.4 120.5Z" fill="#263238"/>
<path d="M75.4001 118.699C75.3001 119.199 75.2001 119.599 75.2001 120.099C75.1001 120.999 75.0001 122.299 74.9001 123.899C74.7001 127.099 74.6001 131.599 74.6001 136.599V153.099C74.6001 153.599 74.6001 153.999 74.7001 154.499C74.8001 153.999 74.9001 153.599 74.9001 153.099C75.0001 152.199 75.0001 150.899 75.1001 149.299C75.2001 146.099 75.3001 141.599 75.3001 136.599C75.3001 131.699 75.3001 127.199 75.4001 123.899C75.4001 122.399 75.5001 121.099 75.5001 120.099C75.4001 119.599 75.4001 119.099 75.4001 118.699Z" fill="#263238"/>
<path d="M146.5 165.1C146.8 164.2 146.9 163.3 147.1 162.3C147.5 160.1 148.2 157.9 149.3 155.9C150.4 153.9 152 152.3 154 151.2C154.8 150.8 155.7 150.5 156.6 150.2C156.3 150.1 156.1 150.1 155.8 150.2C155.1 150.3 154.4 150.5 153.8 150.8C151.7 151.9 150 153.5 148.8 155.6C147.7 157.7 147.1 159.9 146.8 162.2C146.6 163.2 146.5 164.2 146.5 165.1Z" fill="#263238"/>
<path d="M144 154.199C144.1 154.299 145.7 152.699 148.3 151.799C150.9 150.899 153.1 151.199 153.2 150.999C153.2 150.799 150.9 150.299 148.1 151.199C145.4 152.299 143.8 154.199 144 154.199Z" fill="#263238"/>
<path d="M103.1 191.7C103.1 191.4 103.2 191.1 103.2 190.8C103.2 190.2 103.2 189.3 103.3 188.2C103.3 185.9 103.4 182.7 103.5 178.7C103.7 170.6 103.9 159.6 104.2 147.4C104.5 135.2 104.6 124.1 104.6 116.1C104.6 112.1 104.6 108.9 104.5 106.6C104.5 105.5 104.4 104.7 104.4 104C104.4 103.7 104.4 103.4 104.3 103.1C104.3 103.4 104.3 103.7 104.3 104C104.3 104.6 104.3 105.5 104.3 106.6C104.3 108.9 104.3 112.1 104.2 116.1C104.1 124.1 103.9 135.2 103.6 147.4C103.3 159.6 103.1 170.7 103 178.7C103 182.7 103 185.9 103 188.2C103 189.3 103 190.1 103 190.8C103.1 191.1 103.1 191.4 103.1 191.7Z" fill="#263238"/>
<path d="M154 153.399C154 153.299 153.2 153.899 152.6 155.299C152.2 156.099 151.9 156.899 151.7 157.699C151.5 158.799 151.5 159.899 151.7 160.899C151.8 161.999 152.1 162.999 152.6 163.999C153 164.799 153.6 165.399 154.3 165.999C154.9 166.499 155.7 166.799 156.5 166.799C155.8 166.499 155.1 166.099 154.5 165.699C153.9 165.199 153.3 164.499 153 163.799C152.6 162.899 152.3 161.899 152.2 160.899C152.1 159.899 152.1 158.899 152.2 157.899C152.3 157.099 152.6 156.299 152.9 155.499C153.5 154.099 154.1 153.399 154 153.399Z" fill="#263238"/>
<path d="M38.9001 160.7C38.9001 160.7 42.1001 158.9 42.0001 159.4C41.8001 160 42.4001 158.7 42.7001 159.3C42.6001 161.4 43.6001 163 45.0001 164.6C46.3001 166.3 47.9001 167.9 50.0001 168.3C50.6001 168.4 51.3001 168.4 51.9001 168.4C52.3001 168.4 52.6001 168.3 52.6001 168.3C52.6001 168.3 51.6001 168.3 50.1001 168C48.1001 167.6 46.0001 165.3 44.7001 163.7C43.4001 162.1 43.1001 161.4 43.1001 159.4C43.0001 157.8 39.0001 160.8 38.9001 160.7Z" fill="#263238"/>
<path d="M178.9 148.9C178.9 149 181.6 149.2 184.9 149C188.2 148.8 190.9 148.5 190.8 148.3C190.8 148.1 188.1 148.3 184.8 148.5C181.5 148.6 178.9 148.7 178.9 148.9Z" fill="#FF9A6C"/>
<path d="M172.8 148.4C172.8 148.5 173.4 148.4 174.2 147.7C174.7 147.3 175.1 146.7 175.3 146.2C175.6 145.6 175.7 145 175.7 144.3C175.6 143.6 175.5 142.9 175.3 142.3C175.2 141.8 175.1 141.2 175.1 140.7C175.1 140.2 175.3 139.7 175.4 139.3C175.4 139.2 174.8 139.7 174.7 140.7C174.6 141.3 174.7 141.8 174.8 142.4C175 143 175.1 143.7 175.1 144.3C175.1 145.5 174.7 146.6 173.9 147.4C173.3 148.1 172.7 148.3 172.8 148.4Z" fill="#FF9A6C"/>
<path d="M105 102C105.3 103.1 105.7 104.1 106.2 105.1C106.4 105.6 106.6 106.1 106.9 106.6C107.1 107.2 107.4 107.8 107.7 108.4C107.8 108.6 108 108.7 108.2 108.8C108.4 108.9 108.6 108.9 108.8 108.9C109.2 108.8 109.6 108.6 109.9 108.4L111.8 107.1C114.4 105.3 116.7 103.7 118.4 102.5C119.3 101.9 120.2 101.2 121 100.4C120 100.9 119 101.5 118.1 102.1C116.4 103.2 114 104.8 111.4 106.6L109.5 107.9C109.3 108.1 109 108.3 108.7 108.4C108.6 108.4 108.4 108.4 108.3 108.3C108.2 108.2 108.1 108.1 108 108C107.4 106.9 106.9 105.7 106.4 104.8C106 103.9 105.5 102.9 105 102Z" fill="#263238"/>
<path d="M2.80007 182.6C2.80007 182.6 -0.399932 187.1 7.60007 188.7C15.6001 190.2 111.4 196.5 112.4 196.3C114.5 195.9 145.8 194.5 148.3 190L171.8 165.6C171.8 165.6 151.2 167.8 148.3 168.1C142.7 168.7 83.9001 170.8 83.9001 170.8C83.9001 170.8 79.9001 170.6 79.8001 167.6L2.80007 182.6Z" fill="#455A64"/>
<path d="M3 186.699L72 172.499L106 171.399L124.7 170.799L134.3 170.499L136.7 170.399L137.9 170.299L139.1 170.199C139.1 170.299 139.1 170.099 139.3 170.299H139.2L139.1 170.399L138.9 170.599L138.4 170.999L137.5 171.699L135.6 173.099L109.4 193.399L3 186.699L109.3 193.399H109.2L135.4 173.099L137.3 171.599L138.2 170.899L138.7 170.499L138.9 170.299L139 170.199H139.1C139.1 170.199 139 170.199 139.2 170.199C139.3 170.299 139.3 170.299 139.3 170.299C139.1 170.299 138.9 170.399 138.6 170.399H138L136.8 170.499L134.4 170.599L124.8 170.899L106.1 171.499L72.1 172.599L3 186.699Z" fill="#263238"/>
<path d="M20 185.6L72.7 174.7L126.2 173.2H126.5L126.3 173.4C125.6 173.9 124.9 174.4 124.2 175L106.9 187.9L72.5 186.7C67.3 186.5 62.3 186.4 57.7 186.4L44.9 186.2C37.1 186.1 30.9 186 26.7 185.9C24.6 185.8 22.9 185.8 21.8 185.7L20 185.6L26.6 185.8C30.8 185.9 37.1 186 44.8 186L57.6 186.1C62.2 186.2 67.2 186.2 72.4 186.4L106.8 187.6H106.7L124 174.7L126.1 173.1L126.2 173.3L72.7 174.8L20 185.6Z" fill="white"/>
<path d="M128.6 172.6C128.6 172.6 123.8 176.4 117.8 180.9C111.8 185.5 106.9 189.1 106.9 189.1C106.9 189.1 111.7 185.3 117.7 180.8C123.7 176.2 128.6 172.6 128.6 172.6Z" fill="white"/>
<path d="M107.5 190.5C107.3 190 107.1 189.6 107.1 189.1C107 188.6 106.9 188.1 106.9 187.6C107.1 188.1 107.3 188.5 107.3 189C107.4 189.5 107.5 190 107.5 190.5Z" fill="white"/>
<path d="M120 180.4C120 180.4 119.7 180.3 119.4 180.1C119.1 179.9 118.9 179.7 118.9 179.6C118.9 179.6 119.2 179.7 119.5 179.9C119.8 180.1 120.1 180.4 120 180.4Z" fill="white"/>
<path d="M56.6 178.3C56.7 178.3 56.7 178.3 56.8 178.3L57.3 178.4L59.1 178.8L65.6 180.3L87 185.2L95.5 187.2H95.4C100.4 183.2 104.9 179.9 108.1 177.6C109.7 176.4 111 175.5 111.9 174.9L112.9 174.2L113.2 174L113.3 173.9C113.3 173.9 113.3 173.9 113.2 174L112.9 174.2L111.9 174.9L108.1 177.6C104.9 179.9 100.4 183.2 95.4 187.2H95.3H95.2L86.7 185.2L65.3 180.2L58.8 178.7L57 178.3L56.5 178.2L56.6 178.3Z" fill="white"/>
<path d="M36.7 188L43.2999 189L97.1999 175.3L92.4 173.9L36.7 188Z" fill="#FFD000"/>
<path d="M44.8001 187.399C43.6001 187.299 42.5001 187.099 41.4001 186.799C42.5001 186.899 43.7001 187.099 44.8001 187.399Z" fill="#263238"/>
<path d="M52.8001 185.399C51.6001 185.299 50.5001 185.099 49.4001 184.799C50.6001 184.899 51.7001 185.099 52.8001 185.399Z" fill="#263238"/>
<path d="M60.9001 183.299C60.3001 183.299 59.7001 183.199 59.1001 183.099C58.5001 182.999 57.9001 182.899 57.4001 182.699C58.6001 182.799 59.8001 182.999 60.9001 183.299Z" fill="#263238"/>
<path d="M69.0001 181.299C67.8001 181.199 66.7001 180.999 65.6001 180.699C66.2001 180.699 66.8001 180.799 67.4001 180.899C67.9001 180.999 68.4001 181.099 69.0001 181.299Z" fill="#263238"/>
<path d="M77.1 179.2C75.9 179.1 74.8 178.9 73.7 178.6C74.3 178.6 74.9 178.7 75.5 178.8C76 178.9 76.5 179.1 77.1 179.2Z" fill="#263238"/>
<path d="M85.1001 177.2C84.5001 177.2 83.9001 177.1 83.3001 177C82.7001 176.9 82.1001 176.8 81.6001 176.6C82.9001 176.7 84.0001 176.9 85.1001 177.2Z" fill="#263238"/>
<path d="M47.3001 186.1C47.3001 186.2 46.8001 186.1 46.3001 186C45.8001 185.9 45.4001 185.8 45.4001 185.7C45.4001 185.6 45.9001 185.7 46.4001 185.8C46.9001 185.9 47.3001 186.1 47.3001 186.1Z" fill="#263238"/>
<path d="M55.4 184.1C55.4 184.2 54.9 184.1 54.4 184C53.9 183.9 53.5 183.8 53.5 183.7C53.5 183.6 54 183.7 54.5 183.8C55 183.9 55.4 184 55.4 184.1Z" fill="#263238"/>
<path d="M63.5001 182C63.5001 182.1 63.0001 182 62.5001 181.9C62.0001 181.8 61.6001 181.7 61.6001 181.6C61.6001 181.5 62.1001 181.6 62.6001 181.7C63.1001 181.9 63.6001 182 63.5001 182Z" fill="#263238"/>
<path d="M71.7 180C71.7 180.1 71.2 180 70.7 179.9C70.2 179.8 69.8 179.7 69.8 179.6C69.8 179.5 70.3 179.6 70.8 179.7C71.3 179.8 71.7 180 71.7 180Z" fill="#263238"/>
<path d="M79.8001 178C79.8001 178.1 79.3001 178 78.8001 177.9C78.3001 177.8 77.9001 177.7 77.9001 177.6C77.9001 177.5 78.4001 177.6 78.9001 177.7C79.4001 177.8 79.8001 177.9 79.8001 178Z" fill="#263238"/>
<path d="M87.9 175.9C87.9 176 87.4 175.9 86.9 175.8C86.4 175.7 86 175.6 86 175.5C86 175.4 86.5 175.5 87 175.6C87.5 175.7 87.9 175.9 87.9 175.9Z" fill="#263238"/>
<path d="M44.8001 184.7C44.7001 184.7 44.6001 184.4 44.6001 184.1C44.6001 183.8 44.5001 183.5 44.6001 183.5C44.7001 183.5 44.8001 183.8 44.8001 184.1C44.8001 184.5 44.9001 184.7 44.8001 184.7Z" fill="#263238"/>
<path d="M28.0343 167.795C28.0343 167.795 27.0514 166.198 26.4617 165.856C25.872 165.514 24.1029 164.601 24.1029 164.601L19.7783 163.119C19.1886 162.891 18.5989 163.005 18.0092 163.347C16.8298 164.145 14.7658 165.628 14.5692 166.198C14.3726 166.882 14.3726 167.566 14.5692 168.137C14.5692 168.137 13.2915 169.733 13.0949 171.102C12.8983 172.128 12.9966 173.155 13.4881 173.839C13.2915 174.751 13.1932 175.778 13.0949 176.804C13.0949 177.831 13.5863 178.629 14.2743 178.857C16.5349 179.769 18.992 179.998 20.0732 179.998C21.4492 180.112 30 176.234 30 176.234L28.0343 167.795Z" fill="#FFBE9D"/>
<path d="M13 174.4C13.8 175.9 14.8 177.2 16 178.3C17.2 179.3 18.7 179.9 20.3 179.7C20.9 179.7 21.5 179.4 22 178.8C22.4 178 22.4 177.1 21.8 176.5C21.3 176 20.5 175.8 19.8 176" fill="#FFBE9D"/>
<path d="M19.8 176.001C19.9 176.001 19.9 176.001 20 175.901C20.1 175.901 20.3 175.801 20.4 175.801C21 175.801 21.5 176.001 21.9 176.401C22.2 176.701 22.3 177.201 22.3 177.601C22.3 177.901 22.3 178.101 22.2 178.401C22.1 178.701 21.9 178.901 21.7 179.101C21.3 179.401 20.8 179.601 20.2 179.701C19.7 179.701 19.1 179.701 18.6 179.601C17.6 179.401 16.7 178.901 15.9 178.301C15.3 177.801 14.7 177.101 14.2 176.401C13.9 175.901 13.6 175.401 13.3 174.901C13.2 174.701 13.1 174.501 13 174.301C13.1 174.501 13.2 174.701 13.4 174.801C13.6 175.201 13.9 175.701 14.4 176.201C14.9 176.901 15.5 177.501 16.1 178.001C16.9 178.601 17.8 179.101 18.7 179.301C19.2 179.401 19.7 179.401 20.2 179.401C20.7 179.401 21.1 179.201 21.6 178.901C22 178.601 22.2 178.101 22.2 177.601C22.2 177.201 22.1 176.801 21.8 176.501C21.4 176.101 20.9 175.801 20.4 175.801C20 176.001 19.8 176.001 19.8 176.001Z" fill="#EB996E"/>
<path d="M20.2001 167.801C19.7001 168.701 19.0001 169.401 18.3001 170.001C18.8001 171.201 19.3001 172.401 19.7001 173.701C19.9001 174.201 20.0001 174.701 20.0001 175.201C20.0001 175.701 19.8001 176.301 19.5001 176.701C18.9001 177.201 18.2001 177.301 17.7001 176.901C17.2001 176.501 16.8001 175.901 16.5001 175.301C15.6001 173.501 15.1001 171.801 14.4001 169.901" fill="#FFBE9D"/>
<path d="M15 168C15 168 15 168.1 15.1 168.2C15.2 168.3 15.2 168.5 15.3 168.7L16 170.7C16.3 171.7 16.8 172.6 17.3 173.5C17.6 174 17.9 174.5 18.3 174.9C18.8 175.3 19.4 175.2 19.9 174.9C20.1 174.7 20.3 174.4 20.4 174C20.5 173.7 20.5 173.3 20.4 173C20.3 172.4 20.1 171.8 19.9 171.2L18.8 168.2V168.1H18.9C19.5 167.7 20 167.2 20.4 166.7C20.7 166.3 20.8 166 20.9 166C20.9 166.1 20.9 166.1 20.8 166.2C20.7 166.4 20.6 166.6 20.5 166.7C20.1 167.3 19.6 167.8 19 168.2V168.1L20.1 171.1C20.4 171.7 20.5 172.3 20.7 172.9C20.8 173.3 20.7 173.6 20.7 174C20.6 174.4 20.4 174.8 20.1 175C19.8 175.2 19.5 175.4 19.1 175.3C18.8 175.3 18.5 175.2 18.2 175C17.7 174.6 17.4 174.1 17.1 173.6C16.6 172.7 16.2 171.7 15.9 170.7C15.6 169.8 15.4 169.1 15.2 168.6C15.2 168.5 15.1 168.3 15 168Z" fill="#EB996E"/>
<path d="M23.6 160.9L17.2001 180.6L16.8 183.9L18.6 181L25.3 161.4L23.6 160.9Z" fill="#263238"/>
<path d="M24.9001 167.9C24.7001 167.9 22.9001 166.8 21.9001 167.6C20.9001 168.5 18.4001 172.5 18.4001 172.5C18.4001 172.5 18.4001 174.5 19.5001 174.3C20.6001 174.1 23.1001 172.3 23.1001 172.3L24.8001 172.8" fill="#FFBE9D"/>
<path d="M24.9 172.801C24.7 172.801 24.6 172.801 24.4 172.701L23.1 172.401H23.2001C22.4001 173.001 21.6 173.501 20.8 173.901C20.5 174.001 20.3 174.201 20 174.301C19.9 174.401 19.7 174.401 19.6 174.401C19.4 174.401 19.3001 174.401 19.1 174.401C18.8 174.301 18.6 174.001 18.5 173.601C18.4 173.301 18.3 172.901 18.3 172.501L18.4 172.301C19.1 171.201 19.8 170.201 20.5 169.201C20.8 168.801 21.1 168.301 21.5 167.901C21.7 167.701 21.8 167.501 22 167.401C22.2 167.301 22.4001 167.201 22.6 167.201C23.2 167.201 23.8 167.301 24.3 167.601L24.7001 167.801C24.8001 167.801 24.8 167.801 24.8 167.901C24.6 167.901 24.4001 167.801 24.2001 167.701C23.7001 167.501 23.1 167.401 22.6 167.401C22.4001 167.401 22.2 167.501 22.1 167.601C21.9 167.701 21.8001 167.901 21.6 168.101C21.3001 168.501 21.0001 168.901 20.6 169.401C19.9 170.301 19.2 171.401 18.5 172.501L18.4 172.701V172.601C18.4 172.901 18.5 173.301 18.6 173.601C18.7 173.901 18.8 174.101 19.1 174.301C19.3001 174.401 19.6 174.401 19.9 174.201C20.2 174.101 20.4001 174.001 20.7001 173.901C21.5001 173.501 22.4001 173.001 23.2001 172.401L24.5 172.801C24.6 172.701 24.7 172.801 24.9 172.801Z" fill="#EB996E"/>
<path d="M25.4 158.4C25.1 158.3 24.8 158.5 24.7 158.9L23.8 161.7C23.7 162.1 23.8 162.4 24.1 162.5C24.4 162.6 24.7 162.4 24.8 162L25.7 159.2C25.8 158.8 25.7 158.5 25.4 158.4Z" fill="#263238"/>
<path d="M21.4002 165.401C21.4002 165.401 21.4002 165.401 21.5002 165.501L21.4002 165.401C21.5002 165.101 22.0002 163.701 22.6002 162.001C22.8002 161.501 23.0002 161.101 23.1002 160.601C23.2002 160.201 23.4002 159.801 23.6002 159.501C23.7002 159.401 23.8002 159.201 24.0002 159.201C24.1002 159.201 24.2002 159.201 24.3002 159.201C24.5002 159.301 24.5002 159.401 24.5002 159.401C24.5002 159.401 24.4002 159.301 24.3002 159.301C24.1002 159.301 23.9002 159.401 23.8002 159.601C23.6002 160.001 23.5002 160.301 23.4002 160.701C23.2002 161.101 23.1002 161.601 22.9002 162.101C22.3002 163.801 21.7002 165.101 21.5002 165.501C21.3002 165.401 21.3002 165.401 21.4002 165.401Z" fill="#263238"/>
<path opacity="0.1" fill-rule="evenodd" clip-rule="evenodd" d="M55.3999 166.099L47.5999 162.499L43.8999 157.699L52.7999 159.199L55.3999 166.099Z" fill="black"/>
</svg>
