<svg width="200" height="200" viewBox="0 0 200 200" fill="none" xmlns="http://www.w3.org/2000/svg">
<path fill-rule="evenodd" clip-rule="evenodd" d="M95.319 40.0778C119.449 41.5578 131.159 65.3978 145.909 82.1778C157.869 95.7778 168.929 109.408 171.249 126.448C173.929 146.128 175.519 168.608 159.629 182.728C143.679 196.888 117.929 195.818 95.319 193.888C72.109 194.328 53.349 187.348 42.419 172.738C26.899 160.178 13.049 144.918 12.039 126.448C10.989 107.248 22.919 90.1778 37.089 75.4878C52.939 59.0578 70.819 38.5778 95.329 40.0778H95.319Z" fill="#FFF3CC"/>
<path d="M92.0289 44.8585L92.8989 44.8085C97.0889 44.5685 101.219 45.9185 104.469 48.5785C107.719 51.2385 109.839 55.0385 110.419 59.1985C111.529 67.2485 108.799 69.6685 108.969 73.9885C109.379 82.9585 102.149 88.4885 102.149 88.4885L104.669 94.9385C104.799 96.3685 104.639 97.8085 104.199 99.1785C103.769 100.549 103.069 101.819 102.139 102.919C101.219 104.019 100.079 104.919 98.8089 105.579C97.5289 106.239 96.1389 106.639 94.7089 106.759C91.8589 106.989 89.0289 106.089 86.8389 104.249C84.6489 102.409 83.2589 99.7885 82.9889 96.9385L79.7689 63.6885C78.4689 54.4285 82.7289 45.9485 92.0189 44.8585H92.0289Z" fill="#FFBF9D"/>
<path d="M101.969 88.4977C97.8187 88.7377 93.5988 87.6477 89.9688 85.6777C89.9688 85.6777 94.0887 91.7777 102.969 90.4977L101.969 88.4977Z" fill="#FF9A6C"/>
<path d="M95.959 68.3278C95.989 68.7378 95.859 69.1378 95.609 69.4478C95.349 69.7578 94.989 69.9478 94.599 69.9878C94.409 70.0178 94.219 69.9978 94.029 69.9478C93.839 69.8978 93.669 69.8078 93.519 69.6878C93.369 69.5678 93.239 69.4078 93.149 69.2378C93.059 69.0678 92.9989 68.8678 92.9789 68.6778C92.9589 68.2678 93.079 67.8778 93.339 67.5678C93.589 67.2578 93.949 67.0678 94.339 67.0278C94.529 66.9978 94.719 67.0178 94.909 67.0678C95.099 67.1178 95.269 67.2078 95.419 67.3278C95.569 67.4478 95.699 67.6078 95.789 67.7778C95.879 67.9478 95.939 68.1478 95.959 68.3378V68.3278Z" fill="#263238"/>
<path d="M108.749 63.6974C108.599 63.8774 107.589 63.2074 106.209 63.2974C104.829 63.3874 103.859 64.0974 103.709 63.9674C103.559 63.8274 103.769 63.5874 104.189 63.2474C104.759 62.7974 105.459 62.5374 106.189 62.4974C106.909 62.4574 107.619 62.6474 108.219 63.0274C108.649 63.3274 108.809 63.6174 108.749 63.7074V63.6974Z" fill="#263238"/>
<path d="M107.959 68.3282C107.979 68.7382 107.849 69.1282 107.599 69.4382C107.349 69.7482 106.989 69.9382 106.599 69.9782C106.409 70.0082 106.209 69.9882 106.029 69.9382C105.839 69.8882 105.669 69.7982 105.519 69.6782C105.369 69.5582 105.239 69.3982 105.149 69.2282C105.059 69.0582 104.999 68.8582 104.979 68.6682C104.949 68.2582 105.079 67.8582 105.339 67.5482C105.589 67.2382 105.959 67.0482 106.349 67.0082C106.539 66.9782 106.739 66.9982 106.919 67.0482C107.109 67.0982 107.279 67.1882 107.429 67.3082C107.579 67.4282 107.709 67.5882 107.799 67.7582C107.889 67.9282 107.949 68.1282 107.969 68.3182L107.959 68.3282Z" fill="#263238"/>
<path d="M95.219 64.7272C95.079 64.9072 94.0589 64.2472 92.6789 64.3272C91.2989 64.4072 90.3389 65.1372 90.1789 64.9972C90.0189 64.8572 90.2389 64.6172 90.6689 64.2772C91.2389 63.8272 91.9289 63.5772 92.6489 63.5372C93.3689 63.4872 94.0789 63.6772 94.6789 64.0672C95.1289 64.3672 95.289 64.6572 95.219 64.7372V64.7272Z" fill="#263238"/>
<path d="M100.799 74.658C101.509 74.388 102.259 74.198 103.009 74.118C103.369 74.058 103.689 73.978 103.739 73.728C103.749 73.358 103.649 72.998 103.449 72.698C103.059 71.888 102.639 70.998 102.249 70.078C100.589 66.348 99.369 63.288 99.509 63.218C99.649 63.148 101.119 66.118 102.789 69.848C103.189 70.768 103.599 71.648 103.939 72.478C104.179 72.888 104.279 73.378 104.209 73.848C104.169 73.978 104.089 74.088 103.999 74.188C103.899 74.288 103.789 74.358 103.659 74.398C103.469 74.468 103.269 74.508 103.069 74.518C102.319 74.648 101.559 74.698 100.799 74.658Z" fill="#263238"/>
<path d="M95.319 60.3974C95.199 60.7774 93.809 60.6774 92.209 60.9674C90.609 61.2574 89.329 61.7774 89.089 61.4374C88.989 61.2874 89.189 60.9174 89.689 60.5274C90.369 60.0374 91.149 59.7174 91.969 59.5774C92.789 59.4374 93.629 59.4874 94.429 59.7274C95.029 59.9374 95.359 60.2074 95.309 60.3974H95.319Z" fill="#263238"/>
<path d="M108.049 60.8271C107.829 61.1471 106.869 60.8871 105.719 60.9271C104.579 60.9771 103.629 61.2571 103.389 60.9271C103.289 60.7771 103.389 60.4571 103.819 60.1271C104.369 59.7371 105.019 59.5171 105.689 59.5071C106.359 59.4771 107.029 59.6571 107.589 60.0271C108.009 60.3471 108.159 60.6671 108.059 60.8271H108.049Z" fill="#263238"/>
<path d="M109.309 55.1476C109.309 55.1476 106.629 49.6776 103.839 48.5176C100.479 47.1276 99.2789 50.8076 96.0989 50.1276C92.9189 49.4476 89.7189 48.0976 86.6689 50.6876C83.3389 53.5276 85.0589 55.2876 85.0589 59.2776C85.1089 75.4376 82.4289 80.1576 81.1589 72.6276C81.0189 71.8176 78.6689 71.2676 78.1289 67.7976C77.4189 63.2776 76.9289 57.7476 77.7589 54.4576C78.4589 51.6876 79.8989 49.7176 82.5889 47.4776C86.7989 43.9476 92.8289 43.5376 96.9589 43.7076C101.089 43.8876 109.279 48.0976 109.309 55.1476Z" fill="#263238"/>
<path d="M81.7489 72.3186C81.7189 71.9886 81.6289 71.6686 81.4689 71.3786C81.3089 71.0886 81.0989 70.8286 80.8389 70.6286C80.5789 70.4186 80.2789 70.2786 79.9589 70.1886C79.6389 70.1086 79.2989 70.0886 78.9789 70.1386C77.3189 70.3986 75.5189 71.4486 75.8189 74.8986C76.3689 81.0086 82.3889 79.1986 82.3889 79.0186C82.3889 78.8386 81.9989 74.8886 81.7489 72.3286V72.3186Z" fill="#FFBF9D"/>
<path d="M80.8588 76.8285C80.8588 76.8285 80.7588 76.9185 80.5888 77.0185C80.3388 77.1485 80.0488 77.1785 79.7788 77.1085C79.1188 76.9285 78.4788 75.9485 78.3588 74.8585C78.2988 74.3385 78.3588 73.8085 78.5188 73.3085C78.5588 73.1085 78.6488 72.9285 78.7688 72.7785C78.8988 72.6285 79.0588 72.4985 79.2388 72.4285C79.3588 72.3885 79.4888 72.3885 79.6088 72.4285C79.7288 72.4685 79.8288 72.5485 79.8888 72.6585C79.9888 72.8185 79.9588 72.9485 79.9888 72.9585C80.0188 72.9585 80.1088 72.8485 80.0388 72.5985C79.9888 72.4485 79.8988 72.3185 79.7688 72.2385C79.5888 72.1285 79.3688 72.0885 79.1688 72.1385C78.9188 72.2085 78.6988 72.3485 78.5188 72.5285C78.3388 72.7085 78.2088 72.9385 78.1388 73.1885C77.9288 73.7385 77.8488 74.3385 77.9188 74.9285C78.0688 76.1585 78.8088 77.2585 79.7088 77.4285C79.8788 77.4585 80.0488 77.4585 80.2188 77.4185C80.3888 77.3785 80.5388 77.2985 80.6688 77.1885C80.8588 77.0185 80.8788 76.8785 80.8588 76.8685V76.8285Z" fill="#FF9A6C"/>
<path d="M110.609 48.517C109.669 47.807 108.369 47.707 107.439 46.997C103.279 43.807 96.5788 37.707 90.8488 40.897C88.6688 42.107 85.9187 42.217 83.9787 43.597C83.4087 44.047 82.9487 44.607 82.6087 45.247C82.2687 45.887 82.0787 46.587 82.0287 47.307C82.0287 47.307 81.3887 46.987 79.4587 48.517C78.2287 49.487 77.2187 51.597 76.7687 53.087C76.0987 55.337 77.0787 57.697 78.0287 59.837C78.5487 60.987 79.1887 62.257 80.3887 62.667C81.8487 63.157 83.4587 62.017 84.0287 60.587C84.5987 59.157 85.4987 57.717 86.1987 56.337C87.4087 53.917 88.6187 51.717 87.6187 50.187C90.8887 49.127 93.0487 51.027 95.9487 52.047C97.1687 52.477 102.099 53.297 103.449 52.967C103.889 52.867 104.299 52.657 104.649 52.377C105.199 53.277 106.079 53.937 107.089 54.227C108.109 54.517 109.199 54.407 110.139 53.927C111.959 52.797 112.279 49.817 110.599 48.537L110.609 48.517Z" fill="#263238"/>
<path d="M77.429 58.3877C77.709 58.8277 77.9489 59.2977 78.1389 59.7877C78.3589 60.2777 78.709 60.7077 79.149 61.0277C79.739 61.3277 80.409 61.4077 81.049 61.2477C81.709 61.1177 82.3389 60.8477 82.8889 60.4377C83.3289 60.0977 83.7289 59.7077 84.0789 59.2777C84.3889 58.8577 84.729 58.4577 85.099 58.0977C84.899 58.5877 84.629 59.0377 84.289 59.4377C83.949 59.9077 83.549 60.3377 83.099 60.6977C82.519 61.1377 81.839 61.4377 81.129 61.5677C80.399 61.7477 79.639 61.6377 78.989 61.2677C78.509 60.9177 78.139 60.4177 77.929 59.8577C77.709 59.3877 77.539 58.8877 77.439 58.3777L77.429 58.3877Z" fill="#FFD000"/>
<path d="M77.6589 63.1075C78.0289 63.3875 78.4389 63.6075 78.8689 63.7775C79.3389 63.9275 79.8389 63.9675 80.3289 63.9075C80.9289 63.8175 81.4989 63.5975 82.0089 63.2675C82.9289 62.6275 83.7189 61.8075 84.3089 60.8475C84.5389 60.4375 84.8089 60.0475 85.1189 59.6875C84.9789 60.1475 84.7689 60.5875 84.4989 60.9875C83.9489 62.0375 83.1589 62.9375 82.1889 63.6075C81.6389 63.9775 81.0089 64.1975 80.3489 64.2775C79.7989 64.3375 79.2489 64.2675 78.7389 64.0575C77.9189 63.6675 77.6289 63.1175 77.6689 63.1075H77.6589Z" fill="#FFD000"/>
<path d="M96.6689 79.6272C96.4589 79.9672 96.3489 80.3172 96.3289 80.6672C96.3089 80.8372 96.3489 81.0072 96.4689 81.1572C96.5789 81.3172 96.7589 81.4572 96.9889 81.5772C97.2289 81.7272 97.5289 81.8372 97.8689 81.9172C98.2089 81.9972 98.5789 82.0372 98.9489 82.0372C99.6189 82.0372 100.269 81.9172 100.779 81.6872C101.289 81.4672 101.629 81.1572 101.729 80.8172L101.969 80.0472C100.579 79.8472 96.7889 79.6772 96.6789 79.6172L96.6689 79.6272Z" fill="#FF9A6C"/>
<path d="M100.909 81.1287C100.909 81.1287 100.719 81.1287 100.389 81.1487C99.939 81.1687 99.479 81.1687 99.029 81.1487C98.379 81.1187 97.789 81.0087 97.379 80.8487C96.889 80.6487 96.659 80.3887 96.729 80.1387C96.749 79.9987 96.869 79.8587 97.079 79.7287L96.879 79.7587C98.329 79.8287 99.599 79.8787 100.499 79.9187C100.979 79.9487 101.469 79.9587 101.969 79.9487C101.509 79.8887 101.029 79.8587 100.549 79.8387C99.649 79.7887 98.399 79.7187 96.949 79.6387H96.809L96.749 79.6787C96.429 79.8787 96.289 80.0987 96.349 80.3187C96.409 80.5387 96.679 80.7487 97.109 80.9287C97.589 81.1087 98.269 81.2187 99.009 81.2487C99.489 81.2587 99.979 81.2487 100.439 81.2087C100.609 81.1987 100.779 81.1787 100.919 81.1387L100.909 81.1287Z" fill="#263238"/>
<path d="M60.4489 106.578C59.9189 106.578 52.3389 109.608 50.3389 117.048C48.3389 124.488 42.8889 151.778 42.8889 151.778L37.0989 159.798C37.0989 159.798 38.9789 174.428 49.6089 171.638C49.6089 171.638 56.7089 172.878 58.9689 165.678C61.2289 158.478 65.6189 137.008 65.6189 137.008L60.4389 106.578H60.4489Z" fill="#B9B8B6"/>
<path d="M82.109 93.998L78.079 100.198L59.959 106.758L65.149 160.238L63.229 188.228C79.959 197.498 124.219 195.718 126.959 194.498C128.389 194.458 128.639 191.408 128.869 189.428C129.069 187.648 128.919 185.848 128.419 184.128L125.419 173.408C125.859 180.078 123.899 133.608 123.809 131.918L128.459 108.508C127.339 106.848 117.559 103.508 107.579 99.528L104.359 94.518L95.079 101.698L82.109 94.008V93.998Z" fill="#B9B8B6"/>
<path d="M127.969 107.998C127.969 107.998 131.769 111.648 132.489 114.468C133.209 117.278 148.869 149.688 148.869 149.688L156.649 151.698L158.729 155.818C159.939 158.178 160.269 160.878 159.659 163.438C159.039 166.008 157.519 168.288 155.349 169.918C155.079 170.118 154.799 170.298 154.499 170.458C150.269 172.878 142.739 172.758 138.339 167.788C134.169 163.078 121.959 146.168 121.959 146.168V125.468L127.959 107.988L127.969 107.998Z" fill="#B9B8B6"/>
<path d="M152.919 152.587L163.569 146.297L168.709 152.587L167.649 155.627L153.919 165.847C152.209 164.457 151.069 162.497 150.699 160.327C150.099 156.487 152.929 152.587 152.929 152.587H152.919Z" fill="#FFBF9D"/>
<path d="M149.539 149.338C149.539 149.438 148.629 149.338 147.289 149.788C145.559 150.388 144.029 151.448 142.869 152.858C141.719 154.298 140.769 155.888 140.049 157.588C139.779 158.318 139.439 159.018 139.039 159.678C139.149 158.908 139.359 158.148 139.679 157.438C140.309 155.648 141.249 153.978 142.439 152.508C143.659 151.018 145.319 149.938 147.169 149.428C147.929 149.178 148.749 149.148 149.519 149.348L149.539 149.338Z" fill="#263238"/>
<path d="M163.389 149.787C163.119 148.397 163.219 146.967 163.669 145.617C164.119 144.277 164.899 143.067 165.949 142.117C168.459 140.047 171.309 138.417 174.359 137.287C176.229 136.477 180.119 133.207 180.799 133.997C181.479 134.787 181.789 135.957 180.799 137.397C179.809 138.827 174.179 140.967 174.969 142.777C175.289 143.507 177.059 143.647 177.059 143.647C180.269 143.877 183.499 143.937 186.719 143.837C189.569 143.587 192.129 144.137 191.979 145.117C191.829 146.097 191.299 146.637 188.939 146.837C186.579 147.037 182.739 146.887 182.499 147.427C182.259 147.967 183.099 148.317 184.469 148.237C185.849 148.157 192.329 148.127 192.779 148.877C192.889 149.067 192.949 149.277 192.969 149.487C192.989 149.707 192.959 149.917 192.879 150.127C192.799 150.327 192.679 150.507 192.529 150.667C192.369 150.817 192.189 150.927 191.979 150.997L190.459 151.537C190.459 151.537 191.349 152.767 190.609 153.457C189.869 154.137 188.199 153.897 188.199 153.897L179.589 153.657C179.589 153.657 179.099 154.167 179.339 154.527C179.579 154.877 186.329 154.387 186.379 155.127C186.429 155.867 187.019 156.207 184.999 156.737C182.049 157.227 179.039 157.227 176.099 156.737C174.279 156.237 166.659 155.937 166.659 155.937L163.419 149.807L163.389 149.787Z" fill="#FFBF9D"/>
<path d="M46.429 153.707L36.469 145.447L30.749 151.887L31.449 155.037L43.899 166.757C45.749 165.697 47.139 163.997 47.809 161.987C49.049 158.437 46.429 153.717 46.429 153.717V153.707Z" fill="#FFBF9D"/>
<path d="M36.3588 149.747C36.7888 148.397 36.8688 146.967 36.5788 145.577C36.2988 144.187 35.6689 142.897 34.7489 141.827C32.4789 139.477 29.8388 137.527 26.9188 136.067C25.1688 135.007 21.6889 131.337 20.9089 132.037C20.4489 132.457 20.1488 133.027 20.0788 133.647C20.0088 134.267 20.1588 134.887 20.5188 135.407C21.3288 136.947 25.2089 138.727 25.0689 140.707C25.0589 140.897 24.9988 141.087 24.9188 141.257C24.8288 141.427 24.7089 141.577 24.5689 141.707C24.4189 141.827 24.2588 141.927 24.0788 141.987C23.8988 142.047 23.7088 142.067 23.5188 142.057C20.3088 141.907 17.1088 141.597 13.9188 141.127C11.1088 140.547 8.50886 140.787 8.53886 141.777C8.56886 142.767 9.04885 143.387 11.3688 143.847C13.6888 144.307 17.5188 144.647 17.6488 145.177C17.7788 145.697 16.9688 145.987 15.6088 145.737C14.2488 145.487 7.80886 144.727 7.28886 145.407C7.15886 145.577 7.06885 145.777 7.02885 145.987C6.98885 146.197 6.98886 146.417 7.03886 146.627C7.08886 146.837 7.18886 147.027 7.31886 147.197C7.44886 147.367 7.62886 147.497 7.81886 147.597L9.26884 148.317C9.26884 148.317 8.24885 149.437 8.89885 150.197C9.54885 150.957 11.2388 150.917 11.2388 150.917L19.8189 151.677C19.8189 151.677 20.2488 152.247 19.9588 152.567C19.6688 152.887 13.0489 151.617 12.9089 152.347C12.7689 153.077 12.1488 153.347 14.0888 154.067C16.9588 154.897 19.9588 155.247 22.9488 155.107C24.8188 154.827 32.4288 155.377 32.4288 155.377L36.3888 149.757L36.3588 149.747Z" fill="#FFBF9D"/>
<path d="M107.509 100.998C106.969 101.668 106.369 102.298 105.719 102.858C104.579 103.968 103.029 105.518 101.389 107.298C101.039 107.678 100.699 108.048 100.379 108.408L100.159 108.638L99.9589 108.388C98.6889 106.778 97.5889 105.298 96.8089 104.238C96.3589 103.698 95.9689 103.118 95.6589 102.488C96.1889 102.948 96.6789 103.458 97.0889 104.028C97.9389 105.028 99.0889 106.448 100.379 108.058H99.9689L100.979 106.938C102.389 105.408 103.889 103.958 105.459 102.578C106.079 101.968 106.769 101.438 107.509 100.998Z" fill="#263238"/>
<path d="M61.589 120.499C61.739 120.859 61.839 121.229 61.889 121.609C62.039 122.329 62.239 123.389 62.449 124.689C62.869 127.299 63.309 130.919 63.679 134.929C64.049 138.939 64.319 142.579 64.529 145.209C64.609 146.429 64.689 147.469 64.749 148.319C64.799 148.699 64.799 149.089 64.749 149.469C64.639 149.099 64.559 148.729 64.519 148.339C64.409 147.609 64.269 146.539 64.129 145.229C63.819 142.609 63.489 138.979 63.119 134.969C62.749 130.959 62.389 127.349 62.069 124.769C61.919 123.559 61.789 122.519 61.679 121.669C61.599 121.279 61.569 120.879 61.589 120.479V120.499Z" fill="#263238"/>
<path d="M124.569 118.668C124.679 119.128 124.749 119.588 124.769 120.058C124.859 120.968 124.949 122.268 125.029 123.898C125.219 127.118 125.299 131.628 125.319 136.568V153.078C125.349 153.548 125.319 154.018 125.259 154.488C125.159 154.028 125.099 153.558 125.109 153.088C125.039 152.178 124.979 150.868 124.929 149.248C124.819 146.028 124.779 141.518 124.769 136.578C124.769 131.638 124.719 127.148 124.639 123.918C124.599 122.378 124.569 121.088 124.539 120.078C124.499 119.608 124.509 119.138 124.559 118.668H124.569Z" fill="#263238"/>
<path d="M53.4189 165.118C53.1689 164.208 52.9789 163.278 52.8589 162.328C52.4789 160.078 51.7489 157.908 50.6989 155.888C49.6289 153.908 48.009 152.268 46.049 151.168C45.199 150.768 44.329 150.428 43.429 150.158C43.699 150.098 43.969 150.098 44.239 150.158C44.939 150.278 45.619 150.488 46.249 150.798C48.369 151.858 50.099 153.538 51.209 155.628C52.279 157.698 52.949 159.948 53.209 162.268C53.399 163.208 53.4689 164.168 53.4189 165.118Z" fill="#263238"/>
<path d="M55.9989 154.247C55.8889 154.377 54.2889 152.727 51.6789 151.827C49.0689 150.937 46.8489 151.237 46.7989 151.067C46.7489 150.897 49.1089 150.347 51.8589 151.307C54.6089 152.267 56.1289 154.177 56.0089 154.237L55.9989 154.247Z" fill="#263238"/>
<path d="M96.8589 191.658C96.8089 191.358 96.7889 191.058 96.7989 190.758C96.7989 190.118 96.7989 189.258 96.7389 188.178C96.6889 185.888 96.6289 182.658 96.5489 178.688C96.3589 170.638 96.1089 159.588 95.8189 147.378C95.5289 135.178 95.3789 124.068 95.3889 116.058C95.3889 112.028 95.4289 108.818 95.4789 106.558C95.4789 105.478 95.5389 104.618 95.5589 103.978C95.5589 103.678 95.5689 103.378 95.6189 103.078C95.6389 103.378 95.6389 103.678 95.6189 103.978V106.558C95.6189 108.848 95.6689 112.088 95.6989 116.048C95.7789 124.098 96.0089 135.138 96.2889 147.358C96.5589 159.588 96.8089 170.658 96.8689 178.668V188.168C96.8689 189.248 96.8689 190.108 96.8289 190.748C96.8589 191.048 96.8689 191.348 96.8589 191.648V191.658Z" fill="#263238"/>
<path d="M45.9589 153.369C45.9589 153.299 46.7689 153.909 47.4089 155.249C47.7989 156.009 48.0889 156.819 48.2589 157.659C48.4289 158.729 48.4289 159.809 48.2589 160.879C48.1389 161.949 47.8189 162.989 47.3289 163.939C46.8989 164.709 46.3089 165.379 45.5889 165.899C44.9589 166.419 44.1689 166.709 43.3489 166.709C44.0589 166.419 44.7289 166.039 45.3489 165.589C45.9789 165.069 46.5089 164.429 46.8889 163.699C47.3189 162.789 47.5889 161.809 47.6989 160.809C47.8389 159.809 47.8389 158.789 47.6989 157.779C47.5589 156.949 47.3289 156.139 46.9989 155.369C46.4989 154.089 45.8889 153.419 45.9689 153.369H45.9589Z" fill="#263238"/>
<path d="M155.899 166.968C155.899 166.968 155.639 166.968 155.229 166.768C154.649 166.518 154.109 166.188 153.619 165.798C151.929 164.498 150.779 162.628 150.379 160.538C149.979 158.448 150.349 156.278 151.429 154.448C151.749 153.898 152.129 153.388 152.569 152.938C152.879 152.628 153.089 152.488 153.109 152.508C153.129 152.528 152.469 153.258 151.769 154.628C150.829 156.408 150.529 158.458 150.909 160.428C151.289 162.408 152.339 164.188 153.869 165.498C155.019 166.508 155.939 166.878 155.899 166.968Z" fill="#263238"/>
<path d="M176.369 140.408C176.439 140.468 175.969 140.918 175.379 141.698C175.039 142.148 174.809 142.658 174.699 143.208C174.569 143.828 174.589 144.558 174.479 145.348C174.379 146.028 174.149 146.688 173.799 147.288C173.449 147.888 172.979 148.398 172.429 148.808C172.009 149.188 171.469 149.418 170.899 149.468C170.859 149.378 171.459 149.158 172.189 148.498C173.129 147.668 173.749 146.528 173.939 145.278C173.989 144.548 174.089 143.828 174.209 143.108C174.359 142.508 174.659 141.958 175.079 141.498C175.419 141.038 175.859 140.658 176.379 140.398L176.369 140.408Z" fill="#FF9A6C"/>
<path d="M21.0988 148.878C21.0988 149.028 18.4188 149.168 15.1088 149.008C11.7988 148.848 9.1388 148.458 9.1588 148.308C9.1788 148.158 11.8388 148.308 15.1288 148.458C18.4188 148.608 21.0988 148.718 21.0988 148.878Z" fill="#FF9A6C"/>
<path d="M27.1989 148.418C27.1989 148.478 26.5589 148.368 25.8089 147.738C25.3189 147.308 24.9289 146.788 24.6689 146.188C24.4089 145.598 24.2789 144.948 24.2989 144.298C24.3589 143.608 24.4789 142.928 24.6689 142.268C24.8089 141.738 24.8789 141.198 24.8689 140.658C24.8189 140.168 24.7089 139.698 24.5389 139.238C24.5389 139.178 25.1289 139.608 25.2589 140.618C25.3289 141.188 25.2889 141.768 25.1589 142.328C25.0089 142.968 24.8989 143.618 24.8489 144.268C24.8289 145.438 25.2789 146.558 26.0789 147.408C26.6989 148.128 27.2489 148.338 27.2089 148.418H27.1989Z" fill="#FF9A6C"/>
<path d="M177.869 150.329C177.869 150.179 180.739 150.289 184.249 150.579C187.759 150.869 190.599 151.239 190.589 151.389C190.589 151.529 187.719 151.429 184.209 151.129C180.699 150.829 177.859 150.479 177.869 150.329Z" fill="#FF9A6C"/>
<path d="M94.9987 101.968C94.6787 103.038 94.2687 104.088 93.7787 105.088C93.5587 105.568 93.3388 106.098 93.0988 106.628C92.8688 107.238 92.5987 107.838 92.2987 108.418C92.1787 108.608 92.0087 108.768 91.8087 108.858C91.6087 108.948 91.3788 108.988 91.1588 108.968C90.7688 108.868 90.4088 108.678 90.0988 108.418L88.1987 107.118C85.6087 105.328 83.2787 103.678 81.6087 102.478C80.6687 101.868 79.7887 101.178 78.9688 100.418C79.9688 100.918 80.9187 101.498 81.8287 102.158C83.5587 103.298 85.9287 104.878 88.5187 106.678L90.4088 107.978C90.6588 108.188 90.9388 108.358 91.2588 108.458C91.3888 108.468 91.5188 108.458 91.6288 108.388C91.7388 108.328 91.8387 108.238 91.8987 108.128C92.5087 107.018 93.0188 105.818 93.5088 104.908C93.9288 103.888 94.4288 102.898 95.0088 101.958L94.9987 101.968Z" fill="#263238"/>
<path d="M99.9288 111.088L98.2888 113.708H94.5388L92.5288 110.458L94.7388 106.348L97.1688 106.468L99.9288 111.088Z" fill="#FFD000"/>
<path d="M98.289 113.707L109.599 181.557L102.409 193.407L90.249 180.917L94.539 113.707H98.289Z" fill="#FFD000"/>
<path d="M120.189 132.797C120.189 135.737 118.139 138.127 115.599 138.127C113.059 138.127 111.009 135.737 111.009 132.797C111.009 129.857 113.059 127.457 115.599 127.457C118.139 127.457 120.189 129.857 120.189 132.797Z" fill="#FFD000"/>
<path d="M72.8989 139.707L83.2489 135.287L72.8989 139.707Z" fill="#263238"/>
<path d="M48.8889 130.768C48.7289 131.458 49.1589 132.138 49.8489 132.298C51.1589 132.688 53.2089 133.118 54.5989 132.618C56.7789 131.818 58.9989 122.398 57.7189 121.568C55.5189 120.128 53.4189 119.368 52.1989 121.288C51.1789 122.828 49.5589 128.048 48.8889 130.768Z" fill="#FFD000"/>
<path d="M66.4688 125.099C66.4688 125.099 66.5888 125.099 66.8388 125.049L67.9788 124.979L72.2988 124.759L87.3388 124.139H87.5488V131.549L87.4088 131.609C87.1188 131.739 86.7889 131.859 86.5089 132.009L76.1488 136.399H75.9688L65.6688 131.439L65.5688 131.389V131.279C65.8188 129.349 66.0388 127.809 66.1888 126.679C66.2588 126.189 66.3288 125.779 66.3688 125.489C66.4088 125.199 66.4288 125.079 66.4488 125.099C66.4588 125.249 66.4588 125.399 66.4488 125.539C66.4488 125.869 66.3888 126.269 66.3388 126.769C66.2288 127.879 66.0788 129.409 65.8788 131.289L65.7988 131.149L76.1788 135.969H75.9988L86.3488 131.549L87.2488 131.149L87.1088 131.369V124.349L87.3488 124.579L72.4288 124.999L68.0588 125.089H66.4888L66.4688 125.099Z" fill="#263238"/>
<mask id="mask0_705_26234" style="mask-type:alpha" maskUnits="userSpaceOnUse" x="11" y="40" width="162" height="156">
<path fill-rule="evenodd" clip-rule="evenodd" d="M95.319 40.0778C119.449 41.5578 131.159 65.3978 145.909 82.1778C157.869 95.7778 168.929 109.408 171.249 126.448C173.929 146.128 175.519 168.608 159.629 182.728C143.679 196.888 117.929 195.818 95.319 193.888C72.109 194.328 53.349 187.348 42.419 172.738C26.899 160.178 13.049 144.918 12.039 126.448C10.989 107.248 22.919 90.1778 37.089 75.4878C52.939 59.0578 70.819 38.5778 95.329 40.0778H95.319Z" fill="#FFF3CC"/>
</mask>
<g mask="url(#mask0_705_26234)">
<path d="M71.5888 168.976C71.7288 167.956 71.0689 167.006 70.0689 166.776C67.9889 166.126 64.7589 165.256 64.0389 166.016C62.9889 167.136 56.1188 193.166 58.4488 194.906C60.4988 196.346 63.1688 196.566 65.4288 195.486C67.9088 194.346 70.5088 174.996 71.5888 168.976Z" fill="#263238"/>
<path d="M66.7288 186.758C66.9288 187.068 72.7988 190.408 72.7988 190.408L75.8388 177.178C75.8388 177.178 70.6988 175.048 69.9288 173.688C69.1588 172.328 66.7288 186.758 66.7288 186.758Z" fill="#263238"/>
<path d="M77.9988 174.498C76.5888 174.118 75.0888 174.398 73.9088 175.258C73.6688 175.438 73.4588 175.658 73.3088 175.918C72.6888 177.028 70.4788 193.648 70.4788 193.648L83.3788 197.748L86.1688 195.958L89.5488 180.568C89.5488 180.568 90.4988 177.958 88.2688 177.148C87.5588 176.888 81.1288 175.278 77.9888 174.498H77.9988Z" fill="#263238"/>
<path d="M77.9988 174.498C78.0888 174.498 78.1788 174.498 78.2688 174.498L79.0288 174.668L81.9888 175.378L86.6188 176.528L88.0088 176.878C88.5288 176.978 89.0088 177.248 89.3688 177.638C89.9988 178.488 90.1488 179.608 89.7588 180.588C88.8088 184.968 87.6688 190.238 86.4388 195.978V196.058L86.3588 196.108L83.5588 197.908L83.4488 197.988L83.3188 197.938L81.9488 197.508L70.4088 193.838L70.2288 193.778V193.618C71.1288 187.068 71.9488 181.478 72.7288 177.508C72.8388 177.018 72.9288 176.548 73.0788 176.108C73.2388 175.668 73.5488 175.298 73.9588 175.068C74.5888 174.638 75.3188 174.378 76.0888 174.308C76.5688 174.258 77.0488 174.278 77.5188 174.368C77.6788 174.398 77.8388 174.438 77.9888 174.498C77.3688 174.398 76.7288 174.378 76.1088 174.448C75.3888 174.528 74.7088 174.788 74.1088 175.208C73.7588 175.438 73.4888 175.778 73.3488 176.168C73.2288 176.578 73.1388 177.058 73.0488 177.538C72.3488 181.488 71.5988 187.098 70.7288 193.648L70.5688 193.428L82.1188 197.078L83.4988 197.508H83.2588L86.0488 195.718L85.9488 195.858C87.2288 190.128 88.3888 184.858 89.3688 180.478C89.7188 179.598 89.6188 178.608 89.0788 177.828C88.7588 177.488 88.3388 177.258 87.8788 177.178L86.4988 176.818L81.9488 175.588L78.9988 174.818L78.2388 174.588C78.1588 174.568 78.0788 174.538 77.9988 174.498Z" fill="#455A64"/>
<path d="M89.2588 178.147C88.8888 178.327 88.5288 178.537 88.1888 178.757C87.3488 179.397 86.7088 180.267 86.3688 181.267C85.8788 182.487 85.7588 184.047 85.1988 185.737C84.8888 186.657 84.3688 187.507 83.6788 188.197C82.8988 188.967 81.9688 189.567 80.9488 189.957C78.8988 190.817 76.5988 190.837 74.5388 190.017C73.7188 189.607 73.0288 188.967 72.5688 188.177C72.1788 187.537 71.9188 186.827 71.8088 186.087C71.6788 185.047 71.7188 183.997 71.9188 182.967C71.9588 182.587 72.0488 182.217 72.1788 181.847C72.1988 182.227 72.1788 182.607 72.1188 182.987C71.9988 183.997 72.0188 185.017 72.1688 186.027C72.2988 186.717 72.5488 187.387 72.9288 187.987C73.3688 188.707 74.0088 189.277 74.7688 189.637C76.6988 190.367 78.8388 190.327 80.7388 189.527C81.6988 189.167 82.5688 188.607 83.2988 187.887C83.9288 187.247 84.4188 186.467 84.7088 185.607C85.2688 183.987 85.4688 182.407 85.9888 181.147C86.3888 180.107 87.0988 179.217 88.0288 178.597C88.2988 178.427 88.5888 178.297 88.8988 178.197C89.0188 178.157 89.1488 178.127 89.2688 178.127L89.2588 178.147Z" fill="#455A64"/>
<path d="M83.3088 190.877C85.8788 191.707 88.5288 192.327 91.1988 192.717C94.6588 193.157 98.1488 193.257 101.619 193.017L102.549 184.587C102.549 184.587 93.0288 185.047 87.9588 182.307L83.2988 190.867L83.3088 190.877Z" fill="#263238"/>
<path d="M112.079 184.007L110.969 192.357C110.969 192.357 117.639 191.987 122.709 190.157L124.229 181.227C120.469 183.137 116.289 184.087 112.079 184.007Z" fill="#263238"/>
<path d="M114.029 182.848L109.349 182.898L108.429 185.018L105.739 185.108L104.429 183.268L99.3688 183.408L98.7988 193.318C100.659 193.808 102.609 193.808 104.469 193.318L105.399 191.578L108.199 191.618L109.069 193.318L113.679 193.168L114.439 184.318L114.019 182.858L114.029 182.848Z" fill="#263238"/>
<path d="M114.029 182.847C114.089 182.957 114.139 183.067 114.169 183.187L114.539 184.257C114.439 185.947 114.209 189.057 113.879 193.127V193.287H113.699L109.089 193.457H108.939L108.879 193.337C108.599 192.807 108.299 192.227 107.989 191.647L108.199 191.767L105.399 191.727L105.629 191.607C105.339 192.157 105.019 192.747 104.709 193.347L104.659 193.437H104.569C102.739 193.927 100.819 193.957 98.9788 193.517L98.7388 193.457L98.5488 193.407V193.257C98.7588 189.737 98.9588 186.387 99.1388 183.387V183.197H99.3488L104.409 183.077H104.529L104.589 183.167L105.879 185.027L105.709 184.947L108.399 184.867L108.249 184.967C108.599 184.207 108.919 183.497 109.199 182.857L109.239 182.777H112.849C113.249 182.777 113.649 182.777 114.039 182.827C113.619 182.877 113.199 182.897 112.779 182.897L109.359 183.007L109.479 182.927C109.209 183.567 108.919 184.267 108.579 185.047V185.137H108.469L105.779 185.257H105.669L105.619 185.177C105.189 184.597 104.759 183.977 104.289 183.337L104.479 183.427L99.4188 183.587L99.6488 183.387C99.4788 186.427 99.2888 189.767 99.0988 193.297L98.9288 193.077L99.1688 193.127C100.909 193.537 102.719 193.517 104.449 193.057L104.309 193.167L105.239 191.427L105.299 191.297H105.459L108.259 191.347H108.409L108.469 191.467L109.339 193.167L109.119 193.057L113.729 192.917L113.529 193.087C113.919 189.037 114.229 185.917 114.429 184.247C114.319 183.817 114.229 183.487 114.159 183.187C114.109 183.077 114.069 182.957 114.039 182.847H114.029Z" fill="#455A64"/>
<path d="M123.989 177.548L119.439 195.458C119.439 195.458 122.619 197.428 124.249 197.308C125.879 197.188 129.829 194.878 129.829 194.878C129.829 194.878 134.429 176.718 134.039 176.248C133.649 175.778 131.799 174.378 130.749 174.328C129.989 174.328 126.949 175.488 125.289 176.138C124.659 176.368 124.169 176.898 123.989 177.538V177.548Z" fill="#263238"/>
<path d="M123.989 177.547C124.009 177.347 124.079 177.147 124.189 176.977C124.529 176.447 125.059 176.057 125.669 175.887C126.429 175.577 127.359 175.197 128.459 174.797C129.049 174.577 129.659 174.387 130.269 174.237C130.639 174.147 131.029 174.177 131.389 174.317C131.739 174.437 132.069 174.597 132.379 174.777C133.049 175.157 133.669 175.627 134.199 176.177C134.249 176.387 134.249 176.607 134.199 176.827C134.199 177.007 134.149 177.187 134.119 177.377C134.059 177.747 133.989 178.137 133.919 178.507C133.619 180.027 133.259 181.647 132.869 183.357C132.109 186.767 131.169 190.497 130.189 194.417C130.139 194.587 130.109 194.747 130.059 194.907V194.997L129.979 195.047C129.109 195.537 128.249 196.007 127.359 196.427C126.479 196.887 125.549 197.227 124.579 197.457C124.069 197.527 123.549 197.487 123.059 197.337C122.599 197.207 122.149 197.047 121.719 196.847C120.899 196.487 120.099 196.067 119.339 195.607L119.199 195.527L119.239 195.387L122.619 182.487C123.039 180.967 123.379 179.707 123.619 178.807L123.909 177.837C123.939 177.717 123.979 177.607 124.029 177.507C124.029 177.627 124.019 177.747 123.979 177.857C123.929 178.117 123.849 178.437 123.769 178.847C123.559 179.757 123.259 181.007 122.899 182.547C122.099 185.777 120.989 190.237 119.699 195.447L119.599 195.237C120.349 195.687 121.129 196.087 121.929 196.437C122.719 196.847 123.609 197.047 124.499 197.007C125.409 196.777 126.289 196.437 127.129 196.017C127.999 195.597 128.869 195.137 129.709 194.647L129.599 194.787C129.639 194.617 129.679 194.457 129.729 194.287C130.689 190.367 131.599 186.647 132.439 183.247C132.839 181.547 133.199 179.927 133.539 178.407C133.609 178.027 133.679 177.647 133.749 177.287L133.839 176.747V176.477C133.839 176.417 133.839 176.267 133.839 176.307C133.339 175.797 132.769 175.357 132.149 174.997C131.629 174.597 130.979 174.407 130.319 174.467C129.719 174.607 129.119 174.777 128.539 174.987C127.439 175.357 126.499 175.747 125.729 176.007C125.139 176.147 124.619 176.487 124.259 176.967C124.049 177.307 124.019 177.547 123.989 177.537V177.547Z" fill="#455A64"/>
<path d="M123.229 188.037C122.809 187.987 122.519 187.607 122.569 187.187V187.157C122.699 186.737 123.139 186.487 123.569 186.577C123.989 186.627 124.279 187.007 124.229 187.427V187.457C124.099 187.877 123.659 188.137 123.229 188.037Z" fill="#455A64"/>
<path d="M129.279 192.026C129.279 192.026 133.029 191.036 133.519 189.306C134.009 187.576 134.339 170.946 133.519 169.946C132.699 168.946 128.209 169.296 127.919 169.516C127.629 169.736 125.539 172.466 125.539 172.466L129.289 192.036L129.279 192.026Z" fill="#263238"/>
<path d="M130.509 176.427C131.619 167.797 132.739 159.167 133.859 150.537C133.909 150.127 133.189 150.167 133.139 150.587C132.019 159.207 130.899 167.837 129.779 176.467C129.729 176.887 130.449 176.837 130.509 176.427Z" fill="#455A64"/>
<path d="M128.099 178.848C128.239 178.848 127.339 183.018 126.159 188.128C124.979 193.238 123.879 197.338 123.729 197.308C123.579 197.278 124.489 193.128 125.659 188.028C126.829 182.928 127.959 178.798 128.099 178.848Z" fill="#455A64"/>
</g>
</svg>
