<svg width="200" height="200" viewBox="0 0 200 200" fill="none" xmlns="http://www.w3.org/2000/svg">
<g clip-path="url(#clip0_705_27193)">
<path fill-rule="evenodd" clip-rule="evenodd" d="M95.3511 40.0786C119.484 41.5624 131.191 65.3973 145.943 82.1754C157.899 95.7741 168.961 109.409 171.286 126.445C173.971 146.122 175.558 168.605 159.663 182.721C143.717 196.882 117.964 195.809 95.3511 193.883C72.1366 194.322 53.3796 187.342 42.4481 172.737C26.9316 160.174 13.0786 144.922 12.0648 126.445C11.0113 107.244 22.9446 90.1752 37.1121 75.4837C52.9597 59.05 70.8381 38.5713 95.3511 40.0786Z" fill="#FFF3CC"/>
<path d="M92.0601 44.8647L92.9295 44.8164C97.1236 44.5763 101.254 45.9237 104.5 48.5907C107.746 51.2577 109.869 55.0488 110.446 59.2099C111.557 67.2599 108.823 69.6774 109 74.0002C109.411 82.968 102.184 88.5002 102.184 88.5002L104.707 94.952C104.833 96.3825 104.674 97.8237 104.241 99.1929C103.809 100.562 103.109 101.832 102.184 102.93C101.259 104.029 100.125 104.933 98.8495 105.592C97.5735 106.251 96.1799 106.651 94.7488 106.769C91.8972 106.998 89.07 106.096 86.8772 104.259C84.6845 102.422 83.302 99.796 83.028 96.9484L79.808 63.6937C78.5039 54.4362 82.7704 45.9515 92.0601 44.8647Z" fill="#FFBF9D"/>
<path d="M102 88.5007C97.8507 88.7417 93.6289 87.6491 90 85.6777C90 85.6777 94.1185 91.7827 103 90.5007L102 88.5007Z" fill="#FF9A6C"/>
<path d="M95.996 68.3284C96.0248 68.7349 95.8978 69.1368 95.6425 69.447C95.3872 69.7572 95.0242 69.9508 94.632 69.9858C94.4413 70.0133 94.2472 70.0008 94.0612 69.9492C93.8752 69.8975 93.7011 69.8078 93.5492 69.6852C93.3973 69.5627 93.2706 69.4099 93.1768 69.2358C93.083 69.0617 93.0238 68.8698 93.0028 68.6716C92.9789 68.2663 93.1076 67.8672 93.362 67.5581C93.6163 67.249 93.9765 67.054 94.3668 67.0142C94.5575 66.9867 94.7516 66.9992 94.9376 67.0509C95.1236 67.1025 95.2977 67.1922 95.4496 67.3148C95.6015 67.4373 95.7282 67.5901 95.822 67.7642C95.9158 67.9383 95.975 68.1302 95.996 68.3284Z" fill="#263238"/>
<path d="M108.788 63.701C108.635 63.8781 107.629 63.21 106.252 63.2985C104.876 63.3871 103.902 64.1035 103.749 63.9667C103.596 63.8298 103.813 63.5883 104.232 63.2422C104.804 62.793 105.501 62.5316 106.228 62.4935C106.943 62.4539 107.653 62.6397 108.257 63.0248C108.683 63.3227 108.844 63.6125 108.788 63.701Z" fill="#263238"/>
<path d="M107.997 68.3284C108.021 68.7337 107.892 69.1328 107.638 69.4419C107.384 69.751 107.023 69.946 106.633 69.9858C106.442 70.0133 106.248 70.0008 106.062 69.9491C105.876 69.8975 105.702 69.8078 105.55 69.6852C105.398 69.5627 105.271 69.4099 105.177 69.2358C105.084 69.0617 105.024 68.8698 105.003 68.6716C104.977 68.2657 105.105 67.8652 105.36 67.5556C105.615 67.2459 105.976 67.0516 106.368 67.0142C106.558 66.9867 106.753 66.9992 106.939 67.0509C107.125 67.1025 107.299 67.1922 107.451 67.3148C107.603 67.4373 107.729 67.5901 107.823 67.7642C107.917 67.9383 107.976 68.1302 107.997 68.3284Z" fill="#263238"/>
<path d="M95.256 64.7316C95.1111 64.9087 94.0968 64.2486 92.7202 64.3291C91.3437 64.4096 90.3777 65.1341 90.2167 64.9973C90.0557 64.8604 90.2811 64.6189 90.7077 64.2728C91.2758 63.8278 91.9674 63.5691 92.688 63.5322C93.4038 63.4864 94.1152 63.6727 94.7166 64.0635C95.1674 64.3613 95.3284 64.6511 95.256 64.7316Z" fill="#263238"/>
<path d="M100.835 74.6567C101.546 74.3823 102.29 74.201 103.049 74.1173C103.403 74.061 103.725 73.9724 103.773 73.7309C103.785 73.3658 103.684 73.0059 103.483 72.7005C103.097 71.8955 102.678 71.002 102.284 70.0843C100.626 66.3571 99.4019 63.29 99.5468 63.2256C99.6917 63.1612 101.157 66.1237 102.831 69.8508C103.234 70.7685 103.636 71.646 103.982 72.4832C104.225 72.8956 104.318 73.3786 104.248 73.8517C104.204 73.9799 104.132 74.0961 104.035 74.1911C103.939 74.2862 103.821 74.3574 103.693 74.3991C103.503 74.4654 103.305 74.506 103.105 74.5198C102.356 74.6547 101.594 74.7006 100.835 74.6567Z" fill="#263238"/>
<path d="M95.359 60.4005C95.2383 60.7788 93.8537 60.6822 92.2517 60.972C90.6498 61.2618 89.3698 61.777 89.1364 61.447C89.0317 61.294 89.241 60.9318 89.7401 60.5373C90.4173 60.0516 91.1963 59.7266 92.0179 59.5871C92.8395 59.4476 93.6821 59.4973 94.4816 59.7323C95.0853 59.9416 95.4073 60.2153 95.359 60.4005Z" fill="#263238"/>
<path d="M108.086 60.827C107.869 61.149 106.903 60.8833 105.76 60.9316C104.617 60.9799 103.667 61.2617 103.425 60.9316C103.321 60.7787 103.425 60.4567 103.852 60.1266C104.397 59.7358 105.049 59.5197 105.72 59.5068C106.392 59.4784 107.056 59.6614 107.619 60.03C108.038 60.352 108.191 60.666 108.086 60.827Z" fill="#263238"/>
<path d="M109.344 55.1525C109.344 55.1525 106.663 49.6784 103.878 48.5192C100.513 47.1266 99.3133 50.8054 96.1416 50.1292C92.9699 49.453 89.7579 48.1006 86.707 50.6927C83.3743 53.5344 85.097 55.2974 85.097 59.2821C85.1453 75.4385 82.4646 80.1639 81.1927 72.629C81.0559 71.824 78.7052 71.2686 78.1659 67.799C77.4575 63.2749 76.9664 57.7526 77.7956 54.4602C78.4959 51.6909 79.9369 49.7187 82.6256 47.4808C86.8358 43.9549 92.8652 43.5363 96.9949 43.7134C101.125 43.8905 109.319 48.1006 109.344 55.1525Z" fill="#263238"/>
<path d="M81.7803 72.3236C81.7532 71.9929 81.6583 71.6713 81.5014 71.3788C81.3446 71.0864 81.1291 70.8295 80.8685 70.624C80.6079 70.4185 80.3078 70.269 79.9868 70.1847C79.6658 70.1004 79.331 70.0831 79.003 70.134C77.3447 70.3916 75.5415 71.4462 75.8474 74.8916C76.3948 81.0016 82.4162 79.1903 82.4162 79.0132C82.4162 78.8361 82.0298 74.8835 81.7803 72.3236Z" fill="#FFBF9D"/>
<path d="M80.8948 76.8303C80.8948 76.8303 80.7982 76.9188 80.6211 77.0154C80.3742 77.1475 80.0858 77.1793 79.8161 77.104C79.156 76.9269 78.52 75.9448 78.3912 74.85C78.3275 74.3266 78.3825 73.7955 78.5522 73.2963C78.5923 73.1011 78.6792 72.9186 78.8054 72.7643C78.9316 72.6101 79.0933 72.4888 79.2767 72.4108C79.3957 72.3686 79.5255 72.3688 79.6444 72.4113C79.7632 72.4538 79.8637 72.5361 79.9288 72.6443C80.0334 72.8053 80.0012 72.934 80.0334 72.9421C80.0656 72.9501 80.1542 72.8294 80.0817 72.5798C80.0362 72.4305 79.9392 72.3022 79.808 72.2176C79.6284 72.1045 79.4114 72.0669 79.2043 72.1129C78.9589 72.1861 78.7363 72.3205 78.5574 72.5036C78.3785 72.6868 78.2493 72.9125 78.1819 73.1595C77.9686 73.7126 77.894 74.3096 77.9646 74.8983C78.1175 76.1299 78.8501 77.2247 79.7517 77.4018C79.9198 77.4353 80.0934 77.4302 80.2593 77.387C80.4252 77.3438 80.5792 77.2635 80.7096 77.1523C80.8948 76.9832 80.9189 76.8464 80.8948 76.8303Z" fill="#FF9A6C"/>
<path d="M110.648 48.5191C109.706 47.8107 108.41 47.7141 107.476 46.9977C103.316 43.8042 96.6129 37.7091 90.8888 40.8959C88.7107 42.1085 85.9615 42.2125 84.0181 43.6006C83.4528 44.0475 82.9874 44.608 82.6519 45.2458C82.3164 45.8835 82.1182 46.5845 82.07 47.3036C82.07 47.3036 81.4341 46.9816 79.5021 48.5111C78.2704 49.4851 77.2642 51.5862 76.8134 53.0835C76.1452 55.3294 77.1193 57.6962 78.0772 59.8294C78.5924 60.9806 79.2364 62.2444 80.4359 62.655C81.8929 63.146 83.5029 62.0029 84.0745 60.57C84.646 59.1371 85.5476 57.6962 86.2399 56.3196C87.4474 53.9046 88.6549 51.6989 87.6648 50.1694C90.93 49.1089 93.0942 51.0056 95.9966 52.0289C97.2173 52.4594 102.143 53.276 103.5 52.9513C103.939 52.8464 104.349 52.6439 104.699 52.359C105.252 53.2599 106.124 53.9194 107.141 54.2059C108.159 54.4923 109.247 54.3848 110.189 53.9046C112.008 52.7776 112.33 49.791 110.648 48.5191Z" fill="#263238"/>
<path d="M77.4653 58.3875C77.7478 58.8294 77.9852 59.2987 78.1737 59.7882C78.3945 60.2826 78.7415 60.7102 79.18 61.0279C79.7661 61.3278 80.4411 61.405 81.0798 61.2452C81.7438 61.1164 82.3707 60.8414 82.9152 60.4402C83.3543 60.0994 83.7539 59.7106 84.1066 59.281C84.4148 58.8596 84.7568 58.4638 85.129 58.0977C84.9327 58.5852 84.6611 59.0388 84.324 59.442C83.9868 59.9161 83.5859 60.3413 83.1325 60.7059C82.5515 61.1447 81.8763 61.4424 81.1603 61.5753C80.4348 61.7551 79.6679 61.6484 79.019 61.2774C78.5341 60.9224 78.1645 60.4324 77.9564 59.8687C77.7324 59.397 77.5674 58.8995 77.4653 58.3875Z" fill="#FFD000"/>
<path d="M77.6989 63.1146C78.0674 63.394 78.474 63.619 78.9065 63.7828C79.3769 63.9318 79.8743 63.9757 80.3635 63.9116C80.9641 63.8203 81.5379 63.6007 82.046 63.2676C82.9688 62.6266 83.7521 61.805 84.3483 60.8526C84.5759 60.4394 84.8457 60.0509 85.1533 59.6934C85.0124 60.1539 84.8035 60.5907 84.5334 60.9894C83.9864 62.0378 83.1937 62.9383 82.2231 63.6137C81.6703 63.9795 81.0384 64.2085 80.3796 64.2819C79.8332 64.342 79.2805 64.2674 78.7696 64.0645C77.9485 63.6701 77.6587 63.1227 77.6989 63.1146Z" fill="#FFD000"/>
<path d="M96.7029 79.6289C96.4969 79.9662 96.3821 80.3164 96.3615 80.6697C96.3372 80.8368 96.3835 81.0047 96.4972 81.1618C96.6109 81.319 96.7894 81.4618 97.0205 81.5804C97.2599 81.7262 97.5589 81.8432 97.8964 81.9233C98.2338 82.0034 98.6015 82.0446 98.9734 82.0439C99.6443 82.0432 100.293 81.92 100.802 81.6964C101.311 81.4729 101.648 81.1636 101.752 80.8242L101.99 80.0558C100.601 79.8525 96.8061 79.6818 96.7029 79.6289Z" fill="#FF9A6C"/>
<path d="M100.948 81.1252C100.948 81.1252 100.753 81.1252 100.431 81.1411C99.9786 81.163 99.5184 81.163 99.0662 81.1411C98.4134 81.1089 97.8233 81.0007 97.4135 80.8381C96.9255 80.6348 96.6932 80.3822 96.7609 80.1285C96.7805 79.9858 96.8991 79.8462 97.1084 79.7193L96.9049 79.7485C98.3542 79.8176 99.6256 79.8734 100.524 79.9053C101.007 79.9336 101.499 79.9452 101.99 79.9399C101.532 79.884 101.054 79.8465 100.566 79.8282C99.668 79.7751 98.4136 79.7033 96.9643 79.6289H96.8287L96.7693 79.6661C96.4444 79.8636 96.3061 80.086 96.3707 80.3073C96.4353 80.5286 96.7 80.7395 97.1338 80.9152C97.6097 81.0951 98.291 81.2096 99.0323 81.2341C99.514 81.2474 99.9994 81.233 100.465 81.1916C100.639 81.1806 100.804 81.1579 100.948 81.1252Z" fill="#263238"/>
<path d="M60.4879 106.576C59.9566 106.576 52.3735 109.603 50.3771 117.041C48.3807 124.479 42.9308 151.769 42.9308 151.769L37.1428 159.787C37.1428 159.787 39.0185 174.414 49.6526 171.628C49.6526 171.628 56.7527 172.868 59.0147 165.671C61.2768 158.475 65.6641 137.005 65.6641 137.005L60.4879 106.576Z" fill="#B9B8B6"/>
<path d="M82.1472 94L78.1204 100.196L60 106.752L65.1865 160.234L63.2697 188.228C80 197.5 124.262 195.715 127 194.5C128.425 194.459 128.681 191.408 128.914 189.425C129.115 187.645 128.962 185.841 128.463 184.123L125.459 173.403C125.902 180.074 123.937 133.607 123.848 131.911L128.5 108.5C127.379 106.837 117.595 103.502 107.621 99.5154L104.399 94.5081L95.1215 101.687L82.1472 94Z" fill="#B9B8B6"/>
<path d="M128 108C128 108 131.804 111.654 132.523 114.468C133.242 117.281 148.907 149.692 148.907 149.692L156.689 151.697L158.77 155.82C159.985 158.185 160.312 160.877 159.696 163.444C159.08 166.012 157.558 168.298 155.386 169.92C155.116 170.116 154.833 170.297 154.54 170.462C150.311 172.887 142.783 172.758 138.376 167.794C134.206 163.089 122 146.176 122 146.176V125.479L128 108Z" fill="#B9B8B6"/>
<path d="M152.95 152.59L163.601 146.303L168.737 152.59L167.674 155.633L153.941 165.848C152.236 164.457 151.092 162.495 150.721 160.326C150.117 156.486 152.95 152.59 152.95 152.59Z" fill="#FFBF9D"/>
<path d="M149.569 149.337C149.569 149.442 148.66 149.337 147.324 149.788C145.597 150.385 144.068 151.446 142.904 152.855C141.754 154.295 140.806 155.885 140.087 157.581C139.815 158.307 139.478 159.008 139.08 159.674C139.188 158.901 139.405 158.147 139.724 157.436C140.357 155.646 141.291 153.977 142.485 152.501C143.707 151.009 145.361 149.932 147.219 149.418C147.979 149.167 148.794 149.139 149.569 149.337Z" fill="#263238"/>
<path d="M163.424 149.789C163.158 148.399 163.253 146.964 163.7 145.621C164.147 144.277 164.93 143.071 165.976 142.117C168.49 140.049 171.334 138.416 174.388 137.287C176.255 136.482 180.144 133.206 180.828 133.995C181.512 134.784 181.818 135.959 180.828 137.392C179.838 138.825 174.211 140.958 175 142.769C175.322 143.502 177.093 143.639 177.093 143.639C180.307 143.865 183.531 143.929 186.753 143.832C189.602 143.582 192.162 144.13 192.009 145.112C191.856 146.094 191.325 146.633 188.966 146.834C186.608 147.036 182.768 146.883 182.526 147.422C182.285 147.961 183.122 148.308 184.499 148.227C185.875 148.147 192.363 148.122 192.806 148.863C192.914 149.051 192.979 149.261 192.996 149.477C193.013 149.692 192.981 149.91 192.904 150.112C192.827 150.314 192.706 150.497 192.55 150.648C192.394 150.798 192.207 150.911 192.001 150.98L190.48 151.52C190.48 151.52 191.365 152.751 190.625 153.435C189.884 154.12 188.21 153.878 188.21 153.878L179.604 153.637C179.604 153.637 179.113 154.152 179.355 154.506C179.596 154.86 186.342 154.369 186.39 155.11C186.439 155.85 187.026 156.189 185.014 156.72C182.066 157.211 179.058 157.211 176.11 156.72C174.291 156.221 166.668 155.915 166.668 155.915L163.424 149.789Z" fill="#FFBF9D"/>
<path d="M46.4649 153.709L36.507 145.449L30.7915 151.889L31.4919 155.037L43.9372 166.758C45.7822 165.7 47.1744 164.001 47.8495 161.984C49.0892 158.434 46.4649 153.709 46.4649 153.709Z" fill="#FFBF9D"/>
<path d="M36.3943 149.747C36.8225 148.399 36.8994 146.964 36.6176 145.578C36.3359 144.192 35.7048 142.9 34.7843 141.826C32.5191 139.475 29.8704 137.526 26.9516 136.062C25.1967 135.008 21.7191 131.337 20.9382 132.037C20.4752 132.455 20.1799 133.026 20.1074 133.646C20.0348 134.265 20.1899 134.889 20.5438 135.402C21.3488 136.94 25.2289 138.727 25.092 140.699C25.0778 140.89 25.026 141.076 24.9398 141.247C24.8536 141.418 24.7346 141.57 24.5896 141.695C24.4446 141.82 24.2764 141.915 24.0946 141.975C23.9129 142.034 23.7211 142.058 23.5303 142.044C20.3183 141.896 17.1157 141.587 13.9347 141.118C11.1252 140.538 8.52508 140.78 8.55728 141.77C8.58948 142.76 9.06443 143.38 11.3828 143.839C13.7012 144.298 17.5331 144.644 17.6619 145.167C17.7907 145.69 16.9776 145.972 15.6171 145.722C14.2567 145.473 7.81668 144.708 7.29343 145.392C7.16372 145.564 7.07381 145.763 7.03018 145.974C6.98654 146.185 6.99027 146.403 7.04109 146.613C7.09191 146.822 7.18855 147.018 7.32406 147.185C7.45957 147.353 7.63057 147.488 7.82473 147.582L9.27373 148.298C9.27373 148.298 8.25138 149.417 8.90343 150.182C9.55548 150.947 11.246 150.907 11.246 150.907L19.8273 151.663C19.8273 151.663 20.254 152.235 19.9642 152.557C19.6744 152.879 13.0492 151.607 12.9123 152.34C12.7755 153.072 12.1476 153.338 14.0957 154.062C16.9698 154.895 19.9619 155.246 22.9507 155.101C24.8183 154.819 32.4336 155.366 32.4336 155.366L36.3943 149.747Z" fill="#FFBF9D"/>
<path d="M107.54 101.006C107.002 101.678 106.404 102.301 105.753 102.865C104.618 103.976 103.065 105.53 101.422 107.301C101.076 107.679 100.73 108.05 100.408 108.412L100.191 108.645L99.9894 108.396C98.7175 106.786 97.6146 105.305 96.8418 104.25C96.3881 103.714 96.0015 103.125 95.6907 102.495C96.225 102.952 96.7058 103.468 97.1236 104.033C97.9688 105.031 99.128 106.448 100.416 108.058H100.005L101.012 106.939C102.426 105.41 103.92 103.956 105.488 102.584C106.105 101.976 106.794 101.446 107.54 101.006Z" fill="#263238"/>
<path d="M61.623 120.502C61.771 120.857 61.8711 121.231 61.9209 121.613C62.0738 122.337 62.267 123.392 62.4763 124.696C62.8949 127.304 63.3377 130.927 63.708 134.936C64.0783 138.945 64.352 142.583 64.5613 145.216C64.6418 146.439 64.7223 147.478 64.7786 148.331C64.8291 148.713 64.8291 149.1 64.7786 149.482C64.6638 149.115 64.5882 148.738 64.5532 148.355C64.4405 147.622 64.3037 146.56 64.1588 145.248C63.8529 142.631 63.5148 139.001 63.1445 134.992C62.7742 130.983 62.4119 127.369 62.098 124.793C61.945 123.577 61.8162 122.539 61.7116 121.693C61.6284 121.302 61.5986 120.901 61.623 120.502Z" fill="#263238"/>
<path d="M124.606 118.676C124.721 119.132 124.789 119.599 124.808 120.068C124.896 120.978 124.993 122.282 125.073 123.908C125.258 127.128 125.347 131.636 125.363 136.579V153.09C125.389 153.56 125.37 154.032 125.307 154.498C125.202 154.039 125.151 153.569 125.154 153.098C125.089 152.188 125.025 150.876 124.977 149.258C124.864 146.038 124.824 141.53 124.816 136.587C124.808 131.644 124.767 127.161 124.687 123.924C124.647 122.387 124.614 121.099 124.59 120.085C124.552 119.615 124.557 119.144 124.606 118.676Z" fill="#263238"/>
<path d="M53.4522 165.123C53.2003 164.209 53.0147 163.279 52.8968 162.338C52.5196 160.092 51.7915 157.918 50.7394 155.898C49.6657 153.917 48.0523 152.282 46.0865 151.181C45.2411 150.777 44.3666 150.438 43.4702 150.166C43.7354 150.109 44.01 150.109 44.2752 150.166C44.9726 150.283 45.6502 150.497 46.2877 150.802C48.4029 151.857 50.1364 153.546 51.2465 155.632C52.3118 157.706 52.9884 159.957 53.2429 162.274C53.4324 163.211 53.5027 164.168 53.4522 165.123Z" fill="#263238"/>
<path d="M56.0364 154.248C55.9237 154.377 54.3217 152.727 51.7135 151.833C49.1053 150.94 46.8835 151.246 46.8352 151.077C46.7869 150.908 49.1456 150.36 51.8906 151.318C54.6357 152.276 56.1571 154.184 56.0364 154.248Z" fill="#263238"/>
<path d="M96.8901 191.656C96.8413 191.358 96.8197 191.057 96.8257 190.755C96.8257 190.119 96.8257 189.258 96.7693 188.179C96.721 185.885 96.6566 182.657 96.5761 178.688C96.391 170.638 96.1334 159.585 95.8436 147.381C95.5538 135.177 95.4008 124.076 95.4169 116.059C95.4169 112.034 95.4572 108.814 95.5055 106.56C95.5055 105.481 95.5618 104.62 95.586 103.984C95.5792 103.682 95.6008 103.38 95.6504 103.082C95.6728 103.382 95.6728 103.684 95.6504 103.984C95.6504 104.62 95.6504 105.481 95.6504 106.56C95.6504 108.854 95.6987 112.09 95.7309 116.051C95.8114 124.101 96.0448 135.137 96.3185 147.365C96.5922 159.593 96.8337 170.662 96.8981 178.68C96.8981 182.705 96.8981 185.925 96.8981 188.179C96.8981 189.258 96.8981 190.119 96.8579 190.755C96.8892 191.054 96.8999 191.356 96.8901 191.656Z" fill="#263238"/>
<path d="M45.9979 153.37C45.9979 153.305 46.8029 153.909 47.4469 155.246C47.8415 156.007 48.1287 156.82 48.3002 157.661C48.4655 158.728 48.4655 159.814 48.3002 160.881C48.18 161.949 47.8634 162.986 47.3664 163.94C46.936 164.713 46.3427 165.383 45.6276 165.904C44.9987 166.426 44.2068 166.71 43.3896 166.709C44.0971 166.416 44.7673 166.041 45.3861 165.59C46.0209 165.069 46.5439 164.426 46.9236 163.698C47.3544 162.788 47.6266 161.81 47.7286 160.808C47.8735 159.804 47.8735 158.785 47.7286 157.781C47.5903 156.952 47.3553 156.141 47.0283 155.366C46.5292 154.086 45.9174 153.418 45.9979 153.37Z" fill="#263238"/>
<path d="M155.937 166.967C155.937 166.967 155.679 166.967 155.269 166.765C154.693 166.511 154.151 166.184 153.659 165.791C151.972 164.492 150.818 162.621 150.415 160.531C150.012 158.44 150.387 156.274 151.469 154.441C151.785 153.89 152.169 153.381 152.612 152.927C152.926 152.621 153.128 152.476 153.152 152.501C153.176 152.525 152.508 153.249 151.807 154.626C150.871 156.407 150.569 158.453 150.951 160.428C151.333 162.404 152.376 164.19 153.908 165.493C155.06 166.508 155.977 166.878 155.937 166.967Z" fill="#263238"/>
<path d="M176.408 140.41C176.473 140.475 176.006 140.917 175.418 141.698C175.08 142.145 174.846 142.662 174.734 143.212C174.605 143.831 174.621 144.556 174.509 145.353C174.413 146.037 174.182 146.695 173.829 147.29C173.477 147.884 173.01 148.402 172.456 148.814C172.032 149.196 171.495 149.428 170.926 149.474C170.886 149.386 171.482 149.161 172.214 148.508C173.157 147.673 173.778 146.534 173.969 145.288C174.022 144.56 174.114 143.834 174.243 143.115C174.397 142.515 174.695 141.963 175.112 141.505C175.45 141.042 175.895 140.666 176.408 140.41Z" fill="#FF9A6C"/>
<path d="M21.1394 148.879C21.1394 149.024 18.4588 149.169 15.1502 149.008C11.8417 148.847 9.18514 148.46 9.20124 148.307C9.21734 148.155 11.8819 148.307 15.1744 148.46C18.4668 148.613 21.1394 148.718 21.1394 148.879Z" fill="#FF9A6C"/>
<path d="M27.2332 148.42C27.2332 148.477 26.5973 148.372 25.8406 147.736C25.3505 147.31 24.9606 146.781 24.699 146.187C24.4374 145.592 24.3104 144.948 24.3272 144.299C24.3845 143.612 24.5085 142.933 24.6975 142.27C24.8384 141.745 24.9061 141.203 24.8987 140.66C24.8525 140.175 24.7415 139.699 24.5687 139.243C24.5687 139.187 25.1563 139.613 25.2851 140.628C25.3502 141.198 25.3175 141.775 25.1885 142.334C25.037 142.973 24.9321 143.621 24.8746 144.274C24.8575 145.442 25.2998 146.569 26.1062 147.414C26.7261 148.138 27.2735 148.34 27.2332 148.42Z" fill="#FF9A6C"/>
<path d="M177.906 150.328C177.906 150.175 180.779 150.288 184.289 150.578C187.799 150.867 190.641 151.238 190.633 151.383C190.625 151.528 187.759 151.423 184.249 151.125C180.739 150.827 177.897 150.473 177.906 150.328Z" fill="#FF9A6C"/>
<path d="M95.0386 101.971C94.717 103.043 94.3106 104.087 93.823 105.095C93.6057 105.578 93.3803 106.101 93.1468 106.64C92.9159 107.255 92.6471 107.854 92.3418 108.435C92.2256 108.626 92.0566 108.78 91.8552 108.877C91.6538 108.974 91.4286 109.011 91.2068 108.983C90.8168 108.88 90.4541 108.693 90.1442 108.435L88.2444 107.139C85.6522 105.352 83.3258 103.702 81.6514 102.494C80.7152 101.882 79.832 101.193 79.011 100.434C80.0083 100.936 80.9639 101.518 81.8687 102.172C83.5995 103.307 85.9662 104.893 88.5583 106.688L90.4501 107.993C90.6968 108.206 90.9844 108.368 91.2953 108.468C91.4222 108.483 91.5508 108.459 91.6642 108.401C91.7776 108.342 91.8707 108.25 91.9313 108.137C92.5431 107.027 93.0502 105.827 93.5413 104.917C93.9576 103.895 94.4584 102.91 95.0386 101.971Z" fill="#263238"/>
<path d="M182.508 114.165C182.471 113.792 182.076 113.597 181.763 113.406C180.578 112.671 180.151 111.136 180.051 109.701C179.906 107.707 180.196 105.686 179.924 103.711C179.651 101.736 178.634 99.6694 176.804 99.0109C175.269 98.4569 173.471 99.0654 172.349 100.282L170.46 105.091C170.209 108.843 171.398 112.549 173.784 115.454C174.597 116.426 175.633 117.33 176.872 117.43C177.089 117.46 177.31 117.445 177.52 117.385C177.731 117.324 177.926 117.221 178.094 117.08C178.648 116.544 178.521 115.627 178.348 114.864C179.42 115.215 180.571 115.251 181.663 114.968C182.067 114.859 182.544 114.587 182.508 114.165Z" fill="#FFD000"/>
<path d="M169.892 99.3905C169.998 99.2092 170.159 99.0671 170.352 98.9852C170.546 98.9034 170.76 98.8862 170.964 98.9364C171.376 99.0455 171.751 99.2672 172.045 99.5767C173.005 100.477 173.69 101.631 174.02 102.905C174.248 103.609 174.224 104.37 173.952 105.058C173.743 105.512 173.257 105.871 172.803 105.689C172.349 105.507 172.244 104.985 172.144 104.531C171.737 102.704 170.938 100.987 169.801 99.4995" fill="#FFD000"/>
<path d="M174.257 104.628C173.29 100.995 168.998 97.2262 164.875 97.6122C162.473 96.3453 158.263 95.7958 154.907 97.753C155.611 98.03 156.142 97.9301 156.851 98.2071C153.436 99.1153 151.651 105.223 152.437 109.242L163.79 119.909C166.705 119.759 169.389 117.943 171.232 115.595C173.585 112.612 175.224 108.266 174.257 104.628Z" fill="#FFD000"/>
<path d="M155.134 101.473C156.668 98.7487 160.955 97.4181 163.521 99.0529L168.371 102.772C169.233 103.45 169.83 104.41 170.057 105.483C170.283 106.556 170.125 107.675 169.611 108.644L168.035 111.677L161.055 124.996C161.055 124.996 157.368 130.641 152.613 127.853C148.34 125.351 150.933 120.655 150.933 120.655L152.781 117.204C152.781 117.204 149.28 115.283 150.838 110.26C151.619 107.763 153.431 104.493 155.134 101.473Z" fill="#FCCFCF"/>
<path d="M154.293 106.41C154.215 106.563 154.199 106.741 154.249 106.905C154.299 107.069 154.411 107.208 154.561 107.291C154.633 107.334 154.713 107.361 154.796 107.372C154.879 107.383 154.963 107.377 155.044 107.354C155.124 107.332 155.2 107.293 155.265 107.241C155.33 107.189 155.384 107.124 155.424 107.051C155.466 106.973 155.493 106.889 155.503 106.801C155.512 106.714 155.504 106.625 155.479 106.541C155.454 106.456 155.413 106.378 155.357 106.309C155.302 106.241 155.234 106.184 155.156 106.142C155.082 106.102 155.001 106.076 154.917 106.068C154.833 106.059 154.748 106.068 154.668 106.093C154.587 106.118 154.513 106.159 154.448 106.213C154.384 106.268 154.331 106.335 154.293 106.41Z" fill="#263238"/>
<path d="M160.079 108.921C160.036 108.998 160.009 109.082 160 109.17C159.99 109.257 159.997 109.345 160.022 109.43C160.046 109.514 160.087 109.593 160.142 109.661C160.197 109.73 160.265 109.787 160.342 109.829C160.415 109.871 160.495 109.897 160.578 109.908C160.661 109.918 160.745 109.911 160.825 109.888C160.906 109.865 160.981 109.827 161.046 109.774C161.111 109.722 161.165 109.657 161.205 109.584C161.282 109.431 161.298 109.255 161.249 109.091C161.2 108.927 161.09 108.788 160.942 108.703C160.871 108.66 160.792 108.631 160.71 108.618C160.628 108.606 160.545 108.61 160.464 108.63C160.384 108.651 160.308 108.687 160.242 108.737C160.176 108.787 160.12 108.849 160.079 108.921Z" fill="#263238"/>
<path d="M155.02 103.952C155.087 104.024 155.607 103.941 156.283 104.124C156.958 104.308 157.408 104.655 157.494 104.622C157.579 104.59 157.472 104.499 157.275 104.344C156.99 104.128 156.664 103.971 156.318 103.881C155.989 103.786 155.644 103.762 155.304 103.809C155.076 103.848 154.986 103.919 155.02 103.952Z" fill="#263238"/>
<path d="M161.36 106.719C161.325 106.819 161.652 107.299 161.804 108.061C161.955 108.823 161.856 109.431 161.926 109.502C161.996 109.573 162.032 109.424 162.078 109.155C162.142 108.767 162.131 108.37 162.047 107.985C161.976 107.611 161.834 107.255 161.629 106.934C161.48 106.728 161.371 106.671 161.36 106.719Z" fill="#263238"/>
<path d="M156.482 110.646C156.192 110.395 155.877 110.173 155.542 109.983C155.392 109.893 155.251 109.788 155.265 109.688C155.279 109.588 155.406 109.475 155.551 109.366L156.459 108.635C156.8 108.367 158.607 106.818 158.73 106.628C158.666 106.573 157.563 107.381 156.26 108.444L155.351 109.193C155.224 109.307 155.043 109.416 155.034 109.647C155.039 109.709 155.057 109.77 155.087 109.824C155.116 109.879 155.157 109.927 155.206 109.965C155.285 110.029 155.371 110.085 155.46 110.133C155.784 110.336 156.126 110.508 156.482 110.646Z" fill="#263238"/>
<path d="M152.749 117.219C154.866 118.309 157.249 118.774 159.62 118.558C159.62 118.558 156.487 121.047 152.168 118.368L152.749 117.219Z" fill="#FF9A6C"/>
<path d="M161.677 105.261C161.65 105.493 162.259 105.611 162.89 105.983C163.521 106.356 163.966 106.81 164.125 106.651C164.202 106.578 164.184 106.342 164.043 106.052C163.869 105.701 163.594 105.41 163.253 105.216C162.928 105.028 162.551 104.948 162.177 104.989C161.877 105.03 161.691 105.148 161.677 105.261Z" fill="#263238"/>
<path d="M155.778 102.133C155.778 102.365 156.328 102.447 156.855 102.751C157.381 103.055 157.763 103.437 157.958 103.323C158.053 103.264 158.076 103.055 157.958 102.783C157.821 102.445 157.57 102.166 157.25 101.993C156.932 101.816 156.562 101.756 156.205 101.824C155.937 101.888 155.778 102.02 155.778 102.133Z" fill="#263238"/>
<path d="M158.072 112.06C158.067 112.557 157.938 113.044 157.695 113.477C157.586 113.648 157.436 113.788 157.258 113.884C157.079 113.98 156.88 114.029 156.677 114.027C156.462 113.995 156.258 113.909 156.085 113.778C155.912 113.646 155.775 113.472 155.687 113.273C155.514 112.866 155.409 112.433 155.379 111.992C156.21 112.006 157.241 112.051 158.072 112.06Z" fill="#FF9A6C"/>
<path d="M155.81 113.812C156.091 113.91 156.389 113.951 156.686 113.934C157.002 113.897 157.298 113.761 157.531 113.544C157.81 113.266 157.973 112.893 157.985 112.499C157.995 112.338 157.977 112.177 157.931 112.022L158.012 112.091C156.546 111.932 155.415 112.05 155.41 111.995C155.653 111.917 155.905 111.876 156.16 111.873C156.784 111.818 157.411 111.818 158.035 111.873H158.099V111.936C158.153 112.113 158.178 112.297 158.171 112.481C158.153 112.929 157.958 113.351 157.631 113.657C157.367 113.897 157.029 114.038 156.673 114.057C156.52 114.076 156.365 114.064 156.216 114.022C156.068 113.98 155.93 113.908 155.81 113.812Z" fill="#263238"/>
<path d="M171.573 103.529C171.151 102.642 170.529 101.865 169.757 101.258C168.092 99.8289 166.132 98.7852 164.017 98.2021L162.859 97.3711C162.527 99.7189 163.767 104.033 165.474 105.591C166.019 106.085 166.66 106.499 166.973 107.189C167.259 107.956 167.25 108.802 166.95 109.564C166.65 110.319 166.392 111.091 166.178 111.875C166.084 112.217 166.107 112.579 166.242 112.906C166.351 113.094 166.512 113.246 166.705 113.344C166.898 113.442 167.116 113.483 167.332 113.46C167.769 113.409 168.179 113.222 168.503 112.924C169.178 112.275 169.724 111.505 170.115 110.654C170.756 109.57 171.273 108.419 171.659 107.221C172.045 106.015 172.015 104.715 171.573 103.529Z" fill="#FFD000"/>
<path d="M167.19 111.406C167.272 111.406 170.369 111.96 168.879 114.753C167.39 117.546 164.974 115.484 165.01 115.402C165.047 115.321 167.19 111.406 167.19 111.406Z" fill="#FCCFCF"/>
<path d="M166.405 114.793C166.405 114.793 166.432 114.856 166.491 114.938C166.578 115.047 166.703 115.118 166.84 115.138C167.08 115.118 167.31 115.034 167.507 114.896C167.704 114.758 167.861 114.57 167.962 114.352C168.095 114.114 168.177 113.851 168.203 113.58C168.224 113.48 168.221 113.376 168.194 113.278C168.167 113.179 168.117 113.088 168.048 113.013C168 112.971 167.938 112.948 167.874 112.948C167.809 112.948 167.747 112.971 167.699 113.013C167.617 113.072 167.608 113.135 167.59 113.135C167.572 113.135 167.553 113.053 167.64 112.949C167.692 112.891 167.763 112.851 167.84 112.835C167.944 112.818 168.052 112.843 168.139 112.904C168.238 112.989 168.314 113.099 168.359 113.222C168.405 113.345 168.418 113.478 168.398 113.607C168.385 113.914 168.3 114.213 168.148 114.479C167.826 115.029 167.267 115.388 166.813 115.306C166.728 115.288 166.648 115.251 166.579 115.198C166.511 115.144 166.456 115.076 166.418 114.997C166.373 114.874 166.391 114.793 166.405 114.793Z" fill="#FF9A6C"/>
<path d="M168.666 110.206C169.018 110.199 169.368 110.155 169.711 110.074C170.109 109.966 170.488 109.794 170.832 109.566C171.287 109.262 171.667 108.86 171.945 108.389L172.004 108.517C171.297 108.615 170.577 108.498 169.938 108.181L169.774 108.099L169.942 108.017C170.287 107.839 170.594 107.595 170.844 107.298C171.094 107.001 171.283 106.657 171.4 106.287L171.495 106.419C170.662 106.432 169.832 106.315 169.034 106.074C167.665 105.661 166.428 104.897 165.446 103.857C164.11 102.394 163.334 100.506 163.253 98.5262C163.241 98.3099 163.241 98.0931 163.253 97.8768C163.251 97.8017 163.26 97.7266 163.28 97.6543C163.28 97.6543 163.28 97.9631 163.326 98.5217C163.39 99.2971 163.556 100.061 163.821 100.792C164.205 101.876 164.81 102.869 165.596 103.708C166.358 104.504 167.274 105.137 168.29 105.566C169.305 105.994 170.398 106.211 171.5 106.201H171.631L171.591 106.332C171.462 106.723 171.257 107.085 170.988 107.397C170.719 107.708 170.392 107.964 170.024 108.149V107.985C170.63 108.293 171.315 108.412 171.99 108.326H172.149L172.063 108.462C171.769 108.95 171.365 109.363 170.882 109.666C170.527 109.895 170.133 110.06 169.72 110.151C169.459 110.212 169.192 110.239 168.925 110.233C168.838 110.237 168.751 110.227 168.666 110.206Z" fill="#455A64"/>
<path d="M153.431 100.148C153.454 100.066 153.492 99.9891 153.544 99.9212C153.667 99.715 153.807 99.519 153.962 99.3354C154.515 98.6804 155.226 98.1771 156.028 97.8732V98.0412L154.166 97.7688L153.889 97.7279L154.135 97.5871C156.144 96.3965 158.518 95.9769 160.814 96.4064C161.317 96.5003 161.809 96.6402 162.286 96.8242C162.463 96.8861 162.634 96.9668 162.794 97.0649C162.138 96.8492 161.467 96.6777 160.787 96.5517C159.133 96.2889 157.439 96.4451 155.86 97.0058C155.296 97.211 154.75 97.4648 154.23 97.7642L154.198 97.5826L156.06 97.8777L156.396 97.9322L156.074 98.0458C155.289 98.3266 154.585 98.7942 154.021 99.4081C153.621 99.8531 153.449 100.162 153.431 100.148Z" fill="#455A64"/>
<path d="M154.375 85.8477C154.375 85.8477 144.317 95.1025 141.874 103.799C140.093 110.129 141.419 118.734 141.419 118.734H148.599L148.345 106.183L157.84 88.318L154.375 85.8477Z" fill="#FCCFCF"/>
<path d="M165.278 157.561L170.828 174.459L155.288 177.083L150.965 168.741L147.227 177.547L131.992 175.371L137.455 154.441L159.307 155.345L164.034 155.604L165.278 157.561Z" fill="#263238"/>
<path d="M136.32 156.616L140.497 143.969L140.32 122.858L140.066 111.918L148.912 112.681L149.879 116.813L151.887 118.807C150.733 122.894 158.121 124.837 162.508 121.986C165.047 122.44 168.916 125.037 169.851 126.163L177.948 136.771L168.412 140.999L166.028 137.566L164.983 147.557L167.608 156.085L136.32 156.616Z" fill="#FFD000"/>
<path d="M170.828 139.955C171.15 140.196 173.18 142.566 173.18 142.566L165.955 149.419L168.457 153.96C168.457 153.96 180.019 147.117 180.827 145.114C181.636 143.111 179.043 139.56 178.239 138.107L177.558 137.09L170.828 139.955Z" fill="#FCCFCF"/>
<path d="M166.159 136.618C166.34 136.188 166.492 135.747 166.613 135.297C166.881 134.479 167.263 133.353 167.749 132.118C168.235 130.883 168.716 129.811 169.084 129.03C169.301 128.618 169.49 128.191 169.651 127.754C169.373 128.13 169.132 128.533 168.934 128.957C168.41 129.956 167.94 130.982 167.526 132.032C167.109 133.08 166.752 134.15 166.454 135.238C166.306 135.686 166.207 136.149 166.159 136.618Z" fill="#263238"/>
<path d="M142.809 118.276C142.809 118.344 144.23 117.981 145.988 117.649C147.745 117.318 149.167 117.145 149.167 117.072C148.849 117.04 148.529 117.048 148.213 117.095C147.627 117.145 146.823 117.25 145.942 117.418C145.061 117.586 144.271 117.785 143.708 117.949C143.396 118.019 143.093 118.129 142.809 118.276Z" fill="#263238"/>
<path d="M143.372 119.32C143.733 119.3 144.092 119.249 144.444 119.166C145.098 119.057 146.01 118.916 147.018 118.82C148.027 118.725 148.948 118.689 149.616 118.675C149.977 118.692 150.339 118.676 150.697 118.625C150.343 118.543 149.98 118.505 149.616 118.512C148.742 118.477 147.867 118.501 146.996 118.584C146.125 118.668 145.26 118.807 144.407 119.002C144.05 119.062 143.701 119.169 143.372 119.32Z" fill="#263238"/>
<path d="M145.951 134.328C146.064 134.567 146.196 134.796 146.346 135.014C146.61 135.445 147.005 136.063 147.504 136.83C148.503 138.347 149.92 140.413 151.56 142.638C153.199 144.864 154.738 146.839 155.906 148.238C156.482 148.941 156.955 149.505 157.268 149.886C157.432 150.091 157.611 150.284 157.804 150.463C157.669 150.24 157.517 150.027 157.35 149.827L156.028 148.133C154.911 146.707 153.381 144.727 151.741 142.502C150.102 140.277 148.667 138.224 147.654 136.735L146.433 134.973C146.288 134.747 146.127 134.531 145.951 134.328Z" fill="#263238"/>
<path d="M144.952 128.676C144.951 129.088 145.073 129.492 145.302 129.835C145.53 130.179 145.856 130.447 146.237 130.605C146.618 130.763 147.037 130.805 147.442 130.725C147.847 130.644 148.219 130.446 148.511 130.154C148.802 129.862 149.001 129.49 149.081 129.086C149.162 128.681 149.12 128.261 148.962 127.88C148.803 127.499 148.535 127.174 148.192 126.945C147.848 126.716 147.445 126.595 147.032 126.596C146.481 126.596 145.952 126.815 145.562 127.205C145.171 127.595 144.952 128.124 144.952 128.676Z" fill="white"/>
<path d="M147.028 130.769C147.442 130.77 147.848 130.648 148.193 130.418C148.537 130.188 148.806 129.861 148.966 129.479C149.125 129.096 149.166 128.675 149.086 128.268C149.005 127.862 148.806 127.488 148.513 127.195C148.22 126.902 147.846 126.703 147.44 126.622C147.033 126.541 146.612 126.583 146.229 126.742C145.846 126.901 145.519 127.17 145.29 127.515C145.06 127.86 144.938 128.266 144.939 128.68C144.94 129.234 145.16 129.764 145.552 130.156C145.943 130.547 146.474 130.768 147.028 130.769ZM147.028 126.609C147.437 126.608 147.838 126.729 148.179 126.956C148.521 127.183 148.787 127.506 148.944 127.884C149.102 128.263 149.143 128.679 149.064 129.081C148.984 129.483 148.788 129.853 148.498 130.143C148.209 130.433 147.84 130.63 147.438 130.711C147.036 130.791 146.62 130.75 146.241 130.594C145.862 130.437 145.539 130.172 145.311 129.831C145.083 129.49 144.962 129.09 144.962 128.68C144.961 128.408 145.014 128.139 145.117 127.887C145.221 127.636 145.373 127.407 145.565 127.214C145.757 127.022 145.985 126.869 146.236 126.764C146.487 126.659 146.756 126.605 147.028 126.605V126.609Z" fill="#263238"/>
<path d="M166.241 149.15L163.93 151.389L162.422 152.247C162.422 152.247 158.648 154.182 158.648 154.972C158.648 156.044 159.806 155.426 159.806 155.426L162.495 154.282C162.495 154.282 159.084 156.634 159.279 157.579C159.37 158.033 160.274 158.01 160.274 158.01L162.658 156.543C162.658 156.543 160.206 158.864 160.719 159.527C161.309 160.29 161.791 159.772 161.791 159.772L164.216 157.719C164.216 157.719 162.245 160.544 163.103 160.975C163.961 161.407 164.375 160.194 164.375 160.194L168.539 153.628L166.241 149.15Z" fill="#FCCFCF"/>
<path d="M153.599 86.7199C153.599 86.7199 156.378 82.6738 157.908 81.9063C159.439 81.1389 161.364 79.3587 161.995 79.5404C162.626 79.722 162.608 79.9945 162.608 79.9945C162.608 79.9945 163.239 79 163.83 79C164.42 79 164.434 79.3724 164.434 79.3724C164.434 79.3724 164.974 78.9637 165.283 79.0182C165.778 79.1044 165.737 79.6903 165.737 79.6903C165.799 79.8135 165.832 79.9496 165.832 80.0876C165.832 80.2256 165.799 80.3617 165.737 80.4849C165.555 80.7302 164.579 82.0062 164.579 82.0062C164.659 82.0295 164.733 82.0692 164.797 82.1228C164.861 82.1763 164.913 82.2426 164.95 82.3174C164.986 82.3922 165.007 82.4738 165.011 82.5571C165.014 82.6403 165 82.7234 164.97 82.8009C164.738 83.3867 161.527 87.1831 159.752 87.9233C158.694 88.3674 157.557 88.5959 156.41 88.5954L153.599 86.7199Z" fill="#FCCFCF"/>
<path d="M159.965 82.8968C160.555 82.5287 161.083 82.0688 161.528 81.5344C161.863 81.1817 162.179 80.8103 162.472 80.4219C162.577 80.2856 162.695 80.1221 162.649 79.9677C162.604 79.8134 162.517 79.8315 162.517 79.8497C162.517 79.8678 162.558 79.8951 162.558 79.9859C162.558 80.0767 162.477 80.163 162.345 80.2992L161.355 81.3573C160.855 81.8356 160.39 82.3502 159.965 82.8968Z" fill="#FF9A6C"/>
<path d="M160.914 84.3593C160.914 84.3593 160.964 84.4092 161.073 84.4637C161.234 84.5466 161.414 84.5858 161.595 84.5772C161.729 84.5504 161.856 84.4961 161.968 84.418C162.079 84.3399 162.174 84.2395 162.245 84.1231C162.423 83.8813 162.614 83.6493 162.817 83.4283C163.184 83.0243 163.582 82.6493 164.007 82.3067C164.133 82.2045 164.27 82.1162 164.415 82.0433C164.515 81.9979 164.565 82.0161 164.579 81.9979C164.593 81.9797 164.52 81.9252 164.388 81.957C164.225 82.0001 164.071 82.0724 163.934 82.1705C163.466 82.4822 163.039 82.8514 162.663 83.2694C162.208 83.7235 161.968 84.3638 161.591 84.4183C161.439 84.4374 161.284 84.425 161.137 84.382C160.987 84.3502 160.919 84.3411 160.914 84.3593Z" fill="#FF9A6C"/>
<path d="M158.321 85.7753C158.826 85.4608 159.247 85.0281 159.546 84.5146C159.846 84.0011 160.017 83.4222 160.042 82.8281C159.974 82.8281 159.825 83.582 159.343 84.3948C158.862 85.2077 158.276 85.7208 158.321 85.7753Z" fill="#FF9A6C"/>
<path d="M161.282 83.0868C162.577 82.0331 163.669 80.7529 164.506 79.3086C163.933 79.9061 163.392 80.5337 162.885 81.1886C162.316 81.7914 161.781 82.4251 161.282 83.0868Z" fill="#FF9A6C"/>
<mask id="mask0_705_27193" style="mask-type:alpha" maskUnits="userSpaceOnUse" x="12" y="40" width="161" height="155">
<path fill-rule="evenodd" clip-rule="evenodd" d="M95.3511 40.0786C119.484 41.5624 131.191 65.3973 145.943 82.1754C157.899 95.7741 168.961 109.409 171.286 126.445C173.971 146.122 175.558 168.605 159.663 182.721C143.717 196.882 117.964 195.809 95.3511 193.883C72.1366 194.322 53.3796 187.342 42.4481 172.737C26.9316 160.174 13.0786 144.922 12.0648 126.445C11.0113 107.244 22.9446 90.1752 37.1121 75.4837C52.9597 59.05 70.8381 38.5713 95.3511 40.0786Z" fill="#FFF3CC"/>
</mask>
<g mask="url(#mask0_705_27193)">
<path d="M30.7759 180.809L17.7383 225.337C17.7383 225.337 26.4939 227.196 26.4939 226.637C26.4939 226.078 35.2236 211.176 35.6999 208.385C36.2138 205.933 36.8707 203.512 37.6675 201.136L44.5591 183.066L30.7759 180.809Z" fill="#FCCFCF"/>
<path d="M70.5152 180.809L83.558 225.337C83.558 225.337 74.8179 227.191 74.8179 226.632C74.8179 226.073 66.0882 211.171 65.6067 208.38C65.0929 205.928 64.4359 203.507 63.6392 201.131L56.7476 183.061L70.5152 180.809Z" fill="#FCCFCF"/>
<path d="M33.5874 161.671L26.9495 184.639L45.5376 188.207L50.1821 175.433L55.1838 188.833L73.4147 185.872L66.8752 157.436L40.7327 158.668L35.0785 159.02L33.5874 161.671Z" fill="#263238"/>
<path d="M167.917 173.973L178.815 211.183C178.815 211.183 171.499 212.74 171.499 212.272C171.499 211.805 164.215 199.339 163.829 197.014C163.4 194.96 162.851 192.933 162.186 190.943L156.427 175.844L167.917 173.973Z" fill="#FCCFCF"/>
<path d="M134.721 173.973L123.822 211.183C123.822 211.183 131.133 212.74 131.133 212.272C131.133 211.805 138.435 199.339 138.853 197.014C139.283 194.96 139.832 192.933 140.497 190.943L146.26 175.844L134.721 173.973Z" fill="#FCCFCF"/>
</g>
<path d="M47.9979 76.3633C47.9979 76.3633 60.031 87.4385 62.9565 97.8406C65.0897 105.416 63.5053 115.714 63.5053 115.714H54.9154L55.2105 100.699L43.8557 79.3198L47.9979 76.3633Z" fill="#FCCFCF"/>
<path d="M38.1678 101.869C36.0858 99.3485 33.125 97.7127 29.8834 97.2914L30.0387 97.0273C28.692 97.2103 27.4639 97.8948 26.5999 98.944C25.736 99.9932 25.2999 101.33 25.3787 102.687C25.567 103.781 25.8565 104.856 26.2434 105.897C26.5489 106.963 26.6991 108.154 26.2434 109.154C25.9897 109.671 25.5703 110.127 25.2804 110.645C25.1159 110.891 25.0201 111.177 25.0028 111.473C24.9856 111.769 25.0474 112.064 25.182 112.328C25.6014 112.959 26.5334 112.97 27.2531 112.737C27.9728 112.504 28.6666 112.095 29.4277 112.131C29.2972 112.413 29.2235 112.718 29.2109 113.029C29.1982 113.34 29.2469 113.65 29.3542 113.941C29.5707 114.531 30.0125 115.01 30.5824 115.274C31.1523 115.537 31.8036 115.564 32.393 115.347C32.9824 115.131 33.4616 114.689 33.7253 114.119C33.8369 114.777 34.1738 115.375 34.6783 115.812C35.1827 116.248 35.8233 116.495 36.4902 116.511C37.1521 116.492 37.7998 116.315 38.3791 115.995C38.9583 115.674 39.4523 115.219 39.8195 114.668C40.5471 113.545 40.9585 112.246 41.0104 110.909C41.2465 107.644 40.2301 104.411 38.1678 101.869Z" fill="#FFD000"/>
<path d="M50.6618 88.5776C50.369 88.2245 49.9816 87.9624 49.545 87.822C49.1084 87.6817 48.6407 87.669 48.1971 87.7854C47.3157 88.0355 46.491 88.4539 45.7688 89.0177C45.6284 87.8031 45.2463 86.6288 44.6452 85.5641C43.9773 84.5286 42.7501 83.7933 41.5385 84.0522C40.503 84.2749 39.7729 85.1603 39.2551 86.0767C38.7374 86.9932 38.3646 88.0028 37.6656 88.7847C35.843 90.8144 32.5655 90.6435 30.3131 92.1865C28.0608 93.7294 27.1029 97.5765 28.5579 99.9531C33.368 99.7615 38.2196 99.57 42.9521 100.44C45.5099 100.911 48.3525 101.636 50.553 100.253C51.2411 99.8201 51.7994 99.2091 52.169 98.4847C52.5386 97.7604 52.7057 96.9497 52.6526 96.1383C52.5996 95.3269 52.3284 94.5448 51.8677 93.8747C51.407 93.2047 50.7739 92.6715 50.0352 92.3315C50.7446 91.1872 51.4384 89.6804 50.6618 88.5776Z" fill="#FFD000"/>
<path d="M48.2464 95.924C46.5636 92.6982 41.5153 90.9689 38.3724 92.7811L28.5347 99.5743L29.3579 101.34L39.817 123.149C39.817 123.149 43.8971 129.88 49.7324 126.799C54.9723 124.039 52.1453 118.463 52.1453 118.458L50.1311 114.367C50.1311 114.367 54.4183 112.255 52.8494 106.336C52.0883 103.39 50.1104 99.507 48.2464 95.924Z" fill="#FCCFCF"/>
<path d="M48.7692 101.642C48.8132 101.734 48.8385 101.834 48.8438 101.936C48.849 102.037 48.8342 102.139 48.8 102.236C48.7659 102.332 48.7131 102.42 48.6448 102.496C48.5764 102.572 48.4938 102.633 48.4016 102.677C48.3137 102.728 48.2163 102.76 48.1154 102.772C48.0145 102.783 47.9123 102.774 47.8152 102.744C47.7181 102.715 47.6281 102.665 47.5508 102.599C47.4736 102.534 47.4107 102.453 47.3661 102.361C47.3222 102.269 47.2969 102.169 47.2916 102.067C47.2863 101.965 47.3011 101.864 47.3353 101.767C47.3694 101.671 47.4222 101.583 47.4905 101.507C47.5589 101.431 47.6415 101.37 47.7337 101.326C47.8218 101.276 47.9192 101.244 48.0199 101.233C48.1206 101.222 48.2225 101.231 48.3194 101.261C48.4163 101.291 48.5062 101.34 48.5835 101.405C48.6609 101.47 48.7241 101.551 48.7692 101.642Z" fill="#263238"/>
<path d="M48.9159 100.005C48.8128 100.103 48.2394 99.6562 47.4182 99.5882C46.5969 99.5201 45.9482 99.9196 45.8639 99.8121C45.7795 99.7045 45.9338 99.586 46.2116 99.4088C46.5853 99.1866 47.0182 99.0844 47.4518 99.1162C47.8851 99.1414 48.2994 99.3021 48.6364 99.5755C48.8887 99.7755 48.965 99.9663 48.9159 100.005Z" fill="#263238"/>
<path d="M42.3387 104.487C42.3826 104.58 42.4079 104.679 42.4132 104.781C42.4185 104.883 42.4037 104.985 42.3695 105.081C42.3354 105.178 42.2826 105.266 42.2142 105.342C42.1459 105.418 42.0633 105.479 41.9711 105.523C41.8834 105.575 41.7859 105.607 41.6848 105.619C41.5838 105.631 41.4813 105.622 41.384 105.592C41.2866 105.563 41.1965 105.513 41.1193 105.447C41.0421 105.381 40.9796 105.299 40.9355 105.207C40.8902 105.115 40.8638 105.015 40.8578 104.913C40.8518 104.811 40.8663 104.708 40.9006 104.612C40.9349 104.515 40.9882 104.426 41.0573 104.351C41.1264 104.275 41.21 104.214 41.3032 104.172C41.3911 104.121 41.4885 104.089 41.5894 104.077C41.6903 104.066 41.7924 104.075 41.8896 104.104C41.9867 104.134 42.0767 104.183 42.154 104.249C42.2312 104.315 42.2941 104.396 42.3387 104.487Z" fill="#263238"/>
<path d="M41.2236 101.913C41.2453 102.053 40.5385 102.245 40.0252 102.903C39.5119 103.561 39.4567 104.299 39.3202 104.306C39.1837 104.314 39.1771 104.124 39.1882 103.79C39.2147 103.353 39.376 102.934 39.65 102.592C39.9184 102.251 40.2871 102.003 40.7041 101.883C41.0197 101.804 41.2336 101.843 41.2236 101.913Z" fill="#263238"/>
<path d="M46.1133 106.57C46.4764 106.29 46.8647 106.044 47.2731 105.835C47.4595 105.732 47.6304 105.618 47.62 105.504C47.6097 105.39 47.4699 105.245 47.299 105.115L46.2634 104.225C45.3572 103.465 44.493 102.656 43.6746 101.802C43.747 101.739 45.0208 102.723 46.5172 103.997L47.5527 104.903C47.7029 105.043 47.91 105.178 47.91 105.452C47.9 105.525 47.8746 105.595 47.8353 105.658C47.796 105.72 47.7438 105.774 47.6822 105.814C47.5861 105.888 47.4818 105.951 47.3715 106.001C46.9737 106.235 46.5519 106.426 46.1133 106.57Z" fill="#263238"/>
<path d="M50.2036 114.383C47.6165 115.577 44.7482 116.029 41.9192 115.688C41.9192 115.688 45.5436 118.711 50.8301 115.739L50.2036 114.383Z" fill="#FF9A6C"/>
<path d="M40.2209 100.093C40.2209 100.367 39.5012 100.481 38.7297 100.89C37.9582 101.299 37.399 101.817 37.2178 101.625C37.1297 101.537 37.166 101.263 37.3472 100.926C37.5797 100.524 37.923 100.197 38.3362 99.9839C38.7371 99.7751 39.1929 99.6955 39.6409 99.7561C39.993 99.8182 40.2105 99.9632 40.2209 100.093Z" fill="#263238"/>
<path d="M47.4335 96.6592C47.4076 96.9336 46.7604 97.0113 46.1184 97.3427C45.4763 97.674 45.0052 98.109 44.767 97.9692C44.6582 97.8967 44.6375 97.6533 44.767 97.3375C44.9603 96.9516 45.276 96.6407 45.6648 96.4533C46.0536 96.266 46.4935 96.2127 46.9157 96.3019C47.2627 96.3692 47.4439 96.5349 47.4335 96.6592Z" fill="#263238"/>
<path d="M46.3772 92.9987C45.433 92.3058 44.36 91.8083 43.2211 91.5354C42.0821 91.2624 40.9002 91.2195 39.7445 91.4091C37.4254 91.7928 35.2344 92.7346 33.3603 94.1533C31.4994 95.5635 29.7558 97.1219 28.1463 98.8133C27.9386 98.937 27.759 99.1026 27.6189 99.2996C27.4788 99.4966 27.3813 99.7206 27.3326 99.9573C27.2839 100.194 27.285 100.438 27.336 100.675C27.3869 100.911 27.4866 101.134 27.6285 101.33L31.9985 110.049L33.5933 111.525C34.5564 111.116 35.0638 110.054 35.3796 109.055C36.458 105.509 36.1375 101.685 34.4839 98.368C34.9003 98.6619 35.2673 99.0202 35.5712 99.4295C35.7263 99.6326 35.9272 99.7962 36.1576 99.9069C36.3879 100.018 36.6412 100.072 36.8967 100.066C37.7355 99.9421 37.9996 98.8133 37.7821 97.9952C37.5646 97.1771 37.0676 96.3953 37.1504 95.5461C38.4049 96.3278 39.822 96.8114 41.2926 96.9597C41.9813 97.0322 42.8149 96.9597 43.1411 96.3435C43.2385 96.1184 43.2708 95.8704 43.2341 95.6278C43.1975 95.3852 43.0935 95.1578 42.934 94.9714C42.6136 94.6021 42.2251 94.298 41.7897 94.0757C43.1443 94.6771 44.6448 94.8714 46.1079 94.6349C46.27 94.6311 46.429 94.5893 46.572 94.5128C46.715 94.4364 46.838 94.3274 46.9312 94.1947C47.1176 93.765 46.7448 93.2886 46.3772 92.9987Z" fill="#FFD000"/>
<path d="M33.293 107.057C33.1895 107.057 29.4563 107.574 31.0821 110.904C32.7079 114.233 35.7058 111.903 35.6644 111.805C35.623 111.706 33.293 107.057 33.293 107.057Z" fill="#FCCFCF"/>
<path d="M34.0336 111.044C34.0336 111.044 33.9973 111.116 33.9248 111.204C33.8151 111.33 33.6614 111.41 33.4951 111.427C33.2145 111.396 32.9472 111.291 32.7206 111.123C32.494 110.954 32.3163 110.729 32.2058 110.469C32.0547 110.19 31.9696 109.88 31.9573 109.563C31.9381 109.444 31.9478 109.322 31.9857 109.207C32.0235 109.093 32.0884 108.989 32.1748 108.905C32.2339 108.857 32.308 108.83 32.3845 108.83C32.4609 108.83 32.535 108.857 32.5942 108.905C32.6873 108.978 32.6977 109.055 32.7184 109.05C32.7391 109.045 32.7598 108.962 32.6666 108.838C32.6083 108.764 32.5258 108.712 32.4336 108.693C32.308 108.672 32.179 108.697 32.0712 108.765C31.9495 108.861 31.8539 108.985 31.7933 109.127C31.7326 109.269 31.7089 109.424 31.7243 109.578C31.7209 109.939 31.8062 110.294 31.9728 110.614C32.3249 111.271 32.9721 111.732 33.5261 111.649C33.6284 111.632 33.7254 111.592 33.8098 111.532C33.8941 111.472 33.9636 111.394 34.0129 111.302C34.0698 111.126 34.0491 111.044 34.0336 111.044Z" fill="#FF9A6C"/>
<path d="M33.6089 98.2695C33.6156 98.3453 33.6156 98.4216 33.6089 98.4974C33.6216 98.7164 33.6216 98.9359 33.6089 99.1549C33.5763 99.9604 33.46 100.76 33.262 101.542C33.125 102.083 32.952 102.614 32.7443 103.131C32.6303 103.411 32.5113 103.696 32.3611 103.986C32.2159 104.3 31.9842 104.565 31.6932 104.752C31.5263 104.84 31.3398 104.883 31.1513 104.879C30.9629 104.874 30.7787 104.822 30.6162 104.726C30.2875 104.536 30.0185 104.258 29.8395 103.924C29.4823 103.235 29.4926 102.443 29.2596 101.728C29.2286 101.63 29.1923 101.542 29.1561 101.454H29.3373L28.6383 103.561C28.5244 103.898 28.4157 104.229 28.3017 104.555C28.2129 104.898 28.0342 105.211 27.784 105.461C27.7139 105.524 27.632 105.573 27.5432 105.604C27.4543 105.635 27.3602 105.648 27.2662 105.643C27.0901 105.632 26.9218 105.567 26.7847 105.456C26.5466 105.253 26.3528 105.002 26.2151 104.721C25.5732 103.543 25.3093 102.197 25.4592 100.864C25.4879 100.643 25.5329 100.425 25.5938 100.211C25.6085 100.139 25.6293 100.068 25.6559 99.9989C25.6559 99.9989 25.599 100.299 25.5575 100.848C25.495 101.619 25.5669 102.395 25.7698 103.142C25.9112 103.656 26.1146 104.152 26.3756 104.617C26.5005 104.876 26.6767 105.107 26.8934 105.296C26.9998 105.388 27.1358 105.439 27.2765 105.439C27.4173 105.439 27.5533 105.388 27.6597 105.296C27.8812 105.062 28.0382 104.775 28.1153 104.462C28.2223 104.138 28.3311 103.806 28.4415 103.468C28.6694 102.79 28.8972 102.086 29.1354 101.371L29.2182 101.122L29.3166 101.355C29.358 101.449 29.3943 101.547 29.4305 101.645C29.6738 102.401 29.6635 103.199 29.9897 103.815C30.1511 104.117 30.3931 104.368 30.6887 104.54C30.8231 104.623 30.977 104.67 31.135 104.675C31.2931 104.681 31.4498 104.645 31.5896 104.571C31.8563 104.408 32.0674 104.168 32.1954 103.882C32.3404 103.608 32.4647 103.323 32.5786 103.049C32.7858 102.543 32.9588 102.024 33.0963 101.495C33.3049 100.724 33.4418 99.9356 33.5054 99.1394C33.5054 98.8546 33.5416 98.6216 33.5468 98.487C33.5559 98.4117 33.5768 98.3383 33.6089 98.2695Z" fill="#455A64"/>
<path d="M44.1404 108.164C44.115 108.742 44.2417 109.317 44.508 109.831C44.6311 110.036 44.8048 110.206 45.0124 110.325C45.22 110.444 45.4546 110.507 45.6937 110.51C45.9517 110.482 46.1987 110.391 46.4121 110.243C46.6255 110.096 46.7987 109.897 46.9157 109.666C47.1399 109.2 47.2834 108.699 47.3403 108.185C46.3617 108.164 45.1345 108.18 44.1404 108.164Z" fill="#FF9A6C"/>
<path d="M46.7397 110.292C46.5893 110.409 46.4168 110.494 46.2325 110.542C46.0483 110.59 45.8561 110.6 45.6679 110.572C45.2444 110.535 44.847 110.352 44.5443 110.054C44.3601 109.872 44.2142 109.655 44.1155 109.416C44.0168 109.176 43.9671 108.92 43.9696 108.661C43.9703 108.444 44.0089 108.228 44.0835 108.024L44.1094 107.952H44.187C44.9345 107.907 45.6844 107.925 46.429 108.003C46.7307 108.018 47.0288 108.076 47.3144 108.174C47.3144 108.242 45.963 108.06 44.2077 108.174L44.3113 108.097C44.2464 108.276 44.2131 108.465 44.2129 108.656C44.2179 109.118 44.4037 109.561 44.7307 109.888C44.9973 110.155 45.3452 110.327 45.7197 110.375C46.0619 110.41 46.4076 110.382 46.7397 110.292Z" fill="#263238"/>
<path d="M68.3672 161.018L66.6275 145.407L64.8153 120.647L65.1208 107.553L54.5375 108.495L53.3776 113.435L50.9648 115.801C52.3473 120.684 43.5036 123.014 38.2586 119.632C35.2192 120.197 30.5903 123.257 29.4564 124.629L19.7947 137.325L31.1858 142.378L34.0335 138.272L35.2865 150.233L34.0853 160.469L68.3672 161.018Z" fill="#FFD000"/>
<path d="M28.312 141.115C27.9237 141.405 25.5005 144.222 25.5005 144.222L34.1422 152.423L31.1495 157.86C31.1495 157.86 17.3093 149.689 16.3462 147.277C15.3832 144.864 18.4795 140.628 19.4529 138.894L20.2658 137.672L28.312 141.115Z" fill="#FCCFCF"/>
<path d="M33.878 137.113C33.6759 136.595 33.503 136.066 33.3603 135.529C33.0444 134.55 32.5836 133.204 32.0037 131.739C31.4238 130.273 30.8439 128.979 30.4038 128.047C30.1507 127.552 29.9277 127.042 29.7358 126.52C30.0673 126.972 30.3534 127.456 30.5902 127.964C31.2165 129.159 31.7783 130.386 32.2729 131.64C32.7701 132.895 33.1988 134.176 33.557 135.477C33.7195 136.01 33.8271 136.558 33.878 137.113Z" fill="#263238"/>
<path d="M61.838 115.164C61.838 115.242 60.1397 114.802 58.0479 114.408C55.9561 114.015 54.2319 113.803 54.2371 113.725C54.6165 113.685 54.9995 113.695 55.3762 113.756C56.0752 113.818 57.0434 113.942 58.0945 114.144C59.1456 114.346 60.0931 114.579 60.7662 114.776C61.1378 114.862 61.4977 114.992 61.838 115.164Z" fill="#263238"/>
<path d="M61.1651 116.413C60.7343 116.387 60.3066 116.325 59.8862 116.227C59.0992 116.092 58.0118 115.927 56.7795 115.808C55.5472 115.689 54.4702 115.652 53.6729 115.642C53.2405 115.658 52.8076 115.639 52.3784 115.585C52.8022 115.484 53.2374 115.439 53.6729 115.45C54.7093 115.411 55.7473 115.442 56.7795 115.544C57.8257 115.645 58.8637 115.818 59.8862 116.061C60.3262 116.121 60.7563 116.24 61.1651 116.413Z" fill="#263238"/>
<path d="M58.0789 134.385C58.0501 134.462 58.0119 134.535 57.965 134.602L57.6026 135.203C57.2867 135.721 56.8104 136.456 56.2149 137.362C55.024 139.174 53.3206 141.644 51.3582 144.316C49.3958 146.987 47.5422 149.338 46.1804 151.016C45.4918 151.855 44.9274 152.528 44.5287 152.983L44.0627 153.501C44.0146 153.566 43.957 153.624 43.8918 153.672C43.8918 153.672 43.9281 153.594 44.0213 153.465C44.1145 153.335 44.2802 153.133 44.4459 152.911L46.0303 150.891C47.3661 149.183 49.1991 146.811 51.1562 144.16C53.1134 141.509 54.8376 139.045 56.0699 137.258C56.6706 136.394 57.1624 135.705 57.5301 135.146L57.9391 134.576C58.0168 134.437 58.0686 134.385 58.0789 134.385Z" fill="#263238"/>
<path d="M59.2491 127.603C59.2501 128.096 59.1048 128.578 58.8315 128.988C58.5582 129.398 58.1693 129.718 57.714 129.908C57.2587 130.097 56.7576 130.147 56.274 130.051C55.7904 129.955 55.3461 129.717 54.9975 129.369C54.6489 129.02 54.4116 128.576 54.3157 128.092C54.2197 127.609 54.2695 127.108 54.4586 126.652C54.6478 126.197 54.9678 125.808 55.3781 125.535C55.7885 125.261 56.2707 125.116 56.7637 125.117C57.4229 125.117 58.055 125.379 58.5211 125.845C58.9872 126.311 59.2491 126.943 59.2491 127.603Z" fill="white"/>
<path d="M56.7847 130.108C56.2888 130.109 55.8038 129.963 55.391 129.688C54.9782 129.413 54.6562 129.022 54.4657 128.564C54.2752 128.107 54.2249 127.602 54.321 127.116C54.4171 126.63 54.6553 126.183 55.0056 125.832C55.3559 125.481 55.8024 125.241 56.2887 125.144C56.7749 125.047 57.2791 125.096 57.7373 125.286C58.1955 125.475 58.5872 125.797 58.8628 126.209C59.1384 126.621 59.2855 127.106 59.2855 127.602C59.2855 128.265 59.0222 128.902 58.5533 129.372C58.0845 129.842 57.4484 130.106 56.7847 130.108ZM56.7847 125.127C56.2933 125.124 55.812 125.267 55.402 125.538C54.992 125.808 54.6717 126.195 54.4818 126.648C54.2918 127.101 54.2408 127.601 54.3351 128.083C54.4295 128.565 54.665 129.009 55.0117 129.357C55.3585 129.705 55.8008 129.942 56.2827 130.039C56.7646 130.135 57.2642 130.086 57.7182 129.898C58.1722 129.71 58.5601 129.392 58.8327 128.983C59.1053 128.574 59.2503 128.093 59.2493 127.602C59.2479 126.948 58.9881 126.32 58.5265 125.857C58.0649 125.393 57.4388 125.131 56.7847 125.127Z" fill="#263238"/>
<path d="M33.8004 152.104L36.5705 154.791L38.3672 155.826C38.3672 155.826 42.8822 158.141 42.8874 159.068C42.8874 160.347 41.4997 159.585 41.4997 159.585L38.2844 158.203C38.2844 158.203 42.3644 161.014 42.1314 162.148C42.0227 162.666 40.9405 162.666 40.9405 162.666L38.0876 160.916C38.0876 160.916 41.0182 163.691 40.4072 164.484C39.6979 165.4 39.1283 164.779 39.1283 164.779L36.2236 162.345C36.2236 162.345 38.5847 165.726 37.5543 166.239C36.5239 166.751 36.0372 165.307 36.0372 165.307L31.051 157.447L33.8004 152.104Z" fill="#FCCFCF"/>
<path d="M49.0076 77.331C49.0076 77.331 45.6421 72.8574 43.8609 72.0549C42.0798 71.2523 39.7964 69.3262 39.0715 69.5696C38.3466 69.8129 38.3984 70.1184 38.3984 70.1184C38.3984 70.1184 37.6476 69 36.9848 69C36.3221 69 36.3169 69.4505 36.3169 69.4505C36.3169 69.4505 35.6801 69.0104 35.3331 69.088C34.7688 69.2123 34.8154 69.875 34.8154 69.875C34.8154 69.875 34.5772 70.4394 34.8516 70.7812L36.2496 72.4587C36.1595 72.4895 36.0768 72.5385 36.0066 72.6029C35.9364 72.6672 35.8803 72.7454 35.8419 72.8325C35.8034 72.9196 35.7835 73.0137 35.7833 73.1089C35.783 73.2041 35.8025 73.2983 35.8406 73.3856C36.1357 74.038 39.9828 78.2061 42.0539 78.962C43.2818 79.4158 44.5879 79.62 45.8958 79.5626L49.0076 77.331Z" fill="#FCCFCF"/>
<path d="M41.5672 73.288C40.879 72.9043 40.2553 72.4151 39.7187 71.8382C39.3191 71.453 38.9423 71.045 38.59 70.6162C38.4605 70.4661 38.3207 70.2848 38.3673 70.1295C38.4139 69.9742 38.5123 69.9638 38.5071 69.9845C38.5019 70.0053 38.4657 70.0415 38.4709 70.1399C38.4761 70.2383 38.5693 70.3418 38.7298 70.4868L39.9051 71.6414C40.4962 72.1515 41.0516 72.7017 41.5672 73.288Z" fill="#FF9A6C"/>
<path d="M40.5575 74.9811C40.5575 74.9811 40.5005 75.0381 40.3763 75.1054C40.1988 75.209 39.9967 75.2627 39.7912 75.2607C39.6369 75.2347 39.4894 75.1777 39.3577 75.0931C39.226 75.0086 39.1128 74.8983 39.0249 74.7688C38.8133 74.4994 38.5851 74.2434 38.3414 74.0025C37.9032 73.5554 37.4306 73.1434 36.9279 72.7702C36.7819 72.6595 36.6239 72.5657 36.4567 72.4906C36.3376 72.4389 36.2807 72.4647 36.2651 72.444C36.2496 72.4233 36.3273 72.3612 36.4826 72.3871C36.6773 72.4282 36.8631 72.5036 37.0314 72.6097C37.5822 72.9431 38.0885 73.345 38.5382 73.8058C39.0974 74.3236 39.3821 75.0174 39.8171 75.064C39.992 75.0751 40.1675 75.054 40.3349 75.0018C40.4695 74.9708 40.5471 74.9604 40.5575 74.9811Z" fill="#FF9A6C"/>
<path d="M43.5812 76.4657C42.9652 76.1666 42.4556 75.686 42.1211 75.0884C41.7139 74.5392 41.4877 73.8769 41.4739 73.1934C41.5515 73.1934 41.7587 74.0425 42.3489 74.9434C42.9392 75.8444 43.6278 76.3932 43.5812 76.4657Z" fill="#FF9A6C"/>
<path d="M40.0916 73.5618C39.3039 73.0279 38.5916 72.3905 37.9739 71.6667C37.2907 71.0036 36.705 70.2471 36.2341 69.4196C36.2911 69.373 37.104 70.3412 38.1706 71.4907C38.8459 72.1478 39.4871 72.839 40.0916 73.5618Z" fill="#FF9A6C"/>
</g>
<defs>
<clipPath id="clip0_705_27193">
<rect width="200" height="200" fill="white"/>
</clipPath>
</defs>
</svg>
