<svg width="200" height="200" viewBox="0 0 200 200" fill="none" xmlns="http://www.w3.org/2000/svg">
<g clip-path="url(#clip0_752_25434)">
<path fill-rule="evenodd" clip-rule="evenodd" d="M95.3511 40.0786C119.484 41.5624 131.191 65.3973 145.943 82.1754C157.899 95.7741 168.961 109.409 171.286 126.445C173.971 146.122 175.558 168.605 159.663 182.721C143.717 196.882 117.964 195.809 95.3511 193.883C72.1366 194.322 53.3796 187.342 42.4481 172.737C26.9316 160.174 13.0786 144.922 12.0648 126.445C11.0113 107.244 22.9446 90.1752 37.1121 75.4837C52.9597 59.05 70.8381 38.5713 95.3511 40.0786Z" fill="#FFF3CC"/>
<path d="M92.0601 44.8647L92.9295 44.8164C97.1236 44.5763 101.254 45.9237 104.5 48.5907C107.746 51.2577 109.869 55.0488 110.446 59.2099C111.557 67.2599 108.823 69.6774 109 74.0002C109.411 82.968 102.184 88.5002 102.184 88.5002L104.707 94.952C104.833 96.3825 104.674 97.8237 104.241 99.1929C103.809 100.562 103.109 101.832 102.184 102.93C101.259 104.029 100.125 104.933 98.8495 105.592C97.5735 106.251 96.1799 106.651 94.7488 106.769C91.8972 106.998 89.07 106.096 86.8772 104.259C84.6845 102.422 83.302 99.796 83.028 96.9484L79.808 63.6937C78.5039 54.4362 82.7704 45.9515 92.0601 44.8647Z" fill="#FFBF9D"/>
<path d="M102 88.5007C97.8507 88.7417 93.6289 87.6491 90 85.6777C90 85.6777 94.1185 91.7827 103 90.5007L102 88.5007Z" fill="#FF9A6C"/>
<path d="M95.996 68.3284C96.0248 68.7349 95.8978 69.1368 95.6425 69.447C95.3872 69.7572 95.0242 69.9508 94.632 69.9858C94.4413 70.0133 94.2472 70.0008 94.0612 69.9492C93.8752 69.8975 93.7011 69.8078 93.5492 69.6852C93.3973 69.5627 93.2706 69.4099 93.1768 69.2358C93.083 69.0617 93.0238 68.8698 93.0028 68.6716C92.9789 68.2663 93.1076 67.8672 93.362 67.5581C93.6163 67.249 93.9765 67.054 94.3668 67.0142C94.5575 66.9867 94.7516 66.9992 94.9376 67.0509C95.1236 67.1025 95.2977 67.1922 95.4496 67.3148C95.6015 67.4373 95.7282 67.5901 95.822 67.7642C95.9158 67.9383 95.975 68.1302 95.996 68.3284Z" fill="#263238"/>
<path d="M108.788 63.701C108.635 63.8781 107.629 63.21 106.252 63.2985C104.876 63.3871 103.902 64.1035 103.749 63.9667C103.596 63.8298 103.813 63.5883 104.232 63.2422C104.804 62.793 105.501 62.5316 106.228 62.4935C106.943 62.4539 107.653 62.6397 108.257 63.0248C108.683 63.3227 108.844 63.6125 108.788 63.701Z" fill="#263238"/>
<path d="M107.997 68.3284C108.021 68.7337 107.892 69.1328 107.638 69.4419C107.384 69.751 107.023 69.946 106.633 69.9858C106.442 70.0133 106.248 70.0008 106.062 69.9491C105.876 69.8975 105.702 69.8078 105.55 69.6852C105.398 69.5627 105.271 69.4099 105.177 69.2358C105.084 69.0617 105.024 68.8698 105.003 68.6716C104.977 68.2657 105.105 67.8652 105.36 67.5556C105.615 67.2459 105.976 67.0516 106.368 67.0142C106.558 66.9867 106.753 66.9992 106.939 67.0509C107.125 67.1025 107.299 67.1922 107.451 67.3148C107.603 67.4373 107.729 67.5901 107.823 67.7642C107.917 67.9383 107.976 68.1302 107.997 68.3284Z" fill="#263238"/>
<path d="M95.256 64.7316C95.1111 64.9087 94.0968 64.2486 92.7202 64.3291C91.3437 64.4096 90.3777 65.1341 90.2167 64.9973C90.0557 64.8604 90.2811 64.6189 90.7077 64.2728C91.2758 63.8278 91.9674 63.5691 92.688 63.5322C93.4038 63.4864 94.1152 63.6727 94.7166 64.0635C95.1674 64.3613 95.3284 64.6511 95.256 64.7316Z" fill="#263238"/>
<path d="M100.835 74.6567C101.546 74.3823 102.29 74.201 103.049 74.1173C103.403 74.061 103.725 73.9724 103.773 73.7309C103.785 73.3658 103.684 73.0059 103.483 72.7005C103.097 71.8955 102.678 71.002 102.284 70.0843C100.626 66.3571 99.4019 63.29 99.5468 63.2256C99.6917 63.1612 101.157 66.1237 102.831 69.8508C103.234 70.7685 103.636 71.646 103.982 72.4832C104.225 72.8956 104.318 73.3786 104.248 73.8517C104.204 73.9799 104.132 74.0961 104.035 74.1911C103.939 74.2862 103.821 74.3574 103.693 74.3991C103.503 74.4654 103.305 74.506 103.105 74.5198C102.356 74.6547 101.594 74.7006 100.835 74.6567Z" fill="#263238"/>
<path d="M95.359 60.4005C95.2383 60.7788 93.8537 60.6822 92.2517 60.972C90.6498 61.2618 89.3698 61.777 89.1364 61.447C89.0317 61.294 89.241 60.9318 89.7401 60.5373C90.4173 60.0516 91.1963 59.7266 92.0179 59.5871C92.8395 59.4476 93.6821 59.4973 94.4816 59.7323C95.0853 59.9416 95.4073 60.2153 95.359 60.4005Z" fill="#263238"/>
<path d="M108.086 60.827C107.869 61.149 106.903 60.8833 105.76 60.9316C104.617 60.9799 103.667 61.2617 103.425 60.9316C103.321 60.7787 103.425 60.4567 103.852 60.1266C104.397 59.7358 105.049 59.5197 105.72 59.5068C106.392 59.4784 107.056 59.6614 107.619 60.03C108.038 60.352 108.191 60.666 108.086 60.827Z" fill="#263238"/>
<path d="M109.344 55.1525C109.344 55.1525 106.663 49.6784 103.878 48.5192C100.513 47.1266 99.3133 50.8054 96.1416 50.1292C92.9699 49.453 89.7579 48.1006 86.707 50.6927C83.3743 53.5344 85.097 55.2974 85.097 59.2821C85.1453 75.4385 82.4646 80.1639 81.1927 72.629C81.0559 71.824 78.7052 71.2686 78.1659 67.799C77.4575 63.2749 76.9664 57.7526 77.7956 54.4602C78.4959 51.6909 79.9369 49.7187 82.6256 47.4808C86.8358 43.9549 92.8652 43.5363 96.9949 43.7134C101.125 43.8905 109.319 48.1006 109.344 55.1525Z" fill="#263238"/>
<path d="M81.7803 72.3236C81.7532 71.9929 81.6583 71.6713 81.5014 71.3788C81.3446 71.0864 81.1291 70.8295 80.8685 70.624C80.6079 70.4185 80.3078 70.269 79.9868 70.1847C79.6658 70.1004 79.331 70.0831 79.003 70.134C77.3447 70.3916 75.5415 71.4462 75.8474 74.8916C76.3948 81.0016 82.4162 79.1903 82.4162 79.0132C82.4162 78.8361 82.0298 74.8835 81.7803 72.3236Z" fill="#FFBF9D"/>
<path d="M80.8948 76.8303C80.8948 76.8303 80.7982 76.9188 80.6211 77.0154C80.3742 77.1475 80.0858 77.1793 79.8161 77.104C79.156 76.9269 78.52 75.9448 78.3912 74.85C78.3275 74.3266 78.3825 73.7955 78.5522 73.2963C78.5923 73.1011 78.6792 72.9186 78.8054 72.7643C78.9316 72.6101 79.0933 72.4888 79.2767 72.4108C79.3957 72.3686 79.5255 72.3688 79.6444 72.4113C79.7632 72.4538 79.8637 72.5361 79.9288 72.6443C80.0334 72.8053 80.0012 72.934 80.0334 72.9421C80.0656 72.9501 80.1542 72.8294 80.0817 72.5798C80.0362 72.4305 79.9392 72.3022 79.808 72.2176C79.6284 72.1045 79.4114 72.0669 79.2043 72.1129C78.9589 72.1861 78.7363 72.3205 78.5574 72.5036C78.3785 72.6868 78.2493 72.9125 78.1819 73.1595C77.9686 73.7126 77.894 74.3096 77.9646 74.8983C78.1175 76.1299 78.8501 77.2247 79.7517 77.4018C79.9198 77.4353 80.0934 77.4302 80.2593 77.387C80.4252 77.3438 80.5792 77.2635 80.7096 77.1523C80.8948 76.9832 80.9189 76.8464 80.8948 76.8303Z" fill="#FF9A6C"/>
<path d="M110.648 48.5191C109.706 47.8107 108.41 47.7141 107.476 46.9977C103.316 43.8042 96.6129 37.7091 90.8888 40.8959C88.7107 42.1085 85.9615 42.2125 84.0181 43.6006C83.4528 44.0475 82.9874 44.608 82.6519 45.2458C82.3164 45.8835 82.1182 46.5845 82.07 47.3036C82.07 47.3036 81.4341 46.9816 79.5021 48.5111C78.2704 49.4851 77.2642 51.5862 76.8134 53.0835C76.1452 55.3294 77.1193 57.6962 78.0772 59.8294C78.5924 60.9806 79.2364 62.2444 80.4359 62.655C81.8929 63.146 83.5029 62.0029 84.0745 60.57C84.646 59.1371 85.5476 57.6962 86.2399 56.3196C87.4474 53.9046 88.6549 51.6989 87.6648 50.1694C90.93 49.1089 93.0942 51.0056 95.9966 52.0289C97.2173 52.4594 102.143 53.276 103.5 52.9513C103.939 52.8464 104.349 52.6439 104.699 52.359C105.252 53.2599 106.124 53.9194 107.141 54.2059C108.159 54.4923 109.247 54.3848 110.189 53.9046C112.008 52.7776 112.33 49.791 110.648 48.5191Z" fill="#263238"/>
<path d="M77.4653 58.3875C77.7478 58.8294 77.9852 59.2987 78.1737 59.7882C78.3945 60.2826 78.7415 60.7102 79.18 61.0279C79.7661 61.3278 80.4411 61.405 81.0798 61.2452C81.7438 61.1164 82.3707 60.8414 82.9152 60.4402C83.3543 60.0994 83.7539 59.7106 84.1066 59.281C84.4148 58.8596 84.7568 58.4638 85.129 58.0977C84.9327 58.5852 84.6611 59.0388 84.324 59.442C83.9868 59.9161 83.5859 60.3413 83.1325 60.7059C82.5515 61.1447 81.8763 61.4424 81.1603 61.5753C80.4348 61.7551 79.6679 61.6484 79.019 61.2774C78.5341 60.9224 78.1645 60.4324 77.9564 59.8687C77.7324 59.397 77.5674 58.8995 77.4653 58.3875Z" fill="#FFD000"/>
<path d="M77.6989 63.1146C78.0674 63.394 78.474 63.619 78.9065 63.7828C79.3769 63.9318 79.8743 63.9757 80.3635 63.9116C80.9641 63.8203 81.5379 63.6007 82.046 63.2676C82.9688 62.6266 83.7521 61.805 84.3483 60.8526C84.5759 60.4394 84.8457 60.0509 85.1533 59.6934C85.0124 60.1539 84.8035 60.5907 84.5334 60.9894C83.9864 62.0378 83.1937 62.9383 82.2231 63.6137C81.6703 63.9795 81.0384 64.2085 80.3796 64.2819C79.8332 64.342 79.2805 64.2674 78.7696 64.0645C77.9485 63.6701 77.6587 63.1227 77.6989 63.1146Z" fill="#FFD000"/>
<path d="M96.7029 79.6289C96.4969 79.9662 96.3821 80.3164 96.3615 80.6697C96.3372 80.8368 96.3835 81.0047 96.4972 81.1618C96.6109 81.319 96.7894 81.4618 97.0205 81.5804C97.2599 81.7262 97.5589 81.8432 97.8964 81.9233C98.2338 82.0034 98.6015 82.0446 98.9734 82.0439C99.6443 82.0432 100.293 81.92 100.802 81.6964C101.311 81.4729 101.648 81.1636 101.752 80.8242L101.99 80.0558C100.601 79.8525 96.8061 79.6818 96.7029 79.6289Z" fill="#FF9A6C"/>
<path d="M100.948 81.1252C100.948 81.1252 100.753 81.1252 100.431 81.1411C99.9786 81.163 99.5184 81.163 99.0662 81.1411C98.4134 81.1089 97.8233 81.0007 97.4135 80.8381C96.9255 80.6348 96.6932 80.3822 96.7609 80.1285C96.7805 79.9858 96.8991 79.8462 97.1084 79.7193L96.9049 79.7485C98.3542 79.8176 99.6256 79.8734 100.524 79.9053C101.007 79.9336 101.499 79.9452 101.99 79.9399C101.532 79.884 101.054 79.8465 100.566 79.8282C99.668 79.7751 98.4136 79.7033 96.9643 79.6289H96.8287L96.7693 79.6661C96.4444 79.8636 96.3061 80.086 96.3707 80.3073C96.4353 80.5286 96.7 80.7395 97.1338 80.9152C97.6097 81.0951 98.291 81.2096 99.0323 81.2341C99.514 81.2474 99.9994 81.233 100.465 81.1916C100.639 81.1806 100.804 81.1579 100.948 81.1252Z" fill="#263238"/>
<path d="M60.4879 106.576C59.9566 106.576 52.3735 109.603 50.3771 117.041C48.3807 124.479 42.9308 151.769 42.9308 151.769L37.1428 159.787C37.1428 159.787 39.0185 174.414 49.6526 171.628C49.6526 171.628 56.7527 172.868 59.0147 165.671C61.2768 158.475 65.6641 137.005 65.6641 137.005L60.4879 106.576Z" fill="#B9B8B6"/>
<path d="M82.1472 94L78.1204 100.196L60 106.752L65.1865 160.234L63.2697 188.228C80 197.5 124.262 195.715 127 194.5C128.425 194.459 128.681 191.408 128.914 189.425C129.115 187.645 128.962 185.841 128.463 184.123L125.459 173.403C125.902 180.074 123.937 133.607 123.848 131.911L128.5 108.5C127.379 106.837 117.595 103.502 107.621 99.5154L104.399 94.5081L95.1215 101.687L82.1472 94Z" fill="#B9B8B6"/>
<path d="M125.632 108C125.632 108 127.934 110.512 128.369 112.447C128.804 114.381 138.286 136.663 138.286 136.663L142.996 138.042L144.255 140.877C144.991 142.502 145.189 144.353 144.816 146.118C144.443 147.883 143.522 149.455 142.208 150.57C142.044 150.705 141.873 150.829 141.696 150.942C139.136 152.61 134.579 152.521 131.912 149.108C129.388 145.873 122 134.246 122 134.246V120.017L125.632 108Z" fill="#B9B8B6"/>
<path d="M152.95 152.59L163.601 146.303L168.737 152.59L167.674 155.633L153.941 165.848C152.236 164.457 151.092 162.495 150.721 160.326C150.117 156.486 152.95 152.59 152.95 152.59Z" fill="#FFBF9D"/>
<path d="M149.569 149.337C149.569 149.442 148.66 149.337 147.324 149.788C145.597 150.385 144.068 151.446 142.904 152.855C141.754 154.295 140.806 155.885 140.087 157.581C139.815 158.307 139.478 159.008 139.08 159.674C139.188 158.901 139.405 158.147 139.724 157.436C140.357 155.646 141.291 153.977 142.485 152.501C143.707 151.009 145.361 149.932 147.219 149.418C147.979 149.167 148.794 149.139 149.569 149.337Z" fill="#263238"/>
<path d="M46.4649 153.709L36.507 145.449L30.7915 151.889L31.4919 155.037L43.9372 166.758C45.7822 165.7 47.1744 164.001 47.8495 161.984C49.0892 158.434 46.4649 153.709 46.4649 153.709Z" fill="#FFBF9D"/>
<path d="M36.3943 149.747C36.8225 148.399 36.8994 146.964 36.6176 145.578C36.3359 144.192 35.7048 142.9 34.7843 141.826C32.5191 139.475 29.8704 137.526 26.9516 136.062C25.1967 135.008 21.7191 131.337 20.9382 132.037C20.4752 132.455 20.1799 133.026 20.1074 133.646C20.0348 134.265 20.1899 134.889 20.5438 135.402C21.3488 136.94 25.2289 138.727 25.092 140.699C25.0778 140.89 25.026 141.076 24.9398 141.247C24.8536 141.418 24.7346 141.57 24.5896 141.695C24.4446 141.82 24.2764 141.915 24.0946 141.975C23.9129 142.034 23.7211 142.058 23.5303 142.044C20.3183 141.896 17.1157 141.587 13.9347 141.118C11.1252 140.538 8.52508 140.78 8.55728 141.77C8.58948 142.76 9.06443 143.38 11.3828 143.839C13.7012 144.298 17.5331 144.644 17.6619 145.167C17.7907 145.69 16.9776 145.972 15.6171 145.722C14.2567 145.473 7.81668 144.708 7.29343 145.392C7.16372 145.564 7.07381 145.763 7.03018 145.974C6.98654 146.185 6.99027 146.403 7.04109 146.613C7.09191 146.822 7.18855 147.018 7.32406 147.185C7.45957 147.353 7.63057 147.488 7.82473 147.582L9.27373 148.298C9.27373 148.298 8.25138 149.417 8.90343 150.182C9.55548 150.947 11.246 150.907 11.246 150.907L19.8273 151.663C19.8273 151.663 20.254 152.235 19.9642 152.557C19.6744 152.879 13.0492 151.607 12.9123 152.34C12.7755 153.072 12.1476 153.338 14.0957 154.062C16.9698 154.895 19.9619 155.246 22.9507 155.101C24.8183 154.819 32.4336 155.366 32.4336 155.366L36.3943 149.747Z" fill="#FFBF9D"/>
<path d="M107.54 101.006C107.002 101.678 106.404 102.301 105.753 102.865C104.618 103.976 103.065 105.53 101.422 107.301C101.076 107.679 100.73 108.05 100.408 108.412L100.191 108.645L99.9894 108.396C98.7175 106.786 97.6146 105.305 96.8418 104.25C96.3881 103.714 96.0015 103.125 95.6907 102.495C96.225 102.952 96.7058 103.468 97.1236 104.033C97.9688 105.031 99.128 106.448 100.416 108.058H100.005L101.012 106.939C102.426 105.41 103.92 103.956 105.488 102.584C106.105 101.976 106.794 101.446 107.54 101.006Z" fill="#263238"/>
<path d="M61.623 120.502C61.771 120.857 61.8711 121.231 61.9209 121.613C62.0738 122.337 62.267 123.392 62.4763 124.696C62.8949 127.304 63.3377 130.927 63.708 134.936C64.0783 138.945 64.352 142.583 64.5613 145.216C64.6418 146.439 64.7223 147.478 64.7786 148.331C64.8291 148.713 64.8291 149.1 64.7786 149.482C64.6638 149.115 64.5882 148.738 64.5532 148.355C64.4405 147.622 64.3037 146.56 64.1588 145.248C63.8529 142.631 63.5148 139.001 63.1445 134.992C62.7742 130.983 62.4119 127.369 62.098 124.793C61.945 123.577 61.8162 122.539 61.7116 121.693C61.6284 121.302 61.5986 120.901 61.623 120.502Z" fill="#263238"/>
<path d="M123.606 118.676C123.721 119.132 123.789 119.599 123.808 120.068C123.896 120.978 123.993 122.282 124.073 123.908C124.258 127.128 124.347 131.636 124.363 136.579V153.09C124.389 153.56 124.37 154.032 124.307 154.498C124.202 154.039 124.151 153.569 124.154 153.098C124.089 152.188 124.025 150.876 123.977 149.258C123.864 146.038 123.824 141.53 123.816 136.587C123.808 131.644 123.767 127.161 123.687 123.924C123.647 122.387 123.614 121.099 123.59 120.085C123.552 119.615 123.557 119.144 123.606 118.676Z" fill="#263238"/>
<path d="M53.4522 165.123C53.2003 164.209 53.0147 163.279 52.8968 162.338C52.5196 160.092 51.7915 157.918 50.7394 155.898C49.6657 153.917 48.0523 152.282 46.0865 151.181C45.2411 150.777 44.3666 150.438 43.4702 150.166C43.7354 150.109 44.01 150.109 44.2752 150.166C44.9726 150.283 45.6502 150.497 46.2877 150.802C48.4029 151.857 50.1364 153.546 51.2465 155.632C52.3118 157.706 52.9884 159.957 53.2429 162.274C53.4324 163.211 53.5027 164.168 53.4522 165.123Z" fill="#263238"/>
<path d="M56.0364 154.248C55.9237 154.377 54.3217 152.727 51.7135 151.833C49.1053 150.94 46.8835 151.246 46.8352 151.077C46.7869 150.908 49.1456 150.36 51.8906 151.318C54.6357 152.276 56.1571 154.184 56.0364 154.248Z" fill="#263238"/>
<path d="M96.8901 191.656C96.8413 191.358 96.8197 191.057 96.8257 190.755C96.8257 190.119 96.8257 189.258 96.7693 188.179C96.721 185.885 96.6566 182.657 96.5761 178.688C96.391 170.638 96.1334 159.585 95.8436 147.381C95.5538 135.177 95.4008 124.076 95.4169 116.059C95.4169 112.034 95.4572 108.814 95.5055 106.56C95.5055 105.481 95.5618 104.62 95.586 103.984C95.5792 103.682 95.6008 103.38 95.6504 103.082C95.6728 103.382 95.6728 103.684 95.6504 103.984C95.6504 104.62 95.6504 105.481 95.6504 106.56C95.6504 108.854 95.6987 112.09 95.7309 116.051C95.8114 124.101 96.0448 135.137 96.3185 147.365C96.5922 159.593 96.8337 170.662 96.8981 178.68C96.8981 182.705 96.8981 185.925 96.8981 188.179C96.8981 189.258 96.8981 190.119 96.8579 190.755C96.8892 191.054 96.8999 191.356 96.8901 191.656Z" fill="#263238"/>
<path d="M45.9979 153.37C45.9979 153.305 46.8029 153.909 47.4469 155.246C47.8415 156.007 48.1287 156.82 48.3002 157.661C48.4655 158.728 48.4655 159.814 48.3002 160.881C48.18 161.949 47.8634 162.986 47.3664 163.94C46.936 164.713 46.3427 165.383 45.6276 165.904C44.9987 166.426 44.2068 166.71 43.3896 166.709C44.0971 166.416 44.7673 166.041 45.3861 165.59C46.0209 165.069 46.5439 164.426 46.9236 163.698C47.3544 162.788 47.6266 161.81 47.7286 160.808C47.8735 159.804 47.8735 158.785 47.7286 157.781C47.5903 156.952 47.3553 156.141 47.0283 155.366C46.5292 154.086 45.9174 153.418 45.9979 153.37Z" fill="#263238"/>
<path d="M155.937 166.967C155.937 166.967 155.679 166.967 155.269 166.765C154.693 166.511 154.151 166.184 153.659 165.791C151.972 164.492 150.818 162.621 150.415 160.531C150.012 158.44 150.387 156.274 151.469 154.441C151.785 153.89 152.169 153.381 152.612 152.927C152.926 152.621 153.128 152.476 153.152 152.501C153.176 152.525 152.508 153.249 151.807 154.626C150.871 156.407 150.569 158.453 150.951 160.428C151.333 162.404 152.376 164.19 153.908 165.493C155.06 166.508 155.977 166.878 155.937 166.967Z" fill="#263238"/>
<path d="M176.408 140.41C176.473 140.475 176.006 140.917 175.418 141.698C175.08 142.145 174.846 142.662 174.734 143.212C174.605 143.831 174.621 144.556 174.509 145.353C174.413 146.037 174.182 146.695 173.829 147.29C173.477 147.884 173.01 148.402 172.456 148.814C172.032 149.196 171.495 149.428 170.926 149.474C170.886 149.386 171.482 149.161 172.214 148.508C173.157 147.673 173.778 146.534 173.969 145.288C174.022 144.56 174.114 143.834 174.243 143.115C174.397 142.515 174.695 141.963 175.112 141.505C175.45 141.042 175.895 140.666 176.408 140.41Z" fill="#FF9A6C"/>
<path d="M21.1394 148.879C21.1394 149.024 18.4588 149.169 15.1502 149.008C11.8417 148.847 9.18514 148.46 9.20124 148.307C9.21734 148.155 11.8819 148.307 15.1744 148.46C18.4668 148.613 21.1394 148.718 21.1394 148.879Z" fill="#FF9A6C"/>
<path d="M27.2332 148.42C27.2332 148.477 26.5973 148.372 25.8406 147.736C25.3505 147.31 24.9606 146.781 24.699 146.187C24.4374 145.592 24.3104 144.948 24.3272 144.299C24.3845 143.612 24.5085 142.933 24.6975 142.27C24.8384 141.745 24.9061 141.203 24.8987 140.66C24.8525 140.175 24.7415 139.699 24.5687 139.243C24.5687 139.187 25.1563 139.613 25.2851 140.628C25.3502 141.198 25.3175 141.775 25.1885 142.334C25.037 142.973 24.9321 143.621 24.8746 144.274C24.8575 145.442 25.2998 146.569 26.1062 147.414C26.7261 148.138 27.2735 148.34 27.2332 148.42Z" fill="#FF9A6C"/>
<path d="M95.0386 101.971C94.717 103.043 94.3106 104.087 93.823 105.095C93.6057 105.578 93.3803 106.101 93.1468 106.64C92.9159 107.255 92.6471 107.854 92.3418 108.435C92.2256 108.626 92.0566 108.78 91.8552 108.877C91.6538 108.974 91.4286 109.011 91.2068 108.983C90.8168 108.88 90.4541 108.693 90.1442 108.435L88.2444 107.139C85.6522 105.352 83.3258 103.702 81.6514 102.494C80.7152 101.882 79.832 101.193 79.011 100.434C80.0083 100.936 80.9639 101.518 81.8687 102.172C83.5995 103.307 85.9662 104.893 88.5583 106.688L90.4501 107.993C90.6968 108.206 90.9844 108.368 91.2953 108.468C91.4222 108.483 91.5508 108.459 91.6642 108.401C91.7776 108.342 91.8707 108.25 91.9313 108.137C92.5431 107.027 93.0502 105.827 93.5413 104.917C93.9576 103.895 94.4584 102.91 95.0386 101.971Z" fill="#263238"/>
<path d="M139.885 123.924L120.337 102.047L111.695 110.434L128.023 135.298C128.023 135.298 135.822 134.713 138.58 131.091C141.339 127.469 139.885 123.924 139.885 123.924Z" fill="#FFBF9D"/>
<path d="M111.695 110.433C111.697 110.227 107.103 103.801 107.902 100.827C108.702 97.8526 112.242 88.6501 112.242 88.6501C112.242 88.6501 109.876 85.5597 112.846 84.2758C112.846 84.2758 112.366 81.1494 114.951 81.0056C114.951 81.0056 115.652 79.8384 117.533 80.4693C119.414 81.1002 126.16 83.1747 127.104 84.7344C127.676 85.7779 127.872 86.9863 127.659 88.1571C127.659 88.1571 124.637 93.1042 123.352 95.0833C122.345 96.6401 119.652 99.8323 121.174 103.1L111.695 110.433Z" fill="#FFBF9D"/>
<path d="M118.517 87.8083C118.517 87.8083 118.569 87.7124 118.617 87.5349C118.688 87.2878 118.675 87.0243 118.58 86.7856C118.419 86.436 118.145 86.1501 117.803 85.9732C117.374 85.7463 116.929 85.551 116.471 85.3888C115.643 85.0687 114.799 84.7938 113.941 84.5654C113.58 84.4906 113.223 84.3944 112.873 84.2773C113.245 84.2742 113.617 84.322 113.977 84.4195C114.853 84.6072 115.714 84.8648 116.55 85.1898C117.018 85.3579 117.472 85.563 117.907 85.8031C118.281 86.0055 118.572 86.3324 118.73 86.7271C118.832 86.9955 118.833 87.2918 118.733 87.5609C118.615 87.7499 118.524 87.8142 118.517 87.8083Z" fill="#FF9A6C"/>
<path d="M122.528 84.3291C122.149 84.1805 121.782 84.0019 121.431 83.795C120.766 83.4477 119.848 82.9783 118.802 82.5146C117.756 82.051 116.792 81.6887 116.088 81.4364C115.698 81.3191 115.317 81.1759 114.947 81.0078C115.351 81.0626 115.749 81.1587 116.133 81.2948C117.073 81.5829 117.994 81.9282 118.891 82.329C119.787 82.7277 120.66 83.1759 121.506 83.6718C121.867 83.8579 122.209 84.078 122.528 84.3291Z" fill="#FF9A6C"/>
<path d="M123.371 88.2825C123.418 87.9566 123.443 87.6279 123.445 87.2986C123.384 86.9752 123.302 86.6561 123.199 86.3434C123.343 86.4531 123.46 86.5953 123.538 86.7584C123.617 86.9215 123.656 87.1009 123.652 87.2819C123.701 87.8693 123.409 88.3014 123.371 88.2825Z" fill="#FF9A6C"/>
<path d="M112.808 120.447L117.32 127.065C117.515 128.422 128.573 145.753 130.773 147.474C132.974 149.196 136.565 149.252 141.853 147.166C147.141 145.081 148.968 139.208 148.947 135.619C148.926 132.03 143.015 126.647 139.378 121.81C135.74 116.973 130.017 109.738 130.017 109.738L112.808 120.447Z" fill="#B9B8B6"/>
<path d="M113.862 121.577L114.152 121.383L115.038 120.812L118.448 118.637L130.98 110.67L131.044 110.644L131.091 110.706C134.063 114.608 137.485 119.109 141.223 124.03C143.097 126.476 145.265 128.851 147.308 131.473C147.574 131.817 147.82 132.133 148.063 132.474C148.306 132.814 148.55 133.159 148.785 133.512C149.02 133.865 149.235 134.234 149.461 134.596C149.569 134.783 149.656 134.97 149.76 135.168C149.865 135.357 149.957 135.553 150.036 135.754C150.413 136.55 150.594 137.424 150.565 138.298C150.545 139.169 150.449 140.034 150.276 140.883C149.798 143.439 148.608 145.777 146.85 147.615C145.984 148.489 144.961 149.184 143.836 149.662C142.744 150.124 141.619 150.506 140.472 150.807C139.354 151.107 138.204 151.282 137.043 151.328C135.906 151.381 134.763 151.189 133.688 150.766C133.168 150.539 132.68 150.24 132.237 149.878C131.834 149.489 131.462 149.069 131.122 148.621C130.441 147.754 129.813 146.868 129.202 146.002C126.781 142.518 124.692 139.232 122.866 136.305C121.961 134.834 121.127 133.454 120.365 132.166C119.99 131.521 119.633 130.896 119.3 130.297C119.139 129.995 118.981 129.701 118.832 129.408C118.678 129.122 118.553 128.822 118.458 128.512L118.47 128.539L115.045 123.383C114.66 122.797 114.364 122.351 114.162 122.044C114.066 121.897 113.993 121.786 113.941 121.703C113.889 121.62 113.872 121.591 113.872 121.591L113.955 121.706L114.195 122.061C114.405 122.365 114.71 122.812 115.106 123.394C115.901 124.565 117.064 126.284 118.548 128.497L118.552 128.505C118.643 128.803 118.764 129.091 118.911 129.366C119.058 129.655 119.22 129.948 119.384 130.248C119.717 130.847 120.075 131.462 120.453 132.106C121.213 133.392 122.056 134.771 122.971 136.229C124.804 139.153 126.902 142.431 129.328 145.905C129.938 146.77 130.573 147.662 131.246 148.51C131.578 148.947 131.942 149.357 132.335 149.736C132.764 150.085 133.236 150.372 133.737 150.591C134.789 151.004 135.908 151.186 137.019 151.124C138.168 151.084 139.305 150.914 140.41 150.619C142.626 149.989 144.991 149.257 146.699 147.473C148.42 145.662 149.585 143.364 150.054 140.853C150.226 140.017 150.322 139.164 150.341 138.305C150.37 137.463 150.195 136.62 149.832 135.853C149.754 135.657 149.663 135.467 149.56 135.283C149.479 135.089 149.375 134.905 149.265 134.723C149.043 134.36 148.84 133.99 148.596 133.636C148.352 133.282 148.128 132.943 147.879 132.61C147.631 132.276 147.384 131.937 147.13 131.611C145.095 128.999 142.926 126.621 141.049 124.157C137.324 119.235 133.907 114.727 130.948 110.812L131.054 110.836L118.533 118.674L115.064 120.833L114.157 121.394L113.862 121.577Z" fill="#263238"/>
<path d="M186.063 144.729C187.549 156.666 183.742 174.79 180.267 185.34C176.792 195.891 177.535 207.556 177.535 219.957C177.535 232.358 170.095 255.442 170.095 255.442H179.531V263.36H144.597V255.462H149.995C148.549 250.574 143.158 232.006 142.302 224.924C141.307 216.734 140.817 203.703 140.817 203.703C140.817 203.703 137.289 184.472 137.309 172.097C137.309 158.251 139.298 135.1 139.298 135.1L141.148 113.044L138.834 120.259C138.834 120.259 133.661 126.022 131.46 126.526C129.258 127.03 127.222 125.511 125.445 119.748C123.668 113.986 130.956 93.1428 130.956 93.1428L134.643 90.1388C135.082 88.7722 135.628 87.4418 136.274 86.1599C138.781 81.5178 145.983 81.4383 145.983 81.4383L147.634 81.3786L146.971 72.1807C154.471 71.7032 159.862 73.3412 163.344 76.9023L164.053 80.7884L172.84 82.7115C172.84 82.7115 179.107 83.3415 181.633 87.6321C184.16 91.9226 194.896 117.082 195.042 120.378C195.188 123.674 183.941 136.957 183.941 136.957L183.842 136.805C184.938 139.333 185.685 141.999 186.063 144.729ZM162.15 248.247C161.653 234.844 162.15 212.264 162.15 212.264C162.15 212.264 161.653 205.069 161.407 201.846C161.162 198.623 159.65 162.157 159.65 162.157L156.732 203.351C156.732 203.351 159.166 220.441 159.915 227.271C160.578 233.339 160.114 251.489 160.008 255.462H161.295C162.003 253.126 162.293 250.683 162.15 248.247ZM182.045 117.606L175.261 105.252L172.814 119.755C175.361 122.513 177.641 125.506 179.624 128.694L182.045 117.606Z" fill="#F5F5F5"/>
<path d="M182.018 117.607C181.985 117.671 181.962 117.741 181.952 117.813C181.912 117.972 181.859 118.164 181.806 118.403C181.673 118.953 181.501 119.729 181.282 120.644C180.844 122.634 180.234 125.366 179.491 128.695L179.75 128.648C177.767 125.448 175.489 122.439 172.946 119.663L172.993 119.809C173.152 118.84 173.324 117.819 173.503 116.785C174.166 112.633 174.83 108.714 175.42 105.306L175.128 105.352C177.117 108.979 178.848 112.037 180.055 114.218C180.652 115.273 181.129 116.115 181.481 116.725L181.866 117.388C181.958 117.541 182.005 117.62 182.018 117.614C181.992 117.532 181.956 117.454 181.912 117.382L181.574 116.718L180.247 114.192L175.413 105.219L175.201 104.828L175.128 105.266C174.544 108.674 173.881 112.56 173.172 116.738C172.999 117.779 172.827 118.801 172.668 119.769V119.848L172.727 119.915C175.259 122.672 177.538 125.65 179.538 128.814L179.73 129.106L179.796 128.768C180.46 125.412 181.063 122.634 181.474 120.651C181.66 119.709 181.806 118.96 181.912 118.409C181.958 118.171 181.992 117.978 182.018 117.819C182.025 117.749 182.025 117.678 182.018 117.607Z" fill="#3F3F40"/>
<path d="M162.15 248.247C162.15 248.247 162.15 248.406 162.15 248.717C162.15 249.029 162.15 249.493 162.15 250.11C162.097 251.911 161.796 253.697 161.255 255.415L161.321 255.369H160.008L160.074 255.442C160.22 250.402 160.446 243.16 160.36 234.254C160.32 232.026 160.28 229.692 160.054 227.265C159.829 224.837 159.391 222.364 159.066 219.778C158.403 214.612 157.661 209.101 156.891 203.312V203.345C157.621 193.112 158.423 181.892 159.259 170.187C159.444 167.482 159.632 164.809 159.822 162.17H159.478C159.902 171.646 160.306 180.738 160.684 189.153C160.875 193.371 161.058 197.418 161.235 201.296C161.48 205.155 161.772 208.829 162.017 212.284C161.812 223.299 161.805 232.298 161.878 238.538C161.911 241.662 161.978 244.089 162.031 245.747L162.11 247.623C162.11 248.048 162.15 248.286 162.15 248.286C162.15 248.286 162.15 248.068 162.15 247.623C162.15 247.179 162.15 246.562 162.11 245.74C162.11 244.089 162.044 241.655 162.031 238.538C162.031 232.298 162.031 223.286 162.289 212.291C162.051 208.836 161.799 205.162 161.533 201.296C161.268 197.43 161.188 193.371 161.003 189.16C160.638 180.725 160.24 171.66 159.822 162.183H159.478C159.292 164.836 159.106 167.488 158.914 170.201C158.085 181.925 157.296 193.146 156.573 203.358V203.398C157.349 209.181 158.085 214.671 158.775 219.857C159.126 222.437 159.438 224.937 159.783 227.338C160.127 229.738 160.061 232.072 160.108 234.294C160.227 243.193 160.035 250.442 159.935 255.482V255.541H161.334V255.495C161.868 253.753 162.149 251.944 162.17 250.123C162.199 249.498 162.192 248.871 162.15 248.247Z" fill="#3F3F40"/>
<path d="M186.063 144.73C185.992 144.048 185.883 143.37 185.738 142.7C185.307 140.692 184.685 138.729 183.881 136.838L183.809 136.878L183.908 137.037V137.084L183.948 137.037C185.738 134.902 187.973 132.163 190.473 128.748C191.847 126.916 193.094 124.993 194.207 122.992C194.509 122.44 194.758 121.86 194.949 121.261C195.061 120.951 195.104 120.621 195.075 120.293C195.03 119.967 194.968 119.644 194.89 119.324C194.724 118.661 194.545 118.045 194.326 117.401C194.107 116.758 193.895 116.075 193.663 115.458C191.773 110.219 189.399 104.477 186.693 98.2164C185.327 95.0996 183.901 91.8502 182.23 88.5477C181.823 87.6989 181.296 86.9128 180.665 86.2135C179.998 85.5226 179.236 84.9288 178.404 84.4495C176.678 83.4845 174.782 82.8608 172.82 82.6126L164.033 80.6894L164.126 80.7889C163.914 79.6085 163.669 78.2623 163.423 76.8962V76.8564C161.364 74.8265 158.781 73.4078 155.963 72.7582C153.008 72.0757 149.967 71.852 146.944 72.095H146.805V72.2343C147.01 75.0593 147.243 78.2026 147.468 81.4322L147.607 81.2796L145.956 81.3393L145.817 81.4786L145.963 81.3393C144.715 81.3827 143.475 81.5673 142.269 81.8897C141.005 82.1999 139.801 82.7128 138.701 83.4083C137.562 84.1374 136.633 85.1526 136.009 86.3527C135.414 87.5655 134.902 88.8173 134.477 90.0995L134.53 90.0332L130.836 93.0373H130.803V93.077C129.616 96.5453 128.502 100.12 127.487 103.794C126.408 107.525 125.614 111.334 125.113 115.186C125.006 116.177 124.975 117.175 125.02 118.171C125.046 118.677 125.124 119.179 125.253 119.669C125.392 120.153 125.544 120.631 125.717 121.102C126.045 122.058 126.453 122.985 126.937 123.874C127.409 124.802 128.09 125.608 128.926 126.228C129.375 126.523 129.89 126.702 130.425 126.749C130.96 126.795 131.498 126.707 131.99 126.493C132.906 126.007 133.759 125.41 134.53 124.716C136.083 123.348 137.555 121.891 138.94 120.352V120.313C139.669 118.071 140.472 115.591 141.281 113.097L140.956 113.031C140.514 118.177 140.072 123.409 139.63 128.728C139.185 134.033 138.714 139.438 138.336 144.909C137.958 150.38 137.6 155.917 137.362 161.521C137.229 164.319 137.149 167.137 137.096 169.969C137.043 172.801 137.096 175.652 137.322 178.504C137.607 182.794 138.084 187.039 138.648 191.25C139.212 195.461 139.855 199.618 140.591 203.73C140.783 208.292 141.029 212.815 141.36 217.298C141.533 219.539 141.718 221.768 141.97 223.976C142.23 226.181 142.609 228.37 143.104 230.534C145.047 239.155 147.428 247.438 149.782 255.529L149.942 255.316H144.378V263.559H144.543H179.478H179.631V255.316H170.042L170.181 255.456C172.642 247.715 174.663 239.842 176.235 231.874C176.97 228.181 177.413 224.436 177.562 220.673C177.615 217.019 177.515 213.478 177.515 210.063C177.515 203.206 177.674 196.76 178.842 190.944C179.133 189.492 179.465 188.08 179.869 186.727C180.274 185.374 180.698 184.041 181.096 182.748C181.879 180.148 182.522 177.635 183.086 175.248C184.929 167.878 186.035 160.343 186.388 152.754C186.441 151.427 186.388 150.287 186.388 149.286C186.388 148.284 186.315 147.449 186.256 146.772C186.123 145.446 186.043 144.736 186.043 144.736C186.043 144.736 186.096 145.399 186.216 146.779C186.269 147.442 186.275 148.291 186.322 149.286C186.368 150.28 186.322 151.441 186.282 152.754C185.914 160.333 184.803 167.859 182.966 175.221C182.396 177.609 181.746 180.115 180.977 182.708C180.57 184.008 180.157 185.334 179.737 186.687C179.332 188.053 178.994 189.472 178.702 190.925C177.522 196.76 177.316 203.219 177.336 210.083C177.336 213.518 177.429 217.066 177.369 220.693C177.206 224.441 176.749 228.171 176.003 231.847C174.433 239.805 172.414 247.667 169.955 255.396V255.608H179.531L179.385 255.462V263.38L179.531 263.234H144.597L144.756 263.393V255.462L144.597 255.628H150.213L150.154 255.416C147.8 247.332 145.425 239.023 143.489 230.442C142.993 228.291 142.617 226.115 142.362 223.923C142.116 221.715 141.924 219.486 141.758 217.252C141.427 212.778 141.17 208.259 140.989 203.697C140.253 199.592 139.616 195.427 139.053 191.23C138.489 187.032 138.011 182.788 137.726 178.504C137.289 172.821 137.547 167.157 137.766 161.56C137.985 155.963 138.356 150.426 138.741 144.982C139.126 139.537 139.583 134.119 140.027 128.801C140.472 123.482 140.909 118.25 141.354 113.104L141.44 111.639L140.996 113.011C140.18 115.511 139.378 117.992 138.648 120.233L138.681 120.173C137.308 121.701 135.846 123.146 134.304 124.504C133.557 125.18 132.728 125.762 131.838 126.234C131.397 126.428 130.914 126.508 130.434 126.466C129.955 126.424 129.493 126.263 129.092 125.996C128.297 125.406 127.652 124.639 127.209 123.754C126.735 122.882 126.333 121.973 126.008 121.035C125.843 120.571 125.684 120.094 125.544 119.623C125.425 119.154 125.351 118.674 125.325 118.19C125.283 117.21 125.315 116.228 125.418 115.253C125.916 111.421 126.703 107.632 127.772 103.92C128.78 100.252 129.888 96.6779 131.088 93.2163L131.042 93.2893L134.729 90.2786H134.762V90.2388C135.181 88.9679 135.686 87.7272 136.274 86.5251C136.872 85.3701 137.764 84.3933 138.86 83.6935C139.934 83.0149 141.109 82.5134 142.342 82.208C142.94 82.0503 143.547 81.9242 144.159 81.8301C144.464 81.7903 144.762 81.7505 145.067 81.7239L145.518 81.6842H145.744H145.963V81.5449H146.109L145.969 81.6908L147.614 81.6311H147.766V81.4852C147.528 78.2689 147.289 75.1124 147.103 72.2873L146.971 72.4332C149.967 72.2029 152.98 72.4265 155.91 73.0964C158.68 73.731 161.219 75.1223 163.244 77.1151L163.211 77.0487C163.456 78.4148 163.702 79.761 163.921 80.9414V81.021H164L172.794 82.9375V82.8248C172.794 83.0569 172.794 82.8911 172.794 82.9441H172.853H172.946H173.125L173.49 83.0038C173.729 83.0436 173.967 83.0967 174.206 83.1497C174.684 83.2625 175.148 83.3884 175.612 83.541C176.535 83.8271 177.424 84.2117 178.265 84.6882C179.078 85.1567 179.823 85.7346 180.479 86.4058C181.095 87.0925 181.611 87.8627 182.011 88.6936C183.683 91.9762 185.115 95.2256 186.488 98.3358C189.2 104.569 191.581 110.272 193.484 115.531C193.723 116.194 193.948 116.858 194.147 117.474C194.346 118.091 194.545 118.754 194.717 119.378C194.796 119.69 194.855 120.006 194.896 120.326C194.925 120.635 194.887 120.948 194.784 121.241C194.595 121.831 194.351 122.402 194.054 122.945C192.949 124.943 191.711 126.864 190.347 128.695C187.86 132.11 185.639 134.855 183.862 137.004H183.935L183.881 136.838L183.809 136.878C184.625 138.764 185.264 140.722 185.718 142.727C185.871 143.39 185.95 143.901 186.01 144.239C186.07 144.577 186.063 144.73 186.063 144.73Z" fill="#3F3F40"/>
<path d="M172.82 119.755C172.878 119.795 172.93 119.845 172.973 119.901C173.085 120.02 173.225 120.166 173.39 120.352C173.748 120.75 174.259 121.347 174.896 122.136C176.659 124.316 178.298 126.594 179.803 128.96L179.558 129.006C180.221 125.69 181.01 121.778 181.859 117.553V117.66L180.533 115.239L175.121 105.292L175.393 105.245C174.65 109.509 174.02 113.11 173.569 115.683C173.344 116.937 173.165 117.938 173.032 118.654C172.966 118.979 172.92 119.245 172.88 119.443C172.865 119.539 172.841 119.632 172.807 119.722C172.797 119.634 172.797 119.545 172.807 119.457C172.807 119.258 172.867 118.999 172.913 118.681C173.026 117.958 173.178 116.963 173.377 115.71C173.795 113.124 174.385 109.496 175.081 105.199L175.148 104.781L175.353 105.153L180.791 115.047L182.117 117.474V117.527V117.58C181.249 121.804 180.446 125.723 179.763 129.026L179.697 129.358L179.518 129.072C178.053 126.72 176.471 124.442 174.776 122.249C174.16 121.453 173.669 120.836 173.331 120.425L172.946 119.947C172.896 119.889 172.854 119.824 172.82 119.755Z" fill="#3F3F40"/>
<path d="M154.179 122.799C154.272 122.799 154.312 123.237 154.272 123.76C154.232 124.284 154.126 124.702 154.04 124.696C153.954 124.689 153.907 124.258 153.947 123.734C153.987 123.21 154.093 122.792 154.179 122.799Z" fill="#E0E0E0"/>
<path d="M159.65 162.701C159.612 162.46 159.601 162.215 159.617 161.972C159.617 161.507 159.617 160.824 159.657 159.982C159.748 157.796 159.969 155.617 160.32 153.457C160.645 151.289 161.222 149.166 162.037 147.13C162.296 146.515 162.593 145.917 162.926 145.34C163.041 145.126 163.176 144.924 163.33 144.736C163.383 144.736 162.84 145.651 162.249 147.21C161.507 149.252 160.967 151.362 160.638 153.51C160.22 156.023 160.035 158.331 159.902 159.995C159.842 160.778 159.796 161.441 159.756 161.985C159.751 162.227 159.716 162.468 159.65 162.701Z" fill="#3F3F40"/>
<path d="M150.014 146.705C150.537 147.113 151.031 147.556 151.493 148.031C152.389 148.854 153.642 149.968 155.081 151.142C156.52 152.315 157.873 153.303 158.861 154.006C159.416 154.362 159.946 154.757 160.446 155.187C159.845 154.913 159.272 154.582 158.735 154.199C157.401 153.328 156.113 152.39 154.875 151.387C153.64 150.386 152.458 149.321 151.334 148.197C150.85 147.741 150.408 147.242 150.014 146.705Z" fill="#3F3F40"/>
<path d="M172.608 119.637C172.693 119.704 172.771 119.779 172.84 119.862L173.45 120.525C173.981 121.129 174.737 122.004 175.638 123.112C176.54 124.219 177.595 125.552 178.682 127.091C179.88 128.76 180.961 130.511 181.918 132.329C183.691 135.624 184.945 139.171 185.639 142.847C185.858 144.259 186.017 145.407 186.05 146.209C186.05 146.58 186.09 146.872 186.103 147.131C186.119 147.236 186.119 147.344 186.103 147.449C186.075 147.345 186.055 147.238 186.043 147.131C186.043 146.885 185.977 146.587 185.931 146.222C185.864 145.427 185.665 144.293 185.42 142.907C184.666 139.273 183.393 135.766 181.64 132.495C180.689 130.69 179.622 128.949 178.444 127.283C177.376 125.731 176.348 124.378 175.466 123.258L173.364 120.605L172.794 119.882C172.722 119.808 172.66 119.726 172.608 119.637Z" fill="#3F3F40"/>
<path d="M171.534 97.9972C171.449 97.8191 171.393 97.6289 171.368 97.4335C171.302 97.0688 171.202 96.5317 171.142 95.8619C170.995 94.1123 171.113 92.3504 171.494 90.6363C171.695 89.688 171.995 88.7633 172.389 87.8776C172.707 87.1395 173.156 86.4654 173.715 85.8881C174.103 85.5082 174.566 85.2145 175.075 85.026C175.212 84.9748 175.354 84.9392 175.499 84.9199C175.599 84.9199 175.645 84.9199 175.652 84.9199C174.985 85.1613 174.38 85.5487 173.881 86.0539C173.365 86.6235 172.948 87.2759 172.648 87.9837C172.278 88.8535 171.993 89.7575 171.799 90.6827C171.425 92.371 171.278 94.1016 171.361 95.8287C171.434 97.1749 171.587 97.9906 171.534 97.9972Z" fill="#3F3F40"/>
<path d="M136.93 116.944C136.922 116.847 136.922 116.749 136.93 116.652C136.93 116.446 136.93 116.161 136.93 115.803C136.93 115.041 136.897 113.946 136.871 112.554C136.838 109.715 136.785 105.65 136.718 100.67C137.143 99.7417 137.594 98.7404 138.045 97.6992L138.078 97.6329H138.124C138.514 97.5545 138.889 97.4181 139.238 97.2284C139.615 97.0274 139.98 96.8061 140.332 96.5653C141.049 96.0812 141.732 95.4976 142.455 94.9339L146.924 91.3728H146.964H147.01C147.859 91.333 148.741 91.28 149.63 91.1871C150.077 91.1525 150.52 91.0815 150.956 90.9749C151.069 90.9152 151.042 90.9749 151.056 90.902C151.042 90.8176 151.008 90.7378 150.956 90.6699C150.826 90.4966 150.672 90.3425 150.498 90.2123L150.253 90.0134L150.565 89.9338C150.769 89.8883 150.958 89.7874 151.109 89.642C151.228 89.5094 151.208 89.3369 151.075 89.1513C150.802 88.7356 150.479 88.3548 150.114 88.0173L150.067 87.9642C150 87.8985 149.929 87.8365 149.855 87.7785L149.577 87.573L149 87.1618L147.806 86.3594L145.333 84.7612H145.425H145.339L141.287 84.9403L141.38 84.9005L131.035 93.3092L131.082 93.2429C128.873 99.4381 127.101 105.78 125.776 112.222C125.404 114.061 125.204 115.93 125.179 117.806C125.188 118.306 125.23 118.804 125.305 119.298L125.385 119.669C125.385 119.756 125.385 119.802 125.385 119.802C125.385 119.802 125.385 119.762 125.345 119.676C125.305 119.59 125.279 119.457 125.239 119.305C125.14 118.813 125.08 118.314 125.06 117.813C125.05 115.926 125.224 114.042 125.577 112.189C126.858 105.696 128.614 99.3063 130.83 93.0705V93.0307H130.863L141.195 84.6087L141.234 84.5689H141.287L145.346 84.3965H145.478H145.525L148.005 86.0013L149.205 86.8037L149.789 87.2215C150.006 87.3611 150.203 87.5308 150.372 87.7255L150.326 87.6724C150.722 88.0279 151.07 88.4336 151.361 88.8794C151.449 89.0032 151.506 89.1465 151.526 89.2972C151.532 89.3802 151.521 89.4636 151.494 89.5422C151.466 89.6209 151.423 89.6931 151.367 89.7547C151.176 89.9572 150.925 90.0941 150.651 90.146L150.717 89.8675C150.912 90.0206 151.086 90.199 151.235 90.398C151.322 90.5139 151.377 90.6513 151.394 90.7959C151.399 90.8448 151.392 90.8942 151.375 90.9402C151.358 90.9862 151.33 91.0276 151.294 91.0611C151.188 91.1606 151.148 91.1407 151.075 91.1805C150.625 91.2954 150.166 91.3708 149.703 91.406C148.801 91.4922 147.925 91.5452 147.05 91.585H147.143L142.66 95.1395C141.937 95.6965 141.254 96.2801 140.518 96.7708C140.155 97.0132 139.779 97.2346 139.391 97.434C139.007 97.651 138.587 97.797 138.151 97.865L138.27 97.7855C137.793 98.82 137.335 99.8213 136.904 100.75V100.697C136.904 105.677 136.937 109.742 136.944 112.58C136.944 113.973 136.944 115.067 136.944 115.83C136.944 116.188 136.944 116.493 136.944 116.679C136.946 116.767 136.942 116.856 136.93 116.944Z" fill="#3F3F40"/>
<path d="M142.203 89.7551C142.203 89.702 142.673 89.5362 143.376 89.0919C143.787 88.8111 144.214 88.5564 144.656 88.3293C145.221 88.0365 145.861 87.9209 146.493 87.9977C147.109 88.1086 147.698 88.3335 148.231 88.6609C148.721 88.9394 149.126 89.2312 149.477 89.45C150.18 89.9076 150.658 90.1131 150.645 90.1463C150.186 90.0786 149.749 89.9086 149.365 89.6489C148.615 89.2643 147.674 88.5216 146.447 88.3226C145.877 88.2495 145.298 88.3464 144.782 88.6012C144.292 88.8266 143.861 89.0919 143.456 89.2643C143.081 89.5216 142.652 89.6895 142.203 89.7551Z" fill="#3F3F40"/>
<path d="M141.002 87.8577C141.334 87.4111 141.727 87.0137 142.17 86.6772C142.632 86.2769 143.15 85.9463 143.708 85.6958C144.41 85.3964 145.181 85.2977 145.936 85.4106C147.28 85.6524 148.528 86.2685 149.537 87.1879C149.98 87.523 150.379 87.913 150.724 88.3484C150.256 88.0575 149.813 87.7292 149.398 87.3669C148.387 86.5345 147.183 85.9711 145.896 85.7289C145.195 85.6272 144.479 85.7118 143.821 85.9743C143.281 86.2023 142.773 86.4987 142.309 86.8563C141.892 87.2138 141.456 87.5481 141.002 87.8577Z" fill="#3F3F40"/>
<path d="M139.729 97.168C139.802 97.168 139.537 98.2025 139.55 99.8736C139.565 100.853 139.651 101.831 139.809 102.798C139.988 103.892 140.233 105.086 140.512 106.346C140.79 107.606 141.029 108.806 141.175 109.914C141.327 110.894 141.401 111.886 141.394 112.878C141.394 113.259 141.372 113.64 141.327 114.019C141.309 114.305 141.267 114.588 141.201 114.867C141.169 115.112 141.109 115.353 141.022 115.584C140.956 115.584 141.195 114.549 141.168 112.878C141.14 111.898 141.045 110.921 140.883 109.953C140.697 108.859 140.445 107.666 140.173 106.406C139.901 105.146 139.656 103.945 139.51 102.838C139.362 101.857 139.297 100.865 139.318 99.8736C139.318 99.492 139.345 99.1109 139.398 98.733C139.417 98.4446 139.462 98.1584 139.53 97.8775C139.571 97.6346 139.638 97.3967 139.729 97.168Z" fill="#3F3F40"/>
<path d="M182.23 118.083C182.23 118.083 182.37 117.732 182.794 117.294C183.359 116.739 184.037 116.311 184.782 116.041C185.527 115.771 186.321 115.665 187.111 115.729C187.441 115.73 187.765 115.814 188.053 115.975C186.985 115.852 185.904 115.979 184.894 116.345C183.883 116.711 182.972 117.306 182.23 118.083Z" fill="#3F3F40"/>
<path d="M163.939 87.4762C163.939 87.4762 163.83 87.1142 163.891 86.5076C163.989 85.7213 159.714 84.9502 160.131 84.2761C160.547 83.6021 165.646 83.0408 166.305 82.6012C166.564 82.3971 166.87 82.2622 167.195 82.2092C166.282 82.7756 160.213 83.5738 160.523 83.9659C159.739 84.5865 165.193 86.4445 163.939 87.4762Z" fill="#3F3F40"/>
<path d="M158.007 99C158.074 99 158.133 99.8488 158.545 101.149C158.787 101.908 159.105 102.641 159.493 103.337C159.975 104.183 160.546 104.974 161.197 105.698C161.867 106.406 162.606 107.043 163.405 107.601C164.067 108.045 164.771 108.423 165.508 108.728C166.768 109.252 167.616 109.392 167.603 109.445C167.4 109.455 167.196 109.433 167 109.378C166.774 109.348 166.552 109.297 166.337 109.226C166.031 109.153 165.732 109.058 165.441 108.941C164.676 108.658 163.944 108.291 163.26 107.846C162.429 107.291 161.664 106.643 160.978 105.917C160.31 105.172 159.729 104.353 159.247 103.476C158.864 102.758 158.561 102 158.346 101.215C158.256 100.914 158.185 100.609 158.133 100.3C158.089 100.081 158.058 99.8594 158.041 99.6366C158.002 99.4268 157.991 99.2127 158.007 99Z" fill="#3F3F40"/>
<path d="M146.951 72.2148C146.951 72.2148 153.675 82.1157 163.324 76.9365C163.324 76.9365 158.808 71.187 146.951 72.2148Z" fill="#FFD000"/>
<path d="M163.085 76.7165C162.258 77.0814 161.412 77.4046 160.552 77.6847C158.456 78.2807 156.235 78.2807 154.139 77.6847C152.054 77.0573 150.17 75.8933 148.675 74.3093C147.514 73.1024 147.004 72.1806 146.951 72.2138C147.03 72.4504 147.144 72.674 147.289 72.8769C147.641 73.4476 148.045 73.9848 148.496 74.4817C149.98 76.1513 151.9 77.3751 154.04 78.0163C156.194 78.634 158.483 78.5994 160.618 77.9168C161.258 77.7147 161.876 77.4481 162.462 77.1211C162.69 77.0199 162.9 76.8833 163.085 76.7165Z" fill="#3F3F40"/>
<path d="M171.399 86.8996C171.399 86.8996 171.243 86.5753 171.159 86.0837C171.064 85.4504 167.772 83.9012 167.933 83.4288C168.095 82.9565 171.706 83.572 172.096 83.3462C172.242 83.2314 172.437 83.1842 172.664 83.2092C172.116 83.4866 167.844 82.8619 168.154 83.254C167.712 83.6038 172.098 86.3076 171.399 86.8996Z" fill="#3F3F40"/>
<path fill-rule="evenodd" clip-rule="evenodd" d="M171.858 123.002C171.986 123.054 171.642 124.469 171.589 124.597L167.911 133.531L165.814 130.002L164.087 134.603C164.031 134.729 162.984 136.558 162.858 136.502C162.732 136.445 163.574 134.526 163.63 134.4L165.814 129.485L167.806 132.472C169.23 129.458 170.126 127.873 171.127 124.406C171.18 124.279 171.73 122.949 171.858 123.002Z" fill="#858585"/>
<path fill-rule="evenodd" clip-rule="evenodd" d="M181.353 134.481C181.329 134.581 180.155 134.549 180.046 134.53L172.425 133.243L174.944 131.192L171.042 130.649C170.934 130.628 169.334 130.153 169.361 130.054C169.388 129.954 171.032 130.268 171.141 130.289L175.356 131.113L173.253 133.005C175.849 133.572 177.235 133.976 180.133 134.168C180.242 134.186 181.377 134.38 181.353 134.481Z" fill="#858585"/>
<path fill-rule="evenodd" clip-rule="evenodd" d="M172.84 187.498C172.816 187.598 171.642 187.566 171.533 187.548L163.912 186.26L166.431 184.21L162.529 183.667C162.421 183.646 160.821 183.171 160.848 183.071C160.875 182.972 162.519 183.285 162.628 183.307L166.843 184.131L164.74 186.023C167.336 186.589 168.722 186.993 171.621 187.186C171.729 187.204 172.864 187.398 172.84 187.498Z" fill="#858585"/>
<path fill-rule="evenodd" clip-rule="evenodd" d="M178.38 138.231C178.455 138.347 177.366 139.313 177.25 139.388C174.868 138.066 172.982 139.68 169.133 144.629L169.424 140.535C168.346 142.001 164.312 145.536 163.289 144.189C162.705 144.839 166.845 143.501 169.718 140.11L169.651 143.7C172.473 139.813 174.088 138.218 176.979 138.968C177.095 138.893 178.305 138.115 178.38 138.231Z" fill="#858585"/>
<path fill-rule="evenodd" clip-rule="evenodd" d="M160.038 164.199C159.914 164.377 161.515 165.721 161.688 165.823C165.194 163.368 167.807 165.42 173.777 172.937L173.345 166.5C174.889 168.586 181.133 173.895 182.819 171.816C183.665 172.733 177.393 171.082 173.237 166.29L173.054 171.602C169.016 166.07 166.654 163.836 162.139 165.179C161.345 165.556 160.163 164.021 160.038 164.199Z" fill="#858585"/>
<path fill-rule="evenodd" clip-rule="evenodd" d="M185.949 154.108C186.042 154.018 185.44 153.754 185.368 153.743C185.271 150.708 184.614 149.882 180.33 152.936L179.404 155.279C177.938 153.549 177.055 152.392 176.947 154.768C176.872 154.759 175.6 154.762 175.509 154.852C175.418 154.942 176.543 155.086 176.617 155.095C177.845 154.5 177.737 153.071 179.521 155.447L180.345 153C184.052 149.948 185.271 150.295 185.031 154.068C185.103 154.08 185.856 154.198 185.949 154.108Z" fill="#858585"/>
<path fill-rule="evenodd" clip-rule="evenodd" d="M182.443 96.3726C182.491 96.4463 181.799 97.0603 181.725 97.1079L176.567 100.439L176.751 97.8365L174.182 99.6127C174.107 99.6582 172.898 100.234 172.853 100.159C172.807 100.084 173.942 99.3866 174.017 99.3411L176.939 97.5668L176.896 99.8481C178.732 98.7908 179.774 98.2878 181.553 96.841C181.626 96.7934 182.396 96.2989 182.443 96.3726Z" fill="#858585"/>
<path fill-rule="evenodd" clip-rule="evenodd" d="M190.948 109.204C190.995 109.278 187.923 108.39 187.849 108.437C186.349 108.437 188.862 109.794 185.071 113.27L185.256 110.668L182.849 108.437C182.774 108.483 181.402 113.065 181.357 112.99C181.311 112.915 182.611 108.226 182.686 108.181L185.443 110.399L185.4 112.68C187.236 111.623 186.071 109.384 187.849 107.937C187.923 107.89 190.9 109.131 190.948 109.204Z" fill="#858585"/>
<path fill-rule="evenodd" clip-rule="evenodd" d="M181.001 123.206C180.982 123.259 182.983 123.115 183.045 123.171C184.109 123.473 182.6 124.133 185.991 127.888L185.335 125.612L186.593 124.179C186.655 124.233 188.553 128.451 188.57 128.395C188.587 128.34 186.719 124.045 186.657 123.991L185.148 125.343L185.639 127.313C184.123 126.034 184.498 124.344 182.944 122.741C182.882 122.685 181.02 123.152 181.001 123.206Z" fill="#858585"/>
<path fill-rule="evenodd" clip-rule="evenodd" d="M175.855 91.1004C175.826 91.1503 176.317 91.6104 176.368 91.6469L179.971 94.2009L179.739 92.365L181.538 93.7194C181.591 93.7545 182.426 94.2088 182.454 94.158C182.481 94.1072 181.69 93.5705 181.638 93.5354L179.602 92.1677L179.725 93.7723C178.448 92.9533 177.728 92.5568 176.473 91.4665C176.421 91.43 175.884 91.0506 175.855 91.1004Z" fill="#858585"/>
<path d="M175.845 143.328C177.191 141.838 178.412 141.297 185.345 143.328V143.828C179.662 141.935 174.737 141.382 179.345 143.828C177.724 143.103 176.893 142.86 175.845 143.328Z" fill="#858585"/>
<path d="M17.9524 121.816C17.9524 121.816 25.3601 144.342 27.3973 151.373C28.8541 156.672 29.857 162.085 30.3951 167.554C30.3987 167.638 30.383 167.722 30.349 167.799C30.315 167.877 30.2637 167.945 30.199 167.999C30.1432 168.043 30.0792 168.076 30.0106 168.096C29.942 168.115 29.8703 168.121 29.7996 168.112C29.7288 168.104 29.6604 168.081 29.5984 168.047C29.5363 168.012 29.4817 167.965 29.4379 167.908C29.4096 167.879 29.3868 167.846 29.3704 167.809C26.8651 162.894 24.7495 157.79 23.0433 152.544C21.061 145.703 15.388 122.525 15.388 122.525C15.3788 122.419 15.3954 122.313 15.4364 122.216C15.4775 122.118 15.5416 122.032 15.6234 121.965C15.8588 121.744 16.1431 121.581 16.4532 121.49C16.7633 121.398 17.0905 121.381 17.4084 121.44C17.5228 121.454 17.6321 121.495 17.7269 121.561C17.8217 121.626 17.8991 121.714 17.9524 121.816Z" fill="#FFD000"/>
<path opacity="0.1" d="M17.4723 124.469L15.9436 124.637C17.325 130.272 21.1459 145.693 22.879 151.851L23.07 152.519C24.7634 157.772 26.8667 162.883 29.3607 167.806C29.377 167.843 29.3999 167.876 29.4281 167.905C29.472 167.962 29.5265 168.008 29.5886 168.043C29.6507 168.078 29.7191 168.101 29.7898 168.109C29.8606 168.118 29.9323 168.112 30.0009 168.093C30.0694 168.073 30.1334 168.04 30.1893 167.996C29.7424 168.13 17.4723 124.469 17.4723 124.469Z" fill="#121313"/>
<path d="M16.5059 121.498C15.9313 120.918 12.6394 117.273 12.4139 114.027C12.8174 113.898 13.194 113.697 13.525 113.433C14.815 112.42 14.2555 111.173 15.1399 110.294C16.0242 109.415 17.7715 110.82 17.7884 110.835C19.0535 112.361 19.8144 114.242 19.9664 116.219C19.9818 118.301 19.2875 120.326 17.9979 121.961L15.4354 122.784L16.5059 121.498Z" fill="#455A64"/>
<path d="M9.64682 115.571C10.2349 114.235 11.2843 114.41 12.4429 114.034C12.649 117.275 15.9602 120.926 16.5349 121.506L15.4644 122.791C14.522 122.577 13.6343 122.169 12.8571 121.595C12.08 121.02 11.4302 120.291 10.9487 119.453C10.2163 118.279 9.77034 116.95 9.64682 115.571Z" fill="#37474F"/>
<path d="M9.63951 115.56C9.61859 115.359 9.5952 115.167 9.59366 114.971C9.59366 114.971 9.59495 114.682 9.60044 114.539C9.60594 114.396 9.6276 114.432 9.64241 114.374C9.65705 114.333 9.6678 114.291 9.67451 114.248L9.7313 114.025C9.74956 113.934 9.77264 113.843 9.80043 113.754C9.85475 113.541 9.90659 113.337 9.95844 113.134C10.0103 112.93 10.0621 112.727 10.114 112.523C10.1658 112.32 10.2152 112.126 10.3349 111.94C10.8469 110.778 11.5807 109.728 12.4953 108.848L12.6974 108.662L12.7147 108.594L12.9509 108.396C13.4444 107.998 13.9728 107.646 14.5297 107.343C14.7593 107.211 14.9963 107.093 15.2395 106.988C15.4606 106.889 15.6696 106.798 15.8737 106.726L16.1457 106.63L16.3935 106.549C16.5282 106.504 16.6652 106.467 16.8039 106.437C17.0249 106.38 17.1535 106.361 17.1535 106.361C16.9141 106.886 16.7951 107.459 16.8051 108.036C16.8151 108.613 16.9538 109.181 17.2112 109.698C17.4074 110.128 17.6495 110.536 17.9334 110.914C17.9334 110.914 16.1643 109.514 15.2849 110.374C14.4055 111.233 14.9503 112.497 13.67 113.512C13.339 113.776 12.9624 113.978 12.5589 114.106C11.4294 114.489 10.3509 114.307 9.76282 115.643L9.63951 115.56Z" fill="#FFD000"/>
<path opacity="0.1" d="M17.0691 106.287C14.8583 107.671 13.2592 109.848 12.5984 112.371C12.4408 112.927 12.384 113.507 12.4307 114.083C11.3011 114.466 10.2227 114.284 9.63457 115.62C9.61365 115.419 9.59026 115.227 9.58872 115.03C9.58872 115.03 9.59001 114.742 9.5955 114.599C9.601 114.456 9.62266 114.492 9.63747 114.434C9.65211 114.393 9.66286 114.351 9.66957 114.308L9.72636 114.085C9.74462 113.994 9.7677 113.903 9.79549 113.814C9.84981 113.601 9.90165 113.397 9.9535 113.194C10.0054 112.99 10.0572 112.787 10.109 112.583C10.1609 112.38 10.2103 112.186 10.33 112C10.8419 110.838 11.5758 109.788 12.4903 108.907L12.6925 108.721L12.7097 108.654L12.9459 108.456C13.4395 108.058 13.9679 107.706 14.5247 107.403C14.7544 107.271 14.9914 107.152 15.2345 107.047C15.4557 106.949 15.6647 106.858 15.8687 106.786L16.1408 106.69L16.3885 106.609C16.5232 106.564 16.6602 106.526 16.7989 106.496C17.0199 106.439 17.1485 106.42 17.1485 106.42L17.0691 106.287Z" fill="#121313"/>
<path d="M15.4268 122.535C15.4176 122.429 15.4342 122.323 15.4752 122.226C15.5162 122.128 15.5804 122.042 15.6622 121.975C15.8976 121.754 16.1819 121.591 16.492 121.5C16.8021 121.408 17.1293 121.391 17.4472 121.45C17.5537 121.468 17.6546 121.511 17.7422 121.574C17.8297 121.638 17.9017 121.72 17.9525 121.816C18.377 122.918 18.7379 124.044 19.0335 125.187C18.9545 124.971 18.903 124.566 18.5613 124.489C18.1637 124.416 17.7543 124.437 17.3665 124.552C16.9786 124.666 16.6233 124.871 16.3294 125.148C16.0785 125.404 16.2297 125.742 16.2748 125.97C16.0164 124.635 15.5565 123.362 15.4268 122.535Z" fill="#EBEBEB"/>
<path d="M17.4724 124.47C17.0242 124.562 16.6112 124.779 16.2812 125.096C16.0302 125.351 16.1815 125.689 16.2266 125.917C15.8874 124.804 15.6107 123.672 15.3977 122.528C15.391 122.423 15.4088 122.318 15.4496 122.221C15.4905 122.124 15.5533 122.037 15.6331 121.969C15.864 121.738 16.1518 121.573 16.4672 121.49L17.4046 124.453L17.4724 124.47Z" fill="#E0E0E0"/>
<path opacity="0.15" d="M149.711 195.752C169.727 168.657 157.726 64.8155 137.705 84.4545C129 84.4545 102.623 154.442 84.398 121.887C78.9525 117.593 62.4114 123.574 59.6313 117.089C57.2439 111.541 57.5671 105.053 55.1832 99.505C51.6873 91.3621 41.2515 85.3918 32.7584 86.6086C24.2652 87.8255 12.6454 104.334 9 112.404L14.5141 104.817L14.7886 104.983L16.4602 105.986C17.5618 103.236 20.8214 99.4646 23.5111 98.2183C23.598 98.1779 23.6814 98.1375 23.7683 98.1044C30.4335 95.406 39.0796 97.6412 42.1551 104.928C43.7119 108.604 42.8188 112.339 43.2462 116.192C43.7015 120.305 44.8622 124.052 47.0932 127.485C49.0497 130.492 53.2893 136.511 53.2893 136.511C84.4549 168.986 138.524 204.103 149.711 195.752Z" fill="#FFD000"/>
<path opacity="0.2" d="M149.711 195.752C152.095 188.7 154.735 169.877 155.928 149.499C181.321 114.405 118.812 213.212 78.1548 143.347C72.7093 139.053 53.0808 124.378 50.3007 117.893C47.9133 112.346 49.477 105.473 47.0931 99.9257C39.818 93.8675 34.12 93.91 28.6898 93.4375C20.1967 94.6544 12.6453 104.334 8.99992 112.403L14.514 104.817L14.7886 104.982L16.4601 105.986C17.5617 103.236 20.8213 99.4639 23.511 98.2176C23.5979 98.1772 23.6813 98.1367 23.7682 98.1036C30.4334 95.4052 39.0795 97.6404 42.155 104.927C43.7118 108.603 42.8187 112.338 43.2461 116.191C43.7014 120.305 44.8621 124.051 47.0931 127.484C49.0496 130.492 53.2892 136.51 53.2892 136.51C84.6204 153.156 142.981 215.662 149.711 195.752Z" fill="#FFD000"/>
</g>
<defs>
<clipPath id="clip0_752_25434">
<rect width="200" height="200" fill="white"/>
</clipPath>
</defs>
</svg>
