<svg width="200" height="200" viewBox="0 0 200 200" fill="none" xmlns="http://www.w3.org/2000/svg">
<g clip-path="url(#clip0_752_27456)">
<path fill-rule="evenodd" clip-rule="evenodd" d="M96.6489 40.0786C72.5164 41.5624 60.8087 65.3973 46.0572 82.1754C34.101 95.7741 23.0389 109.409 20.7142 126.445C18.0291 146.122 16.4425 168.605 32.3369 182.721C48.2827 196.882 74.0361 195.809 96.6489 193.883C119.863 194.322 138.62 187.342 149.552 172.737C165.068 160.174 178.921 144.922 179.935 126.445C180.989 107.244 169.055 90.1752 154.888 75.4837C139.04 59.05 121.162 38.5713 96.6489 40.0786Z" fill="#FFF3CC"/>
<mask id="mask0_752_27456" style="mask-type:alpha" maskUnits="userSpaceOnUse" x="19" y="40" width="161" height="155">
<path fill-rule="evenodd" clip-rule="evenodd" d="M96.6489 40.0786C72.5164 41.5624 60.8087 65.3973 46.0572 82.1754C34.101 95.7741 23.0389 109.409 20.7142 126.445C18.0291 146.122 16.4425 168.605 32.3369 182.721C48.2827 196.882 74.0361 195.809 96.6489 193.883C119.863 194.322 138.62 187.342 149.552 172.737C165.068 160.174 178.921 144.922 179.935 126.445C180.989 107.244 169.055 90.1752 154.888 75.4837C139.04 59.05 121.162 38.5713 96.6489 40.0786Z" fill="#FFF3CC"/>
</mask>
<g mask="url(#mask0_752_27456)">
<path d="M50.6606 64H38V232.983H50.6606V64Z" fill="#E6E6E6"/>
<path d="M50.6548 232.982H161.764L161.764 63.9998H50.6548L50.6548 232.982Z" fill="#F5F5F5"/>
<path d="M159.69 232.984V66.4902H52.7341L52.7341 232.984H159.69Z" fill="#E6E6E6"/>
<path d="M61.6865 232.984L61.6865 66.4902H52.734L52.734 232.984H61.6865Z" fill="#E0E0E0"/>
<path d="M160.817 168.415V165.932H52.7341V168.415H160.817Z" fill="#F5F5F5"/>
<path d="M160.817 133.534V131.045H52.7341V133.534H160.817Z" fill="#F5F5F5"/>
<path d="M160.817 98.6438V96.1602H52.7341V98.6438H160.817Z" fill="#F5F5F5"/>
<path d="M62.2641 96.166H78.3381V72.4679H62.2641V96.166Z" fill="#FAFAFA"/>
<path d="M80.0479 72.4609H76.9636C76.4788 72.4609 76.0857 72.854 76.0857 73.3389V95.2811C76.0857 95.766 76.4788 96.1591 76.9636 96.1591H80.0479C80.5328 96.1591 80.9258 95.766 80.9258 95.2811V73.3389C80.9258 72.854 80.5328 72.4609 80.0479 72.4609Z" fill="#F0F0F0"/>
<path d="M56.8463 96.166H72.9204V72.4679H56.8463V96.166Z" fill="#FAFAFA"/>
<path d="M74.6416 72.4609H71.5574C71.0725 72.4609 70.6794 72.854 70.6794 73.3389V95.2811C70.6794 95.766 71.0725 96.1591 71.5574 96.1591H74.6416C75.1265 96.1591 75.5196 95.766 75.5196 95.2811V73.3389C75.5196 72.854 75.1265 72.4609 74.6416 72.4609Z" fill="#E6E6E6"/>
<path d="M52.7341 72.4609H66.6076L65.5044 96.1648H52.7341V72.4609Z" fill="#FAFAFA"/>
<path d="M68.398 72.4609H65.1578C64.9219 72.4842 64.7037 72.5962 64.5472 72.7741C64.3907 72.9521 64.3075 73.1828 64.3145 73.4197L63.298 95.206C63.2827 95.319 63.2903 95.4339 63.3203 95.5438C63.3503 95.6538 63.4022 95.7565 63.4728 95.846C63.5434 95.9355 63.6313 96.0098 63.7313 96.0646C63.8312 96.1194 63.9412 96.1535 64.0546 96.1648H67.2948C67.5296 96.1389 67.7463 96.0263 67.9023 95.8489C68.0583 95.6715 68.1424 95.4422 68.1381 95.206L69.1546 73.4197C69.1708 73.3067 69.1638 73.1915 69.1341 73.0812C69.1043 72.9709 69.0525 72.8678 68.9818 72.7782C68.911 72.6885 68.8228 72.6142 68.7225 72.5596C68.6221 72.5051 68.5117 72.4715 68.398 72.4609Z" fill="#F0F0F0"/>
<path d="M136.599 96.1602H148.786V76.1528H136.599V96.1602Z" fill="#FAFAFA"/>
<path d="M150.051 76.1582H147.781C147.395 76.1582 147.082 76.4711 147.082 76.8571V95.4667C147.082 95.8527 147.395 96.1656 147.781 96.1656H150.051C150.437 96.1656 150.749 95.8527 150.749 95.4667V76.8571C150.749 76.4711 150.437 76.1582 150.051 76.1582Z" fill="#F0F0F0"/>
<path d="M132.492 96.1602H144.679V76.1528H132.492V96.1602Z" fill="#FAFAFA"/>
<path d="M145.95 76.1582H143.68C143.294 76.1582 142.981 76.4711 142.981 76.8571V95.4667C142.981 95.8527 143.294 96.1656 143.68 96.1656H145.95C146.336 96.1656 146.649 95.8527 146.649 95.4667V76.8571C146.649 76.4711 146.336 76.1582 145.95 76.1582Z" fill="#E6E6E6"/>
<path d="M129.373 76.1582H139.891L139.054 96.1656H129.373V76.1582Z" fill="#FAFAFA"/>
<path d="M141.248 76.1582H138.794C138.459 76.1582 138.176 76.5221 138.152 76.9668L137.384 95.357C137.384 95.8017 137.621 96.1656 137.962 96.1656H140.422C140.757 96.1656 141.04 95.8017 141.058 95.357L141.832 76.9668C141.843 76.5221 141.583 76.1582 141.248 76.1582Z" fill="#F0F0F0"/>
<path d="M120.883 96.1602H133.07V76.1528H120.883V96.1602Z" fill="#FAFAFA"/>
<path d="M134.335 76.1582H132.065C131.679 76.1582 131.366 76.4711 131.366 76.8571V95.4667C131.366 95.8527 131.679 96.1656 132.065 96.1656H134.335C134.721 96.1656 135.034 95.8527 135.034 95.4667V76.8571C135.034 76.4711 134.721 76.1582 134.335 76.1582Z" fill="#F0F0F0"/>
<path d="M116.782 96.1602H128.969V76.1528H116.782V96.1602Z" fill="#FAFAFA"/>
<path d="M130.234 76.1582H127.964C127.578 76.1582 127.265 76.4711 127.265 76.8571V95.4667C127.265 95.8527 127.578 96.1656 127.964 96.1656H130.234C130.62 96.1656 130.933 95.8527 130.933 95.4667V76.8571C130.933 76.4711 130.62 76.1582 130.234 76.1582Z" fill="#E6E6E6"/>
<path d="M113.663 76.1582H124.175L123.343 96.1656H113.663V76.1582Z" fill="#FAFAFA"/>
<path d="M125.538 76.1582H123.078C122.743 76.1582 122.46 76.5221 122.442 76.9668L121.686 95.357C121.686 95.8017 121.928 96.1656 122.263 96.1656H124.718C125.053 96.1656 125.336 95.8017 125.359 95.357L126.127 76.9668C126.127 76.5221 125.873 76.1582 125.538 76.1582Z" fill="#F0F0F0"/>
<path d="M97.924 96.166H106.42V74.6627H97.924V96.166Z" fill="#FAFAFA"/>
<path d="M107.188 74.6562H105.843C105.508 74.6562 105.236 74.9278 105.236 75.2627V95.5531C105.236 95.8881 105.508 96.1596 105.843 96.1596H107.188C107.523 96.1596 107.795 95.8881 107.795 95.5531V75.2627C107.795 74.9278 107.523 74.6562 107.188 74.6562Z" fill="#F0F0F0"/>
<path d="M90.8486 96.166H100.211V72.4679H90.8486V96.166Z" fill="#FAFAFA"/>
<path d="M101.054 72.4609H99.5758C99.2057 72.4609 98.9058 72.7609 98.9058 73.1309V95.4891C98.9058 95.8591 99.2057 96.1591 99.5758 96.1591H101.054C101.424 96.1591 101.724 95.8591 101.724 95.4891V73.1309C101.724 72.7609 101.424 72.4609 101.054 72.4609Z" fill="#F5F5F5"/>
<path d="M88.4517 72.4609H96.532L95.8909 96.1648H88.4517V72.4609Z" fill="#FAFAFA"/>
<path d="M97.5774 72.4609H95.6945C95.4404 72.4609 95.2151 72.8883 95.2036 73.4197L94.626 95.206C94.626 95.7316 94.805 96.1648 95.0649 96.1648H96.9536C97.2078 96.1648 97.4272 95.7316 97.4446 95.206L98.0222 73.4197C98.0048 72.8883 97.8315 72.4609 97.5774 72.4609Z" fill="#F0F0F0"/>
<path d="M105.057 131.051H121.131V107.353H105.057V131.051Z" fill="#FAFAFA"/>
<path d="M122.846 107.348H119.762C119.277 107.348 118.884 107.741 118.884 108.226V130.168C118.884 130.653 119.277 131.046 119.762 131.046H122.846C123.331 131.046 123.724 130.653 123.724 130.168V108.226C123.724 107.741 123.331 107.348 122.846 107.348Z" fill="#F0F0F0"/>
<path d="M99.651 131.051H115.725V107.353H99.651V131.051Z" fill="#FAFAFA"/>
<path d="M117.435 107.348H114.35C113.865 107.348 113.472 107.741 113.472 108.226V130.168C113.472 130.653 113.865 131.046 114.35 131.046H117.435C117.919 131.046 118.313 130.653 118.313 130.168V108.226C118.313 107.741 117.919 107.348 117.435 107.348Z" fill="#E6E6E6"/>
<path d="M95.5327 107.348H109.4L108.297 131.052H95.5327V107.348Z" fill="#FAFAFA"/>
<path d="M111.197 107.348H107.957C107.721 107.371 107.502 107.483 107.346 107.661C107.189 107.839 107.106 108.07 107.113 108.306L106.091 130.093C106.075 130.206 106.082 130.321 106.112 130.431C106.141 130.542 106.193 130.645 106.264 130.734C106.335 130.824 106.423 130.898 106.523 130.953C106.624 131.007 106.734 131.041 106.848 131.052H110.088C110.323 131.026 110.539 130.913 110.695 130.736C110.851 130.558 110.935 130.329 110.931 130.093L111.942 108.306C111.959 108.194 111.953 108.08 111.924 107.97C111.896 107.86 111.845 107.757 111.775 107.667C111.705 107.577 111.618 107.503 111.519 107.448C111.419 107.393 111.31 107.359 111.197 107.348Z" fill="#F0F0F0"/>
<path d="M129.697 131.045H139.544V111.038H129.697V131.045Z" fill="#FAFAFA"/>
<path d="M140.503 111.043H138.799C138.452 111.043 138.17 111.325 138.17 111.673V130.421C138.17 130.768 138.452 131.05 138.799 131.05H140.503C140.851 131.05 141.133 130.768 141.133 130.421V111.673C141.133 111.325 140.851 111.043 140.503 111.043Z" fill="#F0F0F0"/>
<path d="M126.381 131.045H136.229V111.038H126.381V131.045Z" fill="#FAFAFA"/>
<path d="M137.188 111.043H135.484C135.136 111.043 134.854 111.325 134.854 111.673V130.421C134.854 130.768 135.136 131.05 135.484 131.05H137.188C137.536 131.05 137.817 130.768 137.817 130.421V111.673C137.817 111.325 137.536 111.043 137.188 111.043Z" fill="#E6E6E6"/>
<path d="M123.857 111.043H132.359L131.684 131.05H123.857V111.043Z" fill="#FAFAFA"/>
<path d="M133.457 111.043H131.47C131.198 111.043 130.967 111.407 130.956 111.852L130.349 130.242C130.349 130.686 130.54 131.05 130.811 131.05H132.798C133.07 131.05 133.301 130.686 133.312 130.242L133.936 111.852C133.936 111.407 133.728 111.043 133.457 111.043Z" fill="#F0F0F0"/>
<path d="M146.129 131.051H154.284V114.48H146.129V131.051Z" fill="#FAFAFA"/>
<path d="M155.076 114.475H153.66C153.373 114.475 153.141 114.707 153.141 114.994V130.526C153.141 130.813 153.373 131.045 153.66 131.045H155.076C155.363 131.045 155.595 130.813 155.595 130.526V114.994C155.595 114.707 155.363 114.475 155.076 114.475Z" fill="#F0F0F0"/>
<path d="M143.379 131.051H151.535V114.48H143.379V131.051Z" fill="#FAFAFA"/>
<path d="M152.332 114.475H150.917C150.63 114.475 150.397 114.707 150.397 114.994V130.526C150.397 130.813 150.63 131.045 150.917 131.045H152.332C152.619 131.045 152.852 130.813 152.852 130.526V114.994C152.852 114.707 152.619 114.475 152.332 114.475Z" fill="#E6E6E6"/>
<path d="M141.289 114.475H148.33L147.769 131.051H141.289V114.475Z" fill="#FAFAFA"/>
<path d="M149.242 114.475H147.596C147.37 114.475 147.18 114.775 147.168 115.145L146.654 130.381C146.654 130.751 146.81 131.051 147.036 131.051H148.682C148.901 131.051 149.097 130.751 149.109 130.381L149.623 115.145C149.635 114.775 149.461 114.475 149.242 114.475Z" fill="#F0F0F0"/>
<path d="M79.2911 131.045H91.478V111.038H79.2911V131.045Z" fill="#FAFAFA"/>
<path d="M92.7488 111.043H90.4789C90.0929 111.043 89.78 111.356 89.78 111.742V130.351C89.78 130.737 90.0929 131.05 90.4789 131.05H92.7488C93.1348 131.05 93.4477 130.737 93.4477 130.351V111.742C93.4477 111.356 93.1348 111.043 92.7488 111.043Z" fill="#F0F0F0"/>
<path d="M75.1961 131.045H87.3831V111.038H75.1961V131.045Z" fill="#FAFAFA"/>
<path d="M88.6423 111.043H86.3725C85.9865 111.043 85.6736 111.356 85.6736 111.742V130.351C85.6736 130.737 85.9865 131.05 86.3725 131.05H88.6423C89.0283 131.05 89.3412 130.737 89.3412 130.351V111.742C89.3412 111.356 89.0283 111.043 88.6423 111.043Z" fill="#E6E6E6"/>
<path d="M72.0715 111.043H82.5893L81.7518 131.05H72.0715V111.043Z" fill="#FAFAFA"/>
<path d="M83.9465 111.043H81.4918C81.3036 111.074 81.1338 111.174 81.0153 111.324C80.8968 111.473 80.8381 111.661 80.8507 111.852L80.0999 130.242C80.0999 130.686 80.3367 131.05 80.6774 131.05H83.1322C83.3203 131.019 83.4902 130.919 83.6087 130.77C83.7272 130.62 83.7859 130.432 83.7733 130.242L84.5414 111.852C84.5414 111.407 84.2815 111.043 83.9465 111.043Z" fill="#F0F0F0"/>
<path d="M62.2064 131.051H70.7026V109.547H62.2064V131.051Z" fill="#FAFAFA"/>
<path d="M71.4649 109.543H70.1192C69.7842 109.543 69.5127 109.814 69.5127 110.149V130.44C69.5127 130.775 69.7842 131.046 70.1192 131.046H71.4649C71.7999 131.046 72.0714 130.775 72.0714 130.44V110.149C72.0714 109.814 71.7999 109.543 71.4649 109.543Z" fill="#F0F0F0"/>
<path d="M55.1311 131.051H64.4937V107.353H55.1311V131.051Z" fill="#FAFAFA"/>
<path d="M65.331 107.348H63.8524C63.4823 107.348 63.1824 107.648 63.1824 108.018V130.376C63.1824 130.746 63.4823 131.046 63.8524 131.046H65.331C65.701 131.046 66.001 130.746 66.001 130.376V108.018C66.001 107.648 65.701 107.348 65.331 107.348Z" fill="#F5F5F5"/>
<path d="M52.7341 107.348H60.8145L60.1734 131.052H52.7341V107.348Z" fill="#FAFAFA"/>
<path d="M61.8598 107.348H59.9711C59.7112 107.348 59.4917 107.775 59.4802 108.306L58.9026 130.093C58.9026 130.618 59.0874 131.052 59.3473 131.052H61.2129C61.4728 131.052 61.6923 130.618 61.7039 130.093L62.2814 108.306C62.3103 107.775 62.1139 107.348 61.8598 107.348Z" fill="#F0F0F0"/>
<path d="M62.2641 165.938H78.3381V142.239H62.2641V165.938Z" fill="#FAFAFA"/>
<path d="M80.0479 142.232H76.9636C76.4788 142.232 76.0857 142.625 76.0857 143.11V165.053C76.0857 165.537 76.4788 165.931 76.9636 165.931H80.0479C80.5328 165.931 80.9258 165.537 80.9258 165.053V143.11C80.9258 142.625 80.5328 142.232 80.0479 142.232Z" fill="#F0F0F0"/>
<path d="M56.8463 165.938H72.9204V142.239H56.8463V165.938Z" fill="#FAFAFA"/>
<path d="M74.6416 142.232H71.5574C71.0725 142.232 70.6794 142.625 70.6794 143.11V165.053C70.6794 165.537 71.0725 165.931 71.5574 165.931H74.6416C75.1265 165.931 75.5196 165.537 75.5196 165.053V143.11C75.5196 142.625 75.1265 142.232 74.6416 142.232Z" fill="#E6E6E6"/>
<path d="M52.7341 142.232H66.6076L65.5044 165.936H52.7341V142.232Z" fill="#FAFAFA"/>
<path d="M68.398 142.232H65.1578C64.9219 142.256 64.7037 142.368 64.5472 142.546C64.3907 142.724 64.3075 142.954 64.3145 143.191L63.298 164.978C63.2827 165.09 63.2903 165.205 63.3203 165.315C63.3503 165.425 63.4022 165.528 63.4728 165.617C63.5434 165.707 63.6313 165.781 63.7313 165.836C63.8312 165.891 63.9412 165.925 64.0546 165.936H67.2948C67.5296 165.91 67.7463 165.798 67.9023 165.62C68.0583 165.443 68.1424 165.214 68.1381 164.978L69.1546 143.191C69.1708 143.078 69.1638 142.963 69.1341 142.853C69.1043 142.742 69.0525 142.639 68.9818 142.55C68.911 142.46 68.8228 142.386 68.7225 142.331C68.6221 142.277 68.5117 142.243 68.398 142.232Z" fill="#F0F0F0"/>
<path d="M136.599 165.932H148.786V145.924H136.599V165.932Z" fill="#FAFAFA"/>
<path d="M150.051 145.93H147.781C147.395 145.93 147.082 146.243 147.082 146.629V165.238C147.082 165.624 147.395 165.937 147.781 165.937H150.051C150.437 165.937 150.749 165.624 150.749 165.238V146.629C150.749 146.243 150.437 145.93 150.051 145.93Z" fill="#F0F0F0"/>
<path d="M132.492 165.932H144.679V145.924H132.492V165.932Z" fill="#FAFAFA"/>
<path d="M145.95 145.93H143.68C143.294 145.93 142.981 146.243 142.981 146.629V165.238C142.981 165.624 143.294 165.937 143.68 165.937H145.95C146.336 165.937 146.649 165.624 146.649 165.238V146.629C146.649 146.243 146.336 145.93 145.95 145.93Z" fill="#E6E6E6"/>
<path d="M129.373 145.93H139.891L139.054 165.937H129.373V145.93Z" fill="#FAFAFA"/>
<path d="M141.248 145.93H138.794C138.459 145.93 138.176 146.294 138.152 146.738L137.384 165.128C137.384 165.573 137.621 165.937 137.962 165.937H140.422C140.757 165.937 141.04 165.573 141.058 165.128L141.832 146.738C141.843 146.294 141.583 145.93 141.248 145.93Z" fill="#F0F0F0"/>
<path d="M120.883 165.932H133.07V145.924H120.883V165.932Z" fill="#FAFAFA"/>
<path d="M134.335 145.93H132.065C131.679 145.93 131.366 146.243 131.366 146.629V165.238C131.366 165.624 131.679 165.937 132.065 165.937H134.335C134.721 165.937 135.034 165.624 135.034 165.238V146.629C135.034 146.243 134.721 145.93 134.335 145.93Z" fill="#F0F0F0"/>
<path d="M116.782 165.932H128.969V145.924H116.782V165.932Z" fill="#FAFAFA"/>
<path d="M130.234 145.93H127.964C127.578 145.93 127.265 146.243 127.265 146.629V165.238C127.265 165.624 127.578 165.937 127.964 165.937H130.234C130.62 165.937 130.933 165.624 130.933 165.238V146.629C130.933 146.243 130.62 145.93 130.234 145.93Z" fill="#E6E6E6"/>
<path d="M113.663 145.93H124.175L123.343 165.937H113.663V145.93Z" fill="#FAFAFA"/>
<path d="M125.538 145.93H123.078C122.743 145.93 122.46 146.294 122.442 146.738L121.686 165.128C121.686 165.573 121.928 165.937 122.263 165.937H124.718C125.053 165.937 125.336 165.573 125.359 165.128L126.127 146.738C126.127 146.294 125.873 145.93 125.538 145.93Z" fill="#F0F0F0"/>
<path d="M97.924 165.938H106.42V144.434H97.924V165.938Z" fill="#FAFAFA"/>
<path d="M107.188 144.428H105.843C105.508 144.428 105.236 144.699 105.236 145.034V165.325C105.236 165.66 105.508 165.931 105.843 165.931H107.188C107.523 165.931 107.795 165.66 107.795 165.325V145.034C107.795 144.699 107.523 144.428 107.188 144.428Z" fill="#F0F0F0"/>
<path d="M90.8486 165.938H100.211V142.239H90.8486V165.938Z" fill="#FAFAFA"/>
<path d="M101.054 142.232H99.5758C99.2057 142.232 98.9058 142.532 98.9058 142.902V165.261C98.9058 165.631 99.2057 165.931 99.5758 165.931H101.054C101.424 165.931 101.724 165.631 101.724 165.261V142.902C101.724 142.532 101.424 142.232 101.054 142.232Z" fill="#F5F5F5"/>
<path d="M88.4517 142.232H96.532L95.8909 165.936H88.4517V142.232Z" fill="#FAFAFA"/>
<path d="M97.5774 142.232H95.6945C95.4404 142.232 95.2151 142.66 95.2036 143.191L94.626 164.978C94.626 165.503 94.805 165.936 95.0649 165.936H96.9536C97.2078 165.936 97.4272 165.503 97.4446 164.978L98.0222 143.191C98.0048 142.648 97.8315 142.232 97.5774 142.232Z" fill="#F0F0F0"/>
<path d="M105.057 200.822H121.131V177.124H105.057V200.822Z" fill="#FAFAFA"/>
<path d="M122.846 177.119H119.762C119.277 177.119 118.884 177.512 118.884 177.997V199.939C118.884 200.424 119.277 200.817 119.762 200.817H122.846C123.331 200.817 123.724 200.424 123.724 199.939V177.997C123.724 177.512 123.331 177.119 122.846 177.119Z" fill="#F0F0F0"/>
<path d="M99.651 200.822H115.725V177.124H99.651V200.822Z" fill="#FAFAFA"/>
<path d="M117.435 177.119H114.35C113.865 177.119 113.472 177.512 113.472 177.997V199.939C113.472 200.424 113.865 200.817 114.35 200.817H117.435C117.919 200.817 118.313 200.424 118.313 199.939V177.997C118.313 177.512 117.919 177.119 117.435 177.119Z" fill="#E6E6E6"/>
<path d="M95.5327 177.119H109.4L108.297 200.823H95.5327V177.119Z" fill="#FAFAFA"/>
<path d="M111.197 177.119H107.957C107.721 177.144 107.504 177.256 107.348 177.434C107.191 177.611 107.108 177.841 107.113 178.078L106.091 199.864C106.075 199.977 106.082 200.092 106.112 200.203C106.141 200.313 106.193 200.416 106.264 200.506C106.335 200.595 106.423 200.67 106.523 200.724C106.624 200.779 106.734 200.812 106.848 200.823H110.088C110.323 200.797 110.539 200.684 110.695 200.507C110.851 200.33 110.935 200.1 110.931 199.864L111.942 178.078C111.958 177.966 111.951 177.851 111.922 177.742C111.893 177.632 111.843 177.53 111.773 177.44C111.704 177.351 111.617 177.276 111.518 177.221C111.419 177.166 111.309 177.131 111.197 177.119Z" fill="#F0F0F0"/>
<path d="M129.697 200.816H139.544V180.809H129.697V200.816Z" fill="#FAFAFA"/>
<path d="M140.503 180.816H138.799C138.452 180.816 138.17 181.098 138.17 181.446V200.194C138.17 200.542 138.452 200.824 138.799 200.824H140.503C140.851 200.824 141.133 200.542 141.133 200.194V181.446C141.133 181.098 140.851 180.816 140.503 180.816Z" fill="#F0F0F0"/>
<path d="M126.381 200.816H136.229V180.809H126.381V200.816Z" fill="#FAFAFA"/>
<path d="M137.188 180.816H135.484C135.136 180.816 134.854 181.098 134.854 181.446V200.194C134.854 200.542 135.136 200.824 135.484 200.824H137.188C137.536 200.824 137.817 200.542 137.817 200.194V181.446C137.817 181.098 137.536 180.816 137.188 180.816Z" fill="#E6E6E6"/>
<path d="M123.857 180.816H132.359L131.684 200.824H123.857V180.816Z" fill="#FAFAFA"/>
<path d="M133.457 180.816H131.47C131.198 180.816 130.967 181.18 130.956 181.625L130.349 200.015C130.349 200.46 130.54 200.824 130.811 200.824H132.798C133.07 200.824 133.301 200.46 133.312 200.015L133.936 181.625C133.936 181.18 133.728 180.816 133.457 180.816Z" fill="#F0F0F0"/>
<path d="M146.129 200.822H154.284V184.251H146.129V200.822Z" fill="#FAFAFA"/>
<path d="M155.076 184.246H153.66C153.373 184.246 153.141 184.479 153.141 184.766V200.297C153.141 200.584 153.373 200.817 153.66 200.817H155.076C155.363 200.817 155.595 200.584 155.595 200.297V184.766C155.595 184.479 155.363 184.246 155.076 184.246Z" fill="#F0F0F0"/>
<path d="M143.379 200.822H151.535V184.251H143.379V200.822Z" fill="#FAFAFA"/>
<path d="M152.332 184.246H150.917C150.63 184.246 150.397 184.479 150.397 184.766V200.297C150.397 200.584 150.63 200.817 150.917 200.817H152.332C152.619 200.817 152.852 200.584 152.852 200.297V184.766C152.852 184.479 152.619 184.246 152.332 184.246Z" fill="#E6E6E6"/>
<path d="M141.289 184.246H148.33L147.769 200.823H141.289V184.246Z" fill="#FAFAFA"/>
<path d="M149.242 184.234H147.596C147.37 184.234 147.18 184.535 147.168 184.904L146.654 200.141C146.654 200.511 146.81 200.811 147.036 200.811H148.682C148.901 200.811 149.097 200.511 149.109 200.141L149.623 184.904C149.635 184.546 149.461 184.234 149.242 184.234Z" fill="#F0F0F0"/>
<path d="M79.2911 200.816H91.478V180.809H79.2911V200.816Z" fill="#FAFAFA"/>
<path d="M92.7488 180.816H90.4789C90.0929 180.816 89.78 181.129 89.78 181.515V200.125C89.78 200.511 90.0929 200.824 90.4789 200.824H92.7488C93.1348 200.824 93.4477 200.511 93.4477 200.125V181.515C93.4477 181.129 93.1348 180.816 92.7488 180.816Z" fill="#F0F0F0"/>
<path d="M75.1961 200.816H87.3831V180.809H75.1961V200.816Z" fill="#FAFAFA"/>
<path d="M88.6423 180.816H86.3725C85.9865 180.816 85.6736 181.129 85.6736 181.515V200.125C85.6736 200.511 85.9865 200.824 86.3725 200.824H88.6423C89.0283 200.824 89.3412 200.511 89.3412 200.125V181.515C89.3412 181.129 89.0283 180.816 88.6423 180.816Z" fill="#E6E6E6"/>
<path d="M72.0715 180.816H82.5893L81.7518 200.824H72.0715V180.816Z" fill="#FAFAFA"/>
<path d="M83.9465 180.816H81.4918C81.3036 180.848 81.1338 180.948 81.0153 181.097C80.8968 181.246 80.8381 181.435 80.8507 181.625L80.0999 200.015C80.0999 200.46 80.3367 200.824 80.6774 200.824H83.1322C83.3203 200.793 83.4902 200.693 83.6087 200.543C83.7272 200.394 83.7859 200.206 83.7733 200.015L84.5414 181.625C84.5414 181.18 84.2815 180.816 83.9465 180.816Z" fill="#F0F0F0"/>
<path d="M62.2064 200.822H70.7026V179.319H62.2064V200.822Z" fill="#FAFAFA"/>
<path d="M71.4649 179.314H70.1192C69.7842 179.314 69.5127 179.586 69.5127 179.921V200.211C69.5127 200.546 69.7842 200.818 70.1192 200.818H71.4649C71.7999 200.818 72.0714 200.546 72.0714 200.211V179.921C72.0714 179.586 71.7999 179.314 71.4649 179.314Z" fill="#F0F0F0"/>
<path d="M55.1311 200.822H64.4937V177.124H55.1311V200.822Z" fill="#FAFAFA"/>
<path d="M65.331 177.119H63.8524C63.4823 177.119 63.1824 177.419 63.1824 177.789V200.147C63.1824 200.517 63.4823 200.817 63.8524 200.817H65.331C65.701 200.817 66.001 200.517 66.001 200.147V177.789C66.001 177.419 65.701 177.119 65.331 177.119Z" fill="#F5F5F5"/>
<path d="M52.7341 177.119H60.8145L60.1734 200.823H52.7341V177.119Z" fill="#FAFAFA"/>
<path d="M61.8598 177.119H59.9711C59.7112 177.119 59.4917 177.552 59.4802 178.078L58.9026 199.864C58.9026 200.39 59.0874 200.823 59.3473 200.823H61.2129C61.4728 200.823 61.6923 200.39 61.7039 199.864L62.2814 178.078C62.3103 177.552 62.1139 177.119 61.8598 177.119Z" fill="#F0F0F0"/>
</g>
<path d="M107.94 44.8647L107.07 44.8164C102.876 44.5763 98.7456 45.9237 95.4999 48.5907C92.2541 51.2577 90.1313 55.0488 89.5536 59.2099C88.4427 67.2599 89.7307 68.6774 89.5536 73.0002C89.1431 81.968 97.816 88.5002 97.816 88.5002L95.2933 94.952C95.1675 96.3825 95.3256 97.8237 95.7585 99.1929C96.1915 100.562 96.8907 101.832 97.816 102.93C98.7413 104.029 99.8745 104.933 101.151 105.592C102.426 106.251 103.82 106.651 105.251 106.769C108.103 106.998 110.93 106.096 113.123 104.259C115.316 102.422 116.698 99.796 116.972 96.9484L120.192 63.6937C121.496 54.4362 117.23 45.9515 107.94 44.8647Z" fill="#FFBF9D"/>
<path d="M98 88.5007C102.149 88.7417 106.371 87.6491 110 85.6777C110 85.6777 105.881 91.7827 97 90.5007L98 88.5007Z" fill="#FF9A6C"/>
<path d="M104.004 68.3284C103.975 68.7349 104.102 69.1368 104.357 69.447C104.613 69.7572 104.976 69.9508 105.368 69.9858C105.559 70.0133 105.753 70.0008 105.939 69.9492C106.125 69.8975 106.299 69.8078 106.451 69.6852C106.603 69.5627 106.729 69.4099 106.823 69.2358C106.917 69.0617 106.976 68.8698 106.997 68.6716C107.021 68.2663 106.892 67.8672 106.638 67.5581C106.384 67.249 106.023 67.054 105.633 67.0142C105.442 66.9867 105.248 66.9992 105.062 67.0509C104.876 67.1025 104.702 67.1922 104.55 67.3148C104.398 67.4373 104.272 67.5901 104.178 67.7642C104.084 67.9383 104.025 68.1302 104.004 68.3284Z" fill="#263238"/>
<path d="M91.212 63.701C91.3649 63.8781 92.3712 63.21 93.7477 63.2985C95.1243 63.3871 96.0984 64.1035 96.2513 63.9667C96.4043 63.8298 96.1869 63.5883 95.7683 63.2422C95.1958 62.793 94.4986 62.5316 93.7719 62.4935C93.0568 62.4539 92.3472 62.6397 91.7433 63.0248C91.3166 63.3227 91.1556 63.6125 91.212 63.701Z" fill="#263238"/>
<path d="M92.0028 68.3284C91.9789 68.7337 92.1076 69.1328 92.3621 69.4419C92.6165 69.751 92.9767 69.946 93.3671 69.9858C93.5579 70.0133 93.752 70.0008 93.938 69.9491C94.1241 69.8975 94.2982 69.8078 94.4501 69.6852C94.6021 69.5627 94.7287 69.4099 94.8226 69.2358C94.9165 69.0617 94.9756 68.8698 94.9966 68.6716C95.023 68.2657 94.8951 67.8652 94.6402 67.5556C94.3854 67.2459 94.0237 67.0516 93.6323 67.0142C93.4416 66.9867 93.2474 66.9992 93.0614 67.0509C92.8754 67.1025 92.7012 67.1922 92.5493 67.3148C92.3974 67.4373 92.2707 67.5901 92.1769 67.7642C92.083 67.9383 92.0238 68.1302 92.0028 68.3284Z" fill="#263238"/>
<path d="M104.744 64.7316C104.889 64.9087 105.903 64.2486 107.28 64.3291C108.656 64.4096 109.622 65.1341 109.783 64.9973C109.944 64.8604 109.719 64.6189 109.292 64.2728C108.724 63.8278 108.033 63.5691 107.312 63.5322C106.596 63.4864 105.885 63.6727 105.283 64.0635C104.833 64.3613 104.672 64.6511 104.744 64.7316Z" fill="#263238"/>
<path d="M99.1652 74.6567C98.4536 74.3823 97.7095 74.201 96.9514 74.1173C96.5972 74.061 96.2752 73.9724 96.2269 73.7309C96.2149 73.3658 96.3162 73.0059 96.5167 72.7005C96.9031 71.8955 97.3217 71.002 97.7162 70.0843C99.3745 66.3571 100.598 63.29 100.453 63.2256C100.308 63.1612 98.8432 66.1237 97.1688 69.8508C96.7663 70.7685 96.3638 71.646 96.0176 72.4832C95.7753 72.8956 95.6816 73.3786 95.752 73.8517C95.7956 73.9799 95.8685 74.0961 95.9649 74.1911C96.0613 74.2862 96.1786 74.3574 96.3074 74.3991C96.497 74.4654 96.6947 74.506 96.8951 74.5198C97.6438 74.6547 98.4057 74.7006 99.1652 74.6567Z" fill="#263238"/>
<path d="M104.641 60.4005C104.762 60.7788 106.146 60.6822 107.748 60.972C109.35 61.2618 110.63 61.777 110.864 61.447C110.968 61.294 110.759 60.9318 110.26 60.5373C109.583 60.0516 108.804 59.7266 107.982 59.5871C107.161 59.4476 106.318 59.4973 105.518 59.7323C104.915 59.9416 104.593 60.2153 104.641 60.4005Z" fill="#263238"/>
<path d="M91.9137 60.827C92.1311 61.149 93.0971 60.8833 94.2402 60.9316C95.3833 60.9799 96.3332 61.2617 96.5747 60.9316C96.6793 60.7787 96.5747 60.4567 96.148 60.1266C95.6025 59.7358 94.9513 59.5197 94.2804 59.5068C93.608 59.4784 92.9436 59.6614 92.3806 60.03C91.962 60.352 91.8091 60.666 91.9137 60.827Z" fill="#263238"/>
<path d="M90.6564 55.1525C90.6564 55.1525 93.337 49.6784 96.1223 48.5192C99.4872 47.1266 100.687 50.8054 103.858 50.1292C107.03 49.453 110.242 48.1006 113.293 50.6927C116.626 53.5344 114.903 55.2974 114.903 59.2821C114.855 75.4385 117.535 80.1639 118.807 72.629C118.944 71.824 121.295 71.2686 121.834 67.799C122.543 63.2749 123.034 57.7526 122.204 54.4602C121.504 51.6909 120.063 49.7187 117.374 47.4808C113.164 43.9549 107.135 43.5363 103.005 43.7134C98.8754 43.8905 90.6805 48.1006 90.6564 55.1525Z" fill="#263238"/>
<path d="M118.22 72.3236C118.247 71.9929 118.342 71.6713 118.499 71.3788C118.655 71.0864 118.871 70.8295 119.131 70.624C119.392 70.4185 119.692 70.269 120.013 70.1847C120.334 70.1004 120.669 70.0831 120.997 70.134C122.655 70.3916 124.458 71.4462 124.153 74.8916C123.605 81.0016 117.584 79.1903 117.584 79.0132C117.584 78.8361 117.97 74.8835 118.22 72.3236Z" fill="#FFBF9D"/>
<path d="M119.105 76.8303C119.105 76.8303 119.202 76.9188 119.379 77.0154C119.626 77.1475 119.914 77.1793 120.184 77.104C120.844 76.9269 121.48 75.9448 121.609 74.85C121.673 74.3266 121.617 73.7955 121.448 73.2963C121.408 73.1011 121.321 72.9186 121.195 72.7643C121.068 72.6101 120.907 72.4888 120.723 72.4108C120.604 72.3686 120.474 72.3688 120.356 72.4113C120.237 72.4538 120.136 72.5361 120.071 72.6443C119.967 72.8053 119.999 72.934 119.967 72.9421C119.934 72.9501 119.846 72.8294 119.918 72.5798C119.964 72.4305 120.061 72.3022 120.192 72.2176C120.372 72.1045 120.589 72.0669 120.796 72.1129C121.041 72.1861 121.264 72.3205 121.443 72.5036C121.621 72.6868 121.751 72.9125 121.818 73.1595C122.031 73.7126 122.106 74.3096 122.035 74.8983C121.882 76.1299 121.15 77.2247 120.248 77.4018C120.08 77.4353 119.907 77.4302 119.741 77.387C119.575 77.3438 119.421 77.2635 119.29 77.1523C119.105 76.9832 119.081 76.8464 119.105 76.8303Z" fill="#FF9A6C"/>
<path d="M89.3524 48.5191C90.2943 47.8107 91.5903 47.7141 92.5241 46.9977C96.6835 43.8042 103.387 37.7091 109.111 40.8959C111.289 42.1085 114.038 42.2125 115.982 43.6006C116.547 44.0475 117.013 44.608 117.348 45.2458C117.684 45.8835 117.882 46.5845 117.93 47.3036C117.93 47.3036 118.566 46.9816 120.498 48.5111C121.73 49.4851 122.736 51.5862 123.187 53.0835C123.855 55.3294 122.881 57.6962 121.923 59.8294C121.408 60.9806 120.764 62.2444 119.564 62.655C118.107 63.146 116.497 62.0029 115.926 60.57C115.354 59.1371 114.452 57.6962 113.76 56.3196C112.553 53.9046 111.345 51.6989 112.335 50.1694C109.07 49.1089 106.906 51.0056 104.003 52.0289C102.783 52.4594 97.8575 53.276 96.4995 52.9513C96.0607 52.8464 95.6512 52.6439 95.3014 52.359C94.7484 53.2599 93.8762 53.9194 92.8587 54.2059C91.8411 54.4923 90.753 54.3848 89.8112 53.9046C87.9919 52.7776 87.6699 49.791 89.3524 48.5191Z" fill="#263238"/>
<path d="M122.535 58.3875C122.252 58.8294 122.015 59.2987 121.826 59.7882C121.606 60.2826 121.258 60.7102 120.82 61.0279C120.234 61.3278 119.559 61.405 118.92 61.2452C118.256 61.1164 117.629 60.8414 117.085 60.4402C116.646 60.0994 116.246 59.7106 115.893 59.281C115.585 58.8596 115.243 58.4638 114.871 58.0977C115.067 58.5852 115.339 59.0388 115.676 59.442C116.013 59.9161 116.414 60.3413 116.867 60.7059C117.449 61.1447 118.124 61.4424 118.84 61.5753C119.565 61.7551 120.332 61.6484 120.981 61.2774C121.466 60.9224 121.835 60.4324 122.044 59.8687C122.268 59.397 122.433 58.8995 122.535 58.3875Z" fill="#FFD000"/>
<path d="M122.301 63.1146C121.933 63.394 121.526 63.619 121.094 63.7828C120.623 63.9318 120.126 63.9757 119.636 63.9116C119.036 63.8203 118.462 63.6007 117.954 63.2676C117.031 62.6266 116.248 61.805 115.652 60.8526C115.424 60.4394 115.154 60.0509 114.847 59.6934C114.988 60.1539 115.197 60.5907 115.467 60.9894C116.014 62.0378 116.806 62.9383 117.777 63.6137C118.33 63.9795 118.962 64.2085 119.62 64.2819C120.167 64.342 120.72 64.2674 121.23 64.0645C122.051 63.6701 122.341 63.1227 122.301 63.1146Z" fill="#FFD000"/>
<path d="M103.297 79.6289C103.503 79.9662 103.618 80.3164 103.638 80.6697C103.663 80.8368 103.617 81.0047 103.503 81.1618C103.389 81.319 103.211 81.4618 102.98 81.5804C102.74 81.7262 102.441 81.8432 102.104 81.9233C101.766 82.0034 101.398 82.0446 101.027 82.0439C100.356 82.0432 99.7074 81.92 99.1981 81.6964C98.6888 81.4729 98.3518 81.1636 98.2479 80.8242L98.0098 80.0558C99.3991 79.8525 103.194 79.6818 103.297 79.6289Z" fill="#FF9A6C"/>
<path d="M99.0522 81.1252C99.0522 81.1252 99.2472 81.1252 99.5693 81.1411C100.021 81.163 100.482 81.163 100.934 81.1411C101.587 81.1089 102.177 81.0007 102.587 80.8381C103.075 80.6348 103.307 80.3822 103.239 80.1285C103.22 79.9858 103.101 79.8462 102.892 79.7193L103.095 79.7485C101.646 79.8176 100.374 79.8734 99.476 79.9053C98.9928 79.9336 98.5011 79.9452 98.0098 79.9399C98.4676 79.884 98.9459 79.8465 99.4336 79.8282C100.332 79.7751 101.586 79.7033 103.036 79.6289H103.171L103.231 79.6661C103.556 79.8636 103.694 80.086 103.629 80.3073C103.565 80.5286 103.3 80.7395 102.866 80.9152C102.39 81.0951 101.709 81.2096 100.968 81.2341C100.486 81.2474 100.001 81.233 99.5354 81.1916C99.361 81.1806 99.1962 81.1579 99.0522 81.1252Z" fill="#263238"/>
<path d="M139.512 106.576C140.043 106.576 147.627 109.603 149.623 117.041C151.619 124.479 157.069 151.769 157.069 151.769L162.857 159.787C162.857 159.787 160.982 174.414 150.347 171.628C150.347 171.628 143.247 172.868 140.985 165.671C138.723 158.475 134.336 137.005 134.336 137.005L139.512 106.576Z" fill="#B9B8B6"/>
<path d="M117.853 94L121.88 100.196L140 106.752L134.814 160.234V185.5C115.5 197.5 77.2791 196.215 74.5409 195C73.1154 194.959 71.3195 191.408 71.0859 189.425C70.8846 187.645 71.038 185.841 71.5369 184.123L74.5409 173.403C74.0979 180.074 76.063 133.607 76.1516 131.911L71.5 108.5C73.0906 106.405 82.0743 103.291 92.3795 99.5154L95.6009 94.5081L104.879 101.687L117.853 94Z" fill="#B9B8B6"/>
<path d="M72 108C72 108 67.4544 111.654 66.7543 114.468C66.0543 117.281 50.8011 149.692 50.8011 149.692L43.2239 151.697L41.1978 155.82C40.0144 158.185 39.6959 160.877 40.2958 163.444C40.8957 166.012 42.3775 168.298 44.4922 169.92C44.7556 170.116 45.0307 170.297 45.3158 170.462C49.4339 172.887 56.764 172.758 61.055 167.794C65.1154 163.089 77 146.176 77 146.176V125.479L72 108Z" fill="#B9B8B6"/>
<path d="M47.0495 152.59L36.3993 146.303L31.2634 152.59L32.326 155.633L46.0594 165.848C47.7643 164.457 48.9081 162.495 49.2794 160.326C49.8831 156.486 47.0495 152.59 47.0495 152.59Z" fill="#FFBF9D"/>
<path d="M50.4305 149.337C50.4305 149.442 51.3402 149.337 52.6765 149.788C54.4033 150.385 55.9323 151.446 57.0959 152.855C58.2458 154.295 59.1937 155.885 59.9134 157.581C60.1847 158.307 60.5215 159.008 60.9197 159.674C60.8123 158.901 60.5955 158.147 60.2757 157.436C59.6431 155.646 58.7093 153.977 57.5145 152.501C56.2929 151.009 54.6394 149.932 52.7811 149.418C52.0213 149.167 51.2057 149.139 50.4305 149.337Z" fill="#263238"/>
<path d="M36.5764 149.789C36.8418 148.399 36.7467 146.964 36.3 145.621C35.8532 144.277 35.0698 143.071 34.0245 142.117C31.5099 140.049 28.6664 138.416 25.6122 137.287C23.7446 136.482 19.8564 133.206 19.1722 133.995C18.4879 134.784 18.182 135.959 19.1722 137.392C20.1623 138.825 25.7893 140.958 25.0004 142.769C24.6784 143.502 22.9074 143.639 22.9074 143.639C19.6927 143.865 16.4686 143.929 13.2474 143.832C10.3977 143.582 7.83777 144.13 7.99072 145.112C8.14367 146.094 8.67497 146.633 11.0336 146.834C13.3923 147.036 17.2321 146.883 17.4736 147.422C17.7151 147.961 16.8779 148.308 15.5014 148.227C14.1248 148.147 7.63652 148.122 7.19377 148.863C7.0861 149.051 7.02143 149.261 7.00446 149.477C6.98749 149.692 7.01864 149.91 7.09563 150.112C7.17262 150.314 7.29354 150.497 7.44971 150.648C7.60588 150.798 7.79341 150.911 7.99878 150.98L9.52022 151.52C9.52022 151.52 8.63472 152.751 9.37532 153.435C10.1159 154.12 11.7903 153.878 11.7903 153.878L20.3958 153.637C20.3958 153.637 20.8869 154.152 20.6454 154.506C20.4039 154.86 13.6579 154.369 13.6096 155.11C13.5613 155.85 12.9737 156.189 14.9862 156.72C17.9336 157.211 20.9421 157.211 23.8895 156.72C25.7088 156.221 33.3322 155.915 33.3322 155.915L36.5764 149.789Z" fill="#FFBF9D"/>
<path d="M153.535 153.709L163.493 145.449L169.208 151.889L168.508 155.037L156.063 166.758C154.218 165.7 152.826 164.001 152.15 161.984C150.911 158.434 153.535 153.709 153.535 153.709Z" fill="#FFBF9D"/>
<path d="M163.606 149.747C163.178 148.399 163.101 146.964 163.382 145.578C163.664 144.192 164.295 142.9 165.216 141.826C167.481 139.475 170.13 137.526 173.048 136.062C174.803 135.008 178.281 131.337 179.062 132.037C179.525 132.455 179.82 133.026 179.893 133.646C179.965 134.265 179.81 134.889 179.456 135.402C178.651 136.94 174.771 138.727 174.908 140.699C174.922 140.89 174.974 141.076 175.06 141.247C175.146 141.418 175.265 141.57 175.41 141.695C175.555 141.82 175.724 141.915 175.905 141.975C176.087 142.034 176.279 142.058 176.47 142.044C179.682 141.896 182.884 141.587 186.065 141.118C188.875 140.538 191.475 140.78 191.443 141.77C191.411 142.76 190.936 143.38 188.617 143.839C186.299 144.298 182.467 144.644 182.338 145.167C182.209 145.69 183.022 145.972 184.383 145.722C185.743 145.473 192.183 144.708 192.707 145.392C192.836 145.564 192.926 145.763 192.97 145.974C193.013 146.185 193.01 146.403 192.959 146.613C192.908 146.822 192.811 147.018 192.676 147.185C192.54 147.353 192.369 147.488 192.175 147.582L190.726 148.298C190.726 148.298 191.749 149.417 191.097 150.182C190.445 150.947 188.754 150.907 188.754 150.907L180.173 151.663C180.173 151.663 179.746 152.235 180.036 152.557C180.326 152.879 186.951 151.607 187.088 152.34C187.225 153.072 187.852 153.338 185.904 154.062C183.03 154.895 180.038 155.246 177.049 155.101C175.182 154.819 167.566 155.366 167.566 155.366L163.606 149.747Z" fill="#FFBF9D"/>
<path d="M92.4597 101.006C92.9982 101.678 93.5964 102.301 94.2468 102.865C95.3819 103.976 96.9355 105.53 98.5777 107.301C98.9239 107.679 99.27 108.05 99.592 108.412L99.8094 108.645L100.011 108.396C101.283 106.786 102.385 105.305 103.158 104.25C103.612 103.714 103.999 103.125 104.309 102.495C103.775 102.952 103.294 103.468 102.876 104.033C102.031 105.031 100.872 106.448 99.584 108.058H99.9945L98.9883 106.939C97.5736 105.41 96.0796 103.956 94.5125 102.584C93.8949 101.976 93.2056 101.446 92.4597 101.006Z" fill="#263238"/>
<path d="M138.377 120.502C138.229 120.857 138.129 121.231 138.079 121.613C137.926 122.337 137.733 123.392 137.524 124.696C137.105 127.304 136.662 130.927 136.292 134.936C135.922 138.945 135.648 142.583 135.439 145.216C135.358 146.439 135.278 147.478 135.221 148.331C135.171 148.713 135.171 149.1 135.221 149.482C135.336 149.115 135.412 148.738 135.447 148.355C135.559 147.622 135.696 146.56 135.841 145.248C136.147 142.631 136.485 139.001 136.856 134.992C137.226 130.983 137.588 127.369 137.902 124.793C138.055 123.577 138.184 122.539 138.288 121.693C138.372 121.302 138.401 120.901 138.377 120.502Z" fill="#263238"/>
<path d="M75.3936 118.676C75.2787 119.132 75.2112 119.599 75.1924 120.068C75.1038 120.978 75.0072 122.282 74.9267 123.908C74.7416 127.128 74.653 131.636 74.6369 136.579V153.09C74.6111 153.56 74.6299 154.032 74.6933 154.498C74.7976 154.039 74.8489 153.569 74.8462 153.098C74.9106 152.188 74.975 150.876 75.0233 149.258C75.136 146.038 75.1763 141.53 75.1843 136.587C75.1924 131.644 75.2326 127.161 75.3131 123.924C75.3534 122.387 75.3856 121.099 75.4097 120.085C75.4479 119.615 75.4425 119.144 75.3936 118.676Z" fill="#263238"/>
<path d="M146.548 165.123C146.8 164.209 146.985 163.279 147.103 162.338C147.48 160.092 148.208 157.918 149.261 155.898C150.334 153.917 151.948 152.282 153.914 151.181C154.759 150.777 155.633 150.438 156.53 150.166C156.265 150.109 155.99 150.109 155.725 150.166C155.027 150.283 154.35 150.497 153.712 150.802C151.597 151.857 149.864 153.546 148.753 155.632C147.688 157.706 147.012 159.957 146.757 162.274C146.568 163.211 146.497 164.168 146.548 165.123Z" fill="#263238"/>
<path d="M143.964 154.248C144.076 154.377 145.678 152.727 148.286 151.833C150.895 150.94 153.116 151.246 153.165 151.077C153.213 150.908 150.854 150.36 148.109 151.318C145.364 152.276 143.843 154.184 143.964 154.248Z" fill="#263238"/>
<path d="M103.11 191.656C103.159 191.358 103.18 191.057 103.174 190.755C103.174 190.119 103.174 189.258 103.231 188.179C103.279 185.885 103.343 182.657 103.424 178.688C103.609 170.638 103.867 159.585 104.156 147.381C104.446 135.177 104.599 124.076 104.583 116.059C104.583 112.034 104.543 108.814 104.495 106.56C104.495 105.481 104.438 104.62 104.414 103.984C104.421 103.682 104.399 103.38 104.35 103.082C104.327 103.382 104.327 103.684 104.35 103.984C104.35 104.62 104.35 105.481 104.35 106.56C104.35 108.854 104.301 112.09 104.269 116.051C104.189 124.101 103.955 135.137 103.681 147.365C103.408 159.593 103.166 170.662 103.102 178.68C103.102 182.705 103.102 185.925 103.102 188.179C103.102 189.258 103.102 190.119 103.142 190.755C103.111 191.054 103.1 191.356 103.11 191.656Z" fill="#263238"/>
<path d="M154.002 153.37C154.002 153.305 153.197 153.909 152.553 155.246C152.158 156.007 151.871 156.82 151.7 157.661C151.534 158.728 151.534 159.814 151.7 160.881C151.82 161.949 152.137 162.986 152.634 163.94C153.064 164.713 153.657 165.383 154.372 165.904C155.001 166.426 155.793 166.71 156.61 166.709C155.903 166.416 155.233 166.041 154.614 165.59C153.979 165.069 153.456 164.426 153.076 163.698C152.646 162.788 152.373 161.81 152.271 160.808C152.127 159.804 152.127 158.785 152.271 157.781C152.41 156.952 152.645 156.141 152.972 155.366C153.471 154.086 154.083 153.418 154.002 153.37Z" fill="#263238"/>
<path d="M44.0629 166.967C44.0629 166.967 44.3205 166.967 44.7311 166.765C45.3074 166.511 45.8485 166.184 46.3411 165.791C48.0279 164.492 49.1816 162.621 49.5849 160.531C49.9882 158.44 49.6133 156.274 48.5307 154.441C48.2152 153.89 47.8311 153.381 47.3876 152.927C47.0736 152.621 46.8724 152.476 46.8482 152.501C46.8241 152.525 47.4922 153.249 48.1926 154.626C49.129 156.407 49.4312 158.453 49.0493 160.428C48.6674 162.404 47.6242 164.19 46.0915 165.493C44.9404 166.508 44.0227 166.878 44.0629 166.967Z" fill="#263238"/>
<path d="M23.5917 140.41C23.5273 140.475 23.9942 140.917 24.5818 141.698C24.9199 142.145 25.1537 142.662 25.2661 143.212C25.3949 143.831 25.3788 144.556 25.4915 145.353C25.5874 146.037 25.8182 146.695 26.1706 147.29C26.523 147.884 26.9899 148.402 27.5443 148.814C27.9679 149.196 28.5053 149.428 29.0738 149.474C29.114 149.386 28.5183 149.161 27.7858 148.508C26.8427 147.673 26.2218 146.534 26.0308 145.288C25.9778 144.56 25.8865 143.834 25.7572 143.115C25.6031 142.515 25.3046 141.963 24.8877 141.505C24.5496 141.042 24.1051 140.666 23.5917 140.41Z" fill="#FF9A6C"/>
<path d="M178.861 148.879C178.861 149.024 181.541 149.169 184.85 149.008C188.158 148.847 190.815 148.46 190.799 148.307C190.783 148.155 188.118 148.307 184.826 148.46C181.533 148.613 178.861 148.718 178.861 148.879Z" fill="#FF9A6C"/>
<path d="M172.767 148.42C172.767 148.477 173.403 148.372 174.159 147.736C174.65 147.31 175.039 146.781 175.301 146.187C175.563 145.592 175.69 144.948 175.673 144.299C175.615 143.612 175.491 142.933 175.303 142.27C175.162 141.745 175.094 141.203 175.101 140.66C175.148 140.175 175.259 139.699 175.431 139.243C175.431 139.187 174.844 139.613 174.715 140.628C174.65 141.198 174.683 141.775 174.811 142.334C174.963 142.973 175.068 143.621 175.125 144.274C175.143 145.442 174.7 146.569 173.894 147.414C173.274 148.138 172.727 148.34 172.767 148.42Z" fill="#FF9A6C"/>
<path d="M22.0945 150.328C22.0945 150.175 19.2206 150.288 15.7108 150.578C12.201 150.867 9.35932 151.238 9.36737 151.383C9.37542 151.528 12.2412 151.423 15.751 151.125C19.2609 150.827 22.1025 150.473 22.0945 150.328Z" fill="#FF9A6C"/>
<path d="M104.961 101.971C105.283 103.043 105.689 104.087 106.177 105.095C106.394 105.578 106.62 106.101 106.853 106.64C107.084 107.255 107.353 107.854 107.658 108.435C107.774 108.626 107.943 108.78 108.145 108.877C108.346 108.974 108.571 109.011 108.793 108.983C109.183 108.88 109.546 108.693 109.856 108.435L111.756 107.139C114.348 105.352 116.674 103.702 118.349 102.494C119.285 101.882 120.168 101.193 120.989 100.434C119.992 100.936 119.036 101.518 118.131 102.172C116.401 103.307 114.034 104.893 111.442 106.688L109.55 107.993C109.303 108.206 109.016 108.368 108.705 108.468C108.578 108.483 108.449 108.459 108.336 108.401C108.222 108.342 108.129 108.25 108.069 108.137C107.457 107.027 106.95 105.827 106.459 104.917C106.042 103.895 105.542 102.91 104.961 101.971Z" fill="#263238"/>
<path d="M121.94 69.9201C121.555 69.1258 116.116 64.0835 116.004 64L116 66.0945C117.112 64.7087 122.706 72.4371 121.94 69.9201Z" fill="#FFC727"/>
<path d="M121.946 69.806C121.56 69.0116 116.21 64.0806 116.098 64L116 66.0945C116.758 66.6599 121.703 69.8817 122 70.5C122.5 70.5 122.439 70.3946 121.946 69.806Z" fill="#FFC727"/>
<g opacity="0.1">
<path d="M92.0416 62.1934L89.9178 63.9377C88.1513 63.6682 86.7959 63.4641 86.1025 63.3601L86.6073 61.1953C86.7645 61.2184 88.9309 61.615 92.0416 62.1934Z" fill="black"/>
<path d="M97.4726 65.1051L96.1535 64.898L94.928 62.7324L96.8703 63.099L97.4726 65.1051Z" fill="black"/>
<path d="M104.902 64.6408L103.41 66.0447L102.085 65.8321L103.145 64.2988C103.733 64.4123 104.319 64.5263 104.902 64.6408Z" fill="black"/>
<path d="M116.597 67.1256L116.084 68.2723C115.837 68.2061 115.465 68.1229 114.987 68.0267L114.617 66.6289C115.548 66.8384 116.235 67.0086 116.597 67.1256Z" fill="black"/>
</g>
<path d="M91.9397 74.6152C89.0162 74.4805 86.7917 71.3176 86.9803 67.5656C87.0698 65.7751 87.6898 64.1101 88.7251 62.8772C89.795 61.6034 91.1762 60.9349 92.6275 61.005C94.0788 61.0751 95.3865 61.8606 96.3226 63.2276C97.2297 64.5475 97.6796 66.2626 97.5885 68.0546C97.4095 71.6049 95.1309 74.4312 92.4082 74.6106C92.2522 74.6206 92.0958 74.6222 91.9397 74.6152ZM89.4693 63.4486C88.559 64.5306 88.0099 66.0092 87.9293 67.6103C87.7681 70.8602 89.5846 73.5948 91.9841 73.705C94.3835 73.8151 96.4694 71.2606 96.6346 68.0061C96.7153 66.405 96.3194 64.8841 95.5236 63.722C94.7568 62.6061 93.7111 61.963 92.5791 61.9114C92.4585 61.9045 92.3376 61.9045 92.2171 61.9114C91.2141 61.9846 90.2498 62.5183 89.4693 63.447V63.4486ZM86.9844 68.0423C86.8368 65.2976 87.1585 64.8679 87.0279 64.0585C86.9658 63.6735 86.3982 63.3038 86.3982 63.3038L86.8941 61.3331C86.8941 61.3331 88.4397 61.4771 88.7961 61.4825C89.4298 61.4909 90.798 61.0489 91.9897 61.0204C91.9897 61.0204 89.3991 62.1325 88.5663 63.5502C87.7334 64.968 86.9844 68.0408 86.9844 68.0408V68.0423Z" fill="#FFC727"/>
<path opacity="0.1" d="M91.9397 74.6152C89.0162 74.4805 86.7917 71.3176 86.9803 67.5656C87.0698 65.7751 87.6898 64.1101 88.7251 62.8772C89.795 61.6034 91.1762 60.9349 92.6275 61.005C94.0788 61.0751 95.3865 61.8606 96.3226 63.2276C97.2297 64.5475 97.6796 66.2626 97.5885 68.0546C97.4095 71.6049 95.1309 74.4312 92.4082 74.6106C92.2522 74.6206 92.0958 74.6222 91.9397 74.6152ZM89.4693 63.4486C88.559 64.5306 88.0099 66.0092 87.9293 67.6103C87.7681 70.8602 89.5846 73.5948 91.9841 73.705C94.3835 73.8151 96.4694 71.2606 96.6346 68.0061C96.7153 66.405 96.3194 64.8841 95.5236 63.722C94.7568 62.6061 93.7111 61.963 92.5791 61.9114C92.4585 61.9045 92.3376 61.9045 92.2171 61.9114C91.2141 61.9846 90.2498 62.5183 89.4693 63.447V63.4486ZM86.9844 68.0423C86.8368 65.2976 87.1585 64.8679 87.0279 64.0585C86.9658 63.6735 86.3982 63.3038 86.3982 63.3038L86.8941 61.3331C86.8941 61.3331 88.4397 61.4771 88.7961 61.4825C89.4298 61.4909 90.798 61.0489 91.9897 61.0204C91.9897 61.0204 89.3991 62.1325 88.5663 63.5502C87.7334 64.968 86.9844 68.0408 86.9844 68.0408V68.0423Z" fill="black"/>
<path d="M91.5423 74.6152C88.618 74.4805 86.3935 71.3176 86.5821 67.5656C86.6716 65.7751 87.2916 64.1101 88.3269 62.8772C89.3968 61.6034 90.778 60.9349 92.2293 61.005C93.6806 61.0751 94.9883 61.8606 95.9244 63.2276C96.8315 64.5475 97.2814 66.2626 97.1903 68.0546C97.0113 71.6049 94.7328 74.4312 92.01 74.6106C91.8543 74.6206 91.6982 74.6222 91.5423 74.6152ZM89.0711 63.4486C88.1608 64.5321 87.615 66.0107 87.5343 67.6118C87.3731 70.8617 89.1888 73.5964 91.5883 73.7065C93.9878 73.8166 96.0736 71.2622 96.2389 68.0077C96.3195 66.4066 95.9236 64.8856 95.1278 63.7235C94.3619 62.6076 93.3153 61.9646 92.1833 61.913C92.0628 61.906 91.9419 61.906 91.8213 61.913C90.8167 61.9846 89.8516 62.5183 89.0711 63.447V63.4486ZM86.5862 68.0423C86.4386 65.2976 86.7603 64.8679 86.6297 64.0585C86.5676 63.6735 86 63.3038 86 63.3038L86.5184 61.1074C86.5184 61.1074 88.0899 61.3731 88.4454 61.3777C89.0792 61.387 90.3998 61.0489 91.5899 61.0235C91.5899 61.0235 88.9993 62.1355 88.1665 63.5533C87.3336 64.9711 86.5862 68.0408 86.5862 68.0408V68.0423Z" fill="#FFC727"/>
<path d="M88.0682 62.1125C88.0496 62.2488 87.7844 62.3274 87.4756 62.2881C87.1668 62.2488 86.9329 62.1063 86.9523 61.9708C86.9716 61.8353 87.2361 61.7559 87.5449 61.7952C87.8537 61.8345 88.0907 61.9762 88.0682 62.1125Z" fill="#A6A6A6"/>
<path d="M87.0876 61.9747C87.1126 61.9092 87.3811 61.8353 87.6746 61.9108L87.0876 61.9747Z" fill="white"/>
<path d="M86.3974 63.3223C86.9553 63.6211 87.194 64.0616 87.1311 64.6715C87.069 65.7296 86.944 66.7778 86.9424 67.8359C86.9348 68.364 86.9704 68.8918 87.0488 69.4146C86.6917 68.1255 86.7981 66.7662 86.9239 65.4532L87.0045 64.6646C87.0916 64.0747 86.8964 63.6711 86.3958 63.3223H86.3974Z" fill="white"/>
<path d="M89.3113 61.5052C90.0853 61.2942 90.8892 61.1202 91.6987 61.1548C90.8924 61.2234 90.1095 61.3959 89.3113 61.5052Z" fill="white"/>
<path opacity="0.1" d="M89.3104 63.5039C88.4308 64.582 87.9035 66.0514 87.8245 67.644C87.6673 70.8785 89.4249 73.5955 91.7438 73.7056C94.0626 73.8157 96.0791 71.2743 96.2388 68.0414C96.3194 66.4496 95.9348 64.9363 95.1656 63.7811C94.4246 62.6706 93.4136 62.0314 92.3186 61.9798C92.2021 61.9729 92.0853 61.9729 91.9687 61.9798C90.9972 62.0491 90.0651 62.579 89.3104 63.5039Z" fill="#EBEBEB"/>
<g opacity="0.2">
<path d="M93.7605 62.4129L87.8182 68.2526C87.8126 68.0509 87.8182 67.8483 87.8255 67.6419C87.8536 67.0394 87.9504 66.4416 88.1141 65.8591L92.0649 61.9785C92.1455 61.9785 92.235 61.9785 92.3205 61.9785C92.8309 62.0063 93.3259 62.1556 93.7605 62.4129Z" fill="white"/>
<path d="M95.831 65.1288L88.9108 71.9297C88.7835 71.7411 88.6683 71.5454 88.5657 71.3436L95.5569 64.4727C95.6612 64.6862 95.7527 64.9053 95.831 65.1288Z" fill="white"/>
<path d="M96.1003 69.1914C96.0158 69.6301 95.8922 70.0612 95.731 70.4798L92.5099 73.645C92.2585 73.6968 92.0009 73.7168 91.744 73.7043C91.6714 73.7004 91.5989 73.695 91.5271 73.6858L96.1003 69.1914Z" fill="white"/>
<path d="M96.1132 66.174L89.5139 72.6591C89.4824 72.6298 89.4526 72.599 89.4236 72.5675L96.0826 66.0215C96.0947 66.0723 96.1036 66.1239 96.1132 66.174Z" fill="white"/>
</g>
<path d="M101.049 68.2222L101.694 67.553C100.657 66.6365 98.2166 65.3566 96.3879 67.0547L97.0523 67.7078C98.6907 66.1837 100.953 68.139 101.049 68.2222Z" fill="#FFC727"/>
<path d="M107.22 75.4492C105.359 75.1228 103.709 74.1041 102.634 72.6168C101.558 71.1296 101.144 69.2954 101.484 67.517C101.738 66.191 102.398 64.9667 103.38 63.9989C104.363 63.0311 105.624 62.3633 107.003 62.08C108.383 61.7967 109.82 61.9105 111.132 62.4071C112.444 62.9037 113.573 63.7608 114.375 64.8699C115.177 65.9791 115.617 67.2906 115.639 68.6385C115.661 69.9864 115.264 71.3102 114.498 72.4426C113.732 73.5749 112.632 74.465 111.336 75.0002C110.041 75.5353 108.609 75.6916 107.22 75.4492ZM102.422 67.6834C102.192 68.892 102.364 70.1389 102.912 71.25C103.46 72.3611 104.358 73.2809 105.48 73.881C106.602 74.481 107.893 74.7314 109.171 74.597C110.449 74.4626 111.652 73.9503 112.61 73.1315C113.569 72.3127 114.236 71.2284 114.518 70.03C114.8 68.8316 114.684 67.579 114.184 66.447C113.685 65.315 112.828 64.3603 111.733 63.7162C110.638 63.072 109.36 62.7706 108.077 62.854C106.707 62.9455 105.407 63.4697 104.384 64.344C103.36 65.2184 102.67 66.3932 102.422 67.6834Z" fill="#FFC727"/>
<path d="M114.859 65.8316C114.368 64.2745 111.508 62.5625 111.508 62.5625C112.666 62.8344 113.943 63.3873 114.564 63.5105C114.912 63.5791 117.025 63.7854 117.025 63.7854L117.033 66.5517C117.033 66.5517 116.452 66.5825 116.307 66.9452C115.996 67.7084 116.153 67.8932 115.385 70.5409C115.378 70.5409 115.343 67.388 114.859 65.8316Z" fill="#FFC727"/>
<g opacity="0.1">
<path d="M107.22 75.4492C105.359 75.1228 103.709 74.1041 102.634 72.6168C101.558 71.1296 101.144 69.2954 101.484 67.517C101.738 66.191 102.398 64.9667 103.38 63.9989C104.363 63.0311 105.624 62.3633 107.003 62.08C108.383 61.7967 109.82 61.9105 111.132 62.4071C112.444 62.9037 113.573 63.7608 114.375 64.8699C115.177 65.9791 115.617 67.2906 115.639 68.6385C115.661 69.9864 115.264 71.3102 114.498 72.4426C113.732 73.5749 112.632 74.465 111.336 75.0002C110.041 75.5353 108.609 75.6916 107.22 75.4492ZM102.422 67.6834C102.192 68.892 102.364 70.1389 102.912 71.25C103.46 72.3611 104.358 73.2809 105.48 73.881C106.602 74.481 107.893 74.7314 109.171 74.597C110.449 74.4626 111.652 73.9503 112.61 73.1315C113.569 72.3127 114.236 71.2284 114.518 70.03C114.8 68.8316 114.684 67.579 114.184 66.447C113.685 65.315 112.828 64.3603 111.733 63.7162C110.638 63.072 109.36 62.7706 108.077 62.854C106.707 62.9455 105.407 63.4697 104.384 64.344C103.36 65.2184 102.67 66.3932 102.422 67.6834Z" fill="black"/>
<path d="M114.859 65.8316C114.368 64.2745 111.508 62.5625 111.508 62.5625C112.666 62.8344 113.943 63.3873 114.564 63.5105C114.912 63.5791 117.025 63.7854 117.025 63.7854L117.033 66.5517C117.033 66.5517 116.452 66.5825 116.307 66.9452C115.996 67.7084 116.153 67.8932 115.385 70.5409C115.378 70.5409 115.343 67.388 114.859 65.8316Z" fill="black"/>
</g>
<path d="M106.586 75.3483C104.726 75.0219 103.078 74.0042 102.002 72.5185C100.927 71.0328 100.512 69.2004 100.849 67.4231C101.102 66.0956 101.761 64.8694 102.743 63.8997C103.725 62.9301 104.987 62.2605 106.367 61.9758C107.748 61.6911 109.186 61.804 110.5 62.3003C111.814 62.7966 112.943 63.6539 113.747 64.7638C114.55 65.8736 114.991 67.1861 115.013 68.5352C115.035 69.8843 114.637 71.2093 113.871 72.3426C113.104 73.4758 112.003 74.3664 110.706 74.9016C109.409 75.4368 107.975 75.5925 106.586 75.3491V75.3483ZM101.788 67.5864C101.557 68.7959 101.728 70.0441 102.276 71.1564C102.824 72.2688 103.723 73.1898 104.845 73.7908C105.968 74.3917 107.26 74.6426 108.539 74.5083C109.819 74.374 111.022 73.8613 111.982 73.0417C112.941 72.2222 113.609 71.1369 113.891 69.9373C114.173 68.7378 114.056 67.484 113.556 66.3512C113.056 65.2183 112.198 64.2631 111.101 63.6188C110.005 62.9745 108.726 62.6735 107.441 62.7577C106.072 62.8493 104.773 63.3735 103.749 64.2477C102.726 65.1219 102.036 66.2964 101.788 67.5864Z" fill="#FFC727"/>
<path d="M114.22 65.7359C113.729 64.1788 110.869 62.4668 110.869 62.4668C112.027 62.7386 113.304 63.2916 113.925 63.4148C114.273 63.4833 116.386 63.6897 116.386 63.6897L116.394 66.2226C116.394 66.2226 115.813 66.3905 115.668 66.7525C115.356 67.5157 115.514 67.7975 114.746 70.449C114.744 70.4429 114.711 67.2923 114.22 65.7359Z" fill="#FFC727"/>
<path d="M115.481 64.8274C115.462 64.9637 115.197 65.0423 114.889 65.003C114.581 64.9637 114.345 64.822 114.365 64.6857C114.384 64.5494 114.649 64.4708 114.957 64.5101C115.265 64.5494 115.504 64.6919 115.481 64.8274Z" fill="#A6A6A6"/>
<path d="M114.5 64.6899C114.525 64.6244 114.794 64.5497 115.087 64.6259L114.5 64.6899Z" fill="white"/>
<path d="M104.606 62.9622C105.217 62.5175 105.966 62.2793 106.734 62.2853C106.009 62.4886 105.31 62.7088 104.606 62.9622Z" fill="white"/>
<path d="M101.586 66.3621C101.947 64.9843 103.154 63.6551 104.482 63.0352C103.238 63.8823 102.196 65.019 101.586 66.3621Z" fill="white"/>
<path opacity="0.1" d="M102.082 67.5867C101.485 70.788 103.661 73.8685 106.932 74.453C110.204 75.0375 113.35 72.9074 113.947 69.7068C114.544 66.5062 112.368 63.4242 109.096 62.8405C108.604 62.752 108.102 62.7243 107.602 62.7581C104.915 62.939 102.587 64.8797 102.082 67.5867Z" fill="#EBEBEB"/>
<g opacity="0.2">
<path d="M114.04 68.9183L108.292 74.5402C107.836 74.5602 107.38 74.5297 106.932 74.4493C106.738 74.415 106.547 74.371 106.357 74.3176L113.811 67.0254C113.993 67.6406 114.07 68.2797 114.04 68.9183Z" fill="white"/>
<path d="M108.788 62.7938L102.033 69.4044C101.954 68.7997 101.97 68.187 102.082 67.587C102.109 67.4376 102.144 67.2889 102.183 67.1434L106.474 62.9409C106.843 62.845 107.221 62.7838 107.602 62.7583C107.998 62.7312 108.395 62.743 108.788 62.7938Z" fill="white"/>
<path d="M113.06 65.4208L104.716 73.584C104.525 73.4629 104.343 73.3309 104.168 73.1889L112.658 64.8848C112.803 65.0558 112.937 65.2348 113.06 65.4208Z" fill="white"/>
<path d="M110.449 63.2463L102.498 71.0245C102.398 70.8033 102.312 70.5765 102.241 70.3452L109.755 62.9922C109.992 63.0631 110.224 63.1479 110.449 63.2463Z" fill="white"/>
<path d="M113.962 69.625C113.958 69.652 113.953 69.6797 113.948 69.7066C113.94 69.7544 113.93 69.8021 113.92 69.8483L109.243 74.4259C109.168 74.4413 109.092 74.4552 109.014 74.4675L113.962 69.625Z" fill="white"/>
<path d="M112.183 64.3835L103.659 72.7254C103.628 72.6946 103.598 72.663 103.569 72.6314L112.088 64.2949L112.183 64.3835Z" fill="white"/>
</g>
<path d="M48.6782 155.392L22.6591 159.926L23.9377 153.29L49.9568 148.756C50.6142 152.259 48.6782 155.392 48.6782 155.392Z" fill="#FFD000"/>
<path d="M-0.112963 150.763L22.6589 159.925L22.9831 158.243L2.18389 150.487L-0.013949 150.249L-0.112963 150.763Z" fill="#455A64"/>
<path d="M23.9324 153.32C24.2529 156.414 22.6597 159.925 22.6597 159.925L1.08303 150.698L2.18823 144.963L23.9324 153.32Z" fill="#455A64"/>
<path d="M23.3944 153.114C23.6939 156.193 22.2999 159.177 22.2999 159.177L1.08768 150.675L2.18872 144.961L23.3944 153.114Z" fill="white"/>
<path d="M23.3944 153.113C23.4017 153.232 23.4249 153.567 23.4324 153.685C23.4532 154.518 23.3818 155.366 23.2204 156.202C23.0251 157.233 22.7184 158.237 22.3104 159.181C22.3122 159.229 1.08314 150.709 1.07348 150.719L1.04251 150.707L1.05024 150.667L2.15128 144.953L2.16138 144.9L2.19738 144.915L12.8017 149.008L23.3903 153.111L23.3944 153.113ZM23.3944 153.113C18.1845 151.075 7.23493 147.055 2.22117 144.968L1.12387 150.683L1.10162 150.625C1.09944 150.637 22.356 159.154 22.2881 159.168C22.4941 158.701 22.674 158.216 22.8264 157.719C23.2856 156.234 23.5283 154.628 23.3936 153.113L23.3944 153.113Z" fill="#DBDBDB"/>
<path d="M12.3721 149.492C15.9294 150.817 19.9003 152.371 23.4198 153.824C19.8624 152.499 15.8918 150.944 12.3721 149.492Z" fill="#DBDBDB"/>
<path d="M1.78564 147.053C4.83786 148.174 8.20827 149.499 11.2233 150.753C8.16887 149.631 4.79955 148.308 1.78564 147.053Z" fill="#DBDBDB"/>
<path d="M2.20166 147.719C7.37843 149.676 13.1638 151.944 18.3008 154.03C13.1247 152.074 7.33942 149.806 2.20166 147.719Z" fill="#DBDBDB"/>
<path d="M4.72241 150.217C10.0951 152.232 16.1004 154.565 21.434 156.71C16.0619 154.697 10.0568 152.362 4.72241 150.217Z" fill="#DBDBDB"/>
<path d="M8.22339 152.145C12.9072 153.91 18.1463 155.962 22.7936 157.858C18.1071 156.093 12.8714 154.04 8.22339 152.145Z" fill="#DBDBDB"/>
<path d="M3.87183 151.295C9.86905 153.578 16.5753 156.207 22.5328 158.612C16.5354 156.329 9.82938 153.7 3.87183 151.295Z" fill="#DBDBDB"/>
<path d="M23.9326 153.321L49.9568 148.756L25.7513 142.51L1.19732 143.965L1.08642 144.54L23.9326 153.321Z" fill="#455A64"/>
<path d="M24.7495 152.424C27.9985 151.751 31.3057 151.215 34.5802 150.832C31.3317 151.506 28.0249 152.041 24.7495 152.424Z" fill="#37474F"/>
<path d="M19.0464 150.717C19.8724 150.938 20.7119 151.238 21.5167 151.537C22.3215 151.836 23.1473 152.171 23.9179 152.559C23.0916 152.339 22.2524 152.038 21.4483 151.739C20.6442 151.44 19.8187 151.1 19.0464 150.717Z" fill="#37474F"/>
<path d="M1.82642 144.201C7.35892 146.139 12.9079 148.237 18.3478 150.45C12.8105 148.513 7.26259 146.414 1.82642 144.201Z" fill="#37474F"/>
<path d="M41.4659 151.001C44.0287 150.436 46.6028 149.966 49.188 149.593C46.6261 150.159 44.0521 150.628 41.4659 151.001Z" fill="#455A64"/>
<path d="M13.5001 143.999L32.0001 149.999L24.5001 150.999L6.5001 144.499C13.5001 143.999 6.5001 144.499 13.5001 143.999Z" fill="#FFD000"/>
</g>
<defs>
<clipPath id="clip0_752_27456">
<rect width="200" height="200" fill="white"/>
</clipPath>
</defs>
</svg>
