<svg width="200" height="200" viewBox="0 0 200 200" fill="none" xmlns="http://www.w3.org/2000/svg">
<g clip-path="url(#clip0_752_25606)">
<path fill-rule="evenodd" clip-rule="evenodd" d="M95.3511 40.0786C119.484 41.5624 131.191 65.3973 145.943 82.1754C157.899 95.7741 168.961 109.409 171.286 126.445C173.971 146.122 175.558 168.605 159.663 182.721C143.717 196.882 117.964 195.809 95.3511 193.883C72.1366 194.322 53.3796 187.342 42.4481 172.737C26.9316 160.174 13.0786 144.922 12.0648 126.445C11.0113 107.244 22.9446 90.1752 37.1121 75.4837C52.9597 59.05 70.8381 38.5713 95.3511 40.0786Z" fill="#FFF3CC"/>
<path d="M136.983 60.6245C136.374 69.3981 117.162 70.5957 91.8304 67.3527C66.4983 64.1097 48.4154 59.7633 49.0145 50.9762C49.6136 42.1891 69.2342 35.6627 94.5762 38.7981C119.918 41.9334 137.632 51.8374 136.983 60.6245Z" fill="#FFD000"/>
<path d="M93.0947 27.0014C87.9372 26.9484 82.8743 28.3869 78.5153 31.1439C74.1563 33.9009 70.6869 37.8588 68.5247 42.5414C81.4247 38.2214 98.5246 40.0614 116.815 43.8314C114.904 39.0378 111.649 34.8987 107.441 31.9127C103.232 28.9266 98.2502 27.2211 93.0947 27.0014Z" fill="#FFD000"/>
<path d="M65.7646 48.5914C65.7646 48.5914 72.4346 39.0614 91.4246 41.8314C117.105 45.5614 121.065 50.4214 121.065 50.4214C121.065 50.4214 116.345 35.3214 104.815 31.6214C93.2846 27.9214 84.0247 29.8614 77.2947 34.2714C70.5647 38.6814 65.7646 48.5914 65.7646 48.5914Z" fill="#FFD000"/>
<path d="M117.674 42.7715C117.477 42.7609 117.282 42.7239 117.095 42.6615L115.484 42.2215C114.794 42.0215 113.934 41.7915 112.934 41.5615C111.934 41.3315 110.805 41.0315 109.535 40.7815C102.946 39.4078 96.2579 38.5684 89.5345 38.2715C82.8035 37.9366 76.0561 38.1707 69.3645 38.9715C68.0845 39.1315 66.9245 39.2915 65.9145 39.4715C64.9045 39.6515 64.0245 39.7715 63.3245 39.9315L61.6845 40.2415C61.4955 40.2935 61.3005 40.3204 61.1045 40.3215C61.2831 40.2388 61.4712 40.1784 61.6645 40.1415L63.2745 39.7315C63.9845 39.5415 64.8545 39.3815 65.8645 39.1815C66.8745 38.9815 68.0345 38.7915 69.3245 38.6115C76.0264 37.696 82.7991 37.4081 89.5545 37.7515C96.3143 38.0382 103.035 38.9318 109.634 40.4215C110.904 40.6915 112.035 41.0115 113.025 41.2815C114.015 41.5515 114.874 41.7915 115.564 42.0315L117.145 42.5615C117.327 42.6145 117.505 42.6848 117.674 42.7715Z" fill="#263238"/>
<mask id="mask0_752_25606" style="mask-type:alpha" maskUnits="userSpaceOnUse" x="12" y="40" width="161" height="155">
<path fill-rule="evenodd" clip-rule="evenodd" d="M95.3511 40.0786C119.484 41.5624 131.191 65.3973 145.943 82.1754C157.899 95.7741 168.961 109.409 171.286 126.445C173.971 146.122 175.558 168.605 159.663 182.721C143.717 196.882 117.964 195.809 95.3511 193.883C72.1366 194.322 53.3796 187.342 42.4481 172.737C26.9316 160.174 13.0786 144.922 12.0648 126.445C11.0113 107.244 22.9446 90.1752 37.1121 75.4837C52.9597 59.05 70.8381 38.5713 95.3511 40.0786Z" fill="#FFF3CC"/>
</mask>
<g mask="url(#mask0_752_25606)">
<path d="M366.989 116.76H-50.8037V120.171H366.989V116.76Z" fill="#AE7461"/>
<path d="M366.983 120.182V116.771L-50.7864 116.944L-50.5787 116.776V120.182L-50.7864 120.009L367 120.182L-50.7864 120.332H-51V116.586H-50.7691L367 116.742C366.988 119.535 366.988 120.049 366.983 120.182Z" fill="#263238"/>
<path d="M366.989 128.926H-50.8037V132.337H366.989V128.926Z" fill="#AE7461"/>
<path d="M366.983 132.338V128.927L-50.7864 129.077L-50.5787 128.91V132.315L-50.7864 132.148L367 132.315L-50.7864 132.488H-51V128.742H-50.7691L367 128.892C366.988 131.715 366.988 132.223 366.983 132.338Z" fill="#263238"/>
<path d="M29.8515 114.242H25.3264V156.601H29.8515V114.242Z" fill="#AE7461"/>
<path d="M29.863 156.597C29.8572 156.524 29.8572 156.451 29.863 156.378V153.278C29.863 151.143 29.863 148.083 29.811 144.28C29.811 136.667 29.7706 126.104 29.7418 114.238L29.9091 114.405H25.3841C25.7188 114.064 25.4706 114.318 25.5514 114.249V139.709C25.5168 147.004 25.4937 152.886 25.4764 156.591L25.4071 156.522L28.7548 156.568H28.7894L25.4071 156.603H25.3379V156.528C25.3379 152.822 25.2975 146.941 25.2628 139.639V114.243C25.3436 114.163 25.0955 114.399 25.436 114.064H30.1227V114.232C30.1227 126.145 30.065 136.742 30.0534 144.395C30.0534 148.182 30.013 151.229 30.0015 153.359V156.412C29.9842 156.603 29.863 156.603 29.863 156.597Z" fill="#263238"/>
<path d="M105.745 114.242H101.22V156.601H105.745V114.242Z" fill="#AE7461"/>
<path d="M105.745 156.597C105.739 156.524 105.739 156.451 105.745 156.378V153.278C105.745 151.143 105.71 148.083 105.693 144.28C105.693 136.667 105.647 126.104 105.624 114.238L105.791 114.405H101.26C101.601 114.064 101.353 114.318 101.428 114.249V139.709C101.399 147.004 101.37 152.886 101.358 156.591L101.289 156.522L104.631 156.568H104.671L101.289 156.603H101.214V156.528C101.214 152.822 101.179 146.941 101.145 139.639V114.243C101.22 114.163 100.972 114.399 101.312 114.064H106.005V114.232C105.97 126.145 105.947 136.742 105.935 144.395C105.935 148.182 105.895 151.229 105.883 153.359V156.412C105.883 156.603 105.745 156.603 105.745 156.597Z" fill="#263238"/>
<path d="M170.314 114.242H165.789V156.601H170.314V114.242Z" fill="#AE7461"/>
<path d="M170.314 156.597C170.308 156.524 170.308 156.451 170.314 156.378V153.278C170.314 151.143 170.28 148.083 170.262 144.28C170.262 136.667 170.216 126.104 170.187 114.238L170.355 114.405H165.829C166.164 114.064 165.928 114.318 165.997 114.249V139.709C165.997 147.004 165.939 152.886 165.928 156.591L165.853 156.522L169.2 156.568H169.235L165.853 156.603H165.726V156.528C165.726 152.822 165.685 146.941 165.656 139.639V114.243C165.731 114.163 165.483 114.399 165.824 114.064H170.51V114.232C170.51 126.145 170.458 136.742 170.441 144.395C170.441 148.182 170.401 151.229 170.389 153.359V156.412C170.389 156.603 170.314 156.603 170.314 156.597Z" fill="#263238"/>
</g>
<path d="M92.0601 44.8647L92.9295 44.8164C97.1236 44.5763 101.254 45.9237 104.5 48.5907C107.746 51.2577 109.869 55.0488 110.446 59.2099C111.557 67.2599 108.823 69.6774 109 74.0002C109.411 82.968 102.184 88.5002 102.184 88.5002L104.707 94.952C104.833 96.3825 104.674 97.8237 104.241 99.1929C103.809 100.562 103.109 101.832 102.184 102.93C101.259 104.029 100.125 104.933 98.8495 105.592C97.5735 106.251 96.1799 106.651 94.7488 106.769C91.8972 106.998 89.07 106.096 86.8772 104.259C84.6845 102.422 83.302 99.796 83.028 96.9484L79.808 63.6937C78.5039 54.4362 82.7704 45.9515 92.0601 44.8647Z" fill="#FFBF9D"/>
<path d="M102 88.5007C97.8507 88.7417 93.6289 87.6491 90 85.6777C90 85.6777 94.1185 91.7827 103 90.5007L102 88.5007Z" fill="#FF9A6C"/>
<path d="M95.996 68.3284C96.0248 68.7349 95.8978 69.1368 95.6425 69.447C95.3872 69.7572 95.0242 69.9508 94.632 69.9858C94.4413 70.0133 94.2472 70.0008 94.0612 69.9492C93.8752 69.8975 93.7011 69.8078 93.5492 69.6852C93.3973 69.5627 93.2706 69.4099 93.1768 69.2358C93.083 69.0617 93.0238 68.8698 93.0028 68.6716C92.9789 68.2663 93.1076 67.8672 93.362 67.5581C93.6163 67.249 93.9765 67.054 94.3668 67.0142C94.5575 66.9867 94.7516 66.9992 94.9376 67.0509C95.1236 67.1025 95.2977 67.1922 95.4496 67.3148C95.6015 67.4373 95.7282 67.5901 95.822 67.7642C95.9158 67.9383 95.975 68.1302 95.996 68.3284Z" fill="#263238"/>
<path d="M108.788 63.701C108.635 63.8781 107.629 63.21 106.252 63.2985C104.876 63.3871 103.902 64.1035 103.749 63.9667C103.596 63.8298 103.813 63.5883 104.232 63.2422C104.804 62.793 105.501 62.5316 106.228 62.4935C106.943 62.4539 107.653 62.6397 108.257 63.0248C108.683 63.3227 108.844 63.6125 108.788 63.701Z" fill="#263238"/>
<path d="M107.997 68.3284C108.021 68.7337 107.892 69.1328 107.638 69.4419C107.384 69.751 107.023 69.946 106.633 69.9858C106.442 70.0133 106.248 70.0008 106.062 69.9491C105.876 69.8975 105.702 69.8078 105.55 69.6852C105.398 69.5627 105.271 69.4099 105.177 69.2358C105.084 69.0617 105.024 68.8698 105.003 68.6716C104.977 68.2657 105.105 67.8652 105.36 67.5556C105.615 67.2459 105.976 67.0516 106.368 67.0142C106.558 66.9867 106.753 66.9992 106.939 67.0509C107.125 67.1025 107.299 67.1922 107.451 67.3148C107.603 67.4373 107.729 67.5901 107.823 67.7642C107.917 67.9383 107.976 68.1302 107.997 68.3284Z" fill="#263238"/>
<path d="M95.256 64.7316C95.1111 64.9087 94.0968 64.2486 92.7202 64.3291C91.3437 64.4096 90.3777 65.1341 90.2167 64.9973C90.0557 64.8604 90.2811 64.6189 90.7077 64.2728C91.2758 63.8278 91.9674 63.5691 92.688 63.5322C93.4038 63.4864 94.1152 63.6727 94.7166 64.0635C95.1674 64.3613 95.3284 64.6511 95.256 64.7316Z" fill="#263238"/>
<path d="M100.835 74.6567C101.546 74.3823 102.29 74.201 103.048 74.1173C103.403 74.061 103.725 73.9724 103.773 73.7309C103.785 73.3658 103.684 73.0059 103.483 72.7005C103.097 71.8955 102.678 71.002 102.284 70.0843C100.625 66.3571 99.4017 63.29 99.5466 63.2256C99.6915 63.1612 101.157 66.1237 102.831 69.8508C103.233 70.7685 103.636 71.646 103.982 72.4832C104.224 72.8956 104.318 73.3786 104.248 73.8517C104.204 73.9799 104.131 74.0961 104.035 74.1911C103.938 74.2862 103.821 74.3574 103.692 74.3991C103.503 74.4654 103.305 74.506 103.105 74.5198C102.356 74.6547 101.594 74.7006 100.835 74.6567Z" fill="#263238"/>
<path d="M95.359 60.4005C95.2383 60.7788 93.8537 60.6822 92.2517 60.972C90.6498 61.2618 89.3698 61.777 89.1364 61.447C89.0317 61.294 89.241 60.9318 89.7401 60.5373C90.4173 60.0516 91.1963 59.7266 92.0179 59.5871C92.8395 59.4476 93.6821 59.4973 94.4816 59.7323C95.0853 59.9416 95.4073 60.2153 95.359 60.4005Z" fill="#263238"/>
<path d="M108.086 60.827C107.869 61.149 106.903 60.8833 105.76 60.9316C104.616 60.9799 103.667 61.2617 103.425 60.9316C103.32 60.7787 103.425 60.4567 103.852 60.1266C104.397 59.7358 105.048 59.5197 105.719 59.5068C106.392 59.4784 107.056 59.6614 107.619 60.03C108.038 60.352 108.191 60.666 108.086 60.827Z" fill="#263238"/>
<path d="M109.343 55.1525C109.343 55.1525 106.663 49.6784 103.877 48.5192C100.513 47.1266 99.3131 50.8054 96.1413 50.1292C92.9696 49.453 89.7577 48.1006 86.7067 50.6927C83.374 53.5344 85.0967 55.2974 85.0967 59.2821C85.145 75.4385 82.4644 80.1639 81.1925 72.629C81.0556 71.824 78.705 71.2686 78.1657 67.799C77.4572 63.2749 76.9662 57.7526 77.7954 54.4602C78.4957 51.6909 79.9367 49.7187 82.6254 47.4808C86.8355 43.9549 92.865 43.5363 96.9947 43.7134C101.124 43.8905 109.319 48.1006 109.343 55.1525Z" fill="#263238"/>
<path d="M81.7803 72.3236C81.7532 71.9929 81.6583 71.6713 81.5014 71.3788C81.3446 71.0864 81.1291 70.8295 80.8685 70.624C80.6079 70.4185 80.3078 70.269 79.9868 70.1847C79.6658 70.1004 79.331 70.0831 79.003 70.134C77.3447 70.3916 75.5415 71.4462 75.8474 74.8916C76.3948 81.0016 82.4162 79.1903 82.4162 79.0132C82.4162 78.8361 82.0298 74.8835 81.7803 72.3236Z" fill="#FFBF9D"/>
<path d="M80.8948 76.8303C80.8948 76.8303 80.7982 76.9188 80.6211 77.0154C80.3742 77.1475 80.0858 77.1793 79.8161 77.104C79.156 76.9269 78.52 75.9448 78.3912 74.85C78.3275 74.3266 78.3825 73.7955 78.5522 73.2963C78.5923 73.1011 78.6792 72.9186 78.8054 72.7643C78.9316 72.6101 79.0933 72.4888 79.2767 72.4108C79.3957 72.3686 79.5255 72.3688 79.6444 72.4113C79.7632 72.4538 79.8637 72.5361 79.9288 72.6443C80.0334 72.8053 80.0012 72.934 80.0334 72.9421C80.0656 72.9501 80.1542 72.8294 80.0817 72.5798C80.0362 72.4305 79.9392 72.3022 79.808 72.2176C79.6284 72.1045 79.4114 72.0669 79.2043 72.1129C78.9589 72.1861 78.7363 72.3205 78.5574 72.5036C78.3785 72.6868 78.2493 72.9125 78.1819 73.1595C77.9686 73.7126 77.894 74.3096 77.9646 74.8983C78.1175 76.1299 78.8501 77.2247 79.7517 77.4018C79.9198 77.4353 80.0934 77.4302 80.2593 77.387C80.4252 77.3438 80.5792 77.2635 80.7096 77.1523C80.8948 76.9832 80.9189 76.8464 80.8948 76.8303Z" fill="#FF9A6C"/>
<path d="M110.648 48.5191C109.706 47.8107 108.41 47.7141 107.476 46.9977C103.316 43.8042 96.6129 37.7091 90.8888 40.8959C88.7107 42.1085 85.9615 42.2125 84.0181 43.6006C83.4528 44.0475 82.9874 44.608 82.6519 45.2458C82.3164 45.8835 82.1182 46.5845 82.07 47.3036C82.07 47.3036 81.4341 46.9816 79.5021 48.5111C78.2704 49.4851 77.2642 51.5862 76.8134 53.0835C76.1452 55.3294 77.1193 57.6962 78.0772 59.8294C78.5924 60.9806 79.2364 62.2444 80.4359 62.655C81.8929 63.146 83.5029 62.0029 84.0745 60.57C84.646 59.1371 85.5476 57.6962 86.2399 56.3196C87.4474 53.9046 88.6549 51.6989 87.6648 50.1694C90.93 49.1089 93.0942 51.0056 95.9966 52.0289C97.2173 52.4594 102.143 53.276 103.5 52.9513C103.939 52.8464 104.349 52.6439 104.699 52.359C105.252 53.2599 106.124 53.9194 107.141 54.2059C108.159 54.4923 109.247 54.3848 110.189 53.9046C112.008 52.7776 112.33 49.791 110.648 48.5191Z" fill="#263238"/>
<path d="M77.4653 58.3875C77.7478 58.8294 77.9852 59.2987 78.1737 59.7882C78.3945 60.2826 78.7415 60.7102 79.18 61.0279C79.7661 61.3278 80.4411 61.405 81.0798 61.2452C81.7438 61.1164 82.3707 60.8414 82.9152 60.4402C83.3543 60.0994 83.7539 59.7106 84.1066 59.281C84.4148 58.8596 84.7568 58.4638 85.129 58.0977C84.9327 58.5852 84.6611 59.0388 84.324 59.442C83.9868 59.9161 83.5859 60.3413 83.1325 60.7059C82.5515 61.1447 81.8763 61.4424 81.1603 61.5753C80.4348 61.7551 79.6679 61.6484 79.019 61.2774C78.5341 60.9224 78.1645 60.4324 77.9564 59.8687C77.7324 59.397 77.5674 58.8995 77.4653 58.3875Z" fill="#FFD000"/>
<path d="M77.6987 63.1146C78.0672 63.394 78.4738 63.619 78.9062 63.7828C79.3766 63.9318 79.874 63.9757 80.3633 63.9116C80.9639 63.8203 81.5377 63.6007 82.0457 63.2676C82.9686 62.6266 83.7518 61.805 84.348 60.8526C84.5756 60.4394 84.8454 60.0509 85.153 59.6934C85.0122 60.1539 84.8032 60.5907 84.5332 60.9894C83.9862 62.0378 83.1935 62.9383 82.2228 63.6137C81.67 63.9795 81.0382 64.2085 80.3794 64.2819C79.833 64.342 79.2802 64.2674 78.7694 64.0645C77.9483 63.6701 77.6585 63.1227 77.6987 63.1146Z" fill="#FFD000"/>
<path d="M96.7029 79.6289C96.4969 79.9662 96.3821 80.3164 96.3615 80.6697C96.3372 80.8368 96.3835 81.0047 96.4972 81.1618C96.6109 81.319 96.7894 81.4618 97.0205 81.5804C97.2599 81.7262 97.5589 81.8432 97.8964 81.9233C98.2338 82.0034 98.6015 82.0446 98.9734 82.0439C99.6443 82.0432 100.293 81.92 100.802 81.6964C101.311 81.4729 101.648 81.1636 101.752 80.8242L101.99 80.0558C100.601 79.8525 96.8061 79.6818 96.7029 79.6289Z" fill="#FF9A6C"/>
<path d="M100.948 81.1252C100.948 81.1252 100.753 81.1252 100.431 81.1411C99.9786 81.163 99.5184 81.163 99.0662 81.1411C98.4134 81.1089 97.8233 81.0007 97.4135 80.8381C96.9255 80.6348 96.6932 80.3822 96.7609 80.1285C96.7805 79.9858 96.8991 79.8462 97.1084 79.7193L96.9049 79.7485C98.3542 79.8176 99.6256 79.8734 100.524 79.9053C101.007 79.9336 101.499 79.9452 101.99 79.9399C101.532 79.884 101.054 79.8465 100.566 79.8282C99.668 79.7751 98.4136 79.7033 96.9643 79.6289H96.8287L96.7693 79.6661C96.4444 79.8636 96.3061 80.086 96.3707 80.3073C96.4353 80.5286 96.7 80.7395 97.1338 80.9152C97.6097 81.0951 98.291 81.2096 99.0323 81.2341C99.514 81.2474 99.9994 81.233 100.465 81.1916C100.639 81.1806 100.804 81.1579 100.948 81.1252Z" fill="#263238"/>
<path d="M60.4879 106.576C59.9566 106.576 52.3735 109.603 50.3771 117.041C48.3807 124.479 42.9308 151.769 42.9308 151.769L37.1428 159.787C37.1428 159.787 39.0185 174.414 49.6526 171.628C49.6526 171.628 56.7527 172.868 59.0147 165.671C61.2768 158.475 65.6641 137.005 65.6641 137.005L60.4879 106.576Z" fill="#B9B8B6"/>
<path d="M82.1472 94L78.1204 100.196L60 106.752L65.1865 160.234L63.2697 188.228C80 197.5 124.262 195.715 127 194.5C128.425 194.459 128.681 191.408 128.914 189.425C129.115 187.645 128.962 185.841 128.463 184.123L125.459 173.403C125.902 180.074 123.937 133.607 123.848 131.911L128.5 108.5C127.379 106.837 117.595 103.502 107.621 99.5154L104.399 94.5081L95.1215 101.687L82.1472 94Z" fill="#FFD000"/>
<path d="M107.54 101.006C107.002 101.678 106.404 102.301 105.753 102.865C104.618 103.976 103.065 105.53 101.422 107.301C101.076 107.679 100.73 108.05 100.408 108.412L100.191 108.645L99.9894 108.396C98.7175 106.786 97.6146 105.305 96.8418 104.25C96.3881 103.714 96.0015 103.125 95.6907 102.495C96.225 102.952 96.7058 103.468 97.1236 104.033C97.9688 105.031 99.128 106.448 100.416 108.058H100.005L101.012 106.939C102.426 105.41 103.92 103.956 105.488 102.584C106.105 101.976 106.794 101.446 107.54 101.006Z" fill="#263238"/>
<path d="M61.623 120.502C61.771 120.857 61.8711 121.231 61.9209 121.613C62.0738 122.337 62.267 123.392 62.4763 124.696C62.8949 127.304 63.3377 130.927 63.708 134.936C64.0783 138.945 64.352 142.583 64.5613 145.216C64.6418 146.439 64.7223 147.478 64.7786 148.331C64.8291 148.713 64.8291 149.1 64.7786 149.482C64.6638 149.115 64.5882 148.738 64.5532 148.355C64.4405 147.622 64.3037 146.56 64.1588 145.248C63.8529 142.631 63.5148 139.001 63.1445 134.992C62.7742 130.983 62.4119 127.369 62.098 124.793C61.945 123.577 61.8162 122.539 61.7116 121.693C61.6284 121.302 61.5986 120.901 61.623 120.502Z" fill="#263238"/>
<path d="M124.606 118.676C124.721 119.132 124.789 119.599 124.808 120.068C124.896 120.978 124.993 122.282 125.073 123.908C125.258 127.128 125.347 131.636 125.363 136.579V153.09C125.389 153.56 125.37 154.032 125.307 154.498C125.202 154.039 125.151 153.569 125.154 153.098C125.089 152.188 125.025 150.876 124.977 149.258C124.864 146.038 124.824 141.53 124.816 136.587C124.808 131.644 124.767 127.161 124.687 123.924C124.647 122.387 124.614 121.099 124.59 120.085C124.552 119.615 124.557 119.144 124.606 118.676Z" fill="#263238"/>
<path d="M53.4522 165.123C53.2003 164.209 53.0147 163.279 52.8968 162.338C52.5196 160.092 51.7915 157.918 50.7394 155.898C49.6657 153.917 48.0523 152.282 46.0865 151.181C45.2411 150.777 44.3666 150.438 43.4702 150.166C43.7354 150.109 44.01 150.109 44.2752 150.166C44.9726 150.283 45.6502 150.497 46.2877 150.802C48.4029 151.857 50.1364 153.546 51.2465 155.632C52.3118 157.706 52.9884 159.957 53.2429 162.274C53.4324 163.211 53.5027 164.168 53.4522 165.123Z" fill="#263238"/>
<path d="M56.0361 154.248C55.9234 154.377 54.3215 152.727 51.7133 151.833C49.1051 150.94 46.8833 151.246 46.835 151.077C46.7867 150.908 49.1453 150.36 51.8904 151.318C54.6354 152.276 56.1569 154.184 56.0361 154.248Z" fill="#263238"/>
<path d="M96.8901 191.656C96.8413 191.358 96.8197 191.057 96.8257 190.755C96.8257 190.119 96.8257 189.258 96.7693 188.179C96.721 185.885 96.6566 182.657 96.5761 178.688C96.391 170.638 96.1334 159.585 95.8436 147.381C95.5538 135.177 95.4008 124.076 95.4169 116.059C95.4169 112.034 95.4572 108.814 95.5055 106.56C95.5055 105.481 95.5618 104.62 95.586 103.984C95.5792 103.682 95.6008 103.38 95.6504 103.082C95.6728 103.382 95.6728 103.684 95.6504 103.984C95.6504 104.62 95.6504 105.481 95.6504 106.56C95.6504 108.854 95.6987 112.09 95.7309 116.051C95.8114 124.101 96.0448 135.137 96.3185 147.365C96.5922 159.593 96.8337 170.662 96.8981 178.68C96.8981 182.705 96.8981 185.925 96.8981 188.179C96.8981 189.258 96.8981 190.119 96.8579 190.755C96.8892 191.054 96.8999 191.356 96.8901 191.656Z" fill="#263238"/>
<path d="M45.9979 153.37C45.9979 153.305 46.8029 153.909 47.4469 155.246C47.8415 156.007 48.1287 156.82 48.3002 157.661C48.4655 158.728 48.4655 159.814 48.3002 160.881C48.18 161.949 47.8634 162.986 47.3664 163.94C46.936 164.713 46.3427 165.383 45.6276 165.904C44.9987 166.426 44.2068 166.71 43.3896 166.709C44.0971 166.416 44.7673 166.041 45.3861 165.59C46.0209 165.069 46.5439 164.426 46.9236 163.698C47.3544 162.788 47.6266 161.81 47.7286 160.808C47.8735 159.804 47.8735 158.785 47.7286 157.781C47.5903 156.952 47.3553 156.141 47.0283 155.366C46.5292 154.086 45.9174 153.418 45.9979 153.37Z" fill="#263238"/>
<path d="M95.0386 101.971C94.717 103.043 94.3106 104.087 93.823 105.095C93.6057 105.578 93.3803 106.101 93.1468 106.64C92.9159 107.255 92.6471 107.854 92.3418 108.435C92.2256 108.626 92.0566 108.78 91.8552 108.877C91.6538 108.974 91.4286 109.011 91.2068 108.983C90.8168 108.88 90.4541 108.693 90.1442 108.435L88.2444 107.139C85.6522 105.352 83.3258 103.702 81.6514 102.494C80.7152 101.882 79.832 101.193 79.011 100.434C80.0083 100.936 80.9639 101.518 81.8687 102.172C83.5995 103.307 85.9662 104.893 88.5583 106.688L90.4501 107.993C90.6968 108.206 90.9844 108.368 91.2953 108.468C91.4222 108.483 91.5508 108.459 91.6642 108.401C91.7776 108.342 91.8707 108.25 91.9313 108.137C92.5431 107.027 93.0502 105.827 93.5413 104.917C93.9576 103.895 94.4584 102.91 95.0386 101.971Z" fill="#263238"/>
<path d="M133.332 166.123C133.584 165.209 133.769 164.279 133.887 163.338C134.264 161.092 134.992 158.918 136.045 156.898C137.118 154.917 138.732 153.282 140.697 152.181C141.543 151.777 142.417 151.438 143.314 151.166C143.048 151.109 142.774 151.109 142.509 151.166C141.811 151.283 141.134 151.497 140.496 151.802C138.381 152.857 136.648 154.546 135.537 156.632C134.472 158.706 133.796 160.957 133.541 163.274C133.352 164.211 133.281 165.168 133.332 166.123Z" fill="#263238"/>
<path d="M130.748 155.248C130.861 155.377 132.462 153.727 135.071 152.833C137.679 151.94 139.901 152.246 139.949 152.077C139.997 151.908 137.639 151.36 134.894 152.318C132.149 153.276 130.627 155.184 130.748 155.248Z" fill="#263238"/>
<path d="M140.786 154.37C140.786 154.305 139.981 154.909 139.337 156.246C138.942 157.007 138.655 157.82 138.484 158.661C138.318 159.728 138.318 160.814 138.484 161.881C138.604 162.949 138.921 163.986 139.418 164.94C139.848 165.713 140.441 166.383 141.156 166.904C141.785 167.426 142.577 167.71 143.394 167.709C142.687 167.416 142.017 167.041 141.398 166.59C140.763 166.069 140.24 165.426 139.86 164.698C139.43 163.788 139.157 162.81 139.055 161.808C138.91 160.804 138.91 159.785 139.055 158.781C139.194 157.952 139.429 157.141 139.756 156.366C140.255 155.086 140.867 154.418 140.786 154.37Z" fill="#263238"/>
<path d="M153.075 175.407C153.161 174.907 156.983 167.605 154.083 163.898C151.183 160.191 142.326 121.219 140.439 117.309C135.63 107.339 125.197 106.968 125.197 106.968C125.197 106.968 124.699 125.487 124.494 130.181C124.29 134.875 128.082 152.52 128.046 152.133C127.808 149.379 131.227 169.475 131.227 169.475L153.075 175.407Z" fill="#FFD000"/>
<path d="M154.013 168.592C154.013 168.592 157.516 170.802 155.454 176.14C153.391 181.478 152.027 182.055 151.379 182.968C150.731 183.88 145.185 187.353 144.402 187.486C143.619 187.62 127.26 179.872 127.26 179.872C127.26 179.872 128.616 174.295 129.006 172.87C129.396 171.446 131.529 167.737 137.035 166.174C142.54 164.612 154.013 168.592 154.013 168.592Z" fill="#FFD000"/>
<g opacity="0.3">
<path d="M142.18 159.504C144.76 159.52 147.191 160.763 149.261 162.305C145.08 160.836 140.319 161.37 136.112 163.438C136.886 160.979 139.599 159.492 142.18 159.504Z" fill="black"/>
</g>
<path d="M136.522 165.98C136.77 165.87 137.013 165.746 137.247 165.61C137.902 165.276 138.577 164.986 139.27 164.743C141.561 163.921 144.018 163.67 146.428 164.012C148.838 164.353 151.129 165.277 153.102 166.703C153.702 167.13 154.271 167.598 154.805 168.104C154.992 168.3 155.19 168.485 155.398 168.658C155.361 168.598 155.318 168.543 155.268 168.495C155.176 168.392 155.05 168.23 154.862 168.045C154.346 167.513 153.787 167.024 153.19 166.583C151.216 165.106 148.901 164.15 146.459 163.804C144.017 163.459 141.528 163.734 139.221 164.606C138.524 164.863 137.85 165.178 137.205 165.547C136.978 165.671 136.81 165.79 136.69 165.861C136.63 165.895 136.574 165.935 136.522 165.98Z" fill="#263238"/>
<path d="M135.611 163.789C135.627 163.823 136.181 163.499 137.155 163.098C138.405 162.563 139.706 162.158 141.038 161.887C142.371 161.626 143.727 161.499 145.085 161.509C146.127 161.531 146.774 161.593 146.781 161.557C146.635 161.508 146.483 161.48 146.33 161.471C145.918 161.412 145.505 161.376 145.089 161.361C142.33 161.244 139.583 161.79 137.077 162.953C136.7 163.127 136.331 163.32 135.973 163.531C135.843 163.602 135.721 163.689 135.611 163.789Z" fill="#263238"/>
<path d="M121.834 187.437C121.834 187.437 144.947 186.956 145.079 186.657C145.212 186.359 153.401 178.785 143.007 174.044C143.007 174.044 137.319 170.772 132.493 174.353L124.834 178.437L121.834 187.437Z" fill="#FFBF9D"/>
<path d="M32.8241 175.407C32.7386 174.907 28.9166 167.605 31.8162 163.898C34.7158 160.191 43.5732 121.219 45.46 117.309C50.2688 107.339 60.7017 106.968 60.7017 106.968C60.7017 106.968 61.2 125.487 61.4048 130.181C61.6095 134.875 57.8174 152.52 57.8531 152.133C58.0907 149.379 54.6725 169.475 54.6725 169.475L32.8241 175.407Z" fill="#FFD000"/>
<path d="M56.8299 125.049C56.8511 125.147 56.8628 125.247 56.865 125.347L56.9234 126.203C56.9643 126.971 57.0255 128.043 57.0973 129.357C57.2238 132.046 57.3993 135.72 57.5935 139.774C57.7877 143.828 57.9139 147.51 58.0261 150.197C58.0676 151.503 58.1067 152.585 58.1312 153.355L58.1564 154.226C58.1656 154.326 58.1628 154.427 58.1482 154.526C58.1263 154.428 58.1145 154.328 58.113 154.228C58.1012 154.013 58.0799 153.726 58.0583 153.37C58.0138 152.604 57.9562 151.53 57.8827 150.212L57.3801 139.781L56.9519 129.378C56.9141 128.07 56.8733 126.985 56.8452 126.216C56.8379 125.862 56.8347 125.576 56.82 125.345C56.8162 125.246 56.8195 125.147 56.8299 125.049Z" fill="#263238"/>
<g opacity="0.3">
<path d="M44.6036 158.504C42.0242 158.52 39.5928 159.763 37.5234 161.305C41.704 159.836 46.4651 160.37 50.6722 162.438C49.8977 159.979 47.1847 158.492 44.6036 158.504Z" fill="black"/>
</g>
<path d="M32.0216 166.993C32.0216 166.993 28.5186 169.202 30.581 174.54C32.6434 179.878 34.0076 180.455 34.6557 181.368C35.3039 182.281 40.85 185.753 41.6331 185.887C42.4161 186.02 58.7747 178.272 58.7747 178.272C58.7747 178.272 57.4184 172.695 57.0284 171.271C56.6383 169.846 54.5052 166.137 49.0001 164.575C43.495 163.013 32.0216 166.993 32.0216 166.993Z" fill="#FFD000"/>
<path d="M64.4999 186.5C64.4999 186.5 41.3867 186.018 41.2541 185.72C41.1214 185.421 32.9328 177.848 43.3267 173.107C43.3267 173.107 49.0145 169.834 53.8406 173.415L61.4999 177.5L64.4999 186.5Z" fill="#FFBF9D"/>
<path d="M50.2618 164.98C50.0135 164.87 49.7713 164.746 49.5365 164.61C48.8823 164.276 48.2066 163.986 47.5138 163.743C45.2225 162.921 42.7656 162.67 40.3555 163.012C37.9455 163.353 35.6549 164.277 33.6821 165.703C33.0824 166.13 32.5132 166.598 31.9785 167.104C31.7919 167.3 31.5941 167.485 31.3861 167.658C31.4225 167.598 31.4663 167.543 31.5164 167.495C31.6078 167.392 31.7344 167.23 31.9216 167.045C32.4377 166.513 32.9969 166.024 33.5937 165.583C35.5682 164.106 37.8834 163.15 40.3252 162.804C42.7669 162.459 45.2564 162.734 47.5634 163.606C48.2601 163.863 48.9343 164.178 49.5791 164.547C49.8064 164.671 49.9743 164.79 50.0939 164.861C50.1536 164.895 50.2099 164.935 50.2618 164.98Z" fill="#263238"/>
<path d="M51.1725 162.789C51.1566 162.823 50.6025 162.499 49.6294 162.098C48.3794 161.563 47.0783 161.158 45.7462 160.887C44.4131 160.626 43.057 160.499 41.6985 160.509C40.6574 160.531 40.0099 160.593 40.0025 160.557C40.1487 160.508 40.3006 160.48 40.4543 160.471C40.8655 160.412 41.2794 160.376 41.6945 160.361C44.4539 160.244 47.2013 160.79 49.7065 161.953C50.084 162.127 50.4525 162.32 50.8105 162.531C50.941 162.602 51.0626 162.689 51.1725 162.789Z" fill="#263238"/>
<path d="M131.825 126.834C131.638 126.676 131.417 126.564 131.18 126.505C130.942 126.446 130.695 126.442 130.455 126.494C129.977 126.607 129.518 126.793 129.095 127.044C129.214 126.318 129.159 125.575 128.935 124.874C128.813 124.529 128.577 124.237 128.266 124.044C127.956 123.851 127.588 123.77 127.225 123.814C126.595 123.954 126.225 124.564 125.895 125.124C125.876 124.507 125.73 123.901 125.465 123.344C125.332 123.065 125.117 122.833 124.849 122.678C124.582 122.523 124.274 122.452 123.965 122.474C123.621 122.573 123.317 122.778 123.096 123.06C122.875 123.342 122.749 123.686 122.735 124.044C122.682 123.449 122.509 122.87 122.225 122.344C122.079 122.085 121.857 121.876 121.589 121.746C121.321 121.615 121.02 121.569 120.725 121.614C120.488 121.682 120.271 121.81 120.096 121.985C119.921 122.16 119.794 122.376 119.725 122.614C119.589 123.068 119.532 123.541 119.555 124.014C119.145 123.581 118.807 123.085 118.555 122.544C118.311 121.998 117.919 121.531 117.425 121.194C117.172 121.036 116.872 120.971 116.576 121.012C116.28 121.052 116.007 121.194 115.805 121.414C115.594 121.798 115.52 122.242 115.595 122.674C115.617 123.977 115.878 125.265 116.365 126.474C116.612 127.08 117.001 127.618 117.498 128.042C117.996 128.467 118.588 128.766 119.225 128.914L126.985 130.414C127.948 130.533 128.924 130.496 129.875 130.304C130.351 130.206 130.797 129.996 131.176 129.692C131.555 129.387 131.856 128.997 132.055 128.554C132.188 128.276 132.237 127.965 132.196 127.66C132.155 127.354 132.026 127.068 131.825 126.834Z" fill="#FF725E"/>
<path d="M87.7456 155.033C88.8256 157.333 89.9456 158.643 92.8056 159.223C94.7268 159.485 96.6745 159.485 98.5956 159.223C101.096 158.933 103.956 157.113 106.436 151.013C109.236 144.123 108.496 140.483 111.236 135.073C114.336 128.923 117.346 127.613 123.236 128.223C129.126 128.833 128.126 132.753 128.126 132.753C126.127 138.53 125.377 144.665 125.926 150.753C127.026 159.923 132.156 168.963 132.166 174.953C132.203 178.557 131.376 182.117 129.755 185.336C128.133 188.555 125.764 191.338 122.846 193.453C113.096 200.243 108.086 200.133 90.7256 200.253C73.3656 200.373 64.9456 191.333 62.7256 189.013C62.5907 188.827 62.4989 188.613 62.4565 188.386C62.4142 188.16 62.4225 187.927 62.4808 187.704C62.5391 187.482 62.646 187.275 62.7938 187.098C62.9416 186.921 63.1266 186.78 63.3356 186.683C63.3356 186.683 59.9056 184.613 60.3956 182.413C60.8856 180.213 61.4956 179.843 61.4956 179.843C61.4956 179.843 60.0356 179.353 61.0156 177.273C58.6809 174.809 57.0358 171.774 56.2456 168.473C55.2456 163.473 54.5356 161.633 56.2456 159.923C56.2456 159.923 53.9556 153.243 55.5856 151.773C57.2156 150.303 59.4256 152.103 59.4256 152.103C58.7168 151.028 58.2023 149.837 57.9056 148.583C57.8182 148.135 57.847 147.672 57.9894 147.239C58.1318 146.805 58.383 146.415 58.719 146.106C59.055 145.797 59.4647 145.58 59.9087 145.474C60.3528 145.368 60.8165 145.379 61.2556 145.503C61.2556 145.503 58.5656 140.613 60.5256 138.413C61.7056 137.073 64.1856 140.003 64.1856 140.003C64.1856 140.003 61.3756 131.693 63.9456 131.563C66.5156 131.433 69.0756 137.063 69.0756 137.063C69.0756 137.063 67.8556 129.613 71.0756 130.593C74.2956 131.573 78.5256 139.393 78.5256 139.393C78.5256 139.393 80.5856 134.213 83.7856 141.953C85.1256 145.303 85.7456 150.723 87.7456 155.033Z" fill="#AE7461"/>
<path d="M128.226 132.534C128.226 132.534 130.896 134.014 131.376 135.534C131.856 137.054 131.156 136.784 130.376 136.624C129.756 136.494 127.586 136.444 126.786 137.204C125.986 137.964 125.246 137.204 125.286 136.204C125.278 135.905 125.334 135.608 125.45 135.332C125.565 135.056 125.738 134.808 125.956 134.604C126.416 134.124 126.276 133.294 126.956 132.854C127.136 132.72 127.341 132.622 127.559 132.567C127.777 132.513 128.003 132.501 128.226 132.534Z" fill="#FF725E"/>
<path d="M128.235 134.114C128.315 134.114 128.485 134.114 128.415 134.044C128.153 133.842 127.836 133.724 127.505 133.704C127.43 133.693 127.353 133.701 127.281 133.726C127.209 133.75 127.143 133.791 127.09 133.846C127.037 133.9 126.997 133.966 126.973 134.039C126.95 134.111 126.944 134.188 126.955 134.264C126.955 134.544 127.225 134.674 127.485 134.634C127.597 134.62 127.7 134.57 127.778 134.49C127.856 134.409 127.905 134.305 127.915 134.194C127.915 134.194 127.835 134.104 128.235 134.114Z" fill="#263238"/>
<path d="M129.916 136.504C129.856 136.644 129.086 136.404 128.126 136.424C127.166 136.444 126.406 136.674 126.346 136.534C126.286 136.394 127.036 135.904 128.126 135.904C129.216 135.904 130.026 136.384 129.916 136.504Z" fill="#263238"/>
<path d="M122.546 140.195C122.816 139.305 122.446 138.995 121.766 138.355C121.086 137.715 120.246 137.265 119.636 136.575C119.181 136.067 118.87 135.447 118.737 134.779C118.603 134.11 118.651 133.418 118.876 132.775C119.125 132.14 119.562 131.597 120.128 131.218C120.695 130.839 121.364 130.642 122.046 130.655C122.723 130.712 123.361 130.997 123.856 131.464C124.35 131.931 124.671 132.552 124.766 133.225C124.711 133.803 124.782 134.387 124.976 134.935C125.258 135.301 125.596 135.621 125.976 135.885C126.736 136.575 127.036 136.575 127.096 138.565" fill="#FF725E"/>
<path d="M121.726 134.834C122.554 134.834 123.226 134.162 123.226 133.334C123.226 132.506 122.554 131.834 121.726 131.834C120.897 131.834 120.226 132.506 120.226 133.334C120.226 134.162 120.897 134.834 121.726 134.834Z" fill="#263238"/>
<g opacity="0.3">
<path d="M117.916 172.013C117.916 175.313 116.396 178.013 113.396 180.903C110.842 183.169 107.84 184.873 104.586 185.903C101.886 186.654 99.0981 187.044 96.2956 187.063C91.6056 187.063 89.8056 187.063 85.4556 184.763C84.6778 184.325 83.9973 183.733 83.4556 183.023C83.2123 182.716 83.0799 182.335 83.0799 181.943C83.0799 181.551 83.2123 181.17 83.4556 180.863C82.2872 181.067 81.0889 181.021 79.9396 180.728C78.7903 180.435 77.716 179.903 76.7874 179.165C75.8588 178.427 75.0969 177.501 74.5519 176.447C74.007 175.394 73.6913 174.237 73.6256 173.053C73.5716 172.583 73.655 172.107 73.8656 171.683C73.9729 171.472 74.1513 171.307 74.3691 171.215C74.587 171.124 74.8302 171.112 75.0556 171.183C74.485 170.709 74.0715 170.072 73.8698 169.358C73.668 168.644 73.6875 167.886 73.9256 167.183C74.1853 166.485 74.6029 165.856 75.1459 165.346C75.6889 164.836 76.3425 164.458 77.0556 164.243C78.4931 163.831 80.0245 163.891 81.4256 164.413" fill="black"/>
</g>
<path d="M117.916 170.835C117.916 174.125 116.396 176.785 113.396 179.725C110.842 181.991 107.841 183.695 104.586 184.725C101.885 185.474 99.0981 185.868 96.2956 185.895C91.6056 185.895 89.8056 185.895 85.4556 183.585C84.6732 183.153 83.9915 182.56 83.4556 181.845C83.213 181.539 83.081 181.16 83.081 180.77C83.081 180.379 83.213 180.001 83.4556 179.695C82.2868 179.895 81.0889 179.847 79.9402 179.552C78.7915 179.257 77.718 178.724 76.79 177.985C75.862 177.247 75.1004 176.321 74.5551 175.268C74.0098 174.215 73.693 173.059 73.6256 171.875C73.5727 171.405 73.656 170.929 73.8656 170.505C73.9745 170.296 74.1536 170.133 74.3713 170.043C74.589 169.953 74.8313 169.943 75.0556 170.015C74.4872 169.539 74.0754 168.902 73.8738 168.189C73.6722 167.476 73.6903 166.718 73.9256 166.015C74.1872 165.319 74.6056 164.692 75.1484 164.184C75.6913 163.676 76.3438 163.3 77.0556 163.085C78.493 162.673 80.0244 162.733 81.4256 163.255" fill="#AE7461"/>
<path d="M81.4156 163.264C81.4156 163.264 81.1056 163.184 80.5056 163.064C79.6431 162.883 78.7544 162.866 77.8856 163.014C77.2096 163.12 76.5626 163.364 75.9847 163.73C75.4067 164.097 74.9101 164.578 74.5256 165.144C74.0643 165.844 73.8529 166.679 73.9256 167.514C73.9578 167.973 74.0846 168.42 74.298 168.828C74.5114 169.236 74.8068 169.595 75.1656 169.884L76.3156 170.764L74.9656 170.224C74.5456 170.054 73.9656 170.454 73.8856 170.994C73.7917 171.599 73.8121 172.216 73.9456 172.814C74.1859 174.135 74.7379 175.379 75.5556 176.444C76.4744 177.6 77.6865 178.488 79.0655 179.015C80.4446 179.543 81.9399 179.691 83.3956 179.444L84.1856 179.304L83.6256 179.864C83.4651 180.061 83.3624 180.3 83.3289 180.552C83.2954 180.804 83.3323 181.061 83.4356 181.294C83.686 181.81 84.048 182.264 84.4956 182.624C84.9482 183.023 85.4528 183.36 85.9956 183.624C86.5556 183.914 87.1156 184.174 87.6856 184.434C88.8472 184.923 90.0674 185.259 91.3156 185.434C92.5471 185.573 93.7864 185.633 95.0256 185.614C97.3714 185.664 99.7164 185.479 102.026 185.064C104.112 184.69 106.133 184.017 108.026 183.064C109.693 182.258 111.255 181.251 112.676 180.064C114.753 178.368 116.361 176.168 117.346 173.674C117.625 172.732 117.806 171.763 117.886 170.784C117.886 170.784 117.886 170.844 117.886 170.974C117.896 171.167 117.896 171.36 117.886 171.554C117.851 172.293 117.727 173.025 117.516 173.734C116.597 176.309 115.001 178.589 112.896 180.334C111.47 181.558 109.894 182.597 108.206 183.424C106.292 184.429 104.24 185.143 102.116 185.544C99.7734 185.968 97.3958 186.166 95.0156 186.134C93.7562 186.149 92.4971 186.085 91.2456 185.944C89.9479 185.761 88.6822 185.398 87.4856 184.864C86.8956 184.614 86.3156 184.334 85.7656 184.044C85.1779 183.775 84.6349 183.417 84.1556 182.984C83.6409 182.575 83.2298 182.051 82.9556 181.454C82.8098 181.126 82.7606 180.764 82.8138 180.41C82.8669 180.056 83.0202 179.724 83.2556 179.454L83.4856 179.884C81.9376 180.143 80.3482 179.978 78.8866 179.405C77.425 178.833 76.146 177.875 75.1856 176.634C74.3285 175.51 73.7556 174.196 73.5156 172.804C73.3867 172.143 73.3867 171.464 73.5156 170.804C73.5501 170.626 73.6212 170.458 73.7244 170.31C73.8276 170.161 73.9606 170.036 74.1149 169.942C74.2693 169.848 74.4415 169.787 74.6207 169.763C74.7999 169.739 74.9821 169.753 75.1556 169.804L74.9556 170.144C74.5574 169.818 74.2309 169.414 73.9969 168.956C73.7628 168.498 73.6262 167.997 73.5956 167.484C73.5302 166.569 73.777 165.66 74.2956 164.904C74.7116 164.316 75.2441 163.82 75.86 163.446C76.4759 163.073 77.162 162.831 77.8756 162.734C78.7739 162.605 79.6889 162.66 80.5656 162.894C80.794 162.946 81.018 163.017 81.2356 163.104C81.3456 163.194 81.4256 163.254 81.4156 163.264Z" fill="#263238"/>
<g opacity="0.3">
<path d="M80.1057 148.635C79.6342 148.073 78.9645 147.715 78.2357 147.635C77.7976 147.674 77.3827 147.85 77.0492 148.137C76.7157 148.424 76.4803 148.807 76.3757 149.235C76.1906 150.098 76.1906 150.991 76.3757 151.855C75.4411 150.279 74.0446 149.03 72.3757 148.275C71.5395 147.913 70.6164 147.802 69.7183 147.955C68.8202 148.108 67.9856 148.517 67.3157 149.135C65.8157 150.715 65.9757 153.205 66.4457 155.325C66.0242 154.637 65.5168 154.005 64.9357 153.445C64.3393 152.882 63.5454 152.577 62.7257 152.595C62.2103 152.661 61.721 152.86 61.3055 153.172C60.8901 153.484 60.5628 153.898 60.3557 154.375C59.9507 155.321 59.7595 156.346 59.7957 157.375C59.7737 159.969 60.2174 162.547 61.1057 164.985C60.6649 164.493 60.0866 164.144 59.4457 163.985C59.1233 163.905 58.7854 163.913 58.4671 164.008C58.1488 164.103 57.8617 164.281 57.6357 164.525C57.4062 164.906 57.2671 165.336 57.229 165.779C57.1909 166.223 57.2547 166.67 57.4157 167.085C58.0952 169.915 59.1336 172.647 60.5057 175.215L83.8357 153.605C82.8735 151.755 81.6133 150.076 80.1057 148.635Z" fill="black"/>
</g>
<path d="M122.546 140.194C121.996 141.072 121.606 142.04 121.396 143.054C121.298 143.562 121.304 144.084 121.414 144.59C121.524 145.095 121.736 145.573 122.036 145.994C122.36 146.425 122.801 146.754 123.305 146.943C123.81 147.133 124.358 147.175 124.886 147.064C125.307 146.935 125.695 146.715 126.021 146.42C126.348 146.124 126.606 145.76 126.776 145.354C127.083 145.542 127.442 145.627 127.802 145.598C128.161 145.57 128.502 145.428 128.776 145.194C129.231 144.793 129.537 144.249 129.644 143.652C129.751 143.055 129.653 142.439 129.366 141.904C129.01 141.308 128.584 140.758 128.096 140.264C127.613 139.772 127.268 139.162 127.096 138.494" fill="#FF725E"/>
<path d="M125.036 138.193C125.116 138.193 124.966 138.653 125.036 139.333C125.084 139.728 125.209 140.108 125.406 140.453C125.682 140.881 125.993 141.286 126.336 141.663C126.656 142.055 126.89 142.509 127.024 142.996C127.159 143.483 127.19 143.993 127.116 144.493C126.996 145.263 126.686 145.643 126.636 145.613C126.586 145.583 126.736 145.163 126.756 144.463C126.783 143.564 126.489 142.685 125.926 141.983C125.568 141.581 125.25 141.146 124.976 140.683C124.771 140.27 124.668 139.814 124.676 139.353C124.686 138.563 124.986 138.193 125.036 138.193Z" fill="#263238"/>
<g opacity="0.3">
<path d="M125.326 135.424C125.004 136.017 124.869 136.693 124.936 137.364C124.94 137.539 124.982 137.712 125.058 137.871C125.133 138.029 125.242 138.17 125.376 138.284C125.533 138.363 125.708 138.399 125.884 138.388C126.059 138.378 126.229 138.321 126.376 138.224C126.665 137.998 126.886 137.697 127.016 137.354C127.032 137.314 127.041 137.272 127.041 137.229C127.041 137.186 127.032 137.143 127.016 137.104C126.946 136.964 126.736 137.004 126.596 137.104C126.428 137.201 126.245 137.272 126.056 137.314C125.96 137.336 125.861 137.333 125.767 137.307C125.672 137.281 125.586 137.232 125.516 137.164C125.421 137.011 125.376 136.833 125.386 136.654C125.386 136.264 125.386 135.874 125.386 135.484" fill="black"/>
</g>
<g opacity="0.3">
<path d="M126.766 145.263C127.029 144.963 127.22 144.605 127.322 144.218C127.425 143.831 127.436 143.425 127.355 143.033C127.16 142.323 126.788 141.673 126.275 141.143C125.757 140.621 125.289 140.052 124.875 139.443C124.911 140.164 125.154 140.858 125.576 141.443C125.997 142.022 126.365 142.638 126.676 143.283C126.836 143.603 126.919 143.956 126.919 144.313C126.919 144.671 126.836 145.024 126.676 145.343" fill="black"/>
</g>
<path d="M123.706 134.895C123.766 134.895 123.706 135.215 123.376 135.555C122.936 135.995 122.338 136.244 121.716 136.245C121.408 136.24 121.104 136.174 120.823 136.051C120.541 135.927 120.287 135.748 120.076 135.525C119.756 135.175 119.696 134.885 119.756 134.855C119.816 134.825 119.986 135.025 120.316 135.245C120.728 135.54 121.218 135.707 121.726 135.725C122.229 135.713 122.719 135.557 123.136 135.275C123.466 135.055 123.646 134.855 123.706 134.895Z" fill="#263238"/>
<path d="M124.616 162.934C124.616 162.934 124.486 163.094 124.146 163.214C123.66 163.384 123.131 163.384 122.646 163.214C121.919 162.946 121.305 162.438 120.906 161.774C120.448 160.975 120.111 160.112 119.906 159.214L120.396 159.084C120.502 159.434 120.582 159.792 120.636 160.154C120.687 160.453 120.675 160.759 120.599 161.052C120.523 161.345 120.386 161.618 120.196 161.854C120.006 162.094 119.739 162.261 119.441 162.328C119.143 162.396 118.83 162.359 118.556 162.224C118.146 161.935 117.841 161.521 117.686 161.044C117.538 160.676 117.415 160.298 117.316 159.914C117.067 159.16 117.005 158.357 117.136 157.574C117.226 157.574 117.236 158.474 117.666 159.804C117.78 160.17 117.921 160.528 118.086 160.874C118.222 161.247 118.465 161.57 118.786 161.804C118.961 161.875 119.155 161.885 119.336 161.833C119.518 161.78 119.676 161.668 119.786 161.514C119.929 161.333 120.031 161.123 120.085 160.899C120.138 160.674 120.142 160.44 120.096 160.214C120.046 159.877 119.976 159.543 119.886 159.214L120.376 159.074C120.57 159.931 120.876 160.758 121.286 161.534C121.616 162.138 122.136 162.616 122.766 162.894C123.36 163.116 124.012 163.13 124.616 162.934Z" fill="#263238"/>
<path d="M61.9158 176.613C60.5405 174.046 59.4987 171.314 58.8158 168.483C58.6562 168.066 58.5939 167.617 58.6338 167.172C58.6736 166.726 58.8145 166.296 59.0458 165.913C59.2735 165.672 59.561 165.496 59.8791 165.403C60.1971 165.31 60.5342 165.303 60.8558 165.383C61.4946 165.548 62.0715 165.895 62.5158 166.383C61.6226 163.947 61.1787 161.368 61.2058 158.773C61.1699 157.745 61.3576 156.722 61.7558 155.773C61.9637 155.295 62.2925 154.88 62.7099 154.568C63.1272 154.256 63.6186 154.058 64.1358 153.993C64.9525 153.976 65.7431 154.281 66.3358 154.843C66.9228 155.4 67.4339 156.032 67.8558 156.723C67.3858 154.603 67.2258 152.113 68.7158 150.533C69.3875 149.916 70.2231 149.505 71.1225 149.351C72.0218 149.196 72.9466 149.305 73.7858 149.663C75.4522 150.422 76.8476 151.671 77.7858 153.243C77.5943 152.384 77.5943 151.493 77.7858 150.633C77.8889 150.205 78.124 149.82 78.4578 149.533C78.7916 149.246 79.2071 149.071 79.6458 149.033C80.3724 149.12 81.0398 149.477 81.5158 150.033C82.7613 151.041 83.7831 152.298 84.5158 153.723" fill="#AE7461"/>
<path d="M84.4855 153.715C84.3075 153.489 84.1502 153.248 84.0155 152.995C83.59 152.307 83.0717 151.681 82.4755 151.135L81.1955 149.935C80.9737 149.696 80.7041 149.507 80.4043 149.379C80.1045 149.252 79.7812 149.189 79.4555 149.195C79.0962 149.275 78.7661 149.453 78.5014 149.709C78.2368 149.964 78.0478 150.288 77.9555 150.645C77.7751 151.492 77.7751 152.367 77.9555 153.215L78.0855 154.105L77.5855 153.345C76.9103 152.292 76.0497 151.37 75.0455 150.625C73.9573 149.806 72.5994 149.431 71.2455 149.575C70.5247 149.638 69.8341 149.894 69.2455 150.315C68.6742 150.764 68.2439 151.368 68.0055 152.055C67.5908 153.56 67.5908 155.149 68.0055 156.655L68.3055 157.995L67.5355 156.855C67.1479 156.223 66.6881 155.639 66.1655 155.115C65.6654 154.621 65.0136 154.311 64.3155 154.235C63.9812 154.228 63.6492 154.291 63.3409 154.42C63.0326 154.549 62.7548 154.741 62.5255 154.985C61.6552 156.05 61.2354 157.414 61.3555 158.785C61.3231 161.357 61.7532 163.914 62.6255 166.335L63.0155 167.425L62.2555 166.565C61.9543 166.151 61.529 165.845 61.0415 165.69C60.554 165.535 60.0299 165.541 59.5455 165.705C59.3412 165.803 59.1642 165.951 59.0299 166.134C58.8957 166.317 58.8083 166.53 58.7755 166.755C58.6858 167.204 58.6858 167.666 58.7755 168.115C59.1148 169.686 59.5694 171.23 60.1355 172.735C60.5955 173.995 61.0255 174.955 61.3155 175.605C61.4894 175.927 61.6398 176.261 61.7655 176.605C61.7655 176.605 61.6955 176.535 61.6055 176.375C61.5155 176.215 61.3655 175.975 61.1955 175.655C60.8655 175.025 60.3955 174.075 59.8855 172.825C59.2833 171.312 58.792 169.758 58.4155 168.175C58.2964 167.68 58.2726 167.168 58.3455 166.665C58.3912 166.378 58.5062 166.107 58.6805 165.876C58.8548 165.644 59.083 165.458 59.3455 165.335C59.8907 165.075 60.5164 165.043 61.0855 165.245C61.6461 165.46 62.1492 165.802 62.5555 166.245L62.1855 166.475C61.2746 164.01 60.8172 161.402 60.8355 158.775C60.7045 157.269 61.1756 155.773 62.1455 154.615C62.4227 154.317 62.761 154.082 63.1372 153.927C63.5135 153.771 63.9188 153.699 64.3255 153.715C65.1426 153.787 65.9094 154.141 66.4955 154.715C67.0539 155.265 67.541 155.883 67.9455 156.555L67.4755 156.755C67.0305 155.152 67.0305 153.458 67.4755 151.855C67.7414 151.076 68.2364 150.397 68.8955 149.905C69.5359 149.44 70.2882 149.153 71.0755 149.075C72.5464 148.923 74.0198 149.338 75.1955 150.235C76.2368 151.023 77.1248 151.996 77.8155 153.105L77.4455 153.245C77.2567 152.342 77.2738 151.409 77.4955 150.515C77.6129 150.099 77.8433 149.723 78.161 149.43C78.4787 149.137 78.8714 148.938 79.2955 148.855C79.6704 148.844 80.0433 148.914 80.3885 149.061C80.7338 149.207 81.0432 149.427 81.2955 149.705L82.5555 150.945C83.1449 151.535 83.6436 152.209 84.0355 152.945C84.2072 153.188 84.3577 153.446 84.4855 153.715Z" fill="#263238"/>
<path d="M128.656 157.074C128.402 157.338 128.084 157.531 127.734 157.636C127.384 157.741 127.012 157.754 126.656 157.674C125.75 157.473 124.957 156.928 124.446 156.154C123.908 155.401 123.679 154.471 123.806 153.554C123.857 153.19 124.002 152.846 124.226 152.555C124.451 152.264 124.747 152.036 125.086 151.894C125.729 151.647 126.442 151.647 127.086 151.894C127.741 152.141 128.306 152.58 128.706 153.154C129.11 153.742 129.32 154.441 129.306 155.154C129.338 155.853 129.106 156.539 128.656 157.074Z" fill="#AE7461"/>
<path d="M81.5558 147.864C81.2636 147.607 81.0168 147.303 80.8258 146.964C80.3958 146.354 79.8758 145.414 79.1458 144.314C78.3734 143.009 77.2127 141.978 75.8258 141.364C75.449 141.189 75.0331 141.116 74.6193 141.151C74.2054 141.186 73.8079 141.329 73.4658 141.564C73.1825 141.902 73.0135 142.321 72.983 142.761C72.9525 143.202 73.062 143.64 73.2958 144.014C73.4949 144.41 73.7222 144.791 73.9758 145.154L74.7358 146.314L73.6158 145.514C72.9065 144.942 72.2382 144.32 71.6158 143.654C71.0601 143.07 70.375 142.625 69.6158 142.354C69.2893 142.232 68.9393 142.187 68.5926 142.222C68.2459 142.256 67.9117 142.37 67.6158 142.554C67.1269 142.917 66.7888 143.448 66.6658 144.044C66.5024 144.945 66.5818 145.874 66.8958 146.734C67.0224 147.057 67.1162 147.392 67.1758 147.734C66.9706 147.456 66.815 147.145 66.7158 146.814C66.3136 145.925 66.1747 144.939 66.3158 143.974C66.4429 143.278 66.8243 142.654 67.3858 142.224C67.7283 141.997 68.1184 141.852 68.5259 141.8C68.9333 141.748 69.3473 141.791 69.7358 141.924C70.5719 142.196 71.33 142.666 71.9458 143.294C72.5684 143.941 73.2368 144.543 73.9458 145.094L73.5758 145.454C73.3074 145.068 73.0668 144.664 72.8558 144.244C72.5748 143.77 72.4523 143.218 72.5063 142.67C72.5602 142.121 72.7878 141.604 73.1558 141.194C73.5655 140.899 74.0464 140.718 74.5492 140.671C75.0519 140.623 75.5581 140.711 76.0158 140.924C77.4896 141.585 78.7077 142.709 79.4858 144.124C80.1858 145.274 80.6558 146.234 81.0258 146.874C81.2276 147.19 81.4048 147.521 81.5558 147.864Z" fill="#263238"/>
<g opacity="0.3">
<path d="M96.6358 166.924C95.0558 167.184 93.2258 167.724 92.7258 169.244C92.5844 169.944 92.6857 170.67 93.0129 171.305C93.3401 171.939 93.8737 172.443 94.5258 172.734C95.869 173.22 97.3067 173.388 98.7258 173.224C97.5258 173.554 97.0358 175.344 97.5858 176.464C97.902 177.002 98.3363 177.462 98.856 177.808C99.3756 178.155 99.967 178.379 100.586 178.464C101.866 178.622 103.167 178.469 104.375 178.016C105.583 177.563 106.664 176.825 107.526 175.864L96.6358 166.924Z" fill="black"/>
</g>
<path d="M97.1958 166.055C95.6158 166.305 93.7858 166.855 93.2958 168.365C93.148 169.064 93.2453 169.792 93.5713 170.427C93.8972 171.063 94.432 171.567 95.0858 171.855C96.427 172.349 97.8668 172.517 99.2858 172.345C98.0858 172.685 97.5958 174.475 98.1458 175.595C98.4638 176.132 98.8986 176.59 99.4179 176.937C99.9372 177.283 100.528 177.508 101.146 177.595C102.384 177.822 103.658 177.74 104.857 177.357C106.055 176.973 107.14 176.299 108.016 175.395" fill="#AE7461"/>
<path d="M108.025 175.373C107.822 175.692 107.561 175.97 107.255 176.193C106.253 177.02 105.053 177.572 103.773 177.794C102.494 178.017 101.178 177.903 99.9554 177.463C99.0531 177.136 98.3117 176.473 97.8854 175.613C97.6764 175.12 97.6087 174.578 97.6899 174.048C97.7712 173.518 97.9981 173.022 98.3454 172.613C98.5768 172.351 98.8788 172.16 99.2154 172.063L99.2854 172.573C98.3718 172.619 97.4562 172.599 96.5454 172.513C95.6649 172.434 94.8303 172.085 94.1554 171.513C93.5434 170.976 93.134 170.246 92.9954 169.443C92.9454 169.087 92.9731 168.723 93.0766 168.378C93.1802 168.033 93.3572 167.714 93.5954 167.443C94.2919 166.753 95.1872 166.299 96.1554 166.143C96.4807 166.053 96.8184 166.016 97.1554 166.033C96.8306 166.16 96.4962 166.26 96.1554 166.333C95.2962 166.568 94.5201 167.039 93.9154 167.693C93.7275 167.927 93.5905 168.197 93.513 168.486C93.4355 168.775 93.4193 169.078 93.4654 169.373C93.6015 170.069 93.9721 170.698 94.5154 171.153C95.1248 171.662 95.8749 171.972 96.6654 172.043C97.5546 172.099 98.4463 172.099 99.3354 172.043H101.245L99.4054 172.563C99.1665 172.638 98.9523 172.777 98.7854 172.963C98.5117 173.294 98.3313 173.692 98.2627 174.115C98.1941 174.539 98.2399 174.973 98.3954 175.373C98.7732 176.118 99.4149 176.696 100.195 176.993C101.566 177.516 103.064 177.603 104.485 177.243C105.455 177.004 106.371 176.583 107.185 176.003C107.452 175.776 107.733 175.566 108.025 175.373Z" fill="#263238"/>
<path d="M115.226 140.123C115.296 140.123 115.376 140.483 115.226 141.033C115.119 141.356 114.945 141.652 114.716 141.903C114.575 142.087 114.393 142.235 114.185 142.336C113.976 142.437 113.747 142.487 113.516 142.483C113.279 142.443 113.059 142.336 112.882 142.175C112.705 142.014 112.578 141.805 112.516 141.573C112.408 141.232 112.408 140.865 112.516 140.523C112.696 139.983 112.906 139.723 112.966 139.743C113.026 139.763 112.966 140.103 112.876 140.603C112.826 140.874 112.847 141.153 112.936 141.413C112.982 141.549 113.062 141.672 113.169 141.768C113.276 141.864 113.405 141.931 113.546 141.963C113.699 141.957 113.849 141.919 113.986 141.852C114.124 141.785 114.246 141.69 114.346 141.573C114.553 141.373 114.732 141.144 114.876 140.893C115.096 140.453 115.146 140.123 115.226 140.123Z" fill="#263238"/>
<path d="M117.156 142.195C117.216 142.195 117.366 142.425 117.156 142.795C117.053 143.013 116.876 143.187 116.656 143.285C116.518 143.344 116.37 143.375 116.221 143.375C116.071 143.375 115.923 143.344 115.786 143.285C115.547 143.182 115.347 143.007 115.213 142.785C115.078 142.562 115.016 142.304 115.036 142.045C115.036 141.665 115.236 141.485 115.296 141.515C115.356 141.545 115.346 141.745 115.406 142.025C115.428 142.194 115.493 142.354 115.595 142.49C115.696 142.627 115.831 142.735 115.986 142.805C116.13 142.871 116.292 142.889 116.448 142.854C116.603 142.82 116.743 142.736 116.846 142.615C117.066 142.405 117.086 142.195 117.156 142.195Z" fill="#263238"/>
<path d="M115.066 143.073C115.136 143.073 115.146 143.303 115.066 143.603C114.988 143.823 114.855 144.019 114.68 144.173C114.505 144.327 114.294 144.434 114.066 144.483C113.929 144.516 113.788 144.519 113.65 144.493C113.512 144.467 113.381 144.413 113.266 144.333C113.081 144.192 112.959 143.984 112.926 143.753C112.926 143.353 113.146 143.193 113.186 143.253C113.226 143.313 113.186 143.463 113.286 143.663C113.341 143.79 113.441 143.891 113.566 143.948C113.692 144.005 113.834 144.014 113.966 143.973C114.626 143.813 114.916 142.983 115.066 143.073Z" fill="#263238"/>
<path d="M133 174.094C133.428 172.746 126.899 179.015 126.618 177.629C126.336 176.242 125.705 174.951 124.784 173.877C122.519 171.525 119.87 169.576 116.952 168.113C115.197 167.059 111.719 163.388 110.938 164.088C110.475 164.506 110.18 165.077 110.107 165.696C110.035 166.315 110.19 166.94 110.544 167.453C111.349 168.991 115.229 170.778 115.092 172.75C115.078 172.941 115.026 173.127 114.94 173.298C114.854 173.469 114.735 173.621 114.59 173.746C114.445 173.87 114.276 173.965 114.095 174.025C113.913 174.085 113.721 174.109 113.53 174.094C110.318 173.947 107.116 173.638 103.935 173.169C101.125 172.589 98.5251 172.83 98.5573 173.821C98.5895 174.811 99.0644 175.431 101.383 175.889C103.701 176.348 107.533 176.694 107.662 177.218C107.791 177.741 106.978 178.023 105.617 177.773C104.257 177.524 97.8167 176.759 97.2934 177.443C97.1637 177.615 97.0738 177.814 97.0302 178.025C96.9865 178.236 96.9903 178.454 97.0411 178.664C97.0919 178.873 97.1886 179.069 97.3241 179.236C97.4596 179.404 97.6306 179.539 97.8247 179.633L99.2737 180.349C99.2737 180.349 98.2514 181.468 98.9034 182.233C99.5555 182.998 101.246 182.957 101.246 182.957L109.827 183.714C109.827 183.714 110.254 184.286 109.964 184.608C109.674 184.93 103.049 183.658 102.912 184.39C102.775 185.123 102.148 185.389 104.096 186.113C106.97 186.946 109.962 187.297 112.951 187.151C114.818 186.87 122.434 187.417 122.434 187.417L135 187.151L133 174.094Z" fill="#FFBF9D"/>
<path d="M60.3899 180.798C59.9617 179.45 59.8848 178.015 60.1666 176.629C60.4483 175.242 61.0794 173.951 61.9999 172.877C64.2651 170.525 66.9137 168.576 69.8326 167.113C71.5875 166.059 75.0651 162.388 75.846 163.088C76.3089 163.506 76.6042 164.077 76.6768 164.696C76.7494 165.315 76.5943 165.94 76.2404 166.453C75.4354 167.991 71.5553 169.778 71.6922 171.75C71.7064 171.941 71.7581 172.127 71.8443 172.298C71.9305 172.469 72.0496 172.621 72.1946 172.746C72.3396 172.87 72.5078 172.965 72.6895 173.025C72.8713 173.085 73.063 173.109 73.2539 173.094C76.4659 172.947 79.6685 172.638 82.8495 172.169C85.6589 171.589 88.2591 171.83 88.2269 172.821C88.1947 173.811 87.7198 174.431 85.4013 174.889C83.0829 175.348 79.2511 175.694 79.1223 176.218C78.9935 176.741 79.8066 177.023 81.167 176.773C82.5275 176.524 88.9675 175.759 89.4908 176.443C89.6205 176.615 89.7104 176.814 89.754 177.025C89.7976 177.236 89.7939 177.454 89.7431 177.664C89.6923 177.873 89.5956 178.069 89.4601 178.236C89.3246 178.404 89.1536 178.539 88.9595 178.633L87.5105 179.349C87.5105 179.349 88.5328 180.468 87.8808 181.233C87.2287 181.998 85.5382 181.957 85.5382 181.957L76.9569 182.714C76.9569 182.714 76.5302 183.286 76.82 183.608C77.1098 183.93 83.735 182.658 83.8718 183.39C84.0087 184.123 84.6366 184.389 82.6885 185.113C79.8144 185.946 76.8222 186.297 73.8335 186.151C71.9659 185.87 59.0001 186.5 59.0001 186.5L60.3899 180.798Z" fill="#FFBF9D"/>
<path d="M71 55.5008C71 55.5008 76.307 47.6937 91.4166 49.9629C111.849 53.0186 115 57 115 57C115 57 111.244 44.6298 102.071 41.5987C92.8966 38.5676 85.5288 40.1569 80.174 43.7696C74.8192 47.3824 71 55.5008 71 55.5008Z" fill="#FFD000"/>
</g>
<defs>
<clipPath id="clip0_752_25606">
<rect width="200" height="200" fill="white"/>
</clipPath>
</defs>
</svg>
