<svg width="200" height="200" viewBox="0 0 200 200" fill="none" xmlns="http://www.w3.org/2000/svg">
<g clip-path="url(#clip0_752_27711)">
<path fill-rule="evenodd" clip-rule="evenodd" d="M96.6489 40.0786C72.5164 41.5624 60.8087 65.3973 46.0572 82.1754C34.101 95.7741 23.0389 109.409 20.7142 126.445C18.0291 146.122 16.4425 168.605 32.3369 182.721C48.2827 196.882 74.0361 195.809 96.6489 193.883C119.863 194.322 138.62 187.342 149.552 172.737C165.068 160.174 178.921 144.922 179.935 126.445C180.989 107.244 169.055 90.1752 154.888 75.4837C139.04 59.05 121.162 38.5713 96.6489 40.0786Z" fill="#FFF3CC"/>
<path d="M107.94 44.8647L107.07 44.8164C102.876 44.5763 98.7456 45.9237 95.4999 48.5907C92.2541 51.2577 90.1313 55.0488 89.5536 59.2099C88.4427 67.2599 89.7307 68.6774 89.5536 73.0002C89.1431 81.968 97.816 88.5002 97.816 88.5002L95.2933 94.952C95.1675 96.3825 95.3256 97.8237 95.7585 99.1929C96.1915 100.562 96.8907 101.832 97.816 102.93C98.7413 104.029 99.8745 104.933 101.151 105.592C102.426 106.251 103.82 106.651 105.251 106.769C108.103 106.998 110.93 106.096 113.123 104.259C115.316 102.422 116.698 99.796 116.972 96.9484L120.192 63.6937C121.496 54.4362 117.23 45.9515 107.94 44.8647Z" fill="#FFBF9D"/>
<path d="M98 88.5007C102.149 88.7417 106.371 87.6491 110 85.6777C110 85.6777 105.881 91.7827 97 90.5007L98 88.5007Z" fill="#FF9A6C"/>
<path d="M104.004 68.3284C103.975 68.7349 104.102 69.1368 104.357 69.447C104.613 69.7572 104.976 69.9508 105.368 69.9858C105.559 70.0133 105.753 70.0008 105.939 69.9492C106.125 69.8975 106.299 69.8078 106.451 69.6852C106.603 69.5627 106.729 69.4099 106.823 69.2358C106.917 69.0617 106.976 68.8698 106.997 68.6716C107.021 68.2663 106.892 67.8672 106.638 67.5581C106.384 67.249 106.023 67.054 105.633 67.0142C105.442 66.9867 105.248 66.9992 105.062 67.0509C104.876 67.1025 104.702 67.1922 104.55 67.3148C104.398 67.4373 104.272 67.5901 104.178 67.7642C104.084 67.9383 104.025 68.1302 104.004 68.3284Z" fill="#263238"/>
<path d="M91.212 63.701C91.3649 63.8781 92.3712 63.21 93.7477 63.2985C95.1243 63.3871 96.0984 64.1035 96.2513 63.9667C96.4043 63.8298 96.1869 63.5883 95.7683 63.2422C95.1958 62.793 94.4986 62.5316 93.7719 62.4935C93.0568 62.4539 92.3472 62.6397 91.7433 63.0248C91.3166 63.3227 91.1556 63.6125 91.212 63.701Z" fill="#263238"/>
<path d="M92.0028 68.3284C91.9789 68.7337 92.1076 69.1328 92.3621 69.4419C92.6165 69.751 92.9767 69.946 93.3671 69.9858C93.5579 70.0133 93.752 70.0008 93.938 69.9491C94.1241 69.8975 94.2982 69.8078 94.4501 69.6852C94.6021 69.5627 94.7287 69.4099 94.8226 69.2358C94.9165 69.0617 94.9756 68.8698 94.9966 68.6716C95.023 68.2657 94.8951 67.8652 94.6402 67.5556C94.3854 67.2459 94.0237 67.0516 93.6323 67.0142C93.4416 66.9867 93.2474 66.9992 93.0614 67.0509C92.8754 67.1025 92.7012 67.1922 92.5493 67.3148C92.3974 67.4373 92.2707 67.5901 92.1769 67.7642C92.083 67.9383 92.0238 68.1302 92.0028 68.3284Z" fill="#263238"/>
<path d="M104.744 64.7316C104.889 64.9087 105.903 64.2486 107.28 64.3291C108.656 64.4096 109.622 65.1341 109.783 64.9973C109.944 64.8604 109.719 64.6189 109.292 64.2728C108.724 63.8278 108.033 63.5691 107.312 63.5322C106.596 63.4864 105.885 63.6727 105.283 64.0635C104.833 64.3613 104.672 64.6511 104.744 64.7316Z" fill="#263238"/>
<path d="M99.1652 74.6567C98.4536 74.3823 97.7095 74.201 96.9514 74.1173C96.5972 74.061 96.2752 73.9724 96.2269 73.7309C96.2149 73.3658 96.3162 73.0059 96.5167 72.7005C96.9031 71.8955 97.3217 71.002 97.7162 70.0843C99.3745 66.3571 100.598 63.29 100.453 63.2256C100.308 63.1612 98.8432 66.1237 97.1688 69.8508C96.7663 70.7685 96.3638 71.646 96.0176 72.4832C95.7753 72.8956 95.6816 73.3786 95.752 73.8517C95.7956 73.9799 95.8685 74.0961 95.9649 74.1911C96.0613 74.2862 96.1786 74.3574 96.3074 74.3991C96.497 74.4654 96.6947 74.506 96.8951 74.5198C97.6438 74.6547 98.4057 74.7006 99.1652 74.6567Z" fill="#263238"/>
<path d="M104.641 60.4005C104.762 60.7788 106.146 60.6822 107.748 60.972C109.35 61.2618 110.63 61.777 110.864 61.447C110.968 61.294 110.759 60.9318 110.26 60.5373C109.583 60.0516 108.804 59.7266 107.982 59.5871C107.161 59.4476 106.318 59.4973 105.518 59.7323C104.915 59.9416 104.593 60.2153 104.641 60.4005Z" fill="#263238"/>
<path d="M91.9137 60.827C92.1311 61.149 93.0971 60.8833 94.2402 60.9316C95.3833 60.9799 96.3332 61.2617 96.5747 60.9316C96.6793 60.7787 96.5747 60.4567 96.148 60.1266C95.6025 59.7358 94.9513 59.5197 94.2804 59.5068C93.608 59.4784 92.9436 59.6614 92.3806 60.03C91.962 60.352 91.8091 60.666 91.9137 60.827Z" fill="#263238"/>
<path d="M90.6564 55.1525C90.6564 55.1525 93.337 49.6784 96.1223 48.5192C99.4872 47.1266 100.687 50.8054 103.858 50.1292C107.03 49.453 110.242 48.1006 113.293 50.6927C116.626 53.5344 114.903 55.2974 114.903 59.2821C114.855 75.4385 117.535 80.1639 118.807 72.629C118.944 71.824 121.295 71.2686 121.834 67.799C122.543 63.2749 123.034 57.7526 122.204 54.4602C121.504 51.6909 120.063 49.7187 117.374 47.4808C113.164 43.9549 107.135 43.5363 103.005 43.7134C98.8754 43.8905 90.6805 48.1006 90.6564 55.1525Z" fill="#263238"/>
<path d="M118.22 72.3236C118.247 71.9929 118.342 71.6713 118.499 71.3788C118.655 71.0864 118.871 70.8295 119.131 70.624C119.392 70.4185 119.692 70.269 120.013 70.1847C120.334 70.1004 120.669 70.0831 120.997 70.134C122.655 70.3916 124.458 71.4462 124.153 74.8916C123.605 81.0016 117.584 79.1903 117.584 79.0132C117.584 78.8361 117.97 74.8835 118.22 72.3236Z" fill="#FFBF9D"/>
<path d="M119.105 76.8303C119.105 76.8303 119.202 76.9188 119.379 77.0154C119.626 77.1475 119.914 77.1793 120.184 77.104C120.844 76.9269 121.48 75.9448 121.609 74.85C121.673 74.3266 121.617 73.7955 121.448 73.2963C121.408 73.1011 121.321 72.9186 121.195 72.7643C121.068 72.6101 120.907 72.4888 120.723 72.4108C120.604 72.3686 120.474 72.3688 120.356 72.4113C120.237 72.4538 120.136 72.5361 120.071 72.6443C119.967 72.8053 119.999 72.934 119.967 72.9421C119.934 72.9501 119.846 72.8294 119.918 72.5798C119.964 72.4305 120.061 72.3022 120.192 72.2176C120.372 72.1045 120.589 72.0669 120.796 72.1129C121.041 72.1861 121.264 72.3205 121.443 72.5036C121.621 72.6868 121.751 72.9125 121.818 73.1595C122.031 73.7126 122.106 74.3096 122.035 74.8983C121.882 76.1299 121.15 77.2247 120.248 77.4018C120.08 77.4353 119.907 77.4302 119.741 77.387C119.575 77.3438 119.421 77.2635 119.29 77.1523C119.105 76.9832 119.081 76.8464 119.105 76.8303Z" fill="#FF9A6C"/>
<path d="M89.3524 48.5191C90.2943 47.8107 91.5903 47.7141 92.5241 46.9977C96.6835 43.8042 103.387 37.7091 109.111 40.8959C111.289 42.1085 114.038 42.2125 115.982 43.6006C116.547 44.0475 117.013 44.608 117.348 45.2458C117.684 45.8835 117.882 46.5845 117.93 47.3036C117.93 47.3036 118.566 46.9816 120.498 48.5111C121.73 49.4851 122.736 51.5862 123.187 53.0835C123.855 55.3294 122.881 57.6962 121.923 59.8294C121.408 60.9806 120.764 62.2444 119.564 62.655C118.107 63.146 116.497 62.0029 115.926 60.57C115.354 59.1371 114.452 57.6962 113.76 56.3196C112.553 53.9046 111.345 51.6989 112.335 50.1694C109.07 49.1089 106.906 51.0056 104.003 52.0289C102.783 52.4594 97.8575 53.276 96.4995 52.9513C96.0607 52.8464 95.6512 52.6439 95.3014 52.359C94.7484 53.2599 93.8762 53.9194 92.8587 54.2059C91.8411 54.4923 90.753 54.3848 89.8112 53.9046C87.9919 52.7776 87.6699 49.791 89.3524 48.5191Z" fill="#263238"/>
<path d="M122.535 58.3875C122.252 58.8294 122.015 59.2987 121.826 59.7882C121.606 60.2826 121.258 60.7102 120.82 61.0279C120.234 61.3278 119.559 61.405 118.92 61.2452C118.256 61.1164 117.629 60.8414 117.085 60.4402C116.646 60.0994 116.246 59.7106 115.893 59.281C115.585 58.8596 115.243 58.4638 114.871 58.0977C115.067 58.5852 115.339 59.0388 115.676 59.442C116.013 59.9161 116.414 60.3413 116.867 60.7059C117.449 61.1447 118.124 61.4424 118.84 61.5753C119.565 61.7551 120.332 61.6484 120.981 61.2774C121.466 60.9224 121.835 60.4324 122.044 59.8687C122.268 59.397 122.433 58.8995 122.535 58.3875Z" fill="#FFD000"/>
<path d="M122.301 63.1146C121.933 63.394 121.526 63.619 121.094 63.7828C120.623 63.9318 120.126 63.9757 119.636 63.9116C119.036 63.8203 118.462 63.6007 117.954 63.2676C117.031 62.6266 116.248 61.805 115.652 60.8526C115.424 60.4394 115.154 60.0509 114.847 59.6934C114.988 60.1539 115.197 60.5907 115.467 60.9894C116.014 62.0378 116.806 62.9383 117.777 63.6137C118.33 63.9795 118.962 64.2085 119.62 64.2819C120.167 64.342 120.72 64.2674 121.23 64.0645C122.051 63.6701 122.341 63.1227 122.301 63.1146Z" fill="#FFD000"/>
<path d="M103.297 79.6289C103.503 79.9662 103.618 80.3164 103.638 80.6697C103.663 80.8368 103.617 81.0047 103.503 81.1618C103.389 81.319 103.211 81.4618 102.98 81.5804C102.74 81.7262 102.441 81.8432 102.104 81.9233C101.766 82.0034 101.398 82.0446 101.027 82.0439C100.356 82.0432 99.7074 81.92 99.1981 81.6964C98.6888 81.4729 98.3518 81.1636 98.2479 80.8242L98.0098 80.0558C99.3991 79.8525 103.194 79.6818 103.297 79.6289Z" fill="#FF9A6C"/>
<path d="M99.0522 81.1252C99.0522 81.1252 99.2472 81.1252 99.5693 81.1411C100.021 81.163 100.482 81.163 100.934 81.1411C101.587 81.1089 102.177 81.0007 102.587 80.8381C103.075 80.6348 103.307 80.3822 103.239 80.1285C103.22 79.9858 103.101 79.8462 102.892 79.7193L103.095 79.7485C101.646 79.8176 100.374 79.8734 99.476 79.9053C98.9928 79.9336 98.5011 79.9452 98.0098 79.9399C98.4676 79.884 98.9459 79.8465 99.4336 79.8282C100.332 79.7751 101.586 79.7033 103.036 79.6289H103.171L103.231 79.6661C103.556 79.8636 103.694 80.086 103.629 80.3073C103.565 80.5286 103.3 80.7395 102.866 80.9152C102.39 81.0951 101.709 81.2096 100.968 81.2341C100.486 81.2474 100.001 81.233 99.5354 81.1916C99.361 81.1806 99.1962 81.1579 99.0522 81.1252Z" fill="#263238"/>
<path d="M139.512 106.576C140.043 106.576 147.627 109.603 149.623 117.041C151.619 124.479 157.069 151.769 157.069 151.769L162.857 159.787C162.857 159.787 160.982 174.414 150.347 171.628C150.347 171.628 143.247 172.868 140.985 165.671C138.723 158.475 134.336 137.005 134.336 137.005L139.512 106.576Z" fill="#B9B8B6"/>
<path d="M117.853 94L121.88 100.196L140 106.752L134.814 160.234V185.5C114.609 196.736 76.4948 195.55 74.5409 195C73.1154 194.959 71.3195 191.408 71.0859 189.425C70.8846 187.645 71.038 185.841 71.5369 184.123L74.5409 173.403C74.0979 180.074 76.063 133.607 76.1516 131.911L71.5 108.5C73.0906 106.405 82.0743 103.291 92.3795 99.5154L95.6009 94.5081L104.879 101.687L117.853 94Z" fill="#B9B8B6"/>
<path d="M72 108C72 108 67.4544 111.654 66.7543 114.468C66.0543 117.281 50.8011 149.692 50.8011 149.692L43.2239 151.697L41.1978 155.82C40.0144 158.185 39.6959 160.877 40.2958 163.444C40.8957 166.012 42.3775 168.298 44.4922 169.92C44.7556 170.116 45.0307 170.297 45.3158 170.462C49.4339 172.887 56.764 172.758 61.055 167.794C65.1154 163.089 77 146.176 77 146.176V125.479L72 108Z" fill="#B9B8B6"/>
<path d="M47.0495 152.59L36.3993 146.303L31.2634 152.59L32.326 155.633L46.0594 165.848C47.7643 164.457 48.9081 162.495 49.2794 160.326C49.8831 156.486 47.0495 152.59 47.0495 152.59Z" fill="#FFBF9D"/>
<path d="M50.4305 149.337C50.4305 149.442 51.3402 149.337 52.6765 149.788C54.4033 150.385 55.9323 151.446 57.0959 152.855C58.2458 154.295 59.1937 155.885 59.9134 157.581C60.1847 158.307 60.5215 159.008 60.9197 159.674C60.8123 158.901 60.5955 158.147 60.2757 157.436C59.6431 155.646 58.7093 153.977 57.5145 152.501C56.2929 151.009 54.6394 149.932 52.7811 149.418C52.0213 149.167 51.2057 149.139 50.4305 149.337Z" fill="#263238"/>
<path d="M36.5764 149.789C36.8418 148.399 36.7467 146.964 36.3 145.621C35.8532 144.277 35.0698 143.071 34.0245 142.117C31.5099 140.049 28.6664 138.416 25.6122 137.287C23.7446 136.482 19.8564 133.206 19.1722 133.995C18.4879 134.784 18.182 135.959 19.1722 137.392C20.1623 138.825 25.7893 140.958 25.0004 142.769C24.6784 143.502 22.9074 143.639 22.9074 143.639C19.6927 143.865 16.4686 143.929 13.2474 143.832C10.3977 143.582 7.83777 144.13 7.99072 145.112C8.14367 146.094 8.67497 146.633 11.0336 146.834C13.3923 147.036 17.2321 146.883 17.4736 147.422C17.7151 147.961 16.8779 148.308 15.5014 148.227C14.1248 148.147 7.63652 148.122 7.19377 148.863C7.0861 149.051 7.02143 149.261 7.00446 149.477C6.98749 149.692 7.01864 149.91 7.09563 150.112C7.17262 150.314 7.29354 150.497 7.44971 150.648C7.60588 150.798 7.79341 150.911 7.99878 150.98L9.52022 151.52C9.52022 151.52 8.63472 152.751 9.37532 153.435C10.1159 154.12 11.7903 153.878 11.7903 153.878L20.3958 153.637C20.3958 153.637 20.8869 154.152 20.6454 154.506C20.4039 154.86 13.6579 154.369 13.6096 155.11C13.5613 155.85 12.9737 156.189 14.9862 156.72C17.9336 157.211 20.9421 157.211 23.8895 156.72C25.7088 156.221 33.3322 155.915 33.3322 155.915L36.5764 149.789Z" fill="#FFBF9D"/>
<path d="M153.535 153.709L163.493 145.449L169.208 151.889L168.508 155.037L156.063 166.758C154.218 165.7 152.826 164.001 152.15 161.984C150.911 158.434 153.535 153.709 153.535 153.709Z" fill="#FFBF9D"/>
<path d="M163.606 149.747C163.178 148.399 163.101 146.964 163.382 145.578C163.664 144.192 164.295 142.9 165.216 141.826C167.481 139.475 170.13 137.526 173.048 136.062C174.803 135.008 178.281 131.337 179.062 132.037C179.525 132.455 179.82 133.026 179.893 133.646C179.965 134.265 179.81 134.889 179.456 135.402C178.651 136.94 174.771 138.727 174.908 140.699C174.922 140.89 174.974 141.076 175.06 141.247C175.146 141.418 175.265 141.57 175.41 141.695C175.555 141.82 175.724 141.915 175.905 141.975C176.087 142.034 176.279 142.058 176.47 142.044C179.682 141.896 182.884 141.587 186.065 141.118C188.875 140.538 191.475 140.78 191.443 141.77C191.411 142.76 190.936 143.38 188.617 143.839C186.299 144.298 182.467 144.644 182.338 145.167C182.209 145.69 183.022 145.972 184.383 145.722C185.743 145.473 192.183 144.708 192.707 145.392C192.836 145.564 192.926 145.763 192.97 145.974C193.013 146.185 193.01 146.403 192.959 146.613C192.908 146.822 192.811 147.018 192.676 147.185C192.54 147.353 192.369 147.488 192.175 147.582L190.726 148.298C190.726 148.298 191.749 149.417 191.097 150.182C190.445 150.947 188.754 150.907 188.754 150.907L180.173 151.663C180.173 151.663 179.746 152.235 180.036 152.557C180.326 152.879 186.951 151.607 187.088 152.34C187.225 153.072 187.852 153.338 185.904 154.062C183.03 154.895 180.038 155.246 177.049 155.101C175.182 154.819 167.566 155.366 167.566 155.366L163.606 149.747Z" fill="#FFBF9D"/>
<path d="M92.4597 101.006C92.9982 101.678 93.5964 102.301 94.2468 102.865C95.3819 103.976 96.9355 105.53 98.5777 107.301C98.9239 107.679 99.27 108.05 99.592 108.412L99.8094 108.645L100.011 108.396C101.283 106.786 102.385 105.305 103.158 104.25C103.612 103.714 103.999 103.125 104.309 102.495C103.775 102.952 103.294 103.468 102.876 104.033C102.031 105.031 100.872 106.448 99.584 108.058H99.9945L98.9883 106.939C97.5736 105.41 96.0796 103.956 94.5125 102.584C93.8949 101.976 93.2056 101.446 92.4597 101.006Z" fill="#263238"/>
<path d="M138.377 120.502C138.229 120.857 138.129 121.231 138.079 121.613C137.926 122.337 137.733 123.392 137.524 124.696C137.105 127.304 136.662 130.927 136.292 134.936C135.922 138.945 135.648 142.583 135.439 145.216C135.358 146.439 135.278 147.478 135.221 148.331C135.171 148.713 135.171 149.1 135.221 149.482C135.336 149.115 135.412 148.738 135.447 148.355C135.559 147.622 135.696 146.56 135.841 145.248C136.147 142.631 136.485 139.001 136.856 134.992C137.226 130.983 137.588 127.369 137.902 124.793C138.055 123.577 138.184 122.539 138.288 121.693C138.372 121.302 138.401 120.901 138.377 120.502Z" fill="#263238"/>
<path d="M75.3936 118.676C75.2787 119.132 75.2112 119.599 75.1924 120.068C75.1038 120.978 75.0072 122.282 74.9267 123.908C74.7416 127.128 74.653 131.636 74.6369 136.579V153.09C74.6111 153.56 74.6299 154.032 74.6933 154.498C74.7976 154.039 74.8489 153.569 74.8462 153.098C74.9106 152.188 74.975 150.876 75.0233 149.258C75.136 146.038 75.1763 141.53 75.1843 136.587C75.1924 131.644 75.2326 127.161 75.3131 123.924C75.3534 122.387 75.3856 121.099 75.4097 120.085C75.4479 119.615 75.4425 119.144 75.3936 118.676Z" fill="#263238"/>
<path d="M146.548 165.123C146.8 164.209 146.985 163.279 147.103 162.338C147.48 160.092 148.208 157.918 149.261 155.898C150.334 153.917 151.948 152.282 153.914 151.181C154.759 150.777 155.633 150.438 156.53 150.166C156.265 150.109 155.99 150.109 155.725 150.166C155.027 150.283 154.35 150.497 153.712 150.802C151.597 151.857 149.864 153.546 148.753 155.632C147.688 157.706 147.012 159.957 146.757 162.274C146.568 163.211 146.497 164.168 146.548 165.123Z" fill="#263238"/>
<path d="M143.964 154.248C144.076 154.377 145.678 152.727 148.286 151.833C150.895 150.94 153.116 151.246 153.165 151.077C153.213 150.908 150.854 150.36 148.109 151.318C145.364 152.276 143.843 154.184 143.964 154.248Z" fill="#263238"/>
<path d="M103.11 191.656C103.159 191.358 103.18 191.057 103.174 190.755C103.174 190.119 103.174 189.258 103.231 188.179C103.279 185.885 103.343 182.657 103.424 178.688C103.609 170.638 103.867 159.585 104.156 147.381C104.446 135.177 104.599 124.076 104.583 116.059C104.583 112.034 104.543 108.814 104.495 106.56C104.495 105.481 104.438 104.62 104.414 103.984C104.421 103.682 104.399 103.38 104.35 103.082C104.327 103.382 104.327 103.684 104.35 103.984C104.35 104.62 104.35 105.481 104.35 106.56C104.35 108.854 104.301 112.09 104.269 116.051C104.189 124.101 103.955 135.137 103.681 147.365C103.408 159.593 103.166 170.662 103.102 178.68C103.102 182.705 103.102 185.925 103.102 188.179C103.102 189.258 103.102 190.119 103.142 190.755C103.111 191.054 103.1 191.356 103.11 191.656Z" fill="#263238"/>
<path d="M154.002 153.37C154.002 153.305 153.197 153.909 152.553 155.246C152.158 156.007 151.871 156.82 151.7 157.661C151.534 158.728 151.534 159.814 151.7 160.881C151.82 161.949 152.137 162.986 152.634 163.94C153.064 164.713 153.657 165.383 154.372 165.904C155.001 166.426 155.793 166.71 156.61 166.709C155.903 166.416 155.233 166.041 154.614 165.59C153.979 165.069 153.456 164.426 153.076 163.698C152.646 162.788 152.373 161.81 152.271 160.808C152.127 159.804 152.127 158.785 152.271 157.781C152.41 156.952 152.645 156.141 152.972 155.366C153.471 154.086 154.083 153.418 154.002 153.37Z" fill="#263238"/>
<path d="M44.0629 166.967C44.0629 166.967 44.3205 166.967 44.7311 166.765C45.3074 166.511 45.8485 166.184 46.3411 165.791C48.0279 164.492 49.1816 162.621 49.5849 160.531C49.9882 158.44 49.6133 156.274 48.5307 154.441C48.2152 153.89 47.8311 153.381 47.3876 152.927C47.0736 152.621 46.8724 152.476 46.8482 152.501C46.8241 152.525 47.4922 153.249 48.1926 154.626C49.129 156.407 49.4312 158.453 49.0493 160.428C48.6674 162.404 47.6242 164.19 46.0915 165.493C44.9404 166.508 44.0227 166.878 44.0629 166.967Z" fill="#263238"/>
<path d="M23.5917 140.41C23.5273 140.475 23.9942 140.917 24.5818 141.698C24.9199 142.145 25.1537 142.662 25.2661 143.212C25.3949 143.831 25.3788 144.556 25.4915 145.353C25.5874 146.037 25.8182 146.695 26.1706 147.29C26.523 147.884 26.9899 148.402 27.5443 148.814C27.9679 149.196 28.5053 149.428 29.0738 149.474C29.114 149.386 28.5183 149.161 27.7858 148.508C26.8427 147.673 26.2218 146.534 26.0308 145.288C25.9778 144.56 25.8865 143.834 25.7572 143.115C25.6031 142.515 25.3046 141.963 24.8877 141.505C24.5496 141.042 24.1051 140.666 23.5917 140.41Z" fill="#FF9A6C"/>
<path d="M178.861 148.879C178.861 149.024 181.541 149.169 184.85 149.008C188.158 148.847 190.815 148.46 190.799 148.307C190.783 148.155 188.118 148.307 184.826 148.46C181.533 148.613 178.861 148.718 178.861 148.879Z" fill="#FF9A6C"/>
<path d="M172.767 148.42C172.767 148.477 173.403 148.372 174.159 147.736C174.65 147.31 175.039 146.781 175.301 146.187C175.563 145.592 175.69 144.948 175.673 144.299C175.615 143.612 175.491 142.933 175.303 142.27C175.162 141.745 175.094 141.203 175.101 140.66C175.148 140.175 175.259 139.699 175.431 139.243C175.431 139.187 174.844 139.613 174.715 140.628C174.65 141.198 174.683 141.775 174.811 142.334C174.963 142.973 175.068 143.621 175.125 144.274C175.143 145.442 174.7 146.569 173.894 147.414C173.274 148.138 172.727 148.34 172.767 148.42Z" fill="#FF9A6C"/>
<path d="M22.0945 150.328C22.0945 150.175 19.2206 150.288 15.7108 150.578C12.201 150.867 9.35932 151.238 9.36737 151.383C9.37542 151.528 12.2412 151.423 15.751 151.125C19.2609 150.827 22.1025 150.473 22.0945 150.328Z" fill="#FF9A6C"/>
<path d="M104.961 101.971C105.283 103.043 105.689 104.087 106.177 105.095C106.394 105.578 106.62 106.101 106.853 106.64C107.084 107.255 107.353 107.854 107.658 108.435C107.774 108.626 107.943 108.78 108.145 108.877C108.346 108.974 108.571 109.011 108.793 108.983C109.183 108.88 109.546 108.693 109.856 108.435L111.756 107.139C114.348 105.352 116.674 103.702 118.349 102.494C119.285 101.882 120.168 101.193 120.989 100.434C119.992 100.936 119.036 101.518 118.131 102.172C116.401 103.307 114.034 104.893 111.442 106.688L109.55 107.993C109.303 108.206 109.016 108.368 108.705 108.468C108.578 108.483 108.449 108.459 108.336 108.401C108.222 108.342 108.129 108.25 108.069 108.137C107.457 107.027 106.95 105.827 106.459 104.917C106.042 103.895 105.542 102.91 104.961 101.971Z" fill="#263238"/>
<path d="M173.652 164.217C172.749 163.988 171.974 163.41 171.497 162.61C171.02 161.81 170.879 160.853 171.106 159.95L177.654 134.174L184.492 135.895L177.944 161.671C177.83 162.121 177.629 162.543 177.352 162.915C177.074 163.287 176.726 163.6 176.327 163.836C175.929 164.073 175.487 164.229 175.028 164.294C174.569 164.359 174.101 164.333 173.652 164.217Z" fill="#455A64"/>
<path d="M177.692 128.843C176.91 127.069 174.672 113.864 175.611 112.171C178.66 111.441 195.014 118.084 196 120.806C194.668 123.3 186.517 132.266 186.517 132.266L177.692 128.843Z" fill="#AE7461"/>
<path d="M183.69 120.241C184.05 118.341 184.662 116.497 185.511 114.76C181.244 113.067 177.019 111.834 175.611 112.171C174.662 113.864 176.91 127.069 177.692 128.843L184.762 131.593C183.359 128.497 182.884 124.461 183.69 120.241Z" fill="#6F4439"/>
<path d="M175.611 112.172C177.474 113.774 188.783 120.1 196 120.806C195.763 118.625 180.67 110.744 175.611 112.172Z" fill="#AE7461"/>
<path d="M180.793 114.859C180.793 114.859 181.016 117.856 181.296 118.482C181.576 119.108 182.102 115.452 182.102 115.452L180.793 114.859Z" fill="#AE7461"/>
<path d="M187.029 131.755L177.455 128.91L176.531 136.046L184.397 138.232L187.029 131.755Z" fill="#E0E0E0"/>
<path d="M33.0829 152.619C33.4694 153.355 33.3741 154.165 32.8743 154.43L10.3535 166.298C9.85112 166.562 9.12889 166.181 8.74134 165.447L1.99494 152.656C1.60846 151.92 1.70004 151.111 2.20242 150.847L24.7243 138.977C25.2267 138.713 25.9463 139.093 26.3328 139.829L33.0829 152.619Z" fill="#455A64"/>
<path d="M11.6749 151.519C11.9417 152.026 12.0523 152.6 11.9927 153.17C11.933 153.739 11.7058 154.279 11.3397 154.719C10.9736 155.159 10.4852 155.482 9.93608 155.644C9.38698 155.807 8.80192 155.804 8.25489 155.634C7.70785 155.464 7.2234 155.136 6.86281 154.691C6.50222 154.246 6.28168 153.704 6.22908 153.134C6.17648 152.564 6.29419 151.991 6.56731 151.487C6.84043 150.984 7.2567 150.573 7.76349 150.306C8.09988 150.128 8.46798 150.019 8.84673 149.984C9.22548 149.949 9.60742 149.989 9.97073 150.101C10.334 150.214 10.6715 150.397 10.964 150.64C11.2564 150.884 11.498 151.182 11.6749 151.519Z" fill="#FF725E"/>
<path d="M18.507 147.92C18.7731 148.427 18.8829 149.001 18.8226 149.571C18.7623 150.14 18.5345 150.679 18.168 151.119C17.8016 151.559 17.3129 151.88 16.7638 152.043C16.2148 152.205 15.6299 152.201 15.0831 152.031C14.5363 151.861 14.0522 151.532 13.692 151.087C13.3318 150.642 13.1116 150.1 13.0592 149.53C13.0069 148.96 13.1248 148.387 13.398 147.884C13.6712 147.381 14.0874 146.97 14.5941 146.703C14.9309 146.526 15.2993 146.417 15.6782 146.382C16.0572 146.347 16.4393 146.387 16.8027 146.5C17.1661 146.613 17.5037 146.797 17.7961 147.04C18.0886 147.284 18.3301 147.583 18.507 147.92Z" fill="#FF9A6C"/>
<path d="M25.3362 144.32C25.6031 144.826 25.7137 145.401 25.6541 145.971C25.5944 146.54 25.3672 147.079 25.0011 147.52C24.635 147.96 24.1466 148.282 23.5975 148.445C23.0484 148.608 22.4633 148.604 21.9163 148.435C21.3692 148.265 20.8848 147.937 20.5242 147.492C20.1636 147.047 19.9431 146.505 19.8905 145.935C19.8379 145.365 19.9556 144.791 20.2287 144.288C20.5018 143.785 20.9181 143.373 21.4249 143.107C21.7613 142.929 22.1294 142.82 22.5081 142.785C22.8869 142.749 23.2688 142.789 23.6321 142.902C23.9954 143.015 24.3329 143.198 24.6253 143.441C24.9178 143.684 25.1593 143.983 25.3362 144.32Z" fill="#FFBF9D"/>
<path d="M15.1484 158.111C15.4143 158.618 15.5238 159.193 15.4631 159.762C15.4023 160.332 15.174 160.871 14.8071 161.31C14.4401 161.75 13.951 162.071 13.4015 162.233C12.852 162.395 12.2669 162.39 11.7202 162.219C11.1735 162.048 10.6897 161.719 10.33 161.274C9.9703 160.828 9.75089 160.285 9.69951 159.715C9.64814 159.144 9.76709 158.572 10.0413 158.069C10.3156 157.566 10.7328 157.156 11.2402 156.89C11.5769 156.713 11.9451 156.604 12.324 156.569C12.7028 156.535 13.0847 156.575 13.4478 156.689C13.8108 156.802 14.148 156.986 14.4398 157.23C14.7316 157.474 14.9724 157.773 15.1484 158.111Z" fill="#263238"/>
<path d="M21.9804 154.512C22.2475 155.019 22.3585 155.593 22.2992 156.163C22.2399 156.733 22.013 157.272 21.6473 157.713C21.2815 158.153 20.7933 158.476 20.2443 158.639C19.6953 158.802 19.1103 158.799 18.5631 158.63C18.016 158.46 17.5313 158.133 17.1704 157.688C16.8096 157.243 16.5886 156.701 16.5356 156.131C16.4826 155.561 16.5999 154.988 16.8727 154.484C17.1454 153.981 17.5614 153.569 18.0679 153.302C18.4043 153.124 18.7723 153.015 19.151 152.98C19.5296 152.945 19.9115 152.984 20.2748 153.097C20.6381 153.209 20.9758 153.392 21.2684 153.635C21.561 153.878 21.803 154.176 21.9804 154.512Z" fill="#E0E0E0"/>
<path d="M28.8098 150.912C29.0769 151.418 29.1879 151.993 29.1286 152.562C29.0693 153.132 28.8424 153.671 28.4767 154.112C28.1109 154.553 27.6226 154.875 27.0737 155.038C26.5247 155.202 25.9397 155.198 25.3925 155.029C24.8454 154.86 24.3607 154.532 23.9998 154.087C23.6389 153.643 23.418 153.101 23.365 152.531C23.312 151.96 23.4293 151.387 23.702 150.884C23.9748 150.38 24.3908 149.969 24.8973 149.701C25.2336 149.524 25.6017 149.414 25.9804 149.378C26.3592 149.343 26.7412 149.383 27.1046 149.495C27.468 149.608 27.8057 149.791 28.0983 150.034C28.3909 150.277 28.6326 150.575 28.8098 150.912Z" fill="#FAFAFA"/>
<path opacity="0.3" d="M9.78025 155.141C10.2385 154.901 10.6238 154.542 10.8961 154.102C11.1684 153.663 11.3175 153.158 11.3281 152.64C11.3386 152.123 11.2101 151.612 10.956 151.162C10.7019 150.711 10.3315 150.337 9.88342 150.078C10.2799 150.188 10.6485 150.38 10.9648 150.643C11.281 150.906 11.5375 151.233 11.7173 151.603C11.897 151.973 11.9959 152.377 12.0072 152.788C12.0185 153.199 11.942 153.608 11.7829 153.987C11.6237 154.366 11.3856 154.707 11.0843 154.987C10.783 155.267 10.4255 155.479 10.0356 155.61C9.64572 155.741 9.23243 155.787 8.82329 155.746C8.41415 155.704 8.01856 155.576 7.66289 155.369C8.37188 155.567 9.12967 155.485 9.78025 155.141Z" fill="black"/>
<path opacity="0.2" d="M9.89018 150.725C10.1526 151.224 9.66956 151.992 8.81315 152.442C7.95674 152.891 7.05094 152.857 6.78744 152.361C6.52393 151.864 7.00806 151.093 7.86447 150.644C8.72087 150.195 9.62667 150.229 9.89018 150.725Z" fill="white"/>
<path opacity="0.3" d="M16.6112 151.547C17.0688 151.306 17.4535 150.946 17.7251 150.506C17.9967 150.066 18.1454 149.561 18.1557 149.044C18.166 148.527 18.0374 148.017 17.7835 147.566C17.5295 147.116 17.1595 146.742 16.7118 146.483C17.1083 146.592 17.4769 146.784 17.7931 147.047C18.1094 147.31 18.3659 147.637 18.5457 148.007C18.7254 148.377 18.8242 148.781 18.8355 149.192C18.8468 149.603 18.7704 150.012 18.6112 150.391C18.4521 150.771 18.2139 151.111 17.9127 151.391C17.6114 151.671 17.2538 151.884 16.864 152.014C16.4741 152.145 16.0608 152.192 15.6517 152.15C15.2425 152.109 14.8469 151.98 14.4913 151.774C15.2011 151.97 15.959 151.889 16.6112 151.547Z" fill="black"/>
<path opacity="0.2" d="M16.721 147.128C16.9819 147.623 16.5014 148.392 15.6439 148.844C14.7864 149.296 13.8791 149.258 13.6193 148.76C13.3595 148.263 13.8399 147.493 14.6963 147.044C15.5527 146.595 16.4585 146.629 16.721 147.128Z" fill="white"/>
<path opacity="0.3" d="M23.4475 147.937C23.9058 147.697 24.2912 147.338 24.5634 146.897C24.8356 146.457 24.9847 145.952 24.9949 145.435C25.0052 144.917 24.8764 144.407 24.6218 143.956C24.3673 143.505 23.9965 143.131 23.548 142.873C23.9446 142.982 24.3133 143.174 24.6297 143.437C24.946 143.7 25.2027 144.027 25.3827 144.397C25.5626 144.766 25.6616 145.17 25.6731 145.581C25.6847 145.993 25.6084 146.401 25.4494 146.781C25.2905 147.16 25.0525 147.501 24.7513 147.781C24.4502 148.061 24.0928 148.274 23.7029 148.405C23.3131 148.536 22.8999 148.582 22.4907 148.541C22.0815 148.499 21.6859 148.371 21.3301 148.165C22.0391 148.363 22.7969 148.281 23.4475 147.937Z" fill="black"/>
<path opacity="0.2" d="M23.5504 143.528C23.814 144.024 23.3309 144.793 22.4734 145.245C21.6159 145.696 20.7112 145.66 20.4477 145.163C20.1842 144.667 20.6683 143.896 21.5258 143.444C22.3833 142.992 23.288 143.029 23.5504 143.528Z" fill="white"/>
<path opacity="0.3" d="M13.2554 161.738C13.7129 161.496 14.0975 161.137 14.3691 160.697C14.6407 160.257 14.7894 159.752 14.7998 159.234C14.8101 158.717 14.6818 158.207 14.4281 157.756C14.1744 157.305 13.8045 156.931 13.357 156.671C13.7522 156.782 14.1193 156.975 14.4341 157.238C14.7488 157.501 15.004 157.829 15.1826 158.198C15.3612 158.567 15.4592 158.97 15.4701 159.381C15.481 159.791 15.4045 160.199 15.2458 160.577C15.087 160.955 14.8496 161.295 14.5492 161.575C14.2489 161.855 13.8925 162.067 13.5038 162.198C13.115 162.33 12.7028 162.377 12.2945 162.336C11.8862 162.296 11.4911 162.17 11.1354 161.965C11.8453 162.161 12.6032 162.08 13.2554 161.738Z" fill="black"/>
<path opacity="0.2" d="M13.3625 157.319C13.626 157.815 13.143 158.583 12.2881 159.036C11.4332 159.489 10.5233 159.45 10.2608 158.951C9.99841 158.453 10.4815 157.684 11.3379 157.235C12.1943 156.786 13.1027 156.821 13.3625 157.319Z" fill="white"/>
<path opacity="0.3" d="M20.0849 158.136C20.5425 157.896 20.9271 157.536 21.1987 157.096C21.4704 156.656 21.6191 156.151 21.6293 155.634C21.6396 155.117 21.5111 154.607 21.2571 154.156C21.0032 153.706 20.6331 153.331 20.1854 153.073C20.5819 153.182 20.9505 153.374 21.2668 153.637C21.583 153.9 21.8395 154.227 22.0193 154.597C22.199 154.967 22.2979 155.371 22.3092 155.782C22.3205 156.193 22.244 156.602 22.0849 156.981C21.9257 157.36 21.6876 157.701 21.3863 157.981C21.085 158.261 20.7275 158.474 20.3376 158.604C19.9477 158.735 19.5344 158.781 19.1253 158.74C18.7162 158.698 18.3206 158.57 17.9649 158.364C18.6746 158.562 19.4334 158.481 20.0849 158.136Z" fill="black"/>
<path opacity="0.2" d="M20.1919 153.717C20.4543 154.216 19.9724 154.982 19.1175 155.435C18.2626 155.888 17.3553 155.85 17.0929 155.351C16.8304 154.853 17.3124 154.087 18.1699 153.635C19.0274 153.183 19.9321 153.22 20.1919 153.717Z" fill="white"/>
<path opacity="0.3" d="M26.9088 154.549C27.3678 154.309 27.7539 153.95 28.0267 153.51C28.2994 153.069 28.4488 152.564 28.4592 152.046C28.4696 151.528 28.3406 151.017 28.0857 150.566C27.8308 150.115 27.4595 149.741 27.0104 149.482C27.407 149.591 27.7757 149.784 28.0921 150.046C28.4084 150.309 28.6651 150.636 28.8451 151.006C29.025 151.376 29.124 151.78 29.1355 152.191C29.1471 152.602 29.0708 153.011 28.9118 153.39C28.7529 153.769 28.5149 154.11 28.2137 154.39C27.9126 154.67 27.5552 154.883 27.1653 155.014C26.7755 155.145 26.3623 155.191 25.9531 155.15C25.5439 155.109 25.1483 154.981 24.7925 154.774C25.5009 154.972 26.2581 154.892 26.9088 154.549Z" fill="black"/>
<path d="M27.0238 150.119C27.2862 150.618 26.8032 151.386 25.9457 151.838C25.0882 152.29 24.1846 152.251 23.921 151.755C23.6575 151.258 24.1417 150.487 24.9981 150.038C25.8545 149.589 26.7661 149.616 27.0238 150.119Z" fill="white"/>
<path d="M25.3036 137.854L24.1846 135.73L-0.156967 148.557L0.962093 150.681L25.3036 137.854Z" fill="#455A64"/>
<path d="M7.16385 148.239L6.82275 147.592L4.4725 148.83L4.8136 149.478L7.16385 148.239Z" fill="#263238"/>
<path d="M22.1311 140.354L21.79 139.707L19.4398 140.945L19.7809 141.593L22.1311 140.354Z" fill="#263238"/>
<mask id="mask0_752_27711" style="mask-type:alpha" maskUnits="userSpaceOnUse" x="19" y="40" width="161" height="156">
<path fill-rule="evenodd" clip-rule="evenodd" d="M96.6489 40.0791C72.5164 41.5725 60.8087 65.5612 46.0572 82.4475C34.101 96.1339 23.0389 109.856 20.7142 127.003C18.0291 146.807 16.4425 169.434 32.3369 183.641C48.2827 197.894 74.0361 196.814 96.6489 194.876C119.863 195.318 138.62 188.293 149.552 173.594C165.068 160.949 178.921 145.599 179.935 127.003C180.989 107.678 169.055 90.499 154.888 75.7126C139.04 59.1729 121.162 38.5621 96.6489 40.0791Z" fill="#FFF3CC"/>
</mask>
<g mask="url(#mask0_752_27711)">
<path d="M52.9209 129.054C54.3744 128.691 60.4391 130.257 62.204 130.56C75.5446 132.861 88.0807 141.677 88.0807 141.677C89.1448 145.423 87.8125 157.423 87.2674 161.255L78.365 190.921L81.4796 209.34H31.794C35.8602 202.601 39.364 190.895 39.1218 183.031C35.9369 176.376 34.4252 169.043 34.7182 161.671L34.1558 155.095C34.1558 155.095 33.8184 145.916 35.6871 138.658C37.0195 133.51 45.2038 132.074 50.9138 131.434" fill="#FFD000"/>
<path d="M36.5177 136.84L8.26185 211.999L26.0061 192.08L48.0242 163.357L36.5177 136.84Z" fill="#FFD000"/>
<path d="M39.1479 182.019C39.2344 181.976 38.3606 180.713 37.4176 178.472C36.8527 177.157 36.3899 175.8 36.0333 174.414C35.1704 171.024 34.9736 167.498 35.4537 164.032C35.6481 162.615 35.9547 161.214 36.3707 159.845C37.0975 157.509 37.8155 156.16 37.729 156.125C37.5169 156.411 37.3398 156.722 37.2013 157.051C36.9996 157.42 36.8205 157.802 36.6649 158.193C36.4832 158.651 36.2496 159.162 36.0679 159.75C35.5996 161.124 35.255 162.537 35.0384 163.972C34.7887 165.734 34.7048 167.515 34.7875 169.293C34.9078 171.067 35.1975 172.825 35.6527 174.544C36.0288 175.947 36.5297 177.314 37.1494 178.628C37.3782 179.133 37.6323 179.627 37.9107 180.107C38.1054 180.479 38.325 180.837 38.5682 181.18C38.7323 181.479 38.9266 181.76 39.1479 182.019Z" fill="#263238"/>
<path d="M73 135C73 135 89.6365 140.604 92.0389 146.369C94.4414 152.135 96 200 96 200L77.3055 199.524L75.9364 171.658L73 135Z" fill="#FFD000"/>
</g>
<path d="M79.5331 123.5C84.5651 117.184 89.6026 106.928 89.8362 98.8562C90.0698 90.7844 86.7389 82.1156 79.9907 77.6427C76.4436 75.2809 71.8151 75.6183 71.8151 75.6183C71.8929 75.7826 65.2832 69.9688 61.9696 68.8095C58.51 67.6855 54.7763 67.7332 51.3465 68.9453C47.9167 70.1574 44.9821 72.4662 42.9969 75.5145C40.0554 80.2901 39.8131 86.2769 40.6004 91.8312C41.3877 97.3855 43.1007 102.784 43.7669 108.347C44.433 113.91 43.9313 119.923 40.6956 124.508C37.5724 128.938 32.3296 131.429 28.9382 135.677C24.6124 141.032 23.9117 148.81 26.5331 155.152C29.1545 161.493 72.8342 170.5 73.9999 166" fill="#263238"/>
<path d="M79.5331 123.5C84.5651 117.184 89.6026 106.928 89.8362 98.8562C90.0698 90.7844 86.7389 82.1156 79.9907 77.6427C76.4436 75.2809 71.8151 75.6183 71.8151 75.6183C71.8929 75.7826 65.2832 69.9688 61.9696 68.8095C58.51 67.6855 54.7763 67.7332 51.3465 68.9453C47.9167 70.1574 44.9821 72.4662 42.9969 75.5145C40.0554 80.2901 39.8131 86.2769 40.6004 91.8312C41.3877 97.3855 43.1007 102.784 43.7669 108.347C44.433 113.91 43.9313 119.923 40.6956 124.508C37.5724 128.938 32.3296 131.429 28.9382 135.677C24.6124 141.032 23.9117 148.81 26.5331 155.152C29.1545 161.493 72.8342 170.5 73.9999 166C99.4998 139 66.2632 132.757 79.5331 123.5Z" fill="#263238"/>
<path d="M53.5794 97.2438C53.4323 97.0881 52.5066 97.7715 51.1916 97.7715C49.8765 97.7715 48.9076 97.1054 48.7691 97.2697C48.6307 97.4341 48.847 97.6244 49.2709 97.9359C49.8409 98.3279 50.5171 98.5362 51.2089 98.5328C51.892 98.5325 52.5577 98.3176 53.1122 97.9186C53.5188 97.5898 53.6572 97.313 53.5794 97.2438Z" fill="#263238"/>
<path d="M66.453 97.9003C66.2973 97.7359 65.3716 98.428 64.0566 98.4194C62.7415 98.4107 61.7812 97.7618 61.6341 97.9176C61.4871 98.0733 61.7207 98.2809 62.1359 98.5837C62.7055 98.9831 63.3869 99.1921 64.0825 99.1807C64.7665 99.1857 65.4339 98.9703 65.9858 98.5664C66.3925 98.255 66.5223 97.9695 66.453 97.9003Z" fill="#263238"/>
<path d="M57.5332 105.626C56.8391 105.413 56.1214 105.285 55.3962 105.246C55.0588 105.246 54.7387 105.142 54.6868 104.917C54.6549 104.567 54.7336 104.216 54.9118 103.913L55.898 101.361C57.2823 97.7187 58.2772 94.7167 58.1301 94.6647C57.983 94.6128 56.7459 97.5198 55.3703 101.162C55.0329 102.027 54.7214 102.892 54.4186 103.757C54.2059 104.161 54.1445 104.628 54.2456 105.073C54.2947 105.19 54.3689 105.295 54.4631 105.38C54.5573 105.465 54.6692 105.529 54.7906 105.566C54.9764 105.618 55.1686 105.644 55.3616 105.644C56.0832 105.731 56.8131 105.725 57.5332 105.626Z" fill="#263238"/>
<path d="M61.4002 106.543C61.1926 106.543 61.1839 107.953 59.9641 108.974C58.7442 109.995 57.2215 109.839 57.2129 110.03C57.2042 110.22 57.5503 110.307 58.1905 110.324C59.0281 110.333 59.8424 110.048 60.4918 109.519C61.1103 109.009 61.5097 108.282 61.6079 107.486C61.6598 106.889 61.504 106.534 61.4002 106.543Z" fill="#263238"/>
<path d="M61.7205 93.567C61.8503 93.9217 63.1653 93.7573 64.7139 93.939C66.2626 94.1207 67.5084 94.5446 67.7073 94.2245C67.8025 94.0775 67.5862 93.74 67.0844 93.3594C66.4153 92.9277 65.6533 92.6608 64.861 92.5807C64.0686 92.4822 63.2641 92.5772 62.5164 92.8576C61.9454 93.1171 61.6599 93.394 61.7205 93.567Z" fill="#263238"/>
<path d="M49.8591 91.8184C50.0841 92.1126 50.9925 91.8184 52.0826 91.8184C53.1727 91.8184 54.0984 92.0174 54.306 91.706C54.4012 91.5502 54.2541 91.2561 53.8561 90.9706C53.3161 90.6222 52.6814 90.4499 52.0393 90.4775C51.3994 90.489 50.7791 90.7008 50.2658 91.0831C49.8764 91.3599 49.7553 91.6714 49.8591 91.8184Z" fill="#263238"/>
<path d="M80.2087 111.138C74.3084 102.59 68.2524 92.8226 69.2127 82.4927C69.2127 82.4927 52.9651 81.0652 46.9696 93.013C46.9696 93.013 42.3497 73.1145 55.6211 74.4641C68.8926 75.8138 81.5757 84.3787 81.5757 84.3787L80.2087 111.138Z" fill="#263238"/>
<path d="M33.5768 116.683H33.3692C33.1702 116.686 32.9723 116.715 32.7809 116.77C32.029 116.974 31.364 117.418 30.8862 118.033C30.4986 118.515 30.2103 119.069 30.0381 119.663C29.8658 120.257 29.813 120.879 29.8826 121.494C30.0285 122.303 30.3783 123.063 30.899 123.7C31.4197 124.337 32.0942 124.831 32.8588 125.136C33.7305 125.52 34.6747 125.712 35.6272 125.698C36.6566 125.673 37.6674 125.419 38.5861 124.954C40.5896 123.888 42.2151 122.229 43.2406 120.205C44.4099 118.021 45.1222 115.622 45.3342 113.154C45.5729 110.522 45.4799 107.871 45.0574 105.263C44.1922 99.8994 42.6869 94.9854 42.0726 90.3654C41.4584 85.7455 41.6833 81.489 42.9378 78.2101C43.4807 76.7324 44.3064 75.3748 45.3688 74.2131C46.1812 73.3441 47.1276 72.611 48.1719 72.0415L49.3485 71.4965C49.6946 71.3408 50.0147 71.2716 50.2569 71.1764L50.8106 70.9861C50.8763 70.9658 50.9399 70.9397 51.001 70.9082C51.001 70.9082 50.9318 70.9082 50.802 70.9082L50.231 71.0553C49.9174 71.1332 49.6083 71.2286 49.3053 71.3408L48.0854 71.8512C47.0073 72.4089 46.0258 73.1362 45.1785 74.0054C44.0786 75.181 43.2177 76.559 42.6436 78.063C41.3286 81.3938 41.0431 85.7542 41.6746 90.3914C42.3062 95.0286 43.8116 99.9859 44.6248 105.289C45.0384 107.863 45.1314 110.479 44.9017 113.076C44.7039 115.495 44.0182 117.85 42.8859 119.997C41.9051 121.952 40.3505 123.561 38.4303 124.608C37.5983 125.047 36.6789 125.295 35.7391 125.333C34.7993 125.372 33.8627 125.201 32.9972 124.833C32.3469 124.619 31.7585 124.25 31.2823 123.758C30.8061 123.266 30.4564 122.666 30.2633 122.009C30.0701 121.352 30.0393 120.658 30.1734 119.987C30.3076 119.315 30.6026 118.686 31.0333 118.154C31.4758 117.546 32.0998 117.095 32.8155 116.865C33.2913 116.692 33.5768 116.718 33.5768 116.683Z" fill="#263238"/>
<path d="M77.5179 126.607C77.7017 126.605 77.8847 126.582 78.0629 126.537C78.5747 126.463 79.0806 126.354 79.5769 126.209C81.4435 125.694 83.202 124.847 84.7679 123.708C87.0731 122.024 89.0004 119.875 90.4259 117.401C92.2019 114.378 93.2366 110.978 93.4453 107.478C93.5823 103.989 93.0478 100.505 91.8708 97.2174C90.9253 94.5385 89.6464 91.9893 88.0641 89.63C87.0236 88.0413 85.8669 86.5318 84.6035 85.1139C84.1622 84.6035 83.7383 84.2487 83.5307 83.9892C83.4091 83.8538 83.276 83.7294 83.1327 83.6172C83.1327 83.6172 83.2365 83.7816 83.4615 84.0498C83.6864 84.318 84.0498 84.6986 84.465 85.2264C85.6899 86.6764 86.8143 88.2084 87.8305 89.8117C89.3587 92.1686 90.5962 94.7017 91.516 97.3558C92.6551 100.598 93.1659 104.027 93.0214 107.461C92.9147 109.222 92.5981 110.965 92.0784 112.652C91.5846 114.226 90.9233 115.743 90.1058 117.176C88.719 119.613 86.8497 121.742 84.6121 123.431C83.1013 124.569 81.4112 125.446 79.6115 126.027C78.2533 126.434 77.5092 126.555 77.5179 126.607Z" fill="#263238"/>
<path d="M43.3012 82.4917C43.3618 82.4917 43.3012 82.0159 43.5002 81.1854C43.7616 80.0206 44.2919 78.9333 45.0488 78.0103C46.1773 76.6506 47.6417 75.6097 49.2967 74.9909C51.3506 74.29 53.5389 74.0739 55.6902 74.3593C57.8558 74.6319 59.9927 75.098 62.075 75.7522C64.0043 76.3232 65.7346 76.9115 67.1621 77.4306C68.5896 77.9497 69.7576 78.4082 70.5448 78.7197C70.9515 78.9024 71.3707 79.0557 71.7993 79.1782C71.4231 78.9365 71.0265 78.7281 70.6141 78.5553C69.8441 78.1919 68.7021 77.6902 67.2746 77.1278C65.8471 76.5655 64.1341 75.9512 62.1875 75.3975C60.087 74.7118 57.9259 74.228 55.7335 73.9527C53.515 73.6617 51.2591 73.8988 49.1497 74.6448C47.4437 75.3076 45.9489 76.4197 44.8239 77.8632C44.0603 78.8315 43.5543 79.9774 43.3532 81.194C43.2997 81.5228 43.2794 81.8561 43.2926 82.1889C43.2837 82.2899 43.2866 82.3915 43.3012 82.4917Z" fill="#455A64"/>
<path d="M43.9848 99.9508C43.9645 99.415 43.9154 98.8808 43.8377 98.3503C43.6826 96.9139 43.6219 95.4689 43.656 94.0245C43.696 91.8745 44.1544 89.7529 45.0056 87.7781C45.529 86.6311 46.2427 85.581 47.1166 84.6723C48.0724 83.7132 49.184 82.9233 50.4042 82.3363C52.8013 81.2379 55.378 80.5842 58.0089 80.407C60.4399 80.1994 62.6461 80.1908 64.5061 80.1042C65.9716 80.0472 67.4329 79.9115 68.8838 79.6976C69.4029 79.6111 69.7922 79.5332 70.0604 79.4727C70.2004 79.4491 70.337 79.4085 70.467 79.3516C70.467 79.3516 69.8874 79.4121 68.8665 79.5246C67.8456 79.6371 66.3403 79.7409 64.5408 79.7841C62.7412 79.8274 60.4745 79.7841 58.0175 79.9918C55.3243 80.1489 52.6838 80.806 50.2312 81.9297C48.9673 82.5437 47.8175 83.3688 46.8311 84.3694C45.9245 85.3134 45.1896 86.4084 44.6596 87.6051C43.8001 89.6327 43.3615 91.8137 43.3705 94.0159C43.3579 95.4871 43.4649 96.957 43.6906 98.4108C43.7685 98.9299 43.8377 99.276 43.8982 99.5875C43.9122 99.7116 43.9413 99.8336 43.9848 99.9508Z" fill="#455A64"/>
<path d="M77.4748 127.342C77.2014 124.554 77.9653 121.764 79.6204 119.504C80.3038 118.422 81.1517 117.298 82.0774 116.095C83.0876 114.825 84.018 113.493 84.8632 112.107C85.8032 110.547 86.4073 108.809 86.6367 107.002C86.7444 106.036 86.6829 105.058 86.4551 104.113C86.1865 103.152 85.7659 102.241 85.2092 101.414C84.6631 100.621 84.251 99.7442 83.9894 98.8181C83.8036 97.9136 83.7425 96.9879 83.8077 96.0669C83.9621 94.2714 83.9244 92.4645 83.6952 90.677C83.3652 87.5979 81.9407 84.7397 79.6809 82.6224C78.1287 81.2453 76.1626 80.4236 74.0921 80.2865C73.5308 80.246 72.9667 80.278 72.4137 80.3817C72.2211 80.4129 72.0325 80.4651 71.8513 80.5374C72.5878 80.4347 73.3329 80.4086 74.0747 80.4596C76.0908 80.6736 77.9841 81.5322 79.4733 82.9079C81.6372 85.0002 82.9865 87.7938 83.28 90.7895C83.5006 92.5489 83.5296 94.3271 83.3665 96.0928C83.2972 97.0573 83.3613 98.0268 83.5568 98.9738C83.8282 99.9336 84.2548 100.843 84.8199 101.664C85.3582 102.459 85.7643 103.336 86.0225 104.26C86.2347 105.155 86.2932 106.079 86.1955 106.994C85.9802 108.742 85.4059 110.427 84.5085 111.942C82.7782 114.858 80.6759 117.133 79.3176 119.383C78.2083 121.106 77.5152 123.064 77.2931 125.101C77.2562 125.658 77.2736 126.218 77.345 126.771C77.3666 126.966 77.4101 127.157 77.4748 127.342Z" fill="#455A64"/>
</g>
<defs>
<clipPath id="clip0_752_27711">
<rect width="200" height="200" fill="white"/>
</clipPath>
</defs>
</svg>
