<svg width="200" height="200" viewBox="0 0 200 200" fill="none" xmlns="http://www.w3.org/2000/svg">
<g clip-path="url(#clip0_752_25719)">
<path fill-rule="evenodd" clip-rule="evenodd" d="M95.3511 40.0786C119.484 41.5624 131.191 65.3973 145.943 82.1754C157.899 95.7741 168.961 109.409 171.286 126.445C173.971 146.122 175.558 168.605 159.663 182.721C143.717 196.882 117.964 195.809 95.3511 193.883C72.1366 194.322 53.3796 187.342 42.4481 172.737C26.9316 160.174 13.0786 144.922 12.0648 126.445C11.0113 107.244 22.9446 90.1752 37.1121 75.4837C52.9597 59.05 70.8381 38.5713 95.3511 40.0786Z" fill="#FFF3CC"/>
<path d="M92.0601 44.8647L92.9295 44.8164C97.1236 44.5763 101.254 45.9237 104.5 48.5907C107.746 51.2577 109.869 55.0488 110.446 59.2099C111.557 67.2599 108.823 69.6774 109 74.0002C109.411 82.968 102.184 88.5002 102.184 88.5002L104.707 94.952C104.833 96.3825 104.674 97.8237 104.241 99.1929C103.809 100.562 103.109 101.832 102.184 102.93C101.259 104.029 100.125 104.933 98.8495 105.592C97.5735 106.251 96.1799 106.651 94.7488 106.769C91.8972 106.998 89.07 106.096 86.8772 104.259C84.6845 102.422 83.302 99.796 83.028 96.9484L79.808 63.6937C78.5039 54.4362 82.7704 45.9515 92.0601 44.8647Z" fill="#FFBF9D"/>
<path d="M102 88.5007C97.8507 88.7417 93.6289 87.6491 90 85.6777C90 85.6777 94.1185 91.7827 103 90.5007L102 88.5007Z" fill="#FF9A6C"/>
<path d="M95.996 68.3284C96.0248 68.7349 95.8978 69.1368 95.6425 69.447C95.3872 69.7572 95.0242 69.9508 94.632 69.9858C94.4413 70.0133 94.2472 70.0008 94.0612 69.9492C93.8752 69.8975 93.7011 69.8078 93.5492 69.6852C93.3973 69.5627 93.2706 69.4099 93.1768 69.2358C93.083 69.0617 93.0238 68.8698 93.0028 68.6716C92.9789 68.2663 93.1076 67.8672 93.362 67.5581C93.6163 67.249 93.9765 67.054 94.3668 67.0142C94.5575 66.9867 94.7516 66.9992 94.9376 67.0509C95.1236 67.1025 95.2977 67.1922 95.4496 67.3148C95.6015 67.4373 95.7282 67.5901 95.822 67.7642C95.9158 67.9383 95.975 68.1302 95.996 68.3284Z" fill="#263238"/>
<path d="M108.788 63.701C108.635 63.8781 107.629 63.21 106.252 63.2985C104.876 63.3871 103.902 64.1035 103.749 63.9667C103.596 63.8298 103.813 63.5883 104.232 63.2422C104.804 62.793 105.501 62.5316 106.228 62.4935C106.943 62.4539 107.653 62.6397 108.257 63.0248C108.683 63.3227 108.844 63.6125 108.788 63.701Z" fill="#263238"/>
<path d="M107.997 68.3284C108.021 68.7337 107.892 69.1328 107.638 69.4419C107.384 69.751 107.023 69.946 106.633 69.9858C106.442 70.0133 106.248 70.0008 106.062 69.9491C105.876 69.8975 105.702 69.8078 105.55 69.6852C105.398 69.5627 105.271 69.4099 105.177 69.2358C105.084 69.0617 105.024 68.8698 105.003 68.6716C104.977 68.2657 105.105 67.8652 105.36 67.5556C105.615 67.2459 105.976 67.0516 106.368 67.0142C106.558 66.9867 106.753 66.9992 106.939 67.0509C107.125 67.1025 107.299 67.1922 107.451 67.3148C107.603 67.4373 107.729 67.5901 107.823 67.7642C107.917 67.9383 107.976 68.1302 107.997 68.3284Z" fill="#263238"/>
<path d="M95.256 64.7316C95.1111 64.9087 94.0968 64.2486 92.7202 64.3291C91.3437 64.4096 90.3777 65.1341 90.2167 64.9973C90.0557 64.8604 90.2811 64.6189 90.7077 64.2728C91.2758 63.8278 91.9674 63.5691 92.688 63.5322C93.4038 63.4864 94.1152 63.6727 94.7166 64.0635C95.1674 64.3613 95.3284 64.6511 95.256 64.7316Z" fill="#263238"/>
<path d="M100.835 74.6567C101.546 74.3823 102.29 74.201 103.049 74.1173C103.403 74.061 103.725 73.9724 103.773 73.7309C103.785 73.3658 103.684 73.0059 103.483 72.7005C103.097 71.8955 102.678 71.002 102.284 70.0843C100.626 66.3571 99.4019 63.29 99.5468 63.2256C99.6917 63.1612 101.157 66.1237 102.831 69.8508C103.234 70.7685 103.636 71.646 103.982 72.4832C104.225 72.8956 104.318 73.3786 104.248 73.8517C104.204 73.9799 104.132 74.0961 104.035 74.1911C103.939 74.2862 103.821 74.3574 103.693 74.3991C103.503 74.4654 103.305 74.506 103.105 74.5198C102.356 74.6547 101.594 74.7006 100.835 74.6567Z" fill="#263238"/>
<path d="M95.359 60.4005C95.2383 60.7788 93.8537 60.6822 92.2517 60.972C90.6498 61.2618 89.3698 61.777 89.1364 61.447C89.0317 61.294 89.241 60.9318 89.7401 60.5373C90.4173 60.0516 91.1963 59.7266 92.0179 59.5871C92.8395 59.4476 93.6821 59.4973 94.4816 59.7323C95.0853 59.9416 95.4073 60.2153 95.359 60.4005Z" fill="#263238"/>
<path d="M108.086 60.827C107.869 61.149 106.903 60.8833 105.76 60.9316C104.617 60.9799 103.667 61.2617 103.425 60.9316C103.321 60.7787 103.425 60.4567 103.852 60.1266C104.397 59.7358 105.049 59.5197 105.72 59.5068C106.392 59.4784 107.056 59.6614 107.619 60.03C108.038 60.352 108.191 60.666 108.086 60.827Z" fill="#263238"/>
<path d="M109.344 55.1525C109.344 55.1525 106.663 49.6784 103.878 48.5192C100.513 47.1266 99.3133 50.8054 96.1416 50.1292C92.9699 49.453 89.7579 48.1006 86.707 50.6927C83.3743 53.5344 85.097 55.2974 85.097 59.2821C85.1453 75.4385 82.4646 80.1639 81.1927 72.629C81.0559 71.824 78.7052 71.2686 78.1659 67.799C77.4575 63.2749 76.9664 57.7526 77.7956 54.4602C78.4959 51.6909 79.9369 49.7187 82.6256 47.4808C86.8358 43.9549 92.8652 43.5363 96.9949 43.7134C101.125 43.8905 109.319 48.1006 109.344 55.1525Z" fill="#263238"/>
<path d="M81.7803 72.3236C81.7532 71.9929 81.6583 71.6713 81.5014 71.3788C81.3446 71.0864 81.1291 70.8295 80.8685 70.624C80.6079 70.4185 80.3078 70.269 79.9868 70.1847C79.6658 70.1004 79.331 70.0831 79.003 70.134C77.3447 70.3916 75.5415 71.4462 75.8474 74.8916C76.3948 81.0016 82.4162 79.1903 82.4162 79.0132C82.4162 78.8361 82.0298 74.8835 81.7803 72.3236Z" fill="#FFBF9D"/>
<path d="M80.8948 76.8303C80.8948 76.8303 80.7982 76.9188 80.6211 77.0154C80.3742 77.1475 80.0858 77.1793 79.8161 77.104C79.156 76.9269 78.52 75.9448 78.3912 74.85C78.3275 74.3266 78.3825 73.7955 78.5522 73.2963C78.5923 73.1011 78.6792 72.9186 78.8054 72.7643C78.9316 72.6101 79.0933 72.4888 79.2767 72.4108C79.3957 72.3686 79.5255 72.3688 79.6444 72.4113C79.7632 72.4538 79.8637 72.5361 79.9288 72.6443C80.0334 72.8053 80.0012 72.934 80.0334 72.9421C80.0656 72.9501 80.1542 72.8294 80.0817 72.5798C80.0362 72.4305 79.9392 72.3022 79.808 72.2176C79.6284 72.1045 79.4114 72.0669 79.2043 72.1129C78.9589 72.1861 78.7363 72.3205 78.5574 72.5036C78.3785 72.6868 78.2493 72.9125 78.1819 73.1595C77.9686 73.7126 77.894 74.3096 77.9646 74.8983C78.1175 76.1299 78.8501 77.2247 79.7517 77.4018C79.9198 77.4353 80.0934 77.4302 80.2593 77.387C80.4252 77.3438 80.5792 77.2635 80.7096 77.1523C80.8948 76.9832 80.9189 76.8464 80.8948 76.8303Z" fill="#FF9A6C"/>
<path d="M110.648 48.5191C109.706 47.8107 108.41 47.7141 107.476 46.9977C103.316 43.8042 96.6129 37.7091 90.8888 40.8959C88.7107 42.1085 85.9615 42.2125 84.0181 43.6006C83.4528 44.0475 82.9874 44.608 82.6519 45.2458C82.3164 45.8835 82.1182 46.5845 82.07 47.3036C82.07 47.3036 81.4341 46.9816 79.5021 48.5111C78.2704 49.4851 77.2642 51.5862 76.8134 53.0835C76.1452 55.3294 77.1193 57.6962 78.0772 59.8294C78.5924 60.9806 79.2364 62.2444 80.4359 62.655C81.8929 63.146 83.5029 62.0029 84.0745 60.57C84.646 59.1371 85.5476 57.6962 86.2399 56.3196C87.4474 53.9046 88.6549 51.6989 87.6648 50.1694C90.93 49.1089 93.0942 51.0056 95.9966 52.0289C97.2173 52.4594 102.143 53.276 103.5 52.9513C103.939 52.8464 104.349 52.6439 104.699 52.359C105.252 53.2599 106.124 53.9194 107.141 54.2059C108.159 54.4923 109.247 54.3848 110.189 53.9046C112.008 52.7776 112.33 49.791 110.648 48.5191Z" fill="#263238"/>
<path d="M77.4653 58.3875C77.7478 58.8294 77.9852 59.2987 78.1737 59.7882C78.3945 60.2826 78.7415 60.7102 79.18 61.0279C79.7661 61.3278 80.4411 61.405 81.0798 61.2452C81.7438 61.1164 82.3707 60.8414 82.9152 60.4402C83.3543 60.0994 83.7539 59.7106 84.1066 59.281C84.4148 58.8596 84.7568 58.4638 85.129 58.0977C84.9327 58.5852 84.6611 59.0388 84.324 59.442C83.9868 59.9161 83.5859 60.3413 83.1325 60.7059C82.5515 61.1447 81.8763 61.4424 81.1603 61.5753C80.4348 61.7551 79.6679 61.6484 79.019 61.2774C78.5341 60.9224 78.1645 60.4324 77.9564 59.8687C77.7324 59.397 77.5674 58.8995 77.4653 58.3875Z" fill="#FFD000"/>
<path d="M77.6989 63.1146C78.0674 63.394 78.474 63.619 78.9065 63.7828C79.3769 63.9318 79.8743 63.9757 80.3635 63.9116C80.9641 63.8203 81.5379 63.6007 82.046 63.2676C82.9688 62.6266 83.7521 61.805 84.3483 60.8526C84.5759 60.4394 84.8457 60.0509 85.1533 59.6934C85.0124 60.1539 84.8035 60.5907 84.5334 60.9894C83.9864 62.0378 83.1937 62.9383 82.2231 63.6137C81.6703 63.9795 81.0384 64.2085 80.3796 64.2819C79.8332 64.342 79.2805 64.2674 78.7696 64.0645C77.9485 63.6701 77.6587 63.1227 77.6989 63.1146Z" fill="#FFD000"/>
<path d="M96.7029 79.6289C96.4969 79.9662 96.3821 80.3164 96.3615 80.6697C96.3372 80.8368 96.3835 81.0047 96.4972 81.1618C96.6109 81.319 96.7894 81.4618 97.0205 81.5804C97.2599 81.7262 97.5589 81.8432 97.8964 81.9233C98.2338 82.0034 98.6015 82.0446 98.9734 82.0439C99.6443 82.0432 100.293 81.92 100.802 81.6964C101.311 81.4729 101.648 81.1636 101.752 80.8242L101.99 80.0558C100.601 79.8525 96.8061 79.6818 96.7029 79.6289Z" fill="#FF9A6C"/>
<path d="M100.948 81.1252C100.948 81.1252 100.753 81.1252 100.431 81.1411C99.9786 81.163 99.5184 81.163 99.0662 81.1411C98.4134 81.1089 97.8233 81.0007 97.4135 80.8381C96.9255 80.6348 96.6932 80.3822 96.7609 80.1285C96.7805 79.9858 96.8991 79.8462 97.1084 79.7193L96.9049 79.7485C98.3542 79.8176 99.6256 79.8734 100.524 79.9053C101.007 79.9336 101.499 79.9452 101.99 79.9399C101.532 79.884 101.054 79.8465 100.566 79.8282C99.668 79.7751 98.4136 79.7033 96.9643 79.6289H96.8287L96.7693 79.6661C96.4444 79.8636 96.3061 80.086 96.3707 80.3073C96.4353 80.5286 96.7 80.7395 97.1338 80.9152C97.6097 81.0951 98.291 81.2096 99.0323 81.2341C99.514 81.2474 99.9994 81.233 100.465 81.1916C100.639 81.1806 100.804 81.1579 100.948 81.1252Z" fill="#263238"/>
<path d="M82.1472 94L78.1204 100.196L60 106.752L65.1865 160.234L63.2697 188.228C80 197.5 124.262 195.715 127 194.5C128.425 194.459 128.681 191.408 128.914 189.425C129.115 187.645 128.962 185.841 128.463 184.123L125.459 173.403C125.902 180.074 123.937 133.607 123.848 131.911L128.5 108.5C127.379 106.837 117.595 103.502 107.621 99.5154L104.399 94.5081L95.1215 101.687L82.1472 94Z" fill="#B9B8B6"/>
<path d="M128 108C128 108 131.804 111.654 132.523 114.468C133.242 117.281 148.907 149.692 148.907 149.692L156.689 151.697L158.77 155.82C159.985 158.185 160.312 160.877 159.696 163.444C159.08 166.012 157.558 168.298 155.386 169.92C155.116 170.116 154.833 170.297 154.54 170.462C150.311 172.887 142.783 172.758 138.376 167.794C134.206 163.089 122 146.176 122 146.176V125.479L128 108Z" fill="#B9B8B6"/>
<path d="M152.95 152.59L163.601 146.303L168.737 152.59L167.674 155.633L153.941 165.848C152.236 164.457 151.092 162.495 150.721 160.326C150.117 156.486 152.95 152.59 152.95 152.59Z" fill="#FFBF9D"/>
<path d="M149.569 149.337C149.569 149.442 148.66 149.337 147.324 149.788C145.597 150.385 144.068 151.446 142.904 152.855C141.754 154.295 140.806 155.885 140.087 157.581C139.815 158.307 139.478 159.008 139.08 159.674C139.188 158.901 139.405 158.147 139.724 157.436C140.357 155.646 141.291 153.977 142.485 152.501C143.707 151.009 145.361 149.932 147.219 149.418C147.979 149.167 148.794 149.139 149.569 149.337Z" fill="#263238"/>
<path d="M163.424 149.789C163.158 148.399 163.253 146.964 163.7 145.621C164.147 144.277 164.93 143.071 165.976 142.117C168.49 140.049 171.334 138.416 174.388 137.287C176.255 136.482 180.144 133.206 180.828 133.995C181.512 134.784 181.818 135.959 180.828 137.392C179.838 138.825 174.211 140.958 175 142.769C175.322 143.502 177.093 143.639 177.093 143.639C180.307 143.865 183.531 143.929 186.753 143.832C189.602 143.582 192.162 144.13 192.009 145.112C191.856 146.094 191.325 146.633 188.966 146.834C186.608 147.036 182.768 146.883 182.526 147.422C182.285 147.961 183.122 148.308 184.499 148.227C185.875 148.147 192.363 148.122 192.806 148.863C192.914 149.051 192.979 149.261 192.996 149.477C193.013 149.692 192.981 149.91 192.904 150.112C192.827 150.314 192.706 150.497 192.55 150.648C192.394 150.798 192.207 150.911 192.001 150.98L190.48 151.52C190.48 151.52 191.365 152.751 190.625 153.435C189.884 154.12 188.21 153.878 188.21 153.878L179.604 153.637C179.604 153.637 179.113 154.152 179.355 154.506C179.596 154.86 186.342 154.369 186.39 155.11C186.439 155.85 187.026 156.189 185.014 156.72C182.066 157.211 179.058 157.211 176.11 156.72C174.291 156.221 166.668 155.915 166.668 155.915L163.424 149.789Z" fill="#FFBF9D"/>
<path d="M107.54 101.006C107.002 101.678 106.404 102.301 105.753 102.865C104.618 103.976 103.065 105.53 101.422 107.301C101.076 107.679 100.73 108.05 100.408 108.412L100.191 108.645L99.9894 108.396C98.7175 106.786 97.6146 105.305 96.8418 104.25C96.3881 103.714 96.0015 103.125 95.6907 102.495C96.225 102.952 96.7058 103.468 97.1236 104.033C97.9688 105.031 99.128 106.448 100.416 108.058H100.005L101.012 106.939C102.426 105.41 103.92 103.956 105.488 102.584C106.105 101.976 106.794 101.446 107.54 101.006Z" fill="#263238"/>
<path d="M61.623 120.502C61.771 120.857 61.8711 121.231 61.9209 121.613C62.0738 122.337 62.267 123.392 62.4763 124.696C62.8949 127.304 63.3377 130.927 63.708 134.936C64.0783 138.945 64.352 142.583 64.5613 145.216C64.6418 146.439 64.7223 147.478 64.7786 148.331C64.8291 148.713 64.8291 149.1 64.7786 149.482C64.6638 149.115 64.5882 148.738 64.5532 148.355C64.4405 147.622 64.3037 146.56 64.1588 145.248C63.8529 142.631 63.5148 139.001 63.1445 134.992C62.7742 130.983 62.4119 127.369 62.098 124.793C61.945 123.577 61.8162 122.539 61.7116 121.693C61.6284 121.302 61.5986 120.901 61.623 120.502Z" fill="#263238"/>
<path d="M124.606 118.676C124.721 119.132 124.789 119.599 124.808 120.068C124.896 120.978 124.993 122.282 125.073 123.908C125.258 127.128 125.347 131.636 125.363 136.579V153.09C125.389 153.56 125.37 154.032 125.307 154.498C125.202 154.039 125.151 153.569 125.154 153.098C125.089 152.188 125.025 150.876 124.977 149.258C124.864 146.038 124.824 141.53 124.816 136.587C124.808 131.644 124.767 127.161 124.687 123.924C124.647 122.387 124.614 121.099 124.59 120.085C124.552 119.615 124.557 119.144 124.606 118.676Z" fill="#263238"/>
<path d="M96.8901 191.656C96.8413 191.358 96.8197 191.057 96.8257 190.755C96.8257 190.119 96.8257 189.258 96.7693 188.179C96.721 185.885 96.6566 182.657 96.5761 178.688C96.391 170.638 96.1334 159.585 95.8436 147.381C95.5538 135.177 95.4008 124.076 95.4169 116.059C95.4169 112.034 95.4572 108.814 95.5055 106.56C95.5055 105.481 95.5618 104.62 95.586 103.984C95.5792 103.682 95.6008 103.38 95.6504 103.082C95.6728 103.382 95.6728 103.684 95.6504 103.984C95.6504 104.62 95.6504 105.481 95.6504 106.56C95.6504 108.854 95.6987 112.09 95.7309 116.051C95.8114 124.101 96.0448 135.137 96.3185 147.365C96.5922 159.593 96.8337 170.662 96.8981 178.68C96.8981 182.705 96.8981 185.925 96.8981 188.179C96.8981 189.258 96.8981 190.119 96.8579 190.755C96.8892 191.054 96.8999 191.356 96.8901 191.656Z" fill="#263238"/>
<path d="M155.937 166.967C155.937 166.967 155.679 166.967 155.269 166.765C154.693 166.511 154.151 166.184 153.659 165.791C151.972 164.492 150.818 162.621 150.415 160.531C150.012 158.44 150.387 156.274 151.469 154.441C151.785 153.89 152.169 153.381 152.612 152.927C152.926 152.621 153.128 152.476 153.152 152.501C153.176 152.525 152.508 153.249 151.807 154.626C150.871 156.407 150.569 158.453 150.951 160.428C151.333 162.404 152.376 164.19 153.908 165.493C155.06 166.508 155.977 166.878 155.937 166.967Z" fill="#263238"/>
<path d="M176.408 140.41C176.473 140.475 176.006 140.917 175.418 141.698C175.08 142.145 174.846 142.662 174.734 143.212C174.605 143.831 174.621 144.556 174.509 145.353C174.413 146.037 174.182 146.695 173.829 147.29C173.477 147.884 173.01 148.402 172.456 148.814C172.032 149.196 171.495 149.428 170.926 149.474C170.886 149.386 171.482 149.161 172.214 148.508C173.157 147.673 173.778 146.534 173.969 145.288C174.022 144.56 174.114 143.834 174.243 143.115C174.397 142.515 174.695 141.963 175.112 141.505C175.45 141.042 175.895 140.666 176.408 140.41Z" fill="#FF9A6C"/>
<path d="M177.906 150.328C177.906 150.175 180.779 150.288 184.289 150.578C187.799 150.867 190.641 151.238 190.633 151.383C190.625 151.528 187.759 151.423 184.249 151.125C180.739 150.827 177.897 150.473 177.906 150.328Z" fill="#FF9A6C"/>
<path d="M95.0386 101.971C94.717 103.043 94.3106 104.087 93.823 105.095C93.6057 105.578 93.3803 106.101 93.1468 106.64C92.9159 107.255 92.6471 107.854 92.3418 108.435C92.2256 108.626 92.0566 108.78 91.8552 108.877C91.6538 108.974 91.4286 109.011 91.2068 108.983C90.8168 108.88 90.4541 108.693 90.1442 108.435L88.2444 107.139C85.6522 105.352 83.3258 103.702 81.6514 102.494C80.7152 101.882 79.832 101.193 79.011 100.434C80.0083 100.936 80.9639 101.518 81.8687 102.172C83.5995 103.307 85.9662 104.893 88.5583 106.688L90.4501 107.993C90.6968 108.206 90.9844 108.368 91.2953 108.468C91.4222 108.483 91.5508 108.459 91.6642 108.401C91.7776 108.342 91.8707 108.25 91.9313 108.137C92.5431 107.027 93.0502 105.827 93.5413 104.917C93.9576 103.895 94.4584 102.91 95.0386 101.971Z" fill="#263238"/>
<path d="M53.0341 114.541L41.6786 135.613L39.4054 110.951L28.9328 119.589C28.9328 119.589 27.3468 146.514 29.4932 153.92C31.6395 161.326 42.2919 163.182 47.996 156.273C50.6393 153.101 66.1658 124.522 66.1658 124.522L53.0341 114.541Z" fill="#FFBF9D"/>
<path d="M37.5181 101.99C37.5181 101.99 32.9453 93.7167 31.3593 91.565C29.7734 89.4134 27.8861 89.8522 27.7592 92.0937C27.7067 93.4872 27.9971 94.8723 28.605 96.1273C28.605 96.1273 28.3249 95.1757 26.4904 96.2753C24.656 97.3749 25.9618 100.933 25.9618 100.933C25.9618 100.933 25.0895 99.3891 24.1961 102.566C24.1961 102.566 22.6736 102.128 22.8639 105.035C23.0542 107.943 29.1073 117.305 29.1073 117.305L28.8377 122.904L39.231 114.16L41.5253 103.967L37.5181 101.99Z" fill="#FFBF9D"/>
<path d="M25.1159 103.439C25.449 104.084 27.6693 107.954 26.7019 109.64C25.7345 111.327 24.7353 109.587 23.8895 108.392C23.0436 107.198 22.3987 104.724 22.3987 104.724C22.3987 104.724 22.2295 102.667 23.752 102.694C24.3494 102.715 25.1159 103.439 25.1159 103.439Z" fill="#FFBF9D"/>
<path d="M23.1811 105.505C23.308 105.568 23.4401 105.626 23.5882 105.684C25.4702 106.398 28.0024 105.515 29.5725 103.475C30.4653 102.383 30.9027 100.99 30.7937 99.5839C30.7937 99.5839 31.3224 97.0463 34.5366 93.959L35.3295 93.1607C35.4194 93.5836 35.4987 93.9484 35.5674 94.218C36.593 98.3997 35.6256 100.821 35.6256 100.821C34.7593 101.933 34.3542 103.336 34.4943 104.738C34.7269 107.54 36.8045 109.676 39.1358 109.496C41.4672 109.316 43.1747 106.927 42.9421 104.125C42.8937 103.37 42.6909 102.632 42.3463 101.959C42.0017 101.285 41.5226 100.689 40.9385 100.208C38.3376 98.1829 38.6072 96.1159 38.1948 93.996C38.1208 93.6154 37.8935 92.41 37.5763 90.7289C43.3915 84.3375 54.0491 71.7767 53.198 70.3124C53.198 70.3124 43.0426 81.1339 36.9842 87.5781L32.755 65.084C31.2113 65.9298 33.2837 81.7048 34.7163 89.9624C33.659 91.0937 32.9083 91.8867 32.6493 92.1563C31.1162 93.774 29.9108 96.0154 26.5539 96.5124C24.9921 96.7857 23.5931 97.644 22.6419 98.9125C21.1352 100.868 21.0031 103.247 22.1872 104.68L22.2983 104.818C21.8188 105.209 21.2431 105.464 20.6313 105.557C20.0194 105.65 19.3938 105.577 18.8197 105.346C18.1853 105.055 17.6461 105.944 18.2911 106.229C19.0922 106.578 19.9753 106.695 20.8398 106.567C21.7043 106.439 22.5155 106.071 23.1811 105.505ZM42.0487 104.215C42.2337 106.425 40.891 108.317 39.0513 108.444C37.2115 108.571 35.5674 106.89 35.3877 104.68C35.208 102.47 36.5507 100.578 38.3851 100.451C40.2196 100.324 41.869 102.005 42.0487 104.215ZM23.604 104.474C22.0974 103.485 22.0181 101.223 23.3978 99.42C24.7776 97.6173 27.1354 96.9512 28.6421 97.9397C30.1487 98.9283 30.228 101.191 28.843 102.994C27.4579 104.796 25.1054 105.462 23.604 104.495V104.474Z" fill="#455A64"/>
<path d="M36.9948 90.9569C37.0458 90.7856 37.0448 90.603 36.9921 90.4323C36.9394 90.2615 36.8373 90.1102 36.6986 89.9975C36.5599 89.8847 36.3909 89.8156 36.213 89.7989C36.035 89.7822 35.8561 89.8186 35.6989 89.9035C35.5416 89.9884 35.4131 90.118 35.3294 90.2759C35.2458 90.4339 35.2109 90.6131 35.2291 90.7909C35.2472 90.9687 35.3177 91.1371 35.4316 91.2748C35.5454 91.4126 35.6975 91.5135 35.8687 91.5648C35.9826 91.599 36.1021 91.6103 36.2203 91.5982C36.3385 91.5861 36.4532 91.5509 36.5578 91.4944C36.6624 91.4379 36.7549 91.3614 36.8298 91.2691C36.9048 91.1769 36.9608 91.0708 36.9948 90.9569Z" fill="#263238"/>
<path opacity="0.2" d="M37.719 86.8285L39.2309 86.5959C39.2309 86.5959 47.885 77.2018 49.085 75.8537C50.2851 74.5056 53.1979 70.3398 53.1979 70.3398L37.719 86.8285Z" fill="black"/>
<path d="M35.7788 106.288C34.9805 103.962 38.5753 101.62 38.5753 101.62C37.8305 100.198 37.5025 98.5944 37.629 96.9942C38.0202 93.9544 39.5163 94.7368 39.5163 94.7368C39.5163 94.7368 42.6354 99.4947 42.334 102.106C42.0327 104.718 39.6379 108.276 39.6379 108.276C39.6379 108.276 36.9101 109.581 35.7788 106.288Z" fill="#FFBF9D"/>
<path d="M29.2183 97.8396C29.5936 98.5691 32.3056 102.492 31.2377 104.395C30.1698 106.298 29.0227 104.331 28.0658 102.983C27.109 101.635 25.5706 99.2352 25.5706 99.2352C25.5706 99.2352 25.0102 96.592 26.723 96.4915C27.2234 96.4604 27.7225 96.5702 28.1636 96.8085C28.6046 97.0468 28.9701 97.404 29.2183 97.8396Z" fill="#FFBF9D"/>
<path d="M27.6165 101.571C27.9866 102.301 30.5135 105.732 29.4457 107.635C28.3778 109.538 27.2676 107.551 26.2737 106.224C23.7098 102.793 23.7415 102.523 23.7415 102.523C23.7415 102.523 22.8375 100.493 24.931 99.7106C26.5434 99.1291 27.6165 101.571 27.6165 101.571Z" fill="#FFBF9D"/>
<path d="M26.39 100.113C26.5708 100.25 26.7311 100.412 26.8658 100.594C27.2584 101.062 27.612 101.56 27.9231 102.085C28.3909 102.87 28.772 103.703 29.0597 104.57C29.2261 105.09 29.3603 105.619 29.4615 106.156C29.6384 106.744 29.5914 107.377 29.3293 107.932C29.241 108.068 29.1262 108.185 28.9918 108.276C28.8574 108.367 28.7061 108.429 28.5469 108.461C28.3861 108.481 28.2228 108.463 28.0697 108.41C27.9167 108.357 27.7779 108.269 27.664 108.154C27.4588 107.961 27.2729 107.749 27.109 107.52L26.6332 106.891C26.0199 106.071 25.4913 105.305 25.0472 104.681C24.6031 104.057 24.2754 103.513 24.0481 103.142C23.9194 102.959 23.8113 102.762 23.7256 102.556C23.8799 102.718 24.018 102.895 24.1379 103.084L25.1952 104.57C25.6499 105.194 26.1944 105.934 26.8182 106.737C27.1245 107.164 27.4582 107.57 27.8174 107.953C27.9034 108.039 28.0072 108.104 28.1214 108.145C28.2355 108.187 28.3573 108.202 28.4782 108.191C28.6022 108.164 28.7192 108.111 28.822 108.036C28.9247 107.962 29.0111 107.867 29.0755 107.758C29.3002 107.259 29.3358 106.695 29.176 106.172C29.0816 105.651 28.9544 105.138 28.7954 104.633C28.5302 103.777 28.1759 102.952 27.7381 102.17C26.9927 100.848 26.353 100.145 26.39 100.113Z" fill="#FF9A6C"/>
<path d="M28.4834 97.0156C28.6441 97.1228 28.7899 97.2508 28.9169 97.3963C29.285 97.7664 29.6243 98.164 29.9319 98.5857C30.3947 99.2128 30.775 99.8969 31.0632 100.621C31.4178 101.517 31.5834 102.476 31.5496 103.439C31.5496 103.703 31.5049 103.966 31.4174 104.216C31.3668 104.347 31.285 104.463 31.179 104.556C31.0731 104.648 30.9462 104.713 30.8095 104.745C30.5467 104.782 30.2791 104.726 30.0535 104.586C29.8644 104.464 29.6874 104.324 29.5248 104.168C28.9372 103.659 28.4055 103.088 27.9389 102.466C27.6233 102.051 27.3422 101.611 27.0983 101.15C26.9938 100.987 26.9154 100.808 26.8657 100.621C26.908 100.621 27.2728 101.335 28.0922 102.35C28.5709 102.939 29.1017 103.484 29.6782 103.978C29.8158 104.133 29.9842 104.258 30.1726 104.344C30.3609 104.43 30.5652 104.477 30.7725 104.48C31.1637 104.401 31.3011 103.883 31.3011 103.423C31.3343 102.496 31.1815 101.572 30.8518 100.706C30.5791 99.9953 30.2242 99.3193 29.7945 98.6915C29.0332 97.6236 28.4464 97.0526 28.4834 97.0156Z" fill="#FF9A6C"/>
<path d="M36.0961 105.167C36.0718 105.052 36.0718 104.934 36.0961 104.819C36.1307 104.499 36.209 104.186 36.3287 103.888C36.7248 102.875 37.5004 102.055 38.4909 101.604L38.4274 101.795L38.3006 101.546C37.8084 100.533 37.5415 99.4261 37.5181 98.3003C37.4849 97.837 37.5351 97.3714 37.6662 96.9258C37.7137 96.9258 37.6662 97.4544 37.7137 98.2897C37.792 99.3797 38.0754 100.445 38.549 101.43L38.6706 101.668L38.734 101.8L38.6019 101.858C37.663 102.282 36.9111 103.034 36.4873 103.973C36.3326 104.363 36.2019 104.762 36.0961 105.167Z" fill="#FF9A6C"/>
<path d="M40.7058 148.835C40.7864 148.185 40.9118 147.542 41.0811 146.91C41.4224 145.373 41.6784 143.818 41.8477 142.253C41.9846 140.687 41.9846 139.113 41.8477 137.548C41.7473 136.342 41.6468 135.597 41.6891 135.592C41.7586 135.761 41.8031 135.939 41.8213 136.12C41.89 136.454 41.964 136.94 42.0433 137.543C42.2399 139.121 42.2701 140.716 42.1332 142.3C41.9682 143.878 41.6818 145.44 41.2767 146.974C41.1287 147.56 40.9966 148.031 40.8961 148.359C40.8522 148.524 40.7883 148.684 40.7058 148.835Z" fill="#FF9A6C"/>
<path opacity="0.3" d="M36.9841 87.6052L37.5762 90.756L38.4485 89.7939L37.3436 87.2246L36.9841 87.6052Z" fill="black"/>
<path d="M35.7841 95.218C35.4154 94.1881 35.1428 93.1263 34.97 92.0461C34.7055 90.9819 34.5619 89.8913 34.5417 88.7949C34.8336 89.8473 35.0665 90.915 35.2396 91.9933C35.5016 93.053 35.6836 94.131 35.7841 95.218Z" fill="#263238"/>
<path d="M87.1322 40C87.1322 40.0846 87.0952 40.1745 87.0793 40.259H87.1164L87.1322 40Z" fill="#263238"/>
<path d="M74 129C73.8461 128.618 74.6646 101.067 74.6646 101.067C74.6646 101.067 72.1124 101.466 71.1569 103.513C70.2014 105.56 69 128.5 69 128.5L74 129Z" fill="#FFD000"/>
<path d="M116.499 131.751C116.499 131.751 117.206 105.338 112.819 99.9418C112.819 99.9418 109.966 99.929 109.148 100.728C109.148 100.728 112.292 122.293 112.008 131.327L116.499 131.751Z" fill="#FFD000"/>
<path d="M123.684 126.768L106.707 124.639L61.2216 127.537C61.2216 127.537 63.7447 134.275 63.3835 143.325C63.0223 152.375 59.8685 183.829 59.8685 183.829C60.5008 185.919 58.9571 189.676 75.0056 192.29C93.1036 195.528 100.529 195.561 121.037 195.654C134.034 193.609 131.557 199.383 127.965 178.329L125.865 155.179L123.684 126.768Z" fill="#FFD000"/>
<g opacity="0.3">
<path d="M110.951 140.631C103.113 148.048 93.5159 154.557 83.9251 159.517L83.8461 161.47C85.8065 163.335 88.179 164.712 90.7712 165.488C93.3634 166.264 96.1021 166.418 98.7649 165.938C104.058 164.934 108.843 164.443 110.259 159.249C111.818 153.531 112.448 145.578 110.951 140.631Z" fill="black"/>
</g>
<path d="M79.2602 140.745C79.2602 140.745 78.0164 159.738 85.6881 162.408C93.3598 165.078 104.779 163.444 107.841 159.363C111.218 154.871 111.567 140.23 110.622 139.406C109.676 138.582 79.2602 140.745 79.2602 140.745Z" fill="#FFD000"/>
<path d="M79.2601 140.744L79.507 140.685L80.2578 140.621L83.1391 140.398C85.639 140.216 89.2579 139.964 93.7361 139.693C95.9752 139.557 98.4247 139.415 101.062 139.288C103.7 139.16 106.509 139.02 109.487 139.089C109.672 139.093 109.861 139.108 110.039 139.126C110.245 139.133 110.449 139.177 110.64 139.255C110.737 139.327 110.808 139.428 110.844 139.543C110.878 139.638 110.901 139.736 110.914 139.836C110.961 140.023 110.996 140.212 111.017 140.404C111.113 141.171 111.163 141.943 111.164 142.716C111.187 144.276 111.124 145.861 110.991 147.474C110.859 149.087 110.677 150.722 110.372 152.365C110.093 154.042 109.653 155.688 109.057 157.28C108.755 158.091 108.338 158.855 107.819 159.547C107.267 160.202 106.607 160.758 105.868 161.19C104.43 162.014 102.88 162.622 101.266 162.996C98.2379 163.713 95.1183 163.964 92.0147 163.74C90.5665 163.64 89.1286 163.424 87.7151 163.094C87.0309 162.936 86.3639 162.736 85.7137 162.515C85.0669 162.29 84.4645 161.954 83.9339 161.52C82.9446 160.688 82.1529 159.645 81.6162 158.469C81.0991 157.408 80.6879 156.299 80.3888 155.158C79.879 153.2 79.5366 151.201 79.3653 149.185C79.1986 147.41 79.1535 145.872 79.1384 144.62C79.1234 143.368 79.1514 142.389 79.1846 141.729C79.2063 141.409 79.2218 141.177 79.2292 140.98C79.2366 140.782 79.254 140.718 79.2552 140.723C79.2622 140.808 79.2625 140.894 79.2561 140.979C79.2502 141.159 79.2499 141.409 79.2397 141.732C79.2283 142.393 79.2157 143.368 79.2462 144.616C79.2767 145.864 79.3641 147.397 79.5193 149.17C79.7044 151.176 80.0585 153.162 80.5779 155.108C80.8797 156.234 81.291 157.328 81.8058 158.375C82.3342 159.52 83.1099 160.535 84.077 161.345C84.5903 161.757 85.1703 162.079 85.7919 162.296C86.4293 162.508 87.09 162.704 87.7742 162.862C89.1755 163.182 90.6001 163.388 92.0344 163.48C95.1197 163.7 98.2206 163.447 101.229 162.728C102.817 162.36 104.343 161.761 105.757 160.95C106.468 160.533 107.104 159.998 107.636 159.368C108.141 158.698 108.545 157.957 108.836 157.17C109.42 155.596 109.854 153.97 110.132 152.314C110.427 150.678 110.622 149.051 110.756 147.443C110.89 145.835 110.95 144.261 110.936 142.716C110.93 141.954 110.883 141.192 110.796 140.435C110.773 140.251 110.741 140.068 110.698 139.887C110.674 139.735 110.612 139.59 110.517 139.469C110.358 139.415 110.191 139.385 110.023 139.379C109.845 139.362 109.657 139.347 109.471 139.342C106.519 139.267 103.697 139.422 101.069 139.52C98.4403 139.618 95.9805 139.762 93.7441 139.887L83.1542 140.53L80.2649 140.673L79.5195 140.715C79.434 140.732 79.3472 140.741 79.2601 140.744Z" fill="#263238"/>
<path d="M110.351 179.501C110.239 179.54 110.124 179.566 110.007 179.58L109.018 179.744C108.162 179.881 106.904 180.093 105.392 180.362C102.331 180.891 98.1177 181.737 93.5184 182.889C88.9191 184.042 84.8062 185.284 81.851 186.251C80.3761 186.733 79.2078 187.134 78.3619 187.42L77.4104 187.737C77.3017 187.781 77.1881 187.811 77.072 187.827C77.1716 187.767 77.2781 187.719 77.3892 187.684L78.3249 187.319C79.1338 187.002 80.3179 186.574 81.7876 186.066C84.7322 185.051 88.8398 183.777 93.4497 182.62C98.0595 181.462 102.283 180.658 105.36 180.172C106.893 179.923 108.141 179.744 109.003 179.643L110.002 179.527C110.117 179.506 110.234 179.498 110.351 179.501Z" fill="#263238"/>
<path d="M111.82 180.166C111.724 180.227 111.621 180.277 111.514 180.314L110.62 180.684C109.838 180.996 108.706 181.461 107.321 182.053C104.551 183.237 100.766 184.977 96.7112 187.139C92.6565 189.301 89.1092 191.495 86.5928 193.15C85.3294 193.974 84.3196 194.651 83.6218 195.127L82.8183 195.656C82.7276 195.725 82.628 195.782 82.5222 195.825C82.6025 195.745 82.6891 195.673 82.7813 195.608L83.5584 195.026C84.235 194.498 85.2342 193.816 86.4818 192.97C93.0066 188.57 99.9647 184.85 107.247 181.868C108.643 181.303 109.785 180.864 110.578 180.578L111.498 180.256C111.602 180.215 111.71 180.185 111.82 180.166Z" fill="#263238"/>
<path d="M116.889 129.217C116.986 129.743 117.019 130.278 116.987 130.812C116.983 131.398 116.918 131.983 116.794 132.556C116.694 132.895 116.532 133.212 116.316 133.492C116.073 133.808 115.731 134.033 115.344 134.13C114.978 134.224 114.593 134.218 114.229 134.113C113.866 134.008 113.537 133.807 113.278 133.532C112.864 133.096 112.584 132.55 112.473 131.959C112.394 131.574 112.349 131.182 112.339 130.789C112.333 130.515 112.34 130.358 112.362 130.357C112.384 130.356 112.433 130.971 112.662 131.923C112.794 132.458 113.067 132.947 113.452 133.341C113.684 133.577 113.973 133.748 114.291 133.839C114.609 133.929 114.945 133.935 115.266 133.855C115.581 133.751 115.864 133.568 116.09 133.325C116.315 133.081 116.476 132.785 116.556 132.463C116.683 131.912 116.764 131.351 116.797 130.787C116.8 130.263 116.831 129.739 116.889 129.217Z" fill="#263238"/>
<path d="M70.023 124.696C69.9643 124.843 69.9262 124.998 69.9097 125.156C69.855 125.451 69.7734 125.874 69.7196 126.414C69.642 127.053 69.6746 127.7 69.8158 128.328C69.9106 128.699 70.0492 129.059 70.2288 129.398C70.456 129.768 70.8067 130.045 71.2189 130.182C71.6231 130.332 72.0653 130.346 72.4784 130.223C72.8581 130.09 73.1922 129.853 73.4416 129.537C73.6737 129.261 73.8202 128.923 73.8634 128.564C73.8994 128.26 73.9156 127.993 73.9609 127.694C74.0475 127.121 74.089 126.543 74.0848 125.964C73.9347 126.524 73.831 127.095 73.7746 127.673C73.6571 128.209 73.7251 128.892 73.2539 129.384C73.0217 129.66 72.7104 129.857 72.3621 129.951C72.0138 130.044 71.6452 130.028 71.3063 129.905C70.9584 129.785 70.6604 129.553 70.4597 129.245C70.2902 128.929 70.1589 128.594 70.0685 128.247C69.9184 127.649 69.8668 127.031 69.9159 126.417C69.9851 125.846 70.0208 125.271 70.023 124.696Z" fill="#263238"/>
<path d="M115.036 132.77C115.681 132.574 116.045 131.892 115.849 131.247C115.652 130.601 114.97 130.237 114.325 130.434C113.68 130.63 113.316 131.312 113.512 131.957C113.708 132.603 114.39 132.967 115.036 132.77Z" fill="#263238"/>
<path d="M70.8866 127.226C70.7727 127.44 70.7248 127.683 70.7491 127.925C70.7734 128.166 70.8687 128.395 71.023 128.582C71.1773 128.769 71.3836 128.906 71.6159 128.976C71.8481 129.046 72.0959 129.046 72.3279 128.975C72.5599 128.904 72.7656 128.766 72.9191 128.578C73.0726 128.39 73.167 128.161 73.1902 127.92C73.2135 127.678 73.1647 127.435 73.0499 127.221C72.9351 127.008 72.7595 126.833 72.5453 126.719C72.2581 126.566 71.922 126.534 71.6109 126.629C71.2999 126.724 71.0393 126.939 70.8866 127.226Z" fill="#263238"/>
<path opacity="0.3" d="M68.6756 147.568C68.6756 147.568 63.8807 142.81 64.0023 143.006L66.8041 161.313L68.6756 147.568Z" fill="black"/>
<path d="M113.01 113.705C113.03 113.535 113.074 113.37 113.142 113.213C113.248 112.901 113.406 112.457 113.628 111.913C114.165 110.471 114.931 109.125 115.896 107.927C116.894 106.721 118.255 105.872 119.777 105.505C120.235 105.406 120.705 105.376 121.172 105.415C121.352 105.418 121.531 105.45 121.701 105.511C121.077 105.506 120.455 105.568 119.845 105.696C118.395 106.104 117.104 106.945 116.145 108.106C115.2 109.286 114.424 110.592 113.84 111.987C113.599 112.576 113.321 113.15 113.01 113.705Z" fill="#455A64"/>
<path d="M60.5 106.5C59.3196 106.569 53.5818 109.975 53 112.5C51.6489 115.07 41.5 133.5 41.5 133.5L41 122.5C39.5 134 27.5 135 24.5 132.5C22.5 136 25.2726 147.366 25.2773 150.007C25.2819 152.647 26.2327 155.224 27.97 157.305C28.1876 157.558 28.4205 157.8 28.6674 158.028C32.2199 161.367 39.5733 162.985 45.0102 159.176C50.1568 155.565 63.5 137.5 63.5 137.5L61.5 128L67 127L60.5 106.5Z" fill="#B9B8B6"/>
<path d="M45.1679 151.725C45.298 150.786 45.4957 149.858 45.7595 148.947C46.3016 146.735 46.4925 144.451 46.3253 142.179C46.1226 139.935 45.2878 137.795 43.9177 136.006C43.3008 135.301 42.6317 134.644 41.916 134.04C42.1824 134.092 42.4346 134.2 42.6553 134.358C43.2499 134.741 43.7875 135.205 44.2522 135.738C45.7777 137.544 46.7019 139.78 46.8961 142.136C47.0544 144.461 46.7856 146.796 46.1029 149.025C45.9061 149.961 45.592 150.868 45.1679 151.725Z" fill="#263238"/>
<path d="M51.843 142.759C51.6885 142.832 50.87 140.683 48.8279 138.831C46.7858 136.978 44.6242 136.38 44.6467 136.206C44.6692 136.032 47.052 136.462 49.1943 138.428C51.3366 140.393 51.9794 142.747 51.843 142.759Z" fill="#263238"/>
<path d="M40.7803 124.001C40.7803 124.001 40.8779 124.24 40.8013 124.715C40.7266 125.368 40.5539 126.024 40.2878 126.665C39.4283 128.84 37.7071 130.791 35.4481 132.152C33.1891 133.513 30.5483 134.19 28.0229 134.054C27.2679 134.022 26.5357 133.907 25.8437 133.711C25.3719 133.565 25.1284 133.448 25.1471 133.414C25.1658 133.38 26.2549 133.656 28.1084 133.654C30.5176 133.679 32.9931 132.992 35.1272 131.705C37.2613 130.418 38.9269 128.609 39.8496 126.575C40.5834 125.03 40.6628 124.006 40.7803 124.001Z" fill="#263238"/>
<path d="M64.1399 106.086C64.0001 106.305 63.8415 106.511 63.6658 106.702L62.3074 108.327C61.1584 109.692 59.594 111.599 57.9155 113.746C56.2369 115.893 54.7743 117.879 53.7255 119.328C53.2212 120.018 52.8057 120.592 52.479 121.035C52.3387 121.254 52.1783 121.46 51.9999 121.649C52.1069 121.412 52.2383 121.187 52.3921 120.978C52.662 120.555 53.0591 119.952 53.5435 119.206C54.5556 117.733 55.9981 115.724 57.6633 113.567C59.3285 111.41 60.9364 109.523 62.1254 108.188C62.7183 107.517 63.204 106.982 63.5489 106.619C63.7282 106.422 63.9261 106.244 64.1399 106.086Z" fill="#455A64"/>
</g>
<defs>
<clipPath id="clip0_752_25719">
<rect width="200" height="200" fill="white"/>
</clipPath>
</defs>
</svg>
