<svg width="200" height="200" viewBox="0 0 200 200" fill="none" xmlns="http://www.w3.org/2000/svg">
<path fill-rule="evenodd" clip-rule="evenodd" d="M95.3511 40.0786C119.484 41.5624 131.191 65.3973 145.943 82.1754C157.899 95.7741 168.961 109.409 171.286 126.445C173.971 146.122 175.558 168.605 159.663 182.721C143.717 196.882 117.964 195.809 95.3511 193.883C72.1366 194.322 53.3796 187.342 42.4481 172.737C26.9316 160.174 13.0786 144.922 12.0648 126.445C11.0113 107.244 22.9446 90.1752 37.1121 75.4837C52.9597 59.05 70.8381 38.5713 95.3511 40.0786Z" fill="#FFF3CC"/>
<mask id="mask0_752_25789" style="mask-type:alpha" maskUnits="userSpaceOnUse" x="12" y="40" width="161" height="155">
<path fill-rule="evenodd" clip-rule="evenodd" d="M95.3511 40.0786C119.484 41.5624 131.191 65.3973 145.943 82.1754C157.899 95.7741 168.961 109.409 171.286 126.445C173.971 146.122 175.558 168.605 159.663 182.721C143.717 196.882 117.964 195.809 95.3511 193.883C72.1366 194.322 53.3796 187.342 42.4481 172.737C26.9316 160.174 13.0786 144.922 12.0648 126.445C11.0113 107.244 22.9446 90.1752 37.1121 75.4837C52.9597 59.05 70.8381 38.5713 95.3511 40.0786Z" fill="#FFF3CC"/>
</mask>
<g mask="url(#mask0_752_25789)">
<path d="M57.3657 101.826H5V191.237H57.3657V101.826Z" fill="#EDC964"/>
<path d="M78.1084 101.826H57.3604V191.248H78.1084V101.826Z" fill="#FFC727"/>
<path opacity="0.1" d="M78.1084 101.826H57.3604V191.248H78.1084V101.826Z" fill="black"/>
<path d="M76.6796 185.09C75.1477 178.727 73.6249 172.345 72.1114 165.945L67.6096 146.719L63.1798 127.402C61.7032 120.947 60.2451 114.463 58.8054 107.947C60.3411 114.31 61.8638 120.692 63.3736 127.093L67.8699 146.318L72.2997 165.636C73.7763 172.113 75.2363 178.598 76.6796 185.09Z" fill="#FFC727"/>
<path d="M76.6797 107.982C75.2363 114.483 73.7782 120.967 72.3053 127.437L67.8755 146.754L63.3793 165.98C61.8694 172.388 60.3467 178.77 58.811 185.125C60.2507 178.625 61.7089 172.14 63.1855 165.671L67.6153 146.354L72.117 127.128C73.6269 120.719 75.1478 114.338 76.6797 107.982Z" fill="#FFC727"/>
<path d="M34.8844 121.155H34.0594H33.4337L33.0793 119.656L32.5809 121.155L31.9109 118.088L31.2686 121.155H29.4413H28.6052L28.3062 119.106L28.0182 121.155H27.4756V101.826H34.8844V121.155Z" fill="white"/>
<path d="M108.508 101.826H69.4424V191.237H108.508V101.826Z" fill="#FFC727"/>
<path d="M128.68 101.826H108.508V191.237H128.68V101.826Z" fill="#FFC727"/>
<path opacity="0.1" d="M128.68 101.826H108.508V191.237H128.68V101.826Z" fill="black"/>
<g opacity="0.1">
<path d="M105.645 185.079C102.777 178.724 99.9342 172.345 97.1175 165.945L88.712 146.719L80.4061 127.402C77.6486 120.947 74.9243 114.463 72.2332 107.947C75.1014 114.31 77.9439 120.688 80.7605 127.081L89.1661 146.318L97.4719 165.636C100.226 172.105 102.95 178.586 105.645 185.079Z" fill="black"/>
<path d="M105.645 107.982C102.946 114.483 100.222 120.967 97.4719 127.437L89.1661 146.754L80.7605 165.98C77.9476 172.381 75.1051 178.759 72.2332 185.114C74.9316 178.629 77.656 172.144 80.4061 165.659L88.712 146.342L97.1175 127.105C99.9305 120.719 102.773 114.345 105.645 107.982Z" fill="black"/>
</g>
<path d="M125.839 176.107H122.307V186.418H125.839V176.107Z" fill="white"/>
<path d="M58.3293 44H13.7268V101.814H58.3293V44Z" fill="#DBBB60"/>
<path d="M78.5069 44.0117H58.3347V101.837H78.5069V44.0117Z" fill="#FFC727"/>
<path opacity="0.2" d="M78.5069 44.0117H58.3347V101.837H78.5069V44.0117Z" fill="black"/>
<path d="M77.117 98.4152C75.622 94.448 74.1454 90.4579 72.6872 86.4449L68.3073 74.406L63.9882 62.3213C62.5522 58.2778 61.1347 54.2267 59.7356 50.168C61.2122 54.1504 62.6888 58.1405 64.1654 62.1382L68.5398 74.1771L72.8589 86.2732C74.2949 90.3015 75.7142 94.3488 77.117 98.4152Z" fill="#FFC727"/>
<path d="M77.117 50.168C75.7106 54.2267 74.2912 58.2778 72.8589 62.3213L68.5398 74.406L64.1654 86.4449C62.6888 90.4502 61.2122 94.4403 59.7356 98.4152C61.1347 94.3488 62.5522 90.3015 63.9882 86.2732L68.3073 74.1771L72.6872 62.1382C74.1417 58.1329 75.6183 54.1428 77.117 50.168Z" fill="#FFC727"/>
</g>
<path d="M92.0601 44.8647L92.9295 44.8164C97.1236 44.5763 101.254 45.9237 104.5 48.5907C107.746 51.2577 109.869 55.0488 110.446 59.2099C111.557 67.2599 108.823 69.6774 109 74.0002C109.411 82.968 102.184 88.5002 102.184 88.5002L104.707 94.952C104.833 96.3825 104.674 97.8237 104.241 99.1929C103.809 100.562 103.109 101.832 102.184 102.93C101.259 104.029 100.125 104.933 98.8495 105.592C97.5735 106.251 96.1799 106.651 94.7488 106.769C91.8972 106.998 89.07 106.096 86.8772 104.259C84.6845 102.422 83.302 99.796 83.028 96.9484L79.808 63.6937C78.5039 54.4362 82.7704 45.9515 92.0601 44.8647Z" fill="#FFBF9D"/>
<path d="M102 88.5007C97.8507 88.7417 93.6289 87.6491 90 85.6777C90 85.6777 94.1185 91.7827 103 90.5007L102 88.5007Z" fill="#FF9A6C"/>
<path d="M95.996 68.3284C96.0248 68.7349 95.8978 69.1368 95.6425 69.447C95.3872 69.7572 95.0242 69.9508 94.632 69.9858C94.4413 70.0133 94.2472 70.0008 94.0612 69.9492C93.8752 69.8975 93.7011 69.8078 93.5492 69.6852C93.3973 69.5627 93.2706 69.4099 93.1768 69.2358C93.083 69.0617 93.0238 68.8698 93.0028 68.6716C92.9789 68.2663 93.1076 67.8672 93.362 67.5581C93.6163 67.249 93.9765 67.054 94.3668 67.0142C94.5575 66.9867 94.7516 66.9992 94.9376 67.0509C95.1236 67.1025 95.2977 67.1922 95.4496 67.3148C95.6015 67.4373 95.7282 67.5901 95.822 67.7642C95.9158 67.9383 95.975 68.1302 95.996 68.3284Z" fill="#263238"/>
<path d="M108.788 63.701C108.635 63.8781 107.629 63.21 106.252 63.2985C104.876 63.3871 103.902 64.1035 103.749 63.9667C103.596 63.8298 103.813 63.5883 104.232 63.2422C104.804 62.793 105.501 62.5316 106.228 62.4935C106.943 62.4539 107.653 62.6397 108.257 63.0248C108.683 63.3227 108.844 63.6125 108.788 63.701Z" fill="#263238"/>
<path d="M107.997 68.3284C108.021 68.7337 107.892 69.1328 107.638 69.4419C107.384 69.751 107.023 69.946 106.633 69.9858C106.442 70.0133 106.248 70.0008 106.062 69.9491C105.876 69.8975 105.702 69.8078 105.55 69.6852C105.398 69.5627 105.271 69.4099 105.177 69.2358C105.084 69.0617 105.024 68.8698 105.003 68.6716C104.977 68.2657 105.105 67.8652 105.36 67.5556C105.615 67.2459 105.976 67.0516 106.368 67.0142C106.558 66.9867 106.753 66.9992 106.939 67.0509C107.125 67.1025 107.299 67.1922 107.451 67.3148C107.603 67.4373 107.729 67.5901 107.823 67.7642C107.917 67.9383 107.976 68.1302 107.997 68.3284Z" fill="#263238"/>
<path d="M95.256 64.7316C95.1111 64.9087 94.0968 64.2486 92.7202 64.3291C91.3437 64.4096 90.3777 65.1341 90.2167 64.9973C90.0557 64.8604 90.2811 64.6189 90.7077 64.2728C91.2758 63.8278 91.9674 63.5691 92.688 63.5322C93.4038 63.4864 94.1152 63.6727 94.7166 64.0635C95.1674 64.3613 95.3284 64.6511 95.256 64.7316Z" fill="#263238"/>
<path d="M100.835 74.6567C101.546 74.3823 102.29 74.201 103.049 74.1173C103.403 74.061 103.725 73.9724 103.773 73.7309C103.785 73.3658 103.684 73.0059 103.483 72.7005C103.097 71.8955 102.678 71.002 102.284 70.0843C100.626 66.3571 99.4019 63.29 99.5468 63.2256C99.6917 63.1612 101.157 66.1237 102.831 69.8508C103.234 70.7685 103.636 71.646 103.982 72.4832C104.225 72.8956 104.318 73.3786 104.248 73.8517C104.204 73.9799 104.132 74.0961 104.035 74.1911C103.939 74.2862 103.821 74.3574 103.693 74.3991C103.503 74.4654 103.305 74.506 103.105 74.5198C102.356 74.6547 101.594 74.7006 100.835 74.6567Z" fill="#263238"/>
<path d="M95.359 60.4005C95.2383 60.7788 93.8537 60.6822 92.2517 60.972C90.6498 61.2618 89.3698 61.777 89.1364 61.447C89.0317 61.294 89.241 60.9318 89.7401 60.5373C90.4173 60.0516 91.1963 59.7266 92.0179 59.5871C92.8395 59.4476 93.6821 59.4973 94.4816 59.7323C95.0853 59.9416 95.4073 60.2153 95.359 60.4005Z" fill="#263238"/>
<path d="M108.086 60.827C107.869 61.149 106.903 60.8833 105.76 60.9316C104.617 60.9799 103.667 61.2617 103.425 60.9316C103.321 60.7787 103.425 60.4567 103.852 60.1266C104.397 59.7358 105.049 59.5197 105.72 59.5068C106.392 59.4784 107.056 59.6614 107.619 60.03C108.038 60.352 108.191 60.666 108.086 60.827Z" fill="#263238"/>
<path d="M109.344 55.1525C109.344 55.1525 106.663 49.6784 103.878 48.5192C100.513 47.1266 99.3133 50.8054 96.1416 50.1292C92.9699 49.453 89.7579 48.1006 86.707 50.6927C83.3743 53.5344 85.097 55.2974 85.097 59.2821C85.1453 75.4385 82.4646 80.1639 81.1927 72.629C81.0559 71.824 78.7052 71.2686 78.1659 67.799C77.4575 63.2749 76.9664 57.7526 77.7956 54.4602C78.4959 51.6909 79.9369 49.7187 82.6256 47.4808C86.8358 43.9549 92.8652 43.5363 96.9949 43.7134C101.125 43.8905 109.319 48.1006 109.344 55.1525Z" fill="#263238"/>
<path d="M81.7803 72.3236C81.7532 71.9929 81.6583 71.6713 81.5014 71.3788C81.3446 71.0864 81.1291 70.8295 80.8685 70.624C80.6079 70.4185 80.3078 70.269 79.9868 70.1847C79.6658 70.1004 79.331 70.0831 79.003 70.134C77.3447 70.3916 75.5415 71.4462 75.8474 74.8916C76.3948 81.0016 82.4162 79.1903 82.4162 79.0132C82.4162 78.8361 82.0298 74.8835 81.7803 72.3236Z" fill="#FFBF9D"/>
<path d="M80.8948 76.8303C80.8948 76.8303 80.7982 76.9188 80.6211 77.0154C80.3742 77.1475 80.0858 77.1793 79.8161 77.104C79.156 76.9269 78.52 75.9448 78.3912 74.85C78.3275 74.3266 78.3825 73.7955 78.5522 73.2963C78.5923 73.1011 78.6792 72.9186 78.8054 72.7643C78.9316 72.6101 79.0933 72.4888 79.2767 72.4108C79.3957 72.3686 79.5255 72.3688 79.6444 72.4113C79.7632 72.4538 79.8637 72.5361 79.9288 72.6443C80.0334 72.8053 80.0012 72.934 80.0334 72.9421C80.0656 72.9501 80.1542 72.8294 80.0817 72.5798C80.0362 72.4305 79.9392 72.3022 79.808 72.2176C79.6284 72.1045 79.4114 72.0669 79.2043 72.1129C78.9589 72.1861 78.7363 72.3205 78.5574 72.5036C78.3785 72.6868 78.2493 72.9125 78.1819 73.1595C77.9686 73.7126 77.894 74.3096 77.9646 74.8983C78.1175 76.1299 78.8501 77.2247 79.7517 77.4018C79.9198 77.4353 80.0934 77.4302 80.2593 77.387C80.4252 77.3438 80.5792 77.2635 80.7096 77.1523C80.8948 76.9832 80.9189 76.8464 80.8948 76.8303Z" fill="#FF9A6C"/>
<path d="M110.648 48.5191C109.706 47.8107 108.41 47.7141 107.476 46.9977C103.316 43.8042 96.6129 37.7091 90.8888 40.8959C88.7107 42.1085 85.9615 42.2125 84.0181 43.6006C83.4528 44.0475 82.9874 44.608 82.6519 45.2458C82.3164 45.8835 82.1182 46.5845 82.07 47.3036C82.07 47.3036 81.4341 46.9816 79.5021 48.5111C78.2704 49.4851 77.2642 51.5862 76.8134 53.0835C76.1452 55.3294 77.1193 57.6962 78.0772 59.8294C78.5924 60.9806 79.2364 62.2444 80.4359 62.655C81.8929 63.146 83.5029 62.0029 84.0745 60.57C84.646 59.1371 85.5476 57.6962 86.2399 56.3196C87.4474 53.9046 88.6549 51.6989 87.6648 50.1694C90.93 49.1089 93.0942 51.0056 95.9966 52.0289C97.2173 52.4594 102.143 53.276 103.5 52.9513C103.939 52.8464 104.349 52.6439 104.699 52.359C105.252 53.2599 106.124 53.9194 107.141 54.2059C108.159 54.4923 109.247 54.3848 110.189 53.9046C112.008 52.7776 112.33 49.791 110.648 48.5191Z" fill="#263238"/>
<path d="M77.4653 58.3875C77.7478 58.8294 77.9852 59.2987 78.1737 59.7882C78.3945 60.2826 78.7415 60.7102 79.18 61.0279C79.7661 61.3278 80.4411 61.405 81.0798 61.2452C81.7438 61.1164 82.3707 60.8414 82.9152 60.4402C83.3543 60.0994 83.7539 59.7106 84.1066 59.281C84.4148 58.8596 84.7568 58.4638 85.129 58.0977C84.9327 58.5852 84.6611 59.0388 84.324 59.442C83.9868 59.9161 83.5859 60.3413 83.1325 60.7059C82.5515 61.1447 81.8763 61.4424 81.1603 61.5753C80.4348 61.7551 79.6679 61.6484 79.019 61.2774C78.5341 60.9224 78.1645 60.4324 77.9564 59.8687C77.7324 59.397 77.5674 58.8995 77.4653 58.3875Z" fill="#FFD000"/>
<path d="M77.6989 63.1146C78.0674 63.394 78.474 63.619 78.9065 63.7828C79.3769 63.9318 79.8743 63.9757 80.3635 63.9116C80.9641 63.8203 81.5379 63.6007 82.046 63.2676C82.9688 62.6266 83.7521 61.805 84.3483 60.8526C84.5759 60.4394 84.8457 60.0509 85.1533 59.6934C85.0124 60.1539 84.8035 60.5907 84.5334 60.9894C83.9864 62.0378 83.1937 62.9383 82.2231 63.6137C81.6703 63.9795 81.0384 64.2085 80.3796 64.2819C79.8332 64.342 79.2805 64.2674 78.7696 64.0645C77.9485 63.6701 77.6587 63.1227 77.6989 63.1146Z" fill="#FFD000"/>
<path d="M96.7029 79.6289C96.4969 79.9662 96.3821 80.3164 96.3615 80.6697C96.3372 80.8368 96.3835 81.0047 96.4972 81.1618C96.6109 81.319 96.7894 81.4618 97.0205 81.5804C97.2599 81.7262 97.5589 81.8432 97.8964 81.9233C98.2338 82.0034 98.6015 82.0446 98.9734 82.0439C99.6443 82.0432 100.293 81.92 100.802 81.6964C101.311 81.4729 101.648 81.1636 101.752 80.8242L101.99 80.0558C100.601 79.8525 96.8061 79.6818 96.7029 79.6289Z" fill="#FF9A6C"/>
<path d="M100.948 81.1252C100.948 81.1252 100.753 81.1252 100.431 81.1411C99.9786 81.163 99.5184 81.163 99.0662 81.1411C98.4134 81.1089 97.8233 81.0007 97.4135 80.8381C96.9255 80.6348 96.6932 80.3822 96.7609 80.1285C96.7805 79.9858 96.8991 79.8462 97.1084 79.7193L96.9049 79.7485C98.3542 79.8176 99.6256 79.8734 100.524 79.9053C101.007 79.9336 101.499 79.9452 101.99 79.9399C101.532 79.884 101.054 79.8465 100.566 79.8282C99.668 79.7751 98.4136 79.7033 96.9643 79.6289H96.8287L96.7693 79.6661C96.4444 79.8636 96.3061 80.086 96.3707 80.3073C96.4353 80.5286 96.7 80.7395 97.1338 80.9152C97.6097 81.0951 98.291 81.2096 99.0323 81.2341C99.514 81.2474 99.9994 81.233 100.465 81.1916C100.639 81.1806 100.804 81.1579 100.948 81.1252Z" fill="#263238"/>
<path d="M60.4879 106.576C59.9566 106.576 52.3735 109.603 50.3771 117.041C48.3807 124.479 42.9308 151.769 42.9308 151.769L37.1428 159.787C37.1428 159.787 39.0185 174.414 49.6526 171.628C49.6526 171.628 56.7527 172.868 59.0147 165.671C61.2768 158.475 65.6641 137.005 65.6641 137.005L60.4879 106.576Z" fill="#B9B8B6"/>
<path d="M82.1472 94L78.1204 100.196L60 106.752L65.1865 160.234L63.2697 188.228C80 197.5 124.262 195.715 127 194.5C128.425 194.459 128.681 191.408 128.914 189.425C129.115 187.645 128.962 185.841 128.463 184.123L125.459 173.403C125.902 180.074 123.937 133.607 123.848 131.911L128.5 108.5C127.379 106.837 117.595 103.502 107.621 99.5154L104.399 94.5081L95.1215 101.687L82.1472 94Z" fill="#B9B8B6"/>
<path d="M128 108C128 108 131.804 111.654 132.523 114.468C133.242 117.281 148.907 149.692 148.907 149.692L156.689 151.697L158.77 155.82C159.985 158.185 160.312 160.877 159.696 163.444C159.08 166.012 157.558 168.298 155.386 169.92C155.116 170.116 154.833 170.297 154.54 170.462C150.311 172.887 142.783 172.758 138.376 167.794C134.206 163.089 122 146.176 122 146.176V125.479L128 108Z" fill="#B9B8B6"/>
<path d="M149.569 149.337C149.569 149.442 148.66 149.337 147.324 149.788C145.597 150.385 144.068 151.446 142.904 152.855C141.754 154.295 140.806 155.885 140.087 157.581C139.815 158.307 139.478 159.008 139.08 159.674C139.188 158.901 139.405 158.147 139.724 157.436C140.357 155.646 141.291 153.977 142.485 152.501C143.707 151.009 145.361 149.932 147.219 149.418C147.979 149.167 148.794 149.139 149.569 149.337Z" fill="#263238"/>
<path d="M46.4649 153.709L36.507 145.449L30.7915 151.889L31.4919 155.037L43.9372 166.758C45.7822 165.7 47.1744 164.001 47.8495 161.984C49.0892 158.434 46.4649 153.709 46.4649 153.709Z" fill="#FFBF9D"/>
<path d="M36.3943 149.747C36.8225 148.399 36.8994 146.964 36.6176 145.578C36.3359 144.192 35.7048 142.9 34.7843 141.826C32.5191 139.475 29.8704 137.526 26.9516 136.062C25.1967 135.008 21.7191 131.337 20.9382 132.037C20.4752 132.455 20.1799 133.026 20.1074 133.646C20.0348 134.265 20.1899 134.889 20.5438 135.402C21.3488 136.94 25.2289 138.727 25.092 140.699C25.0778 140.89 25.026 141.076 24.9398 141.247C24.8536 141.418 24.7346 141.57 24.5896 141.695C24.4446 141.82 24.2764 141.915 24.0946 141.975C23.9129 142.034 23.7211 142.058 23.5303 142.044C20.3183 141.896 17.1157 141.587 13.9347 141.118C11.1252 140.538 8.52508 140.78 8.55728 141.77C8.58948 142.76 9.06443 143.38 11.3828 143.839C13.7012 144.298 17.5331 144.644 17.6619 145.167C17.7907 145.69 16.9776 145.972 15.6171 145.722C14.2567 145.473 7.81668 144.708 7.29343 145.392C7.16372 145.564 7.07381 145.763 7.03018 145.974C6.98654 146.185 6.99027 146.403 7.04109 146.613C7.09191 146.822 7.18855 147.018 7.32406 147.185C7.45957 147.353 7.63057 147.488 7.82473 147.582L9.27373 148.298C9.27373 148.298 8.25138 149.417 8.90343 150.182C9.55548 150.947 11.246 150.907 11.246 150.907L19.8273 151.663C19.8273 151.663 20.254 152.235 19.9642 152.557C19.6744 152.879 13.0492 151.607 12.9123 152.34C12.7755 153.072 12.1476 153.338 14.0957 154.062C16.9698 154.895 19.9619 155.246 22.9507 155.101C24.8183 154.819 32.4336 155.366 32.4336 155.366L36.3943 149.747Z" fill="#FFBF9D"/>
<path d="M107.54 101.006C107.002 101.678 106.404 102.301 105.753 102.865C104.618 103.976 103.065 105.53 101.422 107.301C101.076 107.679 100.73 108.05 100.408 108.412L100.191 108.645L99.9894 108.396C98.7175 106.786 97.6146 105.305 96.8418 104.25C96.3881 103.714 96.0015 103.125 95.6907 102.495C96.225 102.952 96.7058 103.468 97.1236 104.033C97.9688 105.031 99.128 106.448 100.416 108.058H100.005L101.012 106.939C102.426 105.41 103.92 103.956 105.488 102.584C106.105 101.976 106.794 101.446 107.54 101.006Z" fill="#263238"/>
<path d="M61.623 120.502C61.771 120.857 61.8711 121.231 61.9209 121.613C62.0738 122.337 62.267 123.392 62.4763 124.696C62.8949 127.304 63.3377 130.927 63.708 134.936C64.0783 138.945 64.352 142.583 64.5613 145.216C64.6418 146.439 64.7223 147.478 64.7786 148.331C64.8291 148.713 64.8291 149.1 64.7786 149.482C64.6638 149.115 64.5882 148.738 64.5532 148.355C64.4405 147.622 64.3037 146.56 64.1588 145.248C63.8529 142.631 63.5148 139.001 63.1445 134.992C62.7742 130.983 62.4119 127.369 62.098 124.793C61.945 123.577 61.8162 122.539 61.7116 121.693C61.6284 121.302 61.5986 120.901 61.623 120.502Z" fill="#263238"/>
<path d="M124.606 118.676C124.721 119.132 124.789 119.599 124.808 120.068C124.896 120.978 124.993 122.282 125.073 123.908C125.258 127.128 125.347 131.636 125.363 136.579V153.09C125.389 153.56 125.37 154.032 125.307 154.498C125.202 154.039 125.151 153.569 125.154 153.098C125.089 152.188 125.025 150.876 124.977 149.258C124.864 146.038 124.824 141.53 124.816 136.587C124.808 131.644 124.767 127.161 124.687 123.924C124.647 122.387 124.614 121.099 124.59 120.085C124.552 119.615 124.557 119.144 124.606 118.676Z" fill="#263238"/>
<path d="M53.4522 165.123C53.2003 164.209 53.0147 163.279 52.8968 162.338C52.5196 160.092 51.7915 157.918 50.7394 155.898C49.6657 153.917 48.0523 152.282 46.0865 151.181C45.2411 150.777 44.3666 150.438 43.4702 150.166C43.7354 150.109 44.01 150.109 44.2752 150.166C44.9726 150.283 45.6502 150.497 46.2877 150.802C48.4029 151.857 50.1364 153.546 51.2465 155.632C52.3118 157.706 52.9884 159.957 53.2429 162.274C53.4324 163.211 53.5027 164.168 53.4522 165.123Z" fill="#263238"/>
<path d="M56.0364 154.248C55.9237 154.377 54.3217 152.727 51.7135 151.833C49.1053 150.94 46.8835 151.246 46.8352 151.077C46.7869 150.908 49.1456 150.36 51.8906 151.318C54.6357 152.276 56.1571 154.184 56.0364 154.248Z" fill="#263238"/>
<path d="M96.8901 191.656C96.8413 191.358 96.8197 191.057 96.8257 190.755C96.8257 190.119 96.8257 189.258 96.7693 188.179C96.721 185.885 96.6566 182.657 96.5761 178.688C96.391 170.638 96.1334 159.585 95.8436 147.381C95.5538 135.177 95.4008 124.076 95.4169 116.059C95.4169 112.034 95.4572 108.814 95.5055 106.56C95.5055 105.481 95.5618 104.62 95.586 103.984C95.5792 103.682 95.6008 103.38 95.6504 103.082C95.6728 103.382 95.6728 103.684 95.6504 103.984C95.6504 104.62 95.6504 105.481 95.6504 106.56C95.6504 108.854 95.6987 112.09 95.7309 116.051C95.8114 124.101 96.0448 135.137 96.3185 147.365C96.5922 159.593 96.8337 170.662 96.8981 178.68C96.8981 182.705 96.8981 185.925 96.8981 188.179C96.8981 189.258 96.8981 190.119 96.8579 190.755C96.8892 191.054 96.8999 191.356 96.8901 191.656Z" fill="#263238"/>
<path d="M45.9979 153.37C45.9979 153.305 46.8029 153.909 47.4469 155.246C47.8415 156.007 48.1287 156.82 48.3002 157.661C48.4655 158.728 48.4655 159.814 48.3002 160.881C48.18 161.949 47.8634 162.986 47.3664 163.94C46.936 164.713 46.3427 165.383 45.6276 165.904C44.9987 166.426 44.2068 166.71 43.3896 166.709C44.0971 166.416 44.7673 166.041 45.3861 165.59C46.0209 165.069 46.5439 164.426 46.9236 163.698C47.3544 162.788 47.6266 161.81 47.7286 160.808C47.8735 159.804 47.8735 158.785 47.7286 157.781C47.5903 156.952 47.3553 156.141 47.0283 155.366C46.5292 154.086 45.9174 153.418 45.9979 153.37Z" fill="#263238"/>
<path d="M155.937 166.967C155.937 166.967 155.679 166.967 155.269 166.765C154.693 166.511 154.151 166.184 153.659 165.791C151.972 164.492 150.818 162.621 150.415 160.531C150.012 158.44 150.387 156.274 151.469 154.441C151.785 153.89 152.169 153.381 152.612 152.927C152.926 152.621 153.128 152.476 153.152 152.501C153.176 152.525 152.508 153.249 151.807 154.626C150.871 156.407 150.569 158.453 150.951 160.428C151.333 162.404 152.376 164.19 153.908 165.493C155.06 166.508 155.977 166.878 155.937 166.967Z" fill="#263238"/>
<path d="M21.1394 148.879C21.1394 149.024 18.4588 149.169 15.1502 149.008C11.8417 148.847 9.18514 148.46 9.20124 148.307C9.21734 148.155 11.8819 148.307 15.1744 148.46C18.4668 148.613 21.1394 148.718 21.1394 148.879Z" fill="#FF9A6C"/>
<path d="M27.2332 148.42C27.2332 148.477 26.5973 148.372 25.8406 147.736C25.3505 147.31 24.9606 146.781 24.699 146.187C24.4374 145.592 24.3104 144.948 24.3272 144.299C24.3845 143.612 24.5085 142.933 24.6975 142.27C24.8384 141.745 24.9061 141.203 24.8987 140.66C24.8525 140.175 24.7415 139.699 24.5687 139.243C24.5687 139.187 25.1563 139.613 25.2851 140.628C25.3502 141.198 25.3175 141.775 25.1885 142.334C25.037 142.973 24.9321 143.621 24.8746 144.274C24.8575 145.442 25.2998 146.569 26.1062 147.414C26.7261 148.138 27.2735 148.34 27.2332 148.42Z" fill="#FF9A6C"/>
<path d="M95.0386 101.971C94.717 103.043 94.3106 104.087 93.823 105.095C93.6057 105.578 93.3803 106.101 93.1468 106.64C92.9159 107.255 92.6471 107.854 92.3418 108.435C92.2256 108.626 92.0566 108.78 91.8552 108.877C91.6538 108.974 91.4286 109.011 91.2068 108.983C90.8168 108.88 90.4541 108.693 90.1442 108.435L88.2444 107.139C85.6522 105.352 83.3258 103.702 81.6514 102.494C80.7152 101.882 79.832 101.193 79.011 100.434C80.0083 100.936 80.9639 101.518 81.8687 102.172C83.5995 103.307 85.9662 104.893 88.5583 106.688L90.4501 107.993C90.6968 108.206 90.9844 108.368 91.2953 108.468C91.4222 108.483 91.5508 108.459 91.6642 108.401C91.7776 108.342 91.8707 108.25 91.9313 108.137C92.5431 107.027 93.0502 105.827 93.5413 104.917C93.9576 103.895 94.4584 102.91 95.0386 101.971Z" fill="#263238"/>
<path d="M153.58 158.427L162.742 153L168 157.231L167.356 159.299L155.906 167C154.208 166.305 152.927 165.189 152.306 163.864C151.165 161.531 153.58 158.427 153.58 158.427Z" fill="#FFBF9D"/>
<path d="M138.377 120.502C138.229 120.857 138.129 121.231 138.079 121.613C137.926 122.337 137.733 123.392 137.524 124.696C137.105 127.304 136.662 130.927 136.292 134.936C135.922 138.945 135.648 142.583 135.439 145.216C135.358 146.439 135.278 147.478 135.221 148.331C135.171 148.713 135.171 149.1 135.221 149.482C135.336 149.115 135.412 148.738 135.447 148.355C135.559 147.622 135.696 146.56 135.841 145.248C136.147 142.631 136.485 139.001 136.856 134.992C137.226 130.983 137.588 127.369 137.902 124.793C138.055 123.577 138.184 122.539 138.288 121.693C138.372 121.302 138.401 120.901 138.377 120.502Z" fill="#263238"/>
<path d="M146.548 165.123C146.8 164.209 146.985 163.279 147.103 162.338C147.48 160.092 148.208 157.918 149.261 155.898C150.334 153.917 151.948 152.282 153.914 151.181C154.759 150.777 155.633 150.438 156.53 150.166C156.265 150.109 155.99 150.109 155.725 150.166C155.027 150.283 154.35 150.497 153.712 150.802C151.597 151.857 149.864 153.546 148.753 155.632C147.688 157.706 147.012 159.957 146.757 162.274C146.568 163.211 146.497 164.168 146.548 165.123Z" fill="#263238"/>
<path d="M143.964 154.248C144.076 154.377 145.678 152.727 148.286 151.833C150.895 150.94 153.116 151.246 153.165 151.077C153.213 150.908 150.854 150.36 148.109 151.318C145.364 152.276 143.843 154.184 143.964 154.248Z" fill="#263238"/>
<path d="M154.002 153.37C154.002 153.305 153.197 153.909 152.553 155.246C152.158 156.007 151.871 156.82 151.7 157.661C151.534 158.728 151.534 159.814 151.7 160.881C151.82 161.949 152.137 162.986 152.634 163.94C153.064 164.713 153.657 165.383 154.372 165.904C155.001 166.426 155.793 166.71 156.61 166.709C155.903 166.416 155.233 166.041 154.614 165.59C153.979 165.069 153.456 164.426 153.076 163.698C152.646 162.788 152.373 161.81 152.271 160.808C152.127 159.804 152.127 158.785 152.271 157.781C152.41 156.952 152.645 156.141 152.972 155.366C153.471 154.086 154.083 153.418 154.002 153.37Z" fill="#263238"/>
<path d="M165.539 129.717L123.513 137.94L108 188.441L148.033 179.562L165.539 129.717Z" fill="#263238"/>
<path opacity="0.4" d="M135.753 138.407C135.959 137.695 137.944 136.746 140.498 136.098C140.498 136.003 140.545 135.916 140.569 135.845C140.759 135.054 140.466 134.619 138.94 134.92L138.853 134.311L153.876 131.504L153.22 132.121C151.235 132.461 150.405 132.674 150.057 133.995L149.97 134.295C152.342 134.026 153.924 134.295 153.726 134.975L153.283 136.556L135.382 139.988L135.753 138.407Z" fill="black"/>
<path d="M157 152.499C152.151 152.134 148.621 150.73 144.464 148.607C143.448 148.091 142.581 147.891 141.669 148.939C141.346 149.315 140.905 149.832 141.956 151.011C142.304 151.287 142.545 151.699 142.643 152.189C141.68 152.517 141.249 153.049 141.916 154.198C140.845 155.201 140.573 156.304 141.806 157.464C141.23 158.884 141.325 160.096 142.648 160.896C144.177 164.167 147.961 166.399 151.144 167.285C153.353 167.812 155.64 168.084 157.973 168.098C171.915 164.312 168.252 153.861 164.883 153.237C162.854 150.828 161.028 150.016 158.453 148.88" fill="#FFBF9D"/>
<path d="M154.285 155.618C154.339 155.476 151.731 154.597 148.492 153.666C145.252 152.734 142.581 152.107 142.536 152.245C142.492 152.383 145.09 153.267 148.332 154.191C151.574 155.114 154.24 155.757 154.285 155.618Z" fill="#FF9A6C"/>
<path d="M156.002 162.182C156.002 162.238 156.638 162.134 157.395 161.498C157.885 161.072 158.275 160.543 158.536 159.948C158.798 159.354 158.925 158.709 158.908 158.06C158.851 157.374 158.727 156.694 158.538 156.032C158.397 155.507 158.329 154.965 158.337 154.422C158.383 153.937 158.494 153.46 158.667 153.005C158.667 152.949 158.079 153.375 157.95 154.39C157.885 154.96 157.918 155.537 158.047 156.096C158.198 156.734 158.303 157.383 158.361 158.036C158.378 159.204 157.936 160.331 157.129 161.176C156.509 161.9 155.962 162.101 156.002 162.182Z" fill="#FF9A6C"/>
<path d="M141.789 157.005C141.735 156.99 141.666 157.631 142.077 158.53C142.356 159.116 142.762 159.633 143.265 160.044C143.768 160.455 144.355 160.749 144.985 160.906C145.662 161.034 146.35 161.096 147.039 161.091C149.39 161.11 150.381 160.743 147.108 160.601C146.453 160.576 145.8 160.504 145.155 160.385C144.025 160.09 143.056 159.363 142.458 158.36C141.925 157.569 141.877 156.988 141.789 157.005Z" fill="#FF9A6C"/>
<path d="M142.018 154.068C141.974 154.056 141.885 154.691 142.169 155.555C142.364 156.118 142.664 156.605 143.048 156.983C143.433 157.361 143.892 157.62 144.393 157.741C144.933 157.832 145.485 157.856 146.042 157.814C147.94 157.707 148.76 157.294 146.124 157.327C145.596 157.338 145.072 157.302 144.557 157.219C143.66 156.988 142.916 156.323 142.486 155.367C142.098 154.617 142.09 154.046 142.018 154.068Z" fill="#FF9A6C"/>
<path d="M155.983 131.325C156.141 130.852 155.191 130.661 153.804 130.915L151.349 131.374C151.349 131.374 152.291 128.366 146.849 129.122C141.407 129.877 139.989 133.274 139.989 133.274L137.367 133.776C135.917 134.058 134.57 134.665 134.372 135.138L134 136L155.69 132.215C155.69 132.215 155.832 131.805 155.983 131.325Z" fill="#FFD000"/>
<path d="M135.382 138.509C135.593 137.838 137.632 136.943 140.256 136.332C140.256 136.242 140.304 136.16 140.329 136.093C140.524 135.348 140.223 134.938 138.655 135.221L138.566 134.647L154 132L153.326 132.582C151.287 132.902 150.434 133.103 150.077 134.349L149.987 134.632C152.424 134.378 154.049 134.632 153.846 135.273L153.391 136.764L135 140L135.382 138.509Z" fill="#FFD000"/>
<path d="M76.8807 58.1422C73.0363 46.5716 82.7455 38.8267 87.3756 37.0963C94.9615 34.2902 105.728 37.3488 110.086 44.177C110.086 44.177 127.213 41.1277 126.998 41.9415C126.166 45.075 76.8807 58.1422 76.8807 58.1422Z" fill="#FFD000"/>
<path opacity="0.3" d="M110.087 44.1773L76.8808 58.1424C76.8808 58.1424 74.2431 51.4171 78.209 45.0472C80.3492 41.2041 83.8387 38.2912 88.0024 36.8721C92.2677 35.3193 96.8323 36.1238 100.162 37.0966C104.222 38.1708 107.75 40.6883 110.087 44.1773Z" fill="black"/>
<path d="M82.8671 55.1208C82.7471 54.884 82.659 54.6324 82.6052 54.3725C82.4052 53.6783 82.2675 52.9677 82.1936 52.2492C82.0665 51.1814 82.0414 50.104 82.1188 49.0315C82.2204 47.7209 82.4523 46.4237 82.811 45.159C83.1972 43.9 83.7046 42.6814 84.3263 41.5204C84.8409 40.578 85.4421 39.6856 86.1222 38.8546C86.5771 38.2936 87.0777 37.7711 87.6188 37.2926C88.0023 36.9558 88.2268 36.7875 88.2455 36.8155C88.2642 36.8436 87.4785 37.6386 86.3747 39.0698C85.75 39.9114 85.1902 40.7995 84.7004 41.7262C84.1393 42.8751 83.6793 44.0707 83.3254 45.2993C82.976 46.5225 82.738 47.7748 82.6145 49.0408C82.5313 50.0868 82.5313 51.1377 82.6145 52.1837C82.6707 54.0077 82.9606 55.0927 82.8671 55.1208Z" fill="#263238"/>
<path d="M98.4784 49.2938C98.3942 49.2938 98.2165 48.3585 97.6739 46.9835C96.2504 43.3071 93.6092 40.23 90.191 38.2658C88.8814 37.5175 87.9928 37.1901 88.0209 37.1153C88.049 37.0405 88.2641 37.1153 88.6757 37.265C89.2514 37.4505 89.8113 37.682 90.35 37.9571C93.964 39.8115 96.7075 43.0083 97.992 46.8619C98.1846 47.4381 98.3285 48.0295 98.4222 48.6297C98.4971 49.0507 98.5158 49.2845 98.4784 49.2938Z" fill="#263238"/>
<path d="M95.9717 46.1702L96.7106 47.8819L103.894 45.0758L103.314 43.2051L95.9717 46.1702Z" fill="#FAFAFA"/>
</svg>
