<svg width="200" height="200" viewBox="0 0 200 200" fill="none" xmlns="http://www.w3.org/2000/svg">
<path fill-rule="evenodd" clip-rule="evenodd" d="M96.6489 40.0786C72.5164 41.5624 60.8087 65.3973 46.0572 82.1754C34.101 95.7741 23.0389 109.409 20.7142 126.445C18.0291 146.122 16.4425 168.605 32.3369 182.721C48.2827 196.882 74.0361 195.809 96.6489 193.883C119.863 194.322 138.62 187.342 149.552 172.737C165.068 160.174 178.921 144.922 179.935 126.445C180.989 107.244 169.055 90.1752 154.888 75.4837C139.04 59.05 121.162 38.5713 96.6489 40.0786Z" fill="#FFF3CC"/>
<path d="M107.94 44.8647L107.07 44.8164C102.876 44.5763 98.7456 45.9237 95.4999 48.5907C92.2541 51.2577 90.1313 55.0488 89.5536 59.2099C88.4427 67.2599 89.7307 68.6774 89.5536 73.0002C89.1431 81.968 97.816 88.5002 97.816 88.5002L95.2933 94.952C95.1675 96.3825 95.3256 97.8237 95.7585 99.1929C96.1915 100.562 96.8907 101.832 97.816 102.93C98.7413 104.029 99.8745 104.933 101.151 105.592C102.426 106.251 103.82 106.651 105.251 106.769C108.103 106.998 110.93 106.096 113.123 104.259C115.316 102.422 116.698 99.796 116.972 96.9484L120.192 63.6937C121.496 54.4362 117.23 45.9515 107.94 44.8647Z" fill="#FFBF9D"/>
<path d="M98 88.5007C102.149 88.7417 106.371 87.6491 110 85.6777C110 85.6777 105.881 91.7827 97 90.5007L98 88.5007Z" fill="#FF9A6C"/>
<path d="M104.004 68.3284C103.975 68.7349 104.102 69.1368 104.357 69.447C104.613 69.7572 104.976 69.9508 105.368 69.9858C105.559 70.0133 105.753 70.0008 105.939 69.9492C106.125 69.8975 106.299 69.8078 106.451 69.6852C106.603 69.5627 106.729 69.4099 106.823 69.2358C106.917 69.0617 106.976 68.8698 106.997 68.6716C107.021 68.2663 106.892 67.8672 106.638 67.5581C106.384 67.249 106.023 67.054 105.633 67.0142C105.442 66.9867 105.248 66.9992 105.062 67.0509C104.876 67.1025 104.702 67.1922 104.55 67.3148C104.398 67.4373 104.272 67.5901 104.178 67.7642C104.084 67.9383 104.025 68.1302 104.004 68.3284Z" fill="#263238"/>
<path d="M91.212 63.701C91.3649 63.8781 92.3712 63.21 93.7477 63.2985C95.1243 63.3871 96.0984 64.1035 96.2513 63.9667C96.4043 63.8298 96.1869 63.5883 95.7683 63.2422C95.1958 62.793 94.4986 62.5316 93.7719 62.4935C93.0568 62.4539 92.3472 62.6397 91.7433 63.0248C91.3166 63.3227 91.1556 63.6125 91.212 63.701Z" fill="#263238"/>
<path d="M92.0028 68.3284C91.9789 68.7337 92.1076 69.1328 92.3621 69.4419C92.6165 69.751 92.9767 69.946 93.3671 69.9858C93.5579 70.0133 93.752 70.0008 93.938 69.9491C94.1241 69.8975 94.2982 69.8078 94.4501 69.6852C94.6021 69.5627 94.7287 69.4099 94.8226 69.2358C94.9165 69.0617 94.9756 68.8698 94.9966 68.6716C95.023 68.2657 94.8951 67.8652 94.6402 67.5556C94.3854 67.2459 94.0237 67.0516 93.6323 67.0142C93.4416 66.9867 93.2474 66.9992 93.0614 67.0509C92.8754 67.1025 92.7012 67.1922 92.5493 67.3148C92.3974 67.4373 92.2707 67.5901 92.1769 67.7642C92.083 67.9383 92.0238 68.1302 92.0028 68.3284Z" fill="#263238"/>
<path d="M104.744 64.7316C104.889 64.9087 105.903 64.2486 107.28 64.3291C108.656 64.4096 109.622 65.1341 109.783 64.9973C109.944 64.8604 109.719 64.6189 109.292 64.2728C108.724 63.8278 108.033 63.5691 107.312 63.5322C106.596 63.4864 105.885 63.6727 105.283 64.0635C104.833 64.3613 104.672 64.6511 104.744 64.7316Z" fill="#263238"/>
<path d="M99.1652 74.6567C98.4536 74.3823 97.7095 74.201 96.9514 74.1173C96.5972 74.061 96.2752 73.9724 96.2269 73.7309C96.2149 73.3658 96.3162 73.0059 96.5167 72.7005C96.9031 71.8955 97.3217 71.002 97.7162 70.0843C99.3745 66.3571 100.598 63.29 100.453 63.2256C100.308 63.1612 98.8432 66.1237 97.1688 69.8508C96.7663 70.7685 96.3638 71.646 96.0176 72.4832C95.7753 72.8956 95.6816 73.3786 95.752 73.8517C95.7956 73.9799 95.8685 74.0961 95.9649 74.1911C96.0613 74.2862 96.1786 74.3574 96.3074 74.3991C96.497 74.4654 96.6947 74.506 96.8951 74.5198C97.6438 74.6547 98.4057 74.7006 99.1652 74.6567Z" fill="#263238"/>
<path d="M104.641 60.4005C104.762 60.7788 106.146 60.6822 107.748 60.972C109.35 61.2618 110.63 61.777 110.864 61.447C110.968 61.294 110.759 60.9318 110.26 60.5373C109.583 60.0516 108.804 59.7266 107.982 59.5871C107.161 59.4476 106.318 59.4973 105.518 59.7323C104.915 59.9416 104.593 60.2153 104.641 60.4005Z" fill="#263238"/>
<path d="M91.9137 60.827C92.1311 61.149 93.0971 60.8833 94.2402 60.9316C95.3833 60.9799 96.3332 61.2617 96.5747 60.9316C96.6793 60.7787 96.5747 60.4567 96.148 60.1266C95.6025 59.7358 94.9513 59.5197 94.2804 59.5068C93.608 59.4784 92.9436 59.6614 92.3806 60.03C91.962 60.352 91.8091 60.666 91.9137 60.827Z" fill="#263238"/>
<path d="M90.6564 55.1525C90.6564 55.1525 93.337 49.6784 96.1223 48.5192C99.4872 47.1266 100.687 50.8054 103.858 50.1292C107.03 49.453 110.242 48.1006 113.293 50.6927C116.626 53.5344 114.903 55.2974 114.903 59.2821C114.855 75.4385 117.535 80.1639 118.807 72.629C118.944 71.824 121.295 71.2686 121.834 67.799C122.543 63.2749 123.034 57.7526 122.204 54.4602C121.504 51.6909 120.063 49.7187 117.374 47.4808C113.164 43.9549 107.135 43.5363 103.005 43.7134C98.8754 43.8905 90.6805 48.1006 90.6564 55.1525Z" fill="#263238"/>
<path d="M118.22 72.3236C118.247 71.9929 118.342 71.6713 118.499 71.3788C118.655 71.0864 118.871 70.8295 119.131 70.624C119.392 70.4185 119.692 70.269 120.013 70.1847C120.334 70.1004 120.669 70.0831 120.997 70.134C122.655 70.3916 124.458 71.4462 124.153 74.8916C123.605 81.0016 117.584 79.1903 117.584 79.0132C117.584 78.8361 117.97 74.8835 118.22 72.3236Z" fill="#FFBF9D"/>
<path d="M119.105 76.8303C119.105 76.8303 119.202 76.9188 119.379 77.0154C119.626 77.1475 119.914 77.1793 120.184 77.104C120.844 76.9269 121.48 75.9448 121.609 74.85C121.673 74.3266 121.617 73.7955 121.448 73.2963C121.408 73.1011 121.321 72.9186 121.195 72.7643C121.068 72.6101 120.907 72.4888 120.723 72.4108C120.604 72.3686 120.474 72.3688 120.356 72.4113C120.237 72.4538 120.136 72.5361 120.071 72.6443C119.967 72.8053 119.999 72.934 119.967 72.9421C119.934 72.9501 119.846 72.8294 119.918 72.5798C119.964 72.4305 120.061 72.3022 120.192 72.2176C120.372 72.1045 120.589 72.0669 120.796 72.1129C121.041 72.1861 121.264 72.3205 121.443 72.5036C121.621 72.6868 121.751 72.9125 121.818 73.1595C122.031 73.7126 122.106 74.3096 122.035 74.8983C121.882 76.1299 121.15 77.2247 120.248 77.4018C120.08 77.4353 119.907 77.4302 119.741 77.387C119.575 77.3438 119.421 77.2635 119.29 77.1523C119.105 76.9832 119.081 76.8464 119.105 76.8303Z" fill="#FF9A6C"/>
<path d="M89.3524 48.5191C90.2943 47.8107 91.5903 47.7141 92.5241 46.9977C96.6835 43.8042 103.387 37.7091 109.111 40.8959C111.289 42.1085 114.038 42.2125 115.982 43.6006C116.547 44.0475 117.013 44.608 117.348 45.2458C117.684 45.8835 117.882 46.5845 117.93 47.3036C117.93 47.3036 118.566 46.9816 120.498 48.5111C121.73 49.4851 122.736 51.5862 123.187 53.0835C123.855 55.3294 122.881 57.6962 121.923 59.8294C121.408 60.9806 120.764 62.2444 119.564 62.655C118.107 63.146 116.497 62.0029 115.926 60.57C115.354 59.1371 114.452 57.6962 113.76 56.3196C112.553 53.9046 111.345 51.6989 112.335 50.1694C109.07 49.1089 106.906 51.0056 104.003 52.0289C102.783 52.4594 97.8575 53.276 96.4995 52.9513C96.0607 52.8464 95.6512 52.6439 95.3014 52.359C94.7484 53.2599 93.8762 53.9194 92.8587 54.2059C91.8411 54.4923 90.753 54.3848 89.8112 53.9046C87.9919 52.7776 87.6699 49.791 89.3524 48.5191Z" fill="#263238"/>
<path d="M122.535 58.3875C122.252 58.8294 122.015 59.2987 121.826 59.7882C121.606 60.2826 121.258 60.7102 120.82 61.0279C120.234 61.3278 119.559 61.405 118.92 61.2452C118.256 61.1164 117.629 60.8414 117.085 60.4402C116.646 60.0994 116.246 59.7106 115.893 59.281C115.585 58.8596 115.243 58.4638 114.871 58.0977C115.067 58.5852 115.339 59.0388 115.676 59.442C116.013 59.9161 116.414 60.3413 116.867 60.7059C117.449 61.1447 118.124 61.4424 118.84 61.5753C119.565 61.7551 120.332 61.6484 120.981 61.2774C121.466 60.9224 121.835 60.4324 122.044 59.8687C122.268 59.397 122.433 58.8995 122.535 58.3875Z" fill="#FFD000"/>
<path d="M122.301 63.1146C121.933 63.394 121.526 63.619 121.094 63.7828C120.623 63.9318 120.126 63.9757 119.636 63.9116C119.036 63.8203 118.462 63.6007 117.954 63.2676C117.031 62.6266 116.248 61.805 115.652 60.8526C115.424 60.4394 115.154 60.0509 114.847 59.6934C114.988 60.1539 115.197 60.5907 115.467 60.9894C116.014 62.0378 116.806 62.9383 117.777 63.6137C118.33 63.9795 118.962 64.2085 119.62 64.2819C120.167 64.342 120.72 64.2674 121.23 64.0645C122.051 63.6701 122.341 63.1227 122.301 63.1146Z" fill="#FFD000"/>
<path d="M103.297 79.6289C103.503 79.9662 103.618 80.3164 103.638 80.6697C103.663 80.8368 103.617 81.0047 103.503 81.1618C103.389 81.319 103.211 81.4618 102.98 81.5804C102.74 81.7262 102.441 81.8432 102.104 81.9233C101.766 82.0034 101.398 82.0446 101.027 82.0439C100.356 82.0432 99.7074 81.92 99.1981 81.6964C98.6888 81.4729 98.3518 81.1636 98.2479 80.8242L98.0098 80.0558C99.3991 79.8525 103.194 79.6818 103.297 79.6289Z" fill="#FF9A6C"/>
<path d="M99.0522 81.1252C99.0522 81.1252 99.2472 81.1252 99.5693 81.1411C100.021 81.163 100.482 81.163 100.934 81.1411C101.587 81.1089 102.177 81.0007 102.587 80.8381C103.075 80.6348 103.307 80.3822 103.239 80.1285C103.22 79.9858 103.101 79.8462 102.892 79.7193L103.095 79.7485C101.646 79.8176 100.374 79.8734 99.476 79.9053C98.9928 79.9336 98.5011 79.9452 98.0098 79.9399C98.4676 79.884 98.9459 79.8465 99.4336 79.8282C100.332 79.7751 101.586 79.7033 103.036 79.6289H103.171L103.231 79.6661C103.556 79.8636 103.694 80.086 103.629 80.3073C103.565 80.5286 103.3 80.7395 102.866 80.9152C102.39 81.0951 101.709 81.2096 100.968 81.2341C100.486 81.2474 100.001 81.233 99.5354 81.1916C99.361 81.1806 99.1962 81.1579 99.0522 81.1252Z" fill="#263238"/>
<path d="M139.512 106.576C140.043 106.576 147.627 109.603 149.623 117.041C151.619 124.479 157.069 151.769 157.069 151.769L162.857 159.787C162.857 159.787 160.982 174.414 150.347 171.628C150.347 171.628 143.247 172.868 140.985 165.671C138.723 158.475 134.336 137.005 134.336 137.005L139.512 106.576Z" fill="#B9B8B6"/>
<path d="M117.853 94L121.88 100.196L140 106.752L134.814 160.234V185.5C115.5 197.5 77.2791 196.215 74.5409 195C73.1154 194.959 71.3195 191.408 71.0859 189.425C70.8846 187.645 71.038 185.841 71.5369 184.123L74.5409 173.403C74.0979 180.074 76.063 133.607 76.1516 131.911L71.5 108.5C73.0906 106.405 82.0743 103.291 92.3795 99.5154L95.6009 94.5081L104.879 101.687L117.853 94Z" fill="#B9B8B6"/>
<path d="M72 108C72 108 67.4544 111.654 66.7543 114.468C66.0543 117.281 50.8011 149.692 50.8011 149.692L43.2239 151.697L41.1978 155.82C40.0144 158.185 39.6959 160.877 40.2958 163.444C40.8957 166.012 42.3775 168.298 44.4922 169.92C44.7556 170.116 45.0307 170.297 45.3158 170.462C49.4339 172.887 56.764 172.758 61.055 167.794C65.1154 163.089 77 146.176 77 146.176V125.479L72 108Z" fill="#B9B8B6"/>
<path d="M47.0495 152.59L36.3993 146.303L31.2634 152.59L32.326 155.633L46.0594 165.848C47.7643 164.457 48.9081 162.495 49.2794 160.326C49.8831 156.486 47.0495 152.59 47.0495 152.59Z" fill="#FFBF9D"/>
<path d="M50.4305 149.337C50.4305 149.442 51.3402 149.337 52.6765 149.788C54.4033 150.385 55.9323 151.446 57.0959 152.855C58.2458 154.295 59.1937 155.885 59.9134 157.581C60.1847 158.307 60.5215 159.008 60.9197 159.674C60.8123 158.901 60.5955 158.147 60.2757 157.436C59.6431 155.646 58.7093 153.977 57.5145 152.501C56.2929 151.009 54.6394 149.932 52.7811 149.418C52.0213 149.167 51.2057 149.139 50.4305 149.337Z" fill="#263238"/>
<path d="M36.5764 149.789C36.8418 148.399 36.7467 146.964 36.3 145.621C35.8532 144.277 35.0698 143.071 34.0245 142.117C31.5099 140.049 28.6664 138.416 25.6122 137.287C23.7446 136.482 19.8564 133.206 19.1722 133.995C18.4879 134.784 18.182 135.959 19.1722 137.392C20.1623 138.825 25.7893 140.958 25.0004 142.769C24.6784 143.502 22.9074 143.639 22.9074 143.639C19.6927 143.865 16.4686 143.929 13.2474 143.832C10.3977 143.582 7.83777 144.13 7.99072 145.112C8.14367 146.094 8.67497 146.633 11.0336 146.834C13.3923 147.036 17.2321 146.883 17.4736 147.422C17.7151 147.961 16.8779 148.308 15.5014 148.227C14.1248 148.147 7.63652 148.122 7.19377 148.863C7.0861 149.051 7.02143 149.261 7.00446 149.477C6.98749 149.692 7.01864 149.91 7.09563 150.112C7.17262 150.314 7.29354 150.497 7.44971 150.648C7.60588 150.798 7.79341 150.911 7.99878 150.98L9.52022 151.52C9.52022 151.52 8.63472 152.751 9.37532 153.435C10.1159 154.12 11.7903 153.878 11.7903 153.878L20.3958 153.637C20.3958 153.637 20.8869 154.152 20.6454 154.506C20.4039 154.86 13.6579 154.369 13.6096 155.11C13.5613 155.85 12.9737 156.189 14.9862 156.72C17.9336 157.211 20.9421 157.211 23.8895 156.72C25.7088 156.221 33.3322 155.915 33.3322 155.915L36.5764 149.789Z" fill="#FFBF9D"/>
<path d="M153.535 153.709L163.493 145.449L169.208 151.889L168.508 155.037L156.063 166.758C154.218 165.7 152.826 164.001 152.15 161.984C150.911 158.434 153.535 153.709 153.535 153.709Z" fill="#FFBF9D"/>
<path d="M163.606 149.747C163.178 148.399 163.101 146.964 163.382 145.578C163.664 144.192 164.295 142.9 165.216 141.826C167.481 139.475 170.13 137.526 173.048 136.062C174.803 135.008 178.281 131.337 179.062 132.037C179.525 132.455 179.82 133.026 179.893 133.646C179.965 134.265 179.81 134.889 179.456 135.402C178.651 136.94 174.771 138.727 174.908 140.699C174.922 140.89 174.974 141.076 175.06 141.247C175.146 141.418 175.265 141.57 175.41 141.695C175.555 141.82 175.724 141.915 175.905 141.975C176.087 142.034 176.279 142.058 176.47 142.044C179.682 141.896 182.884 141.587 186.065 141.118C188.875 140.538 191.475 140.78 191.443 141.77C191.411 142.76 190.936 143.38 188.617 143.839C186.299 144.298 182.467 144.644 182.338 145.167C182.209 145.69 183.022 145.972 184.383 145.722C185.743 145.473 192.183 144.708 192.707 145.392C192.836 145.564 192.926 145.763 192.97 145.974C193.013 146.185 193.01 146.403 192.959 146.613C192.908 146.822 192.811 147.018 192.676 147.185C192.54 147.353 192.369 147.488 192.175 147.582L190.726 148.298C190.726 148.298 191.749 149.417 191.097 150.182C190.445 150.947 188.754 150.907 188.754 150.907L180.173 151.663C180.173 151.663 179.746 152.235 180.036 152.557C180.326 152.879 186.951 151.607 187.088 152.34C187.225 153.072 187.852 153.338 185.904 154.062C183.03 154.895 180.038 155.246 177.049 155.101C175.182 154.819 167.566 155.366 167.566 155.366L163.606 149.747Z" fill="#FFBF9D"/>
<path d="M92.4597 101.006C92.9982 101.678 93.5964 102.301 94.2468 102.865C95.3819 103.976 96.9355 105.53 98.5777 107.301C98.9239 107.679 99.27 108.05 99.592 108.412L99.8094 108.645L100.011 108.396C101.283 106.786 102.385 105.305 103.158 104.25C103.612 103.714 103.999 103.125 104.309 102.495C103.775 102.952 103.294 103.468 102.876 104.033C102.031 105.031 100.872 106.448 99.584 108.058H99.9945L98.9883 106.939C97.5736 105.41 96.0796 103.956 94.5125 102.584C93.8949 101.976 93.2056 101.446 92.4597 101.006Z" fill="#263238"/>
<path d="M138.377 120.502C138.229 120.857 138.129 121.231 138.079 121.613C137.926 122.337 137.733 123.392 137.524 124.696C137.105 127.304 136.662 130.927 136.292 134.936C135.922 138.945 135.648 142.583 135.439 145.216C135.358 146.439 135.278 147.478 135.221 148.331C135.171 148.713 135.171 149.1 135.221 149.482C135.336 149.115 135.412 148.738 135.447 148.355C135.559 147.622 135.696 146.56 135.841 145.248C136.147 142.631 136.485 139.001 136.856 134.992C137.226 130.983 137.588 127.369 137.902 124.793C138.055 123.577 138.184 122.539 138.288 121.693C138.372 121.302 138.401 120.901 138.377 120.502Z" fill="#263238"/>
<path d="M75.3936 118.676C75.2787 119.132 75.2112 119.599 75.1924 120.068C75.1038 120.978 75.0072 122.282 74.9267 123.908C74.7416 127.128 74.653 131.636 74.6369 136.579V153.09C74.6111 153.56 74.6299 154.032 74.6933 154.498C74.7976 154.039 74.8489 153.569 74.8462 153.098C74.9106 152.188 74.975 150.876 75.0233 149.258C75.136 146.038 75.1763 141.53 75.1843 136.587C75.1924 131.644 75.2326 127.161 75.3131 123.924C75.3534 122.387 75.3856 121.099 75.4097 120.085C75.4479 119.615 75.4425 119.144 75.3936 118.676Z" fill="#263238"/>
<path d="M146.548 165.123C146.8 164.209 146.985 163.279 147.103 162.338C147.48 160.092 148.208 157.918 149.261 155.898C150.334 153.917 151.948 152.282 153.914 151.181C154.759 150.777 155.633 150.438 156.53 150.166C156.265 150.109 155.99 150.109 155.725 150.166C155.027 150.283 154.35 150.497 153.712 150.802C151.597 151.857 149.864 153.546 148.753 155.632C147.688 157.706 147.012 159.957 146.757 162.274C146.568 163.211 146.497 164.168 146.548 165.123Z" fill="#263238"/>
<path d="M143.964 154.248C144.076 154.377 145.678 152.727 148.286 151.833C150.895 150.94 153.116 151.246 153.165 151.077C153.213 150.908 150.854 150.36 148.109 151.318C145.364 152.276 143.843 154.184 143.964 154.248Z" fill="#263238"/>
<path d="M103.11 191.656C103.159 191.358 103.18 191.057 103.174 190.755C103.174 190.119 103.174 189.258 103.231 188.179C103.279 185.885 103.343 182.657 103.424 178.688C103.609 170.638 103.867 159.585 104.156 147.381C104.446 135.177 104.599 124.076 104.583 116.059C104.583 112.034 104.543 108.814 104.495 106.56C104.495 105.481 104.438 104.62 104.414 103.984C104.421 103.682 104.399 103.38 104.35 103.082C104.327 103.382 104.327 103.684 104.35 103.984C104.35 104.62 104.35 105.481 104.35 106.56C104.35 108.854 104.301 112.09 104.269 116.051C104.189 124.101 103.955 135.137 103.681 147.365C103.408 159.593 103.166 170.662 103.102 178.68C103.102 182.705 103.102 185.925 103.102 188.179C103.102 189.258 103.102 190.119 103.142 190.755C103.111 191.054 103.1 191.356 103.11 191.656Z" fill="#263238"/>
<path d="M154.002 153.37C154.002 153.305 153.197 153.909 152.553 155.246C152.158 156.007 151.871 156.82 151.7 157.661C151.534 158.728 151.534 159.814 151.7 160.881C151.82 161.949 152.137 162.986 152.634 163.94C153.064 164.713 153.657 165.383 154.372 165.904C155.001 166.426 155.793 166.71 156.61 166.709C155.903 166.416 155.233 166.041 154.614 165.59C153.979 165.069 153.456 164.426 153.076 163.698C152.646 162.788 152.373 161.81 152.271 160.808C152.127 159.804 152.127 158.785 152.271 157.781C152.41 156.952 152.645 156.141 152.972 155.366C153.471 154.086 154.083 153.418 154.002 153.37Z" fill="#263238"/>
<path d="M44.0629 166.967C44.0629 166.967 44.3205 166.967 44.7311 166.765C45.3074 166.511 45.8485 166.184 46.3411 165.791C48.0279 164.492 49.1816 162.621 49.5849 160.531C49.9882 158.44 49.6133 156.274 48.5307 154.441C48.2152 153.89 47.8311 153.381 47.3876 152.927C47.0736 152.621 46.8724 152.476 46.8482 152.501C46.8241 152.525 47.4922 153.249 48.1926 154.626C49.129 156.407 49.4312 158.453 49.0493 160.428C48.6674 162.404 47.6242 164.19 46.0915 165.493C44.9404 166.508 44.0227 166.878 44.0629 166.967Z" fill="#263238"/>
<path d="M23.5917 140.41C23.5273 140.475 23.9942 140.917 24.5818 141.698C24.9199 142.145 25.1537 142.662 25.2661 143.212C25.3949 143.831 25.3788 144.556 25.4915 145.353C25.5874 146.037 25.8182 146.695 26.1706 147.29C26.523 147.884 26.9899 148.402 27.5443 148.814C27.9679 149.196 28.5053 149.428 29.0738 149.474C29.114 149.386 28.5183 149.161 27.7858 148.508C26.8427 147.673 26.2218 146.534 26.0308 145.288C25.9778 144.56 25.8865 143.834 25.7572 143.115C25.6031 142.515 25.3046 141.963 24.8877 141.505C24.5496 141.042 24.1051 140.666 23.5917 140.41Z" fill="#FF9A6C"/>
<path d="M178.861 148.879C178.861 149.024 181.541 149.169 184.85 149.008C188.158 148.847 190.815 148.46 190.799 148.307C190.783 148.155 188.118 148.307 184.826 148.46C181.533 148.613 178.861 148.718 178.861 148.879Z" fill="#FF9A6C"/>
<path d="M172.767 148.42C172.767 148.477 173.403 148.372 174.159 147.736C174.65 147.31 175.039 146.781 175.301 146.187C175.563 145.592 175.69 144.948 175.673 144.299C175.615 143.612 175.491 142.933 175.303 142.27C175.162 141.745 175.094 141.203 175.101 140.66C175.148 140.175 175.259 139.699 175.431 139.243C175.431 139.187 174.844 139.613 174.715 140.628C174.65 141.198 174.683 141.775 174.811 142.334C174.963 142.973 175.068 143.621 175.125 144.274C175.143 145.442 174.7 146.569 173.894 147.414C173.274 148.138 172.727 148.34 172.767 148.42Z" fill="#FF9A6C"/>
<path d="M22.0945 150.328C22.0945 150.175 19.2206 150.288 15.7108 150.578C12.201 150.867 9.35932 151.238 9.36737 151.383C9.37542 151.528 12.2412 151.423 15.751 151.125C19.2609 150.827 22.1025 150.473 22.0945 150.328Z" fill="#FF9A6C"/>
<path d="M104.961 101.971C105.283 103.043 105.689 104.087 106.177 105.095C106.394 105.578 106.62 106.101 106.853 106.64C107.084 107.255 107.353 107.854 107.658 108.435C107.774 108.626 107.943 108.78 108.145 108.877C108.346 108.974 108.571 109.011 108.793 108.983C109.183 108.88 109.546 108.693 109.856 108.435L111.756 107.139C114.348 105.352 116.674 103.702 118.349 102.494C119.285 101.882 120.168 101.193 120.989 100.434C119.992 100.936 119.036 101.518 118.131 102.172C116.401 103.307 114.034 104.893 111.442 106.688L109.55 107.993C109.303 108.206 109.016 108.368 108.705 108.468C108.578 108.483 108.449 108.459 108.336 108.401C108.222 108.342 108.129 108.25 108.069 108.137C107.457 107.027 106.95 105.827 106.459 104.917C106.042 103.895 105.542 102.91 104.961 101.971Z" fill="#263238"/>
<path d="M177.697 165.45L143 166.21L158.249 120.49L192.945 119.73L177.697 165.45Z" fill="#EBEBEB"/>
<path d="M180.072 165.402L145.375 166.152L160.623 120.442L195.32 119.682L180.072 165.402Z" fill="#FFD000"/>
<path d="M164.313 120.361C164.089 121.157 163.568 121.832 162.861 122.241C162.537 122.431 162.439 121.991 162.762 121.811C163.212 121.543 163.559 121.127 163.744 120.631C163.744 120.541 163.803 120.451 163.822 120.371C163.895 120.089 163.895 119.793 163.822 119.511C163.795 119.387 163.725 119.277 163.626 119.201H163.557C163.48 119.182 163.399 119.182 163.322 119.201C163.171 119.257 163.036 119.349 162.929 119.471C162.795 119.615 162.679 119.776 162.586 119.951L162.439 120.211V120.271C162.435 120.301 162.435 120.331 162.439 120.361C162.435 120.384 162.435 120.408 162.439 120.431H161.948C162.057 120.114 162.209 119.815 162.399 119.541C162.542 119.304 162.733 119.102 162.96 118.948C163.187 118.794 163.445 118.693 163.714 118.651C163.91 118.645 164.101 118.715 164.249 118.846C164.396 118.978 164.489 119.162 164.509 119.361C164.526 119.705 164.458 120.049 164.313 120.361Z" fill="#C7C7C7"/>
<path d="M167.031 120.301C166.807 121.097 166.286 121.772 165.578 122.181C165.255 122.371 165.156 121.931 165.48 121.751C165.928 121.48 166.273 121.065 166.462 120.571C166.494 120.487 166.517 120.399 166.53 120.311C166.608 120.029 166.608 119.732 166.53 119.451C166.498 119.326 166.426 119.217 166.324 119.141H166.255C166.175 119.116 166.09 119.116 166.01 119.141C165.86 119.197 165.725 119.289 165.618 119.411C165.435 119.641 165.274 119.889 165.137 120.151V120.211C165.134 120.244 165.134 120.277 165.137 120.311C165.133 120.33 165.133 120.351 165.137 120.371H164.646C164.755 120.054 164.907 119.754 165.098 119.481C165.24 119.244 165.432 119.041 165.659 118.888C165.886 118.734 166.143 118.632 166.412 118.591C166.608 118.582 166.799 118.651 166.946 118.784C167.092 118.916 167.182 119.102 167.197 119.301C167.227 119.643 167.17 119.987 167.031 120.301Z" fill="#C7C7C7"/>
<path d="M169.739 120.24C169.633 120.635 169.451 121.005 169.204 121.328C168.956 121.651 168.648 121.92 168.297 122.12C167.973 122.31 167.875 121.87 168.189 121.69C168.637 121.421 168.983 121.005 169.17 120.51C169.17 120.43 169.219 120.34 169.239 120.25C169.316 119.969 169.316 119.671 169.239 119.39C169.207 119.266 169.134 119.156 169.032 119.08C169.01 119.085 168.986 119.085 168.964 119.08C168.884 119.056 168.799 119.056 168.718 119.08C168.568 119.136 168.433 119.229 168.326 119.35C168.196 119.496 168.084 119.657 167.992 119.83C167.938 119.913 167.888 120 167.845 120.09V120.16C167.841 120.19 167.841 120.22 167.845 120.25C167.845 120.25 167.845 120.25 167.845 120.31H167.345C167.458 119.995 167.61 119.696 167.796 119.42C167.943 119.187 168.136 118.988 168.362 118.834C168.588 118.681 168.843 118.578 169.111 118.53C169.308 118.521 169.5 118.591 169.648 118.723C169.796 118.855 169.888 119.04 169.906 119.24C169.932 119.582 169.874 119.926 169.739 120.24Z" fill="#C7C7C7"/>
<path d="M172.457 120.181C172.351 120.577 172.169 120.947 171.922 121.27C171.674 121.592 171.366 121.862 171.015 122.061C170.681 122.251 170.583 121.811 170.907 121.631C171.357 121.364 171.703 120.948 171.888 120.451C171.919 120.37 171.945 120.286 171.966 120.201C172.044 119.917 172.044 119.616 171.966 119.331C171.939 119.208 171.869 119.098 171.77 119.021H171.662C171.582 118.997 171.497 118.997 171.417 119.021C171.267 119.079 171.133 119.172 171.024 119.291C170.892 119.435 170.779 119.596 170.691 119.771C170.634 119.857 170.585 119.947 170.544 120.041V120.101C170.54 120.131 170.54 120.161 170.544 120.191C170.544 120.191 170.544 120.191 170.544 120.251H170.053C170.166 119.94 170.318 119.644 170.504 119.371C170.647 119.134 170.838 118.93 171.065 118.775C171.292 118.619 171.549 118.516 171.819 118.471C172.016 118.463 172.208 118.532 172.356 118.664C172.504 118.796 172.597 118.982 172.614 119.181C172.643 119.523 172.589 119.866 172.457 120.181Z" fill="#C7C7C7"/>
<path d="M175.175 120.13C174.952 120.927 174.43 121.602 173.723 122.01C173.399 122.19 173.301 121.75 173.625 121.58C174.073 121.306 174.418 120.887 174.606 120.39C174.637 120.308 174.663 120.225 174.684 120.14C174.757 119.855 174.757 119.556 174.684 119.27C174.659 119.148 174.589 119.041 174.488 118.97H174.42C174.343 118.946 174.261 118.946 174.184 118.97C174.034 119.028 173.9 119.12 173.792 119.24C173.659 119.386 173.544 119.547 173.448 119.72L173.301 119.99V120.05C173.297 120.08 173.297 120.11 173.301 120.14C173.301 120.14 173.301 120.14 173.301 120.2H172.81C172.919 119.887 173.071 119.591 173.262 119.32C173.407 119.085 173.6 118.884 173.826 118.729C174.052 118.574 174.308 118.469 174.577 118.42C174.773 118.414 174.964 118.484 175.111 118.616C175.259 118.748 175.352 118.931 175.371 119.13C175.386 119.475 175.319 119.818 175.175 120.13Z" fill="#C7C7C7"/>
<path d="M177.942 120.07C177.716 120.865 177.195 121.539 176.49 121.95C176.166 122.13 176.068 121.69 176.392 121.52C176.842 121.248 177.188 120.829 177.373 120.33C177.405 120.25 177.428 120.166 177.442 120.08C177.519 119.795 177.519 119.495 177.442 119.21C177.412 119.09 177.343 118.984 177.246 118.91H177.177C177.097 118.886 177.012 118.886 176.932 118.91C176.783 118.97 176.649 119.062 176.539 119.18C176.41 119.326 176.298 119.487 176.205 119.66C176.151 119.747 176.101 119.837 176.058 119.93V119.99C176.055 120.02 176.055 120.05 176.058 120.08C176.054 120.1 176.054 120.12 176.058 120.14H175.568C175.677 119.827 175.829 119.53 176.019 119.26C176.165 119.025 176.357 118.824 176.583 118.669C176.81 118.514 177.065 118.409 177.334 118.36C177.529 118.352 177.721 118.421 177.867 118.553C178.014 118.686 178.104 118.871 178.119 119.07C178.145 119.413 178.085 119.758 177.942 120.07Z" fill="#C7C7C7"/>
<path d="M180.601 120.011C180.382 120.807 179.864 121.483 179.159 121.891C178.835 122.071 178.737 121.641 179.061 121.461C179.327 121.311 179.558 121.105 179.739 120.857C179.92 120.609 180.047 120.324 180.111 120.021C180.188 119.737 180.188 119.436 180.111 119.151C180.082 119.028 180.008 118.921 179.905 118.851H179.836C179.756 118.827 179.671 118.827 179.591 118.851C179.442 118.911 179.309 119.004 179.198 119.121C179.069 119.267 178.957 119.428 178.865 119.601C178.806 119.691 178.767 119.781 178.717 119.871V119.931C178.714 119.961 178.714 119.991 178.717 120.021C178.717 120.021 178.717 120.021 178.717 120.081H178.217C178.33 119.77 178.482 119.474 178.668 119.201C178.812 118.965 179.004 118.764 179.231 118.61C179.457 118.456 179.714 118.355 179.983 118.311C180.178 118.303 180.369 118.37 180.517 118.5C180.665 118.631 180.758 118.813 180.778 119.011C180.799 119.354 180.739 119.697 180.601 120.011Z" fill="#C7C7C7"/>
<path d="M183.319 119.951C183.212 120.346 183.03 120.715 182.782 121.038C182.535 121.36 182.227 121.63 181.877 121.831C181.543 122.021 181.445 121.581 181.769 121.401C182.221 121.132 182.568 120.711 182.75 120.211C182.781 120.129 182.807 120.046 182.829 119.961C182.907 119.676 182.907 119.376 182.829 119.091C182.801 118.97 182.731 118.864 182.633 118.791H182.574C182.494 118.762 182.408 118.762 182.328 118.791C182.175 118.841 182.039 118.935 181.936 119.061C181.801 119.199 181.689 119.358 181.602 119.531C181.543 119.621 181.504 119.711 181.455 119.801V119.861L181.406 119.951C181.406 119.951 181.406 119.951 181.406 120.011H180.886C180.999 119.699 181.151 119.404 181.337 119.131C181.48 118.894 181.671 118.692 181.898 118.538C182.125 118.384 182.383 118.283 182.652 118.241C182.847 118.232 183.038 118.3 183.186 118.43C183.334 118.56 183.427 118.743 183.447 118.941C183.485 119.283 183.441 119.63 183.319 119.951Z" fill="#C7C7C7"/>
<path d="M186.037 119.9C185.817 120.698 185.294 121.374 184.585 121.78C184.261 121.97 184.163 121.53 184.487 121.35C184.939 121.081 185.286 120.66 185.468 120.16C185.499 120.078 185.525 119.995 185.547 119.91C185.62 119.628 185.62 119.332 185.547 119.05C185.519 118.927 185.45 118.817 185.351 118.74H185.282C185.206 118.711 185.122 118.711 185.046 118.74C184.893 118.791 184.757 118.884 184.654 119.01C184.517 119.152 184.401 119.314 184.31 119.49C184.31 119.57 184.222 119.66 184.163 119.75V119.81C184.16 119.84 184.16 119.87 184.163 119.9C184.163 119.9 184.163 119.9 184.163 119.96H183.673C183.784 119.648 183.936 119.352 184.124 119.08C184.266 118.843 184.458 118.641 184.685 118.487C184.912 118.334 185.169 118.232 185.439 118.19C185.634 118.182 185.825 118.249 185.973 118.379C186.12 118.509 186.214 118.692 186.234 118.89C186.25 119.238 186.183 119.585 186.037 119.9Z" fill="#C7C7C7"/>
<path d="M188.736 119.83C188.512 120.626 187.991 121.301 187.284 121.71C186.96 121.9 186.862 121.46 187.186 121.28C187.636 121.008 187.982 120.588 188.167 120.09C188.197 120.008 188.224 119.925 188.245 119.84C188.318 119.558 188.318 119.262 188.245 118.98C188.213 118.858 188.145 118.75 188.049 118.67H187.98C187.9 118.646 187.815 118.646 187.735 118.67C187.585 118.726 187.45 118.819 187.343 118.94C187.209 119.082 187.096 119.244 187.009 119.42C186.954 119.503 186.905 119.59 186.862 119.68V119.74C186.858 119.77 186.858 119.8 186.862 119.83C186.857 119.85 186.857 119.87 186.862 119.89H186.371C186.482 119.577 186.634 119.281 186.822 119.01C186.965 118.773 187.156 118.571 187.383 118.417C187.611 118.263 187.868 118.162 188.137 118.12C188.331 118.111 188.521 118.179 188.667 118.31C188.814 118.44 188.905 118.623 188.922 118.82C188.948 119.167 188.883 119.515 188.736 119.83Z" fill="#C7C7C7"/>
<path d="M191.464 119.772C191.357 120.166 191.174 120.536 190.926 120.858C190.679 121.181 190.371 121.45 190.021 121.652C189.697 121.842 189.599 121.402 189.923 121.222C190.189 121.072 190.42 120.866 190.601 120.617C190.782 120.369 190.909 120.084 190.973 119.782C191.051 119.5 191.051 119.203 190.973 118.922C190.941 118.797 190.869 118.688 190.767 118.612H190.698C190.618 118.587 190.533 118.587 190.453 118.612C190.303 118.668 190.168 118.76 190.061 118.882C189.927 119.024 189.814 119.186 189.727 119.362C189.672 119.445 189.623 119.532 189.58 119.622V119.682C189.576 119.711 189.576 119.742 189.58 119.772C189.58 119.772 189.58 119.772 189.58 119.832H189.089C189.194 119.513 189.346 119.213 189.54 118.942C189.681 118.705 189.871 118.503 190.097 118.35C190.322 118.196 190.578 118.094 190.846 118.052C191.041 118.043 191.232 118.11 191.379 118.241C191.527 118.371 191.621 118.554 191.64 118.752C191.675 119.102 191.614 119.455 191.464 119.772Z" fill="#C7C7C7"/>
<path d="M194.182 119.711C194.075 120.105 193.892 120.475 193.645 120.797C193.397 121.12 193.089 121.39 192.739 121.591C192.406 121.781 192.308 121.341 192.631 121.161C193.081 120.893 193.428 120.477 193.613 119.981C193.613 119.891 193.672 119.801 193.691 119.721C193.764 119.439 193.764 119.143 193.691 118.861C193.656 118.738 193.584 118.63 193.485 118.551H193.436H193.377C193.297 118.531 193.213 118.531 193.132 118.551C192.981 118.607 192.847 118.699 192.739 118.821C192.605 118.962 192.492 119.124 192.406 119.301C192.351 119.384 192.302 119.471 192.259 119.561V119.621C192.255 119.651 192.255 119.681 192.259 119.711C192.255 119.734 192.255 119.758 192.259 119.781H191.68C191.793 119.466 191.945 119.167 192.131 118.891C192.274 118.654 192.465 118.451 192.692 118.298C192.919 118.144 193.176 118.043 193.446 118.001C193.643 117.992 193.835 118.061 193.983 118.193C194.131 118.326 194.223 118.511 194.241 118.711C194.301 119.044 194.281 119.387 194.182 119.711Z" fill="#C7C7C7"/>
<path d="M156.374 197.194H75.6257L86.0486 140.529C86.2261 139.554 86.7401 138.672 87.5009 138.038C88.2616 137.403 89.221 137.055 90.2119 137.055H162.766C163.39 137.055 164.006 137.192 164.57 137.458C165.134 137.724 165.633 138.111 166.03 138.591C166.428 139.072 166.714 139.635 166.868 140.239C167.023 140.843 167.042 141.474 166.924 142.087L156.374 197.194Z" fill="#455A64"/>
<path d="M75.6257 197.194H45L45.1274 197.101C47.8583 195.051 51.1579 193.898 54.5716 193.801L76.4711 193.141L75.6257 197.194Z" fill="#455A64"/>
<path d="M95.0237 137.106C95.0237 137.106 94.7979 137.065 94.3694 137.06C93.7447 137.068 93.1303 137.221 92.5743 137.505C91.6949 137.952 90.9527 138.629 90.4261 139.463C89.7595 140.591 89.3116 141.834 89.1058 143.128C88.8395 144.558 88.6079 146.151 88.3241 147.847C88.0404 149.544 87.7451 151.362 87.3629 153.261C86.6623 157.071 85.8284 161.246 84.9193 165.624C83.0953 174.373 81.4103 182.289 80.287 188.039C79.7079 190.934 79.3026 193.25 79.0131 194.854C78.8683 195.642 78.7583 196.267 78.6772 196.713L78.5788 197.194C78.5706 197.249 78.557 197.303 78.5383 197.356C78.5318 197.3 78.5318 197.244 78.5383 197.188C78.5383 197.06 78.5788 196.898 78.602 196.701L78.8857 194.837C79.1405 193.215 79.54 190.882 80.0438 187.998C81.0919 182.237 82.7479 174.31 84.5719 165.56C85.481 161.188 86.3091 157.014 87.0387 153.209C87.4035 151.31 87.7219 149.498 88.023 147.807C88.3241 146.116 88.5615 144.529 88.8453 143.082C89.0651 141.767 89.5349 140.507 90.2292 139.37C90.7842 138.523 91.5587 137.843 92.4701 137.401C93.0443 137.12 93.6782 136.983 94.3173 137.002C94.5565 137.002 94.7945 137.037 95.0237 137.106Z" fill="#263238"/>
<path d="M129.124 165.821C129.125 166.594 128.896 167.351 128.467 167.994C128.038 168.638 127.428 169.14 126.714 169.436C125.999 169.733 125.213 169.811 124.454 169.66C123.695 169.51 122.998 169.137 122.451 168.59C121.904 168.043 121.532 167.346 121.381 166.588C121.231 165.829 121.309 165.043 121.605 164.328C121.902 163.614 122.404 163.003 123.047 162.574C123.691 162.145 124.447 161.917 125.221 161.918C125.734 161.918 126.241 162.019 126.715 162.215C127.188 162.411 127.618 162.699 127.981 163.061C128.343 163.423 128.631 163.854 128.827 164.327C129.023 164.801 129.124 165.308 129.124 165.821Z" fill="#FFD000"/>
<path d="M31.0331 161.179L33.0388 162.485C33.0739 162.508 33.1146 162.52 33.1564 162.52C33.1983 162.521 33.2396 162.51 33.2758 162.488C33.312 162.466 33.3416 162.435 33.3615 162.397C33.3813 162.359 33.3905 162.317 33.3881 162.275L33.2006 159.728L16.1779 133.048C16.0867 132.905 15.9682 132.782 15.8291 132.685C15.6899 132.589 15.533 132.522 15.3671 132.487C15.2013 132.453 15.0299 132.452 14.8626 132.484C14.6953 132.517 14.5355 132.582 14.3923 132.677C14.249 132.771 14.1251 132.893 14.0276 133.035C13.9302 133.177 13.8611 133.337 13.8243 133.505C13.7876 133.673 13.7839 133.846 13.8134 134.014C13.8429 134.183 13.9052 134.343 13.9965 134.487L31.0331 161.179Z" fill="#FFD000"/>
<path d="M13.4858 135.307L13.525 135.281C13.711 135.159 13.9607 135.211 14.0827 135.397L18.6227 142.322C18.7446 142.508 18.6927 142.758 18.5067 142.88L18.4675 142.906C18.2815 143.028 18.0318 142.976 17.9098 142.79L13.3698 135.865C13.2478 135.679 13.2998 135.429 13.4858 135.307Z" fill="#3C474C"/>
</svg>
