<svg width="200" height="200" viewBox="0 0 200 200" fill="none" xmlns="http://www.w3.org/2000/svg">
<path fill-rule="evenodd" clip-rule="evenodd" d="M95.3511 40.0786C119.484 41.5624 131.191 65.3973 145.943 82.1754C157.899 95.7741 168.961 109.409 171.286 126.445C173.971 146.122 175.558 168.605 159.663 182.721C143.717 196.882 117.964 195.809 95.3511 193.883C72.1366 194.322 53.3796 187.342 42.4481 172.737C26.9316 160.174 13.0786 144.922 12.0648 126.445C11.0113 107.244 22.9446 90.1752 37.1121 75.4837C52.9597 59.05 70.8381 38.5713 95.3511 40.0786Z" fill="#FFF3CC"/>
<path d="M92.0601 44.8647L92.9295 44.8164C97.1236 44.5763 101.254 45.9237 104.5 48.5907C107.746 51.2577 109.869 55.0488 110.446 59.2099C111.557 67.2599 108.823 69.6774 109 74.0002C109.411 82.968 102.184 88.5002 102.184 88.5002L104.707 94.952C104.833 96.3825 104.674 97.8237 104.241 99.1929C103.809 100.562 103.109 101.832 102.184 102.93C101.259 104.029 100.125 104.933 98.8495 105.592C97.5735 106.251 96.1799 106.651 94.7488 106.769C91.8972 106.998 89.07 106.096 86.8772 104.259C84.6845 102.422 83.302 99.796 83.028 96.9484L79.808 63.6937C78.5039 54.4362 82.7704 45.9515 92.0601 44.8647Z" fill="#FFBF9D"/>
<path d="M102 88.5007C97.8507 88.7417 93.6289 87.6491 90 85.6777C90 85.6777 94.1185 91.7827 103 90.5007L102 88.5007Z" fill="#FF9A6C"/>
<path d="M95.996 68.3284C96.0248 68.7349 95.8978 69.1368 95.6425 69.447C95.3872 69.7572 95.0242 69.9508 94.632 69.9858C94.4413 70.0133 94.2472 70.0008 94.0612 69.9492C93.8752 69.8975 93.7011 69.8078 93.5492 69.6852C93.3973 69.5627 93.2706 69.4099 93.1768 69.2358C93.083 69.0617 93.0238 68.8698 93.0028 68.6716C92.9789 68.2663 93.1076 67.8672 93.362 67.5581C93.6163 67.249 93.9765 67.054 94.3668 67.0142C94.5575 66.9867 94.7516 66.9992 94.9376 67.0509C95.1236 67.1025 95.2977 67.1922 95.4496 67.3148C95.6015 67.4373 95.7282 67.5901 95.822 67.7642C95.9158 67.9383 95.975 68.1302 95.996 68.3284Z" fill="#263238"/>
<path d="M108.788 63.701C108.635 63.8781 107.629 63.21 106.252 63.2985C104.876 63.3871 103.902 64.1035 103.749 63.9667C103.596 63.8298 103.813 63.5883 104.232 63.2422C104.804 62.793 105.501 62.5316 106.228 62.4935C106.943 62.4539 107.653 62.6397 108.257 63.0248C108.683 63.3227 108.844 63.6125 108.788 63.701Z" fill="#263238"/>
<path d="M107.997 68.3284C108.021 68.7337 107.892 69.1328 107.638 69.4419C107.384 69.751 107.023 69.946 106.633 69.9858C106.442 70.0133 106.248 70.0008 106.062 69.9491C105.876 69.8975 105.702 69.8078 105.55 69.6852C105.398 69.5627 105.271 69.4099 105.177 69.2358C105.084 69.0617 105.024 68.8698 105.003 68.6716C104.977 68.2657 105.105 67.8652 105.36 67.5556C105.615 67.2459 105.976 67.0516 106.368 67.0142C106.558 66.9867 106.753 66.9992 106.939 67.0509C107.125 67.1025 107.299 67.1922 107.451 67.3148C107.603 67.4373 107.729 67.5901 107.823 67.7642C107.917 67.9383 107.976 68.1302 107.997 68.3284Z" fill="#263238"/>
<path d="M95.256 64.7316C95.1111 64.9087 94.0968 64.2486 92.7202 64.3291C91.3437 64.4096 90.3777 65.1341 90.2167 64.9973C90.0557 64.8604 90.2811 64.6189 90.7077 64.2728C91.2758 63.8278 91.9674 63.5691 92.688 63.5322C93.4038 63.4864 94.1152 63.6727 94.7166 64.0635C95.1674 64.3613 95.3284 64.6511 95.256 64.7316Z" fill="#263238"/>
<path d="M100.835 74.6567C101.546 74.3823 102.29 74.201 103.049 74.1173C103.403 74.061 103.725 73.9724 103.773 73.7309C103.785 73.3658 103.684 73.0059 103.483 72.7005C103.097 71.8955 102.678 71.002 102.284 70.0843C100.626 66.3571 99.4019 63.29 99.5468 63.2256C99.6917 63.1612 101.157 66.1237 102.831 69.8508C103.234 70.7685 103.636 71.646 103.982 72.4832C104.225 72.8956 104.318 73.3786 104.248 73.8517C104.204 73.9799 104.132 74.0961 104.035 74.1911C103.939 74.2862 103.821 74.3574 103.693 74.3991C103.503 74.4654 103.305 74.506 103.105 74.5198C102.356 74.6547 101.594 74.7006 100.835 74.6567Z" fill="#263238"/>
<path d="M95.359 60.4005C95.2383 60.7788 93.8537 60.6822 92.2517 60.972C90.6498 61.2618 89.3698 61.777 89.1364 61.447C89.0317 61.294 89.241 60.9318 89.7401 60.5373C90.4173 60.0516 91.1963 59.7266 92.0179 59.5871C92.8395 59.4476 93.6821 59.4973 94.4816 59.7323C95.0853 59.9416 95.4073 60.2153 95.359 60.4005Z" fill="#263238"/>
<path d="M108.086 60.827C107.869 61.149 106.903 60.8833 105.76 60.9316C104.617 60.9799 103.667 61.2617 103.425 60.9316C103.321 60.7787 103.425 60.4567 103.852 60.1266C104.397 59.7358 105.049 59.5197 105.72 59.5068C106.392 59.4784 107.056 59.6614 107.619 60.03C108.038 60.352 108.191 60.666 108.086 60.827Z" fill="#263238"/>
<path d="M109.344 55.1525C109.344 55.1525 106.663 49.6784 103.878 48.5192C100.513 47.1266 99.3133 50.8054 96.1416 50.1292C92.9699 49.453 89.7579 48.1006 86.707 50.6927C83.3743 53.5344 85.097 55.2974 85.097 59.2821C85.1453 75.4385 82.4646 80.1639 81.1927 72.629C81.0559 71.824 78.7052 71.2686 78.1659 67.799C77.4575 63.2749 76.9664 57.7526 77.7956 54.4602C78.4959 51.6909 79.9369 49.7187 82.6256 47.4808C86.8358 43.9549 92.8652 43.5363 96.9949 43.7134C101.125 43.8905 109.319 48.1006 109.344 55.1525Z" fill="#263238"/>
<path d="M81.7803 72.3236C81.7532 71.9929 81.6583 71.6713 81.5014 71.3788C81.3446 71.0864 81.1291 70.8295 80.8685 70.624C80.6079 70.4185 80.3078 70.269 79.9868 70.1847C79.6658 70.1004 79.331 70.0831 79.003 70.134C77.3447 70.3916 75.5415 71.4462 75.8474 74.8916C76.3948 81.0016 82.4162 79.1903 82.4162 79.0132C82.4162 78.8361 82.0298 74.8835 81.7803 72.3236Z" fill="#FFBF9D"/>
<path d="M80.8948 76.8303C80.8948 76.8303 80.7982 76.9188 80.6211 77.0154C80.3742 77.1475 80.0858 77.1793 79.8161 77.104C79.156 76.9269 78.52 75.9448 78.3912 74.85C78.3275 74.3266 78.3825 73.7955 78.5522 73.2963C78.5923 73.1011 78.6792 72.9186 78.8054 72.7643C78.9316 72.6101 79.0933 72.4888 79.2767 72.4108C79.3957 72.3686 79.5255 72.3688 79.6444 72.4113C79.7632 72.4538 79.8637 72.5361 79.9288 72.6443C80.0334 72.8053 80.0012 72.934 80.0334 72.9421C80.0656 72.9501 80.1542 72.8294 80.0817 72.5798C80.0362 72.4305 79.9392 72.3022 79.808 72.2176C79.6284 72.1045 79.4114 72.0669 79.2043 72.1129C78.9589 72.1861 78.7363 72.3205 78.5574 72.5036C78.3785 72.6868 78.2493 72.9125 78.1819 73.1595C77.9686 73.7126 77.894 74.3096 77.9646 74.8983C78.1175 76.1299 78.8501 77.2247 79.7517 77.4018C79.9198 77.4353 80.0934 77.4302 80.2593 77.387C80.4252 77.3438 80.5792 77.2635 80.7096 77.1523C80.8948 76.9832 80.9189 76.8464 80.8948 76.8303Z" fill="#FF9A6C"/>
<path d="M110.648 48.5191C109.706 47.8107 108.41 47.7141 107.476 46.9977C103.316 43.8042 96.6129 37.7091 90.8888 40.8959C88.7107 42.1085 85.9615 42.2125 84.0181 43.6006C83.4528 44.0475 82.9874 44.608 82.6519 45.2458C82.3164 45.8835 82.1182 46.5845 82.07 47.3036C82.07 47.3036 81.4341 46.9816 79.5021 48.5111C78.2704 49.4851 77.2642 51.5862 76.8134 53.0835C76.1452 55.3294 77.1193 57.6962 78.0772 59.8294C78.5924 60.9806 79.2364 62.2444 80.4359 62.655C81.8929 63.146 83.5029 62.0029 84.0745 60.57C84.646 59.1371 85.5476 57.6962 86.2399 56.3196C87.4474 53.9046 88.6549 51.6989 87.6648 50.1694C90.93 49.1089 93.0942 51.0056 95.9966 52.0289C97.2173 52.4594 102.143 53.276 103.5 52.9513C103.939 52.8464 104.349 52.6439 104.699 52.359C105.252 53.2599 106.124 53.9194 107.141 54.2059C108.159 54.4923 109.247 54.3848 110.189 53.9046C112.008 52.7776 112.33 49.791 110.648 48.5191Z" fill="#263238"/>
<path d="M77.4653 58.3875C77.7478 58.8294 77.9852 59.2987 78.1737 59.7882C78.3945 60.2826 78.7415 60.7102 79.18 61.0279C79.7661 61.3278 80.4411 61.405 81.0798 61.2452C81.7438 61.1164 82.3707 60.8414 82.9152 60.4402C83.3543 60.0994 83.7539 59.7106 84.1066 59.281C84.4148 58.8596 84.7568 58.4638 85.129 58.0977C84.9327 58.5852 84.6611 59.0388 84.324 59.442C83.9868 59.9161 83.5859 60.3413 83.1325 60.7059C82.5515 61.1447 81.8763 61.4424 81.1603 61.5753C80.4348 61.7551 79.6679 61.6484 79.019 61.2774C78.5341 60.9224 78.1645 60.4324 77.9564 59.8687C77.7324 59.397 77.5674 58.8995 77.4653 58.3875Z" fill="#FFD000"/>
<path d="M77.6989 63.1146C78.0674 63.394 78.474 63.619 78.9065 63.7828C79.3769 63.9318 79.8743 63.9757 80.3635 63.9116C80.9641 63.8203 81.5379 63.6007 82.046 63.2676C82.9688 62.6266 83.7521 61.805 84.3483 60.8526C84.5759 60.4394 84.8457 60.0509 85.1533 59.6934C85.0124 60.1539 84.8035 60.5907 84.5334 60.9894C83.9864 62.0378 83.1937 62.9383 82.2231 63.6137C81.6703 63.9795 81.0384 64.2085 80.3796 64.2819C79.8332 64.342 79.2805 64.2674 78.7696 64.0645C77.9485 63.6701 77.6587 63.1227 77.6989 63.1146Z" fill="#FFD000"/>
<path d="M96.7029 79.6289C96.4969 79.9662 96.3821 80.3164 96.3615 80.6697C96.3372 80.8368 96.3835 81.0047 96.4972 81.1618C96.6109 81.319 96.7894 81.4618 97.0205 81.5804C97.2599 81.7262 97.5589 81.8432 97.8964 81.9233C98.2338 82.0034 98.6015 82.0446 98.9734 82.0439C99.6443 82.0432 100.293 81.92 100.802 81.6964C101.311 81.4729 101.648 81.1636 101.752 80.8242L101.99 80.0558C100.601 79.8525 96.8061 79.6818 96.7029 79.6289Z" fill="#FF9A6C"/>
<path d="M100.948 81.1252C100.948 81.1252 100.753 81.1252 100.431 81.1411C99.9786 81.163 99.5184 81.163 99.0662 81.1411C98.4134 81.1089 97.8233 81.0007 97.4135 80.8381C96.9255 80.6348 96.6932 80.3822 96.7609 80.1285C96.7805 79.9858 96.8991 79.8462 97.1084 79.7193L96.9049 79.7485C98.3542 79.8176 99.6256 79.8734 100.524 79.9053C101.007 79.9336 101.499 79.9452 101.99 79.9399C101.532 79.884 101.054 79.8465 100.566 79.8282C99.668 79.7751 98.4136 79.7033 96.9643 79.6289H96.8287L96.7693 79.6661C96.4444 79.8636 96.3061 80.086 96.3707 80.3073C96.4353 80.5286 96.7 80.7395 97.1338 80.9152C97.6097 81.0951 98.291 81.2096 99.0323 81.2341C99.514 81.2474 99.9994 81.233 100.465 81.1916C100.639 81.1806 100.804 81.1579 100.948 81.1252Z" fill="#263238"/>
<path d="M60.4879 106.576C59.9566 106.576 52.3735 109.603 50.3771 117.041C48.3807 124.479 42.9308 151.769 42.9308 151.769L37.1428 159.787C37.1428 159.787 39.0185 174.414 49.6526 171.628C49.6526 171.628 56.7527 172.868 59.0147 165.671C61.2768 158.475 65.6641 137.005 65.6641 137.005L60.4879 106.576Z" fill="#B9B8B6"/>
<path d="M82.1472 94L78.1204 100.196L60 106.752L65.1865 160.234L63.2697 188.228C80 197.5 124.262 195.715 127 194.5C128.425 194.459 128.681 191.408 128.914 189.425C129.115 187.645 128.962 185.841 128.463 184.123L125.459 173.403C125.902 180.074 123.937 133.607 123.848 131.911L128.5 108.5C127.379 106.837 117.595 103.502 107.621 99.5154L104.399 94.5081L95.1215 101.687L82.1472 94Z" fill="#B9B8B6"/>
<path d="M163.424 149.789C163.158 148.399 163.253 146.964 163.7 145.621C164.147 144.277 164.93 143.071 165.976 142.117C168.49 140.049 171.334 138.416 174.388 137.287C176.255 136.482 180.144 133.206 180.828 133.995C181.512 134.784 181.818 135.959 180.828 137.392C179.838 138.825 174.211 140.958 175 142.769C175.322 143.502 177.093 143.639 177.093 143.639C180.307 143.865 183.531 143.929 186.753 143.832C189.602 143.582 192.162 144.13 192.009 145.112C191.856 146.094 191.325 146.633 188.966 146.834C186.608 147.036 182.768 146.883 182.526 147.422C182.285 147.961 183.122 148.308 184.499 148.227C185.875 148.147 192.363 148.122 192.806 148.863C192.914 149.051 192.979 149.261 192.996 149.477C193.013 149.692 192.981 149.91 192.904 150.112C192.827 150.314 192.706 150.497 192.55 150.648C192.394 150.798 192.207 150.911 192.001 150.98L190.48 151.52C190.48 151.52 191.365 152.751 190.625 153.435C189.884 154.12 188.21 153.878 188.21 153.878L179.604 153.637C179.604 153.637 179.113 154.152 179.355 154.506C179.596 154.86 186.342 154.369 186.39 155.11C186.439 155.85 187.026 156.189 185.014 156.72C182.066 157.211 179.058 157.211 176.11 156.72C174.291 156.221 166.668 155.915 166.668 155.915L163.424 149.789Z" fill="#FFBF9D"/>
<path d="M36.3943 149.798C36.8225 148.45 36.8994 147.015 36.6176 145.629C36.3359 144.242 35.7048 142.951 34.7843 141.877C32.5191 139.525 29.8704 137.576 26.9516 136.113C25.1967 135.059 21.7191 131.388 20.9382 132.088C20.4752 132.506 20.1799 133.077 20.1074 133.696C20.0348 134.315 20.1899 134.94 20.5438 135.453C21.3488 136.991 25.2289 138.778 25.092 140.75C25.0778 140.941 25.026 141.127 24.9398 141.298C24.8536 141.469 24.7346 141.621 24.5896 141.746C24.4446 141.87 24.2764 141.965 24.0946 142.025C23.9129 142.085 23.7211 142.109 23.5303 142.094C20.3183 141.947 17.1157 141.638 13.9347 141.169C11.1252 140.589 8.52508 140.83 8.55728 141.821C8.58948 142.811 9.06443 143.431 11.3828 143.889C13.7012 144.348 17.5331 144.694 17.6619 145.218C17.7907 145.741 16.9776 146.023 15.6171 145.773C14.2567 145.524 7.81668 144.759 7.29343 145.443C7.16372 145.615 7.07381 145.814 7.03018 146.025C6.98654 146.236 6.99027 146.454 7.04109 146.664C7.09191 146.873 7.18855 147.069 7.32406 147.236C7.45957 147.404 7.63057 147.539 7.82473 147.633L9.27373 148.349C9.27373 148.349 8.25138 149.468 8.90343 150.233C9.55548 150.998 11.246 150.957 11.246 150.957L19.8273 151.714C19.8273 151.714 20.254 152.286 19.9642 152.608C19.6744 152.93 13.0492 151.658 12.9123 152.39C12.7755 153.123 12.1476 153.389 14.0957 154.113C16.9698 154.946 19.9619 155.297 22.9507 155.151C24.8183 154.87 32.4336 155.417 32.4336 155.417L36.3943 149.798Z" fill="#FFBF9D"/>
<path d="M107.54 101.006C107.002 101.678 106.404 102.301 105.753 102.865C104.618 103.976 103.065 105.53 101.422 107.301C101.076 107.679 100.73 108.05 100.408 108.412L100.191 108.645L99.9894 108.396C98.7175 106.786 97.6146 105.305 96.8418 104.25C96.3881 103.714 96.0015 103.125 95.6907 102.495C96.225 102.952 96.7058 103.468 97.1236 104.033C97.9688 105.031 99.128 106.448 100.416 108.058H100.005L101.012 106.939C102.426 105.41 103.92 103.956 105.488 102.584C106.105 101.976 106.794 101.446 107.54 101.006Z" fill="#263238"/>
<path d="M61.623 120.502C61.771 120.857 61.8711 121.231 61.9209 121.613C62.0738 122.337 62.267 123.392 62.4763 124.696C62.8949 127.304 63.3377 130.927 63.708 134.936C64.0783 138.945 64.352 142.583 64.5613 145.216C64.6418 146.439 64.7223 147.478 64.7786 148.331C64.8291 148.713 64.8291 149.1 64.7786 149.482C64.6638 149.115 64.5882 148.738 64.5532 148.355C64.4405 147.622 64.3037 146.56 64.1588 145.248C63.8529 142.631 63.5148 139.001 63.1445 134.992C62.7742 130.983 62.4119 127.369 62.098 124.793C61.945 123.577 61.8162 122.539 61.7116 121.693C61.6284 121.302 61.5986 120.901 61.623 120.502Z" fill="#263238"/>
<path d="M53.4522 165.123C53.2003 164.209 53.0147 163.279 52.8968 162.338C52.5196 160.092 51.7915 157.918 50.7394 155.898C49.6657 153.917 48.0523 152.282 46.0865 151.181C45.2411 150.777 44.3666 150.438 43.4702 150.166C43.7354 150.109 44.01 150.109 44.2752 150.166C44.9726 150.283 45.6502 150.497 46.2877 150.802C48.4029 151.857 50.1364 153.546 51.2465 155.632C52.3118 157.706 52.9884 159.957 53.2429 162.274C53.4324 163.211 53.5027 164.168 53.4522 165.123Z" fill="#263238"/>
<path d="M56.0364 154.248C55.9237 154.377 54.3217 152.727 51.7135 151.833C49.1053 150.94 46.8835 151.246 46.8352 151.077C46.7869 150.908 49.1456 150.36 51.8906 151.318C54.6357 152.276 56.1571 154.184 56.0364 154.248Z" fill="#263238"/>
<path d="M45.9979 153.37C45.9979 153.305 46.8029 153.909 47.4469 155.246C47.8415 156.007 48.1287 156.82 48.3002 157.661C48.4655 158.728 48.4655 159.814 48.3002 160.881C48.18 161.949 47.8634 162.986 47.3664 163.94C46.936 164.713 46.3427 165.383 45.6276 165.904C44.9987 166.426 44.2068 166.71 43.3896 166.709C44.0971 166.416 44.7673 166.041 45.3861 165.59C46.0209 165.069 46.5439 164.426 46.9236 163.698C47.3544 162.788 47.6266 161.81 47.7286 160.808C47.8735 159.804 47.8735 158.785 47.7286 157.781C47.5903 156.952 47.3553 156.141 47.0283 155.366C46.5292 154.086 45.9174 153.418 45.9979 153.37Z" fill="#263238"/>
<path d="M155.937 166.967C155.937 166.967 155.679 166.967 155.269 166.765C154.693 166.511 154.151 166.184 153.659 165.791C151.972 164.492 150.818 162.621 150.415 160.531C150.012 158.44 150.387 156.274 151.469 154.441C151.785 153.89 152.169 153.381 152.612 152.927C152.926 152.621 153.128 152.476 153.152 152.501C153.176 152.525 152.508 153.249 151.807 154.626C150.871 156.407 150.569 158.453 150.951 160.428C151.333 162.404 152.376 164.19 153.908 165.493C155.06 166.508 155.977 166.878 155.937 166.967Z" fill="#263238"/>
<path d="M21.1394 148.879C21.1394 149.024 18.4588 149.169 15.1502 149.008C11.8417 148.847 9.18514 148.46 9.20124 148.307C9.21734 148.155 11.8819 148.307 15.1744 148.46C18.4668 148.613 21.1394 148.718 21.1394 148.879Z" fill="#FF9A6C"/>
<path d="M27.2332 148.42C27.2332 148.477 26.5973 148.372 25.8406 147.736C25.3505 147.31 24.9606 146.781 24.699 146.187C24.4374 145.592 24.3104 144.948 24.3272 144.299C24.3845 143.612 24.5085 142.933 24.6975 142.27C24.8384 141.745 24.9061 141.203 24.8987 140.66C24.8525 140.175 24.7415 139.699 24.5687 139.243C24.5687 139.187 25.1563 139.613 25.2851 140.628C25.3502 141.198 25.3175 141.775 25.1885 142.334C25.037 142.973 24.9321 143.621 24.8746 144.274C24.8575 145.442 25.2998 146.569 26.1062 147.414C26.7261 148.138 27.2735 148.34 27.2332 148.42Z" fill="#FF9A6C"/>
<path d="M177.906 150.328C177.906 150.175 180.779 150.288 184.289 150.578C187.799 150.867 190.641 151.238 190.633 151.383C190.625 151.528 187.759 151.423 184.249 151.125C180.739 150.827 177.897 150.473 177.906 150.328Z" fill="#FF9A6C"/>
<path d="M95.0386 101.971C94.717 103.043 94.3106 104.087 93.823 105.095C93.6057 105.578 93.3803 106.101 93.1468 106.64C92.9159 107.255 92.6471 107.854 92.3418 108.435C92.2256 108.626 92.0566 108.78 91.8552 108.877C91.6538 108.974 91.4286 109.011 91.2068 108.983C90.8168 108.88 90.4541 108.693 90.1442 108.435L88.2444 107.139C85.6522 105.352 83.3258 103.702 81.6514 102.494C80.7152 101.882 79.832 101.193 79.011 100.434C80.0083 100.936 80.9639 101.518 81.8687 102.172C83.5995 103.307 85.9662 104.893 88.5583 106.688L90.4501 107.993C90.6968 108.206 90.9844 108.368 91.2953 108.468C91.4222 108.483 91.5508 108.459 91.6642 108.401C91.7776 108.342 91.8707 108.25 91.9313 108.137C92.5431 107.027 93.0502 105.827 93.5413 104.917C93.9576 103.895 94.4584 102.91 95.0386 101.971Z" fill="#263238"/>
<path d="M60.7369 106C60.1967 106 52.4863 109.101 50.4564 116.72C48.4265 124.34 42.8851 152.295 42.8851 152.295L37 160.508C37 160.508 38.9071 175.492 49.7197 172.639C49.7197 172.639 56.939 173.909 59.2391 166.536C61.5391 159.164 66 137.171 66 137.171L60.7369 106Z" fill="white"/>
<path d="M45.4649 153.709L35.507 145.449L29.7915 151.889L30.4919 155.037L42.9372 166.758C44.7822 165.7 46.1744 164.001 46.8495 161.984C48.0892 158.434 45.4649 153.709 45.4649 153.709Z" fill="#FFBF9D"/>
<path d="M35.3943 149.798C35.8225 148.45 35.8994 147.015 35.6176 145.629C35.3359 144.242 34.7048 142.951 33.7843 141.877C31.5191 139.525 28.8704 137.576 25.9516 136.113C24.1967 135.059 20.7191 131.388 19.9382 132.088C19.4752 132.506 19.1799 133.077 19.1074 133.696C19.0348 134.315 19.1899 134.94 19.5438 135.453C20.3488 136.991 24.2289 138.778 24.092 140.75C24.0778 140.941 24.026 141.127 23.9398 141.298C23.8536 141.469 23.7346 141.621 23.5896 141.746C23.4446 141.87 23.2764 141.965 23.0946 142.025C22.9129 142.085 22.7211 142.109 22.5303 142.094C19.3183 141.947 16.1157 141.638 12.9347 141.169C10.1252 140.589 7.52508 140.83 7.55728 141.821C7.58948 142.811 8.06443 143.431 10.3828 143.889C12.7012 144.348 16.5331 144.694 16.6619 145.218C16.7907 145.741 15.9776 146.023 14.6171 145.773C13.2567 145.524 6.81668 144.759 6.29343 145.443C6.16372 145.615 6.07381 145.814 6.03018 146.025C5.98654 146.236 5.99027 146.454 6.04109 146.664C6.09191 146.873 6.18855 147.069 6.32406 147.236C6.45957 147.404 6.63057 147.539 6.82473 147.633L8.27373 148.349C8.27373 148.349 7.25138 149.468 7.90343 150.233C8.55548 150.998 10.246 150.957 10.246 150.957L18.8273 151.714C18.8273 151.714 19.254 152.286 18.9642 152.608C18.6744 152.93 12.0492 151.658 11.9123 152.39C11.7755 153.123 11.1476 153.389 13.0957 154.113C15.9698 154.946 18.9619 155.297 21.9507 155.151C23.8183 154.87 31.4336 155.417 31.4336 155.417L35.3943 149.798Z" fill="#FFBF9D"/>
<path d="M20.1394 148.879C20.1394 149.024 17.4588 149.169 14.1502 149.008C10.8417 148.847 8.18514 148.46 8.20124 148.307C8.21734 148.155 10.8819 148.307 14.1744 148.46C17.4668 148.613 20.1394 148.718 20.1394 148.879Z" fill="#FF9A6C"/>
<path d="M26.2332 148.42C26.2332 148.477 25.5973 148.372 24.8406 147.736C24.3505 147.31 23.9606 146.781 23.699 146.187C23.4374 145.592 23.3104 144.948 23.3272 144.299C23.3845 143.612 23.5085 142.933 23.6975 142.27C23.8384 141.745 23.9061 141.203 23.8987 140.66C23.8525 140.175 23.7415 139.699 23.5687 139.243C23.5687 139.187 24.1563 139.613 24.2851 140.628C24.3502 141.198 24.3175 141.775 24.1885 142.334C24.037 142.973 23.9321 143.621 23.8746 144.274C23.8575 145.442 24.2998 146.569 25.1062 147.414C25.7261 148.138 26.2735 148.34 26.2332 148.42Z" fill="#FF9A6C"/>
<path d="M78.1204 99V99.6937L60 106.233L65.1865 159.574L62.5 188.689C81.8135 200.658 124.762 195.712 127.5 194.5C128.925 194.459 128.681 190.667 128.914 188.689C129.115 186.913 128.962 185.115 128.463 183.401L125.459 172.709C125.902 179.363 123.937 133.018 123.848 131.326L128.238 107.483L108.5 99L102 105.982L96 129.919L88 106.233L78.1204 99Z" fill="white"/>
<path d="M127.447 107C127.447 107 131.804 110.711 132.523 113.569C133.242 116.426 148.907 149.344 148.907 149.344L156.689 151.38L158.77 155.568C159.985 157.969 160.312 160.703 159.696 163.31C159.08 165.918 157.558 168.24 155.386 169.887C155.116 170.087 154.833 170.271 154.54 170.438C150.311 172.901 142.783 172.77 138.376 167.728C134.206 162.949 122 145.772 122 145.772V124.752L127.447 107Z" fill="white"/>
<path d="M152.314 152.717L162.964 146.43L168.1 152.717L167.038 155.76L153.304 165.975C151.599 164.584 150.456 162.622 150.084 160.453C149.481 156.613 152.314 152.717 152.314 152.717Z" fill="#FFBF9D"/>
<path d="M162.787 149.916C162.522 148.526 162.617 147.09 163.064 145.747C163.511 144.404 164.294 143.198 165.339 142.244C167.854 140.176 170.697 138.543 173.752 137.414C175.619 136.609 179.507 133.333 180.192 134.122C180.876 134.911 181.182 136.086 180.192 137.519C179.201 138.952 173.574 141.085 174.363 142.896C174.685 143.629 176.456 143.766 176.456 143.766C179.671 143.992 182.895 144.056 186.116 143.959C188.966 143.709 191.526 144.257 191.373 145.239C191.22 146.221 190.689 146.76 188.33 146.961C185.971 147.163 182.132 147.01 181.89 147.549C181.649 148.088 182.486 148.435 183.862 148.354C185.239 148.274 191.727 148.249 192.17 148.99C192.278 149.178 192.342 149.388 192.359 149.603C192.376 149.819 192.345 150.036 192.268 150.239C192.191 150.441 192.07 150.624 191.914 150.774C191.758 150.925 191.57 151.038 191.365 151.107L189.844 151.647C189.844 151.647 190.729 152.878 189.988 153.562C189.248 154.247 187.573 154.005 187.573 154.005L178.968 153.764C178.968 153.764 178.477 154.279 178.718 154.633C178.96 154.987 185.706 154.496 185.754 155.237C185.802 155.977 186.39 156.316 184.378 156.847C181.43 157.338 178.422 157.338 175.474 156.847C173.655 156.348 166.032 156.042 166.032 156.042L162.787 149.916Z" fill="#FFBF9D"/>
<path d="M175.772 140.537C175.836 140.602 175.37 141.044 174.782 141.825C174.444 142.272 174.21 142.789 174.098 143.339C173.969 143.958 173.985 144.683 173.872 145.48C173.776 146.164 173.546 146.822 173.193 147.417C172.841 148.011 172.374 148.529 171.82 148.941C171.396 149.323 170.858 149.555 170.29 149.601C170.25 149.513 170.845 149.287 171.578 148.635C172.521 147.8 173.142 146.661 173.333 145.415C173.386 144.687 173.477 143.961 173.607 143.242C173.761 142.642 174.059 142.09 174.476 141.632C174.814 141.168 175.259 140.793 175.772 140.537Z" fill="#FF9A6C"/>
<path d="M177.27 150.455C177.27 150.302 180.143 150.415 183.653 150.705C187.163 150.994 190.005 151.365 189.997 151.51C189.989 151.654 187.123 151.55 183.613 151.252C180.103 150.954 177.261 150.6 177.27 150.455Z" fill="#FF9A6C"/>
<path d="M72.019 139.911H87.069C87.3277 139.918 87.5848 139.867 87.8215 139.762C88.0582 139.658 88.2685 139.501 88.4371 139.305C88.6058 139.108 88.7284 138.877 88.7962 138.627C88.864 138.377 88.8752 138.115 88.829 137.861L87.829 130.991C87.7184 130.438 87.4238 129.94 86.9933 129.577C86.5629 129.213 86.022 129.007 85.459 128.991H70.459C70.2052 128.985 69.9532 129.035 69.7207 129.137C69.4882 129.239 69.2808 129.39 69.1131 129.581C68.9454 129.771 68.8215 129.996 68.7499 130.24C68.6784 130.483 68.661 130.74 68.699 130.991L69.699 137.861C69.7975 138.414 70.0804 138.918 70.5016 139.29C70.9229 139.662 71.4576 139.881 72.019 139.911Z" fill="#FFD000"/>
<path d="M77.3491 130.62H78.9791C79.0451 130.623 79.1109 130.611 79.1715 130.584C79.2321 130.558 79.286 130.519 79.3292 130.469C79.3725 130.419 79.4039 130.36 79.4212 130.296C79.4385 130.232 79.4412 130.165 79.4291 130.1L78.8191 126.02C78.7958 125.877 78.7229 125.747 78.6133 125.652C78.5037 125.557 78.3642 125.503 78.2191 125.5H76.5891C76.5231 125.498 76.4574 125.51 76.3968 125.536C76.3362 125.563 76.2823 125.602 76.239 125.652C76.1958 125.702 76.1644 125.761 76.1471 125.825C76.1298 125.889 76.1271 125.955 76.1391 126.02L76.7491 130.1C76.7725 130.244 76.8453 130.374 76.955 130.469C77.0646 130.564 77.2041 130.618 77.3491 130.62Z" fill="#407BFF"/>
<path d="M149.18 150.255C149.18 150.36 148.27 150.255 146.934 150.706C145.207 151.303 143.678 152.364 142.514 153.773C141.364 155.213 140.416 156.803 139.697 158.499C139.425 159.225 139.089 159.926 138.69 160.592C138.798 159.819 139.015 159.065 139.334 158.354C139.967 156.563 140.901 154.895 142.096 153.419C143.317 151.927 144.971 150.85 146.829 150.336C147.589 150.085 148.404 150.057 149.18 150.255Z" fill="#263238"/>
<path d="M61.2334 121.42C61.3813 121.775 61.4815 122.149 61.5312 122.531C61.6842 123.255 61.8774 124.31 62.0867 125.614C62.5053 128.222 62.948 131.845 63.3183 135.854C63.6886 139.863 63.9623 143.501 64.1716 146.133C64.2521 147.357 64.3326 148.396 64.389 149.249C64.4394 149.631 64.4394 150.018 64.389 150.4C64.2742 150.033 64.1986 149.656 64.1636 149.273C64.0509 148.54 63.914 147.478 63.7691 146.166C63.4632 143.549 63.1251 139.919 62.7548 135.91C62.3845 131.901 62.0223 128.287 61.7083 125.711C61.5554 124.495 61.4266 123.457 61.3219 122.611C61.2387 122.22 61.2089 121.819 61.2334 121.42Z" fill="#263238"/>
<path d="M124.216 119.594C124.331 120.05 124.399 120.516 124.418 120.986C124.506 121.896 124.603 123.2 124.683 124.826C124.869 128.046 124.957 132.554 124.973 137.497V154.008C124.999 154.478 124.98 154.95 124.917 155.416C124.813 154.957 124.761 154.487 124.764 154.016C124.699 153.106 124.635 151.794 124.587 150.176C124.474 146.956 124.434 142.448 124.426 137.505C124.418 132.562 124.377 128.078 124.297 124.842C124.257 123.305 124.225 122.017 124.2 121.003C124.162 120.533 124.168 120.062 124.216 119.594Z" fill="#263238"/>
<path d="M53.0626 166.041C52.8107 165.127 52.6251 164.197 52.5071 163.256C52.1299 161.009 51.4019 158.836 50.3497 156.816C49.276 154.835 47.6626 153.199 45.6968 152.099C44.8515 151.695 43.9769 151.356 43.0806 151.084C43.3458 151.027 43.6203 151.027 43.8856 151.084C44.583 151.201 45.2605 151.415 45.8981 151.72C48.0133 152.775 49.7468 154.464 50.8569 156.55C51.9221 158.624 52.5988 160.875 52.8533 163.192C53.0427 164.129 53.1131 165.086 53.0626 166.041Z" fill="#263238"/>
<path d="M55.6465 155.166C55.5338 155.295 53.9318 153.645 51.3236 152.751C48.7154 151.858 46.4936 152.164 46.4453 151.995C46.397 151.826 48.7557 151.278 51.5007 152.236C54.2458 153.194 55.7672 155.102 55.6465 155.166Z" fill="#263238"/>
<path d="M96.5007 192.574C96.4519 192.276 96.4303 191.975 96.4363 191.673C96.4363 191.037 96.4363 190.175 96.3799 189.097C96.3316 186.803 96.2672 183.574 96.1867 179.606C96.0016 171.556 95.744 160.503 95.4542 148.299C95.1644 136.095 95.0114 124.994 95.0275 116.977C95.0275 112.952 95.0678 109.732 95.1161 107.478C95.1161 106.399 95.1724 105.538 95.1966 104.902C95.1898 104.6 95.2114 104.298 95.261 104C95.2834 104.3 95.2834 104.601 95.261 104.902C95.261 105.538 95.261 106.399 95.261 107.478C95.261 109.772 95.3093 113.008 95.3415 116.969C95.422 125.019 95.6554 136.055 95.9291 148.283C96.2028 160.511 96.4443 171.58 96.5087 179.598C96.5087 183.623 96.5087 186.843 96.5087 189.097C96.5087 190.175 96.5087 191.037 96.4685 191.673C96.4998 191.972 96.5105 192.273 96.5007 192.574Z" fill="#263238"/>
<path d="M45.5976 153.75C45.6024 153.684 46.3602 154.364 46.9027 155.788C47.2395 156.601 47.4652 157.46 47.5734 158.338C47.6586 159.45 47.5775 160.569 47.3329 161.657C47.1332 162.75 46.74 163.796 46.173 164.742C45.6861 165.508 45.0443 166.156 44.2921 166.641C43.6259 167.133 42.8148 167.37 41.9999 167.309C42.7273 167.059 43.4238 166.72 44.0746 166.3C44.7467 165.81 45.3164 165.184 45.7495 164.461C46.2471 163.554 46.5917 162.567 46.7682 161.541C46.9877 160.517 47.0639 159.467 46.9943 158.422C46.9184 157.557 46.7445 156.704 46.4762 155.882C46.074 154.527 45.5137 153.794 45.5976 153.75Z" fill="#263238"/>
<path d="M153.598 166.222C153.598 166.222 153.344 166.178 152.973 165.91C152.449 165.562 151.971 165.148 151.552 164.677C150.11 163.111 149.29 161.072 149.247 158.943C149.204 156.814 149.94 154.743 151.318 153.12C151.722 152.631 152.187 152.195 152.701 151.822C153.062 151.574 153.285 151.465 153.305 151.493C153.325 151.521 152.543 152.122 151.62 153.36C150.395 154.956 149.75 156.922 149.792 158.933C149.833 160.945 150.559 162.882 151.848 164.426C152.811 165.621 153.653 166.141 153.598 166.222Z" fill="#263238"/>
<mask id="mask0_752_25867" style="mask-type:alpha" maskUnits="userSpaceOnUse" x="15" y="43" width="157" height="155">
<path fill-rule="evenodd" clip-rule="evenodd" d="M96.2803 43.0786C119.813 44.5624 131.23 68.3973 145.615 85.1754C157.274 98.7741 168.061 112.409 170.328 129.445C172.947 149.122 174.494 171.605 158.994 185.721C143.445 199.882 118.331 198.809 96.2803 196.883C73.6426 197.322 55.3515 190.342 44.6916 175.737C29.5607 163.174 16.0518 147.922 15.0632 129.445C14.0359 110.244 25.6727 93.1752 39.4882 78.4837C54.9421 62.05 72.3763 41.5713 96.2803 43.0786Z" fill="#FFF3CC"/>
</mask>
<g mask="url(#mask0_752_25867)">
<rect x="6" y="161" width="185" height="43" fill="#D9D9D9"/>
</g>
<path d="M121.078 75.1289C122.154 72.41 124.384 67.8172 127.959 65.0721C128.3 64.8096 128.925 65.3135 128.836 65.7859C128.148 69.4916 129.156 74.8455 129.565 76.7456C129.649 77.1445 129.434 77.4489 129.077 77.4437L122.7 77.3649C121.681 77.3544 120.716 76.0422 121.078 75.1289Z" fill="#3C474C"/>
<path d="M120.758 76.2637C121.834 73.5448 124.065 68.952 127.639 66.2068C127.98 65.9444 128.605 66.4483 128.516 66.9207C127.828 70.6264 128.836 75.9802 129.245 77.8803C129.329 78.2792 129.114 78.5837 128.757 78.5784L122.38 78.4997C121.361 78.4892 120.396 77.177 120.758 76.2637Z" fill="#FFD000"/>
<path d="M111.515 84.8257C110.612 81.8968 109.336 76.5272 109.94 70.9634C109.998 70.4385 110.664 70.1131 110.879 70.5173C112.58 73.6666 116.249 76.1703 117.582 76.9944C117.721 77.1128 117.81 77.28 117.829 77.4616C117.849 77.6432 117.798 77.8254 117.687 77.9707L113.787 84.5842C113.152 85.6603 111.814 85.802 111.515 84.8257Z" fill="#FFD000"/>
<path d="M111.515 84.8257C110.612 81.8968 109.336 76.5272 109.94 70.9634C109.998 70.4385 110.664 70.1131 110.879 70.5173C112.58 73.6666 116.249 76.1703 117.582 76.9944C117.721 77.1128 117.81 77.28 117.829 77.4616C117.849 77.6432 117.798 77.8254 117.687 77.9707L113.787 84.5842C113.152 85.6603 111.814 85.802 111.515 84.8257Z" fill="#3C474C"/>
<path d="M139.418 165.273C145.002 168.024 150.256 172.968 165.263 172.916C175.624 172.884 185.209 167.006 187.277 168.229C189.345 169.452 182.401 174.658 172.727 176.59C160.355 179.057 146.755 177.603 142.751 175.671C138.746 173.74 131.828 173.698 131.828 173.698L139.418 165.273Z" fill="#FFD000"/>
<path opacity="0.3" d="M139.418 165.273C145.002 168.024 150.256 172.968 165.263 172.916C175.624 172.884 185.209 167.006 187.277 168.229C189.345 169.452 182.401 174.658 172.727 176.59C160.355 179.057 146.755 177.603 142.751 175.671C138.746 173.74 131.828 173.698 131.828 173.698L139.418 165.273Z" fill="black"/>
<path d="M159.481 65.5826C158.411 64.9743 157.179 65.9246 156.469 67.1315C156.279 66.0342 155.882 65 155.056 65C153.307 65 152.489 67.8175 152.96 69.833C152.557 69.2866 152.083 68.9284 151.576 69.1099C150.133 69.614 150.25 72.1401 151.196 73.6918C151.058 74.1882 150.935 74.6859 150.817 75.1664C150.619 75.9719 150.433 76.729 150.206 77.3506C149.928 78.1163 149.614 79.1529 149.288 80.2311C148.588 82.5455 147.83 85.0514 147.236 85.4811C146.364 86.111 141.667 87.7696 140.102 87.6436C139.692 87.6106 139.188 87.4957 138.666 87.3767C137.199 87.0421 135.584 86.6739 135.468 87.9901C135.459 88.093 135.467 88.2367 135.49 88.4164C133.976 88.2476 112.141 85.855 111.234 88.2262C110.294 90.6827 113.139 94.7926 113.139 94.7926C112.999 94.2852 112.901 93.7674 112.845 93.2442C112.887 93.2968 112.935 93.3548 112.989 93.4192C113.581 94.1249 114.818 95.5999 114.64 99.2699C114.446 103.275 114.021 120.176 116.021 123.614C118.02 127.052 115.149 133.807 113.706 136.626C112.262 139.445 112.394 144.011 112.829 146.452C113.265 148.893 111.643 153.832 108.824 159.842C106.006 165.852 110.95 169.983 115.58 172.234C108.446 173.3 110.698 177.426 112.829 177.426H127.657C135.336 177.426 138.486 172.544 138.486 172.544C139.31 173.658 139.749 175.011 139.735 176.397C139.609 178.491 143.052 179.866 145.147 179.866C145.369 179.866 145.633 179.872 145.927 179.878C148.412 179.932 153.082 180.032 153.251 177.179C153.334 175.781 152.564 174.562 151.726 173.234C150.651 171.531 149.462 169.647 149.813 166.975C150.148 164.42 148.915 158.945 147.729 153.685C146.708 149.153 145.723 144.781 145.808 142.573C145.992 137.802 144.664 131.183 143.367 127.304C142.122 123.578 143.221 113.222 143.602 109.624L143.645 109.216C143.652 109.154 143.657 109.088 143.661 109.019L143.682 108.986C144.271 108.058 145.375 106.085 146.482 104.106C147.761 101.818 149.047 99.5195 149.55 98.8132C149.682 98.6291 149.856 98.3895 150.061 98.1074L150.061 98.1064C151.323 96.3697 153.754 93.0236 154.589 91.0869C155.089 89.9277 155.77 86.7099 156.421 83.6324C157.034 80.7318 157.622 77.9558 158.006 77.1459C158.272 76.5863 158.665 76.1577 159.043 75.7443C159.352 75.4076 159.651 75.0809 159.864 74.7018C160.815 74.1316 162.838 72.7815 162.442 71.8235C162.142 71.0986 161.523 70.862 160.845 70.9987C161.677 70.0495 162.495 68.8437 161.974 68.2123C161.412 67.5352 160.49 67.5806 159.612 67.9836C159.934 66.965 160.075 65.9236 159.481 65.5826Z" fill="#3C474C"/>
<path d="M101.536 92.346C102.172 91.7685 103.049 91.9146 103.846 92.4036C103.948 91.7968 104.198 91.3284 104.702 91.2175C105.869 90.9571 106.896 92.0768 107.425 93.4679C107.485 93.5151 107.545 93.5638 107.604 93.6138C107.814 93.3944 108.062 93.2727 108.355 93.3066C109.567 93.4317 110.089 95.0489 109.953 96.5687C110.333 97.1984 110.669 97.8197 110.962 98.3624C111.062 98.5467 111.157 98.7228 111.247 98.8861C112.281 100.765 113.425 100.65 115.871 100.036C117.648 99.6021 111.942 93.3037 113.5 92.346C114.55 91.564 127.097 91.1493 128 92.346C128.903 93.5428 123.855 120.805 123.314 123.314C123.2 123.84 123.167 124.391 123.138 124.867C123.071 125.973 123.029 126.671 122.06 125.687C121.648 125.269 121.082 124.372 120.428 123.333C118.88 120.877 116.833 117.629 115.136 118.05C113.227 118.527 111.699 116.021 110.301 113.727L110.3 113.726C110.161 113.498 110.024 113.273 109.887 113.053C109.396 112.261 108.447 110.215 107.468 108.105C106.293 105.573 105.076 102.949 104.555 102.287C104.236 101.883 103.839 101.606 103.455 101.338C103.194 101.156 102.94 100.978 102.721 100.768C101.623 100.009 100.086 98.7116 100.187 97.4585C100.214 97.1048 100.339 96.909 100.53 96.8315C100.104 96.3491 99.8684 95.8598 100.077 95.4534C100.414 94.7938 101.11 94.5753 101.884 94.6412C101.374 93.7365 101.046 92.792 101.536 92.346Z" fill="#3C474C"/>
<path d="M158.907 73.1663C159.342 71.5916 158.518 70.3844 157.017 69.786C155.4 69.1404 153.616 70.101 153.868 71.0877C154.114 71.9801 155.206 71.8488 156.03 72.3422C156.629 72.6782 157.978 76.5413 158.907 73.1663Z" fill="#FFCBCB"/>
<path d="M161.599 71.8913C161.678 71.1669 160.707 71.2194 160.214 71.6708C159.72 72.1222 159.689 72.9096 160.34 72.7678C160.99 72.6261 161.536 72.4687 161.599 71.8913Z" fill="#FFCBCB"/>
<path d="M152.13 70.2381C152.55 69.7605 153.091 70.4218 153.086 71.0045C153.08 71.5871 152.592 72.0542 152.303 71.5713C152.015 71.0885 151.773 70.6213 152.13 70.2381Z" fill="#FFCBCB"/>
<path d="M160.896 69.1514C160.896 68.3641 159.846 68.553 159.379 69.1094C158.912 69.6658 158.996 70.5056 159.657 70.2694C160.319 70.0332 160.912 69.7865 160.896 69.1514Z" fill="#FFCBCB"/>
<path d="M155.185 66.643C154.487 66.2809 154.135 67.2834 154.424 67.9553C154.713 68.6271 155.474 68.963 155.579 68.2649C155.684 67.5668 155.747 66.9317 155.185 66.643Z" fill="#FFCBCB"/>
<path d="M158.991 66.7522C158.555 65.9439 157.579 66.6892 157.39 67.5133C157.201 68.3373 157.736 69.1667 158.298 68.563C158.859 67.9594 159.337 67.4293 158.991 66.7522Z" fill="#FFCBCB"/>
<path d="M103.778 98.9821C103.636 98.684 103.556 98.3603 103.542 98.0305C103.528 97.7007 103.582 97.3715 103.698 97.0626C103.815 96.7538 103.993 96.4718 104.221 96.2334C104.449 95.995 104.724 95.8051 105.027 95.6753C106.387 94.9667 108.092 95.7645 107.977 96.7251C107.872 97.5806 106.885 97.5281 106.213 98.0425C105.741 98.3995 105.059 102.116 103.778 98.9821Z" fill="#FFCBCB"/>
<path d="M101.211 97.8365C101.132 97.2014 101.988 97.2277 102.424 97.6213C102.859 98.015 102.896 98.6973 102.334 98.5819C101.773 98.4664 101.274 98.3457 101.211 97.8365Z" fill="#FFCBCB"/>
<path d="M108.686 94.3525C108.061 94.0008 107.799 94.7042 108.05 95.2291C108.302 95.7539 109.001 96.0951 109.1 95.5912C109.2 95.0873 109.189 94.6307 108.686 94.3525Z" fill="#FFCBCB"/>
<path d="M101.495 95.5596C101.437 94.872 102.366 94.9402 102.822 95.3863C103.279 95.8325 103.284 96.5726 102.681 96.4361C102.077 96.2997 101.542 96.1159 101.495 95.5596Z" fill="#FFCBCB"/>
<path d="M105.347 92.1529C105.814 91.628 106.397 92.3681 106.397 93.0032C106.397 93.6383 105.841 94.1527 105.541 93.6068C105.242 93.0609 104.974 92.5623 105.347 92.1529Z" fill="#FFCBCB"/>
<path d="M102.812 93.0917C103.116 92.3464 104.04 92.9133 104.276 93.6166C104.512 94.32 104.124 95.0915 103.578 94.6191C103.032 94.1467 102.565 93.6743 102.812 93.0917Z" fill="#FFCBCB"/>
<path d="M120.39 128.04C120.076 123.936 120.573 119.81 121.855 115.899C123.43 110.955 119.991 104.241 127.209 101.438C133.591 98.961 137.182 115.238 135.014 120.334C132.846 125.431 132.914 135.173 133.828 139.372C134.741 143.571 136.132 148.001 135.838 153.303C135.544 158.604 135.024 163.149 133.791 167.28C132.557 171.411 128.668 172.34 127.156 170.566C124.841 167.842 119.95 159.208 122.306 151.318C124.626 143.603 120.663 132.186 120.39 128.04Z" fill="#FAFAFA"/>
<path d="M131.009 78.2007C130.578 77.2979 130.589 76.3111 131.938 76.6628C132.379 76.7835 134.452 79.177 131.009 78.2007Z" fill="#FFD000"/>
<path fill-rule="evenodd" clip-rule="evenodd" d="M117.5 172.5C113.677 172.743 112.725 172.927 111.748 175.035C111.422 175.737 112.137 177.019 112 177C111.663 177.076 111.047 175.786 111.253 174.964C111.799 172.783 113.623 172.459 117.5 172C121.973 172 123.791 171.61 125.692 174.34C126.5 175.5 125.106 176.411 125 176.5C124.7 176.75 129.76 172.5 117.5 172.5ZM151.125 174.522C150.588 174.439 149.984 174.575 149.593 174.732C149.465 174.783 148.551 175.128 148.5 175C148.449 174.872 149.279 174.319 149.407 174.268C149.849 174.091 150.546 173.927 151.201 174.028C151.532 174.079 151.862 174.199 152.139 174.429C152.419 174.661 152.631 174.993 152.743 175.439C152.784 175.792 152.399 177.537 152.258 177.387C152.2 177.477 152.51 176.228 152.258 175.56C152.138 175.244 152.01 174.971 151.82 174.814C151.628 174.655 151.389 174.563 151.125 174.522ZM143.5 175C143.5 174.862 145.362 174.75 145.5 174.75C145.782 174.75 146.816 174.881 147.724 175.27C148.178 175.465 148.627 175.735 148.929 176.108C149.24 176.493 149.388 176.979 149.243 177.56C149.209 177.694 148.134 179.033 148 179C147.866 178.966 148.724 177.573 148.758 177.439C148.862 177.021 148.76 176.694 148.54 176.423C148.311 176.14 147.947 175.91 147.527 175.73C146.684 175.369 145.718 175.25 145.5 175.25C145.362 175.25 143.5 175.138 143.5 175Z" fill="black" fill-opacity="0.3"/>
<path d="M120.758 76.2637C121.834 73.5448 124.065 68.952 127.639 66.2068C127.98 65.9444 128.605 66.4483 128.516 66.9207C127.828 70.6264 128.836 75.9802 129.245 77.8803C129.329 78.2792 129.114 78.5837 128.757 78.5784L122.38 78.4997C121.361 78.4892 120.396 77.177 120.758 76.2637Z" fill="#FFD000"/>
<path d="M128.012 94.4194C133.261 92.1099 136.898 90.0996 137.229 87.8951C137.56 85.6905 137.365 82.3575 136.945 81.7014C137.113 81.7978 137.289 81.8803 137.47 81.9481C137.148 80.9128 136.444 80.0385 135.502 79.5021C133.895 78.5799 132.43 77.4308 131.151 76.0903C129.576 74.4317 126.521 72.7731 123.277 73.5236C120.034 74.2742 112.297 76.2478 110.979 82.0006C109.662 87.7533 111.793 91.4485 113.798 93.3906C115.803 95.3327 121.566 97.2485 128.012 94.4194Z" fill="#3C474C"/>
<path d="M112.505 85.394C111.72 82.6866 110.611 77.7231 111.136 72.58C111.186 72.0948 111.766 71.794 111.953 72.1676C113.432 75.0788 116.622 77.3932 117.782 78.1549C117.903 78.2644 117.979 78.4189 117.996 78.5868C118.013 78.7547 117.969 78.9231 117.873 79.0574L114.482 85.1708C113.929 86.1655 112.765 86.2965 112.505 85.394Z" fill="#FFD000"/>
<path d="M120.171 83.8988C115.525 85.253 119.215 77.3062 123.042 77.0175C126.868 76.7288 133.361 80.0461 120.171 83.8988Z" fill="#FFD000"/>
<path d="M122.999 80.6408C122.768 79.5228 123.136 78.1108 124.763 78.1371C125.298 78.1423 127.172 80.7983 122.999 80.6408Z" fill="black"/>
<path d="M131.009 78.2007C130.578 77.2979 130.589 76.3111 131.938 76.6628C132.379 76.7835 134.452 79.177 131.009 78.2007Z" fill="black"/>
<path opacity="0.7" d="M131.765 79.0566C130.683 79.0566 130.122 79.2456 130.064 79.9017C130.006 80.5578 131.639 80.9515 131.969 80.5788C132.3 80.2061 132.767 79.0724 131.765 79.0566Z" fill="#FFCBCB"/>
<path fill-rule="evenodd" clip-rule="evenodd" d="M126.714 85.3714C127.134 86.0662 118.839 90.0604 117.735 90.4726C117.259 90.6502 110.693 91.8492 111.268 90.4082C111.375 90.1387 112.683 91.8247 117.56 90.0042C118.709 89.5752 126.563 85.1225 126.714 85.3714ZM127.186 86.8333C128.118 88.0247 119.763 94.2043 118.208 94.444C118.401 94.4198 114.223 96.2938 113.253 95.4611C114.663 96.2018 126 90.0008 127.186 86.8333Z" fill="#FAFAFA"/>
<path fill-rule="evenodd" clip-rule="evenodd" d="M134.176 81.2155C134.626 81.7945 140.512 80.134 141.196 79.8471C141.491 79.7234 144.512 77.3271 143.133 76.8C142.875 76.7014 143.879 78.2402 140.859 79.5073C140.147 79.8059 134.015 81.0081 134.176 81.2155ZM135.25 82.2414C135.957 83.3329 143.684 82.8496 144.363 82.258C144.283 82.3344 147.133 81.4222 146.737 80.5113C146.921 81.5762 138.257 83.4362 135.25 82.2414Z" fill="#FAFAFA"/>
<path opacity="0.3" fill-rule="evenodd" clip-rule="evenodd" d="M118.921 74.7628C119.5 74.5 121.645 75.2432 122.865 71.5C121.951 73.7772 123.023 75.0703 118.921 74.7628ZM151.538 73.7529C151.674 73.7739 151.768 73.9016 151.747 74.038C150.946 79.2438 150.194 82.5896 149.577 84.6589C149.269 85.6929 148.992 86.4148 148.757 86.8931C148.64 87.1318 148.53 87.3165 148.427 87.4507C148.331 87.5758 148.216 87.6916 148.079 87.7372C147.948 87.7808 147.044 87.631 147 87.5C148.809 87.8478 149.288 84.9905 149.098 84.5161C149.493 83.1895 151.218 73.7037 151.538 73.7529ZM120.526 76.0417C120.069 76.2102 117.646 76.5212 118.421 76.2628C119.065 76.0483 119.708 75.8105 120.351 75.573C120.453 75.5356 120.554 75.4981 120.656 75.4607C121.398 75.1873 122.138 74.9194 122.865 74.6983C124.313 74.2577 128.188 74.7375 129.5 75C129.753 75.0011 122.969 74.8857 123.01 75.1767C122.299 75.3931 121.571 75.6565 120.829 75.9299C120.728 75.967 120.627 76.0043 120.526 76.0417ZM103.5 101C103.628 100.948 105.679 103.278 105.731 103.405C106.479 105.234 107.752 108.128 109.136 110.862C109.828 112.229 110.546 113.554 111.24 114.685C111.043 114.512 113.81 118.566 115 118C115.199 118.371 113.374 117.852 113 117.5C108.5 112.447 107 105 103.5 101ZM141.5 118C141.632 117.96 140.772 121.358 141.239 123.428C141.671 125.337 142.786 126.924 143.514 127.894C143.535 127.921 143.555 127.948 143.575 127.975C143.95 128.475 144.308 128.962 144.601 129.58C144.895 130.202 145.12 130.947 145.248 131.969C145.418 133.326 145.588 134.457 145.74 135.46C146.031 137.39 146.25 138.842 146.25 140.5C146.25 140.638 146.138 142.5 146 142.5C145.862 142.5 145.75 140.638 145.75 140.5C145.75 138.879 145.539 137.481 145.252 135.582C145.1 134.575 144.927 133.428 144.752 132.031C144.63 131.053 144.417 130.361 144.149 129.795C143.88 129.226 143.55 128.775 143.175 128.275C143.156 128.249 143.137 128.224 143.117 128.198C142.373 127.206 141.127 125.566 140.761 123.572C140.363 121.413 141.368 118.04 141.5 118ZM116.5 124C116.63 123.954 117.19 125.787 117.236 125.917C117.961 126.704 119.757 142.729 117.421 142.237C119.876 137.443 115.52 120.438 116.5 124Z" fill="black"/>
</svg>
