<svg width="200" height="200" viewBox="0 0 200 200" fill="none" xmlns="http://www.w3.org/2000/svg">
<g clip-path="url(#clip0_752_27927)">
<path fill-rule="evenodd" clip-rule="evenodd" d="M96.6489 40.0786C72.5164 41.5624 60.8087 65.3973 46.0572 82.1754C34.101 95.7741 23.0389 109.409 20.7142 126.445C18.0291 146.122 16.4425 168.605 32.3369 182.721C48.2827 196.882 74.0361 195.809 96.6489 193.883C119.863 194.322 138.62 187.342 149.552 172.737C165.068 160.174 178.921 144.922 179.935 126.445C180.989 107.244 169.055 90.1752 154.888 75.4837C139.04 59.05 121.162 38.5713 96.6489 40.0786Z" fill="#FFF3CC"/>
<path d="M107.94 44.8647L107.07 44.8164C102.876 44.5763 98.7456 45.9237 95.4999 48.5907C92.2541 51.2577 90.1313 55.0488 89.5536 59.2099C88.4427 67.2599 89.7307 68.6774 89.5536 73.0002C89.1431 81.968 97.816 88.5002 97.816 88.5002L95.2933 94.952C95.1675 96.3825 95.3256 97.8237 95.7585 99.1929C96.1915 100.562 96.8907 101.832 97.816 102.93C98.7413 104.029 99.8745 104.933 101.151 105.592C102.426 106.251 103.82 106.651 105.251 106.769C108.103 106.998 110.93 106.096 113.123 104.259C115.316 102.422 116.698 99.796 116.972 96.9484L120.192 63.6937C121.496 54.4362 117.23 45.9515 107.94 44.8647Z" fill="#FFBF9D"/>
<path d="M98 88.5007C102.149 88.7417 106.371 87.6491 110 85.6777C110 85.6777 105.881 91.7827 97 90.5007L98 88.5007Z" fill="#FF9A6C"/>
<path d="M104.004 68.3284C103.975 68.7349 104.102 69.1368 104.357 69.447C104.613 69.7572 104.976 69.9508 105.368 69.9858C105.559 70.0133 105.753 70.0008 105.939 69.9492C106.125 69.8975 106.299 69.8078 106.451 69.6852C106.603 69.5627 106.729 69.4099 106.823 69.2358C106.917 69.0617 106.976 68.8698 106.997 68.6716C107.021 68.2663 106.892 67.8672 106.638 67.5581C106.384 67.249 106.023 67.054 105.633 67.0142C105.442 66.9867 105.248 66.9992 105.062 67.0509C104.876 67.1025 104.702 67.1922 104.55 67.3148C104.398 67.4373 104.272 67.5901 104.178 67.7642C104.084 67.9383 104.025 68.1302 104.004 68.3284Z" fill="#263238"/>
<path d="M91.212 63.701C91.3649 63.8781 92.3712 63.21 93.7477 63.2985C95.1243 63.3871 96.0984 64.1035 96.2513 63.9667C96.4043 63.8298 96.1869 63.5883 95.7683 63.2422C95.1958 62.793 94.4986 62.5316 93.7719 62.4935C93.0568 62.4539 92.3472 62.6397 91.7433 63.0248C91.3166 63.3227 91.1556 63.6125 91.212 63.701Z" fill="#263238"/>
<path d="M92.0028 68.3284C91.9789 68.7337 92.1076 69.1328 92.3621 69.4419C92.6165 69.751 92.9767 69.946 93.3671 69.9858C93.5579 70.0133 93.752 70.0008 93.938 69.9491C94.1241 69.8975 94.2982 69.8078 94.4501 69.6852C94.6021 69.5627 94.7287 69.4099 94.8226 69.2358C94.9165 69.0617 94.9756 68.8698 94.9966 68.6716C95.023 68.2657 94.8951 67.8652 94.6402 67.5556C94.3854 67.2459 94.0237 67.0516 93.6323 67.0142C93.4416 66.9867 93.2474 66.9992 93.0614 67.0509C92.8754 67.1025 92.7012 67.1922 92.5493 67.3148C92.3974 67.4373 92.2707 67.5901 92.1769 67.7642C92.083 67.9383 92.0238 68.1302 92.0028 68.3284Z" fill="#263238"/>
<path d="M104.744 64.7316C104.889 64.9087 105.903 64.2486 107.28 64.3291C108.656 64.4096 109.622 65.1341 109.783 64.9973C109.944 64.8604 109.719 64.6189 109.292 64.2728C108.724 63.8278 108.033 63.5691 107.312 63.5322C106.596 63.4864 105.885 63.6727 105.283 64.0635C104.833 64.3613 104.672 64.6511 104.744 64.7316Z" fill="#263238"/>
<path d="M99.1652 74.6567C98.4536 74.3823 97.7095 74.201 96.9514 74.1173C96.5972 74.061 96.2752 73.9724 96.2269 73.7309C96.2149 73.3658 96.3162 73.0059 96.5167 72.7005C96.9031 71.8955 97.3217 71.002 97.7162 70.0843C99.3745 66.3571 100.598 63.29 100.453 63.2256C100.308 63.1612 98.8432 66.1237 97.1688 69.8508C96.7663 70.7685 96.3638 71.646 96.0176 72.4832C95.7753 72.8956 95.6816 73.3786 95.752 73.8517C95.7956 73.9799 95.8685 74.0961 95.9649 74.1911C96.0613 74.2862 96.1786 74.3574 96.3074 74.3991C96.497 74.4654 96.6947 74.506 96.8951 74.5198C97.6438 74.6547 98.4057 74.7006 99.1652 74.6567Z" fill="#263238"/>
<path d="M104.641 60.4005C104.762 60.7788 106.146 60.6822 107.748 60.972C109.35 61.2618 110.63 61.777 110.864 61.447C110.968 61.294 110.759 60.9318 110.26 60.5373C109.583 60.0516 108.804 59.7266 107.982 59.5871C107.161 59.4476 106.318 59.4973 105.518 59.7323C104.915 59.9416 104.593 60.2153 104.641 60.4005Z" fill="#263238"/>
<path d="M91.9137 60.827C92.1311 61.149 93.0971 60.8833 94.2402 60.9316C95.3833 60.9799 96.3332 61.2617 96.5747 60.9316C96.6793 60.7787 96.5747 60.4567 96.148 60.1266C95.6025 59.7358 94.9513 59.5197 94.2804 59.5068C93.608 59.4784 92.9436 59.6614 92.3806 60.03C91.962 60.352 91.8091 60.666 91.9137 60.827Z" fill="#263238"/>
<path d="M90.6564 55.1525C90.6564 55.1525 93.337 49.6784 96.1223 48.5192C99.4872 47.1266 100.687 50.8054 103.858 50.1292C107.03 49.453 110.242 48.1006 113.293 50.6927C116.626 53.5344 114.903 55.2974 114.903 59.2821C114.855 75.4385 117.535 80.1639 118.807 72.629C118.944 71.824 121.295 71.2686 121.834 67.799C122.543 63.2749 123.034 57.7526 122.204 54.4602C121.504 51.6909 120.063 49.7187 117.374 47.4808C113.164 43.9549 107.135 43.5363 103.005 43.7134C98.8754 43.8905 90.6805 48.1006 90.6564 55.1525Z" fill="#263238"/>
<path d="M118.22 72.3236C118.247 71.9929 118.342 71.6713 118.499 71.3788C118.655 71.0864 118.871 70.8295 119.131 70.624C119.392 70.4185 119.692 70.269 120.013 70.1847C120.334 70.1004 120.669 70.0831 120.997 70.134C122.655 70.3916 124.458 71.4462 124.153 74.8916C123.605 81.0016 117.584 79.1903 117.584 79.0132C117.584 78.8361 117.97 74.8835 118.22 72.3236Z" fill="#FFBF9D"/>
<path d="M119.105 76.8303C119.105 76.8303 119.202 76.9188 119.379 77.0154C119.626 77.1475 119.914 77.1793 120.184 77.104C120.844 76.9269 121.48 75.9448 121.609 74.85C121.673 74.3266 121.617 73.7955 121.448 73.2963C121.408 73.1011 121.321 72.9186 121.195 72.7643C121.068 72.6101 120.907 72.4888 120.723 72.4108C120.604 72.3686 120.474 72.3688 120.356 72.4113C120.237 72.4538 120.136 72.5361 120.071 72.6443C119.967 72.8053 119.999 72.934 119.967 72.9421C119.934 72.9501 119.846 72.8294 119.918 72.5798C119.964 72.4305 120.061 72.3022 120.192 72.2176C120.372 72.1045 120.589 72.0669 120.796 72.1129C121.041 72.1861 121.264 72.3205 121.443 72.5036C121.621 72.6868 121.751 72.9125 121.818 73.1595C122.031 73.7126 122.106 74.3096 122.035 74.8983C121.882 76.1299 121.15 77.2247 120.248 77.4018C120.08 77.4353 119.907 77.4302 119.741 77.387C119.575 77.3438 119.421 77.2635 119.29 77.1523C119.105 76.9832 119.081 76.8464 119.105 76.8303Z" fill="#FF9A6C"/>
<path d="M89.3524 48.5191C90.2943 47.8107 91.5903 47.7141 92.5241 46.9977C96.6835 43.8042 103.387 37.7091 109.111 40.8959C111.289 42.1085 114.038 42.2125 115.982 43.6006C116.547 44.0475 117.013 44.608 117.348 45.2458C117.684 45.8835 117.882 46.5845 117.93 47.3036C117.93 47.3036 118.566 46.9816 120.498 48.5111C121.73 49.4851 122.736 51.5862 123.187 53.0835C123.855 55.3294 122.881 57.6962 121.923 59.8294C121.408 60.9806 120.764 62.2444 119.564 62.655C118.107 63.146 116.497 62.0029 115.926 60.57C115.354 59.1371 114.452 57.6962 113.76 56.3196C112.553 53.9046 111.345 51.6989 112.335 50.1694C109.07 49.1089 106.906 51.0056 104.003 52.0289C102.783 52.4594 97.8575 53.276 96.4995 52.9513C96.0607 52.8464 95.6512 52.6439 95.3014 52.359C94.7484 53.2599 93.8762 53.9194 92.8587 54.2059C91.8411 54.4923 90.753 54.3848 89.8112 53.9046C87.9919 52.7776 87.6699 49.791 89.3524 48.5191Z" fill="#263238"/>
<path d="M122.535 58.3875C122.252 58.8294 122.015 59.2987 121.826 59.7882C121.606 60.2826 121.258 60.7102 120.82 61.0279C120.234 61.3278 119.559 61.405 118.92 61.2452C118.256 61.1164 117.629 60.8414 117.085 60.4402C116.646 60.0994 116.246 59.7106 115.893 59.281C115.585 58.8596 115.243 58.4638 114.871 58.0977C115.067 58.5852 115.339 59.0388 115.676 59.442C116.013 59.9161 116.414 60.3413 116.867 60.7059C117.449 61.1447 118.124 61.4424 118.84 61.5753C119.565 61.7551 120.332 61.6484 120.981 61.2774C121.466 60.9224 121.835 60.4324 122.044 59.8687C122.268 59.397 122.433 58.8995 122.535 58.3875Z" fill="#FFD000"/>
<path d="M122.301 63.1146C121.933 63.394 121.526 63.619 121.094 63.7828C120.623 63.9318 120.126 63.9757 119.636 63.9116C119.036 63.8203 118.462 63.6007 117.954 63.2676C117.031 62.6266 116.248 61.805 115.652 60.8526C115.424 60.4394 115.154 60.0509 114.847 59.6934C114.988 60.1539 115.197 60.5907 115.467 60.9894C116.014 62.0378 116.806 62.9383 117.777 63.6137C118.33 63.9795 118.962 64.2085 119.62 64.2819C120.167 64.342 120.72 64.2674 121.23 64.0645C122.051 63.6701 122.341 63.1227 122.301 63.1146Z" fill="#FFD000"/>
<path d="M103.297 79.6289C103.503 79.9662 103.618 80.3164 103.638 80.6697C103.663 80.8368 103.617 81.0047 103.503 81.1618C103.389 81.319 103.211 81.4618 102.98 81.5804C102.74 81.7262 102.441 81.8432 102.104 81.9233C101.766 82.0034 101.398 82.0446 101.027 82.0439C100.356 82.0432 99.7074 81.92 99.1981 81.6964C98.6888 81.4729 98.3518 81.1636 98.2479 80.8242L98.0098 80.0558C99.3991 79.8525 103.194 79.6818 103.297 79.6289Z" fill="#FF9A6C"/>
<path d="M99.0522 81.1252C99.0522 81.1252 99.2472 81.1252 99.5693 81.1411C100.021 81.163 100.482 81.163 100.934 81.1411C101.587 81.1089 102.177 81.0007 102.587 80.8381C103.075 80.6348 103.307 80.3822 103.239 80.1285C103.22 79.9858 103.101 79.8462 102.892 79.7193L103.095 79.7485C101.646 79.8176 100.374 79.8734 99.476 79.9053C98.9928 79.9336 98.5011 79.9452 98.0098 79.9399C98.4676 79.884 98.9459 79.8465 99.4336 79.8282C100.332 79.7751 101.586 79.7033 103.036 79.6289H103.171L103.231 79.6661C103.556 79.8636 103.694 80.086 103.629 80.3073C103.565 80.5286 103.3 80.7395 102.866 80.9152C102.39 81.0951 101.709 81.2096 100.968 81.2341C100.486 81.2474 100.001 81.233 99.5354 81.1916C99.361 81.1806 99.1962 81.1579 99.0522 81.1252Z" fill="#263238"/>
<path d="M139.512 106.576C140.043 106.576 147.627 109.603 149.623 117.041C151.619 124.479 157.069 151.769 157.069 151.769L162.857 159.787C162.857 159.787 160.982 174.414 150.347 171.628C150.347 171.628 143.247 172.868 140.985 165.671C138.723 158.475 134.336 137.005 134.336 137.005L139.512 106.576Z" fill="#FFD000"/>
<path d="M117.853 94L121.88 100.196L140 106.752L134.814 160.234V185.5C115.5 197.5 77.2791 196.215 74.5409 195C73.1154 194.959 71.3195 191.408 71.0859 189.425C70.8846 187.645 71.038 185.841 71.5369 184.123L74.5409 173.403C74.0979 180.074 76.063 133.607 76.1516 131.911L71.5 108.5C73.0906 106.405 82.0743 103.291 92.3795 99.5154L95.6009 94.5081L104.879 101.687L117.853 94Z" fill="#FFD000"/>
<path d="M72 108C72 108 67.4544 111.654 66.7543 114.468C66.0543 117.281 50.8011 149.692 50.8011 149.692L43.2239 151.697L41.1978 155.82C40.0144 158.185 39.6959 160.877 40.2958 163.444C40.8957 166.012 42.3775 168.298 44.4922 169.92C44.7556 170.116 45.0307 170.297 45.3158 170.462C49.4339 172.887 56.764 172.758 61.055 167.794C65.1154 163.089 77 146.176 77 146.176V125.479L72 108Z" fill="#FFD000"/>
<path d="M47.0495 152.59L36.3993 146.303L31.2634 152.59L32.326 155.633L46.0594 165.848C47.7643 164.457 48.9081 162.495 49.2794 160.326C49.8831 156.486 47.0495 152.59 47.0495 152.59Z" fill="#FFBF9D"/>
<path d="M50.4305 149.337C50.4305 149.442 51.3402 149.337 52.6765 149.788C54.4033 150.385 55.9323 151.446 57.0959 152.855C58.2458 154.295 59.1937 155.885 59.9134 157.581C60.1847 158.307 60.5215 159.008 60.9197 159.674C60.8123 158.901 60.5955 158.147 60.2757 157.436C59.6431 155.646 58.7093 153.977 57.5145 152.501C56.2929 151.009 54.6394 149.932 52.7811 149.418C52.0213 149.167 51.2057 149.139 50.4305 149.337Z" fill="#263238"/>
<path d="M36.5764 149.789C36.8418 148.399 36.7467 146.964 36.3 145.621C35.8532 144.277 35.0698 143.071 34.0245 142.117C31.5099 140.049 28.6664 138.416 25.6122 137.287C23.7446 136.482 19.8564 133.206 19.1722 133.995C18.4879 134.784 18.182 135.959 19.1722 137.392C20.1623 138.825 25.7893 140.958 25.0004 142.769C24.6784 143.502 22.9074 143.639 22.9074 143.639C19.6927 143.865 16.4686 143.929 13.2474 143.832C10.3977 143.582 7.83777 144.13 7.99072 145.112C8.14367 146.094 8.67497 146.633 11.0336 146.834C13.3923 147.036 17.2321 146.883 17.4736 147.422C17.7151 147.961 16.8779 148.308 15.5014 148.227C14.1248 148.147 7.63652 148.122 7.19377 148.863C7.0861 149.051 7.02143 149.261 7.00446 149.477C6.98749 149.692 7.01864 149.91 7.09563 150.112C7.17262 150.314 7.29354 150.497 7.44971 150.648C7.60588 150.798 7.79341 150.911 7.99878 150.98L9.52022 151.52C9.52022 151.52 8.63472 152.751 9.37532 153.435C10.1159 154.12 11.7903 153.878 11.7903 153.878L20.3958 153.637C20.3958 153.637 20.8869 154.152 20.6454 154.506C20.4039 154.86 13.6579 154.369 13.6096 155.11C13.5613 155.85 12.9737 156.189 14.9862 156.72C17.9336 157.211 20.9421 157.211 23.8895 156.72C25.7088 156.221 33.3322 155.915 33.3322 155.915L36.5764 149.789Z" fill="#FFBF9D"/>
<path d="M153.535 153.709L163.493 145.449L169.208 151.889L168.508 155.037L156.063 166.758C154.218 165.7 152.826 164.001 152.15 161.984C150.911 158.434 153.535 153.709 153.535 153.709Z" fill="#FFBF9D"/>
<path d="M155.5 151.5L161 147C162.106 151.444 163.276 153.74 166.5 157.5L161.5 162.5C157.801 159.138 156.443 156.762 155.5 151.5Z" fill="#3C474C"/>
<path d="M163.606 149.747C163.178 148.399 163.101 146.964 163.382 145.578C163.664 144.192 164.295 142.9 165.216 141.826C167.481 139.475 170.13 137.526 173.048 136.062C174.803 135.008 178.281 131.337 179.062 132.037C179.525 132.455 179.82 133.026 179.893 133.646C179.965 134.265 179.81 134.889 179.456 135.402C178.651 136.94 174.771 138.727 174.908 140.699C174.922 140.89 174.974 141.076 175.06 141.247C175.146 141.418 175.265 141.57 175.41 141.695C175.555 141.82 175.724 141.915 175.905 141.975C176.087 142.034 176.279 142.058 176.47 142.044C179.682 141.896 182.884 141.587 186.065 141.118C188.875 140.538 191.475 140.78 191.443 141.77C191.411 142.76 190.936 143.38 188.617 143.839C186.299 144.298 182.467 144.644 182.338 145.167C182.209 145.69 183.022 145.972 184.383 145.722C185.743 145.473 192.183 144.708 192.707 145.392C192.836 145.564 192.926 145.763 192.97 145.974C193.013 146.185 193.01 146.403 192.959 146.613C192.908 146.822 192.811 147.018 192.676 147.185C192.54 147.353 192.369 147.488 192.175 147.582L190.726 148.298C190.726 148.298 191.749 149.417 191.097 150.182C190.445 150.947 188.754 150.907 188.754 150.907L180.173 151.663C180.173 151.663 179.746 152.235 180.036 152.557C180.326 152.879 186.951 151.607 187.088 152.34C187.225 153.072 187.852 153.338 185.904 154.062C183.03 154.895 180.038 155.246 177.049 155.101C175.182 154.819 167.566 155.366 167.566 155.366L163.606 149.747Z" fill="#FFBF9D"/>
<path d="M92.4597 101.006C92.9982 101.678 93.5964 102.301 94.2468 102.865C95.3819 103.976 96.9355 105.53 98.5777 107.301C98.9239 107.679 99.27 108.05 99.592 108.412L99.8094 108.645L100.011 108.396C101.283 106.786 102.385 105.305 103.158 104.25C103.612 103.714 103.999 103.125 104.309 102.495C103.775 102.952 103.294 103.468 102.876 104.033C102.031 105.031 100.872 106.448 99.584 108.058H99.9945L98.9883 106.939C97.5736 105.41 96.0796 103.956 94.5125 102.584C93.8949 101.976 93.2056 101.446 92.4597 101.006Z" fill="#263238"/>
<path d="M138.377 120.502C138.229 120.857 138.129 121.231 138.079 121.613C137.926 122.337 137.733 123.392 137.524 124.696C137.105 127.304 136.662 130.927 136.292 134.936C135.922 138.945 135.648 142.583 135.439 145.216C135.358 146.439 135.278 147.478 135.221 148.331C135.171 148.713 135.171 149.1 135.221 149.482C135.336 149.115 135.412 148.738 135.447 148.355C135.559 147.622 135.696 146.56 135.841 145.248C136.147 142.631 136.485 139.001 136.856 134.992C137.226 130.983 137.588 127.369 137.902 124.793C138.055 123.577 138.184 122.539 138.288 121.693C138.372 121.302 138.401 120.901 138.377 120.502Z" fill="#263238"/>
<path d="M75.3936 118.676C75.2787 119.132 75.2112 119.599 75.1924 120.068C75.1038 120.978 75.0072 122.282 74.9267 123.908C74.7416 127.128 74.653 131.636 74.6369 136.579V153.09C74.6111 153.56 74.6299 154.032 74.6933 154.498C74.7976 154.039 74.8489 153.569 74.8462 153.098C74.9106 152.188 74.975 150.876 75.0233 149.258C75.136 146.038 75.1763 141.53 75.1843 136.587C75.1924 131.644 75.2326 127.161 75.3131 123.924C75.3534 122.387 75.3856 121.099 75.4097 120.085C75.4479 119.615 75.4425 119.144 75.3936 118.676Z" fill="#263238"/>
<path d="M146.548 165.123C146.8 164.209 146.985 163.279 147.103 162.338C147.48 160.092 148.208 157.918 149.261 155.898C150.334 153.917 151.948 152.282 153.914 151.181C154.759 150.777 155.633 150.438 156.53 150.166C156.265 150.109 155.99 150.109 155.725 150.166C155.027 150.283 154.35 150.497 153.712 150.802C151.597 151.857 149.864 153.546 148.753 155.632C147.688 157.706 147.012 159.957 146.757 162.274C146.568 163.211 146.497 164.168 146.548 165.123Z" fill="#263238"/>
<path d="M143.964 154.248C144.076 154.377 145.678 152.727 148.286 151.833C150.895 150.94 153.116 151.246 153.165 151.077C153.213 150.908 150.854 150.36 148.109 151.318C145.364 152.276 143.843 154.184 143.964 154.248Z" fill="#263238"/>
<path d="M103.11 191.656C103.159 191.358 103.18 191.057 103.174 190.755C103.174 190.119 103.174 189.258 103.231 188.179C103.279 185.885 103.343 182.657 103.424 178.688C103.609 170.638 103.867 159.585 104.156 147.381C104.446 135.177 104.599 124.076 104.583 116.059C104.583 112.034 104.543 108.814 104.495 106.56C104.495 105.481 104.438 104.62 104.414 103.984C104.421 103.682 104.399 103.38 104.35 103.082C104.327 103.382 104.327 103.684 104.35 103.984C104.35 104.62 104.35 105.481 104.35 106.56C104.35 108.854 104.301 112.09 104.269 116.051C104.189 124.101 103.955 135.137 103.681 147.365C103.408 159.593 103.166 170.662 103.102 178.68C103.102 182.705 103.102 185.925 103.102 188.179C103.102 189.258 103.102 190.119 103.142 190.755C103.111 191.054 103.1 191.356 103.11 191.656Z" fill="#263238"/>
<path d="M154.002 153.37C154.002 153.305 153.197 153.909 152.553 155.246C152.158 156.007 151.871 156.82 151.7 157.661C151.534 158.728 151.534 159.814 151.7 160.881C151.82 161.949 152.137 162.986 152.634 163.94C153.064 164.713 153.657 165.383 154.372 165.904C155.001 166.426 155.793 166.71 156.61 166.709C155.903 166.416 155.233 166.041 154.614 165.59C153.979 165.069 153.456 164.426 153.076 163.698C152.646 162.788 152.373 161.81 152.271 160.808C152.127 159.804 152.127 158.785 152.271 157.781C152.41 156.952 152.645 156.141 152.972 155.366C153.471 154.086 154.083 153.418 154.002 153.37Z" fill="#263238"/>
<path d="M44.0629 166.967C44.0629 166.967 44.3205 166.967 44.7311 166.765C45.3074 166.511 45.8485 166.184 46.3411 165.791C48.0279 164.492 49.1816 162.621 49.5849 160.531C49.9882 158.44 49.6133 156.274 48.5307 154.441C48.2152 153.89 47.8311 153.381 47.3876 152.927C47.0736 152.621 46.8724 152.476 46.8482 152.501C46.8241 152.525 47.4922 153.249 48.1926 154.626C49.129 156.407 49.4312 158.453 49.0493 160.428C48.6674 162.404 47.6242 164.19 46.0915 165.493C44.9404 166.508 44.0227 166.878 44.0629 166.967Z" fill="#263238"/>
<path d="M23.5917 140.41C23.5273 140.475 23.9942 140.917 24.5818 141.698C24.9199 142.145 25.1537 142.662 25.2661 143.212C25.3949 143.831 25.3788 144.556 25.4915 145.353C25.5874 146.037 25.8182 146.695 26.1706 147.29C26.523 147.884 26.9899 148.402 27.5443 148.814C27.9679 149.196 28.5053 149.428 29.0738 149.474C29.114 149.386 28.5183 149.161 27.7858 148.508C26.8427 147.673 26.2218 146.534 26.0308 145.288C25.9778 144.56 25.8865 143.834 25.7572 143.115C25.6031 142.515 25.3046 141.963 24.8877 141.505C24.5496 141.042 24.1051 140.666 23.5917 140.41Z" fill="#FF9A6C"/>
<path d="M178.861 148.879C178.861 149.024 181.541 149.169 184.85 149.008C188.158 148.847 190.815 148.46 190.799 148.307C190.783 148.155 188.118 148.307 184.826 148.46C181.533 148.613 178.861 148.718 178.861 148.879Z" fill="#FF9A6C"/>
<path d="M172.767 148.42C172.767 148.477 173.403 148.372 174.159 147.736C174.65 147.31 175.039 146.781 175.301 146.187C175.563 145.592 175.69 144.948 175.673 144.299C175.615 143.612 175.491 142.933 175.303 142.27C175.162 141.745 175.094 141.203 175.101 140.66C175.148 140.175 175.259 139.699 175.431 139.243C175.431 139.187 174.844 139.613 174.715 140.628C174.65 141.198 174.683 141.775 174.811 142.334C174.963 142.973 175.068 143.621 175.125 144.274C175.143 145.442 174.7 146.569 173.894 147.414C173.274 148.138 172.727 148.34 172.767 148.42Z" fill="#FF9A6C"/>
<path d="M22.0945 150.328C22.0945 150.175 19.2206 150.288 15.7108 150.578C12.201 150.867 9.35932 151.238 9.36737 151.383C9.37542 151.528 12.2412 151.423 15.751 151.125C19.2609 150.827 22.1025 150.473 22.0945 150.328Z" fill="#FF9A6C"/>
<path d="M104.961 101.971C105.283 103.043 105.689 104.087 106.177 105.095C106.394 105.578 106.62 106.101 106.853 106.64C107.084 107.255 107.353 107.854 107.658 108.435C107.774 108.626 107.943 108.78 108.145 108.877C108.346 108.974 108.571 109.011 108.793 108.983C109.183 108.88 109.546 108.693 109.856 108.435L111.756 107.139C114.348 105.352 116.674 103.702 118.349 102.494C119.285 101.882 120.168 101.193 120.989 100.434C119.992 100.936 119.036 101.518 118.131 102.172C116.401 103.307 114.034 104.893 111.442 106.688L109.55 107.993C109.303 108.206 109.016 108.368 108.705 108.468C108.578 108.483 108.449 108.459 108.336 108.401C108.222 108.342 108.129 108.25 108.069 108.137C107.457 107.027 106.95 105.827 106.459 104.917C106.042 103.895 105.542 102.91 104.961 101.971Z" fill="#263238"/>
<path d="M102.798 109.669C102.798 109.669 102.811 109.752 102.778 109.918C102.744 110.084 102.729 110.337 102.689 110.654C102.603 111.31 102.483 112.257 102.325 113.47C102.167 114.684 101.961 116.191 101.757 117.934C101.553 119.677 101.296 121.653 101.074 123.85C100.852 126.047 100.577 128.443 100.352 131.031C100.127 133.62 99.8938 136.375 99.6594 139.281C99.2426 145.105 98.8876 151.506 98.6653 158.236C98.4431 164.967 98.4519 171.385 98.5235 177.221C98.5814 180.136 98.6215 182.908 98.7289 185.503C98.8363 188.099 98.911 190.49 99.0243 192.713C99.1376 194.937 99.2561 196.909 99.3621 198.678C99.4682 200.446 99.5697 201.934 99.657 203.144C99.7443 204.354 99.8131 205.321 99.8579 205.981C99.8777 206.294 99.8921 206.542 99.9047 206.716C99.9173 206.889 99.9102 206.971 99.9102 206.971C99.8926 206.888 99.8794 206.805 99.8705 206.721C99.8424 206.545 99.8336 206.301 99.7985 205.985C99.7438 205.327 99.662 204.372 99.5535 203.156C99.4451 201.939 99.3185 200.42 99.2099 198.667C99.1013 196.914 98.9407 194.928 98.833 192.709C98.7253 190.489 98.5986 188.087 98.5067 185.494C98.4148 182.9 98.3445 180.128 98.281 177.209C98.1939 171.371 98.2103 164.954 98.4016 158.218C98.593 151.482 98.974 145.088 99.3942 139.253C99.6335 136.347 99.8449 133.58 100.087 131.003C100.328 128.427 100.591 126.013 100.844 123.822C101.097 121.63 101.348 119.649 101.563 117.91C101.777 116.17 101.99 114.672 102.171 113.45L102.587 110.64L102.701 109.91L102.798 109.669Z" fill="#263238"/>
<path d="M111.582 176.425C110.147 177.277 108.522 177.758 106.855 177.824C106.843 177.751 107.931 177.562 109.233 177.17C110.535 176.777 111.551 176.359 111.582 176.425Z" fill="#455A64"/>
<path d="M135.196 201.385C135.16 201.344 135.129 201.298 135.104 201.249C135.037 201.144 134.956 201.012 134.854 200.843C134.63 200.472 134.312 199.926 133.918 199.277C133.523 198.627 133.013 197.756 132.475 196.768C131.937 195.781 131.283 194.666 130.635 193.4C129.987 192.134 129.248 190.772 128.518 189.269C127.787 187.765 127.019 186.157 126.221 184.454C124.674 181.034 123.065 177.228 121.55 173.161C120.035 169.094 118.772 165.163 117.697 161.563C117.188 159.753 116.69 158.042 116.287 156.421C115.883 154.8 115.502 153.291 115.187 151.907C114.871 150.523 114.61 149.261 114.379 148.159C114.149 147.057 113.966 146.098 113.831 145.317C113.697 144.536 113.588 143.947 113.515 143.517C113.484 143.322 113.459 143.165 113.437 143.028C113.424 142.975 113.415 142.921 113.411 142.867C113.425 142.92 113.434 142.974 113.437 143.028C113.456 143.145 113.481 143.302 113.515 143.517L113.88 145.305C114.029 146.083 114.22 147.036 114.471 148.134C114.721 149.233 114.972 150.497 115.316 151.871C115.661 153.246 116.009 154.77 116.444 156.371C116.879 157.972 117.36 159.701 117.878 161.504C118.951 165.094 120.233 169.018 121.728 173.083C123.223 177.148 124.839 180.937 126.375 184.379C127.148 186.086 127.908 187.706 128.647 189.198C129.386 190.69 130.079 192.084 130.736 193.344C131.393 194.603 132.004 195.73 132.538 196.723C133.072 197.716 133.544 198.569 133.943 199.247L134.844 200.844C134.937 201.015 135.009 201.154 135.071 201.26C135.118 201.295 135.161 201.337 135.196 201.385Z" fill="#455A64"/>
<path d="M97.5798 108.518L99.0947 114.631L104.851 115.981L110.164 108.872L105.635 107.236L102.534 107.729L99.6356 107.193L97.5798 108.518Z" fill="#3C474C"/>
<path d="M99.0947 114.631C99.0947 114.631 89.3531 160.541 90.2711 181.267L99.4273 195.181L104.958 183.397L104.882 115.038L99.0947 114.631Z" fill="#3C474C"/>
<path d="M104.866 116.17C103.973 115.745 103.039 115.41 102.079 115.169C101.102 115.014 100.111 114.953 99.1216 114.988C100.106 114.735 101.135 114.709 102.131 114.914C103.126 115.119 104.062 115.548 104.866 116.17Z" fill="#263238"/>
<path d="M105.912 107.206C105.712 107.63 105.461 108.028 105.162 108.389C104.491 109.294 103.747 110.144 102.939 110.929C102.131 111.718 101.259 112.439 100.333 113.085C99.9633 113.371 99.5605 113.612 99.1333 113.802C99.4796 113.49 99.8456 113.201 100.229 112.936C101.113 112.254 101.957 111.523 102.759 110.747C103.554 109.965 104.307 109.14 105.014 108.277C105.291 107.902 105.59 107.544 105.912 107.206Z" fill="#263238"/>
<path d="M104.271 115.738C104.279 115.806 104.28 115.875 104.274 115.943C104.267 116.09 104.263 116.286 104.254 116.543L104.156 118.856C104.076 120.875 103.936 123.776 103.831 127.368C103.596 134.552 103.412 144.486 103.574 155.458C103.653 160.963 103.81 166.168 103.998 170.938C104.09 173.31 104.164 175.575 104.11 177.69C104.077 179.656 103.902 181.617 103.585 183.557C103.147 186.379 102.21 189.101 100.817 191.595C100.31 192.508 99.7024 193.362 99.0059 194.14C99.0383 194.079 99.0781 194.022 99.1244 193.971L99.4845 193.492C99.9353 192.867 100.351 192.216 100.729 191.544C102.077 189.047 102.982 186.336 103.405 183.53C103.708 181.601 103.872 179.652 103.896 177.7C103.94 175.586 103.862 173.332 103.765 170.955C103.565 166.202 103.396 160.983 103.307 155.481C103.144 144.504 103.352 134.566 103.637 127.379C103.777 123.786 103.931 120.878 104.042 118.869C104.102 117.856 104.157 117.1 104.176 116.561L104.221 115.957C104.227 115.882 104.244 115.808 104.271 115.738Z" fill="#263238"/>
<path d="M103.319 141.285C102.933 140.874 102.572 140.439 102.239 139.983C101.607 139.166 100.682 138.049 99.6518 136.839C98.6216 135.629 97.649 134.56 96.9404 133.795C96.5405 133.397 96.1679 132.972 95.8252 132.523C95.8252 132.523 95.9597 132.612 96.1765 132.809C96.3933 133.005 96.7006 133.297 97.0708 133.669C97.8146 134.403 98.8052 135.459 99.846 136.673C100.887 137.886 101.771 139.029 102.362 139.878C102.67 140.3 102.916 140.647 103.076 140.893C103.235 141.138 103.337 141.272 103.319 141.285Z" fill="#FAFAFA"/>
<path d="M103.219 160.661C103.069 160.5 102.935 160.325 102.82 160.138C102.547 159.75 102.203 159.258 101.799 158.671C100.934 157.429 99.7438 155.718 98.3935 153.852C97.0431 151.985 95.7842 150.315 94.8753 149.111L93.7954 147.683C93.6543 147.513 93.5309 147.33 93.4272 147.135C93.5908 147.283 93.7408 147.445 93.8756 147.62C94.1518 147.937 94.5433 148.411 95.0178 148.998C95.9676 150.176 97.2438 151.828 98.5998 153.698C99.9558 155.569 101.125 157.308 101.948 158.567C102.36 159.203 102.683 159.723 102.902 160.085C103.028 160.265 103.135 160.458 103.219 160.661Z" fill="#FAFAFA"/>
<path d="M103.842 177.709C103.789 177.757 100.987 174.583 97.5877 170.62C94.1885 166.658 91.4746 163.409 91.5278 163.365C91.5811 163.322 94.3827 166.492 97.7819 170.454C101.181 174.416 103.918 177.652 103.842 177.709Z" fill="#FAFAFA"/>
<path d="M101.719 189.856C101.666 189.904 99.1084 187.287 96.0046 184.015C92.9008 180.743 90.4255 178.048 90.4772 177.994C90.5289 177.941 93.0877 180.563 96.1923 183.84C99.2969 187.117 101.771 189.807 101.719 189.856Z" fill="#FAFAFA"/>
<path d="M103.572 129.205C103.233 128.979 102.917 128.723 102.627 128.437C101.993 127.887 101.243 127.244 100.422 126.527L98.1785 124.657C97.8526 124.418 97.5495 124.149 97.2732 123.854C97.6369 124.034 97.9785 124.255 98.2911 124.514C98.8978 124.954 99.7164 125.591 100.587 126.335C101.458 127.079 102.221 127.78 102.752 128.307C103.058 128.575 103.333 128.876 103.572 129.205Z" fill="#FAFAFA"/>
<path d="M100.444 117.722C100.381 117.762 100.142 117.489 99.7735 117.257C99.4056 117.025 99.0578 116.92 99.0696 116.868C99.0814 116.816 99.4951 116.8 99.9126 117.059C100.33 117.319 100.505 117.692 100.444 117.722Z" fill="#FAFAFA"/>
<path d="M101.382 119.202C101.337 119.265 101.089 119.154 100.842 118.957C100.595 118.761 100.392 118.558 100.436 118.52C100.48 118.483 100.73 118.574 100.977 118.77C101.224 118.967 101.423 119.146 101.382 119.202Z" fill="#FAFAFA"/>
<path d="M104.2 120.768C103.722 120.562 103.28 120.282 102.889 119.939C102.445 119.662 102.051 119.313 101.721 118.906C102.641 119.387 103.475 120.017 104.19 120.77L104.2 120.768Z" fill="#FAFAFA"/>
<path d="M102.795 110.591C102.755 110.658 101.76 110.044 100.417 109.551C99.075 109.057 97.93 108.858 97.9428 108.781C99.7083 108.869 101.403 109.501 102.795 110.591Z" fill="#FAFAFA"/>
<path d="M107.746 111.889C107.683 111.939 107.054 111.262 106.157 110.572C105.26 109.883 104.447 109.44 104.461 109.373C105.794 109.839 106.94 110.722 107.731 111.892L107.746 111.889Z" fill="#FAFAFA"/>
<path d="M100.113 120.964C100.184 119.936 100.342 118.916 100.586 117.915C100.745 116.898 100.99 115.896 101.317 114.919C101.24 115.947 101.08 116.967 100.84 117.969C100.68 118.986 100.437 119.987 100.113 120.964Z" fill="#263238"/>
<path d="M101.346 124.614C101.296 124.164 101.293 123.711 101.336 123.261C101.364 122.424 101.436 121.274 101.56 120.006C101.684 118.737 101.828 117.591 101.958 116.768C102.006 116.315 102.103 115.869 102.247 115.438C102.257 115.889 102.229 116.34 102.161 116.786C102.066 117.703 101.983 118.82 101.835 120.027C101.686 121.235 101.618 122.354 101.533 123.27C101.513 123.723 101.45 124.172 101.346 124.614Z" fill="#263238"/>
<g opacity="0.3">
<path d="M99.6717 115.011L99.681 115.069C100.002 115.104 100.197 115.163 100.248 115.481C100.299 115.799 100.283 116.125 100.2 116.436C100.016 117.393 99.8372 118.35 99.6543 119.311C99.6078 119.555 99.611 119.89 99.8524 119.957C100.094 120.024 100.251 119.783 100.359 119.58L101.252 117.879C101.214 118.777 101.173 119.682 101.13 120.581C101.118 120.849 101.135 121.177 101.376 121.304C101.478 121.344 101.589 121.349 101.694 121.319C101.799 121.289 101.891 121.225 101.956 121.137C102.08 120.956 102.16 120.749 102.191 120.532C102.349 119.825 102.508 119.123 102.662 118.421C102.751 117.92 102.906 117.434 103.124 116.974C103.343 116.51 103.733 116.15 104.212 115.968C102.798 115.055 101.355 114.968 99.6717 115.011Z" fill="black"/>
</g>
<path d="M102.798 109.669C102.798 109.669 102.811 109.752 102.778 109.918C102.744 110.084 102.729 110.337 102.689 110.654C102.603 111.31 102.483 112.257 102.325 113.47C102.167 114.684 101.961 116.191 101.757 117.934C101.553 119.677 101.296 121.653 101.074 123.85C100.852 126.047 100.577 128.443 100.352 131.031C100.127 133.62 99.8938 136.375 99.6594 139.281C99.2426 145.105 98.8876 151.506 98.6653 158.236C98.4431 164.967 98.4519 171.385 98.5235 177.221C98.5814 180.136 98.6215 182.908 98.7289 185.503C98.8363 188.099 98.911 190.49 99.0243 192.713C99.1376 194.937 99.2561 196.909 99.3621 198.678C99.4682 200.446 99.5697 201.934 99.657 203.144C99.7443 204.354 99.8131 205.321 99.8579 205.981C99.8777 206.294 99.8921 206.542 99.9047 206.716C99.9173 206.889 99.9102 206.971 99.9102 206.971C99.8926 206.888 99.8794 206.805 99.8705 206.721C99.8424 206.545 99.8336 206.301 99.7985 205.985C99.7438 205.327 99.662 204.372 99.5535 203.156C99.4451 201.939 99.3185 200.42 99.2099 198.667C99.1013 196.914 98.9407 194.928 98.833 192.709C98.7253 190.489 98.5986 188.087 98.5067 185.494C98.4148 182.9 98.3445 180.128 98.281 177.209C98.1939 171.371 98.2103 164.954 98.4016 158.218C98.593 151.482 98.974 145.088 99.3942 139.253C99.6335 136.347 99.8449 133.58 100.087 131.003C100.328 128.427 100.591 126.013 100.844 123.822C101.097 121.63 101.348 119.649 101.563 117.91C101.777 116.17 101.99 114.672 102.171 113.45L102.587 110.64L102.701 109.91L102.798 109.669Z" fill="#263238"/>
<path d="M111.582 176.425C110.147 177.277 108.522 177.758 106.855 177.824C106.843 177.751 107.931 177.562 109.233 177.17C110.535 176.777 111.551 176.359 111.582 176.425Z" fill="#455A64"/>
<path d="M97.5798 108.518L99.0947 114.631L104.851 115.981L110.164 108.872L105.635 107.236L102.534 107.729L99.6356 107.193L97.5798 108.518Z" fill="#3C474C"/>
<path d="M99.0947 114.631C99.0947 114.631 89.4275 161.008 90.3804 181.954L99.5624 196.03L105.075 184.131L104.884 115.052L99.0947 114.631Z" fill="#3C474C"/>
<path d="M104.866 116.17C103.973 115.745 103.039 115.41 102.079 115.169C101.102 115.014 100.111 114.953 99.1216 114.988C100.106 114.735 101.135 114.709 102.131 114.914C103.126 115.119 104.062 115.548 104.866 116.17Z" fill="#263238"/>
<path d="M105.912 107.206C105.712 107.63 105.461 108.028 105.162 108.389C104.491 109.294 103.747 110.144 102.939 110.929C102.131 111.718 101.259 112.439 100.333 113.085C99.9633 113.371 99.5605 113.612 99.1333 113.802C99.4796 113.49 99.8456 113.201 100.229 112.936C101.113 112.254 101.957 111.523 102.759 110.747C103.554 109.965 104.307 109.14 105.014 108.277C105.291 107.902 105.59 107.544 105.912 107.206Z" fill="#263238"/>
<path d="M104.271 115.738C104.279 115.806 104.28 115.875 104.274 115.943C104.267 116.09 104.263 116.286 104.254 116.543L104.156 118.856C104.076 120.875 103.936 123.776 103.831 127.368C103.596 134.552 103.412 144.486 103.574 155.458C103.653 160.963 103.81 166.168 103.998 170.938C104.09 173.31 104.164 175.575 104.11 177.69C104.077 179.656 103.902 181.617 103.585 183.557C103.147 186.379 102.21 189.101 100.817 191.595C100.31 192.508 99.7024 193.362 99.0059 194.14C99.0383 194.079 99.0781 194.022 99.1244 193.971L99.4845 193.492C99.9353 192.867 100.351 192.216 100.729 191.544C102.077 189.047 102.982 186.336 103.405 183.53C103.708 181.601 103.872 179.652 103.896 177.7C103.94 175.586 103.862 173.332 103.765 170.955C103.565 166.202 103.396 160.983 103.307 155.481C103.144 144.504 103.352 134.566 103.637 127.379C103.777 123.786 103.931 120.878 104.042 118.869C104.102 117.856 104.157 117.1 104.176 116.561L104.221 115.957C104.227 115.882 104.244 115.808 104.271 115.738Z" fill="#263238"/>
<path d="M103.319 141.285C102.933 140.874 102.572 140.439 102.239 139.983C101.607 139.166 100.682 138.049 99.6518 136.839C98.6216 135.629 97.649 134.56 96.9404 133.795C96.5405 133.397 96.1679 132.972 95.8252 132.523C95.8252 132.523 95.9597 132.612 96.1765 132.809C96.3933 133.005 96.7006 133.297 97.0708 133.669C97.8146 134.403 98.8052 135.459 99.846 136.673C100.887 137.886 101.771 139.029 102.362 139.878C102.67 140.3 102.916 140.647 103.076 140.893C103.235 141.138 103.337 141.272 103.319 141.285Z" fill="#FAFAFA"/>
<path d="M103.219 160.661C103.069 160.5 102.935 160.325 102.82 160.138C102.547 159.75 102.203 159.258 101.799 158.671C100.934 157.429 99.7438 155.718 98.3935 153.852C97.0431 151.985 95.7842 150.315 94.8753 149.111L93.7954 147.683C93.6543 147.513 93.5309 147.33 93.4272 147.135C93.5908 147.283 93.7408 147.445 93.8756 147.62C94.1518 147.937 94.5433 148.411 95.0178 148.998C95.9676 150.176 97.2438 151.828 98.5998 153.698C99.9558 155.569 101.125 157.308 101.948 158.567C102.36 159.203 102.683 159.723 102.902 160.085C103.028 160.265 103.135 160.458 103.219 160.661Z" fill="#FAFAFA"/>
<path d="M103.842 177.709C103.789 177.757 100.987 174.583 97.5877 170.62C94.1885 166.658 91.4746 163.409 91.5278 163.365C91.5811 163.322 94.3827 166.492 97.7819 170.454C101.181 174.416 103.918 177.652 103.842 177.709Z" fill="#FAFAFA"/>
<path d="M101.719 189.856C101.666 189.904 99.1084 187.287 96.0046 184.015C92.9008 180.743 90.4255 178.048 90.4772 177.994C90.5289 177.941 93.0877 180.563 96.1923 183.84C99.2969 187.117 101.771 189.807 101.719 189.856Z" fill="#FAFAFA"/>
<path d="M103.572 129.205C103.233 128.979 102.917 128.723 102.627 128.437C101.993 127.887 101.243 127.244 100.422 126.527L98.1785 124.657C97.8526 124.418 97.5495 124.149 97.2732 123.854C97.6369 124.034 97.9785 124.255 98.2911 124.514C98.8978 124.954 99.7164 125.591 100.587 126.335C101.458 127.079 102.221 127.78 102.752 128.307C103.058 128.575 103.333 128.876 103.572 129.205Z" fill="#FAFAFA"/>
<path d="M100.444 117.722C100.381 117.762 100.142 117.489 99.7735 117.257C99.4056 117.025 99.0578 116.92 99.0696 116.868C99.0814 116.816 99.4951 116.8 99.9126 117.059C100.33 117.319 100.505 117.692 100.444 117.722Z" fill="#FAFAFA"/>
<path d="M101.382 119.202C101.337 119.265 101.089 119.154 100.842 118.957C100.595 118.761 100.392 118.558 100.436 118.52C100.48 118.483 100.73 118.574 100.977 118.77C101.224 118.967 101.423 119.146 101.382 119.202Z" fill="#FAFAFA"/>
<path d="M104.2 120.768C103.722 120.562 103.28 120.282 102.889 119.939C102.445 119.662 102.051 119.313 101.721 118.906C102.641 119.387 103.475 120.017 104.19 120.77L104.2 120.768Z" fill="#FAFAFA"/>
<path d="M102.795 110.591C102.755 110.658 101.76 110.044 100.417 109.551C99.075 109.057 97.93 108.858 97.9428 108.781C99.7083 108.869 101.403 109.501 102.795 110.591Z" fill="#FAFAFA"/>
<path d="M107.746 111.889C107.683 111.939 107.054 111.262 106.157 110.572C105.26 109.883 104.447 109.44 104.461 109.373C105.794 109.839 106.94 110.722 107.731 111.892L107.746 111.889Z" fill="#FAFAFA"/>
<path d="M100.113 120.964C100.184 119.936 100.342 118.916 100.586 117.915C100.745 116.898 100.99 115.896 101.317 114.919C101.24 115.947 101.08 116.967 100.84 117.969C100.68 118.986 100.437 119.987 100.113 120.964Z" fill="#263238"/>
<path d="M101.346 124.614C101.296 124.164 101.293 123.711 101.336 123.261C101.364 122.424 101.436 121.274 101.56 120.006C101.684 118.737 101.828 117.591 101.958 116.768C102.006 116.315 102.103 115.869 102.247 115.438C102.257 115.889 102.229 116.34 102.161 116.786C102.066 117.703 101.983 118.82 101.835 120.027C101.686 121.235 101.618 122.354 101.533 123.27C101.513 123.723 101.45 124.172 101.346 124.614Z" fill="#263238"/>
<g opacity="0.3">
<path d="M99.6717 115.011L99.681 115.069C100.002 115.104 100.197 115.163 100.248 115.481C100.299 115.799 100.283 116.125 100.2 116.436C100.016 117.393 99.8372 118.35 99.6543 119.311C99.6078 119.555 99.611 119.89 99.8524 119.957C100.094 120.024 100.251 119.783 100.359 119.58L101.252 117.879C101.214 118.777 101.173 119.682 101.13 120.581C101.118 120.849 101.135 121.177 101.376 121.304C101.478 121.344 101.589 121.349 101.694 121.319C101.799 121.289 101.891 121.225 101.956 121.137C102.08 120.956 102.16 120.749 102.191 120.532C102.349 119.825 102.508 119.123 102.662 118.421C102.751 117.92 102.906 117.434 103.124 116.974C103.343 116.51 103.733 116.15 104.212 115.968C102.798 115.055 101.355 114.968 99.6717 115.011Z" fill="black"/>
</g>
<path d="M20.6979 142.565C25.4299 145.451 31.3314 146.834 36.3843 144.874C40.8846 153.071 46.9586 160.28 54.2316 166.058L54.0284 166.516C49.2871 168.045 44.5066 169.581 39.5387 170.025C34.5708 170.468 29.3127 169.712 25.0183 166.965C19.8058 163.619 16.6447 157.799 13.9383 152.154C10.7935 145.587 7.8702 138.51 8.4767 131.316C12.1784 135.452 15.9827 139.716 20.6979 142.565Z" fill="#B7B7B7"/>
<path d="M22.6979 140.565C27.4299 143.451 33.3314 144.834 38.3843 142.874C42.8846 151.071 48.9586 158.28 56.2316 164.058L56.0284 164.516C51.2871 166.045 46.5066 167.581 41.5387 168.025C36.5708 168.468 31.3127 167.712 27.0183 164.965C21.8058 161.619 18.6447 155.799 15.9383 150.154C12.7935 143.587 9.8702 136.51 10.4767 129.316C14.1784 133.452 17.9827 137.716 22.6979 140.565Z" fill="#EDECE9"/>
</g>
<defs>
<clipPath id="clip0_752_27927">
<rect width="200" height="200" fill="white"/>
</clipPath>
</defs>
</svg>
