<svg width="200" height="200" viewBox="0 0 200 200" fill="none" xmlns="http://www.w3.org/2000/svg">
<path fill-rule="evenodd" clip-rule="evenodd" d="M95.3511 40.0786C119.484 41.5624 131.191 65.3973 145.943 82.1754C157.899 95.7741 168.961 109.409 171.286 126.445C173.971 146.122 175.558 168.605 159.663 182.721C143.717 196.882 117.964 195.809 95.3511 193.883C72.1366 194.322 53.3796 187.342 42.4481 172.737C26.9316 160.174 13.0786 144.922 12.0648 126.445C11.0113 107.244 22.9446 90.1752 37.1121 75.4837C52.9597 59.05 70.8381 38.5713 95.3511 40.0786Z" fill="#FFF3CC"/>
<mask id="mask0_752_25959" style="mask-type:alpha" maskUnits="userSpaceOnUse" x="12" y="40" width="161" height="155">
<path fill-rule="evenodd" clip-rule="evenodd" d="M95.3511 40.0786C119.484 41.5624 131.191 65.3973 145.943 82.1754C157.899 95.7741 168.961 109.409 171.286 126.445C173.971 146.122 175.558 168.605 159.663 182.721C143.717 196.882 117.964 195.809 95.3511 193.883C72.1366 194.322 53.3796 187.342 42.4481 172.737C26.9316 160.174 13.0786 144.922 12.0648 126.445C11.0113 107.244 22.9446 90.1752 37.1121 75.4837C52.9597 59.05 70.8381 38.5713 95.3511 40.0786Z" fill="#FFF3CC"/>
</mask>
<g mask="url(#mask0_752_25959)">
<path d="M221.88 32.3496C221.88 33.3636 222.74 43.6161 222.74 43.6161C222.74 43.6161 206.771 39.9337 204.518 55.4756L149.633 56.0685L155.995 42.0447L221.88 32.3496Z" fill="#FFD000"/>
<path opacity="0.4" d="M221.88 32.3496C221.88 33.3636 222.74 43.6161 222.74 43.6161C222.74 43.6161 206.771 39.9337 204.518 55.4756L149.633 56.0685L155.995 42.0447L221.88 32.3496Z" fill="black"/>
<path d="M193.714 32.3495C192.828 31.7792 191.989 31.1387 191.206 30.4342L191.971 29.9479C188.283 18.2723 179.714 20.1046 179.714 20.1046L184.233 32.3376H100.078C100.078 32.3376 82.1403 45.555 80.7231 62.0812C79.3059 78.6073 80.7231 76.7157 80.7231 76.7157L136.427 82.8649C136.427 82.8649 133.118 62.5615 156.725 52.1785C180.331 41.7955 221.875 37.5439 221.875 37.5439V32.3495H193.714Z" fill="#FFD000"/>
<path opacity="0.2" d="M193.714 32.3495C192.828 31.7792 191.989 31.1387 191.206 30.4342L191.971 29.9479C188.283 18.2723 179.714 20.1046 179.714 20.1046L184.233 32.3376H100.078C100.078 32.3376 82.1403 45.555 80.7231 62.0812C79.3059 78.6073 80.7231 76.7157 80.7231 76.7157L136.427 82.8649C136.427 82.8649 133.118 62.5615 156.725 52.1785C180.331 41.7955 221.875 37.5439 221.875 37.5439V32.3495H193.714Z" fill="black"/>
<path d="M276.814 143.147H9.75024V96.1602L272.764 105.227L276.814 143.147Z" fill="#263238"/>
<path d="M-38.1562 59.4121L-21.6775 59.9458L23.3351 80.6109L10.8945 83.6707L-38.1562 59.4121Z" fill="#263238"/>
<path d="M309.824 118.875V116.083H304.488L298.635 104.703L192.837 91.4623L138.413 71.0996L61.1549 71.9476C61.1549 71.9476 -25.8224 90.9227 -25.9469 91.1362L-31.4853 109.418L-38.1562 110.165L-34.1359 122.854C-33.8029 123.908 -33.1428 124.828 -32.2513 125.48C-31.3598 126.133 -30.2835 126.484 -29.1786 126.483L-27.1388 133.421L-18.1612 133.557V136.682H-7.96204V133.83L8.08382 139.404L10.0643 139.63C9.99319 138.77 9.94576 137.898 9.94576 137.02C9.94648 132.767 10.8703 128.565 12.6535 124.704C14.4366 120.843 17.0366 117.415 20.2739 114.657C23.5111 111.898 27.3085 109.875 31.4038 108.728C35.4991 107.58 39.7946 107.335 43.9938 108.01C48.193 108.684 52.1958 110.262 55.7258 112.634C59.2557 115.006 62.2286 118.117 64.4393 121.75C66.65 125.383 68.0457 129.453 68.5301 133.679C69.0145 137.904 68.5759 142.184 67.2448 146.223H69.587L208.129 146.478C207.295 143.615 206.895 140.643 206.943 137.661C207.011 133.605 207.917 129.606 209.606 125.917C211.294 122.229 213.728 118.929 216.754 116.227C219.779 113.525 223.332 111.478 227.187 110.216C231.043 108.953 235.118 108.503 239.156 108.893C243.194 109.282 247.107 110.503 250.65 112.479C254.193 114.455 257.289 117.143 259.742 120.374C262.196 123.605 263.954 127.309 264.906 131.252C265.858 135.196 265.983 139.294 265.274 143.288L265.754 143.259L270.587 143.413L274.145 144.842H295.723L301.914 134.281L307.423 130.278V127.717H309.836V124.924H307.559V118.875H309.824Z" fill="#FFD000"/>
<path opacity="0.3" d="M68.4724 133.154L207.228 133.99C207.228 133.99 206.428 143.081 208.124 146.443L67.239 146.188C67.239 146.188 69.4508 137.732 68.4724 133.154Z" fill="black"/>
<path d="M15.075 81.5435C15.075 81.5435 17.9805 72.222 34.1983 68.2965C50.4162 64.371 58.2849 72.5303 58.2849 72.5303L52.3018 73.7578C46.8297 71.2468 40.6218 70.8497 34.8743 72.643C25.0013 75.6079 21.3427 80.2153 21.3427 80.2153" fill="#FFD000"/>
<path opacity="0.4" d="M15.075 81.5435C15.075 81.5435 17.9805 72.222 34.1983 68.2965C50.4162 64.371 58.2849 72.5303 58.2849 72.5303L52.3018 73.7578C46.8297 71.2468 40.6218 70.8497 34.8743 72.643C25.0013 75.6079 21.3427 80.2153 21.3427 80.2153" fill="white"/>
<path d="M24.0467 77.9963C23.7784 78.0956 23.4853 78.106 23.2106 78.026C22.5314 77.9035 21.913 77.5563 21.4549 77.0401C20.9968 76.5239 20.7255 75.8687 20.6845 75.1797C20.639 74.8987 20.6826 74.6105 20.8091 74.3555C20.8565 74.3555 20.8091 74.6757 20.9039 75.156C20.9971 75.7819 21.2713 76.3669 21.6927 76.8389C22.1141 77.3109 22.6645 77.6494 23.2758 77.8125C23.7621 77.9489 24.0467 77.9489 24.0467 77.9963Z" fill="#263238"/>
<path d="M27.4802 75.5763C27.2206 75.6644 26.9392 75.6644 26.6797 75.5763C26.0258 75.4277 25.4495 75.0435 25.0609 74.4971C24.6753 73.9483 24.5025 73.2781 24.5746 72.6114C24.6339 72.1074 24.8059 71.8346 24.8355 71.8524C24.836 72.1099 24.8222 72.3673 24.794 72.6233C24.7787 73.2295 24.9598 73.8243 25.3103 74.3192C25.6608 74.814 26.162 75.1821 26.739 75.3687C27.1778 75.517 27.4802 75.5229 27.4802 75.5763Z" fill="#263238"/>
<path d="M31.1743 74.1356C31.1743 74.1712 30.8541 74.1356 30.445 73.8391C29.9008 73.4673 29.4961 72.9248 29.2946 72.2974C29.0986 71.6688 29.1174 70.9929 29.348 70.3761C29.5259 69.9077 29.7453 69.6883 29.7749 69.7061C29.7181 69.9557 29.6448 70.2014 29.5555 70.4414C29.3977 71.0193 29.41 71.6305 29.5909 72.2016C29.7718 72.7728 30.1136 73.2796 30.5754 73.6612C30.9253 73.9636 31.1981 74.0941 31.1743 74.1356Z" fill="#263238"/>
<path d="M34.7856 72.4758C34.7856 72.5055 34.4891 72.4165 34.1452 72.0963C33.6957 71.6674 33.4227 71.0859 33.3799 70.466C33.3372 69.8461 33.5276 69.2327 33.9139 68.746C34.2104 68.3784 34.4773 68.2538 34.5069 68.2835C34.5366 68.3131 34.329 68.5029 34.1037 68.8765C33.8087 69.3454 33.6677 69.8948 33.7005 70.4478C33.7389 70.9988 33.946 71.5247 34.2934 71.954C34.5781 72.2861 34.8093 72.4343 34.7856 72.4758Z" fill="#263238"/>
<path d="M39.2327 71.9067C39.2327 71.9363 38.9778 71.7821 38.7228 71.4263C38.397 70.954 38.2026 70.4035 38.1595 69.8312C38.1097 69.2575 38.212 68.6808 38.456 68.1591C38.6516 67.7677 38.8532 67.5661 38.8829 67.6017C38.5877 68.2965 38.4461 69.047 38.4678 69.8016C38.571 70.5495 38.8317 71.267 39.2327 71.9067Z" fill="#263238"/>
<path d="M44.3622 67.2698C44.3622 67.3113 44.1428 67.4536 43.8344 67.756C43.4301 68.1451 43.118 68.6197 42.921 69.145C42.724 69.6703 42.6471 70.2331 42.6959 70.7921C42.7315 71.219 42.8204 71.4858 42.773 71.5036C42.7256 71.5214 42.5773 71.2783 42.4765 70.8217C42.362 70.2259 42.4154 69.61 42.6307 69.0428C42.8391 68.469 43.2074 67.967 43.6921 67.5959C44.0657 67.3113 44.3444 67.2342 44.3622 67.2698Z" fill="#263238"/>
<path d="M48.2638 67.916C48.2638 67.9634 48.0266 68.0702 47.6708 68.337C47.2271 68.6764 46.8908 69.1368 46.7025 69.6628C46.5142 70.1888 46.4819 70.7579 46.6094 71.3019C46.7043 71.7229 46.8288 71.9719 46.7873 71.9956C46.7458 72.0194 46.556 71.8 46.4018 71.3612C46.2022 70.7776 46.2068 70.1435 46.4147 69.5628C46.6226 68.9821 47.0216 68.4893 47.5463 68.165C47.9673 67.916 48.2579 67.8804 48.2638 67.916Z" fill="#263238"/>
<path d="M54.2291 69.9973C53.9734 70.0583 53.7139 70.1019 53.4523 70.1278C52.8445 70.2498 52.2713 70.505 51.774 70.8752C51.2767 71.2453 50.8677 71.7212 50.5764 72.2684C50.3511 72.6894 50.274 72.9859 50.2265 72.9741C50.1791 72.9622 50.191 72.6539 50.3748 72.1795C50.6332 71.5619 51.0531 71.0253 51.5904 70.6259C52.1214 70.228 52.7507 69.982 53.4108 69.9143C53.6857 69.8587 53.971 69.8876 54.2291 69.9973Z" fill="#263238"/>
<path d="M43.3719 75.6L34.2756 77.8295V51.7031H43.3719V75.6Z" fill="#263238"/>
<path d="M34.2755 56.2227C34.2755 56.2227 38.8948 56.5962 38.8236 59.4129C38.7703 61.5357 38.8236 66.3803 38.8236 68.6277C38.8358 69.2479 38.7152 69.8635 38.4697 70.4332C38.2242 71.0029 37.8597 71.5134 37.4005 71.9305C36.9841 72.3146 36.4833 72.5957 35.9386 72.7512C35.3938 72.9067 34.8201 72.9323 34.2637 72.8259L34.2755 56.2227Z" fill="#FFD000"/>
<path d="M82.7214 78.5708V90.1694C82.7214 91.2278 83.1419 92.2428 83.8903 92.9912C84.6387 93.7396 85.6538 94.1601 86.7122 94.1601H181.493L135.117 74.9952L86.7299 74.5801C86.2046 74.5785 85.6841 74.6806 85.1982 74.8803C84.7123 75.0801 84.2706 75.3738 83.8983 75.7444C83.526 76.115 83.2304 76.5555 83.0285 77.0404C82.8266 77.5254 82.7222 78.0455 82.7214 78.5708Z" fill="#263238"/>
<path d="M188.668 94.4035C188.668 94.4035 188.638 94.5576 188.561 94.866C188.484 95.1743 188.365 95.6309 188.217 96.2239C187.909 97.4099 187.452 99.1888 186.871 101.424C185.685 105.949 183.96 112.477 181.831 120.542L180.141 126.869C179.548 129.081 178.955 131.346 178.243 133.741C178.243 133.741 178.243 133.741 178.243 133.777C178.224 133.807 178.195 133.83 178.16 133.842H178.083H177.959L177.728 133.872L177.259 133.901L176.328 133.943L174.437 133.99L170.576 134.05L162.512 134.091C151.477 134.091 139.344 134.056 126.607 133.973L107.122 133.818H107.051L107.004 133.759L75.4456 92.5653V92.5356V92.5C76.1215 85.9773 76.6611 80.7769 77.0288 77.2132C77.2185 75.4343 77.3609 74.0882 77.4617 73.1572C77.515 72.7006 77.5506 72.3508 77.5803 72.1077C77.6099 71.8646 77.6277 71.7578 77.6277 71.7578C77.6277 71.7578 77.6277 71.8764 77.6277 72.1136C77.6277 72.3508 77.5803 72.7066 77.5388 73.1632C77.4498 74.0941 77.3194 75.458 77.1533 77.225C76.8094 80.7829 76.2994 85.9714 75.665 92.5178V92.4467L107.294 133.617L107.176 133.558L126.655 133.7C139.392 133.783 151.524 133.854 162.559 133.848L170.618 133.818L174.478 133.771L176.364 133.724L177.295 133.688L177.751 133.652H177.977H178.077H178.113C178.113 133.652 178.113 133.735 178.16 133.741C177.988 133.652 178.119 133.7 178.083 133.676C179.429 129.009 180.592 124.55 181.689 120.536C183.853 112.477 185.602 105.961 186.818 101.442C187.411 99.1947 187.897 97.4454 188.223 96.2536C188.383 95.6606 188.508 95.2158 188.597 94.9075C188.686 94.5992 188.668 94.4035 188.668 94.4035Z" fill="#263238"/>
<path d="M214.759 110.201C214.759 110.628 180.064 110.853 137.281 110.705C94.4979 110.556 59.803 110.082 59.803 109.643C59.803 109.204 94.4919 108.997 137.287 109.145C180.082 109.293 214.759 109.774 214.759 110.201Z" fill="#263238"/>
<path d="M20.8979 109.406C20.8979 109.833 9.16891 110.177 -5.29371 110.177C-19.7563 110.177 -31.4854 109.833 -31.4854 109.406C-31.4854 108.979 -19.7623 108.635 -5.29371 108.635C9.17484 108.635 20.8979 108.979 20.8979 109.406Z" fill="#263238"/>
<path d="M70.0141 146.212C70.0141 146.212 70.0438 146.111 70.109 145.922L70.4114 145.092C70.792 144.026 71.1166 142.941 71.3839 141.842C72.3428 137.782 72.4979 133.574 71.8405 129.455C71.3782 126.619 70.5136 123.863 69.2729 121.272C67.8458 118.295 65.9454 115.57 63.6456 113.201C58.3525 107.715 51.2143 104.383 43.609 103.85C35.6157 103.222 27.7766 105.036 21.9536 108.879C19.1859 110.671 16.7269 112.9 14.6719 115.478C12.8848 117.729 11.3811 120.19 10.195 122.808C9.89848 123.401 9.66129 123.994 9.43596 124.587C9.21063 125.18 8.96158 125.731 8.78962 126.3L8.25001 127.943C8.1077 128.482 7.96539 129.004 7.82901 129.514C7.69262 130.024 7.57996 130.51 7.48508 130.985C7.3902 131.459 7.29533 131.922 7.20638 132.36C7.07593 133.25 6.95733 134.056 6.84467 134.792C6.732 135.527 6.72607 136.173 6.6727 136.742C6.61933 137.312 6.6312 137.792 6.61341 138.177C6.59562 138.563 6.58376 138.848 6.57783 139.061C6.5719 139.274 6.57783 139.363 6.57783 139.363C6.57783 139.363 6.57783 139.263 6.57783 139.061C6.57783 138.859 6.57783 138.557 6.57783 138.177C6.57783 137.798 6.57783 137.306 6.61341 136.737L6.75572 134.774C6.85653 134.044 6.96919 133.226 7.08779 132.337L7.36055 130.955C7.4495 130.475 7.5503 129.977 7.69261 129.473L8.10177 127.889L8.63545 126.241C8.80148 125.648 9.0446 125.102 9.26993 124.515C9.49526 123.928 9.73245 123.329 10.023 122.736C11.2053 120.094 12.7111 117.608 14.5059 115.336C16.5659 112.725 19.0397 110.47 21.8291 108.659C27.7055 104.787 35.6039 102.931 43.6624 103.56C47.6034 103.859 51.4552 104.885 55.0238 106.584C58.3283 108.2 61.3262 110.379 63.8828 113.024C66.1947 115.414 68.1032 118.163 69.5338 121.165C70.7731 123.783 71.6317 126.564 72.0836 129.425C72.7252 133.572 72.5378 137.804 71.5321 141.878C71.2488 142.977 70.9043 144.06 70.5004 145.121C70.3581 145.471 70.2513 145.744 70.1683 145.939C70.0853 146.135 70.0141 146.212 70.0141 146.212Z" fill="#263238"/>
<path d="M93.7625 138.26H92.4165V142.66H93.7625V138.26Z" fill="#263238"/>
<path d="M1.60857 88.9721L28.0493 83.9318L60.1173 77.8301L68.9526 91.7353L23.0386 91.2076L1.82204 90.9644C1.57396 90.9635 1.33494 90.8711 1.15072 90.7049C0.96651 90.5387 0.85004 90.3105 0.82361 90.0638C0.79718 89.8171 0.862647 89.5693 1.00748 89.3679C1.1523 89.1665 1.36632 89.0255 1.60857 88.9721Z" fill="#263238"/>
<path d="M24.6753 91.2612L29.1937 83.7305L1.5315 88.9605C1.29495 89.013 1.08586 89.1504 0.943827 89.3468C0.801791 89.5431 0.736665 89.7847 0.760776 90.0258C0.784887 90.2669 0.896564 90.4908 1.07466 90.6551C1.25276 90.8194 1.48491 90.9127 1.72718 90.9173L24.6753 91.2612Z" fill="#FFD000"/>
<path opacity="0.3" d="M24.6753 91.2612L29.1937 83.7305L1.5315 88.9605C1.29495 89.013 1.08586 89.1504 0.943827 89.3468C0.801791 89.5431 0.736665 89.7847 0.760776 90.0258C0.784887 90.2669 0.896564 90.4908 1.07466 90.6551C1.25276 90.8194 1.48491 90.9127 1.72718 90.9173L24.6753 91.2612Z" fill="black"/>
<path d="M34.6907 84.3714H35.6216C36.2507 84.3714 36.854 84.6213 37.2988 85.0661C37.7436 85.5109 37.9935 86.1142 37.9935 86.7433V91.2261H32.2832V86.7433C32.2832 86.4288 32.3457 86.1174 32.4671 85.8273C32.5885 85.5372 32.7664 85.2741 32.9904 85.0534C33.2145 84.8326 33.4802 84.6587 33.7721 84.5416C34.064 84.4245 34.3762 84.3666 34.6907 84.3714Z" fill="#455A64"/>
<path d="M42.8439 83.6719H43.8045C44.4336 83.6719 45.0369 83.9218 45.4817 84.3666C45.9265 84.8114 46.1764 85.4147 46.1764 86.0438V91.0188H40.4661V86.0438C40.4661 85.7318 40.5276 85.4229 40.6472 85.1347C40.7667 84.8466 40.942 84.5848 41.1629 84.3645C41.3838 84.1442 41.6459 83.9696 41.9344 83.8507C42.2228 83.7319 42.5319 83.6711 42.8439 83.6719Z" fill="#455A64"/>
<path d="M51.8217 83.6719H52.7823C53.4114 83.6719 54.0147 83.9218 54.4595 84.3666C54.9043 84.8114 55.1542 85.4147 55.1542 86.0438V91.0188H49.4438V86.0438C49.4438 85.7318 49.5054 85.4229 49.625 85.1347C49.7445 84.8466 49.9198 84.5848 50.1407 84.3645C50.3615 84.1442 50.6237 83.9696 50.9122 83.8507C51.2006 83.7319 51.5097 83.6711 51.8217 83.6719Z" fill="#455A64"/>
<path d="M138.414 71.0879L138.829 73.4538L188.668 94.4036L195.564 91.504L138.414 71.0879Z" fill="#263238"/>
<path d="M29.7867 90.9002C29.7984 90.3967 29.6928 89.8973 29.4784 89.4415C29.2074 88.9388 28.7951 88.5266 28.2924 88.2556C27.5883 87.9164 26.8203 87.7305 26.0391 87.71C23.9255 87.6227 21.8085 87.6663 19.7002 87.8405C17.3283 88.0065 14.6777 88.2971 11.8848 88.4335C9.24611 88.6173 6.59513 88.5079 3.9805 88.1073C1.83034 87.778 -0.255909 87.1179 -2.20421 86.1505C-3.51444 85.4939 -4.7147 84.6377 -5.76205 83.6126C-6.04629 83.3375 -6.30804 83.04 -6.54478 82.7231C-6.71081 82.5037 -6.78197 82.3851 -6.75825 82.3614C-6.73453 82.3377 -6.61594 82.4207 -6.4084 82.5927C-6.20086 82.7646 -5.92216 83.0374 -5.51894 83.3457C-4.41744 84.2352 -3.20565 84.9786 -1.91366 85.5575C0.00548649 86.4096 2.03596 86.9846 4.11688 87.2653C6.67163 87.6065 9.25437 87.6879 11.8255 87.5084C14.5829 87.3661 17.2216 87.0993 19.635 86.9807C21.7841 86.8387 23.9408 86.8605 26.0866 87.0459C26.9483 87.1096 27.785 87.3648 28.5355 87.793C29.1083 88.1422 29.5565 88.663 29.8164 89.2814C29.9808 89.6662 30.0342 90.0893 29.9705 90.5029C29.8994 90.7876 29.8104 90.9121 29.7867 90.9002Z" fill="#455A64"/>
<path d="M80.0947 62.6094H60.2598V71.7293H80.0947V62.6094Z" fill="#455A64"/>
<path opacity="0.3" d="M91.8475 99.7891C91.8475 99.985 91.7894 100.176 91.6806 100.339C91.5718 100.502 91.4171 100.629 91.2362 100.704C91.0552 100.779 90.8561 100.799 90.664 100.76C90.4719 100.722 90.2955 100.628 90.157 100.489C90.0185 100.351 89.9242 100.174 89.886 99.9823C89.8478 99.7902 89.8674 99.5911 89.9423 99.4102C90.0173 99.2292 90.1442 99.0746 90.3071 98.9657C90.4699 98.8569 90.6614 98.7988 90.8572 98.7988C90.9875 98.7981 91.1166 98.8231 91.2371 98.8726C91.3576 98.9221 91.4671 98.995 91.5592 99.0871C91.6513 99.1792 91.7242 99.2887 91.7737 99.4092C91.8232 99.5297 91.8483 99.6589 91.8475 99.7891Z" fill="black"/>
<path d="M131.511 104.041C131.511 104.124 121.312 104.195 108.729 104.195C96.1465 104.195 85.9414 104.124 85.9414 104.041C85.9414 103.958 96.1406 103.887 108.729 103.887C121.318 103.887 131.511 103.952 131.511 104.041Z" fill="white"/>
<path d="M132.869 105.404C132.869 105.487 122.67 105.558 110.087 105.558C97.5044 105.558 87.2993 105.487 87.2993 105.404C87.2993 105.321 97.4985 105.25 110.087 105.25C122.676 105.25 132.869 105.321 132.869 105.404Z" fill="white"/>
<path d="M134.245 106.767C134.245 106.856 124.04 106.922 111.457 106.922C98.874 106.922 88.6689 106.856 88.6689 106.767C88.6689 106.678 98.874 106.613 111.457 106.613C124.04 106.613 134.245 106.678 134.245 106.767Z" fill="white"/>
<g opacity="0.3">
<path d="M114.902 110.125C115.744 110.718 115.454 112.17 114.618 112.787C113.782 113.404 112.667 113.445 111.653 113.463C109.186 113.493 106.725 113.528 104.258 113.463C103.166 113.489 102.08 113.298 101.062 112.9C100.072 112.437 98.3701 111.121 99.2062 110.409C99.7933 109.87 114.902 110.125 114.902 110.125Z" fill="black"/>
</g>
<path d="M56.4522 68.7273C56.3695 68.7273 56.2986 68.7273 56.2986 68.6801C56.2986 68.6328 56.3695 68.6328 56.4522 68.6328C56.5349 68.6328 56.6058 68.6328 56.6058 68.6801C56.6058 68.7273 56.5408 68.7273 56.4522 68.7273Z" fill="#263238"/>
<path d="M97.1186 136.672H182.021C182.856 136.672 183.657 137.004 184.247 137.594C184.838 138.185 185.169 138.985 185.169 139.821V141.208C185.169 142.043 184.838 142.844 184.247 143.435C183.657 144.025 182.856 144.357 182.021 144.357H97.1186C96.6881 144.357 96.2617 144.272 95.8642 144.106C95.4666 143.941 95.1056 143.699 94.802 143.394C94.4984 143.088 94.2581 142.726 94.0949 142.328C93.9318 141.929 93.849 141.502 93.8514 141.072V139.927C93.8545 139.063 94.2001 138.235 94.8125 137.625C95.4249 137.014 96.2542 136.672 97.1186 136.672Z" fill="#455A64"/>
<path d="M97.6526 135.824H95.8203V145.134H97.6526V135.824Z" fill="#263238"/>
<path d="M161.51 137.56C161.51 137.649 147.717 137.715 130.705 137.715C113.693 137.715 99.8704 137.649 99.8704 137.56C99.8704 137.471 113.663 137.406 130.705 137.406C147.747 137.406 161.51 137.477 161.51 137.56Z" fill="#FAFAFA"/>
<path d="M158.195 138.753C156.302 138.909 154.402 138.96 152.503 138.907C150.602 138.961 148.699 138.909 146.804 138.753C148.7 138.6 150.602 138.549 152.503 138.599C154.402 138.549 156.302 138.6 158.195 138.753Z" fill="#FAFAFA"/>
<path d="M92.3633 139.595C92.3112 139.626 92.2554 139.65 92.1973 139.666L91.6992 139.85C91.0542 140.058 90.3911 140.205 89.7187 140.289C88.6488 140.404 87.5685 140.38 86.5047 140.218C85.0954 139.999 83.7264 139.571 82.4429 138.949C80.8833 138.2 79.4586 137.199 78.2268 135.984C76.831 134.573 75.6502 132.965 74.7224 131.211C73.6968 129.278 72.8894 127.238 72.3149 125.127C71.6804 122.939 71.3068 120.614 70.8443 118.266C70.4634 115.971 69.8167 113.728 68.9171 111.583C68.0519 109.602 66.7019 107.871 64.9917 106.549C63.4046 105.394 61.7337 104.36 59.9929 103.453C58.4698 102.643 57.0248 101.695 55.6761 100.619C54.5604 99.7212 53.6368 98.608 52.9602 97.3458C52.4578 96.3885 52.1533 95.3398 52.0648 94.2623C52.0113 93.5821 52.0776 92.8977 52.2605 92.2403C52.3225 92.0116 52.4058 91.7892 52.5096 91.5762C52.5096 91.5762 52.4266 91.8074 52.3198 92.2581C52.1658 92.9103 52.1217 93.5837 52.1894 94.2505C52.2915 95.3086 52.6061 96.3351 53.1144 97.2687C53.7954 98.4991 54.7146 99.5816 55.8184 100.453C57.1613 101.511 58.6006 102.44 60.1174 103.228C61.8757 104.13 63.5627 105.165 65.1636 106.323C66.0218 106.978 66.7947 107.737 67.4644 108.583C68.1516 109.471 68.7327 110.436 69.1958 111.459C70.1074 113.624 70.7622 115.889 71.1467 118.207C71.6093 120.579 71.9828 122.879 72.6054 125.044C73.1711 127.135 73.9666 129.158 74.9773 131.074C75.8852 132.815 77.044 134.414 78.4166 135.818C79.6253 137.031 81.0283 138.033 82.5674 138.783C84.7798 139.91 87.2612 140.403 89.7365 140.206C90.4041 140.135 91.0646 140.008 91.7111 139.826L92.2151 139.672L92.3633 139.595Z" fill="#455A64"/>
<path d="M56.9686 90.793C56.9686 90.793 56.7492 90.9294 56.4231 91.2733C55.9649 91.8016 55.6867 92.462 55.6285 93.1589C55.5172 94.2584 55.8384 95.3579 56.5239 96.2246C57.4728 97.3232 58.7026 98.1431 60.0817 98.5965C61.6057 99.1895 63.3549 99.5808 65.205 100.126C67.2145 100.632 69.1006 101.54 70.7493 102.795C71.6112 103.513 72.3712 104.344 73.0085 105.267C73.6537 106.242 74.1868 107.286 74.5977 108.381C75.4375 110.692 75.9272 113.117 76.0505 115.573C76.2165 118.082 76.1039 120.519 76.092 122.873C76.0293 125.128 76.1443 127.384 76.4359 129.621C76.5802 130.659 76.8063 131.684 77.1119 132.687C77.3861 133.635 77.7556 134.553 78.2148 135.426C78.9832 137.027 80.3095 138.292 81.9446 138.984C83.3246 139.468 84.7755 139.718 86.2378 139.725C87.5364 139.784 88.6571 139.826 89.5703 139.945C90.2724 140.022 90.9655 140.167 91.6398 140.377L92.1497 140.573L92.3217 140.65L92.1379 140.603L91.622 140.437C90.9456 140.255 90.2554 140.13 89.5584 140.063C88.6512 139.962 87.5364 139.945 86.2319 139.903C84.7452 139.911 83.2678 139.668 81.8616 139.186C81.0463 138.875 80.302 138.403 79.6736 137.798C78.9988 137.139 78.4306 136.379 77.9895 135.545C77.5195 134.659 77.1381 133.73 76.851 132.77C76.5372 131.756 76.3052 130.719 76.1572 129.668C75.8549 127.416 75.732 125.144 75.7896 122.873C75.7896 120.501 75.9082 118.076 75.7422 115.597C75.6202 113.182 75.1427 110.798 74.3249 108.523C73.9211 107.451 73.4001 106.427 72.7713 105.469C72.1525 104.566 71.4122 103.751 70.5714 103.05C68.954 101.813 67.105 100.914 65.1338 100.405C63.3016 99.8536 61.576 99.4326 60.0106 98.8396C58.5911 98.3596 57.3299 97.5004 56.3638 96.3551C55.6627 95.4487 55.3473 94.3023 55.4862 93.1649C55.5672 92.4504 55.8795 91.7819 56.3756 91.2614C56.5057 91.1299 56.651 91.0145 56.8085 90.9175L56.9686 90.793Z" fill="#263238"/>
<path d="M-18.1611 136.671V117.352C-18.1619 114.566 -17.6138 111.807 -16.5482 109.234C-15.4825 106.66 -13.9202 104.321 -11.9504 102.352C-9.98066 100.382 -7.64211 98.8196 -5.06837 97.7539C-2.49462 96.6883 0.263889 96.1402 3.04953 96.141H48.4654C50.1432 96.141 51.8046 95.8104 53.3546 95.1681C54.9047 94.5259 56.313 93.5845 57.4991 92.3978C58.6852 91.2112 59.6259 89.8024 60.2675 88.2521C60.909 86.7018 61.2388 85.0402 61.238 83.3624V68.2949H70.1741L69.4922 82.8643C69.4922 93.8936 62.0682 102.877 51.033 102.877H6.47098C4.51672 102.876 2.58144 103.261 0.775711 104.008C-1.03002 104.755 -2.67082 105.851 -4.05297 107.233C-5.43513 108.614 -6.53154 110.255 -7.27958 112.06C-8.02763 113.865 -8.41265 115.801 -8.41265 117.755V136.671H-18.1611Z" fill="#455A64"/>
<path d="M125.487 80.6765C125.528 80.7535 120.796 83.0484 114.926 85.776C109.056 88.5037 104.252 90.6799 104.252 90.6028C104.252 90.5258 108.949 88.2309 114.819 85.4973C120.69 82.7637 125.451 80.5875 125.487 80.6765Z" fill="white"/>
<path d="M134.82 80.8613C134.55 80.9973 134.268 81.1084 133.978 81.1934L131.683 82.0117C129.733 82.7114 127.058 83.7254 124.159 84.9766C121.259 86.2277 118.691 87.4908 116.847 88.4336L114.671 89.5603C114.411 89.7111 114.139 89.842 113.859 89.9516C114.093 89.763 114.345 89.5982 114.612 89.4594C115.11 89.157 115.839 88.742 116.746 88.2439C118.567 87.2477 121.128 85.955 124.04 84.686C126.951 83.4171 129.638 82.4386 131.612 81.7923C132.597 81.4721 133.391 81.1993 133.984 81.0689C134.257 80.9776 134.536 80.9082 134.82 80.8613Z" fill="white"/>
<path d="M57.6381 157.816C67.6859 147.768 67.6859 131.478 57.638 121.43C47.5902 111.382 31.2994 111.382 21.2516 121.43C11.2037 131.478 11.2037 147.768 21.2516 157.816C31.2994 167.864 47.5902 167.864 57.6381 157.816Z" fill="#455A64"/>
<path d="M39.4463 158.861C50.0734 158.861 58.6883 150.246 58.6883 139.619C58.6883 128.992 50.0734 120.377 39.4463 120.377C28.8193 120.377 20.2043 128.992 20.2043 139.619C20.2043 150.246 28.8193 158.861 39.4463 158.861Z" fill="#263238"/>
<path d="M39.4462 145.857C39.5351 145.857 39.6003 148.852 39.6003 152.546C39.6003 156.24 39.5351 159.235 39.4462 159.235C39.3572 159.235 39.292 156.24 39.292 152.546C39.292 148.852 39.3631 145.857 39.4462 145.857Z" fill="#E0E0E0"/>
<path d="M37.9461 146.609C37.3463 148.507 36.6456 150.372 35.847 152.195C35.1551 154.059 34.3633 155.884 33.4751 157.662C34.7861 153.906 36.2843 150.217 37.9639 146.609H37.9461Z" fill="#E0E0E0"/>
<path d="M37.9459 144.984C37.5267 145.499 37.073 145.984 36.588 146.437C35.7282 147.309 34.5363 148.518 33.2496 149.876C31.9628 151.234 30.8065 152.48 29.9764 153.387C29.551 153.896 29.0893 154.374 28.5947 154.816C28.9565 154.256 29.3651 153.729 29.8163 153.239C30.6049 152.296 31.7316 151.021 33.0242 149.681C34.3169 148.341 35.5325 147.131 36.4338 146.295C36.8983 145.814 37.4043 145.376 37.9459 144.984Z" fill="#E0E0E0"/>
<path d="M37.1574 143.443C36.5552 143.83 35.9271 144.175 35.2776 144.475C34.0917 145.068 32.4788 145.916 30.6999 146.847C28.9209 147.778 27.3259 148.679 26.1636 149.326C25.553 149.698 24.9192 150.031 24.2661 150.322C24.4032 150.184 24.5589 150.066 24.7286 149.972C25.037 149.764 25.4936 149.48 26.0569 149.136C27.1895 148.442 28.7727 147.529 30.5516 146.574C32.3305 145.62 33.979 144.795 35.1827 144.256C35.7757 143.977 36.2738 143.758 36.6177 143.615C36.7898 143.536 36.971 143.478 37.1574 143.443Z" fill="#E0E0E0"/>
<path d="M36.606 141.124C36.606 141.207 33.2439 142.132 29.0575 143.187C24.8711 144.243 21.4496 145.031 21.4259 144.966C21.4022 144.901 24.7881 143.964 28.9804 142.903C33.1727 141.841 36.5882 141.07 36.606 141.124Z" fill="#E0E0E0"/>
<path d="M35.3667 139.121C35.3667 139.21 32.0223 139.323 27.9011 139.376C23.78 139.429 20.4297 139.376 20.4297 139.317C20.4297 139.257 23.7681 139.121 27.8952 139.068C32.0223 139.014 35.3667 139.038 35.3667 139.121Z" fill="#E0E0E0"/>
<path d="M34.3943 137.721C33.7399 137.598 33.0972 137.419 32.473 137.187C31.2871 136.808 29.7039 136.227 27.9724 135.492C26.2409 134.756 24.711 134.009 23.6259 133.434C23.0223 133.15 22.4465 132.811 21.9062 132.42C22.5275 132.655 23.1335 132.928 23.7207 133.238C24.8296 133.766 26.3713 134.478 28.091 135.207C29.8106 135.936 31.3998 136.553 32.5442 136.986C33.1769 137.189 33.795 137.434 34.3943 137.721Z" fill="#E0E0E0"/>
<path d="M35.3312 135.077C34.8219 134.688 34.3405 134.264 33.8902 133.808C33.0245 133.002 31.8148 131.905 30.4451 130.736C29.0753 129.568 27.7945 128.554 26.8872 127.825C26.3659 127.454 25.8706 127.048 25.4048 126.609C25.9749 126.902 26.5151 127.249 27.0177 127.647C27.9842 128.335 29.2888 129.331 30.6704 130.505C32.052 131.679 33.238 132.806 34.0681 133.648C34.529 134.088 34.9516 134.566 35.3312 135.077Z" fill="#E0E0E0"/>
<path d="M36.938 134.923C36.5944 134.345 36.2989 133.74 36.0545 133.114C35.5564 131.976 34.91 130.381 34.2756 128.596C33.6411 126.811 33.0896 125.168 32.7813 123.976C32.5642 123.338 32.4054 122.681 32.3069 122.014C32.578 122.63 32.8059 123.264 32.9888 123.911C33.3802 125.097 33.9257 126.71 34.5661 128.495C35.2065 130.28 35.8232 131.875 36.2679 133.031C36.5369 133.645 36.7608 134.277 36.938 134.923Z" fill="#E0E0E0"/>
<path d="M40.0334 120.104C40.083 120.779 40.083 121.456 40.0334 122.131C39.9859 123.383 39.9326 125.096 39.897 127.012C39.8614 128.927 39.897 130.647 39.897 131.898C39.9334 132.574 39.9195 133.252 39.8555 133.926C39.7424 133.258 39.6849 132.581 39.6835 131.904C39.6242 130.653 39.5827 128.939 39.6124 127.006C39.642 125.073 39.7369 123.365 39.8377 122.12C39.8473 121.443 39.9127 120.769 40.0334 120.104Z" fill="#E0E0E0"/>
<path d="M41.4268 134.921C41.3497 134.892 42.423 131.956 43.8283 128.399C45.2336 124.841 46.4315 121.953 46.5085 121.983C46.5856 122.012 45.5183 124.948 44.1367 128.505C42.755 132.063 41.5098 134.951 41.4268 134.921Z" fill="#E0E0E0"/>
<path d="M41.3379 134.4C41.7815 133.904 42.2611 133.442 42.7729 133.018C43.6801 132.194 44.9313 131.049 46.2951 129.768C47.659 128.488 48.8746 127.302 49.7522 126.442C50.207 125.958 50.6943 125.507 51.2109 125.09C50.8211 125.629 50.3845 126.133 49.9064 126.596C49.0703 127.491 47.8725 128.707 46.5086 129.994C45.1448 131.28 43.864 132.401 42.9152 133.184C42.4241 133.632 41.8965 134.039 41.3379 134.4Z" fill="#E0E0E0"/>
<path d="M42.0376 135.995C42.6598 135.643 43.3057 135.334 43.9707 135.07C45.1566 134.531 46.8466 133.783 48.673 132.93C50.4993 132.076 52.1478 131.281 53.3397 130.7C53.9674 130.361 54.6172 130.063 55.2846 129.811C55.1402 129.939 54.9785 130.047 54.8043 130.131C54.49 130.32 54.0216 130.581 53.4345 130.896C52.2486 131.524 50.6357 132.354 48.8034 133.208C46.9711 134.062 45.2871 134.78 44.0596 135.272C43.4667 135.515 42.9448 135.711 42.595 135.829C42.417 135.908 42.2297 135.964 42.0376 135.995Z" fill="#E0E0E0"/>
<path d="M42.4646 138.326C42.4646 138.243 45.8742 137.502 50.1199 136.678C54.3656 135.854 57.8285 135.249 57.8285 135.332C57.8285 135.415 54.419 136.156 50.1792 136.98C45.9394 137.805 42.4824 138.409 42.4646 138.326Z" fill="#E0E0E0"/>
<path d="M43.5969 140.39C43.5969 140.307 46.9413 140.39 51.0625 140.55C55.1836 140.71 58.5221 140.93 58.5221 141.013C58.5221 141.096 55.1718 141.013 51.0506 140.859C46.9294 140.704 43.591 140.479 43.5969 140.39Z" fill="#E0E0E0"/>
<path d="M44.5164 141.842C45.1641 142.001 45.7969 142.215 46.4079 142.482C47.5524 142.921 49.1178 143.591 50.8078 144.415C52.4978 145.24 53.9861 146.076 55.0357 146.71C55.6194 147.03 56.1748 147.399 56.696 147.813C56.0821 147.551 55.4877 147.246 54.9171 146.9C53.8379 146.307 52.3436 145.518 50.6596 144.694C48.9755 143.87 47.4338 143.176 46.3071 142.684C45.6926 142.442 45.0944 142.161 44.5164 141.842Z" fill="#E0E0E0"/>
<path d="M43.4075 144.434C43.896 144.849 44.3538 145.298 44.7772 145.78C45.5955 146.628 46.7459 147.79 48.0505 149.035C49.355 150.28 50.5765 151.36 51.466 152.136C51.967 152.535 52.4387 152.969 52.8773 153.435C52.328 153.105 51.8082 152.728 51.3237 152.308C50.3986 151.567 49.1475 150.529 47.837 149.254C46.5265 147.98 45.3999 146.817 44.6171 145.928C44.1696 145.467 43.7647 144.967 43.4075 144.434Z" fill="#E0E0E0"/>
<path d="M41.7944 144.498C42.1073 145.093 42.3692 145.714 42.5772 146.354C43.01 147.54 43.5734 149.141 44.1189 150.961C44.6644 152.782 45.0854 154.448 45.3582 155.658C45.5395 156.306 45.6625 156.969 45.7258 157.638C45.4837 157.01 45.2855 156.367 45.1329 155.711C44.8008 154.525 44.3442 152.865 43.8046 151.05C43.265 149.236 42.7373 147.593 42.3696 146.407C42.1332 145.785 41.941 145.147 41.7944 144.498Z" fill="#E0E0E0"/>
<path d="M47.9189 141.01C48.6744 136.335 45.4971 131.933 40.8223 131.177C36.1474 130.422 31.7452 133.599 30.9898 138.274C30.2343 142.949 33.4115 147.351 38.0864 148.106C42.7613 148.862 47.1634 145.684 47.9189 141.01Z" fill="#E0E0E0"/>
<path d="M41.4266 139.619C41.4266 140.011 41.3105 140.394 41.0929 140.72C40.8752 141.045 40.5659 141.299 40.204 141.449C39.8421 141.599 39.4439 141.638 39.0597 141.562C38.6755 141.485 38.3226 141.297 38.0457 141.02C37.7687 140.743 37.5801 140.39 37.5036 140.006C37.4272 139.621 37.4664 139.223 37.6163 138.861C37.7662 138.499 38.0201 138.19 38.3458 137.972C38.6715 137.755 39.0544 137.639 39.4461 137.639C39.9714 137.639 40.4751 137.847 40.8466 138.219C41.218 138.59 41.4266 139.094 41.4266 139.619Z" fill="#455A64"/>
<path d="M39.4461 135.516C39.9963 135.516 40.4423 135.07 40.4423 134.52C40.4423 133.969 39.9963 133.523 39.4461 133.523C38.896 133.523 38.45 133.969 38.45 134.52C38.45 135.07 38.896 135.516 39.4461 135.516Z" fill="#455A64"/>
<path d="M40.8161 144.143C40.8161 144.34 40.7577 144.532 40.6482 144.696C40.5388 144.86 40.3832 144.988 40.2012 145.063C40.0191 145.138 39.8188 145.158 39.6256 145.12C39.4323 145.081 39.2548 144.986 39.1155 144.847C38.9762 144.708 38.8813 144.53 38.8429 144.337C38.8044 144.144 38.8242 143.943 38.8996 143.761C38.975 143.579 39.1026 143.424 39.2665 143.314C39.4303 143.205 39.6229 143.146 39.8199 143.146C39.9507 143.146 40.0803 143.172 40.2012 143.222C40.322 143.272 40.4318 143.346 40.5243 143.438C40.6169 143.531 40.6902 143.641 40.7403 143.761C40.7904 143.882 40.8161 144.012 40.8161 144.143Z" fill="#455A64"/>
<path d="M35.509 140.295C35.5101 140.492 35.4527 140.685 35.344 140.85C35.2352 141.015 35.0801 141.143 34.8981 141.22C34.7162 141.296 34.5157 141.316 34.3221 141.279C34.1285 141.241 33.9504 141.146 33.8105 141.007C33.6706 140.868 33.5751 140.691 33.5362 140.497C33.4973 140.304 33.5166 140.103 33.5919 139.921C33.6671 139.739 33.7948 139.583 33.9587 139.473C34.1227 139.363 34.3155 139.305 34.5128 139.305C34.776 139.305 35.0285 139.409 35.2151 139.594C35.4018 139.78 35.5074 140.032 35.509 140.295Z" fill="#455A64"/>
<path d="M45.3581 139.357C45.3593 139.555 45.3017 139.748 45.1927 139.913C45.0837 140.078 44.9281 140.206 44.7459 140.283C44.5636 140.359 44.3628 140.379 44.169 140.341C43.9752 140.302 43.7972 140.207 43.6575 140.068C43.5178 139.928 43.4228 139.75 43.3846 139.556C43.3463 139.362 43.3666 139.162 43.4427 138.979C43.5188 138.797 43.6474 138.642 43.8122 138.533C43.9769 138.424 44.1703 138.366 44.3678 138.367C44.63 138.369 44.881 138.474 45.0663 138.659C45.2517 138.844 45.3565 139.095 45.3581 139.357Z" fill="#455A64"/>
<path d="M46.5975 139.618C46.5383 139.037 46.4433 138.461 46.3129 137.892C45.9064 136.347 44.9889 134.984 43.7097 134.026C42.8373 133.365 41.8217 132.918 40.7448 132.722C39.5107 132.5 38.2399 132.611 37.0625 133.042C36.423 133.265 35.8226 133.587 35.2836 133.996C34.7144 134.41 34.2158 134.912 33.8071 135.485C32.9252 136.684 32.4495 138.133 32.4495 139.621C32.4495 141.109 32.9252 142.558 33.8071 143.757C34.2158 144.329 34.7144 144.832 35.2836 145.245C35.8226 145.655 36.423 145.977 37.0625 146.2C37.9864 146.535 38.9701 146.675 39.9508 146.609C40.9315 146.543 41.8877 146.273 42.7582 145.816C43.6287 145.36 44.3945 144.727 45.0066 143.958C45.6186 143.188 46.0635 142.3 46.3129 141.349C46.4441 140.779 46.5391 140.2 46.5975 139.618C46.6117 139.772 46.6117 139.927 46.5975 140.08C46.5989 140.265 46.585 140.45 46.556 140.632C46.534 140.884 46.4904 141.134 46.4255 141.379C46.1016 142.724 45.3977 143.947 44.3978 144.903C43.3979 145.858 42.1443 146.506 40.7864 146.769C39.5055 147.014 38.1823 146.91 36.9557 146.467C35.5992 145.978 34.4186 145.096 33.5639 143.935C32.64 142.686 32.1414 141.174 32.1414 139.621C32.1414 138.068 32.64 136.555 33.5639 135.307C34.4186 134.145 35.5992 133.264 36.9557 132.775C38.0998 132.36 39.3303 132.241 40.5328 132.428C41.7354 132.616 42.871 133.104 43.8342 133.848C45.1327 134.85 46.0476 136.267 46.4255 137.863C46.4875 138.108 46.5311 138.358 46.556 138.61C46.585 138.792 46.5989 138.977 46.5975 139.161C46.6119 139.313 46.6119 139.466 46.5975 139.618Z" fill="#263238"/>
<path d="M145.512 51.704L182.709 36.9153L181.813 33.3574H109.204C105.954 34.5101 102.879 36.1064 100.066 38.1012C99.1836 38.7579 98.4586 39.6031 97.9438 40.5752C97.429 41.5474 97.1374 42.6221 97.0903 43.7211C97.0432 44.8202 97.2416 45.9159 97.6713 46.9286C98.1009 47.9412 98.7509 48.8454 99.574 49.5752C100.921 50.7739 102.657 51.4419 104.46 51.455L145.512 51.704Z" fill="#263238"/>
<path d="M221.88 34.8111L221.418 34.9059L220.042 35.149L214.765 36.0682L195.339 39.3769L188.899 40.468C186.658 40.8357 184.381 41.4464 182.015 42.075C177.271 43.3499 172.29 44.8442 167.042 46.4867C161.794 48.1292 156.298 49.9141 150.694 51.9895C147.862 53.076 145.233 54.6293 142.914 56.585C140.532 58.6016 138.509 61.0076 136.931 63.7007C136.576 64.3015 136.257 64.9233 135.976 65.5627L135.935 65.6575H135.834H85.5855H85.4669V65.5389C85.2202 62.6756 85.3558 59.7921 85.8701 56.9645C86.1006 55.6556 86.4055 54.3608 86.7833 53.0865L87.3763 51.3076C87.566 50.7146 87.8388 50.1572 88.0641 49.5939C88.278 49.0368 88.5235 48.4923 88.7994 47.9632L89.5703 46.4215C89.8609 45.9352 90.1633 45.4549 90.4183 44.9865C90.5606 44.7552 90.6969 44.518 90.8333 44.2927L91.284 43.6404L92.1557 42.3774C92.4521 41.9682 92.7486 41.6006 93.0629 41.1914C93.3772 40.7823 93.6559 40.4443 93.9524 40.1063L94.8596 39.1338C96.6958 37.1908 98.7583 35.4747 101.003 34.0224C102.58 33.0677 103.452 32.6289 103.452 32.6289L102.859 33.0025C102.462 33.2575 101.833 33.5955 101.08 34.0876C98.8622 35.5608 96.8226 37.286 95.0019 39.2287L94.1065 40.2071C93.7982 40.5451 93.5136 40.9246 93.2289 41.2922C92.9443 41.6599 92.636 42.0394 92.3276 42.4485L91.4678 43.7057L91.0231 44.3579L90.6139 45.0517L89.7778 46.4808L89.0129 48.0225C88.7425 48.5494 88.499 49.0897 88.2835 49.6413C88.0701 50.2343 87.7973 50.7561 87.6135 51.3491L87.0205 53.128C86.6521 54.3935 86.3532 55.6782 86.1251 56.9764C85.6253 59.7858 85.4977 62.6488 85.7456 65.4915L85.6211 65.3788L135.87 65.3492L135.727 65.45C136.012 64.7962 136.337 64.1606 136.7 63.5466C138.293 60.8197 140.338 58.3834 142.748 56.3419C145.092 54.3642 147.752 52.7947 150.617 51.6989C156.244 49.6176 161.741 47.8565 166.989 46.208C172.237 44.5595 177.259 43.083 181.985 41.8141C184.357 41.2211 186.646 40.5866 188.887 40.2249L195.333 39.1516L214.783 35.9377L220.072 35.0779L221.448 34.8644L221.88 34.8111Z" fill="#263238"/>
<path d="M146.662 35.7644C146.662 35.8474 140.928 37.8279 133.8 40.1939C126.673 42.5599 120.874 44.4099 120.844 44.3447C120.814 44.2795 126.578 42.2812 133.705 39.9152C140.833 37.5492 146.632 35.6814 146.662 35.7644Z" fill="white"/>
<path d="M139.985 41.084C139.71 41.2233 139.424 41.3403 139.131 41.4338C138.579 41.6414 137.767 41.926 136.759 42.2699C134.755 42.9519 131.968 43.8532 128.867 44.7663C125.765 45.6795 122.937 46.4326 120.873 46.9426C119.847 47.1975 119.011 47.3932 118.43 47.5355C118.134 47.6216 117.83 47.6772 117.523 47.7016C117.807 47.585 118.101 47.4918 118.401 47.4229L120.82 46.7469C122.86 46.1539 125.676 45.4008 128.778 44.4876C131.879 43.5745 134.672 42.7087 136.694 42.0802L139.066 41.339C139.363 41.2245 139.671 41.1391 139.985 41.084Z" fill="white"/>
</g>
<path d="M92.0601 44.8647L92.9295 44.8164C97.1236 44.5763 101.254 45.9237 104.5 48.5907C107.746 51.2577 109.869 55.0488 110.446 59.2099C111.557 67.2599 108.823 69.6774 109 74.0002C109.411 82.968 102.184 88.5002 102.184 88.5002L104.707 94.952C104.833 96.3825 104.674 97.8237 104.241 99.1929C103.809 100.562 103.109 101.832 102.184 102.93C101.259 104.029 100.125 104.933 98.8495 105.592C97.5735 106.251 96.1799 106.651 94.7488 106.769C91.8972 106.998 89.07 106.096 86.8772 104.259C84.6845 102.422 83.302 99.796 83.028 96.9484L79.808 63.6937C78.5039 54.4362 82.7704 45.9515 92.0601 44.8647Z" fill="#FFBF9D"/>
<path d="M102 88.5007C97.8507 88.7417 93.6289 87.6491 90 85.6777C90 85.6777 94.1185 91.7827 103 90.5007L102 88.5007Z" fill="#FF9A6C"/>
<path d="M95.996 68.3284C96.0248 68.7349 95.8978 69.1368 95.6425 69.447C95.3872 69.7572 95.0242 69.9508 94.632 69.9858C94.4413 70.0133 94.2472 70.0008 94.0612 69.9492C93.8752 69.8975 93.7011 69.8078 93.5492 69.6852C93.3973 69.5627 93.2706 69.4099 93.1768 69.2358C93.083 69.0617 93.0238 68.8698 93.0028 68.6716C92.9789 68.2663 93.1076 67.8672 93.362 67.5581C93.6163 67.249 93.9765 67.054 94.3668 67.0142C94.5575 66.9867 94.7516 66.9992 94.9376 67.0509C95.1236 67.1025 95.2977 67.1922 95.4496 67.3148C95.6015 67.4373 95.7282 67.5901 95.822 67.7642C95.9158 67.9383 95.975 68.1302 95.996 68.3284Z" fill="#263238"/>
<path d="M108.788 63.701C108.635 63.8781 107.629 63.21 106.252 63.2985C104.876 63.3871 103.902 64.1035 103.749 63.9667C103.596 63.8298 103.813 63.5883 104.232 63.2422C104.804 62.793 105.501 62.5316 106.228 62.4935C106.943 62.4539 107.653 62.6397 108.257 63.0248C108.683 63.3227 108.844 63.6125 108.788 63.701Z" fill="#263238"/>
<path d="M107.997 68.3284C108.021 68.7337 107.892 69.1328 107.638 69.4419C107.384 69.751 107.023 69.946 106.633 69.9858C106.442 70.0133 106.248 70.0008 106.062 69.9491C105.876 69.8975 105.702 69.8078 105.55 69.6852C105.398 69.5627 105.271 69.4099 105.177 69.2358C105.084 69.0617 105.024 68.8698 105.003 68.6716C104.977 68.2657 105.105 67.8652 105.36 67.5556C105.615 67.2459 105.976 67.0516 106.368 67.0142C106.558 66.9867 106.753 66.9992 106.939 67.0509C107.125 67.1025 107.299 67.1922 107.451 67.3148C107.603 67.4373 107.729 67.5901 107.823 67.7642C107.917 67.9383 107.976 68.1302 107.997 68.3284Z" fill="#263238"/>
<path d="M95.256 64.7316C95.1111 64.9087 94.0968 64.2486 92.7202 64.3291C91.3437 64.4096 90.3777 65.1341 90.2167 64.9973C90.0557 64.8604 90.2811 64.6189 90.7077 64.2728C91.2758 63.8278 91.9674 63.5691 92.688 63.5322C93.4038 63.4864 94.1152 63.6727 94.7166 64.0635C95.1674 64.3613 95.3284 64.6511 95.256 64.7316Z" fill="#263238"/>
<path d="M100.835 74.6567C101.546 74.3823 102.29 74.201 103.049 74.1173C103.403 74.061 103.725 73.9724 103.773 73.7309C103.785 73.3658 103.684 73.0059 103.483 72.7005C103.097 71.8955 102.678 71.002 102.284 70.0843C100.626 66.3571 99.4019 63.29 99.5468 63.2256C99.6917 63.1612 101.157 66.1237 102.831 69.8508C103.234 70.7685 103.636 71.646 103.982 72.4832C104.225 72.8956 104.318 73.3786 104.248 73.8517C104.204 73.9799 104.132 74.0961 104.035 74.1911C103.939 74.2862 103.821 74.3574 103.693 74.3991C103.503 74.4654 103.305 74.506 103.105 74.5198C102.356 74.6547 101.594 74.7006 100.835 74.6567Z" fill="#263238"/>
<path d="M95.359 60.4005C95.2383 60.7788 93.8537 60.6822 92.2517 60.972C90.6498 61.2618 89.3698 61.777 89.1364 61.447C89.0317 61.294 89.241 60.9318 89.7401 60.5373C90.4173 60.0516 91.1963 59.7266 92.0179 59.5871C92.8395 59.4476 93.6821 59.4973 94.4816 59.7323C95.0853 59.9416 95.4073 60.2153 95.359 60.4005Z" fill="#263238"/>
<path d="M108.086 60.827C107.869 61.149 106.903 60.8833 105.76 60.9316C104.617 60.9799 103.667 61.2617 103.425 60.9316C103.321 60.7787 103.425 60.4567 103.852 60.1266C104.397 59.7358 105.049 59.5197 105.72 59.5068C106.392 59.4784 107.056 59.6614 107.619 60.03C108.038 60.352 108.191 60.666 108.086 60.827Z" fill="#263238"/>
<path d="M109.344 55.1525C109.344 55.1525 106.663 49.6784 103.878 48.5192C100.513 47.1266 99.3133 50.8054 96.1416 50.1292C92.9699 49.453 89.7579 48.1006 86.707 50.6927C83.3743 53.5344 85.097 55.2974 85.097 59.2821C85.1453 75.4385 82.4646 80.1639 81.1927 72.629C81.0559 71.824 78.7052 71.2686 78.1659 67.799C77.4575 63.2749 76.9664 57.7526 77.7956 54.4602C78.4959 51.6909 79.9369 49.7187 82.6256 47.4808C86.8358 43.9549 92.8652 43.5363 96.9949 43.7134C101.125 43.8905 109.319 48.1006 109.344 55.1525Z" fill="#263238"/>
<path d="M81.7803 72.3236C81.7532 71.9929 81.6583 71.6713 81.5014 71.3788C81.3446 71.0864 81.1291 70.8295 80.8685 70.624C80.6079 70.4185 80.3078 70.269 79.9868 70.1847C79.6658 70.1004 79.331 70.0831 79.003 70.134C77.3447 70.3916 75.5415 71.4462 75.8474 74.8916C76.3948 81.0016 82.4162 79.1903 82.4162 79.0132C82.4162 78.8361 82.0298 74.8835 81.7803 72.3236Z" fill="#FFBF9D"/>
<path d="M80.8948 76.8303C80.8948 76.8303 80.7982 76.9188 80.6211 77.0154C80.3742 77.1475 80.0858 77.1793 79.8161 77.104C79.156 76.9269 78.52 75.9448 78.3912 74.85C78.3275 74.3266 78.3825 73.7955 78.5522 73.2963C78.5923 73.1011 78.6792 72.9186 78.8054 72.7643C78.9316 72.6101 79.0933 72.4888 79.2767 72.4108C79.3957 72.3686 79.5255 72.3688 79.6444 72.4113C79.7632 72.4538 79.8637 72.5361 79.9288 72.6443C80.0334 72.8053 80.0012 72.934 80.0334 72.9421C80.0656 72.9501 80.1542 72.8294 80.0817 72.5798C80.0362 72.4305 79.9392 72.3022 79.808 72.2176C79.6284 72.1045 79.4114 72.0669 79.2043 72.1129C78.9589 72.1861 78.7363 72.3205 78.5574 72.5036C78.3785 72.6868 78.2493 72.9125 78.1819 73.1595C77.9686 73.7126 77.894 74.3096 77.9646 74.8983C78.1175 76.1299 78.8501 77.2247 79.7517 77.4018C79.9198 77.4353 80.0934 77.4302 80.2593 77.387C80.4252 77.3438 80.5792 77.2635 80.7096 77.1523C80.8948 76.9832 80.9189 76.8464 80.8948 76.8303Z" fill="#FF9A6C"/>
<path d="M110.648 48.5191C109.706 47.8107 108.41 47.7141 107.476 46.9977C103.316 43.8042 96.6129 37.7091 90.8888 40.8959C88.7107 42.1085 85.9615 42.2125 84.0181 43.6006C83.4528 44.0475 82.9874 44.608 82.6519 45.2458C82.3164 45.8835 82.1182 46.5845 82.07 47.3036C82.07 47.3036 81.4341 46.9816 79.5021 48.5111C78.2704 49.4851 77.2642 51.5862 76.8134 53.0835C76.1452 55.3294 77.1193 57.6962 78.0772 59.8294C78.5924 60.9806 79.2364 62.2444 80.4359 62.655C81.8929 63.146 83.5029 62.0029 84.0745 60.57C84.646 59.1371 85.5476 57.6962 86.2399 56.3196C87.4474 53.9046 88.6549 51.6989 87.6648 50.1694C90.93 49.1089 93.0942 51.0056 95.9966 52.0289C97.2173 52.4594 102.143 53.276 103.5 52.9513C103.939 52.8464 104.349 52.6439 104.699 52.359C105.252 53.2599 106.124 53.9194 107.141 54.2059C108.159 54.4923 109.247 54.3848 110.189 53.9046C112.008 52.7776 112.33 49.791 110.648 48.5191Z" fill="#263238"/>
<path d="M77.4653 58.3875C77.7478 58.8294 77.9852 59.2987 78.1737 59.7882C78.3945 60.2826 78.7415 60.7102 79.18 61.0279C79.7661 61.3278 80.4411 61.405 81.0798 61.2452C81.7438 61.1164 82.3707 60.8414 82.9152 60.4402C83.3543 60.0994 83.7539 59.7106 84.1066 59.281C84.4148 58.8596 84.7568 58.4638 85.129 58.0977C84.9327 58.5852 84.6611 59.0388 84.324 59.442C83.9868 59.9161 83.5859 60.3413 83.1325 60.7059C82.5515 61.1447 81.8763 61.4424 81.1603 61.5753C80.4348 61.7551 79.6679 61.6484 79.019 61.2774C78.5341 60.9224 78.1645 60.4324 77.9564 59.8687C77.7324 59.397 77.5674 58.8995 77.4653 58.3875Z" fill="#FFD000"/>
<path d="M77.6989 63.1146C78.0674 63.394 78.474 63.619 78.9065 63.7828C79.3769 63.9318 79.8743 63.9757 80.3635 63.9116C80.9641 63.8203 81.5379 63.6007 82.046 63.2676C82.9688 62.6266 83.7521 61.805 84.3483 60.8526C84.5759 60.4394 84.8457 60.0509 85.1533 59.6934C85.0124 60.1539 84.8035 60.5907 84.5334 60.9894C83.9864 62.0378 83.1937 62.9383 82.2231 63.6137C81.6703 63.9795 81.0384 64.2085 80.3796 64.2819C79.8332 64.342 79.2805 64.2674 78.7696 64.0645C77.9485 63.6701 77.6587 63.1227 77.6989 63.1146Z" fill="#FFD000"/>
<path d="M96.7029 79.6289C96.4969 79.9662 96.3821 80.3164 96.3615 80.6697C96.3372 80.8368 96.3835 81.0047 96.4972 81.1618C96.6109 81.319 96.7894 81.4618 97.0205 81.5804C97.2599 81.7262 97.5589 81.8432 97.8964 81.9233C98.2338 82.0034 98.6015 82.0446 98.9734 82.0439C99.6443 82.0432 100.293 81.92 100.802 81.6964C101.311 81.4729 101.648 81.1636 101.752 80.8242L101.99 80.0558C100.601 79.8525 96.8061 79.6818 96.7029 79.6289Z" fill="#FF9A6C"/>
<path d="M100.948 81.1252C100.948 81.1252 100.753 81.1252 100.431 81.1411C99.9786 81.163 99.5184 81.163 99.0662 81.1411C98.4134 81.1089 97.8233 81.0007 97.4135 80.8381C96.9255 80.6348 96.6932 80.3822 96.7609 80.1285C96.7805 79.9858 96.8991 79.8462 97.1084 79.7193L96.9049 79.7485C98.3542 79.8176 99.6256 79.8734 100.524 79.9053C101.007 79.9336 101.499 79.9452 101.99 79.9399C101.532 79.884 101.054 79.8465 100.566 79.8282C99.668 79.7751 98.4136 79.7033 96.9643 79.6289H96.8287L96.7693 79.6661C96.4444 79.8636 96.3061 80.086 96.3707 80.3073C96.4353 80.5286 96.7 80.7395 97.1338 80.9152C97.6097 81.0951 98.291 81.2096 99.0323 81.2341C99.514 81.2474 99.9994 81.233 100.465 81.1916C100.639 81.1806 100.804 81.1579 100.948 81.1252Z" fill="#263238"/>
<path d="M60.4879 106.576C59.9566 106.576 52.3735 109.603 50.3771 117.041C48.3807 124.479 42.9308 151.769 42.9308 151.769L37.1428 159.787C37.1428 159.787 39.0185 174.414 49.6526 171.628C49.6526 171.628 56.7527 172.868 59.0147 165.671C61.2768 158.475 65.6641 137.005 65.6641 137.005L60.4879 106.576Z" fill="#B9B8B6"/>
<path d="M82.1472 94L78.1204 100.196L60 106.752L65.1865 160.234L63.2697 188.228C80 197.5 124.262 195.715 127 194.5C128.425 194.459 128.681 191.408 128.914 189.425C129.115 187.645 128.962 185.841 128.463 184.123L125.459 173.403C125.902 180.074 123.937 133.607 123.848 131.911L128.5 108.5C127.379 106.837 117.595 103.502 107.621 99.5154L104.399 94.5081L95.1215 101.687L82.1472 94Z" fill="#B9B8B6"/>
<path d="M128 108C128 108 131.804 111.654 132.523 114.468C133.242 117.281 148.907 149.692 148.907 149.692L156.689 151.697L158.77 155.82C159.985 158.185 160.312 160.877 159.696 163.444C159.08 166.012 157.558 168.298 155.386 169.92C155.116 170.116 154.833 170.297 154.54 170.462C150.311 172.887 142.783 172.758 138.376 167.794C134.206 163.089 122 146.176 122 146.176V125.479L128 108Z" fill="#B9B8B6"/>
<path d="M152.95 152.59L163.601 146.303L168.737 152.59L167.674 155.633L153.941 165.848C152.236 164.457 151.092 162.495 150.721 160.326C150.117 156.486 152.95 152.59 152.95 152.59Z" fill="#FFBF9D"/>
<path d="M149.569 149.337C149.569 149.442 148.66 149.337 147.324 149.788C145.597 150.385 144.068 151.446 142.904 152.855C141.754 154.295 140.806 155.885 140.087 157.581C139.815 158.307 139.478 159.008 139.08 159.674C139.188 158.901 139.405 158.147 139.724 157.436C140.357 155.646 141.291 153.977 142.485 152.501C143.707 151.009 145.361 149.932 147.219 149.418C147.979 149.167 148.794 149.139 149.569 149.337Z" fill="#263238"/>
<path d="M163.424 149.789C163.158 148.399 163.253 146.964 163.7 145.621C164.147 144.277 164.93 143.071 165.976 142.117C168.49 140.049 171.334 138.416 174.388 137.287C176.255 136.482 180.144 133.206 180.828 133.995C181.512 134.784 181.818 135.959 180.828 137.392C179.838 138.825 174.211 140.958 175 142.769C175.322 143.502 177.093 143.639 177.093 143.639C180.307 143.865 183.531 143.929 186.753 143.832C189.602 143.582 192.162 144.13 192.009 145.112C191.856 146.094 191.325 146.633 188.966 146.834C186.608 147.036 182.768 146.883 182.526 147.422C182.285 147.961 183.122 148.308 184.499 148.227C185.875 148.147 192.363 148.122 192.806 148.863C192.914 149.051 192.979 149.261 192.996 149.477C193.013 149.692 192.981 149.91 192.904 150.112C192.827 150.314 192.706 150.497 192.55 150.648C192.394 150.798 192.207 150.911 192.001 150.98L190.48 151.52C190.48 151.52 191.365 152.751 190.625 153.435C189.884 154.12 188.21 153.878 188.21 153.878L179.604 153.637C179.604 153.637 179.113 154.152 179.355 154.506C179.596 154.86 186.342 154.369 186.39 155.11C186.439 155.85 187.026 156.189 185.014 156.72C182.066 157.211 179.058 157.211 176.11 156.72C174.291 156.221 166.668 155.915 166.668 155.915L163.424 149.789Z" fill="#FFBF9D"/>
<path d="M46.4649 153.709L36.507 145.449L30.7915 151.889L31.4919 155.037L43.9372 166.758C45.7822 165.7 47.1744 164.001 47.8495 161.984C49.0892 158.434 46.4649 153.709 46.4649 153.709Z" fill="#FFBF9D"/>
<path d="M36.3943 149.747C36.8225 148.399 36.8994 146.964 36.6176 145.578C36.3359 144.192 35.7048 142.9 34.7843 141.826C32.5191 139.475 29.8704 137.526 26.9516 136.062C25.1967 135.008 21.7191 131.337 20.9382 132.037C20.4752 132.455 20.1799 133.026 20.1074 133.646C20.0348 134.265 20.1899 134.889 20.5438 135.402C21.3488 136.94 25.2289 138.727 25.092 140.699C25.0778 140.89 25.026 141.076 24.9398 141.247C24.8536 141.418 24.7346 141.57 24.5896 141.695C24.4446 141.82 24.2764 141.915 24.0946 141.975C23.9129 142.034 23.7211 142.058 23.5303 142.044C20.3183 141.896 17.1157 141.587 13.9347 141.118C11.1252 140.538 8.52508 140.78 8.55728 141.77C8.58948 142.76 9.06443 143.38 11.3828 143.839C13.7012 144.298 17.5331 144.644 17.6619 145.167C17.7907 145.69 16.9776 145.972 15.6171 145.722C14.2567 145.473 7.81668 144.708 7.29343 145.392C7.16372 145.564 7.07381 145.763 7.03018 145.974C6.98654 146.185 6.99027 146.403 7.04109 146.613C7.09191 146.822 7.18855 147.018 7.32406 147.185C7.45957 147.353 7.63057 147.488 7.82473 147.582L9.27373 148.298C9.27373 148.298 8.25138 149.417 8.90343 150.182C9.55548 150.947 11.246 150.907 11.246 150.907L19.8273 151.663C19.8273 151.663 20.254 152.235 19.9642 152.557C19.6744 152.879 13.0492 151.607 12.9123 152.34C12.7755 153.072 12.1476 153.338 14.0957 154.062C16.9698 154.895 19.9619 155.246 22.9507 155.101C24.8183 154.819 32.4336 155.366 32.4336 155.366L36.3943 149.747Z" fill="#FFBF9D"/>
<path d="M107.54 101.006C107.002 101.678 106.404 102.301 105.753 102.865C104.618 103.976 103.065 105.53 101.422 107.301C101.076 107.679 100.73 108.05 100.408 108.412L100.191 108.645L99.9894 108.396C98.7175 106.786 97.6146 105.305 96.8418 104.25C96.3881 103.714 96.0015 103.125 95.6907 102.495C96.225 102.952 96.7058 103.468 97.1236 104.033C97.9688 105.031 99.128 106.448 100.416 108.058H100.005L101.012 106.939C102.426 105.41 103.92 103.956 105.488 102.584C106.105 101.976 106.794 101.446 107.54 101.006Z" fill="#263238"/>
<path d="M61.623 120.502C61.771 120.857 61.8711 121.231 61.9209 121.613C62.0738 122.337 62.267 123.392 62.4763 124.696C62.8949 127.304 63.3377 130.927 63.708 134.936C64.0783 138.945 64.352 142.583 64.5613 145.216C64.6418 146.439 64.7223 147.478 64.7786 148.331C64.8291 148.713 64.8291 149.1 64.7786 149.482C64.6638 149.115 64.5882 148.738 64.5532 148.355C64.4405 147.622 64.3037 146.56 64.1588 145.248C63.8529 142.631 63.5148 139.001 63.1445 134.992C62.7742 130.983 62.4119 127.369 62.098 124.793C61.945 123.577 61.8162 122.539 61.7116 121.693C61.6284 121.302 61.5986 120.901 61.623 120.502Z" fill="#263238"/>
<path d="M124.606 118.676C124.721 119.132 124.789 119.599 124.808 120.068C124.896 120.978 124.993 122.282 125.073 123.908C125.258 127.128 125.347 131.636 125.363 136.579V153.09C125.389 153.56 125.37 154.032 125.307 154.498C125.202 154.039 125.151 153.569 125.154 153.098C125.089 152.188 125.025 150.876 124.977 149.258C124.864 146.038 124.824 141.53 124.816 136.587C124.808 131.644 124.767 127.161 124.687 123.924C124.647 122.387 124.614 121.099 124.59 120.085C124.552 119.615 124.557 119.144 124.606 118.676Z" fill="#263238"/>
<path d="M53.4522 165.123C53.2003 164.209 53.0147 163.279 52.8968 162.338C52.5196 160.092 51.7915 157.918 50.7394 155.898C49.6657 153.917 48.0523 152.282 46.0865 151.181C45.2411 150.777 44.3666 150.438 43.4702 150.166C43.7354 150.109 44.01 150.109 44.2752 150.166C44.9726 150.283 45.6502 150.497 46.2877 150.802C48.4029 151.857 50.1364 153.546 51.2465 155.632C52.3118 157.706 52.9884 159.957 53.2429 162.274C53.4324 163.211 53.5027 164.168 53.4522 165.123Z" fill="#263238"/>
<path d="M56.0364 154.248C55.9237 154.377 54.3217 152.727 51.7135 151.833C49.1053 150.94 46.8835 151.246 46.8352 151.077C46.7869 150.908 49.1456 150.36 51.8906 151.318C54.6357 152.276 56.1571 154.184 56.0364 154.248Z" fill="#263238"/>
<path d="M96.8901 191.656C96.8413 191.358 96.8197 191.057 96.8257 190.755C96.8257 190.119 96.8257 189.258 96.7693 188.179C96.721 185.885 96.6566 182.657 96.5761 178.688C96.391 170.638 96.1334 159.585 95.8436 147.381C95.5538 135.177 95.4008 124.076 95.4169 116.059C95.4169 112.034 95.4572 108.814 95.5055 106.56C95.5055 105.481 95.5618 104.62 95.586 103.984C95.5792 103.682 95.6008 103.38 95.6504 103.082C95.6728 103.382 95.6728 103.684 95.6504 103.984C95.6504 104.62 95.6504 105.481 95.6504 106.56C95.6504 108.854 95.6987 112.09 95.7309 116.051C95.8114 124.101 96.0448 135.137 96.3185 147.365C96.5922 159.593 96.8337 170.662 96.8981 178.68C96.8981 182.705 96.8981 185.925 96.8981 188.179C96.8981 189.258 96.8981 190.119 96.8579 190.755C96.8892 191.054 96.8999 191.356 96.8901 191.656Z" fill="#263238"/>
<path d="M45.9979 153.37C45.9979 153.305 46.8029 153.909 47.4469 155.246C47.8415 156.007 48.1287 156.82 48.3002 157.661C48.4655 158.728 48.4655 159.814 48.3002 160.881C48.18 161.949 47.8634 162.986 47.3664 163.94C46.936 164.713 46.3427 165.383 45.6276 165.904C44.9987 166.426 44.2068 166.71 43.3896 166.709C44.0971 166.416 44.7673 166.041 45.3861 165.59C46.0209 165.069 46.5439 164.426 46.9236 163.698C47.3544 162.788 47.6266 161.81 47.7286 160.808C47.8735 159.804 47.8735 158.785 47.7286 157.781C47.5903 156.952 47.3553 156.141 47.0283 155.366C46.5292 154.086 45.9174 153.418 45.9979 153.37Z" fill="#263238"/>
<path d="M155.937 166.967C155.937 166.967 155.679 166.967 155.269 166.765C154.693 166.511 154.151 166.184 153.659 165.791C151.972 164.492 150.818 162.621 150.415 160.531C150.012 158.44 150.387 156.274 151.469 154.441C151.785 153.89 152.169 153.381 152.612 152.927C152.926 152.621 153.128 152.476 153.152 152.501C153.176 152.525 152.508 153.249 151.807 154.626C150.871 156.407 150.569 158.453 150.951 160.428C151.333 162.404 152.376 164.19 153.908 165.493C155.06 166.508 155.977 166.878 155.937 166.967Z" fill="#263238"/>
<path d="M176.408 140.41C176.473 140.475 176.006 140.917 175.418 141.698C175.08 142.145 174.846 142.662 174.734 143.212C174.605 143.831 174.621 144.556 174.509 145.353C174.413 146.037 174.182 146.695 173.829 147.29C173.477 147.884 173.01 148.402 172.456 148.814C172.032 149.196 171.495 149.428 170.926 149.474C170.886 149.386 171.482 149.161 172.214 148.508C173.157 147.673 173.778 146.534 173.969 145.288C174.022 144.56 174.114 143.834 174.243 143.115C174.397 142.515 174.695 141.963 175.112 141.505C175.45 141.042 175.895 140.666 176.408 140.41Z" fill="#FF9A6C"/>
<path d="M21.1394 148.879C21.1394 149.024 18.4588 149.169 15.1502 149.008C11.8417 148.847 9.18514 148.46 9.20124 148.307C9.21734 148.155 11.8819 148.307 15.1744 148.46C18.4668 148.613 21.1394 148.718 21.1394 148.879Z" fill="#FF9A6C"/>
<path d="M27.2332 148.42C27.2332 148.477 26.5973 148.372 25.8406 147.736C25.3505 147.31 24.9606 146.781 24.699 146.187C24.4374 145.592 24.3104 144.948 24.3272 144.299C24.3845 143.612 24.5085 142.933 24.6975 142.27C24.8384 141.745 24.9061 141.203 24.8987 140.66C24.8525 140.175 24.7415 139.699 24.5687 139.243C24.5687 139.187 25.1563 139.613 25.2851 140.628C25.3502 141.198 25.3175 141.775 25.1885 142.334C25.037 142.973 24.9321 143.621 24.8746 144.274C24.8575 145.442 25.2998 146.569 26.1062 147.414C26.7261 148.138 27.2735 148.34 27.2332 148.42Z" fill="#FF9A6C"/>
<path d="M177.906 150.328C177.906 150.175 180.779 150.288 184.289 150.578C187.799 150.867 190.641 151.238 190.633 151.383C190.625 151.528 187.759 151.423 184.249 151.125C180.739 150.827 177.897 150.473 177.906 150.328Z" fill="#FF9A6C"/>
<path d="M95.0386 101.971C94.717 103.043 94.3106 104.087 93.823 105.095C93.6057 105.578 93.3803 106.101 93.1468 106.64C92.9159 107.255 92.6471 107.854 92.3418 108.435C92.2256 108.626 92.0566 108.78 91.8552 108.877C91.6538 108.974 91.4286 109.011 91.2068 108.983C90.8168 108.88 90.4541 108.693 90.1442 108.435L88.2444 107.139C85.6522 105.352 83.3258 103.702 81.6514 102.494C80.7152 101.882 79.832 101.193 79.011 100.434C80.0083 100.936 80.9639 101.518 81.8687 102.172C83.5995 103.307 85.9662 104.893 88.5583 106.688L90.4501 107.993C90.6968 108.206 90.9844 108.368 91.2953 108.468C91.4222 108.483 91.5508 108.459 91.6642 108.401C91.7776 108.342 91.8707 108.25 91.9313 108.137C92.5431 107.027 93.0502 105.827 93.5413 104.917C93.9576 103.895 94.4584 102.91 95.0386 101.971Z" fill="#263238"/>
<path d="M147.667 159.969L147.753 161.734L154.738 159.783L157.595 161.115L157.224 162.21L149.867 163.55L149.95 165.316C150.079 165.382 150.209 165.448 150.346 165.504C153.575 166.906 158.485 166.344 161.313 164.248C162.622 163.276 163.261 162.148 163.241 161.078L163.231 160.901L163.153 159.504L163.134 159.023L187.883 140.693C190.665 140.928 193.764 140.215 195.795 138.712C196.86 137.921 197.472 137.016 197.662 136.145L197.578 134.376L194.463 137.04L190.664 138.101L190.117 137.845L187.806 136.77L188.614 134.396L192.684 133.309L195.452 132.55L195.367 130.781L192.125 131.648C189.312 131.383 186.151 132.092 184.091 133.617C183.416 134.095 182.866 134.73 182.49 135.468L182.098 135.079L182.181 136.737C182.184 137.385 182.411 138.012 182.823 138.512L157.612 157.185C154.813 156.932 151.657 157.654 149.624 159.16C149.452 159.287 149.293 159.406 149.153 159.545L147.667 159.969Z" fill="#FFD000"/>
<path d="M182.736 136.754L157.526 155.427C154.721 155.173 151.583 155.882 149.535 157.399C148.47 158.19 147.861 159.092 147.67 159.968L154.658 158.016L157.514 159.34L156.705 161.719L149.87 163.544C149.998 163.606 150.128 163.672 150.264 163.728C153.494 165.13 158.405 164.572 161.234 162.475C163.265 160.967 163.672 159.089 162.544 157.625L187.799 138.92C190.583 139.153 193.683 138.44 195.714 136.936C196.779 136.145 197.387 135.243 197.581 134.37L190.596 136.32L187.738 134.994L188.546 132.615L195.382 130.803C195.254 130.74 195.126 130.677 194.988 130.618C191.759 129.216 186.849 129.778 184.02 131.874C181.966 133.382 181.571 135.287 182.736 136.754Z" fill="#FFD000"/>
<path d="M182.093 135.093L182.176 136.751C182.176 136.887 182.186 137.022 182.207 137.156L182.738 136.762C182.348 136.29 182.121 135.705 182.093 135.093Z" fill="#FFD000"/>
<path opacity="0.4" d="M182.093 135.093L182.176 136.751C182.176 136.887 182.186 137.022 182.207 137.156L182.738 136.762C182.348 136.29 182.121 135.705 182.093 135.093Z" fill="black"/>
<path d="M192.134 131.66L188.54 132.618L187.732 134.997L188.324 135.273L188.625 134.387L192.695 133.301L195.46 132.562L195.375 130.793L192.134 131.66Z" fill="#FFD000"/>
<path opacity="0.2" d="M163.229 160.9L163.151 159.503L163.138 159.486C163.09 160.507 162.458 161.571 161.216 162.489C158.39 164.588 153.476 165.144 150.247 163.742C150.11 163.685 149.98 163.62 149.853 163.557L149.936 165.324C150.065 165.389 150.195 165.455 150.332 165.511C153.561 166.913 158.47 166.351 161.299 164.255C162.608 163.283 163.247 162.155 163.227 161.085L163.229 160.9Z" fill="black"/>
<path opacity="0.2" d="M147.749 161.738L154.735 159.787L154.652 158.021L147.667 159.971L147.749 161.738Z" fill="black"/>
<path opacity="0.4" d="M154.735 159.787L154.652 158.021L157.505 159.346L157.001 160.838L154.735 159.787Z" fill="black"/>
<path opacity="0.4" d="M162.538 157.63C162.865 158.038 163.073 158.528 163.141 159.047L163.125 159.027L187.875 140.696L187.787 138.929L162.538 157.63Z" fill="black"/>
<path opacity="0.2" d="M195.793 138.71C196.858 137.919 197.469 137.014 197.66 136.143L197.575 134.374C197.39 135.259 196.775 136.152 195.708 136.94C193.676 138.449 190.577 139.156 187.793 138.924L187.88 140.691C190.662 140.926 193.762 140.213 195.793 138.71Z" fill="black"/>
<path opacity="0.4" d="M188.625 134.388L188.54 132.618L187.732 134.998L188.324 135.274L188.625 134.388Z" fill="black"/>
<path opacity="0.2" d="M195.46 132.564L195.375 130.795L188.54 132.62L188.625 134.389L195.46 132.564Z" fill="black"/>
</svg>
