<svg width="200" height="200" viewBox="0 0 200 200" fill="none" xmlns="http://www.w3.org/2000/svg">
<g clip-path="url(#clip0_752_28016)">
<path fill-rule="evenodd" clip-rule="evenodd" d="M96.6489 40.0786C72.5164 41.5624 60.8087 65.3973 46.0572 82.1754C34.101 95.7741 23.0389 109.409 20.7142 126.445C18.0291 146.122 16.4425 168.605 32.3369 182.721C48.2827 196.882 74.0361 195.809 96.6489 193.883C119.863 194.322 138.62 187.342 149.552 172.737C165.068 160.174 178.921 144.922 179.935 126.445C180.989 107.244 169.055 90.1752 154.888 75.4837C139.04 59.05 121.162 38.5713 96.6489 40.0786Z" fill="#FFF3CC"/>
<path d="M107.94 44.8647L107.07 44.8164C102.876 44.5763 98.7456 45.9237 95.4999 48.5907C92.2541 51.2577 90.1313 55.0488 89.5536 59.2099C88.4427 67.2599 89.7307 68.6774 89.5536 73.0002C89.1431 81.968 97.816 88.5002 97.816 88.5002L95.2933 94.952C95.1675 96.3825 95.3256 97.8237 95.7585 99.1929C96.1915 100.562 96.8907 101.832 97.816 102.93C98.7413 104.029 99.8745 104.933 101.151 105.592C102.426 106.251 103.82 106.651 105.251 106.769C108.103 106.998 110.93 106.096 113.123 104.259C115.316 102.422 116.698 99.796 116.972 96.9484L120.192 63.6937C121.496 54.4362 117.23 45.9515 107.94 44.8647Z" fill="#FFBF9D"/>
<path d="M98 88.5007C102.149 88.7417 106.371 87.6491 110 85.6777C110 85.6777 105.881 91.7827 97 90.5007L98 88.5007Z" fill="#FF9A6C"/>
<path d="M104.004 68.3284C103.975 68.7349 104.102 69.1368 104.357 69.447C104.613 69.7572 104.976 69.9508 105.368 69.9858C105.559 70.0133 105.753 70.0008 105.939 69.9492C106.125 69.8975 106.299 69.8078 106.451 69.6852C106.603 69.5627 106.729 69.4099 106.823 69.2358C106.917 69.0617 106.976 68.8698 106.997 68.6716C107.021 68.2663 106.892 67.8672 106.638 67.5581C106.384 67.249 106.023 67.054 105.633 67.0142C105.442 66.9867 105.248 66.9992 105.062 67.0509C104.876 67.1025 104.702 67.1922 104.55 67.3148C104.398 67.4373 104.272 67.5901 104.178 67.7642C104.084 67.9383 104.025 68.1302 104.004 68.3284Z" fill="#263238"/>
<path d="M91.212 63.701C91.3649 63.8781 92.3712 63.21 93.7477 63.2985C95.1243 63.3871 96.0984 64.1035 96.2513 63.9667C96.4043 63.8298 96.1869 63.5883 95.7683 63.2422C95.1958 62.793 94.4986 62.5316 93.7719 62.4935C93.0568 62.4539 92.3472 62.6397 91.7433 63.0248C91.3166 63.3227 91.1556 63.6125 91.212 63.701Z" fill="#263238"/>
<path d="M92.0028 68.3284C91.9789 68.7337 92.1076 69.1328 92.3621 69.4419C92.6165 69.751 92.9767 69.946 93.3671 69.9858C93.5579 70.0133 93.752 70.0008 93.938 69.9491C94.1241 69.8975 94.2982 69.8078 94.4501 69.6852C94.6021 69.5627 94.7287 69.4099 94.8226 69.2358C94.9165 69.0617 94.9756 68.8698 94.9966 68.6716C95.023 68.2657 94.8951 67.8652 94.6402 67.5556C94.3854 67.2459 94.0237 67.0516 93.6323 67.0142C93.4416 66.9867 93.2474 66.9992 93.0614 67.0509C92.8754 67.1025 92.7012 67.1922 92.5493 67.3148C92.3974 67.4373 92.2707 67.5901 92.1769 67.7642C92.083 67.9383 92.0238 68.1302 92.0028 68.3284Z" fill="#263238"/>
<path d="M104.744 64.7316C104.889 64.9087 105.903 64.2486 107.28 64.3291C108.656 64.4096 109.622 65.1341 109.783 64.9973C109.944 64.8604 109.719 64.6189 109.292 64.2728C108.724 63.8278 108.033 63.5691 107.312 63.5322C106.596 63.4864 105.885 63.6727 105.283 64.0635C104.833 64.3613 104.672 64.6511 104.744 64.7316Z" fill="#263238"/>
<path d="M99.1652 74.6567C98.4536 74.3823 97.7095 74.201 96.9514 74.1173C96.5972 74.061 96.2752 73.9724 96.2269 73.7309C96.2149 73.3658 96.3162 73.0059 96.5167 72.7005C96.9031 71.8955 97.3217 71.002 97.7162 70.0843C99.3745 66.3571 100.598 63.29 100.453 63.2256C100.308 63.1612 98.8432 66.1237 97.1688 69.8508C96.7663 70.7685 96.3638 71.646 96.0176 72.4832C95.7753 72.8956 95.6816 73.3786 95.752 73.8517C95.7956 73.9799 95.8685 74.0961 95.9649 74.1911C96.0613 74.2862 96.1786 74.3574 96.3074 74.3991C96.497 74.4654 96.6947 74.506 96.8951 74.5198C97.6438 74.6547 98.4057 74.7006 99.1652 74.6567Z" fill="#263238"/>
<path d="M104.641 60.4005C104.762 60.7788 106.146 60.6822 107.748 60.972C109.35 61.2618 110.63 61.777 110.864 61.447C110.968 61.294 110.759 60.9318 110.26 60.5373C109.583 60.0516 108.804 59.7266 107.982 59.5871C107.161 59.4476 106.318 59.4973 105.518 59.7323C104.915 59.9416 104.593 60.2153 104.641 60.4005Z" fill="#263238"/>
<path d="M91.9137 60.827C92.1311 61.149 93.0971 60.8833 94.2402 60.9316C95.3833 60.9799 96.3332 61.2617 96.5747 60.9316C96.6793 60.7787 96.5747 60.4567 96.148 60.1266C95.6025 59.7358 94.9513 59.5197 94.2804 59.5068C93.608 59.4784 92.9436 59.6614 92.3806 60.03C91.962 60.352 91.8091 60.666 91.9137 60.827Z" fill="#263238"/>
<path d="M90.6564 55.1525C90.6564 55.1525 93.337 49.6784 96.1223 48.5192C99.4872 47.1266 100.687 50.8054 103.858 50.1292C107.03 49.453 110.242 48.1006 113.293 50.6927C116.626 53.5344 114.903 55.2974 114.903 59.2821C114.855 75.4385 117.535 80.1639 118.807 72.629C118.944 71.824 121.295 71.2686 121.834 67.799C122.543 63.2749 123.034 57.7526 122.204 54.4602C121.504 51.6909 120.063 49.7187 117.374 47.4808C113.164 43.9549 107.135 43.5363 103.005 43.7134C98.8754 43.8905 90.6805 48.1006 90.6564 55.1525Z" fill="#263238"/>
<path d="M118.22 72.3236C118.247 71.9929 118.342 71.6713 118.499 71.3788C118.655 71.0864 118.871 70.8295 119.131 70.624C119.392 70.4185 119.692 70.269 120.013 70.1847C120.334 70.1004 120.669 70.0831 120.997 70.134C122.655 70.3916 124.458 71.4462 124.153 74.8916C123.605 81.0016 117.584 79.1903 117.584 79.0132C117.584 78.8361 117.97 74.8835 118.22 72.3236Z" fill="#FFBF9D"/>
<path d="M119.105 76.8303C119.105 76.8303 119.202 76.9188 119.379 77.0154C119.626 77.1475 119.914 77.1793 120.184 77.104C120.844 76.9269 121.48 75.9448 121.609 74.85C121.673 74.3266 121.617 73.7955 121.448 73.2963C121.408 73.1011 121.321 72.9186 121.195 72.7643C121.068 72.6101 120.907 72.4888 120.723 72.4108C120.604 72.3686 120.474 72.3688 120.356 72.4113C120.237 72.4538 120.136 72.5361 120.071 72.6443C119.967 72.8053 119.999 72.934 119.967 72.9421C119.934 72.9501 119.846 72.8294 119.918 72.5798C119.964 72.4305 120.061 72.3022 120.192 72.2176C120.372 72.1045 120.589 72.0669 120.796 72.1129C121.041 72.1861 121.264 72.3205 121.443 72.5036C121.621 72.6868 121.751 72.9125 121.818 73.1595C122.031 73.7126 122.106 74.3096 122.035 74.8983C121.882 76.1299 121.15 77.2247 120.248 77.4018C120.08 77.4353 119.907 77.4302 119.741 77.387C119.575 77.3438 119.421 77.2635 119.29 77.1523C119.105 76.9832 119.081 76.8464 119.105 76.8303Z" fill="#FF9A6C"/>
<path d="M89.3524 48.5191C90.2943 47.8107 91.5903 47.7141 92.5241 46.9977C96.6835 43.8042 103.387 37.7091 109.111 40.8959C111.289 42.1085 114.038 42.2125 115.982 43.6006C116.547 44.0475 117.013 44.608 117.348 45.2458C117.684 45.8835 117.882 46.5845 117.93 47.3036C117.93 47.3036 118.566 46.9816 120.498 48.5111C121.73 49.4851 122.736 51.5862 123.187 53.0835C123.855 55.3294 122.881 57.6962 121.923 59.8294C121.408 60.9806 120.764 62.2444 119.564 62.655C118.107 63.146 116.497 62.0029 115.926 60.57C115.354 59.1371 114.452 57.6962 113.76 56.3196C112.553 53.9046 111.345 51.6989 112.335 50.1694C109.07 49.1089 106.906 51.0056 104.003 52.0289C102.783 52.4594 97.8575 53.276 96.4995 52.9513C96.0607 52.8464 95.6512 52.6439 95.3014 52.359C94.7484 53.2599 93.8762 53.9194 92.8587 54.2059C91.8411 54.4923 90.753 54.3848 89.8112 53.9046C87.9919 52.7776 87.6699 49.791 89.3524 48.5191Z" fill="#263238"/>
<path d="M122.535 58.3875C122.252 58.8294 122.015 59.2987 121.826 59.7882C121.606 60.2826 121.258 60.7102 120.82 61.0279C120.234 61.3278 119.559 61.405 118.92 61.2452C118.256 61.1164 117.629 60.8414 117.085 60.4402C116.646 60.0994 116.246 59.7106 115.893 59.281C115.585 58.8596 115.243 58.4638 114.871 58.0977C115.067 58.5852 115.339 59.0388 115.676 59.442C116.013 59.9161 116.414 60.3413 116.867 60.7059C117.449 61.1447 118.124 61.4424 118.84 61.5753C119.565 61.7551 120.332 61.6484 120.981 61.2774C121.466 60.9224 121.835 60.4324 122.044 59.8687C122.268 59.397 122.433 58.8995 122.535 58.3875Z" fill="#FFD000"/>
<path d="M122.301 63.1146C121.933 63.394 121.526 63.619 121.094 63.7828C120.623 63.9318 120.126 63.9757 119.636 63.9116C119.036 63.8203 118.462 63.6007 117.954 63.2676C117.031 62.6266 116.248 61.805 115.652 60.8526C115.424 60.4394 115.154 60.0509 114.847 59.6934C114.988 60.1539 115.197 60.5907 115.467 60.9894C116.014 62.0378 116.806 62.9383 117.777 63.6137C118.33 63.9795 118.962 64.2085 119.62 64.2819C120.167 64.342 120.72 64.2674 121.23 64.0645C122.051 63.6701 122.341 63.1227 122.301 63.1146Z" fill="#FFD000"/>
<path d="M103.297 79.6289C103.503 79.9662 103.618 80.3164 103.638 80.6697C103.663 80.8368 103.617 81.0047 103.503 81.1618C103.389 81.319 103.211 81.4618 102.98 81.5804C102.74 81.7262 102.441 81.8432 102.104 81.9233C101.766 82.0034 101.398 82.0446 101.027 82.0439C100.356 82.0432 99.7074 81.92 99.1981 81.6964C98.6888 81.4729 98.3518 81.1636 98.2479 80.8242L98.0098 80.0558C99.3991 79.8525 103.194 79.6818 103.297 79.6289Z" fill="#FF9A6C"/>
<path d="M99.0522 81.1252C99.0522 81.1252 99.2472 81.1252 99.5693 81.1411C100.021 81.163 100.482 81.163 100.934 81.1411C101.587 81.1089 102.177 81.0007 102.587 80.8381C103.075 80.6348 103.307 80.3822 103.239 80.1285C103.22 79.9858 103.101 79.8462 102.892 79.7193L103.095 79.7485C101.646 79.8176 100.374 79.8734 99.476 79.9053C98.9928 79.9336 98.5011 79.9452 98.0098 79.9399C98.4676 79.884 98.9459 79.8465 99.4336 79.8282C100.332 79.7751 101.586 79.7033 103.036 79.6289H103.171L103.231 79.6661C103.556 79.8636 103.694 80.086 103.629 80.3073C103.565 80.5286 103.3 80.7395 102.866 80.9152C102.39 81.0951 101.709 81.2096 100.968 81.2341C100.486 81.2474 100.001 81.233 99.5354 81.1916C99.361 81.1806 99.1962 81.1579 99.0522 81.1252Z" fill="#263238"/>
<path d="M139.512 106.576C140.043 106.576 147.627 109.603 149.623 117.041C151.619 124.479 157.069 151.769 157.069 151.769L162.857 159.787C162.857 159.787 160.982 174.414 150.347 171.628C150.347 171.628 143.247 172.868 140.985 165.671C138.723 158.475 134.336 137.005 134.336 137.005L139.512 106.576Z" fill="#B9B8B6"/>
<path d="M117.853 94L121.88 100.196L140 106.752L134.814 160.234V185.5C115.5 197.5 77.2791 196.215 74.5409 195C73.1154 194.959 71.3195 191.408 71.0859 189.425C70.8846 187.645 71.038 185.841 71.5369 184.123L74.5409 173.403C74.0979 180.074 76.063 133.607 76.1516 131.911L71.5 108.5C73.0906 106.405 82.0743 103.291 92.3795 99.5154L95.6009 94.5081L104.879 101.687L117.853 94Z" fill="#B9B8B6"/>
<path d="M72 108C72 108 67.4544 111.654 66.7543 114.468C66.0543 117.281 50.8011 149.692 50.8011 149.692L43.2239 151.697L41.1978 155.82C40.0144 158.185 39.6959 160.877 40.2958 163.444C40.8957 166.012 42.3775 168.298 44.4922 169.92C44.7556 170.116 45.0307 170.297 45.3158 170.462C49.4339 172.887 56.764 172.758 61.055 167.794C65.1154 163.089 77 146.176 77 146.176V125.479L72 108Z" fill="#B9B8B6"/>
<path d="M47.0495 152.59L36.3993 146.303L31.2634 152.59L32.326 155.633L46.0594 165.848C47.7643 164.457 48.9081 162.495 49.2794 160.326C49.8831 156.486 47.0495 152.59 47.0495 152.59Z" fill="#FFBF9D"/>
<path d="M50.4305 149.337C50.4305 149.442 51.3402 149.337 52.6765 149.788C54.4033 150.385 55.9323 151.446 57.0959 152.855C58.2458 154.295 59.1937 155.885 59.9134 157.581C60.1847 158.307 60.5215 159.008 60.9197 159.674C60.8123 158.901 60.5955 158.147 60.2757 157.436C59.6431 155.646 58.7093 153.977 57.5145 152.501C56.2929 151.009 54.6394 149.932 52.7811 149.418C52.0213 149.167 51.2057 149.139 50.4305 149.337Z" fill="#263238"/>
<path d="M36.5764 149.789C36.8418 148.399 36.7467 146.964 36.3 145.621C35.8532 144.277 35.0698 143.071 34.0245 142.117C31.5099 140.049 28.6664 138.416 25.6122 137.287C23.7446 136.482 19.8564 133.206 19.1722 133.995C18.4879 134.784 18.182 135.959 19.1722 137.392C20.1623 138.825 25.7893 140.958 25.0004 142.769C24.6784 143.502 22.9074 143.639 22.9074 143.639C19.6927 143.865 16.4686 143.929 13.2474 143.832C10.3977 143.582 7.83777 144.13 7.99072 145.112C8.14367 146.094 8.67497 146.633 11.0336 146.834C13.3923 147.036 17.2321 146.883 17.4736 147.422C17.7151 147.961 16.8779 148.308 15.5014 148.227C14.1248 148.147 7.63652 148.122 7.19377 148.863C7.0861 149.051 7.02143 149.261 7.00446 149.477C6.98749 149.692 7.01864 149.91 7.09563 150.112C7.17262 150.314 7.29354 150.497 7.44971 150.648C7.60588 150.798 7.79341 150.911 7.99878 150.98L9.52022 151.52C9.52022 151.52 8.63472 152.751 9.37532 153.435C10.1159 154.12 11.7903 153.878 11.7903 153.878L20.3958 153.637C20.3958 153.637 20.8869 154.152 20.6454 154.506C20.4039 154.86 13.6579 154.369 13.6096 155.11C13.5613 155.85 12.9737 156.189 14.9862 156.72C17.9336 157.211 20.9421 157.211 23.8895 156.72C25.7088 156.221 33.3322 155.915 33.3322 155.915L36.5764 149.789Z" fill="#FFBF9D"/>
<path d="M153.535 153.709L163.493 145.449L169.208 151.889L168.508 155.037L156.063 166.758C154.218 165.7 152.826 164.001 152.15 161.984C150.911 158.434 153.535 153.709 153.535 153.709Z" fill="#FFBF9D"/>
<path d="M163.606 149.747C163.178 148.399 163.101 146.964 163.382 145.578C163.664 144.192 164.295 142.9 165.216 141.826C167.481 139.475 170.13 137.526 173.048 136.062C174.803 135.008 178.281 131.337 179.062 132.037C179.525 132.455 179.82 133.026 179.893 133.646C179.965 134.265 179.81 134.889 179.456 135.402C178.651 136.94 174.771 138.727 174.908 140.699C174.922 140.89 174.974 141.076 175.06 141.247C175.146 141.418 175.265 141.57 175.41 141.695C175.555 141.82 175.724 141.915 175.905 141.975C176.087 142.034 176.279 142.058 176.47 142.044C179.682 141.896 182.884 141.587 186.065 141.118C188.875 140.538 191.475 140.78 191.443 141.77C191.411 142.76 190.936 143.38 188.617 143.839C186.299 144.298 182.467 144.644 182.338 145.167C182.209 145.69 183.022 145.972 184.383 145.722C185.743 145.473 192.183 144.708 192.707 145.392C192.836 145.564 192.926 145.763 192.97 145.974C193.013 146.185 193.01 146.403 192.959 146.613C192.908 146.822 192.811 147.018 192.676 147.185C192.54 147.353 192.369 147.488 192.175 147.582L190.726 148.298C190.726 148.298 191.749 149.417 191.097 150.182C190.445 150.947 188.754 150.907 188.754 150.907L180.173 151.663C180.173 151.663 179.746 152.235 180.036 152.557C180.326 152.879 186.951 151.607 187.088 152.34C187.225 153.072 187.852 153.338 185.904 154.062C183.03 154.895 180.038 155.246 177.049 155.101C175.182 154.819 167.566 155.366 167.566 155.366L163.606 149.747Z" fill="#FFBF9D"/>
<path d="M92.4597 101.006C92.9982 101.678 93.5964 102.301 94.2468 102.865C95.3819 103.976 96.9355 105.53 98.5777 107.301C98.9239 107.679 99.27 108.05 99.592 108.412L99.8094 108.645L100.011 108.396C101.283 106.786 102.385 105.305 103.158 104.25C103.612 103.714 103.999 103.125 104.309 102.495C103.775 102.952 103.294 103.468 102.876 104.033C102.031 105.031 100.872 106.448 99.584 108.058H99.9945L98.9883 106.939C97.5736 105.41 96.0796 103.956 94.5125 102.584C93.8949 101.976 93.2056 101.446 92.4597 101.006Z" fill="#263238"/>
<path d="M138.377 120.502C138.229 120.857 138.129 121.231 138.079 121.613C137.926 122.337 137.733 123.392 137.524 124.696C137.105 127.304 136.662 130.927 136.292 134.936C135.922 138.945 135.648 142.583 135.439 145.216C135.358 146.439 135.278 147.478 135.221 148.331C135.171 148.713 135.171 149.1 135.221 149.482C135.336 149.115 135.412 148.738 135.447 148.355C135.559 147.622 135.696 146.56 135.841 145.248C136.147 142.631 136.485 139.001 136.856 134.992C137.226 130.983 137.588 127.369 137.902 124.793C138.055 123.577 138.184 122.539 138.288 121.693C138.372 121.302 138.401 120.901 138.377 120.502Z" fill="#263238"/>
<path d="M75.3936 118.676C75.2787 119.132 75.2112 119.599 75.1924 120.068C75.1038 120.978 75.0072 122.282 74.9267 123.908C74.7416 127.128 74.653 131.636 74.6369 136.579V153.09C74.6111 153.56 74.6299 154.032 74.6933 154.498C74.7976 154.039 74.8489 153.569 74.8462 153.098C74.9106 152.188 74.975 150.876 75.0233 149.258C75.136 146.038 75.1763 141.53 75.1843 136.587C75.1924 131.644 75.2326 127.161 75.3131 123.924C75.3534 122.387 75.3856 121.099 75.4097 120.085C75.4479 119.615 75.4425 119.144 75.3936 118.676Z" fill="#263238"/>
<path d="M146.548 165.123C146.8 164.209 146.985 163.279 147.103 162.338C147.48 160.092 148.208 157.918 149.261 155.898C150.334 153.917 151.948 152.282 153.914 151.181C154.759 150.777 155.633 150.438 156.53 150.166C156.265 150.109 155.99 150.109 155.725 150.166C155.027 150.283 154.35 150.497 153.712 150.802C151.597 151.857 149.864 153.546 148.753 155.632C147.688 157.706 147.012 159.957 146.757 162.274C146.568 163.211 146.497 164.168 146.548 165.123Z" fill="#263238"/>
<path d="M143.964 154.248C144.076 154.377 145.678 152.727 148.286 151.833C150.895 150.94 153.116 151.246 153.165 151.077C153.213 150.908 150.854 150.36 148.109 151.318C145.364 152.276 143.843 154.184 143.964 154.248Z" fill="#263238"/>
<path d="M103.11 191.656C103.159 191.358 103.18 191.057 103.174 190.755C103.174 190.119 103.174 189.258 103.231 188.179C103.279 185.885 103.343 182.657 103.424 178.688C103.609 170.638 103.867 159.585 104.156 147.381C104.446 135.177 104.599 124.076 104.583 116.059C104.583 112.034 104.543 108.814 104.495 106.56C104.495 105.481 104.438 104.62 104.414 103.984C104.421 103.682 104.399 103.38 104.35 103.082C104.327 103.382 104.327 103.684 104.35 103.984C104.35 104.62 104.35 105.481 104.35 106.56C104.35 108.854 104.301 112.09 104.269 116.051C104.189 124.101 103.955 135.137 103.681 147.365C103.408 159.593 103.166 170.662 103.102 178.68C103.102 182.705 103.102 185.925 103.102 188.179C103.102 189.258 103.102 190.119 103.142 190.755C103.111 191.054 103.1 191.356 103.11 191.656Z" fill="#263238"/>
<path d="M154.002 153.37C154.002 153.305 153.197 153.909 152.553 155.246C152.158 156.007 151.871 156.82 151.7 157.661C151.534 158.728 151.534 159.814 151.7 160.881C151.82 161.949 152.137 162.986 152.634 163.94C153.064 164.713 153.657 165.383 154.372 165.904C155.001 166.426 155.793 166.71 156.61 166.709C155.903 166.416 155.233 166.041 154.614 165.59C153.979 165.069 153.456 164.426 153.076 163.698C152.646 162.788 152.373 161.81 152.271 160.808C152.127 159.804 152.127 158.785 152.271 157.781C152.41 156.952 152.645 156.141 152.972 155.366C153.471 154.086 154.083 153.418 154.002 153.37Z" fill="#263238"/>
<path d="M44.0629 166.967C44.0629 166.967 44.3205 166.967 44.7311 166.765C45.3074 166.511 45.8485 166.184 46.3411 165.791C48.0279 164.492 49.1816 162.621 49.5849 160.531C49.9882 158.44 49.6133 156.274 48.5307 154.441C48.2152 153.89 47.8311 153.381 47.3876 152.927C47.0736 152.621 46.8724 152.476 46.8482 152.501C46.8241 152.525 47.4922 153.249 48.1926 154.626C49.129 156.407 49.4312 158.453 49.0493 160.428C48.6674 162.404 47.6242 164.19 46.0915 165.493C44.9404 166.508 44.0227 166.878 44.0629 166.967Z" fill="#263238"/>
<path d="M23.5917 140.41C23.5273 140.475 23.9942 140.917 24.5818 141.698C24.9199 142.145 25.1537 142.662 25.2661 143.212C25.3949 143.831 25.3788 144.556 25.4915 145.353C25.5874 146.037 25.8182 146.695 26.1706 147.29C26.523 147.884 26.9899 148.402 27.5443 148.814C27.9679 149.196 28.5053 149.428 29.0738 149.474C29.114 149.386 28.5183 149.161 27.7858 148.508C26.8427 147.673 26.2218 146.534 26.0308 145.288C25.9778 144.56 25.8865 143.834 25.7572 143.115C25.6031 142.515 25.3046 141.963 24.8877 141.505C24.5496 141.042 24.1051 140.666 23.5917 140.41Z" fill="#FF9A6C"/>
<path d="M178.861 148.879C178.861 149.024 181.541 149.169 184.85 149.008C188.158 148.847 190.815 148.46 190.799 148.307C190.783 148.155 188.118 148.307 184.826 148.46C181.533 148.613 178.861 148.718 178.861 148.879Z" fill="#FF9A6C"/>
<path d="M172.767 148.42C172.767 148.477 173.403 148.372 174.159 147.736C174.65 147.31 175.039 146.781 175.301 146.187C175.563 145.592 175.69 144.948 175.673 144.299C175.615 143.612 175.491 142.933 175.303 142.27C175.162 141.745 175.094 141.203 175.101 140.66C175.148 140.175 175.259 139.699 175.431 139.243C175.431 139.187 174.844 139.613 174.715 140.628C174.65 141.198 174.683 141.775 174.811 142.334C174.963 142.973 175.068 143.621 175.125 144.274C175.143 145.442 174.7 146.569 173.894 147.414C173.274 148.138 172.727 148.34 172.767 148.42Z" fill="#FF9A6C"/>
<path d="M22.0945 150.328C22.0945 150.175 19.2206 150.288 15.7108 150.578C12.201 150.867 9.35932 151.238 9.36737 151.383C9.37542 151.528 12.2412 151.423 15.751 151.125C19.2609 150.827 22.1025 150.473 22.0945 150.328Z" fill="#FF9A6C"/>
<path d="M104.961 101.971C105.283 103.043 105.689 104.087 106.177 105.095C106.394 105.578 106.62 106.101 106.853 106.64C107.084 107.255 107.353 107.854 107.658 108.435C107.774 108.626 107.943 108.78 108.145 108.877C108.346 108.974 108.571 109.011 108.793 108.983C109.183 108.88 109.546 108.693 109.856 108.435L111.756 107.139C114.348 105.352 116.674 103.702 118.349 102.494C119.285 101.882 120.168 101.193 120.989 100.434C119.992 100.936 119.036 101.518 118.131 102.172C116.401 103.307 114.034 104.893 111.442 106.688L109.55 107.993C109.303 108.206 109.016 108.368 108.705 108.468C108.578 108.483 108.449 108.459 108.336 108.401C108.222 108.342 108.129 108.25 108.069 108.137C107.457 107.027 106.95 105.827 106.459 104.917C106.042 103.895 105.542 102.91 104.961 101.971Z" fill="#263238"/>
<path d="M16.804 171.615C16.1539 176.37 16.4585 181.206 17.7 185.842C18.1005 187.343 18.6411 188.765 19.0015 190.257C19.3633 191.551 19.4402 192.909 19.2268 194.236C18.9547 195.416 18.4209 196.52 17.665 197.465C16.2884 199.297 14.246 200.744 13.7354 203.077C13.2599 205.224 13.405 208.223 14.9318 209.955C15.092 210.135 14.8267 210.4 14.6665 210.22C13.385 208.763 13.0797 206.531 13.1648 204.659C13.1863 203.69 13.3777 202.733 13.7304 201.83C14.1609 200.794 14.9919 199.988 15.7327 199.167C16.6988 198.192 17.5395 197.101 18.2356 195.918C18.9608 194.473 19.1744 192.825 18.8414 191.243C18.4919 189.677 18.0574 188.131 17.5398 186.613C17.1092 185.12 16.7747 183.602 16.5387 182.067C16.0074 178.572 15.9787 175.019 16.4536 171.515C16.4886 171.28 16.849 171.38 16.819 171.615H16.804Z" fill="#263238"/>
<path d="M65 128.834L61.6611 144.517L54.9433 141.439L54.0973 139.546L50.9937 138.956L52.976 129.645L55.9395 130.246L57.4663 128.984L65 128.834Z" fill="#263238"/>
<path d="M25.2387 146.085C25.2387 146.085 20.9137 159.636 20.4431 161.488C19.9726 163.34 20.283 164.632 18.4659 164.677C16.6487 164.722 13.6302 164.677 13.1447 163.546C12.6591 162.414 13.7554 159.992 13.9907 157.874C14.2259 155.757 16.1782 145.189 16.4936 143.673C16.8089 142.156 18.631 142.461 18.9414 140.669C19.2518 138.877 17.4397 135.854 17.4397 135.854C17.4397 135.854 27.2811 137.711 27.196 137.926C27.1109 138.141 24.5729 140.058 24.9233 142.156C25.2738 144.253 26.365 143.182 25.2387 146.085Z" fill="#263238"/>
<path d="M18.6562 163.479L17.4599 171.989C17.4599 171.989 15.6778 172.129 15.6928 171.919C15.7078 171.709 14.5465 163.449 14.5465 163.449L18.6562 163.479Z" fill="#263238"/>
<path d="M50.0378 129.48C50.0378 129.48 53.4918 130.291 53.7271 130.261L51.9099 138.826L48.2207 138.04H48.0054L49.8425 129.385L50.0378 129.48Z" fill="#263238"/>
<path d="M10.5569 119.193C10.5569 119.193 10.9473 119.093 11.5981 118.953L11.8534 118.903C12.8545 118.743 16.7591 118.623 22.741 125C28.3475 130.967 28.2124 136.248 27.9421 138.09C25.1716 138.283 22.3932 137.85 19.8126 136.824C12.0586 133.82 8.1691 130.416 8.1691 130.416C7.223 124.91 10.5569 119.193 10.5569 119.193Z" fill="#263238"/>
<path d="M22.7411 125C16.7341 118.623 12.8396 118.743 11.8534 118.903C14.1511 118.428 19.0818 117.597 23.0865 118.228C28.5028 119.078 34.1693 121.947 34.1693 121.947L49.8425 129.385L48.0054 138.015H42.5491C35.6811 137.104 31.6865 137.91 27.9421 138.086C28.2124 136.248 28.3476 130.967 22.7411 125Z" fill="#263238"/>
<path d="M54.0823 139.446C54.5383 137.926 54.911 136.382 55.1986 134.821C55.5701 133.278 55.8575 131.715 56.0596 130.141C55.6028 131.661 55.2301 133.205 54.9433 134.766C54.5684 136.309 54.2809 137.871 54.0823 139.446Z" fill="#455A64"/>
<path d="M52.9612 129.641C52.5131 131.121 52.1471 132.625 51.8649 134.146C51.4993 135.654 51.2185 137.182 51.0239 138.721C51.4726 137.241 51.8386 135.737 52.1202 134.216C52.483 132.707 52.7637 131.18 52.9612 129.641Z" fill="#455A64"/>
<path d="M13.5452 133.82C13.6943 133.97 13.8626 134.1 14.0458 134.206C14.4955 134.536 14.9617 134.843 15.4425 135.127C18.6346 137.023 22.2454 138.103 25.9547 138.27C26.5116 138.298 27.0696 138.298 27.6266 138.27C27.832 138.273 28.037 138.251 28.2373 138.205C28.2373 138.16 27.3663 138.205 25.9647 138.085C22.3102 137.814 18.7587 136.75 15.5576 134.966C14.2811 134.261 13.5703 133.755 13.5452 133.82Z" fill="#455A64"/>
<path d="M9.14513 131.008C9.21521 131.008 9.84594 128.345 10.5518 125.001C11.2576 121.657 11.7732 118.994 11.7031 118.959C11.633 118.924 11.0023 121.627 10.2965 124.966C9.59064 128.305 9.10007 130.993 9.14513 131.008Z" fill="#455A64"/>
<path d="M35.5277 146.629C35.8095 148.015 35.7326 149.45 35.3044 150.798L31.3438 156.417C31.3438 156.417 29.8184 153.498 26.9101 153.5C28.9606 151.593 26.9101 151.499 26.9101 148.55C26.9101 145.8 26.3131 143.872 24.5 142C24.3427 140.927 22.5779 139.334 21.4076 138.386C20.568 137.705 19.7715 137.06 19.4539 136.453C19.1 135.94 18.9449 135.315 19.0175 134.696C19.09 134.077 19.3854 133.506 19.8483 133.088C20.3504 132.638 21.9673 133.995 23.5243 135.301C24.389 136.027 25.2351 136.737 25.8617 137.113C28.7806 138.576 31.4292 140.525 33.6944 142.877C34.6149 143.951 35.246 145.242 35.5277 146.629Z" fill="#FFBF9D"/>
<path d="M183.292 120.738H179.328V126.102H183.292V120.738Z" fill="#E0E0E0"/>
<path d="M183.295 126.103C183.281 125.968 183.274 125.832 183.276 125.696C183.276 125.416 183.276 125.051 183.256 124.587C183.256 123.619 183.234 122.3 183.218 120.739L183.295 120.813H179.328C179.312 120.813 179.489 120.655 179.412 120.73V122.203C179.412 122.681 179.412 123.148 179.412 123.6C179.412 124.5 179.412 125.338 179.412 126.096L179.341 126.029L182.205 126.064L183.011 126.08C183.198 126.08 183.301 126.08 183.308 126.08C183.219 126.093 183.13 126.098 183.04 126.096L182.247 126.112L179.344 126.148H179.276V126.077C179.276 125.319 179.276 124.48 179.276 123.581C179.276 123.129 179.276 122.661 179.276 122.184C179.276 121.942 179.276 121.7 179.276 121.455V120.717L179.36 120.633H183.327H183.405V120.71C183.405 122.294 183.379 123.635 183.369 124.609C183.369 125.061 183.353 125.425 183.347 125.7C183.338 125.835 183.321 125.97 183.295 126.103Z" fill="#263238"/>
<path d="M181.312 138.326C185.038 138.326 188.059 135.305 188.059 131.579C188.059 127.853 185.038 124.832 181.312 124.832C177.585 124.832 174.564 127.853 174.564 131.579C174.564 135.305 177.585 138.326 181.312 138.326Z" fill="#E0E0E0"/>
<path d="M188.058 131.579C188.048 131.543 188.043 131.506 188.042 131.469L188.02 131.146C188.013 130.973 187.993 130.8 187.958 130.63C187.928 130.396 187.88 130.164 187.813 129.937C187.655 129.308 187.403 128.707 187.065 128.153C186.62 127.42 186.04 126.777 185.356 126.26C184.529 125.631 183.565 125.205 182.543 125.019C181.371 124.802 180.161 124.904 179.041 125.312C178.742 125.42 178.451 125.549 178.17 125.696C177.886 125.852 177.613 126.027 177.354 126.222C177.088 126.42 176.836 126.635 176.599 126.867C176.367 127.109 176.151 127.368 175.954 127.641C175.541 128.197 175.219 128.817 175.003 129.476C174.546 130.836 174.546 132.308 175.003 133.668C175.219 134.327 175.541 134.947 175.954 135.504C176.152 135.776 176.367 136.034 176.599 136.278C176.837 136.509 177.091 136.725 177.357 136.923C177.616 137.118 177.889 137.294 178.173 137.448C178.455 137.595 178.746 137.724 179.044 137.832C180.092 138.215 181.22 138.329 182.324 138.163C183.428 137.997 184.472 137.558 185.362 136.884C186.045 136.366 186.624 135.724 187.068 134.991C187.405 134.437 187.659 133.836 187.82 133.207C187.884 132.98 187.931 132.748 187.962 132.514C187.996 132.344 188.017 132.171 188.023 131.998C188.023 131.866 188.039 131.759 188.045 131.675C188.046 131.638 188.052 131.601 188.062 131.566C188.065 131.602 188.065 131.639 188.062 131.675C188.062 131.756 188.062 131.862 188.062 131.998C188.062 132.172 188.047 132.346 188.016 132.517C187.992 132.755 187.949 132.99 187.887 133.22C187.737 133.859 187.49 134.471 187.155 135.036C186.354 136.403 185.098 137.445 183.607 137.982C182.117 138.519 180.485 138.516 178.996 137.974C178.69 137.865 178.393 137.734 178.106 137.584C177.813 137.426 177.533 137.247 177.267 137.048C176.995 136.85 176.737 136.635 176.493 136.403C176.251 136.155 176.026 135.89 175.822 135.61C175.399 135.04 175.073 134.405 174.855 133.73C174.627 133.034 174.508 132.307 174.5 131.575C174.509 130.843 174.629 130.117 174.855 129.421C175.074 128.746 175.401 128.111 175.822 127.541C176.026 127.262 176.251 126.997 176.493 126.75C176.736 126.518 176.995 126.303 177.267 126.105C177.533 125.907 177.813 125.728 178.106 125.57C178.393 125.419 178.69 125.289 178.996 125.18C180.485 124.642 182.116 124.641 183.605 125.177C185.095 125.714 186.351 126.754 187.155 128.118C187.49 128.683 187.737 129.295 187.887 129.934C187.949 130.164 187.992 130.399 188.016 130.637C188.047 130.808 188.062 130.982 188.062 131.156C188.062 131.292 188.062 131.398 188.062 131.479C188.064 131.512 188.062 131.545 188.058 131.579Z" fill="#263238"/>
<path d="M188.01 166.64C183.063 167.865 178.535 168.023 174.613 166.64V131.953H188.01V166.64Z" fill="#3C474C"/>
<path d="M183.179 123.895C183.179 123.914 183.005 123.918 182.779 123.773C182.63 123.677 182.508 123.545 182.424 123.389C182.34 123.233 182.297 123.059 182.299 122.882C182.301 122.705 182.347 122.531 182.435 122.377C182.522 122.223 182.647 122.094 182.798 122.002C183.027 121.86 183.201 121.87 183.201 121.886C183.201 121.902 183.053 121.947 182.879 122.099C182.755 122.189 182.655 122.307 182.585 122.443C182.515 122.579 182.478 122.729 182.476 122.882C182.474 123.035 182.507 123.187 182.574 123.324C182.641 123.462 182.738 123.582 182.859 123.676C183.03 123.831 183.185 123.869 183.179 123.895Z" fill="#263238"/>
<path d="M187.126 130.755C187.097 130.755 187.094 130.468 187.014 130.02C186.803 128.846 186.206 127.775 185.317 126.979C184.978 126.675 184.737 126.521 184.753 126.498C184.99 126.587 185.209 126.719 185.398 126.888C186.36 127.661 186.982 128.779 187.133 130.004C187.175 130.253 187.173 130.507 187.126 130.755Z" fill="white"/>
<path d="M188.01 141.918C188.002 141.985 187.985 142.05 187.958 142.111C187.901 142.294 187.828 142.471 187.739 142.64C187.401 143.261 186.966 143.823 186.449 144.305C185.7 145.032 184.864 145.664 183.959 146.185C182.94 146.788 181.702 147.207 180.463 147.72C179.275 148.151 178.15 148.74 177.119 149.471C176.29 150.085 175.618 150.887 175.158 151.81C174.849 152.432 174.673 153.112 174.638 153.806C174.638 154.296 174.674 154.567 174.638 154.57C174.617 154.507 174.604 154.441 174.6 154.374C174.573 154.184 174.559 153.994 174.558 153.803C174.569 153.095 174.731 152.397 175.035 151.758C175.49 150.808 176.167 149.981 177.009 149.349C178.047 148.601 179.183 148.001 180.386 147.565C181.637 147.049 182.859 146.636 183.866 146.049C184.764 145.541 185.597 144.927 186.349 144.221C186.863 143.751 187.306 143.207 187.662 142.608C187.753 142.444 187.834 142.274 187.904 142.099C187.934 142.036 187.97 141.975 188.01 141.918Z" fill="#FFD000"/>
<path d="M188.01 144.621C187.983 144.854 187.911 145.08 187.797 145.285C187.484 145.846 187.042 146.323 186.507 146.679C185.728 147.214 184.878 147.638 183.982 147.94C182.982 148.301 181.856 148.604 180.702 148.988C179.608 149.319 178.57 149.812 177.622 150.449C176.856 150.98 176.199 151.653 175.687 152.432C175.342 152.959 175.093 153.542 174.951 154.155C174.913 154.321 174.884 154.489 174.864 154.658C174.861 154.718 174.85 154.778 174.832 154.835C174.824 154.775 174.824 154.715 174.832 154.655C174.836 154.482 174.856 154.311 174.89 154.142C175.006 153.513 175.241 152.912 175.584 152.371C176.088 151.568 176.745 150.872 177.519 150.323C178.474 149.668 179.525 149.164 180.634 148.83C181.798 148.443 182.924 148.143 183.917 147.795C184.804 147.503 185.647 147.095 186.427 146.582C186.951 146.241 187.392 145.787 187.717 145.253C187.83 145.05 187.928 144.839 188.01 144.621Z" fill="#FFD000"/>
<path d="M185.888 159.38C185.884 159.315 185.884 159.251 185.888 159.186C185.888 159.047 185.888 158.864 185.888 158.641C185.888 158.161 185.869 157.483 185.856 156.641L185.91 156.696C183.811 156.716 180.586 156.725 176.98 156.725L177.064 156.641V158.035C177.064 158.493 177.064 158.941 177.064 159.373L176.983 159.293L183.343 159.331L185.22 159.354H185.73H185.914C185.859 159.362 185.804 159.362 185.749 159.354H185.259L183.401 159.376L176.983 159.415H176.903V159.331C176.903 158.899 176.903 158.451 176.903 157.993V156.648C177.07 156.48 176.951 156.603 176.986 156.564C180.592 156.564 183.817 156.564 185.917 156.596H185.972V156.648C185.972 157.503 185.949 158.19 185.943 158.68C185.943 158.899 185.943 159.076 185.943 159.212C185.929 159.269 185.91 159.325 185.888 159.38Z" fill="#263238"/>
<path d="M188.01 166.64C188.01 166.64 188.01 166.582 188.01 166.469C188.01 166.356 188.01 166.185 188.01 165.966C188.01 165.521 188.01 164.872 188.01 164.031C188.01 162.341 188.01 159.886 187.987 156.806C187.987 150.646 187.968 141.97 187.952 131.953L188.033 132.034H174.613L174.697 131.95V132.043C174.697 145.644 174.677 157.925 174.671 166.637L174.632 166.582C176.421 167.193 178.295 167.519 180.186 167.549C181.609 167.579 183.033 167.493 184.443 167.295C185.604 167.137 186.491 166.943 187.094 166.824L187.775 166.672L188.01 166.624L187.784 166.685L187.104 166.856C186.501 166.985 185.614 167.178 184.453 167.359C183.04 167.569 181.613 167.664 180.186 167.643C178.283 167.613 176.396 167.287 174.593 166.675H174.555V166.633C174.555 157.925 174.538 145.641 174.529 132.04V131.879H188.091V131.96C188.091 142.009 188.065 150.688 188.055 156.861C188.055 159.935 188.039 162.383 188.033 164.069C188.033 164.901 188.033 165.547 188.033 165.988C188.033 166.204 188.033 166.369 188.033 166.482C188.028 166.535 188.02 166.588 188.01 166.64Z" fill="#263238"/>
<path d="M187.881 166.465H174.803C174.399 166.465 174.071 166.793 174.071 167.197V167.226C174.071 167.63 174.399 167.958 174.803 167.958H187.881C188.285 167.958 188.613 167.63 188.613 167.226V167.197C188.613 166.793 188.285 166.465 187.881 166.465Z" fill="#E0E0E0"/>
<path d="M187.884 167.957C187.987 167.945 188.087 167.918 188.181 167.877C188.312 167.812 188.42 167.709 188.491 167.582C188.562 167.455 188.594 167.309 188.581 167.164C188.575 167.061 188.547 166.961 188.498 166.871C188.449 166.781 188.38 166.702 188.297 166.642C188.203 166.571 188.092 166.528 187.975 166.516C187.859 166.516 187.717 166.516 187.578 166.516H185.698L174.803 166.542C174.685 166.542 174.57 166.574 174.47 166.635C174.369 166.695 174.287 166.783 174.232 166.887C174.178 166.99 174.151 167.106 174.154 167.223C174.157 167.339 174.189 167.453 174.248 167.554C174.306 167.655 174.39 167.738 174.491 167.794C174.592 167.851 174.707 167.88 174.822 167.877H178.473L183.369 167.896L186.672 167.922L187.571 167.938L186.672 167.954L183.369 167.98L178.473 167.999H175.571H174.835C174.692 168.002 174.55 167.967 174.424 167.897C174.298 167.828 174.193 167.726 174.119 167.603C174.045 167.477 174.004 167.335 174 167.19C173.996 167.044 174.03 166.9 174.097 166.771C174.172 166.652 174.276 166.554 174.4 166.487C174.523 166.419 174.662 166.385 174.803 166.387L185.698 166.413H187.578C187.72 166.413 187.846 166.413 187.984 166.413C188.115 166.43 188.238 166.481 188.342 166.561C188.503 166.688 188.61 166.872 188.638 167.075C188.667 167.278 188.617 167.484 188.497 167.651C188.419 167.756 188.314 167.838 188.194 167.89C188.1 167.943 187.992 167.966 187.884 167.957Z" fill="#FFD000"/>
<path d="M188.01 131.952H174.564V117.642C174.564 117.436 174.604 117.233 174.682 117.043C174.761 116.853 174.875 116.68 175.02 116.535C175.165 116.389 175.337 116.274 175.527 116.195C175.717 116.116 175.92 116.075 176.125 116.074H186.446C186.86 116.074 187.257 116.239 187.55 116.531C187.843 116.824 188.007 117.221 188.007 117.635L188.01 131.952Z" fill="#FFD000"/>
<path d="M188.01 131.953C188.01 131.953 188.01 131.898 188.01 131.801C188.01 131.704 188.01 131.546 188.01 131.359C188.01 130.969 188.01 130.392 187.994 129.682C187.994 128.224 187.994 126.134 187.965 123.554C187.965 122.264 187.965 120.845 187.965 119.326C187.965 118.949 187.965 118.562 187.965 118.168C188.007 117.781 187.958 117.389 187.823 117.023C187.652 116.666 187.347 116.39 186.975 116.256C186.784 116.189 186.583 116.16 186.381 116.169H177.496C177.015 116.169 176.528 116.169 176.045 116.169C175.811 116.182 175.585 116.25 175.383 116.368C175.181 116.486 175.01 116.649 174.884 116.846C174.707 117.13 174.625 117.463 174.648 117.797V120.874C174.648 122.222 174.648 123.535 174.648 124.812C174.648 127.366 174.648 129.766 174.648 131.953L174.577 131.882L184.314 131.92L187.046 131.936H187.771H188.023C188.023 131.936 187.946 131.936 187.788 131.936H187.075L184.359 131.956L174.577 131.991H174.506V131.92C174.506 129.734 174.506 127.334 174.506 124.78V120.874C174.506 120.2 174.506 119.519 174.506 118.833V117.797C174.481 117.43 174.574 117.064 174.771 116.752C174.911 116.534 175.102 116.353 175.326 116.222C175.55 116.092 175.802 116.016 176.061 116.001C176.561 116.001 177.028 116.001 177.522 116.001H180.366H185.743H186.388C186.607 115.994 186.825 116.027 187.033 116.098C187.236 116.171 187.423 116.285 187.582 116.431C187.742 116.577 187.871 116.753 187.962 116.949C188.052 117.14 188.103 117.347 188.113 117.559C188.113 117.765 188.113 117.962 188.113 118.158C188.113 118.555 188.113 118.942 188.113 119.326C188.113 120.855 188.113 122.277 188.113 123.577C188.113 126.157 188.091 128.26 188.081 129.705C188.081 130.421 188.081 130.979 188.081 131.366C188.081 131.549 188.081 131.688 188.081 131.795C188.065 131.85 188.041 131.903 188.01 131.953Z" fill="#263238"/>
<path d="M175.903 131.41C175.854 131.41 175.819 128.459 175.819 124.821C175.819 121.183 175.854 118.229 175.903 118.229C175.951 118.229 175.987 121.18 175.987 124.821C175.987 128.462 175.948 131.41 175.903 131.41Z" fill="white"/>
<path d="M175.387 147.452C175.338 147.452 175.303 144.62 175.303 141.124C175.303 137.628 175.338 134.793 175.387 134.793C175.435 134.793 175.471 137.628 175.471 141.124C175.471 144.62 175.432 147.452 175.387 147.452Z" fill="white"/>
<path d="M175.051 164.555C175.006 164.555 174.968 162.74 174.968 160.501C174.968 158.263 175.006 156.447 175.051 156.447C175.097 156.447 175.135 158.263 175.135 160.501C175.135 162.74 175.1 164.555 175.051 164.555Z" fill="white"/>
<path d="M165.605 141.238C164.986 142.51 164.702 143.919 164.78 145.332L167.213 151.761C167.213 151.761 169.419 149.315 172.234 150.044C170.725 147.685 172.734 148.106 173.47 145.251C174.157 142.587 175.216 140.87 177.439 139.51C177.86 138.51 179.966 137.408 181.336 136.782C182.319 136.333 183.251 135.907 183.711 135.398C184.181 134.99 184.487 134.424 184.572 133.806C184.656 133.189 184.513 132.561 184.169 132.042C183.795 131.48 181.891 132.39 180.057 133.267C179.038 133.753 178.042 134.229 177.341 134.438C174.149 135.126 171.098 136.352 168.317 138.063C167.158 138.873 166.224 139.966 165.605 141.238Z" fill="#FFBF9D"/>
</g>
<defs>
<clipPath id="clip0_752_28016">
<rect width="200" height="200" fill="white"/>
</clipPath>
</defs>
</svg>
