<svg width="200" height="200" viewBox="0 0 200 200" fill="none" xmlns="http://www.w3.org/2000/svg">
<path fill-rule="evenodd" clip-rule="evenodd" d="M95.3511 40.0786C119.484 41.5624 131.191 65.3973 145.943 82.1754C157.899 95.7741 168.961 109.409 171.286 126.445C173.971 146.122 175.558 168.605 159.663 182.721C143.717 196.882 117.964 195.809 95.3511 193.883C72.1366 194.322 53.3796 187.342 42.4481 172.737C26.9316 160.174 13.0786 144.922 12.0648 126.445C11.0113 107.244 22.9446 90.1752 37.1121 75.4837C52.9597 59.05 70.8381 38.5713 95.3511 40.0786Z" fill="#FFF3CC"/>
<path d="M30.3735 118.635L79.0913 156.228C79.37 156.443 79.5518 156.76 79.5968 157.109C79.6417 157.458 79.5462 157.81 79.3312 158.089L78.7908 158.789C78.5758 159.068 78.2589 159.25 77.9099 159.295C77.5608 159.34 77.2082 159.244 76.9296 159.029L28.2118 121.436L30.3735 118.635Z" fill="#455A64"/>
<path d="M54.4832 102.412C54.9222 102.221 19.8598 108.27 17.1964 148.456C17.1964 148.456 19.521 134.54 29.8383 123.107C31.3139 124.308 34.9209 127.016 34.9209 127.016L37.4133 123.806L32.6471 119.768C36.5848 115.258 45.0058 106.534 54.4832 102.412Z" fill="#E0E0E0"/>
<path d="M54.4831 102.412C54.4831 102.412 54.3328 102.493 54.0287 102.638L52.6983 103.277C51.0274 104.142 49.4068 105.101 47.8443 106.149C43.786 108.85 38.3452 113.39 32.7109 119.836L32.6847 119.711L37.4552 123.748L37.5269 123.809L37.4703 123.884L34.9779 127.094L34.9179 127.174L34.8375 127.114L29.7506 123.207L29.8935 123.177C27.3353 126.031 25.1103 129.167 23.2615 132.525C22.7841 133.398 22.2989 134.276 21.8714 135.192C21.4438 136.109 21.0119 137.026 20.5932 137.963C19.7827 139.872 19.0711 141.822 18.4609 143.804C17.979 145.336 17.5849 146.894 17.2806 148.47L17.0497 148.446C17.32 144.11 18.0492 139.815 19.2249 135.633C20.3352 131.757 21.9184 128.032 23.9386 124.543C25.7521 121.4 27.938 118.487 30.4489 115.867C32.6268 113.596 35.0291 111.551 37.619 109.764C41.3465 107.18 45.4139 105.126 49.7053 103.659C51.2198 103.144 52.4185 102.825 53.2332 102.637C53.6412 102.52 54.0599 102.445 54.4831 102.412C54.3792 102.426 54.2764 102.447 54.1757 102.476C53.9635 102.521 53.6518 102.586 53.2448 102.671C52.4328 102.872 51.2368 103.203 49.7336 103.73C45.4653 105.228 41.4196 107.297 37.7068 109.881C35.1322 111.673 32.744 113.719 30.5784 115.989C28.0858 118.603 25.9162 121.506 24.1164 124.637C22.1233 128.118 20.5635 131.83 19.4718 135.689C18.3023 139.856 17.5773 144.135 17.3091 148.455L17.0661 148.438C17.372 146.852 17.7686 145.284 18.254 143.743C18.8697 141.752 19.5853 139.792 20.3981 137.873C20.8168 136.936 21.2164 135.994 21.6788 135.093C22.1412 134.192 22.5949 133.292 23.0767 132.419C24.9341 129.048 27.1705 125.9 29.7422 123.037L29.8075 122.96L29.8887 123.024L34.967 126.934L34.8241 126.964L37.3174 123.758L37.3454 123.892L32.5861 119.844L32.5153 119.787L32.5772 119.715C38.2383 113.267 43.7044 108.741 47.7984 106.059C49.3703 105.019 51.0032 104.074 52.6884 103.23L54.0329 102.614L54.4831 102.412Z" fill="#263238"/>
<mask id="mask0_752_26149" style="mask-type:alpha" maskUnits="userSpaceOnUse" x="12" y="40" width="161" height="155">
<path fill-rule="evenodd" clip-rule="evenodd" d="M95.3511 40.0786C119.484 41.5624 131.191 65.3973 145.943 82.1754C157.899 95.7741 168.961 109.409 171.286 126.445C173.971 146.122 175.558 168.605 159.663 182.721C143.717 196.882 117.964 195.809 95.3511 193.883C72.1366 194.322 53.3796 187.342 42.4481 172.737C26.9316 160.174 13.0786 144.922 12.0648 126.445C11.0113 107.244 22.9446 90.1752 37.1121 75.4837C52.9597 59.05 70.8381 38.5713 95.3511 40.0786Z" fill="#FFF3CC"/>
</mask>
<g mask="url(#mask0_752_26149)">
<path d="M268.148 72.3369L170.71 71.793L157.004 119.467L114.97 136.587L98.0936 126.567L83.085 137.417H-141.307L-166.063 72.6375L-238 71.793L-237.048 189.986L-232.833 190.001H266.724L268.148 72.3369Z" fill="#AD9452"/>
<g opacity="0.3">
<path d="M160.905 105.895C160.905 105.895 167.855 102.489 192.397 115.98C216.939 129.471 242.046 124.933 247.507 122.149C251.759 120.139 256.153 118.445 260.655 117.082V122.156C260.655 122.156 247.235 125.857 234.245 130.695C221.254 135.533 202.617 126.937 190.085 120.224C177.553 113.511 157.004 119.472 157.004 119.472L160.905 105.895Z" fill="white"/>
</g>
<path d="M138.174 108.186C136.742 103.555 142.855 95.9185 142.575 94.7733L113.46 91.3164C113.46 91.6957 113.961 101.523 112.2 104.049C110.44 106.575 97.5711 112.129 99.203 127.024C99.203 127.024 114.841 136.943 114.949 136.564C115.056 136.185 143.892 124.776 143.892 124.776C145.08 117.29 143.005 113.962 138.174 108.186Z" fill="#455A64"/>
<path d="M142.593 94.7999C143.012 91.925 136.82 88.6426 128.762 87.4686C120.704 86.2945 113.833 87.6734 113.414 90.5483C112.995 93.4233 119.188 96.7057 127.245 97.8797C135.303 99.0538 142.175 97.6749 142.593 94.7999Z" fill="#455A64"/>
<g opacity="0.3">
<path d="M141.23 94.3865C140.943 96.3833 134.788 97.142 127.552 96.0827C120.317 95.0235 114.627 92.5543 114.92 90.5574C115.213 88.5606 121.361 87.8019 128.605 88.8612C135.848 89.9204 141.523 92.3968 141.23 94.3865Z" fill="black"/>
</g>
<path d="M134.13 123.461C135.018 123.236 135.869 122.884 136.656 122.416C137.5 121.891 138.23 121.202 138.804 120.39C139.515 119.416 139.939 118.261 140.026 117.058C140.113 115.854 139.861 114.651 139.297 113.584C138.862 112.697 138.25 111.908 137.501 111.265C136.79 110.693 136.002 110.223 135.161 109.869C135.407 109.889 135.649 109.949 135.876 110.048C136.522 110.286 137.125 110.629 137.658 111.064C138.462 111.706 139.121 112.511 139.591 113.426C140.187 114.549 140.459 115.815 140.378 117.084C140.269 118.348 139.816 119.558 139.068 120.583C138.47 121.422 137.702 122.124 136.814 122.645C136.219 122.989 135.571 123.23 134.896 123.36C134.649 123.441 134.389 123.475 134.13 123.461Z" fill="#263238"/>
<path d="M113.925 97.2997C112.611 97.1002 111.268 97.2901 110.061 97.846C108.853 98.4019 107.836 99.2993 107.133 100.427C105.773 102.703 106.238 106.454 107.849 108.544L110.934 106.396C110.531 105.875 110.271 105.257 110.179 104.605C110.087 103.952 110.167 103.287 110.411 102.675C111.313 100.714 113.911 101.616 113.911 101.616L113.925 97.2997Z" fill="#455A64"/>
<path d="M142.447 95.6108C142.387 95.7016 142.315 95.7835 142.232 95.8541C142.012 96.0735 141.772 96.2723 141.516 96.4482C140.581 97.1002 139.54 97.5846 138.439 97.8796C136.803 98.3065 135.119 98.5253 133.429 98.5309C131.371 98.5402 129.316 98.3943 127.281 98.0943C125.244 97.8111 123.235 97.3538 121.276 96.7273C119.664 96.2392 118.109 95.5794 116.638 94.7591C115.646 94.1861 114.778 93.4223 114.083 92.5117C113.897 92.2643 113.734 92.0009 113.596 91.7244C113.54 91.631 113.499 91.5296 113.474 91.4238C113.474 91.4238 113.696 91.8103 114.19 92.4258C114.911 93.2777 115.782 93.9908 116.759 94.53C118.229 95.3057 119.774 95.9315 121.369 96.3981C123.316 97.003 125.31 97.4458 127.331 97.7222C129.345 98.0199 131.378 98.1753 133.414 98.1874C135.075 98.1988 136.731 98.009 138.346 97.6219C139.431 97.3546 140.467 96.9174 141.416 96.3265C141.664 96.1602 141.903 95.981 142.132 95.7897C142.228 95.7157 142.334 95.6555 142.447 95.6108Z" fill="#263238"/>
<path d="M139.119 101.931C139.119 101.931 139.068 102.009 138.932 102.145C138.745 102.344 138.536 102.521 138.31 102.675C137.483 103.258 136.56 103.692 135.583 103.956C134.139 104.337 132.653 104.532 131.16 104.536C129.337 104.549 127.516 104.42 125.713 104.149C123.908 103.904 122.129 103.5 120.395 102.94C118.967 102.508 117.589 101.922 116.287 101.194C115.408 100.682 114.639 100.001 114.025 99.1895C113.863 98.9633 113.719 98.7239 113.596 98.4738C113.548 98.3917 113.514 98.3022 113.496 98.209C113.496 98.209 113.696 98.5454 114.14 99.0893C114.782 99.8405 115.556 100.469 116.423 100.943C117.72 101.63 119.085 102.182 120.496 102.589C122.219 103.122 123.983 103.515 125.77 103.763C127.553 104.025 129.351 104.161 131.153 104.171C132.62 104.181 134.083 104.016 135.511 103.677C136.472 103.442 137.39 103.058 138.231 102.539C138.457 102.394 138.675 102.237 138.882 102.067C139.033 101.974 139.111 101.916 139.119 101.931Z" fill="#263238"/>
<path d="M138.703 103.483C138.651 103.563 138.588 103.635 138.517 103.698C138.333 103.895 138.129 104.073 137.909 104.228C137.098 104.808 136.192 105.241 135.232 105.509C133.808 105.889 132.341 106.086 130.866 106.096C129.07 106.103 127.275 105.971 125.498 105.702C123.717 105.451 121.962 105.044 120.252 104.485C118.847 104.048 117.494 103.46 116.216 102.732C115.357 102.22 114.608 101.544 114.011 100.742C113.854 100.515 113.715 100.276 113.596 100.027C113.548 99.9445 113.514 99.855 113.496 99.7617C113.496 99.7617 113.696 100.098 114.126 100.635C114.749 101.381 115.503 102.007 116.352 102.481C117.627 103.17 118.97 103.724 120.36 104.135C122.056 104.671 123.794 105.066 125.556 105.316C127.312 105.576 129.084 105.715 130.859 105.731C132.305 105.735 133.747 105.567 135.153 105.23C136.096 104.992 136.995 104.606 137.816 104.085C138.042 103.946 138.258 103.791 138.46 103.619C138.533 103.56 138.615 103.514 138.703 103.483Z" fill="#263238"/>
<g opacity="0.2">
<path d="M134.974 115.887C134.574 114.62 133.421 113.532 132.112 113.661L132.04 114.133C132.104 114.849 132.863 115.235 133.3 115.801C133.579 116.181 133.72 116.644 133.7 117.115C133.681 117.586 133.502 118.036 133.192 118.392C132.999 118.606 132.763 118.778 132.584 119C132.485 119.105 132.414 119.234 132.379 119.375C132.344 119.515 132.346 119.662 132.384 119.802C132.462 119.959 132.593 120.085 132.753 120.156C132.914 120.228 133.094 120.242 133.264 120.195C133.6 120.089 133.893 119.879 134.101 119.594C134.543 119.097 134.854 118.498 135.006 117.851C135.159 117.204 135.148 116.529 134.974 115.887Z" fill="black"/>
</g>
<path d="M132.24 120.589C132.721 120.365 133.179 120.095 133.607 119.781C134.095 119.389 134.471 118.876 134.698 118.293C134.925 117.71 134.996 117.078 134.903 116.46C134.812 115.781 134.506 115.149 134.03 114.656C133.631 114.255 133.139 113.96 132.598 113.797C132.085 113.678 131.557 113.632 131.031 113.661C131.543 113.418 132.129 113.377 132.67 113.547C133.343 113.7 133.953 114.057 134.417 114.569C134.88 115.082 135.175 115.724 135.261 116.41C135.367 117.086 135.283 117.779 135.019 118.411C134.755 119.042 134.321 119.589 133.765 119.988C133.337 120.351 132.801 120.563 132.24 120.589Z" fill="#263238"/>
<g opacity="0.2">
<path d="M107.534 108.029C107.32 107.737 107.146 107.417 107.019 107.078L110.254 104.98C110.349 105.288 110.469 105.587 110.611 105.875L107.534 108.029Z" fill="black"/>
</g>
<g opacity="0.2">
<path d="M112.573 97.2148C112.664 98.6138 112.664 100.017 112.573 101.416L113.217 101.466C113.217 101.466 113.718 97.8304 113.703 97.2292C113.739 97.2292 113.439 97.2148 112.573 97.2148Z" fill="black"/>
</g>
<path d="M113.396 93.084C113.486 93.4114 113.544 93.7471 113.568 94.086C113.653 94.7373 113.761 95.6749 113.811 96.8487C113.884 98.2276 113.783 99.6103 113.51 100.964C113.188 102.648 112.417 104.214 111.277 105.495C110.656 106.118 109.967 106.67 109.223 107.141C108.507 107.606 107.849 108.042 107.248 108.515C106.176 109.358 105.201 110.318 104.342 111.378C102.91 113.181 102.152 114.434 102.087 114.398C102.218 114.084 102.381 113.784 102.574 113.503C103.044 112.707 103.565 111.942 104.134 111.213C104.984 110.126 105.957 109.142 107.033 108.279C108.235 107.291 109.803 106.532 111.005 105.273C112.093 104.038 112.834 102.536 113.152 100.921C113.439 99.598 113.564 98.2449 113.525 96.8916C113.525 95.7321 113.439 94.7874 113.403 94.1361C113.373 93.7861 113.371 93.4343 113.396 93.084Z" fill="#263238"/>
<g opacity="0.2">
<path d="M111.198 109.925C110.812 109.152 109.932 108.787 108.751 109.409C106.748 110.835 105.06 112.658 103.793 114.765C102.526 116.872 101.706 119.218 101.386 121.655C101.204 122.682 101.273 123.738 101.586 124.733C101.745 125.229 102.032 125.675 102.42 126.023C102.807 126.372 103.28 126.61 103.791 126.715C104.375 126.757 104.958 126.625 105.468 126.336C105.977 126.047 106.39 125.614 106.654 125.091C107.163 124.031 107.383 122.856 107.291 121.684C107.205 120.521 107.205 119.354 107.291 118.191C107.472 116.736 108.088 115.369 109.058 114.269C109.686 113.674 110.277 113.041 110.826 112.373C111.095 112.032 111.271 111.627 111.336 111.198C111.401 110.769 111.354 110.33 111.198 109.925Z" fill="white"/>
</g>
<path d="M114.87 94.8965C115.044 95.4255 115.133 95.9786 115.135 96.5355C115.221 97.8824 115.13 99.2348 114.863 100.558C114.598 101.878 114.163 103.158 113.567 104.365C113.353 104.889 113.053 105.372 112.68 105.797C113.461 104.096 114.07 102.322 114.498 100.501C114.806 98.6493 114.931 96.7722 114.87 94.8965Z" fill="white"/>
<path d="M115.299 89.0407C115.357 89.1338 114.884 89.4916 114.634 90.1429C114.383 90.7942 114.469 91.374 114.369 91.4026C114.269 91.4312 113.975 90.7871 114.29 90.007C114.605 89.2268 115.271 88.9405 115.299 89.0407Z" fill="white"/>
<path d="M108.836 99.906C108.901 99.999 108.214 100.507 107.72 101.388C107.226 102.268 107.112 103.112 107.004 103.105C106.934 102.779 106.933 102.442 107 102.115C107.068 101.789 107.204 101.48 107.398 101.209C107.949 100.235 108.801 99.8273 108.836 99.906Z" fill="white"/>
<path d="M103.211 114.807C102.269 116.492 101.547 118.291 101.064 120.16C100.717 122.048 100.609 123.971 100.742 125.886C100.546 125.344 100.437 124.773 100.42 124.197C100.304 122.809 100.398 121.412 100.699 120.053C100.997 118.694 101.494 117.387 102.173 116.174C102.442 115.664 102.792 115.202 103.211 114.807Z" fill="white"/>
<path d="M165.099 137.417C166.846 137.417 168.262 136 168.262 134.253C168.262 132.506 166.846 131.09 165.099 131.09C163.352 131.09 161.936 132.506 161.936 134.253C161.936 136 163.352 137.417 165.099 137.417Z" fill="#938141"/>
<path d="M23.9022 180.065C25.6494 180.065 27.0657 178.649 27.0657 176.902C27.0657 175.155 25.6494 173.738 23.9022 173.738C22.1551 173.738 20.7388 175.155 20.7388 176.902C20.7388 178.649 22.1551 180.065 23.9022 180.065Z" fill="#938141"/>
<path d="M38.2453 170.446C38.2453 170.82 38.1345 171.185 37.9268 171.496C37.7192 171.807 37.4241 172.049 37.0789 172.192C36.7336 172.335 36.3537 172.372 35.9872 172.299C35.6206 172.226 35.284 172.046 35.0197 171.782C34.7555 171.518 34.5755 171.181 34.5026 170.815C34.4297 170.448 34.4671 170.068 34.6101 169.723C34.7531 169.378 34.9953 169.083 35.3061 168.875C35.6168 168.667 35.9821 168.557 36.3558 168.557C36.8569 168.557 37.3375 168.756 37.6919 169.11C38.0462 169.464 38.2453 169.945 38.2453 170.446Z" fill="#938141"/>
<path d="M-237.048 146.428C-237.048 146.428 -202.465 147.537 -183.119 150.006C-163.773 152.476 -120.329 152.805 -107.847 153.249C-95.3647 153.692 -54.2325 149.283 -38.5439 151.101C-22.8554 152.919 31.5963 153.893 48.6161 153.191C65.6358 152.49 79.9573 148.646 83.679 148.933C87.4008 149.219 141.029 150.665 160.69 151.166C180.351 151.667 190.793 150.257 203.633 148.918C216.473 147.58 266.874 148.51 266.874 148.51V161.973L121.719 156.512L-237.277 161.973L-237.048 146.428Z" fill="#938141"/>
<path d="M-237 184.615C-237 184.615 -199.247 180.453 -179.482 185.512C-159.718 190.572 -115.351 191.278 -102.601 192.19C-89.8524 193.102 -47.847 184.042 -31.8266 187.778C-15.8061 191.514 39.8217 193.514 57.1951 192.072C74.5685 190.631 89.2073 182.733 92.987 183.247C96.7666 183.762 151.557 186.822 171.643 187.851C191.73 188.881 202.424 185.983 215.46 183.218C228.495 180.453 266.671 182.909 266.728 185.498C266.785 188.086 267 198 267 198H-236.95L-237 184.615Z" fill="#938141"/>
<path d="M99.2029 127.046C99.6538 133.602 103.168 141.568 108.815 146.807H135.125C140.192 141.633 142.998 132.679 143.384 125.229L114.97 136.587L99.2029 127.046Z" fill="#938141"/>
<path d="M-232.833 71.7922C-232.833 71.7922 -232.446 71.7922 -231.68 71.7922H-228.295L-215.161 71.9282L-166.056 72.4936H-165.977V72.5724L-141.192 137.338L-141.335 137.237H13.9753H83.0564H82.949L97.9791 126.387L98.0721 126.323L98.1723 126.38L115.042 136.4H114.891L156.933 119.302L156.84 119.402C161.85 102.067 166.423 86.1352 170.567 71.735V71.6348H170.667L235.969 71.9926L253.719 72.1071L258.343 72.1501H259.91H253.719L235.969 72.1071L170.667 71.8709L170.796 71.7708C166.666 86.1781 162.093 102.117 157.112 119.452V119.531H157.04L115.013 136.658H114.934L114.863 136.615L97.9862 126.595H98.1795L83.1494 137.445H83.0993H13.961H-141.35H-141.457L-141.5 137.345C-150.876 112.788 -159.271 90.7659 -166.171 72.7083L-166.063 72.7799L-215.169 72.1071L-228.295 71.9139L-231.68 71.8495L-232.833 71.7922Z" fill="#263238"/>
</g>
<path d="M92.0601 44.8647L92.9295 44.8164C97.1236 44.5763 101.254 45.9237 104.5 48.5907C107.746 51.2577 109.869 55.0488 110.446 59.2099C111.557 67.2599 108.823 69.6774 109 74.0002C109.411 82.968 102.184 88.5002 102.184 88.5002L104.707 94.952C104.833 96.3825 104.674 97.8237 104.241 99.1929C103.809 100.562 103.109 101.832 102.184 102.93C101.259 104.029 100.125 104.933 98.8495 105.592C97.5735 106.251 96.1799 106.651 94.7488 106.769C91.8972 106.998 89.07 106.096 86.8772 104.259C84.6845 102.422 83.302 99.796 83.028 96.9484L79.808 63.6937C78.5039 54.4362 82.7704 45.9515 92.0601 44.8647Z" fill="#FFBF9D"/>
<path d="M102 88.5007C97.8507 88.7417 93.6289 87.6491 90 85.6777C90 85.6777 94.1185 91.7827 103 90.5007L102 88.5007Z" fill="#FF9A6C"/>
<path d="M95.996 68.3284C96.0248 68.7349 95.8978 69.1368 95.6425 69.447C95.3872 69.7572 95.0242 69.9508 94.632 69.9858C94.4413 70.0133 94.2472 70.0008 94.0612 69.9492C93.8752 69.8975 93.7011 69.8078 93.5492 69.6852C93.3973 69.5627 93.2706 69.4099 93.1768 69.2358C93.083 69.0617 93.0238 68.8698 93.0028 68.6716C92.9789 68.2663 93.1076 67.8672 93.362 67.5581C93.6163 67.249 93.9765 67.054 94.3668 67.0142C94.5575 66.9867 94.7516 66.9992 94.9376 67.0509C95.1236 67.1025 95.2977 67.1922 95.4496 67.3148C95.6015 67.4373 95.7282 67.5901 95.822 67.7642C95.9158 67.9383 95.975 68.1302 95.996 68.3284Z" fill="#263238"/>
<path d="M108.788 63.701C108.635 63.8781 107.629 63.21 106.252 63.2985C104.876 63.3871 103.902 64.1035 103.749 63.9667C103.596 63.8298 103.813 63.5883 104.232 63.2422C104.804 62.793 105.501 62.5316 106.228 62.4935C106.943 62.4539 107.653 62.6397 108.257 63.0248C108.683 63.3227 108.844 63.6125 108.788 63.701Z" fill="#263238"/>
<path d="M107.997 68.3284C108.021 68.7337 107.892 69.1328 107.638 69.4419C107.384 69.751 107.023 69.946 106.633 69.9858C106.442 70.0133 106.248 70.0008 106.062 69.9491C105.876 69.8975 105.702 69.8078 105.55 69.6852C105.398 69.5627 105.271 69.4099 105.177 69.2358C105.084 69.0617 105.024 68.8698 105.003 68.6716C104.977 68.2657 105.105 67.8652 105.36 67.5556C105.615 67.2459 105.976 67.0516 106.368 67.0142C106.558 66.9867 106.753 66.9992 106.939 67.0509C107.125 67.1025 107.299 67.1922 107.451 67.3148C107.603 67.4373 107.729 67.5901 107.823 67.7642C107.917 67.9383 107.976 68.1302 107.997 68.3284Z" fill="#263238"/>
<path d="M95.256 64.7316C95.1111 64.9087 94.0968 64.2486 92.7202 64.3291C91.3437 64.4096 90.3777 65.1341 90.2167 64.9973C90.0557 64.8604 90.2811 64.6189 90.7077 64.2728C91.2758 63.8278 91.9674 63.5691 92.688 63.5322C93.4038 63.4864 94.1152 63.6727 94.7166 64.0635C95.1674 64.3613 95.3284 64.6511 95.256 64.7316Z" fill="#263238"/>
<path d="M100.835 74.6567C101.546 74.3823 102.29 74.201 103.049 74.1173C103.403 74.061 103.725 73.9724 103.773 73.7309C103.785 73.3658 103.684 73.0059 103.483 72.7005C103.097 71.8955 102.678 71.002 102.284 70.0843C100.626 66.3571 99.4019 63.29 99.5468 63.2256C99.6917 63.1612 101.157 66.1237 102.831 69.8508C103.234 70.7685 103.636 71.646 103.982 72.4832C104.225 72.8956 104.318 73.3786 104.248 73.8517C104.204 73.9799 104.132 74.0961 104.035 74.1911C103.939 74.2862 103.821 74.3574 103.693 74.3991C103.503 74.4654 103.305 74.506 103.105 74.5198C102.356 74.6547 101.594 74.7006 100.835 74.6567Z" fill="#263238"/>
<path d="M95.359 60.4005C95.2383 60.7788 93.8537 60.6822 92.2517 60.972C90.6498 61.2618 89.3698 61.777 89.1364 61.447C89.0317 61.294 89.241 60.9318 89.7401 60.5373C90.4173 60.0516 91.1963 59.7266 92.0179 59.5871C92.8395 59.4476 93.6821 59.4973 94.4816 59.7323C95.0853 59.9416 95.4073 60.2153 95.359 60.4005Z" fill="#263238"/>
<path d="M108.086 60.827C107.869 61.149 106.903 60.8833 105.76 60.9316C104.617 60.9799 103.667 61.2617 103.425 60.9316C103.321 60.7787 103.425 60.4567 103.852 60.1266C104.397 59.7358 105.049 59.5197 105.72 59.5068C106.392 59.4784 107.056 59.6614 107.619 60.03C108.038 60.352 108.191 60.666 108.086 60.827Z" fill="#263238"/>
<path d="M109.344 55.1525C109.344 55.1525 106.663 49.6784 103.878 48.5192C100.513 47.1266 99.3133 50.8054 96.1416 50.1292C92.9699 49.453 89.7579 48.1006 86.707 50.6927C83.3743 53.5344 85.097 55.2974 85.097 59.2821C85.1453 75.4385 82.4646 80.1639 81.1927 72.629C81.0559 71.824 78.7052 71.2686 78.1659 67.799C77.4575 63.2749 76.9664 57.7526 77.7956 54.4602C78.4959 51.6909 79.9369 49.7187 82.6256 47.4808C86.8358 43.9549 92.8652 43.5363 96.9949 43.7134C101.125 43.8905 109.319 48.1006 109.344 55.1525Z" fill="#263238"/>
<path d="M81.7803 72.3236C81.7532 71.9929 81.6583 71.6713 81.5014 71.3788C81.3446 71.0864 81.1291 70.8295 80.8685 70.624C80.6079 70.4185 80.3078 70.269 79.9868 70.1847C79.6658 70.1004 79.331 70.0831 79.003 70.134C77.3447 70.3916 75.5415 71.4462 75.8474 74.8916C76.3948 81.0016 82.4162 79.1903 82.4162 79.0132C82.4162 78.8361 82.0298 74.8835 81.7803 72.3236Z" fill="#FFBF9D"/>
<path d="M80.8948 76.8303C80.8948 76.8303 80.7982 76.9188 80.6211 77.0154C80.3742 77.1475 80.0858 77.1793 79.8161 77.104C79.156 76.9269 78.52 75.9448 78.3912 74.85C78.3275 74.3266 78.3825 73.7955 78.5522 73.2963C78.5923 73.1011 78.6792 72.9186 78.8054 72.7643C78.9316 72.6101 79.0933 72.4888 79.2767 72.4108C79.3957 72.3686 79.5255 72.3688 79.6444 72.4113C79.7632 72.4538 79.8637 72.5361 79.9288 72.6443C80.0334 72.8053 80.0012 72.934 80.0334 72.9421C80.0656 72.9501 80.1542 72.8294 80.0817 72.5798C80.0362 72.4305 79.9392 72.3022 79.808 72.2176C79.6284 72.1045 79.4114 72.0669 79.2043 72.1129C78.9589 72.1861 78.7363 72.3205 78.5574 72.5036C78.3785 72.6868 78.2493 72.9125 78.1819 73.1595C77.9686 73.7126 77.894 74.3096 77.9646 74.8983C78.1175 76.1299 78.8501 77.2247 79.7517 77.4018C79.9198 77.4353 80.0934 77.4302 80.2593 77.387C80.4252 77.3438 80.5792 77.2635 80.7096 77.1523C80.8948 76.9832 80.9189 76.8464 80.8948 76.8303Z" fill="#FF9A6C"/>
<path d="M110.648 48.5191C109.706 47.8107 108.41 47.7141 107.476 46.9977C103.316 43.8042 96.6129 37.7091 90.8888 40.8959C88.7107 42.1085 85.9615 42.2125 84.0181 43.6006C83.4528 44.0475 82.9874 44.608 82.6519 45.2458C82.3164 45.8835 82.1182 46.5845 82.07 47.3036C82.07 47.3036 81.4341 46.9816 79.5021 48.5111C78.2704 49.4851 77.2642 51.5862 76.8134 53.0835C76.1452 55.3294 77.1193 57.6962 78.0772 59.8294C78.5924 60.9806 79.2364 62.2444 80.4359 62.655C81.8929 63.146 83.5029 62.0029 84.0745 60.57C84.646 59.1371 85.5476 57.6962 86.2399 56.3196C87.4474 53.9046 88.6549 51.6989 87.6648 50.1694C90.93 49.1089 93.0942 51.0056 95.9966 52.0289C97.2173 52.4594 102.143 53.276 103.5 52.9513C103.939 52.8464 104.349 52.6439 104.699 52.359C105.252 53.2599 106.124 53.9194 107.141 54.2059C108.159 54.4923 109.247 54.3848 110.189 53.9046C112.008 52.7776 112.33 49.791 110.648 48.5191Z" fill="#263238"/>
<path d="M77.4653 58.3875C77.7478 58.8294 77.9852 59.2987 78.1737 59.7882C78.3945 60.2826 78.7415 60.7102 79.18 61.0279C79.7661 61.3278 80.4411 61.405 81.0798 61.2452C81.7438 61.1164 82.3707 60.8414 82.9152 60.4402C83.3543 60.0994 83.7539 59.7106 84.1066 59.281C84.4148 58.8596 84.7568 58.4638 85.129 58.0977C84.9327 58.5852 84.6611 59.0388 84.324 59.442C83.9868 59.9161 83.5859 60.3413 83.1325 60.7059C82.5515 61.1447 81.8763 61.4424 81.1603 61.5753C80.4348 61.7551 79.6679 61.6484 79.019 61.2774C78.5341 60.9224 78.1645 60.4324 77.9564 59.8687C77.7324 59.397 77.5674 58.8995 77.4653 58.3875Z" fill="#FFD000"/>
<path d="M77.6989 63.1146C78.0674 63.394 78.474 63.619 78.9065 63.7828C79.3769 63.9318 79.8743 63.9757 80.3635 63.9116C80.9641 63.8203 81.5379 63.6007 82.046 63.2676C82.9688 62.6266 83.7521 61.805 84.3483 60.8526C84.5759 60.4394 84.8457 60.0509 85.1533 59.6934C85.0124 60.1539 84.8035 60.5907 84.5334 60.9894C83.9864 62.0378 83.1937 62.9383 82.2231 63.6137C81.6703 63.9795 81.0384 64.2085 80.3796 64.2819C79.8332 64.342 79.2805 64.2674 78.7696 64.0645C77.9485 63.6701 77.6587 63.1227 77.6989 63.1146Z" fill="#FFD000"/>
<path d="M96.7029 79.6289C96.4969 79.9662 96.3821 80.3164 96.3615 80.6697C96.3372 80.8368 96.3835 81.0047 96.4972 81.1618C96.6109 81.319 96.7894 81.4618 97.0205 81.5804C97.2599 81.7262 97.5589 81.8432 97.8964 81.9233C98.2338 82.0034 98.6015 82.0446 98.9734 82.0439C99.6443 82.0432 100.293 81.92 100.802 81.6964C101.311 81.4729 101.648 81.1636 101.752 80.8242L101.99 80.0558C100.601 79.8525 96.8061 79.6818 96.7029 79.6289Z" fill="#FF9A6C"/>
<path d="M100.948 81.1252C100.948 81.1252 100.753 81.1252 100.431 81.1411C99.9786 81.163 99.5184 81.163 99.0662 81.1411C98.4134 81.1089 97.8233 81.0007 97.4135 80.8381C96.9255 80.6348 96.6932 80.3822 96.7609 80.1285C96.7805 79.9858 96.8991 79.8462 97.1084 79.7193L96.9049 79.7485C98.3542 79.8176 99.6256 79.8734 100.524 79.9053C101.007 79.9336 101.499 79.9452 101.99 79.9399C101.532 79.884 101.054 79.8465 100.566 79.8282C99.668 79.7751 98.4136 79.7033 96.9643 79.6289H96.8287L96.7693 79.6661C96.4444 79.8636 96.3061 80.086 96.3707 80.3073C96.4353 80.5286 96.7 80.7395 97.1338 80.9152C97.6097 81.0951 98.291 81.2096 99.0323 81.2341C99.514 81.2474 99.9994 81.233 100.465 81.1916C100.639 81.1806 100.804 81.1579 100.948 81.1252Z" fill="#263238"/>
<path d="M60.4879 106.576C59.9566 106.576 52.3735 109.603 50.3771 117.041C48.3807 124.479 42.9308 151.769 42.9308 151.769L37.1428 159.787C37.1428 159.787 39.0185 174.414 49.6526 171.628C49.6526 171.628 56.7527 172.868 59.0147 165.671C61.2768 158.475 65.6641 137.005 65.6641 137.005L60.4879 106.576Z" fill="#B9B8B6"/>
<path d="M82.1472 94L78.1204 100.196L60 106.752L65.1865 160.234L63.2697 188.228C80 197.5 124.262 195.715 127 194.5C128.425 194.459 128.681 191.408 128.914 189.425C129.115 187.645 128.962 185.841 128.463 184.123L125.459 173.403C125.902 180.074 123.937 133.607 123.848 131.911L128.5 108.5C127.379 106.837 117.595 103.502 107.621 99.5154L104.399 94.5081L95.1215 101.687L82.1472 94Z" fill="#B9B8B6"/>
<path d="M128 108C128 108 131.804 111.654 132.523 114.468C133.242 117.281 148.907 149.692 148.907 149.692L156.689 151.697L158.77 155.82C159.985 158.185 160.312 160.877 159.696 163.444C159.08 166.012 157.558 168.298 155.386 169.92C155.116 170.116 154.833 170.297 154.54 170.462C150.311 172.887 142.783 172.758 138.376 167.794C134.206 163.089 122 146.176 122 146.176V125.479L128 108Z" fill="#B9B8B6"/>
<path d="M152.95 152.59L163.601 146.303L168.737 152.59L167.674 155.633L153.941 165.848C152.236 164.457 151.092 162.495 150.721 160.326C150.117 156.486 152.95 152.59 152.95 152.59Z" fill="#FFBF9D"/>
<path d="M149.569 149.337C149.569 149.442 148.66 149.337 147.324 149.788C145.597 150.385 144.068 151.446 142.904 152.855C141.754 154.295 140.806 155.885 140.087 157.581C139.815 158.307 139.478 159.008 139.08 159.674C139.188 158.901 139.405 158.147 139.724 157.436C140.357 155.646 141.291 153.977 142.485 152.501C143.707 151.009 145.361 149.932 147.219 149.418C147.979 149.167 148.794 149.139 149.569 149.337Z" fill="#263238"/>
<path d="M163.424 149.789C163.158 148.399 163.253 146.964 163.7 145.621C164.147 144.277 164.93 143.071 165.976 142.117C168.49 140.049 171.334 138.416 174.388 137.287C176.255 136.482 180.144 133.206 180.828 133.995C181.512 134.784 181.818 135.959 180.828 137.392C179.838 138.825 174.211 140.958 175 142.769C175.322 143.502 177.093 143.639 177.093 143.639C180.307 143.865 183.531 143.929 186.753 143.832C189.602 143.582 192.162 144.13 192.009 145.112C191.856 146.094 191.325 146.633 188.966 146.834C186.608 147.036 182.768 146.883 182.526 147.422C182.285 147.961 183.122 148.308 184.499 148.227C185.875 148.147 192.363 148.122 192.806 148.863C192.914 149.051 192.979 149.261 192.996 149.477C193.013 149.692 192.981 149.91 192.904 150.112C192.827 150.314 192.706 150.497 192.55 150.648C192.394 150.798 192.207 150.911 192.001 150.98L190.48 151.52C190.48 151.52 191.365 152.751 190.625 153.435C189.884 154.12 188.21 153.878 188.21 153.878L179.604 153.637C179.604 153.637 179.113 154.152 179.355 154.506C179.596 154.86 186.342 154.369 186.39 155.11C186.439 155.85 187.026 156.189 185.014 156.72C182.066 157.211 179.058 157.211 176.11 156.72C174.291 156.221 166.668 155.915 166.668 155.915L163.424 149.789Z" fill="#FFBF9D"/>
<path d="M46.4649 153.709L36.507 145.449L30.7915 151.889L31.4919 155.037L43.9372 166.758C45.7822 165.7 47.1744 164.001 47.8495 161.984C49.0892 158.434 46.4649 153.709 46.4649 153.709Z" fill="#FFBF9D"/>
<path d="M36.3943 149.747C36.8225 148.399 36.8994 146.964 36.6176 145.578C36.3359 144.192 35.7048 142.9 34.7843 141.826C32.5191 139.475 29.8704 137.526 26.9516 136.062C25.1967 135.008 21.7191 131.337 20.9382 132.037C20.4752 132.455 20.1799 133.026 20.1074 133.646C20.0348 134.265 20.1899 134.889 20.5438 135.402C21.3488 136.94 25.2289 138.727 25.092 140.699C25.0778 140.89 25.026 141.076 24.9398 141.247C24.8536 141.418 24.7346 141.57 24.5896 141.695C24.4446 141.82 24.2764 141.915 24.0946 141.975C23.9129 142.034 23.7211 142.058 23.5303 142.044C20.3183 141.896 17.1157 141.587 13.9347 141.118C11.1252 140.538 8.52508 140.78 8.55728 141.77C8.58948 142.76 9.06443 143.38 11.3828 143.839C13.7012 144.298 17.5331 144.644 17.6619 145.167C17.7907 145.69 16.9776 145.972 15.6171 145.722C14.2567 145.473 7.81668 144.708 7.29343 145.392C7.16372 145.564 7.07381 145.763 7.03018 145.974C6.98654 146.185 6.99027 146.403 7.04109 146.613C7.09191 146.822 7.18855 147.018 7.32406 147.185C7.45957 147.353 7.63057 147.488 7.82473 147.582L9.27373 148.298C9.27373 148.298 8.25138 149.417 8.90343 150.182C9.55548 150.947 11.246 150.907 11.246 150.907L19.8273 151.663C19.8273 151.663 20.254 152.235 19.9642 152.557C19.6744 152.879 13.0492 151.607 12.9123 152.34C12.7755 153.072 12.1476 153.338 14.0957 154.062C16.9698 154.895 19.9619 155.246 22.9507 155.101C24.8183 154.819 32.4336 155.366 32.4336 155.366L36.3943 149.747Z" fill="#FFBF9D"/>
<path d="M107.54 101.006C107.002 101.678 106.404 102.301 105.753 102.865C104.618 103.976 103.065 105.53 101.422 107.301C101.076 107.679 100.73 108.05 100.408 108.412L100.191 108.645L99.9894 108.396C98.7175 106.786 97.6146 105.305 96.8418 104.25C96.3881 103.714 96.0015 103.125 95.6907 102.495C96.225 102.952 96.7058 103.468 97.1236 104.033C97.9688 105.031 99.128 106.448 100.416 108.058H100.005L101.012 106.939C102.426 105.41 103.92 103.956 105.488 102.584C106.105 101.976 106.794 101.446 107.54 101.006Z" fill="#263238"/>
<path d="M61.623 120.502C61.771 120.857 61.8711 121.231 61.9209 121.613C62.0738 122.337 62.267 123.392 62.4763 124.696C62.8949 127.304 63.3377 130.927 63.708 134.936C64.0783 138.945 64.352 142.583 64.5613 145.216C64.6418 146.439 64.7223 147.478 64.7786 148.331C64.8291 148.713 64.8291 149.1 64.7786 149.482C64.6638 149.115 64.5882 148.738 64.5532 148.355C64.4405 147.622 64.3037 146.56 64.1588 145.248C63.8529 142.631 63.5148 139.001 63.1445 134.992C62.7742 130.983 62.4119 127.369 62.098 124.793C61.945 123.577 61.8162 122.539 61.7116 121.693C61.6284 121.302 61.5986 120.901 61.623 120.502Z" fill="#263238"/>
<path d="M124.606 118.676C124.721 119.132 124.789 119.599 124.808 120.068C124.896 120.978 124.993 122.282 125.073 123.908C125.258 127.128 125.347 131.636 125.363 136.579V153.09C125.389 153.56 125.37 154.032 125.307 154.498C125.202 154.039 125.151 153.569 125.154 153.098C125.089 152.188 125.025 150.876 124.977 149.258C124.864 146.038 124.824 141.53 124.816 136.587C124.808 131.644 124.767 127.161 124.687 123.924C124.647 122.387 124.614 121.099 124.59 120.085C124.552 119.615 124.557 119.144 124.606 118.676Z" fill="#263238"/>
<path d="M53.4522 165.123C53.2003 164.209 53.0147 163.279 52.8968 162.338C52.5196 160.092 51.7915 157.918 50.7394 155.898C49.6657 153.917 48.0523 152.282 46.0865 151.181C45.2411 150.777 44.3666 150.438 43.4702 150.166C43.7354 150.109 44.01 150.109 44.2752 150.166C44.9726 150.283 45.6502 150.497 46.2877 150.802C48.4029 151.857 50.1364 153.546 51.2465 155.632C52.3118 157.706 52.9884 159.957 53.2429 162.274C53.4324 163.211 53.5027 164.168 53.4522 165.123Z" fill="#263238"/>
<path d="M56.0364 154.248C55.9237 154.377 54.3217 152.727 51.7135 151.833C49.1053 150.94 46.8835 151.246 46.8352 151.077C46.7869 150.908 49.1456 150.36 51.8906 151.318C54.6357 152.276 56.1571 154.184 56.0364 154.248Z" fill="#263238"/>
<path d="M96.8901 191.656C96.8413 191.358 96.8197 191.057 96.8257 190.755C96.8257 190.119 96.8257 189.258 96.7693 188.179C96.721 185.885 96.6566 182.657 96.5761 178.688C96.391 170.638 96.1334 159.585 95.8436 147.381C95.5538 135.177 95.4008 124.076 95.4169 116.059C95.4169 112.034 95.4572 108.814 95.5055 106.56C95.5055 105.481 95.5618 104.62 95.586 103.984C95.5792 103.682 95.6008 103.38 95.6504 103.082C95.6728 103.382 95.6728 103.684 95.6504 103.984C95.6504 104.62 95.6504 105.481 95.6504 106.56C95.6504 108.854 95.6987 112.09 95.7309 116.051C95.8114 124.101 96.0448 135.137 96.3185 147.365C96.5922 159.593 96.8337 170.662 96.8981 178.68C96.8981 182.705 96.8981 185.925 96.8981 188.179C96.8981 189.258 96.8981 190.119 96.8579 190.755C96.8892 191.054 96.8999 191.356 96.8901 191.656Z" fill="#263238"/>
<path d="M45.9979 153.37C45.9979 153.305 46.8029 153.909 47.4469 155.246C47.8415 156.007 48.1287 156.82 48.3002 157.661C48.4655 158.728 48.4655 159.814 48.3002 160.881C48.18 161.949 47.8634 162.986 47.3664 163.94C46.936 164.713 46.3427 165.383 45.6276 165.904C44.9987 166.426 44.2068 166.71 43.3896 166.709C44.0971 166.416 44.7673 166.041 45.3861 165.59C46.0209 165.069 46.5439 164.426 46.9236 163.698C47.3544 162.788 47.6266 161.81 47.7286 160.808C47.8735 159.804 47.8735 158.785 47.7286 157.781C47.5903 156.952 47.3553 156.141 47.0283 155.366C46.5292 154.086 45.9174 153.418 45.9979 153.37Z" fill="#263238"/>
<path d="M155.937 166.967C155.937 166.967 155.679 166.967 155.269 166.765C154.693 166.511 154.151 166.184 153.659 165.791C151.972 164.492 150.818 162.621 150.415 160.531C150.012 158.44 150.387 156.274 151.469 154.441C151.785 153.89 152.169 153.381 152.612 152.927C152.926 152.621 153.128 152.476 153.152 152.501C153.176 152.525 152.508 153.249 151.807 154.626C150.871 156.407 150.569 158.453 150.951 160.428C151.333 162.404 152.376 164.19 153.908 165.493C155.06 166.508 155.977 166.878 155.937 166.967Z" fill="#263238"/>
<path d="M176.408 140.41C176.473 140.475 176.006 140.917 175.418 141.698C175.08 142.145 174.846 142.662 174.734 143.212C174.605 143.831 174.621 144.556 174.509 145.353C174.413 146.037 174.182 146.695 173.829 147.29C173.477 147.884 173.01 148.402 172.456 148.814C172.032 149.196 171.495 149.428 170.926 149.474C170.886 149.386 171.482 149.161 172.214 148.508C173.157 147.673 173.778 146.534 173.969 145.288C174.022 144.56 174.114 143.834 174.243 143.115C174.397 142.515 174.695 141.963 175.112 141.505C175.45 141.042 175.895 140.666 176.408 140.41Z" fill="#FF9A6C"/>
<path d="M21.1394 148.879C21.1394 149.024 18.4588 149.169 15.1502 149.008C11.8417 148.847 9.18514 148.46 9.20124 148.307C9.21734 148.155 11.8819 148.307 15.1744 148.46C18.4668 148.613 21.1394 148.718 21.1394 148.879Z" fill="#FF9A6C"/>
<path d="M27.2332 148.42C27.2332 148.477 26.5973 148.372 25.8406 147.736C25.3505 147.31 24.9606 146.781 24.699 146.187C24.4374 145.592 24.3104 144.948 24.3272 144.299C24.3845 143.612 24.5085 142.933 24.6975 142.27C24.8384 141.745 24.9061 141.203 24.8987 140.66C24.8525 140.175 24.7415 139.699 24.5687 139.243C24.5687 139.187 25.1563 139.613 25.2851 140.628C25.3502 141.198 25.3175 141.775 25.1885 142.334C25.037 142.973 24.9321 143.621 24.8746 144.274C24.8575 145.442 25.2998 146.569 26.1062 147.414C26.7261 148.138 27.2735 148.34 27.2332 148.42Z" fill="#FF9A6C"/>
<path d="M177.906 150.328C177.906 150.175 180.779 150.288 184.289 150.578C187.799 150.867 190.641 151.238 190.633 151.383C190.625 151.528 187.759 151.423 184.249 151.125C180.739 150.827 177.897 150.473 177.906 150.328Z" fill="#FF9A6C"/>
<path d="M95.0386 101.971C94.717 103.043 94.3106 104.087 93.823 105.095C93.6057 105.578 93.3803 106.101 93.1468 106.64C92.9159 107.255 92.6471 107.854 92.3418 108.435C92.2256 108.626 92.0566 108.78 91.8552 108.877C91.6538 108.974 91.4286 109.011 91.2068 108.983C90.8168 108.88 90.4541 108.693 90.1442 108.435L88.2444 107.139C85.6522 105.352 83.3258 103.702 81.6514 102.494C80.7152 101.882 79.832 101.193 79.011 100.434C80.0083 100.936 80.9639 101.518 81.8687 102.172C83.5995 103.307 85.9662 104.893 88.5583 106.688L90.4501 107.993C90.6968 108.206 90.9844 108.368 91.2953 108.468C91.4222 108.483 91.5508 108.459 91.6642 108.401C91.7776 108.342 91.8707 108.25 91.9313 108.137C92.5431 107.027 93.0502 105.827 93.5413 104.917C93.9576 103.895 94.4584 102.91 95.0386 101.971Z" fill="#263238"/>
<path d="M95.2255 49.5057C72.7147 48.0159 54.9636 49.7388 54.7892 52.2944C50.1292 58.0541 122.82 76.1678 136.591 58.8014C136.76 56.2418 117.731 50.9915 95.2255 49.5057Z" fill="#FFD000"/>
<path d="M74.863 53.7515C74.863 53.7515 74.8809 28.0246 96.236 29.4974C117.591 30.9702 115.442 57.2118 115.442 57.2118L74.863 53.7515Z" fill="#FFD000"/>
<path d="M95.6901 62.9829C81.3364 62.521 58.4638 52.6466 60.3664 52.7577C60.3664 52.7577 81.5641 61.9956 95.6901 62.5181C109.055 63.0125 128.218 60.437 129.619 56.0111C129.619 60.659 109.21 63.418 95.6901 62.9829Z" fill="#263238"/>
<path d="M115.5 56.2115C115.366 56.2499 115.229 56.273 115.09 56.2804L113.898 56.3971C112.866 56.5017 111.374 56.6147 109.521 56.7394C105.819 56.9831 100.693 57.2451 95.0185 57.0497C92.1854 56.9464 89.493 56.7165 87.0646 56.4226C84.6361 56.1288 82.4485 55.7209 80.6411 55.2983C79.7279 55.1181 78.9068 54.9027 78.2051 54.6967C77.5034 54.4908 76.8837 54.3348 76.3896 54.1676L75.2543 53.8038C75.1216 53.7623 74.9919 53.7119 74.866 53.6532C75.0045 53.6582 75.1414 53.6849 75.2717 53.7322L76.4316 54.0379C76.9264 54.1805 77.5382 54.3476 78.2606 54.501C78.9829 54.6545 79.7864 54.8826 80.6925 55.0494C82.5087 55.4362 84.6827 55.7923 87.1071 56.0917C89.5316 56.3911 92.2232 56.5868 95.061 56.7188C100.705 56.9094 105.824 56.6928 109.504 56.492L113.878 56.2484C114.366 56.2351 114.749 56.2052 115.071 56.2001C115.214 56.1911 115.358 56.1949 115.5 56.2115Z" fill="#263238"/>
<path d="M81.0128 54.8228C80.9976 54.4475 81.0099 54.0716 81.0497 53.6982C81.0684 53.3419 81.1013 52.8949 81.1516 52.3763C81.2019 51.8576 81.2767 51.2809 81.3953 50.643C81.6433 49.1479 81.9815 47.6692 82.4082 46.2151C82.9371 44.4333 83.585 42.689 84.3475 40.9939C85.1224 39.3044 86.0078 37.6678 86.9981 36.0949C87.8197 34.8183 88.7181 33.5929 89.6884 32.4254C90.0616 31.9016 90.4938 31.4955 90.8322 31.1149C91.1705 30.7344 91.4843 30.4119 91.7465 30.1619C92.0022 29.8896 92.2778 29.6367 92.5711 29.4054C92.3571 29.712 92.1143 29.9975 91.846 30.258C91.6061 30.5239 91.3074 30.8487 90.9818 31.2468C90.6562 31.6448 90.267 32.0731 89.8827 32.589C88.9445 33.7645 88.0711 34.9903 87.2663 36.2608C86.2931 37.8228 85.4185 39.4441 84.6474 41.1153C83.8905 42.7958 83.2365 44.5208 82.689 46.2807C82.2537 47.7212 81.8933 49.1833 81.6093 50.661C81.474 51.2871 81.4047 51.8677 81.3225 52.3721C81.2404 52.8764 81.1813 53.3131 81.1435 53.6726C81.1329 54.059 81.0891 54.4438 81.0128 54.8228Z" fill="#263238"/>
<path d="M94.345 56.6035C94.3281 56.2447 94.3399 55.8851 94.3804 55.5282L94.6069 52.6401C94.7742 50.1887 94.9747 46.7949 95.1461 43.0527L95.5453 33.4496L95.6947 30.5401C95.6963 30.1808 95.7297 29.8223 95.7944 29.4688C95.8367 29.825 95.8478 30.1842 95.8275 30.5424L95.8014 33.4557C95.7248 35.9212 95.6706 39.3101 95.5064 43.0658C95.3421 46.8215 95.0924 50.2138 94.8431 52.674C94.7252 53.9005 94.6222 54.894 94.5307 55.5765C94.4964 55.9232 94.4343 56.2667 94.345 56.6035Z" fill="#263238"/>
<path d="M109.146 56.4644C109.129 56.0666 109.133 55.6681 109.156 55.2707C109.181 54.1935 109.141 53.1158 109.036 52.0434C108.912 50.6859 108.639 49.0638 108.381 47.2921C108.14 45.3501 107.774 43.4256 107.286 41.5305C106.782 39.6475 106.012 37.8458 105 36.1799C104.161 34.8247 103.151 33.5829 101.996 32.4852C100.902 31.4995 99.7532 30.5771 98.5545 29.7223C98.9145 29.8943 99.2589 30.0974 99.5835 30.3295C99.8955 30.5518 100.28 30.8257 100.726 31.1433C101.171 31.461 101.655 31.8557 102.147 32.3323C103.348 33.4173 104.394 34.663 105.255 36.0341C106.305 37.7157 107.097 39.5456 107.604 41.4626C108.103 43.3701 108.463 45.3114 108.682 47.2711C108.949 49.0658 109.172 50.6864 109.264 52.0543C109.348 53.1379 109.35 54.2263 109.271 55.3103C109.242 55.6929 109.208 55.988 109.173 56.19C109.138 56.3921 109.157 56.4724 109.146 56.4644Z" fill="#263238"/>
<path d="M95.7782 30.3063C95.5163 30.2826 95.2739 30.1581 95.1023 29.9589C94.9306 29.7598 94.8431 29.5017 94.8583 29.2392L94.8895 28.665C94.9105 28.4028 95.0333 28.1592 95.2318 27.9865C95.4302 27.8138 95.6884 27.7257 95.951 27.7412C96.2125 27.7638 96.455 27.8872 96.6274 28.0852C96.7997 28.2832 96.8884 28.5405 96.8748 28.8026L96.8341 29.3785C96.8124 29.6397 96.6903 29.8824 96.4933 30.0554C96.2964 30.2285 96.04 30.3184 95.7782 30.3063Z" fill="#FFD000"/>
</svg>
