<svg width="200" height="200" viewBox="0 0 200 200" fill="none" xmlns="http://www.w3.org/2000/svg">
<path fill-rule="evenodd" clip-rule="evenodd" d="M95.3511 40.0786C119.484 41.5624 131.191 65.3973 145.943 82.1754C157.899 95.7741 168.961 109.409 171.286 126.445C173.971 146.122 175.558 168.605 159.663 182.721C143.717 196.882 117.964 195.809 95.3511 193.883C72.1366 194.322 53.3796 187.342 42.4481 172.737C26.9316 160.174 13.0786 144.922 12.0648 126.445C11.0113 107.244 22.9446 90.1752 37.1121 75.4837C52.9597 59.05 70.8381 38.5713 95.3511 40.0786Z" fill="#FFF3CC"/>
<mask id="mask0_752_26274" style="mask-type:alpha" maskUnits="userSpaceOnUse" x="12" y="40" width="161" height="155">
<path fill-rule="evenodd" clip-rule="evenodd" d="M95.3511 40.0786C119.484 41.5624 131.191 65.3973 145.943 82.1754C157.899 95.7741 168.961 109.409 171.286 126.445C173.971 146.122 175.558 168.605 159.663 182.721C143.717 196.882 117.964 195.809 95.3511 193.883C72.1366 194.322 53.3796 187.342 42.4481 172.737C26.9316 160.174 13.0786 144.922 12.0648 126.445C11.0113 107.244 22.9446 90.1752 37.1121 75.4837C52.9597 59.05 70.8381 38.5713 95.3511 40.0786Z" fill="#FFF3CC"/>
</mask>
<g mask="url(#mask0_752_26274)">
<path d="M167.75 44.6523V187.76H178.02V44.6523H167.75Z" fill="#E6E6E6"/>
<path d="M166.001 44.6523V187.76H234.595V44.6523H166.001ZM232.14 47.1207V72.7816H168.47V47.1207H232.14ZM168.47 129.033V103.373H232.14V129.033H168.47ZM232.14 131.502V157.163H168.47V131.502H232.14ZM168.483 100.911V75.2499H232.14V100.911H168.483ZM168.483 185.292V159.631H232.14V185.318L168.483 185.292Z" fill="#F5F5F5"/>
<path d="M165.144 38.3691H101.223V199.409H165.144V38.3691Z" fill="#E0E0E0"/>
<path d="M165.144 36.957V200.822H176.918V36.957H165.144Z" fill="#E6E6E6"/>
<path d="M90.0093 36.957V200.822H101.79V36.957H90.0093Z" fill="#E6E6E6"/>
<path d="M88.0093 36.957V200.822H166.549V36.957H88.0093ZM163.731 39.7818V69.1584H90.8341V39.7818H163.731ZM90.8341 133.581V104.198H163.731V133.581H90.8341ZM163.731 136.406V165.789H90.8341V136.406H163.731ZM90.8341 101.373V71.9898H163.731V101.373H90.8341ZM90.8341 197.997V168.614H163.731V197.997H90.8341Z" fill="#F5F5F5"/>
<path d="M138.262 69.4355H140.981V46.6391H138.262V69.4355Z" fill="#E6E6E6"/>
<path d="M140.974 69.4355H143.694V46.6391H140.974V69.4355Z" fill="#E0E0E0"/>
<path d="M132.83 69.4297H138.262V48.2305H132.83V69.4297Z" fill="#E6E6E6"/>
<path d="M126.606 69.4355H130.117V46.6391H126.606V69.4355Z" fill="#F0F0F0"/>
<path d="M130.111 69.4355H132.83V46.6391H130.111V69.4355Z" fill="#EBEBEB"/>
<path d="M105.994 69.4355H109.506V46.6391H105.994V69.4355Z" fill="#E6E6E6"/>
<path d="M109.506 69.4355H112.225V46.6391H109.506V69.4355Z" fill="#EBEBEB"/>
<path d="M117.657 69.4355H121.168V46.6391H117.657V69.4355Z" fill="#E6E6E6"/>
<path d="M121.168 69.4355H123.887V46.6391H121.168V69.4355Z" fill="#E0E0E0"/>
<path d="M100.563 69.4355H105.994V47.1737H100.563V69.4355Z" fill="#EBEBEB"/>
<path d="M97.8433 69.4355H100.562V47.1737H97.8433V69.4355Z" fill="#E0E0E0"/>
<path d="M114.033 69.4355H117.656V47.1737H114.033V69.4355Z" fill="#E0E0E0"/>
<path d="M112.225 69.4355H114.033V47.1737H112.225V69.4355Z" fill="#F0F0F0"/>
<path d="M121.168 69.4297H126.6V48.2305H121.168V69.4297Z" fill="#F5F5F5"/>
<path d="M151.851 69.4355H155.362V46.6391H151.851V69.4355Z" fill="#EBEBEB"/>
<path d="M155.356 69.4355H158.075V46.6391H155.356V69.4355Z" fill="#E6E6E6"/>
<path d="M146.413 69.4355H151.844V47.1737H146.413V69.4355Z" fill="#E0E0E0"/>
<path d="M143.7 69.4355H146.419V47.1737H143.7V69.4355Z" fill="#EBEBEB"/>
<path d="M159.89 69.4355H163.513V47.1737H159.89V69.4355Z" fill="#EBEBEB"/>
<path d="M158.075 69.4355H159.883V47.1737H158.075V69.4355Z" fill="#FAFAFA"/>
<path d="M123.095 78.5566H120.376V101.353H123.095V78.5566Z" fill="#E6E6E6"/>
<path d="M120.376 78.5566H117.656V101.353H120.376V78.5566Z" fill="#E0E0E0"/>
<path d="M128.52 80.1602H123.088V101.359H128.52V80.1602Z" fill="#E6E6E6"/>
<path d="M134.75 78.5566H131.239V101.353H134.75V78.5566Z" fill="#F0F0F0"/>
<path d="M131.246 78.5566H128.527V101.353H131.246V78.5566Z" fill="#EBEBEB"/>
<path d="M155.356 78.5566H151.844V101.353H155.356V78.5566Z" fill="#E6E6E6"/>
<path d="M151.851 78.5566H149.132V101.353H151.851V78.5566Z" fill="#EBEBEB"/>
<path d="M143.694 78.5566H140.182V101.353H143.694V78.5566Z" fill="#E6E6E6"/>
<path d="M140.189 78.5566H137.47V101.353H140.189V78.5566Z" fill="#E0E0E0"/>
<path d="M160.788 79.0977H155.356V101.359H160.788V79.0977Z" fill="#EBEBEB"/>
<path d="M163.513 79.0977H160.794V101.359H163.513V79.0977Z" fill="#E0E0E0"/>
<path d="M147.317 79.0977H143.694V101.359H147.317V79.0977Z" fill="#E0E0E0"/>
<path d="M149.125 79.0977H147.317V101.359H149.125V79.0977Z" fill="#F0F0F0"/>
<path d="M140.182 80.1602H134.75V101.359H140.182V80.1602Z" fill="#F5F5F5"/>
<path d="M109.506 78.5566H105.994V101.353H109.506V78.5566Z" fill="#EBEBEB"/>
<path d="M105.994 78.5566H103.275V101.353H105.994V78.5566Z" fill="#E6E6E6"/>
<path d="M114.937 79.0977H109.506V101.359H114.937V79.0977Z" fill="#E0E0E0"/>
<path d="M117.656 79.0977H114.937V101.359H117.656V79.0977Z" fill="#EBEBEB"/>
<path d="M101.467 79.0977H97.8433V101.359H101.467V79.0977Z" fill="#EBEBEB"/>
<path d="M103.275 79.0977H101.467V101.359H103.275V79.0977Z" fill="#FAFAFA"/>
<path d="M123.095 111.049H120.376V133.845H123.095V111.049Z" fill="#E6E6E6"/>
<path d="M120.376 111.049H117.656V133.845H120.376V111.049Z" fill="#E0E0E0"/>
<path d="M128.52 112.652H123.088V133.852H128.52V112.652Z" fill="#E6E6E6"/>
<path d="M134.75 111.049H131.239V133.845H134.75V111.049Z" fill="#F0F0F0"/>
<path d="M131.246 111.049H128.527V133.845H131.246V111.049Z" fill="#EBEBEB"/>
<path d="M155.356 111.049H151.844V133.845H155.356V111.049Z" fill="#E6E6E6"/>
<path d="M151.851 111.049H149.132V133.845H151.851V111.049Z" fill="#EBEBEB"/>
<path d="M143.694 111.049H140.182V133.845H143.694V111.049Z" fill="#E6E6E6"/>
<path d="M140.189 111.049H137.47V133.845H140.189V111.049Z" fill="#E0E0E0"/>
<path d="M160.788 111.59H155.356V133.852H160.788V111.59Z" fill="#EBEBEB"/>
<path d="M163.513 111.59H160.794V133.852H163.513V111.59Z" fill="#E0E0E0"/>
<path d="M147.317 111.59H143.694V133.852H147.317V111.59Z" fill="#E0E0E0"/>
<path d="M149.125 111.59H147.317V133.852H149.125V111.59Z" fill="#F0F0F0"/>
<path d="M140.182 112.652H134.75V133.852H140.182V112.652Z" fill="#F5F5F5"/>
<path d="M109.506 111.049H105.994V133.845H109.506V111.049Z" fill="#EBEBEB"/>
<path d="M105.994 111.049H103.275V133.845H105.994V111.049Z" fill="#E6E6E6"/>
<path d="M114.937 111.59H109.506V133.852H114.937V111.59Z" fill="#E0E0E0"/>
<path d="M117.656 111.59H114.937V133.852H117.656V111.59Z" fill="#EBEBEB"/>
<path d="M101.467 111.59H97.8433V133.852H101.467V111.59Z" fill="#EBEBEB"/>
<path d="M103.275 111.59H101.467V133.852H103.275V111.59Z" fill="#FAFAFA"/>
<path d="M138.262 166.336H140.981V143.54H138.262V166.336Z" fill="#E6E6E6"/>
<path d="M140.974 166.336H143.694V143.54H140.974V166.336Z" fill="#E0E0E0"/>
<path d="M132.83 164.74H138.262V143.541H132.83V164.74Z" fill="#E6E6E6"/>
<path d="M126.606 166.336H130.117V143.54H126.606V166.336Z" fill="#F0F0F0"/>
<path d="M130.111 166.336H132.83V143.54H130.111V166.336Z" fill="#EBEBEB"/>
<path d="M105.994 166.336H109.506V143.54H105.994V166.336Z" fill="#E6E6E6"/>
<path d="M109.506 166.336H112.225V143.54H109.506V166.336Z" fill="#EBEBEB"/>
<path d="M117.657 166.336H121.168V143.54H117.657V166.336Z" fill="#E6E6E6"/>
<path d="M121.168 166.336H123.887V143.54H121.168V166.336Z" fill="#E0E0E0"/>
<path d="M100.563 165.803H105.994V143.541H100.563V165.803Z" fill="#EBEBEB"/>
<path d="M97.8433 165.803H100.562V143.541H97.8433V165.803Z" fill="#E0E0E0"/>
<path d="M114.033 165.803H117.656V143.541H114.033V165.803Z" fill="#E0E0E0"/>
<path d="M112.225 165.803H114.033V143.541H112.225V165.803Z" fill="#F0F0F0"/>
<path d="M121.168 164.74H126.6V143.541H121.168V164.74Z" fill="#F5F5F5"/>
<path d="M151.851 166.336H155.362V143.54H151.851V166.336Z" fill="#EBEBEB"/>
<path d="M155.356 166.336H158.075V143.54H155.356V166.336Z" fill="#E6E6E6"/>
<path d="M146.413 165.803H151.844V143.541H146.413V165.803Z" fill="#E0E0E0"/>
<path d="M143.7 165.803H146.419V143.541H143.7V165.803Z" fill="#EBEBEB"/>
<path d="M159.89 165.803H163.513V143.541H159.89V165.803Z" fill="#EBEBEB"/>
<path d="M158.075 165.803H159.883V143.541H158.075V165.803Z" fill="#FAFAFA"/>
<path d="M123.095 176.031H120.376V198.828H123.095V176.031Z" fill="#E6E6E6"/>
<path d="M120.376 176.031H117.656V198.828H120.376V176.031Z" fill="#E0E0E0"/>
<path d="M128.52 176.031H123.088V197.23H128.52V176.031Z" fill="#E6E6E6"/>
<path d="M134.75 176.031H131.239V198.828H134.75V176.031Z" fill="#F0F0F0"/>
<path d="M131.246 176.031H128.527V198.828H131.246V176.031Z" fill="#EBEBEB"/>
<path d="M155.356 176.031H151.844V198.828H155.356V176.031Z" fill="#E6E6E6"/>
<path d="M151.851 176.031H149.132V198.828H151.851V176.031Z" fill="#EBEBEB"/>
<path d="M143.694 176.031H140.182V198.828H143.694V176.031Z" fill="#E6E6E6"/>
<path d="M140.189 176.031H137.47V198.828H140.189V176.031Z" fill="#E0E0E0"/>
<path d="M160.788 176.031H155.356V198.293H160.788V176.031Z" fill="#EBEBEB"/>
<path d="M163.513 176.031H160.794V198.293H163.513V176.031Z" fill="#E0E0E0"/>
<path d="M147.317 176.031H143.694V198.293H147.317V176.031Z" fill="#E0E0E0"/>
<path d="M149.125 176.031H147.317V198.293H149.125V176.031Z" fill="#F0F0F0"/>
<path d="M140.182 176.031H134.75V197.23H140.182V176.031Z" fill="#F5F5F5"/>
<path d="M109.506 176.031H105.994V198.828H109.506V176.031Z" fill="#EBEBEB"/>
<path d="M105.994 176.031H103.275V198.828H105.994V176.031Z" fill="#E6E6E6"/>
<path d="M114.937 176.031H109.506V198.293H114.937V176.031Z" fill="#E0E0E0"/>
<path d="M117.656 176.031H114.937V198.293H117.656V176.031Z" fill="#EBEBEB"/>
<path d="M101.467 176.031H97.8433V198.293H101.467V176.031Z" fill="#EBEBEB"/>
<path d="M103.275 176.031H101.467V198.293H103.275V176.031Z" fill="#FAFAFA"/>
<path d="M100.549 21.5137H20.0095V224.431H100.549V21.5137Z" fill="#FFD000"/>
<path opacity="0.2" d="M100.549 21.5137H20.0095V224.431H100.549V21.5137Z" fill="white"/>
<path d="M100.549 19.7383V226.239H115.386V19.7383H100.549Z" fill="#FFD000"/>
<path opacity="0.3" d="M100.549 19.7383V226.239H115.386V19.7383H100.549Z" fill="white"/>
<path d="M5.8855 19.7383V226.239H20.7223V19.7383H5.8855Z" fill="#FFD000"/>
<path opacity="0.4" d="M5.8855 19.7383V226.239H20.7223V19.7383H5.8855Z" fill="white"/>
<path d="M3.36426 19.7383V226.239H102.364V19.7383H3.36426ZM98.7673 23.2957V60.3217H6.92166V23.2957H98.7673ZM6.92166 141.482V104.462H98.7673V141.482H6.92166ZM98.7673 145.059V182.078H6.92166V145.059H98.7673ZM6.92166 100.905V63.8791H98.7673V100.905H6.92166ZM6.92166 222.649V185.629H98.7673V222.649H6.92166Z" fill="#FFD000"/>
<path opacity="0.6" d="M3.36426 19.7383V226.239H102.364V19.7383H3.36426ZM98.7673 23.2957V60.3217H6.92166V23.2957H98.7673ZM6.92166 141.482V104.462H98.7673V141.482H6.92166ZM98.7673 145.059V182.078H6.92166V145.059H98.7673ZM6.92166 100.905V63.8791H98.7673V100.905H6.92166ZM6.92166 222.649V185.629H98.7673V222.649H6.92166Z" fill="white"/>
<path d="M65.028 60.3223H68.4534V31.5925H65.028V60.3223Z" fill="#FFD000"/>
<path opacity="0.1" d="M65.028 60.3223H68.4534V31.5925H65.028V60.3223Z" fill="white"/>
<path d="M68.4535 60.3223H71.8789V31.5925H68.4535V60.3223Z" fill="#FFD000"/>
<path opacity="0.4" d="M68.4535 60.3223H71.8789V31.5925H68.4535V60.3223Z" fill="white"/>
<path d="M58.1905 60.3145H65.0347V33.6043H58.1905V60.3145Z" fill="#FFD000"/>
<path opacity="0.6" d="M58.1905 60.3145H65.0347V33.6043H58.1905V60.3145Z" fill="white"/>
<path d="M50.3431 60.3223H54.7651V31.5925H50.3431V60.3223Z" fill="#FFD000"/>
<path d="M54.7584 60.3223H58.1838V31.5925H54.7584V60.3223Z" fill="#FFD000"/>
<path opacity="0.7" d="M54.7584 60.3223H58.1838V31.5925H54.7584V60.3223Z" fill="white"/>
<path d="M24.3788 60.3223H28.8008L28.8008 31.5925H24.3788L24.3788 60.3223Z" fill="#FFD000"/>
<path opacity="0.7" d="M24.3788 60.3223H28.8008L28.8008 31.5925H24.3788L24.3788 60.3223Z" fill="white"/>
<path d="M28.7941 60.3223H32.2195V31.5925H28.7941L28.7941 60.3223Z" fill="#FFD000"/>
<path opacity="0.6" d="M28.7941 60.3223H32.2195V31.5925H28.7941L28.7941 60.3223Z" fill="white"/>
<path d="M39.0702 60.3223H43.4922V31.5925H39.0702V60.3223Z" fill="#FFD000"/>
<path opacity="0.6" d="M39.0702 60.3223H43.4922V31.5925H39.0702V60.3223Z" fill="white"/>
<path d="M43.4923 60.3223H46.9177V31.5925H43.4923V60.3223Z" fill="#FFD000"/>
<path opacity="0.1" d="M43.4923 60.3223H46.9177V31.5925H43.4923V60.3223Z" fill="black"/>
<path d="M17.5279 60.3223H24.3721L24.3721 32.2723H17.5279L17.5279 60.3223Z" fill="#FFD000"/>
<path opacity="0.1" d="M17.5279 60.3223H24.3721L24.3721 32.2723H17.5279L17.5279 60.3223Z" fill="white"/>
<path d="M14.1024 60.3223H17.5278L17.5278 32.2723H14.1024L14.1024 60.3223Z" fill="#FFD000"/>
<path opacity="0.6" d="M14.1024 60.3223H17.5278L17.5278 32.2723H14.1024L14.1024 60.3223Z" fill="white"/>
<path d="M34.5031 60.3223H39.0703V32.2723H34.5031V60.3223Z" fill="#FFD000"/>
<path opacity="0.1" d="M34.5031 60.3223H39.0703V32.2723H34.5031V60.3223Z" fill="white"/>
<path d="M32.2196 60.3223H34.5032V32.2723H32.2196V60.3223Z" fill="#FFD000"/>
<path opacity="0.3" d="M32.2196 60.3223H34.5032V32.2723H32.2196V60.3223Z" fill="white"/>
<path d="M43.4922 60.3145H50.3364V33.6043H43.4922V60.3145Z" fill="#FFD000"/>
<path opacity="0.1" d="M43.4922 60.3145H50.3364V33.6043H43.4922V60.3145Z" fill="white"/>
<path d="M82.1486 60.3223H86.5706V31.5925H82.1486V60.3223Z" fill="#FFD000"/>
<path opacity="0.3" d="M82.1486 60.3223H86.5706V31.5925H82.1486V60.3223Z" fill="white"/>
<path d="M86.5704 60.3223H89.9958V31.5925H86.5704V60.3223Z" fill="#FFD000"/>
<path opacity="0.2" d="M86.5704 60.3223H89.9958V31.5925H86.5704V60.3223Z" fill="white"/>
<path d="M75.3042 60.3223H82.1484V32.2723H75.3042V60.3223Z" fill="#FFD000"/>
<path opacity="0.1" d="M75.3042 60.3223H82.1484V32.2723H75.3042V60.3223Z" fill="white"/>
<path d="M71.8788 60.3223H75.3042V32.2723H71.8788V60.3223Z" fill="#FFD000"/>
<path opacity="0.6" d="M71.8788 60.3223H75.3042V32.2723H71.8788V60.3223Z" fill="white"/>
<path d="M92.2729 60.3223H96.8401V32.2723H92.2729V60.3223Z" fill="#FFD000"/>
<path opacity="0.1" d="M92.2729 60.3223H96.8401V32.2723H92.2729V60.3223Z" fill="white"/>
<path d="M89.9959 60.3223H92.2795V32.2723H89.9959V60.3223Z" fill="#FFD000"/>
<path opacity="0.6" d="M89.9959 60.3223H92.2795V32.2723H89.9959V60.3223Z" fill="white"/>
<path d="M47.0894 72.2676H43.7498V100.912H47.0894V72.2676Z" fill="#FFD000"/>
<path opacity="0.1" d="M47.0894 72.2676H43.7498V100.912H47.0894V72.2676Z" fill="white"/>
<path d="M43.7432 72.2676H40.4036V100.912H43.7432V72.2676Z" fill="#FFD000"/>
<path opacity="0.4" d="M43.7432 72.2676H40.4036V100.912H43.7432V72.2676Z" fill="white"/>
<path d="M53.7752 74.2812H47.0894V100.912H53.7752V74.2812Z" fill="#FFD000"/>
<path opacity="0.6" d="M53.7752 74.2812H47.0894V100.912H53.7752V74.2812Z" fill="white"/>
<path d="M61.4312 72.2676H57.1147V100.912H61.4312V72.2676Z" fill="#FFD000"/>
<path d="M57.1147 72.2676H53.7751V100.912H57.1147V72.2676Z" fill="#FFD000"/>
<path opacity="0.1" d="M57.1147 72.2676H53.7751V100.912H57.1147V72.2676Z" fill="black"/>
<path d="M86.7817 72.2676H82.4653V100.912H86.7817V72.2676Z" fill="#FFD000"/>
<path opacity="0.1" d="M86.7817 72.2676H82.4653V100.912H86.7817V72.2676Z" fill="black"/>
<path d="M82.4653 72.2676H79.1257V100.912H82.4653V72.2676Z" fill="#FFD000"/>
<path opacity="0.6" d="M82.4653 72.2676H79.1257V100.912H82.4653V72.2676Z" fill="white"/>
<path d="M72.4333 72.2676H68.1169V100.912H72.4333V72.2676Z" fill="#FFD000"/>
<path opacity="0.6" d="M72.4333 72.2676H68.1169V100.912H72.4333V72.2676Z" fill="white"/>
<path d="M68.1169 72.2676H64.7773V100.912H68.1169V72.2676Z" fill="#FFD000"/>
<path opacity="0.1" d="M68.1169 72.2676H64.7773V100.912H68.1169V72.2676Z" fill="black"/>
<path d="M93.4675 72.9473H86.7817V100.911H93.4675V72.9473Z" fill="#FFD000"/>
<path opacity="0.1" d="M93.4675 72.9473H86.7817V100.911H93.4675V72.9473Z" fill="white"/>
<path d="M96.8071 72.9473H93.4675V100.911H96.8071V72.9473Z" fill="#FFD000"/>
<path opacity="0.6" d="M96.8071 72.9473H93.4675V100.911H96.8071V72.9473Z" fill="white"/>
<path d="M76.8949 72.9473H72.4399V100.911H76.8949V72.9473Z" fill="#FFD000"/>
<path opacity="0.1" d="M76.8949 72.9473H72.4399V100.911H76.8949V72.9473Z" fill="white"/>
<path d="M79.1256 72.9473H76.8948V100.911H79.1256V72.9473Z" fill="#FFD000"/>
<path opacity="0.3" d="M79.1256 72.9473H76.8948V100.911H79.1256V72.9473Z" fill="white"/>
<path d="M68.1235 74.2812H61.4377V100.912H68.1235V74.2812Z" fill="#FFD000"/>
<path opacity="0.1" d="M68.1235 74.2812H61.4377V100.912H68.1235V74.2812Z" fill="white"/>
<path d="M30.3782 72.2676H26.0618V100.912H30.3782V72.2676Z" fill="#FFD000"/>
<path opacity="0.1" d="M30.3782 72.2676H26.0618V100.912H30.3782V72.2676Z" fill="white"/>
<path d="M26.0552 72.2676H22.7156V100.912H26.0552V72.2676Z" fill="#FFD000"/>
<path opacity="0.2" d="M26.0552 72.2676H22.7156V100.912H26.0552V72.2676Z" fill="white"/>
<path d="M37.064 72.9473H30.3782V100.911H37.064V72.9473Z" fill="#FFD000"/>
<path opacity="0.1" d="M37.064 72.9473H30.3782V100.911H37.064V72.9473Z" fill="white"/>
<path d="M40.4036 72.9473H37.064V100.911H40.4036V72.9473Z" fill="#FFD000"/>
<path opacity="0.6" d="M40.4036 72.9473H37.064V100.911H40.4036V72.9473Z" fill="white"/>
<path d="M20.4914 72.9473H16.0364V100.911H20.4914V72.9473Z" fill="#FFD000"/>
<path opacity="0.1" d="M20.4914 72.9473H16.0364V100.911H20.4914V72.9473Z" fill="white"/>
<path d="M22.722 72.9473H20.4912V100.911H22.722V72.9473Z" fill="#FFD000"/>
<path opacity="0.6" d="M22.722 72.9473H20.4912V100.911H22.722V72.9473Z" fill="white"/>
<path d="M65.7344 182.072H69.074V153.712H65.7344V182.072Z" fill="#FFD000"/>
<path opacity="0.1" d="M65.7344 182.072H69.074V153.712H65.7344V182.072Z" fill="white"/>
<path d="M69.0806 182.072H72.4202V153.712H69.0806V182.072Z" fill="#FFD000"/>
<path opacity="0.4" d="M69.0806 182.072H72.4202V153.712H69.0806V182.072Z" fill="white"/>
<path d="M59.0486 182.072H65.7344V155.705H59.0486V182.072Z" fill="#FFD000"/>
<path opacity="0.6" d="M59.0486 182.072H65.7344V155.705H59.0486V182.072Z" fill="white"/>
<path d="M51.3923 182.072H55.7087V153.712H51.3923V182.072Z" fill="#FFD000"/>
<path d="M55.7087 182.072H59.0483V153.712H55.7087V182.072Z" fill="#FFD000"/>
<path opacity="0.6" d="M55.7087 182.072H59.0483V153.712H55.7087V182.072Z" fill="white"/>
<path d="M26.0418 182.072H30.3582L30.3582 153.712H26.0418L26.0418 182.072Z" fill="#FFD000"/>
<path opacity="0.3" d="M26.0418 182.072H30.3582L30.3582 153.712H26.0418L26.0418 182.072Z" fill="white"/>
<path d="M30.3582 182.072H33.6978V153.712H30.3582L30.3582 182.072Z" fill="#FFD000"/>
<path opacity="0.6" d="M30.3582 182.072H33.6978V153.712H30.3582L30.3582 182.072Z" fill="white"/>
<path d="M40.3836 182.072H44.7V153.712H40.3836V182.072Z" fill="#FFD000"/>
<path opacity="0.6" d="M40.3836 182.072H44.7V153.712H40.3836V182.072Z" fill="white"/>
<path d="M44.7065 182.072H48.0461V153.712H44.7065V182.072Z" fill="#FFD000"/>
<path opacity="0.1" d="M44.7065 182.072H48.0461V153.712H44.7065V182.072Z" fill="black"/>
<path d="M19.3494 182.072H26.0352L26.0352 154.379H19.3494L19.3494 182.072Z" fill="#FFD000"/>
<path opacity="0.1" d="M19.3494 182.072H26.0352L26.0352 154.379H19.3494L19.3494 182.072Z" fill="white"/>
<path d="M16.0164 182.072H19.356L19.356 154.379H16.0164L16.0164 182.072Z" fill="#FFD000"/>
<path opacity="0.6" d="M16.0164 182.072H19.356L19.356 154.379H16.0164L16.0164 182.072Z" fill="white"/>
<path d="M35.9285 182.072H40.3835V154.379H35.9285V182.072Z" fill="#FFD000"/>
<path opacity="0.1" d="M35.9285 182.072H40.3835V154.379H35.9285V182.072Z" fill="white"/>
<path d="M33.6979 182.072H35.9287V154.379H33.6979V182.072Z" fill="#FFD000"/>
<path opacity="0.3" d="M33.6979 182.072H35.9287V154.379H33.6979V182.072Z" fill="white"/>
<path d="M44.7068 182.072H51.3926V155.705H44.7068V182.072Z" fill="#FFD000"/>
<path opacity="0.1" d="M44.7068 182.072H51.3926V155.705H44.7068V182.072Z" fill="white"/>
<path d="M82.4456 182.072H86.762V153.712H82.4456V182.072Z" fill="#FFD000"/>
<path opacity="0.1" d="M82.4456 182.072H86.762V153.712H82.4456V182.072Z" fill="black"/>
<path d="M86.7686 182.072H90.1082V153.712H86.7686V182.072Z" fill="#FFD000"/>
<path opacity="0.2" d="M86.7686 182.072H90.1082V153.712H86.7686V182.072Z" fill="white"/>
<path d="M75.7598 182.072H82.4456V154.379H75.7598V182.072Z" fill="#FFD000"/>
<path opacity="0.1" d="M75.7598 182.072H82.4456V154.379H75.7598V182.072Z" fill="white"/>
<path d="M72.4136 182.072H75.7532V154.379H72.4136V182.072Z" fill="#FFD000"/>
<path opacity="0.6" d="M72.4136 182.072H75.7532V154.379H72.4136V182.072Z" fill="white"/>
<path d="M92.3324 182.072H96.7874V154.379H92.3324V182.072Z" fill="#FFD000"/>
<path opacity="0.1" d="M92.3324 182.072H96.7874V154.379H92.3324V182.072Z" fill="white"/>
<path d="M90.1015 182.072H92.3323V154.379H90.1015V182.072Z" fill="#FFD000"/>
<path opacity="0.6" d="M90.1015 182.072H92.3323V154.379H90.1015V182.072Z" fill="white"/>
<path d="M65.7607 222.662H69.1003V194.652H65.7607V222.662Z" fill="#FFD000"/>
<path opacity="0.1" d="M65.7607 222.662H69.1003V194.652H65.7607V222.662Z" fill="white"/>
<path d="M69.0938 222.662H72.4333V194.652H69.0938V222.662Z" fill="#FFD000"/>
<path opacity="0.4" d="M69.0938 222.662H72.4333V194.652H69.0938V222.662Z" fill="white"/>
<path d="M51.4124 222.662H55.7288V194.652H51.4124V222.662Z" fill="#FFD000"/>
<path d="M55.7288 222.662H59.0684V194.652H55.7288V222.662Z" fill="#FFD000"/>
<path opacity="0.1" d="M55.7288 222.662H59.0684V194.652H55.7288V222.662Z" fill="black"/>
<path d="M26.0618 222.662H30.3782L30.3782 194.652H26.0618L26.0618 222.662Z" fill="#FFD000"/>
<path opacity="0.4" d="M26.0618 222.662H30.3782L30.3782 194.652H26.0618L26.0618 222.662Z" fill="white"/>
<path d="M30.3848 222.662H33.7244V194.652H30.3848L30.3848 222.662Z" fill="#FFD000"/>
<path opacity="0.6" d="M30.3848 222.662H33.7244V194.652H30.3848L30.3848 222.662Z" fill="white"/>
<path d="M40.4102 222.662H44.7266V194.652H40.4102V222.662Z" fill="#FFD000"/>
<path opacity="0.6" d="M40.4102 222.662H44.7266V194.652H40.4102V222.662Z" fill="white"/>
<path d="M44.7266 222.662H48.0662V194.652H44.7266V222.662Z" fill="#FFD000"/>
<path opacity="0.1" d="M44.7266 222.662H48.0662V194.652H44.7266V222.662Z" fill="black"/>
<path d="M82.4719 222.662H86.7883V194.652H82.4719V222.662Z" fill="#FFD000"/>
<path opacity="0.1" d="M82.4719 222.662H86.7883V194.652H82.4719V222.662Z" fill="black"/>
<path d="M86.7817 222.662H90.1213V194.652H86.7817V222.662Z" fill="#FFD000"/>
<path opacity="0.2" d="M86.7817 222.662H90.1213V194.652H86.7817V222.662Z" fill="white"/>
<path d="M45.4062 112.369H41.9543V141.482H45.4062V112.369Z" fill="#FFD000"/>
<path opacity="0.1" d="M45.4062 112.369H41.9543V141.482H45.4062V112.369Z" fill="white"/>
<path d="M41.9479 112.369H38.4961V141.482H41.9479V112.369Z" fill="#FFD000"/>
<path opacity="0.4" d="M41.9479 112.369H38.4961V141.482H41.9479V112.369Z" fill="white"/>
<path d="M52.3164 114.416H45.4062V141.483H52.3164V114.416Z" fill="#FFD000"/>
<path opacity="0.6" d="M52.3164 114.416H45.4062V141.483H52.3164V114.416Z" fill="white"/>
<path d="M60.2431 112.369H55.7749V141.482H60.2431V112.369Z" fill="#FFD000"/>
<path d="M55.7682 112.369H52.3164V141.482H55.7682V112.369Z" fill="#FFD000"/>
<path opacity="0.1" d="M55.7682 112.369H52.3164V141.482H55.7682V112.369Z" fill="black"/>
<path d="M86.4516 112.369H81.9834V141.482H86.4516V112.369Z" fill="#FFD000"/>
<path opacity="0.1" d="M86.4516 112.369H81.9834V141.482H86.4516V112.369Z" fill="black"/>
<path d="M81.9769 112.369H78.5251V141.482H81.9769V112.369Z" fill="#FFD000"/>
<path opacity="0.6" d="M81.9769 112.369H78.5251V141.482H81.9769V112.369Z" fill="white"/>
<path d="M71.6149 112.369H67.1467V141.482H71.6149V112.369Z" fill="#FFD000"/>
<path opacity="0.6" d="M71.6149 112.369H67.1467V141.482H71.6149V112.369Z" fill="white"/>
<path d="M67.1466 112.369H63.6948V141.482H67.1466V112.369Z" fill="#FFD000"/>
<path opacity="0.1" d="M67.1466 112.369H63.6948V141.482H67.1466V112.369Z" fill="black"/>
<path d="M93.3553 113.062H86.4451V141.489H93.3553V113.062Z" fill="#FFD000"/>
<path opacity="0.1" d="M93.3553 113.062H86.4451V141.489H93.3553V113.062Z" fill="white"/>
<path d="M96.807 113.062H93.3552V141.489H96.807V113.062Z" fill="#FFD000"/>
<path opacity="0.6" d="M96.807 113.062H93.3552V141.489H96.807V113.062Z" fill="white"/>
<path d="M76.2215 113.062H71.6147V141.489H76.2215V113.062Z" fill="#FFD000"/>
<path opacity="0.1" d="M76.2215 113.062H71.6147V141.489H76.2215V113.062Z" fill="white"/>
<path d="M78.5251 113.062H76.2217V141.489H78.5251V113.062Z" fill="#FFD000"/>
<path opacity="0.3" d="M78.5251 113.062H76.2217V141.489H78.5251V113.062Z" fill="white"/>
<path d="M67.1468 114.416H60.2366V141.483H67.1468V114.416Z" fill="#FFD000"/>
<path opacity="0.1" d="M67.1468 114.416H60.2366V141.483H67.1468V114.416Z" fill="white"/>
<path d="M28.134 112.369H23.6658V141.482H28.134V112.369Z" fill="#FFD000"/>
<path opacity="0.2" d="M28.134 112.369H23.6658V141.482H28.134V112.369Z" fill="white"/>
<path d="M23.6659 112.369H20.2141V141.482H23.6659V112.369Z" fill="#FFD000"/>
<path opacity="0.2" d="M23.6659 112.369H20.2141V141.482H23.6659V112.369Z" fill="white"/>
<path d="M35.0442 113.062H28.134V141.489H35.0442V113.062Z" fill="#FFD000"/>
<path opacity="0.1" d="M35.0442 113.062H28.134V141.489H35.0442V113.062Z" fill="white"/>
<path d="M38.496 113.062H35.0442V141.489H38.496V113.062Z" fill="#FFD000"/>
<path opacity="0.6" d="M38.496 113.062H35.0442V141.489H38.496V113.062Z" fill="white"/>
<path d="M17.9108 113.062H13.304V141.489H17.9108V113.062Z" fill="#FFD000"/>
<path opacity="0.1" d="M17.9108 113.062H13.304V141.489H17.9108V113.062Z" fill="white"/>
<path d="M20.214 113.062H17.9106V141.489H20.214V113.062Z" fill="#FFD000"/>
<path opacity="0.6" d="M20.214 113.062H17.9106V141.489H20.214V113.062Z" fill="white"/>
</g>
<path d="M92.0601 44.8647L92.9295 44.8164C97.1236 44.5763 101.254 45.9237 104.5 48.5907C107.746 51.2577 109.869 55.0488 110.446 59.2099C111.557 67.2599 108.823 69.6774 109 74.0002C109.411 82.968 102.184 88.5002 102.184 88.5002L104.707 94.952C104.833 96.3825 104.674 97.8237 104.241 99.1929C103.809 100.562 103.109 101.832 102.184 102.93C101.259 104.029 100.125 104.933 98.8495 105.592C97.5735 106.251 96.1799 106.651 94.7488 106.769C91.8972 106.998 89.07 106.096 86.8772 104.259C84.6845 102.422 83.302 99.796 83.028 96.9484L79.808 63.6937C78.5039 54.4362 82.7704 45.9515 92.0601 44.8647Z" fill="#FFBF9D"/>
<path d="M102 88.5007C97.8507 88.7417 93.6289 87.6491 90 85.6777C90 85.6777 94.1185 91.7827 103 90.5007L102 88.5007Z" fill="#FF9A6C"/>
<path d="M95.996 68.3284C96.0248 68.7349 95.8978 69.1368 95.6425 69.447C95.3872 69.7572 95.0242 69.9508 94.632 69.9858C94.4413 70.0133 94.2472 70.0008 94.0612 69.9492C93.8752 69.8975 93.7011 69.8078 93.5492 69.6852C93.3973 69.5627 93.2706 69.4099 93.1768 69.2358C93.083 69.0617 93.0238 68.8698 93.0028 68.6716C92.9789 68.2663 93.1076 67.8672 93.362 67.5581C93.6163 67.249 93.9765 67.054 94.3668 67.0142C94.5575 66.9867 94.7516 66.9992 94.9376 67.0509C95.1236 67.1025 95.2977 67.1922 95.4496 67.3148C95.6015 67.4373 95.7282 67.5901 95.822 67.7642C95.9158 67.9383 95.975 68.1302 95.996 68.3284Z" fill="#263238"/>
<path d="M108.788 63.701C108.635 63.8781 107.629 63.21 106.252 63.2985C104.876 63.3871 103.902 64.1035 103.749 63.9667C103.596 63.8298 103.813 63.5883 104.232 63.2422C104.804 62.793 105.501 62.5316 106.228 62.4935C106.943 62.4539 107.653 62.6397 108.257 63.0248C108.683 63.3227 108.844 63.6125 108.788 63.701Z" fill="#263238"/>
<path d="M107.997 68.3284C108.021 68.7337 107.892 69.1328 107.638 69.4419C107.384 69.751 107.023 69.946 106.633 69.9858C106.442 70.0133 106.248 70.0008 106.062 69.9491C105.876 69.8975 105.702 69.8078 105.55 69.6852C105.398 69.5627 105.271 69.4099 105.177 69.2358C105.084 69.0617 105.024 68.8698 105.003 68.6716C104.977 68.2657 105.105 67.8652 105.36 67.5556C105.615 67.2459 105.976 67.0516 106.368 67.0142C106.558 66.9867 106.753 66.9992 106.939 67.0509C107.125 67.1025 107.299 67.1922 107.451 67.3148C107.603 67.4373 107.729 67.5901 107.823 67.7642C107.917 67.9383 107.976 68.1302 107.997 68.3284Z" fill="#263238"/>
<path d="M95.256 64.7316C95.1111 64.9087 94.0968 64.2486 92.7202 64.3291C91.3437 64.4096 90.3777 65.1341 90.2167 64.9973C90.0557 64.8604 90.2811 64.6189 90.7077 64.2728C91.2758 63.8278 91.9674 63.5691 92.688 63.5322C93.4038 63.4864 94.1152 63.6727 94.7166 64.0635C95.1674 64.3613 95.3284 64.6511 95.256 64.7316Z" fill="#263238"/>
<path d="M100.835 74.6567C101.546 74.3823 102.29 74.201 103.049 74.1173C103.403 74.061 103.725 73.9724 103.773 73.7309C103.785 73.3658 103.684 73.0059 103.483 72.7005C103.097 71.8955 102.678 71.002 102.284 70.0843C100.626 66.3571 99.4019 63.29 99.5468 63.2256C99.6917 63.1612 101.157 66.1237 102.831 69.8508C103.234 70.7685 103.636 71.646 103.982 72.4832C104.225 72.8956 104.318 73.3786 104.248 73.8517C104.204 73.9799 104.132 74.0961 104.035 74.1911C103.939 74.2862 103.821 74.3574 103.693 74.3991C103.503 74.4654 103.305 74.506 103.105 74.5198C102.356 74.6547 101.594 74.7006 100.835 74.6567Z" fill="#263238"/>
<path d="M95.359 60.4005C95.2383 60.7788 93.8537 60.6822 92.2517 60.972C90.6498 61.2618 89.3698 61.777 89.1364 61.447C89.0317 61.294 89.241 60.9318 89.7401 60.5373C90.4173 60.0516 91.1963 59.7266 92.0179 59.5871C92.8395 59.4476 93.6821 59.4973 94.4816 59.7323C95.0853 59.9416 95.4073 60.2153 95.359 60.4005Z" fill="#263238"/>
<path d="M108.086 60.827C107.869 61.149 106.903 60.8833 105.76 60.9316C104.617 60.9799 103.667 61.2617 103.425 60.9316C103.321 60.7787 103.425 60.4567 103.852 60.1266C104.397 59.7358 105.049 59.5197 105.72 59.5068C106.392 59.4784 107.056 59.6614 107.619 60.03C108.038 60.352 108.191 60.666 108.086 60.827Z" fill="#263238"/>
<path d="M109.344 55.1525C109.344 55.1525 106.663 49.6784 103.878 48.5192C100.513 47.1266 99.3133 50.8054 96.1416 50.1292C92.9699 49.453 89.7579 48.1006 86.707 50.6927C83.3743 53.5344 85.097 55.2974 85.097 59.2821C85.1453 75.4385 82.4646 80.1639 81.1927 72.629C81.0559 71.824 78.7052 71.2686 78.1659 67.799C77.4575 63.2749 76.9664 57.7526 77.7956 54.4602C78.4959 51.6909 79.9369 49.7187 82.6256 47.4808C86.8358 43.9549 92.8652 43.5363 96.9949 43.7134C101.125 43.8905 109.319 48.1006 109.344 55.1525Z" fill="#263238"/>
<path d="M81.7803 72.3236C81.7532 71.9929 81.6583 71.6713 81.5014 71.3788C81.3446 71.0864 81.1291 70.8295 80.8685 70.624C80.6079 70.4185 80.3078 70.269 79.9868 70.1847C79.6658 70.1004 79.331 70.0831 79.003 70.134C77.3447 70.3916 75.5415 71.4462 75.8474 74.8916C76.3948 81.0016 82.4162 79.1903 82.4162 79.0132C82.4162 78.8361 82.0298 74.8835 81.7803 72.3236Z" fill="#FFBF9D"/>
<path d="M80.8948 76.8303C80.8948 76.8303 80.7982 76.9188 80.6211 77.0154C80.3742 77.1475 80.0858 77.1793 79.8161 77.104C79.156 76.9269 78.52 75.9448 78.3912 74.85C78.3275 74.3266 78.3825 73.7955 78.5522 73.2963C78.5923 73.1011 78.6792 72.9186 78.8054 72.7643C78.9316 72.6101 79.0933 72.4888 79.2767 72.4108C79.3957 72.3686 79.5255 72.3688 79.6444 72.4113C79.7632 72.4538 79.8637 72.5361 79.9288 72.6443C80.0334 72.8053 80.0012 72.934 80.0334 72.9421C80.0656 72.9501 80.1542 72.8294 80.0817 72.5798C80.0362 72.4305 79.9392 72.3022 79.808 72.2176C79.6284 72.1045 79.4114 72.0669 79.2043 72.1129C78.9589 72.1861 78.7363 72.3205 78.5574 72.5036C78.3785 72.6868 78.2493 72.9125 78.1819 73.1595C77.9686 73.7126 77.894 74.3096 77.9646 74.8983C78.1175 76.1299 78.8501 77.2247 79.7517 77.4018C79.9198 77.4353 80.0934 77.4302 80.2593 77.387C80.4252 77.3438 80.5792 77.2635 80.7096 77.1523C80.8948 76.9832 80.9189 76.8464 80.8948 76.8303Z" fill="#FF9A6C"/>
<path d="M110.648 48.5191C109.706 47.8107 108.41 47.7141 107.476 46.9977C103.316 43.8042 96.6129 37.7091 90.8888 40.8959C88.7107 42.1085 85.9615 42.2125 84.0181 43.6006C83.4528 44.0475 82.9874 44.608 82.6519 45.2458C82.3164 45.8835 82.1182 46.5845 82.07 47.3036C82.07 47.3036 81.4341 46.9816 79.5021 48.5111C78.2704 49.4851 77.2642 51.5862 76.8134 53.0835C76.1452 55.3294 77.1193 57.6962 78.0772 59.8294C78.5924 60.9806 79.2364 62.2444 80.4359 62.655C81.8929 63.146 83.5029 62.0029 84.0745 60.57C84.646 59.1371 85.5476 57.6962 86.2399 56.3196C87.4474 53.9046 88.6549 51.6989 87.6648 50.1694C90.93 49.1089 93.0942 51.0056 95.9966 52.0289C97.2173 52.4594 102.143 53.276 103.5 52.9513C103.939 52.8464 104.349 52.6439 104.699 52.359C105.252 53.2599 106.124 53.9194 107.141 54.2059C108.159 54.4923 109.247 54.3848 110.189 53.9046C112.008 52.7776 112.33 49.791 110.648 48.5191Z" fill="#263238"/>
<path d="M77.4653 58.3875C77.7478 58.8294 77.9852 59.2987 78.1737 59.7882C78.3945 60.2826 78.7415 60.7102 79.18 61.0279C79.7661 61.3278 80.4411 61.405 81.0798 61.2452C81.7438 61.1164 82.3707 60.8414 82.9152 60.4402C83.3543 60.0994 83.7539 59.7106 84.1066 59.281C84.4148 58.8596 84.7568 58.4638 85.129 58.0977C84.9327 58.5852 84.6611 59.0388 84.324 59.442C83.9868 59.9161 83.5859 60.3413 83.1325 60.7059C82.5515 61.1447 81.8763 61.4424 81.1603 61.5753C80.4348 61.7551 79.6679 61.6484 79.019 61.2774C78.5341 60.9224 78.1645 60.4324 77.9564 59.8687C77.7324 59.397 77.5674 58.8995 77.4653 58.3875Z" fill="#FFD000"/>
<path d="M77.6989 63.1146C78.0674 63.394 78.474 63.619 78.9065 63.7828C79.3769 63.9318 79.8743 63.9757 80.3635 63.9116C80.9641 63.8203 81.5379 63.6007 82.046 63.2676C82.9688 62.6266 83.7521 61.805 84.3483 60.8526C84.5759 60.4394 84.8457 60.0509 85.1533 59.6934C85.0124 60.1539 84.8035 60.5907 84.5334 60.9894C83.9864 62.0378 83.1937 62.9383 82.2231 63.6137C81.6703 63.9795 81.0384 64.2085 80.3796 64.2819C79.8332 64.342 79.2805 64.2674 78.7696 64.0645C77.9485 63.6701 77.6587 63.1227 77.6989 63.1146Z" fill="#FFD000"/>
<path d="M96.7029 79.6289C96.4969 79.9662 96.3821 80.3164 96.3615 80.6697C96.3372 80.8368 96.3835 81.0047 96.4972 81.1618C96.6109 81.319 96.7894 81.4618 97.0205 81.5804C97.2599 81.7262 97.5589 81.8432 97.8964 81.9233C98.2338 82.0034 98.6015 82.0446 98.9734 82.0439C99.6443 82.0432 100.293 81.92 100.802 81.6964C101.311 81.4729 101.648 81.1636 101.752 80.8242L101.99 80.0558C100.601 79.8525 96.8061 79.6818 96.7029 79.6289Z" fill="#FF9A6C"/>
<path d="M100.948 81.1252C100.948 81.1252 100.753 81.1252 100.431 81.1411C99.9786 81.163 99.5184 81.163 99.0662 81.1411C98.4134 81.1089 97.8233 81.0007 97.4135 80.8381C96.9255 80.6348 96.6932 80.3822 96.7609 80.1285C96.7805 79.9858 96.8991 79.8462 97.1084 79.7193L96.9049 79.7485C98.3542 79.8176 99.6256 79.8734 100.524 79.9053C101.007 79.9336 101.499 79.9452 101.99 79.9399C101.532 79.884 101.054 79.8465 100.566 79.8282C99.668 79.7751 98.4136 79.7033 96.9643 79.6289H96.8287L96.7693 79.6661C96.4444 79.8636 96.3061 80.086 96.3707 80.3073C96.4353 80.5286 96.7 80.7395 97.1338 80.9152C97.6097 81.0951 98.291 81.2096 99.0323 81.2341C99.514 81.2474 99.9994 81.233 100.465 81.1916C100.639 81.1806 100.804 81.1579 100.948 81.1252Z" fill="#263238"/>
<path d="M60.4879 106.576C59.9566 106.576 52.3735 109.603 50.3771 117.041C48.3807 124.479 42.9308 151.769 42.9308 151.769L37.1428 159.787C37.1428 159.787 39.0185 174.414 49.6526 171.628C49.6526 171.628 56.7527 172.868 59.0147 165.671C61.2768 158.475 65.6641 137.005 65.6641 137.005L60.4879 106.576Z" fill="#B9B8B6"/>
<path d="M82.1472 94L78.1204 100.196L60 106.752L65.1865 160.234L63.2697 188.228C80 197.5 124.262 195.715 127 194.5C128.425 194.459 128.681 191.408 128.914 189.425C129.115 187.645 128.962 185.841 128.463 184.123L125.459 173.403C125.902 180.074 123.937 133.607 123.848 131.911L128.5 108.5C127.379 106.837 117.595 103.502 107.621 99.5154L104.399 94.5081L95.1215 101.687L82.1472 94Z" fill="#B9B8B6"/>
<path d="M128 108C128 108 131.804 111.654 132.523 114.468C133.242 117.281 148.907 149.692 148.907 149.692L156.689 151.697L158.77 155.82C159.985 158.185 160.312 160.877 159.696 163.444C159.08 166.012 157.558 168.298 155.386 169.92C155.116 170.116 154.833 170.297 154.54 170.462C150.311 172.887 142.783 172.758 138.376 167.794C134.206 163.089 122 146.176 122 146.176V125.479L128 108Z" fill="#B9B8B6"/>
<path d="M152.95 152.59L163.601 146.303L168.737 152.59L167.674 155.633L153.941 165.848C152.236 164.457 151.092 162.495 150.721 160.326C150.117 156.486 152.95 152.59 152.95 152.59Z" fill="#FFBF9D"/>
<path d="M149.569 149.337C149.569 149.442 148.66 149.337 147.324 149.788C145.597 150.385 144.068 151.446 142.904 152.855C141.754 154.295 140.806 155.885 140.087 157.581C139.815 158.307 139.478 159.008 139.08 159.674C139.188 158.901 139.405 158.147 139.724 157.436C140.357 155.646 141.291 153.977 142.485 152.501C143.707 151.009 145.361 149.932 147.219 149.418C147.979 149.167 148.794 149.139 149.569 149.337Z" fill="#263238"/>
<path d="M163.424 149.789C163.158 148.399 163.253 146.964 163.7 145.621C164.147 144.277 164.93 143.071 165.976 142.117C168.49 140.049 171.334 138.416 174.388 137.287C176.255 136.482 180.144 133.206 180.828 133.995C181.512 134.784 181.818 135.959 180.828 137.392C179.838 138.825 174.211 140.958 175 142.769C175.322 143.502 177.093 143.639 177.093 143.639C180.307 143.865 183.531 143.929 186.753 143.832C189.602 143.582 192.162 144.13 192.009 145.112C191.856 146.094 191.325 146.633 188.966 146.834C186.608 147.036 182.768 146.883 182.526 147.422C182.285 147.961 183.122 148.308 184.499 148.227C185.875 148.147 192.363 148.122 192.806 148.863C192.914 149.051 192.979 149.261 192.996 149.477C193.013 149.692 192.981 149.91 192.904 150.112C192.827 150.314 192.706 150.497 192.55 150.648C192.394 150.798 192.207 150.911 192.001 150.98L190.48 151.52C190.48 151.52 191.365 152.751 190.625 153.435C189.884 154.12 188.21 153.878 188.21 153.878L179.604 153.637C179.604 153.637 179.113 154.152 179.355 154.506C179.596 154.86 186.342 154.369 186.39 155.11C186.439 155.85 187.026 156.189 185.014 156.72C182.066 157.211 179.058 157.211 176.11 156.72C174.291 156.221 166.668 155.915 166.668 155.915L163.424 149.789Z" fill="#FFBF9D"/>
<path d="M46.4649 153.709L36.507 145.449L30.7915 151.889L31.4919 155.037L43.9372 166.758C45.7822 165.7 47.1744 164.001 47.8495 161.984C49.0892 158.434 46.4649 153.709 46.4649 153.709Z" fill="#FFBF9D"/>
<path d="M36.3943 149.747C36.8225 148.399 36.8994 146.964 36.6176 145.578C36.3359 144.192 35.7048 142.9 34.7843 141.826C32.5191 139.475 29.8704 137.526 26.9516 136.062C25.1967 135.008 21.7191 131.337 20.9382 132.037C20.4752 132.455 20.1799 133.026 20.1074 133.646C20.0348 134.265 20.1899 134.889 20.5438 135.402C21.3488 136.94 25.2289 138.727 25.092 140.699C25.0778 140.89 25.026 141.076 24.9398 141.247C24.8536 141.418 24.7346 141.57 24.5896 141.695C24.4446 141.82 24.2764 141.915 24.0946 141.975C23.9129 142.034 23.7211 142.058 23.5303 142.044C20.3183 141.896 17.1157 141.587 13.9347 141.118C11.1252 140.538 8.52508 140.78 8.55728 141.77C8.58948 142.76 9.06443 143.38 11.3828 143.839C13.7012 144.298 17.5331 144.644 17.6619 145.167C17.7907 145.69 16.9776 145.972 15.6171 145.722C14.2567 145.473 7.81668 144.708 7.29343 145.392C7.16372 145.564 7.07381 145.763 7.03018 145.974C6.98654 146.185 6.99027 146.403 7.04109 146.613C7.09191 146.822 7.18855 147.018 7.32406 147.185C7.45957 147.353 7.63057 147.488 7.82473 147.582L9.27373 148.298C9.27373 148.298 8.25138 149.417 8.90343 150.182C9.55548 150.947 11.246 150.907 11.246 150.907L19.8273 151.663C19.8273 151.663 20.254 152.235 19.9642 152.557C19.6744 152.879 13.0492 151.607 12.9123 152.34C12.7755 153.072 12.1476 153.338 14.0957 154.062C16.9698 154.895 19.9619 155.246 22.9507 155.101C24.8183 154.819 32.4336 155.366 32.4336 155.366L36.3943 149.747Z" fill="#FFBF9D"/>
<path d="M107.54 101.006C107.002 101.678 106.404 102.301 105.753 102.865C104.618 103.976 103.065 105.53 101.422 107.301C101.076 107.679 100.73 108.05 100.408 108.412L100.191 108.645L99.9894 108.396C98.7175 106.786 97.6146 105.305 96.8418 104.25C96.3881 103.714 96.0015 103.125 95.6907 102.495C96.225 102.952 96.7058 103.468 97.1236 104.033C97.9688 105.031 99.128 106.448 100.416 108.058H100.005L101.012 106.939C102.426 105.41 103.92 103.956 105.488 102.584C106.105 101.976 106.794 101.446 107.54 101.006Z" fill="#263238"/>
<path d="M61.623 120.502C61.771 120.857 61.8711 121.231 61.9209 121.613C62.0738 122.337 62.267 123.392 62.4763 124.696C62.8949 127.304 63.3377 130.927 63.708 134.936C64.0783 138.945 64.352 142.583 64.5613 145.216C64.6418 146.439 64.7223 147.478 64.7786 148.331C64.8291 148.713 64.8291 149.1 64.7786 149.482C64.6638 149.115 64.5882 148.738 64.5532 148.355C64.4405 147.622 64.3037 146.56 64.1588 145.248C63.8529 142.631 63.5148 139.001 63.1445 134.992C62.7742 130.983 62.4119 127.369 62.098 124.793C61.945 123.577 61.8162 122.539 61.7116 121.693C61.6284 121.302 61.5986 120.901 61.623 120.502Z" fill="#263238"/>
<path d="M124.606 118.676C124.721 119.132 124.789 119.599 124.808 120.068C124.896 120.978 124.993 122.282 125.073 123.908C125.258 127.128 125.347 131.636 125.363 136.579V153.09C125.389 153.56 125.37 154.032 125.307 154.498C125.202 154.039 125.151 153.569 125.154 153.098C125.089 152.188 125.025 150.876 124.977 149.258C124.864 146.038 124.824 141.53 124.816 136.587C124.808 131.644 124.767 127.161 124.687 123.924C124.647 122.387 124.614 121.099 124.59 120.085C124.552 119.615 124.557 119.144 124.606 118.676Z" fill="#263238"/>
<path d="M53.4522 165.123C53.2003 164.209 53.0147 163.279 52.8968 162.338C52.5196 160.092 51.7915 157.918 50.7394 155.898C49.6657 153.917 48.0523 152.282 46.0865 151.181C45.2411 150.777 44.3666 150.438 43.4702 150.166C43.7354 150.109 44.01 150.109 44.2752 150.166C44.9726 150.283 45.6502 150.497 46.2877 150.802C48.4029 151.857 50.1364 153.546 51.2465 155.632C52.3118 157.706 52.9884 159.957 53.2429 162.274C53.4324 163.211 53.5027 164.168 53.4522 165.123Z" fill="#263238"/>
<path d="M56.0364 154.248C55.9237 154.377 54.3217 152.727 51.7135 151.833C49.1053 150.94 46.8835 151.246 46.8352 151.077C46.7869 150.908 49.1456 150.36 51.8906 151.318C54.6357 152.276 56.1571 154.184 56.0364 154.248Z" fill="#263238"/>
<path d="M96.8901 191.656C96.8413 191.358 96.8197 191.057 96.8257 190.755C96.8257 190.119 96.8257 189.258 96.7693 188.179C96.721 185.885 96.6566 182.657 96.5761 178.688C96.391 170.638 96.1334 159.585 95.8436 147.381C95.5538 135.177 95.4008 124.076 95.4169 116.059C95.4169 112.034 95.4572 108.814 95.5055 106.56C95.5055 105.481 95.5618 104.62 95.586 103.984C95.5792 103.682 95.6008 103.38 95.6504 103.082C95.6728 103.382 95.6728 103.684 95.6504 103.984C95.6504 104.62 95.6504 105.481 95.6504 106.56C95.6504 108.854 95.6987 112.09 95.7309 116.051C95.8114 124.101 96.0448 135.137 96.3185 147.365C96.5922 159.593 96.8337 170.662 96.8981 178.68C96.8981 182.705 96.8981 185.925 96.8981 188.179C96.8981 189.258 96.8981 190.119 96.8579 190.755C96.8892 191.054 96.8999 191.356 96.8901 191.656Z" fill="#263238"/>
<path d="M45.9979 153.37C45.9979 153.305 46.8029 153.909 47.4469 155.246C47.8415 156.007 48.1287 156.82 48.3002 157.661C48.4655 158.728 48.4655 159.814 48.3002 160.881C48.18 161.949 47.8634 162.986 47.3664 163.94C46.936 164.713 46.3427 165.383 45.6276 165.904C44.9987 166.426 44.2068 166.71 43.3896 166.709C44.0971 166.416 44.7673 166.041 45.3861 165.59C46.0209 165.069 46.5439 164.426 46.9236 163.698C47.3544 162.788 47.6266 161.81 47.7286 160.808C47.8735 159.804 47.8735 158.785 47.7286 157.781C47.5903 156.952 47.3553 156.141 47.0283 155.366C46.5292 154.086 45.9174 153.418 45.9979 153.37Z" fill="#263238"/>
<path d="M155.937 166.967C155.937 166.967 155.679 166.967 155.269 166.765C154.693 166.511 154.151 166.184 153.659 165.791C151.972 164.492 150.818 162.621 150.415 160.531C150.012 158.44 150.387 156.274 151.469 154.441C151.785 153.89 152.169 153.381 152.612 152.927C152.926 152.621 153.128 152.476 153.152 152.501C153.176 152.525 152.508 153.249 151.807 154.626C150.871 156.407 150.569 158.453 150.951 160.428C151.333 162.404 152.376 164.19 153.908 165.493C155.06 166.508 155.977 166.878 155.937 166.967Z" fill="#263238"/>
<path d="M176.408 140.41C176.473 140.475 176.006 140.917 175.418 141.698C175.08 142.145 174.846 142.662 174.734 143.212C174.605 143.831 174.621 144.556 174.509 145.353C174.413 146.037 174.182 146.695 173.829 147.29C173.477 147.884 173.01 148.402 172.456 148.814C172.032 149.196 171.495 149.428 170.926 149.474C170.886 149.386 171.482 149.161 172.214 148.508C173.157 147.673 173.778 146.534 173.969 145.288C174.022 144.56 174.114 143.834 174.243 143.115C174.397 142.515 174.695 141.963 175.112 141.505C175.45 141.042 175.895 140.666 176.408 140.41Z" fill="#FF9A6C"/>
<path d="M21.1394 148.879C21.1394 149.024 18.4588 149.169 15.1502 149.008C11.8417 148.847 9.18514 148.46 9.20124 148.307C9.21734 148.155 11.8819 148.307 15.1744 148.46C18.4668 148.613 21.1394 148.718 21.1394 148.879Z" fill="#FF9A6C"/>
<path d="M27.2332 148.42C27.2332 148.477 26.5973 148.372 25.8406 147.736C25.3505 147.31 24.9606 146.781 24.699 146.187C24.4374 145.592 24.3104 144.948 24.3272 144.299C24.3845 143.612 24.5085 142.933 24.6975 142.27C24.8384 141.745 24.9061 141.203 24.8987 140.66C24.8525 140.175 24.7415 139.699 24.5687 139.243C24.5687 139.187 25.1563 139.613 25.2851 140.628C25.3502 141.198 25.3175 141.775 25.1885 142.334C25.037 142.973 24.9321 143.621 24.8746 144.274C24.8575 145.442 25.2998 146.569 26.1062 147.414C26.7261 148.138 27.2735 148.34 27.2332 148.42Z" fill="#FF9A6C"/>
<path d="M177.906 150.328C177.906 150.175 180.779 150.288 184.289 150.578C187.799 150.867 190.641 151.238 190.633 151.383C190.625 151.528 187.759 151.423 184.249 151.125C180.739 150.827 177.897 150.473 177.906 150.328Z" fill="#FF9A6C"/>
<path d="M95.0386 101.971C94.717 103.043 94.3106 104.087 93.823 105.095C93.6057 105.578 93.3803 106.101 93.1468 106.64C92.9159 107.255 92.6471 107.854 92.3418 108.435C92.2256 108.626 92.0566 108.78 91.8552 108.877C91.6538 108.974 91.4286 109.011 91.2068 108.983C90.8168 108.88 90.4541 108.693 90.1442 108.435L88.2444 107.139C85.6522 105.352 83.3258 103.702 81.6514 102.494C80.7152 101.882 79.832 101.193 79.011 100.434C80.0083 100.936 80.9639 101.518 81.8687 102.172C83.5995 103.307 85.9662 104.893 88.5583 106.688L90.4501 107.993C90.6968 108.206 90.9844 108.368 91.2953 108.468C91.4222 108.483 91.5508 108.459 91.6642 108.401C91.7776 108.342 91.8707 108.25 91.9313 108.137C92.5431 107.027 93.0502 105.827 93.5413 104.917C93.9576 103.895 94.4584 102.91 95.0386 101.971Z" fill="#263238"/>
<path d="M102.488 67.7287C102.222 68.6072 102.259 69.5503 102.595 70.4389C102.931 71.3274 103.551 72.1217 104.376 72.7215C105.201 73.3212 106.195 73.6996 107.232 73.8089C108.269 73.9182 109.303 73.7534 110.203 73.3354C111.103 72.9174 111.828 72.265 112.289 71.4603C112.749 70.6557 112.923 69.7349 112.789 68.8141C112.655 67.8934 112.218 67.014 111.535 66.2868C110.851 65.5596 109.951 65.0173 108.948 64.7283C108.279 64.5354 107.581 64.4601 106.893 64.5067C106.206 64.5533 105.543 64.7208 104.943 64.9996C104.342 65.2785 103.816 65.6631 103.395 66.1315C102.974 66.5998 102.666 67.1426 102.488 67.7287Z" fill="#407BFF" fill-opacity="0.2"/>
<path d="M88.8824 66.791C88.62 67.6671 88.6599 68.6066 88.9972 69.4913C89.3344 70.3759 89.9538 71.166 90.7774 71.7621C91.6009 72.3581 92.5917 72.7334 93.6249 72.8406C94.6582 72.9479 95.6876 72.7822 96.5834 72.3646C97.4793 71.947 98.2015 71.2961 98.6591 70.494C99.1167 69.6918 99.2892 68.7743 99.1548 67.8571C99.0204 66.9398 98.5852 66.0638 97.9039 65.3396C97.2227 64.6153 96.3259 64.0751 95.3267 63.7871C94.6584 63.5965 93.9615 63.523 93.2757 63.5708C92.59 63.6187 91.9289 63.7869 91.3303 64.066C90.7317 64.345 90.2074 64.7293 89.7873 65.1969C89.3673 65.6645 89.0598 66.2062 88.8824 66.791Z" fill="#407BFF" fill-opacity="0.2"/>
<path opacity="0.6" d="M102.488 67.7287C102.222 68.6072 102.259 69.5503 102.595 70.4389C102.931 71.3274 103.551 72.1217 104.376 72.7215C105.201 73.3212 106.195 73.6996 107.232 73.8089C108.269 73.9182 109.303 73.7534 110.203 73.3354C111.103 72.9174 111.828 72.265 112.289 71.4603C112.749 70.6557 112.923 69.7349 112.789 68.8141C112.655 67.8934 112.218 67.014 111.535 66.2868C110.851 65.5596 109.951 65.0173 108.948 64.7283C108.279 64.5354 107.581 64.4601 106.893 64.5067C106.206 64.5533 105.543 64.7208 104.943 64.9996C104.342 65.2785 103.816 65.6631 103.395 66.1315C102.974 66.5998 102.666 67.1426 102.488 67.7287Z" fill="white" fill-opacity="0.5"/>
<path opacity="0.6" d="M88.8824 66.791C88.62 67.6671 88.6599 68.6066 88.9972 69.4913C89.3344 70.3759 89.9538 71.166 90.7774 71.7621C91.6009 72.3581 92.5917 72.7334 93.6249 72.8406C94.6582 72.9479 95.6876 72.7822 96.5834 72.3646C97.4793 71.947 98.2015 71.2961 98.6591 70.494C99.1167 69.6918 99.2892 68.7743 99.1548 67.8571C99.0204 66.9398 98.5852 66.0638 97.9039 65.3396C97.2227 64.6153 96.3259 64.0751 95.3267 63.7871C94.6584 63.5965 93.9615 63.523 93.2757 63.5708C92.59 63.6187 91.9289 63.7869 91.3303 64.066C90.7317 64.345 90.2074 64.7293 89.7873 65.1969C89.3673 65.6645 89.0598 66.2062 88.8824 66.791Z" fill="white" fill-opacity="0.5"/>
<path opacity="0.9" d="M109.79 73.4888C108.675 73.9155 107.402 73.9627 106.205 73.6217C105.536 73.4323 104.909 73.1295 104.359 72.7305C103.81 72.3316 103.348 71.8442 103.002 71.2965C102.655 70.7488 102.43 70.1515 102.339 69.5387C102.248 68.9259 102.293 68.3096 102.472 67.7253C102.806 66.6868 103.552 65.8085 104.578 65.2484L109.79 73.4888Z" fill="white" fill-opacity="0.5"/>
<path opacity="0.9" d="M96.5268 72.4342C95.3291 72.9797 93.9107 73.0682 92.5832 72.6801C91.5862 72.3913 90.6913 71.8522 90.0102 71.13C89.3292 70.4078 88.8922 69.5346 88.7537 68.6193C88.6153 67.704 88.7815 66.7872 89.2317 65.9834C89.6819 65.1796 90.3961 64.5243 91.2852 64.0994L96.5268 72.4342Z" fill="white" fill-opacity="0.5"/>
<path d="M106.088 74.0063C107.179 74.3211 108.334 74.3456 109.406 74.0768C110.478 73.808 111.419 73.2578 112.109 72.4961C112.8 71.7343 113.209 70.7952 113.285 69.7976C113.361 68.8 113.101 67.7888 112.537 66.892C111.973 65.9951 111.131 65.2531 110.117 64.7597C109.103 64.2663 107.964 64.0438 106.842 64.1204C105.721 64.1969 104.668 64.569 103.818 65.1897C102.967 65.8103 102.356 66.6515 102.064 67.6068C101.867 68.2395 101.816 68.9071 101.912 69.5714C102.008 70.2358 102.25 70.8837 102.624 71.4782C102.998 72.0727 103.496 72.602 104.091 73.0359C104.685 73.4697 105.364 73.7995 106.088 74.0063ZM108.816 65.1095C109.754 65.3654 110.601 65.8605 111.247 66.5314C111.893 67.2024 112.31 68.0187 112.443 68.8762C112.577 69.7336 112.421 70.5933 111.997 71.3453C111.572 72.0973 110.898 72.7076 110.06 73.0981C109.222 73.4887 108.258 73.6418 107.292 73.5378C106.325 73.4339 105.401 73.0777 104.635 72.5146C103.87 71.9516 103.299 71.2074 102.995 70.377C102.691 69.5466 102.668 68.6678 102.929 67.8528C103.271 66.7831 104.078 65.8975 105.178 65.3849C106.278 64.8724 107.584 64.7735 108.816 65.1095Z" fill="#263238"/>
<path d="M92.4663 73.0663C93.5576 73.3839 94.7132 73.4112 95.7866 73.1447C96.86 72.8781 97.8029 72.3297 98.4958 71.5689C99.1887 70.8082 99.6003 69.8694 99.6786 68.8714C99.7568 67.8735 99.4982 66.8614 98.9354 65.9633C98.3727 65.0653 97.5311 64.3219 96.5174 63.8272C95.5037 63.3324 94.3635 63.1088 93.2413 63.1845C92.1192 63.2602 91.0655 63.6319 90.2139 64.2524C89.3624 64.873 88.7512 65.7144 88.4579 66.6702C88.071 67.9458 88.2748 69.3329 89.0252 70.5304C89.7757 71.7279 91.0121 72.6391 92.4663 73.0663ZM95.21 64.1728C96.1487 64.4288 96.9952 64.9239 97.6413 65.5948C98.2875 66.2658 98.7039 67.0821 98.8375 67.9396C98.971 68.797 98.8156 69.6567 98.391 70.4087C97.9665 71.1607 97.2921 71.771 96.4541 72.1615C95.616 72.552 94.6523 72.7051 93.6861 72.6012C92.7198 72.4973 91.795 72.141 91.0296 71.578C90.2642 71.015 89.6929 70.2708 89.389 69.4404C89.085 68.61 89.062 67.7312 89.323 66.9162C89.6666 65.8413 90.4794 64.9523 91.5865 64.4405C92.6935 63.9287 94.0062 63.8351 95.2419 64.1798L95.21 64.1728Z" fill="#263238"/>
<path d="M99.7203 68.7125C99.8612 68.5762 100.035 68.4694 100.229 68.3989C100.423 68.3285 100.634 68.296 100.848 68.3037C101.062 68.3113 101.275 68.3588 101.472 68.4432C101.668 68.5276 101.845 68.6469 101.99 68.7934L102.666 68.2945C102.443 68.0687 102.172 67.8832 101.871 67.7491C101.571 67.6151 101.246 67.5354 100.916 67.5147C100.586 67.4941 100.259 67.533 99.9539 67.6291C99.6487 67.7252 99.372 67.8765 99.1406 68.0738L99.7203 68.7125Z" fill="#263238"/>
<path d="M77.3509 70.8489L88.8519 69.0132L88.6398 68.2194L77.1547 70.0586L77.3509 70.8489Z" fill="#263238"/>
</svg>
