<svg width="200" height="200" viewBox="0 0 200 200" fill="none" xmlns="http://www.w3.org/2000/svg">
<path fill-rule="evenodd" clip-rule="evenodd" d="M95.3511 40.0786C119.484 41.5624 131.191 65.3973 145.943 82.1754C157.899 95.7741 168.961 109.409 171.286 126.445C173.971 146.122 175.558 168.605 159.663 182.721C143.717 196.882 117.964 195.809 95.3511 193.883C72.1366 194.322 53.3796 187.342 42.4481 172.737C26.9316 160.174 13.0786 144.922 12.0648 126.445C11.0113 107.244 22.9446 90.1752 37.1121 75.4837C52.9597 59.05 70.8381 38.5713 95.3511 40.0786Z" fill="#FFF3CC"/>
<path d="M92.0601 44.8647L92.9295 44.8164C97.1236 44.5763 101.254 45.9237 104.5 48.5907C107.746 51.2577 109.869 55.0488 110.446 59.2099C111.557 67.2599 108.823 69.6774 109 74.0002C109.411 82.968 102.184 88.5002 102.184 88.5002L104.707 94.952C104.833 96.3825 104.674 97.8237 104.241 99.1929C103.809 100.562 103.109 101.832 102.184 102.93C101.259 104.029 100.125 104.933 98.8495 105.592C97.5735 106.251 96.1799 106.651 94.7488 106.769C91.8972 106.998 89.07 106.096 86.8772 104.259C84.6845 102.422 83.302 99.796 83.028 96.9484L79.808 63.6937C78.5039 54.4362 82.7704 45.9515 92.0601 44.8647Z" fill="#FFBF9D"/>
<path d="M102 88.5007C97.8507 88.7417 93.6289 87.6491 90 85.6777C90 85.6777 94.1185 91.7827 103 90.5007L102 88.5007Z" fill="#FF9A6C"/>
<path d="M95.996 68.3284C96.0248 68.7349 95.8978 69.1368 95.6425 69.447C95.3872 69.7572 95.0242 69.9508 94.632 69.9858C94.4413 70.0133 94.2472 70.0008 94.0612 69.9492C93.8752 69.8975 93.7011 69.8078 93.5492 69.6852C93.3973 69.5627 93.2706 69.4099 93.1768 69.2358C93.083 69.0617 93.0238 68.8698 93.0028 68.6716C92.9789 68.2663 93.1076 67.8672 93.362 67.5581C93.6163 67.249 93.9765 67.054 94.3668 67.0142C94.5575 66.9867 94.7516 66.9992 94.9376 67.0509C95.1236 67.1025 95.2977 67.1922 95.4496 67.3148C95.6015 67.4373 95.7282 67.5901 95.822 67.7642C95.9158 67.9383 95.975 68.1302 95.996 68.3284Z" fill="#263238"/>
<path d="M108.788 63.701C108.635 63.8781 107.629 63.21 106.252 63.2985C104.876 63.3871 103.902 64.1035 103.749 63.9667C103.596 63.8298 103.813 63.5883 104.232 63.2422C104.804 62.793 105.501 62.5316 106.228 62.4935C106.943 62.4539 107.653 62.6397 108.257 63.0248C108.683 63.3227 108.844 63.6125 108.788 63.701Z" fill="#263238"/>
<path d="M107.997 68.3284C108.021 68.7337 107.892 69.1328 107.638 69.4419C107.384 69.751 107.023 69.946 106.633 69.9858C106.442 70.0133 106.248 70.0008 106.062 69.9491C105.876 69.8975 105.702 69.8078 105.55 69.6852C105.398 69.5627 105.271 69.4099 105.177 69.2358C105.084 69.0617 105.024 68.8698 105.003 68.6716C104.977 68.2657 105.105 67.8652 105.36 67.5556C105.615 67.2459 105.976 67.0516 106.368 67.0142C106.558 66.9867 106.753 66.9992 106.939 67.0509C107.125 67.1025 107.299 67.1922 107.451 67.3148C107.603 67.4373 107.729 67.5901 107.823 67.7642C107.917 67.9383 107.976 68.1302 107.997 68.3284Z" fill="#263238"/>
<path d="M95.256 64.7316C95.1111 64.9087 94.0968 64.2486 92.7202 64.3291C91.3437 64.4096 90.3777 65.1341 90.2167 64.9973C90.0557 64.8604 90.2811 64.6189 90.7077 64.2728C91.2758 63.8278 91.9674 63.5691 92.688 63.5322C93.4038 63.4864 94.1152 63.6727 94.7166 64.0635C95.1674 64.3613 95.3284 64.6511 95.256 64.7316Z" fill="#263238"/>
<path d="M100.835 74.6567C101.546 74.3823 102.29 74.201 103.049 74.1173C103.403 74.061 103.725 73.9724 103.773 73.7309C103.785 73.3658 103.684 73.0059 103.483 72.7005C103.097 71.8955 102.678 71.002 102.284 70.0843C100.626 66.3571 99.4019 63.29 99.5468 63.2256C99.6917 63.1612 101.157 66.1237 102.831 69.8508C103.234 70.7685 103.636 71.646 103.982 72.4832C104.225 72.8956 104.318 73.3786 104.248 73.8517C104.204 73.9799 104.132 74.0961 104.035 74.1911C103.939 74.2862 103.821 74.3574 103.693 74.3991C103.503 74.4654 103.305 74.506 103.105 74.5198C102.356 74.6547 101.594 74.7006 100.835 74.6567Z" fill="#263238"/>
<path d="M95.359 60.4005C95.2383 60.7788 93.8537 60.6822 92.2517 60.972C90.6498 61.2618 89.3698 61.777 89.1364 61.447C89.0317 61.294 89.241 60.9318 89.7401 60.5373C90.4173 60.0516 91.1963 59.7266 92.0179 59.5871C92.8395 59.4476 93.6821 59.4973 94.4816 59.7323C95.0853 59.9416 95.4073 60.2153 95.359 60.4005Z" fill="#263238"/>
<path d="M108.086 60.827C107.869 61.149 106.903 60.8833 105.76 60.9316C104.617 60.9799 103.667 61.2617 103.425 60.9316C103.321 60.7787 103.425 60.4567 103.852 60.1266C104.397 59.7358 105.049 59.5197 105.72 59.5068C106.392 59.4784 107.056 59.6614 107.619 60.03C108.038 60.352 108.191 60.666 108.086 60.827Z" fill="#263238"/>
<path d="M109.344 55.1525C109.344 55.1525 106.663 49.6784 103.878 48.5192C100.513 47.1266 99.3133 50.8054 96.1416 50.1292C92.9699 49.453 89.7579 48.1006 86.707 50.6927C83.3743 53.5344 85.097 55.2974 85.097 59.2821C85.1453 75.4385 82.4646 80.1639 81.1927 72.629C81.0559 71.824 78.7052 71.2686 78.1659 67.799C77.4575 63.2749 76.9664 57.7526 77.7956 54.4602C78.4959 51.6909 79.9369 49.7187 82.6256 47.4808C86.8358 43.9549 92.8652 43.5363 96.9949 43.7134C101.125 43.8905 109.319 48.1006 109.344 55.1525Z" fill="#263238"/>
<path d="M81.7803 72.3236C81.7532 71.9929 81.6583 71.6713 81.5014 71.3788C81.3446 71.0864 81.1291 70.8295 80.8685 70.624C80.6079 70.4185 80.3078 70.269 79.9868 70.1847C79.6658 70.1004 79.331 70.0831 79.003 70.134C77.3447 70.3916 75.5415 71.4462 75.8474 74.8916C76.3948 81.0016 82.4162 79.1903 82.4162 79.0132C82.4162 78.8361 82.0298 74.8835 81.7803 72.3236Z" fill="#FFBF9D"/>
<path d="M80.8948 76.8303C80.8948 76.8303 80.7982 76.9188 80.6211 77.0154C80.3742 77.1475 80.0858 77.1793 79.8161 77.104C79.156 76.9269 78.52 75.9448 78.3912 74.85C78.3275 74.3266 78.3825 73.7955 78.5522 73.2963C78.5923 73.1011 78.6792 72.9186 78.8054 72.7643C78.9316 72.6101 79.0933 72.4888 79.2767 72.4108C79.3957 72.3686 79.5255 72.3688 79.6444 72.4113C79.7632 72.4538 79.8637 72.5361 79.9288 72.6443C80.0334 72.8053 80.0012 72.934 80.0334 72.9421C80.0656 72.9501 80.1542 72.8294 80.0817 72.5798C80.0362 72.4305 79.9392 72.3022 79.808 72.2176C79.6284 72.1045 79.4114 72.0669 79.2043 72.1129C78.9589 72.1861 78.7363 72.3205 78.5574 72.5036C78.3785 72.6868 78.2493 72.9125 78.1819 73.1595C77.9686 73.7126 77.894 74.3096 77.9646 74.8983C78.1175 76.1299 78.8501 77.2247 79.7517 77.4018C79.9198 77.4353 80.0934 77.4302 80.2593 77.387C80.4252 77.3438 80.5792 77.2635 80.7096 77.1523C80.8948 76.9832 80.9189 76.8464 80.8948 76.8303Z" fill="#FF9A6C"/>
<path d="M110.648 48.5191C109.706 47.8107 108.41 47.7141 107.476 46.9977C103.316 43.8042 96.6129 37.7091 90.8888 40.8959C88.7107 42.1085 85.9615 42.2125 84.0181 43.6006C83.4528 44.0475 82.9874 44.608 82.6519 45.2458C82.3164 45.8835 82.1182 46.5845 82.07 47.3036C82.07 47.3036 81.4341 46.9816 79.5021 48.5111C78.2704 49.4851 77.2642 51.5862 76.8134 53.0835C76.1452 55.3294 77.1193 57.6962 78.0772 59.8294C78.5924 60.9806 79.2364 62.2444 80.4359 62.655C81.8929 63.146 83.5029 62.0029 84.0745 60.57C84.646 59.1371 85.5476 57.6962 86.2399 56.3196C87.4474 53.9046 88.6549 51.6989 87.6648 50.1694C90.93 49.1089 93.0942 51.0056 95.9966 52.0289C97.2173 52.4594 102.143 53.276 103.5 52.9513C103.939 52.8464 104.349 52.6439 104.699 52.359C105.252 53.2599 106.124 53.9194 107.141 54.2059C108.159 54.4923 109.247 54.3848 110.189 53.9046C112.008 52.7776 112.33 49.791 110.648 48.5191Z" fill="#263238"/>
<path d="M77.4653 58.3875C77.7478 58.8294 77.9852 59.2987 78.1737 59.7882C78.3945 60.2826 78.7415 60.7102 79.18 61.0279C79.7661 61.3278 80.4411 61.405 81.0798 61.2452C81.7438 61.1164 82.3707 60.8414 82.9152 60.4402C83.3543 60.0994 83.7539 59.7106 84.1066 59.281C84.4148 58.8596 84.7568 58.4638 85.129 58.0977C84.9327 58.5852 84.6611 59.0388 84.324 59.442C83.9868 59.9161 83.5859 60.3413 83.1325 60.7059C82.5515 61.1447 81.8763 61.4424 81.1603 61.5753C80.4348 61.7551 79.6679 61.6484 79.019 61.2774C78.5341 60.9224 78.1645 60.4324 77.9564 59.8687C77.7324 59.397 77.5674 58.8995 77.4653 58.3875Z" fill="#FFD000"/>
<path d="M77.6989 63.1146C78.0674 63.394 78.474 63.619 78.9065 63.7828C79.3769 63.9318 79.8743 63.9757 80.3635 63.9116C80.9641 63.8203 81.5379 63.6007 82.046 63.2676C82.9688 62.6266 83.7521 61.805 84.3483 60.8526C84.5759 60.4394 84.8457 60.0509 85.1533 59.6934C85.0124 60.1539 84.8035 60.5907 84.5334 60.9894C83.9864 62.0378 83.1937 62.9383 82.2231 63.6137C81.6703 63.9795 81.0384 64.2085 80.3796 64.2819C79.8332 64.342 79.2805 64.2674 78.7696 64.0645C77.9485 63.6701 77.6587 63.1227 77.6989 63.1146Z" fill="#FFD000"/>
<path d="M96.7029 79.6289C96.4969 79.9662 96.3821 80.3164 96.3615 80.6697C96.3372 80.8368 96.3835 81.0047 96.4972 81.1618C96.6109 81.319 96.7894 81.4618 97.0205 81.5804C97.2599 81.7262 97.5589 81.8432 97.8964 81.9233C98.2338 82.0034 98.6015 82.0446 98.9734 82.0439C99.6443 82.0432 100.293 81.92 100.802 81.6964C101.311 81.4729 101.648 81.1636 101.752 80.8242L101.99 80.0558C100.601 79.8525 96.8061 79.6818 96.7029 79.6289Z" fill="#FF9A6C"/>
<path d="M100.948 81.1252C100.948 81.1252 100.753 81.1252 100.431 81.1411C99.9786 81.163 99.5184 81.163 99.0662 81.1411C98.4134 81.1089 97.8233 81.0007 97.4135 80.8381C96.9255 80.6348 96.6932 80.3822 96.7609 80.1285C96.7805 79.9858 96.8991 79.8462 97.1084 79.7193L96.9049 79.7485C98.3542 79.8176 99.6256 79.8734 100.524 79.9053C101.007 79.9336 101.499 79.9452 101.99 79.9399C101.532 79.884 101.054 79.8465 100.566 79.8282C99.668 79.7751 98.4136 79.7033 96.9643 79.6289H96.8287L96.7693 79.6661C96.4444 79.8636 96.3061 80.086 96.3707 80.3073C96.4353 80.5286 96.7 80.7395 97.1338 80.9152C97.6097 81.0951 98.291 81.2096 99.0323 81.2341C99.514 81.2474 99.9994 81.233 100.465 81.1916C100.639 81.1806 100.804 81.1579 100.948 81.1252Z" fill="#263238"/>
<path d="M82.1472 94L78.1204 100.196C70.1368 103.247 60.6722 106.054 60 107.5L65.1865 160.234L63.2697 188.228C80 197.5 124.262 195.715 127 194.5C128.425 194.459 128.681 191.408 128.914 189.425C129.115 187.645 128.962 185.841 128.463 184.123L125.459 173.403C125.902 180.074 123.937 133.607 123.848 131.911L128.5 108.5C127.379 106.837 117.595 103.502 107.621 99.5154L104.399 94.5081L95.1215 101.687L82.1472 94Z" fill="#B9B8B6"/>
<path d="M127.614 108C127.614 108 120.719 134.687 120 137.5C119.281 140.313 134.093 149.692 134.093 149.692L126.311 151.697L124.23 155.82C123.015 158.185 122.688 160.877 123.304 163.444C123.92 166.012 125.442 168.298 127.614 169.92C127.884 170.116 128.122 170.261 128.459 170.462C136.875 175.461 146.593 164.464 151 159.5C155.17 154.795 151.744 144.932 148.5 136.5C145.816 129.525 138 120.5 138 120.5L127.614 108Z" fill="#B9B8B6"/>
<path d="M60.3127 107C60.3127 107 65.281 133.687 66 136.5C66.719 139.313 53.8333 148.692 53.8333 148.692L66 151.5L63.6961 154.82C64.9115 157.185 65.2387 159.877 64.6225 162.444C64.0064 165.012 62.4846 167.298 60.3127 168.92C60.0421 169.116 59.804 169.261 59.4668 169.462C51.0517 174.461 41.3333 163.464 36.9263 158.5C32.7562 153.795 36.1821 143.932 39.4263 135.5C42.11 128.525 49.9263 119.5 49.9263 119.5L60.3127 107Z" fill="#B9B8B6"/>
<path d="M147.532 155.762C147.435 155.801 147.189 154.919 146.267 153.852C145.061 152.479 143.501 151.464 141.758 150.918C139.99 150.397 138.16 150.12 136.318 150.094C135.543 150.117 134.767 150.07 134 149.953C134.756 149.76 135.536 149.676 136.315 149.704C138.212 149.613 140.11 149.848 141.927 150.397C143.77 150.965 145.392 152.089 146.57 153.616C147.089 154.225 147.423 154.969 147.532 155.762Z" fill="#263238"/>
<path d="M107.54 101.006C107.002 101.678 106.404 102.301 105.753 102.865C104.618 103.976 103.065 105.53 101.422 107.301C101.076 107.679 100.73 108.05 100.408 108.412L100.191 108.645L99.9894 108.396C98.7175 106.786 97.6146 105.305 96.8418 104.25C96.3881 103.714 96.0015 103.125 95.6907 102.495C96.225 102.952 96.7058 103.468 97.1236 104.033C97.9688 105.031 99.128 106.448 100.416 108.058H100.005L101.012 106.939C102.426 105.41 103.92 103.956 105.488 102.584C106.105 101.976 106.794 101.446 107.54 101.006Z" fill="#263238"/>
<path d="M61.623 120.502C61.771 120.857 61.8711 121.231 61.9209 121.613C62.0738 122.337 62.267 123.392 62.4763 124.696C62.8949 127.304 63.3377 130.927 63.708 134.936C64.0783 138.945 64.352 142.583 64.5613 145.216C64.6418 146.439 64.7223 147.478 64.7786 148.331C64.8291 148.713 64.8291 149.1 64.7786 149.482C64.6638 149.115 64.5882 148.738 64.5532 148.355C64.4405 147.622 64.3037 146.56 64.1588 145.248C63.8529 142.631 63.5148 139.001 63.1445 134.992C62.7742 130.983 62.4119 127.369 62.098 124.793C61.945 123.577 61.8162 122.539 61.7116 121.693C61.6284 121.302 61.5986 120.901 61.623 120.502Z" fill="#263238"/>
<path d="M124.606 118.676C124.721 119.132 124.789 119.599 124.808 120.068C124.896 120.978 124.993 122.282 125.073 123.908C125.258 127.128 125.347 131.636 125.363 136.579V153.09C125.389 153.56 125.37 154.032 125.307 154.498C125.202 154.039 125.151 153.569 125.154 153.098C125.089 152.188 125.025 150.876 124.977 149.258C124.864 146.038 124.824 141.53 124.816 136.587C124.808 131.644 124.767 127.161 124.687 123.924C124.647 122.387 124.614 121.099 124.59 120.085C124.552 119.615 124.557 119.144 124.606 118.676Z" fill="#263238"/>
<path d="M53.9709 149.203C53.0943 148.842 52.2449 148.418 51.4293 147.935C49.4228 146.857 47.2593 146.101 45.0179 145.694C42.7946 145.329 40.5134 145.602 38.4389 146.481C37.6021 146.902 36.7983 147.385 36.0342 147.927C36.1511 147.682 36.3193 147.465 36.5275 147.291C37.0466 146.811 37.631 146.407 38.2632 146.09C40.3929 145.065 42.7894 144.729 45.1187 145.131C47.41 145.559 49.6034 146.404 51.5905 147.622C52.4473 148.047 53.2471 148.578 53.9709 149.203Z" fill="#263238"/>
<path d="M54.3478 148.618C54.4097 148.777 52.2051 149.433 50.2049 151.33C48.2047 153.228 47.4465 155.338 47.2743 155.303C47.1021 155.267 47.7097 152.923 49.8304 150.934C51.951 148.945 54.3466 148.481 54.3478 148.618Z" fill="#263238"/>
<path d="M96.8901 191.656C96.8413 191.358 96.8197 191.057 96.8257 190.755C96.8257 190.119 96.8257 189.258 96.7693 188.179C96.721 185.885 96.6566 182.657 96.5761 178.688C96.391 170.638 96.1334 159.585 95.8436 147.381C95.5538 135.177 95.4008 124.076 95.4169 116.059C95.4169 112.034 95.4572 108.814 95.5055 106.56C95.5055 105.481 95.5618 104.62 95.586 103.984C95.5792 103.682 95.6008 103.38 95.6504 103.082C95.6728 103.382 95.6728 103.684 95.6504 103.984C95.6504 104.62 95.6504 105.481 95.6504 106.56C95.6504 108.854 95.6987 112.09 95.7309 116.051C95.8114 124.101 96.0448 135.137 96.3185 147.365C96.5922 159.593 96.8337 170.662 96.8981 178.68C96.8981 182.705 96.8981 185.925 96.8981 188.179C96.8981 189.258 96.8981 190.119 96.8579 190.755C96.8892 191.054 96.8999 191.356 96.8901 191.656Z" fill="#263238"/>
<path d="M59.3348 165.494C59.3172 165.556 58.7083 164.755 58.4548 163.293C58.2838 162.453 58.2301 161.593 58.2954 160.737C58.4285 159.666 58.7259 158.621 59.1771 157.64C59.5853 156.645 60.1737 155.735 60.9129 154.954C61.5385 154.328 62.2926 153.846 63.1231 153.541C63.8708 153.211 64.7104 153.154 65.4959 153.379C64.7354 153.467 63.9879 153.645 63.2694 153.909C62.5163 154.236 61.837 154.711 61.2726 155.307C60.609 156.065 60.0795 156.931 59.707 157.866C59.2928 158.792 59.0137 159.772 58.8782 160.777C58.784 161.613 58.7881 162.457 58.8905 163.292C59.02 164.66 59.4254 165.47 59.3348 165.494Z" fill="#263238"/>
<path d="M132.416 169.978C132.416 169.978 132.534 169.908 132.62 169.623C132.754 169.247 132.834 168.817 132.859 168.346C132.966 166.768 132.537 164.846 131.65 162.94C130.763 161.035 129.481 159.278 128.045 158C127.618 157.613 127.181 157.282 126.745 157.013C126.445 156.837 126.278 156.767 126.279 156.795C126.281 156.822 126.958 157.261 127.985 158.251C129.327 159.524 130.515 161.199 131.352 162.999C132.189 164.8 132.627 166.619 132.592 168.158C132.584 169.344 132.352 169.913 132.416 169.978Z" fill="#263238"/>
<path d="M83.9919 170.882C83.8721 170.964 85.2598 173.262 87.2536 175.907C89.2474 178.552 91.0609 180.531 91.1783 180.432C91.2957 180.333 89.6708 178.215 87.6927 175.579C85.7146 172.943 84.125 170.791 83.9919 170.882Z" fill="#FF9A6C"/>
<path d="M95.0386 101.971C94.717 103.043 94.3106 104.087 93.823 105.095C93.6057 105.578 93.3803 106.101 93.1468 106.64C92.9159 107.255 92.6471 107.854 92.3418 108.435C92.2256 108.626 92.0566 108.78 91.8552 108.877C91.6538 108.974 91.4286 109.011 91.2068 108.983C90.8168 108.88 90.4541 108.693 90.1442 108.435L88.2444 107.139C85.6522 105.352 83.3258 103.702 81.6514 102.494C80.7152 101.882 79.832 101.193 79.011 100.434C80.0083 100.936 80.9639 101.518 81.8687 102.172C83.5995 103.307 85.9662 104.893 88.5583 106.688L90.4501 107.993C90.6968 108.206 90.9844 108.368 91.2953 108.468C91.4222 108.483 91.5508 108.459 91.6642 108.401C91.7776 108.342 91.8707 108.25 91.9313 108.137C92.5431 107.027 93.0502 105.827 93.5413 104.917C93.9576 103.895 94.4584 102.91 95.0386 101.971Z" fill="#263238"/>
<path d="M98.5327 132.802C98.5327 132.802 94.4084 130.425 97.787 121.838C101.166 113.25 111.322 110.646 113.619 108.057C113.619 108.057 112.692 134.43 98.5327 132.802Z" fill="#FFD000"/>
<mask id="mask0_752_26744" style="mask-type:luminance" maskUnits="userSpaceOnUse" x="96" y="108" width="18" height="25">
<path d="M98.5327 132.802C98.5327 132.802 94.4084 130.425 97.787 121.838C101.166 113.25 111.322 110.646 113.619 108.057C113.619 108.057 112.692 134.43 98.5327 132.802Z" fill="white"/>
</mask>
<g mask="url(#mask0_752_26744)">
<path opacity="0.3" d="M111.819 110.521C110.659 112.725 107.089 115.505 103.167 122.195C101.249 125.541 99.6522 129.062 98.3981 132.709C97.7741 132.248 95.2499 129.918 97.1606 123.648C97.2356 125.874 98.0253 127.125 98.0253 127.125C97.7767 118.464 111.819 110.521 111.819 110.521Z" fill="black" fill-opacity="0.7"/>
</g>
<path d="M98.5327 132.802C98.5327 132.802 94.4084 130.425 97.787 121.838C101.166 113.25 111.322 110.646 113.619 108.057C113.619 108.057 112.692 134.43 98.5327 132.802Z" stroke="#263238" stroke-width="0.5" stroke-linecap="round" stroke-linejoin="round"/>
<path d="M98.9134 122.195C98.9134 122.195 98.2714 126.786 99.7471 129.776L100.485 127.863C100.485 127.863 105.606 127.725 108.267 124.448" stroke="#263238" stroke-width="0.5" stroke-linecap="round" stroke-linejoin="round"/>
<path d="M101.715 118.305C101.715 118.305 100.552 122.605 101.373 125.611L101.715 124.109C101.715 124.109 108.133 122.447 109.497 120.466" stroke="#263238" stroke-width="0.5" stroke-linecap="round" stroke-linejoin="round"/>
<path d="M105.039 115.52C105.039 115.52 103.485 118.727 103.522 121.391L104.28 120.097C104.28 120.097 109.701 119.061 110.659 117.365" stroke="#263238" stroke-width="0.5" stroke-linecap="round" stroke-linejoin="round"/>
<path d="M108.267 112.748C107.136 114.301 105.792 117.809 105.792 117.809L107.03 116.401C107.03 116.401 110.09 115.604 111.234 114.11" stroke="#263238" stroke-width="0.5" stroke-linecap="round" stroke-linejoin="round"/>
<path d="M93.6162 155.454C93.6162 155.454 95.3767 124.449 110.318 112.736C110.318 112.736 96.4563 124.187 95.7418 155.454H93.6162Z" fill="#FFD000"/>
<mask id="mask1_752_26744" style="mask-type:luminance" maskUnits="userSpaceOnUse" x="93" y="112" width="18" height="44">
<path d="M93.6162 155.454C93.6162 155.454 95.3767 124.449 110.318 112.736C110.318 112.736 96.4563 124.187 95.7418 155.454H93.6162Z" fill="white"/>
</mask>
<g mask="url(#mask1_752_26744)">
<path opacity="0.3" d="M93.6162 155.454C93.6162 155.454 95.3767 124.449 110.318 112.736C110.318 112.736 96.4563 124.187 95.7418 155.454H93.6162Z" fill="black" fill-opacity="0.7"/>
</g>
<path d="M93.6162 155.454C93.6162 155.454 95.3767 124.449 110.318 112.736C110.318 112.736 96.4563 124.187 95.7418 155.454H93.6162Z" fill="#3C474C"/>
<path d="M92.2183 123.133C92.2183 123.133 95.9076 121.008 92.8837 113.326C89.8598 105.645 80.7777 103.315 78.7246 101C78.7246 101 79.5531 124.58 92.2183 123.133Z" fill="#FFD000"/>
<mask id="mask2_752_26744" style="mask-type:luminance" maskUnits="userSpaceOnUse" x="78" y="101" width="17" height="23">
<path d="M92.2183 123.133C92.2183 123.133 95.9076 121.008 92.8837 113.326C89.8598 105.645 80.7777 103.315 78.7246 101C78.7246 101 79.5531 124.58 92.2183 123.133Z" fill="white"/>
</mask>
<g mask="url(#mask2_752_26744)">
<path opacity="0.3" d="M92.8941 113.321C92.7331 112.907 92.5383 112.506 92.3116 112.123C91.8482 111.346 93.0158 113.648 93.0391 115.506C93.0559 115.971 92.967 116.434 92.7791 116.86C92.5912 117.285 92.3092 117.663 91.9543 117.963C91.7213 116.747 91.5945 115.47 91.0119 114.375C88.045 108.773 81.1169 103.696 80.0166 102.859C80.1357 103.01 83.9285 107.778 86.1732 110.523C87.377 112.001 88.177 113.865 88.9693 115.582C89.9738 117.764 90.8747 119.983 91.7679 122.22C91.8922 122.533 92.0268 122.844 92.1433 123.154C93.1478 122.528 93.6967 121.363 93.9297 120.2C94.3129 118.215 93.8572 116.161 93.2229 114.246C93.122 113.932 93.0158 113.624 92.8941 113.321Z" fill="black" fill-opacity="0.7"/>
</g>
<path d="M92.2183 123.133C92.2183 123.133 95.9076 121.008 92.8837 113.326C89.8598 105.645 80.7777 103.315 78.7246 101C78.7246 101 79.5531 124.58 92.2183 123.133Z" stroke="#263238" stroke-width="0.5" stroke-linecap="round" stroke-linejoin="round"/>
<path d="M91.8766 113.646C91.8766 113.646 92.4513 117.75 91.131 120.424L90.4708 118.713C90.4708 118.713 85.8909 118.591 83.509 115.661" stroke="#263238" stroke-width="0.5" stroke-linecap="round" stroke-linejoin="round"/>
<path d="M89.3729 110.164C89.3729 110.164 90.4085 114.011 89.6784 116.699L89.3729 115.355C89.3729 115.355 83.6305 113.869 82.4111 112.098" stroke="#263238" stroke-width="0.5" stroke-linecap="round" stroke-linejoin="round"/>
<path d="M86.3983 107.662C86.3983 107.662 87.786 110.533 87.7549 112.915L87.0766 111.753C87.0766 111.753 82.2275 110.836 81.3809 109.311" stroke="#263238" stroke-width="0.5" stroke-linecap="round" stroke-linejoin="round"/>
<path d="M83.509 105.193C84.5238 106.594 85.7251 109.721 85.7251 109.721L84.6093 108.463C84.6093 108.463 81.8727 107.749 80.8501 106.413" stroke="#263238" stroke-width="0.5" stroke-linecap="round" stroke-linejoin="round"/>
<path d="M96.0007 142.136C96.0007 142.136 95.0428 115.661 81.6812 105.176C81.6812 105.176 94.5457 116.699 94.7347 146.353C94.7347 146.353 95.1541 146.436 95.3794 145.753" fill="#FFD000"/>
<mask id="mask3_752_26744" style="mask-type:luminance" maskUnits="userSpaceOnUse" x="81" y="105" width="16" height="42">
<path d="M96.0007 142.136C96.0007 142.136 95.0428 115.661 81.6812 105.176C81.6812 105.176 94.5457 116.699 94.7347 146.353C94.7347 146.353 95.1541 146.436 95.3794 145.753" fill="white"/>
</mask>
<g mask="url(#mask3_752_26744)">
<path opacity="0.3" d="M96.0007 142.136C96.0007 142.136 95.0428 115.661 81.6812 105.176C81.6812 105.176 94.5457 116.699 94.7347 146.353C94.7347 146.353 95.1541 146.436 95.3794 145.753" fill="black" fill-opacity="0.7"/>
</g>
<path d="M96.0007 142.136C96.0007 142.136 95.0428 115.661 81.6812 105.176C81.6812 105.176 94.5457 116.699 94.7347 146.353C94.7347 146.353 95.1541 146.436 95.3794 145.753" fill="#3C474C"/>
<path d="M74.3958 166.185C74.3958 166.185 73.5052 165.481 74.3958 163.28C75.0793 161.595 77.3032 161.677 77.4249 159.914C78.3362 160.028 79.0637 159.425 79.5349 158.687C80.0061 157.949 80.3867 157.064 81.1737 156.676C81.4326 156.556 81.6915 156.492 81.9297 156.365C82.8643 155.868 83.188 154.524 84.1977 154.219C84.7931 154.037 85.4921 154.283 86.0384 154.006C86.5847 153.729 86.8539 152.971 87.4468 152.712C87.7012 152.634 87.9607 152.575 88.2235 152.533C89.272 152.259 89.9478 150.98 91.0325 151.008C91.3458 151.021 91.6824 151.148 91.962 151.008C92.182 150.9 92.3141 150.648 92.5419 150.56C92.7379 150.514 92.943 150.522 93.1348 150.584C93.7404 150.714 94.3711 150.662 94.947 150.434C95.4648 150.198 95.5839 149.512 95.8998 149.357C97.1554 148.738 98.5638 151.148 99.2913 151.751C99.7159 152.106 100.195 151.2 100.746 151.221C101.249 151.241 101.505 152.018 102.002 151.956C101.772 152.137 101.904 152.538 102.157 152.686C102.428 152.8 102.72 152.855 103.014 152.849C103.729 152.924 104.373 153.3 104.995 153.665C105.106 153.718 105.204 153.797 105.28 153.895C105.355 154.009 105.37 154.154 105.448 154.265C105.611 154.496 105.989 154.524 106.111 154.768C106.149 154.899 106.172 155.035 106.178 155.171C106.258 155.555 106.711 155.728 107.102 155.756C107.493 155.785 107.913 155.738 108.247 155.945C108.478 156.136 108.688 156.35 108.873 156.585C109.65 157.338 110.551 157.297 111.268 158.25C112.019 159.246 112.526 160.336 113.598 161.056C115.41 162.276 115.928 163.995 116.423 165.592C116.917 167.189 109.893 171.166 95.7108 172.183C81.5284 173.201 74.2094 167.262 74.3958 166.185Z" fill="#263238"/>
<path opacity="0.4" d="M87.6279 155.129C87.9438 155.212 88.4046 155.192 88.4435 154.87C88.4368 154.798 88.4421 154.724 88.459 154.653C88.5418 154.461 88.837 154.609 89.0415 154.562C89.1943 154.526 89.2875 154.376 89.3988 154.267C89.5414 154.136 89.7254 154.059 89.9189 154.05C90.1123 154.04 90.303 154.099 90.4577 154.215C90.6363 154.36 90.7554 154.583 90.9599 154.687C91.3431 154.878 91.9722 154.663 92.1146 155.065" stroke="white" stroke-width="0.5" stroke-linecap="round" stroke-linejoin="round"/>
<path opacity="0.4" d="M93.0881 157.152C93.1768 157.209 93.2771 157.245 93.3815 157.257C93.486 157.27 93.592 157.259 93.6915 157.225C93.7911 157.19 93.8817 157.134 93.9565 157.06C94.0313 156.986 94.0885 156.896 94.1237 156.797C94.1522 156.694 94.1626 156.572 94.2506 156.507C94.3852 156.411 94.5664 156.541 94.7321 156.556C95.0609 156.59 95.2499 156.207 95.4648 155.961C95.5951 155.815 95.762 155.707 95.9482 155.647C96.1344 155.587 96.3332 155.578 96.5242 155.62C96.7151 155.662 96.8913 155.755 97.0346 155.888C97.1778 156.021 97.283 156.19 97.3392 156.378L99.2913 156.896" stroke="white" stroke-width="0.5" stroke-linecap="round" stroke-linejoin="round"/>
<path opacity="0.4" d="M96.428 153.041C96.7625 152.934 97.1125 152.884 97.4636 152.893C97.4174 152.785 97.4073 152.664 97.4347 152.549C97.4621 152.434 97.5256 152.331 97.6158 152.254C97.7061 152.178 97.8183 152.133 97.9363 152.125C98.0542 152.117 98.1716 152.146 98.2713 152.21C98.3542 152.134 98.4522 152.077 98.5588 152.043C98.6653 152.008 98.7781 151.996 98.8896 152.009C99.001 152.021 99.1085 152.057 99.2051 152.114C99.3016 152.171 99.3848 152.248 99.4493 152.339L99.527 152.666C100.037 152.835 100.51 153.098 100.922 153.442" stroke="white" stroke-width="0.5" stroke-linecap="round" stroke-linejoin="round"/>
<path opacity="0.4" d="M101.847 155.474L102.364 155.627C102.279 155.492 102.44 155.327 102.597 155.296C102.755 155.296 102.912 155.269 103.061 155.215C103.216 155.122 103.263 154.925 103.364 154.775C103.465 154.625 103.719 154.54 103.804 154.698C103.783 154.532 103.967 154.397 104.135 154.402C104.304 154.425 104.463 154.495 104.594 154.604L105.919 155.526" stroke="white" stroke-width="0.5" stroke-linecap="round" stroke-linejoin="round"/>
<path d="M85.0081 168.689C85.0081 168.689 86.6805 169.927 88.2986 170.256" stroke="#263238" stroke-width="0.5" stroke-linecap="round" stroke-linejoin="round"/>
<path d="M67.1701 153.311L78.4593 156.649L76.5917 164.243L73.8814 165.311L58.7283 161.849C58.569 159.916 59.121 158 60.2795 156.465C62.2921 153.725 67.1701 153.311 67.1701 153.311Z" fill="#FFBF9D"/>
<path d="M74.6942 158.757C75.5682 157.644 76.7117 156.774 78.0164 156.227C79.3211 155.68 80.7438 155.476 82.1496 155.633C85.3679 156.184 88.4691 157.278 91.3205 158.868C93.1794 159.726 98.1704 160.538 98.0305 161.577C97.9456 162.195 97.6391 162.76 97.168 163.168C96.6968 163.577 96.0933 163.8 95.4699 163.796C93.7458 163.995 90.086 161.791 88.5322 163.014C88.3824 163.133 88.2576 163.28 88.1648 163.447C88.072 163.615 88.0131 163.799 87.9914 163.989C87.9698 164.179 87.9858 164.372 88.0385 164.556C88.0912 164.739 88.1797 164.911 88.2988 165.061C90.227 167.634 92.2835 170.109 94.4607 172.475C96.5199 174.472 97.7825 176.758 96.9456 177.288C96.1088 177.818 95.3291 177.774 93.6459 176.115C91.9627 174.456 89.5215 171.482 89.0164 171.67C88.5113 171.858 88.7356 172.689 89.707 173.673C90.6785 174.658 94.9325 179.553 94.661 180.37C94.5916 180.574 94.4779 180.76 94.3279 180.915C94.1779 181.07 93.9955 181.19 93.7937 181.265C93.592 181.341 93.3759 181.371 93.1611 181.353C92.9464 181.335 92.7382 181.27 92.5517 181.162L91.1444 180.367C91.1444 180.367 90.7941 181.842 89.795 181.733C88.796 181.624 87.8785 180.203 87.8785 180.203L82.4269 173.533C82.4269 173.533 81.7143 173.502 81.6111 173.922C81.5078 174.343 86.2854 179.106 85.7566 179.631C85.2278 180.156 85.3613 180.825 83.6666 179.621C81.3616 177.713 79.3887 175.436 77.8281 172.883C77.0108 171.181 72.2754 165.191 72.2754 165.191L74.6942 158.757Z" fill="#FFBF9D"/>
<path d="M115.726 171.996L132.941 169.466C131.68 162.485 130.162 159.468 124.066 157.834L111.905 162.526L115.726 171.996Z" fill="#FFBF9D"/>
<path d="M117.807 165.826C117.605 164.414 117.007 163.1 116.07 162.009C115.133 160.918 113.888 160.087 112.453 159.596C109.081 158.626 105.513 158.194 101.897 158.319C99.6461 158.288 94.4052 156.715 93.9562 157.724C93.5072 158.732 93.5917 159.958 95.1339 160.922C96.676 161.886 103.357 161.706 103.152 163.718C103.066 164.533 101.243 165.35 101.243 165.35C97.9274 166.813 94.5457 168.127 91.1109 169.288C88.0157 170.161 85.5026 171.672 86.0046 172.537C86.5065 173.402 87.2545 173.703 89.8145 172.975C92.3746 172.248 96.3758 170.611 96.8177 171.025C97.2597 171.439 96.4958 172.09 95.0145 172.549C93.5332 173.009 86.6743 175.509 86.4636 176.378C86.4151 176.597 86.4195 176.819 86.4764 177.029C86.5334 177.239 86.6415 177.431 86.793 177.592C86.9445 177.753 87.1355 177.878 87.3525 177.958C87.5694 178.039 87.8068 178.073 88.0475 178.058L89.8409 177.974C89.8409 177.974 89.3329 179.478 90.3521 179.834C91.3712 180.191 93.0553 179.312 93.0553 179.312L102.057 175.739C102.057 175.739 102.754 176.033 102.622 176.46C102.49 176.888 95.1974 179.048 95.4032 179.764C95.6089 180.48 95.1057 181.027 97.4147 180.745C100.697 180.061 103.873 178.892 106.815 177.283C108.563 176.106 116.506 172.854 116.506 172.854L117.807 165.826Z" fill="#FFBF9D"/>
<path d="M102.851 171.498C102.798 171.354 100.14 172.453 96.9466 173.938C93.7531 175.423 91.2145 176.752 91.2721 176.885C91.3297 177.018 93.9828 175.93 97.1735 174.438C100.364 172.945 102.908 171.631 102.851 171.498Z" fill="#FF9A6C"/>
</svg>
