<svg width="200" height="200" viewBox="0 0 200 200" fill="none" xmlns="http://www.w3.org/2000/svg">
<path fill-rule="evenodd" clip-rule="evenodd" d="M96.6489 40.0786C72.5164 41.5624 60.8087 65.3973 46.0572 82.1754C34.101 95.7741 23.0389 109.409 20.7142 126.445C18.0291 146.122 16.4425 168.605 32.3369 182.721C48.2827 196.882 74.0361 195.809 96.6489 193.883C119.863 194.322 138.62 187.342 149.552 172.737C165.068 160.174 178.921 144.922 179.935 126.445C180.989 107.244 169.055 90.1752 154.888 75.4837C139.04 59.05 121.162 38.5713 96.6489 40.0786Z" fill="#FFF3CC"/>
<path d="M107.94 44.8647L107.07 44.8164C102.876 44.5763 98.7456 45.9237 95.4999 48.5907C92.2541 51.2577 90.1313 55.0488 89.5536 59.2099C88.4427 67.2599 89.7307 68.6774 89.5536 73.0002C89.1431 81.968 97.816 88.5002 97.816 88.5002L95.2933 94.952C95.1675 96.3825 95.3256 97.8237 95.7585 99.1929C96.1915 100.562 96.8907 101.832 97.816 102.93C98.7413 104.029 99.8745 104.933 101.151 105.592C102.426 106.251 103.82 106.651 105.251 106.769C108.103 106.998 110.93 106.096 113.123 104.259C115.316 102.422 116.698 99.796 116.972 96.9484L120.192 63.6937C121.496 54.4362 117.23 45.9515 107.94 44.8647Z" fill="#FFBF9D"/>
<path d="M98 88.5007C102.149 88.7417 106.371 87.6491 110 85.6777C110 85.6777 105.881 91.7827 97 90.5007L98 88.5007Z" fill="#FF9A6C"/>
<path d="M104.004 68.3284C103.975 68.7349 104.102 69.1368 104.357 69.447C104.613 69.7572 104.976 69.9508 105.368 69.9858C105.559 70.0133 105.753 70.0008 105.939 69.9492C106.125 69.8975 106.299 69.8078 106.451 69.6852C106.603 69.5627 106.729 69.4099 106.823 69.2358C106.917 69.0617 106.976 68.8698 106.997 68.6716C107.021 68.2663 106.892 67.8672 106.638 67.5581C106.384 67.249 106.023 67.054 105.633 67.0142C105.442 66.9867 105.248 66.9992 105.062 67.0509C104.876 67.1025 104.702 67.1922 104.55 67.3148C104.398 67.4373 104.272 67.5901 104.178 67.7642C104.084 67.9383 104.025 68.1302 104.004 68.3284Z" fill="#263238"/>
<path d="M91.212 63.701C91.3649 63.8781 92.3712 63.21 93.7477 63.2985C95.1243 63.3871 96.0984 64.1035 96.2513 63.9667C96.4043 63.8298 96.1869 63.5883 95.7683 63.2422C95.1958 62.793 94.4986 62.5316 93.7719 62.4935C93.0568 62.4539 92.3472 62.6397 91.7433 63.0248C91.3166 63.3227 91.1556 63.6125 91.212 63.701Z" fill="#263238"/>
<path d="M92.0028 68.3284C91.9789 68.7337 92.1076 69.1328 92.3621 69.4419C92.6165 69.751 92.9767 69.946 93.3671 69.9858C93.5579 70.0133 93.752 70.0008 93.938 69.9491C94.1241 69.8975 94.2982 69.8078 94.4501 69.6852C94.6021 69.5627 94.7287 69.4099 94.8226 69.2358C94.9165 69.0617 94.9756 68.8698 94.9966 68.6716C95.023 68.2657 94.8951 67.8652 94.6402 67.5556C94.3854 67.2459 94.0237 67.0516 93.6323 67.0142C93.4416 66.9867 93.2474 66.9992 93.0614 67.0509C92.8754 67.1025 92.7012 67.1922 92.5493 67.3148C92.3974 67.4373 92.2707 67.5901 92.1769 67.7642C92.083 67.9383 92.0238 68.1302 92.0028 68.3284Z" fill="#263238"/>
<path d="M104.744 64.7316C104.889 64.9087 105.903 64.2486 107.28 64.3291C108.656 64.4096 109.622 65.1341 109.783 64.9973C109.944 64.8604 109.719 64.6189 109.292 64.2728C108.724 63.8278 108.033 63.5691 107.312 63.5322C106.596 63.4864 105.885 63.6727 105.283 64.0635C104.833 64.3613 104.672 64.6511 104.744 64.7316Z" fill="#263238"/>
<path d="M99.1652 74.6567C98.4536 74.3823 97.7095 74.201 96.9514 74.1173C96.5972 74.061 96.2752 73.9724 96.2269 73.7309C96.2149 73.3658 96.3162 73.0059 96.5167 72.7005C96.9031 71.8955 97.3217 71.002 97.7162 70.0843C99.3745 66.3571 100.598 63.29 100.453 63.2256C100.308 63.1612 98.8432 66.1237 97.1688 69.8508C96.7663 70.7685 96.3638 71.646 96.0176 72.4832C95.7753 72.8956 95.6816 73.3786 95.752 73.8517C95.7956 73.9799 95.8685 74.0961 95.9649 74.1911C96.0613 74.2862 96.1786 74.3574 96.3074 74.3991C96.497 74.4654 96.6947 74.506 96.8951 74.5198C97.6438 74.6547 98.4057 74.7006 99.1652 74.6567Z" fill="#263238"/>
<path d="M104.641 60.4005C104.762 60.7788 106.146 60.6822 107.748 60.972C109.35 61.2618 110.63 61.777 110.864 61.447C110.968 61.294 110.759 60.9318 110.26 60.5373C109.583 60.0516 108.804 59.7266 107.982 59.5871C107.161 59.4476 106.318 59.4973 105.518 59.7323C104.915 59.9416 104.593 60.2153 104.641 60.4005Z" fill="#263238"/>
<path d="M91.9137 60.827C92.1311 61.149 93.0971 60.8833 94.2402 60.9316C95.3833 60.9799 96.3332 61.2617 96.5747 60.9316C96.6793 60.7787 96.5747 60.4567 96.148 60.1266C95.6025 59.7358 94.9513 59.5197 94.2804 59.5068C93.608 59.4784 92.9436 59.6614 92.3806 60.03C91.962 60.352 91.8091 60.666 91.9137 60.827Z" fill="#263238"/>
<path d="M90.6564 55.1525C90.6564 55.1525 93.337 49.6784 96.1223 48.5192C99.4872 47.1266 100.687 50.8054 103.858 50.1292C107.03 49.453 110.242 48.1006 113.293 50.6927C116.626 53.5344 114.903 55.2974 114.903 59.2821C114.855 75.4385 117.535 80.1639 118.807 72.629C118.944 71.824 121.295 71.2686 121.834 67.799C122.543 63.2749 123.034 57.7526 122.204 54.4602C121.504 51.6909 120.063 49.7187 117.374 47.4808C113.164 43.9549 107.135 43.5363 103.005 43.7134C98.8754 43.8905 90.6805 48.1006 90.6564 55.1525Z" fill="#263238"/>
<path d="M118.22 72.3236C118.247 71.9929 118.342 71.6713 118.499 71.3788C118.655 71.0864 118.871 70.8295 119.131 70.624C119.392 70.4185 119.692 70.269 120.013 70.1847C120.334 70.1004 120.669 70.0831 120.997 70.134C122.655 70.3916 124.458 71.4462 124.153 74.8916C123.605 81.0016 117.584 79.1903 117.584 79.0132C117.584 78.8361 117.97 74.8835 118.22 72.3236Z" fill="#FFBF9D"/>
<path d="M119.105 76.8303C119.105 76.8303 119.202 76.9188 119.379 77.0154C119.626 77.1475 119.914 77.1793 120.184 77.104C120.844 76.9269 121.48 75.9448 121.609 74.85C121.673 74.3266 121.617 73.7955 121.448 73.2963C121.408 73.1011 121.321 72.9186 121.195 72.7643C121.068 72.6101 120.907 72.4888 120.723 72.4108C120.604 72.3686 120.474 72.3688 120.356 72.4113C120.237 72.4538 120.136 72.5361 120.071 72.6443C119.967 72.8053 119.999 72.934 119.967 72.9421C119.934 72.9501 119.846 72.8294 119.918 72.5798C119.964 72.4305 120.061 72.3022 120.192 72.2176C120.372 72.1045 120.589 72.0669 120.796 72.1129C121.041 72.1861 121.264 72.3205 121.443 72.5036C121.621 72.6868 121.751 72.9125 121.818 73.1595C122.031 73.7126 122.106 74.3096 122.035 74.8983C121.882 76.1299 121.15 77.2247 120.248 77.4018C120.08 77.4353 119.907 77.4302 119.741 77.387C119.575 77.3438 119.421 77.2635 119.29 77.1523C119.105 76.9832 119.081 76.8464 119.105 76.8303Z" fill="#FF9A6C"/>
<path d="M89.3524 48.5191C90.2943 47.8107 91.5903 47.7141 92.5241 46.9977C96.6835 43.8042 103.387 37.7091 109.111 40.8959C111.289 42.1085 114.038 42.2125 115.982 43.6006C116.547 44.0475 117.013 44.608 117.348 45.2458C117.684 45.8835 117.882 46.5845 117.93 47.3036C117.93 47.3036 118.566 46.9816 120.498 48.5111C121.73 49.4851 122.736 51.5862 123.187 53.0835C123.855 55.3294 122.881 57.6962 121.923 59.8294C121.408 60.9806 120.764 62.2444 119.564 62.655C118.107 63.146 116.497 62.0029 115.926 60.57C115.354 59.1371 114.452 57.6962 113.76 56.3196C112.553 53.9046 111.345 51.6989 112.335 50.1694C109.07 49.1089 106.906 51.0056 104.003 52.0289C102.783 52.4594 97.8575 53.276 96.4995 52.9513C96.0607 52.8464 95.6512 52.6439 95.3014 52.359C94.7484 53.2599 93.8762 53.9194 92.8587 54.2059C91.8411 54.4923 90.753 54.3848 89.8112 53.9046C87.9919 52.7776 87.6699 49.791 89.3524 48.5191Z" fill="#263238"/>
<path d="M122.535 58.3875C122.252 58.8294 122.015 59.2987 121.826 59.7882C121.606 60.2826 121.258 60.7102 120.82 61.0279C120.234 61.3278 119.559 61.405 118.92 61.2452C118.256 61.1164 117.629 60.8414 117.085 60.4402C116.646 60.0994 116.246 59.7106 115.893 59.281C115.585 58.8596 115.243 58.4638 114.871 58.0977C115.067 58.5852 115.339 59.0388 115.676 59.442C116.013 59.9161 116.414 60.3413 116.867 60.7059C117.449 61.1447 118.124 61.4424 118.84 61.5753C119.565 61.7551 120.332 61.6484 120.981 61.2774C121.466 60.9224 121.835 60.4324 122.044 59.8687C122.268 59.397 122.433 58.8995 122.535 58.3875Z" fill="#FFD000"/>
<path d="M122.301 63.1146C121.933 63.394 121.526 63.619 121.094 63.7828C120.623 63.9318 120.126 63.9757 119.636 63.9116C119.036 63.8203 118.462 63.6007 117.954 63.2676C117.031 62.6266 116.248 61.805 115.652 60.8526C115.424 60.4394 115.154 60.0509 114.847 59.6934C114.988 60.1539 115.197 60.5907 115.467 60.9894C116.014 62.0378 116.806 62.9383 117.777 63.6137C118.33 63.9795 118.962 64.2085 119.62 64.2819C120.167 64.342 120.72 64.2674 121.23 64.0645C122.051 63.6701 122.341 63.1227 122.301 63.1146Z" fill="#FFD000"/>
<path d="M103.297 79.6289C103.503 79.9662 103.618 80.3164 103.638 80.6697C103.663 80.8368 103.617 81.0047 103.503 81.1618C103.389 81.319 103.211 81.4618 102.98 81.5804C102.74 81.7262 102.441 81.8432 102.104 81.9233C101.766 82.0034 101.398 82.0446 101.027 82.0439C100.356 82.0432 99.7074 81.92 99.1981 81.6964C98.6888 81.4729 98.3518 81.1636 98.2479 80.8242L98.0098 80.0558C99.3991 79.8525 103.194 79.6818 103.297 79.6289Z" fill="#FF9A6C"/>
<path d="M99.0522 81.1252C99.0522 81.1252 99.2472 81.1252 99.5693 81.1411C100.021 81.163 100.482 81.163 100.934 81.1411C101.587 81.1089 102.177 81.0007 102.587 80.8381C103.075 80.6348 103.307 80.3822 103.239 80.1285C103.22 79.9858 103.101 79.8462 102.892 79.7193L103.095 79.7485C101.646 79.8176 100.374 79.8734 99.476 79.9053C98.9928 79.9336 98.5011 79.9452 98.0098 79.9399C98.4676 79.884 98.9459 79.8465 99.4336 79.8282C100.332 79.7751 101.586 79.7033 103.036 79.6289H103.171L103.231 79.6661C103.556 79.8636 103.694 80.086 103.629 80.3073C103.565 80.5286 103.3 80.7395 102.866 80.9152C102.39 81.0951 101.709 81.2096 100.968 81.2341C100.486 81.2474 100.001 81.233 99.5354 81.1916C99.361 81.1806 99.1962 81.1579 99.0522 81.1252Z" fill="#263238"/>
<path d="M139.512 106.576C140.043 106.576 147.627 109.603 149.623 117.041C151.619 124.479 157.069 151.769 157.069 151.769L162.857 159.787C162.857 159.787 160.982 174.414 150.347 171.628C150.347 171.628 143.247 172.868 140.985 165.671C138.723 158.475 134.336 137.005 134.336 137.005L139.512 106.576Z" fill="#FFD000"/>
<path d="M117.853 94L121.88 100.196L140 106.752L134.814 160.234V185.5C115.5 197.5 77.2791 196.215 74.5409 195C73.1154 194.959 71.3195 191.408 71.0859 189.425C70.8846 187.645 71.038 185.841 71.5369 184.123L74.5409 173.403C74.0979 180.074 76.063 133.607 76.1516 131.911L71.5 108.5C73.0906 106.405 82.0743 103.291 92.3795 99.5154L95.6009 94.5081L104.879 101.687L117.853 94Z" fill="#FFD000"/>
<path d="M72 108C72 108 67.4544 111.654 66.7543 114.468C66.0543 117.281 50.8011 149.692 50.8011 149.692L43.2239 151.697L41.1978 155.82C40.0144 158.185 39.6959 160.877 40.2958 163.444C40.8957 166.012 42.3775 168.298 44.4922 169.92C44.7556 170.116 45.0307 170.297 45.3158 170.462C49.4339 172.887 56.764 172.758 61.055 167.794C65.1154 163.089 77 146.176 77 146.176V125.479L72 108Z" fill="#FFD000"/>
<path d="M47.0495 152.59L36.3993 146.303L31.2634 152.59L32.326 155.633L46.0594 165.848C47.7643 164.457 48.9081 162.495 49.2794 160.326C49.8831 156.486 47.0495 152.59 47.0495 152.59Z" fill="#FFBF9D"/>
<path d="M50.4305 149.337C50.4305 149.442 51.3402 149.337 52.6765 149.788C54.4033 150.385 55.9323 151.446 57.0959 152.855C58.2458 154.295 59.1937 155.885 59.9134 157.581C60.1847 158.307 60.5215 159.008 60.9197 159.674C60.8123 158.901 60.5955 158.147 60.2757 157.436C59.6431 155.646 58.7093 153.977 57.5145 152.501C56.2929 151.009 54.6394 149.932 52.7811 149.418C52.0213 149.167 51.2057 149.139 50.4305 149.337Z" fill="#263238"/>
<path d="M36.5764 149.789C36.8418 148.399 36.7467 146.964 36.3 145.621C35.8532 144.277 35.0698 143.071 34.0245 142.117C31.5099 140.049 28.6664 138.416 25.6122 137.287C23.7446 136.482 19.8564 133.206 19.1722 133.995C18.4879 134.784 18.182 135.959 19.1722 137.392C20.1623 138.825 25.7893 140.958 25.0004 142.769C24.6784 143.502 22.9074 143.639 22.9074 143.639C19.6927 143.865 16.4686 143.929 13.2474 143.832C10.3977 143.582 7.83777 144.13 7.99072 145.112C8.14367 146.094 8.67497 146.633 11.0336 146.834C13.3923 147.036 17.2321 146.883 17.4736 147.422C17.7151 147.961 16.8779 148.308 15.5014 148.227C14.1248 148.147 7.63652 148.122 7.19377 148.863C7.0861 149.051 7.02143 149.261 7.00446 149.477C6.98749 149.692 7.01864 149.91 7.09563 150.112C7.17262 150.314 7.29354 150.497 7.44971 150.648C7.60588 150.798 7.79341 150.911 7.99878 150.98L9.52022 151.52C9.52022 151.52 8.63472 152.751 9.37532 153.435C10.1159 154.12 11.7903 153.878 11.7903 153.878L20.3958 153.637C20.3958 153.637 20.8869 154.152 20.6454 154.506C20.4039 154.86 13.6579 154.369 13.6096 155.11C13.5613 155.85 12.9737 156.189 14.9862 156.72C17.9336 157.211 20.9421 157.211 23.8895 156.72C25.7088 156.221 33.3322 155.915 33.3322 155.915L36.5764 149.789Z" fill="#FFBF9D"/>
<path d="M153.535 153.709L163.493 145.449L169.208 151.889L168.508 155.037L156.063 166.758C154.218 165.7 152.826 164.001 152.15 161.984C150.911 158.434 153.535 153.709 153.535 153.709Z" fill="#FFBF9D"/>
<path d="M163.606 149.747C163.178 148.399 163.101 146.964 163.382 145.578C163.664 144.192 164.295 142.9 165.216 141.826C167.481 139.475 170.13 137.526 173.048 136.062C174.803 135.008 178.281 131.337 179.062 132.037C179.525 132.455 179.82 133.026 179.893 133.646C179.965 134.265 179.81 134.889 179.456 135.402C178.651 136.94 174.771 138.727 174.908 140.699C174.922 140.89 174.974 141.076 175.06 141.247C175.146 141.418 175.265 141.57 175.41 141.695C175.555 141.82 175.724 141.915 175.905 141.975C176.087 142.034 176.279 142.058 176.47 142.044C179.682 141.896 182.884 141.587 186.065 141.118C188.875 140.538 191.475 140.78 191.443 141.77C191.411 142.76 190.936 143.38 188.617 143.839C186.299 144.298 182.467 144.644 182.338 145.167C182.209 145.69 183.022 145.972 184.383 145.722C185.743 145.473 192.183 144.708 192.707 145.392C192.836 145.564 192.926 145.763 192.97 145.974C193.013 146.185 193.01 146.403 192.959 146.613C192.908 146.822 192.811 147.018 192.676 147.185C192.54 147.353 192.369 147.488 192.175 147.582L190.726 148.298C190.726 148.298 191.749 149.417 191.097 150.182C190.445 150.947 188.754 150.907 188.754 150.907L180.173 151.663C180.173 151.663 179.746 152.235 180.036 152.557C180.326 152.879 186.951 151.607 187.088 152.34C187.225 153.072 187.852 153.338 185.904 154.062C183.03 154.895 180.038 155.246 177.049 155.101C175.182 154.819 167.566 155.366 167.566 155.366L163.606 149.747Z" fill="#FFBF9D"/>
<path d="M92.4597 101.006C92.9982 101.678 93.5964 102.301 94.2468 102.865C95.3819 103.976 96.9355 105.53 98.5777 107.301C98.9239 107.679 99.27 108.05 99.592 108.412L99.8094 108.645L100.011 108.396C101.283 106.786 102.385 105.305 103.158 104.25C103.612 103.714 103.999 103.125 104.309 102.495C103.775 102.952 103.294 103.468 102.876 104.033C102.031 105.031 100.872 106.448 99.584 108.058H99.9945L98.9883 106.939C97.5736 105.41 96.0796 103.956 94.5125 102.584C93.8949 101.976 93.2056 101.446 92.4597 101.006Z" fill="#263238"/>
<path d="M138.377 120.502C138.229 120.857 138.129 121.231 138.079 121.613C137.926 122.337 137.733 123.392 137.524 124.696C137.105 127.304 136.662 130.927 136.292 134.936C135.922 138.945 135.648 142.583 135.439 145.216C135.358 146.439 135.278 147.478 135.221 148.331C135.171 148.713 135.171 149.1 135.221 149.482C135.336 149.115 135.412 148.738 135.447 148.355C135.559 147.622 135.696 146.56 135.841 145.248C136.147 142.631 136.485 139.001 136.856 134.992C137.226 130.983 137.588 127.369 137.902 124.793C138.055 123.577 138.184 122.539 138.288 121.693C138.372 121.302 138.401 120.901 138.377 120.502Z" fill="#263238"/>
<path d="M75.3936 118.676C75.2787 119.132 75.2112 119.599 75.1924 120.068C75.1038 120.978 75.0072 122.282 74.9267 123.908C74.7416 127.128 74.653 131.636 74.6369 136.579V153.09C74.6111 153.56 74.6299 154.032 74.6933 154.498C74.7976 154.039 74.8489 153.569 74.8462 153.098C74.9106 152.188 74.975 150.876 75.0233 149.258C75.136 146.038 75.1763 141.53 75.1843 136.587C75.1924 131.644 75.2326 127.161 75.3131 123.924C75.3534 122.387 75.3856 121.099 75.4097 120.085C75.4479 119.615 75.4425 119.144 75.3936 118.676Z" fill="#263238"/>
<path d="M146.548 165.123C146.8 164.209 146.985 163.279 147.103 162.338C147.48 160.092 148.208 157.918 149.261 155.898C150.334 153.917 151.948 152.282 153.914 151.181C154.759 150.777 155.633 150.438 156.53 150.166C156.265 150.109 155.99 150.109 155.725 150.166C155.027 150.283 154.35 150.497 153.712 150.802C151.597 151.857 149.864 153.546 148.753 155.632C147.688 157.706 147.012 159.957 146.757 162.274C146.568 163.211 146.497 164.168 146.548 165.123Z" fill="#263238"/>
<path d="M143.964 154.248C144.076 154.377 145.678 152.727 148.286 151.833C150.895 150.94 153.116 151.246 153.165 151.077C153.213 150.908 150.854 150.36 148.109 151.318C145.364 152.276 143.843 154.184 143.964 154.248Z" fill="#263238"/>
<path d="M103.11 191.656C103.159 191.358 103.18 191.057 103.174 190.755C103.174 190.119 103.174 189.258 103.231 188.179C103.279 185.885 103.343 182.657 103.424 178.688C103.609 170.638 103.867 159.585 104.156 147.381C104.446 135.177 104.599 124.076 104.583 116.059C104.583 112.034 104.543 108.814 104.495 106.56C104.495 105.481 104.438 104.62 104.414 103.984C104.421 103.682 104.399 103.38 104.35 103.082C104.327 103.382 104.327 103.684 104.35 103.984C104.35 104.62 104.35 105.481 104.35 106.56C104.35 108.854 104.301 112.09 104.269 116.051C104.189 124.101 103.955 135.137 103.681 147.365C103.408 159.593 103.166 170.662 103.102 178.68C103.102 182.705 103.102 185.925 103.102 188.179C103.102 189.258 103.102 190.119 103.142 190.755C103.111 191.054 103.1 191.356 103.11 191.656Z" fill="#263238"/>
<path d="M154.002 153.37C154.002 153.305 153.197 153.909 152.553 155.246C152.158 156.007 151.871 156.82 151.7 157.661C151.534 158.728 151.534 159.814 151.7 160.881C151.82 161.949 152.137 162.986 152.634 163.94C153.064 164.713 153.657 165.383 154.372 165.904C155.001 166.426 155.793 166.71 156.61 166.709C155.903 166.416 155.233 166.041 154.614 165.59C153.979 165.069 153.456 164.426 153.076 163.698C152.646 162.788 152.373 161.81 152.271 160.808C152.127 159.804 152.127 158.785 152.271 157.781C152.41 156.952 152.645 156.141 152.972 155.366C153.471 154.086 154.083 153.418 154.002 153.37Z" fill="#263238"/>
<path d="M44.0629 166.967C44.0629 166.967 44.3205 166.967 44.7311 166.765C45.3074 166.511 45.8485 166.184 46.3411 165.791C48.0279 164.492 49.1816 162.621 49.5849 160.531C49.9882 158.44 49.6133 156.274 48.5307 154.441C48.2152 153.89 47.8311 153.381 47.3876 152.927C47.0736 152.621 46.8724 152.476 46.8482 152.501C46.8241 152.525 47.4922 153.249 48.1926 154.626C49.129 156.407 49.4312 158.453 49.0493 160.428C48.6674 162.404 47.6242 164.19 46.0915 165.493C44.9404 166.508 44.0227 166.878 44.0629 166.967Z" fill="#263238"/>
<path d="M23.5917 140.41C23.5273 140.475 23.9942 140.917 24.5818 141.698C24.9199 142.145 25.1537 142.662 25.2661 143.212C25.3949 143.831 25.3788 144.556 25.4915 145.353C25.5874 146.037 25.8182 146.695 26.1706 147.29C26.523 147.884 26.9899 148.402 27.5443 148.814C27.9679 149.196 28.5053 149.428 29.0738 149.474C29.114 149.386 28.5183 149.161 27.7858 148.508C26.8427 147.673 26.2218 146.534 26.0308 145.288C25.9778 144.56 25.8865 143.834 25.7572 143.115C25.6031 142.515 25.3046 141.963 24.8877 141.505C24.5496 141.042 24.1051 140.666 23.5917 140.41Z" fill="#FF9A6C"/>
<path d="M178.861 148.879C178.861 149.024 181.541 149.169 184.85 149.008C188.158 148.847 190.815 148.46 190.799 148.307C190.783 148.155 188.118 148.307 184.826 148.46C181.533 148.613 178.861 148.718 178.861 148.879Z" fill="#FF9A6C"/>
<path d="M172.767 148.42C172.767 148.477 173.403 148.372 174.159 147.736C174.65 147.31 175.039 146.781 175.301 146.187C175.563 145.592 175.69 144.948 175.673 144.299C175.615 143.612 175.491 142.933 175.303 142.27C175.162 141.745 175.094 141.203 175.101 140.66C175.148 140.175 175.259 139.699 175.431 139.243C175.431 139.187 174.844 139.613 174.715 140.628C174.65 141.198 174.683 141.775 174.811 142.334C174.963 142.973 175.068 143.621 175.125 144.274C175.143 145.442 174.7 146.569 173.894 147.414C173.274 148.138 172.727 148.34 172.767 148.42Z" fill="#FF9A6C"/>
<path d="M22.0945 150.328C22.0945 150.175 19.2206 150.288 15.7108 150.578C12.201 150.867 9.35932 151.238 9.36737 151.383C9.37542 151.528 12.2412 151.423 15.751 151.125C19.2609 150.827 22.1025 150.473 22.0945 150.328Z" fill="#FF9A6C"/>
<path d="M104.961 101.971C105.283 103.043 105.689 104.087 106.177 105.095C106.394 105.578 106.62 106.101 106.853 106.64C107.084 107.255 107.353 107.854 107.658 108.435C107.774 108.626 107.943 108.78 108.145 108.877C108.346 108.974 108.571 109.011 108.793 108.983C109.183 108.88 109.546 108.693 109.856 108.435L111.756 107.139C114.348 105.352 116.674 103.702 118.349 102.494C119.285 101.882 120.168 101.193 120.989 100.434C119.992 100.936 119.036 101.518 118.131 102.172C116.401 103.307 114.034 104.893 111.442 106.688L109.55 107.993C109.303 108.206 109.016 108.368 108.705 108.468C108.578 108.483 108.449 108.459 108.336 108.401C108.222 108.342 108.129 108.25 108.069 108.137C107.457 107.027 106.95 105.827 106.459 104.917C106.042 103.895 105.542 102.91 104.961 101.971Z" fill="#263238"/>
<path d="M91.8946 65.5598C91.9218 65.9507 92.1 66.3157 92.3913 66.5777C92.6827 66.8397 93.0645 66.9782 93.4561 66.9639C93.6487 66.9652 93.8396 66.9281 94.0177 66.8547C94.1959 66.7814 94.3576 66.6733 94.4935 66.5368C94.6293 66.4003 94.7367 66.2381 94.8091 66.0596C94.8816 65.8811 94.9178 65.69 94.9157 65.4974C94.8836 65.1084 94.7041 64.7462 94.4138 64.4852C94.1236 64.2242 93.7445 64.084 93.3542 64.0933C93.1616 64.092 92.9707 64.1291 92.7925 64.2025C92.6144 64.2758 92.4527 64.3839 92.3168 64.5204C92.1809 64.6569 92.0736 64.8191 92.0011 64.9976C91.9286 65.1761 91.8924 65.3672 91.8946 65.5598Z" fill="#263238"/>
<path d="M89.8212 62.4867C90.0351 62.6744 91.1164 61.7301 92.7849 61.6124C94.4533 61.4947 95.6847 62.2347 95.8551 62.0309C96.0256 61.827 95.7145 61.5919 95.178 61.2683C94.4355 60.8252 93.5734 60.6244 92.7116 60.694C91.8558 60.7469 91.0397 61.0735 90.3836 61.6254C89.8727 62.0396 89.7261 62.4032 89.8212 62.4867Z" fill="#263238"/>
<path d="M107.761 64.549C107.795 64.9372 107.976 65.2979 108.265 65.5584C108.555 65.819 108.933 65.96 109.323 65.9531C109.711 65.949 110.081 65.7916 110.354 65.5153C110.626 65.239 110.778 64.8661 110.777 64.478C110.743 64.0898 110.563 63.7291 110.273 63.4685C109.983 63.208 109.605 63.067 109.216 63.0739C108.828 63.078 108.457 63.2353 108.184 63.5117C107.912 63.788 107.76 64.1609 107.761 64.549Z" fill="#263238"/>
<path d="M106.001 61.6738C106.201 61.8579 107.296 60.9172 108.964 60.7995C110.633 60.6818 111.864 61.4218 112.03 61.2093C112.195 60.9969 111.889 60.7703 111.352 60.4467C110.605 60.0091 109.741 59.8105 108.877 59.8775C108.026 59.9349 107.215 60.259 106.558 60.8039C106.052 61.2267 105.901 61.5817 106.001 61.6738Z" fill="#263238"/>
<path d="M100.925 75.8046C100.042 75.595 99.137 75.4974 98.2302 75.514C97.8033 75.497 97.4009 75.4426 97.3151 75.1569C97.2292 74.8712 97.3376 74.4025 97.5014 73.8899L98.5158 70.6105C99.915 65.9481 100.898 62.1195 100.715 62.0642C100.532 62.0089 99.2297 65.7462 97.8304 70.4086L96.8708 73.7024C96.6421 74.2297 96.606 74.8206 96.7689 75.3717C96.8373 75.5163 96.9393 75.6424 97.0665 75.7394C97.1937 75.8364 97.3423 75.9015 97.4998 75.9291C97.7372 75.9847 97.9819 76.0021 98.2247 75.9805C99.1285 76.0364 100.036 75.9774 100.925 75.8046Z" fill="#263238"/>
<path d="M105.728 54.0519C105.922 54.483 107.545 54.1487 109.483 54.2554C111.422 54.3622 113.026 54.7686 113.264 54.3632C113.368 54.1637 113.064 53.7623 112.411 53.379C111.535 52.9065 110.563 52.6404 109.569 52.6011C108.574 52.5618 107.584 52.7503 106.673 53.1523C105.977 53.4665 105.643 53.8468 105.728 54.0519Z" fill="#263238"/>
<path d="M90.5323 57.717C90.7744 58.1314 91.9469 57.8982 93.293 58.0615C94.6392 58.2248 95.7645 58.6444 96.0774 58.2879C96.2184 58.1129 96.0857 57.7272 95.6327 57.3085C95.0249 56.7839 94.2669 56.4647 93.4669 56.3964C92.67 56.3068 91.8648 56.4657 91.1616 56.8514C90.64 57.1677 90.43 57.522 90.5323 57.717Z" fill="#263238"/>
<path d="M112.731 52.8932C111.03 52.0214 109.223 51.3869 107.36 51.0073C103.282 50.0679 99.091 49.8098 94.9537 50.2433C93.0132 50.3848 91.1065 50.8009 89.2894 51.4793C86.2367 52.8075 84.694 53.9512 81.5002 52.8933L80.5001 55.9994C80.5001 55.9994 78.6515 72.8015 89.7918 74.6339C90.112 74.6907 91.1495 74.7675 91.4734 74.81C93.322 75.047 98.1514 75.4936 99.8426 79.883C102.712 74.3537 109.74 75.8816 109.74 75.8816C121.507 75.9212 122.143 58.5031 122.143 58.5031L122.397 53.5746C120.849 54.1909 119.178 54.4495 117.507 54.3316C115.835 54.2138 114.203 53.7225 112.731 52.8932Z" fill="#3C474C"/>
<path d="M112.273 53.3193C110.641 52.5009 108.904 51.9098 107.112 51.5626C103.191 50.6989 99.1539 50.4865 95.1635 50.9337C93.2923 51.0845 91.4516 51.4971 89.6951 52.1594C86.7426 53.4519 84.5691 54.8754 81.5 53.8915L80.9999 56.9988C80.9999 56.9988 79.2713 72.5979 89.9918 74.2568C90.2999 74.3085 91.2991 74.3734 91.6108 74.4113C93.3903 74.6225 98.0406 75.0098 99.6347 79.1859C102.444 73.8848 109.204 75.2864 109.204 75.2864C120.544 75.2289 121.298 58.5978 121.298 58.5978L121.583 53.8914C120.085 54.4922 118.473 54.7526 116.863 54.6536C115.253 54.5546 113.685 54.0989 112.273 53.3193Z" fill="#FFD000"/>
<path d="M86.334 62.0677C87.3208 61.2393 88.5231 60.7092 89.8003 60.5395C91.0774 60.3698 92.3764 60.5675 93.5453 61.1094C97.956 62.9105 97.4277 66.4271 97.4277 66.4271C97.4277 66.4271 89.6918 71.0273 86.334 62.0677Z" fill="#3C474C"/>
<path d="M103.814 66.4961C104.783 67.3448 105.973 67.9012 107.246 68.1007C108.519 68.3002 109.822 68.1346 111.004 67.6231C115.465 65.9208 115.015 62.3962 115.015 62.3962C115.015 62.3962 107.395 57.6178 103.814 66.4961Z" fill="#3C474C"/>
<path d="M91.4212 52.0634C91.4793 52.1321 90.6742 52.8526 89.515 54.1609C88.0197 55.8635 86.7278 57.7347 85.6656 59.7364C84.6135 61.7442 83.8161 63.8754 83.2918 66.0806C82.869 67.7483 82.7838 68.8552 82.6992 68.8482C82.6147 68.8411 82.6511 68.5745 82.6781 68.0801C82.7116 67.3842 82.7954 66.6916 82.9289 66.0078C83.3562 63.7349 84.1204 61.5386 85.1964 59.4915C86.2779 57.4494 87.6433 55.5709 89.2519 53.9119C89.735 53.4081 90.2485 52.9344 90.7893 52.4932C91.1763 52.192 91.3954 52.0329 91.4212 52.0634Z" fill="#FFD000"/>
<path d="M100.09 66.6449C99.6561 65.8686 99.263 65.07 98.9127 64.2523C97.9609 62.3469 96.8209 60.5414 95.5097 58.863C92.4091 54.8836 88.99 52.6191 89.1015 52.4729C89.9116 52.8646 90.666 53.3625 91.3446 53.9536C93.0443 55.2989 94.581 56.8382 95.9234 58.5402C97.2629 60.2458 98.3815 62.114 99.2524 64.1002C99.6513 64.9043 99.9335 65.7611 100.09 66.6449Z" fill="#FFD000"/>
<path d="M99.8774 78.9754C99.7385 78.9755 99.4169 72.518 99.7561 64.792C100.095 57.066 100.95 50.994 101.094 51.0026C101.238 51.0111 100.587 57.071 100.256 64.792C99.9255 72.5129 100.021 78.9839 99.8774 78.9754Z" fill="#FFD000"/>
<path d="M116.264 54.6021C116.305 54.6712 115.149 54.9526 113.381 55.6145C111.104 56.4516 108.948 57.5867 106.968 58.9902C105.887 59.7702 104.872 60.6383 103.933 61.5856C103.172 62.3673 102.475 63.2086 101.847 64.1012C100.79 65.6221 100.332 66.7007 100.239 66.6619C100.288 66.3905 100.376 66.128 100.502 65.8829C100.616 65.5823 100.751 65.2904 100.907 65.0095C101.095 64.6253 101.307 64.2537 101.543 63.897C102.139 62.9565 102.821 62.0734 103.58 61.259C104.518 60.2729 105.544 59.3749 106.646 58.5765C108.661 57.1362 110.89 56.0215 113.252 55.2734C113.96 55.0392 114.683 54.8529 115.416 54.7156C115.69 54.6301 115.977 54.5916 116.264 54.6021Z" fill="#FFD000"/>
<path d="M117.453 70.5737C117.392 70.609 117.501 69.3874 117.301 67.4196C116.999 64.9108 116.254 62.4754 115.103 60.2264C113.954 57.9716 112.446 55.9189 110.637 54.1489C109.236 52.8015 108.217 52.0881 108.261 52.0629C108.529 52.1653 108.78 52.3076 109.005 52.485C109.655 52.9189 110.275 53.3966 110.86 53.9148C112.792 55.6352 114.389 57.6977 115.572 59.9986C116.767 62.2976 117.481 64.8158 117.672 67.3999C117.714 68.1807 117.7 68.9636 117.627 69.7422C117.559 70.2799 117.489 70.5758 117.453 70.5737Z" fill="#FFD000"/>
<path d="M121.261 56.8705C121.261 56.8705 121.27 57.2016 121.16 57.7869C121.005 58.6156 120.779 59.4295 120.485 60.2196C120.047 61.3947 119.466 62.5116 118.756 63.5455C117.878 64.7938 116.923 65.9861 115.897 67.1154C114.019 69.1369 112.016 71.0382 109.899 72.8079C109.061 73.5836 108.156 74.283 107.194 74.8978C107.958 74.0518 108.781 73.2613 109.657 72.5324C111.204 71.0961 113.357 69.1318 115.556 66.7701C116.569 65.6593 117.519 64.4932 118.403 63.2772C119.112 62.2833 119.712 61.2149 120.189 60.0909C120.933 58.1513 121.136 56.8742 121.261 56.8705Z" fill="#FFD000"/>
<path d="M109.16 75.1507C108.506 75.1973 107.851 75.0976 107.241 74.859C105.706 74.4334 104.328 73.5739 103.27 72.3839C102.313 71.1549 101.465 69.8439 100.738 68.4661C100.402 67.9085 100.181 67.2887 100.091 66.6439C100.453 67.1686 100.775 67.72 101.054 68.2931C101.857 69.5902 102.725 70.8455 103.656 72.054C104.681 73.1684 105.968 74.0089 107.401 74.499C108.431 74.8935 109.173 75.0737 109.16 75.1507Z" fill="#FFD000"/>
<path d="M100.091 66.6443C99.5979 68.3522 98.7152 69.9224 97.5122 71.2311C96.4003 72.6165 94.9902 73.7332 93.3868 74.4981C93.296 74.3426 95.2546 73.0364 97.0837 70.9139C98.9129 68.7915 99.9286 66.5652 100.091 66.6443Z" fill="#FFD000"/>
<path d="M94.7432 73.7065C94.3255 73.6581 93.9364 73.5612 93.5849 73.4182C91.0965 72.5941 88.9907 71.3175 87.3739 69.6529C86.204 68.4141 85.2636 67.0137 84.5704 65.4781C83.2915 62.7141 82.7733 59.5787 83.0424 56.2335C83.1602 54.8649 82.8896 55.7344 83.5586 54.5005C83.0424 56.2335 83.6527 53.6217 83.5586 56.1063C83.4576 59.3429 84.0544 62.3745 85.3236 65.073C86.5092 67.8151 88.5169 70.097 91.2147 71.7687C93.2586 73.0974 94.8242 73.5778 94.7432 73.7065Z" fill="#FFD000"/>
</svg>
