<svg width="200" height="200" viewBox="0 0 200 200" fill="none" xmlns="http://www.w3.org/2000/svg">
<g clip-path="url(#clip0_752_28284)">
<path fill-rule="evenodd" clip-rule="evenodd" d="M96.6489 40.0786C72.5164 41.5624 60.8087 65.3973 46.0572 82.1754C34.101 95.7741 23.0389 109.409 20.7142 126.445C18.0291 146.122 16.4425 168.605 32.3369 182.721C48.2827 196.882 74.0361 195.809 96.6489 193.883C119.863 194.322 138.62 187.342 149.552 172.737C165.068 160.174 178.921 144.922 179.935 126.445C180.989 107.244 169.055 90.1752 154.888 75.4837C139.04 59.05 121.162 38.5713 96.6489 40.0786Z" fill="#FFF3CC"/>
<path d="M107.94 44.8647L107.07 44.8164C102.876 44.5763 98.7456 45.9237 95.4999 48.5907C92.2541 51.2577 90.1313 55.0488 89.5536 59.2099C88.4427 67.2599 89.7307 68.6774 89.5536 73.0002C89.1431 81.968 97.816 88.5002 97.816 88.5002L95.2933 94.952C95.1675 96.3825 95.3256 97.8237 95.7585 99.1929C96.1915 100.562 96.8907 101.832 97.816 102.93C98.7413 104.029 99.8745 104.933 101.151 105.592C102.426 106.251 103.82 106.651 105.251 106.769C108.103 106.998 110.93 106.096 113.123 104.259C115.316 102.422 116.698 99.796 116.972 96.9484L120.192 63.6937C121.496 54.4362 117.23 45.9515 107.94 44.8647Z" fill="#FFBF9D"/>
<path d="M98 88.5007C102.149 88.7417 106.371 87.6491 110 85.6777C110 85.6777 105.881 91.7827 97 90.5007L98 88.5007Z" fill="#FF9A6C"/>
<path d="M104.004 68.3284C103.975 68.7349 104.102 69.1368 104.357 69.447C104.613 69.7572 104.976 69.9508 105.368 69.9858C105.559 70.0133 105.753 70.0008 105.939 69.9492C106.125 69.8975 106.299 69.8078 106.451 69.6852C106.603 69.5627 106.729 69.4099 106.823 69.2358C106.917 69.0617 106.976 68.8698 106.997 68.6716C107.021 68.2663 106.892 67.8672 106.638 67.5581C106.384 67.249 106.023 67.054 105.633 67.0142C105.442 66.9867 105.248 66.9992 105.062 67.0509C104.876 67.1025 104.702 67.1922 104.55 67.3148C104.398 67.4373 104.272 67.5901 104.178 67.7642C104.084 67.9383 104.025 68.1302 104.004 68.3284Z" fill="#263238"/>
<path d="M91.212 63.701C91.3649 63.8781 92.3712 63.21 93.7477 63.2985C95.1243 63.3871 96.0984 64.1035 96.2513 63.9667C96.4043 63.8298 96.1869 63.5883 95.7683 63.2422C95.1958 62.793 94.4986 62.5316 93.7719 62.4935C93.0568 62.4539 92.3472 62.6397 91.7433 63.0248C91.3166 63.3227 91.1556 63.6125 91.212 63.701Z" fill="#263238"/>
<path d="M92.0028 68.3284C91.9789 68.7337 92.1076 69.1328 92.3621 69.4419C92.6165 69.751 92.9767 69.946 93.3671 69.9858C93.5579 70.0133 93.752 70.0008 93.938 69.9491C94.1241 69.8975 94.2982 69.8078 94.4501 69.6852C94.6021 69.5627 94.7287 69.4099 94.8226 69.2358C94.9165 69.0617 94.9756 68.8698 94.9966 68.6716C95.023 68.2657 94.8951 67.8652 94.6402 67.5556C94.3854 67.2459 94.0237 67.0516 93.6323 67.0142C93.4416 66.9867 93.2474 66.9992 93.0614 67.0509C92.8754 67.1025 92.7012 67.1922 92.5493 67.3148C92.3974 67.4373 92.2707 67.5901 92.1769 67.7642C92.083 67.9383 92.0238 68.1302 92.0028 68.3284Z" fill="#263238"/>
<path d="M104.744 64.7316C104.889 64.9087 105.903 64.2486 107.28 64.3291C108.656 64.4096 109.622 65.1341 109.783 64.9973C109.944 64.8604 109.719 64.6189 109.292 64.2728C108.724 63.8278 108.033 63.5691 107.312 63.5322C106.596 63.4864 105.885 63.6727 105.283 64.0635C104.833 64.3613 104.672 64.6511 104.744 64.7316Z" fill="#263238"/>
<path d="M99.1652 74.6567C98.4536 74.3823 97.7095 74.201 96.9514 74.1173C96.5972 74.061 96.2752 73.9724 96.2269 73.7309C96.2149 73.3658 96.3162 73.0059 96.5167 72.7005C96.9031 71.8955 97.3217 71.002 97.7162 70.0843C99.3745 66.3571 100.598 63.29 100.453 63.2256C100.308 63.1612 98.8432 66.1237 97.1688 69.8508C96.7663 70.7685 96.3638 71.646 96.0176 72.4832C95.7753 72.8956 95.6816 73.3786 95.752 73.8517C95.7956 73.9799 95.8685 74.0961 95.9649 74.1911C96.0613 74.2862 96.1786 74.3574 96.3074 74.3991C96.497 74.4654 96.6947 74.506 96.8951 74.5198C97.6438 74.6547 98.4057 74.7006 99.1652 74.6567Z" fill="#263238"/>
<path d="M104.641 60.4005C104.762 60.7788 106.146 60.6822 107.748 60.972C109.35 61.2618 110.63 61.777 110.864 61.447C110.968 61.294 110.759 60.9318 110.26 60.5373C109.583 60.0516 108.804 59.7266 107.982 59.5871C107.161 59.4476 106.318 59.4973 105.518 59.7323C104.915 59.9416 104.593 60.2153 104.641 60.4005Z" fill="#263238"/>
<path d="M91.9137 60.827C92.1311 61.149 93.0971 60.8833 94.2402 60.9316C95.3833 60.9799 96.3332 61.2617 96.5747 60.9316C96.6793 60.7787 96.5747 60.4567 96.148 60.1266C95.6025 59.7358 94.9513 59.5197 94.2804 59.5068C93.608 59.4784 92.9436 59.6614 92.3806 60.03C91.962 60.352 91.8091 60.666 91.9137 60.827Z" fill="#263238"/>
<path d="M90.6564 55.1525C90.6564 55.1525 93.337 49.6784 96.1223 48.5192C99.4872 47.1266 100.687 50.8054 103.858 50.1292C107.03 49.453 110.242 48.1006 113.293 50.6927C116.626 53.5344 114.903 55.2974 114.903 59.2821C114.855 75.4385 117.535 80.1639 118.807 72.629C118.944 71.824 121.295 71.2686 121.834 67.799C122.543 63.2749 123.034 57.7526 122.204 54.4602C121.504 51.6909 120.063 49.7187 117.374 47.4808C113.164 43.9549 107.135 43.5363 103.005 43.7134C98.8754 43.8905 90.6805 48.1006 90.6564 55.1525Z" fill="#263238"/>
<path d="M118.22 72.3236C118.247 71.9929 118.342 71.6713 118.499 71.3788C118.655 71.0864 118.871 70.8295 119.131 70.624C119.392 70.4185 119.692 70.269 120.013 70.1847C120.334 70.1004 120.669 70.0831 120.997 70.134C122.655 70.3916 124.458 71.4462 124.153 74.8916C123.605 81.0016 117.584 79.1903 117.584 79.0132C117.584 78.8361 117.97 74.8835 118.22 72.3236Z" fill="#FFBF9D"/>
<path d="M119.105 76.8303C119.105 76.8303 119.202 76.9188 119.379 77.0154C119.626 77.1475 119.914 77.1793 120.184 77.104C120.844 76.9269 121.48 75.9448 121.609 74.85C121.673 74.3266 121.617 73.7955 121.448 73.2963C121.408 73.1011 121.321 72.9186 121.195 72.7643C121.068 72.6101 120.907 72.4888 120.723 72.4108C120.604 72.3686 120.474 72.3688 120.356 72.4113C120.237 72.4538 120.136 72.5361 120.071 72.6443C119.967 72.8053 119.999 72.934 119.967 72.9421C119.934 72.9501 119.846 72.8294 119.918 72.5798C119.964 72.4305 120.061 72.3022 120.192 72.2176C120.372 72.1045 120.589 72.0669 120.796 72.1129C121.041 72.1861 121.264 72.3205 121.443 72.5036C121.621 72.6868 121.751 72.9125 121.818 73.1595C122.031 73.7126 122.106 74.3096 122.035 74.8983C121.882 76.1299 121.15 77.2247 120.248 77.4018C120.08 77.4353 119.907 77.4302 119.741 77.387C119.575 77.3438 119.421 77.2635 119.29 77.1523C119.105 76.9832 119.081 76.8464 119.105 76.8303Z" fill="#FF9A6C"/>
<path d="M89.3524 48.5191C90.2943 47.8107 91.5903 47.7141 92.5241 46.9977C96.6835 43.8042 103.387 37.7091 109.111 40.8959C111.289 42.1085 114.038 42.2125 115.982 43.6006C116.547 44.0475 117.013 44.608 117.348 45.2458C117.684 45.8835 117.882 46.5845 117.93 47.3036C117.93 47.3036 118.566 46.9816 120.498 48.5111C121.73 49.4851 122.736 51.5862 123.187 53.0835C123.855 55.3294 122.881 57.6962 121.923 59.8294C121.408 60.9806 120.764 62.2444 119.564 62.655C118.107 63.146 116.497 62.0029 115.926 60.57C115.354 59.1371 114.452 57.6962 113.76 56.3196C112.553 53.9046 111.345 51.6989 112.335 50.1694C109.07 49.1089 106.906 51.0056 104.003 52.0289C102.783 52.4594 97.8575 53.276 96.4995 52.9513C96.0607 52.8464 95.6512 52.6439 95.3014 52.359C94.7484 53.2599 93.8762 53.9194 92.8587 54.2059C91.8411 54.4923 90.753 54.3848 89.8112 53.9046C87.9919 52.7776 87.6699 49.791 89.3524 48.5191Z" fill="#263238"/>
<path d="M122.535 58.3875C122.252 58.8294 122.015 59.2987 121.826 59.7882C121.606 60.2826 121.258 60.7102 120.82 61.0279C120.234 61.3278 119.559 61.405 118.92 61.2452C118.256 61.1164 117.629 60.8414 117.085 60.4402C116.646 60.0994 116.246 59.7106 115.893 59.281C115.585 58.8596 115.243 58.4638 114.871 58.0977C115.067 58.5852 115.339 59.0388 115.676 59.442C116.013 59.9161 116.414 60.3413 116.867 60.7059C117.449 61.1447 118.124 61.4424 118.84 61.5753C119.565 61.7551 120.332 61.6484 120.981 61.2774C121.466 60.9224 121.835 60.4324 122.044 59.8687C122.268 59.397 122.433 58.8995 122.535 58.3875Z" fill="#FFD000"/>
<path d="M122.301 63.1146C121.933 63.394 121.526 63.619 121.094 63.7828C120.623 63.9318 120.126 63.9757 119.636 63.9116C119.036 63.8203 118.462 63.6007 117.954 63.2676C117.031 62.6266 116.248 61.805 115.652 60.8526C115.424 60.4394 115.154 60.0509 114.847 59.6934C114.988 60.1539 115.197 60.5907 115.467 60.9894C116.014 62.0378 116.806 62.9383 117.777 63.6137C118.33 63.9795 118.962 64.2085 119.62 64.2819C120.167 64.342 120.72 64.2674 121.23 64.0645C122.051 63.6701 122.341 63.1227 122.301 63.1146Z" fill="#FFD000"/>
<path d="M103.297 79.6289C103.503 79.9662 103.618 80.3164 103.638 80.6697C103.663 80.8368 103.617 81.0047 103.503 81.1618C103.389 81.319 103.211 81.4618 102.98 81.5804C102.74 81.7262 102.441 81.8432 102.104 81.9233C101.766 82.0034 101.398 82.0446 101.027 82.0439C100.356 82.0432 99.7074 81.92 99.1981 81.6964C98.6888 81.4729 98.3518 81.1636 98.2479 80.8242L98.0098 80.0558C99.3991 79.8525 103.194 79.6818 103.297 79.6289Z" fill="#FF9A6C"/>
<path d="M99.0522 81.1252C99.0522 81.1252 99.2472 81.1252 99.5693 81.1411C100.021 81.163 100.482 81.163 100.934 81.1411C101.587 81.1089 102.177 81.0007 102.587 80.8381C103.075 80.6348 103.307 80.3822 103.239 80.1285C103.22 79.9858 103.101 79.8462 102.892 79.7193L103.095 79.7485C101.646 79.8176 100.374 79.8734 99.476 79.9053C98.9928 79.9336 98.5011 79.9452 98.0098 79.9399C98.4676 79.884 98.9459 79.8465 99.4336 79.8282C100.332 79.7751 101.586 79.7033 103.036 79.6289H103.171L103.231 79.6661C103.556 79.8636 103.694 80.086 103.629 80.3073C103.565 80.5286 103.3 80.7395 102.866 80.9152C102.39 81.0951 101.709 81.2096 100.968 81.2341C100.486 81.2474 100.001 81.233 99.5354 81.1916C99.361 81.1806 99.1962 81.1579 99.0522 81.1252Z" fill="#263238"/>
<path d="M139.512 106.576C140.043 106.576 147.627 109.603 149.623 117.041C151.619 124.479 157.069 151.769 157.069 151.769L162.857 159.787C162.857 159.787 160.982 174.414 150.347 171.628C150.347 171.628 143.247 172.868 140.985 165.671C138.723 158.475 134.336 137.005 134.336 137.005L139.512 106.576Z" fill="#B9B8B6"/>
<path d="M117.853 94L121.88 100.196L140 106.752L134.814 160.234V185.5C115.5 197.5 77.2791 196.215 74.5409 195C73.1154 194.959 71.3195 191.408 71.0859 189.425C70.8846 187.645 71.038 185.841 71.5369 184.123L74.5409 173.403C74.0979 180.074 76.063 133.607 76.1516 131.911L71.5 108.5C73.0906 106.405 82.0743 103.291 92.3795 99.5154L95.6009 94.5081L104.879 101.687L117.853 94Z" fill="#B9B8B6"/>
<path d="M72 108C72 108 67.4544 111.654 66.7543 114.468C66.0543 117.281 50.8011 149.692 50.8011 149.692L43.2239 151.697L41.1978 155.82C40.0144 158.185 39.6959 160.877 40.2958 163.444C40.8957 166.012 42.3775 168.298 44.4922 169.92C44.7556 170.116 45.0307 170.297 45.3158 170.462C49.4339 172.887 56.764 172.758 61.055 167.794C65.1154 163.089 77 146.176 77 146.176V125.479L72 108Z" fill="#B9B8B6"/>
<path d="M47.0495 152.59L36.3993 146.303L31.2634 152.59L32.326 155.633L46.0594 165.848C47.7643 164.457 48.9081 162.495 49.2794 160.326C49.8831 156.486 47.0495 152.59 47.0495 152.59Z" fill="#FFBF9D"/>
<path d="M50.4305 149.337C50.4305 149.442 51.3402 149.337 52.6765 149.788C54.4033 150.385 55.9323 151.446 57.0959 152.855C58.2458 154.295 59.1937 155.885 59.9134 157.581C60.1847 158.307 60.5215 159.008 60.9197 159.674C60.8123 158.901 60.5955 158.147 60.2757 157.436C59.6431 155.646 58.7093 153.977 57.5145 152.501C56.2929 151.009 54.6394 149.932 52.7811 149.418C52.0213 149.167 51.2057 149.139 50.4305 149.337Z" fill="#263238"/>
<path d="M36.5764 149.789C36.8418 148.399 36.7467 146.964 36.3 145.621C35.8532 144.277 35.0698 143.071 34.0245 142.117C31.5099 140.049 28.6664 138.416 25.6122 137.287C23.7446 136.482 19.8564 133.206 19.1722 133.995C18.4879 134.784 18.182 135.959 19.1722 137.392C20.1623 138.825 25.7893 140.958 25.0004 142.769C24.6784 143.502 22.9074 143.639 22.9074 143.639C19.6927 143.865 16.4686 143.929 13.2474 143.832C10.3977 143.582 7.83777 144.13 7.99072 145.112C8.14367 146.094 8.67497 146.633 11.0336 146.834C13.3923 147.036 17.2321 146.883 17.4736 147.422C17.7151 147.961 16.8779 148.308 15.5014 148.227C14.1248 148.147 7.63652 148.122 7.19377 148.863C7.0861 149.051 7.02143 149.261 7.00446 149.477C6.98749 149.692 7.01864 149.91 7.09563 150.112C7.17262 150.314 7.29354 150.497 7.44971 150.648C7.60588 150.798 7.79341 150.911 7.99878 150.98L9.52022 151.52C9.52022 151.52 8.63472 152.751 9.37532 153.435C10.1159 154.12 11.7903 153.878 11.7903 153.878L20.3958 153.637C20.3958 153.637 20.8869 154.152 20.6454 154.506C20.4039 154.86 13.6579 154.369 13.6096 155.11C13.5613 155.85 12.9737 156.189 14.9862 156.72C17.9336 157.211 20.9421 157.211 23.8895 156.72C25.7088 156.221 33.3322 155.915 33.3322 155.915L36.5764 149.789Z" fill="#FFBF9D"/>
<path d="M153.535 153.709L163.493 145.449L169.208 151.889L168.508 155.037L156.063 166.758C154.218 165.7 152.826 164.001 152.15 161.984C150.911 158.434 153.535 153.709 153.535 153.709Z" fill="#FFBF9D"/>
<path d="M163.606 149.747C163.178 148.399 163.101 146.964 163.382 145.578C163.664 144.192 164.295 142.9 165.216 141.826C167.481 139.475 170.13 137.526 173.048 136.062C174.803 135.008 178.281 131.337 179.062 132.037C179.525 132.455 179.82 133.026 179.893 133.646C179.965 134.265 179.81 134.889 179.456 135.402C178.651 136.94 174.771 138.727 174.908 140.699C174.922 140.89 174.974 141.076 175.06 141.247C175.146 141.418 175.265 141.57 175.41 141.695C175.555 141.82 175.724 141.915 175.905 141.975C176.087 142.034 176.279 142.058 176.47 142.044C179.682 141.896 182.884 141.587 186.065 141.118C188.875 140.538 191.475 140.78 191.443 141.77C191.411 142.76 190.936 143.38 188.617 143.839C186.299 144.298 182.467 144.644 182.338 145.167C182.209 145.69 183.022 145.972 184.383 145.722C185.743 145.473 192.183 144.708 192.707 145.392C192.836 145.564 192.926 145.763 192.97 145.974C193.013 146.185 193.01 146.403 192.959 146.613C192.908 146.822 192.811 147.018 192.676 147.185C192.54 147.353 192.369 147.488 192.175 147.582L190.726 148.298C190.726 148.298 191.749 149.417 191.097 150.182C190.445 150.947 188.754 150.907 188.754 150.907L180.173 151.663C180.173 151.663 179.746 152.235 180.036 152.557C180.326 152.879 186.951 151.607 187.088 152.34C187.225 153.072 187.852 153.338 185.904 154.062C183.03 154.895 180.038 155.246 177.049 155.101C175.182 154.819 167.566 155.366 167.566 155.366L163.606 149.747Z" fill="#FFBF9D"/>
<path d="M92.4597 101.006C92.9982 101.678 93.5964 102.301 94.2468 102.865C95.3819 103.976 96.9355 105.53 98.5777 107.301C98.9239 107.679 99.27 108.05 99.592 108.412L99.8094 108.645L100.011 108.396C101.283 106.786 102.385 105.305 103.158 104.25C103.612 103.714 103.999 103.125 104.309 102.495C103.775 102.952 103.294 103.468 102.876 104.033C102.031 105.031 100.872 106.448 99.584 108.058H99.9945L98.9883 106.939C97.5736 105.41 96.0796 103.956 94.5125 102.584C93.8949 101.976 93.2056 101.446 92.4597 101.006Z" fill="#263238"/>
<path d="M138.377 120.502C138.229 120.857 138.129 121.231 138.079 121.613C137.926 122.337 137.733 123.392 137.524 124.696C137.105 127.304 136.662 130.927 136.292 134.936C135.922 138.945 135.648 142.583 135.439 145.216C135.358 146.439 135.278 147.478 135.221 148.331C135.171 148.713 135.171 149.1 135.221 149.482C135.336 149.115 135.412 148.738 135.447 148.355C135.559 147.622 135.696 146.56 135.841 145.248C136.147 142.631 136.485 139.001 136.856 134.992C137.226 130.983 137.588 127.369 137.902 124.793C138.055 123.577 138.184 122.539 138.288 121.693C138.372 121.302 138.401 120.901 138.377 120.502Z" fill="#263238"/>
<path d="M75.3936 118.676C75.2787 119.132 75.2112 119.599 75.1924 120.068C75.1038 120.978 75.0072 122.282 74.9267 123.908C74.7416 127.128 74.653 131.636 74.6369 136.579V153.09C74.6111 153.56 74.6299 154.032 74.6933 154.498C74.7976 154.039 74.8489 153.569 74.8462 153.098C74.9106 152.188 74.975 150.876 75.0233 149.258C75.136 146.038 75.1763 141.53 75.1843 136.587C75.1924 131.644 75.2326 127.161 75.3131 123.924C75.3534 122.387 75.3856 121.099 75.4097 120.085C75.4479 119.615 75.4425 119.144 75.3936 118.676Z" fill="#263238"/>
<path d="M146.548 165.123C146.8 164.209 146.985 163.279 147.103 162.338C147.48 160.092 148.208 157.918 149.261 155.898C150.334 153.917 151.948 152.282 153.914 151.181C154.759 150.777 155.633 150.438 156.53 150.166C156.265 150.109 155.99 150.109 155.725 150.166C155.027 150.283 154.35 150.497 153.712 150.802C151.597 151.857 149.864 153.546 148.753 155.632C147.688 157.706 147.012 159.957 146.757 162.274C146.568 163.211 146.497 164.168 146.548 165.123Z" fill="#263238"/>
<path d="M143.964 154.248C144.076 154.377 145.678 152.727 148.286 151.833C150.895 150.94 153.116 151.246 153.165 151.077C153.213 150.908 150.854 150.36 148.109 151.318C145.364 152.276 143.843 154.184 143.964 154.248Z" fill="#263238"/>
<path d="M103.11 191.656C103.159 191.358 103.18 191.057 103.174 190.755C103.174 190.119 103.174 189.258 103.231 188.179C103.279 185.885 103.343 182.657 103.424 178.688C103.609 170.638 103.867 159.585 104.156 147.381C104.446 135.177 104.599 124.076 104.583 116.059C104.583 112.034 104.543 108.814 104.495 106.56C104.495 105.481 104.438 104.62 104.414 103.984C104.421 103.682 104.399 103.38 104.35 103.082C104.327 103.382 104.327 103.684 104.35 103.984C104.35 104.62 104.35 105.481 104.35 106.56C104.35 108.854 104.301 112.09 104.269 116.051C104.189 124.101 103.955 135.137 103.681 147.365C103.408 159.593 103.166 170.662 103.102 178.68C103.102 182.705 103.102 185.925 103.102 188.179C103.102 189.258 103.102 190.119 103.142 190.755C103.111 191.054 103.1 191.356 103.11 191.656Z" fill="#263238"/>
<path d="M154.002 153.37C154.002 153.305 153.197 153.909 152.553 155.246C152.158 156.007 151.871 156.82 151.7 157.661C151.534 158.728 151.534 159.814 151.7 160.881C151.82 161.949 152.137 162.986 152.634 163.94C153.064 164.713 153.657 165.383 154.372 165.904C155.001 166.426 155.793 166.71 156.61 166.709C155.903 166.416 155.233 166.041 154.614 165.59C153.979 165.069 153.456 164.426 153.076 163.698C152.646 162.788 152.373 161.81 152.271 160.808C152.127 159.804 152.127 158.785 152.271 157.781C152.41 156.952 152.645 156.141 152.972 155.366C153.471 154.086 154.083 153.418 154.002 153.37Z" fill="#263238"/>
<path d="M44.0629 166.967C44.0629 166.967 44.3205 166.967 44.7311 166.765C45.3074 166.511 45.8485 166.184 46.3411 165.791C48.0279 164.492 49.1816 162.621 49.5849 160.531C49.9882 158.44 49.6133 156.274 48.5307 154.441C48.2152 153.89 47.8311 153.381 47.3876 152.927C47.0736 152.621 46.8724 152.476 46.8482 152.501C46.8241 152.525 47.4922 153.249 48.1926 154.626C49.129 156.407 49.4312 158.453 49.0493 160.428C48.6674 162.404 47.6242 164.19 46.0915 165.493C44.9404 166.508 44.0227 166.878 44.0629 166.967Z" fill="#263238"/>
<path d="M23.5917 140.41C23.5273 140.475 23.9942 140.917 24.5818 141.698C24.9199 142.145 25.1537 142.662 25.2661 143.212C25.3949 143.831 25.3788 144.556 25.4915 145.353C25.5874 146.037 25.8182 146.695 26.1706 147.29C26.523 147.884 26.9899 148.402 27.5443 148.814C27.9679 149.196 28.5053 149.428 29.0738 149.474C29.114 149.386 28.5183 149.161 27.7858 148.508C26.8427 147.673 26.2218 146.534 26.0308 145.288C25.9778 144.56 25.8865 143.834 25.7572 143.115C25.6031 142.515 25.3046 141.963 24.8877 141.505C24.5496 141.042 24.1051 140.666 23.5917 140.41Z" fill="#FF9A6C"/>
<path d="M178.861 148.879C178.861 149.024 181.541 149.169 184.85 149.008C188.158 148.847 190.815 148.46 190.799 148.307C190.783 148.155 188.118 148.307 184.826 148.46C181.533 148.613 178.861 148.718 178.861 148.879Z" fill="#FF9A6C"/>
<path d="M172.767 148.42C172.767 148.477 173.403 148.372 174.159 147.736C174.65 147.31 175.039 146.781 175.301 146.187C175.563 145.592 175.69 144.948 175.673 144.299C175.615 143.612 175.491 142.933 175.303 142.27C175.162 141.745 175.094 141.203 175.101 140.66C175.148 140.175 175.259 139.699 175.431 139.243C175.431 139.187 174.844 139.613 174.715 140.628C174.65 141.198 174.683 141.775 174.811 142.334C174.963 142.973 175.068 143.621 175.125 144.274C175.143 145.442 174.7 146.569 173.894 147.414C173.274 148.138 172.727 148.34 172.767 148.42Z" fill="#FF9A6C"/>
<path d="M22.0945 150.328C22.0945 150.175 19.2206 150.288 15.7108 150.578C12.201 150.867 9.35932 151.238 9.36737 151.383C9.37542 151.528 12.2412 151.423 15.751 151.125C19.2609 150.827 22.1025 150.473 22.0945 150.328Z" fill="#FF9A6C"/>
<path d="M104.961 101.971C105.283 103.043 105.689 104.087 106.177 105.095C106.394 105.578 106.62 106.101 106.853 106.64C107.084 107.255 107.353 107.854 107.658 108.435C107.774 108.626 107.943 108.78 108.145 108.877C108.346 108.974 108.571 109.011 108.793 108.983C109.183 108.88 109.546 108.693 109.856 108.435L111.756 107.139C114.348 105.352 116.674 103.702 118.349 102.494C119.285 101.882 120.168 101.193 120.989 100.434C119.992 100.936 119.036 101.518 118.131 102.172C116.401 103.307 114.034 104.893 111.442 106.688L109.55 107.993C109.303 108.206 109.016 108.368 108.705 108.468C108.578 108.483 108.449 108.459 108.336 108.401C108.222 108.342 108.129 108.25 108.069 108.137C107.457 107.027 106.95 105.827 106.459 104.917C106.042 103.895 105.542 102.91 104.961 101.971Z" fill="#263238"/>
<path d="M96.1849 63.6121C96.5306 64.8575 96.5726 66.1669 96.3058 67.3751C96.039 68.5833 95.4753 69.6362 94.6858 70.401C93.8963 71.1657 92.9163 71.6081 91.8695 71.6722C90.8228 71.7363 89.7562 71.4193 88.8043 70.7612C87.8523 70.1031 87.0577 69.1334 86.5208 67.9744C85.9838 66.8155 85.7284 65.5191 85.787 64.249C85.8455 62.9789 86.2153 61.7919 86.8497 60.8378C87.484 59.8837 88.3546 59.2053 89.3515 58.888C90.0165 58.6764 90.7213 58.6308 91.4253 58.754C92.1292 58.8771 92.8186 59.1665 93.4536 59.6055C94.0886 60.0445 94.6568 60.6245 95.1256 61.3121C95.5943 61.9997 95.9543 62.7813 96.1849 63.6121Z" fill="#407BFF" fill-opacity="0.2"/>
<path d="M109.961 63.463C110.303 64.7046 110.342 66.0089 110.073 67.2116C109.805 68.4142 109.241 69.4614 108.453 70.2211C107.665 70.9809 106.688 71.4191 105.645 71.4807C104.602 71.5423 103.539 71.2245 102.591 70.5673C101.644 69.91 100.853 68.9428 100.319 67.7876C99.7849 66.6323 99.5314 65.3407 99.5905 64.0754C99.6496 62.8101 100.018 61.6279 100.651 60.6776C101.283 59.7273 102.151 59.0516 103.144 58.7355C103.808 58.5269 104.512 58.4837 105.214 58.6085C105.916 58.7332 106.604 59.0235 107.237 59.4627C107.87 59.9018 108.437 60.4811 108.904 61.1676C109.372 61.854 109.731 62.634 109.961 63.463Z" fill="#407BFF" fill-opacity="0.2"/>
<path opacity="0.6" d="M96.1849 63.6121C96.5306 64.8575 96.5726 66.1669 96.3058 67.3751C96.039 68.5833 95.4753 69.6362 94.6858 70.401C93.8963 71.1657 92.9163 71.6081 91.8695 71.6722C90.8228 71.7363 89.7562 71.4193 88.8043 70.7612C87.8523 70.1031 87.0577 69.1334 86.5208 67.9744C85.9838 66.8155 85.7284 65.5191 85.787 64.249C85.8455 62.9789 86.2153 61.7919 86.8497 60.8378C87.484 59.8837 88.3546 59.2053 89.3515 58.888C90.0165 58.6764 90.7213 58.6308 91.4253 58.754C92.1292 58.8771 92.8186 59.1665 93.4536 59.6055C94.0886 60.0445 94.6568 60.6245 95.1256 61.3121C95.5943 61.9997 95.9543 62.7813 96.1849 63.6121Z" fill="#FFC727"/>
<path opacity="0.6" d="M109.961 63.463C110.303 64.7046 110.342 66.0089 110.073 67.2116C109.805 68.4142 109.241 69.4614 108.453 70.2211C107.665 70.9809 106.688 71.4191 105.645 71.4807C104.602 71.5423 103.539 71.2245 102.591 70.5673C101.644 69.91 100.853 68.9428 100.319 67.7876C99.7849 66.6323 99.5314 65.3407 99.5905 64.0754C99.6496 62.8101 100.018 61.6279 100.651 60.6776C101.283 59.7273 102.151 59.0516 103.144 58.7355C103.808 58.5269 104.512 58.4837 105.214 58.6085C105.916 58.7332 106.604 59.0235 107.237 59.4627C107.87 59.9018 108.437 60.4811 108.904 61.1676C109.372 61.854 109.731 62.634 109.961 63.463Z" fill="#FFC727"/>
<path d="M93.0517 72.0452C91.9668 72.3907 90.7929 72.3269 89.6785 71.8618C88.5641 71.3967 87.5593 70.5512 86.7915 69.4324C86.0237 68.3136 85.5273 66.9718 85.3651 65.5769C85.2029 64.1819 85.3823 62.7965 85.8806 61.5962C86.3788 60.3958 87.1735 59.4345 88.164 58.8338C89.1545 58.2331 90.2963 58.0201 91.4448 58.2217C92.5933 58.4234 93.6969 59.0306 94.6158 59.9666C95.5348 60.9026 96.2278 62.1252 96.6071 63.4796C96.8606 64.3768 96.9696 65.3104 96.928 66.2269C96.8865 67.1433 96.695 68.0247 96.3648 68.8204C96.0345 69.6161 95.5718 70.3105 95.0033 70.8639C94.4348 71.4173 93.7716 71.8187 93.0517 72.0452ZM89.5192 59.431C88.5849 59.7076 87.7648 60.3249 87.1638 61.2039C86.5627 62.0829 86.2078 63.1837 86.1446 64.3658C86.0813 65.5479 86.3126 66.7576 86.8087 67.8403C87.3048 68.923 88.0433 69.8296 88.9299 70.4442C89.8165 71.0589 90.8109 71.3537 91.786 71.291C92.7612 71.2283 93.6729 70.811 94.4046 70.0923C95.1363 69.3736 95.6548 68.3862 95.8939 67.2562C96.133 66.1263 96.0819 64.9051 95.747 63.7486C95.3075 62.2307 94.4101 60.9296 93.2465 60.1229C92.083 59.3163 90.7453 59.0679 89.5192 59.431Z" fill="#626C71"/>
<path d="M106.844 71.8918C105.759 72.2414 104.585 72.1813 103.469 71.7192C102.353 71.2572 101.346 70.4139 100.576 69.2963C99.8062 68.1787 99.3074 66.8371 99.143 65.4415C98.9786 64.0459 99.1561 62.6592 99.6531 61.457C100.15 60.2549 100.944 59.2915 101.934 58.689C102.925 58.0864 104.067 57.8718 105.216 58.0724C106.365 58.273 107.47 58.8797 108.39 59.8156C109.309 60.7515 110.003 61.9745 110.383 63.3297C110.885 65.138 110.795 67.0512 110.133 68.6542C109.47 70.2572 108.288 71.4206 106.844 71.8918ZM103.295 59.281C102.361 59.5577 101.541 60.1749 100.94 61.0539C100.339 61.9329 99.9838 63.0338 99.9205 64.2159C99.8573 65.398 100.088 66.6076 100.585 67.6903C101.081 68.773 101.819 69.6796 102.706 70.2942C103.592 70.9089 104.587 71.2037 105.562 71.141C106.537 71.0783 107.449 70.661 108.18 69.9423C108.912 69.2236 109.431 68.2363 109.67 67.1063C109.909 65.9763 109.858 64.7551 109.523 63.5986C109.082 62.0735 108.179 60.7672 107.008 59.9609C105.837 59.1547 104.492 58.913 103.263 59.2879L103.295 59.281Z" fill="#626C71"/>
<path d="M99.0871 65.2177C98.9321 65.0161 98.7465 64.8527 98.5426 64.7381C98.3387 64.6236 98.1211 64.5605 97.9037 64.553C97.6863 64.5455 97.4741 64.5936 97.2809 64.6944C97.0877 64.7951 96.9178 64.9462 96.7823 65.1378L96.0518 64.386C96.2602 64.0908 96.5198 63.8554 96.8147 63.6944C97.1097 63.5334 97.434 63.45 97.7679 63.4492C98.1019 63.4484 98.4385 63.5304 98.7574 63.69C99.0763 63.8496 99.3709 64.0837 99.6233 64.3779L99.0871 65.2177Z" fill="#626C71"/>
<path d="M122.049 70.0888L110.181 66.5582L110.329 65.4714L122.181 69.0055L122.049 70.0888Z" fill="#626C71"/>
<path d="M149.688 148.21L149.723 148.506L149.98 150.621L157.299 166.661L157.459 164.837" fill="#EBEBEB"/>
<path d="M200.305 147.42L200.456 149.182L157.299 166.661L157.3 165.16" fill="#EBEBEB"/>
<path d="M186.828 132.666L200.305 147.419L157.3 165.159L149.688 148.209L186.828 132.666Z" fill="white"/>
<path d="M186.828 132.667L186.657 132.737L184.099 133.793L176.428 136.957L149.65 148.116L149.556 148.155L149.593 148.244C151.941 153.481 154.515 159.213 157.191 165.182L157.23 165.275L160.862 163.777L200.318 147.471L200.419 147.429L200.347 147.35L190.445 136.568C189.278 135.304 188.374 134.32 187.753 133.651C187.446 133.319 187.213 133.071 187.054 132.896C186.895 132.722 186.812 132.647 186.812 132.647C186.812 132.647 186.89 132.742 187.045 132.917C187.201 133.093 187.439 133.353 187.74 133.691L190.416 136.645C192.737 139.205 196.092 142.896 200.232 147.454L200.259 147.329L160.782 163.583L157.243 165.043L157.38 165.1C154.69 159.119 152.111 153.384 149.759 148.15L149.708 148.28L176.41 137.06L184.067 133.823L186.105 132.956L186.635 132.738L186.828 132.667Z" fill="#263238"/>
<path d="M159.973 165.779C160.363 165.618 160.673 165.309 160.835 164.92C160.996 164.531 160.997 164.093 160.836 163.704C160.816 163.654 160.777 163.615 160.727 163.594C160.678 163.574 160.622 163.574 160.573 163.594C160.524 163.615 160.486 163.655 160.465 163.704C160.445 163.753 160.444 163.808 160.463 163.857C160.553 164.074 160.576 164.313 160.53 164.543C160.484 164.773 160.371 164.984 160.204 165.149C160.038 165.315 159.827 165.428 159.597 165.473C159.367 165.519 159.128 165.495 158.912 165.405C158.695 165.315 158.51 165.162 158.38 164.967C158.25 164.772 158.181 164.542 158.181 164.308C158.182 164.073 158.251 163.844 158.382 163.649C158.513 163.454 158.698 163.303 158.915 163.213C158.964 163.193 159.004 163.154 159.024 163.104C159.045 163.055 159.045 162.999 159.024 162.95C159.004 162.901 158.965 162.861 158.915 162.841C158.866 162.82 158.81 162.82 158.761 162.84C158.371 163.001 158.062 163.31 157.9 163.699C157.738 164.088 157.737 164.526 157.898 164.916C158.059 165.305 158.368 165.615 158.757 165.777C159.146 165.939 159.583 165.94 159.973 165.779Z" fill="#263238"/>
<path d="M162.389 164.783C162.779 164.622 163.089 164.313 163.251 163.924C163.413 163.535 163.413 163.097 163.253 162.707C163.232 162.658 163.193 162.619 163.144 162.598C163.094 162.578 163.039 162.578 162.989 162.598C162.94 162.618 162.9 162.658 162.88 162.707C162.859 162.756 162.859 162.812 162.88 162.861C162.969 163.078 162.992 163.317 162.946 163.547C162.9 163.777 162.787 163.988 162.621 164.153C162.455 164.319 162.243 164.432 162.013 164.477C161.783 164.522 161.544 164.499 161.328 164.409C161.111 164.318 160.926 164.166 160.796 163.971C160.666 163.776 160.597 163.546 160.597 163.312C160.598 163.077 160.668 162.848 160.798 162.653C160.929 162.458 161.114 162.307 161.331 162.217C161.381 162.197 161.42 162.158 161.44 162.108C161.461 162.059 161.461 162.003 161.441 161.954C161.42 161.904 161.381 161.865 161.332 161.845C161.282 161.824 161.227 161.824 161.177 161.844C160.984 161.924 160.809 162.041 160.661 162.188C160.513 162.335 160.396 162.51 160.316 162.703C160.236 162.896 160.194 163.103 160.194 163.311C160.194 163.52 160.235 163.727 160.314 163.92C160.394 164.113 160.511 164.288 160.658 164.436C160.805 164.583 160.98 164.701 161.173 164.781C161.366 164.861 161.572 164.903 161.781 164.903C161.99 164.903 162.196 164.862 162.389 164.783Z" fill="#263238"/>
<path d="M164.806 163.787C165.195 163.626 165.505 163.317 165.667 162.928C165.829 162.539 165.83 162.101 165.669 161.711C165.648 161.663 165.608 161.624 165.559 161.604C165.51 161.583 165.455 161.583 165.405 161.602C165.356 161.622 165.317 161.661 165.296 161.711C165.276 161.76 165.276 161.816 165.296 161.865C165.385 162.082 165.408 162.321 165.362 162.551C165.316 162.78 165.203 162.992 165.037 163.157C164.871 163.323 164.659 163.435 164.429 163.481C164.199 163.526 163.961 163.502 163.744 163.412C163.528 163.322 163.343 163.17 163.213 162.975C163.083 162.78 163.013 162.55 163.014 162.316C163.014 162.081 163.084 161.852 163.215 161.657C163.345 161.462 163.531 161.311 163.747 161.221C163.797 161.201 163.836 161.162 163.857 161.112C163.877 161.063 163.877 161.007 163.857 160.958C163.836 160.909 163.796 160.87 163.747 160.85C163.698 160.83 163.643 160.829 163.594 160.848C163.401 160.928 163.225 161.045 163.077 161.192C162.93 161.339 162.812 161.514 162.732 161.707C162.652 161.9 162.611 162.106 162.61 162.315C162.61 162.524 162.651 162.731 162.73 162.923C162.81 163.116 162.927 163.292 163.074 163.44C163.222 163.587 163.397 163.705 163.589 163.785C163.782 163.865 163.989 163.906 164.197 163.907C164.406 163.907 164.613 163.866 164.806 163.787Z" fill="#263238"/>
<path d="M167.218 162.79C167.412 162.711 167.588 162.594 167.736 162.447C167.884 162.3 168.002 162.125 168.083 161.932C168.163 161.739 168.205 161.532 168.205 161.323C168.206 161.114 168.165 160.907 168.085 160.713C168.064 160.665 168.025 160.626 167.976 160.606C167.927 160.585 167.871 160.584 167.822 160.604C167.772 160.624 167.733 160.663 167.713 160.713C167.692 160.762 167.692 160.818 167.712 160.867C167.803 161.085 167.827 161.324 167.781 161.555C167.736 161.786 167.623 161.998 167.456 162.165C167.29 162.332 167.078 162.445 166.847 162.492C166.616 162.538 166.376 162.514 166.159 162.424C165.941 162.334 165.755 162.181 165.624 161.986C165.494 161.79 165.424 161.559 165.424 161.324C165.424 161.088 165.494 160.858 165.625 160.663C165.756 160.467 165.942 160.314 166.16 160.225C166.21 160.204 166.249 160.165 166.269 160.116C166.29 160.066 166.29 160.011 166.27 159.961C166.249 159.912 166.21 159.873 166.161 159.852C166.111 159.831 166.056 159.831 166.006 159.852C165.813 159.931 165.638 160.048 165.49 160.195C165.342 160.343 165.225 160.518 165.145 160.711C165.065 160.903 165.023 161.11 165.023 161.319C165.023 161.527 165.064 161.734 165.143 161.927C165.223 162.12 165.34 162.295 165.487 162.443C165.634 162.591 165.809 162.708 166.002 162.788C166.195 162.869 166.401 162.91 166.61 162.91C166.819 162.911 167.025 162.87 167.218 162.79Z" fill="#263238"/>
<path d="M169.635 161.794C170.024 161.634 170.334 161.325 170.496 160.936C170.658 160.546 170.659 160.109 170.498 159.719C170.477 159.67 170.438 159.63 170.389 159.61C170.34 159.589 170.284 159.589 170.235 159.61C170.186 159.631 170.147 159.67 170.127 159.719C170.106 159.768 170.106 159.823 170.125 159.873C170.214 160.09 170.238 160.328 170.191 160.558C170.145 160.788 170.032 160.999 169.866 161.165C169.7 161.331 169.488 161.443 169.258 161.489C169.028 161.534 168.79 161.51 168.573 161.42C168.357 161.33 168.172 161.178 168.042 160.983C167.912 160.787 167.842 160.558 167.843 160.324C167.843 160.089 167.913 159.86 168.044 159.665C168.174 159.47 168.36 159.318 168.576 159.229C168.626 159.209 168.665 159.169 168.686 159.12C168.706 159.071 168.706 159.015 168.686 158.966C168.666 158.916 168.626 158.877 168.577 158.856C168.528 158.836 168.472 158.836 168.423 158.856C168.23 158.936 168.054 159.052 167.907 159.2C167.759 159.347 167.641 159.522 167.561 159.715C167.481 159.908 167.44 160.114 167.439 160.323C167.439 160.532 167.48 160.738 167.559 160.931C167.639 161.124 167.756 161.3 167.903 161.447C168.051 161.595 168.226 161.713 168.418 161.793C168.611 161.873 168.818 161.914 169.026 161.915C169.235 161.915 169.442 161.874 169.635 161.794Z" fill="#263238"/>
<path d="M172.051 160.798C172.441 160.638 172.751 160.329 172.912 159.939C173.074 159.55 173.075 159.113 172.914 158.723C172.894 158.674 172.855 158.634 172.805 158.614C172.756 158.593 172.7 158.593 172.651 158.614C172.601 158.634 172.562 158.673 172.541 158.723C172.521 158.772 172.521 158.827 172.541 158.877C172.631 159.094 172.654 159.332 172.608 159.562C172.562 159.792 172.448 160.003 172.282 160.169C172.116 160.335 171.905 160.447 171.675 160.493C171.445 160.538 171.206 160.514 170.99 160.424C170.773 160.334 170.588 160.182 170.458 159.987C170.328 159.791 170.259 159.562 170.259 159.327C170.259 159.093 170.329 158.864 170.46 158.669C170.59 158.474 170.776 158.322 170.993 158.233C171.042 158.212 171.081 158.173 171.102 158.124C171.123 158.074 171.123 158.019 171.102 157.969C171.082 157.92 171.043 157.881 170.993 157.86C170.944 157.84 170.888 157.84 170.839 157.86C170.449 158.021 170.139 158.33 169.978 158.719C169.816 159.108 169.815 159.546 169.976 159.935C170.136 160.325 170.445 160.635 170.835 160.797C171.224 160.958 171.661 160.959 172.051 160.798Z" fill="#263238"/>
<path d="M174.467 159.8C174.857 159.64 175.167 159.331 175.329 158.941C175.491 158.552 175.491 158.115 175.33 157.725C175.309 157.676 175.27 157.638 175.221 157.617C175.172 157.597 175.117 157.596 175.067 157.616C175.018 157.636 174.978 157.675 174.958 157.725C174.937 157.774 174.937 157.829 174.958 157.879C175.047 158.096 175.07 158.334 175.024 158.564C174.978 158.794 174.865 159.005 174.699 159.171C174.532 159.337 174.321 159.449 174.091 159.495C173.861 159.54 173.622 159.516 173.406 159.426C173.189 159.336 173.004 159.184 172.874 158.989C172.744 158.793 172.675 158.564 172.675 158.329C172.676 158.095 172.746 157.866 172.876 157.671C173.007 157.476 173.192 157.324 173.409 157.235C173.458 157.214 173.498 157.175 173.518 157.126C173.539 157.076 173.539 157.021 173.519 156.971C173.497 156.923 173.458 156.884 173.409 156.864C173.36 156.843 173.305 156.843 173.255 156.862C172.866 157.023 172.556 157.332 172.394 157.721C172.232 158.11 172.231 158.548 172.392 158.937C172.553 159.327 172.862 159.637 173.251 159.799C173.64 159.96 174.078 159.961 174.467 159.8Z" fill="#263238"/>
<path d="M176.873 158.808C177.066 158.729 177.242 158.612 177.39 158.465C177.538 158.318 177.655 158.143 177.735 157.95C177.816 157.757 177.857 157.55 177.857 157.341C177.857 157.133 177.816 156.926 177.736 156.733C177.715 156.683 177.676 156.644 177.627 156.624C177.577 156.603 177.522 156.603 177.472 156.623C177.424 156.645 177.385 156.684 177.365 156.733C177.344 156.782 177.343 156.837 177.363 156.887C177.452 157.104 177.475 157.342 177.429 157.572C177.383 157.802 177.27 158.013 177.104 158.179C176.938 158.344 176.726 158.457 176.496 158.502C176.266 158.548 176.028 158.524 175.811 158.434C175.594 158.344 175.409 158.192 175.279 157.996C175.149 157.801 175.08 157.572 175.081 157.337C175.081 157.103 175.151 156.873 175.281 156.679C175.412 156.484 175.597 156.332 175.814 156.243C175.864 156.222 175.903 156.183 175.924 156.134C175.944 156.084 175.944 156.029 175.924 155.979C175.903 155.93 175.864 155.89 175.815 155.87C175.765 155.849 175.71 155.849 175.66 155.87C175.271 156.03 174.961 156.339 174.799 156.729C174.637 157.118 174.637 157.555 174.797 157.945C174.958 158.335 175.267 158.644 175.656 158.806C176.045 158.968 176.483 158.969 176.873 158.808Z" fill="#263238"/>
<path d="M179.296 157.808C179.686 157.647 179.996 157.338 180.158 156.949C180.32 156.56 180.32 156.123 180.16 155.733C180.139 155.683 180.1 155.644 180.051 155.624C180.001 155.603 179.946 155.603 179.896 155.623C179.847 155.645 179.809 155.684 179.788 155.733C179.768 155.782 179.767 155.837 179.787 155.887C179.876 156.104 179.899 156.342 179.853 156.572C179.807 156.802 179.694 157.013 179.528 157.179C179.362 157.344 179.15 157.457 178.92 157.502C178.69 157.548 178.451 157.524 178.235 157.434C178.018 157.344 177.833 157.192 177.703 156.996C177.573 156.801 177.504 156.572 177.504 156.337C177.505 156.103 177.575 155.873 177.705 155.679C177.836 155.484 178.021 155.332 178.238 155.243C178.288 155.222 178.327 155.183 178.347 155.134C178.368 155.084 178.368 155.029 178.348 154.979C178.327 154.93 178.288 154.89 178.239 154.87C178.189 154.849 178.134 154.849 178.084 154.87C177.891 154.949 177.716 155.066 177.568 155.213C177.42 155.361 177.303 155.536 177.223 155.729C177.143 155.921 177.101 156.128 177.101 156.337C177.101 156.545 177.142 156.752 177.221 156.945C177.301 157.138 177.418 157.313 177.565 157.461C177.712 157.609 177.887 157.726 178.08 157.806C178.273 157.887 178.479 157.928 178.688 157.928C178.897 157.929 179.103 157.888 179.296 157.808Z" fill="#263238"/>
<path d="M181.962 156.709C182.352 156.548 182.662 156.239 182.824 155.85C182.986 155.46 182.986 155.023 182.826 154.633C182.804 154.585 182.765 154.546 182.716 154.525C182.667 154.505 182.612 154.504 182.562 154.524C182.513 154.544 182.473 154.583 182.453 154.633C182.432 154.682 182.432 154.738 182.453 154.787C182.542 155.004 182.565 155.242 182.519 155.472C182.473 155.702 182.36 155.914 182.194 156.079C182.028 156.245 181.816 156.357 181.586 156.403C181.356 156.448 181.117 156.424 180.901 156.334C180.684 156.244 180.499 156.092 180.369 155.897C180.239 155.702 180.17 155.472 180.17 155.238C180.171 155.003 180.241 154.774 180.371 154.579C180.502 154.384 180.687 154.232 180.904 154.143C180.954 154.123 180.993 154.083 181.013 154.034C181.034 153.985 181.034 153.929 181.014 153.88C180.992 153.831 180.953 153.792 180.904 153.772C180.855 153.751 180.8 153.751 180.75 153.77C180.557 153.85 180.382 153.967 180.234 154.114C180.086 154.261 179.969 154.436 179.889 154.629C179.809 154.822 179.767 155.028 179.767 155.237C179.767 155.446 179.808 155.652 179.887 155.845C179.967 156.038 180.084 156.214 180.231 156.361C180.378 156.509 180.553 156.627 180.746 156.707C180.939 156.787 181.145 156.828 181.354 156.829C181.563 156.829 181.769 156.788 181.962 156.709Z" fill="#263238"/>
<path d="M184.375 155.714C184.569 155.635 184.744 155.519 184.892 155.371C185.04 155.224 185.158 155.049 185.238 154.856C185.318 154.663 185.36 154.457 185.36 154.248C185.36 154.039 185.319 153.832 185.238 153.639C185.218 153.59 185.179 153.55 185.129 153.53C185.08 153.509 185.024 153.509 184.975 153.53C184.926 153.551 184.888 153.59 184.867 153.639C184.847 153.688 184.846 153.743 184.865 153.793C184.955 154.01 184.978 154.248 184.932 154.478C184.886 154.708 184.773 154.919 184.607 155.085C184.44 155.251 184.229 155.363 183.999 155.409C183.769 155.454 183.53 155.43 183.314 155.34C183.097 155.25 182.912 155.098 182.782 154.903C182.652 154.707 182.583 154.478 182.583 154.243C182.584 154.009 182.653 153.78 182.784 153.585C182.915 153.39 183.1 153.238 183.317 153.149C183.366 153.128 183.406 153.089 183.426 153.04C183.447 152.99 183.447 152.935 183.426 152.886C183.406 152.836 183.367 152.797 183.317 152.776C183.268 152.756 183.213 152.756 183.163 152.776C182.97 152.856 182.795 152.972 182.647 153.12C182.499 153.267 182.382 153.442 182.302 153.635C182.222 153.828 182.18 154.034 182.18 154.243C182.18 154.452 182.22 154.658 182.3 154.851C182.38 155.044 182.496 155.22 182.644 155.367C182.791 155.515 182.966 155.632 183.159 155.713C183.352 155.793 183.558 155.834 183.767 155.834C183.976 155.835 184.182 155.794 184.375 155.714Z" fill="#263238"/>
<path d="M186.791 154.716C187.181 154.556 187.491 154.247 187.653 153.857C187.815 153.468 187.815 153.031 187.655 152.641C187.634 152.592 187.595 152.552 187.546 152.532C187.496 152.511 187.441 152.511 187.391 152.532C187.343 152.553 187.304 152.592 187.283 152.641C187.263 152.69 187.262 152.745 187.282 152.795C187.371 153.012 187.394 153.25 187.348 153.48C187.302 153.71 187.189 153.921 187.023 154.087C186.857 154.253 186.645 154.365 186.415 154.411C186.185 154.456 185.947 154.432 185.73 154.342C185.513 154.252 185.328 154.1 185.198 153.905C185.068 153.709 184.999 153.48 185 153.245C185 153.011 185.07 152.782 185.2 152.587C185.331 152.392 185.516 152.24 185.733 152.151C185.783 152.13 185.822 152.091 185.843 152.042C185.863 151.992 185.863 151.937 185.843 151.887C185.822 151.838 185.783 151.799 185.734 151.778C185.684 151.758 185.629 151.758 185.579 151.778C185.386 151.858 185.211 151.974 185.063 152.122C184.915 152.269 184.798 152.444 184.718 152.637C184.638 152.829 184.596 153.036 184.596 153.245C184.596 153.454 184.637 153.66 184.716 153.853C184.796 154.046 184.913 154.221 185.06 154.369C185.207 154.517 185.382 154.634 185.575 154.715C185.768 154.795 185.974 154.836 186.183 154.836C186.392 154.837 186.599 154.796 186.791 154.716Z" fill="#263238"/>
<path d="M189.208 153.72C189.597 153.559 189.907 153.251 190.069 152.861C190.231 152.472 190.232 152.035 190.071 151.645C190.05 151.596 190.011 151.556 189.962 151.536C189.913 151.515 189.857 151.515 189.808 151.535C189.758 151.556 189.719 151.595 189.698 151.644C189.678 151.694 189.678 151.749 189.698 151.799C189.787 152.016 189.811 152.254 189.764 152.484C189.718 152.714 189.605 152.925 189.439 153.091C189.273 153.256 189.061 153.369 188.831 153.415C188.601 153.46 188.363 153.436 188.146 153.346C187.93 153.256 187.745 153.104 187.615 152.908C187.485 152.713 187.415 152.484 187.416 152.249C187.416 152.015 187.486 151.786 187.617 151.591C187.747 151.396 187.933 151.244 188.149 151.155C188.199 151.134 188.238 151.095 188.259 151.046C188.279 150.996 188.279 150.941 188.259 150.891C188.239 150.842 188.199 150.803 188.15 150.782C188.101 150.762 188.045 150.761 187.996 150.782C187.803 150.861 187.627 150.978 187.48 151.126C187.332 151.273 187.214 151.448 187.134 151.641C187.054 151.833 187.013 152.04 187.012 152.249C187.012 152.457 187.053 152.664 187.132 152.857C187.212 153.05 187.329 153.225 187.476 153.373C187.624 153.521 187.799 153.638 187.991 153.718C188.184 153.799 188.391 153.84 188.599 153.84C188.808 153.841 189.015 153.8 189.208 153.72Z" fill="#263238"/>
<path d="M191.624 152.724C192.014 152.563 192.324 152.254 192.486 151.865C192.647 151.476 192.648 151.039 192.487 150.649C192.466 150.6 192.427 150.561 192.378 150.541C192.329 150.521 192.274 150.52 192.224 150.539C192.175 150.56 192.135 150.599 192.115 150.648C192.094 150.698 192.094 150.753 192.115 150.803C192.204 151.02 192.227 151.258 192.181 151.488C192.135 151.718 192.022 151.929 191.856 152.095C191.689 152.26 191.478 152.373 191.248 152.418C191.018 152.464 190.779 152.44 190.563 152.35C190.346 152.26 190.161 152.108 190.031 151.912C189.901 151.717 189.832 151.488 189.832 151.253C189.833 151.019 189.903 150.789 190.033 150.595C190.164 150.4 190.349 150.248 190.566 150.159C190.615 150.138 190.655 150.099 190.675 150.05C190.696 150 190.696 149.945 190.676 149.895C190.654 149.847 190.615 149.808 190.566 149.787C190.517 149.767 190.462 149.766 190.412 149.786C190.022 149.946 189.713 150.255 189.551 150.645C189.389 151.034 189.388 151.471 189.549 151.861C189.71 152.251 190.019 152.56 190.408 152.722C190.797 152.884 191.235 152.885 191.624 152.724Z" fill="#263238"/>
<path d="M194.026 151.734C194.219 151.655 194.395 151.538 194.543 151.391C194.691 151.244 194.808 151.069 194.889 150.876C194.969 150.683 195.01 150.476 195.01 150.267C195.01 150.058 194.969 149.852 194.889 149.659C194.868 149.609 194.829 149.57 194.78 149.549C194.73 149.529 194.675 149.529 194.625 149.549C194.577 149.57 194.538 149.61 194.518 149.659C194.497 149.708 194.497 149.763 194.516 149.812C194.605 150.029 194.628 150.268 194.582 150.498C194.536 150.728 194.423 150.939 194.257 151.105C194.091 151.27 193.879 151.383 193.649 151.428C193.419 151.474 193.181 151.45 192.964 151.36C192.748 151.27 192.563 151.117 192.433 150.922C192.303 150.727 192.233 150.498 192.234 150.263C192.234 150.028 192.304 149.799 192.434 149.604C192.565 149.41 192.751 149.258 192.967 149.168C193.017 149.148 193.056 149.109 193.077 149.059C193.097 149.01 193.097 148.954 193.077 148.905C193.056 148.856 193.017 148.816 192.968 148.796C192.918 148.775 192.863 148.775 192.814 148.796C192.424 148.956 192.114 149.265 191.952 149.654C191.79 150.044 191.79 150.481 191.95 150.871C192.111 151.26 192.42 151.57 192.809 151.732C193.198 151.894 193.636 151.895 194.026 151.734Z" fill="#263238"/>
<path d="M196.453 150.732C196.843 150.571 197.153 150.262 197.314 149.873C197.476 149.484 197.477 149.046 197.316 148.657C197.296 148.607 197.257 148.568 197.207 148.547C197.158 148.527 197.102 148.527 197.053 148.547C197.004 148.568 196.966 148.608 196.945 148.657C196.925 148.706 196.924 148.761 196.943 148.811C197.033 149.027 197.056 149.266 197.01 149.496C196.964 149.726 196.85 149.937 196.684 150.103C196.518 150.268 196.307 150.381 196.077 150.426C195.847 150.472 195.608 150.448 195.392 150.358C195.175 150.268 194.99 150.115 194.86 149.92C194.73 149.725 194.661 149.496 194.661 149.261C194.661 149.026 194.731 148.797 194.862 148.602C194.993 148.408 195.178 148.256 195.395 148.166C195.444 148.146 195.484 148.107 195.504 148.057C195.525 148.008 195.525 147.953 195.504 147.903C195.484 147.854 195.445 147.814 195.395 147.794C195.346 147.773 195.29 147.773 195.241 147.794C195.048 147.873 194.873 147.99 194.725 148.137C194.577 148.285 194.46 148.46 194.38 148.652C194.299 148.845 194.258 149.052 194.258 149.26C194.257 149.469 194.298 149.676 194.378 149.869C194.457 150.062 194.574 150.237 194.722 150.385C194.869 150.533 195.044 150.65 195.237 150.73C195.429 150.81 195.636 150.852 195.845 150.852C196.053 150.852 196.26 150.812 196.453 150.732Z" fill="#263238"/>
<path d="M198.873 149.734C199.263 149.573 199.573 149.264 199.735 148.875C199.897 148.486 199.897 148.048 199.736 147.659C199.716 147.609 199.677 147.57 199.627 147.549C199.578 147.529 199.523 147.529 199.473 147.549C199.424 147.57 199.384 147.609 199.364 147.658C199.343 147.708 199.343 147.763 199.364 147.812C199.453 148.029 199.476 148.268 199.43 148.498C199.384 148.728 199.271 148.939 199.105 149.105C198.938 149.27 198.727 149.383 198.497 149.428C198.267 149.474 198.028 149.45 197.812 149.36C197.595 149.27 197.41 149.117 197.28 148.922C197.15 148.727 197.081 148.498 197.081 148.263C197.082 148.028 197.152 147.799 197.282 147.604C197.413 147.41 197.598 147.258 197.815 147.168C197.864 147.148 197.904 147.109 197.924 147.059C197.945 147.01 197.945 146.954 197.925 146.905C197.904 146.856 197.865 146.816 197.816 146.796C197.766 146.775 197.711 146.775 197.661 146.796C197.468 146.875 197.293 146.992 197.145 147.139C196.997 147.287 196.88 147.462 196.8 147.654C196.72 147.847 196.678 148.054 196.678 148.262C196.678 148.471 196.718 148.678 196.798 148.871C196.878 149.064 196.994 149.239 197.142 149.387C197.289 149.535 197.464 149.652 197.657 149.732C197.85 149.812 198.056 149.854 198.265 149.854C198.474 149.854 198.68 149.813 198.873 149.734Z" fill="#263238"/>
<path d="M13.3211 118.491C13.3211 118.491 13.3334 118.503 13.3396 118.509L39.555 164.231L39.5643 164.24C39.5708 164.251 39.5765 164.263 39.5812 164.275C39.6168 164.343 39.6421 164.415 39.6565 164.49C39.6749 164.572 39.6846 164.656 39.6854 164.741C39.6745 165.056 39.5805 165.362 39.4128 165.629C38.7776 166.721 37.2375 167.601 35.9763 167.596C35.5712 167.619 35.1727 167.487 34.862 167.226C34.7956 167.163 34.7395 167.09 34.6957 167.01L8.73099 121.747L8.45873 121.273C8.25415 120.92 8.29028 120.431 8.61484 119.886C9.2547 118.792 10.7963 117.907 12.0576 117.912C12.6697 117.908 13.1165 118.131 13.3211 118.491Z" fill="#E6E6E6"/>
<path d="M7.86938 113.676L8.59086 114.887C8.61097 114.924 8.62004 114.966 8.61698 115.008C8.61391 115.05 8.59884 115.09 8.57357 115.123C8.51146 115.219 8.4276 115.298 8.32888 115.355C8.23016 115.411 8.1194 115.444 8.0057 115.449C7.96509 115.453 7.92429 115.446 7.88728 115.429C7.85028 115.411 7.81834 115.385 7.79459 115.352L7.07926 114.156C7.0293 114.052 7.0198 113.933 7.0526 113.823C7.0854 113.712 7.15817 113.618 7.25673 113.558C7.3553 113.498 7.47262 113.477 7.58586 113.499C7.6991 113.521 7.80016 113.584 7.86938 113.676Z" fill="#455A64"/>
<path d="M7.82185 113.613C7.84032 113.632 7.86188 113.653 7.88035 113.672C7.61224 113.545 7.09071 113.806 7.07024 114.113C7.06323 114.108 7.05701 114.102 7.05177 114.095L7.03329 114.076C7.01569 114.029 7.00738 113.979 7.00883 113.928C7.0095 113.806 7.05855 113.688 7.14532 113.602C7.23208 113.515 7.34951 113.466 7.47204 113.466C7.53754 113.464 7.60279 113.476 7.66322 113.501C7.72365 113.526 7.77779 113.565 7.82185 113.613Z" fill="#263238"/>
<path d="M9.65406 115.448C9.26202 115.467 8.88013 115.579 8.53955 115.774C8.19897 115.969 7.90934 116.242 7.69429 116.57C7.56803 116.758 7.51706 116.985 7.55155 117.209L8.33441 120.866C8.31934 120.516 8.41302 120.171 8.60252 119.878C9.24085 118.782 10.7809 117.899 12.0452 117.904C12.407 117.888 12.7641 117.99 13.0625 118.195L10.3106 115.67C10.2947 115.652 10.2772 115.634 10.2583 115.618C10.0829 115.492 9.86918 115.432 9.65406 115.448Z" fill="#E0E0E0"/>
<path opacity="0.1" d="M10.7192 116.707C10.2317 116.732 9.75687 116.872 9.33327 117.114C8.90967 117.357 8.5492 117.696 8.28109 118.104C8.05389 118.494 8.03337 118.834 8.18105 119.084C8.32873 119.334 8.63225 119.506 9.08711 119.508C9.57469 119.485 10.0499 119.347 10.4736 119.104C10.8974 118.862 11.2578 118.523 11.5252 118.115C11.7524 117.725 11.7776 117.373 11.6253 117.119C11.473 116.864 11.1633 116.708 10.7192 116.707Z" fill="black"/>
<path d="M9.65406 115.448C9.26202 115.467 8.88013 115.579 8.53955 115.774C8.19897 115.969 7.90934 116.242 7.69429 116.57C7.56803 116.758 7.51706 116.985 7.55155 117.209L8.33441 120.866C8.31934 120.516 8.41302 120.171 8.60252 119.878C9.24085 118.782 10.7809 117.899 12.0452 117.904C12.407 117.888 12.7641 117.99 13.0625 118.195L10.3106 115.67C10.2947 115.652 10.2772 115.634 10.2583 115.618C10.0829 115.492 9.86918 115.432 9.65406 115.448Z" fill="#E0E0E0"/>
<path d="M8.9337 114.622L11.4469 116.926C11.4685 116.948 11.49 116.97 11.5116 116.991C11.7656 117.246 11.7774 117.65 11.5146 118.122C11.2475 118.528 10.8881 118.866 10.4657 119.107C10.0434 119.348 9.57006 119.487 9.08421 119.511C8.56922 119.51 8.23338 119.3 8.12435 118.974C8.12128 118.967 8.11921 118.96 8.11821 118.953L8.09676 118.86L7.37671 115.498C7.35716 115.371 7.38537 115.242 7.45584 115.135C7.57799 114.951 7.74172 114.798 7.93388 114.688C8.12603 114.578 8.34126 114.515 8.56227 114.503C8.62904 114.497 8.69642 114.504 8.76028 114.525C8.82415 114.545 8.88317 114.578 8.9337 114.622Z" fill="#FFD000"/>
<path opacity="0.1" d="M8.9337 114.622L11.4469 116.926C11.4685 116.948 11.49 116.97 11.5116 116.991C11.7656 117.246 11.7774 117.65 11.5146 118.122C11.2475 118.528 10.8881 118.866 10.4657 119.107C10.0434 119.348 9.57006 119.487 9.08421 119.511C8.56922 119.51 8.23338 119.3 8.12435 118.974C8.12128 118.967 8.11921 118.96 8.11821 118.953L8.09676 118.86L7.37671 115.498C7.35716 115.371 7.38537 115.242 7.45584 115.135C7.57799 114.951 7.74172 114.798 7.93388 114.688C8.12603 114.578 8.34126 114.515 8.56227 114.503C8.62904 114.497 8.69642 114.504 8.76028 114.525C8.82415 114.545 8.88317 114.578 8.9337 114.622Z" fill="black"/>
<path d="M10.7192 116.707C10.2317 116.732 9.75687 116.872 9.33327 117.114C8.90967 117.357 8.5492 117.696 8.28109 118.104C8.05389 118.494 8.03337 118.834 8.18105 119.084C8.32873 119.334 8.63225 119.506 9.08711 119.508C9.57469 119.485 10.0499 119.347 10.4736 119.104C10.8974 118.862 11.2578 118.523 11.5252 118.115C11.7524 117.725 11.7776 117.373 11.6253 117.119C11.473 116.864 11.1633 116.708 10.7192 116.707Z" fill="#FFD000"/>
<path d="M10.7192 116.707C10.2317 116.732 9.75687 116.872 9.33327 117.114C8.90967 117.357 8.5492 117.696 8.28109 118.104C8.05389 118.494 8.03337 118.834 8.18105 119.084C8.32873 119.334 8.63225 119.506 9.08711 119.508C9.57469 119.485 10.0499 119.347 10.4736 119.104C10.8974 118.862 11.2578 118.523 11.5252 118.115C11.7524 117.725 11.7776 117.373 11.6253 117.119C11.473 116.864 11.1633 116.708 10.7192 116.707Z" fill="#FFD000"/>
<path opacity="0.05" d="M11.6239 117.12C11.689 117.247 11.722 117.388 11.72 117.53C11.7179 117.673 11.6808 117.813 11.612 117.938C10.5431 118.115 9.57151 118.665 8.86984 119.49C8.73095 119.482 8.59598 119.441 8.47617 119.371C8.35637 119.3 8.25523 119.202 8.18117 119.084C8.03349 118.834 8.06018 118.487 8.2812 118.103C8.54932 117.695 8.90979 117.356 9.33339 117.114C9.75699 116.871 10.2318 116.732 10.7194 116.707C11.1634 116.707 11.4716 116.859 11.6239 117.12Z" fill="black"/>
<path d="M8.57146 114.495C8.35009 114.507 8.13453 114.57 7.9421 114.68C7.74968 114.79 7.58575 114.944 7.4635 115.129C7.39429 115.236 7.3672 115.365 7.38744 115.491L7.73367 117.117C7.72866 116.939 7.77725 116.764 7.87313 116.614C8.06734 116.319 8.32816 116.074 8.63454 115.899C8.94093 115.723 9.2843 115.622 9.63693 115.604C9.8229 115.595 10.0066 115.648 10.1594 115.754L8.93209 114.625C8.88378 114.58 8.82695 114.546 8.765 114.523C8.70304 114.501 8.63722 114.491 8.57146 114.495Z" fill="#FFD000"/>
<path d="M35.0046 159.993C35.041 160.073 35.0555 160.162 35.0464 160.249C35.0373 160.337 35.0051 160.42 34.953 160.491C34.819 160.695 34.6389 160.863 34.4274 160.984C34.2158 161.105 33.9787 161.173 33.7355 161.185C33.6479 161.194 33.5595 161.18 33.4794 161.143C33.3994 161.106 33.3308 161.049 33.2809 160.976L29.0309 153.549C29.0843 153.607 29.1503 153.652 29.2237 153.681C29.2971 153.71 29.3761 153.721 29.4547 153.715C29.6993 153.702 29.9376 153.633 30.1502 153.511C30.3628 153.389 30.5437 153.219 30.6784 153.015C30.7255 152.949 30.7563 152.873 30.7682 152.793C30.7801 152.714 30.7728 152.632 30.7469 152.555L35.0046 159.993Z" fill="#FAFAFA"/>
<path d="M34.5516 159.786C34.3083 159.798 34.0714 159.868 33.8599 159.989C33.6484 160.11 33.4683 160.279 33.3341 160.482C33.2832 160.552 33.2518 160.635 33.243 160.721C33.2342 160.807 33.2484 160.894 33.284 160.973C33.333 161.046 33.4009 161.104 33.4804 161.141C33.5599 161.178 33.6481 161.193 33.7355 161.184C33.9788 161.173 34.2158 161.104 34.4274 160.983C34.639 160.863 34.8191 160.694 34.953 160.491C35.0087 160.423 35.0426 160.34 35.0502 160.252C35.0579 160.165 35.0389 160.077 34.9959 160C34.9528 159.924 34.8877 159.862 34.809 159.823C34.7302 159.784 34.6416 159.77 34.5547 159.782L34.5516 159.786Z" fill="#E0E0E0"/>
<path d="M38.0329 162.158L38.0514 162.176C38.0514 162.176 38.0668 162.192 38.076 162.201L39.2958 164.335L39.3343 164.401L39.3481 164.415C39.5034 164.735 39.4689 165.154 39.1938 165.622C38.6281 166.599 37.2362 167.399 36.0998 167.393C35.5278 167.39 35.1287 167.188 34.9488 166.856L33.709 164.687C33.7054 164.682 33.7013 164.678 33.6967 164.674L33.6828 164.66C33.5137 164.339 33.5466 163.906 33.8264 163.427C34.3921 162.45 35.784 161.65 36.9204 161.657C37.4507 161.67 37.8406 161.857 38.0329 162.158Z" fill="#FFD000"/>
<path opacity="0.05" d="M38.0329 162.158L38.0514 162.176C38.0514 162.176 38.0668 162.192 38.076 162.201L39.2958 164.335L39.3343 164.401L39.3481 164.415C39.5034 164.735 39.4689 165.154 39.1938 165.622C38.6281 166.599 37.2362 167.399 36.0998 167.393C35.5278 167.39 35.1287 167.188 34.9488 166.856L33.709 164.687C33.7054 164.682 33.7013 164.678 33.6967 164.674L33.6828 164.66C33.5137 164.339 33.5466 163.906 33.8264 163.427C34.3921 162.45 35.784 161.65 36.9204 161.657C37.4507 161.67 37.8406 161.857 38.0329 162.158Z" fill="black"/>
<path d="M10.7166 117.613L12.487 120.707L30.7255 152.482C30.7255 152.482 30.7255 152.482 30.7347 152.491L30.7732 152.557C30.7991 152.634 30.8064 152.715 30.7945 152.795C30.7826 152.875 30.7518 152.951 30.7047 153.017C30.5701 153.222 30.3887 153.393 30.1755 153.515C29.9624 153.637 29.7233 153.707 29.4779 153.72C29.3997 153.726 29.321 153.715 29.2478 153.686C29.1747 153.658 29.1089 153.613 29.0556 153.556L29.008 153.471L10.7819 121.693L9.0068 118.597C8.97116 118.519 8.95701 118.432 8.96579 118.346C8.97458 118.259 9.00598 118.177 9.05682 118.107C9.25217 117.808 9.54582 117.586 9.88723 117.479C9.9321 117.463 9.97795 117.449 10.0245 117.438C10.1066 117.42 10.1903 117.411 10.2743 117.41C10.3593 117.403 10.4447 117.418 10.5222 117.453C10.5997 117.489 10.6667 117.544 10.7166 117.613Z" fill="#455A64"/>
<path d="M30.3093 152.32C30.066 152.333 29.829 152.402 29.6175 152.523C29.406 152.644 29.226 152.813 29.0918 153.017C29.041 153.087 29.0096 153.169 29.0008 153.255C28.992 153.341 29.0061 153.428 29.0418 153.507C29.0912 153.58 29.1595 153.638 29.2392 153.675C29.319 153.712 29.4073 153.727 29.4948 153.717C29.7383 153.707 29.9757 153.638 30.1873 153.517C30.3988 153.396 30.5783 153.227 30.7108 153.022C30.7637 152.952 30.7965 152.868 30.8056 152.78C30.8147 152.693 30.7997 152.604 30.7624 152.524C30.7116 152.453 30.6429 152.397 30.5633 152.361C30.4838 152.325 30.3961 152.311 30.3093 152.32Z" fill="#263238"/>
<path d="M10.7166 117.613L10.9842 118.082C10.3484 118.286 9.7627 118.621 9.26518 119.066L8.99446 118.597C8.95881 118.518 8.94466 118.431 8.95345 118.345C8.96223 118.259 8.99364 118.177 9.04448 118.107C9.23982 117.807 9.53348 117.585 9.87489 117.479C9.99695 117.432 10.1265 117.407 10.2574 117.406C10.3455 117.396 10.4346 117.41 10.5155 117.446C10.5963 117.483 10.6658 117.54 10.7166 117.613Z" fill="#263238"/>
<path d="M38.2652 163.645C37.0024 163.642 35.4608 164.523 34.8225 165.619C34.5103 166.161 34.4726 166.651 34.6741 166.998C34.8756 167.346 35.3117 167.595 35.9546 167.597C37.2174 167.609 38.7575 166.727 39.3958 165.631C39.7157 165.081 39.7534 164.585 39.5365 164.228C39.3196 163.872 38.8928 163.648 38.2652 163.645Z" fill="#E0E0E0"/>
<path d="M38.3945 163.895C37.1317 163.892 35.5901 164.774 34.9518 165.869C34.6396 166.411 34.6019 166.902 34.7957 167.256L34.808 167.269L35.0772 167.746C35.0854 167.752 35.0927 167.759 35.0988 167.767C35.1188 167.787 35.1388 167.807 35.148 167.838C35.1729 167.868 35.2002 167.895 35.2296 167.92C35.2465 167.937 35.2635 167.954 35.282 167.973C35.2826 167.975 35.2837 167.977 35.2853 167.978C35.287 167.98 35.289 167.981 35.2912 167.982C35.3063 168.002 35.3239 168.019 35.3436 168.034C35.4332 168.103 35.5323 168.159 35.6378 168.2C35.6688 168.213 35.7008 168.225 35.7334 168.234C35.749 168.241 35.7656 168.246 35.7827 168.249C35.8108 168.259 35.8397 168.266 35.869 168.271C36.0305 168.31 36.1962 168.329 36.3623 168.327C37.6236 168.332 39.1637 167.452 39.8004 166.361C39.9657 166.094 40.0596 165.788 40.073 165.474C40.0736 165.433 40.0711 165.392 40.0655 165.352L40.0471 165.238C40.0423 165.215 40.0362 165.192 40.0287 165.17L40.0165 165.127C40.0057 165.1 39.9965 165.073 39.9827 165.046L39.9703 165.034C39.9519 165.016 39.9473 164.983 39.9319 164.958L39.6966 164.543C39.6891 164.522 39.6787 164.503 39.6658 164.485C39.4767 164.113 39.036 163.896 38.3945 163.895Z" fill="#FFD000"/>
<path opacity="0.3" d="M38.6698 164.369C37.4086 164.364 35.867 165.248 35.2287 166.341C34.9164 166.886 34.8803 167.375 35.0803 167.72C35.2802 168.066 35.7178 168.316 36.3608 168.319C37.6205 168.331 39.1621 167.447 39.8004 166.355C40.1203 165.805 40.1565 165.307 39.9411 164.952C39.7257 164.597 39.2974 164.371 38.6698 164.369Z" fill="white"/>
<path d="M35.5277 146.629C38.6545 162.012 25.7621 141.915 21.4076 138.386C20.568 137.705 19.7715 137.06 19.4539 136.453C19.1 135.94 18.9449 135.315 19.0175 134.696C19.09 134.077 19.3854 133.506 19.8483 133.088C20.3504 132.638 21.9673 133.995 23.5243 135.301C24.389 136.027 25.2351 136.737 25.8617 137.113C28.7806 138.576 31.4292 140.525 33.6944 142.877C34.6149 143.951 35.246 145.242 35.5277 146.629Z" fill="#FFBF9D"/>
</g>
<defs>
<clipPath id="clip0_752_28284">
<rect width="200" height="200" fill="white"/>
</clipPath>
</defs>
</svg>
