<svg width="200" height="200" viewBox="0 0 200 200" fill="none" xmlns="http://www.w3.org/2000/svg">
<path fill-rule="evenodd" clip-rule="evenodd" d="M95.3511 40.0786C119.484 41.5624 131.191 65.3973 145.943 82.1754C157.899 95.7741 168.961 109.409 171.286 126.445C173.971 146.122 175.558 168.605 159.663 182.721C143.717 196.882 117.964 195.809 95.3511 193.883C72.1366 194.322 53.3796 187.342 42.4481 172.737C26.9316 160.174 13.0786 144.922 12.0648 126.445C11.0113 107.244 22.9446 90.1752 37.1121 75.4837C52.9597 59.05 70.8381 38.5713 95.3511 40.0786Z" fill="#FFF3CC"/>
<path d="M92.0601 44.8647L92.9295 44.8164C97.1236 44.5763 101.254 45.9237 104.5 48.5907C107.746 51.2577 109.869 55.0488 110.446 59.2099C111.557 67.2599 108.823 69.6774 109 74.0002C109.411 82.968 102.184 88.5002 102.184 88.5002L104.707 94.952C104.833 96.3825 104.674 97.8237 104.241 99.1929C103.809 100.562 103.109 101.832 102.184 102.93C101.259 104.029 100.125 104.933 98.8495 105.592C97.5735 106.251 96.1799 106.651 94.7488 106.769C91.8972 106.998 89.07 106.096 86.8772 104.259C84.6845 102.422 83.302 99.796 83.028 96.9484L79.808 63.6937C78.5039 54.4362 82.7704 45.9515 92.0601 44.8647Z" fill="#FFBF9D"/>
<path d="M102 88.5007C97.8507 88.7417 93.6289 87.6491 90 85.6777C90 85.6777 94.1185 91.7827 103 90.5007L102 88.5007Z" fill="#FF9A6C"/>
<path d="M95.996 68.3284C96.0248 68.7349 95.8978 69.1368 95.6425 69.447C95.3872 69.7572 95.0242 69.9508 94.632 69.9858C94.4413 70.0133 94.2472 70.0008 94.0612 69.9492C93.8752 69.8975 93.7011 69.8078 93.5492 69.6852C93.3973 69.5627 93.2706 69.4099 93.1768 69.2358C93.083 69.0617 93.0238 68.8698 93.0028 68.6716C92.9789 68.2663 93.1076 67.8672 93.362 67.5581C93.6163 67.249 93.9765 67.054 94.3668 67.0142C94.5575 66.9867 94.7516 66.9992 94.9376 67.0509C95.1236 67.1025 95.2977 67.1922 95.4496 67.3148C95.6015 67.4373 95.7282 67.5901 95.822 67.7642C95.9158 67.9383 95.975 68.1302 95.996 68.3284Z" fill="#263238"/>
<path d="M108.788 63.701C108.635 63.8781 107.629 63.21 106.252 63.2985C104.876 63.3871 103.902 64.1035 103.749 63.9667C103.596 63.8298 103.813 63.5883 104.232 63.2422C104.804 62.793 105.501 62.5316 106.228 62.4935C106.943 62.4539 107.653 62.6397 108.257 63.0248C108.683 63.3227 108.844 63.6125 108.788 63.701Z" fill="#263238"/>
<path d="M107.997 68.3284C108.021 68.7337 107.892 69.1328 107.638 69.4419C107.384 69.751 107.023 69.946 106.633 69.9858C106.442 70.0133 106.248 70.0008 106.062 69.9491C105.876 69.8975 105.702 69.8078 105.55 69.6852C105.398 69.5627 105.271 69.4099 105.177 69.2358C105.084 69.0617 105.024 68.8698 105.003 68.6716C104.977 68.2657 105.105 67.8652 105.36 67.5556C105.615 67.2459 105.976 67.0516 106.368 67.0142C106.558 66.9867 106.753 66.9992 106.939 67.0509C107.125 67.1025 107.299 67.1922 107.451 67.3148C107.603 67.4373 107.729 67.5901 107.823 67.7642C107.917 67.9383 107.976 68.1302 107.997 68.3284Z" fill="#263238"/>
<path d="M95.256 64.7316C95.1111 64.9087 94.0968 64.2486 92.7202 64.3291C91.3437 64.4096 90.3777 65.1341 90.2167 64.9973C90.0557 64.8604 90.2811 64.6189 90.7077 64.2728C91.2758 63.8278 91.9674 63.5691 92.688 63.5322C93.4038 63.4864 94.1152 63.6727 94.7166 64.0635C95.1674 64.3613 95.3284 64.6511 95.256 64.7316Z" fill="#263238"/>
<path d="M100.835 74.6567C101.546 74.3823 102.29 74.201 103.049 74.1173C103.403 74.061 103.725 73.9724 103.773 73.7309C103.785 73.3658 103.684 73.0059 103.483 72.7005C103.097 71.8955 102.678 71.002 102.284 70.0843C100.626 66.3571 99.4019 63.29 99.5468 63.2256C99.6917 63.1612 101.157 66.1237 102.831 69.8508C103.234 70.7685 103.636 71.646 103.982 72.4832C104.225 72.8956 104.318 73.3786 104.248 73.8517C104.204 73.9799 104.132 74.0961 104.035 74.1911C103.939 74.2862 103.821 74.3574 103.693 74.3991C103.503 74.4654 103.305 74.506 103.105 74.5198C102.356 74.6547 101.594 74.7006 100.835 74.6567Z" fill="#263238"/>
<path d="M95.359 60.4005C95.2383 60.7788 93.8537 60.6822 92.2517 60.972C90.6498 61.2618 89.3698 61.777 89.1364 61.447C89.0317 61.294 89.241 60.9318 89.7401 60.5373C90.4173 60.0516 91.1963 59.7266 92.0179 59.5871C92.8395 59.4476 93.6821 59.4973 94.4816 59.7323C95.0853 59.9416 95.4073 60.2153 95.359 60.4005Z" fill="#263238"/>
<path d="M108.086 60.827C107.869 61.149 106.903 60.8833 105.76 60.9316C104.617 60.9799 103.667 61.2617 103.425 60.9316C103.321 60.7787 103.425 60.4567 103.852 60.1266C104.397 59.7358 105.049 59.5197 105.72 59.5068C106.392 59.4784 107.056 59.6614 107.619 60.03C108.038 60.352 108.191 60.666 108.086 60.827Z" fill="#263238"/>
<path d="M109.344 55.1525C109.344 55.1525 106.663 49.6784 103.878 48.5192C100.513 47.1266 99.3133 50.8054 96.1416 50.1292C92.9699 49.453 89.7579 48.1006 86.707 50.6927C83.3743 53.5344 85.097 55.2974 85.097 59.2821C85.1453 75.4385 82.4646 80.1639 81.1927 72.629C81.0559 71.824 78.7052 71.2686 78.1659 67.799C77.4575 63.2749 76.9664 57.7526 77.7956 54.4602C78.4959 51.6909 79.9369 49.7187 82.6256 47.4808C86.8358 43.9549 92.8652 43.5363 96.9949 43.7134C101.125 43.8905 109.319 48.1006 109.344 55.1525Z" fill="#263238"/>
<path d="M81.7803 72.3236C81.7532 71.9929 81.6583 71.6713 81.5014 71.3788C81.3446 71.0864 81.1291 70.8295 80.8685 70.624C80.6079 70.4185 80.3078 70.269 79.9868 70.1847C79.6658 70.1004 79.331 70.0831 79.003 70.134C77.3447 70.3916 75.5415 71.4462 75.8474 74.8916C76.3948 81.0016 82.4162 79.1903 82.4162 79.0132C82.4162 78.8361 82.0298 74.8835 81.7803 72.3236Z" fill="#FFBF9D"/>
<path d="M80.8948 76.8303C80.8948 76.8303 80.7982 76.9188 80.6211 77.0154C80.3742 77.1475 80.0858 77.1793 79.8161 77.104C79.156 76.9269 78.52 75.9448 78.3912 74.85C78.3275 74.3266 78.3825 73.7955 78.5522 73.2963C78.5923 73.1011 78.6792 72.9186 78.8054 72.7643C78.9316 72.6101 79.0933 72.4888 79.2767 72.4108C79.3957 72.3686 79.5255 72.3688 79.6444 72.4113C79.7632 72.4538 79.8637 72.5361 79.9288 72.6443C80.0334 72.8053 80.0012 72.934 80.0334 72.9421C80.0656 72.9501 80.1542 72.8294 80.0817 72.5798C80.0362 72.4305 79.9392 72.3022 79.808 72.2176C79.6284 72.1045 79.4114 72.0669 79.2043 72.1129C78.9589 72.1861 78.7363 72.3205 78.5574 72.5036C78.3785 72.6868 78.2493 72.9125 78.1819 73.1595C77.9686 73.7126 77.894 74.3096 77.9646 74.8983C78.1175 76.1299 78.8501 77.2247 79.7517 77.4018C79.9198 77.4353 80.0934 77.4302 80.2593 77.387C80.4252 77.3438 80.5792 77.2635 80.7096 77.1523C80.8948 76.9832 80.9189 76.8464 80.8948 76.8303Z" fill="#FF9A6C"/>
<path d="M110.648 48.5191C109.706 47.8107 108.41 47.7141 107.476 46.9977C103.316 43.8042 96.6129 37.7091 90.8888 40.8959C88.7107 42.1085 85.9615 42.2125 84.0181 43.6006C83.4528 44.0475 82.9874 44.608 82.6519 45.2458C82.3164 45.8835 82.1182 46.5845 82.07 47.3036C82.07 47.3036 81.4341 46.9816 79.5021 48.5111C78.2704 49.4851 77.2642 51.5862 76.8134 53.0835C76.1452 55.3294 77.1193 57.6962 78.0772 59.8294C78.5924 60.9806 79.2364 62.2444 80.4359 62.655C81.8929 63.146 83.5029 62.0029 84.0745 60.57C84.646 59.1371 85.5476 57.6962 86.2399 56.3196C87.4474 53.9046 88.6549 51.6989 87.6648 50.1694C90.93 49.1089 93.0942 51.0056 95.9966 52.0289C97.2173 52.4594 102.143 53.276 103.5 52.9513C103.939 52.8464 104.349 52.6439 104.699 52.359C105.252 53.2599 106.124 53.9194 107.141 54.2059C108.159 54.4923 109.247 54.3848 110.189 53.9046C112.008 52.7776 112.33 49.791 110.648 48.5191Z" fill="#263238"/>
<path d="M77.4653 58.3875C77.7478 58.8294 77.9852 59.2987 78.1737 59.7882C78.3945 60.2826 78.7415 60.7102 79.18 61.0279C79.7661 61.3278 80.4411 61.405 81.0798 61.2452C81.7438 61.1164 82.3707 60.8414 82.9152 60.4402C83.3543 60.0994 83.7539 59.7106 84.1066 59.281C84.4148 58.8596 84.7568 58.4638 85.129 58.0977C84.9327 58.5852 84.6611 59.0388 84.324 59.442C83.9868 59.9161 83.5859 60.3413 83.1325 60.7059C82.5515 61.1447 81.8763 61.4424 81.1603 61.5753C80.4348 61.7551 79.6679 61.6484 79.019 61.2774C78.5341 60.9224 78.1645 60.4324 77.9564 59.8687C77.7324 59.397 77.5674 58.8995 77.4653 58.3875Z" fill="#B9B8B6"/>
<path d="M77.6989 63.1146C78.0674 63.394 78.474 63.619 78.9065 63.7828C79.3769 63.9318 79.8743 63.9757 80.3635 63.9116C80.9641 63.8203 81.5379 63.6007 82.046 63.2676C82.9688 62.6266 83.7521 61.805 84.3483 60.8526C84.5759 60.4394 84.8457 60.0509 85.1533 59.6934C85.0124 60.1539 84.8035 60.5907 84.5334 60.9894C83.9864 62.0378 83.1937 62.9383 82.2231 63.6137C81.6703 63.9795 81.0384 64.2085 80.3796 64.2819C79.8332 64.342 79.2805 64.2674 78.7696 64.0645C77.9485 63.6701 77.6587 63.1227 77.6989 63.1146Z" fill="#B9B8B6"/>
<path d="M96.7029 79.6289C96.4969 79.9662 96.3821 80.3164 96.3615 80.6697C96.3372 80.8368 96.3835 81.0047 96.4972 81.1618C96.6109 81.319 96.7894 81.4618 97.0205 81.5804C97.2599 81.7262 97.5589 81.8432 97.8964 81.9233C98.2338 82.0034 98.6015 82.0446 98.9734 82.0439C99.6443 82.0432 100.293 81.92 100.802 81.6964C101.311 81.4729 101.648 81.1636 101.752 80.8242L101.99 80.0558C100.601 79.8525 96.8061 79.6818 96.7029 79.6289Z" fill="#FF9A6C"/>
<path d="M100.948 81.1252C100.948 81.1252 100.753 81.1252 100.431 81.1411C99.9786 81.163 99.5184 81.163 99.0662 81.1411C98.4134 81.1089 97.8233 81.0007 97.4135 80.8381C96.9255 80.6348 96.6932 80.3822 96.7609 80.1285C96.7805 79.9858 96.8991 79.8462 97.1084 79.7193L96.9049 79.7485C98.3542 79.8176 99.6256 79.8734 100.524 79.9053C101.007 79.9336 101.499 79.9452 101.99 79.9399C101.532 79.884 101.054 79.8465 100.566 79.8282C99.668 79.7751 98.4136 79.7033 96.9643 79.6289H96.8287L96.7693 79.6661C96.4444 79.8636 96.3061 80.086 96.3707 80.3073C96.4353 80.5286 96.7 80.7395 97.1338 80.9152C97.6097 81.0951 98.291 81.2096 99.0323 81.2341C99.514 81.2474 99.9994 81.233 100.465 81.1916C100.639 81.1806 100.804 81.1579 100.948 81.1252Z" fill="#263238"/>
<path d="M60.4879 106.576C59.9566 106.576 52.3735 109.603 50.3771 117.041C48.3807 124.479 42.9308 151.769 42.9308 151.769L37.1428 159.787C37.1428 159.787 39.0185 174.414 49.6526 171.628C49.6526 171.628 56.7527 172.868 59.0147 165.671C61.2768 158.475 65.6641 137.005 65.6641 137.005L60.4879 106.576Z" fill="#B9B8B6"/>
<path d="M82.1472 94L78.1204 100.196L60 106.752L65.1865 160.234L63.2697 188.228C80 197.5 124.262 195.715 127 194.5C128.425 194.459 128.681 191.408 128.914 189.425C129.115 187.645 128.962 185.841 128.463 184.123L125.459 173.403C125.902 180.074 123.937 133.607 123.848 131.911L128.238 108.006L107.621 99.5154L104.399 94.5081L95.1215 101.687L82.1472 94Z" fill="#B9B8B6"/>
<path d="M128.304 108C128.304 108 132.546 111.654 133.246 114.468C133.946 117.281 149.199 149.692 149.199 149.692L156.776 151.697L158.802 155.82C159.986 158.185 160.304 160.877 159.704 163.444C159.104 166.012 157.623 168.298 155.508 169.92C155.244 170.116 154.969 170.297 154.684 170.462C150.566 172.887 143.236 172.758 138.945 167.794C134.885 163.089 123 146.176 123 146.176V125.479L128.304 108Z" fill="#B9B8B6"/>
<path d="M152.95 152.59L163.601 146.303L168.737 152.59L167.674 155.633L153.941 165.848C152.236 164.457 151.092 162.495 150.721 160.326C150.117 156.486 152.95 152.59 152.95 152.59Z" fill="#FFBF9D"/>
<path d="M149.569 149.337C149.569 149.442 148.66 149.337 147.324 149.788C145.597 150.385 144.068 151.446 142.904 152.855C141.754 154.295 140.806 155.885 140.087 157.581C139.815 158.307 139.478 159.008 139.08 159.674C139.188 158.901 139.405 158.147 139.724 157.436C140.357 155.646 141.291 153.977 142.485 152.501C143.707 151.009 145.361 149.932 147.219 149.418C147.979 149.167 148.794 149.139 149.569 149.337Z" fill="#263238"/>
<path d="M163.424 149.789C163.158 148.399 163.253 146.964 163.7 145.621C164.147 144.277 164.93 143.071 165.976 142.117C168.49 140.049 171.334 138.416 174.388 137.287C176.255 136.482 180.144 133.206 180.828 133.995C181.512 134.784 181.818 135.959 180.828 137.392C179.838 138.825 174.211 140.958 175 142.769C175.322 143.502 177.093 143.639 177.093 143.639C180.307 143.865 183.531 143.929 186.753 143.832C189.602 143.582 192.162 144.13 192.009 145.112C191.856 146.094 191.325 146.633 188.966 146.834C186.608 147.036 182.768 146.883 182.526 147.422C182.285 147.961 183.122 148.308 184.499 148.227C185.875 148.147 192.363 148.122 192.806 148.863C192.914 149.051 192.979 149.261 192.996 149.477C193.013 149.692 192.981 149.91 192.904 150.112C192.827 150.314 192.706 150.497 192.55 150.648C192.394 150.798 192.207 150.911 192.001 150.98L190.48 151.52C190.48 151.52 191.365 152.751 190.625 153.435C189.884 154.12 188.21 153.878 188.21 153.878L179.604 153.637C179.604 153.637 179.113 154.152 179.355 154.506C179.596 154.86 186.342 154.369 186.39 155.11C186.439 155.85 187.026 156.189 185.014 156.72C182.066 157.211 179.058 157.211 176.11 156.72C174.291 156.221 166.668 155.915 166.668 155.915L163.424 149.789Z" fill="#FFBF9D"/>
<path d="M46.4649 153.709L36.507 145.449L30.7915 151.889L31.4919 155.037L43.9372 166.758C45.7822 165.7 47.1744 164.001 47.8495 161.984C49.0892 158.434 46.4649 153.709 46.4649 153.709Z" fill="#FFBF9D"/>
<path d="M36.3943 149.747C36.8225 148.399 36.8994 146.964 36.6176 145.578C36.3359 144.192 35.7048 142.9 34.7843 141.826C32.5191 139.475 29.8704 137.526 26.9516 136.062C25.1967 135.008 21.7191 131.337 20.9382 132.037C20.4752 132.455 20.1799 133.026 20.1074 133.646C20.0348 134.265 20.1899 134.889 20.5438 135.402C21.3488 136.94 25.2289 138.727 25.092 140.699C25.0778 140.89 25.026 141.076 24.9398 141.247C24.8536 141.418 24.7346 141.57 24.5896 141.695C24.4446 141.82 24.2764 141.915 24.0946 141.975C23.9129 142.034 23.7211 142.058 23.5303 142.044C20.3183 141.896 17.1157 141.587 13.9347 141.118C11.1252 140.538 8.52508 140.78 8.55728 141.77C8.58948 142.76 9.06443 143.38 11.3828 143.839C13.7012 144.298 17.5331 144.644 17.6619 145.167C17.7907 145.69 16.9776 145.972 15.6171 145.722C14.2567 145.473 7.81668 144.708 7.29343 145.392C7.16372 145.564 7.07381 145.763 7.03018 145.974C6.98654 146.185 6.99027 146.403 7.04109 146.613C7.09191 146.822 7.18855 147.018 7.32406 147.185C7.45957 147.353 7.63057 147.488 7.82473 147.582L9.27373 148.298C9.27373 148.298 8.25138 149.417 8.90343 150.182C9.55548 150.947 11.246 150.907 11.246 150.907L19.8273 151.663C19.8273 151.663 20.254 152.235 19.9642 152.557C19.6744 152.879 13.0492 151.607 12.9123 152.34C12.7755 153.072 12.1476 153.338 14.0957 154.062C16.9698 154.895 19.9619 155.246 22.9507 155.101C24.8183 154.819 32.4336 155.366 32.4336 155.366L36.3943 149.747Z" fill="#FFBF9D"/>
<path d="M107.54 101.006C107.002 101.678 106.404 102.301 105.753 102.865C104.618 103.976 103.065 105.53 101.422 107.301C101.076 107.679 100.73 108.05 100.408 108.412L100.191 108.645L99.9894 108.396C98.7175 106.786 97.6146 105.305 96.8418 104.25C96.3881 103.714 96.0015 103.125 95.6907 102.495C96.225 102.952 96.7058 103.468 97.1236 104.033C97.9688 105.031 99.128 106.448 100.416 108.058H100.005L101.012 106.939C102.426 105.41 103.92 103.956 105.488 102.584C106.105 101.976 106.794 101.446 107.54 101.006Z" fill="#263238"/>
<path d="M61.623 120.502C61.771 120.857 61.8711 121.231 61.9209 121.613C62.0738 122.337 62.267 123.392 62.4763 124.696C62.8949 127.304 63.3377 130.927 63.708 134.936C64.0783 138.945 64.352 142.583 64.5613 145.216C64.6418 146.439 64.7223 147.478 64.7786 148.331C64.8291 148.713 64.8291 149.1 64.7786 149.482C64.6638 149.115 64.5882 148.738 64.5532 148.355C64.4405 147.622 64.3037 146.56 64.1588 145.248C63.8529 142.631 63.5148 139.001 63.1445 134.992C62.7742 130.983 62.4119 127.369 62.098 124.793C61.945 123.577 61.8162 122.539 61.7116 121.693C61.6284 121.302 61.5986 120.901 61.623 120.502Z" fill="#263238"/>
<path d="M124.606 118.676C124.721 119.132 124.789 119.599 124.808 120.068C124.896 120.978 124.993 122.282 125.073 123.908C125.258 127.128 125.347 131.636 125.363 136.579V153.09C125.389 153.56 125.37 154.032 125.307 154.498C125.202 154.039 125.151 153.569 125.154 153.098C125.089 152.188 125.025 150.876 124.977 149.258C124.864 146.038 124.824 141.53 124.816 136.587C124.808 131.644 124.767 127.161 124.687 123.924C124.647 122.387 124.614 121.099 124.59 120.085C124.552 119.615 124.557 119.144 124.606 118.676Z" fill="#263238"/>
<path d="M53.4522 165.123C53.2003 164.209 53.0147 163.279 52.8968 162.338C52.5196 160.092 51.7915 157.918 50.7394 155.898C49.6657 153.917 48.0523 152.282 46.0865 151.181C45.2411 150.777 44.3666 150.438 43.4702 150.166C43.7354 150.109 44.01 150.109 44.2752 150.166C44.9726 150.283 45.6502 150.497 46.2877 150.802C48.4029 151.857 50.1364 153.546 51.2465 155.632C52.3118 157.706 52.9884 159.957 53.2429 162.274C53.4324 163.211 53.5027 164.168 53.4522 165.123Z" fill="#263238"/>
<path d="M56.0364 154.248C55.9237 154.377 54.3217 152.727 51.7135 151.833C49.1053 150.94 46.8835 151.246 46.8352 151.077C46.7869 150.908 49.1456 150.36 51.8906 151.318C54.6357 152.276 56.1571 154.184 56.0364 154.248Z" fill="#263238"/>
<path d="M96.8901 191.656C96.8413 191.358 96.8197 191.057 96.8257 190.755C96.8257 190.119 96.8257 189.258 96.7693 188.179C96.721 185.885 96.6566 182.657 96.5761 178.688C96.391 170.638 96.1334 159.585 95.8436 147.381C95.5538 135.177 95.4008 124.076 95.4169 116.059C95.4169 112.034 95.4572 108.814 95.5055 106.56C95.5055 105.481 95.5618 104.62 95.586 103.984C95.5792 103.682 95.6008 103.38 95.6504 103.082C95.6728 103.382 95.6728 103.684 95.6504 103.984C95.6504 104.62 95.6504 105.481 95.6504 106.56C95.6504 108.854 95.6987 112.09 95.7309 116.051C95.8114 124.101 96.0448 135.137 96.3185 147.365C96.5922 159.593 96.8337 170.662 96.8981 178.68C96.8981 182.705 96.8981 185.925 96.8981 188.179C96.8981 189.258 96.8981 190.119 96.8579 190.755C96.8892 191.054 96.8999 191.356 96.8901 191.656Z" fill="#263238"/>
<path d="M45.9979 153.37C45.9979 153.305 46.8029 153.909 47.4469 155.246C47.8415 156.007 48.1287 156.82 48.3002 157.661C48.4655 158.728 48.4655 159.814 48.3002 160.881C48.18 161.949 47.8634 162.986 47.3664 163.94C46.936 164.713 46.3427 165.383 45.6276 165.904C44.9987 166.426 44.2068 166.71 43.3896 166.709C44.0971 166.416 44.7673 166.041 45.3861 165.59C46.0209 165.069 46.5439 164.426 46.9236 163.698C47.3544 162.788 47.6266 161.81 47.7286 160.808C47.8735 159.804 47.8735 158.785 47.7286 157.781C47.5903 156.952 47.3553 156.141 47.0283 155.366C46.5292 154.086 45.9174 153.418 45.9979 153.37Z" fill="#263238"/>
<path d="M155.937 166.967C155.937 166.967 155.679 166.967 155.269 166.765C154.693 166.511 154.151 166.184 153.659 165.791C151.972 164.492 150.818 162.621 150.415 160.531C150.012 158.44 150.387 156.274 151.469 154.441C151.785 153.89 152.169 153.381 152.612 152.927C152.926 152.621 153.128 152.476 153.152 152.501C153.176 152.525 152.508 153.249 151.807 154.626C150.871 156.407 150.569 158.453 150.951 160.428C151.333 162.404 152.376 164.19 153.908 165.493C155.06 166.508 155.977 166.878 155.937 166.967Z" fill="#263238"/>
<path d="M176.408 140.41C176.473 140.475 176.006 140.917 175.418 141.698C175.08 142.145 174.846 142.662 174.734 143.212C174.605 143.831 174.621 144.556 174.509 145.353C174.413 146.037 174.182 146.695 173.829 147.29C173.477 147.884 173.01 148.402 172.456 148.814C172.032 149.196 171.495 149.428 170.926 149.474C170.886 149.386 171.482 149.161 172.214 148.508C173.157 147.673 173.778 146.534 173.969 145.288C174.022 144.56 174.114 143.834 174.243 143.115C174.397 142.515 174.695 141.963 175.112 141.505C175.45 141.042 175.895 140.666 176.408 140.41Z" fill="#FF9A6C"/>
<path d="M21.1394 148.879C21.1394 149.024 18.4588 149.169 15.1502 149.008C11.8417 148.847 9.18514 148.46 9.20124 148.307C9.21734 148.155 11.8819 148.307 15.1744 148.46C18.4668 148.613 21.1394 148.718 21.1394 148.879Z" fill="#FF9A6C"/>
<path d="M27.2332 148.42C27.2332 148.477 26.5973 148.372 25.8406 147.736C25.3505 147.31 24.9606 146.781 24.699 146.187C24.4374 145.592 24.3104 144.948 24.3272 144.299C24.3845 143.612 24.5085 142.933 24.6975 142.27C24.8384 141.745 24.9061 141.203 24.8987 140.66C24.8525 140.175 24.7415 139.699 24.5687 139.243C24.5687 139.187 25.1563 139.613 25.2851 140.628C25.3502 141.198 25.3175 141.775 25.1885 142.334C25.037 142.973 24.9321 143.621 24.8746 144.274C24.8575 145.442 25.2998 146.569 26.1062 147.414C26.7261 148.138 27.2735 148.34 27.2332 148.42Z" fill="#FF9A6C"/>
<path d="M177.906 150.328C177.906 150.175 180.779 150.288 184.289 150.578C187.799 150.867 190.641 151.238 190.633 151.383C190.625 151.528 187.759 151.423 184.249 151.125C180.739 150.827 177.897 150.473 177.906 150.328Z" fill="#FF9A6C"/>
<path d="M95.0386 101.971C94.717 103.043 94.3106 104.087 93.823 105.095C93.6057 105.578 93.3803 106.101 93.1468 106.64C92.9159 107.255 92.6471 107.854 92.3418 108.435C92.2256 108.626 92.0566 108.78 91.8552 108.877C91.6538 108.974 91.4286 109.011 91.2068 108.983C90.8168 108.88 90.4541 108.693 90.1442 108.435L88.2444 107.139C85.6522 105.352 83.3258 103.702 81.6514 102.494C80.7152 101.882 79.832 101.193 79.011 100.434C80.0083 100.936 80.9639 101.518 81.8687 102.172C83.5995 103.307 85.9662 104.893 88.5583 106.688L90.4501 107.993C90.6968 108.206 90.9844 108.368 91.2953 108.468C91.4222 108.483 91.5508 108.459 91.6642 108.401C91.7776 108.342 91.8707 108.25 91.9313 108.137C92.5431 107.027 93.0502 105.827 93.5413 104.917C93.9576 103.895 94.4584 102.91 95.0386 101.971Z" fill="#263238"/>
<path d="M164.807 156.587C164.068 156.823 163.288 156.901 162.517 156.816C161.746 156.731 161.002 156.485 160.332 156.095L156.188 153.337C155.503 152.825 154.948 152.158 154.568 151.392C154.188 150.626 153.993 149.781 154 148.925L154.739 137.303C154.763 136.998 154.82 136.696 154.908 136.402C154.938 136.3 154.973 136.199 155.013 136.1C155.013 136.1 155.084 135.917 155.126 135.826C155.168 135.734 155.238 135.593 155.302 135.481L155.428 135.242L155.576 135.009L155.611 134.953L164.532 140.842C164.042 141.544 163.739 142.36 163.653 143.213L162.949 154.835C162.794 156.228 163.625 156.939 164.807 156.587Z" fill="#FFD000"/>
<path opacity="0.45" d="M164.807 156.587C164.068 156.823 163.288 156.901 162.517 156.816C161.746 156.731 161.002 156.485 160.332 156.095L156.188 153.337C155.503 152.825 154.948 152.158 154.568 151.392C154.188 150.626 153.993 149.781 154 148.925L154.739 137.303C154.763 136.998 154.82 136.696 154.908 136.402C154.938 136.3 154.973 136.199 155.013 136.1C155.013 136.1 155.084 135.917 155.126 135.826C155.168 135.734 155.238 135.593 155.302 135.481L155.428 135.242L155.576 135.009L155.611 134.953L164.532 140.842C164.042 141.544 163.739 142.36 163.653 143.213L162.949 154.835C162.794 156.228 163.625 156.939 164.807 156.587Z" fill="black"/>
<path d="M187.749 125.764L183.605 122.999C182.867 122.562 182.036 122.307 181.18 122.253C180.324 122.199 179.467 122.349 178.68 122.69L177.196 123.457C176.925 123.597 176.632 123.692 176.331 123.738L176.464 123.822L181.276 127.031L181.361 127.087C181.586 127.274 181.758 127.517 181.86 127.79C182.023 128.18 182.264 128.532 182.569 128.825C182.873 129.117 183.235 129.344 183.631 129.49C184.027 129.637 184.449 129.7 184.871 129.676C185.292 129.653 185.705 129.542 186.082 129.352L187.566 128.606C188.91 127.938 189.937 128.55 189.944 129.964C189.916 129.145 189.704 128.342 189.324 127.615C188.944 126.888 188.406 126.255 187.749 125.764Z" fill="#FFD000"/>
<path opacity="0.15" d="M187.749 125.764L183.605 122.999C182.867 122.562 182.036 122.307 181.18 122.253C180.324 122.199 179.467 122.349 178.68 122.69L177.196 123.457C176.925 123.597 176.632 123.692 176.331 123.738L176.464 123.822L181.276 127.031L181.361 127.087C181.586 127.274 181.758 127.517 181.86 127.79C182.023 128.18 182.264 128.532 182.569 128.825C182.873 129.117 183.235 129.344 183.631 129.49C184.027 129.637 184.449 129.7 184.871 129.676C185.292 129.653 185.705 129.542 186.082 129.352L187.566 128.606C188.91 127.938 189.937 128.55 189.944 129.964C189.916 129.145 189.704 128.342 189.324 127.615C188.944 126.888 188.406 126.255 187.749 125.764Z" fill="black"/>
<path d="M184.4 126.975L184.471 125.814L183.591 125.758C183.021 125.437 182.386 125.249 181.733 125.208C181.08 125.167 180.426 125.273 179.82 125.519L178.934 125.462L178.863 126.623C178.868 126.865 178.936 127.102 179.059 127.31C179.182 127.518 179.357 127.691 179.567 127.812C180.154 128.157 180.814 128.359 181.493 128.402C182.173 128.445 182.853 128.327 183.479 128.058C183.715 127.976 183.924 127.832 184.086 127.642C184.248 127.451 184.357 127.221 184.4 126.975Z" fill="#263238"/>
<path d="M179.82 124.358C178.695 124.914 178.631 125.927 179.673 126.616C180.26 126.964 180.921 127.168 181.602 127.212C182.283 127.256 182.964 127.139 183.591 126.87C184.71 126.314 184.78 125.301 183.732 124.604C183.145 124.259 182.485 124.057 181.806 124.014C181.126 123.972 180.446 124.089 179.82 124.358Z" fill="#37474F"/>
<path d="M189.902 130.19L189.156 141.813C189.053 142.662 188.753 143.474 188.279 144.185C187.805 144.897 187.17 145.486 186.426 145.908L165.236 156.405L165.046 156.489L164.905 156.545L164.792 156.58C163.61 156.939 162.773 156.229 162.865 154.836L163.568 143.213C163.656 142.359 163.958 141.541 164.448 140.835C164.794 140.294 165.232 139.818 165.742 139.428L165.988 139.259L166.242 139.118H166.277L166.375 139.069L169.436 137.571C170.644 136.961 171.702 136.09 172.532 135.022C173.363 133.954 173.947 132.715 174.241 131.394C174.341 130.968 174.526 130.566 174.783 130.212C175.018 129.854 175.336 129.559 175.711 129.353L180.334 127.067C180.473 126.987 180.631 126.945 180.791 126.945C180.951 126.945 181.109 126.987 181.248 127.067L181.333 127.123C181.559 127.31 181.734 127.552 181.839 127.827C182.002 128.216 182.243 128.568 182.548 128.861C182.852 129.154 183.213 129.38 183.609 129.528C184.005 129.675 184.427 129.739 184.849 129.716C185.27 129.693 185.683 129.584 186.061 129.395L187.545 128.643C188.889 127.981 189.916 128.579 189.923 130.001C189.902 130.057 189.902 130.12 189.902 130.19Z" fill="#FFD000"/>
<path opacity="0.3" d="M189.902 130.19L189.156 141.813C189.053 142.662 188.753 143.474 188.279 144.185C187.805 144.897 187.17 145.486 186.426 145.908L165.236 156.405L165.046 156.489L164.905 156.545L164.792 156.58C163.61 156.939 162.773 156.229 162.865 154.836L163.568 143.213C163.656 142.359 163.958 141.541 164.448 140.835C164.794 140.294 165.232 139.818 165.742 139.428L165.988 139.259L166.242 139.118H166.277L166.375 139.069L169.436 137.571C170.644 136.961 171.702 136.09 172.532 135.022C173.363 133.954 173.947 132.715 174.241 131.394C174.341 130.968 174.526 130.566 174.783 130.212C175.018 129.854 175.336 129.559 175.711 129.353L180.334 127.067C180.473 126.987 180.631 126.945 180.791 126.945C180.951 126.945 181.109 126.987 181.248 127.067L181.333 127.123C181.559 127.31 181.734 127.552 181.839 127.827C182.002 128.216 182.243 128.568 182.548 128.861C182.852 129.154 183.213 129.38 183.609 129.528C184.005 129.675 184.427 129.739 184.849 129.716C185.27 129.693 185.683 129.584 186.061 129.395L187.545 128.643C188.889 127.981 189.916 128.579 189.923 130.001C189.902 130.057 189.902 130.12 189.902 130.19Z" fill="black"/>
<path d="M170.006 127.011L165.904 124.281C165.654 124.639 165.473 125.039 165.369 125.463C165.084 126.785 164.508 128.028 163.685 129.101C162.861 130.174 161.81 131.051 160.606 131.668L157.391 133.251C156.675 133.658 156.069 134.232 155.625 134.926L164.532 140.843C164.968 140.136 165.572 139.548 166.291 139.133C166.291 139.133 169.464 137.571 169.485 137.564C170.683 136.949 171.731 136.077 172.553 135.011C173.375 133.944 173.951 132.709 174.241 131.394C174.344 130.969 174.528 130.568 174.783 130.212L170.006 127.011Z" fill="#FFD000"/>
<path opacity="0.15" d="M170.006 127.011L165.904 124.281C165.654 124.639 165.473 125.039 165.369 125.463C165.084 126.785 164.508 128.028 163.685 129.101C162.861 130.174 161.81 131.051 160.606 131.668L157.391 133.251C156.675 133.658 156.069 134.232 155.625 134.926L164.532 140.843C164.968 140.136 165.572 139.548 166.291 139.133C166.291 139.133 169.464 137.571 169.485 137.564C170.683 136.949 171.731 136.077 172.553 135.011C173.375 133.944 173.951 132.709 174.241 131.394C174.344 130.969 174.528 130.568 174.783 130.212L170.006 127.011Z" fill="black"/>
<path d="M176.436 123.823L176.303 123.739L172.447 121.171L172.37 121.121C172.231 121.042 172.073 121 171.913 121C171.752 121 171.594 121.042 171.455 121.121L166.833 123.408C166.459 123.617 166.138 123.911 165.897 124.266L169.999 126.996L174.776 130.176C175.011 129.82 175.33 129.528 175.705 129.325L180.327 127.031C180.466 126.952 180.624 126.91 180.784 126.91C180.945 126.91 181.102 126.952 181.241 127.031L176.436 123.823Z" fill="#FFD000"/>
<path d="M161.409 134.074C161.24 133.981 161.053 133.927 160.861 133.915C160.668 133.903 160.476 133.933 160.297 134.004H160.037V134.341C160.038 134.414 160.058 134.486 160.097 134.548C160.135 134.61 160.19 134.66 160.255 134.693C160.428 134.795 160.622 134.855 160.822 134.869C161.023 134.882 161.223 134.849 161.409 134.771C161.477 134.744 161.536 134.7 161.582 134.644C161.628 134.587 161.658 134.519 161.669 134.447V134.109L161.409 134.074Z" fill="#263238"/>
<path d="M160.311 133.672C159.98 133.834 159.966 134.13 160.269 134.334C160.442 134.436 160.636 134.496 160.837 134.509C161.037 134.523 161.238 134.489 161.423 134.411C161.495 134.393 161.559 134.352 161.607 134.295C161.654 134.237 161.683 134.167 161.687 134.092C161.692 134.018 161.673 133.944 161.633 133.881C161.593 133.818 161.534 133.77 161.465 133.743C161.291 133.642 161.097 133.583 160.896 133.571C160.696 133.559 160.496 133.593 160.311 133.672Z" fill="#37474F"/>
<path d="M163.575 133.503V133.165H163.315C163.148 133.069 162.96 133.013 162.767 133.001C162.575 132.988 162.382 133.021 162.203 133.095H161.943V133.44C161.945 133.512 161.966 133.582 162.004 133.642C162.043 133.703 162.097 133.752 162.161 133.784C162.334 133.886 162.529 133.947 162.729 133.96C162.929 133.973 163.13 133.94 163.315 133.862C163.388 133.833 163.451 133.784 163.497 133.72C163.543 133.657 163.57 133.581 163.575 133.503Z" fill="#263238"/>
<path d="M162.225 132.716C162.131 132.71 162.04 132.742 161.97 132.804C161.9 132.866 161.857 132.953 161.852 133.047C161.846 133.14 161.878 133.232 161.94 133.302C162.002 133.371 162.089 133.414 162.182 133.419C162.356 133.52 162.551 133.579 162.751 133.591C162.951 133.604 163.152 133.569 163.336 133.49C163.406 133.47 163.468 133.429 163.513 133.372C163.559 133.316 163.586 133.246 163.59 133.174C163.595 133.102 163.577 133.03 163.539 132.968C163.501 132.906 163.445 132.857 163.378 132.828C163.208 132.721 163.015 132.655 162.815 132.635C162.614 132.615 162.412 132.643 162.225 132.716Z" fill="#37474F"/>
<path d="M163.202 135.27C163.034 135.175 162.847 135.12 162.655 135.108C162.462 135.096 162.27 135.127 162.091 135.199H161.831V135.544C161.833 135.617 161.854 135.687 161.893 135.749C161.931 135.811 161.985 135.861 162.049 135.896C162.221 135.997 162.414 136.056 162.614 136.069C162.813 136.081 163.012 136.046 163.195 135.966C163.263 135.942 163.323 135.899 163.369 135.844C163.415 135.788 163.445 135.721 163.456 135.65V135.305L163.202 135.27Z" fill="#263238"/>
<path d="M162.091 134.861C161.76 135.03 161.739 135.325 162.049 135.529C162.22 135.632 162.414 135.692 162.613 135.704C162.813 135.717 163.013 135.681 163.195 135.6C163.266 135.58 163.328 135.54 163.374 135.484C163.421 135.428 163.448 135.359 163.454 135.286C163.459 135.214 163.442 135.141 163.404 135.079C163.367 135.017 163.311 134.967 163.245 134.938C163.072 134.836 162.877 134.776 162.677 134.763C162.477 134.749 162.276 134.783 162.091 134.861Z" fill="#37474F"/>
<path d="M165.362 134.671V134.326H165.109C164.941 134.232 164.754 134.177 164.561 134.165C164.369 134.153 164.176 134.184 163.998 134.256H163.737V134.594C163.74 134.666 163.761 134.737 163.799 134.799C163.838 134.86 163.891 134.911 163.955 134.945C164.127 135.047 164.321 135.106 164.52 135.118C164.72 135.13 164.919 135.095 165.102 135.016C165.174 134.99 165.238 134.943 165.284 134.882C165.33 134.821 165.357 134.748 165.362 134.671Z" fill="#263238"/>
<path d="M164.019 133.912C163.949 133.932 163.887 133.973 163.841 134.03C163.796 134.086 163.769 134.155 163.764 134.228C163.76 134.3 163.778 134.372 163.816 134.434C163.854 134.496 163.91 134.545 163.976 134.573C164.149 134.676 164.344 134.736 164.544 134.75C164.745 134.763 164.945 134.729 165.13 134.651C165.199 134.629 165.26 134.587 165.305 134.53C165.35 134.473 165.376 134.403 165.381 134.331C165.385 134.259 165.368 134.187 165.331 134.124C165.294 134.062 165.238 134.013 165.172 133.982C165 133.879 164.805 133.819 164.604 133.807C164.403 133.795 164.203 133.831 164.019 133.912Z" fill="#37474F"/>
<path d="M167.6 137.274V136.747H167.206C166.948 136.599 166.66 136.512 166.364 136.492C166.068 136.473 165.771 136.521 165.496 136.634H165.095V137.162C165.097 137.272 165.129 137.38 165.187 137.474C165.246 137.568 165.328 137.645 165.426 137.697C165.691 137.854 165.99 137.947 166.299 137.967C166.607 137.986 166.915 137.932 167.199 137.809C167.309 137.766 167.405 137.693 167.475 137.599C167.546 137.504 167.589 137.392 167.6 137.274Z" fill="#263238"/>
<path d="M165.524 136.1C165.416 136.131 165.32 136.194 165.25 136.282C165.18 136.369 165.138 136.476 165.131 136.588C165.124 136.7 165.152 136.811 165.211 136.907C165.27 137.002 165.358 137.077 165.461 137.12C165.726 137.278 166.025 137.371 166.334 137.39C166.642 137.41 166.95 137.356 167.234 137.233C167.74 136.987 167.768 136.529 167.297 136.213C167.031 136.057 166.732 135.965 166.424 135.945C166.116 135.926 165.808 135.979 165.524 136.1Z" fill="#37474F"/>
<path d="M184.977 136.551L184.794 136.431C183.739 135.791 182.247 135.812 180.573 136.649C177.055 138.38 174.044 142.939 173.798 146.836C173.748 147.485 173.795 148.137 173.938 148.771C174.092 149.456 174.435 150.083 174.93 150.579C175.042 150.687 175.162 150.786 175.289 150.875L175.381 150.938L179.335 153.569C179.173 153.452 179.023 153.32 178.884 153.175C178.466 152.673 178.158 152.088 177.979 151.46C177.799 150.831 177.753 150.172 177.843 149.524C178.089 145.633 181.129 141.081 184.625 139.337C185.187 139.005 185.812 138.795 186.461 138.718C187.109 138.642 187.766 138.702 188.389 138.893C188.558 138.955 188.721 139.033 188.875 139.126L184.977 136.551Z" fill="#FFD000"/>
<path opacity="0.15" d="M184.977 136.551L184.794 136.431C183.739 135.791 182.247 135.812 180.573 136.649C177.055 138.38 174.044 142.939 173.798 146.836C173.748 147.485 173.795 148.137 173.938 148.771C174.092 149.456 174.435 150.083 174.93 150.579C175.042 150.687 175.162 150.786 175.289 150.875L175.381 150.938L179.335 153.569C179.173 153.452 179.023 153.32 178.884 153.175C178.466 152.673 178.158 152.088 177.979 151.46C177.799 150.831 177.753 150.172 177.843 149.524C178.089 145.633 181.129 141.081 184.625 139.337C185.187 139.005 185.812 138.795 186.461 138.718C187.109 138.642 187.766 138.702 188.389 138.893C188.558 138.955 188.721 139.033 188.875 139.126L184.977 136.551Z" fill="black"/>
<path d="M174.909 150.578C175.019 150.688 175.139 150.787 175.268 150.874L173.158 149.467C172.116 148.763 171.525 147.356 171.652 145.421C171.898 141.531 174.93 136.979 178.427 135.234C179.291 134.771 180.262 134.545 181.241 134.58C181.8 134.605 182.342 134.78 182.81 135.086L184.843 136.437C183.788 135.797 182.297 135.818 180.622 136.655C177.104 138.386 174.093 142.945 173.847 146.842C173.797 147.491 173.845 148.143 173.988 148.777C174.119 149.452 174.439 150.077 174.909 150.578Z" fill="#FFD000"/>
<path opacity="0.55" d="M174.909 150.578C175.019 150.688 175.139 150.787 175.268 150.874L173.158 149.467C172.116 148.763 171.525 147.356 171.652 145.421C171.898 141.531 174.93 136.979 178.427 135.234C179.291 134.771 180.262 134.545 181.241 134.58C181.8 134.605 182.342 134.78 182.81 135.086L184.843 136.437C183.788 135.797 182.297 135.818 180.622 136.655C177.104 138.386 174.093 142.945 173.847 146.842C173.797 147.491 173.845 148.143 173.988 148.777C174.119 149.452 174.439 150.077 174.909 150.578Z" fill="black"/>
<path d="M196.952 147.575C196.705 151.465 193.673 156.017 190.176 157.755C189.325 158.218 188.366 158.446 187.397 158.416C186.844 158.389 186.308 158.217 185.843 157.917L179.476 153.696L179.384 153.639C179.223 153.521 179.072 153.39 178.934 153.245C178.516 152.743 178.207 152.158 178.028 151.529C177.849 150.901 177.803 150.241 177.893 149.594C178.139 145.703 181.178 141.151 184.675 139.407C185.237 139.075 185.862 138.864 186.51 138.788C187.158 138.712 187.815 138.771 188.439 138.963C188.608 139.025 188.77 139.103 188.924 139.196L189.086 139.308L195.418 143.529C196.48 144.191 197.078 145.605 196.952 147.575Z" fill="#FFD000"/>
<path opacity="0.45" d="M196.952 147.575C196.705 151.465 193.673 156.017 190.176 157.755C189.325 158.218 188.366 158.446 187.397 158.416C186.844 158.389 186.308 158.217 185.843 157.917L179.476 153.696L179.384 153.639C179.223 153.521 179.072 153.39 178.934 153.245C178.516 152.743 178.207 152.158 178.028 151.529C177.849 150.901 177.803 150.241 177.893 149.594C178.139 145.703 181.178 141.151 184.675 139.407C185.237 139.075 185.862 138.864 186.51 138.788C187.158 138.712 187.815 138.771 188.439 138.963C188.608 139.025 188.77 139.103 188.924 139.196L189.086 139.308L195.418 143.529C196.48 144.191 197.078 145.605 196.952 147.575Z" fill="black"/>
<path d="M194.595 142.25C193.469 141.497 191.858 141.483 190.007 142.397C186.342 144.234 183.099 149.06 182.824 153.204C182.691 155.223 183.296 156.686 184.379 157.425C184.745 157.678 187.193 159.212 187.545 159.444C188.671 160.197 190.289 160.211 192.139 159.297C195.84 157.46 199.048 152.634 199.315 148.518C199.442 146.485 198.823 145.001 197.725 144.255C197.381 144.009 194.946 142.482 194.595 142.25Z" fill="#455A64"/>
<path d="M185.934 155.152C185.674 159.267 188.46 161.125 192.153 159.295C195.847 157.466 199.062 152.633 199.33 148.517C199.597 144.401 196.804 142.544 193.103 144.38C189.403 146.217 186.194 151.036 185.934 155.152Z" fill="#37474F"/>
<path d="M189.318 158.403C187.524 158.29 187.468 156.165 187.524 155.251C187.749 151.733 190.634 147.385 193.814 145.802C194.462 145.451 195.187 145.267 195.924 145.268C197.711 145.38 197.775 147.512 197.718 148.419C197.493 151.937 194.609 156.285 191.429 157.868C190.78 158.219 190.055 158.402 189.318 158.403Z" fill="#263238"/>
<path d="M195.748 146.168C195.773 145.873 195.773 145.576 195.748 145.281C195.073 145.314 194.412 145.494 193.814 145.809C190.634 147.392 187.749 151.719 187.524 155.257C187.503 155.555 187.503 155.854 187.524 156.151C188.201 156.119 188.862 155.936 189.459 155.616C192.674 154.033 195.523 149.685 195.748 146.168Z" fill="#FFD000"/>
<path opacity="0.3" d="M195.748 146.168C195.773 145.873 195.773 145.576 195.748 145.281C195.073 145.314 194.412 145.494 193.814 145.809C190.634 147.392 187.749 151.719 187.524 155.257C187.503 155.555 187.503 155.854 187.524 156.151C188.201 156.119 188.862 155.936 189.459 155.616C192.674 154.033 195.523 149.685 195.748 146.168Z" fill="black"/>
<path d="M192.027 147.694C193.328 146.286 194.925 145.914 195.136 146.469C195.348 147.025 194.243 152.274 188.938 155.067C190.733 153.65 192.242 151.904 193.385 149.924C194.285 148.214 193.652 146.73 192.027 147.694Z" fill="#E0E0E0"/>
<path d="M176.908 130.409L180.073 128.84C180.552 128.601 180.918 128.84 180.883 129.318C180.845 129.6 180.741 129.868 180.58 130.102C180.419 130.336 180.204 130.528 179.954 130.662L176.795 132.231C176.31 132.463 175.951 132.231 175.979 131.746C176.019 131.466 176.124 131.199 176.285 130.967C176.446 130.735 176.659 130.544 176.908 130.409Z" fill="#FFD000"/>
<path d="M166.066 152.45L169.795 150.606C170.365 150.325 170.794 150.606 170.751 151.169C170.708 151.501 170.587 151.817 170.397 152.092C170.207 152.367 169.955 152.594 169.661 152.752L165.939 154.61C165.369 154.891 164.94 154.61 164.975 154.04C165.018 153.707 165.139 153.389 165.328 153.113C165.518 152.836 165.771 152.609 166.066 152.45Z" fill="#37474F"/>
<path opacity="0.15" d="M186.462 158.212C186.013 157.258 185.831 156.2 185.934 155.151C186.111 153.214 186.732 151.343 187.749 149.685L173.418 140.145C172.428 141.732 171.823 143.53 171.652 145.393C171.525 147.321 172.116 148.728 173.158 149.438L175.268 150.845L175.36 150.909L179.307 153.533L179.398 153.589L183.331 156.199C183.568 156.654 183.907 157.046 184.323 157.346C184.653 157.578 186.701 158.859 187.341 159.267C186.975 158.983 186.675 158.623 186.462 158.212Z" fill="black"/>
</svg>
