<svg width="200" height="200" viewBox="0 0 200 200" fill="none" xmlns="http://www.w3.org/2000/svg">
<g clip-path="url(#clip0_752_28433)">
<path fill-rule="evenodd" clip-rule="evenodd" d="M96.6489 40.0786C72.5164 41.5624 60.8087 65.3973 46.0572 82.1754C34.101 95.7741 23.0389 109.409 20.7142 126.445C18.0291 146.122 16.4425 168.605 32.3369 182.721C48.2827 196.882 74.0361 195.809 96.6489 193.883C119.863 194.322 138.62 187.342 149.552 172.737C165.068 160.174 178.921 144.922 179.935 126.445C180.989 107.244 169.055 90.1752 154.888 75.4837C139.04 59.05 121.162 38.5713 96.6489 40.0786Z" fill="#FFF3CC"/>
<path d="M91.067 63.5641C94.338 63.8228 96.7576 66.965 96.4715 70.5823C96.1854 74.1997 93.3019 76.9224 90.031 76.6637C86.76 76.405 84.3403 73.2629 84.6264 69.6455C84.9125 66.0281 87.7961 63.3054 91.067 63.5641Z" fill="#FFD000"/>
<path d="M89.5609 76.6263C89.36 76.4825 89.1506 76.3515 88.934 76.2343C88.3722 75.8769 87.878 75.4176 87.4752 74.8783C86.9048 74.0605 86.5376 73.1102 86.4054 72.1102C86.193 70.8931 86.2956 69.6381 86.7029 68.4718C87.1102 67.3054 87.8078 66.269 88.7253 65.4671C89.466 64.8032 90.3654 64.3565 91.3288 64.1741C91.9767 64.0458 92.6446 64.087 93.2714 64.294C93.7161 64.4471 93.932 64.6045 93.9504 64.5779C93.9688 64.5513 93.9053 64.5294 93.7971 64.4535C93.646 64.3454 93.4835 64.2554 93.3127 64.185C92.6724 63.9272 91.9757 63.8527 91.2961 63.9694C90.287 64.1316 89.3394 64.5772 88.557 65.2573C87.5955 66.0832 86.8648 67.1589 86.4408 68.3723C86.0168 69.5858 85.9151 70.8927 86.1462 72.157C86.2985 73.1944 86.7016 74.1742 87.3183 75.0062C87.7465 75.5535 88.2789 76.0044 88.8828 76.3313C89.0508 76.4259 89.2265 76.5056 89.4077 76.5693C89.4561 76.5954 89.5076 76.6145 89.5609 76.6263Z" fill="#263238"/>
<path d="M85.657 66.3072C85.6192 66.3042 85.5609 66.4231 85.5657 66.6368C85.5768 66.9173 85.6898 67.1827 85.8821 67.3804C86.0746 67.5799 86.3334 67.6967 86.6066 67.7072C86.812 67.7234 86.9267 67.6483 86.9239 67.6144C86.9212 67.5805 86.443 67.5763 86.083 67.1774C85.7231 66.7784 85.7543 66.3149 85.657 66.3072Z" fill="#263238"/>
<path d="M85.768 68.343C85.7348 68.419 85.9025 68.567 86.1615 68.5931C86.4204 68.6191 86.6188 68.5169 86.5979 68.4367C86.5771 68.3565 86.3997 68.3312 86.1898 68.3034C85.9799 68.2755 85.8007 68.2726 85.768 68.343Z" fill="#263238"/>
<path d="M85.34 73.7548C85.2964 73.8244 85.6331 74.0362 86.0678 73.9022C86.5026 73.7682 86.6523 73.387 86.5929 73.3823C86.5334 73.3776 86.3135 73.5455 85.985 73.643C85.6565 73.7406 85.3678 73.6784 85.34 73.7548Z" fill="#263238"/>
<path d="M107.94 44.8647L107.07 44.8164C102.876 44.5763 98.7456 45.9237 95.4999 48.5907C92.2541 51.2577 90.1313 55.0488 89.5536 59.2099C88.4427 67.2599 89.7307 68.6774 89.5536 73.0002C89.1431 81.968 97.816 88.5002 97.816 88.5002L95.2933 94.952C95.1675 96.3825 95.3256 97.8237 95.7585 99.1929C96.1915 100.562 96.8907 101.832 97.816 102.93C98.7413 104.029 99.8745 104.933 101.151 105.592C102.426 106.251 103.82 106.651 105.251 106.769C108.103 106.998 110.93 106.096 113.123 104.259C115.316 102.422 116.698 99.796 116.972 96.9484L120.192 63.6937C121.496 54.4362 117.23 45.9515 107.94 44.8647Z" fill="#FFBF9D"/>
<path d="M98 88.5007C102.149 88.7417 106.371 87.6491 110 85.6777C110 85.6777 105.881 91.7827 97 90.5007L98 88.5007Z" fill="#FF9A6C"/>
<path d="M104.004 68.3284C103.975 68.7349 104.102 69.1368 104.357 69.447C104.613 69.7572 104.976 69.9508 105.368 69.9858C105.559 70.0133 105.753 70.0008 105.939 69.9492C106.125 69.8975 106.299 69.8078 106.451 69.6852C106.603 69.5627 106.729 69.4099 106.823 69.2358C106.917 69.0617 106.976 68.8698 106.997 68.6716C107.021 68.2663 106.892 67.8672 106.638 67.5581C106.384 67.249 106.023 67.054 105.633 67.0142C105.442 66.9867 105.248 66.9992 105.062 67.0509C104.876 67.1025 104.702 67.1922 104.55 67.3148C104.398 67.4373 104.272 67.5901 104.178 67.7642C104.084 67.9383 104.025 68.1302 104.004 68.3284Z" fill="#263238"/>
<path d="M91.212 63.701C91.3649 63.8781 92.3712 63.21 93.7477 63.2985C95.1243 63.3871 96.0984 64.1035 96.2513 63.9667C96.4043 63.8298 96.1869 63.5883 95.7683 63.2422C95.1958 62.793 94.4986 62.5316 93.7719 62.4935C93.0568 62.4539 92.3472 62.6397 91.7433 63.0248C91.3166 63.3227 91.1556 63.6125 91.212 63.701Z" fill="#263238"/>
<path d="M92.0028 68.3284C91.9789 68.7337 92.1076 69.1328 92.3621 69.4419C92.6165 69.751 92.9767 69.946 93.3671 69.9858C93.5579 70.0133 93.752 70.0008 93.938 69.9491C94.1241 69.8975 94.2982 69.8078 94.4501 69.6852C94.6021 69.5627 94.7287 69.4099 94.8226 69.2358C94.9165 69.0617 94.9756 68.8698 94.9966 68.6716C95.023 68.2657 94.8951 67.8652 94.6402 67.5556C94.3854 67.2459 94.0237 67.0516 93.6323 67.0142C93.4416 66.9867 93.2474 66.9992 93.0614 67.0509C92.8754 67.1025 92.7012 67.1922 92.5493 67.3148C92.3974 67.4373 92.2707 67.5901 92.1769 67.7642C92.083 67.9383 92.0238 68.1302 92.0028 68.3284Z" fill="#263238"/>
<path d="M104.744 64.7316C104.889 64.9087 105.903 64.2486 107.28 64.3291C108.656 64.4096 109.622 65.1341 109.783 64.9973C109.944 64.8604 109.719 64.6189 109.292 64.2728C108.724 63.8278 108.033 63.5691 107.312 63.5322C106.596 63.4864 105.885 63.6727 105.283 64.0635C104.833 64.3613 104.672 64.6511 104.744 64.7316Z" fill="#263238"/>
<path d="M99.1652 74.6567C98.4536 74.3823 97.7095 74.201 96.9514 74.1173C96.5972 74.061 96.2752 73.9724 96.2269 73.7309C96.2149 73.3658 96.3162 73.0059 96.5167 72.7005C96.9031 71.8955 97.3217 71.002 97.7162 70.0843C99.3745 66.3571 100.598 63.29 100.453 63.2256C100.308 63.1612 98.8432 66.1237 97.1688 69.8508C96.7663 70.7685 96.3638 71.646 96.0176 72.4832C95.7753 72.8956 95.6816 73.3786 95.752 73.8517C95.7956 73.9799 95.8685 74.0961 95.9649 74.1911C96.0613 74.2862 96.1786 74.3574 96.3074 74.3991C96.497 74.4654 96.6947 74.506 96.8951 74.5198C97.6438 74.6547 98.4057 74.7006 99.1652 74.6567Z" fill="#263238"/>
<path d="M104.641 60.4005C104.762 60.7788 106.146 60.6822 107.748 60.972C109.35 61.2618 110.63 61.777 110.864 61.447C110.968 61.294 110.759 60.9318 110.26 60.5373C109.583 60.0516 108.804 59.7266 107.982 59.5871C107.161 59.4476 106.318 59.4973 105.518 59.7323C104.915 59.9416 104.593 60.2153 104.641 60.4005Z" fill="#263238"/>
<path d="M91.9137 60.827C92.1311 61.149 93.0971 60.8833 94.2402 60.9316C95.3833 60.9799 96.3332 61.2617 96.5747 60.9316C96.6793 60.7787 96.5747 60.4567 96.148 60.1266C95.6025 59.7358 94.9513 59.5197 94.2804 59.5068C93.608 59.4784 92.9436 59.6614 92.3806 60.03C91.962 60.352 91.8091 60.666 91.9137 60.827Z" fill="#263238"/>
<path d="M90.6564 55.1525C90.6564 55.1525 93.337 49.6784 96.1223 48.5192C99.4872 47.1266 100.687 50.8054 103.858 50.1292C107.03 49.453 110.242 48.1006 113.293 50.6927C116.626 53.5344 114.903 55.2974 114.903 59.2821C114.855 75.4385 117.535 80.1639 118.807 72.629C118.944 71.824 121.295 71.2686 121.834 67.799C122.543 63.2749 123.034 57.7526 122.204 54.4602C121.504 51.6909 120.063 49.7187 117.374 47.4808C113.164 43.9549 107.135 43.5363 103.005 43.7134C98.8754 43.8905 90.6805 48.1006 90.6564 55.1525Z" fill="#263238"/>
<path d="M118.22 72.3236C118.247 71.9929 118.342 71.6713 118.499 71.3788C118.655 71.0864 118.871 70.8295 119.131 70.624C119.392 70.4185 119.692 70.269 120.013 70.1847C120.334 70.1004 120.669 70.0831 120.997 70.134C122.655 70.3916 124.458 71.4462 124.153 74.8916C123.605 81.0016 117.584 79.1903 117.584 79.0132C117.584 78.8361 117.97 74.8835 118.22 72.3236Z" fill="#FFBF9D"/>
<path d="M119.105 76.8303C119.105 76.8303 119.202 76.9188 119.379 77.0154C119.626 77.1475 119.914 77.1793 120.184 77.104C120.844 76.9269 121.48 75.9448 121.609 74.85C121.673 74.3266 121.617 73.7955 121.448 73.2963C121.408 73.1011 121.321 72.9186 121.195 72.7643C121.068 72.6101 120.907 72.4888 120.723 72.4108C120.604 72.3686 120.474 72.3688 120.356 72.4113C120.237 72.4538 120.136 72.5361 120.071 72.6443C119.967 72.8053 119.999 72.934 119.967 72.9421C119.934 72.9501 119.846 72.8294 119.918 72.5798C119.964 72.4305 120.061 72.3022 120.192 72.2176C120.372 72.1045 120.589 72.0669 120.796 72.1129C121.041 72.1861 121.264 72.3205 121.443 72.5036C121.621 72.6868 121.751 72.9125 121.818 73.1595C122.031 73.7126 122.106 74.3096 122.035 74.8983C121.882 76.1299 121.15 77.2247 120.248 77.4018C120.08 77.4353 119.907 77.4302 119.741 77.387C119.575 77.3438 119.421 77.2635 119.29 77.1523C119.105 76.9832 119.081 76.8464 119.105 76.8303Z" fill="#FF9A6C"/>
<path d="M89.3524 48.5191C90.2943 47.8107 91.5903 47.7141 92.5241 46.9977C96.6835 43.8042 103.387 37.7091 109.111 40.8959C111.289 42.1085 114.038 42.2125 115.982 43.6006C116.547 44.0475 117.013 44.608 117.348 45.2458C117.684 45.8835 117.882 46.5845 117.93 47.3036C117.93 47.3036 118.566 46.9816 120.498 48.5111C121.73 49.4851 122.736 51.5862 123.187 53.0835C123.855 55.3294 122.881 57.6962 121.923 59.8294C121.408 60.9806 120.764 62.2444 119.564 62.655C118.107 63.146 116.497 62.0029 115.926 60.57C115.354 59.1371 114.452 57.6962 113.76 56.3196C112.553 53.9046 111.345 51.6989 112.335 50.1694C109.07 49.1089 106.906 51.0056 104.003 52.0289C102.783 52.4594 97.8575 53.276 96.4995 52.9513C96.0607 52.8464 95.6512 52.6439 95.3014 52.359C94.7484 53.2599 93.8762 53.9194 92.8587 54.2059C91.8411 54.4923 90.753 54.3848 89.8112 53.9046C87.9919 52.7776 87.6699 49.791 89.3524 48.5191Z" fill="#263238"/>
<path d="M122.535 58.3875C122.252 58.8294 122.015 59.2987 121.826 59.7882C121.606 60.2826 121.258 60.7102 120.82 61.0279C120.234 61.3278 119.559 61.405 118.92 61.2452C118.256 61.1164 117.629 60.8414 117.085 60.4402C116.646 60.0994 116.246 59.7106 115.893 59.281C115.585 58.8596 115.243 58.4638 114.871 58.0977C115.067 58.5852 115.339 59.0388 115.676 59.442C116.013 59.9161 116.414 60.3413 116.867 60.7059C117.449 61.1447 118.124 61.4424 118.84 61.5753C119.565 61.7551 120.332 61.6484 120.981 61.2774C121.466 60.9224 121.835 60.4324 122.044 59.8687C122.268 59.397 122.433 58.8995 122.535 58.3875Z" fill="#FFD000"/>
<path d="M122.301 63.1146C121.933 63.394 121.526 63.619 121.094 63.7828C120.623 63.9318 120.126 63.9757 119.636 63.9116C119.036 63.8203 118.462 63.6007 117.954 63.2676C117.031 62.6266 116.248 61.805 115.652 60.8526C115.424 60.4394 115.154 60.0509 114.847 59.6934C114.988 60.1539 115.197 60.5907 115.467 60.9894C116.014 62.0378 116.806 62.9383 117.777 63.6137C118.33 63.9795 118.962 64.2085 119.62 64.2819C120.167 64.342 120.72 64.2674 121.23 64.0645C122.051 63.6701 122.341 63.1227 122.301 63.1146Z" fill="#FFD000"/>
<path d="M103.297 79.6289C103.503 79.9662 103.618 80.3164 103.638 80.6697C103.663 80.8368 103.617 81.0047 103.503 81.1618C103.389 81.319 103.211 81.4618 102.98 81.5804C102.74 81.7262 102.441 81.8432 102.104 81.9233C101.766 82.0034 101.398 82.0446 101.027 82.0439C100.356 82.0432 99.7074 81.92 99.1981 81.6964C98.6888 81.4729 98.3518 81.1636 98.2479 80.8242L98.0098 80.0558C99.3991 79.8525 103.194 79.6818 103.297 79.6289Z" fill="#FF9A6C"/>
<path d="M99.0522 81.1252C99.0522 81.1252 99.2472 81.1252 99.5693 81.1411C100.021 81.163 100.482 81.163 100.934 81.1411C101.587 81.1089 102.177 81.0007 102.587 80.8381C103.075 80.6348 103.307 80.3822 103.239 80.1285C103.22 79.9858 103.101 79.8462 102.892 79.7193L103.095 79.7485C101.646 79.8176 100.374 79.8734 99.476 79.9053C98.9928 79.9336 98.5011 79.9452 98.0098 79.9399C98.4676 79.884 98.9459 79.8465 99.4336 79.8282C100.332 79.7751 101.586 79.7033 103.036 79.6289H103.171L103.231 79.6661C103.556 79.8636 103.694 80.086 103.629 80.3073C103.565 80.5286 103.3 80.7395 102.866 80.9152C102.39 81.0951 101.709 81.2096 100.968 81.2341C100.486 81.2474 100.001 81.233 99.5354 81.1916C99.361 81.1806 99.1962 81.1579 99.0522 81.1252Z" fill="#263238"/>
<path d="M139.512 106.576C140.043 106.576 147.627 109.603 149.623 117.041C151.619 124.479 157.069 151.769 157.069 151.769L162.857 159.787C162.857 159.787 160.982 174.414 150.347 171.628C150.347 171.628 143.247 172.868 140.985 165.671C138.723 158.475 134.336 137.005 134.336 137.005L139.512 106.576Z" fill="#B9B8B6"/>
<path d="M117.853 94L121.88 100.196L140 106.752L134.814 160.234V185.5C115.5 197.5 77.2791 196.215 74.5409 195C73.1154 194.959 71.3195 191.408 71.0859 189.425C70.8846 187.645 71.038 185.841 71.5369 184.123L74.5409 173.403C74.0979 180.074 76.063 133.607 76.1516 131.911L71.5 108.5C73.0906 106.405 82.0743 103.291 92.3795 99.5154L95.6009 94.5081L104.879 101.687L117.853 94Z" fill="#B9B8B6"/>
<path d="M72 108C72 108 67.4544 111.654 66.7543 114.468C66.0543 117.281 50.8011 149.692 50.8011 149.692L43.2239 151.697L41.1978 155.82C40.0144 158.185 39.6959 160.877 40.2958 163.444C40.8957 166.012 42.3775 168.298 44.4922 169.92C44.7556 170.116 45.0307 170.297 45.3158 170.462C49.4339 172.887 56.764 172.758 61.055 167.794C65.1154 163.089 77 146.176 77 146.176V125.479L72 108Z" fill="#B9B8B6"/>
<path d="M47.0495 152.59L36.3993 146.303L31.2634 152.59L32.326 155.633L46.0594 165.848C47.7643 164.457 48.9081 162.495 49.2794 160.326C49.8831 156.486 47.0495 152.59 47.0495 152.59Z" fill="#FFBF9D"/>
<path d="M50.4305 149.337C50.4305 149.442 51.3402 149.337 52.6765 149.788C54.4033 150.385 55.9323 151.446 57.0959 152.855C58.2458 154.295 59.1937 155.885 59.9134 157.581C60.1847 158.307 60.5215 159.008 60.9197 159.674C60.8123 158.901 60.5955 158.147 60.2757 157.436C59.6431 155.646 58.7093 153.977 57.5145 152.501C56.2929 151.009 54.6394 149.932 52.7811 149.418C52.0213 149.167 51.2057 149.139 50.4305 149.337Z" fill="#263238"/>
<path d="M36.5764 149.789C36.8418 148.399 36.7467 146.964 36.3 145.621C35.8532 144.277 35.0698 143.071 34.0245 142.117C31.5099 140.049 28.6664 138.416 25.6122 137.287C23.7446 136.482 19.8564 133.206 19.1722 133.995C18.4879 134.784 18.182 135.959 19.1722 137.392C20.1623 138.825 25.7893 140.958 25.0004 142.769C24.6784 143.502 22.9074 143.639 22.9074 143.639C19.6927 143.865 16.4686 143.929 13.2474 143.832C10.3977 143.582 7.83777 144.13 7.99072 145.112C8.14367 146.094 8.67497 146.633 11.0336 146.834C13.3923 147.036 17.2321 146.883 17.4736 147.422C17.7151 147.961 16.8779 148.308 15.5014 148.227C14.1248 148.147 7.63652 148.122 7.19377 148.863C7.0861 149.051 7.02143 149.261 7.00446 149.477C6.98749 149.692 7.01864 149.91 7.09563 150.112C7.17262 150.314 7.29354 150.497 7.44971 150.648C7.60588 150.798 7.79341 150.911 7.99878 150.98L9.52022 151.52C9.52022 151.52 8.63472 152.751 9.37532 153.435C10.1159 154.12 11.7903 153.878 11.7903 153.878L20.3958 153.637C20.3958 153.637 20.8869 154.152 20.6454 154.506C20.4039 154.86 13.6579 154.369 13.6096 155.11C13.5613 155.85 12.9737 156.189 14.9862 156.72C17.9336 157.211 20.9421 157.211 23.8895 156.72C25.7088 156.221 33.3322 155.915 33.3322 155.915L36.5764 149.789Z" fill="#FFBF9D"/>
<path d="M153.535 153.709L163.493 145.449L169.208 151.889L168.508 155.037L156.063 166.758C154.218 165.7 152.826 164.001 152.15 161.984C150.911 158.434 153.535 153.709 153.535 153.709Z" fill="#FFBF9D"/>
<path d="M163.606 149.747C163.178 148.399 163.101 146.964 163.382 145.578C163.664 144.192 164.295 142.9 165.216 141.826C167.481 139.475 170.13 137.526 173.048 136.062C174.803 135.008 178.281 131.337 179.062 132.037C179.525 132.455 179.82 133.026 179.893 133.646C179.965 134.265 179.81 134.889 179.456 135.402C178.651 136.94 174.771 138.727 174.908 140.699C174.922 140.89 174.974 141.076 175.06 141.247C175.146 141.418 175.265 141.57 175.41 141.695C175.555 141.82 175.724 141.915 175.905 141.975C176.087 142.034 176.279 142.058 176.47 142.044C179.682 141.896 182.884 141.587 186.065 141.118C188.875 140.538 191.475 140.78 191.443 141.77C191.411 142.76 190.936 143.38 188.617 143.839C186.299 144.298 182.467 144.644 182.338 145.167C182.209 145.69 183.022 145.972 184.383 145.722C185.743 145.473 192.183 144.708 192.707 145.392C192.836 145.564 192.926 145.763 192.97 145.974C193.013 146.185 193.01 146.403 192.959 146.613C192.908 146.822 192.811 147.018 192.676 147.185C192.54 147.353 192.369 147.488 192.175 147.582L190.726 148.298C190.726 148.298 191.749 149.417 191.097 150.182C190.445 150.947 188.754 150.907 188.754 150.907L180.173 151.663C180.173 151.663 179.746 152.235 180.036 152.557C180.326 152.879 186.951 151.607 187.088 152.34C187.225 153.072 187.852 153.338 185.904 154.062C183.03 154.895 180.038 155.246 177.049 155.101C175.182 154.819 167.566 155.366 167.566 155.366L163.606 149.747Z" fill="#FFBF9D"/>
<path d="M92.4597 101.006C92.9982 101.678 93.5964 102.301 94.2468 102.865C95.3819 103.976 96.9355 105.53 98.5777 107.301C98.9239 107.679 99.27 108.05 99.592 108.412L99.8094 108.645L100.011 108.396C101.283 106.786 102.385 105.305 103.158 104.25C103.612 103.714 103.999 103.125 104.309 102.495C103.775 102.952 103.294 103.468 102.876 104.033C102.031 105.031 100.872 106.448 99.584 108.058H99.9945L98.9883 106.939C97.5736 105.41 96.0796 103.956 94.5125 102.584C93.8949 101.976 93.2056 101.446 92.4597 101.006Z" fill="#263238"/>
<path d="M138.377 120.502C138.229 120.857 138.129 121.231 138.079 121.613C137.926 122.337 137.733 123.392 137.524 124.696C137.105 127.304 136.662 130.927 136.292 134.936C135.922 138.945 135.648 142.583 135.439 145.216C135.358 146.439 135.278 147.478 135.221 148.331C135.171 148.713 135.171 149.1 135.221 149.482C135.336 149.115 135.412 148.738 135.447 148.355C135.559 147.622 135.696 146.56 135.841 145.248C136.147 142.631 136.485 139.001 136.856 134.992C137.226 130.983 137.588 127.369 137.902 124.793C138.055 123.577 138.184 122.539 138.288 121.693C138.372 121.302 138.401 120.901 138.377 120.502Z" fill="#263238"/>
<path d="M75.3936 118.676C75.2787 119.132 75.2112 119.599 75.1924 120.068C75.1038 120.978 75.0072 122.282 74.9267 123.908C74.7416 127.128 74.653 131.636 74.6369 136.579V153.09C74.6111 153.56 74.6299 154.032 74.6933 154.498C74.7976 154.039 74.8489 153.569 74.8462 153.098C74.9106 152.188 74.975 150.876 75.0233 149.258C75.136 146.038 75.1763 141.53 75.1843 136.587C75.1924 131.644 75.2326 127.161 75.3131 123.924C75.3534 122.387 75.3856 121.099 75.4097 120.085C75.4479 119.615 75.4425 119.144 75.3936 118.676Z" fill="#263238"/>
<path d="M146.548 165.123C146.8 164.209 146.985 163.279 147.103 162.338C147.48 160.092 148.208 157.918 149.261 155.898C150.334 153.917 151.948 152.282 153.914 151.181C154.759 150.777 155.633 150.438 156.53 150.166C156.265 150.109 155.99 150.109 155.725 150.166C155.027 150.283 154.35 150.497 153.712 150.802C151.597 151.857 149.864 153.546 148.753 155.632C147.688 157.706 147.012 159.957 146.757 162.274C146.568 163.211 146.497 164.168 146.548 165.123Z" fill="#263238"/>
<path d="M143.964 154.248C144.076 154.377 145.678 152.727 148.286 151.833C150.895 150.94 153.116 151.246 153.165 151.077C153.213 150.908 150.854 150.36 148.109 151.318C145.364 152.276 143.843 154.184 143.964 154.248Z" fill="#263238"/>
<path d="M103.11 191.656C103.159 191.358 103.18 191.057 103.174 190.755C103.174 190.119 103.174 189.258 103.231 188.179C103.279 185.885 103.343 182.657 103.424 178.688C103.609 170.638 103.867 159.585 104.156 147.381C104.446 135.177 104.599 124.076 104.583 116.059C104.583 112.034 104.543 108.814 104.495 106.56C104.495 105.481 104.438 104.62 104.414 103.984C104.421 103.682 104.399 103.38 104.35 103.082C104.327 103.382 104.327 103.684 104.35 103.984C104.35 104.62 104.35 105.481 104.35 106.56C104.35 108.854 104.301 112.09 104.269 116.051C104.189 124.101 103.955 135.137 103.681 147.365C103.408 159.593 103.166 170.662 103.102 178.68C103.102 182.705 103.102 185.925 103.102 188.179C103.102 189.258 103.102 190.119 103.142 190.755C103.111 191.054 103.1 191.356 103.11 191.656Z" fill="#263238"/>
<path d="M154.002 153.37C154.002 153.305 153.197 153.909 152.553 155.246C152.158 156.007 151.871 156.82 151.7 157.661C151.534 158.728 151.534 159.814 151.7 160.881C151.82 161.949 152.137 162.986 152.634 163.94C153.064 164.713 153.657 165.383 154.372 165.904C155.001 166.426 155.793 166.71 156.61 166.709C155.903 166.416 155.233 166.041 154.614 165.59C153.979 165.069 153.456 164.426 153.076 163.698C152.646 162.788 152.373 161.81 152.271 160.808C152.127 159.804 152.127 158.785 152.271 157.781C152.41 156.952 152.645 156.141 152.972 155.366C153.471 154.086 154.083 153.418 154.002 153.37Z" fill="#263238"/>
<path d="M44.0629 166.967C44.0629 166.967 44.3205 166.967 44.7311 166.765C45.3074 166.511 45.8485 166.184 46.3411 165.791C48.0279 164.492 49.1816 162.621 49.5849 160.531C49.9882 158.44 49.6133 156.274 48.5307 154.441C48.2152 153.89 47.8311 153.381 47.3876 152.927C47.0736 152.621 46.8724 152.476 46.8482 152.501C46.8241 152.525 47.4922 153.249 48.1926 154.626C49.129 156.407 49.4312 158.453 49.0493 160.428C48.6674 162.404 47.6242 164.19 46.0915 165.493C44.9404 166.508 44.0227 166.878 44.0629 166.967Z" fill="#263238"/>
<path d="M23.5917 140.41C23.5273 140.475 23.9942 140.917 24.5818 141.698C24.9199 142.145 25.1537 142.662 25.2661 143.212C25.3949 143.831 25.3788 144.556 25.4915 145.353C25.5874 146.037 25.8182 146.695 26.1706 147.29C26.523 147.884 26.9899 148.402 27.5443 148.814C27.9679 149.196 28.5053 149.428 29.0738 149.474C29.114 149.386 28.5183 149.161 27.7858 148.508C26.8427 147.673 26.2218 146.534 26.0308 145.288C25.9778 144.56 25.8865 143.834 25.7572 143.115C25.6031 142.515 25.3046 141.963 24.8877 141.505C24.5496 141.042 24.1051 140.666 23.5917 140.41Z" fill="#FF9A6C"/>
<path d="M178.861 148.879C178.861 149.024 181.541 149.169 184.85 149.008C188.158 148.847 190.815 148.46 190.799 148.307C190.783 148.155 188.118 148.307 184.826 148.46C181.533 148.613 178.861 148.718 178.861 148.879Z" fill="#FF9A6C"/>
<path d="M172.767 148.42C172.767 148.477 173.403 148.372 174.159 147.736C174.65 147.31 175.039 146.781 175.301 146.187C175.563 145.592 175.69 144.948 175.673 144.299C175.615 143.612 175.491 142.933 175.303 142.27C175.162 141.745 175.094 141.203 175.101 140.66C175.148 140.175 175.259 139.699 175.431 139.243C175.431 139.187 174.844 139.613 174.715 140.628C174.65 141.198 174.683 141.775 174.811 142.334C174.963 142.973 175.068 143.621 175.125 144.274C175.143 145.442 174.7 146.569 173.894 147.414C173.274 148.138 172.727 148.34 172.767 148.42Z" fill="#FF9A6C"/>
<path d="M22.0945 150.328C22.0945 150.175 19.2206 150.288 15.7108 150.578C12.201 150.867 9.35932 151.238 9.36737 151.383C9.37542 151.528 12.2412 151.423 15.751 151.125C19.2609 150.827 22.1025 150.473 22.0945 150.328Z" fill="#FF9A6C"/>
<path d="M104.961 101.971C105.283 103.043 105.689 104.087 106.177 105.095C106.394 105.578 106.62 106.101 106.853 106.64C107.084 107.255 107.353 107.854 107.658 108.435C107.774 108.626 107.943 108.78 108.145 108.877C108.346 108.974 108.571 109.011 108.793 108.983C109.183 108.88 109.546 108.693 109.856 108.435L111.756 107.139C114.348 105.352 116.674 103.702 118.349 102.494C119.285 101.882 120.168 101.193 120.989 100.434C119.992 100.936 119.036 101.518 118.131 102.172C116.401 103.307 114.034 104.893 111.442 106.688L109.55 107.993C109.303 108.206 109.016 108.368 108.705 108.468C108.578 108.483 108.449 108.459 108.336 108.401C108.222 108.342 108.129 108.25 108.069 108.137C107.457 107.027 106.95 105.827 106.459 104.917C106.042 103.895 105.542 102.91 104.961 101.971Z" fill="#263238"/>
<path d="M42.5485 165.888L23.7427 180.605C23.6342 180.691 23.5098 180.754 23.3766 180.792C23.2434 180.829 23.1041 180.84 22.9667 180.824C22.8293 180.807 22.6966 180.764 22.5761 180.696C22.4556 180.628 22.3497 180.536 22.2646 180.427L0.838739 153.039C0.753698 152.93 0.690887 152.806 0.653908 152.673C0.616927 152.541 0.606504 152.402 0.623234 152.265C0.639964 152.128 0.683518 151.996 0.751402 151.876C0.819287 151.756 0.910167 151.651 1.01884 151.566L19.8246 136.849C19.9331 136.764 20.0573 136.701 20.1902 136.664C20.323 136.627 20.4618 136.617 20.5987 136.633C20.7356 136.65 20.8678 136.694 20.9879 136.762C21.108 136.829 21.2134 136.92 21.2984 137.029L42.7286 164.415C42.8137 164.524 42.8765 164.648 42.9134 164.781C42.9504 164.913 42.9608 165.052 42.9441 165.189C42.9274 165.326 42.8838 165.458 42.8159 165.578C42.7481 165.698 42.6572 165.803 42.5485 165.888Z" fill="#E0E0E0"/>
<path d="M42.5484 165.888L42.6092 165.834C42.6668 165.78 42.7188 165.719 42.7643 165.654C42.838 165.545 42.8909 165.424 42.9206 165.296C42.9607 165.12 42.9548 164.937 42.9035 164.765C42.8731 164.661 42.826 164.562 42.7638 164.472C42.6977 164.378 42.619 164.284 42.5415 164.184C42.3864 163.988 42.208 163.766 42.0266 163.527C41.6539 163.052 41.2251 162.505 40.7403 161.887C38.8064 159.42 36.0088 155.849 32.5514 151.437C30.8262 149.229 28.9316 146.813 26.899 144.218C25.884 142.921 24.8348 141.581 23.7511 140.198C23.2104 139.506 22.6617 138.805 22.105 138.094C21.8257 137.74 21.546 137.382 21.263 137.022C21.1179 136.845 20.9175 136.722 20.6939 136.673C20.4703 136.623 20.2366 136.65 20.0302 136.75C19.9283 136.801 19.8329 136.865 19.7461 136.939L19.4713 137.153L18.9195 137.586L17.8053 138.458L15.5383 140.233L10.8679 143.892L1.03634 151.583C0.828403 151.745 0.69099 151.982 0.65264 152.243C0.614291 152.504 0.677952 152.769 0.8304 152.985C1.15248 153.403 1.48277 153.819 1.80653 154.236C2.457 155.066 3.10302 155.891 3.74461 156.712L7.53525 161.558C10.0211 164.735 12.4163 167.794 14.702 170.717C16.9877 173.64 19.1525 176.406 21.1861 179.006C21.4409 179.333 21.6925 179.655 21.9409 179.971C22.0662 180.13 22.1882 180.292 22.3141 180.446C22.4421 180.596 22.6104 180.706 22.7991 180.763C22.9861 180.819 23.1849 180.821 23.3731 180.77C23.4657 180.743 23.5544 180.704 23.6368 180.654C23.7171 180.602 23.7939 180.54 23.8701 180.479L24.7833 179.765L28.2489 177.055L38.7089 168.881L41.5552 166.66L42.2957 166.083L42.5484 165.888L42.2989 166.087L41.5605 166.668L38.7178 168.897L28.2673 177.086L24.8078 179.797L23.895 180.512C23.8183 180.571 23.7432 180.634 23.6589 180.689C23.5733 180.741 23.4812 180.781 23.3848 180.809C23.1883 180.864 22.9801 180.861 22.7848 180.802C22.5896 180.743 22.4153 180.629 22.2826 180.474C22.1546 180.318 22.0336 180.157 21.9083 179.999C21.6588 179.681 21.4069 179.359 21.1524 179.034C19.1209 176.438 16.9498 173.665 14.665 170.747C12.3803 167.829 9.98306 164.765 7.49606 161.589L3.70595 156.744C3.06471 155.924 2.41834 155.098 1.76682 154.266C1.44197 153.85 1.11382 153.435 0.788551 153.013C0.62917 152.787 0.562845 152.508 0.603351 152.235C0.643857 151.962 0.788081 151.715 1.00607 151.545L10.8372 143.85L15.5145 140.197L17.7809 138.423L18.8951 137.552L19.4449 137.112L19.7197 136.898C19.8086 136.823 19.9062 136.759 20.0104 136.708C20.2248 136.606 20.4669 136.579 20.6985 136.63C20.9302 136.682 21.1382 136.808 21.2897 136.991C21.5721 137.352 21.8524 137.708 22.1311 138.064C22.6896 138.775 23.2393 139.474 23.78 140.163C24.8604 141.546 25.909 142.887 26.9257 144.184C28.9561 146.78 30.8464 149.198 32.5732 151.406C36.0235 155.821 38.8182 159.397 40.7494 161.867C41.2308 162.484 41.6597 163.034 42.0313 163.508C42.2165 163.747 42.3847 163.968 42.5445 164.167C42.621 164.266 42.7007 164.362 42.7658 164.456C42.829 164.547 42.8767 164.647 42.907 164.753C42.9598 164.928 42.9658 165.114 42.9245 165.292C42.8938 165.421 42.8401 165.543 42.766 165.652C42.7197 165.718 42.6662 165.778 42.6065 165.832L42.5484 165.888Z" fill="#263238"/>
<g opacity="0.3">
<path d="M24.292 179.01L41.3745 165.492L38.9784 162.023L36.8876 160.436L21.9812 176.379L24.292 179.01Z" fill="black"/>
</g>
<g opacity="0.3">
<path d="M15.6309 140.227L16.9266 141.078L17.3698 141.646L16.9306 141.99L15.6309 140.227Z" fill="black"/>
</g>
<path d="M2.01504 152.696L22.8895 179.371L41.5242 164.789L37.7914 160.019L20.6492 138.113L2.01504 152.696Z" fill="white"/>
<path d="M2.01498 152.695L20.6397 138.096L20.6572 138.087L20.6661 138.106C26.4687 145.518 33.7088 154.769 41.5439 164.779L41.5549 164.802L41.5329 164.813L22.8988 179.393L22.8791 179.402L22.8692 179.381C10.5542 163.624 2.13972 152.855 2.01441 152.697C2.14181 152.86 10.5723 163.616 22.9098 179.362L22.8772 179.359L41.5092 164.774L41.5047 164.81C33.6739 154.8 26.436 145.549 20.6357 138.132L20.6644 138.136L2.01498 152.695Z" fill="#263238"/>
<path d="M6.19356 146.347L14.4117 139.916C14.5724 139.791 14.7765 139.734 14.9791 139.759C15.1816 139.783 15.366 139.888 15.4918 140.048L17.1591 142.179L7.72709 149.559L6.06131 147.43C5.99855 147.35 5.95216 147.259 5.92483 147.161C5.89749 147.064 5.88975 146.962 5.90204 146.861C5.91433 146.76 5.94641 146.663 5.99645 146.575C6.04648 146.486 6.11347 146.409 6.19356 146.347Z" fill="#263238"/>
<path d="M10.6993 141.166L8.29939 143.043L10.1892 144.881L11.9965 143.467L10.6993 141.166Z" fill="#263238"/>
<path d="M14.4109 139.916C14.4166 139.928 12.587 141.375 10.3189 143.15C8.05078 144.926 6.20398 146.359 6.19494 146.349C6.18589 146.338 8.01884 144.89 10.2891 143.113C12.5594 141.336 14.4001 139.91 14.4109 139.916Z" fill="#455A64"/>
<path d="M7.59596 148.952C7.58389 148.958 7.27352 148.581 6.90089 148.104C6.52826 147.627 6.23288 147.234 6.24448 147.224C6.25608 147.214 6.56692 147.595 6.94007 148.073C7.31323 148.551 7.60803 148.947 7.59596 148.952Z" fill="#455A64"/>
<path d="M16.3469 141.772C16.1212 141.525 15.9083 141.267 15.7091 140.998C15.4986 140.743 15.3011 140.478 15.1174 140.203C15.3421 140.448 15.5541 140.704 15.7526 140.971C15.9642 141.227 16.1626 141.495 16.3469 141.772Z" fill="#455A64"/>
<path d="M16.1773 142.492C16.1831 142.504 14.3043 143.989 11.9761 145.81C9.64788 147.632 7.75474 149.101 7.74297 149.091C7.73121 149.08 9.61489 147.594 11.9497 145.769C14.2845 143.944 16.165 142.483 16.1773 142.492Z" fill="#455A64"/>
<path d="M14.7615 153.819C14.7678 153.832 13.5027 154.837 11.9288 156.069C10.3549 157.301 9.07991 158.284 9.06648 158.276C9.05305 158.267 10.3308 157.256 11.8997 156.027C13.4686 154.799 14.7525 153.809 14.7615 153.819Z" fill="#263238"/>
<path d="M24.8034 147.568C24.8097 147.582 21.4934 150.192 17.391 153.402C13.2886 156.612 9.95404 159.207 9.94609 159.196C9.93814 159.185 13.255 156.573 17.3596 153.362C21.4642 150.151 24.7955 147.557 24.8034 147.568Z" fill="#263238"/>
<path d="M25.5233 148.488C25.5291 148.5 22.2116 151.111 18.1097 154.322C14.0079 157.533 10.6739 160.126 10.6644 160.115C10.6548 160.103 13.9749 157.492 18.0784 154.282C22.1819 151.071 25.5127 148.474 25.5233 148.488Z" fill="#263238"/>
<path d="M26.2388 149.402C26.2446 149.414 22.9283 152.024 18.8259 155.234C14.7235 158.444 11.3895 161.04 11.3799 161.029C11.3703 161.017 14.6905 158.406 18.7945 155.194C22.8986 151.982 26.2298 149.391 26.2388 149.402Z" fill="#263238"/>
<path d="M26.956 150.318C26.9618 150.33 23.6454 152.941 19.543 156.151C15.4406 159.361 12.1061 161.956 12.0982 161.945C12.0902 161.934 15.4076 159.323 19.5117 156.111C23.6158 152.898 26.9475 150.306 26.956 150.318Z" fill="#263238"/>
<path d="M27.673 151.232C27.6793 151.246 24.3619 153.857 20.2595 157.066C16.1571 160.276 12.822 162.873 12.8162 162.861C12.8105 162.849 16.1268 160.238 20.2298 157.027C24.3328 153.815 27.6645 151.223 27.673 151.232Z" fill="#263238"/>
<path d="M17.7137 164.84C17.7041 164.832 17.6953 164.822 17.6877 164.811L17.617 164.725C17.5538 164.646 17.4651 164.536 17.3551 164.399C17.1305 164.117 16.8151 163.72 16.438 163.246L16.4695 163.249L14.8624 164.511C14.8624 164.511 14.8708 164.444 14.8669 164.475L14.8706 164.483L14.8779 164.498L14.8991 164.526L14.9427 164.58L15.0271 164.69C15.0844 164.762 15.1401 164.834 15.1959 164.905C15.3063 165.047 15.4156 165.186 15.5207 165.321C15.7314 165.591 15.9299 165.847 16.1131 166.081L16.0816 166.077L17.2485 165.178L17.5817 164.925L17.6715 164.859L17.7035 164.836C17.7035 164.836 17.6947 164.84 17.6775 164.86L17.5952 164.928L17.2739 165.186L16.1184 166.118L16.0986 166.127L16.0892 166.107L15.4941 165.35C15.3879 165.215 15.2785 165.076 15.1626 164.937C15.1069 164.866 15.0501 164.794 14.9938 164.722C14.9651 164.687 14.9365 164.649 14.9084 164.613L14.8648 164.558L14.8436 164.531L14.8363 164.515L14.8326 164.508L14.83 164.502C14.8267 164.535 14.8352 164.459 14.8345 164.466L16.4452 163.21L16.465 163.2L16.4744 163.22L17.385 164.402C17.49 164.54 17.5738 164.651 17.6343 164.73C17.6608 164.766 17.6809 164.794 17.6984 164.817C17.7045 164.824 17.7097 164.832 17.7137 164.84Z" fill="#263238"/>
<path d="M28.975 154.031L17.7539 162.811L18.4864 163.747L29.7075 154.967L28.975 154.031Z" fill="#E0E0E0"/>
<path d="M19.8975 167.632C19.8879 167.623 19.879 167.613 19.8709 167.602C19.8523 167.58 19.8289 167.551 19.8002 167.516C19.737 167.437 19.6488 167.328 19.5389 167.191C19.3137 166.907 18.9962 166.507 18.6212 166.036L18.6527 166.04L17.0457 167.302C17.0488 167.308 17.054 167.234 17.0507 167.267L17.0533 167.272L17.0569 167.28L17.0643 167.295L17.0855 167.323L17.129 167.378C17.1577 167.415 17.1858 167.452 17.215 167.488L17.3822 167.703C17.4931 167.845 17.602 167.983 17.7071 168.119C17.9178 168.389 18.1163 168.644 18.2994 168.879L18.268 168.875L19.4365 167.976L19.7685 167.723L19.8579 167.657C19.8678 167.648 19.8787 167.64 19.8904 167.634L19.8649 167.657L19.7815 167.725L19.4608 167.985L18.2956 168.91L18.2758 168.92L18.2664 168.9L17.6713 168.143C17.5651 168.007 17.4557 167.868 17.3398 167.73C17.2846 167.659 17.2273 167.587 17.1716 167.515C17.1434 167.479 17.1142 167.443 17.0856 167.405L17.042 167.351L17.0208 167.323L17.0135 167.308L17.0072 167.294L17.0112 167.257L18.6234 166.007L18.6432 165.998L18.6521 166.016C19.0262 166.502 19.3421 166.899 19.5626 167.198C19.6677 167.337 19.7515 167.447 19.812 167.526C19.8385 167.562 19.8586 167.59 19.8761 167.613C19.884 167.618 19.8912 167.625 19.8975 167.632Z" fill="#263238"/>
<path d="M31.1584 156.822L19.9373 165.602L20.6698 166.538L31.8909 157.758L31.1584 156.822Z" fill="#E0E0E0"/>
<path d="M22.081 170.422C22.081 170.422 22.0748 170.408 22.0544 170.391C22.0341 170.374 22.0125 170.34 21.9838 170.305C21.9206 170.226 21.8324 170.117 21.7224 169.98C21.4978 169.698 21.1797 169.296 20.8048 168.826L20.8363 168.83L19.2248 170.093C19.228 170.1 19.2332 170.026 19.2298 170.058L19.2335 170.066L19.2372 170.074L19.2445 170.089L19.2657 170.117L19.3093 170.171C19.3379 170.209 19.366 170.245 19.3952 170.281L19.5624 170.496C19.6734 170.639 19.7822 170.777 19.8873 170.912L20.4796 171.672L20.4487 171.669L21.6167 170.77L21.9488 170.517L22.0381 170.45C22.0492 170.443 22.0609 170.438 22.0732 170.433L22.0478 170.456L21.9644 170.524L21.6436 170.784L20.4784 171.709L20.4586 171.719L20.4492 171.699C20.2666 171.465 20.0649 171.209 19.8541 170.942C19.7479 170.806 19.6391 170.668 19.5227 170.529C19.4675 170.458 19.4106 170.387 19.3544 170.314C19.3263 170.278 19.297 170.242 19.2689 170.205L19.2265 170.15L19.2041 170.123L19.1963 170.107L19.1874 170.088C19.1836 170.119 19.1921 170.044 19.1919 170.052L20.8027 168.796L20.8224 168.786L20.8318 168.806L21.7424 169.988C21.8474 170.126 21.9312 170.237 21.9922 170.317C22.0182 170.352 22.0394 170.38 22.0558 170.403C22.0651 170.408 22.0736 170.414 22.081 170.422Z" fill="#263238"/>
<path d="M33.3432 159.613L22.1221 168.393L22.8546 169.329L34.0757 160.549L33.3432 159.613Z" fill="#E0E0E0"/>
<path d="M15.6775 165.02L15.7245 164.632L16.4337 164.677L16.6369 163.244L17.0077 163.304L16.7308 165.119L15.6775 165.02Z" fill="#FFD000"/>
<path d="M17.788 167.717L17.8351 167.329L18.5443 167.374L18.7464 165.942L19.1183 166.002L18.8398 167.816L17.788 167.717Z" fill="#FFD000"/>
<path d="M19.9523 170.481L19.9999 170.095L20.708 170.14L20.9112 168.708L21.2814 168.767L21.0046 170.582L19.9523 170.481Z" fill="#FFD000"/>
<path d="M27.5481 171.624C27.5544 171.637 26.6143 172.388 25.4417 173.301C24.2691 174.214 23.3141 174.951 23.3062 174.94C23.2982 174.929 24.2394 174.177 25.4115 173.263C26.5835 172.349 27.5396 171.615 27.5481 171.624Z" fill="#263238"/>
<path d="M29.6429 169.933C29.3985 170.158 29.1427 170.37 28.8763 170.568C28.6211 170.778 28.3555 170.975 28.0806 171.159C28.3247 170.934 28.5802 170.723 28.8461 170.524C29.2771 170.188 29.635 169.922 29.6429 169.933Z" fill="#263238"/>
<path d="M36.2965 163.739C36.3022 163.751 35.4576 164.429 34.4041 165.252C33.3507 166.076 32.4884 166.736 32.4805 166.725C32.4725 166.714 33.3188 166.038 34.3728 165.212C35.4268 164.387 36.2885 163.728 36.2965 163.739Z" fill="#263238"/>
<path d="M36.6548 167.113C36.6548 167.113 36.6505 167.079 36.6343 167.016C36.6086 166.925 36.5628 166.841 36.5004 166.769C36.3992 166.657 36.2881 166.555 36.1685 166.463C36.0043 166.343 35.868 166.19 35.7693 166.012C35.7182 165.898 35.6916 165.775 35.691 165.65C35.6905 165.526 35.7161 165.402 35.7662 165.288C35.8265 165.157 35.9192 165.045 36.0355 164.96C36.1518 164.876 36.2877 164.823 36.4304 164.806C36.5849 164.782 36.7427 164.804 36.8854 164.868C36.9617 164.902 37.0248 164.96 37.0655 165.034C37.086 165.074 37.0932 165.119 37.086 165.163C37.0788 165.208 37.0576 165.249 37.0254 165.28C36.9648 165.338 36.9 165.391 36.8316 165.439L36.6336 165.588C36.5007 165.688 36.364 165.785 36.2198 165.878C35.9428 166.063 35.6416 166.209 35.3249 166.311C35.1764 166.347 35.0467 166.436 34.9613 166.563C34.9123 166.703 34.8841 166.849 34.8775 166.997C34.8671 167.074 34.8364 167.146 34.7888 167.206C34.7386 167.265 34.6685 167.302 34.5921 167.311C34.4553 167.315 34.3185 167.304 34.1839 167.279C34.1227 167.271 34.0603 167.276 34.0015 167.295C33.947 167.314 33.901 167.351 33.8717 167.401C33.8289 167.507 33.8054 167.619 33.8023 167.733C33.7899 167.836 33.7529 167.933 33.6945 168.018C33.6361 168.103 33.558 168.173 33.4669 168.221C33.3289 168.294 33.1681 168.311 33.018 168.268C32.9242 168.243 32.8376 168.195 32.7651 168.13C32.74 168.108 32.7177 168.083 32.6986 168.056C32.6986 168.056 32.7226 168.081 32.7723 168.123C32.8449 168.184 32.9304 168.227 33.0222 168.249C33.167 168.287 33.321 168.269 33.4527 168.197C33.5393 168.15 33.6132 168.083 33.668 168.002C33.7229 167.92 33.7571 167.826 33.7676 167.728C33.7702 167.609 33.7945 167.492 33.8394 167.382C33.8729 167.323 33.9259 167.278 33.9892 167.255C34.0535 167.235 34.1212 167.229 34.188 167.237C34.3197 167.26 34.4534 167.27 34.587 167.266C34.6524 167.258 34.7125 167.226 34.7556 167.176C34.7982 167.122 34.8245 167.057 34.8315 166.988C34.8389 166.836 34.8689 166.685 34.9204 166.542C34.9605 166.47 35.019 166.409 35.0901 166.367C35.1593 166.324 35.2329 166.289 35.3095 166.262C35.6225 166.16 35.9202 166.016 36.1946 165.834C36.3366 165.742 36.4716 165.644 36.6051 165.545L36.8036 165.397C36.8678 165.35 36.9292 165.3 36.9875 165.246C37.013 165.222 37.03 165.19 37.036 165.156C37.0419 165.121 37.0365 165.086 37.0205 165.055C36.9842 164.992 36.9291 164.941 36.8628 164.911C36.7271 164.849 36.5767 164.827 36.4291 164.848C36.2939 164.864 36.1649 164.914 36.0544 164.994C35.9439 165.073 35.8555 165.179 35.7974 165.303C35.7488 165.411 35.7235 165.529 35.7231 165.648C35.7228 165.766 35.7473 165.884 35.7952 165.993C35.8903 166.167 36.0215 166.319 36.1799 166.438C36.2992 166.533 36.4094 166.638 36.5088 166.753C36.5707 166.828 36.6148 166.915 36.6377 167.009C36.6475 167.043 36.6532 167.078 36.6548 167.113Z" fill="#263238"/>
<path d="M38.2533 164.628C38.2384 164.645 38.2221 164.66 38.2046 164.673L38.0567 164.792L37.5119 165.225C37.0537 165.592 36.421 166.101 35.7311 166.673C35.0412 167.246 34.425 167.775 33.9817 168.159L33.4555 168.614L33.3108 168.737C33.2946 168.752 33.2773 168.766 33.2589 168.778C33.272 168.76 33.2873 168.743 33.3044 168.729L33.4422 168.6C33.5623 168.488 33.7366 168.325 33.9572 168.133C34.3963 167.74 35.0082 167.208 35.6971 166.63C36.386 166.053 37.0229 165.553 37.4891 165.195C37.7213 165.015 37.9111 164.871 38.0434 164.773L38.1961 164.661C38.2142 164.648 38.2333 164.638 38.2533 164.628Z" fill="#263238"/>
<path d="M17.7798 144.841L10.1628 150.801L11.2826 152.232L18.8996 146.272L17.7798 144.841Z" fill="#E0E0E0"/>
<path d="M118.667 68.4239C118.824 68.3717 124.889 67.1676 124.092 73.3484C123.295 79.5291 117.449 77.4764 117.461 77.2976C117.473 77.1189 118.667 68.4239 118.667 68.4239Z" fill="#FFBE9D"/>
<path d="M119.593 75.1942C119.593 75.1942 119.688 75.2822 119.852 75.3881C120.086 75.5302 120.366 75.5715 120.631 75.5031C121.294 75.3483 121.96 74.3785 122.133 73.2707C122.214 72.7412 122.181 72.2004 122.036 71.6869C122.006 71.4867 121.928 71.2976 121.81 71.1361C121.691 70.9746 121.537 70.8458 121.359 70.7607C121.243 70.7137 121.115 70.7091 120.997 70.7477C120.878 70.7864 120.775 70.8658 120.706 70.9728C120.603 71.1371 120.623 71.2684 120.59 71.2708C120.557 71.2732 120.476 71.1529 120.555 70.9019C120.61 70.7551 120.71 70.6305 120.84 70.5473C121.023 70.4398 121.239 70.4104 121.442 70.4652C121.684 70.5454 121.902 70.6891 122.074 70.8821C122.246 71.0752 122.367 71.3112 122.424 71.5671C122.609 72.1352 122.656 72.7419 122.562 73.335C122.365 74.5809 121.595 75.6644 120.688 75.8067C120.521 75.8349 120.35 75.8237 120.188 75.7738C120.026 75.724 119.877 75.6368 119.752 75.5189C119.583 75.3563 119.571 75.2033 119.593 75.1942Z" fill="#EB996E"/>
<path d="M123.015 67.9462C123.015 67.9462 128.619 50.5821 118.636 46.7159L117.018 46.5585C117.018 46.5585 124.536 51.6358 120.611 66.1774" fill="#FFD000"/>
<path d="M120.663 78.4181C117.397 78.1006 115.034 74.9154 115.386 71.3038C115.737 67.6922 118.669 65.0217 121.934 65.3392C125.2 65.6567 127.563 68.8419 127.212 72.4535C126.861 76.0651 123.929 78.7356 120.663 78.4181Z" fill="#FFD000"/>
<path d="M121.47 65.2944C121.47 65.2944 121.4 65.2876 121.278 65.315C121.089 65.3525 120.902 65.4019 120.719 65.4631C120.067 65.6786 119.464 66.0295 118.947 66.4941C118.194 67.2052 117.625 68.0994 117.294 69.0943C116.849 70.3025 116.727 71.6102 116.941 72.8797C117.155 74.1492 117.697 75.3337 118.51 76.3085C119.159 77.117 120.015 77.7219 120.981 78.0557C121.628 78.29 122.326 78.3383 122.999 78.1957C123.182 78.1576 123.359 78.0975 123.529 78.0166C123.642 77.9658 123.7 77.9321 123.696 77.9204C123.692 77.9087 123.442 78.0082 122.983 78.0872C122.327 78.1812 121.661 78.1048 121.044 77.865C120.129 77.5134 119.322 76.9169 118.706 76.1364C117.935 75.1871 117.421 74.0433 117.215 72.8202C117.018 71.6007 117.14 70.347 117.568 69.1884C117.872 68.225 118.402 67.353 119.111 66.6507C119.598 66.1851 120.166 65.8186 120.785 65.5707C121.205 65.3923 121.474 65.3172 121.47 65.2944Z" fill="#263238"/>
<path d="M115.839 74.7673C115.914 74.7746 115.988 74.2927 116.41 73.9906C116.831 73.6886 117.296 73.7844 117.314 73.7075C117.333 73.6305 117.223 73.5861 117.019 73.555C116.748 73.5168 116.473 73.5853 116.248 73.747C116.024 73.9086 115.866 74.1514 115.806 74.4268C115.764 74.6364 115.806 74.7697 115.839 74.7673Z" fill="#263238"/>
<path d="M116.282 72.7863C116.274 72.8643 116.485 72.8848 116.696 72.8996C116.907 72.9145 117.084 72.9374 117.121 72.8398C117.158 72.7421 116.973 72.6286 116.713 72.6089C116.454 72.5893 116.263 72.7057 116.282 72.7863Z" fill="#263238"/>
<path d="M116.808 67.3773C116.8 67.4553 117.121 67.4583 117.421 67.6225C117.721 67.7866 117.926 68.0258 117.974 67.9855C118.021 67.9451 117.955 67.5675 117.548 67.3818C117.141 67.196 116.776 67.3068 116.808 67.3773Z" fill="#263238"/>
</g>
<defs>
<clipPath id="clip0_752_28433">
<rect width="200" height="200" fill="white"/>
</clipPath>
</defs>
</svg>
