<svg width="200" height="200" viewBox="0 0 200 200" fill="none" xmlns="http://www.w3.org/2000/svg">
<path fill-rule="evenodd" clip-rule="evenodd" d="M102.351 40.0786C126.484 41.5624 138.191 65.3973 152.943 82.1754C164.899 95.7741 175.961 109.409 178.286 126.445C180.971 146.122 182.558 168.605 166.663 182.721C150.717 196.882 124.964 195.809 102.351 193.883C79.1366 194.322 60.3796 187.342 49.4481 172.737C33.9316 160.174 20.0786 144.922 19.0648 126.445C18.0113 107.244 29.9446 90.1752 44.1121 75.4837C59.9597 59.05 77.8381 38.5713 102.351 40.0786Z" fill="#FFF3CC"/>
<mask id="mask0_752_27184" style="mask-type:alpha" maskUnits="userSpaceOnUse" x="19" y="40" width="161" height="155">
<path fill-rule="evenodd" clip-rule="evenodd" d="M102.351 40.0786C126.484 41.5624 138.191 65.3973 152.943 82.1754C164.899 95.7741 175.961 109.409 178.286 126.445C180.971 146.122 182.558 168.605 166.663 182.721C150.717 196.882 124.964 195.809 102.351 193.883C79.1366 194.322 60.3796 187.342 49.4481 172.737C33.9316 160.174 20.0786 144.922 19.0648 126.445C18.0113 107.244 29.9446 90.1752 44.1121 75.4837C59.9597 59.05 77.8381 38.5713 102.351 40.0786Z" fill="#FFF3CC"/>
</mask>
<g mask="url(#mask0_752_27184)">
<rect width="146" height="41" transform="matrix(-1 0 0 1 177 154)" fill="#D9D9D9"/>
</g>
<path d="M64.8015 55.5501L65.6455 55.336C69.7157 54.2961 74.0282 54.8265 77.7251 56.8217C81.422 58.8169 84.2324 62.1306 85.5972 66.1036C88.231 73.7913 87.2387 75.4294 88.2414 79.6381C90.3638 88.3607 83.1043 96.4348 83.1043 96.4348L86.8173 102.283C87.215 103.663 87.3362 105.108 87.1739 106.535C87.0115 107.961 86.5688 109.342 85.8712 110.597C85.1736 111.852 84.2348 112.957 83.1089 113.849C81.9829 114.74 80.6919 115.4 79.3101 115.791C76.5552 116.562 73.6076 116.219 71.1032 114.836C68.5988 113.453 66.7385 111.141 65.9236 108.399L56.387 76.379C53.3321 67.5433 55.8925 58.3979 64.8015 55.5501Z" fill="#FFBF9D"/>
<path d="M82.9236 96.4697C78.8976 97.5018 74.5445 97.239 70.605 96C70.605 96 75.8177 101.202 84.2885 98.2409L82.9236 96.4697Z" fill="#FF9A6C"/>
<path d="M73.1633 77.823C73.2696 78.2164 73.222 78.6352 73.031 78.9886C72.8399 79.3421 72.5207 79.6017 72.1425 79.7113C71.9606 79.7747 71.7677 79.7997 71.5752 79.7847C71.3828 79.7697 71.1947 79.715 71.0221 79.6239C70.8495 79.5327 70.696 79.407 70.5705 79.2541C70.445 79.1012 70.3502 78.9243 70.2916 78.7338C70.1903 78.3406 70.2401 77.9242 70.4305 77.5721C70.6209 77.2199 70.937 76.9595 71.3124 76.8456C71.4943 76.7821 71.6872 76.7571 71.8797 76.7721C72.0721 76.7871 72.2602 76.8418 72.4328 76.933C72.6054 77.0241 72.759 77.1498 72.8844 77.3027C73.0099 77.4556 73.1048 77.6325 73.1633 77.823Z" fill="#263238"/>
<path d="M84.8309 70.8298C84.7148 71.033 83.5991 70.5702 82.265 70.921C80.931 71.2719 80.1124 72.1618 79.936 72.0568C79.7597 71.9518 79.9267 71.6731 80.2712 71.2531C80.7469 70.7026 81.3811 70.3123 82.087 70.1356C82.7813 69.9596 83.5133 70.0059 84.1798 70.268C84.6557 70.4786 84.8692 70.7321 84.8309 70.8298Z" fill="#263238"/>
<path d="M84.9419 75.522C85.0431 75.9152 84.9933 76.3316 84.8028 76.6838C84.6124 77.0359 84.2962 77.2963 83.9207 77.4103C83.7388 77.4738 83.5458 77.4988 83.3533 77.4838C83.1609 77.4688 82.9727 77.4141 82.8001 77.323C82.6275 77.2318 82.4739 77.1061 82.3484 76.9532C82.2229 76.8003 82.1281 76.6234 82.0695 76.4329C81.9657 76.0396 82.0145 75.622 82.2052 75.2692C82.396 74.9165 82.7137 74.6564 83.0906 74.5446C83.2726 74.4811 83.4655 74.4562 83.658 74.4712C83.8505 74.4862 84.0386 74.5408 84.2112 74.632C84.3838 74.7231 84.5374 74.8488 84.6629 75.0017C84.7884 75.1546 84.8833 75.3315 84.9419 75.522Z" fill="#263238"/>
<path d="M71.7476 74.4361C71.6393 74.6377 70.5172 74.1844 69.1817 74.5273C67.8461 74.8703 67.0369 75.7666 66.8527 75.6631C66.6684 75.5597 66.8433 75.2794 67.1957 74.8579C67.6679 74.3122 68.2971 73.9258 68.9973 73.7513C69.691 73.5691 70.4249 73.6156 71.0901 73.8838C71.5896 74.0897 71.8032 74.3432 71.7476 74.4361Z" fill="#263238"/>
<path d="M79.1257 83.1075C79.7715 82.7017 80.4671 82.3812 81.195 82.1537C81.5318 82.0304 81.8309 81.8818 81.832 81.6355C81.7737 81.2748 81.6054 80.941 81.35 80.6798C80.8164 79.9638 80.2342 79.1671 79.6711 78.3421C77.3289 75.002 75.54 72.2265 75.6698 72.1355C75.7997 72.0445 77.8056 74.671 80.1636 78.008C80.7346 78.8315 81.2979 79.6155 81.7981 80.3708C82.1151 80.7291 82.2997 81.1851 82.3213 81.6629C82.3031 81.7971 82.2538 81.9252 82.1774 82.0369C82.101 82.1487 81.9995 82.2411 81.8811 82.3067C81.7077 82.4082 81.5215 82.4859 81.3275 82.5379C80.6186 82.8138 79.8795 83.005 79.1257 83.1075Z" fill="#263238"/>
<path d="M71.0184 70.1643C70.9724 70.5587 69.595 70.7294 68.0783 71.321C66.5616 71.9126 65.4042 72.6637 65.1118 72.3845C64.9798 72.2545 65.1158 71.8588 65.53 71.376C66.1014 70.7694 66.8036 70.3011 67.5832 70.0066C68.3629 69.7122 69.1993 69.5994 70.0291 69.6768C70.6618 69.7664 71.0303 69.9733 71.0184 70.1643Z" fill="#263238"/>
<path d="M83.5909 68.1437C83.4394 68.5014 82.4403 68.4259 81.3277 68.6925C80.2151 68.9591 79.3368 69.4177 79.0365 69.1401C78.9045 69.0101 78.9455 68.674 79.3009 68.2682C79.7614 67.7801 80.359 67.4431 81.015 67.3018C81.6695 67.145 82.3566 67.1972 82.9799 67.4511C83.4525 67.6868 83.6628 67.9656 83.5909 68.1437Z" fill="#263238"/>
<path d="M83.7369 62.3327C83.7369 62.3327 80.0564 57.4742 77.1005 56.8706C73.531 56.149 73.0592 59.9896 69.8166 59.934C66.5741 59.8785 63.1625 59.1671 60.6651 62.2961C57.9391 65.7241 59.9679 67.124 60.7319 71.0348C63.8772 86.8822 62.1523 92.0338 59.4593 84.8827C59.1706 84.1189 56.7571 84.0244 55.5625 80.7227C53.9998 76.4183 52.459 71.0926 52.6415 67.7023C52.7979 64.8502 53.8339 62.6382 56.0436 59.9263C59.4996 55.6586 65.3369 54.0916 69.4239 53.4736C73.5109 52.8556 82.3611 55.4163 83.7369 62.3327Z" fill="#263238"/>
<path d="M59.9775 84.4704C59.8875 84.151 59.7327 83.8535 59.5226 83.5966C59.3126 83.3397 59.0519 83.1288 58.7567 82.9771C58.4616 82.8254 58.1383 82.7362 57.8071 82.715C57.476 82.6938 57.144 82.7411 56.8319 82.8539C55.2537 83.4247 53.6862 84.8054 54.6471 88.1283C56.3558 94.0199 61.9182 91.0877 61.8843 90.9139C61.8503 90.7401 60.7132 86.9349 59.9775 84.4704Z" fill="#FFBF9D"/>
<path d="M59.9727 89.0642C59.9727 89.0642 59.8949 89.1697 59.7396 89.2984C59.5226 89.4755 59.2457 89.5619 58.9665 89.5397C58.2847 89.4925 57.4722 88.6505 57.1359 87.6007C56.973 87.0992 56.9252 86.5675 56.996 86.045C56.998 85.8458 57.0482 85.6499 57.1425 85.4744C57.2368 85.2988 57.3723 85.1487 57.5373 85.037C57.6459 84.9728 57.7734 84.9481 57.8982 84.967C58.023 84.986 58.1374 85.0475 58.222 85.1411C58.3556 85.2791 58.3487 85.4117 58.3818 85.4134C58.415 85.4151 58.4787 85.2796 58.3598 85.0486C58.2865 84.9108 58.1667 84.8034 58.0217 84.7456C57.8237 84.669 57.6036 84.6737 57.4091 84.7586C57.1823 84.8774 56.9896 85.0521 56.8491 85.2661C56.7087 85.4801 56.6251 85.7264 56.6064 85.9817C56.503 86.5655 56.5443 87.1657 56.7264 87.7299C57.1127 88.9094 58.0416 89.8434 58.9604 89.8444C59.1319 89.845 59.3012 89.8067 59.4558 89.7325C59.6103 89.6582 59.746 89.55 59.8527 89.4158C60.002 89.2144 59.9995 89.0754 59.9727 89.0642Z" fill="#FF9A6C"/>
<path d="M83.7449 55.5716C82.6847 55.0569 81.3942 55.2106 80.3403 54.6865C75.6458 52.3498 67.8978 47.6532 62.8911 51.8783C60.9858 53.4861 58.3076 54.1153 56.6664 55.8502C56.1973 56.3973 55.848 57.0366 55.641 57.7269C55.434 58.4172 55.3739 59.1431 55.4645 59.8581C55.4645 59.8581 54.7786 59.664 53.1757 61.5356C52.1537 62.7277 51.569 64.9827 51.4136 66.5387C51.1885 68.8711 52.5983 71.0071 53.9475 72.9171C54.6739 73.9481 55.5483 75.065 56.8042 75.238C58.3283 75.4405 59.6893 74.0099 59.9755 72.494C60.2617 70.9781 60.8703 69.391 61.2858 67.9073C62.0078 65.3055 62.77 62.9092 61.5049 61.598C64.5063 59.9311 66.994 61.3776 70.0387 61.8255C71.3193 62.0138 76.3097 61.8709 77.5802 61.2919C77.9908 61.1048 78.3539 60.8276 78.6426 60.4808C79.358 61.259 80.3405 61.739 81.3941 61.8251C82.4477 61.9111 83.495 61.5969 84.3272 60.9451C85.8966 59.4901 85.64 56.4973 83.7449 55.5716Z" fill="#263238"/>
<path d="M53.0707 71.6204C53.4327 72 53.7556 72.415 54.0345 72.8592C54.346 73.3022 54.7686 73.6553 55.2598 73.883C55.8926 74.065 56.5698 74.0113 57.1661 73.732C57.793 73.4783 58.3556 73.0882 58.8131 72.5901C59.1786 72.1714 59.4963 71.7132 59.7601 71.2239C59.9818 70.7512 60.2415 70.2972 60.5366 69.8665C60.4374 70.3826 60.2578 70.8799 60.0043 71.3403C59.7643 71.8702 59.4523 72.3644 59.0773 72.8091C58.5912 73.3513 57.9855 73.7729 57.3083 74.0405C56.6308 74.3561 55.8576 74.3985 55.1497 74.1588C54.6057 73.9033 54.149 73.4933 53.8367 72.9799C53.5264 72.56 53.2691 72.1033 53.0707 71.6204Z" fill="#B9B8B6"/>
<path d="M54.206 76.2145C54.6211 76.418 55.0634 76.5609 55.5192 76.6387C56.0094 76.6948 56.506 76.6425 56.9739 76.4858C57.5458 76.281 58.0669 75.9554 58.5016 75.5311C59.2845 74.725 59.8956 73.7685 60.2982 72.7195C60.4423 72.2703 60.6326 71.8374 60.866 71.4274C60.816 71.9064 60.6947 72.3752 60.5061 72.8183C60.1703 73.9521 59.5649 74.9878 58.7418 75.8369C58.2694 76.3019 57.6932 76.6478 57.0607 76.8461C56.536 77.0099 55.9792 77.0426 55.4389 76.9415C54.5574 76.7118 54.168 76.2301 54.206 76.2145Z" fill="#B9B8B6"/>
<path d="M76.0241 88.779C75.8866 89.1496 75.8411 89.5153 75.8886 89.866C75.8968 90.0347 75.9744 90.1905 76.1161 90.323C76.2578 90.4554 76.4604 90.5613 76.7099 90.6335C76.9729 90.7306 77.2888 90.7882 77.6353 90.802C77.9819 90.8159 78.3507 90.7858 78.7156 90.7139C79.3738 90.5846 79.9865 90.3393 80.4435 90.0223C80.9005 89.7052 81.1718 89.337 81.2088 88.984L81.2952 88.1842C79.8927 88.2511 76.1355 88.8111 76.0241 88.779Z" fill="#FF9A6C"/>
<path d="M80.4771 89.4336C80.4771 89.4336 80.2858 89.471 79.9727 89.5484C79.5331 89.6566 79.0815 89.7448 78.6335 89.81C77.9866 89.9036 77.3867 89.9106 76.9533 89.8296C76.4354 89.7236 76.159 89.5202 76.1768 89.2583C76.1687 89.1145 76.2583 88.9546 76.4393 88.79L76.2453 88.8577C77.681 88.6476 78.9394 88.4586 79.8273 88.3176C80.307 88.2528 80.7918 88.1699 81.2729 88.0704C80.8129 88.1034 80.3362 88.1583 79.8541 88.2339C78.9622 88.354 77.7173 88.5241 76.2806 88.7289L76.1475 88.7549L76.0964 88.8028C75.8154 89.0589 75.7223 89.3038 75.8281 89.5086C75.9339 89.7134 76.2342 89.8696 76.6936 89.9589C77.1951 90.0442 77.8858 90.0259 78.618 89.9078C79.0934 89.8285 79.567 89.7213 80.0157 89.5915C80.1847 89.5472 80.3421 89.4934 80.4771 89.4336Z" fill="#263238"/>
<path d="M47.291 106.928L49.1624 107.881C49.195 107.897 49.2316 107.904 49.268 107.901C49.3045 107.898 49.3393 107.885 49.3687 107.863C49.398 107.841 49.4208 107.812 49.4344 107.778C49.448 107.744 49.4519 107.707 49.4457 107.671L49.035 105.497L31.6364 84.0061C31.5432 83.8907 31.4281 83.7947 31.2978 83.7238C31.1674 83.6528 31.0243 83.6082 30.8768 83.5926C30.7292 83.577 30.58 83.5906 30.4376 83.6327C30.2953 83.6747 30.1627 83.7444 30.0473 83.8378C29.9319 83.931 29.8359 84.0461 29.765 84.1765C29.694 84.3068 29.6495 84.4499 29.6338 84.5975C29.6182 84.745 29.6318 84.8943 29.6739 85.0366C29.7159 85.1789 29.7856 85.3115 29.879 85.4269L47.291 106.928Z" fill="#263238"/>
<path d="M29.6574 86.2353L29.6886 86.2097C29.837 86.0885 30.0555 86.1105 30.1768 86.2589L34.6892 91.7814C34.8104 91.9298 34.7884 92.1483 34.64 92.2695L34.6088 92.2951C34.4604 92.4163 34.2419 92.3943 34.1207 92.2459L29.6083 86.7234C29.487 86.575 29.509 86.3565 29.6574 86.2353Z" fill="#263238"/>
<path d="M114.462 94.4258C114.462 94.4258 107.784 95.9878 102.5 96.5001C95.6565 98.5621 91.5001 100 91.5001 100H85.6246V105.801L79.574 115.526L73.4387 113.138L68.4813 111.396L66.061 107.765L50.0713 116.143L69.3445 155.827H137.293L126.523 130.758L114.462 94.4258Z" fill="#FFD000"/>
<path d="M161.205 146.718C161.08 146.226 161.608 138.002 157.453 135.791C153.298 133.581 129.382 101.561 126.071 98.7533C117.628 91.5935 107.943 95.4901 107.943 95.4901C107.943 95.4901 115.006 112.617 116.725 116.99C118.443 121.362 129.072 135.948 128.882 135.61C127.547 133.189 138.829 150.167 138.829 150.167L161.205 146.718Z" fill="#FFD000"/>
<path d="M118.822 110.443C118.843 110.541 118.872 110.637 118.911 110.73L119.205 111.536C119.48 112.255 119.859 113.259 120.327 114.489C121.303 116.998 122.634 120.427 124.102 124.21C125.571 127.994 126.95 131.411 127.938 133.912C128.431 135.122 128.834 136.126 129.124 136.84L129.455 137.647C129.487 137.742 129.531 137.833 129.584 137.917C129.564 137.819 129.535 137.723 129.495 137.631C129.419 137.429 129.322 137.159 129.197 136.824C128.927 136.106 128.544 135.102 128.076 133.867L124.3 124.13L120.468 114.449C119.972 113.239 119.568 112.23 119.282 111.516C119.145 111.19 119.032 110.927 118.951 110.71C118.915 110.618 118.872 110.529 118.822 110.443Z" fill="#263238"/>
<path d="M82.3169 114.398C82.3884 114.329 82.4544 114.255 82.5145 114.176L83.0349 113.506L84.9831 111.017L86.3304 109.291C86.4264 109.129 86.572 109.002 86.7456 108.93C86.9193 108.857 87.1118 108.842 87.2945 108.888C87.6556 109.1 87.9776 109.373 88.2464 109.694L92.3568 113.849L92.5383 114.035V113.776C92.5383 113.353 92.5383 112.901 92.5383 112.449C92.4626 108.625 92.1933 104.807 91.7316 101.01C91.5541 99.5535 91.3806 98.3757 91.2516 97.5689C91.187 97.179 91.1346 96.8684 91.0943 96.6372C91.0804 96.5279 91.0574 96.4199 91.0257 96.3145C91.0234 96.4241 91.0328 96.5336 91.0539 96.6412C91.0822 96.8751 91.1225 97.1857 91.1709 97.577C91.2758 98.3838 91.425 99.5697 91.5743 101.026C91.9091 103.962 92.2358 107.996 92.3124 112.466C92.3124 112.917 92.3124 113.369 92.3124 113.789L92.494 113.716L88.3675 109.577C88.2101 109.416 88.0528 109.263 87.8955 109.109C87.7416 108.938 87.5533 108.8 87.3429 108.706C87.2338 108.665 87.1171 108.648 87.0008 108.656C86.8845 108.665 86.7714 108.698 86.6693 108.754C86.4857 108.858 86.323 108.995 86.1892 109.158C85.6971 109.787 85.2655 110.368 84.8581 110.909L82.9623 113.438L82.458 114.127C82.4019 114.212 82.3546 114.303 82.3169 114.398Z" fill="#263238"/>
<path d="M63.8506 109.148C63.8684 109.231 63.8927 109.312 63.9232 109.39C63.9756 109.544 64.0523 109.774 64.1652 110.06C64.4843 110.885 64.8451 111.692 65.2463 112.48C66.5776 115.085 68.3044 117.467 70.3651 119.543L70.5022 119.676L70.5426 119.495C70.5748 119.362 70.6071 119.217 70.6394 119.092C71.0406 117.3 71.2435 115.47 71.2444 113.634L71.1194 113.727L76.1091 115.381L77.529 115.832L77.9082 115.945C77.9969 115.969 78.0413 115.982 78.0413 115.974C78.004 115.949 77.9632 115.93 77.9203 115.917L77.5491 115.776L76.1454 115.272L71.1799 113.545L71.0548 113.501V113.634C71.0402 115.454 70.832 117.267 70.4336 119.043L70.3409 119.447L70.5143 119.398C68.468 117.335 66.7365 114.983 65.3753 112.416C64.855 111.436 64.4839 110.617 64.2419 110.048L63.9595 109.39C63.9325 109.306 63.896 109.225 63.8506 109.148Z" fill="#263238"/>
<path d="M99.666 155.847C99.7185 155.819 95.3943 146.852 90.0093 135.816C84.6242 124.779 80.2194 115.853 80.167 115.881C80.1145 115.909 84.4387 124.872 89.8237 135.908C95.2087 146.945 99.6136 155.871 99.666 155.847Z" fill="#263238"/>
<path d="M105.846 142.508C105.692 142.509 105.538 142.531 105.39 142.572C105.099 142.629 104.684 142.722 104.18 142.847C103.155 143.101 101.76 143.5 100.239 144.057C98.7181 144.613 97.3829 145.17 96.431 145.622C95.955 145.848 95.5718 146.025 95.3136 146.179C95.1695 146.24 95.0339 146.32 94.9103 146.417C95.0594 146.378 95.2041 146.324 95.3419 146.255L96.4834 145.759C97.4475 145.356 98.7907 144.791 100.299 144.254C101.808 143.718 103.2 143.294 104.212 143.008L105.422 142.669C105.568 142.63 105.71 142.576 105.846 142.508Z" fill="#263238"/>
<path d="M107.31 148.292C107.171 148.238 107.026 148.199 106.878 148.175C106.6 148.111 106.192 148.034 105.668 147.949C104.348 147.729 103.018 147.578 101.683 147.497C100.346 147.415 99.0069 147.402 97.6692 147.457C97.1529 147.477 96.7414 147.505 96.4591 147.534C96.3093 147.539 96.1605 147.561 96.0154 147.598C96.164 147.618 96.3145 147.618 96.4631 147.598H97.6732C98.6978 147.598 100.114 147.598 101.671 147.703C103.228 147.808 104.635 147.957 105.652 148.106L106.862 148.268C107.009 148.298 107.16 148.306 107.31 148.292Z" fill="#263238"/>
<g opacity="0.3">
<path d="M91.8284 113.168L91.0942 115.467C91.0942 115.467 87.8309 111.171 86.8144 111.627C85.7979 112.082 82.8533 113.696 82.8533 113.696C82.8533 113.696 86.399 108.928 86.7459 108.856C87.0928 108.783 87.4558 108.779 88.1778 109.505L91.8284 113.168Z" fill="black"/>
</g>
<g opacity="0.3">
<path d="M70.361 119.145C70.8379 117.327 71.0739 115.454 71.0629 113.574C72.8135 114.179 76.3955 115.24 78.0413 115.946C76.6254 115.761 74.6771 115.684 73.2573 115.498C73.1629 115.465 73.0614 115.456 72.9629 115.475C72.8644 115.493 72.7724 115.536 72.6962 115.602C72.6201 115.667 72.5625 115.751 72.5293 115.845C72.496 115.94 72.4883 116.041 72.507 116.14C72.3101 117.871 72.2279 119.613 72.2609 121.355C71.3279 120.966 70.4869 120.385 69.7921 119.651C69.0973 118.917 68.5642 118.045 68.2272 117.092L70.361 119.145Z" fill="black"/>
</g>
<g opacity="0.3">
<path d="M143.577 136.054C145.941 135.022 148.668 135.171 151.185 135.74C146.768 136.095 142.633 138.515 139.628 142.113C139.338 139.552 141.213 137.091 143.577 136.054Z" fill="black"/>
</g>
<path d="M47.2719 117.584C47.2719 117.584 42.7137 119.169 37.248 132.021C34.2187 139.152 30.1204 146.369 32.9521 152.673C34.2792 155.618 54.4035 156.707 54.4035 156.707C54.4035 156.707 57.4812 153.827 57.5861 151.504C57.691 149.18 57.5861 146.966 57.5861 146.966L63.5439 143.698L53.5887 121.396L47.2719 117.584Z" fill="#FFD000"/>
<path d="M36.9455 138.776L46.5538 111.057L57.7595 115.466L52.2736 144.702C52.2736 144.702 44.8516 147.167 40.9106 144.888C36.9697 142.609 36.9455 138.776 36.9455 138.776Z" fill="#FFBF9D"/>
<path d="M57.7596 115.465C57.6789 115.276 59.4417 107.575 57.5579 105.139C55.6742 102.702 48.8612 95.5749 48.8612 95.5749C48.8612 95.5749 49.8535 91.8114 46.6184 91.7711C46.6184 91.7711 45.8561 88.7014 43.4156 89.5646C43.4156 89.5646 42.3185 88.7579 40.826 90.0648C39.3335 91.3717 33.9081 95.8855 33.6379 97.6885C33.512 98.8719 33.7969 100.062 34.4446 101.061C34.4446 101.061 39.1399 104.461 41.0882 105.792C42.617 106.841 46.332 108.749 46.1868 112.351L57.7596 115.465Z" fill="#FFBF9D"/>
<path d="M42.7461 97.2166C42.7461 97.2166 42.6613 97.1481 42.5484 97.0029C42.388 96.8021 42.2986 96.5539 42.2943 96.297C42.3083 95.9122 42.4503 95.5432 42.6977 95.2482C43.0065 94.8733 43.3422 94.5215 43.702 94.1954C44.3424 93.5811 45.0157 93.0021 45.7189 92.4609C46.0238 92.2525 46.3161 92.0262 46.5942 91.7832C46.249 91.924 45.9247 92.1112 45.6302 92.3399C44.8934 92.8509 44.1987 93.4201 43.5528 94.0421C43.1856 94.3776 42.8457 94.7418 42.5363 95.1312C42.2693 95.462 42.1266 95.8759 42.1329 96.301C42.142 96.588 42.2553 96.8619 42.4516 97.0714C42.6331 97.2005 42.742 97.2247 42.7461 97.2166Z" fill="#FF9A6C"/>
<path d="M37.7039 95.5505C37.9967 95.2672 38.2665 94.961 38.5106 94.6349C38.9906 94.058 39.6562 93.2715 40.4428 92.4405C41.2294 91.6096 41.9796 90.9037 42.5323 90.3994C42.8464 90.1412 43.1428 89.8623 43.4197 89.5645C43.0677 89.7708 42.7379 90.0127 42.4354 90.2865C41.6796 90.9143 40.9629 91.5878 40.2895 92.3034C39.6163 93.0165 38.9834 93.7666 38.3936 94.5501C38.1324 94.8609 37.9015 95.1959 37.7039 95.5505Z" fill="#FF9A6C"/>
<path d="M38.45 99.5254C38.2809 99.2428 38.1313 98.949 38.0022 98.6461C37.9341 98.3241 37.887 97.998 37.861 97.6699C37.7703 97.8267 37.7179 98.0027 37.7081 98.1835C37.6983 98.3644 37.7313 98.545 37.8046 98.7106C37.9861 99.2713 38.4217 99.5577 38.45 99.5254Z" fill="#FF9A6C"/>
<path d="M60.5913 125.134L58.9778 132.98C59.3207 134.307 55.7952 154.56 54.4278 156.996C53.0603 159.433 49.7688 160.869 44.0853 160.982C38.4017 161.095 34.4527 156.379 33.0893 153.06C31.7259 149.74 35.1062 142.495 36.5987 136.63C38.0912 130.765 40.584 121.883 40.584 121.883L60.5913 125.134Z" fill="#FFD000"/>
<path d="M60.5913 125.134L60.2485 125.07L59.2118 124.892L55.2264 124.227L40.5921 121.807H40.5235L40.5033 121.879C39.265 126.433 37.8411 131.685 36.2881 137.425C35.5015 140.285 34.4164 143.189 33.5411 146.267C33.4281 146.671 33.3233 147.042 33.2305 147.433C33.1377 147.824 33.0449 148.22 32.9643 148.619C32.8836 149.018 32.8271 149.426 32.7585 149.829C32.7303 150.035 32.7222 150.232 32.7021 150.446C32.6785 150.652 32.6691 150.86 32.6738 151.067C32.6329 151.912 32.802 152.753 33.166 153.516C33.5197 154.28 33.9423 155.01 34.4285 155.698C35.8548 157.785 37.8536 159.416 40.1847 160.393C41.3205 160.847 42.5314 161.084 43.7545 161.091C44.9403 161.096 46.125 161.019 47.3002 160.861C48.4472 160.714 49.5751 160.443 50.6643 160.055C51.7343 159.681 52.715 159.089 53.5444 158.316C53.9361 157.923 54.2714 157.478 54.5407 156.993C54.7626 156.5 54.9447 155.99 55.0853 155.468C55.3797 154.448 55.6177 153.431 55.8476 152.439C56.7391 148.458 57.4006 144.775 57.9573 141.507C58.2262 139.87 58.4642 138.34 58.6713 136.917C58.7681 136.207 58.8568 135.521 58.9334 134.868C58.9657 134.541 58.998 134.222 59.0222 133.908C59.0545 133.598 59.0545 133.286 59.0222 132.976V133.004L60.196 127.172C60.3251 126.51 60.4259 126.006 60.4945 125.659C60.5268 125.493 60.551 125.368 60.5671 125.276C60.5832 125.183 60.5873 125.151 60.5873 125.151L60.555 125.284L60.4703 125.687C60.3937 126.034 60.2848 126.542 60.1436 127.204C59.8612 128.535 59.4498 130.487 58.9334 132.996V133.004C58.9635 133.302 58.9635 133.602 58.9334 133.9C58.9092 134.21 58.8729 134.529 58.8366 134.856C58.76 135.509 58.6672 136.187 58.5664 136.897C58.3607 138.317 58.1146 139.85 57.8322 141.479C57.2675 144.746 56.5939 148.425 55.6944 152.398C55.4644 153.391 55.2224 154.415 54.928 155.416C54.7905 155.925 54.6124 156.423 54.3955 156.904C54.1339 157.371 53.8095 157.8 53.4314 158.179C52.6198 158.934 51.6575 159.509 50.6078 159.865C49.5326 160.254 48.4181 160.525 47.284 160.672C44.9969 160.934 42.5323 161.16 40.2694 160.212C37.9828 159.244 36.0226 157.639 34.6221 155.589C34.1414 154.912 33.7241 154.193 33.3757 153.439C33.0242 152.704 32.8606 151.893 32.8997 151.079C32.8964 150.877 32.9072 150.675 32.932 150.474C32.932 150.273 32.9562 150.071 32.9885 149.869C33.053 149.466 33.0974 149.063 33.1861 148.659C33.2749 148.256 33.3515 147.873 33.4523 147.485C33.5532 147.098 33.65 146.707 33.7589 146.324C34.6302 143.258 35.7153 140.35 36.4978 137.474C38.0387 131.738 39.4545 126.482 40.6768 121.92L40.588 121.98L55.1619 124.291L59.1956 124.921L60.2485 125.082L60.5913 125.134Z" fill="#263238"/>
<path d="M58.9738 132.98C58.9948 133.063 59.026 133.143 59.0665 133.218C59.1432 133.392 59.244 133.622 59.3651 133.892C59.6393 134.497 60.0226 135.328 60.4864 136.349C61.4344 138.426 62.705 141.31 64.0966 144.501C65.4883 147.691 66.7831 150.572 67.7633 152.633C68.2554 153.665 68.6588 154.496 68.9452 155.053C69.0864 155.319 69.1953 155.537 69.284 155.707C69.3167 155.786 69.3602 155.861 69.4131 155.928C69.3904 155.846 69.3593 155.766 69.3203 155.69L69.0218 155.017C68.7435 154.412 68.3643 153.581 67.9004 152.56C66.9525 150.483 65.6819 147.599 64.2701 144.404C62.8583 141.209 61.5836 138.353 60.6034 136.276C60.1113 135.243 59.7079 134.412 59.4175 133.856L59.0827 133.202C59.0563 133.124 59.0197 133.049 58.9738 132.98Z" fill="#263238"/>
<g opacity="0.3">
<path d="M57.5418 142.967C58.3485 137.57 59.1754 131.995 60.2403 126.832C60.8534 136.469 58.9374 146.17 55.1659 155.068L57.5418 142.967Z" fill="black"/>
</g>
<path d="M46.6494 156.23L46.5687 156.517L46 158.57L46.6494 176.189L47.4924 174.564" fill="#EBEBEB"/>
<path d="M93.7432 174.801L93.2107 176.487L46.6493 176.188L47.2221 174.801" fill="#EBEBEB"/>
<path d="M86.91 156.023L93.7432 174.8H47.2221L46.6493 156.229L86.91 156.023Z" fill="white"/>
<path d="M86.91 156.024H86.7245H83.9573H75.6599L46.6493 156.129H46.5485V156.226C46.7219 161.962 46.9155 168.242 47.1132 174.781V174.882H51.042L93.7351 174.854H93.844L93.8077 174.753L88.7655 161.01C88.1685 159.396 87.7087 158.142 87.39 157.287C87.2327 156.863 87.1117 156.545 87.031 156.323C86.9503 156.101 86.9019 156 86.9019 156C86.9019 156 86.9382 156.117 87.0149 156.339C87.0915 156.561 87.2125 156.891 87.3618 157.319L88.7091 161.07C89.8788 164.322 91.573 169.013 93.6625 174.805L93.7351 174.7L51.042 174.672H47.214L47.3189 174.777C47.1132 168.222 46.9155 161.938 46.7381 156.202L46.6412 156.303L75.6035 156.113L83.917 156.04L86.1315 156.016H86.7043L86.91 156.024Z" fill="#263238"/>
<path d="M49.4569 176.395C49.8784 176.395 50.2826 176.228 50.5807 175.93C50.8787 175.632 51.0461 175.228 51.0461 174.806C51.0461 174.753 51.0249 174.701 50.9871 174.663C50.9492 174.626 50.8979 174.604 50.8445 174.604C50.7913 174.605 50.7406 174.627 50.703 174.665C50.6654 174.702 50.6438 174.753 50.6428 174.806C50.6428 175.041 50.5732 175.27 50.4429 175.465C50.3126 175.66 50.1274 175.812 49.9107 175.902C49.694 175.991 49.4555 176.015 49.2255 175.969C48.9954 175.923 48.7841 175.811 48.6183 175.645C48.4524 175.479 48.3395 175.268 48.2937 175.037C48.248 174.807 48.2714 174.569 48.3612 174.352C48.451 174.136 48.603 173.95 48.798 173.82C48.993 173.69 49.2223 173.62 49.4569 173.62C49.5103 173.62 49.5616 173.599 49.5995 173.561C49.6373 173.523 49.6585 173.472 49.6585 173.418C49.6585 173.365 49.6373 173.314 49.5995 173.276C49.5616 173.238 49.5103 173.217 49.4569 173.217C49.0353 173.217 48.6311 173.384 48.3331 173.682C48.035 173.98 47.8676 174.385 47.8676 174.806C47.8676 175.228 48.035 175.632 48.3331 175.93C48.6311 176.228 49.0353 176.395 49.4569 176.395Z" fill="#263238"/>
<path d="M52.0706 176.395C52.4921 176.395 52.8964 176.228 53.1944 175.93C53.4925 175.632 53.6599 175.228 53.6599 174.806C53.6599 174.753 53.6387 174.701 53.6008 174.663C53.563 174.626 53.5117 174.604 53.4582 174.604C53.4047 174.604 53.3534 174.626 53.3156 174.663C53.2778 174.701 53.2565 174.753 53.2565 174.806C53.2565 175.041 53.187 175.27 53.0567 175.465C52.9264 175.66 52.7412 175.812 52.5245 175.902C52.3078 175.991 52.0693 176.015 51.8393 175.969C51.6092 175.923 51.3979 175.811 51.232 175.645C51.0662 175.479 50.9532 175.268 50.9075 175.037C50.8617 174.807 50.8852 174.569 50.975 174.352C51.0647 174.136 51.2167 173.95 51.4118 173.82C51.6068 173.69 51.8361 173.62 52.0706 173.62C52.1241 173.62 52.1754 173.599 52.2132 173.561C52.2511 173.523 52.2723 173.472 52.2723 173.418C52.2723 173.365 52.2511 173.314 52.2132 173.276C52.1754 173.238 52.1241 173.217 52.0706 173.217C51.8619 173.217 51.6552 173.258 51.4624 173.338C51.2696 173.418 51.0944 173.535 50.9468 173.682C50.7992 173.83 50.6822 174.005 50.6023 174.198C50.5224 174.391 50.4813 174.597 50.4813 174.806C50.4813 175.015 50.5224 175.221 50.6023 175.414C50.6822 175.607 50.7992 175.782 50.9468 175.93C51.0944 176.077 51.2696 176.195 51.4624 176.274C51.6552 176.354 51.8619 176.395 52.0706 176.395Z" fill="#263238"/>
<path d="M54.6846 176.395C55.1061 176.395 55.5104 176.228 55.8084 175.93C56.1065 175.632 56.2739 175.228 56.2739 174.806C56.2729 174.753 56.2513 174.702 56.2137 174.665C56.1761 174.627 56.1254 174.605 56.0722 174.604C56.0187 174.604 55.9674 174.626 55.9296 174.663C55.8918 174.701 55.8706 174.753 55.8706 174.806C55.8706 175.041 55.801 175.27 55.6707 175.465C55.5404 175.66 55.3552 175.812 55.1385 175.902C54.9218 175.991 54.6833 176.015 54.4533 175.969C54.2232 175.923 54.0119 175.811 53.8461 175.645C53.6802 175.479 53.5673 175.268 53.5215 175.037C53.4757 174.807 53.4992 174.569 53.589 174.352C53.6787 174.136 53.8307 173.95 54.0258 173.82C54.2208 173.69 54.4501 173.62 54.6846 173.62C54.7381 173.62 54.7894 173.599 54.8273 173.561C54.8651 173.523 54.8863 173.472 54.8863 173.418C54.8853 173.365 54.8637 173.315 54.8261 173.277C54.7885 173.239 54.7378 173.218 54.6846 173.217C54.4759 173.217 54.2693 173.258 54.0764 173.338C53.8836 173.418 53.7084 173.535 53.5608 173.682C53.4133 173.83 53.2962 174.005 53.2163 174.198C53.1364 174.391 53.0953 174.597 53.0953 174.806C53.0953 175.015 53.1364 175.221 53.2163 175.414C53.2962 175.607 53.4133 175.782 53.5608 175.93C53.7084 176.077 53.8836 176.195 54.0764 176.274C54.2693 176.354 54.4759 176.395 54.6846 176.395Z" fill="#263238"/>
<path d="M57.2944 176.395C57.5034 176.396 57.7105 176.355 57.9038 176.276C58.0971 176.196 58.2728 176.079 58.4208 175.931C58.5688 175.784 58.6862 175.608 58.7663 175.415C58.8465 175.222 58.8877 175.015 58.8877 174.806C58.8867 174.753 58.8651 174.702 58.8275 174.665C58.7899 174.627 58.7392 174.605 58.686 174.604C58.6325 174.604 58.5812 174.626 58.5434 174.663C58.5056 174.701 58.4843 174.753 58.4843 174.806C58.4851 175.042 58.416 175.272 58.2857 175.468C58.1555 175.665 57.9699 175.818 57.7525 175.908C57.5352 175.999 57.2958 176.023 57.0647 175.978C56.8336 175.932 56.6212 175.819 56.4544 175.653C56.2876 175.487 56.1738 175.275 56.1276 175.044C56.0813 174.813 56.1047 174.573 56.1946 174.356C56.2846 174.138 56.4371 173.952 56.6329 173.821C56.8286 173.69 57.0589 173.62 57.2944 173.62C57.3479 173.62 57.3992 173.599 57.437 173.561C57.4748 173.523 57.4961 173.472 57.4961 173.418C57.4961 173.365 57.4748 173.314 57.437 173.276C57.3992 173.238 57.3479 173.217 57.2944 173.217C57.0857 173.217 56.879 173.258 56.6862 173.338C56.4934 173.418 56.3182 173.535 56.1706 173.682C56.023 173.83 55.9059 174.005 55.8261 174.198C55.7462 174.391 55.7051 174.597 55.7051 174.806C55.7051 175.015 55.7462 175.221 55.8261 175.414C55.9059 175.607 56.023 175.782 56.1706 175.93C56.3182 176.077 56.4934 176.195 56.6862 176.274C56.879 176.354 57.0857 176.395 57.2944 176.395Z" fill="#263238"/>
<path d="M59.9083 176.395C60.3298 176.395 60.734 176.228 61.0321 175.93C61.3301 175.632 61.4976 175.228 61.4976 174.806C61.4976 174.753 61.4763 174.701 61.4385 174.663C61.4007 174.626 61.3494 174.604 61.2959 174.604C61.2427 174.605 61.192 174.627 61.1544 174.665C61.1168 174.702 61.0952 174.753 61.0942 174.806C61.0942 175.041 61.0246 175.27 60.8943 175.465C60.764 175.66 60.5788 175.812 60.3621 175.902C60.1454 175.991 59.907 176.015 59.6769 175.969C59.4469 175.923 59.2356 175.811 59.0697 175.645C58.9038 175.479 58.7909 175.268 58.7451 175.037C58.6994 174.807 58.7229 174.569 58.8126 174.352C58.9024 174.136 59.0544 173.95 59.2494 173.82C59.4444 173.69 59.6737 173.62 59.9083 173.62C59.9618 173.62 60.0131 173.599 60.0509 173.561C60.0887 173.523 60.11 173.472 60.11 173.418C60.11 173.365 60.0887 173.314 60.0509 173.276C60.0131 173.238 59.9618 173.217 59.9083 173.217C59.6996 173.217 59.4929 173.258 59.3001 173.338C59.1073 173.418 58.932 173.535 58.7845 173.682C58.6369 173.83 58.5198 174.005 58.44 174.198C58.3601 174.391 58.319 174.597 58.319 174.806C58.319 175.015 58.3601 175.221 58.44 175.414C58.5198 175.607 58.6369 175.782 58.7845 175.93C58.932 176.077 59.1073 176.195 59.3001 176.274C59.4929 176.354 59.6996 176.395 59.9083 176.395Z" fill="#263238"/>
<path d="M62.522 176.395C62.9435 176.395 63.3478 176.228 63.6458 175.93C63.9439 175.632 64.1113 175.228 64.1113 174.806C64.1113 174.753 64.0901 174.701 64.0523 174.663C64.0144 174.626 63.9631 174.604 63.9096 174.604C63.8562 174.604 63.8049 174.626 63.767 174.663C63.7292 174.701 63.708 174.753 63.708 174.806C63.708 175.041 63.6384 175.27 63.5081 175.465C63.3778 175.66 63.1926 175.812 62.9759 175.902C62.7592 175.991 62.5207 176.015 62.2907 175.969C62.0606 175.923 61.8493 175.811 61.6835 175.645C61.5176 175.479 61.4047 175.268 61.3589 175.037C61.3132 174.807 61.3366 174.569 61.4264 174.352C61.5162 174.136 61.6682 173.95 61.8632 173.82C62.0582 173.69 62.2875 173.62 62.522 173.62C62.5755 173.62 62.6268 173.599 62.6647 173.561C62.7025 173.523 62.7237 173.472 62.7237 173.418C62.7237 173.365 62.7025 173.314 62.6647 173.276C62.6268 173.238 62.5755 173.217 62.522 173.217C62.1005 173.217 61.6963 173.384 61.3982 173.682C61.1002 173.98 60.9328 174.385 60.9328 174.806C60.9328 175.228 61.1002 175.632 61.3982 175.93C61.6963 176.228 62.1005 176.395 62.522 176.395Z" fill="#263238"/>
<path d="M65.136 176.395C65.5576 176.395 65.9618 176.228 66.2598 175.93C66.5579 175.632 66.7253 175.228 66.7253 174.806C66.7243 174.753 66.7027 174.702 66.6651 174.665C66.6275 174.627 66.5768 174.605 66.5237 174.604C66.4702 174.604 66.4189 174.626 66.381 174.663C66.3432 174.701 66.322 174.753 66.322 174.806C66.322 175.041 66.2524 175.27 66.1221 175.465C65.9918 175.66 65.8066 175.812 65.5899 175.902C65.3732 175.991 65.1347 176.015 64.9047 175.969C64.6746 175.923 64.4633 175.811 64.2975 175.645C64.1316 175.479 64.0187 175.268 63.9729 175.037C63.9272 174.807 63.9506 174.569 64.0404 174.352C64.1302 174.136 64.2822 173.95 64.4772 173.82C64.6722 173.69 64.9015 173.62 65.136 173.62C65.1895 173.62 65.2408 173.599 65.2787 173.561C65.3165 173.523 65.3377 173.472 65.3377 173.418C65.3367 173.365 65.3151 173.315 65.2775 173.277C65.2399 173.239 65.1892 173.218 65.136 173.217C64.7145 173.217 64.3103 173.384 64.0122 173.682C63.7142 173.98 63.5468 174.385 63.5468 174.806C63.5468 175.228 63.7142 175.632 64.0122 175.93C64.3103 176.228 64.7145 176.395 65.136 176.395Z" fill="#263238"/>
<path d="M67.7379 176.395C67.9467 176.396 68.1536 176.355 68.3467 176.275C68.5397 176.196 68.7152 176.079 68.8628 175.931C69.0105 175.783 69.1276 175.608 69.2073 175.415C69.2869 175.222 69.3277 175.015 69.3271 174.806C69.3271 174.753 69.3059 174.701 69.2681 174.663C69.2302 174.626 69.1789 174.604 69.1255 174.604C69.0723 174.605 69.0216 174.627 68.984 174.665C68.9464 174.702 68.9248 174.753 68.9238 174.806C68.9238 175.041 68.8542 175.27 68.7239 175.465C68.5936 175.66 68.4084 175.812 68.1917 175.902C67.975 175.991 67.7365 176.015 67.5065 175.969C67.2764 175.923 67.0651 175.811 66.8993 175.645C66.7334 175.479 66.6205 175.268 66.5747 175.037C66.529 174.807 66.5524 174.569 66.6422 174.352C66.732 174.136 66.884 173.95 67.079 173.82C67.274 173.69 67.5033 173.62 67.7379 173.62C67.7913 173.62 67.8426 173.599 67.8805 173.561C67.9183 173.523 67.9395 173.472 67.9395 173.418C67.9395 173.365 67.9183 173.314 67.8805 173.276C67.8426 173.238 67.7913 173.217 67.7379 173.217C67.3163 173.217 66.9121 173.384 66.6141 173.682C66.316 173.98 66.1486 174.385 66.1486 174.806C66.1486 175.228 66.316 175.632 66.6141 175.93C66.9121 176.228 67.3163 176.395 67.7379 176.395Z" fill="#263238"/>
<path d="M70.3597 176.395C70.7812 176.395 71.1854 176.228 71.4835 175.93C71.7815 175.632 71.949 175.228 71.949 174.806C71.949 174.753 71.9277 174.701 71.8899 174.663C71.8521 174.626 71.8008 174.604 71.7473 174.604C71.6941 174.605 71.6434 174.627 71.6058 174.665C71.5682 174.702 71.5466 174.753 71.5456 174.806C71.5456 175.041 71.476 175.27 71.3457 175.465C71.2154 175.66 71.0302 175.812 70.8135 175.902C70.5968 175.991 70.3584 176.015 70.1283 175.969C69.8983 175.923 69.687 175.811 69.5211 175.645C69.3553 175.479 69.2423 175.268 69.1965 175.037C69.1508 174.807 69.1743 174.569 69.264 174.352C69.3538 174.136 69.5058 173.95 69.7008 173.82C69.8958 173.69 70.1251 173.62 70.3597 173.62C70.4132 173.62 70.4645 173.599 70.5023 173.561C70.5401 173.523 70.5614 173.472 70.5614 173.418C70.5614 173.365 70.5401 173.314 70.5023 173.276C70.4645 173.238 70.4132 173.217 70.3597 173.217C70.151 173.217 69.9443 173.258 69.7515 173.338C69.5587 173.418 69.3835 173.535 69.2359 173.682C69.0883 173.83 68.9712 174.005 68.8914 174.198C68.8115 174.391 68.7704 174.597 68.7704 174.806C68.7704 175.015 68.8115 175.221 68.8914 175.414C68.9712 175.607 69.0883 175.782 69.2359 175.93C69.3835 176.077 69.5587 176.195 69.7515 176.274C69.9443 176.354 70.151 176.395 70.3597 176.395Z" fill="#263238"/>
<path d="M73.2437 176.395C73.6652 176.395 74.0695 176.228 74.3675 175.93C74.6656 175.632 74.833 175.228 74.833 174.806C74.832 174.753 74.8104 174.702 74.7728 174.665C74.7352 174.627 74.6845 174.605 74.6313 174.604C74.5778 174.604 74.5265 174.626 74.4887 174.663C74.4509 174.701 74.4296 174.753 74.4296 174.806C74.4296 175.041 74.3601 175.27 74.2298 175.465C74.0995 175.66 73.9142 175.812 73.6975 175.902C73.4808 175.991 73.2424 176.015 73.0124 175.969C72.7823 175.923 72.571 175.811 72.4051 175.645C72.2393 175.479 72.1263 175.268 72.0806 175.037C72.0348 174.807 72.0583 174.569 72.1481 174.352C72.2378 174.136 72.3898 173.95 72.5849 173.82C72.7799 173.69 73.0092 173.62 73.2437 173.62C73.2972 173.62 73.3485 173.599 73.3863 173.561C73.4242 173.523 73.4454 173.472 73.4454 173.418C73.4444 173.365 73.4228 173.315 73.3852 173.277C73.3476 173.239 73.2969 173.218 73.2437 173.217C73.035 173.217 72.8283 173.258 72.6355 173.338C72.4427 173.418 72.2675 173.535 72.1199 173.682C71.9723 173.83 71.8553 174.005 71.7754 174.198C71.6955 174.391 71.6544 174.597 71.6544 174.806C71.6544 175.015 71.6955 175.221 71.7754 175.414C71.8553 175.607 71.9723 175.782 72.1199 175.93C72.2675 176.077 72.4427 176.195 72.6355 176.274C72.8283 176.354 73.035 176.395 73.2437 176.395Z" fill="#263238"/>
<path d="M75.8536 176.395C76.0624 176.396 76.2693 176.355 76.4624 176.275C76.6555 176.196 76.8309 176.079 76.9786 175.931C77.1262 175.783 77.2433 175.608 77.323 175.415C77.4027 175.222 77.4434 175.015 77.4429 174.806C77.4429 174.753 77.4216 174.701 77.3838 174.663C77.346 174.626 77.2947 174.604 77.2412 174.604C77.188 174.605 77.1373 174.627 77.0997 174.665C77.0621 174.702 77.0405 174.753 77.0395 174.806C77.0395 175.041 76.9699 175.27 76.8396 175.465C76.7093 175.66 76.5241 175.812 76.3074 175.902C76.0907 175.991 75.8523 176.015 75.6222 175.969C75.3922 175.923 75.1809 175.811 75.015 175.645C74.8492 175.479 74.7362 175.268 74.6904 175.037C74.6447 174.807 74.6682 174.569 74.7579 174.352C74.8477 174.136 74.9997 173.95 75.1947 173.82C75.3897 173.69 75.619 173.62 75.8536 173.62C75.9071 173.62 75.9584 173.599 75.9962 173.561C76.034 173.523 76.0553 173.472 76.0553 173.418C76.0553 173.365 76.034 173.314 75.9962 173.276C75.9584 173.238 75.9071 173.217 75.8536 173.217C75.6449 173.217 75.4382 173.258 75.2454 173.338C75.0526 173.418 74.8774 173.535 74.7298 173.682C74.5822 173.83 74.4651 174.005 74.3853 174.198C74.3054 174.391 74.2643 174.597 74.2643 174.806C74.2643 175.015 74.3054 175.221 74.3853 175.414C74.4651 175.607 74.5822 175.782 74.7298 175.93C74.8774 176.077 75.0526 176.195 75.2454 176.274C75.4382 176.354 75.6449 176.395 75.8536 176.395Z" fill="#263238"/>
<path d="M78.4676 176.395C78.8891 176.395 79.2933 176.228 79.5914 175.93C79.8894 175.632 80.0569 175.228 80.0569 174.806C80.0569 174.753 80.0356 174.701 79.9978 174.663C79.96 174.626 79.9087 174.604 79.8552 174.604C79.802 174.605 79.7513 174.627 79.7137 174.665C79.6761 174.702 79.6545 174.753 79.6535 174.806C79.6535 175.041 79.584 175.27 79.4537 175.465C79.3233 175.66 79.1381 175.812 78.9214 175.902C78.7047 175.991 78.4663 176.015 78.2362 175.969C78.0062 175.923 77.7949 175.811 77.629 175.645C77.4632 175.479 77.3502 175.268 77.3045 175.037C77.2587 174.807 77.2822 174.569 77.3719 174.352C77.4617 174.136 77.6137 173.95 77.8087 173.82C78.0038 173.69 78.233 173.62 78.4676 173.62C78.5211 173.62 78.5724 173.599 78.6102 173.561C78.648 173.523 78.6693 173.472 78.6693 173.418C78.6693 173.365 78.648 173.314 78.6102 173.276C78.5724 173.238 78.5211 173.217 78.4676 173.217C78.2589 173.217 78.0522 173.258 77.8594 173.338C77.6666 173.418 77.4914 173.535 77.3438 173.682C77.1962 173.83 77.0792 174.005 76.9993 174.198C76.9194 174.391 76.8783 174.597 76.8783 174.806C76.8783 175.015 76.9194 175.221 76.9993 175.414C77.0792 175.607 77.1962 175.782 77.3438 175.93C77.4914 176.077 77.6666 176.195 77.8594 176.274C78.0522 176.354 78.2589 176.395 78.4676 176.395Z" fill="#263238"/>
<path d="M81.0814 176.395C81.5029 176.395 81.9071 176.228 82.2052 175.93C82.5032 175.632 82.6707 175.228 82.6707 174.806C82.6707 174.753 82.6494 174.701 82.6116 174.663C82.5738 174.626 82.5225 174.604 82.469 174.604C82.4155 174.604 82.3642 174.626 82.3264 174.663C82.2885 174.701 82.2673 174.753 82.2673 174.806C82.2673 175.041 82.1977 175.27 82.0674 175.465C81.9371 175.66 81.7519 175.812 81.5352 175.902C81.3185 175.991 81.08 176.015 80.85 175.969C80.62 175.923 80.4086 175.811 80.2428 175.645C80.0769 175.479 79.964 175.268 79.9182 175.037C79.8725 174.807 79.896 174.569 79.9857 174.352C80.0755 174.136 80.2275 173.95 80.4225 173.82C80.6175 173.69 80.8468 173.62 81.0814 173.62C81.1349 173.62 81.1861 173.599 81.224 173.561C81.2618 173.523 81.283 173.472 81.283 173.418C81.283 173.365 81.2618 173.314 81.224 173.276C81.1861 173.238 81.1349 173.217 81.0814 173.217C80.8727 173.217 80.666 173.258 80.4732 173.338C80.2803 173.418 80.1051 173.535 79.9576 173.682C79.81 173.83 79.6929 174.005 79.613 174.198C79.5332 174.391 79.4921 174.597 79.4921 174.806C79.4921 175.015 79.5332 175.221 79.613 175.414C79.6929 175.607 79.81 175.782 79.9576 175.93C80.1051 176.077 80.2803 176.195 80.4732 176.274C80.666 176.354 80.8727 176.395 81.0814 176.395Z" fill="#263238"/>
<path d="M83.6951 176.395C84.1166 176.395 84.5209 176.228 84.8189 175.93C85.117 175.632 85.2844 175.228 85.2844 174.806C85.2834 174.753 85.2618 174.702 85.2242 174.665C85.1866 174.627 85.1359 174.605 85.0827 174.604C85.0292 174.604 84.9779 174.626 84.9401 174.663C84.9023 174.701 84.8811 174.753 84.8811 174.806C84.8811 175.041 84.8115 175.27 84.6812 175.465C84.5509 175.66 84.3657 175.812 84.149 175.902C83.9323 175.991 83.6938 176.015 83.4638 175.969C83.2337 175.923 83.0224 175.811 82.8566 175.645C82.6907 175.479 82.5778 175.268 82.532 175.037C82.4862 174.807 82.5097 174.569 82.5995 174.352C82.6892 174.136 82.8412 173.95 83.0363 173.82C83.2313 173.69 83.4606 173.62 83.6951 173.62C83.7486 173.62 83.7999 173.599 83.8377 173.561C83.8756 173.523 83.8968 173.472 83.8968 173.418C83.8958 173.365 83.8742 173.315 83.8366 173.277C83.799 173.239 83.7483 173.218 83.6951 173.217C83.2736 173.217 82.8694 173.384 82.5713 173.682C82.2733 173.98 82.1058 174.385 82.1058 174.806C82.1058 175.228 82.2733 175.632 82.5713 175.93C82.8694 176.228 83.2736 176.395 83.6951 176.395Z" fill="#263238"/>
<path d="M86.293 176.395C86.5019 176.396 86.7088 176.355 86.9019 176.275C87.0949 176.196 87.2703 176.079 87.418 175.931C87.5657 175.783 87.6827 175.608 87.7624 175.415C87.8421 175.222 87.8829 175.015 87.8823 174.806C87.8823 174.753 87.8611 174.701 87.8232 174.663C87.7854 174.626 87.7341 174.604 87.6806 174.604C87.6275 174.605 87.5768 174.627 87.5392 174.665C87.5016 174.702 87.48 174.753 87.4789 174.806C87.4789 175.041 87.4094 175.27 87.2791 175.465C87.1488 175.66 86.9636 175.812 86.7469 175.902C86.5302 175.991 86.2917 176.015 86.0617 175.969C85.8316 175.923 85.6203 175.811 85.4545 175.645C85.2886 175.479 85.1757 175.268 85.1299 175.037C85.0841 174.807 85.1076 174.569 85.1974 174.352C85.2871 174.136 85.4391 173.95 85.6342 173.82C85.8292 173.69 86.0585 173.62 86.293 173.62C86.3465 173.62 86.3978 173.599 86.4356 173.561C86.4735 173.523 86.4947 173.472 86.4947 173.418C86.4947 173.365 86.4735 173.314 86.4356 173.276C86.3978 173.238 86.3465 173.217 86.293 173.217C85.8715 173.217 85.4673 173.384 85.1692 173.682C84.8712 173.98 84.7037 174.385 84.7037 174.806C84.7037 175.228 84.8712 175.632 85.1692 175.93C85.4673 176.228 85.8715 176.395 86.293 176.395Z" fill="#263238"/>
<path d="M88.919 176.395C89.3405 176.395 89.7448 176.228 90.0428 175.93C90.3409 175.632 90.5083 175.228 90.5083 174.806C90.5083 174.753 90.4871 174.701 90.4492 174.663C90.4114 174.626 90.3601 174.604 90.3066 174.604C90.2534 174.605 90.2027 174.627 90.1651 174.665C90.1275 174.702 90.106 174.753 90.1049 174.806C90.1049 175.041 90.0354 175.27 89.9051 175.465C89.7748 175.66 89.5895 175.812 89.3728 175.902C89.1561 175.991 88.9177 176.015 88.6876 175.969C88.4576 175.923 88.2463 175.811 88.0804 175.645C87.9146 175.479 87.8016 175.268 87.7559 175.037C87.7101 174.807 87.7336 174.569 87.8234 174.352C87.9131 174.136 88.0651 173.95 88.2602 173.82C88.4552 173.69 88.6845 173.62 88.919 173.62C88.9725 173.62 89.0238 173.599 89.0616 173.561C89.0994 173.523 89.1207 173.472 89.1207 173.418C89.1207 173.365 89.0994 173.314 89.0616 173.276C89.0238 173.238 88.9725 173.217 88.919 173.217C88.7103 173.217 88.5036 173.258 88.3108 173.338C88.118 173.418 87.9428 173.535 87.7952 173.682C87.6476 173.83 87.5306 174.005 87.4507 174.198C87.3708 174.391 87.3297 174.597 87.3297 174.806C87.3297 175.015 87.3708 175.221 87.4507 175.414C87.5306 175.607 87.6476 175.782 87.7952 175.93C87.9428 176.077 88.118 176.195 88.3108 176.274C88.5036 176.354 88.7103 176.395 88.919 176.395Z" fill="#263238"/>
<path d="M91.5367 176.395C91.9582 176.395 92.3624 176.228 92.6605 175.93C92.9585 175.632 93.126 175.228 93.126 174.806C93.126 174.753 93.1047 174.701 93.0669 174.663C93.0291 174.626 92.9778 174.604 92.9243 174.604C92.8708 174.604 92.8195 174.626 92.7817 174.663C92.7439 174.701 92.7226 174.753 92.7226 174.806C92.7226 175.041 92.653 175.27 92.5227 175.465C92.3924 175.66 92.2072 175.812 91.9905 175.902C91.7738 175.991 91.5354 176.015 91.3053 175.969C91.0753 175.923 90.864 175.811 90.6981 175.645C90.5323 175.479 90.4193 175.268 90.3736 175.037C90.3278 174.807 90.3513 174.569 90.441 174.352C90.5308 174.136 90.6828 173.95 90.8778 173.82C91.0728 173.69 91.3021 173.62 91.5367 173.62C91.5902 173.62 91.6415 173.599 91.6793 173.561C91.7171 173.523 91.7384 173.472 91.7384 173.418C91.7384 173.365 91.7171 173.314 91.6793 173.276C91.6415 173.238 91.5902 173.217 91.5367 173.217C91.328 173.217 91.1213 173.258 90.9285 173.338C90.7357 173.418 90.5605 173.535 90.4129 173.682C90.2653 173.83 90.1482 174.005 90.0684 174.198C89.9885 174.391 89.9474 174.597 89.9474 174.806C89.9474 175.015 89.9885 175.221 90.0684 175.414C90.1482 175.607 90.2653 175.782 90.4129 175.93C90.5605 176.077 90.7357 176.195 90.9285 176.274C91.1213 176.354 91.328 176.395 91.5367 176.395Z" fill="#263238"/>
<path d="M158.522 138.705C158.522 138.705 162.62 139.302 162.903 145.018C163.185 150.734 162.173 151.815 161.951 152.912C161.729 154.009 158.07 159.434 157.409 159.874C156.747 160.314 138.652 159.874 138.652 159.874C138.652 159.874 137.627 154.227 137.406 152.767C137.184 151.306 137.627 147.051 142.024 143.388C146.421 139.726 158.522 138.705 158.522 138.705Z" fill="#FFD000"/>
<path d="M146.336 165.734C146.336 165.734 157.687 159.893 157.687 159.566C157.687 159.239 162.096 148.994 150.673 148.881C150.673 148.881 144.146 148.199 141.189 153.431L136.861 157.985L146.336 165.734Z" fill="#FFBF9D"/>
<path d="M136.938 154.553C136.938 154.553 138.91 152.847 140.266 153.29C141.621 153.734 142.214 155.965 142.214 155.965C142.214 155.965 145.336 156.114 145.929 157.078C146.358 157.92 146.658 158.822 146.82 159.752C146.82 159.752 149.938 161.314 148.305 164.286C148.305 164.286 149.495 165.92 148.01 167.852C146.526 169.784 141.915 172.088 140.653 172.309C139.39 172.531 136.643 172.309 136.643 172.309C136.643 172.309 131.367 174.02 129.955 173.201L129.584 172.487C129.222 172.217 128.95 171.845 128.802 171.418C128.423 170.264 130.088 169.264 130.088 169.264C130.088 169.264 128.83 168.966 128.761 167.247C128.693 165.529 131.295 161.971 132.852 160.261C134.409 158.55 136.938 154.553 136.938 154.553Z" fill="#FFBF9D"/>
<path d="M129.584 168.743C129.584 168.743 129.584 168.808 129.637 168.909C129.716 169.057 129.844 169.174 130 169.24C130.113 169.288 130.235 169.313 130.359 169.312C130.506 169.319 130.652 169.287 130.782 169.219C131.079 169.051 131.359 168.854 131.617 168.631C132.783 167.675 134.271 166.23 135.877 164.597C136.684 163.79 137.442 163.003 138.087 162.237C138.733 161.471 139.257 160.757 139.701 160.152C140.592 158.942 141.092 158.135 141.028 158.135C140.963 158.135 141.004 158.183 140.935 158.276L140.657 158.679C140.407 159.014 140.044 159.486 139.584 160.091C139.124 160.696 138.575 161.386 137.938 162.14C137.301 162.895 136.522 163.657 135.728 164.48C134.114 166.093 132.654 167.566 131.524 168.542C131.273 168.765 131.003 168.966 130.718 169.143C130.603 169.208 130.474 169.241 130.343 169.24C130.233 169.245 130.124 169.23 130.02 169.195C129.873 169.142 129.747 169.043 129.661 168.913C129.612 168.796 129.592 168.739 129.584 168.743Z" fill="#FF9A6C"/>
<path d="M129.955 173.092C130.02 173.083 130.082 173.064 130.141 173.035L130.657 172.826C131.105 172.64 131.754 172.366 132.545 172.019C134.624 171.116 136.602 169.997 138.446 168.679C139.451 167.935 140.377 167.09 141.209 166.158C141.882 165.393 142.512 164.592 143.097 163.758C143.597 163.048 143.985 162.459 144.247 162.056L144.545 161.58C144.61 161.471 144.642 161.41 144.634 161.406C144.586 161.451 144.544 161.501 144.509 161.555L144.178 162.007C143.896 162.411 143.492 162.975 142.968 163.669C142.371 164.487 141.732 165.275 141.056 166.029C140.224 166.944 139.306 167.776 138.313 168.514C136.478 169.82 134.522 170.948 132.472 171.882L130.617 172.761L130.117 173.003C130.059 173.025 130.005 173.055 129.955 173.092Z" fill="#FF9A6C"/>
<path d="M136.643 172.309C136.804 172.297 136.962 172.266 137.115 172.216C137.54 172.103 137.959 171.969 138.37 171.813C139.744 171.333 141.023 170.615 142.149 169.691C142.468 169.423 142.764 169.131 143.037 168.816C143.295 168.517 143.557 168.239 143.815 167.981C144.327 167.461 144.807 167.013 145.215 166.642L146.187 165.766C146.312 165.664 146.428 165.553 146.534 165.432C146.39 165.506 146.254 165.597 146.131 165.702C145.885 165.891 145.538 166.17 145.114 166.509C144.691 166.847 144.198 167.315 143.674 167.824C143.412 168.082 143.142 168.36 142.867 168.663C142.597 168.964 142.308 169.247 142 169.51C140.889 170.427 139.639 171.163 138.297 171.688C137.297 172.099 136.631 172.273 136.643 172.309Z" fill="#FF9A6C"/>
<path d="M140.028 153.238C140.385 153.381 140.726 153.562 141.044 153.779C141.395 154.039 141.682 154.376 141.883 154.763C142.135 155.268 142.294 155.815 142.351 156.377V156.465H142.444C143.024 156.409 143.61 156.47 144.166 156.647C144.468 156.739 144.755 156.875 145.017 157.05C145.277 157.244 145.494 157.49 145.655 157.772C146.083 158.379 146.265 159.126 146.163 159.862L146.131 159.999H146.264C146.451 159.987 146.638 160.014 146.815 160.076C146.992 160.138 147.154 160.236 147.292 160.362C147.553 160.604 147.777 160.882 147.958 161.189C148.136 161.452 148.283 161.735 148.398 162.032C148.484 162.292 148.531 162.564 148.539 162.839C148.551 163.227 148.484 163.614 148.341 163.976C148.236 164.23 148.156 164.359 148.168 164.379C148.18 164.4 148.2 164.351 148.24 164.295C148.302 164.207 148.356 164.114 148.402 164.016C148.576 163.651 148.666 163.251 148.664 162.847C148.665 162.561 148.623 162.277 148.539 162.004C148.431 161.692 148.284 161.396 148.103 161.12C147.922 160.792 147.69 160.494 147.417 160.237C147.099 159.954 146.681 159.809 146.256 159.833L146.356 159.958C146.482 159.169 146.294 158.361 145.832 157.708C145.658 157.4 145.42 157.134 145.134 156.925C144.854 156.746 144.548 156.61 144.227 156.522C143.64 156.344 143.024 156.287 142.416 156.352L142.52 156.433C142.454 155.85 142.279 155.285 142.004 154.767C141.785 154.366 141.474 154.023 141.097 153.767C140.856 153.603 140.594 153.474 140.318 153.383C140.23 153.319 140.132 153.27 140.028 153.238Z" fill="#FF9A6C"/>
<path d="M141.036 144.271C141.218 144.069 141.389 143.858 141.548 143.638C142.011 143.067 142.511 142.528 143.045 142.024C144.805 140.343 146.949 139.117 149.29 138.45C151.631 137.784 154.099 137.698 156.481 138.2C157.202 138.347 157.913 138.544 158.607 138.789C158.857 138.893 159.113 138.982 159.373 139.055C159.316 139.015 159.253 138.983 159.188 138.959C159.063 138.902 158.881 138.805 158.635 138.713C157.947 138.435 157.238 138.215 156.513 138.055C154.109 137.506 151.605 137.573 149.233 138.248C146.862 138.924 144.698 140.186 142.944 141.919C142.412 142.437 141.923 142.999 141.484 143.597C141.326 143.803 141.221 143.981 141.141 144.094C141.1 144.149 141.065 144.209 141.036 144.271Z" fill="#263238"/>
<path d="M139.314 142.637C139.342 142.662 139.717 142.141 140.443 141.379C141.369 140.383 142.393 139.485 143.501 138.697C144.613 137.916 145.801 137.25 147.046 136.708C148.006 136.305 148.623 136.099 148.615 136.062C148.462 136.078 148.312 136.113 148.168 136.167C147.768 136.281 147.375 136.416 146.99 136.571C144.42 137.584 142.131 139.198 140.314 141.278C140.039 141.59 139.781 141.916 139.54 142.254C139.449 142.373 139.373 142.501 139.314 142.637Z" fill="#263238"/>
<path d="M113.473 164.212C113.381 162.946 113.381 161.674 113.473 160.408C113.565 160.22 115.885 159.512 115.885 159.512L118.115 159.673L120.342 155.023L126.112 155.662L126.95 157.066L130.631 159.012L133.912 164.212L132.704 167.927L130.012 173.216L122.404 174.516L119.742 172.662L116 172.847L112.1 167.343L115.35 165.25L113.473 164.212Z" fill="#FAFAFA"/>
<path d="M113.473 164.212C113.473 164.212 113.508 164.238 113.585 164.285L113.935 164.488L115.311 165.258V165.2L112.05 167.277L112 167.308L112.035 167.354L115.915 172.888L115.938 172.923H115.985L119.731 172.746H119.677L122.335 174.608L122.361 174.627H122.4L130.008 173.335H130.054L130.077 173.292C130.946 171.592 131.854 169.831 132.769 168L133.084 167.031C133.384 166.103 133.682 165.187 133.977 164.285V164.242L133.954 164.2C132.823 162.415 131.727 160.677 130.669 159.004V158.981H130.646L126.965 157.035L127 157.069L126.165 155.669L126.142 155.631H126.096L120.327 155H120.273L120.246 155.054L118.031 159.712L118.096 159.673L115.869 159.519H115.846C115.361 159.669 114.908 159.819 114.481 159.969C114.265 160.046 114.061 160.119 113.861 160.2C113.764 160.238 113.668 160.281 113.573 160.327C113.522 160.351 113.474 160.382 113.431 160.419C113.399 160.468 113.383 160.526 113.385 160.585C113.327 161.377 113.346 162.05 113.35 162.596C113.354 163.142 113.377 163.562 113.396 163.846C113.396 163.988 113.419 164.096 113.427 164.165C113.429 164.202 113.437 164.238 113.45 164.273C113.45 164.273 113.408 163.688 113.411 162.596C113.411 162.05 113.411 161.373 113.473 160.596C113.473 160.546 113.473 160.496 113.504 160.477C113.538 160.45 113.575 160.428 113.615 160.412C113.708 160.365 113.8 160.327 113.9 160.288C114.096 160.212 114.285 160.138 114.515 160.065C114.942 159.923 115.396 159.777 115.881 159.631H115.858L118.088 159.8H118.131L118.15 159.758L120.392 155.115L120.311 155.158L126.081 155.812L126.011 155.765C126.285 156.227 126.565 156.692 126.846 157.169V157.192H126.869L130.573 159.1L130.534 159.065L133.815 164.265V164.181C133.523 165.085 133.223 166 132.923 166.927L132.608 167.892C131.684 169.708 130.777 171.481 129.915 173.185L129.985 173.131L122.381 174.438H122.446L119.785 172.585H119.761H119.731L115.988 172.781L116.054 172.812L112.111 167.308V167.388L115.35 165.277L115.396 165.246L115.346 165.219L113.961 164.45L113.6 164.258L113.473 164.212Z" fill="#263238"/>
<path d="M115.331 165.251L125.654 163.539L112.081 167.343L115.331 165.251Z" fill="#E0E0E0"/>
<path d="M122.154 165.281L117.315 168.42L119.723 172.65H119.531C119.531 172.65 114.881 168.143 114.842 168.035C114.804 167.927 122.154 165.281 122.154 165.281Z" fill="#E0E0E0"/>
<path d="M130.615 159.012C130.715 159.592 133.896 164.212 133.896 164.212L130.723 162.289L128.458 164.596C128.458 164.481 128.039 161.519 128.154 161.419L130.615 159.012Z" fill="#E0E0E0"/>
<path d="M126.935 157.066L122.154 162.327L116.458 161.304L120.869 161.224L126.1 155.662L126.935 157.066Z" fill="#E0E0E0"/>
<path d="M129.835 173.241L128.3 166.068L126.019 170.307L127.927 171.388L129.835 173.241Z" fill="#E0E0E0"/>
<path d="M126.935 157.064C126.792 157.178 126.663 157.307 126.55 157.449L125.519 158.538C124.654 159.468 123.45 160.776 122.088 162.264L122.177 162.234L120.811 161.988L116.481 161.218H116.404L116.385 161.291C116.065 162.445 115.796 163.438 115.615 164.161L115.408 164.968C115.377 165.063 115.359 165.161 115.354 165.261C115.396 165.171 115.431 165.079 115.458 164.984C115.527 164.772 115.608 164.511 115.711 164.191C115.927 163.468 116.215 162.495 116.565 161.338L116.465 161.399L120.792 162.168L122.158 162.414H122.211L122.25 162.376C123.604 160.88 124.788 159.557 125.631 158.603L126.596 157.503C126.721 157.366 126.834 157.22 126.935 157.064Z" fill="#263238"/>
<path d="M119.723 172.661C119.688 172.545 119.638 172.435 119.573 172.334C119.45 172.103 119.292 171.811 119.104 171.453L117.396 168.376L117.365 168.495L120.342 166.572L122.208 165.357H122.142L126.55 165.888L127.835 166.022C127.988 166.047 128.144 166.056 128.3 166.049C128.15 166.005 127.997 165.974 127.842 165.957L126.565 165.765L122.165 165.195H122.112L122.081 165.215L120.215 166.422L117.246 168.345L117.177 168.395L117.219 168.468L118.989 171.511L119.504 172.368C119.568 172.472 119.641 172.57 119.723 172.661Z" fill="#263238"/>
<path d="M79.05 172.776C79.7487 173.838 80.3696 174.948 80.9077 176.099C80.9077 176.307 79.2346 178.057 79.2346 178.057L77.2116 179.003L77.5346 184.149L72.2 186.399L70.7885 185.584L66.6231 185.676L61.2385 182.738L60.4693 178.911L60.2424 172.972L66.2462 168.13L69.4731 168.453L72.6539 166.461L78.7385 169.349L76.9231 172.761L79.05 172.776Z" fill="#FAFAFA"/>
<path d="M79.0501 172.777C79.0053 172.774 78.9603 172.774 78.9155 172.777H78.5309L76.9424 172.758L76.9732 172.808L78.8078 169.408L78.8347 169.354L78.7809 169.331L72.7039 166.408L72.6655 166.389L72.627 166.412L69.4463 168.396H69.5001L66.2732 168.066H66.2347L66.204 168.089C64.3463 169.589 62.3155 171.219 60.1963 172.927L60.1578 172.958V173.008C60.2309 174.931 60.3078 176.908 60.3847 178.946C60.4463 179.262 60.5155 179.6 60.5809 179.943C60.7732 180.896 60.9655 181.843 61.1424 182.773V182.819L61.1809 182.843L66.5847 185.777H66.6078H66.6347L70.7963 185.681H70.7501L72.1616 186.496L72.2001 186.519H72.2424L77.577 184.262L77.627 184.243V184.185C77.5039 182.304 77.3924 180.581 77.2886 179.039L77.2501 179.1L79.2732 178.146C79.6232 177.781 79.9462 177.427 80.2462 177.089C80.3962 176.919 80.5386 176.75 80.6732 176.585C80.7386 176.504 80.8039 176.419 80.8616 176.335C80.8954 176.287 80.9226 176.236 80.9424 176.181C80.9472 176.123 80.9338 176.065 80.9039 176.016C80.5655 175.296 80.2193 174.719 79.9501 174.243C79.6809 173.766 79.4578 173.412 79.3001 173.173C79.2232 173.054 79.1616 172.966 79.1193 172.908C79.0972 172.879 79.0728 172.852 79.0462 172.827C79.0462 172.827 79.3693 173.316 79.8963 174.273C80.1578 174.75 80.4962 175.339 80.8193 176.05C80.8386 176.096 80.8616 176.139 80.8501 176.166C80.8332 176.207 80.8113 176.245 80.7847 176.281C80.727 176.362 80.6655 176.443 80.5962 176.523C80.4655 176.689 80.3193 176.85 80.1693 177.019C79.8693 177.354 79.5385 177.704 79.1885 178.066H79.2078L77.1809 179.004L77.1386 179.023V179.069C77.2309 180.608 77.3347 182.339 77.4501 184.216L77.4962 184.139L72.1578 186.377H72.2386L70.827 185.562H70.8039H70.777L66.6116 185.65H66.6616L61.277 182.712L61.327 182.777C61.1424 181.846 60.9424 180.9 60.7693 179.946L60.5693 178.95C60.4886 176.912 60.4116 174.923 60.3386 173.012L60.304 173.093L66.3001 168.196L66.2347 168.216L69.4616 168.535H69.4924H69.5155L72.6924 166.543H72.6155L78.7155 169.423L78.6886 169.346L76.8924 172.769L76.8655 172.819H76.9232L78.5001 172.8H78.9078L79.0501 172.777Z" fill="#263238"/>
<path d="M76.9231 172.777L68.7462 179.308L78.7385 169.365L76.9231 172.777Z" fill="#E0E0E0"/>
<path d="M70.9501 176.077L73.6424 170.977L69.4694 168.453L69.6347 168.35C69.6347 168.35 75.8963 170.015 75.9809 170.092C76.0655 170.169 70.9501 176.077 70.9501 176.077Z" fill="#E0E0E0"/>
<path d="M66.6232 185.677C66.2386 185.219 61.2386 182.739 61.2386 182.739L64.9463 182.869L65.7963 179.754C65.854 179.858 67.6578 182.223 67.6117 182.381C67.5655 182.539 66.6232 185.677 66.6232 185.677Z" fill="#E0E0E0"/>
<path d="M70.7847 185.585L72.3923 178.658L77.8616 176.773L74.0539 178.993L72.2 186.4L70.7847 185.585Z" fill="#E0E0E0"/>
<path d="M60.3617 172.877L65.2002 178.388L65.1233 173.577L62.931 173.565L60.3617 172.877Z" fill="#E0E0E0"/>
<path d="M70.7887 185.585C70.8533 185.415 70.9048 185.24 70.9425 185.062C71.0387 184.677 71.1617 184.204 71.3271 183.612C71.631 182.373 72.0464 180.647 72.504 178.681L72.4387 178.754L73.754 178.3L77.904 176.854L77.981 176.827L77.9617 176.75C77.6694 175.577 77.4271 174.593 77.2463 173.862C77.1579 173.539 77.0886 173.274 77.031 173.058C77.0111 172.961 76.9801 172.867 76.9387 172.777C76.9428 172.876 76.957 172.974 76.981 173.07C77.0233 173.285 77.081 173.558 77.1463 173.885C77.3117 174.62 77.531 175.612 77.7925 176.793L77.8502 176.693L73.6887 178.112L72.3771 178.566L72.3233 178.585V178.635C71.8694 180.604 71.481 182.339 71.2117 183.581L70.9002 185.047C70.8458 185.222 70.8084 185.402 70.7887 185.585Z" fill="#263238"/>
<path d="M69.4694 168.453C69.5595 168.532 69.6575 168.602 69.7617 168.661L70.604 169.199L73.5963 171.057L73.5617 170.934L71.9002 174.065C71.5387 174.749 71.1887 175.415 70.8656 176.034L70.9156 175.988L66.8079 177.676L65.6194 178.184C65.4736 178.238 65.3332 178.307 65.2002 178.388C65.3528 178.353 65.502 178.306 65.6463 178.245L66.854 177.788L70.9848 176.169H71.0194V176.138L72.0617 174.172L73.7079 171.034L73.7463 170.961L73.6733 170.915L70.6425 169.122L69.7771 168.626C69.6825 168.555 69.5791 168.497 69.4694 168.453Z" fill="#263238"/>
<path d="M157.75 158.549C157.857 157.284 158.056 156.028 158.346 154.791C158.469 154.622 160.873 154.288 160.873 154.288L163.046 154.799L165.981 150.568L171.561 152.107L172.165 153.622L175.492 156.115L177.915 161.764L176.138 165.226L172.638 170.026L164.923 170.111L162.588 167.861L158.861 167.453L155.877 161.422L159.415 159.864L157.75 158.549Z" fill="#FAFAFA"/>
<path d="M157.75 158.55L157.85 158.638L158.162 158.896L159.396 159.892V159.834L155.85 161.373L155.796 161.396L155.823 161.45L158.796 167.504V167.542H158.838L162.565 167.957L162.515 167.934C163.25 168.646 164.054 169.407 164.846 170.188L164.873 170.215H164.908L172.627 170.138H172.673L172.704 170.1L176.204 165.3L176.665 164.392L177.981 161.823L178 161.78L177.981 161.738C177.15 159.796 176.338 157.892 175.558 156.088V156.065H175.538L172.208 153.561L172.238 153.604L171.646 152.061V152.019H171.6L166.015 150.48H165.962L165.927 150.53L163.008 154.78L163.077 154.754L160.877 154.23C160.373 154.304 159.9 154.38 159.454 154.461C159.235 154.504 159.019 154.542 158.812 154.592C158.708 154.615 158.604 154.642 158.504 154.673C158.449 154.687 158.397 154.711 158.35 154.742C158.296 154.784 158.292 154.854 158.277 154.896C158.096 155.665 158.012 156.338 157.927 156.877C157.842 157.415 157.8 157.838 157.773 158.119C157.773 158.261 157.773 158.369 157.754 158.442C157.75 158.478 157.75 158.514 157.754 158.55C157.754 158.55 157.804 157.965 157.981 156.888C158.073 156.35 158.169 155.68 158.365 154.919C158.365 154.877 158.388 154.827 158.415 154.811C158.454 154.789 158.495 154.772 158.538 154.761C158.631 154.73 158.735 154.707 158.835 154.684C159.042 154.642 159.254 154.6 159.477 154.561C159.923 154.488 160.396 154.415 160.896 154.346H160.873L163.046 154.861H163.092L163.115 154.823L166.062 150.592L165.973 150.627L171.554 152.165L171.492 152.111L172.096 153.627V153.654H172.115L175.438 156.161L175.408 156.123L177.831 161.773V161.688L176.519 164.257L176.058 165.165C174.858 166.811 173.685 168.419 172.562 169.965L172.638 169.927L164.923 170.019L164.988 170.046L162.654 167.811L162.631 167.792H162.604L158.873 167.407L158.935 167.45L155.931 161.411L155.904 161.488L159.435 159.911L159.485 159.888L159.442 159.854L158.192 158.892L157.865 158.646L157.75 158.55Z" fill="#263238"/>
<path d="M159.419 159.864L169.885 159.799L155.881 161.422L159.419 159.864Z" fill="#E0E0E0"/>
<path d="M166.154 160.973L160.877 163.311L162.588 167.877L162.396 167.853C162.396 167.853 158.512 162.673 158.492 162.557C158.473 162.442 166.154 160.973 166.154 160.973Z" fill="#E0E0E0"/>
<path d="M175.492 156.115C175.492 156.704 177.915 161.765 177.915 161.765L175.081 159.369L172.485 161.292C172.504 161.177 172.55 158.215 172.685 158.108L175.492 156.115Z" fill="#E0E0E0"/>
<path d="M172.165 153.607L166.619 158.053L161.154 156.149L165.523 156.761L171.561 152.092L172.165 153.607Z" fill="#E0E0E0"/>
<path d="M172.485 170.046L172.096 162.719L169.181 166.546L170.892 167.911L172.485 170.046Z" fill="#E0E0E0"/>
<path d="M172.165 153.611C172.007 153.701 171.858 153.805 171.719 153.923L170.535 154.834C169.531 155.604 168.135 156.719 166.558 157.977H166.65L165.338 157.515L161.185 156.084L161.108 156.057L161.077 156.127C160.581 157.227 160.161 158.154 159.85 158.838L159.519 159.607C159.475 159.696 159.442 159.789 159.419 159.884C159.478 159.805 159.528 159.72 159.569 159.631C159.665 159.431 159.788 159.184 159.954 158.884C160.277 158.207 160.723 157.292 161.242 156.192L161.138 156.238L165.285 157.696L166.596 158.154L166.65 158.173L166.692 158.138C168.265 156.873 169.642 155.754 170.627 154.942L171.781 153.984C171.919 153.87 172.047 153.746 172.165 153.611Z" fill="#263238"/>
<path d="M162.592 167.877C162.575 167.759 162.543 167.644 162.496 167.535C162.412 167.285 162.3 166.969 162.169 166.589C161.865 165.746 161.45 164.612 160.969 163.277L160.919 163.393L164.162 161.966L166.192 161.062H166.127L170.396 162.277L171.646 162.619C171.794 162.665 171.946 162.699 172.1 162.719C171.961 162.651 171.816 162.596 171.665 162.558L170.435 162.173L166.204 160.889H166.169H166.139L164.104 161.785L160.869 163.231L160.789 163.266L160.819 163.346C161.331 164.669 161.769 165.796 162.089 166.631C162.242 167.016 162.365 167.316 162.473 167.558C162.503 167.668 162.543 167.775 162.592 167.877Z" fill="#263238"/>
<path d="M51.5692 157.081L49.9885 152.531L53.5192 151.139L56.3038 153.746C56.3038 153.746 60.85 153.616 61.1308 153.816C61.4115 154.016 63.9154 158.635 63.9154 158.635L64.75 163.135L62.4423 164.877L63.9269 166.362C63.9269 166.362 56.6846 168.669 55.6654 168.593C54.6462 168.516 53.4346 167.323 53.4346 167.323H48.5154L45.8231 163.862L48.7962 157.085L51.5692 157.081Z" fill="#FAFAFA"/>
<path d="M51.5693 157.08H51.377H50.8347L48.7847 157.057H48.7577V157.08L45.7577 163.845L45.7385 163.884L45.7654 163.918C46.577 164.972 47.4847 166.141 48.4577 167.38L48.4808 167.411H48.5231H53.4424L53.3808 167.384C53.7009 167.688 54.05 167.959 54.4231 168.195C54.8043 168.456 55.242 168.622 55.7 168.68C56.1629 168.65 56.6215 168.574 57.0693 168.453C57.5193 168.349 57.9654 168.23 58.4193 168.111C60.2231 167.618 62.0731 167.053 63.9654 166.453L64.1193 166.403L64.0039 166.288L63.3885 165.672L62.5193 164.803V164.953L64.827 163.207L64.877 163.172V163.111C64.5923 161.572 64.3116 160.064 64.0385 158.611C63.5731 157.768 63.1154 156.949 62.6731 156.145L61.9962 154.965C61.7785 154.567 61.5384 154.181 61.277 153.811C61.2539 153.788 61.2385 153.757 61.2039 153.741C61.1714 153.728 61.138 153.716 61.1039 153.707C61.0467 153.695 60.989 153.686 60.9308 153.68C60.8193 153.68 60.7116 153.661 60.6039 153.653L59.9616 153.63C59.5385 153.63 59.1231 153.63 58.7116 153.63C57.8936 153.63 57.1026 153.645 56.3385 153.676L56.3962 153.699L53.6039 151.099L53.5693 151.068H53.5308L50.0077 152.476L49.9616 152.495V152.541C50.477 153.98 50.877 155.103 51.1539 155.88C51.2924 156.265 51.4 156.557 51.4731 156.765L51.5577 156.995C51.567 157.023 51.5786 157.05 51.5923 157.076L51.5693 157.003C51.55 156.945 51.527 156.872 51.5 156.78C51.4308 156.572 51.3308 156.28 51.2077 155.903C50.9385 155.111 50.5539 153.98 50.0539 152.507L50.0231 152.576L53.5577 151.199H53.4847C54.3334 151.997 55.259 152.868 56.2616 153.815L56.2885 153.838H56.3193C57.0885 153.838 57.8577 153.807 58.6885 153.803C59.1 153.803 59.5154 153.803 59.9346 153.803C60.1462 153.803 60.3577 153.803 60.5693 153.826L60.8846 153.853C60.9346 153.853 60.9923 153.853 61.0347 153.88H61.0847C61.1039 153.88 61.1116 153.911 61.127 153.926C61.6039 154.607 62.0346 155.418 62.4846 156.211C62.9346 157.003 63.3808 157.834 63.8462 158.676V158.645C64.1154 160.104 64.3936 161.606 64.6808 163.149L64.7154 163.049L62.4077 164.791L62.3154 164.861L62.3962 164.945L63.2654 165.814L63.8808 166.43L63.9231 166.265C62.0347 166.861 60.1846 167.418 58.3846 167.918C57.9346 168.041 57.4885 168.161 57.0423 168.264C56.6135 168.382 56.1742 168.456 55.7308 168.488C55.3041 168.433 54.8966 168.278 54.5423 168.034C54.1797 167.811 53.8396 167.553 53.527 167.264L53.5 167.238H53.4616H48.5424L48.6077 167.268L45.9154 163.807V163.88L48.8539 157.091L48.8193 157.115L50.8962 157.091H51.427L51.5693 157.08Z" fill="#263238"/>
<path d="M50.054 152.547L51.7925 151.9L51.5694 157.081L50.054 152.547Z" fill="#E0E0E0"/>
<path d="M48.5385 167.076L53.8154 159.172L53.4577 167.076H48.5385Z" fill="#E0E0E0"/>
<path d="M62.1347 164.806L59.5616 162.518L59.3693 159.172L61.477 162.183L64.4578 163.064L62.1347 164.806Z" fill="#E0E0E0"/>
<path d="M48.5039 167.322C48.5502 167.275 48.5915 167.224 48.627 167.168L48.9462 166.707C49.2347 166.28 49.627 165.703 50.1 164.991L53.8962 159.222L53.8116 159.268H54.5154L59.2 159.314H59.2616L59.2846 159.253C59.8346 157.653 60.3039 156.303 60.6423 155.322L61.027 154.207C61.0767 154.075 61.1153 153.94 61.1423 153.803C61.0724 153.925 61.0157 154.054 60.9731 154.187C60.8693 154.464 60.7308 154.834 60.5577 155.287C60.2 156.26 59.7116 157.595 59.1308 159.195L59.2154 159.134L54.5346 159.068H53.827H53.7731L53.7423 159.114L50 164.914L48.8962 166.664L48.6077 167.141C48.5661 167.197 48.5313 167.258 48.5039 167.322Z" fill="#263238"/>
<path d="M91.5885 178.123L90.3847 174.661L93.077 173.6L95.1962 175.584C95.1962 175.584 98.6577 175.484 98.8693 175.638C99.0808 175.792 100.992 179.307 100.992 179.307L101.627 182.73L99.8616 184.061L100.992 185.192C100.992 185.192 95.477 186.957 94.7 186.888C93.9231 186.819 93.0039 185.919 93.0039 185.919H89.2577L87.2077 183.28L89.4693 178.123H91.5885Z" fill="#FAFAFA"/>
<path d="M91.5887 178.122H91.4386H91.0271L89.4656 178.095H89.4387V178.122C88.8887 179.353 88.1079 181.107 87.131 183.268V183.307L87.1579 183.341L89.2002 185.987L89.2233 186.018H89.2656H93.0117L92.9463 185.995C93.1936 186.225 93.4613 186.433 93.7463 186.614C94.0371 186.82 94.3737 186.953 94.7271 186.999C95.0821 186.978 95.434 186.92 95.7771 186.826C96.1194 186.749 96.4617 186.657 96.804 186.564C98.181 186.18 99.5886 185.76 101.035 185.303L101.192 185.253L101.077 185.137L100.608 184.668L99.9463 184.007V184.157C100.542 183.71 101.135 183.268 101.712 182.83L101.762 182.791V182.734C101.542 181.56 101.331 180.426 101.123 179.307V179.28L100.081 177.403C99.7271 176.791 99.4233 176.207 99.0156 175.634C98.9793 175.589 98.9292 175.558 98.8733 175.545C98.8233 175.545 98.7848 175.545 98.7386 175.526C98.6925 175.507 98.5694 175.526 98.4886 175.507C98.3233 175.507 98.1617 175.507 98.0002 175.507H97.0463C96.4233 175.507 95.8194 175.507 95.2386 175.541L95.2963 175.564L93.1694 173.587L93.1348 173.557H93.0963L90.404 174.634L90.3579 174.653V174.699L91.2617 177.21C91.3656 177.499 91.4463 177.722 91.5079 177.884L91.5733 178.06C91.5794 178.082 91.5885 178.103 91.6002 178.122C91.581 178.047 91.5579 177.972 91.531 177.899L91.3117 177.234C91.1079 176.622 90.8194 175.753 90.4463 174.641L90.4156 174.707L93.1079 173.664H93.0348L95.1502 175.657L95.1733 175.68H95.204C95.7848 175.68 96.3886 175.657 97.0079 175.653H97.9579H98.4386C98.5194 175.653 98.6002 175.653 98.6771 175.676H98.7886C98.8079 175.676 98.8309 175.676 98.8502 175.714C99.204 176.23 99.5386 176.868 99.881 177.449L100.904 179.349V179.318C101.108 180.426 101.319 181.572 101.539 182.745L101.573 182.649L99.8079 183.976L99.7156 184.045L99.7963 184.126L100.458 184.787L100.927 185.257L100.969 185.091C99.531 185.545 98.1233 185.976 96.7386 186.353C96.3963 186.445 96.0579 186.537 95.7194 186.614C95.3944 186.701 95.0624 186.759 94.7271 186.787C94.4053 186.744 94.0982 186.626 93.831 186.441C93.5554 186.27 93.2977 186.072 93.0617 185.849L93.0348 185.822H92.9963H89.2502L89.3386 185.887C88.5963 184.941 87.904 184.053 87.2771 183.257V183.33L89.5079 178.157L89.4694 178.184L91.0579 178.157H91.4617L91.5887 178.122Z" fill="#263238"/>
<path d="M90.4347 174.672L91.7578 174.18L91.5886 178.122L90.4347 174.672Z" fill="#E0E0E0"/>
<path d="M89.2808 185.734L93.2961 179.715L93.0269 185.734H89.2808Z" fill="#E0E0E0"/>
<path d="M99.6309 184.007L97.6732 182.265L97.5271 179.715L99.1309 182.007L101.4 182.68L99.6309 184.007Z" fill="#E0E0E0"/>
<path d="M89.2538 185.919C89.3842 185.777 89.5001 185.623 89.6 185.458L90.4923 184.158C91.2384 183.05 92.2577 181.504 93.3884 179.769L93.3038 179.815H93.8423L97.4077 179.846H97.473L97.4923 179.789L98.5192 176.792C98.6307 176.446 98.7192 176.165 98.7961 175.939C98.8346 175.84 98.8605 175.736 98.873 175.631C98.8188 175.722 98.775 175.819 98.7423 175.919C98.6538 176.142 98.55 176.419 98.4192 176.754L97.3231 179.727L97.4077 179.669L93.8461 179.615H93.3077H93.25L93.2231 179.662C92.0923 181.396 91.0923 182.954 90.3769 184.081C90.0384 184.627 89.7577 185.073 89.5461 185.419C89.4347 185.577 89.3369 185.745 89.2538 185.919Z" fill="#263238"/>
</svg>
