<svg width="200" height="200" viewBox="0 0 200 200" fill="none" xmlns="http://www.w3.org/2000/svg">
<g clip-path="url(#clip0_752_28525)">
<path fill-rule="evenodd" clip-rule="evenodd" d="M96.6489 40.0786C72.5164 41.5624 60.8087 65.3973 46.0572 82.1754C34.101 95.7741 23.0389 109.409 20.7142 126.445C18.0291 146.122 16.4425 168.605 32.3369 182.721C48.2827 196.882 74.0361 195.809 96.6489 193.883C119.863 194.322 138.62 187.342 149.552 172.737C165.068 160.174 178.921 144.922 179.935 126.445C180.989 107.244 169.055 90.1752 154.888 75.4837C139.04 59.05 121.162 38.5713 96.6489 40.0786Z" fill="#FFF3CC"/>
<path d="M107.94 44.8647L107.07 44.8164C102.876 44.5763 98.7456 45.9237 95.4999 48.5907C92.2541 51.2577 90.1313 55.0488 89.5536 59.2099C88.4427 67.2599 89.7307 68.6774 89.5536 73.0002C89.1431 81.968 97.816 88.5002 97.816 88.5002L95.2933 94.952C95.1675 96.3825 95.3256 97.8237 95.7585 99.1929C96.1915 100.562 96.8907 101.832 97.816 102.93C98.7413 104.029 99.8745 104.933 101.151 105.592C102.426 106.251 103.82 106.651 105.251 106.769C108.103 106.998 110.93 106.096 113.123 104.259C115.316 102.422 116.698 99.796 116.972 96.9484L120.192 63.6937C121.496 54.4362 117.23 45.9515 107.94 44.8647Z" fill="#FFBF9D"/>
<path d="M98 88.5007C102.149 88.7417 106.371 87.6491 110 85.6777C110 85.6777 105.881 91.7827 97 90.5007L98 88.5007Z" fill="#FF9A6C"/>
<path d="M104.004 68.3284C103.975 68.7349 104.102 69.1368 104.357 69.447C104.613 69.7572 104.976 69.9508 105.368 69.9858C105.559 70.0133 105.753 70.0008 105.939 69.9492C106.125 69.8975 106.299 69.8078 106.451 69.6852C106.603 69.5627 106.729 69.4099 106.823 69.2358C106.917 69.0617 106.976 68.8698 106.997 68.6716C107.021 68.2663 106.892 67.8672 106.638 67.5581C106.384 67.249 106.023 67.054 105.633 67.0142C105.442 66.9867 105.248 66.9992 105.062 67.0509C104.876 67.1025 104.702 67.1922 104.55 67.3148C104.398 67.4373 104.272 67.5901 104.178 67.7642C104.084 67.9383 104.025 68.1302 104.004 68.3284Z" fill="#263238"/>
<path d="M91.212 63.701C91.3649 63.8781 92.3712 63.21 93.7477 63.2985C95.1243 63.3871 96.0984 64.1035 96.2513 63.9667C96.4043 63.8298 96.1869 63.5883 95.7683 63.2422C95.1958 62.793 94.4986 62.5316 93.7719 62.4935C93.0568 62.4539 92.3472 62.6397 91.7433 63.0248C91.3166 63.3227 91.1556 63.6125 91.212 63.701Z" fill="#263238"/>
<path d="M92.0028 68.3284C91.9789 68.7337 92.1076 69.1328 92.3621 69.4419C92.6165 69.751 92.9767 69.946 93.3671 69.9858C93.5579 70.0133 93.752 70.0008 93.938 69.9491C94.1241 69.8975 94.2982 69.8078 94.4501 69.6852C94.6021 69.5627 94.7287 69.4099 94.8226 69.2358C94.9165 69.0617 94.9756 68.8698 94.9966 68.6716C95.023 68.2657 94.8951 67.8652 94.6402 67.5556C94.3854 67.2459 94.0237 67.0516 93.6323 67.0142C93.4416 66.9867 93.2474 66.9992 93.0614 67.0509C92.8754 67.1025 92.7012 67.1922 92.5493 67.3148C92.3974 67.4373 92.2707 67.5901 92.1769 67.7642C92.083 67.9383 92.0238 68.1302 92.0028 68.3284Z" fill="#263238"/>
<path d="M104.744 64.7316C104.889 64.9087 105.903 64.2486 107.28 64.3291C108.656 64.4096 109.622 65.1341 109.783 64.9973C109.944 64.8604 109.719 64.6189 109.292 64.2728C108.724 63.8278 108.033 63.5691 107.312 63.5322C106.596 63.4864 105.885 63.6727 105.283 64.0635C104.833 64.3613 104.672 64.6511 104.744 64.7316Z" fill="#263238"/>
<path d="M99.1652 74.6567C98.4536 74.3823 97.7095 74.201 96.9514 74.1173C96.5972 74.061 96.2752 73.9724 96.2269 73.7309C96.2149 73.3658 96.3162 73.0059 96.5167 72.7005C96.9031 71.8955 97.3217 71.002 97.7162 70.0843C99.3745 66.3571 100.598 63.29 100.453 63.2256C100.308 63.1612 98.8432 66.1237 97.1688 69.8508C96.7663 70.7685 96.3638 71.646 96.0176 72.4832C95.7753 72.8956 95.6816 73.3786 95.752 73.8517C95.7956 73.9799 95.8685 74.0961 95.9649 74.1911C96.0613 74.2862 96.1786 74.3574 96.3074 74.3991C96.497 74.4654 96.6947 74.506 96.8951 74.5198C97.6438 74.6547 98.4057 74.7006 99.1652 74.6567Z" fill="#263238"/>
<path d="M104.641 60.4005C104.762 60.7788 106.146 60.6822 107.748 60.972C109.35 61.2618 110.63 61.777 110.864 61.447C110.968 61.294 110.759 60.9318 110.26 60.5373C109.583 60.0516 108.804 59.7266 107.982 59.5871C107.161 59.4476 106.318 59.4973 105.518 59.7323C104.915 59.9416 104.593 60.2153 104.641 60.4005Z" fill="#263238"/>
<path d="M91.9137 60.827C92.1311 61.149 93.0971 60.8833 94.2402 60.9316C95.3833 60.9799 96.3332 61.2617 96.5747 60.9316C96.6793 60.7787 96.5747 60.4567 96.148 60.1266C95.6025 59.7358 94.9513 59.5197 94.2804 59.5068C93.608 59.4784 92.9436 59.6614 92.3806 60.03C91.962 60.352 91.8091 60.666 91.9137 60.827Z" fill="#263238"/>
<path d="M90.6564 55.1525C90.6564 55.1525 93.337 49.6784 96.1223 48.5192C99.4872 47.1266 100.687 50.8054 103.858 50.1292C107.03 49.453 110.242 48.1006 113.293 50.6927C116.626 53.5344 114.903 55.2974 114.903 59.2821C114.855 75.4385 117.535 80.1639 118.807 72.629C118.944 71.824 121.295 71.2686 121.834 67.799C122.543 63.2749 123.034 57.7526 122.204 54.4602C121.504 51.6909 120.063 49.7187 117.374 47.4808C113.164 43.9549 107.135 43.5363 103.005 43.7134C98.8754 43.8905 90.6805 48.1006 90.6564 55.1525Z" fill="#263238"/>
<path d="M118.22 72.3236C118.247 71.9929 118.342 71.6713 118.499 71.3788C118.655 71.0864 118.871 70.8295 119.131 70.624C119.392 70.4185 119.692 70.269 120.013 70.1847C120.334 70.1004 120.669 70.0831 120.997 70.134C122.655 70.3916 124.458 71.4462 124.153 74.8916C123.605 81.0016 117.584 79.1903 117.584 79.0132C117.584 78.8361 117.97 74.8835 118.22 72.3236Z" fill="#FFBF9D"/>
<path d="M119.105 76.8303C119.105 76.8303 119.202 76.9188 119.379 77.0154C119.626 77.1475 119.914 77.1793 120.184 77.104C120.844 76.9269 121.48 75.9448 121.609 74.85C121.673 74.3266 121.617 73.7955 121.448 73.2963C121.408 73.1011 121.321 72.9186 121.195 72.7643C121.068 72.6101 120.907 72.4888 120.723 72.4108C120.604 72.3686 120.474 72.3688 120.356 72.4113C120.237 72.4538 120.136 72.5361 120.071 72.6443C119.967 72.8053 119.999 72.934 119.967 72.9421C119.934 72.9501 119.846 72.8294 119.918 72.5798C119.964 72.4305 120.061 72.3022 120.192 72.2176C120.372 72.1045 120.589 72.0669 120.796 72.1129C121.041 72.1861 121.264 72.3205 121.443 72.5036C121.621 72.6868 121.751 72.9125 121.818 73.1595C122.031 73.7126 122.106 74.3096 122.035 74.8983C121.882 76.1299 121.15 77.2247 120.248 77.4018C120.08 77.4353 119.907 77.4302 119.741 77.387C119.575 77.3438 119.421 77.2635 119.29 77.1523C119.105 76.9832 119.081 76.8464 119.105 76.8303Z" fill="#FF9A6C"/>
<path d="M89.3524 48.5191C90.2943 47.8107 91.5903 47.7141 92.5241 46.9977C96.6835 43.8042 103.387 37.7091 109.111 40.8959C111.289 42.1085 114.038 42.2125 115.982 43.6006C116.547 44.0475 117.013 44.608 117.348 45.2458C117.684 45.8835 117.882 46.5845 117.93 47.3036C117.93 47.3036 118.566 46.9816 120.498 48.5111C121.73 49.4851 122.736 51.5862 123.187 53.0835C123.855 55.3294 122.881 57.6962 121.923 59.8294C121.408 60.9806 120.764 62.2444 119.564 62.655C118.107 63.146 116.497 62.0029 115.926 60.57C115.354 59.1371 114.452 57.6962 113.76 56.3196C112.553 53.9046 111.345 51.6989 112.335 50.1694C109.07 49.1089 106.906 51.0056 104.003 52.0289C102.783 52.4594 97.8575 53.276 96.4995 52.9513C96.0607 52.8464 95.6512 52.6439 95.3014 52.359C94.7484 53.2599 93.8762 53.9194 92.8587 54.2059C91.8411 54.4923 90.753 54.3848 89.8112 53.9046C87.9919 52.7776 87.6699 49.791 89.3524 48.5191Z" fill="#263238"/>
<path d="M122.535 58.3875C122.252 58.8294 122.015 59.2987 121.826 59.7882C121.606 60.2826 121.258 60.7102 120.82 61.0279C120.234 61.3278 119.559 61.405 118.92 61.2452C118.256 61.1164 117.629 60.8414 117.085 60.4402C116.646 60.0994 116.246 59.7106 115.893 59.281C115.585 58.8596 115.243 58.4638 114.871 58.0977C115.067 58.5852 115.339 59.0388 115.676 59.442C116.013 59.9161 116.414 60.3413 116.867 60.7059C117.449 61.1447 118.124 61.4424 118.84 61.5753C119.565 61.7551 120.332 61.6484 120.981 61.2774C121.466 60.9224 121.835 60.4324 122.044 59.8687C122.268 59.397 122.433 58.8995 122.535 58.3875Z" fill="#FFD000"/>
<path d="M122.301 63.1146C121.933 63.394 121.526 63.619 121.094 63.7828C120.623 63.9318 120.126 63.9757 119.636 63.9116C119.036 63.8203 118.462 63.6007 117.954 63.2676C117.031 62.6266 116.248 61.805 115.652 60.8526C115.424 60.4394 115.154 60.0509 114.847 59.6934C114.988 60.1539 115.197 60.5907 115.467 60.9894C116.014 62.0378 116.806 62.9383 117.777 63.6137C118.33 63.9795 118.962 64.2085 119.62 64.2819C120.167 64.342 120.72 64.2674 121.23 64.0645C122.051 63.6701 122.341 63.1227 122.301 63.1146Z" fill="#FFD000"/>
<path d="M103.297 79.6289C103.503 79.9662 103.618 80.3164 103.638 80.6697C103.663 80.8368 103.617 81.0047 103.503 81.1618C103.389 81.319 103.211 81.4618 102.98 81.5804C102.74 81.7262 102.441 81.8432 102.104 81.9233C101.766 82.0034 101.398 82.0446 101.027 82.0439C100.356 82.0432 99.7074 81.92 99.1981 81.6964C98.6888 81.4729 98.3518 81.1636 98.2479 80.8242L98.0098 80.0558C99.3991 79.8525 103.194 79.6818 103.297 79.6289Z" fill="#FF9A6C"/>
<path d="M99.0522 81.1252C99.0522 81.1252 99.2472 81.1252 99.5693 81.1411C100.021 81.163 100.482 81.163 100.934 81.1411C101.587 81.1089 102.177 81.0007 102.587 80.8381C103.075 80.6348 103.307 80.3822 103.239 80.1285C103.22 79.9858 103.101 79.8462 102.892 79.7193L103.095 79.7485C101.646 79.8176 100.374 79.8734 99.476 79.9053C98.9928 79.9336 98.5011 79.9452 98.0098 79.9399C98.4676 79.884 98.9459 79.8465 99.4336 79.8282C100.332 79.7751 101.586 79.7033 103.036 79.6289H103.171L103.231 79.6661C103.556 79.8636 103.694 80.086 103.629 80.3073C103.565 80.5286 103.3 80.7395 102.866 80.9152C102.39 81.0951 101.709 81.2096 100.968 81.2341C100.486 81.2474 100.001 81.233 99.5354 81.1916C99.361 81.1806 99.1962 81.1579 99.0522 81.1252Z" fill="#263238"/>
<path d="M139.512 106.576C140.043 106.576 147.627 109.603 149.623 117.041C151.619 124.479 157.069 151.769 157.069 151.769L162.857 159.787C162.857 159.787 160.982 174.414 150.347 171.628C150.347 171.628 143.247 172.868 140.985 165.671C138.723 158.475 134.336 137.005 134.336 137.005L139.512 106.576Z" fill="#B9B8B6"/>
<path d="M117.853 94L121.88 100.196L140 106.752L134.814 160.234V185.5C115.5 197.5 77.2791 196.215 74.5409 195C73.1154 194.959 71.3195 191.408 71.0859 189.425C70.8846 187.645 71.038 185.841 71.5369 184.123L74.5409 173.403C74.0979 180.074 76.063 133.607 76.1516 131.911L71.5 108.5C73.0906 106.405 82.0743 103.291 92.3795 99.5154L95.6009 94.5081L104.879 101.687L117.853 94Z" fill="#B9B8B6"/>
<path d="M72 108C72 108 67.4544 111.654 66.7543 114.468C66.0543 117.281 50.8011 149.692 50.8011 149.692L43.2239 151.697L41.1978 155.82C40.0144 158.185 39.6959 160.877 40.2958 163.444C40.8957 166.012 42.3775 168.298 44.4922 169.92C44.7556 170.116 45.0307 170.297 45.3158 170.462C49.4339 172.887 56.764 172.758 61.055 167.794C65.1154 163.089 77 146.176 77 146.176V125.479L72 108Z" fill="#B9B8B6"/>
<path d="M47.0495 152.59L36.3993 146.303L31.2634 152.59L32.326 155.633L46.0594 165.848C47.7643 164.457 48.9081 162.495 49.2794 160.326C49.8831 156.486 47.0495 152.59 47.0495 152.59Z" fill="#FFBF9D"/>
<path d="M50.4305 149.337C50.4305 149.442 51.3402 149.337 52.6765 149.788C54.4033 150.385 55.9323 151.446 57.0959 152.855C58.2458 154.295 59.1937 155.885 59.9134 157.581C60.1847 158.307 60.5215 159.008 60.9197 159.674C60.8123 158.901 60.5955 158.147 60.2757 157.436C59.6431 155.646 58.7093 153.977 57.5145 152.501C56.2929 151.009 54.6394 149.932 52.7811 149.418C52.0213 149.167 51.2057 149.139 50.4305 149.337Z" fill="#263238"/>
<path d="M36.5764 149.789C36.8418 148.399 36.7467 146.964 36.3 145.621C35.8532 144.277 35.0698 143.071 34.0245 142.117C31.5099 140.049 28.6664 138.416 25.6122 137.287C23.7446 136.482 19.8564 133.206 19.1722 133.995C18.4879 134.784 18.182 135.959 19.1722 137.392C20.1623 138.825 25.7893 140.958 25.0004 142.769C24.6784 143.502 22.9074 143.639 22.9074 143.639C19.6927 143.865 16.4686 143.929 13.2474 143.832C10.3977 143.582 7.83777 144.13 7.99072 145.112C8.14367 146.094 8.67497 146.633 11.0336 146.834C13.3923 147.036 17.2321 146.883 17.4736 147.422C17.7151 147.961 16.8779 148.308 15.5014 148.227C14.1248 148.147 7.63652 148.122 7.19377 148.863C7.0861 149.051 7.02143 149.261 7.00446 149.477C6.98749 149.692 7.01864 149.91 7.09563 150.112C7.17262 150.314 7.29354 150.497 7.44971 150.648C7.60588 150.798 7.79341 150.911 7.99878 150.98L9.52022 151.52C9.52022 151.52 8.63472 152.751 9.37532 153.435C10.1159 154.12 11.7903 153.878 11.7903 153.878L20.3958 153.637C20.3958 153.637 20.8869 154.152 20.6454 154.506C20.4039 154.86 13.6579 154.369 13.6096 155.11C13.5613 155.85 12.9737 156.189 14.9862 156.72C17.9336 157.211 20.9421 157.211 23.8895 156.72C25.7088 156.221 33.3322 155.915 33.3322 155.915L36.5764 149.789Z" fill="#FFBF9D"/>
<path d="M153.535 153.709L163.493 145.449L169.208 151.889L168.508 155.037L156.063 166.758C154.218 165.7 152.826 164.001 152.15 161.984C150.911 158.434 153.535 153.709 153.535 153.709Z" fill="#FFBF9D"/>
<path d="M163.606 149.747C163.178 148.399 163.101 146.964 163.382 145.578C163.664 144.192 164.295 142.9 165.216 141.826C167.481 139.475 170.13 137.526 173.048 136.062C174.803 135.008 178.281 131.337 179.062 132.037C179.525 132.455 179.82 133.026 179.893 133.646C179.965 134.265 179.81 134.889 179.456 135.402C178.651 136.94 174.771 138.727 174.908 140.699C174.922 140.89 174.974 141.076 175.06 141.247C175.146 141.418 175.265 141.57 175.41 141.695C175.555 141.82 175.724 141.915 175.905 141.975C176.087 142.034 176.279 142.058 176.47 142.044C179.682 141.896 182.884 141.587 186.065 141.118C188.875 140.538 191.475 140.78 191.443 141.77C191.411 142.76 190.936 143.38 188.617 143.839C186.299 144.298 182.467 144.644 182.338 145.167C182.209 145.69 183.022 145.972 184.383 145.722C185.743 145.473 192.183 144.708 192.707 145.392C192.836 145.564 192.926 145.763 192.97 145.974C193.013 146.185 193.01 146.403 192.959 146.613C192.908 146.822 192.811 147.018 192.676 147.185C192.54 147.353 192.369 147.488 192.175 147.582L190.726 148.298C190.726 148.298 191.749 149.417 191.097 150.182C190.445 150.947 188.754 150.907 188.754 150.907L180.173 151.663C180.173 151.663 179.746 152.235 180.036 152.557C180.326 152.879 186.951 151.607 187.088 152.34C187.225 153.072 187.852 153.338 185.904 154.062C183.03 154.895 180.038 155.246 177.049 155.101C175.182 154.819 167.566 155.366 167.566 155.366L163.606 149.747Z" fill="#FFBF9D"/>
<path d="M92.4597 101.006C92.9982 101.678 93.5964 102.301 94.2468 102.865C95.3819 103.976 96.9355 105.53 98.5777 107.301C98.9239 107.679 99.27 108.05 99.592 108.412L99.8094 108.645L100.011 108.396C101.283 106.786 102.385 105.305 103.158 104.25C103.612 103.714 103.999 103.125 104.309 102.495C103.775 102.952 103.294 103.468 102.876 104.033C102.031 105.031 100.872 106.448 99.584 108.058H99.9945L98.9883 106.939C97.5736 105.41 96.0796 103.956 94.5125 102.584C93.8949 101.976 93.2056 101.446 92.4597 101.006Z" fill="#263238"/>
<path d="M138.377 120.502C138.229 120.857 138.129 121.231 138.079 121.613C137.926 122.337 137.733 123.392 137.524 124.696C137.105 127.304 136.662 130.927 136.292 134.936C135.922 138.945 135.648 142.583 135.439 145.216C135.358 146.439 135.278 147.478 135.221 148.331C135.171 148.713 135.171 149.1 135.221 149.482C135.336 149.115 135.412 148.738 135.447 148.355C135.559 147.622 135.696 146.56 135.841 145.248C136.147 142.631 136.485 139.001 136.856 134.992C137.226 130.983 137.588 127.369 137.902 124.793C138.055 123.577 138.184 122.539 138.288 121.693C138.372 121.302 138.401 120.901 138.377 120.502Z" fill="#263238"/>
<path d="M75.3936 118.676C75.2787 119.132 75.2112 119.599 75.1924 120.068C75.1038 120.978 75.0072 122.282 74.9267 123.908C74.7416 127.128 74.653 131.636 74.6369 136.579V153.09C74.6111 153.56 74.6299 154.032 74.6933 154.498C74.7976 154.039 74.8489 153.569 74.8462 153.098C74.9106 152.188 74.975 150.876 75.0233 149.258C75.136 146.038 75.1763 141.53 75.1843 136.587C75.1924 131.644 75.2326 127.161 75.3131 123.924C75.3534 122.387 75.3856 121.099 75.4097 120.085C75.4479 119.615 75.4425 119.144 75.3936 118.676Z" fill="#263238"/>
<path d="M146.548 165.123C146.8 164.209 146.985 163.279 147.103 162.338C147.48 160.092 148.208 157.918 149.261 155.898C150.334 153.917 151.948 152.282 153.914 151.181C154.759 150.777 155.633 150.438 156.53 150.166C156.265 150.109 155.99 150.109 155.725 150.166C155.027 150.283 154.35 150.497 153.712 150.802C151.597 151.857 149.864 153.546 148.753 155.632C147.688 157.706 147.012 159.957 146.757 162.274C146.568 163.211 146.497 164.168 146.548 165.123Z" fill="#263238"/>
<path d="M143.964 154.248C144.076 154.377 145.678 152.727 148.286 151.833C150.895 150.94 153.116 151.246 153.165 151.077C153.213 150.908 150.854 150.36 148.109 151.318C145.364 152.276 143.843 154.184 143.964 154.248Z" fill="#263238"/>
<path d="M103.11 191.656C103.159 191.358 103.18 191.057 103.174 190.755C103.174 190.119 103.174 189.258 103.231 188.179C103.279 185.885 103.343 182.657 103.424 178.688C103.609 170.638 103.867 159.585 104.156 147.381C104.446 135.177 104.599 124.076 104.583 116.059C104.583 112.034 104.543 108.814 104.495 106.56C104.495 105.481 104.438 104.62 104.414 103.984C104.421 103.682 104.399 103.38 104.35 103.082C104.327 103.382 104.327 103.684 104.35 103.984C104.35 104.62 104.35 105.481 104.35 106.56C104.35 108.854 104.301 112.09 104.269 116.051C104.189 124.101 103.955 135.137 103.681 147.365C103.408 159.593 103.166 170.662 103.102 178.68C103.102 182.705 103.102 185.925 103.102 188.179C103.102 189.258 103.102 190.119 103.142 190.755C103.111 191.054 103.1 191.356 103.11 191.656Z" fill="#263238"/>
<path d="M154.002 153.37C154.002 153.305 153.197 153.909 152.553 155.246C152.158 156.007 151.871 156.82 151.7 157.661C151.534 158.728 151.534 159.814 151.7 160.881C151.82 161.949 152.137 162.986 152.634 163.94C153.064 164.713 153.657 165.383 154.372 165.904C155.001 166.426 155.793 166.71 156.61 166.709C155.903 166.416 155.233 166.041 154.614 165.59C153.979 165.069 153.456 164.426 153.076 163.698C152.646 162.788 152.373 161.81 152.271 160.808C152.127 159.804 152.127 158.785 152.271 157.781C152.41 156.952 152.645 156.141 152.972 155.366C153.471 154.086 154.083 153.418 154.002 153.37Z" fill="#263238"/>
<path d="M44.0629 166.967C44.0629 166.967 44.3205 166.967 44.7311 166.765C45.3074 166.511 45.8485 166.184 46.3411 165.791C48.0279 164.492 49.1816 162.621 49.5849 160.531C49.9882 158.44 49.6133 156.274 48.5307 154.441C48.2152 153.89 47.8311 153.381 47.3876 152.927C47.0736 152.621 46.8724 152.476 46.8482 152.501C46.8241 152.525 47.4922 153.249 48.1926 154.626C49.129 156.407 49.4312 158.453 49.0493 160.428C48.6674 162.404 47.6242 164.19 46.0915 165.493C44.9404 166.508 44.0227 166.878 44.0629 166.967Z" fill="#263238"/>
<path d="M23.5917 140.41C23.5273 140.475 23.9942 140.917 24.5818 141.698C24.9199 142.145 25.1537 142.662 25.2661 143.212C25.3949 143.831 25.3788 144.556 25.4915 145.353C25.5874 146.037 25.8182 146.695 26.1706 147.29C26.523 147.884 26.9899 148.402 27.5443 148.814C27.9679 149.196 28.5053 149.428 29.0738 149.474C29.114 149.386 28.5183 149.161 27.7858 148.508C26.8427 147.673 26.2218 146.534 26.0308 145.288C25.9778 144.56 25.8865 143.834 25.7572 143.115C25.6031 142.515 25.3046 141.963 24.8877 141.505C24.5496 141.042 24.1051 140.666 23.5917 140.41Z" fill="#FF9A6C"/>
<path d="M178.861 148.879C178.861 149.024 181.541 149.169 184.85 149.008C188.158 148.847 190.815 148.46 190.799 148.307C190.783 148.155 188.118 148.307 184.826 148.46C181.533 148.613 178.861 148.718 178.861 148.879Z" fill="#FF9A6C"/>
<path d="M172.767 148.42C172.767 148.477 173.403 148.372 174.159 147.736C174.65 147.31 175.039 146.781 175.301 146.187C175.563 145.592 175.69 144.948 175.673 144.299C175.615 143.612 175.491 142.933 175.303 142.27C175.162 141.745 175.094 141.203 175.101 140.66C175.148 140.175 175.259 139.699 175.431 139.243C175.431 139.187 174.844 139.613 174.715 140.628C174.65 141.198 174.683 141.775 174.811 142.334C174.963 142.973 175.068 143.621 175.125 144.274C175.143 145.442 174.7 146.569 173.894 147.414C173.274 148.138 172.727 148.34 172.767 148.42Z" fill="#FF9A6C"/>
<path d="M22.0945 150.328C22.0945 150.175 19.2206 150.288 15.7108 150.578C12.201 150.867 9.35932 151.238 9.36737 151.383C9.37542 151.528 12.2412 151.423 15.751 151.125C19.2609 150.827 22.1025 150.473 22.0945 150.328Z" fill="#FF9A6C"/>
<path d="M104.961 101.971C105.283 103.043 105.689 104.087 106.177 105.095C106.394 105.578 106.62 106.101 106.853 106.64C107.084 107.255 107.353 107.854 107.658 108.435C107.774 108.626 107.943 108.78 108.145 108.877C108.346 108.974 108.571 109.011 108.793 108.983C109.183 108.88 109.546 108.693 109.856 108.435L111.756 107.139C114.348 105.352 116.674 103.702 118.349 102.494C119.285 101.882 120.168 101.193 120.989 100.434C119.992 100.936 119.036 101.518 118.131 102.172C116.401 103.307 114.034 104.893 111.442 106.688L109.55 107.993C109.303 108.206 109.016 108.368 108.705 108.468C108.578 108.483 108.449 108.459 108.336 108.401C108.222 108.342 108.129 108.25 108.069 108.137C107.457 107.027 106.95 105.827 106.459 104.917C106.042 103.895 105.542 102.91 104.961 101.971Z" fill="#263238"/>
<path d="M18.0653 50.9414H15.1227C13.949 50.9414 12.9976 51.8929 12.9976 53.0666V88.1812C12.9976 89.3549 13.949 90.3064 15.1227 90.3064H18.0653C19.239 90.3064 20.1905 89.3549 20.1905 88.1812V53.0666C20.1905 51.8929 19.239 50.9414 18.0653 50.9414Z" fill="#FFD000"/>
<path d="M15.188 93.6415C15.2942 93.5435 16.4794 91.3611 16.2097 90.3066H17.1088C16.9865 91.5088 17.3254 92.7125 18.057 93.6742L15.188 93.6415Z" fill="#FFD000"/>
<path d="M16.2097 50.9658L14.8284 48.5137H18.2532C17.8277 48.7933 17.4869 49.1842 17.2679 49.6439C17.0489 50.1036 16.9599 50.6145 17.0108 51.1211L16.2097 50.9658Z" fill="#FFD000"/>
<path d="M20.1905 65.2871H12.9976V74.5235H20.1905V65.2871Z" fill="#E0E0E0"/>
<path d="M13.0139 84.2077C13.3758 83.7402 13.772 83.3004 14.1991 82.8917C15.1724 81.8585 16.0813 80.7666 16.921 79.6222C18.8663 76.9167 20.0842 74.4809 20.1905 74.5381C20.0129 75.1096 19.7687 75.6583 19.463 76.1729C18.802 77.4472 18.048 78.6711 17.2071 79.8347C16.3664 81.0088 15.4197 82.1032 14.3789 83.1042C13.9696 83.5252 13.5113 83.8956 13.0139 84.2077Z" fill="white"/>
<path d="M20.1905 83.0078C20.1738 83.452 20.0682 83.8884 19.8799 84.2911C19.4824 85.2891 18.9307 86.2186 18.2452 87.0457C17.5745 87.8796 16.784 88.6096 15.8993 89.2117C15.5457 89.4822 15.1433 89.682 14.7141 89.8002C15.0392 89.5022 15.3862 89.229 15.7522 88.9829C16.572 88.3371 17.3177 87.6025 17.9754 86.7923C18.6226 85.9857 19.1713 85.1049 19.6102 84.1685C19.7745 83.7677 19.9685 83.3797 20.1905 83.0078Z" fill="white"/>
<path d="M19.6919 88.5723C19.16 88.3824 18.6629 88.1063 18.2206 87.755C17.1101 86.99 16.135 86.0452 15.3353 84.9595C14.5455 83.8696 13.9102 82.6759 13.4471 81.4121C13.2225 80.8916 13.0765 80.3407 13.0139 79.7773C13.7149 81.4961 14.5885 83.1393 15.6214 84.6816C16.7655 86.1842 18.1392 87.4972 19.6919 88.5723Z" fill="white"/>
<path d="M20.1904 79.3936C20.1904 79.4509 19.7735 79.3936 19.2259 79.083C18.8914 78.9152 18.5808 78.7035 18.3022 78.4537C18.008 78.1676 17.6892 77.8325 17.3868 77.4728C16.5947 76.6311 15.9902 75.631 15.613 74.5384C15.7029 74.4894 16.4304 75.8217 17.6565 77.2439C18.3436 78.1278 19.2064 78.8597 20.1904 79.3936Z" fill="white"/>
<path d="M20.0025 53.3438C19.8575 53.9151 19.6376 54.4648 19.3486 54.9785C18.7257 56.2507 17.9956 57.4675 17.1662 58.6158C16.3388 59.7657 15.4027 60.8332 14.3707 61.8036C13.9664 62.2334 13.5043 62.6047 12.9976 62.9071C13.3698 62.4562 13.7711 62.0303 14.1991 61.632C15.1596 60.6159 16.0551 59.5403 16.8801 58.4115C17.6982 57.2741 18.4488 56.0896 19.1279 54.8641C19.3788 54.335 19.6712 53.8266 20.0025 53.3438Z" fill="white"/>
<path d="M20.1906 65.2856C19.6612 64.8366 19.1841 64.3293 18.7683 63.7735C17.6973 62.4917 16.7323 61.1249 15.883 59.6866C15.0286 58.2467 14.3221 56.7241 13.7741 55.142C13.6038 54.6637 13.4646 54.175 13.3573 53.6789C13.2952 53.5004 13.2674 53.3118 13.2755 53.123C13.3328 53.123 13.5453 53.875 14.003 55.0602C14.6128 56.5974 15.3425 58.0841 16.1854 59.5068C17.0336 60.9206 17.9615 62.2851 18.9645 63.5937C19.4064 64.1328 19.8158 64.6978 20.1906 65.2856Z" fill="white"/>
<path d="M20.1741 62.1387C19.9851 62.792 19.6622 63.3988 19.226 63.9206C18.5966 64.836 17.9182 65.4736 17.8364 65.3837C18.1578 64.8107 18.5241 64.2641 18.9317 63.7489C19.271 63.1584 19.689 62.6167 20.1741 62.1387Z" fill="white"/>
<path d="M16.1772 50.9657L16.97 50.9412L17.0027 50.3281L15.8748 50.4017L16.1772 50.9657Z" fill="#455A64"/>
<path d="M16.2097 90.2734C16.2528 90.5168 16.2528 90.7658 16.2097 91.0091H17.0843V90.2734H16.2097Z" fill="#455A64"/>
<path d="M19.6511 69.8142C17.8088 70.0539 15.9433 70.0539 14.1011 69.8142C15.944 69.5854 17.8081 69.5854 19.6511 69.8142Z" fill="#263238"/>
<path d="M40.2815 90.3064C39.3277 90.3064 38.4129 89.9274 37.7385 89.253C37.064 88.5785 36.6851 87.6637 36.6851 86.7099V54.5379C36.6851 53.584 37.064 52.6693 37.7385 51.9948C38.4129 51.3203 39.3277 50.9414 40.2815 50.9414C41.2354 50.9414 42.1502 51.3203 42.8246 51.9948C43.4991 52.6693 43.878 53.584 43.878 54.5379V86.7099C43.878 87.6637 43.4991 88.5785 42.8246 89.253C42.1502 89.9274 41.2354 90.3064 40.2815 90.3064Z" fill="#455A64"/>
<path d="M38.8757 93.6415C38.9738 93.5435 40.159 91.3611 39.8975 90.3066H40.7966C40.6694 91.5079 41.0056 92.7125 41.7366 93.6742L38.8757 93.6415Z" fill="#455A64"/>
<path d="M39.8648 50.9658L38.4834 48.5137H41.9082C41.4827 48.7933 41.1419 49.1842 40.9229 49.6439C40.7039 50.1036 40.615 50.6145 40.6658 51.1211L39.8648 50.9658Z" fill="#455A64"/>
<path d="M43.878 65.2871H36.6851V74.5235H43.878V65.2871Z" fill="#E0E0E0"/>
<path d="M36.6934 84.2077C37.063 83.7443 37.4616 83.3047 37.8867 82.8917C38.857 81.8581 39.7633 80.7662 40.6004 79.6222C42.554 76.9167 43.7719 74.4809 43.8699 74.5381C43.688 75.108 43.4441 75.6562 43.1425 76.1729C42.4782 77.4471 41.7214 78.671 40.8783 79.8347C40.0377 81.0065 39.094 82.1007 38.0584 83.1042C37.6501 83.5264 37.1917 83.897 36.6934 84.2077Z" fill="white"/>
<path d="M43.878 83.0078C43.8603 83.4528 43.7518 83.8895 43.5592 84.2911C43.1658 85.2911 42.6138 86.2212 41.9245 87.0457C41.2512 87.8801 40.4579 88.61 39.5704 89.2117C39.2168 89.4822 38.8145 89.682 38.3853 89.8002C38.7125 89.5048 39.0593 89.2317 39.4233 88.9829C40.246 88.3376 40.9944 87.6029 41.6548 86.7923C42.3025 85.9861 42.8513 85.1052 43.2895 84.1685C43.4582 83.7683 43.6549 83.3804 43.878 83.0078Z" fill="white"/>
<path d="M43.3795 88.5723C42.8476 88.3824 42.3505 88.1063 41.9082 87.755C40.7978 86.99 39.8226 86.0452 39.0229 84.9595C38.2279 83.8716 37.5895 82.6775 37.1266 81.4121C36.912 80.8882 36.7664 80.3387 36.6934 79.7773C37.4023 81.4924 38.2755 83.1348 39.3008 84.6816C40.4462 86.186 41.8228 87.4992 43.3795 88.5723Z" fill="white"/>
<path d="M43.878 79.3936C43.878 79.4509 43.4611 79.3936 42.9135 79.083C42.5779 78.9172 42.267 78.7053 41.9898 78.4537C41.6874 78.1676 41.3768 77.8325 41.0662 77.4728C40.2779 76.6283 39.6738 75.629 39.2925 74.5384C39.3906 74.4894 40.1099 75.8217 41.3359 77.2439C42.0268 78.1273 42.8921 78.859 43.878 79.3936Z" fill="white"/>
<path d="M43.69 53.3438C43.5403 53.9135 43.3206 54.4626 43.0361 54.9785C42.4132 56.2507 41.6831 57.4675 40.8537 58.6158C40.0238 59.7637 39.0879 60.831 38.0583 61.8036C37.6499 62.2289 37.1883 62.5998 36.6851 62.9071C37.0527 62.4548 37.4514 62.0287 37.8784 61.632C38.8443 60.6184 39.7426 59.5426 40.5676 58.4115C41.3805 57.2723 42.1283 56.0879 42.8072 54.8641C43.0624 54.3356 43.3575 53.8274 43.69 53.3438Z" fill="white"/>
<path d="M43.8782 65.2856C43.3473 64.8357 42.8676 64.3286 42.4478 63.7735C41.3824 62.4892 40.4204 61.1227 39.5706 59.6866C38.7108 58.2484 38.0014 56.7255 37.4536 55.142C37.2872 54.6625 37.148 54.174 37.0368 53.6789C36.9798 53.4992 36.9522 53.3115 36.955 53.123C37.0123 53.123 37.2248 53.875 37.6907 55.0602C38.3004 56.5974 39.0302 58.0841 39.8731 59.5068C40.716 60.9221 41.6413 62.2867 42.644 63.5937C43.0899 64.1317 43.5021 64.6968 43.8782 65.2856Z" fill="white"/>
<path d="M43.8619 62.1387C43.6646 62.7903 43.3395 63.396 42.9055 63.9206C42.2843 64.836 41.6059 65.4736 41.5242 65.3837C41.8456 64.8107 42.2118 64.2641 42.6195 63.7489C42.9556 63.1563 43.3739 62.6142 43.8619 62.1387Z" fill="white"/>
<path d="M39.8648 50.9657L40.6577 50.9412L40.6904 50.3281L39.5542 50.4017L39.8648 50.9657Z" fill="#455A64"/>
<path d="M39.9138 90.2734C39.9616 90.5163 39.9616 90.7662 39.9138 91.0091H40.7884V90.2734H39.9138Z" fill="#455A64"/>
<path d="M43.3304 69.8142C41.4909 70.054 39.6281 70.054 37.7886 69.8142C39.6288 69.5854 41.4902 69.5854 43.3304 69.8142Z" fill="#263238"/>
<path d="M28.4705 90.3064C27.5166 90.3064 26.6019 89.9274 25.9274 89.253C25.2529 88.5785 24.874 87.6637 24.874 86.7099V54.5379C24.874 53.584 25.2529 52.6693 25.9274 51.9948C26.6019 51.3203 27.5166 50.9414 28.4705 50.9414C29.4243 50.9414 30.3391 51.3203 31.0136 51.9948C31.688 52.6693 32.0669 53.584 32.0669 54.5379V86.7099C32.0669 87.6637 31.688 88.5785 31.0136 89.253C30.3391 89.9274 29.4243 90.3064 28.4705 90.3064Z" fill="#AE7461"/>
<path d="M27.0811 93.6415C27.1791 93.5435 28.3643 91.3611 28.1028 90.3066H29.0019C28.8747 91.5079 29.2109 92.7125 29.9419 93.6742L27.0811 93.6415Z" fill="#AE7461"/>
<path d="M28.0701 50.9658L26.6887 48.5137H30.1054C29.6799 48.7933 29.3391 49.1842 29.1201 49.6439C28.901 50.1036 28.8121 50.6145 28.863 51.1211L28.0701 50.9658Z" fill="#AE7461"/>
<path d="M32.0833 65.2871H24.8904V74.5235H32.0833V65.2871Z" fill="#E0E0E0"/>
<path d="M24.8987 84.2077C25.2683 83.7443 25.6669 83.3047 26.092 82.8917C27.0623 81.8581 27.9686 80.7662 28.8057 79.6222C30.7593 76.9167 31.9772 74.4809 32.0753 74.5381C31.8933 75.108 31.6494 75.6562 31.3478 76.1729C30.6835 77.4471 29.9268 78.671 29.0837 79.8347C28.2431 81.0065 27.2993 82.1007 26.2637 83.1042C25.8554 83.5264 25.397 83.897 24.8987 84.2077Z" fill="white"/>
<path d="M32.0834 83.0078C32.0656 83.4528 31.9571 83.8895 31.7646 84.2911C31.3711 85.2911 30.8191 86.2212 30.1298 87.0457C29.4565 87.8801 28.6632 88.61 27.7758 89.2117C27.4222 89.4822 27.0198 89.682 26.5906 89.8002C26.9178 89.5048 27.2646 89.2317 27.6286 88.9829C28.4513 88.3376 29.1997 87.6029 29.8601 86.7923C30.5078 85.9861 31.0567 85.1052 31.4948 84.1685C31.6636 83.7683 31.8602 83.3804 32.0834 83.0078Z" fill="white"/>
<path d="M31.5848 88.5723C31.0529 88.3824 30.5558 88.1063 30.1136 87.755C29.0031 86.99 28.0279 86.0452 27.2282 84.9595C26.4332 83.8716 25.7948 82.6775 25.3319 81.4121C25.1173 80.8882 24.9717 80.3387 24.8987 79.7773C25.5997 81.4961 26.4733 83.1393 27.5061 84.6816C28.6515 86.186 30.0281 87.4992 31.5848 88.5723Z" fill="white"/>
<path d="M32.0833 79.3936C32.0833 79.4509 31.6664 79.3936 31.1106 79.083C30.7789 78.9149 30.471 78.7032 30.1951 78.4537C29.8927 78.1676 29.5821 77.8325 29.2715 77.4728C28.4832 76.6283 27.8791 75.629 27.4978 74.5384C27.5877 74.4894 28.3152 75.8217 29.5412 77.2439C30.2322 78.1273 31.0975 78.859 32.0833 79.3936Z" fill="white"/>
<path d="M31.8953 53.3438C31.7446 53.9144 31.5221 54.4637 31.2332 54.9785C30.6167 56.2524 29.8891 57.4696 29.059 58.6158C28.2292 59.7637 27.2932 60.831 26.2636 61.8036C25.8552 62.2289 25.3936 62.5998 24.8904 62.9071C25.258 62.4548 25.6567 62.0287 26.0837 61.632C27.0496 60.6184 27.9479 59.5426 28.7729 58.4115C29.5859 57.2723 30.3336 56.0879 31.0125 54.8641C31.2677 54.3356 31.5629 53.8274 31.8953 53.3438Z" fill="white"/>
<path d="M32.0833 65.2856C31.5524 64.8357 31.0727 64.3286 30.6529 63.7735C29.5848 62.4913 28.6226 61.1245 27.7757 59.6866C26.9159 58.2484 26.2065 56.7255 25.6587 55.142C25.4922 54.6625 25.3531 54.174 25.2418 53.6789C25.1848 53.4992 25.1572 53.3115 25.1601 53.123C25.2173 53.123 25.4298 53.875 25.8958 55.0602C26.5055 56.5974 27.2352 58.0841 28.0781 59.5068C28.9211 60.9221 29.8463 62.2867 30.8491 63.5937C31.295 64.1317 31.7072 64.6968 32.0833 65.2856Z" fill="white"/>
<path d="M32.0669 62.1387C31.8697 62.7903 31.5446 63.396 31.1106 63.9206C30.4894 64.836 29.811 65.4736 29.7292 65.3837C30.0506 64.8107 30.4169 64.2641 30.8245 63.7489C31.1607 63.1563 31.579 62.6142 32.0669 62.1387Z" fill="white"/>
<path d="M28.0701 50.9657L28.863 50.9412L28.8957 50.3281L27.7595 50.4017L28.0701 50.9657Z" fill="#455A64"/>
<path d="M28.0945 90.2734C28.1423 90.5163 28.1423 90.7662 28.0945 91.0091H28.9691V90.2734H28.0945Z" fill="#455A64"/>
<path d="M31.5357 69.8142C29.6962 70.054 27.8334 70.054 25.9939 69.8142C27.8341 69.5854 29.6955 69.5854 31.5357 69.8142Z" fill="#263238"/>
<path d="M209.929 163.869C209.929 163.967 162.063 164.049 103.032 164.049C44.0006 164.049 -3.88135 163.967 -3.88135 163.869C-3.88135 163.771 43.9761 163.689 103.032 163.689C162.087 163.689 209.929 163.771 209.929 163.869Z" fill="#263238"/>
<mask id="mask0_752_28525" style="mask-type:alpha" maskUnits="userSpaceOnUse" x="19" y="40" width="161" height="155">
<path fill-rule="evenodd" clip-rule="evenodd" d="M96.6489 40.0786C72.5164 41.5624 60.8087 65.3973 46.0572 82.1754C34.101 95.7741 23.0389 109.409 20.7142 126.445C18.0291 146.122 16.4425 168.605 32.3369 182.721C48.2827 196.882 74.0361 195.809 96.6489 193.883C119.863 194.322 138.62 187.342 149.552 172.737C165.068 160.174 178.921 144.922 179.935 126.445C180.989 107.244 169.055 90.1752 154.888 75.4837C139.04 59.05 121.162 38.5713 96.6489 40.0786Z" fill="#FFF3CC"/>
</mask>
<g mask="url(#mask0_752_28525)">
<path d="M209.561 157.969H-4.21631V163.821H209.561V157.969Z" fill="#AE7461"/>
<path d="M204.182 163.82H0.622559V269.499H204.182V163.82Z" fill="#AE7461"/>
<path d="M191.808 255.817C191.808 255.817 191.808 255.319 191.808 254.354C191.808 253.39 191.808 251.976 191.808 250.112C191.808 246.385 191.808 240.9 191.808 233.838C191.808 219.722 191.759 199.312 191.726 174.104L191.881 174.251L13.0878 174.316L13.3003 174.104C13.3003 202.827 13.3003 230.503 13.3003 255.842L13.096 255.637L141.473 255.736L178.558 255.785H188.465H191.031H191.906H191.088H188.546H178.681L141.645 255.842L13.1287 255.932H12.9243V255.736C12.9243 230.397 12.9243 202.745 12.9243 173.998V173.785H13.1532L191.947 173.842V173.998C191.947 199.247 191.881 219.689 191.865 233.822C191.865 240.876 191.865 246.344 191.865 250.071C191.865 251.918 191.865 253.341 191.865 254.281C191.865 255.221 191.808 255.817 191.808 255.817Z" fill="#263238"/>
</g>
<path d="M94.1467 152.991L87.6649 155.304C87.6649 155.304 88.8746 157.838 87.2154 158.393C85.5561 158.949 85.4907 155.737 85.4907 155.737C85.4907 155.737 82.8751 153.228 85.0411 152.672C87.2072 152.116 87.1173 153.775 87.1173 153.775L94.1059 150.906L94.1467 152.991Z" fill="white"/>
<path d="M93.1088 152.37C89.7167 143.477 111.009 132.639 111.009 132.639L123.27 156.841C123.27 156.841 96.8688 162.22 93.1088 152.37Z" fill="#6F4439"/>
<path d="M123.286 156.841C129.736 155.525 124.251 130.3 112.947 131.886C101.642 133.472 108.525 159.898 123.286 156.841Z" fill="#FF9A6C"/>
<path d="M123.09 155.688C129.008 154.487 123.973 131.33 113.601 132.802C103.228 134.273 109.571 158.451 123.09 155.688Z" fill="#FFD000"/>
<path d="M116.617 144.718C115.881 142.953 115.897 141.269 116.617 140.95C117.336 140.631 118.57 141.817 119.298 143.582C120.025 145.348 120.017 147.032 119.298 147.342C118.578 147.653 117.344 146.484 116.617 144.718Z" fill="#E0E0E0"/>
<path d="M159.039 112.449H158V132.352H159.039V112.449Z" fill="#263238"/>
<path d="M167.068 103.493L146.295 105.871L147.504 116.428L168.277 114.05L167.068 103.493Z" fill="#E0E0E0"/>
<path d="M168.283 114.027C168.279 113.961 168.279 113.896 168.283 113.83C168.283 113.683 168.258 113.495 168.209 113.266C168.144 112.76 168.046 112.048 167.931 111.158C167.711 109.31 167.384 106.703 166.991 103.482L167.13 103.597L146.361 106.049L146.508 105.861V106.024V106.204L146.549 106.548L146.631 107.242L146.786 108.615C146.892 109.523 146.99 110.422 147.088 111.305C147.293 113.07 147.481 114.778 147.669 116.413L147.489 116.266L162.382 114.631L166.705 114.182L167.866 114.067C168.005 114.056 168.144 114.056 168.283 114.067C168.159 114.097 168.034 114.116 167.907 114.125L166.779 114.28L162.504 114.811L147.53 116.577H147.374V116.421L146.786 111.321C146.688 110.438 146.582 109.539 146.475 108.632C146.426 108.174 146.369 107.716 146.32 107.259L146.238 106.564V106.212V106.041V105.877L146.394 105.689L167.163 103.352H167.294V103.499C167.637 106.768 167.915 109.4 168.111 111.264C168.193 112.147 168.267 112.849 168.316 113.356C168.316 113.569 168.316 113.749 168.365 113.888C168.414 114.027 168.283 114.027 168.283 114.027Z" fill="#263238"/>
<path d="M163.877 109.359C163.33 109.535 162.766 109.653 162.193 109.711C161.147 109.882 159.7 110.103 158.107 110.315C156.513 110.528 155.05 110.716 154.02 110.83C153.452 110.922 152.878 110.961 152.303 110.945C152.851 110.769 153.415 110.651 153.987 110.593C155.033 110.422 156.48 110.201 158.074 109.98C159.668 109.76 161.131 109.588 162.161 109.474C162.728 109.376 163.303 109.338 163.877 109.359Z" fill="#263238"/>
<path d="M157.551 127.906C156.954 128.017 156.391 128.267 155.907 128.635C155.423 129.002 155.032 129.477 154.764 130.023C154.198 131.17 153.955 132.45 154.061 133.725L162.439 134.78C162.432 133.15 162.04 131.545 161.294 130.096C160.945 129.411 160.407 128.841 159.743 128.453C159.08 128.065 158.319 127.875 157.551 127.906Z" fill="white"/>
<path d="M157.551 127.906C157.781 127.825 158.029 127.802 158.27 127.84C158.946 127.896 159.591 128.149 160.126 128.568C160.947 129.196 161.572 130.047 161.924 131.02C162.365 132.22 162.608 133.485 162.643 134.763V135.009H162.398L159.251 134.559L154.077 133.897H153.913V133.742C153.848 132.707 153.992 131.67 154.339 130.693C154.613 129.93 155.077 129.249 155.687 128.715C156.078 128.364 156.545 128.109 157.052 127.971C157.227 127.908 157.415 127.886 157.6 127.906C156.946 128.093 156.345 128.428 155.843 128.886C155.247 129.53 154.801 130.296 154.534 131.13C154.267 131.965 154.186 132.848 154.298 133.717L154.134 133.537L159.316 134.167L162.512 134.575L162.283 134.788C162.261 133.547 162.046 132.317 161.646 131.142C161.324 130.222 160.76 129.405 160.011 128.78C159.521 128.362 158.929 128.08 158.295 127.963C157.804 127.906 157.559 127.938 157.551 127.906Z" fill="#263238"/>
<path d="M148.364 127.906C147.766 128.017 147.203 128.267 146.72 128.635C146.236 129.002 145.844 129.477 145.576 130.023C145.003 131.168 144.76 132.45 144.873 133.725L153.251 134.78C153.245 133.15 152.853 131.545 152.107 130.096C151.758 129.411 151.22 128.841 150.556 128.453C149.893 128.065 149.132 127.875 148.364 127.906Z" fill="white"/>
<path d="M148.364 127.906C148.594 127.825 148.841 127.802 149.083 127.84C149.759 127.896 150.404 128.149 150.938 128.568C151.76 129.196 152.384 130.047 152.737 131.02C153.178 132.22 153.421 133.485 153.456 134.763V135.009H153.219L150.015 134.616L144.841 133.954H144.677V133.742C144.611 132.707 144.756 131.67 145.102 130.693C145.376 129.93 145.841 129.249 146.451 128.715C146.841 128.364 147.309 128.109 147.816 127.971C147.991 127.908 148.178 127.886 148.364 127.906C147.709 128.091 147.107 128.427 146.606 128.886C146.01 129.529 145.562 130.295 145.295 131.13C145.028 131.964 144.948 132.848 145.061 133.717L144.898 133.537L150.08 134.167L153.276 134.575L153.047 134.788C153.02 133.548 152.805 132.318 152.41 131.142C152.088 130.222 151.523 129.405 150.775 128.78C150.284 128.362 149.692 128.08 149.058 127.963C148.625 127.906 148.372 127.938 148.364 127.906Z" fill="#263238"/>
<path d="M166.763 127.906C166.164 128.016 165.599 128.265 165.114 128.633C164.629 129.001 164.236 129.476 163.967 130.023C163.402 131.17 163.159 132.45 163.264 133.725L171.642 134.78C171.64 133.15 171.247 131.544 170.498 130.096C170.151 129.412 169.614 128.841 168.952 128.453C168.29 128.064 167.53 127.874 166.763 127.906Z" fill="white"/>
<path d="M166.763 127.905C166.99 127.822 167.235 127.8 167.474 127.84C168.152 127.897 168.8 128.15 169.337 128.567C170.154 129.2 170.777 130.05 171.136 131.019C171.574 132.22 171.815 133.485 171.847 134.763V135.008H171.602L168.406 134.616L163.223 133.954H163.06V133.741C162.994 132.707 163.139 131.669 163.485 130.692C163.762 129.931 164.226 129.251 164.834 128.714C165.225 128.365 165.692 128.11 166.199 127.97C166.377 127.907 166.567 127.885 166.755 127.905C166.097 128.089 165.492 128.425 164.989 128.886C164.395 129.53 163.95 130.296 163.685 131.131C163.419 131.965 163.34 132.848 163.452 133.717L163.281 133.537L168.463 134.166L171.659 134.575L171.43 134.787C171.407 133.547 171.192 132.317 170.792 131.142C170.477 130.218 169.911 129.4 169.158 128.78C168.667 128.361 168.075 128.079 167.441 127.962C167.016 127.905 166.763 127.938 166.763 127.905Z" fill="#263238"/>
<path d="M175.967 127.906C175.369 128.016 174.805 128.265 174.321 128.633C173.837 129.001 173.446 129.477 173.179 130.023C172.607 131.168 172.361 132.449 172.468 133.725L180.846 134.78C180.848 133.149 180.455 131.542 179.702 130.096C179.355 129.412 178.818 128.841 178.156 128.453C177.494 128.064 176.734 127.874 175.967 127.906Z" fill="white"/>
<path d="M175.967 127.907C176.197 127.824 176.444 127.802 176.686 127.841C177.362 127.897 178.007 128.15 178.541 128.569C179.363 129.197 179.987 130.048 180.339 131.021C180.777 132.222 181.02 133.486 181.059 134.764V135.01H180.814L177.618 134.617L172.435 133.955H172.28V133.743C172.21 132.708 172.355 131.67 172.705 130.694C172.976 129.929 173.441 129.248 174.054 128.716C174.442 128.362 174.911 128.106 175.419 127.972C175.594 127.909 175.781 127.886 175.967 127.907C175.311 128.09 174.709 128.426 174.209 128.887C173.613 129.53 173.165 130.295 172.898 131.13C172.631 131.965 172.551 132.849 172.664 133.718L172.493 133.538L177.675 134.168L180.879 134.576L180.642 134.789C180.622 133.548 180.41 132.319 180.013 131.143C179.694 130.221 179.128 129.404 178.378 128.781C177.89 128.363 177.301 128.081 176.669 127.964C176.22 127.907 175.967 127.939 175.967 127.907Z" fill="#263238"/>
<path d="M188.914 130.096C188.564 129.411 188.026 128.841 187.362 128.453C186.699 128.065 185.938 127.875 185.17 127.906C184.573 128.017 184.01 128.267 183.526 128.635C183.042 129.002 182.651 129.477 182.383 130.023C181.81 131.168 181.566 132.45 181.68 133.725L190.058 134.78C190.051 133.15 189.659 131.545 188.914 130.096Z" fill="white"/>
<path d="M188.914 130.097C188.997 130.177 189.067 130.271 189.118 130.375C189.285 130.658 189.43 130.953 189.551 131.258C189.957 132.387 190.183 133.573 190.222 134.772V134.969H190.017L182.269 134.045L181.631 133.963H181.459V133.743C181.293 132.111 181.742 130.475 182.718 129.157C183.171 128.599 183.763 128.171 184.435 127.915C185.024 127.699 185.666 127.668 186.274 127.825C187.126 128.075 187.878 128.587 188.423 129.288C188.636 129.526 188.8 129.804 188.906 130.105C188.906 130.105 188.701 129.835 188.301 129.402C187.741 128.779 187.011 128.332 186.2 128.119C185.655 128.002 185.087 128.044 184.565 128.242C183.965 128.495 183.438 128.897 183.037 129.41C182.136 130.665 181.729 132.207 181.893 133.743L181.705 133.538L182.334 133.62L190.075 134.633L189.887 134.813C189.873 133.64 189.699 132.474 189.372 131.348C189.118 130.53 188.873 130.122 188.914 130.097Z" fill="#263238"/>
<path d="M192.674 134.919H140.607H131.305V133.211H192.674V134.919Z" fill="#FFD000"/>
<path d="M136.201 137.207L132.547 134.787H190.965L189.143 137.207H136.201Z" fill="#FFD000"/>
<path d="M192.052 134.92C192.052 135.042 178.394 135.132 161.54 135.132C144.685 135.132 131.019 135.042 131.019 134.92C131.019 134.797 144.677 134.707 161.54 134.707C178.402 134.707 192.052 134.805 192.052 134.92Z" fill="#263238"/>
<path d="M157.551 137.763C156.953 137.874 156.39 138.123 155.906 138.491C155.422 138.858 155.031 139.334 154.764 139.88C154.198 141.028 153.955 142.308 154.061 143.583L162.439 144.629C162.432 143.002 162.04 141.4 161.294 139.954C160.946 139.268 160.408 138.698 159.744 138.309C159.08 137.921 158.319 137.731 157.551 137.763Z" fill="white"/>
<path d="M157.551 137.764C157.781 137.682 158.028 137.657 158.27 137.69C158.946 137.754 159.59 138.009 160.126 138.426C160.947 139.055 161.571 139.906 161.924 140.878C162.366 142.081 162.609 143.348 162.643 144.63V144.875H162.398L159.194 144.483L154.02 143.812H153.856V143.649C153.791 142.617 153.936 141.582 154.281 140.608C154.559 139.845 155.023 139.162 155.63 138.622C156.023 138.274 156.49 138.019 156.995 137.878C157.17 137.814 157.358 137.794 157.543 137.821C156.887 138.003 156.285 138.34 155.785 138.802C155.19 139.443 154.744 140.208 154.477 141.041C154.21 141.875 154.129 142.756 154.241 143.624L154.077 143.444L159.259 144.074L162.455 144.483L162.226 144.695C162.203 143.457 161.988 142.23 161.589 141.058C161.269 140.134 160.704 139.314 159.954 138.687C159.461 138.272 158.87 137.991 158.238 137.87C157.804 137.764 157.559 137.829 157.551 137.764Z" fill="#263238"/>
<path d="M148.364 137.763C147.766 137.874 147.202 138.123 146.718 138.491C146.234 138.858 145.843 139.334 145.576 139.88C145.003 141.025 144.76 142.307 144.873 143.583L153.251 144.629C153.245 143.002 152.853 141.4 152.107 139.954C151.759 139.268 151.22 138.698 150.557 138.309C149.893 137.921 149.132 137.731 148.364 137.763Z" fill="white"/>
<path d="M148.364 137.764C148.594 137.682 148.841 137.657 149.083 137.69C149.759 137.754 150.402 138.009 150.938 138.426C151.759 139.055 152.383 139.906 152.737 140.878C153.179 142.081 153.422 143.348 153.456 144.63V144.875H153.219L150.015 144.483L144.841 143.812H144.677V143.649C144.612 142.617 144.756 141.582 145.102 140.608C145.38 139.845 145.844 139.162 146.451 138.622C146.837 138.257 147.301 137.986 147.808 137.829C147.983 137.765 148.171 137.745 148.355 137.772C147.699 137.952 147.096 138.289 146.598 138.753C146.001 139.393 145.553 140.157 145.286 140.991C145.019 141.825 144.94 142.707 145.053 143.575L144.89 143.395L150.072 144.025L153.268 144.433L153.039 144.646C153.011 143.408 152.796 142.182 152.401 141.009C152.082 140.085 151.517 139.265 150.767 138.638C150.274 138.223 149.683 137.942 149.05 137.821C148.625 137.764 148.372 137.829 148.364 137.764Z" fill="#263238"/>
<path d="M139.176 137.763C138.578 137.874 138.015 138.123 137.531 138.491C137.047 138.858 136.656 139.334 136.389 139.88C135.816 141.025 135.572 142.307 135.686 143.583L144.064 144.629C144.058 143.002 143.665 141.4 142.92 139.954C142.571 139.268 142.033 138.698 141.369 138.309C140.706 137.921 139.944 137.731 139.176 137.763Z" fill="white"/>
<path d="M139.176 137.764C139.407 137.682 139.653 137.657 139.896 137.69C140.571 137.754 141.215 138.009 141.751 138.426C142.572 139.055 143.196 139.906 143.549 140.878C143.992 142.081 144.235 143.348 144.269 144.63V144.875H144.032L140.827 144.483L135.653 143.812H135.49V143.649C135.424 142.617 135.569 141.582 135.915 140.608C136.193 139.845 136.656 139.162 137.264 138.622C137.655 138.272 138.122 138.018 138.629 137.878C138.804 137.814 138.992 137.794 139.176 137.821C138.52 138.002 137.917 138.338 137.419 138.802C136.822 139.442 136.374 140.207 136.107 141.04C135.84 141.874 135.761 142.756 135.874 143.624L135.711 143.444L140.893 144.074L144.089 144.483L143.86 144.695C143.832 143.457 143.617 142.231 143.222 141.058C142.903 140.134 142.338 139.314 141.588 138.687C141.095 138.272 140.504 137.991 139.871 137.87C139.43 137.764 139.176 137.829 139.176 137.764Z" fill="#263238"/>
<path d="M166.763 137.764C166.163 137.872 165.598 138.121 165.112 138.488C164.627 138.856 164.234 139.333 163.967 139.881C163.402 141.028 163.159 142.308 163.264 143.583L171.642 144.629C171.64 143.002 171.248 141.399 170.498 139.954C170.152 139.268 169.616 138.696 168.954 138.308C168.291 137.919 167.53 137.73 166.763 137.764Z" fill="white"/>
<path d="M166.763 137.763C166.99 137.679 167.234 137.654 167.474 137.689C168.152 137.754 168.798 138.009 169.338 138.425C170.154 139.059 170.777 139.908 171.136 140.877C171.575 142.081 171.815 143.348 171.847 144.629V144.874H171.602L168.406 144.482L163.223 143.812H163.06V143.648C162.995 142.616 163.139 141.582 163.485 140.607C163.763 139.844 164.227 139.161 164.834 138.621C165.228 138.274 165.694 138.02 166.199 137.877C166.377 137.814 166.567 137.794 166.755 137.82C166.095 138 165.49 138.336 164.989 138.801C164.396 139.443 163.95 140.208 163.685 141.041C163.419 141.875 163.34 142.756 163.452 143.624L163.281 143.444L168.463 144.073L171.659 144.482L171.43 144.694C171.407 143.456 171.192 142.229 170.792 141.057C170.479 140.13 169.913 139.309 169.158 138.687C168.665 138.272 168.074 137.99 167.441 137.869C167.016 137.763 166.763 137.828 166.763 137.763Z" fill="#263238"/>
<path d="M175.967 137.764C175.368 137.873 174.804 138.122 174.32 138.489C173.836 138.857 173.445 139.334 173.179 139.881C172.607 141.026 172.361 142.307 172.468 143.583L180.846 144.629C180.848 143.002 180.455 141.397 179.702 139.954C179.356 139.268 178.82 138.696 178.157 138.308C177.495 137.919 176.734 137.73 175.967 137.764Z" fill="white"/>
<path d="M175.966 137.763C176.197 137.68 176.444 137.654 176.686 137.689C177.362 137.753 178.005 138.008 178.541 138.425C179.362 139.054 179.986 139.904 180.339 140.877C180.778 142.081 181.021 143.348 181.059 144.628V144.874H180.814L177.618 144.481L172.435 143.811H172.28V143.648C172.211 142.616 172.355 141.58 172.705 140.607C172.978 139.841 173.443 139.157 174.054 138.621C174.445 138.271 174.913 138.016 175.419 137.877C175.594 137.813 175.782 137.793 175.966 137.82C175.31 137.999 174.706 138.335 174.209 138.801C173.612 139.441 173.164 140.205 172.897 141.039C172.63 141.873 172.551 142.755 172.664 143.623L172.493 143.443L177.675 144.073L180.879 144.481L180.642 144.694C180.621 143.456 180.409 142.229 180.013 141.057C179.696 140.131 179.13 139.311 178.378 138.686C177.888 138.271 177.3 137.99 176.669 137.869C176.22 137.762 175.966 137.828 175.966 137.763Z" fill="#263238"/>
<path d="M188.914 139.954C188.565 139.268 188.027 138.698 187.363 138.309C186.7 137.921 185.938 137.731 185.17 137.763C184.572 137.874 184.009 138.123 183.525 138.491C183.041 138.858 182.65 139.334 182.383 139.88C181.81 141.025 181.566 142.307 181.68 143.583L190.058 144.629C190.051 143.002 189.659 141.4 188.914 139.954Z" fill="white"/>
<path d="M188.914 139.954C188.914 139.954 189.004 140.036 189.118 140.232C189.288 140.513 189.433 140.808 189.551 141.115C189.956 142.242 190.182 143.425 190.222 144.621V144.818H190.017L182.269 143.894L181.631 143.82H181.459V143.64C181.291 142.011 181.74 140.377 182.718 139.063C183.172 138.504 183.763 138.073 184.435 137.813C185.025 137.6 185.667 137.571 186.274 137.731C187.125 137.979 187.877 138.488 188.423 139.186C188.635 139.425 188.799 139.702 188.906 140.003C188.906 140.003 188.701 139.733 188.301 139.292C187.738 138.674 187.009 138.231 186.2 138.017C185.655 137.896 185.086 137.938 184.565 138.14C183.965 138.393 183.438 138.795 183.037 139.308C182.156 140.538 181.75 142.045 181.893 143.551L181.705 143.354L182.334 143.436L190.075 144.45L189.886 144.621C189.873 143.451 189.699 142.288 189.372 141.164C189.118 140.379 188.873 139.97 188.914 139.954Z" fill="#263238"/>
<path d="M192.674 145.267H140.607H131.305V143.551H192.674V145.267Z" fill="#FFD000"/>
<path d="M136.201 147.556L132.547 145.137H190.965L189.143 147.556H136.201Z" fill="#FFD000"/>
<path d="M192.052 145.267C192.052 145.382 178.394 145.48 161.54 145.48C144.685 145.48 131.019 145.382 131.019 145.267C131.019 145.153 144.677 145.055 161.54 145.055C178.402 145.055 192.052 145.185 192.052 145.267Z" fill="#263238"/>
<path d="M157.551 148.102C156.954 148.214 156.391 148.464 155.907 148.831C155.423 149.199 155.032 149.674 154.764 150.219C154.2 151.367 153.957 152.647 154.061 153.922L162.439 154.993C162.432 153.363 162.04 151.758 161.295 150.309C160.946 149.623 160.408 149.05 159.745 148.659C159.082 148.268 158.32 148.075 157.551 148.102Z" fill="white"/>
<path d="M157.551 148.103C157.782 148.022 158.029 148 158.27 148.037C158.946 148.101 159.59 148.357 160.126 148.773C160.95 149.399 161.575 150.251 161.924 151.225C162.366 152.428 162.609 153.696 162.643 154.977V155.214H162.398L159.194 154.822L154.02 154.151H153.856V153.996C153.79 152.964 153.935 151.93 154.281 150.956C154.556 150.19 155.02 149.507 155.63 148.969C156.023 148.621 156.49 148.367 156.995 148.225C157.17 148.162 157.358 148.14 157.543 148.16C156.889 148.347 156.288 148.683 155.785 149.141C155.191 149.785 154.745 150.551 154.478 151.385C154.211 152.22 154.13 153.103 154.241 153.972L154.077 153.792L159.259 154.421L162.455 154.83L162.226 155.042C162.204 153.802 161.989 152.572 161.589 151.397C161.267 150.476 160.702 149.66 159.954 149.035C159.464 148.616 158.872 148.334 158.238 148.217C157.804 148.103 157.559 148.136 157.551 148.103Z" fill="#263238"/>
<path d="M148.364 148.102C147.766 148.214 147.204 148.464 146.72 148.831C146.236 149.199 145.844 149.674 145.576 150.219C145.005 151.365 144.762 152.646 144.873 153.922L153.252 154.993C153.245 153.363 152.853 151.758 152.107 150.309C151.759 149.623 151.221 149.05 150.558 148.659C149.894 148.268 149.133 148.075 148.364 148.102Z" fill="white"/>
<path d="M148.364 148.103C148.594 148.022 148.841 148 149.083 148.037C149.759 148.101 150.402 148.357 150.938 148.773C151.763 149.399 152.388 150.251 152.737 151.225C153.179 152.428 153.422 153.696 153.456 154.977V155.214H153.219L150.015 154.822L144.841 154.151H144.677V153.996C144.611 152.964 144.756 151.93 145.102 150.956C145.377 150.19 145.841 149.507 146.451 148.969C146.844 148.621 147.311 148.367 147.816 148.225C147.991 148.162 148.178 148.14 148.364 148.16C147.709 148.345 147.107 148.681 146.606 149.141C146.01 149.784 145.563 150.549 145.296 151.384C145.029 152.219 144.949 153.102 145.061 153.972L144.898 153.792L150.08 154.421L153.276 154.83L153.047 155.042C153.02 153.802 152.805 152.573 152.41 151.397C152.088 150.476 151.523 149.66 150.775 149.035C150.284 148.616 149.692 148.334 149.058 148.217C148.625 148.103 148.372 148.136 148.364 148.103Z" fill="#263238"/>
<path d="M139.176 148.102C138.579 148.214 138.016 148.464 137.532 148.831C137.049 149.199 136.657 149.674 136.389 150.219C135.818 151.365 135.574 152.646 135.686 153.922L144.064 154.993C144.058 153.363 143.666 151.758 142.92 150.309C142.571 149.623 142.034 149.05 141.37 148.659C140.707 148.268 139.946 148.075 139.176 148.102Z" fill="white"/>
<path d="M139.176 148.103C139.407 148.022 139.654 148 139.895 148.037C140.571 148.101 141.215 148.357 141.751 148.773C142.575 149.399 143.2 150.251 143.549 151.225C143.991 152.428 144.234 153.696 144.268 154.977V155.214H144.031L140.827 154.822L135.653 154.151H135.49V153.996C135.424 152.964 135.568 151.93 135.915 150.956C136.189 150.19 136.653 149.507 137.263 148.969C137.655 148.62 138.122 148.365 138.628 148.225C138.804 148.162 138.991 148.14 139.176 148.16C138.522 148.345 137.92 148.681 137.419 149.141C136.823 149.784 136.375 150.549 136.108 151.384C135.841 152.219 135.761 153.102 135.874 153.972L135.71 153.792L140.893 154.421L144.089 154.83L143.86 155.042C143.833 153.802 143.618 152.573 143.222 151.397C142.901 150.476 142.336 149.66 141.587 149.035C141.097 148.616 140.505 148.334 139.871 148.217C139.429 148.103 139.176 148.136 139.176 148.103Z" fill="#263238"/>
<path d="M166.763 148.102C166.164 148.213 165.6 148.462 165.114 148.83C164.629 149.197 164.236 149.673 163.967 150.219C163.403 151.368 163.161 152.647 163.264 153.922L171.642 154.993C171.64 153.363 171.247 151.757 170.498 150.309C170.152 149.623 169.616 149.05 168.954 148.659C168.292 148.268 167.531 148.074 166.763 148.102Z" fill="white"/>
<path d="M166.763 148.102C166.99 148.019 167.235 147.997 167.474 148.037C168.152 148.102 168.798 148.357 169.338 148.773C170.157 149.403 170.781 150.253 171.136 151.225C171.575 152.428 171.815 153.696 171.847 154.976V155.214H171.602L168.406 154.821L163.224 154.151H163.06V153.996C162.994 152.964 163.139 151.929 163.485 150.955C163.763 150.191 164.227 149.509 164.834 148.969C165.228 148.622 165.694 148.368 166.199 148.225C166.377 148.162 166.567 148.139 166.755 148.16C166.097 148.343 165.492 148.679 164.989 149.14C164.396 149.785 163.951 150.551 163.685 151.385C163.42 152.22 163.34 153.103 163.452 153.971L163.281 153.791L168.463 154.421L171.659 154.829L171.43 155.042C171.407 153.801 171.192 152.571 170.792 151.396C170.477 150.473 169.911 149.655 169.158 149.034C168.667 148.616 168.075 148.334 167.441 148.217C167.016 148.102 166.763 148.135 166.763 148.102Z" fill="#263238"/>
<path d="M175.966 148.102C175.369 148.213 174.805 148.462 174.321 148.83C173.837 149.197 173.446 149.673 173.179 150.219C172.609 151.366 172.363 152.646 172.468 153.922L180.846 154.993C180.848 153.362 180.455 151.755 179.702 150.309C179.355 149.623 178.819 149.05 178.157 148.659C177.495 148.268 176.735 148.074 175.966 148.102Z" fill="white"/>
<path d="M175.966 148.104C176.197 148.022 176.444 147.999 176.686 148.038C177.361 148.102 178.005 148.358 178.541 148.774C179.365 149.4 179.99 150.252 180.339 151.226C180.778 152.43 181.021 153.697 181.059 154.978V155.215H180.813L177.617 154.823L172.435 154.152H172.28V153.997C172.21 152.965 172.355 151.93 172.705 150.956C172.976 150.189 173.441 149.505 174.054 148.97C174.445 148.62 174.912 148.366 175.419 148.226C175.594 148.163 175.781 148.141 175.966 148.161C175.311 148.344 174.709 148.68 174.209 149.142C173.613 149.784 173.165 150.55 172.899 151.385C172.632 152.22 172.551 153.103 172.664 153.973L172.492 153.793L177.675 154.422L180.879 154.831L180.642 155.043C180.622 153.803 180.409 152.573 180.012 151.398C179.694 150.476 179.128 149.659 178.378 149.036C177.89 148.618 177.301 148.336 176.669 148.218C176.22 148.104 175.966 148.136 175.966 148.104Z" fill="#263238"/>
<path d="M188.914 150.293C188.563 149.61 188.024 149.04 187.361 148.652C186.698 148.264 185.938 148.074 185.17 148.102C184.573 148.214 184.01 148.464 183.526 148.831C183.042 149.199 182.651 149.674 182.383 150.219C181.812 151.365 181.568 152.647 181.68 153.922L190.058 154.993C190.054 153.358 189.662 151.747 188.914 150.293Z" fill="white"/>
<path d="M188.914 150.294C188.997 150.374 189.067 150.468 189.118 150.572C189.287 150.857 189.431 151.155 189.551 151.463C189.956 152.59 190.182 153.773 190.222 154.969V155.166H190.017L182.269 154.242L181.631 154.16H181.459V153.98C181.291 152.351 181.74 150.717 182.718 149.403C183.17 148.842 183.762 148.411 184.435 148.152C185.025 147.939 185.667 147.911 186.274 148.071C187.126 148.316 187.879 148.825 188.423 149.526C188.636 149.764 188.8 150.042 188.906 150.343C188.906 150.343 188.701 150.073 188.301 149.64C187.742 149.016 187.011 148.573 186.2 148.365C185.655 148.24 185.085 148.282 184.565 148.488C183.965 148.737 183.439 149.137 183.037 149.648C182.144 150.9 181.74 152.435 181.901 153.964L181.713 153.768L182.342 153.841L190.083 154.863L189.895 155.035C189.88 153.862 189.707 152.696 189.38 151.569C189.118 150.727 188.873 150.318 188.914 150.294Z" fill="#263238"/>
<path d="M192.674 155.607H140.607H131.305V153.898H192.674V155.607Z" fill="#FFD000"/>
<path d="M136.201 157.896L132.547 155.484H190.965L189.143 157.896H136.201Z" fill="#FFD000"/>
<path d="M192.052 155.607C192.052 155.73 178.394 155.828 161.54 155.828C144.685 155.828 131.019 155.73 131.019 155.607C131.019 155.484 144.677 155.395 161.54 155.395C178.402 155.395 192.052 155.493 192.052 155.607Z" fill="#263238"/>
<path d="M16.9455 135.433C16.9455 135.433 8.14232 138.637 9.58908 143.868C11.0358 149.099 14.8857 157.968 14.8857 157.968H24.588V133.863H17.0109L16.9455 135.433Z" fill="#E0E0E0"/>
<path d="M30.9717 135.433C30.9717 135.433 39.7749 138.637 38.3281 143.868C36.8814 149.099 33.0234 157.968 33.0234 157.968H23.3538V133.863H30.9227L30.9717 135.433Z" fill="#E0E0E0"/>
<path d="M31.9689 130.996H16.0627V134.445H31.9689V130.996Z" fill="#263238"/>
<path d="M16.0627 156.243L11.9104 145.07C12.9555 144.185 14.2033 143.573 15.5425 143.287C16.8817 143.002 18.2707 143.053 19.5856 143.435C24.31 144.653 23.3537 145.887 27.7594 144.931C34.8379 143.386 37.0448 144.432 37.0448 144.432L32.2223 156.325L16.3161 156.276" fill="#FFBF9D"/>
<g opacity="0.3">
<path d="M33.432 136.586L11.5017 149.664L12.5316 152.329L35.4182 137.845C35.4182 137.845 33.8979 136.831 33.432 136.586Z" fill="white"/>
</g>
<path d="M70.1569 119.102C69.9465 117.923 69.5197 116.792 68.8981 115.767H65.5714V115.727L62.8005 115.759H60.0623H56.7437C56.1153 116.781 55.6854 117.913 55.4768 119.094C55.2888 120.353 55.7302 135.72 55.7302 135.72H69.6256C69.6256 135.72 70.3367 120.361 70.1569 119.102Z" fill="#FFD000"/>
<path d="M57.0787 115.441C56.8253 115.523 52.722 117.804 53.6457 118.212C54.5693 118.621 56.155 117.64 58.0023 118.212C59.8496 118.784 61.893 119.348 63.1518 118.817C64.4105 118.286 66.3723 117.599 67.4185 118C68.4647 118.4 70.8106 118.817 71.5054 118.441C72.2002 118.065 69.0533 115.474 69.0533 115.474L57.0787 115.441Z" fill="#E0E0E0"/>
<g opacity="0.3">
<path d="M65.5059 131.24L55.6401 131.33L55.4521 122.004H65.5059V131.24Z" fill="white"/>
</g>
<path d="M69.0942 113.986H57.0542V115.441H69.0942V113.986Z" fill="#263238"/>
<path d="M69.5275 113.414H56.4495V114.869H69.5275V113.414Z" fill="#263238"/>
<path d="M69.5766 114.851C65.2054 115.135 60.8206 115.135 56.4495 114.851C60.8206 114.568 65.2054 114.568 69.5766 114.851Z" fill="#455A64"/>
<path d="M79.148 141.416C78.9394 140.239 78.5125 139.11 77.8893 138.09H74.5625V138.049H71.8325H69.0943V138.09H65.7675C65.1443 139.11 64.7174 140.239 64.5088 141.416C64.3208 142.675 64.7622 158.05 64.7622 158.05H78.6576C78.6576 158.05 79.3442 142.675 79.148 141.416Z" fill="#FFD000"/>
<path d="M66.1109 137.756C65.8575 137.838 61.7543 140.118 62.6779 140.527C63.6015 140.935 65.1872 139.955 67.0345 140.527C68.8818 141.099 70.9252 141.663 72.184 141.14C73.4428 140.617 75.4045 139.914 76.4507 140.282C77.497 140.649 79.8428 141.14 80.5376 140.731C81.2324 140.322 78.0855 137.756 78.0855 137.756H66.1109Z" fill="#E0E0E0"/>
<g opacity="0.3">
<path d="M74.5135 153.563L64.6477 153.644L64.4597 144.326H74.5135V153.563Z" fill="white"/>
</g>
<path d="M78.1018 136.301H66.0618V137.756H78.1018V136.301Z" fill="#263238"/>
<path d="M78.5348 135.729H65.4568V137.183H78.5348V135.729Z" fill="#263238"/>
<path d="M78.5839 137.166C74.2128 137.449 69.8279 137.449 65.4568 137.166C69.8279 136.882 74.2128 136.882 78.5839 137.166Z" fill="#455A64"/>
<path d="M60.6017 141.416C60.4006 140.237 59.9732 139.107 59.343 138.09H56.0244V138.049H53.2862H50.548V138.09H47.2294C46.5992 139.107 46.1718 140.237 45.9707 141.416C45.7745 142.675 46.2159 158.05 46.2159 158.05H60.1113C60.1113 158.05 60.7979 142.675 60.6017 141.416Z" fill="#455A64"/>
<path d="M47.5645 137.756C47.3193 137.838 43.216 140.118 44.1315 140.527C45.047 140.935 46.649 139.955 48.4881 140.527C50.3272 141.099 52.3788 141.663 53.6376 141.14C54.8964 140.617 56.8581 139.914 57.9043 140.282C58.9506 140.649 61.2964 141.14 61.9912 140.731C62.686 140.322 59.5391 137.756 59.5391 137.756H47.5645Z" fill="#E0E0E0"/>
<g opacity="0.3">
<path d="M55.9754 153.563L46.1015 153.644L45.9216 144.326H55.9754V153.563Z" fill="white"/>
</g>
<path d="M59.5554 136.301H47.5154V137.756H59.5554V136.301Z" fill="#263238"/>
<path d="M59.9887 135.729H46.9106V137.183H59.9887V135.729Z" fill="#263238"/>
<path d="M60.0376 137.166C55.6692 137.449 51.2871 137.449 46.9187 137.166C51.2871 136.882 55.6692 136.882 60.0376 137.166Z" fill="#455A64"/>
</g>
<defs>
<clipPath id="clip0_752_28525">
<rect width="200" height="200" fill="white"/>
</clipPath>
</defs>
</svg>
