<svg width="200" height="200" viewBox="0 0 200 200" fill="none" xmlns="http://www.w3.org/2000/svg">
<path fill-rule="evenodd" clip-rule="evenodd" d="M95.3511 40.0786C119.484 41.5624 131.191 65.3973 145.943 82.1754C157.899 95.7741 168.961 109.409 171.286 126.445C173.971 146.122 175.558 168.605 159.663 182.721C143.717 196.882 117.964 195.809 95.3511 193.883C72.1366 194.322 53.3796 187.342 42.4481 172.737C26.9316 160.174 13.0786 144.922 12.0648 126.445C11.0113 107.244 22.9446 90.1752 37.1121 75.4837C52.9597 59.05 70.8381 38.5713 95.3511 40.0786Z" fill="#FFF3CC"/>
<path d="M92.0601 44.8647L92.9295 44.8164C97.1236 44.5763 101.254 45.9237 104.5 48.5907C107.746 51.2577 109.869 55.0488 110.446 59.2099C111.557 67.2599 108.823 69.6774 109 74.0002C109.411 82.968 102.184 88.5002 102.184 88.5002L104.707 94.952C104.833 96.3825 104.674 97.8237 104.241 99.1929C103.809 100.562 103.109 101.832 102.184 102.93C101.259 104.029 100.125 104.933 98.8495 105.592C97.5735 106.251 96.1799 106.651 94.7488 106.769C91.8972 106.998 89.07 106.096 86.8772 104.259C84.6845 102.422 83.302 99.796 83.028 96.9484L79.808 63.6937C78.5039 54.4362 82.7704 45.9515 92.0601 44.8647Z" fill="#FFBF9D"/>
<path d="M102 88.5007C97.8507 88.7417 93.6289 87.6491 90 85.6777C90 85.6777 94.1185 91.7827 103 90.5007L102 88.5007Z" fill="#FF9A6C"/>
<path d="M95.996 68.3284C96.0248 68.7349 95.8978 69.1368 95.6425 69.447C95.3872 69.7572 95.0242 69.9508 94.632 69.9858C94.4413 70.0133 94.2472 70.0008 94.0612 69.9492C93.8752 69.8975 93.7011 69.8078 93.5492 69.6852C93.3973 69.5627 93.2706 69.4099 93.1768 69.2358C93.083 69.0617 93.0238 68.8698 93.0028 68.6716C92.9789 68.2663 93.1076 67.8672 93.362 67.5581C93.6163 67.249 93.9765 67.054 94.3668 67.0142C94.5575 66.9867 94.7516 66.9992 94.9376 67.0509C95.1236 67.1025 95.2977 67.1922 95.4496 67.3148C95.6015 67.4373 95.7282 67.5901 95.822 67.7642C95.9158 67.9383 95.975 68.1302 95.996 68.3284Z" fill="#263238"/>
<path d="M108.788 63.701C108.635 63.8781 107.629 63.21 106.252 63.2985C104.876 63.3871 103.902 64.1035 103.749 63.9667C103.596 63.8298 103.813 63.5883 104.232 63.2422C104.804 62.793 105.502 62.5316 106.228 62.4935C106.943 62.4539 107.653 62.6397 108.257 63.0248C108.684 63.3227 108.845 63.6125 108.788 63.701Z" fill="#263238"/>
<path d="M107.997 68.3284C108.021 68.7337 107.892 69.1328 107.638 69.4419C107.384 69.751 107.023 69.946 106.633 69.9858C106.442 70.0133 106.248 70.0008 106.062 69.9491C105.876 69.8975 105.702 69.8078 105.55 69.6852C105.398 69.5627 105.271 69.4099 105.177 69.2358C105.084 69.0617 105.024 68.8698 105.003 68.6716C104.977 68.2657 105.105 67.8652 105.36 67.5556C105.615 67.2459 105.976 67.0516 106.368 67.0142C106.558 66.9867 106.753 66.9992 106.939 67.0509C107.125 67.1025 107.299 67.1922 107.451 67.3148C107.603 67.4373 107.729 67.5901 107.823 67.7642C107.917 67.9383 107.976 68.1302 107.997 68.3284Z" fill="#263238"/>
<path d="M95.256 64.7316C95.1111 64.9087 94.0968 64.2486 92.7202 64.3291C91.3437 64.4096 90.3777 65.1341 90.2167 64.9973C90.0557 64.8604 90.2811 64.6189 90.7077 64.2728C91.2758 63.8278 91.9674 63.5691 92.688 63.5322C93.4038 63.4864 94.1152 63.6727 94.7166 64.0635C95.1674 64.3613 95.3284 64.6511 95.256 64.7316Z" fill="#263238"/>
<path d="M100.835 74.6567C101.546 74.3823 102.29 74.201 103.049 74.1173C103.403 74.061 103.725 73.9724 103.773 73.7309C103.785 73.3658 103.684 73.0059 103.483 72.7005C103.097 71.8955 102.678 71.002 102.284 70.0843C100.626 66.3571 99.4019 63.29 99.5468 63.2256C99.6917 63.1612 101.157 66.1237 102.831 69.8508C103.234 70.7685 103.636 71.646 103.982 72.4832C104.225 72.8956 104.318 73.3786 104.248 73.8517C104.204 73.9799 104.132 74.0961 104.035 74.1911C103.939 74.2862 103.821 74.3574 103.693 74.3991C103.503 74.4654 103.305 74.506 103.105 74.5198C102.356 74.6547 101.594 74.7006 100.835 74.6567Z" fill="#263238"/>
<path d="M95.3593 60.4005C95.2385 60.7788 93.8539 60.6822 92.252 60.972C90.65 61.2618 89.3701 61.777 89.1366 61.447C89.032 61.294 89.2413 60.9318 89.7404 60.5373C90.4175 60.0516 91.1965 59.7266 92.0181 59.5871C92.8397 59.4476 93.6823 59.4973 94.4818 59.7323C95.0856 59.9416 95.4076 60.2153 95.3593 60.4005Z" fill="#263238"/>
<path d="M108.086 60.827C107.869 61.149 106.903 60.8833 105.76 60.9316C104.617 60.9799 103.667 61.2617 103.425 60.9316C103.321 60.7787 103.425 60.4567 103.852 60.1266C104.397 59.7358 105.049 59.5197 105.72 59.5068C106.392 59.4784 107.056 59.6614 107.619 60.03C108.038 60.352 108.191 60.666 108.086 60.827Z" fill="#263238"/>
<path d="M109.344 55.1525C109.344 55.1525 106.663 49.6784 103.878 48.5192C100.513 47.1266 99.3133 50.8054 96.1416 50.1292C92.9699 49.453 89.7579 48.1006 86.707 50.6927C83.3743 53.5344 85.097 55.2974 85.097 59.2821C85.1453 75.4385 82.4646 80.1639 81.1927 72.629C81.0559 71.824 78.7052 71.2686 78.1659 67.799C77.4575 63.2749 76.9664 57.7526 77.7956 54.4602C78.4959 51.6909 79.9369 49.7187 82.6256 47.4808C86.8358 43.9549 92.8652 43.5363 96.9949 43.7134C101.125 43.8905 109.319 48.1006 109.344 55.1525Z" fill="#263238"/>
<path d="M81.7803 72.3236C81.7532 71.9929 81.6583 71.6713 81.5014 71.3788C81.3446 71.0864 81.1291 70.8295 80.8685 70.624C80.6079 70.4185 80.3078 70.269 79.9868 70.1847C79.6658 70.1004 79.331 70.0831 79.003 70.134C77.3447 70.3916 75.5415 71.4462 75.8474 74.8916C76.3948 81.0016 82.4162 79.1903 82.4162 79.0132C82.4162 78.8361 82.0298 74.8835 81.7803 72.3236Z" fill="#FFBF9D"/>
<path d="M80.8948 76.8303C80.8948 76.8303 80.7982 76.9188 80.6211 77.0154C80.3742 77.1475 80.0858 77.1793 79.8161 77.104C79.156 76.9269 78.52 75.9448 78.3912 74.85C78.3275 74.3266 78.3825 73.7955 78.5522 73.2963C78.5923 73.1011 78.6792 72.9186 78.8054 72.7643C78.9316 72.6101 79.0933 72.4888 79.2767 72.4108C79.3957 72.3686 79.5255 72.3688 79.6444 72.4113C79.7632 72.4538 79.8637 72.5361 79.9288 72.6443C80.0334 72.8053 80.0012 72.934 80.0334 72.9421C80.0656 72.9501 80.1542 72.8294 80.0817 72.5798C80.0362 72.4305 79.9392 72.3022 79.808 72.2176C79.6284 72.1045 79.4114 72.0669 79.2043 72.1129C78.9589 72.1861 78.7363 72.3205 78.5574 72.5036C78.3785 72.6868 78.2493 72.9125 78.1819 73.1595C77.9686 73.7126 77.894 74.3096 77.9646 74.8983C78.1175 76.1299 78.8501 77.2247 79.7517 77.4018C79.9198 77.4353 80.0934 77.4302 80.2593 77.387C80.4252 77.3438 80.5792 77.2635 80.7096 77.1523C80.8948 76.9832 80.9189 76.8464 80.8948 76.8303Z" fill="#FF9A6C"/>
<path d="M110.648 48.5191C109.706 47.8107 108.41 47.7141 107.476 46.9977C103.316 43.8042 96.6129 37.7091 90.8888 40.8959C88.7107 42.1085 85.9615 42.2125 84.0181 43.6006C83.4528 44.0475 82.9874 44.608 82.6519 45.2458C82.3164 45.8835 82.1182 46.5845 82.07 47.3036C82.07 47.3036 81.4341 46.9816 79.5021 48.5111C78.2704 49.4851 77.2642 51.5862 76.8134 53.0835C76.1452 55.3294 77.1193 57.6962 78.0772 59.8294C78.5924 60.9806 79.2364 62.2444 80.4359 62.655C81.8929 63.146 83.5029 62.0029 84.0745 60.57C84.646 59.1371 85.5476 57.6962 86.2399 56.3196C87.4474 53.9046 88.6549 51.6989 87.6648 50.1694C90.93 49.1089 93.0942 51.0056 95.9966 52.0289C97.2173 52.4594 102.143 53.276 103.5 52.9513C103.939 52.8464 104.349 52.6439 104.699 52.359C105.252 53.2599 106.124 53.9194 107.141 54.2059C108.159 54.4923 109.247 54.3848 110.189 53.9046C112.008 52.7776 112.33 49.791 110.648 48.5191Z" fill="#263238"/>
<path d="M77.4656 58.3875C77.7481 58.8294 77.9854 59.2987 78.174 59.7882C78.3947 60.2826 78.7418 60.7102 79.1802 61.0279C79.7663 61.3278 80.4413 61.405 81.08 61.2452C81.744 61.1164 82.371 60.8414 82.9154 60.4402C83.3545 60.0994 83.7541 59.7106 84.1068 59.281C84.4151 58.8596 84.757 58.4638 85.1292 58.0977C84.933 58.5852 84.6613 59.0388 84.3242 59.442C83.987 59.9161 83.5861 60.3413 83.1328 60.7059C82.5517 61.1447 81.8765 61.4424 81.1605 61.5753C80.435 61.7551 79.6681 61.6484 79.0192 61.2774C78.5343 60.9224 78.1648 60.4324 77.9566 59.8687C77.7326 59.397 77.5677 58.8995 77.4656 58.3875Z" fill="#FFD000"/>
<path d="M77.6989 63.1146C78.0674 63.394 78.474 63.619 78.9065 63.7828C79.3769 63.9318 79.8743 63.9757 80.3635 63.9116C80.9641 63.8203 81.5379 63.6007 82.046 63.2676C82.9688 62.6266 83.7521 61.805 84.3483 60.8526C84.5759 60.4394 84.8457 60.0509 85.1533 59.6934C85.0124 60.1539 84.8035 60.5907 84.5334 60.9894C83.9864 62.0378 83.1937 62.9383 82.2231 63.6137C81.6703 63.9795 81.0384 64.2085 80.3796 64.2819C79.8332 64.342 79.2805 64.2674 78.7696 64.0645C77.9485 63.6701 77.6587 63.1227 77.6989 63.1146Z" fill="#FFD000"/>
<path d="M96.7029 79.6289C96.4969 79.9662 96.3821 80.3164 96.3615 80.6697C96.3372 80.8368 96.3835 81.0047 96.4972 81.1618C96.6109 81.319 96.7894 81.4618 97.0205 81.5804C97.2599 81.7262 97.5589 81.8432 97.8964 81.9233C98.2338 82.0034 98.6015 82.0446 98.9734 82.0439C99.6443 82.0432 100.293 81.92 100.802 81.6964C101.311 81.4729 101.648 81.1636 101.752 80.8242L101.99 80.0558C100.601 79.8525 96.8061 79.6818 96.7029 79.6289Z" fill="#FF9A6C"/>
<path d="M100.948 81.1252C100.948 81.1252 100.753 81.1252 100.431 81.1411C99.9786 81.163 99.5184 81.163 99.0662 81.1411C98.4134 81.1089 97.8233 81.0007 97.4135 80.8381C96.9255 80.6348 96.6932 80.3822 96.7609 80.1285C96.7805 79.9858 96.8991 79.8462 97.1084 79.7193L96.9049 79.7485C98.3542 79.8176 99.6256 79.8734 100.524 79.9053C101.007 79.9336 101.499 79.9452 101.99 79.9399C101.532 79.884 101.054 79.8465 100.566 79.8282C99.668 79.7751 98.4136 79.7033 96.9643 79.6289H96.8287L96.7693 79.6661C96.4444 79.8636 96.3061 80.086 96.3707 80.3073C96.4353 80.5286 96.7 80.7395 97.1338 80.9152C97.6097 81.0951 98.291 81.2096 99.0323 81.2341C99.514 81.2474 99.9994 81.233 100.465 81.1916C100.639 81.1806 100.804 81.1579 100.948 81.1252Z" fill="#263238"/>
<path d="M60.4881 106.576C59.9568 106.576 52.3737 109.603 50.3773 117.041C48.3809 124.479 43.5001 149.5 43.5001 149.5C43.5001 149.5 41.1464 152.641 40.5001 155C38.5418 162.149 42.366 174.286 53.0001 171.5C53.0001 171.5 58.738 172.197 61.0001 165C63.2621 157.804 65.6643 137.005 65.6643 137.005L60.4881 106.576Z" fill="#B9B8B6"/>
<path d="M82.1472 94L78.1204 100.196L60 106.752L65.1865 160.234L63.2697 188.228C80 197.5 124.262 195.715 127 194.5C128.425 194.459 128.681 191.408 128.914 189.425C129.115 187.645 128.962 185.841 128.463 184.123L125.459 173.403C125.902 180.074 123.937 133.607 123.848 131.911L128.5 108.5C127.379 106.837 117.595 103.502 107.621 99.5154L104.399 94.5081L95.1215 101.687L82.1472 94Z" fill="#B9B8B6"/>
<path d="M128 108C128 108 131.804 111.654 132.523 114.468C133.242 117.281 148.907 149.692 148.907 149.692L156.689 151.697L158.77 155.82C159.985 158.185 160.312 160.877 159.696 163.444C159.08 166.012 157.558 168.298 155.386 169.92C155.116 170.116 154.833 170.297 154.54 170.462C150.311 172.887 142.783 172.758 138.376 167.794C134.206 163.089 122 146.176 122 146.176V125.479L128 108Z" fill="#B9B8B6"/>
<path d="M152.95 152.59L163.601 146.303L168.737 152.59L167.674 155.633L153.941 165.848C152.236 164.457 151.092 162.495 150.721 160.326C150.117 156.486 152.95 152.59 152.95 152.59Z" fill="#FFBF9D"/>
<path d="M149.569 149.337C149.569 149.442 148.66 149.337 147.324 149.788C145.597 150.385 144.068 151.446 142.904 152.855C141.754 154.295 140.806 155.885 140.087 157.581C139.815 158.307 139.478 159.008 139.08 159.674C139.188 158.901 139.405 158.147 139.724 157.436C140.357 155.646 141.291 153.977 142.485 152.501C143.707 151.009 145.361 149.932 147.219 149.418C147.979 149.167 148.794 149.139 149.569 149.337Z" fill="#263238"/>
<path d="M163.424 149.789C163.158 148.399 163.253 146.964 163.7 145.621C164.147 144.277 164.93 143.071 165.976 142.117C168.49 140.049 171.334 138.416 174.388 137.287C176.255 136.482 180.144 133.206 180.828 133.995C181.512 134.784 181.818 135.959 180.828 137.392C179.838 138.825 174.211 140.958 175 142.769C175.322 143.502 177.093 143.639 177.093 143.639C180.307 143.865 183.531 143.929 186.753 143.832C189.602 143.582 192.162 144.13 192.009 145.112C191.856 146.094 191.325 146.633 188.966 146.834C186.608 147.036 182.768 146.883 182.526 147.422C182.285 147.961 183.122 148.308 184.499 148.227C185.875 148.147 192.363 148.122 192.806 148.863C192.914 149.051 192.979 149.261 192.996 149.477C193.013 149.692 192.981 149.91 192.904 150.112C192.827 150.314 192.706 150.497 192.55 150.648C192.394 150.798 192.207 150.911 192.001 150.98L190.48 151.52C190.48 151.52 191.365 152.751 190.625 153.435C189.884 154.12 188.21 153.878 188.21 153.878L179.604 153.637C179.604 153.637 179.113 154.152 179.355 154.506C179.596 154.86 186.342 154.369 186.39 155.11C186.439 155.85 187.026 156.189 185.014 156.72C182.066 157.211 179.058 157.211 176.11 156.72C174.291 156.221 166.668 155.915 166.668 155.915L163.424 149.789Z" fill="#FFBF9D"/>
<path d="M107.54 101.006C107.002 101.678 106.404 102.301 105.753 102.865C104.618 103.976 103.065 105.53 101.422 107.301C101.076 107.679 100.73 108.05 100.408 108.412L100.191 108.645L99.9894 108.396C98.7175 106.786 97.6146 105.305 96.8418 104.25C96.3881 103.714 96.0015 103.125 95.6907 102.495C96.225 102.952 96.7058 103.468 97.1236 104.033C97.9688 105.031 99.128 106.448 100.416 108.058H100.005L101.012 106.939C102.426 105.41 103.92 103.956 105.488 102.584C106.105 101.976 106.794 101.446 107.54 101.006Z" fill="#263238"/>
<path d="M61.623 120.502C61.771 120.857 61.8711 121.231 61.9209 121.613C62.0738 122.337 62.267 123.392 62.4763 124.696C62.8949 127.304 63.3377 130.927 63.708 134.936C64.0783 138.945 64.352 142.583 64.5613 145.216C64.6418 146.439 64.7223 147.478 64.7786 148.331C64.8291 148.713 64.8291 149.1 64.7786 149.482C64.6638 149.115 64.5882 148.738 64.5532 148.355C64.4405 147.622 64.3037 146.56 64.1588 145.248C63.8529 142.631 63.5148 139.001 63.1445 134.992C62.7742 130.983 62.4119 127.369 62.098 124.793C61.945 123.577 61.8162 122.539 61.7116 121.693C61.6284 121.302 61.5986 120.901 61.623 120.502Z" fill="#263238"/>
<path d="M124.606 118.676C124.721 119.132 124.789 119.599 124.808 120.068C124.896 120.978 124.993 122.282 125.073 123.908C125.258 127.128 125.347 131.636 125.363 136.579V153.09C125.389 153.56 125.37 154.032 125.307 154.498C125.202 154.039 125.151 153.569 125.154 153.098C125.089 152.188 125.025 150.876 124.977 149.258C124.864 146.038 124.824 141.53 124.816 136.587C124.808 131.644 124.767 127.161 124.687 123.924C124.647 122.387 124.614 121.099 124.59 120.085C124.552 119.615 124.557 119.144 124.606 118.676Z" fill="#263238"/>
<path d="M56.0364 154.248C55.9237 154.377 54.3217 152.727 51.7135 151.833C49.1053 150.94 46.8835 151.246 46.8352 151.077C46.7869 150.908 49.1456 150.36 51.8906 151.318C54.6357 152.276 56.1571 154.184 56.0364 154.248Z" fill="#263238"/>
<path d="M96.8903 191.656C96.8415 191.358 96.82 191.057 96.8259 190.755C96.8259 190.119 96.8259 189.258 96.7696 188.179C96.7213 185.885 96.6569 182.657 96.5764 178.688C96.3912 170.638 96.1336 159.585 95.8438 147.381C95.554 135.177 95.4011 124.076 95.4172 116.059C95.4172 112.034 95.4574 108.814 95.5057 106.56C95.5057 105.481 95.5621 104.62 95.5862 103.984C95.5795 103.682 95.601 103.38 95.6506 103.082C95.673 103.382 95.673 103.684 95.6506 103.984C95.6506 104.62 95.6506 105.481 95.6506 106.56C95.6506 108.854 95.6989 112.09 95.7311 116.051C95.8116 124.101 96.0451 135.137 96.3188 147.365C96.5925 159.593 96.834 170.662 96.8984 178.68C96.8984 182.705 96.8984 185.925 96.8984 188.179C96.8984 189.258 96.8984 190.119 96.8581 190.755C96.8894 191.054 96.9002 191.356 96.8903 191.656Z" fill="#263238"/>
<path d="M45.9979 153.37C45.9979 153.305 46.8029 153.909 47.4469 155.246C47.8415 156.007 48.1287 156.82 48.3002 157.661C48.4655 158.728 48.4655 159.814 48.3002 160.881C48.18 161.949 47.8634 162.986 47.3664 163.94C46.936 164.713 46.3427 165.383 45.6276 165.904C44.9987 166.426 44.2068 166.71 43.3896 166.709C44.0971 166.416 44.7673 166.041 45.3861 165.59C46.0209 165.069 46.5439 164.426 46.9236 163.698C47.3544 162.788 47.6266 161.81 47.7286 160.808C47.8735 159.804 47.8735 158.785 47.7286 157.781C47.5903 156.952 47.3553 156.141 47.0283 155.366C46.5292 154.086 45.9174 153.418 45.9979 153.37Z" fill="#263238"/>
<path d="M155.937 166.967C155.937 166.967 155.679 166.967 155.269 166.765C154.693 166.511 154.151 166.184 153.659 165.791C151.972 164.492 150.818 162.621 150.415 160.531C150.012 158.44 150.387 156.274 151.469 154.441C151.785 153.89 152.169 153.381 152.612 152.927C152.926 152.621 153.128 152.476 153.152 152.501C153.176 152.525 152.508 153.249 151.807 154.626C150.871 156.407 150.569 158.453 150.951 160.428C151.333 162.404 152.376 164.19 153.908 165.493C155.06 166.508 155.977 166.878 155.937 166.967Z" fill="#263238"/>
<path d="M176.408 140.41C176.473 140.475 176.006 140.917 175.418 141.698C175.08 142.145 174.846 142.662 174.734 143.212C174.605 143.831 174.621 144.556 174.509 145.353C174.413 146.037 174.182 146.695 173.829 147.29C173.477 147.884 173.01 148.402 172.456 148.814C172.032 149.196 171.495 149.428 170.926 149.474C170.886 149.386 171.482 149.161 172.214 148.508C173.157 147.673 173.778 146.534 173.969 145.288C174.022 144.56 174.114 143.834 174.243 143.115C174.397 142.515 174.695 141.963 175.112 141.505C175.45 141.042 175.895 140.666 176.408 140.41Z" fill="#FF9A6C"/>
<path d="M177.906 150.328C177.906 150.175 180.779 150.288 184.289 150.578C187.799 150.867 190.641 151.238 190.633 151.383C190.625 151.528 187.759 151.423 184.249 151.125C180.739 150.827 177.897 150.473 177.906 150.328Z" fill="#FF9A6C"/>
<path d="M95.0386 101.971C94.717 103.043 94.3106 104.087 93.823 105.095C93.6057 105.578 93.3803 106.101 93.1468 106.64C92.9159 107.255 92.6471 107.854 92.3418 108.435C92.2256 108.626 92.0566 108.78 91.8552 108.877C91.6538 108.974 91.4286 109.011 91.2068 108.983C90.8168 108.88 90.4541 108.693 90.1442 108.435L88.2444 107.139C85.6522 105.352 83.3258 103.702 81.6514 102.494C80.7152 101.882 79.832 101.193 79.011 100.434C80.0083 100.936 80.9639 101.518 81.8687 102.172C83.5995 103.307 85.9662 104.893 88.5583 106.688L90.4501 107.993C90.6968 108.206 90.9844 108.368 91.2953 108.468C91.4222 108.483 91.5508 108.459 91.6642 108.401C91.7776 108.342 91.8707 108.25 91.9313 108.137C92.5431 107.027 93.0502 105.827 93.5413 104.917C93.9576 103.895 94.4584 102.91 95.0386 101.971Z" fill="#263238"/>
<path d="M177.484 135.327L166.07 138.625L159.467 152.132L149.028 175.661L154.517 177.657L164.582 154.832L167.947 154.151L172.202 155.443L176.005 147.122C176.005 147.122 180.735 148.394 182.292 141.683L177.484 135.327Z" fill="#263238"/>
<path d="M170.702 131.447C170.702 131.447 171.435 132.533 170.586 135.044C169.737 137.555 166.666 139.269 166.666 139.269L172.278 139.522L173.833 132.639L170.702 131.447Z" fill="#263238"/>
<path d="M190.526 123.312C190.526 123.312 196.358 123.017 198.095 125.585C199.72 127.963 197.334 132.884 196.213 134.711C196.154 134.803 196.061 134.867 195.955 134.89C195.903 134.902 195.848 134.903 195.795 134.893C195.742 134.884 195.692 134.864 195.646 134.835C194.527 134.109 190.84 132.162 187.616 135.586C185.732 137.52 183.954 139.556 182.292 141.684L177.484 135.328C178.638 132.763 180.108 130.352 181.86 128.152C183.704 125.832 190.526 123.312 190.526 123.312Z" fill="#FFD000"/>
<path fill-rule="evenodd" clip-rule="evenodd" d="M181.057 150.407C183.651 147.222 180.865 145.081 180.865 145.081L176.26 145.514L173.29 152.19C173.29 152.19 177.968 154.221 181.057 150.407ZM176.851 146.586C176.149 146.976 175.581 147.568 175.221 148.285C175.179 148.369 175.143 148.456 175.115 148.545C174.987 148.944 174.97 149.37 175.065 149.778C175.16 150.186 175.365 150.561 175.657 150.862C175.949 151.162 176.317 151.378 176.722 151.486C177.127 151.593 177.554 151.588 177.956 151.472L178.013 151.492C180.698 150.575 181.726 148.948 181.281 147.244C181.081 146.479 180.133 146.188 179.155 146.098C178.355 146.026 177.553 146.195 176.851 146.586Z" fill="#263238"/>
<path d="M172.138 155.591C170.004 155.088 167.93 154.355 165.953 153.405C163.915 152.619 161.921 151.727 159.976 150.732C162.102 151.269 164.167 152.021 166.142 152.974L170.398 154.788C171.007 154.987 171.591 155.257 172.138 155.591Z" fill="#455A64"/>
<path d="M180.782 145.135C180.082 144.975 179.356 144.972 178.656 145.128C177.911 145.329 177.23 145.714 176.674 146.248C176.014 146.934 175.502 147.747 175.167 148.637C174.456 150.592 173.668 152.349 173.132 153.59C172.883 154.294 172.552 154.967 172.148 155.594C172.282 154.863 172.502 154.15 172.803 153.47C173.271 152.183 173.917 150.407 174.704 148.448C175.062 147.49 175.628 146.624 176.36 145.911C176.984 145.344 177.746 144.953 178.57 144.778C178.942 144.666 179.334 144.64 179.717 144.702C180.1 144.764 180.464 144.912 180.782 145.135Z" fill="#455A64"/>
<path d="M174.831 148.77C174.974 148.189 175.179 147.625 175.443 147.088C175.876 146.043 176.513 144.583 177.264 142.898L177.401 143.225L174.685 142.237C172.279 141.362 170.142 140.479 168.596 139.842C167.742 139.545 166.917 139.167 166.134 138.713C167.023 138.894 167.891 139.16 168.729 139.508C170.298 140.078 172.488 140.874 174.875 141.742L177.561 142.783L177.806 142.872L177.72 143.107C176.932 144.778 176.241 146.208 175.736 147.216C175.497 147.768 175.193 148.29 174.831 148.77Z" fill="#455A64"/>
<path d="M177.404 135.491C175.611 136.134 173.782 136.669 171.926 137.096C170.113 137.681 168.269 138.169 166.404 138.557C168.113 137.695 169.919 137.041 171.784 136.608C173.608 136.02 175.494 135.645 177.404 135.491Z" fill="#455A64"/>
<path d="M164.291 152.269C164.888 150.138 165.646 148.055 166.557 146.038C167.302 143.951 168.206 141.925 169.26 139.977C168.663 142.108 167.906 144.191 166.995 146.208C166.248 148.294 165.344 150.32 164.291 152.269Z" fill="#455A64"/>
<path d="M168.906 154.501C169.452 152.311 170.162 150.164 171.028 148.08C171.738 145.936 172.604 143.846 173.62 141.829C173.074 144.02 172.365 146.166 171.498 148.251C170.783 150.393 169.917 152.482 168.906 154.501Z" fill="#455A64"/>
<path d="M159.648 151.752C159.234 152.336 158.741 153.37 157.604 152.956L156.545 154.901L158.391 155.679L160.063 151.52C159.905 151.555 159.761 151.636 159.648 151.752Z" fill="#263238"/>
<path d="M83.8514 118.831C83.85 118.819 83.85 118.807 83.8514 118.795L84.7186 99.8312C84.7355 99.6402 84.8039 99.4574 84.9165 99.3023C85.0291 99.1471 85.1817 99.0255 85.3581 98.9502C85.8388 98.7136 86.3686 98.5943 86.9043 98.6019C87.44 98.6095 87.9663 98.744 88.4401 98.9941C88.6171 99.0745 88.7695 99.2005 88.8819 99.3591C88.9942 99.5178 89.0624 99.7034 89.0795 99.8971L89.9385 118.883C89.9385 118.883 89.9385 118.908 89.9385 118.919C89.9385 118.93 89.9385 118.96 89.9385 118.982C89.9411 119.381 89.8639 119.777 89.7114 120.147C89.5589 120.516 89.3341 120.851 89.0504 121.132C88.7666 121.413 88.4295 121.635 88.0589 121.784C87.6883 121.933 87.2917 122.007 86.8922 122.001C86.0802 121.986 85.3066 121.653 84.7374 121.073C84.1683 120.494 83.8492 119.714 83.8486 118.902C83.8486 118.869 83.8514 118.853 83.8514 118.831Z" fill="#37474F"/>
<path opacity="0.25" d="M88.4401 98.9929C89.2936 99.4979 89.2909 100.299 88.4401 100.78C87.9585 101.015 87.4282 101.134 86.8921 101.125C86.3561 101.117 85.8296 100.983 85.3554 100.733C84.5046 100.228 84.5046 99.4292 85.3554 98.949C85.8364 98.7119 86.3668 98.5923 86.903 98.6C87.4392 98.6076 87.966 98.7422 88.4401 98.9929Z" fill="black"/>
<path d="M88.0203 118.073L87.5345 101.08C87.851 101.031 88.1572 100.93 88.4402 100.781C88.6155 100.705 88.7672 100.583 88.8796 100.429C88.9921 100.274 89.0611 100.092 89.0796 99.9023L89.9387 118.883C89.9387 118.883 89.9387 118.908 89.9387 118.918C89.9387 118.929 89.9387 118.96 89.9387 118.982C89.9413 119.381 89.864 119.777 89.7115 120.146C89.559 120.516 89.3343 120.851 89.0505 121.132C88.7667 121.413 88.4297 121.635 88.0591 121.784C87.6885 121.933 87.2918 122.007 86.8923 122C87.8364 121.759 88.0724 120.115 88.0203 118.073Z" fill="#455A64"/>
<path d="M85.9729 92.064C86.2644 91.9218 86.5853 91.8505 86.9096 91.8557C87.2339 91.861 87.5524 91.9427 87.8391 92.0942C87.9459 92.1436 88.0377 92.2205 88.1052 92.3169C88.1726 92.4133 88.2134 92.5258 88.2233 92.6431V99.9021C88.2128 100.018 88.1713 100.129 88.1032 100.223C88.0351 100.317 87.9429 100.391 87.8364 100.437C87.5451 100.58 87.2243 100.652 86.9 100.647C86.5757 100.642 86.2571 100.561 85.9702 100.41C85.8639 100.36 85.7725 100.283 85.7052 100.186C85.6378 100.09 85.5967 99.9779 85.5859 99.8609V92.6019C85.596 92.4857 85.6373 92.3744 85.7054 92.2797C85.7735 92.185 85.8659 92.1105 85.9729 92.064Z" fill="#E0E0E0"/>
<path opacity="0.25" d="M88.2205 96.8094V93.7109C87.3331 93.9085 86.4531 94.0659 85.5803 94.183V97.608C86.4037 97.641 87.6935 97.1552 88.2205 96.8094Z" fill="black"/>
<path d="M98.6741 63.6833L95.5235 61.8747C93.1386 60.5025 89.8398 60.6973 86.1925 62.7968C78.906 67.0068 73 77.2353 73 85.6497C73 89.8596 74.4765 92.8126 76.8669 94.1931L80.0065 95.9879C81.0545 96.5808 82.2414 96.8839 83.4453 96.8662C85.2155 96.8662 87.2189 96.2871 89.3348 95.0631C96.6213 90.8586 102.53 80.6274 102.53 72.213C102.533 68.0195 101.056 65.0637 98.6741 63.6833ZM81.8233 75.5008C84.1369 71.4967 87.1777 68.2747 90.386 66.4195C92.071 65.4479 93.7067 64.9238 95.1256 64.8991C95.3685 64.8939 95.6114 64.9049 95.8529 64.932C96.8573 66.1917 97.4062 68.1073 97.4062 70.5443C97.4062 74.2493 96.1328 78.5032 93.822 82.4991C91.5112 86.495 88.4703 89.7279 85.2594 91.5776C83.5359 92.5739 81.8618 93.1008 80.4154 93.1008C80.2082 93.1002 80.0012 93.0883 79.7952 93.0651C79.6102 92.8307 79.4441 92.582 79.2985 92.3214C78.6096 91.1001 78.2419 89.4535 78.2419 87.4555C78.2419 83.7478 79.5153 79.5022 81.8233 75.5008Z" fill="#FFD000"/>
<path opacity="0.1" d="M76.4497 73.4016L81.4089 76.2476C81.5434 75.9979 81.6833 75.7509 81.826 75.5039C82.5355 74.2686 83.3335 73.0864 84.2137 71.9663L79.2408 69.1121C78.198 70.4656 77.2647 71.9 76.4497 73.4016ZM82.4573 65.5938C81.8425 66.1573 81.2488 66.7574 80.6761 67.3941L85.6737 70.262C86.2506 69.6385 86.8607 69.0467 87.5015 68.4891L82.4573 65.5938Z" fill="white"/>
<path opacity="0.25" d="M79.9927 95.9849L76.8696 94.201C74.4792 92.8288 73.0027 89.8676 73.0027 85.6576C73.0027 85.4985 73.0027 85.3365 73.0027 85.1719L76.1423 86.9695C76.1423 87.1305 76.1423 87.2924 76.1423 87.4552C76.145 91.6487 77.6216 94.6017 79.9927 95.9849Z" fill="black"/>
<path d="M99.0446 66.8155C98.6808 66.2882 98.2071 65.8459 97.6562 65.519C97.1052 65.1921 96.49 64.9884 95.8528 64.9219C96.8573 66.1816 97.4062 68.0972 97.4062 70.5342C97.4062 74.2392 96.1327 78.4931 93.8219 82.489C91.5111 86.4848 88.4703 89.7178 85.2593 91.5675C83.5358 92.5638 81.8617 93.0907 80.4154 93.0907C80.2082 93.0901 80.0011 93.0782 79.7952 93.055C80.1976 93.5717 80.7096 93.9927 81.2942 94.2879C81.8788 94.583 82.5216 94.745 83.1763 94.762C83.2641 94.762 83.3556 94.762 83.4507 94.762C84.8943 94.762 86.5712 94.2351 88.2947 93.2389C91.5029 91.3864 94.5437 88.1617 96.8573 84.1603C99.1708 80.1589 100.439 75.9106 100.439 72.2028C100.436 69.9222 99.9448 68.0835 99.0446 66.8155Z" fill="#FFD000"/>
<path opacity="0.25" d="M99.0446 66.8155C98.6808 66.2882 98.2071 65.8459 97.6562 65.519C97.1052 65.1921 96.49 64.9884 95.8528 64.9219C96.8573 66.1816 97.4062 68.0972 97.4062 70.5342C97.4062 74.2392 96.1327 78.4931 93.8219 82.489C91.5111 86.4848 88.4703 89.7178 85.2593 91.5675C83.5358 92.5638 81.8617 93.0907 80.4154 93.0907C80.2082 93.0901 80.0011 93.0782 79.7952 93.055C80.1976 93.5717 80.7096 93.9927 81.2942 94.2879C81.8788 94.583 82.5216 94.745 83.1763 94.762C83.2641 94.762 83.3556 94.762 83.4507 94.762C84.8943 94.762 86.5712 94.2351 88.2947 93.2389C91.5029 91.3864 94.5437 88.1617 96.8573 84.1603C99.1708 80.1589 100.439 75.9106 100.439 72.2028C100.436 69.9222 99.9448 68.0835 99.0446 66.8155Z" fill="black"/>
<path d="M89.3402 64.6182C82.0538 68.8227 76.145 79.0539 76.145 87.4683C76.145 95.8827 82.0538 99.2803 89.3402 95.0814C96.6267 90.8824 102.533 80.6429 102.533 72.2285C102.533 63.8141 96.6267 60.3973 89.3402 64.6182ZM88.2919 93.27C86.5656 94.2663 84.8915 94.7905 83.4479 94.7905C82.5953 94.8128 81.7536 94.5942 81.0195 94.1597C80.2855 93.7252 79.6889 93.0925 79.2984 92.3342C78.6095 91.1129 78.2418 89.4663 78.2418 87.4683C78.2418 83.7606 79.5124 79.5095 81.826 75.5136C84.1395 71.5177 87.1776 68.2875 90.3859 66.4323C92.0682 65.4607 93.7066 64.9366 95.1255 64.9119H95.2325C98.4929 64.9119 100.447 67.6563 100.447 72.234C100.447 75.9417 99.1763 80.1928 96.8655 84.1915C94.5546 88.1901 91.5028 91.4038 88.2919 93.2563V93.27Z" fill="#FFD000"/>
<g opacity="0.3">
<path d="M89.3402 64.6182C82.0538 68.8227 76.145 79.0539 76.145 87.4683C76.145 95.8827 82.0538 99.2803 89.3402 95.0814C96.6267 90.8824 102.533 80.6429 102.533 72.2285C102.533 63.8141 96.6267 60.3973 89.3402 64.6182ZM88.2919 93.27C86.5656 94.2663 84.8915 94.7905 83.4479 94.7905C82.5953 94.8128 81.7536 94.5942 81.0195 94.1597C80.2855 93.7252 79.6889 93.0925 79.2984 92.3342C78.6095 91.1129 78.2418 89.4663 78.2418 87.4683C78.2418 83.7606 79.5124 79.5095 81.826 75.5136C84.1395 71.5177 87.1776 68.2875 90.3859 66.4323C92.0682 65.4607 93.7066 64.9366 95.1255 64.9119H95.2325C98.4929 64.9119 100.447 67.6563 100.447 72.234C100.447 75.9417 99.1763 80.1928 96.8655 84.1915C94.5546 88.1901 91.5028 91.4038 88.2919 93.2563V93.27Z" fill="white"/>
</g>
<g opacity="0.3">
<path d="M79.3451 75.6621C78.1292 78.0329 77.2287 80.5527 76.6666 83.1571C76.3938 84.4621 76.244 85.7899 76.2192 87.1228C76.1837 88.45 76.3286 89.7758 76.6501 91.0638C76.9593 92.3535 77.558 93.5557 78.4011 94.5795C79.2619 95.594 80.4212 96.3105 81.7136 96.6268C83.0111 96.9238 84.3613 96.9031 85.6491 96.5664C86.9426 96.2456 88.185 95.7459 89.3404 95.0817C88.195 95.7694 86.959 96.2932 85.6683 96.6378C84.3682 96.9864 83.0031 97.0165 81.6889 96.7256C80.3718 96.4107 79.1871 95.6897 78.3023 94.6645C77.4371 93.6283 76.8203 92.4079 76.4992 91.0968C76.1829 89.794 76.0444 88.4545 76.0875 87.1146C76.1228 85.778 76.2827 84.4476 76.565 83.1407C76.8461 81.8343 77.2221 80.5501 77.6903 79.2985C78.1665 78.0535 78.7192 76.839 79.3451 75.6621Z" fill="white"/>
</g>
<g opacity="0.3">
<path d="M95.2326 64.8933C95.8947 64.8817 96.5524 65.0021 97.1674 65.2474C97.7822 65.5054 98.3316 65.8973 98.7757 66.3945C99.2144 66.897 99.566 67.4694 99.8158 68.0879C100.069 68.7062 100.253 69.3504 100.365 70.009C100.574 71.3213 100.611 72.6555 100.474 73.9774C100.349 75.298 100.103 76.6043 99.739 77.88C99.3769 79.1562 98.9182 80.4031 98.3668 81.6097C97.8222 82.8179 97.1997 83.9895 96.5033 85.117C95.1227 87.3881 93.4178 89.4452 91.4426 91.2234C90.443 92.1045 89.355 92.8798 88.1959 93.5369C87.0334 94.212 85.7589 94.6722 84.4333 94.8954C83.7607 95.0011 83.075 94.9928 82.4052 94.8707C81.7284 94.7424 81.09 94.4607 80.539 94.0474C80.2629 93.844 80.0115 93.6091 79.7897 93.3476C79.5672 93.0927 79.3696 92.8169 79.1997 92.5243C78.8657 91.9384 78.6136 91.3096 78.4504 90.6553C78.1392 89.3579 78.0272 88.0207 78.1184 86.6896C78.1947 85.3663 78.4006 84.0537 78.7331 82.7706C79.0632 81.4907 79.4917 80.2382 80.0148 79.0244C80.5344 77.8122 81.1359 76.6367 81.8151 75.5061C80.5218 77.7988 79.5512 80.2591 78.9307 82.8172C78.6237 84.0911 78.4398 85.3915 78.3818 86.7006C78.3127 88.0023 78.4413 89.307 78.7633 90.5702C78.9265 91.1937 79.1759 91.7913 79.5043 92.3459C79.8205 92.8983 80.2464 93.3803 80.7558 93.762C81.2652 94.1383 81.8537 94.3936 82.4765 94.5085C83.106 94.6156 83.749 94.6156 84.3784 94.5085C85.656 94.2871 86.8832 93.8372 88.0011 93.1802C89.1309 92.531 90.1912 91.7677 91.1654 90.9023C93.1214 89.1651 94.8141 87.1525 96.1904 84.9277C97.5834 82.7043 98.6725 80.3045 99.4289 77.7922C99.8067 76.5379 100.069 75.2519 100.214 73.95C100.365 72.6514 100.348 71.3387 100.162 70.0446C100.069 69.3985 99.9036 68.765 99.6676 68.1565C99.4399 67.5448 99.1105 66.9761 98.6934 66.4741C98.2685 65.9774 97.739 65.581 97.1428 65.3132C96.5402 65.0479 95.8909 64.9052 95.2326 64.8933Z" fill="white"/>
</g>
<path opacity="0.3" d="M96.7501 65.1216C96.2579 64.9689 95.7451 64.893 95.2297 64.8966H95.1254C93.7066 64.9213 92.0709 65.4455 90.3858 66.417C87.1776 68.2723 84.1367 71.4942 81.8232 75.4983C79.5096 79.5025 78.2417 83.7316 78.2417 87.4531C78.2417 89.451 78.6094 91.0977 79.2983 92.3189C79.5921 92.8555 79.9808 93.3344 80.4455 93.7323C80.9368 93.885 81.4487 93.9609 81.9631 93.9574C83.4095 93.9574 85.0836 93.4332 86.8071 92.4369C90.018 90.5845 93.0589 87.3598 95.3697 83.3556C97.6805 79.3515 98.9512 75.1059 98.9512 71.4009C98.9512 68.4863 98.1635 66.3155 96.7501 65.1216Z" fill="white"/>
<path opacity="0.2" d="M72.802 126.858L81.4646 115.23C84.6023 117.31 111.643 98.9054 83.4443 135.689C82.1823 144.112 80.2852 147.355 76.118 152.161L72.802 126.858Z" fill="#263238"/>
<path d="M51.4305 147.337C51.4305 147.442 52.3402 147.337 53.6765 147.788C55.4033 148.385 56.9323 149.446 58.0959 150.855C59.2458 152.295 60.1937 153.885 60.9134 155.581C61.1847 156.307 61.5215 157.008 61.9197 157.674C61.8123 156.901 61.5955 156.147 61.2757 155.436C60.6431 153.646 59.7093 151.977 58.5145 150.501C57.2929 149.009 55.6394 147.932 53.7811 147.418C53.0213 147.167 52.2057 147.139 51.4305 147.337Z" fill="#263238"/>
<path d="M76.3936 136.676C76.2787 137.132 76.2112 137.599 76.1924 138.068C76.1038 138.978 76.0072 140.282 75.9267 141.908C75.7416 145.128 75.653 149.636 75.6369 154.579V171.09C75.6111 171.56 75.6299 172.032 75.6933 172.498C75.7976 172.039 75.8489 171.569 75.8462 171.098C75.9106 170.188 75.975 168.876 76.0233 167.258C76.136 164.038 76.1763 159.53 76.1843 154.587C76.1924 149.644 76.2326 145.161 76.3131 141.924C76.3534 140.387 76.3856 139.099 76.4097 138.085C76.4479 137.615 76.4425 137.144 76.3936 136.676Z" fill="#263238"/>
<path d="M43.7604 153C43.7604 153 43.5445 153.14 43.3102 153.533C42.9658 154.06 42.6908 154.63 42.4921 155.228C41.787 157.237 41.8407 159.434 42.6431 161.406C43.4455 163.378 44.9412 164.989 46.8486 165.935C47.4135 166.225 48.0128 166.441 48.6322 166.58C49.0622 166.665 49.3099 166.677 49.317 166.643C49.3241 166.61 48.3689 166.367 47.031 165.596C45.2748 164.614 43.9052 163.064 43.1477 161.2C42.3903 159.336 42.2901 157.27 42.8638 155.341C43.2753 153.863 43.8424 153.052 43.7604 153Z" fill="#263238"/>
<path d="M45.9324 168.112C47.2104 168.829 48.6611 169.302 50.1936 169.503C51.7262 169.704 53.3075 169.628 54.8385 169.28C56.3696 168.932 57.8173 168.319 59.091 167.48C60.3646 166.641 61.4368 165.594 62.2403 164.404L83.8936 132.156C77.1065 135.191 73.9641 134.416 70.4984 125.023L41.4428 153.838C40.7945 155.978 42.0951 156.247 41.6424 157.563C41.1897 158.879 41.0556 160.247 41.2488 161.58C41.4419 162.913 41.958 164.182 42.7643 165.307C43.5706 166.431 44.6495 167.387 45.9324 168.112Z" fill="#B9B8B6"/>
<path d="M67.2045 128.528C66.8073 128.78 66.4373 129.072 66.1002 129.4C65.4101 130 64.4427 130.88 63.2655 132.004C60.9157 134.213 57.7497 137.424 54.3373 141L42.9774 152.981C42.635 153.304 42.3242 153.66 42.049 154.042C42.4409 153.78 42.8015 153.475 43.1237 153.131C43.7963 152.515 44.7459 151.607 45.8942 150.466C48.1915 148.207 51.3224 144.963 54.729 141.382C58.1356 137.801 61.2498 134.575 63.5348 132.282C64.6219 131.194 65.5315 130.281 66.2469 129.562C66.5973 129.248 66.9179 128.902 67.2045 128.528Z" fill="#263238"/>
<path d="M49.1944 148.929C49.212 149.032 50.091 148.776 51.4842 148.995C53.287 149.292 54.9731 150.08 56.3577 151.272C57.7339 152.497 58.9365 153.904 59.932 155.455C60.322 156.125 60.7721 156.759 61.2769 157.348C61.0407 156.604 60.6998 155.898 60.2646 155.251C59.3391 153.593 58.1371 152.105 56.7106 150.852C55.2548 149.588 53.4433 148.806 51.5249 148.612C50.7337 148.493 49.925 148.603 49.1944 148.929Z" fill="#263238"/>
<path d="M42.5895 155.805C42.5895 155.805 42.4004 155.98 42.2357 156.407C41.9852 156.984 41.8103 157.592 41.7153 158.215C41.3591 160.314 41.7827 162.471 42.9063 164.279C44.0299 166.088 45.7759 167.423 47.8156 168.034C48.4212 168.224 49.0485 168.337 49.6824 168.369C50.1206 168.38 50.3667 168.35 50.3681 168.316C50.3694 168.282 49.3869 168.203 47.938 167.668C46.0414 166.997 44.4299 165.7 43.3689 163.991C42.3079 162.281 41.8606 160.262 42.1007 158.264C42.257 156.738 42.6792 155.843 42.5895 155.805Z" fill="#263238"/>
<path d="M69.5001 129.5L71.259 125.556C71.259 125.556 76.7273 110.329 78.6388 109.329C80.2124 108.505 84.671 107.707 87.8166 106.394C88.1051 106.274 91.2087 105.897 91.5002 106C92.1762 106.238 92.0803 108.715 91.5001 108.999L83.0002 111L83.2982 111.172L91.0001 109.499C91.0857 109.516 92.8934 110.986 90.8237 112.267L84.4507 113.504L84.694 114.016L89.7033 114.293C91.9407 114.293 91.7332 116.021 90.3213 116.491C89.4816 116.97 86.1139 117.11 86.1139 117.11L86.7258 117.636C88.0097 117.376 91.5627 119.603 87.2436 120.997L83.0991 128.461C82.2173 130.054 78.6747 130.35 76.9277 131.096C76.3702 131.84 76.0576 132.256 75.5001 133C72.8489 131.835 71.6174 131.015 69.5001 129.5Z" fill="#FFBE9D"/>
<path d="M81.1813 112.619C81.1159 112.764 81.841 112.814 82.2173 113.378C82.5937 113.942 82.4421 114.677 82.5771 114.669C82.7122 114.66 82.7926 114.452 82.8759 114.114C82.9768 113.673 82.9235 113.279 82.7233 112.986C82.53 112.691 82.1937 112.515 81.7641 112.485C81.4391 112.465 81.2089 112.551 81.1813 112.619Z" fill="#FF9A6C"/>
<path d="M79.1813 109.619C79.1159 109.764 79.841 109.814 80.2173 110.378C80.5937 110.942 80.4421 111.677 80.5771 111.669C80.7122 111.66 80.7926 111.452 80.8759 111.114C80.9768 110.673 80.9235 110.279 80.7233 109.986C80.53 109.691 80.1937 109.515 79.7641 109.485C79.4391 109.465 79.2089 109.551 79.1813 109.619Z" fill="#FF9A6C"/>
<path d="M83.7589 115.776C83.7343 115.851 84.1189 115.928 84.3548 116.265C84.5906 116.603 84.5603 116.999 84.6308 117.004C84.7012 117.008 84.7295 116.898 84.7506 116.717C84.774 116.479 84.7194 116.258 84.5944 116.082C84.4729 115.906 84.2842 115.786 84.0563 115.741C83.8841 115.708 83.7688 115.74 83.7589 115.776Z" fill="#FF9A6C"/>
<path d="M85.086 118.291C85.0614 118.367 85.4461 118.444 85.6819 118.781C85.9178 119.118 85.8875 119.515 85.9579 119.519C86.0284 119.524 86.0567 119.414 86.0777 119.233C86.1011 118.995 86.0466 118.773 85.9216 118.598C85.8001 118.422 85.6114 118.302 85.3835 118.256C85.2112 118.223 85.0959 118.255 85.086 118.291Z" fill="#FF9A6C"/>
<path d="M77.0089 127.746C76.9786 127.793 77.5713 128.047 78.5512 127.917C79.1933 127.821 79.8063 127.584 80.3462 127.223C80.8861 126.862 81.3395 126.387 81.674 125.83C81.9944 125.22 82.2547 124.58 82.4513 123.92C82.6143 123.402 82.8482 122.908 83.1463 122.454C83.4457 122.07 83.7953 121.727 84.1857 121.436C84.216 121.389 83.4911 121.433 82.8377 122.219C82.4765 122.665 82.1941 123.17 82.0025 123.711C81.7875 124.33 81.5277 124.934 81.2253 125.516C80.6125 126.51 79.6338 127.223 78.5 127.502C77.588 127.78 77.0182 127.656 77.0089 127.746Z" fill="#FF9A6C"/>
<path d="M77.5755 134.06C77.6019 133.891 75.3082 133.722 72.9489 132.296C70.5897 130.869 69.3982 128.969 69.2375 129.04C69.0769 129.112 70.171 131.272 72.6675 132.762C75.164 134.252 77.6036 134.194 77.5755 134.06Z" fill="#263238"/>
<path d="M66.7167 134.592C66.6533 134.581 67.1063 135.479 68.3087 136.348C68.9893 136.87 69.7389 137.296 70.5363 137.612C71.5577 137.962 72.6269 138.153 73.7063 138.177C74.7793 138.247 75.8558 138.117 76.8818 137.795C77.7184 137.508 78.4824 137.041 79.1208 136.429C79.7449 135.901 80.1644 135.172 80.3063 134.367C79.8941 135.012 79.4066 135.606 78.8541 136.136C78.2303 136.669 77.505 137.071 76.7218 137.317C75.7497 137.581 74.7398 137.678 73.7353 137.602C72.7218 137.568 71.7183 137.389 70.7556 137.071C69.9632 136.789 69.2065 136.415 68.5011 135.957C67.3287 135.241 66.7784 134.521 66.7167 134.592Z" fill="#263238"/>
</svg>
