<svg width="200" height="200" viewBox="0 0 200 200" fill="none" xmlns="http://www.w3.org/2000/svg">
<g clip-path="url(#clip0_752_28696)">
<path fill-rule="evenodd" clip-rule="evenodd" d="M96.6489 40.0786C72.5164 41.5624 60.8087 65.3973 46.0572 82.1754C34.101 95.7741 23.0389 109.409 20.7142 126.445C18.0291 146.122 16.4425 168.605 32.3369 182.721C48.2827 196.882 74.0361 195.809 96.6489 193.883C119.863 194.322 138.62 187.342 149.552 172.737C165.068 160.174 178.921 144.922 179.935 126.445C180.989 107.244 169.055 90.1752 154.888 75.4837C139.04 59.05 121.162 38.5713 96.6489 40.0786Z" fill="#FFF3CC"/>
<mask id="mask0_752_28696" style="mask-type:alpha" maskUnits="userSpaceOnUse" x="19" y="40" width="161" height="155">
<path fill-rule="evenodd" clip-rule="evenodd" d="M96.6489 40.0786C72.5164 41.5624 60.8087 65.3973 46.0572 82.1754C34.101 95.7741 23.0389 109.409 20.7142 126.445C18.0291 146.122 16.4425 168.605 32.3369 182.721C48.2827 196.882 74.0361 195.809 96.6489 193.883C119.863 194.322 138.62 187.342 149.552 172.737C165.068 160.174 178.921 144.922 179.935 126.445C180.989 107.244 169.055 90.1752 154.888 75.4837C139.04 59.05 121.162 38.5713 96.6489 40.0786Z" fill="#FFF3CC"/>
</mask>
<g mask="url(#mask0_752_28696)">
<path d="M179.618 143.207V198.417L47.1948 122.193V67.2559L179.618 143.207Z" fill="#FFD000"/>
<path opacity="0.6" d="M179.618 143.207V198.417L47.1948 122.193V67.2559L179.618 143.207Z" fill="black"/>
<path d="M22 130.215V136.751L24.9823 138.466V131.93L22 130.215Z" fill="#FFD000"/>
<path opacity="0.2" d="M22 130.215V136.751L24.9823 138.466V131.93L22 130.215Z" fill="black"/>
<path d="M24.9824 131.924V138.466L50.1771 123.927V117.385L24.9824 131.924Z" fill="#FFD000"/>
<path opacity="0.4" d="M24.9824 131.924V138.466L50.1771 123.927V117.385L24.9824 131.924Z" fill="black"/>
<path d="M47.1947 115.682L22 130.214L24.9823 131.923L50.1771 117.384L47.1947 115.682Z" fill="#FFD000"/>
<path d="M27.9646 81.5345V126.798L30.9407 128.507V79.832L27.9646 81.5345Z" fill="#FFD000"/>
<path opacity="0.2" d="M27.9646 81.5345V126.798L30.9407 128.507V79.832L27.9646 81.5345Z" fill="black"/>
<path d="M30.9409 80.0996V135.037L33.9233 133.31V81.8145L30.9409 80.0996Z" fill="#FFD000"/>
<path opacity="0.4" d="M30.9409 80.0996V135.037L33.9233 133.31V81.8145L30.9409 80.0996Z" fill="black"/>
<path d="M47.1948 115.682V70.4375L50.1772 68.7227V117.385L47.1948 115.682Z" fill="#FFD000"/>
<path opacity="0.4" d="M47.1948 115.682V70.4375L50.1772 68.7227V117.385L47.1948 115.682Z" fill="black"/>
<path d="M22 79.4347L154.423 155.653L175.504 139.001L43.0753 62.7832L22 79.4347Z" fill="#FFD000"/>
<path opacity="0.2" d="M22 79.4347L154.423 155.653L175.504 139.001L43.0753 62.7832L22 79.4347Z" fill="black"/>
<path d="M154.423 151.179V157.746L179.618 143.207V198.418L206.521 182.897V85.6602L179.618 101.187V115.192L172.218 137.137L154.423 151.179Z" fill="#FFD000"/>
<path opacity="0.4" d="M154.423 151.179V157.746L179.618 143.207V198.418L206.521 182.897V85.6602L179.618 101.187V115.192L172.218 137.137L154.423 151.179Z" fill="black"/>
<path d="M22 79.2969V81.5274L154.423 157.745V155.521L22 79.2969Z" fill="#FFD000"/>
<path opacity="0.1" d="M22 79.2969V81.5274L154.423 157.745V155.521L22 79.2969Z" fill="white"/>
<path d="M47.1948 24.9629V38.9675L179.618 115.192V101.187L47.1948 24.9629Z" fill="#FFD000"/>
<path opacity="0.2" d="M47.1948 24.9629V38.9675L179.618 115.192V101.187L47.1948 24.9629Z" fill="black"/>
<path d="M47.1946 38.9668L39.7947 60.912L170.503 138.491L172.224 137.136L179.618 115.191L47.1946 38.9668Z" fill="#FFD000"/>
<path opacity="0.2" d="M47.1946 38.9668L39.7947 60.912L170.503 138.491L171.515 135.49L178.052 116.092L179.618 115.191L47.1946 38.9668Z" fill="white"/>
<path d="M45.6289 39.8691L38.0798 62.2679L170.503 138.492L178.052 116.093L45.6289 39.8691Z" fill="#FFD000"/>
<path opacity="0.1" d="M45.6289 39.8691L38.0798 62.2679L170.503 138.492L178.052 116.093L45.6289 39.8691Z" fill="white"/>
<path opacity="0.4" d="M178.058 116.092L179.618 115.191L172.224 137.137L170.521 138.491L178.058 116.092Z" fill="black"/>
<path d="M154.423 206.414V212.956L179.618 198.417V191.881L154.423 206.414Z" fill="#FFD000"/>
<path opacity="0.4" d="M154.423 206.414V212.956L179.618 198.417V191.881L154.423 206.414Z" fill="black"/>
<path d="M176.635 190.174L151.447 204.713L154.423 206.415L179.618 191.882L176.635 190.174Z" fill="#FFD000"/>
<path d="M157.405 156.025V201.288L160.388 203.003V154.322L157.405 156.025Z" fill="#FFD000"/>
<path opacity="0.2" d="M157.405 156.025V201.288L160.388 203.003V154.322L157.405 156.025Z" fill="black"/>
<path d="M160.388 154.323V203.003L163.364 201.276V152.602L160.388 154.323Z" fill="#FFD000"/>
<path opacity="0.4" d="M160.388 154.323V203.003L163.364 201.276V152.602L160.388 154.323Z" fill="black"/>
<path d="M176.635 190.173V144.928L179.618 143.207V191.882L176.635 190.173Z" fill="#FFD000"/>
<path opacity="0.2" d="M176.635 190.173V144.928L179.618 143.207V191.882L176.635 190.173Z" fill="black"/>
<path d="M45.6228 39.8739L178.058 116.092L179.618 115.191L47.1885 38.9668L45.6228 39.8739Z" fill="#FFD000"/>
<path opacity="0.2" d="M45.6228 39.8739L178.058 116.092L179.618 115.191L47.1885 38.9668L45.6228 39.8739Z" fill="white"/>
<path d="M43.0754 72.9049L170.521 146.252V138.492L43.0754 65.1445V72.9049Z" fill="#FFD000"/>
<path opacity="0.2" d="M43.0754 72.9049L170.521 146.252V138.492L43.0754 65.1445V72.9049Z" fill="black"/>
<path d="M43.6035 24.5906L180.152 103.188L209 86.605V84.5981L72.4516 8.01367L43.6035 22.5775V24.5906Z" fill="#FFD000"/>
<path d="M43.6035 22.5769L180.152 101.174L209 84.5975L72.4516 6L43.6035 22.5769Z" fill="#FFD000"/>
<path opacity="0.2" d="M43.6035 22.5769L180.152 101.174L209 84.5975L72.4516 6L43.6035 22.5769Z" fill="white"/>
<path d="M26.983 77.8318L22 74.955L38.0799 62.2676L43.0753 65.1443L26.983 77.8318Z" fill="#FFD000"/>
<path opacity="0.2" d="M26.983 77.8318L22 74.955L38.0799 62.2676L43.0753 65.1443L26.983 77.8318Z" fill="white"/>
<path d="M26.983 77.8318V84.3992L22 81.5287V74.9551L26.983 77.8318Z" fill="#FFD000"/>
<path d="M43.0755 65.1445V72.9049L26.9832 82.1564V77.832L43.0755 65.1445Z" fill="#FFD000"/>
<path opacity="0.4" d="M43.0755 65.1445V72.9049L26.9832 82.1564V77.832L43.0755 65.1445Z" fill="black"/>
<path d="M31.7671 79.4091L156.821 151.414L168.135 144.909V142.585L43.0752 71.3691L31.7671 77.0791V79.4091Z" fill="#EBEBEB"/>
<path d="M31.7671 77.0791L156.821 149.084L168.135 142.585L43.0752 70.5801L31.7671 77.0791Z" fill="white"/>
<path d="M34.3271 80.883V78.5592L45.6352 72.054L45.4177 71.9297L34.1655 78.3977L34.1096 78.4287V80.7587L34.3271 80.883Z" fill="#E0E0E0"/>
<path d="M36.7751 79.9694L48.0894 73.4641L47.8719 73.3398L36.6135 79.8078L36.5576 79.8451V82.1689L36.7751 82.2931V79.9694Z" fill="#E0E0E0"/>
<path d="M39.2294 81.3795L50.5437 74.8805L50.3201 74.75L39.0679 81.2242L39.012 81.2553V83.579L39.2294 83.7095V81.3795Z" fill="#E0E0E0"/>
<path d="M41.6835 82.7893L52.9916 76.2903L52.7742 76.166L41.5158 82.634L41.4661 82.6651V84.995L41.6835 85.1193V82.7893Z" fill="#E0E0E0"/>
<path d="M44.1315 84.2057L55.4458 77.7004L55.2284 77.5762L43.97 84.0442L43.9141 84.0752V86.4052L44.1315 86.5295V84.2057Z" fill="#E0E0E0"/>
<path d="M46.5859 85.6159L57.894 79.1106L57.6765 78.9863L46.4243 85.4543L46.3684 85.4916V87.8153L46.5859 87.9396V85.6159Z" fill="#E0E0E0"/>
<path d="M49.04 87.026L60.3481 80.527L60.1306 80.3965L48.8722 86.8707L48.8225 86.9018V89.2255L49.04 89.356V87.026Z" fill="#E0E0E0"/>
<path d="M51.488 88.4381L62.8023 81.9391L62.5848 81.8086L51.3264 88.2828L51.2705 88.3139V90.6438L51.488 90.7681V88.4381Z" fill="#E0E0E0"/>
<path d="M53.9423 89.8479L65.2504 83.3489L65.033 83.2246L53.7808 89.6926L53.7249 89.7237V92.0536L53.9423 92.1779V89.8479Z" fill="#E0E0E0"/>
<path d="M56.3965 91.2643L67.7046 84.759L67.4872 84.6348L56.2288 91.1028L56.1729 91.1338V93.4638L56.3965 93.5881V91.2643Z" fill="#E0E0E0"/>
<path d="M58.8444 92.6745L70.1587 86.1754L69.9351 86.0449L58.6829 92.5129L58.627 92.5502V94.8739L58.8444 94.9982V92.6745Z" fill="#E0E0E0"/>
<path d="M61.2988 94.0846L72.6069 87.5856L72.3894 87.4551L61.1372 93.9293L61.0813 93.9603V96.2903L61.2988 96.4146V94.0846Z" fill="#E0E0E0"/>
<path d="M63.753 95.4964L75.0611 88.9973L74.8436 88.873L63.5852 95.341L63.5293 95.3721V97.7021L63.753 97.8263V95.4964Z" fill="#E0E0E0"/>
<path d="M66.2011 96.9127L77.5154 90.4075L77.2917 90.2832L66.0396 96.7512L65.9836 96.7823V99.1122L66.2011 99.2365V96.9127Z" fill="#E0E0E0"/>
<path d="M68.6552 98.3229L79.9633 91.8176L79.7458 91.6934L68.4937 98.1613L68.4377 98.1986V100.522L68.6552 100.647V98.3229Z" fill="#E0E0E0"/>
<path d="M71.1094 99.733L82.4175 93.234L82.2001 93.1035L70.9417 99.5777L70.8857 99.6088V101.933L71.1094 102.063V99.733Z" fill="#E0E0E0"/>
<path d="M73.5576 101.143L84.8719 94.6442L84.6482 94.5137L73.396 100.988L73.3401 101.019V103.349L73.5576 103.473V101.143Z" fill="#E0E0E0"/>
<path d="M76.0117 102.559L87.3198 96.054L87.1023 95.9297L75.8501 102.398L75.7942 102.429V104.759L76.0117 104.883V102.559Z" fill="#E0E0E0"/>
<path d="M78.4659 103.971L89.774 97.4661L89.5565 97.3418L78.2981 103.81L78.2422 103.847V106.171L78.4659 106.295V103.971Z" fill="#E0E0E0"/>
<path d="M80.914 105.381L92.2283 98.8762L92.0046 98.752L80.7525 105.226L80.6965 105.257V107.581L80.914 107.711V105.381Z" fill="#E0E0E0"/>
<path d="M83.3681 106.792L94.6762 100.293L94.4587 100.162L83.2004 106.636L83.1506 106.667V108.991L83.3681 109.122V106.792Z" fill="#E0E0E0"/>
<path d="M85.8223 108.201L97.1304 101.702L96.913 101.578L85.6545 108.046L85.5986 108.077V110.407L85.8223 110.531V108.201Z" fill="#E0E0E0"/>
<path d="M88.2704 109.618L99.5848 103.113L99.3611 102.988L88.1089 109.456L88.053 109.487V111.817L88.2704 111.942V109.618Z" fill="#E0E0E0"/>
<path d="M90.7248 111.028L102.033 104.523L101.815 104.398L90.5633 110.873L90.5073 110.904V113.227L90.7248 113.358V111.028Z" fill="#E0E0E0"/>
<path d="M93.179 112.438L104.487 105.939L104.27 105.809L93.0112 112.283L92.9553 112.314V114.644L93.179 114.768V112.438Z" fill="#E0E0E0"/>
<path d="M95.6269 113.85L106.935 107.351L106.718 107.227L95.4653 113.695L95.4094 113.726V116.056L95.6269 116.18V113.85Z" fill="#E0E0E0"/>
<path d="M98.0812 115.266L109.389 108.761L109.172 108.637L97.9135 115.105L97.8638 115.136V117.466L98.0812 117.59V115.266Z" fill="#E0E0E0"/>
<path d="M100.529 116.676L111.844 110.171L111.62 110.047L100.368 116.521L100.312 116.552V118.876L100.529 119V116.676Z" fill="#E0E0E0"/>
<path d="M102.983 118.087L114.291 111.581L114.074 111.457L102.822 117.931L102.766 117.962V120.286L102.983 120.417V118.087Z" fill="#E0E0E0"/>
<path d="M105.438 119.497L116.746 112.998L116.528 112.867L105.276 119.341L105.22 119.372V121.702L105.438 121.827V119.497Z" fill="#E0E0E0"/>
<path d="M107.892 120.915L119.2 114.409L118.976 114.285L107.724 120.753L107.668 120.784V123.114L107.892 123.238V120.915Z" fill="#E0E0E0"/>
<path d="M110.34 122.325L121.648 115.82L121.43 115.695L110.178 122.163L110.122 122.194V124.524L110.34 124.649V122.325Z" fill="#E0E0E0"/>
<path d="M112.794 123.735L124.102 117.23L123.885 117.105L112.626 123.58L112.577 123.611V125.934L112.794 126.059V123.735Z" fill="#E0E0E0"/>
<path d="M115.242 125.145L126.556 118.646L126.333 118.516L115.081 124.99L115.025 125.021V127.351L115.242 127.475V125.145Z" fill="#E0E0E0"/>
<path d="M117.696 126.562L129.004 120.056L128.787 119.926L117.535 126.4L117.479 126.431V128.761L117.696 128.885V126.562Z" fill="#E0E0E0"/>
<path d="M120.151 127.971L131.459 121.466L131.241 121.342L119.983 127.81L119.933 127.841V130.171L120.151 130.295V127.971Z" fill="#E0E0E0"/>
<path d="M122.599 129.383L133.913 122.878L133.689 122.754L122.437 129.228L122.381 129.259V131.583L122.599 131.713V129.383Z" fill="#E0E0E0"/>
<path d="M125.053 130.794L136.361 124.295L136.144 124.164L124.891 130.638L124.835 130.669V132.993L125.053 133.124V130.794Z" fill="#E0E0E0"/>
<path d="M127.507 132.21L138.815 125.705L138.598 125.574L127.339 132.048L127.283 132.079V134.409L127.507 134.534V132.21Z" fill="#E0E0E0"/>
<path d="M129.955 133.62L141.263 127.114L141.046 126.99L129.793 133.458L129.738 133.489V135.819L129.955 135.944V133.62Z" fill="#E0E0E0"/>
<path d="M132.409 135.03L143.717 128.525L143.5 128.4L132.248 134.868L132.192 134.906V137.229L132.409 137.354V135.03Z" fill="#E0E0E0"/>
<path d="M134.864 136.44L146.172 129.935L145.948 129.811L134.696 136.285L134.646 136.316V138.64L134.864 138.77V136.44Z" fill="#E0E0E0"/>
<path d="M137.312 137.852L148.62 131.347L148.402 131.223L137.15 137.697L137.094 137.728V140.058L137.312 140.182V137.852Z" fill="#E0E0E0"/>
<path d="M139.766 139.268L151.074 132.763L150.856 132.639L139.604 139.107L139.548 139.138V141.468L139.766 141.592V139.268Z" fill="#E0E0E0"/>
<path d="M142.22 140.678L153.528 134.173L153.304 134.049L142.052 140.523L141.996 140.554V142.878L142.22 143.002V140.678Z" fill="#E0E0E0"/>
<path d="M144.668 142.089L155.976 135.583L155.759 135.459L144.507 141.933L144.451 141.964V144.288L144.668 144.418V142.089Z" fill="#E0E0E0"/>
<path d="M147.122 143.499L158.43 136.993L158.213 136.869L146.961 143.343L146.905 143.374V145.704L147.122 145.829V143.499Z" fill="#E0E0E0"/>
<path d="M149.576 144.915L160.885 138.41L160.661 138.279L149.409 144.753L149.353 144.785V147.115L149.576 147.239V144.915Z" fill="#E0E0E0"/>
<path d="M152.025 146.327L163.333 139.822L163.115 139.697L151.863 146.165L151.807 146.196V148.526L152.025 148.651V146.327Z" fill="#E0E0E0"/>
<path d="M165.569 141.107L154.311 147.582L154.261 147.613V149.936L154.479 150.067V147.737L165.787 141.232L165.569 141.107Z" fill="#E0E0E0"/>
<path d="M50.2205 75.0103L44.0073 78.9992L43.1125 78.4835L43.5288 76.9302C43.5575 76.8274 43.6086 76.7324 43.6784 76.6518C43.7482 76.5712 43.8351 76.5071 43.9327 76.4642L49.9658 73.9043L50.8605 74.42L50.2205 75.0103Z" fill="#455A64"/>
<path d="M50.8604 75.0537L44.0259 78.9991L44.4422 77.4458C44.4696 77.3425 44.5202 77.2468 44.5902 77.1661C44.6602 77.0853 44.7477 77.0216 44.846 76.9798L50.8791 74.4199L50.8604 75.0537Z" fill="#37474F"/>
<path d="M45.2935 72.1962L39.0803 76.1788L38.1855 75.6694L38.6018 74.116C38.6292 74.0128 38.6799 73.9171 38.7499 73.8363C38.8199 73.7556 38.9074 73.6919 39.0057 73.65L45.0388 71.084L45.9335 71.5997L45.2935 72.1962Z" fill="#455A64"/>
<path d="M45.9395 72.2399L39.105 76.1791L39.5088 74.6258C39.5354 74.5221 39.5857 74.426 39.6558 74.3452C39.7259 74.2643 39.8138 74.2008 39.9127 74.1598L45.9458 71.5938L45.9395 72.2399Z" fill="#37474F"/>
<path d="M160.617 138.579L154.404 142.568L153.51 142.052L153.926 140.499C153.955 140.396 154.007 140.301 154.078 140.221C154.149 140.142 154.237 140.079 154.336 140.039L160.363 137.473L161.288 138.001L160.617 138.579Z" fill="#455A64"/>
<path d="M161.288 138.621L154.454 142.567L154.87 141.013C154.899 140.911 154.95 140.816 155.02 140.735C155.09 140.654 155.176 140.59 155.274 140.547L161.288 138V138.621Z" fill="#37474F"/>
<path d="M155.697 135.757L149.483 139.739L148.589 139.23L149.005 137.677C149.032 137.573 149.083 137.478 149.153 137.397C149.223 137.316 149.31 137.252 149.409 137.211L155.442 134.645L156.337 135.16L155.697 135.757Z" fill="#455A64"/>
<path d="M156.368 135.8L149.533 139.739L149.949 138.192C149.976 138.089 150.026 137.992 150.096 137.912C150.166 137.831 150.254 137.767 150.353 137.726L156.386 135.16L156.368 135.8Z" fill="#37474F"/>
<path d="M153.242 134.323L147.029 138.312L146.135 137.796L146.557 136.243C146.586 136.14 146.637 136.045 146.707 135.964C146.776 135.884 146.863 135.82 146.961 135.777L152.988 133.217L153.882 133.726L153.242 134.323Z" fill="#455A64"/>
<path d="M153.882 134.367L147.048 138.312L147.464 136.759C147.492 136.655 147.542 136.56 147.612 136.479C147.682 136.398 147.77 136.334 147.868 136.293L153.901 133.727L153.882 134.367Z" fill="#37474F"/>
<path d="M148.322 131.507L142.108 135.489L141.214 134.974L141.63 133.427C141.659 133.323 141.711 133.227 141.782 133.147C141.853 133.066 141.941 133.002 142.04 132.961L148.067 130.395L148.962 130.91L148.322 131.507Z" fill="#455A64"/>
<path d="M148.962 131.55L142.127 135.489L142.543 133.942C142.57 133.839 142.62 133.742 142.69 133.662C142.76 133.581 142.848 133.517 142.947 133.476L148.98 130.91L148.962 131.55Z" fill="#37474F"/>
<path d="M145.836 130.073L139.623 134.056L138.728 133.546L139.151 131.993C139.178 131.89 139.229 131.794 139.299 131.713C139.369 131.633 139.456 131.569 139.555 131.527L145.588 128.961L146.476 129.477L145.836 130.073Z" fill="#455A64"/>
<path d="M146.476 130.117L139.642 134.056L140.058 132.509C140.088 132.406 140.14 132.31 140.211 132.23C140.282 132.149 140.369 132.085 140.468 132.043L146.495 129.477L146.476 130.117Z" fill="#37474F"/>
<path d="M143.351 128.637L137.138 132.626L136.249 132.11L136.665 130.557C136.694 130.454 136.745 130.359 136.815 130.279C136.885 130.198 136.972 130.134 137.069 130.091L143.102 127.531L143.997 128.047L143.351 128.637Z" fill="#455A64"/>
<path d="M143.997 128.681L137.162 132.626L137.585 131.073C137.612 130.969 137.663 130.874 137.733 130.793C137.803 130.712 137.89 130.649 137.989 130.607L144.022 128.047L143.997 128.681Z" fill="#37474F"/>
<path d="M138.517 125.86L132.304 129.843L131.415 129.333L131.832 127.78C131.859 127.677 131.91 127.581 131.98 127.5C132.05 127.42 132.137 127.356 132.235 127.314L138.268 124.748L139.163 125.264L138.517 125.86Z" fill="#455A64"/>
<path d="M139.163 125.904L132.329 129.843L132.751 128.296C132.778 128.192 132.828 128.096 132.898 128.015C132.968 127.934 133.056 127.871 133.155 127.83L139.188 125.264L139.163 125.904Z" fill="#37474F"/>
<path d="M136.032 124.424L129.818 128.413L128.924 127.898L129.34 126.344C129.367 126.241 129.418 126.145 129.488 126.065C129.558 125.984 129.645 125.92 129.744 125.878L135.777 123.318L136.671 123.828L136.032 124.424Z" fill="#455A64"/>
<path d="M136.678 124.468L129.843 128.414L130.26 126.86C130.287 126.757 130.338 126.661 130.408 126.58C130.478 126.5 130.565 126.436 130.663 126.394L136.696 123.828L136.678 124.468Z" fill="#37474F"/>
<path d="M131.111 121.61L124.898 125.593L124.009 125.077L124.425 123.53C124.452 123.426 124.502 123.33 124.572 123.249C124.642 123.169 124.73 123.105 124.829 123.064L130.862 120.498L131.757 121.014L131.111 121.61Z" fill="#455A64"/>
<path d="M131.757 121.654L124.922 125.593L125.339 124.04C125.366 123.937 125.417 123.843 125.487 123.763C125.557 123.683 125.645 123.621 125.743 123.58L131.776 121.014L131.757 121.654Z" fill="#37474F"/>
<path d="M128.632 120.175L122.418 124.157L121.524 123.648L121.94 122.095C121.969 121.991 122.021 121.895 122.092 121.815C122.163 121.734 122.251 121.67 122.35 121.629L128.377 119.062L129.272 119.578L128.632 120.175Z" fill="#455A64"/>
<path d="M129.272 120.218L122.437 124.157L122.853 122.61C122.88 122.506 122.93 122.41 123 122.33C123.07 122.249 123.158 122.185 123.257 122.144L129.29 119.578L129.272 120.218Z" fill="#37474F"/>
<path d="M126.146 118.739L119.933 122.728L119.038 122.212L119.461 120.659C119.489 120.556 119.541 120.461 119.61 120.38C119.68 120.3 119.767 120.236 119.865 120.193L125.898 117.633L126.786 118.142L126.146 118.739Z" fill="#455A64"/>
<path d="M126.786 118.783L119.952 122.728L120.368 121.175C120.398 121.072 120.45 120.976 120.521 120.896C120.592 120.815 120.68 120.751 120.778 120.709L126.805 118.143L126.786 118.783Z" fill="#37474F"/>
<path d="M121.331 115.968L115.118 119.95L114.223 119.435L114.639 117.888C114.666 117.784 114.716 117.688 114.786 117.607C114.856 117.526 114.944 117.463 115.043 117.422L121.076 114.855L121.971 115.371L121.331 115.968Z" fill="#455A64"/>
<path d="M121.977 116.011L115.143 119.95L115.559 118.397C115.587 118.295 115.638 118.2 115.708 118.12C115.778 118.041 115.865 117.978 115.963 117.937L121.996 115.371L121.977 116.011Z" fill="#37474F"/>
<path d="M118.852 114.532L112.639 118.515L111.744 118.005L112.16 116.452C112.19 116.349 112.242 116.254 112.313 116.173C112.384 116.092 112.472 116.029 112.57 115.986L118.597 113.42L119.492 113.936L118.852 114.532Z" fill="#455A64"/>
<path d="M119.492 114.576L112.657 118.515L113.074 116.968C113.1 116.864 113.151 116.768 113.221 116.687C113.291 116.606 113.379 116.543 113.478 116.502L119.511 113.936L119.492 114.576Z" fill="#37474F"/>
<path d="M113.931 111.711L107.718 115.7L106.823 115.185L107.24 113.638C107.266 113.533 107.317 113.436 107.389 113.355C107.46 113.274 107.549 113.211 107.65 113.172L113.676 110.605L114.571 111.121L113.931 111.711Z" fill="#455A64"/>
<path d="M114.571 111.755L107.737 115.7L108.153 114.147C108.182 114.044 108.233 113.949 108.302 113.869C108.372 113.788 108.459 113.724 108.557 113.681L114.59 111.121L114.571 111.755Z" fill="#37474F"/>
<path d="M111.446 110.284L105.233 114.267L104.338 113.751L104.76 112.204C104.788 112.101 104.838 112.005 104.908 111.924C104.978 111.843 105.066 111.78 105.164 111.738L111.197 109.172L112.086 109.688L111.446 110.284Z" fill="#455A64"/>
<path d="M112.086 110.327L105.251 114.267L105.668 112.72C105.696 112.616 105.747 112.52 105.818 112.439C105.889 112.358 105.978 112.295 106.078 112.254L112.104 109.688L112.086 110.327Z" fill="#37474F"/>
<path d="M108.961 108.848L102.747 112.837L101.859 112.321L102.275 110.768C102.303 110.665 102.353 110.569 102.423 110.488C102.493 110.408 102.581 110.344 102.679 110.302L108.712 107.742L109.607 108.252L108.961 108.848Z" fill="#455A64"/>
<path d="M109.607 108.892L102.772 112.837L103.195 111.284C103.222 111.181 103.273 111.085 103.343 111.004C103.413 110.924 103.5 110.86 103.599 110.818L109.632 108.252L109.607 108.892Z" fill="#37474F"/>
<path d="M104.127 106.07L97.9135 110.04L97.0188 109.524L97.4413 107.977C97.4678 107.874 97.5181 107.778 97.5882 107.697C97.6583 107.616 97.7463 107.552 97.8452 107.511L103.878 104.945L104.767 105.461L104.127 106.07Z" fill="#455A64"/>
<path d="M104.748 106.113L97.9133 110.04L98.3358 108.487C98.3637 108.384 98.4145 108.29 98.4845 108.21C98.5545 108.13 98.6418 108.068 98.7397 108.027L104.767 105.461L104.748 106.113Z" fill="#37474F"/>
<path d="M101.641 104.636L95.428 108.618L94.5396 108.109L94.9558 106.556C94.9832 106.452 95.0339 106.357 95.1039 106.276C95.1738 106.195 95.2614 106.131 95.3597 106.09L101.393 103.523L102.287 104.039L101.641 104.636Z" fill="#455A64"/>
<path d="M102.263 104.679L95.428 108.618L95.8505 107.071C95.877 106.967 95.9273 106.871 95.9974 106.79C96.0675 106.71 96.1555 106.646 96.2543 106.605L102.287 104.039L102.263 104.679Z" fill="#37474F"/>
<path d="M96.7204 101.815L90.5071 105.804L89.6187 105.288L90.0349 103.735C90.0628 103.632 90.1136 103.538 90.1836 103.458C90.2536 103.378 90.3409 103.316 90.4388 103.275L96.4719 100.709L97.3666 101.225L96.7204 101.815Z" fill="#455A64"/>
<path d="M97.3668 101.858L90.5322 105.804L90.9547 104.25C90.9834 104.148 91.0345 104.053 91.1043 103.972C91.1741 103.892 91.261 103.827 91.3586 103.784L97.3917 101.225L97.3668 101.858Z" fill="#37474F"/>
<path d="M94.2413 100.386L88.028 104.368L87.1333 103.853L87.5496 102.306C87.5763 102.201 87.6274 102.104 87.6987 102.023C87.7699 101.942 87.8594 101.879 87.9597 101.84L93.9865 99.2734L94.8812 99.7891L94.2413 100.386Z" fill="#455A64"/>
<path d="M94.8814 100.429L88.0469 104.368L88.4632 102.821C88.4897 102.717 88.54 102.621 88.6101 102.54C88.6802 102.46 88.7682 102.396 88.867 102.355L94.9001 99.7891L94.8814 100.429Z" fill="#37474F"/>
<path d="M91.7561 98.9501L85.5429 102.933L84.6482 102.423L85.0707 100.87C85.0981 100.767 85.1488 100.671 85.2187 100.59C85.2887 100.509 85.3762 100.446 85.4746 100.404L91.5014 97.8379L92.3961 98.3536L91.7561 98.9501Z" fill="#455A64"/>
<path d="M92.3961 98.9935L85.5615 102.933L85.9778 101.386C86.0054 101.281 86.0569 101.185 86.128 101.104C86.1992 101.023 86.2881 100.96 86.3879 100.92L92.4147 98.3535L92.3961 98.9935Z" fill="#37474F"/>
<path d="M87.0466 96.2231L80.8333 100.212L79.9448 99.6964L80.3611 98.143C80.3898 98.0403 80.4408 97.9453 80.5107 97.8647C80.5805 97.7841 80.6674 97.72 80.765 97.6771L86.798 95.1172L87.6927 95.6267L87.0466 96.2231Z" fill="#455A64"/>
<path d="M87.6927 96.2669L80.8582 100.212L81.2807 98.659C81.3081 98.5557 81.3587 98.4601 81.4287 98.3793C81.4987 98.2985 81.5862 98.2348 81.6845 98.193L87.7176 95.627L87.6927 96.2669Z" fill="#37474F"/>
<path d="M84.5611 94.7876L78.3478 98.7765L77.4531 98.2608L77.8694 96.7075C77.8972 96.6051 77.9481 96.5105 78.0181 96.4308C78.0881 96.3511 78.1754 96.2885 78.2733 96.2477L84.3063 93.6816L85.201 94.1973L84.5611 94.7876Z" fill="#455A64"/>
<path d="M85.2074 94.831L78.3728 98.7764L78.7891 97.2231C78.8177 97.1204 78.8688 97.0253 78.9387 96.9448C79.0085 96.8642 79.0953 96.8001 79.1929 96.7571L85.226 94.1973L85.2074 94.831Z" fill="#37474F"/>
<path d="M79.6402 91.9731L73.4269 95.962L72.5322 95.4463L72.9485 93.893C72.9759 93.7897 73.0266 93.6941 73.0966 93.6133C73.1665 93.5326 73.254 93.4689 73.3524 93.427L79.3854 90.8672L80.2801 91.3767L79.6402 91.9731Z" fill="#455A64"/>
<path d="M80.2865 92.0228L73.4519 95.9682L73.8682 94.4149C73.8956 94.3116 73.9462 94.2159 74.0162 94.1352C74.0862 94.0544 74.1737 93.9907 74.272 93.9489L80.3051 91.3828L80.2865 92.0228Z" fill="#37474F"/>
<path d="M77.1612 90.5376L70.9479 94.5265L70.0532 94.0108L70.4695 92.4575C70.5004 92.3549 70.553 92.2602 70.6237 92.1798C70.6945 92.0994 70.7818 92.0352 70.8796 91.9915L76.9064 89.4316L77.8011 89.9473L77.1612 90.5376Z" fill="#455A64"/>
<path d="M77.8011 90.581L70.9666 94.5264L71.3828 92.9731C71.4103 92.8698 71.4609 92.7742 71.5309 92.6934C71.6009 92.6126 71.6884 92.5489 71.7867 92.5071L77.8198 89.9473L77.8011 90.581Z" fill="#37474F"/>
<path d="M74.6758 89.1021L68.4626 93.091L67.5679 92.5753L67.9904 91.0282C68.0169 90.9245 68.0672 90.8284 68.1373 90.7475C68.2074 90.6666 68.2954 90.6032 68.3942 90.5622L74.4273 87.9961L75.3158 88.5118L74.6758 89.1021Z" fill="#455A64"/>
<path d="M75.3158 89.1455L68.4812 93.0909L68.8975 91.5376C68.9284 91.435 68.981 91.3403 69.0517 91.2599C69.1225 91.1795 69.2097 91.1152 69.3076 91.0716L75.3344 88.5117L75.3158 89.1455Z" fill="#37474F"/>
<path d="M69.8421 86.3247L63.6288 90.3136L62.7341 89.7979L63.1566 88.2446C63.1853 88.1419 63.2364 88.0468 63.3062 87.9662C63.376 87.8856 63.4629 87.8216 63.5605 87.7786L69.5873 85.2188L70.482 85.7282L69.8421 86.3247Z" fill="#455A64"/>
<path d="M70.482 86.3685L63.6475 90.3139L64.0637 88.7606C64.0927 88.6571 64.1445 88.5614 64.2155 88.4807C64.2865 88.4 64.3748 88.3364 64.4738 88.2946L70.5007 85.7285L70.482 86.3685Z" fill="#37474F"/>
<path d="M67.3566 84.8892L61.1434 88.8781L60.2549 88.3624L60.6712 86.8091C60.699 86.7067 60.7498 86.6121 60.8198 86.5324C60.8898 86.4527 60.9771 86.3901 61.075 86.3493L67.1081 83.7832L68.0028 84.2989L67.3566 84.8892Z" fill="#455A64"/>
<path d="M68.0028 84.9326L61.1682 88.878L61.5907 87.3247C61.6194 87.222 61.6705 87.1269 61.7403 87.0463C61.8101 86.9657 61.897 86.9016 61.9946 86.8587L68.0276 84.2988L68.0028 84.9326Z" fill="#37474F"/>
<path d="M62.4358 82.0809L56.2226 86.0636L55.3279 85.5541L55.7504 84.0008C55.7778 83.8975 55.8284 83.8019 55.8984 83.7211C55.9684 83.6403 56.0559 83.5766 56.1542 83.5348L62.1873 80.9688L63.0758 81.4844L62.4358 82.0809Z" fill="#455A64"/>
<path d="M63.0758 82.1185L56.2412 86.0577L56.6637 84.5106C56.6911 84.4073 56.7418 84.3116 56.8117 84.2309C56.8817 84.1501 56.9692 84.0864 57.0676 84.0446L63.0944 81.4785L63.0758 82.1185Z" fill="#37474F"/>
<path d="M59.9505 80.6392L53.7372 84.6281L52.8425 84.1124L53.2588 82.5591C53.2875 82.4563 53.3386 82.3613 53.4084 82.2807C53.4782 82.2001 53.5651 82.136 53.6627 82.0931L59.6957 79.5332L60.5904 80.0489L59.9505 80.6392Z" fill="#455A64"/>
<path d="M60.5968 80.6826L53.7622 84.628L54.1785 83.0747C54.2059 82.9714 54.2565 82.8757 54.3265 82.795C54.3965 82.7142 54.484 82.6505 54.5824 82.6087L60.6154 80.0488L60.5968 80.6826Z" fill="#37474F"/>
<path d="M57.4715 79.2036L51.2582 83.1925L50.3635 82.6768L50.7798 81.1297C50.8079 81.0258 50.8594 80.9297 50.9306 80.8489C51.0017 80.7681 51.0904 80.7048 51.1899 80.6637L57.2167 78.0977L58.1114 78.6134L57.4715 79.2036Z" fill="#455A64"/>
<path d="M58.1114 79.247L51.2769 83.1924L51.6931 81.6391C51.7218 81.5364 51.7729 81.4413 51.8427 81.3608C51.9126 81.2802 51.9994 81.2161 52.097 81.1731L58.1301 78.6133L58.1114 79.247Z" fill="#37474F"/>
<path d="M52.6996 76.4462L46.4864 80.4288L45.5979 79.9194L46.0142 78.3661C46.0416 78.2628 46.0922 78.1671 46.1622 78.0863C46.2322 78.0056 46.3197 77.9419 46.418 77.9001L52.4511 75.334L53.3458 75.8497L52.6996 76.4462Z" fill="#455A64"/>
<path d="M53.3458 76.4896L46.5112 80.4288L46.9337 78.8817C46.9611 78.7784 47.0118 78.6827 47.0818 78.602C47.1517 78.5212 47.2393 78.4575 47.3376 78.4157L53.3706 75.8496L53.3458 76.4896Z" fill="#37474F"/>
<path d="M154.429 151.179L149.452 148.303L165.526 135.615L170.521 138.492L154.429 151.179Z" fill="#FFD000"/>
<path opacity="0.2" d="M154.429 151.179L149.452 148.303L165.526 135.615L170.521 138.492L154.429 151.179Z" fill="white"/>
<path d="M154.429 151.179V157.747L149.452 154.876V148.303L154.429 151.179Z" fill="#FFD000"/>
<path d="M170.521 138.492V146.253L154.429 155.504V151.18L170.521 138.492Z" fill="#FFD000"/>
<path opacity="0.4" d="M170.521 138.492V146.253L154.429 155.504V151.18L170.521 138.492Z" fill="black"/>
<path d="M107.233 72.32C113.49 71.8167 122.928 81.3541 122.928 81.3541L114.851 105.306C114.851 105.306 105.425 95.7502 99.156 96.2721L107.233 72.32Z" fill="#F5F5F5"/>
<path d="M107.233 72.3198C113.49 71.8165 122.35 78.0857 122.35 78.0857L114.273 102.038C114.273 102.038 105.425 95.7499 99.156 96.2718L107.233 72.3198Z" fill="white"/>
<path d="M99.156 96.2713C99.156 96.2713 97.4411 90.6794 83.4675 87.2372L91.5447 63.2852C105.518 66.7273 107.233 72.3192 107.233 72.3192L99.156 96.2713Z" fill="#F5F5F5"/>
<path d="M119.927 79.9878C119.953 79.9875 119.979 79.9813 120.003 79.9694C120.027 79.9576 120.047 79.9405 120.064 79.9194C120.077 79.9015 120.086 79.8812 120.092 79.8596C120.097 79.838 120.098 79.8156 120.094 79.7936C120.091 79.7716 120.083 79.7505 120.071 79.7316C120.06 79.7127 120.044 79.6963 120.026 79.6833C119.747 79.4783 113.018 74.5947 108.01 75.1104C107.988 75.1127 107.966 75.1194 107.947 75.13C107.927 75.1407 107.91 75.1551 107.896 75.1724C107.883 75.1898 107.872 75.2097 107.866 75.231C107.86 75.2524 107.858 75.2747 107.861 75.2968C107.861 75.3189 107.867 75.3407 107.876 75.3606C107.886 75.3805 107.9 75.3981 107.917 75.4122C107.934 75.4264 107.954 75.4367 107.975 75.4425C107.997 75.4483 108.019 75.4495 108.041 75.4459C112.937 74.9488 119.759 79.907 119.846 79.9567C119.871 79.9727 119.898 79.9833 119.927 79.9878Z" fill="#DDDDDD"/>
<path d="M119.355 81.6332C119.382 81.6335 119.408 81.6274 119.432 81.6155C119.456 81.6036 119.476 81.5863 119.492 81.5649C119.518 81.5289 119.529 81.4845 119.523 81.4407C119.517 81.3968 119.495 81.3568 119.461 81.3288C119.175 81.1175 112.471 76.2339 107.438 76.7558C107.416 76.7581 107.395 76.7648 107.375 76.7755C107.356 76.7861 107.339 76.8005 107.325 76.8179C107.311 76.8352 107.301 76.8551 107.295 76.8765C107.288 76.8978 107.287 76.9202 107.289 76.9422C107.291 76.964 107.297 76.9853 107.307 77.0048C107.317 77.0242 107.331 77.0414 107.347 77.0554C107.364 77.0693 107.384 77.0797 107.405 77.0859C107.426 77.0921 107.448 77.0939 107.469 77.0913C112.378 76.5881 119.188 81.5462 119.275 81.5959C119.298 81.6154 119.326 81.6283 119.355 81.6332Z" fill="#DDDDDD"/>
<path d="M118.79 83.2797C118.817 83.2787 118.843 83.2715 118.867 83.2586C118.891 83.2456 118.911 83.2273 118.926 83.2051C118.951 83.1694 118.961 83.1255 118.954 83.0827C118.947 83.0398 118.924 83.0013 118.889 82.9752C118.603 82.764 111.893 77.8804 106.867 78.4023C106.844 78.4046 106.823 78.4113 106.804 78.4219C106.784 78.4326 106.767 78.447 106.753 78.4643C106.739 78.4817 106.729 78.5016 106.723 78.5229C106.717 78.5443 106.715 78.5666 106.717 78.5887C106.724 78.6326 106.746 78.6725 106.781 78.7003C106.816 78.728 106.86 78.7414 106.904 78.7378C111.8 78.2345 118.622 83.1927 118.709 83.2424C118.732 83.2624 118.76 83.2754 118.79 83.2797Z" fill="#DDDDDD"/>
<path d="M118.218 84.92C118.245 84.922 118.272 84.9167 118.296 84.9046C118.32 84.8926 118.34 84.8743 118.355 84.8516C118.368 84.8342 118.377 84.8144 118.383 84.7933C118.388 84.7722 118.389 84.7502 118.385 84.7287C118.382 84.7073 118.374 84.6867 118.362 84.6683C118.351 84.65 118.336 84.6341 118.318 84.6217C118.038 84.4105 111.315 79.5269 106.301 80.0488C106.257 80.0535 106.217 80.0747 106.188 80.1082C106.159 80.1416 106.144 80.1848 106.146 80.229C106.147 80.2514 106.153 80.2732 106.164 80.2932C106.174 80.3131 106.189 80.3306 106.206 80.3447C106.224 80.3587 106.244 80.3689 106.266 80.3747C106.287 80.3804 106.31 80.3816 106.332 80.3781C111.228 79.881 118.05 84.8392 118.137 84.8889C118.161 84.9067 118.189 84.9175 118.218 84.92Z" fill="#DDDDDD"/>
<path d="M117.653 86.5664C117.678 86.5662 117.704 86.5599 117.726 86.548C117.749 86.5361 117.769 86.519 117.783 86.4981C117.809 86.4622 117.82 86.4178 117.814 86.3739C117.809 86.33 117.786 86.29 117.752 86.262C117.466 86.057 110.744 81.1734 105.73 81.6953C105.708 81.6968 105.686 81.7027 105.667 81.7127C105.648 81.7227 105.63 81.7366 105.616 81.7534C105.602 81.7703 105.592 81.7898 105.586 81.8107C105.58 81.8317 105.578 81.8537 105.58 81.8754C105.581 81.8976 105.586 81.9193 105.596 81.9393C105.606 81.9592 105.62 81.9768 105.637 81.9909C105.654 82.005 105.674 82.0153 105.695 82.0211C105.716 82.0269 105.739 82.0281 105.761 82.0246C110.663 81.5275 117.485 86.4857 117.566 86.5354C117.592 86.552 117.622 86.5626 117.653 86.5664Z" fill="#DDDDDD"/>
<path d="M117.081 88.2135C117.107 88.2133 117.132 88.207 117.155 88.1951C117.177 88.1832 117.197 88.1661 117.212 88.1452C117.225 88.1276 117.235 88.1076 117.241 88.0863C117.247 88.0649 117.248 88.0426 117.245 88.0206C117.242 87.9987 117.235 87.9775 117.224 87.9584C117.213 87.9392 117.198 87.9225 117.181 87.9091C116.895 87.704 110.172 82.8266 105.158 83.3361C105.114 83.3423 105.074 83.365 105.046 83.3997C105.019 83.4343 105.005 83.4783 105.009 83.5225C105.01 83.5449 105.016 83.5668 105.027 83.5867C105.037 83.6066 105.052 83.6242 105.069 83.6382C105.087 83.6522 105.107 83.6625 105.129 83.6682C105.15 83.674 105.173 83.6751 105.195 83.6716C110.085 83.1746 116.913 88.1327 117 88.1824C117.025 88.199 117.052 88.2096 117.081 88.2135Z" fill="#DDDDDD"/>
<path d="M116.51 89.8609C116.536 89.8606 116.562 89.8544 116.586 89.8425C116.609 89.8307 116.63 89.8136 116.646 89.7925C116.659 89.7746 116.669 89.7543 116.674 89.7327C116.68 89.7111 116.68 89.6886 116.677 89.6667C116.674 89.6447 116.666 89.6236 116.654 89.6047C116.642 89.5858 116.627 89.5694 116.609 89.5564C116.323 89.3452 109.6 84.4678 104.593 84.9835C104.548 84.9896 104.507 85.0121 104.479 85.0466C104.45 85.0811 104.435 85.125 104.437 85.1699C104.439 85.1923 104.445 85.2142 104.455 85.2341C104.466 85.254 104.48 85.2715 104.497 85.2856C104.515 85.2996 104.535 85.3098 104.557 85.3156C104.579 85.3213 104.601 85.3225 104.624 85.319C109.52 84.8157 116.342 89.7739 116.429 89.8298C116.453 89.8464 116.481 89.857 116.51 89.8609Z" fill="#DDDDDD"/>
<path d="M115.932 91.5074C115.958 91.5076 115.985 91.5015 116.008 91.4897C116.032 91.4778 116.053 91.4604 116.068 91.439C116.082 91.4211 116.091 91.4008 116.096 91.3792C116.102 91.3576 116.103 91.3351 116.099 91.3132C116.096 91.2912 116.088 91.2701 116.076 91.2512C116.065 91.2323 116.049 91.2158 116.031 91.2029C115.752 90.9916 109.029 86.1143 104.015 86.63C103.993 86.6323 103.971 86.6389 103.952 86.6496C103.932 86.6602 103.915 86.6747 103.901 86.692C103.887 86.7093 103.877 86.7293 103.871 86.7506C103.865 86.7719 103.863 86.7943 103.866 86.8164C103.867 86.8382 103.873 86.8594 103.883 86.8789C103.893 86.8983 103.907 86.9156 103.924 86.9295C103.941 86.9434 103.96 86.9538 103.981 86.96C104.002 86.9662 104.024 86.968 104.046 86.9655C108.942 86.4622 115.764 91.4204 115.851 91.4701C115.874 91.4895 115.902 91.5024 115.932 91.5074Z" fill="#DDDDDD"/>
<path d="M115.373 93.1465C115.398 93.1474 115.424 93.1416 115.447 93.1296C115.47 93.1176 115.489 93.0999 115.503 93.0782C115.517 93.0612 115.526 93.0417 115.532 93.0208C115.538 92.9999 115.539 92.9781 115.536 92.9567C115.533 92.9352 115.526 92.9146 115.515 92.896C115.504 92.8773 115.489 92.8611 115.472 92.8483C115.186 92.637 108.47 87.7534 103.449 88.2753C103.406 88.2801 103.366 88.3015 103.338 88.3352C103.31 88.3688 103.297 88.412 103.3 88.4555C103.302 88.4779 103.308 88.4998 103.318 88.5197C103.329 88.5396 103.343 88.5572 103.361 88.5712C103.378 88.5853 103.398 88.5955 103.42 88.6012C103.442 88.607 103.465 88.6081 103.487 88.6046C108.383 88.1076 115.205 93.0657 115.292 93.1155C115.315 93.1336 115.343 93.1444 115.373 93.1465Z" fill="#DDDDDD"/>
<path d="M114.801 94.793C114.828 94.7928 114.854 94.7865 114.877 94.7747C114.901 94.7628 114.922 94.7457 114.938 94.7247C114.951 94.7068 114.961 94.6864 114.966 94.6648C114.971 94.6432 114.972 94.6208 114.969 94.5988C114.965 94.5768 114.957 94.5558 114.946 94.5368C114.934 94.5179 114.919 94.5015 114.901 94.4886C114.615 94.2835 107.892 89.3999 102.884 89.9218C102.862 89.9234 102.841 89.9293 102.821 89.9392C102.801 89.9492 102.783 89.9629 102.769 89.9796C102.755 89.9964 102.744 90.0158 102.737 90.0368C102.73 90.0578 102.727 90.08 102.729 90.102C102.73 90.1244 102.736 90.1463 102.747 90.1662C102.757 90.1861 102.772 90.2037 102.789 90.2177C102.807 90.2317 102.827 90.242 102.849 90.2477C102.87 90.2535 102.893 90.2546 102.915 90.2511C107.817 89.7541 114.633 94.7122 114.72 94.7619C114.744 94.7801 114.772 94.7909 114.801 94.793Z" fill="#DDDDDD"/>
<path d="M114.229 96.4398C114.256 96.4401 114.282 96.434 114.306 96.4221C114.33 96.4102 114.35 96.3929 114.366 96.3715C114.379 96.3536 114.389 96.3332 114.394 96.3116C114.399 96.29 114.4 96.2676 114.397 96.2456C114.393 96.2236 114.386 96.2026 114.374 96.1836C114.362 96.1647 114.347 96.1483 114.329 96.1354C114.049 95.9303 107.339 91.0405 102.312 91.5624C102.29 91.5647 102.269 91.5714 102.249 91.582C102.23 91.5927 102.213 91.6071 102.199 91.6245C102.185 91.6418 102.175 91.6617 102.169 91.6831C102.162 91.7044 102.161 91.7267 102.163 91.7488C102.164 91.7709 102.169 91.7927 102.179 91.8126C102.189 91.8325 102.202 91.8501 102.219 91.8643C102.237 91.8784 102.256 91.8887 102.278 91.8945C102.299 91.9003 102.322 91.9015 102.343 91.8979C107.246 91.3947 114.062 96.359 114.149 96.4087C114.173 96.4247 114.201 96.4353 114.229 96.4398Z" fill="#DDDDDD"/>
<path d="M113.664 98.0874C113.69 98.0872 113.715 98.0808 113.737 98.069C113.76 98.0571 113.78 98.04 113.794 98.019C113.808 98.0015 113.818 97.9815 113.824 97.9601C113.829 97.9388 113.831 97.9165 113.828 97.8945C113.825 97.8726 113.818 97.8514 113.807 97.8323C113.796 97.8131 113.781 97.7964 113.763 97.7829C113.478 97.5779 106.773 92.6943 101.741 93.21C101.697 93.2162 101.657 93.2389 101.629 93.2736C101.601 93.3082 101.588 93.3522 101.592 93.3964C101.593 93.4188 101.599 93.4407 101.61 93.4606C101.62 93.4805 101.634 93.4981 101.652 93.5121C101.669 93.5261 101.69 93.5363 101.711 93.5421C101.733 93.5478 101.756 93.549 101.778 93.5455C106.674 93.0422 113.496 98.0066 113.583 98.0563C113.607 98.0729 113.635 98.0835 113.664 98.0874Z" fill="#DDDDDD"/>
<path d="M104.636 73.8301H104.686C104.707 73.8237 104.727 73.8131 104.744 73.799C104.761 73.7849 104.776 73.7675 104.786 73.7478C104.796 73.7282 104.803 73.7066 104.805 73.6845C104.807 73.6623 104.804 73.64 104.798 73.6188C104.742 73.4324 103.244 69.021 92.2283 66.3369C92.2066 66.3304 92.1839 66.3285 92.1615 66.3314C92.139 66.3342 92.1175 66.3418 92.0981 66.3535C92.0788 66.3652 92.0622 66.3808 92.0493 66.3994C92.0364 66.4179 92.0275 66.439 92.0232 66.4611C92.0177 66.4824 92.0166 66.5045 92.0199 66.5262C92.0233 66.5479 92.031 66.5687 92.0426 66.5873C92.0542 66.6059 92.0695 66.6219 92.0876 66.6344C92.1056 66.6469 92.126 66.6556 92.1475 66.66C102.946 69.2944 104.462 73.6747 104.481 73.7182C104.491 73.751 104.512 73.7795 104.54 73.7996C104.568 73.8197 104.602 73.8304 104.636 73.8301Z" fill="#DDDDDD"/>
<path d="M104.071 75.5081H104.12C104.142 75.5024 104.161 75.4925 104.178 75.479C104.196 75.4655 104.21 75.4486 104.22 75.4295C104.231 75.4103 104.237 75.3892 104.239 75.3675C104.241 75.3458 104.239 75.3238 104.232 75.3031C104.176 75.1167 102.679 70.7053 91.6567 68.0211C91.6359 68.0156 91.6142 68.0142 91.5929 68.0171C91.5715 68.0201 91.551 68.0273 91.5325 68.0383C91.5139 68.0493 91.4978 68.0639 91.485 68.0812C91.4722 68.0985 91.463 68.1182 91.4579 68.1392C91.4523 68.1608 91.4512 68.1833 91.4544 68.2054C91.4577 68.2275 91.4654 68.2487 91.4769 68.2678C91.4885 68.2869 91.5038 68.3035 91.5219 68.3166C91.5399 68.3298 91.5604 68.3391 91.5822 68.3442C102.381 70.9786 103.897 75.359 103.915 75.4025C103.928 75.4336 103.949 75.4602 103.977 75.4791C104.005 75.4979 104.037 75.508 104.071 75.5081Z" fill="#DDDDDD"/>
<path d="M103.505 77.178H103.555C103.597 77.1638 103.632 77.1339 103.653 77.0946C103.674 77.0554 103.679 77.0096 103.667 76.9668C103.605 76.7804 102.113 72.3752 91.0912 69.6849C91.0699 69.6794 91.0478 69.6782 91.0261 69.6816C91.0044 69.6849 90.9837 69.6926 90.9651 69.7042C90.9465 69.7159 90.9304 69.7312 90.9179 69.7492C90.9054 69.7672 90.8967 69.7876 90.8924 69.8091C90.881 69.852 90.887 69.8976 90.9091 69.936C90.9312 69.9744 90.9676 70.0025 91.0104 70.0142C101.815 72.6486 103.331 77.0227 103.344 77.0662C103.356 77.0989 103.378 77.1271 103.407 77.1471C103.436 77.167 103.47 77.1778 103.505 77.178Z" fill="#DDDDDD"/>
<path d="M102.94 78.8574H102.99C103.032 78.8431 103.067 78.8133 103.088 78.774C103.108 78.7347 103.113 78.689 103.101 78.6461C103.039 78.4597 101.548 74.0483 90.5259 71.3642C90.5046 71.3577 90.4822 71.3558 90.4602 71.3588C90.4381 71.3617 90.417 71.3693 90.3981 71.381C90.3793 71.3928 90.3632 71.4085 90.3509 71.427C90.3387 71.4456 90.3305 71.4665 90.327 71.4885C90.3215 71.5093 90.3201 71.531 90.323 71.5523C90.326 71.5737 90.3332 71.5942 90.3442 71.6127C90.3552 71.6313 90.3698 71.6474 90.3871 71.6602C90.4044 71.673 90.4242 71.6822 90.4451 71.6873C101.25 74.3217 102.766 78.702 102.778 78.7455C102.791 78.7783 102.813 78.8065 102.842 78.8264C102.871 78.8464 102.905 78.8572 102.94 78.8574Z" fill="#DDDDDD"/>
<path d="M102.374 80.5332H102.424C102.466 80.5203 102.501 80.4916 102.522 80.4534C102.542 80.4151 102.548 80.3702 102.536 80.3282C102.474 80.1418 100.983 75.7304 89.9604 73.0463C89.9388 73.0407 89.9162 73.0396 89.8941 73.0428C89.872 73.0461 89.8508 73.0537 89.8317 73.0653C89.8126 73.0769 89.796 73.0921 89.7829 73.1102C89.7698 73.1283 89.7604 73.1488 89.7553 73.1705C89.746 73.2133 89.7537 73.2581 89.777 73.2953C89.8002 73.3324 89.837 73.359 89.8796 73.3694C100.684 76.0038 102.2 80.3841 102.213 80.4276C102.227 80.4587 102.25 80.4852 102.278 80.5039C102.307 80.5226 102.34 80.5328 102.374 80.5332Z" fill="#DDDDDD"/>
<path d="M101.809 82.2051H101.859C101.88 82.1987 101.9 82.1881 101.917 82.174C101.934 82.1599 101.948 82.1425 101.959 82.1229C101.969 82.1032 101.976 82.0817 101.978 82.0595C101.98 82.0374 101.977 82.015 101.971 81.9938C101.908 81.8074 100.417 77.4022 89.395 74.7119C89.3513 74.7012 89.3052 74.7083 89.2667 74.7316C89.2283 74.7549 89.2006 74.7925 89.1899 74.8362C89.1792 74.8798 89.1863 74.926 89.2096 74.9644C89.2329 75.0029 89.2705 75.0305 89.3142 75.0412C100.119 77.6694 101.641 82.0808 101.641 82.0808C101.651 82.1174 101.673 82.1497 101.703 82.1722C101.734 82.1948 101.771 82.2064 101.809 82.2051Z" fill="#DDDDDD"/>
<path d="M101.244 83.8832H101.293C101.335 83.869 101.37 83.8389 101.39 83.7993C101.409 83.7598 101.413 83.714 101.399 83.672C101.343 83.4856 99.8519 79.0804 88.8296 76.39C88.808 76.3845 88.7855 76.3833 88.7634 76.3866C88.7413 76.3898 88.7201 76.3975 88.701 76.4091C88.6819 76.4206 88.6653 76.4359 88.6522 76.454C88.6391 76.472 88.6297 76.4926 88.6246 76.5143C88.6165 76.5578 88.6248 76.6027 88.6477 76.6405C88.6706 76.6783 88.7066 76.7064 88.7489 76.7193C99.5537 79.3537 101.07 83.7279 101.082 83.7714C101.094 83.8046 101.116 83.8333 101.145 83.8534C101.174 83.8735 101.208 83.8839 101.244 83.8832Z" fill="#DDDDDD"/>
<path d="M100.678 85.5609H100.728C100.77 85.5468 100.804 85.5166 100.824 85.477C100.844 85.4375 100.847 85.3917 100.834 85.3497C100.778 85.1633 99.2802 80.7519 88.2642 78.0678C88.2425 78.0622 88.22 78.061 88.1979 78.0643C88.1758 78.0676 88.1546 78.0752 88.1355 78.0868C88.1164 78.0984 88.0998 78.1136 88.0867 78.1317C88.0736 78.1498 88.0642 78.1703 88.0591 78.192C88.0536 78.2133 88.0525 78.2354 88.0558 78.2571C88.0592 78.2788 88.0669 78.2995 88.0785 78.3182C88.0901 78.3368 88.1054 78.3528 88.1235 78.3653C88.1415 78.3778 88.1619 78.3865 88.1834 78.3909C98.9882 81.0253 100.504 85.4056 100.517 85.4491C100.528 85.4824 100.55 85.5111 100.579 85.5311C100.608 85.5512 100.643 85.5616 100.678 85.5609Z" fill="#DDDDDD"/>
<path d="M100.113 87.2383H100.163C100.184 87.2328 100.203 87.2229 100.22 87.2093C100.237 87.1957 100.251 87.1786 100.261 87.1593C100.271 87.14 100.277 87.1188 100.278 87.0971C100.279 87.0754 100.276 87.0536 100.268 87.0333C100.212 86.8469 98.7149 82.4355 87.6988 79.7514C87.6767 79.7429 87.6529 79.7392 87.6292 79.7405C87.6055 79.7418 87.5824 79.7482 87.5613 79.7591C87.5402 79.7701 87.5217 79.7854 87.507 79.8041C87.4923 79.8227 87.4817 79.8443 87.476 79.8673C87.4702 79.8903 87.4694 79.9143 87.4736 79.9377C87.4778 79.9611 87.4869 79.9833 87.5004 80.0029C87.5138 80.0225 87.5312 80.039 87.5515 80.0513C87.5718 80.0637 87.5945 80.0716 87.6181 80.0745C98.4229 82.7089 99.9327 87.0892 99.9514 87.1327C99.9649 87.1643 99.9874 87.1912 100.016 87.21C100.045 87.2288 100.079 87.2387 100.113 87.2383Z" fill="#DDDDDD"/>
<path d="M99.5412 88.9152H99.5972C99.6184 88.9089 99.6381 88.8983 99.6551 88.8841C99.6721 88.8699 99.686 88.8523 99.6959 88.8325C99.7058 88.8127 99.7115 88.791 99.7127 88.7689C99.7139 88.7468 99.7105 88.7247 99.7028 88.7039C99.6469 88.5175 98.1495 84.1123 87.1334 81.422C87.0898 81.4125 87.0442 81.42 87.0061 81.4432C86.9679 81.4663 86.9401 81.5032 86.9284 81.5463C86.9228 81.5679 86.9216 81.5904 86.9249 81.6125C86.9282 81.6346 86.9358 81.6558 86.9474 81.6749C86.959 81.694 86.9742 81.7106 86.9923 81.7237C87.0104 81.7368 87.0309 81.7462 87.0526 81.7513C97.8575 84.3857 99.3673 88.7598 99.3859 88.8033C99.3965 88.8361 99.4173 88.8646 99.4452 88.8847C99.4732 88.9048 99.5068 88.9155 99.5412 88.9152Z" fill="#DDDDDD"/>
<path d="M98.9758 90.5872H99.0256C99.0469 90.5808 99.0667 90.5702 99.0839 90.5561C99.1011 90.542 99.1153 90.5246 99.1257 90.505C99.1361 90.4853 99.1425 90.4638 99.1445 90.4416C99.1465 90.4195 99.1441 90.3971 99.1374 90.3759C99.0815 90.1895 97.5841 85.7781 86.5618 83.094C86.5393 83.085 86.5152 83.081 86.491 83.0822C86.4668 83.0835 86.4432 83.0899 86.4218 83.1011C86.4003 83.1123 86.3816 83.1281 86.3668 83.1472C86.352 83.1664 86.3415 83.1885 86.3361 83.2121C86.3306 83.2356 86.3304 83.2601 86.3353 83.2838C86.3402 83.3075 86.3502 83.3299 86.3645 83.3493C86.3789 83.3688 86.3973 83.385 86.4184 83.3966C86.4396 83.4083 86.4631 83.4153 86.4872 83.4171C97.2858 86.0515 98.8019 90.4318 98.8205 90.4753C98.8311 90.5081 98.8519 90.5366 98.8798 90.5567C98.9078 90.5769 98.9414 90.5875 98.9758 90.5872Z" fill="#DDDDDD"/>
<path d="M98.4105 92.264H98.4603C98.4816 92.2576 98.5014 92.247 98.5186 92.2329C98.5358 92.2188 98.55 92.2014 98.5604 92.1818C98.5708 92.1621 98.5772 92.1406 98.5792 92.1184C98.5812 92.0963 98.5788 92.0739 98.5721 92.0527C98.5162 91.8663 97.0188 87.4549 85.9965 84.7708C85.9558 84.7658 85.9147 84.7758 85.881 84.799C85.8472 84.8221 85.823 84.8569 85.8131 84.8966C85.8032 84.9363 85.8081 84.9783 85.827 85.0147C85.8459 85.051 85.8775 85.0792 85.9157 85.0939C96.7578 87.7345 98.2366 92.1086 98.2552 92.1521C98.2666 92.1844 98.2876 92.2124 98.3154 92.2324C98.3431 92.2524 98.3763 92.2634 98.4105 92.264Z" fill="#DDDDDD"/>
<path d="M82.374 87.7669L117.97 108.252V104.773L82.374 84.2812L80.5784 85.3127L82.374 87.7669Z" fill="#FFD000"/>
<path opacity="0.2" d="M82.374 87.7669L117.97 108.252V104.773L82.374 84.2812L80.5784 85.3127L82.374 87.7669Z" fill="white"/>
<path d="M80.5784 88.7919L116.18 109.283V105.798L80.5784 85.3125V88.7919Z" fill="#FFD000"/>
<path d="M117.97 108.251L116.18 109.282V105.797L117.97 104.771V108.251Z" fill="#FFD000"/>
<path opacity="0.4" d="M117.97 108.251L116.18 109.282V105.797L117.97 104.771V108.251Z" fill="black"/>
<path d="M103.48 158.373L106.463 160.076L112.409 156.646V155.515L109.42 154.943L103.48 157.242V158.373Z" fill="#FFD000"/>
<path d="M103.48 157.242L106.463 158.945L112.409 155.515L109.42 153.812L103.48 157.242Z" fill="#FFD000"/>
<path opacity="0.2" d="M103.48 157.242L106.463 158.945L112.409 155.515L109.42 153.812L103.48 157.242Z" fill="white"/>
<path d="M106.463 158.945V160.076L112.409 156.646V155.516L106.463 158.945Z" fill="#FFD000"/>
<path opacity="0.4" d="M106.463 158.945V160.076L112.409 156.646V155.516L106.463 158.945Z" fill="black"/>
<path d="M97.3792 154.851L100.361 156.56L106.301 153.13V151.999L103.319 151.428L97.3792 153.72V154.851Z" fill="#FFD000"/>
<path d="M97.3792 153.721L100.361 155.429L106.301 152L103.319 150.291L97.3792 153.721Z" fill="#FFD000"/>
<path opacity="0.2" d="M97.3792 153.721L100.361 155.429L106.301 152L103.319 150.291L97.3792 153.721Z" fill="white"/>
<path d="M100.361 155.428V156.559L106.301 153.129V151.998L100.361 155.428Z" fill="#FFD000"/>
<path opacity="0.4" d="M100.361 155.428V156.559L106.301 153.129V151.998L100.361 155.428Z" fill="black"/>
<path d="M91.2776 151.334L94.2599 153.036L100.2 149.613V148.482L97.2174 147.904L91.2776 150.203V151.334Z" fill="#FFD000"/>
<path d="M91.2776 150.203L94.2599 151.906L100.2 148.482L97.2174 146.773L91.2776 150.203Z" fill="#FFD000"/>
<path opacity="0.2" d="M91.2776 150.203L94.2599 151.906L100.2 148.482L97.2174 146.773L91.2776 150.203Z" fill="white"/>
<path d="M94.26 151.906V153.037L100.2 149.613V148.482L94.26 151.906Z" fill="#FFD000"/>
<path opacity="0.4" d="M94.26 151.906V153.037L100.2 149.613V148.482L94.26 151.906Z" fill="black"/>
</g>
<path d="M107.94 44.8647L107.07 44.8164C102.876 44.5763 98.7456 45.9237 95.4999 48.5907C92.2541 51.2577 90.1313 55.0488 89.5536 59.2099C88.4427 67.2599 89.7307 68.6774 89.5536 73.0002C89.1431 81.968 97.816 88.5002 97.816 88.5002L95.2933 94.952C95.1675 96.3825 95.3256 97.8237 95.7585 99.1929C96.1915 100.562 96.8907 101.832 97.816 102.93C98.7413 104.029 99.8745 104.933 101.151 105.592C102.426 106.251 103.82 106.651 105.251 106.769C108.103 106.998 110.93 106.096 113.123 104.259C115.316 102.422 116.698 99.796 116.972 96.9484L120.192 63.6937C121.496 54.4362 117.23 45.9515 107.94 44.8647Z" fill="#FFBF9D"/>
<path d="M98 88.5007C102.149 88.7417 106.371 87.6491 110 85.6777C110 85.6777 105.881 91.7827 97 90.5007L98 88.5007Z" fill="#FF9A6C"/>
<path d="M104.004 68.3284C103.975 68.7349 104.102 69.1368 104.357 69.447C104.613 69.7572 104.976 69.9508 105.368 69.9858C105.559 70.0133 105.753 70.0008 105.939 69.9492C106.125 69.8975 106.299 69.8078 106.451 69.6852C106.603 69.5627 106.729 69.4099 106.823 69.2358C106.917 69.0617 106.976 68.8698 106.997 68.6716C107.021 68.2663 106.892 67.8672 106.638 67.5581C106.384 67.249 106.023 67.054 105.633 67.0142C105.442 66.9867 105.248 66.9992 105.062 67.0509C104.876 67.1025 104.702 67.1922 104.55 67.3148C104.398 67.4373 104.272 67.5901 104.178 67.7642C104.084 67.9383 104.025 68.1302 104.004 68.3284Z" fill="#263238"/>
<path d="M91.212 63.701C91.3649 63.8781 92.3712 63.21 93.7477 63.2985C95.1243 63.3871 96.0984 64.1035 96.2513 63.9667C96.4043 63.8298 96.1869 63.5883 95.7683 63.2422C95.1958 62.793 94.4986 62.5316 93.7719 62.4935C93.0568 62.4539 92.3472 62.6397 91.7433 63.0248C91.3166 63.3227 91.1556 63.6125 91.212 63.701Z" fill="#263238"/>
<path d="M92.0028 68.3284C91.9789 68.7337 92.1076 69.1328 92.3621 69.4419C92.6165 69.751 92.9767 69.946 93.3671 69.9858C93.5579 70.0133 93.752 70.0008 93.938 69.9491C94.1241 69.8975 94.2982 69.8078 94.4501 69.6852C94.6021 69.5627 94.7287 69.4099 94.8226 69.2358C94.9165 69.0617 94.9756 68.8698 94.9966 68.6716C95.023 68.2657 94.8951 67.8652 94.6402 67.5556C94.3854 67.2459 94.0237 67.0516 93.6323 67.0142C93.4416 66.9867 93.2474 66.9992 93.0614 67.0509C92.8754 67.1025 92.7012 67.1922 92.5493 67.3148C92.3974 67.4373 92.2707 67.5901 92.1769 67.7642C92.083 67.9383 92.0238 68.1302 92.0028 68.3284Z" fill="#263238"/>
<path d="M104.744 64.7316C104.889 64.9087 105.903 64.2486 107.28 64.3291C108.656 64.4096 109.622 65.1341 109.783 64.9973C109.944 64.8604 109.719 64.6189 109.292 64.2728C108.724 63.8278 108.033 63.5691 107.312 63.5322C106.596 63.4864 105.885 63.6727 105.283 64.0635C104.833 64.3613 104.672 64.6511 104.744 64.7316Z" fill="#263238"/>
<path d="M99.1652 74.6567C98.4536 74.3823 97.7095 74.201 96.9514 74.1173C96.5972 74.061 96.2752 73.9724 96.2269 73.7309C96.2149 73.3658 96.3162 73.0059 96.5167 72.7005C96.9031 71.8955 97.3217 71.002 97.7162 70.0843C99.3745 66.3571 100.598 63.29 100.453 63.2256C100.308 63.1612 98.8432 66.1237 97.1688 69.8508C96.7663 70.7685 96.3638 71.646 96.0176 72.4832C95.7753 72.8956 95.6816 73.3786 95.752 73.8517C95.7956 73.9799 95.8685 74.0961 95.9649 74.1911C96.0613 74.2862 96.1786 74.3574 96.3074 74.3991C96.497 74.4654 96.6947 74.506 96.8951 74.5198C97.6438 74.6547 98.4057 74.7006 99.1652 74.6567Z" fill="#263238"/>
<path d="M104.641 60.4005C104.762 60.7788 106.146 60.6822 107.748 60.972C109.35 61.2618 110.63 61.777 110.864 61.447C110.968 61.294 110.759 60.9318 110.26 60.5373C109.583 60.0516 108.804 59.7266 107.982 59.5871C107.161 59.4476 106.318 59.4973 105.518 59.7323C104.915 59.9416 104.593 60.2153 104.641 60.4005Z" fill="#263238"/>
<path d="M91.9137 60.827C92.1311 61.149 93.0971 60.8833 94.2402 60.9316C95.3833 60.9799 96.3332 61.2617 96.5747 60.9316C96.6793 60.7787 96.5747 60.4567 96.148 60.1266C95.6025 59.7358 94.9513 59.5197 94.2804 59.5068C93.608 59.4784 92.9436 59.6614 92.3806 60.03C91.962 60.352 91.8091 60.666 91.9137 60.827Z" fill="#263238"/>
<path d="M90.6564 55.1525C90.6564 55.1525 93.337 49.6784 96.1223 48.5192C99.4872 47.1266 100.687 50.8054 103.858 50.1292C107.03 49.453 110.242 48.1006 113.293 50.6927C116.626 53.5344 114.903 55.2974 114.903 59.2821C114.855 75.4385 117.535 80.1639 118.807 72.629C118.944 71.824 121.295 71.2686 121.834 67.799C122.543 63.2749 123.034 57.7526 122.204 54.4602C121.504 51.6909 120.063 49.7187 117.374 47.4808C113.164 43.9549 107.135 43.5363 103.005 43.7134C98.8754 43.8905 90.6805 48.1006 90.6564 55.1525Z" fill="#263238"/>
<path d="M118.22 72.3236C118.247 71.9929 118.342 71.6713 118.499 71.3788C118.655 71.0864 118.871 70.8295 119.131 70.624C119.392 70.4185 119.692 70.269 120.013 70.1847C120.334 70.1004 120.669 70.0831 120.997 70.134C122.655 70.3916 124.458 71.4462 124.153 74.8916C123.605 81.0016 117.584 79.1903 117.584 79.0132C117.584 78.8361 117.97 74.8835 118.22 72.3236Z" fill="#FFBF9D"/>
<path d="M119.105 76.8303C119.105 76.8303 119.202 76.9188 119.379 77.0154C119.626 77.1475 119.914 77.1793 120.184 77.104C120.844 76.9269 121.48 75.9448 121.609 74.85C121.673 74.3266 121.617 73.7955 121.448 73.2963C121.408 73.1011 121.321 72.9186 121.195 72.7643C121.068 72.6101 120.907 72.4888 120.723 72.4108C120.604 72.3686 120.474 72.3688 120.356 72.4113C120.237 72.4538 120.136 72.5361 120.071 72.6443C119.967 72.8053 119.999 72.934 119.967 72.9421C119.934 72.9501 119.846 72.8294 119.918 72.5798C119.964 72.4305 120.061 72.3022 120.192 72.2176C120.372 72.1045 120.589 72.0669 120.796 72.1129C121.041 72.1861 121.264 72.3205 121.443 72.5036C121.621 72.6868 121.751 72.9125 121.818 73.1595C122.031 73.7126 122.106 74.3096 122.035 74.8983C121.882 76.1299 121.15 77.2247 120.248 77.4018C120.08 77.4353 119.907 77.4302 119.741 77.387C119.575 77.3438 119.421 77.2635 119.29 77.1523C119.105 76.9832 119.081 76.8464 119.105 76.8303Z" fill="#FF9A6C"/>
<path d="M89.3524 48.5191C90.2943 47.8107 91.5903 47.7141 92.5241 46.9977C96.6835 43.8042 103.387 37.7091 109.111 40.8959C111.289 42.1085 114.038 42.2125 115.982 43.6006C116.547 44.0475 117.013 44.608 117.348 45.2458C117.684 45.8835 117.882 46.5845 117.93 47.3036C117.93 47.3036 118.566 46.9816 120.498 48.5111C121.73 49.4851 122.736 51.5862 123.187 53.0835C123.855 55.3294 122.881 57.6962 121.923 59.8294C121.408 60.9806 120.764 62.2444 119.564 62.655C118.107 63.146 116.497 62.0029 115.926 60.57C115.354 59.1371 114.452 57.6962 113.76 56.3196C112.553 53.9046 111.345 51.6989 112.335 50.1694C109.07 49.1089 106.906 51.0056 104.003 52.0289C102.783 52.4594 97.8575 53.276 96.4995 52.9513C96.0607 52.8464 95.6512 52.6439 95.3014 52.359C94.7484 53.2599 93.8762 53.9194 92.8587 54.2059C91.8411 54.4923 90.753 54.3848 89.8112 53.9046C87.9919 52.7776 87.6699 49.791 89.3524 48.5191Z" fill="#263238"/>
<path d="M122.535 58.3875C122.252 58.8294 122.015 59.2987 121.826 59.7882C121.606 60.2826 121.258 60.7102 120.82 61.0279C120.234 61.3278 119.559 61.405 118.92 61.2452C118.256 61.1164 117.629 60.8414 117.085 60.4402C116.646 60.0994 116.246 59.7106 115.893 59.281C115.585 58.8596 115.243 58.4638 114.871 58.0977C115.067 58.5852 115.339 59.0388 115.676 59.442C116.013 59.9161 116.414 60.3413 116.867 60.7059C117.449 61.1447 118.124 61.4424 118.84 61.5753C119.565 61.7551 120.332 61.6484 120.981 61.2774C121.466 60.9224 121.835 60.4324 122.044 59.8687C122.268 59.397 122.433 58.8995 122.535 58.3875Z" fill="#FFD000"/>
<path d="M122.301 63.1146C121.933 63.394 121.526 63.619 121.094 63.7828C120.623 63.9318 120.126 63.9757 119.636 63.9116C119.036 63.8203 118.462 63.6007 117.954 63.2676C117.031 62.6266 116.248 61.805 115.652 60.8526C115.424 60.4394 115.154 60.0509 114.847 59.6934C114.988 60.1539 115.197 60.5907 115.467 60.9894C116.014 62.0378 116.806 62.9383 117.777 63.6137C118.33 63.9795 118.962 64.2085 119.62 64.2819C120.167 64.342 120.72 64.2674 121.23 64.0645C122.051 63.6701 122.341 63.1227 122.301 63.1146Z" fill="#FFD000"/>
<path d="M103.297 79.6289C103.503 79.9662 103.618 80.3164 103.638 80.6697C103.663 80.8368 103.617 81.0047 103.503 81.1618C103.389 81.319 103.211 81.4618 102.98 81.5804C102.74 81.7262 102.441 81.8432 102.104 81.9233C101.766 82.0034 101.398 82.0446 101.027 82.0439C100.356 82.0432 99.7074 81.92 99.1981 81.6964C98.6888 81.4729 98.3518 81.1636 98.2479 80.8242L98.0098 80.0558C99.3991 79.8525 103.194 79.6818 103.297 79.6289Z" fill="#FF9A6C"/>
<path d="M99.0522 81.1252C99.0522 81.1252 99.2472 81.1252 99.5693 81.1411C100.021 81.163 100.482 81.163 100.934 81.1411C101.587 81.1089 102.177 81.0007 102.587 80.8381C103.075 80.6348 103.307 80.3822 103.239 80.1285C103.22 79.9858 103.101 79.8462 102.892 79.7193L103.095 79.7485C101.646 79.8176 100.374 79.8734 99.476 79.9053C98.9928 79.9336 98.5011 79.9452 98.0098 79.9399C98.4676 79.884 98.9459 79.8465 99.4336 79.8282C100.332 79.7751 101.586 79.7033 103.036 79.6289H103.171L103.231 79.6661C103.556 79.8636 103.694 80.086 103.629 80.3073C103.565 80.5286 103.3 80.7395 102.866 80.9152C102.39 81.0951 101.709 81.2096 100.968 81.2341C100.486 81.2474 100.001 81.233 99.5354 81.1916C99.361 81.1806 99.1962 81.1579 99.0522 81.1252Z" fill="#263238"/>
<path d="M139.512 106.576C140.043 106.576 147.627 109.603 149.623 117.041C151.619 124.479 157.069 151.769 157.069 151.769L162.857 159.787C162.857 159.787 160.982 174.414 150.347 171.628C150.347 171.628 143.247 172.868 140.985 165.671C138.723 158.475 134.336 137.005 134.336 137.005L139.512 106.576Z" fill="#B9B8B6"/>
<path d="M117.853 94L121.88 100.196L140 106.752L134.814 160.234V185.5C115.5 197.5 77.2791 196.215 74.5409 195C73.1154 194.959 71.3195 191.408 71.0859 189.425C70.8846 187.645 71.038 185.841 71.5369 184.123L74.5409 173.403C74.0979 180.074 76.063 133.607 76.1516 131.911L71.5 108.5C73.0906 106.405 82.0743 103.291 92.3795 99.5154L95.6009 94.5081L104.879 101.687L117.853 94Z" fill="#B9B8B6"/>
<path d="M72 108C72 108 67.4544 111.654 66.7543 114.468C66.0543 117.281 50.8011 149.692 50.8011 149.692L43.2239 151.697L41.1978 155.82C40.0144 158.185 39.6959 160.877 40.2958 163.444C40.8957 166.012 42.3775 168.298 44.4922 169.92C44.7556 170.116 45.0307 170.297 45.3158 170.462C49.4339 172.887 56.764 172.758 61.055 167.794C65.1154 163.089 77 146.176 77 146.176V125.479L72 108Z" fill="#B9B8B6"/>
<path d="M47.0495 152.59L36.3993 146.303L31.2634 152.59L32.326 155.633L46.0594 165.848C47.7643 164.457 48.9081 162.495 49.2794 160.326C49.8831 156.486 47.0495 152.59 47.0495 152.59Z" fill="#FFBF9D"/>
<path d="M50.4305 149.337C50.4305 149.442 51.3402 149.337 52.6765 149.788C54.4033 150.385 55.9323 151.446 57.0959 152.855C58.2458 154.295 59.1937 155.885 59.9134 157.581C60.1847 158.307 60.5215 159.008 60.9197 159.674C60.8123 158.901 60.5955 158.147 60.2757 157.436C59.6431 155.646 58.7093 153.977 57.5145 152.501C56.2929 151.009 54.6394 149.932 52.7811 149.418C52.0213 149.167 51.2057 149.139 50.4305 149.337Z" fill="#263238"/>
<path d="M36.5764 149.789C36.8418 148.399 36.7467 146.964 36.3 145.621C35.8532 144.277 35.0698 143.071 34.0245 142.117C31.5099 140.049 28.6664 138.416 25.6122 137.287C23.7446 136.482 19.8564 133.206 19.1722 133.995C18.4879 134.784 18.182 135.959 19.1722 137.392C20.1623 138.825 25.7893 140.958 25.0004 142.769C24.6784 143.502 22.9074 143.639 22.9074 143.639C19.6927 143.865 16.4686 143.929 13.2474 143.832C10.3977 143.582 7.83777 144.13 7.99072 145.112C8.14367 146.094 8.67497 146.633 11.0336 146.834C13.3923 147.036 17.2321 146.883 17.4736 147.422C17.7151 147.961 16.8779 148.308 15.5014 148.227C14.1248 148.147 7.63652 148.122 7.19377 148.863C7.0861 149.051 7.02143 149.261 7.00446 149.477C6.98749 149.692 7.01864 149.91 7.09563 150.112C7.17262 150.314 7.29354 150.497 7.44971 150.648C7.60588 150.798 7.79341 150.911 7.99878 150.98L9.52022 151.52C9.52022 151.52 8.63472 152.751 9.37532 153.435C10.1159 154.12 11.7903 153.878 11.7903 153.878L20.3958 153.637C20.3958 153.637 20.8869 154.152 20.6454 154.506C20.4039 154.86 13.6579 154.369 13.6096 155.11C13.5613 155.85 12.9737 156.189 14.9862 156.72C17.9336 157.211 20.9421 157.211 23.8895 156.72C25.7088 156.221 33.3322 155.915 33.3322 155.915L36.5764 149.789Z" fill="#FFBF9D"/>
<path d="M153.535 153.709L163.493 145.449L169.208 151.889L168.508 155.037L156.063 166.758C154.218 165.7 152.826 164.001 152.15 161.984C150.911 158.434 153.535 153.709 153.535 153.709Z" fill="#FFBF9D"/>
<path d="M163.606 149.747C163.178 148.399 163.101 146.964 163.382 145.578C163.664 144.192 164.295 142.9 165.216 141.826C167.481 139.475 170.13 137.526 173.048 136.062C174.803 135.008 178.281 131.337 179.062 132.037C179.525 132.455 179.82 133.026 179.893 133.646C179.965 134.265 179.81 134.889 179.456 135.402C178.651 136.94 174.771 138.727 174.908 140.699C174.922 140.89 174.974 141.076 175.06 141.247C175.146 141.418 175.265 141.57 175.41 141.695C175.555 141.82 175.724 141.915 175.905 141.975C176.087 142.034 176.279 142.058 176.47 142.044C179.682 141.896 182.884 141.587 186.065 141.118C188.875 140.538 191.475 140.78 191.443 141.77C191.411 142.76 190.936 143.38 188.617 143.839C186.299 144.298 182.467 144.644 182.338 145.167C182.209 145.69 183.022 145.972 184.383 145.722C185.743 145.473 192.183 144.708 192.707 145.392C192.836 145.564 192.926 145.763 192.97 145.974C193.013 146.185 193.01 146.403 192.959 146.613C192.908 146.822 192.811 147.018 192.676 147.185C192.54 147.353 192.369 147.488 192.175 147.582L190.726 148.298C190.726 148.298 191.749 149.417 191.097 150.182C190.445 150.947 188.754 150.907 188.754 150.907L180.173 151.663C180.173 151.663 179.746 152.235 180.036 152.557C180.326 152.879 186.951 151.607 187.088 152.34C187.225 153.072 187.852 153.338 185.904 154.062C183.03 154.895 180.038 155.246 177.049 155.101C175.182 154.819 167.566 155.366 167.566 155.366L163.606 149.747Z" fill="#FFBF9D"/>
<path d="M92.4597 101.006C92.9982 101.678 93.5964 102.301 94.2468 102.865C95.3819 103.976 96.9355 105.53 98.5777 107.301C98.9239 107.679 99.27 108.05 99.592 108.412L99.8094 108.645L100.011 108.396C101.283 106.786 102.385 105.305 103.158 104.25C103.612 103.714 103.999 103.125 104.309 102.495C103.775 102.952 103.294 103.468 102.876 104.033C102.031 105.031 100.872 106.448 99.584 108.058H99.9945L98.9883 106.939C97.5736 105.41 96.0796 103.956 94.5125 102.584C93.8949 101.976 93.2056 101.446 92.4597 101.006Z" fill="#263238"/>
<path d="M138.377 120.502C138.229 120.857 138.129 121.231 138.079 121.613C137.926 122.337 137.733 123.392 137.524 124.696C137.105 127.304 136.662 130.927 136.292 134.936C135.922 138.945 135.648 142.583 135.439 145.216C135.358 146.439 135.278 147.478 135.221 148.331C135.171 148.713 135.171 149.1 135.221 149.482C135.336 149.115 135.412 148.738 135.447 148.355C135.559 147.622 135.696 146.56 135.841 145.248C136.147 142.631 136.485 139.001 136.856 134.992C137.226 130.983 137.588 127.369 137.902 124.793C138.055 123.577 138.184 122.539 138.288 121.693C138.372 121.302 138.401 120.901 138.377 120.502Z" fill="#263238"/>
<path d="M75.3936 118.676C75.2787 119.132 75.2112 119.599 75.1924 120.068C75.1038 120.978 75.0072 122.282 74.9267 123.908C74.7416 127.128 74.653 131.636 74.6369 136.579V153.09C74.6111 153.56 74.6299 154.032 74.6933 154.498C74.7976 154.039 74.8489 153.569 74.8462 153.098C74.9106 152.188 74.975 150.876 75.0233 149.258C75.136 146.038 75.1763 141.53 75.1843 136.587C75.1924 131.644 75.2326 127.161 75.3131 123.924C75.3534 122.387 75.3856 121.099 75.4097 120.085C75.4479 119.615 75.4425 119.144 75.3936 118.676Z" fill="#263238"/>
<path d="M146.548 165.123C146.8 164.209 146.985 163.279 147.103 162.338C147.48 160.092 148.208 157.918 149.261 155.898C150.334 153.917 151.948 152.282 153.914 151.181C154.759 150.777 155.633 150.438 156.53 150.166C156.265 150.109 155.99 150.109 155.725 150.166C155.027 150.283 154.35 150.497 153.712 150.802C151.597 151.857 149.864 153.546 148.753 155.632C147.688 157.706 147.012 159.957 146.757 162.274C146.568 163.211 146.497 164.168 146.548 165.123Z" fill="#263238"/>
<path d="M143.964 154.248C144.076 154.377 145.678 152.727 148.286 151.833C150.895 150.94 153.116 151.246 153.165 151.077C153.213 150.908 150.854 150.36 148.109 151.318C145.364 152.276 143.843 154.184 143.964 154.248Z" fill="#263238"/>
<path d="M103.11 191.656C103.159 191.358 103.18 191.057 103.174 190.755C103.174 190.119 103.174 189.258 103.231 188.179C103.279 185.885 103.343 182.657 103.424 178.688C103.609 170.638 103.867 159.585 104.156 147.381C104.446 135.177 104.599 124.076 104.583 116.059C104.583 112.034 104.543 108.814 104.495 106.56C104.495 105.481 104.438 104.62 104.414 103.984C104.421 103.682 104.399 103.38 104.35 103.082C104.327 103.382 104.327 103.684 104.35 103.984C104.35 104.62 104.35 105.481 104.35 106.56C104.35 108.854 104.301 112.09 104.269 116.051C104.189 124.101 103.955 135.137 103.681 147.365C103.408 159.593 103.166 170.662 103.102 178.68C103.102 182.705 103.102 185.925 103.102 188.179C103.102 189.258 103.102 190.119 103.142 190.755C103.111 191.054 103.1 191.356 103.11 191.656Z" fill="#263238"/>
<path d="M154.002 153.37C154.002 153.305 153.197 153.909 152.553 155.246C152.158 156.007 151.871 156.82 151.7 157.661C151.534 158.728 151.534 159.814 151.7 160.881C151.82 161.949 152.137 162.986 152.634 163.94C153.064 164.713 153.657 165.383 154.372 165.904C155.001 166.426 155.793 166.71 156.61 166.709C155.903 166.416 155.233 166.041 154.614 165.59C153.979 165.069 153.456 164.426 153.076 163.698C152.646 162.788 152.373 161.81 152.271 160.808C152.127 159.804 152.127 158.785 152.271 157.781C152.41 156.952 152.645 156.141 152.972 155.366C153.471 154.086 154.083 153.418 154.002 153.37Z" fill="#263238"/>
<path d="M44.0629 166.967C44.0629 166.967 44.3205 166.967 44.7311 166.765C45.3074 166.511 45.8485 166.184 46.3411 165.791C48.0279 164.492 49.1816 162.621 49.5849 160.531C49.9882 158.44 49.6133 156.274 48.5307 154.441C48.2152 153.89 47.8311 153.381 47.3876 152.927C47.0736 152.621 46.8724 152.476 46.8482 152.501C46.8241 152.525 47.4922 153.249 48.1926 154.626C49.129 156.407 49.4312 158.453 49.0493 160.428C48.6674 162.404 47.6242 164.19 46.0915 165.493C44.9404 166.508 44.0227 166.878 44.0629 166.967Z" fill="#263238"/>
<path d="M23.5917 140.41C23.5273 140.475 23.9942 140.917 24.5818 141.698C24.9199 142.145 25.1537 142.662 25.2661 143.212C25.3949 143.831 25.3788 144.556 25.4915 145.353C25.5874 146.037 25.8182 146.695 26.1706 147.29C26.523 147.884 26.9899 148.402 27.5443 148.814C27.9679 149.196 28.5053 149.428 29.0738 149.474C29.114 149.386 28.5183 149.161 27.7858 148.508C26.8427 147.673 26.2218 146.534 26.0308 145.288C25.9778 144.56 25.8865 143.834 25.7572 143.115C25.6031 142.515 25.3046 141.963 24.8877 141.505C24.5496 141.042 24.1051 140.666 23.5917 140.41Z" fill="#FF9A6C"/>
<path d="M178.861 148.879C178.861 149.024 181.541 149.169 184.85 149.008C188.158 148.847 190.815 148.46 190.799 148.307C190.783 148.155 188.118 148.307 184.826 148.46C181.533 148.613 178.861 148.718 178.861 148.879Z" fill="#FF9A6C"/>
<path d="M172.767 148.42C172.767 148.477 173.403 148.372 174.159 147.736C174.65 147.31 175.039 146.781 175.301 146.187C175.563 145.592 175.69 144.948 175.673 144.299C175.615 143.612 175.491 142.933 175.303 142.27C175.162 141.745 175.094 141.203 175.101 140.66C175.148 140.175 175.259 139.699 175.431 139.243C175.431 139.187 174.844 139.613 174.715 140.628C174.65 141.198 174.683 141.775 174.811 142.334C174.963 142.973 175.068 143.621 175.125 144.274C175.143 145.442 174.7 146.569 173.894 147.414C173.274 148.138 172.727 148.34 172.767 148.42Z" fill="#FF9A6C"/>
<path d="M22.0945 150.328C22.0945 150.175 19.2206 150.288 15.7108 150.578C12.201 150.867 9.35932 151.238 9.36737 151.383C9.37542 151.528 12.2412 151.423 15.751 151.125C19.2609 150.827 22.1025 150.473 22.0945 150.328Z" fill="#FF9A6C"/>
<path d="M104.961 101.971C105.283 103.043 105.689 104.087 106.177 105.095C106.394 105.578 106.62 106.101 106.853 106.64C107.084 107.255 107.353 107.854 107.658 108.435C107.774 108.626 107.943 108.78 108.145 108.877C108.346 108.974 108.571 109.011 108.793 108.983C109.183 108.88 109.546 108.693 109.856 108.435L111.756 107.139C114.348 105.352 116.674 103.702 118.349 102.494C119.285 101.882 120.168 101.193 120.989 100.434C119.992 100.936 119.036 101.518 118.131 102.172C116.401 103.307 114.034 104.893 111.442 106.688L109.55 107.993C109.303 108.206 109.016 108.368 108.705 108.468C108.578 108.483 108.449 108.459 108.336 108.401C108.222 108.342 108.129 108.25 108.069 108.137C107.457 107.027 106.95 105.827 106.459 104.917C106.042 103.895 105.542 102.91 104.961 101.971Z" fill="#263238"/>
<path d="M92.23 178.2L89.06 180.05L31.72 147.04L7.99998 102.85L11.17 101L68.51 134.01L92.23 178.2Z" fill="#FFD000"/>
<path opacity="0.4" d="M89.0601 180.05L31.7201 147.04L8.00006 102.85L65.3401 135.86L89.0601 180.05Z" fill="black"/>
<path d="M56.2201 149.48L46.2201 143.75C45.1091 143.108 44.1985 142.169 43.5901 141.04L39.9401 134.24C39.882 134.122 39.8629 133.989 39.8854 133.859C39.908 133.73 39.9712 133.611 40.0658 133.519C40.1603 133.428 40.2815 133.369 40.4117 133.351C40.5418 133.334 40.6744 133.357 40.7901 133.42L50.7901 139.15C51.9003 139.789 52.8082 140.729 53.4101 141.86L57.0601 148.66C57.1235 148.776 57.147 148.911 57.1272 149.042C57.1073 149.173 57.0452 149.295 56.9501 149.387C56.8551 149.48 56.7324 149.539 56.6006 149.556C56.4688 149.573 56.3352 149.546 56.2201 149.48Z" fill="#263238"/>
<path d="M48 192C48.2652 192 48.5196 191.948 48.7071 191.855C48.8946 191.763 49 191.637 49 191.506V140.494C49 140.363 48.8946 140.237 48.7071 140.145C48.5196 140.052 48.2652 140 48 140C47.7348 140 47.4805 140.052 47.2929 140.145C47.1054 140.237 47 140.363 47 140.494V191.506C46.999 191.571 47.0241 191.635 47.074 191.696C47.1238 191.756 47.1975 191.81 47.2905 191.856C47.3836 191.902 47.4943 191.939 47.6161 191.963C47.7379 191.988 47.8684 192.001 48 192Z" fill="#263238"/>
</g>
<defs>
<clipPath id="clip0_752_28696">
<rect width="200" height="200" fill="white"/>
</clipPath>
</defs>
</svg>
