<svg width="200" height="200" viewBox="0 0 200 200" fill="none" xmlns="http://www.w3.org/2000/svg">
<g clip-path="url(#clip0_550_27966)">
<path fill-rule="evenodd" clip-rule="evenodd" d="M95.3511 40.0786C119.484 41.5624 131.191 65.3973 145.943 82.1754C157.899 95.7741 168.961 109.409 171.286 126.445C173.971 146.122 175.558 168.605 159.663 182.721C143.717 196.882 117.964 195.809 95.3511 193.883C72.1366 194.322 53.3796 187.342 42.4481 172.737C26.9316 160.174 13.0786 144.922 12.0648 126.445C11.0113 107.244 22.9446 90.1752 37.1121 75.4837C52.9597 59.05 70.8381 38.5713 95.3511 40.0786Z" fill="#FFF3CC"/>
<path d="M92.0601 44.8647L92.9295 44.8164C97.1236 44.5763 101.254 45.9237 104.5 48.5907C107.746 51.2577 109.869 55.0488 110.446 59.2099C111.557 67.2599 108.823 69.6774 109 74.0002C109.411 82.968 102.184 88.5002 102.184 88.5002L104.707 94.952C104.833 96.3825 104.674 97.8237 104.241 99.1929C103.809 100.562 103.109 101.832 102.184 102.93C101.259 104.029 100.125 104.933 98.8495 105.592C97.5735 106.251 96.1799 106.651 94.7488 106.769C91.8972 106.998 89.07 106.096 86.8772 104.259C84.6845 102.422 83.302 99.796 83.028 96.9484L79.808 63.6937C78.5039 54.4362 82.7704 45.9515 92.0601 44.8647Z" fill="#FFBF9D"/>
<path d="M102 88.5007C97.8507 88.7417 93.6289 87.6491 90 85.6777C90 85.6777 94.1185 91.7827 103 90.5007L102 88.5007Z" fill="#FF9A6C"/>
<path d="M95.996 68.3284C96.0248 68.7349 95.8978 69.1368 95.6425 69.447C95.3872 69.7572 95.0242 69.9508 94.632 69.9858C94.4413 70.0133 94.2472 70.0008 94.0612 69.9492C93.8752 69.8975 93.7011 69.8078 93.5492 69.6852C93.3973 69.5627 93.2706 69.4099 93.1768 69.2358C93.083 69.0617 93.0238 68.8698 93.0028 68.6716C92.9789 68.2663 93.1076 67.8672 93.362 67.5581C93.6163 67.249 93.9765 67.054 94.3668 67.0142C94.5575 66.9867 94.7516 66.9992 94.9376 67.0509C95.1236 67.1025 95.2977 67.1922 95.4496 67.3148C95.6015 67.4373 95.7282 67.5901 95.822 67.7642C95.9158 67.9383 95.975 68.1302 95.996 68.3284Z" fill="#263238"/>
<path d="M108.788 63.701C108.635 63.8781 107.629 63.21 106.252 63.2985C104.876 63.3871 103.902 64.1035 103.749 63.9667C103.596 63.8298 103.813 63.5883 104.232 63.2422C104.804 62.793 105.501 62.5316 106.228 62.4935C106.943 62.4539 107.653 62.6397 108.257 63.0248C108.683 63.3227 108.844 63.6125 108.788 63.701Z" fill="#263238"/>
<path d="M107.997 68.3284C108.021 68.7337 107.892 69.1328 107.638 69.4419C107.384 69.751 107.023 69.946 106.633 69.9858C106.442 70.0133 106.248 70.0008 106.062 69.9491C105.876 69.8975 105.702 69.8078 105.55 69.6852C105.398 69.5627 105.271 69.4099 105.177 69.2358C105.084 69.0617 105.024 68.8698 105.003 68.6716C104.977 68.2657 105.105 67.8652 105.36 67.5556C105.615 67.2459 105.976 67.0516 106.368 67.0142C106.558 66.9867 106.753 66.9992 106.939 67.0509C107.125 67.1025 107.299 67.1922 107.451 67.3148C107.603 67.4373 107.729 67.5901 107.823 67.7642C107.917 67.9383 107.976 68.1302 107.997 68.3284Z" fill="#263238"/>
<path d="M95.256 64.7316C95.1111 64.9087 94.0968 64.2486 92.7202 64.3291C91.3437 64.4096 90.3777 65.1341 90.2167 64.9973C90.0557 64.8604 90.2811 64.6189 90.7077 64.2728C91.2758 63.8278 91.9674 63.5691 92.688 63.5322C93.4038 63.4864 94.1152 63.6727 94.7166 64.0635C95.1674 64.3613 95.3284 64.6511 95.256 64.7316Z" fill="#263238"/>
<path d="M100.835 74.6567C101.546 74.3823 102.29 74.201 103.049 74.1173C103.403 74.061 103.725 73.9724 103.773 73.7309C103.785 73.3658 103.684 73.0059 103.483 72.7005C103.097 71.8955 102.678 71.002 102.284 70.0843C100.626 66.3571 99.4019 63.29 99.5468 63.2256C99.6917 63.1612 101.157 66.1237 102.831 69.8508C103.234 70.7685 103.636 71.646 103.982 72.4832C104.225 72.8956 104.318 73.3786 104.248 73.8517C104.204 73.9799 104.132 74.0961 104.035 74.1911C103.939 74.2862 103.821 74.3574 103.693 74.3991C103.503 74.4654 103.305 74.506 103.105 74.5198C102.356 74.6547 101.594 74.7006 100.835 74.6567Z" fill="#263238"/>
<path d="M95.3593 60.4005C95.2385 60.7788 93.8539 60.6822 92.252 60.972C90.65 61.2618 89.3701 61.777 89.1366 61.447C89.032 61.294 89.2413 60.9318 89.7404 60.5373C90.4175 60.0516 91.1965 59.7266 92.0181 59.5871C92.8397 59.4476 93.6823 59.4973 94.4818 59.7323C95.0856 59.9416 95.4076 60.2153 95.3593 60.4005Z" fill="#263238"/>
<path d="M108.086 60.827C107.869 61.149 106.903 60.8833 105.76 60.9316C104.617 60.9799 103.667 61.2617 103.425 60.9316C103.321 60.7787 103.425 60.4567 103.852 60.1266C104.397 59.7358 105.049 59.5197 105.72 59.5068C106.392 59.4784 107.056 59.6614 107.619 60.03C108.038 60.352 108.191 60.666 108.086 60.827Z" fill="#263238"/>
<path d="M109.344 55.1525C109.344 55.1525 106.663 49.6784 103.878 48.5192C100.513 47.1266 99.3133 50.8054 96.1416 50.1292C92.9699 49.453 89.7579 48.1006 86.707 50.6927C83.3743 53.5344 85.097 55.2974 85.097 59.2821C85.1453 75.4385 82.4646 80.1639 81.1927 72.629C81.0559 71.824 78.7052 71.2686 78.1659 67.799C77.4575 63.2749 76.9664 57.7526 77.7956 54.4602C78.4959 51.6909 79.9369 49.7187 82.6256 47.4808C86.8358 43.9549 92.8652 43.5363 96.9949 43.7134C101.125 43.8905 109.319 48.1006 109.344 55.1525Z" fill="#263238"/>
<path d="M81.7803 72.3236C81.7532 71.9929 81.6583 71.6713 81.5014 71.3788C81.3446 71.0864 81.1291 70.8295 80.8685 70.624C80.6079 70.4185 80.3078 70.269 79.9868 70.1847C79.6658 70.1004 79.331 70.0831 79.003 70.134C77.3447 70.3916 75.5415 71.4462 75.8474 74.8916C76.3948 81.0016 82.4162 79.1903 82.4162 79.0132C82.4162 78.8361 82.0298 74.8835 81.7803 72.3236Z" fill="#FFBF9D"/>
<path d="M80.8948 76.8303C80.8948 76.8303 80.7982 76.9188 80.6211 77.0154C80.3742 77.1475 80.0858 77.1793 79.8161 77.104C79.156 76.9269 78.52 75.9448 78.3912 74.85C78.3275 74.3266 78.3825 73.7955 78.5522 73.2963C78.5923 73.1011 78.6792 72.9186 78.8054 72.7643C78.9316 72.6101 79.0933 72.4888 79.2767 72.4108C79.3957 72.3686 79.5255 72.3688 79.6444 72.4113C79.7632 72.4538 79.8637 72.5361 79.9288 72.6443C80.0334 72.8053 80.0012 72.934 80.0334 72.9421C80.0656 72.9501 80.1542 72.8294 80.0817 72.5798C80.0362 72.4305 79.9392 72.3022 79.808 72.2176C79.6284 72.1045 79.4114 72.0669 79.2043 72.1129C78.9589 72.1861 78.7363 72.3205 78.5574 72.5036C78.3785 72.6868 78.2493 72.9125 78.1819 73.1595C77.9686 73.7126 77.894 74.3096 77.9646 74.8983C78.1175 76.1299 78.8501 77.2247 79.7517 77.4018C79.9198 77.4353 80.0934 77.4302 80.2593 77.387C80.4252 77.3438 80.5792 77.2635 80.7096 77.1523C80.8948 76.9832 80.9189 76.8464 80.8948 76.8303Z" fill="#FF9A6C"/>
<path d="M110.648 48.5191C109.706 47.8107 108.41 47.7141 107.476 46.9977C103.316 43.8042 96.6129 37.7091 90.8888 40.8959C88.7107 42.1085 85.9615 42.2125 84.0181 43.6006C83.4528 44.0475 82.9874 44.608 82.6519 45.2458C82.3164 45.8835 82.1182 46.5845 82.07 47.3036C82.07 47.3036 81.4341 46.9816 79.5021 48.5111C78.2704 49.4851 77.2642 51.5862 76.8134 53.0835C76.1452 55.3294 77.1193 57.6962 78.0772 59.8294C78.5924 60.9806 79.2364 62.2444 80.4359 62.655C81.8929 63.146 83.5029 62.0029 84.0745 60.57C84.646 59.1371 85.5476 57.6962 86.2399 56.3196C87.4474 53.9046 88.6549 51.6989 87.6648 50.1694C90.93 49.1089 93.0942 51.0056 95.9966 52.0289C97.2173 52.4594 102.143 53.276 103.5 52.9513C103.939 52.8464 104.349 52.6439 104.699 52.359C105.252 53.2599 106.124 53.9194 107.141 54.2059C108.159 54.4923 109.247 54.3848 110.189 53.9046C112.008 52.7776 112.33 49.791 110.648 48.5191Z" fill="#263238"/>
<path d="M77.4653 58.3875C77.7478 58.8294 77.9852 59.2987 78.1737 59.7882C78.3945 60.2826 78.7415 60.7102 79.18 61.0279C79.7661 61.3278 80.4411 61.405 81.0798 61.2452C81.7438 61.1164 82.3707 60.8414 82.9152 60.4402C83.3543 60.0994 83.7539 59.7106 84.1066 59.281C84.4148 58.8596 84.7568 58.4638 85.129 58.0977C84.9327 58.5852 84.6611 59.0388 84.324 59.442C83.9868 59.9161 83.5859 60.3413 83.1325 60.7059C82.5515 61.1447 81.8763 61.4424 81.1603 61.5753C80.4348 61.7551 79.6679 61.6484 79.019 61.2774C78.5341 60.9224 78.1645 60.4324 77.9564 59.8687C77.7324 59.397 77.5674 58.8995 77.4653 58.3875Z" fill="#B9B8B6"/>
<path d="M77.6989 63.1146C78.0674 63.394 78.474 63.619 78.9065 63.7828C79.3769 63.9318 79.8743 63.9757 80.3635 63.9116C80.9641 63.8203 81.5379 63.6007 82.046 63.2676C82.9688 62.6266 83.7521 61.805 84.3483 60.8526C84.5759 60.4394 84.8457 60.0509 85.1533 59.6934C85.0124 60.1539 84.8035 60.5907 84.5334 60.9894C83.9864 62.0378 83.1937 62.9383 82.2231 63.6137C81.6703 63.9795 81.0384 64.2085 80.3796 64.2819C79.8332 64.342 79.2805 64.2674 78.7696 64.0645C77.9485 63.6701 77.6587 63.1227 77.6989 63.1146Z" fill="#B9B8B6"/>
<path d="M96.7029 79.6289C96.4969 79.9662 96.3821 80.3164 96.3615 80.6697C96.3372 80.8368 96.3835 81.0047 96.4972 81.1618C96.6109 81.319 96.7894 81.4618 97.0205 81.5804C97.2599 81.7262 97.5589 81.8432 97.8964 81.9233C98.2338 82.0034 98.6015 82.0446 98.9734 82.0439C99.6443 82.0432 100.293 81.92 100.802 81.6964C101.311 81.4729 101.648 81.1636 101.752 80.8242L101.99 80.0558C100.601 79.8525 96.8061 79.6818 96.7029 79.6289Z" fill="#FF9A6C"/>
<path d="M100.948 81.1252C100.948 81.1252 100.753 81.1252 100.431 81.1411C99.9786 81.163 99.5184 81.163 99.0662 81.1411C98.4134 81.1089 97.8233 81.0007 97.4135 80.8381C96.9255 80.6348 96.6932 80.3822 96.7609 80.1285C96.7805 79.9858 96.8991 79.8462 97.1084 79.7193L96.9049 79.7485C98.3542 79.8176 99.6256 79.8734 100.524 79.9053C101.007 79.9336 101.499 79.9452 101.99 79.9399C101.532 79.884 101.054 79.8465 100.566 79.8282C99.668 79.7751 98.4136 79.7033 96.9643 79.6289H96.8287L96.7693 79.6661C96.4444 79.8636 96.3061 80.086 96.3707 80.3073C96.4353 80.5286 96.7 80.7395 97.1338 80.9152C97.6097 81.0951 98.291 81.2096 99.0323 81.2341C99.514 81.2474 99.9994 81.233 100.465 81.1916C100.639 81.1806 100.804 81.1579 100.948 81.1252Z" fill="#263238"/>
<path d="M60.4881 106.576C59.9568 106.576 52.3737 109.603 50.3773 117.041C48.3809 124.479 42.931 151.769 42.931 151.769L37.1431 159.787C37.1431 159.787 39.0187 174.414 49.6528 171.628C49.6528 171.628 56.7529 172.868 59.015 165.671C61.277 158.475 65.6643 137.005 65.6643 137.005L60.4881 106.576Z" fill="#B9B8B6"/>
<path d="M82.1472 94L78.1204 100.196L60 106.752L65.1865 160.234L63.2697 188.228C80 197.5 124.262 195.715 127 194.5C128.425 194.459 128.681 191.408 128.914 189.425C129.115 187.645 128.962 185.841 128.463 184.123L125.459 173.403C125.902 180.074 123.937 133.607 123.848 131.911L128.238 108.006L107.621 99.5154L104.399 94.5081L95.1215 101.687L82.1472 94Z" fill="#B9B8B6"/>
<path d="M128.664 107.84C128.664 107.84 132.809 111.478 133.494 114.28C134.178 117.081 149.087 149.354 149.087 149.354L156.493 151.35L158.473 155.456C159.63 157.81 159.941 160.49 159.355 163.047C158.768 165.603 157.32 167.88 155.253 169.495C154.995 169.69 154.727 169.871 154.448 170.034C150.423 172.449 143.258 172.321 139.064 167.378C135.096 162.693 123.479 145.852 123.479 145.852V125.244L128.664 107.84Z" fill="#B9B8B6"/>
<path d="M152.95 152.59L163.601 146.303L168.737 152.59L167.674 155.633L153.941 165.848C152.236 164.457 151.092 162.495 150.721 160.326C150.117 156.486 152.95 152.59 152.95 152.59Z" fill="#FFBF9D"/>
<path d="M149.569 149.337C149.569 149.442 148.66 149.337 147.324 149.788C145.597 150.385 144.068 151.446 142.904 152.855C141.754 154.295 140.806 155.885 140.087 157.581C139.815 158.307 139.478 159.008 139.08 159.674C139.188 158.901 139.405 158.147 139.724 157.436C140.357 155.646 141.291 153.977 142.485 152.501C143.707 151.009 145.361 149.932 147.219 149.418C147.979 149.167 148.794 149.139 149.569 149.337Z" fill="#263238"/>
<path d="M163.424 149.789C163.158 148.399 163.253 146.964 163.7 145.621C164.147 144.277 164.93 143.071 165.976 142.117C168.49 140.049 171.334 138.416 174.388 137.287C176.255 136.482 180.144 133.206 180.828 133.995C181.512 134.784 181.818 135.959 180.828 137.392C179.838 138.825 174.211 140.958 175 142.769C175.322 143.502 177.093 143.639 177.093 143.639C180.307 143.865 183.531 143.929 186.753 143.832C189.602 143.582 192.162 144.13 192.009 145.112C191.856 146.094 191.325 146.633 188.966 146.834C186.608 147.036 182.768 146.883 182.526 147.422C182.285 147.961 183.122 148.308 184.499 148.227C185.875 148.147 192.363 148.122 192.806 148.863C192.914 149.051 192.979 149.261 192.996 149.477C193.013 149.692 192.981 149.91 192.904 150.112C192.827 150.314 192.706 150.497 192.55 150.648C192.394 150.798 192.207 150.911 192.001 150.98L190.48 151.52C190.48 151.52 191.365 152.751 190.625 153.435C189.884 154.12 188.21 153.878 188.21 153.878L179.604 153.637C179.604 153.637 179.113 154.152 179.355 154.506C179.596 154.86 186.342 154.369 186.39 155.11C186.439 155.85 187.026 156.189 185.014 156.72C182.066 157.211 179.058 157.211 176.11 156.72C174.291 156.221 166.668 155.915 166.668 155.915L163.424 149.789Z" fill="#FFBF9D"/>
<path d="M161.163 149.138C160.868 147.641 160.974 146.096 161.47 144.65C161.966 143.203 162.836 141.905 163.996 140.877C166.788 138.649 169.945 136.891 173.336 135.676C175.409 134.809 179.726 131.28 180.486 132.13C181.246 132.98 181.585 134.245 180.486 135.788C179.387 137.331 173.139 139.629 174.015 141.579C174.373 142.368 176.339 142.515 176.339 142.515C179.908 142.759 183.488 142.828 187.064 142.723C190.228 142.455 193.07 143.044 192.9 144.102C192.73 145.159 192.14 145.74 189.522 145.957C186.903 146.174 182.64 146.009 182.372 146.59C182.104 147.171 183.033 147.543 184.561 147.457C186.09 147.37 193.293 147.344 193.785 148.141C193.904 148.344 193.976 148.57 193.995 148.802C194.014 149.035 193.979 149.268 193.894 149.486C193.808 149.704 193.674 149.901 193.501 150.063C193.327 150.225 193.119 150.347 192.891 150.421L191.202 151.002C191.202 151.002 192.185 152.329 191.363 153.065C190.541 153.802 188.682 153.542 188.682 153.542L179.127 153.282C179.127 153.282 178.582 153.837 178.85 154.218C179.119 154.6 186.608 154.071 186.662 154.869C186.715 155.666 187.368 156.03 185.133 156.602C181.861 157.131 178.521 157.131 175.249 156.602C173.229 156.065 164.765 155.735 164.765 155.735L161.163 149.138Z" fill="#3C474C"/>
<path fill-rule="evenodd" clip-rule="evenodd" d="M158.309 150.171L158.22 149.718C157.823 147.702 157.966 145.621 158.632 143.676C159.299 141.733 160.464 139.997 162.008 138.631L162.065 138.58L162.125 138.532C165.153 136.116 168.569 134.209 172.234 132.884C172.513 132.759 172.972 132.502 173.639 132.087C173.959 131.889 174.292 131.677 174.645 131.452L174.697 131.419C175.063 131.186 175.449 130.94 175.829 130.706C176.548 130.262 177.405 129.757 178.194 129.431C178.573 129.275 179.142 129.07 179.787 129.014C180.405 128.961 181.718 129.007 182.722 130.13C183.444 130.938 184.078 132.073 184.176 133.493C184.275 134.933 183.798 136.31 182.929 137.529C182.542 138.072 182.058 138.487 181.703 138.764C181.319 139.065 180.896 139.348 180.5 139.6C180.441 139.638 180.381 139.675 180.321 139.713C182.512 139.785 184.705 139.79 186.897 139.727C188.666 139.584 190.456 139.663 191.896 139.989C192.594 140.148 193.455 140.417 194.199 140.927C194.941 141.434 196.169 142.663 195.862 144.577C195.805 144.935 195.71 145.316 195.559 145.699C195.814 145.899 196.1 146.18 196.339 146.567L196.354 146.592L196.368 146.616C196.717 147.207 196.929 147.871 196.985 148.56C197.041 149.249 196.938 149.94 196.687 150.581C196.436 151.222 196.044 151.793 195.547 152.257C195.273 152.512 194.972 152.731 194.649 152.911C194.544 153.694 194.198 154.553 193.365 155.3C192.121 156.415 190.506 156.546 189.857 156.577C189.79 156.58 189.724 156.582 189.66 156.584C189.624 156.712 189.579 156.843 189.524 156.976C189.069 158.065 188.202 158.615 187.672 158.881C187.128 159.156 186.5 159.349 185.878 159.509L185.746 159.542L185.612 159.564C182.023 160.144 178.359 160.144 174.77 159.564L174.622 159.54L174.477 159.501C174.241 159.439 173.567 159.335 172.463 159.226C171.436 159.124 170.229 159.035 169.06 158.961C167.896 158.888 166.791 158.831 165.976 158.792C165.569 158.773 165.236 158.758 165.005 158.748C164.889 158.743 164.799 158.739 164.739 158.737L164.649 158.733L162.948 158.667L158.309 150.171ZM164.765 155.735C164.765 155.735 173.229 156.065 175.249 156.602C175.977 156.72 176.709 156.812 177.443 156.877C179.737 157.081 182.05 157.029 184.335 156.721C184.602 156.685 184.868 156.645 185.133 156.602C185.323 156.554 185.492 156.507 185.643 156.461C186.92 156.07 186.846 155.759 186.735 155.286C186.705 155.16 186.672 155.022 186.662 154.869C186.644 154.611 185.855 154.492 184.783 154.436C184.715 154.432 184.646 154.429 184.576 154.426C184.425 154.419 184.269 154.414 184.11 154.409C183.371 154.387 182.558 154.385 181.796 154.383C181.778 154.383 181.761 154.382 181.743 154.382C181.196 154.381 180.678 154.379 180.235 154.37C179.742 154.36 179.342 154.341 179.1 154.303C178.962 154.281 178.875 154.254 178.85 154.218C178.794 154.139 178.774 154.051 178.776 153.963C178.786 153.629 179.127 153.282 179.127 153.282L188.682 153.542C188.682 153.542 188.978 153.584 189.386 153.587C190 153.591 190.869 153.508 191.363 153.065C191.575 152.876 191.667 152.647 191.686 152.411C191.744 151.733 191.202 151.002 191.202 151.002L192.891 150.421C193.119 150.347 193.327 150.225 193.501 150.063C193.65 149.924 193.77 149.759 193.855 149.577C193.869 149.547 193.882 149.517 193.894 149.486C193.979 149.268 194.014 149.035 193.995 148.802C193.976 148.57 193.904 148.344 193.785 148.141C193.748 148.082 193.675 148.028 193.57 147.978C193.267 147.832 192.698 147.722 191.985 147.639C191.968 147.637 191.95 147.635 191.932 147.633C191.897 147.629 191.862 147.625 191.826 147.621C191.822 147.621 191.817 147.62 191.813 147.62C191.167 147.551 190.418 147.503 189.647 147.471C188.014 147.403 186.285 147.406 185.244 147.432C184.96 147.439 184.727 147.447 184.561 147.457C184.463 147.462 184.367 147.466 184.274 147.468C182.918 147.494 182.121 147.133 182.372 146.59C182.487 146.34 183.342 146.228 184.488 146.164C184.729 146.151 184.982 146.14 185.244 146.13C185.669 146.114 186.117 146.101 186.57 146.088C187.598 146.059 188.651 146.029 189.522 145.957C189.907 145.925 190.249 145.885 190.552 145.837C190.608 145.828 190.664 145.819 190.718 145.809C191.921 145.596 192.464 145.238 192.721 144.708C192.81 144.527 192.864 144.325 192.9 144.102C193.001 143.47 192.029 143.006 190.555 142.791C190.542 142.789 190.529 142.787 190.516 142.785C189.529 142.645 188.322 142.617 187.064 142.723C183.488 142.828 179.908 142.759 176.339 142.515C176.339 142.515 174.373 142.368 174.015 141.579C173.466 140.357 175.716 138.998 177.742 137.774C178.948 137.045 180.076 136.364 180.486 135.788C181.585 134.245 181.246 132.98 180.486 132.13C180.006 131.594 178.108 132.803 176.252 133.985C175.169 134.675 174.1 135.356 173.336 135.676C169.945 136.891 166.788 138.649 163.996 140.877C162.836 141.905 161.966 143.203 161.47 144.65C160.974 146.096 160.868 147.641 161.163 149.138L164.765 155.735ZM176.634 142.186C176.633 142.187 176.638 142.18 176.65 142.166C176.64 142.179 176.634 142.186 176.634 142.186Z" fill="#3C474C"/>
<path d="M46.4649 153.709L36.507 145.449L30.7915 151.889L31.4919 155.037L43.9372 166.758C45.7822 165.7 47.1744 164.001 47.8495 161.984C49.0892 158.434 46.4649 153.709 46.4649 153.709Z" fill="#FFBF9D"/>
<path d="M36.3943 149.747C36.8225 148.399 36.8994 146.964 36.6176 145.578C36.3359 144.192 35.7048 142.9 34.7843 141.826C32.5191 139.475 29.8704 137.526 26.9516 136.062C25.1967 135.008 21.7191 131.337 20.9382 132.037C20.4752 132.455 20.1799 133.026 20.1074 133.646C20.0348 134.265 20.1899 134.889 20.5438 135.402C21.3488 136.94 25.2289 138.727 25.092 140.699C25.0778 140.89 25.026 141.076 24.9398 141.247C24.8536 141.418 24.7346 141.57 24.5896 141.695C24.4446 141.82 24.2764 141.915 24.0946 141.975C23.9129 142.034 23.7211 142.058 23.5303 142.044C20.3183 141.896 17.1157 141.587 13.9347 141.118C11.1252 140.538 8.52508 140.78 8.55728 141.77C8.58948 142.76 9.06443 143.38 11.3828 143.839C13.7012 144.298 17.5331 144.644 17.6619 145.167C17.7907 145.69 16.9776 145.972 15.6171 145.722C14.2567 145.473 7.81668 144.708 7.29343 145.392C7.16372 145.564 7.07381 145.763 7.03018 145.974C6.98654 146.185 6.99027 146.403 7.04109 146.613C7.09191 146.822 7.18855 147.018 7.32406 147.185C7.45957 147.353 7.63057 147.488 7.82473 147.582L9.27373 148.298C9.27373 148.298 8.25138 149.417 8.90343 150.182C9.55548 150.947 11.246 150.907 11.246 150.907L19.8273 151.663C19.8273 151.663 20.254 152.235 19.9642 152.557C19.6744 152.879 13.0492 151.607 12.9123 152.34C12.7755 153.072 12.1476 153.338 14.0957 154.062C16.9698 154.895 19.9619 155.246 22.9507 155.101C24.8183 154.819 32.4336 155.366 32.4336 155.366L36.3943 149.747Z" fill="#FFBF9D"/>
<path d="M107.54 101.006C107.002 101.678 106.404 102.301 105.753 102.865C104.618 103.976 103.065 105.53 101.422 107.301C101.076 107.679 100.73 108.05 100.408 108.412L100.191 108.645L99.9894 108.396C98.7175 106.786 97.6146 105.305 96.8418 104.25C96.3881 103.714 96.0015 103.125 95.6907 102.495C96.225 102.952 96.7058 103.468 97.1236 104.033C97.9688 105.031 99.128 106.448 100.416 108.058H100.005L101.012 106.939C102.426 105.41 103.92 103.956 105.488 102.584C106.105 101.976 106.794 101.446 107.54 101.006Z" fill="#263238"/>
<path d="M61.623 120.502C61.771 120.857 61.8711 121.231 61.9209 121.613C62.0738 122.337 62.267 123.392 62.4763 124.696C62.8949 127.304 63.3377 130.927 63.708 134.936C64.0783 138.945 64.352 142.583 64.5613 145.216C64.6418 146.439 64.7223 147.478 64.7786 148.331C64.8291 148.713 64.8291 149.1 64.7786 149.482C64.6638 149.115 64.5882 148.738 64.5532 148.355C64.4405 147.622 64.3037 146.56 64.1588 145.248C63.8529 142.631 63.5148 139.001 63.1445 134.992C62.7742 130.983 62.4119 127.369 62.098 124.793C61.945 123.577 61.8162 122.539 61.7116 121.693C61.6284 121.302 61.5986 120.901 61.623 120.502Z" fill="#263238"/>
<path d="M124.606 118.676C124.721 119.132 124.789 119.599 124.808 120.068C124.896 120.978 124.993 122.282 125.073 123.908C125.258 127.128 125.347 131.636 125.363 136.579V153.09C125.389 153.56 125.37 154.032 125.307 154.498C125.202 154.039 125.151 153.569 125.154 153.098C125.089 152.188 125.025 150.876 124.977 149.258C124.864 146.038 124.824 141.53 124.816 136.587C124.808 131.644 124.767 127.161 124.687 123.924C124.647 122.387 124.614 121.099 124.59 120.085C124.552 119.615 124.557 119.144 124.606 118.676Z" fill="#263238"/>
<path d="M53.4522 165.123C53.2003 164.209 53.0147 163.279 52.8968 162.338C52.5196 160.092 51.7915 157.918 50.7394 155.898C49.6657 153.917 48.0523 152.282 46.0865 151.181C45.2411 150.777 44.3666 150.438 43.4702 150.166C43.7354 150.109 44.01 150.109 44.2752 150.166C44.9726 150.283 45.6502 150.497 46.2877 150.802C48.4029 151.857 50.1364 153.546 51.2465 155.632C52.3118 157.706 52.9884 159.957 53.2429 162.274C53.4324 163.211 53.5027 164.168 53.4522 165.123Z" fill="#263238"/>
<path d="M56.0364 154.248C55.9237 154.377 54.3217 152.727 51.7135 151.833C49.1053 150.94 46.8835 151.246 46.8352 151.077C46.7869 150.908 49.1456 150.36 51.8906 151.318C54.6357 152.276 56.1571 154.184 56.0364 154.248Z" fill="#263238"/>
<path d="M96.8901 191.656C96.8413 191.358 96.8197 191.057 96.8257 190.755C96.8257 190.119 96.8257 189.258 96.7693 188.179C96.721 185.885 96.6566 182.657 96.5761 178.688C96.391 170.638 96.1334 159.585 95.8436 147.381C95.5538 135.177 95.4008 124.076 95.4169 116.059C95.4169 112.034 95.4572 108.814 95.5055 106.56C95.5055 105.481 95.5618 104.62 95.586 103.984C95.5792 103.682 95.6008 103.38 95.6504 103.082C95.6728 103.382 95.6728 103.684 95.6504 103.984C95.6504 104.62 95.6504 105.481 95.6504 106.56C95.6504 108.854 95.6987 112.09 95.7309 116.051C95.8114 124.101 96.0448 135.137 96.3185 147.365C96.5922 159.593 96.8337 170.662 96.8981 178.68C96.8981 182.705 96.8981 185.925 96.8981 188.179C96.8981 189.258 96.8981 190.119 96.8579 190.755C96.8892 191.054 96.8999 191.356 96.8901 191.656Z" fill="#263238"/>
<path d="M45.9979 153.37C45.9979 153.305 46.8029 153.909 47.4469 155.246C47.8415 156.007 48.1287 156.82 48.3002 157.661C48.4655 158.728 48.4655 159.814 48.3002 160.881C48.18 161.949 47.8634 162.986 47.3664 163.94C46.936 164.713 46.3427 165.383 45.6276 165.904C44.9987 166.426 44.2068 166.71 43.3896 166.709C44.0971 166.416 44.7673 166.041 45.3861 165.59C46.0209 165.069 46.5439 164.426 46.9236 163.698C47.3544 162.788 47.6266 161.81 47.7286 160.808C47.8735 159.804 47.8735 158.785 47.7286 157.781C47.5903 156.952 47.3553 156.141 47.0283 155.366C46.5292 154.086 45.9174 153.418 45.9979 153.37Z" fill="#263238"/>
<path d="M155.937 166.967C155.937 166.967 155.679 166.967 155.269 166.765C154.693 166.511 154.151 166.184 153.659 165.791C151.972 164.492 150.818 162.621 150.415 160.531C150.012 158.44 150.387 156.274 151.469 154.441C151.785 153.89 152.169 153.381 152.612 152.927C152.926 152.621 153.128 152.476 153.152 152.501C153.176 152.525 152.508 153.249 151.807 154.626C150.871 156.407 150.569 158.453 150.951 160.428C151.333 162.404 152.376 164.19 153.908 165.493C155.06 166.508 155.977 166.878 155.937 166.967Z" fill="#263238"/>
<path d="M176.408 140.41C176.473 140.475 176.006 140.917 175.418 141.698C175.08 142.145 174.846 142.662 174.734 143.212C174.605 143.831 174.621 144.556 174.509 145.353C174.413 146.037 174.182 146.695 173.829 147.29C173.477 147.884 173.01 148.402 172.456 148.814C172.032 149.196 171.495 149.428 170.926 149.474C170.886 149.386 171.482 149.161 172.214 148.508C173.157 147.673 173.778 146.534 173.969 145.288C174.022 144.56 174.114 143.834 174.243 143.115C174.397 142.515 174.695 141.963 175.112 141.505C175.45 141.042 175.895 140.666 176.408 140.41Z" fill="black"/>
<path d="M21.1394 148.879C21.1394 149.024 18.4588 149.169 15.1502 149.008C11.8417 148.847 9.18514 148.46 9.20124 148.307C9.21734 148.155 11.8819 148.307 15.1744 148.46C18.4668 148.613 21.1394 148.718 21.1394 148.879Z" fill="#FF9A6C"/>
<path d="M27.2332 148.42C27.2332 148.477 26.5973 148.372 25.8406 147.736C25.3505 147.31 24.9606 146.781 24.699 146.187C24.4374 145.592 24.3104 144.948 24.3272 144.299C24.3845 143.612 24.5085 142.933 24.6975 142.27C24.8384 141.745 24.9061 141.203 24.8987 140.66C24.8525 140.175 24.7415 139.699 24.5687 139.243C24.5687 139.187 25.1563 139.613 25.2851 140.628C25.3502 141.198 25.3175 141.775 25.1885 142.334C25.037 142.973 24.9321 143.621 24.8746 144.274C24.8575 145.442 25.2998 146.569 26.1062 147.414C26.7261 148.138 27.2735 148.34 27.2332 148.42Z" fill="#FF9A6C"/>
<path d="M177.906 150.328C177.906 150.175 180.78 150.288 184.289 150.578C187.799 150.867 190.641 151.238 190.633 151.383C190.625 151.528 187.759 151.423 184.249 151.125C180.739 150.827 177.898 150.473 177.906 150.328Z" fill="#3C474C"/>
<path d="M95.0386 101.971C94.717 103.043 94.3106 104.087 93.823 105.095C93.6057 105.578 93.3803 106.101 93.1468 106.64C92.9159 107.255 92.6471 107.854 92.3418 108.435C92.2256 108.626 92.0566 108.78 91.8552 108.877C91.6538 108.974 91.4286 109.011 91.2068 108.983C90.8168 108.88 90.4541 108.693 90.1442 108.435L88.2444 107.139C85.6522 105.352 83.3258 103.702 81.6514 102.494C80.7152 101.882 79.832 101.193 79.011 100.434C80.0083 100.936 80.9639 101.518 81.8687 102.172C83.5995 103.307 85.9662 104.893 88.5583 106.688L90.4501 107.993C90.6968 108.206 90.9844 108.368 91.2953 108.468C91.4222 108.483 91.5508 108.459 91.6642 108.401C91.7776 108.342 91.8707 108.25 91.9313 108.137C92.5431 107.027 93.0502 105.827 93.5413 104.917C93.9576 103.895 94.4584 102.91 95.0386 101.971Z" fill="#263238"/>
<path d="M36.3943 149.747C36.8225 148.399 36.8994 146.964 36.6176 145.578C36.3358 144.192 35.7048 142.9 34.7842 141.826C32.5191 139.475 29.8704 137.526 26.9516 136.062C25.1967 135.008 21.7191 131.337 20.9382 132.037C20.4752 132.455 20.1799 133.026 20.1074 133.646C20.0348 134.265 20.1899 134.889 20.5438 135.402C21.3488 136.94 25.2289 138.727 25.092 140.699C25.0778 140.89 25.026 141.076 24.9398 141.247C24.8536 141.418 24.7346 141.57 24.5896 141.695C24.4446 141.82 24.2764 141.915 24.0946 141.975C23.9129 142.034 23.7211 142.058 23.5303 142.044C20.3183 141.896 17.1157 141.587 13.9347 141.118C11.1252 140.538 8.52508 140.78 8.55728 141.77C8.58948 142.76 9.06443 143.38 11.3828 143.839C13.7012 144.298 17.5331 144.644 17.6619 145.167C17.7907 145.69 16.9776 145.972 15.6171 145.722C14.2567 145.473 7.81668 144.708 7.29343 145.392C7.16372 145.565 7.07381 145.763 7.03018 145.974C6.98654 146.185 6.99027 146.403 7.04109 146.613C7.09191 146.822 7.18855 147.018 7.32406 147.185C7.45957 147.353 7.63057 147.488 7.82473 147.582L9.27373 148.298C9.27373 148.298 8.25138 149.417 8.90343 150.182C9.55548 150.947 11.246 150.907 11.246 150.907L19.8273 151.663C19.8273 151.663 20.254 152.235 19.9642 152.557C19.6744 152.879 13.0492 151.607 12.9123 152.34C12.7755 153.072 12.1476 153.338 14.0957 154.062C16.9698 154.895 19.9619 155.246 22.9507 155.101C24.8183 154.819 32.4336 155.366 32.4336 155.366L36.3943 149.747Z" fill="#3C474C"/>
<path fill-rule="evenodd" clip-rule="evenodd" d="M39.1132 151.097L33.9092 158.48L32.2186 158.359L32.138 158.353L31.8991 158.336C31.6914 158.322 31.3916 158.302 31.0255 158.279C30.2924 158.233 29.2985 158.174 28.25 158.125C27.1975 158.074 26.1102 158.034 25.1844 158.023C24.1821 158.011 23.59 158.038 23.3982 158.067L23.2481 158.09L23.0964 158.097C19.7766 158.259 16.4531 157.869 13.2607 156.944L13.154 156.913L13.05 156.874C12.5016 156.67 11.9292 156.427 11.4362 156.107C10.9531 155.793 10.1515 155.152 9.83278 154.011C9.81118 153.934 9.79283 153.857 9.77741 153.782C9.15624 153.674 7.66193 153.35 6.62058 152.129C5.94601 151.337 5.7116 150.503 5.68716 149.761C5.43136 149.558 5.19784 149.327 4.99129 149.072C4.5768 148.559 4.28115 147.961 4.12569 147.32C3.97023 146.68 3.95884 146.013 4.09231 145.367C4.22578 144.721 4.5008 144.113 4.89757 143.587L4.90393 143.578L4.91035 143.57C5.15597 143.249 5.4307 143.015 5.6802 142.846C5.60396 142.505 5.56883 142.174 5.55886 141.867C5.49841 140.009 6.77973 138.952 7.56388 138.529C8.33522 138.112 9.1821 137.948 9.84643 137.874C11.2143 137.721 12.8593 137.841 14.453 138.162C16.1397 138.409 17.8327 138.61 19.53 138.764C19.0746 138.361 18.4294 137.743 17.9797 136.964C17.2794 135.879 16.977 134.582 17.1278 133.296C17.2851 131.954 17.9254 130.715 18.9293 129.809L18.9351 129.804C20.0438 128.81 21.3352 128.901 21.9495 129.027C22.5758 129.155 23.1022 129.422 23.4378 129.612C24.1389 130.008 24.8708 130.577 25.4691 131.062C25.8067 131.335 26.2154 131.678 26.5924 131.994C26.85 132.21 27.0928 132.413 27.2879 132.574C27.8192 133.011 28.1881 133.292 28.4213 133.444C31.5948 135.052 34.4762 137.182 36.9449 139.745L37.0054 139.808L37.0621 139.874C38.3151 141.336 39.174 143.094 39.5575 144.98C39.941 146.867 39.8364 148.821 39.2535 150.656L39.1132 151.097ZM26.9516 136.062C26.325 135.686 25.4789 134.976 24.6142 134.25C23.0572 132.944 21.4403 131.587 20.9382 132.037C20.4752 132.455 20.1799 133.026 20.1074 133.646C20.0348 134.265 20.1899 134.889 20.5438 135.402C20.8614 136.009 21.6579 136.655 22.4975 137.335C23.7855 138.379 25.1749 139.505 25.092 140.699C25.0778 140.89 25.026 141.076 24.9398 141.247C24.8536 141.418 24.7346 141.57 24.5896 141.695C24.4446 141.82 24.2764 141.915 24.0946 141.975C23.9129 142.034 23.7211 142.058 23.5303 142.044C20.3183 141.896 17.1157 141.587 13.9347 141.118C13.122 140.95 12.3268 140.851 11.6077 140.819C11.4498 140.812 11.2955 140.808 11.1455 140.808C9.61809 140.802 8.53644 141.129 8.55728 141.77C8.56125 141.892 8.57197 142.009 8.59206 142.12C8.71543 142.803 9.19228 143.289 10.632 143.668C10.8168 143.717 11.0175 143.764 11.2353 143.809C11.2836 143.819 11.3328 143.829 11.3828 143.839C12.117 143.984 13.0029 144.118 13.8749 144.25C14.1963 144.299 14.5159 144.347 14.8253 144.395C15.1775 144.451 15.5164 144.506 15.8299 144.562C16.8535 144.746 17.606 144.94 17.6619 145.167C17.7907 145.69 16.9776 145.972 15.6171 145.722C15.5797 145.716 15.5385 145.708 15.4936 145.701C15.2926 145.667 15.0191 145.626 14.6937 145.581C13.7641 145.455 12.4106 145.301 11.1124 145.205C10.5972 145.167 10.0907 145.139 9.62292 145.124C9.57734 145.123 9.53213 145.122 9.48732 145.121C9.33483 145.117 9.18691 145.115 9.04466 145.115C9.03415 145.115 9.02367 145.115 9.01323 145.115C8.11676 145.115 7.4512 145.191 7.29473 145.391C7.29429 145.391 7.29386 145.392 7.29343 145.392C7.16372 145.565 7.07381 145.763 7.03018 145.974C7.00531 146.095 6.99582 146.217 7.00167 146.339C7.00609 146.431 7.01923 146.523 7.04109 146.613C7.09191 146.822 7.18855 147.018 7.32406 147.185C7.45957 147.353 7.63057 147.488 7.82473 147.582L9.27373 148.298C9.27373 148.298 8.75115 148.87 8.69152 149.476C8.66775 149.717 8.71756 149.964 8.90343 150.182C9.22738 150.562 9.80766 150.743 10.3096 150.83C10.818 150.917 11.246 150.907 11.246 150.907L19.8273 151.663C19.8273 151.663 19.9706 151.855 20.0347 152.079C20.0812 152.242 20.086 152.422 19.9642 152.557C19.9383 152.586 19.8619 152.602 19.744 152.608C19.5136 152.619 19.1249 152.592 18.6462 152.545C18.2517 152.506 17.796 152.454 17.3175 152.4C17.2346 152.39 17.151 152.381 17.0669 152.371C16.5651 152.314 16.0459 152.256 15.5516 152.209C15.2951 152.185 15.0453 152.163 14.8081 152.147C14.756 152.143 14.7045 152.14 14.6538 152.136C13.6827 152.075 12.9567 152.102 12.9123 152.34C12.8858 152.482 12.8408 152.606 12.7997 152.72C12.6288 153.192 12.5255 153.478 14.0957 154.062C14.2836 154.117 14.472 154.169 14.6608 154.219C14.8143 154.26 14.9682 154.3 15.1223 154.338C17.212 154.856 19.3556 155.122 21.5076 155.132C21.9884 155.135 22.4696 155.124 22.9507 155.101C24.8183 154.819 32.4336 155.366 32.4336 155.366L36.3943 149.747C36.8225 148.399 36.8994 146.964 36.6176 145.578C36.3358 144.192 35.7048 142.9 34.7842 141.826C32.5191 139.475 29.8704 137.526 26.9516 136.062ZM22.216 141.147C22.2157 141.147 22.212 141.141 22.206 141.13C22.2135 141.141 22.2164 141.147 22.216 141.147Z" fill="#3C474C"/>
<path d="M115.204 61.5467C115.204 61.5467 115.204 66.9623 114.222 68.9196C113.239 70.8769 110.044 72.3623 110.044 72.3623L112.009 61.5312L115.204 61.5467Z" fill="white"/>
<path d="M74.9048 61.5467C74.9048 61.5467 74.9048 66.9623 75.8873 68.9196C76.8699 70.8769 80.065 72.3623 80.065 72.3623L78.0999 61.5312L74.9048 61.5467Z" fill="white"/>
<path d="M112.218 60.2862C111.553 60.0773 110.895 59.8452 110.261 59.5977L81.8678 59.7988C80.4984 60.2088 79.2374 60.5183 78.1001 60.7581V61.5318C78.1001 61.5318 78.1001 62.1507 78.2162 63.1255L112.04 62.963C112.125 61.8567 112.179 60.8974 112.218 60.2862Z" fill="#263238"/>
<path d="M68.4835 61.5466L121.865 61.3067C121.865 61.3067 122.6 60.5331 120.635 59.8291C118.67 59.125 115.22 57.1213 114.492 56.1388C113.765 55.1562 114.492 39.8921 108.35 34.5153C102.207 29.1384 91.3913 28.1249 82.0456 33.2852C72.6999 38.4454 73.9378 52.7038 74.9203 54.9473C75.9028 57.1909 71.965 59.5892 70.2784 59.86C68.5919 60.1308 67.2844 61.5466 68.4835 61.5466Z" fill="#3C474C"/>
<path d="M87.6779 57.3694C87.6779 57.3694 82.5177 33.7808 83.2604 30.3381C84.0031 26.8954 98.0061 22.7177 105.627 30.0905C105.627 30.0905 106.114 30.8642 105.866 33.2857C105.619 35.7072 103.166 57.3694 103.166 57.3694H87.6779Z" fill="#FFD000"/>
<path d="M68.4836 61.5468L121.865 61.307C121.865 61.307 122.314 60.8505 121.564 60.2935C117.193 60.0227 111.939 59.0402 107.855 56.8817C103.77 54.7232 95.5613 53.1914 85.7128 56.8508C75.8642 60.5101 70.2398 59.7984 70.2398 59.7984C68.4836 60.0769 67.2845 61.5468 68.4836 61.5468Z" fill="white"/>
<path d="M74.4717 53.1062C74.5432 53.7248 74.6887 54.3326 74.9049 54.9165C75.0133 55.1601 75.0693 55.4236 75.0693 55.6902C75.0693 55.9567 75.0133 56.2203 74.9049 56.4638C80.9703 54.3595 95.8785 50.6228 114.469 56.1234C114.205 54.9708 114.062 53.7935 114.044 52.6111C95.6929 47.5127 81.156 50.8471 74.4717 53.1062Z" fill="#263238"/>
<path d="M98.0758 48.5273H91.786C91.0127 48.5273 90.3857 49.1543 90.3857 49.9277V53.2698C90.3857 54.0432 91.0127 54.6701 91.786 54.6701H98.0758C98.8492 54.6701 99.4761 54.0432 99.4761 53.2698V49.9277C99.4761 49.1543 98.8492 48.5273 98.0758 48.5273Z" fill="#263238"/>
<path d="M76.7296 98.552C76.7296 98.552 51.0001 109.407 51.0001 111.499C51.0001 113.591 37.5356 154.493 38.0121 160.73C38.4886 166.967 39.7108 169.282 46.7406 169.94C53.7703 170.598 61.7737 165.546 62.7473 164.855C63.5392 164.226 64.2695 163.53 64.9294 162.776C64.9294 162.776 59.043 186.308 60.5001 186.999C63.2637 192.678 111 199.356 130.5 193.999C132.22 192.618 130.151 161.388 130.151 161.388C130.151 161.388 146.641 160.236 149.307 158.158C151.972 156.079 151.247 154.46 148.823 148.223C146.4 141.987 139.846 128.355 136.456 121.428C133.065 114.5 134.58 110.986 129 107.499C123.42 104.012 116.314 101.236 110.5 100.999C104.686 100.762 83.7386 96.9336 76.7296 98.552Z" fill="#FFD000"/>
<path d="M65.0083 139C65.1562 139.356 65.2564 139.729 65.3061 140.111C65.4591 140.835 65.6523 141.89 65.8616 143.194C66.2802 145.802 66.7229 149.425 67.0932 153.434C67.4635 157.443 67.7372 161.081 67.9465 163.714C68.027 164.937 68.1075 165.976 68.1639 166.829C68.2143 167.211 68.2143 167.598 68.1639 167.98C68.0491 167.613 67.9735 167.236 67.9385 166.853C67.8258 166.121 67.6889 165.058 67.544 163.746C67.2381 161.13 66.9 157.499 66.5297 153.49C66.1594 149.481 65.7972 145.867 65.4832 143.291C65.3303 142.075 65.2015 141.037 65.0968 140.191C65.0136 139.8 64.9838 139.399 65.0083 139Z" fill="#263238"/>
<path d="M126.193 140C126.045 140.356 125.945 140.729 125.896 141.111C125.743 141.835 125.549 142.89 125.34 144.194C124.921 146.802 124.479 150.425 124.108 154.434C123.738 158.443 123.464 162.081 123.255 164.714C123.175 165.937 123.094 166.976 123.038 167.829C122.987 168.211 122.987 168.598 123.038 168.98C123.153 168.613 123.228 168.236 123.263 167.853C123.376 167.121 123.513 166.058 123.658 164.746C123.964 162.13 124.302 158.499 124.672 154.49C125.042 150.481 125.404 146.867 125.718 144.291C125.871 143.075 126 142.037 126.105 141.191C126.188 140.8 126.218 140.399 126.193 140Z" fill="#263238"/>
<path d="M97.8903 201.656C97.8415 201.358 97.82 201.057 97.8259 200.755C97.8259 200.119 97.8259 199.258 97.7696 198.179C97.7213 195.885 97.6569 192.657 97.5764 188.688C97.3912 180.638 97.1336 169.585 96.8438 157.381C96.554 145.177 96.4011 134.076 96.4172 126.059C96.4172 122.034 96.4574 118.814 96.5057 116.56C96.5057 115.481 96.5621 114.62 96.5862 113.984C96.5795 113.682 96.601 113.38 96.6506 113.082C96.673 113.382 96.673 113.684 96.6506 113.984C96.6506 114.62 96.6506 115.481 96.6506 116.56C96.6506 118.854 96.6989 122.09 96.7311 126.051C96.8116 134.101 97.0451 145.137 97.3188 157.365C97.5925 169.593 97.834 180.662 97.8984 188.68C97.8984 192.705 97.8984 195.925 97.8984 198.179C97.8984 199.258 97.8984 200.119 97.8581 200.755C97.8894 201.054 97.9002 201.356 97.8903 201.656Z" fill="#263238"/>
<path d="M78.8968 92.0654C79.0254 93.7499 78.9551 95.4433 78.6875 97.1121C78.2555 99.4205 75.2518 101.312 78.4715 104.467C81.6913 107.622 89.8319 109.507 98.4112 108.879C106.99 108.251 110.419 105.512 110.852 103.416C111.284 101.319 110.635 101.524 110.635 98.5805C110.635 95.6371 111.061 92.4887 109.994 91.0137C105.845 89.9249 78.7114 89.6499 78.8968 92.0654Z" fill="#FFD000"/>
<path d="M158 143.5C158.149 152.685 160.237 157.226 170 163.5L152.651 174.856C147.389 178.3 140.292 176.09 137.916 170.268L132.5 157C151.531 147.814 154.447 148.014 158 143.5Z" fill="#FFD000"/>
<path d="M39.0178 141.052C38.8689 150.237 36.7809 154.779 27.0178 161.052L44.3672 172.408C49.6289 175.852 56.7258 173.643 59.1022 167.82L64.5177 154.552C45.4867 145.366 42.5709 145.566 39.0178 141.052Z" fill="#FFD000"/>
<path d="M161.302 169.324L165.171 167.057C159.714 161.075 156.088 153.943 154.714 146.489C153.152 146.858 151.474 147.208 150.168 147.405C150.818 150.811 151.916 154.167 153.438 157.4C155.444 161.654 158.093 165.671 161.302 169.324Z" fill="white"/>
<path d="M155.302 172.324L159.171 170.057C153.714 164.075 150.088 156.943 148.714 149.489C147.152 149.858 145.474 150.208 144.168 150.405C144.818 153.811 145.916 157.167 147.438 160.4C149.444 164.654 152.093 168.671 155.302 172.324Z" fill="white"/>
<path d="M36.6549 167.324L32.7865 165.057C38.243 159.075 41.8687 151.943 43.2431 144.489C44.8048 144.858 46.483 145.208 47.7894 145.405C47.1393 148.811 46.0408 152.167 44.5187 155.4C42.5132 159.654 39.8639 163.671 36.6549 167.324Z" fill="white"/>
<path d="M42.6549 170.324L38.7865 168.057C44.243 162.075 47.8687 154.943 49.2431 147.489C50.8048 147.858 52.483 148.208 53.7894 148.405C53.1393 151.811 52.0408 155.167 50.5187 158.4C48.5132 162.654 45.8639 166.671 42.6549 170.324Z" fill="white"/>
<path d="M77.2232 103.791C77.6579 103.901 78.1098 103.961 78.567 103.969C79.4397 104.044 80.7073 104.124 82.2723 104.193C89.5906 112.881 97.7118 113.385 106.788 104.078C108.246 104.028 109.484 103.997 110.501 103.962C110.958 103.971 111.417 103.93 111.866 103.839C111.421 103.764 110.966 103.729 110.509 103.735C109.631 103.701 108.358 103.678 106.79 103.674C98.9485 111.906 90.7847 111.949 82.3529 103.806C80.8979 103.784 79.6552 103.766 78.6436 103.752C78.1722 103.711 77.6944 103.724 77.2232 103.791Z" fill="#263238"/>
</g>
<defs>
<clipPath id="clip0_550_27966">
<rect width="200" height="200" fill="white"/>
</clipPath>
</defs>
</svg>
