<svg width="200" height="200" viewBox="0 0 200 200" fill="none" xmlns="http://www.w3.org/2000/svg">
<g clip-path="url(#clip0_550_26765)">
<path fill-rule="evenodd" clip-rule="evenodd" d="M96.6489 40.0786C72.5164 41.5624 60.8087 65.3973 46.0572 82.1754C34.101 95.7741 23.0389 109.409 20.7142 126.445C18.0291 146.122 16.4425 168.605 32.3369 182.721C48.2827 196.882 74.0361 195.809 96.6489 193.883C119.863 194.322 138.62 187.342 149.552 172.737C165.068 160.174 178.921 144.922 179.935 126.445C180.989 107.244 169.055 90.1752 154.888 75.4837C139.04 59.05 121.162 38.5713 96.6489 40.0786Z" fill="#FFF3CC"/>
<path d="M107.94 44.8647L107.07 44.8164C102.876 44.5763 98.7456 45.9237 95.4999 48.5907C92.2541 51.2577 90.1313 55.0488 89.5536 59.2099C88.4427 67.2599 89.7307 68.6774 89.5536 73.0002C89.1431 81.968 97.816 88.5002 97.816 88.5002L95.2933 94.952C95.1675 96.3825 95.3256 97.8237 95.7585 99.1929C96.1915 100.562 96.8907 101.832 97.816 102.93C98.7413 104.029 99.8745 104.933 101.151 105.592C102.426 106.251 103.82 106.651 105.251 106.769C108.103 106.998 110.93 106.096 113.123 104.259C115.316 102.422 116.698 99.796 116.972 96.9484L120.192 63.6937C121.496 54.4362 117.23 45.9515 107.94 44.8647Z" fill="#FFBF9D"/>
<path d="M98 88.5007C102.149 88.7417 106.371 87.6491 110 85.6777C110 85.6777 105.881 91.7827 97 90.5007L98 88.5007Z" fill="#FF9A6C"/>
<path d="M104.004 68.3284C103.975 68.7349 104.102 69.1368 104.357 69.447C104.613 69.7572 104.976 69.9508 105.368 69.9858C105.559 70.0133 105.753 70.0008 105.939 69.9492C106.125 69.8975 106.299 69.8078 106.451 69.6852C106.603 69.5627 106.729 69.4099 106.823 69.2358C106.917 69.0617 106.976 68.8698 106.997 68.6716C107.021 68.2663 106.892 67.8672 106.638 67.5581C106.384 67.249 106.023 67.054 105.633 67.0142C105.442 66.9867 105.248 66.9992 105.062 67.0509C104.876 67.1025 104.702 67.1922 104.55 67.3148C104.398 67.4373 104.272 67.5901 104.178 67.7642C104.084 67.9383 104.025 68.1302 104.004 68.3284Z" fill="#263238"/>
<path d="M91.212 63.701C91.3649 63.8781 92.3712 63.21 93.7477 63.2985C95.1243 63.3871 96.0984 64.1035 96.2513 63.9667C96.4043 63.8298 96.1869 63.5883 95.7683 63.2422C95.1958 62.793 94.4986 62.5316 93.7719 62.4935C93.0568 62.4539 92.3472 62.6397 91.7433 63.0248C91.3166 63.3227 91.1556 63.6125 91.212 63.701Z" fill="#263238"/>
<path d="M92.0028 68.3284C91.9789 68.7337 92.1076 69.1328 92.3621 69.4419C92.6165 69.751 92.9767 69.946 93.3671 69.9858C93.5579 70.0133 93.752 70.0008 93.938 69.9491C94.1241 69.8975 94.2982 69.8078 94.4501 69.6852C94.6021 69.5627 94.7287 69.4099 94.8226 69.2358C94.9165 69.0617 94.9756 68.8698 94.9966 68.6716C95.023 68.2657 94.8951 67.8652 94.6402 67.5556C94.3854 67.2459 94.0237 67.0516 93.6323 67.0142C93.4416 66.9867 93.2474 66.9992 93.0614 67.0509C92.8754 67.1025 92.7012 67.1922 92.5493 67.3148C92.3974 67.4373 92.2707 67.5901 92.1769 67.7642C92.083 67.9383 92.0238 68.1302 92.0028 68.3284Z" fill="#263238"/>
<path d="M104.744 64.7316C104.889 64.9087 105.903 64.2486 107.28 64.3291C108.656 64.4096 109.622 65.1341 109.783 64.9973C109.944 64.8604 109.719 64.6189 109.292 64.2728C108.724 63.8278 108.033 63.5691 107.312 63.5322C106.596 63.4864 105.885 63.6727 105.283 64.0635C104.833 64.3613 104.672 64.6511 104.744 64.7316Z" fill="#263238"/>
<path d="M99.1652 74.6567C98.4536 74.3823 97.7095 74.201 96.9514 74.1173C96.5972 74.061 96.2752 73.9724 96.2269 73.7309C96.2149 73.3658 96.3162 73.0059 96.5167 72.7005C96.9031 71.8955 97.3217 71.002 97.7162 70.0843C99.3745 66.3571 100.598 63.29 100.453 63.2256C100.308 63.1612 98.8432 66.1237 97.1688 69.8508C96.7663 70.7685 96.3638 71.646 96.0176 72.4832C95.7753 72.8956 95.6816 73.3786 95.752 73.8517C95.7956 73.9799 95.8685 74.0961 95.9649 74.1911C96.0613 74.2862 96.1786 74.3574 96.3074 74.3991C96.497 74.4654 96.6947 74.506 96.8951 74.5198C97.6438 74.6547 98.4057 74.7006 99.1652 74.6567Z" fill="#263238"/>
<path d="M104.641 60.4005C104.761 60.7788 106.146 60.6822 107.748 60.972C109.35 61.2618 110.63 61.777 110.863 61.447C110.968 61.294 110.759 60.9318 110.26 60.5373C109.582 60.0516 108.803 59.7266 107.982 59.5871C107.16 59.4476 106.318 59.4973 105.518 59.7323C104.914 59.9416 104.592 60.2153 104.641 60.4005Z" fill="#263238"/>
<path d="M91.9137 60.827C92.1311 61.149 93.0971 60.8833 94.2402 60.9316C95.3833 60.9799 96.3332 61.2617 96.5747 60.9316C96.6793 60.7787 96.5747 60.4567 96.148 60.1266C95.6025 59.7358 94.9513 59.5197 94.2804 59.5068C93.608 59.4784 92.9436 59.6614 92.3806 60.03C91.962 60.352 91.8091 60.666 91.9137 60.827Z" fill="#263238"/>
<path d="M90.6564 55.1525C90.6564 55.1525 93.337 49.6784 96.1223 48.5192C99.4872 47.1266 100.687 50.8054 103.858 50.1292C107.03 49.453 110.242 48.1006 113.293 50.6927C116.626 53.5344 114.903 55.2974 114.903 59.2821C114.855 75.4385 117.535 80.1639 118.807 72.629C118.944 71.824 121.295 71.2686 121.834 67.799C122.543 63.2749 123.034 57.7526 122.204 54.4602C121.504 51.6909 120.063 49.7187 117.374 47.4808C113.164 43.9549 107.135 43.5363 103.005 43.7134C98.8754 43.8905 90.6805 48.1006 90.6564 55.1525Z" fill="#263238"/>
<path d="M118.22 72.3236C118.247 71.9929 118.342 71.6713 118.499 71.3788C118.655 71.0864 118.871 70.8295 119.131 70.624C119.392 70.4185 119.692 70.269 120.013 70.1847C120.334 70.1004 120.669 70.0831 120.997 70.134C122.655 70.3916 124.458 71.4462 124.153 74.8916C123.605 81.0016 117.584 79.1903 117.584 79.0132C117.584 78.8361 117.97 74.8835 118.22 72.3236Z" fill="#FFBF9D"/>
<path d="M119.105 76.8303C119.105 76.8303 119.202 76.9188 119.379 77.0154C119.626 77.1475 119.914 77.1793 120.184 77.104C120.844 76.9269 121.48 75.9448 121.609 74.85C121.673 74.3266 121.617 73.7955 121.448 73.2963C121.408 73.1011 121.321 72.9186 121.195 72.7643C121.068 72.6101 120.907 72.4888 120.723 72.4108C120.604 72.3686 120.474 72.3688 120.356 72.4113C120.237 72.4538 120.136 72.5361 120.071 72.6443C119.967 72.8053 119.999 72.934 119.967 72.9421C119.934 72.9501 119.846 72.8294 119.918 72.5798C119.964 72.4305 120.061 72.3022 120.192 72.2176C120.372 72.1045 120.589 72.0669 120.796 72.1129C121.041 72.1861 121.264 72.3205 121.443 72.5036C121.621 72.6868 121.751 72.9125 121.818 73.1595C122.031 73.7126 122.106 74.3096 122.035 74.8983C121.882 76.1299 121.15 77.2247 120.248 77.4018C120.08 77.4353 119.907 77.4302 119.741 77.387C119.575 77.3438 119.421 77.2635 119.29 77.1523C119.105 76.9832 119.081 76.8464 119.105 76.8303Z" fill="#FF9A6C"/>
<path d="M89.3524 48.5191C90.2943 47.8107 91.5903 47.7141 92.5241 46.9977C96.6835 43.8042 103.387 37.7091 109.111 40.8959C111.289 42.1085 114.038 42.2125 115.982 43.6006C116.547 44.0475 117.013 44.608 117.348 45.2458C117.684 45.8835 117.882 46.5845 117.93 47.3036C117.93 47.3036 118.566 46.9816 120.498 48.5111C121.73 49.4851 122.736 51.5862 123.187 53.0835C123.855 55.3294 122.881 57.6962 121.923 59.8294C121.408 60.9806 120.764 62.2444 119.564 62.655C118.107 63.146 116.497 62.0029 115.926 60.57C115.354 59.1371 114.452 57.6962 113.76 56.3196C112.553 53.9046 111.345 51.6989 112.335 50.1694C109.07 49.1089 106.906 51.0056 104.003 52.0289C102.783 52.4594 97.8575 53.276 96.4995 52.9513C96.0607 52.8464 95.6512 52.6439 95.3014 52.359C94.7484 53.2599 93.8762 53.9194 92.8587 54.2059C91.8411 54.4923 90.753 54.3848 89.8112 53.9046C87.9919 52.7776 87.6699 49.791 89.3524 48.5191Z" fill="#263238"/>
<path d="M122.535 58.3875C122.252 58.8294 122.015 59.2987 121.826 59.7882C121.606 60.2826 121.258 60.7102 120.82 61.0279C120.234 61.3278 119.559 61.405 118.92 61.2452C118.256 61.1164 117.629 60.8414 117.085 60.4402C116.646 60.0994 116.246 59.7106 115.893 59.281C115.585 58.8596 115.243 58.4638 114.871 58.0977C115.067 58.5852 115.339 59.0388 115.676 59.442C116.013 59.9161 116.414 60.3413 116.867 60.7059C117.449 61.1447 118.124 61.4424 118.84 61.5753C119.565 61.7551 120.332 61.6484 120.981 61.2774C121.466 60.9224 121.835 60.4324 122.044 59.8687C122.268 59.397 122.433 58.8995 122.535 58.3875Z" fill="#B9B8B6"/>
<path d="M122.301 63.1146C121.933 63.394 121.526 63.619 121.094 63.7828C120.623 63.9318 120.126 63.9757 119.636 63.9116C119.036 63.8203 118.462 63.6007 117.954 63.2676C117.031 62.6266 116.248 61.805 115.652 60.8526C115.424 60.4394 115.154 60.0509 114.847 59.6934C114.988 60.1539 115.197 60.5907 115.467 60.9894C116.014 62.0378 116.806 62.9383 117.777 63.6137C118.33 63.9795 118.962 64.2085 119.62 64.2819C120.167 64.342 120.72 64.2674 121.23 64.0645C122.051 63.6701 122.341 63.1227 122.301 63.1146Z" fill="#B9B8B6"/>
<path d="M103.297 79.6289C103.503 79.9662 103.618 80.3164 103.638 80.6697C103.663 80.8368 103.617 81.0047 103.503 81.1618C103.389 81.319 103.211 81.4618 102.98 81.5804C102.74 81.7262 102.441 81.8432 102.104 81.9233C101.766 82.0034 101.398 82.0446 101.027 82.0439C100.356 82.0432 99.7074 81.92 99.1981 81.6964C98.6888 81.4729 98.3518 81.1636 98.2479 80.8242L98.0098 80.0558C99.3991 79.8525 103.194 79.6818 103.297 79.6289Z" fill="#FF9A6C"/>
<path d="M99.0522 81.1252C99.0522 81.1252 99.2472 81.1252 99.5693 81.1411C100.021 81.163 100.482 81.163 100.934 81.1411C101.587 81.1089 102.177 81.0007 102.587 80.8381C103.075 80.6348 103.307 80.3822 103.239 80.1285C103.22 79.9858 103.101 79.8462 102.892 79.7193L103.095 79.7485C101.646 79.8176 100.374 79.8734 99.476 79.9053C98.9928 79.9336 98.5011 79.9452 98.0098 79.9399C98.4676 79.884 98.9459 79.8465 99.4336 79.8282C100.332 79.7751 101.586 79.7033 103.036 79.6289H103.171L103.231 79.6661C103.556 79.8636 103.694 80.086 103.629 80.3073C103.565 80.5286 103.3 80.7395 102.866 80.9152C102.39 81.0951 101.709 81.2096 100.968 81.2341C100.486 81.2474 100.001 81.233 99.5354 81.1916C99.361 81.1806 99.1962 81.1579 99.0522 81.1252Z" fill="#263238"/>
<path d="M139.512 106.576C140.043 106.576 147.626 109.603 149.623 117.041C151.619 124.479 157.069 151.769 157.069 151.769L162.857 159.787C162.857 159.787 160.981 174.414 150.347 171.628C150.347 171.628 143.247 172.868 140.985 165.671C138.723 158.475 134.336 137.005 134.336 137.005L139.512 106.576Z" fill="#B9B8B6"/>
<path d="M117.853 94L121.88 100.196L140 106.752L134.814 160.234V185.5C115.5 197.5 77.2791 196.215 74.5409 195C73.1154 194.959 71.3195 191.408 71.0859 189.425C70.8846 187.645 71.038 185.841 71.5369 184.123L74.5409 173.403C74.0979 180.074 76.063 133.607 76.1516 131.911L71.7624 108.006L92.3795 99.5154L95.6009 94.5081L104.879 101.687L117.853 94Z" fill="#B9B8B6"/>
<path d="M71.3363 107.84C71.3363 107.84 67.1905 111.478 66.5063 114.28C65.822 117.081 50.9134 149.354 50.9134 149.354L43.5074 151.35L41.5271 155.456C40.3704 157.81 40.0591 160.49 40.6454 163.047C41.2318 165.603 42.6801 167.88 44.7471 169.495C45.0045 169.69 45.2733 169.871 45.5521 170.034C49.5771 172.449 56.7416 172.321 60.9357 167.378C64.9043 162.693 76.5205 145.852 76.5205 145.852V125.244L71.3363 107.84Z" fill="#B9B8B6"/>
<path d="M47.0495 152.59L36.3993 146.303L31.2634 152.59L32.326 155.633L46.0594 165.848C47.7643 164.457 48.9081 162.495 49.2794 160.326C49.8831 156.486 47.0495 152.59 47.0495 152.59Z" fill="#FFBF9D"/>
<path d="M50.4305 149.337C50.4305 149.442 51.3402 149.337 52.6765 149.788C54.4033 150.385 55.9323 151.446 57.0959 152.855C58.2458 154.295 59.1937 155.885 59.9134 157.581C60.1847 158.307 60.5215 159.008 60.9197 159.674C60.8123 158.901 60.5955 158.147 60.2757 157.436C59.6431 155.646 58.7093 153.977 57.5145 152.501C56.2929 151.009 54.6394 149.932 52.7811 149.418C52.0213 149.167 51.2057 149.139 50.4305 149.337Z" fill="#263238"/>
<path d="M36.5764 149.789C36.8418 148.399 36.7467 146.964 36.3 145.621C35.8532 144.277 35.0698 143.071 34.0245 142.117C31.5099 140.049 28.6664 138.416 25.6122 137.287C23.7446 136.482 19.8564 133.206 19.1722 133.995C18.4879 134.784 18.182 135.959 19.1722 137.392C20.1623 138.825 25.7893 140.958 25.0004 142.769C24.6784 143.502 22.9074 143.639 22.9074 143.639C19.6927 143.865 16.4686 143.929 13.2474 143.832C10.3977 143.582 7.83777 144.13 7.99072 145.112C8.14367 146.094 8.67497 146.633 11.0336 146.834C13.3923 147.036 17.2321 146.883 17.4736 147.422C17.7151 147.961 16.8779 148.308 15.5014 148.227C14.1248 148.147 7.63652 148.122 7.19377 148.863C7.0861 149.051 7.02143 149.261 7.00446 149.477C6.98749 149.692 7.01864 149.91 7.09563 150.112C7.17262 150.314 7.29354 150.497 7.44971 150.648C7.60588 150.798 7.79341 150.911 7.99878 150.98L9.52022 151.52C9.52022 151.52 8.63472 152.751 9.37532 153.435C10.1159 154.12 11.7903 153.878 11.7903 153.878L20.3958 153.637C20.3958 153.637 20.8869 154.152 20.6454 154.506C20.4039 154.86 13.6579 154.369 13.6096 155.11C13.5613 155.85 12.9737 156.189 14.9862 156.72C17.9336 157.211 20.9421 157.211 23.8895 156.72C25.7088 156.221 33.3322 155.915 33.3322 155.915L36.5764 149.789Z" fill="#FFBF9D"/>
<path d="M153.535 153.709L163.493 145.449L169.208 151.889L168.508 155.037L156.063 166.758C154.218 165.7 152.826 164.001 152.15 161.984C150.911 158.434 153.535 153.709 153.535 153.709Z" fill="#FFBF9D"/>
<path d="M163.606 149.747C163.178 148.399 163.101 146.964 163.382 145.578C163.664 144.192 164.295 142.9 165.216 141.826C167.481 139.475 170.13 137.526 173.048 136.062C174.803 135.008 178.281 131.337 179.062 132.037C179.525 132.455 179.82 133.026 179.893 133.646C179.965 134.265 179.81 134.889 179.456 135.402C178.651 136.94 174.771 138.727 174.908 140.699C174.922 140.89 174.974 141.076 175.06 141.247C175.146 141.418 175.265 141.57 175.41 141.695C175.555 141.82 175.724 141.915 175.905 141.975C176.087 142.034 176.279 142.058 176.47 142.044C179.682 141.896 182.884 141.587 186.065 141.118C188.875 140.538 191.475 140.78 191.443 141.77C191.411 142.76 190.936 143.38 188.617 143.839C186.299 144.298 182.467 144.644 182.338 145.167C182.209 145.69 183.022 145.972 184.383 145.722C185.743 145.473 192.183 144.708 192.707 145.392C192.836 145.564 192.926 145.763 192.97 145.974C193.013 146.185 193.01 146.403 192.959 146.613C192.908 146.822 192.811 147.018 192.676 147.185C192.54 147.353 192.369 147.488 192.175 147.582L190.726 148.298C190.726 148.298 191.749 149.417 191.097 150.182C190.445 150.947 188.754 150.907 188.754 150.907L180.173 151.663C180.173 151.663 179.746 152.235 180.036 152.557C180.326 152.879 186.951 151.607 187.088 152.34C187.225 153.072 187.852 153.338 185.904 154.062C183.03 154.895 180.038 155.246 177.049 155.101C175.182 154.819 167.566 155.366 167.566 155.366L163.606 149.747Z" fill="#FFBF9D"/>
<path d="M92.4597 101.006C92.9982 101.678 93.5964 102.301 94.2468 102.865C95.3819 103.976 96.9355 105.53 98.5777 107.301C98.9239 107.679 99.27 108.05 99.592 108.412L99.8094 108.645L100.011 108.396C101.283 106.786 102.385 105.305 103.158 104.25C103.612 103.714 103.999 103.125 104.309 102.495C103.775 102.952 103.294 103.468 102.876 104.033C102.031 105.031 100.872 106.448 99.584 108.058H99.9945L98.9883 106.939C97.5736 105.41 96.0796 103.956 94.5125 102.584C93.8949 101.976 93.2056 101.446 92.4597 101.006Z" fill="#263238"/>
<path d="M138.377 120.502C138.229 120.857 138.129 121.231 138.079 121.613C137.926 122.337 137.733 123.392 137.524 124.696C137.105 127.304 136.662 130.927 136.292 134.936C135.922 138.945 135.648 142.583 135.439 145.216C135.358 146.439 135.278 147.478 135.221 148.331C135.171 148.713 135.171 149.1 135.221 149.482C135.336 149.115 135.412 148.738 135.447 148.355C135.559 147.622 135.696 146.56 135.841 145.248C136.147 142.631 136.485 139.001 136.856 134.992C137.226 130.983 137.588 127.369 137.902 124.793C138.055 123.577 138.184 122.539 138.288 121.693C138.372 121.302 138.401 120.901 138.377 120.502Z" fill="#263238"/>
<path d="M75.3936 118.676C75.2787 119.132 75.2112 119.599 75.1924 120.068C75.1038 120.978 75.0072 122.282 74.9267 123.908C74.7416 127.128 74.653 131.636 74.6369 136.579V153.09C74.6111 153.56 74.6299 154.032 74.6933 154.498C74.7976 154.039 74.8489 153.569 74.8462 153.098C74.9106 152.188 74.975 150.876 75.0233 149.258C75.136 146.038 75.1763 141.53 75.1843 136.587C75.1924 131.644 75.2326 127.161 75.3131 123.924C75.3534 122.387 75.3856 121.099 75.4097 120.085C75.4479 119.615 75.4425 119.144 75.3936 118.676Z" fill="#263238"/>
<path d="M146.548 165.123C146.8 164.209 146.985 163.279 147.103 162.338C147.48 160.092 148.208 157.918 149.261 155.898C150.334 153.917 151.948 152.282 153.914 151.181C154.759 150.777 155.633 150.438 156.53 150.166C156.265 150.109 155.99 150.109 155.725 150.166C155.027 150.283 154.35 150.497 153.712 150.802C151.597 151.857 149.864 153.546 148.753 155.632C147.688 157.706 147.012 159.957 146.757 162.274C146.568 163.211 146.497 164.168 146.548 165.123Z" fill="#263238"/>
<path d="M143.964 154.248C144.076 154.377 145.678 152.727 148.286 151.833C150.895 150.94 153.116 151.246 153.165 151.077C153.213 150.908 150.854 150.36 148.109 151.318C145.364 152.276 143.843 154.184 143.964 154.248Z" fill="#263238"/>
<path d="M103.11 191.656C103.159 191.358 103.18 191.057 103.174 190.755C103.174 190.119 103.174 189.258 103.231 188.179C103.279 185.885 103.343 182.657 103.424 178.688C103.609 170.638 103.867 159.585 104.156 147.381C104.446 135.177 104.599 124.076 104.583 116.059C104.583 112.034 104.543 108.814 104.495 106.56C104.495 105.481 104.438 104.62 104.414 103.984C104.421 103.682 104.399 103.38 104.35 103.082C104.327 103.382 104.327 103.684 104.35 103.984C104.35 104.62 104.35 105.481 104.35 106.56C104.35 108.854 104.301 112.09 104.269 116.051C104.189 124.101 103.955 135.137 103.681 147.365C103.408 159.593 103.166 170.662 103.102 178.68C103.102 182.705 103.102 185.925 103.102 188.179C103.102 189.258 103.102 190.119 103.142 190.755C103.111 191.054 103.1 191.356 103.11 191.656Z" fill="#263238"/>
<path d="M154.002 153.37C154.002 153.305 153.197 153.909 152.553 155.246C152.158 156.007 151.871 156.82 151.7 157.661C151.534 158.728 151.534 159.814 151.7 160.881C151.82 161.949 152.137 162.986 152.634 163.94C153.064 164.713 153.657 165.383 154.372 165.904C155.001 166.426 155.793 166.71 156.61 166.709C155.903 166.416 155.233 166.041 154.614 165.59C153.979 165.069 153.456 164.426 153.076 163.698C152.646 162.788 152.373 161.81 152.271 160.808C152.127 159.804 152.127 158.785 152.271 157.781C152.41 156.952 152.645 156.141 152.972 155.366C153.471 154.086 154.083 153.418 154.002 153.37Z" fill="#263238"/>
<path d="M44.0629 166.967C44.0629 166.967 44.3205 166.967 44.7311 166.765C45.3074 166.511 45.8485 166.184 46.3411 165.791C48.0279 164.492 49.1816 162.621 49.5849 160.531C49.9882 158.44 49.6133 156.274 48.5307 154.441C48.2152 153.89 47.8311 153.381 47.3876 152.927C47.0736 152.621 46.8724 152.476 46.8482 152.501C46.8241 152.525 47.4922 153.249 48.1926 154.626C49.129 156.407 49.4312 158.453 49.0493 160.428C48.6674 162.404 47.6242 164.19 46.0915 165.493C44.9404 166.508 44.0227 166.878 44.0629 166.967Z" fill="#263238"/>
<path d="M23.5917 140.41C23.5273 140.475 23.9942 140.917 24.5818 141.698C24.9199 142.145 25.1537 142.662 25.2661 143.212C25.3949 143.831 25.3788 144.556 25.4915 145.353C25.5874 146.037 25.8182 146.695 26.1706 147.29C26.523 147.884 26.9899 148.402 27.5443 148.814C27.9679 149.196 28.5053 149.428 29.0738 149.474C29.114 149.386 28.5183 149.161 27.7858 148.508C26.8427 147.673 26.2218 146.534 26.0308 145.288C25.9778 144.56 25.8865 143.834 25.7572 143.115C25.6031 142.515 25.3046 141.963 24.8877 141.505C24.5496 141.042 24.1051 140.666 23.5917 140.41Z" fill="#FF9A6C"/>
<path d="M178.861 148.879C178.861 149.024 181.541 149.169 184.85 149.008C188.158 148.847 190.815 148.46 190.799 148.307C190.783 148.155 188.118 148.307 184.826 148.46C181.533 148.613 178.861 148.718 178.861 148.879Z" fill="#FF9A6C"/>
<path d="M172.767 148.42C172.767 148.477 173.403 148.372 174.159 147.736C174.65 147.31 175.039 146.781 175.301 146.187C175.563 145.592 175.69 144.948 175.673 144.299C175.615 143.612 175.491 142.933 175.303 142.27C175.162 141.745 175.094 141.203 175.101 140.66C175.148 140.175 175.259 139.699 175.431 139.243C175.431 139.187 174.844 139.613 174.715 140.628C174.65 141.198 174.683 141.775 174.811 142.334C174.963 142.973 175.068 143.621 175.125 144.274C175.143 145.442 174.7 146.569 173.894 147.414C173.274 148.138 172.727 148.34 172.767 148.42Z" fill="#FF9A6C"/>
<path d="M22.0942 150.328C22.0942 150.175 19.2204 150.288 15.7106 150.578C12.2008 150.867 9.35908 151.238 9.36713 151.383C9.37518 151.528 12.241 151.423 15.7508 151.125C19.2606 150.827 22.1023 150.473 22.0942 150.328Z" fill="#FF9A6C"/>
<path d="M104.961 101.971C105.283 103.043 105.689 104.087 106.177 105.095C106.394 105.578 106.62 106.101 106.853 106.64C107.084 107.255 107.353 107.854 107.658 108.435C107.774 108.626 107.943 108.78 108.145 108.877C108.346 108.974 108.571 109.011 108.793 108.983C109.183 108.88 109.546 108.693 109.856 108.435L111.756 107.139C114.348 105.352 116.674 103.702 118.349 102.494C119.285 101.882 120.168 101.193 120.989 100.434C119.992 100.936 119.036 101.518 118.131 102.172C116.401 103.307 114.034 104.893 111.442 106.688L109.55 107.993C109.303 108.206 109.016 108.368 108.705 108.468C108.578 108.483 108.449 108.459 108.336 108.401C108.222 108.342 108.129 108.25 108.069 108.137C107.457 107.027 106.95 105.827 106.459 104.917C106.042 103.895 105.542 102.91 104.961 101.971Z" fill="#263238"/>
<path d="M7.13655 111.403C7.13655 111.403 7.15183 111.42 7.15947 111.428L38.8005 171.425L38.812 171.437C38.8199 171.452 38.8266 171.467 38.8321 171.483C38.8748 171.571 38.9041 171.666 38.9192 171.762C38.9391 171.869 38.9478 171.978 38.945 172.087C38.9167 172.491 38.7818 172.881 38.554 173.217C37.6874 174.593 35.6667 175.654 34.0447 175.591C33.5227 175.602 33.0161 175.414 32.6283 175.064C32.5458 174.98 32.4769 174.884 32.4243 174.779L1.08492 115.383L0.756258 114.761C0.509178 114.298 0.577859 113.671 1.02007 112.984C1.89272 111.606 3.91566 110.538 5.53766 110.602C6.32516 110.625 6.88976 110.932 7.13655 111.403Z" fill="#E6E6E6"/>
<path d="M0.343584 104.964L1.21651 106.555C1.24071 106.603 1.25047 106.658 1.24463 106.711C1.23879 106.765 1.21758 106.816 1.18356 106.858C1.09934 106.978 0.987876 107.076 0.858332 107.144C0.728787 107.213 0.584863 107.249 0.43837 107.251C0.385982 107.254 0.333826 107.243 0.28701 107.219C0.240193 107.196 0.200312 107.16 0.17127 107.116L-0.694451 105.546C-0.753988 105.41 -0.760816 105.257 -0.713602 105.116C-0.666389 104.975 -0.568513 104.857 -0.43902 104.784C-0.309527 104.712 -0.157677 104.69 -0.0130225 104.723C0.131632 104.757 0.258745 104.843 0.343584 104.964Z" fill="#455A64"/>
<path d="M0.284922 104.88C0.307846 104.905 0.334585 104.934 0.357508 104.958C0.0184231 104.783 -0.664225 105.095 -0.704487 105.489C-0.71327 105.482 -0.720989 105.474 -0.72741 105.464L-0.750332 105.44C-0.770821 105.378 -0.779217 105.313 -0.775069 105.248C-0.768645 105.091 -0.700218 104.942 -0.584698 104.835C-0.469178 104.727 -0.315925 104.67 -0.158317 104.675C-0.0739596 104.675 0.00943181 104.693 0.0860026 104.729C0.162573 104.764 0.230466 104.816 0.284922 104.88Z" fill="#263238"/>
<path d="M2.55833 107.323C2.05321 107.33 1.55696 107.457 1.11004 107.692C0.66313 107.928 0.278216 108.265 -0.0132878 108.678C-0.184175 108.913 -0.260086 109.204 -0.225856 109.492L0.614936 114.231C0.611412 113.782 0.74758 113.342 1.00465 112.973C1.8754 111.593 3.89627 110.527 5.52224 110.591C5.98825 110.586 6.44297 110.734 6.81738 111.012L3.39264 107.639C3.37301 107.614 3.35129 107.591 3.32769 107.569C3.10786 107.4 2.8357 107.313 2.55833 107.323Z" fill="#E0E0E0"/>
<path opacity="0.1" d="M3.8712 108.991C3.243 109.001 2.62598 109.159 2.07013 109.452C1.51428 109.744 1.03525 110.164 0.671878 110.677C0.361955 111.168 0.320094 111.605 0.498678 111.933C0.677262 112.261 1.05985 112.496 1.64478 112.519C2.27296 112.512 2.89038 112.355 3.44646 112.063C4.00254 111.771 4.48145 111.351 4.84395 110.838C5.15388 110.347 5.2022 109.896 5.01788 109.561C4.83357 109.227 4.44233 109.012 3.8712 108.991Z" fill="#121313"/>
<path d="M2.55833 107.323C2.05321 107.33 1.55696 107.457 1.11004 107.692C0.66313 107.928 0.278216 108.265 -0.0132878 108.678C-0.184175 108.913 -0.260086 109.204 -0.225856 109.492L0.614936 114.231C0.611412 113.782 0.74758 113.342 1.00465 112.973C1.8754 111.593 3.89627 110.527 5.52224 110.591C5.98825 110.586 6.44297 110.734 6.81738 111.012L3.39264 107.639C3.37301 107.614 3.35129 107.591 3.32769 107.569C3.10786 107.4 2.8357 107.313 2.55833 107.323Z" fill="#E0E0E0"/>
<path d="M1.66913 106.229L4.79691 109.307C4.82365 109.336 4.8504 109.364 4.87714 109.393C5.19234 109.732 5.18913 110.253 4.82974 110.847C4.46763 111.358 3.99007 111.776 3.43592 112.067C2.88176 112.358 2.26667 112.514 1.6407 112.523C0.978355 112.499 0.555949 112.213 0.430507 111.79C0.426871 111.781 0.424541 111.771 0.423592 111.762L0.400199 111.642L-0.373188 107.284C-0.392588 107.121 -0.350441 106.956 -0.254953 106.822C-0.0894679 106.59 0.128082 106.4 0.380215 106.268C0.632347 106.135 0.912036 106.064 1.19682 106.059C1.28299 106.054 1.36932 106.066 1.45053 106.096C1.53175 106.125 1.60614 106.17 1.66913 106.229Z" fill="#FFD000"/>
<path opacity="0.1" d="M1.66913 106.229L4.79691 109.307C4.82365 109.336 4.8504 109.364 4.87714 109.393C5.19234 109.732 5.18913 110.253 4.82974 110.847C4.46763 111.358 3.99007 111.776 3.43592 112.067C2.88176 112.358 2.26667 112.514 1.6407 112.523C0.978355 112.499 0.555949 112.213 0.430507 111.79C0.426871 111.781 0.424541 111.771 0.423592 111.762L0.400199 111.642L-0.373188 107.284C-0.392588 107.121 -0.350441 106.956 -0.254953 106.822C-0.0894679 106.59 0.128082 106.4 0.380215 106.268C0.632347 106.135 0.912036 106.064 1.19682 106.059C1.28299 106.054 1.36932 106.066 1.45053 106.096C1.53175 106.125 1.60614 106.17 1.66913 106.229Z" fill="#121313"/>
<path d="M3.8712 108.991C3.243 109.001 2.62598 109.159 2.07013 109.452C1.51428 109.744 1.03525 110.164 0.671878 110.677C0.361955 111.168 0.320094 111.605 0.498678 111.933C0.677262 112.261 1.05985 112.496 1.64478 112.519C2.27296 112.512 2.89038 112.355 3.44646 112.063C4.00254 111.771 4.48145 111.351 4.84395 110.838C5.15388 110.347 5.2022 109.896 5.01788 109.561C4.83357 109.227 4.44233 109.012 3.8712 108.991Z" fill="#FFD000"/>
<path d="M3.8712 108.991C3.243 109.001 2.62598 109.159 2.07013 109.452C1.51428 109.744 1.03525 110.164 0.671878 110.677C0.361955 111.168 0.320094 111.605 0.498678 111.933C0.677262 112.261 1.05985 112.496 1.64478 112.519C2.27296 112.512 2.89038 112.355 3.44646 112.063C4.00254 111.771 4.48145 111.351 4.84395 110.838C5.15388 110.347 5.2022 109.896 5.01788 109.561C4.83357 109.227 4.44233 109.012 3.8712 108.991Z" fill="#FFD000"/>
<path opacity="0.05" d="M5.01599 109.564C5.09404 109.73 5.13006 109.913 5.12091 110.096C5.11175 110.28 5.05769 110.458 4.96347 110.616C3.58072 110.795 2.3061 111.458 1.36613 112.488C1.18786 112.471 1.01612 112.412 0.865245 112.316C0.714372 112.22 0.588743 112.089 0.498841 111.934C0.320257 111.605 0.370341 111.161 0.672041 110.677C1.03542 110.165 1.51445 109.745 2.07029 109.452C2.62614 109.159 3.24317 109.001 3.87137 108.992C4.44249 109.012 4.83197 109.221 5.01599 109.564Z" fill="#121313"/>
<path d="M1.20911 106.047C0.923858 106.052 0.643733 106.124 0.391241 106.257C0.138749 106.389 -0.0790677 106.58 -0.244711 106.812C-0.338592 106.947 -0.3793 107.111 -0.358988 107.274L0.0124845 109.381C0.0141105 109.152 0.0845608 108.929 0.214679 108.741C0.477862 108.37 0.824459 108.067 1.2265 107.855C1.62854 107.643 2.07476 107.529 2.52914 107.521C2.76874 107.518 3.00262 107.595 3.19434 107.738L1.66703 106.231C1.60694 106.171 1.53542 106.124 1.45675 106.092C1.37807 106.061 1.29386 106.045 1.20911 106.047Z" fill="#FFD000"/>
<path d="M33.1403 165.766C33.1835 165.871 33.198 165.985 33.1824 166.097C33.1668 166.21 33.1215 166.316 33.0513 166.404C32.8698 166.66 32.6304 166.869 32.3528 167.014C32.0752 167.16 31.7672 167.238 31.4538 167.241C31.3408 167.25 31.2277 167.227 31.1264 167.176C31.0252 167.125 30.9396 167.048 30.8787 166.952L25.7497 157.207C25.8158 157.284 25.8986 157.345 25.9917 157.385C26.0849 157.425 26.1859 157.444 26.2873 157.439C26.6025 157.434 26.9121 157.355 27.191 157.208C27.47 157.062 27.7105 156.851 27.893 156.594C27.9566 156.512 27.9996 156.416 28.0185 156.314C28.0375 156.211 28.0318 156.106 28.0019 156.007L33.1403 165.766Z" fill="#FAFAFA"/>
<path d="M32.5672 165.48C32.2537 165.485 31.9458 165.564 31.6683 165.71C31.3908 165.856 31.1515 166.066 30.9696 166.321C30.901 166.409 30.8569 166.513 30.8417 166.623C30.8265 166.734 30.8407 166.846 30.883 166.949C30.9426 167.045 31.0273 167.123 31.1279 167.175C31.2285 167.227 31.3412 167.25 31.454 167.242C31.7674 167.238 32.0754 167.161 32.353 167.015C32.6306 166.87 32.87 166.661 33.0515 166.405C33.1262 166.321 33.1735 166.215 33.1873 166.103C33.2011 165.991 33.1807 165.877 33.1289 165.777C33.077 165.676 32.996 165.594 32.8965 165.54C32.797 165.487 32.6837 165.464 32.5713 165.476L32.5672 165.48Z" fill="#E0E0E0"/>
<path d="M36.937 168.689L36.9599 168.714C36.9599 168.714 36.979 168.734 36.9905 168.747L38.4624 171.547L38.5088 171.634L38.526 171.653C38.7112 172.071 38.6478 172.608 38.2727 173.198C37.5008 174.429 35.6742 175.394 34.2129 175.335C33.4772 175.306 32.9732 175.027 32.7568 174.592L31.2608 171.745C31.2564 171.739 31.2513 171.734 31.2455 171.729L31.2283 171.711C31.0253 171.29 31.0874 170.734 31.469 170.131C32.2409 168.9 34.0675 167.935 35.5288 167.994C36.2104 168.035 36.7033 168.293 36.937 168.689Z" fill="#FFD000"/>
<path opacity="0.05" d="M36.937 168.689L36.9599 168.714C36.9599 168.714 36.979 168.734 36.9905 168.747L38.4624 171.547L38.5088 171.634L38.526 171.653C38.7112 172.071 38.6478 172.608 38.2727 173.198C37.5008 174.429 35.6742 175.394 34.2129 175.335C33.4772 175.306 32.9732 175.027 32.7568 174.592L31.2608 171.745C31.2564 171.739 31.2513 171.734 31.2455 171.729L31.2283 171.711C31.0253 171.29 31.0874 170.734 31.469 170.131C32.2409 168.9 34.0675 167.935 35.5288 167.994C36.2104 168.035 36.7033 168.293 36.937 168.689Z" fill="#121313"/>
<path d="M3.82657 110.156L5.96316 114.216L27.9778 155.912C27.9778 155.912 27.9778 155.912 27.9892 155.924L28.0357 156.011C28.0656 156.111 28.0713 156.216 28.0523 156.318C28.0334 156.42 27.9903 156.517 27.9267 156.599C27.7443 156.857 27.5033 157.069 27.2235 157.216C26.9438 157.364 26.6332 157.443 26.317 157.447C26.2161 157.452 26.1154 157.434 26.0226 157.394C25.9298 157.354 25.8473 157.294 25.7813 157.217L25.7238 157.106L3.72522 115.406L1.58276 111.344C1.5405 111.241 1.52625 111.129 1.54146 111.018C1.55667 110.908 1.6008 110.804 1.66936 110.716C1.93422 110.34 2.32199 110.067 2.76594 109.946C2.8244 109.927 2.884 109.911 2.9444 109.899C3.05078 109.88 3.1589 109.872 3.26697 109.875C3.37655 109.869 3.48572 109.892 3.58381 109.942C3.6819 109.991 3.76554 110.065 3.82657 110.156Z" fill="#455A64"/>
<path d="M27.4499 155.685C27.1364 155.69 26.8284 155.769 26.5509 155.915C26.2734 156.061 26.0341 156.271 25.8523 156.526C25.7837 156.614 25.7396 156.718 25.7244 156.829C25.7092 156.939 25.7234 157.051 25.7657 157.154C25.826 157.25 25.9111 157.328 26.012 157.379C26.113 157.43 26.2259 157.453 26.3388 157.445C26.6524 157.443 26.9609 157.366 27.2385 157.22C27.5161 157.074 27.7547 156.864 27.9344 156.606C28.0057 156.518 28.0516 156.412 28.0673 156.3C28.083 156.187 28.0678 156.073 28.0233 155.968C27.9612 155.875 27.8754 155.799 27.7747 155.75C27.674 155.7 27.562 155.678 27.4499 155.685Z" fill="#263238"/>
<path d="M3.82649 110.156L4.14942 110.771C3.32243 111.005 2.55383 111.409 1.8937 111.959L1.56681 111.344C1.52455 111.241 1.51029 111.128 1.5255 111.018C1.54071 110.908 1.58484 110.803 1.65341 110.715C1.91826 110.339 2.30604 110.067 2.74999 109.945C2.90912 109.89 3.07689 109.864 3.24528 109.868C3.35906 109.86 3.4731 109.882 3.57539 109.932C3.67767 109.983 3.76443 110.06 3.82649 110.156Z" fill="#263238"/>
<path d="M37.1682 170.613C35.5442 170.552 33.5214 171.615 32.6506 172.995C32.2244 173.678 32.1537 174.307 32.3971 174.763C32.6405 175.219 33.19 175.559 34.0168 175.591C35.6405 175.664 37.6613 174.599 38.5321 173.219C38.9686 172.526 39.0396 171.889 38.7768 171.421C38.514 170.952 37.9752 170.645 37.1682 170.613Z" fill="#E0E0E0"/>
<path d="M37.3232 170.941C35.6991 170.88 33.6763 171.943 32.8056 173.323C32.3794 174.006 32.3087 174.635 32.5418 175.101L32.5571 175.117L32.8816 175.743C32.8919 175.751 32.9009 175.76 32.9084 175.771C32.9332 175.798 32.958 175.825 32.9685 175.865C32.9991 175.904 33.033 175.94 33.0697 175.974C33.0907 175.996 33.1117 176.019 33.1347 176.044C33.1353 176.047 33.1367 176.049 33.1387 176.051C33.1408 176.054 33.1433 176.055 33.1461 176.056C33.1647 176.082 33.1865 176.106 33.2111 176.126C33.3232 176.219 33.4482 176.295 33.582 176.352C33.6213 176.371 33.6618 176.387 33.7034 176.4C33.7232 176.41 33.7443 176.418 33.7661 176.422C33.8019 176.436 33.8387 176.447 33.8762 176.454C34.0822 176.511 34.2944 176.543 34.5081 176.549C36.1301 176.612 38.1508 175.551 39.0194 174.177C39.2441 173.84 39.3787 173.451 39.4103 173.047C39.4129 172.995 39.4115 172.942 39.4062 172.89L39.3878 172.743C39.3826 172.713 39.3757 172.683 39.3672 172.654L39.3533 172.598C39.3407 172.564 39.3301 172.528 39.3135 172.494L39.2982 172.477C39.2753 172.452 39.2709 172.411 39.2522 172.378L38.9684 171.834C38.9597 171.806 38.9473 171.781 38.9315 171.757C38.7051 171.27 38.1481 170.971 37.3232 170.941Z" fill="#FFD000"/>
<path opacity="0.3" d="M37.6557 171.562C36.0337 171.498 34.0108 172.566 33.1402 173.941C32.7139 174.629 32.6452 175.256 32.8867 175.709C33.1282 176.163 33.6796 176.505 34.5064 176.537C36.1261 176.611 38.149 175.543 39.0196 174.167C39.4561 173.474 39.5252 172.835 39.2643 172.369C39.0034 171.903 38.4628 171.593 37.6557 171.562Z" fill="white"/>
<path d="M34.5277 147.629C34.8095 149.015 34.7326 150.45 34.3044 151.798C35.7504 161.871 26.5 152.5 22.9891 142.424C22.8318 141.351 21.5779 140.334 20.4076 139.386C19.568 138.705 18.7715 138.06 18.4539 137.453C18.1 136.94 17.9449 136.315 18.0175 135.696C18.09 135.077 18.3854 134.506 18.8483 134.088C19.3504 133.638 20.9673 134.995 22.5243 136.301C23.389 137.027 24.2351 137.737 24.8617 138.113C27.7806 139.576 30.4292 141.525 32.6944 143.877C33.6149 144.951 34.246 146.242 34.5277 147.629Z" fill="#FFBF9D"/>
<path d="M171.535 176.654L199.322 150.687C199.921 150.128 199.953 149.188 199.393 148.589L183.969 132.085C183.409 131.486 182.47 131.454 181.871 132.014L154.084 157.981C153.485 158.54 153.454 159.479 154.013 160.078L169.437 176.583C169.997 177.182 170.936 177.214 171.535 176.654Z" fill="#FFD000"/>
<path opacity="0.7" d="M171.636 174.346L197.011 150.632C197.545 150.133 197.574 149.295 197.075 148.761L183.641 134.386C183.142 133.852 182.304 133.824 181.77 134.323L156.395 158.036C155.86 158.535 155.832 159.373 156.331 159.907L169.765 174.282C170.264 174.816 171.102 174.845 171.636 174.346Z" fill="white"/>
<path d="M182.52 135.942L181.283 151.139L170.718 151.451L174.816 152.315L176.784 164.468L157.958 158.895L182.52 135.942Z" fill="#FAFAFA"/>
<path d="M185.187 153.365C185.963 154.721 187.691 155.191 189.047 154.415C190.403 153.639 190.873 151.911 190.097 150.555C189.321 149.199 187.593 148.729 186.237 149.505C184.881 150.281 184.411 152.009 185.187 153.365Z" fill="#FAFAFA"/>
<path d="M175.06 140.424C175.218 139.351 176.471 138.334 177.642 137.386C178.481 136.705 179.278 136.06 179.595 135.453C179.949 134.94 180.104 134.315 180.032 133.696C179.959 133.077 179.664 132.506 179.201 132.088C178.699 131.638 177.082 132.995 175.525 134.301C174.66 135.027 173.814 135.737 173.188 136.113C170.269 137.576 167.62 139.525 165.355 141.877C157.393 151.167 171.916 152.547 175.06 140.424Z" fill="#FFBF9D"/>
</g>
<defs>
<clipPath id="clip0_550_26765">
<rect width="200" height="200" fill="white"/>
</clipPath>
</defs>
</svg>
