<svg width="200" height="200" viewBox="0 0 200 200" fill="none" xmlns="http://www.w3.org/2000/svg">
<path fill-rule="evenodd" clip-rule="evenodd" d="M95.3511 40.0786C119.484 41.5624 131.191 65.3973 145.943 82.1754C157.899 95.7741 168.961 109.409 171.286 126.445C173.971 146.122 175.558 168.605 159.663 182.721C143.717 196.882 117.964 195.809 95.3511 193.883C72.1366 194.322 53.3796 187.342 42.4481 172.737C26.9316 160.174 13.0786 144.922 12.0648 126.445C11.0113 107.244 22.9446 90.1752 37.1121 75.4837C52.9597 59.05 70.8381 38.5713 95.3511 40.0786Z" fill="#FFF3CC"/>
<path d="M92.0601 44.8647L92.9295 44.8164C97.1236 44.5763 101.254 45.9237 104.5 48.5907C107.746 51.2577 109.869 55.0488 110.446 59.2099C111.557 67.2599 108.823 69.6774 109 74.0002C109.411 82.968 102.184 88.5002 102.184 88.5002L104.707 94.952C104.833 96.3825 104.674 97.8237 104.241 99.1929C103.809 100.562 103.109 101.832 102.184 102.93C101.259 104.029 100.125 104.933 98.8495 105.592C97.5735 106.251 96.1799 106.651 94.7488 106.769C91.8972 106.998 89.07 106.096 86.8772 104.259C84.6845 102.422 83.302 99.796 83.028 96.9484L79.808 63.6937C78.5039 54.4362 82.7704 45.9515 92.0601 44.8647Z" fill="#FFBF9D"/>
<path d="M102 88.5007C97.8507 88.7417 93.6289 87.6491 90 85.6777C90 85.6777 94.1185 91.7827 103 90.5007L102 88.5007Z" fill="#FF9A6C"/>
<path d="M95.996 68.3284C96.0248 68.7349 95.8978 69.1368 95.6425 69.447C95.3872 69.7572 95.0242 69.9508 94.632 69.9858C94.4413 70.0133 94.2472 70.0008 94.0612 69.9492C93.8752 69.8975 93.7011 69.8078 93.5492 69.6852C93.3973 69.5627 93.2706 69.4099 93.1768 69.2358C93.083 69.0617 93.0238 68.8698 93.0028 68.6716C92.9789 68.2663 93.1076 67.8672 93.362 67.5581C93.6163 67.249 93.9765 67.054 94.3668 67.0142C94.5575 66.9867 94.7516 66.9992 94.9376 67.0509C95.1236 67.1025 95.2977 67.1922 95.4496 67.3148C95.6015 67.4373 95.7282 67.5901 95.822 67.7642C95.9158 67.9383 95.975 68.1302 95.996 68.3284Z" fill="#263238"/>
<path d="M108.788 63.701C108.635 63.8781 107.629 63.21 106.252 63.2985C104.876 63.3871 103.902 64.1035 103.749 63.9667C103.596 63.8298 103.813 63.5883 104.232 63.2422C104.804 62.793 105.501 62.5316 106.228 62.4935C106.943 62.4539 107.653 62.6397 108.257 63.0248C108.683 63.3227 108.844 63.6125 108.788 63.701Z" fill="#263238"/>
<path d="M107.997 68.3284C108.021 68.7337 107.892 69.1328 107.638 69.4419C107.384 69.751 107.023 69.946 106.633 69.9858C106.442 70.0133 106.248 70.0008 106.062 69.9491C105.876 69.8975 105.702 69.8078 105.55 69.6852C105.398 69.5627 105.271 69.4099 105.177 69.2358C105.084 69.0617 105.024 68.8698 105.003 68.6716C104.977 68.2657 105.105 67.8652 105.36 67.5556C105.615 67.2459 105.976 67.0516 106.368 67.0142C106.558 66.9867 106.753 66.9992 106.939 67.0509C107.125 67.1025 107.299 67.1922 107.451 67.3148C107.603 67.4373 107.729 67.5901 107.823 67.7642C107.917 67.9383 107.976 68.1302 107.997 68.3284Z" fill="#263238"/>
<path d="M95.256 64.7316C95.1111 64.9087 94.0968 64.2486 92.7202 64.3291C91.3437 64.4096 90.3777 65.1341 90.2167 64.9973C90.0557 64.8604 90.2811 64.6189 90.7077 64.2728C91.2758 63.8278 91.9674 63.5691 92.688 63.5322C93.4038 63.4864 94.1152 63.6727 94.7166 64.0635C95.1674 64.3613 95.3284 64.6511 95.256 64.7316Z" fill="#263238"/>
<path d="M100.835 74.6567C101.546 74.3823 102.29 74.201 103.049 74.1173C103.403 74.061 103.725 73.9724 103.773 73.7309C103.785 73.3658 103.684 73.0059 103.483 72.7005C103.097 71.8955 102.678 71.002 102.284 70.0843C100.626 66.3571 99.4019 63.29 99.5468 63.2256C99.6917 63.1612 101.157 66.1237 102.831 69.8508C103.234 70.7685 103.636 71.646 103.982 72.4832C104.225 72.8956 104.318 73.3786 104.248 73.8517C104.204 73.9799 104.132 74.0961 104.035 74.1911C103.939 74.2862 103.821 74.3574 103.693 74.3991C103.503 74.4654 103.305 74.506 103.105 74.5198C102.356 74.6547 101.594 74.7006 100.835 74.6567Z" fill="#263238"/>
<path d="M95.359 60.4005C95.2383 60.7788 93.8537 60.6822 92.2517 60.972C90.6498 61.2618 89.3698 61.777 89.1364 61.447C89.0317 61.294 89.241 60.9318 89.7401 60.5373C90.4173 60.0516 91.1963 59.7266 92.0179 59.5871C92.8395 59.4476 93.6821 59.4973 94.4816 59.7323C95.0853 59.9416 95.4073 60.2153 95.359 60.4005Z" fill="#263238"/>
<path d="M108.086 60.827C107.869 61.149 106.903 60.8833 105.76 60.9316C104.617 60.9799 103.667 61.2617 103.425 60.9316C103.321 60.7787 103.425 60.4567 103.852 60.1266C104.397 59.7358 105.049 59.5197 105.72 59.5068C106.392 59.4784 107.056 59.6614 107.619 60.03C108.038 60.352 108.191 60.666 108.086 60.827Z" fill="#263238"/>
<path d="M109.344 55.1525C109.344 55.1525 106.663 49.6784 103.878 48.5192C100.513 47.1266 99.3133 50.8054 96.1416 50.1292C92.9699 49.453 89.7579 48.1006 86.707 50.6927C83.3743 53.5344 85.097 55.2974 85.097 59.2821C85.1453 75.4385 82.4646 80.1639 81.1927 72.629C81.0559 71.824 78.7052 71.2686 78.1659 67.799C77.4575 63.2749 76.9664 57.7526 77.7956 54.4602C78.4959 51.6909 79.9369 49.7187 82.6256 47.4808C86.8358 43.9549 92.8652 43.5363 96.9949 43.7134C101.125 43.8905 109.319 48.1006 109.344 55.1525Z" fill="#263238"/>
<path d="M81.7803 72.3236C81.7532 71.9929 81.6583 71.6713 81.5014 71.3788C81.3446 71.0864 81.1291 70.8295 80.8685 70.624C80.6079 70.4185 80.3078 70.269 79.9868 70.1847C79.6658 70.1004 79.331 70.0831 79.003 70.134C77.3447 70.3916 75.5415 71.4462 75.8474 74.8916C76.3948 81.0016 82.4162 79.1903 82.4162 79.0132C82.4162 78.8361 82.0298 74.8835 81.7803 72.3236Z" fill="#FFBF9D"/>
<path d="M80.8948 76.8303C80.8948 76.8303 80.7982 76.9188 80.6211 77.0154C80.3742 77.1475 80.0858 77.1793 79.8161 77.104C79.156 76.9269 78.52 75.9448 78.3912 74.85C78.3275 74.3266 78.3825 73.7955 78.5522 73.2963C78.5923 73.1011 78.6792 72.9186 78.8054 72.7643C78.9316 72.6101 79.0933 72.4888 79.2767 72.4108C79.3957 72.3686 79.5255 72.3688 79.6444 72.4113C79.7632 72.4538 79.8637 72.5361 79.9288 72.6443C80.0334 72.8053 80.0012 72.934 80.0334 72.9421C80.0656 72.9501 80.1542 72.8294 80.0817 72.5798C80.0362 72.4305 79.9392 72.3022 79.808 72.2176C79.6284 72.1045 79.4114 72.0669 79.2043 72.1129C78.9589 72.1861 78.7363 72.3205 78.5574 72.5036C78.3785 72.6868 78.2493 72.9125 78.1819 73.1595C77.9686 73.7126 77.894 74.3096 77.9646 74.8983C78.1175 76.1299 78.8501 77.2247 79.7517 77.4018C79.9198 77.4353 80.0934 77.4302 80.2593 77.387C80.4252 77.3438 80.5792 77.2635 80.7096 77.1523C80.8948 76.9832 80.9189 76.8464 80.8948 76.8303Z" fill="#FF9A6C"/>
<path d="M110.648 48.5191C109.706 47.8107 108.41 47.7141 107.476 46.9977C103.316 43.8042 96.6129 37.7091 90.8888 40.8959C88.7107 42.1085 85.9615 42.2125 84.0181 43.6006C83.4528 44.0475 82.9874 44.608 82.6519 45.2458C82.3164 45.8835 82.1182 46.5845 82.07 47.3036C82.07 47.3036 81.4341 46.9816 79.5021 48.5111C78.2704 49.4851 77.2642 51.5862 76.8134 53.0835C76.1452 55.3294 77.1193 57.6962 78.0772 59.8294C78.5924 60.9806 79.2364 62.2444 80.4359 62.655C81.8929 63.146 83.5029 62.0029 84.0745 60.57C84.646 59.1371 85.5476 57.6962 86.2399 56.3196C87.4474 53.9046 88.6549 51.6989 87.6648 50.1694C90.93 49.1089 93.0942 51.0056 95.9966 52.0289C97.2173 52.4594 102.143 53.276 103.5 52.9513C103.939 52.8464 104.349 52.6439 104.699 52.359C105.252 53.2599 106.124 53.9194 107.141 54.2059C108.159 54.4923 109.247 54.3848 110.189 53.9046C112.008 52.7776 112.33 49.791 110.648 48.5191Z" fill="#263238"/>
<path d="M77.4653 58.3875C77.7478 58.8294 77.9852 59.2987 78.1737 59.7882C78.3945 60.2826 78.7415 60.7102 79.18 61.0279C79.7661 61.3278 80.4411 61.405 81.0798 61.2452C81.7438 61.1164 82.3707 60.8414 82.9152 60.4402C83.3543 60.0994 83.7539 59.7106 84.1066 59.281C84.4148 58.8596 84.7568 58.4638 85.129 58.0977C84.9327 58.5852 84.6611 59.0388 84.324 59.442C83.9868 59.9161 83.5859 60.3413 83.1325 60.7059C82.5515 61.1447 81.8763 61.4424 81.1603 61.5753C80.4348 61.7551 79.6679 61.6484 79.019 61.2774C78.5341 60.9224 78.1645 60.4324 77.9564 59.8687C77.7324 59.397 77.5674 58.8995 77.4653 58.3875Z" fill="#B9B8B6"/>
<path d="M77.6989 63.1146C78.0674 63.394 78.474 63.619 78.9065 63.7828C79.3769 63.9318 79.8743 63.9757 80.3635 63.9116C80.9641 63.8203 81.5379 63.6007 82.046 63.2676C82.9688 62.6266 83.7521 61.805 84.3483 60.8526C84.5759 60.4394 84.8457 60.0509 85.1533 59.6934C85.0124 60.1539 84.8035 60.5907 84.5334 60.9894C83.9864 62.0378 83.1937 62.9383 82.2231 63.6137C81.6703 63.9795 81.0384 64.2085 80.3796 64.2819C79.8332 64.342 79.2805 64.2674 78.7696 64.0645C77.9485 63.6701 77.6587 63.1227 77.6989 63.1146Z" fill="#B9B8B6"/>
<path d="M96.7029 79.6289C96.4969 79.9662 96.3821 80.3164 96.3615 80.6697C96.3372 80.8368 96.3835 81.0047 96.4972 81.1618C96.6109 81.319 96.7894 81.4618 97.0205 81.5804C97.2599 81.7262 97.5589 81.8432 97.8964 81.9233C98.2338 82.0034 98.6015 82.0446 98.9734 82.0439C99.6443 82.0432 100.293 81.92 100.802 81.6964C101.311 81.4729 101.648 81.1636 101.752 80.8242L101.99 80.0558C100.601 79.8525 96.8061 79.6818 96.7029 79.6289Z" fill="#FF9A6C"/>
<path d="M100.948 81.1252C100.948 81.1252 100.753 81.1252 100.431 81.1411C99.9786 81.163 99.5184 81.163 99.0662 81.1411C98.4134 81.1089 97.8233 81.0007 97.4135 80.8381C96.9255 80.6348 96.6932 80.3822 96.7609 80.1285C96.7805 79.9858 96.8991 79.8462 97.1084 79.7193L96.9049 79.7485C98.3542 79.8176 99.6256 79.8734 100.524 79.9053C101.007 79.9336 101.499 79.9452 101.99 79.9399C101.532 79.884 101.054 79.8465 100.566 79.8282C99.668 79.7751 98.4136 79.7033 96.9643 79.6289H96.8287L96.7693 79.6661C96.4444 79.8636 96.3061 80.086 96.3707 80.3073C96.4353 80.5286 96.7 80.7395 97.1338 80.9152C97.6097 81.0951 98.291 81.2096 99.0323 81.2341C99.514 81.2474 99.9994 81.233 100.465 81.1916C100.639 81.1806 100.804 81.1579 100.948 81.1252Z" fill="#263238"/>
<path d="M60.4879 106.576C59.9566 106.576 52.3735 109.603 50.3771 117.041C48.3807 124.479 42.9308 151.769 42.9308 151.769L37.1428 159.787C37.1428 159.787 39.0185 174.414 49.6526 171.628C49.6526 171.628 56.7527 172.868 59.0147 165.671C61.2768 158.475 65.6641 137.005 65.6641 137.005L60.4879 106.576Z" fill="#B9B8B6"/>
<path d="M60.4879 106.576C59.9566 106.576 52.3735 109.603 50.3771 117.041C48.3807 124.479 42.9308 151.769 42.9308 151.769L37.1428 159.787C37.1428 159.787 39.0185 174.414 49.6526 171.628C49.6526 171.628 56.7527 172.868 59.0147 165.671C61.2768 158.475 65.6641 137.005 65.6641 137.005L60.4879 106.576Z" fill="white"/>
<path d="M82.1472 94L78.1204 100.196L60 106.752L65.1865 160.234L63.2697 188.228C80 197.5 124.262 195.715 127 194.5C128.425 194.459 128.681 191.408 128.914 189.425C129.115 187.645 128.962 185.841 128.463 184.123L125.459 173.403C125.902 180.074 123.937 133.607 123.848 131.911L128.238 108.006L107.621 99.5154L104.399 94.5081L95.1215 101.687L82.1472 94Z" fill="#B9B8B6"/>
<path d="M85 104.5L78.1204 100.196L60 106.752L65.1865 160.234L63.2697 188.228C80 197.5 124.262 195.715 127 194.5C128.425 194.459 128.681 191.408 128.914 189.425C129.115 187.645 128.962 185.841 128.463 184.123L125.459 173.403C125.902 180.074 123.937 133.607 123.848 131.911L128.238 108.006L108.5 99.5L103.5 105L107.621 195.482L88.9644 194.5L85 104.5Z" fill="white"/>
<path d="M128.664 107.84C128.664 107.84 132.809 111.478 133.494 114.28C134.178 117.081 149.087 149.354 149.087 149.354L156.493 151.35L158.473 155.456C159.63 157.81 159.941 160.49 159.355 163.047C158.768 165.603 157.32 167.88 155.253 169.495C154.995 169.69 154.727 169.871 154.448 170.034C150.423 172.449 143.258 172.321 139.064 167.378C135.096 162.693 123.479 145.852 123.479 145.852V125.244L128.664 107.84Z" fill="#B9B8B6"/>
<path d="M128.664 107.84C128.664 107.84 132.809 111.478 133.494 114.28C134.178 117.081 149.087 149.354 149.087 149.354L156.493 151.35L158.473 155.456C159.63 157.81 159.941 160.49 159.355 163.047C158.768 165.603 157.32 167.88 155.253 169.495C154.995 169.69 154.727 169.871 154.448 170.034C150.423 172.449 143.258 172.321 139.064 167.378C135.096 162.693 123.479 145.852 123.479 145.852V125.244L128.664 107.84Z" fill="white"/>
<path d="M152.95 152.59L163.601 146.303L168.737 152.59L167.674 155.633L153.941 165.848C152.236 164.457 151.092 162.495 150.721 160.326C150.117 156.486 152.95 152.59 152.95 152.59Z" fill="#FFBF9D"/>
<path d="M149.569 149.337C149.569 149.442 148.66 149.337 147.324 149.788C145.597 150.385 144.068 151.446 142.904 152.855C141.754 154.295 140.806 155.885 140.087 157.581C139.815 158.307 139.478 159.008 139.08 159.674C139.188 158.901 139.405 158.147 139.724 157.436C140.357 155.646 141.291 153.977 142.485 152.501C143.707 151.009 145.361 149.932 147.219 149.418C147.979 149.167 148.794 149.139 149.569 149.337Z" fill="#263238"/>
<path d="M163.424 149.789C163.158 148.399 163.253 146.964 163.7 145.621C164.147 144.277 164.93 143.071 165.976 142.117C168.49 140.049 171.334 138.416 174.388 137.287C176.255 136.482 180.144 133.206 180.828 133.995C181.512 134.784 181.818 135.959 180.828 137.392C179.838 138.825 174.211 140.958 175 142.769C175.322 143.502 177.093 143.639 177.093 143.639C180.307 143.865 183.531 143.929 186.753 143.832C189.602 143.582 192.162 144.13 192.009 145.112C191.856 146.094 191.325 146.633 188.966 146.834C186.608 147.036 182.768 146.883 182.526 147.422C182.285 147.961 183.122 148.308 184.499 148.227C185.875 148.147 192.363 148.122 192.806 148.863C192.914 149.051 192.979 149.261 192.996 149.477C193.013 149.692 192.981 149.91 192.904 150.112C192.827 150.314 192.706 150.497 192.55 150.648C192.394 150.798 192.207 150.911 192.001 150.98L190.48 151.52C190.48 151.52 191.365 152.751 190.625 153.435C189.884 154.12 188.21 153.878 188.21 153.878L179.604 153.637C179.604 153.637 179.113 154.152 179.355 154.506C179.596 154.86 186.342 154.369 186.39 155.11C186.439 155.85 187.026 156.189 185.014 156.72C182.066 157.211 179.058 157.211 176.11 156.72C174.291 156.221 166.668 155.915 166.668 155.915L163.424 149.789Z" fill="#FFBF9D"/>
<path d="M46.4649 153.709L36.507 145.449L30.7915 151.889L31.4919 155.037L43.9372 166.758C45.7822 165.7 47.1744 164.001 47.8495 161.984C49.0892 158.434 46.4649 153.709 46.4649 153.709Z" fill="#FFBF9D"/>
<path d="M36.3943 149.747C36.8225 148.399 36.8994 146.964 36.6176 145.578C36.3359 144.192 35.7048 142.9 34.7843 141.826C32.5191 139.475 29.8704 137.526 26.9516 136.062C25.1967 135.008 21.7191 131.337 20.9382 132.037C20.4752 132.455 20.1799 133.026 20.1074 133.646C20.0348 134.265 20.1899 134.889 20.5438 135.402C21.3488 136.94 25.2289 138.727 25.092 140.699C25.0778 140.89 25.026 141.076 24.9398 141.247C24.8536 141.418 24.7346 141.57 24.5896 141.695C24.4446 141.82 24.2764 141.915 24.0946 141.975C23.9129 142.034 23.7211 142.058 23.5303 142.044C20.3183 141.896 17.1157 141.587 13.9347 141.118C11.1252 140.538 8.52508 140.78 8.55728 141.77C8.58948 142.76 9.06443 143.38 11.3828 143.839C13.7012 144.298 17.5331 144.644 17.6619 145.167C17.7907 145.69 16.9776 145.972 15.6171 145.722C14.2567 145.473 7.81668 144.708 7.29343 145.392C7.16372 145.564 7.07381 145.763 7.03018 145.974C6.98654 146.185 6.99027 146.403 7.04109 146.613C7.09191 146.822 7.18855 147.018 7.32406 147.185C7.45957 147.353 7.63057 147.488 7.82473 147.582L9.27373 148.298C9.27373 148.298 8.25138 149.417 8.90343 150.182C9.55548 150.947 11.246 150.907 11.246 150.907L19.8273 151.663C19.8273 151.663 20.254 152.235 19.9642 152.557C19.6744 152.879 13.0492 151.607 12.9123 152.34C12.7755 153.072 12.1476 153.338 14.0957 154.062C16.9698 154.895 19.9619 155.246 22.9507 155.101C24.8183 154.819 32.4336 155.366 32.4336 155.366L36.3943 149.747Z" fill="#FFBF9D"/>
<path d="M107.54 101.006C107.002 101.678 106.404 102.301 105.753 102.865C104.618 103.976 103.065 105.53 101.422 107.301C101.076 107.679 100.73 108.05 100.408 108.412L100.191 108.645L99.9894 108.396C98.7175 106.786 97.6146 105.305 96.8418 104.25C96.3881 103.714 96.0015 103.125 95.6907 102.495C96.225 102.952 96.7058 103.468 97.1236 104.033C97.9688 105.031 99.128 106.448 100.416 108.058H100.005L101.012 106.939C102.426 105.41 103.92 103.956 105.488 102.584C106.105 101.976 106.794 101.446 107.54 101.006Z" fill="#263238"/>
<path d="M61.623 120.502C61.771 120.857 61.8711 121.231 61.9209 121.613C62.0738 122.337 62.267 123.392 62.4763 124.696C62.8949 127.304 63.3377 130.927 63.708 134.936C64.0783 138.945 64.352 142.583 64.5613 145.216C64.6418 146.439 64.7223 147.478 64.7786 148.331C64.8291 148.713 64.8291 149.1 64.7786 149.482C64.6638 149.115 64.5882 148.738 64.5532 148.355C64.4405 147.622 64.3037 146.56 64.1588 145.248C63.8529 142.631 63.5148 139.001 63.1445 134.992C62.7742 130.983 62.4119 127.369 62.098 124.793C61.945 123.577 61.8162 122.539 61.7116 121.693C61.6284 121.302 61.5986 120.901 61.623 120.502Z" fill="#263238"/>
<path d="M124.606 118.676C124.721 119.132 124.789 119.599 124.808 120.068C124.896 120.978 124.993 122.282 125.073 123.908C125.258 127.128 125.347 131.636 125.363 136.579V153.09C125.389 153.56 125.37 154.032 125.307 154.498C125.202 154.039 125.151 153.569 125.154 153.098C125.089 152.188 125.025 150.876 124.977 149.258C124.864 146.038 124.824 141.53 124.816 136.587C124.808 131.644 124.767 127.161 124.687 123.924C124.647 122.387 124.614 121.099 124.59 120.085C124.552 119.615 124.557 119.144 124.606 118.676Z" fill="#263238"/>
<path d="M53.4522 165.123C53.2003 164.209 53.0147 163.279 52.8968 162.338C52.5196 160.092 51.7915 157.918 50.7394 155.898C49.6657 153.917 48.0523 152.282 46.0865 151.181C45.2411 150.777 44.3666 150.438 43.4702 150.166C43.7354 150.109 44.01 150.109 44.2752 150.166C44.9726 150.283 45.6502 150.497 46.2877 150.802C48.4029 151.857 50.1364 153.546 51.2465 155.632C52.3118 157.706 52.9884 159.957 53.2429 162.274C53.4324 163.211 53.5027 164.168 53.4522 165.123Z" fill="#263238"/>
<path d="M56.0364 154.248C55.9237 154.377 54.3217 152.727 51.7135 151.833C49.1053 150.94 46.8835 151.246 46.8352 151.077C46.7869 150.908 49.1456 150.36 51.8906 151.318C54.6357 152.276 56.1571 154.184 56.0364 154.248Z" fill="#263238"/>
<path d="M96.8901 191.656C96.8413 191.358 96.8197 191.057 96.8257 190.755C96.8257 190.119 96.8257 189.258 96.7693 188.179C96.721 185.885 96.6566 182.657 96.5761 178.688C96.391 170.638 96.1334 159.585 95.8436 147.381C95.5538 135.177 95.4008 124.076 95.4169 116.059C95.4169 112.034 95.4572 108.814 95.5055 106.56C95.5055 105.481 95.5618 104.62 95.586 103.984C95.5792 103.682 95.6008 103.38 95.6504 103.082C95.6728 103.382 95.6728 103.684 95.6504 103.984C95.6504 104.62 95.6504 105.481 95.6504 106.56C95.6504 108.854 95.6987 112.09 95.7309 116.051C95.8114 124.101 96.0448 135.137 96.3185 147.365C96.5922 159.593 96.8337 170.662 96.8981 178.68C96.8981 182.705 96.8981 185.925 96.8981 188.179C96.8981 189.258 96.8981 190.119 96.8579 190.755C96.8892 191.054 96.8999 191.356 96.8901 191.656Z" fill="#263238"/>
<path d="M45.9979 153.37C45.9979 153.305 46.8029 153.909 47.4469 155.246C47.8415 156.007 48.1287 156.82 48.3002 157.661C48.4655 158.728 48.4655 159.814 48.3002 160.881C48.18 161.949 47.8634 162.986 47.3664 163.94C46.936 164.713 46.3427 165.383 45.6276 165.904C44.9987 166.426 44.2068 166.71 43.3896 166.709C44.0971 166.416 44.7673 166.041 45.3861 165.59C46.0209 165.069 46.5439 164.426 46.9236 163.698C47.3544 162.788 47.6266 161.81 47.7286 160.808C47.8735 159.804 47.8735 158.785 47.7286 157.781C47.5903 156.952 47.3553 156.141 47.0283 155.366C46.5292 154.086 45.9174 153.418 45.9979 153.37Z" fill="#263238"/>
<path d="M155.937 166.967C155.937 166.967 155.679 166.967 155.269 166.765C154.693 166.511 154.151 166.184 153.659 165.791C151.972 164.492 150.818 162.621 150.415 160.531C150.012 158.44 150.387 156.274 151.469 154.441C151.785 153.89 152.169 153.381 152.612 152.927C152.926 152.621 153.128 152.476 153.152 152.501C153.176 152.525 152.508 153.249 151.807 154.626C150.871 156.407 150.569 158.453 150.951 160.428C151.333 162.404 152.376 164.19 153.908 165.493C155.06 166.508 155.977 166.878 155.937 166.967Z" fill="#263238"/>
<path d="M176.408 140.41C176.473 140.475 176.006 140.917 175.418 141.698C175.08 142.145 174.846 142.662 174.734 143.212C174.605 143.831 174.621 144.556 174.509 145.353C174.413 146.037 174.182 146.695 173.829 147.29C173.477 147.884 173.01 148.402 172.456 148.814C172.032 149.196 171.495 149.428 170.926 149.474C170.886 149.386 171.482 149.161 172.214 148.508C173.157 147.673 173.778 146.534 173.969 145.288C174.022 144.56 174.114 143.834 174.243 143.115C174.397 142.515 174.695 141.963 175.112 141.505C175.45 141.042 175.895 140.666 176.408 140.41Z" fill="#FF9A6C"/>
<path d="M21.1394 148.879C21.1394 149.024 18.4588 149.169 15.1502 149.008C11.8417 148.847 9.18514 148.46 9.20124 148.307C9.21734 148.155 11.8819 148.307 15.1744 148.46C18.4668 148.613 21.1394 148.718 21.1394 148.879Z" fill="#FF9A6C"/>
<path d="M27.2332 148.42C27.2332 148.477 26.5973 148.372 25.8406 147.736C25.3505 147.31 24.9606 146.781 24.699 146.187C24.4374 145.592 24.3104 144.948 24.3272 144.299C24.3845 143.612 24.5085 142.933 24.6975 142.27C24.8384 141.745 24.9061 141.203 24.8987 140.66C24.8525 140.175 24.7415 139.699 24.5687 139.243C24.5687 139.187 25.1563 139.613 25.2851 140.628C25.3502 141.198 25.3175 141.775 25.1885 142.334C25.037 142.973 24.9321 143.621 24.8746 144.274C24.8575 145.442 25.2998 146.569 26.1062 147.414C26.7261 148.138 27.2735 148.34 27.2332 148.42Z" fill="#FF9A6C"/>
<path d="M177.906 150.328C177.906 150.175 180.779 150.288 184.289 150.578C187.799 150.867 190.641 151.238 190.633 151.383C190.625 151.528 187.759 151.423 184.249 151.125C180.739 150.827 177.897 150.473 177.906 150.328Z" fill="#FF9A6C"/>
<path d="M95.0386 101.971C94.717 103.043 94.3106 104.087 93.823 105.095C93.6057 105.578 93.3803 106.101 93.1468 106.64C92.9159 107.255 92.6471 107.854 92.3418 108.435C92.2256 108.626 92.0566 108.78 91.8552 108.877C91.6538 108.974 91.4286 109.011 91.2068 108.983C90.8168 108.88 90.4541 108.693 90.1442 108.435L88.2444 107.139C85.6522 105.352 83.3258 103.702 81.6514 102.494C80.7152 101.882 79.832 101.193 79.011 100.434C80.0083 100.936 80.9639 101.518 81.8687 102.172C83.5995 103.307 85.9662 104.893 88.5583 106.688L90.4501 107.993C90.6968 108.206 90.9844 108.368 91.2953 108.468C91.4222 108.483 91.5508 108.459 91.6642 108.401C91.7776 108.342 91.8707 108.25 91.9313 108.137C92.5431 107.027 93.0502 105.827 93.5413 104.917C93.9576 103.895 94.4584 102.91 95.0386 101.971Z" fill="#263238"/>
<path d="M78 100L85 104L89 195L86.4286 136.5L82.5 118.5L78 108L81 106L78 100Z" fill="#D9D9D9"/>
<path d="M108.5 98.9994L103.314 104.559L106.774 195.581L105 136.499L106.992 118.806L110.618 107.973L107.464 106.225L108.5 98.9994Z" fill="#D9D9D9"/>
<path d="M162 145.333C162.005 144.654 162.219 143.993 162.613 143.44L172.363 129.21V116.893H179.6V129.21L189.313 143.427C189.704 143.982 189.918 144.642 189.926 145.321C189.926 145.352 189.926 145.382 189.926 145.413C189.926 145.48 189.926 145.554 189.926 145.627C189.922 145.798 189.905 145.968 189.877 146.136C189.601 147.974 188.259 149.727 185.845 151.118C180.397 154.262 171.56 154.262 166.112 151.118C163.373 149.537 162.012 147.441 162.025 145.382L162 145.333Z" fill="#D9D9D9"/>
<path d="M163.673 144.647L166.192 140.97L169.795 135.633H182.106L185.71 140.977L188.235 144.653C188.309 144.849 188.351 145.057 188.357 145.266C188.362 145.446 188.339 145.626 188.29 145.799C187.996 147.258 186.807 148.667 184.742 149.783C179.894 152.399 172.038 152.399 167.191 149.783C165.132 148.673 163.943 147.264 163.636 145.812C163.572 145.614 163.547 145.406 163.563 145.199C163.571 145.01 163.608 144.824 163.673 144.647Z" fill="#FFD000"/>
<path opacity="0.2" d="M173.319 117.984L172.798 117.824L172.847 129.529L166.811 138.954L173.319 129.67V117.984Z" fill="white"/>
<path opacity="0.2" d="M172.363 119.123C172.363 119.123 173.098 119.785 175.984 119.785C178.871 119.785 179.6 119.141 179.6 119.141V116.904H172.363V119.123Z" fill="#FFD000"/>
<path opacity="0.2" d="M172.363 117.389C172.363 117.389 173.515 118.045 175.984 118.045C178.454 118.045 179.6 117.432 179.6 117.432V116.936H172.363V117.389Z" fill="#FFD000"/>
<path d="M173.895 133.837C176.11 133.495 178.375 133.706 180.489 134.45C182.94 135.461 182.94 137.103 180.489 138.127C177.572 139.144 174.397 139.144 171.48 138.127C168.949 137.116 168.949 135.473 171.48 134.45C172.257 134.147 173.068 133.941 173.895 133.837Z" fill="#FFD000"/>
<path d="M172.81 114.539C174.86 113.828 177.09 113.828 179.14 114.539C180.856 115.25 180.856 116.377 179.14 117.113C177.09 117.823 174.86 117.823 172.81 117.113C171.033 116.402 171.033 115.25 172.81 114.539Z" fill="#FFD000"/>
<path opacity="0.8" d="M172.81 114.539C174.86 113.828 177.09 113.828 179.14 114.539C180.856 115.25 180.856 116.377 179.14 117.113C177.09 117.823 174.86 117.823 172.81 117.113C171.033 116.402 171.033 115.25 172.81 114.539Z" fill="white"/>
<path opacity="0.2" d="M178.491 115.887C178.184 116.126 177.149 116.659 174.52 116.359C172.203 116.089 172.522 114.919 174.385 114.784C176.248 114.649 178.491 115.887 178.491 115.887Z" fill="white"/>
<path d="M173.919 114.888C175.267 114.563 176.672 114.563 178.019 114.888C179.134 115.213 179.134 115.74 178.019 116.065C176.671 116.383 175.267 116.383 173.919 116.065C172.767 115.728 172.767 115.213 173.919 114.888Z" fill="#FFD000"/>
<path opacity="0.2" d="M173.919 114.888C175.267 114.563 176.672 114.563 178.019 114.888C179.134 115.213 179.134 115.74 178.019 116.065C176.671 116.383 175.267 116.383 173.919 116.065C172.767 115.728 172.767 115.213 173.919 114.888Z" fill="black"/>
<g style="mix-blend-mode:hard-light" opacity="0.2">
<path d="M170.69 137.735C173.797 139.255 178.76 138.348 180.127 137.031C181.494 135.713 179.582 134.353 178.111 133.838C178.926 133.942 179.725 134.148 180.489 134.451C182.94 135.462 182.94 137.104 180.489 138.128C177.572 139.145 174.397 139.145 171.48 138.128C171.206 138.019 170.942 137.888 170.69 137.735Z" fill="white"/>
</g>
<path opacity="0.2" d="M172.81 117.114C172.353 116.964 171.948 116.685 171.646 116.311C173.19 117.537 176.977 117.353 178.552 116.82C180.127 116.286 180.176 115.232 179.551 114.742C180.838 115.453 180.703 116.47 179.14 117.114C177.09 117.824 174.86 117.824 172.81 117.114Z" fill="#FFD000"/>
<path opacity="0.1" d="M173.919 114.888C174.584 114.72 175.268 114.64 175.954 114.649V116.304C175.268 116.313 174.584 116.233 173.919 116.065C172.767 115.728 172.767 115.213 173.919 114.888Z" fill="black"/>
<path opacity="0.2" d="M172.81 114.54C174.448 113.972 176.207 113.85 177.909 114.184C177.743 114.184 174.544 113.823 172.865 114.687C171.4 115.434 171.468 116.108 171.854 116.525C171.137 115.882 171.449 115.116 172.81 114.54Z" fill="white"/>
<g style="mix-blend-mode:hard-light" opacity="0.2">
<path d="M177.265 130.435V117.566C177.805 117.51 178.338 117.395 178.852 117.223V129.663L188.657 143.984C189.27 144.928 188.835 146.282 188.308 147.385C187.599 148.49 186.637 149.41 185.501 150.069C183.716 151.156 181.73 151.873 179.661 152.177C179.661 152.177 183.687 150.069 184.484 148.501C185.097 147.318 184.551 145.528 183.694 143.996L177.265 130.435Z" fill="white"/>
</g>
<path d="M20.9704 115.811H21.0568C21.8648 114.875 22.3975 113.734 22.5958 112.513C22.7941 111.293 22.6503 110.041 22.1803 108.898C21.8371 108.104 21.5428 107.29 21.2988 106.461C20.9185 104.853 21.2988 102.088 19 102.088C16.7012 102.088 17.1506 104.819 16.7185 106.461C16.4795 107.256 16.1909 108.035 15.8543 108.794C15.3437 109.974 15.183 111.276 15.3914 112.544C15.5998 113.813 16.1684 114.995 17.0296 115.95C17.2439 116.2 17.3606 116.519 17.358 116.848C17.359 117.131 17.2687 117.407 17.1005 117.634C16.9324 117.861 16.6953 118.028 16.4247 118.11C15.9104 118.254 15.4167 118.463 14.9556 118.732C14.4836 118.934 14.0743 119.258 13.7703 119.672C13.4663 120.085 13.2787 120.572 13.2272 121.083L12 145.764C12 147.182 13.3136 148.616 15.9235 149.394C17.9148 149.981 20.0333 149.981 22.0247 149.394C24.6346 148.616 25.9482 147.182 25.9482 145.764L24.721 121.083C24.6712 120.572 24.4844 120.084 24.1802 119.67C23.8759 119.256 23.4656 118.932 22.9926 118.732C22.5314 118.463 22.0377 118.254 21.5235 118.11C21.2528 118.028 21.0158 117.861 20.8477 117.634C20.6795 117.407 20.5892 117.131 20.5901 116.848C20.5767 116.658 20.6036 116.468 20.6692 116.289C20.7347 116.11 20.8374 115.948 20.9704 115.811Z" fill="#455A64"/>
<path opacity="0.7" d="M20.9704 115.811H21.0568C21.8648 114.875 22.3975 113.734 22.5958 112.513C22.7941 111.293 22.6503 110.041 22.1803 108.898C21.8371 108.104 21.5428 107.29 21.2988 106.461C20.9185 104.853 21.2988 102.088 19 102.088C16.7012 102.088 17.1506 104.819 16.7185 106.461C16.4795 107.256 16.1909 108.035 15.8543 108.794C15.3437 109.974 15.183 111.276 15.3914 112.544C15.5998 113.813 16.1684 114.995 17.0296 115.95C17.2439 116.2 17.3606 116.519 17.358 116.848C17.359 117.131 17.2687 117.407 17.1005 117.634C16.9324 117.861 16.6953 118.028 16.4247 118.11C15.9104 118.254 15.4167 118.463 14.9556 118.732C14.4836 118.934 14.0743 119.258 13.7703 119.672C13.4663 120.085 13.2787 120.572 13.2272 121.083L12 145.764C12 147.182 13.3136 148.616 15.9235 149.394C17.9148 149.981 20.0333 149.981 22.0247 149.394C24.6346 148.616 25.9482 147.182 25.9482 145.764L24.721 121.083C24.6712 120.572 24.4844 120.084 24.1802 119.67C23.8759 119.256 23.4656 118.932 22.9926 118.732C22.5314 118.463 22.0377 118.254 21.5235 118.11C21.2528 118.028 21.0158 117.861 20.8477 117.634C20.6795 117.407 20.5892 117.131 20.5901 116.848C20.5767 116.658 20.6036 116.468 20.6692 116.289C20.7347 116.11 20.8374 115.948 20.9704 115.811Z" fill="white"/>
<path opacity="0.4" d="M20.6764 149.566C21.1505 149.499 21.6186 149.395 22.0764 149.255C24.6863 148.477 25.9999 147.042 25.9999 145.625L24.7727 120.944C24.723 120.432 24.5361 119.944 24.2319 119.53C23.9277 119.117 23.5174 118.793 23.0443 118.593C22.5832 118.324 22.0895 118.115 21.5752 117.971C21.3046 117.889 21.0675 117.722 20.8994 117.495C20.7312 117.267 20.6409 116.992 20.6419 116.709C20.5544 117.096 20.6028 117.502 20.7791 117.857C20.9554 118.213 21.2487 118.497 21.6098 118.662C22.5258 119.25 23.995 119.163 24.2197 122.274C24.4443 125.386 25.2912 143.465 25.2912 144.951C25.2912 146.437 24.8764 148.235 20.6764 149.566Z" fill="white"/>
<path d="M24.7902 145.642L23.8915 127.58C23.8458 127.153 23.6895 126.745 23.4379 126.396C23.1864 126.047 22.8482 125.771 22.4569 125.593C21.3861 125.048 20.2016 124.764 19.0001 124.764C17.7986 124.764 16.6141 125.048 15.5433 125.593C15.151 125.769 14.8119 126.046 14.5601 126.395C14.3083 126.743 14.1527 127.152 14.1087 127.58L13.21 145.642C13.2197 145.802 13.2547 145.96 13.3137 146.109C13.6139 146.866 14.1876 147.483 14.9211 147.837C16.1766 148.476 17.5654 148.809 18.9742 148.809C20.3829 148.809 21.7717 148.476 23.0273 147.837C23.7608 147.483 24.3344 146.866 24.6347 146.109C24.7115 145.963 24.764 145.805 24.7902 145.642Z" fill="#455A64"/>
<g opacity="0.3">
<path d="M23.8224 147.37L22.6989 125.8L22.4224 125.627L21.3335 125.731L22.4397 148.2L23.01 147.906C23.3002 147.759 23.5727 147.579 23.8224 147.37Z" fill="white"/>
</g>
<g opacity="0.3">
<path d="M20.6765 125.957L19.9851 125.818L20.7975 148.702C21.1244 148.64 21.4476 148.559 21.7654 148.46L20.6765 125.957Z" fill="white"/>
</g>
<g opacity="0.05">
<path d="M16.5975 145.694C16.7012 143.585 16.7185 134.822 17.0296 128.669L16.8222 125.074C16.3954 125.202 15.9839 125.375 15.5951 125.593C15.2027 125.769 14.8637 126.046 14.6119 126.395C14.3601 126.743 14.2044 127.152 14.1605 127.58L13.2617 145.642C13.2715 145.802 13.3065 145.96 13.3654 146.109C13.6657 146.866 14.2393 147.483 14.9728 147.837C16.2284 148.476 17.6172 148.809 19.0259 148.809C20.4347 148.809 21.8235 148.476 23.079 147.837C19.6222 148.805 16.4938 147.716 16.5975 145.694Z" fill="black"/>
</g>
<path d="M15.595 125.593C16.6658 125.048 17.8503 124.764 19.0518 124.764C20.2533 124.764 21.4378 125.048 22.5086 125.593C22.9276 125.73 23.2926 125.996 23.5514 126.353C23.8102 126.71 23.9496 127.139 23.9496 127.58C23.9496 128.021 23.8102 128.451 23.5514 128.808C23.2926 129.165 22.9276 129.431 22.5086 129.568C21.4378 130.113 20.2533 130.397 19.0518 130.397C17.8503 130.397 16.6658 130.113 15.595 129.568C15.176 129.431 14.811 129.165 14.5522 128.808C14.2934 128.451 14.1541 128.021 14.1541 127.58C14.1541 127.139 14.2934 126.71 14.5522 126.353C14.811 125.996 15.176 125.73 15.595 125.593Z" fill="#455A64"/>
<g opacity="0.3">
<path d="M15.595 125.593C16.6658 125.048 17.8503 124.764 19.0518 124.764C20.2533 124.764 21.4378 125.048 22.5086 125.593C22.9276 125.73 23.2926 125.996 23.5514 126.353C23.8102 126.71 23.9496 127.139 23.9496 127.58C23.9496 128.021 23.8102 128.451 23.5514 128.808C23.2926 129.165 22.9276 129.431 22.5086 129.568C21.4378 130.113 20.2533 130.397 19.0518 130.397C17.8503 130.397 16.6658 130.113 15.595 129.568C15.176 129.431 14.811 129.165 14.5522 128.808C14.2934 128.451 14.1541 128.021 14.1541 127.58C14.1541 127.139 14.2934 126.71 14.5522 126.353C14.811 125.996 15.176 125.73 15.595 125.593Z" fill="white"/>
</g>
<g opacity="0.05">
<path d="M18.4988 140.804C20.2911 140.839 22.0668 140.454 23.684 139.68C24.2144 139.449 24.6735 139.08 25.0138 138.613C25.3541 138.145 25.5633 137.594 25.6198 137.018L25.2049 128.809C25.1561 129.337 24.9713 129.844 24.6684 130.281C24.3655 130.717 23.9549 131.067 23.4765 131.297C21.9632 132.007 20.3081 132.361 18.637 132.335L18.4988 140.804Z" fill="black"/>
</g>
<path d="M19.0173 141.183C20.6364 141.22 22.2375 140.839 23.6667 140.077C24.2025 139.836 24.6634 139.456 25.0011 138.975C25.3387 138.495 25.5405 137.932 25.5852 137.346L25.1704 129.119C25.1314 129.653 24.9506 130.167 24.6468 130.607C24.3429 131.048 23.927 131.399 23.442 131.625C22.1098 132.342 20.6162 132.705 19.1038 132.68L19.0173 141.183Z" fill="#FFD000"/>
<path opacity="0.2" d="M14.6964 145.02C14.6964 143.62 15.5088 124.418 15.7335 122.171C15.7859 121.368 16.0461 120.592 16.4884 119.919C16.9307 119.247 17.5401 118.7 18.2569 118.334C18.4794 118.19 18.6658 117.998 18.8019 117.77C18.9379 117.543 19.02 117.288 19.0417 117.024C19.0634 116.76 19.0242 116.495 18.9271 116.248C18.83 116.002 18.6776 115.781 18.4816 115.603C17.7315 114.923 17.1902 114.043 16.9209 113.067C16.6516 112.091 16.6654 111.058 16.9606 110.09C17.5157 108.44 17.9263 106.746 18.1878 105.025C18.3952 102.64 19.0174 102.018 19.9162 102.191C19.648 102.058 19.3513 101.992 19.052 102.001C16.8051 102.001 17.2026 104.732 16.7705 106.374C16.5316 107.169 16.2429 107.948 15.9063 108.707C15.3957 109.887 15.235 111.189 15.4434 112.457C15.6518 113.726 16.2205 114.908 17.0816 115.862C17.2959 116.113 17.4126 116.432 17.41 116.761C17.411 117.044 17.3207 117.319 17.1525 117.547C16.9844 117.774 16.7473 117.941 16.4767 118.023C15.9624 118.167 15.4687 118.376 15.0076 118.645C14.5356 118.847 14.1263 119.171 13.8223 119.584C13.5183 119.998 13.3307 120.485 13.2792 120.996L12.052 145.677C12.052 147.095 13.3656 148.529 15.9755 149.307C17.9668 149.894 20.0854 149.894 22.0767 149.307C22.4363 149.204 22.7885 149.077 23.131 148.927C16.7014 150.62 14.7137 146.42 14.6964 145.02Z" fill="#455A64"/>
<path opacity="0.4" d="M21.8 109.225C21.5581 108.637 21.1951 108.101 21.005 107.496C20.7889 106.707 20.6671 105.895 20.642 105.077C20.642 104.817 20.642 104.195 20.2963 104.04C19.9507 103.884 19.847 104.126 19.7951 104.351C19.5683 105.383 19.4868 106.442 19.5531 107.496C19.7313 108.388 20.0217 109.253 20.4173 110.072C20.6407 111.034 20.7107 112.026 20.6247 113.01C20.5986 113.147 20.5986 113.288 20.6247 113.425C20.6542 113.487 20.7007 113.539 20.7588 113.576C20.817 113.613 20.8844 113.632 20.9531 113.632C21.0691 113.602 21.1722 113.536 21.247 113.442C21.4703 113.23 21.652 112.978 21.7828 112.699C22.1088 111.912 22.1989 111.047 22.042 110.21C21.9945 109.874 21.9135 109.544 21.8 109.225Z" fill="white"/>
<g opacity="0.5">
<path d="M22.4569 129.568C22.8759 129.431 23.2409 129.165 23.4997 128.808C23.7585 128.451 23.8978 128.022 23.8978 127.581C23.8978 127.14 23.7585 126.71 23.4997 126.353C23.2409 125.996 22.8759 125.73 22.4569 125.593C22.0754 125.377 21.6691 125.209 21.247 125.092C25.3606 126.63 22.9754 130.139 19.0173 130.052C18.1431 130.128 17.2632 130.002 16.4452 129.685C15.6272 129.367 14.8929 128.866 14.2988 128.22C14.566 128.803 15.0229 129.279 15.5951 129.568C16.6593 130.105 17.8343 130.384 19.026 130.384C20.2177 130.384 21.3927 130.105 22.4569 129.568Z" fill="white"/>
</g>
<path d="M35.5277 144.629C35.8095 146.015 35.7326 147.45 35.3044 148.798L31.3438 154.417C31.3438 154.417 26.4946 154.069 23.5863 154.071C25.6368 152.164 26.9101 149.499 26.9101 146.55C26.9101 143.8 25.8022 141.296 23.9891 139.424C23.8318 138.351 22.5779 137.334 21.4076 136.386C20.568 135.705 19.7715 135.06 19.4539 134.453C19.1 133.94 18.9449 133.315 19.0175 132.696C19.09 132.077 19.3854 131.506 19.8483 131.088C20.3504 130.638 21.9673 131.995 23.5243 133.301C24.389 134.027 25.2351 134.737 25.8617 135.113C28.7806 136.576 31.4292 138.525 33.6944 140.877C34.6149 141.951 35.246 143.242 35.5277 144.629Z" fill="#FFBF9D"/>
<path d="M81.5449 72.0726C85.476 74.9485 94.1451 74.6726 100.462 71.4312C101.118 71.0941 101.865 70.9791 102.591 71.1035C103.318 71.2279 103.984 71.5849 104.49 72.1209C104.49 72.1209 107.531 74.0726 109.559 71.9277C110.635 76.714 109.407 85.5831 104.918 88.3624C100.428 91.1418 92.0623 90.0866 88.3657 87.9831C86.1889 86.7959 84.4093 84.9947 83.2484 82.8037L83.0967 74.2174L81.5932 73.5278L81.5449 72.0726Z" fill="white"/>
<path d="M109.559 71.9491C107.531 74.0939 104.49 72.1422 104.49 72.1422C104.1 71.7608 103.628 71.4731 103.111 71.3008C104.773 74.9353 104.607 85.5354 100.924 89.7907C101.627 89.6727 102.319 89.4974 102.993 89.2665H103.035C103.317 89.17 103.593 89.0527 103.855 88.9355L104.007 88.8734C104.275 88.7483 104.535 88.6078 104.786 88.4527L104.897 88.3975C106.059 87.6218 107.008 86.5665 107.655 85.3285C107.835 85.0044 108.007 84.6389 108.166 84.3216C109.826 80.4213 110.31 76.1209 109.559 71.9491Z" fill="#D9D9D9"/>
<path d="M95.3382 74.7011C99.0072 73.7424 102.062 71.4183 104.69 73.0252C106.311 74.0252 108.449 74.3011 109.78 73.2873C109.718 72.8183 109.649 72.3631 109.559 71.9493C107.635 73.5631 104.49 72.1424 104.49 72.1424C103.954 71.5844 103.257 71.2082 102.497 71.0665C101.187 70.8803 100.428 71.0665 98.8279 71.8596C93.0071 74.6183 85.4898 74.4735 81.5449 72.0735V73.5217C82.1997 73.9753 82.9147 74.3351 83.6691 74.5907C87.4649 75.7638 91.5208 75.8021 95.3382 74.7011Z" fill="#FAFAFA"/>
<path d="M83.2138 82.8257L81 82.8395L81.0069 81.3361L83.1793 81.3223L83.2138 82.8257Z" fill="#FAFAFA"/>
</svg>
