<svg width="200" height="200" viewBox="0 0 200 200" fill="none" xmlns="http://www.w3.org/2000/svg">
<g clip-path="url(#clip0_662_26346)">
<path fill-rule="evenodd" clip-rule="evenodd" d="M95.3511 40.0786C119.484 41.5624 131.191 65.3973 145.943 82.1754C157.899 95.7741 168.961 109.409 171.286 126.445C173.971 146.122 175.558 168.605 159.663 182.721C143.717 196.882 117.964 195.809 95.3511 193.883C72.1366 194.322 53.3796 187.342 42.4481 172.737C26.9316 160.174 13.0786 144.922 12.0648 126.445C11.0113 107.244 22.9446 90.1752 37.1121 75.4837C52.9597 59.05 70.8381 38.5713 95.3511 40.0786Z" fill="#FFF3CC"/>
<path opacity="0.8" d="M145 42.1001C145.001 39.3192 144.17 36.5856 142.587 34.1671C141.004 31.7486 138.725 29.728 135.971 28.3033C135.957 24.7924 134.771 21.36 132.558 18.4206C130.344 15.4812 127.196 13.1606 123.494 11.7388C119.793 10.317 115.696 9.85498 111.699 10.4084C107.701 10.9619 103.974 12.5072 100.967 14.8577C99.0271 12.8136 96.5353 11.2168 93.7127 10.2093C90.8902 9.20174 87.8243 8.81464 84.7877 9.08241C81.751 9.35018 78.8377 10.2645 76.3068 11.7441C73.7758 13.2238 71.7055 15.2228 70.2801 17.5636C67.6881 16.4366 64.7754 15.9841 61.8935 16.2607C59.0116 16.5374 56.2836 17.5314 54.0386 19.1229C51.7936 20.7143 50.1275 22.8352 49.2414 25.2296C48.3553 27.624 48.287 30.1896 49.0448 32.617C47.0917 33.7457 45.5096 35.2945 44.453 37.112C43.3964 38.9295 42.9013 40.9537 43.0163 42.9867C43.1312 45.0198 43.8522 46.9922 45.1088 48.7114C46.3653 50.4305 48.1145 51.8377 50.1855 52.7953C50.7602 55.5019 52.41 57.9484 54.8482 59.7098C57.2865 61.4711 60.3592 62.436 63.5324 62.4367C64.3841 62.4357 65.2338 62.3661 66.0706 62.229C66.8162 63.7474 67.9216 65.1129 69.3152 66.2368C70.7088 67.3606 72.3594 68.2177 74.1597 68.7523C75.96 69.2869 77.8699 69.4872 79.7652 69.34C81.6606 69.1928 83.4991 68.7016 85.1613 67.8981C86.5933 69.0386 88.291 69.8991 90.1397 70.4213C91.9884 70.9434 93.9448 71.1151 95.8766 70.9247C97.8083 70.7342 99.6704 70.1861 101.337 69.3175C103.003 68.4488 104.435 67.2798 105.535 65.8897C107.498 67.971 110.155 69.4749 113.142 70.195C116.129 70.9151 119.299 70.8162 122.219 69.9118C125.138 69.0075 127.664 67.342 129.449 65.1437C131.234 62.9454 132.191 60.322 132.189 57.6333C132.189 57.5591 132.189 57.4849 132.189 57.4058C135.916 56.3574 139.164 54.3111 141.466 51.5609C143.768 48.8108 145.005 45.4985 145 42.1001Z" fill="#D9D9D9"/>
<path d="M96.9657 38.5469H89.2913V45.4624H96.9657V38.5469Z" fill="#FFD000"/>
<path d="M110.773 48.6541L104.991 53.2012L110.037 58.4117L115.819 53.8647L110.773 48.6541Z" fill="#FFD000"/>
<path d="M67.588 17.8338L61.8057 22.3809L66.8517 27.5914L72.634 23.0444L67.588 17.8338Z" fill="#263238"/>
<path d="M67.5882 45.8495L61.8059 50.3965L66.8519 55.607L72.6342 51.06L67.5882 45.8495Z" fill="white"/>
<path d="M101.787 17.5213L96.0051 22.0684L101.051 27.2789L106.833 22.7319L101.787 17.5213Z" fill="#FFD000"/>
<path d="M96.1781 50.168L97.8105 53.1378L101.448 53.6141L98.8158 55.9255L99.4376 59.1895L96.1781 57.6485L92.929 59.1895L93.5457 55.9255L90.9185 53.6141L94.551 53.1378L96.1781 50.168Z" fill="#263238"/>
<path d="M68.4702 29.0957L70.0973 32.0655L73.7351 32.5418L71.1026 34.8532L71.7245 38.1219L68.4702 36.5763L65.2159 38.1219L65.8378 34.8532L63.2053 32.5418L66.8431 32.0655L68.4702 29.0957Z" fill="#FFD000"/>
<path d="M116.512 12.616L115.393 15.7726L117.642 18.3922L113.968 18.4062L111.895 21.1426L110.745 18L107.216 17.0707L110.18 15.1095L110.071 11.7988L113.056 13.7367L116.512 12.616Z" fill="white"/>
<path d="M130.899 35.7229L134.547 36.1291L136.988 33.6543L137.688 36.9043L141.056 38.2351L137.838 39.8367L137.48 43.1334L134.791 40.8687L131.205 41.5832L132.759 38.5806L130.899 35.7229Z" fill="#FFD000"/>
<path d="M112.487 42.0797C113.175 39.4675 111.382 36.8478 108.483 36.2283C105.584 35.6089 102.677 37.2244 101.99 39.8366C101.302 42.4488 103.095 45.0686 105.994 45.688C108.893 46.3074 111.8 44.6919 112.487 42.0797Z" fill="white"/>
<path d="M125.847 30.4924C128.637 29.5518 130.053 26.7509 129.009 24.2364C127.965 21.7219 124.857 20.4461 122.067 21.3867C119.276 22.3273 117.86 25.1282 118.904 27.6427C119.948 30.1572 123.056 31.433 125.847 30.4924Z" fill="#263238"/>
<path d="M88.9999 33.3629C89.6873 30.7507 87.8946 28.131 84.9957 27.5115C82.0969 26.8921 79.1896 28.5076 78.5022 31.1198C77.8148 33.732 79.6076 36.3518 82.5064 36.9712C85.4053 37.5906 88.3125 35.9751 88.9999 33.3629Z" fill="white"/>
<path d="M84.0316 47.0816L75.4088 42.1973L75.0305 51.3682L84.0316 47.0816Z" fill="#263238"/>
<path d="M124.409 43.7945L122.762 34.7402L114.885 40.5538L124.409 43.7945Z" fill="#263238"/>
<path d="M62.295 41.6824L56.7669 34.3593L52.5379 43.3921L62.295 41.6824Z" fill="#FFD000"/>
<path d="M125.305 52.8767L121.625 48.0012L118.809 54.0149L125.305 52.8767Z" fill="#FFD000"/>
<path d="M113.61 33.3292L114.02 24.1582L105.003 28.4261L113.61 33.3292Z" fill="#FFD000"/>
<path d="M78.4041 15.7776L83.7156 23.6084L88.5866 15.5488L78.4041 15.7776Z" fill="#FFD000"/>
<path d="M92.0601 44.8647L92.9295 44.8164C97.1236 44.5763 101.254 45.9237 104.5 48.5907C107.746 51.2577 109.869 55.0488 110.446 59.2099C111.557 67.2599 108.823 69.6774 109 74.0002C109.411 82.968 102.184 88.5002 102.184 88.5002L104.707 94.952C104.833 96.3825 104.674 97.8237 104.241 99.1929C103.809 100.562 103.109 101.832 102.184 102.93C101.259 104.029 100.125 104.933 98.8495 105.592C97.5735 106.251 96.1799 106.651 94.7488 106.769C91.8972 106.998 89.07 106.096 86.8772 104.259C84.6845 102.422 83.302 99.796 83.028 96.9484L79.808 63.6937C78.5039 54.4362 82.7704 45.9515 92.0601 44.8647Z" fill="#FFBF9D"/>
<path d="M102 88.5007C97.8507 88.7417 93.6289 87.6491 90 85.6777C90 85.6777 94.1185 91.7827 103 90.5007L102 88.5007Z" fill="#FF9A6C"/>
<path d="M95.996 68.3284C96.0248 68.7349 95.8978 69.1368 95.6425 69.447C95.3872 69.7572 95.0242 69.9508 94.632 69.9858C94.4413 70.0133 94.2472 70.0008 94.0612 69.9492C93.8752 69.8975 93.7011 69.8078 93.5492 69.6852C93.3973 69.5627 93.2706 69.4099 93.1768 69.2358C93.083 69.0617 93.0238 68.8698 93.0028 68.6716C92.9789 68.2663 93.1076 67.8672 93.362 67.5581C93.6163 67.249 93.9765 67.054 94.3668 67.0142C94.5575 66.9867 94.7516 66.9992 94.9376 67.0509C95.1236 67.1025 95.2977 67.1922 95.4496 67.3148C95.6015 67.4373 95.7282 67.5901 95.822 67.7642C95.9158 67.9383 95.975 68.1302 95.996 68.3284Z" fill="#263238"/>
<path d="M108.788 63.701C108.635 63.8781 107.629 63.21 106.252 63.2985C104.876 63.3871 103.902 64.1035 103.749 63.9667C103.596 63.8298 103.813 63.5883 104.232 63.2422C104.804 62.793 105.501 62.5316 106.228 62.4935C106.943 62.4539 107.653 62.6397 108.257 63.0248C108.683 63.3227 108.844 63.6125 108.788 63.701Z" fill="#263238"/>
<path d="M107.997 68.3284C108.021 68.7337 107.892 69.1328 107.638 69.4419C107.384 69.751 107.023 69.946 106.633 69.9858C106.442 70.0133 106.248 70.0008 106.062 69.9491C105.876 69.8975 105.702 69.8078 105.55 69.6852C105.398 69.5627 105.271 69.4099 105.177 69.2358C105.084 69.0617 105.024 68.8698 105.003 68.6716C104.977 68.2657 105.105 67.8652 105.36 67.5556C105.615 67.2459 105.976 67.0516 106.368 67.0142C106.558 66.9867 106.753 66.9992 106.939 67.0509C107.125 67.1025 107.299 67.1922 107.451 67.3148C107.603 67.4373 107.729 67.5901 107.823 67.7642C107.917 67.9383 107.976 68.1302 107.997 68.3284Z" fill="#263238"/>
<path d="M95.256 64.7316C95.1111 64.9087 94.0968 64.2486 92.7202 64.3291C91.3437 64.4096 90.3777 65.1341 90.2167 64.9973C90.0557 64.8604 90.2811 64.6189 90.7077 64.2728C91.2758 63.8278 91.9674 63.5691 92.688 63.5322C93.4038 63.4864 94.1152 63.6727 94.7166 64.0635C95.1674 64.3613 95.3284 64.6511 95.256 64.7316Z" fill="#263238"/>
<path d="M100.835 74.6567C101.546 74.3823 102.29 74.201 103.049 74.1173C103.403 74.061 103.725 73.9724 103.773 73.7309C103.785 73.3658 103.684 73.0059 103.483 72.7005C103.097 71.8955 102.678 71.002 102.284 70.0843C100.626 66.3571 99.4019 63.29 99.5468 63.2256C99.6917 63.1612 101.157 66.1237 102.831 69.8508C103.234 70.7685 103.636 71.646 103.982 72.4832C104.225 72.8956 104.318 73.3786 104.248 73.8517C104.204 73.9799 104.132 74.0961 104.035 74.1911C103.939 74.2862 103.821 74.3574 103.693 74.3991C103.503 74.4654 103.305 74.506 103.105 74.5198C102.356 74.6547 101.594 74.7006 100.835 74.6567Z" fill="#263238"/>
<path d="M95.359 60.4005C95.2383 60.7788 93.8537 60.6822 92.2517 60.972C90.6498 61.2618 89.3698 61.777 89.1364 61.447C89.0317 61.294 89.241 60.9318 89.7401 60.5373C90.4173 60.0516 91.1963 59.7266 92.0179 59.5871C92.8395 59.4476 93.6821 59.4973 94.4816 59.7323C95.0853 59.9416 95.4073 60.2153 95.359 60.4005Z" fill="#263238"/>
<path d="M108.086 60.827C107.869 61.149 106.903 60.8833 105.76 60.9316C104.617 60.9799 103.667 61.2617 103.425 60.9316C103.321 60.7787 103.425 60.4567 103.852 60.1266C104.397 59.7358 105.049 59.5197 105.72 59.5068C106.392 59.4784 107.056 59.6614 107.619 60.03C108.038 60.352 108.191 60.666 108.086 60.827Z" fill="#263238"/>
<path d="M109.344 55.1525C109.344 55.1525 106.663 49.6784 103.878 48.5192C100.513 47.1266 99.3133 50.8054 96.1416 50.1292C92.9699 49.453 89.7579 48.1006 86.707 50.6927C83.3743 53.5344 85.097 55.2974 85.097 59.2821C85.1453 75.4385 82.4646 80.1639 81.1927 72.629C81.0559 71.824 78.7052 71.2686 78.1659 67.799C77.4575 63.2749 76.9664 57.7526 77.7956 54.4602C78.4959 51.6909 79.9369 49.7187 82.6256 47.4808C86.8358 43.9549 92.8652 43.5363 96.9949 43.7134C101.125 43.8905 109.319 48.1006 109.344 55.1525Z" fill="#263238"/>
<path d="M81.7803 72.3236C81.7532 71.9929 81.6583 71.6713 81.5014 71.3788C81.3446 71.0864 81.1291 70.8295 80.8685 70.624C80.6079 70.4185 80.3078 70.269 79.9868 70.1847C79.6658 70.1004 79.331 70.0831 79.003 70.134C77.3447 70.3916 75.5415 71.4462 75.8474 74.8916C76.3948 81.0016 82.4162 79.1903 82.4162 79.0132C82.4162 78.8361 82.0298 74.8835 81.7803 72.3236Z" fill="#FFBF9D"/>
<path d="M80.8948 76.8303C80.8948 76.8303 80.7982 76.9188 80.6211 77.0154C80.3742 77.1475 80.0858 77.1793 79.8161 77.104C79.156 76.9269 78.52 75.9448 78.3912 74.85C78.3275 74.3266 78.3825 73.7955 78.5522 73.2963C78.5923 73.1011 78.6792 72.9186 78.8054 72.7643C78.9316 72.6101 79.0933 72.4888 79.2767 72.4108C79.3957 72.3686 79.5255 72.3688 79.6444 72.4113C79.7632 72.4538 79.8637 72.5361 79.9288 72.6443C80.0334 72.8053 80.0012 72.934 80.0334 72.9421C80.0656 72.9501 80.1542 72.8294 80.0817 72.5798C80.0362 72.4305 79.9392 72.3022 79.808 72.2176C79.6284 72.1045 79.4114 72.0669 79.2043 72.1129C78.9589 72.1861 78.7363 72.3205 78.5574 72.5036C78.3785 72.6868 78.2493 72.9125 78.1819 73.1595C77.9686 73.7126 77.894 74.3096 77.9646 74.8983C78.1175 76.1299 78.8501 77.2247 79.7517 77.4018C79.9198 77.4353 80.0934 77.4302 80.2593 77.387C80.4252 77.3438 80.5792 77.2635 80.7096 77.1523C80.8948 76.9832 80.9189 76.8464 80.8948 76.8303Z" fill="#FF9A6C"/>
<path d="M110.648 48.5191C109.706 47.8107 108.41 47.7141 107.476 46.9977C103.316 43.8042 96.6129 37.7091 90.8888 40.8959C88.7107 42.1085 85.9615 42.2125 84.0181 43.6006C83.4528 44.0475 82.9874 44.608 82.6519 45.2458C82.3164 45.8835 82.1182 46.5845 82.07 47.3036C82.07 47.3036 81.4341 46.9816 79.5021 48.5111C78.2704 49.4851 77.2642 51.5862 76.8134 53.0835C76.1452 55.3294 77.1193 57.6962 78.0772 59.8294C78.5924 60.9806 79.2364 62.2444 80.4359 62.655C81.8929 63.146 83.5029 62.0029 84.0745 60.57C84.646 59.1371 85.5476 57.6962 86.2399 56.3196C87.4474 53.9046 88.6549 51.6989 87.6648 50.1694C90.93 49.1089 93.0942 51.0056 95.9966 52.0289C97.2173 52.4594 102.143 53.276 103.5 52.9513C103.939 52.8464 104.349 52.6439 104.699 52.359C105.252 53.2599 106.124 53.9194 107.141 54.2059C108.159 54.4923 109.247 54.3848 110.189 53.9046C112.008 52.7776 112.33 49.791 110.648 48.5191Z" fill="#263238"/>
<path d="M77.4653 58.3875C77.7478 58.8294 77.9852 59.2987 78.1737 59.7882C78.3945 60.2826 78.7415 60.7102 79.18 61.0279C79.7661 61.3278 80.4411 61.405 81.0798 61.2452C81.7438 61.1164 82.3707 60.8414 82.9152 60.4402C83.3543 60.0994 83.7539 59.7106 84.1066 59.281C84.4148 58.8596 84.7568 58.4638 85.129 58.0977C84.9327 58.5852 84.6611 59.0388 84.324 59.442C83.9868 59.9161 83.5859 60.3413 83.1325 60.7059C82.5515 61.1447 81.8763 61.4424 81.1603 61.5753C80.4348 61.7551 79.6679 61.6484 79.019 61.2774C78.5341 60.9224 78.1645 60.4324 77.9564 59.8687C77.7324 59.397 77.5674 58.8995 77.4653 58.3875Z" fill="#B9B8B6"/>
<path d="M77.6989 63.1146C78.0674 63.394 78.474 63.619 78.9065 63.7828C79.3769 63.9318 79.8743 63.9757 80.3635 63.9116C80.9641 63.8203 81.5379 63.6007 82.046 63.2676C82.9688 62.6266 83.7521 61.805 84.3483 60.8526C84.5759 60.4394 84.8457 60.0509 85.1533 59.6934C85.0124 60.1539 84.8035 60.5907 84.5334 60.9894C83.9864 62.0378 83.1937 62.9383 82.2231 63.6137C81.6703 63.9795 81.0384 64.2085 80.3796 64.2819C79.8332 64.342 79.2805 64.2674 78.7696 64.0645C77.9485 63.6701 77.6587 63.1227 77.6989 63.1146Z" fill="#B9B8B6"/>
<path d="M96.7029 79.6289C96.4969 79.9662 96.3821 80.3164 96.3615 80.6697C96.3372 80.8368 96.3835 81.0047 96.4972 81.1618C96.6109 81.319 96.7894 81.4618 97.0205 81.5804C97.2599 81.7262 97.5589 81.8432 97.8964 81.9233C98.2338 82.0034 98.6015 82.0446 98.9734 82.0439C99.6443 82.0432 100.293 81.92 100.802 81.6964C101.311 81.4729 101.648 81.1636 101.752 80.8242L101.99 80.0558C100.601 79.8525 96.8061 79.6818 96.7029 79.6289Z" fill="#FF9A6C"/>
<path d="M100.948 81.1252C100.948 81.1252 100.753 81.1252 100.431 81.1411C99.9786 81.163 99.5184 81.163 99.0662 81.1411C98.4134 81.1089 97.8233 81.0007 97.4135 80.8381C96.9255 80.6348 96.6932 80.3822 96.7609 80.1285C96.7805 79.9858 96.8991 79.8462 97.1084 79.7193L96.9049 79.7485C98.3542 79.8176 99.6256 79.8734 100.524 79.9053C101.007 79.9336 101.499 79.9452 101.99 79.9399C101.532 79.884 101.054 79.8465 100.566 79.8282C99.668 79.7751 98.4136 79.7033 96.9643 79.6289H96.8287L96.7693 79.6661C96.4444 79.8636 96.3061 80.086 96.3707 80.3073C96.4353 80.5286 96.7 80.7395 97.1338 80.9152C97.6097 81.0951 98.291 81.2096 99.0323 81.2341C99.514 81.2474 99.9994 81.233 100.465 81.1916C100.639 81.1806 100.804 81.1579 100.948 81.1252Z" fill="#263238"/>
<path d="M60.4879 106.576C59.9566 106.576 52.3735 109.603 50.3771 117.041C48.3807 124.479 42.9308 151.769 42.9308 151.769L37.1428 159.787C37.1428 159.787 39.0185 174.414 49.6526 171.628C49.6526 171.628 56.7527 172.868 59.0147 165.671C61.2768 158.475 65.6641 137.005 65.6641 137.005L60.4879 106.576Z" fill="#B9B8B6"/>
<path d="M82.1472 94L78.1204 100.196L60 106.752L65.1865 160.234L63.2697 188.228C80 197.5 124.262 195.715 127 194.5C128.425 194.459 128.681 191.408 128.914 189.425C129.115 187.645 128.962 185.841 128.463 184.123L125.459 173.403C125.902 180.074 123.937 133.607 123.848 131.911L128.238 108.006L107.621 99.5154L104.399 94.5081L95.1215 101.687L82.1472 94Z" fill="#B9B8B6"/>
<path d="M127.447 108C127.447 108 131.804 111.654 132.523 114.468C133.242 117.281 148.907 149.692 148.907 149.692L156.689 151.697L158.77 155.82C159.985 158.185 160.312 160.877 159.696 163.444C159.08 166.012 157.558 168.298 155.386 169.92C155.116 170.116 154.833 170.297 154.54 170.462C150.311 172.887 142.783 172.758 138.376 167.794C134.206 163.089 122 146.176 122 146.176V125.479L127.447 108Z" fill="#B9B8B6"/>
<path d="M152.95 152.59L163.601 146.303L168.737 152.59L167.674 155.633L153.941 165.848C152.236 164.457 151.092 162.495 150.721 160.326C150.117 156.486 152.95 152.59 152.95 152.59Z" fill="#FFBF9D"/>
<path d="M149.569 149.337C149.569 149.442 148.66 149.337 147.324 149.788C145.597 150.385 144.068 151.446 142.904 152.855C141.754 154.295 140.806 155.885 140.087 157.581C139.815 158.307 139.478 159.008 139.08 159.674C139.188 158.901 139.405 158.147 139.724 157.436C140.357 155.646 141.291 153.977 142.485 152.501C143.707 151.009 145.361 149.932 147.219 149.418C147.979 149.167 148.794 149.139 149.569 149.337Z" fill="#263238"/>
<path d="M163.424 149.789C163.158 148.399 163.253 146.964 163.7 145.621C164.147 144.277 164.93 143.071 165.976 142.117C168.49 140.049 171.334 138.416 174.388 137.287C176.255 136.482 180.144 133.206 180.828 133.995C181.512 134.784 181.818 135.959 180.828 137.392C179.838 138.825 174.211 140.958 175 142.769C175.322 143.502 177.093 143.639 177.093 143.639C180.307 143.865 183.531 143.929 186.753 143.832C189.602 143.582 192.162 144.13 192.009 145.112C191.856 146.094 191.325 146.633 188.966 146.834C186.608 147.036 182.768 146.883 182.526 147.422C182.285 147.961 183.122 148.308 184.499 148.227C185.875 148.147 192.363 148.122 192.806 148.863C192.914 149.051 192.979 149.261 192.996 149.477C193.013 149.692 192.981 149.91 192.904 150.112C192.827 150.314 192.706 150.497 192.55 150.648C192.394 150.798 192.207 150.911 192.001 150.98L190.48 151.52C190.48 151.52 191.365 152.751 190.625 153.435C189.884 154.12 188.21 153.878 188.21 153.878L179.604 153.637C179.604 153.637 179.113 154.152 179.355 154.506C179.596 154.86 186.342 154.369 186.39 155.11C186.439 155.85 187.026 156.189 185.014 156.72C182.066 157.211 179.058 157.211 176.11 156.72C174.291 156.221 166.668 155.915 166.668 155.915L163.424 149.789Z" fill="#FFBF9D"/>
<path d="M46.4649 153.709L36.507 145.449L30.7915 151.889L31.4919 155.037L43.9372 166.758C45.7822 165.7 47.1744 164.001 47.8495 161.984C49.0892 158.434 46.4649 153.709 46.4649 153.709Z" fill="#FFBF9D"/>
<path d="M36.3943 149.747C36.8225 148.399 36.8994 146.964 36.6176 145.578C36.3359 144.192 35.7048 142.9 34.7843 141.826C32.5191 139.475 29.8704 137.526 26.9516 136.062C25.1967 135.008 21.7191 131.337 20.9382 132.037C20.4752 132.455 20.1799 133.026 20.1074 133.646C20.0348 134.265 20.1899 134.889 20.5438 135.402C21.3488 136.94 25.2289 138.727 25.092 140.699C25.0778 140.89 25.026 141.076 24.9398 141.247C24.8536 141.418 24.7346 141.57 24.5896 141.695C24.4446 141.82 24.2764 141.915 24.0946 141.975C23.9129 142.034 23.7211 142.058 23.5303 142.044C20.3183 141.896 17.1157 141.587 13.9347 141.118C11.1252 140.538 8.52508 140.78 8.55728 141.77C8.58948 142.76 9.06443 143.38 11.3828 143.839C13.7012 144.298 17.5331 144.644 17.6619 145.167C17.7907 145.69 16.9776 145.972 15.6171 145.722C14.2567 145.473 7.81668 144.708 7.29343 145.392C7.16372 145.564 7.07381 145.763 7.03018 145.974C6.98654 146.185 6.99027 146.403 7.04109 146.613C7.09191 146.822 7.18855 147.018 7.32406 147.185C7.45957 147.353 7.63057 147.488 7.82473 147.582L9.27373 148.298C9.27373 148.298 8.25138 149.417 8.90343 150.182C9.55548 150.947 11.246 150.907 11.246 150.907L19.8273 151.663C19.8273 151.663 20.254 152.235 19.9642 152.557C19.6744 152.879 13.0492 151.607 12.9123 152.34C12.7755 153.072 12.1476 153.338 14.0957 154.062C16.9698 154.895 19.9619 155.246 22.9507 155.101C24.8183 154.819 32.4336 155.366 32.4336 155.366L36.3943 149.747Z" fill="#FFBF9D"/>
<path d="M107.54 101.006C107.002 101.678 106.404 102.301 105.753 102.865C104.618 103.976 103.065 105.53 101.422 107.301C101.076 107.679 100.73 108.05 100.408 108.412L100.191 108.645L99.9894 108.396C98.7175 106.786 97.6146 105.305 96.8418 104.25C96.3881 103.714 96.0015 103.125 95.6907 102.495C96.225 102.952 96.7058 103.468 97.1236 104.033C97.9688 105.031 99.128 106.448 100.416 108.058H100.005L101.012 106.939C102.426 105.41 103.92 103.956 105.488 102.584C106.105 101.976 106.794 101.446 107.54 101.006Z" fill="#263238"/>
<path d="M61.623 120.502C61.771 120.857 61.8711 121.231 61.9209 121.613C62.0738 122.337 62.267 123.392 62.4763 124.696C62.8949 127.304 63.3377 130.927 63.708 134.936C64.0783 138.945 64.352 142.583 64.5613 145.216C64.6418 146.439 64.7223 147.478 64.7786 148.331C64.8291 148.713 64.8291 149.1 64.7786 149.482C64.6638 149.115 64.5882 148.738 64.5532 148.355C64.4405 147.622 64.3037 146.56 64.1588 145.248C63.8529 142.631 63.5148 139.001 63.1445 134.992C62.7742 130.983 62.4119 127.369 62.098 124.793C61.945 123.577 61.8162 122.539 61.7116 121.693C61.6284 121.302 61.5986 120.901 61.623 120.502Z" fill="#263238"/>
<path d="M124.606 118.676C124.721 119.132 124.789 119.599 124.808 120.068C124.896 120.978 124.993 122.282 125.073 123.908C125.258 127.128 125.347 131.636 125.363 136.579V153.09C125.389 153.56 125.37 154.032 125.307 154.498C125.202 154.039 125.151 153.569 125.154 153.098C125.089 152.188 125.025 150.876 124.977 149.258C124.864 146.038 124.824 141.53 124.816 136.587C124.808 131.644 124.767 127.161 124.687 123.924C124.647 122.387 124.614 121.099 124.59 120.085C124.552 119.615 124.557 119.144 124.606 118.676Z" fill="#263238"/>
<path d="M53.4522 165.123C53.2003 164.209 53.0147 163.279 52.8968 162.338C52.5196 160.092 51.7915 157.918 50.7394 155.898C49.6657 153.917 48.0523 152.282 46.0865 151.181C45.2411 150.777 44.3666 150.438 43.4702 150.166C43.7354 150.109 44.01 150.109 44.2752 150.166C44.9726 150.283 45.6502 150.497 46.2877 150.802C48.4029 151.857 50.1364 153.546 51.2465 155.632C52.3118 157.706 52.9884 159.957 53.2429 162.274C53.4324 163.211 53.5027 164.168 53.4522 165.123Z" fill="#263238"/>
<path d="M56.0364 154.248C55.9237 154.377 54.3217 152.727 51.7135 151.833C49.1053 150.94 46.8835 151.246 46.8352 151.077C46.7869 150.908 49.1456 150.36 51.8906 151.318C54.6357 152.276 56.1571 154.184 56.0364 154.248Z" fill="#263238"/>
<path d="M96.8901 191.656C96.8413 191.358 96.8197 191.057 96.8257 190.755C96.8257 190.119 96.8257 189.258 96.7693 188.179C96.721 185.885 96.6566 182.657 96.5761 178.688C96.391 170.638 96.1334 159.585 95.8436 147.381C95.5538 135.177 95.4008 124.076 95.4169 116.059C95.4169 112.034 95.4572 108.814 95.5055 106.56C95.5055 105.481 95.5618 104.62 95.586 103.984C95.5792 103.682 95.6008 103.38 95.6504 103.082C95.6728 103.382 95.6728 103.684 95.6504 103.984C95.6504 104.62 95.6504 105.481 95.6504 106.56C95.6504 108.854 95.6987 112.09 95.7309 116.051C95.8114 124.101 96.0448 135.137 96.3185 147.365C96.5922 159.593 96.8337 170.662 96.8981 178.68C96.8981 182.705 96.8981 185.925 96.8981 188.179C96.8981 189.258 96.8981 190.119 96.8579 190.755C96.8892 191.054 96.8999 191.356 96.8901 191.656Z" fill="#263238"/>
<path d="M45.9979 153.37C45.9979 153.305 46.8029 153.909 47.4469 155.246C47.8415 156.007 48.1287 156.82 48.3002 157.661C48.4655 158.728 48.4655 159.814 48.3002 160.881C48.18 161.949 47.8634 162.986 47.3664 163.94C46.936 164.713 46.3427 165.383 45.6276 165.904C44.9987 166.426 44.2068 166.71 43.3896 166.709C44.0971 166.416 44.7673 166.041 45.3861 165.59C46.0209 165.069 46.5439 164.426 46.9236 163.698C47.3544 162.788 47.6266 161.81 47.7286 160.808C47.8735 159.804 47.8735 158.785 47.7286 157.781C47.5903 156.952 47.3553 156.141 47.0283 155.366C46.5292 154.086 45.9174 153.418 45.9979 153.37Z" fill="#263238"/>
<path d="M155.937 166.967C155.937 166.967 155.679 166.967 155.269 166.765C154.693 166.511 154.151 166.184 153.659 165.791C151.972 164.492 150.818 162.621 150.415 160.531C150.012 158.44 150.387 156.274 151.469 154.441C151.785 153.89 152.169 153.381 152.612 152.927C152.926 152.621 153.128 152.476 153.152 152.501C153.176 152.525 152.508 153.249 151.807 154.626C150.871 156.407 150.569 158.453 150.951 160.428C151.333 162.404 152.376 164.19 153.908 165.493C155.06 166.508 155.977 166.878 155.937 166.967Z" fill="#263238"/>
<path d="M176.408 140.41C176.473 140.475 176.006 140.917 175.418 141.698C175.08 142.145 174.846 142.662 174.734 143.212C174.605 143.831 174.621 144.556 174.509 145.353C174.413 146.037 174.182 146.695 173.829 147.29C173.477 147.884 173.01 148.402 172.456 148.814C172.032 149.196 171.495 149.428 170.926 149.474C170.886 149.386 171.482 149.161 172.214 148.508C173.157 147.673 173.778 146.534 173.969 145.288C174.022 144.56 174.114 143.834 174.243 143.115C174.397 142.515 174.695 141.963 175.112 141.505C175.45 141.042 175.895 140.666 176.408 140.41Z" fill="#FF9A6C"/>
<path d="M21.1394 148.879C21.1394 149.024 18.4588 149.169 15.1502 149.008C11.8417 148.847 9.18514 148.46 9.20124 148.307C9.21734 148.155 11.8819 148.307 15.1744 148.46C18.4668 148.613 21.1394 148.718 21.1394 148.879Z" fill="#FF9A6C"/>
<path d="M27.2332 148.42C27.2332 148.477 26.5973 148.372 25.8406 147.736C25.3505 147.31 24.9606 146.781 24.699 146.187C24.4374 145.592 24.3104 144.948 24.3272 144.299C24.3845 143.612 24.5085 142.933 24.6975 142.27C24.8384 141.745 24.9061 141.203 24.8987 140.66C24.8525 140.175 24.7415 139.699 24.5687 139.243C24.5687 139.187 25.1563 139.613 25.2851 140.628C25.3502 141.198 25.3175 141.775 25.1885 142.334C25.037 142.973 24.9321 143.621 24.8746 144.274C24.8575 145.442 25.2998 146.569 26.1062 147.414C26.7261 148.138 27.2735 148.34 27.2332 148.42Z" fill="#FF9A6C"/>
<path d="M177.906 150.328C177.906 150.175 180.779 150.288 184.289 150.578C187.799 150.867 190.641 151.238 190.633 151.383C190.625 151.528 187.759 151.423 184.249 151.125C180.739 150.827 177.897 150.473 177.906 150.328Z" fill="#FF9A6C"/>
<path d="M95.0386 101.971C94.717 103.043 94.3106 104.087 93.823 105.095C93.6057 105.578 93.3803 106.101 93.1468 106.64C92.9159 107.255 92.6471 107.854 92.3418 108.435C92.2256 108.626 92.0566 108.78 91.8552 108.877C91.6538 108.974 91.4286 109.011 91.2068 108.983C90.8168 108.88 90.4541 108.693 90.1442 108.435L88.2444 107.139C85.6522 105.352 83.3258 103.702 81.6514 102.494C80.7152 101.882 79.832 101.193 79.011 100.434C80.0083 100.936 80.9639 101.518 81.8687 102.172C83.5995 103.307 85.9662 104.893 88.5583 106.688L90.4501 107.993C90.6968 108.206 90.9844 108.368 91.2953 108.468C91.4222 108.483 91.5508 108.459 91.6642 108.401C91.7776 108.342 91.8707 108.25 91.9313 108.137C92.5431 107.027 93.0502 105.827 93.5413 104.917C93.9576 103.895 94.4584 102.91 95.0386 101.971Z" fill="#263238"/>
<path d="M36.5277 145.629C36.8095 147.015 36.7326 148.45 36.3044 149.798L32.3438 155.417C32.3438 155.417 27.4946 155.069 24.5863 155.071C26.6368 153.164 27.9101 150.499 27.9101 147.55C27.9101 144.8 27.3131 142.872 25.5 141C25.3427 139.927 23.5779 138.334 22.4076 137.386C21.568 136.705 20.7715 136.06 20.4539 135.453C20.1 134.94 19.9449 134.315 20.0175 133.696C20.09 133.077 20.3854 132.506 20.8483 132.088C21.3504 131.638 22.9673 132.995 24.5243 134.301C25.389 135.027 26.2351 135.737 26.8617 136.113C29.7806 137.576 32.4292 139.525 34.6944 141.877C35.6149 142.951 36.246 144.242 36.5277 145.629Z" fill="#FFBF9D"/>
<path d="M95.3245 30.0574C95.258 30.0574 95.2041 30.0034 95.2041 29.9369C95.2177 28.6587 95.3537 27.6415 95.6122 26.8853C95.8707 26.1291 96.2381 25.5167 96.7143 25.0483C97.1905 24.5798 97.7619 24.1482 98.4286 23.7533C98.8299 23.5124 99.1905 23.228 99.5102 22.9001C99.8299 22.5655 100.082 22.1807 100.265 21.7457C100.456 21.3107 100.551 20.8289 100.551 20.3002C100.551 19.6444 100.395 19.0755 100.082 18.5937C99.7687 18.1119 99.3503 17.7404 98.8265 17.4794C98.3027 17.2185 97.7211 17.088 97.0816 17.088C96.5238 17.088 95.9864 17.2017 95.4694 17.4293C94.9524 17.6568 94.5204 18.0148 94.1735 18.5033C94.0209 18.7182 93.8966 18.9623 93.8005 19.2354C93.5745 19.8786 93.0424 20.4207 92.3606 20.4207C91.6199 20.4207 91.0113 19.7937 91.1974 19.0768C91.3483 18.4957 91.5818 17.9699 91.898 17.4995C92.449 16.6898 93.1735 16.0707 94.0714 15.6424C94.9762 15.2141 95.9796 15 97.0816 15C98.2789 15 99.3197 15.2342 100.204 15.7027C101.095 16.1711 101.782 16.8136 102.265 17.63C102.755 18.4465 103 19.3767 103 20.4207C103 21.1568 102.884 21.8227 102.653 22.4183C102.429 23.0139 102.102 23.5459 101.673 24.0143C101.252 24.4828 100.741 24.8977 100.143 25.2591C99.5442 25.6272 99.0646 26.0153 98.7041 26.4235C98.3435 26.825 98.0816 27.3035 97.9184 27.859C97.7551 28.4144 97.6667 29.1071 97.6531 29.9369C97.6531 30.0034 97.5991 30.0574 97.5326 30.0574H95.3245ZM96.5102 36C96.0068 36 95.5748 35.8227 95.2143 35.468C94.8537 35.1133 94.6735 34.6883 94.6735 34.1931C94.6735 33.6979 94.8537 33.2729 95.2143 32.9183C95.5748 32.5636 96.0068 32.3862 96.5102 32.3862C97.0136 32.3862 97.4456 32.5636 97.8061 32.9183C98.1667 33.2729 98.3469 33.6979 98.3469 34.1931C98.3469 34.521 98.2619 34.8222 98.0918 35.0966C97.9286 35.3709 97.7075 35.5918 97.4286 35.7591C97.1565 35.9197 96.8503 36 96.5102 36Z" fill="white"/>
<path d="M117.687 32.7458C117.657 32.7151 117.658 32.6659 117.688 32.6361C118.286 32.0698 118.817 31.6771 119.283 31.458C119.749 31.2388 120.196 31.1344 120.626 31.1449C121.056 31.1553 121.512 31.2263 121.993 31.3579C122.285 31.4357 122.578 31.475 122.873 31.4761C123.171 31.4741 123.462 31.4182 123.745 31.3083C124.032 31.2015 124.297 31.0297 124.542 30.7929C124.845 30.4991 125.038 30.1719 125.121 29.8113C125.204 29.4507 125.188 29.0908 125.074 28.7315C124.96 28.3723 124.76 28.0447 124.474 27.7489C124.224 27.4908 123.93 27.2932 123.594 27.1559C123.257 27.0186 122.898 26.9792 122.516 27.0375C122.348 27.0632 122.18 27.115 122.01 27.1929C121.612 27.3765 121.122 27.3731 120.817 27.0577C120.485 26.7151 120.503 26.1526 120.918 25.9176C121.254 25.7271 121.602 25.5996 121.961 25.5351C122.583 25.4273 123.194 25.4852 123.794 25.7087C124.397 25.9355 124.946 26.3037 125.44 26.8136C125.976 27.3675 126.334 27.9539 126.513 28.5729C126.696 29.195 126.706 29.8007 126.545 30.3899C126.387 30.9822 126.066 31.5122 125.583 31.9799C125.243 32.3096 124.883 32.5544 124.504 32.7142C124.127 32.8772 123.735 32.9644 123.326 32.976C122.921 32.9907 122.5 32.9406 122.065 32.8255C121.626 32.7134 121.232 32.6654 120.882 32.6815C120.534 32.6946 120.196 32.7877 119.866 32.961C119.535 33.1343 119.175 33.4037 118.785 33.7691C118.755 33.7989 118.705 33.7981 118.676 33.7674L117.687 32.7458ZM115.468 35.9564C115.243 35.7236 115.131 35.4443 115.134 35.1186C115.137 34.7929 115.252 34.5191 115.482 34.2973C115.711 34.0755 115.988 33.9685 116.314 33.9764C116.639 33.9843 116.915 34.1047 117.14 34.3376C117.366 34.5705 117.477 34.8498 117.475 35.1755C117.472 35.5012 117.356 35.7749 117.127 35.9968C116.975 36.1437 116.798 36.2392 116.595 36.2835C116.395 36.3308 116.194 36.3275 115.991 36.2734C115.795 36.2195 115.621 36.1138 115.468 35.9564Z" fill="white"/>
<path d="M72.8257 36.3521C72.7954 36.3824 72.7463 36.3824 72.716 36.3521C72.1402 35.7639 71.7389 35.2387 71.5123 34.7767C71.2856 34.3146 71.1741 33.8685 71.1776 33.4384C71.1811 33.0082 71.2448 32.5515 71.3686 32.0681C71.4416 31.7756 71.4763 31.4819 71.4726 31.187C71.4658 30.8891 71.4052 30.5992 71.2907 30.3175C71.1794 30.0327 71.0034 29.7699 70.7626 29.5292C70.464 29.2306 70.1337 29.0428 69.7718 28.9659C69.4099 28.889 69.0503 28.9103 68.6929 29.03C68.3355 29.1497 68.0113 29.3551 67.7201 29.6463C67.4661 29.9003 67.2732 30.1968 67.1414 30.5359C67.0095 30.8749 66.9759 31.2346 67.0403 31.6151C67.0687 31.7824 67.1232 31.9501 67.2039 32.1182C67.3938 32.514 67.3984 33.0032 67.0879 33.3136C66.7506 33.6509 66.188 33.6425 65.9463 33.2313C65.7504 32.898 65.6173 32.5523 65.5471 32.1941C65.4293 31.5745 65.4773 30.9627 65.6911 30.3588C65.9081 29.7518 66.2675 29.1973 66.7693 28.6955C67.3145 28.1503 67.8951 27.783 68.5111 27.5937C69.1302 27.4012 69.7356 27.3809 70.3273 27.5327C70.9222 27.6814 71.4572 27.9935 71.9326 28.4689C72.2678 28.8041 72.5184 29.16 72.6843 29.5365C72.8533 29.9099 72.9468 30.3009 72.965 30.7093C72.9863 31.1147 72.9429 31.536 72.8348 31.9731C72.7298 32.4133 72.6882 32.8085 72.7099 33.1585C72.7286 33.5055 72.8272 33.8427 73.0058 34.17C73.1844 34.4972 73.4595 34.8529 73.8312 35.237C73.8615 35.2673 73.8615 35.3164 73.8312 35.3467L72.8257 36.3521ZM76.0716 38.5182C75.8424 38.7475 75.5649 38.8634 75.2393 38.8661C74.9136 38.8688 74.638 38.7573 74.4125 38.5318C74.187 38.3063 74.0756 38.0307 74.0782 37.7051C74.0809 37.3794 74.1968 37.1019 74.4261 36.8727C74.6553 36.6435 74.9328 36.5275 75.2584 36.5248C75.5841 36.5222 75.8597 36.6336 76.0852 36.8591C76.2345 37.0084 76.333 37.1843 76.3805 37.3866C76.431 37.5859 76.4309 37.7872 76.3801 37.9904C76.3293 38.1874 76.2265 38.3634 76.0716 38.5182Z" fill="white"/>
<path d="M136.949 35.7807C137.099 36.1052 136.954 36.4896 136.628 36.6349L131.563 38.8895C131.282 39.0145 130.953 38.8908 130.824 38.6117C130.695 38.3327 130.814 38.0018 131.091 37.8689L136.09 35.4718C136.413 35.3173 136.799 35.4563 136.949 35.7807ZM128.361 39.7503C128.262 39.5363 128.251 39.3187 128.327 39.0975C128.403 38.8763 128.544 38.7182 128.749 38.6234C128.954 38.5285 129.166 38.5237 129.384 38.609C129.601 38.6943 129.76 38.844 129.859 39.0579C129.958 39.2719 129.969 39.4895 129.893 39.7107C129.817 39.9319 129.676 40.09 129.471 40.1849C129.335 40.2477 129.193 40.2692 129.046 40.2495C128.9 40.2327 128.765 40.181 128.641 40.0945C128.521 40.0096 128.428 39.8949 128.361 39.7503Z" fill="#263238"/>
<path d="M78.9435 23.3679C79.1621 23.2619 79.4253 23.3552 79.5282 23.5754L81.1247 26.9902C81.2132 27.1795 81.1333 27.4049 80.9452 27.4961C80.7571 27.5873 80.5307 27.5105 80.4369 27.3237L78.7443 23.9555C78.6352 23.7384 78.7248 23.4739 78.9435 23.3679ZM81.7502 29.1563C81.606 29.2262 81.4582 29.2367 81.3069 29.1877C81.1555 29.1387 81.0463 29.045 80.9792 28.9067C80.9122 28.7683 80.9062 28.6245 80.9615 28.4754C81.0167 28.3262 81.1165 28.2166 81.2607 28.1467C81.4049 28.0768 81.5527 28.0663 81.704 28.1153C81.8554 28.1643 81.9646 28.258 82.0317 28.3963C82.0761 28.488 82.0925 28.5839 82.081 28.6842C82.0714 28.7835 82.038 28.8759 81.9807 28.9614C81.9245 29.0441 81.8477 29.1091 81.7502 29.1563Z" fill="#263238"/>
<path d="M112.164 19.2391C112.385 19.3384 112.483 19.6 112.381 19.8204L110.791 23.2384C110.703 23.4279 110.479 23.5115 110.288 23.4261C110.097 23.3406 110.01 23.1178 110.093 22.9259L111.585 19.4642C111.682 19.241 111.942 19.1397 112.164 19.2391ZM109.534 25.1099C109.387 25.0444 109.284 24.9379 109.225 24.7905C109.165 24.6431 109.166 24.4992 109.229 24.3589C109.292 24.2185 109.398 24.1216 109.548 24.068C109.698 24.0145 109.846 24.0204 109.992 24.086C110.139 24.1515 110.242 24.258 110.301 24.4054C110.361 24.5528 110.36 24.6967 110.297 24.837C110.255 24.93 110.192 25.0042 110.108 25.0598C110.026 25.1163 109.933 25.1501 109.831 25.1612C109.732 25.1713 109.632 25.1542 109.534 25.1099Z" fill="#263238"/>
<path d="M162.157 168.713L154.571 148.672C154.524 148.549 154.542 148.414 154.621 148.298C154.699 148.182 154.833 148.094 154.991 148.053C169.125 144.348 185.958 140.09 191 138.971C191.157 138.936 191.323 138.95 191.464 139.009C191.605 139.068 191.709 139.168 191.757 139.288L199.351 159.352C199.375 159.414 199.382 159.479 199.373 159.544C199.363 159.608 199.338 159.671 199.298 159.729C199.258 159.787 199.204 159.838 199.139 159.879C199.074 159.921 198.999 159.952 198.92 159.972L162.939 169.017C162.781 169.057 162.611 169.048 162.465 168.991C162.319 168.935 162.208 168.834 162.157 168.713Z" fill="#6D6D6D"/>
<path d="M162.603 168.295L154.838 148.33L155.685 146.337L192.422 136.777L199.621 157.7L198.611 159.129L162.603 168.295Z" fill="white"/>
<path d="M162.603 168.294L163.909 165.849L199.849 157.26L198.611 159.128L162.603 168.294Z" fill="#F5F5F5"/>
<path d="M163.257 166.327L155.565 146.015C155.518 145.891 155.535 145.756 155.614 145.64C155.693 145.524 155.826 145.436 155.985 145.395C170.115 141.685 186.951 137.429 191.994 136.313C192.151 136.278 192.318 136.293 192.46 136.353C192.601 136.413 192.705 136.515 192.75 136.636L200.447 156.966C200.492 157.09 200.473 157.224 200.394 157.34C200.314 157.456 200.181 157.544 200.023 157.585L164.039 166.631C163.881 166.671 163.711 166.662 163.564 166.605C163.418 166.549 163.308 166.448 163.257 166.327Z" fill="#FFD000"/>
<path d="M156.053 147.307C156.053 147.307 164.293 145.202 174.475 142.645C184.658 140.087 192.901 138.027 192.902 138.045C192.903 138.063 184.669 140.146 174.479 142.707C164.289 145.268 156.061 147.324 156.053 147.307Z" fill="#6D6D6D"/>
<path d="M164.686 164.485L158.478 148.127L191.969 139.71L198.178 156.068L164.686 164.485ZM159.257 148.44L165.103 163.866L197.399 155.754L191.549 140.323L159.257 148.44Z" fill="#6D6D6D"/>
<path d="M165.181 157.07L163.887 153.654L162.654 153.964L163.947 157.38L165.181 157.07Z" fill="#6D6D6D"/>
<path d="M193.534 149.389L192.931 147.797L191.698 148.107L192.301 149.699L193.534 149.389Z" fill="#6D6D6D"/>
<path d="M189.842 155.814L185.302 143.82L179.804 145.202L184.344 157.196L189.842 155.814Z" fill="#FFD000"/>
<path d="M182.157 155.77L178.813 146.938L176.497 147.52L179.84 156.352L182.157 155.77Z" fill="#FFD000"/>
<path d="M187.799 138.611L187.334 137.383L186.338 137.633L186.803 138.862L187.799 138.611Z" fill="#6D6D6D"/>
<path d="M186.265 138.998L185.8 137.77L184.804 138.02L185.269 139.248L186.265 138.998Z" fill="#6D6D6D"/>
<path d="M159.668 145.683L159.237 144.545L158.241 144.795L158.672 145.933L159.668 145.683Z" fill="#6D6D6D"/>
<g opacity="0.3">
<path d="M182.52 139.938L182.055 138.709L164.945 143.01L165.41 144.238L182.52 139.938Z" fill="#FFD000"/>
</g>
<path d="M199.006 158.448L198.844 158.493L198.374 158.613L196.57 159.074L189.919 160.75C184.301 162.166 176.54 164.12 167.971 166.278C166.208 166.721 164.482 167.153 162.831 167.57L162.793 167.572L162.792 167.542L157.364 153.171L155.769 148.924L155.327 147.782L155.22 147.489L155.188 147.389L155.228 147.488L155.343 147.781L155.785 148.921L157.402 153.163L162.856 167.535L162.809 167.517L167.946 166.223C176.519 164.073 184.284 162.125 189.901 160.712C192.714 160.01 194.985 159.445 196.561 159.05C197.347 158.856 197.956 158.704 198.37 158.602C198.577 158.552 198.746 158.51 198.844 158.487C198.942 158.464 199.006 158.448 199.006 158.448Z" fill="#6D6D6D"/>
</g>
<defs>
<clipPath id="clip0_662_26346">
<rect width="200" height="200" fill="white"/>
</clipPath>
</defs>
</svg>
