<svg width="200" height="200" viewBox="0 0 200 200" fill="none" xmlns="http://www.w3.org/2000/svg">
<path fill-rule="evenodd" clip-rule="evenodd" d="M96.6489 40.0786C72.5164 41.5624 60.8087 65.3973 46.0572 82.1754C34.101 95.7741 23.0389 109.409 20.7142 126.445C18.0291 146.122 16.4425 168.605 32.3369 182.721C48.2827 196.882 74.0361 195.809 96.6489 193.883C119.863 194.322 138.62 187.342 149.552 172.737C165.068 160.174 178.921 144.922 179.935 126.445C180.989 107.244 169.055 90.1752 154.888 75.4837C139.04 59.05 121.162 38.5713 96.6489 40.0786Z" fill="#FFF3CC"/>
<path d="M107.94 44.8647L107.07 44.8164C102.876 44.5763 98.7456 45.9237 95.4999 48.5907C92.2541 51.2577 90.1313 55.0488 89.5536 59.2099C88.4427 67.2599 89.7307 68.6774 89.5536 73.0002C89.1431 81.968 97.816 88.5002 97.816 88.5002L95.2933 94.952C95.1675 96.3825 95.3256 97.8237 95.7585 99.1929C96.1915 100.562 96.8907 101.832 97.816 102.93C98.7413 104.029 99.8745 104.933 101.151 105.592C102.426 106.251 103.82 106.651 105.251 106.769C108.103 106.998 110.93 106.096 113.123 104.259C115.316 102.422 116.698 99.796 116.972 96.9484L120.192 63.6937C121.496 54.4362 117.23 45.9515 107.94 44.8647Z" fill="#FFBF9D"/>
<path d="M98 88.5007C102.149 88.7417 106.371 87.6491 110 85.6777C110 85.6777 105.881 91.7827 97 90.5007L98 88.5007Z" fill="#FF9A6C"/>
<path d="M104.004 68.3284C103.975 68.7349 104.102 69.1368 104.357 69.447C104.613 69.7572 104.976 69.9508 105.368 69.9858C105.559 70.0133 105.753 70.0008 105.939 69.9492C106.125 69.8975 106.299 69.8078 106.451 69.6852C106.603 69.5627 106.729 69.4099 106.823 69.2358C106.917 69.0617 106.976 68.8698 106.997 68.6716C107.021 68.2663 106.892 67.8672 106.638 67.5581C106.384 67.249 106.023 67.054 105.633 67.0142C105.442 66.9867 105.248 66.9992 105.062 67.0509C104.876 67.1025 104.702 67.1922 104.55 67.3148C104.398 67.4373 104.272 67.5901 104.178 67.7642C104.084 67.9383 104.025 68.1302 104.004 68.3284Z" fill="#263238"/>
<path d="M91.212 63.701C91.3649 63.8781 92.3712 63.21 93.7477 63.2985C95.1243 63.3871 96.0984 64.1035 96.2513 63.9667C96.4043 63.8298 96.1869 63.5883 95.7683 63.2422C95.1958 62.793 94.4986 62.5316 93.7719 62.4935C93.0568 62.4539 92.3472 62.6397 91.7433 63.0248C91.3166 63.3227 91.1556 63.6125 91.212 63.701Z" fill="#263238"/>
<path d="M92.0028 68.3284C91.9789 68.7337 92.1076 69.1328 92.3621 69.4419C92.6165 69.751 92.9767 69.946 93.3671 69.9858C93.5579 70.0133 93.752 70.0008 93.938 69.9491C94.1241 69.8975 94.2982 69.8078 94.4501 69.6852C94.6021 69.5627 94.7287 69.4099 94.8226 69.2358C94.9165 69.0617 94.9756 68.8698 94.9966 68.6716C95.023 68.2657 94.8951 67.8652 94.6402 67.5556C94.3854 67.2459 94.0237 67.0516 93.6323 67.0142C93.4416 66.9867 93.2474 66.9992 93.0614 67.0509C92.8754 67.1025 92.7012 67.1922 92.5493 67.3148C92.3974 67.4373 92.2707 67.5901 92.1769 67.7642C92.083 67.9383 92.0238 68.1302 92.0028 68.3284Z" fill="#263238"/>
<path d="M104.744 64.7316C104.889 64.9087 105.903 64.2486 107.28 64.3291C108.656 64.4096 109.622 65.1341 109.783 64.9973C109.944 64.8604 109.719 64.6189 109.292 64.2728C108.724 63.8278 108.033 63.5691 107.312 63.5322C106.596 63.4864 105.885 63.6727 105.283 64.0635C104.833 64.3613 104.672 64.6511 104.744 64.7316Z" fill="#263238"/>
<path d="M99.1652 74.6567C98.4536 74.3823 97.7095 74.201 96.9514 74.1173C96.5972 74.061 96.2752 73.9724 96.2269 73.7309C96.2149 73.3658 96.3162 73.0059 96.5167 72.7005C96.9031 71.8955 97.3217 71.002 97.7162 70.0843C99.3745 66.3571 100.598 63.29 100.453 63.2256C100.308 63.1612 98.8432 66.1237 97.1688 69.8508C96.7663 70.7685 96.3638 71.646 96.0176 72.4832C95.7753 72.8956 95.6816 73.3786 95.752 73.8517C95.7956 73.9799 95.8685 74.0961 95.9649 74.1911C96.0613 74.2862 96.1786 74.3574 96.3074 74.3991C96.497 74.4654 96.6947 74.506 96.8951 74.5198C97.6438 74.6547 98.4057 74.7006 99.1652 74.6567Z" fill="#263238"/>
<path d="M104.641 60.4005C104.761 60.7788 106.146 60.6822 107.748 60.972C109.35 61.2618 110.63 61.777 110.863 61.447C110.968 61.294 110.759 60.9318 110.26 60.5373C109.582 60.0516 108.803 59.7266 107.982 59.5871C107.16 59.4476 106.318 59.4973 105.518 59.7323C104.914 59.9416 104.592 60.2153 104.641 60.4005Z" fill="#263238"/>
<path d="M91.9137 60.827C92.1311 61.149 93.0971 60.8833 94.2402 60.9316C95.3833 60.9799 96.3332 61.2617 96.5747 60.9316C96.6793 60.7787 96.5747 60.4567 96.148 60.1266C95.6025 59.7358 94.9513 59.5197 94.2804 59.5068C93.608 59.4784 92.9436 59.6614 92.3806 60.03C91.962 60.352 91.8091 60.666 91.9137 60.827Z" fill="#263238"/>
<path d="M90.6564 55.1525C90.6564 55.1525 93.337 49.6784 96.1223 48.5192C99.4872 47.1266 100.687 50.8054 103.858 50.1292C107.03 49.453 110.242 48.1006 113.293 50.6927C116.626 53.5344 114.903 55.2974 114.903 59.2821C114.855 75.4385 117.535 80.1639 118.807 72.629C118.944 71.824 121.295 71.2686 121.834 67.799C122.543 63.2749 123.034 57.7526 122.204 54.4602C121.504 51.6909 120.063 49.7187 117.374 47.4808C113.164 43.9549 107.135 43.5363 103.005 43.7134C98.8754 43.8905 90.6805 48.1006 90.6564 55.1525Z" fill="#263238"/>
<path d="M118.22 72.3236C118.247 71.9929 118.342 71.6713 118.499 71.3788C118.655 71.0864 118.871 70.8295 119.131 70.624C119.392 70.4185 119.692 70.269 120.013 70.1847C120.334 70.1004 120.669 70.0831 120.997 70.134C122.655 70.3916 124.458 71.4462 124.153 74.8916C123.605 81.0016 117.584 79.1903 117.584 79.0132C117.584 78.8361 117.97 74.8835 118.22 72.3236Z" fill="#FFBF9D"/>
<path d="M119.105 76.8303C119.105 76.8303 119.202 76.9188 119.379 77.0154C119.626 77.1475 119.914 77.1793 120.184 77.104C120.844 76.9269 121.48 75.9448 121.609 74.85C121.673 74.3266 121.617 73.7955 121.448 73.2963C121.408 73.1011 121.321 72.9186 121.195 72.7643C121.068 72.6101 120.907 72.4888 120.723 72.4108C120.604 72.3686 120.474 72.3688 120.356 72.4113C120.237 72.4538 120.136 72.5361 120.071 72.6443C119.967 72.8053 119.999 72.934 119.967 72.9421C119.934 72.9501 119.846 72.8294 119.918 72.5798C119.964 72.4305 120.061 72.3022 120.192 72.2176C120.372 72.1045 120.589 72.0669 120.796 72.1129C121.041 72.1861 121.264 72.3205 121.443 72.5036C121.621 72.6868 121.751 72.9125 121.818 73.1595C122.031 73.7126 122.106 74.3096 122.035 74.8983C121.882 76.1299 121.15 77.2247 120.248 77.4018C120.08 77.4353 119.907 77.4302 119.741 77.387C119.575 77.3438 119.421 77.2635 119.29 77.1523C119.105 76.9832 119.081 76.8464 119.105 76.8303Z" fill="#FF9A6C"/>
<path d="M89.3524 48.5191C90.2943 47.8107 91.5903 47.7141 92.5241 46.9977C96.6835 43.8042 103.387 37.7091 109.111 40.8959C111.289 42.1085 114.038 42.2125 115.982 43.6006C116.547 44.0475 117.013 44.608 117.348 45.2458C117.684 45.8835 117.882 46.5845 117.93 47.3036C117.93 47.3036 118.566 46.9816 120.498 48.5111C121.73 49.4851 122.736 51.5862 123.187 53.0835C123.855 55.3294 122.881 57.6962 121.923 59.8294C121.408 60.9806 120.764 62.2444 119.564 62.655C118.107 63.146 116.497 62.0029 115.926 60.57C115.354 59.1371 114.452 57.6962 113.76 56.3196C112.553 53.9046 111.345 51.6989 112.335 50.1694C109.07 49.1089 106.906 51.0056 104.003 52.0289C102.783 52.4594 97.8575 53.276 96.4995 52.9513C96.0607 52.8464 95.6512 52.6439 95.3014 52.359C94.7484 53.2599 93.8762 53.9194 92.8587 54.2059C91.8411 54.4923 90.753 54.3848 89.8112 53.9046C87.9919 52.7776 87.6699 49.791 89.3524 48.5191Z" fill="#263238"/>
<path d="M122.535 58.3875C122.252 58.8294 122.015 59.2987 121.826 59.7882C121.606 60.2826 121.258 60.7102 120.82 61.0279C120.234 61.3278 119.559 61.405 118.92 61.2452C118.256 61.1164 117.629 60.8414 117.085 60.4402C116.646 60.0994 116.246 59.7106 115.893 59.281C115.585 58.8596 115.243 58.4638 114.871 58.0977C115.067 58.5852 115.339 59.0388 115.676 59.442C116.013 59.9161 116.414 60.3413 116.867 60.7059C117.449 61.1447 118.124 61.4424 118.84 61.5753C119.565 61.7551 120.332 61.6484 120.981 61.2774C121.466 60.9224 121.835 60.4324 122.044 59.8687C122.268 59.397 122.433 58.8995 122.535 58.3875Z" fill="#B9B8B6"/>
<path d="M122.301 63.1146C121.933 63.394 121.526 63.619 121.094 63.7828C120.623 63.9318 120.126 63.9757 119.636 63.9116C119.036 63.8203 118.462 63.6007 117.954 63.2676C117.031 62.6266 116.248 61.805 115.652 60.8526C115.424 60.4394 115.154 60.0509 114.847 59.6934C114.988 60.1539 115.197 60.5907 115.467 60.9894C116.014 62.0378 116.806 62.9383 117.777 63.6137C118.33 63.9795 118.962 64.2085 119.62 64.2819C120.167 64.342 120.72 64.2674 121.23 64.0645C122.051 63.6701 122.341 63.1227 122.301 63.1146Z" fill="#B9B8B6"/>
<path d="M103.297 79.6289C103.503 79.9662 103.618 80.3164 103.638 80.6697C103.663 80.8368 103.617 81.0047 103.503 81.1618C103.389 81.319 103.211 81.4618 102.98 81.5804C102.74 81.7262 102.441 81.8432 102.104 81.9233C101.766 82.0034 101.398 82.0446 101.027 82.0439C100.356 82.0432 99.7074 81.92 99.1981 81.6964C98.6888 81.4729 98.3518 81.1636 98.2479 80.8242L98.0098 80.0558C99.3991 79.8525 103.194 79.6818 103.297 79.6289Z" fill="#FF9A6C"/>
<path d="M99.0522 81.1252C99.0522 81.1252 99.2472 81.1252 99.5693 81.1411C100.021 81.163 100.482 81.163 100.934 81.1411C101.587 81.1089 102.177 81.0007 102.587 80.8381C103.075 80.6348 103.307 80.3822 103.239 80.1285C103.22 79.9858 103.101 79.8462 102.892 79.7193L103.095 79.7485C101.646 79.8176 100.374 79.8734 99.476 79.9053C98.9928 79.9336 98.5011 79.9452 98.0098 79.9399C98.4676 79.884 98.9459 79.8465 99.4336 79.8282C100.332 79.7751 101.586 79.7033 103.036 79.6289H103.171L103.231 79.6661C103.556 79.8636 103.694 80.086 103.629 80.3073C103.565 80.5286 103.3 80.7395 102.866 80.9152C102.39 81.0951 101.709 81.2096 100.968 81.2341C100.486 81.2474 100.001 81.233 99.5354 81.1916C99.361 81.1806 99.1962 81.1579 99.0522 81.1252Z" fill="#263238"/>
<path d="M139.512 106.576C140.043 106.576 147.626 109.603 149.623 117.041C151.619 124.479 157.069 151.769 157.069 151.769L162.857 159.787C162.857 159.787 160.981 174.414 150.347 171.628C150.347 171.628 143.247 172.868 140.985 165.671C138.723 158.475 134.336 137.005 134.336 137.005L139.512 106.576Z" fill="#B9B8B6"/>
<path d="M117.853 94L121.88 100.196L140 106.752L134.814 160.234V185.5C115.5 197.5 77.2791 196.215 74.5409 195C73.1154 194.959 71.3195 191.408 71.0859 189.425C70.8846 187.645 71.038 185.841 71.5369 184.123L74.5409 173.403C74.0979 180.074 76.063 133.607 76.1516 131.911L71.7624 108.006L92.3795 99.5154L95.6009 94.5081L104.879 101.687L117.853 94Z" fill="#B9B8B6"/>
<path d="M71.3363 107.84C71.3363 107.84 67.1905 111.478 66.5063 114.28C65.822 117.081 50.9134 149.354 50.9134 149.354L43.5074 151.35L41.5271 155.456C40.3704 157.81 40.0591 160.49 40.6454 163.047C41.2318 165.603 42.6801 167.88 44.7471 169.495C45.0045 169.69 45.2733 169.871 45.5521 170.034C49.5771 172.449 56.7416 172.321 60.9357 167.378C64.9043 162.693 76.5205 145.852 76.5205 145.852V125.244L71.3363 107.84Z" fill="#B9B8B6"/>
<path d="M47.0495 152.59L36.3993 146.303L31.2634 152.59L32.326 155.633L46.0594 165.848C47.7643 164.457 48.9081 162.495 49.2794 160.326C49.8831 156.486 47.0495 152.59 47.0495 152.59Z" fill="#FFBF9D"/>
<path d="M50.4305 149.337C50.4305 149.442 51.3402 149.337 52.6765 149.788C54.4033 150.385 55.9323 151.446 57.0959 152.855C58.2458 154.295 59.1937 155.885 59.9134 157.581C60.1847 158.307 60.5215 159.008 60.9197 159.674C60.8123 158.901 60.5955 158.147 60.2757 157.436C59.6431 155.646 58.7093 153.977 57.5145 152.501C56.2929 151.009 54.6394 149.932 52.7811 149.418C52.0213 149.167 51.2057 149.139 50.4305 149.337Z" fill="#263238"/>
<path d="M36.5764 149.789C36.8418 148.399 36.7467 146.964 36.3 145.621C35.8532 144.277 35.0698 143.071 34.0245 142.117C31.5099 140.049 28.6664 138.416 25.6122 137.287C23.7446 136.482 19.8564 133.206 19.1722 133.995C18.4879 134.784 18.182 135.959 19.1722 137.392C20.1623 138.825 25.7893 140.958 25.0004 142.769C24.6784 143.502 22.9074 143.639 22.9074 143.639C19.6927 143.865 16.4686 143.929 13.2474 143.832C10.3977 143.582 7.83777 144.13 7.99072 145.112C8.14367 146.094 8.67497 146.633 11.0336 146.834C13.3923 147.036 17.2321 146.883 17.4736 147.422C17.7151 147.961 16.8779 148.308 15.5014 148.227C14.1248 148.147 7.63652 148.122 7.19377 148.863C7.0861 149.051 7.02143 149.261 7.00446 149.477C6.98749 149.692 7.01864 149.91 7.09563 150.112C7.17262 150.314 7.29354 150.497 7.44971 150.648C7.60588 150.798 7.79341 150.911 7.99878 150.98L9.52022 151.52C9.52022 151.52 8.63472 152.751 9.37532 153.435C10.1159 154.12 11.7903 153.878 11.7903 153.878L20.3958 153.637C20.3958 153.637 20.8869 154.152 20.6454 154.506C20.4039 154.86 13.6579 154.369 13.6096 155.11C13.5613 155.85 12.9737 156.189 14.9862 156.72C17.9336 157.211 20.9421 157.211 23.8895 156.72C25.7088 156.221 33.3322 155.915 33.3322 155.915L36.5764 149.789Z" fill="#FFBF9D"/>
<path d="M153.535 153.709L163.493 145.449L169.208 151.889L168.508 155.037L156.063 166.758C154.218 165.7 152.826 164.001 152.15 161.984C150.911 158.434 153.535 153.709 153.535 153.709Z" fill="#FFBF9D"/>
<path d="M163.606 149.747C163.178 148.399 163.101 146.964 163.382 145.578C163.664 144.192 164.295 142.9 165.216 141.826C167.481 139.475 170.13 137.526 173.048 136.062C174.803 135.008 178.281 131.337 179.062 132.037C179.525 132.455 179.82 133.026 179.893 133.646C179.965 134.265 179.81 134.889 179.456 135.402C178.651 136.94 174.771 138.727 174.908 140.699C174.922 140.89 174.974 141.076 175.06 141.247C175.146 141.418 175.265 141.57 175.41 141.695C175.555 141.82 175.724 141.915 175.905 141.975C176.087 142.034 176.279 142.058 176.47 142.044C179.682 141.896 182.884 141.587 186.065 141.118C188.875 140.538 191.475 140.78 191.443 141.77C191.411 142.76 190.936 143.38 188.617 143.839C186.299 144.298 182.467 144.644 182.338 145.167C182.209 145.69 183.022 145.972 184.383 145.722C185.743 145.473 192.183 144.708 192.707 145.392C192.836 145.564 192.926 145.763 192.97 145.974C193.013 146.185 193.01 146.403 192.959 146.613C192.908 146.822 192.811 147.018 192.676 147.185C192.54 147.353 192.369 147.488 192.175 147.582L190.726 148.298C190.726 148.298 191.749 149.417 191.097 150.182C190.445 150.947 188.754 150.907 188.754 150.907L180.173 151.663C180.173 151.663 179.746 152.235 180.036 152.557C180.326 152.879 186.951 151.607 187.088 152.34C187.225 153.072 187.852 153.338 185.904 154.062C183.03 154.895 180.038 155.246 177.049 155.101C175.182 154.819 167.566 155.366 167.566 155.366L163.606 149.747Z" fill="#FFBF9D"/>
<path d="M92.4597 101.006C92.9982 101.678 93.5964 102.301 94.2468 102.865C95.3819 103.976 96.9355 105.53 98.5777 107.301C98.9239 107.679 99.27 108.05 99.592 108.412L99.8094 108.645L100.011 108.396C101.283 106.786 102.385 105.305 103.158 104.25C103.612 103.714 103.999 103.125 104.309 102.495C103.775 102.952 103.294 103.468 102.876 104.033C102.031 105.031 100.872 106.448 99.584 108.058H99.9945L98.9883 106.939C97.5736 105.41 96.0796 103.956 94.5125 102.584C93.8949 101.976 93.2056 101.446 92.4597 101.006Z" fill="#263238"/>
<path d="M138.377 120.502C138.229 120.857 138.129 121.231 138.079 121.613C137.926 122.337 137.733 123.392 137.524 124.696C137.105 127.304 136.662 130.927 136.292 134.936C135.922 138.945 135.648 142.583 135.439 145.216C135.358 146.439 135.278 147.478 135.221 148.331C135.171 148.713 135.171 149.1 135.221 149.482C135.336 149.115 135.412 148.738 135.447 148.355C135.559 147.622 135.696 146.56 135.841 145.248C136.147 142.631 136.485 139.001 136.856 134.992C137.226 130.983 137.588 127.369 137.902 124.793C138.055 123.577 138.184 122.539 138.288 121.693C138.372 121.302 138.401 120.901 138.377 120.502Z" fill="#263238"/>
<path d="M75.3936 118.676C75.2787 119.132 75.2112 119.599 75.1924 120.068C75.1038 120.978 75.0072 122.282 74.9267 123.908C74.7416 127.128 74.653 131.636 74.6369 136.579V153.09C74.6111 153.56 74.6299 154.032 74.6933 154.498C74.7976 154.039 74.8489 153.569 74.8462 153.098C74.9106 152.188 74.975 150.876 75.0233 149.258C75.136 146.038 75.1763 141.53 75.1843 136.587C75.1924 131.644 75.2326 127.161 75.3131 123.924C75.3534 122.387 75.3856 121.099 75.4097 120.085C75.4479 119.615 75.4425 119.144 75.3936 118.676Z" fill="#263238"/>
<path d="M146.548 165.123C146.8 164.209 146.985 163.279 147.103 162.338C147.48 160.092 148.208 157.918 149.261 155.898C150.334 153.917 151.948 152.282 153.914 151.181C154.759 150.777 155.633 150.438 156.53 150.166C156.265 150.109 155.99 150.109 155.725 150.166C155.027 150.283 154.35 150.497 153.712 150.802C151.597 151.857 149.864 153.546 148.753 155.632C147.688 157.706 147.012 159.957 146.757 162.274C146.568 163.211 146.497 164.168 146.548 165.123Z" fill="#263238"/>
<path d="M143.964 154.248C144.076 154.377 145.678 152.727 148.286 151.833C150.895 150.94 153.116 151.246 153.165 151.077C153.213 150.908 150.854 150.36 148.109 151.318C145.364 152.276 143.843 154.184 143.964 154.248Z" fill="#263238"/>
<path d="M103.11 191.656C103.159 191.358 103.18 191.057 103.174 190.755C103.174 190.119 103.174 189.258 103.231 188.179C103.279 185.885 103.343 182.657 103.424 178.688C103.609 170.638 103.867 159.585 104.156 147.381C104.446 135.177 104.599 124.076 104.583 116.059C104.583 112.034 104.543 108.814 104.495 106.56C104.495 105.481 104.438 104.62 104.414 103.984C104.421 103.682 104.399 103.38 104.35 103.082C104.327 103.382 104.327 103.684 104.35 103.984C104.35 104.62 104.35 105.481 104.35 106.56C104.35 108.854 104.301 112.09 104.269 116.051C104.189 124.101 103.955 135.137 103.681 147.365C103.408 159.593 103.166 170.662 103.102 178.68C103.102 182.705 103.102 185.925 103.102 188.179C103.102 189.258 103.102 190.119 103.142 190.755C103.111 191.054 103.1 191.356 103.11 191.656Z" fill="#263238"/>
<path d="M154.002 153.37C154.002 153.305 153.197 153.909 152.553 155.246C152.158 156.007 151.871 156.82 151.7 157.661C151.534 158.728 151.534 159.814 151.7 160.881C151.82 161.949 152.137 162.986 152.634 163.94C153.064 164.713 153.657 165.383 154.372 165.904C155.001 166.426 155.793 166.71 156.61 166.709C155.903 166.416 155.233 166.041 154.614 165.59C153.979 165.069 153.456 164.426 153.076 163.698C152.646 162.788 152.373 161.81 152.271 160.808C152.127 159.804 152.127 158.785 152.271 157.781C152.41 156.952 152.645 156.141 152.972 155.366C153.471 154.086 154.083 153.418 154.002 153.37Z" fill="#263238"/>
<path d="M44.0629 166.967C44.0629 166.967 44.3205 166.967 44.7311 166.765C45.3074 166.511 45.8485 166.184 46.3411 165.791C48.0279 164.492 49.1816 162.621 49.5849 160.531C49.9882 158.44 49.6133 156.274 48.5307 154.441C48.2152 153.89 47.8311 153.381 47.3876 152.927C47.0736 152.621 46.8724 152.476 46.8482 152.501C46.8241 152.525 47.4922 153.249 48.1926 154.626C49.129 156.407 49.4312 158.453 49.0493 160.428C48.6674 162.404 47.6242 164.19 46.0915 165.493C44.9404 166.508 44.0227 166.878 44.0629 166.967Z" fill="#263238"/>
<path d="M23.5917 140.41C23.5273 140.475 23.9942 140.917 24.5818 141.698C24.9199 142.145 25.1537 142.662 25.2661 143.212C25.3949 143.831 25.3788 144.556 25.4915 145.353C25.5874 146.037 25.8182 146.695 26.1706 147.29C26.523 147.884 26.9899 148.402 27.5443 148.814C27.9679 149.196 28.5053 149.428 29.0738 149.474C29.114 149.386 28.5183 149.161 27.7858 148.508C26.8427 147.673 26.2218 146.534 26.0308 145.288C25.9778 144.56 25.8865 143.834 25.7572 143.115C25.6031 142.515 25.3046 141.963 24.8877 141.505C24.5496 141.042 24.1051 140.666 23.5917 140.41Z" fill="#FF9A6C"/>
<path d="M178.861 148.879C178.861 149.024 181.541 149.169 184.85 149.008C188.158 148.847 190.815 148.46 190.799 148.307C190.783 148.155 188.118 148.307 184.826 148.46C181.533 148.613 178.861 148.718 178.861 148.879Z" fill="#FF9A6C"/>
<path d="M172.767 148.42C172.767 148.477 173.403 148.372 174.159 147.736C174.65 147.31 175.039 146.781 175.301 146.187C175.563 145.592 175.69 144.948 175.673 144.299C175.615 143.612 175.491 142.933 175.303 142.27C175.162 141.745 175.094 141.203 175.101 140.66C175.148 140.175 175.259 139.699 175.431 139.243C175.431 139.187 174.844 139.613 174.715 140.628C174.65 141.198 174.683 141.775 174.811 142.334C174.963 142.973 175.068 143.621 175.125 144.274C175.143 145.442 174.7 146.569 173.894 147.414C173.274 148.138 172.727 148.34 172.767 148.42Z" fill="#FF9A6C"/>
<path d="M22.0942 150.328C22.0942 150.175 19.2204 150.288 15.7106 150.578C12.2008 150.867 9.35908 151.238 9.36713 151.383C9.37518 151.528 12.241 151.423 15.7508 151.125C19.2606 150.827 22.1023 150.473 22.0942 150.328Z" fill="#FF9A6C"/>
<path d="M104.961 101.971C105.283 103.043 105.689 104.087 106.177 105.095C106.394 105.578 106.62 106.101 106.853 106.64C107.084 107.255 107.353 107.854 107.658 108.435C107.774 108.626 107.943 108.78 108.145 108.877C108.346 108.974 108.571 109.011 108.793 108.983C109.183 108.88 109.546 108.693 109.856 108.435L111.756 107.139C114.348 105.352 116.674 103.702 118.349 102.494C119.285 101.882 120.168 101.193 120.989 100.434C119.992 100.936 119.036 101.518 118.131 102.172C116.401 103.307 114.034 104.893 111.442 106.688L109.55 107.993C109.303 108.206 109.016 108.368 108.705 108.468C108.578 108.483 108.449 108.459 108.336 108.401C108.222 108.342 108.129 108.25 108.069 108.137C107.457 107.027 106.95 105.827 106.459 104.917C106.042 103.895 105.542 102.91 104.961 101.971Z" fill="#263238"/>
<mask id="mask0_662_26653" style="mask-type:alpha" maskUnits="userSpaceOnUse" x="19" y="40" width="161" height="156">
<path fill-rule="evenodd" clip-rule="evenodd" d="M96.6489 40.0791C72.5164 41.5725 60.8087 65.5612 46.0572 82.4475C34.101 96.1339 23.0389 109.856 20.7142 127.003C18.0291 146.807 16.4425 169.434 32.3369 183.641C48.2827 197.894 74.0361 196.814 96.6489 194.876C153.5 187.5 121 191.5 150 181.406C176 182.413 178.921 145.599 179.935 127.003C180.989 107.678 169.055 90.499 154.888 75.7126C139.04 59.1729 121.162 38.5621 96.6489 40.0791Z" fill="#FFF3CC"/>
</mask>
<g mask="url(#mask0_662_26653)">
<path d="M81.6781 118.399L80.4546 118.18L76.4085 140.672L77.632 140.892L81.6781 118.399Z" fill="#263238"/>
<path d="M91.6807 120.622L71.4924 117L70.0711 124.91L90.2593 128.532L91.6807 120.622Z" fill="#FFD000"/>
<path opacity="0.7" d="M91.6807 120.622L71.4924 117L70.0711 124.91L90.2593 128.532L91.6807 120.622Z" fill="white"/>
<path d="M74.8934 123.846L74.8173 124.517H74.3226L74.3987 123.846C73.8727 123.772 73.3792 123.547 72.978 123.199L73.3078 122.616C73.6311 122.914 74.0308 123.115 74.4622 123.199L74.589 121.995C73.9421 121.767 73.2444 121.475 73.3205 120.639C73.3966 120.03 73.8913 119.536 74.8427 119.549L74.9061 118.877H75.4008L75.3374 119.536C75.764 119.606 76.1681 119.775 76.5171 120.03L76.2 120.613C75.9189 120.409 75.5998 120.262 75.2613 120.182L75.1344 121.45C75.7814 121.678 76.4917 121.97 76.4029 122.806C76.3649 123.377 75.8448 123.846 74.8934 123.846ZM74.6651 121.222L74.7793 120.157C74.348 120.157 74.1451 120.373 74.1197 120.639C74.0943 120.905 74.3353 121.082 74.6651 121.222ZM75.6418 122.73C75.6418 122.439 75.4262 122.261 75.071 122.122L74.9569 123.186C75.4008 123.174 75.6165 122.984 75.6418 122.73Z" fill="#263238"/>
<path d="M78.9777 124.568V124.898H78.7367V124.568C78.4711 124.536 78.2224 124.421 78.0264 124.239L78.1913 123.96C78.3555 124.101 78.5513 124.201 78.7621 124.251L78.8255 123.656C78.5084 123.542 78.1659 123.39 78.204 122.984C78.242 122.578 78.483 122.439 78.9524 122.439V122.109H79.1934V122.439C79.4067 122.463 79.6089 122.546 79.7769 122.68L79.612 122.971C79.4775 122.867 79.3216 122.793 79.1553 122.756V123.352C79.4724 123.466 79.8276 123.618 79.7769 124.023C79.7261 124.429 79.4471 124.568 78.9777 124.568ZM78.8636 123.301V122.781C78.6479 122.781 78.5464 122.883 78.5337 123.009C78.5211 123.136 78.6987 123.199 78.9016 123.263L78.8636 123.301ZM79.3456 124.049C79.3456 123.909 79.2314 123.82 79.0665 123.757L79.0031 124.277C79.2314 124.226 79.3329 124.137 79.3456 124.011V124.049Z" fill="#263238"/>
<path d="M83.4682 125.353V125.683H83.2145V125.353C82.9533 125.319 82.7095 125.204 82.5168 125.024L82.6818 124.745C82.8394 124.896 83.0378 124.997 83.2525 125.037L83.316 124.441C82.9862 124.327 82.6437 124.175 82.6944 123.769C82.7452 123.364 82.9735 123.224 83.4428 123.224V122.895H83.6838V123.224C83.8939 123.26 84.0934 123.342 84.2673 123.465L84.1151 123.756C83.9789 123.655 83.8236 123.581 83.6585 123.541L83.5824 124.137C83.9122 124.263 84.2546 124.403 84.2166 124.808C84.1785 125.214 83.9756 125.353 83.4682 125.353ZM83.3667 124.086V123.554C83.1511 123.554 83.0496 123.655 83.0369 123.794C83.0242 123.934 83.2018 123.985 83.3667 124.061V124.086ZM83.8487 124.821C83.8487 124.682 83.7346 124.593 83.557 124.53V125.049C83.7219 125.024 83.836 124.923 83.8487 124.796V124.821Z" fill="#263238"/>
<path d="M86.5124 126.102V126.444H86.2714V126.114C86.0102 126.079 85.7664 125.964 85.5737 125.785L85.7386 125.493C85.8929 125.649 86.0929 125.751 86.3094 125.785L86.3729 125.189C86.0431 125.075 85.7006 124.935 85.7513 124.517C85.802 124.099 86.0304 123.972 86.4997 123.985V123.643H86.7534V123.972C86.9663 124.006 87.1671 124.093 87.3369 124.226L87.1847 124.505C87.0436 124.406 86.8839 124.337 86.7153 124.302L86.6519 124.897C86.9817 125.012 87.3242 125.151 87.2861 125.569C87.2481 125.987 87.0071 126.102 86.5124 126.102ZM86.4109 124.834V124.302C86.1953 124.302 86.0938 124.416 86.0811 124.543C86.0684 124.669 86.2587 124.745 86.4363 124.809L86.4109 124.834ZM86.8803 125.582C86.8803 125.43 86.7788 125.354 86.6012 125.278V125.81C86.7915 125.772 86.8929 125.683 86.9056 125.557L86.8803 125.582Z" fill="#263238"/>
<path d="M81.4386 124.91C81.4221 124.952 81.3972 124.99 81.3656 125.021C81.334 125.053 81.2963 125.078 81.2548 125.094C81.2132 125.111 81.1688 125.119 81.124 125.118C81.0793 125.117 81.0353 125.106 80.9947 125.088C80.9542 125.07 80.9178 125.044 80.8875 125.012C80.8572 124.98 80.8336 124.942 80.8183 124.901C80.8029 124.859 80.796 124.815 80.7979 124.771C80.7999 124.727 80.8107 124.684 80.8298 124.644C80.8475 124.604 80.8733 124.567 80.9054 124.537C80.9375 124.507 80.9754 124.483 81.0168 124.468C81.0583 124.452 81.1023 124.446 81.1464 124.448C81.1906 124.45 81.2339 124.46 81.2737 124.479C81.3137 124.496 81.3499 124.52 81.3801 124.551C81.4103 124.582 81.4339 124.619 81.4493 124.659C81.4648 124.7 81.4718 124.743 81.47 124.786C81.4681 124.829 81.4575 124.871 81.4386 124.91Z" fill="#263238"/>
<path d="M46.3274 145.052C47.3168 143.721 56.0819 144.05 58.2637 144.95C60.4455 145.85 90.6984 144.05 91.9415 144.95C93.1846 145.85 89.6203 151.199 89.6203 151.199C89.6203 151.199 91.1297 152.15 92.0684 155.648C93.0071 159.146 89.468 162.86 90.4701 163.735C91.4722 164.609 91.6498 165.18 89.5315 165.902C86.3555 166.668 83.1066 167.093 79.8403 167.169C79.3456 166.979 47.6466 167.169 47.6466 167.169C47.6466 167.169 44.5642 164.761 46.3781 159.919C48.192 155.077 44.9067 154.532 44.8687 151.199C44.8778 149.065 45.3768 146.962 46.3274 145.052Z" fill="#FFD000"/>
<path opacity="0.3" d="M46.3274 145.052C47.3168 143.721 56.0819 144.05 58.2637 144.95C60.4455 145.85 90.6984 144.05 91.9415 144.95C93.1846 145.85 89.6203 151.199 89.6203 151.199C89.6203 151.199 91.1297 152.15 92.0684 155.648C93.0071 159.146 89.468 162.86 90.4701 163.735C91.4722 164.609 91.6498 165.18 89.5315 165.902C86.3555 166.668 83.1066 167.093 79.8403 167.169C79.3456 166.979 47.6466 167.169 47.6466 167.169C47.6466 167.169 44.5642 164.761 46.3781 159.919C48.192 155.077 44.9067 154.532 44.8687 151.199C44.8778 149.065 45.3768 146.962 46.3274 145.052Z" fill="black"/>
<path d="M57.2235 140.78C58.4919 137.32 60.5342 136.496 60.3819 135.52C60.2297 134.544 58.6188 135.862 58.6188 135.862C58.6188 135.862 61.0796 132.757 59.6082 132.25C58.1368 131.743 57.3123 134.594 57.3123 134.594C57.3123 134.594 57.6421 131.058 56.437 131.362C54.9149 131.743 55.8915 135.634 55.8915 135.634C55.8915 135.634 55.6379 134.024 54.9148 134.48C54.1918 134.937 56.399 137.991 56.2848 140.742C56.2848 140.742 57.1347 141.008 57.2235 140.78Z" fill="#FFD000"/>
<path opacity="0.5" d="M57.2235 140.78C58.4919 137.32 60.5342 136.496 60.3819 135.52C60.2297 134.544 58.6188 135.862 58.6188 135.862C58.6188 135.862 61.0796 132.757 59.6082 132.25C58.1368 131.743 57.3123 134.594 57.3123 134.594C57.3123 134.594 57.6421 131.058 56.437 131.362C54.9149 131.743 55.8915 135.634 55.8915 135.634C55.8915 135.634 55.6379 134.024 54.9148 134.48C54.1918 134.937 56.399 137.991 56.2848 140.742C56.2848 140.742 57.1347 141.008 57.2235 140.78Z" fill="black"/>
<path d="M58.6823 140.261C61.2193 140.78 57.4139 156.32 55.8663 157.271C54.3188 158.221 52.822 141.161 54.953 140.286C57.0841 139.412 56.564 139.855 58.6823 140.261Z" fill="#FFD000"/>
<path opacity="0.1" d="M58.6823 140.261C61.2193 140.78 57.4139 156.32 55.8663 157.271C54.3188 158.221 52.822 141.161 54.953 140.286C57.0841 139.412 56.564 139.855 58.6823 140.261Z" fill="white"/>
<path d="M55.9553 163.304C52.4416 162.125 51.579 160.097 50.6023 160.275C49.6256 160.452 50.9829 162.024 50.9829 162.024C50.9829 162.024 47.8244 159.641 47.355 161.124C46.8857 162.607 49.7651 163.355 49.7651 163.355C49.7651 163.355 46.2007 163.114 46.5432 164.318C46.9618 165.826 50.8306 164.749 50.8306 164.749C50.8306 164.749 49.2197 165.04 49.7017 165.763C50.1837 166.485 53.1773 164.179 55.9426 164.229C55.9426 164.229 56.1709 163.367 55.9553 163.304Z" fill="#FFD000"/>
<path opacity="0.5" d="M55.9553 163.304C52.4416 162.125 51.579 160.097 50.6023 160.275C49.6256 160.452 50.9829 162.024 50.9829 162.024C50.9829 162.024 47.8244 159.641 47.355 161.124C46.8857 162.607 49.7651 163.355 49.7651 163.355C49.7651 163.355 46.2007 163.114 46.5432 164.318C46.9618 165.826 50.8306 164.749 50.8306 164.749C50.8306 164.749 49.2197 165.04 49.7017 165.763C50.1837 166.485 53.1773 164.179 55.9426 164.229C55.9426 164.229 56.1709 163.367 55.9553 163.304Z" fill="black"/>
<path d="M55.3971 161.859C55.8537 159.324 71.4939 162.695 72.4834 164.254C73.4728 165.813 56.4372 167.676 55.4985 165.522C54.5599 163.367 55.0038 163.937 55.3971 161.859Z" fill="#FFD000"/>
<path opacity="0.1" d="M55.3971 161.859C55.8537 159.324 71.4939 162.695 72.4834 164.254C73.4728 165.813 56.4372 167.676 55.4985 165.522C54.5599 163.367 55.0038 163.937 55.3971 161.859Z" fill="white"/>
<path d="M94.1234 141.324C97.0282 139.03 99.1972 139.41 99.5905 138.498C99.9837 137.585 97.9034 137.864 97.9034 137.864C97.9034 137.864 101.645 136.52 100.656 135.329C99.6666 134.138 97.4721 136.115 97.4721 136.115C97.4721 136.115 99.6158 133.276 98.4235 132.895C96.9267 132.414 95.7089 136.242 95.7089 136.242C95.7089 136.242 96.3432 134.733 95.4806 134.746C94.6181 134.759 94.8971 138.548 93.3496 140.792C93.375 140.792 93.9711 141.464 94.1234 141.324Z" fill="#FFD000"/>
<path opacity="0.5" d="M94.1234 141.324C97.0282 139.03 99.1972 139.41 99.5905 138.498C99.9837 137.585 97.9034 137.864 97.9034 137.864C97.9034 137.864 101.645 136.52 100.656 135.329C99.6666 134.138 97.4721 136.115 97.4721 136.115C97.4721 136.115 99.6158 133.276 98.4235 132.895C96.9267 132.414 95.7089 136.242 95.7089 136.242C95.7089 136.242 96.3432 134.733 95.4806 134.746C94.6181 134.759 94.8971 138.548 93.3496 140.792C93.375 140.792 93.9711 141.464 94.1234 141.324Z" fill="black"/>
<path d="M95.6709 141.641C97.5229 143.403 86.1701 154.658 84.2547 154.633C82.3393 154.608 90.1531 139.334 92.4237 139.702C94.6942 140.069 94.1234 140.158 95.6709 141.641Z" fill="#FFD000"/>
<path opacity="0.1" d="M95.6709 141.641C97.5229 143.403 86.1701 154.658 84.2547 154.633C82.3393 154.608 90.1531 139.334 92.4237 139.702C94.6942 140.069 94.1234 140.158 95.6709 141.641Z" fill="white"/>
<path d="M83.4556 165.318C87.0073 166.345 87.9586 168.322 88.9227 168.106C89.8867 167.891 88.4661 166.37 88.4661 166.37C88.4661 166.37 91.7387 168.626 92.1319 167.13C92.5251 165.635 89.595 165.001 89.595 165.001C89.595 165.001 93.1594 165.09 92.7788 163.898C92.2968 162.415 88.4661 163.645 88.4661 163.645C88.4661 163.645 90.0643 163.29 89.5569 162.593C89.0495 161.896 86.1448 164.317 83.3922 164.38C83.4302 164.38 83.2273 165.204 83.4556 165.318Z" fill="#FFD000"/>
<path opacity="0.5" d="M83.4556 165.318C87.0073 166.345 87.9586 168.322 88.9227 168.106C89.8867 167.891 88.4661 166.37 88.4661 166.37C88.4661 166.37 91.7387 168.626 92.1319 167.13C92.5251 165.635 89.595 165.001 89.595 165.001C89.595 165.001 93.1594 165.09 92.7788 163.898C92.2968 162.415 88.4661 163.645 88.4661 163.645C88.4661 163.645 90.0643 163.29 89.5569 162.593C89.0495 161.896 86.1448 164.317 83.3922 164.38C83.4302 164.38 83.2273 165.204 83.4556 165.318Z" fill="black"/>
<path d="M84.0645 166.726C83.722 169.261 67.9549 166.574 66.9021 165.065C65.8493 163.557 82.7833 160.959 83.8108 163.025C84.8382 165.091 84.3689 164.596 84.0645 166.726Z" fill="#FFD000"/>
<path opacity="0.1" d="M84.0645 166.726C83.722 169.261 67.9549 166.574 66.9021 165.065C65.8493 163.557 82.7833 160.959 83.8108 163.025C84.8382 165.091 84.3689 164.596 84.0645 166.726Z" fill="white"/>
<path d="M71.6841 139.969C69.8449 136.762 67.6885 136.306 67.6758 135.317C67.6631 134.329 69.4643 135.317 69.4643 135.317C69.4643 135.317 66.5088 132.681 67.866 131.946C69.2233 131.211 70.5298 133.86 70.5298 133.86C70.5298 133.86 69.6038 130.425 70.8469 130.513C72.4072 130.627 72.1154 134.633 72.1154 134.633C72.1154 134.633 72.1154 132.998 72.8892 133.365C73.663 133.733 72.0266 137.079 72.6101 139.766C72.5594 139.766 71.7983 140.172 71.6841 139.969Z" fill="#FFD000"/>
<path opacity="0.5" d="M71.6841 139.969C69.8449 136.762 67.6885 136.306 67.6758 135.317C67.6631 134.329 69.4643 135.317 69.4643 135.317C69.4643 135.317 66.5088 132.681 67.866 131.946C69.2233 131.211 70.5298 133.86 70.5298 133.86C70.5298 133.86 69.6038 130.425 70.8469 130.513C72.4072 130.627 72.1154 134.633 72.1154 134.633C72.1154 134.633 72.1154 132.998 72.8892 133.365C73.663 133.733 72.0266 137.079 72.6101 139.766C72.5594 139.766 71.7983 140.172 71.6841 139.969Z" fill="black"/>
<path d="M70.1619 139.703C67.7772 140.641 74.1195 155.306 75.8447 155.978C77.5698 156.649 76.073 139.589 73.8278 139.082C71.5826 138.575 72.1661 138.904 70.1619 139.703Z" fill="#FFD000"/>
<path opacity="0.1" d="M70.1619 139.703C67.7772 140.641 74.1195 155.306 75.8447 155.978C77.5698 156.649 76.073 139.589 73.8278 139.082C71.5826 138.575 72.1661 138.904 70.1619 139.703Z" fill="white"/>
<path d="M44.7544 141.667C41.8116 139.423 39.6805 139.829 39.2493 138.929C38.818 138.029 40.9236 138.27 40.9236 138.27C40.9236 138.27 37.1182 137.002 38.133 135.735C39.1478 134.467 41.3296 136.47 41.3296 136.47C41.3296 136.47 39.1478 133.656 40.3275 133.263C41.8116 132.769 43.0927 136.584 43.0927 136.584C43.0927 136.584 42.4331 135.076 43.2957 135.076C44.1582 135.076 43.9299 138.878 45.5155 141.096C45.5155 141.122 44.932 141.806 44.7544 141.667Z" fill="#FFD000"/>
<path opacity="0.3" d="M44.7544 141.667C41.8116 139.423 39.6805 139.829 39.2493 138.929C38.818 138.029 40.9236 138.27 40.9236 138.27C40.9236 138.27 37.1182 137.002 38.133 135.735C39.1478 134.467 41.3296 136.47 41.3296 136.47C41.3296 136.47 39.1478 133.656 40.3275 133.263C41.8116 132.769 43.0927 136.584 43.0927 136.584C43.0927 136.584 42.4331 135.076 43.2957 135.076C44.1582 135.076 43.9299 138.878 45.5155 141.096C45.5155 141.122 44.932 141.806 44.7544 141.667Z" fill="black"/>
<path d="M43.2452 142.009C41.4059 143.809 52.9362 154.887 54.7882 154.836C56.6402 154.786 48.6615 139.626 46.3909 140.019C44.1204 140.412 44.78 140.514 43.2452 142.009Z" fill="#FFD000"/>
<path opacity="0.3" d="M43.2452 142.009C41.4059 143.809 52.9362 154.887 54.7882 154.836C56.6402 154.786 48.6615 139.626 46.3909 140.019C44.1204 140.412 44.78 140.514 43.2452 142.009Z" fill="white"/>
<path d="M63.1473 139.652C61.308 136.458 59.1517 135.989 59.139 135.013C59.1263 134.037 60.9275 135.013 60.9275 135.013C60.9275 135.013 57.9593 132.376 59.3292 131.641C60.6992 130.906 61.993 133.555 61.993 133.555C61.993 133.555 61.067 130.12 62.3101 130.209C63.8704 130.323 63.5786 134.328 63.5786 134.328C63.5786 134.328 63.5786 132.693 64.3524 133.061C65.1261 133.428 63.4898 136.762 64.0733 139.461C64.0606 139.461 63.2615 139.854 63.1473 139.652Z" fill="#FFD000"/>
<path opacity="0.3" d="M63.1473 139.652C61.308 136.458 59.1517 135.989 59.139 135.013C59.1263 134.037 60.9275 135.013 60.9275 135.013C60.9275 135.013 57.9593 132.376 59.3292 131.641C60.6992 130.906 61.993 133.555 61.993 133.555C61.993 133.555 61.067 130.12 62.3101 130.209C63.8704 130.323 63.5786 134.328 63.5786 134.328C63.5786 134.328 63.5786 132.693 64.3524 133.061C65.1261 133.428 63.4898 136.762 64.0733 139.461C64.0606 139.461 63.2615 139.854 63.1473 139.652Z" fill="black"/>
<path d="M61.6253 139.397C59.2406 140.335 65.5829 155 67.308 155.672C69.0331 156.344 67.5363 139.27 65.2911 138.776C63.046 138.282 63.6802 138.586 61.6253 139.397Z" fill="#FFD000"/>
<path opacity="0.3" d="M61.6253 139.397C59.2406 140.335 65.5829 155 67.308 155.672C69.0331 156.344 67.5363 139.27 65.2911 138.776C63.046 138.282 63.6802 138.586 61.6253 139.397Z" fill="white"/>
<path d="M77.6966 143.58C80.4872 141.147 80.5126 138.941 81.502 138.726C82.4914 138.51 81.8191 140.5 81.8191 140.5C81.8191 140.5 83.8233 137.078 84.8254 138.269C85.8275 139.461 83.4681 141.248 83.4681 141.248C83.4681 141.248 86.652 139.664 86.8042 140.906C87.0072 142.452 82.9988 142.947 82.9988 142.947C82.9988 142.947 84.597 142.604 84.4321 143.454C84.2672 144.303 80.6267 143.327 78.0898 144.43C78.0771 144.43 77.5317 143.732 77.6966 143.58Z" fill="#FFD000"/>
<path opacity="0.3" d="M77.6966 143.58C80.4872 141.147 80.5126 138.941 81.502 138.726C82.4914 138.51 81.8191 140.5 81.8191 140.5C81.8191 140.5 83.8233 137.078 84.8254 138.269C85.8275 139.461 83.4681 141.248 83.4681 141.248C83.4681 141.248 86.652 139.664 86.8042 140.906C87.0072 142.452 82.9988 142.947 82.9988 142.947C82.9988 142.947 84.597 142.604 84.4321 143.454C84.2672 144.303 80.6267 143.327 78.0898 144.43C78.0771 144.43 77.5317 143.732 77.6966 143.58Z" fill="black"/>
<path d="M77.6332 142.035C76.2379 139.88 63.0965 148.981 62.7794 150.793C62.4623 152.606 78.9143 147.802 78.9651 145.508C79.0158 143.214 78.9017 143.835 77.6332 142.035Z" fill="#FFD000"/>
<path opacity="0.3" d="M77.6332 142.035C76.2379 139.88 63.0965 148.981 62.7794 150.793C62.4623 152.606 78.9143 147.802 78.9651 145.508C79.0158 143.214 78.9017 143.835 77.6332 142.035Z" fill="white"/>
<path d="M85.4723 139.271C83.633 136.064 81.4766 135.608 81.4639 134.632C81.4512 133.656 83.2524 134.632 83.2524 134.632C83.2524 134.632 80.2842 131.995 81.6542 131.26C83.0241 130.525 84.3179 133.174 84.3179 133.174C84.3179 133.174 83.392 129.739 84.6351 129.828C86.1953 129.942 85.9035 133.947 85.9035 133.947C85.9035 133.947 85.9035 132.312 86.6773 132.68C87.4511 133.047 85.8148 136.394 86.3983 139.093C86.3856 139.081 85.5864 139.474 85.4723 139.271Z" fill="#FFD000"/>
<path opacity="0.3" d="M85.4723 139.271C83.633 136.064 81.4766 135.608 81.4639 134.632C81.4512 133.656 83.2524 134.632 83.2524 134.632C83.2524 134.632 80.2842 131.995 81.6542 131.26C83.0241 130.525 84.3179 133.174 84.3179 133.174C84.3179 133.174 83.392 129.739 84.6351 129.828C86.1953 129.942 85.9035 133.947 85.9035 133.947C85.9035 133.947 85.9035 132.312 86.6773 132.68C87.4511 133.047 85.8148 136.394 86.3983 139.093C86.3856 139.081 85.5864 139.474 85.4723 139.271Z" fill="black"/>
<path d="M83.9756 139.005C81.5909 139.955 87.9333 154.62 89.6584 155.292C91.3835 155.964 89.8867 138.891 87.6415 138.384C85.3963 137.877 85.9544 138.219 83.9756 139.005Z" fill="#FFD000"/>
<path opacity="0.3" d="M83.9756 139.005C81.5909 139.955 87.9333 154.62 89.6584 155.292C91.3835 155.964 89.8867 138.891 87.6415 138.384C85.3963 137.877 85.9544 138.219 83.9756 139.005Z" fill="white"/>
<path d="M50.7419 140.59C50.4248 136.914 51.9469 135.317 51.4015 134.493C50.8561 133.67 49.9301 135.533 49.9301 135.533C49.9301 135.533 50.8814 131.73 49.3339 131.844C47.7864 131.958 48.2303 134.937 48.2303 134.937C48.2303 134.937 47.038 131.578 46.0739 132.402C44.8055 133.391 47.3424 136.509 47.3424 136.509C47.3424 136.509 46.4291 135.152 45.9598 135.875C45.4904 136.597 48.7884 138.41 49.8286 140.945C49.8666 140.958 50.7546 140.831 50.7419 140.59Z" fill="#FFD000"/>
<path opacity="0.2" d="M50.7419 140.59C50.4248 136.914 51.9469 135.317 51.4015 134.493C50.8561 133.67 49.9301 135.533 49.9301 135.533C49.9301 135.533 50.8814 131.73 49.3339 131.844C47.7864 131.958 48.2303 134.937 48.2303 134.937C48.2303 134.937 47.038 131.578 46.0739 132.402C44.8055 133.391 47.3424 136.509 47.3424 136.509C47.3424 136.509 46.4291 135.152 45.9598 135.875C45.4904 136.597 48.7884 138.41 49.8286 140.945C49.8666 140.958 50.7546 140.831 50.7419 140.59Z" fill="black"/>
<path d="M51.8453 139.512C54.3823 138.929 57.4519 154.608 56.4245 156.129C55.397 157.65 46.9109 142.782 48.4585 141.122C50.006 139.461 49.727 139.994 51.8453 139.512Z" fill="#FFD000"/>
<path opacity="0.4" d="M51.8453 139.512C54.3823 138.929 57.4519 154.608 56.4245 156.129C55.397 157.65 46.9109 142.782 48.4585 141.122C50.006 139.461 49.727 139.994 51.8453 139.512Z" fill="white"/>
<path d="M90.4956 139.853C92.7027 136.887 94.8972 136.685 95.0367 135.709C95.1762 134.733 93.2482 135.531 93.2482 135.531C93.2482 135.531 96.4955 133.262 95.2397 132.362C93.9839 131.463 92.3602 133.96 92.3602 133.96C92.3602 133.96 93.6921 130.651 92.449 130.601C90.8761 130.525 90.7112 134.543 90.7112 134.543C90.7112 134.543 90.9269 132.92 90.0897 133.161C89.2525 133.402 90.521 136.964 89.6204 139.499C89.6204 139.587 90.318 140.082 90.4956 139.853Z" fill="#FFD000"/>
<path opacity="0.2" d="M90.4956 139.853C92.7027 136.887 94.8972 136.685 95.0367 135.709C95.1762 134.733 93.2482 135.531 93.2482 135.531C93.2482 135.531 96.4955 133.262 95.2397 132.362C93.9839 131.463 92.3602 133.96 92.3602 133.96C92.3602 133.96 93.6921 130.651 92.449 130.601C90.8761 130.525 90.7112 134.543 90.7112 134.543C90.7112 134.543 90.9269 132.92 90.0897 133.161C89.2525 133.402 90.521 136.964 89.6204 139.499C89.6204 139.587 90.318 140.082 90.4956 139.853Z" fill="black"/>
<path d="M92.0431 139.854C94.301 141.122 86.2716 154.887 84.4323 155.343C82.593 155.799 86.1321 139.043 88.4153 138.802C90.6986 138.561 90.1531 138.789 92.0431 139.854Z" fill="#FFD000"/>
<path opacity="0.4" d="M92.0431 139.854C94.301 141.122 86.2716 154.887 84.4323 155.343C82.593 155.799 86.1321 139.043 88.4153 138.802C90.6986 138.561 90.1531 138.789 92.0431 139.854Z" fill="white"/>
<path d="M67.4856 139.563C67.7266 135.874 66.2171 134.303 66.7118 133.466C67.2065 132.629 68.1959 134.48 68.1959 134.48C68.1959 134.48 67.1812 130.678 68.7287 130.792C70.2762 130.906 69.883 133.846 69.883 133.846C69.883 133.846 71.0119 130.475 71.9886 131.235C73.2571 132.199 70.7202 135.367 70.7202 135.367C70.7202 135.367 71.5954 133.998 72.0774 134.708C72.5595 135.418 69.2995 137.332 68.272 139.892C68.3228 139.854 67.4856 139.854 67.4856 139.563Z" fill="#FFD000"/>
<path opacity="0.2" d="M67.4856 139.563C67.7266 135.874 66.2171 134.303 66.7118 133.466C67.2065 132.629 68.1959 134.48 68.1959 134.48C68.1959 134.48 67.1812 130.678 68.7287 130.792C70.2762 130.906 69.883 133.846 69.883 133.846C69.883 133.846 71.0119 130.475 71.9886 131.235C73.2571 132.199 70.7202 135.367 70.7202 135.367C70.7202 135.367 71.5954 133.998 72.0774 134.708C72.5595 135.418 69.2995 137.332 68.272 139.892C68.3228 139.854 67.4856 139.854 67.4856 139.563Z" fill="black"/>
<path d="M66.3313 138.498C63.7943 137.965 60.991 153.708 62.0692 155.203C63.1474 156.699 71.3164 141.666 69.68 139.993C68.0437 138.32 68.4369 138.941 66.3313 138.498Z" fill="#FFD000"/>
<path opacity="0.4" d="M66.3313 138.498C63.7943 137.965 60.991 153.708 62.0692 155.203C63.1474 156.699 71.3164 141.666 69.68 139.993C68.0437 138.32 68.4369 138.941 66.3313 138.498Z" fill="white"/>
<path d="M58.048 158.588C54.4329 159.361 53.342 161.275 52.3907 160.984C51.4393 160.692 52.9742 159.285 52.9742 159.285C52.9742 159.285 49.5493 161.301 49.2703 159.78C48.9912 158.259 51.9087 157.828 51.9087 157.828C51.9087 157.828 48.3443 157.676 48.8136 156.56C49.3971 155.115 53.1264 156.624 53.1264 156.624C53.1264 156.624 51.5662 156.142 52.1243 155.483C52.6824 154.824 55.397 157.447 58.1368 157.701C58.1368 157.6 58.2764 158.538 58.048 158.588Z" fill="#FFD000"/>
<path opacity="0.2" d="M58.048 158.588C54.4329 159.361 53.342 161.275 52.3907 160.984C51.4393 160.692 52.9742 159.285 52.9742 159.285C52.9742 159.285 49.5493 161.301 49.2703 159.78C48.9912 158.259 51.9087 157.828 51.9087 157.828C51.9087 157.828 48.3443 157.676 48.8136 156.56C49.3971 155.115 53.1264 156.624 53.1264 156.624C53.1264 156.624 51.5662 156.142 52.1243 155.483C52.6824 154.824 55.397 157.447 58.1368 157.701C58.1368 157.6 58.2764 158.538 58.048 158.588Z" fill="black"/>
<path d="M57.3377 159.957C57.5026 162.492 73.4219 160.945 74.5762 159.513C75.7305 158.081 59.0248 154.291 57.8578 156.268C56.6908 158.246 57.1855 157.815 57.3377 159.957Z" fill="#FFD000"/>
<path opacity="0.4" d="M57.3377 159.957C57.5026 162.492 73.4219 160.945 74.5762 159.513C75.7305 158.081 59.0248 154.291 57.8578 156.268C56.6908 158.246 57.1855 157.815 57.3377 159.957Z" fill="white"/>
<path d="M78.1532 138.854C77.0496 135.33 75.0327 134.417 75.223 133.454C75.4133 132.491 76.9735 133.872 76.9735 133.872C76.9735 133.872 74.6395 130.666 76.1363 130.235C77.6331 129.804 78.3181 132.668 78.3181 132.668C78.3181 132.668 78.1532 129.119 79.3455 129.474C80.855 129.918 79.7007 133.771 79.7007 133.771C79.7007 133.771 80.0178 132.161 80.7282 132.656C81.4385 133.15 79.0918 136.103 79.0918 138.854C79.0918 138.854 78.2293 139.082 78.1532 138.854Z" fill="#FFD000"/>
<path opacity="0.2" d="M78.1532 138.854C77.0496 135.33 75.0327 134.417 75.223 133.454C75.4133 132.491 76.9735 133.872 76.9735 133.872C76.9735 133.872 74.6395 130.666 76.1363 130.235C77.6331 129.804 78.3181 132.668 78.3181 132.668C78.3181 132.668 78.1532 129.119 79.3455 129.474C80.855 129.918 79.7007 133.771 79.7007 133.771C79.7007 133.771 80.0178 132.161 80.7282 132.656C81.4385 133.15 79.0918 136.103 79.0918 138.854C79.0918 138.854 78.2293 139.082 78.1532 138.854Z" fill="black"/>
<path d="M76.72 138.27C74.183 138.689 77.2527 154.368 78.7876 155.382C80.3224 156.396 82.5296 139.424 80.4366 138.448C78.3436 137.472 78.9018 137.928 76.72 138.27Z" fill="#FFD000"/>
<path opacity="0.4" d="M76.72 138.27C74.183 138.689 77.2527 154.368 78.7876 155.382C80.3224 156.396 82.5296 139.424 80.4366 138.448C78.3436 137.472 78.9018 137.928 76.72 138.27Z" fill="white"/>
<path d="M85.0158 150.64C87.7811 148.206 87.7937 146.001 88.7578 145.786C89.7218 145.57 89.0876 147.547 89.0876 147.547C89.0876 147.547 91.0791 144.112 92.0812 145.304C93.0833 146.495 90.7366 148.295 90.7366 148.295C90.7366 148.295 93.9205 146.698 94.0854 147.928C94.2756 149.487 90.28 149.994 90.28 149.994C90.28 149.994 91.8782 149.639 91.7133 150.488C91.5484 151.337 87.9079 150.387 85.371 151.502C85.3837 151.502 84.8382 150.805 85.0158 150.64Z" fill="#FFD000"/>
<path opacity="0.2" d="M85.0158 150.64C87.7811 148.206 87.7937 146.001 88.7578 145.786C89.7218 145.57 89.0876 147.547 89.0876 147.547C89.0876 147.547 91.0791 144.112 92.0812 145.304C93.0833 146.495 90.7366 148.295 90.7366 148.295C90.7366 148.295 93.9205 146.698 94.0854 147.928C94.2756 149.487 90.28 149.994 90.28 149.994C90.28 149.994 91.8782 149.639 91.7133 150.488C91.5484 151.337 87.9079 150.387 85.371 151.502C85.3837 151.502 84.8382 150.805 85.0158 150.64Z" fill="black"/>
<path d="M84.9649 149.108C83.5569 146.953 70.4536 156.104 70.1492 157.98C69.8448 159.856 86.2588 154.925 86.3095 152.619C86.3602 150.312 86.1446 150.907 84.9649 149.108Z" fill="#FFD000"/>
<path opacity="0.4" d="M84.9649 149.108C83.5569 146.953 70.4536 156.104 70.1492 157.98C69.8448 159.856 86.2588 154.925 86.3095 152.619C86.3602 150.312 86.1446 150.907 84.9649 149.108Z" fill="white"/>
<path d="M47.634 168.41C47.4451 168.409 47.2613 168.348 47.1088 168.237C46.9563 168.125 46.8427 167.969 46.7841 167.789C44.2472 160.07 44.1077 145.57 44.095 144.974C44.095 144.735 44.1898 144.507 44.3587 144.338C44.5276 144.169 44.7567 144.074 44.9956 144.074C45.2316 144.08 45.4566 144.175 45.6259 144.339C45.7952 144.504 45.8962 144.726 45.9089 144.961C45.9089 145.114 46.0611 159.804 48.4458 167.257C48.5186 167.484 48.4996 167.73 48.3929 167.943C48.2863 168.157 48.1004 168.32 47.875 168.398C47.7954 168.41 47.7146 168.415 47.634 168.41Z" fill="#263238"/>
<path d="M91.9416 168.411C91.849 168.425 91.7551 168.425 91.6625 168.411C91.5488 168.375 91.4434 168.317 91.3523 168.24C91.2613 168.163 91.1864 168.069 91.1321 167.963C91.0778 167.857 91.0452 167.741 91.0361 167.622C91.027 167.503 91.0416 167.384 91.079 167.271C93.5145 159.818 93.616 145.127 93.616 144.975C93.6257 144.739 93.7258 144.515 93.8957 144.35C94.0656 144.185 94.2924 144.091 94.5293 144.088C94.7681 144.088 94.9972 144.183 95.1661 144.351C95.335 144.52 95.4299 144.749 95.4299 144.988C95.4299 145.609 95.265 160.109 92.7407 167.803C92.6831 167.972 92.5763 168.12 92.434 168.229C92.2916 168.337 92.1202 168.401 91.9416 168.411Z" fill="#263238"/>
<path d="M53.9635 168.412C53.751 168.412 53.5453 168.337 53.3828 168.2C53.2203 168.064 53.1115 167.874 53.0756 167.664C51.9083 160.139 51.2767 152.54 51.1855 144.925C51.1855 144.687 51.2804 144.458 51.4493 144.289C51.6182 144.12 51.8473 144.025 52.0861 144.025C52.325 144.025 52.5541 144.12 52.723 144.289C52.8919 144.458 52.9868 144.687 52.9868 144.925C53.0715 152.431 53.6989 159.92 54.8641 167.335C54.884 167.452 54.8804 167.572 54.8535 167.688C54.8265 167.804 54.7768 167.914 54.7072 168.011C54.6376 168.107 54.5495 168.189 54.4479 168.252C54.3464 168.314 54.2335 168.356 54.1157 168.374L53.9635 168.412Z" fill="#263238"/>
<path d="M57.1347 168.41C56.9085 168.411 56.6902 168.327 56.5233 168.174C56.3565 168.021 56.2532 167.812 56.2341 167.586C56.1707 166.902 54.7246 150.576 54.7246 144.949C54.7246 144.71 54.8195 144.481 54.9884 144.312C55.1573 144.144 55.3864 144.049 55.6252 144.049C55.8641 144.049 56.0931 144.144 56.262 144.312C56.4309 144.481 56.5258 144.71 56.5258 144.949C56.5258 150.5 58.0099 167.27 58.0353 167.434C58.053 167.672 57.9765 167.908 57.8224 168.09C57.6682 168.273 57.4487 168.388 57.2108 168.41H57.1347Z" fill="#263238"/>
<path d="M60.2932 168.41C60.0649 168.411 59.845 168.325 59.6778 168.169C59.5106 168.014 59.4087 167.801 59.3926 167.574C59.3926 166.877 58.2637 150.564 58.2637 144.949C58.2637 144.71 58.3585 144.481 58.5274 144.312C58.6963 144.144 58.9254 144.049 59.1643 144.049C59.4031 144.049 59.6322 144.144 59.8011 144.312C59.97 144.481 60.0649 144.71 60.0649 144.949C60.0649 150.5 61.1811 167.282 61.1938 167.447C61.2042 167.566 61.1906 167.685 61.1538 167.798C61.117 167.912 61.0578 168.016 60.9797 168.106C60.9016 168.196 60.8062 168.269 60.6991 168.321C60.5921 168.374 60.4756 168.404 60.3566 168.41H60.2932Z" fill="#263238"/>
<path d="M63.4644 168.41C63.232 168.41 63.0085 168.321 62.8407 168.16C62.6728 168 62.5736 167.78 62.5638 167.548C62.5638 167.384 61.8027 150.551 61.8027 144.949C61.8027 144.71 61.8976 144.481 62.0665 144.312C62.2354 144.144 62.4645 144.049 62.7034 144.049C62.9422 144.049 63.1713 144.144 63.3402 144.312C63.5091 144.481 63.604 144.71 63.604 144.949C63.604 150.5 64.3524 167.308 64.3651 167.472C64.372 167.71 64.2858 167.941 64.1246 168.117C63.9635 168.292 63.7403 168.397 63.5025 168.41H63.4644Z" fill="#263238"/>
<path d="M66.623 168.411C66.3894 168.408 66.1658 168.316 65.9983 168.153C65.8308 167.991 65.732 167.77 65.7223 167.537C65.7223 167.359 65.3418 150.539 65.3418 144.95C65.3681 144.728 65.475 144.523 65.6421 144.375C65.8093 144.227 66.0251 144.145 66.2487 144.145C66.4724 144.145 66.6882 144.227 66.8554 144.375C67.0225 144.523 67.1294 144.728 67.1557 144.95C67.1557 150.514 67.5236 167.321 67.5236 167.499C67.5269 167.616 67.5069 167.733 67.4646 167.843C67.4223 167.953 67.3585 168.053 67.2771 168.138C67.1957 168.223 67.0981 168.291 66.9902 168.338C66.8822 168.385 66.766 168.41 66.6483 168.411H66.623Z" fill="#263238"/>
<path d="M69.7942 168.411C69.6748 168.413 69.5563 168.391 69.4456 168.346C69.3349 168.302 69.2341 168.236 69.1491 168.152C69.0641 168.068 68.9967 167.969 68.9506 167.859C68.9046 167.749 68.8808 167.631 68.8809 167.511V144.924C68.9072 144.702 69.014 144.498 69.1812 144.35C69.3483 144.201 69.5642 144.119 69.7878 144.119C70.0114 144.119 70.2273 144.201 70.3944 144.35C70.5616 144.498 70.6685 144.702 70.6948 144.924V167.486C70.6982 167.606 70.6774 167.726 70.6336 167.838C70.5899 167.95 70.5241 168.053 70.4401 168.139C70.3562 168.225 70.2557 168.294 70.1448 168.34C70.0338 168.387 69.9146 168.411 69.7942 168.411Z" fill="#263238"/>
<path d="M72.9528 168.41C72.8351 168.409 72.7188 168.384 72.6109 168.337C72.503 168.29 72.4055 168.222 72.324 168.137C72.2426 168.052 72.1788 167.952 72.1365 167.842C72.0942 167.732 72.0741 167.615 72.0775 167.498C72.0775 167.32 72.4581 150.513 72.4581 144.949C72.4581 144.71 72.553 144.481 72.7219 144.312C72.8907 144.144 73.1198 144.049 73.3587 144.049C73.5975 144.049 73.8266 144.144 73.9955 144.312C74.1644 144.481 74.2593 144.71 74.2593 144.949C74.2593 150.538 73.8788 167.358 73.8788 167.536C73.8755 167.654 73.8489 167.77 73.8006 167.878C73.7522 167.986 73.6831 168.084 73.5971 168.165C73.5111 168.246 73.41 168.309 73.2994 168.352C73.1889 168.394 73.071 168.414 72.9528 168.41Z" fill="#263238"/>
<path d="M76.111 168.41C75.8732 168.397 75.65 168.292 75.4889 168.117C75.3277 167.941 75.2415 167.71 75.2484 167.472C75.2484 167.308 76.0095 150.5 76.0095 144.949C76.0095 144.71 76.1044 144.481 76.2733 144.312C76.4422 144.144 76.6713 144.049 76.9101 144.049C77.149 144.049 77.3781 144.144 77.547 144.312C77.7159 144.481 77.8108 144.71 77.8108 144.949C77.8108 150.551 77.0624 167.384 77.0497 167.548C77.0448 167.667 77.0166 167.783 76.9668 167.89C76.9169 167.997 76.8464 168.094 76.7592 168.174C76.672 168.254 76.5699 168.316 76.4586 168.357C76.3474 168.397 76.2293 168.415 76.111 168.41Z" fill="#263238"/>
<path d="M79.2824 168.41H79.219C79.1 168.404 78.9836 168.374 78.8765 168.321C78.7695 168.269 78.6741 168.196 78.5959 168.106C78.5178 168.016 78.4586 167.912 78.4218 167.798C78.385 167.685 78.3714 167.566 78.3818 167.447C78.3818 167.282 79.5108 150.5 79.5108 144.949C79.5108 144.71 79.6056 144.481 79.7745 144.312C79.9434 144.144 80.1725 144.049 80.4114 144.049C80.6502 144.049 80.8793 144.144 81.0482 144.312C81.2171 144.481 81.312 144.71 81.312 144.949C81.312 150.564 80.2338 166.877 80.183 167.574C80.167 167.801 80.065 168.014 79.8978 168.169C79.7306 168.325 79.5107 168.411 79.2824 168.41Z" fill="#263238"/>
<path d="M82.4407 168.41H82.3646C82.1267 168.388 81.9072 168.273 81.753 168.09C81.5989 167.908 81.5224 167.672 81.5401 167.434C81.5401 167.27 83.0496 150.5 83.0496 144.949C83.0496 144.71 83.1445 144.481 83.3134 144.312C83.4823 144.144 83.7114 144.049 83.9502 144.049C84.1891 144.049 84.4182 144.144 84.587 144.312C84.7559 144.481 84.8508 144.71 84.8508 144.949C84.8508 150.576 83.4048 166.902 83.3413 167.586C83.3222 167.812 83.219 168.021 83.0521 168.174C82.8852 168.327 82.667 168.411 82.4407 168.41Z" fill="#263238"/>
<path d="M85.612 168.412H85.4471C85.3304 168.391 85.219 168.347 85.1194 168.282C85.0198 168.218 84.9339 168.134 84.8667 168.036C84.7995 167.939 84.7523 167.829 84.7279 167.712C84.7034 167.596 84.7021 167.477 84.7241 167.36C85.9564 159.945 86.5801 152.442 86.5887 144.925C86.5887 144.687 86.6836 144.458 86.8525 144.289C87.0214 144.12 87.2505 144.025 87.4894 144.025C87.7282 144.025 87.9573 144.12 88.1262 144.289C88.2951 144.458 88.39 144.687 88.39 144.925C88.387 152.569 87.7592 160.199 86.5126 167.74C86.461 167.938 86.3437 168.112 86.1801 168.234C86.0164 168.356 85.8161 168.419 85.612 168.412Z" fill="#263238"/>
<path d="M88.7704 168.411H88.5421C88.4269 168.382 88.3186 168.33 88.2236 168.258C88.1287 168.187 88.0488 168.097 87.9886 167.995C87.9285 167.892 87.8893 167.779 87.8732 167.661C87.8572 167.543 87.8646 167.423 87.8951 167.309C89.52 159.961 90.2694 152.448 90.1277 144.924C90.154 144.702 90.2608 144.498 90.428 144.35C90.5951 144.201 90.811 144.119 91.0346 144.119C91.2582 144.119 91.4741 144.201 91.6412 144.35C91.8084 144.498 91.9153 144.702 91.9416 144.924C91.9416 159.07 89.7344 167.372 89.6456 167.739C89.5931 167.932 89.4791 168.101 89.321 168.222C89.163 168.344 88.9696 168.41 88.7704 168.411Z" fill="#263238"/>
<path d="M50.8052 168.411C50.5981 168.413 50.3967 168.343 50.235 168.214C50.0733 168.085 49.9611 167.904 49.9173 167.701C48.4412 160.185 47.681 152.546 47.6467 144.886C47.6467 144.648 47.7416 144.419 47.9105 144.25C48.0794 144.081 48.3085 143.986 48.5474 143.986C48.7862 143.986 49.0153 144.081 49.1842 144.25C49.3531 144.419 49.448 144.648 49.448 144.886C49.4856 152.397 50.2331 159.887 51.6805 167.258C51.7067 167.373 51.7097 167.493 51.6894 167.61C51.6691 167.727 51.6259 167.839 51.5622 167.939C51.4986 168.039 51.4157 168.125 51.3185 168.193C51.2212 168.261 51.1114 168.31 50.9955 168.335L50.8052 168.411Z" fill="#263238"/>
<g opacity="0.5">
<path d="M47.634 168.41C47.4451 168.409 47.2613 168.348 47.1088 168.237C46.9563 168.125 46.8427 167.969 46.7841 167.789C44.2472 160.07 44.1077 145.57 44.095 144.974C44.095 144.735 44.1898 144.507 44.3587 144.338C44.5276 144.169 44.7567 144.074 44.9956 144.074C45.2316 144.08 45.4566 144.175 45.6259 144.339C45.7952 144.504 45.8962 144.726 45.9089 144.961C45.9089 145.114 46.0611 159.804 48.4458 167.257C48.5186 167.484 48.4996 167.73 48.3929 167.943C48.2863 168.157 48.1004 168.32 47.875 168.398C47.7954 168.41 47.7146 168.415 47.634 168.41Z" fill="white"/>
<path d="M91.9416 168.411C91.849 168.425 91.7551 168.425 91.6625 168.411C91.5488 168.375 91.4434 168.317 91.3523 168.24C91.2613 168.163 91.1864 168.069 91.1321 167.963C91.0778 167.857 91.0452 167.741 91.0361 167.622C91.027 167.503 91.0416 167.384 91.079 167.271C93.5145 159.818 93.616 145.127 93.616 144.975C93.6257 144.739 93.7258 144.515 93.8957 144.35C94.0656 144.185 94.2924 144.091 94.5293 144.088C94.7681 144.088 94.9972 144.183 95.1661 144.351C95.335 144.52 95.4299 144.749 95.4299 144.988C95.4299 145.609 95.265 160.109 92.7407 167.803C92.6831 167.972 92.5763 168.12 92.434 168.229C92.2916 168.337 92.1202 168.401 91.9416 168.411Z" fill="white"/>
<path d="M53.9637 168.41C53.7512 168.41 53.5455 168.335 53.383 168.198C53.2206 168.062 53.1118 167.872 53.0758 167.662C51.9086 160.137 51.2769 152.538 51.1858 144.923C51.1858 144.685 51.2807 144.456 51.4496 144.287C51.6185 144.118 51.8475 144.023 52.0864 144.023C52.3253 144.023 52.5544 144.118 52.7233 144.287C52.8922 144.456 52.987 144.685 52.987 144.923C53.0717 152.429 53.6991 159.918 54.8643 167.333C54.8843 167.45 54.8806 167.57 54.8537 167.687C54.8268 167.803 54.7771 167.912 54.7075 168.009C54.6378 168.105 54.5497 168.187 54.4482 168.25C54.3466 168.312 54.2337 168.354 54.116 168.372L53.9637 168.41Z" fill="white"/>
<path d="M57.1347 168.41C56.9085 168.411 56.6902 168.327 56.5233 168.174C56.3565 168.021 56.2532 167.812 56.2341 167.586C56.1707 166.902 54.7246 150.576 54.7246 144.949C54.7246 144.71 54.8195 144.481 54.9884 144.312C55.1573 144.144 55.3864 144.049 55.6252 144.049C55.8641 144.049 56.0931 144.144 56.262 144.312C56.4309 144.481 56.5258 144.71 56.5258 144.949C56.5258 150.5 58.0099 167.27 58.0353 167.434C58.053 167.672 57.9765 167.908 57.8224 168.09C57.6682 168.273 57.4487 168.388 57.2108 168.41H57.1347Z" fill="white"/>
<path d="M60.2932 168.41C60.0649 168.411 59.845 168.325 59.6778 168.169C59.5106 168.014 59.4087 167.801 59.3926 167.574C59.3926 166.877 58.2637 150.564 58.2637 144.949C58.2637 144.71 58.3585 144.481 58.5274 144.312C58.6963 144.144 58.9254 144.049 59.1643 144.049C59.4031 144.049 59.6322 144.144 59.8011 144.312C59.97 144.481 60.0649 144.71 60.0649 144.949C60.0649 150.5 61.1811 167.282 61.1938 167.447C61.2042 167.566 61.1906 167.685 61.1538 167.798C61.117 167.912 61.0578 168.016 60.9797 168.106C60.9016 168.196 60.8062 168.269 60.6991 168.321C60.5921 168.374 60.4756 168.404 60.3566 168.41H60.2932Z" fill="white"/>
<path d="M63.4644 168.41C63.232 168.41 63.0085 168.321 62.8407 168.16C62.6728 168 62.5736 167.78 62.5638 167.548C62.5638 167.384 61.8027 150.551 61.8027 144.949C61.8027 144.71 61.8976 144.481 62.0665 144.312C62.2354 144.144 62.4645 144.049 62.7034 144.049C62.9422 144.049 63.1713 144.144 63.3402 144.312C63.5091 144.481 63.604 144.71 63.604 144.949C63.604 150.5 64.3524 167.308 64.3651 167.472C64.372 167.71 64.2858 167.941 64.1246 168.117C63.9635 168.292 63.7403 168.397 63.5025 168.41H63.4644Z" fill="white"/>
<path d="M66.623 168.411C66.3894 168.408 66.1658 168.316 65.9983 168.153C65.8308 167.991 65.732 167.77 65.7223 167.537C65.7223 167.359 65.3418 150.539 65.3418 144.95C65.3681 144.728 65.475 144.523 65.6421 144.375C65.8093 144.227 66.0251 144.145 66.2487 144.145C66.4724 144.145 66.6882 144.227 66.8554 144.375C67.0225 144.523 67.1294 144.728 67.1557 144.95C67.1557 150.514 67.5236 167.321 67.5236 167.499C67.5269 167.616 67.5069 167.733 67.4646 167.843C67.4223 167.953 67.3585 168.053 67.2771 168.138C67.1957 168.223 67.0981 168.291 66.9902 168.338C66.8822 168.385 66.766 168.41 66.6483 168.411H66.623Z" fill="white"/>
<path d="M69.7942 168.411C69.6748 168.413 69.5563 168.391 69.4456 168.346C69.3349 168.302 69.2341 168.236 69.1491 168.152C69.0641 168.068 68.9967 167.969 68.9506 167.859C68.9046 167.749 68.8808 167.631 68.8809 167.511V144.924C68.9072 144.702 69.014 144.498 69.1812 144.35C69.3483 144.201 69.5642 144.119 69.7878 144.119C70.0114 144.119 70.2273 144.201 70.3944 144.35C70.5616 144.498 70.6685 144.702 70.6948 144.924V167.486C70.6982 167.606 70.6774 167.726 70.6336 167.838C70.5899 167.95 70.5241 168.053 70.4401 168.139C70.3562 168.225 70.2557 168.294 70.1448 168.34C70.0338 168.387 69.9146 168.411 69.7942 168.411Z" fill="white"/>
<path d="M72.9528 168.41C72.8351 168.409 72.7188 168.384 72.6109 168.337C72.503 168.29 72.4055 168.222 72.324 168.137C72.2426 168.052 72.1788 167.952 72.1365 167.842C72.0942 167.732 72.0741 167.615 72.0775 167.498C72.0775 167.32 72.4581 150.513 72.4581 144.949C72.4581 144.71 72.553 144.481 72.7219 144.312C72.8907 144.144 73.1198 144.049 73.3587 144.049C73.5975 144.049 73.8266 144.144 73.9955 144.312C74.1644 144.481 74.2593 144.71 74.2593 144.949C74.2593 150.538 73.8788 167.358 73.8788 167.536C73.8755 167.654 73.8489 167.77 73.8006 167.878C73.7522 167.986 73.6831 168.084 73.5971 168.165C73.5111 168.246 73.41 168.309 73.2994 168.352C73.1889 168.394 73.071 168.414 72.9528 168.41Z" fill="white"/>
<path d="M76.111 168.41C75.8732 168.397 75.65 168.292 75.4889 168.117C75.3277 167.941 75.2415 167.71 75.2484 167.472C75.2484 167.308 76.0095 150.5 76.0095 144.949C76.0095 144.71 76.1044 144.481 76.2733 144.312C76.4422 144.144 76.6713 144.049 76.9101 144.049C77.149 144.049 77.3781 144.144 77.547 144.312C77.7159 144.481 77.8108 144.71 77.8108 144.949C77.8108 150.551 77.0624 167.384 77.0497 167.548C77.0448 167.667 77.0166 167.783 76.9668 167.89C76.9169 167.997 76.8464 168.094 76.7592 168.174C76.672 168.254 76.5699 168.316 76.4586 168.357C76.3474 168.397 76.2293 168.415 76.111 168.41Z" fill="white"/>
<path d="M79.2824 168.41H79.219C79.1 168.404 78.9836 168.374 78.8765 168.321C78.7695 168.269 78.6741 168.196 78.5959 168.106C78.5178 168.016 78.4586 167.912 78.4218 167.798C78.385 167.685 78.3714 167.566 78.3818 167.447C78.3818 167.282 79.5108 150.5 79.5108 144.949C79.5108 144.71 79.6056 144.481 79.7745 144.312C79.9434 144.144 80.1725 144.049 80.4114 144.049C80.6502 144.049 80.8793 144.144 81.0482 144.312C81.2171 144.481 81.312 144.71 81.312 144.949C81.312 150.564 80.2338 166.877 80.183 167.574C80.167 167.801 80.065 168.014 79.8978 168.169C79.7306 168.325 79.5107 168.411 79.2824 168.41Z" fill="white"/>
<path d="M82.4407 168.41H82.3646C82.1267 168.388 81.9072 168.273 81.753 168.09C81.5989 167.908 81.5224 167.672 81.5401 167.434C81.5401 167.27 83.0496 150.5 83.0496 144.949C83.0496 144.71 83.1445 144.481 83.3134 144.312C83.4823 144.144 83.7114 144.049 83.9502 144.049C84.1891 144.049 84.4182 144.144 84.587 144.312C84.7559 144.481 84.8508 144.71 84.8508 144.949C84.8508 150.576 83.4048 166.902 83.3413 167.586C83.3222 167.812 83.219 168.021 83.0521 168.174C82.8852 168.327 82.667 168.411 82.4407 168.41Z" fill="white"/>
<path d="M85.612 168.41H85.4471C85.3304 168.389 85.219 168.345 85.1194 168.28C85.0198 168.216 84.9339 168.132 84.8667 168.034C84.7995 167.937 84.7523 167.827 84.7279 167.711C84.7034 167.594 84.7021 167.475 84.7241 167.358C85.9564 159.943 86.5801 152.44 86.5887 144.923C86.5887 144.685 86.6836 144.456 86.8525 144.287C87.0214 144.118 87.2505 144.023 87.4894 144.023C87.7282 144.023 87.9573 144.118 88.1262 144.287C88.2951 144.456 88.39 144.685 88.39 144.923C88.387 152.567 87.7592 160.197 86.5126 167.738C86.461 167.936 86.3437 168.11 86.1801 168.232C86.0164 168.354 85.8161 168.417 85.612 168.41Z" fill="white"/>
<path d="M88.7704 168.411H88.5421C88.4269 168.382 88.3186 168.33 88.2236 168.258C88.1287 168.187 88.0488 168.097 87.9886 167.995C87.9285 167.892 87.8893 167.779 87.8732 167.661C87.8572 167.543 87.8646 167.423 87.8951 167.309C89.52 159.961 90.2694 152.448 90.1277 144.924C90.154 144.702 90.2608 144.498 90.428 144.35C90.5951 144.201 90.811 144.119 91.0346 144.119C91.2582 144.119 91.4741 144.201 91.6412 144.35C91.8084 144.498 91.9153 144.702 91.9416 144.924C91.9416 159.07 89.7344 167.372 89.6456 167.739C89.5931 167.932 89.4791 168.101 89.321 168.222C89.163 168.344 88.9696 168.41 88.7704 168.411Z" fill="white"/>
<path d="M50.8052 168.411C50.5981 168.413 50.3967 168.343 50.235 168.214C50.0733 168.085 49.9611 167.904 49.9173 167.701C48.4412 160.185 47.681 152.546 47.6467 144.886C47.6467 144.648 47.7416 144.419 47.9105 144.25C48.0794 144.081 48.3085 143.986 48.5474 143.986C48.7862 143.986 49.0153 144.081 49.1842 144.25C49.3531 144.419 49.448 144.648 49.448 144.886C49.4856 152.397 50.2331 159.887 51.6805 167.258C51.7067 167.373 51.7097 167.493 51.6894 167.61C51.6691 167.727 51.6259 167.839 51.5622 167.939C51.4986 168.039 51.4157 168.125 51.3185 168.193C51.2212 168.261 51.1114 168.31 50.9955 168.335L50.8052 168.411Z" fill="white"/>
</g>
<path d="M96.2669 145.849H43.3083C43.0695 145.849 42.8404 145.754 42.6715 145.585C42.5026 145.416 42.4077 145.187 42.4077 144.949C42.4077 144.71 42.5026 144.481 42.6715 144.312C42.8404 144.144 43.0695 144.049 43.3083 144.049H96.2669C96.5058 144.049 96.7349 144.144 96.9038 144.312C97.0726 144.481 97.1675 144.71 97.1675 144.949C97.1675 145.187 97.0726 145.416 96.9038 145.585C96.7349 145.754 96.5058 145.849 96.2669 145.849Z" fill="#263238"/>
<path d="M96.2669 149.069H43.3083C43.0695 149.069 42.8404 148.975 42.6715 148.806C42.5026 148.637 42.4077 148.408 42.4077 148.169C42.4077 147.931 42.5026 147.702 42.6715 147.533C42.8404 147.364 43.0695 147.27 43.3083 147.27H96.2669C96.5058 147.27 96.7349 147.364 96.9038 147.533C97.0726 147.702 97.1675 147.931 97.1675 148.169C97.1675 148.408 97.0726 148.637 96.9038 148.806C96.7349 148.975 96.5058 149.069 96.2669 149.069Z" fill="#263238"/>
<path d="M96.2671 152.301H43.3085C43.0865 152.275 42.8818 152.168 42.7332 152.001C42.5847 151.834 42.5027 151.618 42.5027 151.395C42.5027 151.171 42.5847 150.955 42.7332 150.788C42.8818 150.621 43.0865 150.515 43.3085 150.488H96.2671C96.4892 150.515 96.6939 150.621 96.8424 150.788C96.9909 150.955 97.073 151.171 97.073 151.395C97.073 151.618 96.9909 151.834 96.8424 152.001C96.6939 152.168 96.4892 152.275 96.2671 152.301Z" fill="#263238"/>
<path d="M96.2672 155.521H43.3086C43.0697 155.521 42.8406 155.426 42.6717 155.257C42.5028 155.088 42.408 154.859 42.408 154.621C42.408 154.382 42.5028 154.153 42.6717 153.984C42.8406 153.816 43.0697 153.721 43.3086 153.721H96.2672C96.506 153.721 96.7351 153.816 96.904 153.984C97.0729 154.153 97.1678 154.382 97.1678 154.621C97.1678 154.859 97.0729 155.088 96.904 155.257C96.7351 155.426 96.506 155.521 96.2672 155.521Z" fill="#263238"/>
<path d="M96.2669 158.739H43.3083C43.0695 158.739 42.8404 158.644 42.6715 158.476C42.5026 158.307 42.4077 158.078 42.4077 157.839C42.4077 157.601 42.5026 157.372 42.6715 157.203C42.8404 157.034 43.0695 156.939 43.3083 156.939H96.2669C96.5058 156.939 96.7349 157.034 96.9038 157.203C97.0726 157.372 97.1675 157.601 97.1675 157.839C97.1675 158.078 97.0726 158.307 96.9038 158.476C96.7349 158.644 96.5058 158.739 96.2669 158.739Z" fill="#263238"/>
<path d="M95.6581 161.973H43.9172C43.7891 161.988 43.6593 161.976 43.5362 161.938C43.4131 161.899 43.2996 161.835 43.2031 161.749C43.1067 161.663 43.0295 161.558 42.9767 161.441C42.9238 161.323 42.8965 161.196 42.8965 161.067C42.8965 160.938 42.9238 160.811 42.9767 160.693C43.0295 160.575 43.1067 160.47 43.2031 160.385C43.2996 160.299 43.4131 160.235 43.5362 160.196C43.6593 160.158 43.7891 160.145 43.9172 160.161H95.6581C95.7862 160.145 95.9161 160.158 96.0392 160.196C96.1622 160.235 96.2757 160.299 96.3722 160.385C96.4686 160.47 96.5458 160.575 96.5986 160.693C96.6515 160.811 96.6788 160.938 96.6788 161.067C96.6788 161.196 96.6515 161.323 96.5986 161.441C96.5458 161.558 96.4686 161.663 96.3722 161.749C96.2757 161.835 96.1622 161.899 96.0392 161.938C95.9161 161.976 95.7862 161.988 95.6581 161.973Z" fill="#263238"/>
<path d="M95.0619 165.204H44.5134C44.2746 165.204 44.0455 165.109 43.8766 164.941C43.7077 164.772 43.6128 164.543 43.6128 164.304C43.6128 164.066 43.7077 163.837 43.8766 163.668C44.0455 163.499 44.2746 163.404 44.5134 163.404H95.0619C95.3008 163.404 95.5298 163.499 95.6987 163.668C95.8676 163.837 95.9626 164.066 95.9626 164.304C95.9626 164.543 95.8676 164.772 95.6987 164.941C95.5298 165.109 95.3008 165.204 95.0619 165.204Z" fill="#263238"/>
<path d="M93.8571 168.411H45.6553C45.4164 168.411 45.1873 168.316 45.0185 168.148C44.8496 167.979 44.7546 167.75 44.7546 167.511C44.7546 167.273 44.8496 167.044 45.0185 166.875C45.1873 166.706 45.4164 166.611 45.6553 166.611H93.8571C94.096 166.611 94.3251 166.706 94.4939 166.875C94.6628 167.044 94.7577 167.273 94.7577 167.511C94.7577 167.75 94.6628 167.979 94.4939 168.148C94.3251 168.316 94.096 168.411 93.8571 168.411Z" fill="#263238"/>
<g opacity="0.7">
<path d="M96.2669 145.849H43.3083C43.0695 145.849 42.8404 145.754 42.6715 145.585C42.5026 145.416 42.4077 145.187 42.4077 144.949C42.4077 144.71 42.5026 144.481 42.6715 144.312C42.8404 144.144 43.0695 144.049 43.3083 144.049H96.2669C96.5058 144.049 96.7349 144.144 96.9038 144.312C97.0726 144.481 97.1675 144.71 97.1675 144.949C97.1675 145.187 97.0726 145.416 96.9038 145.585C96.7349 145.754 96.5058 145.849 96.2669 145.849Z" fill="white"/>
<path d="M96.2669 149.067H43.3083C43.0695 149.067 42.8404 148.973 42.6715 148.804C42.5026 148.635 42.4077 148.406 42.4077 148.167C42.4077 147.929 42.5026 147.7 42.6715 147.531C42.8404 147.362 43.0695 147.268 43.3083 147.268H96.2669C96.5058 147.268 96.7349 147.362 96.9038 147.531C97.0726 147.7 97.1675 147.929 97.1675 148.167C97.1675 148.406 97.0726 148.635 96.9038 148.804C96.7349 148.973 96.5058 149.067 96.2669 149.067Z" fill="white"/>
<path d="M96.2669 152.301H43.3083C43.0862 152.275 42.8815 152.168 42.733 152.001C42.5845 151.834 42.5024 151.618 42.5024 151.395C42.5024 151.171 42.5845 150.955 42.733 150.788C42.8815 150.621 43.0862 150.515 43.3083 150.488H96.2669C96.4889 150.515 96.6936 150.621 96.8422 150.788C96.9907 150.955 97.0727 151.171 97.0727 151.395C97.0727 151.618 96.9907 151.834 96.8422 152.001C96.6936 152.168 96.4889 152.275 96.2669 152.301Z" fill="white"/>
<path d="M96.2669 155.521H43.3083C43.0695 155.521 42.8404 155.426 42.6715 155.257C42.5026 155.088 42.4077 154.859 42.4077 154.621C42.4077 154.382 42.5026 154.153 42.6715 153.984C42.8404 153.816 43.0695 153.721 43.3083 153.721H96.2669C96.5058 153.721 96.7349 153.816 96.9038 153.984C97.0726 154.153 97.1675 154.382 97.1675 154.621C97.1675 154.859 97.0726 155.088 96.9038 155.257C96.7349 155.426 96.5058 155.521 96.2669 155.521Z" fill="white"/>
<path d="M96.2669 158.739H43.3083C43.0695 158.739 42.8404 158.644 42.6715 158.476C42.5026 158.307 42.4077 158.078 42.4077 157.839C42.4077 157.601 42.5026 157.372 42.6715 157.203C42.8404 157.034 43.0695 156.939 43.3083 156.939H96.2669C96.5058 156.939 96.7349 157.034 96.9038 157.203C97.0726 157.372 97.1675 157.601 97.1675 157.839C97.1675 158.078 97.0726 158.307 96.9038 158.476C96.7349 158.644 96.5058 158.739 96.2669 158.739Z" fill="white"/>
<path d="M95.6581 161.971H43.9172C43.7891 161.986 43.6593 161.974 43.5362 161.936C43.4131 161.897 43.2996 161.833 43.2031 161.747C43.1067 161.662 43.0295 161.556 42.9767 161.439C42.9238 161.321 42.8965 161.194 42.8965 161.065C42.8965 160.936 42.9238 160.809 42.9767 160.691C43.0295 160.573 43.1067 160.468 43.2031 160.383C43.2996 160.297 43.4131 160.233 43.5362 160.194C43.6593 160.156 43.7891 160.144 43.9172 160.159H95.6581C95.7862 160.144 95.9161 160.156 96.0392 160.194C96.1622 160.233 96.2757 160.297 96.3722 160.383C96.4686 160.468 96.5458 160.573 96.5986 160.691C96.6515 160.809 96.6788 160.936 96.6788 161.065C96.6788 161.194 96.6515 161.321 96.5986 161.439C96.5458 161.556 96.4686 161.662 96.3722 161.747C96.2757 161.833 96.1622 161.897 96.0392 161.936C95.9161 161.974 95.7862 161.986 95.6581 161.971Z" fill="white"/>
<path d="M95.0619 165.204H44.5134C44.2746 165.204 44.0455 165.109 43.8766 164.941C43.7077 164.772 43.6128 164.543 43.6128 164.304C43.6128 164.066 43.7077 163.837 43.8766 163.668C44.0455 163.499 44.2746 163.404 44.5134 163.404H95.0619C95.3008 163.404 95.5298 163.499 95.6987 163.668C95.8676 163.837 95.9626 164.066 95.9626 164.304C95.9626 164.543 95.8676 164.772 95.6987 164.941C95.5298 165.109 95.3008 165.204 95.0619 165.204Z" fill="white"/>
<path d="M93.8569 168.411H45.655C45.4162 168.411 45.1871 168.316 45.0182 168.148C44.8493 167.979 44.7544 167.75 44.7544 167.511C44.7544 167.273 44.8493 167.044 45.0182 166.875C45.1871 166.706 45.4162 166.611 45.655 166.611H93.8569C94.0957 166.611 94.3248 166.706 94.4937 166.875C94.6626 167.044 94.7575 167.273 94.7575 167.511C94.7575 167.75 94.6626 167.979 94.4937 168.148C94.3248 168.316 94.0957 168.411 93.8569 168.411Z" fill="white"/>
</g>
<path d="M92.5251 153.353C95.9753 140.12 119.226 141.337 119.531 157.536C119.835 173.734 87.0707 174.292 92.5251 153.353Z" fill="#FFD000"/>
<path opacity="0.2" d="M117.121 149.867C117.968 151.07 118.595 152.413 118.973 153.834C119.313 155.061 119.488 156.327 119.493 157.599C119.543 159.095 119.262 160.584 118.668 161.959C114.863 170.768 99.2225 172.163 93.7808 164.291C92.9826 163.151 92.4337 161.855 92.1698 160.489C91.9434 159.427 91.8497 158.342 91.8907 157.257C91.8907 156.733 91.9415 156.201 92.0429 155.66C92.1227 155.045 92.237 154.436 92.3854 153.834L92.4996 153.366C92.7263 152.484 93.0585 151.633 93.489 150.831C94.3246 149.36 95.4539 148.076 96.8068 147.06C98.1598 146.044 99.7074 145.317 101.354 144.924C101.387 144.913 101.422 144.913 101.455 144.924H101.531C107.074 143.39 113.658 145.051 117.121 149.867Z" fill="black"/>
<g opacity="0.2">
<path d="M113.062 149.349C114.508 149.513 115.002 150.895 115.776 151.744C116.814 152.517 117.894 153.232 119.011 153.886C119.334 155.098 119.496 156.346 119.493 157.6C119.543 159.097 119.262 160.586 118.668 161.96C117.121 163.773 115.205 165.547 114.051 165.864C111.857 166.485 111.184 166.092 109.332 167.132C107.48 168.171 107.671 168.209 106.529 168.463C105.387 168.716 104.258 169.249 103.447 168.463C102.635 167.677 101.798 168.171 100.618 167.499C99.2369 166.648 97.8098 165.874 96.3432 165.18C95.1508 164.685 94.8083 164.698 93.8062 164.255C93.0081 163.114 92.4592 161.818 92.1953 160.452C93.0653 161.319 94.0168 162.1 95.0367 162.784C96.5715 163.963 97.155 164.356 98.6137 164.419C100.072 164.483 99.007 166.333 101.734 165.978C104.461 165.623 105.184 166.777 106.669 166.219C108.153 165.661 108.597 164.66 110.233 164.762C111.869 164.863 111.831 165.104 112.77 164.267C113.709 163.431 115.117 164.508 115.928 163.583C116.74 162.657 117.4 162.442 117.73 161.935C118.059 161.428 118.998 159.628 119.429 158.678C118.955 158.447 118.425 158.355 117.9 158.411C117.375 158.467 116.876 158.669 116.461 158.994C115.548 159.983 113.67 157.625 112.77 158.335C111.714 159.155 110.416 159.601 109.079 159.603C106.764 159.581 104.467 160.011 102.318 160.87C100.034 161.884 98.7913 158.462 96.0514 159.451C94.0472 160.173 92.8042 157.955 91.8782 157.207C91.8782 156.683 91.9289 156.151 92.0304 155.61L92.5251 155.483C94.5039 155.154 94.0219 155.788 95.6455 156.041C97.2692 156.295 97.7639 155.534 101.544 154.913C105.324 154.292 103.041 156.827 105.07 156.269C107.1 155.712 106.047 156.535 109.294 156.84C112.542 157.144 110.778 156.269 113.188 155.965C115.599 155.661 115.383 156.814 116.448 155.965C117.045 155.496 118.212 156.079 119.112 156.675C118.744 155.788 118.376 154.9 118.224 154.571C117.869 153.798 117.577 153.227 116.22 153.443C114.863 153.658 113.683 151.529 112.783 151.212C111.513 150.901 110.208 150.752 108.901 150.768C107.709 150.768 106.161 149.64 103.903 149.881C101.645 150.122 102.635 149.742 100.872 149.881C99.5909 149.899 98.3334 150.225 97.2057 150.832C95.506 151.579 96.3939 151.212 94.8971 151.846C93.984 152.384 93.1332 153.022 92.3602 153.747L92.4744 153.278C92.7011 152.396 93.0333 151.545 93.4638 150.743C93.8462 150.645 94.223 150.527 94.5927 150.388C95.8611 149.856 95.4933 149.501 97.0535 149.044C98.6137 148.588 98.4615 148.373 100.859 147.498C103.256 146.624 102.521 147.98 103.929 148.322C105.337 148.664 105.679 148.322 107.303 148.639C108.926 148.956 108.356 148.271 110.487 149.197C112.618 150.122 111.616 149.184 113.062 149.349Z" fill="black"/>
<path d="M117.121 149.867C116.284 148.881 115.274 148.057 114.14 147.434C112.945 146.882 111.695 146.457 110.411 146.166C108.952 146.052 108.254 145.355 106.174 145.647C104.094 145.938 103.497 144.455 101.531 144.797C107.074 143.39 113.658 145.051 117.121 149.867Z" fill="black"/>
</g>
<path d="M111.451 156.966L141.158 154.203C141.158 154.203 140.625 168.805 128.004 168.805C115.383 168.805 111.451 156.966 111.451 156.966Z" fill="#FFD000"/>
<path opacity="0.2" d="M141.158 154.215C141.158 154.215 140.866 162.251 135.552 166.383C133.376 168.053 130.683 168.91 127.941 168.804C115.32 168.804 111.451 156.965 111.451 156.965H111.945L141.158 154.215Z" fill="black"/>
<path opacity="0.6" d="M141.158 154.215C141.158 154.215 140.866 162.251 135.551 166.383C135.135 166.523 134.712 166.642 134.283 166.738C121.002 169.628 111.806 156.965 111.806 156.965H112.009H112.808L140.6 154.43L141.158 154.215Z" fill="white"/>
<path d="M140.549 154.266C140.042 159.336 138.253 164.811 133.205 166.066C123.057 168.601 112.491 156.965 112.491 156.965L112.757 156.851L140.549 154.266Z" fill="#FFD000"/>
<path opacity="0.2" d="M140.549 154.266C140.042 159.336 138.253 164.811 133.205 166.066C123.057 168.601 112.491 156.965 112.491 156.965L112.757 156.851L140.549 154.266Z" fill="white"/>
<path d="M128.943 157.461C128.943 157.461 129.539 158.589 128.943 158.64C128.347 158.69 128.943 157.461 128.943 157.461Z" fill="#263238"/>
<path d="M133.344 157.461C133.344 157.461 134.144 158.538 133.75 158.64C133.357 158.741 133.344 157.461 133.344 157.461Z" fill="#263238"/>
<path d="M135.425 156.51C135.425 156.51 136.579 156.852 136.427 157.156C136.275 157.46 135.425 156.51 135.425 156.51Z" fill="#263238"/>
<path d="M132.013 161.504C132.013 161.504 132.761 162.771 132.013 162.771C131.264 162.771 132.013 161.504 132.013 161.504Z" fill="#263238"/>
<path d="M126.304 161.199C126.304 161.199 125.34 162.188 125.734 162.391C126.127 162.593 126.304 161.199 126.304 161.199Z" fill="#263238"/>
<path d="M122.816 158.639C122.816 158.639 122.169 159.906 121.776 159.577C121.383 159.247 122.816 158.639 122.816 158.639Z" fill="#263238"/>
<path d="M125.632 157.789C125.632 157.789 126.038 158.651 125.632 158.638C125.226 158.626 125.632 157.789 125.632 157.789Z" fill="#263238"/>
<path d="M118.706 158.043C118.706 158.043 118.262 159.222 118.009 158.88C117.755 158.537 118.706 158.043 118.706 158.043Z" fill="#263238"/>
<path d="M123.108 161.807C123.108 161.807 123.26 162.783 122.816 162.592C122.372 162.402 123.108 161.807 123.108 161.807Z" fill="#263238"/>
<path d="M135.983 159.92C135.983 159.92 136.757 159.92 136.516 160.351C136.275 160.782 135.983 159.92 135.983 159.92Z" fill="#263238"/>
<path d="M152.669 168H88.3306H87V273H88.3306H89.7004H91.0244V180.445H149.976V273H151.306H152.669H154V168H152.669Z" fill="#263238"/>
<path opacity="0.2" d="M154 168V273H151.689V180.445H89.3182V273H87V168H154Z" fill="white"/>
<path opacity="0.2" d="M152.669 168H88.3306H87V273H88.3306H89.7004H91.0244V180.445H149.976V273H151.306H152.669H154V168H152.669Z" fill="white"/>
<path d="M154 168H36.6919H35V273H36.6919H38.4253H40.1173V180.445H115.077V273H116.769H118.502H120.194V180.445L154 180.597V168Z" fill="#263238"/>
<path opacity="0.2" d="M42.8138 180.516H39.3762V272.993H42.8138V180.516Z" fill="white"/>
<path opacity="0.4" d="M154 168V273H149.894V180.445H39.1055V273H35V168H154Z" fill="white"/>
</g>
</svg>
