<svg width="200" height="200" viewBox="0 0 200 200" fill="none" xmlns="http://www.w3.org/2000/svg">
<path d="M179.067 142.648L175.607 142.05C172.547 143.417 171.952 149.672 172.955 170.866L176.415 171.464C175.96 155.021 174.909 143.033 179.067 142.648Z" fill="#FFD000"/>
<path fill-rule="evenodd" clip-rule="evenodd" d="M96.6489 40.0786C72.5164 41.5624 60.8087 65.3973 46.0572 82.1754C34.101 95.7741 23.0389 109.409 20.7142 126.445C18.0291 146.122 16.4425 168.605 32.3369 182.721C48.2827 196.882 74.0361 195.809 96.6489 193.883C119.863 194.322 138.62 187.342 149.552 172.737C165.068 160.174 178.921 144.922 179.935 126.445C180.989 107.244 169.055 90.1752 154.888 75.4837C139.04 59.05 121.162 38.5713 96.6489 40.0786Z" fill="#FFF3CC"/>
<path d="M107.94 44.8647L107.07 44.8164C102.876 44.5763 98.7456 45.9237 95.4999 48.5907C92.2541 51.2577 90.1313 55.0488 89.5536 59.2099C88.4427 67.2599 89.7307 68.6774 89.5536 73.0002C89.1431 81.968 97.816 88.5002 97.816 88.5002L95.2933 94.952C95.1675 96.3825 95.3256 97.8237 95.7585 99.1929C96.1915 100.562 96.8907 101.832 97.816 102.93C98.7413 104.029 99.8745 104.933 101.151 105.592C102.426 106.251 103.82 106.651 105.251 106.769C108.103 106.998 110.93 106.096 113.123 104.259C115.316 102.422 116.698 99.796 116.972 96.9484L120.192 63.6937C121.496 54.4362 117.23 45.9515 107.94 44.8647Z" fill="#FFBF9D"/>
<path d="M98 88.5007C102.149 88.7417 106.371 87.6491 110 85.6777C110 85.6777 105.881 91.7827 97 90.5007L98 88.5007Z" fill="#FF9A6C"/>
<path d="M104.004 68.3284C103.975 68.7349 104.102 69.1368 104.357 69.447C104.613 69.7572 104.976 69.9508 105.368 69.9858C105.559 70.0133 105.753 70.0008 105.939 69.9492C106.125 69.8975 106.299 69.8078 106.451 69.6852C106.603 69.5627 106.729 69.4099 106.823 69.2358C106.917 69.0617 106.976 68.8698 106.997 68.6716C107.021 68.2663 106.892 67.8672 106.638 67.5581C106.384 67.249 106.023 67.054 105.633 67.0142C105.442 66.9867 105.248 66.9992 105.062 67.0509C104.876 67.1025 104.702 67.1922 104.55 67.3148C104.398 67.4373 104.272 67.5901 104.178 67.7642C104.084 67.9383 104.025 68.1302 104.004 68.3284Z" fill="#263238"/>
<path d="M91.212 63.701C91.3649 63.8781 92.3712 63.21 93.7477 63.2985C95.1243 63.3871 96.0984 64.1035 96.2513 63.9667C96.4043 63.8298 96.1869 63.5883 95.7683 63.2422C95.1958 62.793 94.4986 62.5316 93.7719 62.4935C93.0568 62.4539 92.3472 62.6397 91.7433 63.0248C91.3166 63.3227 91.1556 63.6125 91.212 63.701Z" fill="#263238"/>
<path d="M92.0028 68.3284C91.9789 68.7337 92.1076 69.1328 92.3621 69.4419C92.6165 69.751 92.9767 69.946 93.3671 69.9858C93.5579 70.0133 93.752 70.0008 93.938 69.9491C94.1241 69.8975 94.2982 69.8078 94.4501 69.6852C94.6021 69.5627 94.7287 69.4099 94.8226 69.2358C94.9165 69.0617 94.9756 68.8698 94.9966 68.6716C95.023 68.2657 94.8951 67.8652 94.6402 67.5556C94.3854 67.2459 94.0237 67.0516 93.6323 67.0142C93.4416 66.9867 93.2474 66.9992 93.0614 67.0509C92.8754 67.1025 92.7012 67.1922 92.5493 67.3148C92.3974 67.4373 92.2707 67.5901 92.1769 67.7642C92.083 67.9383 92.0238 68.1302 92.0028 68.3284Z" fill="#263238"/>
<path d="M104.744 64.7316C104.889 64.9087 105.903 64.2486 107.28 64.3291C108.656 64.4096 109.622 65.1341 109.783 64.9973C109.944 64.8604 109.719 64.6189 109.292 64.2728C108.724 63.8278 108.033 63.5691 107.312 63.5322C106.596 63.4864 105.885 63.6727 105.283 64.0635C104.833 64.3613 104.672 64.6511 104.744 64.7316Z" fill="#263238"/>
<path d="M99.1652 74.6567C98.4536 74.3823 97.7095 74.201 96.9514 74.1173C96.5972 74.061 96.2752 73.9724 96.2269 73.7309C96.2149 73.3658 96.3162 73.0059 96.5167 72.7005C96.9031 71.8955 97.3217 71.002 97.7162 70.0843C99.3745 66.3571 100.598 63.29 100.453 63.2256C100.308 63.1612 98.8432 66.1237 97.1688 69.8508C96.7663 70.7685 96.3638 71.646 96.0176 72.4832C95.7753 72.8956 95.6816 73.3786 95.752 73.8517C95.7956 73.9799 95.8685 74.0961 95.9649 74.1911C96.0613 74.2862 96.1786 74.3574 96.3074 74.3991C96.497 74.4654 96.6947 74.506 96.8951 74.5198C97.6438 74.6547 98.4057 74.7006 99.1652 74.6567Z" fill="#263238"/>
<path d="M104.641 60.4005C104.761 60.7788 106.146 60.6822 107.748 60.972C109.35 61.2618 110.63 61.777 110.863 61.447C110.968 61.294 110.759 60.9318 110.26 60.5373C109.582 60.0516 108.803 59.7266 107.982 59.5871C107.16 59.4476 106.318 59.4973 105.518 59.7323C104.914 59.9416 104.592 60.2153 104.641 60.4005Z" fill="#263238"/>
<path d="M91.9137 60.827C92.1311 61.149 93.0971 60.8833 94.2402 60.9316C95.3833 60.9799 96.3332 61.2617 96.5747 60.9316C96.6793 60.7787 96.5747 60.4567 96.148 60.1266C95.6025 59.7358 94.9513 59.5197 94.2804 59.5068C93.608 59.4784 92.9436 59.6614 92.3806 60.03C91.962 60.352 91.8091 60.666 91.9137 60.827Z" fill="#263238"/>
<path d="M90.6564 55.1525C90.6564 55.1525 93.337 49.6784 96.1223 48.5192C99.4872 47.1266 100.687 50.8054 103.858 50.1292C107.03 49.453 110.242 48.1006 113.293 50.6927C116.626 53.5344 114.903 55.2974 114.903 59.2821C114.855 75.4385 117.535 80.1639 118.807 72.629C118.944 71.824 121.295 71.2686 121.834 67.799C122.543 63.2749 123.034 57.7526 122.204 54.4602C121.504 51.6909 120.063 49.7187 117.374 47.4808C113.164 43.9549 107.135 43.5363 103.005 43.7134C98.8754 43.8905 90.6805 48.1006 90.6564 55.1525Z" fill="#263238"/>
<path d="M118.22 72.3236C118.247 71.9929 118.342 71.6713 118.499 71.3788C118.655 71.0864 118.871 70.8295 119.131 70.624C119.392 70.4185 119.692 70.269 120.013 70.1847C120.334 70.1004 120.669 70.0831 120.997 70.134C122.655 70.3916 124.458 71.4462 124.153 74.8916C123.605 81.0016 117.584 79.1903 117.584 79.0132C117.584 78.8361 117.97 74.8835 118.22 72.3236Z" fill="#FFBF9D"/>
<path d="M119.105 76.8303C119.105 76.8303 119.202 76.9188 119.379 77.0154C119.626 77.1475 119.914 77.1793 120.184 77.104C120.844 76.9269 121.48 75.9448 121.609 74.85C121.673 74.3266 121.617 73.7955 121.448 73.2963C121.408 73.1011 121.321 72.9186 121.195 72.7643C121.068 72.6101 120.907 72.4888 120.723 72.4108C120.604 72.3686 120.474 72.3688 120.356 72.4113C120.237 72.4538 120.136 72.5361 120.071 72.6443C119.967 72.8053 119.999 72.934 119.967 72.9421C119.934 72.9501 119.846 72.8294 119.918 72.5798C119.964 72.4305 120.061 72.3022 120.192 72.2176C120.372 72.1045 120.589 72.0669 120.796 72.1129C121.041 72.1861 121.264 72.3205 121.443 72.5036C121.621 72.6868 121.751 72.9125 121.818 73.1595C122.031 73.7126 122.106 74.3096 122.035 74.8983C121.882 76.1299 121.15 77.2247 120.248 77.4018C120.08 77.4353 119.907 77.4302 119.741 77.387C119.575 77.3438 119.421 77.2635 119.29 77.1523C119.105 76.9832 119.081 76.8464 119.105 76.8303Z" fill="#FF9A6C"/>
<path d="M89.3524 48.5191C90.2943 47.8107 91.5903 47.7141 92.5241 46.9977C96.6835 43.8042 103.387 37.7091 109.111 40.8959C111.289 42.1085 114.038 42.2125 115.982 43.6006C116.547 44.0475 117.013 44.608 117.348 45.2458C117.684 45.8835 117.882 46.5845 117.93 47.3036C117.93 47.3036 118.566 46.9816 120.498 48.5111C121.73 49.4851 122.736 51.5862 123.187 53.0835C123.855 55.3294 122.881 57.6962 121.923 59.8294C121.408 60.9806 120.764 62.2444 119.564 62.655C118.107 63.146 116.497 62.0029 115.926 60.57C115.354 59.1371 114.452 57.6962 113.76 56.3196C112.553 53.9046 111.345 51.6989 112.335 50.1694C109.07 49.1089 106.906 51.0056 104.003 52.0289C102.783 52.4594 97.8575 53.276 96.4995 52.9513C96.0607 52.8464 95.6512 52.6439 95.3014 52.359C94.7484 53.2599 93.8762 53.9194 92.8587 54.2059C91.8411 54.4923 90.753 54.3848 89.8112 53.9046C87.9919 52.7776 87.6699 49.791 89.3524 48.5191Z" fill="#263238"/>
<path d="M122.535 58.3875C122.252 58.8294 122.015 59.2987 121.826 59.7882C121.606 60.2826 121.258 60.7102 120.82 61.0279C120.234 61.3278 119.559 61.405 118.92 61.2452C118.256 61.1164 117.629 60.8414 117.085 60.4402C116.646 60.0994 116.246 59.7106 115.893 59.281C115.585 58.8596 115.243 58.4638 114.871 58.0977C115.067 58.5852 115.339 59.0388 115.676 59.442C116.013 59.9161 116.414 60.3413 116.867 60.7059C117.449 61.1447 118.124 61.4424 118.84 61.5753C119.565 61.7551 120.332 61.6484 120.981 61.2774C121.466 60.9224 121.835 60.4324 122.044 59.8687C122.268 59.397 122.433 58.8995 122.535 58.3875Z" fill="#B9B8B6"/>
<path d="M122.301 63.1146C121.933 63.394 121.526 63.619 121.094 63.7828C120.623 63.9318 120.126 63.9757 119.636 63.9116C119.036 63.8203 118.462 63.6007 117.954 63.2676C117.031 62.6266 116.248 61.805 115.652 60.8526C115.424 60.4394 115.154 60.0509 114.847 59.6934C114.988 60.1539 115.197 60.5907 115.467 60.9894C116.014 62.0378 116.806 62.9383 117.777 63.6137C118.33 63.9795 118.962 64.2085 119.62 64.2819C120.167 64.342 120.72 64.2674 121.23 64.0645C122.051 63.6701 122.341 63.1227 122.301 63.1146Z" fill="#B9B8B6"/>
<path d="M103.297 79.6289C103.503 79.9662 103.618 80.3164 103.638 80.6697C103.663 80.8368 103.617 81.0047 103.503 81.1618C103.389 81.319 103.211 81.4618 102.98 81.5804C102.74 81.7262 102.441 81.8432 102.104 81.9233C101.766 82.0034 101.398 82.0446 101.027 82.0439C100.356 82.0432 99.7074 81.92 99.1981 81.6964C98.6888 81.4729 98.3518 81.1636 98.2479 80.8242L98.0098 80.0558C99.3991 79.8525 103.194 79.6818 103.297 79.6289Z" fill="#FF9A6C"/>
<path d="M99.0522 81.1252C99.0522 81.1252 99.2472 81.1252 99.5693 81.1411C100.021 81.163 100.482 81.163 100.934 81.1411C101.587 81.1089 102.177 81.0007 102.587 80.8381C103.075 80.6348 103.307 80.3822 103.239 80.1285C103.22 79.9858 103.101 79.8462 102.892 79.7193L103.095 79.7485C101.646 79.8176 100.374 79.8734 99.476 79.9053C98.9928 79.9336 98.5011 79.9452 98.0098 79.9399C98.4676 79.884 98.9459 79.8465 99.4336 79.8282C100.332 79.7751 101.586 79.7033 103.036 79.6289H103.171L103.231 79.6661C103.556 79.8636 103.694 80.086 103.629 80.3073C103.565 80.5286 103.3 80.7395 102.866 80.9152C102.39 81.0951 101.709 81.2096 100.968 81.2341C100.486 81.2474 100.001 81.233 99.5354 81.1916C99.361 81.1806 99.1962 81.1579 99.0522 81.1252Z" fill="#263238"/>
<path d="M139.512 106.576C140.043 106.576 147.626 109.603 149.623 117.041C151.619 124.479 157.069 151.769 157.069 151.769L162.857 159.787C162.857 159.787 160.981 174.414 150.347 171.628C150.347 171.628 143.247 172.868 140.985 165.671C138.723 158.475 134.336 137.005 134.336 137.005L139.512 106.576Z" fill="#B9B8B6"/>
<path d="M117.853 94L121.88 100.196L140 106.752L134.814 160.234V185.5C115.5 197.5 77.2791 196.215 74.5409 195C73.1154 194.959 71.3195 191.408 71.0859 189.425C70.8846 187.645 71.038 185.841 71.5369 184.123L74.5409 173.403C74.0979 180.074 76.063 133.607 76.1516 131.911L71.7624 108.006L92.3795 99.5154L95.6009 94.5081L104.879 101.687L117.853 94Z" fill="#B9B8B6"/>
<path d="M71.3363 107.84C71.3363 107.84 67.1905 111.478 66.5063 114.28C65.822 117.081 50.9134 149.354 50.9134 149.354L43.5074 151.35L41.5271 155.456C40.3704 157.81 40.0591 160.49 40.6454 163.047C41.2318 165.603 42.6801 167.88 44.7471 169.495C45.0045 169.69 45.2733 169.871 45.5521 170.034C49.5771 172.449 56.7416 172.321 60.9357 167.378C64.9043 162.693 76.5205 145.852 76.5205 145.852V125.244L71.3363 107.84Z" fill="#B9B8B6"/>
<path d="M47.0495 152.59L36.3993 146.303L31.2634 152.59L32.326 155.633L46.0594 165.848C47.7643 164.457 48.9081 162.495 49.2794 160.326C49.8831 156.486 47.0495 152.59 47.0495 152.59Z" fill="#FFBF9D"/>
<path d="M50.4305 149.337C50.4305 149.442 51.3402 149.337 52.6765 149.788C54.4033 150.385 55.9323 151.446 57.0959 152.855C58.2458 154.295 59.1937 155.885 59.9134 157.581C60.1847 158.307 60.5215 159.008 60.9197 159.674C60.8123 158.901 60.5955 158.147 60.2757 157.436C59.6431 155.646 58.7093 153.977 57.5145 152.501C56.2929 151.009 54.6394 149.932 52.7811 149.418C52.0213 149.167 51.2057 149.139 50.4305 149.337Z" fill="#263238"/>
<path d="M36.5764 149.789C36.8418 148.399 36.7467 146.964 36.3 145.621C35.8532 144.277 35.0698 143.071 34.0245 142.117C31.5099 140.049 28.6664 138.416 25.6122 137.287C23.7446 136.482 19.8564 133.206 19.1722 133.995C18.4879 134.784 18.182 135.959 19.1722 137.392C20.1623 138.825 25.7893 140.958 25.0004 142.769C24.6784 143.502 22.9074 143.639 22.9074 143.639C19.6927 143.865 16.4686 143.929 13.2474 143.832C10.3977 143.582 7.83777 144.13 7.99072 145.112C8.14367 146.094 8.67497 146.633 11.0336 146.834C13.3923 147.036 17.2321 146.883 17.4736 147.422C17.7151 147.961 16.8779 148.308 15.5014 148.227C14.1248 148.147 7.63652 148.122 7.19377 148.863C7.0861 149.051 7.02143 149.261 7.00446 149.477C6.98749 149.692 7.01864 149.91 7.09563 150.112C7.17262 150.314 7.29354 150.497 7.44971 150.648C7.60588 150.798 7.79341 150.911 7.99878 150.98L9.52022 151.52C9.52022 151.52 8.63472 152.751 9.37532 153.435C10.1159 154.12 11.7903 153.878 11.7903 153.878L20.3958 153.637C20.3958 153.637 20.8869 154.152 20.6454 154.506C20.4039 154.86 13.6579 154.369 13.6096 155.11C13.5613 155.85 12.9737 156.189 14.9862 156.72C17.9336 157.211 20.9421 157.211 23.8895 156.72C25.7088 156.221 33.3322 155.915 33.3322 155.915L36.5764 149.789Z" fill="#FFBF9D"/>
<path d="M153.535 153.709L163.493 145.449L169.208 151.889L168.508 155.037L156.063 166.758C154.218 165.7 152.826 164.001 152.15 161.984C150.911 158.434 153.535 153.709 153.535 153.709Z" fill="#FFBF9D"/>
<path d="M163.606 149.747C163.178 148.399 163.101 146.964 163.382 145.578C163.664 144.192 164.295 142.9 165.216 141.826C167.481 139.475 170.13 137.526 173.048 136.062C174.803 135.008 178.281 131.337 179.062 132.037C179.525 132.455 179.82 133.026 179.893 133.646C179.965 134.265 179.81 134.889 179.456 135.402C178.651 136.94 174.771 138.727 174.908 140.699C174.922 140.89 174.974 141.076 175.06 141.247C175.146 141.418 175.265 141.57 175.41 141.695C175.555 141.82 175.724 141.915 175.905 141.975C176.087 142.034 176.279 142.058 176.47 142.044C179.682 141.896 182.884 141.587 186.065 141.118C188.875 140.538 191.475 140.78 191.443 141.77C191.411 142.76 190.936 143.38 188.617 143.839C186.299 144.298 182.467 144.644 182.338 145.167C182.209 145.69 183.022 145.972 184.383 145.722C185.743 145.473 192.183 144.708 192.707 145.392C192.836 145.564 192.926 145.763 192.97 145.974C193.013 146.185 193.01 146.403 192.959 146.613C192.908 146.822 192.811 147.018 192.676 147.185C192.54 147.353 192.369 147.488 192.175 147.582L190.726 148.298C190.726 148.298 191.749 149.417 191.097 150.182C190.445 150.947 188.754 150.907 188.754 150.907L180.173 151.663C180.173 151.663 179.746 152.235 180.036 152.557C180.326 152.879 186.951 151.607 187.088 152.34C187.225 153.072 187.852 153.338 185.904 154.062C183.03 154.895 180.038 155.246 177.049 155.101C175.182 154.819 167.566 155.366 167.566 155.366L163.606 149.747Z" fill="#FFBF9D"/>
<path d="M92.4597 101.006C92.9982 101.678 93.5964 102.301 94.2468 102.865C95.3819 103.976 96.9355 105.53 98.5777 107.301C98.9239 107.679 99.27 108.05 99.592 108.412L99.8094 108.645L100.011 108.396C101.283 106.786 102.385 105.305 103.158 104.25C103.612 103.714 103.999 103.125 104.309 102.495C103.775 102.952 103.294 103.468 102.876 104.033C102.031 105.031 100.872 106.448 99.584 108.058H99.9945L98.9883 106.939C97.5736 105.41 96.0796 103.956 94.5125 102.584C93.8949 101.976 93.2056 101.446 92.4597 101.006Z" fill="#263238"/>
<path d="M138.377 120.502C138.229 120.857 138.129 121.231 138.079 121.613C137.926 122.337 137.733 123.392 137.524 124.696C137.105 127.304 136.662 130.927 136.292 134.936C135.922 138.945 135.648 142.583 135.439 145.216C135.358 146.439 135.278 147.478 135.221 148.331C135.171 148.713 135.171 149.1 135.221 149.482C135.336 149.115 135.412 148.738 135.447 148.355C135.559 147.622 135.696 146.56 135.841 145.248C136.147 142.631 136.485 139.001 136.856 134.992C137.226 130.983 137.588 127.369 137.902 124.793C138.055 123.577 138.184 122.539 138.288 121.693C138.372 121.302 138.401 120.901 138.377 120.502Z" fill="#263238"/>
<path d="M75.3936 118.676C75.2787 119.132 75.2112 119.599 75.1924 120.068C75.1038 120.978 75.0072 122.282 74.9267 123.908C74.7416 127.128 74.653 131.636 74.6369 136.579V153.09C74.6111 153.56 74.6299 154.032 74.6933 154.498C74.7976 154.039 74.8489 153.569 74.8462 153.098C74.9106 152.188 74.975 150.876 75.0233 149.258C75.136 146.038 75.1763 141.53 75.1843 136.587C75.1924 131.644 75.2326 127.161 75.3131 123.924C75.3534 122.387 75.3856 121.099 75.4097 120.085C75.4479 119.615 75.4425 119.144 75.3936 118.676Z" fill="#263238"/>
<path d="M146.548 165.123C146.8 164.209 146.985 163.279 147.103 162.338C147.48 160.092 148.208 157.918 149.261 155.898C150.334 153.917 151.948 152.282 153.914 151.181C154.759 150.777 155.633 150.438 156.53 150.166C156.265 150.109 155.99 150.109 155.725 150.166C155.027 150.283 154.35 150.497 153.712 150.802C151.597 151.857 149.864 153.546 148.753 155.632C147.688 157.706 147.012 159.957 146.757 162.274C146.568 163.211 146.497 164.168 146.548 165.123Z" fill="#263238"/>
<path d="M143.964 154.248C144.076 154.377 145.678 152.727 148.286 151.833C150.895 150.94 153.116 151.246 153.165 151.077C153.213 150.908 150.854 150.36 148.109 151.318C145.364 152.276 143.843 154.184 143.964 154.248Z" fill="#263238"/>
<path d="M103.11 191.656C103.159 191.358 103.18 191.057 103.174 190.755C103.174 190.119 103.174 189.258 103.231 188.179C103.279 185.885 103.343 182.657 103.424 178.688C103.609 170.638 103.867 159.585 104.156 147.381C104.446 135.177 104.599 124.076 104.583 116.059C104.583 112.034 104.543 108.814 104.495 106.56C104.495 105.481 104.438 104.62 104.414 103.984C104.421 103.682 104.399 103.38 104.35 103.082C104.327 103.382 104.327 103.684 104.35 103.984C104.35 104.62 104.35 105.481 104.35 106.56C104.35 108.854 104.301 112.09 104.269 116.051C104.189 124.101 103.955 135.137 103.681 147.365C103.408 159.593 103.166 170.662 103.102 178.68C103.102 182.705 103.102 185.925 103.102 188.179C103.102 189.258 103.102 190.119 103.142 190.755C103.111 191.054 103.1 191.356 103.11 191.656Z" fill="#263238"/>
<path d="M154.002 153.37C154.002 153.305 153.197 153.909 152.553 155.246C152.158 156.007 151.871 156.82 151.7 157.661C151.534 158.728 151.534 159.814 151.7 160.881C151.82 161.949 152.137 162.986 152.634 163.94C153.064 164.713 153.657 165.383 154.372 165.904C155.001 166.426 155.793 166.71 156.61 166.709C155.903 166.416 155.233 166.041 154.614 165.59C153.979 165.069 153.456 164.426 153.076 163.698C152.646 162.788 152.373 161.81 152.271 160.808C152.127 159.804 152.127 158.785 152.271 157.781C152.41 156.952 152.645 156.141 152.972 155.366C153.471 154.086 154.083 153.418 154.002 153.37Z" fill="#263238"/>
<path d="M44.0629 166.967C44.0629 166.967 44.3205 166.967 44.7311 166.765C45.3074 166.511 45.8485 166.184 46.3411 165.791C48.0279 164.492 49.1816 162.621 49.5849 160.531C49.9882 158.44 49.6133 156.274 48.5307 154.441C48.2152 153.89 47.8311 153.381 47.3876 152.927C47.0736 152.621 46.8724 152.476 46.8482 152.501C46.8241 152.525 47.4922 153.249 48.1926 154.626C49.129 156.407 49.4312 158.453 49.0493 160.428C48.6674 162.404 47.6242 164.19 46.0915 165.493C44.9404 166.508 44.0227 166.878 44.0629 166.967Z" fill="#263238"/>
<path d="M23.5917 140.41C23.5273 140.475 23.9942 140.917 24.5818 141.698C24.9199 142.145 25.1537 142.662 25.2661 143.212C25.3949 143.831 25.3788 144.556 25.4915 145.353C25.5874 146.037 25.8182 146.695 26.1706 147.29C26.523 147.884 26.9899 148.402 27.5443 148.814C27.9679 149.196 28.5053 149.428 29.0738 149.474C29.114 149.386 28.5183 149.161 27.7858 148.508C26.8427 147.673 26.2218 146.534 26.0308 145.288C25.9778 144.56 25.8865 143.834 25.7572 143.115C25.6031 142.515 25.3046 141.963 24.8877 141.505C24.5496 141.042 24.1051 140.666 23.5917 140.41Z" fill="#FF9A6C"/>
<path d="M178.861 148.879C178.861 149.024 181.541 149.169 184.85 149.008C188.158 148.847 190.815 148.46 190.799 148.307C190.783 148.155 188.118 148.307 184.826 148.46C181.533 148.613 178.861 148.718 178.861 148.879Z" fill="#FF9A6C"/>
<path d="M172.767 148.42C172.767 148.477 173.403 148.372 174.159 147.736C174.65 147.31 175.039 146.781 175.301 146.187C175.563 145.592 175.69 144.948 175.673 144.299C175.615 143.612 175.491 142.933 175.303 142.27C175.162 141.745 175.094 141.203 175.101 140.66C175.148 140.175 175.259 139.699 175.431 139.243C175.431 139.187 174.844 139.613 174.715 140.628C174.65 141.198 174.683 141.775 174.811 142.334C174.963 142.973 175.068 143.621 175.125 144.274C175.143 145.442 174.7 146.569 173.894 147.414C173.274 148.138 172.727 148.34 172.767 148.42Z" fill="#FF9A6C"/>
<path d="M22.0942 150.328C22.0942 150.175 19.2204 150.288 15.7106 150.578C12.2008 150.867 9.35908 151.238 9.36713 151.383C9.37518 151.528 12.241 151.423 15.7508 151.125C19.2606 150.827 22.1023 150.473 22.0942 150.328Z" fill="#FF9A6C"/>
<path d="M104.961 101.971C105.283 103.043 105.689 104.087 106.177 105.095C106.394 105.578 106.62 106.101 106.853 106.64C107.084 107.255 107.353 107.854 107.658 108.435C107.774 108.626 107.943 108.78 108.145 108.877C108.346 108.974 108.571 109.011 108.793 108.983C109.183 108.88 109.546 108.693 109.856 108.435L111.756 107.139C114.348 105.352 116.674 103.702 118.349 102.494C119.285 101.882 120.168 101.193 120.989 100.434C119.992 100.936 119.036 101.518 118.131 102.172C116.401 103.307 114.034 104.893 111.442 106.688L109.55 107.993C109.303 108.206 109.016 108.368 108.705 108.468C108.578 108.483 108.449 108.459 108.336 108.401C108.222 108.342 108.129 108.25 108.069 108.137C107.457 107.027 106.95 105.827 106.459 104.917C106.042 103.895 105.542 102.91 104.961 101.971Z" fill="#263238"/>
<path d="M20.6696 154.024L19.5694 155.034L19.7908 156.718C19.8777 157.308 19.6644 157.969 19.306 158.221C19.2581 158.253 19.2121 158.288 19.1684 158.325C17.5134 159.778 16.5207 163.515 16.8993 167.21C17.2407 170.544 18.5965 172.818 20.16 173.006C20.4263 173.04 21.4889 173.164 21.7588 173.197C22.1387 173.239 22.5224 173.165 22.8594 172.985C24.8475 171.966 26.1222 167.809 25.7004 163.705C25.4251 161.031 24.5007 159.038 23.3391 158.263C23.0226 158.018 22.8082 157.664 22.7373 157.27C22.5104 156.268 22.3526 155.251 22.2652 154.227L20.6696 154.024ZM20.2817 169.443C19.9436 168.599 19.7317 167.711 19.6529 166.805C19.3543 163.91 20.1484 160.911 21.4004 160.099C21.799 160.484 22.1094 160.951 22.3103 161.467C22.6527 162.31 22.8677 163.198 22.9484 164.104C23.2455 167.007 22.4514 170.006 21.1988 170.805C20.8022 170.421 20.492 169.956 20.2891 169.443L20.2817 169.443Z" fill="#FFD000"/>
<path opacity="0.4" d="M20.6696 154.024L19.5694 155.034L19.7908 156.718C19.8777 157.308 19.6644 157.969 19.306 158.221C19.2581 158.253 19.2121 158.288 19.1684 158.325C17.5134 159.778 16.5207 163.515 16.8993 167.21C17.2407 170.544 18.5965 172.818 20.16 173.006C20.4263 173.04 21.4889 173.164 21.7588 173.197C22.1387 173.239 22.5224 173.165 22.8594 172.985C24.8475 171.966 26.1222 167.809 25.7004 163.705C25.4251 161.031 24.5007 159.038 23.3391 158.263C23.0226 158.018 22.8082 157.664 22.7373 157.27C22.5104 156.268 22.3526 155.251 22.2652 154.227L20.6696 154.024ZM20.2817 169.443C19.9436 168.599 19.7317 167.711 19.6529 166.805C19.3543 163.91 20.1484 160.911 21.4004 160.099C21.799 160.484 22.1094 160.951 22.3103 161.467C22.6527 162.31 22.8677 163.198 22.9484 164.104C23.2455 167.007 22.4514 170.006 21.1988 170.805C20.8022 170.421 20.492 169.956 20.2891 169.443L20.2817 169.443Z" fill="black"/>
<path d="M22.2703 154.216L21.1701 155.226L21.3915 156.909C21.4784 157.499 21.265 158.159 20.9067 158.412C20.853 158.45 20.8065 158.486 20.7709 158.515C19.1159 159.968 18.1232 163.705 18.5018 167.4C18.9237 171.505 20.8787 174.005 22.8686 172.984C24.8585 171.964 26.1315 167.808 25.7096 163.705C25.4344 161.03 24.51 159.038 23.3484 158.263C23.0318 158.017 22.8174 157.664 22.7465 157.269C22.5177 156.264 22.3586 155.243 22.2703 154.216ZM23.9145 161.655C24.2553 162.498 24.4698 163.388 24.5509 164.294C24.8597 167.289 23.9984 170.396 22.6718 171.076C21.8242 171.512 20.912 170.885 20.2928 169.442C19.951 168.6 19.7353 167.711 19.6529 166.805C19.3441 163.81 20.2053 160.703 21.5319 160.023C22.3794 159.585 23.2917 160.213 23.9108 161.655L23.9145 161.655Z" fill="#FFD000"/>
<path d="M21.1682 155.226L21.3914 156.909C21.4764 157.499 21.2649 158.158 20.9066 158.412C20.8529 158.45 20.8046 158.485 20.7689 158.515C19.1158 159.967 18.123 163.704 18.5035 167.399C18.8435 170.704 20.1729 172.966 21.7196 173.192L20.1618 173.007C18.6001 172.818 17.2447 170.553 16.9011 167.21C16.5167 163.511 17.5113 159.774 19.1641 158.314C19.1998 158.285 19.2481 158.249 19.3 158.212C19.6583 157.96 19.8774 157.302 19.7848 156.708L19.5635 155.027L20.6655 154.017L22.2642 154.206L21.1682 155.226Z" fill="#FFD000"/>
<path opacity="0.2" d="M21.1682 155.226L21.3914 156.909C21.4764 157.499 21.2649 158.158 20.9066 158.412C20.8529 158.45 20.8046 158.485 20.7689 158.515C19.1158 159.967 18.123 163.704 18.5035 167.399C18.8435 170.704 20.1729 172.966 21.7196 173.192L20.1618 173.007C18.6001 172.818 17.2447 170.553 16.9011 167.21C16.5167 163.511 17.5113 159.774 19.1641 158.314C19.1998 158.285 19.2481 158.249 19.3 158.212C19.6583 157.96 19.8774 157.302 19.7848 156.708L19.5635 155.027L20.6655 154.017L22.2642 154.206L21.1682 155.226Z" fill="black"/>
<path opacity="0.2" d="M21.1701 155.226L19.5695 155.037L20.6715 154.026L22.2702 154.216L21.1701 155.226Z" fill="black"/>
<path d="M13.9648 115.973C14.3765 116.029 15.0816 116.105 15.0816 116.105C16.3296 116.276 17.3682 118.019 18.6002 122.824C19.8322 127.628 21.9486 139.455 22.8803 147.961C22.0339 149.372 21.7744 151.653 22.0223 154.179L20.9222 155.189L19.8055 155.056C19.8055 155.056 14.7023 124.204 13.9648 115.973Z" fill="#263238"/>
<path d="M22.03 154.185C21.7821 151.659 22.0413 149.372 22.8879 147.967C21.9485 139.454 19.8359 127.629 18.6057 122.824C17.3756 118.02 16.3352 116.277 15.0945 116.105C15.8301 124.337 20.9372 155.195 20.9372 155.195L22.03 154.185Z" fill="#455A64"/>
<path opacity="0.1" d="M22.8764 147.875C22.7671 146.884 22.6408 145.85 22.5023 144.791L19.3519 145.493C19.6399 147.294 19.9057 148.938 20.1343 150.341L21.4725 150.617C21.5326 150.469 21.6255 150.336 21.7442 150.229C21.8629 150.122 22.0043 150.043 22.1579 149.998C22.2856 149.294 22.5303 148.616 22.8819 147.993L22.8764 147.875Z" fill="black"/>
<path d="M29.4196 146.152C28.0701 145.989 26.886 146.946 26.0971 148.714L26.0977 148.727C26.0811 148.766 26.0624 148.802 26.0437 148.838L25.9709 148.745L24.3702 148.554L23.5198 150.154L25.154 152.522C25.477 153.024 25.6999 153.583 25.8105 154.168C26.2204 156.005 26.9555 157.754 27.9811 159.332C29.196 161.206 30.5962 162.412 31.8337 162.555L33.44 162.747C34.7425 162.895 35.8677 161.867 36.42 159.198C37.1086 155.843 36.1841 150.965 33.78 148.124C32.8414 147.013 31.908 146.448 31.0424 146.342L29.4196 146.152ZM30.0124 148.415C30.548 148.727 31.0215 149.136 31.4089 149.62C31.99 150.326 32.4635 151.115 32.8141 151.96C33.7199 154.07 34.0723 156.73 33.6926 158.581C33.4167 159.921 33.0318 160.278 32.778 160.431C32.0172 159.993 31.1774 159.134 30.4135 157.96C29.9712 157.276 29.5871 156.556 29.265 155.807C28.2739 153.496 28.0152 151.254 28.593 149.959C28.9608 149.157 29.4464 148.62 30.0124 148.415Z" fill="#FFD000"/>
<path opacity="0.2" d="M29.4196 146.152C28.0701 145.989 26.886 146.946 26.0971 148.714L26.0977 148.727C26.0811 148.766 26.0624 148.802 26.0437 148.838L25.9709 148.745L24.3702 148.554L23.5198 150.154L25.154 152.522C25.477 153.024 25.6999 153.583 25.8105 154.168C26.2204 156.005 26.9555 157.754 27.9811 159.332C29.196 161.206 30.5962 162.412 31.8337 162.555L33.44 162.747C34.7425 162.895 35.8677 161.867 36.42 159.198C37.1086 155.843 36.1841 150.965 33.78 148.124C32.8414 147.013 31.908 146.448 31.0424 146.342L29.4196 146.152ZM30.0124 148.415C30.548 148.727 31.0215 149.136 31.4089 149.62C31.99 150.326 32.4635 151.115 32.8141 151.96C33.7199 154.07 34.0723 156.73 33.6926 158.581C33.4167 159.921 33.0318 160.278 32.778 160.431C32.0172 159.993 31.1774 159.134 30.4135 157.96C29.9712 157.276 29.5871 156.556 29.265 155.807C28.2739 153.496 28.0152 151.254 28.593 149.959C28.9608 149.157 29.4464 148.62 30.0124 148.415Z" fill="black"/>
<path opacity="0.2" d="M25.1055 150.344L23.5068 150.154L24.3628 148.554L25.9634 148.746L25.1055 150.344Z" fill="black"/>
<path d="M31.0145 146.342L29.4195 146.152C28.07 145.989 26.8859 146.946 26.097 148.713L26.0977 148.728C26.081 148.766 26.0624 148.804 26.0437 148.84L26.4723 149.375C26.8382 149.837 27.3886 149.615 27.6982 148.914L27.6975 148.901C28.485 147.143 29.667 146.181 31.0145 146.342ZM34.4223 152.154C34.0692 151.309 33.5925 150.52 33.0078 149.815C32.0691 148.702 31.1254 148.195 30.2793 148.345C30.1883 148.362 30.099 148.386 30.0125 148.419C30.5485 148.73 31.022 149.139 31.4089 149.623C31.9933 150.329 32.47 151.117 32.8234 151.963C33.7255 154.071 34.0797 156.733 33.7001 158.585C33.4262 159.926 33.0393 160.281 32.7856 160.436C33.3983 160.792 33.9629 160.875 34.3917 160.625C34.6512 160.474 35.0286 160.116 35.3026 158.776C35.6786 156.924 35.3281 154.264 34.4223 152.154Z" fill="#FFD000"/>
<path opacity="0.4" d="M31.0145 146.342L29.4195 146.152C28.07 145.989 26.8859 146.946 26.097 148.713L26.0977 148.728C26.081 148.766 26.0624 148.804 26.0437 148.84L26.4723 149.375C26.8382 149.837 27.3886 149.615 27.6982 148.914L27.6975 148.901C28.485 147.143 29.667 146.181 31.0145 146.342ZM34.4223 152.154C34.0692 151.309 33.5925 150.52 33.0078 149.815C32.0691 148.702 31.1254 148.195 30.2793 148.345C30.1883 148.362 30.099 148.386 30.0125 148.419C30.5485 148.73 31.022 149.139 31.4089 149.623C31.9933 150.329 32.47 151.117 32.8234 151.963C33.7255 154.071 34.0797 156.733 33.7001 158.585C33.4262 159.926 33.0393 160.281 32.7856 160.436C33.3983 160.792 33.9629 160.875 34.3917 160.625C34.6512 160.474 35.0286 160.116 35.3026 158.776C35.6786 156.924 35.3281 154.264 34.4223 152.154Z" fill="black"/>
<path d="M36.4016 159.198C37.0902 155.844 36.1657 150.966 33.7616 148.124C31.3575 145.283 28.9924 145.999 27.6904 148.903L27.6911 148.918C27.3796 149.617 26.8293 149.841 26.4653 149.381L25.9634 148.742L25.1129 150.34L26.749 152.708C27.0711 153.21 27.294 153.77 27.4055 154.356C27.8156 156.193 28.55 157.941 29.5742 159.52C32.0646 163.371 35.3352 164.404 36.4016 159.198ZM34.3937 160.625C33.4334 161.182 31.8015 160.089 30.4231 157.966C29.9808 157.282 29.5967 156.562 29.2747 155.814C28.2835 153.502 28.0248 151.26 28.6026 149.965C29.0229 149.02 29.6056 148.462 30.2866 148.341C31.1328 148.19 32.0764 148.697 33.017 149.81C33.5985 150.516 34.0721 151.305 34.4222 152.15C35.3261 154.259 35.6804 156.92 35.3008 158.772C35.0251 160.118 34.6476 160.474 34.3937 160.625Z" fill="#FFD000"/>
<path d="M7.69326 124.796C11.5235 128.844 24.6338 147.109 25.7824 148.712L24.931 150.29L23.8142 150.157C23.3928 149.666 22.869 149.273 22.2796 149.006C21.9485 149.074 21.6412 149.229 21.3881 149.453L20.2714 149.32C16.1933 144.644 10.8228 136.798 8.77139 132.991C6.71993 129.184 6.20006 126.818 6.56732 124.664L7.69326 124.796Z" fill="#37474F"/>
<path d="M25.7827 148.72C24.6341 147.118 11.5253 128.845 7.69358 124.804C7.67176 124.931 7.65373 125.06 7.63763 125.19C7.39488 127.237 7.97327 129.548 9.89757 133.13C11.9436 136.939 17.314 144.784 21.3976 149.459C22.4401 148.56 23.7194 148.963 24.9424 150.298L25.7938 148.72L25.7827 148.72Z" fill="#455A64"/>
<path opacity="0.2" d="M7.69325 124.797C7.67143 124.924 7.6534 125.052 7.63729 125.182C7.51371 126.392 7.64156 127.614 8.01282 128.772C7.65024 126.209 8.21979 126.119 10.3151 128.849C12.535 131.747 24.5547 147.001 24.5605 147.008C20.9685 142.04 10.9591 128.255 7.69325 124.797Z" fill="white"/>
<path d="M21.3978 144.842C21.4831 144.861 21.5618 144.903 21.626 144.962C21.6902 145.022 21.7376 145.097 21.7634 145.18C21.8481 145.412 21.8772 145.66 21.8481 145.905C21.8191 146.15 21.7328 146.384 21.5963 146.589C21.5506 146.665 21.4857 146.728 21.408 146.77C21.3303 146.813 21.2428 146.834 21.1542 146.832L20.7596 146.786C20.6732 146.767 20.5933 146.726 20.528 146.666C20.4628 146.606 20.4146 146.53 20.3884 146.446C20.3036 146.214 20.2746 145.966 20.3037 145.722C20.3327 145.477 20.419 145.242 20.5555 145.037C20.601 144.961 20.6662 144.898 20.7443 144.855C20.8224 144.812 20.9105 144.791 20.9994 144.794C21.1466 144.813 21.2524 144.821 21.3978 144.842Z" fill="#263238"/>
<path d="M20.7757 146.494C20.693 146.263 20.6657 146.015 20.696 145.771C20.7264 145.528 20.8136 145.294 20.9505 145.09C21.2223 144.73 21.5852 144.772 21.7639 145.187C21.8486 145.419 21.8776 145.667 21.8486 145.912C21.8195 146.157 21.7332 146.391 21.5967 146.596C21.3266 146.953 20.9617 146.909 20.7757 146.494Z" fill="#37474F"/>
<path d="M25.5 142C25.3427 140.927 22.5779 139.334 21.4076 138.386C20.568 137.705 19.7715 137.06 19.4539 136.453C19.1 135.94 18.9449 135.315 19.0175 134.696C19.09 134.077 19.3854 133.506 19.8483 133.088C20.3504 132.638 21.9673 133.995 23.5243 135.301C24.389 136.027 25.2351 136.737 25.8617 137.113C28.7806 138.576 31.4292 140.525 33.6944 142.877C32.1928 145.228 25.8704 144.058 25.5 142Z" fill="#FFBF9D"/>
<path d="M174 141.505L178.299 141C181.888 143.977 181.912 155.375 178.299 193.495L174 194C176.407 164.373 179.042 142.891 174 141.505Z" fill="#FFD000"/>
<line x1="177" y1="147.75" x2="179" y2="147.75" stroke="white" stroke-width="0.5"/>
<line x1="175.919" y1="143.408" x2="177.812" y2="142.763" stroke="white" stroke-width="0.5"/>
<line x1="177" y1="151.75" x2="179" y2="151.75" stroke="white" stroke-width="0.5"/>
<line x1="177" y1="155.75" x2="179" y2="155.75" stroke="white" stroke-width="0.5"/>
<line x1="176.496" y1="159.745" x2="178.49" y2="159.904" stroke="white" stroke-width="0.5"/>
<line x1="176.179" y1="163.731" x2="178.172" y2="163.89" stroke="white" stroke-width="0.5"/>
<line x1="176.244" y1="167.753" x2="178.221" y2="168.054" stroke="white" stroke-width="0.5"/>
<line x1="175.641" y1="171.708" x2="177.618" y2="172.01" stroke="white" stroke-width="0.5"/>
<line x1="175.038" y1="175.661" x2="177.015" y2="175.963" stroke="white" stroke-width="0.5"/>
<line x1="175.128" y1="180.611" x2="177.119" y2="180.804" stroke="white" stroke-width="0.5"/>
<line x1="174.741" y1="184.591" x2="176.731" y2="184.785" stroke="white" stroke-width="0.5"/>
<line x1="174" y1="188.75" x2="176" y2="188.75" stroke="white" stroke-width="0.5"/>
<line x1="174" y1="192.75" x2="176" y2="192.75" stroke="white" stroke-width="0.5"/>
<line x1="177" y1="149.75" x2="180" y2="149.75" stroke="white" stroke-width="0.5"/>
<line x1="176.564" y1="145.302" x2="179.404" y2="144.335" stroke="white" stroke-width="0.5"/>
<line x1="177" y1="153.75" x2="180" y2="153.75" stroke="white" stroke-width="0.5"/>
<line x1="176.655" y1="157.751" x2="179.645" y2="157.989" stroke="white" stroke-width="0.5"/>
<line x1="176.337" y1="161.739" x2="179.328" y2="161.977" stroke="white" stroke-width="0.5"/>
<line x1="176.02" y1="165.725" x2="179.01" y2="165.964" stroke="white" stroke-width="0.5"/>
<line x1="175.942" y1="169.729" x2="178.908" y2="170.182" stroke="white" stroke-width="0.5"/>
<line x1="175.339" y1="173.684" x2="178.305" y2="174.137" stroke="white" stroke-width="0.5"/>
<line x1="175.322" y1="178.62" x2="178.308" y2="178.911" stroke="white" stroke-width="0.5"/>
<line x1="174.934" y1="182.601" x2="177.92" y2="182.892" stroke="white" stroke-width="0.5"/>
<line x1="174" y1="186.75" x2="177" y2="186.75" stroke="white" stroke-width="0.5"/>
<line x1="174" y1="190.75" x2="177" y2="190.75" stroke="white" stroke-width="0.5"/>
<line x1="174" y1="194.75" x2="177" y2="194.75" stroke="white" stroke-width="0.5"/>
</svg>
