<svg width="63" height="18" viewBox="0 0 63 18" fill="none" xmlns="http://www.w3.org/2000/svg">
<g id="SVG">
<g id="ProfPlay">
<path d="M0 13.7045V0.613637H4.70881C5.51847 0.613637 6.22692 0.805398 6.83416 1.18892C7.44141 1.57244 7.91371 2.11151 8.25107 2.80611C8.58842 3.50071 8.7571 4.3125 8.7571 5.24148C8.7571 6.17898 8.5831 6.99077 8.23509 7.67685C7.89063 8.36293 7.4059 8.89134 6.7809 9.26207C6.15945 9.63281 5.43324 9.81818 4.60227 9.81818H1.78977V7.05682H4.00568C4.35369 7.05682 4.65021 6.98438 4.89524 6.83949C5.14382 6.69034 5.33381 6.4794 5.4652 6.20668C5.60014 5.93395 5.66761 5.61222 5.66761 5.24148C5.66761 4.86648 5.60014 4.54688 5.4652 4.28267C5.33381 4.0142 5.14382 3.80966 4.89524 3.66903C4.65021 3.52415 4.35369 3.4517 4.00568 3.4517H2.96165V13.7045H0Z" fill="black"/>
<path d="M9.88636 13.7045V3.88636H12.7415V5.75284H12.8267C12.9759 5.0625 13.212 4.55753 13.5352 4.23793C13.8619 3.91832 14.2436 3.75852 14.6804 3.75852C14.8082 3.75852 14.9343 3.77131 15.0586 3.79688C15.1864 3.81818 15.3089 3.85014 15.4261 3.89276V6.90341C15.2805 6.84375 15.1012 6.79901 14.8881 6.76918C14.6751 6.73935 14.4922 6.72443 14.3395 6.72443C14.0518 6.72443 13.7926 6.80327 13.5618 6.96094C13.3345 7.11435 13.1552 7.33168 13.0238 7.61293C12.8924 7.88992 12.8267 8.21591 12.8267 8.59091V13.7045H9.88636Z" fill="black"/>
<path d="M19.8633 13.8835C18.9755 13.8835 18.2156 13.6726 17.5835 13.2507C16.9513 12.8246 16.4666 12.2322 16.1293 11.4737C15.7919 10.7109 15.6232 9.82671 15.6232 8.82102C15.6232 7.81534 15.7919 6.93324 16.1293 6.17472C16.4666 5.41193 16.9513 4.8196 17.5835 4.39773C18.2156 3.97159 18.9755 3.75852 19.8633 3.75852C20.7511 3.75852 21.511 3.97159 22.1431 4.39773C22.7752 4.8196 23.2599 5.41193 23.5973 6.17472C23.9347 6.93324 24.1033 7.81534 24.1033 8.82102C24.1033 9.82671 23.9347 10.7109 23.5973 11.4737C23.2599 12.2322 22.7752 12.8246 22.1431 13.2507C21.511 13.6726 20.7511 13.8835 19.8633 13.8835ZM19.8846 11.2756C20.1332 11.2756 20.348 11.1754 20.5291 10.9751C20.7102 10.7749 20.8505 10.4893 20.9499 10.1186C21.0494 9.74787 21.0991 9.30682 21.0991 8.79545C21.0991 8.27983 21.0494 7.83878 20.9499 7.4723C20.8505 7.10156 20.7102 6.81605 20.5291 6.61577C20.348 6.41548 20.1332 6.31534 19.8846 6.31534C19.6218 6.31534 19.3963 6.41548 19.2081 6.61577C19.0199 6.81605 18.8761 7.10156 18.7766 7.4723C18.6772 7.83878 18.6275 8.27983 18.6275 8.79545C18.6275 9.30682 18.6772 9.74787 18.7766 10.1186C18.8761 10.4893 19.0199 10.7749 19.2081 10.9751C19.3963 11.1754 19.6218 11.2756 19.8846 11.2756Z" fill="black"/>
<path d="M30.1971 3.88636V6.44318H24.7212V3.88636H30.1971ZM25.7653 13.7045V3.60511C25.7653 2.79546 25.886 2.12429 26.1275 1.59162C26.369 1.05895 26.7099 0.660512 27.1502 0.396307C27.5906 0.132102 28.109 0 28.7056 0C29.0785 0 29.4407 0.0340912 29.7923 0.102274C30.1474 0.170455 30.4102 0.230114 30.5806 0.28125L30.1545 2.8125C30.0479 2.77415 29.9237 2.74432 29.7816 2.72301C29.6396 2.69744 29.5153 2.68466 29.4087 2.68466C29.1317 2.68466 28.9453 2.75497 28.8494 2.8956C28.7536 3.03622 28.7056 3.22159 28.7056 3.4517V13.7045H25.7653Z" fill="black"/>
<path d="M31.2891 13.7045V0.613637H35.9979C36.8075 0.613637 37.516 0.805398 38.1232 1.18892C38.7305 1.57244 39.2028 2.11151 39.5401 2.80611C39.8775 3.50071 40.0462 4.3125 40.0462 5.24148C40.0462 6.17898 39.8722 6.99077 39.5242 7.67685C39.1797 8.36293 38.695 8.89134 38.07 9.26207C37.4485 9.63281 36.7223 9.81818 35.8913 9.81818H33.0788V7.05682H35.2947C35.6428 7.05682 35.9393 6.98438 36.1843 6.83949C36.4329 6.69034 36.6229 6.4794 36.7543 6.20668C36.8892 5.93395 36.9567 5.61222 36.9567 5.24148C36.9567 4.86648 36.8892 4.54688 36.7543 4.28267C36.6229 4.0142 36.4329 3.80966 36.1843 3.66903C35.9393 3.52415 35.6428 3.4517 35.2947 3.4517H34.2507V13.7045H31.2891Z" fill="black"/>
<path d="M44.1158 0.613637V13.7045H41.1754V0.613637H44.1158Z" fill="black"/>
<path d="M47.8937 13.858C47.3717 13.858 46.9101 13.7557 46.5088 13.5511C46.1111 13.3423 45.7986 13.027 45.5713 12.6051C45.344 12.1832 45.2304 11.6463 45.2304 10.9943C45.2304 10.4574 45.3067 9.99929 45.4594 9.62003C45.6121 9.23651 45.8252 8.9233 46.0986 8.6804C46.3721 8.4375 46.6899 8.25213 47.0521 8.12429C47.4179 7.99645 47.8121 7.91335 48.2346 7.875C48.6927 7.83239 49.0603 7.78125 49.3373 7.72159C49.6178 7.65767 49.8202 7.57031 49.9445 7.45952C50.0688 7.34446 50.131 7.19318 50.131 7.00568V6.98011C50.131 6.72443 50.0493 6.52841 49.8859 6.39205C49.7226 6.25568 49.5131 6.1875 49.2574 6.1875C48.9768 6.1875 48.7478 6.26207 48.5702 6.41122C48.3962 6.55611 48.2915 6.77983 48.256 7.08239H45.55C45.5855 6.4858 45.7435 5.93608 46.0241 5.43324C46.3082 4.92614 46.7219 4.52131 47.2652 4.21875C47.8085 3.91193 48.4868 3.75852 49.3 3.75852C49.8859 3.75852 50.4115 3.84162 50.8767 4.00781C51.3419 4.16975 51.7378 4.39773 52.0645 4.69176C52.3913 4.98153 52.6398 5.32244 52.8103 5.71449C52.9843 6.10227 53.0713 6.52415 53.0713 6.98011V13.7045H50.3227V12.3239H50.2588C50.0954 12.6903 49.8966 12.9865 49.6622 13.2124C49.4314 13.4382 49.1668 13.6023 48.8685 13.7045C48.5738 13.8068 48.2488 13.858 47.8937 13.858ZM48.8525 11.6335C49.0763 11.6335 49.2858 11.5781 49.4811 11.4673C49.68 11.3565 49.8415 11.1967 49.9658 10.9879C50.0901 10.7791 50.1523 10.5256 50.1523 10.2273V9.40909C50.0741 9.44744 49.9907 9.48367 49.9019 9.51776C49.8167 9.55185 49.7243 9.58381 49.6249 9.61364C49.529 9.64347 49.426 9.67117 49.316 9.69673C49.2094 9.7223 49.0976 9.74574 48.9804 9.76705C48.7531 9.80966 48.5667 9.87997 48.4211 9.97798C48.279 10.0717 48.1725 10.1889 48.1015 10.3295C48.034 10.4659 48.0003 10.6193 48.0003 10.7898C48.0003 11.0625 48.0802 11.2713 48.24 11.4162C48.3998 11.5611 48.604 11.6335 48.8525 11.6335Z" fill="black"/>
<path d="M55.973 17.3864C55.6357 17.3864 55.3143 17.3544 55.0089 17.2905C54.7035 17.2308 54.4354 17.1477 54.2045 17.0412L54.8438 14.5355C55.0852 14.6378 55.3054 14.7038 55.5043 14.7337C55.7067 14.7635 55.8789 14.7464 56.021 14.6825C56.1666 14.6186 56.2713 14.4972 56.3352 14.3182L56.3992 14.1392L53.5227 3.88636H56.5909L57.9119 10.6875H57.9972L59.3395 3.88636H62.429L59.446 14.5227C59.2969 15.0639 59.0803 15.5497 58.7962 15.9801C58.5156 16.4148 58.1463 16.7578 57.6882 17.0092C57.2301 17.2607 56.6584 17.3864 55.973 17.3864Z" fill="black"/>
</g>
</g>
</svg>
