<svg width="31" height="30" viewBox="0 0 31 30" fill="none" xmlns="http://www.w3.org/2000/svg">
<g id="Social Icons" clip-path="url(#clip0_492_19597)">
<path id="Vector" d="M15.5 30C23.7843 30 30.5 23.2843 30.5 15C30.5 6.71573 23.7843 0 15.5 0C7.21573 0 0.5 6.71573 0.5 15C0.5 23.2843 7.21573 30 15.5 30Z" fill="url(#paint0_linear_492_19597)"/>
<path id="Vector_2" fill-rule="evenodd" clip-rule="evenodd" d="M7.28977 14.8419C11.6626 12.9368 14.5785 11.6808 16.0374 11.0739C20.2031 9.3413 21.0687 9.04032 21.6329 9.03038C21.757 9.02819 22.0344 9.05895 22.2141 9.20477C22.3659 9.32791 22.4076 9.49425 22.4276 9.61099C22.4476 9.72774 22.4725 9.99369 22.4527 10.2015C22.2269 12.5733 21.2502 18.3292 20.7533 20.9857C20.543 22.1098 20.129 22.4867 19.7281 22.5236C18.8571 22.6037 18.1956 21.9479 17.3519 21.3949C16.0317 20.5295 15.2859 19.9907 14.0044 19.1463C12.5235 18.1703 13.4835 17.6339 14.3275 16.7573C14.5484 16.5279 18.3864 13.037 18.4607 12.7203C18.4699 12.6807 18.4786 12.533 18.3909 12.4551C18.3032 12.3771 18.1737 12.4038 18.0803 12.425C17.9479 12.455 15.8389 13.849 11.7532 16.6069C11.1546 17.018 10.6123 17.2183 10.1265 17.2078C9.59094 17.1962 8.5607 16.905 7.79483 16.656C6.85545 16.3507 6.10886 16.1892 6.17387 15.6707C6.20773 15.4005 6.5797 15.1243 7.28977 14.8419Z" fill="white"/>
</g>
<defs>
<linearGradient id="paint0_linear_492_19597" x1="15.5" y1="0" x2="15.5" y2="29.7775" gradientUnits="userSpaceOnUse">
<stop stop-color="#2AABEE"/>
<stop offset="1" stop-color="#229ED9"/>
</linearGradient>
<clipPath id="clip0_492_19597">
<rect width="30" height="30" fill="white" transform="translate(0.5)"/>
</clipPath>
</defs>
</svg>
