<svg width="108" height="98" viewBox="0 0 108 98" fill="none" xmlns="http://www.w3.org/2000/svg">
<rect x="6.5" y="1" width="94" height="94" rx="30" fill="#FFF2CB"/>
<path d="M73.2895 42.332L87.9067 57.6643C90.7879 51.905 90.443 46.8772 95.3756 30.7763L101.175 30.7763C99.2424 27.0246 102.354 67.0399 90.3804 68.1083C84.5335 63.2199 68.3379 60.9928 63.7496 46.0738C66.1435 43.3758 65.0477 39.5915 73.2895 42.332Z" fill="#FFBE9D"/>
<path d="M55.6229 1.88867C56.9503 3.60979 57.4944 5.55085 57.1888 7.47438C56.9853 8.72609 56.4652 10.1056 57.511 11.1581C58.7886 12.4324 61.7847 17.2214 65.4757 14.9993C67.2734 16.8562 61.6491 18.2887 63.0963 20.2734C64.0516 21.589 66.556 21.9799 68.2576 22.9046C70.6319 24.1939 65.9267 24.9611 64.5191 26.7766C49.2041 26.5626 55.0254 29.6236 63.8877 31.9748L58.6077 34.0911C57.6636 34.467 56.6235 34.8616 55.5381 34.7601C53.5934 34.5797 52.7115 33.0085 50.9364 32.4259C48.7656 31.7042 46.2444 32.7078 43.8248 32.8018C42.9253 32.8405 42.0237 32.7512 41.1803 32.5396C40.3369 32.3281 39.5712 31.9992 38.9344 31.575C38.2975 31.1508 37.8042 30.6411 37.4874 30.08C37.1707 29.5189 37.0378 28.9192 37.0976 28.3212" fill="#79725B"/>
<path d="M57.8627 11.5454C58.4769 12.9196 59.4007 14.1369 60.5637 15.1043C61.7268 16.0718 63.0981 16.7637 64.5732 17.1274C64.8094 15.1483 64.7958 13.1479 64.5327 11.1721C64.267 9.18563 63.3675 7.3346 61.9646 5.88783C60.5163 4.50566 58.3665 3.75902 56.4235 4.27456" fill="#79725B"/>
<path d="M50.6296 3.93978L51.1614 3.91058C53.7267 3.76542 56.2534 4.57992 58.2387 6.19204C60.224 7.80417 61.5225 10.0958 61.8758 12.611C62.5553 17.477 62.3869 21.275 62.4952 23.8881C59.2049 30.3323 56.1986 30.1101 56.1986 30.1101L56.822 33.8877C56.899 34.7524 58.3453 35.9519 58.0805 36.7796C57.8157 37.6072 57.388 38.375 56.822 39.0388C56.256 39.7026 55.5629 40.2493 54.7824 40.6475C54.0019 41.0458 53.1495 41.2877 52.2742 41.3593C50.5299 41.4975 48.8006 40.9525 47.4594 39.8419C46.1181 38.7313 45.2725 37.1441 45.1049 35.4228C45.1926 26.3082 44.6136 22.1185 43.1353 15.3214C42.3377 9.72545 44.9474 4.59669 50.6296 3.93978Z" fill="#FFBF9D"/>
<path d="M61.9812 33.8875C61.9558 33.8575 62.0492 32.4421 62.0818 30.0767C62.0905 29.4915 62.1021 28.8355 62.1086 28.155C62.1241 27.462 62.0994 26.7644 62.0362 26.1108C62.0172 25.9519 61.9929 25.8028 61.9638 25.6672C61.932 25.5199 61.8977 25.3808 61.861 25.2507C61.8124 25.0762 61.7735 24.8671 61.7466 24.6355C61.7202 24.375 61.7147 24.0912 61.7307 23.819C61.7646 23.3741 61.8132 22.947 61.8755 22.5478C61.8998 22.375 61.9187 22.1924 61.9319 22.0034C61.9366 21.9135 61.9397 21.8226 61.9413 21.7312C61.9413 21.6441 61.9377 21.5543 61.9377 21.459C61.9138 21.0766 61.8681 20.7181 61.8038 20.4084C61.7394 20.0681 61.6641 19.736 61.5946 19.3849C61.5197 19.0317 61.459 18.6392 61.4143 18.2199C61.3706 17.7859 61.3596 17.315 61.3825 16.8589C61.4051 16.4579 61.4411 16.0692 61.4896 15.7021L61.617 14.7358C61.6938 14.1288 61.7372 13.549 61.7082 13.0346C61.6743 12.5423 61.6206 12.0724 61.549 11.641C61.4924 11.286 61.4467 10.9079 61.4129 10.5141C61.3919 10.2559 61.3865 9.98353 61.397 9.71653C61.4085 9.53688 61.4201 9.44434 61.4259 9.44434C61.4426 9.44434 61.415 9.82813 61.4817 10.4106C61.5264 10.7654 61.5792 11.1051 61.6395 11.4259C61.7273 11.8774 61.7945 12.3806 61.8385 12.9148C61.8603 13.2521 61.8625 13.603 61.8451 13.9437C61.8274 14.2954 61.7987 14.6381 61.7596 14.9645C61.6872 15.6232 61.5844 16.271 61.554 16.9569C61.5383 17.2962 61.5484 17.6452 61.583 17.964C61.6233 18.3188 61.6767 18.6505 61.7415 18.9494C61.8081 19.2787 61.8863 19.6054 61.9587 19.981C62.0416 20.3805 62.0991 20.8461 62.1267 21.342C62.1307 21.4766 62.1327 21.6121 62.1325 21.7476C62.1306 21.8822 62.1258 22.0161 62.118 22.1477C62.1011 22.3888 62.0768 22.6218 62.0456 22.8418C61.9898 23.1842 61.9446 23.5495 61.9109 23.9306C61.9024 24.0811 61.9053 24.2376 61.9194 24.382C61.9335 24.5265 61.9582 24.6531 61.9906 24.7471C62.0314 24.8985 62.0694 25.0604 62.1042 25.2317C62.1405 25.4109 62.1702 25.6078 62.1925 25.8169C62.2338 26.2025 62.2582 26.6106 62.2649 27.0254C62.2722 27.3987 62.2722 27.7735 62.2649 28.1469C62.2512 28.8573 62.2324 29.4915 62.2143 30.0876C62.1885 31.0269 62.1443 31.9576 62.0818 32.8722C62.0347 33.5635 61.9927 33.9011 61.9812 33.8875Z" fill="#455A64"/>
<path d="M50.0482 16.0218C49.9252 16.1098 49.7791 16.1337 49.6418 16.0883C49.5046 16.0429 49.3875 15.9319 49.3161 15.7795C49.2503 15.6234 49.2201 15.4479 49.2287 15.272C49.2373 15.0961 49.2844 14.9265 49.3649 14.7813C49.5314 14.4927 49.7631 14.2718 50.0307 14.1465C50.5729 13.8615 51.1767 13.8111 51.7448 14.0036C52.2075 14.1611 52.6644 14.5293 52.7952 15.1011C52.8262 15.1993 52.8335 15.3066 52.8162 15.4099C52.7989 15.5132 52.7576 15.608 52.6976 15.6826C52.5336 15.8425 52.2974 15.7262 52.1021 15.6366C51.5 15.3589 50.8369 15.3641 50.2376 15.6511" fill="#B9B8B6"/>
<path d="M57.6819 15.6332C57.5395 15.6876 57.3868 15.6741 57.2514 15.5954C57.1161 15.5166 57.0072 15.3778 56.9447 15.2042C56.8864 15.0291 56.8632 14.838 56.8771 14.6483C56.8911 14.4586 56.9418 14.2765 57.0246 14.1187C57.1945 13.8053 57.43 13.5606 57.7035 13.4129C58.224 13.1381 58.782 13.0009 59.3444 13.0096C59.7379 12.9737 60.1332 13.0341 60.5093 13.1876C60.6974 13.2666 60.869 13.3998 61.0112 13.5771C61.1533 13.7544 61.2623 13.9712 61.3297 14.2109C61.3911 14.4534 61.3835 14.7162 61.3081 14.9521C61.2328 15.188 61.0947 15.3816 60.9187 15.4981C60.5326 15.7126 60.1016 15.4337 59.6955 15.2836C59.16 15.0909 58.5904 15.1285 58.073 15.3908" fill="#B9B8B6"/>
<path d="M55.218 30.2611C52.6801 30.4068 50.0977 29.7463 47.8781 28.5547C47.8781 28.5547 50.3972 32.245 55.8297 31.47L55.218 30.2611Z" fill="#FF9A6C"/>
<path d="M52.8589 16.9133C52.8766 17.159 52.7989 17.402 52.6427 17.5895C52.4866 17.777 52.2645 17.894 52.0246 17.9152C51.9079 17.9318 51.7892 17.9242 51.6754 17.893C51.5617 17.8618 51.4552 17.8076 51.3623 17.7335C51.2694 17.6594 51.1919 17.567 51.1345 17.4618C51.0771 17.3566 51.0409 17.2406 51.0281 17.1208C51.0134 16.8758 51.0922 16.6345 51.2478 16.4477C51.4033 16.2609 51.6237 16.143 51.8624 16.1189C51.9791 16.1023 52.0978 16.1099 52.2116 16.1411C52.3253 16.1723 52.4318 16.2265 52.5247 16.3006C52.6176 16.3747 52.6951 16.4671 52.7525 16.5723C52.8099 16.6776 52.8461 16.7935 52.8589 16.9133Z" fill="#263238"/>
<path d="M60.8614 15.3263C60.7678 15.4334 60.1523 15.0295 59.3103 15.083C58.4683 15.1366 57.8725 15.5696 57.779 15.4869C57.6854 15.4042 57.8184 15.2582 58.0744 15.049C58.4246 14.7775 58.8511 14.6194 59.2956 14.5964C59.733 14.5725 60.167 14.6848 60.5364 14.9176C60.7974 15.0976 60.8958 15.2728 60.8614 15.3263Z" fill="#263238"/>
<path d="M60.9553 16.9133C60.97 17.1583 60.8912 17.3996 60.7356 17.5864C60.58 17.7733 60.3597 17.8911 60.1209 17.9152C60.0042 17.9318 59.8854 17.9242 59.7716 17.893C59.6578 17.8618 59.5513 17.8076 59.4584 17.7335C59.3655 17.6594 59.288 17.567 59.2306 17.4618C59.1732 17.3566 59.137 17.2406 59.1242 17.1208C59.108 16.8754 59.1862 16.6334 59.3421 16.4462C59.498 16.259 59.7193 16.1416 59.9586 16.1189C60.0753 16.1023 60.1941 16.1099 60.3079 16.1411C60.4216 16.1723 60.5281 16.2265 60.6211 16.3006C60.714 16.3747 60.7915 16.4671 60.8489 16.5723C60.9063 16.6776 60.9425 16.7935 60.9553 16.9133Z" fill="#263238"/>
<path d="M52.584 15.9494C52.4954 16.0564 51.8749 15.6574 51.033 15.7061C50.191 15.7547 49.6001 16.1927 49.5016 16.1099C49.4031 16.0272 49.541 15.8812 49.802 15.672C50.1494 15.403 50.5725 15.2467 51.0133 15.2243C51.4511 15.1966 51.8862 15.3093 52.2541 15.5455C52.5298 15.7255 52.6283 15.9007 52.584 15.9494Z" fill="#263238"/>
<path d="M55.9965 21.9499C56.4318 21.784 56.9214 21.05 57.385 20.9994C58.8494 20.1447 57.5298 19.922 56.8828 19.186C55.8685 16.933 55.12 15.0791 55.2087 15.0402C55.2973 15.0012 56.1935 16.7919 57.2176 19.0449C57.6368 19.8457 59.0898 20.0247 57.5478 21.2216C57.0899 21.3031 56.461 21.9764 55.9965 21.9499Z" fill="#263238"/>
<path d="M52.6472 13.3314C52.5734 13.5601 51.7264 13.5017 50.7466 13.6769C49.7667 13.852 48.9838 14.1635 48.841 13.9639C48.777 13.8715 48.905 13.6525 49.2103 13.4141C49.6245 13.1205 50.101 12.924 50.6035 12.8397C51.1061 12.7554 51.6215 12.7854 52.1105 12.9275C52.4798 13.054 52.6768 13.2194 52.6472 13.3314Z" fill="#263238"/>
<path d="M60.4323 13.5874C60.2994 13.782 59.7085 13.6214 59.0093 13.6506C58.3101 13.6798 57.7291 13.8501 57.5814 13.6506C57.5174 13.5582 57.5814 13.3635 57.8423 13.164C58.176 12.9278 58.5743 12.7971 58.9847 12.7893C59.396 12.7722 59.8024 12.8828 60.1467 13.1056C60.4028 13.3003 60.4963 13.49 60.4323 13.5874Z" fill="#263238"/>
<path d="M44.3414 20.5381C44.3248 20.3382 44.2668 20.1437 44.1708 19.967C44.0749 19.7902 43.9431 19.6349 43.7837 19.5107C43.6243 19.3865 43.4407 19.2961 43.2444 19.2452C43.048 19.1942 42.8432 19.1838 42.6426 19.2145C41.6283 19.3702 40.5253 20.0077 40.7124 22.0903C41.0473 25.7836 44.7304 24.6888 44.7304 24.5817C44.7304 24.4747 44.494 22.0855 44.3414 20.5381Z" fill="#FFBF9D"/>
<path d="M43.7997 23.2615C43.7997 23.2615 43.7406 23.315 43.6323 23.3734C43.4813 23.4533 43.3049 23.4725 43.1399 23.427C42.7361 23.3199 42.3471 22.7263 42.2684 22.0645C42.2294 21.7481 42.263 21.4271 42.3668 21.1253C42.3914 21.0074 42.4445 20.897 42.5217 20.8038C42.5989 20.7105 42.6978 20.6372 42.81 20.5901C42.8827 20.5646 42.9622 20.5647 43.0349 20.5904C43.1075 20.6161 43.169 20.6658 43.2088 20.7312C43.2728 20.8285 43.2531 20.9064 43.2728 20.9112C43.2925 20.9161 43.3467 20.8431 43.3024 20.6923C43.2745 20.602 43.2152 20.5244 43.135 20.4733C43.0251 20.4049 42.8924 20.3822 42.7657 20.41C42.6156 20.4542 42.4794 20.5355 42.37 20.6462C42.2606 20.7569 42.1815 20.8933 42.1403 21.0426C42.0098 21.377 41.9642 21.7379 42.0074 22.0937C42.1009 22.8382 42.549 23.5 43.1005 23.607C43.2033 23.6272 43.3095 23.6242 43.411 23.598C43.5125 23.5719 43.6066 23.5234 43.6864 23.4562C43.7997 23.354 43.8145 23.2712 43.7997 23.2615Z" fill="#FF9A6C"/>
<path d="M56.4161 24.9876C56.3573 24.6944 56.1462 24.4265 55.823 24.2347C55.5288 24.0556 55.2179 24.5375 54.8283 24.5201C54.4388 24.5026 53.9925 23.9868 53.6679 24.1381C53.0098 24.4495 52.7354 24.3864 52.8512 24.9876C53.2156 25.3423 53.6651 26.2883 54.2865 26.3297C54.3805 26.3334 54.4748 26.3334 54.5689 26.3297C55.0557 26.3303 55.5253 26.2038 55.8851 25.975C56.0748 25.8491 56.2212 25.6948 56.3132 25.5238C56.4051 25.3528 56.4403 25.1694 56.4161 24.9876Z" fill="#FF725E"/>
<path d="M53.4971 24.5547C53.3656 24.6168 53.2923 24.6812 53.2792 24.7462C53.2636 24.777 53.2932 24.8079 53.3658 24.8368C53.4384 24.8657 53.5524 24.892 53.6999 24.9138C53.8528 24.9406 54.0437 24.9622 54.2592 24.9769C54.4747 24.9917 54.7095 24.9992 54.9469 24.9991C55.3753 24.999 55.7892 24.9763 56.1145 24.9352C56.4397 24.894 56.6548 24.8371 56.7212 24.7747L56.8732 24.6332C55.9861 24.5958 53.563 24.5644 53.4971 24.5547Z" fill="#FFF0EE"/>
<path d="M56.0412 25.3807C56.0412 25.3807 55.8856 25.3807 55.6285 25.3896C55.2676 25.4016 54.9003 25.4016 54.5394 25.3896C54.0183 25.3718 53.5473 25.312 53.2203 25.2223C52.8307 25.11 52.6453 24.9706 52.6994 24.8305C52.715 24.7517 52.8097 24.6746 52.9767 24.6046L52.8144 24.6207C53.9711 24.6589 54.9859 24.6897 55.7029 24.7073C56.0886 24.7229 56.4811 24.7293 56.8732 24.7264C56.5078 24.6955 56.126 24.6748 55.7367 24.6647C55.0197 24.6354 54.0185 24.5958 52.8617 24.5547H52.7535L52.7061 24.5752C52.4468 24.6843 52.3364 24.8071 52.388 24.9292C52.4395 25.0514 52.6508 25.1678 52.997 25.2648C53.3768 25.3642 53.9206 25.4274 54.5123 25.4409C54.8968 25.4482 55.2842 25.4403 55.6556 25.4174C55.7948 25.4114 55.9263 25.3988 56.0412 25.3807Z" fill="#263238"/>
<path d="M31.4344 41.4429C31.1315 41.4429 28.5147 44.2811 27.3767 49.2041C26.2386 54.1272 23.6042 75.7252 23.6042 75.7252C22.4274 77.8925 18.3643 83.0844 25.2576 84.4985C25.2576 84.4985 29.3051 85.319 30.5946 80.5558C31.8841 75.7925 34.3851 61.5827 34.3851 61.5827L31.4344 41.4429Z" fill="#FFBE9D"/>
<path d="M45.1795 28.1104C44.4449 36.3607 43.3464 37.5393 42.1027 37.3872L31.019 41.3502C26.5469 56.1518 60.5505 78.6116 70.073 56.5582L72.7577 42.1081L60.1469 36.976L57.323 35.6656L52.5016 38.2887L45.1795 28.1104Z" fill="#FFBF9D"/>
<path d="M96.4662 32.2383C95.7492 31.9077 95.1362 31.4016 94.6858 30.7682C94.2355 30.1348 93.9627 29.3953 93.8936 28.6202C93.8295 26.8288 94.0749 25.0315 94.6196 23.3028C94.9011 22.2087 94.7669 19.4137 95.3577 19.363C95.9486 19.3123 96.5829 19.5554 96.8864 20.4605C97.1899 21.3656 96.2104 24.5678 97.2974 24.8006C97.738 24.8935 98.41 24.1468 98.41 24.1468C99.6198 22.7841 100.76 21.3651 101.826 19.895C102.696 18.5417 103.825 17.5753 104.214 17.9609C104.603 18.3465 104.663 18.758 103.941 19.8764C103.218 20.9948 101.826 22.6603 101.985 22.9424C102.145 23.2245 102.589 22.9624 103.027 22.3216C103.466 21.6808 105.691 18.7754 106.177 18.8169C106.299 18.8295 106.415 18.8683 106.518 18.9305C106.621 18.9927 106.708 19.0767 106.773 19.1765C106.837 19.2763 106.878 19.3894 106.892 19.5077C106.905 19.6259 106.892 19.7464 106.852 19.8604L106.57 20.7141C106.57 20.7141 107.43 20.7165 107.483 21.2683C107.535 21.8202 106.849 22.4899 106.849 22.4899L103.775 26.2551C103.775 26.2551 103.837 26.6409 104.08 26.6474C104.323 26.654 106.427 23.4826 106.777 23.7003C107.126 23.918 107.481 23.7648 107.027 24.8352C106.232 26.3103 105.195 27.6538 103.958 28.8115C103.106 29.4627 100.341 32.7685 100.341 32.7685L96.4662 32.2383Z" fill="#FFBF9D"/>
<path d="M97.9211 24.5347C97.9736 24.5361 97.9535 24.8939 98.0169 25.4346C98.0525 25.7448 98.1597 26.0434 98.3304 26.3086C98.5224 26.6086 98.8166 26.8955 99.0855 27.2611C99.3168 27.5745 99.4812 27.9291 99.5692 28.3043C99.6572 28.6796 99.667 29.0679 99.5981 29.4467C99.572 29.7633 99.4386 30.0627 99.2187 30.2989C99.1666 30.2785 99.327 29.9594 99.3755 29.4154C99.4395 28.7166 99.2479 28.0182 98.8338 27.4414C98.5669 27.1263 98.3173 26.7978 98.0862 26.4574C97.9129 26.1559 97.8187 25.8181 97.8119 25.4734C97.7699 25.1566 97.8073 24.8347 97.9211 24.5347Z" fill="#FF9A6C"/>
<path d="M23.1693 75.4159C20.2017 71.8093 18.5869 70.555 15.7482 68.9717L12.1501 72.3049C14.7035 76.8522 22.2417 83.4416 22.6914 83.4416C22.9163 83.6638 25.0758 82.3354 26.0646 81.2195C26.8229 79.0736 23.1693 75.4159 23.1693 75.4159Z" fill="#FFBF9D"/>
<path d="M15.739 69.5669C15.9653 68.8505 16.0059 68.0878 15.857 67.3512C15.7081 66.6145 15.3746 65.9283 14.888 65.3576C13.6909 64.1079 12.291 63.0722 10.7483 62.2946C9.82077 61.7342 7.98276 59.7836 7.57006 60.1557C7.32538 60.3776 7.1693 60.6813 7.13094 61.0103C7.09258 61.3393 7.17456 61.6711 7.36159 61.9439C7.78705 62.7609 9.83779 63.7106 9.76546 64.7587C9.75792 64.8601 9.73059 64.959 9.68503 65.0498C9.63946 65.1405 9.57656 65.2214 9.49992 65.2877C9.42327 65.3541 9.33438 65.4046 9.23832 65.4364C9.14226 65.4682 9.04091 65.4806 8.94006 65.4731C7.24241 65.3948 5.54975 65.2306 3.86853 64.9811C2.38366 64.6731 1.00941 64.8014 1.02643 65.3276C1.04345 65.8538 1.29447 66.1832 2.51981 66.427C3.74514 66.6709 5.77035 66.8548 5.83843 67.1329C5.9065 67.4109 5.47678 67.5606 4.75775 67.428C4.03871 67.2954 0.635003 66.889 0.358452 67.2526C0.2899 67.3441 0.242381 67.4497 0.219319 67.5619C0.196257 67.674 0.198226 67.7899 0.225085 67.9012C0.251944 68.0125 0.303024 68.1164 0.374644 68.2055C0.446263 68.2945 0.536639 68.3665 0.639258 68.4162L1.40509 68.7969C1.40509 68.7969 0.864754 69.3915 1.20938 69.7979C1.55401 70.2043 2.44748 70.1829 2.44748 70.1829L6.98293 70.5851C6.98293 70.5851 7.20842 70.8888 7.05525 71.0599C6.90209 71.231 3.40052 70.5551 3.32819 70.9444C3.25586 71.3337 2.924 71.4749 3.95362 71.8599C5.47263 72.3024 7.05408 72.4889 8.63372 72.4117C9.6208 72.262 13.6457 72.5529 13.6457 72.5529L15.739 69.5669Z" fill="#FFBF9D"/>
<path d="M7.39943 68.8914C7.39943 68.9686 5.98556 69.0458 4.24051 68.96C2.49546 68.8743 1.09433 68.6684 1.10282 68.587C1.11131 68.5055 2.51669 68.587 4.25325 68.6684C5.98981 68.7499 7.39943 68.8057 7.39943 68.8914Z" fill="#FF9A6C"/>
<path d="M10.9968 68.5468C10.9968 68.574 10.7018 68.5234 10.3509 68.216C10.1237 68.0102 9.94289 67.7545 9.82156 67.4673C9.70022 67.18 9.64134 66.8684 9.64912 66.5547C9.67573 66.2228 9.73324 65.8945 9.82084 65.5742C9.88618 65.3205 9.91759 65.0587 9.91417 64.796C9.89274 64.5617 9.84126 64.3314 9.76111 64.1113C9.76111 64.084 10.0336 64.2902 10.0934 64.7805C10.1235 65.0561 10.1084 65.335 10.0486 65.6053C9.97831 65.9138 9.92965 66.2272 9.90297 66.543C9.89505 67.1073 10.1002 67.6523 10.4741 68.0604C10.7616 68.4106 11.0154 68.5079 10.9968 68.5468Z" fill="#FF9A6C"/>
<path d="M42.1026 37.3853L31.0189 41.3483C30.2813 48.0712 32.2208 49.1477 32.8109 56.5532C39.6529 77.1173 40.9372 92.4548 38.8827 96.1073C50.9376 97.9433 69.821 100.01 70.8157 91.663C63.165 74.4128 70.2913 65.4402 71.9401 56.5532C71.4978 52.4292 70.1109 49.2015 72.7575 42.1062L60.1468 36.9741C60.0421 60.3195 46.0405 59.1688 42.1026 37.3853Z" fill="#B9B8B6"/>
<path opacity="0.2" d="M42.1225 63.4886C45.5266 63.7169 47.6541 62.557 49.3035 61.5731C50.9529 60.5892 52.7991 59.5827 54.7137 59.8489C56.2687 60.0664 57.5321 61.0788 58.9112 61.7814C61.0004 62.8392 63.4085 63.2061 65.7571 62.8246C64.8794 63.5215 63.8575 64.0358 62.7587 64.3334C61.66 64.631 60.5094 64.7052 59.3829 64.5512C56.9312 64.2004 54.6618 62.7707 52.1898 62.9367C50.2318 63.0708 48.5004 64.1854 46.6082 64.6984C43.1421 65.6431 39.1468 64.321 37.0837 61.5513C37.0863 61.5532 40.4373 63.3759 42.1225 63.4886Z" fill="black"/>
<path d="M28.3445 80.5206C28.2923 80.578 27.1888 79.7011 25.9494 78.4842C24.7099 77.2674 23.8075 76.1885 23.8689 76.1335C23.9304 76.0786 24.9202 77.0678 26.1562 78.2758C27.3922 79.4839 28.4026 80.4568 28.3445 80.5206Z" fill="#FF9A6C"/>
<path d="M63.6924 3.58736C64.141 4.38695 64.1906 5.26212 63.8336 6.08209C63.4767 6.90207 62.7324 7.62284 61.712 8.13669C59.6286 9.13401 56.8642 9.09208 54.3417 9.38558C51.8192 9.67909 49.001 10.6884 48.8308 12.3985C48.7277 13.4318 49.6552 14.495 49.0951 15.4713C48.441 16.6034 46.1291 16.9359 45.3092 18.02C44.0009 19.7631 43.8642 20.1315 43.3803 22.0542C43.0891 23.1953 45.6497 25.8638 45.3092 26.9989C44.9402 30.9777 35.9097 37.2966 34.2425 36.5541C38.4525 32.1536 38.2208 30.3675 31.2944 34.9986C29.6232 34.4086 36.066 30.1676 34.2425 30.497C33.1448 30.6917 32.298 31.2667 31.2944 31.6171C30.3765 31.9383 29.3369 32.0708 28.3066 31.9979C27.2763 31.925 26.3013 31.65 25.5042 31.2075C24.7072 30.7651 24.1238 30.1749 23.8275 29.5112C23.5312 28.8476 21.0641 25.0178 21.3679 24.3557C21.816 23.3824 25.3264 25.7171 26.2001 24.8845C27.0738 24.0519 27.8265 23.0546 27.5443 22.0542C27.3337 21.2875 26.5541 20.6556 25.9627 19.9817C25.3712 19.3079 24.968 18.4483 25.537 17.7655C26.8626 18.6761 29.9544 19.712 30.7881 15.8277C32.5444 14.3602 26.3614 11.3876 27.5443 9.68046C28.8142 10.1601 37.1377 11.3523 38.5482 7.27414C39.041 6.57033 38.7901 5.74073 39.0366 4.98001C39.5921 3.24593 42.5268 2.32948 45.1748 2.22166C47.8227 2.11384 50.493 2.53912 53.1141 2.27856C54.5523 2.13481 55.9278 1.79039 57.3481 1.58972C58.7684 1.38906 60.3141 1.34713 61.6135 1.78439C62.9128 2.22166 63.8537 3.24893 63.4056 4.18036" fill="#79725B"/>
<path d="M43.8298 16.4284C43.8417 16.1127 43.5526 15.349 43.2813 15.2883C42.555 15.1197 41.2352 15.1156 41.1369 17.2284C41.0006 20.1157 43.5751 19.6759 43.5834 19.5936C43.5917 19.5113 43.7872 17.5172 43.8298 16.4284Z" fill="#FFBF9D"/>
<path d="M28.1583 42.81C27.987 42.6826 27.847 42.5185 27.749 42.33C27.6321 42.0525 27.5849 41.751 27.6116 41.4515C27.6382 41.152 27.7378 40.8633 27.9019 40.6101C28.1343 40.2354 28.4634 39.9287 28.8554 39.7212C29.3199 39.4754 29.8081 39.2759 30.3126 39.1257C30.9049 38.9572 31.4765 38.7247 32.0172 38.4324C32.3318 38.2716 32.6096 38.0486 32.8332 37.7771C33.0568 37.5057 33.2215 37.1917 33.317 36.8547C33.4423 36.0846 33.2826 35.2958 32.8673 34.6326C32.5165 33.9304 32.0442 33.2593 31.7339 32.4949C31.4235 31.6721 31.3123 30.789 31.4091 29.9162C31.5059 29.0434 31.8082 28.2051 32.2916 27.4684C32.7982 26.6621 33.5162 26.0063 34.3695 25.5707C35.2465 25.1262 36.2495 24.9129 37.212 24.4952C37.7159 24.2884 38.1743 23.9865 38.5613 23.6063C38.947 23.2074 39.2011 22.7022 39.2899 22.1575C39.4698 21.0597 39.1235 19.9975 38.9975 18.9398C38.8546 17.8849 38.9974 16.8114 39.4113 15.8288C39.8126 14.8798 40.396 14.0166 41.1294 13.2867C42.5597 11.9288 44.3093 10.9437 46.2207 10.4201C47.9495 9.93006 49.7068 9.54418 51.4829 9.26462C53.038 9.01341 54.5738 8.65702 56.0794 8.19799C57.3236 7.80896 58.5039 7.24305 59.5831 6.51805C60.3944 5.96497 61.115 5.29196 61.7194 4.52258C62.1038 4.03888 62.4187 3.50494 62.6549 2.93596C62.741 2.74014 62.8117 2.53807 62.8663 2.33154C62.8663 2.33154 62.7854 2.53598 62.61 2.91819C62.3572 3.47357 62.0338 3.9948 61.6475 4.46924C60.1753 6.18307 58.217 7.4215 56.0255 8.02466C54.5262 8.47163 52.998 8.81759 51.4514 9.06018C49.6646 9.33243 47.8967 9.7139 46.1577 10.2024C44.2087 10.7267 42.4241 11.7261 40.9675 13.1089C40.2127 13.8613 39.6111 14.75 39.1954 15.7266C38.7614 16.7382 38.6062 17.8453 38.7457 18.9354C38.8806 20.0198 39.1954 21.0731 39.0425 22.0908C38.9629 22.5926 38.7289 23.0581 38.3724 23.4241C38.0119 23.7791 37.5839 24.06 37.113 24.2507C36.1775 24.6596 35.1746 24.8907 34.266 25.3396C33.3764 25.7927 32.6297 26.4783 32.1072 27.3217C31.6079 28.0861 31.2974 28.9557 31.2005 29.8604C31.1036 30.7651 31.2232 31.6797 31.5495 32.5304C31.8778 33.3215 32.3546 33.9881 32.7009 34.677C33.0945 35.2978 33.2537 36.0359 33.1506 36.7614C33.0615 37.0788 32.9074 37.3747 32.6977 37.6309C32.488 37.887 32.2273 38.0978 31.9318 38.2502C31.4023 38.5408 30.8429 38.7748 30.2632 38.9479C29.7507 39.1037 29.2563 39.3122 28.7879 39.5701C28.3862 39.7883 28.0496 40.1072 27.812 40.4946C27.6478 40.7593 27.5518 41.0597 27.5322 41.3696C27.5126 41.6795 27.57 41.9894 27.6995 42.2723C27.7826 42.4999 27.9453 42.6906 28.1583 42.81Z" fill="#455A64"/>
<path d="M30.0877 17.957C30.0877 17.957 30.1192 17.957 30.1867 17.9837L30.4835 18.0459C30.7489 18.0904 31.1402 18.1615 31.6484 18.2059C32.2677 18.2743 32.8939 18.2504 33.5059 18.1348C34.332 17.97 35.0753 17.529 35.6108 16.886C36.2374 16.1072 36.6896 15.2059 36.9376 14.2416C37.2049 13.1532 37.5292 12.0792 37.9091 11.024C38.4089 9.89412 39.1809 8.90234 40.1579 8.13518C41.1991 7.31291 42.3749 6.6726 43.6345 6.24192C46.2431 5.35306 48.9192 5.23306 51.3029 5.01085C52.4993 4.90863 53.6417 4.79308 54.6987 4.61531C55.6826 4.45682 56.6514 4.21748 57.5951 3.89978C58.973 3.46015 60.2504 2.75807 61.3551 1.8332C61.7572 1.49316 62.1166 1.10672 62.4255 0.682129C62.3958 0.702522 62.3686 0.726393 62.3446 0.753232C62.2906 0.811008 62.2232 0.886563 62.1377 0.971004C61.8752 1.25417 61.5926 1.51853 61.2921 1.76208C60.1814 2.65353 58.9081 3.32638 57.5411 3.74424C56.6038 4.04901 55.6425 4.27645 54.6672 4.42421C53.6147 4.59754 52.4813 4.70419 51.285 4.80197C48.9012 5.00641 46.2162 5.11307 43.5581 6.02414C42.2665 6.46536 41.0604 7.12063 39.9915 7.96185C38.9959 8.75832 38.2129 9.78374 37.7112 10.9484C37.3305 12.0112 37.0106 13.0944 36.7532 14.1927C36.5172 15.1355 36.0853 16.0193 35.4849 16.7882C34.9747 17.4082 34.2681 17.8403 33.4789 18.0148C32.8788 18.138 32.2636 18.1739 31.6529 18.1215C31.1492 18.0904 30.7534 18.037 30.4925 18.0015C30.3588 17.9776 30.2235 17.9628 30.0877 17.957Z" fill="#455A64"/>
<path d="M44.8902 29.8875C44.8649 29.8668 44.9583 28.8889 44.9908 27.2546C44.9995 26.8503 45.0111 26.3971 45.0176 25.9269C45.0332 25.4481 45.0085 24.9661 44.9452 24.5146C44.9263 24.4047 44.9019 24.3017 44.8728 24.208C44.8411 24.1063 44.8067 24.0102 44.77 23.9203C44.7214 23.7997 44.6826 23.6552 44.6557 23.4953C44.6293 23.3153 44.6237 23.1191 44.6397 22.9311C44.6736 22.6237 44.7223 22.3286 44.7845 22.0528C44.8088 21.9335 44.8278 21.8073 44.841 21.6767C44.8456 21.6146 44.8488 21.5518 44.8504 21.4886C44.8504 21.4285 44.8468 21.3664 44.8468 21.3006C44.8228 21.0363 44.7771 20.7887 44.7129 20.5747C44.6484 20.3396 44.5731 20.1101 44.5036 19.8675C44.4288 19.6235 44.368 19.3524 44.3234 19.0626C44.2797 18.7628 44.2687 18.4374 44.2915 18.1223C44.3141 17.8452 44.3501 17.5767 44.3987 17.3231L44.5261 16.6554C44.6028 16.2361 44.6462 15.8355 44.6173 15.4801C44.5834 15.1399 44.5296 14.8152 44.458 14.5172C44.4014 14.2719 44.3558 14.0107 44.3219 13.7386C44.301 13.5603 44.2955 13.372 44.306 13.1876C44.3176 13.0635 44.3292 12.9995 44.335 12.9995C44.3516 12.9995 44.3241 13.2647 44.3907 13.6671C44.4355 13.9123 44.4883 14.147 44.5485 14.3686C44.6363 14.6806 44.7036 15.0282 44.7476 15.3973C44.7694 15.6303 44.7716 15.8727 44.7541 16.1082C44.7364 16.3512 44.7078 16.5879 44.6687 16.8134C44.5963 17.2685 44.4935 17.7161 44.4631 18.19C44.4474 18.4244 44.4574 18.6656 44.4921 18.8859C44.5324 19.1309 44.5857 19.3601 44.6506 19.5666C44.7172 19.7942 44.7954 20.0199 44.8678 20.2794C44.9507 20.5554 45.0081 20.8771 45.0357 21.2197C45.0398 21.3127 45.0417 21.4063 45.0415 21.4999C45.0397 21.593 45.0348 21.6854 45.027 21.7764C45.0102 21.943 44.9859 22.1039 44.9546 22.2559C44.8989 22.4925 44.8537 22.7449 44.82 23.0082C44.8115 23.1122 44.8144 23.2203 44.8285 23.3201C44.8426 23.4199 44.8672 23.5074 44.8996 23.5724C44.9405 23.6769 44.9784 23.7888 45.0133 23.9071C45.0496 24.031 45.0793 24.167 45.1016 24.3114C45.1428 24.5779 45.1673 24.8598 45.174 25.1464C45.1812 25.4044 45.1812 25.6633 45.174 25.9213C45.1602 26.4121 45.1414 26.8503 45.1233 27.2621C45.0976 27.9111 45.0533 28.5542 44.9908 29.186C44.9438 29.6637 44.9018 29.8969 44.8902 29.8875Z" fill="#455A64"/>
</svg>
