<svg width="254" height="215" viewBox="0 0 254 215" fill="none" xmlns="http://www.w3.org/2000/svg">
<rect x="22" width="209" height="212.344" rx="25.08" fill="#FFF2CB"/>
<path d="M116.118 6.61651L117.3 6.55082C123.004 6.2242 128.622 8.05689 133.036 11.6843C137.45 15.3117 140.337 20.468 141.123 26.1275C142.634 37.0764 138.915 40.3645 139.156 46.244C139.714 58.4411 129.886 65.9656 129.886 65.9656L133.317 74.7407C133.488 76.6863 133.273 78.6465 132.684 80.5088C132.096 82.3711 131.145 84.0986 129.886 85.5922C128.628 87.0858 127.087 88.316 125.351 89.212C123.616 90.1081 121.721 90.6524 119.774 90.8137C115.896 91.1247 112.051 89.8984 109.069 87.3994C106.087 84.9004 104.207 81.3291 103.834 77.456L99.4552 32.226C97.6816 19.6348 103.484 8.09462 116.118 6.61651Z" fill="#FFBF9D"/>
<path d="M129.636 65.9664C123.993 66.2941 118.252 64.8081 113.316 62.1268C113.316 62.1268 118.918 70.4302 130.996 68.6866L129.636 65.9664Z" fill="#FF9A6C"/>
<path d="M121.471 38.5297C121.51 39.0826 121.338 39.6292 120.99 40.0511C120.643 40.4731 120.149 40.7364 119.616 40.784C119.357 40.8213 119.093 40.8044 118.84 40.7341C118.587 40.6639 118.35 40.5419 118.143 40.3752C117.937 40.2085 117.765 40.0006 117.637 39.7638C117.509 39.527 117.429 39.2661 117.4 38.9966C117.368 38.4453 117.543 37.9024 117.889 37.482C118.235 37.0616 118.725 36.7964 119.255 36.7422C119.515 36.7049 119.779 36.7219 120.032 36.7921C120.285 36.8623 120.521 36.9844 120.728 37.1511C120.935 37.3177 121.107 37.5256 121.234 37.7624C121.362 37.9992 121.442 38.2601 121.471 38.5297Z" fill="#263238"/>
<path d="M138.868 32.2361C138.659 32.477 137.291 31.5682 135.419 31.6887C133.547 31.8091 132.222 32.7836 132.014 32.5974C131.806 32.4113 132.102 32.0828 132.671 31.612C133.45 31.0012 134.398 30.6456 135.386 30.5938C136.359 30.5399 137.324 30.7927 138.145 31.3164C138.725 31.7215 138.944 32.1157 138.868 32.2361Z" fill="#263238"/>
<path d="M137.791 38.5297C137.824 39.081 137.648 39.6239 137.302 40.0443C136.956 40.4647 136.466 40.7298 135.936 40.784C135.676 40.8213 135.412 40.8044 135.159 40.7341C134.906 40.6639 134.669 40.5418 134.463 40.3752C134.256 40.2085 134.084 40.0006 133.956 39.7638C133.828 39.527 133.748 39.2661 133.719 38.9966C133.684 38.4445 133.858 37.8998 134.204 37.4786C134.551 37.0574 135.043 36.7932 135.575 36.7422C135.834 36.7049 136.098 36.7219 136.351 36.7921C136.604 36.8623 136.841 36.9844 137.048 37.1511C137.254 37.3177 137.427 37.5256 137.554 37.7624C137.682 37.9992 137.762 38.2601 137.791 38.5297Z" fill="#263238"/>
<path d="M120.463 33.6378C120.266 33.8786 118.887 32.9808 117.015 33.0903C115.143 33.1998 113.829 34.1852 113.61 33.9991C113.391 33.813 113.698 33.4845 114.278 33.0137C115.05 32.4084 115.991 32.0566 116.971 32.0064C117.944 31.9441 118.912 32.1975 119.73 32.729C120.343 33.1341 120.562 33.5283 120.463 33.6378Z" fill="#263238"/>
<path d="M128.051 47.1368C129.018 46.7636 130.03 46.5171 131.061 46.4032C131.543 46.3266 131.981 46.2062 132.047 45.8777C132.063 45.3811 131.925 44.8915 131.653 44.4762C131.127 43.3813 130.558 42.166 130.021 40.9178C127.766 35.8485 126.102 31.6769 126.299 31.5894C126.496 31.5018 128.489 35.531 130.766 40.6003C131.313 41.8485 131.861 43.0419 132.331 44.1806C132.661 44.7415 132.788 45.3984 132.693 46.0419C132.633 46.2163 132.534 46.3744 132.403 46.5036C132.272 46.6329 132.112 46.7297 131.937 46.7865C131.679 46.8767 131.411 46.9319 131.138 46.9507C130.12 47.1341 129.084 47.1966 128.051 47.1368Z" fill="#263238"/>
<path d="M120.604 27.7468C120.44 28.2614 118.557 28.13 116.378 28.5242C114.199 28.9183 112.459 29.619 112.141 29.1701C111.999 28.9621 112.284 28.4694 112.962 27.9329C113.883 27.2722 114.943 26.8303 116.06 26.6405C117.177 26.4508 118.323 26.5183 119.411 26.838C120.232 27.1227 120.67 27.495 120.604 27.7468Z" fill="#263238"/>
<path d="M137.913 28.327C137.618 28.7649 136.304 28.4036 134.75 28.4693C133.195 28.535 131.903 28.9182 131.575 28.4693C131.432 28.2613 131.575 27.8233 132.155 27.3744C132.897 26.8429 133.782 26.549 134.695 26.5314C135.609 26.4927 136.513 26.7416 137.278 27.243C137.848 27.681 138.056 28.108 137.913 28.327Z" fill="#263238"/>
<path d="M139.622 20.6088C139.622 20.6088 135.976 13.1635 132.188 11.5869C127.612 9.69273 125.981 14.6964 121.667 13.7767C117.354 12.857 112.986 11.0175 108.837 14.5431C104.304 18.4081 106.647 20.8059 106.647 26.2256C106.713 48.2001 103.067 54.6271 101.337 44.3789C101.151 43.284 97.9543 42.5285 97.2208 37.8095C96.2574 31.6562 95.5896 24.1453 96.7172 19.6672C97.6697 15.9008 99.6294 13.2183 103.286 10.1745C109.012 5.37886 117.212 4.80952 122.828 5.05039C128.444 5.29127 139.589 11.0175 139.622 20.6088Z" fill="#263238"/>
<path d="M102.137 43.9637C102.1 43.5138 101.971 43.0764 101.757 42.6786C101.544 42.2809 101.251 41.9314 100.897 41.652C100.542 41.3725 100.134 41.1691 99.6975 41.0545C99.261 40.9398 98.8055 40.9164 98.3595 40.9856C96.1043 41.3359 93.652 42.7702 94.068 47.4564C94.8124 55.7666 103.001 53.3031 103.001 53.0622C103.001 52.8213 102.476 47.4454 102.137 43.9637Z" fill="#FFBF9D"/>
<path d="M100.932 50.093C100.932 50.093 100.801 50.2134 100.56 50.3448C100.224 50.5245 99.8321 50.5677 99.4653 50.4653C98.5675 50.2244 97.7027 48.8886 97.5275 47.3996C97.4408 46.6877 97.5157 45.9654 97.7465 45.2864C97.801 45.0209 97.9192 44.7726 98.0908 44.5629C98.2624 44.3531 98.4823 44.1881 98.7318 44.082C98.8935 44.0246 99.0701 44.0249 99.2317 44.0827C99.3933 44.1406 99.53 44.2525 99.6185 44.3996C99.7609 44.6185 99.7171 44.7937 99.7609 44.8047C99.8047 44.8156 99.9251 44.6514 99.8265 44.312C99.7646 44.1089 99.6327 43.9343 99.4543 43.8193C99.2101 43.6654 98.915 43.6143 98.6332 43.6769C98.2996 43.7764 97.9968 43.9593 97.7535 44.2083C97.5102 44.4574 97.3345 44.7644 97.2429 45.1003C96.9527 45.8526 96.8512 46.6646 96.9473 47.4652C97.1553 49.1404 98.1515 50.6295 99.3777 50.8704C99.6064 50.9159 99.8424 50.909 100.068 50.8502C100.294 50.7914 100.503 50.6823 100.68 50.5309C100.932 50.301 100.965 50.1149 100.932 50.093Z" fill="#FF9A6C"/>
<path d="M141.396 11.587C140.115 10.6235 138.352 10.4921 137.082 9.51761C131.426 5.17415 122.309 -3.11586 114.524 1.21846C111.562 2.86779 107.823 3.00918 105.18 4.89717C104.411 5.5051 103.778 6.26735 103.322 7.1348C102.866 8.00226 102.596 8.95568 102.531 9.93367C102.531 9.93367 101.666 9.49571 99.0384 11.576C97.3633 12.9008 95.9949 15.7585 95.3818 17.795C94.4731 20.8497 95.7978 24.0687 97.1006 26.9702C97.8013 28.5359 98.6771 30.2549 100.308 30.8132C102.29 31.4811 104.479 29.9264 105.257 27.9775C106.034 26.0286 107.26 24.0687 108.202 22.1965C109.844 18.9118 111.486 15.9118 110.14 13.8315C114.58 12.3891 117.523 14.9688 121.471 16.3607C123.131 16.9461 129.829 18.0568 131.676 17.6152C132.273 17.4725 132.83 17.1972 133.305 16.8096C134.057 18.035 135.243 18.9319 136.627 19.3215C138.011 19.7112 139.491 19.5649 140.772 18.9118C143.246 17.3789 143.684 13.3169 141.396 11.587Z" fill="#263238"/>
<path d="M96.2695 25.009C96.6537 25.6101 96.9765 26.2484 97.233 26.9141C97.5332 27.5865 98.0051 28.1681 98.6014 28.6002C99.3985 29.0081 100.317 29.1132 101.185 28.8958C102.088 28.7207 102.941 28.3467 103.681 27.8009C104.278 27.3374 104.822 26.8086 105.302 26.2243C105.721 25.6511 106.186 25.1128 106.692 24.6148C106.425 25.2779 106.056 25.8949 105.597 26.4433C105.139 27.088 104.593 27.6665 103.977 28.1623C103.187 28.7592 102.268 29.164 101.295 29.3447C100.308 29.5893 99.265 29.4442 98.3825 28.9396C97.723 28.4568 97.2204 27.7904 96.9374 27.0236C96.6327 26.3821 96.4084 25.7054 96.2695 25.009Z" fill="#B9B8B6"/>
<path d="M96.587 31.4383C97.0881 31.8183 97.6411 32.1243 98.2292 32.3471C98.8689 32.5497 99.5453 32.6095 100.211 32.5223C101.028 32.3982 101.808 32.0994 102.499 31.6464C103.754 30.7745 104.819 29.6571 105.63 28.3617C105.939 27.7998 106.306 27.2714 106.725 26.785C106.533 27.4114 106.249 28.0055 105.882 28.5478C105.138 29.9738 104.06 31.1984 102.74 32.1172C101.988 32.6147 101.129 32.9262 100.233 33.0259C99.4896 33.1077 98.7378 33.0062 98.043 32.7303C96.9264 32.1938 96.5322 31.4493 96.587 31.4383Z" fill="#B9B8B6"/>
<path d="M122.432 53.8997C122.152 54.3585 121.996 54.8348 121.968 55.3153C121.934 55.5426 121.997 55.7709 122.152 55.9846C122.307 56.1984 122.549 56.3925 122.864 56.5539C123.189 56.7522 123.596 56.9114 124.055 57.0203C124.514 57.1292 125.014 57.1852 125.52 57.1843C126.432 57.1834 127.314 57.0158 128.006 56.7117C128.699 56.4077 129.157 55.987 129.299 55.5254L129.623 54.4803C127.733 54.2038 122.572 53.9715 122.432 53.8997Z" fill="#FF9A6C"/>
<path d="M128.205 55.9347C128.205 55.9347 127.94 55.9347 127.502 55.9564C126.887 55.9862 126.261 55.9862 125.646 55.9564C124.758 55.9126 123.955 55.7655 123.398 55.5444C122.734 55.2677 122.419 54.9242 122.511 54.5792C122.537 54.3851 122.699 54.1951 122.983 54.0226L122.707 54.0623C124.678 54.1563 126.407 54.2322 127.628 54.2756C128.286 54.3141 128.954 54.3299 129.623 54.3226C129 54.2467 128.349 54.1957 127.686 54.1708C126.464 54.0985 124.758 54.0009 122.787 53.8997H122.603L122.522 53.9503C122.08 54.2188 121.892 54.5214 121.98 54.8224C122.068 55.1234 122.428 55.4102 123.018 55.6492C123.665 55.8939 124.592 56.0496 125.6 56.0829C126.255 56.101 126.915 56.0814 127.548 56.0251C127.785 56.0101 128.009 55.9793 128.205 55.9347Z" fill="#263238"/>
<path d="M73.1805 90.5509C72.4579 90.5509 62.145 94.6677 59.43 104.784C56.7149 114.901 49.3032 152.018 49.3032 152.018L41.4316 162.923C41.4316 162.923 43.9825 182.817 58.4447 179.029C58.4447 179.029 68.1007 180.715 71.177 170.927C74.2534 161.139 80.22 131.938 80.22 131.938L73.1805 90.5509Z" fill="#B9B8B6"/>
<path d="M102.635 73.4459L97.1591 81.8726L72.5156 90.7897L79.5691 163.531L73.5 212C121.518 219.401 184.619 208.503 163.5 212C165.439 211.944 165.92 205.932 166.237 203.234C166.511 200.813 166.303 198.36 165.624 196.023L161.539 181.443C162.141 190.516 159.469 127.316 159.348 125.009L165.317 92.4951L137.279 80.9474L132.898 74.137L120.28 83.9012L102.635 73.4459Z" fill="#B9B8B6"/>
<path d="M165.411 92.4874C165.411 92.4874 171.179 97.4576 172.131 101.284C173.083 105.111 193.827 149.194 193.827 149.194L204.132 151.921L206.888 157.528C208.497 160.744 208.93 164.405 208.114 167.898C207.298 171.39 205.283 174.5 202.407 176.705C202.049 176.972 201.675 177.218 201.287 177.442C195.687 180.741 185.718 180.565 179.882 173.813C174.36 167.414 158.197 144.41 158.197 144.41V116.261L165.411 92.4874Z" fill="#B9B8B6"/>
<path d="M198.929 153.134L213.413 144.583L220.397 153.134L218.952 157.273L200.275 171.167C197.956 169.275 196.401 166.607 195.896 163.656C195.075 158.434 198.929 153.134 198.929 153.134Z" fill="#FFBF9D"/>
<path d="M194.328 148.711C194.328 148.853 193.09 148.711 191.273 149.324C188.925 150.136 186.845 151.58 185.263 153.496C183.699 155.454 182.41 157.616 181.431 159.923C181.062 160.911 180.604 161.864 180.062 162.769C180.209 161.718 180.503 160.693 180.938 159.726C181.799 157.291 183.069 155.021 184.693 153.014C186.355 150.985 188.604 149.52 191.131 148.82C192.164 148.48 193.273 148.442 194.328 148.711Z" fill="#263238"/>
<path d="M213.171 149.325C212.81 147.434 212.939 145.482 213.547 143.656C214.154 141.829 215.22 140.189 216.641 138.891C220.061 136.077 223.928 133.857 228.082 132.321C230.622 131.226 235.91 126.77 236.84 127.843C237.771 128.916 238.187 130.515 236.84 132.464C235.494 134.413 227.841 137.314 228.914 139.778C229.352 140.774 231.76 140.96 231.76 140.96C236.132 141.268 240.517 141.355 244.898 141.223C248.773 140.883 252.255 141.628 252.047 142.964C251.839 144.299 251.116 145.033 247.909 145.307C244.701 145.58 239.479 145.372 239.15 146.106C238.822 146.84 239.96 147.31 241.832 147.201C243.705 147.091 252.529 147.059 253.131 148.066C253.277 148.322 253.365 148.606 253.388 148.9C253.411 149.194 253.369 149.489 253.264 149.765C253.159 150.04 252.995 150.289 252.783 150.493C252.57 150.697 252.315 150.852 252.036 150.945L249.967 151.679C249.967 151.679 251.171 153.354 250.164 154.285C249.157 155.216 246.879 154.887 246.879 154.887L235.176 154.559C235.176 154.559 234.508 155.259 234.837 155.741C235.165 156.223 244.34 155.555 244.405 156.562C244.471 157.57 245.27 158.029 242.533 158.752C238.525 159.42 234.433 159.42 230.425 158.752C227.951 158.073 217.583 157.657 217.583 157.657L213.171 149.325Z" fill="#FFBF9D"/>
<path d="M54.1085 154.656L40.566 143.423L32.793 152.182L33.7454 156.463L50.6709 172.404C53.1801 170.965 55.0735 168.655 55.9915 165.912C57.6775 161.083 54.1085 154.656 54.1085 154.656Z" fill="#FFBF9D"/>
<path d="M40.4132 149.269C40.9955 147.435 41.1001 145.483 40.7169 143.597C40.3337 141.712 39.4755 139.956 38.2236 138.495C35.143 135.296 31.5409 132.646 27.5713 130.655C25.1846 129.221 20.4552 124.228 19.3932 125.181C18.7636 125.749 18.362 126.526 18.2633 127.368C18.1646 128.21 18.3755 129.06 18.8568 129.758C19.9516 131.849 25.2284 134.28 25.0423 136.962C25.0229 137.222 24.9526 137.475 24.8354 137.707C24.7181 137.939 24.5563 138.146 24.359 138.316C24.1618 138.486 23.9331 138.615 23.6859 138.697C23.4387 138.778 23.1779 138.81 22.9184 138.79C18.5501 138.59 14.1946 138.17 9.86855 137.531C6.04774 136.743 2.51158 137.072 2.55537 138.418C2.59916 139.765 3.24509 140.608 6.39808 141.232C9.55107 141.856 14.7623 142.327 14.9374 143.039C15.1126 143.75 14.0069 144.134 12.1567 143.794C10.3065 143.455 1.54817 142.415 0.836553 143.345C0.660158 143.579 0.537883 143.85 0.478541 144.137C0.419198 144.424 0.424266 144.72 0.493379 145.005C0.562492 145.29 0.693929 145.556 0.878217 145.784C1.06251 146.012 1.29506 146.196 1.55911 146.323L3.52973 147.298C3.52973 147.298 2.13935 148.82 3.02613 149.86C3.91291 150.9 6.21197 150.845 6.21197 150.845L17.8824 151.874C17.8824 151.874 18.4626 152.652 18.0685 153.09C17.6744 153.528 8.66429 151.798 8.47818 152.794C8.29206 153.79 7.43812 154.152 10.0875 155.137C13.9962 156.27 18.0655 156.747 22.1302 156.55C24.6701 156.166 35.0268 156.911 35.0268 156.911L40.4132 149.269Z" fill="#FFBF9D"/>
<path d="M137.17 82.9747C136.438 83.8892 135.624 84.7357 134.74 85.5039C133.196 87.0148 131.083 89.128 128.85 91.5367C128.379 92.0513 127.908 92.555 127.47 93.0477L127.175 93.3652L126.901 93.0258C125.171 90.836 123.671 88.8214 122.62 87.3871C122.003 86.6582 121.477 85.8566 121.055 85.0002C121.781 85.6212 122.435 86.3228 123.003 87.0915C124.153 88.4491 125.729 90.3761 127.481 92.5659H126.923L128.291 91.044C130.215 88.9644 132.247 86.9872 134.378 85.1207C135.218 84.2945 136.156 83.5738 137.17 82.9747Z" fill="#263238"/>
<path d="M74.7261 109.492C74.9273 109.975 75.0635 110.483 75.1312 111.002C75.3392 111.988 75.6019 113.422 75.8866 115.196C76.4559 118.743 77.058 123.67 77.5616 129.123C78.0652 134.575 78.4374 139.524 78.7221 143.105C78.8315 144.769 78.941 146.181 79.0177 147.342C79.0863 147.862 79.0863 148.388 79.0177 148.908C78.8615 148.409 78.7588 147.895 78.7111 147.375C78.5579 146.378 78.3717 144.933 78.1747 143.148C77.7587 139.59 77.2988 134.652 76.7952 129.2C76.2916 123.747 75.799 118.831 75.372 115.327C75.164 113.674 74.9888 112.262 74.8465 111.112C74.7334 110.58 74.6929 110.035 74.7261 109.492Z" fill="#263238"/>
<path d="M160.38 107.008C160.537 107.628 160.628 108.263 160.654 108.902C160.774 110.139 160.906 111.913 161.015 114.124C161.267 118.504 161.387 124.635 161.409 131.358V153.814C161.445 154.454 161.419 155.096 161.333 155.73C161.191 155.105 161.121 154.466 161.125 153.825C161.037 152.588 160.95 150.803 160.884 148.603C160.731 144.223 160.676 138.092 160.665 131.369C160.654 124.646 160.599 118.548 160.49 114.146C160.435 112.055 160.391 110.303 160.358 108.924C160.306 108.286 160.314 107.644 160.38 107.008Z" fill="#263238"/>
<path d="M63.6125 170.181C63.2699 168.939 63.0174 167.672 62.8571 166.393C62.3441 163.338 61.354 160.382 59.923 157.634C58.4628 154.94 56.2686 152.715 53.5952 151.218C52.4455 150.669 51.2561 150.208 50.0371 149.838C50.3978 149.76 50.7712 149.76 51.1319 149.838C52.0804 149.996 53.0018 150.288 53.8689 150.703C56.7455 152.138 59.103 154.435 60.6128 157.273C62.0615 160.093 62.9817 163.154 63.3278 166.306C63.5855 167.58 63.6811 168.883 63.6125 170.181Z" fill="#263238"/>
<path d="M67.1258 155.39C66.9725 155.566 64.7938 153.321 61.2467 152.106C57.6996 150.89 54.678 151.306 54.6123 151.077C54.5466 150.847 57.7544 150.102 61.4876 151.405C65.2208 152.708 67.29 155.303 67.1258 155.39Z" fill="#263238"/>
<path d="M122.687 206.269C122.62 205.864 122.591 205.454 122.599 205.043C122.599 204.178 122.599 203.007 122.522 201.54C122.457 198.419 122.369 194.029 122.26 188.631C122.008 177.682 121.658 162.649 121.263 146.05C120.869 129.452 120.661 114.353 120.683 103.448C120.683 97.9738 120.738 93.5942 120.804 90.5285C120.804 89.0614 120.88 87.8898 120.913 87.0249C120.904 86.6143 120.933 86.2037 121.001 85.7986C121.031 86.2068 121.031 86.6167 121.001 87.0249C121.001 87.8898 121.001 89.0614 121.001 90.5285C121.001 93.649 121.066 98.0504 121.11 103.437C121.22 114.386 121.537 129.397 121.909 146.029C122.282 162.66 122.61 177.715 122.698 188.62C122.698 194.094 122.698 198.474 122.698 201.54C122.698 203.007 122.698 204.178 122.643 205.043C122.685 205.45 122.7 205.86 122.687 206.269Z" fill="#263238"/>
<path d="M53.4729 154.196C53.4729 154.108 54.5677 154.929 55.4435 156.747C55.9803 157.783 56.3708 158.888 56.604 160.031C56.8289 161.482 56.8289 162.96 56.604 164.411C56.4406 165.864 56.01 167.275 55.334 168.571C54.7488 169.623 53.9419 170.534 52.9693 171.243C52.114 171.953 51.0371 172.34 49.9258 172.338C50.8879 171.94 51.7993 171.429 52.6409 170.816C53.5043 170.108 54.2155 169.233 54.7319 168.243C55.3177 167.005 55.688 165.675 55.8267 164.312C56.0237 162.947 56.0237 161.561 55.8267 160.196C55.6386 159.067 55.3189 157.965 54.8742 156.911C54.1955 155.17 53.3634 154.261 53.4729 154.196Z" fill="#263238"/>
<path d="M202.99 172.688C202.99 172.688 202.64 172.688 202.082 172.415C201.298 172.069 200.562 171.624 199.892 171.09C197.598 169.323 196.029 166.778 195.48 163.935C194.932 161.091 195.442 158.146 196.914 155.652C197.343 154.903 197.866 154.211 198.469 153.594C198.896 153.177 199.17 152.98 199.202 153.013C199.235 153.046 198.327 154.032 197.374 155.904C196.1 158.326 195.69 161.109 196.209 163.796C196.728 166.482 198.147 168.912 200.231 170.685C201.797 172.064 203.045 172.568 202.99 172.688Z" fill="#263238"/>
<path d="M230.829 136.569C230.917 136.656 230.282 137.259 229.483 138.321C229.023 138.929 228.705 139.632 228.552 140.379C228.377 141.222 228.399 142.207 228.246 143.291C228.115 144.222 227.801 145.117 227.322 145.925C226.843 146.734 226.208 147.439 225.454 147.999C224.878 148.519 224.147 148.834 223.374 148.897C223.319 148.777 224.129 148.47 225.125 147.583C226.408 146.447 227.252 144.898 227.512 143.204C227.584 142.213 227.708 141.226 227.884 140.248C228.094 139.432 228.5 138.68 229.067 138.058C229.526 137.427 230.131 136.917 230.829 136.569Z" fill="#FF9A6C"/>
<path d="M19.6674 148.087C19.6674 148.284 16.0218 148.481 11.5222 148.262C7.02264 148.043 3.40984 147.518 3.43174 147.31C3.45364 147.102 7.07738 147.31 11.5551 147.518C16.0328 147.726 19.6674 147.868 19.6674 148.087Z" fill="#FF9A6C"/>
<path d="M27.9542 147.463C27.9542 147.54 27.0893 147.398 26.0602 146.533C25.3937 145.953 24.8635 145.234 24.5077 144.426C24.1519 143.617 23.9792 142.74 24.002 141.858C24.08 140.924 24.2487 140 24.5056 139.098C24.6972 138.385 24.7893 137.648 24.7793 136.909C24.7165 136.249 24.5655 135.601 24.3304 134.982C24.3304 134.905 25.1296 135.485 25.3048 136.865C25.3933 137.64 25.3489 138.425 25.1734 139.186C24.9674 140.054 24.8247 140.936 24.7465 141.825C24.7232 143.413 25.3248 144.946 26.4215 146.095C27.2645 147.08 28.0089 147.354 27.9542 147.463Z" fill="#FF9A6C"/>
<path d="M232.865 150.058C232.865 149.85 236.773 150.003 241.547 150.398C246.32 150.792 250.185 151.295 250.174 151.493C250.163 151.69 246.265 151.547 241.492 151.142C236.719 150.737 232.854 150.255 232.865 150.058Z" fill="#FF9A6C"/>
<path d="M120.168 84.2878C119.731 85.7456 119.178 87.1661 118.515 88.536C118.22 89.1929 117.913 89.9046 117.596 90.6382C117.282 91.474 116.916 92.2894 116.501 93.0798C116.343 93.3396 116.113 93.5481 115.839 93.6802C115.565 93.8123 115.259 93.8623 114.957 93.8243C114.427 93.6847 113.934 93.4305 113.512 93.0798L110.928 91.317C107.403 88.8864 104.239 86.6419 101.962 84.9995C100.689 84.1672 99.4876 83.2297 98.3711 82.1966C99.7274 82.8803 101.027 83.6711 102.258 84.5615C104.611 86.1053 107.83 88.2623 111.355 90.7039L113.928 92.4776C114.264 92.7685 114.655 92.9882 115.078 93.1236C115.25 93.1444 115.425 93.1126 115.579 93.0326C115.734 92.9525 115.86 92.8278 115.942 92.6747C116.774 91.1637 117.464 89.5324 118.132 88.2951C118.698 86.9051 119.379 85.5646 120.168 84.2878Z" fill="#263238"/>
</svg>
