<svg width="106" height="105" viewBox="0 0 106 105" fill="none" xmlns="http://www.w3.org/2000/svg">
<g id="Frame 29">
<rect id="Rectangle 284" x="7.5" y="9" width="94" height="95.504" rx="30" fill="#FFF2CB"/>
<g id="freepik--character-1--inject-49">
<path id="Vector" d="M55.9103 38.3177C53.3724 38.4634 50.79 37.803 48.5703 36.6113C48.5703 36.6113 51.0895 40.3016 56.522 39.5267L55.9103 38.3177Z" fill="#FF9A6C"/>
<path id="Vector_2" d="M52.2388 26.1233C52.2564 26.369 52.1788 26.6119 52.0226 26.7994C51.8665 26.987 51.6444 27.104 51.4045 27.1252C51.2878 27.1417 51.1691 27.1342 51.0553 27.103C50.9416 27.0718 50.8351 27.0175 50.7422 26.9435C50.6492 26.8694 50.5718 26.777 50.5144 26.6718C50.457 26.5665 50.4208 26.4506 50.408 26.3308C50.3933 26.0858 50.4721 25.8445 50.6276 25.6576C50.7832 25.4708 51.0035 25.353 51.2423 25.3289C51.3589 25.3123 51.4777 25.3198 51.5914 25.3511C51.7052 25.3823 51.8117 25.4365 51.9046 25.5106C51.9975 25.5846 52.075 25.677 52.1324 25.7823C52.1898 25.8875 52.226 26.0035 52.2388 26.1233Z" fill="#263238"/>
<path id="Vector_3" d="M60.0635 23.3268C59.97 23.4339 59.3545 23.03 58.5125 23.0835C57.6705 23.137 57.0747 23.5701 56.9811 23.4874C56.8876 23.4047 57.0205 23.2587 57.2766 23.0495C57.6268 22.778 58.0532 22.6199 58.4977 22.5969C58.9351 22.573 59.3691 22.6853 59.7385 22.9181C59.9995 23.0981 60.098 23.2733 60.0635 23.3268Z" fill="#263238"/>
<path id="Vector_4" d="M59.5794 26.1233C59.594 26.3683 59.5153 26.6096 59.3596 26.7964C59.204 26.9832 58.9837 27.1011 58.7449 27.1252C58.6282 27.1417 58.5095 27.1342 58.3957 27.103C58.2819 27.0718 58.1754 27.0175 58.0824 26.9435C57.9895 26.8694 57.912 26.777 57.8546 26.6718C57.7972 26.5665 57.761 26.4506 57.7482 26.3308C57.732 26.0854 57.8103 25.8433 57.9662 25.6561C58.1221 25.469 58.3433 25.3515 58.5826 25.3289C58.6993 25.3123 58.8181 25.3198 58.9319 25.3511C59.0457 25.3823 59.1522 25.4365 59.2451 25.5106C59.338 25.5846 59.4155 25.677 59.4729 25.7823C59.5303 25.8875 59.5665 26.0035 59.5794 26.1233Z" fill="#263238"/>
<path id="Vector_5" d="M51.7861 23.9498C51.6975 24.0569 51.0771 23.6579 50.2351 23.7065C49.3931 23.7552 48.8022 24.1931 48.7038 24.1104C48.6053 24.0277 48.7432 23.8817 49.0041 23.6725C49.3516 23.4035 49.7746 23.2471 50.2154 23.2248C50.6532 23.1971 51.0884 23.3098 51.4562 23.546C51.732 23.726 51.8305 23.9012 51.7861 23.9498Z" fill="#263238"/>
<path id="Vector_6" d="M55.1973 29.9494C55.6326 29.7836 56.0877 29.674 56.5514 29.6234C56.768 29.5893 56.965 29.5358 56.9945 29.3898C57.0019 29.1691 56.94 28.9515 56.8173 28.767C56.5809 28.2804 56.3249 27.7402 56.0836 27.1855C55.0693 24.9326 54.3208 23.0786 54.4095 23.0397C54.4981 23.0008 55.3943 24.7914 56.4184 27.0444C56.6646 27.5991 56.9108 28.1295 57.1226 28.6356C57.2708 28.8849 57.3281 29.1768 57.285 29.4628C57.2584 29.5403 57.2138 29.6106 57.1548 29.668C57.0958 29.7255 57.0241 29.7685 56.9453 29.7937C56.8293 29.8338 56.7084 29.8584 56.5858 29.8667C56.1279 29.9482 55.6618 29.976 55.1973 29.9494Z" fill="#263238"/>
<path id="Vector_7" d="M51.8496 21.3314C51.7758 21.5601 50.9288 21.5017 49.949 21.6769C48.9691 21.852 48.1862 22.1635 48.0434 21.9639C47.9794 21.8715 48.1074 21.6525 48.4127 21.4141C48.8269 21.1205 49.3034 20.924 49.8059 20.8397C50.3085 20.7554 50.8239 20.7854 51.3129 20.9275C51.6822 21.054 51.8792 21.2194 51.8496 21.3314Z" fill="#263238"/>
<path id="Vector_8" d="M59.6337 21.5888C59.5008 21.7835 58.9099 21.6229 58.2107 21.6521C57.5115 21.6813 56.9305 21.8516 56.7828 21.6521C56.7188 21.5596 56.7828 21.365 57.0438 21.1655C57.3774 20.9293 57.7757 20.7986 58.1861 20.7908C58.5974 20.7736 59.0038 20.8842 59.3482 21.1071C59.6042 21.3017 59.6978 21.4915 59.6337 21.5888Z" fill="#263238"/>
<path id="Vector_9" d="M43.5424 28.5381C43.5259 28.3382 43.4678 28.1437 43.3719 27.967C43.2759 27.7902 43.1441 27.6349 42.9847 27.5107C42.8253 27.3865 42.6417 27.2961 42.4454 27.2452C42.2491 27.1942 42.0443 27.1838 41.8437 27.2145C40.8293 27.3702 39.7264 28.0077 39.9135 30.0903C40.2483 33.7836 43.9314 32.6888 43.9314 32.5817C43.9314 32.4747 43.6951 30.0855 43.5424 28.5381Z" fill="#FFBF9D"/>
<path id="Vector_10" d="M43.0015 31.2635C43.0015 31.2635 42.9424 31.317 42.8341 31.3754C42.683 31.4553 42.5066 31.4744 42.3417 31.4289C41.9379 31.3219 41.5489 30.7282 41.4701 30.0664C41.4312 29.7501 41.4648 29.4291 41.5686 29.1273C41.5932 29.0093 41.6463 28.899 41.7235 28.8057C41.8007 28.7125 41.8996 28.6392 42.0118 28.592C42.0845 28.5665 42.164 28.5666 42.2366 28.5923C42.3093 28.6181 42.3708 28.6678 42.4106 28.7332C42.4746 28.8305 42.4549 28.9083 42.4746 28.9132C42.4943 28.9181 42.5485 28.8451 42.5042 28.6942C42.4763 28.604 42.417 28.5264 42.3367 28.4753C42.2269 28.4069 42.0942 28.3841 41.9675 28.412C41.8174 28.4562 41.6812 28.5375 41.5718 28.6482C41.4624 28.7589 41.3833 28.8953 41.3421 29.0446C41.2116 29.3789 41.166 29.7398 41.2092 30.0956C41.3027 30.8401 41.7508 31.5019 42.3023 31.609C42.4051 31.6292 42.5113 31.6261 42.6128 31.6C42.7143 31.5739 42.8084 31.5254 42.8882 31.4581C43.0015 31.3559 43.0162 31.2732 43.0015 31.2635Z" fill="#FF9A6C"/>
<path id="Vector_11" d="M40.9042 20.1146C41.077 20.3818 41.2221 20.6654 41.3375 20.9613C41.4725 21.2602 41.6848 21.5186 41.953 21.7107C42.3115 21.892 42.7243 21.9386 43.115 21.8421C43.5211 21.7642 43.9046 21.598 44.2377 21.3555C44.5062 21.1494 44.7507 20.9144 44.9664 20.6548C45.155 20.4 45.3641 20.1608 45.5918 19.9395C45.4717 20.2341 45.3056 20.5084 45.0994 20.7521C44.8931 21.0386 44.6479 21.2957 44.3706 21.516C44.0152 21.7813 43.6022 21.9612 43.1643 22.0416C42.7205 22.1502 42.2514 22.0858 41.8545 21.8615C41.5579 21.6469 41.3318 21.3508 41.2045 21.01C41.0675 20.7249 40.9666 20.4242 40.9042 20.1146Z" fill="#B9B8B6"/>
<path id="Vector_12" d="M41.0471 22.9723C41.2725 23.1412 41.5212 23.2772 41.7857 23.3762C42.0735 23.4663 42.3777 23.4929 42.677 23.4541C43.0443 23.3989 43.3953 23.2661 43.7061 23.0648C44.2706 22.6773 44.7496 22.1807 45.1143 21.605C45.2535 21.3553 45.4185 21.1204 45.6067 20.9043C45.5206 21.1827 45.3928 21.4467 45.2276 21.6877C44.893 22.3215 44.4081 22.8657 43.8144 23.274C43.4763 23.4952 43.0898 23.6336 42.6868 23.6779C42.3526 23.7143 42.0145 23.6692 41.702 23.5465C41.1998 23.3081 41.0225 22.9772 41.0471 22.9723Z" fill="#B9B8B6"/>
<path id="Vector_13" d="M52.6716 32.9551C52.5457 33.159 52.4754 33.3707 52.4628 33.5842C52.448 33.6852 52.4763 33.7867 52.5458 33.8817C52.6154 33.9767 52.7245 34.063 52.8659 34.1347C53.0123 34.2228 53.1952 34.2936 53.4016 34.342C53.6081 34.3904 53.833 34.4153 54.0605 34.4149C54.4708 34.4145 54.8673 34.34 55.1789 34.2048C55.4904 34.0697 55.6965 33.8828 55.7601 33.6776L55.9057 33.2131C55.0559 33.0902 52.7348 32.987 52.6716 32.9551Z" fill="#FF9A6C"/>
<path id="Vector_14" d="M55.2681 33.8595C55.2681 33.8595 55.1488 33.8595 54.9518 33.8692C54.6753 33.8824 54.3938 33.8824 54.1172 33.8692C53.7179 33.8497 53.3569 33.7843 53.1063 33.686C52.8078 33.5631 52.6657 33.4104 52.7071 33.2571C52.7191 33.1708 52.7916 33.0864 52.9196 33.0097L52.7952 33.0274C53.6817 33.0691 54.4593 33.1029 55.0089 33.1222C55.3045 33.1393 55.6052 33.1463 55.9057 33.143C55.6257 33.1093 55.3331 33.0866 55.0348 33.0756C54.4853 33.0434 53.718 33.0001 52.8315 32.9551H52.7486L52.7123 32.9776C52.5136 33.0969 52.429 33.2314 52.4685 33.3652C52.5079 33.4989 52.6699 33.6264 52.9352 33.7326C53.2263 33.8414 53.643 33.9106 54.0965 33.9254C54.3911 33.9334 54.688 33.9247 54.9726 33.8997C55.0792 33.893 55.18 33.8793 55.2681 33.8595Z" fill="#263238"/>
<path id="Vector_15" d="M30.5196 49.2441C30.1946 49.2441 25.5563 51.0738 24.3352 55.5699C23.114 60.0661 19.7805 76.5619 19.7805 76.5619L16.2402 81.4084C16.2402 81.4084 17.3875 90.2499 23.892 88.5663C23.892 88.5663 28.2349 89.3157 29.6185 84.9655C31.0022 80.6152 33.6857 67.6376 33.6857 67.6376L30.5196 49.2441Z" fill="#B9B8B6"/>
<path id="Vector_16" d="M41.3044 41.2207V45.3861L30.2207 49.3491L33.3931 81.6773L32.2207 98.5994C42.454 104.204 69.5275 103.125 71.2024 102.39C72.0743 102.366 72.2303 100.521 72.3731 99.3226C72.4963 98.2465 72.4025 97.1564 72.0973 96.1176L70.2598 89.638C70.5308 93.6704 69.3288 65.5826 69.2746 64.5572L71.9593 50.1071L64.3955 46.2877V42.9984L51.7033 46.2877L41.3044 41.2207Z" fill="#B9B8B6"/>
<path id="Vector_17" d="M72.0002 50.1035C72.0002 50.1035 74.5946 52.3124 75.0228 54.013C75.451 55.7137 84.7809 75.3053 84.7809 75.3053L89.4156 76.5172L90.6549 79.0096C91.3787 80.4387 91.5735 82.0659 91.2066 83.6179C90.8396 85.1699 89.9333 86.5521 88.6398 87.5323C88.4786 87.651 88.3104 87.7603 88.136 87.8597C85.6171 89.3258 81.1336 89.2476 78.5089 86.2471C76.0253 83.4029 68.7559 73.1795 68.7559 73.1795V60.669L72.0002 50.1035Z" fill="#B9B8B6"/>
<path id="Vector_18" d="M85.0077 75.0905C85.0077 75.1538 84.4513 75.0905 83.6339 75.363C82.5777 75.724 81.6424 76.3654 80.9307 77.217C80.2273 78.0871 79.6475 79.0481 79.2073 80.0733C79.0413 80.5126 78.8353 80.936 78.5918 81.3385C78.6575 80.8714 78.7901 80.4159 78.9857 79.9857C79.3726 78.9036 79.9438 77.8948 80.6746 77.0029C81.4219 76.1011 82.4332 75.4501 83.5699 75.1392C84.0346 74.9878 84.5335 74.9709 85.0077 75.0905Z" fill="#263238"/>
<path id="Vector_19" d="M63.7202 47.2207C63.3727 47.6901 62.9867 48.1246 62.567 48.5189C61.8346 49.2944 60.8322 50.379 59.7725 51.6153C59.5492 51.8795 59.3258 52.138 59.118 52.3909L58.9778 52.5538L58.848 52.3796C58.0273 51.2557 57.3156 50.2216 56.817 49.4855C56.5242 49.1113 56.2748 48.6999 56.0742 48.2604C56.419 48.5791 56.7292 48.9392 56.9988 49.3337C57.5442 50.0306 58.2922 51.0196 59.1232 52.1436H58.8583L59.5076 51.3625C60.4204 50.295 61.3844 49.2802 62.3956 48.3222C62.7941 47.8981 63.2389 47.5282 63.7202 47.2207Z" fill="#263238"/>
<path id="Vector_20" d="M31.214 57.6602C31.3045 57.875 31.3658 58.1009 31.3962 58.3317C31.4898 58.7696 31.608 59.4071 31.736 60.1953C31.992 61.7719 32.2628 63.9616 32.4893 66.3849C32.7158 68.8082 32.8833 71.0076 33.0113 72.5988C33.0605 73.3384 33.1098 73.9661 33.1442 74.4819C33.1751 74.7129 33.1751 74.9468 33.1442 75.1778C33.074 74.9561 33.0278 74.7278 33.0064 74.4965C32.9374 74.0537 32.8537 73.4114 32.7651 72.6182C32.578 71.0368 32.3712 68.8422 32.1447 66.419C31.9182 63.9957 31.6966 61.8109 31.5046 60.2537C31.411 59.519 31.3322 58.8913 31.2682 58.3803C31.2173 58.1438 31.1991 57.9015 31.214 57.6602Z" fill="#263238"/>
<path id="Vector_21" d="M69.7381 56.5566C69.8084 56.8323 69.8496 57.1144 69.8612 57.3985C69.9153 57.9483 69.9744 58.7366 70.0237 59.7195C70.1369 61.6659 70.1911 64.3909 70.2009 67.3786V77.3588C70.2168 77.6431 70.2052 77.9282 70.1665 78.2103C70.1027 77.9326 70.0713 77.6485 70.0729 77.3637C70.0335 76.8138 69.9941 76.0206 69.9646 75.0426C69.8957 73.0962 69.871 70.3712 69.8661 67.3835C69.8612 64.3958 69.8366 61.6854 69.7873 59.7293C69.7627 58.7999 69.743 58.0213 69.7282 57.4082C69.7049 57.1246 69.7082 56.8396 69.7381 56.5566Z" fill="#263238"/>
<path id="Vector_22" d="M26.217 84.6336C26.0629 84.0812 25.9494 83.5185 25.8772 82.95C25.6465 81.5921 25.2012 80.2784 24.5576 79.0572C23.9009 77.8599 22.914 76.8711 21.7116 76.2057C21.1945 75.9619 20.6596 75.7569 20.1113 75.5926C20.2736 75.5577 20.4415 75.5577 20.6037 75.5926C21.0303 75.6628 21.4447 75.7922 21.8347 75.977C23.1285 76.6146 24.1888 77.6352 24.8678 78.8966C25.5194 80.1499 25.9333 81.5105 26.089 82.9111C26.2049 83.4776 26.2479 84.0564 26.217 84.6336Z" fill="#263238"/>
<path id="Vector_23" d="M27.7965 78.0592C27.7275 78.137 26.7477 77.1395 25.1523 76.5994C23.557 76.0592 22.198 76.2441 22.1684 76.142C22.1389 76.0398 23.5816 75.7089 25.2606 76.2879C26.9397 76.867 27.8703 78.0202 27.7965 78.0592Z" fill="#263238"/>
<path id="Vector_24" d="M52.7846 100.671C52.7548 100.491 52.7416 100.309 52.7452 100.126C52.7452 99.7421 52.7452 99.2214 52.7107 98.5694C52.6812 97.1825 52.6418 95.2313 52.5926 92.8323C52.4793 87.9663 52.3217 81.2853 52.1445 73.9085C51.9672 66.5316 51.8737 59.8214 51.8835 54.9749C51.8835 52.5418 51.9081 50.5955 51.9377 49.233C51.9377 48.5809 51.9722 48.0603 51.9869 47.6758C51.9828 47.4934 51.996 47.3109 52.0263 47.1309C52.04 47.3123 52.04 47.4944 52.0263 47.6758C52.0263 48.0603 52.0263 48.5809 52.0263 49.233C52.0263 50.6198 52.0559 52.5759 52.0756 54.97C52.1248 59.836 52.2676 66.5073 52.435 73.8987C52.6024 81.2902 52.7501 87.9809 52.7895 92.8275C52.7895 95.2605 52.7895 97.2069 52.7895 98.5694C52.7895 99.2214 52.7895 99.7421 52.7649 100.126C52.784 100.307 52.7906 100.49 52.7846 100.671Z" fill="#263238"/>
<path id="Vector_25" d="M21.6559 77.5282C21.6559 77.4893 22.1483 77.8542 22.5422 78.662C22.7836 79.1224 22.9593 79.6137 23.0641 80.1218C23.1653 80.7667 23.1653 81.4232 23.0641 82.0682C22.9907 82.7141 22.797 83.3409 22.493 83.9173C22.2297 84.3845 21.8668 84.7897 21.4294 85.1046C21.0447 85.42 20.5604 85.5922 20.0605 85.5912C20.4933 85.4143 20.9032 85.1873 21.2817 84.9148C21.67 84.6002 21.9899 84.2112 22.2222 83.7713C22.4856 83.2209 22.6521 82.6301 22.7145 82.0244C22.8032 81.4177 22.8032 80.8015 22.7145 80.1948C22.63 79.6933 22.4862 79.2034 22.2862 78.735C21.9809 77.9613 21.6067 77.5574 21.6559 77.5282Z" fill="#263238"/>
<path id="Vector_26" d="M88.904 85.7477C88.904 85.7477 88.7464 85.7477 88.4953 85.6261C88.1428 85.4725 87.8118 85.2746 87.5105 85.0373C86.4787 84.252 85.773 83.121 85.5263 81.8573C85.2796 80.5937 85.509 79.2844 86.1712 78.1762C86.3641 77.8433 86.5991 77.5359 86.8704 77.2614C87.0624 77.0765 87.1855 76.9889 87.2003 77.0035C87.215 77.0181 86.8064 77.4561 86.378 78.2881C85.8052 79.3645 85.6203 80.6016 85.8539 81.7956C86.0875 82.9896 86.7256 84.0694 87.6631 84.8572C88.3672 85.4704 88.9286 85.6942 88.904 85.7477Z" fill="#263238"/>
<path id="Vector_27" d="M51.6531 46.4607C51.4565 47.1085 51.2079 47.7399 50.9096 48.3487C50.7767 48.6406 50.6388 48.9569 50.496 49.2829C50.3548 49.6544 50.1904 50.0168 50.0036 50.368C49.9325 50.4835 49.8291 50.5762 49.706 50.6349C49.5828 50.6936 49.445 50.7158 49.3094 50.6989C49.0709 50.6369 48.849 50.5239 48.6594 50.368L47.4974 49.5846C45.9118 48.5044 44.4888 47.5068 43.4647 46.7769C42.892 46.4071 42.3518 45.9904 41.8496 45.5312C42.4596 45.8351 43.0442 46.1866 43.5976 46.5823C44.6562 47.2684 46.1039 48.227 47.6894 49.3121L48.8465 50.1004C48.9974 50.2297 49.1733 50.3273 49.3635 50.3875C49.4411 50.3967 49.5198 50.3826 49.5892 50.347C49.6585 50.3115 49.7155 50.256 49.7525 50.188C50.1267 49.5165 50.4369 48.7915 50.7373 48.2416C50.9919 47.6238 51.2983 47.0281 51.6531 46.4607Z" fill="#263238"/>
</g>
<g id="Group 34">
<path id="Vector_28" d="M64.2381 45.5476C64.2381 45.5476 69.0496 34.1876 69.1164 29.2337C69.1832 24.2798 65.0026 20.6065 65.0026 20.6065C64.3524 17.4638 63.4312 14.3836 62.2493 11.4006C60.4156 6.94504 54.8771 0.0888415 53.3294 0.581823C51.7817 1.0748 51.0706 1.92145 51.0626 5.94032C51.0546 9.95919 50.5547 12.2794 50.5547 12.2794C50.5547 12.2794 46.9114 13.0832 45.7432 14.396C45.7432 14.396 44.9173 14.321 43.8935 13.4261C42.8697 12.5313 35.607 6.17074 33.5247 7.68183C31.4424 9.19293 32.1508 16.4215 33.7707 19.508C35.3905 22.5945 38.0475 26.5705 38.1358 26.9376C38.224 27.3046 37.1414 31.9103 37.7375 34.2814C38.3336 36.6525 40.047 39.6399 42.9285 41.8771C45.8101 44.1143 54.4226 49.4326 58.5284 48.4305C62.6342 47.4285 64.2381 45.5476 64.2381 45.5476Z" fill="#C7A302"/>
<path id="Vector_29" d="M64.0957 44.7145C64.0957 44.7145 68.8858 33.5648 68.9523 28.7027C69.0189 23.8405 64.8568 20.2352 64.8568 20.2352C64.2095 17.1507 63.2924 14.1275 62.1157 11.1998C60.2902 6.82673 54.7762 0.0975044 53.2354 0.581357C51.6945 1.06521 50.9866 1.89617 50.9787 5.84062C50.9707 9.78507 50.473 12.0623 50.473 12.0623C50.473 12.0623 46.8458 12.8512 45.6829 14.1397C45.6829 14.1397 44.8606 14.0661 43.8414 13.1878C42.8221 12.3095 35.5917 6.06677 33.5186 7.54988C31.4455 9.033 32.1508 16.1277 33.7634 19.1571C35.3761 22.1864 38.0213 26.0888 38.1092 26.4491C38.197 26.8093 37.1192 31.3297 37.7126 33.6569C38.3061 35.9841 40.0119 38.9161 42.8807 41.1119C41.4946 41.6574 51.5639 47.4563 58.4114 47.544C62.499 46.5605 64.0957 44.7145 64.0957 44.7145Z" fill="white"/>
<path id="Vector_30" d="M33.7695 19.1644C32.1568 16.1351 31.4622 9.04031 33.5247 7.5572C35.5871 6.07408 42.8255 12.3063 43.8474 13.1951C44.8693 14.0839 45.6889 14.1471 45.6889 14.1471C45.8142 14.0106 45.9533 13.8873 46.1041 13.7789C47.3353 14.6761 48.4343 15.7381 49.3694 16.9345C50.5862 18.4804 51.356 20.3234 51.5968 22.2674C51.6873 23.1378 51.6394 24.0608 51.1949 24.8207C50.6414 25.7648 49.5743 26.2933 48.5178 26.6063C44.8533 27.6949 37.8943 25.0285 39.813 33.4065C39.813 33.4065 41.314 37.2431 42.7111 39.6203C43.0703 40.233 43.3019 41.5768 43.5094 42.2499C43.2699 42.079 42.0431 42.4314 41.8515 42.2841C38.9801 40.0936 34.8845 37.372 35.6589 35.0973C36.8964 31.4632 38.219 26.8087 38.1205 26.4511C38.0221 26.0935 35.3822 22.1911 33.7695 19.1644Z" fill="#C7A302"/>
<g id="Group">
<path id="Vector_31" d="M34.0056 8.93539C34.498 8.60669 35.1606 8.78024 35.7035 9.01691C38.6553 10.3426 41.1761 12.453 42.9845 15.1124C42.9551 17.8995 42.1093 20.6185 40.5495 22.9408C40.3073 23.2984 39.9587 23.6876 39.5276 23.6298C39.3732 23.5872 39.2288 23.5149 39.1027 23.4169C38.9766 23.319 38.8714 23.1974 38.7931 23.0591C36.084 19.4329 34.0163 15.236 33.508 10.7551C33.4335 10.0977 33.4521 9.30617 34.0056 8.93539Z" fill="white"/>
</g>
<path id="Vector_32" d="M55.2248 20.6193C54.0192 19.0257 52.9202 17.3507 51.6002 15.8491C50.5792 14.6437 49.3536 13.6231 47.9783 12.8329C48.7926 12.5277 49.6265 12.2764 50.4745 12.0809C50.4745 12.0809 50.9722 9.81938 50.9802 5.85915C50.9881 1.89893 51.6987 1.07322 53.2369 0.599887C54.775 0.126553 60.2917 6.84527 62.1172 11.2183C63.1372 13.7424 63.9593 16.3403 64.5762 18.9889L64.5256 19.0126C63.3919 19.8015 62.4951 20.8744 61.3881 21.6948C60.281 22.5152 58.8253 23.0833 57.5187 22.631C56.5447 22.2733 55.8448 21.4371 55.2248 20.6193Z" fill="#C7A302"/>
<path id="Vector_33" d="M55.0193 25.7184C55.6459 25.2606 56.3496 24.9161 57.0977 24.7007C57.5555 24.5508 58.1143 24.4535 58.4736 24.7717C58.6078 24.911 58.6977 25.0861 58.7323 25.2754C58.7668 25.4647 58.7444 25.6599 58.6678 25.8367C58.5087 26.1886 58.2702 26.4998 57.9706 26.7466C57.6881 27.0465 57.3354 27.2732 56.9434 27.4066C56.2834 27.5854 55.9534 27.4645 55.3467 27.1594C55.066 27.0202 54.8063 26.8432 54.5749 26.6335C54.4073 26.4731 54.3833 26.0471 55.0193 25.7184Z" fill="#263238"/>
<path id="Vector_34" d="M52.1838 29.0031C53.2669 29.8315 53.5569 31.0095 53.8949 32.3217C54.2329 33.6339 54.4697 35.0066 55.2042 36.1479C55.9387 37.2891 57.3518 38.149 58.6637 37.7624C59.0183 37.6452 59.3458 37.4598 59.6276 37.217C59.9094 36.9742 60.1399 36.6788 60.3057 36.3477C60.6331 35.6822 60.8049 34.9524 60.8087 34.2124C60.8525 33.0785 60.6473 31.9487 60.2072 30.9005C59.7671 29.8524 59.1026 28.9109 58.2592 28.1406C57.885 28.1968 57.521 28.3066 57.1788 28.4667C56.8754 28.6665 55.1669 29.6711 53.9242 29.3713C52.6814 29.0715 52.1838 29.0031 52.1838 29.0031Z" fill="#FF8B7B"/>
<path id="Vector_35" d="M57.8264 33.3259C57.8652 33.0952 57.8652 32.8597 57.8264 32.629C57.7647 32.0675 57.6138 31.519 57.3793 31.0039C57.1484 30.4864 56.8378 30.0074 56.4585 29.5839C56.308 29.4018 56.1282 29.2455 55.9263 29.1211C55.9103 29.1395 56.1099 29.3183 56.3813 29.647C56.7309 30.0788 57.0225 30.5534 57.2489 31.0591C57.4777 31.5619 57.6379 32.0924 57.7252 32.6369C57.8077 33.0603 57.8077 33.3259 57.8264 33.3259Z" fill="#263238"/>
<path id="Vector_36" d="M50.2439 27.7902C50.2648 27.8372 50.2916 27.8814 50.3238 27.9217C50.4077 28.0408 50.505 28.1502 50.6139 28.2478C51.0268 28.601 51.5127 28.8612 52.0376 29.0103C52.3936 29.1214 52.7551 29.2145 53.1207 29.2891C53.5379 29.3964 53.967 29.452 54.3981 29.4548C55.3965 29.4488 56.3676 29.1323 57.1737 28.5502C57.3727 28.4034 57.5986 28.2962 57.839 28.2346C58.0732 28.1873 58.326 28.2346 58.5815 28.1846C58.8231 28.141 59.0522 28.0457 59.2526 27.9053C59.4531 27.7649 59.62 27.5829 59.7417 27.3721C59.9752 27.0032 60.0979 26.5765 60.0957 26.1414C60.0914 25.7657 60.0081 25.3949 59.8508 25.0528C59.6266 24.5578 59.2672 24.1344 58.813 23.83C58.6888 23.7498 58.5579 23.6803 58.4218 23.6222C58.3757 23.601 58.3275 23.5842 58.2781 23.5723C58.2781 23.5723 58.4723 23.659 58.781 23.8747C59.2115 24.1858 59.5497 24.6054 59.7604 25.0896C59.9043 25.4221 59.9794 25.7797 59.9812 26.1414C59.977 26.5538 59.8573 26.9571 59.6353 27.3063C59.5223 27.4989 59.3688 27.6652 59.1852 27.794C59.0015 27.9229 58.792 28.0113 58.5708 28.0532C58.3419 28.0926 58.0891 28.0532 57.823 28.1005C57.5647 28.166 57.3216 28.2803 57.1072 28.4371C56.3231 29.0037 55.38 29.3152 54.4087 29.3285C53.9863 29.3287 53.5654 29.2784 53.1553 29.1786C52.7641 29.0971 52.3995 29.0156 52.0775 28.9157C51.561 28.7795 51.0789 28.5386 50.6618 28.2083C50.5147 28.0767 50.3753 27.9371 50.2439 27.7902Z" fill="#263238"/>
<path id="Vector_37" d="M57.5261 28.2815C57.698 28.0858 57.7883 27.833 57.7789 27.5741C57.8074 27.3159 57.7382 27.0565 57.5846 26.8457C57.542 26.8615 57.6565 27.1744 57.6405 27.5662C57.6245 27.958 57.4862 28.2631 57.5261 28.2815Z" fill="#263238"/>
<g id="Group_2">
<path id="Vector_38" d="M47.1133 18.8964C47.7313 18.7663 48.3727 18.7953 48.9761 18.9805C49.0886 19.0049 49.1944 19.053 49.2862 19.1215C49.3781 19.1901 49.4539 19.2774 49.5084 19.3776C49.6335 19.7063 49.3274 20.0376 49.0294 20.2296C48.4598 20.5913 47.8093 20.8098 47.1346 20.866C46.8955 20.8952 46.6529 20.8764 46.4214 20.8108C46.3062 20.7775 46.1993 20.7208 46.1077 20.6442C46.016 20.5677 45.9416 20.473 45.8892 20.3663C45.8308 20.1956 45.8249 20.0115 45.8722 19.8374C45.9196 19.6633 46.0181 19.507 46.1553 19.3881C46.4321 19.1517 46.7543 18.9729 47.1027 18.8622" fill="white"/>
</g>
<g id="Group_3">
<path id="Vector_39" d="M62.6492 17.7534C60.0831 15.7355 57.309 13.9903 54.3729 12.5467C53.9409 12.3686 53.5478 12.1097 53.2153 11.7841C52.8321 11.3502 52.699 10.7638 52.5793 10.2063C52.1349 8.13153 51.6904 5.95945 52.2653 3.91623C52.4675 3.19834 52.9279 2.41208 53.681 2.35686C54.1574 2.32004 54.5938 2.59352 54.9743 2.88278C57.6861 4.93916 59.2801 8.08419 60.7864 11.1188C61.8003 13.1646 62.8355 15.2841 62.9473 17.5614" fill="white"/>
</g>
<g id="Group_4">
<path id="Vector_40" d="M56.0813 16.0902C56.6993 15.9595 57.3409 15.9885 57.9442 16.1743C58.059 16.1969 58.1674 16.2442 58.2617 16.3128C58.356 16.3815 58.4338 16.4697 58.4897 16.5714C58.6175 16.9001 58.3114 17.2314 58.0134 17.4234C57.4436 17.7847 56.7932 18.0032 56.1186 18.0598C55.8795 18.089 55.6369 18.0702 55.4054 18.0045C55.2904 17.971 55.1836 17.9142 55.092 17.8376C55.0004 17.7611 54.9258 17.6666 54.8732 17.5601C54.8155 17.3893 54.81 17.2054 54.8573 17.0315C54.9046 16.8575 55.0027 16.7012 55.1393 16.5819C55.4158 16.345 55.7381 16.1661 56.0867 16.056" fill="white"/>
</g>
<path id="Vector_41" d="M55.5398 6.55859C55.5212 6.577 55.8538 6.91359 56.285 7.53682C56.5364 7.90056 56.7605 8.282 56.9556 8.67808C57.4357 9.65198 57.7358 10.7028 57.8418 11.781C57.8839 12.218 57.8946 12.6574 57.8737 13.0959C57.8338 13.8479 57.73 14.3081 57.7566 14.3134C57.7976 14.2099 57.827 14.1023 57.8444 13.9926C57.8742 13.8668 57.8973 13.7395 57.9136 13.6113C57.9322 13.4614 57.9642 13.2905 57.9722 13.1011C58.0093 12.6557 58.0093 12.208 57.9722 11.7626C57.878 10.6694 57.5717 9.60431 57.07 8.62549C56.8671 8.22657 56.6312 7.84485 56.3648 7.48423C56.2557 7.32645 56.1413 7.19496 56.0455 7.07926C55.9622 6.97807 55.8734 6.8815 55.7793 6.79C55.7084 6.70438 55.628 6.62677 55.5398 6.55859Z" fill="#263238"/>
<path id="Vector_42" d="M47.7488 23.4411C47.7536 23.6762 47.8289 23.9046 47.9651 24.0975C48.1013 24.2903 48.2924 24.4389 48.5141 24.5244C48.7358 24.6099 48.9782 24.6285 49.2106 24.5778C49.443 24.5271 49.655 24.4095 49.8197 24.2397C49.9844 24.07 50.0944 23.8557 50.1359 23.6242C50.1774 23.3926 50.1484 23.1541 50.0526 22.9388C49.9568 22.7235 49.7986 22.5411 49.5978 22.4147C49.3971 22.2884 49.163 22.2236 48.9251 22.2288C48.7672 22.2319 48.6115 22.2657 48.4669 22.3283C48.3223 22.3909 48.1917 22.4811 48.0824 22.5938C47.9731 22.7064 47.8874 22.8392 47.8302 22.9846C47.7729 23.13 47.7453 23.2851 47.7488 23.4411Z" fill="#263238"/>
<path id="Vector_43" d="M56.9051 20.2829C56.9099 20.518 56.9851 20.7464 57.1214 20.9393C57.2576 21.1321 57.4487 21.2807 57.6704 21.3662C57.8921 21.4517 58.1345 21.4703 58.3669 21.4196C58.5993 21.3689 58.8112 21.2513 58.9759 21.0815C59.1407 20.9118 59.2507 20.6975 59.2922 20.466C59.3336 20.2344 59.3046 19.9959 59.2088 19.7806C59.1131 19.5653 58.9548 19.3829 58.7541 19.2565C58.5534 19.1301 58.3193 19.0654 58.0813 19.0706C57.7627 19.0775 57.46 19.209 57.2394 19.4363C57.0189 19.6636 56.8987 19.9681 56.9051 20.2829Z" fill="#263238"/>
<path id="Vector_44" d="M34.2506 10.9336C34.2848 10.9749 34.3222 11.0136 34.3624 11.0493L34.695 11.3649C34.9851 11.6278 35.4002 12.038 35.8925 12.5534C37.1801 13.9019 38.3283 15.3739 39.3201 16.9476L39.3973 17.0712L39.4452 16.9344C39.4665 16.8687 39.4931 16.7977 39.5171 16.7267C39.7486 16.0745 39.9695 15.4408 40.1797 14.8465H40.0546C40.6673 16.1649 41.0144 17.5886 41.0765 19.0381C41.0945 19.4606 41.0892 19.8837 41.0606 20.3056C41.0436 20.4575 41.0356 20.6103 41.0366 20.7632C41.0504 20.726 41.0584 20.687 41.0606 20.6475C41.0606 20.5712 41.0925 20.4581 41.1085 20.3109C41.1532 19.8873 41.1709 19.4613 41.1617 19.0355C41.1279 17.5694 40.7929 16.1255 40.1771 14.7913L40.1079 14.6414L40.052 14.7965L39.3867 16.6767L39.3148 16.8845L39.4372 16.8713C38.4422 15.2888 37.277 13.8173 35.9617 12.4824C35.4588 11.9749 35.033 11.5831 34.7323 11.3202C34.5832 11.1887 34.4661 11.0914 34.381 11.023C34.3416 10.9878 34.2977 10.9578 34.2506 10.9336Z" fill="#263238"/>
</g>
<g id="Group 35">
<path id="Vector_45" d="M92.7724 72.7099C84.1681 76.1645 83.6463 90.0161 95.684 83.1144C97.4644 81.8054 99.4546 80.7442 101.018 79.1879C101.305 80.2853 102.69 80.8689 103.776 80.5075C104.862 80.1462 105.586 79.0476 105.726 77.9218C105.812 76.7822 105.548 75.6436 104.968 74.6548C104.07 72.9557 102.535 71.4577 100.626 71.0527C98.8757 70.6805 94.4673 72.1309 92.7724 72.7099Z" fill="#C7A302"/>
<path id="Vector_46" d="M101.272 77.5317C101.294 77.5187 101.508 77.6675 101.903 77.843C102.413 78.0727 102.965 78.1935 103.525 78.1975C104.085 78.2016 104.64 78.0888 105.153 77.8666C105.551 77.6986 105.773 77.5423 105.787 77.5669C105.625 77.7414 105.426 77.8798 105.206 77.9728C104.685 78.2329 104.109 78.3664 103.525 78.3622C102.941 78.358 102.367 78.2161 101.85 77.9485C101.63 77.8504 101.433 77.7086 101.272 77.5317Z" fill="#263238"/>
<path id="Vector_47" d="M100.179 75.3957C100.199 75.3843 100.449 75.5004 100.899 75.6176C101.482 75.7679 102.09 75.7978 102.685 75.7055C103.278 75.6058 103.844 75.3851 104.346 75.0575C104.735 74.8058 104.938 74.6007 104.959 74.6221C104.816 74.8339 104.631 75.0149 104.415 75.1539C103.915 75.5228 103.332 75.7675 102.716 75.8674C102.1 75.9673 101.469 75.9195 100.876 75.728C100.623 75.6667 100.385 75.5535 100.179 75.3957Z" fill="#263238"/>
</g>
<g id="Group 36">
<path id="Vector_48" d="M15.1529 72.0811C24.7194 75.922 25.2995 91.3225 11.9158 83.6491C9.93621 82.1937 7.72352 81.0138 5.98505 79.2834C5.66655 80.5036 4.12606 81.1524 2.9187 80.7506C1.71133 80.3489 0.906647 79.1275 0.751171 77.8757C0.655395 76.6088 0.948994 75.3428 1.59351 74.2435C2.59145 72.3543 4.29837 70.6889 6.42099 70.2386C8.36709 69.8247 13.2685 71.4373 15.1529 72.0811Z" fill="#C7A302"/>
<path id="Vector_49" d="M5.70436 77.4414C5.6797 77.4268 5.44198 77.5923 5.00249 77.7875C4.436 78.0428 3.82135 78.1771 3.19873 78.1816C2.57612 78.1861 1.95954 78.0607 1.38933 77.8136C0.94631 77.6269 0.700275 77.4531 0.683734 77.4805C0.864559 77.6745 1.08504 77.8283 1.33057 77.9318C1.90972 78.221 2.55036 78.3694 3.19924 78.3647C3.84813 78.36 4.4865 78.2023 5.06128 77.9047C5.30566 77.7957 5.52461 77.6379 5.70436 77.4414Z" fill="#263238"/>
<path id="Vector_50" d="M6.92236 75.0672C6.90078 75.0545 6.62235 75.1836 6.12175 75.3138C5.47388 75.481 4.79809 75.5142 4.13661 75.4116C3.47717 75.3008 2.84832 75.0554 2.29016 74.6911C1.85735 74.4113 1.63146 74.1833 1.60876 74.2071C1.76752 74.4426 1.97307 74.6437 2.21291 74.7984C2.7691 75.2085 3.41687 75.4805 4.10167 75.5916C4.78647 75.7026 5.48825 75.6495 6.14793 75.4366C6.42943 75.3685 6.69328 75.2426 6.92236 75.0672Z" fill="#263238"/>
</g>
</g>
</svg>
