<svg width="30" height="30" viewBox="0 0 30 30" fill="none" xmlns="http://www.w3.org/2000/svg">
<g id="&#209;&#135;&#208;&#176;&#209;&#129;&#209;&#139;">
<g id="Group 29">
<path id="Vector" d="M27.8319 17.1681C29.0293 10.0812 24.2549 3.36543 17.1681 2.16805C10.0812 0.970665 3.36544 5.74505 2.16806 12.8319C0.970672 19.9188 5.74506 26.6346 12.8319 27.8319C19.9188 29.0293 26.6346 24.2549 27.8319 17.1681Z" fill="#FFD000" stroke="#3C474C" stroke-linecap="round" stroke-linejoin="round"/>
<path id="Vector_2" d="M15.5243 26.2073C21.8135 26.0187 26.759 20.7673 26.5703 14.478C26.3817 8.1888 21.1303 3.24331 14.841 3.43199C8.55181 3.62067 3.60632 8.87206 3.795 15.1613C3.98368 21.4505 9.23507 26.396 15.5243 26.2073Z" fill="white" stroke="#3C474C" stroke-width="1.00045" stroke-linecap="round" stroke-linejoin="round"/>
<path id="Vector_3" d="M20.2946 17.7928L15.1886 14.7776L13.5625 24.5723" stroke="#3C474C" stroke-linecap="round" stroke-linejoin="round"/>
<path id="Vector_4" d="M14.6667 14.3035C14.574 14.4064 14.5138 14.5345 14.4937 14.6715C14.4737 14.8086 14.4946 14.9485 14.5539 15.0736C14.6132 15.1988 14.7083 15.3036 14.827 15.3749C14.9458 15.4461 15.083 15.4806 15.2214 15.474C15.3597 15.4675 15.493 15.4201 15.6045 15.3379C15.7159 15.2556 15.8006 15.1423 15.8477 15.012C15.8949 14.8818 15.9024 14.7405 15.8694 14.606C15.8364 14.4715 15.7644 14.3497 15.6623 14.2561C15.5238 14.1308 15.3413 14.0654 15.1547 14.0743C14.9681 14.0832 14.7927 14.1656 14.6667 14.3035Z" fill="#FFD000" stroke="#3C474C" stroke-linecap="round" stroke-linejoin="round"/>
</g>
</g>
</svg>
