<?xml version="1.0" standalone="no"?>
<!DOCTYPE svg PUBLIC "-//W3C//DTD SVG 20010904//EN"
 "http://www.w3.org/TR/2001/REC-SVG-20010904/DTD/svg10.dtd">
<svg version="1.0" xmlns="http://www.w3.org/2000/svg"
 width="1024.000000pt" height="1024.000000pt" viewBox="0 0 1024.000000 1024.000000"
 preserveAspectRatio="xMidYMid meet">
<metadata>
Created by potrace 1.14, written by Peter Selinger 2001-2017
</metadata>
<g transform="translate(0.000000,1024.000000) scale(0.100000,-0.100000)"
fill="#000000" stroke="none">
<path d="M2253 10229 c-299 -27 -572 -105 -858 -244 -198 -97 -352 -196 -520
-335 -38 -32 -230 -222 -276 -275 -68 -77 -174 -225 -236 -328 -204 -340 -316
-680 -353 -1072 -14 -150 -14 -5546 0 -5705 41 -468 213 -917 493 -1285 152
-199 355 -395 557 -536 320 -224 671 -362 1080 -426 109 -17 276 -18 2980 -18
3184 0 2924 -5 3220 66 372 89 727 269 1024 519 133 112 327 324 428 470 249
359 397 764 438 1205 14 150 14 5546 0 5705 -41 468 -213 917 -493 1285 -152
199 -355 395 -557 536 -316 221 -655 356 -1070 426 -99 16 -278 18 -2935 19
-1557 1 -2871 -2 -2922 -7z m5712 -159 c686 -63 1295 -415 1694 -978 223 -315
372 -721 411 -1121 14 -145 14 -5546 -1 -5701 -91 -1005 -825 -1837 -1809
-2054 -264 -58 -129 -56 -3125 -56 -1782 0 -2789 4 -2860 10 -686 63 -1295
415 -1694 978 -223 315 -372 721 -411 1121 -14 145 -14 5546 1 5701 91 1005
824 1837 1810 2054 251 56 123 53 3109 55 1801 1 2803 -3 2875 -9z"/>
<path d="M3690 7789 c-871 -32 -1349 -76 -2303 -211 -271 -38 -297 -43 -297
-61 0 -10 31 -209 69 -440 120 -731 218 -1341 287 -1792 24 -159 56 -362 70
-450 14 -88 32 -203 40 -255 8 -52 19 -122 24 -155 12 -74 155 -1004 180
-1175 31 -209 89 -581 101 -648 l11 -62 32 5 c315 54 907 125 1259 152 43 3
80 10 83 14 5 8 -76 1148 -102 1435 l-6 71 63 6 c95 10 418 26 729 37 335 12
491 30 715 86 426 106 761 286 1000 535 72 75 205 241 205 255 0 3 13 24 29
47 42 62 104 189 145 301 171 457 148 976 -62 1381 -70 134 -257 354 -397 468
-255 206 -661 374 -1045 431 -244 37 -397 41 -830 25z m145 -1094 c304 -44
465 -141 574 -345 95 -178 102 -440 15 -612 -32 -63 -119 -172 -177 -222 -82
-70 -233 -137 -407 -181 -77 -19 -149 -27 -380 -39 -157 -9 -311 -19 -342 -22
l-57 -6 -5 44 c-11 80 -109 1348 -105 1352 2 2 108 13 234 24 283 24 516 27
650 7z"/>
<path d="M6476 7518 c-3 -24 -8 -86 -11 -138 -3 -52 -12 -205 -20 -340 -8
-135 -24 -405 -35 -600 -11 -195 -34 -573 -50 -840 -104 -1710 -107 -1770 -89
-1770 86 0 530 -43 890 -86 l56 -6 23 163 c12 90 33 243 45 339 13 96 36 271
51 389 l28 213 71 -7 c38 -3 90 -10 115 -15 25 -5 95 -16 155 -25 61 -9 178
-29 260 -43 132 -23 178 -26 380 -26 248 0 323 10 525 70 382 116 715 433 833
794 65 198 72 243 72 440 -1 225 -18 305 -102 478 -183 376 -560 648 -1073
775 -253 63 -947 172 -1340 211 -116 12 -756 66 -776 66 -1 0 -5 -19 -8 -42z
m1399 -933 c260 -40 306 -52 423 -108 137 -65 223 -160 263 -288 51 -165 -11
-393 -139 -510 -92 -84 -163 -113 -323 -129 -95 -10 -154 -6 -379 30 -36 5
-104 16 -153 23 -48 8 -90 17 -93 20 -5 5 102 851 122 965 5 24 11 32 28 32
11 0 125 -16 251 -35z"/>
</g>
</svg>
