<svg width="121" height="120" viewBox="0 0 121 120" fill="none" xmlns="http://www.w3.org/2000/svg">
<g clip-path="url(#clip0_896_21760)">
<path d="M1.08467 83.2746C1.08467 83.2746 -0.430062 83.9544 1.41663 87.2618C3.26333 90.5692 4.51003 92.19 4.51003 92.19C4.51003 92.19 4.84691 92.9509 4.21004 93.1183C3.57316 93.2857 2.14449 93.1183 1.8986 93.9426C1.6527 94.7669 2.27482 95.5633 3.51169 96.1974C4.74855 96.8315 7.40917 98.3229 7.65015 98.4599C7.89113 98.5968 8.14195 98.9468 7.71408 99.1244C7.28622 99.3019 4.12643 99.8143 4.45102 101.351C4.7756 102.888 8.50342 104.068 8.90915 104.207C9.31489 104.347 9.41816 104.512 9.40095 104.737C9.38374 104.963 8.29932 105.034 7.40425 105.217C6.50918 105.399 5.50101 105.775 5.7592 106.645C6.01739 107.515 8.2772 109.255 13.5665 109.508L16.0254 109.463L17.2549 107.253C19.6082 102.361 19.2344 99.4795 18.6221 98.8226C18.0098 98.1656 17.2033 98.8911 16.6131 99.6114C16.023 100.332 15.4402 101.27 15.2386 101.179C15.0369 101.088 14.9435 100.913 15.0222 100.481C15.1009 100.05 15.9123 96.1163 14.7763 95.0764C13.6402 94.0364 11.6583 96.6464 11.3067 96.9355C10.955 97.2247 10.7706 96.8315 10.7731 96.5525C10.7755 96.2735 10.8026 93.1487 10.8665 91.7334C10.9304 90.3181 10.5911 89.3695 9.74028 89.1818C8.88947 88.9941 8.3608 90.3663 7.91818 90.866C7.47557 91.3656 6.98623 90.6859 6.98623 90.6859C6.98623 90.6859 6.21903 88.7735 4.31332 85.5016C2.40761 82.2296 1.06746 83.3 1.06746 83.3" fill="#EBEBEB"/>
<path d="M16.2822 110.221C14.862 107.769 12.413 103.367 10.2902 99.6001C8.16739 95.8334 6.24534 92.4255 4.84018 89.9651C4.1351 88.7388 3.56801 87.7449 3.17156 87.0555L2.71739 86.263L2.60197 86.0564L2.56433 85.9841C2.56433 85.9841 2.5819 86.0074 2.6095 86.0513C2.6371 86.0951 2.67975 86.1674 2.73245 86.2552L3.19665 87.0297C3.60063 87.7113 4.17775 88.7001 4.88786 89.9264C6.30556 92.379 8.23765 95.7843 10.3579 99.5485C12.4782 103.313 14.9222 107.722 16.3298 110.183" fill="#E0E0E0"/>
<path d="M3.94141 94.5381C3.99813 94.5447 4.05397 94.5575 4.10792 94.5762C4.21497 94.6048 4.3696 94.6501 4.55752 94.7097C4.93576 94.8266 5.45196 95.003 6.0205 95.2056L7.47159 95.7325L7.91168 95.8994C7.96668 95.9159 8.02004 95.9374 8.07106 95.9638C8.01353 95.9588 7.95681 95.9468 7.90216 95.928C7.79511 95.8994 7.64287 95.8517 7.45494 95.7921C7.0767 95.6705 6.56288 95.4894 5.99434 95.2843L4.54087 94.7693L4.10079 94.6144C4.04471 94.5957 3.99118 94.57 3.94141 94.5381Z" fill="#E0E0E0"/>
<path d="M8.07175 95.251C8.05398 95.251 8.34719 94.1218 8.72705 92.7461C9.1069 91.3704 9.429 90.2561 9.44677 90.261C9.46454 90.2659 9.17132 91.3902 8.79147 92.7683C8.41162 94.1465 8.08952 95.2559 8.07175 95.251Z" fill="#E0E0E0"/>
<path d="M10.8243 101.667C10.8474 101.607 10.8746 101.55 10.9056 101.496L11.141 101.052C11.3399 100.673 11.6117 100.151 11.8941 99.5602C12.1766 98.9689 12.4205 98.423 12.5938 98.0288L12.8078 97.5574C12.8304 97.4983 12.8577 97.4421 12.8891 97.3896C12.8754 97.4534 12.856 97.515 12.8313 97.5734C12.7885 97.6879 12.7265 97.8531 12.6452 98.0555C12.4826 98.4576 12.2451 99.0089 11.9605 99.6028C11.6759 100.197 11.3977 100.713 11.188 101.084C11.0832 101.267 10.9976 101.416 10.9355 101.515C10.9035 101.571 10.8661 101.622 10.8243 101.667Z" fill="#E0E0E0"/>
<path d="M8.75909 106.662C8.83099 106.655 8.90338 106.655 8.97527 106.662L9.56664 106.678C10.0636 106.693 10.7543 106.721 11.5147 106.757C12.275 106.793 12.9633 106.829 13.4602 106.86L14.0516 106.898C14.1234 106.901 14.1948 106.91 14.2653 106.924C14.1935 106.932 14.121 106.932 14.0491 106.924L13.4578 106.908C12.9608 106.891 12.27 106.865 11.5097 106.829C10.7494 106.793 10.0611 106.754 9.56415 106.726L8.97527 106.685C8.90275 106.683 8.83048 106.675 8.75909 106.662Z" fill="#E0E0E0"/>
<path d="M14.2651 106.657C14.2912 106.586 14.3238 106.517 14.3624 106.452C14.443 106.317 14.5497 106.142 14.6754 105.927C14.9386 105.484 15.3014 104.873 15.6808 104.185C16.0602 103.496 16.3922 102.866 16.6293 102.406C16.7408 102.184 16.8356 102.001 16.9068 101.862C16.9377 101.793 16.975 101.728 17.0182 101.667C16.9956 101.738 16.9671 101.807 16.9329 101.874C16.876 102.006 16.7882 102.196 16.6744 102.43C16.4515 102.894 16.129 103.532 15.7472 104.221C15.3654 104.909 14.9979 105.521 14.7228 105.956C14.5853 106.175 14.4714 106.349 14.3884 106.469C14.3523 106.535 14.3111 106.598 14.2651 106.657Z" fill="#E0E0E0"/>
<path fill-rule="evenodd" clip-rule="evenodd" d="M69.3542 20.2764C69.4173 20.9821 69.3882 21.6934 69.2677 22.391L70.7653 23.5943L69.4432 26.5385L67.5898 26.1237C67.1514 26.6693 66.6444 27.1515 66.0823 27.5574L66.3295 29.5031L63.3813 30.6168L62.3582 28.968C61.6761 29.0312 60.9888 29.0002 60.3145 28.8759L59.1457 30.4273L56.3013 29.0551L56.7016 27.135C56.1759 26.6817 55.7112 26.1573 55.3202 25.5759L53.4397 25.8319L52.3647 22.7802L53.9561 21.7228C53.893 21.0171 53.9221 20.3058 54.0426 19.6082L52.55 18.3947L53.8721 15.4505L55.7255 15.8652C56.1632 15.319 56.6703 14.8368 57.233 14.4316L56.9858 12.4833L59.934 11.3696L60.9645 13.0184C61.6466 12.9552 62.3339 12.9862 63.0082 13.1105L64.1672 11.5565L67.0115 12.9288L66.6112 14.8463C67.1364 15.3011 67.601 15.8263 67.9926 16.408L69.8732 16.152L70.9481 19.2037L69.3542 20.2687V20.2764ZM64.8665 19.9307C64.6379 19.2842 64.2295 18.7224 63.6929 18.3161C63.1563 17.9098 62.5156 17.6774 61.8515 17.6481C61.1875 17.6188 60.53 17.794 59.962 18.1515C59.394 18.509 58.941 19.0329 58.6602 19.6569C58.3793 20.2809 58.2832 20.9772 58.384 21.6578C58.4848 22.3383 58.778 22.9727 59.2265 23.4808C59.6751 23.9889 60.2589 24.3479 60.9042 24.5126C61.5495 24.6772 62.2275 24.6401 62.8525 24.4059C63.2691 24.2501 63.6519 24.0106 63.9788 23.701C64.3058 23.3915 64.5705 23.018 64.7576 22.6021C64.9448 22.1863 65.0508 21.7361 65.0695 21.2777C65.0881 20.8192 65.0192 20.3615 64.8665 19.9307Z" fill="#E0E0E0"/>
<path fill-rule="evenodd" clip-rule="evenodd" d="M93.2036 17.8609C93.253 18.4109 93.2301 18.9652 93.1357 19.5088L94.3033 20.4448L93.274 22.7393L91.832 22.4148C91.4904 22.8391 91.0962 23.2147 90.6595 23.5319L90.8464 25.0414L88.5524 25.9095L87.7537 24.6238C87.223 24.6736 86.6883 24.6499 86.1637 24.5533L85.2606 25.761L83.0491 24.6942L83.3598 23.1998C82.9506 22.8463 82.5889 22.4376 82.2844 21.9845L80.8278 22.1783L79.983 19.8158L81.2235 18.9855C81.1754 18.4363 81.1982 17.883 81.2915 17.3401L80.1263 16.4041L81.1556 14.1096L82.5975 14.4341C82.9385 14.0092 83.3329 13.6335 83.77 13.317L83.5831 11.8075L85.8772 10.9395L86.6759 12.2251C87.2066 12.1753 87.7413 12.199 88.2659 12.2956L89.169 11.0854L91.3805 12.1547L91.0698 13.6491C91.479 14.0027 91.8406 14.4114 92.1452 14.8644L93.6017 14.6706L94.4368 17.0457L93.1963 17.8735L93.2036 17.8609ZM89.7128 17.6093C89.5377 17.103 89.2215 16.6621 88.8042 16.3423C88.387 16.0226 87.8875 15.8385 87.3692 15.8135C86.8508 15.7884 86.337 15.9234 85.8928 16.2015C85.4486 16.4795 85.0941 16.888 84.8743 17.3752C84.6545 17.8623 84.5792 18.4062 84.6581 18.9377C84.7369 19.4693 84.9663 19.9646 85.3172 20.3608C85.668 20.757 86.1245 21.0363 86.6288 21.1633C87.133 21.2902 87.6623 21.259 88.1494 21.0738C88.8011 20.8276 89.3318 20.3233 89.6249 19.6718C89.9181 19.0203 89.9497 18.2749 89.7128 17.5992V17.6093Z" fill="#EBEBEB"/>
<path fill-rule="evenodd" clip-rule="evenodd" d="M78.5886 37.7316C78.6294 38.2033 78.6096 38.6786 78.5298 39.1449L79.5293 39.9467L78.6474 41.9157L77.4225 41.6366C77.1292 42.0003 76.7906 42.3219 76.4156 42.5932L76.5748 43.8949L74.6149 44.6383L73.9289 43.5371C73.4734 43.5797 73.0144 43.5584 72.5644 43.4737L71.7902 44.5114L69.8916 43.5955L70.1586 42.3268C69.8076 42.0239 69.497 41.6741 69.235 41.2865L67.9807 41.4514L67.2629 39.4215L68.3261 38.711C68.2854 38.2393 68.3052 37.7641 68.3849 37.2977L67.3829 36.4959L68.2673 34.5295L69.4922 34.806C69.7855 34.4424 70.1241 34.1207 70.4991 33.8495L70.3399 32.5503L72.2998 31.8069L72.9858 32.9081C73.4412 32.8659 73.9001 32.8864 74.3503 32.969L75.1245 31.9312L77.0231 32.8472L76.7561 34.1286C77.1071 34.4324 77.4177 34.783 77.6797 35.1714L78.934 35.004L79.6518 37.0338L78.5886 37.7316ZM75.59 37.5058C75.4359 37.0744 75.1618 36.7 74.8024 36.4299C74.443 36.1598 74.0143 36.0061 73.5705 35.9881C73.1268 35.9702 72.6879 36.0889 72.3092 36.3292C71.9306 36.5695 71.6292 36.9207 71.4432 37.3383C71.2571 37.7559 71.1947 38.2213 71.2639 38.6756C71.3331 39.13 71.5307 39.5529 71.8319 39.8909C72.133 40.2289 72.5241 40.467 72.9558 40.5749C73.3875 40.6828 73.8404 40.6559 74.2572 40.4973C74.8157 40.2843 75.2697 39.8504 75.5196 39.2909C75.7694 38.7315 75.7948 38.0922 75.59 37.5134V37.5058Z" fill="#F5F5F5"/>
<path opacity="0.5" d="M120.5 108.857C120.5 108.891 82.7843 108.785 39.7084 108.785C-3.36749 108.785 0.942101 108.891 0.942101 108.857C0.942101 108.823 -3.38371 108.659 39.7084 108.659C82.8005 108.659 120.5 108.82 120.5 108.857Z" fill="#263238"/>
<path d="M67.7487 98.1028C67.4688 98.1751 67.2054 98.3074 66.9741 98.4917C66.7429 98.676 66.5487 98.9086 66.403 99.1755C66.1127 99.7126 65.9419 100.315 65.904 100.934C65.7976 102.127 66.1807 103.441 66.6584 104.518C67.7369 103.873 68.2406 102.429 68.4535 101.682C68.7917 100.497 68.7302 98.1384 67.744 98.1028" fill="#FFC204"/>
<path d="M65.0302 105.935C65.1735 105.631 65.2264 105.298 65.1834 104.97C65.1404 104.641 65.003 104.329 64.7852 104.064C64.5626 103.803 64.2854 103.585 63.9695 103.423C63.6537 103.26 63.3056 103.157 62.9456 103.119C62.7818 103.085 62.6119 103.084 62.4477 103.116C62.2835 103.149 62.1291 103.213 61.9952 103.306C61.8878 103.41 61.8129 103.539 61.7783 103.679C61.7436 103.818 61.7505 103.964 61.7981 104.101C61.8975 104.373 62.0738 104.616 62.3093 104.805C63.0787 105.486 63.9626 106.02 65.0302 105.935Z" fill="#FFC204"/>
<path d="M65.1535 110.221C65.1664 110.135 65.1713 110.046 65.168 109.959C65.168 109.777 65.1802 109.546 65.1875 109.265C65.2277 108.497 65.1538 107.728 64.9687 106.986C64.7696 106.241 64.3913 105.567 63.8723 105.033C63.7128 104.876 63.5375 104.739 63.3497 104.625C63.2986 104.594 63.2458 104.566 63.1916 104.541C63.1552 104.523 63.1357 104.515 63.1333 104.52C63.3838 104.679 63.6178 104.867 63.831 105.08C64.3291 105.617 64.693 106.282 64.8885 107.012C65.0724 107.746 65.1543 108.505 65.1316 109.265C65.1316 109.556 65.1316 109.79 65.1316 109.959C65.1314 110.047 65.1387 110.135 65.1535 110.221Z" fill="#263238"/>
<path d="M67.2602 100.241C67.2475 100.276 67.2368 100.311 67.2282 100.347L67.1496 100.655C67.0832 100.919 66.9898 101.309 66.8817 101.789C66.6605 102.749 66.373 104.078 66.0879 105.555C65.8029 107.031 65.5719 108.376 65.417 109.352C65.3384 109.84 65.2794 110.233 65.2426 110.507C65.2254 110.636 65.2106 110.742 65.2008 110.821C65.197 110.858 65.197 110.896 65.2008 110.934C65.2146 110.9 65.2237 110.863 65.2278 110.826C65.2426 110.744 65.2598 110.641 65.2843 110.512L65.4859 109.362C65.653 108.392 65.8938 107.05 66.1789 105.573C66.4639 104.096 66.7416 102.767 66.9481 101.802C67.0488 101.33 67.1324 100.943 67.1938 100.663C67.2209 100.534 67.2405 100.431 67.2577 100.352C67.2635 100.315 67.2643 100.278 67.2602 100.241Z" fill="#263238"/>
<path d="M66.5745 107.197C66.8331 106.553 67.2447 105.978 67.775 105.522C68.3054 105.065 68.9392 104.738 69.624 104.569C69.9729 104.487 70.4079 104.475 70.6069 104.762C70.806 105.048 70.6684 105.448 70.4718 105.742C70.0509 106.348 69.4568 106.819 68.7638 107.096C68.0709 107.372 67.3101 107.441 66.5769 107.295" fill="#FFC204"/>
<path d="M68.6393 105.944C68.5678 105.952 68.4971 105.968 68.4284 105.992C68.3492 106.015 68.271 106.041 68.1942 106.072C68.0873 106.109 67.9825 106.153 67.8803 106.203C67.7553 106.259 67.6333 106.324 67.5148 106.396C67.386 106.47 67.2525 106.564 67.1166 106.663C66.821 106.887 66.5483 107.148 66.3037 107.442C66.0649 107.741 65.8567 108.07 65.6829 108.422C65.6084 108.577 65.5419 108.736 65.4838 108.9C65.4304 109.04 65.3851 109.183 65.348 109.33C65.3137 109.451 65.2855 109.574 65.2636 109.698C65.2419 109.79 65.2271 109.884 65.2191 109.979C65.2041 110.058 65.197 110.14 65.198 110.221C65.2144 110.221 65.2472 109.877 65.3995 109.351C65.4417 109.22 65.4838 109.084 65.5447 108.929C65.6051 108.769 65.6731 108.613 65.7485 108.462C65.9221 108.118 66.1279 107.797 66.3623 107.504C66.6029 107.216 66.869 106.957 67.1564 106.732C67.2923 106.633 67.4188 106.537 67.5476 106.465C67.6632 106.391 67.782 106.324 67.9037 106.265C68.3441 106.038 68.644 105.974 68.6393 105.944Z" fill="#263238"/>
<path d="M58.0413 48.4655C57.6038 43.3133 55.8878 38.1586 52.5488 34.3476C49.2098 30.5367 44.1133 28.2434 39.2417 29.1034C34.3701 29.9634 30.068 34.3246 29.7258 39.487C29.5523 42.2281 30.4249 44.9488 30.2807 47.6899C30.0363 52.43 26.7877 56.4406 23.1554 59.2765C20.0241 61.7233 16.6485 62.6037 14.4045 65.931C10.3787 71.9303 11.0484 78.8433 13.4268 82.9768C14.2432 84.3973 15.5827 85.7333 17.1887 86.8722C21.8012 90.1483 27.5723 90.9929 32.9744 89.552C41.3561 87.3125 48.9239 81.7764 53.2846 74.5921C58.3518 66.2586 58.76 56.932 58.0413 48.4655Z" fill="#FFC204"/>
<g opacity="0.8">
<path d="M58.0413 48.4655C57.6038 43.3133 55.8878 38.1586 52.5488 34.3476C49.2098 30.5367 44.1133 28.2434 39.2417 29.1034C34.3701 29.9634 30.068 34.3246 29.7258 39.487C29.5523 42.2281 30.4249 44.9488 30.2807 47.6899C30.0363 52.43 26.7877 56.4406 23.1554 59.2765C20.0241 61.7233 16.6485 62.6037 14.4045 65.931C10.3787 71.9303 11.0484 78.8433 13.4268 82.9768C14.2432 84.3973 15.5827 85.7333 17.1887 86.8722C21.8012 90.1483 27.5723 90.9929 32.9744 89.552C41.3561 87.3125 48.9239 81.7764 53.2846 74.5921C58.3518 66.2586 58.76 56.932 58.0413 48.4655Z" fill="white"/>
</g>
<path d="M22.869 85.2387C23.059 85.2387 23.2131 85.0792 23.2131 84.8823C23.2131 84.6855 23.059 84.5259 22.869 84.5259C22.6789 84.5259 22.5248 84.6855 22.5248 84.8823C22.5248 85.0792 22.6789 85.2387 22.869 85.2387Z" fill="#FFC204"/>
<path d="M28.3756 91.6548C28.5656 91.6548 28.7197 91.4952 28.7197 91.2983C28.7197 91.1015 28.5656 90.9419 28.3756 90.9419C28.1855 90.9419 28.0314 91.1015 28.0314 91.2983C28.0314 91.4952 28.1855 91.6548 28.3756 91.6548Z" fill="#FFC204"/>
<path d="M40.5231 92.2122C39.243 92.7438 37.7728 94.6019 37.6753 96.0625C37.5777 97.5232 38.3328 98.9763 39.4955 99.8446C40.6938 100.693 42.1605 101.06 43.6111 100.875C44.6387 100.761 45.6814 100.391 46.3765 99.6092C47.1466 98.7561 47.3891 97.5207 47.2766 96.3714C47.2078 95.5772 46.9671 94.808 46.5717 94.1185C46.1763 93.429 45.6359 92.8361 44.9888 92.3818C43.6736 91.5109 41.8708 91.3869 40.5231 92.202" fill="#FFC204"/>
<g opacity="0.8">
<path d="M40.5231 92.2122C39.243 92.7438 37.7728 94.6019 37.6753 96.0625C37.5777 97.5232 38.3328 98.9763 39.4955 99.8446C40.6938 100.693 42.1605 101.06 43.6111 100.875C44.6387 100.761 45.6814 100.391 46.3765 99.6092C47.1466 98.7561 47.3891 97.5207 47.2766 96.3714C47.2078 95.5772 46.9671 94.808 46.5717 94.1185C46.1763 93.429 45.6359 92.8361 44.9888 92.3818C43.6736 91.5109 41.8708 91.3869 40.5231 92.202" fill="white"/>
</g>
<path fill-rule="evenodd" clip-rule="evenodd" d="M50.0563 63.8532C50.0563 63.9942 50.0159 64.1321 49.9403 64.2493C49.8647 64.3665 49.7572 64.4579 49.6314 64.5118C49.5057 64.5658 49.3673 64.5799 49.2338 64.5524C49.1002 64.5249 48.9776 64.457 48.8813 64.3573C48.7851 64.2576 48.7195 64.1306 48.693 63.9923C48.6664 63.854 48.68 63.7107 48.7321 63.5804C48.7842 63.4502 48.8724 63.3389 48.9856 63.2605C49.0988 63.1822 49.2319 63.1404 49.368 63.1404C49.5506 63.1404 49.7256 63.2155 49.8547 63.3492C49.9838 63.4829 50.0563 63.6642 50.0563 63.8532Z" fill="#FFC204"/>
<path d="M40.0764 39.6162C40.2665 39.6162 40.4206 39.4566 40.4206 39.2597C40.4206 39.0629 40.2665 38.9033 40.0764 38.9033C39.8864 38.9033 39.7323 39.0629 39.7323 39.2597C39.7323 39.4566 39.8864 39.6162 40.0764 39.6162Z" fill="#FFC204"/>
<path d="M47.9914 105.912C47.9914 106.308 41.9839 106.624 34.57 106.624C27.1561 106.624 21.1486 106.304 21.1486 105.912C21.1486 105.52 27.1561 105.199 34.57 105.199C41.9839 105.199 47.9914 105.515 47.9914 105.912Z" fill="#FAFAFA"/>
<path d="M14.2654 112.828L17.3599 105.912H51.4941L55.562 112.828C55.562 112.828 14.2654 113.294 14.2654 112.844" fill="#263238"/>
<path d="M35.6512 112.327C35.6243 112.327 35.6022 111.049 35.6022 109.475C35.6022 107.901 35.6243 106.625 35.6512 106.625C35.6782 106.625 35.7028 107.901 35.7028 109.475C35.7028 111.049 35.6807 112.327 35.6512 112.327Z" fill="#455A64"/>
<path d="M52.8091 108.763L52.6802 108.789L52.3057 108.837L50.9026 109.005L46.0829 109.542L46.1218 109.517L45.1126 111.418L45.0981 111.447H45.0713H44.6749L38.2625 111.586L36.3171 111.615H35.6022H35.6508H35.787L36.3147 111.589L38.26 111.524L44.6725 111.35H45.0689L45.0275 111.379C45.3753 110.722 45.7157 110.085 46.0367 109.477L46.0513 109.454H46.0756L50.8953 108.957L52.3008 108.823L52.6778 108.794L52.8091 108.763Z" fill="#455A64"/>
<path d="M50.0559 108.763C49.7003 108.061 49.4701 107.346 49.3676 106.625C49.5848 106.971 49.7394 107.326 49.8295 107.686C49.9712 108.041 50.047 108.402 50.0559 108.763Z" fill="#455A64"/>
<path d="M23.2133 113.04C23.1893 113.007 23.1703 112.969 23.1568 112.93L23.0232 112.613L22.5659 111.471L22.6044 111.495L20.151 111.307C18.905 111.207 17.7772 111.112 16.9602 111.043L15.9942 110.954C15.8762 110.945 15.7587 110.93 15.6423 110.909C15.7611 110.9 15.8805 110.9 15.9994 110.909L16.9679 110.972C17.7874 111.03 18.9153 111.115 20.1638 111.215L22.6121 111.418H22.643V111.442C22.8151 111.909 22.959 112.302 23.0643 112.592L23.1748 112.914C23.1939 112.954 23.2069 112.996 23.2133 113.04Z" fill="#455A64"/>
<path d="M35.6024 108.279C35.6024 108.279 35.5901 108.279 35.563 108.279H35.4451H34.9858L33.2858 108.298L27.5203 108.32H27.5375L25.9726 109.069L25.1251 109.476H25.1128H25.0981L18.856 108.492L16.9939 108.179L16.5026 108.091L16.3724 108.066L16.3306 108.05H16.3748H16.505L17.0111 108.116L18.8756 108.386L25.1227 109.326H25.0981L25.9456 108.918L27.5129 108.169H27.5301L33.2956 108.191L34.9956 108.21H35.455H35.5729L35.6024 108.279Z" fill="#455A64"/>
<path d="M61.0682 54.5862H53.4971V56.0119H61.0682V54.5862Z" fill="#FFC204"/>
<path d="M56.9385 56.7246H53.4971V58.1503H56.9385V56.7246Z" fill="#FFC204"/>
<path d="M102.191 54.8008C102.206 54.7823 102.223 54.7656 102.242 54.7513L102.401 54.6156L102.522 54.5191L102.679 54.4199L102.866 54.3051L103.088 54.2034C104.01 53.8247 105.034 53.8062 105.968 54.1512C106.616 54.3686 107.21 54.7312 107.706 55.2131C108.268 55.7772 108.688 56.475 108.929 57.2454C109.459 58.863 109.323 60.8432 108.558 62.6303C107.792 64.4174 106.572 65.8497 105.425 67.0368C104.278 68.2239 103.151 69.2101 102.265 70.0945C101.556 70.7793 100.889 71.5095 100.269 72.2808C100.052 72.5574 99.8899 72.7765 99.7813 72.9278L99.6575 73.0974C99.6297 73.1339 99.6145 73.1548 99.612 73.1522C99.6209 73.1297 99.6328 73.1087 99.6474 73.0896C99.6752 73.0426 99.7131 72.9826 99.7611 72.9122C99.8596 72.7556 100.014 72.5287 100.228 72.2495C100.835 71.4613 101.495 70.7177 102.201 70.0241C103.081 69.1318 104.19 68.1378 105.339 66.9481C106.489 65.7584 107.673 64.3392 108.439 62.5755C109.204 60.8119 109.323 58.8682 108.818 57.2872C108.584 56.5344 108.179 55.8507 107.635 55.2939C107.151 54.8221 106.573 54.4659 105.94 54.2504C105.028 53.8983 104.023 53.8983 103.111 54.2504C102.784 54.3957 102.476 54.5805 102.191 54.8008Z" fill="#263238"/>
<path d="M81.7167 97.3897V89.1135C81.7167 86.1806 83.5741 84.1915 85.8989 84.1603L109.781 83.8457C110.161 83.8409 110.538 83.9158 110.891 84.0661C111.243 84.2164 111.564 84.4391 111.835 84.7213C112.105 85.0035 112.32 85.3396 112.466 85.7102C112.613 86.0807 112.689 86.4783 112.689 86.88V97.2389L81.7167 97.3897Z" fill="#FFC204"/>
<path d="M109.936 85.9841H100.3V90.9741H109.936V85.9841Z" fill="#FAFAFA"/>
<path d="M96.9222 96.6769C96.8878 96.6769 96.8584 93.8045 96.8584 90.2612C96.8584 86.7179 96.8878 83.8455 96.9222 83.8455C96.9565 83.8455 96.986 86.7179 96.986 90.2612C96.986 93.8045 96.9565 96.6769 96.9222 96.6769Z" fill="#263238"/>
<path d="M97.5471 79.8903C97.6208 79.8299 97.704 79.7862 97.7922 79.7616C98.0151 79.6666 98.2486 79.6073 98.4858 79.5854C98.8802 79.5395 99.2786 79.5866 99.6564 79.7237C100.034 79.8608 100.383 80.085 100.682 80.3824C100.981 80.6798 101.223 81.0441 101.393 81.4526C101.563 81.8611 101.658 82.3053 101.672 82.7574C101.686 83.0285 101.667 83.3006 101.616 83.5658C101.602 83.6634 101.575 83.7578 101.535 83.8455C101.582 83.4874 101.598 83.1247 101.581 82.763C101.557 82.3285 101.458 81.9038 101.29 81.5134C101.121 81.123 100.886 80.7747 100.599 80.4885C100.311 80.2024 99.9769 79.9841 99.6151 79.8464C99.2533 79.7086 98.8711 79.6541 98.4907 79.6861C98.1709 79.7177 97.8548 79.7861 97.5471 79.8903Z" fill="#263238"/>
<path d="M85.1579 83.8276L96.743 51.054L105.118 55.2341L95.2906 85.984L85.1579 83.8276Z" fill="#FFC204"/>
<path opacity="0.4" d="M91.4047 95.0427C93.4901 93.331 93.8573 90.1793 92.2247 88.003C90.5922 85.8268 87.5782 85.4501 85.4928 87.1618C83.4073 88.8734 83.0402 92.0252 84.6727 94.2014C86.3052 96.3777 89.3192 96.7543 91.4047 95.0427Z" fill="black"/>
<path d="M93.1405 91.3285C94.2387 88.8183 93.171 85.8461 90.7556 84.6899C88.3402 83.5337 85.4919 84.6314 84.3936 87.1416C83.2954 89.6518 84.3632 92.624 86.7786 93.7802C89.194 94.9364 92.0423 93.8388 93.1405 91.3285Z" fill="#263238"/>
<path d="M90.3261 89.6358C90.608 88.6958 90.1022 87.6929 89.1963 87.3955C88.2904 87.0982 87.3274 87.6192 87.0455 88.5591C86.7635 89.499 87.2694 90.502 88.1753 90.7993C89.0812 91.0967 90.0441 90.5757 90.3261 89.6358Z" fill="#455A64"/>
<path d="M90.6648 85.2712C90.6813 85.2029 90.7017 85.1355 90.7258 85.0695C90.7767 84.9266 90.8428 84.7326 90.9268 84.4926C91.1099 83.9821 91.3667 83.2674 91.6897 82.3867C92.3459 80.5998 93.2437 78.1544 94.233 75.4511L96.0438 70.5858L96.0794 70.6623L92.496 69.386L91.4939 69.0159L91.2396 68.9163C91.2088 68.9074 91.1796 68.8936 91.1531 68.8755C91.1852 68.8797 91.2168 68.8874 91.2472 68.8985L91.5015 68.9827L92.5188 69.3171L96.1176 70.5424L96.171 70.5602L96.1506 70.6164C95.642 72.0357 95.0138 73.7077 94.3704 75.4869L91.7838 82.4097L90.9878 84.5003L90.764 85.067C90.7393 85.1389 90.706 85.2074 90.6648 85.2712Z" fill="#263238"/>
<path d="M100.988 68.8745C100.988 68.908 98.9639 68.1353 96.4919 67.152C94.0198 66.1688 92.0289 65.3458 92.0408 65.3123C92.0527 65.2788 94.0675 66.0516 96.5371 67.0372C99.0068 68.0228 101.003 68.8506 100.988 68.8745Z" fill="#263238"/>
<path d="M91.3532 94.5376C91.3532 94.5376 91.4756 94.4196 91.7026 94.2125C92.0211 93.9199 92.3233 93.6091 92.608 93.2817C93.5337 92.1909 94.2977 90.9655 94.8753 89.6452C95.4489 88.3204 95.9354 86.9574 96.3315 85.5656L96.7064 84.3045C96.7498 84.1681 96.7829 84.0554 96.8135 83.961C96.8441 83.8666 96.8543 83.843 96.8594 83.8457C96.8588 83.8876 96.852 83.9291 96.839 83.9689C96.8161 84.0633 96.788 84.1786 96.7574 84.3176C96.6809 84.6191 96.5687 85.057 96.4208 85.5944C96.0495 86.9989 95.5728 88.3716 94.9951 89.7003C94.4146 91.0342 93.6322 92.2651 92.6768 93.3473C92.3852 93.6722 92.0707 93.9745 91.7358 94.2518C91.6468 94.3292 91.554 94.4019 91.4578 94.4694C91.3915 94.5193 91.3558 94.5428 91.3532 94.5376Z" fill="#263238"/>
<path d="M84.6082 90.974C84.6082 90.974 84.5844 90.974 84.5409 90.9565C84.4773 90.9312 84.4168 90.8949 84.361 90.8488C84.1553 90.6739 83.9972 90.423 83.9081 90.1303C83.7861 89.6955 83.7515 89.2292 83.8073 88.7733C83.8594 88.2231 83.9333 87.6766 84.0288 87.1359C84.1992 86.1531 84.436 85.1906 84.7367 84.2592C84.8514 83.9012 84.9562 83.6183 85.0294 83.4255C85.0643 83.3226 85.1074 83.2245 85.1579 83.1326C85.1359 83.2405 85.1055 83.3453 85.067 83.4455C85.0037 83.6458 84.9088 83.9312 84.8039 84.2918C84.5257 85.2276 84.3004 86.1872 84.1296 87.1634C83.9497 88.3001 83.7519 89.3792 83.9754 90.0977C84.055 90.3783 84.1963 90.6241 84.3827 90.8062C84.5152 90.9314 84.6121 90.9615 84.6082 90.974Z" fill="#263238"/>
<path d="M83.0933 108.795C85.3741 108.795 87.223 106.721 87.223 104.162C87.223 101.603 85.3741 99.5283 83.0933 99.5283C80.8126 99.5283 78.9637 101.603 78.9637 104.162C78.9637 106.721 80.8126 108.795 83.0933 108.795Z" fill="#455A64"/>
<path d="M83.0933 105.231C83.8535 105.231 84.4698 104.593 84.4698 103.805C84.4698 103.018 83.8535 102.38 83.0933 102.38C82.333 102.38 81.7167 103.018 81.7167 103.805C81.7167 104.593 82.333 105.231 83.0933 105.231Z" fill="#263238"/>
<path d="M96.8585 108.795C99.1393 108.795 100.988 106.721 100.988 104.162C100.988 101.603 99.1393 99.5283 96.8585 99.5283C94.5778 99.5283 92.7289 101.603 92.7289 104.162C92.7289 106.721 94.5778 108.795 96.8585 108.795Z" fill="#455A64"/>
<path d="M96.859 105.231C97.6192 105.231 98.2355 104.593 98.2355 103.805C98.2355 103.018 97.6192 102.38 96.859 102.38C96.0987 102.38 95.4824 103.018 95.4824 103.805C95.4824 104.593 96.0987 105.231 96.859 105.231Z" fill="#263238"/>
<path d="M111.313 108.795C113.594 108.795 115.443 106.721 115.443 104.162C115.443 101.603 113.594 99.5283 111.313 99.5283C109.032 99.5283 107.184 101.603 107.184 104.162C107.184 106.721 109.032 108.795 111.313 108.795Z" fill="#455A64"/>
<path d="M111.313 105.231C112.073 105.231 112.689 104.593 112.689 103.805C112.689 103.018 112.073 102.38 111.313 102.38C110.553 102.38 109.936 103.018 109.936 103.805C109.936 104.593 110.553 105.231 111.313 105.231Z" fill="#263238"/>
<path d="M111.039 110.221H82.6787C80.9633 110.221 79.3181 109.508 78.1051 108.238C76.8921 106.968 76.2107 105.245 76.2107 103.449C76.2107 101.653 76.8921 99.9305 78.1051 98.6605C79.3181 97.3905 80.9633 96.677 82.6787 96.677H111.039C112.755 96.677 114.4 97.3905 115.613 98.6605C116.826 99.9305 117.507 101.653 117.507 103.449C117.507 105.245 116.826 106.968 115.613 108.238C114.4 109.508 112.755 110.221 111.039 110.221ZM82.6787 98.8976C81.5257 98.8976 80.42 99.3771 79.6048 100.231C78.7896 101.084 78.3316 102.242 78.3316 103.449C78.3316 104.656 78.7896 105.814 79.6048 106.668C80.42 107.521 81.5257 108.001 82.6787 108.001H111.039C112.192 108.001 113.298 107.521 114.113 106.668C114.928 105.814 115.386 104.656 115.386 103.449C115.386 102.242 114.928 101.084 114.113 100.231C113.298 99.3771 112.192 98.8976 111.039 98.8976H82.6787Z" fill="#263238"/>
<path d="M96.8973 98.8156C96.8454 98.1037 96.8454 97.3888 96.8973 96.677C96.946 97.389 96.946 98.1036 96.8973 98.8156Z" fill="#455A64"/>
<path d="M102.404 98.8156C102.352 98.1037 102.352 97.3888 102.404 96.677C102.456 97.3888 102.456 98.1037 102.404 98.8156Z" fill="#455A64"/>
<path d="M107.91 98.8156C107.858 98.1037 107.858 97.3888 107.91 96.677C107.962 97.3888 107.962 98.1037 107.91 98.8156Z" fill="#455A64"/>
<path d="M112.689 99.5285C112.76 99.161 112.861 98.7992 112.99 98.446C113.091 98.0854 113.221 97.7324 113.378 97.3899C113.305 97.7563 113.203 98.1172 113.074 98.4697C112.972 98.8306 112.844 99.1844 112.689 99.5285Z" fill="#455A64"/>
<path d="M115.442 101.667C116.103 101.395 116.793 101.157 117.507 100.954C117.184 101.098 116.846 101.225 116.495 101.336C116.157 101.464 115.805 101.575 115.442 101.667Z" fill="#455A64"/>
<path d="M96.8973 108.083C96.9493 108.794 96.9493 109.509 96.8973 110.221C96.8454 109.509 96.8454 108.794 96.8973 108.083Z" fill="#455A64"/>
<path d="M102.402 108.083C102.453 108.794 102.453 109.509 102.402 110.221C102.353 109.509 102.353 108.794 102.402 108.083Z" fill="#455A64"/>
<path d="M107.22 108.083C107.272 108.794 107.272 109.509 107.22 110.221C107.171 109.509 107.171 108.794 107.22 108.083Z" fill="#455A64"/>
<path d="M112.689 108.083C112.845 108.425 112.974 108.778 113.075 109.139C113.202 109.492 113.303 109.854 113.378 110.221C113.221 109.879 113.092 109.526 112.992 109.165C112.863 108.812 112.762 108.45 112.689 108.083Z" fill="#455A64"/>
<path d="M115.442 105.231C115.804 105.325 116.156 105.436 116.495 105.563C116.846 105.673 117.184 105.801 117.507 105.944C116.792 105.743 116.102 105.504 115.442 105.231Z" fill="#455A64"/>
<path d="M92.0772 108.083C92.1291 108.794 92.1291 109.509 92.0772 110.221C92.0285 109.509 92.0285 108.794 92.0772 108.083Z" fill="#455A64"/>
<path d="M86.5715 108.083C86.6234 108.794 86.6234 109.509 86.5715 110.221C86.5228 109.509 86.5228 108.794 86.5715 108.083Z" fill="#455A64"/>
<path d="M81.7166 108.085C81.6439 108.452 81.5429 108.812 81.4144 109.165C81.3126 109.525 81.1835 109.878 81.0283 110.221C81.201 109.493 81.4311 108.778 81.7166 108.083V108.085Z" fill="#455A64"/>
<path d="M78.9636 105.231C78.6404 105.375 78.3023 105.502 77.9518 105.613C77.6125 105.739 77.2607 105.85 76.8988 105.944C77.2223 105.799 77.5615 105.671 77.9134 105.561C78.2512 105.434 78.6022 105.324 78.9636 105.231Z" fill="#455A64"/>
<path d="M92.0772 98.8156C92.0285 98.1036 92.0285 97.389 92.0772 96.677C92.1291 97.3888 92.1291 98.1037 92.0772 98.8156Z" fill="#455A64"/>
<path d="M87.2623 98.8156C87.2104 98.1037 87.2104 97.3888 87.2623 96.677C87.3142 97.3888 87.3142 98.1037 87.2623 98.8156Z" fill="#455A64"/>
<path d="M82.405 99.5285C82.2484 99.1857 82.1193 98.8322 82.0189 98.4711C81.8905 98.1181 81.7895 97.7568 81.7167 97.3899C81.8729 97.7329 82.002 98.0863 82.1029 98.4473C82.2313 98.8002 82.3323 99.1616 82.405 99.5285Z" fill="#455A64"/>
<path d="M78.9636 101.667C78.6014 101.575 78.2498 101.465 77.912 101.337C77.561 101.226 77.2223 101.098 76.8988 100.954C77.2615 101.047 77.6131 101.158 77.9504 101.287C78.3016 101.397 78.6403 101.524 78.9636 101.667Z" fill="#455A64"/>
<path d="M70.7043 65.0028L86.3315 58.1826L87.223 61.8305L72.2945 68.8755L70.7043 65.0028Z" fill="#E0E0E0"/>
<path d="M99.6118 59.268L88.4599 63.8854L85.8463 56.5724L98.4756 51.054L99.6118 59.268Z" fill="#FFC204"/>
<path d="M103.35 54.6184L110.624 51.3983L109.426 48.2026L102.365 51.2334L103.35 54.6184Z" fill="#E0E0E0"/>
<path opacity="0.4" d="M99.9562 61.7469C102.427 61.7469 104.43 59.6724 104.43 57.1133C104.43 54.5543 102.427 52.4797 99.9562 52.4797C97.4854 52.4797 95.4824 54.5543 95.4824 57.1133C95.4824 59.6724 97.4854 61.7469 99.9562 61.7469Z" fill="black"/>
<path d="M103.238 51.1126C103.839 51.7849 104.235 52.6267 104.374 53.5317C104.514 54.4367 104.391 55.3642 104.021 56.1969C103.652 57.0296 103.052 57.7301 102.298 58.2098C101.544 58.6895 100.67 58.9269 99.7856 58.8919C98.9014 58.857 98.0471 58.5513 97.3306 58.0134C96.6142 57.4756 96.0678 56.7298 95.7607 55.8703C95.4535 55.0109 95.3993 54.0764 95.6049 53.1851C95.8105 52.2937 96.2667 51.4855 96.9158 50.8627C97.7862 50.0275 98.9412 49.5847 100.127 49.6315C101.312 49.6784 102.432 50.2112 103.238 51.1126Z" fill="#263238"/>
<path d="M101.235 53.069C101.461 53.3296 101.609 53.6537 101.658 54.0007C101.708 54.3477 101.658 54.7022 101.514 55.0197C101.37 55.3372 101.138 55.6036 100.849 55.7856C100.559 55.9675 100.224 56.0569 99.8857 56.0425C99.5473 56.0282 99.2205 55.9107 98.9462 55.7048C98.672 55.4989 98.4626 55.2137 98.3441 54.8851C98.2257 54.5565 98.2035 54.1989 98.2804 53.8573C98.3573 53.5156 98.5298 53.2051 98.7764 52.9646C98.9432 52.8018 99.1397 52.6753 99.3544 52.5923C99.5691 52.5093 99.7977 52.4715 100.027 52.4812C100.256 52.491 100.48 52.548 100.688 52.6489C100.895 52.7498 101.081 52.8926 101.235 53.069Z" fill="#455A64"/>
<path d="M87.2234 56.0442C87.2934 56.1008 87.3583 56.1641 87.4173 56.2334C87.5499 56.382 87.7234 56.5685 87.9275 56.7956L89.6803 58.7713L89.6115 58.7551L91.2214 58.0767C92.5838 57.5064 93.8161 56.9956 94.7116 56.6361L95.7755 56.2145C95.9041 56.1593 96.0362 56.1141 96.171 56.0793C96.0513 56.1529 95.9258 56.2153 95.7959 56.2658L94.7473 56.7307C93.8595 57.1145 92.6323 57.6388 91.2724 58.2064L89.6574 58.8794L89.6165 58.8956L89.5885 58.8632L87.8714 56.8523C87.6724 56.6145 87.5117 56.4172 87.3841 56.2631C87.3222 56.1974 87.2683 56.1239 87.2234 56.0442Z" fill="#263238"/>
<path d="M59.0038 68.1344L70.2544 63.1726L73.4576 70.0665L61.7968 75.2912L59.0038 68.1344Z" fill="#FFC204"/>
<path opacity="0.4" d="M65.8596 71.8955C66.3425 69.7887 65.0866 67.6678 63.0546 67.1583C61.0226 66.6488 58.984 67.9437 58.5012 70.0505C58.0184 72.1573 59.2742 74.2783 61.3062 74.7878C63.3382 75.2973 65.3768 74.0024 65.8596 71.8955Z" fill="black"/>
<path d="M63.9088 73.2424C64.5381 71.1774 63.4349 68.9655 61.4448 68.302C59.4547 67.6385 57.3313 68.7745 56.702 70.8395C56.0727 72.9044 57.1759 75.1163 59.166 75.7798C61.1561 76.4434 63.2795 75.3073 63.9088 73.2424Z" fill="#263238"/>
<path d="M59.8485 70.4117C60.0992 70.3029 60.3755 70.2735 60.6424 70.3271C60.9093 70.3807 61.1548 70.5149 61.3482 70.7129C61.5415 70.9109 61.6739 71.1637 61.7287 71.4395C61.7834 71.7152 61.7581 72.0017 61.656 72.2626C61.5538 72.5235 61.3793 72.7472 61.1545 72.9056C60.9297 73.064 60.6647 73.1498 60.3929 73.1524C60.121 73.155 59.8545 73.0741 59.627 72.92C59.3995 72.7659 59.2211 72.5455 59.1143 72.2865C59.043 72.1136 59.0055 71.9278 59.0038 71.7397C59.0022 71.5517 59.0365 71.3652 59.1047 71.1909C59.173 71.0166 59.2738 70.8581 59.4014 70.7244C59.5291 70.5906 59.681 70.4844 59.8485 70.4117Z" fill="#455A64"/>
<path d="M66.4469 73.1525C66.4173 73.0612 66.398 72.9665 66.3894 72.8706L66.2672 72.077C66.169 71.3783 66.0277 70.43 65.8864 69.332V69.2846L65.9295 69.2672L67.2781 68.6957C68.5979 68.1367 69.7956 67.6402 70.6652 67.2858L71.6976 66.8716C71.8213 66.8152 71.9496 66.7701 72.0808 66.7368C71.9635 66.8076 71.841 66.8686 71.7143 66.919L70.6987 67.3707C69.8363 67.745 68.6458 68.2565 67.326 68.8155L65.975 69.382L66.0109 69.3171C66.1451 70.4101 66.2624 71.3583 66.3487 72.062C66.3846 72.3864 66.4133 72.6534 66.4349 72.8606C66.4483 72.9572 66.4523 73.055 66.4469 73.1525Z" fill="#263238"/>
<path d="M53.6124 74.5681L53.4974 73.8652L50.7845 74.3508L50.8995 75.0536L53.6124 74.5681Z" fill="#263238"/>
<path d="M59.095 71.5736L57.3803 71.8572L57.231 71.0139L56.5719 71.1234L56.765 72.2278L55.5626 72.4268L55.6605 72.9791L56.0466 75.1581L57.249 74.9591L57.4344 76.0039L58.0214 75.9069L57.9029 75.2402L59.6923 74.9442L59.095 71.5736Z" fill="#263238"/>
<path d="M55.5222 72.667L52.8093 73.1526L53.1543 75.2611L55.8671 74.7755L55.5222 72.667Z" fill="#455A64"/>
<path d="M35.8447 56.0487C35.8447 56.0487 24.5898 55.6641 24.5898 61.9862C24.5898 69.1447 26.8261 82.5582 35.8447 82.4188C44.8632 82.2794 46.5172 63.4706 46.6102 62.6341C46.6175 62.6264 47.0873 56.5908 35.8447 56.0487Z" fill="#FFC204"/>
<path d="M46.6147 60.9865C46.6011 61.0031 46.5855 61.0173 46.5685 61.0288L46.4248 61.1387C46.3005 61.2374 46.1106 61.3699 45.8646 61.5334C45.158 61.985 44.4178 62.3623 43.653 62.6609C42.5185 63.1071 41.3485 63.4215 40.1602 63.5996C38.7064 63.8129 37.2413 63.9071 35.776 63.8815C34.3116 63.888 32.8481 63.8023 31.3918 63.625C30.1967 63.4753 29.0277 63.12 27.9233 62.5707C27.1822 62.1933 26.4955 61.6866 25.8871 61.0683C25.6776 60.8428 25.5218 60.6567 25.4243 60.5271L25.3147 60.3748L25.2782 60.3213C25.2782 60.3213 25.2952 60.3354 25.3245 60.3664L25.4438 60.5073C25.5461 60.6314 25.7069 60.8089 25.931 61.0232C26.5439 61.6231 27.2311 62.1134 27.9696 62.4777C29.0651 63.0121 30.222 63.3587 31.4039 63.5066C32.8567 63.6746 34.316 63.7565 35.776 63.7518C37.2363 63.7716 38.6962 63.6774 40.1456 63.4699C41.3282 63.2983 42.4938 62.9953 43.6262 62.5651C44.3891 62.2732 45.1296 61.9083 45.8402 61.4742C46.0838 61.3192 46.2835 61.1923 46.4126 61.1049L46.5612 61.0091C46.5783 60.9995 46.5963 60.992 46.6147 60.9865Z" fill="#263238"/>
<path d="M39.7142 63.1726C39.7259 63.2286 39.7318 63.2856 39.7317 63.3427C39.7317 63.4553 39.7317 63.623 39.7317 63.8431C39.732 64.4502 39.6684 65.0557 39.5419 65.6495C39.4519 66.0604 39.3206 66.461 39.15 66.8454C38.9599 67.29 38.7077 67.7053 38.401 68.0788C38.0555 68.49 37.6406 68.8373 37.1751 69.1046C36.9262 69.2416 36.6645 69.3539 36.3937 69.4398C36.1126 69.5233 35.8226 69.5729 35.5299 69.5874C34.9515 69.601 34.38 69.4593 33.8746 69.1771C33.4049 68.9149 32.991 68.563 32.6563 68.1414C32.0982 67.423 31.7322 66.574 31.5927 65.6745C31.4955 65.0751 31.457 64.4676 31.4779 63.8606C31.4779 63.648 31.4978 63.4803 31.5078 63.3602C31.5091 63.3021 31.5166 63.2442 31.5303 63.1876C31.5346 63.2451 31.5346 63.3028 31.5303 63.3602C31.5303 63.4853 31.5303 63.6505 31.5303 63.8606C31.5264 64.4621 31.5782 65.0626 31.6851 65.6545C31.8318 66.5337 32.1977 67.3615 32.7486 68.0613C33.0757 68.4685 33.4784 68.8084 33.9345 69.062C34.4241 69.3316 34.9765 69.4655 35.5349 69.4498C35.8165 69.4364 36.0956 69.3893 36.3662 69.3097C36.6261 69.2266 36.877 69.1177 37.1152 68.9845C37.57 68.7248 37.975 68.3859 38.3111 67.9837C38.6173 67.6227 38.8696 67.219 39.0601 66.7853C39.2331 66.4087 39.3677 66.0156 39.462 65.6119C39.5957 65.0253 39.6726 64.4271 39.6917 63.8256C39.6917 63.623 39.6917 63.4603 39.7042 63.3252C39.7027 63.2742 39.706 63.223 39.7142 63.1726Z" fill="#263238"/>
<path d="M42.4848 77.6021C42.4699 77.6021 42.3953 77.3459 42.2013 76.9129C41.9221 76.2969 41.5668 75.7207 41.1441 75.1987C40.5127 74.4293 39.739 73.797 38.8681 73.3385C37.7944 72.7904 36.6046 72.5279 35.4072 72.5749C34.2097 72.6219 33.0428 72.9769 32.0127 73.6075C31.1776 74.1315 30.4527 74.8224 29.8809 75.6394C29.4966 76.1928 29.1846 76.7958 28.9531 77.433C28.7889 77.884 28.7342 78.1453 28.7193 78.1428C28.7266 78.0778 28.7391 78.0135 28.7566 77.9506C28.797 77.7695 28.8468 77.5907 28.9059 77.4151C29.1206 76.7653 29.4237 76.1502 29.8063 75.5882C30.3766 74.7504 31.1071 74.0415 31.953 73.505C32.9971 72.8574 34.1835 72.4928 35.4014 72.4453C36.6194 72.3978 37.8292 72.6689 38.9178 73.2334C39.7997 73.7024 40.5793 74.352 41.2088 75.1423C41.6319 75.6736 41.9802 76.2636 42.2435 76.8949C42.3306 77.1204 42.3953 77.2947 42.4301 77.4074C42.4548 77.4702 42.4731 77.5355 42.4848 77.6021Z" fill="#263238"/>
<path d="M40.4201 71.6938L40.9135 69.5886H45.238C45.0844 70.2162 44.8703 70.9483 44.6236 71.7272L40.4201 71.6938Z" fill="#FAFAFA"/>
<path d="M30.0961 71.6938L29.605 69.5886H25.2782C25.4318 70.2162 25.5622 70.9483 25.8065 71.7272L30.0961 71.6938Z" fill="#FAFAFA"/>
<path opacity="0.4" d="M45.9265 60.4751C44.8499 58.5668 42.0023 56.3589 35.8596 56.0488C35.8596 56.0488 28.9766 55.807 26.0371 58.8323C25.7586 59.1425 25.5075 59.4804 25.2872 59.8416C25.1081 60.2017 27.5831 63.432 35.5379 63.1561C43.7442 62.8696 45.9265 60.4751 45.9265 60.4751Z" fill="black"/>
<path d="M24.3244 49.6284C23.9469 48.6803 23.764 47.5945 24.021 46.597C24.2781 45.5995 25.0422 44.7293 25.9662 44.6384" fill="#263238"/>
<path d="M25.9662 44.6384C25.9662 44.6563 25.7773 44.7943 25.5094 45.0728C25.1576 45.4312 24.8633 45.8329 24.6354 46.266C24.4219 46.7074 24.2392 47.1605 24.0885 47.6227C24.0413 47.8197 23.9791 48.0135 23.9024 48.2027C23.8955 47.9989 23.924 47.7955 23.987 47.5997C24.1099 47.123 24.2817 46.6576 24.5001 46.2098C24.7337 45.7644 25.0493 45.3583 25.4333 45.0089C25.5818 44.8544 25.763 44.7284 25.9662 44.6384Z" fill="#FFC204"/>
<path d="M46.8795 49.6284C47.2573 48.6803 47.4405 47.5945 47.1831 46.597C46.9258 45.5995 46.1608 44.7293 45.2381 44.6384" fill="#263238"/>
<path d="M45.9266 44.6384C46.1304 44.7274 46.3117 44.8535 46.4593 45.0089C46.844 45.3577 47.1595 45.7639 47.3922 46.2098C47.6105 46.6576 47.7822 47.123 47.9052 47.5997C47.9681 47.7955 47.9966 47.9989 47.9897 48.2027C47.9146 48.013 47.8525 47.8193 47.8037 47.6227C47.6541 47.1605 47.4724 46.7074 47.2597 46.266C47.03 45.8333 46.735 45.4317 46.3832 45.0728C46.1154 44.7968 45.9125 44.6563 45.9266 44.6384Z" fill="#FFC204"/>
<path d="M25.269 54.4327C24.7215 53.8482 24.3193 53.1325 24.0976 52.348C23.8759 51.5635 23.8415 50.7342 23.9973 49.9326C24.6554 46.467 27.0678 40.229 35.9328 40.3635C45.2333 40.5005 46.9801 47.23 47.2794 50.4705C47.342 51.1337 47.2784 51.8032 47.0924 52.4406C46.9064 53.078 46.6017 53.6706 46.1957 54.1844C44.8127 55.9301 41.8758 58.1853 35.9328 58.1827C30.0467 58.1879 26.8822 56.1344 25.269 54.4327Z" fill="#FFC204"/>
<path d="M32.1605 40.3613C32.1821 40.3974 32.1989 40.4366 32.2104 40.4778L32.3341 40.8195C32.4411 41.1146 32.591 41.5443 32.8241 42.0491C33.0881 42.643 33.4501 43.1791 33.8921 43.6307C34.4268 44.1911 35.1406 44.5038 35.8829 44.503C36.623 44.4548 37.3273 44.1407 37.8857 43.61C38.3404 43.1733 38.7219 42.6539 39.0132 42.0749C39.2134 41.6848 39.3921 41.282 39.5483 40.8687C39.6014 40.714 39.6625 40.5628 39.7315 40.4157C39.7286 40.4586 39.719 40.5006 39.703 40.5399C39.6792 40.6202 39.6435 40.7393 39.5935 40.8868C39.4529 41.311 39.2844 41.7237 39.0893 42.1215C38.8037 42.7188 38.4209 43.2547 37.9595 43.7031C37.3849 44.2606 36.6538 44.5899 35.8853 44.6376C35.4869 44.6483 35.0915 44.5597 34.7293 44.3788C34.3945 44.2131 34.0862 43.9902 33.816 43.7187C33.3669 43.2533 33.0036 42.6989 32.7456 42.0853C32.5693 41.6785 32.4168 41.2601 32.2889 40.8324C32.2413 40.6806 32.208 40.5641 32.189 40.483C32.176 40.4435 32.1664 40.4028 32.1605 40.3613Z" fill="#263238"/>
<path d="M41.8843 53.7939C37.5689 54.865 33.3574 54.9052 29.2647 53.8392C28.5153 53.6411 27.8521 53.1954 27.3795 52.5723C26.9069 51.9492 26.6517 51.184 26.6541 50.3973V50.3369C26.6541 49.8694 26.7448 49.4065 26.9208 48.9746C27.0969 48.5426 27.355 48.1502 27.6804 47.8196C28.0057 47.489 28.392 47.2268 28.8171 47.0479C29.2422 46.8689 29.6978 46.7769 30.1579 46.7769H41.0455C41.5056 46.7769 41.9612 46.8689 42.3863 47.0479C42.8114 47.2268 43.1977 47.489 43.523 47.8196C43.8484 48.1502 44.1065 48.5426 44.2826 48.9746C44.4587 49.4065 44.5493 49.8694 44.5493 50.3369C44.5498 51.133 44.2875 51.9063 43.8044 52.5331C43.3212 53.1598 42.6452 53.6038 41.8843 53.7939Z" fill="#263238"/>
<path d="M32.1515 50.4541C32.13 50.5932 32.0691 50.7226 31.9765 50.8259C31.884 50.9292 31.764 51.0017 31.6317 51.0344C31.4994 51.0671 31.3607 51.0585 31.2331 51.0096C31.1055 50.9607 30.9948 50.8737 30.9149 50.7597C30.835 50.6456 30.7895 50.5096 30.7842 50.3688C30.7789 50.228 30.814 50.0888 30.8851 49.9686C30.9561 49.8485 31.06 49.7529 31.1835 49.6938C31.307 49.6348 31.4447 49.6149 31.579 49.6369C31.6685 49.6514 31.7543 49.6842 31.8315 49.7332C31.9088 49.7822 31.9759 49.8465 32.0291 49.9224C32.0822 49.9983 32.1204 50.0844 32.1415 50.1756C32.1625 50.2668 32.1659 50.3615 32.1515 50.4541Z" fill="white"/>
<path d="M41.0992 50.4544C41.0776 50.5936 41.0166 50.723 40.9239 50.8263C40.8313 50.9296 40.7111 51.0021 40.5787 51.0346C40.4462 51.0672 40.3075 51.0583 40.1799 51.0092C40.0523 50.9601 39.9417 50.8729 39.8619 50.7586C39.7822 50.6444 39.7369 50.5082 39.7319 50.3673C39.7269 50.2264 39.7623 50.0872 39.8337 49.9672C39.9051 49.8471 40.0092 49.7517 40.133 49.693C40.2567 49.6343 40.3945 49.6148 40.5289 49.6372C40.6182 49.652 40.7037 49.685 40.7807 49.7341C40.8577 49.7832 40.9246 49.8475 40.9775 49.9234C41.0305 49.9993 41.0685 50.0853 41.0894 50.1764C41.1103 50.2675 41.1136 50.362 41.0992 50.4544Z" fill="white"/>
<path d="M37.6556 50.3413C37.6874 50.5468 37.6501 50.7568 37.5493 50.9401C37.4547 51.1463 37.3113 51.3279 37.1308 51.4699C36.9114 51.6414 36.6433 51.7436 36.3625 51.7629C36.0842 51.7844 35.8059 51.722 35.5654 51.5841C35.3705 51.4686 35.2072 51.309 35.0893 51.1189C34.9667 50.9499 34.9052 50.7461 34.9144 50.5395C34.982 50.7211 35.068 50.8957 35.1713 51.0607C35.2911 51.2278 35.4476 51.3669 35.6296 51.4678C35.8502 51.587 36.1021 51.6402 36.3536 51.6207C36.6073 51.6038 36.8504 51.5155 37.0533 51.3665C37.2218 51.2399 37.3607 51.0799 37.4607 50.897C37.5423 50.7177 37.6075 50.5318 37.6556 50.3413Z" fill="white"/>
</g>
<defs>
<clipPath id="clip0_896_21760">
<rect width="120" height="120" fill="white" transform="translate(0.5)"/>
</clipPath>
</defs>
</svg>
