<svg width="200" height="200" viewBox="0 0 200 200" fill="none" xmlns="http://www.w3.org/2000/svg">
<g clip-path="url(#clip0_172_6462)">
<path d="M0.974455 138.791C0.974455 138.791 -1.5501 139.924 1.52772 145.436C4.60555 150.949 6.68339 153.65 6.68339 153.65C6.68339 153.65 7.24485 154.918 6.18339 155.197C5.12193 155.476 2.74082 155.197 2.33099 156.571C1.92116 157.945 2.95803 159.272 5.01948 160.329C7.08092 161.386 11.5153 163.872 11.9169 164.1C12.3185 164.328 12.7366 164.912 12.0235 165.207C11.3104 165.503 6.04406 166.357 6.58503 168.919C7.12601 171.481 13.339 173.446 14.0153 173.679C14.6915 173.911 14.8636 174.186 14.8349 174.562C14.8062 174.939 12.9989 175.057 11.5071 175.361C10.0153 175.666 8.33501 176.291 8.76533 177.741C9.19565 179.191 12.962 182.091 21.7774 182.514L25.8757 182.438L27.9249 178.756C31.847 170.601 31.224 165.799 30.2035 164.704C29.1831 163.61 27.8388 164.819 26.8552 166.019C25.8716 167.22 24.9003 168.784 24.5643 168.632C24.2282 168.479 24.0725 168.188 24.2036 167.469C24.3348 166.75 25.6872 160.194 23.7938 158.461C21.9004 156.728 18.5972 161.077 18.0111 161.559C17.425 162.041 17.1177 161.386 17.1218 160.921C17.1259 160.456 17.1709 155.248 17.2775 152.889C17.3841 150.53 16.8185 148.949 15.4005 148.637C13.9825 148.324 13.1013 150.611 12.3636 151.443C11.6259 152.276 10.8104 151.143 10.8104 151.143C10.8104 151.143 9.53171 147.956 6.35553 142.503C3.17934 137.05 0.945764 138.833 0.945764 138.833" fill="#EBEBEB"/>
<path d="M26.3036 183.702C23.9366 179.615 19.855 172.278 16.317 166C12.779 159.723 9.57557 154.043 7.23364 149.942C6.05849 147.898 5.11336 146.242 4.4526 145.093L3.69565 143.772L3.50329 143.428L3.44055 143.307C3.44055 143.307 3.46983 143.346 3.51583 143.419C3.56183 143.492 3.63292 143.613 3.72075 143.759L4.49442 145.05C5.16772 146.186 6.12959 147.834 7.3131 149.878C9.67594 153.965 12.8961 159.641 16.4299 165.914C19.9637 172.188 24.037 179.537 26.3831 183.638" fill="#E0E0E0"/>
<path d="M5.73572 157.564C5.83026 157.575 5.92332 157.596 6.01325 157.627C6.19166 157.675 6.44937 157.75 6.76258 157.85C7.39297 158.045 8.25331 158.339 9.20088 158.676L11.6194 159.554L12.3528 159.833C12.4445 159.86 12.5334 159.896 12.6185 159.94C12.5226 159.932 12.4281 159.912 12.337 159.88C12.1586 159.833 11.9048 159.753 11.5916 159.654C10.9612 159.451 10.1048 159.149 9.15727 158.807L6.73482 157.949L6.00135 157.691C5.9079 157.66 5.81867 157.617 5.73572 157.564Z" fill="#E0E0E0"/>
<path d="M12.6196 158.752C12.5899 158.752 13.0786 156.87 13.7117 154.577C14.3448 152.284 14.8816 150.427 14.9113 150.435C14.9409 150.444 14.4522 152.317 13.8191 154.614C13.186 156.911 12.6492 158.76 12.6196 158.752Z" fill="#E0E0E0"/>
<path d="M17.2072 169.445C17.2457 169.346 17.291 169.251 17.3427 169.161L17.7349 168.42C18.0666 167.789 18.5195 166.919 18.9903 165.934C19.461 164.949 19.8675 164.039 20.1564 163.382L20.513 162.596C20.5508 162.498 20.5961 162.404 20.6485 162.316C20.6256 162.423 20.5933 162.525 20.5522 162.623C20.4809 162.814 20.3775 163.089 20.242 163.426C19.9709 164.096 19.5751 165.015 19.1008 166.005C18.6265 166.995 18.1629 167.856 17.8134 168.473C17.6387 168.779 17.496 169.028 17.3926 169.192C17.3391 169.285 17.2769 169.37 17.2072 169.445Z" fill="#E0E0E0"/>
<path d="M13.7651 177.77C13.885 177.758 14.0056 177.758 14.1254 177.77L15.111 177.796C15.9393 177.822 17.0906 177.869 18.3578 177.929C19.625 177.989 20.7721 178.048 21.6004 178.1L22.586 178.164C22.7056 178.169 22.8246 178.183 22.9421 178.207C22.8224 178.22 22.7016 178.22 22.5819 178.207L21.5962 178.181C20.768 178.151 19.6167 178.108 18.3495 178.048C17.0823 177.989 15.9351 177.924 15.1069 177.877L14.1254 177.809C14.0046 177.806 13.8841 177.793 13.7651 177.77Z" fill="#E0E0E0"/>
<path d="M22.942 177.762C22.9854 177.643 23.0397 177.529 23.104 177.421C23.2384 177.196 23.4162 176.903 23.6257 176.546C24.0644 175.808 24.6691 174.789 25.3014 173.642C25.9338 172.494 26.4871 171.443 26.8823 170.677C27.068 170.308 27.2261 170.003 27.3447 169.77C27.3963 169.656 27.4585 169.547 27.5305 169.445C27.4928 169.564 27.4452 169.679 27.3882 169.79C27.2933 170.011 27.1471 170.328 26.9574 170.717C26.5859 171.491 26.0484 172.554 25.4121 173.702C24.7758 174.849 24.1632 175.868 23.7047 176.594C23.4755 176.959 23.2858 177.248 23.1475 177.449C23.0872 177.558 23.0185 177.663 22.942 177.762Z" fill="#E0E0E0"/>
<path fill-rule="evenodd" clip-rule="evenodd" d="M114.757 33.794C114.862 34.9702 114.814 36.1557 114.613 37.3185L117.109 39.3239L114.905 44.2309L111.816 43.5396C111.086 44.4489 110.241 45.2526 109.304 45.9291L109.716 49.1719L104.802 51.028L103.097 48.2801C101.96 48.3854 100.815 48.3338 99.6909 48.1265L97.7427 50.7123L93.0021 48.4252L93.6694 45.225C92.7931 44.4696 92.0187 43.5956 91.367 42.6265L88.2327 43.0532L86.4411 37.967L89.0935 36.2048C88.9884 35.0286 89.0369 33.8431 89.2377 32.6804L86.75 30.6578L88.9535 25.7509L92.0425 26.4421C92.772 25.5318 93.6171 24.728 94.5549 24.0527L94.143 20.8056L99.0566 18.9495L100.774 21.6973C101.911 21.592 103.056 21.6437 104.18 21.851L106.112 19.2609L110.852 21.548L110.185 24.7439C111.061 25.502 111.835 26.3772 112.488 27.3467L115.622 26.92L117.414 32.0062L114.757 33.7812V33.794ZM107.277 33.218C106.896 32.1405 106.216 31.204 105.321 30.5269C104.427 29.8498 103.359 29.4624 102.253 29.4136C101.146 29.3647 100.05 29.6567 99.1034 30.2526C98.1567 30.8484 97.4017 31.7215 96.9336 32.7616C96.4655 33.8016 96.3053 34.9621 96.4734 36.0963C96.6414 37.2306 97.13 38.2879 97.8775 39.1347C98.6251 39.9816 99.5981 40.5799 100.674 40.8543C101.749 41.1287 102.879 41.0669 103.921 40.6765C104.615 40.4169 105.253 40.0177 105.798 39.5018C106.343 38.9859 106.784 38.3634 107.096 37.6703C107.408 36.9772 107.585 36.227 107.616 35.4629C107.647 34.6988 107.532 33.9359 107.277 33.218Z" fill="#E0E0E0"/>
<path fill-rule="evenodd" clip-rule="evenodd" d="M154.506 29.7684C154.588 30.685 154.55 31.609 154.393 32.515L156.339 34.0749L154.623 37.8991L152.22 37.3582C151.651 38.0654 150.994 38.6914 150.266 39.22L150.577 41.736L146.754 43.1827L145.423 41.0399C144.538 41.1229 143.647 41.0834 142.773 40.9225L141.268 42.9353L137.582 41.1573L138.1 38.6665C137.418 38.0774 136.815 37.3962 136.307 36.6411L133.88 36.964L132.472 33.0265L134.539 31.6428C134.459 30.7275 134.497 29.8052 134.653 28.9004L132.711 27.3405L134.426 23.5162L136.829 24.0571C137.398 23.3489 138.055 22.7227 138.783 22.1953L138.472 19.6793L142.295 18.2327L143.627 20.3754C144.511 20.2924 145.402 20.3319 146.277 20.4928L147.782 18.4759L151.468 20.258L150.95 22.7488C151.632 23.338 152.234 24.0192 152.742 24.7742L155.17 24.4513L156.561 28.4098L154.494 29.7893L154.506 29.7684ZM148.688 29.349C148.396 28.5053 147.869 27.7703 147.174 27.2375C146.478 26.7046 145.646 26.3978 144.782 26.356C143.918 26.3142 143.062 26.5393 142.321 27.0027C141.581 27.4661 140.99 28.1469 140.624 28.9588C140.258 29.7708 140.132 30.6772 140.264 31.5631C140.395 32.449 140.777 33.2745 141.362 33.9349C141.947 34.5953 142.708 35.0608 143.548 35.2723C144.388 35.4839 145.271 35.432 146.082 35.1232C147.169 34.7129 148.053 33.8725 148.542 32.7866C149.03 31.7008 149.083 30.4583 148.688 29.3323V29.349Z" fill="#EBEBEB"/>
<path fill-rule="evenodd" clip-rule="evenodd" d="M130.148 62.8863C130.216 63.6725 130.183 64.4646 130.05 65.2418L131.716 66.5781L130.246 69.8598L128.204 69.3946C127.715 70.0007 127.151 70.5368 126.526 70.9889L126.791 73.1583L123.525 74.3974L122.382 72.5621C121.622 72.6331 120.857 72.5975 120.107 72.4563L118.817 74.186L115.653 72.6593L116.098 70.5449C115.513 70.0401 114.995 69.457 114.558 68.811L112.468 69.0859L111.271 65.7027L113.043 64.5186C112.976 63.7324 113.009 62.9404 113.141 62.1631L111.471 60.8268L112.945 57.5494L114.987 58.0103C115.476 57.4042 116.04 56.8681 116.665 56.416L116.4 54.2508L119.666 53.0117L120.81 54.8471C121.569 54.7768 122.333 54.8109 123.084 54.9486L124.374 53.2189L127.539 54.7456L127.093 56.8812C127.679 57.3875 128.196 57.972 128.633 58.6193L130.723 58.3402L131.92 61.7233L130.148 62.8863ZM125.15 62.5099C124.893 61.791 124.436 61.167 123.837 60.7168C123.238 60.2666 122.524 60.0103 121.784 59.9805C121.045 59.9506 120.313 60.1484 119.682 60.5489C119.051 60.9495 118.549 61.5347 118.239 62.2308C117.928 62.9268 117.825 63.7024 117.94 64.4596C118.055 65.2168 118.385 65.9217 118.886 66.4851C119.388 67.0485 120.04 67.4452 120.76 67.6251C121.479 67.805 122.234 67.76 122.929 67.4958C123.859 67.1407 124.616 66.4175 125.033 65.4851C125.449 64.5527 125.491 63.4872 125.15 62.5226V62.5099Z" fill="#F5F5F5"/>
<path opacity="0.5" d="M200 181.428C200 181.485 137.141 181.309 65.3474 181.309C-6.44581 181.309 0.736835 181.485 0.736835 181.428C0.736835 181.372 -6.47286 181.099 65.3474 181.099C137.168 181.099 200 181.367 200 181.428Z" fill="#263238"/>
<path d="M112.081 163.504C111.615 163.625 111.176 163.845 110.79 164.153C110.405 164.46 110.081 164.847 109.838 165.292C109.354 166.187 109.07 167.191 109.007 168.224C108.829 170.211 109.468 172.401 110.264 174.197C112.061 173.121 112.901 170.715 113.256 169.469C113.819 167.495 113.717 163.564 112.073 163.504" fill="#FFC100"/>
<path d="M107.55 176.558C107.789 176.052 107.877 175.497 107.806 174.949C107.734 174.401 107.505 173.881 107.142 173.44C106.771 173.005 106.309 172.641 105.782 172.371C105.256 172.1 104.676 171.928 104.076 171.864C103.803 171.808 103.52 171.806 103.246 171.86C102.973 171.914 102.715 172.022 102.492 172.176C102.313 172.35 102.188 172.565 102.13 172.797C102.073 173.03 102.084 173.273 102.164 173.5C102.329 173.954 102.623 174.359 103.015 174.675C104.298 175.809 105.771 176.7 107.55 176.558Z" fill="#FFC100"/>
<path d="M107.756 183.702C107.777 183.557 107.785 183.41 107.78 183.264C107.78 182.962 107.8 182.576 107.813 182.107C107.879 180.828 107.756 179.546 107.448 178.309C107.116 177.068 106.485 175.945 105.621 175.054C105.355 174.793 105.063 174.565 104.749 174.375C104.664 174.323 104.576 174.276 104.486 174.235C104.425 174.204 104.393 174.191 104.389 174.2C104.806 174.465 105.196 174.778 105.552 175.133C106.382 176.028 106.988 177.136 107.314 178.353C107.621 179.576 107.757 180.841 107.719 182.107C107.719 182.594 107.719 182.984 107.719 183.264C107.719 183.411 107.731 183.558 107.756 183.702Z" fill="#263238"/>
<path d="M111.267 167.069C111.246 167.126 111.228 167.185 111.214 167.244L111.083 167.759C110.972 168.198 110.816 168.849 110.636 169.648C110.268 171.248 109.788 173.463 109.313 175.924C108.838 178.386 108.453 180.627 108.195 182.253C108.064 183.066 107.966 183.721 107.904 184.178C107.876 184.393 107.851 184.569 107.835 184.701C107.828 184.764 107.828 184.827 107.835 184.89C107.858 184.833 107.873 184.772 107.88 184.71C107.904 184.574 107.933 184.402 107.974 184.187L108.31 182.271C108.588 180.653 108.99 178.416 109.465 175.955C109.94 173.494 110.403 171.279 110.747 169.67C110.915 168.884 111.054 168.238 111.156 167.772C111.201 167.556 111.234 167.385 111.263 167.253C111.272 167.192 111.274 167.13 111.267 167.069Z" fill="#263238"/>
<path d="M110.124 178.661C110.555 177.588 111.241 176.631 112.125 175.869C113.009 175.107 114.065 174.563 115.207 174.282C115.788 174.145 116.513 174.125 116.845 174.603C117.177 175.08 116.947 175.747 116.62 176.236C115.918 177.247 114.928 178.032 113.773 178.492C112.618 178.953 111.35 179.069 110.128 178.825" fill="#FFC100"/>
<path d="M113.565 176.573C113.446 176.587 113.329 176.614 113.214 176.654C113.082 176.691 112.952 176.735 112.824 176.787C112.646 176.848 112.471 176.921 112.3 177.005C112.092 177.099 111.889 177.206 111.691 177.325C111.477 177.45 111.254 177.606 111.028 177.77C110.535 178.145 110.08 178.58 109.673 179.07C109.275 179.568 108.928 180.116 108.638 180.703C108.514 180.961 108.403 181.227 108.306 181.499C108.217 181.732 108.142 181.972 108.08 182.216C108.023 182.417 107.976 182.622 107.939 182.83C107.903 182.983 107.878 183.139 107.865 183.297C107.84 183.43 107.828 183.566 107.83 183.702C107.857 183.702 107.912 183.128 108.166 182.251C108.236 182.033 108.306 181.806 108.408 181.548C108.508 181.282 108.622 181.022 108.748 180.77C109.037 180.197 109.38 179.661 109.77 179.172C110.171 178.693 110.615 178.262 111.094 177.886C111.32 177.722 111.531 177.561 111.746 177.441C111.939 177.318 112.137 177.207 112.339 177.107C113.073 176.729 113.573 176.622 113.565 176.573Z" fill="#263238"/>
<path d="M95.9022 80.7757C95.173 72.1888 92.3131 63.5976 86.7481 57.246C81.1831 50.8944 72.6889 47.0723 64.5695 48.5056C56.4502 49.9388 49.28 57.2076 48.7097 65.8116C48.4204 70.3801 49.8748 74.9146 49.6345 79.4832C49.2271 87.3833 43.8128 94.0676 37.7589 98.7941C32.5402 102.872 26.9141 104.339 23.1742 109.885C16.4645 119.884 17.5807 131.405 21.5447 138.295C22.9054 140.662 25.1379 142.889 27.8145 144.787C35.502 150.247 45.1206 151.655 54.124 149.253C68.0935 145.521 80.7064 136.294 87.9743 124.32C96.4196 110.431 97.0999 94.8867 95.9022 80.7757Z" fill="#FFC100"/>
<g opacity="0.8">
<path d="M95.9022 80.7757C95.173 72.1888 92.3131 63.5976 86.7481 57.246C81.1831 50.8944 72.6889 47.0723 64.5695 48.5056C56.4502 49.9388 49.28 57.2076 48.7097 65.8116C48.4204 70.3801 49.8748 74.9146 49.6345 79.4832C49.2271 87.3833 43.8128 94.0676 37.7589 98.7941C32.5402 102.872 26.9141 104.339 23.1742 109.885C16.4645 119.884 17.5807 131.405 21.5447 138.295C22.9054 140.662 25.1379 142.889 27.8145 144.787C35.502 150.247 45.1206 151.655 54.124 149.253C68.0935 145.521 80.7064 136.294 87.9743 124.32C96.4196 110.431 97.0999 94.8867 95.9022 80.7757Z" fill="white"/>
</g>
<path d="M37.2816 142.065C37.5983 142.065 37.8551 141.799 37.8551 141.471C37.8551 141.142 37.5983 140.876 37.2816 140.876C36.9648 140.876 36.708 141.142 36.708 141.471C36.708 141.799 36.9648 142.065 37.2816 142.065Z" fill="#FFC100"/>
<path d="M46.4593 152.758C46.7761 152.758 47.0329 152.492 47.0329 152.164C47.0329 151.836 46.7761 151.57 46.4593 151.57C46.1425 151.57 45.8857 151.836 45.8857 152.164C45.8857 152.492 46.1425 152.758 46.4593 152.758Z" fill="#FFC100"/>
<path d="M66.7052 153.687C64.5716 154.573 62.1212 157.67 61.9587 160.104C61.7962 162.539 63.0547 164.961 64.9925 166.408C66.9897 167.821 69.4341 168.433 71.8517 168.125C73.5645 167.935 75.3022 167.319 76.4607 166.015C77.7442 164.593 78.1484 162.534 77.9609 160.619C77.8462 159.295 77.4451 158.013 76.7862 156.864C76.1272 155.715 75.2265 154.727 74.1479 153.97C71.9559 152.518 68.9513 152.311 66.7052 153.67" fill="#FFC100"/>
<g opacity="0.8">
<path d="M66.7052 153.687C64.5716 154.573 62.1212 157.67 61.9587 160.104C61.7962 162.539 63.0547 164.961 64.9925 166.408C66.9897 167.821 69.4341 168.433 71.8517 168.125C73.5645 167.935 75.3022 167.319 76.4607 166.015C77.7442 164.593 78.1484 162.534 77.9609 160.619C77.8462 159.295 77.4451 158.013 76.7862 156.864C76.1272 155.715 75.2265 154.727 74.1479 153.97C71.9559 152.518 68.9513 152.311 66.7052 153.67" fill="white"/>
</g>
<path fill-rule="evenodd" clip-rule="evenodd" d="M82.5939 106.422C82.5939 106.657 82.5266 106.887 82.4006 107.082C82.2745 107.277 82.0953 107.43 81.8857 107.52C81.6761 107.61 81.4455 107.633 81.223 107.587C81.0004 107.541 80.796 107.428 80.6356 107.262C80.4752 107.096 80.3659 106.884 80.3217 106.654C80.2774 106.423 80.3001 106.184 80.3869 105.967C80.4738 105.75 80.6208 105.565 80.8094 105.434C80.9981 105.304 81.2199 105.234 81.4467 105.234C81.751 105.234 82.0428 105.359 82.2579 105.582C82.473 105.805 82.5939 106.107 82.5939 106.422Z" fill="#FFC100"/>
<path d="M65.9607 66.0267C66.2774 66.0267 66.5342 65.7608 66.5342 65.4327C66.5342 65.1046 66.2774 64.8386 65.9607 64.8386C65.6439 64.8386 65.3871 65.1046 65.3871 65.4327C65.3871 65.7608 65.6439 66.0267 65.9607 66.0267Z" fill="#FFC100"/>
<path d="M79.1522 176.519C79.1522 177.181 69.1398 177.707 56.7833 177.707C44.4267 177.707 34.4143 177.173 34.4143 176.519C34.4143 175.866 44.4267 175.331 56.7833 175.331C69.1398 175.331 79.1522 175.858 79.1522 176.519Z" fill="#FAFAFA"/>
<path d="M22.9424 188.048L28.0998 176.52H84.9902L91.77 188.048C91.77 188.048 22.9424 188.824 22.9424 188.074" fill="#263238"/>
<path d="M58.5854 187.212C58.5404 187.212 58.5036 185.081 58.5036 182.458C58.5036 179.834 58.5404 177.708 58.5854 177.708C58.6304 177.708 58.6713 179.834 58.6713 182.458C58.6713 185.081 58.6345 187.212 58.5854 187.212Z" fill="#455A64"/>
<path d="M87.1818 181.272L86.967 181.314L86.3428 181.395L84.0043 181.674L75.9715 182.57L76.0363 182.527L74.3544 185.697L74.3301 185.745H74.2855H73.6249L62.9374 185.977L59.6951 186.024H58.5036H58.5847H58.8116L59.6911 185.981L62.9334 185.872L73.6208 185.583H74.2814L74.2126 185.631C74.7921 184.536 75.3595 183.475 75.8945 182.461L75.9188 182.423H75.9593L83.9921 181.594L86.3347 181.371L86.9629 181.324L87.1818 181.272Z" fill="#455A64"/>
<path d="M82.5931 181.272C82.0005 180.102 81.6167 178.909 81.446 177.708C81.808 178.285 82.0656 178.877 82.2159 179.477C82.452 180.068 82.5783 180.669 82.5931 181.272Z" fill="#455A64"/>
<path d="M37.8554 188.4C37.8155 188.344 37.7838 188.282 37.7612 188.216L37.5386 187.688L36.7764 185.784L36.8407 185.824L32.7516 185.512C30.6749 185.345 28.7952 185.186 27.4336 185.072L25.8237 184.923C25.6269 184.909 25.4311 184.884 25.2371 184.848C25.4352 184.832 25.6341 184.832 25.8322 184.848L27.4465 184.953C28.8123 185.05 30.692 185.191 32.773 185.358L36.8535 185.696H36.9049V185.736C37.1918 186.514 37.4316 187.169 37.6071 187.653L37.7912 188.189C37.8231 188.256 37.8447 188.327 37.8554 188.4Z" fill="#455A64"/>
<path d="M58.5039 180.465C58.5039 180.465 58.4835 180.465 58.4384 180.465H58.2419H57.4763L54.643 180.497L45.0338 180.533H45.0624L42.4544 181.781L41.0419 182.46H41.0214H40.9968L30.5933 180.82L27.4899 180.298L26.671 180.152L26.454 180.11L26.3844 180.084H26.4581H26.6751L27.5185 180.194L30.6261 180.643L41.0378 182.209H40.9968L42.4094 181.531L45.0215 180.282H45.0502L54.6594 180.319L57.4927 180.35H58.2583H58.4548L58.5039 180.465Z" fill="#455A64"/>
<path d="M100.947 90.9768H88.3286V93.353H100.947V90.9768Z" fill="#FFC100"/>
<path d="M94.0642 94.5408H88.3286V96.917H94.0642V94.5408Z" fill="#FFC100"/>
<path d="M169.486 91.3351C169.51 91.3042 169.539 91.2764 169.57 91.2525L169.835 91.0264L170.037 90.8655L170.298 90.7003L170.61 90.509L170.98 90.3394C172.517 89.7083 174.223 89.6774 175.78 90.2524C176.86 90.6148 177.849 91.2191 178.677 92.0222C179.614 92.9625 180.314 94.1254 180.715 95.4095C181.599 98.1054 181.372 101.406 180.096 104.384C178.82 107.363 176.787 109.75 174.875 111.728C172.963 113.707 171.086 115.351 169.608 116.825C168.426 117.966 167.315 119.183 166.281 120.468C165.919 120.929 165.65 121.295 165.469 121.547L165.262 121.829C165.216 121.89 165.191 121.925 165.187 121.921C165.201 121.883 165.221 121.848 165.246 121.816C165.292 121.738 165.355 121.638 165.435 121.521C165.599 121.26 165.856 120.882 166.214 120.416C167.225 119.103 168.324 117.863 169.502 116.707C170.968 115.22 172.816 113.563 174.732 111.581C176.648 109.598 178.622 107.232 179.898 104.293C181.174 101.354 181.372 98.1141 180.53 95.479C180.141 94.2244 179.465 93.0849 178.559 92.157C177.752 91.3706 176.788 90.7769 175.734 90.4177C174.213 89.8309 172.539 89.8309 171.018 90.4177C170.474 90.6599 169.96 90.9679 169.486 91.3351Z" fill="#263238"/>
<path d="M135.361 162.316V148.523C135.361 143.635 138.457 140.319 142.331 140.267L182.136 139.743C182.769 139.735 183.397 139.86 183.985 140.11C184.572 140.361 185.107 140.732 185.558 141.202C186.008 141.673 186.366 142.233 186.611 142.851C186.855 143.468 186.981 144.131 186.982 144.8V162.065L135.361 162.316Z" fill="#FFC100"/>
<path d="M182.393 143.307H166.333V151.624H182.393V143.307Z" fill="#FAFAFA"/>
<path d="M160.704 161.128C160.646 161.128 160.597 156.341 160.597 150.436C160.597 144.53 160.646 139.743 160.704 139.743C160.761 139.743 160.81 144.53 160.81 150.436C160.81 156.341 160.761 161.128 160.704 161.128Z" fill="#263238"/>
<path d="M161.745 133.151C161.868 133.05 162.007 132.977 162.154 132.936C162.525 132.778 162.914 132.679 163.31 132.642C163.967 132.566 164.631 132.644 165.261 132.873C165.89 133.101 166.472 133.475 166.97 133.971C167.468 134.466 167.871 135.074 168.155 135.754C168.439 136.435 168.597 137.175 168.62 137.929C168.644 138.381 168.612 138.834 168.526 139.276C168.503 139.439 168.458 139.596 168.391 139.743C168.47 139.146 168.496 138.541 168.469 137.938C168.429 137.214 168.264 136.506 167.983 135.856C167.702 135.205 167.31 134.625 166.831 134.148C166.352 133.671 165.795 133.307 165.192 133.077C164.589 132.848 163.952 132.757 163.318 132.81C162.785 132.863 162.258 132.977 161.745 133.151Z" fill="#263238"/>
<path d="M141.096 139.713L160.405 85.0901L174.363 92.0571L157.984 143.307L141.096 139.713Z" fill="#FFC100"/>
<path opacity="0.4" d="M151.508 158.405C154.983 155.552 155.595 150.299 152.875 146.672C150.154 143.045 145.13 142.417 141.655 145.27C138.179 148.123 137.567 153.376 140.288 157.003C143.009 160.63 148.032 161.258 151.508 158.405Z" fill="black"/>
<path d="M154.401 152.214C156.231 148.031 154.452 143.077 150.426 141.15C146.4 139.223 141.653 141.053 139.823 145.236C137.992 149.42 139.772 154.374 143.798 156.301C147.823 158.228 152.57 156.398 154.401 152.214Z" fill="#263238"/>
<path d="M149.71 149.393C150.18 147.827 149.337 146.155 147.827 145.66C146.317 145.164 144.712 146.032 144.242 147.599C143.773 149.165 144.616 150.837 146.125 151.333C147.635 151.828 149.24 150.96 149.71 149.393Z" fill="#455A64"/>
<path d="M150.275 142.119C150.302 142.005 150.336 141.893 150.376 141.783C150.461 141.545 150.571 141.221 150.711 140.821C151.016 139.97 151.445 138.779 151.983 137.311C153.076 134.333 154.573 130.258 156.222 125.752L159.24 117.643L159.299 117.771L153.327 115.644L151.656 115.027L151.233 114.861C151.181 114.846 151.133 114.823 151.088 114.793C151.142 114.8 151.195 114.813 151.245 114.831L151.669 114.971L153.365 115.529L159.363 117.571L159.452 117.601L159.418 117.694C158.57 120.06 157.523 122.846 156.451 125.812L152.14 137.35L150.813 140.834L150.44 141.779C150.399 141.898 150.343 142.013 150.275 142.119Z" fill="#263238"/>
<path d="M167.48 114.791C167.48 114.847 164.107 113.559 159.986 111.92C155.866 110.281 152.548 108.91 152.568 108.854C152.588 108.798 155.946 110.086 160.062 111.729C164.178 113.372 167.504 114.751 167.48 114.791Z" fill="#263238"/>
<path d="M151.422 157.563C151.422 157.563 151.626 157.366 152.004 157.021C152.535 156.533 153.039 156.015 153.513 155.47C155.056 153.652 156.329 151.609 157.292 149.409C158.248 147.201 159.059 144.929 159.719 142.61L160.344 140.508C160.416 140.28 160.471 140.093 160.522 139.935C160.573 139.778 160.59 139.739 160.599 139.743C160.598 139.813 160.587 139.882 160.565 139.948C160.527 140.106 160.48 140.298 160.429 140.53C160.301 141.032 160.114 141.762 159.868 142.658C159.249 144.998 158.455 147.286 157.492 149.501C156.524 151.724 155.22 153.775 153.628 155.579C153.142 156.121 152.618 156.624 152.06 157.087C151.911 157.216 151.757 157.337 151.596 157.449C151.486 157.532 151.426 157.572 151.422 157.563Z" fill="#263238"/>
<path d="M140.18 151.623C140.18 151.623 140.141 151.623 140.068 151.594C139.962 151.552 139.861 151.492 139.768 151.415C139.425 151.123 139.162 150.705 139.014 150.217C138.81 149.493 138.752 148.716 138.845 147.956C138.932 147.039 139.055 146.128 139.215 145.227C139.499 143.589 139.893 141.985 140.394 140.432C140.586 139.835 140.76 139.364 140.882 139.043C140.94 138.871 141.012 138.708 141.096 138.554C141.06 138.734 141.009 138.909 140.945 139.076C140.839 139.41 140.681 139.886 140.507 140.486C140.043 142.046 139.667 143.645 139.383 145.273C139.083 147.167 138.753 148.965 139.126 150.163C139.258 150.631 139.494 151.04 139.805 151.344C140.025 151.553 140.187 151.603 140.18 151.623Z" fill="#263238"/>
<path d="M137.656 181.326C141.457 181.326 144.538 177.868 144.538 173.603C144.538 169.338 141.457 165.881 137.656 165.881C133.854 165.881 130.773 169.338 130.773 173.603C130.773 177.868 133.854 181.326 137.656 181.326Z" fill="#455A64"/>
<path d="M137.655 175.385C138.923 175.385 139.95 174.322 139.95 173.009C139.95 171.697 138.923 170.633 137.655 170.633C136.388 170.633 135.361 171.697 135.361 173.009C135.361 174.322 136.388 175.385 137.655 175.385Z" fill="#263238"/>
<path d="M160.597 181.326C164.399 181.326 167.48 177.868 167.48 173.603C167.48 169.338 164.399 165.881 160.597 165.881C156.796 165.881 153.715 169.338 153.715 173.603C153.715 177.868 156.796 181.326 160.597 181.326Z" fill="#455A64"/>
<path d="M160.598 175.385C161.865 175.385 162.893 174.322 162.893 173.009C162.893 171.697 161.865 170.633 160.598 170.633C159.331 170.633 158.304 171.697 158.304 173.009C158.304 174.322 159.331 175.385 160.598 175.385Z" fill="#263238"/>
<path d="M184.689 181.326C188.49 181.326 191.571 177.868 191.571 173.603C191.571 169.338 188.49 165.881 184.689 165.881C180.887 165.881 177.806 169.338 177.806 173.603C177.806 177.868 180.887 181.326 184.689 181.326Z" fill="#455A64"/>
<path d="M184.688 175.385C185.955 175.385 186.982 174.322 186.982 173.009C186.982 171.697 185.955 170.633 184.688 170.633C183.421 170.633 182.394 171.697 182.394 173.009C182.394 174.322 183.421 175.385 184.688 175.385Z" fill="#263238"/>
<path d="M184.232 183.702H136.964C134.105 183.702 131.363 182.513 129.342 180.396C127.32 178.28 126.184 175.409 126.184 172.415C126.184 169.422 127.32 166.551 129.342 164.434C131.363 162.318 134.105 161.128 136.964 161.128H184.232C187.091 161.128 189.833 162.318 191.855 164.434C193.876 166.551 195.012 169.422 195.012 172.415C195.012 175.409 193.876 178.28 191.855 180.396C189.833 182.513 187.091 183.702 184.232 183.702ZM136.964 164.829C135.043 164.829 133.2 165.629 131.841 167.051C130.483 168.474 129.719 170.403 129.719 172.415C129.719 174.427 130.483 176.357 131.841 177.779C133.2 179.202 135.043 180.001 136.964 180.001H184.232C186.154 180.001 187.996 179.202 189.355 177.779C190.714 176.357 191.477 174.427 191.477 172.415C191.477 170.403 190.714 168.474 189.355 167.051C187.996 165.629 186.154 164.829 184.232 164.829H136.964Z" fill="#263238"/>
<path d="M160.662 164.693C160.576 163.506 160.576 162.315 160.662 161.128C160.743 162.315 160.743 163.506 160.662 164.693Z" fill="#455A64"/>
<path d="M169.84 164.693C169.753 163.506 169.753 162.315 169.84 161.128C169.926 162.315 169.926 163.506 169.84 164.693Z" fill="#455A64"/>
<path d="M179.017 164.693C178.93 163.506 178.93 162.315 179.017 161.128C179.103 162.315 179.103 163.506 179.017 164.693Z" fill="#455A64"/>
<path d="M186.982 165.881C187.101 165.268 187.268 164.665 187.483 164.077C187.652 163.476 187.868 162.887 188.129 162.316C188.008 162.927 187.839 163.529 187.624 164.116C187.454 164.718 187.239 165.307 186.982 165.881Z" fill="#455A64"/>
<path d="M191.57 169.445C192.672 168.991 193.822 168.594 195.012 168.257C194.473 168.496 193.909 168.708 193.325 168.893C192.762 169.107 192.175 169.292 191.57 169.445Z" fill="#455A64"/>
<path d="M160.662 180.138C160.749 181.324 160.749 182.516 160.662 183.702C160.576 182.516 160.576 181.324 160.662 180.138Z" fill="#455A64"/>
<path d="M169.836 180.138C169.922 181.324 169.922 182.516 169.836 183.702C169.755 182.515 169.755 181.324 169.836 180.138Z" fill="#455A64"/>
<path d="M177.867 180.138C177.953 181.324 177.953 182.516 177.867 183.702C177.786 182.515 177.786 181.324 177.867 180.138Z" fill="#455A64"/>
<path d="M186.982 180.138C187.242 180.709 187.457 181.297 187.626 181.898C187.837 182.488 188.006 183.09 188.129 183.702C187.868 183.131 187.653 182.543 187.486 181.942C187.272 181.353 187.103 180.75 186.982 180.138Z" fill="#455A64"/>
<path d="M191.57 175.385C192.173 175.542 192.76 175.727 193.325 175.938C193.909 176.122 194.473 176.334 195.012 176.574C193.821 176.238 192.67 175.841 191.57 175.385Z" fill="#455A64"/>
<path d="M152.629 180.138C152.715 181.324 152.715 182.516 152.629 183.702C152.548 182.515 152.548 181.324 152.629 180.138Z" fill="#455A64"/>
<path d="M143.452 180.138C143.539 181.324 143.539 182.516 143.452 183.702C143.371 182.515 143.371 181.324 143.452 180.138Z" fill="#455A64"/>
<path d="M135.361 180.142C135.24 180.753 135.071 181.354 134.857 181.942C134.688 182.542 134.473 183.13 134.214 183.702C134.502 182.489 134.885 181.297 135.361 180.138V180.142Z" fill="#455A64"/>
<path d="M130.773 175.385C130.234 175.625 129.67 175.837 129.086 176.021C128.521 176.232 127.934 176.417 127.331 176.574C127.87 176.332 128.436 176.119 129.022 175.935C129.585 175.723 130.17 175.54 130.773 175.385Z" fill="#455A64"/>
<path d="M152.629 164.693C152.548 163.506 152.548 162.315 152.629 161.128C152.715 162.315 152.715 163.506 152.629 164.693Z" fill="#455A64"/>
<path d="M144.604 164.693C144.517 163.506 144.517 162.315 144.604 161.128C144.69 162.315 144.69 163.506 144.604 164.693Z" fill="#455A64"/>
<path d="M136.508 165.881C136.247 165.309 136.032 164.72 135.865 164.118C135.651 163.53 135.482 162.928 135.361 162.316C135.622 162.888 135.837 163.477 136.005 164.079C136.219 164.667 136.387 165.269 136.508 165.881Z" fill="#455A64"/>
<path d="M130.773 169.445C130.169 169.292 129.583 169.108 129.02 168.896C128.435 168.711 127.87 168.497 127.331 168.257C127.936 168.411 128.522 168.597 129.084 168.812C129.669 168.994 130.234 169.206 130.773 169.445Z" fill="#455A64"/>
<path d="M117.007 108.338L143.052 96.9709L144.538 103.051L119.657 114.792L117.007 108.338Z" fill="#E0E0E0"/>
<path d="M165.186 98.7802L146.6 106.476L142.244 94.2875L163.293 85.0901L165.186 98.7802Z" fill="#FFC100"/>
<path d="M171.416 91.0307L183.541 85.664L181.543 80.3379L169.775 85.3892L171.416 91.0307Z" fill="#E0E0E0"/>
<path opacity="0.4" d="M165.76 102.912C169.878 102.912 173.217 99.4543 173.217 95.1892C173.217 90.9241 169.878 87.4666 165.76 87.4666C161.642 87.4666 158.304 90.9241 158.304 95.1892C158.304 99.4543 161.642 102.912 165.76 102.912Z" fill="black"/>
<path d="M171.23 85.1879C172.232 86.3084 172.891 87.7114 173.124 89.2198C173.356 90.7281 173.151 92.2739 172.535 93.6617C171.919 95.0495 170.92 96.217 169.663 97.0166C168.407 97.8161 166.95 98.2117 165.476 98.1535C164.002 98.0952 162.578 97.5857 161.384 96.6893C160.19 95.7929 159.28 94.5499 158.768 93.1175C158.256 91.6851 158.165 90.1276 158.508 88.642C158.851 87.1564 159.611 85.8094 160.693 84.7714C162.144 83.3795 164.069 82.6414 166.045 82.7195C168.021 82.7976 169.886 83.6855 171.23 85.1879Z" fill="#263238"/>
<path d="M167.891 88.4486C168.269 88.883 168.514 89.4232 168.597 90.0015C168.68 90.5799 168.596 91.1706 168.356 91.6998C168.116 92.229 167.73 92.673 167.248 92.9763C166.765 93.2795 166.207 93.4285 165.643 93.4045C165.079 93.3806 164.534 93.1848 164.077 92.8416C163.62 92.4985 163.271 92.0232 163.074 91.4755C162.876 90.9277 162.839 90.3318 162.967 89.7624C163.096 89.1931 163.383 88.6755 163.794 88.2746C164.072 88.0034 164.4 87.7924 164.757 87.6541C165.115 87.5158 165.496 87.4528 165.878 87.469C166.259 87.4853 166.634 87.5803 166.98 87.7485C167.325 87.9167 167.635 88.1547 167.891 88.4486Z" fill="#455A64"/>
<path d="M144.539 93.407C144.656 93.5013 144.764 93.6068 144.862 93.7223C145.083 93.9701 145.372 94.2809 145.712 94.6593L148.634 97.9521L148.519 97.9251L151.202 96.7945C153.473 95.844 155.527 94.9926 157.019 94.3935L158.792 93.6908C159.007 93.5988 159.227 93.5235 159.452 93.4655C159.252 93.5882 159.043 93.6922 158.826 93.7764L157.079 94.5512C155.599 95.1908 153.554 96.0647 151.287 97.0107L148.596 98.1323L148.527 98.1594L148.481 98.1053L145.619 94.7539C145.287 94.3575 145.019 94.0286 144.807 93.7719C144.704 93.6624 144.614 93.5398 144.539 93.407Z" fill="#263238"/>
<path d="M97.5063 113.557L116.257 105.288L121.596 116.778L102.161 125.485L97.5063 113.557Z" fill="#FFC100"/>
<path opacity="0.4" d="M108.933 119.826C109.737 116.315 107.644 112.78 104.258 111.931C100.871 111.081 97.4733 113.24 96.6686 116.751C95.8639 120.262 97.957 123.797 101.344 124.646C104.73 125.496 108.128 123.337 108.933 119.826Z" fill="black"/>
<path d="M105.681 122.071C106.73 118.629 104.892 114.943 101.575 113.837C98.2578 112.731 94.7188 114.624 93.67 118.066C92.6213 121.507 94.4599 125.194 97.7767 126.3C101.094 127.406 104.633 125.512 105.681 122.071Z" fill="#263238"/>
<path d="M98.9141 117.353C99.3321 117.172 99.7924 117.123 100.237 117.212C100.682 117.301 101.091 117.525 101.414 117.855C101.736 118.185 101.956 118.606 102.048 119.066C102.139 119.526 102.097 120.003 101.927 120.438C101.756 120.873 101.465 121.246 101.091 121.51C100.716 121.774 100.274 121.917 99.8214 121.921C99.3684 121.925 98.9242 121.79 98.545 121.534C98.1658 121.277 97.8685 120.909 97.6905 120.478C97.5717 120.19 97.5091 119.88 97.5064 119.567C97.5036 119.253 97.5608 118.942 97.6745 118.652C97.7882 118.361 97.9563 118.097 98.1691 117.874C98.3818 117.651 98.635 117.474 98.9141 117.353Z" fill="#455A64"/>
<path d="M109.911 121.921C109.862 121.769 109.83 121.611 109.816 121.451L109.612 120.129C109.448 118.964 109.213 117.384 108.977 115.554V115.475L109.049 115.446L111.297 114.493C113.497 113.561 115.493 112.734 116.942 112.143L118.663 111.453C118.869 111.359 119.083 111.284 119.301 111.228C119.106 111.346 118.902 111.448 118.691 111.532L116.998 112.285C115.561 112.909 113.576 113.761 111.377 114.693L109.125 115.637L109.185 115.529C109.408 117.35 109.604 118.931 109.748 120.104C109.808 120.644 109.856 121.089 109.891 121.435C109.914 121.596 109.921 121.759 109.911 121.921Z" fill="#263238"/>
<path d="M88.5207 124.28L88.329 123.109L83.8076 123.918L83.9992 125.09L88.5207 124.28Z" fill="#263238"/>
<path d="M97.6583 119.29L94.8005 119.762L94.5516 118.357L93.4531 118.539L93.775 120.38L91.7711 120.712L91.9341 121.632L92.5778 125.264L94.5817 124.932L94.8906 126.674L95.869 126.512L95.6716 125.401L98.6538 124.907L97.6583 119.29Z" fill="#263238"/>
<path d="M91.7037 121.112L87.1822 121.921L87.7571 125.435L92.2786 124.626L91.7037 121.112Z" fill="#455A64"/>
<path d="M58.9077 93.4143C58.9077 93.4143 40.1496 92.7732 40.1496 103.31C40.1496 115.241 43.8768 137.597 58.9077 137.364C73.9387 137.132 76.6953 105.784 76.8503 104.39C76.8625 104.377 77.6454 94.3178 58.9077 93.4143Z" fill="#FFC100"/>
<path d="M76.8579 101.644C76.8351 101.672 76.8092 101.695 76.7807 101.715L76.5412 101.898C76.3342 102.062 76.0175 102.283 75.6075 102.556C74.4299 103.308 73.1963 103.937 71.9215 104.435C70.0308 105.178 68.0807 105.702 66.1003 105.999C63.6772 106.355 61.2354 106.512 58.7932 106.469C56.3527 106.48 53.9134 106.337 51.4862 106.041C49.4945 105.792 47.5461 105.2 45.7055 104.284C44.4703 103.655 43.3258 102.811 42.3118 101.78C41.9627 101.405 41.7029 101.094 41.5405 100.878L41.3578 100.625L41.2969 100.535C41.2969 100.535 41.3254 100.559 41.3741 100.611L41.573 100.845C41.7435 101.052 42.0114 101.348 42.3849 101.705C43.4065 102.705 44.5518 103.522 45.7827 104.129C47.6084 105.02 49.5366 105.598 51.5065 105.844C53.9278 106.124 56.3599 106.261 58.7932 106.253C61.2272 106.286 63.6602 106.129 66.0759 105.783C68.0469 105.497 69.9895 104.992 71.8769 104.275C73.1484 103.789 74.3827 103.18 75.5669 102.457C75.9729 102.199 76.3058 101.987 76.5209 101.841L76.7685 101.682C76.7972 101.666 76.8271 101.653 76.8579 101.644Z" fill="#263238"/>
<path d="M65.3569 105.288C65.3765 105.381 65.3862 105.476 65.3861 105.571C65.3861 105.759 65.3861 106.038 65.3861 106.405C65.3866 107.417 65.2806 108.426 65.0698 109.416C64.9199 110.101 64.701 110.769 64.4165 111.409C64.0998 112.15 63.6795 112.842 63.1682 113.465C62.5924 114.15 61.9009 114.729 61.1252 115.174C60.7103 115.403 60.274 115.59 59.8228 115.733C59.3544 115.872 58.871 115.955 58.3831 115.979C57.4191 116.002 56.4666 115.766 55.6243 115.295C54.8414 114.858 54.1516 114.272 53.5937 113.569C52.6637 112.372 52.0536 110.957 51.8211 109.458C51.6591 108.459 51.5949 107.446 51.6297 106.435C51.6297 106.08 51.663 105.801 51.6797 105.601C51.6818 105.504 51.6943 105.407 51.7171 105.313C51.7243 105.409 51.7243 105.505 51.7171 105.601C51.7171 105.809 51.7171 106.084 51.7171 106.435C51.7106 107.437 51.797 108.438 51.9751 109.424C52.2197 110.89 52.8294 112.269 53.7477 113.436C54.2928 114.114 54.964 114.681 55.7242 115.104C56.5401 115.553 57.4608 115.776 58.3914 115.75C58.8609 115.727 59.326 115.649 59.777 115.516C60.2101 115.378 60.6283 115.196 61.0253 114.974C61.7833 114.541 62.4583 113.977 63.0184 113.306C63.5288 112.705 63.9493 112.032 64.2667 111.309C64.5551 110.681 64.7795 110.026 64.9367 109.353C65.1595 108.376 65.2877 107.379 65.3195 106.376C65.3195 106.038 65.3195 105.767 65.3403 105.542C65.3378 105.457 65.3434 105.372 65.3569 105.288Z" fill="#263238"/>
<path d="M69.9747 129.337C69.9498 129.337 69.8254 128.91 69.5021 128.188C69.0369 127.161 68.4447 126.201 67.7401 125.331C66.6878 124.049 65.3983 122.995 63.9468 122.231C62.1573 121.317 60.1743 120.879 58.1786 120.958C56.1829 121.036 54.2379 121.628 52.5211 122.679C51.1293 123.552 49.9212 124.704 48.9682 126.065C48.3276 126.988 47.8077 127.993 47.4219 129.055C47.1482 129.806 47.057 130.242 47.0322 130.238C47.0444 130.129 47.0652 130.022 47.0944 129.917C47.1616 129.615 47.2446 129.317 47.3431 129.025C47.7009 127.942 48.2062 126.917 48.8439 125.98C49.7943 124.584 51.0118 123.402 52.4216 122.508C54.1618 121.429 56.1392 120.821 58.1691 120.742C60.199 120.663 62.2153 121.115 64.0297 122.055C65.4995 122.837 66.7988 123.92 67.8479 125.237C68.5531 126.122 69.1337 127.106 69.5726 128.158C69.7177 128.534 69.8254 128.824 69.8835 129.012C69.9246 129.117 69.9552 129.225 69.9747 129.337Z" fill="#263238"/>
<path d="M66.5335 119.489L67.3559 115.981H74.5634C74.3074 117.027 73.9505 118.247 73.5393 119.545L66.5335 119.489Z" fill="#FAFAFA"/>
<path d="M49.3268 119.489L48.5083 115.981H41.2969C41.553 117.027 41.7702 118.247 42.1775 119.545L49.3268 119.489Z" fill="#FAFAFA"/>
<path opacity="0.4" d="M75.7107 100.792C73.9164 97.6111 69.1705 93.9313 58.9327 93.4144C58.9327 93.4144 47.461 93.0114 42.5618 98.0536C42.0976 98.5705 41.6791 99.1337 41.3119 99.7358C41.0135 100.336 45.1384 105.72 58.3964 105.26C72.0737 104.782 75.7107 100.792 75.7107 100.792Z" fill="black"/>
<path d="M39.7073 82.7141C39.0782 81.1339 38.7733 79.3243 39.2017 77.6618C39.6301 75.9993 40.9037 74.549 42.4436 74.3975" fill="#263238"/>
<path d="M42.4436 74.3975C42.4436 74.4273 42.1288 74.6572 41.6824 75.1214C41.0959 75.7188 40.6055 76.3883 40.2257 77.1101C39.8698 77.8457 39.5654 78.601 39.3141 79.3713C39.2355 79.6996 39.1318 80.0226 39.0039 80.3379C38.9924 79.9983 39.04 79.6592 39.1449 79.333C39.3498 78.5383 39.6362 77.7628 40.0001 77.0164C40.3895 76.274 40.9154 75.5972 41.5555 75.0149C41.803 74.7574 42.105 74.5474 42.4436 74.3975Z" fill="#FFC100"/>
<path d="M77.299 82.7141C77.9288 81.1339 78.234 79.3243 77.8052 77.6618C77.3763 75.9993 76.1012 74.549 74.5634 74.3975" fill="#263238"/>
<path d="M75.711 74.3975C76.0507 74.5457 76.3529 74.7559 76.5988 75.0149C77.2399 75.5963 77.7659 76.2733 78.1537 77.0164C78.5175 77.7628 78.8037 78.5383 79.0086 79.333C79.1135 79.6592 79.161 79.9983 79.1495 80.3379C79.0244 80.0218 78.9208 79.699 78.8395 79.3713C78.5902 78.601 78.2874 77.8457 77.9329 77.1101C77.55 76.389 77.0583 75.7196 76.472 75.1214C76.0257 74.6615 75.6875 74.4273 75.711 74.3975Z" fill="#FFC100"/>
<path d="M41.2817 90.7211C40.3691 89.747 39.6988 88.5541 39.3293 87.2466C38.9598 85.9391 38.9024 84.5569 39.1621 83.2209C40.259 77.445 44.2796 67.0482 59.0546 67.2724C74.5554 67.5008 77.4667 78.7165 77.9657 84.1175C78.0699 85.2227 77.964 86.3386 77.654 87.4009C77.344 88.4632 76.8361 89.451 76.1595 90.3073C73.8544 93.2168 68.9596 96.9755 59.0546 96.9712C49.2444 96.9798 43.9703 93.5573 41.2817 90.7211Z" fill="#FFC100"/>
<path d="M52.7674 67.2688C52.8034 67.3289 52.8314 67.3943 52.8506 67.4629L53.0568 68.0324C53.2352 68.5242 53.4849 69.2404 53.8734 70.0817C54.3134 71.0716 54.9168 71.9651 55.6534 72.7177C56.5447 73.6517 57.7342 74.1729 58.9715 74.1716C60.2049 74.0912 61.3789 73.5677 62.3095 72.6832C63.0673 71.9553 63.7032 71.0897 64.1886 70.1248C64.5222 69.4745 64.8201 68.8032 65.0805 68.1144C65.1689 67.8566 65.2708 67.6045 65.3858 67.3594C65.381 67.4309 65.3649 67.501 65.3382 67.5665C65.2986 67.7002 65.2391 67.8987 65.1559 68.1446C64.9215 68.8516 64.6406 69.5394 64.3154 70.2025C63.8394 71.1979 63.2014 72.091 62.4324 72.8385C61.4747 73.7675 60.2563 74.3165 58.9755 74.3959C58.3115 74.4137 57.6525 74.2661 57.0488 73.9645C56.4908 73.6884 55.9769 73.317 55.5266 72.8644C54.7781 72.0888 54.1726 71.1648 53.7426 70.1421C53.4488 69.4642 53.1946 68.7667 52.9815 68.054C52.9022 67.8009 52.8467 67.6067 52.815 67.4716C52.7933 67.4058 52.7774 67.3379 52.7674 67.2688Z" fill="#263238"/>
<path d="M68.9738 89.6566C61.7814 91.4416 54.7623 91.5087 47.9411 89.732C46.6922 89.4019 45.5869 88.6591 44.7992 87.6205C44.0115 86.5819 43.5861 85.3066 43.5902 83.9955V83.8949C43.5902 83.1157 43.7412 82.3441 44.0347 81.6243C44.3282 80.9044 44.7583 80.2503 45.3006 79.6993C45.8428 79.1483 46.4866 78.7113 47.1951 78.4131C47.9036 78.1149 48.663 77.9614 49.4298 77.9614H67.5757C68.3426 77.9614 69.102 78.1149 69.8105 78.4131C70.519 78.7113 71.1628 79.1483 71.705 79.6993C72.2473 80.2503 72.6774 80.9044 72.9709 81.6243C73.2644 82.3441 73.4154 83.1157 73.4154 83.8949C73.4163 85.2217 72.9792 86.5106 72.1739 87.5551C71.3687 88.5997 70.2419 89.3396 68.9738 89.6566Z" fill="#263238"/>
<path d="M52.7525 84.0901C52.7166 84.322 52.6151 84.5376 52.4609 84.7098C52.3067 84.8819 52.1067 85.0029 51.8861 85.0574C51.6656 85.1119 51.4344 85.0975 51.2218 85.016C51.0091 84.9344 50.8246 84.7895 50.6914 84.5994C50.5583 84.4094 50.4825 84.1827 50.4737 83.948C50.4648 83.7134 50.5233 83.4813 50.6418 83.2811C50.7602 83.0808 50.9333 82.9214 51.1391 82.823C51.345 82.7246 51.5744 82.6916 51.7984 82.7281C51.9475 82.7524 52.0905 82.807 52.2192 82.8886C52.3479 82.9703 52.4597 83.0775 52.5484 83.204C52.637 83.3305 52.7007 83.4739 52.7357 83.626C52.7707 83.7781 52.7764 83.9358 52.7525 84.0901Z" fill="white"/>
<path d="M67.6654 84.0907C67.6293 84.3227 67.5276 84.5384 67.3732 84.7105C67.2188 84.8826 67.0185 85.0034 66.7978 85.0577C66.5771 85.112 66.3458 85.0972 66.1331 85.0154C65.9205 84.9335 65.7361 84.7881 65.6032 84.5977C65.4703 84.4073 65.3949 84.1803 65.3865 83.9455C65.3782 83.7107 65.4372 83.4786 65.5562 83.2786C65.6752 83.0785 65.8487 82.9195 66.055 82.8216C66.2612 82.7238 66.4908 82.6914 66.7148 82.7287C66.8636 82.7534 67.0062 82.8083 67.1345 82.8901C67.2628 82.972 67.3743 83.0792 67.4626 83.2057C67.5508 83.3322 67.6142 83.4755 67.649 83.6273C67.6838 83.7792 67.6894 83.9366 67.6654 84.0907Z" fill="white"/>
<path d="M61.9259 83.9019C61.9789 84.2444 61.9168 84.5944 61.7488 84.8998C61.5911 85.2435 61.3521 85.5461 61.0513 85.7829C60.6856 86.0687 60.2388 86.2391 59.7708 86.2711C59.307 86.307 58.8431 86.203 58.4423 85.9731C58.1175 85.7806 57.8453 85.5146 57.6489 85.1978C57.4445 84.9161 57.342 84.5765 57.3573 84.2321C57.47 84.5348 57.6134 84.8258 57.7854 85.1008C57.9851 85.3794 58.246 85.6111 58.5493 85.7793C58.917 85.9779 59.3368 86.0666 59.756 86.0342C60.1787 86.006 60.5839 85.8588 60.9222 85.6106C61.203 85.3995 61.4345 85.1328 61.6012 84.828C61.7372 84.5292 61.8459 84.2193 61.9259 83.9019Z" fill="white"/>
</g>
<defs>
<clipPath id="clip0_172_6462">
<rect width="200" height="200" fill="white"/>
</clipPath>
</defs>
</svg>
