<svg width="121" height="120" viewBox="0 0 121 120" fill="none" xmlns="http://www.w3.org/2000/svg">
<g clip-path="url(#clip0_896_29009)">
<path d="M60.5421 15.3989H8.50488V49.6702H60.5421V15.3989Z" fill="#F5F5F5"/>
<path d="M16.6555 23.5871C16.6555 23.5871 15.9339 23.1841 15.4654 23.6784C15.3014 23.8542 15.2592 24.4305 15.9011 24.5453C15.9011 24.5453 17.2905 24.4703 17.923 24.3555C18.5556 24.2407 19.9941 23.6058 19.9941 23.6058L20.7415 21.94C20.7415 21.94 20.8375 21.1528 20.9336 21.1341C21.0297 21.1154 21.3225 21.94 21.3225 21.94L22.9344 22.4086L23.1054 22.7343L21.7911 23.2684C21.7911 23.2684 21.9832 25.3395 21.8098 25.7027C21.6297 26.0045 21.4036 26.2764 21.1398 26.5086L21.2147 29.5192C21.2147 29.5192 21.5029 29.4044 21.5217 29.6152H20.7579C20.7579 29.6152 20.451 27.741 20.0105 27.6004L20.1253 26.8155L17.1054 26.5602C17.1054 26.5602 17.3162 27.263 16.4541 27.844C15.9977 28.1376 15.5819 28.4897 15.217 28.8913V29.4653C15.217 29.4653 15.4677 29.5614 15.4865 29.7722H14.5657C14.5657 29.7722 14.6805 28.1814 14.5657 27.912C14.5657 27.912 15.695 26.7593 15.5427 25.3348C15.5427 25.3348 14.2588 25.0092 14.5657 23.7628C14.8726 22.5164 16.3111 22.4953 16.6555 23.5871Z" fill="#E0E0E0"/>
<path d="M16.8478 33.1836C16.8478 33.1836 16.3956 32.9352 16.1074 33.2422C16.071 33.2925 16.0491 33.3518 16.044 33.4137C16.039 33.4756 16.051 33.5377 16.0788 33.5933C16.1066 33.6488 16.149 33.6957 16.2016 33.7288C16.2541 33.7619 16.3148 33.78 16.3769 33.781C16.3769 33.781 17.2414 33.7318 17.6326 33.6615C18.0733 33.5379 18.5041 33.3813 18.9212 33.193L19.3898 32.1574C19.3898 32.1574 19.4484 31.6701 19.5093 31.656C19.5702 31.642 19.7436 32.1574 19.7436 32.1574L20.7463 32.4432L20.8541 32.64L20.0458 32.9751C20.0458 32.9751 20.1629 34.2613 20.0458 34.4886C19.9332 34.6753 19.7925 34.8436 19.6288 34.9876L19.6756 36.8619C19.6756 36.8619 19.8537 36.7892 19.8654 36.9204H19.3968C19.3968 36.9204 19.207 35.749 18.9282 35.6694L18.9985 35.182L17.1242 35.0251C17.1242 35.0251 17.2554 35.4679 16.7189 35.824C16.4338 36.0044 16.1731 36.221 15.9434 36.4683V36.8244C15.9434 36.8244 16.0981 36.8853 16.1121 37.0165H15.5498C15.5498 37.0165 15.6201 36.0278 15.5498 35.8591C15.5498 35.8591 16.2527 35.1422 16.1566 34.2636C16.1566 34.2636 15.3577 34.0622 15.5498 33.2867C15.742 32.5112 16.6369 32.5042 16.8478 33.1836Z" fill="#E0E0E0"/>
<path d="M16.5196 41.1491C16.5196 41.1491 16.1776 40.9617 15.962 41.1937C15.9345 41.2316 15.918 41.2763 15.9142 41.323C15.9104 41.3697 15.9196 41.4165 15.9406 41.4584C15.9616 41.5002 15.9938 41.5354 16.0335 41.5602C16.0733 41.585 16.119 41.5984 16.1659 41.599C16.1659 41.599 16.8148 41.5615 17.103 41.5076C17.4339 41.4159 17.7574 41.2992 18.0706 41.1585L18.422 40.3783C18.422 40.3783 18.4666 40.0105 18.5111 40.0011C18.5556 39.9918 18.6915 40.3783 18.6915 40.3783L19.4482 40.6056L19.5279 40.7579L18.9187 41.0086C18.9187 41.0086 19.0078 41.9785 18.9187 42.1495C18.8343 42.2901 18.7284 42.4166 18.6048 42.5244L18.6423 43.9301C18.6423 43.9301 18.7758 43.8762 18.7852 43.9746H18.4408C18.4408 43.9746 18.2955 43.0961 18.0894 43.0375L18.1432 42.6697L16.7375 42.5525C16.7584 42.6723 16.74 42.7956 16.6851 42.9041C16.6302 43.0126 16.5418 43.1004 16.433 43.1546C16.2183 43.2895 16.0222 43.4517 15.8496 43.6373V43.8856C15.8496 43.8856 15.9644 43.9325 15.9738 44.0309H15.5403C15.5676 43.741 15.5676 43.4492 15.5403 43.1593C15.6936 42.9996 15.8138 42.8112 15.8942 42.605C15.9746 42.3988 16.0136 42.1787 16.0089 41.9574C15.9292 41.9411 15.8535 41.909 15.7865 41.8628C15.7195 41.8167 15.6624 41.7576 15.6187 41.6889C15.575 41.6203 15.5455 41.5436 15.532 41.4633C15.5186 41.3831 15.5214 41.3009 15.5403 41.2218C15.6856 40.6478 16.358 40.6384 16.5196 41.1491Z" fill="#E0E0E0"/>
<path d="M52.677 24.9344C52.677 24.9672 47.2673 24.9954 40.5925 24.9954C33.9177 24.9954 28.5081 24.9672 28.5081 24.9344C28.5081 24.9016 33.9177 24.8735 40.5925 24.8735C47.2673 24.8735 52.677 24.9087 52.677 24.9344Z" fill="#E0E0E0"/>
<path d="M52.677 25.8671C52.677 25.8999 47.2673 25.928 40.5925 25.928C33.9177 25.928 28.5081 25.8999 28.5081 25.8671C28.5081 25.8343 33.9177 25.8062 40.5925 25.8062C47.2673 25.8062 52.677 25.8319 52.677 25.8671Z" fill="#E0E0E0"/>
<path d="M52.677 26.7968C52.677 26.8319 47.2673 26.8577 40.5925 26.8577C33.9177 26.8577 28.5081 26.8319 28.5081 26.7968C28.5081 26.7616 33.9177 26.7358 40.5925 26.7358C47.2673 26.7358 52.677 26.764 52.677 26.7968Z" fill="#E0E0E0"/>
<path d="M52.677 27.7201C52.677 27.7552 47.2673 27.781 40.5925 27.781C33.9177 27.781 28.5081 27.7552 28.5081 27.7201C28.5081 27.685 33.9177 27.6592 40.5925 27.6592C47.2673 27.6592 52.677 27.6967 52.677 27.7201Z" fill="#E0E0E0"/>
<path d="M52.677 33.0101C52.677 33.0453 47.2673 33.071 40.5925 33.071C33.9177 33.071 28.5081 33.0453 28.5081 33.0101C28.5081 32.975 33.9177 32.9492 40.5925 32.9492C47.2673 32.9492 52.677 32.9773 52.677 33.0101Z" fill="#E0E0E0"/>
<path d="M52.677 33.9427C52.677 33.9779 47.2673 34.0037 40.5925 34.0037C33.9177 34.0037 28.5081 33.9779 28.5081 33.9427C28.5081 33.9076 33.9177 33.8818 40.5925 33.8818C47.2673 33.8818 52.677 33.9099 52.677 33.9427Z" fill="#E0E0E0"/>
<path d="M52.677 34.8754C52.677 34.9082 47.2673 34.9363 40.5925 34.9363C33.9177 34.9363 28.5081 34.9082 28.5081 34.8754C28.5081 34.8426 33.9177 34.8145 40.5925 34.8145C47.2673 34.8145 52.677 34.8426 52.677 34.8754Z" fill="#E0E0E0"/>
<path d="M52.677 35.8075C52.677 35.8403 47.2673 35.8684 40.5925 35.8684C33.9177 35.8684 28.5081 35.8403 28.5081 35.8075C28.5081 35.7747 33.9177 35.7466 40.5925 35.7466C47.2673 35.7466 52.677 35.7724 52.677 35.8075Z" fill="#E0E0E0"/>
<path d="M52.677 41.0883C52.677 41.1211 47.2673 41.1492 40.5925 41.1492C33.9177 41.1492 28.5081 41.1211 28.5081 41.0883C28.5081 41.0555 33.9177 41.0273 40.5925 41.0273C47.2673 41.0273 52.677 41.0555 52.677 41.0883Z" fill="#E0E0E0"/>
<path d="M52.677 42.0116C52.677 42.0444 47.2673 42.0725 40.5925 42.0725C33.9177 42.0725 28.5081 42.0444 28.5081 42.0116C28.5081 41.9788 33.9177 41.9507 40.5925 41.9507C47.2673 41.9507 52.677 41.9858 52.677 42.0116Z" fill="#E0E0E0"/>
<path d="M52.677 42.9486C52.677 42.9814 47.2673 43.0095 40.5925 43.0095C33.9177 43.0095 28.5081 42.9814 28.5081 42.9486C28.5081 42.9158 33.9177 42.8877 40.5925 42.8877C47.2673 42.8877 52.677 42.9182 52.677 42.9486Z" fill="#E0E0E0"/>
<path d="M52.677 43.8856C52.677 43.9208 47.2673 43.9465 40.5925 43.9465C33.9177 43.9465 28.5081 43.9208 28.5081 43.8856C28.5081 43.8505 33.9177 43.8247 40.5925 43.8247C47.2673 43.8247 52.677 43.8505 52.677 43.8856Z" fill="#E0E0E0"/>
<path d="M50.5356 20.2815C50.5356 20.6189 45.1658 20.893 38.5448 20.893C31.9239 20.893 26.5518 20.6189 26.5518 20.2815C26.5518 19.9441 31.9192 19.6724 38.5448 19.6724C45.1704 19.6724 50.5356 19.9441 50.5356 20.2815Z" fill="#E0E0E0"/>
<path d="M90.0926 14.6259H89.4342V13.3795C89.442 13.1968 89.3784 13.0184 89.2568 12.8819C89.1352 12.7454 88.9652 12.6617 88.7829 12.6485H83.7715C83.5896 12.6623 83.4203 12.7463 83.2992 12.8827C83.1781 13.0191 83.1147 13.1972 83.1226 13.3795V14.6259H82.4712V13.3795C82.4611 13.0218 82.5929 12.6748 82.8379 12.414C83.0828 12.1533 83.421 12 83.7786 11.9878H88.7899C89.1479 11.9994 89.4867 12.1524 89.7321 12.4132C89.9776 12.674 90.1097 13.0214 90.0996 13.3795L90.0926 14.6259Z" fill="#EBEBEB"/>
<path d="M97.0555 14.626H75.4005C74.2192 14.626 73.2615 15.5837 73.2615 16.765V29.8264C73.2615 31.0078 74.2192 31.9655 75.4005 31.9655H97.0555C98.2369 31.9655 99.1946 31.0078 99.1946 29.8264V16.765C99.1946 15.5837 98.2369 14.626 97.0555 14.626Z" fill="#EBEBEB"/>
<path d="M87.0562 19.7944H85.5005V26.7644H87.0562V19.7944Z" fill="#F5F5F5"/>
<path d="M82.7922 22.5024V24.0581H89.7622V22.5024H82.7922Z" fill="#F5F5F5"/>
<path d="M92.0768 23.2965C92.0768 23.2965 92.0768 23.2637 92.0768 23.2028C92.0768 23.1419 92.0651 23.0435 92.0558 22.9264C92.0558 22.8655 92.0558 22.7975 92.044 22.7249C92.0323 22.6523 92.0183 22.5703 92.0042 22.4906C91.9783 22.2888 91.9375 22.0891 91.8824 21.8932C91.7461 21.351 91.5281 20.8328 91.2358 20.3563C90.469 19.0917 89.2482 18.1676 87.8229 17.7731C86.3976 17.3786 84.8755 17.5433 83.5676 18.2336C83.3232 18.3681 83.0884 18.5192 82.8647 18.6858C82.6358 18.8566 82.4183 19.042 82.2134 19.2411C82.0111 19.4498 81.8232 19.6721 81.6511 19.9064C81.294 20.387 81.0164 20.9217 80.8288 21.4902C80.432 22.6674 80.432 23.9421 80.8288 25.1193C81.0151 25.6879 81.292 26.2227 81.6488 26.7031C81.8224 26.9376 82.011 27.1606 82.2134 27.3708C82.4183 27.5697 82.6359 27.7552 82.8647 27.926C83.0884 28.0927 83.3232 28.2437 83.5676 28.3782C83.8097 28.5052 84.0602 28.6156 84.3173 28.7085C85.285 29.0608 86.3292 29.1482 87.3419 28.9616C88.1451 28.8107 88.9073 28.4915 89.5783 28.0252C90.2494 27.5588 90.8143 26.9557 91.2358 26.2556C91.5281 25.7791 91.7461 25.2608 91.8824 24.7187C91.9375 24.5228 91.9783 24.3231 92.0042 24.1212C92.0183 24.0322 92.0347 23.9525 92.044 23.8869C92.0534 23.8213 92.044 23.7464 92.0558 23.6855C92.0558 23.5683 92.0722 23.4769 92.0768 23.409C92.0815 23.3411 92.0768 23.3153 92.0768 23.3153C92.0809 23.3464 92.0809 23.3779 92.0768 23.409C92.0768 23.4769 92.0768 23.5683 92.0768 23.6855C92.0768 23.7479 92.0768 23.8159 92.0768 23.8893C92.0768 23.9643 92.0558 24.0463 92.044 24.1353C92.0204 24.3391 91.9828 24.5411 91.9316 24.7397C91.8002 25.2887 91.587 25.8147 91.299 26.3001C90.8768 27.0146 90.3075 27.6311 89.6289 28.1089C88.9504 28.5868 88.178 28.9149 87.363 29.0717C86.3335 29.2691 85.27 29.1883 84.2822 28.8374C84.0195 28.7433 83.7635 28.6314 83.516 28.5024C83.2652 28.3626 83.0241 28.2061 82.7944 28.0338C82.5609 27.8599 82.3386 27.6714 82.1291 27.4692C81.9221 27.2558 81.7295 27.0288 81.5527 26.7897C81.1871 26.2989 80.9031 25.7522 80.7116 25.1708C80.5176 24.5728 80.4157 23.9487 80.4094 23.32C80.4169 22.6906 80.5188 22.0659 80.7116 21.4668C80.9045 20.8867 81.1885 20.3411 81.5527 19.8502C81.7296 19.6112 81.9222 19.3843 82.1291 19.1708C82.3306 18.9608 82.5459 18.7643 82.7734 18.5827C83.0013 18.4091 83.2417 18.2525 83.4926 18.1141C83.7401 17.9851 83.996 17.8732 84.2587 17.7791C85.2457 17.4283 86.3085 17.3475 87.3372 17.5448C88.1526 17.7013 88.9255 18.0293 89.6044 18.5071C90.2834 18.985 90.8531 19.6017 91.2756 20.3164C91.5636 20.8018 91.7768 21.3279 91.9082 21.8768C91.9595 22.0754 91.9971 22.2774 92.0206 22.4812C92.0323 22.5703 92.0464 22.6499 92.0534 22.7155C92.0604 22.7811 92.0534 22.8584 92.0534 22.9217C92.0534 23.0365 92.0534 23.1302 92.0534 23.1981C92.0658 23.2297 92.0737 23.2628 92.0768 23.2965Z" fill="#F5F5F5"/>
<path d="M106.954 15.9029V13.2812H105.11V15.9029H103.255V30.8972H108.678V15.9029H106.954Z" fill="#EBEBEB"/>
<path d="M115.013 30.8994H70.2742V33.1814H115.013V30.8994Z" fill="#E0E0E0"/>
<path d="M80.3204 33.1836H79.0178V38.5792H80.3204V33.1836Z" fill="#E0E0E0"/>
<path d="M106.368 33.1836H105.066V38.5792H106.368V33.1836Z" fill="#E0E0E0"/>
<path d="M96.8657 19.937V18.0205H95.5162V19.937H94.1597V30.8992H98.1238V19.937H96.8657Z" fill="#FAFAFA"/>
<path d="M101.364 19.937V18.0205H100.017V19.937H98.6604V30.8992H102.62V19.937H101.364Z" fill="#F5F5F5"/>
<path d="M79.0178 23.7769H71.8955V30.8991H79.0178V23.7769Z" fill="#E0E0E0"/>
<path d="M78.9827 25.6113C78.9827 25.6582 77.4106 25.6956 75.4684 25.6956C73.5262 25.6956 71.9541 25.6582 71.9541 25.6113C71.9541 25.5644 73.5262 25.5293 75.4684 25.5293C77.4106 25.5293 78.9827 25.5621 78.9827 25.6113Z" fill="#EBEBEB"/>
<path d="M75.7261 26.5488C75.7261 26.5488 75.7519 26.5488 75.7987 26.5605C75.8666 26.5792 75.9308 26.6093 75.9885 26.6496C76.1989 26.8094 76.3391 27.0445 76.3798 27.3056C76.4688 27.6886 76.4022 28.0914 76.1947 28.4254C76.0637 28.6243 75.8686 28.7723 75.6418 28.8448C75.3998 28.9138 75.1434 28.9138 74.9014 28.8448C74.6646 28.7928 74.4469 28.6761 74.2723 28.5078C74.0978 28.3394 73.9733 28.1261 73.9127 27.8913C73.8698 27.6984 73.8782 27.4976 73.937 27.3089C73.9957 27.1203 74.1029 26.9503 74.2478 26.8159C74.441 26.6404 74.6898 26.5384 74.9506 26.5277C75.0454 26.5158 75.1416 26.5321 75.2271 26.5746C75.2271 26.5886 75.1263 26.5746 74.9577 26.5933C74.7186 26.6251 74.4961 26.7327 74.3227 26.9002C74.2005 27.0241 74.112 27.1772 74.0656 27.3449C74.0193 27.5126 74.0167 27.6894 74.058 27.8585C74.165 28.1625 74.3808 28.4162 74.6637 28.5706C74.9466 28.725 75.2766 28.7693 75.5902 28.6949C75.7815 28.6338 75.9466 28.51 76.0588 28.3434C76.248 28.0432 76.3167 27.6824 76.2509 27.3337C76.2248 27.0942 76.1134 26.8722 75.937 26.7081C75.8198 26.591 75.7214 26.5629 75.7261 26.5488Z" fill="#EBEBEB"/>
<path d="M12.6728 83.0841C11.1804 82.3156 9.42555 82.2149 7.76915 82.489C6.87887 82.6366 5.9511 82.9014 5.3443 83.5691C4.7375 84.2368 4.62504 85.4152 5.32087 85.9892C5.73321 86.3313 6.3119 86.3828 6.84841 86.3758C8.14401 86.3618 9.58253 86.1415 10.6204 86.9123C11.2108 87.3575 11.6044 88.0978 12.3096 88.318C13.0148 88.5383 13.7809 88.1236 14.1488 87.5004C14.4851 86.85 14.5597 86.0955 14.3573 85.3918C14.2732 84.9034 14.0775 84.441 13.7853 84.0407C13.4931 83.6404 13.1123 83.313 12.6728 83.0841Z" fill="#EBEBEB"/>
<path d="M16.0909 76.4866C15.1795 77.7892 13.406 77.3581 12.5766 76.5615C11.7472 75.765 11.4052 74.6146 11.0912 73.5158C10.3673 71.0043 9.63866 68.3615 10.1775 65.8102C10.3064 65.0347 10.6469 64.3099 11.1615 63.7157C11.698 63.1487 12.5251 62.8113 13.2701 63.0128C14.1651 63.2471 14.7203 64.1257 15.1209 64.9574C16.3041 67.417 16.9244 70.1094 16.9367 72.8387C16.9367 74.1086 16.7914 75.4393 16.0745 76.4889" fill="#EBEBEB"/>
<path d="M18.5977 78.3563C17.6067 77.1848 17.4263 75.4652 17.8597 73.9915C18.2931 72.5179 19.2959 71.2668 20.4369 70.2429C21.7895 69.0406 23.3636 68.1135 25.071 67.5135C25.7309 67.247 26.4406 67.1263 27.1515 67.1597C27.8543 67.2277 28.5689 67.5885 28.8969 68.2164C29.3842 69.1535 28.918 70.2734 28.4119 71.1918C27.5209 72.8124 26.5024 74.3597 25.3662 75.8189C24.4549 76.9904 23.4123 78.1618 22.023 78.6843C20.6337 79.2067 19.1928 79.1528 18.4571 78.1899" fill="#EBEBEB"/>
<path d="M16.0254 88.3999C16.0039 88.127 16.0039 87.8528 16.0254 87.5799C16.073 86.834 16.159 86.0912 16.2831 85.3542C16.4625 84.2614 16.7034 83.1796 17.0047 82.114C17.359 80.8038 17.8125 79.5225 18.3612 78.2811C19.4835 75.6173 21.011 73.4361 22.3441 72.0866C22.638 71.7775 22.951 71.4872 23.2812 71.2174C23.4242 71.0956 23.553 70.9831 23.6819 70.8777L24.045 70.6293C24.2667 70.4626 24.5018 70.3145 24.7479 70.1865C24.7854 70.2404 23.7686 70.8378 22.4823 72.2061C20.8416 74.0249 19.5232 76.1102 18.5838 78.3725C18.046 79.6067 17.5913 80.8754 17.2226 82.1702C16.9125 83.2257 16.656 84.2962 16.4542 85.3776C16.2831 86.3007 16.1847 87.0551 16.1262 87.5775C16.114 87.8539 16.0803 88.1288 16.0254 88.3999Z" fill="#E0E0E0"/>
<path d="M109.674 41.5615H88.0378V64.1162H109.674V41.5615Z" fill="#E0E0E0"/>
<path d="M108.21 41.5615H86.5735V64.1162H108.21V41.5615Z" fill="#EBEBEB"/>
<path d="M105.3 44.5933H89.481V61.0846H105.3V44.5933Z" fill="#FAFAFA"/>
<path d="M89.4809 61.1924C89.3663 61.3561 89.2343 61.5069 89.0873 61.6422C88.8319 61.907 88.4758 62.2678 88.0799 62.659C87.6839 63.0503 87.3161 63.4017 87.0467 63.65C86.91 63.7938 86.7585 63.9227 86.5945 64.0343C86.7108 63.8733 86.8426 63.7242 86.9881 63.5891C87.2435 63.322 87.5996 62.9612 87.9978 62.57C88.3961 62.1787 88.764 61.825 89.031 61.5766C89.1685 61.4346 89.3191 61.3059 89.4809 61.1924Z" fill="#E0E0E0"/>
<path d="M105.302 61.1528C105.463 61.2709 105.613 61.4035 105.75 61.5488C106.014 61.8018 106.375 62.1579 106.767 62.5562C107.158 62.9545 107.509 63.32 107.76 63.5871C107.903 63.725 108.032 63.8764 108.146 64.0392C107.984 63.9243 107.834 63.7924 107.699 63.6456C107.434 63.3926 107.073 63.0365 106.68 62.6359C106.286 62.2352 105.935 61.8721 105.686 61.6027C105.543 61.4662 105.415 61.3155 105.302 61.1528Z" fill="#E0E0E0"/>
<path d="M105.258 44.6377C105.375 44.4757 105.508 44.3251 105.654 44.1879C105.909 43.9231 106.263 43.5623 106.661 43.1711C107.059 42.7798 107.425 42.4284 107.694 42.18C107.831 42.0354 107.982 41.9058 108.147 41.7935C108.029 41.9542 107.897 42.104 107.753 42.2409C107.498 42.5057 107.141 42.8665 106.743 43.2601C106.345 43.6537 105.977 44.0028 105.71 44.2511C105.573 44.3951 105.421 44.5246 105.258 44.6377Z" fill="#E0E0E0"/>
<path d="M89.4387 44.6779C89.2771 44.5607 89.1272 44.4281 88.9912 44.282C88.7241 44.0289 88.3657 43.6728 87.9721 43.2745C87.5785 42.8762 87.2317 42.5108 86.9811 42.2437C86.8379 42.1057 86.7085 41.9543 86.5945 41.7915C86.7572 41.9064 86.9072 42.0383 87.042 42.1851C87.3067 42.4381 87.6675 42.7942 88.0611 43.1949C88.4547 43.5955 88.8038 43.9586 89.0545 44.2281C89.1976 44.3645 89.3263 44.5152 89.4387 44.6779Z" fill="#E0E0E0"/>
<path d="M105.258 61.0845C105.258 61.0845 105.258 61.0564 105.258 61.0048C105.258 60.9533 105.258 60.8736 105.258 60.7706C105.258 60.5644 105.258 60.2668 105.258 59.8803C105.258 59.1001 105.258 57.9638 105.258 56.5206C105.258 53.6319 105.241 49.5178 105.23 44.5884L105.281 44.64H89.5066L89.5675 44.5814C89.5675 50.633 89.5675 56.2957 89.5675 61.0728L89.516 61.0212L100.942 61.047L104.152 61.0611H105H105.218H105.293H105.009H104.173H100.975L89.516 61.0868H89.4668V61.0376C89.4668 56.2606 89.4668 50.5979 89.4668 44.5463V44.4854H89.5277H105.302H105.356V44.5884C105.356 49.5295 105.337 53.6576 105.33 56.5534C105.33 57.9919 105.33 59.1306 105.316 59.9014C105.316 60.2832 105.316 60.5784 105.316 60.7823C105.316 60.8783 105.316 60.951 105.316 61.0166C105.316 61.0822 105.258 61.0845 105.258 61.0845Z" fill="#E0E0E0"/>
<path d="M93.6584 51.4814C93.6584 51.4814 93.3187 55.565 97.7396 55.565C97.7396 53.3862 95.9427 51.6665 93.6584 51.4814Z" fill="#EBEBEB"/>
<path d="M101.748 51.486C101.748 51.486 97.6646 51.1463 97.6646 55.5673C99.8434 55.5673 101.563 53.7703 101.748 51.486Z" fill="#EBEBEB"/>
<path d="M97.5451 49.251C97.5451 49.251 94.2088 52.2452 97.7278 55.565C99.3631 53.8313 99.2249 51.1135 97.5451 49.251Z" fill="#E0E0E0"/>
<path opacity="0.5" d="M120.5 108.857C120.5 108.891 82.7842 108.785 39.7083 108.785C-3.36761 108.785 0.941979 108.891 0.941979 108.857C0.941979 108.823 -3.38384 108.659 39.7083 108.659C82.8004 108.659 120.5 108.82 120.5 108.857Z" fill="#263238"/>
<path d="M51.023 69.0463C51.023 69.0463 46.3021 68.306 45.9085 68.32C45.5149 68.3341 41.7711 69.0674 41.7711 69.0674C41.7711 69.0674 36.4739 70.0045 35.9397 70.3888C35.4055 70.773 35.7991 71.9796 35.7991 71.9796C36.3872 72.2139 38.2404 71.846 38.2404 71.846C38.2607 72.2555 38.3711 72.6555 38.5637 73.0175C38.8964 73.6875 39.8054 73.5188 39.8054 73.5188L39.1025 73.8843C39.162 74.3088 39.2689 74.7253 39.4212 75.126C39.6789 75.8289 41.3681 75.7281 41.3681 75.7281C41.3681 75.7281 41.8132 76.7309 42.5137 76.8996C43.2143 77.0683 46.8597 76.2131 47.9421 76.096C49.0245 75.9788 51.1003 74.6903 51.1003 74.6903C51.9354 74.9869 52.7854 75.2395 53.647 75.447L54.1788 68.5684C53.7805 68.5426 51.023 69.0463 51.023 69.0463Z" fill="#455A64"/>
<path d="M32.1 90.8632C30.0875 90.3571 28.5646 88.5977 27.8828 86.6461C27.2011 84.6945 27.2175 82.5531 27.4143 80.489C27.4907 80.1076 27.459 79.7124 27.3229 79.3481C27.0535 78.7951 26.3131 78.603 25.7251 78.7858C25.137 78.9685 24.6848 79.4324 24.3193 79.9174C23.2804 81.2602 22.6534 82.8756 22.5145 84.5677C22.3756 86.2599 22.7308 87.9559 23.537 89.4501C24.3431 90.9444 25.5656 92.1725 27.056 92.9856C28.5465 93.7987 30.2409 94.1618 31.9336 94.0307" fill="#FFD000"/>
<path d="M47.3566 71.4409C47.3566 71.4409 52.0728 79.6105 53.2653 82.8951C54.4578 86.1798 55.976 95.2115 55.976 95.2115C55.976 95.2115 63.0561 97.0343 58.6703 104.649C57.049 107.46 57.1943 108.767 55.3762 108.852C53.9705 108.915 42.5561 108.828 42.5561 108.828L42.7623 109.946C42.7623 109.946 41.8064 113.174 39.8759 112.263C37.9453 111.351 35.6587 108.828 35.6587 108.828L32.3389 108.784L24.4364 108.84L22.124 108.795V108.732C22.2028 108.104 22.4617 107.512 22.8696 107.028C23.2774 106.543 23.8167 106.187 24.4224 106.003L26.1186 105.487C26.1186 105.487 23.914 96.2283 25.8234 94.0073C27.7328 91.7863 30.8395 91.9386 30.8395 91.9386L29.4127 82.4102C29.1291 80.1764 29.3542 77.9074 30.071 75.7729L31.1417 72.5889L47.3566 71.4409Z" fill="#FFD000"/>
<path d="M30.9682 92.2572C34.2482 94.1151 36.4458 97.2288 37.5446 100.785C37.5446 100.823 37.6125 100.806 37.6008 100.771C36.7504 98.0136 35.2392 95.4599 33.0112 93.595C32.3828 93.0732 31.7093 92.6083 30.9986 92.2057C30.9658 92.187 30.9354 92.2385 30.9682 92.2572Z" fill="#263238"/>
<path d="M31.0387 72.9146C31.0387 72.9146 29.4994 77.0263 29.3705 79.081C29.1573 82.4898 30.8465 91.9339 30.8465 91.9339C30.8465 91.9339 30.2679 101.19 29.7665 102.563C29.2651 103.936 29.4736 105.201 27.1893 105.668C26.5732 105.794 25.4978 107.793 25.4978 108.784H31.8868C31.8868 108.784 33.6158 106.83 33.6978 105.002C33.7798 103.175 36.8208 93.2459 36.8208 93.2459" fill="#FFD000"/>
<path d="M36.8208 93.246C36.8208 93.246 36.8208 93.2717 36.802 93.3209C36.7833 93.3701 36.7669 93.4475 36.7388 93.5412C36.6825 93.7356 36.6005 94.0215 36.4928 94.3893C36.2749 95.139 35.9609 96.2284 35.5556 97.6107C35.1503 98.993 34.6864 100.68 34.2085 102.62C34.089 103.105 33.9742 103.606 33.8711 104.126C33.8477 104.256 33.8242 104.387 33.8008 104.52C33.7774 104.651 33.768 104.785 33.7516 104.918L33.7094 105.33C33.686 105.469 33.6626 105.607 33.6274 105.745C33.2864 106.88 32.7047 107.929 31.9218 108.819L31.9078 108.838H31.882H25.493H25.4321V108.779C25.4892 108.159 25.6751 107.557 25.978 107.013C26.1208 106.73 26.2861 106.458 26.4724 106.202C26.5683 106.072 26.6749 105.951 26.791 105.839C26.9098 105.717 27.0609 105.63 27.2268 105.59C27.8359 105.457 28.4708 105.23 28.8668 104.733C29.2627 104.236 29.3775 103.562 29.5696 102.929C29.6024 102.81 29.6446 102.695 29.6844 102.575C29.7242 102.456 29.7477 102.341 29.7805 102.228C29.8273 101.994 29.8789 101.76 29.9117 101.526C29.9866 101.057 30.0452 100.57 30.0991 100.094C30.2092 99.1429 30.2936 98.2035 30.3756 97.2827C30.5349 95.4319 30.6661 93.6443 30.7785 91.9387V91.9527C30.2936 89.1553 29.907 86.5641 29.6329 84.2213C29.497 83.0499 29.3986 81.9557 29.3377 80.9413C29.2584 80.0029 29.2986 79.0582 29.4572 78.1299C29.6188 77.2888 29.8273 76.5484 30.0148 75.9065C30.2022 75.2645 30.3849 74.7233 30.5349 74.2829C30.6848 73.8424 30.809 73.5097 30.891 73.2825L30.9894 73.0271C31.0128 72.9685 31.0269 72.9404 31.0269 72.9404L30.9988 73.0295C30.9777 73.0927 30.9472 73.1771 30.9097 73.2895C30.8324 73.5238 30.7176 73.8588 30.57 74.2946C30.4224 74.7304 30.2537 75.2809 30.0686 75.9229C29.8836 76.5648 29.6821 77.3052 29.5251 78.1439C29.3718 79.0729 29.3372 80.0176 29.422 80.9553C29.4782 81.9768 29.5884 83.0639 29.7289 84.2353C30.0077 86.5641 30.4013 89.1553 30.9004 91.9668V91.9808C30.7902 93.6888 30.6661 95.4764 30.5044 97.3272C30.4248 98.2527 30.3381 99.2015 30.2303 100.139C30.1741 100.607 30.1155 101.095 30.0405 101.575C30.0077 101.809 29.9562 102.055 29.9093 102.296C29.8742 102.416 29.8437 102.531 29.8086 102.657C29.7734 102.784 29.7289 102.892 29.6961 103.004C29.6024 103.32 29.5274 103.641 29.4267 103.96C29.3329 104.282 29.1795 104.583 28.9745 104.848C28.7589 105.104 28.4893 105.308 28.185 105.448C27.8854 105.584 27.5709 105.686 27.2478 105.75C27.1028 105.784 26.9709 105.86 26.8683 105.968C26.757 106.074 26.6551 106.19 26.5637 106.314C26.3817 106.565 26.2203 106.83 26.0811 107.106C25.7857 107.634 25.6031 108.217 25.5446 108.819L25.486 108.76H31.875L31.8352 108.777C32.6086 107.9 33.1846 106.868 33.5244 105.75C33.5572 105.616 33.5829 105.48 33.6064 105.347L33.6485 104.942C33.6649 104.806 33.6766 104.667 33.6977 104.534C33.7188 104.4 33.7469 104.269 33.7727 104.138C33.8758 103.618 33.9953 103.114 34.1148 102.629C34.5997 100.687 35.087 99.0094 35.4877 97.6224C35.8883 96.2355 36.221 95.1531 36.4482 94.4104C36.563 94.0449 36.6497 93.7614 36.7106 93.5646L36.7809 93.3491C36.7911 93.3136 36.8044 93.2791 36.8208 93.246Z" fill="#263238"/>
<path d="M48.008 77.188C48.008 77.188 48.0314 77.2372 48.0712 77.3379L48.2399 77.7878C48.3875 78.186 48.6007 78.7694 48.8772 79.5191C49.4231 81.0256 50.2126 83.2045 51.1287 85.9198C51.363 86.5992 51.5972 87.3115 51.8198 88.0612C51.9369 88.4337 52.0541 88.8179 52.1548 89.2115C52.2504 89.6161 52.3216 90.0261 52.368 90.4392C52.5719 92.1143 52.6679 93.9136 52.7757 95.8043C52.8835 97.695 52.9725 99.6818 53.1107 101.736C53.1833 102.763 53.2583 103.81 53.4036 104.859C53.4411 105.122 53.4832 105.387 53.5418 105.644C53.5704 105.775 53.608 105.903 53.6543 106.029C53.6752 106.087 53.7036 106.142 53.7386 106.193C53.755 106.211 53.7738 106.235 53.7901 106.239C53.8184 106.252 53.8473 106.263 53.8768 106.272C54.1435 106.35 54.3959 106.47 54.6242 106.628C54.7388 106.709 54.8455 106.8 54.9428 106.9C55.0382 107.004 55.1223 107.118 55.1935 107.24C55.4661 107.741 55.5492 108.323 55.4278 108.88V108.927H55.3786H48.2352H48.1743V108.868C48.2023 108.271 48.2926 107.679 48.4437 107.102C48.5796 106.532 48.7343 105.977 48.9123 105.433V105.457C48.4812 102.645 48.0736 100.043 47.6917 97.7255C47.4972 96.5681 47.3168 95.4787 47.1153 94.4759C47.0872 94.3518 47.0662 94.2252 47.0334 94.1058L46.9865 93.9277C46.9667 93.8712 46.9424 93.8164 46.9139 93.7637C46.7978 93.5556 46.6637 93.358 46.5132 93.1733C46.2274 92.8031 45.9299 92.4704 45.6487 92.1448C44.5078 90.8703 43.5565 89.9074 42.9099 89.2443L42.1649 88.4876L41.9751 88.2931C41.9306 88.2486 41.9119 88.2252 41.9119 88.2252L41.9798 88.2861L42.179 88.4735C42.3523 88.6469 42.6046 88.8952 42.9357 89.2186C43.5893 89.8746 44.5499 90.8304 45.7003 92.0979C45.9838 92.4189 46.2836 92.7539 46.5741 93.1288C46.7294 93.3162 46.8667 93.5178 46.9841 93.7309C47.0159 93.7862 47.0425 93.8442 47.0638 93.9043L47.1107 94.087C47.1458 94.2088 47.1669 94.333 47.195 94.4595C47.4035 95.4646 47.5863 96.5517 47.7831 97.7114C48.1743 100.029 48.589 102.631 49.0224 105.443V105.469C48.8561 106.01 48.7015 106.563 48.5679 107.13C48.4209 107.699 48.3322 108.283 48.3032 108.87L48.2446 108.812L55.388 108.798L55.3271 108.845C55.4367 108.319 55.3536 107.771 55.0928 107.301C55.0251 107.187 54.9466 107.081 54.8585 106.982C54.7663 106.889 54.6659 106.804 54.5586 106.729C54.3441 106.579 54.1068 106.464 53.8558 106.389C53.8207 106.378 53.7863 106.365 53.7527 106.35C53.7123 106.331 53.6781 106.301 53.6543 106.263C53.6112 106.204 53.5772 106.139 53.5535 106.071C53.5048 105.943 53.4657 105.811 53.4364 105.677C53.3755 105.412 53.3333 105.148 53.2958 104.883C53.1505 103.824 53.0756 102.774 53.0029 101.748C52.8671 99.6911 52.7687 97.7044 52.675 95.8137C52.5812 93.923 52.4781 92.126 52.2813 90.4556C52.2355 90.0466 52.1659 89.6406 52.0728 89.2396C51.9682 88.8476 51.8581 88.4649 51.7425 88.0916C51.5082 87.3443 51.2739 86.632 51.0584 85.9526C50.154 83.2349 49.3762 81.0514 48.8444 79.5402C48.5773 78.7882 48.3758 78.2024 48.2282 77.7995C48.1603 77.605 48.1064 77.4527 48.0712 77.3473C48.0361 77.2419 48.008 77.188 48.008 77.188Z" fill="#263238"/>
<path d="M41.7689 98.7656C41.7222 98.7361 41.6782 98.7024 41.6377 98.6649L41.2792 98.3603C40.9747 98.0885 40.5436 97.6809 40.0446 97.1467C38.7541 95.7443 37.559 94.2572 36.467 92.6953C35.359 91.1467 34.3571 89.5248 33.4681 87.8409C33.1331 87.1896 32.8942 86.6484 32.7419 86.2688C32.6763 86.0861 32.6224 85.9408 32.5802 85.8284C32.5592 85.7776 32.5428 85.7251 32.531 85.6714C32.5603 85.7179 32.5847 85.7674 32.6036 85.819L32.7864 86.2501C32.9527 86.6226 33.2011 87.1568 33.5455 87.801C34.4544 89.4687 35.4637 91.0796 36.5678 92.625C37.6577 94.1782 38.8399 95.6647 40.1078 97.0764C40.5975 97.6176 41.0168 98.0323 41.312 98.3134L41.6541 98.6344C41.6962 98.6747 41.7346 98.7186 41.7689 98.7656Z" fill="#263238"/>
<path d="M37.84 97.8685C38.2731 99.2529 38.5597 100.679 38.6951 102.123C38.6992 102.277 38.7623 102.424 38.8712 102.533C38.9802 102.642 39.1268 102.705 39.2808 102.709C39.436 102.708 39.5846 102.646 39.6943 102.537C39.804 102.427 39.8659 102.278 39.8665 102.123C39.7285 100.574 39.4278 99.0432 38.9692 97.5569C38.9279 97.4071 38.8288 97.2799 38.6937 97.2033C38.5586 97.1266 38.3985 97.1067 38.2488 97.1481C38.099 97.1894 37.9718 97.2885 37.8952 97.4236C37.8185 97.5587 37.7986 97.7187 37.84 97.8685Z" fill="#FFD000"/>
<path d="M31.0761 73.8562C30.8769 68.8448 30.5161 62.9947 31.062 61.0876C31.6079 59.1805 35.4432 55.4132 37.6478 54.5276C39.8524 53.642 43.5049 54.8181 44.6061 55.7951L51.5456 54.127C51.5456 54.127 52.9068 57.2828 51.2293 59.8131C49.5518 62.3434 44.6037 62.3152 44.6037 62.3152C44.6037 62.3152 44.1609 65.0681 46.2765 65.3094C48.3921 65.5507 51.2083 65.2204 51.4777 67.5211L47.1317 67.91L47.366 71.7429L39.0957 76.1381L31.3525 73.903" fill="#FFD000"/>
<path d="M37.0199 57.5806C37.0447 57.6476 37.0597 57.7178 37.0644 57.7891L37.1511 58.3935C37.2213 58.9488 37.3151 59.7009 37.4322 60.6169C37.5493 61.533 37.6665 62.6856 37.8188 63.9203C37.9067 64.573 37.9583 65.23 37.9734 65.8883C37.999 66.6075 37.8803 67.3244 37.6243 67.9969C37.347 68.6802 36.8165 69.2299 36.1436 69.5315C35.5148 69.7911 34.8216 69.8524 34.1569 69.7072C33.5585 69.5838 33.0018 69.3087 32.5403 68.9083C32.1505 68.5544 31.8323 68.1289 31.6032 67.6548C31.27 66.9728 31.0916 66.2256 31.0807 65.4666C31.0747 65.2626 31.0817 65.0583 31.1018 64.8551C31.1039 64.7834 31.1165 64.7123 31.1393 64.6443C31.158 64.6443 31.1276 64.9371 31.1604 65.4619C31.2035 66.2022 31.3989 66.9256 31.7344 67.5869C31.9687 68.0393 32.2867 68.4432 32.6715 68.7771C33.1149 69.1515 33.6462 69.4071 34.2155 69.5198C34.8435 69.6534 35.4974 69.5921 36.0897 69.3441C36.714 69.0625 37.2051 68.5504 37.4603 67.9149C37.7045 67.2688 37.8191 66.581 37.7977 65.8907C37.7843 65.2397 37.7373 64.5899 37.6571 63.9438C37.5283 62.7044 37.4111 61.5845 37.3127 60.6333C37.2143 59.6821 37.1534 58.9582 37.0995 58.4006C37.0808 58.1663 37.0644 57.9554 37.0503 57.7938C37.0318 57.7241 37.0216 57.6526 37.0199 57.5806Z" fill="#263238"/>
<path d="M49.4767 54.6564C49.468 55.0308 49.6039 55.3942 49.8563 55.6709C50.1061 55.916 50.4153 56.092 50.7536 56.1816C51.1771 56.3541 51.6484 56.3691 52.082 56.2238C52.0813 55.6671 51.9944 55.1139 51.8243 54.5838C51.8072 54.4999 51.773 54.4203 51.7238 54.3502C51.6746 54.28 51.6115 54.2208 51.5384 54.1761C51.4469 54.1434 51.3487 54.1337 51.2526 54.148C50.6312 54.194 50.0262 54.3696 49.4767 54.6635" fill="#263238"/>
<g opacity="0.3">
<path d="M31.1487 65.9045C31.3362 67.1439 31.6782 68.5004 32.524 69.4188C33.3698 70.3372 34.7028 70.8854 35.9118 70.5621C37.3995 70.1638 38.3179 68.5824 38.4374 67.0478C38.5568 65.5132 38.0438 64.0021 37.5377 62.5542C37.772 63.9388 38.0227 65.3656 37.697 66.7339C37.3714 68.1021 36.3311 69.3977 34.9371 69.564C34.4495 69.6066 33.9588 69.5318 33.5059 69.346C33.0531 69.1601 32.6513 68.8686 32.3342 68.4957C31.6641 67.7858 31.2459 66.8754 31.144 65.9045" fill="black"/>
</g>
<path d="M52.1054 56.772C52.1243 56.8923 52.1243 57.0148 52.1054 57.1351C52.0789 57.4644 52.0264 57.7911 51.9485 58.1121C51.8333 58.5901 51.6652 59.0537 51.4471 59.4944C51.1833 60.0453 50.8018 60.5315 50.3295 60.9188C49.8479 61.2864 49.311 61.575 48.7387 61.774C48.2779 61.9409 47.8037 62.0687 47.3213 62.1559C46.9978 62.2178 46.6707 62.2593 46.342 62.28C46.2225 62.2997 46.1007 62.2997 45.9812 62.28C45.9812 62.2472 46.4896 62.2051 47.2909 62.0176C47.7602 61.9116 48.2213 61.7722 48.6708 61.6006C49.2194 61.3981 49.735 61.1155 50.2007 60.7619C50.6489 60.3924 51.0151 59.9336 51.2761 59.4147C51.4961 58.9889 51.6735 58.5424 51.8055 58.0816C52.0328 57.2827 52.0679 56.7696 52.1054 56.772Z" fill="#263238"/>
<path d="M41.9937 57.8218C41.8393 57.8853 41.716 58.0069 41.6503 58.1604C41.5846 58.3139 41.5817 58.487 41.6424 58.6426C41.703 58.7981 41.8222 58.9237 41.9745 58.9922C42.1267 59.0608 42.2998 59.0669 42.4564 59.0091C42.6131 58.9514 42.7409 58.8345 42.8122 58.6836C42.8836 58.5327 42.8929 58.3598 42.8381 58.2021C42.7833 58.0443 42.6688 57.9144 42.5192 57.8403C42.3697 57.7661 42.1969 57.7536 42.0382 57.8054" fill="#263238"/>
<path d="M39.597 58.5645C39.5197 58.5949 39.3908 58.4942 39.2948 58.274C39.1781 57.9814 39.1536 57.6601 39.2245 57.3532C39.2851 57.0445 39.4398 56.7622 39.6673 56.5449C39.8454 56.3833 40.0047 56.3435 40.0632 56.402C40.1827 56.5332 39.9414 56.9479 39.829 57.4844C39.7165 58.0209 39.7704 58.4942 39.597 58.5645Z" fill="#263238"/>
<path d="M48.2328 99.5502C48.2328 99.5642 47.9985 99.5502 47.5604 99.5713C47.2986 99.5833 47.0378 99.6139 46.7803 99.6626C46.4405 99.7242 46.1134 99.8422 45.8127 100.012C45.1403 100.384 44.4866 101.052 43.7369 101.743C42.9872 102.434 42.3101 103.36 41.3355 104.06C40.8615 104.407 40.3139 104.639 39.7353 104.74C39.1753 104.831 38.6341 104.819 38.1257 104.859C37.647 104.875 37.1773 104.993 36.7481 105.206C36.3814 105.405 36.0668 105.687 35.8297 106.031C35.4776 106.528 35.2922 107.124 35.3003 107.734C35.3132 107.957 35.3422 108.178 35.3869 108.397C35.3049 108.186 35.2597 107.962 35.2534 107.736C35.2251 107.112 35.4029 106.495 35.7595 105.981C35.9988 105.623 36.32 105.327 36.6966 105.117C37.1369 104.893 37.6205 104.768 38.114 104.749C38.6295 104.704 39.1683 104.712 39.7119 104.622C40.2723 104.523 40.8027 104.297 41.2628 103.962C42.2164 103.275 42.9028 102.366 43.6572 101.663C44.4116 100.961 45.0629 100.312 45.7658 99.9344C46.0775 99.7669 46.4147 99.6522 46.7639 99.5947C47.0248 99.5506 47.2888 99.5271 47.5534 99.5244C47.7713 99.5244 47.94 99.5244 48.0548 99.5361C48.1144 99.5362 48.1739 99.5409 48.2328 99.5502Z" fill="#263238"/>
<path d="M39.5081 106.689C39.5785 106.672 39.6512 106.666 39.7236 106.671C39.92 106.673 40.1156 106.697 40.307 106.741C40.9503 106.882 41.533 107.222 41.9721 107.712C42.4112 108.203 42.6844 108.82 42.7529 109.475C42.774 109.67 42.774 109.868 42.7529 110.063C42.7508 110.135 42.7365 110.206 42.7108 110.274C42.6873 110.274 42.7365 109.967 42.6639 109.484C42.575 108.855 42.301 108.266 41.8768 107.793C41.4525 107.319 40.8972 106.982 40.2812 106.825C39.815 106.699 39.5057 106.713 39.5081 106.689Z" fill="#263238"/>
<path d="M41.8204 109.777C41.8007 109.965 41.7417 110.147 41.647 110.311C41.4391 110.721 41.1219 111.066 40.7303 111.307C40.3387 111.548 39.8881 111.676 39.4283 111.677C39.2391 111.69 39.0493 111.66 38.873 111.59C38.873 111.571 39.0862 111.611 39.4236 111.59C39.8634 111.567 40.2903 111.434 40.6653 111.203C41.0403 110.973 41.3513 110.651 41.5697 110.269C41.7407 109.976 41.7993 109.777 41.8204 109.777Z" fill="#263238"/>
<path d="M39.7985 108.266C39.7985 108.285 39.6111 108.322 39.3299 108.442C38.9595 108.595 38.6266 108.826 38.3543 109.12C38.0821 109.414 37.877 109.764 37.7532 110.145C37.6548 110.438 37.6337 110.63 37.6126 110.628C37.5969 110.456 37.6169 110.283 37.6712 110.119C37.7792 109.714 37.9853 109.341 38.2713 109.035C38.5573 108.728 38.9145 108.496 39.3112 108.36C39.465 108.294 39.6312 108.262 39.7985 108.266Z" fill="#263238"/>
<path d="M53.1411 109.001C53.1456 108.844 53.162 108.688 53.1903 108.533C53.2392 108.158 53.2048 107.776 53.0895 107.415C52.9609 107.062 52.7018 106.772 52.3656 106.605C52.2204 106.548 52.0696 106.507 51.9158 106.483C52.0773 106.439 52.2493 106.454 52.4007 106.525C52.5861 106.603 52.7532 106.719 52.8916 106.865C53.0299 107.011 53.1364 107.184 53.2043 107.373C53.329 107.751 53.3532 108.155 53.2746 108.545C53.257 108.703 53.2118 108.858 53.1411 109.001Z" fill="#263238"/>
<path d="M30.0077 106.316C30.0077 106.338 29.7898 106.316 29.4525 106.361C29.0127 106.425 28.5974 106.604 28.2482 106.879C27.9037 107.161 27.6382 107.527 27.4774 107.942C27.3556 108.261 27.3345 108.477 27.3134 108.474C27.2984 108.283 27.3273 108.091 27.3978 107.912C27.5387 107.468 27.8078 107.075 28.1713 106.783C28.5348 106.491 28.9765 106.313 29.4407 106.272C29.6306 106.243 29.8246 106.258 30.0077 106.316Z" fill="#263238"/>
<path d="M59.1762 104.18C59.1762 104.18 59.2887 104.032 59.4668 103.751C59.7162 103.356 59.9116 102.929 60.0478 102.481C60.2463 101.816 60.3334 101.123 60.3055 100.429C60.2752 99.5806 60.0761 98.7467 59.7198 97.9761C59.3672 97.2039 58.8158 96.5393 58.122 96.0503C57.5608 95.6494 56.9226 95.3694 56.2477 95.2279C55.7898 95.1347 55.3171 95.1435 54.863 95.2537C54.7403 95.2884 54.6198 95.3307 54.5022 95.3802C54.4624 95.401 54.4198 95.416 54.3757 95.4247C54.4117 95.3972 54.4511 95.3743 54.4929 95.3568C54.6067 95.2965 54.7259 95.2471 54.849 95.2092C55.3059 95.0773 55.7875 95.0548 56.2547 95.1436C56.9507 95.2722 57.6108 95.5495 58.1899 95.9566C58.5348 96.1922 58.8461 96.4736 59.1153 96.7929C59.4014 97.1386 59.643 97.5188 59.8346 97.9246C60.1987 98.71 60.3987 99.5614 60.4226 100.427C60.4464 101.132 60.3489 101.835 60.1345 102.507C59.9887 102.959 59.7789 103.387 59.5113 103.779C59.4129 103.915 59.3332 104.014 59.277 104.084C59.247 104.12 59.2132 104.152 59.1762 104.18Z" fill="#263238"/>
<path d="M30.83 92.2057C29.7392 91.9565 28.5954 92.1017 27.6015 92.6157C26.971 92.9313 26.4162 93.3797 25.9756 93.9301C25.748 94.2107 25.569 94.5275 25.4461 94.8672C25.3378 95.1881 25.2594 95.5183 25.2118 95.8536C25.1334 96.4272 25.0997 97.0061 25.1111 97.5849C25.1111 98.0793 25.1298 98.4799 25.1368 98.7564C25.1368 98.8829 25.1368 98.9907 25.1368 99.075C25.1428 99.1123 25.1428 99.1502 25.1368 99.1875C25.126 99.1518 25.1205 99.1147 25.1204 99.0773C25.1204 98.9883 25.104 98.8852 25.0947 98.7587C25.0736 98.4799 25.0455 98.0793 25.0291 97.5873C25.0066 97.0036 25.0325 96.419 25.1064 95.8395C25.1518 95.4962 25.2303 95.158 25.3407 94.8297C25.4659 94.4755 25.6505 94.1451 25.8865 93.8528C26.3383 93.2886 26.9096 92.8317 27.5593 92.515C28.0868 92.2548 28.6565 92.0906 29.2415 92.03C29.6326 91.9902 30.0275 92.0092 30.4129 92.0863C30.5185 92.1056 30.6227 92.1322 30.7245 92.1659C30.7612 92.1747 30.7967 92.1881 30.83 92.2057Z" fill="#263238"/>
<path d="M21.1657 87.1239C21.1337 87.042 21.1132 86.9561 21.1047 86.8686C21.0629 86.6361 21.0348 86.4014 21.0204 86.1657C20.9136 84.5804 21.2486 82.9965 21.988 81.5901C22.0963 81.3725 22.2183 81.1619 22.3535 80.9599C22.3966 80.8832 22.4494 80.8124 22.5105 80.749C22.5292 80.7607 22.3254 81.0747 22.063 81.6135C21.3778 83.0236 21.0495 84.5803 21.1071 86.147C21.1282 86.7538 21.1867 87.1216 21.1657 87.1239Z" fill="#263238"/>
<path d="M20.4137 87.4896C20.3809 87.4075 20.3581 87.3217 20.3457 87.2342C20.3059 87.0702 20.2661 86.8266 20.2263 86.5314C20.0336 84.955 20.1888 83.3556 20.6808 81.8456C20.7768 81.5575 20.8635 81.3279 20.9338 81.1733C20.9628 81.091 21.0014 81.0123 21.0486 80.939C21.0697 80.939 20.9315 81.2974 20.7628 81.8761C20.3204 83.3872 20.1678 84.9683 20.3129 86.536C20.3668 87.1171 20.4348 87.4872 20.4137 87.4896Z" fill="#263238"/>
<g opacity="0.3">
<path d="M35.6962 96.779C36.6716 97.8509 37.3683 99.1463 37.7251 100.551C37.8286 100.854 37.8327 101.182 37.7368 101.488C37.4674 102.121 36.5982 102.149 36.0055 102.491C35.5064 102.777 35.1995 103.297 34.9137 103.796L32.0085 108.847C32.9059 108.772 33.2385 108.866 34.1359 108.793L35.5791 108.824C35.5252 108.847 35.2979 108.137 35.2792 107.804C35.2206 106.788 35.9071 105.558 36.8208 105.105C37.9664 104.536 39.2855 105.012 40.4499 104.478C41.5627 103.965 42.2257 103.182 42.9497 102.465C43.8587 101.563 44.7607 100.357 45.9251 99.8341C46.4523 99.5998 47.7104 99.5717 47.7104 99.5717C47.1129 98.8688 46.0165 98.9039 45.1332 99.1429C44.25 99.3819 43.3269 99.7731 42.4249 99.5693C41.6681 99.4006 41.066 98.8407 40.5061 98.3042C39.0699 96.9313 37.5845 95.4927 36.9426 93.6021L35.7454 96.697" fill="black"/>
</g>
<g opacity="0.3">
<path d="M55.3761 108.852C55.8446 107.713 54.781 106.368 54.3546 105.215C53.9282 104.063 54.0172 102.76 54.0195 101.516C54.0261 98.8877 53.6019 96.2759 52.7638 93.7847C52.6701 97.2006 53.0613 100.827 53.2651 104.236C53.3073 104.96 53.2511 105.796 53.7829 106.288C54.0547 106.542 54.2163 106.431 54.5209 106.642C54.8255 106.853 55.4229 107.345 55.3761 108.845" fill="black"/>
</g>
<path d="M41.579 75.2036C41.1459 75.05 40.7476 74.8118 40.4073 74.5029C40.067 74.194 39.7916 73.8206 39.5969 73.4043C39.8736 73.7581 40.1717 74.0945 40.4896 74.4117C40.835 74.6991 41.199 74.9637 41.579 75.2036Z" fill="#263238"/>
<path d="M42.4575 74.7233C41.7064 74.497 41.0488 74.0334 40.5833 73.4019C40.6114 73.3785 40.9651 73.751 41.4829 74.1048C42.0007 74.4586 42.4716 74.6882 42.4575 74.7233Z" fill="#263238"/>
<path d="M43.615 74.6809C43.2462 74.6158 42.8983 74.4631 42.6006 74.2358C42.2802 74.0428 42.0097 73.7772 41.811 73.4603C41.8391 73.4345 42.1695 73.8 42.6685 74.135C43.1676 74.47 43.6267 74.6458 43.615 74.6809Z" fill="#263238"/>
<path d="M35.647 84.7435C35.2206 84.5596 34.8457 84.274 34.5552 83.9118C34.2358 83.5761 34.0047 83.1663 33.8828 82.7192C34.1125 83.1072 34.3685 83.4791 34.6489 83.8321C34.9611 84.1576 35.2945 84.4621 35.647 84.7435Z" fill="#263238"/>
<path d="M36.5115 84.7553C35.8489 84.3461 35.3393 83.7303 35.0613 83.0029C35.0941 82.9865 35.3354 83.4386 35.736 83.9213C36.1367 84.4039 36.5326 84.7272 36.5115 84.7553Z" fill="#263238"/>
<path d="M38.018 85.0482C37.7141 84.811 37.4361 84.5424 37.1886 84.2469C36.911 83.9789 36.6628 83.6821 36.4482 83.3613C36.7518 83.5998 37.0297 83.8691 37.2776 84.1649C37.5549 84.4324 37.803 84.7285 38.018 85.0482Z" fill="#263238"/>
<path d="M33.3696 65.5511C33.3696 65.5511 33.2642 65.5089 33.1353 65.3824C32.9836 65.2125 32.8701 65.0119 32.8027 64.7943C32.7281 64.5785 32.7001 64.3493 32.7206 64.1219C32.7394 63.9485 32.7816 63.8478 32.7956 63.8501C32.7968 64.1556 32.8377 64.4596 32.9175 64.7545C33.0312 65.0394 33.1833 65.3074 33.3696 65.5511Z" fill="#263238"/>
<path d="M33.7821 65.3705C33.6052 65.2022 33.4821 64.9854 33.4283 64.7473C33.3384 64.5202 33.3165 64.272 33.365 64.0327C33.4025 64.0327 33.4306 64.3467 33.5454 64.7098C33.6602 65.0729 33.8102 65.3517 33.7821 65.3705Z" fill="#263238"/>
<path d="M34.712 65.9656C34.269 65.4574 33.9854 64.83 33.8967 64.1616C33.9319 64.1616 34.056 64.5787 34.281 65.073C34.5059 65.5673 34.7402 65.9328 34.712 65.9656Z" fill="#263238"/>
<path d="M62.304 22.7046C60.4883 23.8174 59.8722 26.5047 59.7948 28.632C59.7175 30.7593 60.2962 32.8492 60.7671 34.9273C61.238 37.0054 61.6012 39.1819 61.0904 41.253C60.6219 43.1694 59.4223 45.189 60.2822 46.9649C60.9311 48.305 62.5922 49.0008 63.0514 50.4182C63.5856 52.0723 62.2338 53.6982 60.992 54.9048C61.2902 55.3567 61.7454 55.6818 62.2696 55.8173C62.7937 55.9528 63.3495 55.8889 63.8292 55.6381C63.8135 55.8901 63.7458 56.136 63.6305 56.3606C63.5152 56.5852 63.3547 56.7835 63.1592 56.9431C63.8689 57.1137 64.6127 57.0764 65.3019 56.8359C65.9911 56.5954 66.5965 56.1617 67.046 55.5866C66.875 56.177 66.7016 56.758 66.5306 57.3578C67.9565 57.021 69.1952 56.142 69.9839 54.9072L70.5814 56.027C72.8656 54.4573 74.4541 51.988 75.2343 49.3265C76.0144 46.665 76.0215 43.8231 75.574 41.0866C74.9092 37.2146 73.3679 33.5458 71.068 30.3607C68.7681 27.1755 65.7704 24.5584 62.304 22.7093" fill="#263238"/>
<path d="M88.8767 42.216C88.0638 41.239 87.061 40.2691 86.9486 39.0016C86.8994 38.444 87.0329 37.87 86.9064 37.3218C86.5784 35.916 84.7416 35.3514 84.1887 34.0113C83.4858 32.3291 85.0743 30.1034 83.9028 28.7094C83.3406 28.0417 82.373 27.9105 81.635 27.4443C79.7607 26.2564 80.2152 22.9928 75.7192 20.6172L76.0543 27.791C77.5694 33.8583 78.7729 39.9991 79.6599 46.1895L89.8068 45.6881C90.3855 44.5588 89.692 43.193 88.8767 42.216Z" fill="#263238"/>
<path d="M60.1555 25.3193C60.2092 24.4243 60.4407 23.5489 60.8365 22.7444C61.2323 21.9399 61.7846 21.2223 62.4609 20.6336C63.9486 19.3497 65.9564 18.7781 67.9197 18.7593C69.8831 18.7406 71.8253 19.2068 73.6949 19.8113C74.7445 20.151 75.8035 20.5446 76.6539 21.2451C78.2096 22.522 78.8281 24.586 79.3693 26.5236C79.8051 28.0909 80.2455 29.738 79.8847 31.3241C79.7128 32.0533 79.3793 32.7345 78.909 33.3176C78.4386 33.9007 77.8433 34.3708 77.167 34.6931" fill="#263238"/>
<path d="M60.699 23.9699C59.6329 25.7785 59.2129 27.8957 59.5079 29.9743C59.8029 32.0529 60.7954 33.9696 62.3226 35.4101C62.3748 30.8871 62.8208 26.3772 63.6557 21.9316" fill="#263238"/>
<path d="M60.2867 30.1926C59.8182 27.0228 61.0763 22.7424 64.2696 22.4097L71.8722 22.6978C74.3111 22.7916 76.2721 24.4128 76.9538 26.7557C76.9866 26.8728 76.9679 26.7252 76.9843 26.8166L80.5173 45.8172C80.7926 47.3136 80.4654 48.8582 79.6071 50.1145C78.7488 51.3708 77.4288 52.2371 75.9347 52.5248C74.4544 52.8095 72.9215 52.5029 71.6645 51.6708C70.4076 50.8387 69.5267 49.5473 69.2107 48.0733C68.8803 46.5528 68.4938 44.7582 68.4938 44.7676C68.4938 44.7769 64.3563 44.9526 62.4187 39.9155C61.4558 37.4086 60.8069 33.714 60.2867 30.1926Z" fill="#FFBE9D"/>
<path d="M67.0997 27.0202C66.1805 27.5433 65.1639 27.8726 64.1125 27.9878C64.1125 27.9503 64.792 27.8004 65.6143 27.5333C66.4367 27.2662 67.0833 26.9874 67.0997 27.0202Z" fill="#BFA4A0"/>
<path d="M65.8955 27.0859C65.3251 27.4143 64.6794 27.5894 64.0212 27.5943C64.3269 27.4849 64.6401 27.398 64.9584 27.3343C65.2643 27.2286 65.5775 27.1456 65.8955 27.0859Z" fill="#BFA4A0"/>
<path d="M70.2884 36.9378C70.2556 36.9495 70.1643 36.748 69.9253 36.659C69.6863 36.5699 69.4848 36.659 69.4684 36.6145C69.452 36.5699 69.5013 36.5535 69.595 36.5207C69.7186 36.481 69.8524 36.4868 69.9722 36.5371C70.0939 36.5832 70.1958 36.6702 70.2603 36.7831C70.3025 36.8722 70.3002 36.9354 70.2884 36.9378Z" fill="#BFA4A0"/>
<path d="M62.3228 34.0277C62.3585 34.2024 62.461 34.3563 62.6085 34.4565C62.756 34.5567 62.9367 34.5954 63.1123 34.5643C63.1989 34.5531 63.2823 34.5247 63.3577 34.4807C63.4331 34.4367 63.4988 34.3779 63.5511 34.308C63.6033 34.2381 63.6409 34.1583 63.6618 34.0736C63.6826 33.9888 63.6861 33.9007 63.6722 33.8145C63.637 33.64 63.535 33.4862 63.3879 33.386C63.2408 33.2857 63.0603 33.247 62.885 33.278C62.7985 33.2895 62.7152 33.3181 62.6398 33.3622C62.5645 33.4063 62.4988 33.4649 62.4464 33.5347C62.394 33.6046 62.3561 33.6841 62.3349 33.7688C62.3137 33.8534 62.3095 33.9415 62.3228 34.0277Z" fill="#263238"/>
<path d="M61.6808 32.2074C61.7816 32.2777 62.208 31.7951 62.9296 31.6428C63.6512 31.4905 64.2533 31.7389 64.3119 31.6428C64.3423 31.596 64.2252 31.4554 63.9581 31.3359C63.6008 31.1876 63.2067 31.1524 62.8288 31.2352C62.4548 31.3141 62.1153 31.5093 61.8589 31.7928C61.6738 31.9942 61.6316 32.177 61.6808 32.2074Z" fill="#263238"/>
<path d="M68.7866 32.6152C68.8196 32.7941 68.9223 32.9526 69.0721 33.0558C69.2219 33.159 69.4065 33.1986 69.5855 33.1658C69.6719 33.1543 69.7552 33.1257 69.8304 33.0816C69.9056 33.0375 69.9713 32.9788 70.0234 32.9089C70.0756 32.839 70.1133 32.7595 70.1342 32.6748C70.1552 32.5902 70.159 32.5022 70.1454 32.4161C70.1102 32.2414 70.0083 32.0874 69.8613 31.9868C69.7142 31.8862 69.5338 31.8468 69.3582 31.8772C69.2719 31.8873 69.1884 31.9145 69.1127 31.9573C69.0371 32 68.9706 32.0574 68.9174 32.1261C68.8642 32.1949 68.8252 32.2735 68.8027 32.3575C68.7803 32.4415 68.7748 32.5291 68.7866 32.6152Z" fill="#263238"/>
<path d="M68.7819 30.8366C68.885 30.9069 69.3114 30.4243 70.0306 30.272C70.7499 30.1197 71.3544 30.3704 71.4153 30.272C71.4434 30.2251 71.3262 30.0845 71.0615 29.9674C70.7041 29.8168 70.3087 29.7808 69.9299 29.8643C69.5553 29.9432 69.2156 30.1393 68.96 30.4243C68.7749 30.6328 68.7327 30.8061 68.7819 30.8366Z" fill="#263238"/>
<path d="M67.3059 36.7293C67.3059 36.6871 66.8373 36.7059 66.0923 36.7668C65.9049 36.7879 65.7221 36.7879 65.6659 36.6684C65.6069 36.4832 65.6069 36.2842 65.6659 36.0991C65.7432 35.6164 65.8252 35.1127 65.9119 34.5832C66.2422 32.4301 66.439 30.6753 66.3524 30.6636C66.2657 30.6519 65.9283 32.3856 65.5956 34.5387C65.5175 35.0682 65.4441 35.5743 65.3754 36.0569C65.3068 36.3036 65.3276 36.5666 65.434 36.7996C65.4742 36.8586 65.5274 36.9077 65.5896 36.943C65.6517 36.9784 65.7211 36.999 65.7924 37.0034C65.9 37.0086 66.0077 37.0008 66.1134 36.98C66.8584 36.8652 67.3129 36.7715 67.3059 36.7293Z" fill="#263238"/>
<path d="M75.0094 41.4263C75.0094 41.4263 74.0722 45.3693 68.7586 45.9925L68.4939 44.7672C70.9331 44.2782 73.1887 43.1216 75.0094 41.4263Z" fill="#BFA4A0"/>
<path d="M67.9783 38.3995C68.0788 38.1979 68.2289 38.0253 68.4146 37.8978C68.6003 37.7703 68.8154 37.6922 69.0396 37.6709C69.2015 37.6513 69.3658 37.6646 69.5224 37.7101C69.679 37.7556 69.8248 37.8323 69.951 37.9356C70.0717 38.0358 70.1589 38.1706 70.2008 38.3218C70.2426 38.473 70.2372 38.6334 70.1853 38.7814C70.0972 38.9352 69.9651 39.0591 69.8061 39.1371C69.647 39.2152 69.4682 39.2439 69.2927 39.2195C68.9265 39.1722 68.5736 39.0519 68.2548 38.8658C68.1616 38.8254 68.0766 38.7682 68.0041 38.6971C67.9697 38.6629 67.946 38.6194 67.936 38.5719C67.926 38.5245 67.9301 38.4751 67.9479 38.43" fill="#BFA4A0"/>
<path d="M69.5294 36.7757C69.4122 36.7944 69.5762 37.577 69.0256 38.2728C68.4751 38.9686 67.6199 39.06 67.641 39.1701C67.641 39.2216 67.8589 39.2826 68.2127 39.217C68.6739 39.1285 69.089 38.8795 69.3841 38.5141C69.6652 38.1636 69.7988 37.7174 69.7566 37.27C69.7098 36.935 69.5856 36.7616 69.5294 36.7757Z" fill="#263238"/>
<path d="M68.1564 28.7679C68.2689 28.9483 68.967 28.7023 69.8339 28.625C70.7007 28.5476 71.4317 28.625 71.5067 28.4328C71.5371 28.3391 71.3802 28.1798 71.0639 28.0486C70.6471 27.8949 70.2008 27.838 69.7588 27.8822C69.3167 27.9265 68.8906 28.0707 68.5125 28.304C68.229 28.4938 68.1072 28.6812 68.1564 28.7679Z" fill="#263238"/>
<path d="M61.5027 30.0685C61.6643 30.2044 62.1235 29.9303 62.7186 29.7944C63.3137 29.6585 63.8408 29.6702 63.9228 29.4758C63.9556 29.3821 63.8408 29.2415 63.5878 29.1267C63.2529 29.0039 62.8892 28.9828 62.5423 29.0662C62.1955 29.1496 61.881 29.3337 61.6386 29.5953C61.4628 29.8178 61.43 30.0006 61.5027 30.0685Z" fill="#263238"/>
<path d="M60.6827 25.127C60.8327 24.2742 61.5918 23.6182 62.4282 23.3933C63.2646 23.1684 64.1595 23.3113 64.9842 23.5784C68.4727 24.7053 70.9843 27.8916 74.4494 29.0888C75.3022 29.384 76.2112 29.5573 76.982 30.0259C77.7528 30.4945 78.3877 31.3707 78.1956 32.254C78.5181 31.6139 78.7462 30.9305 78.8727 30.225C78.9343 29.8717 78.9196 29.5093 78.8295 29.1622C78.7394 28.815 78.576 28.4912 78.3502 28.2125C77.9871 27.8096 77.4435 27.5589 77.2022 27.0716C76.9914 26.6428 77.0687 26.1344 76.9492 25.6658C76.7949 25.2021 76.5332 24.7815 76.1854 24.4382C74.529 22.5639 72.4626 21.0059 70.0776 20.2679C68.5163 19.7626 66.8466 19.6937 65.249 20.0688C63.6452 20.451 62.2319 21.3963 61.2661 22.7326C60.7179 23.5174 60.1369 24.3351 60.6804 25.127" fill="#263238"/>
<path d="M80.1777 33.0412C80.0418 33.006 80.0277 32.6499 79.9246 32.0876C79.8752 31.7744 79.7713 31.4724 79.6177 31.195C79.5762 31.1279 79.5292 31.0645 79.4772 31.0052C79.4524 30.9769 79.4258 30.9503 79.3975 30.9256L79.285 30.8225C79.1168 30.6732 78.9375 30.5369 78.7485 30.4148C78.5931 30.3067 78.4167 30.2324 78.2308 30.1969C78.1698 30.1969 78.1605 30.211 78.1886 30.2133L78.0129 30.2883L77.8255 30.3773C77.5826 30.4963 77.3546 30.6433 77.146 30.8154C77.0359 30.9045 76.9281 31.0029 76.818 31.1083L76.736 31.1903L76.5955 31.3215C76.5006 31.405 76.4013 31.4832 76.2979 31.5558C75.8775 31.8464 75.397 32.0386 74.8922 32.1181C74.5845 32.1656 74.2707 32.1553 73.9668 32.0876L73.8402 32.0548L73.7395 32.0197C73.6739 31.9962 73.6036 31.9752 73.5404 31.947C73.41 31.8918 73.2832 31.8284 73.1608 31.7573C72.7176 31.4869 72.3264 31.1394 72.0058 30.7311C71.6942 30.3539 71.4599 29.9861 71.2256 29.651C70.3893 28.4338 69.3671 27.3555 68.1963 26.4554C67.2298 25.7118 66.1773 25.0872 65.0616 24.5952C64.3308 24.2425 63.5539 23.9949 62.7538 23.8595C62.1939 23.7775 61.8425 23.7986 61.7933 23.6627C61.7441 23.5268 62.0276 23.2597 62.707 23.0934C63.3864 22.927 64.4009 22.9716 65.5184 23.2808C66.8491 23.6365 68.1112 24.2113 69.2529 24.9817C70.6671 25.9266 71.8877 27.1329 72.8492 28.5358C73.0835 28.8966 73.3178 29.2223 73.524 29.4941C73.6985 29.7274 73.9097 29.9307 74.1495 30.0962C74.1967 30.127 74.246 30.1544 74.2971 30.1782C74.3215 30.1905 74.3465 30.2015 74.3721 30.211L74.4072 30.225H74.4236C74.4994 30.2482 74.5794 30.2546 74.6579 30.2438C74.8947 30.2143 75.1224 30.1344 75.3256 30.0095C75.3772 29.979 75.424 29.9486 75.4685 29.9181L75.5318 29.8713L75.6466 29.7729C75.8036 29.6417 75.9676 29.5175 76.1362 29.4027C76.4692 29.1765 76.8288 28.9923 77.2069 28.8545C77.296 28.824 77.3826 28.7936 77.4693 28.7678L77.5958 28.728L77.7434 28.6881C78.0283 28.6118 78.329 28.6183 78.6103 28.7069C78.9833 28.8284 79.3249 29.0308 79.6107 29.2996C79.837 29.5013 80.0426 29.7249 80.2245 29.9673C80.269 30.0259 80.3042 30.0704 80.351 30.143C80.3987 30.2103 80.4418 30.2808 80.4799 30.3539C80.5499 30.4856 80.6072 30.6237 80.6509 30.7662C80.7722 31.1949 80.7898 31.6462 80.7025 32.0829C80.5525 32.7764 80.3018 33.0763 80.1777 33.0412Z" fill="#263238"/>
<path d="M77.2585 30.8226C77.282 30.661 79.7912 29.0959 80.4472 31.9777C81.0868 34.7891 78.1348 34.8336 78.1043 34.7563C78.0739 34.679 77.2585 30.8226 77.2585 30.8226Z" fill="#FFBE9D"/>
<path d="M78.7369 33.496C78.7486 33.496 78.7931 33.5194 78.8845 33.5382C79.0122 33.561 79.1437 33.5342 79.2523 33.4632C79.5217 33.2875 79.667 32.7603 79.5662 32.2543C79.5205 32.0124 79.4204 31.784 79.2734 31.5866C79.2276 31.5046 79.1624 31.4351 79.0836 31.384C79.0048 31.333 78.9147 31.302 78.8212 31.2937C78.7619 31.2921 78.7039 31.3111 78.6569 31.3474C78.61 31.3837 78.577 31.4351 78.5635 31.4928C78.5424 31.5795 78.5635 31.6311 78.5635 31.6381C78.5635 31.6451 78.4909 31.6053 78.4885 31.4858C78.4885 31.4126 78.5133 31.3416 78.5588 31.2843C78.6227 31.2092 78.7136 31.1621 78.8118 31.1531C78.9322 31.1496 79.0514 31.1771 79.158 31.2329C79.2647 31.2887 79.3552 31.3709 79.421 31.4718C79.5949 31.6873 79.7132 31.9424 79.7654 32.2144C79.8732 32.7838 79.7045 33.3859 79.3249 33.585C79.2539 33.6245 79.1748 33.6474 79.0936 33.6518C79.0124 33.6563 78.9313 33.6423 78.8564 33.6108C78.758 33.5616 78.7228 33.503 78.7369 33.496Z" fill="#BFA4A0"/>
<path d="M67.8307 51.187C67.2657 51.4291 66.7549 51.7819 66.3284 52.2245C65.9019 52.6671 65.5683 53.1906 65.3473 53.7642C64.5718 55.7275 61.2027 67.6784 61.2027 67.6784L54.1742 68.5804L53.6423 75.0748C55.675 75.6045 57.7488 75.9619 59.8415 76.1431C62.4327 76.3774 66.6218 75.9908 67.7135 75.3794C68.8053 74.7679 67.6058 51.4658 67.6058 51.4658L67.8307 51.187Z" fill="#E0E0E0"/>
<path d="M69.2551 49.4132C71.4808 51.9411 77.3286 46.815 79.9315 42.7407L71.5582 82.0656L70.129 81.7165L69.2551 49.4132Z" fill="#455A64"/>
<path d="M69.0818 47.6914L68.543 50.2451L66.5398 52.0585C66.5141 55.3947 68.3181 62.0578 67.8682 63.3932C67.2286 65.3027 66.9733 67.28 67.7394 70.0633C68.1306 71.4878 70.4993 81.7167 70.4993 81.7167C70.4993 81.7167 69.8198 108.484 69.8948 108.84H75.3396L70.0237 73.2285L69.8198 50.9222L69.0818 47.6914Z" fill="#E0E0E0"/>
<path d="M104.012 91.8682C102.325 87.651 96.0856 76.8598 96.0856 76.8598C96.0856 76.8598 95.5796 73.0667 95.1485 64.7191C94.7174 56.3715 91.1118 47.0142 90.3527 45.5827C89.5936 44.1512 81.1593 42.7431 81.1593 42.7431L79.6833 40.5947C79.6833 40.5947 76.5392 48.8627 76.3799 49.097C76.2206 49.3312 72.8445 59.2556 72.5071 62.0389C72.1698 64.8222 71.2256 79.8118 71.2256 79.8118L75.3396 108.84H106.012C106.012 108.84 105.698 96.083 104.012 91.8682Z" fill="#E0E0E0"/>
<path d="M75.5996 90.8187L90.8563 89.0967H90.9102V89.1506C91.3436 93.8199 91.8473 99.3631 92.4096 105.288C92.4705 105.942 92.5291 106.588 92.59 107.233V107.296H92.5455L80.2806 107.577H80.2385L80.2268 107.535C78.8679 102.559 77.7269 98.3767 76.9233 95.4365C76.5157 93.9722 76.1947 92.8171 75.9721 92.0253L75.7121 91.1256L75.6394 90.8913C75.6207 90.8398 75.609 90.8163 75.6113 90.8163C75.626 90.8393 75.6386 90.8637 75.6488 90.889C75.6676 90.9405 75.6957 91.0155 75.7285 91.1233C75.7964 91.3247 75.8878 91.6246 76.0049 92.0182C76.2392 92.8031 76.5719 93.9558 76.9866 95.4224C77.8136 98.3533 78.971 102.531 80.3322 107.509L80.2783 107.469L92.5432 107.174L92.4846 107.242C92.4268 106.599 92.3667 105.95 92.3042 105.298C91.7606 99.3701 91.2522 93.8175 90.8235 89.1576L90.8797 89.2044L75.5996 90.8187Z" fill="#263238"/>
<path d="M91.2148 92.9668C91.2148 92.9996 87.9348 93.2666 83.9004 93.5618C79.866 93.857 76.579 94.0702 76.5767 94.0304C76.5743 93.9906 79.8567 93.7305 83.8911 93.4353C87.9255 93.1401 91.2125 92.9316 91.2148 92.9668Z" fill="#263238"/>
<path d="M95.9733 76.8154C95.9186 76.8623 95.8579 76.9017 95.7929 76.9326C95.6734 77.0005 95.493 77.0919 95.2681 77.195C94.6778 77.4619 94.0581 77.6585 93.4219 77.7807C92.7859 77.8962 92.1401 77.9495 91.4937 77.94C91.2454 77.94 91.0463 77.9283 90.908 77.9166C90.836 77.9174 90.7642 77.9079 90.6948 77.8885C90.9595 77.8615 91.2254 77.8498 91.4914 77.8533C92.1318 77.8379 92.7702 77.7737 93.4008 77.6612C94.0284 77.5385 94.6427 77.3557 95.2353 77.1153C95.476 77.0029 95.7224 76.9028 95.9733 76.8154Z" fill="#263238"/>
<path d="M96.0857 76.8599C95.9293 77.0551 95.7552 77.2355 95.5656 77.3987C95.2306 77.7173 94.755 78.1437 94.2208 78.6029L92.8549 79.7744C92.6731 79.9429 92.4806 80.0994 92.2786 80.2429C92.4334 80.0463 92.6076 79.8657 92.7987 79.7041C93.1337 79.3855 93.6093 78.9591 94.1411 78.4975L95.507 77.3261C95.6886 77.1571 95.882 77.0013 96.0857 76.8599Z" fill="#263238"/>
<path d="M85.6623 99.5481C85.0742 99.3349 84.4323 99.2505 83.8887 99.5621C83.6773 99.7008 83.5096 99.8965 83.4051 100.127C83.3006 100.357 83.2636 100.612 83.2983 100.862C83.3778 101.366 83.6255 101.828 84.0012 102.172C84.2294 102.432 84.5456 102.599 84.8891 102.641C85.2773 102.625 85.6435 102.456 85.9083 102.172C86.2065 101.92 86.4382 101.598 86.583 101.235C86.6531 101.052 86.68 100.855 86.6617 100.659C86.6434 100.464 86.5804 100.275 86.4776 100.108C86.2246 99.7332 85.7607 99.5691 85.3272 99.4286" fill="#FFD000"/>
<path d="M83.6592 99.234C83.7093 98.9851 83.6823 98.7269 83.5818 98.4937C83.5304 98.3793 83.4541 98.2779 83.3584 98.1968C83.2628 98.1157 83.1502 98.0571 83.0289 98.0251C82.9062 97.9941 82.7771 97.9997 82.6576 98.0414C82.5381 98.083 82.4334 98.1588 82.3565 98.2594C82.2585 98.4139 82.221 98.5991 82.2511 98.7795C82.2682 98.9403 82.328 99.0936 82.4244 99.2234C82.5209 99.3532 82.6503 99.4548 82.7993 99.5175C82.9526 99.5796 83.1228 99.5857 83.28 99.5347C83.4373 99.4837 83.5715 99.3789 83.6592 99.2387" fill="#FFD000"/>
<path d="M86.2785 99.3561C86.5311 99.3508 86.7761 99.2691 86.9814 99.1218C87.0839 99.0485 87.1688 98.9532 87.23 98.843C87.2912 98.7328 87.3271 98.6104 87.3351 98.4846C87.3402 98.3582 87.3083 98.233 87.2434 98.1244C87.1785 98.0158 87.0834 97.9285 86.9697 97.8731C86.7974 97.8086 86.6077 97.8086 86.4355 97.8731C86.2819 97.9224 86.1443 98.0118 86.0368 98.1321C85.9293 98.2523 85.8559 98.3991 85.824 98.5572C85.7938 98.7201 85.8222 98.8884 85.9041 99.0325C85.986 99.1765 86.1161 99.287 86.2715 99.3444" fill="#FFD000"/>
<path d="M87.5575 100.171C87.7326 100.17 87.9033 100.117 88.0472 100.017C88.1161 99.9649 88.1729 99.8987 88.2133 99.8226C88.2538 99.7464 88.2771 99.6623 88.2815 99.5762C88.2854 99.4889 88.2635 99.4023 88.2185 99.3273C88.1735 99.2523 88.1074 99.1922 88.0284 99.1545C87.9099 99.1099 87.7792 99.1099 87.6606 99.1545C87.5552 99.1885 87.4607 99.2498 87.3867 99.3321C87.3126 99.4143 87.2616 99.5148 87.2389 99.6231C87.2194 99.7355 87.2396 99.8512 87.2961 99.9503C87.3525 100.049 87.4416 100.126 87.5482 100.167" fill="#FFD000"/>
<path d="M84.8423 98.927C85.12 98.8141 85.3568 98.6197 85.5218 98.3694C85.6024 98.244 85.6541 98.1021 85.6732 97.9542C85.6922 97.8063 85.6781 97.656 85.6319 97.5143C85.5819 97.3739 85.4921 97.2511 85.3736 97.1609C85.255 97.0706 85.1128 97.0167 84.9642 97.0059C84.7475 97.0093 84.5397 97.0928 84.3808 97.2401C84.2339 97.3617 84.122 97.5202 84.0566 97.6993C83.9911 97.8784 83.9744 98.0716 84.0083 98.2593C84.0488 98.4498 84.1541 98.6203 84.3061 98.7421C84.4581 98.8638 84.6476 98.9291 84.8423 98.927Z" fill="#FFD000"/>
<path d="M72.4978 69.7142C72.4998 69.6909 72.5054 69.668 72.5142 69.6463C72.5283 69.5947 72.5493 69.5292 72.5728 69.4448C72.6313 69.2621 72.711 69.0043 72.8071 68.6787C73.0226 68.0039 73.3319 67.0387 73.7161 65.8556L76.7618 56.5005C76.7852 56.3365 76.811 56.1608 76.8344 55.9828C77.0687 54.3966 77.2749 52.8714 77.4764 51.454V51.44H77.4881L80.2808 48.3146L80.2691 48.3404L80.8923 44.2661C80.9672 43.7976 81.0281 43.4133 81.0703 43.1486C81.0914 43.0244 81.1078 42.9284 81.1195 42.8557C81.1249 42.8224 81.1327 42.7895 81.1429 42.7573C81.1466 42.7908 81.1466 42.8246 81.1429 42.8581C81.1429 42.9307 81.1219 43.0291 81.1078 43.1509C81.0727 43.418 81.0211 43.7952 80.9555 44.2755C80.8149 45.2548 80.6158 46.6512 80.3745 48.3544V48.3685L77.5959 51.5079L77.6099 51.4774C77.4108 52.8949 77.1976 54.4201 76.975 56.0062C76.9492 56.1842 76.9258 56.3623 76.9024 56.5263C75.6888 60.1882 74.5993 63.4822 73.8098 65.8696C73.4115 67.041 73.0905 68.011 72.8727 68.681C72.7602 69.0044 72.6735 69.2597 72.6103 69.4401C72.5821 69.5229 72.5587 69.5885 72.54 69.6369C72.5095 69.6838 72.5001 69.7142 72.4978 69.7142Z" fill="#263238"/>
<path d="M69.8831 72.6215C69.88 72.6061 69.88 72.5902 69.8831 72.5747C69.8831 72.5372 69.8667 72.4927 69.8573 72.4365C69.8355 72.3053 69.8074 72.1272 69.773 71.9023C69.7004 71.4337 69.5996 70.7519 69.4731 69.9155C69.2271 68.2146 68.8874 65.8554 68.5008 63.1705V63.1541C68.5852 62.4817 68.6742 61.7835 68.7632 61.0689C68.9202 59.8483 69.0701 58.6745 69.2084 57.5757L69.2248 57.6226L67.477 55.8092L67.4583 55.7881V55.7623L68.1916 51.7537C68.2829 51.2851 68.3556 50.9009 68.4048 50.6338C68.4305 50.512 68.4516 50.4136 68.4657 50.3386C68.4704 50.3049 68.4791 50.2719 68.4914 50.2402C68.4951 50.2737 68.4951 50.3075 68.4914 50.341C68.4797 50.4183 68.4657 50.5167 68.4469 50.6385C68.4024 50.9079 68.3392 51.2875 68.2619 51.7631C68.0932 52.7424 67.8542 54.1223 67.559 55.7811L67.5473 55.7366L69.2951 57.5429L69.3138 57.5617V57.5898C69.1756 58.6886 69.0256 59.8647 68.8733 61.0853C68.782 61.7882 68.6929 62.491 68.6086 63.1681V63.1541L69.5457 69.9062C69.6582 70.7449 69.7472 71.422 69.8105 71.8999C69.8363 72.1342 69.8597 72.3053 69.8737 72.4365L69.8901 72.5747C69.887 72.6059 69.8847 72.6215 69.8831 72.6215Z" fill="#263238"/>
<path d="M75.335 108.802C75.3022 108.802 74.4728 103.163 73.4818 96.1954C72.4908 89.2277 71.7153 83.5721 71.7481 83.5674C71.7809 83.5627 72.6126 89.209 73.6013 96.179C74.59 103.149 75.3678 108.798 75.335 108.802Z" fill="#263238"/>
<path d="M55.9971 78.0711L60.7367 76.7075L63.684 83.5674L57.0818 83.3612L55.9971 78.3499" fill="#FFBE9D"/>
<path d="M60.7366 76.7077L64.5906 85.6808C64.5906 85.6808 83.8582 80.1821 85.2358 78.6382C86.6134 77.0943 89.5279 63.1753 90.0246 60.4693C90.5213 57.7633 91.0695 46.8035 88.7571 45.0487C86.4447 43.2939 84.1886 43.6781 81.9863 46.1006C80.2034 48.0616 77.3006 59.2885 76.258 63.4823C76.0028 64.5145 75.9345 65.5841 76.0565 66.6404L76.2603 68.3952C76.2603 68.3952 74.4446 70.0469 74.3345 71.5885L60.7366 76.7077Z" fill="#E0E0E0"/>
<path d="M79.4255 52.0866C79.4255 52.0866 79.402 52.185 79.3528 52.3747C79.3036 52.5645 79.224 52.8433 79.1186 53.2182C78.9147 53.9585 78.6172 55.0479 78.233 56.4466L76.8272 61.54C76.689 62.0343 76.5484 62.5474 76.4008 63.0769C76.238 63.6162 76.129 64.1702 76.0752 64.731C76.0143 65.3237 76.0143 65.9211 76.0752 66.5139C76.1486 67.1261 76.222 67.7509 76.2954 68.3882V68.4116L76.279 68.428C75.8315 68.8517 75.4316 69.3231 75.0865 69.8337C74.7047 70.3539 74.4583 70.961 74.3696 71.6002V71.6307L74.3415 71.6424L60.7529 76.7709L60.7857 76.6936L64.642 85.6644L64.5694 85.6316C66.1579 85.163 67.8494 84.6804 69.5386 84.1697C72.8467 83.1763 76.0705 82.1782 79.156 81.1239C80.6976 80.5968 82.2018 80.0696 83.6473 79.4511C84.0058 79.2988 84.3502 79.1325 84.6946 78.9474C84.8623 78.8584 85.0195 78.7507 85.1631 78.6264C85.227 78.5601 85.2835 78.487 85.3318 78.4086C85.3787 78.3266 85.4279 78.2469 85.47 78.1626C85.7888 77.4799 86.0582 76.7752 86.276 76.054C86.7258 74.6272 87.1007 73.2168 87.4474 71.8368C87.7942 70.4569 88.1151 69.1238 88.4127 67.8259C89.0054 65.23 89.5302 62.8051 89.959 60.5841C90.3199 58.5799 90.5779 56.5584 90.7321 54.5278C90.8626 52.9958 90.8806 51.4564 90.786 49.9218C90.6876 48.6613 90.4674 47.6914 90.1698 47.0939C90.0343 46.7828 89.83 46.5065 89.5724 46.2856L89.7668 46.4543C89.8254 46.5176 89.891 46.6019 89.9707 46.7003C90.0536 46.8223 90.128 46.9499 90.1932 47.0822C90.4978 47.6796 90.7274 48.6566 90.8328 49.9171C90.9369 51.4542 90.9259 52.997 90.8 54.5325C90.653 56.5661 90.4004 58.5907 90.0433 60.5982C89.6192 62.8239 89.1062 65.2511 88.5111 67.861C88.2159 69.159 87.8996 70.4991 87.5528 71.8767C87.2061 73.2543 86.8289 74.6647 86.3814 76.0938C86.1636 76.823 85.8934 77.5355 85.5731 78.2258C85.5286 78.3125 85.4771 78.3969 85.4302 78.4812C85.3765 78.5653 85.3145 78.6437 85.2451 78.7155C85.0966 78.8482 84.9331 78.963 84.7578 79.0575C84.4158 79.245 84.055 79.4136 83.7012 79.5683C82.2556 80.1891 80.7445 80.7186 79.2029 81.2481C76.115 82.2954 72.8912 83.2958 69.5808 84.2938C67.8799 84.8046 66.1977 85.2989 64.6092 85.7534L64.5577 85.7698L64.5366 85.7206L60.6826 76.7428L60.6592 76.6866L60.7178 76.6655L74.3063 71.5534L74.2735 71.5979C74.3638 70.9423 74.6167 70.3197 75.0092 69.7868C75.3607 69.2764 75.766 68.8051 76.2181 68.3811L76.204 68.421C76.1322 67.779 76.0603 67.1543 75.9885 66.5467C75.9276 65.9485 75.9276 65.3456 75.9885 64.7474C76.0449 64.1816 76.1571 63.6229 76.3235 63.0792L76.7523 61.5447C77.3075 59.565 77.7855 57.8547 78.1767 56.456L79.0858 53.2346C79.1888 52.8667 79.2708 52.5879 79.32 52.3958C79.3692 52.2037 79.4255 52.0866 79.4255 52.0866Z" fill="#263238"/>
<path d="M76.8483 73.643C76.5511 73.1721 76.1864 72.7475 75.7659 72.3825C75.3193 72.0487 74.8249 71.7841 74.2993 71.5977C74.4669 71.6024 74.6321 71.6381 74.7866 71.7031C75.5584 71.9687 76.2136 72.4947 76.6398 73.1908C76.7357 73.3279 76.8063 73.481 76.8483 73.643Z" fill="#263238"/>
<path d="M81.1593 70.0021C81.1406 70.0161 80.9649 69.742 80.59 69.3859C80.1036 68.9194 79.5131 68.5756 78.8673 68.3828C78.2215 68.1901 77.5391 68.1541 76.8766 68.2777C76.3682 68.3715 76.0707 68.512 76.0613 68.4839C76.1236 68.4388 76.1923 68.4032 76.2651 68.3785C76.458 68.3004 76.657 68.2385 76.8602 68.1934C77.5359 68.0433 78.2388 68.0682 78.9022 68.2659C79.5656 68.4635 80.1675 68.8272 80.6509 69.3227C80.797 69.4715 80.9295 69.633 81.0469 69.8053C81.0932 69.8654 81.1311 69.9316 81.1593 70.0021Z" fill="#263238"/>
<path d="M60.3664 86.4444C57.7471 86.4444 54.118 85.5378 49.5752 83.7478C46.2132 82.4218 43.5728 81.077 43.5447 81.0652L43.9711 80.2288C44.0742 80.2827 54.378 85.5073 60.3711 85.5073C62.7374 85.5073 64.5695 84.364 65.8135 82.1102C66.4058 81.0137 66.8105 79.8259 67.0107 78.5959C67.074 78.221 68.4867 69.7938 68.9717 67.5446C69.2247 66.3732 69.9088 64.4474 70.5555 62.5871C71.1552 60.8839 71.7738 59.1244 71.8979 58.37C72.1533 56.8401 71.9682 53.4968 71.9682 53.464L72.9054 53.4102C72.9054 53.5531 73.0975 56.8916 72.8257 58.5223C72.6875 59.354 72.083 61.0736 71.4434 62.8917C70.8038 64.7098 70.1314 66.6215 69.8901 67.7367C69.4215 69.9648 67.9549 78.6404 67.9408 78.7294C67.9268 78.8184 66.8772 86.4444 60.3664 86.4444Z" fill="#FFD000"/>
<g opacity="0.4">
<path d="M60.3664 86.4444C57.7471 86.4444 54.118 85.5378 49.5752 83.7478C46.2132 82.4218 43.5728 81.077 43.5447 81.0652L43.9711 80.2288C44.0742 80.2827 54.378 85.5073 60.3711 85.5073C62.7374 85.5073 64.5695 84.364 65.8135 82.1102C66.4058 81.0137 66.8105 79.8259 67.0107 78.5959C67.074 78.221 68.4867 69.7938 68.9717 67.5446C69.2247 66.3732 69.9088 64.4474 70.5555 62.5871C71.1552 60.8839 71.7738 59.1244 71.8979 58.37C72.1533 56.8401 71.9682 53.4968 71.9682 53.464L72.9054 53.4102C72.9054 53.5531 73.0975 56.8916 72.8257 58.5223C72.6875 59.354 72.083 61.0736 71.4434 62.8917C70.8038 64.7098 70.1314 66.6215 69.8901 67.7367C69.4215 69.9648 67.9549 78.6404 67.9408 78.7294C67.9268 78.8184 66.8772 86.4444 60.3664 86.4444Z" fill="black"/>
</g>
<path d="M71.8066 53.757C71.2224 53.7648 70.6586 53.5426 70.2368 53.1384C68.6226 51.5383 66.903 44.8916 66.8303 44.6104L67.2825 44.4933C67.3012 44.5612 69.0443 51.2876 70.5625 52.8058C70.7677 52.998 71.0151 53.1394 71.2849 53.2188C71.5546 53.2981 71.8392 53.3131 72.1158 53.2626C72.8796 53.1431 73.5614 52.6043 73.9901 51.7843C75.2365 49.3828 78.6336 32.9852 78.6758 32.8188L79.1444 32.9149C79.0038 33.592 75.7004 49.5492 74.4235 51.9998C73.9292 52.9534 73.1209 53.5836 72.2095 53.7265C72.0763 53.748 71.9415 53.7582 71.8066 53.757Z" fill="#E0E0E0"/>
<path d="M78.4885 34.1683C78.5213 33.5099 78.362 32.9758 78.2542 32.3268C78.2074 32.0527 78.2941 31.5865 78.5237 31.4271C78.7533 31.2678 79.1047 31.4623 79.2031 31.7317C79.2848 32.0469 79.3 32.3756 79.2476 32.697C79.1422 33.4748 78.9219 33.7021 78.7954 34.1683" fill="#E0E0E0"/>
<path d="M72.0386 53.888H71.8933C71.3778 53.8672 70.8774 53.7084 70.4443 53.4281C70.0112 53.1479 69.6612 52.7565 69.431 52.2949C68.8382 51.1235 68.0651 49.5444 67.7488 48.6799L68.6274 48.3589C68.8616 48.9985 69.445 50.2472 70.2674 51.8732C70.4233 52.1867 70.6606 52.4526 70.9544 52.643C71.2483 52.8334 71.5879 52.9414 71.9378 52.9556C72.2817 52.9757 72.6246 52.9027 72.9305 52.7444C73.2364 52.5861 73.494 52.3483 73.6762 52.0559L73.702 52.0137C73.7207 51.9786 73.8027 51.7795 74.0909 50.9548L74.1237 50.8611C74.2924 50.3925 74.6462 49.3288 75.1194 47.5811L76.0238 47.8153C75.5435 49.6029 75.1803 50.69 75.0046 51.1773L74.9742 51.2664C74.618 52.2785 74.5548 52.4191 74.5056 52.4964L74.4681 52.5573C74.2096 52.9673 73.8509 53.3047 73.4258 53.5375C73.0007 53.7704 72.5232 53.891 72.0386 53.888Z" fill="#FFD000"/>
<g opacity="0.4">
<path d="M72.0386 53.888H71.8933C71.3778 53.8672 70.8774 53.7084 70.4443 53.4281C70.0112 53.1479 69.6612 52.7565 69.431 52.2949C68.8382 51.1235 68.0651 49.5444 67.7488 48.6799L68.6274 48.3589C68.8616 48.9985 69.445 50.2472 70.2674 51.8732C70.4233 52.1867 70.6606 52.4526 70.9544 52.643C71.2483 52.8334 71.5879 52.9414 71.9378 52.9556C72.2817 52.9757 72.6246 52.9027 72.9305 52.7444C73.2364 52.5861 73.494 52.3483 73.6762 52.0559L73.702 52.0137C73.7207 51.9786 73.8027 51.7795 74.0909 50.9548L74.1237 50.8611C74.2924 50.3925 74.6462 49.3288 75.1194 47.5811L76.0238 47.8153C75.5435 49.6029 75.1803 50.69 75.0046 51.1773L74.9742 51.2664C74.618 52.2785 74.5548 52.4191 74.5056 52.4964L74.4681 52.5573C74.2096 52.9673 73.8509 53.3047 73.4258 53.5375C73.0007 53.7704 72.5232 53.891 72.0386 53.888Z" fill="black"/>
</g>
<path d="M42.0711 82.0656C43.3236 82.0656 44.339 81.0502 44.339 79.7977C44.339 78.5452 43.3236 77.5298 42.0711 77.5298C40.8186 77.5298 39.8032 78.5452 39.8032 79.7977C39.8032 81.0502 40.8186 82.0656 42.0711 82.0656Z" fill="#E0E0E0"/>
<path d="M42.1977 81.22C42.9106 81.22 43.4886 80.6421 43.4886 79.9291C43.4886 79.2161 42.9106 78.6382 42.1977 78.6382C41.4847 78.6382 40.9067 79.2161 40.9067 79.9291C40.9067 80.6421 41.4847 81.22 42.1977 81.22Z" fill="#263238"/>
<path d="M40.6419 82.0656C40.6419 82.0656 40.1452 80.8941 40.6419 80.4677C41.1386 80.0413 46.335 78.638 46.335 78.638C46.335 78.638 49.9993 77.579 50.3905 77.5298C50.7818 77.4806 55.5448 77.7992 55.5448 77.7992C55.5448 77.7992 58.2485 77.0542 58.6397 77.0542C59.031 77.0542 58.4617 79.5423 58.3914 80.3623C58.3211 81.1823 57.7869 81.672 58.2836 82.0656C58.7803 82.4592 60.1017 83.5673 60.1017 83.5673C60.1017 83.5673 58.71 83.9539 57.7588 83.8485C57.1938 83.7885 56.6409 83.644 56.1188 83.4197C56.1188 83.4197 54.1625 84.8793 53.0942 85.0925C52.0258 85.3057 48.4717 86.4795 47.7595 86.3741C47.0473 86.2687 46.5154 85.3057 46.5154 85.3057C46.5154 85.3057 44.8426 85.5541 44.5217 84.8793C44.3362 84.493 44.1932 84.0877 44.0953 83.6704L44.7723 83.2417C44.7723 83.2417 43.8821 83.4924 43.4908 82.8504C43.2672 82.5083 43.1216 82.1212 43.0644 81.7165C43.0644 81.7165 41.237 82.2413 40.6419 82.0656Z" fill="#455A64"/>
<path d="M67.3435 60.6685C67.3427 60.7145 67.3357 60.7602 67.3224 60.8043C67.3021 60.9043 67.274 61.0332 67.2381 61.1909C67.2006 61.3573 67.1537 61.5611 67.1116 61.8001C67.0694 62.039 67.0085 62.3108 66.971 62.6154C66.9335 62.9199 66.8749 63.2479 66.8421 63.6064C66.8093 63.9649 66.7765 64.3467 66.7484 64.7497C66.6579 66.5028 66.7926 68.2602 67.149 69.979C67.2381 70.3749 67.3177 70.7498 67.4161 71.0965C67.5145 71.4432 67.6036 71.7642 67.6949 72.0571C67.7863 72.3499 67.88 72.61 67.9597 72.8396C68.0393 73.0692 68.112 73.2636 68.1776 73.423C68.2432 73.5823 68.283 73.6947 68.3181 73.7908C68.3388 73.8329 68.353 73.878 68.3603 73.9243C68.3358 73.8848 68.3147 73.8432 68.297 73.8002L68.133 73.4417C68.0628 73.2847 67.9784 73.0926 67.8988 72.863C67.8191 72.6334 67.709 72.378 67.6176 72.0828C67.5262 71.7876 67.4138 71.4714 67.3224 71.1223C67.231 70.7732 67.1373 70.3983 67.046 70.0024C66.8639 69.1397 66.7364 68.2665 66.6641 67.3878C66.6017 66.5082 66.5939 65.6256 66.6406 64.745C66.6711 64.3397 66.6945 63.9531 66.7461 63.5947C66.7976 63.2362 66.8374 62.9035 66.889 62.6013C66.9405 62.2991 67.0014 62.025 67.0506 61.786C67.0998 61.547 67.1514 61.3455 67.1982 61.1792L67.3037 60.7973C67.3112 60.7528 67.3246 60.7095 67.3435 60.6685Z" fill="#263238"/>
<path d="M15.9152 97.086C15.864 96.8924 15.8357 96.6935 15.8308 96.4933C15.7887 96.0645 15.7371 95.5233 15.6739 94.879C15.5941 94.0829 15.4729 93.2915 15.3107 92.5081C15.0994 91.5538 14.8111 90.6183 14.4486 89.7107C14.0948 88.8041 13.6144 87.9523 13.0217 87.1804C12.5384 86.5522 11.9214 86.0392 11.2154 85.6786C10.7363 85.4435 10.2232 85.2854 9.69489 85.2101C9.49582 85.2012 9.29808 85.173 9.10449 85.1257C9.30371 85.102 9.50505 85.102 9.70426 85.1257C10.2536 85.1658 10.7911 85.3056 11.2904 85.5381C12.0336 85.8888 12.6856 86.4068 13.1951 87.0516C13.8142 87.8321 14.3133 88.7007 14.6758 89.6287C15.0433 90.55 15.3295 91.5017 15.531 92.4729C15.6852 93.2654 15.7908 94.0666 15.8472 94.872C15.8988 95.5585 15.9175 96.1137 15.9269 96.498C15.944 96.6938 15.9401 96.891 15.9152 97.086Z" fill="#E0E0E0"/>
<path d="M15.8028 95.854C15.786 95.7628 15.7805 95.67 15.7864 95.5775C15.7864 95.3713 15.7864 95.1089 15.7864 94.7927C15.7864 94.1109 15.7865 93.1246 15.7513 91.9063C15.6904 89.4697 15.4819 86.8457 15.0766 83.1487C14.6923 79.6719 14.1769 75.6257 13.6334 72.9971C13.5186 72.3973 13.3991 71.8584 13.289 71.3875C13.1788 70.9166 13.0945 70.5089 13.0078 70.1786C12.9211 69.8483 12.8719 69.6163 12.8251 69.4148C12.7989 69.3263 12.7824 69.2352 12.7759 69.1431C12.8167 69.2254 12.8489 69.3118 12.8719 69.4008C12.9305 69.5999 13.0078 69.8483 13.1062 70.1552C13.2046 70.4621 13.3124 70.8861 13.4295 71.3571C13.5467 71.828 13.6826 72.3621 13.8091 72.9596C14.4829 76.0704 14.9897 79.2152 15.3273 82.3802C15.7326 86.0866 15.9153 89.4603 15.9317 91.9016C15.9458 93.1245 15.92 94.1132 15.8895 94.795C15.8685 95.1136 15.8544 95.3737 15.8403 95.5799C15.8388 95.6724 15.8263 95.7644 15.8028 95.854Z" fill="#E0E0E0"/>
<path d="M22.0743 100.823L21.423 109.757H9.9477L9.29639 100.823H22.0743Z" fill="#E0E0E0"/>
<path d="M23.1852 97.3042H7.92847V100.826H23.1852V97.3042Z" fill="#E0E0E0"/>
<path d="M23.1826 109.414V110.389H22.468H8.17896V109.414H23.1826Z" fill="#EBEBEB"/>
<path d="M21.7653 112.106L22.4682 110.389H8.72729L9.54729 112.106H21.7653Z" fill="#E0E0E0"/>
<path d="M9.50977 103.742C9.52426 103.772 9.54236 103.799 9.56365 103.824L9.73468 104.058L10.4024 104.914L10.4329 104.953L10.461 104.914C10.8827 104.333 11.4426 103.555 12.101 102.641H12.0073L13.6238 104.93L13.6754 105.003L13.7316 104.935L15.6481 102.653H15.5379L15.6434 102.784L17.3583 104.935L17.4146 105.005L17.4685 104.932C18.0495 104.108 18.5954 103.339 19.085 102.643H18.9913L20.9851 104.911L21.0202 104.953L21.046 104.907C21.3084 104.466 21.5146 104.115 21.6692 103.859L21.8309 103.581C21.8512 103.549 21.8677 103.515 21.8801 103.48C21.8538 103.507 21.831 103.536 21.8121 103.569C21.7653 103.639 21.7067 103.728 21.6364 103.838L20.9804 104.867H21.0437L19.0827 102.568L19.0335 102.51L18.989 102.573L17.349 104.853H17.4591C16.9155 104.171 16.3415 103.447 15.7488 102.7L15.6434 102.568L15.5895 102.5L15.5333 102.566L13.6191 104.853H13.7269C13.1365 104.028 12.5883 103.262 12.0869 102.575L12.0401 102.508L11.9932 102.575L10.386 104.871H10.4446L9.74171 104.037C9.66674 103.951 9.60582 103.878 9.55428 103.822C9.50274 103.766 9.51211 103.74 9.50977 103.742Z" fill="#F5F5F5"/>
<path d="M9.13501 100.765C9.13501 100.804 12.0097 100.837 15.5568 100.837C19.1039 100.837 21.9786 100.804 21.9786 100.765C21.9786 100.725 19.1039 100.694 15.5568 100.694C12.0097 100.694 9.13501 100.725 9.13501 100.765Z" fill="#F5F5F5"/>
<path d="M8.55859 110.485C8.55859 110.525 11.6816 110.557 15.5356 110.557C19.3896 110.557 22.515 110.525 22.515 110.485C22.515 110.445 19.392 110.415 15.5356 110.415C11.6793 110.415 8.55859 110.44 8.55859 110.485Z" fill="#F5F5F5"/>
</g>
<defs>
<clipPath id="clip0_896_29009">
<rect width="120" height="120" fill="white" transform="translate(0.5)"/>
</clipPath>
</defs>
</svg>
