<svg width="210" height="210" viewBox="0 0 210 210" fill="none" xmlns="http://www.w3.org/2000/svg">
<g clip-path="url(#clip0_171_14359)">
<path d="M105.074 26.9481H14.0088V86.9229H105.074V26.9481Z" fill="#F5F5F5"/>
<path d="M28.2724 41.2776C28.2724 41.2776 27.0096 40.5724 26.1896 41.4375C25.9026 41.745 25.8288 42.7536 26.9522 42.9545C26.9522 42.9545 29.3835 42.8233 30.4905 42.6224C31.5975 42.4215 34.1149 41.3104 34.1149 41.3104L35.4228 38.3953C35.4228 38.3953 35.5909 37.0177 35.759 36.9849C35.9271 36.9521 36.4396 38.3953 36.4396 38.3953L39.2604 39.2153L39.5597 39.7852L37.2596 40.72C37.2596 40.72 37.5958 44.3444 37.2924 44.9799C36.9771 45.5081 36.5815 45.9839 36.1198 46.3903L36.251 51.6588C36.251 51.6588 36.7553 51.4579 36.7881 51.8269H35.4515C35.4515 51.8269 34.9144 48.5469 34.1436 48.3009L34.3445 46.9274L29.0596 46.4805C29.0596 46.4805 29.4286 47.7105 27.9198 48.7273C27.1212 49.241 26.3934 49.8572 25.755 50.56V51.5645C25.755 51.5645 26.1937 51.7326 26.2265 52.1016H24.6152C24.6152 52.1016 24.8161 49.3177 24.6152 48.8462C24.6152 48.8462 26.5914 46.829 26.3249 44.3362C26.3249 44.3362 24.0781 43.7663 24.6152 41.5851C25.1523 39.4039 27.6697 39.367 28.2724 41.2776Z" fill="#E0E0E0"/>
<path d="M28.6087 58.0712C28.6087 58.0712 27.8174 57.6366 27.3131 58.1737C27.2494 58.2618 27.211 58.3656 27.2022 58.4739C27.1934 58.5823 27.2144 58.6909 27.263 58.7882C27.3116 58.8854 27.3859 58.9674 27.4779 59.0253C27.5699 59.0833 27.676 59.1149 27.7846 59.1167C27.7846 59.1167 29.2975 59.0306 29.9822 58.9076C30.7535 58.6913 31.5073 58.4172 32.2372 58.0876L33.0572 56.2754C33.0572 56.2754 33.1597 55.4226 33.2663 55.398C33.3729 55.3734 33.6763 56.2754 33.6763 56.2754L35.4311 56.7756L35.6197 57.12L34.2052 57.7063C34.2052 57.7063 34.4102 59.9572 34.2052 60.3549C34.0082 60.6817 33.762 60.9762 33.4754 61.2282L33.5574 64.5082C33.5574 64.5082 33.869 64.3811 33.8895 64.6107H33.0695C33.0695 64.6107 32.7374 62.5607 32.2495 62.4213L32.3725 61.5685L29.0925 61.2938C29.0925 61.2938 29.3221 62.0687 28.3832 62.6919C27.8842 63.0077 27.4281 63.3867 27.0261 63.8194V64.4426C27.0261 64.4426 27.2967 64.5492 27.3213 64.7788H26.3373C26.3373 64.7788 26.4603 63.0486 26.3373 62.7534C26.3373 62.7534 27.5673 61.4988 27.3992 59.9613C27.3992 59.9613 26.0011 59.6087 26.3373 58.2516C26.6735 56.8945 28.2397 56.8822 28.6087 58.0712Z" fill="#E0E0E0"/>
<path d="M28.0349 72.0112C28.0349 72.0112 27.4363 71.6832 27.0591 72.0891C27.011 72.1555 26.982 72.2338 26.9754 72.3155C26.9688 72.3972 26.9848 72.4791 27.0216 72.5523C27.0584 72.6256 27.1147 72.6872 27.1842 72.7306C27.2537 72.774 27.3339 72.7975 27.4158 72.7984C27.4158 72.7984 28.5515 72.7328 29.0558 72.6385C29.6349 72.478 30.2009 72.2737 30.7491 72.0276L31.3641 70.6623C31.3641 70.6623 31.442 70.0186 31.5199 70.0022C31.5978 69.9858 31.8356 70.6623 31.8356 70.6623L33.1599 71.06L33.2993 71.3265L32.2333 71.7652C32.2333 71.7652 32.3891 73.4626 32.2333 73.7619C32.0856 74.008 31.9002 74.2293 31.6839 74.4179L31.7495 76.8779C31.7495 76.8779 31.9832 76.7836 31.9996 76.9558H31.3969C31.3969 76.9558 31.1427 75.4183 30.7819 75.3158L30.8762 74.6721L28.4162 74.4671C28.4527 74.6767 28.4205 74.8925 28.3244 75.0823C28.2284 75.2722 28.0737 75.426 27.8832 75.5208C27.5076 75.7568 27.1645 76.0407 26.8623 76.3654V76.8C26.8623 76.8 27.0632 76.882 27.0796 77.0542H26.3211C26.3688 76.5469 26.3688 76.0363 26.3211 75.529C26.5893 75.2495 26.7997 74.9199 26.9404 74.559C27.0811 74.1981 27.1493 73.813 27.1411 73.4257C27.0016 73.3972 26.8693 73.3409 26.7519 73.2602C26.6346 73.1794 26.5347 73.0759 26.4582 72.9558C26.3817 72.8357 26.3302 72.7014 26.3066 72.561C26.2831 72.4206 26.288 72.2768 26.3211 72.1383C26.5753 71.1338 27.752 71.1174 28.0349 72.0112Z" fill="#E0E0E0"/>
<path d="M91.3102 43.6351C91.3102 43.6925 81.8433 43.7417 70.1624 43.7417C58.4815 43.7417 49.0146 43.6925 49.0146 43.6351C49.0146 43.5777 58.4815 43.5285 70.1624 43.5285C81.8433 43.5285 91.3102 43.59 91.3102 43.6351Z" fill="#E0E0E0"/>
<path d="M91.3102 45.2669C91.3102 45.3243 81.8433 45.3735 70.1624 45.3735C58.4815 45.3735 49.0146 45.3243 49.0146 45.2669C49.0146 45.2095 58.4815 45.1603 70.1624 45.1603C81.8433 45.1603 91.3102 45.2054 91.3102 45.2669Z" fill="#E0E0E0"/>
<path d="M91.3102 46.8946C91.3102 46.9561 81.8433 47.0012 70.1624 47.0012C58.4815 47.0012 49.0146 46.9561 49.0146 46.8946C49.0146 46.8331 58.4815 46.788 70.1624 46.788C81.8433 46.788 91.3102 46.8372 91.3102 46.8946Z" fill="#E0E0E0"/>
<path d="M91.3102 48.51C91.3102 48.5715 81.8433 48.6166 70.1624 48.6166C58.4815 48.6166 49.0146 48.5715 49.0146 48.51C49.0146 48.4485 58.4815 48.4034 70.1624 48.4034C81.8433 48.4034 91.3102 48.469 91.3102 48.51Z" fill="#E0E0E0"/>
<path d="M91.3102 57.7678C91.3102 57.8293 81.8433 57.8744 70.1624 57.8744C58.4815 57.8744 49.0146 57.8293 49.0146 57.7678C49.0146 57.7063 58.4815 57.6612 70.1624 57.6612C81.8433 57.6612 91.3102 57.7104 91.3102 57.7678Z" fill="#E0E0E0"/>
<path d="M91.3102 59.3996C91.3102 59.4611 81.8433 59.5062 70.1624 59.5062C58.4815 59.5062 49.0146 59.4611 49.0146 59.3996C49.0146 59.3381 58.4815 59.293 70.1624 59.293C81.8433 59.293 91.3102 59.3422 91.3102 59.3996Z" fill="#E0E0E0"/>
<path d="M91.3102 61.0314C91.3102 61.0888 81.8433 61.138 70.1624 61.138C58.4815 61.138 49.0146 61.0888 49.0146 61.0314C49.0146 60.974 58.4815 60.9248 70.1624 60.9248C81.8433 60.9248 91.3102 60.974 91.3102 61.0314Z" fill="#E0E0E0"/>
<path d="M91.3102 62.6632C91.3102 62.7206 81.8433 62.7698 70.1624 62.7698C58.4815 62.7698 49.0146 62.7206 49.0146 62.6632C49.0146 62.6058 58.4815 62.5566 70.1624 62.5566C81.8433 62.5566 91.3102 62.6017 91.3102 62.6632Z" fill="#E0E0E0"/>
<path d="M91.3102 71.9046C91.3102 71.962 81.8433 72.0112 70.1624 72.0112C58.4815 72.0112 49.0146 71.962 49.0146 71.9046C49.0146 71.8472 58.4815 71.798 70.1624 71.798C81.8433 71.798 91.3102 71.8472 91.3102 71.9046Z" fill="#E0E0E0"/>
<path d="M91.3102 73.52C91.3102 73.5774 81.8433 73.6266 70.1624 73.6266C58.4815 73.6266 49.0146 73.5774 49.0146 73.52C49.0146 73.4626 58.4815 73.4134 70.1624 73.4134C81.8433 73.4134 91.3102 73.4749 91.3102 73.52Z" fill="#E0E0E0"/>
<path d="M91.3102 75.16C91.3102 75.2174 81.8433 75.2666 70.1624 75.2666C58.4815 75.2666 49.0146 75.2174 49.0146 75.16C49.0146 75.1026 58.4815 75.0534 70.1624 75.0534C81.8433 75.0534 91.3102 75.1067 91.3102 75.16Z" fill="#E0E0E0"/>
<path d="M91.3102 76.8C91.3102 76.8615 81.8433 76.9066 70.1624 76.9066C58.4815 76.9066 49.0146 76.8615 49.0146 76.8C49.0146 76.7385 58.4815 76.6934 70.1624 76.6934C81.8433 76.6934 91.3102 76.7385 91.3102 76.8Z" fill="#E0E0E0"/>
<path d="M87.5625 35.4925C87.5625 36.0829 78.1653 36.5626 66.5787 36.5626C54.9921 36.5626 45.5908 36.0829 45.5908 35.4925C45.5908 34.9021 54.9839 34.4265 66.5787 34.4265C78.1735 34.4265 87.5625 34.9021 87.5625 35.4925Z" fill="#E0E0E0"/>
<path d="M156.787 25.5951H155.635V23.4139C155.649 23.0943 155.537 22.782 155.324 22.5432C155.112 22.3044 154.814 22.1579 154.495 22.1347H145.725C145.407 22.1589 145.11 22.3059 144.899 22.5446C144.687 22.7833 144.576 23.095 144.589 23.4139V25.5951H143.45V23.4139C143.432 22.7881 143.663 22.1807 144.091 21.7244C144.52 21.2681 145.112 20.9999 145.737 20.9785H154.507C155.134 20.9989 155.727 21.2666 156.156 21.723C156.586 22.1794 156.817 22.7874 156.799 23.4139L156.787 25.5951Z" fill="#EBEBEB"/>
<path d="M168.972 25.5951H131.076C129.008 25.5951 127.333 27.2711 127.333 29.3384V52.1959C127.333 54.2633 129.008 55.9392 131.076 55.9392H168.972C171.039 55.9392 172.715 54.2633 172.715 52.1959V29.3384C172.715 27.2711 171.039 25.5951 168.972 25.5951Z" fill="#EBEBEB"/>
<path d="M151.473 34.6397H148.751V46.8372H151.473V34.6397Z" fill="#F5F5F5"/>
<path d="M144.011 39.3793V42.1017H156.209V39.3793H144.011Z" fill="#F5F5F5"/>
<path d="M160.26 40.7692C160.26 40.7692 160.26 40.7118 160.26 40.6052C160.26 40.4986 160.239 40.3264 160.223 40.1214C160.223 40.0148 160.223 39.8959 160.202 39.7688C160.182 39.6417 160.157 39.4982 160.133 39.3588C160.087 39.0056 160.016 38.6561 159.919 38.3133C159.681 37.3645 159.299 36.4576 158.788 35.6237C157.446 33.4107 155.31 31.7936 152.815 31.1032C150.321 30.4128 147.657 30.701 145.369 31.9091C144.941 32.1444 144.53 32.4088 144.139 32.7004C143.738 32.9993 143.357 33.3238 142.999 33.6721C142.645 34.0374 142.316 34.4265 142.015 34.8365C141.39 35.6774 140.904 36.6132 140.576 37.6081C139.881 39.6682 139.881 41.899 140.576 43.959C140.902 44.9541 141.386 45.89 142.011 46.7306C142.314 47.1411 142.644 47.5314 142.999 47.8991C143.357 48.2472 143.738 48.5718 144.139 48.8708C144.53 49.1624 144.941 49.4268 145.369 49.6621C145.792 49.8843 146.231 50.0775 146.681 50.2402C148.374 50.8567 150.201 51.0096 151.974 50.683C153.379 50.4189 154.713 49.8604 155.887 49.0443C157.062 48.2281 158.05 47.1728 158.788 45.9475C159.299 45.1136 159.681 44.2067 159.919 43.2579C160.016 42.9151 160.087 42.5657 160.133 42.2124C160.157 42.0566 160.186 41.9172 160.202 41.8024C160.219 41.6876 160.202 41.5564 160.223 41.4498C160.223 41.2448 160.252 41.0849 160.26 40.966C160.268 40.8471 160.26 40.802 160.26 40.802C160.267 40.8564 160.267 40.9116 160.26 40.966C160.26 41.0849 160.26 41.2448 160.26 41.4498C160.26 41.5591 160.26 41.678 160.26 41.8065C160.26 41.9377 160.223 42.0812 160.202 42.237C160.161 42.5937 160.095 42.9471 160.006 43.2948C159.776 44.2554 159.403 45.1759 158.899 46.0254C158.16 47.2757 157.163 48.3547 155.976 49.1909C154.788 50.0271 153.437 50.6014 152.011 50.8757C150.209 51.2213 148.348 51.0797 146.619 50.4657C146.159 50.3011 145.711 50.1052 145.278 49.8794C144.839 49.6348 144.418 49.3609 144.016 49.0594C143.607 48.7552 143.218 48.4251 142.851 48.0713C142.489 47.6979 142.152 47.3006 141.843 46.8823C141.203 46.0233 140.706 45.0666 140.371 44.0492C140.031 43.0026 139.853 41.9105 139.842 40.8102C139.855 39.7088 140.033 38.6156 140.371 37.5671C140.708 36.5521 141.205 35.5971 141.843 34.7381C142.152 34.3199 142.489 33.9227 142.851 33.5491C143.204 33.1816 143.581 32.8378 143.979 32.52C144.378 32.2163 144.798 31.9422 145.237 31.7C145.67 31.4743 146.118 31.2784 146.578 31.1137C148.305 30.4999 150.165 30.3583 151.965 30.7037C153.392 30.9775 154.745 31.5515 155.933 32.3877C157.121 33.224 158.118 34.3032 158.858 35.554C159.362 36.4035 159.735 37.324 159.965 38.2846C160.054 38.6323 160.12 38.9857 160.161 39.3424C160.182 39.4982 160.206 39.6376 160.219 39.7524C160.231 39.8672 160.219 40.0025 160.219 40.1132C160.219 40.3141 160.219 40.4781 160.219 40.597C160.24 40.6522 160.254 40.7102 160.26 40.7692Z" fill="#F5F5F5"/>
<path d="M186.295 27.8296V23.2417H183.068V27.8296H179.821V54.0696H189.312V27.8296H186.295Z" fill="#EBEBEB"/>
<path d="M200.399 54.0737H122.105V58.0671H200.399V54.0737Z" fill="#E0E0E0"/>
<path d="M139.686 58.0712H137.406V67.5135H139.686V58.0712Z" fill="#E0E0E0"/>
<path d="M185.27 58.0712H182.99V67.5135H185.27V58.0712Z" fill="#E0E0E0"/>
<path d="M168.64 34.8898V31.536H166.279V34.8898H163.905V54.0737H170.842V34.8898H168.64Z" fill="#FAFAFA"/>
<path d="M176.512 34.8898V31.536H174.155V34.8898H171.781V54.0737H178.71V34.8898H176.512Z" fill="#F5F5F5"/>
<path d="M137.406 41.6097H124.942V54.0737H137.406V41.6097Z" fill="#E0E0E0"/>
<path d="M137.345 44.82C137.345 44.902 134.594 44.9676 131.195 44.9676C127.796 44.9676 125.045 44.902 125.045 44.82C125.045 44.738 127.796 44.6765 131.195 44.6765C134.594 44.6765 137.345 44.7339 137.345 44.82Z" fill="#EBEBEB"/>
<path d="M131.646 46.46C131.646 46.46 131.691 46.46 131.773 46.4805C131.892 46.5133 132.004 46.5659 132.105 46.6363C132.473 46.916 132.719 47.3275 132.79 47.7843C132.946 48.4547 132.829 49.1595 132.466 49.7441C132.237 50.0921 131.895 50.3511 131.498 50.478C131.075 50.5988 130.626 50.5988 130.203 50.478C129.788 50.3869 129.407 50.1828 129.102 49.8882C128.796 49.5936 128.579 49.2202 128.473 48.8093C128.397 48.4718 128.412 48.1204 128.515 47.7902C128.618 47.4601 128.805 47.1626 129.059 46.9274C129.397 46.6203 129.832 46.4418 130.289 46.4231C130.455 46.4022 130.623 46.4307 130.773 46.5051C130.773 46.5297 130.596 46.5051 130.301 46.5379C129.883 46.5935 129.493 46.7817 129.19 47.075C128.976 47.2917 128.821 47.5596 128.74 47.8531C128.659 48.1467 128.654 48.4561 128.727 48.7519C128.914 49.284 129.292 49.7279 129.787 49.9981C130.282 50.2684 130.859 50.3458 131.408 50.2156C131.743 50.1087 132.032 49.892 132.228 49.6006C132.559 49.0752 132.679 48.4439 132.564 47.8335C132.519 47.4145 132.324 47.0259 132.015 46.7388C131.81 46.5338 131.638 46.4846 131.646 46.46Z" fill="#EBEBEB"/>
<path d="M21.3026 145.397C18.6909 144.052 15.62 143.876 12.7213 144.356C11.1633 144.614 9.53966 145.077 8.47776 146.246C7.41586 147.414 7.21906 149.477 8.43676 150.481C9.15836 151.08 10.1711 151.17 11.11 151.158C13.3773 151.133 15.8947 150.748 17.711 152.096C18.7442 152.875 19.433 154.171 20.6671 154.556C21.9012 154.942 23.2419 154.216 23.8856 153.126C24.4742 151.987 24.6048 150.667 24.2505 149.436C24.1034 148.581 23.7608 147.772 23.2495 147.071C22.7381 146.371 22.0718 145.798 21.3026 145.397Z" fill="#EBEBEB"/>
<path d="M27.2842 133.852C25.6893 136.131 22.5856 135.377 21.1342 133.983C19.6828 132.589 19.0842 130.576 18.5348 128.653C17.2679 124.258 15.9928 119.633 16.9358 115.168C17.1614 113.811 17.7573 112.542 18.6578 111.502C19.5967 110.51 21.044 109.92 22.3478 110.272C23.914 110.682 24.8857 112.22 25.5868 113.675C27.6573 117.98 28.7428 122.691 28.7643 127.468C28.7643 129.69 28.5101 132.019 27.2555 133.856" fill="#EBEBEB"/>
<path d="M31.6714 137.123C29.9371 135.073 29.6214 132.064 30.3799 129.485C31.1384 126.906 32.8932 124.717 34.8899 122.925C37.257 120.821 40.0117 119.198 42.9997 118.149C44.1545 117.682 45.3964 117.471 46.6405 117.529C47.8705 117.648 49.121 118.28 49.695 119.379C50.5478 121.019 49.7319 122.978 48.8463 124.585C47.2869 127.422 45.5046 130.129 43.5163 132.683C41.9214 134.733 40.0969 136.783 37.6656 137.697C35.2343 138.612 32.7128 138.517 31.4254 136.832" fill="#EBEBEB"/>
<path d="M27.1698 154.7C27.1322 154.222 27.1322 153.743 27.1698 153.265C27.2531 151.96 27.4036 150.66 27.6208 149.37C27.9347 147.458 28.3563 145.565 28.8836 143.7C29.5037 141.407 30.2973 139.165 31.2575 136.992C33.2214 132.33 35.8946 128.513 38.2275 126.152C38.7418 125.611 39.2895 125.103 39.8675 124.631C40.1177 124.417 40.3432 124.221 40.5687 124.036L41.2042 123.602C41.5921 123.31 42.0035 123.051 42.4342 122.827C42.4998 122.921 40.7203 123.966 38.4694 126.361C35.5982 129.544 33.2909 133.193 31.647 137.152C30.7059 139.312 29.9101 141.532 29.2649 143.798C28.7222 145.645 28.2733 147.519 27.9201 149.411C27.6208 151.026 27.4486 152.347 27.3461 153.261C27.3248 153.744 27.2659 154.226 27.1698 154.7Z" fill="#E0E0E0"/>
<path d="M191.055 72.7328H153.191V112.204H191.055V72.7328Z" fill="#E0E0E0"/>
<path d="M188.492 72.7328H150.629V112.204H188.492V72.7328Z" fill="#EBEBEB"/>
<path d="M183.4 78.0382H155.717V106.898H183.4V78.0382Z" fill="#FAFAFA"/>
<path d="M155.717 107.087C155.517 107.373 155.286 107.637 155.028 107.874C154.582 108.337 153.958 108.969 153.265 109.653C152.573 110.338 151.929 110.953 151.457 111.388C151.218 111.639 150.953 111.865 150.666 112.06C150.87 111.778 151.1 111.517 151.355 111.281C151.802 110.814 152.425 110.182 153.122 109.497C153.819 108.813 154.463 108.194 154.93 107.759C155.171 107.511 155.434 107.285 155.717 107.087Z" fill="#E0E0E0"/>
<path d="M183.404 107.017C183.686 107.224 183.948 107.456 184.187 107.71C184.651 108.153 185.282 108.776 185.967 109.473C186.651 110.17 187.266 110.81 187.705 111.277C187.956 111.518 188.182 111.783 188.382 112.068C188.097 111.867 187.834 111.636 187.599 111.379C187.135 110.937 186.504 110.313 185.815 109.612C185.126 108.911 184.511 108.276 184.077 107.804C183.826 107.565 183.601 107.302 183.404 107.017Z" fill="#E0E0E0"/>
<path d="M183.326 78.1161C183.532 77.8326 183.764 77.569 184.019 77.3289C184.466 76.8656 185.085 76.2342 185.782 75.5495C186.479 74.8648 187.119 74.2498 187.59 73.8152C187.829 73.5621 188.094 73.3353 188.381 73.1387C188.176 73.42 187.945 73.6821 187.693 73.9218C187.246 74.3851 186.623 75.0165 185.926 75.7053C185.229 76.3941 184.585 77.005 184.117 77.4396C183.878 77.6916 183.612 77.9182 183.326 78.1161Z" fill="#E0E0E0"/>
<path d="M155.643 78.1857C155.361 77.9807 155.098 77.7486 154.86 77.4928C154.393 77.05 153.766 76.4268 153.077 75.7298C152.388 75.0328 151.781 74.3932 151.343 73.9258C151.092 73.6844 150.866 73.4194 150.666 73.1345C150.951 73.3356 151.213 73.5665 151.449 73.8233C151.912 74.2661 152.544 74.8893 153.233 75.5904C153.921 76.2915 154.532 76.927 154.971 77.3985C155.221 77.6373 155.447 77.901 155.643 78.1857Z" fill="#E0E0E0"/>
<path d="M183.326 106.898C183.326 106.898 183.326 106.849 183.326 106.759C183.326 106.669 183.326 106.529 183.326 106.349C183.326 105.988 183.326 105.467 183.326 104.791C183.326 103.425 183.326 101.437 183.326 98.9113C183.326 93.856 183.298 86.6564 183.277 78.03L183.367 78.1202H155.762L155.869 78.0177C155.869 88.608 155.869 98.5177 155.869 106.878L155.778 106.787L175.774 106.833L181.391 106.857H182.875H183.257H183.388H182.892H181.428H175.832L155.778 106.902H155.692V106.816C155.692 98.4562 155.692 88.5465 155.692 77.9562V77.8496H155.799H183.404H183.499V78.03C183.499 86.6769 183.466 93.9011 183.453 98.9687C183.453 101.486 183.453 103.479 183.429 104.828C183.429 105.496 183.429 106.013 183.429 106.369C183.429 106.537 183.429 106.664 183.429 106.779C183.429 106.894 183.326 106.898 183.326 106.898Z" fill="#E0E0E0"/>
<path d="M163.027 90.0922C163.027 90.0922 162.433 97.2385 170.169 97.2385C170.169 93.4255 167.025 90.4161 163.027 90.0922Z" fill="#EBEBEB"/>
<path d="M177.184 90.1004C177.184 90.1004 170.038 89.5059 170.038 97.2426C173.851 97.2426 176.86 94.0979 177.184 90.1004Z" fill="#EBEBEB"/>
<path d="M169.829 86.189C169.829 86.189 163.991 91.4288 170.149 97.2385C173.011 94.2045 172.769 89.4485 169.829 86.189Z" fill="#E0E0E0"/>
<path opacity="0.5" d="M210 190.5C210 190.559 143.998 190.375 68.6147 190.375C-6.76813 190.375 0.773646 190.559 0.773646 190.5C0.773646 190.44 -6.79653 190.154 68.6147 190.154C144.026 190.154 210 190.436 210 190.5Z" fill="#263238"/>
<path d="M88.416 120.831C88.416 120.831 80.1546 119.536 79.4657 119.56C78.777 119.585 72.2251 120.868 72.2251 120.868C72.2251 120.868 62.955 122.508 62.0202 123.181C61.0854 123.853 61.7742 125.965 61.7742 125.965C62.8033 126.375 66.0465 125.731 66.0465 125.731C66.082 126.448 66.2752 127.148 66.6122 127.781C67.1944 128.954 68.7852 128.658 68.7852 128.658L67.5552 129.298C67.6593 130.041 67.8463 130.77 68.1128 131.471C68.5638 132.701 71.5199 132.525 71.5199 132.525C71.5199 132.525 72.2989 134.279 73.5248 134.575C74.7507 134.87 81.1303 133.373 83.0245 133.168C84.9187 132.963 88.5513 130.708 88.5513 130.708C90.0127 131.228 91.5003 131.67 93.008 132.033L93.9388 119.995C93.2418 119.95 88.416 120.831 88.416 120.831Z" fill="#455A64"/>
<path d="M55.3001 159.011C51.7782 158.125 49.1132 155.046 47.9201 151.631C46.727 148.215 46.7557 144.468 47.1001 140.856C47.2339 140.188 47.1785 139.497 46.9402 138.859C46.4687 137.892 45.1731 137.555 44.144 137.875C43.1149 138.195 42.3236 139.007 41.684 139.855C39.8658 142.205 38.7686 145.032 38.5256 147.994C38.2825 150.955 38.9041 153.923 40.3149 156.538C41.7256 159.153 43.8649 161.302 46.4732 162.725C49.0815 164.148 52.0467 164.783 55.009 164.554" fill="#FFC100"/>
<path d="M81.9993 125.022C81.9993 125.022 90.2526 139.318 92.3395 145.067C94.4264 150.815 97.0832 166.62 97.0832 166.62C97.0832 166.62 109.473 169.81 101.798 183.135C98.961 188.055 99.2152 190.343 96.0336 190.49C93.5736 190.601 73.5984 190.449 73.5984 190.449L73.9592 192.405C73.9592 192.405 72.2864 198.055 68.908 196.46C65.5296 194.865 61.528 190.449 61.528 190.449L55.7183 190.372L41.889 190.47L37.8423 190.392V190.281C37.9802 189.182 38.4333 188.146 39.147 187.298C39.8607 186.451 40.8045 185.828 41.8644 185.505L44.8328 184.603C44.8328 184.603 40.9747 168.4 44.3162 164.513C47.6577 160.626 53.0943 160.893 53.0943 160.893L50.5974 144.218C50.1012 140.309 50.4951 136.338 51.7495 132.603L53.6232 127.031L81.9993 125.022Z" fill="#FFC100"/>
<path d="M53.3201 161.45C59.0601 164.701 62.9059 170.15 64.8288 176.374C64.8288 176.44 64.9477 176.411 64.9272 176.35C63.4389 171.524 60.7944 167.055 56.8953 163.791C55.7957 162.878 54.6171 162.064 53.3734 161.36C53.316 161.327 53.2627 161.417 53.3201 161.45Z" fill="#263238"/>
<path d="M53.4426 127.601C53.4426 127.601 50.7489 134.796 50.5234 138.392C50.1503 144.357 53.1064 160.884 53.1064 160.884C53.1064 160.884 52.0937 177.083 51.2163 179.486C50.3389 181.889 50.7038 184.103 46.7063 184.919C45.628 185.14 43.7461 188.637 43.7461 190.372H54.9268C54.9268 190.372 57.9526 186.952 58.0961 183.754C58.2396 180.556 63.5614 163.18 63.5614 163.18" fill="#FFC100"/>
<path d="M63.5614 163.18C63.5614 163.18 63.5615 163.225 63.5287 163.312C63.4958 163.398 63.4671 163.533 63.4179 163.697C63.3195 164.037 63.176 164.537 62.9874 165.181C62.6061 166.493 62.0567 168.4 61.3474 170.819C60.6381 173.238 59.8263 176.19 58.9899 179.584C58.7808 180.433 58.5799 181.311 58.3995 182.221C58.3585 182.448 58.3175 182.677 58.2765 182.91C58.2355 183.139 58.2191 183.373 58.1904 183.607L58.1166 184.328C58.0756 184.57 58.0346 184.812 57.9731 185.054C57.3764 187.041 56.3583 188.875 54.9883 190.433L54.9637 190.466H54.9187H43.7379H43.6313V190.363C43.7312 189.278 44.0566 188.225 44.5866 187.272C44.8365 186.777 45.1258 186.302 45.4517 185.853C45.6196 185.626 45.8061 185.414 46.0093 185.218C46.2173 185.004 46.4818 184.853 46.7719 184.783C47.8379 184.55 48.949 184.152 49.6419 183.283C50.3348 182.413 50.5357 181.233 50.8719 180.126C50.9293 179.917 51.0031 179.716 51.0728 179.507C51.1425 179.297 51.1835 179.097 51.2409 178.9C51.3229 178.49 51.4131 178.08 51.4705 177.67C51.6017 176.85 51.7042 175.997 51.7985 175.165C51.9912 173.5 52.1388 171.856 52.2823 170.245C52.5611 167.006 52.7907 163.877 52.9875 160.893V160.917C52.1388 156.022 51.4623 151.487 50.9826 147.387C50.7448 145.337 50.5726 143.422 50.466 141.647C50.3274 140.005 50.3976 138.352 50.6751 136.727C50.958 135.255 51.3229 133.96 51.6509 132.836C51.9789 131.713 52.2987 130.766 52.5611 129.995C52.8235 129.224 53.0408 128.642 53.1843 128.244L53.3565 127.797C53.3975 127.695 53.4221 127.646 53.4221 127.646L53.3729 127.801C53.336 127.912 53.2827 128.06 53.2171 128.257C53.0818 128.667 52.8809 129.253 52.6226 130.015C52.3643 130.778 52.0691 131.742 51.7452 132.865C51.4213 133.988 51.0687 135.284 50.794 136.752C50.5258 138.378 50.4652 140.031 50.6136 141.672C50.712 143.459 50.9047 145.362 51.1507 147.412C51.6386 151.487 52.3274 156.022 53.2007 160.942V160.966C53.008 163.955 52.7907 167.084 52.5078 170.323C52.3684 171.942 52.2167 173.603 52.0281 175.243C51.9297 176.063 51.8272 176.915 51.696 177.756C51.6386 178.166 51.5484 178.596 51.4664 179.019C51.4049 179.228 51.3516 179.429 51.2901 179.65C51.2286 179.871 51.1507 180.06 51.0933 180.257C50.9293 180.81 50.7981 181.372 50.6218 181.93C50.4576 182.493 50.1892 183.02 49.8305 183.484C49.4532 183.931 48.9813 184.29 48.4488 184.533C47.9245 184.772 47.3742 184.95 46.8088 185.062C46.555 185.122 46.3241 185.254 46.1446 185.443C45.9499 185.63 45.7716 185.833 45.6116 186.05C45.2931 186.488 45.0106 186.952 44.767 187.436C44.2502 188.359 43.9305 189.38 43.8281 190.433L43.7256 190.331H54.9063L54.8366 190.359C56.1901 188.826 57.1982 187.019 57.7927 185.062C57.8501 184.828 57.8952 184.591 57.9362 184.357L58.01 183.648C58.0387 183.41 58.0592 183.168 58.0962 182.934C58.133 182.7 58.1822 182.471 58.2273 182.241C58.4077 181.331 58.6168 180.45 58.8259 179.601C59.6747 176.202 60.5275 173.266 61.2285 170.839C61.9296 168.412 62.5118 166.518 62.9095 165.218C63.1104 164.578 63.2621 164.082 63.3687 163.738L63.4917 163.361C63.5095 163.299 63.5329 163.238 63.5614 163.18Z" fill="#263238"/>
<path d="M83.1389 135.079C83.1389 135.079 83.1799 135.165 83.2496 135.341L83.5448 136.129C83.8031 136.826 84.1762 137.846 84.66 139.158C85.6153 141.795 86.997 145.608 88.6001 150.36C89.0101 151.549 89.4201 152.795 89.8096 154.107C90.0146 154.759 90.2196 155.431 90.3959 156.12C90.5631 156.828 90.6877 157.546 90.769 158.269C91.1257 161.2 91.2938 164.349 91.4824 167.658C91.671 170.966 91.8268 174.443 92.0687 178.039C92.1958 179.835 92.327 181.667 92.5812 183.504C92.6468 183.963 92.7206 184.427 92.8231 184.878C92.8732 185.106 92.939 185.331 93.0199 185.55C93.0566 185.652 93.1062 185.748 93.1675 185.837C93.1962 185.87 93.229 185.911 93.2577 185.919C93.3071 185.941 93.3577 185.96 93.4094 185.976C93.8761 186.112 94.3178 186.323 94.7173 186.6C94.9179 186.74 95.1046 186.899 95.2749 187.075C95.4418 187.257 95.5889 187.456 95.7136 187.67C96.1906 188.546 96.3361 189.565 96.1236 190.54V190.622H96.0375H83.5366H83.43V190.519C83.479 189.475 83.6371 188.439 83.9015 187.428C84.1393 186.431 84.4099 185.46 84.7215 184.509V184.55C83.9671 179.63 83.2537 175.074 82.5854 171.02C82.2451 168.994 81.9294 167.088 81.5768 165.333C81.5276 165.116 81.4907 164.894 81.4333 164.685L81.3513 164.373C81.3166 164.275 81.2741 164.179 81.2242 164.086C81.0211 163.722 80.7865 163.377 80.5231 163.053C80.0229 162.405 79.5022 161.823 79.0102 161.253C77.0135 159.023 75.3489 157.338 74.2173 156.178L72.9135 154.853L72.5814 154.513C72.5035 154.435 72.4707 154.394 72.4707 154.394L72.5896 154.501L72.9381 154.829C73.2415 155.132 73.6829 155.567 74.2624 156.132C75.4063 157.28 77.0873 158.953 79.1004 161.171C79.5965 161.733 80.1213 162.319 80.6297 162.975C80.9014 163.303 81.1416 163.656 81.3472 164.029C81.4027 164.126 81.4493 164.227 81.4866 164.332L81.5686 164.652C81.6301 164.865 81.667 165.083 81.7162 165.304C82.0811 167.063 82.4009 168.965 82.7453 170.995C83.43 175.05 84.1557 179.605 84.9142 184.525V184.57C84.6231 185.517 84.3525 186.485 84.1188 187.477C83.8615 188.474 83.7063 189.495 83.6555 190.523L83.553 190.421L96.0539 190.396L95.9473 190.478C96.1392 189.558 95.9937 188.599 95.5373 187.776C95.4188 187.578 95.2815 187.391 95.1273 187.219C94.9659 187.056 94.7903 186.908 94.6025 186.776C94.2272 186.513 93.8118 186.312 93.3725 186.181C93.3112 186.161 93.251 186.138 93.1921 186.112C93.1214 186.079 93.0617 186.026 93.0199 185.96C92.9445 185.857 92.8851 185.744 92.8436 185.624C92.7584 185.4 92.6899 185.169 92.6386 184.935C92.532 184.472 92.4582 184.008 92.3926 183.545C92.1384 181.692 92.0072 179.855 91.8801 178.059C91.6423 174.459 91.4701 170.983 91.3061 167.674C91.1421 164.365 90.9617 161.221 90.6173 158.297C90.537 157.582 90.4152 156.871 90.2524 156.169C90.0693 155.483 89.8766 154.814 89.6743 154.16C89.2643 152.852 88.8543 151.606 88.4771 150.417C86.8945 145.661 85.5333 141.84 84.6026 139.195C84.1352 137.879 83.7826 136.854 83.5243 136.149C83.4054 135.809 83.3111 135.542 83.2496 135.358C83.1881 135.173 83.1389 135.079 83.1389 135.079Z" fill="#263238"/>
<path d="M72.221 172.84C72.1392 172.788 72.0623 172.729 71.9914 172.664L71.3641 172.131C70.8311 171.655 70.0767 170.942 69.2034 170.007C66.9452 167.553 64.8536 164.95 62.9427 162.217C61.0037 159.507 59.2504 156.669 57.6947 153.722C57.1084 152.582 56.6902 151.635 56.4237 150.971C56.3089 150.651 56.2146 150.397 56.1408 150.2C56.1041 150.111 56.0753 150.019 56.0547 149.925C56.106 150.006 56.1486 150.093 56.1818 150.183L56.5016 150.938C56.7927 151.59 57.2273 152.524 57.83 153.652C59.4206 156.57 61.1869 159.389 63.119 162.094C65.0265 164.812 67.0952 167.413 69.3141 169.884C70.171 170.831 70.9049 171.557 71.4215 172.049L72.0201 172.61C72.0937 172.681 72.161 172.758 72.221 172.84Z" fill="#263238"/>
<path d="M65.345 171.27C66.103 173.692 66.6046 176.188 66.8415 178.715C66.8488 178.985 66.9591 179.241 67.1498 179.432C67.3405 179.623 67.597 179.733 67.8665 179.74C68.138 179.739 68.3981 179.631 68.5901 179.439C68.7821 179.247 68.8905 178.987 68.8915 178.715C68.6501 176.004 68.1237 173.325 67.3212 170.724C67.2489 170.462 67.0755 170.24 66.839 170.106C66.6026 169.971 66.3225 169.937 66.0605 170.009C65.7984 170.081 65.5758 170.255 65.4416 170.491C65.3075 170.728 65.2727 171.008 65.345 171.27Z" fill="#FFC100"/>
<path d="M53.5082 129.249C53.1597 120.479 52.5283 110.241 53.4836 106.904C54.4389 103.566 61.1506 96.9736 65.0087 95.4238C68.8668 93.874 75.2587 95.9322 77.1857 97.6419L89.3299 94.7227C89.3299 94.7227 91.712 100.245 88.7764 104.673C85.8408 109.101 77.1816 109.052 77.1816 109.052C77.1816 109.052 76.4067 113.87 80.109 114.292C83.8113 114.714 88.7395 114.136 89.211 118.162L81.6055 118.843L82.0155 125.551L67.5425 133.242L53.992 129.331" fill="#FFC100"/>
<path d="M63.9104 100.766C63.9538 100.883 63.9801 101.006 63.9883 101.131L64.14 102.189C64.263 103.16 64.427 104.477 64.632 106.08C64.837 107.683 65.042 109.7 65.3085 111.861C65.4623 113.003 65.5527 114.153 65.5791 115.305C65.6238 116.563 65.4161 117.818 64.9682 118.995C64.4828 120.19 63.5545 121.152 62.377 121.68C61.2764 122.135 60.0633 122.242 58.9002 121.988C57.8529 121.772 56.8788 121.29 56.0712 120.59C55.3889 119.97 54.8322 119.226 54.4312 118.396C53.8481 117.203 53.5359 115.895 53.5169 114.567C53.5063 114.21 53.5186 113.852 53.5538 113.497C53.5574 113.371 53.5795 113.247 53.6194 113.128C53.6522 113.128 53.5989 113.64 53.6563 114.558C53.7317 115.854 54.0736 117.12 54.6608 118.277C55.0708 119.069 55.6273 119.776 56.3008 120.36C57.0766 121.015 58.0064 121.462 59.0027 121.66C60.1018 121.894 61.2461 121.786 62.2827 121.352C63.3751 120.859 64.2345 119.963 64.6812 118.851C65.1084 117.721 65.309 116.517 65.2716 115.309C65.2481 114.17 65.1659 113.032 65.0256 111.902C64.8001 109.733 64.5951 107.773 64.4229 106.108C64.2507 104.444 64.1441 103.177 64.0498 102.201C64.017 101.791 63.9883 101.422 63.9637 101.139C63.9313 101.017 63.9134 100.892 63.9104 100.766Z" fill="#263238"/>
<path d="M85.7097 95.6493C85.6943 96.3045 85.9322 96.9404 86.3739 97.4246C86.811 97.8535 87.3521 98.1615 87.9442 98.3184C88.6853 98.6202 89.5101 98.6464 90.2689 98.3922C90.2677 97.418 90.1156 96.4498 89.8179 95.5222C89.788 95.3753 89.7282 95.2361 89.6421 95.1134C89.5561 94.9906 89.4456 94.8869 89.3177 94.8088C89.1575 94.7515 88.9857 94.7346 88.8175 94.7596C87.73 94.8401 86.6713 95.1474 85.7097 95.6616" fill="#263238"/>
<g opacity="0.3">
<path d="M53.6356 115.333C53.9636 117.502 54.5622 119.876 56.0423 121.483C57.5224 123.091 59.8553 124.05 61.9709 123.484C64.5744 122.787 66.1816 120.02 66.3907 117.334C66.5998 114.649 65.7019 112.004 64.8163 109.47C65.2263 111.893 65.665 114.39 65.0951 116.785C64.5252 119.179 62.7048 121.446 60.2653 121.738C59.412 121.812 58.5532 121.681 57.7607 121.356C56.9683 121.031 56.2652 120.52 55.7102 119.868C54.5375 118.626 53.8057 117.032 53.6274 115.333" fill="black"/>
</g>
<path d="M90.3102 99.3516C90.3432 99.5621 90.3432 99.7765 90.3102 99.9871C90.2638 100.563 90.172 101.135 90.0355 101.697C89.834 102.533 89.5397 103.345 89.1581 104.116C88.6965 105.08 88.0289 105.931 87.2024 106.609C86.3596 107.252 85.4199 107.757 84.4185 108.105C83.6119 108.397 82.7821 108.621 81.938 108.773C81.3718 108.882 80.7994 108.954 80.2242 108.991C80.0151 109.025 79.8018 109.025 79.5928 108.991C79.5928 108.933 80.4825 108.859 81.8847 108.531C82.706 108.346 83.513 108.102 84.2996 107.802C85.2596 107.447 86.1619 106.953 86.9769 106.334C87.7612 105.687 88.4021 104.884 88.8588 103.976C89.2439 103.231 89.5542 102.45 89.7854 101.643C90.1831 100.245 90.2446 99.3475 90.3102 99.3516Z" fill="#263238"/>
<path d="M72.6143 101.188C72.3441 101.3 72.1283 101.512 72.0133 101.781C71.8983 102.049 71.8934 102.352 71.9995 102.625C72.1055 102.897 72.3142 103.117 72.5806 103.237C72.8471 103.357 73.1499 103.367 73.4241 103.266C73.6982 103.165 73.9218 102.961 74.0467 102.696C74.1716 102.432 74.1879 102.13 74.092 101.854C73.9961 101.578 73.7957 101.35 73.534 101.221C73.2722 101.091 72.97 101.069 72.6922 101.16" fill="#263238"/>
<path d="M68.4201 102.488C68.2848 102.541 68.0593 102.365 67.8912 101.98C67.687 101.468 67.6441 100.905 67.7682 100.368C67.8742 99.8282 68.1449 99.334 68.5431 98.9539C68.8547 98.671 69.1335 98.6013 69.236 98.7038C69.4451 98.9334 69.0228 99.6591 68.826 100.598C68.6292 101.537 68.7235 102.365 68.4201 102.488Z" fill="#263238"/>
<path d="M83.5326 174.213C83.5326 174.238 83.1226 174.213 82.3559 174.25C81.8976 174.271 81.4414 174.325 80.9906 174.41C80.396 174.518 79.8237 174.724 79.2973 175.021C78.1206 175.673 76.9767 176.842 75.6647 178.051C74.3527 179.261 73.1678 180.88 71.4622 182.106C70.6328 182.713 69.6744 183.12 68.6619 183.295C67.682 183.455 66.7349 183.434 65.8452 183.504C65.0074 183.532 64.1853 183.738 63.4344 184.111C62.7926 184.459 62.242 184.953 61.8272 185.554C61.2109 186.425 60.8865 187.468 60.9006 188.535C60.9233 188.925 60.974 189.312 61.0523 189.695C60.9087 189.326 60.8297 188.935 60.8186 188.539C60.7691 187.446 61.0803 186.367 61.7042 185.468C62.123 184.841 62.6852 184.322 63.3442 183.955C64.1147 183.563 64.961 183.344 65.8247 183.311C66.7267 183.233 67.6697 183.246 68.6209 183.09C69.6017 182.916 70.5299 182.52 71.3351 181.934C73.0038 180.732 74.2051 179.142 75.5253 177.912C76.8455 176.682 77.9853 175.546 79.2153 174.886C79.7607 174.593 80.3509 174.392 80.9619 174.291C81.4185 174.214 81.8805 174.173 82.3436 174.168C82.7249 174.168 83.0201 174.168 83.221 174.189C83.3253 174.189 83.4295 174.197 83.5326 174.213Z" fill="#263238"/>
<path d="M68.2642 186.706C68.3875 186.676 68.5147 186.665 68.6414 186.673C68.9851 186.678 69.3273 186.719 69.6623 186.796C70.7882 187.043 71.8078 187.638 72.5762 188.497C73.3446 189.356 73.8228 190.435 73.9427 191.581C73.9796 191.923 73.9796 192.268 73.9427 192.61C73.9389 192.736 73.914 192.861 73.8689 192.979C73.8279 192.979 73.914 192.442 73.7869 191.597C73.6313 190.496 73.1518 189.465 72.4094 188.637C71.667 187.808 70.6951 187.219 69.6172 186.944C68.8013 186.723 68.2601 186.747 68.2642 186.706Z" fill="#263238"/>
<path d="M72.3111 192.11C72.2768 192.439 72.1734 192.758 72.0077 193.045C71.6439 193.763 71.0887 194.366 70.4035 194.788C69.7183 195.209 68.9297 195.434 68.125 195.435C67.7938 195.458 67.4618 195.406 67.1533 195.283C67.1533 195.251 67.5264 195.32 68.1168 195.283C68.8864 195.243 69.6336 195.011 70.2898 194.607C70.946 194.203 71.4902 193.64 71.8724 192.971C72.1717 192.458 72.2742 192.11 72.3111 192.11Z" fill="#263238"/>
<path d="M68.7729 189.465C68.7729 189.498 68.4449 189.564 67.9529 189.773C67.3045 190.04 66.722 190.445 66.2456 190.96C65.7692 191.475 65.4102 192.087 65.1936 192.754C65.0214 193.266 64.9845 193.602 64.9476 193.598C64.9201 193.298 64.955 192.995 65.0501 192.709C65.2391 191.999 65.5998 191.347 66.1003 190.81C66.6008 190.273 67.2258 189.868 67.9201 189.629C68.1892 189.514 68.4801 189.458 68.7729 189.465Z" fill="#263238"/>
<path d="M92.1223 190.753C92.1302 190.478 92.159 190.204 92.2084 189.933C92.294 189.276 92.2338 188.608 92.0321 187.977C91.8071 187.36 91.3536 186.852 90.7652 186.559C90.5111 186.46 90.2472 186.388 89.978 186.345C90.2607 186.268 90.5616 186.294 90.8267 186.419C91.1511 186.556 91.4436 186.758 91.6857 187.014C91.9278 187.269 92.1141 187.572 92.233 187.903C92.4511 188.564 92.4935 189.271 92.356 189.953C92.3252 190.231 92.2461 190.502 92.1223 190.753Z" fill="#263238"/>
<path d="M51.6387 186.054C51.6387 186.091 51.2574 186.054 50.667 186.132C49.8974 186.245 49.1707 186.557 48.5596 187.038C47.9568 187.532 47.492 188.173 47.2107 188.9C46.9975 189.457 46.9606 189.834 46.9237 189.83C46.8975 189.495 46.948 189.159 47.0713 188.846C47.3179 188.069 47.7889 187.381 48.425 186.871C49.0611 186.36 49.834 186.049 50.6465 185.976C50.9789 185.926 51.3183 185.953 51.6387 186.054Z" fill="#263238"/>
<path d="M102.684 182.315C102.684 182.315 102.88 182.057 103.192 181.565C103.628 180.873 103.97 180.125 104.209 179.343C104.556 178.178 104.709 176.965 104.66 175.751C104.607 174.266 104.258 172.807 103.635 171.458C103.018 170.107 102.053 168.944 100.839 168.088C99.8566 167.387 98.7397 166.897 97.5586 166.649C96.7574 166.486 95.9301 166.501 95.1355 166.694C94.9207 166.755 94.7098 166.829 94.5041 166.915C94.4344 166.952 94.3599 166.978 94.2827 166.993C94.3457 166.945 94.4146 166.905 94.4877 166.874C94.6869 166.769 94.8955 166.683 95.1109 166.616C95.9105 166.385 96.7533 166.346 97.5709 166.501C98.789 166.726 99.9441 167.212 100.958 167.924C101.561 168.337 102.106 168.829 102.577 169.388C103.078 169.993 103.5 170.658 103.836 171.368C104.473 172.743 104.823 174.233 104.865 175.747C104.906 176.98 104.736 178.212 104.361 179.388C104.105 180.178 103.738 180.928 103.27 181.614C103.098 181.852 102.958 182.024 102.86 182.147C102.807 182.209 102.748 182.266 102.684 182.315Z" fill="#263238"/>
<path d="M53.0779 161.36C51.169 160.924 49.1673 161.178 47.4281 162.077C46.3246 162.63 45.3539 163.414 44.5827 164.378C44.1843 164.869 43.8711 165.423 43.6561 166.018C43.4666 166.579 43.3294 167.157 43.2461 167.744C43.1089 168.748 43.0499 169.761 43.0698 170.774C43.0698 171.639 43.1026 172.34 43.1149 172.824C43.1149 173.045 43.1149 173.234 43.1149 173.381C43.1253 173.446 43.1253 173.513 43.1149 173.578C43.0959 173.516 43.0862 173.451 43.0862 173.385C43.0862 173.229 43.0575 173.049 43.0411 172.828C43.0042 172.34 42.955 171.639 42.9263 170.778C42.887 169.756 42.9323 168.733 43.0616 167.719C43.1411 167.118 43.2784 166.526 43.4716 165.952C43.6908 165.332 44.0138 164.754 44.4269 164.242C45.2175 163.255 46.2173 162.455 47.3543 161.901C48.2774 161.446 49.2742 161.158 50.2981 161.052C50.9825 160.983 51.6735 161.016 52.3481 161.151C52.5329 161.185 52.7151 161.231 52.8934 161.29C52.9576 161.306 53.0196 161.329 53.0779 161.36Z" fill="#263238"/>
<path d="M36.1656 152.467C36.1096 152.324 36.0737 152.173 36.059 152.02C35.9858 151.613 35.9366 151.203 35.9114 150.79C35.7246 148.016 36.3107 145.244 37.6047 142.783C37.7942 142.402 38.0078 142.034 38.2443 141.68C38.3199 141.546 38.4122 141.422 38.519 141.311C38.5518 141.331 38.1951 141.881 37.7359 142.824C36.5368 145.291 35.9624 148.016 36.0631 150.757C36.1 151.819 36.2025 152.463 36.1656 152.467Z" fill="#263238"/>
<path d="M34.8493 153.107C34.792 152.963 34.7521 152.813 34.7304 152.66C34.6607 152.373 34.591 151.946 34.5213 151.43C34.1842 148.671 34.4557 145.872 35.3167 143.23C35.4848 142.725 35.6365 142.324 35.7595 142.053C35.8103 141.909 35.8777 141.771 35.9604 141.643C35.9973 141.643 35.7554 142.27 35.4602 143.283C34.6861 145.927 34.419 148.694 34.673 151.438C34.7673 152.455 34.8862 153.103 34.8493 153.107Z" fill="#263238"/>
<g opacity="0.3">
<path d="M61.5935 169.363C63.3004 171.239 64.5198 173.506 65.1441 175.964C65.3252 176.495 65.3324 177.069 65.1646 177.604C64.6931 178.711 63.172 178.76 62.1347 179.359C61.2614 179.859 60.7243 180.769 60.2241 181.643L55.1401 190.482C56.7104 190.351 57.2926 190.515 58.8629 190.388L61.3885 190.441C61.2942 190.482 60.8965 189.24 60.8637 188.658C60.7612 186.878 61.9625 184.726 63.5615 183.935C65.5664 182.938 67.8747 183.771 69.9124 182.836C71.8599 181.938 73.0202 180.568 74.2871 179.314C75.8779 177.735 77.4564 175.624 79.4941 174.71C80.4166 174.3 82.6183 174.25 82.6183 174.25C81.5728 173.02 79.654 173.082 78.1083 173.5C76.5626 173.918 74.9472 174.603 73.3687 174.246C72.0444 173.951 70.9907 172.971 70.0108 172.032C67.4975 169.63 64.8981 167.112 63.7747 163.804L61.6796 169.22" fill="black"/>
</g>
<g opacity="0.3">
<path d="M96.0335 190.49C96.8535 188.498 94.9921 186.144 94.2459 184.127C93.4997 182.11 93.6555 179.83 93.6596 177.653C93.6711 173.054 92.9287 168.483 91.462 164.123C91.298 170.101 91.9827 176.448 92.3394 182.413C92.4132 183.68 92.3148 185.144 93.2455 186.005C93.7211 186.448 94.004 186.255 94.537 186.624C95.07 186.993 96.1155 187.854 96.0335 190.478" fill="black"/>
</g>
<path d="M71.8885 131.606C71.1305 131.337 70.4336 130.921 69.8381 130.38C69.2426 129.84 68.7606 129.186 68.4199 128.457C68.9041 129.077 69.4257 129.665 69.982 130.22C70.5866 130.723 71.2235 131.186 71.8885 131.606Z" fill="#263238"/>
<path d="M73.426 130.766C72.1115 130.37 70.9607 129.558 70.146 128.453C70.1952 128.412 70.8143 129.064 71.7204 129.683C72.6265 130.302 73.4506 130.704 73.426 130.766Z" fill="#263238"/>
<path d="M75.4514 130.692C74.8059 130.578 74.1971 130.311 73.6761 129.913C73.1154 129.575 72.6421 129.11 72.2944 128.556C72.3436 128.511 72.9217 129.15 73.795 129.737C74.6683 130.323 75.4719 130.63 75.4514 130.692Z" fill="#263238"/>
<path d="M61.5077 148.301C60.7615 147.98 60.1055 147.48 59.5971 146.846C59.0381 146.259 58.6337 145.541 58.4204 144.759C58.8223 145.438 59.2703 146.089 59.7611 146.707C60.3074 147.276 60.8909 147.809 61.5077 148.301Z" fill="#263238"/>
<path d="M63.0203 148.322C61.8608 147.606 60.969 146.528 60.4824 145.255C60.5398 145.226 60.9621 146.018 61.6632 146.862C62.3643 147.707 63.0572 148.273 63.0203 148.322Z" fill="#263238"/>
<path d="M65.6567 148.834C65.1249 148.419 64.6384 147.949 64.2053 147.432C63.7194 146.963 63.2851 146.444 62.9097 145.882C63.4408 146.3 63.9272 146.771 64.3611 147.289C64.8462 147.757 65.2805 148.275 65.6567 148.834Z" fill="#263238"/>
<path d="M57.5221 114.714C57.5221 114.714 57.3376 114.64 57.1121 114.419C56.8465 114.122 56.648 113.771 56.5299 113.39C56.3994 113.012 56.3505 112.611 56.3864 112.213C56.4192 111.91 56.493 111.734 56.5176 111.738C56.5196 112.272 56.5913 112.804 56.7308 113.32C56.9299 113.819 57.1961 114.288 57.5221 114.714Z" fill="#263238"/>
<path d="M58.2441 114.399C57.9346 114.104 57.7192 113.725 57.625 113.308C57.4678 112.911 57.4293 112.476 57.5143 112.057C57.5799 112.057 57.6291 112.607 57.83 113.242C58.0309 113.878 58.2933 114.366 58.2441 114.399Z" fill="#263238"/>
<path d="M59.8716 115.44C59.0963 114.551 58.6 113.453 58.4448 112.283C58.5063 112.283 58.7236 113.013 59.1172 113.878C59.5108 114.743 59.9208 115.383 59.8716 115.44Z" fill="#263238"/>
<path d="M108.157 39.7335C104.98 41.681 103.901 46.3837 103.766 50.1065C103.631 53.8293 104.644 57.4865 105.468 61.1232C106.292 64.7599 106.927 68.5688 106.033 72.1932C105.213 75.547 103.114 79.0812 104.619 82.189C105.755 84.5342 108.662 85.7519 109.465 88.2324C110.4 91.127 108.034 93.9724 105.861 96.0839C106.383 96.8746 107.18 97.4437 108.097 97.6807C109.014 97.9178 109.987 97.8061 110.826 97.3672C110.799 97.8081 110.68 98.2385 110.479 98.6315C110.277 99.0245 109.996 99.3715 109.654 99.6509C110.896 99.9493 112.197 99.8842 113.403 99.4633C114.61 99.0424 115.669 98.2834 116.456 97.277C116.156 98.3102 115.853 99.327 115.554 100.377C118.049 99.7872 120.217 98.2489 121.597 96.088L122.643 98.0478C126.64 95.3008 129.42 90.9794 130.785 86.3218C132.15 81.6642 132.163 76.6909 131.38 71.9021C130.216 65.126 127.519 58.7056 123.494 53.1316C119.469 47.5576 114.223 42.9776 108.157 39.7417" fill="#263238"/>
<path d="M154.659 73.8783C153.237 72.1686 151.482 70.4712 151.285 68.2531C151.199 67.2773 151.433 66.2728 151.211 65.3134C150.637 62.8534 147.423 61.8653 146.455 59.5201C145.225 56.5763 148.005 52.6813 145.955 50.2418C144.971 49.0733 143.278 48.8437 141.986 48.0278C138.706 45.9491 139.502 40.2378 131.634 36.0804L132.22 48.6346C134.872 59.2523 136.978 69.9988 138.53 80.8319L156.287 79.9545C157.3 77.9783 156.086 75.588 154.659 73.8783Z" fill="#263238"/>
<path d="M104.397 44.3091C104.491 42.7428 104.897 41.2109 105.589 39.803C106.282 38.395 107.248 37.1393 108.432 36.1091C111.035 33.8623 114.549 32.8619 117.985 32.8291C121.421 32.7963 124.82 33.6122 128.091 34.67C129.928 35.2645 131.781 35.9533 133.27 37.1792C135.992 39.4137 137.074 43.0258 138.022 46.4165C138.784 49.1594 139.555 52.0417 138.924 54.8174C138.623 56.0934 138.039 57.2857 137.216 58.3061C136.393 59.3265 135.351 60.1491 134.168 60.7132" fill="#263238"/>
<path d="M105.349 41.9475C103.483 45.1125 102.748 48.8175 103.264 52.4551C103.781 56.0926 105.517 59.4468 108.19 61.9678C108.281 54.0525 109.062 46.1603 110.523 38.3805" fill="#263238"/>
<path d="M104.627 52.8371C103.807 47.2898 106.009 39.7991 111.597 39.2169L124.902 39.7212C129.17 39.8852 132.602 42.7224 133.795 46.8224C133.852 47.0274 133.819 46.7691 133.848 46.929L140.031 80.18C140.513 82.7987 139.94 85.5018 138.438 87.7003C136.936 89.8989 134.626 91.415 132.011 91.9183C129.421 92.4166 126.738 91.8801 124.539 90.4239C122.339 88.9677 120.797 86.7076 120.244 84.1283C119.666 81.4674 118.99 78.3268 118.99 78.3432C118.99 78.3596 111.749 78.6671 108.358 69.8521C106.673 65.4651 105.538 58.9994 104.627 52.8371Z" fill="#FFBE9D"/>
<path d="M116.55 47.2857C114.942 48.2011 113.163 48.7774 111.323 48.979C111.323 48.9134 112.512 48.651 113.951 48.1836C115.39 47.7162 116.522 47.2283 116.55 47.2857Z" fill="#BFA4A0"/>
<path d="M114.443 47.4005C113.444 47.9751 112.314 48.2816 111.163 48.2902C111.697 48.0986 112.246 47.9465 112.803 47.8351C113.338 47.6502 113.886 47.5049 114.443 47.4005Z" fill="#BFA4A0"/>
<path d="M122.13 64.641C122.073 64.6615 121.913 64.3089 121.494 64.1531C121.076 63.9973 120.724 64.1531 120.695 64.0752C120.666 63.9973 120.752 63.9686 120.916 63.9112C121.133 63.8416 121.367 63.8517 121.576 63.9399C121.789 64.0204 121.968 64.1726 122.081 64.3704C122.155 64.5262 122.15 64.6369 122.13 64.641Z" fill="#BFA4A0"/>
<path d="M108.19 59.5488C108.253 59.8545 108.432 60.1237 108.69 60.299C108.948 60.4744 109.264 60.5421 109.572 60.4877C109.723 60.4682 109.869 60.4185 110.001 60.3414C110.133 60.2644 110.248 60.1616 110.34 60.0392C110.431 59.9168 110.497 59.7773 110.533 59.629C110.57 59.4806 110.576 59.3265 110.552 59.1757C110.49 58.8703 110.311 58.6011 110.054 58.4257C109.797 58.2503 109.481 58.1825 109.174 58.2368C109.023 58.2568 108.877 58.3069 108.745 58.384C108.613 58.4612 108.498 58.5639 108.406 58.686C108.315 58.8082 108.248 58.9475 108.211 59.0956C108.174 59.2437 108.167 59.3978 108.19 59.5488Z" fill="#263238"/>
<path d="M107.067 56.3631C107.243 56.4861 107.989 55.6415 109.252 55.375C110.515 55.1085 111.569 55.5431 111.671 55.375C111.724 55.293 111.519 55.047 111.052 54.8379C110.427 54.5783 109.737 54.5168 109.076 54.6616C108.421 54.7998 107.827 55.1413 107.378 55.6374C107.055 55.99 106.981 56.3098 107.067 56.3631Z" fill="#263238"/>
<path d="M119.502 57.0765C119.56 57.3896 119.739 57.6669 120.001 57.8475C120.264 58.0282 120.587 58.0974 120.9 58.04C121.051 58.02 121.197 57.9699 121.329 57.8927C121.46 57.8155 121.575 57.7127 121.666 57.5905C121.758 57.4682 121.824 57.3289 121.86 57.1808C121.897 57.0327 121.904 56.8787 121.88 56.728C121.818 56.4224 121.64 56.1529 121.382 55.9767C121.125 55.8006 120.809 55.7318 120.502 55.785C120.351 55.8026 120.205 55.8503 120.073 55.9251C119.94 55.9999 119.824 56.1004 119.731 56.2206C119.638 56.3409 119.569 56.4785 119.53 56.6255C119.491 56.7724 119.481 56.9258 119.502 57.0765Z" fill="#263238"/>
<path d="M119.494 53.9646C119.674 54.0876 120.42 53.243 121.679 52.9765C122.938 52.71 123.995 53.1487 124.102 52.9765C124.151 52.8945 123.946 52.6485 123.483 52.4435C122.857 52.1799 122.165 52.1168 121.503 52.2631C120.847 52.4011 120.253 52.7443 119.805 53.243C119.481 53.6079 119.408 53.9113 119.494 53.9646Z" fill="#263238"/>
<path d="M116.911 64.2761C116.911 64.2023 116.091 64.2351 114.787 64.3417C114.459 64.3786 114.139 64.3786 114.041 64.1695C113.937 63.8454 113.937 63.4972 114.041 63.1732C114.176 62.3286 114.32 61.4471 114.471 60.5205C115.049 56.7526 115.394 53.6817 115.242 53.6612C115.09 53.6407 114.5 56.6747 113.918 60.4426C113.781 61.3692 113.653 62.2548 113.532 63.0994C113.412 63.5312 113.449 63.9914 113.635 64.3991C113.705 64.5024 113.798 64.5883 113.907 64.6501C114.016 64.712 114.137 64.7481 114.262 64.7558C114.45 64.7649 114.639 64.7512 114.824 64.7148C116.128 64.5139 116.923 64.3499 116.911 64.2761Z" fill="#263238"/>
<path d="M130.392 72.4966C130.392 72.4966 128.752 79.3969 119.453 80.4875L118.99 78.3432C123.258 77.4875 127.206 75.4634 130.392 72.4966Z" fill="#BFA4A0"/>
<path d="M118.087 67.1994C118.263 66.8466 118.526 66.5444 118.851 66.3213C119.176 66.0982 119.552 65.9616 119.945 65.9243C120.228 65.8899 120.515 65.9133 120.789 65.9929C121.064 66.0725 121.319 66.2068 121.539 66.3876C121.751 66.5629 121.903 66.7987 121.977 67.0633C122.05 67.3279 122.04 67.6086 121.949 67.8677C121.795 68.1368 121.564 68.3536 121.286 68.4902C121.007 68.6268 120.695 68.677 120.387 68.6344C119.747 68.5516 119.129 68.341 118.571 68.0153C118.408 67.9446 118.259 67.8445 118.132 67.7201C118.072 67.6603 118.031 67.5842 118.013 67.5011C117.996 67.418 118.003 67.3317 118.034 67.2527" fill="#BFA4A0"/>
<path d="M120.802 64.3581C120.597 64.3909 120.884 65.7603 119.92 66.978C118.957 68.1957 117.46 68.3556 117.497 68.5483C117.497 68.6385 117.879 68.7451 118.498 68.6303C119.305 68.4755 120.031 68.0397 120.548 67.4003C121.04 66.7868 121.273 66.006 121.2 65.2232C121.118 64.6369 120.9 64.3335 120.802 64.3581Z" fill="#263238"/>
<path d="M118.399 50.3443C118.596 50.66 119.818 50.2295 121.335 50.0942C122.852 49.9589 124.131 50.0942 124.262 49.758C124.315 49.594 124.041 49.3152 123.487 49.0856C122.758 48.8165 121.977 48.717 121.203 48.7944C120.43 48.8718 119.684 49.1242 119.022 49.5325C118.526 49.8646 118.313 50.1926 118.399 50.3443Z" fill="#263238"/>
<path d="M106.755 52.6198C107.038 52.8576 107.842 52.3779 108.883 52.1401C109.924 51.9023 110.847 51.9228 110.99 51.5825C111.048 51.4185 110.847 51.1725 110.404 50.9716C109.818 50.7566 109.181 50.7198 108.574 50.8657C107.968 51.0116 107.417 51.3337 106.993 51.7916C106.685 52.1811 106.628 52.5009 106.755 52.6198Z" fill="#263238"/>
<path d="M105.32 43.9729C105.583 42.4805 106.911 41.3325 108.375 40.9389C109.838 40.5453 111.405 40.7954 112.848 41.2628C118.953 43.2349 123.348 48.8109 129.412 50.906C130.904 51.4226 132.495 51.726 133.844 52.546C135.193 53.366 136.304 54.8994 135.968 56.4451C136.532 55.325 136.931 54.129 137.153 52.8945C137.261 52.2762 137.235 51.642 137.077 51.0345C136.919 50.427 136.633 49.8603 136.238 49.3726C135.603 48.6674 134.652 48.2287 134.229 47.3759C133.86 46.6256 133.996 45.7359 133.787 44.9159C133.517 44.1044 133.059 43.3682 132.45 42.7675C129.551 39.4875 125.935 36.761 121.761 35.4695C119.029 34.5852 116.107 34.4647 113.311 35.121C110.505 35.79 108.031 37.4442 106.341 39.7827C105.382 41.1562 104.365 42.5871 105.316 43.9729" fill="#263238"/>
<path d="M139.436 57.8227C139.198 57.7612 139.174 57.138 138.993 56.154C138.907 55.6059 138.725 55.0773 138.456 54.5919C138.384 54.4745 138.301 54.3635 138.21 54.2598C138.167 54.2103 138.12 54.1637 138.071 54.1204L137.874 53.94C137.58 53.6787 137.266 53.4402 136.935 53.2266C136.663 53.0373 136.354 52.9074 136.029 52.8453C135.922 52.8453 135.906 52.8699 135.955 52.874L135.648 53.0052L135.32 53.161C134.895 53.3692 134.496 53.6265 134.131 53.9277C133.938 54.0835 133.749 54.2557 133.557 54.4402L133.413 54.5837L133.167 54.8133C133.001 54.9594 132.827 55.0963 132.647 55.2233C131.911 55.7319 131.07 56.0682 130.187 56.2073C129.648 56.2905 129.099 56.2724 128.567 56.154L128.346 56.0966L128.169 56.0351C128.055 55.9941 127.932 55.9572 127.821 55.908C127.593 55.8113 127.371 55.7004 127.157 55.5759C126.381 55.1028 125.696 54.4946 125.135 53.7801C124.59 53.12 124.18 52.4763 123.77 51.89C122.306 49.7599 120.518 47.8728 118.469 46.2976C116.777 44.9963 114.935 43.9033 112.983 43.0422C111.704 42.4251 110.344 41.9917 108.944 41.7548C107.965 41.6113 107.35 41.6482 107.263 41.4104C107.177 41.1726 107.673 40.7052 108.862 40.4141C110.051 40.123 111.827 40.2009 113.782 40.7421C116.111 41.3645 118.32 42.3705 120.318 43.7187C122.793 45.3722 124.929 47.4833 126.611 49.9384C127.021 50.5698 127.431 51.1397 127.792 51.6153C128.097 52.0235 128.467 52.3794 128.887 52.669C128.969 52.723 129.056 52.7709 129.145 52.8125C129.188 52.8341 129.232 52.8532 129.276 52.8699L129.338 52.8945H129.367C129.499 52.9351 129.639 52.9462 129.777 52.9273C130.191 52.8758 130.589 52.7359 130.945 52.5173C131.035 52.464 131.117 52.4107 131.195 52.3574L131.306 52.2754L131.507 52.1032C131.781 51.8736 132.068 51.6563 132.364 51.4554C132.946 51.0595 133.576 50.7373 134.237 50.496C134.393 50.4427 134.545 50.3894 134.697 50.3443L134.918 50.2746L135.176 50.2049C135.675 50.0714 136.201 50.0828 136.693 50.2377C137.346 50.4504 137.944 50.8046 138.444 51.275C138.84 51.6279 139.2 52.0193 139.518 52.4435C139.596 52.546 139.658 52.6239 139.74 52.751C139.823 52.8687 139.898 52.992 139.965 53.12C140.088 53.3504 140.188 53.5921 140.264 53.8416C140.476 54.5917 140.507 55.3814 140.355 56.1458C140.092 57.3594 139.653 57.8842 139.436 57.8227Z" fill="#263238"/>
<path d="M134.328 53.94C134.369 53.6571 138.76 50.9183 139.908 55.9613C141.027 60.8813 135.861 60.9592 135.808 60.8239C135.754 60.6886 134.328 53.94 134.328 53.94Z" fill="#FFBE9D"/>
<path d="M136.915 58.6181C136.935 58.6181 137.013 58.6591 137.173 58.6919C137.396 58.7319 137.627 58.6849 137.817 58.5607C138.288 58.2532 138.542 57.3307 138.366 56.4451C138.286 56.0218 138.111 55.6222 137.853 55.2766C137.773 55.1332 137.659 55.0115 137.521 54.9222C137.383 54.8329 137.226 54.7786 137.062 54.7641C136.958 54.7614 136.857 54.7946 136.775 54.8581C136.692 54.9215 136.635 55.0115 136.611 55.1126C136.574 55.2643 136.611 55.3545 136.611 55.3668C136.611 55.3791 136.484 55.3094 136.48 55.1003C136.48 54.9722 136.523 54.8479 136.603 54.7477C136.715 54.6162 136.874 54.5338 137.046 54.5181C137.256 54.512 137.465 54.56 137.652 54.6577C137.838 54.7553 137.997 54.8992 138.112 55.0757C138.416 55.4529 138.623 55.8993 138.714 56.3754C138.903 57.3717 138.608 58.4254 137.944 58.7739C137.819 58.843 137.681 58.883 137.539 58.8908C137.397 58.8987 137.255 58.8741 137.124 58.819C136.951 58.7329 136.89 58.6304 136.915 58.6181Z" fill="#BFA4A0"/>
<path d="M117.829 89.5772C116.84 90.0009 115.947 90.6182 115.2 91.3928C114.454 92.1674 113.87 93.0835 113.483 94.0872C112.126 97.523 106.23 118.437 106.23 118.437L93.9302 120.016L92.9995 131.381C96.5567 132.308 100.186 132.933 103.848 133.25C108.383 133.66 115.714 132.984 117.624 131.914C119.535 130.844 117.436 90.0651 117.436 90.0651L117.829 89.5772Z" fill="#E0E0E0"/>
<path d="M120.322 86.4734C124.217 90.8973 134.451 81.9265 139.006 74.7966L124.353 143.615L121.852 143.004L120.322 86.4734Z" fill="#455A64"/>
<path d="M120.019 83.46L119.076 87.929L115.57 91.1024C115.525 96.9408 118.682 108.601 117.895 110.938C116.776 114.28 116.329 117.74 117.67 122.611C118.354 125.104 122.499 143.004 122.499 143.004C122.499 143.004 121.31 189.847 121.442 190.47H130.97L121.667 128.15L121.31 89.1139L120.019 83.46Z" fill="#E0E0E0"/>
<path d="M181.145 160.77C178.193 153.39 167.275 134.505 167.275 134.505C167.275 134.505 166.39 127.867 165.635 113.259C164.881 98.6505 158.571 82.2751 157.242 79.77C155.914 77.2649 141.154 74.8008 141.154 74.8008L138.571 71.0411C138.571 71.0411 133.069 85.51 132.79 85.92C132.511 86.33 126.603 103.698 126.013 108.568C125.422 113.439 123.77 139.671 123.77 139.671L130.97 190.47H184.647C184.647 190.47 184.097 168.145 181.145 160.77Z" fill="#E0E0E0"/>
<path d="M131.425 158.933L158.124 155.919H158.218V156.014C158.977 164.185 159.858 173.886 160.842 184.254C160.949 185.398 161.051 186.53 161.158 187.657V187.768H161.08L139.617 188.26H139.543L139.522 188.186C137.144 179.478 135.148 172.159 133.741 167.014C133.028 164.451 132.466 162.43 132.077 161.044L131.622 159.47L131.494 159.06C131.462 158.97 131.441 158.929 131.445 158.929C131.471 158.969 131.493 159.012 131.511 159.056C131.544 159.146 131.593 159.277 131.65 159.466C131.769 159.818 131.929 160.343 132.134 161.032C132.544 162.406 133.126 164.423 133.852 166.989C135.299 172.118 137.325 179.429 139.707 188.141L139.613 188.072L161.076 187.555L160.973 187.674C160.872 186.548 160.767 185.413 160.658 184.271C159.707 173.898 158.817 164.181 158.067 156.026L158.165 156.108L131.425 158.933Z" fill="#263238"/>
<path d="M158.752 162.693C158.752 162.75 153.012 163.217 145.951 163.734C138.891 164.251 133.139 164.624 133.135 164.554C133.131 164.484 138.875 164.029 145.935 163.513C152.995 162.996 158.747 162.631 158.752 162.693Z" fill="#263238"/>
<path d="M167.079 134.427C166.983 134.509 166.877 134.578 166.763 134.632C166.554 134.751 166.238 134.911 165.845 135.091C164.811 135.558 163.727 135.902 162.614 136.116C161.501 136.318 160.371 136.412 159.239 136.395C158.805 136.395 158.456 136.375 158.214 136.354C158.088 136.355 157.963 136.339 157.841 136.305C158.304 136.258 158.77 136.237 159.235 136.243C160.356 136.216 161.473 136.104 162.577 135.907C163.675 135.692 164.75 135.372 165.787 134.952C166.208 134.755 166.64 134.58 167.079 134.427Z" fill="#263238"/>
<path d="M167.275 134.505C167.002 134.847 166.697 135.162 166.365 135.448C165.779 136.006 164.946 136.752 164.012 137.555L161.621 139.605C161.303 139.9 160.966 140.174 160.613 140.425C160.884 140.081 161.189 139.765 161.523 139.482C162.109 138.925 162.942 138.179 163.872 137.371L166.263 135.321C166.58 135.025 166.919 134.752 167.275 134.505Z" fill="#263238"/>
<path d="M149.034 174.209C148.005 173.836 146.882 173.689 145.93 174.234C145.56 174.477 145.267 174.819 145.084 175.222C144.901 175.625 144.836 176.071 144.897 176.509C145.036 177.391 145.47 178.198 146.127 178.801C146.527 179.257 147.08 179.549 147.681 179.621C148.36 179.593 149.001 179.299 149.465 178.801C149.986 178.36 150.392 177.796 150.645 177.161C150.768 176.841 150.815 176.496 150.783 176.154C150.751 175.812 150.641 175.482 150.461 175.189C150.018 174.533 149.206 174.246 148.448 174" fill="#FFC100"/>
<path d="M145.529 173.66C145.616 173.224 145.569 172.772 145.393 172.364C145.303 172.164 145.17 171.987 145.002 171.845C144.835 171.703 144.638 171.6 144.426 171.544C144.211 171.49 143.985 171.5 143.776 171.573C143.567 171.646 143.384 171.778 143.249 171.954C143.078 172.225 143.012 172.549 143.065 172.865C143.094 173.146 143.199 173.414 143.368 173.641C143.537 173.868 143.763 174.046 144.024 174.156C144.292 174.265 144.59 174.275 144.865 174.186C145.14 174.097 145.375 173.913 145.529 173.668" fill="#FFC100"/>
<path d="M150.113 173.873C150.555 173.864 150.984 173.721 151.343 173.463C151.522 173.335 151.671 173.168 151.778 172.975C151.885 172.782 151.948 172.568 151.962 172.348C151.971 172.127 151.915 171.908 151.801 171.718C151.688 171.528 151.521 171.375 151.322 171.278C151.021 171.165 150.689 171.165 150.388 171.278C150.119 171.364 149.878 171.521 149.69 171.731C149.502 171.942 149.373 172.198 149.317 172.475C149.265 172.76 149.314 173.055 149.458 173.307C149.601 173.559 149.829 173.752 150.101 173.853" fill="#FFC100"/>
<path d="M152.351 175.3C152.657 175.298 152.956 175.204 153.208 175.029C153.329 174.939 153.428 174.823 153.499 174.69C153.57 174.556 153.61 174.409 153.618 174.259C153.625 174.106 153.586 173.954 153.508 173.823C153.429 173.692 153.313 173.586 153.175 173.521C152.968 173.443 152.739 173.443 152.531 173.521C152.347 173.58 152.182 173.687 152.052 173.831C151.922 173.975 151.833 174.151 151.793 174.341C151.759 174.537 151.795 174.74 151.893 174.913C151.992 175.087 152.148 175.221 152.335 175.292" fill="#FFC100"/>
<path d="M147.599 173.123C148.085 172.925 148.5 172.585 148.788 172.147C148.929 171.928 149.02 171.679 149.053 171.421C149.087 171.162 149.062 170.899 148.981 170.651C148.893 170.405 148.736 170.19 148.529 170.032C148.321 169.874 148.073 169.78 147.813 169.761C147.433 169.767 147.07 169.913 146.792 170.171C146.535 170.384 146.339 170.661 146.224 170.974C146.11 171.288 146.081 171.626 146.14 171.954C146.211 172.288 146.395 172.586 146.661 172.799C146.927 173.012 147.259 173.127 147.599 173.123Z" fill="#FFC100"/>
<path d="M125.997 122C126 121.959 126.01 121.919 126.025 121.881C126.05 121.791 126.087 121.676 126.128 121.528C126.23 121.209 126.37 120.758 126.538 120.188C126.915 119.007 127.456 117.318 128.129 115.247L133.459 98.876C133.5 98.589 133.545 98.2815 133.586 97.9699C133.996 95.1942 134.356 92.5251 134.709 90.0446V90.02H134.73L139.617 84.5506L139.596 84.5957L140.687 77.4658C140.818 76.6458 140.925 75.9734 140.998 75.5101C141.035 75.2928 141.064 75.1247 141.085 74.9976C141.094 74.9392 141.108 74.8817 141.126 74.8254C141.132 74.884 141.132 74.9431 141.126 75.0017C141.126 75.1288 141.089 75.301 141.064 75.5142C141.003 75.9816 140.912 76.6417 140.798 77.4822C140.552 79.196 140.203 81.6396 139.781 84.6203V84.6449L134.918 90.1389L134.943 90.0856C134.594 92.5661 134.221 95.2352 133.832 98.0109C133.787 98.3225 133.746 98.6341 133.705 98.9211C131.581 105.329 129.674 111.094 128.293 115.272C127.596 117.322 127.034 119.019 126.653 120.192C126.456 120.758 126.304 121.205 126.193 121.52C126.144 121.665 126.103 121.78 126.07 121.865C126.017 121.947 126.001 122 125.997 122Z" fill="#263238"/>
<path d="M121.421 127.088C121.415 127.061 121.415 127.033 121.421 127.006C121.421 126.94 121.392 126.863 121.376 126.764C121.337 126.535 121.288 126.223 121.228 125.829C121.101 125.009 120.925 123.816 120.703 122.353C120.273 119.376 119.678 115.247 119.002 110.549V110.52C119.149 109.343 119.305 108.121 119.461 106.871C119.736 104.735 119.998 102.681 120.24 100.758L120.269 100.84L117.21 97.6665L117.177 97.6296V97.5845L118.461 90.5694C118.62 89.7494 118.748 89.077 118.834 88.6096C118.879 88.3964 118.916 88.2242 118.94 88.093C118.949 88.034 118.964 87.9762 118.985 87.9208C118.992 87.9794 118.992 88.0385 118.985 88.0971C118.965 88.2324 118.94 88.4046 118.907 88.6178C118.83 89.0893 118.719 89.7535 118.584 90.5858C118.288 92.2996 117.87 94.7145 117.354 97.6173L117.333 97.5394L120.392 100.7L120.424 100.733V100.782C120.183 102.705 119.92 104.764 119.654 106.9C119.494 108.13 119.338 109.36 119.19 110.545V110.52L120.83 122.336C121.027 123.804 121.183 124.989 121.294 125.825C121.339 126.235 121.38 126.535 121.404 126.764L121.433 127.006C121.428 127.061 121.423 127.088 121.421 127.088Z" fill="#263238"/>
<path d="M130.961 190.404C130.904 190.404 129.453 180.536 127.718 168.342C125.984 156.149 124.627 146.251 124.684 146.243C124.742 146.235 126.197 156.116 127.927 168.314C129.658 180.511 131.019 190.396 130.961 190.404Z" fill="#263238"/>
<path d="M97.1201 136.625L105.414 134.238L110.572 146.243L99.0184 145.882L97.1201 137.113" fill="#FFBE9D"/>
<path d="M105.415 134.238L112.159 149.941C112.159 149.941 145.877 140.319 148.288 137.617C150.699 134.915 155.799 110.557 156.669 105.821C157.538 101.086 158.497 81.9061 154.451 78.8352C150.404 75.7643 146.456 76.4367 142.602 80.6761C139.481 84.1078 134.402 103.755 132.577 111.094C132.13 112.9 132.011 114.772 132.224 116.621L132.581 119.692C132.581 119.692 129.404 122.582 129.211 125.28L105.415 134.238Z" fill="#E0E0E0"/>
<path d="M138.12 91.1516C138.12 91.1516 138.079 91.3238 137.993 91.6559C137.907 91.988 137.768 92.4759 137.583 93.1319C137.227 94.4275 136.706 96.334 136.033 98.7817L133.573 107.695C133.332 108.56 133.085 109.458 132.827 110.385C132.542 111.328 132.351 112.298 132.257 113.279C132.151 114.317 132.151 115.362 132.257 116.399C132.386 117.471 132.514 118.564 132.643 119.679V119.72L132.614 119.749C131.831 120.491 131.131 121.315 130.527 122.209C129.859 123.119 129.428 124.182 129.273 125.3V125.354L129.223 125.374L105.443 134.349L105.501 134.214L112.249 149.913L112.122 149.855C114.902 149.035 117.862 148.191 120.818 147.297C126.607 145.559 132.249 143.812 137.649 141.967C140.347 141.044 142.979 140.122 145.508 139.04C146.136 138.773 146.738 138.482 147.341 138.158C147.635 138.002 147.91 137.814 148.161 137.596C148.273 137.48 148.372 137.352 148.456 137.215C148.538 137.072 148.624 136.932 148.698 136.785C149.256 135.59 149.728 134.357 150.109 133.095C150.896 130.598 151.552 128.129 152.159 125.715C152.765 123.3 153.327 120.967 153.848 118.695C154.885 114.153 155.804 109.909 156.554 106.022C157.185 102.515 157.637 98.9774 157.907 95.4238C158.135 92.7428 158.167 90.0487 158.001 87.3632C157.829 85.1574 157.444 83.46 156.923 82.4145C156.686 81.8701 156.328 81.3865 155.877 81L156.218 81.2952C156.32 81.4059 156.435 81.5535 156.574 81.7257C156.72 81.9391 156.85 82.1624 156.964 82.394C157.497 83.4395 157.899 85.1492 158.083 87.355C158.265 90.045 158.246 92.7448 158.026 95.432C157.769 98.9908 157.327 102.534 156.702 106.047C155.959 109.942 155.062 114.189 154.02 118.757C153.504 121.028 152.95 123.373 152.343 125.784C151.736 128.195 151.076 130.663 150.293 133.164C149.912 134.44 149.439 135.687 148.879 136.895C148.801 137.047 148.711 137.195 148.629 137.342C148.535 137.489 148.426 137.627 148.305 137.752C148.045 137.984 147.759 138.185 147.452 138.351C146.853 138.679 146.222 138.974 145.603 139.245C143.073 140.331 140.429 141.258 137.731 142.184C132.327 144.017 126.685 145.768 120.892 147.514C117.916 148.408 114.972 149.273 112.192 150.069L112.102 150.097L112.065 150.011L105.32 134.3L105.279 134.202L105.382 134.165L129.162 125.218L129.104 125.296C129.262 124.149 129.705 123.06 130.392 122.127C131.007 121.234 131.716 120.409 132.507 119.667L132.483 119.737C132.357 118.613 132.231 117.52 132.106 116.457C131.999 115.41 131.999 114.355 132.106 113.308C132.204 112.318 132.401 111.34 132.692 110.389L133.442 107.703C134.414 104.239 135.25 101.246 135.935 98.7981L137.526 93.1606C137.706 92.5169 137.85 92.029 137.936 91.6928C138.022 91.3566 138.12 91.1516 138.12 91.1516Z" fill="#263238"/>
<path d="M133.61 128.876C133.09 128.052 132.452 127.309 131.716 126.67C130.934 126.086 130.069 125.623 129.149 125.296C129.443 125.305 129.732 125.367 130.002 125.481C131.353 125.946 132.499 126.866 133.245 128.084C133.413 128.324 133.537 128.592 133.61 128.876Z" fill="#263238"/>
<path d="M141.154 122.504C141.121 122.529 140.814 122.049 140.158 121.426C139.307 120.61 138.273 120.008 137.143 119.671C136.013 119.333 134.819 119.27 133.659 119.487C132.77 119.651 132.249 119.897 132.232 119.847C132.341 119.768 132.462 119.706 132.589 119.663C132.927 119.526 133.275 119.418 133.631 119.339C134.813 119.076 136.043 119.12 137.204 119.466C138.365 119.812 139.418 120.448 140.264 121.315C140.52 121.576 140.752 121.858 140.957 122.16C141.038 122.265 141.105 122.381 141.154 122.504Z" fill="#263238"/>
<path d="M104.767 151.278C100.183 151.278 93.8319 149.691 85.882 146.559C79.9985 144.238 75.3778 141.885 75.3286 141.864L76.0748 140.401C76.2552 140.495 94.287 149.638 104.775 149.638C108.916 149.638 112.122 147.637 114.299 143.693C115.336 141.774 116.044 139.696 116.394 137.543C116.505 136.887 118.977 122.139 119.826 118.203C120.269 116.153 121.466 112.783 122.598 109.528C123.647 106.547 124.73 103.468 124.947 102.148C125.394 99.4705 125.07 93.6198 125.07 93.5624L126.71 93.4681C126.71 93.7182 127.046 99.5607 126.57 102.414C126.329 103.87 125.271 106.879 124.151 110.061C123.032 113.242 121.855 116.588 121.433 118.54C120.613 122.439 118.047 137.621 118.022 137.777C117.997 137.933 116.161 151.278 104.767 151.278Z" fill="#FFC100"/>
<g opacity="0.4">
<path d="M104.767 151.278C100.183 151.278 93.8319 149.691 85.882 146.559C79.9985 144.238 75.3778 141.885 75.3286 141.864L76.0748 140.401C76.2552 140.495 94.287 149.638 104.775 149.638C108.916 149.638 112.122 147.637 114.299 143.693C115.336 141.774 116.044 139.696 116.394 137.543C116.505 136.887 118.977 122.139 119.826 118.203C120.269 116.153 121.466 112.783 122.598 109.528C123.647 106.547 124.73 103.468 124.947 102.148C125.394 99.4705 125.07 93.6198 125.07 93.5624L126.71 93.4681C126.71 93.7182 127.046 99.5607 126.57 102.414C126.329 103.87 125.271 106.879 124.151 110.061C123.032 113.242 121.855 116.588 121.433 118.54C120.613 122.439 118.047 137.621 118.022 137.777C117.997 137.933 116.161 151.278 104.767 151.278Z" fill="black"/>
</g>
<path d="M124.787 94.0749C123.765 94.0886 122.778 93.6998 122.04 92.9925C119.215 90.1922 116.206 78.5605 116.079 78.0685L116.87 77.8635C116.903 77.9824 119.953 89.7535 122.61 92.4103C122.969 92.7467 123.402 92.9942 123.874 93.1331C124.346 93.2719 124.844 93.2982 125.328 93.2098C126.665 93.0007 127.858 92.0577 128.608 90.6227C130.789 86.4202 136.734 57.7243 136.808 57.4332L137.628 57.6013C137.382 58.7862 131.601 86.7113 129.367 90.9999C128.502 92.6686 127.087 93.7715 125.492 94.0216C125.259 94.0592 125.023 94.0771 124.787 94.0749Z" fill="#E0E0E0"/>
<path d="M136.48 59.7948C136.538 58.6427 136.259 57.7079 136.07 56.5722C135.988 56.0925 136.14 55.2766 136.542 54.9978C136.944 54.719 137.559 55.0593 137.731 55.5308C137.874 56.0823 137.9 56.6576 137.809 57.22C137.624 58.5812 137.239 58.9789 137.017 59.7948" fill="#E0E0E0"/>
<path d="M125.193 94.3045H124.938C124.036 94.268 123.161 93.9901 122.403 93.4997C121.645 93.0092 121.032 92.3243 120.629 91.5165C119.592 89.4665 118.239 86.7031 117.686 85.1902L119.223 84.6285C119.633 85.7478 120.654 87.9331 122.093 90.7785C122.366 91.3272 122.781 91.7925 123.295 92.1257C123.81 92.4589 124.404 92.6479 125.016 92.6727C125.618 92.7079 126.218 92.5802 126.754 92.3032C127.289 92.0261 127.74 91.6099 128.059 91.0983L128.104 91.0245C128.136 90.963 128.28 90.6145 128.784 89.1713L128.842 89.0073C129.137 88.1873 129.756 86.3259 130.584 83.2673L132.167 83.6773C131.326 86.8056 130.691 88.708 130.383 89.5608L130.33 89.7166C129.707 91.4878 129.596 91.7338 129.51 91.8691L129.444 91.9757C128.992 92.6932 128.364 93.2836 127.62 93.6911C126.876 94.0986 126.041 94.3097 125.193 94.3045Z" fill="#FFC100"/>
<g opacity="0.4">
<path d="M125.193 94.3045H124.938C124.036 94.268 123.161 93.9901 122.403 93.4997C121.645 93.0092 121.032 92.3243 120.629 91.5165C119.592 89.4665 118.239 86.7031 117.686 85.1902L119.223 84.6285C119.633 85.7478 120.654 87.9331 122.093 90.7785C122.366 91.3272 122.781 91.7925 123.295 92.1257C123.81 92.4589 124.404 92.6479 125.016 92.6727C125.618 92.7079 126.218 92.5802 126.754 92.3032C127.289 92.0261 127.74 91.6099 128.059 91.0983L128.104 91.0245C128.136 90.963 128.28 90.6145 128.784 89.1713L128.842 89.0073C129.137 88.1873 129.756 86.3259 130.584 83.2673L132.167 83.6773C131.326 86.8056 130.691 88.708 130.383 89.5608L130.33 89.7166C129.707 91.4878 129.596 91.7338 129.51 91.8691L129.444 91.9757C128.992 92.6932 128.364 93.2836 127.62 93.6911C126.876 94.0986 126.041 94.3097 125.193 94.3045Z" fill="black"/>
</g>
<path d="M72.7496 143.615C74.9415 143.615 76.7184 141.838 76.7184 139.646C76.7184 137.454 74.9415 135.678 72.7496 135.678C70.5577 135.678 68.7808 137.454 68.7808 139.646C68.7808 141.838 70.5577 143.615 72.7496 143.615Z" fill="#E0E0E0"/>
<path d="M72.971 142.135C74.2187 142.135 75.2301 141.124 75.2301 139.876C75.2301 138.628 74.2187 137.617 72.971 137.617C71.7234 137.617 70.7119 138.628 70.7119 139.876C70.7119 141.124 71.7234 142.135 72.971 142.135Z" fill="#263238"/>
<path d="M70.2486 143.615C70.2486 143.615 69.3794 141.565 70.2486 140.819C71.1178 140.073 80.2116 137.617 80.2116 137.617C80.2116 137.617 86.624 135.764 87.3087 135.678C87.9934 135.591 96.3287 136.149 96.3287 136.149C96.3287 136.149 101.06 134.845 101.745 134.845C102.43 134.845 101.433 139.199 101.31 140.634C101.187 142.069 100.252 142.926 101.122 143.615C101.991 144.304 104.303 146.243 104.303 146.243C104.303 146.243 101.868 146.92 100.203 146.735C99.2144 146.63 98.2469 146.377 97.3332 145.985C97.3332 145.985 93.9097 148.539 92.0401 148.912C90.1705 149.285 83.9508 151.34 82.7044 151.155C81.458 150.971 80.5273 149.285 80.5273 149.285C80.5273 149.285 77.5999 149.72 77.0382 148.539C76.7136 147.863 76.4634 147.154 76.292 146.424L77.4769 145.673C77.4769 145.673 75.9189 146.112 75.2342 144.989C74.8429 144.39 74.5882 143.712 74.488 143.004C74.488 143.004 71.29 143.923 70.2486 143.615Z" fill="#455A64"/>
<path d="M116.976 106.17C116.975 106.25 116.963 106.33 116.94 106.408C116.904 106.583 116.855 106.808 116.792 107.084C116.726 107.375 116.644 107.732 116.571 108.15C116.497 108.568 116.39 109.044 116.325 109.577C116.259 110.11 116.156 110.684 116.099 111.311C116.042 111.939 115.984 112.607 115.935 113.312C115.777 116.38 116.012 119.455 116.636 122.463C116.792 123.156 116.931 123.812 117.104 124.419C117.276 125.026 117.432 125.587 117.591 126.1C117.751 126.612 117.915 127.068 118.055 127.469C118.194 127.871 118.321 128.211 118.436 128.49C118.551 128.769 118.621 128.966 118.682 129.134C118.718 129.208 118.743 129.287 118.756 129.368C118.713 129.298 118.676 129.226 118.645 129.15L118.358 128.523C118.235 128.248 118.088 127.912 117.948 127.51C117.809 127.109 117.616 126.662 117.456 126.145C117.296 125.628 117.099 125.075 116.94 124.464C116.78 123.853 116.616 123.197 116.456 122.504C116.137 120.995 115.914 119.466 115.787 117.929C115.678 116.389 115.665 114.845 115.746 113.304C115.8 112.595 115.841 111.918 115.931 111.291C116.021 110.663 116.091 110.081 116.181 109.552C116.271 109.023 116.378 108.544 116.464 108.126C116.55 107.707 116.64 107.355 116.722 107.064L116.907 106.395C116.92 106.317 116.943 106.242 116.976 106.17Z" fill="#263238"/>
<path d="M26.9768 169.901C26.8873 169.562 26.8377 169.214 26.8292 168.863C26.7554 168.113 26.6652 167.166 26.5545 166.038C26.4149 164.645 26.2028 163.26 25.919 161.889C25.5492 160.219 25.0446 158.582 24.4102 156.994C23.7911 155.407 22.9504 153.917 21.9133 152.566C21.0674 151.466 19.9876 150.569 18.7522 149.938C17.9138 149.526 17.0159 149.25 16.0913 149.118C15.7429 149.102 15.3969 149.053 15.0581 148.97C15.4067 148.929 15.7591 148.929 16.1077 148.97C17.069 149.04 18.0096 149.285 18.8834 149.692C20.1841 150.305 21.325 151.212 22.2167 152.34C23.3001 153.706 24.1734 155.226 24.8079 156.85C25.4511 158.463 25.9518 160.128 26.3044 161.828C26.5743 163.215 26.7592 164.617 26.8579 166.026C26.9481 167.227 26.9809 168.199 26.9973 168.872C27.0272 169.214 27.0203 169.559 26.9768 169.901Z" fill="#E0E0E0"/>
<path d="M26.7801 167.744C26.7506 167.585 26.741 167.422 26.7514 167.26C26.7514 166.899 26.7514 166.44 26.7514 165.887C26.7514 164.694 26.7514 162.968 26.6899 160.836C26.5833 156.572 26.2184 151.98 25.5091 145.51C24.8367 139.425 23.9347 132.345 22.9835 127.744C22.7826 126.695 22.5735 125.752 22.3808 124.928C22.1881 124.104 22.0405 123.39 21.8888 122.812C21.7371 122.234 21.651 121.828 21.569 121.476C21.5233 121.321 21.4944 121.161 21.4829 121C21.5544 121.144 21.6107 121.295 21.651 121.451C21.7535 121.799 21.8888 122.234 22.061 122.771C22.2332 123.308 22.4218 124.05 22.6268 124.874C22.8318 125.699 23.0696 126.633 23.291 127.679C24.4701 133.123 25.357 138.626 25.9478 144.165C26.6571 150.651 26.9769 156.555 27.0056 160.827C27.0302 162.968 26.9851 164.698 26.9318 165.891C26.8949 166.448 26.8703 166.904 26.8457 167.264C26.8431 167.426 26.8211 167.587 26.7801 167.744Z" fill="#E0E0E0"/>
<path d="M37.7554 176.44L36.6156 192.073H16.5338L15.394 176.44H37.7554Z" fill="#E0E0E0"/>
<path d="M39.6992 170.282H13V176.444H39.6992V170.282Z" fill="#E0E0E0"/>
<path d="M39.6949 191.475V193.18H38.4444H13.4385V191.475H39.6949Z" fill="#EBEBEB"/>
<path d="M37.2145 196.186L38.4445 193.18H14.3979L15.8329 196.186H37.2145Z" fill="#E0E0E0"/>
<path d="M15.7671 181.549C15.7925 181.6 15.8241 181.649 15.8614 181.692L16.1607 182.102L17.3292 183.599L17.3825 183.668L17.4317 183.599C18.1697 182.582 19.1496 181.221 20.3017 179.622H20.1377L22.9667 183.627L23.0569 183.755L23.1553 183.636L26.5091 179.642H26.3164L26.5009 179.872L29.5021 183.636L29.6005 183.759L29.6948 183.632C30.7116 182.188 31.6669 180.844 32.5238 179.626H32.3598L35.8489 183.595L35.9104 183.668L35.9555 183.586C36.4147 182.816 36.7755 182.201 37.0461 181.754L37.329 181.266C37.3646 181.211 37.3936 181.152 37.4151 181.09C37.3692 181.136 37.3293 181.189 37.2962 181.245C37.2142 181.368 37.1117 181.524 36.9887 181.717L35.8407 183.517H35.9514L32.5197 179.495L32.4336 179.392L32.3557 179.503L29.4857 183.492H29.6784C28.7272 182.299 27.7227 181.032 26.6854 179.724L26.5009 179.495L26.4066 179.376L26.3082 179.491L22.9585 183.492H23.1471C22.1139 182.049 21.1545 180.708 20.2771 179.507L20.1951 179.388L20.1131 179.507L17.3005 183.525H17.403L16.173 182.065C16.0418 181.914 15.9352 181.787 15.845 181.688C15.7548 181.59 15.7712 181.545 15.7671 181.549Z" fill="#F5F5F5"/>
<path d="M15.1113 176.338C15.1113 176.407 20.142 176.465 26.3494 176.465C32.5568 176.465 37.5875 176.407 37.5875 176.338C37.5875 176.268 32.5568 176.215 26.3494 176.215C20.142 176.215 15.1113 176.268 15.1113 176.338Z" fill="#F5F5F5"/>
<path d="M14.1025 193.349C14.1025 193.418 19.5678 193.476 26.3123 193.476C33.0568 193.476 38.5262 193.418 38.5262 193.349C38.5262 193.279 33.0609 193.226 26.3123 193.226C19.5637 193.226 14.1025 193.271 14.1025 193.349Z" fill="#F5F5F5"/>
</g>
<defs>
<clipPath id="clip0_171_14359">
<rect width="210" height="210" fill="white"/>
</clipPath>
</defs>
</svg>
