<svg width="121" height="120" viewBox="0 0 121 120" fill="none" xmlns="http://www.w3.org/2000/svg">
<g clip-path="url(#clip0_896_9015)">
<path opacity="0.5" d="M120.5 108.857C120.5 108.891 82.7842 108.785 39.7083 108.785C-3.36761 108.785 0.941979 108.891 0.941979 108.857C0.941979 108.823 -3.38384 108.659 39.7083 108.659C82.8004 108.659 120.5 108.82 120.5 108.857Z" fill="#263238"/>
<path d="M84.4224 62.6216C84.2565 62.7456 84.0712 62.8411 83.874 62.9043C83.3315 63.0917 82.7407 63.0842 82.2032 62.883C81.8306 62.747 81.4956 62.5249 81.2253 62.2347C80.9144 61.8995 80.6993 61.4869 80.6025 61.04C80.548 60.7996 80.5307 60.5523 80.5515 60.3067C80.5692 60.0498 80.6273 59.7972 80.7237 59.5584C80.9242 59.0513 81.282 58.6219 81.7445 58.333C82.2071 58.0442 82.75 57.9112 83.2936 57.9535C83.799 57.9933 84.2813 58.1819 84.6796 58.4956C85.0383 58.7788 85.3144 59.1532 85.4789 59.5797C85.6215 59.9496 85.6746 60.348 85.6341 60.7424C85.5772 61.3139 85.3241 61.848 84.9177 62.2538C84.7741 62.403 84.6067 62.5272 84.4224 62.6216C84.5823 62.4965 84.7349 62.3624 84.8794 62.2198C85.2587 61.8115 85.4894 61.2873 85.5341 60.7318C85.5675 60.3542 85.5114 59.9741 85.3705 59.6222C85.2094 59.2185 84.9438 58.8648 84.601 58.5976C84.4172 58.4534 84.213 58.3374 83.9951 58.2532C83.7686 58.1621 83.5289 58.1082 83.2851 58.0938C82.7715 58.0549 82.2589 58.1809 81.8219 58.4535C81.3849 58.7261 81.0463 59.131 80.8554 59.6094C80.7633 59.8352 80.7074 60.0741 80.6896 60.3173C80.6683 60.5498 80.6826 60.7842 80.7322 61.0124C80.8156 61.4106 80.9972 61.7818 81.2604 62.0921C81.5235 62.4024 81.86 62.6421 82.2393 62.7895C82.757 62.991 83.3275 63.0127 83.8591 62.8511C84.2417 62.7342 84.4139 62.6067 84.4224 62.6216Z" fill="#E0E0E0"/>
<path d="M84.8793 65.9268L84.9431 65.9842L85.1344 66.1691L85.8826 66.9067H85.855L87.8191 65.6632L87.8043 65.7057C87.6618 65.3061 87.5045 64.8554 87.3366 64.3814V64.358L87.3536 64.3389C87.6977 63.9713 87.9902 63.5587 88.223 63.1123L88.2358 63.0868H89.6706L89.6196 63.1251C89.7833 62.413 89.9576 61.6541 90.1383 60.8591L90.1681 60.9228L88.9033 60.3149L88.8714 60.3V60.2639C88.8551 59.759 88.7714 59.2586 88.6227 58.7759L88.612 58.7397L88.6375 58.7142C88.9479 58.4081 89.288 58.0765 89.6345 57.7236V57.8044L88.3761 55.8424L88.4547 55.87L87.1304 56.3334L87.09 56.3462L87.0603 56.3185C86.6944 55.9763 86.2848 55.6839 85.8422 55.4491L85.804 55.43V55.3875C85.804 54.9475 85.804 54.4692 85.804 53.9824L85.8592 54.0525L83.6039 53.5317L83.6846 53.4935L83.0724 54.7689L83.0554 54.8072H83.0108C82.5111 54.8233 82.0158 54.9055 81.5377 55.0516L81.4654 55.0325L81.4505 55.0176L81.4186 54.9857L81.357 54.9219L81.2337 54.7965L80.985 54.5478L80.4918 54.0504L80.5811 54.061L78.6084 55.2918L78.6382 55.2068C78.7927 55.6532 78.9464 56.0953 79.0995 56.5332L79.1143 56.5736L79.0846 56.6055C78.7409 56.9702 78.4484 57.38 78.2152 57.8235L78.1939 57.8597H78.1535H76.7484L76.8143 57.8065C76.6358 58.5775 76.4607 59.3321 76.2893 60.0704L76.2531 59.996L77.5179 60.6082L77.5519 60.6252V60.6635C77.5658 61.1683 77.648 61.6688 77.7964 62.1515L77.807 62.1876L77.7794 62.2131L76.7803 63.1995V63.1251L78.0069 65.0999L77.9431 65.0786L79.2695 64.6195L79.2993 64.6088L79.3227 64.6301C79.689 64.9745 80.0993 65.269 80.5428 65.5059L80.5683 65.5186V65.5484C80.5683 66.0586 80.5683 66.5177 80.5577 66.9514L80.5237 66.911L82.7855 67.4445L82.7493 67.4615L83.37 66.201V66.1882H83.3828C83.7633 66.1776 84.142 66.1306 84.5137 66.0479L84.7879 65.982L84.8793 65.9629L84.79 65.9948C84.7305 66.0139 84.6412 66.0416 84.5179 66.0713C84.1469 66.1647 83.7672 66.2196 83.3849 66.235L83.404 66.2201L82.8025 67.4955L82.7897 67.5189H82.7663L80.4982 67.0066H80.4663V66.9726C80.4663 66.5475 80.4663 66.0777 80.4663 65.5675L80.4897 65.61C80.0369 65.3721 79.618 65.0747 79.244 64.7257L79.295 64.7364L77.9707 65.2019L77.9303 65.2168L77.9069 65.1806L76.6719 63.2101L76.6464 63.1697L76.6804 63.1357L77.6752 62.1473L77.6604 62.2089C77.5087 61.7187 77.4236 61.2104 77.4074 60.6975L77.4435 60.7528L76.1681 60.1448L76.1213 60.1214L76.132 60.0704L76.6613 57.7555L76.6719 57.7024H76.7272H78.1323L78.0706 57.7385C78.3106 57.2842 78.6102 56.8638 78.9613 56.4886L78.9464 56.5609C78.7934 56.123 78.6389 55.6808 78.483 55.2344L78.4639 55.1813L78.5128 55.1515L80.4833 53.9207L80.5322 53.8889L80.5726 53.9292L81.0658 54.4267L81.3123 54.6775L81.4378 54.8029L81.4994 54.8667L81.5313 54.8964L81.5462 54.9134C81.4016 54.8773 81.5058 54.9028 81.4739 54.8943C81.9644 54.7442 82.4726 54.6598 82.9853 54.6435L82.9236 54.6839L83.5358 53.4084L83.5592 53.3574L83.6145 53.3702L85.8784 53.8931L85.9336 53.9059V53.9633C85.9336 54.4479 85.9336 54.9283 85.9336 55.3683L85.8975 55.3067C86.3512 55.5468 86.7708 55.8464 87.1453 56.1974L87.0773 56.1825L88.4037 55.7233L88.4526 55.7042L88.4824 55.751L89.711 57.7236L89.7365 57.7662L89.7004 57.8023C89.3539 58.1467 89.0117 58.4825 88.7013 58.7886L88.7183 58.727C88.8673 59.2176 88.951 59.7258 88.967 60.2384L88.933 60.1873L90.1978 60.8017L90.2382 60.8208L90.2276 60.8633C90.0426 61.6583 89.8641 62.4151 89.6983 63.1272V63.1676H89.6579H88.2528L88.2932 63.1421C88.0531 63.5932 87.7536 64.01 87.4025 64.3814V64.3389C87.5683 64.8171 87.7214 65.2657 87.8595 65.6674L87.8702 65.6951L87.8447 65.71L85.8656 66.9301H85.8507L85.838 66.9174L85.1131 66.1691L84.9282 65.9735C84.9108 65.9592 84.8944 65.9435 84.8793 65.9268Z" fill="#E0E0E0"/>
<path fill-rule="evenodd" clip-rule="evenodd" d="M89.5028 49.1082C88.8173 49.3194 88.1067 49.4381 87.3898 49.4611L86.5246 51.2488L83.3233 50.5091V48.5215C82.6884 48.1872 82.1014 47.7689 81.5781 47.278L79.7032 47.9327L77.9644 45.1438L79.3737 43.7472C79.1631 43.0609 79.0451 42.3496 79.023 41.6321L77.2332 40.769L77.9835 37.5613H79.9689C80.3048 36.9268 80.7237 36.3399 81.2146 35.8161L80.5599 33.9476L83.3488 32.2088L84.7454 33.6181C85.4309 33.4074 86.1416 33.2895 86.8584 33.2674L87.7236 31.4775L90.9249 32.2194V34.2048C91.5585 34.5402 92.1447 34.9583 92.668 35.4484L94.5428 34.7958L96.2838 37.5826L94.8702 38.9898C95.0826 39.675 95.2013 40.3858 95.2231 41.1028L97.0108 41.9679L96.271 45.1693H94.2856C93.9496 45.803 93.5307 46.3892 93.04 46.9124L93.6947 48.7872L90.8994 50.5282L89.5028 49.1167V49.1082ZM88.8651 44.4316C89.4567 44.0623 89.9255 43.5258 90.2123 42.89C90.499 42.2542 90.5908 41.5477 90.476 40.8597C90.3612 40.1718 90.045 39.5333 89.5673 39.0251C89.0897 38.5168 88.4721 38.1616 87.7926 38.0044C87.1131 37.8472 86.4022 37.8949 85.7499 38.1417C85.0975 38.3884 84.533 38.8231 84.1276 39.3907C83.7223 39.9583 83.4944 40.6333 83.4727 41.3304C83.4509 42.0275 83.6364 42.7154 84.0057 43.3071C84.2504 43.7006 84.5702 44.042 84.9469 44.3118C85.3236 44.5816 85.7497 44.7745 86.201 44.8795C86.6523 44.9846 87.1199 44.9996 87.577 44.9239C88.0341 44.8481 88.4718 44.683 88.8651 44.438V44.4316Z" fill="#E0E0E0"/>
<path fill-rule="evenodd" clip-rule="evenodd" d="M97.0448 59.6984C96.6798 59.8099 96.3017 59.8728 95.9203 59.8854L95.4612 60.8356L93.7606 60.4424V59.3795C93.4231 59.2011 93.1108 58.9788 92.8316 58.7184L91.8347 59.0649L90.91 57.5769L91.6604 56.835C91.5471 56.4705 91.4842 56.0921 91.4733 55.7105L90.521 55.2492L90.9143 53.5487H91.9771C92.1568 53.2121 92.3798 52.9006 92.6403 52.6219L92.2917 51.6249L93.7797 50.6981L94.5237 51.4485C94.8887 51.3369 95.2668 51.274 95.6482 51.2614L96.1074 50.3091L97.8079 50.7045V51.7673C98.1451 51.9453 98.4568 52.1676 98.7348 52.4284L99.7338 52.0819L100.659 53.5699L99.9082 54.3139C100.021 54.6785 100.084 55.0568 100.095 55.4384L101.048 55.8976L100.654 57.5982H99.5914C99.4122 57.9357 99.1892 58.248 98.9282 58.5271L99.2768 59.5241L97.7888 60.4509L97.0448 59.7005V59.6984ZM96.7068 57.2134C97.022 57.0171 97.2718 56.7317 97.4247 56.3934C97.5777 56.055 97.6268 55.6789 97.566 55.3126C97.5051 54.9464 97.337 54.6064 97.0829 54.3356C96.8288 54.0649 96.5001 53.8756 96.1384 53.7918C95.7767 53.7079 95.3982 53.7332 95.0509 53.8644C94.7036 53.9956 94.403 54.2269 94.1871 54.5291C93.9713 54.8312 93.8499 55.1905 93.8383 55.5616C93.8267 55.9327 93.9254 56.299 94.122 56.614C94.3854 57.0361 94.8056 57.3363 95.2903 57.4487C95.775 57.5611 96.2845 57.4765 96.7068 57.2134Z" fill="#EBEBEB"/>
<path d="M31.8129 40.888C31.8363 40.9093 30.8394 41.9318 29.5873 43.1689C28.3353 44.4061 27.3043 45.3924 27.283 45.3712C27.2618 45.3499 28.2588 44.3274 29.5108 43.0903C30.7628 41.8531 31.7917 40.8668 31.8129 40.888Z" fill="#E0E0E0"/>
<path d="M31.8237 45.3607C31.8024 45.382 30.7608 44.3999 29.5109 43.1691C28.261 41.9383 27.2513 40.9222 27.2725 40.8988C27.2938 40.8755 28.3354 41.8575 29.5874 43.0905C30.8395 44.3234 31.8471 45.3373 31.8237 45.3607Z" fill="#E0E0E0"/>
<path d="M36.3216 69.1791C36.3216 69.2088 35.0462 69.0983 33.4817 68.9346C31.9171 68.7709 30.6502 68.6094 30.6523 68.5796C30.6545 68.5499 31.9278 68.6583 33.4923 68.8241C35.0568 68.9899 36.3259 69.1472 36.3216 69.1791Z" fill="#E0E0E0"/>
<path d="M36.0963 71.3137C36.0963 71.3434 34.8209 71.235 33.2563 71.0692C31.6918 70.9034 30.4228 70.7461 30.427 70.7163C30.4313 70.6866 31.7024 70.795 33.267 70.9587C34.8315 71.1224 36.1005 71.2839 36.0963 71.3137Z" fill="#E0E0E0"/>
<path d="M20.7678 62.2064C20.7678 62.2064 19.0842 62.0853 19.2394 65.8627C19.3946 69.6401 19.7793 71.6489 19.7793 71.6489C19.7793 71.6489 19.7304 72.4864 19.0821 72.3227C18.4337 72.159 17.2136 71.3428 16.6099 71.9528C16.0062 72.5629 16.2081 73.5535 17.035 74.695C17.8619 75.8365 19.5859 78.4022 19.7432 78.634C19.9005 78.8657 19.9558 79.2908 19.4966 79.2504C19.0374 79.21 15.9339 78.1578 15.5236 79.6607C15.1134 81.1635 17.9448 83.9546 18.2488 84.2735C18.5528 84.5923 18.5698 84.7836 18.4465 84.9728C18.3232 85.162 17.3135 84.7092 16.4186 84.4457C15.5236 84.1821 14.4395 84.0354 14.2758 84.9218C14.1122 85.8082 15.3578 88.4016 20.028 91.1289L22.2749 92.2449L24.4006 90.8887C28.7732 87.7001 29.7553 85.0026 29.5023 84.1353C29.2494 83.268 28.1865 83.5252 27.3235 83.8781C26.4604 84.231 25.4996 84.7794 25.3593 84.603C25.219 84.4265 25.2148 84.231 25.4847 83.8887C25.7547 83.5465 28.2928 80.4876 27.7337 79.0251C27.1747 77.5626 24.1923 78.9294 23.7395 79.0251C23.2867 79.1207 23.3144 78.6786 23.4334 78.4363C23.5525 78.1939 25.0213 75.4603 25.7334 74.2444C26.4456 73.0284 26.5667 72.04 25.8822 71.4809C25.1978 70.9219 24.0839 71.8593 23.4632 72.0868C22.8425 72.3142 22.7022 71.4873 22.7022 71.4873C22.7022 71.4873 22.8829 69.4466 22.6597 65.6756C22.4365 61.9046 20.7338 62.2064 20.7338 62.2064" fill="#EBEBEB"/>
<path d="M20.8953 65.5884C20.8969 65.6146 20.8969 65.6408 20.8953 65.667C20.8953 65.7244 20.8953 65.8009 20.9123 65.8987C20.9271 66.1113 20.9463 66.4068 20.9739 66.7915C21.0249 67.5653 21.0908 68.6877 21.1674 70.0715C21.3204 72.8349 21.5011 76.674 21.686 80.9127C21.871 85.1513 22.041 88.9755 22.1792 91.7538C22.2493 93.1355 22.3067 94.2579 22.3471 95.0359C22.3663 95.4207 22.3811 95.7204 22.3918 95.9287C22.3918 96.0265 22.3918 96.1051 22.3918 96.1604C22.3932 96.1866 22.3932 96.2129 22.3918 96.2391C22.3918 96.2391 22.3918 96.2135 22.3918 96.1604C22.3918 96.1073 22.3918 96.0286 22.3748 95.9287C22.3599 95.7161 22.3386 95.4228 22.3131 95.038C22.2621 94.2643 22.1962 93.1419 22.1197 91.7559C21.9645 88.9925 21.7859 85.1556 21.601 80.9148C21.4161 76.674 21.246 72.8541 21.1057 70.0736C21.0356 68.6898 20.9782 67.5695 20.9399 66.7915C20.9208 66.4068 20.9059 66.1071 20.8953 65.8987C20.8953 65.7988 20.8953 65.7223 20.8953 65.667C20.8953 65.6118 20.8953 65.5884 20.8953 65.5884Z" fill="#E0E0E0"/>
<path d="M18.2722 73.1602C18.3227 73.1935 18.3691 73.2328 18.4104 73.2771C18.4975 73.3557 18.623 73.4726 18.7675 73.6193C19.063 73.9127 19.4626 74.3293 19.8941 74.797L20.9931 76.0001L21.3269 76.3615C21.3718 76.4029 21.4111 76.4501 21.4438 76.5018C21.3931 76.4686 21.346 76.4301 21.3035 76.387C21.2185 76.3062 21.0909 76.1893 20.9485 76.0405C20.6551 75.745 20.2576 75.3241 19.8325 74.8565L18.725 73.6618L18.3891 73.3005C18.3438 73.2594 18.3044 73.2122 18.2722 73.1602Z" fill="#E0E0E0"/>
<path d="M21.667 76.4274C21.65 76.4104 22.4727 75.5495 23.5015 74.5142C24.5303 73.479 25.3828 72.6351 25.3998 72.6521C25.4168 72.6691 24.5941 73.53 23.5631 74.5652C22.5322 75.6005 21.684 76.4444 21.667 76.4274Z" fill="#E0E0E0"/>
<path d="M21.6584 82.9383C21.7059 82.8988 21.758 82.8652 21.8136 82.8384L22.2536 82.5918C22.6256 82.3792 23.1358 82.0944 23.6885 81.7543C24.2412 81.4141 24.7322 81.091 25.0851 80.8551L25.5102 80.5766C25.5592 80.5382 25.6128 80.5061 25.6697 80.481C25.6277 80.5266 25.5806 80.5673 25.5294 80.6021C25.4358 80.6765 25.2977 80.7807 25.1255 80.9061C24.779 81.1548 24.2922 81.4885 23.7374 81.8265C23.1826 82.1645 22.6745 82.4494 22.2877 82.6449C22.0963 82.7406 21.9433 82.8171 21.8349 82.8681C21.7785 82.8972 21.7194 82.9207 21.6584 82.9383Z" fill="#E0E0E0"/>
<path d="M17.9363 80.6597C17.991 80.6767 18.0432 80.701 18.0915 80.7319C18.1892 80.783 18.3274 80.8616 18.4996 80.9594C18.8397 81.1528 19.3095 81.427 19.826 81.7332C20.3426 82.0393 20.806 82.322 21.1397 82.5303L21.533 82.779C21.5834 82.8066 21.6299 82.841 21.6712 82.881C21.6169 82.8628 21.5649 82.8385 21.516 82.8088C21.4203 82.7556 21.28 82.6791 21.11 82.5813C20.7677 82.3879 20.2979 82.1137 19.7814 81.8076C19.2648 81.5014 18.8014 81.2187 18.4677 81.0104L18.0745 80.766C18.0242 80.7363 17.9778 80.7006 17.9363 80.6597Z" fill="#E0E0E0"/>
<path d="M17.1987 86.4053C17.2666 86.4314 17.332 86.4634 17.3943 86.5009L17.9193 86.79C18.3594 87.0366 18.9652 87.3831 19.6199 87.77C20.2746 88.1569 20.8847 88.5097 21.3205 88.7712L21.8307 89.0837C21.8945 89.1191 21.955 89.1604 22.0113 89.207C21.9417 89.1835 21.8753 89.1514 21.8137 89.1113L21.2907 88.8243C20.8507 88.5778 20.247 88.2313 19.5902 87.8444C18.9333 87.4575 18.3254 87.1025 17.8896 86.8432L17.3815 86.5307C17.3156 86.4967 17.2542 86.4545 17.1987 86.4053Z" fill="#E0E0E0"/>
<path d="M21.9177 89.1094C21.9772 89.0576 22.0429 89.0134 22.1133 88.9777L22.6575 88.646C23.1188 88.3633 23.7543 87.9743 24.4431 87.5237C25.1318 87.073 25.7483 86.6521 26.1925 86.3439L26.7176 85.9804C26.7779 85.9304 26.8443 85.8883 26.9153 85.855C26.8607 85.9109 26.8009 85.9614 26.7367 86.0059C26.6177 86.1016 26.4434 86.2334 26.2265 86.3949C25.8014 86.7159 25.1828 87.1474 24.492 87.5959C23.8011 88.0445 23.1591 88.4292 22.6894 88.6971C22.4534 88.831 22.2642 88.9373 22.1282 89.0074C22.0608 89.0469 21.9904 89.081 21.9177 89.1094Z" fill="#E0E0E0"/>
<path d="M25.2935 92.9868H19.0779L21.1058 108.343H23.2655L25.2935 92.9868Z" fill="#E0E0E0"/>
<path d="M19.4072 94.8744C19.4072 94.8744 19.4072 94.8957 19.4391 94.9275C19.48 94.9752 19.5318 95.0124 19.59 95.036C19.6985 95.073 19.814 95.0849 19.9277 95.0709C20.0415 95.0569 20.1506 95.0174 20.2469 94.9552C20.4977 94.817 20.7167 94.5449 21.0525 94.4237C21.4257 94.3042 21.8282 94.3124 22.1962 94.4471C22.5698 94.5754 22.9266 94.7481 23.259 94.9616C23.5348 95.1384 23.8225 95.2961 24.1199 95.4335C24.3231 95.5239 24.5376 95.5861 24.7576 95.6184C24.8175 95.6268 24.8779 95.6311 24.9383 95.6311C24.9787 95.6311 25 95.6311 25 95.6311C24.7059 95.5855 24.4197 95.4989 24.1497 95.3739C23.8577 95.2302 23.5739 95.0705 23.2994 94.8957C22.9626 94.673 22.5991 94.4937 22.2174 94.3621C21.828 94.221 21.4023 94.2166 21.01 94.3493C20.8446 94.4172 20.6916 94.5121 20.5572 94.6299C20.4446 94.73 20.3253 94.8224 20.2001 94.9063C20.1132 94.9667 20.0141 95.0073 19.9098 95.0253C19.8055 95.0433 19.6985 95.0382 19.5964 95.0104C19.5252 94.9776 19.461 94.9314 19.4072 94.8744Z" fill="#F5F5F5"/>
<path d="M19.6199 97.7013C19.6199 97.7013 19.6688 97.6376 19.7644 97.5377C19.9059 97.398 20.0754 97.29 20.2618 97.2209C20.5388 97.1208 20.8329 97.0767 21.127 97.0913C21.4896 97.1193 21.8502 97.169 22.2069 97.2401C22.5717 97.3102 22.945 97.3253 23.3144 97.2847C23.6158 97.2463 23.9096 97.1624 24.1859 97.036C24.3754 96.9526 24.555 96.8485 24.7216 96.7256C24.7841 96.6839 24.84 96.633 24.8874 96.5747C24.6574 96.7231 24.4173 96.8552 24.1689 96.9701C23.8967 97.0801 23.6105 97.1516 23.3186 97.1827C22.958 97.2179 22.5942 97.2 22.2388 97.1295C21.8774 97.058 21.5117 97.0111 21.144 96.9892C20.838 96.9793 20.5333 97.0329 20.2491 97.1465C20.057 97.2228 19.8863 97.3446 19.7517 97.5015C19.7159 97.5447 19.6839 97.591 19.656 97.6397C19.6326 97.6822 19.6199 97.6992 19.6199 97.7013Z" fill="#F5F5F5"/>
<path d="M24.5897 99.2148C24.538 99.1756 24.4796 99.1461 24.4175 99.1276C24.2526 99.0651 24.0791 99.0278 23.9031 99.0171C23.6429 98.9997 23.3816 99.0147 23.1251 99.0617C22.8338 99.1085 22.5235 99.1871 22.1982 99.2573C21.8945 99.3284 21.5834 99.3634 21.2714 99.3614C21.0185 99.3545 20.769 99.3005 20.5359 99.202C20.3228 99.1005 20.1331 98.9557 19.979 98.7769C20.0034 98.8372 20.0395 98.8921 20.0853 98.9384C20.2034 99.0729 20.3482 99.1815 20.5104 99.2573C20.7489 99.3702 21.0078 99.4338 21.2714 99.4443C21.591 99.4524 21.9104 99.4195 22.2216 99.3465C22.5532 99.2764 22.8593 99.1935 23.1442 99.134C23.394 99.0842 23.6485 99.0621 23.9031 99.0681C24.137 99.0893 24.3675 99.1386 24.5897 99.2148Z" fill="#F5F5F5"/>
<path d="M20.1768 101.345C20.3671 101.264 20.5779 101.243 20.7805 101.286C21.0013 101.339 21.2153 101.417 21.4182 101.519C21.6751 101.644 21.9523 101.721 22.2366 101.747C22.7565 101.791 23.2771 101.671 23.7246 101.402C23.854 101.32 23.9744 101.225 24.0839 101.118C24.1583 101.037 24.1986 100.99 24.1923 100.986C24.0278 101.113 23.856 101.231 23.6778 101.339C23.2384 101.581 22.7367 101.688 22.2366 101.645C21.6478 101.611 21.195 101.26 20.7869 101.22C20.6299 101.193 20.4687 101.207 20.3192 101.262C20.2172 101.296 20.1725 101.343 20.1768 101.345Z" fill="#F5F5F5"/>
<path d="M20.5235 104.293C20.7019 104.298 20.8791 104.262 21.0421 104.189C21.3546 104.085 21.7394 103.847 22.1921 103.666C22.4027 103.582 22.6265 103.535 22.8532 103.528C23.0365 103.528 23.2175 103.569 23.3825 103.649C23.5338 103.73 23.6653 103.843 23.7673 103.981C23.7589 103.933 23.7385 103.887 23.7078 103.849C23.6326 103.74 23.5329 103.649 23.4166 103.585C23.2438 103.49 23.0505 103.438 22.8532 103.435C22.6141 103.435 22.3773 103.482 22.156 103.573C21.6883 103.758 21.3057 103.998 21.0145 104.123C20.7233 104.249 20.5213 104.276 20.5235 104.293Z" fill="#F5F5F5"/>
<path d="M20.8271 105.664C20.9517 105.725 21.0841 105.768 21.2204 105.792C21.5442 105.87 21.8731 105.925 22.2046 105.958C22.5359 105.99 22.869 106 23.2016 105.987C23.3406 105.99 23.4794 105.973 23.614 105.938C23.614 105.907 22.9762 105.938 22.2152 105.858C21.4542 105.777 20.8357 105.637 20.8271 105.664Z" fill="#F5F5F5"/>
<path d="M40.3159 43.9383C40.3159 43.9383 40.8941 40.4713 41.0323 40.2077C41.1705 39.9441 42.7669 38.3243 42.9561 38.2946C43.1452 38.2648 45.6642 37.4698 45.5239 37.8694C45.3836 38.2691 43.6108 38.792 43.6108 38.792L43.4428 39.0046C43.4428 39.0046 44.9542 38.5114 45.3284 38.5241C45.7025 38.5369 45.7365 38.8961 45.4665 38.9982C45.1966 39.1002 43.8659 39.4892 43.8148 39.5742C43.7638 39.6593 45.3028 39.2193 45.4899 39.2278C45.7492 39.2384 45.9363 39.5657 45.6727 39.6784C45.5154 39.7422 44.0359 40.0823 44.0359 40.0823C44.4921 40.0223 44.9512 39.9869 45.4113 39.976C45.6387 40.0377 45.6238 40.314 45.3687 40.3799C45.1966 40.4245 44.2931 40.4649 44.0636 40.5266C44.0636 40.5266 43.8914 40.6711 43.8977 41.1303C43.9041 41.5894 43.3089 42.8075 43.3089 42.8075L40.3159 43.9383Z" fill="#FFBE9D"/>
<path d="M45.5218 37.8587C45.4204 37.9886 45.2948 38.0976 45.1519 38.1797C45.0028 38.2802 44.8448 38.367 44.68 38.439C44.4929 38.5092 44.2846 38.5814 44.0678 38.6516L43.6023 38.8089L43.6278 38.794C43.3621 39.0818 43.0743 39.3484 42.7668 39.5911C43.0032 39.2809 43.2633 38.9895 43.5449 38.7196V38.709H43.5597L44.0189 38.5474L44.629 38.3348C44.7901 38.2694 44.9463 38.1927 45.0966 38.1053C45.3645 37.9628 45.5111 37.8438 45.5218 37.8587Z" fill="#EB996E"/>
<path d="M79.0847 82.014L44.7714 78.4789C44.2685 78.4253 43.8072 78.1747 43.4885 77.7819C43.1699 77.3891 43.0197 76.8861 43.0709 76.3829L49.008 18.6953C49.0825 17.98 49.4377 17.3235 49.9955 16.8696C50.5534 16.4157 51.2685 16.2016 51.984 16.2741L84.703 19.6434C85.4183 19.7179 86.0748 20.0731 86.5287 20.6309C86.9826 21.1888 87.1967 21.9039 87.1242 22.6194L81.1722 80.307C81.1201 80.8095 80.8714 81.271 80.4803 81.5908C80.0892 81.9105 79.5875 82.0627 79.0847 82.014Z" fill="#FFD000"/>
<path opacity="0.4" d="M79.0847 82.014L44.7714 78.4789C44.2685 78.4253 43.8072 78.1747 43.4885 77.7819C43.1699 77.3891 43.0197 76.8861 43.0709 76.3829L49.008 18.6953C49.0825 17.98 49.4377 17.3235 49.9955 16.8696C50.5534 16.4157 51.2685 16.2016 51.984 16.2741L84.703 19.6434C85.4183 19.7179 86.0748 20.0731 86.5287 20.6309C86.9826 21.1888 87.1967 21.9039 87.1242 22.6194L81.1722 80.307C81.1201 80.8095 80.8714 81.271 80.4803 81.5908C80.0892 81.9105 79.5875 82.0627 79.0847 82.014Z" fill="black"/>
<path d="M75.6218 81.6569L41.3022 78.124C40.7988 78.0704 40.3372 77.8195 40.0185 77.4263C39.6997 77.033 39.5498 76.5295 39.6016 76.0259L45.5536 18.3383C45.59 17.9839 45.6958 17.6401 45.8651 17.3266C46.0343 17.0131 46.2637 16.736 46.54 16.5112C46.8164 16.2864 47.1343 16.1182 47.4757 16.0162C47.8171 15.9143 48.1752 15.8806 48.5296 15.9171L81.2401 19.28C81.5945 19.3163 81.9382 19.4222 82.2517 19.5914C82.5652 19.7607 82.8423 19.9901 83.0672 20.2664C83.292 20.5428 83.4602 20.8607 83.5621 21.2021C83.6641 21.5435 83.6978 21.9016 83.6613 22.256L77.7093 79.9457C77.6582 80.449 77.41 80.9115 77.0188 81.2322C76.6276 81.5529 76.1253 81.7056 75.6218 81.6569Z" fill="#FFD000"/>
<path d="M58.1759 65.9549L46.343 64.7363C46.0604 64.7072 45.8077 64.9127 45.7786 65.1953L45.2991 69.8515C45.27 70.1341 45.4755 70.3868 45.7581 70.4159L57.591 71.6346C57.8736 71.6637 58.1263 71.4582 58.1554 71.1755L58.6349 66.5193C58.664 66.2367 58.4585 65.984 58.1759 65.9549Z" fill="#FFD000"/>
<g opacity="0.4">
<path d="M58.1759 65.9549L46.343 64.7363C46.0604 64.7072 45.8077 64.9127 45.7786 65.1953L45.2991 69.8515C45.27 70.1341 45.4755 70.3868 45.7581 70.4159L57.591 71.6346C57.8736 71.6637 58.1263 71.4581 58.1554 71.1755L58.6349 66.5193C58.664 66.2367 58.4585 65.984 58.1759 65.9549Z" fill="black"/>
</g>
<path d="M47.9353 22.3661L46.6189 35.1484L79.2038 38.5043L80.5202 25.7219L47.9353 22.3661Z" fill="#FAFAFA"/>
<path d="M79.2057 38.5047C79.2057 38.5047 79.2057 38.4261 79.2248 38.2773C79.244 38.1285 79.261 37.9053 79.2886 37.6162C79.346 37.0337 79.431 36.1792 79.5416 35.076C79.7541 32.8716 80.0836 29.6809 80.4833 25.7228L80.5173 25.7653L47.9322 22.4216L47.9938 22.3727C47.5326 26.8367 47.0862 31.1625 46.6738 35.1546L46.627 35.0951L69.978 37.5269L76.759 38.239L78.5765 38.4346L79.0463 38.4856L79.2078 38.5047C79.2078 38.5047 79.1547 38.5047 79.0505 38.492L78.5871 38.4473L76.7803 38.2688L69.9992 37.5864L46.6164 35.2014H46.5632V35.1504C46.9735 31.1561 47.4135 26.8367 47.8769 22.3663V22.311H47.9322L80.5258 25.6845H80.564V25.7228C80.1389 29.6915 79.8094 32.8907 79.5777 35.0993C79.4608 36.1962 79.3651 37.0486 79.3077 37.6268C79.2759 37.9138 79.2525 38.1327 79.2355 38.2815L79.2057 38.5047Z" fill="#263238"/>
<path d="M53.0141 40.9557L48.3558 40.476C48.1129 40.4509 47.8957 40.6276 47.8707 40.8705L47.391 45.5288C47.366 45.7717 47.5426 45.9889 47.7855 46.0139L52.4438 46.4937C52.6867 46.5187 52.9039 46.342 52.9289 46.0991L53.4087 41.4408C53.4337 41.1979 53.2571 40.9807 53.0141 40.9557Z" fill="#FFD000"/>
<g opacity="0.4">
<path d="M53.0141 40.9557L48.3558 40.476C48.1129 40.4509 47.8957 40.6276 47.8707 40.8705L47.391 45.5288C47.366 45.7717 47.5426 45.9889 47.7855 46.0139L52.4438 46.4937C52.6867 46.5187 52.9039 46.342 52.9289 46.0991L53.4087 41.4408C53.4337 41.1979 53.2571 40.9807 53.0141 40.9557Z" fill="black"/>
</g>
<path d="M52.1601 40.8688L47.5018 40.389C47.2589 40.364 47.0417 40.5407 47.0167 40.7836L46.537 45.4419C46.512 45.6848 46.6886 45.902 46.9315 45.927L51.5898 46.4067C51.8327 46.4318 52.0499 46.2551 52.0749 46.0122L52.5547 41.3539C52.5797 41.111 52.403 40.8938 52.1601 40.8688Z" fill="#263238"/>
<path d="M50.0558 42.261L49.8199 44.5759L49.2842 44.5206L49.4776 42.6415L49.0164 42.5926L49.061 42.1675L50.0558 42.261Z" fill="white"/>
<path d="M60.7378 41.7536L56.0795 41.2738C55.8366 41.2488 55.6194 41.4254 55.5944 41.6683L55.1146 46.3266C55.0896 46.5696 55.2662 46.7867 55.5091 46.8118L60.1674 47.2915C60.4103 47.3165 60.6275 47.1399 60.6526 46.897L61.1323 42.2387C61.1573 41.9958 60.9807 41.7786 60.7378 41.7536Z" fill="#FFD000"/>
<g opacity="0.4">
<path d="M60.7378 41.7536L56.0795 41.2738C55.8366 41.2488 55.6194 41.4254 55.5944 41.6683L55.1146 46.3266C55.0896 46.5696 55.2662 46.7867 55.5091 46.8118L60.1674 47.2915C60.4103 47.3165 60.6275 47.1399 60.6526 46.897L61.1323 42.2387C61.1573 41.9958 60.9807 41.7786 60.7378 41.7536Z" fill="black"/>
</g>
<path d="M59.8821 41.6642L55.2238 41.1845C54.9809 41.1594 54.7637 41.3361 54.7386 41.579L54.2589 46.2373C54.2339 46.4802 54.4105 46.6974 54.6534 46.7224L59.3117 47.2022C59.5546 47.2272 59.7718 47.0505 59.7968 46.8076L60.2766 42.1493C60.3016 41.9064 60.125 41.6892 59.8821 41.6642Z" fill="#263238"/>
<path d="M58.4205 45.0162L58.3759 45.4414L56.6328 45.2628L56.6689 44.9163L57.6447 44.166C57.87 43.9938 57.9189 43.879 57.9295 43.7663C57.9486 43.5856 57.8338 43.4666 57.5894 43.4411C57.4972 43.4281 57.4032 43.4379 57.3157 43.4698C57.2282 43.5017 57.1499 43.5546 57.0877 43.6239L56.7242 43.3327C56.8443 43.2019 56.9949 43.103 57.1626 43.0448C57.3303 42.9865 57.5098 42.9708 57.685 42.9989C58.1995 43.0521 58.5162 43.3497 58.4716 43.7684C58.4503 43.9938 58.3653 44.1936 58.0124 44.4572L57.43 44.9036L58.4205 45.0162Z" fill="white"/>
<path d="M68.7441 42.5778L64.0858 42.098C63.8429 42.073 63.6257 42.2496 63.6007 42.4926L63.121 47.1509C63.0959 47.3938 63.2726 47.611 63.5155 47.636L68.1738 48.1157C68.4167 48.1407 68.6339 47.9641 68.6589 47.7212L69.1387 43.0629C69.1637 42.82 68.987 42.6028 68.7441 42.5778Z" fill="#FFD000"/>
<g opacity="0.4">
<path d="M68.7441 42.5778L64.0858 42.098C63.8429 42.073 63.6257 42.2496 63.6007 42.4926L63.121 47.1509C63.0959 47.3938 63.2726 47.611 63.5155 47.636L68.1738 48.1157C68.4167 48.1407 68.6339 47.9641 68.6589 47.7212L69.1387 43.0629C69.1637 42.82 68.987 42.6028 68.7441 42.5778Z" fill="black"/>
</g>
<path d="M67.8906 42.4889L63.2323 42.0092C62.9894 41.9841 62.7722 42.1608 62.7472 42.4037L62.2674 47.062C62.2424 47.3049 62.4191 47.5221 62.662 47.5471L67.3203 48.0269C67.5632 48.0519 67.7804 47.8752 67.8054 47.6323L68.2851 42.974C68.3102 42.7311 68.1335 42.5139 67.8906 42.4889Z" fill="#263238"/>
<path d="M66.4366 45.5665C66.3962 45.9555 66.0604 46.2807 65.4035 46.2148C65.0933 46.1869 64.7979 46.0695 64.5532 45.8768L64.8019 45.4878C64.9801 45.6448 65.2033 45.7416 65.4396 45.7642C65.7075 45.7918 65.8839 45.7004 65.903 45.5112C65.9222 45.322 65.8031 45.2157 65.5013 45.1838L65.2568 45.1583L65.293 44.8055L65.8223 44.3166L64.8402 44.2166L64.8848 43.7915L66.5004 43.9573L66.4642 44.3038L65.8818 44.8437C66.0496 44.8696 66.2009 44.9591 66.3042 45.0938C66.4076 45.2284 66.455 45.3977 66.4366 45.5665Z" fill="white"/>
<path d="M76.7527 43.4025L72.0944 42.9227C71.8515 42.8977 71.6343 43.0744 71.6092 43.3173L71.1295 47.9756C71.1045 48.2185 71.2811 48.4357 71.524 48.4607L76.1823 48.9404C76.4252 48.9655 76.6424 48.7888 76.6675 48.5459L77.1472 43.8876C77.1722 43.6447 76.9956 43.4275 76.7527 43.4025Z" fill="#FFD000"/>
<g opacity="0.4">
<path d="M76.7527 43.4025L72.0944 42.9227C71.8515 42.8977 71.6343 43.0744 71.6092 43.3173L71.1295 47.9756C71.1045 48.2185 71.2811 48.4357 71.524 48.4607L76.1823 48.9404C76.4252 48.9655 76.6424 48.7888 76.6675 48.5459L77.1472 43.8876C77.1722 43.6447 76.9956 43.4275 76.7527 43.4025Z" fill="black"/>
</g>
<path d="M75.916 43.3126L71.2577 42.8329C71.0148 42.8079 70.7976 42.9845 70.7726 43.2274L70.2928 47.8857C70.2678 48.1286 70.4445 48.3458 70.6874 48.3709L75.3457 48.8506C75.5886 48.8756 75.8058 48.699 75.8308 48.4561L76.3105 43.7978C76.3355 43.5549 76.1589 43.3377 75.916 43.3126Z" fill="#263238"/>
<path d="M72.0472 45.5176L72.0254 45.729L74.4994 45.9838L74.5212 45.7723L72.0472 45.5176Z" fill="white"/>
<path d="M73.7894 44.7162C73.7814 44.7957 73.7501 44.871 73.6993 44.9327C73.6485 44.9943 73.5805 45.0395 73.504 45.0626C73.4275 45.0856 73.3459 45.0855 73.2695 45.0621C73.1931 45.0388 73.1254 44.9933 73.0748 44.9315C73.0242 44.8696 72.9932 44.7941 72.9855 44.7146C72.9778 44.6351 72.9939 44.5551 73.0317 44.4847C73.0696 44.4143 73.1274 44.3567 73.1979 44.3192C73.2685 44.2817 73.3485 44.266 73.428 44.274C73.5346 44.2847 73.6325 44.3374 73.7003 44.4203C73.768 44.5032 73.8001 44.6096 73.7894 44.7162Z" fill="white"/>
<path d="M73.5662 46.8741C73.5582 46.9537 73.5267 47.0291 73.4758 47.0907C73.4249 47.1524 73.3568 47.1976 73.2802 47.2205C73.2036 47.2434 73.1219 47.2431 73.0455 47.2196C72.9691 47.196 72.9014 47.1503 72.8509 47.0883C72.8005 47.0262 72.7696 46.9506 72.7622 46.8709C72.7548 46.7913 72.7712 46.7113 72.8094 46.641C72.8475 46.5707 72.9057 46.5133 72.9764 46.4761C73.0472 46.4389 73.1275 46.4235 73.207 46.4319C73.3131 46.4432 73.4105 46.496 73.4778 46.5789C73.5452 46.6617 73.5769 46.7679 73.5662 46.8741Z" fill="white"/>
<path d="M52.1787 49.0709L47.5204 48.5912C47.2775 48.5662 47.0603 48.7428 47.0353 48.9857L46.5555 53.644C46.5305 53.8869 46.7071 54.1041 46.9501 54.1292L51.6084 54.6089C51.8513 54.6339 52.0685 54.4573 52.0935 54.2144L52.5732 49.5561C52.5982 49.3132 52.4216 49.096 52.1787 49.0709Z" fill="#FFD000"/>
<g opacity="0.4">
<path d="M52.1787 49.0709L47.5204 48.5912C47.2775 48.5662 47.0603 48.7428 47.0353 48.9857L46.5555 53.644C46.5305 53.8869 46.7071 54.1041 46.9501 54.1292L51.6084 54.6089C51.8513 54.6339 52.0685 54.4573 52.0935 54.2144L52.5732 49.5561C52.5982 49.3132 52.4216 49.096 52.1787 49.0709Z" fill="black"/>
</g>
<path d="M51.3249 48.984L46.6666 48.5043C46.4237 48.4793 46.2065 48.6559 46.1815 48.8988L45.7018 53.5571C45.6767 53.8 45.8534 54.0172 46.0963 54.0422L50.7546 54.522C50.9975 54.547 51.2147 54.3704 51.2397 54.1275L51.7195 49.4691C51.7445 49.2262 51.5678 49.009 51.3249 48.984Z" fill="#263238"/>
<path d="M49.7072 52.2667L49.331 52.2285L49.28 52.7131L48.7592 52.66L48.8102 52.1753L47.5667 52.0457L47.6028 51.6864L48.8421 50.3345L49.4033 50.394L48.2511 51.6694L48.8718 51.7332L48.9165 51.308L49.4203 51.3591L49.3756 51.7842L49.7519 51.8225L49.7072 52.2667Z" fill="white"/>
<path d="M59.9026 49.8664L55.2443 49.3866C55.0014 49.3616 54.7842 49.5382 54.7591 49.7811L54.2794 54.4394C54.2544 54.6823 54.431 54.8995 54.6739 54.9246L59.3322 55.4043C59.5751 55.4293 59.7923 55.2527 59.8174 55.0098L60.2971 50.3515C60.3221 50.1086 60.1455 49.8914 59.9026 49.8664Z" fill="#FFD000"/>
<g opacity="0.4">
<path d="M59.9026 49.8664L55.2443 49.3866C55.0014 49.3616 54.7842 49.5382 54.7591 49.7811L54.2794 54.4394C54.2544 54.6823 54.431 54.8995 54.6739 54.9246L59.3322 55.4043C59.5751 55.4293 59.7923 55.2527 59.8174 55.0098L60.2971 50.3515C60.3221 50.1086 60.1455 49.8914 59.9026 49.8664Z" fill="black"/>
</g>
<path d="M59.0488 49.7775L54.3905 49.2977C54.1476 49.2727 53.9304 49.4494 53.9054 49.6923L53.4256 54.3506C53.4006 54.5935 53.5773 54.8107 53.8202 54.8357L58.4785 55.3154C58.7214 55.3405 58.9386 55.1638 58.9636 54.9209L59.4433 50.2626C59.4684 50.0197 59.2917 49.8025 59.0488 49.7775Z" fill="#263238"/>
<path d="M57.3598 52.813C57.3194 53.2212 56.9814 53.5464 56.3225 53.4784C56.0123 53.4501 55.717 53.3327 55.4722 53.1404L55.7251 52.7535C55.903 52.9106 56.1265 53.0067 56.3628 53.0277C56.6307 53.0554 56.8071 52.9618 56.8262 52.7726C56.8454 52.5834 56.7391 52.4602 56.3203 52.4176L55.7294 52.356L55.9823 51.0806L57.3896 51.2251L57.347 51.6503L56.3841 51.5503L56.3012 51.9861L56.4904 52.0053C57.1642 52.069 57.4023 52.4028 57.3598 52.813Z" fill="white"/>
<path d="M67.9109 50.6911L63.2526 50.2113C63.0097 50.1863 62.7925 50.3629 62.7674 50.6058L62.2877 55.2641C62.2627 55.5071 62.4393 55.7243 62.6822 55.7493L67.3405 56.229C67.5834 56.254 67.8006 56.0774 67.8257 55.8345L68.3054 51.1762C68.3304 50.9333 68.1538 50.7161 67.9109 50.6911Z" fill="#FFD000"/>
<g opacity="0.4">
<path d="M67.9109 50.6911L63.2526 50.2113C63.0097 50.1863 62.7925 50.3629 62.7674 50.6058L62.2877 55.2641C62.2627 55.5071 62.4393 55.7243 62.6822 55.7493L67.3405 56.229C67.5835 56.254 67.8006 56.0774 67.8257 55.8345L68.3054 51.1762C68.3304 50.9333 68.1538 50.7161 67.9109 50.6911Z" fill="black"/>
</g>
<path d="M67.0552 50.6017L62.3969 50.122C62.1539 50.0969 61.9368 50.2736 61.9117 50.5165L61.432 55.1748C61.407 55.4177 61.5836 55.6349 61.8265 55.6599L66.4848 56.1397C66.7277 56.1647 66.9449 55.988 66.9699 55.7451L67.4497 51.0868C67.4747 50.8439 67.2981 50.6267 67.0552 50.6017Z" fill="#263238"/>
<path d="M65.5354 53.6508C65.4865 54.1228 65.0699 54.38 64.5831 54.3289C63.9454 54.2631 63.5925 53.823 63.669 53.079C63.7519 52.2798 64.2791 51.8844 64.9742 51.9566C65.1997 51.9738 65.4164 52.0517 65.6013 52.182L65.3632 52.554C65.2409 52.4587 65.0928 52.4025 64.9381 52.3924C64.5512 52.3542 64.2812 52.5561 64.2196 52.9961C64.3035 52.9337 64.3989 52.8886 64.5003 52.8635C64.6018 52.8383 64.7072 52.8335 64.8105 52.8494C64.912 52.8505 65.0122 52.8726 65.1048 52.9142C65.1973 52.9559 65.2802 53.0163 65.3483 53.0915C65.4164 53.1668 65.4682 53.2554 65.5004 53.3516C65.5326 53.4479 65.5445 53.5498 65.5354 53.6508ZM65.0146 53.6232C65.0201 53.5738 65.0149 53.5237 64.9995 53.4765C64.984 53.4292 64.9586 53.3858 64.925 53.3491C64.8913 53.3125 64.8503 53.2835 64.8045 53.264C64.7587 53.2446 64.7093 53.2351 64.6596 53.2363C64.6107 53.2259 64.5602 53.2257 64.5113 53.2357C64.4623 53.2457 64.4159 53.2657 64.375 53.2944C64.3341 53.3231 64.2996 53.36 64.2736 53.4027C64.2476 53.4453 64.2306 53.4929 64.2238 53.5424C64.2026 53.7401 64.3365 53.8996 64.5937 53.9272C64.6412 53.937 64.6901 53.9367 64.7374 53.9263C64.7848 53.916 64.8294 53.8959 64.8685 53.8672C64.9075 53.8386 64.9401 53.8021 64.9642 53.76C64.9883 53.718 65.0033 53.6714 65.0082 53.6232H65.0146Z" fill="white"/>
<path d="M75.9153 51.5153L71.257 51.0355C71.0141 51.0105 70.7969 51.1871 70.7718 51.4301L70.2921 56.0884C70.2671 56.3313 70.4437 56.5485 70.6866 56.5735L75.3449 57.0532C75.5878 57.0782 75.805 56.9016 75.8301 56.6587L76.3098 52.0004C76.3348 51.7575 76.1582 51.5403 75.9153 51.5153Z" fill="#FFD000"/>
<g opacity="0.4">
<path d="M75.9153 51.5153L71.257 51.0355C71.0141 51.0105 70.7969 51.1871 70.7718 51.4301L70.2921 56.0884C70.2671 56.3313 70.4437 56.5485 70.6866 56.5735L75.3449 57.0532C75.5878 57.0782 75.805 56.9016 75.8301 56.6587L76.3098 52.0004C76.3348 51.7575 76.1582 51.5403 75.9153 51.5153Z" fill="black"/>
</g>
<path d="M75.0615 51.4259L70.4032 50.9462C70.1603 50.9212 69.9431 51.0978 69.9181 51.3407L69.4383 55.999C69.4133 56.2419 69.59 56.4591 69.8329 56.4841L74.4912 56.9639C74.7341 56.9889 74.9513 56.8123 74.9763 56.5694L75.456 51.911C75.4811 51.6681 75.3044 51.4509 75.0615 51.4259Z" fill="#263238"/>
<path d="M73.3557 53.1035L71.4028 54.6436L71.5345 54.8105L73.4873 53.2704L73.3557 53.1035Z" fill="white"/>
<path d="M71.7452 52.9337L71.5803 53.0679L73.1495 54.9974L73.3145 54.8633L71.7452 52.9337Z" fill="white"/>
<path d="M51.3501 57.1193L46.6918 56.6395C46.4489 56.6145 46.2317 56.7912 46.2067 57.0341L45.7269 61.6924C45.7019 61.9353 45.8785 62.1525 46.1214 62.1775L50.7797 62.6572C51.0227 62.6823 51.2398 62.5056 51.2649 62.2627L51.7446 57.6044C51.7696 57.3615 51.593 57.1443 51.3501 57.1193Z" fill="#FFD000"/>
<g opacity="0.4">
<path d="M51.3501 57.1193L46.6918 56.6395C46.4489 56.6145 46.2317 56.7912 46.2067 57.0341L45.7269 61.6924C45.7019 61.9353 45.8785 62.1525 46.1214 62.1775L50.7797 62.6572C51.0227 62.6823 51.2398 62.5056 51.2649 62.2627L51.7446 57.6044C51.7696 57.3615 51.593 57.1443 51.3501 57.1193Z" fill="black"/>
</g>
<path d="M50.4963 57.0324L45.838 56.5526C45.5951 56.5276 45.3779 56.7042 45.3529 56.9471L44.8732 61.6055C44.8481 61.8484 45.0248 62.0656 45.2677 62.0906L49.926 62.5703C50.1689 62.5953 50.3861 62.4187 50.4111 62.1758L50.8908 57.5175C50.9159 57.2746 50.7392 57.0574 50.4963 57.0324Z" fill="#263238"/>
<path d="M48.7592 58.4592L48.7231 58.8057L47.6602 60.6806L47.0799 60.6189L48.1002 58.8312L47.335 58.7526L47.2967 59.1288L46.8206 59.0799L46.9056 58.27L48.7592 58.4592Z" fill="white"/>
<path d="M59.074 57.9147L54.4157 57.4349C54.1727 57.4099 53.9556 57.5866 53.9305 57.8295L53.4508 62.4878C53.4258 62.7307 53.6024 62.9479 53.8453 62.9729L58.5036 63.4526C58.7465 63.4777 58.9637 63.301 58.9887 63.0581L59.4685 58.3998C59.4935 58.1569 59.3169 57.9397 59.074 57.9147Z" fill="#FFD000"/>
<g opacity="0.4">
<path d="M59.074 57.9147L54.4157 57.4349C54.1727 57.4099 53.9556 57.5866 53.9305 57.8295L53.4508 62.4878C53.4258 62.7307 53.6024 62.9479 53.8453 62.9729L58.5036 63.4526C58.7465 63.4777 58.9637 63.301 58.9887 63.0581L59.4685 58.3998C59.4935 58.1569 59.3169 57.9397 59.074 57.9147Z" fill="black"/>
</g>
<path d="M58.218 57.8253L53.5597 57.3456C53.3168 57.3206 53.0996 57.4972 53.0746 57.7401L52.5948 62.3984C52.5698 62.6413 52.7465 62.8585 52.9894 62.8835L57.6477 63.3633C57.8906 63.3883 58.1078 63.2117 58.1328 62.9688L58.6125 58.3105C58.6375 58.0675 58.4609 57.8504 58.218 57.8253Z" fill="#263238"/>
<path d="M56.7137 60.9439C56.669 61.3691 56.2524 61.6135 55.6657 61.5519C55.079 61.4903 54.724 61.1778 54.7687 60.7441C54.7787 60.6288 54.8226 60.5191 54.8948 60.4287C54.9671 60.3383 55.0644 60.2713 55.1747 60.2361C55.0974 60.1788 55.037 60.1018 54.9996 60.0132C54.9622 59.9246 54.9493 59.8276 54.9621 59.7323C55.0046 59.3263 55.3872 59.1116 55.9165 59.1647C56.4458 59.2179 56.7838 59.5112 56.7434 59.9172C56.7348 60.0136 56.7005 60.1058 56.644 60.1843C56.5876 60.2629 56.511 60.3248 56.4225 60.3636C56.5227 60.4209 56.6039 60.5066 56.6557 60.6098C56.7075 60.7131 56.7277 60.8293 56.7137 60.9439ZM56.1738 60.8717C56.195 60.6591 56.0398 60.5252 55.7741 60.4975C55.5084 60.4699 55.332 60.5783 55.3107 60.7824C55.2895 60.9865 55.4404 61.1331 55.7061 61.1608C55.9718 61.1884 56.1546 61.0672 56.1823 60.8632L56.1738 60.8717ZM55.485 59.8088C55.4659 59.9831 55.5934 60.1064 55.8103 60.1298C56.0271 60.1532 56.1844 60.0575 56.2035 59.8832C56.2227 59.7089 56.0887 59.5771 55.8698 59.5559C55.6508 59.5346 55.502 59.6218 55.485 59.8024V59.8088Z" fill="white"/>
<path d="M67.0803 58.7394L62.422 58.2597C62.1791 58.2346 61.9619 58.4113 61.9369 58.6542L61.4571 63.3125C61.4321 63.5554 61.6088 63.7726 61.8517 63.7976L66.51 64.2774C66.7529 64.3024 66.9701 64.1257 66.9951 63.8828L67.4748 59.2245C67.4999 58.9816 67.3232 58.7644 67.0803 58.7394Z" fill="#FFD000"/>
<g opacity="0.4">
<path d="M67.0803 58.7394L62.422 58.2597C62.1791 58.2346 61.9619 58.4113 61.9369 58.6542L61.4571 63.3125C61.4321 63.5554 61.6088 63.7726 61.8517 63.7976L66.51 64.2774C66.7529 64.3024 66.9701 64.1257 66.9951 63.8828L67.4748 59.2245C67.4999 58.9816 67.3232 58.7644 67.0803 58.7394Z" fill="black"/>
</g>
<path d="M66.0707 58.2776L61.4346 57.8094C61.1928 57.7849 60.977 57.9611 60.9526 58.2029L60.4843 62.839C60.4599 63.0807 60.6361 63.2965 60.8778 63.3209L65.5139 63.7892C65.7557 63.8136 65.9715 63.6375 65.9959 63.3957L66.4642 58.7596C66.4886 58.5178 66.3124 58.3021 66.0707 58.2776Z" fill="#263238"/>
<path d="M64.6851 61.2163C64.6022 62.0155 64.0793 62.4109 63.3799 62.3386C63.1559 62.3222 62.9406 62.245 62.7571 62.1154L62.9952 61.7434C63.1171 61.839 63.2656 61.8946 63.4203 61.9029C63.8029 61.9411 64.0771 61.7392 64.1388 61.297C64.0543 61.3599 63.9582 61.4055 63.8561 61.431C63.7539 61.4565 63.6477 61.4616 63.5436 61.4458C63.4426 61.4439 63.343 61.4212 63.2511 61.3792C63.1592 61.3372 63.0769 61.2767 63.0093 61.2016C62.9418 61.1264 62.8904 61.0382 62.8583 60.9424C62.8262 60.8465 62.8142 60.7451 62.823 60.6445C62.8719 60.1725 63.2885 59.9153 63.7774 59.9663C64.413 60.0322 64.7638 60.4723 64.6851 61.2163ZM64.1303 60.7529C64.1494 60.5552 64.0155 60.3957 63.7625 60.3681C63.7147 60.3588 63.6655 60.3597 63.6181 60.3706C63.5706 60.3815 63.526 60.4023 63.487 60.4315C63.448 60.4607 63.4157 60.4978 63.3919 60.5403C63.3681 60.5828 63.3536 60.6298 63.3491 60.6783C63.3446 60.7268 63.3503 60.7757 63.3659 60.8218C63.3815 60.868 63.4065 60.9103 63.4395 60.9462C63.4724 60.9821 63.5125 61.0106 63.5572 61.0301C63.6018 61.0495 63.6501 61.0593 63.6988 61.059C63.7475 61.0694 63.7979 61.0696 63.8467 61.0596C63.8956 61.0495 63.9418 61.0295 63.9826 61.0008C64.0233 60.972 64.0576 60.9352 64.0834 60.8925C64.1092 60.8498 64.1259 60.8023 64.1324 60.7529H64.1303Z" fill="white"/>
<path d="M75.0867 59.5636L70.4283 59.0839C70.1854 59.0589 69.9682 59.2355 69.9432 59.4784L69.4635 64.1367C69.4385 64.3796 69.6151 64.5968 69.858 64.6218L74.5163 65.1016C74.7592 65.1266 74.9764 64.9499 75.0014 64.707L75.4812 60.0487C75.5062 59.8058 75.3296 59.5886 75.0867 59.5636Z" fill="#FFD000"/>
<g opacity="0.4">
<path d="M75.0867 59.5636L70.4283 59.0839C70.1854 59.0589 69.9682 59.2355 69.9432 59.4784L69.4635 64.1367C69.4385 64.3796 69.6151 64.5968 69.858 64.6218L74.5163 65.1016C74.7592 65.1266 74.9764 64.95 75.0014 64.707L75.4812 60.0487C75.5062 59.8058 75.3296 59.5886 75.0867 59.5636Z" fill="black"/>
</g>
<path d="M74.2329 59.4743L69.5746 58.9945C69.3317 58.9695 69.1145 59.1461 69.0895 59.389L68.6097 64.0474C68.5847 64.2903 68.7613 64.5075 69.0042 64.5325L73.6626 65.0122C73.9055 65.0372 74.1227 64.8606 74.1477 64.6177L74.6274 59.9594C74.6524 59.7165 74.4758 59.4993 74.2329 59.4743Z" fill="#263238"/>
<path d="M70.3929 61.7754L70.3711 61.9868L72.8451 62.2416L72.8669 62.0302L70.3929 61.7754Z" fill="white"/>
<path d="M66.2444 66.8585L61.5861 66.3788C61.3432 66.3538 61.126 66.5304 61.1009 66.7733L60.6212 71.4316C60.5962 71.6745 60.7728 71.8917 61.0157 71.9167L65.674 72.3965C65.9169 72.4215 66.1341 72.2449 66.1592 72.002L66.6389 67.3437C66.6639 67.1007 66.4873 66.8836 66.2444 66.8585Z" fill="#FFD000"/>
<g opacity="0.4">
<path d="M66.2444 66.8585L61.5861 66.3788C61.3432 66.3538 61.126 66.5304 61.1009 66.7733L60.6212 71.4316C60.5962 71.6745 60.7728 71.8917 61.0157 71.9168L65.674 72.3965C65.9169 72.4215 66.1341 72.2449 66.1592 72.002L66.6389 67.3437C66.6639 67.1007 66.4873 66.8836 66.2444 66.8585Z" fill="black"/>
</g>
<path d="M65.3887 66.7692L60.7303 66.2894C60.4874 66.2644 60.2702 66.4411 60.2452 66.684L59.7655 71.3423C59.7405 71.5852 59.9171 71.8024 60.16 71.8274L64.8183 72.3071C65.0612 72.3322 65.2784 72.1555 65.3034 71.9126L65.7832 67.2543C65.8082 67.0114 65.6316 66.7942 65.3887 66.7692Z" fill="#263238"/>
<path d="M74.251 67.6828L69.5927 67.203C69.3497 67.178 69.1326 67.3546 69.1075 67.5975L68.6278 72.2558C68.6028 72.4987 68.7794 72.7159 69.0223 72.741L73.6806 73.2207C73.9235 73.2457 74.1407 73.0691 74.1657 72.8262L74.6455 68.1679C74.6705 67.925 74.4939 67.7078 74.251 67.6828Z" fill="#FFD000"/>
<g opacity="0.4">
<path d="M74.2507 67.6828L69.5924 67.203C69.3495 67.178 69.1323 67.3546 69.1073 67.5975L68.6275 72.2558C68.6025 72.4987 68.7792 72.7159 69.0221 72.741L73.6804 73.2207C73.9233 73.2457 74.1405 73.0691 74.1655 72.8262L74.6452 68.1679C74.6703 67.925 74.4936 67.7078 74.2507 67.6828Z" fill="black"/>
</g>
<path d="M73.3972 67.5939L68.7389 67.1141C68.496 67.0891 68.2788 67.2658 68.2538 67.5087L67.774 72.167C67.749 72.4099 67.9257 72.6271 68.1686 72.6521L72.8269 73.1318C73.0698 73.1569 73.287 72.9802 73.312 72.7373L73.7917 68.079C73.8167 67.8361 73.6401 67.6189 73.3972 67.5939Z" fill="#455A64"/>
<path d="M69.5889 69.5927L69.5671 69.8042L72.0411 70.059L72.0629 69.8475L69.5889 69.5927Z" fill="white"/>
<path d="M69.4935 70.5327L69.4717 70.7441L71.9457 70.9989L71.9675 70.7875L69.4935 70.5327Z" fill="white"/>
<path d="M57.1196 65.8455L44.8067 64.5774C44.5148 64.5473 44.2537 64.7596 44.2236 65.0516L43.7476 69.6739C43.7175 69.9659 43.9298 70.2269 44.2218 70.257L56.5347 71.5251C56.8266 71.5552 57.0877 71.3429 57.1178 71.0509L57.5938 66.4285C57.6239 66.1366 57.4116 65.8755 57.1196 65.8455Z" fill="#263238"/>
<path d="M50.1708 67.8907C50.2494 67.1275 50.7171 66.7407 51.2847 66.7981C51.8522 66.8555 52.2285 67.3316 52.1498 68.0947C52.0712 68.8579 51.6078 69.2448 51.0381 69.1852C50.4684 69.1257 50.0921 68.6517 50.1708 67.8907ZM51.612 68.0395C51.6673 67.5144 51.5036 67.2785 51.2379 67.2508C50.9722 67.2232 50.766 67.4209 50.7128 67.9459C50.6597 68.471 50.8212 68.7069 51.0848 68.7346C51.3484 68.7622 51.5589 68.5624 51.612 68.0395Z" fill="white"/>
<path d="M62.8132 68.0501L62.5217 70.52L62.7328 70.5449L63.0243 68.075L62.8132 68.0501Z" fill="white"/>
<path d="M61.5494 69.0678L61.5276 69.2793L64.0016 69.5341L64.0234 69.3226L61.5494 69.0678Z" fill="white"/>
<path d="M60.3911 30.1722L60.0361 33.6222L59.8724 33.6052L60.2211 30.3082L59.3538 30.219L59.3686 30.0659L60.3911 30.1722Z" fill="#263238"/>
<path d="M63.2269 33.7965L63.2099 33.9496L60.8716 33.7094L60.8843 33.5904L62.5169 32.2533C62.9845 31.8728 63.0972 31.6304 63.127 31.3498C63.1737 30.8907 62.8846 30.5633 62.2767 30.4996C62.0856 30.4652 61.8892 30.4749 61.7024 30.5279C61.5156 30.581 61.3434 30.676 61.1989 30.8057L61.0969 30.6866C61.2596 30.5448 61.4517 30.4408 61.6593 30.382C61.867 30.3232 62.0851 30.3111 62.2979 30.3465C62.9569 30.4145 63.3417 30.7972 63.2843 31.3541C63.2503 31.6815 63.1185 31.9557 62.6168 32.3617L61.1288 33.5797L63.2269 33.7965Z" fill="#263238"/>
<path d="M65.9605 33.2652C65.901 33.8392 65.4567 34.2005 64.6979 34.1155C64.4743 34.1035 64.2559 34.0436 64.0574 33.9398C63.859 33.836 63.6852 33.6908 63.5479 33.5139L63.6499 33.4055C63.7764 33.5696 63.9368 33.7043 64.1203 33.8004C64.3038 33.8966 64.5059 33.9519 64.7127 33.9625C65.3717 34.0305 65.7501 33.7499 65.8032 33.244C65.8564 32.7381 65.5524 32.3937 64.8212 32.3108L64.6298 32.2895L64.6426 32.1726L65.8606 30.8823L63.9581 30.6867L63.973 30.5337L66.0987 30.7463L66.086 30.8632L64.8615 32.1577C65.6608 32.247 66.0201 32.6892 65.9605 33.2652Z" fill="#263238"/>
<path d="M69.3615 33.5753L68.6112 33.4988L68.5091 34.4958L68.3454 34.4788L68.4475 33.4818L66.4663 33.2692L66.4791 33.1502L68.6282 31.0117L68.8195 31.0308L66.6938 33.1438L68.4602 33.3266L68.5495 32.4487L68.7132 32.4657L68.6218 33.3415L69.3722 33.4202L69.3615 33.5753Z" fill="#263238"/>
<path d="M70.078 34.5063C70.0681 34.5681 70.0518 34.6286 70.0292 34.687L69.7826 35.3247L69.655 35.3119L69.8782 34.6466C69.8354 34.6395 69.7971 34.6157 69.7718 34.5805C69.7465 34.5452 69.7362 34.5013 69.7432 34.4584C69.7503 34.4156 69.7741 34.3773 69.8094 34.352C69.8446 34.3267 69.8885 34.3164 69.9314 34.3235C69.9748 34.3288 70.0145 34.3509 70.0419 34.385C70.0693 34.4192 70.0822 34.4627 70.078 34.5063Z" fill="#263238"/>
<path d="M73.4961 34.0025L72.7479 33.926L72.6458 34.9209L72.4822 34.9038L72.5842 33.909L70.603 33.6964L70.6158 33.5774L72.7628 31.4453L72.9541 31.4666L70.8284 33.5795L72.5948 33.7602L72.6841 32.8823L72.8478 32.8993L72.7628 33.7772L73.5131 33.8537L73.4961 34.0025Z" fill="#263238"/>
<path d="M76.0597 34.2873C76.0002 34.8485 75.5665 35.2417 74.7843 35.161C74.5617 35.1482 74.3445 35.0879 74.1472 34.9841C73.95 34.8804 73.7772 34.7355 73.6406 34.5594L73.7469 34.451C73.8728 34.6156 74.0331 34.7508 74.2167 34.847C74.4003 34.9432 74.6027 34.9981 74.8098 35.0079C75.4836 35.0781 75.8514 34.7571 75.9024 34.2682C75.9577 33.7367 75.6728 33.3881 74.6865 33.2861L74.0169 33.2181L74.357 31.6089L76.1362 31.7938L76.1213 31.9469L74.4782 31.7768L74.1954 33.082L74.7269 33.1373C75.7812 33.2457 76.1213 33.6751 76.0597 34.2873Z" fill="#263238"/>
<path d="M38.3517 104.982L36.9998 109.98L41.3936 110.38L42.3162 105.622L38.3517 104.982Z" fill="#FFD000"/>
<path d="M41.5147 109.973C41.3019 109.989 41.0882 109.982 40.877 109.952C40.4816 109.92 39.9374 109.859 39.3358 109.782L37.801 109.57C37.5854 109.553 37.3719 109.516 37.1633 109.459C37.3762 109.447 37.5898 109.455 37.801 109.484C38.1964 109.516 38.7406 109.578 39.3422 109.655L40.877 109.867C41.0922 109.884 41.3055 109.92 41.5147 109.973Z" fill="#263238"/>
<g opacity="0.6">
<path d="M36.9998 109.98L41.3936 110.38L41.4638 110.014L37.1273 109.463L37.0061 109.929" fill="white"/>
</g>
<path d="M39.1765 109.757C39.4233 108.473 39.7355 107.203 40.1118 105.952C40.0037 106.596 39.8618 107.235 39.6867 107.865C39.5494 108.504 39.3792 109.135 39.1765 109.757Z" fill="#263238"/>
<path d="M41.2788 109.942C41.3478 109.636 41.3478 109.319 41.2788 109.013C41.2017 108.684 41.0355 108.383 40.7984 108.143C40.5029 107.855 40.117 107.677 39.7058 107.639C39.2952 107.597 38.882 107.691 38.5303 107.907C38.2448 108.088 38.0094 108.338 37.8458 108.634C37.7002 108.912 37.6058 109.214 37.5673 109.525C37.5645 109.503 37.5645 109.481 37.5673 109.459C37.5665 109.396 37.57 109.333 37.578 109.27C37.6085 109.036 37.6805 108.809 37.7905 108.6C37.9519 108.286 38.1922 108.02 38.4878 107.827C38.8559 107.594 39.2918 107.492 39.7249 107.537C40.1593 107.577 40.5661 107.767 40.8749 108.075C41.1195 108.331 41.2874 108.65 41.3596 108.996C41.4071 109.227 41.4071 109.466 41.3596 109.697C41.3459 109.759 41.3275 109.821 41.3043 109.88C41.2987 109.902 41.2901 109.922 41.2788 109.942Z" fill="#263238"/>
<path d="M56.4734 104.413L56.2119 108.347C56.2119 108.347 60.1275 109.646 60.1509 110.377L52.4983 110.433L52.6535 104.285L56.4734 104.413Z" fill="#FFD000"/>
<g opacity="0.6">
<path d="M53.8568 107.945C53.7825 107.966 53.7183 108.013 53.6764 108.078C53.6345 108.142 53.6177 108.22 53.6293 108.296C53.6467 108.371 53.6924 108.437 53.7569 108.479C53.8215 108.522 53.8999 108.538 53.9758 108.524C54.0543 108.502 54.1219 108.452 54.1658 108.383C54.2097 108.314 54.2268 108.232 54.2139 108.152C54.1877 108.075 54.133 108.012 54.0613 107.975C53.9896 107.939 53.9064 107.931 53.8291 107.954" fill="white"/>
</g>
<g opacity="0.6">
<path d="M52.4983 110.437L52.5387 109.816L59.9064 110.029C59.9843 110.069 60.0509 110.128 60.1002 110.2C60.1496 110.273 60.1802 110.356 60.1891 110.443L52.4983 110.437Z" fill="white"/>
</g>
<path d="M56.3374 108.313C56.3374 108.351 56.1482 108.362 55.959 108.477C55.7698 108.592 55.6699 108.745 55.6359 108.73C55.6019 108.715 55.6635 108.5 55.8931 108.364C56.1227 108.228 56.3459 108.279 56.3374 108.313Z" fill="#263238"/>
<path d="M57.128 108.671C57.128 108.707 56.9728 108.764 56.8411 108.919C56.7093 109.074 56.6667 109.238 56.6285 109.236C56.5902 109.234 56.5732 109.023 56.7411 108.832C56.9091 108.641 57.1301 108.634 57.128 108.671Z" fill="#263238"/>
<path d="M57.5555 109.644C57.5215 109.644 57.4747 109.461 57.5767 109.261C57.6788 109.061 57.8573 108.983 57.8722 109.015C57.8871 109.047 57.7744 109.153 57.6936 109.319C57.6129 109.484 57.5937 109.642 57.5555 109.644Z" fill="#263238"/>
<path d="M56.297 107.41C56.28 107.444 56.11 107.387 55.8995 107.395C55.6891 107.404 55.5211 107.465 55.502 107.431C55.4829 107.397 55.6466 107.272 55.8953 107.265C56.144 107.259 56.3162 107.382 56.297 107.41Z" fill="#263238"/>
<g opacity="0.3">
<path d="M56.4203 105.193L56.3735 105.894L52.6152 105.746L52.6301 105.114L56.4203 105.193Z" fill="black"/>
</g>
<path d="M56.3353 106.615C56.2089 106.645 56.0768 106.64 55.9526 106.602C55.8151 106.573 55.6816 106.527 55.5551 106.466C55.4812 106.431 55.4102 106.389 55.3426 106.343C55.2999 106.318 55.2618 106.287 55.2299 106.249C55.2059 106.222 55.1919 106.188 55.1899 106.151C55.188 106.115 55.1983 106.079 55.2193 106.05C55.2391 106.024 55.2643 106.004 55.293 105.99C55.3217 105.976 55.3531 105.969 55.3851 105.969C55.4336 105.97 55.4817 105.978 55.5275 105.994C55.6089 106.016 55.6879 106.046 55.7635 106.084C55.8912 106.145 56.0082 106.227 56.1099 106.326C56.2821 106.496 56.3395 106.636 56.3225 106.643C56.3055 106.649 56.2226 106.536 56.0462 106.394C55.9436 106.312 55.8307 106.244 55.7103 106.192C55.6417 106.161 55.5706 106.136 55.4977 106.118C55.417 106.094 55.3489 106.09 55.3256 106.118C55.3022 106.145 55.3256 106.137 55.3256 106.16C55.3501 106.187 55.3779 106.21 55.4085 106.23C55.4751 106.276 55.541 106.316 55.6061 106.351C55.723 106.414 55.8454 106.465 55.9718 106.504C56.0951 106.534 56.2165 106.571 56.3353 106.615Z" fill="#263238"/>
<path d="M56.2843 106.668C56.2167 106.556 56.1856 106.425 56.195 106.294C56.191 106.07 56.2499 105.849 56.3651 105.656C56.3869 105.606 56.4213 105.563 56.4649 105.53C56.5084 105.497 56.5597 105.476 56.6138 105.469C56.6481 105.471 56.6813 105.482 56.7093 105.502C56.7372 105.522 56.7587 105.55 56.7711 105.582C56.7893 105.627 56.8015 105.674 56.8072 105.722C56.8205 105.837 56.811 105.954 56.7793 106.065C56.7476 106.176 56.6942 106.28 56.6223 106.371C56.4671 106.566 56.3098 106.604 56.3077 106.583C56.3056 106.562 56.4288 106.496 56.5479 106.309C56.6171 106.202 56.6621 106.08 56.6797 105.954C56.6903 105.88 56.6903 105.805 56.6797 105.731C56.6797 105.65 56.6414 105.584 56.6117 105.59C56.5819 105.597 56.5075 105.648 56.4735 105.712C56.4341 105.78 56.4 105.851 56.3715 105.924C56.3256 106.046 56.297 106.173 56.2864 106.303C56.2694 106.521 56.3056 106.662 56.2843 106.668Z" fill="#263238"/>
<path d="M39.8801 43.118C39.8801 43.118 39.0489 47.6457 38.3921 50.3858C37.8734 52.5115 36.5342 56.5036 38.9596 57.6621C41.3851 58.8206 44.6374 54.1419 44.6374 54.1419L46.0212 43.4836C45.0583 43.6643 43.9657 44.7824 42.8029 46.4256L43.0155 42.3867L39.8801 43.118Z" fill="#455A64"/>
<path d="M73.2581 49.8074L71.9826 50.4154L70.8071 48.5724L71.4937 47.1503C71.5596 47.0185 71.6298 46.8718 71.7063 46.7018C71.7914 46.5027 71.8424 46.2907 71.8572 46.0747C71.8868 45.8086 71.8804 45.5398 71.8381 45.2754C71.7743 45.0373 72.0252 44.8503 72.1952 44.9821C72.3653 45.1139 72.5566 45.7686 72.4312 46.553C72.3058 47.3374 73.2156 46.5062 73.5536 46.2086C73.8915 45.911 74.9778 45.0437 75.15 45.0777C75.3987 45.1266 75.3923 45.4115 75.0479 45.6984C74.7036 45.9854 73.7321 46.9271 73.8915 47.1014C74.0907 47.1238 74.278 47.2077 74.4273 47.3414C74.5766 47.4752 74.6806 47.652 74.7248 47.8475C74.8099 48.2323 74.88 48.7658 74.6632 48.9423C74.2139 49.2606 73.7446 49.5496 73.2581 49.8074Z" fill="#FFBE9D"/>
<path d="M48.5296 32.6272L48.4956 43.7043L53.2445 43.9381L53.3826 41.2448C53.3826 41.2448 55.0704 41.5807 55.5083 40.0119C55.7868 39.0107 55.7209 31.271 55.7209 31.271L48.5296 32.6272Z" fill="#FFBE9D"/>
<path d="M56.7881 32.3552C56.4671 33.0163 54.943 34.228 54.943 34.228L54.2542 36.0731C53.6569 35.6054 52.8534 35.6331 52.7025 36.6832C52.5919 37.4442 53.5358 37.5972 53.5358 37.5972C52.9852 38.5326 52.6132 39.2978 51.8139 40.1779C50.9466 41.1429 50.462 41.2407 49.5224 41.2556H48.4851C48.4851 41.2556 46.3593 39.4828 46.7845 34.8168C47.2096 30.1509 51.3994 31.5134 52.4006 30.3528C54.0311 28.4482 57.8573 30.1466 56.7881 32.3552Z" fill="#263238"/>
<path d="M47.0203 38.7173H47.1521C47.2785 38.7151 47.4045 38.7008 47.5283 38.6748C47.9827 38.5714 48.4025 38.3516 48.7463 38.0371C49.2395 37.5529 49.6553 36.9959 49.9793 36.3854C50.1918 36.0517 50.3916 35.6967 50.6467 35.3545C50.9037 34.9948 51.2191 34.6808 51.5799 34.4255C51.9512 34.1851 52.3611 34.0104 52.7916 33.909C53.204 33.8027 53.61 33.7368 53.9926 33.6624C54.7579 33.52 55.4445 33.3074 55.9058 32.9439C56.2833 32.6677 56.5566 32.2723 56.6816 31.8215C56.7118 31.6991 56.7275 31.5735 56.7284 31.4474C56.7284 31.3602 56.7284 31.3135 56.7284 31.3135C56.7284 31.3135 56.7284 31.3602 56.7433 31.4474C56.7461 31.5746 56.7332 31.7017 56.705 31.8258C56.5841 32.2836 56.3113 32.6869 55.9313 32.9694C55.4594 33.3393 54.7664 33.5582 54.0011 33.7007C53.6164 33.7772 53.2125 33.8431 52.8022 33.9515C52.3766 34.0526 51.9713 34.2251 51.6033 34.4617C51.248 34.7157 50.9364 35.0258 50.6807 35.38C50.4278 35.7201 50.2173 36.073 50.0154 36.4067C49.6874 37.0191 49.2665 37.577 48.7676 38.0605C48.4193 38.3781 47.9932 38.5981 47.5326 38.6982C47.4072 38.7227 47.2798 38.7348 47.1521 38.7343C47.0649 38.7237 47.0203 38.7173 47.0203 38.7173Z" fill="#455A64"/>
<path d="M46.7759 34.9229C46.7759 34.9229 46.8503 34.8931 46.9885 34.8464C47.2 34.772 47.4187 34.7199 47.641 34.6912C47.995 34.6373 48.3565 34.7127 48.6593 34.9038C48.7528 34.966 48.8331 35.0461 48.8955 35.1395C48.9579 35.2329 49.0011 35.3377 49.0228 35.4479C49.0481 35.5723 49.042 35.7011 49.0048 35.8225C48.9677 35.9439 48.9008 36.0541 48.8102 36.1431C48.7069 36.2339 48.5756 36.2864 48.4382 36.2919C48.2954 36.294 48.1549 36.2564 48.0322 36.1834C47.7719 36.029 47.578 35.7837 47.488 35.4947C47.3857 35.1902 47.3717 34.863 47.4476 34.5509C47.5258 34.2211 47.7049 33.9239 47.9599 33.7006C48.2267 33.4614 48.5622 33.3126 48.9186 33.2755C49.2877 33.2524 49.6578 33.3 50.0091 33.4158C50.3704 33.5318 50.7399 33.6206 51.1145 33.6815C51.5011 33.7325 51.8927 33.7325 52.2794 33.6815C52.6663 33.6354 53.0441 33.5308 53.3996 33.3711C53.5735 33.3011 53.7304 33.1946 53.8598 33.059C53.9892 32.9233 54.0882 32.7616 54.15 32.5846C54.2006 32.4113 54.2043 32.2276 54.1606 32.0525C54.1169 31.8773 54.0274 31.7169 53.9013 31.5877C53.773 31.4718 53.6134 31.3964 53.4424 31.371C53.2714 31.3457 53.0968 31.3715 52.9405 31.4452C52.7883 31.5121 52.6637 31.6291 52.5876 31.7768C52.5151 31.9221 52.4884 32.0859 52.5111 32.2466C52.5327 32.4005 52.587 32.548 52.6702 32.6792C52.7534 32.8104 52.8637 32.9224 52.9936 33.0076C53.2436 33.1611 53.5314 33.242 53.8247 33.2415C54.0952 33.2463 54.3646 33.2061 54.6219 33.1224C55.0676 32.9822 55.4725 32.7356 55.8017 32.4039C56.0521 32.1574 56.2584 31.8698 56.4117 31.5536C56.5085 31.3496 56.5833 31.1358 56.6349 30.9159C56.6626 30.7671 56.6817 30.6885 56.6817 30.6885L56.6434 30.9181C56.5963 31.1378 56.525 31.3517 56.4309 31.5558C56.2808 31.8777 56.075 32.1706 55.8229 32.4209C55.493 32.7577 55.0858 33.0087 54.6368 33.1522C54.3759 33.2364 54.1031 33.278 53.829 33.2755C53.5292 33.2774 53.2347 33.1957 52.9787 33.0395C52.8438 32.9518 52.7292 32.8363 52.6426 32.7006C52.5561 32.565 52.4996 32.4123 52.477 32.253C52.452 32.0844 52.4794 31.9122 52.5557 31.7598C52.6364 31.6041 52.7675 31.4805 52.9277 31.4091C53.0915 31.3314 53.2747 31.3041 53.4541 31.3306C53.6334 31.3571 53.8009 31.4362 53.9353 31.5579C54.0667 31.6923 54.1601 31.859 54.206 32.0413C54.252 32.2235 54.2488 32.4147 54.1967 32.5952C54.1329 32.7783 54.031 32.9458 53.8976 33.0865C53.7642 33.2272 53.6024 33.338 53.423 33.4115C53.0631 33.5723 52.6812 33.6784 52.29 33.7261C51.899 33.7761 51.5033 33.7761 51.1123 33.7261C50.7365 33.6647 50.3656 33.5759 50.0027 33.4604C49.6561 33.3466 49.2914 33.2983 48.9271 33.318C48.68 33.3443 48.4419 33.4257 48.2304 33.5562C48.0189 33.6867 47.8393 33.8629 47.7049 34.072C47.5705 34.281 47.4847 34.5175 47.4538 34.7641C47.4229 35.0107 47.4476 35.2611 47.5263 35.4968C47.6137 35.7773 47.8014 36.0156 48.0534 36.1664C48.1703 36.2364 48.3041 36.2732 48.4403 36.2727C48.5706 36.2679 48.6952 36.2183 48.7932 36.1324C48.8793 36.0465 48.9428 35.9405 48.978 35.8241C49.0132 35.7076 49.0191 35.5842 48.9951 35.465C48.9524 35.2504 48.8273 35.0611 48.6465 34.9378C48.3485 34.7487 47.9923 34.6732 47.6432 34.7252C47.4219 34.7519 47.204 34.801 46.9927 34.8719L46.7759 34.9229Z" fill="#455A64"/>
<path d="M43.6425 65.0786L37.3164 106.632L42.5712 107.297L49.9835 72.4463L51.852 107.533L57.5468 107.433L56.603 65.1764L43.6425 65.0786Z" fill="#263238"/>
<path d="M51.7501 107.64V107.538L49.9262 73.2541L42.6541 107.416L37.1953 106.723L43.5512 64.9829L56.7072 65.0807L57.6553 107.548L51.7501 107.64ZM50.0495 71.6364L51.9627 107.425L57.4491 107.329L56.5096 65.2826L43.734 65.1955L37.4376 106.538L42.4862 107.176L50.0495 71.6364Z" fill="#263238"/>
<path d="M55.8548 107.365C55.8229 107.365 55.7996 99.0412 55.7996 88.774C55.7996 78.5068 55.8229 70.1782 55.8548 70.1782C55.8867 70.1782 55.9101 78.5025 55.9101 88.774C55.9101 99.0454 55.8846 107.365 55.8548 107.365Z" fill="#455A64"/>
<path d="M41.4148 107.214C41.4162 107.184 41.4205 107.155 41.4275 107.125C41.4275 107.059 41.4552 106.972 41.4764 106.862C41.5211 106.626 41.587 106.286 41.6699 105.852C41.8484 104.97 42.095 103.705 42.416 102.143C43.0537 99.0114 43.9571 94.6919 44.9945 89.9303C46.0318 85.1687 47.0076 80.862 47.7303 77.7521C48.0938 76.2003 48.3893 74.944 48.5955 74.0682C48.6996 73.6431 48.7825 73.303 48.8378 73.0691C48.8654 72.9586 48.8888 72.8736 48.9037 72.8098C48.9109 72.7802 48.9201 72.751 48.9313 72.7227C48.9313 72.7227 48.9313 72.7524 48.9143 72.8119C48.8973 72.8715 48.8846 72.9629 48.8612 73.0734C48.808 73.3094 48.7336 73.6473 48.638 74.0789C48.4403 74.9547 48.1576 76.2046 47.8068 77.7691C47.1032 80.8854 46.1403 85.1921 45.1029 89.9537C44.0656 94.7153 43.1494 99.0326 42.4925 102.157C42.163 103.718 41.8973 104.98 41.7124 105.86C41.621 106.286 41.5487 106.63 41.4998 106.866L41.4403 107.127C41.4347 107.157 41.4262 107.186 41.4148 107.214Z" fill="#455A64"/>
<path d="M51.8521 72.4077C51.7737 72.4287 51.693 72.4394 51.6118 72.4396L50.955 72.4864C50.4002 72.5225 49.6328 72.5608 48.791 72.6437C47.9492 72.7266 47.1904 72.8414 46.6398 72.9137L45.9872 72.9966C45.9074 73.0119 45.826 73.0169 45.7449 73.0114C45.8211 72.9835 45.9003 72.9643 45.9808 72.954C46.1318 72.9222 46.3528 72.8818 46.6185 72.835C47.167 72.7436 47.9259 72.6224 48.7719 72.5331C49.6179 72.4439 50.3874 72.4247 50.9422 72.4077C51.2207 72.4077 51.446 72.3971 51.6012 72.3971C51.685 72.3915 51.7691 72.3951 51.8521 72.4077Z" fill="#455A64"/>
<path d="M56.7137 69.7102C56.6618 69.733 56.6065 69.7467 56.55 69.7506C56.398 69.7726 56.2442 69.7798 56.0908 69.7719C55.5805 69.7446 55.0887 69.5712 54.6742 69.2723C54.2596 68.9735 53.9397 68.5617 53.7525 68.0862C53.696 67.9434 53.654 67.7952 53.6271 67.644C53.608 67.5377 53.6059 67.4782 53.6144 67.4761C53.6229 67.474 53.6696 67.7099 53.8269 68.0543C54.0307 68.504 54.347 68.8935 54.7453 69.1852C55.1476 69.47 55.6172 69.6451 56.1078 69.6932C56.4735 69.7315 56.7094 69.6889 56.7137 69.7102Z" fill="#455A64"/>
<path d="M42.5605 65.8949L57.1174 65.8482L56.3203 56.2421C56.2331 54.0441 56.2459 53.7805 56.1906 51.7525C56.1906 51.7525 58.2568 54.2503 59.883 56.004C60.3622 56.5193 60.993 56.8685 61.684 57.0012C62.3751 57.1338 63.0904 57.0429 63.7263 56.7416L72.2291 50.8087L70.637 46.7337L62.91 51.4635C62.555 51.2509 59.5471 46.9506 57.4682 44.8567C56.1371 43.5166 54.3417 42.7395 52.4536 42.6864C50.8867 42.6497 49.319 42.7129 47.76 42.8756C46.6245 42.9971 45.5667 43.5106 44.7687 44.3276C43.9707 45.1446 43.4823 46.2142 43.3874 47.3523C43.2365 49.1485 43.3577 51.2339 43.3577 54.7774L42.5605 65.8949Z" fill="#455A64"/>
<path d="M43.2452 48.3237C43.2452 48.3237 43.2452 48.3641 43.2452 48.4364C43.2452 48.5087 43.2452 48.6298 43.2452 48.7574C43.2452 49.038 43.2452 49.4419 43.2452 49.9414C43.2452 50.9405 43.2898 52.3179 43.3345 53.8421C43.3791 55.3662 43.3855 56.7479 43.3472 57.7449C43.3302 58.2444 43.3069 58.6483 43.2835 58.9268C43.2835 59.0565 43.2643 59.1627 43.258 59.2478C43.2516 59.3328 43.2452 59.3583 43.2452 59.3583C43.2452 59.3583 43.2452 59.3201 43.2452 59.2478C43.2452 59.1755 43.2558 59.0543 43.2622 58.9268C43.2813 58.6483 43.2984 58.2444 43.3111 57.7449C43.3409 56.7458 43.3281 55.3662 43.2856 53.8421C43.2431 52.3179 43.2069 50.9405 43.2091 49.9414C43.2091 49.4419 43.2091 49.038 43.224 48.7574C43.224 48.6277 43.224 48.5235 43.2346 48.4364C43.2452 48.3492 43.2452 48.3237 43.2452 48.3237Z" fill="#263238"/>
<path d="M62.5913 52.8387C62.5938 52.7712 62.6038 52.7042 62.6211 52.6389C62.6466 52.5156 62.6827 52.3456 62.7274 52.1606C62.772 51.9757 62.8124 51.8056 62.8443 51.6866C62.8568 51.6198 62.8775 51.5549 62.9059 51.4932C62.9033 51.5608 62.8926 51.6279 62.874 51.693C62.8507 51.8163 62.8124 51.9842 62.7699 52.1713C62.7274 52.3583 62.6848 52.5241 62.653 52.6453C62.6395 52.7118 62.6188 52.7767 62.5913 52.8387Z" fill="#263238"/>
<path d="M63.367 52.9576C63.2857 52.7068 63.2197 52.4512 63.1693 52.1924C63.1038 51.9367 63.052 51.6777 63.0142 51.4165C63.0943 51.6677 63.1603 51.9232 63.2119 52.1818C63.2773 52.4374 63.3291 52.6964 63.367 52.9576Z" fill="#263238"/>
<path d="M56.5499 52.1117L56.4712 52.0394L56.248 51.8269C56.0567 51.6398 55.7804 51.3656 55.4488 51.0148C55.06 50.6071 54.6978 50.1747 54.3647 49.7203C53.9525 49.164 53.6198 48.553 53.3762 47.9049C53.1299 47.2554 53.0192 46.5624 53.051 45.8685C53.0616 45.3018 53.1859 44.743 53.4166 44.2253C53.5817 43.879 53.8274 43.5773 54.133 43.3453C54.2149 43.283 54.3008 43.2262 54.3902 43.1752L54.4858 43.1221C54.4858 43.1221 54.354 43.1943 54.1436 43.358C53.8453 43.5931 53.6058 43.8944 53.4442 44.2381C53.2198 44.7536 53.0999 45.3085 53.0914 45.8706C53.0616 46.559 53.173 47.2463 53.4187 47.89C53.661 48.534 53.9899 49.1419 54.3966 49.6969C54.7282 50.1508 55.0874 50.5838 55.4722 50.9936C55.7995 51.3465 56.0716 51.6313 56.2608 51.8162L56.4734 52.0288C56.5265 52.0841 56.5499 52.1117 56.5499 52.1117Z" fill="#263238"/>
<path d="M47.0884 48.1598C46.8962 48.0046 46.7279 47.822 46.5889 47.6177C46.423 47.4359 46.2841 47.2311 46.1765 47.0098C46.3684 47.1645 46.5367 47.3464 46.6761 47.5497C46.8428 47.7316 46.9818 47.9372 47.0884 48.1598Z" fill="#FAFAFA"/>
<path d="M50.3961 51.9141C50.1945 52.1931 49.9636 52.4496 49.7073 52.6793C49.4766 52.9354 49.2194 53.1663 48.9399 53.368C49.3722 52.833 49.8604 52.3456 50.3961 51.9141Z" fill="#FAFAFA"/>
<path d="M53.5974 57.3026C53.5676 57.3026 53.4507 56.9837 53.2339 56.616C53.0171 56.2482 52.7918 55.9783 52.8088 55.9634C53.028 56.1157 53.205 56.3213 53.3232 56.5607C53.4751 56.7812 53.5693 57.0363 53.5974 57.3026Z" fill="#FAFAFA"/>
<path d="M45.2985 56.6927C44.975 56.014 44.8427 55.26 44.9158 54.5117C44.9499 54.5117 44.9584 55.0091 45.0668 55.6086C45.1752 56.208 45.341 56.6799 45.2985 56.6927Z" fill="#FAFAFA"/>
<path d="M49.7051 59.0651C49.4403 58.4945 49.3831 57.8494 49.5436 57.2412C49.5755 57.2412 49.5287 57.6557 49.5755 58.1574C49.6222 58.6591 49.737 59.0544 49.7051 59.0651Z" fill="#FAFAFA"/>
<path d="M47.962 62.5105C47.6113 62.3577 47.2766 62.1704 46.9629 61.9514C46.6291 61.7642 46.3138 61.5457 46.0212 61.2988C46.3725 61.4518 46.7079 61.6391 47.0225 61.8579C47.3557 62.045 47.6703 62.2635 47.962 62.5105Z" fill="#FAFAFA"/>
<path d="M54.8153 61.4922C54.8302 61.5219 54.337 61.7664 53.7652 62.1299C53.1934 62.4934 52.7576 62.8314 52.7363 62.8059C53.019 62.5022 53.3458 62.2428 53.7057 62.0364C54.0456 61.7995 54.4198 61.616 54.8153 61.4922Z" fill="#FAFAFA"/>
<path d="M46.1913 65.389C45.8327 65.3722 45.4766 65.3195 45.1285 65.2317C44.7701 65.1789 44.4182 65.0892 44.0784 64.9639C44.4371 64.9808 44.7933 65.0342 45.1412 65.1233C45.4994 65.176 45.8512 65.265 46.1913 65.389Z" fill="#FAFAFA"/>
<path d="M50.7913 64.6407C50.3858 64.2473 50.1105 63.7391 50.0027 63.1846C50.0324 63.1846 50.1642 63.5204 50.3832 63.9201C50.6021 64.3197 50.8168 64.6194 50.7913 64.6407Z" fill="#FAFAFA"/>
<path d="M55.9696 64.9996C55.8898 65.1796 55.7774 65.3432 55.638 65.4822C55.4255 65.7288 55.2469 65.9073 55.2129 65.8946C55.291 65.7124 55.4036 65.5471 55.5445 65.4078C55.7571 65.1654 55.9378 64.9826 55.9696 64.9996Z" fill="#FAFAFA"/>
<path d="M46.5038 50.3877C46.5208 50.4132 46.3316 50.5705 46.0787 50.7363C45.935 50.8539 45.7696 50.9421 45.5919 50.9956C45.5749 50.9701 45.7662 50.8128 46.017 50.6449C46.1604 50.5274 46.326 50.44 46.5038 50.3877Z" fill="#FAFAFA"/>
<path d="M50.092 46.3809C49.9215 46.0325 49.7931 45.665 49.7094 45.2862C49.5944 44.9167 49.5231 44.535 49.4968 44.1489C49.6304 44.5108 49.7383 44.8816 49.8199 45.2585C49.9371 45.6258 50.028 46.0008 50.092 46.3809Z" fill="#FAFAFA"/>
<path d="M53.5377 50.0283C53.5228 50.058 53.2125 49.939 52.815 49.8646C52.4175 49.7902 52.0837 49.7838 52.0837 49.7498C52.5861 49.6623 53.1032 49.7613 53.5377 50.0283Z" fill="#FAFAFA"/>
<path d="M55.9059 46.929C55.6418 47.0061 55.3626 47.0156 55.0939 46.9566C54.82 46.933 54.5567 46.8401 54.3286 46.6866C54.3414 46.6569 54.6772 46.7823 55.1109 46.8461C55.5445 46.9098 55.9016 46.8971 55.9059 46.929Z" fill="#FAFAFA"/>
<path d="M58.3271 50.3856C58.2872 49.9945 58.3072 49.5995 58.3866 49.2144C58.432 48.8234 58.5382 48.4418 58.7012 48.0835C58.731 48.0835 58.597 48.5979 58.4886 49.2314C58.3802 49.8648 58.3611 50.3878 58.3271 50.3856Z" fill="#FAFAFA"/>
<path d="M61.1754 54.4582C60.6455 54.0154 60.1651 53.5165 59.7427 52.9702C60.2712 53.4145 60.7514 53.9133 61.1754 54.4582Z" fill="#FAFAFA"/>
<path d="M63.5436 54.1416C63.324 54.6222 63.0377 55.0694 62.6934 55.4702C62.7877 55.2217 62.9165 54.9877 63.076 54.7751C63.2014 54.543 63.3588 54.3298 63.5436 54.1416Z" fill="#FAFAFA"/>
<path d="M66.292 52.8047C66.1069 52.5519 65.9528 52.2778 65.8329 51.9884C65.6799 51.7142 65.5594 51.4231 65.4736 51.1211C65.6584 51.3748 65.8126 51.6495 65.9328 51.9395C66.0855 52.2131 66.2061 52.5034 66.292 52.8047Z" fill="#FAFAFA"/>
<path d="M70.0333 51.257C69.3775 51.2159 68.7285 51.1004 68.0989 50.9126C68.4282 50.9159 68.7562 50.9558 69.0767 51.0316C69.4031 51.0703 69.724 51.1459 70.0333 51.257Z" fill="#FAFAFA"/>
<path d="M40.3159 55.2384C40.543 54.5782 40.8409 53.9446 41.2045 53.3486C41.1074 53.6841 40.9748 54.0084 40.8091 54.3158C40.6777 54.6399 40.5124 54.9491 40.3159 55.2384Z" fill="#FAFAFA"/>
<path d="M42.2992 51.7396C42.0615 51.5537 41.8474 51.3396 41.6615 51.1019C41.447 50.8885 41.2579 50.651 41.0981 50.394C41.3365 50.5792 41.5508 50.7934 41.7359 51.0318C41.9514 51.2442 42.1406 51.4818 42.2992 51.7396Z" fill="#FAFAFA"/>
<path d="M42.1335 57.3579C42.1526 57.3813 42.0059 57.5364 41.8061 57.7044C41.6063 57.8723 41.4256 57.9871 41.4043 57.9637C41.3831 57.9403 41.534 57.7852 41.7338 57.6193C41.9336 57.4535 42.1143 57.3303 42.1335 57.3579Z" fill="#FAFAFA"/>
<path d="M42.8028 48.0215C42.8283 48.0407 42.7391 48.1916 42.6051 48.3595C42.4712 48.5275 42.3416 48.6465 42.3182 48.6274C42.2948 48.6082 42.3841 48.4573 42.518 48.2894C42.6519 48.1215 42.7901 48.0024 42.8028 48.0215Z" fill="#FAFAFA"/>
<g opacity="0.3">
<path d="M53.9141 48.9868C54.8132 51.8119 55.5062 54.7773 56.4054 57.6023L56.1928 51.7524C55.3184 50.9315 54.5526 50.0021 53.9141 48.9868Z" fill="black"/>
</g>
<path d="M39.2871 52.6835C39.2945 52.6601 39.3037 52.6374 39.3147 52.6155L39.3998 52.4178C39.4763 52.2477 39.589 52.0054 39.7335 51.7056C40.0226 51.1062 40.4392 50.2878 40.9409 49.4035C41.4426 48.5192 41.9294 47.7412 42.295 47.1864C42.4778 46.9079 42.6287 46.6847 42.735 46.5338L42.8583 46.3595C42.8881 46.3191 42.9029 46.2978 42.9051 46.3L42.8668 46.3637L42.7499 46.5423L42.3248 47.2034C41.9655 47.7624 41.4745 48.5426 40.9834 49.4248C40.4924 50.3069 40.0609 51.1253 39.7675 51.7184L39.421 52.4263C39.3849 52.4985 39.353 52.5623 39.3275 52.6176C39.3164 52.6409 39.3029 52.663 39.2871 52.6835Z" fill="#263238"/>
<path d="M40.7219 49.9775C40.6462 50.0151 40.568 50.0478 40.4881 50.0753C40.3033 50.156 40.1268 50.2542 39.9609 50.3687C39.796 50.4845 39.643 50.6162 39.5039 50.7619C39.3955 50.8746 39.3359 50.949 39.3317 50.9447C39.3274 50.9405 39.3317 50.9235 39.3657 50.8873C39.401 50.8362 39.4393 50.7872 39.4805 50.7407C39.6142 50.5859 39.7671 50.4488 39.9354 50.3325C40.1037 50.2157 40.2858 50.1201 40.4774 50.0477C40.5351 50.0252 40.594 50.006 40.6539 49.9903C40.6759 49.9829 40.6988 49.9786 40.7219 49.9775Z" fill="#263238"/>
<path d="M40.9217 45.6177C40.7397 45.9659 40.5262 46.2967 40.284 46.6061C40.068 46.9364 39.821 47.2453 39.5464 47.5287C39.7293 47.1817 39.9427 46.8516 40.1841 46.5424C40.4005 46.2117 40.6475 45.9021 40.9217 45.6177Z" fill="#FAFAFA"/>
<path d="M42.4565 42.161C42.5619 42.1796 42.6704 42.1651 42.7671 42.1194C42.8638 42.0737 42.944 41.9991 42.9965 41.9059C43.1155 41.7274 43.1708 41.5148 43.2749 41.3277C43.5917 40.7729 44.3102 40.5306 44.5993 39.9609C44.6397 39.8801 44.663 39.7696 44.5993 39.7143C44.5355 39.659 44.4398 39.6973 44.3654 39.7334L42.4735 40.6815" fill="#FFBE9D"/>
<path d="M42.4693 40.6816C42.5277 40.6317 42.5929 40.5902 42.6628 40.5584C42.7903 40.4861 42.9795 40.3862 43.2133 40.2629L44.0339 39.8377L44.2741 39.7166C44.3634 39.653 44.4738 39.6263 44.5823 39.6422C44.6156 39.6549 44.6443 39.6773 44.6647 39.7064C44.6852 39.7356 44.6965 39.7702 44.6971 39.8059C44.6981 39.8648 44.6849 39.9231 44.6588 39.9759C44.6127 40.0695 44.5556 40.1573 44.4888 40.2374C44.2226 40.5064 43.9385 40.7571 43.6385 40.9878C43.5183 41.093 43.4144 41.2155 43.3303 41.3513C43.2537 41.4809 43.2048 41.6148 43.1453 41.736C43.1077 41.8384 43.048 41.9313 42.9705 42.0081C42.893 42.0848 42.7996 42.1436 42.6968 42.1803C42.6594 42.1952 42.6191 42.2014 42.579 42.1984C42.5388 42.1955 42.4999 42.1835 42.4651 42.1633C42.537 42.1658 42.6088 42.1565 42.6777 42.1356C42.7676 42.0947 42.8483 42.0359 42.9148 41.9628C42.9813 41.8897 43.0322 41.8039 43.0645 41.7105C43.1157 41.575 43.1739 41.4424 43.2388 41.313C43.3245 41.1658 43.432 41.0325 43.5577 40.9176C43.8555 40.6858 44.1394 40.4366 44.408 40.1715C44.4672 40.0981 44.5192 40.019 44.5632 39.9355C44.6014 39.8569 44.6014 39.774 44.5632 39.7633C44.5249 39.7527 44.4271 39.7889 44.3506 39.8292L44.1104 39.9483L43.2771 40.3522C43.039 40.4648 42.852 40.5647 42.7095 40.6136C42.6334 40.6485 42.5524 40.6715 42.4693 40.6816Z" fill="#EB996E"/>
<path d="M101.802 97.3628H88.3464V99.2122H101.802V97.3628Z" fill="#263238"/>
<path d="M101.823 99.2334H88.323V97.3394H101.823V99.2334ZM88.3698 99.193H101.777V97.3904H88.3698V99.193Z" fill="#263238"/>
<path d="M89.5942 98.5957L91.5308 108.149H98.6965L100.567 99.21L89.5942 98.5957Z" fill="#263238"/>
<path d="M89.5942 107.245L90.6273 108.665H99.3364L100.567 107.245H89.5942Z" fill="#455A64"/>
<path d="M94.5684 98.8738C94.5407 98.8738 94.5067 94.4481 94.4919 88.9892C94.477 83.5304 94.4919 79.1025 94.5131 79.1025C94.5344 79.1025 94.5726 83.5283 94.5875 88.9892C94.6024 94.4502 94.5939 98.8738 94.5684 98.8738Z" fill="#263238"/>
<path d="M97.5656 87.7969C97.5568 87.8326 97.5447 87.8675 97.5295 87.901L97.4083 88.1859C97.3828 88.2496 97.3531 88.3177 97.3212 88.3984L97.2319 88.6514C97.2 88.7407 97.1639 88.8363 97.1277 88.9384C97.0916 89.0404 97.064 89.151 97.0278 89.2679C96.868 89.8086 96.7423 90.3588 96.6516 90.9153C96.5459 91.5979 96.475 92.2854 96.439 92.9751C96.3899 94.2302 96.4254 95.4873 96.5453 96.7376C96.5899 97.218 96.6325 97.607 96.6643 97.8749C96.6792 98.0003 96.6899 98.1023 96.6984 98.1831C96.7012 98.2192 96.7012 98.2554 96.6984 98.2915C96.6845 98.2583 96.6759 98.2232 96.6728 98.1874C96.6601 98.1066 96.6431 98.0046 96.6218 97.8791C96.5772 97.6134 96.524 97.2244 96.473 96.744C96.3382 95.489 96.2998 94.2254 96.3582 92.9645C96.392 92.271 96.4629 91.5799 96.5708 90.894C96.6662 90.3343 96.7997 89.7818 96.9704 89.2402C97.0066 89.1254 97.0385 89.0149 97.0767 88.9129L97.1873 88.6259C97.2234 88.5366 97.2553 88.4537 97.285 88.3751C97.3148 88.2964 97.3531 88.2326 97.3807 88.1625L97.5189 87.884C97.5313 87.8534 97.5469 87.8241 97.5656 87.7969Z" fill="#263238"/>
<path d="M97.2211 84.2173C97.2099 84.267 97.1957 84.3159 97.1786 84.364C97.1425 84.466 97.0957 84.602 97.0383 84.7742C97.0064 84.8656 96.9724 84.9634 96.9363 85.0718L96.8279 85.4289C96.7492 85.6862 96.6578 85.9753 96.577 86.3047C96.5324 86.4663 96.4878 86.6385 96.441 86.8149C96.3942 86.9913 96.3581 87.1827 96.3156 87.3761C96.2221 87.7609 96.154 88.1796 96.0669 88.6154C95.9181 89.4954 95.7884 90.4669 95.697 91.4915C95.6056 92.5161 95.5758 93.4982 95.5631 94.391C95.5503 95.2838 95.5631 96.0915 95.6077 96.759C95.6205 97.097 95.6417 97.3967 95.6587 97.6688C95.6757 97.9409 95.6906 98.1662 95.7076 98.3554C95.7246 98.5446 95.7331 98.6806 95.7416 98.7806C95.7468 98.8307 95.7468 98.8813 95.7416 98.9315C95.7295 98.8827 95.7216 98.8329 95.7183 98.7827L95.6672 98.3575C95.6439 98.1705 95.6205 97.9324 95.6013 97.6731C95.5822 97.4137 95.5525 97.1012 95.5355 96.7633C95.4908 96.0894 95.4717 95.2753 95.4696 94.3888C95.4674 93.5024 95.5121 92.5118 95.5971 91.4851C95.6821 90.4584 95.8224 89.4806 95.9755 88.6005C96.0648 88.1626 96.1349 87.7502 96.2327 87.357C96.2794 87.1635 96.322 86.9765 96.3645 86.7979C96.407 86.6193 96.4623 86.4493 96.5069 86.2856C96.5919 85.9582 96.6876 85.667 96.7726 85.4119L96.8874 85.0569C96.9278 84.9507 96.9661 84.8444 96.9979 84.7615L97.1552 84.3576C97.1744 84.3096 97.1964 84.2627 97.2211 84.2173Z" fill="#263238"/>
<path d="M93.7158 99.6562V99.6052C93.7158 99.5648 93.7158 99.5159 93.7031 99.4522C93.6924 99.3119 93.6797 99.1163 93.6627 98.8676C93.6308 98.351 93.5861 97.6155 93.5287 96.71C93.4118 94.8904 93.2418 92.3757 92.9357 89.6101C92.7805 88.2284 92.5977 86.9147 92.4106 85.7243C92.3086 85.1312 92.2193 84.5658 92.1152 84.0386C92.011 83.5114 91.9196 83.0225 91.8239 82.5761C91.7283 82.1297 91.6369 81.7258 91.5582 81.3751C91.4796 81.0243 91.4052 80.7204 91.3456 80.4717C91.2861 80.2229 91.2394 80.0465 91.2075 79.902C91.1926 79.8403 91.182 79.7914 91.1735 79.7532C91.165 79.7149 91.1628 79.7021 91.1735 79.7021C91.1804 79.718 91.186 79.7343 91.1905 79.751C91.1905 79.7893 91.216 79.8361 91.233 79.8977C91.2712 80.0338 91.3244 80.223 91.3903 80.4632C91.4562 80.7034 91.5412 81.0095 91.6241 81.3623C91.707 81.7152 91.8112 82.1148 91.9047 82.5634C91.9982 83.0119 92.1173 83.4966 92.2066 84.0237C92.2958 84.5509 92.4064 85.1163 92.5105 85.7115C92.704 86.9019 92.8889 88.2156 93.0441 89.5995C93.3502 92.3629 93.5096 94.8861 93.6095 96.7079C93.6584 97.6177 93.6924 98.3553 93.7137 98.8655C93.7137 99.1142 93.7307 99.3119 93.7349 99.4522C93.7349 99.5138 93.7349 99.5648 93.7349 99.6052C93.7321 99.6233 93.7256 99.6407 93.7158 99.6562Z" fill="#263238"/>
<path d="M94.4577 81.2305C94.4003 80.6035 93.7669 80.1294 93.1355 80.123C92.8203 80.1371 92.5123 80.2227 92.235 80.3733C91.9577 80.5239 91.7183 80.7357 91.5349 80.9925C91.1726 81.5102 90.9108 82.0914 90.7632 82.7058C90.3035 84.1776 90.1424 85.7263 90.2892 87.2612C90.4699 88.7875 91.0885 90.2903 92.1832 91.3681C92.3618 91.5445 92.5935 91.7188 92.8379 91.6678C92.9693 91.6282 93.088 91.5549 93.1823 91.4552C94.254 90.4732 95.1036 89.2735 95.674 87.9365C96.2444 86.5995 96.5226 85.156 96.4899 83.7027C96.4729 83.1224 96.3964 82.5187 96.0754 82.0362C95.7544 81.5537 95.0125 81.0392 94.4577 81.2327" fill="#FFD000"/>
<path d="M89.7557 76.2074L88.8692 77.8144C88.848 77.8506 88.8203 77.8931 88.7778 77.8973C88.7353 77.9016 88.697 77.8569 88.6715 77.8187C87.8893 76.6184 87.1098 75.418 86.3333 74.2177L86.8732 73.9116L89.7557 76.2074Z" fill="#FFD000"/>
<g opacity="0.2">
<path d="M89.7557 76.2074L88.8692 77.8144C88.848 77.8506 88.8203 77.8931 88.7778 77.8973C88.7353 77.9016 88.697 77.8569 88.6715 77.8187C87.8893 76.6184 87.1098 75.418 86.3333 74.2177L86.8732 73.9116L89.7557 76.2074Z" fill="black"/>
</g>
<path d="M94.513 79.1028L86.5139 74.3816C86.4258 74.3443 86.3556 74.2741 86.3184 74.186C86.2865 74.067 86.3758 73.9543 86.4608 73.865C87.0107 73.2942 87.6773 72.8487 88.415 72.5589C89.1527 72.2691 89.9442 72.1418 90.7356 72.1857C91.5264 72.243 92.2915 72.4918 92.9647 72.9107C93.638 73.3295 94.1992 73.9058 94.6002 74.5899C95.3718 75.9695 95.3973 77.7933 94.513 79.1028Z" fill="#FFD000"/>
<path d="M87.666 72.8763C87.6999 72.8665 87.7349 72.8615 87.7702 72.8614C87.8403 72.8614 87.9424 72.8466 88.072 72.8487C88.4445 72.8437 88.8166 72.8729 89.1838 72.9358C90.4021 73.1422 91.5362 73.6918 92.4531 74.5201C93.3699 75.3485 94.0314 76.4212 94.3599 77.6124C94.4593 77.9706 94.5262 78.337 94.5597 78.7072C94.5637 78.7851 94.5637 78.8631 94.5597 78.941C94.5543 79.0034 94.5331 79.0634 94.4981 79.1153C94.5228 78.9821 94.5271 78.8459 94.5108 78.7114C94.4645 78.346 94.3892 77.9849 94.2855 77.6316C93.8835 76.2849 93.0652 75.1003 91.9482 74.2475C90.8312 73.3948 89.4727 72.9177 88.0678 72.8848C87.8106 72.8784 87.666 72.8848 87.666 72.8763Z" fill="#263238"/>
<path d="M93.429 75.8442C93.3019 75.9211 93.1664 75.9832 93.0251 76.0292C92.77 76.1291 92.415 76.2566 92.0154 76.3842C91.6158 76.5117 91.2523 76.6116 90.9866 76.6754C90.8447 76.719 90.6986 76.7475 90.5508 76.7604C90.6863 76.6945 90.8289 76.6446 90.9759 76.6116L91.9963 76.2928L93.0102 75.9654C93.1454 75.9111 93.2857 75.8705 93.429 75.8442Z" fill="#263238"/>
<path d="M92.1704 72.46C92.2413 72.752 92.2728 73.0523 92.2639 73.3528C92.287 73.6526 92.2706 73.9542 92.2151 74.2498C92.1752 73.9533 92.1596 73.654 92.1683 73.3549C92.1454 73.057 92.1461 72.7577 92.1704 72.46Z" fill="#263238"/>
<path d="M86.4438 74.2923C86.6313 74.206 86.8253 74.135 87.0242 74.0798C87.3877 73.9671 87.8936 73.8268 88.459 73.6908C89.0245 73.5547 89.5368 73.4506 89.913 73.3847C90.1136 73.3395 90.3177 73.3118 90.5231 73.3018C90.3276 73.3648 90.128 73.4145 89.9258 73.4506C89.5559 73.5335 89.0436 73.6482 88.4803 73.7822C87.917 73.9161 87.4174 74.05 87.0433 74.1457C86.847 74.2081 86.6468 74.2571 86.4438 74.2923Z" fill="#263238"/>
<path d="M91.1374 79.8703C90.4508 79.3474 89.7217 79.2453 88.8607 79.2793C87.9972 79.3349 87.1515 79.5512 86.3673 79.9171C85.0175 80.508 83.7505 81.3774 82.9449 82.6103C82.1392 83.8432 81.8565 85.4758 82.4602 86.8171C82.5076 86.9577 82.6053 87.0758 82.7344 87.1487C82.8838 87.1928 83.0441 87.1807 83.1851 87.1147C84.7199 86.6152 86.2652 86.1093 87.6746 85.3249C89.0839 84.5405 90.37 83.4521 91.1268 82.0279C91.321 81.6914 91.4447 81.319 91.4903 80.9332C91.5107 80.7411 91.4897 80.5469 91.4289 80.3635C91.368 80.1802 91.2686 80.012 91.1374 79.8703Z" fill="#FFD000"/>
<path d="M91.1523 79.7085C91.1163 79.7254 91.0794 79.7403 91.0418 79.7531L90.7208 79.8637L90.4869 79.9402L90.2149 80.0465C90.0214 80.1251 89.7897 80.2038 89.558 80.3186L89.1818 80.4908C89.0521 80.5503 88.9224 80.6247 88.7842 80.7033C88.5058 80.8394 88.2252 81.0137 87.934 81.1922C86.6468 81.9872 85.5028 82.9933 84.5498 84.1682C84.3373 84.4446 84.1247 84.6997 83.9546 84.959C83.8675 85.0866 83.7782 85.2056 83.7017 85.3289C83.6251 85.4522 83.5529 85.567 83.4891 85.6796C83.3445 85.8922 83.2361 86.1048 83.1341 86.2961C83.0852 86.3875 83.0363 86.4725 82.9938 86.5533L82.8875 86.7659C82.8259 86.8892 82.777 86.9912 82.7387 87.0698C82.7213 87.1059 82.7014 87.1407 82.6792 87.174C82.6887 87.1352 82.7023 87.0974 82.7196 87.0613C82.755 86.9806 82.7997 86.8764 82.8535 86.7489C82.8854 86.6808 82.9173 86.6043 82.9534 86.5235C82.9896 86.4428 83.0384 86.3556 83.0873 86.2621C83.1851 86.0771 83.2893 85.8603 83.4296 85.6371L83.6421 85.28C83.7165 85.1567 83.8058 85.0355 83.893 84.9059C84.0609 84.6423 84.2692 84.3829 84.4818 84.1045C84.9625 83.5153 85.4885 82.9645 86.0548 82.457C86.6294 81.9589 87.2428 81.5075 87.8893 81.1072C88.1912 80.9308 88.476 80.7586 88.7587 80.6247C88.8969 80.5545 89.0287 80.4823 89.1605 80.4227L89.541 80.2569C89.7833 80.1443 90.0108 80.0699 90.2064 79.9976C90.3063 79.9615 90.3977 79.9253 90.4827 79.8977L90.7187 79.8275L91.046 79.734C91.0805 79.7218 91.1161 79.7133 91.1523 79.7085Z" fill="#263238"/>
<path d="M85.7763 82.6123C85.2289 82.8218 84.6704 83.0013 84.1034 83.1501C83.5454 83.3313 82.9776 83.481 82.4028 83.5986C82.9502 83.3882 83.5087 83.208 84.0758 83.0587C84.6342 82.8793 85.2018 82.7303 85.7763 82.6123Z" fill="#263238"/>
<path d="M85.7084 86.3109C85.6795 86.1389 85.6674 85.9644 85.6723 85.7901C85.6616 85.467 85.6616 85.0227 85.6723 84.5295C85.6829 84.0364 85.7127 83.5921 85.7403 83.2711C85.7448 83.0964 85.7668 82.9227 85.8062 82.7524C85.8204 82.9265 85.8204 83.1013 85.8062 83.2754C85.7934 83.6282 85.7807 84.0576 85.7658 84.5317C85.7509 85.0057 85.7446 85.4372 85.7339 85.7901C85.7397 85.9641 85.7312 86.1383 85.7084 86.3109Z" fill="#263238"/>
<path d="M88.8713 84.6996C88.8458 84.6996 88.7607 83.7961 88.6842 82.678C88.6077 81.5599 88.5652 80.6501 88.5907 80.648C88.6162 80.6458 88.7012 81.5514 88.7799 82.6716C88.8585 83.7919 88.8989 84.6974 88.8713 84.6996Z" fill="#263238"/>
<path d="M84.9346 80.5611C85.1123 80.5394 85.2915 80.5337 85.4702 80.5441C85.8019 80.5441 86.2568 80.5569 86.7606 80.5739C87.2644 80.5909 87.7214 80.61 88.053 80.6292C88.2322 80.6289 88.4109 80.6467 88.5865 80.6823C88.4087 80.7026 88.2295 80.7076 88.0509 80.6972C87.7193 80.6972 87.2622 80.6866 86.7584 80.6696C86.2546 80.6525 85.7976 80.6313 85.4681 80.6122C85.2891 80.6113 85.1105 80.5943 84.9346 80.5611Z" fill="#263238"/>
<path d="M92.5317 91.5784C92.5237 91.5435 92.5202 91.5078 92.5211 91.4721C92.5211 91.3913 92.5211 91.2893 92.5062 91.1638C92.4935 90.896 92.4913 90.5091 92.5062 90.0308C92.5211 89.5525 92.5466 88.9829 92.604 88.3536C92.6614 87.7244 92.7571 87.0336 92.8867 86.313C93.0164 85.5923 93.178 84.9142 93.3416 84.302C93.5053 83.6898 93.6796 83.1478 93.8412 82.695C94.0027 82.2422 94.1388 81.8809 94.2451 81.6321L94.3662 81.3473C94.3782 81.3127 94.3947 81.2799 94.4151 81.2495C94.408 81.2852 94.3973 81.3201 94.3832 81.3537L94.2791 81.6449C94.1834 81.8936 94.0559 82.2592 93.9049 82.7078C93.754 83.1563 93.5903 83.7068 93.4267 84.3169C93.263 84.927 93.1121 85.6051 92.9803 86.3215C92.8485 87.0378 92.7677 87.7266 92.6933 88.3536C92.6189 88.9807 92.5913 89.5483 92.5743 90.0245C92.5572 90.5006 92.5317 90.9024 92.5317 91.1638C92.5317 91.2893 92.5317 91.3913 92.5317 91.4721C92.5354 91.5074 92.5354 91.543 92.5317 91.5784Z" fill="#263238"/>
<path d="M92.957 86.3408C92.8654 86.4703 92.7584 86.5881 92.6382 86.6916C92.4256 86.9041 92.1386 87.1741 91.8027 87.4696C91.4669 87.7651 91.165 88.018 90.9227 88.1966C90.8036 88.301 90.6731 88.3915 90.5337 88.4665C90.6383 88.3478 90.7544 88.2395 90.8802 88.1434L91.7305 87.3973L92.5808 86.6427C92.697 86.5311 92.8229 86.4301 92.957 86.3408Z" fill="#263238"/>
<path d="M95.4825 88.3816C95.356 88.2342 95.2422 88.0763 95.1424 87.9097L94.3516 86.7575C94.0455 86.3217 93.767 85.9306 93.5438 85.6139C93.4242 85.4613 93.3162 85.3 93.2207 85.1313C93.3587 85.2682 93.4852 85.416 93.5991 85.5735C93.8117 85.8562 94.1178 86.2516 94.4302 86.7022C94.7427 87.1529 95.0106 87.5674 95.1976 87.8735C95.3067 88.0345 95.402 88.2045 95.4825 88.3816Z" fill="#263238"/>
<path d="M94.156 81.9748C94.1687 81.9982 93.3291 82.5637 92.2768 83.2503C91.2246 83.9369 90.3637 84.4577 90.3467 84.4343C90.3297 84.4109 91.1736 83.8455 92.2237 83.1589C93.2738 82.4723 94.1411 81.9451 94.156 81.9748Z" fill="#263238"/>
<path d="M96.526 84.5255C95.657 83.7649 94.8303 82.9574 94.0496 82.1064C94.4953 82.4753 94.921 82.8677 95.325 83.282C95.7484 83.6736 96.1493 84.0888 96.526 84.5255Z" fill="#263238"/>
<path d="M97.1235 84.4743L97.8441 84.4148C98.3567 84.3732 98.8542 84.2209 99.3023 83.9684C99.5212 83.8398 99.7484 83.7262 99.9825 83.6283C100.875 83.269 101.872 83.3328 102.831 83.2839C104.405 83.2045 105.946 82.8106 107.365 82.1254C107.448 82.0874 107.517 82.0251 107.563 81.9468C107.71 81.6769 107.435 81.4367 107.197 81.29C105.981 80.5396 104.744 79.7807 103.371 79.4087C101.998 79.0367 100.425 79.1005 99.2471 79.9104C97.8653 80.8606 97.3637 82.8141 97.1213 84.4743" fill="#FFD000"/>
<path d="M107.578 81.8576C107.535 81.8426 107.495 81.8233 107.457 81.8002L107.114 81.6216C106.817 81.4665 106.389 81.2348 105.839 80.9839C105.21 80.6759 104.556 80.4241 103.883 80.2314C103.06 79.9937 102.198 79.9215 101.347 80.0189C100.495 80.1141 99.6904 80.4595 99.0345 81.0116C98.5221 81.4909 98.1128 82.0695 97.8313 82.7121C97.635 83.1424 97.4605 83.5823 97.3084 84.0301C97.2531 84.181 97.2106 84.3022 97.1787 84.3936C97.1663 84.4371 97.1492 84.4792 97.1277 84.519C97.1352 84.4744 97.1459 84.4303 97.1596 84.3872C97.1893 84.2937 97.2255 84.1746 97.2722 84.0173C97.4106 83.5633 97.5767 83.1182 97.7697 82.6845C98.0474 82.0306 98.4587 81.442 98.9771 80.9563C99.643 80.3875 100.464 80.0314 101.334 79.9338C102.197 79.8306 103.072 79.9029 103.907 80.1464C104.584 80.3435 105.241 80.604 105.869 80.9244C106.406 81.1922 106.829 81.4303 107.121 81.5983L107.454 81.7917C107.497 81.8098 107.539 81.8318 107.578 81.8576Z" fill="#263238"/>
<path d="M105.845 82.7887C105.83 82.8121 104.884 82.1999 103.736 81.4261C102.589 80.6524 101.666 80.004 101.681 79.9806C101.696 79.9572 102.64 80.5695 103.79 81.3453C104.94 82.1212 105.86 82.7674 105.845 82.7887Z" fill="#263238"/>
<path d="M104.838 79.9317C104.615 80.0071 104.383 80.0486 104.149 80.055C103.917 80.0898 103.681 80.0898 103.449 80.055C103.678 80.0136 103.91 79.9902 104.142 79.9848C104.372 79.9485 104.605 79.9308 104.838 79.9317Z" fill="#263238"/>
<path d="M100.703 79.394C100.626 79.5706 100.522 79.7335 100.393 79.8766C100.285 80.0436 100.153 80.194 100.002 80.323C100.079 80.1494 100.184 79.9893 100.312 79.849C100.42 79.6791 100.551 79.5259 100.703 79.394Z" fill="#263238"/>
<path d="M101.549 83.3455C101.389 83.2789 101.237 83.1963 101.094 83.0989C100.822 82.9331 100.456 82.6908 100.059 82.4059C99.6615 82.1211 99.3192 81.849 99.0684 81.6513C98.9283 81.5512 98.7974 81.4388 98.6772 81.3154C98.8276 81.3952 98.97 81.4891 99.1024 81.596L100.11 82.3273C100.501 82.6121 100.862 82.8629 101.126 83.0415C101.275 83.1312 101.417 83.2329 101.549 83.3455Z" fill="#263238"/>
<path d="M98.1862 87.5417C97.4975 87.361 96.677 88.0306 96.5345 88.7278C96.3921 89.4251 96.6536 90.1393 96.9597 90.7834C97.6142 92.2273 98.5882 93.5037 99.8081 94.5161C101.037 95.5271 102.573 96.092 104.164 96.1189C103.873 94.767 104.24 93.3555 104.079 91.9802C103.935 90.7699 103.386 89.644 102.52 88.7865C101.654 87.9289 100.522 87.3904 99.3107 87.259C98.8707 87.2122 98.3605 87.142 98.1862 87.5481" fill="#FFD000"/>
<path d="M104.164 96.1125C104.129 96.1011 104.097 96.0853 104.066 96.0658C103.974 96.0174 103.887 95.9597 103.807 95.8936C103.518 95.6422 103.287 95.332 103.129 94.9838C103.018 94.7712 102.895 94.5395 102.776 94.2844L102.404 93.4639C102.271 93.1623 102.119 92.8697 101.949 92.5881C101.762 92.2896 101.553 92.0054 101.324 91.7378C100.852 91.183 100.346 90.7047 99.906 90.2498C99.51 89.8503 99.1494 89.4171 98.8282 88.9552C98.6123 88.6417 98.4346 88.3034 98.2989 87.9477C98.2564 87.8201 98.2245 87.7223 98.2075 87.6522C98.1955 87.6179 98.1883 87.5822 98.1863 87.5459C98.1863 87.5459 98.233 87.6862 98.3351 87.9349C98.4818 88.2812 98.6657 88.6104 98.8835 88.917C99.2102 89.3711 99.5735 89.7976 99.9697 90.1924C100.41 90.6452 100.92 91.1235 101.396 91.6804C101.631 91.9519 101.844 92.2412 102.034 92.5456C102.204 92.832 102.356 93.1288 102.489 93.4341L102.852 94.2568C102.967 94.5119 103.086 94.7457 103.192 94.9604C103.341 95.3046 103.558 95.615 103.83 95.8723C104.032 96.0381 104.168 96.104 104.164 96.1125Z" fill="#263238"/>
<path d="M100.61 94.9882C100.615 94.832 100.637 94.6768 100.673 94.5248C100.729 94.2421 100.816 93.8531 100.935 93.4279C101.054 93.0028 101.184 92.6265 101.286 92.3651C101.333 92.2171 101.395 92.0745 101.473 91.9399C101.446 92.0937 101.404 92.2446 101.349 92.3906C101.264 92.6648 101.147 93.0453 101.028 93.4662C100.909 93.8871 100.816 94.274 100.739 94.5524C100.711 94.7017 100.667 94.8477 100.61 94.9882Z" fill="#263238"/>
<path d="M104.032 91.6701C103.868 91.6466 103.705 91.6089 103.547 91.5575C103.252 91.4809 102.842 91.3746 102.385 91.2726C101.928 91.1706 101.513 91.0898 101.211 91.0324C101.047 91.0114 100.884 90.9751 100.727 90.924C100.893 90.9221 101.058 90.9357 101.222 90.9644C101.528 91.0048 101.949 91.0749 102.406 91.177C102.863 91.279 103.273 91.3895 103.567 91.4916C103.728 91.5331 103.884 91.593 104.032 91.6701Z" fill="#263238"/>
<path d="M98.0459 92.633C98.0539 92.4525 98.0788 92.2732 98.1203 92.0974C98.1819 91.7679 98.2776 91.3172 98.4073 90.8219C98.5369 90.3266 98.673 89.8845 98.7793 89.5699C98.8298 89.3956 98.896 89.2263 98.977 89.064C98.9478 89.2424 98.9037 89.418 98.8452 89.589C98.7538 89.91 98.6326 90.3521 98.4987 90.8453C98.3648 91.3385 98.2648 91.7849 98.1862 92.1101C98.1554 92.2883 98.1085 92.4634 98.0459 92.633Z" fill="#263238"/>
<path d="M102.453 88.7771C102.453 88.8026 101.589 88.7346 100.539 88.6219C99.4893 88.5092 98.6262 88.3966 98.6262 88.3711C98.6262 88.3456 99.4893 88.4136 100.539 88.5263C101.589 88.6389 102.455 88.7516 102.453 88.7771Z" fill="#263238"/>
<path d="M101.823 99.2037C101.823 99.2292 98.8006 99.2504 95.0743 99.2504C91.3479 99.2504 88.323 99.2292 88.323 99.2037C88.323 99.1782 91.3458 99.1548 95.0743 99.1548C98.8028 99.1548 101.823 99.176 101.823 99.2037Z" fill="#455A64"/>
<path d="M99.7209 103.092C99.7209 103.119 97.6845 103.141 95.1719 103.141C92.6593 103.141 90.625 103.119 90.625 103.092C90.625 103.064 92.6614 103.045 95.1719 103.045C97.6824 103.045 99.7209 103.066 99.7209 103.092Z" fill="#455A64"/>
<path d="M99.6402 103.657C99.6402 103.682 97.6399 103.704 95.1762 103.704C92.7125 103.704 90.7122 103.682 90.7122 103.657C90.7122 103.631 92.7125 103.608 95.1762 103.608C97.6399 103.608 99.6402 103.621 99.6402 103.657Z" fill="#455A64"/>
<path d="M99.7998 102.634C99.7998 102.66 97.6932 102.681 95.0956 102.681C92.4979 102.681 90.3914 102.66 90.3914 102.634C90.3914 102.609 92.4979 102.585 95.0956 102.585C97.6932 102.585 99.7998 102.607 99.7998 102.634Z" fill="#455A64"/>
<path d="M98.9091 22.441C98.9091 22.4729 97.4828 22.4899 95.7206 22.4814C93.9583 22.4729 92.532 22.4389 92.532 22.4091C92.532 22.3794 93.9583 22.3602 95.7206 22.3687C97.4828 22.3772 98.9091 22.4112 98.9091 22.441Z" fill="#263238"/>
<path d="M95.7439 25.6105C95.7141 25.6105 95.6759 24.1863 95.6567 22.422C95.6376 20.6576 95.6567 19.2334 95.6801 19.2334C95.7035 19.2334 95.7503 20.6576 95.7673 22.422C95.7843 24.1863 95.7758 25.6105 95.7439 25.6105Z" fill="#263238"/>
<path d="M102.259 70.0167C101.592 69.7384 100.939 69.4262 100.304 69.0814C99.6483 68.769 99.0097 68.4228 98.3904 68.0441C98.4031 68.0186 99.2789 68.4373 100.346 68.9815C101.413 69.5257 102.274 69.9912 102.259 70.0167Z" fill="#263238"/>
<path d="M99.3726 70.9774C99.6404 70.3052 99.9434 69.6474 100.28 69.0069C100.582 68.3523 100.918 67.7138 101.286 67.0938C101.017 67.7656 100.714 68.4233 100.378 69.0643C100.075 69.7186 99.7398 70.3571 99.3726 70.9774Z" fill="#263238"/>
<path d="M25.9546 55.0497C25.9546 55.0795 24.947 55.511 23.6822 56.0148C22.4174 56.5186 21.3801 56.9055 21.3695 56.8778C21.3588 56.8502 22.3749 56.4166 23.6419 55.9128C24.9088 55.409 25.9419 55.0221 25.9546 55.0497Z" fill="#263238"/>
<path d="M23.6077 53.668C23.6077 53.668 23.5716 53.6063 23.4951 53.5086C23.3867 53.3732 23.2376 53.2763 23.0699 53.2322C22.9352 53.1963 22.7931 53.1985 22.6595 53.2386C22.5259 53.2788 22.4061 53.3552 22.3135 53.4595C22.2208 53.5637 22.159 53.6917 22.1349 53.8291C22.1107 53.9664 22.1252 54.1078 22.1768 54.2374C22.2283 54.367 22.3149 54.4797 22.4268 54.563C22.5387 54.6463 22.6715 54.6968 22.8104 54.7089C22.9494 54.7211 23.089 54.6944 23.2136 54.6318C23.3383 54.5693 23.4431 54.4733 23.5163 54.3546C23.609 54.2069 23.6508 54.033 23.6354 53.8593C23.6354 53.736 23.5992 53.6701 23.6077 53.6659C23.6466 53.7221 23.6707 53.7871 23.6779 53.855C23.7121 54.0404 23.6789 54.2319 23.5844 54.395C23.5145 54.5189 23.4142 54.6229 23.2929 54.6973C23.1717 54.7717 23.0335 54.8139 22.8914 54.8201C22.716 54.8266 22.543 54.7786 22.396 54.6829C22.2489 54.5871 22.1352 54.4482 22.0702 54.2852C22.0052 54.1222 21.9923 53.9431 22.0331 53.7725C22.074 53.6019 22.1666 53.448 22.2983 53.3321C22.4046 53.2386 22.533 53.1737 22.6714 53.1436C22.8097 53.1135 22.9535 53.1191 23.0891 53.1599C23.2699 53.2122 23.4261 53.3276 23.5291 53.4852C23.5694 53.539 23.5964 53.6017 23.6077 53.668Z" fill="#263238"/>
<path d="M25.2021 57.6665C25.1915 57.6665 25.1659 57.6048 25.0894 57.5071C24.9817 57.371 24.8324 57.274 24.6643 57.2307C24.5422 57.1994 24.4143 57.1988 24.2919 57.2288C24.1696 57.2589 24.0565 57.3187 23.9628 57.4029C23.849 57.5056 23.7694 57.6406 23.7346 57.7898C23.6999 57.9391 23.7116 58.0954 23.7683 58.2378C23.825 58.3801 23.924 58.5017 24.0519 58.5862C24.1797 58.6706 24.3304 58.7139 24.4836 58.7102C24.6111 58.709 24.7362 58.6759 24.8476 58.6139C24.959 58.5519 25.0531 58.463 25.1213 58.3552C25.2129 58.2071 25.2547 58.0335 25.2403 57.8599C25.2403 57.7366 25.2021 57.6707 25.2127 57.6665C25.2513 57.722 25.2754 57.7863 25.2829 57.8536C25.3163 58.0399 25.2824 58.232 25.1872 58.3956C25.1178 58.5195 25.0179 58.6235 24.897 58.6979C24.7761 58.7723 24.6382 58.8146 24.4964 58.8207C24.321 58.8272 24.148 58.7793 24.0009 58.6835C23.8539 58.5877 23.7401 58.4488 23.6752 58.2859C23.6102 58.1229 23.5973 57.9438 23.6381 57.7731C23.6789 57.6025 23.7716 57.4487 23.9033 57.3328C24.0102 57.2402 24.1385 57.1759 24.2766 57.1454C24.4146 57.115 24.5581 57.1195 24.694 57.1584C24.8745 57.2127 25.0302 57.3286 25.1341 57.4858C25.1709 57.5397 25.1943 57.6017 25.2021 57.6665Z" fill="#263238"/>
<path d="M37.8393 32.9526C37.8393 32.9526 37.8627 33.01 37.903 33.1206C37.9434 33.2311 38.003 33.399 38.0795 33.6116C38.2325 34.0367 38.4579 34.6745 38.7448 35.4992L38.7597 35.5375H38.7172L35.9878 35.1591H36.0154C35.0631 35.9071 33.9356 36.3996 32.7397 36.5897C32.4029 36.6437 32.0626 36.6729 31.7215 36.6769C31.5472 36.6769 31.3707 36.662 31.1922 36.6578L30.9265 36.645C30.8372 36.645 30.7479 36.6195 30.6586 36.6067C29.9117 36.5157 29.1852 36.3001 28.5095 35.969C27.7882 35.6196 27.1296 35.1535 26.5602 34.5894C25.8073 33.8377 25.2316 32.9275 24.875 31.9251C24.5184 30.9227 24.3898 29.8534 24.4988 28.795C24.6077 27.7367 24.9514 26.716 25.5048 25.8072C26.0581 24.8985 26.8072 24.1247 27.6975 23.5421C28.3334 23.1241 29.0336 22.8132 29.7701 22.6217L30.04 22.5515L30.1739 22.5175L30.31 22.4962L30.8542 22.4155C31.0349 22.3985 31.2155 22.3942 31.3962 22.3836C31.5746 22.3708 31.7536 22.3708 31.9319 22.3836C32.1083 22.3985 32.2869 22.3836 32.4591 22.4218L32.9756 22.5026C33.1457 22.5303 33.3115 22.5834 33.4773 22.6238L33.7239 22.6876C33.8047 22.7131 33.8833 22.745 33.962 22.7726C35.7094 23.3785 37.1515 24.6422 37.9817 26.2949C38.415 27.1561 38.6695 28.0961 38.7299 29.0583C38.8107 30.2491 38.5822 31.4405 38.0667 32.5169C37.9966 32.6593 37.9413 32.7656 37.903 32.8336C37.8648 32.9016 37.8393 32.9399 37.8393 32.9399C37.8393 32.9399 37.8542 32.9037 37.8903 32.8315C37.9264 32.7592 37.9817 32.6508 38.0455 32.5084C38.2353 32.0921 38.3848 31.6586 38.4919 31.2138C38.6646 30.5107 38.7235 29.7844 38.6662 29.0626C38.5771 27.6773 38.0806 26.3493 37.2391 25.2453C36.3976 24.1413 35.2486 23.3106 33.9365 22.8576C33.8578 22.83 33.7813 22.8002 33.7005 22.7747L33.4582 22.7109C33.2945 22.6727 33.1308 22.6195 32.9629 22.594L32.4527 22.5154C32.2827 22.4856 32.1083 22.492 31.9319 22.4792C31.7565 22.4654 31.5802 22.4654 31.4047 22.4792C31.2283 22.4792 31.0497 22.4941 30.8712 22.509L30.3355 22.5919L30.2016 22.6132L30.0677 22.6472L29.8019 22.7152C29.0771 22.9046 28.3884 23.212 27.7634 23.625C26.7177 24.3057 25.8718 25.2522 25.3124 26.3675C24.753 27.4828 24.5003 28.7268 24.5801 29.972C24.66 31.2172 25.0695 32.4187 25.7667 33.4535C26.4639 34.4883 27.4237 35.319 28.5478 35.8606C29.2156 36.1909 29.9342 36.4065 30.6735 36.4983C30.7606 36.5111 30.8478 36.5281 30.9371 36.5366L31.2007 36.5493C31.3771 36.5493 31.5493 36.5749 31.7215 36.5706C32.0582 36.5681 32.3943 36.5404 32.7269 36.4877C33.9104 36.3056 35.0277 35.8241 35.9729 35.089H35.9857H35.9878L38.7214 35.4801L38.6938 35.512C38.4153 34.6893 38.2006 34.0495 38.0561 33.5989L37.8924 33.1078C37.8542 33.01 37.8393 32.9526 37.8393 32.9526Z" fill="#263238"/>
<path d="M31.9829 27.8724C32.0311 27.8958 32.0719 27.9324 32.1004 27.9778C32.129 28.0233 32.1442 28.0759 32.1444 28.1296V29.5453C32.1441 29.589 32.1336 29.6321 32.114 29.6712C32.0943 29.7103 32.0658 29.7443 32.0309 29.7706C31.996 29.7969 31.9554 29.8148 31.9124 29.8229C31.8694 29.831 31.8252 29.8291 31.783 29.8174C31.6663 29.7876 31.5448 29.7816 31.4257 29.7999C31.3066 29.8181 31.1925 29.8602 31.0901 29.9237C30.9962 29.9783 30.9144 30.0512 30.8494 30.1381C30.7843 30.225 30.7375 30.3242 30.7117 30.4296C30.6938 30.5371 30.6974 30.6472 30.7222 30.7533C30.747 30.8595 30.7925 30.9597 30.8562 31.0482C30.9234 31.148 31.0096 31.2335 31.1099 31.2999C31.2103 31.3663 31.3227 31.4122 31.4408 31.4351C31.6807 31.4591 31.9216 31.4008 32.124 31.2699C32.3264 31.1389 32.4782 30.9431 32.5547 30.7144C32.5806 30.6465 32.6316 30.5911 32.6971 30.5596C32.7626 30.528 32.8377 30.5227 32.907 30.5447C32.9763 30.5667 33.0345 30.6144 33.0698 30.6779C33.1051 30.7415 33.1147 30.8162 33.0967 30.8866C32.978 31.2442 32.7395 31.5498 32.4216 31.752C32.1036 31.9541 31.7257 32.0404 31.3515 31.9963C31.1573 31.9618 30.9721 31.8888 30.8067 31.7814C30.6412 31.6741 30.4991 31.5346 30.3886 31.3713C30.2801 31.219 30.2035 31.0463 30.1633 30.8637C30.1232 30.6811 30.1202 30.4922 30.1547 30.3084C30.1964 30.1272 30.2743 29.9563 30.3839 29.8062C30.4936 29.656 30.6325 29.5296 30.7925 29.4348C31.0285 29.2929 31.2993 29.2193 31.5747 29.2222V28.1296C31.5747 28.0544 31.6044 27.9823 31.6574 27.9289C31.7104 27.8756 31.7823 27.8453 31.8574 27.8447C31.9008 27.8445 31.9436 27.8539 31.9829 27.8724Z" fill="#FFD000"/>
<path d="M31.5919 27.2768C31.5906 27.2305 31.6032 27.1848 31.6279 27.1456C31.6526 27.1065 31.6884 27.0755 31.7308 27.0567C31.7731 27.0379 31.8201 27.0321 31.8658 27.0401C31.9114 27.048 31.9537 27.0694 31.9872 27.1014C32.0207 27.1334 32.0439 27.1746 32.0539 27.2199C32.0639 27.2651 32.0603 27.3123 32.0435 27.3554C32.0266 27.3986 31.9973 27.4358 31.9593 27.4623C31.9213 27.4888 31.8763 27.5034 31.83 27.5042C31.7685 27.5048 31.7092 27.4814 31.6647 27.4389C31.6202 27.3964 31.5941 27.3383 31.5919 27.2768Z" fill="#FFD000"/>
</g>
<defs>
<clipPath id="clip0_896_9015">
<rect width="120" height="120" fill="white" transform="translate(0.5)"/>
</clipPath>
</defs>
</svg>
