<svg width="210" height="210" viewBox="0 0 210 210" fill="none" xmlns="http://www.w3.org/2000/svg">
<g clip-path="url(#clip0_171_17118)">
<path opacity="0.5" d="M210 190.5C210 190.559 143.998 190.375 68.6147 190.375C-6.76813 190.375 0.773646 190.559 0.773646 190.5C0.773646 190.44 -6.79653 190.154 68.6147 190.154C144.026 190.154 210 190.436 210 190.5Z" fill="#263238"/>
<path d="M146.864 109.587C146.574 109.804 146.25 109.971 145.904 110.082C144.955 110.41 143.921 110.397 142.981 110.045C142.329 109.807 141.742 109.418 141.269 108.91C140.725 108.323 140.349 107.601 140.179 106.819C140.084 106.399 140.054 105.966 140.09 105.536C140.121 105.086 140.223 104.645 140.391 104.227C140.742 103.339 141.369 102.588 142.178 102.082C142.987 101.577 143.937 101.344 144.889 101.418C145.773 101.488 146.617 101.818 147.314 102.367C147.942 102.862 148.425 103.517 148.713 104.264C148.963 104.911 149.056 105.608 148.985 106.299C148.885 107.299 148.442 108.233 147.731 108.944C147.48 109.205 147.187 109.422 146.864 109.587C147.144 109.368 147.411 109.134 147.664 108.884C148.328 108.169 148.731 107.252 148.81 106.28C148.868 105.619 148.77 104.954 148.523 104.338C148.241 103.632 147.777 103.013 147.177 102.545C146.855 102.293 146.498 102.09 146.116 101.942C145.72 101.783 145.301 101.689 144.874 101.663C143.975 101.595 143.078 101.816 142.313 102.293C141.549 102.77 140.956 103.479 140.622 104.316C140.461 104.711 140.363 105.129 140.332 105.555C140.294 105.962 140.32 106.372 140.406 106.771C140.552 107.468 140.87 108.117 141.331 108.66C141.791 109.204 142.38 109.623 143.044 109.881C143.95 110.234 144.948 110.272 145.878 109.989C146.548 109.784 146.849 109.561 146.864 109.587Z" fill="#E0E0E0"/>
<path d="M147.664 115.372L147.775 115.472L148.11 115.796L149.42 117.087H149.371L152.809 114.91L152.783 114.985C152.533 114.285 152.258 113.497 151.964 112.667V112.626L151.994 112.593C152.596 111.95 153.108 111.228 153.515 110.446L153.538 110.402H156.049L155.959 110.469C156.246 109.223 156.551 107.894 156.867 106.503L156.919 106.615L154.706 105.551L154.65 105.525V105.462C154.621 104.578 154.475 103.702 154.215 102.858L154.196 102.794L154.241 102.75C154.784 102.214 155.379 101.634 155.985 101.016V101.158L153.783 97.724L153.921 97.7724L151.603 98.5833L151.533 98.6056L151.481 98.5573C150.84 97.9583 150.123 97.4467 149.349 97.0358L149.282 97.0023V96.9279C149.282 96.1579 149.282 95.3209 149.282 94.469L149.379 94.5918L145.432 93.6804L145.573 93.6134L144.502 95.8454L144.472 95.9124H144.394C143.519 95.9405 142.653 96.0844 141.816 96.3402L141.689 96.3067L141.663 96.2806L141.608 96.2248L141.5 96.1132L141.284 95.8938L140.849 95.4585L139.986 94.588L140.142 94.6066L136.69 96.7605L136.742 96.6117C137.012 97.3929 137.281 98.1667 137.549 98.933L137.575 99.0037L137.523 99.0595C136.922 99.6977 136.41 100.415 136.002 101.191L135.964 101.254H135.894H133.435L133.55 101.161C133.238 102.51 132.931 103.831 132.631 105.123L132.568 104.993L134.781 106.064L134.841 106.094V106.161C134.865 107.044 135.009 107.92 135.269 108.765L135.287 108.828L135.239 108.873L133.491 110.599V110.469L135.637 113.925L135.525 113.887L137.847 113.084L137.899 113.065L137.94 113.102C138.581 113.705 139.299 114.221 140.075 114.635L140.12 114.657V114.71C140.12 115.602 140.12 116.406 140.101 117.165L140.042 117.094L144 118.028L143.936 118.058L145.023 115.852V115.829H145.045C145.711 115.811 146.374 115.728 147.024 115.584L147.504 115.468L147.664 115.435L147.508 115.491C147.403 115.524 147.247 115.573 147.031 115.625C146.382 115.788 145.718 115.884 145.049 115.911L145.082 115.885L144.029 118.117L144.007 118.158H143.966L139.997 117.261H139.941V117.202C139.941 116.458 139.941 115.636 139.941 114.743L139.982 114.817C139.19 114.401 138.457 113.881 137.802 113.27L137.891 113.288L135.574 114.103L135.503 114.129L135.462 114.066L133.301 110.618L133.256 110.547L133.316 110.487L135.057 108.758L135.031 108.865C134.765 108.008 134.616 107.118 134.588 106.22L134.651 106.317L132.419 105.253L132.337 105.212L132.356 105.123L133.282 101.072L133.301 100.979H133.398H135.857L135.749 101.042C136.169 100.247 136.693 99.5115 137.307 98.8549L137.281 98.9814C137.013 98.215 136.743 97.4413 136.47 96.6601L136.437 96.5671L136.522 96.515L139.971 94.3611L140.056 94.3053L140.127 94.376L140.99 95.2465L141.422 95.6854L141.641 95.9049L141.749 96.0165L141.805 96.0686L141.831 96.0984C141.578 96.0351 141.76 96.0798 141.704 96.0649C142.563 95.8021 143.452 95.6545 144.349 95.6259L144.241 95.6966L145.313 93.4646L145.354 93.3753L145.45 93.3976L149.412 94.3128L149.509 94.3351V94.4355C149.509 95.2837 149.509 96.1244 149.509 96.8944L149.446 96.7866C150.24 97.2068 150.974 97.731 151.629 98.3452L151.51 98.3192L153.832 97.5157L153.917 97.4822L153.969 97.564L156.119 101.016L156.164 101.091L156.101 101.154C155.494 101.756 154.895 102.344 154.352 102.88L154.382 102.772C154.643 103.631 154.789 104.52 154.817 105.417L154.758 105.328L156.971 106.403L157.042 106.436L157.023 106.511C156.7 107.902 156.387 109.226 156.097 110.472V110.543H156.026H153.567L153.638 110.498C153.218 111.288 152.694 112.017 152.079 112.667V112.593C152.37 113.43 152.637 114.215 152.879 114.918L152.898 114.966L152.853 114.992L149.39 117.128H149.364L149.342 117.105L148.073 115.796L147.749 115.454C147.719 115.428 147.69 115.401 147.664 115.372Z" fill="#E0E0E0"/>
<path fill-rule="evenodd" clip-rule="evenodd" d="M155.755 85.939C154.555 86.3086 153.312 86.5163 152.057 86.5566L150.543 89.6851L144.941 88.3905V84.9123C143.83 84.3272 142.803 83.5953 141.887 82.7361L138.606 83.8819L135.563 79.0012L138.029 76.5572C137.661 75.3563 137.454 74.1114 137.415 72.8558L134.283 71.3455L135.596 65.732H139.071C139.659 64.6216 140.392 63.5945 141.251 62.6779L140.105 59.408L144.986 56.365L147.43 58.8314C148.629 58.4627 149.873 58.2563 151.127 58.2176L152.641 55.0854L158.244 56.3836V59.8581C159.353 60.4449 160.378 61.1768 161.294 62.0343L164.575 60.8923L167.622 65.7692L165.148 68.2318C165.52 69.4309 165.727 70.6747 165.766 71.9295L168.894 73.4436L167.6 79.0459H164.125C163.537 80.155 162.804 81.1808 161.945 82.0963L163.091 85.3773L158.199 88.424L155.755 85.9539V85.939ZM154.639 77.755C155.674 77.1087 156.495 76.1698 156.997 75.0572C157.498 73.9446 157.659 72.7081 157.458 71.5042C157.257 70.3003 156.704 69.183 155.868 68.2936C155.032 67.4042 153.951 66.7826 152.762 66.5074C151.573 66.2322 150.329 66.3158 149.187 66.7476C148.046 67.1794 147.058 67.9401 146.349 68.9334C145.639 69.9266 145.24 71.1079 145.202 72.3279C145.164 73.5478 145.489 74.7517 146.135 75.7872C146.563 76.4757 147.123 77.0731 147.782 77.5453C148.441 78.0174 149.187 78.3551 149.977 78.5389C150.767 78.7227 151.585 78.749 152.385 78.6164C153.185 78.4839 153.951 78.1949 154.639 77.7662V77.755Z" fill="#E0E0E0"/>
<path fill-rule="evenodd" clip-rule="evenodd" d="M168.953 104.472C168.315 104.667 167.653 104.777 166.985 104.799L166.182 106.462L163.206 105.774V103.914C162.615 103.602 162.069 103.213 161.58 102.757L159.836 103.364L158.217 100.76L159.531 99.4612C159.332 98.8232 159.222 98.1612 159.203 97.4934L157.537 96.6861L158.225 93.7101H160.085C160.399 93.1212 160.79 92.5759 161.245 92.0882L160.635 90.3435L163.239 88.7216L164.541 90.0348C165.18 89.8396 165.842 89.7295 166.509 89.7074L167.313 88.0408L170.289 88.7328V90.5928C170.879 90.9041 171.424 91.2932 171.911 91.7497L173.659 91.1433L175.277 93.7473L173.964 95.0493C174.162 95.6873 174.272 96.3494 174.291 97.0172L175.958 97.8207L175.27 100.797H173.41C173.096 101.387 172.706 101.934 172.249 102.422L172.859 104.167L170.255 105.789L168.953 104.476V104.472ZM168.362 100.123C168.913 99.7798 169.351 99.2804 169.618 98.6883C169.886 98.0962 169.972 97.438 169.865 96.7971C169.759 96.1561 169.465 95.5611 169.02 95.0873C168.575 94.6135 168 94.2823 167.367 94.1355C166.734 93.9887 166.072 94.033 165.464 94.2626C164.856 94.4923 164.33 94.8971 163.952 95.4258C163.575 95.9545 163.362 96.5833 163.342 97.2328C163.322 97.8822 163.494 98.5231 163.838 99.0744C164.299 99.8131 165.035 100.339 165.883 100.535C166.731 100.732 167.623 100.584 168.362 100.123Z" fill="#EBEBEB"/>
<path d="M54.798 71.5538C54.8389 71.591 53.0943 73.3803 50.9032 75.5454C48.7121 77.7104 46.9079 79.4365 46.8707 79.3993C46.8335 79.3621 48.5782 77.5728 50.7693 75.4077C52.9603 73.2427 54.7608 71.5166 54.798 71.5538Z" fill="#E0E0E0"/>
<path d="M54.8162 79.3807C54.779 79.4179 52.9562 77.6992 50.7688 75.5454C48.5815 73.3915 46.8145 71.6133 46.8517 71.5724C46.8889 71.5315 48.7117 73.2501 50.9027 75.4077C53.0938 77.5653 54.8571 79.3398 54.8162 79.3807Z" fill="#E0E0E0"/>
<path d="M62.6878 121.063C62.6878 121.115 60.4558 120.922 57.7179 120.635C54.98 120.349 52.7629 120.066 52.7666 120.014C52.7703 119.962 54.9986 120.152 57.7365 120.442C60.4744 120.732 62.6953 121.007 62.6878 121.063Z" fill="#E0E0E0"/>
<path d="M62.2938 124.798C62.2938 124.85 60.0618 124.661 57.3239 124.37C54.586 124.08 52.3651 123.805 52.3726 123.753C52.38 123.701 54.6046 123.89 57.3425 124.177C60.0804 124.463 62.3013 124.746 62.2938 124.798Z" fill="#E0E0E0"/>
<path d="M35.4687 108.861C35.4687 108.861 32.5224 108.649 32.794 115.259C33.0656 121.87 33.7389 125.385 33.7389 125.385C33.7389 125.385 33.6533 126.851 32.5187 126.564C31.3841 126.278 29.2488 124.849 28.1924 125.917C27.1359 126.985 27.4893 128.718 28.9364 130.716C30.3834 132.713 33.4004 137.203 33.6756 137.609C33.9509 138.014 34.0476 138.758 33.2441 138.688C32.4406 138.617 27.0094 136.776 26.2914 139.406C25.5735 142.036 30.5285 146.92 31.0605 147.478C31.5924 148.036 31.6222 148.371 31.4064 148.702C31.1907 149.033 29.4237 148.241 27.8576 147.779C26.2914 147.318 24.3942 147.061 24.1078 148.613C23.8214 150.164 26.0013 154.702 34.1741 159.475L38.1062 161.428L41.8262 159.055C49.4782 153.475 51.1968 148.754 50.7542 147.236C50.3115 145.719 48.4515 146.169 46.9412 146.786C45.4308 147.404 43.7494 148.363 43.5039 148.055C43.2584 147.746 43.2509 147.404 43.7234 146.805C44.1958 146.206 48.6375 140.853 47.6591 138.293C46.6808 135.734 41.4616 138.126 40.6692 138.293C39.8769 138.461 39.9252 137.687 40.1336 137.263C40.3419 136.839 42.9124 132.055 44.1586 129.927C45.4048 127.799 45.6168 126.07 44.419 125.091C43.2212 124.113 41.2719 125.753 40.1856 126.151C39.0994 126.549 38.8539 125.102 38.8539 125.102C38.8539 125.102 39.1701 121.531 38.7795 114.932C38.3889 108.333 35.4092 108.861 35.4092 108.861" fill="#EBEBEB"/>
<path d="M35.6919 114.779C35.6948 114.825 35.6948 114.871 35.6919 114.917C35.6919 115.017 35.6919 115.151 35.7217 115.322C35.7477 115.694 35.7812 116.211 35.8295 116.885C35.9188 118.239 36.0341 120.203 36.1681 122.625C36.4359 127.461 36.7521 134.179 37.0757 141.597C37.3994 149.014 37.697 155.707 37.9388 160.569C38.0615 162.987 38.162 164.951 38.2327 166.312C38.2661 166.986 38.2922 167.51 38.3108 167.875C38.3108 168.046 38.3108 168.184 38.3108 168.28C38.3133 168.326 38.3133 168.372 38.3108 168.418C38.3108 168.418 38.3108 168.373 38.3108 168.28C38.3108 168.187 38.3108 168.05 38.281 167.875C38.255 167.503 38.2178 166.989 38.1731 166.316C38.0839 164.962 37.9685 162.998 37.8346 160.572C37.5631 155.736 37.2506 149.022 36.9269 141.6C36.6033 134.179 36.3057 127.494 36.0602 122.628C35.9374 120.207 35.837 118.246 35.77 116.885C35.7365 116.211 35.7105 115.687 35.6919 115.322C35.6919 115.147 35.6919 115.014 35.6919 114.917C35.6919 114.82 35.6919 114.779 35.6919 114.779Z" fill="#E0E0E0"/>
<path d="M31.1016 128.03C31.19 128.088 31.2712 128.157 31.3434 128.235C31.4959 128.372 31.7154 128.577 31.9683 128.833C32.4854 129.347 33.1848 130.076 33.9399 130.894L35.8632 133L36.4472 133.632C36.5259 133.705 36.5947 133.787 36.6518 133.878C36.563 133.82 36.4807 133.752 36.4063 133.677C36.2575 133.536 36.0343 133.331 35.785 133.071C35.2717 132.553 34.576 131.817 33.832 130.999L31.8939 128.908L31.3062 128.275C31.2268 128.204 31.158 128.121 31.1016 128.03Z" fill="#E0E0E0"/>
<path d="M37.0424 133.747C37.0127 133.718 38.4523 132.211 40.2528 130.399C42.0533 128.588 43.545 127.111 43.5748 127.141C43.6045 127.17 42.1649 128.677 40.3607 130.489C38.5565 132.3 37.0722 133.777 37.0424 133.747Z" fill="#E0E0E0"/>
<path d="M37.0273 145.142C37.1104 145.073 37.2016 145.014 37.2989 144.967L38.0689 144.535C38.7199 144.163 39.6127 143.665 40.5799 143.07C41.5471 142.475 42.4065 141.909 43.024 141.496L43.768 141.009C43.8537 140.942 43.9474 140.885 44.047 140.841C43.9736 140.921 43.8912 140.992 43.8015 141.054C43.6378 141.184 43.396 141.366 43.0947 141.585C42.4883 142.021 41.6364 142.605 40.6655 143.196C39.6946 143.788 38.8055 144.286 38.1285 144.628C37.7937 144.796 37.5258 144.93 37.3361 145.019C37.2374 145.07 37.134 145.111 37.0273 145.142Z" fill="#E0E0E0"/>
<path d="M30.5137 141.154C30.6095 141.184 30.7008 141.226 30.7852 141.28C30.9564 141.37 31.1982 141.507 31.4995 141.678C32.0947 142.017 32.9168 142.497 33.8208 143.033C34.7247 143.568 35.5357 144.063 36.1197 144.428L36.8079 144.863C36.8962 144.911 36.9775 144.971 37.0497 145.041C36.9548 145.009 36.8637 144.967 36.7782 144.915C36.6108 144.822 36.3652 144.688 36.0676 144.517C35.4687 144.178 34.6466 143.698 33.7426 143.163C32.8387 142.627 32.0277 142.132 31.4437 141.768L30.7555 141.34C30.6675 141.288 30.5863 141.226 30.5137 141.154Z" fill="#E0E0E0"/>
<path d="M29.2227 151.209C29.3414 151.255 29.4559 151.311 29.5649 151.377L30.4837 151.882C31.2538 152.314 32.314 152.92 33.4597 153.597C34.6055 154.274 35.6731 154.892 36.4357 155.349L37.3285 155.896C37.4403 155.958 37.5462 156.031 37.6447 156.112C37.5228 156.071 37.4066 156.015 37.2988 155.945L36.3837 155.442C35.6136 155.011 34.5571 154.405 33.4077 153.728C32.2582 153.051 31.1943 152.429 30.4317 151.975L29.5426 151.429C29.4272 151.369 29.3197 151.295 29.2227 151.209Z" fill="#E0E0E0"/>
<path d="M37.481 155.941C37.5851 155.85 37.7001 155.773 37.8232 155.71L38.7755 155.13C39.5828 154.635 40.695 153.955 41.9003 153.166C43.1056 152.377 44.1844 151.641 44.9619 151.101L45.8807 150.465C45.9863 150.378 46.1025 150.304 46.2267 150.246C46.1312 150.344 46.0266 150.432 45.9142 150.51C45.7059 150.677 45.4008 150.908 45.0214 151.191C44.2774 151.752 43.1949 152.508 41.9859 153.292C40.7769 154.077 39.6534 154.751 38.8313 155.219C38.4184 155.454 38.0873 155.64 37.8492 155.763C37.7314 155.832 37.6082 155.891 37.481 155.941Z" fill="#E0E0E0"/>
<path d="M43.3885 162.726H32.5112L36.0601 189.6H39.8396L43.3885 162.726Z" fill="#E0E0E0"/>
<path d="M33.0879 166.03C33.0879 166.03 33.0879 166.067 33.1437 166.123C33.2153 166.206 33.3059 166.271 33.4078 166.312C33.5976 166.377 33.7997 166.398 33.9988 166.374C34.1979 166.349 34.3888 166.28 34.5573 166.171C34.9963 165.929 35.3794 165.453 35.9672 165.241C36.6203 165.032 37.3245 165.046 37.9685 165.282C38.6223 165.506 39.2468 165.809 39.8285 166.182C40.3112 166.492 40.8146 166.768 41.3351 167.008C41.6906 167.166 42.0661 167.275 42.4511 167.332C42.5559 167.346 42.6615 167.354 42.7673 167.354C42.838 167.354 42.8752 167.354 42.8752 167.354C42.3606 167.274 41.8598 167.123 41.3872 166.904C40.8763 166.652 40.3795 166.373 39.8992 166.067C39.3099 165.677 38.6737 165.363 38.0057 165.133C37.3243 164.886 36.5792 164.878 35.8928 165.111C35.6034 165.23 35.3356 165.396 35.1004 165.602C34.9033 165.777 34.6945 165.939 34.4755 166.085C34.3233 166.191 34.1499 166.262 33.9674 166.294C33.7849 166.325 33.5977 166.316 33.419 166.268C33.2944 166.21 33.182 166.129 33.0879 166.03Z" fill="#F5F5F5"/>
<path d="M33.46 170.977C33.46 170.977 33.5455 170.866 33.7129 170.691C33.9605 170.446 34.2572 170.257 34.5834 170.136C35.0681 169.961 35.5827 169.884 36.0974 169.909C36.732 169.959 37.363 170.046 37.9872 170.17C38.6257 170.293 39.279 170.319 39.9253 170.248C40.4528 170.181 40.967 170.034 41.4505 169.813C41.7821 169.667 42.0964 169.485 42.388 169.27C42.4974 169.197 42.5952 169.108 42.6781 169.006C42.2756 169.265 41.8555 169.496 41.4208 169.697C40.9444 169.89 40.4436 170.015 39.9328 170.069C39.3017 170.131 38.665 170.1 38.043 169.976C37.4107 169.851 36.7706 169.769 36.1272 169.731C35.5918 169.714 35.0585 169.807 34.5611 170.006C34.2249 170.14 33.9261 170.353 33.6906 170.627C33.628 170.703 33.572 170.784 33.5232 170.869C33.4823 170.944 33.46 170.973 33.46 170.977Z" fill="#F5F5F5"/>
<path d="M42.1571 173.626C42.0666 173.557 41.9645 173.506 41.8557 173.473C41.5671 173.364 41.2636 173.299 40.9555 173.28C40.5002 173.25 40.0428 173.276 39.594 173.358C39.0843 173.44 38.5412 173.577 37.9721 173.7C37.4405 173.825 36.8961 173.886 36.3501 173.883C35.9075 173.87 35.4709 173.776 35.063 173.604C34.69 173.426 34.3581 173.172 34.0884 172.86C34.131 172.965 34.1943 173.061 34.2744 173.142C34.4811 173.378 34.7345 173.568 35.0184 173.7C35.4358 173.898 35.8887 174.009 36.3501 174.028C36.9094 174.042 37.4683 173.984 38.013 173.856C38.5933 173.734 39.129 173.589 39.6275 173.484C40.0646 173.397 40.5099 173.359 40.9555 173.369C41.3648 173.406 41.7682 173.493 42.1571 173.626Z" fill="#F5F5F5"/>
<path d="M34.4346 177.353C34.7677 177.211 35.1365 177.174 35.491 177.249C35.8774 177.342 36.2519 177.48 36.607 177.658C37.0566 177.876 37.5418 178.011 38.0392 178.056C38.949 178.134 39.8601 177.923 40.6432 177.454C40.8697 177.31 41.0804 177.143 41.2719 176.955C41.4021 176.814 41.4728 176.732 41.4616 176.725C41.1738 176.948 40.8733 177.154 40.5614 177.342C39.7923 177.766 38.9145 177.953 38.0392 177.878C37.0088 177.818 36.2164 177.204 35.5022 177.134C35.2276 177.087 34.9454 177.112 34.6838 177.208C34.5052 177.268 34.4271 177.349 34.4346 177.353Z" fill="#F5F5F5"/>
<path d="M35.041 182.513C35.3534 182.521 35.6635 182.458 35.9487 182.331C36.4956 182.148 37.1689 181.732 37.9612 181.416C38.3297 181.268 38.7213 181.186 39.1182 181.174C39.439 181.174 39.7556 181.246 40.0444 181.386C40.3092 181.527 40.5392 181.725 40.7178 181.966C40.7031 181.882 40.6673 181.802 40.6136 181.736C40.4821 181.544 40.3075 181.386 40.104 181.274C39.8017 181.107 39.4633 181.017 39.1182 181.01C38.6996 181.011 38.2853 181.093 37.898 181.252C37.0796 181.576 36.41 181.996 35.9004 182.215C35.3907 182.435 35.0373 182.483 35.041 182.513Z" fill="#F5F5F5"/>
<path d="M35.5728 184.912C35.7908 185.018 36.0224 185.093 36.261 185.136C36.8276 185.273 37.4031 185.37 37.9833 185.426C38.563 185.483 39.1459 185.5 39.728 185.478C39.9713 185.482 40.2142 185.454 40.4497 185.392C40.4497 185.336 39.3337 185.392 38.0019 185.251C36.6702 185.11 35.5876 184.864 35.5728 184.912Z" fill="#F5F5F5"/>
<path d="M69.6777 76.892C69.6777 76.892 70.6896 70.8247 70.9314 70.3634C71.1732 69.9021 73.9669 67.0675 74.298 67.0154C74.6291 66.9633 79.0373 65.572 78.7917 66.2714C78.5462 66.9708 75.4437 67.8859 75.4437 67.8859L75.1499 68.2579C75.1499 68.2579 77.7948 67.3948 78.4495 67.4172C79.1042 67.4395 79.1637 68.0682 78.6913 68.2467C78.2189 68.4253 75.8901 69.106 75.8009 69.2548C75.7116 69.4036 78.4049 68.6336 78.7322 68.6485C79.1861 68.6671 79.5134 69.24 79.0521 69.4371C78.7769 69.5487 76.1877 70.1439 76.1877 70.1439C76.9861 70.039 77.7896 69.9769 78.5946 69.9579C78.9926 70.0658 78.9666 70.5494 78.5202 70.6647C78.2189 70.7428 76.6379 70.8135 76.2361 70.9214C76.2361 70.9214 75.9348 71.1744 75.9459 71.9779C75.9571 72.7814 74.9155 74.913 74.9155 74.913L69.6777 76.892Z" fill="#FFBE9D"/>
<path d="M78.7879 66.2528C78.6105 66.4801 78.3907 66.6709 78.1406 66.8145C77.8796 66.9904 77.6032 67.1423 77.3148 67.2684C76.9874 67.3911 76.6229 67.5176 76.2434 67.6404L75.4288 67.9156L75.4734 67.8896C75.0085 68.3933 74.5048 68.8598 73.9668 69.2846C74.3804 68.7417 74.8356 68.2317 75.3283 67.7594V67.7408H75.3544L76.1579 67.4581L77.2255 67.0861C77.5074 66.9716 77.7809 66.8373 78.0439 66.6843C78.5126 66.4351 78.7693 66.2268 78.7879 66.2528Z" fill="#EB996E"/>
<path d="M137.523 143.525L77.4746 137.338C76.5945 137.244 75.7873 136.806 75.2296 136.119C74.6719 135.431 74.4091 134.551 74.4986 133.67L84.8886 32.717C85.0191 31.4652 85.6406 30.3163 86.6168 29.522C87.5931 28.7277 88.8445 28.353 90.0966 28.4799L147.355 34.3761C148.607 34.5066 149.756 35.1281 150.55 36.1043C151.344 37.0806 151.719 38.332 151.592 39.5841L141.176 140.537C141.085 141.417 140.649 142.224 139.965 142.784C139.281 143.344 138.403 143.61 137.523 143.525Z" fill="#FFC100"/>
<path opacity="0.4" d="M137.523 143.525L77.4746 137.338C76.5945 137.244 75.7873 136.806 75.2296 136.119C74.6719 135.431 74.4091 134.551 74.4986 133.67L84.8886 32.717C85.0191 31.4652 85.6406 30.3163 86.6168 29.522C87.5931 28.7277 88.8445 28.353 90.0966 28.4799L147.355 34.3761C148.607 34.5066 149.756 35.1281 150.55 36.1043C151.344 37.0806 151.719 38.332 151.592 39.5841L141.176 140.537C141.085 141.417 140.649 142.224 139.965 142.784C139.281 143.344 138.403 143.61 137.523 143.525Z" fill="black"/>
<path d="M131.463 142.9L71.4037 136.717C70.5228 136.623 69.715 136.184 69.1572 135.496C68.5994 134.808 68.3371 133.927 68.4277 133.045L78.8437 32.092C78.9074 31.4718 79.0926 30.8702 79.3888 30.3216C79.685 29.773 80.0864 29.2881 80.57 28.8947C81.0536 28.5012 81.61 28.2069 82.2074 28.0285C82.8048 27.8501 83.4315 27.7911 84.0517 27.855L141.295 33.74C141.915 33.8037 142.517 33.9889 143.065 34.2851C143.614 34.5813 144.099 34.9827 144.492 35.4663C144.886 35.9499 145.18 36.5063 145.359 37.1037C145.537 37.7011 145.596 38.3278 145.532 38.948L135.116 139.905C135.027 140.786 134.592 141.595 133.908 142.156C133.223 142.718 132.344 142.985 131.463 142.9Z" fill="#FFC100"/>
<path d="M100.933 115.421L80.2251 113.288C79.7305 113.237 79.2883 113.597 79.2374 114.092L78.3982 122.24C78.3473 122.734 78.7069 123.177 79.2015 123.228L99.9091 125.36C100.404 125.411 100.846 125.052 100.897 124.557L101.736 116.409C101.787 115.914 101.427 115.472 100.933 115.421Z" fill="#FFC100"/>
<g opacity="0.4">
<path d="M100.933 115.421L80.2251 113.288C79.7305 113.237 79.2883 113.597 79.2374 114.092L78.3982 122.24C78.3473 122.735 78.7069 123.177 79.2015 123.228L99.9091 125.36C100.404 125.411 100.846 125.052 100.897 124.557L101.736 116.409C101.787 115.914 101.427 115.472 100.933 115.421Z" fill="black"/>
</g>
<path d="M83.0117 39.1411L80.708 61.5102L137.732 67.3829L140.035 45.0138L83.0117 39.1411Z" fill="#FAFAFA"/>
<path d="M137.735 67.3837C137.735 67.3837 137.735 67.246 137.769 66.9856C137.802 66.7252 137.832 66.3346 137.88 65.8287C137.981 64.8094 138.129 63.314 138.323 61.3833C138.695 57.5257 139.272 51.9419 139.971 45.0153L140.03 45.0897L83.0065 39.2381L83.1144 39.1526C82.3072 46.9646 81.526 54.5348 80.8043 61.521L80.7224 61.4168L121.587 65.6725L133.453 66.9187L136.634 67.2609L137.456 67.3502L137.739 67.3837C137.739 67.3837 137.646 67.3837 137.464 67.3614L136.653 67.2832L133.491 66.9708L121.624 65.7766L80.7038 61.6028H80.6108V61.5135C81.3288 54.5236 82.0988 46.9646 82.9098 39.1414V39.0447H83.0065L140.045 44.9483H140.112V45.0153C139.368 51.9605 138.792 57.5591 138.386 61.4242C138.182 63.3437 138.014 64.8355 137.914 65.8473C137.858 66.3495 137.817 66.7327 137.787 66.9931L137.735 67.3837Z" fill="#263238"/>
<path d="M91.8998 71.6727L83.7477 70.8331C83.3226 70.7893 82.9425 71.0984 82.8988 71.5235L82.0592 79.6756C82.0154 80.1006 82.3245 80.4807 82.7496 80.5245L90.9017 81.3641C91.3268 81.4079 91.7068 81.0987 91.7506 80.6737L92.5902 72.5216C92.634 72.0965 92.3248 71.7164 91.8998 71.6727Z" fill="#FFC100"/>
<g opacity="0.4">
<path d="M91.8998 71.6727L83.7477 70.8331C83.3226 70.7893 82.9425 71.0984 82.8988 71.5235L82.0592 79.6756C82.0154 80.1006 82.3245 80.4807 82.7496 80.5245L90.9017 81.3641C91.3268 81.4079 91.7068 81.0987 91.7506 80.6737L92.5902 72.5216C92.634 72.0965 92.3248 71.7164 91.8998 71.6727Z" fill="black"/>
</g>
<path d="M90.4056 71.5202L82.2536 70.6807C81.8285 70.6369 81.4484 70.946 81.4046 71.3711L80.5651 79.5232C80.5213 79.9482 80.8304 80.3283 81.2555 80.3721L89.4075 81.2117C89.8326 81.2554 90.2127 80.9463 90.2565 80.5212L91.096 72.3692C91.1398 71.9441 90.8307 71.564 90.4056 71.5202Z" fill="#263238"/>
<path d="M86.7229 73.9569L86.31 78.008L85.3725 77.9113L85.7111 74.6228L84.9038 74.5372L84.9819 73.7932L86.7229 73.9569Z" fill="white"/>
<path d="M105.416 73.0684L97.2643 72.2289C96.8392 72.1851 96.4591 72.4942 96.4154 72.9193L95.5758 81.0713C95.532 81.4964 95.8411 81.8765 96.2662 81.9203L104.418 82.7599C104.843 82.8036 105.223 82.4945 105.267 82.0694L106.107 73.9174C106.151 73.4923 105.841 73.1122 105.416 73.0684Z" fill="#FFC100"/>
<g opacity="0.4">
<path d="M105.416 73.0684L97.2638 72.2289C96.8387 72.1851 96.4587 72.4942 96.4149 72.9193L95.5753 81.0713C95.5315 81.4964 95.8407 81.8765 96.2657 81.9203L104.418 82.7599C104.843 82.8036 105.223 82.4945 105.267 82.0694L106.106 73.9174C106.15 73.4923 105.841 73.1122 105.416 73.0684Z" fill="black"/>
</g>
<path d="M103.918 72.9123L95.7663 72.0728C95.3412 72.029 94.9611 72.3381 94.9173 72.7632L94.0778 80.9152C94.034 81.3403 94.3431 81.7204 94.7682 81.7642L102.92 82.6038C103.345 82.6475 103.725 82.3384 103.769 81.9133L104.609 73.7613C104.653 73.3362 104.343 72.9561 103.918 72.9123Z" fill="#263238"/>
<path d="M101.361 78.778L101.283 79.522L98.2324 79.2096L98.2957 78.6032L100.003 77.29C100.397 76.9887 100.483 76.7878 100.502 76.5907C100.535 76.2745 100.334 76.0662 99.9064 76.0215C99.7451 75.9987 99.5806 76.016 99.4275 76.0718C99.2744 76.1276 99.1374 76.2202 99.0285 76.3414L98.3924 75.8318C98.6025 75.603 98.8661 75.4299 99.1595 75.328C99.453 75.2261 99.7671 75.1985 100.074 75.2478C100.974 75.3408 101.528 75.8616 101.45 76.5944C101.413 76.9887 101.264 77.3384 100.647 77.7997L99.6274 78.5809L101.361 78.778Z" fill="white"/>
<path d="M119.427 74.5113L111.275 73.6718C110.85 73.628 110.47 73.9371 110.426 74.3622L109.587 82.5142C109.543 82.9393 109.852 83.3194 110.277 83.3632L118.429 84.2027C118.854 84.2465 119.234 83.9374 119.278 83.5123L120.118 75.3603C120.161 74.9352 119.852 74.5551 119.427 74.5113Z" fill="#FFC100"/>
<g opacity="0.4">
<path d="M119.427 74.5113L111.275 73.6718C110.85 73.628 110.47 73.9371 110.426 74.3622L109.587 82.5142C109.543 82.9393 109.852 83.3194 110.277 83.3632L118.429 84.2027C118.854 84.2465 119.234 83.9374 119.278 83.5123L120.118 75.3603C120.161 74.9352 119.852 74.5551 119.427 74.5113Z" fill="black"/>
</g>
<path d="M117.933 74.3552L109.781 73.5157C109.356 73.4719 108.976 73.781 108.932 74.2061L108.093 82.3581C108.049 82.7832 108.358 83.1633 108.783 83.2071L116.935 84.0466C117.36 84.0904 117.741 83.7813 117.784 83.3562L118.624 75.2042C118.668 74.7791 118.359 74.399 117.933 74.3552Z" fill="#263238"/>
<path d="M115.389 79.7415C115.318 80.4223 114.731 80.9914 113.581 80.8761C113.038 80.8273 112.521 80.6218 112.093 80.2846L112.528 79.6039C112.84 79.8787 113.231 80.0479 113.644 80.0875C114.113 80.1358 114.422 79.9759 114.455 79.6448C114.489 79.3137 114.281 79.1277 113.752 79.0719L113.325 79.0273L113.388 78.4098L114.314 77.5542L112.595 77.3793L112.674 76.6353L115.501 76.9255L115.438 77.5318L114.418 78.4767C114.712 78.5219 114.977 78.6787 115.158 78.9143C115.338 79.1499 115.421 79.4462 115.389 79.7415Z" fill="white"/>
<path d="M133.442 75.9542L125.29 75.1146C124.865 75.0709 124.485 75.38 124.441 75.8051L123.602 83.9571C123.558 84.3822 123.867 84.7623 124.292 84.8061L132.444 85.6456C132.869 85.6894 133.249 85.3803 133.293 84.9552L134.133 76.8032C134.176 76.3781 133.867 75.998 133.442 75.9542Z" fill="#FFC100"/>
<g opacity="0.4">
<path d="M133.442 75.9542L125.29 75.1146C124.865 75.0709 124.485 75.38 124.441 75.8051L123.602 83.9571C123.558 84.3822 123.867 84.7623 124.292 84.8061L132.444 85.6456C132.869 85.6894 133.249 85.3803 133.293 84.9552L134.133 76.8032C134.176 76.3781 133.867 75.998 133.442 75.9542Z" fill="black"/>
</g>
<path d="M131.978 75.7974L123.826 74.9579C123.401 74.9141 123.021 75.2232 122.977 75.6483L122.137 83.8003C122.094 84.2254 122.403 84.6055 122.828 84.6493L130.98 85.4888C131.405 85.5326 131.785 85.2235 131.829 84.7984L132.668 76.6464C132.712 76.2213 132.403 75.8412 131.978 75.7974Z" fill="#263238"/>
<path d="M125.208 79.6557L125.169 80.0258L129.499 80.4716L129.537 80.1016L125.208 79.6557Z" fill="white"/>
<path d="M128.257 78.2535C128.243 78.3926 128.188 78.5245 128.099 78.6324C128.01 78.7403 127.891 78.8194 127.757 78.8598C127.624 78.9001 127.481 78.8998 127.347 78.859C127.213 78.8181 127.095 78.7385 127.006 78.6303C126.918 78.522 126.863 78.39 126.85 78.2508C126.837 78.1117 126.865 77.9716 126.931 77.8485C126.997 77.7253 127.098 77.6246 127.222 77.5589C127.345 77.4933 127.485 77.4657 127.624 77.4798C127.811 77.4985 127.982 77.5906 128.101 77.7357C128.219 77.8808 128.275 78.0671 128.257 78.2535Z" fill="white"/>
<path d="M127.866 82.0293C127.852 82.1686 127.797 82.3005 127.708 82.4084C127.619 82.5163 127.5 82.5954 127.366 82.6355C127.232 82.6757 127.089 82.6751 126.955 82.6339C126.821 82.5927 126.703 82.5127 126.614 82.4041C126.526 82.2955 126.472 82.1631 126.459 82.0238C126.446 81.8844 126.475 81.7444 126.542 81.6214C126.608 81.4984 126.71 81.3979 126.834 81.3328C126.958 81.2677 127.098 81.2408 127.237 81.2556C127.423 81.2753 127.594 81.3677 127.711 81.5127C127.829 81.6577 127.885 81.8434 127.866 82.0293Z" fill="white"/>
<path d="M90.4378 85.8743L82.2858 85.0348C81.8607 84.991 81.4806 85.3001 81.4368 85.7252L80.5973 93.8772C80.5535 94.3023 80.8626 94.6824 81.2877 94.7262L89.4398 95.5658C89.8648 95.6095 90.2449 95.3004 90.2887 94.8753L91.1283 86.7233C91.172 86.2982 90.8629 85.9181 90.4378 85.8743Z" fill="#FFC100"/>
<g opacity="0.4">
<path d="M90.4378 85.8743L82.2858 85.0348C81.8607 84.991 81.4806 85.3001 81.4368 85.7252L80.5973 93.8772C80.5535 94.3023 80.8626 94.6824 81.2877 94.7262L89.4398 95.5658C89.8648 95.6095 90.2449 95.3004 90.2887 94.8753L91.1283 86.7233C91.172 86.2982 90.8629 85.9181 90.4378 85.8743Z" fill="black"/>
</g>
<path d="M88.9437 85.7219L80.7917 84.8824C80.3666 84.8386 79.9865 85.1477 79.9427 85.5728L79.1031 93.7248C79.0594 94.1499 79.3685 94.53 79.7936 94.5738L87.9456 95.4133C88.3707 95.4571 88.7508 95.148 88.7946 94.7229L89.6341 86.5709C89.6779 86.1458 89.3688 85.7657 88.9437 85.7219Z" fill="#263238"/>
<path d="M86.1127 91.467L85.4543 91.4L85.365 92.2482L84.4536 92.1552L84.5429 91.307L82.3667 91.0801L82.4299 90.4514L84.5987 88.0855L85.5808 88.1896L83.5645 90.4216L84.6508 90.5332L84.7289 89.7892L85.6105 89.8785L85.5324 90.6225L86.1909 90.6895L86.1127 91.467Z" fill="white"/>
<path d="M103.954 87.2664L95.8024 86.4268C95.3773 86.3831 94.9972 86.6922 94.9534 87.1173L94.1139 95.2693C94.0701 95.6944 94.3792 96.0745 94.8043 96.1183L102.956 96.9578C103.381 97.0016 103.762 96.6925 103.805 96.2674L104.645 88.1154C104.689 87.6903 104.38 87.3102 103.954 87.2664Z" fill="#FFC100"/>
<g opacity="0.4">
<path d="M103.954 87.2664L95.8024 86.4268C95.3773 86.3831 94.9972 86.6922 94.9534 87.1173L94.1139 95.2693C94.0701 95.6944 94.3792 96.0745 94.8043 96.1183L102.956 96.9578C103.381 97.0016 103.762 96.6925 103.805 96.2674L104.645 88.1154C104.689 87.6903 104.38 87.3102 103.954 87.2664Z" fill="black"/>
</g>
<path d="M102.46 87.1103L94.3083 86.2708C93.8832 86.227 93.5031 86.5361 93.4593 86.9612L92.6198 95.1132C92.576 95.5383 92.8851 95.9184 93.3102 95.9622L101.462 96.8017C101.887 96.8455 102.267 96.5364 102.311 96.1113L103.151 87.9593C103.195 87.5342 102.885 87.1541 102.46 87.1103Z" fill="#263238"/>
<path d="M99.5045 92.423C99.4338 93.1372 98.8424 93.7064 97.6892 93.5874C97.1465 93.5379 96.6297 93.3325 96.2012 92.9959L96.6439 92.3188C96.9551 92.5938 97.3462 92.762 97.7599 92.7987C98.2286 92.8471 98.5373 92.6834 98.5708 92.3523C98.6043 92.0212 98.4183 91.8055 97.6854 91.7311L96.6513 91.6232L97.094 89.3912L99.5566 89.6442L99.4822 90.3882L97.797 90.2133L97.652 90.9759L97.983 91.0094C99.1623 91.121 99.5789 91.705 99.5045 92.423Z" fill="white"/>
<path d="M117.969 88.7093L109.817 87.8697C109.392 87.8259 109.012 88.135 108.968 88.5601L108.129 96.7122C108.085 97.1373 108.394 97.5173 108.819 97.5611L116.971 98.4007C117.396 98.4445 117.776 98.1353 117.82 97.7103L118.66 89.5582C118.703 89.1331 118.394 88.753 117.969 88.7093Z" fill="#FFC100"/>
<g opacity="0.4">
<path d="M117.969 88.7093L109.817 87.8697C109.392 87.8259 109.012 88.135 108.968 88.5601L108.129 96.7122C108.085 97.1373 108.394 97.5173 108.819 97.5611L116.971 98.4007C117.396 98.4445 117.776 98.1353 117.82 97.7103L118.66 89.5582C118.703 89.1331 118.394 88.753 117.969 88.7093Z" fill="black"/>
</g>
<path d="M116.472 88.5532L108.319 87.7136C107.894 87.6698 107.514 87.9789 107.471 88.404L106.631 96.5561C106.587 96.9812 106.896 97.3612 107.321 97.405L115.473 98.2446C115.899 98.2884 116.279 97.9792 116.322 97.5542L117.162 89.4021C117.206 88.977 116.897 88.5969 116.472 88.5532Z" fill="#263238"/>
<path d="M113.812 93.8887C113.726 94.7145 112.997 95.1646 112.145 95.0754C111.029 94.96 110.412 94.19 110.545 92.888C110.691 91.4893 111.613 90.7974 112.83 90.9238C113.224 90.9539 113.603 91.0902 113.927 91.3181L113.51 91.9691C113.296 91.8025 113.037 91.704 112.766 91.6864C112.089 91.6195 111.617 91.9729 111.509 92.7429C111.656 92.6337 111.823 92.5548 112 92.5107C112.178 92.4667 112.362 92.4583 112.543 92.4862C112.721 92.4881 112.896 92.5267 113.058 92.5996C113.22 92.6725 113.365 92.7781 113.484 92.9099C113.603 93.0416 113.694 93.1966 113.75 93.365C113.807 93.5335 113.828 93.7118 113.812 93.8887ZM112.9 93.8403C112.91 93.7538 112.901 93.6662 112.874 93.5835C112.847 93.5008 112.802 93.4248 112.743 93.3607C112.684 93.2966 112.613 93.2458 112.533 93.2117C112.452 93.1777 112.366 93.1612 112.279 93.1633C112.193 93.1451 112.105 93.1447 112.019 93.1622C111.934 93.1797 111.852 93.2147 111.781 93.2649C111.709 93.3152 111.649 93.3797 111.603 93.4544C111.558 93.529 111.528 93.6123 111.516 93.6989C111.479 94.0449 111.714 94.3239 112.164 94.3723C112.247 94.3894 112.332 94.3888 112.415 94.3708C112.498 94.3527 112.576 94.3174 112.644 94.2673C112.713 94.2172 112.77 94.1533 112.812 94.0797C112.854 94.0062 112.88 93.9246 112.889 93.8403H112.9Z" fill="white"/>
<path d="M131.976 90.1518L123.824 89.3122C123.399 89.2684 123.019 89.5775 122.975 90.0026L122.136 98.1547C122.092 98.5798 122.401 98.9598 122.826 99.0036L130.978 99.8432C131.403 99.887 131.784 99.5779 131.827 99.1528L132.667 91.0007C132.711 90.5756 132.402 90.1955 131.976 90.1518Z" fill="#FFC100"/>
<g opacity="0.4">
<path d="M131.976 90.1518L123.824 89.3122C123.399 89.2684 123.019 89.5775 122.975 90.0026L122.136 98.1547C122.092 98.5798 122.401 98.9598 122.826 99.0036L130.978 99.8432C131.403 99.887 131.784 99.5779 131.827 99.1528L132.667 91.0007C132.711 90.5756 132.402 90.1955 131.976 90.1518Z" fill="black"/>
</g>
<path d="M130.483 89.9957L122.331 89.1561C121.906 89.1123 121.526 89.4214 121.482 89.8465L120.642 97.9986C120.598 98.4237 120.908 98.8038 121.333 98.8475L129.485 99.6871C129.91 99.7309 130.29 99.4218 130.334 98.9967L131.173 90.8446C131.217 90.4195 130.908 90.0394 130.483 89.9957Z" fill="#263238"/>
<path d="M127.498 92.931L124.08 95.6261L124.31 95.9182L127.728 93.2231L127.498 92.931Z" fill="white"/>
<path d="M124.679 92.6342L124.391 92.8689L127.137 96.2456L127.425 96.0109L124.679 92.6342Z" fill="white"/>
<path d="M88.9876 99.9587L80.8356 99.1192C80.4105 99.0754 80.0304 99.3845 79.9866 99.8096L79.1471 107.962C79.1033 108.387 79.4124 108.767 79.8375 108.811L87.9896 109.65C88.4146 109.694 88.7947 109.385 88.8385 108.96L89.6781 100.808C89.7219 100.383 89.4127 100.003 88.9876 99.9587Z" fill="#FFC100"/>
<g opacity="0.4">
<path d="M88.9876 99.9587L80.8356 99.1192C80.4105 99.0754 80.0304 99.3845 79.9866 99.8096L79.1471 107.962C79.1033 108.387 79.4124 108.767 79.8375 108.811L87.9896 109.65C88.4146 109.694 88.7947 109.385 88.8385 108.96L89.6781 100.808C89.7219 100.383 89.4127 100.003 88.9876 99.9587Z" fill="black"/>
</g>
<path d="M87.4935 99.8063L79.3415 98.9668C78.9164 98.923 78.5363 99.2321 78.4925 99.6572L77.653 107.809C77.6092 108.234 77.9183 108.614 78.3434 108.658L86.4954 109.498C86.9205 109.542 87.3006 109.232 87.3444 108.807L88.1839 100.655C88.2277 100.23 87.9186 99.8501 87.4935 99.8063Z" fill="#263238"/>
<path d="M84.4537 102.303L84.3904 102.91L82.5304 106.191L81.5149 106.083L83.3005 102.954L81.9613 102.817L81.8943 103.475L81.061 103.39L81.2098 101.972L84.4537 102.303Z" fill="white"/>
<path d="M102.504 101.351L94.3522 100.511C93.9271 100.467 93.547 100.777 93.5033 101.202L92.6637 109.354C92.6199 109.779 92.929 110.159 93.3541 110.203L101.506 111.042C101.931 111.086 102.311 110.777 102.355 110.352L103.195 102.2C103.238 101.775 102.929 101.395 102.504 101.351Z" fill="#FFC100"/>
<g opacity="0.4">
<path d="M102.504 101.351L94.3522 100.511C93.9271 100.467 93.547 100.777 93.5033 101.202L92.6637 109.354C92.6199 109.779 92.929 110.159 93.3541 110.203L101.506 111.042C101.931 111.086 102.311 110.777 102.355 110.352L103.195 102.2C103.238 101.775 102.929 101.395 102.504 101.351Z" fill="black"/>
</g>
<path d="M101.007 101.195L92.8547 100.355C92.4296 100.311 92.0495 100.62 92.0057 101.046L91.1661 109.198C91.1224 109.623 91.4315 110.003 91.8566 110.047L100.009 110.886C100.434 110.93 100.814 110.621 100.858 110.196L101.697 102.044C101.741 101.619 101.432 101.238 101.007 101.195Z" fill="#263238"/>
<path d="M98.3738 106.652C98.2957 107.396 97.5665 107.824 96.5398 107.716C95.5131 107.608 94.8919 107.061 94.97 106.302C94.9875 106.101 95.0643 105.909 95.1908 105.75C95.3172 105.592 95.4876 105.475 95.6805 105.413C95.5453 105.313 95.4395 105.178 95.3741 105.023C95.3087 104.868 95.286 104.698 95.3085 104.532C95.3829 103.821 96.0525 103.445 96.9788 103.538C97.9051 103.631 98.4965 104.145 98.4259 104.855C98.4108 105.024 98.3507 105.185 98.2519 105.323C98.1531 105.46 98.0192 105.568 97.8641 105.636C98.0396 105.737 98.1816 105.887 98.2722 106.067C98.3629 106.248 98.3982 106.451 98.3738 106.652ZM97.4289 106.526C97.4661 106.154 97.1945 105.919 96.7295 105.871C96.2645 105.822 95.9558 106.012 95.9186 106.369C95.8814 106.726 96.1455 106.983 96.6105 107.031C97.0755 107.08 97.3954 106.868 97.4438 106.511L97.4289 106.526ZM96.2236 104.666C96.1901 104.971 96.4133 105.186 96.7928 105.227C97.1722 105.268 97.4475 105.101 97.481 104.796C97.5145 104.491 97.2801 104.26 96.8969 104.223C96.5138 104.186 96.2534 104.338 96.2236 104.654V104.666Z" fill="white"/>
<path d="M116.515 102.794L108.363 101.954C107.938 101.91 107.558 102.219 107.514 102.645L106.675 110.797C106.631 111.222 106.94 111.602 107.365 111.646L115.517 112.485C115.942 112.529 116.323 112.22 116.366 111.795L117.206 103.643C117.25 103.218 116.941 102.837 116.515 102.794Z" fill="#FFC100"/>
<g opacity="0.4">
<path d="M116.515 102.794L108.363 101.954C107.938 101.91 107.558 102.219 107.514 102.645L106.675 110.797C106.631 111.222 106.94 111.602 107.365 111.646L115.517 112.485C115.942 112.529 116.323 112.22 116.366 111.795L117.206 103.643C117.25 103.218 116.941 102.837 116.515 102.794Z" fill="black"/>
</g>
<path d="M114.749 101.986L106.636 101.166C106.213 101.123 105.835 101.432 105.792 101.855L104.973 109.968C104.93 110.391 105.238 110.769 105.661 110.811L113.775 111.631C114.198 111.674 114.575 111.365 114.618 110.942L115.438 102.829C115.48 102.406 115.172 102.028 114.749 101.986Z" fill="#263238"/>
<path d="M112.324 107.128C112.179 108.527 111.264 109.219 110.04 109.092C109.648 109.063 109.271 108.928 108.95 108.702L109.366 108.051C109.58 108.218 109.84 108.315 110.11 108.33C110.78 108.397 111.26 108.043 111.368 107.27C111.22 107.38 111.052 107.459 110.873 107.504C110.694 107.549 110.508 107.557 110.326 107.53C110.149 107.527 109.975 107.487 109.814 107.413C109.653 107.34 109.509 107.234 109.391 107.102C109.273 106.971 109.183 106.817 109.127 106.649C109.071 106.481 109.05 106.304 109.065 106.127C109.151 105.302 109.88 104.852 110.735 104.941C111.848 105.056 112.461 105.826 112.324 107.128ZM111.353 106.317C111.386 105.971 111.152 105.692 110.709 105.644C110.626 105.628 110.539 105.629 110.456 105.648C110.373 105.667 110.295 105.704 110.227 105.755C110.159 105.806 110.102 105.871 110.061 105.945C110.019 106.02 109.994 106.102 109.986 106.187C109.978 106.272 109.988 106.357 110.015 106.438C110.042 106.519 110.086 106.593 110.144 106.656C110.202 106.718 110.272 106.768 110.35 106.802C110.428 106.836 110.512 106.854 110.598 106.853C110.683 106.871 110.771 106.871 110.857 106.854C110.942 106.836 111.023 106.801 111.094 106.751C111.166 106.701 111.226 106.636 111.271 106.562C111.316 106.487 111.345 106.404 111.357 106.317H111.353Z" fill="white"/>
<path d="M130.527 104.236L122.375 103.397C121.95 103.353 121.569 103.662 121.526 104.087L120.686 112.239C120.642 112.664 120.951 113.044 121.377 113.088L129.529 113.928C129.954 113.971 130.334 113.662 130.378 113.237L131.217 105.085C131.261 104.66 130.952 104.28 130.527 104.236Z" fill="#FFC100"/>
<g opacity="0.4">
<path d="M130.526 104.236L122.374 103.397C121.949 103.353 121.569 103.662 121.525 104.087L120.686 112.239C120.642 112.664 120.951 113.044 121.376 113.088L129.528 113.928C129.953 113.971 130.333 113.662 130.377 113.237L131.217 105.085C131.26 104.66 130.951 104.28 130.526 104.236Z" fill="black"/>
</g>
<path d="M129.033 104.08L120.881 103.24C120.455 103.197 120.075 103.506 120.032 103.931L119.192 112.083C119.148 112.508 119.457 112.888 119.882 112.932L128.034 113.771C128.46 113.815 128.84 113.506 128.883 113.081L129.723 104.929C129.767 104.504 129.458 104.124 129.033 104.08Z" fill="#263238"/>
<path d="M122.313 108.107L122.274 108.477L126.604 108.923L126.642 108.553L122.313 108.107Z" fill="white"/>
<path d="M115.053 117.002L106.901 116.163C106.475 116.119 106.095 116.428 106.052 116.853L105.212 125.005C105.168 125.43 105.477 125.81 105.902 125.854L114.055 126.694C114.48 126.738 114.86 126.428 114.903 126.003L115.743 117.851C115.787 117.426 115.478 117.046 115.053 117.002Z" fill="#FFC100"/>
<g opacity="0.4">
<path d="M115.053 117.002L106.901 116.163C106.475 116.119 106.095 116.428 106.052 116.853L105.212 125.005C105.168 125.43 105.477 125.81 105.902 125.854L114.055 126.694C114.48 126.738 114.86 126.428 114.903 126.003L115.743 117.851C115.787 117.426 115.478 117.046 115.053 117.002Z" fill="black"/>
</g>
<path d="M113.555 116.846L105.403 116.007C104.978 115.963 104.598 116.272 104.554 116.697L103.714 124.849C103.671 125.274 103.98 125.654 104.405 125.698L112.557 126.538C112.982 126.581 113.362 126.272 113.406 125.847L114.245 117.695C114.289 117.27 113.98 116.89 113.555 116.846Z" fill="#263238"/>
<path d="M129.064 118.445L120.912 117.606C120.487 117.562 120.107 117.871 120.063 118.296L119.223 126.448C119.179 126.873 119.489 127.253 119.914 127.297L128.066 128.137C128.491 128.18 128.871 127.871 128.915 127.446L129.754 119.294C129.798 118.869 129.489 118.489 129.064 118.445Z" fill="#FFC100"/>
<g opacity="0.4">
<path d="M129.064 118.445L120.912 117.606C120.487 117.562 120.107 117.871 120.063 118.296L119.223 126.448C119.179 126.873 119.489 127.253 119.914 127.297L128.066 128.137C128.491 128.18 128.871 127.871 128.915 127.446L129.754 119.294C129.798 118.869 129.489 118.489 129.064 118.445Z" fill="black"/>
</g>
<path d="M127.57 118.289L119.418 117.45C118.993 117.406 118.613 117.715 118.569 118.14L117.73 126.292C117.686 126.717 117.995 127.097 118.42 127.141L126.572 127.981C126.997 128.024 127.377 127.715 127.421 127.29L128.261 119.138C128.304 118.713 127.995 118.333 127.57 118.289Z" fill="#455A64"/>
<path d="M120.906 121.787L120.868 122.157L125.197 122.603L125.235 122.233L120.906 121.787Z" fill="white"/>
<path d="M120.738 123.432L120.7 123.802L125.03 124.248L125.068 123.878L120.738 123.432Z" fill="white"/>
<path d="M99.084 115.229L77.5364 113.01C77.0255 112.958 76.5687 113.329 76.5161 113.84L75.683 121.929C75.6304 122.44 76.0019 122.897 76.5128 122.95L98.0604 125.169C98.5713 125.221 99.0282 124.85 99.0808 124.339L99.9139 116.25C99.9665 115.739 99.5949 115.282 99.084 115.229Z" fill="#263238"/>
<path d="M86.9234 118.809C87.0611 117.473 87.8795 116.796 88.8727 116.897C89.866 116.997 90.5244 117.831 90.3867 119.166C90.2491 120.502 89.4381 121.179 88.4412 121.074C87.4442 120.97 86.7858 120.141 86.9234 118.809ZM89.4456 119.069C89.5423 118.151 89.2559 117.738 88.7909 117.689C88.3259 117.641 87.965 117.987 87.872 118.906C87.779 119.825 88.0617 120.237 88.523 120.286C88.9843 120.334 89.3526 119.984 89.4456 119.069Z" fill="white"/>
<path d="M109.048 119.088L108.538 123.41L108.908 123.454L109.418 119.131L109.048 119.088Z" fill="white"/>
<path d="M106.836 120.869L106.798 121.239L111.128 121.685L111.166 121.315L106.836 120.869Z" fill="white"/>
<path d="M104.81 52.8013L104.188 58.8388L103.902 58.8091L104.512 53.0394L102.994 52.8831L103.02 52.6153L104.81 52.8013Z" fill="#263238"/>
<path d="M109.772 59.1439L109.742 59.4117L105.65 58.9914L105.672 58.783L108.529 56.4432C109.348 55.7773 109.545 55.3532 109.597 54.8622C109.679 54.0586 109.173 53.4858 108.109 53.3742C107.774 53.314 107.431 53.331 107.104 53.4238C106.777 53.5167 106.476 53.6829 106.223 53.9098L106.044 53.7015C106.329 53.4534 106.665 53.2713 107.028 53.1684C107.392 53.0655 107.773 53.0443 108.146 53.1063C109.299 53.2254 109.973 53.895 109.872 54.8696C109.813 55.4425 109.582 55.9224 108.704 56.6329L106.1 58.7644L109.772 59.1439Z" fill="#263238"/>
<path d="M114.556 58.2139C114.452 59.2183 113.674 59.8507 112.346 59.7019C111.955 59.6809 111.572 59.576 111.225 59.3944C110.878 59.2127 110.574 58.9586 110.333 58.6491L110.512 58.4594C110.733 58.7465 111.014 58.9822 111.335 59.1505C111.656 59.3187 112.01 59.4155 112.372 59.434C113.525 59.5531 114.187 59.062 114.28 58.1767C114.373 57.2913 113.841 56.6887 112.562 56.5436L112.227 56.5064L112.249 56.3018L114.381 54.0438L111.051 53.7015L111.077 53.4337L114.797 53.8057L114.775 54.0103L112.632 56.2758C114.031 56.432 114.66 57.2058 114.556 58.2139Z" fill="#263238"/>
<path d="M120.508 58.757L119.194 58.6231L119.016 60.3678L118.729 60.338L118.908 58.5933L115.441 58.2213L115.463 58.013L119.224 54.2707L119.559 54.3042L115.839 58.0018L118.93 58.3218L119.087 56.7854L119.373 56.8152L119.213 58.3478L120.526 58.4854L120.508 58.757Z" fill="#263238"/>
<path d="M121.761 60.3864C121.744 60.4945 121.715 60.6005 121.676 60.7026L121.244 61.8186L121.021 61.7962L121.412 60.6319C121.337 60.6195 121.27 60.5779 121.225 60.5162C121.181 60.4544 121.163 60.3776 121.175 60.3027C121.188 60.2277 121.229 60.1607 121.291 60.1164C121.353 60.0721 121.43 60.0541 121.505 60.0664C121.581 60.0758 121.65 60.1145 121.698 60.1742C121.746 60.234 121.769 60.3101 121.761 60.3864Z" fill="#263238"/>
<path d="M127.743 59.5047L126.434 59.3708L126.255 61.1118L125.969 61.082L126.147 59.341L122.68 58.969L122.702 58.7607L126.46 55.0296L126.794 55.0668L123.074 58.7644L126.166 59.0806L126.322 57.5443L126.608 57.574L126.46 59.1104L127.773 59.2443L127.743 59.5047Z" fill="#263238"/>
<path d="M132.229 60.0032C132.125 60.9853 131.366 61.6735 129.997 61.5321C129.608 61.5098 129.228 61.4043 128.883 61.2227C128.537 61.0411 128.235 60.7876 127.996 60.4794L128.182 60.2896C128.402 60.5778 128.683 60.8144 129.004 60.9827C129.326 61.1511 129.68 61.2472 130.042 61.2643C131.221 61.387 131.865 60.8253 131.954 59.9697C132.051 59.0397 131.552 58.4296 129.826 58.2511L128.655 58.132L129.25 55.316L132.363 55.6396L132.337 55.9075L129.462 55.6099L128.967 57.894L129.897 57.9907C131.742 58.1804 132.337 58.9318 132.229 60.0032Z" fill="#263238"/>
<path d="M66.2404 183.719L63.8745 192.465L71.5638 193.164L73.1782 184.839L66.2404 183.719Z" fill="#FFC100"/>
<path d="M71.776 192.454C71.4037 192.48 71.0297 192.468 70.66 192.417C69.9681 192.361 69.0157 192.253 67.963 192.119L65.2771 191.747C64.8998 191.719 64.526 191.654 64.1611 191.554C64.5337 191.532 64.9075 191.547 65.2771 191.598C65.9691 191.654 66.9214 191.762 67.9741 191.896L70.66 192.268C71.0366 192.298 71.4099 192.36 71.776 192.454Z" fill="#263238"/>
<g opacity="0.6">
<path d="M63.8745 192.465L71.5638 193.164L71.6865 192.524L64.0977 191.561L63.8857 192.376" fill="white"/>
</g>
<path d="M67.6836 192.074C68.1155 189.828 68.6618 187.606 69.3204 185.416C69.1311 186.544 68.8828 187.661 68.5764 188.764C68.3362 189.882 68.0382 190.987 67.6836 192.074Z" fill="#263238"/>
<path d="M71.3626 192.398C71.4833 191.863 71.4833 191.308 71.3626 190.772C71.2276 190.198 70.9367 189.671 70.5219 189.251C70.0047 188.746 69.3295 188.435 68.6098 188.369C67.8912 188.295 67.1682 188.46 66.5527 188.838C66.0531 189.155 65.6412 189.592 65.3548 190.11C65.1 190.596 64.9349 191.124 64.8675 191.669C64.8625 191.631 64.8625 191.592 64.8675 191.554C64.866 191.443 64.8723 191.332 64.8861 191.222C64.9396 190.813 65.0656 190.416 65.2581 190.051C65.5406 189.501 65.961 189.035 66.4783 188.697C67.1225 188.289 67.8853 188.111 68.6433 188.191C69.4034 188.26 70.1154 188.593 70.6558 189.132C71.0838 189.579 71.3777 190.137 71.504 190.743C71.5872 191.148 71.5872 191.565 71.504 191.97C71.4801 192.079 71.4477 192.186 71.4073 192.29C71.3974 192.328 71.3824 192.364 71.3626 192.398Z" fill="#263238"/>
<path d="M97.9535 182.722L97.4959 189.608C97.4959 189.608 104.348 191.881 104.389 193.161L90.9971 193.257L91.2686 182.499L97.9535 182.722Z" fill="#FFC100"/>
<g opacity="0.6">
<path d="M93.3741 188.905C93.2441 188.941 93.1317 189.023 93.0584 189.136C92.985 189.249 92.9557 189.385 92.976 189.519C93.0064 189.65 93.0863 189.765 93.1993 189.839C93.3123 189.914 93.4495 189.941 93.5824 189.917C93.7197 189.878 93.838 189.791 93.9148 189.671C93.9917 189.551 94.0217 189.406 93.999 189.266C93.9531 189.132 93.8574 189.022 93.7319 188.957C93.6064 188.893 93.4609 188.879 93.3257 188.92" fill="white"/>
</g>
<g opacity="0.6">
<path d="M90.9971 193.265L91.0678 192.179L103.961 192.551C104.098 192.621 104.214 192.724 104.3 192.851C104.387 192.977 104.44 193.123 104.456 193.276L90.9971 193.265Z" fill="white"/>
</g>
<path d="M97.7155 189.548C97.7155 189.615 97.3844 189.634 97.0533 189.835C96.7222 190.036 96.5474 190.304 96.4879 190.278C96.4284 190.252 96.5362 189.876 96.938 189.638C97.3398 189.4 97.7304 189.489 97.7155 189.548Z" fill="#263238"/>
<path d="M99.0994 190.173C99.0994 190.237 98.8278 190.337 98.5972 190.609C98.3666 190.88 98.2922 191.167 98.2252 191.163C98.1582 191.159 98.1285 190.791 98.4224 190.456C98.7162 190.121 99.1031 190.11 99.0994 190.173Z" fill="#263238"/>
<path d="M99.8468 191.877C99.7873 191.877 99.7055 191.557 99.884 191.208C100.063 190.858 100.375 190.72 100.401 190.776C100.427 190.832 100.23 191.018 100.089 191.308C99.9473 191.598 99.9138 191.873 99.8468 191.877Z" fill="#263238"/>
<path d="M97.6449 187.967C97.6151 188.027 97.3175 187.927 96.9493 187.941C96.581 187.956 96.2871 188.064 96.2536 188.005C96.2201 187.945 96.5066 187.726 96.9418 187.715C97.3771 187.703 97.6784 187.919 97.6449 187.967Z" fill="#263238"/>
<g opacity="0.3">
<path d="M97.8605 184.088L97.7786 185.315L91.2017 185.055L91.2277 183.95L97.8605 184.088Z" fill="black"/>
</g>
<path d="M97.7118 186.576C97.4906 186.629 97.2594 186.621 97.0422 186.554C96.8015 186.503 96.5679 186.423 96.3465 186.316C96.2172 186.253 96.0928 186.181 95.9745 186.1C95.8999 186.057 95.8331 186.002 95.7774 185.936C95.7354 185.889 95.7108 185.828 95.7074 185.765C95.7041 185.701 95.7221 185.639 95.7588 185.587C95.7934 185.543 95.8375 185.507 95.8877 185.483C95.938 185.458 95.9931 185.446 96.0489 185.445C96.1339 185.447 96.218 185.462 96.2982 185.49C96.4406 185.528 96.5789 185.581 96.7111 185.646C96.9346 185.754 97.1394 185.897 97.3175 186.07C97.6188 186.368 97.7192 186.613 97.6895 186.625C97.6597 186.636 97.5146 186.439 97.2059 186.189C97.0264 186.046 96.8287 185.927 96.6181 185.836C96.4981 185.782 96.3736 185.738 96.2461 185.706C96.1047 185.665 95.9857 185.657 95.9448 185.706C95.9039 185.754 95.9448 185.739 95.9448 185.78C95.9877 185.827 96.0365 185.868 96.0899 185.903C96.2064 185.982 96.3217 186.053 96.4358 186.115C96.6404 186.224 96.8546 186.313 97.0757 186.383C97.2915 186.434 97.504 186.498 97.7118 186.576Z" fill="#263238"/>
<path d="M97.6225 186.669C97.5043 186.472 97.4497 186.244 97.4663 186.014C97.4593 185.622 97.5624 185.235 97.7639 184.898C97.8021 184.811 97.8623 184.735 97.9385 184.678C98.0148 184.62 98.1045 184.584 98.1991 184.571C98.2592 184.574 98.3173 184.594 98.3662 184.629C98.4151 184.664 98.4527 184.712 98.4744 184.768C98.5063 184.847 98.5276 184.93 98.5376 185.014C98.5609 185.215 98.5443 185.419 98.4888 185.613C98.4332 185.808 98.3399 185.99 98.214 186.148C97.9424 186.491 97.6672 186.558 97.6634 186.52C97.6597 186.483 97.8755 186.368 98.0838 186.041C98.205 185.853 98.2837 185.641 98.3144 185.419C98.3331 185.29 98.3331 185.158 98.3144 185.029C98.3144 184.887 98.2475 184.772 98.1954 184.783C98.1433 184.794 98.0131 184.884 97.9536 184.995C97.8847 185.114 97.825 185.239 97.775 185.367C97.6949 185.58 97.6448 185.803 97.6262 186.029C97.5965 186.413 97.6597 186.658 97.6225 186.669Z" fill="#263238"/>
<path d="M68.9149 75.4561C68.9149 75.4561 67.4604 83.3797 66.3109 88.1748C65.4032 91.8948 63.0596 98.8809 67.3041 100.908C71.5487 102.936 77.2403 94.748 77.2403 94.748L79.662 76.0959C77.9768 76.4121 76.0647 78.3688 74.0299 81.2444L74.4019 74.1764L68.9149 75.4561Z" fill="#455A64"/>
<path d="M127.327 87.1629L125.095 88.2268L123.038 85.0016L124.239 82.5129C124.354 82.2823 124.477 82.0256 124.611 81.728C124.76 81.3796 124.849 81.0086 124.875 80.6306C124.927 80.165 124.916 79.6945 124.842 79.2319C124.73 78.8152 125.169 78.4879 125.467 78.7185C125.764 78.9492 126.099 80.0949 125.88 81.4676C125.66 82.8403 127.252 81.3858 127.844 80.865C128.435 80.3442 130.336 78.8264 130.638 78.8859C131.073 78.9715 131.062 79.47 130.459 79.9722C129.856 80.4744 128.156 82.1223 128.435 82.4274C128.784 82.4666 129.112 82.6134 129.373 82.8474C129.634 83.0814 129.816 83.391 129.894 83.7331C130.042 84.4064 130.165 85.3401 129.786 85.6489C128.999 86.2059 128.178 86.7116 127.327 87.1629Z" fill="#FFBE9D"/>
<path d="M84.0517 57.0979L83.9922 76.4828L92.3027 76.892L92.5445 72.1788C92.5445 72.1788 95.4981 72.7665 96.2645 70.0212C96.7518 68.269 96.6365 54.7245 96.6365 54.7245L84.0517 57.0979Z" fill="#FFBE9D"/>
<path d="M98.5041 56.6217C97.9424 57.7786 95.2752 59.899 95.2752 59.899L94.0699 63.128C93.0246 62.3096 91.6184 62.358 91.3543 64.1956C91.1608 65.5274 92.8125 65.7952 92.8125 65.7952C91.849 67.432 91.198 68.7712 89.7993 70.3113C88.2816 72.0002 87.4334 72.1713 85.7892 72.1974H83.9738C83.9738 72.1974 80.2538 69.0949 80.9978 60.9295C81.7418 52.7641 89.0739 55.1486 90.826 53.1175C93.6793 49.7844 100.375 52.7566 98.5041 56.6217Z" fill="#263238"/>
<path d="M81.4106 67.7557H81.6413C81.8626 67.7517 82.0831 67.7268 82.2997 67.6813C83.0949 67.5003 83.8295 67.1157 84.4313 66.5653C85.2942 65.7179 86.0219 64.7431 86.5889 63.6748C86.9609 63.0908 87.3106 62.4696 87.757 61.8706C88.2066 61.2412 88.7586 60.6917 89.39 60.245C90.0398 59.8243 90.757 59.5185 91.5104 59.341C92.2321 59.155 92.9426 59.0397 93.6122 58.9095C94.9514 58.6603 96.153 58.2883 96.9602 57.6522C97.6209 57.1688 98.0993 56.4768 98.318 55.688C98.3708 55.4737 98.3983 55.254 98.3999 55.0333C98.3999 54.8808 98.3999 54.7989 98.3999 54.7989C98.3999 54.7989 98.3999 54.8808 98.4259 55.0333C98.4308 55.2559 98.4083 55.4783 98.359 55.6954C98.1474 56.4967 97.67 57.2024 97.0049 57.6968C96.179 58.3441 94.9663 58.7272 93.6271 58.9765C92.9538 59.1104 92.247 59.2257 91.529 59.4154C90.7843 59.5924 90.0749 59.8943 89.431 60.3082C88.8092 60.7527 88.2639 61.2955 87.8165 61.9153C87.3738 62.5105 87.0055 63.128 86.6521 63.712C86.0782 64.7838 85.3416 65.7601 84.4685 66.6062C83.8589 67.1621 83.1133 67.547 82.3072 67.7222C82.0878 67.7651 81.8648 67.7863 81.6413 67.7854C81.4888 67.7668 81.4106 67.7557 81.4106 67.7557Z" fill="#455A64"/>
<path d="M80.9829 61.1155C80.9829 61.1155 81.1131 61.0634 81.3549 60.9816C81.725 60.8513 82.1078 60.7603 82.497 60.71C83.1163 60.6156 83.749 60.7477 84.2788 61.082C84.4425 61.1908 84.583 61.331 84.6922 61.4945C84.8014 61.658 84.8771 61.8414 84.915 62.0343C84.9593 62.252 84.9485 62.4774 84.8836 62.6898C84.8186 62.9023 84.7015 63.0951 84.543 63.2508C84.3622 63.4096 84.1324 63.5016 83.892 63.5112C83.6421 63.5149 83.3962 63.4492 83.1814 63.3214C82.7259 63.0512 82.3867 62.6218 82.2291 62.1162C82.05 61.5833 82.0255 61.0107 82.1584 60.4645C82.2953 59.8873 82.6087 59.3672 83.055 58.9765C83.5218 58.5579 84.109 58.2975 84.7327 58.2325C85.3786 58.1921 86.0263 58.2755 86.641 58.478C87.2733 58.681 87.9199 58.8364 88.5754 58.943C89.252 59.0323 89.9374 59.0323 90.614 58.943C91.2912 58.8624 91.9523 58.6793 92.5744 58.3999C92.8787 58.2772 93.1533 58.091 93.3798 57.8536C93.6063 57.6162 93.7794 57.3332 93.8876 57.0235C93.9762 56.7202 93.9827 56.3988 93.9062 56.0922C93.8297 55.7856 93.6731 55.5049 93.4524 55.2788C93.228 55.076 92.9486 54.9441 92.6493 54.8997C92.3501 54.8554 92.0445 54.9005 91.7709 55.0296C91.5046 55.1465 91.2866 55.3514 91.1534 55.6099C91.0265 55.864 90.9798 56.1507 91.0195 56.432C91.0574 56.7013 91.1524 56.9593 91.298 57.189C91.4436 57.4186 91.6366 57.6146 91.8639 57.7638C92.3015 58.0322 92.805 58.1739 93.3184 58.173C93.7918 58.1815 94.2632 58.111 94.7134 57.9646C95.4934 57.7192 96.202 57.2877 96.778 56.7073C97.2162 56.2758 97.5773 55.7726 97.8457 55.2193C98.015 54.8622 98.146 54.4881 98.2363 54.1033C98.2846 53.8429 98.3181 53.7052 98.3181 53.7052L98.2512 54.107C98.1686 54.4916 98.0439 54.8658 97.8792 55.223C97.6166 55.7865 97.2564 56.299 96.8152 56.737C96.2379 57.3263 95.5253 57.7656 94.7395 58.0167C94.2829 58.1641 93.8056 58.237 93.3259 58.2325C92.8011 58.2358 92.2859 58.0928 91.8379 57.8196C91.6017 57.6661 91.4012 57.4639 91.2498 57.2265C91.0983 56.9891 90.9995 56.722 90.96 56.4432C90.916 56.1482 90.9641 55.8468 91.0976 55.5801C91.2388 55.3077 91.4683 55.0912 91.7486 54.9663C92.0353 54.8304 92.3559 54.7826 92.6697 54.8289C92.9836 54.8753 93.2767 55.0137 93.5119 55.2267C93.7418 55.4618 93.9053 55.7537 93.9857 56.0726C94.0661 56.3915 94.0605 56.726 93.9694 57.0421C93.8578 57.3625 93.6793 57.6555 93.4459 57.9018C93.2124 58.1481 92.9293 58.3419 92.6154 58.4706C91.9856 58.752 91.3173 58.9376 90.6326 59.0211C89.9484 59.1086 89.2559 59.1086 88.5717 59.0211C87.914 58.9136 87.265 58.7582 86.6299 58.5561C86.0233 58.357 85.385 58.2724 84.7475 58.3069C84.3151 58.3529 83.8985 58.4954 83.5283 58.7237C83.1582 58.9521 82.8439 59.2605 82.6087 59.6263C82.3735 59.9922 82.2234 60.4061 82.1693 60.8376C82.1151 61.2691 82.1585 61.7073 82.2961 62.1199C82.4491 62.6106 82.7775 63.0278 83.2186 63.2917C83.4232 63.4141 83.6573 63.4785 83.8957 63.4777C84.1236 63.4692 84.3416 63.3825 84.5132 63.2322C84.6639 63.0817 84.775 62.8963 84.8366 62.6925C84.8983 62.4887 84.9086 62.2728 84.8666 62.0641C84.7919 61.6885 84.5728 61.3573 84.2565 61.1415C83.7349 60.8106 83.1116 60.6785 82.5007 60.7695C82.1135 60.8162 81.7321 60.9022 81.3624 61.0262L80.9829 61.1155Z" fill="#455A64"/>
<path d="M75.4994 113.887L64.4287 186.606L73.6246 187.77L86.5962 126.781L89.8661 188.183L99.8319 188.008L98.1803 114.059L75.4994 113.887Z" fill="#263238"/>
<path d="M89.6876 188.369V188.191L86.4959 128.195L73.7698 187.979L64.2168 186.766L75.3396 113.72L98.3627 113.891L100.022 188.209L89.6876 188.369ZM86.7116 125.364L90.0596 187.994L99.661 187.826L98.0167 114.245L75.6595 114.092L64.6409 186.442L73.4759 187.558L86.7116 125.364Z" fill="#263238"/>
<path d="M96.8711 187.889C96.8153 187.889 96.7744 173.322 96.7744 155.354C96.7744 137.387 96.8153 122.812 96.8711 122.812C96.9269 122.812 96.9679 137.379 96.9679 155.354C96.9679 173.329 96.9232 187.889 96.8711 187.889Z" fill="#455A64"/>
<path d="M71.6011 187.625C71.6036 187.573 71.6111 187.52 71.6234 187.469C71.6234 187.354 71.6718 187.201 71.709 187.008C71.7871 186.595 71.9024 186 72.0475 185.241C72.36 183.697 72.7915 181.484 73.3532 178.749C74.4692 173.27 76.0502 165.711 77.8656 157.378C79.6809 149.045 81.3884 141.508 82.6532 136.066C83.2893 133.35 83.8064 131.152 84.1672 129.619C84.3495 128.875 84.4946 128.28 84.5913 127.871C84.6397 127.677 84.6806 127.529 84.7066 127.417C84.7193 127.365 84.7354 127.314 84.755 127.265C84.755 127.265 84.755 127.317 84.7252 127.421C84.6955 127.525 84.6732 127.685 84.6322 127.878C84.5392 128.291 84.409 128.883 84.2416 129.638C83.8957 131.171 83.4009 133.358 82.7871 136.096C81.5558 141.549 79.8706 149.086 78.0553 157.419C76.2399 165.752 74.6366 173.307 73.4871 178.775C72.9105 181.506 72.4455 183.716 72.1219 185.256C71.9619 186 71.8354 186.602 71.7499 187.015L71.6457 187.473C71.636 187.525 71.621 187.576 71.6011 187.625Z" fill="#455A64"/>
<path d="M89.8663 126.714C89.7292 126.751 89.5879 126.769 89.4459 126.77L88.2964 126.852C87.3255 126.915 85.9826 126.982 84.5095 127.127C83.0364 127.272 81.7083 127.473 80.7448 127.599L79.6028 127.744C79.4631 127.771 79.3206 127.78 79.1787 127.77C79.3122 127.722 79.4507 127.688 79.5916 127.67C79.8558 127.614 80.2426 127.544 80.7076 127.462C81.6674 127.302 82.9954 127.09 84.476 126.933C85.9566 126.777 87.3032 126.744 88.2741 126.714C88.7614 126.714 89.1558 126.695 89.4273 126.695C89.5739 126.686 89.7211 126.692 89.8663 126.714Z" fill="#455A64"/>
<path d="M98.374 121.993C98.2833 122.033 98.1864 122.057 98.0875 122.064C97.8215 122.103 97.5524 122.115 97.284 122.101C96.3909 122.053 95.5304 121.75 94.8049 121.227C94.0794 120.704 93.5195 119.983 93.192 119.151C93.093 118.901 93.0195 118.642 92.9725 118.377C92.9391 118.191 92.9353 118.087 92.9502 118.084C92.9651 118.08 93.0469 118.493 93.3222 119.095C93.6787 119.882 94.2323 120.564 94.9293 121.074C95.6334 121.573 96.4552 121.879 97.3138 121.964C97.9536 122.03 98.3665 121.956 98.374 121.993Z" fill="#455A64"/>
<path d="M73.606 115.316L99.0805 115.234L97.6855 98.4234C97.533 94.5769 97.5553 94.1156 97.4586 90.5667C97.4586 90.5667 101.074 94.9377 103.92 98.0067C104.759 98.9085 105.863 99.5197 107.072 99.7518C108.281 99.9839 109.533 99.8248 110.646 99.2976L125.526 88.915L122.74 81.7838L109.218 90.0608C108.596 89.6888 103.332 82.1632 99.6943 78.499C97.365 76.1537 94.223 74.7939 90.9188 74.7009C88.1767 74.6367 85.4332 74.7473 82.7051 75.032C80.7178 75.2448 78.8667 76.1433 77.4702 77.5731C76.0737 79.0029 75.219 80.8746 75.053 82.8663C74.7889 86.0097 75.001 89.659 75.001 95.8603L73.606 115.316Z" fill="#455A64"/>
<path d="M74.8036 84.5664C74.8036 84.5664 74.8036 84.637 74.8036 84.7635C74.8036 84.89 74.8036 85.102 74.8036 85.3252C74.8036 85.8163 74.8036 86.5231 74.8036 87.3973C74.8036 89.1457 74.8817 91.5562 74.9599 94.2235C75.038 96.8907 75.0491 99.3087 74.9822 101.053C74.9524 101.928 74.9115 102.634 74.8706 103.122C74.8706 103.349 74.8371 103.535 74.8259 103.683C74.8148 103.832 74.8036 103.877 74.8036 103.877C74.8036 103.877 74.8036 103.81 74.8036 103.683C74.8036 103.557 74.8222 103.345 74.8334 103.122C74.8669 102.634 74.8966 101.928 74.9189 101.053C74.971 99.305 74.9487 96.8907 74.8743 94.2235C74.7999 91.5562 74.7367 89.1457 74.7404 87.3973C74.7404 86.5231 74.7404 85.8163 74.7664 85.3252C74.7664 85.0983 74.7664 84.916 74.785 84.7635C74.8036 84.611 74.8036 84.5664 74.8036 84.5664Z" fill="#263238"/>
<path d="M108.66 92.4676C108.664 92.3495 108.681 92.2322 108.712 92.1179C108.756 91.9022 108.82 91.6046 108.898 91.2809C108.976 90.9573 109.047 90.6597 109.102 90.4514C109.124 90.3345 109.161 90.2208 109.21 90.1129C109.206 90.2312 109.187 90.3486 109.154 90.4626C109.114 90.6783 109.047 90.9722 108.972 91.2996C108.898 91.6269 108.823 91.9171 108.768 92.1291C108.744 92.2455 108.708 92.3591 108.66 92.4676Z" fill="#263238"/>
<path d="M110.017 92.6759C109.875 92.237 109.76 91.7897 109.671 91.3367C109.557 90.8893 109.466 90.4361 109.4 89.9789C109.54 90.4185 109.656 90.8656 109.746 91.3181C109.86 91.7656 109.951 92.2188 110.017 92.6759Z" fill="#263238"/>
<path d="M98.0875 91.1954L97.9499 91.0689L97.5593 90.6969C97.2245 90.3696 96.7409 89.8897 96.1606 89.2759C95.4801 88.5623 94.8464 87.8055 94.2633 87.0104C93.542 86.0369 92.9598 84.9677 92.5336 83.8335C92.1025 82.6969 91.9088 81.4841 91.9644 80.2698C91.983 79.2781 92.2006 78.3002 92.6042 77.3942C92.8932 76.7882 93.3231 76.2601 93.8579 75.8541C94.0012 75.7451 94.1516 75.6457 94.308 75.5565L94.4754 75.4635C94.4754 75.4635 94.2448 75.59 93.8765 75.8764C93.3544 76.2878 92.9354 76.8151 92.6526 77.4165C92.2599 78.3186 92.05 79.2897 92.0351 80.2735C91.9831 81.4782 92.178 82.6809 92.608 83.8075C93.0319 84.9344 93.6076 85.9982 94.3192 86.9695C94.8995 87.7638 95.5281 88.5216 96.2015 89.2387C96.7744 89.8562 97.2505 90.3547 97.5816 90.6783L97.9536 91.0503C98.0466 91.147 98.0875 91.1954 98.0875 91.1954Z" fill="#263238"/>
<path d="M81.5295 84.2799C81.1931 84.0084 80.8985 83.6887 80.6553 83.3313C80.3649 83.0131 80.1219 82.6548 79.9336 82.2674C80.2694 82.5382 80.5639 82.8565 80.8078 83.2123C81.0996 83.5307 81.3428 83.8904 81.5295 84.2799Z" fill="#FAFAFA"/>
<path d="M87.3177 90.8494C86.9651 91.3377 86.561 91.7867 86.1125 92.1886C85.7087 92.6368 85.2586 93.0408 84.7695 93.3939C85.5261 92.4576 86.3803 91.6046 87.3177 90.8494Z" fill="#FAFAFA"/>
<path d="M92.9203 100.28C92.8682 100.28 92.6636 99.7216 92.2842 99.0781C91.9047 98.4345 91.5104 97.9621 91.5402 97.936C91.9239 98.2027 92.2336 98.5623 92.4404 98.9814C92.7062 99.3673 92.8711 99.8136 92.9203 100.28Z" fill="#FAFAFA"/>
<path d="M78.3973 99.212C77.8312 98.0243 77.5997 96.7047 77.7277 95.3953C77.7872 95.3953 77.8021 96.2658 77.9918 97.3148C78.1815 98.3638 78.4717 99.1897 78.3973 99.212Z" fill="#FAFAFA"/>
<path d="M86.1088 103.364C85.6453 102.365 85.5453 101.236 85.8261 100.172C85.8819 100.172 85.8 100.897 85.8819 101.775C85.9637 102.653 86.1646 103.345 86.1088 103.364Z" fill="#FAFAFA"/>
<path d="M83.0585 109.394C82.4447 109.126 81.859 108.799 81.3101 108.415C80.7259 108.088 80.1741 107.705 79.6621 107.273C80.2769 107.541 80.8638 107.869 81.4142 108.252C81.9974 108.579 82.548 108.961 83.0585 109.394Z" fill="#FAFAFA"/>
<path d="M95.0517 107.612C95.0778 107.664 94.2147 108.092 93.2141 108.728C92.2134 109.364 91.4508 109.955 91.4136 109.911C91.9082 109.379 92.4801 108.925 93.1099 108.564C93.7049 108.15 94.3597 107.828 95.0517 107.612Z" fill="#FAFAFA"/>
<path d="M79.9599 114.431C79.3322 114.401 78.7091 114.309 78.0999 114.155C77.4728 114.063 76.8569 113.906 76.2622 113.687C76.8901 113.716 77.5133 113.81 78.1222 113.966C78.749 114.058 79.3647 114.214 79.9599 114.431Z" fill="#FAFAFA"/>
<path d="M88.01 113.121C87.3003 112.433 86.8186 111.543 86.6299 110.573C86.682 110.573 86.9126 111.161 87.2958 111.86C87.6789 112.559 88.0546 113.084 88.01 113.121Z" fill="#FAFAFA"/>
<path d="M97.0719 113.75C96.9322 114.065 96.7355 114.351 96.4916 114.594C96.1196 115.026 95.8071 115.338 95.7476 115.316C95.8843 114.997 96.0813 114.708 96.3279 114.464C96.6999 114.04 97.0161 113.72 97.0719 113.75Z" fill="#FAFAFA"/>
<path d="M80.5064 88.1785C80.5362 88.2231 80.2051 88.4984 79.7624 88.7885C79.5111 88.9944 79.2216 89.1486 78.9105 89.2424C78.8808 89.1977 79.2156 88.9225 79.6545 88.6286C79.9055 88.423 80.1952 88.2699 80.5064 88.1785Z" fill="#FAFAFA"/>
<path d="M86.7862 81.1663C86.4878 80.5565 86.263 79.9134 86.1166 79.2505C85.9154 78.6039 85.7905 77.9359 85.7446 77.2603C85.9783 77.8935 86.1673 78.5424 86.3101 79.2021C86.5151 79.8447 86.6742 80.5011 86.7862 81.1663Z" fill="#FAFAFA"/>
<path d="M92.816 87.5498C92.7899 87.6019 92.2468 87.3936 91.5512 87.2634C90.8555 87.1332 90.2715 87.122 90.2715 87.0625C91.1507 86.9093 92.0556 87.0826 92.816 87.5498Z" fill="#FAFAFA"/>
<path d="M96.9604 82.126C96.4983 82.261 96.0096 82.2776 95.5394 82.1744C95.0601 82.1331 94.5993 81.9705 94.2002 81.702C94.2225 81.6499 94.8103 81.8694 95.5692 81.981C96.328 82.0926 96.953 82.0702 96.9604 82.126Z" fill="#FAFAFA"/>
<path d="M101.197 88.1747C101.127 87.4901 101.162 86.7989 101.301 86.125C101.381 85.4407 101.566 84.773 101.852 84.1459C101.904 84.1459 101.669 85.0462 101.48 86.1547C101.29 87.2633 101.257 88.1784 101.197 88.1747Z" fill="#FAFAFA"/>
<path d="M106.182 95.3023C105.255 94.5273 104.414 93.6542 103.675 92.6983C104.6 93.4758 105.44 94.3486 106.182 95.3023Z" fill="#FAFAFA"/>
<path d="M110.326 94.748C109.942 95.589 109.441 96.3716 108.838 97.073C109.004 96.6382 109.229 96.2287 109.508 95.8565C109.727 95.4504 110.003 95.0773 110.326 94.748Z" fill="#FAFAFA"/>
<path d="M115.136 92.4081C114.812 91.9658 114.543 91.4862 114.333 90.9796C114.065 90.4998 113.854 89.9904 113.704 89.4619C114.028 89.9059 114.297 90.3867 114.508 90.8941C114.775 91.3728 114.986 91.8809 115.136 92.4081Z" fill="#FAFAFA"/>
<path d="M121.684 89.7C120.536 89.6281 119.4 89.426 118.298 89.0973C118.875 89.1031 119.449 89.173 120.01 89.3056C120.581 89.3733 121.142 89.5056 121.684 89.7Z" fill="#FAFAFA"/>
<path d="M69.6777 96.6675C70.0751 95.5122 70.5964 94.4034 71.2327 93.3604C71.0627 93.9476 70.8308 94.515 70.5408 95.053C70.3109 95.6201 70.0216 96.1613 69.6777 96.6675Z" fill="#FAFAFA"/>
<path d="M73.1487 90.5444C72.7328 90.2191 72.358 89.8443 72.0327 89.4284C71.6573 89.055 71.3265 88.6393 71.0469 88.1896C71.464 88.5136 71.8389 88.8885 72.1629 89.3056C72.5402 89.6774 72.8712 90.0933 73.1487 90.5444Z" fill="#FAFAFA"/>
<path d="M72.8581 100.376C72.8916 100.417 72.6349 100.689 72.2852 100.983C71.9355 101.277 71.6193 101.477 71.5821 101.437C71.5449 101.396 71.809 101.124 72.1587 100.834C72.5084 100.544 72.8246 100.328 72.8581 100.376Z" fill="#FAFAFA"/>
<path d="M74.03 84.0381C74.0746 84.0716 73.9184 84.3357 73.684 84.6296C73.4496 84.9235 73.2227 85.1318 73.1818 85.0983C73.1409 85.0648 73.2971 84.8007 73.5315 84.5068C73.7658 84.213 74.0076 84.0046 74.03 84.0381Z" fill="#FAFAFA"/>
<g opacity="0.3">
<path d="M93.4746 85.727C95.0482 90.6709 96.2609 95.8603 97.8344 100.804L97.4625 90.5667C95.9322 89.1301 94.5921 87.5037 93.4746 85.727Z" fill="black"/>
</g>
<path d="M67.8774 92.1961C67.8904 92.1552 67.9066 92.1154 67.9258 92.077L68.0746 91.7311C68.2085 91.4335 68.4057 91.0094 68.6586 90.4849C69.1646 89.4358 69.8937 88.0036 70.7716 86.4561C71.6495 84.9086 72.5014 83.5471 73.1412 82.5762C73.4612 82.0888 73.7253 81.6982 73.9113 81.4341L74.127 81.1291C74.1791 81.0584 74.2052 81.0212 74.2089 81.0249L74.1419 81.1365L73.9373 81.449L73.1933 82.6059C72.5646 83.5843 71.7053 84.9495 70.846 86.4933C69.9867 88.0371 69.2315 89.4693 68.7182 90.5072L68.1118 91.7459C68.0486 91.8724 67.9928 91.984 67.9481 92.0808C67.9287 92.1216 67.905 92.1603 67.8774 92.1961Z" fill="#263238"/>
<path d="M70.3884 87.4605C70.2558 87.5263 70.1191 87.5835 69.9792 87.6316C69.6559 87.7727 69.347 87.9447 69.0566 88.145C68.7681 88.3476 68.5002 88.5781 68.2568 88.8332C68.0671 89.0304 67.9629 89.1606 67.9555 89.1531C67.9481 89.1457 67.9555 89.1159 68.015 89.0527C68.0768 88.9631 68.1438 88.8774 68.2159 88.796C68.4499 88.5252 68.7175 88.2852 69.012 88.0817C69.3066 87.8773 69.6252 87.7099 69.9606 87.5833C70.0615 87.5439 70.1646 87.5104 70.2693 87.4828C70.3078 87.4699 70.3479 87.4624 70.3884 87.4605Z" fill="#263238"/>
<path d="M70.7379 79.8308C70.4193 80.4402 70.0458 81.0192 69.6219 81.5606C69.2438 82.1385 68.8116 82.6791 68.3311 83.1751C68.6512 82.5678 69.0246 81.9902 69.4471 81.449C69.8257 80.8704 70.2579 80.3286 70.7379 79.8308Z" fill="#FAFAFA"/>
<path d="M73.4238 73.7821C73.6082 73.8147 73.7981 73.7892 73.9673 73.7092C74.1366 73.6293 74.2768 73.4988 74.3687 73.3357C74.577 73.0232 74.6738 72.6512 74.856 72.3238C75.4103 71.3529 76.6677 70.9288 77.1736 69.9319C77.2443 69.7905 77.2852 69.5971 77.1736 69.5004C77.062 69.4036 76.8946 69.4706 76.7644 69.5338L73.4536 71.1929" fill="#FFBE9D"/>
<path d="M73.4459 71.1929C73.5481 71.1056 73.6621 71.033 73.7844 70.9772C74.0076 70.8507 74.3387 70.6759 74.7479 70.4601L76.1838 69.7161L76.6042 69.5041C76.7605 69.3927 76.9537 69.3461 77.1436 69.3739C77.2018 69.3961 77.2521 69.4353 77.2879 69.4863C77.3237 69.5374 77.3434 69.598 77.3445 69.6603C77.3462 69.7634 77.3232 69.8655 77.2775 69.9579C77.1968 70.1217 77.0969 70.2753 76.9799 70.4155C76.5141 70.8863 76.017 71.325 75.4919 71.7286C75.2816 71.9128 75.0998 72.1271 74.9525 72.3648C74.8186 72.5917 74.733 72.826 74.6289 73.0381C74.563 73.2173 74.4586 73.3798 74.323 73.5142C74.1873 73.6486 74.0238 73.7514 73.844 73.8156C73.7785 73.8416 73.708 73.8525 73.6378 73.8473C73.5676 73.8422 73.4994 73.8211 73.4385 73.7858C73.5643 73.7903 73.69 73.7739 73.8105 73.7374C73.9679 73.6658 74.109 73.5629 74.2254 73.435C74.3418 73.3071 74.431 73.1569 74.4875 72.9934C74.577 72.7564 74.6788 72.5242 74.7926 72.2978C74.9424 72.0402 75.1306 71.8069 75.3506 71.6059C75.8717 71.2002 76.3686 70.7642 76.8386 70.3002C76.9423 70.1716 77.0332 70.0334 77.1101 69.8872C77.1771 69.7496 77.1771 69.6045 77.1101 69.5859C77.0432 69.5673 76.872 69.6306 76.7381 69.7012L76.3178 69.9096L74.8595 70.6164C74.4429 70.8135 74.1155 70.9884 73.8663 71.0739C73.7331 71.135 73.5913 71.1751 73.4459 71.1929Z" fill="#EB996E"/>
<path d="M177.279 170.385H153.731V173.621H177.279V170.385Z" fill="#263238"/>
<path d="M177.316 173.659H153.69V170.344H177.316V173.659ZM153.772 173.588H177.234V170.433H153.772V173.588Z" fill="#263238"/>
<path d="M155.915 172.543L159.304 189.26H171.844L175.118 173.618L155.915 172.543Z" fill="#263238"/>
<path d="M155.915 187.679L157.723 190.164H172.964L175.118 187.679H155.915Z" fill="#455A64"/>
<path d="M164.62 173.03C164.571 173.03 164.512 165.285 164.486 155.732C164.46 146.179 164.486 138.43 164.523 138.43C164.56 138.43 164.627 146.175 164.653 155.732C164.679 165.289 164.664 173.03 164.62 173.03Z" fill="#263238"/>
<path d="M169.865 153.645C169.849 153.708 169.828 153.769 169.802 153.827L169.59 154.326C169.545 154.437 169.493 154.556 169.437 154.698L169.281 155.14C169.225 155.297 169.162 155.464 169.098 155.643C169.035 155.821 168.987 156.015 168.924 156.219C168.644 157.165 168.424 158.128 168.265 159.102C168.08 160.297 167.956 161.5 167.893 162.707C167.807 164.903 167.869 167.103 168.079 169.291C168.157 170.132 168.232 170.813 168.288 171.282C168.314 171.501 168.332 171.68 168.347 171.821C168.352 171.884 168.352 171.948 168.347 172.011C168.323 171.953 168.308 171.891 168.302 171.828C168.28 171.687 168.25 171.508 168.213 171.289C168.135 170.824 168.042 170.143 167.953 169.302C167.717 167.106 167.65 164.895 167.752 162.688C167.811 161.475 167.935 160.265 168.124 159.065C168.291 158.086 168.524 157.119 168.823 156.171C168.886 155.97 168.942 155.777 169.009 155.598L169.203 155.096C169.266 154.94 169.322 154.794 169.374 154.657C169.426 154.519 169.493 154.408 169.541 154.285L169.783 153.798C169.805 153.744 169.832 153.693 169.865 153.645Z" fill="#263238"/>
<path d="M169.262 147.381C169.242 147.467 169.218 147.553 169.188 147.637C169.125 147.816 169.043 148.054 168.942 148.355C168.886 148.515 168.827 148.686 168.764 148.876L168.574 149.501C168.436 149.951 168.276 150.457 168.135 151.034C168.057 151.316 167.979 151.618 167.897 151.926C167.815 152.235 167.752 152.57 167.677 152.908C167.514 153.582 167.395 154.315 167.242 155.077C166.982 156.617 166.755 158.317 166.595 160.11C166.435 161.903 166.383 163.622 166.361 165.184C166.338 166.747 166.361 168.16 166.439 169.329C166.461 169.92 166.498 170.445 166.528 170.921C166.558 171.397 166.584 171.791 166.614 172.122C166.643 172.453 166.658 172.691 166.673 172.866C166.682 172.954 166.682 173.043 166.673 173.13C166.652 173.045 166.638 172.958 166.632 172.87L166.543 172.126C166.502 171.799 166.461 171.382 166.428 170.928C166.394 170.474 166.342 169.927 166.312 169.336C166.234 168.157 166.201 166.732 166.197 165.181C166.193 163.629 166.271 161.896 166.42 160.099C166.569 158.302 166.814 156.591 167.082 155.051C167.239 154.285 167.361 153.563 167.532 152.875C167.614 152.536 167.689 152.209 167.763 151.897C167.837 151.584 167.934 151.287 168.012 151C168.161 150.427 168.328 149.918 168.477 149.471L168.678 148.85C168.749 148.664 168.816 148.478 168.872 148.333L169.147 147.626C169.18 147.542 169.219 147.46 169.262 147.381Z" fill="#263238"/>
<path d="M163.128 174.399V174.31C163.128 174.239 163.128 174.153 163.106 174.042C163.087 173.796 163.065 173.454 163.035 173.019C162.979 172.115 162.901 170.828 162.801 169.243C162.596 166.059 162.299 161.658 161.763 156.818C161.491 154.4 161.172 152.101 160.844 150.018C160.666 148.98 160.509 147.991 160.327 147.068C160.145 146.146 159.985 145.29 159.817 144.509C159.65 143.727 159.49 143.021 159.352 142.407C159.215 141.793 159.085 141.261 158.98 140.826C158.876 140.391 158.794 140.082 158.739 139.829C158.713 139.721 158.694 139.635 158.679 139.569C158.664 139.502 158.66 139.479 158.679 139.479C158.691 139.507 158.701 139.536 158.709 139.565C158.709 139.632 158.754 139.714 158.783 139.822C158.85 140.06 158.943 140.391 159.059 140.811C159.174 141.231 159.323 141.767 159.468 142.385C159.613 143.002 159.795 143.701 159.959 144.486C160.122 145.271 160.331 146.119 160.487 147.042C160.643 147.965 160.837 148.954 161.019 149.996C161.358 152.079 161.681 154.378 161.953 156.8C162.488 161.636 162.767 166.051 162.942 169.239C163.028 170.831 163.087 172.122 163.125 173.015C163.125 173.45 163.154 173.796 163.162 174.042C163.162 174.15 163.162 174.239 163.162 174.31C163.157 174.341 163.145 174.372 163.128 174.399Z" fill="#263238"/>
<path d="M164.426 142.154C164.326 141.057 163.217 140.227 162.112 140.216C161.561 140.24 161.022 140.39 160.536 140.654C160.051 140.917 159.632 141.288 159.311 141.737C158.677 142.643 158.219 143.66 157.961 144.736C157.156 147.311 156.874 150.022 157.131 152.708C157.447 155.379 158.53 158.009 160.446 159.895C160.758 160.203 161.164 160.508 161.591 160.419C161.821 160.35 162.029 160.222 162.194 160.047C164.07 158.329 165.556 156.229 166.555 153.889C167.553 151.55 168.04 149.023 167.982 146.48C167.953 145.465 167.819 144.408 167.257 143.564C166.695 142.719 165.397 141.819 164.426 142.158" fill="#FFC100"/>
<path d="M156.198 133.364L154.646 136.176C154.609 136.239 154.561 136.314 154.486 136.321C154.412 136.328 154.345 136.25 154.3 136.183C152.932 134.083 151.568 131.982 150.208 129.882L151.153 129.346L156.198 133.364Z" fill="#FFC100"/>
<g opacity="0.2">
<path d="M156.198 133.364L154.646 136.176C154.609 136.239 154.561 136.314 154.486 136.321C154.412 136.328 154.345 136.25 154.3 136.183C152.932 134.083 151.568 131.982 150.208 129.882L151.153 129.346L156.198 133.364Z" fill="black"/>
</g>
<path d="M164.523 138.43L150.525 130.168C150.37 130.103 150.248 129.98 150.182 129.826C150.127 129.618 150.283 129.42 150.432 129.264C151.394 128.265 152.561 127.486 153.852 126.978C155.143 126.471 156.528 126.249 157.913 126.325C159.297 126.426 160.635 126.861 161.814 127.594C162.992 128.327 163.974 129.336 164.676 130.533C166.026 132.947 166.071 136.139 164.523 138.43Z" fill="#FFC100"/>
<path d="M152.541 127.534C152.6 127.517 152.662 127.508 152.723 127.508C152.846 127.508 153.025 127.482 153.252 127.486C153.903 127.477 154.555 127.528 155.197 127.638C157.329 128 159.314 128.961 160.918 130.411C162.523 131.861 163.68 133.738 164.255 135.822C164.429 136.449 164.546 137.09 164.605 137.738C164.612 137.875 164.612 138.011 164.605 138.147C164.596 138.257 164.558 138.362 164.497 138.453C164.54 138.219 164.548 137.981 164.519 137.746C164.438 137.106 164.307 136.474 164.125 135.856C163.422 133.499 161.99 131.426 160.035 129.934C158.08 128.442 155.703 127.607 153.244 127.549C152.794 127.538 152.541 127.549 152.541 127.534Z" fill="#263238"/>
<path d="M162.626 132.727C162.403 132.862 162.166 132.971 161.919 133.051C161.473 133.226 160.851 133.449 160.152 133.672C159.453 133.896 158.816 134.07 158.351 134.182C158.103 134.258 157.848 134.308 157.589 134.331C157.826 134.215 158.076 134.128 158.333 134.07L160.118 133.512L161.893 132.94C162.129 132.844 162.375 132.773 162.626 132.727Z" fill="#263238"/>
<path d="M160.424 126.805C160.548 127.316 160.603 127.842 160.587 128.368C160.628 128.892 160.599 129.42 160.502 129.937C160.432 129.419 160.405 128.895 160.42 128.371C160.38 127.85 160.381 127.326 160.424 126.805Z" fill="#263238"/>
<path d="M150.402 130.012C150.73 129.861 151.069 129.736 151.417 129.64C152.054 129.443 152.939 129.197 153.928 128.959C154.918 128.721 155.814 128.539 156.473 128.423C156.824 128.344 157.181 128.296 157.541 128.278C157.198 128.389 156.849 128.476 156.495 128.539C155.848 128.684 154.951 128.885 153.966 129.119C152.98 129.353 152.106 129.588 151.451 129.755C151.107 129.864 150.757 129.95 150.402 130.012Z" fill="#263238"/>
<path d="M158.616 139.773C157.414 138.858 156.138 138.679 154.632 138.739C153.12 138.836 151.64 139.215 150.268 139.855C147.906 140.889 145.689 142.411 144.279 144.568C142.869 146.726 142.374 149.583 143.431 151.93C143.514 152.176 143.684 152.383 143.911 152.51C144.172 152.588 144.452 152.566 144.699 152.451C147.385 151.577 150.089 150.691 152.556 149.319C155.022 147.946 157.273 146.041 158.597 143.549C158.937 142.96 159.153 142.308 159.233 141.633C159.269 141.297 159.232 140.957 159.126 140.636C159.019 140.315 158.845 140.021 158.616 139.773Z" fill="#FFC100"/>
<path d="M158.642 139.49C158.579 139.52 158.514 139.546 158.448 139.569L157.887 139.762L157.478 139.896L157.001 140.082C156.663 140.22 156.257 140.357 155.852 140.558L155.193 140.859C154.967 140.964 154.74 141.094 154.498 141.231C154.01 141.469 153.519 141.775 153.01 142.087C150.757 143.478 148.755 145.239 147.088 147.295C146.716 147.779 146.344 148.225 146.046 148.679C145.893 148.902 145.737 149.11 145.603 149.326C145.469 149.542 145.343 149.743 145.231 149.94C144.978 150.312 144.789 150.684 144.61 151.019C144.524 151.179 144.439 151.327 144.365 151.469L144.179 151.841C144.071 152.057 143.985 152.235 143.918 152.373C143.888 152.436 143.853 152.497 143.814 152.555C143.831 152.487 143.854 152.421 143.885 152.358C143.947 152.217 144.025 152.034 144.119 151.811C144.175 151.692 144.231 151.558 144.294 151.417C144.357 151.275 144.443 151.123 144.528 150.959C144.699 150.636 144.882 150.256 145.127 149.866L145.499 149.241C145.629 149.025 145.786 148.813 145.938 148.586C146.232 148.125 146.597 147.671 146.969 147.183C147.81 146.152 148.73 145.188 149.721 144.3C150.727 143.429 151.8 142.639 152.932 141.938C153.46 141.629 153.958 141.328 154.453 141.094C154.695 140.971 154.926 140.845 155.156 140.74L155.822 140.45C156.246 140.253 156.644 140.123 156.986 139.996C157.161 139.933 157.321 139.87 157.47 139.822L157.883 139.699L158.456 139.535C158.516 139.514 158.579 139.499 158.642 139.49Z" fill="#263238"/>
<path d="M149.234 144.572C148.276 144.939 147.298 145.253 146.306 145.513C145.33 145.83 144.336 146.092 143.33 146.298C144.288 145.93 145.265 145.614 146.258 145.353C147.235 145.039 148.228 144.778 149.234 144.572Z" fill="#263238"/>
<path d="M149.115 151.045C149.064 150.744 149.043 150.438 149.052 150.133C149.033 149.568 149.033 148.79 149.052 147.927C149.07 147.064 149.122 146.287 149.171 145.725C149.178 145.419 149.217 145.115 149.286 144.817C149.311 145.122 149.311 145.428 149.286 145.733C149.264 146.35 149.241 147.102 149.215 147.931C149.189 148.761 149.178 149.516 149.159 150.133C149.17 150.438 149.155 150.743 149.115 151.045Z" fill="#263238"/>
<path d="M154.65 148.225C154.605 148.225 154.457 146.644 154.323 144.687C154.189 142.731 154.114 141.138 154.159 141.135C154.204 141.131 154.352 142.716 154.49 144.676C154.628 146.637 154.698 148.221 154.65 148.225Z" fill="#263238"/>
<path d="M147.761 140.982C148.072 140.944 148.385 140.934 148.698 140.952C149.278 140.952 150.075 140.975 150.956 141.004C151.838 141.034 152.638 141.068 153.218 141.101C153.532 141.101 153.844 141.132 154.152 141.194C153.841 141.23 153.527 141.238 153.214 141.22C152.634 141.22 151.834 141.202 150.952 141.172C150.071 141.142 149.271 141.105 148.694 141.071C148.381 141.07 148.069 141.04 147.761 140.982Z" fill="#263238"/>
<path d="M161.056 160.263C161.042 160.202 161.036 160.139 161.037 160.077C161.037 159.936 161.037 159.757 161.011 159.538C160.989 159.069 160.985 158.392 161.011 157.555C161.037 156.718 161.082 155.721 161.182 154.62C161.283 153.519 161.45 152.31 161.677 151.048C161.904 149.787 162.187 148.601 162.473 147.529C162.76 146.458 163.065 145.509 163.347 144.717C163.63 143.925 163.868 143.292 164.054 142.857L164.266 142.359C164.287 142.298 164.316 142.241 164.352 142.187C164.339 142.25 164.321 142.311 164.296 142.37L164.114 142.879C163.946 143.315 163.723 143.954 163.459 144.739C163.195 145.524 162.909 146.488 162.622 147.555C162.336 148.623 162.072 149.81 161.841 151.063C161.61 152.317 161.469 153.522 161.339 154.62C161.208 155.717 161.16 156.71 161.13 157.544C161.101 158.377 161.056 159.08 161.056 159.538C161.056 159.757 161.056 159.936 161.056 160.077C161.062 160.139 161.062 160.201 161.056 160.263Z" fill="#263238"/>
<path d="M161.8 151.097C161.64 151.323 161.452 151.53 161.242 151.711C160.87 152.083 160.368 152.555 159.78 153.072C159.192 153.589 158.664 154.032 158.24 154.344C158.031 154.527 157.803 154.686 157.559 154.817C157.742 154.609 157.945 154.42 158.165 154.251L159.653 152.946L161.141 151.625C161.345 151.43 161.565 151.253 161.8 151.097Z" fill="#263238"/>
<path d="M166.219 154.668C165.998 154.41 165.799 154.134 165.624 153.842L164.24 151.826C163.705 151.063 163.217 150.379 162.827 149.825C162.617 149.558 162.428 149.275 162.261 148.98C162.503 149.22 162.724 149.478 162.923 149.754C163.295 150.249 163.831 150.941 164.378 151.729C164.925 152.518 165.393 153.243 165.721 153.779C165.912 154.061 166.079 154.358 166.219 154.668Z" fill="#263238"/>
<path d="M163.898 143.456C163.92 143.497 162.451 144.486 160.61 145.688C158.768 146.89 157.262 147.801 157.232 147.76C157.202 147.719 158.679 146.73 160.517 145.528C162.354 144.326 163.872 143.404 163.898 143.456Z" fill="#263238"/>
<path d="M168.046 147.92C166.525 146.589 165.078 145.176 163.712 143.687C164.492 144.332 165.237 145.019 165.944 145.744C166.685 146.429 167.387 147.156 168.046 147.92Z" fill="#263238"/>
<path d="M169.091 147.831L170.352 147.727C171.249 147.654 172.12 147.387 172.904 146.945C173.287 146.72 173.685 146.521 174.095 146.35C175.657 145.721 177.402 145.833 179.079 145.747C181.833 145.609 184.531 144.919 187.014 143.72C187.159 143.654 187.279 143.545 187.36 143.408C187.617 142.935 187.137 142.515 186.72 142.258C184.592 140.945 182.427 139.617 180.024 138.966C177.621 138.315 174.868 138.426 172.807 139.844C170.389 141.507 169.511 144.925 169.087 147.831" fill="#FFC100"/>
<path d="M187.386 143.251C187.312 143.225 187.241 143.191 187.174 143.151L186.575 142.838C186.054 142.567 185.307 142.161 184.343 141.722C183.243 141.183 182.098 140.743 180.921 140.406C179.481 139.99 177.972 139.863 176.483 140.034C174.992 140.2 173.583 140.805 172.435 141.771C171.539 142.61 170.822 143.622 170.33 144.747C169.987 145.5 169.681 146.27 169.415 147.053C169.318 147.317 169.244 147.529 169.188 147.689C169.166 147.766 169.136 147.839 169.099 147.909C169.112 147.831 169.13 147.754 169.154 147.678C169.207 147.514 169.27 147.306 169.352 147.031C169.594 146.236 169.884 145.457 170.222 144.698C170.708 143.554 171.428 142.524 172.335 141.674C173.5 140.679 174.937 140.055 176.461 139.885C177.971 139.704 179.502 139.831 180.962 140.257C182.146 140.602 183.296 141.058 184.395 141.618C185.336 142.087 186.077 142.504 186.586 142.798L187.17 143.136C187.246 143.168 187.318 143.206 187.386 143.251Z" fill="#263238"/>
<path d="M184.354 144.881C184.328 144.922 182.673 143.85 180.664 142.496C178.655 141.142 177.041 140.007 177.067 139.967C177.093 139.926 178.744 140.997 180.757 142.355C182.769 143.713 184.38 144.843 184.354 144.881Z" fill="#263238"/>
<path d="M182.591 139.881C182.203 140.013 181.796 140.086 181.386 140.097C180.98 140.158 180.568 140.158 180.162 140.097C180.563 140.024 180.968 139.983 181.375 139.974C181.777 139.911 182.184 139.879 182.591 139.881Z" fill="#263238"/>
<path d="M175.356 138.94C175.221 139.249 175.038 139.534 174.812 139.784C174.623 140.077 174.393 140.34 174.128 140.565C174.263 140.262 174.447 139.982 174.671 139.736C174.859 139.439 175.09 139.171 175.356 138.94Z" fill="#263238"/>
<path d="M176.836 145.855C176.557 145.739 176.29 145.594 176.04 145.424C175.564 145.134 174.924 144.71 174.229 144.211C173.533 143.713 172.934 143.236 172.495 142.891C172.25 142.715 172.021 142.519 171.811 142.303C172.074 142.442 172.323 142.607 172.555 142.794L174.318 144.073C175.002 144.572 175.635 145.011 176.096 145.323C176.357 145.48 176.604 145.658 176.836 145.855Z" fill="#263238"/>
<path d="M170.951 153.199C169.746 152.882 168.31 154.054 168.061 155.274C167.811 156.495 168.269 157.744 168.805 158.872C169.95 161.398 171.655 163.632 173.789 165.404C175.94 167.173 178.627 168.162 181.412 168.209C180.902 165.843 181.546 163.373 181.263 160.966C181.012 158.848 180.05 156.878 178.534 155.377C177.019 153.876 175.039 152.934 172.919 152.704C172.149 152.622 171.256 152.499 170.951 153.21" fill="#FFC100"/>
<path d="M181.412 168.198C181.352 168.178 181.294 168.15 181.241 168.116C181.08 168.031 180.927 167.93 180.787 167.815C180.282 167.375 179.878 166.832 179.6 166.222C179.407 165.85 179.191 165.445 178.983 164.998L178.332 163.563C178.1 163.035 177.834 162.523 177.536 162.03C177.208 161.508 176.843 161.01 176.442 160.542C175.616 159.571 174.731 158.734 173.961 157.938C173.268 157.239 172.637 156.481 172.075 155.672C171.697 155.124 171.386 154.532 171.148 153.909C171.074 153.686 171.018 153.515 170.988 153.392C170.967 153.332 170.955 153.269 170.951 153.206C170.951 153.206 171.033 153.452 171.212 153.887C171.468 154.493 171.79 155.069 172.171 155.605C172.743 156.4 173.379 157.147 174.072 157.837C174.842 158.63 175.735 159.467 176.568 160.441C176.979 160.917 177.352 161.423 177.684 161.956C177.982 162.457 178.248 162.976 178.48 163.51L179.117 164.95C179.317 165.396 179.526 165.806 179.712 166.181C179.971 166.784 180.351 167.327 180.828 167.777C181.181 168.067 181.419 168.183 181.412 168.198Z" fill="#263238"/>
<path d="M175.192 166.23C175.202 165.956 175.239 165.685 175.303 165.419C175.4 164.924 175.553 164.243 175.761 163.499C175.969 162.755 176.196 162.097 176.375 161.639C176.457 161.38 176.567 161.131 176.702 160.895C176.655 161.164 176.583 161.428 176.486 161.684C176.338 162.164 176.133 162.83 175.925 163.566C175.716 164.303 175.553 164.98 175.419 165.467C175.369 165.728 175.293 165.984 175.192 166.23Z" fill="#263238"/>
<path d="M181.181 160.423C180.893 160.382 180.609 160.316 180.333 160.226C179.816 160.092 179.098 159.906 178.298 159.727C177.498 159.549 176.773 159.407 176.245 159.307C175.957 159.27 175.673 159.207 175.396 159.117C175.687 159.114 175.977 159.138 176.263 159.188C176.799 159.259 177.535 159.381 178.335 159.56C179.135 159.738 179.853 159.932 180.366 160.11C180.649 160.183 180.922 160.288 181.181 160.423Z" fill="#263238"/>
<path d="M170.706 162.108C170.72 161.792 170.763 161.478 170.836 161.171C170.944 160.594 171.111 159.805 171.338 158.939C171.565 158.072 171.803 157.298 171.989 156.748C172.077 156.443 172.193 156.146 172.335 155.862C172.284 156.174 172.207 156.482 172.104 156.781C171.944 157.343 171.732 158.116 171.498 158.98C171.264 159.843 171.089 160.624 170.951 161.193C170.897 161.505 170.815 161.811 170.706 162.108Z" fill="#263238"/>
<path d="M178.417 155.36C178.417 155.405 176.907 155.286 175.069 155.088C173.232 154.891 171.721 154.694 171.721 154.649C171.721 154.605 173.232 154.724 175.069 154.921C176.907 155.118 178.421 155.315 178.417 155.36Z" fill="#263238"/>
<path d="M177.316 173.607C177.316 173.651 172.026 173.688 165.505 173.688C158.984 173.688 153.69 173.651 153.69 173.607C153.69 173.562 158.98 173.521 165.505 173.521C172.03 173.521 177.316 173.558 177.316 173.607Z" fill="#455A64"/>
<path d="M173.637 180.41C173.637 180.459 170.073 180.496 165.676 180.496C161.279 180.496 157.719 180.459 157.719 180.41C157.719 180.362 161.283 180.329 165.676 180.329C170.07 180.329 173.637 180.366 173.637 180.41Z" fill="#455A64"/>
<path d="M173.496 181.4C173.496 181.445 169.995 181.482 165.684 181.482C161.372 181.482 157.872 181.445 157.872 181.4C157.872 181.355 161.372 181.314 165.684 181.314C169.995 181.314 173.496 181.337 173.496 181.4Z" fill="#455A64"/>
<path d="M173.775 179.611C173.775 179.655 170.088 179.692 165.542 179.692C160.997 179.692 157.31 179.655 157.31 179.611C157.31 179.566 160.997 179.525 165.542 179.525C170.088 179.525 173.775 179.562 173.775 179.611Z" fill="#455A64"/>
<path d="M172.216 39.2716C172.216 39.3274 169.72 39.3572 166.636 39.3423C163.552 39.3274 161.056 39.2679 161.056 39.2158C161.056 39.1638 163.552 39.1303 166.636 39.1452C169.72 39.16 172.216 39.2196 172.216 39.2716Z" fill="#263238"/>
<path d="M166.677 44.8182C166.625 44.8182 166.558 42.3258 166.524 39.2382C166.491 36.1506 166.524 33.6582 166.565 33.6582C166.606 33.6582 166.688 36.1506 166.718 39.2382C166.748 42.3258 166.733 44.8182 166.677 44.8182Z" fill="#263238"/>
<path d="M178.079 122.529C176.911 122.042 175.769 121.495 174.657 120.892C173.51 120.345 172.392 119.739 171.309 119.077C171.331 119.032 172.864 119.765 174.731 120.717C176.598 121.67 178.105 122.484 178.079 122.529Z" fill="#263238"/>
<path d="M173.027 124.21C173.496 123.034 174.026 121.883 174.615 120.762C175.144 119.616 175.731 118.499 176.375 117.414C175.904 118.59 175.374 119.741 174.786 120.862C174.257 122.007 173.67 123.125 173.027 124.21Z" fill="#263238"/>
<path d="M44.5457 96.3365C44.5457 96.3885 42.7824 97.1437 40.569 98.0253C38.3556 98.907 36.5402 99.584 36.5216 99.5356C36.503 99.4873 38.2812 98.7284 40.4983 97.8468C42.7154 96.9651 44.5234 96.2881 44.5457 96.3365Z" fill="#263238"/>
<path d="M40.439 93.9184C40.439 93.9184 40.3758 93.8106 40.2419 93.6394C40.0522 93.4026 39.7913 93.233 39.4979 93.1558C39.262 93.0929 39.0134 93.0968 38.7796 93.167C38.5458 93.2373 38.3362 93.3711 38.1741 93.5535C38.012 93.736 37.9037 93.9599 37.8615 94.2003C37.8193 94.4407 37.8447 94.6881 37.9349 94.9149C38.0251 95.1417 38.1765 95.339 38.3723 95.4847C38.5681 95.6304 38.8006 95.7188 39.0437 95.7401C39.2869 95.7614 39.5312 95.7147 39.7493 95.6052C39.9674 95.4957 40.1509 95.3277 40.2791 95.12C40.4412 94.8615 40.5143 94.5571 40.4874 94.2532C40.4874 94.0375 40.4241 93.9221 40.439 93.9147C40.507 94.0131 40.5492 94.1269 40.5618 94.2458C40.6216 94.5702 40.5635 94.9053 40.3981 95.1907C40.2758 95.4075 40.1003 95.5895 39.8881 95.7197C39.6759 95.8499 39.4341 95.9238 39.1854 95.9347C38.8785 95.946 38.5757 95.8621 38.3184 95.6945C38.0611 95.5269 37.862 95.2838 37.7483 94.9986C37.6346 94.7134 37.612 94.4 37.6834 94.1013C37.7549 93.8027 37.917 93.5335 38.1475 93.3307C38.3336 93.167 38.5583 93.0535 38.8004 93.0007C39.0425 92.948 39.2941 92.9579 39.5313 93.0294C39.8479 93.1208 40.1211 93.3227 40.3014 93.5985C40.3719 93.6928 40.4191 93.8024 40.439 93.9184Z" fill="#263238"/>
<path d="M43.229 100.916C43.2104 100.916 43.1658 100.808 43.0319 100.637C42.8433 100.399 42.582 100.229 42.2879 100.153C42.0742 100.098 41.8504 100.097 41.6363 100.15C41.4221 100.202 41.2243 100.307 41.0603 100.454C40.8611 100.634 40.7218 100.87 40.6609 101.132C40.6001 101.393 40.6207 101.666 40.7199 101.915C40.8192 102.165 40.9924 102.377 41.2161 102.525C41.4399 102.673 41.7036 102.749 41.9717 102.742C42.1948 102.74 42.4138 102.682 42.6087 102.574C42.8037 102.465 42.9683 102.31 43.0877 102.121C43.248 101.862 43.321 101.558 43.296 101.254C43.296 101.039 43.229 100.923 43.2476 100.916C43.3152 101.013 43.3574 101.125 43.3704 101.243C43.429 101.569 43.3696 101.905 43.203 102.192C43.0815 102.408 42.9067 102.591 42.6951 102.721C42.4835 102.851 42.2422 102.925 41.994 102.936C41.6871 102.947 41.3843 102.863 41.127 102.696C40.8697 102.528 40.6706 102.285 40.5569 102C40.4432 101.714 40.4206 101.401 40.492 101.102C40.5635 100.804 40.7256 100.535 40.9561 100.332C41.1432 100.17 41.3677 100.057 41.6094 100.004C41.851 99.9506 42.1021 99.9584 42.3399 100.027C42.6557 100.122 42.9282 100.324 43.11 100.6C43.1745 100.694 43.2153 100.802 43.229 100.916Z" fill="#263238"/>
<path d="M65.3443 57.667C65.3443 57.667 65.3852 57.7675 65.4559 57.9609C65.5266 58.1544 65.6307 58.4482 65.7646 58.8202C66.0325 59.5642 66.4268 60.6802 66.929 62.1236L66.955 62.1906H66.8806L62.1042 61.5284H62.1525C60.486 62.8374 58.5128 63.6992 56.42 64.032C55.8306 64.1265 55.235 64.1774 54.6381 64.1845C54.3331 64.1845 54.0243 64.1584 53.7118 64.151L53.2468 64.1287C53.0906 64.1287 52.9344 64.084 52.7781 64.0617C51.471 63.9023 50.1997 63.5251 49.0172 62.9457C47.7549 62.3343 46.6024 61.5185 45.606 60.5314C44.2884 59.2159 43.2808 57.623 42.6567 55.8688C42.0327 54.1146 41.8078 52.2433 41.9984 50.3912C42.1891 48.5391 42.7905 46.7528 43.7589 45.1626C44.7273 43.5723 46.0382 42.2181 47.5962 41.1986C48.709 40.4671 49.9343 39.923 51.2232 39.5878L51.6956 39.4651L51.93 39.4056L52.168 39.3684L53.1204 39.227C53.4366 39.1972 53.7528 39.1898 54.069 39.1712C54.381 39.1489 54.6943 39.1489 55.0064 39.1712C55.3152 39.1972 55.6276 39.1712 55.929 39.2382L56.8329 39.3795C57.1305 39.4279 57.4207 39.5209 57.7108 39.5916L58.1424 39.7032C58.2837 39.7478 58.4214 39.8036 58.559 39.852C61.617 40.9123 64.1407 43.1237 65.5935 46.016C66.3518 47.5231 66.7972 49.1682 66.903 50.852C67.0442 52.9358 66.6444 55.0207 65.7423 56.9044C65.6196 57.1537 65.5228 57.3397 65.4559 57.4587C65.3889 57.5778 65.3443 57.6447 65.3443 57.6447C65.3443 57.6447 65.3703 57.5815 65.4336 57.455C65.4968 57.3285 65.5935 57.1388 65.7051 56.8896C66.0374 56.1611 66.299 55.4025 66.4863 54.6241C66.7886 53.3936 66.8916 52.1226 66.7914 50.8594C66.6355 48.4352 65.7666 46.1111 64.294 44.1792C62.8213 42.2472 60.8106 40.7935 58.5144 40.0008C58.3767 39.9524 58.2428 39.9003 58.1014 39.8557L57.6774 39.7441C57.3909 39.6771 57.1045 39.5841 56.8106 39.5395L55.9178 39.4018C55.6202 39.3498 55.3152 39.3609 55.0064 39.3386C54.6994 39.3144 54.3909 39.3144 54.0838 39.3386C53.7751 39.3386 53.4626 39.3646 53.1501 39.3907L52.2127 39.5358L51.9783 39.573L51.744 39.6325L51.279 39.7515C50.0105 40.0829 48.8052 40.6208 47.7115 41.3437C45.8815 42.5349 44.4012 44.1913 43.4223 46.1431C42.4434 48.0949 42.0011 50.2719 42.1408 52.451C42.2805 54.63 42.9971 56.7327 44.2172 58.5436C45.4373 60.3544 47.117 61.8082 49.0842 62.756C50.2528 63.334 51.5104 63.7112 52.8042 63.872C52.9567 63.8943 53.1092 63.9241 53.2654 63.939L53.7267 63.9613C54.0355 63.9613 54.3368 64.0059 54.6381 63.9985C55.2274 63.9941 55.8156 63.9456 56.3977 63.8534C58.4688 63.5347 60.4241 62.6922 62.0781 61.4056H62.1004H62.1042L66.8881 62.0901L66.8397 62.1459C66.3524 60.7063 65.9767 59.5866 65.7237 58.7979L65.4373 57.9386C65.3703 57.7675 65.3443 57.667 65.3443 57.667Z" fill="#263238"/>
<path d="M55.0955 48.7762C55.18 48.8173 55.2513 48.8813 55.3013 48.9608C55.3513 49.0404 55.3779 49.1324 55.3782 49.2264V51.7039C55.3776 51.7804 55.3593 51.8558 55.3249 51.9242C55.2905 51.9926 55.2407 52.0521 55.1796 52.0981C55.1184 52.1442 55.0475 52.1755 54.9722 52.1897C54.897 52.2039 54.8195 52.2006 54.7458 52.18C54.5415 52.1278 54.3289 52.1174 54.1205 52.1493C53.9121 52.1813 53.7123 52.255 53.5331 52.366C53.3689 52.4616 53.2256 52.5892 53.1119 52.7413C52.9981 52.8934 52.9161 53.0669 52.8709 53.2514C52.8396 53.4396 52.8459 53.6321 52.8893 53.8179C52.9327 54.0037 53.0124 54.1791 53.1239 54.3339C53.2415 54.5085 53.3923 54.6582 53.5679 54.7744C53.7434 54.8906 53.9402 54.971 54.1469 55.011C54.5666 55.053 54.9882 54.951 55.3424 54.7219C55.6966 54.4927 55.9624 54.15 56.0962 53.7499C56.1416 53.631 56.2308 53.5341 56.3454 53.4788C56.46 53.4236 56.5914 53.4143 56.7127 53.4528C56.8339 53.4913 56.9359 53.5748 56.9976 53.686C57.0594 53.7973 57.0762 53.9279 57.0448 54.0512C56.8369 54.6769 56.4196 55.2118 55.8632 55.5656C55.3068 55.9193 54.6454 56.0703 53.9906 55.993C53.6508 55.9328 53.3266 55.805 53.0371 55.6171C52.7477 55.4292 52.4989 55.1852 52.3055 54.8994C52.1157 54.6328 51.9816 54.3307 51.9113 54.0111C51.841 53.6915 51.8359 53.361 51.8963 53.0394C51.9691 52.7222 52.1056 52.4232 52.2974 52.1604C52.4892 51.8976 52.7324 51.6765 53.0123 51.5104C53.4254 51.2621 53.8993 51.1334 54.3812 51.1384V49.2264C54.3812 49.0948 54.4332 48.9686 54.5259 48.8752C54.6186 48.7818 54.7444 48.7289 54.876 48.7279C54.9518 48.7275 55.0268 48.744 55.0955 48.7762Z" fill="#FFC100"/>
<path d="M54.4113 47.7346C54.4091 47.6536 54.431 47.5737 54.4743 47.5051C54.5176 47.4366 54.5802 47.3824 54.6543 47.3495C54.7285 47.3166 54.8107 47.3065 54.8906 47.3204C54.9704 47.3343 55.0444 47.3717 55.103 47.4277C55.1616 47.4837 55.2023 47.5558 55.2198 47.635C55.2374 47.7142 55.231 47.7968 55.2015 47.8723C55.1721 47.9478 55.1208 48.0129 55.0543 48.0593C54.9878 48.1056 54.909 48.1312 54.8279 48.1327C54.7203 48.1337 54.6165 48.0927 54.5387 48.0183C54.4609 47.944 54.4152 47.8422 54.4113 47.7346Z" fill="#FFC100"/>
</g>
<defs>
<clipPath id="clip0_171_17118">
<rect width="210" height="210" fill="white"/>
</clipPath>
</defs>
</svg>
