<svg width="121" height="120" viewBox="0 0 121 120" fill="none" xmlns="http://www.w3.org/2000/svg">
<g clip-path="url(#clip0_896_4527)">
<path opacity="0.5" d="M120.5 108.857C120.5 108.891 82.7844 108.785 39.7085 108.785C-3.36737 108.785 0.942223 108.891 0.942223 108.857C0.942223 108.823 -3.38359 108.659 39.7085 108.659C82.8007 108.659 120.5 108.82 120.5 108.857Z" fill="#263238"/>
<path d="M21.4311 59.5139C0.0223198 71.9387 0.0223198 92.0843 21.4311 104.509C42.8399 116.934 77.5792 116.936 98.9976 104.509C120.416 92.0819 120.416 71.9387 98.9976 59.5139C77.5792 47.0891 42.8494 47.0891 21.4311 59.5139Z" fill="#FAFAFA"/>
<path d="M36.1043 105.493C45.5825 105.493 53.2662 101.035 53.2662 95.5357C53.2662 90.0363 45.5825 85.5781 36.1043 85.5781C26.626 85.5781 18.9424 90.0363 18.9424 95.5357C18.9424 101.035 26.626 105.493 36.1043 105.493Z" fill="#E0E0E0"/>
<path d="M88.7341 100.518C95.8246 100.518 101.573 97.1837 101.573 93.0707C101.573 88.9578 95.8246 85.6235 88.7341 85.6235C81.6435 85.6235 75.8955 88.9578 75.8955 93.0707C75.8955 97.1837 81.6435 100.518 88.7341 100.518Z" fill="#E0E0E0"/>
<path d="M61.7409 107.183L48.5273 99.5175L65.9782 89.4062L79.1775 97.0622L61.7409 107.183Z" fill="#E0E0E0"/>
<path d="M91.7577 90.8172C90.1048 89.8572 87.4248 89.8572 85.7696 90.8172C84.9431 91.2972 84.5323 91.926 84.5347 92.5548V93.2052C84.5347 93.834 84.9431 94.4628 85.7696 94.9428C87.4248 95.9028 90.1048 95.9028 91.7577 94.9428C92.5842 94.4628 92.995 93.834 92.995 93.2052V92.5548C92.995 91.926 92.5842 91.2972 91.7577 90.8172Z" fill="#37474F"/>
<path d="M88.7647 95.01C91.1036 95.01 92.9997 93.9108 92.9997 92.5548C92.9997 91.1988 91.1036 90.0996 88.7647 90.0996C86.4258 90.0996 84.5298 91.1988 84.5298 92.5548C84.5298 93.9108 86.4258 95.01 88.7647 95.01Z" fill="#455A64"/>
<path d="M91.4541 90.198C89.9684 89.3364 87.5607 89.3364 86.0751 90.198C85.3322 90.63 84.962 91.194 84.9644 91.758V92.1828C84.9644 92.7492 85.3322 93.3132 86.0751 93.7428C87.5607 94.6068 89.9684 94.6068 91.4541 93.7428C92.197 93.3132 92.5648 92.7492 92.5648 92.1828C92.5648 92.01 92.5648 91.9308 92.5648 91.7556C92.5648 91.194 92.197 90.63 91.4541 90.198Z" fill="#37474F"/>
<path d="M88.765 93.9634C90.8651 93.9634 92.5676 92.976 92.5676 91.7578C92.5676 90.5397 90.8651 89.5522 88.765 89.5522C86.6649 89.5522 84.9624 90.5397 84.9624 91.7578C84.9624 92.976 86.6649 93.9634 88.765 93.9634Z" fill="#455A64"/>
<path d="M89.2162 13.2803C89.2162 13.153 89.1658 13.0309 89.0762 12.9409C88.9867 12.8509 88.8652 12.8003 88.7385 12.8003C88.6118 12.8003 88.4902 12.8509 88.4007 12.9409C88.3111 13.0309 88.2607 13.153 88.2607 13.2803V91.6811C88.265 91.7238 88.2805 91.7645 88.3057 91.7991C88.3309 91.8338 88.3648 91.861 88.4041 91.8779C88.5097 91.9311 88.6262 91.9588 88.7444 91.9588C88.8626 91.9588 88.9791 91.9311 89.0848 91.8779C89.1236 91.8606 89.157 91.8333 89.1818 91.7987C89.2066 91.7641 89.2217 91.7235 89.2257 91.6811L89.2162 13.2803Z" fill="#37474F"/>
<path opacity="0.2" d="M88.7341 12.7954C88.6074 12.7954 88.4859 12.846 88.3963 12.936C88.3067 13.026 88.2563 13.1481 88.2563 13.2754V13.849C88.4088 13.9082 88.5706 13.9391 88.7341 13.9402C88.8977 13.9394 89.0598 13.9077 89.2118 13.8466V13.2802C89.2124 13.2168 89.2005 13.1538 89.1768 13.095C89.1531 13.0363 89.118 12.9828 89.0736 12.9377C89.0291 12.8926 88.9763 12.8568 88.918 12.8324C88.8597 12.808 88.7972 12.7954 88.7341 12.7954Z" fill="black"/>
<path d="M90.0716 12.3083C90.0716 12.5746 89.993 12.8349 89.8458 13.0563C89.6985 13.2777 89.4892 13.4503 89.2444 13.5522C88.9995 13.6541 88.7301 13.6808 88.4702 13.6288C88.2102 13.5769 87.9715 13.4487 87.7841 13.2604C87.5967 13.0721 87.4691 12.8322 87.4173 12.571C87.3656 12.3098 87.3922 12.0391 87.4936 11.7931C87.595 11.547 87.7668 11.3368 87.9871 11.1888C88.2075 11.0409 88.4666 10.9619 88.7316 10.9619C89.087 10.9619 89.4278 11.1038 89.6791 11.3563C89.9304 11.6088 90.0716 11.9512 90.0716 12.3083Z" fill="#455A64"/>
<path d="M82.8626 70.0595C82.4446 74.7371 89.2353 77.8835 94.4974 76.6979L92.9806 54.1523L84.4582 55.3067L82.8626 70.0595Z" fill="#EBEBEB"/>
<path d="M83.1448 69.2363C83.0164 69.6148 82.9236 70.0045 82.8677 70.4003L85.6145 45.3491C90.2818 46.8059 94.0319 50.6003 94.715 56.0963C95.4507 62.0051 85.1965 62.8691 83.1448 69.2363Z" fill="#E0E0E0"/>
<path opacity="0.2" d="M89.3335 11.1081C89.1488 11.0124 88.9441 10.9624 88.7363 10.9624C88.5285 10.9624 88.3238 11.0124 88.1392 11.1081C88.2172 11.1877 88.3101 11.2508 88.4126 11.2939C88.5152 11.337 88.6252 11.3592 88.7363 11.3592C88.8474 11.3592 88.9575 11.337 89.06 11.2939C89.1625 11.2508 89.2554 11.1877 89.3335 11.1081Z" fill="black"/>
<path d="M89.8325 9.84114C89.8325 10.4483 89.3429 11.1683 88.7386 11.1683C88.1342 11.1683 87.647 10.4483 87.647 9.84114C87.647 9.23394 88.7386 6.54834 88.7386 6.54834C88.7386 6.54834 89.8325 9.23394 89.8325 9.84114Z" fill="#455A64"/>
<path d="M89.2165 13.9883L83.5293 46.6427C83.5293 46.6427 87.6902 48.1691 90.1552 49.8155C94.2158 52.5251 94.7126 56.1755 94.7126 56.1755L89.2165 13.9883Z" fill="#EBEBEB"/>
<path d="M39.9805 92.5165L40.9287 92.0749L40.0067 91.8013L39.9805 92.5165Z" fill="#263238"/>
<path d="M49.2698 94.4079C49.2698 94.4079 38.2824 89.2335 38.12 89.9727C38.089 90.1198 38.089 90.2719 38.12 90.4191L38.0913 90.3783L38.2705 91.7679C38.758 92.1774 39.3525 92.4374 39.9831 92.5167C39.9831 92.4495 39.9998 92.0367 40.0069 91.7967C40.3465 91.9425 40.6713 92.1209 40.9767 92.3295C41.6789 92.8095 42.1208 93.6375 42.8589 94.5999C43.3939 95.3007 44.3685 95.6415 45.8183 95.8743C47.3757 96.1143 48.7587 95.8503 49.1623 95.4423C49.4657 95.1207 49.3248 94.5063 49.2698 94.4079Z" fill="#263238"/>
<path d="M48.9688 94.1463C48.8637 94.0335 48.4744 93.5919 47.9489 93.1119C47.4476 92.6241 46.9223 92.162 46.3748 91.7271C46.0955 91.5272 45.8334 91.304 45.5914 91.0599C45.4027 90.8511 45.2212 90.6351 45.0516 90.4071C44.5375 89.6971 44.1026 88.9325 43.7546 88.1271C43.5574 87.7472 43.4082 87.3441 43.3103 86.9271C43.2363 86.4919 43.2003 86.051 43.2028 85.6095C43.2243 83.6223 43.2745 83.3079 43.3103 81.7959L38.6215 81.8631C38.7601 82.7031 38.9727 83.8527 39.0371 84.8079C39.1327 86.2479 39.1661 86.5815 38.5594 88.0167C38.3851 88.4391 38.1271 88.8423 38.096 89.2983C38.0483 90.0399 38.6215 90.6903 39.2712 91.0647C39.8087 91.3767 40.4321 91.5159 40.9432 91.8471C41.4739 92.2191 41.9335 92.6841 42.2999 93.2199C42.663 93.6999 42.952 94.2663 43.4703 94.6095C44.0436 94.9887 44.5954 95.1135 45.2665 95.2623C46.0646 95.4189 46.8791 95.4745 47.6909 95.4279C48.8637 95.3679 49.7284 94.9671 48.9688 94.1463Z" fill="#FFBDA7"/>
<path d="M48.3479 93.3255C47.8702 92.9175 47.211 92.3319 46.4036 91.6743C46.1243 91.5714 45.8263 91.529 45.5295 91.5501C45.2327 91.5712 44.9436 91.6553 44.6815 91.7967C43.0095 92.6271 42.7133 93.8415 42.7133 93.8415C42.9809 94.4003 43.456 94.8312 44.0366 95.0415C45.9259 95.9031 49.3368 95.7039 49.387 94.8327C49.418 94.2711 48.9188 93.8199 48.3479 93.3255ZM38.6838 87.7119C38.6838 87.7119 38.5667 87.9951 38.2658 88.5495C37.9648 89.1039 37.9003 89.6631 38.2514 90.2295C38.4331 90.5251 38.673 90.7802 38.9564 90.9791C39.2399 91.1781 39.5608 91.3167 39.8995 91.3863C40.4585 89.7447 39.3382 88.0791 38.6838 87.7119Z" fill="#37474F"/>
<path d="M29.803 89.8527C30.1111 90.3567 29.6835 92.2287 29.7385 93.5679C29.791 94.7823 30.0944 96.9063 29.7026 98.1015C29.2249 99.5175 28.3077 101.159 26.6285 99.8055C25.5895 98.9679 24.9995 97.8855 24.8777 96.1431C24.7917 94.9263 25.3029 93.2487 25.7424 91.7631C26.2559 90.0279 26.459 89.0991 26.459 89.0991L29.803 89.8527Z" fill="#263238"/>
<path d="M26.4303 80.8501C26.2775 83.6821 26.588 85.6765 26.5856 87.4933C26.5693 88.3168 26.4725 89.1368 26.2966 89.9413C26.041 91.0957 25.6134 92.7013 25.4343 93.4501C25.1811 94.4941 24.9924 95.1541 25.3459 96.3301C25.3751 96.4226 25.4135 96.5118 25.4606 96.5965C25.9622 97.5733 27.2568 98.3197 27.6772 98.2069C27.7611 98.3164 27.8747 98.3993 28.0043 98.4457C28.1339 98.4921 28.2741 98.5 28.4081 98.4685C28.455 98.4616 28.5013 98.4511 28.5466 98.4373C28.5947 98.4229 28.6418 98.4052 28.6875 98.3845C28.8585 98.2934 29.009 98.168 29.1298 98.0161C29.2506 97.8642 29.3391 97.689 29.3898 97.5013C29.4185 97.4172 29.4424 97.3314 29.4614 97.2445C29.7815 95.7877 29.5713 94.8445 29.5498 94.2709C29.5235 93.6109 29.5737 92.7733 29.6454 91.7101C29.717 90.6469 30.0108 87.3109 30.4025 85.7101C30.6939 84.5989 31.057 83.2045 31.4392 81.7189L26.4303 80.8501Z" fill="#FFBDA7"/>
<path d="M25.1646 94.823C26.1964 94.3886 29.1774 94.3598 29.636 95.7974C29.636 97.1462 29.636 98.0606 28.7546 99.2246C27.589 100.77 26.1128 99.0998 25.5515 98.0438C24.9902 96.9878 25.0165 95.543 25.1646 94.823Z" fill="#37474F"/>
<path d="M30.1328 45.623C28.6518 48.059 28.2219 49.8974 27.7752 56.375C27.2617 63.683 27.2975 66.4694 27.245 67.3526C27.1924 68.2358 26.5762 69.8486 26.0125 74.1878C25.4488 78.527 25.8644 89.0678 25.8644 89.0678C25.8644 89.0678 26.2179 89.7878 27.9806 89.9654C29.6049 90.1311 30.5675 89.6054 30.5675 89.6054C30.5675 89.6054 33.7682 76.7942 34.2769 74.147C34.9553 70.5998 36.6129 61.9958 36.6129 61.9958L37.5397 69.0038C37.5397 69.0038 36.9975 71.4038 37.4203 75.2174C37.8431 79.031 38.6647 86.7542 38.6647 86.7542C39.4533 87.0703 40.2796 87.2816 41.1226 87.383C42.0434 87.4967 42.9779 87.4058 43.8599 87.1166C43.8599 87.1166 45.4101 71.5863 45.4937 67.2638C45.5773 62.9415 44.9085 52.199 43.5828 45.7694L30.1328 45.623Z" fill="#455A64"/>
<path d="M37.9072 55.2564L36.615 62.0916L37.5394 69.0132L37.4223 62.3892L38.8029 55.9644C40.2623 55.7436 41.877 53.9196 42.3046 52.4772C40.7831 54.4308 37.9072 55.2564 37.9072 55.2564ZM33.154 48.6948C33.3641 48.0132 33.5815 47.3388 33.8275 46.6572C33.4138 47.2572 33.0669 47.9011 32.7933 48.5772C32.5187 49.2449 32.2842 49.9286 32.091 50.6244C31.8998 51.3164 31.7459 52.0182 31.63 52.7268C31.5052 53.4329 31.4397 54.1482 31.4342 54.8652C31.6324 54.174 31.8187 53.4852 32.0027 52.7964C32.1866 52.1076 32.3705 51.4212 32.564 50.7372C32.7575 50.0532 32.9509 49.3764 33.154 48.6948ZM32.0528 48.162C32.3108 47.7492 32.5711 47.334 32.81 46.8972C32.4195 47.2181 32.0603 47.5757 31.7375 47.9652C31.4174 48.3438 31.1245 48.7449 30.8609 49.1652C30.601 49.5848 30.3765 50.0256 30.1897 50.4828C29.9971 50.9347 29.8677 51.4112 29.8052 51.8988L30.5361 50.6292C30.7749 50.214 31.0281 49.7988 31.2861 49.3884C31.5441 48.978 31.7901 48.5748 32.0528 48.162Z" fill="#37474F"/>
<path d="M60.5986 35.543C61.492 35.6798 62.8415 35.783 63.4267 36.4214C64.0119 37.0598 63.9856 37.3598 63.9856 37.3598L61.2364 38.663L60.5986 35.543Z" fill="#F0997A"/>
<path d="M58.3821 36.3014C57.6369 36.7262 52.714 39.3494 50.9775 40.0766L52.7546 44.0006C54.4386 42.9134 56.9537 41.1206 58.2006 40.7942C59.4689 41.5142 60.1258 40.979 60.9044 41.2742L61.5565 36.3182C61.5565 36.3182 59.4355 35.7014 58.3821 36.3014Z" fill="#FFBDA7"/>
<path d="M57.6013 42.9468C57.4909 42.8713 57.4147 42.755 57.3892 42.6233C57.3637 42.4916 57.391 42.3551 57.4652 42.2436L63.974 32.5308L64.81 33.0972L58.3036 42.8076C58.2667 42.8633 58.2193 42.9111 58.164 42.9483C58.1087 42.9854 58.0466 43.0112 57.9813 43.0242C57.916 43.0371 57.8488 43.0369 57.7836 43.0237C57.7184 43.0104 57.6564 42.9842 57.6013 42.9468Z" fill="black"/>
<path d="M64.3153 28.1029C63.9713 27.8509 63.4626 27.8245 62.8678 28.0885C61.6735 28.6141 60.5891 30.0973 60.4458 31.3981C60.3741 32.0485 60.5533 32.5309 60.8972 32.7829L61.5804 33.2893C61.9243 33.5437 62.4331 33.5701 63.0302 33.3061C64.2245 32.7805 65.3089 31.2973 65.4522 29.9965C65.5239 29.3461 65.3471 28.8637 65.0008 28.6093L64.3153 28.1029Z" fill="#37474F"/>
<path d="M63.5584 28.5829C64.7527 28.0549 65.603 28.6837 65.4693 29.9869C65.3355 31.2901 64.2415 32.7709 63.0473 33.2965C61.853 33.8221 61.0026 33.1957 61.1364 31.8925C61.2702 30.5893 62.3641 29.1085 63.5584 28.5829Z" fill="#263238"/>
<path d="M64.8384 28.8974C64.535 28.6742 64.086 28.6574 63.5605 28.883C62.9979 29.1663 62.5099 29.5793 62.1364 30.0881C61.7628 30.5969 61.5142 31.1873 61.4108 31.811C61.3463 32.3846 61.5039 32.8118 61.8073 33.035L66.207 36.2846C66.5128 36.5102 66.9618 36.5246 67.4897 36.3014C68.0517 36.0179 68.5393 35.6053 68.9128 35.097C69.2864 34.5886 69.5353 33.9989 69.6394 33.3758C69.7015 32.7998 69.5439 32.375 69.2405 32.1494L64.8384 28.8974Z" fill="#FFD000"/>
<path opacity="0.3" d="M64.8384 28.8974C64.535 28.6742 64.086 28.6574 63.5605 28.883C62.9979 29.1663 62.5099 29.5793 62.1364 30.0881C61.7628 30.5969 61.5142 31.1873 61.4108 31.811C61.3463 32.3846 61.5039 32.8118 61.8073 33.035L66.207 36.2846C66.5128 36.5102 66.9618 36.5246 67.4897 36.3014C68.0517 36.0179 68.5393 35.6053 68.9128 35.097C69.2864 34.5886 69.5353 33.9989 69.6394 33.3758C69.7015 32.7998 69.5439 32.375 69.2405 32.1494L64.8384 28.8974Z" fill="white"/>
<path opacity="0.6" d="M68.4717 35.615L61.7837 30.6758C61.5958 31.029 61.4735 31.4137 61.423 31.811C61.3585 32.3846 61.5161 32.8118 61.8195 33.035L66.2192 36.2846C66.525 36.5102 66.974 36.5246 67.5019 36.3014C67.864 36.1338 68.1926 35.9011 68.4717 35.615Z" fill="#FFD000"/>
<path d="M68.7535 31.3719C68.4119 31.1199 67.9031 31.0935 67.3084 31.3575C66.1141 31.8831 65.0297 33.3639 64.8864 34.6671C64.8147 35.3175 64.9915 35.7999 65.3354 36.0519L66.0185 36.5559C66.3625 36.8127 66.8737 36.8391 67.4708 36.5751C68.6651 36.0495 69.7495 34.5663 69.8928 33.2655C69.9645 32.6151 69.7853 32.1327 69.4414 31.8783L68.7535 31.3719Z" fill="#37474F"/>
<path d="M67.989 31.8589C69.1833 31.3333 70.036 31.9621 69.8999 33.2653C69.7637 34.5685 68.6722 36.0493 67.4779 36.5749C66.2836 37.1005 65.4309 36.4717 65.567 35.1709C65.7032 33.8701 66.7947 32.3869 67.989 31.8589Z" fill="#455A64"/>
<path d="M63.9907 37.463C63.9767 37.2507 63.9048 37.0465 63.7829 36.8726L62.7749 37.7726C62.6623 37.9001 62.5216 37.9996 62.3641 38.063L62.0249 41.2358C62.1916 41.1623 62.3456 41.0627 62.4811 40.9406C62.6396 40.828 62.7689 40.6791 62.8585 40.5062C62.9289 40.3261 63.0086 40.1498 63.0974 39.9782C63.2383 39.7646 63.4795 39.6158 63.5512 39.371C63.5711 39.2925 63.5815 39.2119 63.5823 39.131C63.5823 38.963 63.6085 38.795 63.63 38.627C63.6376 38.4796 63.6847 38.337 63.7662 38.2142C63.802 38.1662 63.8498 38.1278 63.8856 38.0774C63.9893 37.8906 64.0264 37.6738 63.9907 37.463Z" fill="#F0997A"/>
<path d="M56.3398 37.4004C57.6153 36.6372 58.6591 35.8284 59.531 35.55C60.4028 35.2716 61.2173 35.6796 62.1035 36.3492C62.3471 36.5392 62.6033 36.7124 62.8702 36.8676C63.1091 37.0044 63.3694 37.1076 63.6178 37.2348C64.0287 37.4436 63.582 37.9356 63.0708 37.9548C62.5427 37.9312 62.0235 37.8091 61.5398 37.5948C60.3885 37.158 60.7969 38.9124 58.8407 39.4668C58.0644 40.1028 56.3398 37.4004 56.3398 37.4004Z" fill="#FFBDA7"/>
<path d="M59.8036 38.7468C58.9915 39.4428 58.1101 39.0132 57.5488 38.6172C57.5488 38.6172 58.2511 39.45 59.0321 39.5004L58.3562 40.9092L59.8036 38.7468Z" fill="#F0997A"/>
<path d="M62.3639 38.0511C62.0362 38.1342 61.6909 38.1141 61.375 37.9935C61.0163 37.8508 60.6494 37.7298 60.2763 37.6311C60.1777 37.5937 60.069 37.5937 59.9705 37.6311C59.9203 37.6665 59.8805 37.7148 59.8553 37.7709C59.8301 37.8271 59.8204 37.8891 59.8272 37.9503C59.8272 38.0727 59.8678 38.1903 59.875 38.3127C59.8807 38.3868 59.865 38.461 59.8296 38.5263C59.7603 38.6343 59.6194 38.6703 59.5358 38.7663C59.4648 38.8565 59.4314 38.971 59.4426 39.0855C59.4426 39.2007 59.4761 39.3111 59.488 39.4263C59.5119 39.6519 59.414 39.8559 59.4379 40.0743C59.4634 40.2981 59.5512 40.5102 59.6911 40.6863C60.0302 41.1159 61.2508 41.4927 62.0247 41.2191L62.3639 38.0511Z" fill="#F0997A"/>
<path d="M40.6018 39.2892L40.4346 30.5796C42.4911 31.0116 43.1193 31.7388 44.4951 33.9396C45.2571 35.166 46.984 37.8396 48.5987 40.2708L54.5869 37.902C55.5522 39.0476 56.15 40.4599 56.3018 41.9532C56.3018 41.9532 52.4037 44.706 49.3177 46.2324C48.1234 46.8204 47.168 47.3196 45.5939 45.6108C44.0198 43.902 41.0198 39.978 40.6018 39.2892Z" fill="#263238"/>
<path d="M54.6945 41.8115C54.5927 41.4248 54.4691 41.0442 54.3242 40.6715C54.1865 40.2653 53.9706 39.8902 53.6889 39.5675C53.6244 39.5003 53.5408 39.5675 53.5862 39.6491C53.9622 40.3434 54.2533 41.0807 54.4532 41.8451C54.5433 42.1902 54.6072 42.5416 54.6443 42.8963C54.6443 42.9515 54.6443 43.0067 54.6443 43.0643L54.8832 42.9107C54.8564 42.539 54.7932 42.1708 54.6945 41.8115Z" fill="black"/>
<path d="M48.5914 40.2684C47.636 40.9548 46.7164 42.2388 46.5874 43.2372C46.628 41.334 47.218 40.6236 48.2881 39.8076L48.5914 40.2684Z" fill="black"/>
<path d="M44.5833 50.2093C44.1056 47.2957 43.5753 44.4709 43.7807 42.0493C44.9201 40.2613 45.3835 38.0629 44.7362 36.4669C43.5419 33.4813 41.3922 31.4125 40.4367 30.5869L37.4486 29.7829L33.9685 29.3149L31.599 30.0517L27.3975 31.4149C27.3975 31.4149 25.6754 33.0469 26.1889 38.2165C26.5066 41.3893 27.1013 41.0653 27.4739 44.2885C27.9517 48.4957 26.0838 48.7885 25.5631 54.3109C25.0424 59.8333 25.1331 62.9029 24.8967 66.0229C24.6602 69.1429 24.4405 72.3565 24.1992 75.4621C28.0209 78.6373 41.0601 79.8541 46.0857 75.5917C46.0857 75.5917 45.8683 68.5909 45.7298 64.6021C45.5913 60.6133 45.0586 53.1229 44.5833 50.2093Z" fill="#37474F"/>
<path d="M42.6986 70.2803C42.5935 66.7603 42.4852 63.2403 42.3738 59.7203C42.3403 58.7027 42.3069 57.6851 42.2615 56.6675C42.2161 55.6499 42.1851 54.6299 42.0919 53.6147C42.0919 53.5691 41.994 53.4995 41.9916 53.5763C41.9534 54.4763 41.9916 55.3811 41.9916 56.2811C41.9916 57.1811 42.0274 58.0763 42.0489 58.9739C42.0847 60.7571 42.1421 62.5403 42.1922 64.3235C42.2926 67.8835 42.3937 71.4435 42.4956 75.0035C42.5171 75.8099 42.5434 76.6163 42.5649 77.4227C42.6819 77.3867 42.7918 77.3459 42.9064 77.3075C42.8379 74.9619 42.7687 72.6195 42.6986 70.2803Z" fill="#263238"/>
<path d="M32.5351 78.1478C32.5494 77.3942 32.5638 76.6382 32.5829 75.8846C32.6259 74.1118 32.6665 72.339 32.7047 70.5662C32.7835 66.9854 32.8719 63.4046 32.9435 59.8238C32.9818 57.7982 33.0367 55.7726 33.0104 53.747C33.0104 53.6726 32.8862 53.6078 32.879 53.7062C32.7716 55.5182 32.7286 57.3326 32.6736 59.1494C32.6187 60.9662 32.5733 62.7206 32.5279 64.5062C32.434 68.0758 32.344 71.6438 32.258 75.2102C32.2365 76.1702 32.2055 77.1422 32.1792 78.107L32.5351 78.1478Z" fill="#263238"/>
<path d="M28.6131 74.2382C28.715 72.0398 28.8185 69.843 28.9236 67.6478C29.0287 65.4526 29.1306 63.2438 29.2294 61.0214C29.3273 58.9046 29.4181 56.7878 29.6068 54.6758C29.7945 52.2831 30.1715 49.9092 30.7342 47.5766C30.7652 47.459 30.5431 47.3894 30.4953 47.519C29.3297 51.6518 29.086 55.9478 28.8806 60.2174C28.6657 64.6158 28.4547 69.0158 28.2477 73.4174L28.0757 77.0798C28.0757 77.1494 28.0757 77.2166 28.0757 77.2862L28.4602 77.3966L28.6131 74.2382Z" fill="#263238"/>
<path d="M39.7014 23.195C41.7986 22.4318 41.9204 19.1798 40.6258 17.435C38.7006 14.8526 35.0246 14.6126 32.968 15.6158C31.0572 16.547 30.2737 17.4518 30.0325 18.8774C27.6439 20.903 29.6933 24.2846 31.9433 27.443C33.7993 30.047 37.1026 24.3782 39.7014 23.195Z" fill="#263238"/>
<path d="M28.5369 22.5395C28.3912 22.6982 28.2908 22.8934 28.2462 23.1046C28.2017 23.3158 28.2146 23.5351 28.2838 23.7395C27.9187 23.7956 27.5851 23.9792 27.3415 24.2581C27.0979 24.5369 26.96 24.8932 26.952 25.2641C26.944 25.635 27.0665 25.9969 27.2978 26.2861C27.5292 26.5753 27.8546 26.7732 28.2169 26.8451C28.2012 27.0621 28.2332 27.2798 28.3107 27.483C28.3881 27.6861 28.5091 27.8696 28.665 28.0206C28.8209 28.1715 29.0079 28.2861 29.2128 28.3563C29.4177 28.4265 29.6355 28.4505 29.8507 28.4267C29.9624 28.4056 30.0762 28.3975 30.1898 28.4027C30.3177 28.4288 30.4409 28.4741 30.5553 28.5371C30.855 28.6765 31.1894 28.7221 31.5152 28.6682C31.841 28.6143 32.1432 28.4633 32.3825 28.2347C32.7767 27.8171 32.877 27.1979 32.8603 26.6219C32.8427 25.3969 32.4378 24.2093 31.7042 23.2307C31.3435 22.7507 30.8324 22.2707 30.2233 22.1723C29.705 22.0811 28.9239 22.1291 28.5369 22.5395Z" fill="#263238"/>
<path d="M40.6042 22.4364C40.5373 22.2372 40.6902 21.4524 40.6806 21.2652C40.5851 19.1796 39.8279 18.69 39.0994 18.3852C38.2897 18.0588 37.714 18.4332 37.2745 18.8052C36.5388 18.2868 34.991 18.0564 34.0093 19.2204C33.1256 20.2692 33.6367 21.8604 32.5332 22.41C32.7506 24.0444 32.206 24.3828 31.9767 23.97C31.7474 23.5572 31.7378 23.2716 31.1502 22.9212C30.608 22.5948 29.8508 22.9212 29.5499 23.4324C29.1844 24.0444 29.2776 24.954 30.1016 25.8324C30.4742 26.2284 30.8922 26.4948 31.4942 26.3892C31.5946 26.3834 31.6921 26.3527 31.7779 26.3C31.8637 26.2472 31.9353 26.174 31.9862 26.0868L32.0125 30.2028C33.1279 32.5068 35.8175 31.6212 37.5062 34.3092C38.9202 31.0956 37.3748 29.8284 37.3748 29.8284V28.7796C38.2408 28.8418 39.0997 28.586 39.7921 28.0596C40.6281 27.3828 41.4641 24.9828 40.6042 22.4364Z" fill="#FFBDA7"/>
<path d="M36.3284 22.5538C36.2974 22.6417 36.2416 22.7187 36.1678 22.7753C36.0939 22.8319 36.0052 22.8656 35.9126 22.8723C35.82 22.8791 35.7274 22.8585 35.6463 22.8133C35.5651 22.768 35.4988 22.6999 35.4555 22.6173C35.4122 22.5348 35.3938 22.4414 35.4025 22.3485C35.4112 22.2556 35.4467 22.1672 35.5046 22.0943C35.5625 22.0213 35.6403 21.9669 35.7285 21.9377C35.8167 21.9085 35.9115 21.9057 36.0012 21.9298C36.1269 21.969 36.2319 22.0568 36.2933 22.1738C36.3546 22.2908 36.3673 22.4274 36.3284 22.5538Z" fill="#263238"/>
<path d="M39.9281 21.0131L38.7959 21.2843C38.7748 21.211 38.7688 21.1341 38.7783 21.0584C38.7877 20.9827 38.8124 20.9097 38.8508 20.8439C38.8893 20.7781 38.9407 20.7209 39.0019 20.6757C39.0631 20.6305 39.1328 20.5983 39.2068 20.5811C39.3592 20.5463 39.5191 20.5718 39.6534 20.6522C39.7877 20.7326 39.886 20.8618 39.9281 21.0131Z" fill="#263238"/>
<path d="M38.9801 22.4244C39.0188 22.5093 39.0813 22.581 39.1599 22.6307C39.2385 22.6805 39.3298 22.7062 39.4227 22.7046C39.5156 22.703 39.606 22.6742 39.6828 22.6218C39.7597 22.5693 39.8197 22.4955 39.8554 22.4094C39.8912 22.3232 39.9012 22.2284 39.8842 22.1367C39.8671 22.0449 39.8238 21.9601 39.7596 21.8927C39.6954 21.8253 39.6129 21.7781 39.5224 21.757C39.4319 21.7359 39.3373 21.7418 39.25 21.774C39.1897 21.7987 39.1348 21.8352 39.0885 21.8813C39.0423 21.9275 39.0056 21.9823 38.9805 22.0428C38.9554 22.1032 38.9424 22.1681 38.9424 22.2335C38.9423 22.299 38.9552 22.3639 38.9801 22.4244Z" fill="#263238"/>
<path d="M36.3286 21.3946L35.1343 21.073C35.151 20.9931 35.1837 20.9174 35.2306 20.8506C35.2774 20.7838 35.3373 20.7273 35.4067 20.6846C35.476 20.6419 35.5533 20.6139 35.6338 20.6023C35.7142 20.5907 35.7962 20.5957 35.8747 20.617C36.0344 20.6647 36.1701 20.7715 36.2544 20.9159C36.3386 21.0602 36.3651 21.2314 36.3286 21.3946Z" fill="#263238"/>
<path d="M39.4144 23.8814L37.881 24.5126L37.5107 21.8174L39.4144 23.8814Z" fill="#F0997A"/>
<path d="M34.6688 22.41C34.7253 22.4064 34.7819 22.4064 34.8384 22.41C34.8547 22.4129 34.8714 22.4111 34.8867 22.4047C34.9019 22.3983 34.915 22.3877 34.9244 22.374C35.0199 22.206 34.8527 22.1772 34.7763 22.1748H34.3201C34.246 22.1748 34.172 22.1748 34.1003 22.1748C34.0287 22.1748 34.0143 22.1748 34 22.2252C33.9857 22.2756 34.0526 22.3596 34.1147 22.3572C34.1338 22.3572 34.16 22.3572 34.1815 22.3572H34.2221H34.3129H34.5064L34.6688 22.41ZM34.9411 22.7628C34.9251 22.7392 34.9025 22.7208 34.8761 22.7102C34.8498 22.6995 34.8208 22.6969 34.793 22.7028C34.6974 22.7365 34.6072 22.7842 34.5255 22.8444C34.4832 22.8723 34.4433 22.9036 34.4061 22.938L34.3535 22.9932C34.3407 23.0089 34.3295 23.0257 34.3201 23.0436C34.3133 23.0595 34.3118 23.0771 34.3157 23.0939C34.3195 23.1107 34.3286 23.1259 34.3416 23.1372C34.3607 23.1588 34.4013 23.1852 34.4323 23.1684L34.578 23.0796H34.5924L34.6234 23.0604L34.6784 23.0244L34.7906 22.962C34.8312 22.9404 34.8766 22.9236 34.9172 22.8996C34.9296 22.894 34.9405 22.8854 34.9489 22.8746C34.9572 22.8637 34.9628 22.851 34.9652 22.8376C34.9675 22.8241 34.9666 22.8102 34.9624 22.7972C34.9582 22.7841 34.9509 22.7723 34.9411 22.7628Z" fill="#F0997A"/>
<path d="M36.7635 25.7026C36.7333 25.7797 36.7195 25.8622 36.7232 25.9449C36.727 26.0277 36.748 26.1087 36.785 26.1826C36.8242 26.2575 36.8787 26.3232 36.945 26.3753C37.0113 26.4275 37.0878 26.4649 37.1696 26.485C37.2718 26.5089 37.3793 26.4913 37.4688 26.436C37.5582 26.3808 37.6224 26.2923 37.6473 26.1898C37.6735 26.0616 37.6567 25.9283 37.5995 25.8106C37.5539 25.695 37.4694 25.599 37.3607 25.5394C37.3853 25.4763 37.4261 25.4208 37.4789 25.3787C37.5318 25.3365 37.5948 25.3092 37.6616 25.2994C37.5693 25.2612 37.4698 25.2435 37.37 25.2477C37.2702 25.2518 37.1725 25.2777 37.0836 25.3234C37.0073 25.3613 36.9396 25.4146 36.8845 25.4798C36.8295 25.545 36.7883 25.6208 36.7635 25.7026Z" fill="#B16668"/>
<path d="M37.3772 28.7918C35.8819 28.763 33.6892 28.1774 32.8628 26.519C33.1303 28.199 34.8166 28.8926 35.6622 29.1134C36.223 29.2709 36.8002 29.3619 37.382 29.3846L37.3772 28.7918Z" fill="#F0997A"/>
<path d="M35.1653 18.7216C35.5008 18.575 35.8652 18.5073 36.2306 18.5235C36.5961 18.5397 36.9531 18.6395 37.2744 18.8152C36.909 17.9536 35.7362 17.4808 34.8859 17.5384C34.444 17.6109 34.0171 17.756 33.6223 17.968C33.3471 18.1366 33.1082 18.3586 32.9196 18.6211C32.7309 18.8836 32.5963 19.1813 32.5236 19.4968C32.3755 20.0536 32.3683 20.644 32.1963 21.196C32.0243 21.748 31.6207 22.2856 31.0498 22.36C31.4368 22.5184 31.8548 22.6816 32.2632 22.6C32.7409 22.492 33.2473 22.2424 33.424 21.7792C33.6486 21.1936 33.7513 20.5504 33.9639 19.96C34.0538 19.6735 34.2093 19.4123 34.418 19.1972C34.6266 18.9821 34.8826 18.8192 35.1653 18.7216Z" fill="#455A64"/>
<path d="M36.9948 33.323C37.1989 33.6391 37.374 33.9733 37.5179 34.3214C36.9589 33.635 36.1874 33.0758 36.0322 33.1214C35.736 33.2174 35.0767 34.4798 34.9143 34.8878C34.7519 35.2958 34.7829 35.2886 34.2264 34.9406C33.2487 34.325 32.3874 33.5401 31.6826 32.6222C30.923 31.5878 30.29 30.4838 30.29 30.4838L30.9636 29.5526C31.4724 28.8494 31.6802 28.4966 32.0003 28.4678V28.9478C32.0815 29.4998 32.982 30.0686 33.775 30.7142C34.568 31.3598 35.8339 31.9598 36.1397 32.2382C36.473 32.5585 36.7607 32.9236 36.9948 33.323Z" fill="#F0F0F0"/>
<path d="M39.7921 33.7958C39.7133 34.0238 38.9418 32.2742 38.5978 32.3222C38.4282 32.3414 37.8215 33.7886 37.5206 34.3046C37.5206 34.3046 37.812 32.3462 37.843 31.9886C37.8956 31.3838 37.3916 29.8406 37.3916 29.8406V29.1494C37.9864 29.2694 38.3303 29.9606 38.7125 30.3758C39.0947 30.791 39.5795 31.2494 39.6918 31.8158C39.8356 32.4655 39.8695 33.1348 39.7921 33.7958Z" fill="#F0F0F0"/>
<path d="M36.374 43.9431C37.3987 43.6239 37.886 43.5375 38.2968 43.5759C38.7077 43.6143 40.2077 43.5591 40.7642 43.6287C41.1106 43.6743 41.0485 44.2743 40.5254 44.4855C40.1145 44.6463 39.1734 44.6967 38.7435 44.7615C38.3135 44.8263 37.3103 45.4599 37.3103 45.4599L36.374 43.9431Z" fill="#F0997A"/>
<path d="M24.3094 34.3721C25.1549 32.6777 24.8803 31.9937 27.4026 32.0177C28.9767 34.6241 27.6223 39.4985 27.6223 39.4985L25.6327 44.7449C25.6327 44.7449 31.487 45.8969 32.1558 45.7433C32.8246 45.5897 34.8621 44.4929 35.5237 44.1857C36.4242 43.7681 36.718 43.9961 37.0357 44.1857C38.0723 44.8145 38.2778 45.0137 38.4545 45.2681C38.5054 45.3501 38.5366 45.4429 38.5458 45.5391C38.5549 45.6353 38.5416 45.7323 38.5071 45.8225C38.7841 45.9809 39.2236 46.1489 39.0994 46.6937C39.0757 46.8397 39.0323 46.9818 38.9704 47.1161C39.0412 47.1623 39.0936 47.2319 39.1185 47.3129C39.2547 47.7185 38.4688 48.6041 38.1153 48.7529C37.8765 48.8585 37.5922 48.7721 37.2626 48.5801C36.9832 48.4145 37.2339 48.1433 37.2339 48.1433L36.8112 48.0017C35.6766 48.3233 35.1535 49.6817 33.8685 49.4897C33.3623 49.3431 32.8431 49.2466 32.3183 49.2017C29.452 49.0865 24.2998 50.1905 21.959 49.4753C19.6732 48.7745 20.2082 47.5337 20.4447 45.9809C20.7241 44.1425 23.3635 36.2633 24.3094 34.3721Z" fill="#FFBDA7"/>
<path d="M27.3977 31.4248C24.9781 31.9888 24.5457 32.3248 23.8148 33.7864C23.0146 35.4232 21.1086 39.9304 20.564 41.6872C20.0194 43.444 19.2622 45.7984 19.1308 46.9024C18.8729 48.9808 21.0059 49.3768 22.064 49.6312C23.1221 49.8856 27.4932 49.9312 28.4773 49.7728C28.4773 49.7728 27.7607 49.0696 27.9996 47.4424C28.217 46.0024 28.9096 45.4192 29.3778 45.3688L25.8403 44.5432C25.8403 44.5432 27.5792 40.0792 28.2289 38.4688C28.8786 36.8584 28.7257 32.68 27.3977 31.4248Z" fill="#263238"/>
<path d="M26.0574 43.9863L25.8401 44.5431C24.3329 44.2191 22.938 44.4999 22.0542 45.2823C22.7994 44.0559 24.1179 43.6575 26.0574 43.9863Z" fill="black"/>
<path d="M38.507 45.8223L37.3008 45.0039L38.5476 45.6159C38.5457 45.6865 38.5319 45.7563 38.507 45.8223Z" fill="#F0997A"/>
<path d="M38.9703 47.1186L37.5371 46.293L39.0324 46.9314C39.0191 46.996 38.9982 47.0588 38.9703 47.1186Z" fill="#F0997A"/>
<path d="M38.5211 47.7568C38.4451 47.8197 38.3517 47.8574 38.2536 47.8648C38.1569 47.878 38.0589 47.878 37.9622 47.8648H37.9885C37.9192 47.932 37.8451 47.9992 37.7735 48.064L37.7568 48.0088C37.8024 48.0183 37.8455 48.0375 37.883 48.0653C37.9205 48.093 37.9516 48.1286 37.9741 48.1696C38.0176 48.2513 38.0374 48.3436 38.0315 48.436C38.0187 48.3504 37.9878 48.2686 37.9407 48.196C37.8944 48.1323 37.8264 48.0879 37.7496 48.0712H37.6875L37.7353 48.0256C37.8045 47.956 37.8762 47.8888 37.9479 47.824H37.9598H37.9741C38.0645 47.8423 38.1566 47.8512 38.2488 47.8504C38.3461 47.8433 38.4399 47.8111 38.5211 47.7568Z" fill="#F0997A"/>
<path d="M38.0483 47.8026C37.8591 47.7546 37.6732 47.6945 37.4918 47.6226C37.4185 47.7299 37.3155 47.8133 37.1956 47.8626C37.0703 47.9179 36.9419 47.966 36.811 48.0066L37.2338 48.1482C37.3169 48.0927 37.4112 48.0564 37.5099 48.0419C37.6086 48.0274 37.7092 48.035 37.8047 48.0642L38.0483 47.8026Z" fill="#F0997A"/>
<path d="M61.8745 105.793V102.742L77.03 93.9512V96.9992L61.8745 105.793Z" fill="#FFD000"/>
<path opacity="0.7" d="M61.8745 105.793V102.742L77.03 93.9512V96.9992L61.8745 105.793Z" fill="white"/>
<path d="M61.8746 102.742L48.6777 95.0889V98.1369L61.8746 105.793V102.742Z" fill="#FFD000"/>
<path opacity="0.5" d="M61.8746 102.742L48.6777 95.0889V98.1369L61.8746 105.793V102.742Z" fill="white"/>
<path d="M61.8746 102.743L48.6777 95.089L63.8332 86.2979L77.0301 93.9514L61.8746 102.743Z" fill="#FFD000"/>
<path opacity="0.85" d="M61.8746 102.743L48.6777 95.089L63.8332 86.2979L77.0301 93.9514L61.8746 102.743Z" fill="white"/>
<path d="M61.8745 101.487L74.8636 93.9512L76.3301 54.644L61.8745 63.032V101.487Z" fill="#FFD000"/>
<path opacity="0.7" d="M61.8745 101.487L74.8636 93.9512L76.3301 54.644L61.8745 63.032V101.487Z" fill="white"/>
<path d="M61.8749 101.487L50.8445 95.0889L49.3779 55.7817L61.8749 63.0321V101.487Z" fill="#FFD000"/>
<path opacity="0.5" d="M61.8749 101.487L50.8445 95.0889L49.3779 55.7817L61.8749 63.0321V101.487Z" fill="white"/>
<path opacity="0.4" d="M76.1586 59.2448L76.3306 54.644L61.8749 63.032L49.3779 55.7816L49.5499 60.3824L61.8749 67.532L76.1586 59.2448Z" fill="#FFD000"/>
<path opacity="0.55" d="M64.502 66.8962L73.7003 61.5586L72.8333 92.0674L64.502 96.913V66.8962Z" fill="white"/>
<path opacity="0.3" d="M72.3674 63.8336L71.5505 91.3088L65.7965 94.6688V67.6472L72.3674 63.8336ZM72.7305 63.248L65.4692 67.4624V95.2232L71.8611 91.5032L72.7281 63.248H72.7305Z" fill="#FFD000"/>
<path d="M60.8594 66.0947V61.8803L81.1598 50.1035V54.3179L60.8594 66.0947Z" fill="#FFD000"/>
<path opacity="0.7" d="M60.8594 66.0947V61.8803L81.1598 50.1035V54.3179L60.8594 66.0947Z" fill="white"/>
<path d="M60.8595 61.8802L46.6475 55.6162V57.8506L60.8595 66.0946V61.8802Z" fill="#FFD000"/>
<path opacity="0.5" d="M60.8595 61.8802L46.6475 55.6162V57.8506L60.8595 66.0946V61.8802Z" fill="white"/>
<path d="M60.8595 61.8801L46.6475 55.6161L66.9479 43.8369L81.1599 50.1033L60.8595 61.8801Z" fill="#FFD000"/>
<path opacity="0.85" d="M60.8595 61.8801L46.6475 55.6161L66.9479 43.8369L81.1599 50.1033L60.8595 61.8801Z" fill="white"/>
<path d="M75.5014 48.8555C74.1661 48.0827 72.0021 48.0827 70.6669 48.8555C70.0005 49.2443 69.6685 49.7507 69.6685 50.2595C69.6685 50.4155 69.6685 50.6267 69.6685 50.7851C69.6685 51.2915 70.0005 51.7979 70.6669 52.1867C72.0021 52.9619 74.1661 52.9619 75.5014 52.1867C76.1702 51.7979 76.5022 51.2915 76.4998 50.7851V50.2595C76.4902 49.7507 76.1582 49.2443 75.5014 48.8555Z" fill="#263238"/>
<path d="M73.0723 52.2421C74.9601 52.2421 76.4904 51.3546 76.4904 50.2597C76.4904 49.1649 74.9601 48.2773 73.0723 48.2773C71.1846 48.2773 69.6543 49.1649 69.6543 50.2597C69.6543 51.3546 71.1846 52.2421 73.0723 52.2421Z" fill="#455A64"/>
<path d="M75.0716 48.2052C73.968 47.5644 72.179 47.5644 71.0755 48.2052C70.5237 48.5244 70.249 48.9444 70.249 49.3644V50.1372C70.249 50.5572 70.5237 50.9748 71.0755 51.2964C72.179 51.9348 73.968 51.9348 75.0716 51.2964C75.6233 50.9748 75.898 50.5572 75.8956 50.1372V49.3644C75.898 48.9444 75.6233 48.5244 75.0716 48.2052Z" fill="#37474F"/>
<path d="M71.0757 48.2053C69.9722 48.8437 69.9722 49.8853 71.0757 50.5237C72.1792 51.1621 73.9682 51.1621 75.0718 50.5237C76.1753 49.8853 76.1753 48.8437 75.0718 48.2053C73.9682 47.5669 72.1792 47.5645 71.0757 48.2053Z" fill="#455A64"/>
<g opacity="0.2">
<path d="M50.5956 55.6235L60.9883 60.3443C61.0769 60.3801 61.1719 60.3968 61.2674 60.3935C61.3628 60.3902 61.4565 60.3669 61.5424 60.3251L68.3618 56.3699C68.5051 56.2859 68.4908 56.1587 68.3307 56.0867L57.9357 51.3635C57.8475 51.3278 57.7528 51.3111 57.6578 51.3144C57.5627 51.3177 57.4694 51.341 57.3839 51.3827L50.5645 55.3379C50.4212 55.4219 50.4332 55.5491 50.5956 55.6235Z" fill="black"/>
</g>
<path d="M50.5456 55.1673L60.9312 59.8881C61.0197 59.9243 61.1148 59.9413 61.2103 59.938C61.3058 59.9347 61.3995 59.9112 61.4853 59.8689L68.3047 55.9137C68.448 55.8297 68.4337 55.7025 68.2712 55.6305L57.8857 50.9025C57.7973 50.8666 57.7023 50.8495 57.6069 50.8524C57.5115 50.8553 57.4177 50.8781 57.3316 50.9193L50.5122 54.8769C50.3689 54.9657 50.3832 55.0929 50.5456 55.1673Z" fill="#EBEBEB"/>
<path d="M57.3314 50.9262L50.856 54.6822L60.8641 59.2302C60.9527 59.266 61.0477 59.2827 61.1432 59.2794C61.2386 59.2761 61.3323 59.2528 61.4182 59.211L67.8936 55.4622L57.8855 50.9022C57.7966 50.8674 57.7013 50.8515 57.6059 50.8556C57.5105 50.8598 57.417 50.8838 57.3314 50.9262Z" fill="#E0E0E0"/>
<path d="M50.4452 54.2793L60.8403 59.0001C60.9285 59.0358 61.0232 59.0525 61.1182 59.0492C61.2132 59.0459 61.3065 59.0226 61.3921 58.9809L68.2114 55.0257C68.3547 54.9417 68.3404 54.8145 68.1804 54.7401L57.7853 50.0193C57.6971 49.9836 57.6024 49.9668 57.5074 49.9701C57.4124 49.9734 57.3191 49.9967 57.2336 50.0385L50.4213 53.9937C50.2709 54.0777 50.2852 54.2049 50.4452 54.2793Z" fill="#FAFAFA"/>
<path d="M56.3202 52.1089C56.4009 52.1347 56.4817 52.1521 56.5624 52.161C56.6439 52.1705 56.7251 52.1713 56.8058 52.1634C56.8865 52.1565 56.966 52.1409 57.0441 52.1167C57.1214 52.093 57.1962 52.0603 57.2683 52.0188C57.4032 51.9411 57.4882 51.8535 57.5235 51.7559C57.5579 51.6588 57.5395 51.5571 57.4683 51.4505C57.3979 51.3445 57.2709 51.2384 57.0872 51.1324C56.9034 51.0263 56.7193 50.9521 56.5347 50.9099C56.3501 50.8677 56.1728 50.8565 56.0027 50.8762C55.8336 50.8964 55.6794 50.9466 55.5402 51.0268C55.414 51.0995 55.3285 51.1745 55.2838 51.2518C55.2391 51.33 55.2343 51.4065 55.2695 51.4813C55.3038 51.5566 55.3772 51.6268 55.4897 51.6917L55.3595 51.7473L56.0398 51.3554L56.4596 51.5978L55.3554 52.234L55.0232 52.0421C54.7914 51.9083 54.6412 51.765 54.5726 51.6125C54.5048 51.4604 54.5118 51.3088 54.5934 51.1578C54.6759 51.0073 54.828 50.8682 55.0496 50.7405C55.297 50.598 55.5688 50.5043 55.8651 50.4594C56.1623 50.415 56.4641 50.4208 56.7706 50.4769C57.0772 50.5341 57.3695 50.6429 57.6476 50.8035C57.8614 50.927 58.0211 51.0548 58.1266 51.1871C58.2322 51.3204 58.287 51.4532 58.2913 51.5854C58.2955 51.7177 58.2534 51.8444 58.1648 51.9657C58.0763 52.087 57.9449 52.1979 57.7705 52.2984C57.6211 52.3845 57.46 52.452 57.2874 52.5009C57.1156 52.5504 56.9404 52.581 56.7618 52.5928C56.5823 52.6051 56.4063 52.598 56.2337 52.5717C56.062 52.5459 55.9018 52.5005 55.7533 52.4355L56.3202 52.1089ZM54.5323 54.1222L53.9744 54.4436L52.2618 53.4546C52.0695 53.3436 51.9472 53.22 51.8949 53.0837C51.8417 52.948 51.8568 52.8096 51.9402 52.6685C52.0244 52.5278 52.1756 52.3947 52.3938 52.269C52.6128 52.1428 52.8443 52.0555 53.0882 52.0071C53.333 51.9592 53.573 51.9507 53.8082 51.9815C54.0435 52.0123 54.2573 52.0833 54.4496 52.1943L56.1622 53.1833L55.6043 53.5047L53.9393 52.5432C53.8389 52.4852 53.7277 52.4463 53.6058 52.4264C53.483 52.407 53.3589 52.4077 53.2335 52.4284C53.1081 52.4492 52.9918 52.4905 52.8844 52.5523C52.7762 52.6147 52.7044 52.6817 52.6692 52.7535C52.6331 52.8258 52.6322 52.8971 52.6665 52.9675C52.6999 53.0383 52.7669 53.1028 52.8673 53.1608L54.5323 54.1222ZM52.9575 55.0294L50.3203 53.5066L50.8782 53.1852L53.5154 54.708L52.9575 55.0294ZM51.9384 47.5797L54.7699 49.2147L54.1709 49.5598L51.833 48.2098L50.6184 48.9095L50.1248 48.6244L51.9384 47.5797ZM52.5277 49.937L53.0213 50.222L50.6945 51.5625L50.2009 51.2774L51.0683 50.7778L48.7304 49.4277L49.3225 49.0867L51.6604 50.4367L52.5277 49.937ZM50.6059 46.6187L49.935 47.0052L48.0696 46.6732L48.0419 46.6892L48.6153 47.7655L47.9444 48.152L47.1473 46.4997L46.1463 45.9217L46.7411 45.579L47.7421 46.157L50.6059 46.6187Z" fill="#FFD000"/>
<path d="M61.2056 58.177C61.1832 58.1765 61.1617 58.1687 61.1441 58.1548C61.1266 58.141 61.114 58.1217 61.1083 58.1C61.1027 58.0783 61.1042 58.0553 61.1127 58.0346C61.1212 58.0138 61.1362 57.9964 61.1554 57.985L66.5512 54.865C66.5747 54.8519 66.6023 54.8486 66.6282 54.8558C66.6541 54.8629 66.6762 54.88 66.6897 54.9034C66.6965 54.915 66.7008 54.9278 66.7026 54.9412C66.7043 54.9545 66.7034 54.9681 66.6998 54.9811C66.6963 54.994 66.6901 55.0062 66.6818 55.0167C66.6735 55.0273 66.6632 55.0361 66.6515 55.0426L61.2581 58.1626C61.2418 58.1711 61.2239 58.176 61.2056 58.177Z" fill="#EBEBEB"/>
<path d="M60.1571 57.7423C60.1346 57.7423 60.1127 57.7349 60.0947 57.7212C60.0768 57.7075 60.0639 57.6883 60.0579 57.6665C60.0519 57.6446 60.0532 57.6214 60.0617 57.6004C60.0701 57.5795 60.0852 57.5618 60.1046 57.5503L65.5004 54.4303C65.5119 54.4235 65.5247 54.4191 65.538 54.4174C65.5513 54.4156 65.5648 54.4166 65.5777 54.4201C65.5906 54.4237 65.6027 54.4299 65.6132 54.4382C65.6237 54.4465 65.6324 54.4569 65.6389 54.4687C65.6458 54.4802 65.6503 54.4929 65.6522 54.5061C65.6541 54.5194 65.6534 54.5329 65.65 54.5458C65.6467 54.5588 65.6408 54.571 65.6328 54.5816C65.6247 54.5923 65.6146 54.6012 65.6031 54.6079L60.2073 57.7279C60.1921 57.7371 60.1748 57.742 60.1571 57.7423Z" fill="#EBEBEB"/>
<path d="M59.106 57.3056C59.0834 57.3062 59.0613 57.2992 59.0432 57.2856C59.0251 57.272 59.0121 57.2527 59.0063 57.2307C59.0005 57.2088 59.0022 57.1855 59.0112 57.1647C59.0202 57.1439 59.0359 57.1267 59.0558 57.116L64.4492 53.996C64.4608 53.989 64.4737 53.9845 64.4871 53.9825C64.5004 53.9806 64.514 53.9813 64.5271 53.9846C64.5402 53.988 64.5525 53.9939 64.5633 54.002C64.5742 54.0101 64.5833 54.0203 64.5902 54.032C64.597 54.0438 64.6014 54.0568 64.6032 54.0704C64.6049 54.0839 64.604 54.0976 64.6005 54.1108C64.5969 54.124 64.5908 54.1363 64.5825 54.1471C64.5741 54.1579 64.5638 54.1669 64.552 54.1736L59.1586 57.2936C59.1424 57.3021 59.1243 57.3063 59.106 57.3056Z" fill="#EBEBEB"/>
<path d="M58.0648 56.8712C58.0469 56.8715 58.0293 56.8669 58.0138 56.8581C57.9982 56.8492 57.9853 56.8363 57.9764 56.8208C57.9695 56.8091 57.9649 56.7962 57.963 56.7828C57.961 56.7694 57.9618 56.7557 57.9651 56.7425C57.9684 56.7294 57.9743 56.717 57.9824 56.7061C57.9905 56.6953 58.0006 56.6861 58.0122 56.6792L63.408 53.5592C63.4196 53.5524 63.4324 53.548 63.4456 53.5463C63.4589 53.5445 63.4724 53.5455 63.4853 53.549C63.4983 53.5526 63.5103 53.5588 63.5208 53.5671C63.5313 53.5754 63.5401 53.5858 63.5465 53.5976C63.5534 53.6091 63.5579 53.6218 63.5598 53.635C63.5617 53.6483 63.561 53.6618 63.5577 53.6747C63.5543 53.6877 63.5485 53.6999 63.5404 53.7105C63.5323 53.7212 63.5222 53.7301 63.5107 53.7368L58.1149 56.8568C58.0998 56.866 58.0825 56.8709 58.0648 56.8712Z" fill="#EBEBEB"/>
<path d="M57.0064 56.4369C56.9883 56.437 56.9705 56.4321 56.955 56.4228C56.9394 56.4135 56.9266 56.4001 56.918 56.3841C56.9113 56.3725 56.9069 56.3597 56.9051 56.3463C56.9034 56.333 56.9043 56.3194 56.9079 56.3064C56.9115 56.2935 56.9176 56.2814 56.9259 56.2708C56.9342 56.2602 56.9445 56.2514 56.9562 56.2449L62.3496 53.1249C62.3613 53.1165 62.3745 53.1106 62.3886 53.1077C62.4026 53.1047 62.4171 53.1047 62.4311 53.1077C62.4451 53.1107 62.4584 53.1167 62.47 53.1251C62.4816 53.1336 62.4913 53.1444 62.4985 53.1568C62.5057 53.1693 62.5102 53.1831 62.5118 53.1974C62.5133 53.2117 62.5119 53.2262 62.5076 53.24C62.5032 53.2537 62.4961 53.2663 62.4865 53.2771C62.477 53.2879 62.4654 53.2966 62.4523 53.3025L57.0566 56.4225C57.0415 56.4321 57.0241 56.437 57.0064 56.4369Z" fill="#EBEBEB"/>
<path d="M55.9556 56.0002C55.9378 56.0002 55.9203 55.9956 55.9048 55.9868C55.8893 55.9779 55.8763 55.9652 55.8672 55.9498C55.8547 55.9257 55.8516 55.8977 55.8587 55.8715C55.8658 55.8452 55.8825 55.8226 55.9054 55.8082L61.3012 52.6882C61.3247 52.6751 61.3524 52.6718 61.3783 52.679C61.4042 52.6862 61.4263 52.7033 61.4398 52.7266C61.4465 52.7382 61.4509 52.7511 61.4526 52.7644C61.4544 52.7778 61.4534 52.7913 61.4499 52.8043C61.4463 52.8173 61.4402 52.8294 61.4319 52.84C61.4236 52.8505 61.4133 52.8593 61.4015 52.8658L56.0081 55.9858C55.9922 55.9953 55.9741 56.0002 55.9556 56.0002Z" fill="#EBEBEB"/>
<path d="M54.9071 55.5657C54.8846 55.5657 54.8627 55.5583 54.8447 55.5446C54.8268 55.5309 54.8139 55.5117 54.8079 55.4899C54.8019 55.468 54.8032 55.4448 54.8117 55.4238C54.8201 55.4028 54.8352 55.3852 54.8546 55.3737L60.2504 52.2537C60.2621 52.2468 60.2751 52.2424 60.2885 52.2406C60.302 52.2388 60.3157 52.2398 60.3288 52.2433C60.3419 52.2469 60.3542 52.2531 60.3649 52.2614C60.3756 52.2698 60.3846 52.2802 60.3913 52.2921C60.4037 52.3158 60.4067 52.3434 60.3996 52.3693C60.3925 52.3951 60.3758 52.4173 60.3531 52.4313L54.9573 55.5513C54.9423 55.5608 54.9249 55.5658 54.9071 55.5657Z" fill="#EBEBEB"/>
<path d="M45.699 14.9172C47.3065 10.6932 52.1792 9.65397 56.985 9.60837C61.3561 9.56517 66.2837 10.9884 67.5472 14.9172C68.6245 18.2772 66.7375 21.474 62.3569 22.4172C60.6541 22.7681 58.9251 22.9752 57.188 23.0364C56.5168 24.2988 54.9404 25.074 53.7532 25.1532C54.274 24.5673 54.574 23.8166 54.6012 23.0316C53.2636 22.9812 51.2405 22.8108 49.5541 22.2468C46.406 21.1932 44.4498 18.21 45.699 14.9172Z" fill="white"/>
<path d="M53.7653 25.2731C53.7435 25.2732 53.7221 25.2672 53.7036 25.2557C53.685 25.2443 53.67 25.2278 53.6602 25.2083C53.6494 25.1873 53.645 25.1636 53.6475 25.1401C53.6501 25.1166 53.6595 25.0944 53.6745 25.0763C54.1443 24.5408 54.4299 23.8676 54.489 23.1563C53.0989 23.0987 51.145 22.9163 49.5303 22.3691C47.7915 21.7883 46.3989 20.6123 45.7086 19.1435C45.3989 18.4793 45.2297 17.7578 45.2116 17.0245C45.1935 16.2913 45.327 15.5623 45.6035 14.8835C46.9435 11.3027 50.6601 9.54827 56.9827 9.48827C61.3012 9.44507 66.3626 10.8419 67.6596 14.8787C67.9181 15.6086 68.0174 16.3859 67.9506 17.1578C67.8839 17.9297 67.6526 18.6781 67.2727 19.3523C66.3722 20.9195 64.6452 22.0499 62.3809 22.5347C60.6934 22.8807 58.9807 23.0877 57.2598 23.1539C56.5432 24.4259 54.9357 25.1939 53.7629 25.2731H53.7653ZM57.1785 9.72587H56.997C50.7867 9.78347 47.1394 11.4947 45.8233 14.9579C45.5572 15.6076 45.4284 16.3058 45.4453 17.0082C45.4622 17.7106 45.6242 18.4018 45.9212 19.0379C46.5876 20.4491 47.93 21.5795 49.6044 22.1411C51.2788 22.7027 53.2374 22.8611 54.6204 22.9187C54.6519 22.9199 54.6816 22.9334 54.7035 22.9562C54.7253 22.979 54.7375 23.0094 54.7374 23.0411C54.7137 23.7539 54.4699 24.4416 54.04 25.0091C55.1339 24.8411 56.4978 24.1211 57.0997 22.9859C57.11 22.9674 57.1249 22.952 57.1429 22.9411C57.1609 22.9301 57.1814 22.9241 57.2024 22.9235C58.9316 22.8626 60.6526 22.6563 62.3474 22.3067C64.5354 21.8267 66.2169 20.7467 67.0816 19.2395C67.4448 18.5945 67.6657 17.8785 67.7292 17.1401C67.7927 16.4017 67.6972 15.6583 67.4494 14.9603C66.1859 11.0939 61.3538 9.72587 57.1666 9.72587H57.1785Z" fill="#455A64"/>
<path d="M49.4275 15.6754C49.3267 15.673 49.2263 15.6892 49.1313 15.7234C49.0581 15.7528 48.9921 15.7979 48.9378 15.8554C48.8881 15.9118 48.8507 15.978 48.828 16.0498C48.8021 16.1277 48.7845 16.2082 48.7754 16.2898C48.7666 16.3518 48.7626 16.4144 48.7635 16.477C48.7635 16.5562 48.7635 16.6378 48.7635 16.717C48.7635 16.7962 48.7635 16.885 48.7635 16.957C48.7635 17.029 48.7635 17.101 48.7635 17.1466C48.7692 17.2285 48.7861 17.3093 48.8136 17.3866C48.8367 17.4581 48.875 17.5236 48.9259 17.5786C48.9803 17.637 49.0473 17.6822 49.1218 17.7106C49.2155 17.7464 49.3153 17.7636 49.4155 17.761C49.5009 17.7617 49.5861 17.7512 49.6687 17.7298C49.7431 17.7113 49.813 17.6779 49.8742 17.6314C49.9347 17.5851 49.9824 17.524 50.0127 17.4538C50.0503 17.3711 50.0683 17.2807 50.0652 17.1898H49.6305C49.5939 17.1893 49.5588 17.1747 49.5326 17.149C49.5066 17.1229 49.492 17.0875 49.492 17.0506V16.4986C49.492 16.4803 49.4956 16.4622 49.5025 16.4454C49.5095 16.4285 49.5197 16.4131 49.5326 16.4002C49.5454 16.3873 49.5607 16.377 49.5775 16.37C49.5943 16.363 49.6123 16.3594 49.6305 16.3594H50.8989C50.9356 16.3594 50.9708 16.3741 50.9968 16.4002C51.0223 16.4266 51.0369 16.4618 51.0374 16.4986V17.1634C51.0409 17.3694 50.9985 17.5736 50.9132 17.761C50.8338 17.9335 50.7181 18.0867 50.574 18.2098C50.4231 18.3347 50.2507 18.4307 50.0652 18.493C49.8608 18.5596 49.6471 18.5928 49.4323 18.5914C49.2058 18.5961 48.9806 18.5578 48.7682 18.4786C48.5842 18.4077 48.4155 18.3018 48.2714 18.1666C48.1351 18.0413 48.0269 17.8883 47.9537 17.7178C47.8794 17.5461 47.8366 17.3624 47.8271 17.1754C47.8271 17.0338 47.8271 16.8802 47.8271 16.7194C47.8271 16.5586 47.8271 16.4002 47.8271 16.2514C47.8331 16.0642 47.8752 15.88 47.9514 15.709C48.0263 15.5389 48.1352 15.3862 48.2714 15.2602C48.4162 15.1265 48.5858 15.0229 48.7706 14.9554C48.9843 14.8784 49.2101 14.841 49.437 14.845C49.6581 14.8422 49.8779 14.8779 50.0867 14.9506C50.2644 15.0135 50.4306 15.1051 50.5788 15.2218C50.7044 15.321 50.8112 15.4421 50.8941 15.5794C50.9626 15.6915 51.0043 15.818 51.0159 15.949C51.0182 15.9642 51.0165 15.9796 51.011 15.9939C51.0056 16.0082 50.9966 16.0209 50.9848 16.0306C50.9631 16.052 50.934 16.064 50.9036 16.0642H50.2062C50.1838 16.0653 50.1615 16.0618 50.1406 16.054C50.1197 16.0462 50.1005 16.0341 50.0843 16.0186L50.0008 15.925C49.9447 15.8567 49.8777 15.7983 49.8025 15.7522C49.6865 15.6937 49.5571 15.6672 49.4275 15.6754Z" fill="#FFD000"/>
<path d="M54.5823 14.9027C54.6007 14.9025 54.619 14.9062 54.6359 14.9136C54.6528 14.9211 54.6679 14.9321 54.6802 14.9459C54.6937 14.9584 54.7043 14.9736 54.7113 14.9906C54.7183 15.0076 54.7215 15.0259 54.7208 15.0443V17.1155C54.7254 17.3321 54.6873 17.5474 54.6086 17.7491C54.5367 17.925 54.4265 18.0825 54.2861 18.2099C54.1404 18.3371 53.9706 18.4335 53.7869 18.4931C53.3713 18.6211 52.927 18.6211 52.5114 18.4931C52.3281 18.4343 52.1589 18.3378 52.0146 18.2099C51.8749 18.0823 51.7655 17.9248 51.6945 17.7491C51.615 17.5476 51.576 17.3322 51.5799 17.1155V15.0371C51.5816 15.0001 51.597 14.9651 51.6231 14.9389C51.6491 14.9127 51.684 14.8973 51.7208 14.8955H52.3967C52.4336 14.8973 52.4684 14.9127 52.4945 14.9389C52.5205 14.9651 52.5359 15.0001 52.5377 15.0371V17.0867C52.5287 17.2597 52.5822 17.4301 52.6881 17.5667C52.8152 17.6811 52.9798 17.7443 53.1503 17.7443C53.3209 17.7443 53.4855 17.6811 53.6125 17.5667C53.7194 17.4304 53.7736 17.26 53.7654 17.0867V15.0371C53.7671 15.0001 53.7825 14.9651 53.8086 14.9389C53.8347 14.9127 53.8695 14.8973 53.9063 14.8955L54.5823 14.9027Z" fill="#FFD000"/>
<path d="M55.5472 18.529C55.529 18.5293 55.5109 18.5258 55.4941 18.5188C55.4772 18.5117 55.462 18.5013 55.4493 18.4882C55.4363 18.4753 55.426 18.46 55.4191 18.4431C55.4121 18.4262 55.4086 18.4081 55.4087 18.3898V15.0298C55.4093 14.9928 55.424 14.9575 55.4498 14.9312C55.4756 14.9048 55.5105 14.8894 55.5472 14.8882H56.2256C56.244 14.8881 56.2622 14.8919 56.2791 14.8993C56.296 14.9068 56.3111 14.9177 56.3235 14.9314C56.3365 14.9442 56.3468 14.9595 56.3537 14.9764C56.3607 14.9934 56.3642 15.0115 56.3641 15.0298V18.3898C56.3642 18.4081 56.3607 18.4262 56.3537 18.4431C56.3468 18.46 56.3365 18.4753 56.3235 18.4882C56.311 18.5016 56.2958 18.5121 56.2789 18.5192C56.262 18.5262 56.2439 18.5295 56.2256 18.529H55.5472Z" fill="#FFD000"/>
<path d="M59.6194 17.6986C59.6562 17.6998 59.6911 17.7152 59.7168 17.7416C59.7426 17.7679 59.7573 17.8032 59.7579 17.8402V18.3898C59.7581 18.4081 59.7545 18.4262 59.7476 18.4431C59.7406 18.46 59.7303 18.4753 59.7173 18.4882C59.7046 18.5013 59.6894 18.5117 59.6726 18.5187C59.6557 18.5258 59.6376 18.5292 59.6194 18.529H57.2308C57.2126 18.5295 57.1944 18.5262 57.1775 18.5192C57.1606 18.5121 57.1454 18.5016 57.1329 18.4882C57.1199 18.4753 57.1096 18.46 57.1027 18.4431C57.0957 18.4262 57.0922 18.4081 57.0923 18.3898V15.0298C57.0922 15.0115 57.0957 14.9934 57.1027 14.9764C57.1096 14.9595 57.1199 14.9442 57.1329 14.9314C57.1453 14.9177 57.1604 14.9068 57.1773 14.8993C57.1942 14.8919 57.2124 14.8881 57.2308 14.8882H57.9092C57.9276 14.8881 57.9458 14.8919 57.9627 14.8993C57.9796 14.9068 57.9947 14.9177 58.0071 14.9314C58.0201 14.9442 58.0304 14.9595 58.0373 14.9764C58.0443 14.9934 58.0478 15.0115 58.0477 15.0298V17.6986H59.6194Z" fill="#FFD000"/>
<path d="M62.3118 14.9027C62.3485 14.9039 62.3834 14.9193 62.4092 14.9457C62.435 14.972 62.4497 15.0074 62.4503 15.0443V15.5939C62.4504 15.6122 62.4469 15.6304 62.4399 15.6473C62.433 15.6642 62.4227 15.6795 62.4097 15.6923C62.397 15.7055 62.3818 15.7159 62.3649 15.7229C62.3481 15.7299 62.33 15.7334 62.3118 15.7331H61.4089V18.3971C61.4089 18.4156 61.4052 18.4339 61.3981 18.451C61.391 18.468 61.3806 18.4835 61.3675 18.4964C61.3544 18.5094 61.3388 18.5196 61.3217 18.5264C61.3046 18.5333 61.2864 18.5366 61.268 18.5363H60.592C60.5737 18.5369 60.5556 18.5335 60.5387 18.5265C60.5218 18.5195 60.5066 18.5089 60.4941 18.4955C60.4811 18.4827 60.4708 18.4674 60.4638 18.4505C60.4569 18.4336 60.4533 18.4154 60.4535 18.3971V15.7259H59.5434C59.5067 15.7259 59.4714 15.7113 59.4455 15.6851C59.4195 15.659 59.4049 15.6236 59.4049 15.5867V15.0371C59.4042 15.0187 59.4074 15.0004 59.4144 14.9834C59.4214 14.9665 59.432 14.9512 59.4455 14.9387C59.4578 14.9249 59.4729 14.9139 59.4898 14.9064C59.5067 14.899 59.525 14.8953 59.5434 14.8955L62.3118 14.9027Z" fill="#FFD000"/>
<path d="M64.805 18.3898C64.8052 18.4081 64.8016 18.4263 64.7947 18.4432C64.7877 18.4601 64.7774 18.4754 64.7644 18.4882C64.7519 18.5016 64.7367 18.5122 64.7198 18.5192C64.703 18.5263 64.6848 18.5296 64.6665 18.529H63.9882C63.9699 18.5293 63.9518 18.5258 63.935 18.5188C63.9182 18.5118 63.9029 18.5014 63.8902 18.4882C63.8773 18.4754 63.867 18.4601 63.86 18.4432C63.853 18.4263 63.8495 18.4081 63.8496 18.3898V17.2834L62.6553 15.0778C62.6438 15.0573 62.6373 15.0342 62.6362 15.0106C62.6362 14.9805 62.648 14.9516 62.669 14.93C62.6899 14.9085 62.7185 14.8961 62.7485 14.8954H63.4651C63.5216 14.8925 63.5772 14.9114 63.6203 14.9482C63.6444 14.9709 63.6652 14.9968 63.6824 15.025L64.3321 16.3042L64.9914 15.025C65.0077 14.9962 65.0287 14.9702 65.0535 14.9482C65.0742 14.9297 65.0984 14.9156 65.1246 14.9065C65.1509 14.8974 65.1786 14.8937 65.2063 14.8954H65.9229C65.9529 14.8961 65.9814 14.9085 66.0024 14.93C66.0234 14.9516 66.0352 14.9805 66.0352 15.0106C66.0353 15.0344 66.0287 15.0577 66.0161 15.0778L64.8218 17.2834L64.805 18.3898Z" fill="#FFD000"/>
</g>
<defs>
<clipPath id="clip0_896_4527">
<rect width="120" height="120" fill="white" transform="translate(0.5)"/>
</clipPath>
</defs>
</svg>
