<svg width="210" height="210" viewBox="0 0 210 210" fill="none" xmlns="http://www.w3.org/2000/svg">
<g clip-path="url(#clip0_171_18028)">
<path opacity="0.5" d="M210 190.5C210 190.559 143.998 190.375 68.6147 190.375C-6.76813 190.375 0.773646 190.559 0.773646 190.5C0.773646 190.44 -6.79653 190.154 68.6147 190.154C144.026 190.154 210 190.436 210 190.5Z" fill="#263238"/>
<path d="M36.6293 104.15C-0.836062 125.893 -0.836062 161.148 36.6293 182.891C74.0946 204.635 134.889 204.639 172.371 182.891C209.853 161.144 209.853 125.893 172.371 104.15C134.889 82.4061 74.1113 82.4061 36.6293 104.15Z" fill="#FAFAFA"/>
<path d="M62.3072 184.613C78.8942 184.613 92.3405 176.811 92.3405 167.187C92.3405 157.563 78.8942 149.762 62.3072 149.762C45.7203 149.762 32.2739 157.563 32.2739 167.187C32.2739 176.811 45.7203 184.613 62.3072 184.613Z" fill="#E0E0E0"/>
<path d="M154.409 175.907C166.818 175.907 176.877 170.072 176.877 162.874C176.877 155.676 166.818 149.841 154.409 149.841C142.001 149.841 131.942 155.676 131.942 162.874C131.942 170.072 142.001 175.907 154.409 175.907Z" fill="#E0E0E0"/>
<path d="M107.171 187.57L84.0474 174.155L114.586 156.461L137.685 169.859L107.171 187.57Z" fill="#E0E0E0"/>
<path d="M159.701 158.93C156.809 157.25 152.119 157.25 149.222 158.93C147.776 159.77 147.057 160.871 147.061 161.971V163.109C147.061 164.21 147.776 165.31 149.222 166.15C152.119 167.83 156.809 167.83 159.701 166.15C161.148 165.31 161.867 164.21 161.867 163.109V161.971C161.867 160.871 161.148 159.77 159.701 158.93Z" fill="#37474F"/>
<path d="M154.464 166.267C158.557 166.267 161.875 164.344 161.875 161.971C161.875 159.598 158.557 157.674 154.464 157.674C150.371 157.674 147.053 159.598 147.053 161.971C147.053 164.344 150.371 166.267 154.464 166.267Z" fill="#455A64"/>
<path d="M159.17 157.847C156.57 156.339 152.357 156.339 149.757 157.847C148.457 158.603 147.809 159.59 147.813 160.577V161.32C147.813 162.311 148.457 163.298 149.757 164.05C152.357 165.562 156.57 165.562 159.17 164.05C160.47 163.298 161.114 162.311 161.114 161.32C161.114 161.018 161.114 160.879 161.114 160.572C161.114 159.59 160.47 158.603 159.17 157.847Z" fill="#37474F"/>
<path d="M154.464 164.436C158.139 164.436 161.118 162.708 161.118 160.577C161.118 158.445 158.139 156.717 154.464 156.717C150.788 156.717 147.809 158.445 147.809 160.577C147.809 162.708 150.788 164.436 154.464 164.436Z" fill="#455A64"/>
<path d="M155.254 23.2407C155.254 23.0179 155.165 22.8043 155.009 22.6467C154.852 22.4892 154.639 22.4007 154.418 22.4007C154.196 22.4007 153.983 22.4892 153.826 22.6467C153.67 22.8043 153.582 23.0179 153.582 23.2407V160.442C153.589 160.517 153.616 160.588 153.66 160.649C153.704 160.709 153.764 160.757 153.832 160.787C154.017 160.88 154.221 160.928 154.428 160.928C154.635 160.928 154.839 160.88 155.024 160.787C155.091 160.756 155.15 160.708 155.193 160.648C155.237 160.587 155.263 160.516 155.27 160.442L155.254 23.2407Z" fill="#37474F"/>
<path opacity="0.2" d="M154.409 22.3923C154.188 22.3923 153.975 22.4808 153.818 22.6384C153.661 22.7959 153.573 23.0096 153.573 23.2323V24.2361C153.84 24.3397 154.123 24.3937 154.409 24.3957C154.696 24.3943 154.979 24.3388 155.245 24.2319V23.2407C155.246 23.1297 155.226 23.0196 155.184 22.9167C155.143 22.8138 155.081 22.7202 155.003 22.6413C154.926 22.5624 154.833 22.4998 154.731 22.4571C154.629 22.4143 154.52 22.3923 154.409 22.3923Z" fill="black"/>
<path d="M156.75 21.5397C156.75 22.0057 156.612 22.4612 156.355 22.8487C156.097 23.2362 155.731 23.5382 155.302 23.7165C154.874 23.8949 154.402 23.9415 153.948 23.8506C153.493 23.7597 153.075 23.5353 152.747 23.2058C152.419 22.8762 152.196 22.4564 152.105 21.9993C152.015 21.5423 152.061 21.0685 152.239 20.638C152.416 20.2075 152.717 19.8395 153.102 19.5806C153.488 19.3217 153.941 19.1835 154.405 19.1835C155.027 19.1835 155.623 19.4317 156.063 19.8736C156.503 20.3155 156.75 20.9148 156.75 21.5397Z" fill="#455A64"/>
<path d="M144.135 122.604C143.403 130.79 155.287 136.296 164.496 134.222L161.841 94.7667L146.927 96.7869L144.135 122.604Z" fill="#EBEBEB"/>
<path d="M144.628 121.164C144.403 121.826 144.241 122.508 144.143 123.201L148.95 79.3611C157.118 81.9105 163.68 88.5507 164.876 98.1687C166.163 108.509 148.219 110.021 144.628 121.164Z" fill="#E0E0E0"/>
<path opacity="0.2" d="M155.458 19.4397C155.135 19.2721 154.777 19.1847 154.413 19.1847C154.05 19.1847 153.691 19.2721 153.368 19.4397C153.505 19.5789 153.667 19.6894 153.847 19.7649C154.026 19.8403 154.219 19.8791 154.413 19.8791C154.608 19.8791 154.8 19.8403 154.98 19.7649C155.159 19.6894 155.322 19.5789 155.458 19.4397Z" fill="black"/>
<path d="M156.332 17.2221C156.332 18.2847 155.475 19.5447 154.418 19.5447C153.36 19.5447 152.507 18.2847 152.507 17.2221C152.507 16.1595 154.418 11.4597 154.418 11.4597C154.418 11.4597 156.332 16.1595 156.332 17.2221Z" fill="#455A64"/>
<path d="M155.254 24.4797L145.301 81.6249C145.301 81.6249 152.583 84.2961 156.897 87.1773C164.003 91.9191 164.872 98.3073 164.872 98.3073L155.254 24.4797Z" fill="#EBEBEB"/>
<path d="M69.0913 161.904L70.7508 161.131L69.1373 160.652L69.0913 161.904Z" fill="#263238"/>
<path d="M85.3476 165.213C85.3476 165.213 66.1196 156.158 65.8353 157.452C65.781 157.709 65.781 157.975 65.8353 158.233L65.7852 158.162L66.0987 160.593C66.9518 161.31 67.9922 161.765 69.0957 161.904C69.0957 161.786 69.125 161.064 69.1375 160.644C69.7318 160.899 70.3001 161.211 70.8346 161.576C72.0635 162.416 72.8368 163.865 74.1284 165.549C75.0648 166.776 76.7702 167.372 79.3075 167.78C82.0328 168.2 84.453 167.738 85.1595 167.024C85.6903 166.461 85.4437 165.386 85.3476 165.213Z" fill="#263238"/>
<path d="M84.8208 164.756C84.6369 164.558 83.9556 163.785 83.036 162.945C82.1587 162.092 81.2393 161.283 80.2813 160.522C79.7924 160.172 79.3338 159.782 78.9103 159.354C78.5801 158.989 78.2624 158.611 77.9656 158.212C77.066 156.969 76.3049 155.631 75.6959 154.222C75.3508 153.557 75.0897 152.852 74.9184 152.122C74.7889 151.36 74.7259 150.589 74.7303 149.816C74.7679 146.339 74.8557 145.788 74.9184 143.142L66.7131 143.26C66.9555 144.73 67.3275 146.742 67.4404 148.413C67.6076 150.933 67.6661 151.517 66.6044 154.029C66.2992 154.768 65.8478 155.474 65.7935 156.272C65.7099 157.569 66.7131 158.708 67.85 159.363C68.7905 159.909 69.8815 160.152 70.776 160.732C71.7047 161.383 72.5089 162.197 73.1503 163.134C73.7856 163.974 74.2914 164.966 75.1985 165.566C76.2017 166.23 77.1672 166.448 78.3418 166.709C79.7385 166.983 81.1638 167.08 82.5845 166.998C84.6369 166.893 86.1501 166.192 84.8208 164.756Z" fill="#FFBDA7"/>
<path d="M83.7338 163.319C82.8978 162.605 81.7441 161.58 80.3312 160.43C79.8423 160.249 79.321 160.175 78.8015 160.212C78.282 160.249 77.7762 160.396 77.3175 160.644C74.3915 162.097 73.8731 164.222 73.8731 164.222C74.3414 165.2 75.1729 165.954 76.1889 166.322C79.4952 167.83 85.4643 167.481 85.5521 165.957C85.6064 164.974 84.7328 164.184 83.7338 163.319ZM66.8215 153.495C66.8215 153.495 66.6167 153.991 66.09 154.961C65.5633 155.931 65.4504 156.91 66.0649 157.901C66.3828 158.418 66.8026 158.865 67.2987 159.213C67.7947 159.561 68.3563 159.804 68.9491 159.926C69.9272 157.053 67.9668 154.138 66.8215 153.495Z" fill="#37474F"/>
<path d="M51.2804 157.242C51.8196 158.124 51.0714 161.4 51.1676 163.743C51.2595 165.869 51.7904 169.586 51.1048 171.677C50.2688 174.155 48.6637 177.028 45.7252 174.659C43.9069 173.193 42.8744 171.299 42.6612 168.25C42.5108 166.121 43.4053 163.185 44.1744 160.585C45.0731 157.548 45.4284 155.923 45.4284 155.923L51.2804 157.242Z" fill="#263238"/>
<path d="M45.3783 141.488C45.1108 146.444 45.6542 149.934 45.65 153.113C45.6215 154.554 45.4521 155.989 45.1443 157.397C44.697 159.417 43.9488 162.227 43.6353 163.538C43.1922 165.365 42.862 166.52 43.4806 168.578C43.5317 168.739 43.5989 168.896 43.6813 169.044C44.5591 170.753 46.8246 172.059 47.5603 171.862C47.7073 172.054 47.906 172.199 48.1328 172.28C48.3596 172.361 48.6049 172.375 48.8394 172.32C48.9214 172.308 49.0025 172.289 49.0818 172.265C49.166 172.24 49.2484 172.209 49.3284 172.173C49.6276 172.013 49.8911 171.794 50.1025 171.528C50.3138 171.262 50.4687 170.956 50.5574 170.627C50.6077 170.48 50.6495 170.33 50.6828 170.178C51.2429 167.628 50.875 165.978 50.8374 164.974C50.7914 163.819 50.8792 162.353 51.0046 160.493C51.13 158.632 51.6442 152.794 52.3297 149.993C52.8396 148.048 53.475 145.608 54.1438 143.008L45.3783 141.488Z" fill="#FFBDA7"/>
<path d="M43.1629 165.94C44.9686 165.18 50.1853 165.129 50.9878 167.645C50.9878 170.006 50.9878 171.606 49.4454 173.643C47.4056 176.348 44.8223 173.424 43.84 171.576C42.8577 169.728 42.9037 167.2 43.1629 165.94Z" fill="#37474F"/>
<path d="M51.8573 79.84C49.2657 84.103 48.5133 87.3202 47.7317 98.656C46.833 111.445 46.8957 116.321 46.8037 117.867C46.7117 119.412 45.6333 122.235 44.6468 129.828C43.6603 137.422 44.3877 155.868 44.3877 155.868C44.3877 155.868 45.0063 157.128 48.0911 157.439C50.9335 157.729 52.6181 156.809 52.6181 156.809C52.6181 156.809 58.2193 134.39 59.1096 129.757C60.2967 123.549 63.1977 108.492 63.1977 108.492L64.8195 120.756C64.8195 120.756 63.8706 124.956 64.6105 131.63C65.3504 138.304 66.7883 151.82 66.7883 151.82C68.1683 152.373 69.6143 152.743 71.0895 152.92C72.701 153.119 74.3363 152.96 75.8798 152.454C75.8798 152.454 78.5926 125.276 78.7389 117.711C78.8852 110.147 77.7148 91.348 75.3949 80.0962L51.8573 79.84Z" fill="#455A64"/>
<path d="M65.4632 96.6987L63.2018 108.66L64.8195 120.773L64.6147 109.181L67.0307 97.9377C69.5847 97.5513 72.4104 94.3593 73.1586 91.8351C70.4959 95.2539 65.4632 96.6987 65.4632 96.6987ZM57.145 85.2159C57.5129 84.0231 57.8932 82.8429 58.3238 81.6501C57.5997 82.7001 56.9927 83.8268 56.5138 85.0101C56.0334 86.1786 55.623 87.375 55.2849 88.5927C54.9502 89.8036 54.6809 91.0318 54.4782 92.2719C54.2597 93.5075 54.1451 94.7593 54.1354 96.0141C54.4824 94.8045 54.8084 93.5991 55.1303 92.3937C55.4521 91.1883 55.774 89.9871 56.1126 88.7901C56.4511 87.5931 56.7897 86.4087 57.145 85.2159ZM55.218 84.2835C55.6695 83.5611 56.1251 82.8345 56.5431 82.0701C55.8597 82.6316 55.2312 83.2575 54.6663 83.9391C54.1061 84.6017 53.5934 85.3035 53.1322 86.0391C52.6773 86.7735 52.2844 87.5448 51.9576 88.3449C51.6205 89.1358 51.394 89.9697 51.2847 90.8229L52.5637 88.6011C52.9817 87.8745 53.4248 87.1479 53.8763 86.4297C54.3277 85.7115 54.7582 85.0059 55.218 84.2835Z" fill="#37474F"/>
<path d="M105.173 62.2C106.736 62.4394 109.098 62.62 110.122 63.7372C111.146 64.8544 111.1 65.3794 111.1 65.3794L106.289 67.66L105.173 62.2Z" fill="#F0997A"/>
<path d="M101.294 63.5272C99.9898 64.2706 91.3748 68.8612 88.3359 70.1338L91.4459 77.0008C94.3928 75.0982 98.7943 71.9608 100.976 71.3896C103.196 72.6496 104.345 71.713 105.708 72.2296L106.849 63.5566C106.849 63.5566 103.137 62.4772 101.294 63.5272Z" fill="#FFBDA7"/>
<path d="M99.9271 75.157C99.7339 75.0248 99.6005 74.8214 99.5559 74.5909C99.5112 74.3605 99.559 74.1216 99.6888 73.9264L111.079 56.929L112.542 57.9202L101.156 74.9134C101.092 75.0108 101.009 75.0945 100.912 75.1596C100.815 75.2246 100.706 75.2698 100.592 75.2924C100.478 75.3151 100.36 75.3148 100.246 75.2915C100.132 75.2683 100.024 75.2225 99.9271 75.157Z" fill="black"/>
<path d="M111.677 49.1799C111.075 48.7389 110.185 48.6927 109.144 49.1547C107.054 50.0745 105.156 52.6701 104.905 54.9465C104.78 56.0847 105.093 56.9289 105.695 57.3699L106.891 58.2561C107.493 58.7013 108.383 58.7475 109.428 58.2855C111.518 57.3657 113.416 54.7701 113.667 52.4937C113.792 51.3555 113.483 50.5113 112.877 50.0661L111.677 49.1799Z" fill="#37474F"/>
<path d="M110.352 50.0199C112.442 49.0959 113.93 50.1963 113.696 52.4769C113.462 54.7575 111.548 57.3489 109.458 58.2687C107.368 59.1885 105.88 58.0923 106.114 55.8117C106.348 53.5311 108.262 50.9397 110.352 50.0199Z" fill="#263238"/>
<path d="M112.593 50.5701C112.062 50.1795 111.276 50.1501 110.356 50.5449C109.372 51.0408 108.518 51.7634 107.864 52.6539C107.21 53.5443 106.775 54.5774 106.594 55.6689C106.481 56.6727 106.757 57.4203 107.288 57.8109L114.988 63.4977C115.523 63.8925 116.309 63.9177 117.232 63.5271C118.216 63.0311 119.069 62.309 119.723 61.4194C120.377 60.5298 120.812 59.4978 120.994 58.4073C121.103 57.3993 120.827 56.6559 120.296 56.2611L112.593 50.5701Z" fill="#FFC100"/>
<path opacity="0.3" d="M112.593 50.5701C112.062 50.1795 111.276 50.1501 110.356 50.5449C109.372 51.0408 108.518 51.7634 107.864 52.6539C107.21 53.5443 106.775 54.5774 106.594 55.6689C106.481 56.6727 106.757 57.4203 107.288 57.8109L114.988 63.4977C115.523 63.8925 116.309 63.9177 117.232 63.5271C118.216 63.0311 119.069 62.309 119.723 61.4194C120.377 60.5298 120.812 59.4978 120.994 58.4073C121.103 57.3993 120.827 56.6559 120.296 56.2611L112.593 50.5701Z" fill="white"/>
<path opacity="0.6" d="M118.95 62.3259L107.246 53.6823C106.917 54.3005 106.703 54.9737 106.615 55.6689C106.502 56.6727 106.778 57.4203 107.309 57.8109L115.008 63.4977C115.543 63.8925 116.329 63.9177 117.253 63.5271C117.887 63.2338 118.462 62.8267 118.95 62.3259Z" fill="#FFC100"/>
<path d="M119.443 54.9003C118.846 54.4593 117.955 54.4131 116.915 54.8751C114.825 55.7949 112.927 58.3863 112.676 60.6669C112.551 61.8051 112.86 62.6493 113.462 63.0903L114.657 63.9723C115.259 64.4217 116.154 64.4679 117.199 64.0059C119.289 63.0861 121.186 60.4905 121.437 58.2141C121.563 57.0759 121.249 56.2317 120.647 55.7865L119.443 54.9003Z" fill="#37474F"/>
<path d="M118.106 55.7529C120.196 54.8331 121.688 55.9335 121.45 58.2141C121.212 60.4947 119.301 63.0861 117.211 64.0059C115.121 64.9257 113.629 63.8253 113.867 61.5489C114.106 59.2725 116.016 56.6769 118.106 55.7529Z" fill="#455A64"/>
<path d="M111.109 65.5599C111.084 65.1885 110.958 64.8311 110.745 64.5267L108.981 66.1017C108.784 66.325 108.538 66.499 108.262 66.6099L107.668 72.1623C107.96 72.0339 108.23 71.8595 108.467 71.6457C108.744 71.4488 108.971 71.1882 109.127 70.8855C109.25 70.5704 109.39 70.262 109.545 69.9615C109.792 69.5877 110.214 69.3273 110.339 68.8989C110.374 68.7616 110.392 68.6206 110.394 68.4789C110.394 68.1849 110.44 67.8909 110.477 67.5969C110.491 67.339 110.573 67.0894 110.716 66.8745C110.778 66.7905 110.862 66.7233 110.925 66.6351C111.106 66.3083 111.171 65.9289 111.109 65.5599Z" fill="#F0997A"/>
<path d="M97.7202 65.4508C99.9523 64.1152 101.779 62.6998 103.305 62.2126C104.83 61.7254 106.256 62.4394 107.807 63.6112C108.233 63.9437 108.681 64.2468 109.148 64.5184C109.566 64.7578 110.022 64.9384 110.457 65.161C111.176 65.5264 110.394 66.3874 109.499 66.421C108.575 66.3796 107.667 66.166 106.82 65.791C104.805 65.0266 105.52 68.0968 102.097 69.067C100.738 70.18 97.7202 65.4508 97.7202 65.4508Z" fill="#FFBDA7"/>
<path d="M103.781 67.8069C102.36 69.0249 100.817 68.2731 99.835 67.5801C99.835 67.5801 101.064 69.0375 102.431 69.1257L101.248 71.5911L103.781 67.8069Z" fill="#F0997A"/>
<path d="M108.262 66.5889C107.688 66.7344 107.084 66.6992 106.531 66.4881C105.904 66.2384 105.261 66.0266 104.609 65.8539C104.436 65.7884 104.246 65.7884 104.074 65.8539C103.986 65.9158 103.916 66.0004 103.872 66.0987C103.828 66.1969 103.811 66.3054 103.823 66.4125C103.823 66.6267 103.894 66.8325 103.906 67.0467C103.916 67.1764 103.889 67.3063 103.827 67.4205C103.706 67.6095 103.459 67.6725 103.313 67.8405C103.188 67.9985 103.13 68.1987 103.15 68.3991C103.15 68.6007 103.208 68.7939 103.229 68.9955C103.271 69.3903 103.1 69.7473 103.141 70.1295C103.186 70.5212 103.34 70.8924 103.584 71.2005C104.178 71.9523 106.314 72.6117 107.668 72.1329L108.262 66.5889Z" fill="#F0997A"/>
<path d="M70.1779 68.7561L69.8853 53.5143C73.4842 54.2703 74.5836 55.5429 76.9913 59.3943C78.3247 61.5405 81.3468 66.2193 84.1725 70.4739L94.6518 66.3285C96.341 68.3334 97.3873 70.8048 97.653 73.4181C97.653 73.4181 90.8312 78.2355 85.4307 80.9067C83.3407 81.9357 81.6687 82.8093 78.9141 79.8189C76.1594 76.8285 70.9094 69.9615 70.1779 68.7561Z" fill="#263238"/>
<path d="M94.8401 73.1703C94.662 72.4935 94.4457 71.8274 94.1922 71.1753C93.9511 70.4644 93.5733 69.8079 93.0803 69.2434C92.9674 69.1258 92.8211 69.2433 92.9006 69.3861C93.5585 70.6011 94.068 71.8914 94.4179 73.2291C94.5756 73.833 94.6873 74.4479 94.7523 75.0687C94.7523 75.1653 94.7523 75.2619 94.7523 75.3627L95.1703 75.0939C95.1235 74.4434 95.0129 73.7991 94.8401 73.1703Z" fill="black"/>
<path d="M84.1599 70.4697C82.4879 71.6709 80.8786 73.9179 80.6528 75.6651C80.7239 72.3345 81.7564 71.0913 83.629 69.6633L84.1599 70.4697Z" fill="black"/>
<path d="M77.1458 87.866C76.3098 82.7672 75.3818 77.8238 75.7413 73.586C77.7351 70.457 78.5461 66.6098 77.4133 63.8168C75.3233 58.592 71.5613 54.9716 69.8893 53.5268L64.6601 52.1198L58.5698 51.3008L54.4233 52.5902L47.0707 54.9758C47.0707 54.9758 44.0569 57.8318 44.9556 66.8786C45.5115 72.431 46.5523 71.864 47.2044 77.5046C48.0404 84.8672 44.7717 85.3796 43.8604 95.0438C42.9492 104.708 43.108 110.08 42.6942 115.54C42.2804 121 41.8958 126.624 41.4736 132.058C48.1616 137.615 70.9803 139.744 79.775 132.285C79.775 132.285 79.3946 120.034 79.1522 113.053C78.9097 106.073 77.9776 92.9648 77.1458 87.866Z" fill="#37474F"/>
<path d="M73.8476 122.991C73.6636 116.831 73.4742 110.671 73.2791 104.511C73.2206 102.73 73.162 100.949 73.0826 99.1682C73.0032 97.3874 72.9489 95.6024 72.7859 93.8258C72.7859 93.746 72.6145 93.6242 72.6103 93.7586C72.5434 95.3336 72.6103 96.917 72.6103 98.492C72.6103 100.067 72.673 101.634 72.7106 103.204C72.7733 106.325 72.8736 109.446 72.9614 112.566C73.137 118.796 73.3139 125.026 73.4923 131.256C73.5299 132.667 73.5759 134.079 73.6135 135.49C73.8183 135.427 74.0106 135.355 74.2112 135.288C74.0914 131.183 73.9702 127.084 73.8476 122.991Z" fill="#263238"/>
<path d="M56.0618 136.758C56.0869 135.439 56.1119 134.116 56.1454 132.798C56.2206 129.695 56.2917 126.593 56.3586 123.49C56.4965 117.224 56.6512 110.958 56.7766 104.691C56.8434 101.146 56.9396 97.6016 56.8936 94.0568C56.8936 93.9266 56.6762 93.8132 56.6637 93.9854C56.4756 97.1564 56.4004 100.332 56.3042 103.511C56.2081 106.69 56.1287 109.761 56.0492 112.885C55.8848 119.132 55.7274 125.376 55.5769 131.617C55.5393 133.297 55.4849 134.998 55.439 136.687L56.0618 136.758Z" fill="#263238"/>
<path d="M49.1983 129.916C49.3767 126.069 49.5578 122.225 49.7417 118.383C49.9256 114.542 50.104 110.676 50.2768 106.787C50.4481 103.083 50.607 99.3782 50.9372 95.6822C51.2657 91.495 51.9254 87.3407 52.9102 83.2586C52.9645 83.0528 52.5758 82.931 52.4922 83.1578C50.4523 90.3902 50.026 97.9082 49.6665 105.38C49.2903 113.077 48.921 120.777 48.5588 128.48L48.2578 134.889C48.2578 135.011 48.2578 135.129 48.2578 135.25L48.9308 135.444L49.1983 129.916Z" fill="#263238"/>
<path d="M68.6022 40.5909C72.2723 39.2553 72.4855 33.5643 70.2199 30.5109C66.8508 25.9917 60.4178 25.5717 56.8188 27.3273C53.4748 28.9569 52.1038 30.5403 51.6816 33.0351C47.5016 36.5799 51.088 42.4977 55.0256 48.0249C58.2735 52.5819 64.0544 42.6615 68.6022 40.5909Z" fill="#263238"/>
<path d="M49.0648 39.4443C48.8097 39.7219 48.634 40.0635 48.556 40.4331C48.478 40.8027 48.5007 41.1866 48.6217 41.5443C47.9829 41.6425 47.399 41.9638 46.9728 42.4518C46.5465 42.9398 46.3052 43.5632 46.2912 44.2123C46.2772 44.8615 46.4915 45.4948 46.8963 46.0008C47.3012 46.5069 47.8707 46.8533 48.5047 46.9791C48.4772 47.3588 48.5333 47.7399 48.6688 48.0953C48.8043 48.4508 49.016 48.772 49.2888 49.0361C49.5616 49.3002 49.8889 49.5008 50.2475 49.6236C50.6061 49.7465 50.9872 49.7886 51.3638 49.7469C51.5593 49.7098 51.7585 49.6957 51.9573 49.7049C52.1811 49.7505 52.3967 49.8298 52.5969 49.9401C53.1213 50.1839 53.7065 50.2638 54.2767 50.1695C54.8469 50.0751 55.3757 49.8108 55.7946 49.4109C56.4843 48.6801 56.6598 47.5965 56.6306 46.5885C56.5998 44.4448 55.8913 42.3664 54.6075 40.6539C53.9763 39.8139 53.0818 38.9739 52.0159 38.8017C51.1088 38.6421 49.7419 38.7261 49.0648 39.4443Z" fill="#263238"/>
<path d="M70.1824 39.2637C70.0654 38.9151 70.3329 37.5417 70.3162 37.2141C70.149 33.5643 68.8239 32.7075 67.549 32.1741C66.132 31.6029 65.1246 32.2581 64.3555 32.9091C63.0681 32.0019 60.3594 31.5987 58.6414 33.6357C57.0948 35.4711 57.9894 38.2557 56.0582 39.2175C56.4386 42.0777 55.4856 42.6699 55.0843 41.9475C54.683 41.2251 54.6663 40.7253 53.638 40.1121C52.6891 39.5409 51.3641 40.1121 50.8374 41.0067C50.1979 42.0777 50.3609 43.6695 51.803 45.2067C52.4551 45.8997 53.1865 46.3659 54.2399 46.1811C54.4157 46.1709 54.5862 46.1173 54.7364 46.0249C54.8867 45.9326 55.0119 45.8045 55.101 45.6519L55.147 52.8549C57.099 56.8869 61.8057 55.3371 64.761 60.0411C67.2355 54.4173 64.5311 52.1997 64.5311 52.1997V50.3643C66.0465 50.4732 67.5497 50.0254 68.7612 49.1043C70.2242 47.9199 71.6872 43.7199 70.1824 39.2637Z" fill="#FFBDA7"/>
<path d="M62.7002 39.4695C62.646 39.6235 62.5483 39.7582 62.4191 39.8572C62.2898 39.9562 62.1347 40.0152 61.9726 40.027C61.8105 40.0388 61.6485 40.0029 61.5064 39.9236C61.3643 39.8444 61.2483 39.7252 61.1726 39.5808C61.0968 39.4363 61.0646 39.2728 61.0799 39.1102C61.0951 38.9477 61.1573 38.7931 61.2586 38.6654C61.3599 38.5378 61.4961 38.4426 61.6504 38.3914C61.8047 38.3403 61.9706 38.3355 62.1276 38.3775C62.3475 38.4462 62.5313 38.5998 62.6387 38.8045C62.7461 39.0093 62.7682 39.2484 62.7002 39.4695Z" fill="#263238"/>
<path d="M68.9993 36.7731L67.018 37.2477C66.9811 37.1195 66.9706 36.985 66.9871 36.8525C67.0036 36.72 67.0468 36.5922 67.1141 36.4771C67.1814 36.3619 67.2713 36.2617 67.3784 36.1827C67.4855 36.1036 67.6075 36.0473 67.737 36.0172C68.0038 35.9563 68.2836 36.0009 68.5186 36.1416C68.7535 36.2823 68.9257 36.5084 68.9993 36.7731Z" fill="#263238"/>
<path d="M67.34 39.2427C67.4077 39.3913 67.517 39.5168 67.6545 39.6038C67.7921 39.6909 67.9519 39.7358 68.1144 39.733C68.277 39.7303 68.4352 39.6799 68.5697 39.5881C68.7042 39.4964 68.8092 39.3672 68.8718 39.2164C68.9344 39.0657 68.9518 38.8998 68.922 38.7392C68.8922 38.5786 68.8165 38.4303 68.7041 38.3123C68.5916 38.1943 68.4474 38.1118 68.289 38.0749C68.1306 38.038 67.965 38.0483 67.8123 38.1045C67.7067 38.1478 67.6107 38.2117 67.5297 38.2924C67.4488 38.3731 67.3845 38.4691 67.3406 38.5749C67.2967 38.6807 67.274 38.7941 67.2739 38.9088C67.2738 39.0234 67.2963 39.1369 67.34 39.2427Z" fill="#263238"/>
<path d="M62.7004 37.4409L60.6104 36.8781C60.6396 36.7382 60.6969 36.6057 60.7789 36.4888C60.8608 36.372 60.9657 36.2731 61.087 36.1984C61.2084 36.1237 61.3436 36.0747 61.4844 36.0543C61.6253 36.034 61.7688 36.0428 61.9062 36.0801C62.1856 36.1635 62.423 36.3504 62.5705 36.6031C62.7179 36.8557 62.7643 37.1552 62.7004 37.4409Z" fill="#263238"/>
<path d="M68.101 41.7921L65.4174 42.8967L64.7695 38.1801L68.101 41.7921Z" fill="#F0997A"/>
<path d="M59.7949 39.2175C59.8938 39.2112 59.9929 39.2112 60.0917 39.2175C60.1202 39.2226 60.1495 39.2194 60.1762 39.2083C60.2029 39.1971 60.2258 39.1784 60.2422 39.1545C60.4094 38.8605 60.1168 38.8101 59.983 38.8059H59.1846C59.0551 38.8059 58.9255 38.8059 58.8001 38.8059C58.6747 38.8059 58.6496 38.8059 58.6245 38.8941C58.5994 38.9823 58.7165 39.1293 58.8252 39.1251C58.8586 39.1251 58.9046 39.1251 58.9422 39.1251H59.0133H59.1721H59.5107L59.7949 39.2175ZM60.2714 39.8349C60.2435 39.7935 60.2039 39.7615 60.1578 39.7428C60.1116 39.7241 60.061 39.7196 60.0123 39.7299C59.8449 39.7888 59.6871 39.8723 59.5441 39.9777C59.4702 40.0265 59.4003 40.0813 59.3351 40.1415L59.2432 40.2381C59.2208 40.2655 59.2012 40.295 59.1846 40.3263C59.1729 40.3541 59.1702 40.3849 59.1769 40.4144C59.1837 40.4438 59.1996 40.4703 59.2223 40.4901C59.2557 40.5279 59.3268 40.5741 59.3811 40.5447L59.6361 40.3893H59.6612L59.7155 40.3557L59.8116 40.2927L60.0081 40.1835C60.0792 40.1457 60.1586 40.1163 60.2296 40.0743C60.2514 40.0645 60.2704 40.0494 60.285 40.0305C60.2997 40.0116 60.3095 39.9893 60.3136 39.9657C60.3177 39.9421 60.316 39.9179 60.3087 39.8951C60.3013 39.8723 60.2885 39.8516 60.2714 39.8349Z" fill="#F0997A"/>
<path d="M63.4612 44.9799C63.4082 45.1147 63.3842 45.2592 63.3907 45.404C63.3972 45.5487 63.434 45.6905 63.4988 45.8199C63.5673 45.951 63.6627 46.0659 63.7787 46.1571C63.8947 46.2484 64.0287 46.3138 64.1718 46.3491C64.3507 46.3909 64.5389 46.3601 64.6954 46.2634C64.8519 46.1667 64.9641 46.0119 65.0078 45.8325C65.0536 45.6081 65.0242 45.3748 64.9242 45.1689C64.8443 44.9665 64.6964 44.7986 64.5062 44.6943C64.5492 44.5838 64.6206 44.4868 64.7131 44.413C64.8057 44.3392 64.916 44.2914 65.0328 44.2743C64.8712 44.2074 64.6971 44.1765 64.5225 44.1837C64.3478 44.191 64.1768 44.2362 64.0213 44.3163C63.8878 44.3827 63.7692 44.4758 63.6729 44.5899C63.5766 44.704 63.5045 44.8368 63.4612 44.9799Z" fill="#B16668"/>
<path d="M64.5355 50.3853C61.9188 50.3349 58.0815 49.3101 56.6353 46.4079C57.1034 49.3479 60.0545 50.5617 61.5342 50.9481C62.5156 51.2236 63.5256 51.3829 64.5438 51.4227L64.5355 50.3853Z" fill="#F0997A"/>
<path d="M60.6641 32.7621C61.2512 32.5056 61.8888 32.387 62.5284 32.4154C63.168 32.4438 63.7927 32.6184 64.355 32.9259C63.7155 31.4181 61.6631 30.5907 60.175 30.6915C59.4018 30.8184 58.6547 31.0724 57.9638 31.4433C57.4822 31.7383 57.0642 32.1269 56.734 32.5863C56.4038 33.0457 56.1682 33.5667 56.041 34.1187C55.7818 35.0931 55.7693 36.1263 55.4683 37.0923C55.1674 38.0583 54.4609 38.9991 53.4619 39.1293C54.1391 39.4065 54.8706 39.6921 55.5854 39.5493C56.4214 39.3603 57.3075 38.9235 57.6168 38.1129C58.0098 37.0881 58.1895 35.9625 58.5615 34.9293C58.7188 34.428 58.991 33.9708 59.3562 33.5944C59.7214 33.218 60.1693 32.933 60.6641 32.7621Z" fill="#455A64"/>
<path d="M63.8661 58.315C64.2234 58.8682 64.5298 59.453 64.7815 60.0622C63.8034 58.861 62.4532 57.8824 62.1815 57.9622C61.6632 58.1302 60.5095 60.3394 60.2253 61.0534C59.9411 61.7674 59.9954 61.7548 59.0215 61.1458C57.3104 60.0685 55.8032 58.6948 54.5698 57.0886C53.2405 55.2784 52.1328 53.3464 52.1328 53.3464L53.3116 51.7168C54.2019 50.4862 54.5656 49.8688 55.1257 49.8184V50.6584C55.2678 51.6244 56.8437 52.6198 58.2314 53.7496C59.6192 54.8794 61.8346 55.9294 62.3696 56.4166C62.9529 56.9772 63.4565 57.616 63.8661 58.315Z" fill="#F0F0F0"/>
<path d="M68.761 59.1424C68.623 59.5414 67.2729 56.4796 66.671 56.5636C66.3742 56.5972 65.3125 59.1298 64.7858 60.0328C64.7858 60.0328 65.2957 56.6056 65.3501 55.9798C65.442 54.9214 64.5601 52.2208 64.5601 52.2208V51.0112C65.6009 51.2212 66.2028 52.4308 66.8716 53.1574C67.5404 53.884 68.3889 54.6862 68.5854 55.6774C68.837 56.8143 68.8964 57.9857 68.761 59.1424Z" fill="#F0F0F0"/>
<path d="M62.7793 76.8999C64.5725 76.3413 65.4252 76.1901 66.1442 76.2573C66.8632 76.3245 69.4882 76.2279 70.4621 76.3497C71.0682 76.4295 70.9596 77.4794 70.0441 77.849C69.3252 78.1304 67.6783 78.2187 66.9259 78.3321C66.1735 78.4455 64.4179 79.5543 64.4179 79.5543L62.7793 76.8999Z" fill="#F0997A"/>
<path d="M41.6659 60.1503C43.1457 57.1851 42.665 55.9881 47.079 56.0301C49.8337 60.5913 47.4636 69.1215 47.4636 69.1215L43.9817 78.3027C43.9817 78.3027 54.2268 80.3187 55.3972 80.0499C56.5676 79.7811 60.1332 77.8617 61.291 77.3241C62.8669 76.5933 63.381 76.9923 63.937 77.3241C65.7511 78.4245 66.1106 78.7731 66.4199 79.2183C66.509 79.3618 66.5636 79.5242 66.5796 79.6925C66.5955 79.8609 66.5724 80.0307 66.5119 80.1885C66.9967 80.4657 67.7659 80.7597 67.5485 81.7131C67.507 81.9687 67.431 82.2173 67.3228 82.4523C67.4466 82.5331 67.5383 82.655 67.5819 82.7967C67.8202 83.5065 66.445 85.0563 65.8263 85.3167C65.4083 85.5015 64.9109 85.3503 64.3341 85.0143C63.845 84.7245 64.2839 84.2499 64.2839 84.2499L63.5441 84.0021C61.5586 84.5649 60.6431 86.9421 58.3943 86.6061C57.5086 86.3496 56.6 86.1808 55.6815 86.1021C50.6655 85.9005 41.6492 87.8325 37.5528 86.5809C33.5526 85.3545 34.4889 83.1831 34.9027 80.4657C35.3918 77.2485 40.0107 63.4599 41.6659 60.1503Z" fill="#FFBDA7"/>
<path d="M47.0709 54.9927C42.8366 55.9797 42.08 56.5677 40.8009 59.1255C39.4006 61.9899 36.065 69.8775 35.1119 72.9519C34.1589 76.0263 32.8338 80.1465 32.6039 82.0785C32.1525 85.7157 35.8852 86.4087 37.737 86.8539C39.5887 87.2991 47.2381 87.3789 48.9603 87.1017C48.9603 87.1017 47.7063 85.8711 48.1243 83.0235C48.5047 80.5035 49.7169 79.4829 50.5361 79.3947L44.3456 77.9499C44.3456 77.9499 47.3886 70.1379 48.5256 67.3197C49.6625 64.5015 49.395 57.1893 47.0709 54.9927Z" fill="#263238"/>
<path d="M44.7259 76.9755L44.3455 77.9499C41.7079 77.3829 39.2668 77.8743 37.7202 79.2435C39.0244 77.0973 41.3317 76.4001 44.7259 76.9755Z" fill="black"/>
<path d="M66.5123 80.1885L64.4014 78.7563L66.5833 79.8273C66.5799 79.9509 66.5559 80.073 66.5123 80.1885Z" fill="#F0997A"/>
<path d="M67.3229 82.4565L64.8149 81.0117L67.4316 82.1289C67.4084 82.242 67.3719 82.352 67.3229 82.4565Z" fill="#F0997A"/>
<path d="M66.5369 83.5738C66.404 83.6837 66.2405 83.7497 66.0688 83.7628C65.8996 83.7858 65.728 83.7858 65.5588 83.7628H65.6048C65.4836 83.8804 65.354 83.998 65.2286 84.1114L65.1993 84.0148C65.2792 84.0313 65.3546 84.065 65.4203 84.1136C65.4859 84.1622 65.5403 84.2245 65.5797 84.2962C65.6558 84.4392 65.6905 84.6006 65.68 84.7624C65.6578 84.6126 65.6036 84.4693 65.5212 84.3424C65.4402 84.2308 65.3212 84.1531 65.1868 84.124H65.0781L65.1617 84.0442C65.2829 83.9224 65.4083 83.8048 65.5337 83.6914H65.5546H65.5797C65.7379 83.7234 65.899 83.7389 66.0604 83.7376C66.2307 83.7251 66.3948 83.6687 66.5369 83.5738Z" fill="#F0997A"/>
<path d="M65.7097 83.6536C65.3786 83.5697 65.0533 83.4645 64.7357 83.3386C64.6074 83.5264 64.4273 83.6724 64.2174 83.7586C63.9981 83.8554 63.7734 83.9395 63.5444 84.0106L64.2843 84.2584C64.4297 84.1613 64.5947 84.0978 64.7674 84.0724C64.9401 84.047 65.1163 84.0603 65.2833 84.1114L65.7097 83.6536Z" fill="#F0997A"/>
<path d="M107.405 185.138V179.8L133.927 164.415V169.749L107.405 185.138Z" fill="#FFC100"/>
<path opacity="0.7" d="M107.405 185.138V179.8L133.927 164.415V169.749L107.405 185.138Z" fill="white"/>
<path d="M107.405 179.8L84.3105 166.406V171.74L107.405 185.138V179.8Z" fill="#FFC100"/>
<path opacity="0.5" d="M107.405 179.8L84.3105 166.406V171.74L107.405 185.138V179.8Z" fill="white"/>
<path d="M107.405 179.8L84.3105 166.406L110.833 151.021L133.927 164.415L107.405 179.8Z" fill="#FFC100"/>
<path opacity="0.85" d="M107.405 179.8L84.3105 166.406L110.833 151.021L133.927 164.415L107.405 179.8Z" fill="white"/>
<path d="M107.405 177.603L130.136 164.415L132.702 95.6277L107.405 110.307V177.603Z" fill="#FFC100"/>
<path opacity="0.7" d="M107.405 177.603L130.136 164.415L132.702 95.6277L107.405 110.307V177.603Z" fill="white"/>
<path d="M107.405 177.603L88.1017 166.406L85.5352 97.6185L107.405 110.307V177.603Z" fill="#FFC100"/>
<path opacity="0.5" d="M107.405 177.603L88.1017 166.406L85.5352 97.6185L107.405 110.307V177.603Z" fill="white"/>
<path opacity="0.4" d="M132.401 103.679L132.702 95.6277L107.405 110.307L85.5352 97.6185L85.8361 105.67L107.405 118.182L132.401 103.679Z" fill="#FFC100"/>
<path opacity="0.55" d="M112.003 117.069L128.1 107.728L126.583 161.118L112.003 169.598V117.069Z" fill="white"/>
<path opacity="0.3" d="M125.768 111.709L124.338 159.791L114.268 165.671V118.383L125.768 111.709ZM126.403 110.685L113.696 118.06V166.641L124.881 160.131L126.399 110.685H126.403Z" fill="#FFC100"/>
<path d="M105.628 115.666V108.291L141.154 87.6813V95.0565L105.628 115.666Z" fill="#FFC100"/>
<path opacity="0.7" d="M105.628 115.666V108.291L141.154 87.6813V95.0565L105.628 115.666Z" fill="white"/>
<path d="M105.628 108.291L80.7573 97.3287V101.239L105.628 115.666V108.291Z" fill="#FFC100"/>
<path opacity="0.5" d="M105.628 108.291L80.7573 97.3287V101.239L105.628 115.666V108.291Z" fill="white"/>
<path d="M105.628 108.291L80.7573 97.3287L116.283 76.7151L141.154 87.6813L105.628 108.291Z" fill="#FFC100"/>
<path opacity="0.85" d="M105.628 108.291L80.7573 97.3287L116.283 76.7151L141.154 87.6813L105.628 108.291Z" fill="white"/>
<path d="M131.252 85.4973C128.915 84.1449 125.128 84.1449 122.791 85.4973C121.625 86.1777 121.044 87.0639 121.044 87.9543C121.044 88.2273 121.044 88.5969 121.044 88.8741C121.044 89.7603 121.625 90.6465 122.791 91.3269C125.128 92.6835 128.915 92.6835 131.252 91.3269C132.422 90.6465 133.003 89.7603 132.999 88.8741V87.9543C132.982 87.0639 132.401 86.1777 131.252 85.4973Z" fill="#263238"/>
<path d="M127.001 91.4236C130.304 91.4236 132.982 89.8704 132.982 87.9544C132.982 86.0384 130.304 84.4852 127.001 84.4852C123.697 84.4852 121.019 86.0384 121.019 87.9544C121.019 89.8704 123.697 91.4236 127.001 91.4236Z" fill="#455A64"/>
<path d="M130.499 84.3592C128.568 83.2378 125.437 83.2378 123.506 84.3592C122.541 84.9178 122.06 85.6528 122.06 86.3878V87.7402C122.06 88.4752 122.541 89.206 123.506 89.7688C125.437 90.886 128.568 90.886 130.499 89.7688C131.465 89.206 131.946 88.4752 131.942 87.7402V86.3878C131.946 85.6528 131.465 84.9178 130.499 84.3592Z" fill="#37474F"/>
<path d="M123.506 84.3591C121.575 85.4763 121.575 87.2991 123.506 88.4163C125.437 89.5335 128.568 89.5335 130.499 88.4163C132.43 87.2991 132.43 85.4763 130.499 84.3591C128.568 83.2419 125.437 83.2377 123.506 84.3591Z" fill="#455A64"/>
<g opacity="0.2">
<path d="M87.6668 97.3414L105.854 105.603C106.009 105.665 106.175 105.695 106.342 105.689C106.509 105.683 106.673 105.642 106.824 105.569L118.758 98.6476C119.008 98.5006 118.983 98.278 118.703 98.152L100.512 89.8864C100.358 89.8239 100.192 89.7946 100.026 89.8004C99.8593 89.8062 99.696 89.8469 99.5463 89.92L87.6125 96.8416C87.3617 96.9886 87.3825 97.2112 87.6668 97.3414Z" fill="black"/>
</g>
<path d="M87.5793 96.5434L105.754 104.805C105.909 104.868 106.075 104.898 106.242 104.892C106.409 104.886 106.573 104.845 106.724 104.771L118.658 97.8496C118.908 97.7026 118.883 97.48 118.599 97.354L100.424 89.08C100.27 89.017 100.103 88.9871 99.9365 88.9922C99.7695 88.9972 99.6054 89.0372 99.4546 89.1094L87.5207 96.0352C87.2699 96.1906 87.295 96.4132 87.5793 96.5434Z" fill="#EBEBEB"/>
<path d="M99.4545 89.122L88.1226 95.695L105.637 103.654C105.792 103.717 105.958 103.746 106.125 103.74C106.292 103.734 106.456 103.694 106.607 103.62L117.938 97.06L100.424 89.08C100.269 89.019 100.102 88.9912 99.935 88.9984C99.7681 89.0057 99.6044 89.0477 99.4545 89.122Z" fill="#E0E0E0"/>
<path d="M87.4037 94.9894L105.595 103.251C105.749 103.313 105.915 103.343 106.081 103.337C106.248 103.331 106.411 103.29 106.561 103.217L118.495 96.2956C118.745 96.1486 118.72 95.926 118.44 95.7958L100.249 87.5344C100.094 87.4719 99.9288 87.4426 99.7625 87.4484C99.5962 87.4542 99.4329 87.4949 99.2832 87.568L87.3619 94.4896C87.0985 94.6366 87.1236 94.8592 87.4037 94.9894Z" fill="#FAFAFA"/>
<path d="M100.429 91.063C100.509 91.0888 100.59 91.1062 100.671 91.1151C100.752 91.1246 100.833 91.1254 100.914 91.1175C100.995 91.1106 101.074 91.095 101.153 91.0708C101.23 91.0471 101.305 91.0144 101.377 90.9729C101.512 90.8952 101.597 90.8076 101.632 90.71C101.666 90.6129 101.648 90.5112 101.577 90.4046C101.506 90.2986 101.379 90.1925 101.196 90.0865C101.012 89.9804 100.828 89.9062 100.643 89.864C100.458 89.8218 100.281 89.8106 100.111 89.8303C99.9419 89.8506 99.7878 89.9007 99.6486 89.9809C99.5224 90.0536 99.4369 90.1286 99.3922 90.2059C99.3475 90.2841 99.3427 90.3606 99.3779 90.4354C99.4122 90.5107 99.4856 90.5809 99.598 90.6458L99.4679 90.7014L100.148 90.3095L100.568 90.5519L99.4638 91.1881L99.1316 90.9962C98.8998 90.8624 98.7496 90.7191 98.681 90.5666C98.6132 90.4145 98.6202 90.2629 98.7018 90.1119C98.7843 89.9614 98.9364 89.8223 99.158 89.6946C99.4054 89.5521 99.6772 89.4584 99.9735 89.4135C100.271 89.3691 100.572 89.3749 100.879 89.431C101.186 89.4882 101.478 89.597 101.756 89.7576C101.97 89.8811 102.129 90.0089 102.235 90.1412C102.341 90.2745 102.395 90.4073 102.4 90.5395C102.404 90.6718 102.362 90.7985 102.273 90.9198C102.185 91.0411 102.053 91.152 101.879 91.2525C101.729 91.3386 101.568 91.4061 101.396 91.455C101.224 91.5045 101.049 91.5351 100.87 91.5469C100.691 91.5592 100.515 91.5521 100.342 91.5258C100.17 91.5 100.01 91.4546 99.8617 91.3896L100.429 91.063ZM98.6407 93.0763L98.0828 93.3977L96.3702 92.4087C96.1779 92.2977 96.0556 92.1741 96.0033 92.0378C95.9501 91.9021 95.9652 91.7637 96.0486 91.6226C96.1328 91.4819 96.284 91.3488 96.5022 91.2231C96.7212 91.0969 96.9527 91.0096 97.1966 90.9612C97.4413 90.9133 97.6814 90.9048 97.9166 90.9356C98.1519 90.9664 98.3657 91.0374 98.558 91.1484L100.271 92.1374L99.7127 92.4588L98.0477 91.4973C97.9473 91.4393 97.8361 91.4004 97.7142 91.3805C97.5914 91.3611 97.4673 91.3618 97.3419 91.3825C97.2165 91.4033 97.1002 91.4446 96.9928 91.5064C96.8846 91.5688 96.8128 91.6358 96.7776 91.7076C96.7415 91.7799 96.7406 91.8512 96.7749 91.9216C96.8083 91.9924 96.8753 92.0569 96.9757 92.1149L98.6407 93.0763ZM97.0659 93.9835L94.4287 92.4607L94.9866 92.1393L97.6238 93.6621L97.0659 93.9835ZM96.0468 86.5338L98.8783 88.1688L98.2793 88.5139L95.9414 87.1639L94.7268 87.8636L94.2332 87.5785L96.0468 86.5338ZM96.6361 88.8911L97.1297 89.1761L94.8029 90.5166L94.3093 90.2315L95.1767 89.7319L92.8388 88.3818L93.4309 88.0408L95.7687 89.3908L96.6361 88.8911ZM94.5857 90.6417L93.9147 91.0282L92.0493 90.6962L92.0217 90.7121L92.595 91.7884L91.9241 92.175L91.127 90.5226L90.126 89.9446L90.7209 89.6019L91.7218 90.1799L94.5857 90.6417Z" fill="#FFC100"/>
<path d="M106.235 101.81C106.196 101.809 106.158 101.796 106.127 101.771C106.096 101.747 106.074 101.713 106.064 101.675C106.055 101.637 106.057 101.597 106.072 101.561C106.087 101.525 106.113 101.494 106.147 101.474L115.589 96.0142C115.631 95.9913 115.679 95.9855 115.724 95.9981C115.77 96.0106 115.808 96.0405 115.832 96.0814C115.844 96.1017 115.851 96.1242 115.854 96.1476C115.857 96.1709 115.856 96.1947 115.85 96.2174C115.843 96.2401 115.833 96.2613 115.818 96.2798C115.804 96.2983 115.786 96.3136 115.765 96.325L106.327 101.785C106.298 101.8 106.267 101.808 106.235 101.81Z" fill="#EBEBEB"/>
<path d="M104.399 101.05C104.36 101.05 104.322 101.037 104.29 101.013C104.259 100.989 104.236 100.955 104.226 100.917C104.215 100.879 104.218 100.838 104.232 100.802C104.247 100.765 104.273 100.734 104.307 100.714L113.75 95.254C113.77 95.2421 113.793 95.2344 113.816 95.2313C113.839 95.2283 113.863 95.2299 113.885 95.2362C113.908 95.2425 113.929 95.2532 113.947 95.2678C113.966 95.2824 113.981 95.3006 113.992 95.3212C114.004 95.3413 114.012 95.3635 114.016 95.3867C114.019 95.4099 114.018 95.4335 114.012 95.4562C114.006 95.4789 113.996 95.5002 113.982 95.5188C113.968 95.5374 113.95 95.5531 113.93 95.5648L104.487 101.025C104.461 101.041 104.43 101.05 104.399 101.05Z" fill="#EBEBEB"/>
<path d="M102.56 100.286C102.521 100.287 102.482 100.274 102.45 100.251C102.419 100.227 102.396 100.193 102.386 100.155C102.376 100.116 102.379 100.075 102.394 100.039C102.41 100.003 102.438 99.9726 102.472 99.9538L111.911 94.4938C111.931 94.4816 111.954 94.4736 111.977 94.4702C112.001 94.4668 112.024 94.468 112.047 94.4739C112.07 94.4797 112.092 94.4901 112.111 94.5043C112.13 94.5185 112.145 94.5364 112.158 94.5568C112.169 94.5774 112.177 94.6003 112.18 94.6239C112.183 94.6476 112.182 94.6717 112.176 94.6947C112.169 94.7178 112.159 94.7393 112.144 94.7582C112.129 94.7771 112.111 94.7928 112.091 94.8046L102.652 100.265C102.624 100.28 102.592 100.287 102.56 100.286Z" fill="#EBEBEB"/>
<path d="M100.738 99.5254C100.707 99.5259 100.676 99.5179 100.649 99.5024C100.622 99.4869 100.599 99.4644 100.583 99.4372C100.571 99.4168 100.563 99.3942 100.56 99.3707C100.557 99.3472 100.558 99.3232 100.564 99.3002C100.569 99.2772 100.58 99.2556 100.594 99.2366C100.608 99.2175 100.626 99.2015 100.646 99.1894L110.089 93.7294C110.109 93.7175 110.131 93.7098 110.155 93.7068C110.178 93.7037 110.202 93.7054 110.224 93.7116C110.247 93.7179 110.268 93.7286 110.286 93.7432C110.305 93.7578 110.32 93.776 110.331 93.7966C110.343 93.8167 110.351 93.8389 110.354 93.8621C110.358 93.8853 110.357 93.9089 110.351 93.9316C110.345 93.9543 110.335 93.9756 110.32 93.9942C110.306 94.0129 110.289 94.0285 110.269 94.0402L100.826 99.5002C100.799 99.5162 100.769 99.5249 100.738 99.5254Z" fill="#EBEBEB"/>
<path d="M98.8862 98.7652C98.8545 98.7653 98.8234 98.7567 98.7962 98.7404C98.769 98.7242 98.7466 98.7008 98.7315 98.6728C98.7197 98.6525 98.712 98.63 98.709 98.6066C98.706 98.5833 98.7076 98.5595 98.7138 98.5368C98.7201 98.5141 98.7308 98.4929 98.7453 98.4744C98.7598 98.4559 98.7779 98.4406 98.7984 98.4292L108.237 92.9692C108.257 92.9545 108.28 92.9442 108.305 92.939C108.33 92.9338 108.355 92.9338 108.379 92.9391C108.404 92.9443 108.427 92.9547 108.447 92.9695C108.468 92.9843 108.485 93.0032 108.497 93.025C108.51 93.0468 108.518 93.071 108.521 93.096C108.523 93.1211 108.521 93.1465 108.513 93.1705C108.506 93.1945 108.493 93.2167 108.476 93.2355C108.46 93.2544 108.439 93.2695 108.417 93.28L98.974 98.74C98.9477 98.7566 98.9173 98.7654 98.8862 98.7652Z" fill="#EBEBEB"/>
<path d="M97.0467 98.0008C97.0155 98.0008 96.9849 97.9927 96.9577 97.9773C96.9306 97.9618 96.908 97.9395 96.892 97.9126C96.8701 97.8704 96.8648 97.8215 96.8772 97.7755C96.8896 97.7296 96.9188 97.69 96.9589 97.6648L106.402 92.2048C106.443 92.1819 106.491 92.1761 106.536 92.1887C106.582 92.2013 106.62 92.2312 106.644 92.272C106.656 92.2923 106.663 92.3148 106.667 92.3382C106.67 92.3615 106.668 92.3853 106.662 92.408C106.655 92.4307 106.645 92.4519 106.63 92.4704C106.616 92.4889 106.598 92.5042 106.577 92.5156L97.1386 97.9756C97.1108 97.9922 97.079 98.0009 97.0467 98.0008Z" fill="#EBEBEB"/>
<path d="M95.2119 97.2406C95.1724 97.2406 95.1341 97.2277 95.1027 97.2037C95.0713 97.1797 95.0486 97.1461 95.0382 97.1079C95.0277 97.0697 95.0301 97.0291 95.0448 96.9923C95.0596 96.9556 95.086 96.9248 95.1199 96.9046L104.563 91.4446C104.583 91.4326 104.606 91.4248 104.629 91.4217C104.653 91.4186 104.677 91.4202 104.7 91.4265C104.723 91.4327 104.744 91.4435 104.763 91.4581C104.782 91.4728 104.797 91.491 104.809 91.5118C104.831 91.5533 104.836 91.6016 104.824 91.6468C104.811 91.6921 104.782 91.7309 104.742 91.7554L95.2996 97.2154C95.2734 97.232 95.2429 97.2407 95.2119 97.2406Z" fill="#EBEBEB"/>
<path d="M79.098 26.1051C81.9111 18.7131 90.4383 16.8945 98.8485 16.8147C106.498 16.7391 115.121 19.2297 117.332 26.1051C119.218 31.9851 115.915 37.5795 108.249 39.2301C105.269 39.8442 102.244 40.2066 99.2038 40.3137C98.0292 42.5229 95.2704 43.8795 93.1929 44.0181C94.1043 42.9929 94.6293 41.6792 94.6768 40.3053C92.336 40.2171 88.7956 39.9189 85.8445 38.9319C80.3352 37.0881 76.9118 31.8675 79.098 26.1051Z" fill="white"/>
<path d="M93.214 44.2281C93.1759 44.2283 93.1385 44.2178 93.106 44.1977C93.0735 44.1777 93.0472 44.149 93.0301 44.1147C93.0112 44.078 93.0035 44.0365 93.0079 43.9954C93.0124 43.9543 93.0288 43.9155 93.0552 43.8837C93.8772 42.9467 94.3771 41.7685 94.4805 40.5237C92.0478 40.4229 88.6285 40.1037 85.8029 39.1461C82.7598 38.1297 80.3229 36.0717 79.1149 33.5013C78.5729 32.339 78.2767 31.0764 78.245 29.7932C78.2134 28.51 78.4469 27.2342 78.9309 26.0463C81.2759 19.7799 87.78 16.7097 98.8445 16.6047C106.402 16.5291 115.259 18.9735 117.529 26.0379C117.982 27.3153 118.155 28.6756 118.038 30.0264C117.922 31.3772 117.517 32.6869 116.852 33.8667C115.276 36.6093 112.254 38.5875 108.291 39.4359C105.338 40.0414 102.341 40.4038 99.3293 40.5195C98.0753 42.7455 95.2622 44.0895 93.2098 44.2281H93.214ZM99.1872 17.0205H98.8695C88.0015 17.1213 81.6187 20.1159 79.3155 26.1765C78.8498 27.3135 78.6245 28.5354 78.654 29.7646C78.6835 30.9938 78.9672 32.2034 79.4869 33.3165C80.6531 35.7861 83.0023 37.7643 85.9324 38.7471C88.8626 39.7299 92.2902 40.0071 94.7104 40.1079C94.7655 40.1101 94.8176 40.1336 94.8558 40.1736C94.894 40.2135 94.9153 40.2667 94.9153 40.3221C94.8736 41.5695 94.4471 42.7731 93.6947 43.7661C95.6091 43.4721 97.9959 42.2121 99.0493 40.2255C99.0673 40.1933 99.0933 40.1663 99.1248 40.1471C99.1563 40.128 99.1922 40.1174 99.229 40.1163C102.255 40.0098 105.267 39.6488 108.233 39.0369C112.062 38.1969 115.004 36.3069 116.518 33.6693C117.153 32.5406 117.54 31.2876 117.651 29.9954C117.762 28.7033 117.595 27.4023 117.161 26.1807C114.95 19.4145 106.494 17.0205 99.1663 17.0205H99.1872Z" fill="#455A64"/>
<path d="M85.6229 27.4324C85.4464 27.4281 85.2707 27.4565 85.1045 27.5164C84.9764 27.5678 84.8608 27.6466 84.766 27.7474C84.679 27.846 84.6135 27.9619 84.5737 28.0876C84.5284 28.2239 84.4976 28.3647 84.4817 28.5076C84.4663 28.616 84.4593 28.7256 84.4608 28.8352C84.4608 28.9738 84.4608 29.1166 84.4608 29.2552C84.4608 29.3938 84.4608 29.5492 84.4608 29.6752C84.4608 29.8012 84.4608 29.9272 84.4608 30.007C84.4709 30.1503 84.5004 30.2916 84.5486 30.427C84.589 30.552 84.656 30.6667 84.7451 30.763C84.8403 30.8652 84.9576 30.9442 85.0878 30.994C85.2519 31.0566 85.4265 31.0866 85.602 31.0822C85.7514 31.0834 85.9003 31.065 86.045 31.0276C86.1752 30.9952 86.2975 30.9366 86.4045 30.8554C86.5105 30.7743 86.594 30.6673 86.647 30.5446C86.7128 30.3998 86.7442 30.2416 86.7389 30.0826H85.9782C85.9141 30.0816 85.8527 30.0561 85.8068 30.0112C85.7613 29.9655 85.7358 29.9035 85.7357 29.839V28.873C85.7357 28.841 85.742 28.8093 85.7542 28.7797C85.7664 28.7502 85.7842 28.7233 85.8067 28.7007C85.8292 28.6781 85.856 28.6601 85.8854 28.6479C85.9148 28.6357 85.9463 28.6294 85.9782 28.6294H88.1977C88.262 28.6294 88.3237 28.6551 88.3691 28.7008C88.4138 28.7469 88.4393 28.8085 88.4402 28.873V30.0364C88.4463 30.3969 88.3721 30.7542 88.2228 31.0822C88.0839 31.384 87.8814 31.652 87.6293 31.8676C87.3652 32.0862 87.0634 32.2542 86.7389 32.3632C86.3812 32.4797 86.0072 32.5379 85.6312 32.5354C85.235 32.5436 84.8407 32.4766 84.4692 32.338C84.1471 32.2139 83.8519 32.0285 83.5997 31.792C83.3612 31.5726 83.1718 31.3049 83.0438 31.0066C82.9138 30.7061 82.8387 30.3846 82.8223 30.0574C82.8223 29.8096 82.8223 29.5408 82.8223 29.2594C82.8223 28.978 82.8223 28.7008 82.8223 28.4404C82.8326 28.1128 82.9064 27.7903 83.0396 27.4912C83.1708 27.1935 83.3614 26.9262 83.5997 26.7058C83.853 26.4717 84.1499 26.2904 84.4734 26.1724C84.8473 26.0376 85.2424 25.9721 85.6396 25.9792C86.0264 25.9742 86.4111 26.0367 86.7765 26.164C87.0874 26.2739 87.3783 26.4342 87.6376 26.6386C87.8575 26.8121 88.0444 27.0241 88.1894 27.2644C88.3093 27.4605 88.3823 27.6819 88.4026 27.9112C88.4065 27.9376 88.4036 27.9647 88.3941 27.9897C88.3846 28.0148 88.3688 28.0369 88.3482 28.054C88.3102 28.0913 88.2593 28.1124 88.2061 28.1128H86.9855C86.9465 28.1147 86.9074 28.1086 86.8708 28.0949C86.8341 28.0811 86.8007 28.0601 86.7724 28.033L86.6261 27.8692C86.528 27.7496 86.4107 27.6474 86.2791 27.5668C86.0761 27.4644 85.8496 27.418 85.6229 27.4324Z" fill="#FFC100"/>
<path d="M94.6434 26.0799C94.6757 26.0795 94.7077 26.086 94.7372 26.099C94.7668 26.1121 94.7932 26.1313 94.8148 26.1555C94.8383 26.1774 94.8568 26.2041 94.8691 26.2338C94.8814 26.2635 94.8871 26.2956 94.8858 26.3277V29.9523C94.8939 30.3313 94.8271 30.7082 94.6894 31.0611C94.5636 31.3689 94.3708 31.6445 94.1251 31.8675C93.87 32.0902 93.5729 32.2587 93.2514 32.3631C92.5241 32.5871 91.7467 32.5871 91.0193 32.3631C90.6985 32.2602 90.4024 32.0914 90.1499 31.8675C89.9055 31.6442 89.7141 31.3687 89.5898 31.0611C89.4506 30.7085 89.3824 30.3316 89.3891 29.9523V26.3151C89.3922 26.2504 89.4191 26.1891 89.4647 26.1433C89.5103 26.0975 89.5713 26.0704 89.6357 26.0673H90.8187C90.8831 26.0704 90.9441 26.0975 90.9897 26.1433C91.0353 26.1891 91.0623 26.2504 91.0653 26.3151V29.9019C91.0497 30.2046 91.1432 30.5029 91.3286 30.7419C91.551 30.942 91.839 31.0527 92.1375 31.0527C92.436 31.0527 92.724 30.942 92.9463 30.7419C93.1333 30.5034 93.2283 30.2052 93.2138 29.9019V26.3151C93.2169 26.2504 93.2438 26.1891 93.2894 26.1433C93.3351 26.0975 93.396 26.0704 93.4604 26.0673L94.6434 26.0799Z" fill="#FFC100"/>
<path d="M96.3323 32.4262C96.3004 32.4266 96.2687 32.4205 96.2393 32.4082C96.2098 32.396 96.1831 32.3778 96.1609 32.3548C96.1382 32.3323 96.1202 32.3055 96.108 32.2759C96.0958 32.2463 96.0896 32.2146 96.0898 32.1826V26.3026C96.0909 26.2379 96.1166 26.1761 96.1618 26.13C96.2069 26.0838 96.268 26.0569 96.3323 26.0548H97.5194C97.5517 26.0546 97.5836 26.0612 97.6131 26.0742C97.6426 26.0873 97.6691 26.1064 97.6908 26.1304C97.7135 26.1528 97.7315 26.1796 97.7437 26.2092C97.7559 26.2388 97.7621 26.2705 97.7618 26.3026V32.1826C97.7621 32.2146 97.7559 32.2463 97.7437 32.2759C97.7315 32.3055 97.7135 32.3323 97.6908 32.3548C97.6689 32.3782 97.6423 32.3967 97.6127 32.409C97.5832 32.4213 97.5514 32.4271 97.5194 32.4262H96.3323Z" fill="#FFC100"/>
<path d="M103.459 30.9729C103.523 30.975 103.584 31.002 103.63 31.0481C103.675 31.0942 103.7 31.156 103.702 31.2207V32.1825C103.702 32.2145 103.696 32.2462 103.683 32.2758C103.671 32.3054 103.653 32.3322 103.63 32.3547C103.608 32.3777 103.582 32.3959 103.552 32.4082C103.523 32.4205 103.491 32.4266 103.459 32.4261H99.2791C99.2471 32.4271 99.2153 32.4212 99.1857 32.4089C99.1562 32.3966 99.1296 32.3781 99.1077 32.3547C99.085 32.3322 99.067 32.3054 99.0548 32.2758C99.0426 32.2462 99.0364 32.2145 99.0366 32.1825V26.3025C99.0364 26.2705 99.0426 26.2387 99.0548 26.2092C99.067 26.1796 99.085 26.1528 99.1077 26.1303C99.1294 26.1063 99.1559 26.0872 99.1854 26.0742C99.2149 26.0611 99.2468 26.0545 99.2791 26.0547H100.466C100.498 26.0545 100.53 26.0611 100.56 26.0742C100.589 26.0872 100.616 26.1063 100.638 26.1303C100.66 26.1528 100.678 26.1796 100.69 26.2092C100.703 26.2387 100.709 26.2705 100.709 26.3025V30.9729H103.459Z" fill="#FFC100"/>
<path d="M108.17 26.0799C108.235 26.0821 108.296 26.109 108.341 26.1551C108.386 26.2013 108.412 26.2631 108.413 26.3277V27.2895C108.413 27.3216 108.407 27.3533 108.395 27.3829C108.382 27.4125 108.364 27.4393 108.342 27.4617C108.319 27.4848 108.293 27.503 108.263 27.5152C108.234 27.5275 108.202 27.5336 108.17 27.5331H106.59V32.1951C106.59 32.2275 106.584 32.2595 106.571 32.2893C106.559 32.3192 106.541 32.3462 106.518 32.3689C106.495 32.3916 106.468 32.4094 106.438 32.4214C106.408 32.4334 106.376 32.4393 106.344 32.4387H105.161C105.129 32.4397 105.097 32.4339 105.067 32.4216C105.038 32.4092 105.011 32.3908 104.989 32.3673C104.967 32.3449 104.949 32.3181 104.936 32.2885C104.924 32.2589 104.918 32.2272 104.918 32.1951V27.5205H103.326C103.261 27.5205 103.2 27.4949 103.154 27.4492C103.109 27.4035 103.083 27.3415 103.083 27.2769V26.3151C103.082 26.283 103.088 26.2509 103.1 26.2212C103.112 26.1915 103.131 26.1648 103.154 26.1429C103.176 26.1188 103.202 26.0995 103.232 26.0865C103.261 26.0734 103.293 26.0669 103.326 26.0673L108.17 26.0799Z" fill="#FFC100"/>
<path d="M112.534 32.1825C112.534 32.2146 112.528 32.2463 112.516 32.2759C112.503 32.3054 112.485 32.3323 112.463 32.3547C112.441 32.3782 112.414 32.3966 112.385 32.4089C112.355 32.4213 112.323 32.4271 112.291 32.4261H111.104C111.072 32.4266 111.041 32.4205 111.011 32.4082C110.982 32.3959 110.955 32.3777 110.933 32.3547C110.91 32.3323 110.892 32.3054 110.88 32.2759C110.868 32.2463 110.861 32.2146 110.862 32.1825V30.2463L108.772 26.3865C108.752 26.3505 108.74 26.3102 108.738 26.2689C108.738 26.2162 108.759 26.1655 108.796 26.1278C108.832 26.0902 108.882 26.0684 108.935 26.0673H110.189C110.288 26.0622 110.385 26.0953 110.46 26.1597C110.502 26.1994 110.539 26.2446 110.569 26.2941L111.706 28.5327L112.86 26.2941C112.888 26.2436 112.925 26.1982 112.968 26.1597C113.005 26.1274 113.047 26.1025 113.093 26.0867C113.139 26.0708 113.187 26.0642 113.236 26.0673H114.49C114.542 26.0684 114.592 26.0902 114.629 26.1278C114.666 26.1655 114.686 26.2162 114.686 26.2689C114.687 26.3105 114.675 26.3513 114.653 26.3865L112.563 30.2463L112.534 32.1825Z" fill="#FFC100"/>
</g>
<defs>
<clipPath id="clip0_171_18028">
<rect width="210" height="210" fill="white"/>
</clipPath>
</defs>
</svg>
