<svg width="210" height="210" viewBox="0 0 210 210" fill="none" xmlns="http://www.w3.org/2000/svg">
<g clip-path="url(#clip0_171_18168)">
<path opacity="0.5" d="M210 190.5C210 190.559 143.998 190.375 68.6147 190.375C-6.76813 190.375 0.773646 190.559 0.773646 190.5C0.773646 190.44 -6.79653 190.154 68.6147 190.154C144.026 190.154 210 190.436 210 190.5Z" fill="#263238"/>
<path d="M211 164.372H-1V164.482H211V164.372Z" fill="#EBEBEB"/>
<path d="M189.758 171.467H175.715V171.577H189.758V171.467Z" fill="#EBEBEB"/>
<path d="M139.437 172.666H135.753V172.776H139.437V172.666Z" fill="#EBEBEB"/>
<path d="M175.291 167.375H167.154V167.485H175.291V167.375Z" fill="#EBEBEB"/>
<path d="M39.5557 168.115H21.2432V168.226H39.5557V168.115Z" fill="#EBEBEB"/>
<path d="M46.0174 168.115H43.3335V168.226H46.0174V168.115Z" fill="#EBEBEB"/>
<path d="M94.4635 169.976H54.7432V170.087H94.4635V169.976Z" fill="#EBEBEB"/>
<path d="M99.4881 144.705H17.618C16.9766 144.703 16.3619 144.438 15.9088 143.966C15.4557 143.493 15.2012 142.854 15.2012 142.187V22.4959C15.2068 21.8327 15.4637 21.1985 15.9162 20.7312C16.3687 20.2639 16.9803 20.0011 17.618 20H99.4881C100.13 20 100.746 20.2653 101.2 20.7375C101.654 21.2097 101.909 21.8501 101.909 22.5179V142.187C101.909 142.854 101.654 143.495 101.2 143.967C100.746 144.439 100.13 144.705 99.4881 144.705ZM17.618 20.0882C17.0047 20.0894 16.417 20.3435 15.9837 20.7949C15.5505 21.2463 15.3072 21.8581 15.3072 22.4959V142.187C15.3072 142.824 15.5505 143.436 15.9837 143.888C16.417 144.339 17.0047 144.593 17.618 144.594H99.4881C100.102 144.593 100.69 144.339 101.124 143.888C101.558 143.437 101.802 142.825 101.803 142.187V22.4959C101.802 21.8577 101.558 21.2459 101.124 20.7947C100.69 20.3434 100.102 20.0894 99.4881 20.0882H17.618Z" fill="#EBEBEB"/>
<path d="M191.204 144.705H109.329C108.687 144.703 108.072 144.438 107.619 143.966C107.165 143.494 106.909 142.854 106.908 142.187V22.4959C106.915 21.8323 107.173 21.1981 107.626 20.7309C108.079 20.2637 108.691 20.0011 109.329 20H191.204C191.841 20.0023 192.451 20.2656 192.903 20.7328C193.354 21.2 193.611 21.8334 193.616 22.4959V142.187C193.616 142.853 193.362 143.492 192.91 143.964C192.458 144.436 191.844 144.702 191.204 144.705ZM109.329 20.0882C108.716 20.0894 108.127 20.3434 107.693 20.7947C107.26 21.2459 107.015 21.8577 107.014 22.4959V142.187C107.015 142.825 107.26 143.437 107.693 143.888C108.127 144.339 108.716 144.593 109.329 144.594H191.204C191.817 144.593 192.405 144.339 192.839 143.888C193.273 143.437 193.518 142.825 193.519 142.187V22.4959C193.518 21.8577 193.273 21.2459 192.839 20.7947C192.405 20.3434 191.817 20.0894 191.204 20.0882H109.329Z" fill="#EBEBEB"/>
<path d="M141.934 161.113L94.4931 44.9232H63.8506L139.929 161.809L141.934 161.113Z" fill="#F5F5F5"/>
<path d="M146.149 164.116H133.705L135.825 159.508H144.029L146.149 164.116Z" fill="#E0E0E0"/>
<path d="M68.0698 161.113L115.507 44.9232H146.149L70.0753 161.809L68.0698 161.113Z" fill="#F5F5F5"/>
<path d="M63.8506 164.116H76.295L74.175 159.508H65.9706L63.8506 164.116Z" fill="#E0E0E0"/>
<path d="M176.571 48.0674V164.116H166.857C166.857 164.116 167.281 121.867 173.188 106.35C173.188 106.35 148.808 85.5935 140.209 47.0753L176.571 48.0674Z" fill="#E6E6E6"/>
<path d="M146.713 48.0673C146.713 48.0673 152.416 76.9063 167.387 91.6301C167.387 91.6301 153.488 72.3203 151.805 48.6626L146.713 48.0673Z" fill="#E0E0E0"/>
<path d="M160.896 48.6627C160.896 48.6627 164.373 71.1519 170.47 82.0746C170.47 82.0746 163.923 60.5687 165.081 48.8435L160.896 48.6627Z" fill="#E0E0E0"/>
<path d="M33.4287 48.0674V164.116H43.1426C43.1426 164.116 42.7186 121.867 36.8122 106.35C36.8122 106.35 61.1922 85.5935 69.791 47.0753L33.4287 48.0674Z" fill="#E6E6E6"/>
<path d="M63.287 48.0673C63.287 48.0673 57.5842 76.9063 42.6128 91.6301C42.6128 91.6301 56.5115 72.3203 58.1948 48.6626L63.287 48.0673Z" fill="#E0E0E0"/>
<path d="M49.1042 48.6627C49.1042 48.6627 45.6274 71.1519 39.5303 82.0746C39.5303 82.0746 46.0768 60.5687 44.9193 48.8435L49.1042 48.6627Z" fill="#E0E0E0"/>
<path d="M177.152 42.0703H32.8522C32.1076 42.0703 31.5039 42.6981 31.5039 43.4725V48.7641C31.5039 49.5385 32.1076 50.1663 32.8522 50.1663H177.152C177.897 50.1663 178.5 49.5385 178.5 48.7641V43.4725C178.5 42.6981 177.897 42.0703 177.152 42.0703Z" fill="#F0F0F0"/>
<path d="M105 184.286C150.403 184.286 187.209 182.051 187.209 179.294C187.209 176.537 150.403 174.302 105 174.302C59.5969 174.302 22.7905 176.537 22.7905 179.294C22.7905 182.051 59.5969 184.286 105 184.286Z" fill="#F5F5F5"/>
<path d="M188.193 177.151H157.496L163.215 159.499H177.64L187.031 166.303L188.193 177.151Z" fill="#263238"/>
<path opacity="0.3" d="M188.193 177.151H157.496L163.215 159.499H177.64L187.031 166.303L188.193 177.151Z" fill="white"/>
<path opacity="0.2" d="M177.64 159.499L173.951 177.151H157.496L163.215 159.499H177.64Z" fill="white"/>
<path d="M172.431 169.802C173.515 166.21 172.373 162.638 169.879 161.824C167.386 161.011 164.486 163.263 163.402 166.856C162.318 170.448 163.461 174.02 165.954 174.834C168.448 175.647 171.348 173.395 172.431 169.802Z" fill="#263238"/>
<path opacity="0.2" d="M172.431 169.802C173.515 166.21 172.373 162.638 169.879 161.824C167.386 161.011 164.486 163.263 163.402 166.856C162.318 170.448 163.461 174.02 165.954 174.834C168.448 175.647 171.348 173.395 172.431 169.802Z" fill="white"/>
<path opacity="0.2" d="M167.354 172.605C168.867 173.099 170.631 171.723 171.288 169.544C171.946 167.366 171.254 165.192 169.737 164.694C168.219 164.195 166.463 165.576 165.802 167.75C165.14 169.924 165.84 172.106 167.354 172.605ZM166.154 167.869C166.726 165.964 168.274 164.782 169.588 165.201C170.903 165.62 171.513 167.525 170.941 169.43C170.368 171.335 168.821 172.516 167.506 172.102C166.192 171.687 165.577 169.774 166.154 167.869Z" fill="black"/>
<path opacity="0.2" d="M168.626 168.636C168.842 167.921 169.419 167.472 169.898 167.635C170.377 167.798 170.623 168.517 170.406 169.222C170.19 169.928 169.614 170.386 169.134 170.223C168.655 170.06 168.414 169.35 168.626 168.636Z" fill="black"/>
<path d="M21.8071 177.151H52.5047L46.785 159.499H32.3605L22.9689 166.303L21.8071 177.151Z" fill="#263238"/>
<path opacity="0.3" d="M21.8071 177.151H52.5047L46.785 159.499H32.3605L22.9689 166.303L21.8071 177.151Z" fill="white"/>
<path opacity="0.2" d="M32.3604 159.499L36.0534 177.151H52.5046L46.7848 159.499H32.3604Z" fill="white"/>
<path d="M44.0505 174.823C46.5439 174.01 47.6867 170.438 46.6029 166.846C45.5191 163.253 42.6191 161.001 40.1257 161.814C37.6322 162.628 36.4894 166.2 37.5732 169.792C38.6571 173.385 41.557 175.637 44.0505 174.823Z" fill="#263238"/>
<path opacity="0.2" d="M44.0505 174.823C46.5439 174.01 47.6867 170.438 46.6029 166.846C45.5191 163.253 42.6191 161.001 40.1257 161.814C37.6322 162.628 36.4894 166.2 37.5732 169.792C38.6571 173.385 41.557 175.637 44.0505 174.823Z" fill="white"/>
<path opacity="0.2" d="M44.1987 167.754C43.5372 165.571 41.7776 164.204 40.264 164.698C38.7503 165.192 38.0549 167.344 38.7121 169.549C39.3693 171.753 41.1332 173.103 42.6468 172.609C44.1605 172.115 44.8559 169.928 44.1987 167.754ZM42.5027 172.102C41.1798 172.543 39.6449 171.334 39.0683 169.429C38.4916 167.525 39.1022 165.633 40.4208 165.201C41.7395 164.768 43.2828 165.963 43.8552 167.868C44.4276 169.773 43.8171 171.692 42.4942 172.102H42.5027Z" fill="black"/>
<path opacity="0.2" d="M41.375 168.636C41.1588 167.921 40.5822 167.472 40.103 167.635C39.6239 167.798 39.378 168.517 39.5942 169.222C39.8105 169.928 40.3871 170.386 40.8662 170.223C41.3454 170.06 41.587 169.35 41.375 168.636Z" fill="black"/>
<path d="M169.969 130.029C168.172 130.029 165.95 129.654 164.11 128.212C161.655 126.281 160.413 122.921 160.417 118.167C160.417 111.063 157.271 104.166 151.763 99.2409C145.827 93.9494 134.447 88.3006 113.934 91.5726C102.604 93.3761 95.8967 92.8734 92.1867 89.9366C88.6335 87.1277 88.0951 82.3917 87.4082 76.3902C86.9842 72.4656 86.4542 68.0119 84.9744 63.3421C83.6473 59.1397 80.5182 56.1367 75.6761 54.4258C71.788 53.05 66.7721 52.4943 60.8361 52.7766C54.1377 53.1786 47.4953 54.2822 41.0099 56.0706C40.9829 56.0787 40.9539 56.0755 40.9292 56.0614C40.9046 56.0473 40.8863 56.0237 40.8784 55.9956C40.8739 55.9817 40.8722 55.967 40.8734 55.9524C40.8747 55.9378 40.8788 55.9236 40.8856 55.9108C40.8924 55.8979 40.9016 55.8867 40.9128 55.8777C40.924 55.8688 40.9368 55.8624 40.9505 55.8589C47.4512 54.0659 54.1092 52.9593 60.8234 52.5561C66.8103 52.2739 71.8474 52.8295 75.7439 54.2141C80.6581 55.9515 83.8296 58.9986 85.1822 63.2715C86.6662 67.9722 87.175 72.4303 87.6244 76.3637C88.3028 82.3123 88.8371 87.0086 92.3181 89.7646C95.9815 92.6618 102.638 93.1512 113.904 91.3521C134.498 88.0713 145.933 93.7421 151.903 99.0734C157.457 104.043 160.641 111.001 160.633 118.167C160.633 122.828 161.841 126.149 164.241 128.036C167.93 130.933 173.209 129.412 173.264 129.394C173.291 129.386 173.321 129.389 173.346 129.404C173.371 129.418 173.39 129.443 173.398 129.471C173.405 129.5 173.402 129.531 173.388 129.557C173.374 129.583 173.351 129.602 173.323 129.61C172.226 129.89 171.1 130.031 169.969 130.029Z" fill="#263238"/>
<path d="M168.77 133.094C166.972 133.094 164.75 132.723 162.914 131.277C160.455 129.346 159.213 125.986 159.217 121.232C159.217 114.128 156.071 107.231 150.563 102.31C144.627 97.0186 133.247 91.3655 112.738 94.6374C101.409 96.4454 94.701 95.9603 90.9868 93.0058C87.4379 90.1969 86.8952 85.4566 86.2126 79.455C85.7631 75.5305 85.2543 71.0767 83.7788 66.4069C82.4474 62.2045 79.3183 59.206 74.4762 57.4906C70.5882 56.1148 65.5934 55.5636 59.6362 55.8414C49.4602 56.3221 39.9075 59.109 39.81 59.1354C39.783 59.1436 39.754 59.1403 39.7293 59.1262C39.7047 59.1122 39.6864 59.0885 39.6786 59.0605C39.6707 59.0324 39.6739 59.0022 39.6874 58.9766C39.7009 58.9509 39.7236 58.9319 39.7506 58.9238C39.8482 58.8973 49.439 56.106 59.6235 55.6209C65.6104 55.3387 70.6475 55.8987 74.5483 57.2834C79.4582 59.0164 82.634 62.0678 83.9823 66.3408C85.4663 71.037 85.9751 75.4952 86.4246 79.4286C87.103 85.3772 87.6414 90.0779 91.1182 92.8295C94.7816 95.7266 101.443 96.2161 112.708 94.4213C133.298 91.1362 144.737 96.807 150.707 102.143C156.262 107.108 159.442 114.049 159.433 121.232C159.433 125.893 160.646 129.213 163.046 131.101C166.73 133.998 172.013 132.477 172.064 132.463C172.091 132.455 172.12 132.458 172.145 132.472C172.169 132.487 172.188 132.51 172.196 132.538C172.203 132.566 172.2 132.596 172.187 132.622C172.173 132.648 172.15 132.667 172.123 132.675C171.026 132.958 169.9 133.099 168.77 133.094Z" fill="#263238"/>
<path d="M167.574 136.163C165.772 136.163 163.554 135.788 161.714 134.346C159.259 132.415 158.012 129.033 158.021 124.301C158.021 117.197 154.875 110.3 149.363 105.375C143.427 100.083 132.051 94.4346 111.538 97.7066C100.209 99.5101 93.5009 99.0074 89.7909 96.0706C86.2378 93.2616 85.6993 88.5213 85.0124 82.5242C84.563 78.5996 84.0584 74.1459 82.5786 69.476C81.2515 65.2692 78.1224 62.2707 73.2803 60.5553C69.3922 59.1795 64.3975 58.6283 58.4403 58.9106C51.7406 59.3133 45.0969 60.4169 38.6098 62.2046C38.5965 62.2085 38.5825 62.2095 38.5687 62.2076C38.5549 62.2057 38.5417 62.2009 38.5297 62.1935C38.5178 62.186 38.5075 62.1761 38.4994 62.1644C38.4913 62.1527 38.4856 62.1393 38.4826 62.1252C38.4788 62.1116 38.4776 62.0973 38.4792 62.0832C38.4807 62.0691 38.485 62.0555 38.4917 62.0432C38.4985 62.0308 38.5075 62.02 38.5183 62.0114C38.5291 62.0027 38.5415 61.9964 38.5547 61.9929C45.0552 60.1989 51.7133 59.0923 58.4276 58.6901C64.4145 58.4034 69.4516 58.9635 73.3482 60.3481C78.2581 62.0855 81.4338 65.1325 82.7864 69.4055C84.2704 74.1018 84.7792 78.5643 85.2286 82.4977C85.907 88.4463 86.4413 93.1426 89.9223 95.8942C93.5857 98.7913 100.242 99.2852 111.508 97.4861C132.102 94.2053 143.537 99.8761 149.507 105.207C155.061 110.173 158.246 117.113 158.237 124.301C158.237 128.962 159.446 132.283 161.845 134.17C165.534 137.067 170.813 135.546 170.868 135.528C170.882 135.524 170.896 135.523 170.91 135.525C170.924 135.527 170.938 135.531 170.95 135.539C170.962 135.546 170.973 135.556 170.981 135.568C170.99 135.58 170.996 135.593 171 135.607C171.003 135.621 171.005 135.635 171.003 135.649C171.002 135.663 170.997 135.677 170.991 135.689C170.984 135.702 170.975 135.713 170.964 135.721C170.953 135.73 170.941 135.736 170.928 135.74C169.831 136.025 168.704 136.167 167.574 136.163Z" fill="#263238"/>
<path d="M166.374 139.228C164.576 139.228 162.355 138.857 160.519 137.411C158.059 135.479 156.817 132.119 156.821 127.366C156.821 120.262 153.675 113.365 148.168 108.444C142.232 103.152 130.851 97.4992 110.338 100.771C99.0132 102.579 92.3055 102.094 88.5913 99.1396C85.0424 96.3307 84.4997 91.5903 83.817 85.5888C83.3676 81.6642 82.8588 77.2105 81.3833 72.5407C80.0519 68.3383 76.9228 65.3353 72.0807 63.6244C68.1926 62.2486 63.1767 61.693 57.2407 61.9752C50.5426 62.3802 43.9006 63.4837 37.4145 65.2692C37.4011 65.2732 37.3871 65.2745 37.3733 65.2729C37.3595 65.2714 37.346 65.267 37.3338 65.26C37.3216 65.253 37.3109 65.2436 37.3022 65.2324C37.2934 65.2211 37.2869 65.2081 37.283 65.1942C37.2792 65.1803 37.2779 65.1657 37.2794 65.1514C37.2809 65.137 37.2852 65.123 37.2919 65.1103C37.2986 65.0976 37.3076 65.0864 37.3184 65.0774C37.3293 65.0683 37.3418 65.0616 37.3551 65.0575C37.4526 65.031 47.0435 62.2397 57.228 61.7547C63.2191 61.4725 68.252 62.0281 72.1528 63.4127C77.0627 65.1501 80.2385 68.1972 81.5868 72.4745C83.0708 77.1708 83.5796 81.6289 84.029 85.5623C84.7074 91.5109 85.2459 96.2116 88.7227 98.9632C92.3861 101.86 99.0471 102.35 110.313 100.555C130.902 97.2699 142.342 102.941 148.307 108.276C153.866 113.242 157.046 120.182 157.038 127.366C157.038 132.027 158.246 135.347 160.65 137.234C164.335 140.132 169.618 138.61 169.669 138.597C169.696 138.589 169.725 138.592 169.749 138.606C169.774 138.62 169.792 138.644 169.8 138.672C169.804 138.686 169.805 138.7 169.804 138.715C169.802 138.729 169.798 138.743 169.791 138.756C169.785 138.769 169.775 138.78 169.765 138.789C169.754 138.798 169.741 138.805 169.728 138.809C168.631 139.092 167.504 139.233 166.374 139.228Z" fill="#263238"/>
<path d="M165.178 142.292C163.376 142.292 161.159 141.922 159.319 140.48C156.864 138.548 155.617 135.166 155.626 130.43C155.626 123.331 152.479 116.434 146.967 111.509C141.031 106.217 129.656 100.568 109.142 103.836C97.8132 105.644 91.1055 105.159 87.3955 102.204C83.8424 99.3953 83.3039 94.6549 82.617 88.6534C82.1676 84.7333 81.663 80.2751 80.1832 75.6097C78.8561 71.4029 75.727 68.4044 70.8849 66.689C66.9926 65.3132 61.9809 64.762 56.0449 65.0442C49.3449 65.4445 42.701 66.5481 36.2144 68.3382C36.2011 68.3422 36.1871 68.3432 36.1733 68.3413C36.1595 68.3394 36.1463 68.3346 36.1343 68.3272C36.1224 68.3197 36.1121 68.3098 36.104 68.2981C36.0959 68.2863 36.0902 68.273 36.0872 68.2589C36.0834 68.245 36.0821 68.2304 36.0836 68.216C36.0851 68.2016 36.0894 68.1877 36.0961 68.175C36.1028 68.1623 36.1118 68.1511 36.1226 68.142C36.1335 68.133 36.146 68.1262 36.1593 68.1222C42.6607 66.3333 49.3184 65.2282 56.0322 64.8237C62.0191 64.5371 67.0562 65.0971 70.9528 66.4818C75.8627 68.2192 79.0385 71.2662 80.391 75.5392C81.875 80.2354 82.3838 84.6936 82.8332 88.6314C83.5116 94.58 84.0459 99.2763 87.5269 102.028C91.1903 104.925 97.8471 105.419 109.113 103.62C129.706 100.339 141.142 106.005 147.112 111.341C152.666 116.306 155.85 123.247 155.842 130.43C155.842 135.096 157.05 138.416 159.45 140.299C163.135 143.196 168.418 141.679 168.473 141.662C168.486 141.658 168.5 141.656 168.514 141.658C168.528 141.66 168.541 141.664 168.553 141.671C168.566 141.678 168.576 141.687 168.585 141.699C168.594 141.71 168.6 141.723 168.604 141.737C168.611 141.765 168.607 141.794 168.594 141.82C168.581 141.845 168.559 141.864 168.532 141.873C167.435 142.156 166.309 142.297 165.178 142.292Z" fill="#263238"/>
<g opacity="0.7">
<path d="M169.969 130.029C168.172 130.029 165.95 129.654 164.11 128.212C161.655 126.281 160.413 122.921 160.417 118.167C160.417 111.063 157.271 104.166 151.763 99.2409C145.827 93.9494 134.447 88.3006 113.934 91.5726C102.604 93.3761 95.8967 92.8734 92.1867 89.9366C88.6335 87.1277 88.0951 82.3917 87.4082 76.3902C86.9842 72.4656 86.4542 68.0119 84.9744 63.3421C83.6473 59.1397 80.5182 56.1367 75.6761 54.4258C71.788 53.05 66.7721 52.4943 60.8361 52.7766C54.1377 53.1786 47.4953 54.2822 41.0099 56.0706C40.9829 56.0787 40.9539 56.0755 40.9292 56.0614C40.9046 56.0473 40.8863 56.0237 40.8784 55.9956C40.8739 55.9817 40.8722 55.967 40.8734 55.9524C40.8747 55.9378 40.8788 55.9236 40.8856 55.9108C40.8924 55.8979 40.9016 55.8867 40.9128 55.8777C40.924 55.8688 40.9368 55.8624 40.9505 55.8589C47.4512 54.0659 54.1092 52.9593 60.8234 52.5561C66.8103 52.2739 71.8474 52.8295 75.7439 54.2141C80.6581 55.9515 83.8296 58.9986 85.1822 63.2715C86.6662 67.9722 87.175 72.4303 87.6244 76.3637C88.3028 82.3123 88.8371 87.0086 92.3181 89.7646C95.9815 92.6618 102.638 93.1512 113.904 91.3521C134.498 88.0713 145.933 93.7421 151.903 99.0734C157.457 104.043 160.641 111.001 160.633 118.167C160.633 122.828 161.841 126.149 164.241 128.036C167.93 130.933 173.209 129.412 173.264 129.394C173.291 129.386 173.321 129.389 173.346 129.404C173.371 129.418 173.39 129.443 173.398 129.471C173.405 129.5 173.402 129.531 173.388 129.557C173.374 129.583 173.351 129.602 173.323 129.61C172.226 129.89 171.1 130.031 169.969 130.029Z" fill="white"/>
<path d="M168.77 133.094C166.972 133.094 164.75 132.723 162.914 131.277C160.455 129.345 159.213 125.985 159.217 121.232C159.217 114.128 156.071 107.231 150.563 102.31C144.627 97.0183 133.247 91.3651 112.738 94.6371C101.409 96.445 94.701 95.9599 90.9868 93.0055C87.4379 90.1965 86.8952 85.4562 86.2126 79.4547C85.7631 75.5301 85.2543 71.0764 83.7788 66.4065C82.4474 62.2042 79.3183 59.2056 74.4762 57.4903C70.5882 56.1144 65.5934 55.5632 59.6362 55.841C49.4602 56.3217 39.9075 59.1086 39.81 59.1351C39.783 59.1432 39.754 59.1399 39.7293 59.1259C39.7047 59.1118 39.6864 59.0882 39.6786 59.0601C39.6707 59.032 39.6739 59.0018 39.6874 58.9762C39.7009 58.9506 39.7236 58.9316 39.7506 58.9234C39.8482 58.8969 49.439 56.1056 59.6235 55.6206C65.6104 55.3384 70.6475 55.8984 74.5483 57.283C79.4582 59.016 82.634 62.0675 83.9823 66.3404C85.4663 71.0367 85.9751 75.4948 86.4246 79.4282C87.103 85.3768 87.6414 90.0775 91.1182 92.8291C94.7816 95.7262 101.443 96.2157 112.708 94.421C133.298 91.1358 144.737 96.8066 150.707 102.142C156.262 107.108 159.442 114.048 159.433 121.232C159.433 125.893 160.646 129.213 163.046 131.1C166.73 133.997 172.013 132.476 172.064 132.463C172.091 132.455 172.12 132.458 172.145 132.472C172.169 132.486 172.188 132.51 172.196 132.538C172.203 132.566 172.2 132.596 172.187 132.622C172.173 132.647 172.15 132.666 172.123 132.675C171.026 132.958 169.9 133.099 168.77 133.094Z" fill="white"/>
<path d="M167.574 136.163C165.772 136.163 163.554 135.788 161.714 134.346C159.259 132.415 158.012 129.033 158.021 124.301C158.021 117.197 154.875 110.3 149.363 105.375C143.427 100.083 132.051 94.4345 111.538 97.7064C100.209 99.51 93.5009 99.0073 89.7909 96.0705C86.2378 93.2615 85.6993 88.5212 85.0124 82.524C84.563 78.5995 84.0584 74.1457 82.5786 69.4759C81.2515 65.2691 78.1224 62.2706 73.2803 60.5552C69.3922 59.1794 64.3975 58.6282 58.4403 58.9104C51.7406 59.3132 45.0969 60.4168 38.6098 62.2044C38.5965 62.2084 38.5825 62.2094 38.5687 62.2075C38.5549 62.2056 38.5417 62.2008 38.5297 62.1934C38.5178 62.1859 38.5075 62.176 38.4994 62.1643C38.4913 62.1525 38.4856 62.1392 38.4826 62.1251C38.4788 62.1114 38.4776 62.0972 38.4792 62.0831C38.4807 62.069 38.485 62.0554 38.4917 62.043C38.4985 62.0307 38.5075 62.0199 38.5183 62.0112C38.5291 62.0026 38.5415 61.9963 38.5547 61.9928C45.0552 60.1987 51.7133 59.0922 58.4276 58.6899C64.4145 58.4033 69.4516 58.9633 73.3482 60.348C78.2581 62.0854 81.4338 65.1324 82.7864 69.4054C84.2704 74.1016 84.7792 78.5642 85.2286 82.4976C85.907 88.4462 86.4413 93.1425 89.9223 95.8941C93.5857 98.7912 100.242 99.2851 111.508 97.486C132.102 94.2052 143.537 99.876 149.507 105.207C155.061 110.172 158.246 117.113 158.237 124.301C158.237 128.962 159.446 132.282 161.845 134.17C165.534 137.067 170.813 135.546 170.868 135.528C170.882 135.524 170.896 135.523 170.91 135.525C170.924 135.527 170.938 135.531 170.95 135.539C170.962 135.546 170.973 135.556 170.981 135.568C170.99 135.58 170.996 135.593 171 135.607C171.003 135.621 171.005 135.635 171.003 135.649C171.002 135.663 170.997 135.677 170.991 135.689C170.984 135.702 170.975 135.712 170.964 135.721C170.953 135.73 170.941 135.736 170.928 135.74C169.831 136.025 168.704 136.167 167.574 136.163Z" fill="white"/>
<path d="M166.374 139.228C164.576 139.228 162.355 138.857 160.519 137.411C158.059 135.479 156.817 132.119 156.821 127.366C156.821 120.262 153.675 113.365 148.168 108.444C142.232 103.152 130.851 97.4991 110.338 100.771C99.0132 102.579 92.3055 102.094 88.5913 99.1395C85.0424 96.3305 84.4997 91.5902 83.817 85.5887C83.3676 81.6641 82.8588 77.2103 81.3833 72.5405C80.0519 68.3382 76.9228 65.3352 72.0807 63.6242C68.1926 62.2484 63.1767 61.6928 57.2407 61.975C50.5426 62.3801 43.9006 63.4836 37.4145 65.269C37.4011 65.2731 37.3871 65.2744 37.3733 65.2728C37.3595 65.2712 37.346 65.2668 37.3338 65.2599C37.3216 65.2529 37.3109 65.2435 37.3022 65.2322C37.2934 65.2209 37.2869 65.208 37.283 65.1941C37.2792 65.1802 37.2779 65.1656 37.2794 65.1512C37.2809 65.1368 37.2852 65.1229 37.2919 65.1102C37.2986 65.0975 37.3076 65.0863 37.3184 65.0773C37.3293 65.0682 37.3418 65.0614 37.3551 65.0574C37.4526 65.0309 47.0435 62.2396 57.228 61.7546C63.2191 61.4723 68.252 62.028 72.1528 63.4126C77.0627 65.15 80.2385 68.197 81.5868 72.4744C83.0708 77.1707 83.5796 81.6288 84.029 85.5622C84.7074 91.5108 85.2459 96.2115 88.7227 98.9631C92.3861 101.86 99.0471 102.35 110.313 100.555C130.902 97.2698 142.342 102.941 148.307 108.276C153.866 113.242 157.046 120.182 157.038 127.366C157.038 132.027 158.246 135.347 160.65 137.234C164.335 140.131 169.618 138.61 169.669 138.597C169.696 138.589 169.725 138.592 169.749 138.606C169.774 138.62 169.792 138.644 169.8 138.672C169.804 138.686 169.805 138.7 169.804 138.715C169.802 138.729 169.798 138.743 169.791 138.756C169.785 138.768 169.775 138.78 169.765 138.789C169.754 138.798 169.741 138.805 169.728 138.809C168.631 139.092 167.504 139.233 166.374 139.228Z" fill="white"/>
<path d="M165.178 142.292C163.376 142.292 161.159 141.922 159.319 140.48C156.864 138.548 155.617 135.166 155.626 130.43C155.626 123.331 152.479 116.434 146.967 111.508C141.031 106.217 129.656 100.568 109.142 103.836C97.8132 105.644 91.1055 105.159 87.3955 102.204C83.8424 99.3952 83.3039 94.6548 82.617 88.6533C82.1676 84.7331 81.663 80.275 80.1832 75.6096C78.8561 71.4028 75.727 68.4042 70.8849 66.6889C66.9926 65.3131 61.9809 64.7619 56.0449 65.0441C49.3449 65.4444 42.701 66.548 36.2144 68.3381C36.2011 68.342 36.1871 68.3431 36.1733 68.3412C36.1595 68.3393 36.1463 68.3345 36.1343 68.327C36.1224 68.3196 36.1121 68.3097 36.104 68.2979C36.0959 68.2862 36.0902 68.2729 36.0872 68.2587C36.0834 68.2448 36.0821 68.2303 36.0836 68.2159C36.0851 68.2015 36.0894 68.1875 36.0961 68.1748C36.1028 68.1622 36.1118 68.151 36.1226 68.1419C36.1335 68.1328 36.146 68.1261 36.1593 68.122C42.6607 66.3331 49.3184 65.2281 56.0322 64.8236C62.0191 64.537 67.0562 65.097 70.9528 66.4816C75.8627 68.219 79.0385 71.2661 80.391 75.539C81.875 80.2353 82.3838 84.6935 82.8332 88.6313C83.5116 94.5799 84.0459 99.2761 87.5269 102.028C91.1903 104.925 97.8471 105.419 109.113 103.62C129.706 100.339 141.142 106.005 147.112 111.341C152.666 116.306 155.85 123.247 155.842 130.43C155.842 135.096 157.05 138.416 159.45 140.299C163.135 143.196 168.418 141.679 168.473 141.662C168.486 141.658 168.5 141.656 168.514 141.658C168.528 141.659 168.541 141.664 168.553 141.671C168.566 141.678 168.576 141.687 168.585 141.698C168.594 141.71 168.6 141.723 168.604 141.737C168.611 141.765 168.607 141.794 168.594 141.82C168.581 141.845 168.559 141.864 168.532 141.873C167.435 142.156 166.309 142.297 165.178 142.292Z" fill="white"/>
</g>
<path d="M156.304 133.328C156.169 133.685 155.566 133.769 154.969 133.526C154.371 133.284 153.989 132.785 154.121 132.428C154.252 132.071 154.854 131.987 155.456 132.23C156.058 132.472 156.427 132.957 156.304 133.328Z" fill="#FFC100"/>
<path d="M158.462 140.992C158.322 141.349 157.724 141.432 157.122 141.19C156.52 140.947 156.147 140.449 156.274 140.092C156.402 139.735 157.008 139.651 157.61 139.894C158.212 140.136 158.598 140.634 158.462 140.992Z" fill="#FFC100"/>
<path d="M156.291 133.314L157.538 127.374L159.302 134.725L158.102 140.841L158.458 140.991L160.018 132.626L158.03 123.653L156.041 133.058L156.291 133.314Z" fill="#FFC100"/>
<path d="M87.6414 69.0261L85.072 57.4817L82.6086 69.1275C82.3759 68.8559 82.0856 68.6445 81.7606 68.5102C80.9846 68.1927 80.2172 68.3074 80.0391 68.766C79.861 69.2246 80.3486 69.8595 81.1246 70.1814C81.9005 70.5034 82.6722 70.3843 82.846 69.9257L84.453 62.275L86.7256 71.7425L85.3222 78.9081C85.1023 78.6886 84.8429 78.5163 84.559 78.401C83.783 78.0835 83.0114 78.1982 82.8375 78.6568C82.6637 79.1154 83.147 79.7504 83.9187 80.0679C84.6904 80.3854 85.4663 80.2751 85.6402 79.8165C85.6634 79.7561 85.6763 79.6919 85.6783 79.6269L87.6414 69.0261Z" fill="#FFC100"/>
<path d="M129.986 87.8555L121.002 89.6193V100.454C120.625 100.405 120.242 100.46 119.891 100.613C119.119 100.934 118.619 101.565 118.81 102.028C119.001 102.491 119.755 102.601 120.527 102.279C121.299 101.957 121.799 101.327 121.612 100.868V94.5846L129.389 92.9486V98.6811C129.007 98.6256 128.619 98.6789 128.265 98.8355C127.489 99.1574 126.993 99.788 127.179 100.251C127.366 100.714 128.125 100.824 128.901 100.507C129.677 100.189 130.173 99.5498 129.986 99.0912V87.8555ZM121.612 93.8305V92.759L129.389 90.9951V92.2034L121.612 93.8305Z" fill="#FFC100"/>
<path d="M90.5585 88.671L89.066 102.068C88.7008 101.875 88.29 101.797 87.8831 101.843C87.0351 101.918 86.4118 102.376 86.4542 102.87C86.4966 103.364 87.2004 103.703 88.0315 103.633C88.8625 103.562 89.5028 103.099 89.4604 102.605L90.6815 91.9297C90.6815 91.9297 91.1055 93.8612 91.7712 94.602C92.4368 95.3428 92.3012 96.7363 92.3012 96.7363C92.3012 96.7363 93.0644 94.1875 92.1612 93.3364C91.2581 92.4854 90.5585 88.671 90.5585 88.671Z" fill="#FFC100"/>
<path d="M159.213 105.106C158.445 104.123 158.305 100.255 158.305 100.255L154.879 113.264C154.548 113.013 154.153 112.87 153.743 112.854C152.895 112.796 152.212 113.149 152.179 113.643C152.145 114.137 152.798 114.587 153.629 114.644C154.46 114.701 155.159 114.349 155.193 113.855L157.953 103.496C157.953 103.496 158.089 105.468 158.645 106.31C159.2 107.152 158.852 108.515 158.852 108.515C158.852 108.515 159.98 106.076 159.213 105.106Z" fill="#FFC100"/>
<path d="M106.437 91.3082C105.699 90.6688 105.165 89.5134 104.779 88.5345L104.703 87.097C104.703 87.097 105.445 88.9975 106.242 89.7427C107.039 90.488 107.12 91.8329 107.12 91.8329C107.12 91.8329 107.459 89.3194 106.416 88.4816C105.373 87.6437 104.029 83.8823 104.029 83.8823L104.775 97.0892C104.397 96.8998 103.976 96.8235 103.558 96.8687C102.74 96.9393 102.176 97.3891 102.286 97.8785C102.396 98.368 103.168 98.6987 103.982 98.6282C104.796 98.5576 105.369 98.1034 105.254 97.6184L104.873 90.4924C105.201 91.2646 105.667 91.965 106.246 92.5561C106.725 93.1569 107.031 93.886 107.128 94.6595C107.128 94.6595 107.451 92.1857 106.437 91.3082Z" fill="#FFC100"/>
<path d="M141.608 97.6888L139.798 110.781C139.463 110.518 139.066 110.356 138.649 110.314C137.83 110.212 137.19 110.539 137.22 111.041C137.249 111.544 137.928 112.029 138.742 112.13C139.556 112.232 140.2 111.906 140.175 111.403L141.171 104.347C141.344 105.172 141.666 105.955 142.121 106.654C142.473 107.343 142.631 108.12 142.579 108.898C142.579 108.898 143.359 106.539 142.532 105.467C141.93 104.691 141.612 103.439 141.447 102.407L141.646 100.978C141.646 100.978 142.007 102.998 142.647 103.88C143.287 104.762 143.109 106.129 143.109 106.129C143.109 106.129 143.923 103.734 143.062 102.694C142.202 101.653 141.608 97.6888 141.608 97.6888Z" fill="#FFC100"/>
<path d="M73.2001 48.3406C73.022 47.5424 72.5132 47.1191 71.8476 47.2117C70.6222 47.3749 69.9311 50.3602 69.0534 56.569C68.3654 57.2633 67.545 57.7996 66.6451 58.1432C64.1859 59.0252 62.8545 60.7361 63.0835 62.6852C63.2278 63.6087 63.6684 64.4543 64.3335 65.0844C64.9987 65.7145 65.8492 66.092 66.7468 66.1555C67.0671 66.1841 67.3891 66.1841 67.7093 66.1555C67.3786 68.184 67.1072 69.5377 66.7002 70.0272C66.5909 70.1403 66.4499 70.2144 66.2976 70.239C66.1452 70.2636 65.9893 70.2373 65.8522 70.1639C65.7358 70.12 65.6307 70.0486 65.5453 69.9554C65.4599 69.8621 65.3964 69.7496 65.3599 69.6265C65.3233 69.5035 65.3146 69.3733 65.3346 69.2462C65.3545 69.1191 65.4025 68.9985 65.4748 68.8939C65.4748 68.8939 66.1448 69.2423 66.3992 68.1399C66.6536 67.0375 65.2204 66.8523 64.5548 68.6249C63.6516 71.0546 66.3992 72.3819 67.6712 70.0448C68.0655 69.3261 68.2902 67.9988 68.6082 66.0056C70.7282 65.4456 72.0468 63.5759 72.2037 62.1119C72.3479 60.767 71.6059 59.8233 70.2703 59.6469C70.0158 59.6127 69.7595 59.5951 69.5028 59.594C69.6131 58.7694 69.7318 57.8742 69.859 56.9482C72.3097 54.3421 73.6241 50.2323 73.2001 48.3406ZM71.9536 48.0848H72.0256C72.1359 48.0848 72.2843 48.1422 72.3776 48.5258C72.6701 49.8178 71.8476 52.9354 70.0837 55.3519C70.6095 51.7184 71.2794 48.2215 71.9281 48.0848H71.9536ZM68.2817 62.2662C67.8577 62.0678 67.6076 61.7239 67.6754 61.3843C67.7396 61.1925 67.8521 61.0221 68.0013 60.891C68.1505 60.7599 68.3308 60.6729 68.5234 60.6391C68.4132 61.155 68.3368 61.7062 68.2605 62.2662H68.2817ZM66.8401 61.1903C66.6748 62.0325 67.2132 62.8307 68.1588 63.1614C68.057 63.8713 67.9552 64.5813 67.8492 65.2604C67.5083 65.3003 67.1641 65.3003 66.8232 65.2604C66.1178 65.2158 65.4474 64.9252 64.9204 64.4355C64.3934 63.9459 64.0405 63.2857 63.9188 62.5617C63.7449 61.0536 64.8685 59.7042 66.9207 58.959C67.6211 58.6962 68.2777 58.3213 68.8668 57.8478C68.7863 58.4299 68.7057 59.0384 68.6209 59.669C67.5482 59.9071 66.9588 60.52 66.8401 61.1903ZM70.1516 60.5332C71.3133 60.6832 71.4024 61.5298 71.3472 62.0237C71.2285 63.1349 70.2533 64.4799 68.7439 65.0355C68.9347 63.7655 69.1382 62.2618 69.3714 60.4892C69.6265 60.4819 69.8818 60.4966 70.1346 60.5332H70.1516Z" fill="#FFC100"/>
<g opacity="0.5">
<path d="M87.6414 69.0261L85.072 57.4817L82.6086 69.1275C82.3759 68.8559 82.0856 68.6445 81.7606 68.5102C80.9846 68.1927 80.2172 68.3074 80.0391 68.766C79.861 69.2246 80.3486 69.8595 81.1246 70.1814C81.9005 70.5034 82.6722 70.3843 82.846 69.9257L84.453 62.275L86.7256 71.7425L85.3222 78.9081C85.1023 78.6886 84.8429 78.5163 84.559 78.401C83.783 78.0835 83.0114 78.1982 82.8375 78.6568C82.6637 79.1154 83.147 79.7504 83.9187 80.0679C84.6904 80.3854 85.4663 80.2751 85.6402 79.8165C85.6634 79.7561 85.6763 79.6919 85.6783 79.6269L87.6414 69.0261Z" fill="white"/>
<path d="M129.986 87.8555L121.002 89.6193V100.454C120.625 100.405 120.242 100.46 119.891 100.613C119.119 100.934 118.619 101.565 118.81 102.028C119.001 102.491 119.755 102.601 120.527 102.279C121.299 101.957 121.799 101.327 121.612 100.868V94.5846L129.389 92.9486V98.6811C129.007 98.6256 128.619 98.6789 128.265 98.8355C127.489 99.1574 126.993 99.788 127.179 100.251C127.366 100.714 128.125 100.824 128.901 100.507C129.677 100.189 130.173 99.5498 129.986 99.0912V87.8555ZM121.612 93.8305V92.759L129.389 90.9951V92.2034L121.612 93.8305Z" fill="white"/>
<path d="M90.5585 88.671L89.066 102.068C88.7008 101.875 88.29 101.797 87.8831 101.843C87.0351 101.918 86.4118 102.376 86.4542 102.87C86.4966 103.364 87.2004 103.703 88.0315 103.633C88.8625 103.562 89.5028 103.099 89.4604 102.605L90.6815 91.9297C90.6815 91.9297 91.1055 93.8612 91.7712 94.602C92.4368 95.3428 92.3012 96.7363 92.3012 96.7363C92.3012 96.7363 93.0644 94.1875 92.1612 93.3364C91.2581 92.4854 90.5585 88.671 90.5585 88.671Z" fill="white"/>
<path d="M159.213 105.106C158.445 104.123 158.305 100.255 158.305 100.255L154.879 113.264C154.548 113.013 154.153 112.87 153.743 112.854C152.895 112.796 152.212 113.149 152.179 113.643C152.145 114.137 152.798 114.587 153.629 114.644C154.46 114.701 155.159 114.349 155.193 113.855L157.953 103.496C157.953 103.496 158.089 105.468 158.645 106.31C159.2 107.152 158.852 108.515 158.852 108.515C158.852 108.515 159.98 106.076 159.213 105.106Z" fill="white"/>
<path d="M106.438 91.3082C105.7 90.6688 105.166 89.5134 104.78 88.5345L104.704 87.097C104.704 87.097 105.446 88.9975 106.243 89.7427C107.04 90.488 107.12 91.8329 107.12 91.8329C107.12 91.8329 107.46 89.3194 106.416 88.4816C105.373 87.6437 104.029 83.8823 104.029 83.8823L104.776 97.0892C104.397 96.8998 103.976 96.8235 103.559 96.8687C102.74 96.9393 102.176 97.3891 102.287 97.8785C102.397 98.368 103.169 98.6987 103.983 98.6282C104.797 98.5576 105.369 98.1034 105.255 97.6184L104.873 90.4924C105.201 91.2646 105.667 91.965 106.247 92.5561C106.725 93.1569 107.031 93.886 107.129 94.6595C107.129 94.6595 107.451 92.1857 106.438 91.3082Z" fill="white"/>
<path d="M141.608 97.6888L139.798 110.781C139.463 110.518 139.066 110.356 138.649 110.314C137.83 110.212 137.19 110.539 137.22 111.041C137.249 111.544 137.928 112.029 138.742 112.13C139.556 112.232 140.2 111.906 140.175 111.403L141.171 104.347C141.344 105.172 141.666 105.955 142.121 106.654C142.473 107.343 142.631 108.12 142.579 108.898C142.579 108.898 143.359 106.539 142.532 105.467C141.93 104.691 141.612 103.439 141.447 102.407L141.646 100.978C141.646 100.978 142.007 102.998 142.647 103.88C143.287 104.762 143.109 106.129 143.109 106.129C143.109 106.129 143.923 103.734 143.062 102.694C142.202 101.653 141.608 97.6888 141.608 97.6888Z" fill="white"/>
<path d="M73.2001 48.3406C73.022 47.5424 72.5132 47.1191 71.8476 47.2117C70.6222 47.3749 69.9311 50.3602 69.0534 56.569C68.3654 57.2633 67.545 57.7996 66.6451 58.1432C64.1859 59.0252 62.8545 60.7361 63.0835 62.6852C63.2278 63.6087 63.6684 64.4543 64.3335 65.0844C64.9987 65.7145 65.8492 66.092 66.7468 66.1555C67.0671 66.1841 67.3891 66.1841 67.7093 66.1555C67.3786 68.184 67.1072 69.5377 66.7002 70.0272C66.5909 70.1403 66.4499 70.2144 66.2976 70.239C66.1452 70.2636 65.9893 70.2373 65.8522 70.1639C65.7358 70.12 65.6307 70.0486 65.5453 69.9554C65.4599 69.8621 65.3964 69.7496 65.3599 69.6265C65.3233 69.5035 65.3146 69.3733 65.3346 69.2462C65.3545 69.1191 65.4025 68.9985 65.4748 68.8939C65.4748 68.8939 66.1448 69.2423 66.3992 68.1399C66.6536 67.0375 65.2204 66.8523 64.5548 68.6249C63.6516 71.0546 66.3992 72.3819 67.6712 70.0448C68.0655 69.3261 68.2902 67.9988 68.6082 66.0056C70.7282 65.4456 72.0468 63.5759 72.2037 62.1119C72.3479 60.767 71.6059 59.8233 70.2703 59.6469C70.0158 59.6127 69.7595 59.5951 69.5028 59.594C69.6131 58.7694 69.7318 57.8742 69.859 56.9482C72.3097 54.3421 73.6241 50.2323 73.2001 48.3406ZM71.9536 48.0848H72.0256C72.1359 48.0848 72.2843 48.1422 72.3776 48.5258C72.6701 49.8178 71.8476 52.9354 70.0837 55.3519C70.6095 51.7184 71.2794 48.2215 71.9281 48.0848H71.9536ZM68.2817 62.2662C67.8577 62.0678 67.6076 61.7239 67.6754 61.3843C67.7396 61.1925 67.8521 61.0221 68.0013 60.891C68.1505 60.7599 68.3308 60.6729 68.5234 60.6391C68.4132 61.155 68.3368 61.7062 68.2605 62.2662H68.2817ZM66.8401 61.1903C66.6748 62.0325 67.2132 62.8307 68.1588 63.1614C68.057 63.8713 67.9552 64.5813 67.8492 65.2604C67.5083 65.3003 67.1641 65.3003 66.8232 65.2604C66.1178 65.2158 65.4474 64.9252 64.9204 64.4355C64.3934 63.9459 64.0405 63.2857 63.9188 62.5617C63.7449 61.0536 64.8685 59.7042 66.9207 58.959C67.6211 58.6962 68.2777 58.3213 68.8668 57.8478C68.7863 58.4299 68.7057 59.0384 68.6209 59.669C67.5482 59.9071 66.9588 60.52 66.8401 61.1903ZM70.1516 60.5332C71.3133 60.6832 71.4024 61.5298 71.3472 62.0237C71.2285 63.1349 70.2533 64.4799 68.7439 65.0355C68.9347 63.7655 69.1382 62.2618 69.3714 60.4892C69.6265 60.4819 69.8818 60.4966 70.1346 60.5332H70.1516Z" fill="white"/>
</g>
<path d="M154.316 101.203C154.316 101.203 156.257 110.834 153.179 117.828C150.101 124.821 136.245 110.653 136.245 110.653L140.328 98.5354L154.316 101.203Z" fill="#263238"/>
<path d="M141.29 80.2045C141.29 80.2045 146.654 77.8895 151.466 78.5244C156.278 79.1594 160.892 83.8821 160.892 83.8821C160.892 83.8821 158.39 100.092 154.926 101.935C151.462 103.778 140.086 100.123 140.086 100.123C140.086 100.123 136.308 92.7147 141.29 80.2045Z" fill="#FFC100"/>
<path opacity="0.7" d="M160.883 83.8868C160.883 83.8868 160.285 87.7584 159.268 91.9388C158.203 96.3043 156.686 100.992 154.917 101.935C154.222 102.253 153.472 102.421 152.713 102.429C148.087 102.694 140.065 100.123 140.065 100.123C140.065 100.123 136.308 92.7148 141.286 80.2047C141.286 80.2047 146.654 77.8896 151.462 78.5202C156.27 79.1508 160.883 83.8868 160.883 83.8868Z" fill="white"/>
<path opacity="0.2" d="M159.272 91.9387C158.208 96.3042 156.69 100.992 154.922 101.935C154.227 102.253 153.476 102.421 152.717 102.429C151.664 101.148 150.737 99.761 149.948 98.2886L150.906 90.726L156.223 92.7589C156.203 91.7254 156.51 90.7135 157.097 89.8794C157.958 90.3921 158.7 91.0951 159.272 91.9387Z" fill="black"/>
<path d="M142.622 79.8297C140.162 80.059 137.534 85.5622 136.584 85.3109C135.634 85.0595 133.616 79.6092 132.441 78.7273L132.017 77.0605L129.838 76.6592L129.791 79.4769C129.791 79.4769 129.015 80.8748 129.605 83.6837C130.194 86.4927 133.052 93.7245 137.712 94.3065C142.371 94.8886 145.891 83.4147 145.891 83.4147L142.622 79.8297Z" fill="#FFC100"/>
<path opacity="0.7" d="M142.622 79.8297C140.162 80.059 137.534 85.5622 136.584 85.3109C135.634 85.0595 133.616 79.6092 132.441 78.7273L132.017 77.0605L129.838 76.6592L129.791 79.4769C129.791 79.4769 129.015 80.8748 129.605 83.6837C130.194 86.4927 133.052 93.7245 137.712 94.3065C142.371 94.8886 145.891 83.4147 145.891 83.4147L142.622 79.8297Z" fill="white"/>
<path d="M128.642 172.851L125.768 171.762L127.349 164.552L130.228 165.637L128.642 172.851Z" fill="#E4897B"/>
<path d="M151.339 176.824H148.282L147.417 169.469H150.47L151.339 176.824Z" fill="#E4897B"/>
<path d="M147.884 176.458H151.606C151.667 176.458 151.726 176.48 151.774 176.519C151.821 176.558 151.855 176.613 151.869 176.674L152.497 179.496C152.516 179.564 152.519 179.634 152.506 179.703C152.494 179.772 152.465 179.837 152.424 179.892C152.382 179.947 152.329 179.991 152.268 180.02C152.207 180.05 152.14 180.064 152.073 180.061C150.877 180.039 149.999 179.968 148.49 179.968C147.561 179.968 144.763 180.065 143.482 180.065C142.202 180.065 142.02 178.742 142.545 178.628C144.894 178.094 146.658 177.358 147.404 176.652C147.537 176.53 147.707 176.461 147.884 176.458Z" fill="#263238"/>
<path d="M125.662 171.153L128.931 171.885C128.99 171.899 129.043 171.933 129.081 171.982C129.12 172.031 129.141 172.091 129.143 172.154L129.189 175.043C129.192 175.112 129.178 175.181 129.15 175.244C129.122 175.307 129.08 175.363 129.028 175.406C128.975 175.449 128.914 175.478 128.848 175.492C128.783 175.505 128.715 175.503 128.651 175.484C127.472 175.219 125.776 174.778 124.305 174.434C122.571 174.046 121.498 173.685 119.463 173.23C118.237 172.957 118.148 171.59 118.687 171.59C121.133 171.59 122.613 172.079 124.89 171.237C125.135 171.135 125.402 171.106 125.662 171.153Z" fill="#263238"/>
<path opacity="0.2" d="M127.349 164.552L126.535 168.269L129.41 169.359L130.228 165.641L127.349 164.552Z" fill="black"/>
<path opacity="0.2" d="M150.47 169.469H147.417L147.862 173.261H150.919L150.47 169.469Z" fill="black"/>
<path d="M125.687 167.172L130.563 169.01C130.563 169.01 134.379 151.584 136.389 141.918C137.291 138.094 138.399 134.327 139.709 130.633C141.557 125.205 143.766 119.367 145.547 114.803C147.425 109.996 148.825 106.605 148.825 106.605L138.293 104.4C138.293 104.4 130.237 128.455 128.447 137.962C126.569 147.835 125.687 167.172 125.687 167.172Z" fill="#263238"/>
<path opacity="0.2" d="M139.709 130.633C141.558 125.205 143.767 119.367 145.547 114.803L144.733 112.183C141.719 115.085 139.836 125.082 139.709 130.633Z" fill="black"/>
<path d="M143.974 105.582C143.974 105.582 142.096 133.015 141.981 142.332C141.854 152.536 146.446 172.529 146.446 172.529H152.038C152.038 172.529 149.804 154.489 150.55 144.378C151.398 133.072 154.315 107.778 154.315 107.778L143.974 105.582Z" fill="#263238"/>
<path d="M145.776 172.653H152.365L152.344 170.607L145.467 170.192L145.776 172.653Z" fill="#263238"/>
<path d="M125.039 167.11L130.873 169.213L131.509 167.255L125.128 164.839L125.039 167.11Z" fill="#263238"/>
<path d="M146.879 177.009C146.671 177.026 146.464 176.97 146.289 176.851C146.234 176.802 146.191 176.74 146.163 176.67C146.136 176.6 146.125 176.524 146.133 176.449C146.133 176.406 146.145 176.363 146.167 176.326C146.188 176.289 146.219 176.259 146.256 176.238C146.591 176.057 147.583 176.679 147.697 176.758C147.709 176.766 147.718 176.778 147.724 176.792C147.729 176.806 147.731 176.821 147.729 176.835C147.727 176.85 147.721 176.864 147.711 176.875C147.702 176.886 147.69 176.895 147.676 176.899C147.415 176.966 147.148 177.003 146.879 177.009ZM146.417 176.352C146.384 176.352 146.352 176.359 146.323 176.374C146.323 176.374 146.281 176.401 146.277 176.463C146.272 176.513 146.279 176.564 146.296 176.612C146.314 176.659 146.342 176.702 146.379 176.736C146.721 176.896 147.108 176.917 147.464 176.793C147.145 176.578 146.79 176.428 146.417 176.352Z" fill="#FFC100"/>
<path d="M147.659 176.899H147.625C147.307 176.718 146.688 176.017 146.752 175.669C146.761 175.614 146.789 175.565 146.83 175.53C146.871 175.494 146.923 175.475 146.976 175.475C147.032 175.468 147.088 175.472 147.141 175.489C147.194 175.506 147.244 175.534 147.286 175.572C147.646 175.872 147.71 176.789 147.71 176.829C147.71 176.842 147.707 176.855 147.701 176.866C147.695 176.878 147.686 176.887 147.676 176.895C147.67 176.897 147.665 176.898 147.659 176.899ZM147.031 175.611H146.998C146.904 175.611 146.896 175.669 146.892 175.691C146.858 175.898 147.252 176.423 147.566 176.674C147.541 176.311 147.412 175.964 147.197 175.678C147.151 175.636 147.092 175.612 147.031 175.611Z" fill="#FFC100"/>
<path d="M125.28 171.519C124.78 171.519 123.898 171.44 123.627 171.078C123.587 171.024 123.56 170.96 123.55 170.892C123.54 170.824 123.545 170.755 123.567 170.69C123.577 170.651 123.595 170.615 123.622 170.586C123.649 170.556 123.683 170.535 123.72 170.523C124.144 170.391 125.204 171.295 125.327 171.405C125.338 171.416 125.346 171.43 125.35 171.446C125.354 171.461 125.353 171.478 125.348 171.493C125.34 171.504 125.33 171.512 125.318 171.516C125.306 171.521 125.293 171.522 125.28 171.519ZM123.783 170.637H123.758C123.743 170.642 123.729 170.65 123.718 170.662C123.706 170.673 123.698 170.688 123.694 170.704C123.681 170.746 123.678 170.792 123.684 170.836C123.691 170.881 123.707 170.923 123.733 170.959C123.885 171.171 124.373 171.308 125.055 171.343C124.627 171.021 124.025 170.615 123.783 170.646V170.637Z" fill="#FFC100"/>
<path d="M125.28 171.519C125.264 171.525 125.246 171.525 125.229 171.519C124.903 171.272 124.318 170.439 124.441 170.104C124.47 170.025 124.547 169.932 124.746 169.954C124.818 169.963 124.888 169.986 124.951 170.023C125.015 170.06 125.07 170.11 125.115 170.17C125.321 170.568 125.401 171.023 125.344 171.471C125.343 171.484 125.338 171.496 125.331 171.506C125.323 171.516 125.313 171.524 125.301 171.528L125.28 171.519ZM124.657 170.086C124.593 170.086 124.58 170.126 124.576 170.139C124.504 170.342 124.886 170.977 125.208 171.29C125.245 170.928 125.174 170.563 125.004 170.245C124.937 170.158 124.84 170.101 124.733 170.086H124.657Z" fill="#FFC100"/>
<path d="M135.325 100.127C133.752 96.3659 139.217 90.285 135.074 88.9004C130.932 87.5158 130.775 82.0787 135.753 79.1992C140.731 76.3197 145.106 79.2874 144.076 83.6794C143.046 88.0714 150.89 86.409 153.15 89.7691C156.257 94.3904 153.353 99.7437 148.371 102.641C143.389 105.538 137.491 105.3 135.325 100.127Z" fill="#FFC100"/>
<path d="M141.468 92.7589L143.898 91.3478L126.438 60.0967L124.979 60.9433L141.468 92.7589Z" fill="#FFC100"/>
<path d="M140.926 95.0962C141.212 95.6298 141.644 96.0631 142.167 96.3412C142.69 96.6192 143.281 96.7296 143.864 96.6582C144.448 96.5869 144.998 96.337 145.445 95.9403C145.892 95.5437 146.215 95.018 146.375 94.4299C146.534 93.8418 146.522 93.2177 146.34 92.6367C146.158 92.0558 145.814 91.544 145.353 91.1663C144.891 90.7886 144.332 90.5619 143.746 90.515C143.16 90.468 142.574 90.603 142.062 90.9026C141.378 91.3032 140.874 91.9694 140.661 92.7553C140.448 93.5413 140.543 94.3831 140.926 95.0962Z" fill="#263238"/>
<path d="M144.191 99.6795L148.15 97.3748L147.756 96.6437L143.798 98.9484L144.191 99.6795Z" fill="#263238"/>
<path d="M123.033 57.9845L122.079 58.5401C122.079 58.5401 121.791 58.0991 121.706 58.3196C121.621 58.5401 122.13 59.1354 122.13 59.1354L122.249 58.7385L123.143 58.2182L123.033 57.9845Z" fill="#FFC100"/>
<path d="M124.021 59.4353L123.062 59.9909C123.062 59.9909 122.774 59.55 122.689 59.766C122.604 59.9821 123.113 60.5818 123.113 60.5818L123.232 60.1849L124.127 59.6646L124.021 59.4353Z" fill="#FFC100"/>
<path d="M125.004 60.8818L124.046 61.4507C124.046 61.4507 123.762 61.0097 123.673 61.2258C123.584 61.4419 124.097 62.0416 124.097 62.0416L124.216 61.6447L125.11 61.1244L125.004 60.8818Z" fill="#FFC100"/>
<path d="M125.03 56.8248L125.988 56.2648C125.988 56.2648 125.768 55.7753 125.988 55.8238C126.209 55.8723 126.412 56.6396 126.412 56.6396L126.022 56.5382L125.132 57.0585L125.03 56.8248Z" fill="#FFC100"/>
<path d="M125.704 58.452L126.662 57.8964C126.662 57.8964 126.438 57.4069 126.662 57.4554C126.887 57.5039 127.086 58.2712 127.086 58.2712L126.696 58.1698L125.802 58.6901L125.704 58.452Z" fill="#FFC100"/>
<path d="M126.378 60.0834L127.337 59.5278C127.337 59.5278 127.112 59.0339 127.337 59.0869C127.561 59.1398 127.761 59.9026 127.761 59.9026L127.371 59.8056L126.476 60.326L126.378 60.0834Z" fill="#FFC100"/>
<path d="M125.95 62.694L127.366 61.8694C127.502 61.7908 127.604 61.6616 127.652 61.5078C127.7 61.354 127.691 61.187 127.625 61.0404L125.106 55.3828C125.07 55.3046 125.019 55.2347 124.957 55.1774C124.894 55.1201 124.821 55.0766 124.742 55.0494C124.663 55.0222 124.579 55.012 124.496 55.0192C124.413 55.0265 124.332 55.0512 124.258 55.0918L122.037 56.3838C121.962 56.4272 121.898 56.4861 121.846 56.5567C121.795 56.6274 121.758 56.7083 121.738 56.7944C121.718 56.8804 121.716 56.9699 121.731 57.057C121.746 57.1442 121.777 57.2273 121.825 57.301L125.149 62.4912C125.234 62.6222 125.364 62.7156 125.512 62.7531C125.66 62.7905 125.816 62.7695 125.95 62.694Z" fill="#FFC100"/>
<path d="M145.755 98.3678C145.742 98.3683 145.729 98.3648 145.718 98.3578C145.706 98.3507 145.697 98.3404 145.691 98.3281L126.472 62.3939C126.466 62.3847 126.463 62.3745 126.462 62.3639C126.46 62.3533 126.461 62.3425 126.464 62.3323C126.467 62.322 126.471 62.3123 126.478 62.304C126.484 62.2957 126.492 62.2888 126.501 62.2837C126.51 62.2784 126.519 62.2749 126.529 62.2736C126.539 62.2722 126.549 62.273 126.559 62.2759C126.568 62.2788 126.577 62.2838 126.585 62.2904C126.592 62.2971 126.599 62.3053 126.603 62.3146L145.823 98.2487C145.828 98.2579 145.831 98.2682 145.833 98.2788C145.834 98.2894 145.833 98.3001 145.831 98.3104C145.828 98.3207 145.823 98.3303 145.817 98.3387C145.81 98.347 145.802 98.3539 145.793 98.359C145.782 98.3667 145.768 98.3698 145.755 98.3678Z" fill="white"/>
<path d="M145.327 98.6193C145.313 98.6201 145.299 98.6168 145.287 98.6098C145.275 98.6027 145.265 98.5923 145.259 98.5796L126.238 62.5264C126.233 62.5175 126.23 62.5076 126.229 62.4973C126.227 62.4871 126.228 62.4766 126.231 62.4667C126.234 62.4568 126.238 62.4475 126.245 62.4396C126.251 62.4316 126.259 62.4251 126.268 62.4205C126.277 62.4152 126.286 62.4118 126.296 62.4104C126.306 62.4091 126.316 62.4099 126.325 62.4128C126.335 62.4157 126.344 62.4206 126.352 62.4273C126.359 62.4339 126.365 62.4421 126.37 62.4514L145.395 98.4914C145.404 98.5103 145.406 98.5321 145.401 98.5526C145.395 98.5731 145.382 98.5906 145.365 98.6016C145.355 98.6118 145.341 98.618 145.327 98.6193Z" fill="white"/>
<path d="M144.894 98.8707C144.881 98.8706 144.867 98.8669 144.856 98.86C144.844 98.853 144.834 98.8431 144.827 98.831L126.005 62.672C126 62.6628 125.997 62.6526 125.995 62.642C125.994 62.6314 125.995 62.6206 125.997 62.6103C126 62.6 126.005 62.5904 126.011 62.5821C126.018 62.5737 126.026 62.5668 126.035 62.5618C126.053 62.5525 126.074 62.5511 126.093 62.5577C126.112 62.5643 126.128 62.5784 126.137 62.597L144.962 98.7561C144.967 98.7653 144.971 98.7755 144.972 98.7861C144.973 98.7967 144.973 98.8075 144.97 98.8178C144.967 98.8281 144.962 98.8377 144.956 98.846C144.95 98.8544 144.942 98.8613 144.933 98.8663L144.894 98.8707Z" fill="white"/>
<path d="M146.187 98.1168C146.174 98.1167 146.16 98.113 146.149 98.106C146.137 98.0991 146.127 98.0891 146.12 98.0771L126.713 62.2532C126.703 62.2345 126.7 62.2124 126.706 62.1917C126.712 62.171 126.725 62.1535 126.743 62.143C126.761 62.1324 126.782 62.1298 126.802 62.1356C126.822 62.1414 126.839 62.1551 126.849 62.1738L146.255 97.9977C146.26 98.007 146.264 98.0172 146.265 98.0278C146.267 98.0384 146.266 98.0491 146.263 98.0594C146.26 98.0697 146.256 98.0793 146.249 98.0877C146.243 98.096 146.235 98.1029 146.226 98.108C146.214 98.115 146.201 98.1181 146.187 98.1168Z" fill="white"/>
<path d="M146.62 97.8653C146.606 97.8661 146.593 97.8629 146.581 97.8558C146.569 97.8488 146.559 97.8383 146.552 97.8256L126.947 62.1076C126.941 62.0983 126.938 62.0881 126.937 62.0775C126.935 62.0669 126.936 62.0562 126.939 62.0459C126.942 62.0356 126.946 62.026 126.953 62.0176C126.959 62.0093 126.967 62.0024 126.976 61.9973C126.985 61.9919 126.995 61.9884 127.005 61.987C127.015 61.9856 127.026 61.9864 127.036 61.9893C127.045 61.9921 127.055 61.9971 127.063 62.0038C127.071 62.0105 127.077 62.0188 127.082 62.0282L146.684 97.7463C146.694 97.7646 146.696 97.7861 146.692 97.8065C146.687 97.8269 146.675 97.8448 146.658 97.8565C146.647 97.8635 146.633 97.8666 146.62 97.8653Z" fill="white"/>
<path d="M147.048 97.6093C147.035 97.6085 147.023 97.6044 147.011 97.5975C147 97.5906 146.991 97.5811 146.984 97.5696L127.179 61.9794C127.174 61.9706 127.171 61.9607 127.17 61.9504C127.168 61.9401 127.169 61.9297 127.172 61.9198C127.175 61.9098 127.179 61.9006 127.186 61.8926C127.192 61.8847 127.2 61.8782 127.209 61.8736C127.226 61.8637 127.246 61.8609 127.265 61.8658C127.284 61.8707 127.3 61.883 127.311 61.9001L147.116 97.4991C147.121 97.5079 147.124 97.5178 147.126 97.5281C147.127 97.5384 147.126 97.5488 147.123 97.5588C147.12 97.5687 147.116 97.5779 147.109 97.5859C147.103 97.5938 147.095 97.6003 147.086 97.6049C147.074 97.6107 147.061 97.6123 147.048 97.6093Z" fill="white"/>
<path d="M145.848 90.034L143.673 87.7454L142.312 91.5685C142.312 91.5685 144.58 93.0854 145.479 91.9125L145.848 90.034Z" fill="#E4897B"/>
<path d="M141.155 87.4056L140.175 90.6203L142.317 91.5683L143.673 87.7452L141.155 87.4056Z" fill="#E4897B"/>
<path d="M155.829 70.9003C154.981 73.1051 153.463 77.4354 155.236 79.8298C153.887 80.7955 148.414 84.6495 148.414 84.6495C148.414 84.6495 147.095 78.917 147.659 78.26C150.203 78.1674 151.051 75.6142 150.962 73.7313L155.829 70.9003Z" fill="#E4897B"/>
<path opacity="0.2" d="M153.845 72.0558L150.966 73.7315C150.995 74.1723 150.986 74.615 150.94 75.0543C151.903 75.1117 153.383 74.3179 153.667 73.3214C153.8 72.9143 153.86 72.4854 153.845 72.0558Z" fill="black"/>
<path d="M154.608 77.7662C154.608 77.7662 157.22 78.626 156.949 82.1978L153.896 80.9102L148.197 85.5271L146.874 80.0415L144.301 80.3767C144.301 80.3767 145.174 77.6647 149.63 77.431C148.944 77.8838 148.394 78.5288 148.045 79.2919C147.591 80.434 148.414 84.6496 148.414 84.6496C148.414 84.6496 152.959 82.1361 154.608 77.7662Z" fill="#FFC100"/>
<path opacity="0.8" d="M154.608 77.7662C154.608 77.7662 157.22 78.626 156.949 82.1978L153.896 80.9102L148.197 85.5271L146.874 80.0415L144.301 80.3767C144.301 80.3767 145.174 77.6647 149.63 77.431C148.944 77.8838 148.394 78.5288 148.045 79.2919C147.591 80.434 148.414 84.6496 148.414 84.6496C148.414 84.6496 152.959 82.1361 154.608 77.7662Z" fill="white"/>
<path d="M129.855 76.6593L129.058 73.5284L132.45 74.1943C132.45 74.1943 133.001 77.0341 131.602 77.281L129.855 76.6593Z" fill="#E4897B"/>
<path d="M129.932 70.455L132.662 72.0601L132.45 74.1943L129.058 73.5285L129.932 70.455Z" fill="#E4897B"/>
<path d="M160.883 83.8821C164.275 87.0173 164.865 102.941 159.069 103.382C154.829 103.699 146.709 95.184 146.62 93.2923L145.2 92.4103L145.848 90.0423L147.472 90.9551C147.472 90.9551 148.549 90.5142 149.253 90.7347C149.957 90.9551 156.325 93.8214 156.928 93.7773C157.53 93.7332 157.055 89.4956 157.055 89.4956L160.883 83.8821Z" fill="#FFC100"/>
<path opacity="0.7" d="M160.883 83.8821C164.275 87.0173 164.865 102.941 159.069 103.382C154.829 103.699 146.709 95.184 146.62 93.2923L145.2 92.4103L145.848 90.0423L147.472 90.9551C147.472 90.9551 148.549 90.5142 149.253 90.7347C149.957 90.9551 156.325 93.8214 156.928 93.7773C157.53 93.7332 157.055 89.4956 157.055 89.4956L160.883 83.8821Z" fill="white"/>
<path opacity="0.2" d="M145.776 172.653H152.365L152.344 170.607L145.467 170.192L145.776 172.653Z" fill="white"/>
<path opacity="0.2" d="M125.039 167.11L130.873 169.213L131.509 167.255L125.128 164.839L125.039 167.11Z" fill="white"/>
<path d="M150.271 62.9719C149.423 63.9156 148.6 66.2835 150.423 66.2615C152.246 66.2394 151.704 61.3447 150.271 62.9719Z" fill="#263238"/>
<path d="M157.279 68.1927C156.164 71.1207 155.656 72.8934 153.726 73.9253C150.822 75.4686 147.71 72.8581 147.96 69.6347C148.185 66.7332 149.97 62.4293 153.15 62.2265C153.854 62.181 154.559 62.322 155.197 62.6363C155.835 62.9506 156.386 63.4281 156.798 64.024C157.211 64.6199 157.471 65.3148 157.555 66.0439C157.64 66.7729 157.545 67.5122 157.279 68.1927Z" fill="#E4897B"/>
<path d="M151.042 64.1227C149.151 63.1438 148.558 60.401 151.687 59.7131C152.414 59.5838 153.156 59.5838 153.883 59.7131C153.883 59.7131 153.069 60.2378 153.349 61.036C153.82 60.5608 154.426 60.2565 155.077 60.1683C155.728 60.0801 156.389 60.2128 156.961 60.5465C156.372 61.0227 156.245 62.5176 157.326 62.5485C158.971 62.597 160.879 63.8361 159.925 65.5514C161.312 67.355 159.153 69.8597 156.088 70.1198C155.24 68.356 156.601 65.7807 156.601 65.7807C155.062 65.719 152.755 65.0135 151.042 64.1227Z" fill="#263238"/>
<path d="M159.467 65.5865C159.467 65.5865 160.866 65.3792 160.392 64.0122C161.439 64.925 160.671 65.7628 159.467 65.5865Z" fill="#263238"/>
<path d="M159.179 65.8115C159.179 65.8115 160.536 65.397 160.642 66.8478C161.235 65.5734 160.209 65.1325 159.179 65.8115Z" fill="#263238"/>
<path d="M157.606 71.0593C157.386 71.3769 157.107 71.6455 156.786 71.8492C156.465 72.053 156.108 72.1877 155.736 72.2455C154.744 72.3998 154.362 71.4341 154.739 70.5213C155.078 69.6967 156.011 68.6296 156.957 68.8941C157.164 68.9574 157.353 69.0728 157.506 69.2301C157.66 69.3875 157.774 69.5819 157.838 69.7961C157.903 70.0103 157.915 70.2377 157.874 70.4581C157.834 70.6784 157.741 70.8849 157.606 71.0593Z" fill="#E4897B"/>
<path d="M152.662 67.5004C152.586 67.7429 152.403 67.8973 152.238 67.8443C152.073 67.7914 152.022 67.5489 152.098 67.3064C152.174 67.0638 152.361 66.9095 152.522 66.9624C152.683 67.0153 152.738 67.2579 152.662 67.5004Z" fill="#263238"/>
<path d="M150.025 66.5746C149.948 66.8171 149.762 66.9715 149.601 66.9186C149.439 66.8657 149.384 66.6231 149.461 66.3806C149.537 66.1381 149.724 65.9837 149.885 66.0366C150.046 66.0896 150.101 66.3321 150.025 66.5746Z" fill="#263238"/>
<path d="M150.826 66.9888C150.312 67.6094 149.717 68.1525 149.058 68.6027C149.185 68.7704 149.344 68.9088 149.525 69.009C149.706 69.1092 149.905 69.1691 150.11 69.1848L150.826 66.9888Z" fill="#DE5753"/>
<path d="M151.068 70.5564C150.97 70.5344 150.864 70.5079 150.758 70.4726C150.749 70.4694 150.741 70.4644 150.733 70.4578C150.726 70.4512 150.72 70.4432 150.716 70.4342C150.711 70.4252 150.709 70.4154 150.708 70.4053C150.708 70.3953 150.709 70.3852 150.712 70.3756C150.715 70.3661 150.72 70.3572 150.726 70.3496C150.732 70.342 150.74 70.3358 150.749 70.3313C150.757 70.3268 150.767 70.3241 150.777 70.3234C150.786 70.3227 150.796 70.3239 150.805 70.3271C151.092 70.4368 151.399 70.4736 151.703 70.4345C152.006 70.3953 152.296 70.2814 152.548 70.1022C152.563 70.0894 152.582 70.0833 152.602 70.0854C152.621 70.0874 152.639 70.0975 152.652 70.1132C152.664 70.129 152.67 70.1493 152.668 70.1695C152.666 70.1898 152.656 70.2084 152.641 70.2213C152.414 70.3854 152.158 70.4998 151.888 70.5574C151.617 70.615 151.338 70.6147 151.068 70.5564Z" fill="#263238"/>
<path d="M153.76 66.8964C153.735 66.8922 153.711 66.8809 153.692 66.8638C153.672 66.8467 153.658 66.8244 153.65 66.7994C153.596 66.6179 153.503 66.4521 153.376 66.3156C153.249 66.1792 153.093 66.076 152.92 66.0145C152.884 66.0031 152.852 65.9778 152.833 65.9434C152.813 65.9091 152.806 65.8683 152.814 65.8292C152.824 65.7903 152.849 65.757 152.882 65.7364C152.915 65.7158 152.955 65.7096 152.992 65.719C153.211 65.7953 153.409 65.9242 153.57 66.095C153.731 66.2659 153.852 66.474 153.921 66.7024C153.928 66.7209 153.931 66.7406 153.93 66.7603C153.929 66.78 153.924 66.7993 153.916 66.817C153.907 66.8348 153.896 66.8506 153.881 66.8635C153.867 66.8763 153.85 66.886 153.832 66.892C153.809 66.9022 153.784 66.9037 153.76 66.8964Z" fill="#263238"/>
<path d="M149.181 65.2296C149.154 65.2244 149.128 65.2105 149.109 65.1899C149.082 65.1618 149.067 65.1238 149.067 65.0841C149.067 65.0444 149.082 65.0064 149.109 64.9783C149.265 64.8036 149.458 64.6703 149.674 64.5897C149.889 64.5092 150.12 64.4836 150.347 64.5152C150.385 64.5247 150.417 64.5487 150.438 64.5822C150.46 64.6158 150.468 64.6564 150.462 64.696C150.453 64.7347 150.431 64.7687 150.4 64.7908C150.368 64.813 150.329 64.8217 150.292 64.8151C150.112 64.7889 149.929 64.8095 149.759 64.8749C149.589 64.9403 149.437 65.0485 149.317 65.1899C149.299 65.2077 149.277 65.2207 149.254 65.2276C149.23 65.2345 149.205 65.2352 149.181 65.2296Z" fill="#263238"/>
<path d="M90.6178 106.87C89.2058 106.923 83.8338 106.544 82.9434 106.632C83.7914 104.912 87.955 101.936 90.2616 103.038C91.1096 103.422 91.1223 105.865 90.6178 106.87Z" fill="#FFC100"/>
<path opacity="0.4" d="M90.6178 106.87C89.2058 106.923 83.8338 106.544 82.9434 106.632C83.7914 104.912 88.0314 101.931 90.2616 103.038C91.1011 103.435 91.1223 105.865 90.6178 106.87Z" fill="black"/>
<path d="M50.6262 132.159C50.9428 133.195 51.135 134.267 51.1986 135.352C49.8503 135.859 48.9769 135.947 48.7649 135.484C47.8575 133.5 49.3627 133.262 50.6262 132.159Z" fill="#FFC100"/>
<path opacity="0.4" d="M50.6262 132.159C50.9428 133.195 51.135 134.267 51.1986 135.352C49.8503 135.859 48.9769 135.947 48.7649 135.484C47.8575 133.5 49.3627 133.262 50.6262 132.159Z" fill="black"/>
<path d="M77.4399 131.326C77.4399 131.326 97.9657 108.281 95.6719 106.583C93.378 104.886 91.1436 114.04 89.0617 113.533C86.9799 113.026 90.8637 106.535 88.7522 106.478C86.6407 106.42 86.3057 114.441 83.1978 114.481C80.0899 114.521 83.3589 109.63 80.3188 109.767C77.2787 109.904 82.1251 114.446 79.3903 116.748C76.6555 119.049 78.8815 108.916 75.3623 110.226C71.8431 111.535 78.0928 116.695 74.9383 119.045C71.7837 121.395 73.1447 112.902 69.6679 114.485C66.1911 116.068 74.3065 119.036 71.029 121.805C67.7515 124.575 66.8526 114.574 62.6423 117.837C58.432 121.1 69.7867 121.894 66.2081 125.333C62.6295 128.773 61.7688 118.507 58.4744 122.515C55.1799 126.524 64.8344 127.428 62.6889 129.571C60.5435 131.714 56.2017 123.45 54.1199 128.627C52.038 133.804 60.7427 128.627 59.0086 132.706C57.2744 136.785 52.8479 131.736 51.5759 134.884C50.3039 138.033 57.9062 133.31 57.0327 137.433C56.1593 141.556 49.8247 138.756 48.0863 141.508C46.3479 144.259 59.458 146.786 77.4399 131.326Z" fill="#FFC100"/>
<path opacity="0.5" d="M77.4399 131.326C77.4399 131.326 97.9657 108.281 95.6719 106.583C93.378 104.886 91.1436 114.04 89.0617 113.533C86.9799 113.026 90.8637 106.535 88.7522 106.478C86.6407 106.42 86.3057 114.441 83.1978 114.481C80.0899 114.521 83.3589 109.63 80.3188 109.767C77.2787 109.904 82.1251 114.446 79.3903 116.748C76.6555 119.049 78.8815 108.916 75.3623 110.226C71.8431 111.535 78.0928 116.695 74.9383 119.045C71.7837 121.395 73.1447 112.902 69.6679 114.485C66.1911 116.068 74.3065 119.036 71.029 121.805C67.7515 124.575 66.8526 114.574 62.6423 117.837C58.432 121.1 69.7867 121.894 66.2081 125.333C62.6295 128.773 61.7688 118.507 58.4744 122.515C55.1799 126.524 64.8344 127.428 62.6889 129.571C60.5435 131.714 56.2017 123.45 54.1199 128.627C52.038 133.804 60.7427 128.627 59.0086 132.706C57.2744 136.785 52.8479 131.736 51.5759 134.884C50.3039 138.033 57.9062 133.31 57.0327 137.433C56.1593 141.556 49.8247 138.756 48.0863 141.508C46.3479 144.259 59.458 146.786 77.4399 131.326Z" fill="black"/>
<path d="M105.788 105.172C105.517 105.071 105.226 105.041 104.94 105.084C100.874 105.053 95.8838 110.217 91.6522 108.4C87.1197 106.455 70.6134 107.553 60.6112 115.226C50.609 122.899 54.1198 137.676 51.4655 141.984C48.8113 146.292 46.0044 147.584 46.0044 147.584L46.2164 147.659C46.1231 148.329 48.1329 149.789 53.5516 152.188C63.469 156.597 100.136 131.617 106.615 111.46C106.615 111.46 109.354 106.301 105.788 105.172Z" fill="#FFC100"/>
<path opacity="0.4" d="M105.788 105.172C105.517 105.071 105.226 105.041 104.94 105.084C100.874 105.053 95.8838 110.217 91.6522 108.4C87.1197 106.455 70.6134 107.553 60.6112 115.226C50.609 122.899 54.1198 137.676 51.4655 141.984C48.8113 146.292 46.0044 147.584 46.0044 147.584L46.2164 147.659C46.1231 148.329 48.1329 149.789 53.5516 152.188C63.469 156.597 100.136 131.617 106.615 111.46C106.615 111.46 109.354 106.301 105.788 105.172Z" fill="black"/>
<path d="M117.83 108.973C115.782 107.999 108.591 109.472 108.591 109.472C108.591 109.472 96.3589 124.103 99.1743 128.825C101.99 133.548 117.83 108.973 117.83 108.973Z" fill="#FFC100"/>
<path d="M114.252 100.502C116.372 101.768 112.132 108.881 113.281 110.645C114.43 112.409 116.673 107.386 117.83 108.973C118.988 110.561 111.856 116.192 112.208 118.776C112.56 121.36 117.139 119.393 114.964 122.886C112.789 126.378 106.696 128.266 106.989 130.44C107.281 132.613 106.141 133.967 102.922 135.555C99.7043 137.142 95.7144 139.55 96.643 141.38C97.5715 143.21 91.555 147.694 88.4471 147.994C85.3391 148.294 83.7534 149.031 83.2107 152.558C82.6679 156.086 80.3487 158.291 76.8167 158.176C73.2848 158.062 71.1097 157.788 69.6723 160.275C68.235 162.762 67.1665 163.265 65.6401 162.162C64.1137 161.06 61.2093 162.427 58.784 163.838C56.3587 165.249 52.5724 164.438 51.6693 162.586C50.7662 160.734 46.6619 162.617 45.1185 162.418C43.5751 162.22 41.4424 160.787 42.8883 159.124C44.3341 157.462 47.4759 156.077 47.4759 156.077C47.4759 156.077 43.4352 151.293 46.0216 150.75C48.608 150.208 95.3625 126.056 99.4923 118.631C103.622 111.205 112.513 99.4618 114.252 100.502Z" fill="#FFC100"/>
<path opacity="0.5" d="M114.252 100.502C116.372 101.768 112.132 108.881 113.281 110.645C114.43 112.409 116.673 107.386 117.83 108.973C118.988 110.561 111.856 116.192 112.208 118.776C112.56 121.36 117.139 119.393 114.964 122.886C112.789 126.378 106.696 128.266 106.989 130.44C107.281 132.613 106.141 133.967 102.922 135.555C99.7043 137.142 95.7144 139.55 96.643 141.38C97.5715 143.21 91.555 147.694 88.4471 147.994C85.3391 148.294 83.7534 149.031 83.2107 152.558C82.6679 156.086 80.3487 158.291 76.8167 158.176C73.2848 158.062 71.1097 157.788 69.6723 160.275C68.235 162.762 67.1665 163.265 65.6401 162.162C64.1137 161.06 61.2093 162.427 58.784 163.838C56.3587 165.249 52.5724 164.438 51.6693 162.586C50.7662 160.734 46.6619 162.617 45.1185 162.418C43.5751 162.22 41.4424 160.787 42.8883 159.124C44.3341 157.462 47.4759 156.077 47.4759 156.077C47.4759 156.077 43.4352 151.293 46.0216 150.75C48.608 150.208 95.3625 126.056 99.4923 118.631C103.622 111.205 112.513 99.4618 114.252 100.502Z" fill="black"/>
<path d="M57.3213 115.147C57.3213 115.147 75.9222 132.142 78.9453 131.383C89.3799 130.06 105.115 126.758 111.292 126.718C112.208 126.621 111.631 124.685 111.22 124.24C111.22 124.24 94.3619 119.909 77.8726 124.398C74.3279 115.041 64.118 107.359 64.118 107.359L57.3213 115.147Z" fill="#E4897B"/>
<path d="M50.7744 144.374C52.7545 155.058 54.883 169.712 54.3572 175.951C54.9296 176.3 55.9939 176.339 57.1514 175.951C57.1514 175.951 60.9038 156.509 58.2071 144.356L50.7744 144.374Z" fill="#E4897B"/>
<path d="M114.252 100.502C110.381 100.427 113.196 113.652 111.364 115.707C109.533 117.762 108.774 111.844 106.556 112.091C104.339 112.338 105.233 122.295 103.164 123.415C101.095 124.535 100.722 120.037 98.8267 120.632C96.9314 121.228 99.3524 127.922 96.9144 129.919C94.4764 131.917 94.256 125.664 91.1141 127.547C87.9723 129.43 89.0874 130.933 89.1976 133.866C89.3079 136.798 87.756 139.598 85.6106 137.751C83.4652 135.903 82.4688 131.732 80.9466 135.824C79.4244 139.916 81.4172 142.438 79.2252 141.905C77.0331 141.371 74.5612 133.553 73.7513 138.469C72.9415 143.386 74.54 147.509 71.2328 147.152C67.9256 146.795 69.5368 143.783 67.8111 143.757C66.0854 143.73 63.9612 148.409 65.1568 150.495C66.3525 152.58 61.608 155.059 59.8526 152.646C58.0972 150.234 62.2185 146.561 59.7932 146.341C57.368 146.12 57.6054 155.522 54.7052 154.675C51.8051 153.828 51.7839 151.588 47.2895 151.809C42.7951 152.029 48.2096 155.557 49.4095 156.276C50.6094 156.994 48.9855 159.803 42.8799 159.12L46.5008 154.966C46.5008 154.966 44.648 152.214 44.8048 151.548C44.9617 150.883 50.1048 148.219 51.8051 143.889C53.5053 139.559 59.9671 131.917 66.026 126.184C72.085 120.452 90.3085 111.522 94.5612 110.843C98.814 110.164 103.703 109.234 106.857 106.35C110.012 103.466 110.55 101.94 112.085 100.816C113.62 99.6911 114.252 100.502 114.252 100.502Z" fill="#FFC100"/>
<path opacity="0.2" d="M114.252 100.502C110.381 100.427 113.196 113.652 111.364 115.707C109.533 117.762 108.774 111.844 106.556 112.091C104.339 112.338 105.233 122.295 103.164 123.415C101.095 124.535 100.722 120.037 98.8267 120.632C96.9314 121.228 99.3524 127.922 96.9144 129.919C94.4764 131.917 94.256 125.664 91.1141 127.547C87.9723 129.43 89.0874 130.933 89.1976 133.866C89.3079 136.798 87.756 139.598 85.6106 137.751C83.4652 135.903 82.4688 131.732 80.9466 135.824C79.4244 139.916 81.4172 142.438 79.2252 141.905C77.0331 141.371 74.5612 133.553 73.7513 138.469C72.9415 143.386 74.54 147.509 71.2328 147.152C67.9256 146.795 69.5368 143.783 67.8111 143.757C66.0854 143.73 63.9612 148.409 65.1568 150.495C66.3525 152.58 61.608 155.059 59.8526 152.646C58.0972 150.234 62.2185 146.561 59.7932 146.341C57.368 146.12 57.6054 155.522 54.7052 154.675C51.8051 153.828 51.7839 151.588 47.2895 151.809C42.7951 152.029 48.2096 155.557 49.4095 156.276C50.6094 156.994 48.9855 159.803 42.8799 159.12L46.5008 154.966C46.5008 154.966 44.648 152.214 44.8048 151.548C44.9617 150.883 50.1048 148.219 51.8051 143.889C53.5053 139.559 59.9671 131.917 66.026 126.184C72.085 120.452 90.3085 111.522 94.5612 110.843C98.814 110.164 103.703 109.234 106.857 106.35C110.012 103.466 110.55 101.94 112.085 100.816C113.62 99.6911 114.252 100.502 114.252 100.502Z" fill="black"/>
<path d="M100.874 115.2C98.4109 115.755 94.2981 113.934 94.2981 113.934L94.3617 120.624C94.3617 120.624 91.1266 121.563 88.7437 119.583C88.7437 119.583 90.1514 123.825 89.4645 124.509C88.7777 125.192 82.0785 122.343 82.0785 122.343L83.5921 129.452C83.5921 129.452 77.3169 124.804 77.5374 126.136C77.7579 127.467 78.4745 131.908 78.1904 132.799C77.9063 133.689 76.5495 135.669 74.6712 134.66C72.7929 133.65 69.2058 128.821 69.2058 128.821C69.2058 128.821 68.7818 139.056 67.6497 138.774C66.5177 138.492 65.8393 132.525 65.3686 133.116C64.898 133.707 65.199 142.817 62.2098 143.104C59.2206 143.391 60.005 135.109 58.6355 135.841C57.266 136.573 57.1939 148.043 54.3955 148.153C51.5971 148.263 51.0035 147.955 51.9745 145.11C52.9454 142.266 53.8613 132.419 56.8377 130.726C59.8142 129.033 88.7861 110.442 92.564 110.636C96.3418 110.83 98.1693 106.491 100.535 107.611C102.901 108.731 100.874 115.2 100.874 115.2Z" fill="#FFC100"/>
<path opacity="0.4" d="M100.874 115.2C98.4109 115.755 94.2981 113.934 94.2981 113.934L94.3617 120.624C94.3617 120.624 91.1266 121.563 88.7437 119.583C88.7437 119.583 90.1514 123.825 89.4645 124.509C88.7777 125.192 82.0785 122.343 82.0785 122.343L83.5921 129.452C83.5921 129.452 77.3169 124.804 77.5374 126.136C77.7579 127.467 78.4745 131.908 78.1904 132.799C77.9063 133.689 76.5495 135.669 74.6712 134.66C72.7929 133.65 69.2058 128.821 69.2058 128.821C69.2058 128.821 68.7818 139.056 67.6497 138.774C66.5177 138.492 65.8393 132.525 65.3686 133.116C64.898 133.707 65.199 142.817 62.2098 143.104C59.2206 143.391 60.005 135.109 58.6355 135.841C57.266 136.573 57.1939 148.043 54.3955 148.153C51.5971 148.263 51.0035 147.955 51.9745 145.11C52.9454 142.266 53.8613 132.419 56.8377 130.726C59.8142 129.033 88.7861 110.442 92.564 110.636C96.3418 110.83 98.1693 106.491 100.535 107.611C102.901 108.731 100.874 115.2 100.874 115.2Z" fill="black"/>
<path d="M101.807 114.71C98.182 117.325 102.52 108.885 99.2123 108.21C95.9051 107.536 99.0385 117.444 95.3581 120.152C91.6778 122.859 94.6034 113.096 89.9776 114.225C85.3517 115.354 92.3902 122.392 89.9776 124.244C87.565 126.096 89.3925 118.114 84.6945 119.164C79.9966 120.213 86.5941 124.808 84.4783 128.53C82.3625 132.252 80.9294 124.023 77.6943 124.464C74.4592 124.905 81.3789 134.258 76.045 134.801C70.711 135.343 74.6712 128.265 71.9109 127.979C69.1507 127.692 70.1301 138.633 67.6455 138.774C65.1609 138.915 69.5069 132.666 65.7714 132.124C62.036 131.582 66.5473 143.113 62.2056 143.104C57.8638 143.095 62.4049 140.502 58.7033 139.179C55.0018 137.856 54.51 141.944 54.9213 145.353C55.3325 148.761 54.9213 148.532 50.0283 147.558C47.7981 147.117 46.2717 147.117 46.2123 147.686L46.0088 147.611C46.0088 147.611 48.8326 146.323 51.4699 142.015C54.1072 137.707 50.6219 122.925 60.6198 115.253C70.6177 107.58 87.1283 106.482 91.6609 108.427C95.9009 110.243 100.874 105.084 104.941 105.115C102.774 105.547 105.08 112.351 101.807 114.71Z" fill="#FFC100"/>
<path d="M62.7061 87.0884C63.2192 86.8591 63.6601 86.6871 64.135 86.5196C64.6099 86.352 65.0763 86.1933 65.5512 86.0389C66.4967 85.7479 67.4634 85.4965 68.4428 85.3025C69.4307 85.0902 70.4305 84.9429 71.4363 84.8616C71.9408 84.8086 72.4581 84.7998 72.9754 84.7954H73.7556H74.0778L74.3068 84.8307C74.5073 84.8612 74.7028 84.9206 74.8876 85.0071C75.1944 85.1379 75.4675 85.3418 75.6848 85.6024C75.8185 85.76 75.9299 85.9367 76.0155 86.1271C76.0563 86.2219 76.0917 86.319 76.1215 86.4182C76.1469 86.5063 76.1639 86.5901 76.1808 86.6783C76.1978 86.7665 76.2063 86.8591 76.2105 86.9297C76.2148 87.0002 76.2105 87.0708 76.2105 87.1369C76.2102 87.2568 76.1989 87.3765 76.1766 87.4941L76.1469 87.6529L76.113 87.7763C76.0441 88.0261 75.9458 88.266 75.8204 88.4907C75.6528 88.7877 75.4614 89.0695 75.248 89.3329C74.9042 89.7583 74.5361 90.1618 74.1456 90.5412C73.4079 91.2599 72.6659 91.9082 71.9027 92.5255C70.3956 93.754 68.8244 94.8949 67.1963 95.943C66.9677 96.0891 66.6928 96.1354 66.4316 96.0718C66.1704 96.0082 65.9438 95.8399 65.8013 95.6034C65.6743 95.3994 65.6196 95.1557 65.6466 94.9142C65.6737 94.6728 65.7809 94.4487 65.9497 94.2805C67.2726 92.9224 68.6039 91.5466 69.8844 90.1884C70.5204 89.5005 71.1564 88.817 71.7119 88.1247C71.9807 87.8067 72.2313 87.4724 72.4624 87.1237C72.5425 87.0049 72.6107 86.8778 72.6659 86.7445C72.6659 86.718 72.6659 86.6916 72.6404 86.7886V86.8238V86.89C72.6303 86.9469 72.6232 87.0043 72.6192 87.062C72.6171 87.1016 72.6171 87.1414 72.6192 87.181C72.6192 87.2207 72.6192 87.2913 72.6192 87.3442C72.6279 87.4009 72.6407 87.457 72.6574 87.5117C72.6765 87.5832 72.7021 87.6526 72.7337 87.719C72.7932 87.8553 72.8718 87.9816 72.9669 88.0938C73.0484 88.1934 73.1425 88.2809 73.2468 88.354C73.319 88.4053 73.3956 88.4496 73.4757 88.4863C73.5241 88.5082 73.5737 88.5273 73.6241 88.5436L73.7174 88.5701C73.7174 88.5701 73.7768 88.5701 73.7725 88.5701C73.7683 88.5701 73.8234 88.5701 73.7428 88.5701L73.1153 88.6186C72.6913 88.6627 72.2673 88.7068 71.8433 88.7773C70.9874 88.9096 70.1383 89.0862 69.2993 89.3065C68.4513 89.5225 67.6033 89.7474 66.7553 90.0429C66.3313 90.1796 65.9073 90.3207 65.4833 90.4838L64.2749 90.9248L64.1944 90.9513C63.9463 91.052 63.6816 91.101 63.4153 91.0953C63.1491 91.0897 62.8865 91.0296 62.6426 90.9184C62.3987 90.8073 62.1782 90.6472 61.9938 90.4474C61.8094 90.2476 61.6646 90.012 61.5677 89.754C61.4708 89.4961 61.4237 89.2208 61.4291 88.9439C61.4345 88.667 61.4924 88.3939 61.5993 88.1402C61.7061 87.8865 61.86 87.6573 62.0521 87.4654C62.2442 87.2736 62.4708 87.123 62.7188 87.0223L62.7061 87.0884Z" fill="#E4897B"/>
<path d="M49.4943 85.2275C48.7439 83.1902 48.0612 81.1574 47.4337 79.076C47.1199 78.0398 46.8062 76.9991 46.5306 75.9319C46.2298 74.8278 45.9863 73.7076 45.8013 72.5762C45.7431 72.2117 45.7105 71.8432 45.7038 71.4738C45.701 71.1875 45.7309 70.9018 45.7928 70.6227C45.8529 70.348 45.944 70.0816 46.0642 69.829C46.2644 69.4269 46.5233 69.0595 46.8316 68.7398C47.0821 68.4802 47.353 68.2427 47.6415 68.0299C48.614 67.3387 49.6724 66.7883 50.7875 66.3939C52.8214 65.6575 54.9251 65.149 57.0627 64.877C57.3091 64.8417 57.5593 64.9023 57.7653 65.0471C57.9713 65.1919 58.1187 65.4108 58.1792 65.6616C58.2396 65.9125 58.2088 66.1777 58.0928 66.4064C57.9767 66.6352 57.7836 66.8113 57.5503 66.901H57.5164C55.6366 67.6124 53.7964 68.4324 52.0044 69.3572C51.2021 69.7648 50.448 70.268 49.7572 70.8565C49.5624 71.0125 49.4068 71.2153 49.3035 71.4473C49.3035 71.4473 49.3035 71.4473 49.3247 71.4209C49.3459 71.3944 49.3247 71.3195 49.3502 71.368C49.3756 71.4165 49.3926 71.6546 49.4392 71.8663C49.6385 72.7482 49.9438 73.7624 50.2491 74.7458C50.5543 75.7291 50.8851 76.7345 51.2243 77.7355L53.2722 83.7326C53.4589 84.2589 53.4369 84.8407 53.211 85.3501C52.9852 85.8595 52.5741 86.2548 52.068 86.4489C51.562 86.6431 51.0025 86.6202 50.5127 86.3853C50.0229 86.1505 49.6429 85.7229 49.4562 85.1966L49.4943 85.2275Z" fill="#E4897B"/>
<path d="M59.5045 86.9121C59.5045 86.9121 58.5633 88.1864 54.0561 86.0566C52.6866 85.404 53.9544 84.2927 53.9544 84.2927C55.9557 84.7116 56.7528 83.5519 57.181 82.1937C57.2319 82.0262 57.2785 81.8586 57.3167 81.6955L62.269 80.3726C61.2005 81.7175 59.5978 84.0678 59.407 85.8537C59.3598 86.2096 59.3932 86.572 59.5045 86.9121Z" fill="#E4897B"/>
<path opacity="0.2" d="M59.4072 85.8535C57.8087 85.0289 57.3168 83.3974 57.1812 82.1803C57.232 82.0127 57.2787 81.8452 57.3168 81.682L62.2692 80.3591C61.2007 81.7349 59.598 84.0676 59.4072 85.8535Z" fill="black"/>
<path d="M54.2856 74.9177C54.2856 74.9177 51.996 73.436 51.0123 74.7369C50.0286 76.0377 50.5289 79.4596 53.3909 78.8775C56.2529 78.2955 54.9343 75.2572 54.2856 74.9177Z" fill="#263238"/>
<path d="M54.6206 74.5958C54.6206 74.5958 54.3535 73.1715 53.4207 73.1715C52.4879 73.1715 52.9458 74.5958 52.9458 74.5958C52.9458 74.5958 52.0299 73.8462 51.7628 74.953C51.7224 75.0949 51.7116 75.2441 51.7311 75.3907C51.7506 75.5372 51.7998 75.6778 51.8757 75.803C51.9515 75.9282 52.0522 76.0351 52.1709 76.1167C52.2896 76.1982 52.4237 76.2525 52.5642 76.2759C52.5642 76.2759 51.572 76.7169 51.9154 77.5988C52.2589 78.4807 52.8567 77.903 52.8567 77.903C52.8567 77.903 52.4327 78.9305 52.9458 79.3274C53.4588 79.7242 53.9718 78.9702 53.9718 78.9702C53.9187 79.2222 53.9552 79.4856 54.0744 79.7118C54.1937 79.938 54.3877 80.1116 54.6206 80.2005C55.4686 80.5709 56.13 78.4146 56.13 78.4146L54.6206 74.5958Z" fill="#FFC100"/>
<path opacity="0.4" d="M54.6206 74.5958C54.6206 74.5958 54.3535 73.1715 53.4207 73.1715C52.4879 73.1715 52.9458 74.5958 52.9458 74.5958C52.9458 74.5958 52.0299 73.8462 51.7628 74.953C51.7224 75.0949 51.7116 75.2441 51.7311 75.3907C51.7506 75.5372 51.7998 75.6778 51.8757 75.803C51.9515 75.9282 52.0522 76.0351 52.1709 76.1167C52.2896 76.1982 52.4237 76.2525 52.5642 76.2759C52.5642 76.2759 51.572 76.7169 51.9154 77.5988C52.2589 78.4807 52.8567 77.903 52.8567 77.903C52.8567 77.903 52.4327 78.9305 52.9458 79.3274C53.4588 79.7242 53.9718 78.9702 53.9718 78.9702C53.9187 79.2222 53.9552 79.4856 54.0744 79.7118C54.1937 79.938 54.3877 80.1116 54.6206 80.2005C55.4686 80.5709 56.13 78.4146 56.13 78.4146L54.6206 74.5958Z" fill="white"/>
<path d="M59.0428 71.7427C61.5232 71.3855 64.7583 73.2904 65.0975 75.9318C65.6105 79.9005 61.2815 82.2685 60.3105 82.2244C51.3429 81.8231 52.0341 72.7525 59.0428 71.7427Z" fill="#263238"/>
<path d="M55.7522 76.6949C55.9557 80.0374 55.9769 81.4573 57.5839 83.252C60.0049 85.9595 63.8591 85.1834 64.6095 81.8938C65.2837 78.935 64.8342 73.9565 61.7221 72.466C61.0638 72.1213 60.3289 71.966 59.5935 72.0164C58.858 72.0667 58.149 72.3208 57.5398 72.7523C56.9307 73.1837 56.4437 73.7769 56.1293 74.4702C55.815 75.1635 55.6848 75.9316 55.7522 76.6949Z" fill="#E4897B"/>
<path d="M60.6708 77.8765C60.6708 78.1543 60.8192 78.3924 60.9888 78.4012C61.1584 78.41 61.2983 78.1896 61.2898 77.9073C61.2813 77.6251 61.1414 77.387 60.9718 77.3782C60.8022 77.3694 60.6623 77.5943 60.6708 77.8765Z" fill="#263238"/>
<path d="M63.9061 78.0882C63.9061 78.3705 64.0545 78.6042 64.2241 78.613C64.3937 78.6218 64.5336 78.4013 64.5252 78.1191C64.5167 77.8369 64.3768 77.6032 64.2072 77.5944C64.0376 77.5856 63.8976 77.806 63.9061 78.0882Z" fill="#263238"/>
<path d="M64.1309 77.6076L64.7584 77.4445C64.7584 77.4445 64.4446 77.956 64.1309 77.6076Z" fill="#263238"/>
<path d="M63.0239 78.5028C63.2719 79.1586 63.5981 79.7793 63.9949 80.3504C63.8596 80.4454 63.7055 80.5074 63.544 80.5318C63.3825 80.5562 63.2178 80.5425 63.0621 80.4916L63.0239 78.5028Z" fill="#ED893E"/>
<path d="M59.9459 76.2716C59.967 76.2759 59.9887 76.2749 60.0094 76.2688C60.03 76.2626 60.0489 76.2515 60.0646 76.2363C60.2063 76.1025 60.3777 76.0074 60.5635 75.9597C60.7493 75.9119 60.9436 75.913 61.1289 75.9629C61.1478 75.9689 61.1677 75.971 61.1874 75.9689C61.2071 75.9669 61.2262 75.9607 61.2436 75.9509C61.261 75.941 61.2763 75.9276 61.2886 75.9115C61.301 75.8954 61.3101 75.8769 61.3154 75.857C61.3243 75.8139 61.3181 75.7689 61.2979 75.7301C61.2777 75.6912 61.2448 75.6612 61.2052 75.6454C60.9708 75.5793 60.7242 75.5754 60.4879 75.634C60.2516 75.6925 60.0332 75.8116 59.8526 75.9805C59.8243 76.0123 59.8086 76.054 59.8086 76.0974C59.8086 76.1407 59.8243 76.1824 59.8526 76.2142C59.8771 76.2432 59.9097 76.2633 59.9459 76.2716Z" fill="#263238"/>
<path d="M64.8131 76.5889C64.8326 76.594 64.8529 76.5946 64.8726 76.5908C64.8924 76.587 64.9111 76.5788 64.9276 76.5668C64.9439 76.5542 64.9577 76.5384 64.968 76.5202C64.9784 76.502 64.9851 76.4818 64.9879 76.4609C64.9907 76.4399 64.9894 76.4186 64.9841 76.3982C64.9789 76.3778 64.9697 76.3586 64.9572 76.3419C64.8193 76.1161 64.6324 75.9271 64.4115 75.79C64.1906 75.6529 63.9418 75.5716 63.6852 75.5526C63.6652 75.5525 63.6453 75.5568 63.627 75.5651C63.6086 75.5735 63.5921 75.5857 63.5785 75.6011C63.565 75.6165 63.5546 75.6346 63.5482 75.6543C63.5417 75.6741 63.5393 75.695 63.5411 75.7158C63.5432 75.7603 63.5615 75.8023 63.5921 75.8333C63.6228 75.8644 63.6636 75.8823 63.7064 75.8833C63.9067 75.9041 64.0998 75.972 64.271 76.0821C64.4422 76.1921 64.587 76.3413 64.6944 76.5183C64.7082 76.5382 64.7259 76.5548 64.7464 76.567C64.7669 76.5791 64.7896 76.5866 64.8131 76.5889Z" fill="#263238"/>
<path d="M60.9038 77.3915L61.5313 77.2284C61.5313 77.2284 61.2091 77.7399 60.9038 77.3915Z" fill="#263238"/>
<path d="M62.6001 81.2941C62.2802 81.6239 61.9841 81.9777 61.7139 82.3525L61.5019 82.2378C60.5522 81.7042 60.2808 81.1354 60.2681 80.6592C60.2673 80.4277 60.3196 80.1995 60.4207 79.9933C60.4739 79.8754 60.5424 79.7656 60.6242 79.667C61.0684 80.2666 61.6326 80.7586 62.2778 81.1089C62.4602 81.2148 62.6001 81.2941 62.6001 81.2941Z" fill="#263238"/>
<path d="M62.2648 81.0955L61.9935 81.3998C61.1031 80.8971 60.5392 80.4208 60.4077 79.9799C60.4609 79.8619 60.5294 79.7521 60.6112 79.6536C61.0554 80.2532 61.6196 80.7452 62.2648 81.0955Z" fill="white"/>
<path d="M61.4892 82.2244C60.5395 81.6908 60.2681 81.122 60.2554 80.6458C60.6122 80.8553 60.9308 81.1284 61.1967 81.4527C61.3712 81.6707 61.4738 81.9412 61.4892 82.2244Z" fill="#DE5753"/>
<path d="M55.0737 79.8079C55.1688 80.1127 55.3238 80.3936 55.5289 80.6327C55.7341 80.8718 55.9848 81.064 56.2651 81.1969C56.9732 81.4924 57.3972 80.659 57.253 79.7594C57.1258 78.9436 56.6085 77.8103 55.8708 77.9118C55.133 78.0132 54.7938 78.9921 55.0737 79.8079Z" fill="#E4897B"/>
<path d="M60.6706 73.652C60.6706 73.652 59.687 74.3178 59.2333 76.2978C58.5294 79.2963 56.5748 79.433 55.4173 78.9436C54.0902 78.3968 53.1786 75.9759 54.2174 73.652C56.1169 69.4055 61.5653 70.0537 62.9984 71.7426C64.5248 73.5285 63.0238 74.556 60.6706 73.652Z" fill="#263238"/>
<path d="M58.521 64.833L58.2497 61.9932L55.8159 64.3964C55.8159 64.3964 56.3459 66.5395 57.6858 66.879L57.919 66.6409C58.1412 66.4043 58.3104 66.1196 58.4145 65.807C58.5186 65.4945 58.555 65.1618 58.521 64.833Z" fill="#E4897B"/>
<path d="M56.8634 59.8721L54.5356 61.5433L55.7949 64.3964L58.2499 61.9931L56.8634 59.8721Z" fill="#E4897B"/>
<path d="M66.3653 96.807L68.375 98.7516L68.6888 95.2636C68.6888 95.2636 66.925 94.0201 65.7208 94.686V95.0255C65.6935 95.3537 65.7372 95.684 65.8487 95.9923C65.9602 96.3006 66.1367 96.579 66.3653 96.807Z" fill="#E4897B"/>
<path d="M70.7616 99.3866L71.4485 96.5379L68.6883 95.2635L68.3745 98.7516L70.7616 99.3866Z" fill="#E4897B"/>
<path d="M52.4237 81.938C52.4237 81.938 54.9677 86.7313 63.4901 86.7313L63.8717 91.0483C62.7354 92.6314 60.3695 98.4433 61.1878 102.99L50.5454 105.926C49.0455 98.325 48.4757 90.5568 48.8494 82.8067L52.4237 81.938Z" fill="#E4897B"/>
<path d="M59.878 85.9726L53.7936 90.9467C53.1537 88.4657 53.3024 85.8361 54.2176 83.4503L52.848 81.8231C52.848 81.8231 45.4492 91.7933 49.9352 105.926L61.1754 102.989C61.0465 100.322 61.4478 97.6564 62.3541 95.1579C62.3541 95.1579 60.6115 89.4694 61.4637 86.2901L59.878 85.9726Z" fill="#FFC100"/>
<path d="M89.0405 113.533C87.4972 113.229 84.8005 110.848 84.8005 110.848L83.1851 114.472C83.1851 114.472 80.7768 114.794 78.8221 111.385C76.8675 107.977 78.75 117.061 78.75 117.061C78.75 117.061 76.5325 117.546 74.934 114.036C73.3356 110.526 74.1751 119.398 74.1751 119.398C74.1751 119.398 73.0939 119.861 71.9872 117.444C70.8806 115.028 71.966 119.702 71.8134 120.341C71.6608 120.981 65.3983 115.932 65.3983 115.932C65.0014 117.188 65.0959 118.557 65.6612 119.742C66.6067 121.805 67.726 123.675 66.6745 124.698C65.623 125.721 61.4339 119.217 60.4799 119.301C59.5259 119.385 61.701 127.066 62.7695 128.398C63.838 129.73 59.1612 128.53 58.0164 126.854C56.8716 125.179 56.1424 128.244 59.0892 131.317L54.2598 132.64C54.2598 132.64 57.338 134.404 57.037 136.344C56.736 138.284 49.2905 138.831 49.2905 138.831L49.7145 132.605C49.7145 132.605 53.5008 120.386 65.3092 113.365C77.1176 106.345 87.4081 105.353 90.1302 106.31C92.8523 107.267 89.0405 113.533 89.0405 113.533Z" fill="#FFC100"/>
<path opacity="0.5" d="M89.0405 113.533C87.4972 113.229 84.8005 110.848 84.8005 110.848L83.1851 114.472C83.1851 114.472 80.7768 114.794 78.8221 111.385C76.8675 107.977 78.75 117.061 78.75 117.061C78.75 117.061 76.5325 117.546 74.934 114.036C73.3356 110.526 74.1751 119.398 74.1751 119.398C74.1751 119.398 73.0939 119.861 71.9872 117.444C70.8806 115.028 71.966 119.702 71.8134 120.341C71.6608 120.981 65.3983 115.932 65.3983 115.932C65.0014 117.188 65.0959 118.557 65.6612 119.742C66.6067 121.805 67.726 123.675 66.6745 124.698C65.623 125.721 61.4339 119.217 60.4799 119.301C59.5259 119.385 61.701 127.066 62.7695 128.398C63.838 129.73 59.1612 128.53 58.0164 126.854C56.8716 125.179 56.1424 128.244 59.0892 131.317L54.2598 132.64C54.2598 132.64 57.338 134.404 57.037 136.344C56.736 138.284 49.2905 138.831 49.2905 138.831L49.7145 132.605C49.7145 132.605 53.5008 120.386 65.3092 113.365C77.1176 106.345 87.4081 105.353 90.1302 106.31C92.8523 107.267 89.0405 113.533 89.0405 113.533Z" fill="black"/>
<path d="M95.3624 106.429C93.1619 105.64 91.0334 114.014 89.0448 113.537C86.963 113.026 90.8426 106.539 88.7311 106.482C86.6195 106.425 86.2846 114.446 83.1767 114.486C80.0687 114.525 83.3378 109.635 80.3019 109.772C77.2661 109.908 82.1039 114.45 79.3691 116.752C76.6343 119.054 78.8603 108.925 75.3454 110.23C71.8304 111.535 78.0675 116.699 74.9214 119.049C71.7753 121.4 73.1279 112.907 69.6553 114.49C66.1827 116.073 74.2896 119.041 71.0121 121.81C67.7346 124.579 66.8399 114.56 62.5999 117.797C58.3599 121.034 69.7443 121.858 66.1658 125.294C62.5872 128.729 61.7265 118.467 58.432 122.476C55.1375 126.484 64.792 127.388 62.6466 129.531C60.5011 131.674 56.1933 123.446 54.1157 128.627C52.0381 133.809 60.7386 128.627 59.0044 132.706C57.2703 136.785 52.8479 131.732 51.5759 134.885C50.3039 138.037 57.9063 133.31 57.0328 137.433C56.1594 141.556 49.8248 138.756 48.0864 141.508C48.3396 139.231 48.7175 136.971 49.2185 134.739C49.2185 134.739 50.0665 121.417 51.2367 118.401C52.407 115.385 54.8492 103.686 54.8492 103.686L75.7821 101.111L84.8811 105.962C84.8811 105.962 92.7463 105.221 95.3624 106.429Z" fill="#FFC100"/>
<path opacity="0.2" d="M95.3624 106.429C93.1619 105.64 91.0334 114.014 89.0448 113.537C86.963 113.026 90.8426 106.539 88.7311 106.482C86.6195 106.425 86.2846 114.446 83.1767 114.486C80.0687 114.525 83.3378 109.635 80.3019 109.772C77.2661 109.908 82.1039 114.45 79.3691 116.752C76.6343 119.054 78.8603 108.925 75.3454 110.23C71.8304 111.535 78.0675 116.699 74.9214 119.049C71.7753 121.4 73.1279 112.907 69.6553 114.49C66.1827 116.073 74.2896 119.041 71.0121 121.81C67.7346 124.579 66.8399 114.56 62.5999 117.797C58.3599 121.034 69.7443 121.858 66.1658 125.294C62.5872 128.729 61.7265 118.467 58.432 122.476C55.1375 126.484 64.792 127.388 62.6466 129.531C60.5011 131.674 56.1933 123.446 54.1157 128.627C52.0381 133.809 60.7386 128.627 59.0044 132.706C57.2703 136.785 52.8479 131.732 51.5759 134.885C50.3039 138.037 57.9063 133.31 57.0328 137.433C56.1594 141.556 49.8248 138.756 48.0864 141.508C48.3396 139.231 48.7175 136.971 49.2185 134.739C49.2185 134.739 50.0665 121.417 51.2367 118.401C52.407 115.385 54.8492 103.686 54.8492 103.686L75.7821 101.111L84.8811 105.962C84.8811 105.962 92.7463 105.221 95.3624 106.429Z" fill="black"/>
<path d="M85.0424 99.453C83.6008 99.3295 82.2906 100.864 80.9932 101.08C80.107 103.629 78.2754 106.813 80.7388 107.254C84.3852 107.946 82.6171 99.8763 85.0424 99.453Z" fill="#FFC100"/>
<path d="M53.5347 125.739C54.1114 123.212 50.9611 122.97 49.5576 122.167C49.1619 123.608 48.6557 125.013 48.0439 126.369C49.8502 125.483 52.8479 128.759 53.5347 125.739Z" fill="#FFC100"/>
<path d="M84.0032 108.66C86.2165 109.732 87.1832 101.318 90.3293 103.082C88.9132 101.949 86.9373 103.378 86.3352 103.435C85.0124 105.653 82.7058 108.03 84.0032 108.66Z" fill="#FFC100"/>
<path d="M51.949 129.95C52.4027 127.904 50.1258 129.068 48.468 129.438C48.044 131.374 47.5013 134.73 48.769 135.484C47.4504 132.618 51.1858 133.394 51.949 129.95Z" fill="#FFC100"/>
<path d="M46.8521 128.543L46.8481 128.547H46.8521V128.543Z" fill="#FFC100"/>
<path d="M49.528 115.01C49.5854 116.915 49.4432 118.821 49.104 120.694C49.1796 120.556 49.2661 120.425 49.3626 120.302C51.6692 117.338 51.5929 124.592 54.6584 121.625C57.7239 118.657 48.7224 117.215 52.7038 114.86C56.6851 112.505 55.3495 121.197 59.6913 117.577C64.033 113.956 53.8274 112.955 57.1473 110.124C60.4672 107.293 60.2849 115.416 63.2232 113.237C66.1615 111.059 57.9444 107.165 62.2438 104.824C66.5431 102.482 64.2959 113.043 67.6879 110.887C71.0799 108.731 62.8289 103.748 67.459 102.205C72.089 100.661 67.6879 110.887 71.1562 108.85C74.6246 106.813 67.8109 99.6911 72.335 100.366C76.859 101.04 70.2658 107.752 75.1546 107.311C79.7295 106.91 75.2733 98.2844 79.1656 97.7773C77.4696 97.3584 75.1461 100.053 73.6027 99.9821C72.6614 99.1928 71.8601 98.6592 71.3258 98.5313C68.7055 97.9404 49.2058 103.461 49.2058 103.461L49.528 114.984V115.01Z" fill="#FFC100"/>
<path d="M95.6722 106.05C95.5849 105.997 95.4942 105.949 95.4009 105.909C95.4976 105.941 95.5891 105.989 95.6722 106.05Z" fill="#263238"/>
<path d="M47.001 127.847C47.8956 124.857 50.3082 126.832 51.9703 127.031C52.1343 127.805 52.1444 128.607 52 129.386C51.8346 127.194 45.7968 131.864 47.001 127.847Z" fill="#FFC100"/>
<path d="M53.3145 122.361C53.5507 123.328 53.645 124.327 53.5944 125.324C53.8318 122.088 47.1411 123.146 49.3544 120.302C51.2666 117.854 51.5464 122.379 53.3145 122.361Z" fill="#FFC100"/>
<path d="M55.0737 115.014C54.9847 116.337 54.8999 118.626 55.2306 119.966C54.5437 118.035 49.5447 116.725 52.6866 114.869C53.8441 114.194 54.5437 114.428 55.0737 115.014Z" fill="#FFC100"/>
<path d="M60.6155 115.248C59.6488 113.348 54.6795 112.254 57.126 110.155C59.0213 108.528 59.776 110.53 60.6367 112.1C60.2986 113.119 60.2912 114.225 60.6155 115.248Z" fill="#FFC100"/>
<path d="M66.4163 111.037C65.3025 110.585 64.1411 110.271 62.9564 110.102C61.6335 108.263 59.6026 106.261 62.2271 104.833C65.8184 102.875 64.8475 109.957 66.4163 111.037Z" fill="#FFC100"/>
<path d="M69.9015 108.841C69.2005 108.201 68.4358 107.641 67.6204 107.17C66.4205 105.172 64.7499 103.104 67.4466 102.204C71.1947 100.952 69.0239 107.417 69.9015 108.841Z" fill="#FFC100"/>
<path d="M74.5057 107.337C74.5057 107.337 73.6323 107.637 72.1695 106.874C72.1441 104.03 68.8072 99.8453 72.3306 100.366C76.6257 101.009 70.8975 107.099 74.5057 107.337Z" fill="#FFC100"/>
<path d="M80.1705 107.068H80.145C80.145 107.068 78.271 107.368 76.8633 106.389C78.5042 103.858 75.5658 97.2216 80.0772 97.8169C84.0755 98.3284 77.4696 105.631 80.1705 107.068Z" fill="#FFC100"/>
<path d="M84.0033 108.66L80.4629 107.192C80.5477 107.218 80.641 107.24 80.7385 107.262C84.8131 108.025 82.125 97.8434 86.0809 99.6425C90.0368 101.442 81.7942 107.589 84.0033 108.66Z" fill="#FFC100"/>
<path opacity="0.4" d="M47.001 127.847C47.8956 124.857 50.3082 126.832 51.9703 127.031C52.1343 127.805 52.1444 128.607 52 129.386C51.8346 127.194 45.7968 131.864 47.001 127.847Z" fill="black"/>
<path opacity="0.4" d="M53.3145 122.361C53.5507 123.328 53.645 124.327 53.5944 125.324C53.8318 122.088 47.1411 123.146 49.3544 120.302C51.2666 117.854 51.5464 122.379 53.3145 122.361Z" fill="black"/>
<path opacity="0.4" d="M55.0737 115.014C54.9847 116.337 54.8999 118.626 55.2306 119.966C54.5437 118.035 49.5447 116.725 52.6866 114.869C53.8441 114.194 54.5437 114.428 55.0737 115.014Z" fill="black"/>
<path opacity="0.4" d="M60.6155 115.248C59.6488 113.348 54.6795 112.254 57.126 110.155C59.0213 108.528 59.776 110.53 60.6367 112.1C60.2986 113.119 60.2912 114.225 60.6155 115.248Z" fill="black"/>
<path opacity="0.4" d="M66.4163 111.037C65.3025 110.585 64.1411 110.271 62.9564 110.102C61.6335 108.263 59.6026 106.261 62.2271 104.833C65.8184 102.875 64.8475 109.957 66.4163 111.037Z" fill="black"/>
<path opacity="0.4" d="M69.9015 108.841C69.2005 108.201 68.4358 107.641 67.6204 107.17C66.4205 105.172 64.7499 103.104 67.4466 102.204C71.1947 100.952 69.0239 107.417 69.9015 108.841Z" fill="black"/>
<path opacity="0.4" d="M74.5057 107.337C74.5057 107.337 73.6323 107.637 72.1695 106.874C72.1441 104.03 68.8072 99.8453 72.3306 100.366C76.6257 101.009 70.8975 107.099 74.5057 107.337Z" fill="black"/>
<path opacity="0.4" d="M80.1705 107.068H80.145C80.145 107.068 78.271 107.368 76.8633 106.389C78.5042 103.858 75.5658 97.2216 80.0772 97.8169C84.0755 98.3284 77.4696 105.631 80.1705 107.068Z" fill="black"/>
<path opacity="0.4" d="M84.0033 108.66L80.4629 107.192C80.5477 107.218 80.641 107.24 80.7385 107.262C84.8131 108.025 82.125 97.8434 86.0809 99.6425C90.0368 101.442 81.7942 107.589 84.0033 108.66Z" fill="black"/>
<path d="M57.1686 179.92H56.6132L56.4605 179.21L54.6373 180.065H50.0073C50.0073 180.065 49.2695 179.298 51.4743 178.685C51.5823 178.654 51.6874 178.613 51.7881 178.562C52.9625 177.989 54.6373 176.053 54.6373 176.053H57.1813C57.2592 176.175 57.33 176.301 57.3933 176.432C57.6605 177.014 58.1396 178.231 57.1686 179.92Z" fill="#263238"/>
<path d="M57.3849 176.432C57.0457 176.044 55.5235 177.755 54.4169 178.333C53.4205 178.849 52.2969 179.078 51.8008 178.553C52.9753 177.98 54.8239 175.466 54.8239 175.466H56.8676C56.8676 175.466 57.2619 176.185 57.3849 176.432Z" fill="#E4897B"/>
<path d="M112.916 121.938L113.281 122.379L112.857 122.969L114.689 123.821L117.767 127.414C117.767 127.414 117.703 128.499 115.795 127.194C115.702 127.128 115.603 127.073 115.498 127.031C114.307 126.502 111.805 126.488 111.805 126.488L110.109 124.517C110.147 124.376 110.192 124.238 110.245 124.103C110.512 123.485 111.059 122.304 112.916 121.938Z" fill="#263238"/>
<path d="M110.266 124.089C110.207 124.61 112.45 124.663 113.607 125.143C114.646 125.584 115.553 126.294 115.507 127.026C114.315 126.497 111.288 126.726 111.288 126.726L109.931 125.139C109.931 125.139 110.169 124.345 110.266 124.089Z" fill="#E4897B"/>
</g>
<defs>
<clipPath id="clip0_171_18168">
<rect width="210" height="210" fill="white"/>
</clipPath>
</defs>
</svg>
