<svg width="121" height="120" viewBox="0 0 121 120" fill="none" xmlns="http://www.w3.org/2000/svg">
<g clip-path="url(#clip0_896_18806)">
<path opacity="0.5" d="M120.5 108.857C120.5 108.891 82.7844 108.785 39.7085 108.785C-3.36737 108.785 0.942223 108.891 0.942223 108.857C0.942223 108.823 -3.38359 108.659 39.7085 108.659C82.8007 108.659 120.5 108.82 120.5 108.857Z" fill="#263238"/>
<path d="M121.072 93.9268H-0.0712891V93.9898H121.072V93.9268Z" fill="#EBEBEB"/>
<path d="M108.933 97.981H100.909V98.044H108.933V97.981Z" fill="#EBEBEB"/>
<path d="M80.1787 98.6665H78.0732V98.7295H80.1787V98.6665Z" fill="#EBEBEB"/>
<path d="M100.667 95.6426H96.0171V95.7056H100.667V95.6426Z" fill="#EBEBEB"/>
<path d="M23.1035 96.0659H12.6392V96.1289H23.1035V96.0659Z" fill="#EBEBEB"/>
<path d="M26.7959 96.0659H25.2622V96.1289H26.7959V96.0659Z" fill="#EBEBEB"/>
<path d="M54.4791 97.1294H31.7817V97.1924H54.4791V97.1294Z" fill="#EBEBEB"/>
<path d="M57.3505 82.6885H10.5676C10.2011 82.6878 9.84979 82.5359 9.59087 82.2662C9.33195 81.9964 9.18652 81.6308 9.18652 81.2497V12.8549C9.18971 12.4759 9.33655 12.1136 9.59512 11.8465C9.8537 11.5795 10.2031 11.4294 10.5676 11.4287H57.3505C57.7174 11.4287 58.0693 11.5803 58.3287 11.8501C58.5882 12.12 58.734 12.4859 58.734 12.8675V81.2497C58.734 81.6313 58.5882 81.9972 58.3287 82.2671C58.0693 82.5369 57.7174 82.6885 57.3505 82.6885ZM10.5676 11.4791C10.2171 11.4798 9.88127 11.625 9.6337 11.883C9.38614 12.1409 9.24709 12.4905 9.24709 12.8549V81.2497C9.24709 81.6141 9.38614 81.9637 9.6337 82.2216C9.88127 82.4796 10.2171 82.6248 10.5676 82.6255H57.3505C57.7012 82.6248 58.0373 82.4796 58.2852 82.2218C58.5332 81.9639 58.6727 81.6143 58.6734 81.2497V12.8549C58.6727 12.4902 58.5332 12.1407 58.2852 11.8828C58.0373 11.6249 57.7012 11.4798 57.3505 11.4791H10.5676Z" fill="#EBEBEB"/>
<path d="M109.759 82.6885H62.9738C62.6071 82.6878 62.2556 82.536 61.9962 82.2663C61.7369 81.9966 61.591 81.6311 61.5903 81.2497V12.8549C61.5942 12.4757 61.7415 12.1134 62.0005 11.8464C62.2595 11.5794 62.6091 11.4294 62.9738 11.4287H109.759C110.123 11.43 110.472 11.5805 110.73 11.8474C110.988 12.1144 111.135 12.4764 111.138 12.8549V81.2497C111.138 81.6304 110.993 81.9956 110.734 82.2653C110.476 82.535 110.125 82.6871 109.759 82.6885ZM62.9738 11.4791C62.6231 11.4798 62.287 11.6249 62.0391 11.8828C61.7911 12.1407 61.6515 12.4902 61.6509 12.8549V81.2497C61.6515 81.6143 61.7911 81.9639 62.0391 82.2218C62.287 82.4796 62.6231 82.6248 62.9738 82.6255H109.759C110.11 82.6248 110.446 82.4796 110.694 82.2218C110.942 81.9639 111.081 81.6143 111.082 81.2497V12.8549C111.081 12.4902 110.942 12.1407 110.694 11.8828C110.446 11.6249 110.11 11.4798 109.759 11.4791H62.9738Z" fill="#EBEBEB"/>
<path d="M81.6057 92.0645L54.4963 25.6704H36.9863L80.4597 92.4626L81.6057 92.0645Z" fill="#F5F5F5"/>
<path d="M84.0139 93.7806H76.9028L78.1143 91.1475H82.8025L84.0139 93.7806Z" fill="#E0E0E0"/>
<path d="M39.397 92.0645L66.5039 25.6704H84.0139L40.543 92.4626L39.397 92.0645Z" fill="#F5F5F5"/>
<path d="M36.9863 93.7806H44.0974L42.886 91.1475H38.1978L36.9863 93.7806Z" fill="#E0E0E0"/>
<path d="M101.398 27.4673V93.7808H95.8473C95.8473 93.7808 96.0896 69.6386 99.4646 60.7715C99.4646 60.7715 85.5332 48.9108 80.6196 26.9004L101.398 27.4673Z" fill="#E6E6E6"/>
<path d="M84.3359 27.4673C84.3359 27.4673 87.5947 43.9467 96.1498 52.3603C96.1498 52.3603 88.2077 41.3261 87.2458 27.8075L84.3359 27.4673Z" fill="#E0E0E0"/>
<path d="M92.4409 27.8076C92.4409 27.8076 94.4277 40.6586 97.9117 46.9001C97.9117 46.9001 94.1708 34.6111 94.8323 27.9109L92.4409 27.8076Z" fill="#E0E0E0"/>
<path d="M19.6021 27.4673V93.7808H25.1528C25.1528 93.7808 24.9105 69.6386 21.5355 60.7715C21.5355 60.7715 35.4669 48.9108 40.3805 26.9004L19.6021 27.4673Z" fill="#E6E6E6"/>
<path d="M36.6639 27.4673C36.6639 27.4673 33.4052 43.9467 24.8501 52.3603C24.8501 52.3603 32.7922 41.3261 33.7541 27.8075L36.6639 27.4673Z" fill="#E0E0E0"/>
<path d="M28.5597 27.8076C28.5597 27.8076 26.5729 40.6586 23.0889 46.9001C23.0889 46.9001 26.8298 34.6111 26.1683 27.9109L28.5597 27.8076Z" fill="#E0E0E0"/>
<path d="M101.73 24.04H19.2729C18.8474 24.04 18.5024 24.3988 18.5024 24.8413V27.8651C18.5024 28.3076 18.8474 28.6664 19.2729 28.6664H101.73C102.156 28.6664 102.5 28.3076 102.5 27.8651V24.8413C102.5 24.3988 102.156 24.04 101.73 24.04Z" fill="#F0F0F0"/>
<path d="M60.5002 105.306C86.4448 105.306 107.477 104.029 107.477 102.454C107.477 100.879 86.4448 99.6016 60.5002 99.6016C34.5557 99.6016 13.5234 100.879 13.5234 102.454C13.5234 104.029 34.5557 105.306 60.5002 105.306Z" fill="#F5F5F5"/>
<path d="M108.039 101.229H90.4976L93.766 91.1426H102.009L107.375 95.0306L108.039 101.229Z" fill="#263238"/>
<path opacity="0.3" d="M108.039 101.229H90.4976L93.766 91.1426H102.009L107.375 95.0306L108.039 101.229Z" fill="white"/>
<path opacity="0.2" d="M102.009 91.1426L99.9007 101.229H90.4976L93.766 91.1426H102.009Z" fill="white"/>
<path d="M99.0326 97.0303C99.652 94.9775 98.9989 92.9364 97.5741 92.4715C96.1493 92.0065 94.4922 93.2937 93.8728 95.3465C93.2535 97.3993 93.9065 99.4404 95.3314 99.9053C96.7562 100.37 98.4133 99.0831 99.0326 97.0303Z" fill="#263238"/>
<path opacity="0.2" d="M99.0326 97.0303C99.652 94.9775 98.9989 92.9364 97.5741 92.4715C96.1493 92.0065 94.4922 93.2937 93.8728 95.3465C93.2535 97.3993 93.9065 99.4404 95.3314 99.9053C96.7562 100.37 98.4133 99.0831 99.0326 97.0303Z" fill="white"/>
<path opacity="0.2" d="M96.1309 98.6314C96.9959 98.9136 98.0038 98.1275 98.3794 96.8827C98.7549 95.6379 98.36 94.3957 97.4926 94.1109C96.6252 93.8262 95.6221 94.6149 95.2442 95.8571C94.8662 97.0994 95.266 98.3467 96.1309 98.6314ZM95.4453 95.9252C95.7724 94.8366 96.6567 94.1613 97.4078 94.4007C98.1589 94.6401 98.5078 95.7286 98.1807 96.8172C97.8536 97.9057 96.9693 98.581 96.2182 98.3442C95.4671 98.1073 95.1158 97.0137 95.4453 95.9252Z" fill="black"/>
<path opacity="0.2" d="M96.8577 96.3636C96.9812 95.9554 97.3107 95.6983 97.5845 95.7916C97.8583 95.8848 97.9988 96.2955 97.8753 96.6987C97.7517 97.1019 97.4222 97.3639 97.1484 97.2707C96.8746 97.1775 96.7365 96.7718 96.8577 96.3636Z" fill="black"/>
<path d="M12.9614 101.229H30.5029L27.2345 91.1426H18.9919L13.6253 95.0306L12.9614 101.229Z" fill="#263238"/>
<path opacity="0.3" d="M12.9614 101.229H30.5029L27.2345 91.1426H18.9919L13.6253 95.0306L12.9614 101.229Z" fill="white"/>
<path opacity="0.2" d="M18.9917 91.1426L21.102 101.229H30.5027L27.2343 91.1426H18.9917Z" fill="white"/>
<path d="M25.6718 99.8996C27.0966 99.4347 27.7496 97.3936 27.1303 95.3408C26.511 93.288 24.8539 92.0008 23.429 92.4658C22.0042 92.9307 21.3512 94.9717 21.9705 97.0245C22.5898 99.0774 24.2469 100.365 25.6718 99.8996Z" fill="#263238"/>
<path opacity="0.2" d="M25.6718 99.8996C27.0966 99.4347 27.7496 97.3936 27.1303 95.3408C26.511 93.288 24.8539 92.0008 23.429 92.4658C22.0042 92.9307 21.3512 94.9717 21.9705 97.0245C22.5898 99.0774 24.2469 100.365 25.6718 99.8996Z" fill="white"/>
<path opacity="0.2" d="M25.7567 95.8595C25.3788 94.6122 24.3733 93.8311 23.5083 94.1133C22.6434 94.3955 22.246 95.6252 22.6216 96.8851C22.9971 98.145 24.005 98.916 24.87 98.6338C25.7349 98.3516 26.1323 97.1018 25.7567 95.8595ZM24.7876 98.344C24.0317 98.596 23.1546 97.9056 22.8251 96.8171C22.4956 95.7285 22.8445 94.6475 23.598 94.4006C24.3515 94.1536 25.2334 94.8365 25.5605 95.925C25.8876 97.0136 25.5387 98.1097 24.7828 98.344H24.7876Z" fill="black"/>
<path opacity="0.2" d="M24.1429 96.3636C24.0193 95.9554 23.6898 95.6983 23.416 95.7916C23.1422 95.8848 23.0017 96.2955 23.1253 96.6987C23.2488 97.1019 23.5784 97.3639 23.8521 97.2707C24.1259 97.1775 24.264 96.7718 24.1429 96.3636Z" fill="black"/>
<path d="M97.6258 74.3027C96.5985 74.3027 95.329 74.0885 94.2774 73.2646C92.8746 72.1609 92.1647 70.2408 92.1671 67.5245C92.1671 63.4651 90.3694 59.5241 87.2221 56.7095C83.8301 53.6858 77.3271 50.4579 65.6054 52.3276C59.1315 53.3582 55.2985 53.0709 53.1785 51.3928C51.1482 49.7876 50.8405 47.0814 50.448 43.652C50.2057 41.4093 49.9028 38.8643 49.0572 36.1959C48.2989 33.7945 46.5108 32.0785 43.7439 31.1009C41.5221 30.3147 38.6559 29.9972 35.2639 30.1585C31.4362 30.3882 27.6406 31.0188 23.9346 32.0407C23.9192 32.0454 23.9026 32.0435 23.8885 32.0355C23.8745 32.0275 23.864 32.0139 23.8595 31.9979C23.8569 31.99 23.856 31.9816 23.8567 31.9732C23.8574 31.9649 23.8597 31.9568 23.8636 31.9494C23.8675 31.9421 23.8728 31.9357 23.8792 31.9306C23.8856 31.9255 23.8929 31.9218 23.9007 31.9198C27.6154 30.8952 31.4199 30.2629 35.2566 30.0325C38.6777 29.8712 41.5561 30.1887 43.7827 30.9799C46.5908 31.9727 48.4031 33.7139 49.176 36.1556C50.024 38.8417 50.3147 41.3892 50.5715 43.6368C50.9592 47.036 51.2645 49.7196 53.2536 51.2945C55.347 52.95 59.1509 53.2297 65.5884 52.2016C77.3562 50.3269 83.8907 53.5673 87.302 56.6138C90.476 59.4536 92.2955 63.4298 92.2907 67.5245C92.2907 70.1879 92.9812 72.0853 94.3525 73.1638C96.4604 74.8193 99.4769 73.9499 99.5084 73.9399C99.5241 73.9352 99.541 73.9372 99.5553 73.9455C99.5696 73.9538 99.5802 73.9676 99.5847 73.984C99.5892 74.0003 99.5873 74.0179 99.5793 74.0328C99.5714 74.0477 99.5581 74.0587 99.5423 74.0633C98.9151 74.2233 98.2716 74.3037 97.6258 74.3027Z" fill="#263238"/>
<path d="M96.9401 76.054C95.9128 76.054 94.6432 75.8423 93.5942 75.0158C92.1889 73.9122 91.479 71.9921 91.4814 69.2757C91.4814 65.2164 89.6837 61.2754 86.5364 58.4633C83.1444 55.4396 76.6414 52.2092 64.9221 54.0789C58.4482 55.112 54.6152 54.8348 52.4928 53.1465C50.4649 51.5414 50.1547 48.8327 49.7647 45.4032C49.5078 43.1606 49.2171 40.6156 48.3739 37.9472C47.6132 35.5458 45.8251 33.8323 43.0582 32.8521C40.8364 32.066 37.9823 31.751 34.5782 31.9097C28.7633 32.1844 23.3046 33.7769 23.2489 33.792C23.2335 33.7967 23.2169 33.7948 23.2028 33.7868C23.1887 33.7787 23.1783 33.7652 23.1738 33.7492C23.1693 33.7331 23.1711 33.7159 23.1788 33.7012C23.1866 33.6866 23.1996 33.6757 23.215 33.6711C23.2707 33.6559 28.7512 32.0609 34.5709 31.7837C37.992 31.6225 40.8704 31.9425 43.0994 32.7337C45.9051 33.724 47.7198 35.4677 48.4902 37.9094C49.3382 40.5929 49.629 43.1404 49.8858 45.3881C50.2735 48.7873 50.5812 51.4734 52.5679 53.0458C54.6613 54.7013 58.4676 54.981 64.9051 53.9554C76.6705 52.0782 83.2074 55.3186 86.6187 58.3676C89.7927 61.2048 91.6098 65.171 91.605 69.2757C91.605 71.9392 92.2979 73.8366 93.6693 74.915C95.7747 76.5705 98.7936 75.7012 98.8227 75.6937C98.8381 75.689 98.8547 75.6909 98.8688 75.6989C98.8829 75.7069 98.8933 75.7205 98.8978 75.7365C98.9023 75.7525 98.9005 75.7698 98.8927 75.7844C98.885 75.7991 98.872 75.8099 98.8566 75.8146C98.2298 75.9766 97.586 76.057 96.9401 76.054Z" fill="#263238"/>
<path d="M96.2565 77.8075C95.2267 77.8075 93.9596 77.5933 92.9081 76.7694C91.5052 75.6657 90.7929 73.733 90.7978 71.0293C90.7978 66.9699 89 63.0289 85.8503 60.2143C82.4583 57.1906 75.9578 53.9627 64.236 55.8324C57.7621 56.863 53.9291 56.5757 51.8092 54.8975C49.7788 53.2924 49.4711 50.5837 49.0786 47.1567C48.8218 44.9141 48.5334 42.3691 47.6879 39.7007C46.9295 37.2968 45.1414 35.5833 42.3745 34.6031C40.1528 33.8169 37.2987 33.502 33.8945 33.6632C30.0661 33.8934 26.2697 34.524 22.5628 35.5455C22.5552 35.5478 22.5472 35.5484 22.5393 35.5473C22.5314 35.5462 22.5239 35.5435 22.5171 35.5392C22.5103 35.535 22.5043 35.5293 22.4997 35.5226C22.4951 35.5159 22.4918 35.5082 22.4902 35.5002C22.488 35.4924 22.4873 35.4842 22.4882 35.4762C22.4891 35.4681 22.4915 35.4604 22.4953 35.4533C22.4992 35.4462 22.5044 35.4401 22.5105 35.4351C22.5167 35.4302 22.5238 35.4266 22.5313 35.4246C26.2459 34.3994 30.0505 33.7671 33.8873 33.5373C37.3083 33.3735 40.1867 33.6935 42.4133 34.4847C45.219 35.4775 47.0337 37.2187 47.8066 39.6603C48.6546 42.3439 48.9453 44.894 49.2022 47.1416C49.5898 50.5408 49.8951 53.2244 51.8843 54.7968C53.9776 56.4523 57.7815 56.7345 64.219 55.7064C75.9868 53.8317 82.5213 57.0721 85.9327 60.1186C89.1066 62.9558 90.9262 66.922 90.9213 71.0293C90.9213 73.6927 91.6118 75.5901 92.9832 76.6686C95.0911 78.3241 98.1075 77.4547 98.139 77.4447C98.1468 77.4424 98.155 77.4418 98.163 77.4428C98.171 77.4439 98.1788 77.4466 98.1858 77.4508C98.1928 77.4551 98.1989 77.4607 98.2038 77.4674C98.2086 77.4742 98.2122 77.4818 98.2141 77.49C98.2163 77.4978 98.217 77.506 98.2161 77.514C98.2152 77.5221 98.2128 77.5298 98.2089 77.5369C98.2051 77.5439 98.1999 77.5501 98.1937 77.555C98.1876 77.56 98.1805 77.5636 98.1729 77.5656C97.5463 77.7287 96.9025 77.81 96.2565 77.8075Z" fill="#263238"/>
<path d="M95.571 79.5591C94.5437 79.5591 93.2741 79.3474 92.225 78.5209C90.8198 77.4172 90.1099 75.4972 90.1123 72.7808C90.1123 68.7214 88.3145 64.7805 85.1672 61.9684C81.7752 58.9446 75.2723 55.7143 63.5505 57.5839C57.079 58.6171 53.2461 58.3399 51.1237 56.6516C49.0957 55.0465 48.7856 52.3377 48.3955 48.9083C48.1387 46.6657 47.848 44.1207 47.0048 41.4522C46.244 39.0509 44.456 37.3349 41.6891 36.3572C39.4673 35.571 36.6011 35.2535 33.2091 35.4148C29.3816 35.6462 25.5861 36.2768 21.8798 37.2971C21.8721 37.2994 21.8641 37.3001 21.8562 37.2992C21.8483 37.2983 21.8407 37.2958 21.8337 37.2918C21.8267 37.2879 21.8206 37.2825 21.8156 37.2761C21.8106 37.2696 21.8069 37.2622 21.8047 37.2543C21.8024 37.2463 21.8017 37.238 21.8026 37.2298C21.8035 37.2215 21.8059 37.2136 21.8097 37.2063C21.8135 37.1991 21.8187 37.1927 21.8249 37.1875C21.8311 37.1823 21.8382 37.1785 21.8459 37.1761C21.9016 37.161 27.3821 35.566 33.2018 35.2888C36.6253 35.1275 39.5012 35.445 41.7302 36.2363C44.5359 37.2291 46.3506 38.9702 47.1211 41.4144C47.9691 44.098 48.2598 46.6455 48.5167 48.8932C48.9043 52.2924 49.212 54.9785 51.1988 56.5508C53.2921 58.2063 57.0984 58.486 63.536 57.4605C75.3014 55.5832 81.8382 58.8237 85.2472 61.8726C88.4236 64.7099 90.2407 68.6761 90.2358 72.7808C90.2358 75.4442 90.9264 77.3416 92.3001 78.4201C94.4056 80.0756 97.4245 79.2063 97.4535 79.1987C97.469 79.1941 97.4855 79.1959 97.4996 79.204C97.5137 79.212 97.5241 79.2255 97.5286 79.2416C97.5309 79.2495 97.5316 79.2578 97.5307 79.2661C97.5298 79.2743 97.5274 79.2822 97.5236 79.2895C97.5198 79.2968 97.5146 79.3032 97.5084 79.3083C97.5022 79.3135 97.4951 79.3174 97.4875 79.3197C96.8606 79.4817 96.2169 79.5621 95.571 79.5591Z" fill="#263238"/>
<path d="M94.8879 81.3099C93.8582 81.3099 92.591 81.0982 91.5395 80.2742C90.1367 79.1706 89.4243 77.2379 89.4292 74.5316C89.4292 70.4748 87.6314 66.5338 84.4817 63.7192C81.0897 60.6954 74.5892 57.4676 62.8674 59.3347C56.3935 60.3679 52.5606 60.0907 50.4406 58.4024C48.4102 56.7973 48.1025 54.0885 47.71 50.6591C47.4532 48.419 47.1649 45.8715 46.3193 43.2056C45.5609 40.8017 43.7729 39.0882 41.006 38.108C38.7818 37.3218 35.918 37.0069 32.526 37.1681C28.6974 37.3969 24.9009 38.0275 21.1942 39.0504C21.1866 39.0527 21.1786 39.0533 21.1707 39.0522C21.1629 39.0511 21.1553 39.0483 21.1485 39.0441C21.1417 39.0398 21.1358 39.0342 21.1311 39.0275C21.1265 39.0208 21.1232 39.0131 21.1216 39.0051C21.1193 38.9971 21.1186 38.9888 21.1195 38.9806C21.1204 38.9723 21.1228 38.9644 21.1266 38.9571C21.1304 38.9499 21.1356 38.9435 21.1418 38.9383C21.148 38.9331 21.1551 38.9293 21.1628 38.9269C24.8778 37.9047 28.6822 37.2733 32.5187 37.0421C35.9398 36.8783 38.8181 37.1984 41.0447 37.9896C43.8504 38.9824 45.6651 40.7236 46.438 43.1652C47.286 45.8488 47.5767 48.3963 47.8336 50.6465C48.2212 54.0457 48.5265 56.7293 50.5157 58.3016C52.609 59.9571 56.4129 60.2394 62.8504 59.2113C74.6183 57.3366 81.1527 60.5745 84.5641 63.6234C87.738 66.4607 89.5576 70.4269 89.5527 74.5316C89.5527 77.1976 90.2433 79.095 91.6146 80.1709C93.7201 81.8264 96.7389 80.9596 96.7704 80.9495C96.7781 80.9472 96.7861 80.9465 96.794 80.9474C96.8019 80.9483 96.8095 80.9508 96.8165 80.9548C96.8235 80.9588 96.8297 80.9641 96.8346 80.9706C96.8396 80.977 96.8433 80.9844 96.8456 80.9924C96.8494 81.0084 96.8473 81.0253 96.8397 81.0398C96.832 81.0543 96.8194 81.0653 96.8044 81.0705C96.1774 81.232 95.5337 81.3124 94.8879 81.3099Z" fill="#263238"/>
<g opacity="0.7">
<path d="M97.6258 74.3027C96.5985 74.3027 95.329 74.0885 94.2774 73.2646C92.8746 72.1609 92.1647 70.2408 92.1671 67.5245C92.1671 63.4651 90.3694 59.5241 87.2221 56.7095C83.8301 53.6858 77.3271 50.4579 65.6054 52.3276C59.1315 53.3582 55.2985 53.0709 53.1785 51.3928C51.1482 49.7876 50.8405 47.0814 50.448 43.652C50.2057 41.4093 49.9028 38.8643 49.0572 36.1959C48.2989 33.7945 46.5108 32.0785 43.7439 31.1009C41.5221 30.3147 38.6559 29.9972 35.2639 30.1585C31.4362 30.3882 27.6406 31.0188 23.9346 32.0407C23.9192 32.0454 23.9026 32.0435 23.8885 32.0355C23.8745 32.0275 23.864 32.0139 23.8595 31.9979C23.8569 31.99 23.856 31.9816 23.8567 31.9732C23.8574 31.9649 23.8597 31.9568 23.8636 31.9494C23.8675 31.9421 23.8728 31.9357 23.8792 31.9306C23.8856 31.9255 23.8929 31.9218 23.9007 31.9198C27.6154 30.8952 31.4199 30.2629 35.2566 30.0325C38.6777 29.8712 41.5561 30.1887 43.7827 30.9799C46.5908 31.9727 48.4031 33.7139 49.176 36.1556C50.024 38.8417 50.3147 41.3892 50.5715 43.6368C50.9592 47.036 51.2645 49.7196 53.2536 51.2945C55.347 52.95 59.1509 53.2297 65.5884 52.2016C77.3562 50.3269 83.8907 53.5673 87.302 56.6138C90.476 59.4536 92.2955 63.4298 92.2907 67.5245C92.2907 70.1879 92.9812 72.0853 94.3525 73.1638C96.4604 74.8193 99.4769 73.9499 99.5084 73.9399C99.5241 73.9352 99.541 73.9372 99.5553 73.9455C99.5696 73.9538 99.5802 73.9676 99.5847 73.984C99.5892 74.0003 99.5873 74.0179 99.5793 74.0328C99.5714 74.0477 99.5581 74.0587 99.5423 74.0633C98.9151 74.2233 98.2716 74.3037 97.6258 74.3027Z" fill="white"/>
<path d="M96.9401 76.054C95.9128 76.054 94.6432 75.8423 93.5942 75.0158C92.1889 73.9122 91.479 71.9921 91.4814 69.2758C91.4814 65.2164 89.6837 61.2754 86.5364 58.4633C83.1444 55.4396 76.6414 52.2092 64.9221 54.0789C58.4482 55.112 54.6152 54.8348 52.4928 53.1466C50.4649 51.5414 50.1547 48.8327 49.7647 45.4032C49.5078 43.1606 49.2171 40.6156 48.3739 37.9472C47.6132 35.5458 45.8251 33.8323 43.0582 32.8521C40.8364 32.066 37.9823 31.751 34.5782 31.9097C28.7633 32.1844 23.3046 33.7769 23.2489 33.792C23.2335 33.7967 23.2169 33.7948 23.2028 33.7868C23.1887 33.7787 23.1783 33.7652 23.1738 33.7492C23.1693 33.7331 23.1711 33.7159 23.1788 33.7012C23.1866 33.6866 23.1996 33.6757 23.215 33.6711C23.2707 33.6559 28.7512 32.0609 34.5709 31.7837C37.992 31.6225 40.8704 31.9425 43.0994 32.7337C45.9051 33.724 47.7198 35.4677 48.4902 37.9094C49.3382 40.5929 49.629 43.1405 49.8858 45.3881C50.2735 48.7873 50.5812 51.4734 52.5679 53.0458C54.6613 54.7013 58.4676 54.981 64.9051 53.9554C76.6705 52.0782 83.2074 55.3186 86.6187 58.3676C89.7927 61.2049 91.6098 65.171 91.605 69.2758C91.605 71.9392 92.2979 73.8366 93.6693 74.9151C95.7747 76.5706 98.7936 75.7012 98.8227 75.6937C98.8381 75.689 98.8547 75.6909 98.8688 75.6989C98.8829 75.7069 98.8933 75.7205 98.8978 75.7365C98.9023 75.7525 98.9005 75.7698 98.8927 75.7844C98.885 75.7991 98.872 75.8099 98.8566 75.8146C98.2298 75.9766 97.586 76.057 96.9401 76.054Z" fill="white"/>
<path d="M96.2565 77.808C95.2267 77.808 93.9596 77.5938 92.9081 76.7698C91.5052 75.6662 90.7929 73.7335 90.7978 71.0298C90.7978 66.9704 89 63.0294 85.8503 60.2148C82.4583 57.191 75.9578 53.9632 64.236 55.8329C57.7621 56.8635 53.9291 56.5762 51.8092 54.898C49.7788 53.2929 49.4711 50.5841 49.0786 47.1572C48.8218 44.9146 48.5334 42.3696 47.6879 39.7012C46.9295 37.2973 45.1414 35.5838 42.3745 34.6036C40.1528 33.8174 37.2987 33.5025 33.8945 33.6637C30.0661 33.8939 26.2697 34.5245 22.5628 35.546C22.5552 35.5483 22.5472 35.5489 22.5393 35.5478C22.5314 35.5467 22.5239 35.5439 22.5171 35.5397C22.5103 35.5354 22.5043 35.5298 22.4997 35.5231C22.4951 35.5164 22.4918 35.5087 22.4902 35.5007C22.488 35.4929 22.4873 35.4847 22.4882 35.4767C22.4891 35.4686 22.4915 35.4608 22.4953 35.4538C22.4992 35.4467 22.5044 35.4406 22.5105 35.4356C22.5167 35.4307 22.5238 35.4271 22.5313 35.4251C26.2459 34.3999 30.0505 33.7676 33.8873 33.5377C37.3083 33.374 40.1867 33.694 42.4133 34.4852C45.219 35.478 47.0337 37.2192 47.8066 39.6608C48.6546 42.3444 48.9453 44.8945 49.2022 47.1421C49.5898 50.5413 49.8951 53.2249 51.8843 54.7972C53.9776 56.4527 57.7815 56.735 64.219 55.7069C75.9868 53.8322 82.5213 57.0726 85.9327 60.119C89.1066 62.9563 90.9262 66.9225 90.9213 71.0298C90.9213 73.6932 91.6118 75.5906 92.9832 76.6691C95.0911 78.3246 98.1075 77.4552 98.139 77.4451C98.1468 77.4429 98.155 77.4423 98.163 77.4433C98.171 77.4444 98.1788 77.4471 98.1858 77.4513C98.1928 77.4556 98.1989 77.4612 98.2038 77.4679C98.2086 77.4747 98.2122 77.4823 98.2141 77.4905C98.2163 77.4983 98.217 77.5064 98.2161 77.5145C98.2152 77.5225 98.2128 77.5303 98.2089 77.5374C98.2051 77.5444 98.1999 77.5506 98.1937 77.5555C98.1876 77.5605 98.1805 77.5641 98.1729 77.5661C97.5463 77.7292 96.9025 77.8105 96.2565 77.808Z" fill="white"/>
<path d="M95.571 79.5591C94.5437 79.5591 93.2741 79.3474 92.225 78.5209C90.8198 77.4172 90.1099 75.4972 90.1123 72.7808C90.1123 68.7214 88.3145 64.7805 85.1672 61.9684C81.7752 58.9446 75.2723 55.7143 63.5505 57.5839C57.079 58.6171 53.2461 58.3399 51.1237 56.6516C49.0957 55.0465 48.7856 52.3377 48.3955 48.9083C48.1387 46.6657 47.848 44.1207 47.0048 41.4522C46.244 39.0509 44.456 37.3349 41.6891 36.3572C39.4673 35.571 36.6011 35.2535 33.2091 35.4148C29.3816 35.6462 25.5861 36.2768 21.8798 37.2971C21.8721 37.2994 21.8641 37.3001 21.8562 37.2992C21.8483 37.2983 21.8407 37.2958 21.8337 37.2918C21.8267 37.2879 21.8206 37.2825 21.8156 37.2761C21.8106 37.2696 21.8069 37.2622 21.8047 37.2543C21.8024 37.2463 21.8017 37.238 21.8026 37.2298C21.8035 37.2215 21.8059 37.2136 21.8097 37.2063C21.8135 37.1991 21.8187 37.1927 21.8249 37.1875C21.8311 37.1823 21.8382 37.1785 21.8459 37.1761C21.9016 37.161 27.3821 35.566 33.2018 35.2888C36.6253 35.1275 39.5012 35.445 41.7302 36.2363C44.5359 37.2291 46.3506 38.9702 47.1211 41.4144C47.9691 44.098 48.2598 46.6455 48.5167 48.8932C48.9043 52.2924 49.212 54.9785 51.1988 56.5508C53.2921 58.2063 57.0984 58.486 63.536 57.4605C75.3014 55.5832 81.8382 58.8237 85.2472 61.8726C88.4236 64.7099 90.2407 68.6761 90.2358 72.7808C90.2358 75.4442 90.9264 77.3416 92.3001 78.4201C94.4056 80.0756 97.4245 79.2063 97.4535 79.1987C97.469 79.1941 97.4855 79.1959 97.4996 79.204C97.5137 79.212 97.5241 79.2255 97.5286 79.2416C97.5309 79.2495 97.5316 79.2578 97.5307 79.2661C97.5298 79.2743 97.5274 79.2822 97.5236 79.2895C97.5198 79.2967 97.5146 79.3032 97.5084 79.3083C97.5022 79.3135 97.4951 79.3174 97.4875 79.3197C96.8606 79.4817 96.2169 79.5621 95.571 79.5591Z" fill="white"/>
<path d="M94.8879 81.3104C93.8582 81.3104 92.591 81.0987 91.5395 80.2747C90.1367 79.1711 89.4243 77.2384 89.4292 74.5321C89.4292 70.4752 87.6314 66.5343 84.4817 63.7197C81.0897 60.6959 74.5892 57.4681 62.8674 59.3352C56.3935 60.3684 52.5606 60.0912 50.4406 58.4029C48.4102 56.7978 48.1025 54.089 47.71 50.6596C47.4532 48.4195 47.1649 45.872 46.3193 43.206C45.5609 40.8022 43.7729 39.0887 41.006 38.1085C38.7818 37.3223 35.918 37.0073 32.526 37.1686C28.6974 37.3973 24.9009 38.028 21.1942 39.0509C21.1866 39.0532 21.1786 39.0538 21.1707 39.0527C21.1629 39.0516 21.1553 39.0488 21.1485 39.0446C21.1417 39.0403 21.1358 39.0347 21.1311 39.028C21.1265 39.0212 21.1232 39.0136 21.1216 39.0055C21.1193 38.9976 21.1186 38.9893 21.1195 38.9811C21.1204 38.9728 21.1228 38.9649 21.1266 38.9576C21.1304 38.9504 21.1356 38.944 21.1418 38.9388C21.148 38.9336 21.1551 38.9297 21.1628 38.9274C24.8778 37.9052 28.6822 37.2738 32.5187 37.0426C35.9398 36.8788 38.8181 37.1989 41.0447 37.9901C43.8504 38.9829 45.6651 40.724 46.438 43.1657C47.286 45.8493 47.5767 48.3968 47.8336 50.647C48.2212 54.0462 48.5265 56.7298 50.5157 58.3021C52.609 59.9576 56.4129 60.2398 62.8504 59.2118C74.6183 57.337 81.1527 60.575 84.5641 63.6239C87.738 66.4612 89.5576 70.4274 89.5527 74.5321C89.5527 77.1981 90.2433 79.0955 91.6146 80.1714C93.7201 81.8269 96.7389 80.9601 96.7704 80.95C96.7781 80.9477 96.7861 80.947 96.794 80.9479C96.8019 80.9488 96.8095 80.9513 96.8165 80.9553C96.8235 80.9592 96.8297 80.9646 96.8346 80.9711C96.8396 80.9775 96.8433 80.9849 96.8456 80.9929C96.8494 81.0089 96.8473 81.0258 96.8397 81.0403C96.832 81.0548 96.8194 81.0658 96.8044 81.071C96.1774 81.2325 95.5337 81.3129 94.8879 81.3104Z" fill="white"/>
</g>
<path d="M89.8168 76.1873C89.7392 76.3914 89.3952 76.4392 89.0536 76.3007C88.712 76.1621 88.4939 75.8773 88.569 75.6732C88.6441 75.4691 88.9882 75.4213 89.3322 75.5598C89.6763 75.6984 89.887 75.9756 89.8168 76.1873Z" fill="#FFD000"/>
<path d="M91.05 80.5667C90.9701 80.7708 90.6285 80.8186 90.2844 80.68C89.9404 80.5415 89.7272 80.2567 89.7998 80.0526C89.8725 79.8485 90.219 79.8006 90.563 79.9392C90.9071 80.0778 91.1276 80.3626 91.05 80.5667Z" fill="#FFD000"/>
<path d="M89.8095 76.18L90.5218 72.7859L91.5297 76.9864L90.844 80.4813L91.0475 80.567L91.9391 75.787L90.8028 70.6592L89.6665 76.0339L89.8095 76.18Z" fill="#FFD000"/>
<path d="M50.581 39.4435L49.1127 32.8467L47.705 39.5015C47.5721 39.3463 47.4062 39.2255 47.2205 39.1487C46.7771 38.9673 46.3385 39.0328 46.2368 39.2948C46.135 39.5569 46.4137 39.9197 46.857 40.1037C47.3004 40.2876 47.7414 40.2196 47.8407 39.9575L48.759 35.5857L50.0576 40.9957L49.2557 45.0904C49.13 44.9649 48.9818 44.8664 48.8195 44.8006C48.3762 44.6192 47.9352 44.6847 47.8359 44.9467C47.7365 45.2088 48.0127 45.5716 48.4537 45.7531C48.8947 45.9345 49.338 45.8715 49.4374 45.6094C49.4506 45.5749 49.458 45.5382 49.4592 45.5011L50.581 39.4435Z" fill="#FFD000"/>
<path d="M74.7781 50.2031L69.644 51.211V57.4022C69.4284 57.3742 69.2096 57.4055 69.0092 57.4929C68.5683 57.6768 68.2824 58.0372 68.3914 58.3017C68.5004 58.5663 68.9317 58.6293 69.3727 58.4454C69.8136 58.2614 70.0995 57.9011 69.9929 57.639V54.0483L74.4364 53.1135V56.3892C74.2187 56.3575 73.9967 56.388 73.7944 56.4774C73.351 56.6614 73.0675 57.0217 73.1741 57.2863C73.2807 57.5508 73.7144 57.6138 74.1578 57.4324C74.6012 57.251 74.8847 56.8856 74.7781 56.6236V50.2031ZM69.9929 53.6174V53.0051L74.4364 51.9972V52.6876L69.9929 53.6174Z" fill="#FFD000"/>
<path d="M52.2479 50.6694L51.395 58.3246C51.1863 58.2148 50.9516 58.1701 50.719 58.1961C50.2345 58.2389 49.8783 58.501 49.9025 58.7832C49.9268 59.0654 50.329 59.2594 50.8038 59.2191C51.2787 59.1788 51.6446 58.9142 51.6203 58.632L52.3181 52.5316C52.3181 52.5316 52.5604 53.6352 52.9408 54.0586C53.3212 54.4819 53.2437 55.2781 53.2437 55.2781C53.2437 55.2781 53.6798 53.8217 53.1637 53.3354C52.6476 52.8491 52.2479 50.6694 52.2479 50.6694Z" fill="#FFD000"/>
<path d="M91.4787 60.0608C91.0402 59.4989 90.9603 57.2891 90.9603 57.2891L89.0026 64.7225C88.8132 64.5792 88.5872 64.4976 88.3533 64.4881C87.8687 64.4554 87.4786 64.6569 87.4592 64.9392C87.4398 65.2214 87.813 65.4784 88.2878 65.5112C88.7627 65.5439 89.1625 65.3423 89.1819 65.0601L90.7592 59.1411C90.7592 59.1411 90.8367 60.2675 91.1541 60.7487C91.4715 61.23 91.2728 62.0086 91.2728 62.0086C91.2728 62.0086 91.9173 60.6152 91.4787 60.0608Z" fill="#FFD000"/>
<path d="M61.3217 52.1764C60.9002 51.8111 60.5949 51.1509 60.3744 50.5915L60.3308 49.77C60.3308 49.77 60.7548 50.8561 61.2103 51.2819C61.6658 51.7078 61.7118 52.4763 61.7118 52.4763C61.7118 52.4763 61.9056 51.04 61.3096 50.5613C60.7136 50.0825 59.9456 47.9331 59.9456 47.9331L60.372 55.4799C60.1559 55.3717 59.9151 55.3281 59.6766 55.3539C59.209 55.3942 58.8868 55.6512 58.9498 55.9309C59.0128 56.2106 59.4537 56.3996 59.9189 56.3593C60.3841 56.319 60.7112 56.0594 60.6458 55.7823L60.4277 51.7103C60.6151 52.1516 60.8815 52.5518 61.2127 52.8895C61.4861 53.2329 61.6608 53.6495 61.7167 54.0915C61.7167 54.0915 61.9008 52.6779 61.3217 52.1764Z" fill="#FFD000"/>
<path d="M81.4194 55.8223L80.3848 63.3035C80.1938 63.1532 79.9666 63.0608 79.7282 63.0364C79.2606 62.9785 78.8947 63.1649 78.9117 63.4522C78.9287 63.7395 79.3163 64.0166 79.7815 64.0746C80.2467 64.1325 80.615 63.9461 80.6004 63.6588L81.1698 59.6272C81.2682 60.0984 81.4524 60.5458 81.7125 60.945C81.9133 61.3387 82.004 61.783 81.9742 62.2276C81.9742 62.2276 82.42 60.8795 81.9475 60.2672C81.6035 59.8237 81.4218 59.1081 81.3273 58.5184L81.4412 57.702C81.4412 57.702 81.6471 58.8561 82.013 59.3601C82.3788 59.864 82.2771 60.6452 82.2771 60.6452C82.2771 60.6452 82.7422 59.2769 82.2504 58.6822C81.7586 58.0876 81.4194 55.8223 81.4194 55.8223Z" fill="#FFD000"/>
<path d="M42.3286 27.6234C42.2269 27.1674 41.9361 26.9255 41.5557 26.9784C40.8555 27.0716 40.4606 28.7775 39.9591 32.3254C39.566 32.7221 39.0971 33.0286 38.5829 33.2249C37.1776 33.7289 36.4169 34.7066 36.5477 35.8203C36.6302 36.3481 36.882 36.8313 37.262 37.1913C37.6421 37.5514 38.1281 37.7671 38.641 37.8034C38.824 37.8197 39.008 37.8197 39.191 37.8034C39.0021 38.9625 38.847 39.7361 38.6144 40.0158C38.5519 40.0804 38.4714 40.1228 38.3843 40.1368C38.2973 40.1508 38.2082 40.1358 38.1298 40.0939C38.0633 40.0688 38.0033 40.028 37.9545 39.9747C37.9057 39.9215 37.8694 39.8571 37.8485 39.7868C37.8276 39.7165 37.8227 39.6421 37.8341 39.5695C37.8455 39.4968 37.8729 39.428 37.9142 39.3682C37.9142 39.3682 38.297 39.5673 38.4424 38.9373C38.5877 38.3074 37.7688 38.2015 37.3884 39.2145C36.8724 40.6029 38.4424 41.3614 39.1692 40.0259C39.3946 39.6151 39.523 38.8567 39.7047 37.7177C40.9161 37.3977 41.6696 36.3293 41.7593 35.4928C41.8416 34.7242 41.4176 34.185 40.6544 34.0842C40.509 34.0647 40.3625 34.0546 40.2159 34.054C40.2789 33.5828 40.3467 33.0712 40.4194 32.5421C41.8198 31.0529 42.5709 28.7044 42.3286 27.6234ZM41.6163 27.4773H41.6575C41.7205 27.4773 41.8053 27.5101 41.8586 27.7293C42.0258 28.4676 41.5557 30.2491 40.5478 31.6299C40.8483 29.5536 41.2311 27.5554 41.6018 27.4773H41.6163ZM39.5181 35.581C39.2758 35.4676 39.1329 35.271 39.1717 35.077C39.2083 34.9674 39.2726 34.87 39.3579 34.7951C39.4431 34.7202 39.5462 34.6704 39.6562 34.6511C39.5932 34.946 39.5496 35.2609 39.506 35.581H39.5181ZM38.6944 34.9661C38.5999 35.4474 38.9076 35.9035 39.4479 36.0925C39.3897 36.4982 39.3316 36.9038 39.271 37.2919C39.0762 37.3147 38.8795 37.3147 38.6847 37.2919C38.2816 37.2664 37.8985 37.1004 37.5974 36.8205C37.2962 36.5407 37.0946 36.1635 37.025 35.7498C36.9257 34.888 37.5677 34.117 38.7404 33.6911C39.1406 33.5409 39.5158 33.3267 39.8525 33.0561C39.8064 33.3887 39.7604 33.7365 39.712 34.0968C39.099 34.2329 38.7622 34.5831 38.6944 34.9661ZM40.5866 34.5907C41.2505 34.6763 41.3013 35.1601 41.2699 35.4424C41.202 36.0773 40.6448 36.8459 39.7822 37.1634C39.8912 36.4377 40.0075 35.5784 40.1408 34.5655C40.2866 34.5613 40.4325 34.5697 40.5769 34.5907H40.5866Z" fill="#FFD000"/>
<g opacity="0.5">
<path d="M50.581 39.4435L49.1127 32.8467L47.705 39.5015C47.5721 39.3463 47.4062 39.2255 47.2205 39.1487C46.7771 38.9673 46.3385 39.0328 46.2368 39.2948C46.135 39.5569 46.4137 39.9197 46.857 40.1037C47.3004 40.2876 47.7414 40.2196 47.8407 39.9575L48.759 35.5857L50.0576 40.9957L49.2557 45.0904C49.13 44.9649 48.9818 44.8664 48.8195 44.8006C48.3762 44.6192 47.9352 44.6847 47.8359 44.9467C47.7365 45.2088 48.0127 45.5716 48.4537 45.7531C48.8947 45.9345 49.338 45.8715 49.4374 45.6094C49.4506 45.5749 49.458 45.5382 49.4592 45.5011L50.581 39.4435Z" fill="white"/>
<path d="M74.7781 50.2031L69.644 51.211V57.4022C69.4284 57.3742 69.2096 57.4055 69.0092 57.4929C68.5683 57.6768 68.2824 58.0372 68.3914 58.3017C68.5004 58.5663 68.9317 58.6293 69.3727 58.4454C69.8136 58.2614 70.0995 57.9011 69.9929 57.639V54.0483L74.4364 53.1135V56.3892C74.2187 56.3575 73.9967 56.388 73.7944 56.4774C73.351 56.6614 73.0675 57.0217 73.1741 57.2863C73.2807 57.5508 73.7144 57.6138 74.1578 57.4324C74.6012 57.251 74.8847 56.8856 74.7781 56.6236V50.2031ZM69.9929 53.6174V53.0051L74.4364 51.9972V52.6876L69.9929 53.6174Z" fill="white"/>
<path d="M52.2479 50.6694L51.395 58.3246C51.1863 58.2148 50.9516 58.1701 50.719 58.1961C50.2345 58.2389 49.8783 58.501 49.9025 58.7832C49.9268 59.0654 50.329 59.2594 50.8038 59.2191C51.2787 59.1788 51.6446 58.9142 51.6203 58.632L52.3181 52.5316C52.3181 52.5316 52.5604 53.6352 52.9408 54.0586C53.3212 54.4819 53.2437 55.2781 53.2437 55.2781C53.2437 55.2781 53.6798 53.8217 53.1637 53.3354C52.6476 52.8491 52.2479 50.6694 52.2479 50.6694Z" fill="white"/>
<path d="M91.4787 60.0608C91.0402 59.4989 90.9603 57.2891 90.9603 57.2891L89.0026 64.7225C88.8132 64.5792 88.5872 64.4976 88.3533 64.4881C87.8687 64.4554 87.4786 64.6569 87.4592 64.9392C87.4398 65.2214 87.813 65.4784 88.2878 65.5112C88.7627 65.5439 89.1625 65.3423 89.1819 65.0601L90.7592 59.1411C90.7592 59.1411 90.8367 60.2675 91.1541 60.7487C91.4715 61.23 91.2728 62.0086 91.2728 62.0086C91.2728 62.0086 91.9173 60.6152 91.4787 60.0608Z" fill="white"/>
<path d="M61.3217 52.1764C60.9002 51.8111 60.5949 51.1509 60.3744 50.5915L60.3308 49.77C60.3308 49.77 60.7548 50.8561 61.2103 51.2819C61.6658 51.7078 61.7118 52.4763 61.7118 52.4763C61.7118 52.4763 61.9056 51.04 61.3096 50.5613C60.7136 50.0825 59.9456 47.9331 59.9456 47.9331L60.372 55.4799C60.1559 55.3717 59.9151 55.3281 59.6766 55.3539C59.209 55.3942 58.8868 55.6512 58.9498 55.9309C59.0128 56.2106 59.4537 56.3996 59.9189 56.3593C60.3841 56.319 60.7112 56.0594 60.6458 55.7823L60.4277 51.7103C60.6151 52.1516 60.8815 52.5518 61.2127 52.8895C61.4861 53.2329 61.6608 53.6495 61.7167 54.0915C61.7167 54.0915 61.9008 52.6779 61.3217 52.1764Z" fill="white"/>
<path d="M81.4189 55.8223L80.3843 63.3035C80.1933 63.1532 79.9661 63.0608 79.7277 63.0364C79.2601 62.9785 78.8943 63.1649 78.9112 63.4522C78.9282 63.7395 79.3158 64.0166 79.781 64.0746C80.2462 64.1325 80.6145 63.9461 80.5999 63.6588L81.1693 59.6272C81.2677 60.0984 81.4519 60.5458 81.712 60.945C81.9128 61.3387 82.0035 61.783 81.9737 62.2276C81.9737 62.2276 82.4195 60.8795 81.947 60.2672C81.603 59.8237 81.4213 59.1081 81.3268 58.5184L81.4407 57.702C81.4407 57.702 81.6466 58.8561 82.0125 59.3601C82.3783 59.864 82.2766 60.6452 82.2766 60.6452C82.2766 60.6452 82.7417 59.2769 82.2499 58.6822C81.7581 58.0876 81.4189 55.8223 81.4189 55.8223Z" fill="white"/>
<path d="M42.3286 27.6234C42.2269 27.1674 41.9361 26.9255 41.5557 26.9784C40.8555 27.0716 40.4606 28.7775 39.9591 32.3254C39.566 32.7221 39.0971 33.0286 38.5829 33.2249C37.1776 33.7289 36.4169 34.7066 36.5477 35.8203C36.6302 36.3481 36.882 36.8313 37.262 37.1913C37.6421 37.5514 38.1281 37.7671 38.641 37.8034C38.824 37.8197 39.008 37.8197 39.191 37.8034C39.0021 38.9625 38.847 39.7361 38.6144 40.0158C38.5519 40.0804 38.4714 40.1228 38.3843 40.1368C38.2973 40.1508 38.2082 40.1358 38.1298 40.0939C38.0633 40.0688 38.0033 40.028 37.9545 39.9747C37.9057 39.9215 37.8694 39.8571 37.8485 39.7868C37.8276 39.7165 37.8227 39.6421 37.8341 39.5695C37.8455 39.4968 37.8729 39.428 37.9142 39.3682C37.9142 39.3682 38.297 39.5673 38.4424 38.9373C38.5877 38.3074 37.7688 38.2015 37.3884 39.2145C36.8724 40.6029 38.4424 41.3614 39.1692 40.0259C39.3946 39.6151 39.523 38.8567 39.7047 37.7177C40.9161 37.3977 41.6696 36.3293 41.7593 35.4928C41.8416 34.7242 41.4176 34.185 40.6544 34.0842C40.509 34.0647 40.3625 34.0546 40.2159 34.054C40.2789 33.5828 40.3467 33.0712 40.4194 32.5421C41.8198 31.0529 42.5709 28.7044 42.3286 27.6234ZM41.6163 27.4773H41.6575C41.7205 27.4773 41.8053 27.5101 41.8586 27.7293C42.0258 28.4676 41.5557 30.2491 40.5478 31.6299C40.8483 29.5536 41.2311 27.5554 41.6018 27.4773H41.6163ZM39.5181 35.581C39.2758 35.4676 39.1329 35.271 39.1717 35.077C39.2083 34.9674 39.2726 34.87 39.3579 34.7951C39.4431 34.7202 39.5462 34.6704 39.6562 34.6511C39.5932 34.946 39.5496 35.2609 39.506 35.581H39.5181ZM38.6944 34.9661C38.5999 35.4474 38.9076 35.9035 39.4479 36.0925C39.3897 36.4982 39.3316 36.9038 39.271 37.2919C39.0762 37.3147 38.8795 37.3147 38.6847 37.2919C38.2816 37.2664 37.8985 37.1004 37.5974 36.8205C37.2962 36.5407 37.0946 36.1635 37.025 35.7498C36.9257 34.888 37.5677 34.117 38.7404 33.6911C39.1406 33.5409 39.5158 33.3267 39.8525 33.0561C39.8064 33.3887 39.7604 33.7365 39.712 34.0968C39.099 34.2329 38.7622 34.5831 38.6944 34.9661ZM40.5866 34.5907C41.2505 34.6763 41.3013 35.1601 41.2699 35.4424C41.202 36.0773 40.6448 36.8459 39.7822 37.1634C39.8912 36.4377 40.0075 35.5784 40.1408 34.5655C40.2866 34.5613 40.4325 34.5697 40.5769 34.5907H40.5866Z" fill="white"/>
</g>
<path d="M88.6802 57.8306C88.6802 57.8306 89.7899 63.3339 88.0309 67.3302C86.2719 71.3266 78.354 63.2305 78.354 63.2305L80.6872 56.3062L88.6802 57.8306Z" fill="#263238"/>
<path d="M81.2372 45.8311C81.2372 45.8311 84.3021 44.5083 87.0521 44.8711C89.802 45.234 92.4381 47.9327 92.4381 47.9327C92.4381 47.9327 91.0086 57.1954 89.0291 58.2487C87.0497 59.302 80.5491 57.2131 80.5491 57.2131C80.5491 57.2131 78.3904 52.9798 81.2372 45.8311Z" fill="#FFD000"/>
<path opacity="0.7" d="M92.4331 47.9354C92.4331 47.9354 92.0915 50.1478 91.51 52.5366C90.9019 55.0312 90.0345 57.7097 89.0242 58.2489C88.6269 58.4307 88.1983 58.5267 87.7643 58.5312C85.1209 58.6823 80.5369 57.2133 80.5369 57.2133C80.5369 57.2133 78.3902 52.9801 81.2347 45.8314C81.2347 45.8314 84.302 44.5085 87.0495 44.8688C89.7971 45.2292 92.4331 47.9354 92.4331 47.9354Z" fill="white"/>
<path opacity="0.2" d="M91.5129 52.5366C90.9048 55.0312 90.0374 57.7097 89.0271 58.249C88.6298 58.4307 88.2012 58.5267 87.7672 58.5312C87.1655 57.7991 86.6356 57.0065 86.1851 56.1651L86.7326 51.8437L89.7709 53.0053C89.7591 52.4147 89.9345 51.8365 90.27 51.3599C90.7621 51.6529 91.1863 52.0545 91.5129 52.5366Z" fill="black"/>
<path d="M81.9981 45.6169C80.5928 45.7479 79.0906 48.8926 78.5479 48.749C78.0052 48.6054 76.8519 45.4909 76.1808 44.987L75.9385 44.0345L74.6931 43.8052L74.6665 45.4153C74.6665 45.4153 74.2231 46.2141 74.5599 47.8192C74.8967 49.4243 76.5297 53.5568 79.1924 53.8894C81.8551 54.222 83.8661 47.6655 83.8661 47.6655L81.9981 45.6169Z" fill="#FFD000"/>
<path opacity="0.7" d="M81.9981 45.6169C80.5928 45.7479 79.0906 48.8926 78.5479 48.749C78.0052 48.6054 76.8519 45.4909 76.1808 44.987L75.9385 44.0345L74.6931 43.8052L74.6665 45.4153C74.6665 45.4153 74.2231 46.2141 74.5599 47.8192C74.8967 49.4243 76.5297 53.5568 79.1924 53.8894C81.8551 54.222 83.8661 47.6655 83.8661 47.6655L81.9981 45.6169Z" fill="white"/>
<path d="M74.0099 98.772L72.3672 98.1496L73.2709 94.0298L74.916 94.6497L74.0099 98.772Z" fill="#E4897B"/>
<path d="M86.9794 101.043H85.2325L84.7383 96.8398H86.4827L86.9794 101.043Z" fill="#E4897B"/>
<path d="M85.0051 100.833H87.1324C87.1671 100.834 87.2008 100.846 87.228 100.868C87.2552 100.891 87.2745 100.922 87.2826 100.957L87.6412 102.57C87.652 102.608 87.6538 102.649 87.6466 102.688C87.6394 102.727 87.6232 102.764 87.5996 102.796C87.5759 102.827 87.5453 102.852 87.5104 102.869C87.4755 102.886 87.4373 102.894 87.3989 102.892C86.7156 102.88 86.2141 102.839 85.3516 102.839C84.821 102.839 83.2219 102.895 82.4902 102.895C81.7585 102.895 81.6543 102.139 81.9547 102.073C83.297 101.768 84.3049 101.348 84.7313 100.944C84.8068 100.874 84.904 100.835 85.0051 100.833Z" fill="#263238"/>
<path d="M72.3068 97.8022L74.1748 98.2205C74.2086 98.2283 74.2389 98.2477 74.2608 98.2756C74.2828 98.3035 74.2951 98.3382 74.2959 98.3742L74.3226 100.025C74.324 100.064 74.3164 100.104 74.3004 100.14C74.2843 100.176 74.2603 100.207 74.2304 100.232C74.2004 100.257 74.1652 100.273 74.1278 100.281C74.0903 100.289 74.0516 100.287 74.0149 100.277C73.3413 100.125 72.3722 99.8735 71.5315 99.6769C70.5405 99.4552 69.9275 99.2485 68.7645 98.989C68.0643 98.8328 68.0135 98.0516 68.3212 98.0516C69.7192 98.0516 70.5647 98.3313 71.8658 97.8501C72.0056 97.7917 72.1584 97.7751 72.3068 97.8022Z" fill="#263238"/>
<path opacity="0.2" d="M73.2713 94.0298L72.8062 96.154L74.4488 96.7764L74.9165 94.6522L73.2713 94.0298Z" fill="black"/>
<path opacity="0.2" d="M86.4827 96.8398H84.7383L84.9927 99.0069H86.7396L86.4827 96.8398Z" fill="black"/>
<path d="M72.3213 95.527L75.1076 96.5777C75.1076 96.5777 77.2881 86.6195 78.4366 81.0961C78.9519 78.9114 79.5853 76.7586 80.3337 74.648C81.39 71.5461 82.6524 68.2099 83.67 65.6019C84.7433 62.8553 85.5428 60.9176 85.5428 60.9176L79.5244 59.6577C79.5244 59.6577 74.921 73.4032 73.8986 78.8359C72.8252 84.4777 72.3213 95.527 72.3213 95.527Z" fill="#263238"/>
<path opacity="0.2" d="M80.334 74.6478C81.3904 71.5459 82.6527 68.2097 83.6703 65.6017L83.2051 64.105C81.4824 65.763 80.4067 71.4754 80.334 74.6478Z" fill="black"/>
<path d="M82.7711 60.333C82.7711 60.333 81.6978 76.0086 81.6323 81.333C81.5597 87.1638 84.1836 98.5885 84.1836 98.5885H87.3794C87.3794 98.5885 86.1025 88.28 86.5289 82.5021C87.0135 76.0414 88.6804 61.5879 88.6804 61.5879L82.7711 60.333Z" fill="#263238"/>
<path d="M83.8009 98.659H87.566L87.5539 97.4898L83.624 97.2529L83.8009 98.659Z" fill="#263238"/>
<path d="M71.9507 95.4915L75.2845 96.6935L75.648 95.5747L72.0016 94.1938L71.9507 95.4915Z" fill="#263238"/>
<path d="M84.4311 101.148C84.3123 101.158 84.1938 101.126 84.0943 101.057C84.0626 101.03 84.0378 100.994 84.0222 100.954C84.0065 100.914 84.0005 100.871 84.0047 100.828C84.0052 100.803 84.0119 100.779 84.0242 100.758C84.0366 100.737 84.0541 100.719 84.075 100.707C84.2664 100.604 84.8333 100.959 84.8987 101.005C84.9055 101.009 84.9107 101.016 84.914 101.024C84.9172 101.032 84.9182 101.04 84.917 101.049C84.9157 101.057 84.9122 101.065 84.9068 101.072C84.9014 101.078 84.8944 101.083 84.8866 101.085C84.7375 101.124 84.5847 101.145 84.4311 101.148ZM84.167 100.773C84.1486 100.772 84.1303 100.777 84.1137 100.785C84.1137 100.785 84.0895 100.8 84.0871 100.836C84.0844 100.865 84.0882 100.894 84.0983 100.921C84.1084 100.948 84.1245 100.972 84.1452 100.992C84.3407 101.084 84.5621 101.095 84.7655 101.025C84.5833 100.902 84.3802 100.816 84.167 100.773Z" fill="#FFD000"/>
<path d="M84.8766 101.085H84.8572C84.6755 100.982 84.3217 100.581 84.3581 100.382C84.3637 100.351 84.3796 100.323 84.4031 100.303C84.4265 100.283 84.456 100.271 84.4865 100.271C84.518 100.267 84.5501 100.27 84.5806 100.28C84.611 100.289 84.6392 100.305 84.6634 100.327C84.8693 100.498 84.9056 101.022 84.9056 101.045C84.9057 101.052 84.9039 101.06 84.9005 101.066C84.8971 101.073 84.8922 101.079 84.8863 101.083C84.8831 101.084 84.8799 101.085 84.8766 101.085ZM84.518 100.349H84.4986C84.4453 100.349 84.4404 100.382 84.438 100.395C84.4186 100.513 84.644 100.813 84.8233 100.957C84.809 100.749 84.7356 100.551 84.6125 100.387C84.5863 100.363 84.5528 100.35 84.518 100.349Z" fill="#FFD000"/>
<path d="M72.0887 98.0111C71.8028 98.0111 71.2989 97.9657 71.1438 97.7591C71.121 97.728 71.1059 97.6914 71.1 97.6527C71.0941 97.614 71.0975 97.5744 71.1099 97.5374C71.1152 97.5149 71.1261 97.4943 71.1414 97.4775C71.1566 97.4607 71.1759 97.4484 71.1971 97.4416C71.4394 97.366 72.0451 97.8826 72.1154 97.9456C72.1219 97.9519 72.1264 97.96 72.1286 97.9689C72.1307 97.9779 72.1304 97.9873 72.1275 97.996C72.1231 98.002 72.1171 98.0067 72.1102 98.0094C72.1034 98.012 72.0959 98.0126 72.0887 98.0111ZM71.2335 97.5071H71.2189C71.2102 97.5095 71.2022 97.5143 71.1958 97.5209C71.1894 97.5276 71.1849 97.5358 71.1826 97.5449C71.1749 97.5694 71.1729 97.5953 71.1767 97.6207C71.1805 97.6461 71.19 97.6702 71.2044 97.6911C71.2916 97.812 71.5702 97.8901 71.9603 97.9103C71.7156 97.7264 71.3716 97.4945 71.2335 97.5122V97.5071Z" fill="#FFD000"/>
<path d="M72.0889 98.0112C72.0794 98.0144 72.0692 98.0144 72.0598 98.0112C71.8732 97.8701 71.5389 97.3938 71.6092 97.2023C71.6261 97.157 71.6697 97.104 71.7836 97.1166C71.8249 97.1216 71.8648 97.1351 71.901 97.1563C71.9371 97.1775 71.9689 97.206 71.9944 97.2401C72.1123 97.4673 72.1581 97.7275 72.1252 97.9834C72.1247 97.9908 72.1221 97.9978 72.1178 98.0036C72.1135 98.0094 72.1077 98.0138 72.101 98.0162L72.0889 98.0112ZM71.7327 97.1922C71.6964 97.1922 71.6891 97.2149 71.6867 97.2225C71.6455 97.3384 71.8636 97.7012 72.0477 97.8801C72.0691 97.6734 72.0285 97.4648 71.9314 97.2829C71.8926 97.2333 71.8372 97.2009 71.7763 97.1922H71.7327Z" fill="#FFD000"/>
<path d="M77.8284 57.2159C76.9295 55.0665 80.0526 51.5917 77.6854 50.8005C75.3183 50.0093 75.2287 46.9024 78.0731 45.257C80.9175 43.6115 83.4179 45.3074 82.8292 47.8171C82.2404 50.3268 86.7227 49.3768 88.0141 51.2969C89.79 53.9377 88.1304 56.9967 85.2835 58.6522C82.4367 60.3077 79.0665 60.1716 77.8284 57.2159Z" fill="#FFD000"/>
<path d="M81.339 53.0054L82.7273 52.1991L72.75 34.3413L71.9165 34.8251L81.339 53.0054Z" fill="#FFD000"/>
<path d="M81.0293 54.3408C81.1928 54.6458 81.4397 54.8933 81.7386 55.0522C82.0376 55.2111 82.3751 55.2742 82.7085 55.2334C83.0419 55.1926 83.3562 55.0499 83.6116 54.8232C83.8669 54.5965 84.0518 54.2961 84.1429 53.9601C84.2339 53.624 84.2271 53.2674 84.1231 52.9354C84.0191 52.6034 83.8228 52.311 83.5589 52.0952C83.295 51.8793 82.9755 51.7498 82.6407 51.723C82.306 51.6962 81.9712 51.7733 81.6786 51.9445C81.2876 52.1734 80.9997 52.5541 80.878 53.0032C80.7563 53.4523 80.8107 53.9333 81.0293 54.3408Z" fill="#263238"/>
<path d="M82.8951 56.9601L85.1572 55.6431L84.9324 55.2253L82.6702 56.5423L82.8951 56.9601Z" fill="#263238"/>
<path d="M70.8048 33.1343L70.2597 33.4518C70.2597 33.4518 70.0949 33.1998 70.0465 33.3258C69.998 33.4518 70.2888 33.7919 70.2888 33.7919L70.3566 33.5652L70.8678 33.2678L70.8048 33.1343Z" fill="#FFD000"/>
<path d="M71.3693 33.9634L70.8217 34.2809C70.8217 34.2809 70.6569 34.0289 70.6085 34.1524C70.56 34.2758 70.8508 34.6185 70.8508 34.6185L70.9186 34.3917L71.4298 34.0944L71.3693 33.9634Z" fill="#FFD000"/>
<path d="M71.9313 34.7896L71.3837 35.1146C71.3837 35.1146 71.2214 34.8626 71.1705 34.9861C71.1196 35.1096 71.4128 35.4523 71.4128 35.4523L71.4806 35.2255L71.9918 34.9281L71.9313 34.7896Z" fill="#FFD000"/>
<path d="M71.9458 32.4714L72.4934 32.1514C72.4934 32.1514 72.3674 31.8717 72.4934 31.8994C72.6194 31.9271 72.7356 32.3656 72.7356 32.3656L72.5127 32.3076L72.004 32.6049L71.9458 32.4714Z" fill="#FFD000"/>
<path d="M72.3311 33.4015L72.8786 33.084C72.8786 33.084 72.7502 32.8043 72.8786 32.832C73.007 32.8597 73.1209 33.2982 73.1209 33.2982L72.898 33.2402L72.3868 33.5376L72.3311 33.4015Z" fill="#FFD000"/>
<path d="M72.7163 34.3335L73.2639 34.016C73.2639 34.016 73.1355 33.7337 73.2639 33.764C73.3923 33.7942 73.5062 34.2302 73.5062 34.2302L73.2833 34.1747L72.772 34.472L72.7163 34.3335Z" fill="#FFD000"/>
<path d="M72.4717 35.8254L73.2809 35.3541C73.3586 35.3093 73.417 35.2354 73.4444 35.1475C73.4719 35.0596 73.4662 34.9642 73.4287 34.8804L71.9895 31.6475C71.969 31.6028 71.9399 31.5629 71.9041 31.5302C71.8683 31.4974 71.8266 31.4725 71.7813 31.457C71.7361 31.4415 71.6883 31.4356 71.6408 31.4398C71.5933 31.4439 71.5471 31.458 71.505 31.4812L70.2354 32.2195C70.193 32.2443 70.156 32.278 70.1267 32.3184C70.0973 32.3587 70.0763 32.4049 70.065 32.4541C70.0536 32.5033 70.0521 32.5544 70.0606 32.6042C70.0691 32.654 70.0873 32.7015 70.1142 32.7436L72.0138 35.7094C72.0627 35.7843 72.1367 35.8377 72.2213 35.8591C72.3059 35.8805 72.3951 35.8685 72.4717 35.8254Z" fill="#FFD000"/>
<path d="M83.7889 56.2101C83.7813 56.2104 83.7739 56.2084 83.7674 56.2044C83.761 56.2004 83.7558 56.1945 83.7525 56.1874L72.7697 35.6536C72.7667 35.6484 72.7648 35.6425 72.764 35.6365C72.7633 35.6304 72.7637 35.6242 72.7653 35.6184C72.7669 35.6125 72.7696 35.607 72.7733 35.6022C72.7769 35.5975 72.7815 35.5935 72.7867 35.5906C72.7915 35.5876 72.797 35.5856 72.8026 35.5848C72.8083 35.5841 72.814 35.5845 72.8195 35.5862C72.8249 35.5878 72.83 35.5907 72.8344 35.5945C72.8387 35.5983 72.8423 35.603 72.8448 35.6083L83.8276 56.1421C83.8306 56.1473 83.8325 56.1532 83.8333 56.1592C83.8341 56.1653 83.8336 56.1714 83.832 56.1773C83.8305 56.1832 83.8278 56.1887 83.8241 56.1935C83.8204 56.1982 83.8158 56.2022 83.8107 56.2051C83.8042 56.2094 83.7965 56.2112 83.7889 56.2101Z" fill="white"/>
<path d="M83.544 56.3542C83.5361 56.3547 83.5283 56.3528 83.5214 56.3488C83.5145 56.3448 83.5089 56.3388 83.5052 56.3315L72.6363 35.7297C72.6333 35.7246 72.6314 35.719 72.6307 35.7131C72.63 35.7073 72.6304 35.7013 72.632 35.6956C72.6336 35.6899 72.6363 35.6846 72.64 35.6801C72.6436 35.6756 72.6481 35.6719 72.6532 35.6692C72.6581 35.6662 72.6635 35.6642 72.6692 35.6634C72.6748 35.6627 72.6806 35.6631 72.686 35.6648C72.6915 35.6665 72.6966 35.6693 72.7009 35.6731C72.7053 35.6769 72.7089 35.6816 72.7114 35.6869L83.5828 56.2811C83.5881 56.2919 83.5894 56.3044 83.5862 56.3161C83.5831 56.3278 83.5758 56.3378 83.5658 56.3441C83.5598 56.35 83.5521 56.3535 83.544 56.3542Z" fill="white"/>
<path d="M83.2969 56.4978C83.2892 56.4977 83.2815 56.4956 83.2747 56.4916C83.268 56.4876 83.2623 56.482 83.2582 56.4751L72.5031 35.8128C72.5001 35.8075 72.4982 35.8017 72.4974 35.7956C72.4967 35.7896 72.4971 35.7834 72.4987 35.7775C72.5003 35.7716 72.503 35.7661 72.5066 35.7614C72.5103 35.7566 72.5149 35.7527 72.5201 35.7498C72.5304 35.7445 72.5422 35.7437 72.5531 35.7474C72.564 35.7512 72.573 35.7593 72.5782 35.7699L83.3357 56.4322C83.3387 56.4375 83.3406 56.4433 83.3414 56.4494C83.3421 56.4555 83.3417 56.4616 83.3401 56.4675C83.3385 56.4734 83.3358 56.4789 83.3321 56.4836C83.3285 56.4884 83.3239 56.4924 83.3187 56.4952L83.2969 56.4978Z" fill="white"/>
<path d="M84.0357 56.0668C84.028 56.0667 84.0203 56.0646 84.0136 56.0607C84.0068 56.0567 84.0011 56.051 83.997 56.0441L72.9076 35.5733C72.9018 35.5626 72.9003 35.55 72.9035 35.5382C72.9067 35.5264 72.9142 35.5164 72.9245 35.5103C72.9348 35.5043 72.947 35.5028 72.9583 35.5061C72.9697 35.5094 72.9793 35.5173 72.9851 35.528L84.0745 55.9988C84.0775 56.004 84.0794 56.0099 84.0802 56.0159C84.0809 56.022 84.0805 56.0281 84.0789 56.034C84.0773 56.0399 84.0746 56.0454 84.071 56.0502C84.0673 56.0549 84.0627 56.0589 84.0576 56.0618C84.051 56.0658 84.0433 56.0676 84.0357 56.0668Z" fill="white"/>
<path d="M84.2833 55.9232C84.2754 55.9237 84.2675 55.9218 84.2607 55.9177C84.2538 55.9137 84.2482 55.9077 84.2445 55.9005L73.0412 35.4902C73.0382 35.4849 73.0363 35.4791 73.0355 35.473C73.0348 35.467 73.0352 35.4608 73.0368 35.4549C73.0384 35.449 73.0411 35.4435 73.0447 35.4388C73.0484 35.434 73.053 35.4301 73.0581 35.4272C73.0632 35.4241 73.0688 35.4221 73.0747 35.4213C73.0805 35.4205 73.0864 35.4209 73.092 35.4226C73.0977 35.4242 73.103 35.427 73.1076 35.4309C73.1122 35.4347 73.1159 35.4394 73.1187 35.4448L84.3196 55.8551C84.3252 55.8656 84.3268 55.8779 84.3241 55.8896C84.3214 55.9013 84.3146 55.9114 84.3051 55.9181C84.2985 55.9222 84.2909 55.9239 84.2833 55.9232Z" fill="white"/>
<path d="M84.5274 55.7768C84.52 55.7763 84.5129 55.774 84.5066 55.7701C84.5002 55.7661 84.4949 55.7607 84.491 55.7541L73.1739 35.4169C73.1709 35.4118 73.169 35.4062 73.1683 35.4003C73.1676 35.3944 73.168 35.3885 73.1696 35.3828C73.1712 35.3771 73.1739 35.3718 73.1776 35.3673C73.1812 35.3628 73.1857 35.3591 73.1908 35.3564C73.2006 35.3507 73.212 35.3491 73.2228 35.3519C73.2336 35.3548 73.243 35.3618 73.249 35.3715L84.5661 55.7138C84.5691 55.7189 84.571 55.7245 84.5717 55.7304C84.5724 55.7363 84.572 55.7423 84.5704 55.7479C84.5688 55.7536 84.5661 55.7589 84.5625 55.7634C84.5588 55.768 84.5543 55.7717 84.5492 55.7743C84.5424 55.7776 84.5347 55.7785 84.5274 55.7768Z" fill="white"/>
<path d="M83.8419 51.4479L82.599 50.1401L81.8213 52.3248C81.8213 52.3248 83.1175 53.1916 83.6312 52.5213L83.8419 51.4479Z" fill="#E4897B"/>
<path d="M81.1598 49.9463L80.6001 51.7832L81.8236 52.325L82.599 50.1403L81.1598 49.9463Z" fill="#E4897B"/>
<path d="M89.5454 40.5146C89.0608 41.7745 88.1934 44.249 89.2062 45.6172C88.4357 46.1691 85.3078 48.3714 85.3078 48.3714C85.3078 48.3714 84.5543 45.0956 84.8765 44.7202C86.3302 44.6673 86.8148 43.2083 86.7639 42.1324L89.5454 40.5146Z" fill="#E4897B"/>
<path opacity="0.2" d="M88.4116 41.1748L86.7665 42.1323C86.7831 42.3843 86.7782 42.6372 86.752 42.8883C87.3019 42.921 88.1475 42.4675 88.3099 41.898C88.3859 41.6654 88.4203 41.4203 88.4116 41.1748Z" fill="black"/>
<path d="M88.8475 44.4381C88.8475 44.4381 90.34 44.9294 90.1849 46.9705L88.4404 46.2347L85.1841 48.8729L84.4282 45.7383L82.9575 45.9298C82.9575 45.9298 83.4566 44.3801 86.0031 44.2466C85.6108 44.5053 85.2968 44.8739 85.0969 45.3099C84.8377 45.9626 85.3077 48.3715 85.3077 48.3715C85.3077 48.3715 87.905 46.9352 88.8475 44.4381Z" fill="#FFD000"/>
<path opacity="0.8" d="M88.8475 44.4381C88.8475 44.4381 90.34 44.9294 90.1849 46.9705L88.4404 46.2347L85.1841 48.8729L84.4282 45.7383L82.9575 45.9298C82.9575 45.9298 83.4566 44.3801 86.0031 44.2466C85.6108 44.5053 85.2968 44.8739 85.0969 45.3099C84.8377 45.9626 85.3077 48.3715 85.3077 48.3715C85.3077 48.3715 87.905 46.9352 88.8475 44.4381Z" fill="white"/>
<path d="M74.7031 43.8057L74.2476 42.0166L76.1858 42.3971C76.1858 42.3971 76.5008 44.0198 75.7013 44.1609L74.7031 43.8057Z" fill="#E4897B"/>
<path d="M74.7467 40.2603L76.307 41.1775L76.1858 42.397L74.2476 42.0166L74.7467 40.2603Z" fill="#E4897B"/>
<path d="M92.4333 47.9326C94.3716 49.7242 94.7084 58.8232 91.3964 59.0751C88.9735 59.2566 84.3337 54.3909 84.2829 53.3099L83.4712 52.8059L83.8419 51.4528L84.7698 51.9744C84.7698 51.9744 85.3852 51.7224 85.7874 51.8484C86.1896 51.9744 89.8288 53.6122 90.1728 53.587C90.5169 53.5618 90.2455 51.1403 90.2455 51.1403L92.4333 47.9326Z" fill="#FFD000"/>
<path opacity="0.7" d="M92.4333 47.9326C94.3716 49.7242 94.7084 58.8232 91.3964 59.0751C88.9735 59.2566 84.3337 54.3909 84.2829 53.3099L83.4712 52.8059L83.8419 51.4528L84.7698 51.9744C84.7698 51.9744 85.3852 51.7224 85.7874 51.8484C86.1896 51.9744 89.8288 53.6122 90.1728 53.587C90.5169 53.5618 90.2455 51.1403 90.2455 51.1403L92.4333 47.9326Z" fill="white"/>
<path opacity="0.2" d="M83.8009 98.659H87.566L87.5539 97.4898L83.624 97.2529L83.8009 98.659Z" fill="white"/>
<path opacity="0.2" d="M71.9507 95.4915L75.2845 96.6935L75.648 95.5747L72.0016 94.1938L71.9507 95.4915Z" fill="white"/>
<path d="M86.369 35.9842C85.8844 36.5235 85.4144 37.8766 86.4562 37.864C87.498 37.8514 87.1879 35.0544 86.369 35.9842Z" fill="#263238"/>
<path d="M90.374 38.9673C89.7368 40.6404 89.4461 41.6534 88.3437 42.243C86.684 43.1249 84.9057 41.6332 85.0486 39.7913C85.177 38.1332 86.197 35.6739 88.0142 35.558C88.4168 35.532 88.8193 35.6125 89.1839 35.7922C89.5485 35.9718 89.8633 36.2446 90.099 36.5851C90.3348 36.9257 90.4836 37.3228 90.5317 37.7394C90.5798 38.1559 90.5255 38.5784 90.374 38.9673Z" fill="#E4897B"/>
<path d="M86.8101 36.6416C85.7295 36.0822 85.3903 34.5149 87.1784 34.1218C87.5937 34.0479 88.0181 34.0479 88.4334 34.1218C88.4334 34.1218 87.9682 34.4217 88.1281 34.8778C88.3974 34.6062 88.7438 34.4324 89.1157 34.382C89.4876 34.3316 89.8652 34.4074 90.1924 34.5981C89.8556 34.8702 89.7829 35.7244 90.4008 35.7421C91.3408 35.7698 92.4311 36.4778 91.886 37.458C92.6783 38.4886 91.445 39.9199 89.6933 40.0685C89.2087 39.0606 89.9865 37.5891 89.9865 37.5891C89.107 37.5538 87.7889 37.1506 86.8101 36.6416Z" fill="#263238"/>
<path d="M91.6245 37.4782C91.6245 37.4782 92.4241 37.3597 92.1527 36.5786C92.7511 37.1002 92.3126 37.579 91.6245 37.4782Z" fill="#263238"/>
<path d="M91.4595 37.6066C91.4595 37.6066 92.2348 37.3697 92.2954 38.1987C92.6346 37.4705 92.0482 37.2186 91.4595 37.6066Z" fill="#263238"/>
<path d="M90.5604 40.6054C90.4349 40.7869 90.2757 40.9404 90.0922 41.0568C89.9087 41.1733 89.7046 41.2503 89.492 41.2833C88.925 41.3715 88.7069 40.8196 88.9226 40.298C89.1164 39.8268 89.6494 39.217 90.1897 39.3682C90.308 39.4044 90.4159 39.4703 90.5038 39.5602C90.5917 39.6501 90.6568 39.7612 90.6935 39.8836C90.7302 40.006 90.7372 40.136 90.714 40.2619C90.6908 40.3878 90.638 40.5058 90.5604 40.6054Z" fill="#E4897B"/>
<path d="M87.7356 38.5717C87.692 38.7102 87.5878 38.7984 87.4933 38.7682C87.3988 38.738 87.3698 38.5994 87.4134 38.4608C87.457 38.3222 87.5636 38.234 87.6557 38.2642C87.7477 38.2945 87.7792 38.4331 87.7356 38.5717Z" fill="#263238"/>
<path d="M86.2283 38.0428C86.1847 38.1814 86.0781 38.2696 85.986 38.2394C85.894 38.2092 85.8625 38.0706 85.9061 37.932C85.9497 37.7934 86.0563 37.7052 86.1484 37.7354C86.2404 37.7657 86.2719 37.9043 86.2283 38.0428Z" fill="#263238"/>
<path d="M86.6866 38.2793C86.3925 38.6339 86.0525 38.9443 85.6763 39.2015C85.7487 39.2974 85.8395 39.3764 85.943 39.4337C86.0464 39.491 86.1603 39.5252 86.2771 39.5342L86.6866 38.2793Z" fill="#DE5753"/>
<path d="M86.8248 40.3182C86.7691 40.3056 86.7085 40.2905 86.648 40.2704C86.6427 40.2685 86.6379 40.2657 86.6337 40.2619C86.6295 40.2581 86.6261 40.2535 86.6236 40.2484C86.6211 40.2432 86.6196 40.2376 86.6192 40.2319C86.6189 40.2261 86.6196 40.2204 86.6213 40.2149C86.6231 40.2095 86.6258 40.2044 86.6294 40.2001C86.6331 40.1957 86.6375 40.1922 86.6424 40.1896C86.6474 40.187 86.6528 40.1855 86.6583 40.1851C86.6638 40.1847 86.6694 40.1854 86.6746 40.1872C86.8384 40.2499 87.0143 40.2709 87.1875 40.2485C87.3607 40.2262 87.5263 40.1611 87.6704 40.0587C87.6791 40.0513 87.6902 40.0479 87.7013 40.0491C87.7125 40.0502 87.7227 40.056 87.7298 40.065C87.7368 40.074 87.7402 40.0856 87.739 40.0972C87.7379 40.1087 87.7324 40.1194 87.7237 40.1267C87.5943 40.2205 87.4478 40.2859 87.2932 40.3188C87.1387 40.3517 86.9793 40.3515 86.8248 40.3182Z" fill="#263238"/>
<path d="M88.363 38.2265C88.3486 38.2241 88.3352 38.2177 88.3241 38.2079C88.313 38.1981 88.3047 38.1854 88.3 38.1711C88.2696 38.0674 88.216 37.9726 88.1435 37.8946C88.0711 37.8167 87.9819 37.7577 87.8833 37.7225C87.8622 37.7161 87.8443 37.7016 87.8331 37.682C87.8218 37.6623 87.8181 37.639 87.8227 37.6167C87.8284 37.5945 87.8423 37.5754 87.8613 37.5637C87.8803 37.5519 87.903 37.5483 87.9245 37.5537C88.0492 37.5973 88.1623 37.671 88.2545 37.7686C88.3467 37.8662 88.4154 37.9851 88.4551 38.1156C88.4589 38.1262 88.4605 38.1375 88.46 38.1487C88.4595 38.16 88.4568 38.171 88.452 38.1812C88.4472 38.1913 88.4405 38.2003 88.4323 38.2077C88.4241 38.215 88.4145 38.2206 88.4042 38.224C88.3912 38.2298 88.3766 38.2307 88.363 38.2265Z" fill="#263238"/>
<path d="M85.7464 37.2741C85.7307 37.2711 85.7164 37.2632 85.7052 37.2515C85.6898 37.2354 85.6812 37.2137 85.6812 37.191C85.6812 37.1683 85.6898 37.1466 85.7052 37.1305C85.7941 37.0307 85.9048 36.9545 86.0279 36.9085C86.151 36.8624 86.283 36.8478 86.4127 36.8659C86.4341 36.8713 86.4528 36.885 86.4649 36.9042C86.4771 36.9234 86.4818 36.9466 86.4781 36.9692C86.4734 36.9913 86.4607 37.0107 86.4427 37.0234C86.4247 37.0361 86.4026 37.041 86.3812 37.0373C86.2785 37.0223 86.1739 37.0341 86.0766 37.0714C85.9794 37.1088 85.8925 37.1707 85.8239 37.2515C85.8138 37.2616 85.8014 37.269 85.7879 37.273C85.7744 37.2769 85.7601 37.2773 85.7464 37.2741Z" fill="#263238"/>
<path d="M52.2814 61.0688C51.4746 61.099 48.4048 60.8823 47.896 60.9327C48.3806 59.95 50.7598 58.2492 52.0778 58.8791C52.5624 59.0983 52.5697 60.4943 52.2814 61.0688Z" fill="#FFD000"/>
<path opacity="0.4" d="M52.2814 61.0687C51.4746 61.0989 48.4048 60.8822 47.896 60.9326C48.3806 59.9499 50.8034 58.2465 52.0779 58.879C52.5576 59.1057 52.5697 60.4941 52.2814 61.0687Z" fill="black"/>
<path d="M29.429 75.52C29.6099 76.1118 29.7197 76.7245 29.7561 77.3444C28.9856 77.6341 28.4865 77.6845 28.3654 77.4199C27.8469 76.286 28.707 76.15 29.429 75.52Z" fill="#FFD000"/>
<path opacity="0.4" d="M29.429 75.52C29.6099 76.1118 29.7197 76.7245 29.7561 77.3444C28.9856 77.6341 28.4865 77.6845 28.3654 77.4199C27.8469 76.286 28.707 76.15 29.429 75.52Z" fill="black"/>
<path d="M44.7515 75.0434C44.7515 75.0434 56.4805 61.875 55.1698 60.9048C53.859 59.9347 52.5822 65.1658 51.3925 64.876C50.2029 64.5863 52.4223 60.8771 51.2157 60.8444C50.0091 60.8116 49.8177 65.3951 48.0417 65.4178C46.2658 65.4405 48.1338 62.646 46.3966 62.7241C44.6594 62.8022 47.4288 65.3976 45.866 66.713C44.3033 68.0283 45.5753 62.2378 43.5643 62.9862C41.5533 63.7346 45.1246 66.6827 43.322 68.0258C41.5194 69.3688 42.2971 64.5157 40.3104 65.4203C38.3237 66.3249 42.961 68.0207 41.0881 69.6032C39.2153 71.1856 38.7016 65.4707 36.2957 67.3353C33.8898 69.2 40.3782 69.6536 38.3333 71.619C36.2885 73.5844 35.7966 67.7184 33.9141 70.0089C32.0315 72.2993 37.5483 72.8159 36.3224 74.0405C35.0964 75.2651 32.6154 70.543 31.4258 73.5013C30.2362 76.4595 35.2103 73.5013 34.2193 75.8321C33.2284 78.1629 30.6989 75.2777 29.9721 77.0769C29.2452 78.876 33.5894 76.1773 33.0903 78.5333C32.5912 80.8893 28.9714 79.2892 27.9781 80.8616C26.9847 82.434 34.4762 83.8778 44.7515 75.0434Z" fill="#FFD000"/>
<path opacity="0.5" d="M44.7515 75.0434C44.7515 75.0434 56.4805 61.875 55.1698 60.9048C53.859 59.9347 52.5822 65.1658 51.3925 64.876C50.2029 64.5863 52.4223 60.8771 51.2157 60.8444C50.0091 60.8116 49.8177 65.3951 48.0417 65.4178C46.2658 65.4405 48.1338 62.646 46.3966 62.7241C44.6594 62.8022 47.4288 65.3976 45.866 66.713C44.3033 68.0283 45.5753 62.2378 43.5643 62.9862C41.5533 63.7346 45.1246 66.6827 43.322 68.0258C41.5194 69.3688 42.2971 64.5157 40.3104 65.4203C38.3237 66.3249 42.961 68.0207 41.0881 69.6032C39.2153 71.1856 38.7016 65.4707 36.2957 67.3353C33.8898 69.2 40.3782 69.6536 38.3333 71.619C36.2885 73.5844 35.7966 67.7184 33.9141 70.0089C32.0315 72.2993 37.5483 72.8159 36.3224 74.0405C35.0964 75.2651 32.6154 70.543 31.4258 73.5013C30.2362 76.4595 35.2103 73.5013 34.2193 75.8321C33.2284 78.1629 30.6989 75.2777 29.9721 77.0769C29.2452 78.876 33.5894 76.1773 33.0903 78.5333C32.5912 80.8893 28.9714 79.2892 27.9781 80.8616C26.9847 82.434 34.4762 83.8778 44.7515 75.0434Z" fill="black"/>
<path d="M60.9504 60.0985C60.7953 60.0406 60.6289 60.0233 60.4658 60.0481C58.1423 60.0304 55.2906 62.9811 52.8726 61.943C50.2825 60.8317 40.8503 61.4592 35.1348 65.8436C29.4193 70.228 31.4254 78.6719 29.9087 81.1337C28.392 83.5955 26.7881 84.3338 26.7881 84.3338L26.9092 84.3767C26.8559 84.7597 28.0044 85.5937 31.1008 86.9645C36.7678 89.4843 57.7207 75.2097 61.4228 63.6917C61.4228 63.6917 62.988 60.7435 60.9504 60.0985Z" fill="#FFD000"/>
<path opacity="0.4" d="M60.9504 60.0985C60.7953 60.0406 60.6289 60.0233 60.4658 60.0481C58.1423 60.0304 55.2906 62.9811 52.8726 61.943C50.2825 60.8317 40.8503 61.4592 35.1348 65.8436C29.4193 70.228 31.4254 78.6719 29.9087 81.1337C28.392 83.5955 26.7881 84.3338 26.7881 84.3338L26.9092 84.3767C26.8559 84.7597 28.0044 85.5937 31.1008 86.9645C36.7678 89.4843 57.7207 75.2097 61.4228 63.6917C61.4228 63.6917 62.988 60.7435 60.9504 60.0985Z" fill="black"/>
<path d="M67.8317 62.2705C66.6615 61.7136 62.5523 62.5553 62.5523 62.5553C62.5523 62.5553 55.5624 70.9159 57.1711 73.6146C58.7799 76.3133 67.8317 62.2705 67.8317 62.2705Z" fill="#FFD000"/>
<path d="M65.7866 57.4301C66.9981 58.1532 64.5752 62.2177 65.2318 63.2256C65.8884 64.2335 67.1701 61.3635 67.8315 62.2706C68.493 63.1777 64.4177 66.3955 64.6188 67.8721C64.8199 69.3487 67.4366 68.2249 66.1937 70.2205C64.9507 72.2162 61.4691 73.2947 61.6363 74.5369C61.8034 75.7792 61.1517 76.5528 59.3127 77.4599C57.4738 78.367 55.1939 79.7428 55.7245 80.7886C56.2551 81.8343 52.8171 84.3969 51.0411 84.5682C49.2652 84.7396 48.359 85.1604 48.0489 87.1762C47.7388 89.1921 46.4134 90.452 44.3952 90.3864C42.377 90.3209 41.134 90.1647 40.3127 91.5859C39.4913 93.007 38.8808 93.2943 38.0086 92.6643C37.1363 92.0344 35.4767 92.8155 34.0908 93.6219C32.7049 94.4282 30.5413 93.9646 30.0252 92.9062C29.5092 91.8479 27.1638 92.9239 26.2819 92.8105C25.4 92.6971 24.1813 91.8782 25.0075 90.9282C25.8337 89.9782 27.629 89.187 27.629 89.187C27.629 89.187 25.3201 86.4531 26.798 86.1431C28.2759 85.8332 54.9928 72.0323 57.3526 67.7889C59.7125 63.5456 64.7932 56.8354 65.7866 57.4301Z" fill="#FFD000"/>
<path opacity="0.5" d="M65.7866 57.4301C66.9981 58.1532 64.5752 62.2177 65.2318 63.2256C65.8884 64.2335 67.1701 61.3635 67.8315 62.2706C68.493 63.1777 64.4177 66.3955 64.6188 67.8721C64.8199 69.3487 67.4366 68.2249 66.1937 70.2205C64.9507 72.2162 61.4691 73.2947 61.6363 74.5369C61.8034 75.7792 61.1517 76.5528 59.3127 77.4599C57.4738 78.367 55.1939 79.7428 55.7245 80.7886C56.2551 81.8343 52.8171 84.3969 51.0411 84.5682C49.2652 84.7396 48.359 85.1604 48.0489 87.1762C47.7388 89.1921 46.4134 90.452 44.3952 90.3864C42.377 90.3209 41.134 90.1647 40.3127 91.5859C39.4913 93.007 38.8808 93.2943 38.0086 92.6643C37.1363 92.0344 35.4767 92.8155 34.0908 93.6219C32.7049 94.4282 30.5413 93.9646 30.0252 92.9062C29.5092 91.8479 27.1638 92.9239 26.2819 92.8105C25.4 92.6971 24.1813 91.8782 25.0075 90.9282C25.8337 89.9782 27.629 89.187 27.629 89.187C27.629 89.187 25.3201 86.4531 26.798 86.1431C28.2759 85.8332 54.9928 72.0323 57.3526 67.7889C59.7125 63.5456 64.7932 56.8354 65.7866 57.4301Z" fill="black"/>
<path d="M33.2549 65.7986C33.2549 65.7986 43.884 75.5099 45.6115 75.0765C51.5741 74.3205 60.5653 72.4332 64.0954 72.4105C64.6188 72.3551 64.2893 71.2489 64.0542 70.9944C64.0542 70.9944 54.421 68.52 44.9985 71.0851C42.973 65.7381 37.1387 61.3486 37.1387 61.3486L33.2549 65.7986Z" fill="#E4897B"/>
<path d="M29.5137 82.4993C30.6451 88.6048 31.8614 96.9781 31.561 100.544C31.8881 100.743 32.4962 100.765 33.1576 100.544C33.1576 100.544 35.3019 89.4338 33.7609 82.4893L29.5137 82.4993Z" fill="#E4897B"/>
<path d="M65.7869 57.4303C63.5748 57.3875 65.1836 64.9444 64.1369 66.1186C63.0902 67.2928 62.6566 63.9112 61.3894 64.0523C60.1222 64.1935 60.6335 69.8831 59.4511 70.5232C58.2688 71.1632 58.0555 68.593 56.9725 68.9332C55.8895 69.2734 57.273 73.0984 55.8798 74.2399C54.4867 75.3813 54.3607 71.8083 52.5654 72.8842C50.77 73.9602 51.4072 74.8194 51.4702 76.4951C51.5332 78.1707 50.6465 79.7708 49.4205 78.715C48.1945 77.6592 47.6251 75.2755 46.7553 77.6139C45.8855 79.9522 47.0243 81.3936 45.7717 81.0887C44.519 80.7838 43.1065 76.3162 42.6438 79.1258C42.181 81.9353 43.0944 84.2913 41.2046 84.0872C39.3147 83.8831 40.2354 82.1621 39.2493 82.147C38.2632 82.1319 37.0494 84.8054 37.7326 85.9972C38.4159 87.1891 35.7047 88.6052 34.7016 87.2269C33.6986 85.8486 36.0536 83.7496 34.6677 83.6236C33.2818 83.4976 33.4175 88.8698 31.7603 88.386C30.103 87.9022 30.0909 86.6221 27.5227 86.7481C24.9545 86.8741 28.0485 88.89 28.7341 89.3007C29.4198 89.7114 28.4918 91.3165 25.0029 90.9259L27.072 88.5523C27.072 88.5523 26.0133 86.9799 26.1029 86.5995C26.1926 86.219 29.1315 84.697 30.103 82.2226C31.0746 79.7481 34.767 75.3813 38.2293 72.1056C41.6916 68.8299 52.105 63.7273 54.5351 63.3392C56.9653 62.9512 59.7588 62.4195 61.5614 60.7716C63.364 59.1236 63.6717 58.2518 64.5488 57.6092C65.4259 56.9667 65.7869 57.4303 65.7869 57.4303Z" fill="#FFD000"/>
<path opacity="0.2" d="M65.7869 57.4303C63.5748 57.3875 65.1836 64.9444 64.1369 66.1186C63.0902 67.2928 62.6566 63.9112 61.3894 64.0523C60.1222 64.1935 60.6335 69.8831 59.4511 70.5232C58.2688 71.1632 58.0555 68.593 56.9725 68.9332C55.8895 69.2734 57.273 73.0984 55.8798 74.2399C54.4867 75.3813 54.3607 71.8083 52.5654 72.8842C50.77 73.9602 51.4072 74.8194 51.4702 76.4951C51.5332 78.1707 50.6465 79.7708 49.4205 78.715C48.1945 77.6592 47.6251 75.2755 46.7553 77.6139C45.8855 79.9522 47.0243 81.3936 45.7717 81.0887C44.519 80.7838 43.1065 76.3162 42.6438 79.1258C42.181 81.9353 43.0944 84.2913 41.2046 84.0872C39.3147 83.8831 40.2354 82.1621 39.2493 82.147C38.2632 82.1319 37.0494 84.8054 37.7326 85.9972C38.4159 87.1891 35.7047 88.6052 34.7016 87.2269C33.6986 85.8486 36.0536 83.7496 34.6677 83.6236C33.2818 83.4976 33.4175 88.8698 31.7603 88.386C30.103 87.9022 30.0909 86.6221 27.5227 86.7481C24.9545 86.8741 28.0485 88.89 28.7341 89.3007C29.4198 89.7114 28.4918 91.3165 25.0029 90.9259L27.072 88.5523C27.072 88.5523 26.0133 86.9799 26.1029 86.5995C26.1926 86.219 29.1315 84.697 30.103 82.2226C31.0746 79.7481 34.767 75.3813 38.2293 72.1056C41.6916 68.8299 52.105 63.7273 54.5351 63.3392C56.9653 62.9512 59.7588 62.4195 61.5614 60.7716C63.364 59.1236 63.6717 58.2518 64.5488 57.6092C65.4259 56.9667 65.7869 57.4303 65.7869 57.4303Z" fill="black"/>
<path d="M58.1422 65.8285C56.7345 66.146 54.3844 65.1053 54.3844 65.1053L54.4207 68.9279C54.4207 68.9279 52.5721 69.4646 51.2104 68.3332C51.2104 68.3332 52.0148 70.7572 51.6223 71.1478C51.2298 71.5384 47.4017 69.9106 47.4017 69.9106L48.2667 73.9725C48.2667 73.9725 44.6808 71.3166 44.8068 72.0776C44.9328 72.8386 45.3423 75.376 45.1799 75.885C45.0176 76.394 44.2423 77.5254 43.169 76.9484C42.0956 76.3713 40.0459 73.6122 40.0459 73.6122C40.0459 73.6122 39.8036 79.4606 39.1567 79.2993C38.5098 79.1381 38.1222 75.7288 37.8532 76.0664C37.5843 76.4041 37.7563 81.61 36.0482 81.7738C34.3401 81.9376 34.7883 77.2054 34.0057 77.6237C33.2231 78.042 33.1819 84.596 31.5829 84.6589C29.9838 84.7219 29.6446 84.5456 30.1994 82.9203C30.7542 81.295 31.2776 75.6683 32.9784 74.7007C34.6793 73.7331 51.2347 63.1097 53.3934 63.2205C55.5522 63.3314 56.5964 60.8519 57.9484 61.492C59.3004 62.132 58.1422 65.8285 58.1422 65.8285Z" fill="#FFD000"/>
<path opacity="0.4" d="M58.1422 65.8285C56.7345 66.146 54.3844 65.1053 54.3844 65.1053L54.4207 68.9279C54.4207 68.9279 52.5721 69.4646 51.2104 68.3332C51.2104 68.3332 52.0148 70.7572 51.6223 71.1478C51.2298 71.5384 47.4017 69.9106 47.4017 69.9106L48.2667 73.9725C48.2667 73.9725 44.6808 71.3166 44.8068 72.0776C44.9328 72.8386 45.3423 75.376 45.1799 75.885C45.0176 76.394 44.2423 77.5254 43.169 76.9484C42.0956 76.3713 40.0459 73.6122 40.0459 73.6122C40.0459 73.6122 39.8036 79.4606 39.1567 79.2993C38.5098 79.1381 38.1222 75.7288 37.8532 76.0664C37.5843 76.4041 37.7563 81.61 36.0482 81.7738C34.3401 81.9376 34.7883 77.2054 34.0057 77.6237C33.2231 78.042 33.1819 84.596 31.5829 84.6589C29.9838 84.7219 29.6446 84.5456 30.1994 82.9203C30.7542 81.295 31.2776 75.6683 32.9784 74.7007C34.6793 73.7331 51.2347 63.1097 53.3934 63.2205C55.5522 63.3314 56.5964 60.8519 57.9484 61.492C59.3004 62.132 58.1422 65.8285 58.1422 65.8285Z" fill="black"/>
<path d="M58.6753 65.5491C56.6038 67.0433 59.0824 62.2204 57.1925 61.8349C55.3027 61.4494 57.0932 67.1113 54.9902 68.6585C52.8871 70.2056 54.5589 64.6268 51.9156 65.2719C49.2722 65.917 53.2942 69.9385 51.9156 70.9969C50.537 72.0552 51.5812 67.4943 48.8967 68.0941C46.2122 68.6938 49.9821 71.3194 48.7731 73.4461C47.5641 75.5728 46.7452 70.8709 44.8965 71.1228C43.0479 71.3748 47.002 76.7193 43.954 77.0292C40.9061 77.3392 43.169 73.2949 41.5918 73.1311C40.0145 72.9673 40.5742 79.2189 39.1544 79.2996C37.7346 79.3802 40.218 75.8097 38.0835 75.4997C35.9489 75.1898 38.5268 81.7791 36.0458 81.774C33.5648 81.769 36.1597 80.2873 34.0446 79.5314C31.9294 78.7755 31.6484 81.1113 31.8834 83.0591C32.1184 85.0069 31.8834 84.8759 29.0874 84.319C27.813 84.067 26.9407 84.067 26.9068 84.3921L26.7905 84.3492C26.7905 84.3492 28.4041 83.6135 29.9112 81.1516C31.4182 78.6898 29.4266 70.2434 35.1397 65.859C40.8528 61.4746 50.2874 60.8471 52.8774 61.9584C55.3003 62.9965 58.1423 60.0484 60.4658 60.066C59.2277 60.3129 60.5458 64.201 58.6753 65.5491Z" fill="#FFD000"/>
<path d="M36.332 49.7649C36.6252 49.6339 36.8771 49.5356 37.1485 49.4398C37.4199 49.3441 37.6864 49.2534 37.9577 49.1652C38.498 48.9989 39.0504 48.8552 39.6101 48.7444C40.1746 48.623 40.7459 48.5389 41.3207 48.4924C41.609 48.4621 41.9046 48.4571 42.2002 48.4546H42.646H42.8301L42.9609 48.4747C43.0755 48.4922 43.1872 48.5261 43.2929 48.5755C43.4682 48.6503 43.6242 48.7668 43.7484 48.9157C43.8248 49.0058 43.8884 49.1068 43.9373 49.2156C43.9607 49.2697 43.9809 49.3252 43.9979 49.3819C44.0125 49.4323 44.0221 49.4801 44.0318 49.5305C44.0415 49.5809 44.0464 49.6339 44.0488 49.6742C44.0512 49.7145 44.0488 49.7548 44.0488 49.7926C44.0486 49.8611 44.0422 49.9295 44.0294 49.9967L44.0125 50.0874L43.9931 50.158C43.9537 50.3007 43.8976 50.4378 43.8259 50.5662C43.7301 50.7359 43.6207 50.8969 43.4988 51.0475C43.3023 51.2905 43.092 51.5211 42.8689 51.7379C42.4473 52.1486 42.0233 52.519 41.5872 52.8718C40.726 53.5738 39.8282 54.2257 38.8978 54.8246C38.7672 54.9081 38.6101 54.9346 38.4608 54.8982C38.3116 54.8619 38.1821 54.7657 38.1007 54.6306C38.0281 54.514 37.9968 54.3747 38.0123 54.2368C38.0278 54.0988 38.089 53.9707 38.1855 53.8747C38.9414 53.0986 39.7022 52.3124 40.4339 51.5363C40.7973 51.1432 41.1607 50.7526 41.4781 50.357C41.6318 50.1753 41.775 49.9843 41.907 49.785C41.9528 49.7172 41.9918 49.6445 42.0233 49.5683C42.0233 49.5532 42.0233 49.5381 42.0087 49.5935V49.6137V49.6515C42.003 49.684 41.9989 49.7168 41.9966 49.7498C41.9954 49.7724 41.9954 49.7951 41.9966 49.8178C41.9966 49.8405 41.9966 49.8808 41.9966 49.911C42.0016 49.9435 42.0089 49.9755 42.0184 50.0068C42.0294 50.0476 42.044 50.0872 42.062 50.1252C42.096 50.2031 42.1409 50.2752 42.1953 50.3394C42.2419 50.3963 42.2957 50.4463 42.3552 50.4881C42.3965 50.5174 42.4403 50.5427 42.4861 50.5637C42.5137 50.5762 42.542 50.5871 42.5709 50.5964L42.6242 50.6115C42.6242 50.6115 42.6581 50.6115 42.6557 50.6115C42.6532 50.6115 42.6847 50.6115 42.6387 50.6115L42.2801 50.6393C42.0378 50.6644 41.7955 50.6896 41.5533 50.73C41.0642 50.8056 40.579 50.9065 40.0995 51.0323C39.615 51.1558 39.1304 51.2843 38.6458 51.4531C38.4035 51.5313 38.1613 51.6119 37.919 51.7051L37.2285 51.9571L37.1824 51.9722C37.0407 52.0298 36.8894 52.0578 36.7373 52.0546C36.5851 52.0513 36.4351 52.017 36.2957 51.9535C36.1563 51.8899 36.0303 51.7985 35.925 51.6843C35.8196 51.5701 35.7368 51.4355 35.6815 51.2881C35.6261 51.1407 35.5992 50.9834 35.6023 50.8251C35.6054 50.6669 35.6384 50.5109 35.6995 50.3659C35.7606 50.221 35.8485 50.0899 35.9583 49.9803C36.0681 49.8707 36.1975 49.7847 36.3393 49.7271L36.332 49.7649Z" fill="#E4897B"/>
<path d="M28.7823 48.7018C28.3535 47.5377 27.9634 46.3761 27.6048 45.1867C27.4255 44.5946 27.2463 43.9999 27.0888 43.3901C26.9169 42.7592 26.7778 42.119 26.672 41.4725C26.6388 41.2642 26.6201 41.0537 26.6163 40.8426C26.6147 40.679 26.6318 40.5157 26.6672 40.3563C26.7015 40.1993 26.7536 40.047 26.8223 39.9027C26.9366 39.6729 27.0846 39.463 27.2608 39.2803C27.4039 39.1319 27.5587 38.9962 27.7236 38.8746C28.2793 38.4797 28.8841 38.1652 29.5213 37.9398C30.6835 37.519 31.8856 37.2284 33.1071 37.073C33.2479 37.0528 33.3909 37.0875 33.5086 37.1702C33.6263 37.253 33.7106 37.378 33.7451 37.5213C33.7796 37.6647 33.7621 37.8163 33.6957 37.947C33.6294 38.0777 33.519 38.1783 33.3858 38.2296H33.3664C32.2922 38.6361 31.2407 39.1047 30.2167 39.6331C29.7582 39.866 29.3273 40.1535 28.9326 40.4898C28.8213 40.579 28.7323 40.6948 28.6733 40.8275C28.6733 40.8275 28.6733 40.8275 28.6854 40.8124C28.6975 40.7972 28.6854 40.7544 28.7 40.7821C28.7145 40.8098 28.7242 40.9459 28.7508 41.0669C28.8647 41.5708 29.0392 42.1504 29.2136 42.7123C29.3881 43.2742 29.577 43.8487 29.7709 44.4207L30.9411 47.8476C31.0478 48.1483 31.0352 48.4808 30.9062 48.7719C30.7771 49.063 30.5422 49.2889 30.253 49.3998C29.9639 49.5107 29.6442 49.4977 29.3643 49.3635C29.0844 49.2293 28.8672 48.9849 28.7605 48.6842L28.7823 48.7018Z" fill="#E4897B"/>
<path d="M34.5023 49.6641C34.5023 49.6641 33.9644 50.3923 31.3889 49.1753C30.6064 48.8023 31.3308 48.1673 31.3308 48.1673C32.4744 48.4067 32.9299 47.744 33.1746 46.9679C33.2037 46.8722 33.2303 46.7764 33.2521 46.6832L36.082 45.9272C35.4715 46.6958 34.5556 48.0388 34.4466 49.0593C34.4196 49.2627 34.4387 49.4698 34.5023 49.6641Z" fill="#E4897B"/>
<path opacity="0.2" d="M34.4468 49.0596C33.5334 48.5884 33.2523 47.6561 33.1748 46.9606C33.2039 46.8648 33.2305 46.7691 33.2523 46.6759L36.0822 45.9199C35.4717 46.7061 34.5558 48.0391 34.4468 49.0596Z" fill="black"/>
<path d="M31.5201 42.8102C31.5201 42.8102 30.2118 41.9636 29.6497 42.7069C29.0876 43.4503 29.3735 45.4056 31.0089 45.073C32.6443 44.7404 31.8908 43.0043 31.5201 42.8102Z" fill="#263238"/>
<path d="M31.7117 42.6264C31.7117 42.6264 31.559 41.8125 31.026 41.8125C30.493 41.8125 30.7547 42.6264 30.7547 42.6264C30.7547 42.6264 30.2313 42.198 30.0787 42.8305C30.0556 42.9116 30.0494 42.9968 30.0606 43.0806C30.0717 43.1644 30.0998 43.2447 30.1432 43.3162C30.1865 43.3878 30.244 43.4489 30.3119 43.4955C30.3797 43.5421 30.4563 43.5731 30.5366 43.5864C30.5366 43.5864 29.9697 43.8384 30.1659 44.3424C30.3622 44.8463 30.7038 44.5162 30.7038 44.5162C30.7038 44.5162 30.4615 45.1033 30.7547 45.3301C31.0478 45.5569 31.341 45.126 31.341 45.126C31.3106 45.27 31.3315 45.4206 31.3996 45.5498C31.4678 45.6791 31.5786 45.7783 31.7117 45.8291C32.1963 46.0407 32.5742 44.8085 32.5742 44.8085L31.7117 42.6264Z" fill="#FFD000"/>
<path opacity="0.4" d="M31.7117 42.6264C31.7117 42.6264 31.559 41.8125 31.026 41.8125C30.493 41.8125 30.7547 42.6264 30.7547 42.6264C30.7547 42.6264 30.2313 42.198 30.0787 42.8305C30.0556 42.9116 30.0494 42.9968 30.0606 43.0806C30.0717 43.1644 30.0998 43.2447 30.1432 43.3162C30.1865 43.3878 30.244 43.4489 30.3119 43.4955C30.3797 43.5421 30.4563 43.5731 30.5366 43.5864C30.5366 43.5864 29.9697 43.8384 30.1659 44.3424C30.3622 44.8463 30.7038 44.5162 30.7038 44.5162C30.7038 44.5162 30.4615 45.1033 30.7547 45.3301C31.0478 45.5569 31.341 45.126 31.341 45.126C31.3106 45.27 31.3315 45.4206 31.3996 45.5498C31.4678 45.6791 31.5786 45.7783 31.7117 45.8291C32.1963 46.0407 32.5742 44.8085 32.5742 44.8085L31.7117 42.6264Z" fill="white"/>
<path d="M34.2387 40.9963C35.656 40.7922 37.5047 41.8807 37.6985 43.3901C37.9917 45.6579 35.5179 47.011 34.9631 46.9858C29.8388 46.7565 30.2337 41.5733 34.2387 40.9963Z" fill="#263238"/>
<path d="M32.3585 43.8257C32.4748 45.7357 32.4869 46.5471 33.4052 47.5727C34.7886 49.1198 36.991 48.6763 37.4199 46.7966C37.8051 45.1058 37.5483 42.2609 35.7699 41.4092C35.3938 41.2122 34.9738 41.1235 34.5535 41.1523C34.1333 41.181 33.7281 41.3262 33.38 41.5728C33.032 41.8194 32.7537 42.1583 32.574 42.5545C32.3944 42.9506 32.32 43.3896 32.3585 43.8257Z" fill="#E4897B"/>
<path d="M35.1692 44.5012C35.1692 44.6599 35.254 44.796 35.3509 44.801C35.4478 44.8061 35.5277 44.6801 35.5229 44.5188C35.5181 44.3576 35.4381 44.2215 35.3412 44.2165C35.2443 44.2114 35.1643 44.3399 35.1692 44.5012Z" fill="#263238"/>
<path d="M37.0178 44.6222C37.0178 44.7835 37.1026 44.917 37.1995 44.9221C37.2964 44.9271 37.3764 44.8011 37.3715 44.6398C37.3667 44.4786 37.2867 44.345 37.1898 44.34C37.0929 44.335 37.0129 44.4609 37.0178 44.6222Z" fill="#263238"/>
<path d="M37.146 44.3476L37.5046 44.2544C37.5046 44.2544 37.3253 44.5467 37.146 44.3476Z" fill="#263238"/>
<path d="M36.5137 44.8589C36.6554 45.2336 36.8418 45.5883 37.0685 45.9147C36.9912 45.9689 36.9031 46.0044 36.8108 46.0183C36.7186 46.0323 36.6244 46.0244 36.5355 45.9953L36.5137 44.8589Z" fill="#ED893E"/>
<path d="M34.7547 43.5842C34.7668 43.5866 34.7792 43.5861 34.791 43.5826C34.8028 43.5791 34.8136 43.5727 34.8226 43.564C34.9035 43.4875 35.0015 43.4332 35.1077 43.4059C35.2138 43.3787 35.3248 43.3793 35.4307 43.4078C35.4415 43.4112 35.4529 43.4124 35.4642 43.4112C35.4754 43.4101 35.4863 43.4066 35.4963 43.4009C35.5062 43.3953 35.515 43.3876 35.522 43.3784C35.5291 43.3692 35.5343 43.3586 35.5373 43.3473C35.5424 43.3226 35.5388 43.2969 35.5273 43.2747C35.5157 43.2526 35.497 43.2354 35.4743 43.2264C35.3404 43.1886 35.1995 43.1864 35.0644 43.2198C34.9294 43.2533 34.8046 43.3214 34.7014 43.4179C34.6853 43.436 34.6763 43.4599 34.6763 43.4846C34.6763 43.5094 34.6853 43.5332 34.7014 43.5514C34.7154 43.568 34.7341 43.5794 34.7547 43.5842Z" fill="#263238"/>
<path d="M37.5358 43.7655C37.5469 43.7684 37.5585 43.7688 37.5698 43.7666C37.5811 43.7644 37.5918 43.7598 37.6012 43.7529C37.6105 43.7457 37.6184 43.7366 37.6243 43.7262C37.6302 43.7158 37.6341 43.7043 37.6357 43.6924C37.6372 43.6804 37.6365 43.6682 37.6335 43.6565C37.6305 43.6449 37.6253 43.6339 37.6181 43.6244C37.5393 43.4953 37.4325 43.3873 37.3063 43.309C37.1801 43.2306 37.0379 43.1842 36.8913 43.1733C36.8798 43.1733 36.8685 43.1757 36.858 43.1805C36.8475 43.1853 36.8381 43.1923 36.8303 43.201C36.8226 43.2098 36.8167 43.2202 36.813 43.2315C36.8093 43.2427 36.8079 43.2547 36.8089 43.2666C36.8101 43.292 36.8205 43.316 36.8381 43.3338C36.8556 43.3515 36.8789 43.3617 36.9034 43.3623C37.0178 43.3742 37.1282 43.413 37.226 43.4759C37.3238 43.5388 37.4066 43.624 37.4679 43.7252C37.4758 43.7365 37.486 43.746 37.4977 43.753C37.5094 43.7599 37.5224 43.7642 37.5358 43.7655Z" fill="#263238"/>
<path d="M35.3022 44.2241L35.6608 44.1309C35.6608 44.1309 35.4767 44.4232 35.3022 44.2241Z" fill="#263238"/>
<path d="M36.2715 46.4542C36.0888 46.6427 35.9195 46.8448 35.7652 47.059L35.644 46.9935C35.1013 46.6886 34.9462 46.3635 34.939 46.0914C34.9385 45.9591 34.9684 45.8287 35.0262 45.7109C35.0566 45.6435 35.0957 45.5807 35.1425 45.5244C35.3963 45.8671 35.7187 46.1482 36.0874 46.3484C36.1916 46.4089 36.2715 46.4542 36.2715 46.4542Z" fill="#263238"/>
<path d="M36.0798 46.3406L35.9247 46.5144C35.4159 46.2272 35.0937 45.955 35.0186 45.7031C35.0489 45.6357 35.0881 45.5729 35.1349 45.5166C35.3887 45.8592 35.7111 46.1404 36.0798 46.3406Z" fill="white"/>
<path d="M35.6367 46.9856C35.094 46.6807 34.9389 46.3556 34.9316 46.0835C35.1355 46.2032 35.3176 46.3593 35.4695 46.5446C35.5693 46.6692 35.6279 46.8238 35.6367 46.9856Z" fill="#DE5753"/>
<path d="M31.9708 45.6047C32.0252 45.7789 32.1138 45.9394 32.231 46.076C32.3482 46.2127 32.4914 46.3225 32.6516 46.3985C33.0562 46.5673 33.2985 46.091 33.2162 45.577C33.1435 45.1108 32.8479 44.4633 32.4263 44.5212C32.0047 44.5792 31.8109 45.1386 31.9708 45.6047Z" fill="#E4897B"/>
<path d="M35.1687 42.087C35.1687 42.087 34.6066 42.4675 34.3474 43.5989C33.9452 45.3123 32.8282 45.3904 32.1668 45.1107C31.4085 44.7983 30.8875 43.4149 31.4811 42.087C32.5666 39.6604 35.6799 40.0308 36.4989 40.9959C37.3711 42.0164 36.5134 42.6035 35.1687 42.087Z" fill="#263238"/>
<path d="M33.9403 37.0476L33.7853 35.4248L32.3945 36.7981C32.3945 36.7981 32.6974 38.0227 33.463 38.2167L33.5963 38.0807C33.7233 37.9455 33.82 37.7827 33.8794 37.6041C33.9389 37.4255 33.9597 37.2355 33.9403 37.0476Z" fill="#E4897B"/>
<path d="M32.9932 34.2129L31.6631 35.1679L32.3827 36.7982L33.7855 35.4249L32.9932 34.2129Z" fill="#E4897B"/>
<path d="M38.4231 55.3187L39.5715 56.4299L39.7508 54.4368C39.7508 54.4368 38.7429 53.7262 38.0548 54.1067V54.3007C38.0392 54.4882 38.0642 54.677 38.1279 54.8532C38.1916 55.0293 38.2925 55.1884 38.4231 55.3187Z" fill="#E4897B"/>
<path d="M40.9354 56.7925L41.3279 55.1647L39.7506 54.4365L39.5713 56.4297L40.9354 56.7925Z" fill="#E4897B"/>
<path d="M30.4565 46.8218C30.4565 46.8218 31.9103 49.5608 36.7802 49.5608L36.9983 52.0277C36.3489 52.9323 34.997 56.2534 35.4646 58.8513L29.3832 60.5295C28.5262 56.1858 28.2005 51.7468 28.4141 47.3182L30.4565 46.8218Z" fill="#E4897B"/>
<path d="M34.7157 49.1275L31.2389 51.9698C30.8732 50.5521 30.9582 49.0495 31.4812 47.6862L30.6986 46.7563C30.6986 46.7563 26.4707 52.4536 29.0341 60.5295L35.4571 58.8514C35.3834 57.3273 35.6127 55.8039 36.1306 54.3762C36.1306 54.3762 35.1349 51.1257 35.6219 49.3089L34.7157 49.1275Z" fill="#FFD000"/>
<path d="M51.3803 64.8765C50.4984 64.7026 48.9574 63.3419 48.9574 63.3419L48.0343 65.4132C48.0343 65.4132 46.6582 65.5971 45.5412 63.6493C44.4243 61.7015 45.5 66.8923 45.5 66.8923C45.5 66.8923 44.2329 67.1695 43.3195 65.1637C42.406 63.158 42.8858 68.2278 42.8858 68.2278C42.8858 68.2278 42.2679 68.4924 41.6356 67.1115C41.0032 65.7307 41.6235 68.4017 41.5362 68.767C41.449 69.1324 37.8705 66.2472 37.8705 66.2472C37.6437 66.9653 37.6976 67.7473 38.0207 68.4243C38.561 69.6036 39.2006 70.672 38.5997 71.2566C37.9989 71.8412 35.6051 68.1245 35.0599 68.1724C34.5148 68.2202 35.7577 72.6097 36.3683 73.3707C36.9788 74.1317 34.3064 73.4463 33.6523 72.4888C32.9981 71.5313 32.5814 73.2825 34.2652 75.0388L31.5056 75.7947C31.5056 75.7947 33.2646 76.8027 33.0926 77.9114C32.9206 79.0201 28.666 79.3325 28.666 79.3325L28.9083 75.7746C28.9083 75.7746 31.0719 68.7922 37.8196 64.7807C44.5672 60.7692 50.4475 60.2023 52.003 60.7491C53.5584 61.2958 51.3803 64.8765 51.3803 64.8765Z" fill="#FFD000"/>
<path opacity="0.5" d="M51.3803 64.8765C50.4984 64.7026 48.9574 63.3419 48.9574 63.3419L48.0343 65.4132C48.0343 65.4132 46.6582 65.5971 45.5412 63.6493C44.4243 61.7015 45.5 66.8923 45.5 66.8923C45.5 66.8923 44.2329 67.1695 43.3195 65.1637C42.406 63.158 42.8858 68.2278 42.8858 68.2278C42.8858 68.2278 42.2679 68.4924 41.6356 67.1115C41.0032 65.7307 41.6235 68.4017 41.5362 68.767C41.449 69.1324 37.8705 66.2472 37.8705 66.2472C37.6437 66.9653 37.6976 67.7473 38.0207 68.4243C38.561 69.6036 39.2006 70.672 38.5997 71.2566C37.9989 71.8412 35.6051 68.1245 35.0599 68.1724C34.5148 68.2202 35.7577 72.6097 36.3683 73.3707C36.9788 74.1317 34.3064 73.4463 33.6523 72.4888C32.9981 71.5313 32.5814 73.2825 34.2652 75.0388L31.5056 75.7947C31.5056 75.7947 33.2646 76.8027 33.0926 77.9114C32.9206 79.0201 28.666 79.3325 28.666 79.3325L28.9083 75.7746C28.9083 75.7746 31.0719 68.7922 37.8196 64.7807C44.5672 60.7692 50.4475 60.2023 52.003 60.7491C53.5584 61.2958 51.3803 64.8765 51.3803 64.8765Z" fill="black"/>
<path d="M54.9929 60.8167C53.7354 60.3657 52.5191 65.1507 51.3828 64.8786C50.1932 64.5863 52.4101 60.8797 51.2035 60.8469C49.997 60.8142 49.8055 65.3977 48.0296 65.4204C46.2536 65.443 48.1217 62.6486 46.3869 62.7267C44.6521 62.8048 47.4166 65.4002 45.8539 66.7155C44.2911 68.0309 45.5631 62.2429 43.5546 62.9888C41.546 63.7346 45.1101 66.6853 43.3123 68.0284C41.5145 69.3714 42.2874 64.5183 40.3031 65.4229C38.3188 66.3275 42.9513 68.0233 41.0784 69.6057C39.2055 71.1882 38.6943 65.4632 36.2715 67.3127C33.8486 69.1623 40.354 69.6335 38.3091 71.5964C36.2642 73.5593 35.7724 67.6957 33.8898 69.9862C32.0072 72.2767 37.5241 72.7933 36.2981 74.0179C35.0722 75.2425 32.6105 70.5406 31.4233 73.5013C30.2361 76.4621 35.2078 73.5013 34.2169 75.8322C33.2259 78.163 30.6989 75.2753 29.972 77.0769C29.2452 78.8786 33.5894 76.1774 33.0903 78.5334C32.5911 80.8894 28.9714 79.2893 27.978 80.8617C28.1227 79.5606 28.3387 78.2692 28.6249 76.9938C28.6249 76.9938 29.1095 69.3815 29.7782 67.6579C30.4469 65.9344 31.8425 59.2494 31.8425 59.2494L43.8041 57.7778L49.0036 60.5496C49.0036 60.5496 53.498 60.1263 54.9929 60.8167Z" fill="#FFD000"/>
<path opacity="0.2" d="M54.9929 60.8167C53.7354 60.3657 52.5191 65.1507 51.3828 64.8786C50.1932 64.5863 52.4101 60.8797 51.2035 60.8469C49.997 60.8142 49.8055 65.3977 48.0296 65.4204C46.2536 65.443 48.1217 62.6486 46.3869 62.7267C44.6521 62.8048 47.4166 65.4002 45.8539 66.7155C44.2911 68.0309 45.5631 62.2429 43.5546 62.9888C41.546 63.7346 45.1101 66.6853 43.3123 68.0284C41.5145 69.3714 42.2874 64.5183 40.3031 65.4229C38.3188 66.3275 42.9513 68.0233 41.0784 69.6057C39.2055 71.1882 38.6943 65.4632 36.2715 67.3127C33.8486 69.1623 40.354 69.6335 38.3091 71.5964C36.2642 73.5593 35.7724 67.6957 33.8898 69.9862C32.0072 72.2767 37.5241 72.7933 36.2981 74.0179C35.0722 75.2425 32.6105 70.5406 31.4233 73.5013C30.2361 76.4621 35.2078 73.5013 34.2169 75.8322C33.2259 78.163 30.6989 75.2753 29.972 77.0769C29.2452 78.8786 33.5894 76.1774 33.0903 78.5334C32.5911 80.8894 28.9714 79.2893 27.978 80.8617C28.1227 79.5606 28.3387 78.2692 28.6249 76.9938C28.6249 76.9938 29.1095 69.3815 29.7782 67.6579C30.4469 65.9344 31.8425 59.2494 31.8425 59.2494L43.8041 57.7778L49.0036 60.5496C49.0036 60.5496 53.498 60.1263 54.9929 60.8167Z" fill="black"/>
<path d="M49.0956 56.8307C48.2718 56.7601 47.5232 57.637 46.7818 57.7605C46.2754 59.2169 45.2287 61.0362 46.6364 61.2882C48.72 61.6838 47.7097 57.0726 49.0956 56.8307Z" fill="#FFD000"/>
<path d="M31.0912 71.8511C31.4207 70.4073 29.6205 70.2687 28.8186 69.8101C28.5925 70.6333 28.3032 71.4363 27.9536 72.2114C28.9858 71.7049 30.6987 73.5772 31.0912 71.8511Z" fill="#FFD000"/>
<path d="M48.5016 62.0918C49.7664 62.7041 50.3188 57.8964 52.1165 58.9043C51.3073 58.2567 50.1783 59.0731 49.8342 59.1059C49.0783 60.3733 47.7602 61.7315 48.5016 62.0918Z" fill="#FFD000"/>
<path d="M30.185 74.2573C30.4442 73.0881 29.1431 73.7533 28.1958 73.965C27.9535 75.0712 27.6434 76.9887 28.3678 77.4196C27.6143 75.7818 29.7488 76.2252 30.185 74.2573Z" fill="#FFD000"/>
<path d="M27.2728 73.4536L27.2705 73.4559H27.2728V73.4536Z" fill="#FFD000"/>
<path d="M28.8019 65.7203C28.8346 66.8089 28.7534 67.898 28.5596 68.9683C28.6027 68.8894 28.6522 68.8144 28.7074 68.7441C30.0254 67.0508 29.9818 71.1958 31.7335 69.5C33.4852 67.8042 28.3415 66.9802 30.6166 65.6346C32.8916 64.2891 32.1284 69.2556 34.6094 67.1868C37.0905 65.1181 31.2586 64.5461 33.1557 62.9284C35.0528 61.3107 34.9486 65.9521 36.6277 64.7073C38.3067 63.4626 33.6112 61.2376 36.068 59.8996C38.5248 58.5616 37.2407 64.5965 39.179 63.3643C41.1172 62.1321 36.4024 59.2847 39.0481 58.4028C41.6939 57.5209 39.179 63.3643 41.1608 62.2001C43.1427 61.036 39.2492 56.9665 41.8344 57.3521C44.4196 57.7376 40.6521 61.5727 43.4456 61.3207C46.0599 61.0914 43.5134 56.1627 45.7376 55.8729C44.7685 55.6336 43.4408 57.1732 42.5588 57.1328C42.021 56.6818 41.563 56.3769 41.2578 56.3038C39.7604 55.9662 28.6177 59.121 28.6177 59.121L28.8019 65.7052V65.7203Z" fill="#FFD000"/>
<path d="M55.1697 60.6002C55.1198 60.5698 55.068 60.5428 55.0146 60.5195C55.0699 60.5382 55.1222 60.5654 55.1697 60.6002Z" fill="#263238"/>
<path d="M27.3578 73.0557C27.869 71.3473 29.2476 72.4762 30.1974 72.5896C30.2911 73.0322 30.2969 73.4901 30.2143 73.9351C30.1198 72.6828 26.6697 75.3512 27.3578 73.0557Z" fill="#FFD000"/>
<path d="M30.9652 69.9208C31.1001 70.4737 31.154 71.0445 31.1251 71.6141C31.2607 69.7646 27.4375 70.3694 28.7022 68.7441C29.7949 67.3456 29.9548 69.9309 30.9652 69.9208Z" fill="#FFD000"/>
<path d="M31.9705 65.7226C31.9196 66.4785 31.8711 67.7863 32.0601 68.5523C31.6676 67.4487 28.8111 66.7003 30.6064 65.6394C31.2678 65.2539 31.6676 65.3875 31.9705 65.7226Z" fill="#FFD000"/>
<path d="M35.1376 65.8565C34.5852 64.7704 31.7456 64.1455 33.1436 62.9461C34.2266 62.0163 34.6578 63.1603 35.1497 64.0573C34.9565 64.6395 34.9522 65.2715 35.1376 65.8565Z" fill="#FFD000"/>
<path d="M38.4519 63.4498C37.8155 63.1912 37.1519 63.0119 36.4749 62.9156C35.719 61.8648 34.5584 60.7208 36.0582 59.9044C38.1103 58.7856 37.5555 62.8324 38.4519 63.4498Z" fill="#FFD000"/>
<path d="M40.4435 62.1953C40.043 61.8296 39.606 61.5094 39.14 61.2403C38.4544 60.0988 37.4997 58.917 39.0407 58.403C41.1825 57.6874 39.942 61.3814 40.4435 62.1953Z" fill="#FFD000"/>
<path d="M43.0749 61.3357C43.0749 61.3357 42.5757 61.5071 41.7399 61.0712C41.7253 59.4459 39.8185 57.0546 41.8319 57.3519C44.2863 57.7198 41.013 61.1997 43.0749 61.3357Z" fill="#FFD000"/>
<path d="M46.3117 61.182H46.2972C46.2972 61.182 45.2263 61.3534 44.4219 60.794C45.3595 59.3476 43.6805 55.5553 46.2584 55.8955C48.5432 56.1878 44.7683 60.3606 46.3117 61.182Z" fill="#FFD000"/>
<path d="M48.5016 62.0919L46.4785 61.2528C46.527 61.2679 46.5803 61.2805 46.636 61.2931C48.9644 61.7291 47.4283 55.9109 49.6888 56.9389C51.9493 57.967 47.2393 61.4796 48.5016 62.0919Z" fill="#FFD000"/>
<path opacity="0.4" d="M27.3578 73.0557C27.869 71.3473 29.2476 72.4762 30.1974 72.5896C30.2911 73.0322 30.2969 73.4901 30.2143 73.9351C30.1198 72.6828 26.6697 75.3512 27.3578 73.0557Z" fill="black"/>
<path opacity="0.4" d="M30.9652 69.9208C31.1001 70.4737 31.154 71.0445 31.1251 71.6141C31.2607 69.7646 27.4375 70.3694 28.7022 68.7441C29.7949 67.3456 29.9548 69.9309 30.9652 69.9208Z" fill="black"/>
<path opacity="0.4" d="M31.9705 65.7226C31.9196 66.4785 31.8711 67.7863 32.0601 68.5523C31.6676 67.4487 28.8111 66.7003 30.6064 65.6394C31.2678 65.2539 31.6676 65.3875 31.9705 65.7226Z" fill="black"/>
<path opacity="0.4" d="M35.1376 65.8565C34.5852 64.7704 31.7456 64.1455 33.1436 62.9461C34.2266 62.0163 34.6578 63.1603 35.1497 64.0573C34.9565 64.6395 34.9522 65.2715 35.1376 65.8565Z" fill="black"/>
<path opacity="0.4" d="M38.4519 63.4498C37.8155 63.1912 37.1519 63.0119 36.4749 62.9156C35.719 61.8648 34.5584 60.7208 36.0582 59.9044C38.1103 58.7856 37.5555 62.8324 38.4519 63.4498Z" fill="black"/>
<path opacity="0.4" d="M40.4435 62.1953C40.043 61.8296 39.606 61.5094 39.14 61.2403C38.4544 60.0988 37.4997 58.917 39.0407 58.403C41.1825 57.6874 39.942 61.3814 40.4435 62.1953Z" fill="black"/>
<path opacity="0.4" d="M43.0749 61.3357C43.0749 61.3357 42.5757 61.5071 41.7399 61.0712C41.7253 59.4459 39.8185 57.0546 41.8319 57.3519C44.2863 57.7198 41.013 61.1997 43.0749 61.3357Z" fill="black"/>
<path opacity="0.4" d="M46.3117 61.182H46.2972C46.2972 61.182 45.2263 61.3534 44.4219 60.794C45.3595 59.3476 43.6805 55.5553 46.2584 55.8955C48.5432 56.1878 44.7683 60.3606 46.3117 61.182Z" fill="black"/>
<path opacity="0.4" d="M48.5016 62.0919L46.4785 61.2528C46.527 61.2679 46.5803 61.2805 46.636 61.2931C48.9644 61.7291 47.4283 55.9109 49.6888 56.9389C51.9493 57.967 47.2393 61.4796 48.5016 62.0919Z" fill="black"/>
<path d="M33.1678 102.812H32.8504L32.7632 102.406L31.7213 102.895H29.0756C29.0756 102.895 28.654 102.457 29.9139 102.106C29.9756 102.089 30.0356 102.065 30.0932 102.036C30.7643 101.708 31.7213 100.602 31.7213 100.602H33.175C33.2196 100.672 33.26 100.744 33.2962 100.819C33.4488 101.151 33.7226 101.847 33.1678 102.812Z" fill="#263238"/>
<path d="M33.2915 100.818C33.0977 100.597 32.2279 101.574 31.5955 101.904C31.0261 102.199 30.3841 102.33 30.1006 102.03C30.7717 101.703 31.8281 100.267 31.8281 100.267H32.9959C32.9959 100.267 33.2212 100.677 33.2915 100.818Z" fill="#E4897B"/>
<path d="M65.0234 69.6787L65.2317 69.9307L64.9894 70.2683L66.0361 70.7547L67.7951 72.8083C67.7951 72.8083 67.7588 73.4282 66.6685 72.6823C66.6155 72.6447 66.5586 72.6134 66.4989 72.5891C65.8181 72.2867 64.3886 72.2791 64.3886 72.2791L63.4194 71.1528C63.4407 71.0723 63.4666 70.9932 63.497 70.9159C63.6496 70.5632 63.9622 69.8879 65.0234 69.6787Z" fill="#263238"/>
<path d="M63.5093 70.9087C63.4754 71.206 64.757 71.2363 65.4185 71.5109C66.0121 71.7629 66.5306 72.1686 66.5039 72.5869C65.8231 72.2845 64.0932 72.4155 64.0932 72.4155L63.3179 71.5084C63.3179 71.5084 63.4536 71.0548 63.5093 70.9087Z" fill="#E4897B"/>
</g>
<defs>
<clipPath id="clip0_896_18806">
<rect width="120" height="120" fill="white" transform="translate(0.5)"/>
</clipPath>
</defs>
</svg>
