<svg width="210" height="210" viewBox="0 0 210 210" fill="none" xmlns="http://www.w3.org/2000/svg">
<g clip-path="url(#clip0_171_15808)">
<path opacity="0.5" d="M210 190.5C210 190.559 143.998 190.375 68.6147 190.375C-6.76813 190.375 0.773646 190.559 0.773646 190.5C0.773646 190.44 -6.79653 190.154 68.6147 190.154C144.026 190.154 210 190.436 210 190.5Z" fill="#263238"/>
<path d="M184.312 135.603C184.312 135.603 205.383 111.921 198.685 70.7148C191.987 29.5087 157.578 14.327 134.758 22.2581C111.938 30.1892 106.791 43.9933 88.1534 51.8872C69.5156 59.7812 34.1 54.3618 16.3902 80.8771C-1.31964 107.392 21.2899 151.329 50.0735 178.879C78.8572 206.43 152.307 189.182 184.312 135.603Z" fill="#FFC100"/>
<path opacity="0.7" d="M184.312 135.603C184.312 135.603 205.383 111.921 198.685 70.7148C191.987 29.5087 157.578 14.327 134.758 22.2581C111.938 30.1892 106.791 43.9933 88.1534 51.8872C69.5156 59.7812 34.1 54.3618 16.3902 80.8771C-1.31964 107.392 21.2899 151.329 50.0735 178.879C78.8572 206.43 152.307 189.182 184.312 135.603Z" fill="white"/>
<path d="M21.1006 118.695L26.6684 172.035" stroke="#263238" stroke-width="0.45" stroke-linecap="round" stroke-linejoin="round"/>
<path d="M25.5715 161.605L23.2495 159.159" stroke="#263238" stroke-width="0.45" stroke-linecap="round" stroke-linejoin="round"/>
<path d="M24.0163 159.959C24.0108 159.551 23.9182 159.149 23.7446 158.78C23.5711 158.411 23.3206 158.083 23.01 157.818C22.3625 157.241 18.9558 155.806 18.63 156.994C18.2794 158.313 21.7686 160.879 24.0163 159.959Z" fill="#FFC100" stroke="#263238" stroke-width="0.45" stroke-linejoin="round"/>
<path d="M24.0164 159.959L20.7705 157.938" stroke="#263238" stroke-width="0.45" stroke-linecap="round" stroke-linejoin="round"/>
<path d="M26.1487 167.115L23.8804 165.226" stroke="#263238" stroke-width="0.45" stroke-linecap="round" stroke-linejoin="round"/>
<path d="M24.6475 166.026C24.6433 165.618 24.5517 165.216 24.3788 164.847C24.2059 164.478 23.9558 164.15 23.6453 163.886C22.9978 163.308 19.587 161.873 19.2653 163.061C18.9106 164.38 22.3998 166.942 24.6475 166.026Z" fill="#FFC100" stroke="#263238" stroke-width="0.45" stroke-linejoin="round"/>
<path d="M24.6472 166.026L21.4014 164.005" stroke="#263238" stroke-width="0.45" stroke-linecap="round" stroke-linejoin="round"/>
<path d="M23.9958 146.419L21.7026 144.357" stroke="#263238" stroke-width="0.45" stroke-linecap="round" stroke-linejoin="round"/>
<path d="M22.4698 145.157C22.4656 144.749 22.374 144.347 22.2011 143.978C22.0282 143.609 21.7781 143.281 21.4676 143.016C20.8201 142.439 17.4093 141.004 17.0876 142.192C16.7329 143.511 20.2221 146.077 22.4698 145.157Z" fill="#FFC100" stroke="#263238" stroke-width="0.45" stroke-linejoin="round"/>
<path d="M22.47 145.157L19.2241 143.136" stroke="#263238" stroke-width="0.45" stroke-linecap="round" stroke-linejoin="round"/>
<path d="M24.6351 152.869L22.3379 150.424" stroke="#263238" stroke-width="0.45" stroke-linecap="round" stroke-linejoin="round"/>
<path d="M23.1051 151.224C23.1002 150.815 23.0078 150.412 22.8342 150.042C22.6606 149.673 22.4099 149.344 22.0988 149.079C21.4512 148.502 18.0404 147.066 17.7187 148.254C17.3847 149.578 20.8573 152.139 23.1051 151.224Z" fill="#FFC100" stroke="#263238" stroke-width="0.45" stroke-linejoin="round"/>
<path d="M23.1047 151.224L19.8589 149.203" stroke="#263238" stroke-width="0.45" stroke-linecap="round" stroke-linejoin="round"/>
<path d="M22.973 136.847L20.6758 134.504" stroke="#263238" stroke-width="0.45" stroke-linecap="round" stroke-linejoin="round"/>
<path d="M21.4426 135.304C21.4371 134.896 21.3445 134.494 21.1709 134.125C20.9973 133.756 20.7469 133.428 20.4363 133.163C19.7888 132.586 16.3821 131.151 16.0562 132.339C15.7057 133.658 19.1949 136.22 21.4426 135.304Z" fill="#FFC100" stroke="#263238" stroke-width="0.45" stroke-linejoin="round"/>
<path d="M21.4426 135.304L18.1968 133.283" stroke="#263238" stroke-width="0.45" stroke-linecap="round" stroke-linejoin="round"/>
<path d="M21.8678 126.309L19.6406 124.61" stroke="#263238" stroke-width="0.45" stroke-linecap="round" stroke-linejoin="round"/>
<path d="M20.4073 125.406C20.4031 124.998 20.3115 124.596 20.1386 124.227C19.9657 123.857 19.7156 123.529 19.4051 123.265C18.7576 122.688 15.3468 121.252 15.0251 122.44C14.6704 123.76 18.1596 126.325 20.4073 125.406Z" fill="#FFC100" stroke="#263238" stroke-width="0.45" stroke-linejoin="round"/>
<path d="M20.4075 125.406L17.1616 123.385" stroke="#263238" stroke-width="0.45" stroke-linecap="round" stroke-linejoin="round"/>
<path d="M25.3486 158.239L27.2664 155.109" stroke="#263238" stroke-width="0.45" stroke-linecap="round" stroke-linejoin="round"/>
<path d="M26.6808 156.049C26.6017 155.649 26.609 155.237 26.7022 154.84C26.7954 154.443 26.9723 154.071 27.2211 153.748C27.7366 153.047 30.7762 150.939 31.3454 152.049C31.9558 153.253 29.0687 156.503 26.6808 156.049Z" fill="#FFC100" stroke="#263238" stroke-width="0.45" stroke-linejoin="round"/>
<path d="M26.6807 156.049L28.9655 153.905" stroke="#263238" stroke-width="0.45" stroke-linecap="round" stroke-linejoin="round"/>
<path d="M23.6821 142.274L25.5999 139.144" stroke="#263238" stroke-width="0.45" stroke-linecap="round" stroke-linejoin="round"/>
<path d="M25.0143 140.084C24.9352 139.684 24.9425 139.272 25.0357 138.875C25.1289 138.478 25.3058 138.106 25.5545 137.783C26.0701 137.086 28.4416 135.333 29.0107 136.438C29.6253 137.642 27.4022 140.521 25.0143 140.084Z" fill="#FFC100" stroke="#263238" stroke-width="0.45" stroke-linejoin="round"/>
<path d="M25.0142 140.084L27.9383 137.292" stroke="#263238" stroke-width="0.45" stroke-linecap="round" stroke-linejoin="round"/>
<path d="M22.9482 135.259L24.8702 132.132" stroke="#263238" stroke-width="0.45" stroke-linecap="round" stroke-linejoin="round"/>
<path d="M24.2843 133.069C24.203 132.67 24.2076 132.258 24.2979 131.861C24.3883 131.465 24.5622 131.092 24.8081 130.767C25.3195 130.07 28.3591 127.963 28.9324 129.068C29.5552 130.276 26.6723 133.506 24.2843 133.069Z" fill="#FFC100" stroke="#263238" stroke-width="0.45" stroke-linejoin="round"/>
<path d="M24.2847 133.069L27.2047 130.276" stroke="#263238" stroke-width="0.45" stroke-linecap="round" stroke-linejoin="round"/>
<path d="M21.876 124.977L23.7938 121.846" stroke="#263238" stroke-width="0.45" stroke-linecap="round" stroke-linejoin="round"/>
<path d="M23.2078 122.787C23.1288 122.386 23.1366 121.974 23.2305 121.577C23.3244 121.18 23.5023 120.808 23.7522 120.485C24.2637 119.784 27.3033 117.677 27.8766 118.786C28.4828 119.99 25.5999 123.22 23.2078 122.787Z" fill="#FFC100" stroke="#263238" stroke-width="0.45" stroke-linejoin="round"/>
<path d="M23.208 122.787L26.1322 119.995" stroke="#263238" stroke-width="0.45" stroke-linecap="round" stroke-linejoin="round"/>
<path d="M21.0548 118.398C20.9739 117.997 20.9803 117.582 21.0735 117.183C21.1667 116.784 21.3446 116.409 21.5951 116.085C22.1106 115.388 25.1502 113.28 25.7194 114.385C26.3298 115.606 23.4428 118.836 21.0548 118.398Z" fill="#FFC100" stroke="#263238" stroke-width="0.45" stroke-linejoin="round"/>
<path d="M21.0552 118.398L23.9793 115.606" stroke="#263238" stroke-width="0.45" stroke-linecap="round" stroke-linejoin="round"/>
<path d="M21.2246 118.522C20.8181 118.556 20.4091 118.503 20.0246 118.367C19.64 118.232 19.2885 118.016 18.9933 117.734C18.3499 117.149 16.5724 113.903 17.756 113.462C18.9975 112.983 21.9216 116.192 21.2246 118.522Z" fill="#FFC100" stroke="#263238" stroke-width="0.45" stroke-linejoin="round"/>
<path d="M21.2239 118.522L18.7534 115.322" stroke="#263238" stroke-width="0.45" stroke-linecap="round" stroke-linejoin="round"/>
<path d="M29.4399 104.322V171.775" stroke="#263238" stroke-width="0.45" stroke-linecap="round" stroke-linejoin="round"/>
<path d="M35.7829 126.041L30.248 179.381" stroke="#263238" stroke-width="0.45" stroke-linecap="round" stroke-linejoin="round"/>
<path d="M31.4194 168.484L30.1367 167.02" stroke="#263238" stroke-width="0.45" stroke-linecap="round" stroke-linejoin="round"/>
<path d="M30.1365 167.02C30.2156 166.62 30.2083 166.208 30.1151 165.811C30.0219 165.414 29.845 165.042 29.5963 164.719C29.0807 164.022 26.0411 161.914 25.4719 163.024C24.8615 164.228 27.7486 167.457 30.1365 167.02Z" fill="#FFC100" stroke="#263238" stroke-width="0.45" stroke-linejoin="round"/>
<path d="M30.1366 167.02L27.3774 164.372" stroke="#263238" stroke-width="0.45" stroke-linecap="round" stroke-linejoin="round"/>
<path d="M32.9829 153.257L31.0815 151.669" stroke="#263238" stroke-width="0.45" stroke-linecap="round" stroke-linejoin="round"/>
<path d="M31.6753 152.218C31.7561 151.816 31.7493 151.401 31.6554 151.002C31.5615 150.602 31.3825 150.228 31.1309 149.904C30.6153 149.203 27.5757 147.1 27.0065 148.209C26.4003 149.426 29.2873 152.655 31.6753 152.218Z" fill="#FFC100" stroke="#263238" stroke-width="0.45" stroke-linejoin="round"/>
<path d="M31.6752 152.218L28.916 149.57" stroke="#263238" stroke-width="0.45" stroke-linecap="round" stroke-linejoin="round"/>
<path d="M32.3804 160.471L30.4585 157.344" stroke="#263238" stroke-width="0.45" stroke-linecap="round" stroke-linejoin="round"/>
<path d="M31.0443 158.285C31.1233 157.885 31.116 157.473 31.0228 157.076C30.9296 156.679 30.7527 156.306 30.504 155.983C29.9884 155.282 26.9488 153.179 26.3797 154.284C25.7693 155.493 28.6563 158.718 31.0443 158.285Z" fill="#FFC100" stroke="#263238" stroke-width="0.45" stroke-linejoin="round"/>
<path d="M31.0438 158.285L28.2847 155.637" stroke="#263238" stroke-width="0.45" stroke-linecap="round" stroke-linejoin="round"/>
<path d="M33.9435 143.536L32.1123 141.425" stroke="#263238" stroke-width="0.45" stroke-linecap="round" stroke-linejoin="round"/>
<path d="M32.6977 142.365C32.7767 141.964 32.769 141.552 32.6751 141.155C32.5812 140.758 32.4033 140.386 32.1533 140.063C31.6378 139.362 28.5982 137.259 28.029 138.364C27.4227 139.593 30.3098 142.798 32.6977 142.365Z" fill="#FFC100" stroke="#263238" stroke-width="0.45" stroke-linejoin="round"/>
<path d="M32.6981 142.365L29.939 139.717" stroke="#263238" stroke-width="0.45" stroke-linecap="round" stroke-linejoin="round"/>
<path d="M34.909 134.273L33.1396 131.526" stroke="#263238" stroke-width="0.45" stroke-linecap="round" stroke-linejoin="round"/>
<path d="M33.7251 132.466C33.8041 132.066 33.7964 131.654 33.7025 131.257C33.6085 130.86 33.4306 130.487 33.1807 130.165C32.6651 129.464 29.6255 127.36 29.0564 128.466C28.4501 129.695 31.3371 132.899 33.7251 132.466Z" fill="#FFC100" stroke="#263238" stroke-width="0.45" stroke-linejoin="round"/>
<path d="M33.725 132.466L30.9658 129.819" stroke="#263238" stroke-width="0.45" stroke-linecap="round" stroke-linejoin="round"/>
<path d="M31.7949 165.609L34.319 162.941" stroke="#263238" stroke-width="0.45" stroke-linecap="round" stroke-linejoin="round"/>
<path d="M33.5518 163.741C33.556 163.333 33.6476 162.931 33.8205 162.562C33.9934 162.193 34.2435 161.865 34.554 161.601C35.2015 161.023 38.6123 159.584 38.934 160.776C39.2887 162.091 35.7995 164.657 33.5518 163.741Z" fill="#FFC100" stroke="#263238" stroke-width="0.45" stroke-linejoin="round"/>
<path d="M33.5518 163.741L36.9873 161.609" stroke="#263238" stroke-width="0.45" stroke-linecap="round" stroke-linejoin="round"/>
<path d="M33.4526 149.644L35.9767 146.98" stroke="#263238" stroke-width="0.45" stroke-linecap="round" stroke-linejoin="round"/>
<path d="M35.2095 147.776C35.2139 147.368 35.3057 146.966 35.4786 146.597C35.6515 146.228 35.9014 145.9 36.2117 145.635C36.8592 145.058 40.2659 143.623 40.5917 144.811C40.9423 146.126 37.4572 148.696 35.2095 147.776Z" fill="#FFC100" stroke="#263238" stroke-width="0.45" stroke-linejoin="round"/>
<path d="M35.2095 147.776L38.645 145.648" stroke="#263238" stroke-width="0.45" stroke-linecap="round" stroke-linejoin="round"/>
<path d="M34.1826 142.629L36.7026 139.964" stroke="#263238" stroke-width="0.45" stroke-linecap="round" stroke-linejoin="round"/>
<path d="M35.9438 140.765C35.9504 140.356 36.0434 139.954 36.2169 139.584C36.3904 139.215 36.6403 138.886 36.9502 138.62C37.5936 138.042 41.0044 136.607 41.3261 137.795C41.6725 139.111 38.1834 141.68 35.9438 140.765Z" fill="#FFC100" stroke="#263238" stroke-width="0.45" stroke-linejoin="round"/>
<path d="M35.9355 140.765L39.3711 138.632" stroke="#263238" stroke-width="0.45" stroke-linecap="round" stroke-linejoin="round"/>
<path d="M35.2183 131.819L37.7712 129.678" stroke="#263238" stroke-width="0.45" stroke-linecap="round" stroke-linejoin="round"/>
<path d="M37.0039 130.478C37.0081 130.071 37.0998 129.669 37.2727 129.299C37.4455 128.93 37.6957 128.602 38.0061 128.338C38.6536 127.756 42.0645 126.321 42.3861 127.513C42.7408 128.829 39.2434 131.394 37.0039 130.478Z" fill="#FFC100" stroke="#263238" stroke-width="0.45" stroke-linejoin="round"/>
<path d="M37.0039 130.478L40.4395 128.346" stroke="#263238" stroke-width="0.45" stroke-linejoin="round"/>
<path d="M35.7993 125.744C35.8037 125.335 35.8955 124.933 36.0683 124.563C36.2412 124.193 36.4912 123.864 36.8015 123.599C37.449 123.022 40.8557 121.586 41.1816 122.774C41.5362 124.094 38.0471 126.659 35.7993 125.744Z" fill="#FFC100" stroke="#263238" stroke-width="0.45" stroke-linejoin="round"/>
<path d="M35.7993 125.744L39.2349 123.611" stroke="#263238" stroke-width="0.45" stroke-linecap="round" stroke-linejoin="round"/>
<path d="M35.9439 125.896C35.538 125.845 35.1475 125.709 34.7984 125.495C34.4493 125.282 34.1495 124.997 33.9189 124.659C33.4116 123.958 32.3434 120.415 33.5683 120.221C34.9005 120.019 37.0864 123.756 35.9439 125.896Z" fill="#FFC100" stroke="#263238" stroke-width="0.45" stroke-linejoin="round"/>
<path d="M35.9398 125.896L34.1787 122.255" stroke="#263238" stroke-width="0.45" stroke-linecap="round" stroke-linejoin="round"/>
<path d="M29.3491 161.51L27.2622 158.718" stroke="#263238" stroke-width="0.45" stroke-linecap="round" stroke-linejoin="round"/>
<path d="M27.943 159.592C27.9803 159.186 27.93 158.777 27.7955 158.392C27.661 158.007 27.4455 157.655 27.1635 157.361C26.582 156.717 23.3403 154.936 22.8907 156.099C22.4082 157.361 25.6334 160.273 27.943 159.592Z" fill="#FFC100" stroke="#263238" stroke-width="0.45" stroke-linejoin="round"/>
<path d="M27.9423 159.592L24.9233 157.245" stroke="#263238" stroke-width="0.45" stroke-linecap="round" stroke-linejoin="round"/>
<path d="M29.4234 148.056L27.2622 146.044" stroke="#263238" stroke-width="0.45" stroke-linecap="round" stroke-linejoin="round"/>
<path d="M27.943 146.918C27.9803 146.511 27.9301 146.101 27.7956 145.716C27.6612 145.33 27.4456 144.978 27.1635 144.683C26.582 144.039 23.3403 142.262 22.8907 143.421C22.4082 144.683 25.6334 147.594 27.943 146.918Z" fill="#FFC100" stroke="#263238" stroke-width="0.45" stroke-linejoin="round"/>
<path d="M27.9423 146.918L24.9233 144.567" stroke="#263238" stroke-width="0.45" stroke-linecap="round" stroke-linejoin="round"/>
<path d="M29.4935 134.075L27.2622 131.159" stroke="#263238" stroke-width="0.45" stroke-linecap="round" stroke-linejoin="round"/>
<path d="M27.943 132.033C27.9803 131.627 27.93 131.218 27.7955 130.833C27.661 130.448 27.4455 130.097 27.1635 129.802C26.582 129.159 23.3403 127.377 22.8907 128.54C22.4082 129.802 25.6334 132.714 27.943 132.033Z" fill="#FFC100" stroke="#263238" stroke-width="0.45" stroke-linejoin="round"/>
<path d="M27.9423 132.033L24.9233 129.687" stroke="#263238" stroke-width="0.45" stroke-linecap="round" stroke-linejoin="round"/>
<path d="M29.3491 123.133L27.2622 121.252" stroke="#263238" stroke-width="0.45" stroke-linecap="round" stroke-linejoin="round"/>
<path d="M27.943 122.127C27.9803 121.721 27.93 121.311 27.7955 120.926C27.661 120.542 27.4455 120.19 27.1635 119.895C26.582 119.252 23.3403 117.47 22.8907 118.633C22.4082 119.895 25.6334 122.807 27.943 122.127Z" fill="#FFC100" stroke="#263238" stroke-width="0.45" stroke-linejoin="round"/>
<path d="M27.9423 122.127L24.9233 119.78" stroke="#263238" stroke-width="0.45" stroke-linecap="round" stroke-linejoin="round"/>
<path d="M29.4685 113.222L27.3032 111.635" stroke="#263238" stroke-width="0.45" stroke-linecap="round" stroke-linejoin="round"/>
<path d="M27.943 112.175C27.9803 111.769 27.93 111.359 27.7955 110.975C27.661 110.59 27.4455 110.238 27.1635 109.944C26.582 109.3 23.3403 107.518 22.8907 108.681C22.4082 109.944 25.6334 112.855 27.943 112.175Z" fill="#FFC100" stroke="#263238" stroke-width="0.45" stroke-linejoin="round"/>
<path d="M27.9423 112.175L24.9233 109.828" stroke="#263238" stroke-width="0.45" stroke-linecap="round" stroke-linejoin="round"/>
<path d="M29.877 164.875L31.6793 162.59" stroke="#263238" stroke-width="0.45" stroke-linecap="round" stroke-linejoin="round"/>
<path d="M30.9947 163.465C30.9587 163.059 31.0092 162.649 31.1428 162.264C31.2765 161.879 31.4902 161.526 31.77 161.229C32.3557 160.586 35.5974 158.808 36.0428 159.967C36.5336 161.229 33.329 164.145 30.9947 163.465Z" fill="#FFC100" stroke="#263238" stroke-width="0.45" stroke-linejoin="round"/>
<path d="M30.999 163.465L34.1954 160.99" stroke="#263238" stroke-width="0.45" stroke-linecap="round" stroke-linejoin="round"/>
<path d="M29.4438 145.343L31.6792 142.431" stroke="#263238" stroke-width="0.45" stroke-linecap="round" stroke-linejoin="round"/>
<path d="M30.9947 143.305C30.9587 142.899 31.0092 142.49 31.1428 142.104C31.2765 141.719 31.4902 141.366 31.77 141.07C32.3557 140.426 35.5974 138.649 36.0428 139.808C36.5336 141.07 33.329 143.982 30.9947 143.305Z" fill="#FFC100" stroke="#263238" stroke-width="0.45" stroke-linejoin="round"/>
<path d="M30.999 143.305L34.1954 140.826" stroke="#263238" stroke-width="0.45" stroke-linecap="round" stroke-linejoin="round"/>
<path d="M29.4438 135.391L31.6792 132.479" stroke="#263238" stroke-width="0.45" stroke-linecap="round" stroke-linejoin="round"/>
<path d="M30.9947 133.353C30.9587 132.947 31.0092 132.538 31.1428 132.152C31.2765 131.767 31.4902 131.414 31.77 131.118C32.3557 130.479 35.5974 128.697 36.0428 129.856C36.5336 131.118 33.329 134.034 30.9947 133.353Z" fill="#FFC100" stroke="#263238" stroke-width="0.45" stroke-linejoin="round"/>
<path d="M30.999 133.353L34.1954 130.879" stroke="#263238" stroke-width="0.45" stroke-linecap="round" stroke-linejoin="round"/>
<path d="M29.4438 122.238L31.6792 119.326" stroke="#263238" stroke-width="0.45" stroke-linecap="round" stroke-linejoin="round"/>
<path d="M30.9947 120.209C30.9587 119.803 31.0092 119.394 31.1428 119.008C31.2765 118.623 31.4902 118.27 31.77 117.974C32.3557 117.334 35.5974 115.553 36.0428 116.712C36.5336 117.965 33.329 120.881 30.9947 120.209Z" fill="#FFC100" stroke="#263238" stroke-width="0.45" stroke-linejoin="round"/>
<path d="M30.999 120.201L34.1954 117.726" stroke="#263238" stroke-width="0.45" stroke-linecap="round" stroke-linejoin="round"/>
<path d="M29.543 110.888L31.733 109.18" stroke="#263238" stroke-width="0.45" stroke-linecap="round" stroke-linejoin="round"/>
<path d="M30.9947 109.861C30.9587 109.455 31.0092 109.046 31.1428 108.66C31.2765 108.275 31.4902 107.922 31.77 107.626C32.3557 106.986 35.5974 105.205 36.0428 106.364C36.5336 107.626 33.329 110.542 30.9947 109.861Z" fill="#FFC100" stroke="#263238" stroke-width="0.45" stroke-linejoin="round"/>
<path d="M30.999 109.861L34.1954 107.386" stroke="#263238" stroke-width="0.45" stroke-linecap="round" stroke-linejoin="round"/>
<path d="M29.312 105.275C29.2761 104.868 29.3266 104.459 29.4602 104.074C29.5939 103.689 29.8076 103.336 30.0874 103.039C30.6731 102.4 33.9148 100.618 34.3602 101.777C34.8469 103.039 31.6423 105.955 29.312 105.275Z" fill="#FFC100" stroke="#263238" stroke-width="0.45" stroke-linejoin="round"/>
<path d="M29.312 105.275L32.5084 102.8" stroke="#263238" stroke-width="0.45" stroke-linecap="round" stroke-linejoin="round"/>
<path d="M29.4687 105.411C29.0608 105.405 28.6588 105.313 28.2896 105.139C27.9205 104.966 27.5927 104.715 27.3282 104.405C26.7508 103.757 25.3196 100.346 26.5033 100.024C27.8272 99.6739 30.3884 103.167 29.4687 105.411Z" fill="#FFC100" stroke="#263238" stroke-width="0.45" stroke-linejoin="round"/>
<path d="M29.4685 105.411L27.3403 101.975" stroke="#263238" stroke-width="0.45" stroke-linecap="round" stroke-linejoin="round"/>
<path d="M32.2158 189.267H25.0725L24.1816 171.227H33.1108L32.2158 189.267Z" fill="#263238" stroke="#263238" stroke-width="0.45" stroke-linecap="round" stroke-linejoin="round"/>
<path d="M115.886 117.41L119.037 125.292H110.734V126.71H128.655L124.023 117.344L115.886 117.41Z" fill="white" stroke="#263238" stroke-width="0.45" stroke-linejoin="round"/>
<path d="M115.122 117.41L118.278 125.292H109.971V126.71H127.891L123.26 117.344L115.122 117.41Z" fill="white" stroke="#263238" stroke-width="0.45" stroke-linejoin="round"/>
<path d="M141.613 117.484H96.9505C96.7474 117.484 96.5466 117.442 96.36 117.362C96.1734 117.282 96.0049 117.166 95.8647 117.019C95.7244 116.872 95.6153 116.698 95.5439 116.508C95.4725 116.318 95.4403 116.116 95.4492 115.913L96.9051 82.1965C96.9252 81.745 97.1187 81.3186 97.4451 81.006C97.7715 80.6933 98.2059 80.5186 98.6579 80.5179H143.316C143.529 80.5183 143.74 80.5618 143.937 80.6457C144.133 80.7296 144.31 80.8523 144.457 81.0064C144.605 81.1604 144.72 81.3427 144.795 81.5423C144.87 81.7418 144.905 81.9546 144.896 82.1677L143.448 115.711C143.426 116.185 143.224 116.632 142.883 116.962C142.541 117.292 142.087 117.478 141.613 117.484Z" fill="white" stroke="#263238" stroke-width="0.45" stroke-linejoin="round"/>
<path d="M139.328 117.484H94.6494C94.4462 117.484 94.2451 117.443 94.0582 117.364C93.8713 117.284 93.7026 117.167 93.5622 117.02C93.4219 116.873 93.3128 116.699 93.2416 116.509C93.1704 116.319 93.1386 116.116 93.1481 115.913L94.604 82.1965C94.6232 81.7447 94.8163 81.3177 95.1429 81.0048C95.4696 80.692 95.9045 80.5175 96.3568 80.5179H141.048C141.261 80.5183 141.472 80.5618 141.668 80.6457C141.865 80.7296 142.042 80.8523 142.189 81.0064C142.337 81.1604 142.452 81.3427 142.527 81.5423C142.602 81.7418 142.637 81.9546 142.628 82.1677L141.176 115.711C141.156 116.188 140.952 116.638 140.608 116.968C140.264 117.299 139.805 117.484 139.328 117.484Z" fill="#263238" stroke="#263238" stroke-width="0.45" stroke-linejoin="round"/>
<path d="M139.279 109.764H95.5854L96.7815 82.0646H140.475L139.279 109.764Z" fill="white" stroke="#263238" stroke-width="0.45" stroke-linejoin="round"/>
<path d="M112.829 94.0005C112.869 93.2557 112.75 92.5109 112.478 91.8163C112.206 91.1216 111.789 90.4933 111.254 89.9735C110.719 89.4538 110.079 89.0547 109.376 88.8031C108.674 88.5516 107.926 88.4534 107.183 88.5151C105.86 88.6221 104.614 89.1763 103.648 90.0863C102.683 90.9964 102.056 92.2082 101.871 93.5221C101.772 94.2264 101.817 94.9433 102.002 95.63C102.187 96.3167 102.508 96.959 102.947 97.5185C103.719 98.5017 104.108 99.7308 104.044 100.979L104.011 101.734H109.955L109.988 100.979C110.05 99.7005 110.546 98.4815 111.394 97.5227C112.258 96.5454 112.764 95.3034 112.829 94.0005Z" fill="white" stroke="#263238" stroke-width="0.45" stroke-linecap="round" stroke-linejoin="round"/>
<path d="M109.888 103.206H103.945L104.011 101.734H109.954L109.888 103.206Z" fill="white" stroke="#263238" stroke-width="0.45" stroke-linecap="round" stroke-linejoin="round"/>
<path d="M108.354 104.699H105.347C105.157 104.7 104.968 104.663 104.793 104.588C104.617 104.514 104.459 104.404 104.327 104.266C104.196 104.128 104.094 103.965 104.029 103.786C103.963 103.607 103.934 103.417 103.945 103.226H109.909C109.889 103.625 109.716 104 109.426 104.274C109.137 104.548 108.753 104.7 108.354 104.699Z" fill="white" stroke="#263238" stroke-width="0.45" stroke-linecap="round" stroke-linejoin="round"/>
<path d="M107.538 106.146H106.032C105.842 106.148 105.653 106.11 105.478 106.036C105.302 105.961 105.144 105.852 105.012 105.714C104.881 105.576 104.779 105.412 104.714 105.234C104.648 105.055 104.619 104.864 104.63 104.674H109.084C109.064 105.071 108.893 105.445 108.605 105.719C108.317 105.993 107.935 106.146 107.538 106.146Z" fill="white" stroke="#263238" stroke-width="0.45" stroke-linecap="round" stroke-linejoin="round"/>
<path d="M113.608 94.0292H116.124" stroke="#263238" stroke-width="0.45" stroke-linecap="round" stroke-linejoin="round"/>
<path d="M98.291 94.0293H100.844" stroke="#263238" stroke-width="0.45" stroke-linecap="round" stroke-linejoin="round"/>
<path d="M107.497 87.6366L107.608 85.1125" stroke="#263238" stroke-width="0.45" stroke-linecap="round" stroke-linejoin="round"/>
<path d="M111.979 89.4639L113.794 87.7234" stroke="#263238" stroke-width="0.45" stroke-linecap="round" stroke-linejoin="round"/>
<path d="M100.621 100.335L102.465 98.5702" stroke="#263238" stroke-width="0.45" stroke-linecap="round" stroke-linejoin="round"/>
<path d="M102.799 89.4144L101.187 87.7234" stroke="#263238" stroke-width="0.45" stroke-linecap="round" stroke-linejoin="round"/>
<path d="M113.233 100.335L111.625 98.6527" stroke="#263238" stroke-width="0.45" stroke-linecap="round" stroke-linejoin="round"/>
<path d="M133.417 94.0004C133.458 93.2558 133.339 92.5111 133.068 91.8164C132.797 91.1218 132.38 90.4934 131.845 89.9736C131.31 89.4538 130.67 89.0546 129.968 88.803C129.266 88.5514 128.519 88.4532 127.775 88.515C126.453 88.6213 125.206 89.1752 124.24 90.0854C123.274 90.9956 122.648 92.2078 122.463 93.522C122.364 94.226 122.408 94.9428 122.592 95.6295C122.777 96.3161 123.097 96.9586 123.536 97.5184C124.306 98.5023 124.697 99.7305 124.637 100.979L124.6 101.733H130.547L130.58 100.979C130.643 99.7004 131.139 98.4814 131.986 97.5226C132.851 96.546 133.356 95.3033 133.417 94.0004Z" fill="#263238" stroke="white" stroke-width="0.45" stroke-linecap="round" stroke-linejoin="round"/>
<path d="M130.498 103.206H124.55L124.616 101.734H130.564L130.498 103.206Z" fill="#263238" stroke="white" stroke-width="0.45" stroke-linecap="round" stroke-linejoin="round"/>
<path d="M128.96 104.699H125.957C125.766 104.7 125.577 104.663 125.402 104.588C125.226 104.514 125.068 104.404 124.936 104.266C124.804 104.129 124.702 103.965 124.636 103.786C124.57 103.607 124.541 103.417 124.551 103.226H130.498C130.477 103.622 130.306 103.994 130.02 104.267C129.735 104.541 129.355 104.695 128.96 104.699Z" fill="#263238" stroke="white" stroke-width="0.45" stroke-linecap="round" stroke-linejoin="round"/>
<path d="M128.147 106.146H126.642C126.451 106.148 126.262 106.11 126.086 106.036C125.911 105.961 125.752 105.852 125.621 105.714C125.489 105.576 125.387 105.413 125.32 105.234C125.254 105.055 125.225 104.865 125.235 104.674H129.681C129.66 105.068 129.49 105.44 129.205 105.714C128.92 105.987 128.542 106.142 128.147 106.146Z" fill="#263238" stroke="white" stroke-width="0.45" stroke-linecap="round" stroke-linejoin="round"/>
<path d="M134.214 94.0292H136.734" stroke="#263238" stroke-width="0.45" stroke-linecap="round" stroke-linejoin="round"/>
<path d="M118.9 94.0293H121.453" stroke="#263238" stroke-width="0.45" stroke-linecap="round" stroke-linejoin="round"/>
<path d="M128.102 87.6366L128.217 85.1125" stroke="#263238" stroke-width="0.45" stroke-linecap="round" stroke-linejoin="round"/>
<path d="M132.589 89.4639L134.404 87.7234" stroke="#263238" stroke-width="0.45" stroke-linecap="round" stroke-linejoin="round"/>
<path d="M121.23 100.335L123.074 98.5702" stroke="#263238" stroke-width="0.45" stroke-linecap="round" stroke-linejoin="round"/>
<path d="M123.408 89.4144L121.795 87.7234" stroke="#263238" stroke-width="0.45" stroke-linecap="round" stroke-linejoin="round"/>
<path d="M133.839 100.335L132.234 98.6527" stroke="#263238" stroke-width="0.45" stroke-linecap="round" stroke-linejoin="round"/>
<path d="M139.328 117.484H94.6494C94.4462 117.485 94.2451 117.443 94.0582 117.364C93.8713 117.284 93.7026 117.167 93.5622 117.02C93.4219 116.873 93.3128 116.699 93.2416 116.509C93.1704 116.319 93.1386 116.116 93.1481 115.913L93.3337 111.578H141.341L141.159 115.703C141.141 116.178 140.941 116.628 140.6 116.96C140.259 117.292 139.804 117.479 139.328 117.484Z" fill="white" stroke="#263238" stroke-width="0.45" stroke-linejoin="round"/>
<path d="M153.264 127.774H130.288V195.211H153.264V127.774Z" fill="#263238" stroke="#263238" stroke-width="0.45" stroke-linejoin="round"/>
<path d="M154.762 127.774H131.785V195.211H154.762V127.774Z" fill="#7D7D7D" stroke="#263238" stroke-width="0.45" stroke-linejoin="round"/>
<path d="M154.762 127.774H131.785V131.313H154.762V127.774Z" fill="#263238" stroke="#263238" stroke-width="0.45" stroke-linejoin="round"/>
<path d="M87.0772 127.774H64.1006V195.211H87.0772V127.774Z" fill="#263238" stroke="#263238" stroke-width="0.45" stroke-linejoin="round"/>
<path d="M88.5743 127.774H65.5977V195.211H88.5743V127.774Z" fill="#7D7D7D" stroke="#263238" stroke-width="0.45" stroke-linejoin="round"/>
<path d="M160.61 126.562H60.8506V128.847H160.61V126.562Z" fill="#263238" stroke="#263238" stroke-width="0.45" stroke-linejoin="round"/>
<path d="M160.61 126.562H130.589V128.847H160.61V126.562Z" fill="white" stroke="#263238" stroke-width="0.45" stroke-linejoin="round"/>
<path d="M123.519 126.558L123.474 126.438C123.119 125.534 122.5 124.757 121.698 124.21C120.895 123.663 119.946 123.37 118.974 123.37H117.065C116.236 123.372 115.421 123.587 114.699 123.994C113.977 124.402 113.371 124.987 112.941 125.696L112.384 126.558H123.519Z" fill="white" stroke="#263238" stroke-width="0.45" stroke-linejoin="round"/>
<path d="M83.1014 75.6884C83.1014 75.6884 83.1014 75.9977 83.1014 76.4514C83.0726 77.5732 83.0231 79.5941 83.0231 80.0725C83.0231 80.7365 81.9755 81.6893 81.9755 82.3574C81.9755 83.0255 82.5488 85.1207 82.7385 85.7847C82.9282 86.4487 81.0228 87.022 81.0228 87.022C81.0228 87.022 80.1649 90.1689 78.9276 90.9277C77.6903 91.6866 75.2157 90.9277 74.7373 90.8329C74.2589 90.738 72.737 90.2637 72.737 90.2637L72.6422 95.1181L64.7358 91.8805L65.338 86.5601L65.404 85.9744C65.404 85.9744 65.6886 81.4995 65.3091 79.3095C64.641 75.478 66.167 70.5453 72.0689 69.3081C73.9186 68.8968 75.8456 68.9987 77.6417 69.6028C79.4378 70.2068 81.0347 71.29 82.2601 72.7354C82.92 73.5932 83.1014 75.6884 83.1014 75.6884Z" fill="white" stroke="#263238" stroke-width="0.45" stroke-linejoin="round"/>
<path d="M73.5864 80.5469L84.0622 81.5945" stroke="#263238" stroke-width="0.45" stroke-linejoin="round"/>
<path d="M82.5402 81.1201L84.5405 81.3098C84.5405 81.3098 84.2518 83.9741 82.2515 83.9741" stroke="#263238" stroke-width="0.45" stroke-linejoin="round"/>
<path d="M79.8718 87.5952C79.8718 87.5952 79.014 87.6901 78.4448 86.2631" stroke="#263238" stroke-width="0.45" stroke-linejoin="round"/>
<path d="M81.4927 81.5944L80.9194 82.8317" stroke="#263238" stroke-width="0.45" stroke-linejoin="round"/>
<path d="M80.9194 80.2622C80.9194 80.2622 81.5876 79.2146 82.6351 80.5468" stroke="#263238" stroke-width="0.45" stroke-linejoin="round"/>
<path d="M83.1014 75.6882C83.1014 75.6882 83.1014 75.9975 83.1014 76.4512L82.9612 76.3192C82.9612 76.3192 80.3546 73.9519 78.577 73.5972C76.7994 73.2425 77.2737 75.8449 77.6325 76.3192C77.9914 76.7935 80.3546 77.738 79.1668 78.5711C77.979 79.4042 76.919 80.1095 76.919 80.1095L76.1684 82.1139C76.1008 82.2954 75.9808 82.4526 75.8237 82.5658C75.6666 82.679 75.4794 82.7429 75.2859 82.7496C75.0924 82.7562 74.9012 82.7052 74.7367 82.603C74.5722 82.5009 74.4418 82.3522 74.3619 82.1758C74.0444 81.4746 73.3969 80.0724 73.1247 79.6311C72.77 79.0413 70.4273 79.8414 70.6501 82.1056C70.6639 82.5262 70.7849 82.9363 71.0014 83.2971C71.2179 83.658 71.5228 83.9576 71.8874 84.1678C71.8874 84.1678 73.0257 84.9514 70.4232 86.6094C67.8208 88.2674 66.8722 88.5025 65.5689 86.8486C65.4988 86.762 65.4287 86.663 65.3503 86.5517L65.4163 85.966C65.4163 85.966 65.7009 81.4911 65.3214 79.3011C64.6533 75.4696 66.1793 70.5369 72.0812 69.2996C73.931 68.8884 75.8579 68.9903 77.654 69.5943C79.4501 70.1984 81.047 71.2815 82.2724 72.7269C82.9199 73.593 83.1014 75.6882 83.1014 75.6882Z" fill="#263238" stroke="#263238" stroke-width="0.45" stroke-linejoin="round"/>
<path d="M105.348 186.224C105.348 186.224 109.286 187.618 111.571 187.495C113.856 187.371 115.634 186.348 116.145 187.239C116.657 188.13 115.634 189.524 115.382 190.031C115.131 190.538 110.173 191.813 108.523 192.572C106.874 193.331 102.555 194.733 100.778 194.984C99.0003 195.236 98.2373 190.666 98.2373 190.666L105.348 186.224Z" fill="white" stroke="#263238" stroke-width="0.45" stroke-linejoin="round"/>
<path d="M106.49 191.937C104.107 192.687 101.687 193.316 99.2397 193.821C99.6274 194.543 100.135 195.079 100.778 194.984C102.556 194.733 106.874 193.335 108.524 192.572C110.173 191.809 115.123 190.543 115.382 190.031C115.642 189.52 116.653 188.13 116.145 187.239C114.24 190.922 110.429 190.666 106.49 191.937Z" fill="white" stroke="#263238" stroke-width="0.45" stroke-linejoin="round"/>
<path d="M88.8379 151.423L98.2372 190.666C99.5937 190.536 100.921 190.193 102.172 189.652C104.205 188.761 104.84 188.253 105.348 187.618C105.855 186.983 105.22 184.826 105.22 184.447C105.22 184.067 104.077 183.556 104.077 183.556L100.522 149.774L88.8379 151.423Z" fill="#263238" stroke="#263238" stroke-width="0.45" stroke-linejoin="round"/>
<path d="M96.8103 187.288C96.8103 187.288 98.3363 189.701 99.7304 190.464C101.124 191.227 102.399 191.734 103.162 191.734C103.925 191.734 104.56 193.26 104.684 193.768C104.768 194.186 104.811 194.611 104.812 195.038H93.1273C93.1273 195.038 86.017 194.147 85.3818 192.497C84.7467 190.848 89.5721 184.624 89.5721 184.624L96.8103 187.288Z" fill="white" stroke="#263238" stroke-width="0.45" stroke-linejoin="round"/>
<path d="M104.733 194.015C101.999 193.986 95.8701 193.858 92.8758 193.26C90.3841 192.719 87.9215 192.051 85.4974 191.26C85.3286 191.65 85.2881 192.083 85.382 192.497C86.0171 194.147 93.1274 195.038 93.1274 195.038H104.812C104.809 194.696 104.783 194.354 104.733 194.015Z" fill="white" stroke="#263238" stroke-width="0.45" stroke-linejoin="round"/>
<path d="M79.0798 133.92L82.635 137.091C82.635 137.091 98.0022 138.238 103.335 138.489C108.668 138.741 112.223 140.267 112.099 142.808C111.975 145.348 97.1485 185.214 97.1485 185.214L97.1278 187.54C97.1278 187.54 96.4927 188.175 93.7005 187.54C92.0735 187.186 90.5239 186.54 89.1266 185.635C89.1266 185.635 88.6194 183.222 89.8896 182.207C91.1599 181.193 92.5416 174.94 92.5416 174.94L97.7465 149.782H59.0108C57.6042 145.216 57.3435 140.375 58.252 135.685C58.252 135.685 71.7138 138.238 79.0798 133.92Z" fill="#263238" stroke="#263238" stroke-width="0.45" stroke-linejoin="round"/>
<path d="M74.1513 95.8273C72.1985 94.3954 70.1645 93.0775 68.0596 91.8803C64.7148 89.9955 63.9353 90.94 62.2278 91.9669C60.5204 92.9939 52.9605 97.8895 52.3625 99.5186C51.7644 101.148 52.3625 103.206 52.3625 103.206C52.3625 103.206 55.2784 121.225 56.0496 128.43C56.8209 135.635 59.0521 139.24 63.7703 139.755C68.4886 140.271 75.9536 137.693 77.9291 136.58C79.9047 135.466 80.0738 135.895 79.9006 133.75C79.7273 131.606 77.8384 123.968 77.5827 122.252C77.327 120.536 77.5002 116.676 77.5002 116.676C77.5002 116.676 79.2984 108.015 77.9126 103.292C77.1668 100.579 75.8882 98.0413 74.1513 95.8273Z" fill="#FFC100" stroke="#263238" stroke-width="0.45" stroke-linejoin="round"/>
<path d="M98.1594 119.695L111.972 122.553C111.972 122.553 115.972 120.363 117.02 120.264C118.068 120.165 120.352 121.885 120.831 122.075C121.309 122.264 121.784 123.027 121.973 123.695C122.163 124.364 122.926 124.17 122.258 124.743C121.59 125.316 120.736 124.17 120.736 124.17C120.736 124.17 118.831 124.265 117.783 124.838C116.735 125.411 115.399 126.265 113.972 126.459C112.884 126.539 111.791 126.441 110.734 126.17L96.7324 125.122C96.7324 125.122 98.6379 122.075 98.1594 119.695Z" fill="white" stroke="#263238" stroke-width="0.45" stroke-linejoin="round"/>
<path d="M118.542 123.122C118.542 123.122 119.688 122.743 120.447 123.027C121.206 123.312 121.973 123.695 121.973 123.695" stroke="#263238" stroke-width="0.45" stroke-linejoin="round"/>
<path d="M73.8377 114.874L69.8247 113.937" stroke="#263238" stroke-width="0.45" stroke-linejoin="round"/>
<path d="M72.8233 95.5963C72.8233 95.5963 75.3969 96.1696 77.0137 97.7863C78.6304 99.4031 89.6836 115.599 90.063 115.884C90.4425 116.168 96.2495 119.216 96.2495 119.216C96.2495 119.216 96.7279 121.98 95.8701 122.928C95.0122 123.877 92.917 125.118 92.917 125.118C92.917 125.118 87.774 124.549 86.1532 124.165C84.5323 123.782 69.8662 111.879 69.8662 111.879" fill="#FFC100"/>
<path d="M72.8233 95.5963C72.8233 95.5963 75.3969 96.1696 77.0137 97.7863C78.6304 99.4031 89.6836 115.599 90.063 115.884C90.4425 116.168 96.2495 119.216 96.2495 119.216C96.2495 119.216 96.7279 121.98 95.8701 122.928C95.0122 123.877 92.917 125.118 92.917 125.118C92.917 125.118 87.774 124.549 86.1532 124.165C84.5323 123.782 69.8662 111.879 69.8662 111.879" stroke="#263238" stroke-width="0.45" stroke-linejoin="round"/>
<path d="M87.2788 117.072C87.8521 117.096 88.4377 117.109 89.0399 117.109" stroke="#263238" stroke-width="0.45" stroke-linejoin="round"/>
<path d="M76.5562 115.208C79.5599 116.159 82.6646 116.756 85.807 116.985" stroke="#263238" stroke-width="0.45" stroke-linejoin="round"/>
<path d="M93.8737 117.789C93.8737 117.789 94.8265 120.363 93.9686 122.169C93.3984 123.314 92.5864 124.322 91.5889 125.122C91.5889 125.122 95.9689 125.885 96.8268 125.885C97.6846 125.885 99.2065 122.174 99.1116 120.264C99.0168 118.354 93.8737 117.789 93.8737 117.789Z" fill="white" stroke="#263238" stroke-width="0.45" stroke-linejoin="round"/>
<path d="M97.7466 149.794C100.491 148.977 103.071 147.687 105.372 145.983" stroke="#878787" stroke-width="0.45" stroke-linejoin="round"/>
<path d="M100.159 149.159C100.159 149.159 103.842 148.652 105.875 147.254" stroke="#878787" stroke-width="0.45" stroke-linejoin="round"/>
<path d="M80.6764 150.136C80.6764 150.136 70.147 132.979 67.392 109.046C66.7403 103.387 62.1995 99.1185 56.7925 99.1185C50.4122 99.1185 45.4547 104.987 46.1847 111.677C47.3272 122.128 49.8554 137.372 55.4067 150.553L80.6764 150.136Z" fill="white" stroke="#263238" stroke-width="0.45" stroke-linejoin="round"/>
<path d="M79.216 150.136C79.216 150.136 68.6866 132.979 65.9315 109.046C65.2799 103.387 60.739 99.1185 55.332 99.1185C48.9517 99.1185 43.9943 104.987 44.7243 111.677C45.8667 122.128 48.3949 137.372 53.9463 150.553L79.216 150.136Z" fill="#263238" stroke="#263238" stroke-width="0.45" stroke-linejoin="round"/>
<path d="M79.6328 153.382H74.3784V182.154H79.6328V153.382Z" fill="#263238" stroke="#263238" stroke-width="0.45" stroke-linejoin="round"/>
<path d="M81.2617 177.027H72.3779V183.407H81.2617V177.027Z" fill="#263238" stroke="#263238" stroke-width="0.45" stroke-linejoin="round"/>
<path d="M72.5018 180.281L55.8643 190.538V192.415H57.4892V191.161L72.378 183.407L72.5018 180.281Z" fill="white" stroke="#263238" stroke-width="0.45" stroke-linejoin="round"/>
<path d="M60.0047 192.79C60.0047 192.345 59.8727 191.91 59.6252 191.539C59.3778 191.169 59.0261 190.88 58.6146 190.71C58.2031 190.539 57.7504 190.495 57.3135 190.582C56.8767 190.669 56.4755 190.883 56.1605 191.198C55.8456 191.513 55.6311 191.914 55.5442 192.351C55.4574 192.788 55.502 193.241 55.6724 193.652C55.8428 194.064 56.1315 194.415 56.5018 194.663C56.8721 194.91 57.3075 195.042 57.7529 195.042C58.0486 195.042 58.3414 194.984 58.6146 194.871C58.8878 194.758 59.1361 194.592 59.3452 194.383C59.5543 194.174 59.7202 193.925 59.8333 193.652C59.9465 193.379 60.0047 193.086 60.0047 192.79Z" fill="#263238" stroke="#263238" stroke-width="0.45" stroke-linejoin="round"/>
<path d="M81.2573 180.281L97.8948 190.538V192.415H96.2699V191.161L81.3811 183.407L81.2573 180.281Z" fill="white" stroke="#263238" stroke-width="0.45" stroke-linejoin="round"/>
<path d="M93.7666 192.79C93.7666 192.345 93.8987 191.91 94.1461 191.539C94.3936 191.169 94.7452 190.88 95.1567 190.71C95.5682 190.539 96.021 190.495 96.4578 190.582C96.8946 190.669 97.2959 190.883 97.6108 191.198C97.9257 191.513 98.1402 191.914 98.2271 192.351C98.314 192.788 98.2694 193.241 98.0989 193.652C97.9285 194.064 97.6399 194.415 97.2696 194.663C96.8992 194.91 96.4639 195.042 96.0185 195.042C95.4212 195.042 94.8485 194.805 94.4262 194.383C94.0039 193.96 93.7666 193.388 93.7666 192.79Z" fill="#263238" stroke="#263238" stroke-width="0.45" stroke-linejoin="round"/>
<path d="M74.7539 192.79C74.7539 192.345 74.886 191.909 75.1334 191.539C75.3809 191.169 75.7326 190.88 76.144 190.71C76.5555 190.539 77.0083 190.495 77.4451 190.582C77.8819 190.668 78.2832 190.883 78.5981 191.198C78.913 191.513 79.1275 191.914 79.2144 192.351C79.3013 192.788 79.2567 193.24 79.0863 193.652C78.9158 194.063 78.6272 194.415 78.2569 194.663C77.8866 194.91 77.4512 195.042 77.0058 195.042C76.7099 195.043 76.4169 194.985 76.1434 194.872C75.8699 194.759 75.6215 194.593 75.4123 194.384C75.203 194.175 75.0372 193.926 74.9242 193.653C74.8112 193.379 74.7534 193.086 74.7539 192.79Z" fill="#263238" stroke="#263238" stroke-width="0.45" stroke-linejoin="round"/>
<path d="M77.6324 180.153H76.2549V190.538H77.6324V180.153Z" fill="white" stroke="#263238" stroke-width="0.45" stroke-linejoin="round"/>
<path d="M89.9693 135.006L86.416 149.991L89.0125 150.607L92.5657 135.622L89.9693 135.006Z" fill="white" stroke="#263238" stroke-width="0.45" stroke-linejoin="round"/>
<path d="M97.7469 132.522H82.5075C81.4551 132.522 80.6021 133.375 80.6021 134.427C80.6021 135.479 81.4551 136.332 82.5075 136.332H97.7469C98.7992 136.332 99.6523 135.479 99.6523 134.427C99.6523 133.375 98.7992 132.522 97.7469 132.522Z" fill="#263238" stroke="#263238" stroke-width="0.45" stroke-linejoin="round"/>
<path d="M97.6188 154.492H55.0764C54.4704 154.492 53.8892 154.251 53.4607 153.823C53.0322 153.394 52.7915 152.813 52.7915 152.207C52.7915 151.601 53.0321 151.019 53.4605 150.59C53.8889 150.161 54.47 149.919 55.0764 149.918H97.6188C98.2255 149.919 98.8071 150.161 99.2361 150.59C99.6652 151.019 99.9067 151.6 99.9078 152.207C99.9067 152.813 99.665 153.394 99.2359 153.823C98.8067 154.251 98.2251 154.492 97.6188 154.492Z" fill="#263238" stroke="#263238" stroke-width="0.45" stroke-linejoin="round"/>
<path d="M97.6189 154.492H79.2038C78.5978 154.492 78.0167 154.251 77.5882 153.823C77.1597 153.394 76.9189 152.813 76.9189 152.207C76.9189 151.601 77.1595 151.019 77.5879 150.59C78.0163 150.161 78.5975 149.919 79.2038 149.918H97.6189C98.2257 149.919 98.8072 150.161 99.2363 150.59C99.6653 151.019 99.9068 151.6 99.9079 152.207C99.9068 152.813 99.6652 153.394 99.236 153.823C98.8069 154.251 98.2253 154.492 97.6189 154.492Z" fill="white" stroke="#263238" stroke-width="0.45" stroke-linejoin="round"/>
<path d="M177.238 14.1617H136.548V62.1977H177.238V14.1617Z" stroke="#FFC100" stroke-width="0.45" stroke-linejoin="round"/>
<path d="M169.567 34.5152C169.567 32.5234 169.088 30.5607 168.17 28.7932C167.251 27.0258 165.921 25.5055 164.291 24.3611C162.66 23.2167 160.778 22.4818 158.804 22.2185C156.83 21.9553 154.821 22.1715 152.948 22.8488C151.075 23.5261 149.392 24.6447 148.043 26.1098C146.693 27.5749 145.717 29.3435 145.195 31.2659C144.674 33.1883 144.624 35.208 145.048 37.1541C145.472 39.1002 146.359 40.9155 147.634 42.4463C149.461 44.6388 150.461 47.4034 150.459 50.2578V51.957H163.867V50.2578C163.865 47.4091 164.863 44.6502 166.688 42.4628C168.551 40.2337 169.57 37.4202 169.567 34.5152Z" fill="white" stroke="#263238" stroke-width="1.35" stroke-linecap="round" stroke-linejoin="round"/>
<path d="M163.868 51.953H150.459V55.269H163.868V51.953Z" fill="white" stroke="#263238" stroke-width="1.35" stroke-linecap="round" stroke-linejoin="round"/>
<path d="M150.459 55.2771H163.867V56.6464C163.867 57.1638 163.662 57.66 163.296 58.0258C162.93 58.3916 162.434 58.5972 161.916 58.5972H152.389C151.872 58.5972 151.376 58.3916 151.01 58.0258C150.644 57.66 150.438 57.1638 150.438 56.6464V55.2771H150.459Z" fill="white" stroke="#263238" stroke-width="1.35" stroke-linecap="round" stroke-linejoin="round"/>
<path d="M152.15 58.589H162.172V59.2613C162.172 59.9624 161.893 60.6348 161.398 61.1306C160.902 61.6264 160.229 61.9049 159.528 61.9049H154.794C154.092 61.9049 153.42 61.6264 152.924 61.1306C152.428 60.6348 152.15 59.9624 152.15 59.2613V58.589Z" fill="white" stroke="#263238" stroke-width="1.35" stroke-linecap="round" stroke-linejoin="round"/>
<path d="M171.324 34.5771H177.008" stroke="#263238" stroke-width="1.35" stroke-linecap="round" stroke-linejoin="round"/>
<path d="M136.787 34.5771H142.541" stroke="#263238" stroke-width="1.35" stroke-linecap="round" stroke-linejoin="round"/>
<path d="M156.897 20.1668V14.4711" stroke="#263238" stroke-width="1.35" stroke-linecap="round" stroke-linejoin="round"/>
<path d="M167.196 24.2788L171.118 20.3607" stroke="#263238" stroke-width="1.35" stroke-linecap="round" stroke-linejoin="round"/>
<path d="M142.677 48.7978L146.657 44.8179" stroke="#263238" stroke-width="1.35" stroke-linecap="round" stroke-linejoin="round"/>
<path d="M146.488 24.1673L142.677 20.3606" stroke="#263238" stroke-width="1.35" stroke-linecap="round" stroke-linejoin="round"/>
<path d="M171.118 48.7978L167.324 45.0076" stroke="#263238" stroke-width="1.35" stroke-linecap="round" stroke-linejoin="round"/>
<path d="M126.266 14.1617H85.5757V62.1977H126.266V14.1617Z" stroke="#FFC100" stroke-width="0.45" stroke-linejoin="round"/>
<path d="M118.356 34.5153C118.357 32.523 117.879 30.5596 116.961 28.7915C116.042 27.0233 114.712 25.5024 113.081 24.3574C111.451 23.2124 109.569 22.4771 107.594 22.2137C105.619 21.9503 103.61 22.1666 101.736 22.8442C99.8625 23.5218 98.1798 24.6408 96.8304 26.1065C95.4809 27.5722 94.5044 29.3415 93.9835 31.2645C93.4627 33.1875 93.4128 35.2078 93.8381 37.1542C94.2634 39.1006 95.1514 40.9158 96.4269 42.4464C98.2546 44.6388 99.2545 47.4035 99.2521 50.2578V51.957H112.656V50.2578C112.654 47.4092 113.652 44.6503 115.477 42.4629C117.342 40.2352 118.362 37.4208 118.356 34.5153Z" stroke="#263238" stroke-width="1.35" stroke-linecap="round" stroke-linejoin="round"/>
<path d="M112.66 51.953H99.252V55.269H112.66V51.953Z" stroke="#263238" stroke-width="1.35" stroke-linecap="round" stroke-linejoin="round"/>
<path d="M99.2517 55.2771H112.66V56.6464C112.66 56.9026 112.609 57.1562 112.511 57.3929C112.413 57.6296 112.27 57.8447 112.088 58.0258C111.907 58.2069 111.692 58.3506 111.456 58.4487C111.219 58.5467 110.965 58.5972 110.709 58.5972H101.198C100.681 58.5972 100.185 58.3916 99.8189 58.0258C99.4531 57.66 99.2476 57.1638 99.2476 56.6464V55.2771H99.2517Z" stroke="#263238" stroke-width="1.35" stroke-linecap="round" stroke-linejoin="round"/>
<path d="M100.943 58.589H110.965V59.2613C110.965 59.9624 110.686 60.6348 110.191 61.1306C109.695 61.6264 109.022 61.9049 108.321 61.9049H103.587C102.885 61.9049 102.213 61.6264 101.717 61.1306C101.221 60.6348 100.943 59.9624 100.943 59.2613V58.589Z" stroke="#263238" stroke-width="1.35" stroke-linecap="round" stroke-linejoin="round"/>
<path d="M91.5557 34.5771H120.339" stroke="#FFC100" stroke-width="0.45" stroke-linejoin="round"/>
<path d="M105.913 54.6873V20.1667" stroke="#FFC100" stroke-width="0.45" stroke-linejoin="round"/>
<path d="M95.6719 44.8178L116.211 24.2787" stroke="#FFC100" stroke-width="0.45" stroke-linejoin="round"/>
<path d="M116.339 45.0074L95.499 24.1672" stroke="#FFC100" stroke-width="0.45" stroke-linejoin="round"/>
<path d="M105.95 54.8482C117.157 54.8482 126.242 45.7633 126.242 34.5566C126.242 23.3498 117.157 14.2649 105.95 14.2649C94.7431 14.2649 85.6582 23.3498 85.6582 34.5566C85.6582 45.7633 94.7431 54.8482 105.95 54.8482Z" stroke="#FFC100" stroke-width="0.45" stroke-linejoin="round"/>
<path d="M105.95 48.9504C113.899 48.9504 120.343 42.506 120.343 34.5565C120.343 26.607 113.899 20.1626 105.95 20.1626C98 20.1626 91.5557 26.607 91.5557 34.5565C91.5557 42.506 98 48.9504 105.95 48.9504Z" stroke="#FFC100" stroke-width="0.45" stroke-linejoin="round"/>
<path d="M120.117 34.5771H125.796" stroke="#263238" stroke-width="1.35" stroke-linecap="round" stroke-linejoin="round"/>
<path d="M85.5796 34.5771H91.333" stroke="#263238" stroke-width="1.35" stroke-linecap="round" stroke-linejoin="round"/>
<path d="M105.686 20.1668V14.4711" stroke="#263238" stroke-width="1.35" stroke-linecap="round" stroke-linejoin="round"/>
<path d="M115.984 24.2788L119.907 20.3607" stroke="#263238" stroke-width="1.35" stroke-linecap="round" stroke-linejoin="round"/>
<path d="M91.4692 48.7978L95.4492 44.8179" stroke="#263238" stroke-width="1.35" stroke-linecap="round" stroke-linejoin="round"/>
<path d="M95.276 24.1675L91.4692 20.3607" stroke="#263238" stroke-width="1.35" stroke-linecap="round" stroke-linejoin="round"/>
<path d="M119.906 48.7978L116.116 45.0076" stroke="#263238" stroke-width="1.35" stroke-linecap="round" stroke-linejoin="round"/>
<path d="M75.2399 14.1617H34.5493V62.1977H75.2399V14.1617Z" stroke="#FFC100" stroke-width="0.45" stroke-linejoin="round"/>
<path d="M55.0513 46.9172C61.9006 46.9172 67.4531 41.3647 67.4531 34.5154C67.4531 27.666 61.9006 22.1135 55.0513 22.1135C48.2019 22.1135 42.6494 27.666 42.6494 34.5154C42.6494 41.3647 48.2019 46.9172 55.0513 46.9172Z" stroke="#263238" stroke-width="0.45" stroke-linejoin="round"/>
<path d="M61.7573 36.5322H48.3491V51.9489H61.7573V36.5322Z" stroke="#263238" stroke-width="0.45" stroke-linejoin="round"/>
<path d="M61.7573 51.9529H48.3491V55.2688H61.7573V51.9529Z" stroke="#263238" stroke-width="0.45" stroke-linejoin="round"/>
<path d="M61.7573 55.2771H48.3491V58.5931H61.7573V55.2771Z" stroke="#263238" stroke-width="0.45" stroke-linejoin="round"/>
<path d="M60.0621 58.589H50.04V61.9049H60.0621V58.589Z" stroke="#263238" stroke-width="0.45" stroke-linejoin="round"/>
<path d="M34.916 34.6019H75.1364" stroke="#FFC100" stroke-width="0.45" stroke-linejoin="round"/>
<path d="M54.9766 54.8894V14.4711" stroke="#FFC100" stroke-width="0.45" stroke-linejoin="round"/>
<path d="M40.6655 48.905L69.3667 20.2203" stroke="#FFC100" stroke-width="0.45" stroke-linejoin="round"/>
<path d="M69.2763 48.8391L40.6123 20.2988" stroke="#FFC100" stroke-width="0.45" stroke-linejoin="round"/>
<path d="M55.0514 54.8482C66.2582 54.8482 75.3431 45.7633 75.3431 34.5566C75.3431 23.3498 66.2582 14.2649 55.0514 14.2649C43.8447 14.2649 34.7598 23.3498 34.7598 34.5566C34.7598 45.7633 43.8447 54.8482 55.0514 54.8482Z" stroke="#FFC100" stroke-width="0.45" stroke-linejoin="round"/>
<path d="M55.0511 48.9504C63.0006 48.9504 69.445 42.506 69.445 34.5565C69.445 26.607 63.0006 20.1626 55.0511 20.1626C47.1016 20.1626 40.6572 26.607 40.6572 34.5565C40.6572 42.506 47.1016 48.9504 55.0511 48.9504Z" stroke="#FFC100" stroke-width="0.45" stroke-linejoin="round"/>
</g>
<defs>
<clipPath id="clip0_171_15808">
<rect width="210" height="210" fill="white"/>
</clipPath>
</defs>
</svg>
