<svg width="121" height="120" viewBox="0 0 121 120" fill="none" xmlns="http://www.w3.org/2000/svg">
<g clip-path="url(#clip0_159_13827)">
<path opacity="0.5" d="M120.5 108.857C120.5 108.891 82.7844 108.785 39.7085 108.785C-3.36737 108.785 0.942223 108.891 0.942223 108.857C0.942223 108.823 -3.38359 108.659 39.7085 108.659C82.8007 108.659 120.5 108.82 120.5 108.857Z" fill="#263238"/>
<path d="M105.821 77.487C105.821 77.487 117.862 63.9545 114.034 40.4082C110.207 16.8618 90.5446 8.18661 77.5046 12.7186C64.4647 17.2507 61.5235 25.1387 50.8733 29.6496C40.2231 34.1604 19.9857 31.0636 9.86576 46.2152C-0.254148 61.3668 12.6656 86.4733 29.1134 102.216C45.5612 117.96 87.5326 108.104 105.821 77.487Z" fill="#FFD000"/>
<path opacity="0.7" d="M105.821 77.487C105.821 77.487 117.862 63.9545 114.034 40.4082C110.207 16.8618 90.5446 8.18661 77.5046 12.7186C64.4647 17.2507 61.5235 25.1387 50.8733 29.6496C40.2231 34.1604 19.9857 31.0636 9.86576 46.2152C-0.254148 61.3668 12.6656 86.4733 29.1134 102.216C45.5612 117.96 87.5326 108.104 105.821 77.487Z" fill="white"/>
<path d="M12.5571 67.8257L15.7387 98.3056" stroke="#263238" stroke-width="0.5" stroke-linecap="round" stroke-linejoin="round"/>
<path d="M15.112 92.3453L13.7852 90.9478" stroke="#263238" stroke-width="0.5" stroke-linecap="round" stroke-linejoin="round"/>
<path d="M14.2233 91.405C14.2201 91.1719 14.1672 90.9422 14.068 90.7313C13.9688 90.5203 13.8257 90.333 13.6482 90.1819C13.2782 89.8519 11.3315 89.0318 11.1454 89.7105C10.945 90.4647 12.9388 91.9306 14.2233 91.405Z" fill="#FFD000" stroke="#263238" stroke-width="0.5" stroke-linejoin="round"/>
<path d="M14.2234 91.4048L12.3687 90.25" stroke="#263238" stroke-width="0.5" stroke-linecap="round" stroke-linejoin="round"/>
<path d="M15.4422 95.4939L14.146 94.4146" stroke="#263238" stroke-width="0.5" stroke-linecap="round" stroke-linejoin="round"/>
<path d="M14.584 94.8718C14.5816 94.6388 14.5293 94.4091 14.4305 94.1981C14.3317 93.9871 14.1887 93.7997 14.0113 93.6487C13.6413 93.3187 11.6923 92.4986 11.5085 93.1773C11.3058 93.9315 13.2996 95.395 14.584 94.8718Z" fill="#FFD000" stroke="#263238" stroke-width="0.5" stroke-linejoin="round"/>
<path d="M14.5843 94.8716L12.7295 93.7168" stroke="#263238" stroke-width="0.5" stroke-linecap="round" stroke-linejoin="round"/>
<path d="M14.2117 83.6676L12.9014 82.4893" stroke="#263238" stroke-width="0.5" stroke-linecap="round" stroke-linejoin="round"/>
<path d="M13.3399 82.9465C13.3375 82.7135 13.2851 82.4838 13.1863 82.2728C13.0875 82.0618 12.9446 81.8744 12.7672 81.7234C12.3972 81.3934 10.4482 80.5733 10.2643 81.252C10.0616 82.0062 12.0555 83.4721 13.3399 82.9465Z" fill="#FFD000" stroke="#263238" stroke-width="0.5" stroke-linejoin="round"/>
<path d="M13.3396 82.9463L11.4849 81.7915" stroke="#263238" stroke-width="0.5" stroke-linecap="round" stroke-linejoin="round"/>
<path d="M14.5769 87.3536L13.2642 85.9561" stroke="#263238" stroke-width="0.5" stroke-linecap="round" stroke-linejoin="round"/>
<path d="M13.7026 86.4132C13.6997 86.1797 13.647 85.9496 13.5478 85.7382C13.4486 85.5268 13.3053 85.3391 13.1275 85.1877C12.7575 84.8578 10.8085 84.0376 10.6246 84.7164C10.4337 85.4729 12.4181 86.9364 13.7026 86.4132Z" fill="#FFD000" stroke="#263238" stroke-width="0.5" stroke-linejoin="round"/>
<path d="M13.7024 86.4131L11.8477 85.2583" stroke="#263238" stroke-width="0.5" stroke-linecap="round" stroke-linejoin="round"/>
<path d="M13.6272 78.1975L12.3145 76.8589" stroke="#263238" stroke-width="0.5" stroke-linecap="round" stroke-linejoin="round"/>
<path d="M12.7526 77.3161C12.7494 77.0831 12.6965 76.8533 12.5973 76.6424C12.4981 76.4314 12.355 76.2441 12.1775 76.093C11.8075 75.763 9.86083 74.9429 9.67465 75.6216C9.47433 76.3758 11.4681 77.8393 12.7526 77.3161Z" fill="#FFD000" stroke="#263238" stroke-width="0.5" stroke-linejoin="round"/>
<path d="M12.7527 77.3164L10.8979 76.1616" stroke="#263238" stroke-width="0.5" stroke-linecap="round" stroke-linejoin="round"/>
<path d="M12.9958 72.1761L11.7231 71.2051" stroke="#263238" stroke-width="0.5" stroke-linecap="round" stroke-linejoin="round"/>
<path d="M12.1612 71.6599C12.1588 71.4269 12.1064 71.1972 12.0076 70.9861C11.9088 70.7751 11.7659 70.5878 11.5885 70.4367C11.2185 70.1068 9.26944 69.2866 9.08562 69.9654C8.88293 70.7195 10.8767 72.1854 12.1612 71.6599Z" fill="#FFD000" stroke="#263238" stroke-width="0.5" stroke-linejoin="round"/>
<path d="M12.1614 71.6602L10.3066 70.5054" stroke="#263238" stroke-width="0.5" stroke-linecap="round" stroke-linejoin="round"/>
<path d="M14.9849 90.4221L16.0808 88.6333" stroke="#263238" stroke-width="0.5" stroke-linecap="round" stroke-linejoin="round"/>
<path d="M15.7459 89.1706C15.7007 88.942 15.7049 88.7065 15.7581 88.4797C15.8114 88.2529 15.9125 88.0401 16.0546 87.8555C16.3492 87.4549 18.0861 86.2506 18.4114 86.8845C18.7602 87.5727 17.1104 89.4298 15.7459 89.1706Z" fill="#FFD000" stroke="#263238" stroke-width="0.5" stroke-linejoin="round"/>
<path d="M15.7456 89.1708L17.0512 87.9453" stroke="#263238" stroke-width="0.5" stroke-linecap="round" stroke-linejoin="round"/>
<path d="M14.0327 81.299L15.1286 79.5103" stroke="#263238" stroke-width="0.5" stroke-linecap="round" stroke-linejoin="round"/>
<path d="M14.7937 80.0479C14.7486 79.8194 14.7527 79.5838 14.806 79.3571C14.8592 79.1303 14.9603 78.9174 15.1025 78.7329C15.3971 78.3346 16.7522 77.333 17.0774 77.9646C17.4286 78.6527 16.1583 80.2978 14.7937 80.0479Z" fill="#FFD000" stroke="#263238" stroke-width="0.5" stroke-linejoin="round"/>
<path d="M14.7939 80.0477L16.4649 78.4521" stroke="#263238" stroke-width="0.5" stroke-linecap="round" stroke-linejoin="round"/>
<path d="M13.6133 77.2903L14.7115 75.5039" stroke="#263238" stroke-width="0.5" stroke-linecap="round" stroke-linejoin="round"/>
<path d="M14.3767 76.0391C14.3303 75.8112 14.3329 75.576 14.3845 75.3493C14.4361 75.1225 14.5355 74.9093 14.676 74.724C14.9683 74.3257 16.7052 73.1214 17.0328 73.753C17.3887 74.4436 15.7413 76.2889 14.3767 76.0391Z" fill="#FFD000" stroke="#263238" stroke-width="0.5" stroke-linejoin="round"/>
<path d="M14.3765 76.0389L16.045 74.4434" stroke="#263238" stroke-width="0.5" stroke-linecap="round" stroke-linejoin="round"/>
<path d="M13.0005 71.4148L14.0964 69.626" stroke="#263238" stroke-width="0.5" stroke-linecap="round" stroke-linejoin="round"/>
<path d="M13.7618 70.1633C13.7167 69.9346 13.7211 69.6989 13.7748 69.472C13.8284 69.2451 13.9301 69.0324 14.0729 68.8482C14.3652 68.4476 16.1021 67.2433 16.4297 67.8772C16.7761 68.5654 15.1287 70.4107 13.7618 70.1633Z" fill="#FFD000" stroke="#263238" stroke-width="0.5" stroke-linejoin="round"/>
<path d="M13.7617 70.1634L15.4327 68.5679" stroke="#263238" stroke-width="0.5" stroke-linecap="round" stroke-linejoin="round"/>
<path d="M12.5312 67.656C12.485 67.4264 12.4886 67.1895 12.5419 66.9614C12.5951 66.7333 12.6968 66.5193 12.8399 66.3339C13.1345 65.9356 14.8714 64.7313 15.1967 65.3629C15.5455 66.0605 13.8957 67.9058 12.5312 67.656Z" fill="#FFD000" stroke="#263238" stroke-width="0.5" stroke-linejoin="round"/>
<path d="M12.5312 67.6561L14.2022 66.0605" stroke="#263238" stroke-width="0.5" stroke-linecap="round" stroke-linejoin="round"/>
<path d="M12.6279 67.7267C12.3957 67.746 12.162 67.7159 11.9422 67.6383C11.7224 67.5607 11.5216 67.4374 11.3529 67.2766C10.9853 66.9419 9.96951 65.0872 10.6459 64.835C11.3553 64.5616 13.0262 66.3952 12.6279 67.7267Z" fill="#FFD000" stroke="#263238" stroke-width="0.5" stroke-linejoin="round"/>
<path d="M12.628 67.7268L11.2163 65.8979" stroke="#263238" stroke-width="0.5" stroke-linecap="round" stroke-linejoin="round"/>
<path d="M17.3228 59.6123V98.157" stroke="#263238" stroke-width="0.5" stroke-linecap="round" stroke-linejoin="round"/>
<path d="M20.9474 72.0229L17.7847 102.503" stroke="#263238" stroke-width="0.5" stroke-linecap="round" stroke-linejoin="round"/>
<path d="M18.4537 96.2761L17.7207 95.4395" stroke="#263238" stroke-width="0.5" stroke-linecap="round" stroke-linejoin="round"/>
<path d="M17.7211 95.4397C17.7663 95.2112 17.7621 94.9757 17.7088 94.7489C17.6556 94.5221 17.5545 94.3093 17.4124 94.1247C17.1178 93.7264 15.3808 92.5221 15.0556 93.1561C14.7068 93.8442 16.3565 95.6896 17.7211 95.4397Z" fill="#FFD000" stroke="#263238" stroke-width="0.5" stroke-linejoin="round"/>
<path d="M17.7207 95.4398L16.144 93.9268" stroke="#263238" stroke-width="0.5" stroke-linecap="round" stroke-linejoin="round"/>
<path d="M19.3472 87.5753L18.2607 86.668" stroke="#263238" stroke-width="0.5" stroke-linecap="round" stroke-linejoin="round"/>
<path d="M18.5998 86.9812C18.646 86.7514 18.6421 86.5144 18.5885 86.2862C18.5348 86.0581 18.4325 85.8442 18.2887 85.6591C17.9941 85.2584 16.2572 84.0565 15.932 84.6905C15.5855 85.3857 17.2352 87.231 18.5998 86.9812Z" fill="#FFD000" stroke="#263238" stroke-width="0.5" stroke-linejoin="round"/>
<path d="M18.6001 86.9813L17.0234 85.4683" stroke="#263238" stroke-width="0.5" stroke-linecap="round" stroke-linejoin="round"/>
<path d="M19.003 91.6971L17.9048 89.9106" stroke="#263238" stroke-width="0.5" stroke-linecap="round" stroke-linejoin="round"/>
<path d="M18.2396 90.448C18.2848 90.2195 18.2806 89.9839 18.2274 89.7571C18.1741 89.5303 18.0731 89.3175 17.9309 89.1329C17.6363 88.7323 15.8994 87.5303 15.5742 88.162C15.2254 88.8525 16.8751 90.6955 18.2396 90.448Z" fill="#FFD000" stroke="#263238" stroke-width="0.5" stroke-linejoin="round"/>
<path d="M18.2393 90.4481L16.6626 88.9351" stroke="#263238" stroke-width="0.5" stroke-linecap="round" stroke-linejoin="round"/>
<path d="M19.896 82.0201L18.8496 80.8135" stroke="#263238" stroke-width="0.5" stroke-linecap="round" stroke-linejoin="round"/>
<path d="M19.1843 81.3508C19.2294 81.1221 19.225 80.8864 19.1714 80.6596C19.1177 80.4327 19.016 80.22 18.8732 80.0358C18.5786 79.6351 16.8417 78.4332 16.5164 79.0648C16.17 79.7671 17.8197 81.5983 19.1843 81.3508Z" fill="#FFD000" stroke="#263238" stroke-width="0.5" stroke-linejoin="round"/>
<path d="M19.1846 81.3509L17.6079 79.8379" stroke="#263238" stroke-width="0.5" stroke-linecap="round" stroke-linejoin="round"/>
<path d="M20.4476 76.7273L19.4365 75.1577" stroke="#263238" stroke-width="0.5" stroke-linecap="round" stroke-linejoin="round"/>
<path d="M19.7712 75.6946C19.8163 75.4659 19.8119 75.2302 19.7583 75.0033C19.7046 74.7765 19.6029 74.5638 19.4601 74.3795C19.1655 73.9789 17.4286 72.7769 17.1033 73.4085C16.7569 74.1109 18.4066 75.9421 19.7712 75.6946Z" fill="#FFD000" stroke="#263238" stroke-width="0.5" stroke-linejoin="round"/>
<path d="M19.7715 75.6947L18.1948 74.1816" stroke="#263238" stroke-width="0.5" stroke-linecap="round" stroke-linejoin="round"/>
<path d="M18.6685 94.6337L20.1108 93.1089" stroke="#263238" stroke-width="0.5" stroke-linecap="round" stroke-linejoin="round"/>
<path d="M19.6724 93.5662C19.6748 93.3332 19.7271 93.1035 19.8259 92.8925C19.9247 92.6814 20.0677 92.4941 20.2451 92.343C20.6151 92.0131 22.5641 91.1906 22.7479 91.8717C22.9506 92.6235 20.9568 94.0894 19.6724 93.5662Z" fill="#FFD000" stroke="#263238" stroke-width="0.5" stroke-linejoin="round"/>
<path d="M19.6724 93.5661L21.6355 92.3477" stroke="#263238" stroke-width="0.5" stroke-linecap="round" stroke-linejoin="round"/>
<path d="M19.6157 85.5107L21.0581 83.9883" stroke="#263238" stroke-width="0.5" stroke-linecap="round" stroke-linejoin="round"/>
<path d="M20.6196 84.4431C20.6222 84.2101 20.6746 83.9804 20.7734 83.7695C20.8722 83.5585 21.015 83.3711 21.1923 83.2199C21.5623 82.89 23.509 82.0698 23.6952 82.7486C23.8955 83.5004 21.9041 84.9687 20.6196 84.4431Z" fill="#FFD000" stroke="#263238" stroke-width="0.5" stroke-linejoin="round"/>
<path d="M20.6196 84.4431L22.5828 83.2271" stroke="#263238" stroke-width="0.5" stroke-linecap="round" stroke-linejoin="round"/>
<path d="M20.0327 81.502L21.4727 79.9795" stroke="#263238" stroke-width="0.5" stroke-linecap="round" stroke-linejoin="round"/>
<path d="M21.0396 80.4367C21.0433 80.2033 21.0965 79.9735 21.1956 79.7622C21.2947 79.551 21.4375 79.3631 21.6146 79.2112C21.9823 78.8812 23.9313 78.0611 24.1151 78.7398C24.3131 79.4916 22.3193 80.9599 21.0396 80.4367Z" fill="#FFD000" stroke="#263238" stroke-width="0.5" stroke-linejoin="round"/>
<path d="M21.0347 80.4367L22.9978 79.2183" stroke="#263238" stroke-width="0.5" stroke-linecap="round" stroke-linejoin="round"/>
<path d="M20.6245 75.3247L22.0833 74.1016" stroke="#263238" stroke-width="0.5" stroke-linecap="round" stroke-linejoin="round"/>
<path d="M21.645 74.5588C21.6474 74.3258 21.6998 74.096 21.7986 73.885C21.8974 73.674 22.0403 73.4867 22.2177 73.3356C22.5877 73.0033 24.5368 72.1832 24.7206 72.8643C24.9233 73.6161 22.9247 75.082 21.645 74.5588Z" fill="#FFD000" stroke="#263238" stroke-width="0.5" stroke-linejoin="round"/>
<path d="M21.645 74.5588L23.6082 73.3403" stroke="#263238" stroke-width="0.5" stroke-linejoin="round"/>
<path d="M20.9565 71.8532C20.9591 71.6199 21.0115 71.3898 21.1103 71.1784C21.209 70.9671 21.3519 70.7793 21.5292 70.6277C21.8992 70.2977 23.8459 69.4776 24.0321 70.1563C24.2348 70.9105 22.241 72.3764 20.9565 71.8532Z" fill="#FFD000" stroke="#263238" stroke-width="0.5" stroke-linejoin="round"/>
<path d="M20.9565 71.8532L22.9197 70.6348" stroke="#263238" stroke-width="0.5" stroke-linecap="round" stroke-linejoin="round"/>
<path d="M21.0395 71.9403C20.8076 71.9111 20.5844 71.833 20.3849 71.7111C20.1854 71.5893 20.0141 71.4264 19.8824 71.2332C19.5925 70.8326 18.9821 68.8081 19.682 68.6974C20.4433 68.5819 21.6923 70.7171 21.0395 71.9403Z" fill="#FFD000" stroke="#263238" stroke-width="0.5" stroke-linejoin="round"/>
<path d="M21.0366 71.9404L20.0303 69.8594" stroke="#263238" stroke-width="0.5" stroke-linecap="round" stroke-linejoin="round"/>
<path d="M17.2706 92.2908L16.0781 90.6953" stroke="#263238" stroke-width="0.5" stroke-linecap="round" stroke-linejoin="round"/>
<path d="M16.467 91.1952C16.4882 90.9632 16.4595 90.7293 16.3827 90.5094C16.3058 90.2894 16.1827 90.0885 16.0215 89.9202C15.6892 89.5526 13.8368 88.5344 13.5799 89.199C13.3042 89.9202 15.1472 91.5841 16.467 91.1952Z" fill="#FFD000" stroke="#263238" stroke-width="0.5" stroke-linejoin="round"/>
<path d="M16.4668 91.195L14.7417 89.854" stroke="#263238" stroke-width="0.5" stroke-linecap="round" stroke-linejoin="round"/>
<path d="M17.3131 84.6032L16.0781 83.4531" stroke="#263238" stroke-width="0.5" stroke-linecap="round" stroke-linejoin="round"/>
<path d="M16.467 83.953C16.4883 83.7206 16.4596 83.4863 16.3827 83.266C16.3059 83.0456 16.1827 82.8443 16.0215 82.6756C15.6892 82.3079 13.8368 81.2922 13.5799 81.9544C13.3042 82.6756 15.1472 84.3395 16.467 83.953Z" fill="#FFD000" stroke="#263238" stroke-width="0.5" stroke-linejoin="round"/>
<path d="M16.4668 83.9527L14.7417 82.6094" stroke="#263238" stroke-width="0.5" stroke-linecap="round" stroke-linejoin="round"/>
<path d="M17.3531 76.614L16.0781 74.9478" stroke="#263238" stroke-width="0.5" stroke-linecap="round" stroke-linejoin="round"/>
<path d="M16.467 75.4472C16.4882 75.2152 16.4595 74.9813 16.3827 74.7613C16.3058 74.5414 16.1827 74.3405 16.0215 74.1722C15.6892 73.8045 13.8368 72.7864 13.5799 73.451C13.3042 74.1722 15.1472 75.836 16.467 75.4472Z" fill="#FFD000" stroke="#263238" stroke-width="0.5" stroke-linejoin="round"/>
<path d="M16.4668 75.4474L14.7417 74.1064" stroke="#263238" stroke-width="0.5" stroke-linecap="round" stroke-linejoin="round"/>
<path d="M17.2706 70.3613L16.0781 69.2866" stroke="#263238" stroke-width="0.5" stroke-linecap="round" stroke-linejoin="round"/>
<path d="M16.467 69.7865C16.4882 69.5545 16.4595 69.3206 16.3827 69.1007C16.3058 68.8807 16.1827 68.6798 16.0215 68.5115C15.6892 68.1439 13.8368 67.1258 13.5799 67.7904C13.3042 68.5115 15.1472 70.1754 16.467 69.7865Z" fill="#FFD000" stroke="#263238" stroke-width="0.5" stroke-linejoin="round"/>
<path d="M16.4668 69.7863L14.7417 68.4453" stroke="#263238" stroke-width="0.5" stroke-linecap="round" stroke-linejoin="round"/>
<path d="M17.3389 64.6984L16.1016 63.791" stroke="#263238" stroke-width="0.5" stroke-linecap="round" stroke-linejoin="round"/>
<path d="M16.467 64.0995C16.4882 63.8675 16.4595 63.6336 16.3827 63.4137C16.3058 63.1937 16.1827 62.9928 16.0215 62.8245C15.6892 62.4569 13.8368 61.4387 13.5799 62.1033C13.3042 62.8245 15.1472 64.4884 16.467 64.0995Z" fill="#FFD000" stroke="#263238" stroke-width="0.5" stroke-linejoin="round"/>
<path d="M16.4668 64.0998L14.7417 62.7588" stroke="#263238" stroke-width="0.5" stroke-linecap="round" stroke-linejoin="round"/>
<path d="M17.5723 94.2143L18.6022 92.9087" stroke="#263238" stroke-width="0.5" stroke-linecap="round" stroke-linejoin="round"/>
<path d="M18.211 93.408C18.1905 93.1759 18.2193 92.942 18.2957 92.7219C18.3721 92.5017 18.4942 92.3002 18.6541 92.1307C18.9887 91.763 20.8412 90.7473 21.0957 91.4095C21.3761 92.1307 19.5449 93.7969 18.211 93.408Z" fill="#FFD000" stroke="#263238" stroke-width="0.5" stroke-linejoin="round"/>
<path d="M18.2134 93.4082L20.0399 91.9941" stroke="#263238" stroke-width="0.5" stroke-linecap="round" stroke-linejoin="round"/>
<path d="M17.3247 83.0525L18.6021 81.3887" stroke="#263238" stroke-width="0.5" stroke-linecap="round" stroke-linejoin="round"/>
<path d="M18.211 81.8885C18.1905 81.6564 18.2193 81.4225 18.2957 81.2023C18.3721 80.9822 18.4942 80.7807 18.6541 80.6111C18.9887 80.2435 20.8412 79.2277 21.0957 79.89C21.3761 80.6111 19.5449 82.275 18.211 81.8885Z" fill="#FFD000" stroke="#263238" stroke-width="0.5" stroke-linejoin="round"/>
<path d="M18.2134 81.8881L20.0399 80.4717" stroke="#263238" stroke-width="0.5" stroke-linecap="round" stroke-linejoin="round"/>
<path d="M17.3247 77.3655L18.6021 75.7017" stroke="#263238" stroke-width="0.5" stroke-linecap="round" stroke-linejoin="round"/>
<path d="M18.211 76.2017C18.1905 75.9695 18.2193 75.7357 18.2957 75.5155C18.3721 75.2953 18.4942 75.0939 18.6541 74.9243C18.9887 74.559 20.8412 73.5409 21.0957 74.2031C21.3761 74.9243 19.5449 76.5905 18.211 76.2017Z" fill="#FFD000" stroke="#263238" stroke-width="0.5" stroke-linejoin="round"/>
<path d="M18.2134 76.2016L20.0399 74.7876" stroke="#263238" stroke-width="0.5" stroke-linecap="round" stroke-linejoin="round"/>
<path d="M17.3247 69.8499L18.6021 68.186" stroke="#263238" stroke-width="0.5" stroke-linecap="round" stroke-linejoin="round"/>
<path d="M18.211 68.6905C18.1905 68.4583 18.2193 68.2245 18.2957 68.0043C18.3721 67.7841 18.4942 67.5826 18.6541 67.4131C18.9887 67.0478 20.8412 66.0297 21.0957 66.6919C21.3761 67.4084 19.5449 69.0746 18.211 68.6905Z" fill="#FFD000" stroke="#263238" stroke-width="0.5" stroke-linejoin="round"/>
<path d="M18.2134 68.686L20.0399 67.272" stroke="#263238" stroke-width="0.5" stroke-linecap="round" stroke-linejoin="round"/>
<path d="M17.3813 63.3644L18.6328 62.3887" stroke="#263238" stroke-width="0.5" stroke-linecap="round" stroke-linejoin="round"/>
<path d="M18.211 62.7774C18.1905 62.5452 18.2193 62.3114 18.2957 62.0912C18.3721 61.871 18.4942 61.6695 18.6541 61.5C18.9887 61.1347 20.8412 60.1166 21.0957 60.7788C21.3761 61.5 19.5449 63.1662 18.211 62.7774Z" fill="#FFD000" stroke="#263238" stroke-width="0.5" stroke-linejoin="round"/>
<path d="M18.2134 62.7773L20.0399 61.3633" stroke="#263238" stroke-width="0.5" stroke-linecap="round" stroke-linejoin="round"/>
<path d="M17.2496 60.1568C17.229 59.9246 17.2579 59.6908 17.3343 59.4706C17.4106 59.2504 17.5328 59.0489 17.6927 58.8794C18.0273 58.5141 19.8797 57.496 20.1343 58.1582C20.4124 58.8794 18.5812 60.5456 17.2496 60.1568Z" fill="#FFD000" stroke="#263238" stroke-width="0.5" stroke-linejoin="round"/>
<path d="M17.2495 60.1567L19.076 58.7427" stroke="#263238" stroke-width="0.5" stroke-linecap="round" stroke-linejoin="round"/>
<path d="M17.339 60.2345C17.106 60.2313 16.8762 60.1784 16.6653 60.0792C16.4543 59.98 16.267 59.8369 16.1159 59.6594C15.7859 59.2894 14.9682 57.3404 15.6445 57.1566C16.4011 56.9562 17.8646 58.9524 17.339 60.2345Z" fill="#FFD000" stroke="#263238" stroke-width="0.5" stroke-linejoin="round"/>
<path d="M17.3391 60.2347L16.123 58.2715" stroke="#263238" stroke-width="0.5" stroke-linecap="round" stroke-linejoin="round"/>
<path d="M18.9088 108.152H14.8269L14.3179 97.8438H19.4202L18.9088 108.152Z" fill="#263238" stroke="#263238" stroke-width="0.5" stroke-linecap="round" stroke-linejoin="round"/>
<path d="M66.7204 67.0914L68.521 71.5952H63.7769V72.4059H74.017L71.3703 67.0537L66.7204 67.0914Z" fill="white" stroke="#263238" stroke-width="0.5" stroke-linejoin="round"/>
<path d="M66.2844 67.0914L68.0873 71.5952H63.3408V72.4059H73.5809L70.9343 67.0537L66.2844 67.0914Z" fill="white" stroke="#263238" stroke-width="0.5" stroke-linejoin="round"/>
<path d="M81.4215 67.1339H55.9002C55.7842 67.1337 55.6694 67.11 55.5628 67.0643C55.4562 67.0186 55.3599 66.9518 55.2797 66.8679C55.1996 66.784 55.1373 66.6848 55.0965 66.5762C55.0557 66.4676 55.0372 66.3518 55.0423 66.2359L55.8743 46.9695C55.8858 46.7114 55.9963 46.4678 56.1828 46.2891C56.3694 46.1105 56.6176 46.0106 56.8759 46.0103H82.3948C82.5167 46.0105 82.6373 46.0353 82.7494 46.0833C82.8614 46.1312 82.9626 46.2013 83.0469 46.2894C83.1312 46.3774 83.1969 46.4816 83.2399 46.5956C83.283 46.7096 83.3025 46.8312 83.2975 46.953L82.4702 66.1205C82.4576 66.3913 82.342 66.647 82.1471 66.8354C81.9521 67.0238 81.6926 67.1305 81.4215 67.1339Z" fill="white" stroke="#263238" stroke-width="0.5" stroke-linejoin="round"/>
<path d="M80.1161 67.1338H54.5854C54.4692 67.134 54.3543 67.1105 54.2475 67.0649C54.1408 67.0193 54.0443 66.9525 53.9641 66.8686C53.8839 66.7846 53.8216 66.6853 53.7809 66.5765C53.7403 66.4678 53.7221 66.3519 53.7275 66.2359L54.5594 46.9695C54.5704 46.7112 54.6807 46.4672 54.8674 46.2885C55.0541 46.1097 55.3026 46.01 55.5611 46.0103H81.0989C81.2207 46.0105 81.3413 46.0353 81.4534 46.0833C81.5655 46.1312 81.6667 46.2013 81.751 46.2894C81.8353 46.3774 81.9009 46.4816 81.944 46.5956C81.987 46.7096 82.0066 46.8312 82.0015 46.953L81.1719 66.1204C81.1604 66.3929 81.0441 66.6503 80.8474 66.8391C80.6507 67.0279 80.3887 67.1335 80.1161 67.1338Z" fill="#263238" stroke="#263238" stroke-width="0.5" stroke-linejoin="round"/>
<path d="M80.0876 62.722H55.1201L55.8036 46.894H80.771L80.0876 62.722Z" fill="white" stroke="#263238" stroke-width="0.5" stroke-linejoin="round"/>
<path d="M64.9737 53.7146C64.9967 53.289 64.9282 52.8634 64.773 52.4664C64.6177 52.0695 64.3791 51.7105 64.0734 51.4135C63.7677 51.1165 63.4019 50.8884 63.0007 50.7446C62.5994 50.6009 62.172 50.5448 61.7473 50.5801C60.9916 50.6412 60.2792 50.9579 59.7274 51.4779C59.1757 51.998 58.8175 52.6904 58.7118 53.4412C58.6555 53.8436 58.6809 54.2533 58.7866 54.6457C58.8923 55.0381 59.076 55.4051 59.3269 55.7249C59.7677 56.2867 59.9904 56.989 59.9538 57.7022L59.9349 58.1335H63.331L63.3499 57.7022C63.3856 56.9717 63.6691 56.2752 64.1535 55.7272C64.6473 55.1688 64.9365 54.4591 64.9737 53.7146Z" fill="white" stroke="#263238" stroke-width="0.5" stroke-linecap="round" stroke-linejoin="round"/>
<path d="M63.2935 58.9747H59.8975L59.9352 58.1333H63.3312L63.2935 58.9747Z" fill="white" stroke="#263238" stroke-width="0.5" stroke-linecap="round" stroke-linejoin="round"/>
<path d="M62.4166 59.8277H60.6986C60.5897 59.8285 60.4818 59.807 60.3815 59.7645C60.2813 59.722 60.1908 59.6593 60.1157 59.5805C60.0407 59.5017 59.9825 59.4082 59.9449 59.3061C59.9074 59.2039 59.8911 59.095 59.8973 58.9863H63.3051C63.2936 59.2139 63.1949 59.4283 63.0294 59.585C62.864 59.7417 62.6445 59.8286 62.4166 59.8277Z" fill="white" stroke="#263238" stroke-width="0.5" stroke-linecap="round" stroke-linejoin="round"/>
<path d="M61.9499 60.6553H61.0897C60.9808 60.6561 60.8729 60.6346 60.7727 60.5921C60.6724 60.5496 60.5819 60.487 60.5069 60.4081C60.4318 60.3293 60.3736 60.2359 60.3361 60.1337C60.2985 60.0315 60.2822 59.9227 60.2884 59.814H62.8337C62.8222 60.0407 62.7241 60.2544 62.5597 60.411C62.3952 60.5675 62.1769 60.655 61.9499 60.6553Z" fill="white" stroke="#263238" stroke-width="0.5" stroke-linecap="round" stroke-linejoin="round"/>
<path d="M65.4189 53.731H66.8566" stroke="#263238" stroke-width="0.5" stroke-linecap="round" stroke-linejoin="round"/>
<path d="M56.666 53.731H58.1248" stroke="#263238" stroke-width="0.5" stroke-linecap="round" stroke-linejoin="round"/>
<path d="M61.9263 50.0781L61.9899 48.6357" stroke="#263238" stroke-width="0.5" stroke-linecap="round" stroke-linejoin="round"/>
<path d="M64.4883 51.122L65.5253 50.1274" stroke="#263238" stroke-width="0.5" stroke-linecap="round" stroke-linejoin="round"/>
<path d="M57.998 57.3344L59.0515 56.3257" stroke="#263238" stroke-width="0.5" stroke-linecap="round" stroke-linejoin="round"/>
<path d="M59.2423 51.0937L58.3208 50.1274" stroke="#263238" stroke-width="0.5" stroke-linecap="round" stroke-linejoin="round"/>
<path d="M65.2048 57.3346L64.2856 56.373" stroke="#263238" stroke-width="0.5" stroke-linecap="round" stroke-linejoin="round"/>
<path d="M76.7388 53.7146C76.7621 53.2891 76.694 52.8635 76.539 52.4666C76.384 52.0697 76.1457 51.7106 75.8401 51.4135C75.5346 51.1165 75.169 50.8884 74.7678 50.7446C74.3667 50.6009 73.9394 50.5448 73.5147 50.5801C72.7588 50.6408 72.0462 50.9573 71.4944 51.4774C70.9426 51.9976 70.5845 52.6902 70.4792 53.4412C70.4226 53.8435 70.4476 54.2531 70.5529 54.6455C70.6582 55.0379 70.8416 55.405 71.092 55.7249C71.5323 56.2871 71.7557 56.9889 71.7212 57.7022L71.7 58.1335H75.0985L75.1173 57.7022C75.1531 56.9717 75.4365 56.2752 75.921 55.7273C76.4151 55.1692 76.7036 54.4591 76.7388 53.7146Z" fill="#263238" stroke="white" stroke-width="0.5" stroke-linecap="round" stroke-linejoin="round"/>
<path d="M75.0703 58.9747H71.6719L71.7096 58.1333H75.108L75.0703 58.9747Z" fill="#263238" stroke="white" stroke-width="0.5" stroke-linecap="round" stroke-linejoin="round"/>
<path d="M74.1909 59.8277H72.4752C72.3662 59.8285 72.2582 59.807 72.1579 59.7645C72.0575 59.722 71.9669 59.6594 71.8916 59.5806C71.8163 59.5018 71.758 59.4084 71.7201 59.3062C71.6823 59.204 71.6657 59.0952 71.6715 58.9863H75.07C75.058 59.2121 74.9604 59.4248 74.7971 59.5811C74.6337 59.7374 74.417 59.8256 74.1909 59.8277Z" fill="#263238" stroke="white" stroke-width="0.5" stroke-linecap="round" stroke-linejoin="round"/>
<path d="M73.727 60.6553H72.8668C72.7578 60.6561 72.6498 60.6346 72.5495 60.5921C72.4491 60.5496 72.3585 60.4871 72.2832 60.4082C72.2079 60.3294 72.1496 60.2361 72.1117 60.1339C72.0739 60.0317 72.0574 59.9228 72.0631 59.814H74.6037C74.5918 60.0393 74.4945 60.2517 74.3317 60.4079C74.1688 60.5642 73.9527 60.6527 73.727 60.6553Z" fill="#263238" stroke="white" stroke-width="0.5" stroke-linecap="round" stroke-linejoin="round"/>
<path d="M77.1934 53.731H78.6333" stroke="#263238" stroke-width="0.5" stroke-linecap="round" stroke-linejoin="round"/>
<path d="M68.4429 53.731H69.9017" stroke="#263238" stroke-width="0.5" stroke-linecap="round" stroke-linejoin="round"/>
<path d="M73.7007 50.0781L73.7667 48.6357" stroke="#263238" stroke-width="0.5" stroke-linecap="round" stroke-linejoin="round"/>
<path d="M76.2651 51.122L77.3021 50.1274" stroke="#263238" stroke-width="0.5" stroke-linecap="round" stroke-linejoin="round"/>
<path d="M69.7744 57.3344L70.8279 56.3257" stroke="#263238" stroke-width="0.5" stroke-linecap="round" stroke-linejoin="round"/>
<path d="M71.0191 51.0937L70.0977 50.1274" stroke="#263238" stroke-width="0.5" stroke-linecap="round" stroke-linejoin="round"/>
<path d="M76.9793 57.3346L76.0625 56.373" stroke="#263238" stroke-width="0.5" stroke-linecap="round" stroke-linejoin="round"/>
<path d="M80.1161 67.1337H54.5854C54.4692 67.1338 54.3543 67.1103 54.2475 67.0648C54.1408 67.0192 54.0443 66.9524 53.9641 66.8684C53.8839 66.7845 53.8216 66.6851 53.7809 66.5763C53.7403 66.4676 53.7221 66.3517 53.7275 66.2357L53.8336 63.7588H81.2662L81.1625 66.1155C81.1522 66.3872 81.0378 66.6444 80.843 66.834C80.6482 67.0235 80.3879 67.1308 80.1161 67.1337Z" fill="white" stroke="#263238" stroke-width="0.5" stroke-linejoin="round"/>
<path d="M88.0792 73.0137H74.9497V111.549H88.0792V73.0137Z" fill="#263238" stroke="#263238" stroke-width="0.5" stroke-linejoin="round"/>
<path d="M88.9351 73.0137H75.8057V111.549H88.9351V73.0137Z" fill="#7D7D7D" stroke="#263238" stroke-width="0.5" stroke-linejoin="round"/>
<path d="M88.9351 73.0137H75.8057V75.0358H88.9351V73.0137Z" fill="#263238" stroke="#263238" stroke-width="0.5" stroke-linejoin="round"/>
<path d="M50.2579 73.0137H37.1284V111.549H50.2579V73.0137Z" fill="#263238" stroke="#263238" stroke-width="0.5" stroke-linejoin="round"/>
<path d="M51.1134 73.0137H37.9839V111.549H51.1134V73.0137Z" fill="#7D7D7D" stroke="#263238" stroke-width="0.5" stroke-linejoin="round"/>
<path d="M92.2767 72.3208H35.2715V73.6264H92.2767V72.3208Z" fill="#263238" stroke="#263238" stroke-width="0.5" stroke-linejoin="round"/>
<path d="M92.2769 72.3208H75.1221V73.6264H92.2769V72.3208Z" fill="white" stroke="#263238" stroke-width="0.5" stroke-linejoin="round"/>
<path d="M71.082 72.3184L71.0561 72.25C70.8533 71.7332 70.4996 71.2895 70.0409 70.9767C69.5823 70.6639 69.04 70.4966 68.4848 70.4966H67.3937C66.9199 70.4978 66.4544 70.6207 66.0417 70.8534C65.6291 71.0862 65.2831 71.421 65.0369 71.8258L64.7188 72.3184H71.082Z" fill="white" stroke="#263238" stroke-width="0.5" stroke-linejoin="round"/>
<path d="M47.9863 43.2504C47.9863 43.2504 47.9863 43.4272 47.9863 43.6864C47.9698 44.3275 47.9416 45.4823 47.9416 45.7557C47.9416 46.1351 47.3429 46.6795 47.3429 47.0613C47.3429 47.4431 47.6705 48.6403 47.7789 49.0198C47.8873 49.3992 46.7985 49.7268 46.7985 49.7268C46.7985 49.7268 46.3083 51.525 45.6013 51.9586C44.8943 52.3923 43.4802 51.9586 43.2068 51.9044C42.9334 51.8502 42.0638 51.5792 42.0638 51.5792L42.0096 54.3531L37.4917 52.5031L37.8358 49.4628L37.8735 49.1282C37.8735 49.1282 38.0361 46.5711 37.8193 45.3197C37.4375 43.1302 38.3095 40.3116 41.682 39.6045C42.739 39.3696 43.8401 39.4278 44.8665 39.7729C45.8928 40.1181 46.8053 40.7371 47.5056 41.563C47.8826 42.0532 47.9863 43.2504 47.9863 43.2504Z" fill="white" stroke="#263238" stroke-width="0.5" stroke-linejoin="round"/>
<path d="M42.5488 46.0264L48.535 46.625" stroke="#263238" stroke-width="0.5" stroke-linejoin="round"/>
<path d="M47.6655 46.354L48.8085 46.4624C48.8085 46.4624 48.6435 47.9849 47.5005 47.9849" stroke="#263238" stroke-width="0.5" stroke-linejoin="round"/>
<path d="M46.1406 50.0542C46.1406 50.0542 45.6504 50.1084 45.3252 49.293" stroke="#263238" stroke-width="0.5" stroke-linejoin="round"/>
<path d="M47.0668 46.625L46.7393 47.332" stroke="#263238" stroke-width="0.5" stroke-linejoin="round"/>
<path d="M46.7393 45.8638C46.7393 45.8638 47.121 45.2652 47.7197 46.0265" stroke="#263238" stroke-width="0.5" stroke-linejoin="round"/>
<path d="M47.9859 43.2503C47.9859 43.2503 47.9859 43.427 47.9859 43.6863L47.9057 43.6108C47.9057 43.6108 46.4163 42.2581 45.4005 42.0554C44.3848 41.8527 44.6558 43.3398 44.8608 43.6108C45.0659 43.8819 46.4163 44.4216 45.7375 44.8976C45.0588 45.3737 44.4531 45.7767 44.4531 45.7767L44.0242 46.9221C43.9855 47.0258 43.917 47.1157 43.8272 47.1803C43.7374 47.245 43.6305 47.2815 43.5199 47.2853C43.4093 47.2891 43.3001 47.26 43.2061 47.2016C43.1121 47.1432 43.0375 47.0582 42.9919 46.9574C42.8104 46.5568 42.4404 45.7555 42.2849 45.5033C42.0822 45.1663 40.7436 45.6235 40.8708 46.9174C40.8788 47.1577 40.9479 47.392 41.0716 47.5982C41.1953 47.8044 41.3695 47.9757 41.5779 48.0958C41.5779 48.0958 42.2283 48.5435 40.7412 49.491C39.2541 50.4384 38.712 50.5727 37.9673 49.6276C37.9272 49.5782 37.8872 49.5216 37.8424 49.458L37.8801 49.1233C37.8801 49.1233 38.0427 46.5662 37.8259 45.3148C37.4441 43.1254 38.3161 40.3067 41.6886 39.5996C42.7456 39.3647 43.8468 39.4229 44.8731 39.7681C45.8994 40.1132 46.812 40.7322 47.5122 41.5581C47.8822 42.053 47.9859 43.2503 47.9859 43.2503Z" fill="#263238" stroke="#263238" stroke-width="0.5" stroke-linejoin="round"/>
<path d="M60.6983 106.414C60.6983 106.414 62.949 107.21 64.2546 107.139C65.5603 107.069 66.5761 106.484 66.8683 106.993C67.1605 107.502 66.576 108.299 66.4323 108.589C66.2885 108.879 63.4557 109.607 62.513 110.041C61.5703 110.474 59.1028 111.276 58.087 111.419C57.0713 111.563 56.6353 108.952 56.6353 108.952L60.6983 106.414Z" fill="white" stroke="#263238" stroke-width="0.5" stroke-linejoin="round"/>
<path d="M61.3512 109.678C59.9892 110.107 58.6063 110.466 57.208 110.755C57.4295 111.167 57.7194 111.474 58.0871 111.42C59.1028 111.276 61.5704 110.477 62.5131 110.041C63.4558 109.605 66.2839 108.881 66.4323 108.589C66.5808 108.297 67.1582 107.503 66.8683 106.994C65.7795 109.098 63.6019 108.952 61.3512 109.678Z" fill="white" stroke="#263238" stroke-width="0.5" stroke-linejoin="round"/>
<path d="M51.2642 86.5272L56.6352 108.952C57.4104 108.877 58.169 108.682 58.8835 108.372C60.0454 107.863 60.4084 107.573 60.6982 107.21C60.9881 106.847 60.6252 105.615 60.6252 105.398C60.6252 105.181 59.9724 104.889 59.9724 104.889L57.9408 85.5845L51.2642 86.5272Z" fill="#263238" stroke="#263238" stroke-width="0.5" stroke-linejoin="round"/>
<path d="M55.8198 107.022C55.8198 107.022 56.6918 108.401 57.4884 108.837C58.285 109.273 59.0132 109.563 59.4492 109.563C59.8852 109.563 60.2482 110.435 60.3189 110.724C60.3671 110.963 60.3916 111.207 60.3919 111.45H53.7153C53.7153 111.45 49.6522 110.941 49.2893 109.999C48.9263 109.056 51.6837 105.5 51.6837 105.5L55.8198 107.022Z" fill="white" stroke="#263238" stroke-width="0.5" stroke-linejoin="round"/>
<path d="M60.3474 110.866C58.7848 110.849 55.2827 110.776 53.5717 110.435C52.1479 110.125 50.7407 109.744 49.3555 109.292C49.259 109.514 49.2359 109.762 49.2895 109.999C49.6524 110.941 53.7155 111.45 53.7155 111.45H60.3922C60.3909 111.255 60.3759 111.059 60.3474 110.866Z" fill="white" stroke="#263238" stroke-width="0.5" stroke-linejoin="round"/>
<path d="M45.6883 76.5254L47.7198 78.3377C47.7198 78.3377 56.5011 78.9929 59.5484 79.1367C62.5957 79.2804 64.6272 80.1524 64.5565 81.6042C64.4858 83.056 56.0133 105.836 56.0133 105.836L56.0015 107.166C56.0015 107.166 55.6385 107.528 54.043 107.166C53.1133 106.963 52.2278 106.594 51.4294 106.077C51.4294 106.077 51.1395 104.698 51.8654 104.118C52.5913 103.539 53.3808 99.9657 53.3808 99.9657L56.355 85.5895H34.2203C33.4165 82.9807 33.2676 80.2141 33.7867 77.5341C33.7867 77.5341 41.4792 78.9929 45.6883 76.5254Z" fill="#263238" stroke="#263238" stroke-width="0.5" stroke-linejoin="round"/>
<path d="M42.8722 54.7585C41.7563 53.9402 40.594 53.1871 39.3912 52.503C37.4799 51.426 37.0345 51.9657 36.0588 52.5525C35.0831 53.1394 30.7631 55.9368 30.4214 56.8678C30.0797 57.7987 30.4214 58.9747 30.4214 58.9747C30.4214 58.9747 32.0876 69.2714 32.5284 73.3886C32.9691 77.5059 34.2441 79.5657 36.9402 79.8603C39.6363 80.1549 43.9021 78.6819 45.0309 78.0456C46.1598 77.4092 46.2565 77.6543 46.1575 76.4288C46.0585 75.2033 44.9791 70.8386 44.833 69.8582C44.6868 68.8778 44.7858 66.6719 44.7858 66.6719C44.7858 66.6719 45.8134 61.7227 45.0215 59.0242C44.5953 57.4737 43.8647 56.0236 42.8722 54.7585Z" fill="#FFD000" stroke="#263238" stroke-width="0.5" stroke-linejoin="round"/>
<path d="M56.5908 68.397L64.4836 70.0302C64.4836 70.0302 66.7697 68.7788 67.3683 68.7222C67.9669 68.6656 69.2725 69.6484 69.5459 69.7568C69.8193 69.8652 70.0903 70.3012 70.1987 70.683C70.3071 71.0648 70.7431 70.9541 70.3613 71.2816C69.9796 71.6092 69.4917 70.9541 69.4917 70.9541C69.4917 70.9541 68.4029 71.0083 67.8043 71.3358C67.2057 71.6634 66.4421 72.1513 65.6266 72.2621C65.0051 72.3079 64.3802 72.2522 63.7766 72.0971L55.7754 71.4985C55.7754 71.4985 56.8642 69.7568 56.5908 68.397Z" fill="white" stroke="#263238" stroke-width="0.5" stroke-linejoin="round"/>
<path d="M68.2378 70.3554C68.2378 70.3554 68.893 70.1386 69.3266 70.3012C69.7603 70.4638 70.1986 70.683 70.1986 70.683" stroke="#263238" stroke-width="0.5" stroke-linejoin="round"/>
<path d="M42.6925 65.6419L40.3994 65.1069" stroke="#263238" stroke-width="0.5" stroke-linejoin="round"/>
<path d="M42.1131 54.6265C42.1131 54.6265 43.5837 54.9541 44.5076 55.8779C45.4314 56.8018 51.7476 66.0567 51.9644 66.2193C52.1812 66.382 55.4995 68.1236 55.4995 68.1236C55.4995 68.1236 55.7729 69.7026 55.2827 70.2447C54.7925 70.7867 53.5952 71.4961 53.5952 71.4961C53.5952 71.4961 50.6564 71.1709 49.7302 70.9517C48.804 70.7325 40.4233 63.9309 40.4233 63.9309" fill="#FFD000"/>
<path d="M42.1131 54.6265C42.1131 54.6265 43.5837 54.9541 44.5076 55.8779C45.4314 56.8018 51.7476 66.0567 51.9644 66.2193C52.1812 66.382 55.4995 68.1236 55.4995 68.1236C55.4995 68.1236 55.7729 69.7026 55.2827 70.2447C54.7925 70.7867 53.5952 71.4961 53.5952 71.4961C53.5952 71.4961 50.6564 71.1709 49.7302 70.9517C48.804 70.7325 40.4233 63.9309 40.4233 63.9309" stroke="#263238" stroke-width="0.5" stroke-linejoin="round"/>
<path d="M50.3735 66.8979C50.7011 66.9121 51.0358 66.9192 51.3799 66.9192" stroke="#263238" stroke-width="0.5" stroke-linejoin="round"/>
<path d="M44.2461 65.8325C45.9625 66.3762 47.7366 66.7171 49.5323 66.8483" stroke="#263238" stroke-width="0.5" stroke-linejoin="round"/>
<path d="M54.1421 67.3081C54.1421 67.3081 54.6865 68.7787 54.1963 69.811C53.8704 70.4652 53.4065 71.041 52.8364 71.4984C52.8364 71.4984 55.3393 71.9344 55.8295 71.9344C56.3197 71.9344 57.1894 69.8133 57.1351 68.7222C57.0809 67.631 54.1421 67.3081 54.1421 67.3081Z" fill="white" stroke="#263238" stroke-width="0.5" stroke-linejoin="round"/>
<path d="M56.355 85.5966C57.9231 85.1296 59.3978 84.3927 60.7126 83.4189" stroke="#878787" stroke-width="0.5" stroke-linejoin="round"/>
<path d="M57.7334 85.2334C57.7334 85.2334 59.838 84.9435 60.9999 84.1445" stroke="#878787" stroke-width="0.5" stroke-linejoin="round"/>
<path d="M46.6005 85.7922C46.6005 85.7922 40.5837 75.9881 39.0094 62.3119C38.637 59.0784 36.0422 56.6392 32.9525 56.6392C29.3066 56.6392 26.4738 59.9928 26.8909 63.8155C27.5437 69.7875 28.9884 78.4981 32.1606 86.0303L46.6005 85.7922Z" fill="white" stroke="#263238" stroke-width="0.5" stroke-linejoin="round"/>
<path d="M45.766 85.7922C45.766 85.7922 39.7492 75.9881 38.1749 62.3119C37.8025 59.0784 35.2077 56.6392 32.118 56.6392C28.4721 56.6392 25.6393 59.9928 26.0565 63.8155C26.7093 69.7875 28.154 78.4981 31.3262 86.0303L45.766 85.7922Z" fill="#263238" stroke="#263238" stroke-width="0.5" stroke-linejoin="round"/>
<path d="M46.004 87.647H43.0015V104.088H46.004V87.647Z" fill="#263238" stroke="#263238" stroke-width="0.5" stroke-linejoin="round"/>
<path d="M46.9348 101.158H41.8584V104.804H46.9348V101.158Z" fill="#263238" stroke="#263238" stroke-width="0.5" stroke-linejoin="round"/>
<path d="M41.929 103.018L32.4219 108.879V109.951H33.3504V109.235L41.8583 104.804L41.929 103.018Z" fill="white" stroke="#263238" stroke-width="0.5" stroke-linejoin="round"/>
<path d="M34.7884 110.166C34.7884 109.911 34.713 109.662 34.5716 109.451C34.4302 109.239 34.2292 109.074 33.9941 108.977C33.7589 108.879 33.5002 108.854 33.2506 108.904C33.001 108.953 32.7717 109.076 32.5917 109.256C32.4118 109.436 32.2892 109.665 32.2396 109.915C32.1899 110.164 32.2154 110.423 32.3128 110.658C32.4102 110.893 32.5751 111.094 32.7867 111.236C32.9983 111.377 33.2471 111.452 33.5016 111.452C33.6706 111.452 33.8379 111.419 33.9941 111.355C34.1502 111.29 34.292 111.195 34.4115 111.076C34.531 110.956 34.6258 110.814 34.6905 110.658C34.7551 110.502 34.7884 110.335 34.7884 110.166Z" fill="#263238" stroke="#263238" stroke-width="0.5" stroke-linejoin="round"/>
<path d="M46.9326 103.018L56.4398 108.879V109.951H55.5112V109.235L47.0033 104.804L46.9326 103.018Z" fill="white" stroke="#263238" stroke-width="0.5" stroke-linejoin="round"/>
<path d="M54.0806 110.166C54.0806 109.911 54.156 109.662 54.2974 109.451C54.4388 109.239 54.6398 109.074 54.8749 108.977C55.1101 108.879 55.3688 108.854 55.6184 108.904C55.868 108.953 56.0973 109.076 56.2773 109.256C56.4572 109.436 56.5798 109.665 56.6294 109.915C56.6791 110.164 56.6536 110.423 56.5562 110.658C56.4588 110.893 56.2939 111.094 56.0823 111.236C55.8706 111.377 55.6219 111.452 55.3674 111.452C55.0261 111.452 54.6988 111.317 54.4575 111.076C54.2161 110.834 54.0806 110.507 54.0806 110.166Z" fill="#263238" stroke="#263238" stroke-width="0.5" stroke-linejoin="round"/>
<path d="M43.2163 110.166C43.2163 109.911 43.2918 109.662 43.4332 109.451C43.5746 109.239 43.7755 109.074 44.0107 108.977C44.2458 108.879 44.5045 108.854 44.7541 108.904C45.0038 108.953 45.233 109.076 45.413 109.256C45.593 109.436 45.7155 109.665 45.7652 109.915C45.8148 110.164 45.7893 110.423 45.6919 110.658C45.5945 110.893 45.4296 111.094 45.218 111.236C45.0064 111.377 44.7576 111.452 44.5031 111.452C44.334 111.453 44.1666 111.42 44.0103 111.355C43.854 111.291 43.7121 111.196 43.5925 111.076C43.473 110.957 43.3782 110.815 43.3136 110.658C43.2491 110.502 43.216 110.335 43.2163 110.166Z" fill="#263238" stroke="#263238" stroke-width="0.5" stroke-linejoin="round"/>
<path d="M44.8609 102.944H44.0737V108.879H44.8609V102.944Z" fill="white" stroke="#263238" stroke-width="0.5" stroke-linejoin="round"/>
<path d="M51.9108 77.1463L49.8804 85.709L51.364 86.0608L53.3945 77.4981L51.9108 77.1463Z" fill="white" stroke="#263238" stroke-width="0.5" stroke-linejoin="round"/>
<path d="M56.3551 75.7266H47.6469C47.0456 75.7266 46.5581 76.214 46.5581 76.8154C46.5581 77.4167 47.0456 77.9042 47.6469 77.9042H56.3551C56.9565 77.9042 57.444 77.4167 57.444 76.8154C57.444 76.214 56.9565 75.7266 56.3551 75.7266Z" fill="#263238" stroke="#263238" stroke-width="0.5" stroke-linejoin="round"/>
<path d="M56.2816 88.2806H31.9717C31.6254 88.2806 31.2933 88.1431 31.0484 87.8982C30.8036 87.6534 30.666 87.3213 30.666 86.975C30.666 86.6285 30.8035 86.2962 31.0483 86.0509C31.2931 85.8057 31.6252 85.6676 31.9717 85.667H56.2816C56.6283 85.6676 56.9606 85.8056 57.2058 86.0508C57.451 86.2959 57.589 86.6283 57.5896 86.975C57.589 87.3215 57.4509 87.6536 57.2057 87.8984C56.9604 88.1431 56.6281 88.2806 56.2816 88.2806Z" fill="#263238" stroke="#263238" stroke-width="0.5" stroke-linejoin="round"/>
<path d="M56.2817 88.2806H45.7588C45.4125 88.2806 45.0804 88.1431 44.8355 87.8982C44.5907 87.6534 44.4531 87.3213 44.4531 86.975C44.4531 86.6285 44.5906 86.2962 44.8354 86.0509C45.0802 85.8057 45.4123 85.6676 45.7588 85.667H56.2817C56.6284 85.6676 56.9607 85.8056 57.2059 86.0508C57.451 86.2959 57.5891 86.6283 57.5897 86.975C57.5891 87.3215 57.451 87.6536 57.2057 87.8984C56.9605 88.1431 56.6282 88.2806 56.2817 88.2806Z" fill="white" stroke="#263238" stroke-width="0.5" stroke-linejoin="round"/>
<path d="M101.779 8.09229H78.5273V35.5414H101.779V8.09229Z" stroke="#FFD000" stroke-width="0.5" stroke-linejoin="round"/>
<path d="M97.3957 19.7226C97.396 18.5844 97.1222 17.4629 96.5974 16.4529C96.0726 15.4429 95.3122 14.5742 94.3806 13.9203C93.4491 13.2663 92.3737 12.8464 91.2455 12.6959C90.1173 12.5455 88.9694 12.6691 87.8991 13.0561C86.8287 13.4432 85.8673 14.0823 85.0962 14.9195C84.3251 15.7567 83.767 16.7674 83.4692 17.8659C83.1713 18.9644 83.1424 20.1185 83.3849 21.2306C83.6274 22.3426 84.1343 23.3799 84.8625 24.2547C85.9069 25.5075 86.4782 27.0873 86.4768 28.7184V29.6894H94.1387V28.7184C94.1374 27.0906 94.708 25.5141 95.7507 24.2641C96.8151 22.9903 97.3975 21.3826 97.3957 19.7226Z" fill="white" stroke="#263238" stroke-width="0.5" stroke-linecap="round" stroke-linejoin="round"/>
<path d="M94.1389 29.6875H86.4771V31.5823H94.1389V29.6875Z" fill="white" stroke="#263238" stroke-width="0.5" stroke-linecap="round" stroke-linejoin="round"/>
<path d="M86.4766 31.5869H94.1384V32.3694C94.1384 32.665 94.021 32.9485 93.8119 33.1576C93.6029 33.3667 93.3193 33.4841 93.0237 33.4841H87.5796C87.2839 33.4841 87.0004 33.3667 86.7914 33.1576C86.5823 32.9485 86.4648 32.665 86.4648 32.3694V31.5869H86.4766Z" fill="white" stroke="#263238" stroke-width="0.5" stroke-linecap="round" stroke-linejoin="round"/>
<path d="M87.4429 33.4795H93.1698V33.8636C93.1698 34.2643 93.0106 34.6485 92.7273 34.9319C92.444 35.2152 92.0598 35.3743 91.6591 35.3743H88.9535C88.5529 35.3743 88.1686 35.2152 87.8853 34.9319C87.602 34.6485 87.4429 34.2643 87.4429 33.8636V33.4795Z" fill="white" stroke="#263238" stroke-width="0.5" stroke-linecap="round" stroke-linejoin="round"/>
<path d="M98.3994 19.7583H101.647" stroke="#263238" stroke-width="0.5" stroke-linecap="round" stroke-linejoin="round"/>
<path d="M78.6641 19.7583H81.9517" stroke="#263238" stroke-width="0.5" stroke-linecap="round" stroke-linejoin="round"/>
<path d="M90.1553 11.5237V8.26904" stroke="#263238" stroke-width="0.5" stroke-linecap="round" stroke-linejoin="round"/>
<path d="M96.0405 13.8737L98.2818 11.6348" stroke="#263238" stroke-width="0.5" stroke-linecap="round" stroke-linejoin="round"/>
<path d="M82.0293 27.8841L84.3036 25.6099" stroke="#263238" stroke-width="0.5" stroke-linecap="round" stroke-linejoin="round"/>
<path d="M84.2069 13.8096L82.0293 11.6343" stroke="#263238" stroke-width="0.5" stroke-linecap="round" stroke-linejoin="round"/>
<path d="M98.282 27.8841L96.1138 25.7183" stroke="#263238" stroke-width="0.5" stroke-linecap="round" stroke-linejoin="round"/>
<path d="M72.6521 8.09229H49.4004V35.5414H72.6521V8.09229Z" stroke="#FFD000" stroke-width="0.5" stroke-linejoin="round"/>
<path d="M68.132 19.723C68.1328 18.5846 67.8593 17.4626 67.3347 16.4523C66.81 15.4419 66.0497 14.5728 65.118 13.9185C64.1863 13.2642 63.1107 12.8441 61.9822 12.6936C60.8537 12.543 59.7056 12.6666 58.635 13.0538C57.5644 13.441 56.6028 14.0805 55.8317 14.918C55.0606 15.7556 54.5026 16.7666 54.205 17.8654C53.9073 18.9643 53.8788 20.1187 54.1219 21.2309C54.3649 22.3432 54.8723 23.3805 55.6012 24.2551C56.6456 25.5079 57.2169 27.0877 57.2155 28.7188V29.6897H64.875V28.7188C64.8738 27.091 65.4443 25.5145 66.487 24.2645C67.5529 22.9915 68.1354 21.3833 68.132 19.723Z" stroke="#263238" stroke-width="0.5" stroke-linecap="round" stroke-linejoin="round"/>
<path d="M64.8771 29.6875H57.2153V31.5823H64.8771V29.6875Z" stroke="#263238" stroke-width="0.5" stroke-linecap="round" stroke-linejoin="round"/>
<path d="M57.2152 31.5869H64.8771V32.3694C64.8771 32.5157 64.8482 32.6607 64.7922 32.796C64.7362 32.9312 64.6541 33.0541 64.5506 33.1576C64.447 33.2611 64.3242 33.3432 64.1889 33.3992C64.0537 33.4553 63.9087 33.4841 63.7623 33.4841H58.3276C58.032 33.4841 57.7484 33.3667 57.5394 33.1576C57.3303 32.9485 57.2129 32.665 57.2129 32.3694V31.5869H57.2152Z" stroke="#263238" stroke-width="0.5" stroke-linecap="round" stroke-linejoin="round"/>
<path d="M58.1816 33.4795H63.9086V33.8636C63.9086 34.2643 63.7494 34.6485 63.4661 34.9319C63.1828 35.2152 62.7985 35.3743 62.3979 35.3743H59.6923C59.2917 35.3743 58.9074 35.2152 58.6241 34.9319C58.3408 34.6485 58.1816 34.2643 58.1816 33.8636V33.4795Z" stroke="#263238" stroke-width="0.5" stroke-linecap="round" stroke-linejoin="round"/>
<path d="M52.8174 19.7583H69.2652" stroke="#FFD000" stroke-width="0.5" stroke-linejoin="round"/>
<path d="M61.0215 31.25V11.5239" stroke="#FFD000" stroke-width="0.5" stroke-linejoin="round"/>
<path d="M55.1699 25.6102L66.9066 13.8735" stroke="#FFD000" stroke-width="0.5" stroke-linejoin="round"/>
<path d="M66.9795 25.7183L55.0708 13.8096" stroke="#FFD000" stroke-width="0.5" stroke-linejoin="round"/>
<path d="M61.0425 31.3418C67.4464 31.3418 72.6377 26.1505 72.6377 19.7466C72.6377 13.3427 67.4464 8.15137 61.0425 8.15137C54.6386 8.15137 49.4473 13.3427 49.4473 19.7466C49.4473 26.1505 54.6386 31.3418 61.0425 31.3418Z" stroke="#FFD000" stroke-width="0.5" stroke-linejoin="round"/>
<path d="M61.0425 27.9716C65.585 27.9716 69.2675 24.2891 69.2675 19.7466C69.2675 15.204 65.585 11.5215 61.0425 11.5215C56.4999 11.5215 52.8174 15.204 52.8174 19.7466C52.8174 24.2891 56.4999 27.9716 61.0425 27.9716Z" stroke="#FFD000" stroke-width="0.5" stroke-linejoin="round"/>
<path d="M69.1382 19.7583H72.3834" stroke="#263238" stroke-width="0.5" stroke-linecap="round" stroke-linejoin="round"/>
<path d="M49.4028 19.7583H52.6905" stroke="#263238" stroke-width="0.5" stroke-linecap="round" stroke-linejoin="round"/>
<path d="M60.8916 11.5237V8.26904" stroke="#263238" stroke-width="0.5" stroke-linecap="round" stroke-linejoin="round"/>
<path d="M66.7769 13.8737L69.0181 11.6348" stroke="#263238" stroke-width="0.5" stroke-linecap="round" stroke-linejoin="round"/>
<path d="M52.7681 27.8841L55.0423 25.6099" stroke="#263238" stroke-width="0.5" stroke-linecap="round" stroke-linejoin="round"/>
<path d="M54.9434 13.8101L52.7681 11.6348" stroke="#263238" stroke-width="0.5" stroke-linecap="round" stroke-linejoin="round"/>
<path d="M69.0179 27.8841L66.8521 25.7183" stroke="#263238" stroke-width="0.5" stroke-linecap="round" stroke-linejoin="round"/>
<path d="M43.4939 8.09229H20.2422V35.5414H43.4939V8.09229Z" stroke="#FFD000" stroke-width="0.5" stroke-linejoin="round"/>
<path d="M31.9574 26.8098C35.8713 26.8098 39.0441 23.6369 39.0441 19.723C39.0441 15.8091 35.8713 12.6362 31.9574 12.6362C28.0435 12.6362 24.8706 15.8091 24.8706 19.723C24.8706 23.6369 28.0435 26.8098 31.9574 26.8098Z" stroke="#263238" stroke-width="0.5" stroke-linejoin="round"/>
<path d="M35.7893 20.8755H28.1274V29.685H35.7893V20.8755Z" stroke="#263238" stroke-width="0.5" stroke-linejoin="round"/>
<path d="M35.7893 29.687H28.1274V31.5818H35.7893V29.687Z" stroke="#263238" stroke-width="0.5" stroke-linejoin="round"/>
<path d="M35.7893 31.5869H28.1274V33.4817H35.7893V31.5869Z" stroke="#263238" stroke-width="0.5" stroke-linejoin="round"/>
<path d="M34.8212 33.4795H29.0942V35.3743H34.8212V33.4795Z" stroke="#263238" stroke-width="0.5" stroke-linejoin="round"/>
<path d="M20.4517 19.7725H43.4347" stroke="#FFD000" stroke-width="0.5" stroke-linejoin="round"/>
<path d="M31.915 31.3652V8.26904" stroke="#FFD000" stroke-width="0.5" stroke-linejoin="round"/>
<path d="M23.7373 27.9454L40.138 11.5542" stroke="#FFD000" stroke-width="0.5" stroke-linejoin="round"/>
<path d="M40.086 27.9079L23.7065 11.5991" stroke="#FFD000" stroke-width="0.5" stroke-linejoin="round"/>
<path d="M31.9575 31.3418C38.3614 31.3418 43.5528 26.1505 43.5528 19.7466C43.5528 13.3427 38.3614 8.15137 31.9575 8.15137C25.5537 8.15137 20.3623 13.3427 20.3623 19.7466C20.3623 26.1505 25.5537 31.3418 31.9575 31.3418Z" stroke="#FFD000" stroke-width="0.5" stroke-linejoin="round"/>
<path d="M31.9575 27.9716C36.5001 27.9716 40.1826 24.2891 40.1826 19.7466C40.1826 15.204 36.5001 11.5215 31.9575 11.5215C27.4149 11.5215 23.7324 15.204 23.7324 19.7466C23.7324 24.2891 27.4149 27.9716 31.9575 27.9716Z" stroke="#FFD000" stroke-width="0.5" stroke-linejoin="round"/>
</g>
<defs>
<clipPath id="clip0_159_13827">
<rect width="120" height="120" fill="white" transform="translate(0.5)"/>
</clipPath>
</defs>
</svg>
