<svg width="210" height="210" viewBox="0 0 210 210" fill="none" xmlns="http://www.w3.org/2000/svg">
<g clip-path="url(#clip0_171_16040)">
<path opacity="0.5" d="M210 190.5C210 190.559 143.998 190.375 68.6147 190.375C-6.76813 190.375 0.773646 190.559 0.773646 190.5C0.773646 190.44 -6.79653 190.154 68.6147 190.154C144.026 190.154 210 190.436 210 190.5Z" fill="#263238"/>
<path d="M93.6189 202.265C93.6189 202.265 126.114 208.468 153.021 184.837C179.928 161.207 188.933 122.075 197.02 90.5705C205.107 59.0659 192.626 30.6386 167.451 21.0894C142.275 11.5401 130.065 34.2405 98.109 40.8315C66.1526 47.4225 56.6926 44.0543 33.2782 67.9979C9.86385 91.9416 12.7181 138.325 39.3832 168.344C66.0483 198.363 93.6189 202.265 93.6189 202.265Z" fill="#FFC100"/>
<path opacity="0.7" d="M93.6189 202.265C93.6189 202.265 126.114 208.468 153.021 184.837C179.928 161.207 188.933 122.075 197.02 90.5705C205.107 59.0659 192.626 30.6386 167.451 21.0894C142.275 11.5401 130.065 34.2405 98.109 40.8315C66.1526 47.4225 56.6926 44.0543 33.2782 67.9979C9.86385 91.9416 12.7181 138.325 39.3832 168.344C66.0483 198.363 93.6189 202.265 93.6189 202.265Z" fill="white"/>
<path d="M74.5697 80.8668C74.6699 81.1754 74.9161 81.6604 75.1706 81.6604C75.5629 81.6604 75.88 81.0608 75.88 80.3378C75.88 79.6148 75.5629 79.0152 75.1706 79.0152C74.9411 79.0152 74.7074 79.456 74.6031 79.7029L71.9742 79.6192C71.8944 77.8557 71.4681 76.1291 70.7223 74.5492L74.1858 72.2919C74.4404 72.5256 74.9244 72.8474 75.1665 72.6975C75.542 72.4727 75.5337 71.7144 75.1456 71.0134C74.7575 70.3124 74.1483 69.9244 73.7769 70.1316C73.5557 70.2683 73.5557 70.8106 73.5933 71.1148L69.9878 73.1692C69.0698 71.7083 67.8783 70.4615 66.4867 69.5056L67.7136 67.0941C68.014 67.1558 68.5482 67.1778 68.665 66.9442C68.857 66.5871 68.5273 65.9963 67.9222 65.6216C67.3172 65.2468 66.6703 65.2424 66.47 65.6216C66.3532 65.8332 66.5869 66.2608 66.7455 66.5033L65.3726 68.8619C63.8921 68.0679 62.2728 67.6042 60.6154 67.4997L60.4986 63.2012C60.8199 63.0865 61.3332 62.8 61.3332 62.5046C61.3332 62.0637 60.7072 61.6802 59.9394 61.6802C59.1716 61.6802 58.5456 62.0505 58.5456 62.5046C58.5456 62.7735 58.988 63.0425 59.2592 63.1659L59.1382 67.4997C57.4822 67.6048 55.8644 68.0685 54.3852 68.8619L53.0248 66.5297C53.2293 66.2873 53.5047 65.8199 53.3754 65.5863C53.1792 65.2292 52.5408 65.238 51.9232 65.5863C51.3056 65.9346 50.9843 66.543 51.1804 66.9089C51.2972 67.1205 51.7646 67.1205 52.015 67.0852L53.2669 69.5233C51.8763 70.4804 50.685 71.727 49.7658 73.1869L46.1896 71.1501C46.2563 70.8018 46.2772 70.1978 46.031 70.0479C45.6596 69.8186 45.0462 70.2066 44.6623 70.9296C44.2784 71.6526 44.245 72.3889 44.6414 72.6137C44.8626 72.7504 45.3049 72.4771 45.5386 72.2919L49.023 74.5492C48.2802 76.1162 47.8539 77.8292 47.7711 79.5795L45.1714 79.6633C45.0754 79.3547 44.8292 78.8697 44.5746 78.8697C44.1824 78.8697 43.8652 79.4693 43.8652 80.1923C43.8652 80.9153 44.1824 81.5149 44.5746 81.5149C44.8041 81.5149 45.0378 81.074 45.1422 80.8272L47.7711 80.9109C47.8539 82.6612 48.2802 84.3742 49.023 85.9412L45.5594 88.1985C45.3049 87.9648 44.8208 87.643 44.5746 87.7929C44.2032 88.0177 44.2116 88.776 44.5955 89.477C44.9794 90.178 45.597 90.566 45.9684 90.3588C46.1896 90.2221 46.1896 89.6798 46.152 89.3756L49.7574 87.3212C50.6767 88.7811 51.8679 90.0277 53.2585 90.9848L52.0317 93.3964C51.7271 93.3346 51.1971 93.3126 51.0802 93.5462C50.8841 93.9034 51.218 94.4941 51.823 94.8689C52.4281 95.2436 53.0749 95.248 53.2752 94.8909C53.3921 94.6793 53.1584 94.2516 52.9956 94.0092L54.3727 91.6505C55.8532 92.4446 57.4725 92.9083 59.1298 93.0128L59.2467 97.3113C58.9254 97.4303 58.4121 97.7125 58.4121 98.0079C58.4121 98.4487 59.038 98.8323 59.8059 98.8323C60.5737 98.8323 61.1996 98.462 61.1996 98.0079C61.1996 97.7389 60.7531 97.47 60.4861 97.3465L60.6029 93.0128C62.2603 92.9083 63.8796 92.4446 65.36 91.6505L66.7204 93.9827C66.516 94.2252 66.2405 94.6925 66.3699 94.9262C66.566 95.2833 67.2045 95.2745 67.8221 94.9041C68.4397 94.5338 68.7568 93.9474 68.5649 93.5815C68.448 93.3699 67.9807 93.3699 67.7303 93.4052L66.4784 90.9672C67.869 90.01 69.0603 88.7634 69.9795 87.3035L73.5515 89.3404C73.4889 89.6886 73.4681 90.2926 73.7101 90.4425C74.0857 90.6674 74.6991 90.2838 75.083 89.5608C75.4669 88.8378 75.4794 88.1015 75.1039 87.8767C74.8827 87.74 74.4404 88.0133 74.2067 88.1985L70.7223 85.9809C71.465 84.4139 71.8913 82.7009 71.9742 80.9506L74.5697 80.8668Z" stroke="#787878" stroke-width="0.45" stroke-linecap="round" stroke-linejoin="round"/>
<path d="M60.8196 70.4844C60.8321 70.7484 60.7694 71.0103 60.6397 71.2363C60.51 71.4624 60.3191 71.6421 60.0917 71.7524C59.8644 71.8628 59.6109 71.8986 59.3641 71.8553C59.1173 71.8119 58.8884 71.6915 58.707 71.5094C58.5256 71.3274 58.4 71.0921 58.3464 70.8339C58.2928 70.5757 58.3137 70.3064 58.4063 70.0609C58.499 69.8153 58.6591 69.6047 58.8661 69.4563C59.0731 69.3078 59.3175 69.2283 59.5677 69.2279C59.8913 69.2196 60.2048 69.3472 60.4395 69.5828C60.6741 69.8183 60.8108 70.1425 60.8196 70.4844Z" stroke="#787878" stroke-width="0.45" stroke-linecap="round" stroke-linejoin="round"/>
<path d="M53.2751 80.6465C53.2877 80.9105 53.225 81.1724 53.0953 81.3984C52.9655 81.6245 52.7747 81.8042 52.5473 81.9146C52.3199 82.0249 52.0665 82.0607 51.8197 82.0174C51.5729 81.974 51.344 81.8536 51.1626 81.6715C50.9812 81.4895 50.8556 81.2542 50.802 80.996C50.7484 80.7378 50.7693 80.4685 50.8619 80.223C50.9545 79.9774 51.1147 79.7668 51.3217 79.6184C51.5287 79.4699 51.7731 79.3904 52.0233 79.39C52.3469 79.3817 52.6604 79.5093 52.895 79.7449C53.1297 79.9804 53.2664 80.3047 53.2751 80.6465Z" stroke="#787878" stroke-width="0.45" stroke-linecap="round" stroke-linejoin="round"/>
<path d="M58.8625 77.3797C58.8751 77.6437 58.8124 77.9056 58.6827 78.1316C58.5529 78.3576 58.3621 78.5374 58.1347 78.6477C57.9073 78.758 57.6539 78.7938 57.4071 78.7505C57.1603 78.7072 56.9314 78.5867 56.75 78.4047C56.5686 78.2226 56.443 77.9873 56.3894 77.7291C56.3358 77.4709 56.3567 77.2017 56.4493 76.9561C56.5419 76.7106 56.7021 76.5 56.9091 76.3515C57.1161 76.203 57.3605 76.1235 57.6107 76.1232C57.9343 76.1149 58.2478 76.2425 58.4824 76.478C58.7171 76.7136 58.8538 77.0378 58.8625 77.3797Z" stroke="#787878" stroke-width="0.45" stroke-linecap="round" stroke-linejoin="round"/>
<path d="M55.95 88.3131C55.9625 88.5771 55.8998 88.839 55.7701 89.0651C55.6403 89.2911 55.4495 89.4709 55.2221 89.5812C54.9947 89.6915 54.7413 89.7273 54.4945 89.684C54.2477 89.6407 54.0188 89.5202 53.8374 89.3382C53.656 89.1561 53.5304 88.9208 53.4768 88.6626C53.4232 88.4044 53.4441 88.1351 53.5367 87.8896C53.6293 87.644 53.7895 87.4334 53.9965 87.285C54.2035 87.1365 54.4479 87.057 54.6981 87.0567C55.0217 87.0484 55.3352 87.176 55.5698 87.4115C55.8045 87.647 55.9412 87.9713 55.95 88.3131Z" stroke="#787878" stroke-width="0.45" stroke-linecap="round" stroke-linejoin="round"/>
<path d="M69.5662 83.036C69.5787 83.3 69.516 83.5619 69.3863 83.788C69.2565 84.014 69.0657 84.1938 68.8383 84.3041C68.6109 84.4144 68.3575 84.4502 68.1107 84.4069C67.8639 84.3636 67.635 84.2431 67.4536 84.0611C67.2722 83.879 67.1466 83.6437 67.093 83.3855C67.0394 83.1273 67.0603 82.858 67.1529 82.6125C67.2456 82.3669 67.4057 82.1564 67.6127 82.0079C67.8197 81.8594 68.0641 81.7799 68.3143 81.7796C68.6379 81.7713 68.9514 81.8989 69.1861 82.1344C69.4207 82.3699 69.5574 82.6942 69.5662 83.036Z" stroke="#787878" stroke-width="0.45" stroke-linecap="round" stroke-linejoin="round"/>
<path d="M60.6321 84.7512C60.6446 85.0153 60.5819 85.2772 60.4522 85.5032C60.3225 85.7292 60.1316 85.909 59.9042 86.0193C59.6769 86.1296 59.4234 86.1654 59.1766 86.1221C58.9298 86.0788 58.7009 85.9583 58.5195 85.7763C58.3381 85.5942 58.2125 85.3589 58.1589 85.1007C58.1053 84.8425 58.1262 84.5733 58.2188 84.3277C58.3115 84.0822 58.4716 83.8716 58.6786 83.7231C58.8856 83.5746 59.13 83.4951 59.3802 83.4948C59.7038 83.4865 60.0173 83.6141 60.252 83.8496C60.4866 84.0852 60.6233 84.4094 60.6321 84.7512Z" stroke="#787878" stroke-width="0.45" stroke-linecap="round" stroke-linejoin="round"/>
<path d="M64.6755 79.725C64.688 79.989 64.6254 80.2509 64.4957 80.4769C64.3659 80.703 64.1751 80.8827 63.9477 80.993C63.7203 81.1034 63.4669 81.1392 63.2201 81.0959C62.9733 81.0525 62.7444 80.9321 62.563 80.75C62.3816 80.568 62.256 80.3326 62.2024 80.0744C62.1488 79.8163 62.1697 79.547 62.2623 79.3015C62.3549 79.0559 62.5151 78.8453 62.7221 78.6968C62.9291 78.5484 63.1735 78.4689 63.4237 78.4685C63.7472 78.4602 64.0608 78.5878 64.2954 78.8234C64.5301 79.0589 64.6668 79.3832 64.6755 79.725Z" stroke="#787878" stroke-width="0.45" stroke-linecap="round" stroke-linejoin="round"/>
<path d="M67.6931 73.8704C67.7056 74.1344 67.643 74.3963 67.5132 74.6223C67.3835 74.8483 67.1926 75.0281 66.9653 75.1384C66.7379 75.2488 66.4845 75.2846 66.2376 75.2412C65.9908 75.1979 65.762 75.0775 65.5806 74.8954C65.3992 74.7133 65.2736 74.478 65.22 74.2198C65.1664 73.9616 65.1872 73.6924 65.2799 73.4468C65.3725 73.2013 65.5327 72.9907 65.7397 72.8422C65.9467 72.6938 66.191 72.6142 66.4412 72.6139C66.7648 72.6056 67.0783 72.7332 67.313 72.9688C67.5477 73.2043 67.6844 73.5285 67.6931 73.8704Z" stroke="#787878" stroke-width="0.45" stroke-linecap="round" stroke-linejoin="round"/>
<path d="M64.8093 88.9392C64.8218 89.2032 64.7592 89.4651 64.6294 89.6912C64.4997 89.9172 64.3088 90.097 64.0815 90.2073C63.8541 90.3176 63.6007 90.3534 63.3539 90.3101C63.107 90.2668 62.8782 90.1463 62.6968 89.9642C62.5154 89.7822 62.3898 89.5469 62.3362 89.2887C62.2826 89.0305 62.3035 88.7612 62.3961 88.5157C62.4887 88.2701 62.6489 88.0595 62.8559 87.9111C63.0629 87.7626 63.3072 87.6831 63.5574 87.6827C63.7178 87.6781 63.8775 87.7069 64.0273 87.7675C64.1771 87.8282 64.3141 87.9195 64.4304 88.0363C64.5467 88.153 64.6401 88.2929 64.7051 88.4478C64.7701 88.6028 64.8055 88.7698 64.8093 88.9392Z" stroke="#787878" stroke-width="0.45" stroke-linecap="round" stroke-linejoin="round"/>
<path d="M54.5818 72.7285C54.5943 72.9925 54.5316 73.2544 54.4019 73.4805C54.2722 73.7065 54.0813 73.8863 53.8539 73.9966C53.6266 74.1069 53.3731 74.1427 53.1263 74.0994C52.8795 74.0561 52.6506 73.9356 52.4692 73.7535C52.2878 73.5715 52.1622 73.3362 52.1087 73.078C52.0551 72.8198 52.0759 72.5505 52.1685 72.305C52.2612 72.0594 52.4213 71.8488 52.6283 71.7004C52.8353 71.5519 53.0797 71.4724 53.3299 71.4721C53.4903 71.4674 53.6499 71.4962 53.7998 71.5568C53.9496 71.6175 54.0866 71.7088 54.2029 71.8256C54.3192 71.9423 54.4125 72.0822 54.4776 72.2371C54.5426 72.3921 54.578 72.5591 54.5818 72.7285Z" stroke="#787878" stroke-width="0.45" stroke-linecap="round" stroke-linejoin="round"/>
<path d="M87.56 121.546C87.6059 121.687 87.7186 121.912 87.8354 121.912C88.0149 121.912 88.1651 121.634 88.1651 121.295C88.1651 120.955 88.0149 120.678 87.8354 120.678C87.7311 120.678 87.6226 120.876 87.5725 120.995L86.3624 120.955C86.3235 120.149 86.1275 119.359 85.7865 118.636L87.3806 117.596C87.4974 117.702 87.7228 117.852 87.8354 117.781C87.9481 117.711 88.0024 117.34 87.8354 117.005C87.6685 116.67 87.3722 116.503 87.2012 116.608C87.101 116.67 87.101 116.917 87.1177 117.049L85.4485 117.997C85.026 117.323 84.4762 116.748 83.8336 116.309L84.4011 115.198C84.5388 115.224 84.7808 115.233 84.8184 115.127C84.856 115.021 84.7558 114.686 84.4762 114.519C84.1966 114.351 83.8962 114.342 83.8085 114.519C83.7543 114.616 83.8586 114.814 83.9337 114.915L83.3161 115.991C82.6342 115.625 81.8887 115.411 81.1253 115.361L81.0669 113.381C81.2172 113.324 81.4508 113.196 81.4508 113.059C81.4508 112.848 81.1629 112.68 80.8082 112.68C80.4535 112.68 80.1656 112.848 80.1656 113.059C80.1656 113.183 80.37 113.306 80.4952 113.364L80.4368 115.361C79.6692 115.409 78.9193 115.624 78.2335 115.991L77.6076 114.915C77.6994 114.801 77.8246 114.589 77.7661 114.475C77.7077 114.36 77.378 114.316 77.0985 114.475C76.8189 114.633 76.6812 114.915 76.7563 115.083C76.8314 115.25 77.0233 115.18 77.1444 115.167L77.7202 116.291C77.0776 116.73 76.5278 117.305 76.1053 117.979L74.4361 117.04C74.4653 116.882 74.4737 116.6 74.361 116.533C74.2483 116.467 73.9062 116.604 73.7309 116.93C73.5556 117.256 73.5473 117.605 73.7309 117.706C73.8352 117.772 74.0397 117.644 74.1482 117.561L75.759 118.61C75.418 119.333 75.2219 120.122 75.1831 120.929L73.9855 120.969C73.9396 120.823 73.8269 120.603 73.71 120.603C73.5932 120.603 73.3804 120.876 73.3804 121.22C73.3804 121.564 73.5306 121.837 73.71 121.837C73.8144 121.837 73.9229 121.639 73.9729 121.52L75.1831 121.555C75.2215 122.363 75.4175 123.154 75.759 123.878L74.1649 124.919C74.048 124.809 73.8227 124.663 73.71 124.729C73.5974 124.795 73.5431 125.17 73.71 125.509C73.877 125.849 74.1732 126.012 74.3443 125.906C74.4445 125.845 74.4445 125.593 74.4278 125.465L76.097 124.518C76.5194 125.193 77.0692 125.769 77.7119 126.21L77.1444 127.321C77.0067 127.291 76.7646 127.282 76.7062 127.392C76.6478 127.502 76.7688 127.833 77.0484 128C77.328 128.168 77.6284 128.172 77.7202 128C77.812 127.828 77.666 127.705 77.5909 127.599L78.2252 126.515C78.9066 126.881 79.6526 127.094 80.4159 127.141L80.4744 129.125C80.3241 129.178 80.0905 129.31 80.0905 129.446C80.0905 129.654 80.3784 129.826 80.7331 129.826C81.0878 129.826 81.3757 129.654 81.3757 129.446C81.3757 129.323 81.1713 129.195 81.0461 129.142L81.1045 127.141C81.8678 127.094 82.6138 126.881 83.2953 126.515L83.9212 127.586C83.8294 127.701 83.7042 127.917 83.7626 128.027C83.8211 128.137 84.1507 128.19 84.4303 128.027C84.7099 127.864 84.8476 127.586 84.7725 127.418C84.7182 127.321 84.5054 127.321 84.3844 127.339L83.8085 126.215C84.4513 125.774 85.001 125.198 85.4235 124.522L87.0718 125.461C87.0426 125.624 87.0342 125.902 87.1469 125.972C87.2596 126.043 87.6018 125.897 87.7812 125.571C87.9606 125.245 87.9606 124.901 87.7812 124.795C87.6769 124.734 87.4724 124.857 87.3639 124.945L85.7865 123.927C86.1279 123.202 86.324 122.411 86.3624 121.603L87.56 121.546Z" stroke="#787878" stroke-width="0.45" stroke-linecap="round" stroke-linejoin="round"/>
<path d="M80.6413 117.336C80.9593 117.336 81.2172 117.077 81.2172 116.758C81.2172 116.439 80.9593 116.181 80.6413 116.181C80.3233 116.181 80.0654 116.439 80.0654 116.758C80.0654 117.077 80.3233 117.336 80.6413 117.336Z" stroke="#787878" stroke-width="0.45" stroke-linecap="round" stroke-linejoin="round"/>
<path d="M77.7371 121.445C77.7421 121.566 77.7126 121.686 77.6525 121.789C77.5923 121.893 77.5042 121.975 77.3995 122.025C77.2948 122.075 77.1784 122.091 77.0651 122.071C76.9517 122.05 76.8468 121.995 76.7638 121.911C76.6807 121.827 76.6233 121.718 76.599 121.6C76.5747 121.481 76.5845 121.357 76.6273 121.245C76.67 121.132 76.7437 121.035 76.8389 120.967C76.934 120.899 77.0463 120.863 77.1613 120.863C77.2352 120.861 77.3088 120.874 77.3778 120.903C77.4468 120.931 77.5098 120.973 77.5633 121.028C77.6168 121.082 77.6597 121.146 77.6895 121.218C77.7193 121.289 77.7355 121.366 77.7371 121.445Z" stroke="#787878" stroke-width="0.45" stroke-linecap="round" stroke-linejoin="round"/>
<path d="M79.7399 120.514C80.058 120.514 80.3158 120.256 80.3158 119.937C80.3158 119.618 80.058 119.359 79.7399 119.359C79.4219 119.359 79.1641 119.618 79.1641 119.937C79.1641 120.256 79.4219 120.514 79.7399 120.514Z" stroke="#787878" stroke-width="0.45" stroke-linecap="round" stroke-linejoin="round"/>
<path d="M78.9725 124.98C78.9775 125.102 78.948 125.222 78.8878 125.325C78.8277 125.429 78.7396 125.511 78.6349 125.561C78.5302 125.611 78.4137 125.627 78.3004 125.607C78.1871 125.586 78.0822 125.53 77.9991 125.447C77.916 125.363 77.8587 125.254 77.8343 125.136C77.81 125.017 77.8199 124.893 77.8626 124.781C77.9054 124.668 77.9791 124.571 78.0742 124.503C78.1694 124.435 78.2817 124.399 78.3966 124.398C78.4706 124.397 78.5442 124.41 78.6132 124.439C78.6822 124.467 78.7452 124.509 78.7987 124.563C78.8521 124.617 78.895 124.682 78.9248 124.754C78.9547 124.825 78.9709 124.902 78.9725 124.98Z" stroke="#787878" stroke-width="0.45" stroke-linecap="round" stroke-linejoin="round"/>
<path d="M85.2528 122.547C85.2578 122.668 85.2283 122.788 85.1681 122.892C85.1079 122.995 85.0198 123.077 84.9152 123.127C84.8105 123.177 84.694 123.193 84.5807 123.173C84.4674 123.153 84.3624 123.097 84.2794 123.013C84.1963 122.929 84.1389 122.821 84.1146 122.702C84.0903 122.583 84.1001 122.46 84.1429 122.347C84.1856 122.234 84.2593 122.138 84.3545 122.069C84.4497 122.001 84.5619 121.965 84.6769 121.965C84.7509 121.963 84.8245 121.977 84.8934 122.005C84.9624 122.033 85.0255 122.076 85.0789 122.13C85.1324 122.184 85.1753 122.248 85.2051 122.32C85.2349 122.391 85.2511 122.469 85.2528 122.547Z" stroke="#787878" stroke-width="0.45" stroke-linecap="round" stroke-linejoin="round"/>
<path d="M81.1295 123.336C81.1353 123.458 81.1066 123.578 81.047 123.682C80.9873 123.786 80.8996 123.869 80.795 123.92C80.6904 123.971 80.5738 123.987 80.4603 123.967C80.3467 123.947 80.2414 123.892 80.1579 123.808C80.0744 123.724 80.0166 123.616 79.9919 123.497C79.9672 123.379 79.9768 123.255 80.0194 123.142C80.062 123.029 80.1357 122.932 80.2309 122.864C80.3261 122.795 80.4385 122.759 80.5536 122.759C80.7024 122.755 80.8464 122.814 80.9542 122.922C81.0621 123.03 81.1251 123.179 81.1295 123.336Z" stroke="#787878" stroke-width="0.45" stroke-linecap="round" stroke-linejoin="round"/>
<path d="M82.9947 121.017C83.0006 121.138 82.9718 121.259 82.9122 121.363C82.8526 121.467 82.7648 121.55 82.6602 121.601C82.5557 121.651 82.4391 121.668 82.3255 121.648C82.2119 121.628 82.1066 121.573 82.0231 121.489C81.9397 121.405 81.8818 121.297 81.8572 121.178C81.8325 121.059 81.842 120.936 81.8846 120.823C81.9272 120.71 82.0009 120.613 82.0961 120.544C82.1913 120.476 82.3038 120.44 82.4189 120.439C82.5676 120.436 82.7116 120.495 82.8195 120.603C82.9274 120.711 82.9904 120.86 82.9947 121.017Z" stroke="#787878" stroke-width="0.45" stroke-linecap="round" stroke-linejoin="round"/>
<path d="M84.3885 118.319C84.3935 118.44 84.364 118.56 84.3038 118.664C84.2437 118.767 84.1556 118.849 84.0509 118.9C83.9462 118.95 83.8297 118.966 83.7164 118.945C83.6031 118.925 83.4982 118.869 83.4151 118.785C83.3321 118.701 83.2747 118.593 83.2504 118.474C83.226 118.355 83.2359 118.232 83.2786 118.119C83.3214 118.006 83.3951 117.91 83.4902 117.842C83.5854 117.774 83.6977 117.737 83.8126 117.737C83.8866 117.735 83.9602 117.749 84.0292 117.777C84.0982 117.805 84.1612 117.848 84.2147 117.902C84.2682 117.956 84.311 118.021 84.3409 118.092C84.3707 118.164 84.3869 118.241 84.3885 118.319Z" stroke="#787878" stroke-width="0.45" stroke-linecap="round" stroke-linejoin="round"/>
<path d="M83.0577 125.249C83.0636 125.371 83.0348 125.491 82.9752 125.595C82.9156 125.699 82.8278 125.782 82.7232 125.833C82.6187 125.884 82.5021 125.9 82.3885 125.88C82.2749 125.861 82.1696 125.805 82.0861 125.721C82.0027 125.638 81.9448 125.529 81.9201 125.411C81.8955 125.292 81.905 125.168 81.9476 125.055C81.9902 124.942 82.0639 124.845 82.1591 124.777C82.2543 124.709 82.3668 124.672 82.4819 124.672C82.6306 124.668 82.7746 124.727 82.8825 124.835C82.9904 124.943 83.0534 125.092 83.0577 125.249Z" stroke="#787878" stroke-width="0.45" stroke-linecap="round" stroke-linejoin="round"/>
<path d="M78.3422 117.79C78.3489 117.912 78.3206 118.034 78.2611 118.139C78.2016 118.245 78.1135 118.329 78.0083 118.38C77.903 118.432 77.7855 118.45 77.6709 118.43C77.5563 118.41 77.4498 118.355 77.3653 118.271C77.2808 118.187 77.2222 118.078 77.197 117.958C77.1717 117.838 77.1811 117.713 77.2239 117.599C77.2666 117.485 77.3408 117.387 77.4367 117.318C77.5327 117.249 77.6461 117.212 77.7622 117.212C77.8362 117.21 77.9099 117.223 77.9791 117.251C78.0483 117.278 78.1116 117.32 78.1655 117.374C78.2194 117.428 78.2627 117.492 78.293 117.563C78.3233 117.635 78.3401 117.712 78.3422 117.79Z" stroke="#787878" stroke-width="0.45" stroke-linecap="round" stroke-linejoin="round"/>
<path d="M95.7223 50.1073C95.7682 50.2528 95.8809 50.4732 95.9977 50.4732C96.1813 50.4732 96.3274 50.1999 96.3274 49.856C96.3274 49.5121 96.1813 49.2388 95.9977 49.2388C95.8934 49.2388 95.7849 49.4372 95.7348 49.5562L94.5247 49.5209C94.4863 48.7128 94.2902 47.9218 93.9488 47.1976L95.5429 46.1571C95.6639 46.2673 95.8851 46.4128 95.9977 46.3467C96.1104 46.2805 96.1646 45.9058 95.9977 45.5663C95.8308 45.2269 95.5345 45.0637 95.3634 45.1696C95.2633 45.2313 95.2633 45.4826 95.28 45.6104L93.6108 46.5583C93.1894 45.8884 92.6427 45.3167 92.0042 44.8786L92.5717 43.7676C92.7094 43.7984 92.9515 43.8073 92.989 43.697C93.0266 43.5868 92.9264 43.2562 92.6468 43.0931C92.3673 42.9299 92.0668 42.9167 91.9792 43.0931C91.8915 43.2694 92.0334 43.3884 92.1044 43.4942L91.4784 44.57C90.7969 44.2036 90.051 43.9904 89.2876 43.9439L89.2334 41.96C89.3794 41.9071 89.6131 41.7749 89.6131 41.6382C89.6131 41.431 89.3252 41.259 88.9705 41.259C88.6158 41.259 88.3279 41.431 88.3279 41.6382C88.3279 41.7616 88.5323 41.8895 88.6575 41.9424L88.6033 43.9439C87.8385 43.9898 87.0911 44.203 86.4083 44.57L85.7824 43.4987C85.8742 43.384 85.9994 43.168 85.9409 43.0578C85.8825 42.9476 85.5528 42.8947 85.2733 43.0578C84.9937 43.2209 84.856 43.4987 84.9311 43.6662C84.9853 43.7632 85.1981 43.7632 85.3192 43.7455L85.895 44.8698C85.2523 45.3108 84.7026 45.8871 84.2801 46.5627L82.6109 45.6236C82.6401 45.4605 82.6485 45.1828 82.5358 45.1122C82.4231 45.0417 82.081 45.1872 81.9057 45.5134C81.7304 45.8397 81.7221 46.1836 81.9057 46.2894C82.01 46.3511 82.2145 46.2276 82.323 46.1395L83.9296 47.1887C83.5901 47.9138 83.3941 48.7043 83.3537 49.5121L82.1561 49.5474C82.1102 49.4063 81.9975 49.1815 81.8807 49.1815C81.7638 49.1815 81.5552 49.4592 81.5552 49.7987C81.5552 50.1382 81.7012 50.4159 81.8807 50.4159C81.985 50.4159 82.0935 50.2219 82.1436 50.0985L83.3537 50.1382C83.3946 50.9444 83.5905 51.7335 83.9296 52.4571L82.3355 53.4976C82.2187 53.3918 81.9933 53.2419 81.8807 53.3124C81.768 53.383 81.7137 53.7533 81.8807 54.0883C82.0476 54.4234 82.3439 54.5909 82.5149 54.4895C82.6151 54.4234 82.6151 54.1765 82.5984 54.0487L84.2676 53.1008C84.6901 53.7751 85.2399 54.35 85.8825 54.7893L85.3275 55.8959C85.1898 55.8695 84.9478 55.8606 84.8894 55.9665C84.8309 56.0723 84.9519 56.4073 85.2315 56.5749C85.5111 56.7424 85.8116 56.7512 85.9034 56.5749C85.9535 56.4779 85.8491 56.2795 85.774 56.1781L86.4083 55.0891C87.0917 55.4549 87.8386 55.6694 88.6033 55.7196L88.6575 57.6991C88.5073 57.7564 88.2736 57.8842 88.2736 58.0209C88.2736 58.2325 88.5615 58.4045 88.9162 58.4045C89.2709 58.4045 89.5589 58.2325 89.5589 58.0209C89.5589 57.8975 89.3544 57.774 89.2334 57.7167L89.2876 55.7196C90.0509 55.6694 90.7965 55.4549 91.4784 55.0891L92.1085 56.1648C92.0126 56.2795 91.8874 56.4911 91.9458 56.6057C92.0042 56.7203 92.3339 56.7644 92.6135 56.6057C92.8931 56.447 93.0308 56.1648 92.9556 55.9973C92.9014 55.9003 92.6886 55.9003 92.5676 55.9136L92.0042 54.7849C92.6468 54.3456 93.1966 53.7707 93.6191 53.0964L95.2675 54.0354C95.2382 54.1986 95.2299 54.4763 95.3426 54.5424C95.4552 54.6086 95.7974 54.4719 95.9769 54.1457C96.1563 53.8194 96.1563 53.4711 95.9769 53.3697C95.8767 53.308 95.6681 53.4315 95.5596 53.5152L93.9488 52.4659C94.2898 51.7431 94.4858 50.9536 94.5247 50.147L95.7223 50.1073Z" stroke="#787878" stroke-width="0.45" stroke-linecap="round" stroke-linejoin="round"/>
<path d="M89.3795 45.3197C89.3853 45.4412 89.3566 45.5617 89.297 45.6657C89.2374 45.7698 89.1496 45.8525 89.045 45.9034C88.9404 45.9542 88.8238 45.9707 88.7103 45.9508C88.5967 45.931 88.4914 45.8756 88.4079 45.7919C88.3244 45.7081 88.2666 45.5999 88.2419 45.4811C88.2172 45.3623 88.2268 45.2385 88.2694 45.1255C88.312 45.0125 88.3856 44.9156 88.4809 44.8473C88.5761 44.779 88.6885 44.7424 88.8036 44.7422C88.8774 44.7399 88.9509 44.753 89.0199 44.7808C89.0888 44.8086 89.1519 44.8506 89.2054 44.9043C89.259 44.9579 89.3019 45.0223 89.3318 45.0936C89.3617 45.1649 89.3779 45.2418 89.3795 45.3197Z" stroke="#787878" stroke-width="0.45" stroke-linecap="round" stroke-linejoin="round"/>
<path d="M85.8994 50.006C85.9036 50.1273 85.8733 50.2472 85.8124 50.3502C85.7515 50.4533 85.6628 50.5347 85.5578 50.584C85.4527 50.6333 85.3361 50.6483 85.223 50.627C85.1098 50.6057 85.0053 50.5491 84.9228 50.4645C84.8403 50.3799 84.7837 50.2712 84.7602 50.1523C84.7367 50.0335 84.7474 49.9099 84.791 49.7975C84.8345 49.6851 84.9089 49.5891 85.0046 49.5217C85.1002 49.4544 85.2128 49.4188 85.3277 49.4196C85.4017 49.4185 85.4752 49.4327 85.5439 49.4615C85.6127 49.4904 85.6754 49.5332 85.7285 49.5877C85.7816 49.6421 85.824 49.7071 85.8533 49.7789C85.8827 49.8506 85.8983 49.9278 85.8994 50.006Z" stroke="#787878" stroke-width="0.45" stroke-linecap="round" stroke-linejoin="round"/>
<path d="M87.9025 49.0759C88.2206 49.0759 88.4784 48.8173 88.4784 48.4983C88.4784 48.1794 88.2206 47.9208 87.9025 47.9208C87.5845 47.9208 87.3267 48.1794 87.3267 48.4983C87.3267 48.8173 87.5845 49.0759 87.9025 49.0759Z" stroke="#787878" stroke-width="0.45" stroke-linecap="round" stroke-linejoin="round"/>
<path d="M87.1345 53.542C87.1369 53.6638 87.1047 53.7835 87.042 53.8857C86.9793 53.9879 86.889 54.0679 86.7828 54.1153C86.6766 54.1627 86.5593 54.1753 86.4463 54.1515C86.3332 54.1277 86.2295 54.0686 86.1485 53.9818C86.0676 53.895 86.0132 53.7846 85.9924 53.6648C85.9716 53.545 85.9852 53.4213 86.0317 53.3098C86.0781 53.1983 86.1551 53.1041 86.2528 53.0394C86.3505 52.9747 86.4643 52.9424 86.5795 52.9468C86.7275 52.9491 86.8686 53.0128 86.9725 53.1242C87.0763 53.2356 87.1345 53.3856 87.1345 53.542Z" stroke="#787878" stroke-width="0.45" stroke-linecap="round" stroke-linejoin="round"/>
<path d="M93.4147 51.1083C93.4205 51.2298 93.3918 51.3503 93.3321 51.4543C93.2725 51.5583 93.1847 51.6411 93.0802 51.6919C92.9756 51.7427 92.859 51.7593 92.7454 51.7394C92.6319 51.7195 92.5266 51.6642 92.4431 51.5804C92.3596 51.4967 92.3018 51.3885 92.2771 51.2697C92.2524 51.1509 92.262 51.027 92.3045 50.9141C92.3471 50.8011 92.4208 50.7042 92.516 50.6359C92.6113 50.5675 92.7237 50.5309 92.8388 50.5308C92.9126 50.5284 92.9861 50.5416 93.055 50.5694C93.124 50.5972 93.1871 50.6391 93.2406 50.6928C93.2941 50.7465 93.3371 50.8109 93.367 50.8822C93.3968 50.9535 93.413 51.0304 93.4147 51.1083Z" stroke="#787878" stroke-width="0.45" stroke-linecap="round" stroke-linejoin="round"/>
<path d="M89.2918 51.9019C89.2968 52.0232 89.2673 52.1434 89.2072 52.2468C89.147 52.3503 89.0589 52.4324 88.9542 52.4825C88.8495 52.5326 88.733 52.5485 88.6197 52.5281C88.5064 52.5077 88.4015 52.452 88.3184 52.368C88.2354 52.2841 88.178 52.1758 88.1537 52.0571C88.1293 51.9385 88.1392 51.8148 88.1819 51.7021C88.2247 51.5894 88.2984 51.4927 88.3936 51.4246C88.4887 51.3565 88.601 51.3201 88.7159 51.32C88.7899 51.3182 88.8635 51.3319 88.9325 51.3602C89.0015 51.3885 89.0645 51.4309 89.118 51.4849C89.1715 51.5389 89.2144 51.6036 89.2442 51.6751C89.274 51.7467 89.2902 51.8238 89.2918 51.9019Z" stroke="#787878" stroke-width="0.45" stroke-linecap="round" stroke-linejoin="round"/>
<path d="M91.1697 49.5828C91.1747 49.7041 91.1453 49.8243 91.0851 49.9277C91.0249 50.0312 90.9368 50.1133 90.8322 50.1634C90.7275 50.2136 90.611 50.2294 90.4977 50.209C90.3844 50.1886 90.2794 50.1329 90.1964 50.0489C90.1133 49.965 90.0559 49.8567 90.0316 49.738C90.0073 49.6194 90.0171 49.4957 90.0599 49.383C90.1026 49.2703 90.1763 49.1736 90.2715 49.1055C90.3667 49.0374 90.4789 49.001 90.5939 49.0009C90.6679 48.9991 90.7414 49.0128 90.8104 49.0411C90.8794 49.0694 90.9425 49.1118 90.9959 49.1658C91.0494 49.2199 91.0923 49.2845 91.1221 49.356C91.1519 49.4276 91.1681 49.5047 91.1697 49.5828Z" stroke="#787878" stroke-width="0.45" stroke-linecap="round" stroke-linejoin="round"/>
<path d="M92.5509 46.8802C92.5567 47.0016 92.528 47.1222 92.4684 47.2262C92.4087 47.3302 92.321 47.413 92.2164 47.4638C92.1118 47.5146 91.9952 47.5311 91.8817 47.5113C91.7681 47.4914 91.6628 47.436 91.5793 47.3523C91.4958 47.2686 91.438 47.1603 91.4133 47.0415C91.3886 46.9228 91.3982 46.7989 91.4408 46.6859C91.4834 46.5729 91.557 46.476 91.6523 46.4077C91.7475 46.3394 91.8599 46.3028 91.975 46.3026C92.1237 46.2991 92.2678 46.3578 92.3756 46.466C92.4835 46.5742 92.5465 46.7231 92.5509 46.8802Z" stroke="#787878" stroke-width="0.45" stroke-linecap="round" stroke-linejoin="round"/>
<path d="M91.22 53.8284C91.225 53.9497 91.1956 54.0699 91.1354 54.1733C91.0752 54.2768 90.9871 54.3589 90.8824 54.409C90.7778 54.4591 90.6613 54.475 90.548 54.4546C90.4347 54.4342 90.3297 54.3785 90.2467 54.2945C90.1636 54.2106 90.1062 54.1023 90.0819 53.9836C90.0576 53.865 90.0674 53.7413 90.1102 53.6286C90.1529 53.5159 90.2266 53.4192 90.3218 53.3511C90.417 53.283 90.5292 53.2466 90.6442 53.2465C90.7183 53.2441 90.7921 53.2574 90.8614 53.2855C90.9306 53.3136 90.9938 53.3559 91.0474 53.4101C91.101 53.4642 91.1439 53.5291 91.1735 53.6009C91.2032 53.6728 91.219 53.7501 91.22 53.8284Z" stroke="#787878" stroke-width="0.45" stroke-linecap="round" stroke-linejoin="round"/>
<path d="M86.5043 46.3558C86.511 46.4784 86.4827 46.6003 86.4229 46.7058C86.3632 46.8112 86.2749 46.8952 86.1694 46.9469C86.0639 46.9986 85.9462 47.0156 85.8314 46.9958C85.7167 46.9759 85.6102 46.92 85.5259 46.8355C85.4416 46.7509 85.3833 46.6415 85.3585 46.5214C85.3338 46.4014 85.3437 46.2763 85.3871 46.1623C85.4305 46.0483 85.5053 45.9508 85.6019 45.8823C85.6984 45.8138 85.8122 45.7775 85.9285 45.7782C86.0022 45.7759 86.0757 45.789 86.1447 45.8168C86.2137 45.8446 86.2767 45.8866 86.3303 45.9403C86.3838 45.994 86.4267 46.0583 86.4566 46.1296C86.4865 46.2009 86.5027 46.2778 86.5043 46.3558Z" stroke="#787878" stroke-width="0.45" stroke-linecap="round" stroke-linejoin="round"/>
<path d="M180.967 51.1436C180.967 45.0287 175.809 40.6906 170.347 36.0967C170.293 36.0526 170.238 36.0085 170.188 35.96C171.866 34.55 173.473 33.049 175.004 31.4632C182.302 23.7523 180.888 17.0776 180.817 16.7954C180.756 16.5283 180.598 16.2974 180.377 16.1536C180.155 16.0098 179.889 15.9647 179.636 16.0283C179.382 16.0923 179.161 16.2596 179.023 16.494C178.885 16.7284 178.84 17.011 178.897 17.2804C179.055 18.2707 179.045 19.2828 178.868 20.2695H158.354C158.178 19.2828 158.166 18.2711 158.321 17.2804C158.38 17.0124 158.337 16.7304 158.201 16.496C158.064 16.2616 157.845 16.094 157.592 16.0298C157.338 15.9656 157.071 16.0102 156.849 16.1537C156.626 16.2972 156.467 16.5279 156.405 16.7954C156.338 17.0776 154.92 23.7523 162.214 31.4632C163.747 33.048 165.356 34.5489 167.034 35.96L166.875 36.0967C161.417 40.6906 156.267 45.0111 156.267 51.1436C156.267 57.8051 163.578 64.7532 166.967 67.6145C164.513 69.4617 155.091 77.3445 156.814 88.45C156.851 88.695 156.969 88.9182 157.147 89.0797C157.325 89.2413 157.552 89.3306 157.786 89.3317C157.839 89.338 157.892 89.338 157.945 89.3317C158.073 89.3098 158.195 89.2615 158.305 89.1895C158.415 89.1176 158.511 89.0234 158.586 88.9125C158.662 88.8015 158.716 88.6759 158.746 88.5429C158.775 88.4098 158.78 88.2719 158.759 88.137C158.61 87.1741 158.557 86.1974 158.6 85.2228H178.63C178.672 86.1974 178.619 87.1739 178.472 88.137C178.45 88.272 178.454 88.4101 178.484 88.5434C178.513 88.6767 178.567 88.8025 178.643 88.9136C178.718 89.0247 178.814 89.1188 178.925 89.1906C179.035 89.2624 179.157 89.3103 179.285 89.3317C179.338 89.3382 179.391 89.3382 179.444 89.3317C179.679 89.3306 179.905 89.2413 180.084 89.0797C180.262 88.9182 180.38 88.695 180.416 88.45C182.144 77.3092 172.655 69.4132 170.264 67.6145C173.635 64.7753 180.967 57.8184 180.967 51.1436ZM158.229 51.1436C158.231 50.8814 158.247 50.6194 158.275 50.3588H178.952C178.978 50.6195 178.992 50.8814 178.993 51.1436C178.993 51.3067 178.993 51.4742 178.993 51.6418H158.254C158.241 51.4742 158.229 51.3067 158.229 51.1436ZM178.835 52.6866C178.75 53.1201 178.639 53.5472 178.501 53.9652H158.725C158.586 53.5478 158.474 53.1206 158.392 52.6866H178.835ZM178.793 49.3184H158.433C158.534 48.881 158.665 48.4522 158.826 48.0355H178.384C178.553 48.4515 178.693 48.8803 178.801 49.3184H178.793ZM159.126 55.01H178.096C177.913 55.4509 177.704 55.8653 177.474 56.2929H159.748C159.518 55.8653 159.31 55.4377 159.126 55.01ZM160.62 26.1286H176.606C176.331 26.5695 176.031 27.0104 175.688 27.4997H161.534C161.196 27.0324 160.895 26.5783 160.62 26.1286ZM177.203 25.0882H160.023C159.773 24.6164 159.56 24.1624 159.372 23.7215H177.862C177.671 24.1624 177.454 24.6164 177.203 25.0882ZM178.659 21.3099C178.544 21.7732 178.405 22.2294 178.242 22.6766H158.963C158.796 22.1961 158.667 21.7376 158.546 21.3099H178.659ZM163.616 29.9862C163.153 29.4969 162.731 29.0163 162.343 28.5402H174.883C174.495 29.0163 174.073 29.4969 173.61 29.9862C172.02 31.626 170.348 33.1756 168.603 34.6286C166.864 33.1751 165.2 31.6255 163.616 29.9862ZM168.106 37.7279L168.611 37.287L169.12 37.7279C172.876 40.8978 176.285 43.7678 177.933 46.9862H159.289C160.941 43.7678 164.334 40.8978 168.106 37.7279ZM161.037 77.9705H176.435C176.48 77.967 176.523 77.9566 176.565 77.9397C176.807 78.3805 177.028 78.8567 177.237 79.3372H159.99C160.215 78.8214 160.457 78.3232 160.716 77.8383C160.804 77.9222 160.918 77.9692 161.037 77.9705ZM159.572 80.3777H177.654C177.817 80.8185 177.958 81.2815 178.071 81.7488H159.126C159.268 81.2815 159.41 80.8229 159.572 80.3777ZM158.671 84.1559C158.721 83.7151 158.8 83.2389 158.892 82.7892H178.334C178.426 83.2301 178.501 83.693 178.555 84.1559H158.671ZM175.989 76.9257H161.237C163.195 73.7962 165.697 71.0882 168.611 68.9459H168.632C171.54 71.0899 174.037 73.7978 175.989 76.9257ZM168.615 66.3448C166.7 64.7621 162.773 61.266 160.353 57.3422H176.869C174.424 61.2616 170.506 64.7665 168.615 66.336V66.3448Z" stroke="#787878" stroke-width="0.45" stroke-miterlimit="10"/>
<path d="M19.5912 136.055C20.7388 136.584 23.5388 136.518 23.543 136.518C23.5472 136.518 22.9421 134.578 22.8878 134.463C22.2702 133.101 20.3298 130.857 18.7441 131.086C18.4825 131.131 18.2327 131.234 18.0112 131.388C17.7896 131.542 17.6012 131.743 17.4583 131.979C17.3154 132.215 17.2211 132.48 17.1817 132.757C17.1422 133.034 17.1584 133.316 17.2293 133.586C17.4922 134.746 18.6147 135.605 19.5912 136.055Z" fill="#263238"/>
<path d="M20.5589 144.648C21.7482 144.833 24.2478 144.066 24.4481 144.004C24.8595 145.516 25.3655 146.998 25.9629 148.439C26.3092 149.277 26.6806 150.114 27.0604 150.948C26.835 150.595 26.6431 150.282 26.593 150.242C25.6624 149.1 23.2254 147.482 21.7566 148.139C21.5159 148.256 21.3011 148.425 21.1263 148.636C20.9515 148.846 20.8205 149.093 20.7418 149.36C20.6631 149.628 20.6385 149.909 20.6695 150.187C20.7006 150.465 20.7866 150.733 20.922 150.974C21.4645 152.019 22.7664 152.535 23.818 152.698C24.8696 152.861 27.0312 152.257 27.5987 152.085C27.7489 152.402 27.895 152.724 28.0452 153.042C28.7671 154.563 29.4974 156.079 30.1692 157.591C30.4071 158.125 30.6199 158.658 30.8369 159.192C30.6366 158.874 30.4613 158.614 30.4196 158.579C29.4848 157.437 27.052 155.815 25.579 156.476C25.3378 156.593 25.1226 156.761 24.9474 156.972C24.7723 157.182 24.641 157.429 24.5622 157.696C24.4835 157.964 24.459 158.246 24.4904 158.524C24.5218 158.802 24.6083 159.07 24.7444 159.311C25.2869 160.356 26.5846 160.872 27.6404 161.035C28.6962 161.198 30.6449 160.647 31.3168 160.453C31.5254 161.004 31.7341 161.555 31.9093 162.102C32.022 162.476 32.1555 162.829 32.2473 163.213C32.3391 163.596 32.4435 163.966 32.5436 164.337C32.7064 165.06 32.8816 165.8 33.0235 166.506C33.1236 167 33.2154 167.467 33.3073 167.943C33.0777 167.41 32.6062 166.378 32.5561 166.294C31.7967 165.02 29.6351 163.027 28.0744 163.442C27.8175 163.517 27.5785 163.648 27.3729 163.827C27.1674 164.006 27.0001 164.229 26.8819 164.481C26.7636 164.734 26.6973 165.009 26.687 165.291C26.6768 165.572 26.723 165.852 26.8225 166.113C27.2064 167.229 28.4166 167.948 29.4348 168.278C30.5573 168.64 33.0402 168.309 33.349 168.278C33.4992 169.063 33.6369 169.826 33.7663 170.549C34.1836 173.053 34.4423 175.156 34.6009 176.628C34.6301 176.888 34.6509 177.122 34.676 177.342H29.8896L30.4738 189.352H41.0063L41.5864 177.342H37.113C37.1464 177.272 37.1756 177.201 37.209 177.126C37.8265 175.773 38.6778 173.833 39.5959 171.452C39.888 170.703 40.1884 169.896 40.4847 169.063C40.7852 169.129 43.243 169.658 44.3906 169.385C45.4255 169.133 46.6857 168.503 47.1489 167.427C47.2664 167.176 47.3326 166.902 47.343 166.622C47.3535 166.342 47.308 166.063 47.2096 165.803C47.1112 165.543 46.962 165.308 46.7718 165.113C46.5816 164.918 46.3546 164.768 46.1057 164.672C44.5951 164.134 42.2832 165.95 41.4361 167.163C41.3861 167.233 40.927 168.071 40.6475 168.609C40.7685 168.265 40.8853 167.939 41.0063 167.586C41.2484 166.889 41.4695 166.188 41.7116 165.435L42.0287 164.315C42.1414 163.944 42.2165 163.539 42.3125 163.146C42.5169 162.234 42.6839 161.299 42.8299 160.351C43.4099 160.576 45.4672 161.33 46.5355 161.233C47.6037 161.136 48.9307 160.744 49.5442 159.747C49.6967 159.518 49.8018 159.257 49.8526 158.982C49.9033 158.706 49.8986 158.423 49.8388 158.15C49.7789 157.876 49.6653 157.619 49.5053 157.396C49.3452 157.172 49.1423 156.986 48.9099 156.851C47.4911 156.079 44.9456 157.503 43.9357 158.566C43.8731 158.632 43.2305 159.483 42.8842 159.955C42.9676 159.386 43.0552 158.817 43.1262 158.24C43.3223 156.564 43.4725 154.867 43.6269 153.17C43.677 152.654 43.7271 152.138 43.7813 151.618C43.9858 151.701 46.4145 152.654 47.6079 152.566C48.672 152.486 50.0032 152.076 50.6208 151.08C50.774 150.85 50.8794 150.588 50.9303 150.311C50.9812 150.035 50.9764 149.751 50.9161 149.476C50.8559 149.202 50.7416 148.945 50.5807 148.72C50.4197 148.496 50.2159 148.31 49.9823 148.174C48.5635 147.403 46.0222 148.827 45.0123 149.889C44.9331 149.969 44.0108 151.19 43.7897 151.516C43.9023 150.374 44.0275 149.241 44.207 148.13C44.4231 146.625 44.7311 145.136 45.1292 143.673C45.2252 143.713 47.754 144.722 48.9808 144.63C50.0407 144.551 51.3719 144.141 51.9895 143.144C52.1421 142.915 52.2471 142.654 52.2979 142.378C52.3487 142.103 52.344 141.82 52.2841 141.546C52.2243 141.273 52.1106 141.016 51.9506 140.792C51.7906 140.569 51.5877 140.383 51.3552 140.248C49.9364 139.476 47.3909 140.9 46.3811 141.963C46.3018 142.046 45.3086 143.36 45.1292 143.616C45.1542 143.528 45.1709 143.44 45.196 143.356C45.6327 141.901 46.1913 140.491 46.8651 139.141C47.2282 138.387 47.6163 137.695 48.0043 137.025C48.4592 137.263 50.5415 138.348 51.6515 138.378C52.7615 138.409 54.0843 138.171 54.7979 137.25C54.9729 137.039 55.104 136.792 55.1827 136.525C55.2615 136.258 55.2861 135.976 55.255 135.697C55.2239 135.419 55.1378 135.151 55.0023 134.91C54.8667 134.67 54.6848 134.462 54.4682 134.3C53.1371 133.366 50.4622 134.485 49.348 135.425C49.2854 135.477 48.7221 136.068 48.3215 136.505C48.5009 136.205 48.6804 135.896 48.8598 135.623C49.5275 134.56 50.2035 133.635 50.8044 132.815C51.1507 132.352 51.4721 131.933 51.7767 131.563C52.34 131.563 54.5976 131.479 55.5866 130.989C56.5756 130.5 57.673 129.618 57.8859 128.454C57.9491 128.182 57.9576 127.899 57.9106 127.623C57.8636 127.347 57.7623 127.085 57.6132 126.853C57.4641 126.621 57.2705 126.424 57.045 126.277C56.8196 126.129 56.5672 126.033 56.3043 125.994C54.7186 125.814 52.8324 128.115 52.2524 129.49C52.2023 129.609 51.6181 131.563 51.6473 131.563H51.6807C51.3803 131.924 51.0631 132.312 50.7251 132.744C50.1033 133.551 49.4106 134.468 48.7179 135.522C47.9568 136.643 47.2601 137.812 46.6314 139.022C45.9201 140.368 45.3237 141.779 44.8496 143.237C44.8496 143.237 44.8496 143.272 44.8496 143.29C44.8496 142.796 44.8496 141.412 44.8246 141.306C44.641 139.811 43.4558 137.043 41.9035 136.734C41.6414 136.69 41.3735 136.705 41.1173 136.779C40.8612 136.852 40.6225 136.981 40.4169 137.158C40.2113 137.336 40.0434 137.557 39.9243 137.807C39.8051 138.058 39.7373 138.332 39.7252 138.612C39.6334 139.798 40.4472 140.984 41.24 141.733C42.1372 142.58 44.6243 143.4 44.8204 143.462C44.375 144.964 44.0238 146.496 43.7688 148.047C43.6186 148.928 43.4892 149.863 43.3766 150.78C43.3766 150.339 43.3766 149.969 43.3557 149.898C43.1721 148.404 41.987 145.635 40.4346 145.326C40.1726 145.283 39.905 145.299 39.6491 145.373C39.3932 145.446 39.1548 145.576 38.9493 145.753C38.7439 145.93 38.576 146.151 38.4567 146.401C38.3373 146.651 38.269 146.925 38.2564 147.205C38.1646 148.391 38.9783 149.576 39.7753 150.326C40.5723 151.075 42.6964 151.829 43.2472 152.019C43.2055 152.372 43.1596 152.724 43.122 153.077C42.9301 154.77 42.7464 156.458 42.5169 158.112C42.4376 158.694 42.3375 159.262 42.2373 159.836C42.2373 159.456 42.2373 159.135 42.2373 159.086C42.0537 157.591 40.8686 154.823 39.3163 154.514C39.054 154.471 38.7862 154.487 38.5301 154.56C38.274 154.634 38.0353 154.763 37.8295 154.94C37.6238 155.117 37.4555 155.338 37.3357 155.588C37.2158 155.838 37.1471 156.112 37.1338 156.392C37.042 157.578 37.8599 158.764 38.6528 159.514C39.4457 160.263 41.2776 160.96 41.9285 161.189C41.8117 161.771 41.6949 162.353 41.5572 162.913C41.457 163.292 41.3819 163.662 41.2609 164.037C41.1399 164.412 41.0314 164.782 40.9229 165.148C40.6808 165.845 40.4388 166.563 40.1884 167.238C40.0173 167.705 39.8463 168.15 39.6752 168.596C39.7628 168.018 39.9088 166.885 39.9088 166.788C39.8931 165.462 39.5554 164.163 38.9282 163.014C38.933 162.867 38.9232 162.719 38.899 162.573C38.8663 162.295 38.7785 162.028 38.6414 161.788C38.5042 161.549 38.3208 161.342 38.103 161.182C37.8853 161.023 37.6381 160.913 37.3777 160.861C37.1172 160.809 36.8493 160.816 36.5914 160.88C35.0474 161.321 34.0876 164.178 33.9958 165.681C33.9958 165.77 34.0459 166.74 34.0918 167.348C34.0125 166.995 33.9415 166.647 33.8581 166.285C33.6953 165.562 33.5159 164.848 33.3198 164.081C33.2155 163.711 33.1111 163.34 33.0026 162.966C32.8941 162.591 32.7523 162.207 32.6312 161.824C32.3224 160.942 31.9761 160.06 31.6047 159.179C32.2014 159.029 34.3129 158.46 35.1642 157.772C36.0155 157.084 36.921 155.978 36.921 154.788C36.9277 154.508 36.8786 154.229 36.777 153.971C36.6753 153.712 36.5234 153.479 36.331 153.287C36.1386 153.094 35.91 152.947 35.6601 152.854C35.4102 152.761 35.1446 152.724 34.8805 152.746C33.2906 152.927 31.9135 155.599 31.6256 157.076C31.6256 157.168 31.5129 158.248 31.4753 158.839C31.2458 158.315 31.0247 157.79 30.7785 157.27C30.0691 155.757 29.3054 154.254 28.5501 152.751L27.8657 151.366C28.0827 151.313 30.6074 150.696 31.5588 149.925C32.3934 149.241 33.2989 148.122 33.2906 146.931C33.2979 146.651 33.2492 146.372 33.1478 146.113C33.0464 145.854 32.8946 145.621 32.7021 145.428C32.5096 145.235 32.2808 145.087 32.0307 144.993C31.7805 144.9 31.5145 144.863 31.25 144.886C29.6601 145.066 28.283 147.738 27.9951 149.215C27.9951 149.325 27.8407 150.886 27.824 151.283C27.3274 150.264 26.835 149.246 26.3927 148.223C25.7809 146.844 25.2554 145.424 24.8195 143.973C24.9155 143.947 27.5569 143.316 28.5292 142.527C29.3638 141.839 30.2694 140.719 30.261 139.529C30.2676 139.249 30.2186 138.971 30.117 138.712C30.0153 138.453 29.8635 138.22 29.6711 138.027C29.4788 137.834 29.2503 137.686 29.0004 137.593C28.7505 137.499 28.4848 137.462 28.2204 137.483C26.6347 137.669 25.2577 140.34 24.9697 141.813C24.9447 141.932 24.8028 143.607 24.7986 143.911C24.7736 143.828 24.7402 143.744 24.7152 143.66C24.3211 142.192 24.0516 140.69 23.9098 139.172C23.818 138.334 23.7804 137.527 23.7554 136.743C24.2603 136.677 26.5554 136.355 27.511 135.746C28.4666 135.138 29.4306 134.155 29.5474 132.969C29.5832 132.692 29.5636 132.411 29.49 132.143C29.4165 131.874 29.2905 131.626 29.1202 131.412C28.9499 131.199 28.7392 131.025 28.5015 130.903C28.2639 130.781 28.0047 130.713 27.7406 130.703C26.1423 130.703 24.4982 133.194 24.0558 134.627C24.0308 134.706 23.8722 135.508 23.7637 136.126C23.7637 135.768 23.7637 135.403 23.7637 135.063C23.7637 133.789 23.843 132.621 23.9181 131.589C23.9682 130.998 24.0225 130.469 24.0767 129.975C24.5399 129.64 26.3843 128.26 26.9519 127.277C27.5194 126.294 27.9617 124.932 27.5444 123.821C27.4554 123.557 27.3148 123.316 27.1318 123.114C26.9489 122.911 26.7277 122.751 26.4825 122.645C26.2373 122.538 25.9737 122.488 25.7088 122.496C25.4439 122.504 25.1835 122.571 24.9447 122.692C23.5259 123.468 23.1545 126.484 23.3882 127.983C23.3882 128.111 23.9432 130.081 23.9682 130.064H23.9974C23.9348 130.535 23.8722 131.047 23.818 131.607C23.7178 132.643 23.6177 133.811 23.5885 135.089C23.5453 136.469 23.5774 137.849 23.6845 139.225C23.7869 140.757 24.0187 142.277 24.3772 143.766C24.379 143.783 24.379 143.801 24.3772 143.819C24.1268 143.4 23.3882 142.258 23.3214 142.179C22.3908 141.041 19.9538 139.419 18.485 140.076C18.2441 140.193 18.0294 140.363 17.8545 140.574C17.6797 140.784 17.5487 141.032 17.47 141.299C17.3913 141.567 17.3667 141.849 17.3978 142.127C17.4289 142.406 17.5149 142.674 17.6504 142.915C18.2054 143.951 19.5073 144.467 20.5589 144.648ZM36.3911 166.735C37.2256 167.67 39.3121 168.763 39.5708 168.904C39.2871 169.645 39.0033 170.363 38.7362 171.034C37.7765 173.366 36.896 175.27 36.2617 176.593C36.1323 176.857 36.0197 177.096 35.9112 177.312H35.7943C35.7609 177.056 35.7276 176.774 35.6858 176.456C35.4939 174.971 35.1893 172.854 34.7135 170.333C34.5675 169.539 34.3922 168.688 34.2086 167.82C34.9553 167.503 35.684 167.141 36.3911 166.735Z" fill="#263238"/>
<path d="M47.9379 136.712C47.9629 136.712 48.447 134.741 48.4637 134.613C48.6598 133.123 48.2091 130.116 46.7945 129.385C46.5526 129.269 46.2904 129.209 46.0251 129.208C45.7597 129.207 45.4971 129.266 45.2545 129.379C45.0119 129.493 44.7947 129.659 44.6171 129.867C44.4396 130.076 44.3056 130.321 44.224 130.588C43.8359 131.708 44.3241 133.079 44.9042 134.023C45.5635 135.129 47.9337 136.712 47.9379 136.712Z" fill="#263238"/>
<path d="M59.535 131.201C59.2724 131.248 59.0036 131.239 58.7443 131.175C58.4849 131.112 58.2399 130.995 58.0235 130.831C57.8071 130.667 57.6235 130.46 57.4833 130.22C57.3431 129.981 57.249 129.715 57.2065 129.437L54.106 109.903L58.0869 109.193L61.1874 128.732C61.2341 129.009 61.2282 129.293 61.1702 129.568C61.1122 129.842 61.0031 130.102 60.8494 130.331C60.6957 130.561 60.5004 130.756 60.2747 130.905C60.0491 131.055 59.7976 131.155 59.535 131.201Z" fill="white" stroke="#263238" stroke-width="0.45" stroke-linecap="round" stroke-linejoin="round"/>
<path d="M59.4847 118.023L55.3535 117.772L57.2063 129.451C57.2412 129.735 57.33 130.009 57.4675 130.257C57.605 130.504 57.7883 130.72 58.0065 130.891C58.2247 131.062 58.4732 131.184 58.7373 131.251C59.0013 131.318 59.2755 131.329 59.5433 131.281C59.8112 131.234 60.0672 131.13 60.2961 130.975C60.525 130.821 60.7221 130.619 60.8756 130.382C61.0291 130.146 61.1358 129.879 61.1893 129.597C61.2429 129.316 61.2422 129.026 61.1873 128.745L59.4847 118.023Z" fill="#FFC100" stroke="#263238" stroke-width="0.45" stroke-linecap="round" stroke-linejoin="round"/>
<path d="M58.6931 108.463L53.3062 109.419L53.9356 113.38L59.3225 112.424L58.6931 108.463Z" fill="white" stroke="#263238" stroke-width="0.45" stroke-linecap="round" stroke-linejoin="round"/>
<path d="M66.4537 152.746C66.4537 152.746 53.3381 138.043 51.0138 135.768C48.6895 133.493 47.9467 131.734 48.0302 130.707C48.1136 129.68 51.0305 126.554 52.5328 126.686C54.035 126.819 62.4143 132.444 64.5884 135.389C66.2548 137.643 67.5023 140.21 68.2647 142.955C68.7488 144.687 68.7279 144.969 68.7279 144.969L72.0872 148.651L66.4537 152.746Z" fill="#999999" stroke="#263238" stroke-width="0.45" stroke-linecap="round" stroke-linejoin="round"/>
<path d="M48.6395 132.665C48.6395 132.665 47.4126 130.496 48.0594 129.372C48.7062 128.247 55.4205 119.232 56.5388 119.205C57.6572 119.179 56.2968 122.291 54.7027 124.795C53.1087 127.3 51.3644 130.086 51.3185 130.527C51.2726 130.968 51.2267 131.699 51.2267 131.699" fill="#999999"/>
<path d="M48.6395 132.665C48.6395 132.665 47.4126 130.496 48.0594 129.372C48.7062 128.247 55.4205 119.232 56.5388 119.205C57.6572 119.179 56.2968 122.291 54.7027 124.795C53.1087 127.3 51.3644 130.086 51.3185 130.527C51.2726 130.968 51.2267 131.699 51.2267 131.699" stroke="#263238" stroke-width="0.45" stroke-linecap="round" stroke-linejoin="round"/>
<path d="M51.2016 133.525C51.2016 133.525 51.1056 130.227 51.9402 128.702C52.7748 127.176 57.9951 119.642 58.571 119.13C59.1469 118.619 60.7159 119.033 59.6184 121.665C58.5209 124.297 55.5331 130.522 55.4747 131.272C55.4163 132.021 54.782 136.664 54.782 136.664" fill="#999999"/>
<path d="M51.2016 133.525C51.2016 133.525 51.1056 130.227 51.9402 128.702C52.7748 127.176 57.9951 119.642 58.571 119.13C59.1469 118.619 60.7159 119.033 59.6184 121.665C58.5209 124.297 55.5331 130.522 55.4747 131.272C55.4163 132.021 54.782 136.664 54.782 136.664" stroke="#263238" stroke-width="0.45" stroke-linecap="round" stroke-linejoin="round"/>
<path d="M54.8652 135.636C54.8652 135.636 55.3493 130.601 55.6247 130.531C55.9001 130.46 60.6322 120.25 60.6322 120.25C60.6322 120.25 62.2597 118.795 61.7673 122.794C61.2749 126.792 59.0382 132.149 59.0382 132.149L58.7586 139.084" fill="#999999"/>
<path d="M54.8652 135.636C54.8652 135.636 55.3493 130.601 55.6247 130.531C55.9001 130.46 60.6322 120.25 60.6322 120.25C60.6322 120.25 62.2597 118.795 61.7673 122.794C61.2749 126.792 59.0382 132.149 59.0382 132.149L58.7586 139.084" stroke="#263238" stroke-width="0.45" stroke-linecap="round" stroke-linejoin="round"/>
<path d="M58.8716 136.743C58.8716 136.743 60.2653 130.377 60.6618 129.848C61.0582 129.319 62.1891 124.055 62.9026 124.024C63.6162 123.993 63.9542 125.346 63.345 127.449C62.7357 129.552 62.0096 131.942 62.0096 131.942L62.4269 136.589" fill="#999999"/>
<path d="M58.8716 136.743C58.8716 136.743 60.2653 130.377 60.6618 129.848C61.0582 129.319 62.1891 124.055 62.9026 124.024C63.6162 123.993 63.9542 125.346 63.345 127.449C62.7357 129.552 62.0096 131.942 62.0096 131.942L62.4269 136.589" stroke="#263238" stroke-width="0.45" stroke-linecap="round" stroke-linejoin="round"/>
<path d="M97.7383 188.016C100.826 187.399 111.901 173.908 111.901 173.908L110.937 189.55H181.656C180.792 181.972 176.073 117.107 175.597 115.766C175.092 114.342 145.727 101.196 145.727 101.196L132.432 101.729C132.432 101.729 115.79 113.284 111.396 115.951C107.002 118.619 105.508 119.686 105.508 120.753C105.508 121.819 95.8104 163.23 95.8104 163.23L71.7367 145.23L63.1279 153.747L94.5376 187.915C94.5376 187.915 94.6503 188.638 97.7383 188.016Z" fill="#FFC100" stroke="#263238" stroke-width="0.45" stroke-linecap="round" stroke-linejoin="round"/>
<path d="M111.935 167.436L112.072 137.104" stroke="#263238" stroke-width="0.45" stroke-linecap="round" stroke-linejoin="round"/>
<path d="M111.901 173.908L111.922 170.121" stroke="#263238" stroke-width="0.45" stroke-linecap="round" stroke-linejoin="round"/>
<path d="M111.734 144.573L108.538 133.551" stroke="#263238" stroke-width="0.45" stroke-linecap="round" stroke-linejoin="round"/>
<path d="M95.8105 163.23C97.0869 165.696 97.8295 168.431 97.9847 171.237" stroke="#263238" stroke-width="0.45" stroke-linecap="round" stroke-linejoin="round"/>
<path d="M97.9843 173.141C97.9843 173.141 97.9092 174.085 97.9092 175.989" stroke="#263238" stroke-width="0.45" stroke-linecap="round" stroke-linejoin="round"/>
<path d="M129.031 108.183L124.996 123.614L130.146 127.141L124.721 134.067L131.815 165.369L149.341 133.04L144.054 126.572L151.845 124.513L150.034 105.41C148.34 100.212 145.99 99.2382 143.499 100.265C140.761 101.376 130.838 101.279 129.031 108.183Z" fill="#FFC100" stroke="#263238" stroke-width="0.45" stroke-linecap="round" stroke-linejoin="round"/>
<path d="M130.283 110.097C130.283 110.097 133.342 131.421 133.342 139.357C133.342 147.293 133.204 148.911 133.204 148.911C133.204 148.911 141.412 126.131 143.774 114.964C145.169 108.018 145.026 100.826 143.357 93.9475C143.357 93.9475 137.239 107.614 130.283 110.097Z" fill="white" stroke="#263238" stroke-width="0.45" stroke-linecap="round" stroke-linejoin="round"/>
<path d="M143.357 93.9475C143.357 93.9475 137.239 107.614 130.283 110.114C130.283 110.114 130.442 111.212 130.7 112.993C132.47 112.812 136.689 112.279 139.293 111.177C141.629 110.189 143.315 102.359 144.129 97.642C143.939 96.3959 143.681 95.1623 143.357 93.9475Z" fill="#263238" stroke="#263238" stroke-width="0.45" stroke-linecap="round" stroke-linejoin="round"/>
<path d="M142.381 120.572C137.903 122.573 134.156 121.991 131.735 121.096C132.524 127.555 133.342 135.235 133.342 139.339C133.342 147.275 133.204 148.893 133.204 148.893C133.204 148.893 139.159 132.374 142.381 120.572Z" fill="#263238" stroke="#263238" stroke-width="0.45" stroke-linecap="round" stroke-linejoin="round"/>
<path d="M112.656 82.7273C112.656 82.7273 109.318 84.6804 107.232 78.2128C105.145 71.7453 111.617 59.5596 118.315 56.9805C125.012 54.4014 133.216 54.2956 139.455 59.7845C145.694 65.2733 145.23 78.7022 145.23 78.7022C145.23 78.7022 151.239 78.3363 154.703 86.1441C158.166 93.9519 151.698 100.547 147.309 100.424C142.919 100.3 140.632 96.0151 140.148 92.2501C139.664 88.4851 131.602 79.0681 127.558 77.9703C123.514 76.8726 120.627 80.7743 117.393 81.4973C114.159 82.2203 112.656 82.7273 112.656 82.7273Z" fill="#263238"/>
<mask id="mask0_171_16040" style="mask-type:luminance" maskUnits="userSpaceOnUse" x="106" y="55" width="50" height="46">
<path d="M112.656 82.7273C112.656 82.7273 109.318 84.6804 107.232 78.2128C105.145 71.7453 111.617 59.5596 118.315 56.9805C125.012 54.4014 133.216 54.2956 139.455 59.7845C145.694 65.2733 145.23 78.7022 145.23 78.7022C145.23 78.7022 151.239 78.3363 154.703 86.1441C158.166 93.9519 151.698 100.547 147.309 100.424C142.919 100.3 140.632 96.0151 140.148 92.2501C139.664 88.4851 131.602 79.0681 127.558 77.9703C123.514 76.8726 120.627 80.7743 117.393 81.4973C114.159 82.2203 112.656 82.7273 112.656 82.7273Z" fill="white"/>
</mask>
<g mask="url(#mask0_171_16040)">
<path d="M121.282 67.0542C121.282 67.0542 125.455 69.9243 133.054 71.2381C140.653 72.5518 144.938 74.4696 147.542 76.9694" stroke="#616161" stroke-width="0.45" stroke-linecap="round" stroke-linejoin="round"/>
<path d="M122.98 62.4073C122.98 62.4073 129.544 65.996 137.014 65.6389C144.483 65.2818 149.24 71.3702 149.24 71.3702" stroke="#616161" stroke-width="0.45" stroke-linecap="round" stroke-linejoin="round"/>
<path d="M125.926 57.743C129.479 59.1222 133.228 59.8513 137.013 59.8989C140.595 59.9078 144.038 61.3637 146.636 63.9681" stroke="#616161" stroke-width="0.45" stroke-linecap="round" stroke-linejoin="round"/>
<path d="M116.871 68.0284C116.871 68.0284 115.648 69.0821 111.446 73.6495C107.244 78.2169 108.525 81.8982 108.525 81.8982" stroke="#616161" stroke-width="0.45" stroke-linecap="round" stroke-linejoin="round"/>
<path d="M116.871 65.2908C116.871 65.2908 112.794 67.936 108.942 70.7928C105.091 73.6497 105.207 77.3706 105.207 77.3706" stroke="#616161" stroke-width="0.45" stroke-linecap="round" stroke-linejoin="round"/>
<path d="M118.452 60.137C115.952 61.1048 113.648 62.5649 111.663 64.4399C108.153 67.6714 106.238 69.8229 106.238 69.8229" stroke="#616161" stroke-width="0.45" stroke-linecap="round" stroke-linejoin="round"/>
<path d="M114.042 58.8231C114.042 58.8231 116.416 56.9097 118.794 56.1779C120.31 55.7747 121.911 55.9431 123.322 56.654C123.322 56.654 118.34 63.7079 118.682 69.9286" stroke="#616161" stroke-width="0.45" stroke-linecap="round" stroke-linejoin="round"/>
</g>
<path d="M112.656 82.7273C112.656 82.7273 109.318 84.6804 107.232 78.2128C105.145 71.7453 111.617 59.5596 118.315 56.9805C125.012 54.4014 133.216 54.2956 139.455 59.7845C145.694 65.2733 145.23 78.7022 145.23 78.7022C145.23 78.7022 151.239 78.3363 154.703 86.1441C158.166 93.9519 151.698 100.547 147.309 100.424C142.919 100.3 140.632 96.0151 140.148 92.2501C139.664 88.4851 131.602 79.0681 127.558 77.9703C123.514 76.8726 120.627 80.7743 117.393 81.4973C114.159 82.2203 112.656 82.7273 112.656 82.7273Z" stroke="#263238" stroke-width="0.45" stroke-linecap="round" stroke-linejoin="round"/>
<path d="M111.847 81.6297C111.847 81.6297 114.964 92.0033 116.467 96.8838C117.969 101.764 122.129 108.479 125.939 110.432C129.749 112.385 136.451 109.823 137.377 108.968C138.304 108.113 143.036 99.0837 143.845 97.1307C144.655 95.1776 144.075 90.1737 144.075 90.1737C144.075 90.1737 146.27 86.8804 146.161 83.8296C146.053 80.7788 144.425 79.3107 143.503 79.9235C142.924 80.3136 142.416 80.8092 142.001 81.3872C142.001 81.3872 141.191 79.8001 138.074 77.8602C134.957 75.9204 132.595 78.1203 127.512 76.5376C124.67 75.6812 121.905 74.5599 119.25 73.187C119.25 73.187 115.891 79.9235 111.847 81.6297Z" fill="white" stroke="#263238" stroke-width="0.45" stroke-linecap="round" stroke-linejoin="round"/>
<path d="M145.126 82.7805C145.126 82.7805 145.009 81.1713 143.954 82.1632C142.898 83.1552 143.837 84.76 143.837 84.76C143.837 84.76 145.477 84.3896 144.671 85.7519" stroke="#263238" stroke-width="0.45" stroke-linecap="round" stroke-linejoin="round"/>
<path d="M116.675 89.5653V91.7432C117.395 92.0265 118.169 92.1247 118.932 92.0296C119.696 91.9346 120.427 91.649 121.065 91.1965" stroke="#263238" stroke-width="0.45" stroke-linecap="round" stroke-linejoin="round"/>
<path d="M128.31 87.2947L128.393 89.8385C129.284 89.9679 130.19 89.8969 131.053 89.6302C131.916 89.3636 132.716 88.9072 133.401 88.291" stroke="#263238" stroke-width="0.45" stroke-linecap="round" stroke-linejoin="round"/>
<path d="M115.644 87.2022C115.644 87.2022 117.451 85.8399 121.666 87.0215" stroke="#263238" stroke-width="0.9" stroke-linecap="round" stroke-linejoin="round"/>
<path d="M125.108 86.2015C125.108 86.2015 126.828 84.1118 131.902 83.4769" stroke="#263238" stroke-width="0.9" stroke-linecap="round" stroke-linejoin="round"/>
<path d="M126.978 93.833C123.978 93.1012 124.207 92.9821 122.129 94.8118C120.051 96.6414 116.354 96.3989 116.354 96.3989H116.325C116.375 96.5576 116.421 96.7163 116.467 96.8662C117.969 101.751 122.129 108.461 125.939 110.414C129.749 112.367 136.451 109.806 137.377 108.95C137.996 108.16 138.544 107.309 139.013 106.411C139.099 106.165 139.17 105.913 139.226 105.657C139.572 103.947 140.265 100.164 141.65 97.6025C143.036 95.041 144.075 90.1562 144.075 90.1562C144.075 90.1562 140.736 99.4144 139.338 99.0661C137.941 98.7179 137.836 95.8919 137.836 94.3047C137.836 92.7176 140.958 89.0584 142.113 85.3948C143.269 81.7311 141.997 81.3696 141.997 81.3696C141.304 88.4456 137.953 92.5986 137.953 92.5986C133.217 95.3011 129.979 94.5693 126.978 93.833Z" fill="#999999" stroke="#263238" stroke-width="0.45" stroke-linecap="round" stroke-linejoin="round"/>
<path d="M110.461 86.1442C109.56 86.0913 113.232 93.2246 114.271 94.3223C115.31 95.4201 119.241 95.9095 121.203 94.9351C123.164 93.9608 122.358 90.6631 123.978 90.5264C125.597 90.3898 126.519 93.4538 128.021 94.0534C129.523 94.653 134.602 93.4406 137.26 92.2238C139.918 91.007 140.031 87.8151 140.031 87.8151L138.992 81.1624C138.992 81.1624 126.402 87.1229 110.461 86.1442Z" stroke="#263238" stroke-width="0.45" stroke-linecap="round" stroke-linejoin="round"/>
<path d="M110.461 86.1443C110.461 86.1443 124.9 87.7314 143.265 79.3108" stroke="#263238" stroke-width="1.35" stroke-linecap="round" stroke-linejoin="round"/>
<path d="M135.758 82.851L137.26 89.9313" stroke="#263238" stroke-width="0.45" stroke-linecap="round" stroke-linejoin="round"/>
<path d="M119.496 163.552L113.416 185.503L113.52 187.553L114.893 186.169L121.09 164.046C121.122 163.929 121.132 163.807 121.117 163.686C121.102 163.565 121.064 163.449 121.005 163.345C120.946 163.241 120.867 163.15 120.773 163.08C120.679 163.009 120.573 162.96 120.46 162.935C120.255 162.892 120.043 162.932 119.864 163.046C119.686 163.16 119.555 163.341 119.496 163.552Z" fill="white" stroke="#263238" stroke-width="0.45" stroke-linecap="round" stroke-linejoin="round"/>
<path d="M141.145 177.409C141.145 177.409 131.201 174.658 128.985 173.498C126.77 172.339 121.758 169.389 120.827 170.946C119.897 172.502 112.123 180.358 112.552 181.319C112.982 182.28 117.664 186.645 118.712 186.971C119.759 187.298 121.662 188.616 124.07 187.725C126.477 186.835 127.533 186.403 127.533 186.403C127.533 186.403 131.835 187.606 133.029 187.637C134.222 187.668 137.986 186.173 137.986 186.173L140.828 185.922L141.145 177.409Z" fill="#999999" stroke="#263238" stroke-width="0.45" stroke-linecap="round" stroke-linejoin="round"/>
<path d="M114.451 183.255L122.546 174.455" stroke="#263238" stroke-width="0.45" stroke-linecap="round" stroke-linejoin="round"/>
<path d="M116.345 185.507L123.673 177.792" stroke="#263238" stroke-width="0.45" stroke-linecap="round" stroke-linejoin="round"/>
<path d="M119.592 187.319L125.534 181.623" stroke="#263238" stroke-width="0.45" stroke-linecap="round" stroke-linejoin="round"/>
<path d="M166.362 122.348C166.362 122.348 159.093 131.783 159.026 135.16C158.959 138.537 165.202 169.799 165.202 169.799L138.679 174.697L139.409 188.051C139.409 188.051 181.493 187.782 183.179 187.646C184.865 187.509 188.387 188.122 188.75 186.707C189.113 185.291 176.824 118.076 176.506 117.181C176.165 116.397 175.589 115.754 174.868 115.351C174.146 114.948 173.318 114.807 172.513 114.951" fill="#FFC100"/>
<path d="M166.362 122.348C166.362 122.348 159.093 131.783 159.026 135.16C158.959 138.537 165.202 169.799 165.202 169.799L138.679 174.697L139.409 188.051C139.409 188.051 181.493 187.782 183.179 187.646C184.865 187.509 188.387 188.122 188.75 186.707C189.113 185.291 176.824 118.076 176.506 117.181C176.165 116.397 175.589 115.754 174.868 115.351C174.146 114.948 173.318 114.807 172.513 114.951" stroke="#263238" stroke-width="0.45" stroke-linecap="round" stroke-linejoin="round"/>
<path d="M165.202 169.799L175.167 168.256" stroke="#263238" stroke-width="0.45" stroke-linecap="round" stroke-linejoin="round"/>
<path d="M165.878 169.817L173.189 166.255" stroke="#263238" stroke-width="0.45" stroke-linecap="round" stroke-linejoin="round"/>
<path d="M176.782 168.384C176.782 168.384 179.774 167.908 181.272 168.067" stroke="#263238" stroke-width="0.45" stroke-linecap="round" stroke-linejoin="round"/>
<path d="M157.499 138.118H145.552V156.692H157.499V138.118Z" fill="white" stroke="#263238" stroke-width="0.45" stroke-linecap="round" stroke-linejoin="round"/>
<path d="M152.808 133.97H150.246V140.64H152.808V133.97Z" fill="#263238" stroke="#263238" stroke-width="0.45" stroke-linecap="round" stroke-linejoin="round"/>
<path d="M52.0781 166.466H56.1175V186.279C56.1175 186.559 56.0653 186.837 55.9638 187.096C55.8623 187.355 55.7135 187.59 55.526 187.788C55.3384 187.986 55.1158 188.143 54.8707 188.251C54.6257 188.358 54.3631 188.413 54.0978 188.413C53.5622 188.413 53.0484 188.188 52.6697 187.788C52.2909 187.388 52.0781 186.845 52.0781 186.279V166.466Z" fill="white" stroke="#263238" stroke-width="0.45" stroke-linecap="round" stroke-linejoin="round"/>
<path d="M52.0778 174.561V186.279C52.0654 186.567 52.1084 186.855 52.2042 187.125C52.3 187.395 52.4466 187.641 52.6352 187.85C52.8237 188.058 53.0503 188.224 53.3013 188.338C53.5523 188.451 53.8224 188.51 54.0954 188.51C54.3683 188.51 54.6385 188.451 54.8894 188.338C55.1404 188.224 55.367 188.058 55.5556 187.85C55.7442 187.641 55.8908 187.395 55.9866 187.125C56.0824 186.855 56.1254 186.567 56.113 186.279V174.561H52.0778Z" fill="#FFC100" stroke="#263238" stroke-width="0.45" stroke-linecap="round" stroke-linejoin="round"/>
<path d="M56.8266 165.84H51.3643V169.852H56.8266V165.84Z" fill="white" stroke="#263238" stroke-width="0.45" stroke-linecap="round" stroke-linejoin="round"/>
<path d="M61.9596 188.413C61.424 188.413 60.9103 188.188 60.5315 187.788C60.1527 187.388 59.9399 186.845 59.9399 186.279V166.466H63.9752V186.279C63.9752 186.844 63.763 187.386 63.3851 187.786C63.0072 188.186 62.4946 188.412 61.9596 188.413Z" fill="white" stroke="#263238" stroke-width="0.45" stroke-linecap="round" stroke-linejoin="round"/>
<path d="M59.9269 174.561V186.279C59.9145 186.567 59.9575 186.855 60.0533 187.125C60.1491 187.395 60.2957 187.641 60.4843 187.85C60.6728 188.058 60.8995 188.224 61.1504 188.338C61.4014 188.451 61.6715 188.51 61.9445 188.51C62.2175 188.51 62.4876 188.451 62.7386 188.338C62.9895 188.224 63.2162 188.058 63.4047 187.85C63.5933 187.641 63.7399 187.395 63.8357 187.125C63.9315 186.855 63.9745 186.567 63.9621 186.279V174.561H59.9269Z" fill="#FFC100" stroke="#263238" stroke-width="0.45" stroke-linecap="round" stroke-linejoin="round"/>
<path d="M64.6758 165.84H59.2134V169.852H64.6758V165.84Z" fill="white" stroke="#263238" stroke-width="0.45" stroke-linecap="round" stroke-linejoin="round"/>
<path d="M69.7963 188.413C69.2614 188.412 68.7487 188.186 68.3708 187.786C67.993 187.386 67.7808 186.844 67.7808 186.279V166.466H71.816V186.279C71.816 186.845 71.6032 187.388 71.2244 187.788C70.8457 188.188 70.332 188.413 69.7963 188.413Z" fill="white" stroke="#263238" stroke-width="0.45" stroke-linecap="round" stroke-linejoin="round"/>
<path d="M67.8018 174.561V186.279C67.8018 186.844 68.014 187.386 68.3918 187.786C68.7697 188.186 69.2824 188.412 69.8173 188.413C70.3529 188.413 70.8667 188.188 71.2454 187.788C71.6242 187.388 71.837 186.845 71.837 186.279V174.561H67.8018Z" fill="#FFC100" stroke="#263238" stroke-width="0.45" stroke-linecap="round" stroke-linejoin="round"/>
<path d="M72.5298 165.84H67.0674V169.852H72.5298V165.84Z" fill="white" stroke="#263238" stroke-width="0.45" stroke-linecap="round" stroke-linejoin="round"/>
<path d="M77.6496 188.413C77.1139 188.413 76.6002 188.188 76.2214 187.788C75.8427 187.388 75.6299 186.845 75.6299 186.279V166.466H79.6651V186.279C79.6651 186.844 79.4529 187.386 79.075 187.786C78.6972 188.186 78.1845 188.412 77.6496 188.413Z" fill="white" stroke="#263238" stroke-width="0.45" stroke-linecap="round" stroke-linejoin="round"/>
<path d="M75.63 174.561V186.279C75.6176 186.567 75.6606 186.855 75.7564 187.125C75.8522 187.395 75.9988 187.641 76.1874 187.85C76.376 188.058 76.6026 188.224 76.8536 188.338C77.1045 188.451 77.3747 188.51 77.6476 188.51C77.9206 188.51 78.1907 188.451 78.4417 188.338C78.6927 188.224 78.9193 188.058 79.1079 187.85C79.2964 187.641 79.4431 187.395 79.5389 187.125C79.6347 186.855 79.6777 186.567 79.6652 186.279V174.561H75.63Z" fill="#FFC100" stroke="#263238" stroke-width="0.45" stroke-linecap="round" stroke-linejoin="round"/>
<path d="M80.3789 165.84H74.9165V169.852H80.3789V165.84Z" fill="white" stroke="#263238" stroke-width="0.45" stroke-linecap="round" stroke-linejoin="round"/>
<path d="M83.7922 172.017H48.631V173.278H83.7922V186.442H46.9243V189.511H86.1833V188.788V186.442V173.278V172.017H83.7922Z" fill="white" stroke="#263238" stroke-width="0.45" stroke-linecap="round" stroke-linejoin="round"/>
<path d="M93.3358 189.511H136.86V187.884C136.86 187.884 129.862 188.064 124.908 187.002C121.966 186.406 118.982 186.067 115.987 185.988C113.988 185.909 111.855 186.253 110.345 187.637C108.847 186.543 107.061 186.279 105.283 186.279C101.356 186.279 95.3805 187.183 91.1158 187.901C88.6316 188.332 86.1214 188.573 83.6045 188.624V189.528L93.3358 189.511Z" fill="#263238" stroke="#263238" stroke-width="0.45" stroke-linecap="round" stroke-linejoin="round"/>
<path d="M169.771 99.8287L169.062 99.1013C169.022 99.0564 168.98 99.0137 168.936 98.9734C168.594 98.6536 168.153 98.4754 167.696 98.4716C167.239 98.4678 166.796 98.6388 166.449 98.9529C166.102 99.2671 165.874 99.7033 165.807 100.181C165.741 100.659 165.84 101.146 166.086 101.553C166.208 101.742 166.358 101.91 166.529 102.051L167.159 102.756L167.442 102.439C167.519 102.443 167.595 102.443 167.672 102.439C168.176 102.439 168.658 102.227 169.015 101.851C169.371 101.475 169.571 100.965 169.571 100.433C169.571 100.305 169.558 100.178 169.533 100.054L169.771 99.8287Z" fill="#5E5E5E" stroke="#263238" stroke-width="0.45" stroke-linecap="round" stroke-linejoin="round"/>
<path d="M168.503 103.347C169.551 103.347 170.401 102.449 170.401 101.341C170.401 100.233 169.551 99.335 168.503 99.335C167.454 99.335 166.604 100.233 166.604 101.341C166.604 102.449 167.454 103.347 168.503 103.347Z" fill="#263238" stroke="#263238" stroke-width="0.45" stroke-linecap="round" stroke-linejoin="round"/>
<path d="M172.041 101.575L171.09 100.596L170.919 100.424C170.459 99.9922 169.867 99.7509 169.252 99.7451C168.637 99.7393 168.041 99.9692 167.574 100.392C167.108 100.815 166.802 101.403 166.714 102.046C166.626 102.689 166.762 103.344 167.096 103.889L167.117 103.916C167.278 104.171 167.478 104.396 167.71 104.581L168.544 105.529L168.924 105.088C169.026 105.103 169.129 105.11 169.233 105.111C169.608 105.112 169.979 105.025 170.318 104.857C170.658 104.689 170.958 104.444 171.198 104.139C171.437 103.834 171.609 103.476 171.703 103.093C171.796 102.709 171.807 102.308 171.737 101.919L172.041 101.575Z" fill="#5E5E5E" stroke="#263238" stroke-width="0.45" stroke-linecap="round" stroke-linejoin="round"/>
<path d="M170.338 106.292C171.744 106.292 172.884 105.088 172.884 103.603C172.884 102.117 171.744 100.913 170.338 100.913C168.933 100.913 167.793 102.117 167.793 103.603C167.793 105.088 168.933 106.292 170.338 106.292Z" fill="#263238" stroke="#263238" stroke-width="0.45" stroke-linecap="round" stroke-linejoin="round"/>
<path d="M177.161 99.8288L176.452 99.1014C176.415 99.0544 176.373 99.0116 176.327 98.9735C176.054 98.7159 175.717 98.5474 175.355 98.4884C174.994 98.4294 174.624 98.4824 174.29 98.6411C173.957 98.7998 173.674 99.0572 173.476 99.3823C173.279 99.7074 173.174 100.086 173.176 100.473C173.177 100.855 173.281 101.23 173.477 101.553C173.597 101.743 173.747 101.912 173.919 102.051L174.549 102.756L174.829 102.439C174.907 102.443 174.985 102.443 175.062 102.439C175.565 102.438 176.047 102.226 176.402 101.85C176.758 101.474 176.957 100.964 176.957 100.433C176.956 100.306 176.945 100.179 176.924 100.054L177.161 99.8288Z" fill="#5E5E5E" stroke="#263238" stroke-width="0.45" stroke-linecap="round" stroke-linejoin="round"/>
<path d="M175.892 103.347C176.941 103.347 177.791 102.449 177.791 101.341C177.791 100.233 176.941 99.335 175.892 99.335C174.844 99.335 173.994 100.233 173.994 101.341C173.994 102.449 174.844 103.347 175.892 103.347Z" fill="#263238" stroke="#263238" stroke-width="0.45" stroke-linecap="round" stroke-linejoin="round"/>
<path d="M179.431 101.575L178.48 100.596L178.313 100.424C177.853 99.9922 177.261 99.7509 176.646 99.7451C176.031 99.7393 175.435 99.9692 174.968 100.392C174.502 100.815 174.196 101.403 174.108 102.046C174.02 102.689 174.156 103.344 174.49 103.889L174.511 103.916C174.673 104.171 174.875 104.397 175.108 104.581L175.942 105.529L176.318 105.088C176.422 105.103 176.526 105.11 176.631 105.111C177.006 105.112 177.377 105.025 177.716 104.857C178.056 104.689 178.357 104.444 178.596 104.139C178.835 103.834 179.008 103.476 179.101 103.093C179.194 102.709 179.206 102.308 179.135 101.919L179.431 101.575Z" fill="#5E5E5E" stroke="#263238" stroke-width="0.45" stroke-linecap="round" stroke-linejoin="round"/>
<path d="M180.278 103.603C180.278 104.135 180.129 104.654 179.849 105.097C179.57 105.539 179.172 105.884 178.707 106.087C178.242 106.291 177.73 106.344 177.236 106.24C176.743 106.137 176.289 105.88 175.933 105.504C175.577 105.128 175.335 104.649 175.236 104.127C175.138 103.606 175.189 103.065 175.381 102.573C175.574 102.082 175.9 101.662 176.319 101.367C176.737 101.071 177.23 100.913 177.733 100.913C178.408 100.913 179.056 101.197 179.533 101.701C180.01 102.205 180.278 102.889 180.278 103.603Z" fill="#263238" stroke="#263238" stroke-width="0.45" stroke-linecap="round" stroke-linejoin="round"/>
<path d="M182.432 104.528C182.297 104.279 182.127 104.053 181.927 103.858L181.864 103.779C181.388 103.348 180.781 103.112 180.153 103.113H169.825C169.126 103.113 168.455 103.407 167.96 103.929C167.466 104.452 167.188 105.161 167.188 105.9C167.189 106.616 167.45 107.304 167.918 107.822H167.885L172.283 112.953L186.584 109.338L182.432 104.528Z" fill="#5E5E5E" stroke="#263238" stroke-width="0.45" stroke-linecap="round" stroke-linejoin="round"/>
<path d="M184.94 114.364H174.629C173.929 114.364 173.258 114.071 172.764 113.548C172.269 113.026 171.991 112.317 171.991 111.578C171.991 110.839 172.269 110.13 172.764 109.608C173.258 109.085 173.929 108.792 174.629 108.792H184.94C185.638 108.795 186.306 109.091 186.798 109.614C187.29 110.137 187.566 110.845 187.565 111.582C187.564 112.318 187.287 113.024 186.795 113.545C186.303 114.066 185.636 114.361 184.94 114.364Z" fill="#263238" stroke="#263238" stroke-width="0.45" stroke-linecap="round" stroke-linejoin="round"/>
<path d="M188.725 112.239H174.178L175.471 115.819L174.178 123.486H188.725C190.101 123.428 191.404 122.81 192.359 121.76C193.313 120.711 193.847 119.312 193.847 117.856C193.847 116.4 193.313 115.001 192.359 113.951C191.404 112.902 190.101 112.284 188.725 112.226V112.239Z" fill="#263238" stroke="#263238" stroke-width="0.45" stroke-linecap="round" stroke-linejoin="round"/>
<path d="M174.178 112.239V123.486C175.555 123.428 176.857 122.81 177.812 121.76C178.767 120.711 179.3 119.312 179.3 117.856C179.3 116.4 178.767 115.001 177.812 113.951C176.857 112.902 175.555 112.284 174.178 112.226V112.239Z" fill="#5E5E5E" stroke="#263238" stroke-width="0.45" stroke-linecap="round" stroke-linejoin="round"/>
<path d="M179.511 124.808C179.511 124.808 174.178 125.576 170.134 128.82C166.09 132.065 165.285 135.226 164.964 137.016C164.758 138.258 164.649 139.516 164.638 140.777V170.148H170.134V140.071C170.134 140.071 169.65 136.143 171.753 132.898C173.856 129.654 179.511 128.287 179.511 128.287V124.808Z" fill="#263238" stroke="#263238" stroke-width="0.45" stroke-linecap="round" stroke-linejoin="round"/>
<path d="M174.741 124.808C174.741 124.808 169.408 125.576 165.368 128.82C161.329 132.065 160.519 135.226 160.194 137.016C159.991 138.259 159.884 139.516 159.873 140.777V170.148H165.368V140.071C165.368 140.071 164.884 136.143 166.983 132.898C169.082 129.654 174.741 128.287 174.741 128.287V124.808Z" fill="white" stroke="#263238" stroke-width="0.45" stroke-linecap="round" stroke-linejoin="round"/>
<path d="M165.973 158.903C166.327 156.603 164.85 154.435 162.673 154.06C160.496 153.686 158.444 155.247 158.09 157.547C157.735 159.846 159.212 162.014 161.389 162.389C163.566 162.764 165.618 161.203 165.973 158.903Z" fill="#263238" stroke="#263238" stroke-width="0.45" stroke-linecap="round" stroke-linejoin="round"/>
<path d="M180.379 138.877H178.764V139.988H180.379V138.877Z" fill="#263238" stroke="#263238" stroke-width="0.45" stroke-linecap="round" stroke-linejoin="round"/>
<path d="M181.472 128.798H177.675V139.044H181.472V128.798Z" fill="#263238" stroke="#263238" stroke-width="0.45" stroke-linecap="round" stroke-linejoin="round"/>
<path d="M190.64 137.471L189.147 138.124L189.55 139.15L191.042 138.497L190.64 137.471Z" fill="#263238" stroke="#263238" stroke-width="0.45" stroke-linecap="round" stroke-linejoin="round"/>
<path d="M188.001 127.724L184.492 129.259L188.202 138.725L191.71 137.191L188.001 127.724Z" fill="#263238" stroke="#263238" stroke-width="0.45" stroke-linecap="round" stroke-linejoin="round"/>
<path d="M189.534 123.499H174.178V130.249H189.534V123.499Z" fill="#5E5E5E" stroke="#263238" stroke-width="0.45" stroke-linecap="round" stroke-linejoin="round"/>
<path d="M189.534 123.499H177.52V130.249H189.534V123.499Z" fill="#263238" stroke="#263238" stroke-width="0.45" stroke-linecap="round" stroke-linejoin="round"/>
<path d="M186.379 155.652H185.774V150.145H184.322V155.652H183.834V159.113H184.322V168.203H185.774V159.113H186.379V155.652Z" fill="#263238" stroke="#263238" stroke-width="0.45" stroke-linecap="round" stroke-linejoin="round"/>
<path d="M197.454 185.239H169.892V173.979C169.892 172.342 170.508 170.772 171.603 169.614C172.699 168.457 174.185 167.807 175.734 167.807H180.975C185.348 167.807 189.542 169.642 192.634 172.908C195.726 176.175 197.463 180.606 197.463 185.225L197.454 185.239Z" fill="#263238" stroke="#263238" stroke-width="0.45" stroke-linecap="round" stroke-linejoin="round"/>
<path d="M189.855 185.239H162.314V173.979C162.314 172.342 162.929 170.772 164.025 169.614C165.121 168.457 166.607 167.807 168.156 167.807H173.376C177.749 167.807 181.943 169.642 185.035 172.908C188.127 176.175 189.864 180.606 189.864 185.225L189.855 185.239Z" fill="#5E5E5E" stroke="#263238" stroke-width="0.45" stroke-linecap="round" stroke-linejoin="round"/>
<path d="M182.903 149.546H171.59V168.671H182.903V149.546Z" fill="#263238" stroke="#263238" stroke-width="0.45" stroke-linecap="round" stroke-linejoin="round"/>
<path d="M182.903 155.793H171.59V162.432H182.903V155.793Z" fill="#5E5E5E" stroke="#263238" stroke-width="0.45" stroke-linecap="round" stroke-linejoin="round"/>
<path d="M186.705 185.239H159.143V173.979C159.143 172.342 159.758 170.772 160.854 169.614C161.949 168.457 163.435 167.807 164.985 167.807H170.226C174.599 167.807 178.792 169.642 181.884 172.908C184.976 176.175 186.713 180.606 186.713 185.225L186.705 185.239Z" fill="#263238" stroke="#263238" stroke-width="0.45" stroke-linecap="round" stroke-linejoin="round"/>
<path d="M154.256 189.511C154.151 189.511 154.05 189.469 153.972 189.394C153.895 189.319 153.847 189.216 153.839 189.105L153.497 185.75H155.016L154.673 189.105C154.665 189.216 154.617 189.319 154.54 189.394C154.463 189.469 154.361 189.511 154.256 189.511Z" fill="#263238" stroke="#263238" stroke-width="0.45" stroke-linecap="round" stroke-linejoin="round"/>
<path d="M172.124 189.511C172.019 189.511 171.918 189.469 171.84 189.394C171.763 189.319 171.715 189.216 171.707 189.105L171.365 185.75H172.9L172.558 189.105C172.55 189.219 172.5 189.325 172.419 189.4C172.338 189.476 172.232 189.516 172.124 189.511Z" fill="#263238" stroke="#263238" stroke-width="0.45" stroke-linecap="round" stroke-linejoin="round"/>
<path d="M178.764 189.511C178.659 189.511 178.557 189.469 178.48 189.394C178.403 189.319 178.355 189.216 178.347 189.105L178.004 185.75H179.54L179.198 189.105C179.189 189.219 179.139 189.325 179.058 189.4C178.977 189.476 178.872 189.516 178.764 189.511Z" fill="#263238" stroke="#263238" stroke-width="0.45" stroke-linecap="round" stroke-linejoin="round"/>
<path d="M196.866 189.511C196.761 189.511 196.659 189.469 196.582 189.394C196.505 189.319 196.457 189.216 196.449 189.105L196.106 185.75H197.642L197.3 189.105C197.291 189.219 197.241 189.325 197.16 189.4C197.079 189.476 196.974 189.516 196.866 189.511Z" fill="#263238" stroke="#263238" stroke-width="0.45" stroke-linecap="round" stroke-linejoin="round"/>
<path d="M179.106 185.239H151.564V173.979C151.564 172.342 152.18 170.772 153.276 169.614C154.371 168.457 155.857 167.807 157.407 167.807H162.648C167.02 167.807 171.214 169.642 174.306 172.908C177.398 176.175 179.135 180.606 179.135 185.225L179.106 185.239Z" fill="#5E5E5E" stroke="#263238" stroke-width="0.45" stroke-linecap="round" stroke-linejoin="round"/>
<path d="M198.548 184.471H150.859C150.391 184.471 150.012 184.872 150.012 185.366V185.371C150.012 185.865 150.391 186.266 150.859 186.266H198.548C199.016 186.266 199.395 185.865 199.395 185.371V185.366C199.395 184.872 199.016 184.471 198.548 184.471Z" fill="white" stroke="#263238" stroke-width="0.45" stroke-linecap="round" stroke-linejoin="round"/>
<path d="M199.875 147.667H164.396V150.829H199.875V147.667Z" fill="white" stroke="#263238" stroke-width="0.45" stroke-linecap="round" stroke-linejoin="round"/>
<path d="M199.879 147.667H176.59V150.829H199.879V147.667Z" fill="#263238" stroke="#263238" stroke-width="0.45" stroke-linecap="round" stroke-linejoin="round"/>
</g>
<defs>
<clipPath id="clip0_171_16040">
<rect width="210" height="210" fill="white"/>
</clipPath>
</defs>
</svg>
