<svg width="121" height="120" viewBox="0 0 121 120" fill="none" xmlns="http://www.w3.org/2000/svg">
<g clip-path="url(#clip0_159_13360)">
<path opacity="0.5" d="M120.5 108.857C120.5 108.891 82.7844 108.785 39.7085 108.785C-3.36737 108.785 0.942223 108.891 0.942223 108.857C0.942223 108.823 -3.38359 108.659 39.7085 108.659C82.8007 108.659 120.5 108.82 120.5 108.857Z" fill="#263238"/>
<path d="M53.9965 115.58C53.9965 115.58 72.5649 119.125 87.9404 105.622C103.316 92.1184 108.462 69.7575 113.083 51.7549C117.704 33.7523 110.572 17.5081 96.1861 12.0514C81.8002 6.59471 74.8231 19.5664 56.5623 23.3327C38.3015 27.0989 32.8958 25.1742 19.5161 38.8563C6.13649 52.5384 7.76751 79.0435 23.0047 96.1971C38.2419 113.351 53.9965 115.58 53.9965 115.58Z" fill="#FFD000"/>
<path opacity="0.7" d="M53.9965 115.58C53.9965 115.58 72.5649 119.125 87.9404 105.622C103.316 92.1184 108.462 69.7575 113.083 51.7549C117.704 33.7523 110.572 17.5081 96.1861 12.0514C81.8002 6.59471 74.8231 19.5664 56.5623 23.3327C38.3015 27.0989 32.8958 25.1742 19.5161 38.8563C6.13649 52.5384 7.76751 79.0435 23.0047 96.1971C38.2419 113.351 53.9965 115.58 53.9965 115.58Z" fill="white"/>
<path d="M43.1113 46.2099C43.1686 46.3862 43.3093 46.6634 43.4547 46.6634C43.6789 46.6634 43.8601 46.3207 43.8601 45.9076C43.8601 45.4944 43.6789 45.1518 43.4547 45.1518C43.3236 45.1518 43.19 45.4037 43.1304 45.5448L41.6282 45.4969C41.5826 44.4892 41.339 43.5026 40.9128 42.5998L42.892 41.3099C43.0374 41.4435 43.314 41.6274 43.4523 41.5417C43.6669 41.4132 43.6622 40.9799 43.4404 40.5794C43.2186 40.1788 42.8705 39.9571 42.6583 40.0755C42.5319 40.1536 42.5319 40.4635 42.5534 40.6373L40.4931 41.8113C39.9685 40.9765 39.2877 40.264 38.4925 39.7178L39.1935 38.3397C39.3652 38.375 39.6705 38.3876 39.7372 38.2541C39.8469 38.05 39.6585 37.7124 39.3128 37.4983C38.967 37.2842 38.5974 37.2817 38.483 37.4983C38.4162 37.6192 38.5497 37.8636 38.6403 38.0022L37.8558 39.35C37.0098 38.8962 36.0845 38.6312 35.1374 38.5715L35.0707 36.1152C35.2543 36.0497 35.5476 35.886 35.5476 35.7172C35.5476 35.4653 35.1899 35.2461 34.7512 35.2461C34.3124 35.2461 33.9547 35.4577 33.9547 35.7172C33.9547 35.8709 34.2075 36.0245 34.3625 36.0951L34.2933 38.5715C33.3471 38.6316 32.4226 38.8965 31.5773 39.35L30.8 38.0173C30.9168 37.8787 31.0742 37.6117 31.0003 37.4782C30.8882 37.2741 30.5234 37.2791 30.1705 37.4782C29.8175 37.6772 29.6339 38.0248 29.746 38.2339C29.8128 38.3549 30.0798 38.3549 30.2229 38.3347L30.9383 39.7279C30.1437 40.2748 29.4629 40.9871 28.9377 41.8214L26.8941 40.6575C26.9323 40.4584 26.9442 40.1133 26.8035 40.0276C26.5913 39.8966 26.2407 40.1183 26.0214 40.5315C25.802 40.9447 25.7829 41.3654 26.0094 41.4939C26.1358 41.5719 26.3886 41.4158 26.5221 41.3099L28.5132 42.5998C28.0888 43.4952 27.8452 44.4741 27.7978 45.4743L26.3123 45.5221C26.2574 45.3458 26.1167 45.0687 25.9713 45.0687C25.7471 45.0687 25.5659 45.4113 25.5659 45.8245C25.5659 46.2376 25.7471 46.5802 25.9713 46.5802C26.1024 46.5802 26.236 46.3283 26.2956 46.1872L27.7978 46.2351C27.8452 47.2353 28.0888 48.2141 28.5132 49.1096L26.534 50.3994C26.3886 50.2659 26.112 50.082 25.9713 50.1676C25.7591 50.2961 25.7638 50.7294 25.9832 51.13C26.2026 51.5306 26.5555 51.7523 26.7677 51.6339C26.8941 51.5558 26.8941 51.2459 26.8726 51.0721L28.9329 49.8981C29.4582 50.7323 30.1389 51.4447 30.9335 51.9916L30.2325 53.3696C30.0584 53.3344 29.7555 53.3218 29.6888 53.4553C29.5767 53.6593 29.7675 53.9969 30.1132 54.2111C30.459 54.4252 30.8286 54.4277 30.943 54.2237C31.0098 54.1027 30.8763 53.8584 30.7833 53.7198L31.5702 52.372C32.4162 52.8258 33.3415 53.0907 34.2886 53.1505L34.3553 55.6067C34.1717 55.6747 33.8784 55.836 33.8784 56.0048C33.8784 56.2567 34.2361 56.4759 34.6748 56.4759C35.1136 56.4759 35.4713 56.2643 35.4713 56.0048C35.4713 55.8511 35.2161 55.6974 35.0635 55.6269L35.1303 53.1505C36.0774 53.0907 37.0027 52.8258 37.8487 52.372L38.626 53.7047C38.5092 53.8432 38.3518 54.1103 38.4257 54.2438C38.5378 54.4479 38.9026 54.4428 39.2555 54.2312C39.6085 54.0196 39.7897 53.6845 39.68 53.4754C39.6132 53.3545 39.3462 53.3545 39.2031 53.3747L38.4877 51.9815C39.2823 51.4346 39.9631 50.7222 40.4884 49.888L42.5295 51.0519C42.4937 51.2509 42.4818 51.5961 42.6201 51.6817C42.8347 51.8102 43.1853 51.591 43.4046 51.1779C43.624 50.7647 43.6312 50.344 43.4166 50.2155C43.2902 50.1374 43.0374 50.2936 42.9039 50.3994L40.9128 49.1322C41.3372 48.2368 41.5808 47.2579 41.6282 46.2578L43.1113 46.2099Z" stroke="#787878" stroke-width="0.45" stroke-linecap="round" stroke-linejoin="round"/>
<path d="M35.254 40.2768C35.2612 40.4277 35.2254 40.5773 35.1513 40.7065C35.0771 40.8356 34.9681 40.9384 34.8381 41.0014C34.7082 41.0644 34.5634 41.0849 34.4224 41.0601C34.2813 41.0354 34.1505 40.9666 34.0469 40.8625C33.9432 40.7585 33.8715 40.624 33.8408 40.4765C33.8102 40.3289 33.8221 40.1751 33.8751 40.0348C33.928 39.8945 34.0195 39.7741 34.1378 39.6893C34.2561 39.6044 34.3957 39.559 34.5387 39.5588C34.7236 39.5541 34.9027 39.627 35.0368 39.7616C35.1709 39.8962 35.2491 40.0815 35.254 40.2768Z" stroke="#787878" stroke-width="0.45" stroke-linecap="round" stroke-linejoin="round"/>
<path d="M30.943 46.0839C30.9502 46.2348 30.9144 46.3844 30.8402 46.5136C30.7661 46.6428 30.657 46.7455 30.5271 46.8085C30.3972 46.8716 30.2524 46.892 30.1113 46.8673C29.9703 46.8425 29.8395 46.7737 29.7358 46.6697C29.6322 46.5656 29.5604 46.4312 29.5298 46.2836C29.4992 46.1361 29.5111 45.9822 29.564 45.8419C29.6169 45.7016 29.7085 45.5813 29.8268 45.4964C29.945 45.4116 30.0847 45.3661 30.2277 45.3659C30.4126 45.3612 30.5917 45.4341 30.7258 45.5687C30.8599 45.7033 30.938 45.8886 30.943 46.0839Z" stroke="#787878" stroke-width="0.45" stroke-linecap="round" stroke-linejoin="round"/>
<path d="M34.1359 44.2172C34.143 44.3681 34.1072 44.5177 34.0331 44.6469C33.959 44.7761 33.8499 44.8788 33.72 44.9418C33.59 45.0049 33.4452 45.0253 33.3042 45.0006C33.1631 44.9758 33.0324 44.907 32.9287 44.803C32.8251 44.6989 32.7533 44.5645 32.7227 44.4169C32.692 44.2694 32.704 44.1155 32.7569 43.9752C32.8098 43.8349 32.9013 43.7146 33.0196 43.6297C33.1379 43.5449 33.2776 43.4994 33.4205 43.4992C33.6054 43.4945 33.7846 43.5674 33.9187 43.702C34.0528 43.8366 34.1309 44.0219 34.1359 44.2172Z" stroke="#787878" stroke-width="0.45" stroke-linecap="round" stroke-linejoin="round"/>
<path d="M32.4713 50.4648C32.4785 50.6156 32.4427 50.7653 32.3685 50.8945C32.2944 51.0236 32.1853 51.1263 32.0554 51.1894C31.9255 51.2524 31.7807 51.2729 31.6396 51.2481C31.4986 51.2234 31.3678 51.1546 31.2642 51.0505C31.1605 50.9465 31.0887 50.812 31.0581 50.6645C31.0275 50.5169 31.0394 50.3631 31.0923 50.2228C31.1453 50.0825 31.2368 49.9621 31.3551 49.8773C31.4734 49.7924 31.613 49.747 31.756 49.7468C31.9409 49.7421 32.12 49.815 32.2541 49.9496C32.3882 50.0842 32.4663 50.2694 32.4713 50.4648Z" stroke="#787878" stroke-width="0.45" stroke-linecap="round" stroke-linejoin="round"/>
<path d="M40.2521 47.4492C40.2592 47.6 40.2234 47.7497 40.1493 47.8788C40.0752 48.008 39.9661 48.1107 39.8362 48.1738C39.7063 48.2368 39.5614 48.2573 39.4204 48.2325C39.2794 48.2078 39.1486 48.1389 39.0449 48.0349C38.9413 47.9309 38.8695 47.7964 38.8389 47.6489C38.8082 47.5013 38.8202 47.3475 38.8731 47.2071C38.926 47.0668 39.0175 46.9465 39.1358 46.8617C39.2541 46.7768 39.3938 46.7314 39.5367 46.7312C39.7216 46.7264 39.9008 46.7994 40.0349 46.9339C40.169 47.0685 40.2471 47.2538 40.2521 47.4492Z" stroke="#787878" stroke-width="0.45" stroke-linecap="round" stroke-linejoin="round"/>
<path d="M35.1471 48.4296C35.1543 48.5805 35.1185 48.7302 35.0443 48.8593C34.9702 48.9885 34.8611 49.0912 34.7312 49.1542C34.6013 49.2173 34.4565 49.2377 34.3154 49.213C34.1744 49.1882 34.0436 49.1194 33.9399 49.0154C33.8363 48.9113 33.7645 48.7769 33.7339 48.6293C33.7033 48.4818 33.7152 48.3279 33.7681 48.1876C33.8211 48.0473 33.9126 47.927 34.0309 47.8421C34.1491 47.7573 34.2888 47.7118 34.4318 47.7116C34.6167 47.7069 34.7958 47.7798 34.9299 47.9144C35.064 48.049 35.1421 48.2343 35.1471 48.4296Z" stroke="#787878" stroke-width="0.45" stroke-linecap="round" stroke-linejoin="round"/>
<path d="M37.4577 45.5576C37.4648 45.7084 37.429 45.8581 37.3549 45.9872C37.2807 46.1164 37.1717 46.2191 37.0418 46.2822C36.9118 46.3452 36.767 46.3657 36.626 46.3409C36.4849 46.3162 36.3541 46.2473 36.2505 46.1433C36.1468 46.0393 36.0751 45.9048 36.0444 45.7572C36.0138 45.6097 36.0257 45.4559 36.0787 45.3155C36.1316 45.1752 36.2231 45.0549 36.3414 44.97C36.4597 44.8852 36.5993 44.8398 36.7423 44.8396C36.9272 44.8348 37.1064 44.9078 37.2405 45.0423C37.3746 45.1769 37.4527 45.3622 37.4577 45.5576Z" stroke="#787878" stroke-width="0.45" stroke-linecap="round" stroke-linejoin="round"/>
<path d="M39.1818 42.2119C39.1889 42.3627 39.1531 42.5124 39.079 42.6415C39.0049 42.7707 38.8958 42.8734 38.7659 42.9365C38.6359 42.9995 38.4911 43.02 38.3501 42.9952C38.209 42.9704 38.0783 42.9016 37.9746 42.7976C37.871 42.6935 37.7992 42.5591 37.7686 42.4115C37.7379 42.264 37.7499 42.1101 37.8028 41.9698C37.8557 41.8295 37.9472 41.7092 38.0655 41.6243C38.1838 41.5395 38.3235 41.4941 38.4664 41.4939C38.6513 41.4891 38.8305 41.562 38.9646 41.6966C39.0987 41.8312 39.1768 42.0165 39.1818 42.2119Z" stroke="#787878" stroke-width="0.45" stroke-linecap="round" stroke-linejoin="round"/>
<path d="M37.5338 50.8228C37.541 50.9736 37.5052 51.1233 37.431 51.2524C37.3569 51.3816 37.2478 51.4843 37.1179 51.5474C36.988 51.6104 36.8432 51.6309 36.7021 51.6061C36.5611 51.5814 36.4303 51.5125 36.3267 51.4085C36.223 51.3045 36.1512 51.17 36.1206 51.0225C36.09 50.8749 36.1019 50.7211 36.1548 50.5807C36.2078 50.4404 36.2993 50.3201 36.4176 50.2352C36.5359 50.1504 36.6755 50.105 36.8185 50.1048C36.9101 50.1021 37.0014 50.1186 37.087 50.1532C37.1726 50.1879 37.2508 50.2401 37.3173 50.3068C37.3838 50.3735 37.4371 50.4534 37.4743 50.542C37.5114 50.6305 37.5317 50.7259 37.5338 50.8228Z" stroke="#787878" stroke-width="0.45" stroke-linecap="round" stroke-linejoin="round"/>
<path d="M31.6896 41.5596C31.6967 41.7104 31.6609 41.8601 31.5868 41.9893C31.5127 42.1184 31.4036 42.2211 31.2737 42.2842C31.1438 42.3472 30.9989 42.3677 30.8579 42.3429C30.7169 42.3182 30.5861 42.2493 30.4824 42.1453C30.3788 42.0413 30.307 41.9068 30.2764 41.7593C30.2457 41.6117 30.2577 41.4579 30.3106 41.3176C30.3635 41.1772 30.455 41.0569 30.5733 40.9721C30.6916 40.8872 30.8313 40.8418 30.9742 40.8416C31.0659 40.8389 31.1571 40.8554 31.2427 40.89C31.3283 40.9247 31.4066 40.9769 31.4731 41.0436C31.5395 41.1103 31.5929 41.1902 31.63 41.2788C31.6672 41.3673 31.6874 41.4627 31.6896 41.5596Z" stroke="#787878" stroke-width="0.45" stroke-linecap="round" stroke-linejoin="round"/>
<path d="M50.5343 69.4549C50.5605 69.5355 50.6249 69.664 50.6917 69.664C50.7942 69.664 50.8801 69.5053 50.8801 69.3113C50.8801 69.1173 50.7942 68.9586 50.6917 68.9586C50.6321 68.9586 50.5701 69.072 50.5415 69.14L49.8499 69.1173C49.8277 68.6564 49.7157 68.2053 49.5209 67.7922L50.4318 67.1976C50.4985 67.2581 50.6273 67.3438 50.6917 67.3035C50.7561 67.2631 50.7871 67.0515 50.6917 66.8601C50.5963 66.6686 50.427 66.5729 50.3292 66.6333C50.272 66.6686 50.272 66.8097 50.2815 66.8853L49.3277 67.4269C49.0863 67.0416 48.7721 66.7131 48.4049 66.462L48.7292 65.8272C48.8079 65.8423 48.9462 65.8473 48.9677 65.7869C48.9891 65.7264 48.9319 65.5349 48.7721 65.4392C48.6124 65.3435 48.4407 65.3384 48.3906 65.4392C48.3596 65.4946 48.4192 65.608 48.4621 65.6659L48.1092 66.2806C47.7195 66.0716 47.2935 65.949 46.8573 65.9204L46.824 64.7892C46.9098 64.7565 47.0433 64.6834 47.0433 64.6053C47.0433 64.4844 46.8788 64.3887 46.6761 64.3887C46.4734 64.3887 46.3089 64.4844 46.3089 64.6053C46.3089 64.6759 46.4257 64.7464 46.4973 64.7792L46.4639 65.9204C46.0253 65.948 45.5967 66.0706 45.2049 66.2806L44.8472 65.6659C44.8996 65.6004 44.9712 65.4795 44.9378 65.414C44.9044 65.3485 44.716 65.3233 44.5563 65.414C44.3965 65.5047 44.3178 65.6659 44.3607 65.7617C44.4037 65.8574 44.5133 65.8171 44.5825 65.8095L44.9116 66.4519C44.5444 66.703 44.2302 67.0315 43.9887 67.4168L43.0349 66.8802C43.0516 66.7895 43.0564 66.6283 42.992 66.5905C42.9276 66.5527 42.7321 66.6308 42.6319 66.8172C42.5318 67.0037 42.527 67.2027 42.6319 67.2606C42.6916 67.2984 42.8084 67.2254 42.8704 67.1775L43.7908 67.7771C43.596 68.1902 43.484 68.6413 43.4618 69.1022L42.7774 69.1249C42.7512 69.0417 42.6868 68.9158 42.62 68.9158C42.5533 68.9158 42.4316 69.072 42.4316 69.2685C42.4316 69.465 42.5175 69.6212 42.62 69.6212C42.6796 69.6212 42.7416 69.5078 42.7702 69.4398L43.4618 69.4599C43.4837 69.9217 43.5957 70.3737 43.7908 70.7876L42.8799 71.3821C42.8132 71.3191 42.6844 71.236 42.62 71.2738C42.5556 71.3116 42.5246 71.5257 42.62 71.7197C42.7154 71.9137 42.8847 72.0069 42.9825 71.9464C43.0397 71.9112 43.0397 71.7676 43.0302 71.6945L43.984 71.1529C44.2254 71.5389 44.5395 71.8682 44.9068 72.1203L44.5825 72.7551C44.5038 72.7375 44.3655 72.7324 44.3321 72.7954C44.2987 72.8584 44.3679 73.0474 44.5277 73.1431C44.6874 73.2388 44.8591 73.2413 44.9116 73.1431C44.964 73.0448 44.8806 72.9743 44.8376 72.9138L45.2001 72.2941C45.5895 72.5034 46.0158 72.6253 46.452 72.6518L46.4854 73.7855C46.3995 73.8157 46.266 73.8913 46.266 73.9694C46.266 74.0878 46.4305 74.1861 46.6332 74.1861C46.8359 74.1861 47.0004 74.0878 47.0004 73.9694C47.0004 73.8989 46.8836 73.8258 46.812 73.7956L46.8454 72.6518C47.2816 72.6253 47.7079 72.5034 48.0973 72.2941L48.455 72.9063C48.4025 72.9718 48.331 73.0952 48.3644 73.1582C48.3978 73.2212 48.5861 73.2514 48.7459 73.1582C48.9057 73.065 48.9843 72.9063 48.9414 72.8106C48.9104 72.7551 48.7888 72.7551 48.7197 72.7652L48.3906 72.1228C48.7579 71.8708 49.072 71.5414 49.3134 71.1554L50.2553 71.692C50.2386 71.7852 50.2338 71.9439 50.2982 71.9842C50.3626 72.0245 50.5581 71.9414 50.6607 71.755C50.7632 71.5686 50.7632 71.3721 50.6607 71.3116C50.6011 71.2763 50.4842 71.3469 50.4222 71.3972L49.5209 70.8153C49.716 70.4014 49.828 69.9494 49.8499 69.4877L50.5343 69.4549Z" stroke="#787878" stroke-width="0.45" stroke-linecap="round" stroke-linejoin="round"/>
<path d="M46.581 67.0492C46.7628 67.0492 46.9101 66.9014 46.9101 66.7192C46.9101 66.5369 46.7628 66.3892 46.581 66.3892C46.3993 66.3892 46.252 66.5369 46.252 66.7192C46.252 66.9014 46.3993 67.0492 46.581 67.0492Z" stroke="#787878" stroke-width="0.45" stroke-linecap="round" stroke-linejoin="round"/>
<path d="M44.9215 69.3971C44.9243 69.4664 44.9075 69.535 44.8731 69.5942C44.8387 69.6533 44.7884 69.7002 44.7286 69.7288C44.6688 69.7575 44.6022 69.7666 44.5375 69.7549C44.4727 69.7432 44.4127 69.7114 44.3653 69.6634C44.3178 69.6155 44.285 69.5536 44.2711 69.4858C44.2572 69.418 44.2629 69.3473 44.2873 69.2829C44.3117 69.2185 44.3538 69.1633 44.4082 69.1243C44.4626 69.0854 44.5267 69.0646 44.5924 69.0645C44.6347 69.0635 44.6768 69.0713 44.7162 69.0875C44.7556 69.1037 44.7916 69.1279 44.8222 69.1588C44.8527 69.1897 44.8772 69.2266 44.8943 69.2675C44.9113 69.3084 44.9206 69.3524 44.9215 69.3971Z" stroke="#787878" stroke-width="0.45" stroke-linecap="round" stroke-linejoin="round"/>
<path d="M46.0659 68.8656C46.2476 68.8656 46.395 68.7179 46.395 68.5356C46.395 68.3533 46.2476 68.2056 46.0659 68.2056C45.8841 68.2056 45.7368 68.3533 45.7368 68.5356C45.7368 68.7179 45.8841 68.8656 46.0659 68.8656Z" stroke="#787878" stroke-width="0.45" stroke-linecap="round" stroke-linejoin="round"/>
<path d="M45.6271 71.4176C45.6299 71.4869 45.6131 71.5555 45.5787 71.6147C45.5443 71.6738 45.494 71.7207 45.4342 71.7493C45.3743 71.778 45.3078 71.7871 45.243 71.7754C45.1783 71.7638 45.1183 71.7319 45.0708 71.6839C45.0234 71.636 44.9906 71.5741 44.9767 71.5063C44.9628 71.4385 44.9684 71.3678 44.9929 71.3034C45.0173 71.239 45.0594 71.1838 45.1138 71.1449C45.1682 71.1059 45.2323 71.0851 45.298 71.085C45.3403 71.084 45.3823 71.0918 45.4217 71.108C45.4612 71.1242 45.4972 71.1484 45.5277 71.1793C45.5583 71.2102 45.5828 71.2471 45.5998 71.288C45.6169 71.3289 45.6261 71.3729 45.6271 71.4176Z" stroke="#787878" stroke-width="0.45" stroke-linecap="round" stroke-linejoin="round"/>
<path d="M49.2159 70.027C49.2188 70.0963 49.2019 70.1649 49.1676 70.2241C49.1332 70.2832 49.0828 70.3301 49.023 70.3587C48.9632 70.3874 48.8966 70.3965 48.8319 70.3848C48.7671 70.3731 48.7072 70.3413 48.6597 70.2933C48.6123 70.2454 48.5795 70.1835 48.5656 70.1157C48.5517 70.0478 48.5573 69.9772 48.5817 69.9128C48.6061 69.8484 48.6483 69.7931 48.7026 69.7542C48.757 69.7153 48.8212 69.6945 48.8869 69.6944C48.9291 69.6934 48.9712 69.7012 49.0106 69.7174C49.05 69.7336 49.086 69.7578 49.1166 69.7887C49.1472 69.8196 49.1717 69.8565 49.1887 69.8974C49.2057 69.9383 49.215 69.9823 49.2159 70.027Z" stroke="#787878" stroke-width="0.45" stroke-linecap="round" stroke-linejoin="round"/>
<path d="M46.8599 70.4781C46.8632 70.5475 46.8468 70.6163 46.8127 70.6758C46.7786 70.7352 46.7285 70.7825 46.6687 70.8115C46.609 70.8406 46.5423 70.85 46.4774 70.8387C46.4125 70.8273 46.3524 70.7957 46.3047 70.7478C46.257 70.7 46.2239 70.6381 46.2098 70.5703C46.1957 70.5024 46.2012 70.4316 46.2255 70.367C46.2498 70.3025 46.2919 70.2471 46.3464 70.2081C46.4008 70.169 46.465 70.1481 46.5308 70.148C46.6158 70.146 46.6981 70.1796 46.7597 70.2414C46.8214 70.3032 46.8574 70.3883 46.8599 70.4781Z" stroke="#787878" stroke-width="0.45" stroke-linecap="round" stroke-linejoin="round"/>
<path d="M47.9258 69.1529C47.9291 69.2223 47.9127 69.2911 47.8786 69.3506C47.8445 69.41 47.7944 69.4573 47.7346 69.4864C47.6749 69.5154 47.6083 69.5248 47.5434 69.5135C47.4785 69.5021 47.4183 69.4705 47.3706 69.4226C47.3229 69.3748 47.2898 69.313 47.2757 69.2451C47.2616 69.1772 47.2671 69.1064 47.2914 69.0419C47.3158 68.9773 47.3579 68.9219 47.4123 68.8829C47.4667 68.8438 47.5309 68.8229 47.5967 68.8228C47.6817 68.8208 47.764 68.8544 47.8256 68.9162C47.8873 68.978 47.9233 69.0631 47.9258 69.1529Z" stroke="#787878" stroke-width="0.45" stroke-linecap="round" stroke-linejoin="round"/>
<path d="M48.7223 67.611C48.7251 67.6803 48.7083 67.7489 48.6739 67.808C48.6395 67.8672 48.5892 67.9141 48.5294 67.9427C48.4695 67.9714 48.403 67.9804 48.3382 67.9688C48.2735 67.9571 48.2135 67.9253 48.1661 67.8773C48.1186 67.8293 48.0858 67.7675 48.0719 67.6996C48.058 67.6318 48.0636 67.5612 48.0881 67.4968C48.1125 67.4323 48.1546 67.3771 48.209 67.3382C48.2634 67.2993 48.3275 67.2785 48.3932 67.2784C48.4355 67.2774 48.4775 67.2852 48.517 67.3014C48.5564 67.3175 48.5924 67.3418 48.623 67.3727C48.6535 67.4035 48.678 67.4405 48.6951 67.4814C48.7121 67.5222 48.7213 67.5663 48.7223 67.611Z" stroke="#787878" stroke-width="0.45" stroke-linecap="round" stroke-linejoin="round"/>
<path d="M47.9614 71.5713C47.9648 71.6407 47.9483 71.7096 47.9143 71.769C47.8802 71.8285 47.83 71.8758 47.7703 71.9048C47.7105 71.9338 47.6439 71.9433 47.579 71.9319C47.5141 71.9206 47.4539 71.8889 47.4062 71.8411C47.3585 71.7933 47.3255 71.7314 47.3114 71.6635C47.2973 71.5957 47.3027 71.5249 47.3271 71.4603C47.3514 71.3958 47.3935 71.3404 47.4479 71.3013C47.5023 71.2623 47.5666 71.2414 47.6324 71.2413C47.7173 71.2393 47.7996 71.2728 47.8613 71.3346C47.9229 71.3965 47.9589 71.4816 47.9614 71.5713Z" stroke="#787878" stroke-width="0.45" stroke-linecap="round" stroke-linejoin="round"/>
<path d="M45.2668 67.3087C45.2707 67.3787 45.2545 67.4482 45.2205 67.5084C45.1865 67.5686 45.1361 67.6166 45.076 67.6462C45.0159 67.6758 44.9487 67.6857 44.8832 67.6746C44.8177 67.6634 44.7569 67.6318 44.7086 67.5837C44.6603 67.5356 44.6268 67.4733 44.6124 67.4049C44.598 67.3365 44.6033 67.2651 44.6278 67.1999C44.6522 67.1348 44.6946 67.0788 44.7494 67.0394C44.8043 66.9999 44.869 66.9788 44.9354 66.9787C44.9777 66.9773 45.0198 66.9848 45.0593 67.0007C45.0989 67.0165 45.1351 67.0405 45.1659 67.0711C45.1966 67.1018 45.2214 67.1385 45.2387 67.1793C45.2561 67.2201 45.2656 67.264 45.2668 67.3087Z" stroke="#787878" stroke-width="0.45" stroke-linecap="round" stroke-linejoin="round"/>
<path d="M55.1985 28.6328C55.2248 28.7159 55.2891 28.8419 55.3559 28.8419C55.4608 28.8419 55.5443 28.6857 55.5443 28.4892C55.5443 28.2927 55.4608 28.1365 55.3559 28.1365C55.2963 28.1365 55.2343 28.2499 55.2057 28.3179L54.5142 28.2977C54.4922 27.836 54.3802 27.384 54.1851 26.9701L55.096 26.3756C55.1651 26.4385 55.2915 26.5217 55.3559 26.4839C55.4203 26.4461 55.4513 26.232 55.3559 26.038C55.2605 25.844 55.0912 25.7508 54.9935 25.8112C54.9362 25.8465 54.9362 25.9901 54.9458 26.0632L53.992 26.6048C53.7512 26.222 53.4387 25.8953 53.0739 25.645L53.3982 25.0101C53.4769 25.0278 53.6152 25.0328 53.6367 24.9698C53.6581 24.9068 53.6009 24.7179 53.4411 24.6247C53.2814 24.5315 53.1097 24.5239 53.0596 24.6247C53.0095 24.7254 53.0906 24.7935 53.1311 24.8539L52.7735 25.4686C52.384 25.2593 51.9578 25.1375 51.5216 25.1109L51.4906 23.9772C51.574 23.947 51.7076 23.8714 51.7076 23.7933C51.7076 23.6749 51.543 23.5767 51.3403 23.5767C51.1377 23.5767 50.9731 23.6749 50.9731 23.7933C50.9731 23.8639 51.09 23.9369 51.1615 23.9671L51.1305 25.1109C50.6935 25.1371 50.2664 25.2589 49.8762 25.4686L49.5186 24.8564C49.571 24.7909 49.6426 24.6675 49.6092 24.6045C49.5758 24.5415 49.3874 24.5113 49.2276 24.6045C49.0679 24.6977 48.9892 24.8564 49.0321 24.9522C49.0631 25.0076 49.1847 25.0076 49.2539 24.9975L49.5829 25.6399C49.2157 25.892 48.9015 26.2213 48.6601 26.6073L47.7063 26.0707C47.723 25.9775 47.7278 25.8188 47.6634 25.7785C47.599 25.7382 47.4035 25.8213 47.3033 26.0077C47.2032 26.1942 47.1984 26.3907 47.3033 26.4511C47.3629 26.4864 47.4798 26.4159 47.5418 26.3655L48.4598 26.9651C48.2658 27.3794 48.1538 27.8311 48.1308 28.2927L47.4464 28.3129C47.4202 28.2322 47.3558 28.1038 47.289 28.1038C47.2223 28.1038 47.103 28.2625 47.103 28.4565C47.103 28.6504 47.1865 28.8092 47.289 28.8092C47.3486 28.8092 47.4106 28.6983 47.4392 28.6278L48.1308 28.6504C48.1541 29.1112 48.2661 29.5621 48.4598 29.9756L47.5489 30.5701C47.4822 30.5097 47.3534 30.424 47.289 30.4643C47.2246 30.5046 47.1936 30.7162 47.289 30.9077C47.3844 31.0992 47.5537 31.1949 47.6515 31.137C47.7087 31.0992 47.7087 30.9581 47.6992 30.885L48.653 30.3434C48.8944 30.7287 49.2086 31.0572 49.5758 31.3083L49.2586 31.9406C49.18 31.9255 49.0417 31.9204 49.0083 31.9809C48.9749 32.0414 49.044 32.2328 49.2038 32.3286C49.3636 32.4243 49.5353 32.4293 49.5877 32.3286C49.6163 32.2731 49.5567 32.1598 49.5138 32.1018L49.8762 31.4796C50.2668 31.6886 50.6936 31.8112 51.1305 31.8398L51.1615 32.971C51.0757 33.0037 50.9421 33.0768 50.9421 33.1549C50.9421 33.2758 51.1067 33.3741 51.3093 33.3741C51.512 33.3741 51.6766 33.2758 51.6766 33.1549C51.6766 33.0843 51.5597 33.0138 51.4906 32.981L51.5216 31.8398C51.9578 31.8112 52.3838 31.6886 52.7735 31.4796L53.1335 32.0943C53.0787 32.1598 53.0071 32.2807 53.0405 32.3462C53.0739 32.4117 53.2623 32.4369 53.422 32.3462C53.5818 32.2555 53.6605 32.0943 53.6176 31.9985C53.5866 31.9431 53.465 31.9431 53.3958 31.9507L53.0739 31.3057C53.4411 31.0547 53.7553 30.7262 53.9967 30.3409L54.9386 30.8775C54.9219 30.9707 54.9172 31.1294 54.9815 31.1672C55.0459 31.205 55.2414 31.1269 55.344 30.9404C55.4465 30.754 55.4465 30.555 55.344 30.4971C55.2868 30.4618 55.1675 30.5323 55.1055 30.5802L54.1851 29.9806C54.3799 29.5675 54.492 29.1164 54.5142 28.6555L55.1985 28.6328Z" stroke="#787878" stroke-width="0.45" stroke-linecap="round" stroke-linejoin="round"/>
<path d="M51.5742 25.8971C51.5776 25.9665 51.5611 26.0353 51.5271 26.0948C51.493 26.1542 51.4428 26.2015 51.3831 26.2306C51.3233 26.2596 51.2567 26.269 51.1918 26.2577C51.1269 26.2463 51.0667 26.2147 51.019 26.1668C50.9713 26.119 50.9383 26.0572 50.9242 25.9893C50.9101 25.9214 50.9155 25.8506 50.9399 25.7861C50.9642 25.7215 51.0063 25.6661 51.0607 25.6271C51.1151 25.588 51.1794 25.5671 51.2451 25.567C51.2873 25.5657 51.3293 25.5732 51.3687 25.5891C51.4081 25.605 51.4442 25.629 51.4747 25.6596C51.5053 25.6903 51.5299 25.7271 51.547 25.7678C51.564 25.8086 51.5733 25.8525 51.5742 25.8971Z" stroke="#787878" stroke-width="0.45" stroke-linecap="round" stroke-linejoin="round"/>
<path d="M49.5856 28.5748C49.588 28.6442 49.5707 28.7127 49.5359 28.7716C49.5011 28.8304 49.4505 28.8769 49.3904 28.9051C49.3304 28.9333 49.2638 28.9419 49.1991 28.9297C49.1345 28.9175 49.0747 28.8852 49.0276 28.8369C48.9805 28.7885 48.9481 28.7264 48.9347 28.6585C48.9213 28.5906 48.9274 28.5199 48.9523 28.4557C48.9772 28.3915 49.0197 28.3366 49.0743 28.2981C49.129 28.2596 49.1933 28.2393 49.259 28.2398C49.3012 28.2391 49.3432 28.2473 49.3825 28.2637C49.4218 28.2802 49.4577 28.3047 49.488 28.3358C49.5183 28.3669 49.5426 28.4041 49.5593 28.4451C49.5761 28.4861 49.585 28.5302 49.5856 28.5748Z" stroke="#787878" stroke-width="0.45" stroke-linecap="round" stroke-linejoin="round"/>
<path d="M50.7299 28.0433C50.9117 28.0433 51.059 27.8956 51.059 27.7133C51.059 27.5311 50.9117 27.3833 50.7299 27.3833C50.5482 27.3833 50.4009 27.5311 50.4009 27.7133C50.4009 27.8956 50.5482 28.0433 50.7299 28.0433Z" stroke="#787878" stroke-width="0.45" stroke-linecap="round" stroke-linejoin="round"/>
<path d="M50.2914 30.5957C50.2928 30.6653 50.2743 30.7337 50.2385 30.7921C50.2027 30.8505 50.1511 30.8962 50.0904 30.9233C50.0297 30.9504 49.9627 30.9576 49.8981 30.944C49.8335 30.9304 49.7742 30.8966 49.728 30.847C49.6817 30.7974 49.6506 30.7343 49.6387 30.6659C49.6268 30.5974 49.6346 30.5267 49.6612 30.463C49.6877 30.3993 49.7317 30.3455 49.7875 30.3085C49.8433 30.2715 49.9084 30.2531 49.9742 30.2556C50.0588 30.2569 50.1394 30.2933 50.1988 30.357C50.2581 30.4206 50.2914 30.5064 50.2914 30.5957Z" stroke="#787878" stroke-width="0.45" stroke-linecap="round" stroke-linejoin="round"/>
<path d="M53.8799 29.2052C53.8832 29.2746 53.8668 29.3434 53.8327 29.4029C53.7986 29.4623 53.7485 29.5096 53.6887 29.5387C53.629 29.5677 53.5623 29.5772 53.4975 29.5658C53.4326 29.5544 53.3724 29.5228 53.3247 29.475C53.277 29.4271 53.2439 29.3653 53.2298 29.2974C53.2157 29.2295 53.2212 29.1587 53.2455 29.0942C53.2699 29.0296 53.312 28.9742 53.3664 28.9352C53.4208 28.8962 53.485 28.8752 53.5508 28.8752C53.593 28.8738 53.635 28.8813 53.6744 28.8972C53.7138 28.9131 53.7498 28.9371 53.7804 28.9677C53.811 28.9984 53.8355 29.0352 53.8526 29.076C53.8697 29.1167 53.8789 29.1606 53.8799 29.2052Z" stroke="#787878" stroke-width="0.45" stroke-linecap="round" stroke-linejoin="round"/>
<path d="M51.524 29.6583C51.5269 29.7276 51.51 29.7963 51.4757 29.8554C51.4413 29.9145 51.3909 29.9614 51.3311 29.9901C51.2713 30.0187 51.2047 30.0278 51.14 30.0161C51.0752 30.0045 51.0153 29.9726 50.9678 29.9247C50.9204 29.8767 50.8876 29.8148 50.8737 29.747C50.8598 29.6792 50.8654 29.6085 50.8898 29.5441C50.9143 29.4797 50.9564 29.4245 51.0107 29.3856C51.0651 29.3467 51.1293 29.3258 51.195 29.3258C51.2372 29.3248 51.2793 29.3326 51.3187 29.3487C51.3581 29.3649 51.3942 29.3891 51.4247 29.42C51.4553 29.4509 51.4798 29.4878 51.4968 29.5287C51.5139 29.5696 51.5231 29.6136 51.524 29.6583Z" stroke="#787878" stroke-width="0.45" stroke-linecap="round" stroke-linejoin="round"/>
<path d="M52.5973 28.3331C52.6001 28.4024 52.5833 28.4711 52.5489 28.5302C52.5145 28.5893 52.4642 28.6362 52.4044 28.6649C52.3445 28.6935 52.278 28.7026 52.2132 28.6909C52.1485 28.6793 52.0885 28.6474 52.0411 28.5995C51.9936 28.5515 51.9608 28.4896 51.9469 28.4218C51.933 28.354 51.9386 28.2833 51.9631 28.2189C51.9875 28.1545 52.0296 28.0993 52.084 28.0604C52.1384 28.0215 52.2025 28.0006 52.2682 28.0006C52.3105 27.9996 52.3525 28.0074 52.392 28.0235C52.4314 28.0397 52.4674 28.0639 52.498 28.0948C52.5285 28.1257 52.553 28.1626 52.5701 28.2035C52.5871 28.2444 52.5963 28.2885 52.5973 28.3331Z" stroke="#787878" stroke-width="0.45" stroke-linecap="round" stroke-linejoin="round"/>
<path d="M53.3862 26.7891C53.3896 26.8585 53.3731 26.9274 53.3391 26.9868C53.305 27.0463 53.2548 27.0935 53.1951 27.1226C53.1353 27.1516 53.0687 27.1611 53.0038 27.1497C52.9389 27.1384 52.8787 27.1067 52.831 27.0589C52.7833 27.011 52.7503 26.9492 52.7362 26.8813C52.7221 26.8134 52.7275 26.7426 52.7519 26.6781C52.7762 26.6135 52.8183 26.5582 52.8727 26.5191C52.9271 26.4801 52.9914 26.4592 53.0572 26.4591C53.1421 26.457 53.2244 26.4906 53.2861 26.5524C53.3477 26.6143 53.3837 26.6993 53.3862 26.7891Z" stroke="#787878" stroke-width="0.45" stroke-linecap="round" stroke-linejoin="round"/>
<path d="M52.6256 30.7595C52.6284 30.8288 52.6116 30.8974 52.5772 30.9565C52.5428 31.0157 52.4925 31.0626 52.4327 31.0912C52.3729 31.1199 52.3063 31.1289 52.2416 31.1173C52.1768 31.1056 52.1168 31.0738 52.0694 31.0258C52.0219 30.9778 51.9891 30.916 51.9752 30.8481C51.9613 30.7803 51.967 30.7097 51.9914 30.6453C52.0158 30.5808 52.0579 30.5256 52.1123 30.4867C52.1667 30.4478 52.2308 30.427 52.2965 30.4269C52.3389 30.4256 52.3811 30.4331 52.4206 30.4492C52.4602 30.4652 52.4963 30.4894 52.527 30.5204C52.5576 30.5513 52.5821 30.5884 52.599 30.6295C52.6159 30.6705 52.625 30.7147 52.6256 30.7595Z" stroke="#787878" stroke-width="0.45" stroke-linecap="round" stroke-linejoin="round"/>
<path d="M49.9309 26.4894C49.9347 26.5594 49.9185 26.6291 49.8844 26.6894C49.8503 26.7496 49.7998 26.7976 49.7395 26.8271C49.6793 26.8567 49.612 26.8664 49.5464 26.8551C49.4808 26.8437 49.42 26.8118 49.3718 26.7635C49.3236 26.7151 49.2903 26.6526 49.2761 26.584C49.262 26.5154 49.2677 26.4439 49.2925 26.3788C49.3173 26.3137 49.3601 26.2579 49.4152 26.2188C49.4704 26.1797 49.5354 26.1589 49.6018 26.1593C49.644 26.158 49.686 26.1655 49.7254 26.1814C49.7648 26.1973 49.8008 26.2212 49.8314 26.2519C49.862 26.2826 49.8866 26.3194 49.9036 26.3601C49.9207 26.4009 49.93 26.4448 49.9309 26.4894Z" stroke="#787878" stroke-width="0.45" stroke-linecap="round" stroke-linejoin="round"/>
<path d="M103.91 29.225C103.91 25.7308 100.963 23.2519 97.8412 20.6268C97.8102 20.6016 97.7792 20.5764 97.7506 20.5487C98.7093 19.743 99.6278 18.8853 100.502 17.9791C104.673 13.5729 103.865 9.75875 103.824 9.59752C103.789 9.44488 103.699 9.31297 103.572 9.23077C103.446 9.14857 103.294 9.12282 103.149 9.15917C103.004 9.19574 102.878 9.29136 102.799 9.4253C102.72 9.55924 102.694 9.7207 102.727 9.87464C102.817 10.4406 102.812 11.0189 102.71 11.5827H90.9881C90.8873 11.0189 90.8808 10.4408 90.969 9.87464C91.0031 9.72153 90.9785 9.56036 90.9004 9.42642C90.8223 9.29248 90.6972 9.19669 90.5524 9.16003C90.4076 9.12337 90.255 9.14882 90.1279 9.23082C90.0008 9.31282 89.9097 9.44468 89.8745 9.59752C89.8363 9.75875 89.0256 13.5729 93.1937 17.9791C94.0697 18.8847 94.9889 19.7424 95.9479 20.5487L95.8573 20.6268C92.7383 23.2519 89.7958 25.7208 89.7958 29.225C89.7958 33.0316 93.9735 37.002 95.9097 38.637C94.5076 39.6926 89.1233 44.197 90.1082 50.543C90.1291 50.683 90.1965 50.8105 90.2983 50.9028C90.4001 50.9951 90.5296 51.0462 90.6638 51.0468C90.6939 51.0504 90.7243 51.0504 90.7544 51.0468C90.8273 51.0343 90.8973 51.0067 90.9601 50.9656C91.023 50.9245 91.0776 50.8707 91.1208 50.8073C91.1639 50.7439 91.1949 50.6721 91.2118 50.5961C91.2287 50.52 91.2313 50.4412 91.2194 50.3641C91.1342 49.8139 91.1039 49.2558 91.1287 48.6989H102.575C102.598 49.2558 102.568 49.8138 102.484 50.3641C102.472 50.4413 102.474 50.5202 102.491 50.5963C102.508 50.6725 102.538 50.7444 102.582 50.8079C102.625 50.8714 102.68 50.9252 102.743 50.9662C102.806 51.0072 102.876 51.0346 102.949 51.0468C102.979 51.0506 103.009 51.0506 103.04 51.0468C103.174 51.0462 103.303 50.9951 103.405 50.9028C103.507 50.8105 103.574 50.683 103.595 50.543C104.582 44.1768 99.1599 39.6648 97.7935 38.637C99.7202 37.0146 103.91 33.0392 103.91 29.225ZM90.9165 29.225C90.9181 29.0752 90.9268 28.9255 90.9427 28.7766H102.758C102.773 28.9256 102.781 29.0752 102.782 29.225C102.782 29.3183 102.782 29.414 102.782 29.5097H90.9308C90.9237 29.414 90.9165 29.3183 90.9165 29.225ZM102.691 30.1068C102.643 30.3545 102.579 30.5985 102.501 30.8374H91.2003C91.1205 30.5989 91.0567 30.3548 91.0095 30.1068H102.691ZM102.668 28.1821H91.0334C91.0907 27.9322 91.1657 27.6871 91.2575 27.449H102.434C102.531 27.6867 102.61 27.9318 102.672 28.1821H102.668ZM91.4292 31.4344H102.269C102.164 31.6864 102.045 31.9232 101.914 32.1675H91.7845C91.6533 31.9232 91.5341 31.6788 91.4292 31.4344ZM92.2829 14.9308H101.418C101.261 15.1827 101.089 15.4346 100.893 15.7143H92.8051C92.6119 15.4472 92.4402 15.1877 92.2829 14.9308ZM101.759 14.3362H91.9419C91.7988 14.0667 91.6772 13.8072 91.5699 13.5553H102.136C102.026 13.8072 101.902 14.0667 101.759 14.3362ZM102.591 12.1772C102.525 12.4419 102.446 12.7027 102.353 12.9582H91.3362C91.2408 12.6836 91.1669 12.4216 91.0977 12.1772H102.591ZM93.9949 17.1351C93.7303 16.8555 93.4894 16.5809 93.2677 16.3088H100.433C100.211 16.5809 99.9706 16.8555 99.7059 17.1351C98.7971 18.0721 97.842 18.9576 96.8445 19.7879C95.851 18.9574 94.8999 18.0719 93.9949 17.1351ZM96.5607 21.559L96.8492 21.307L97.1402 21.559C99.2862 23.3703 101.234 25.0103 102.176 26.8494H91.5222C92.4665 25.0103 94.4051 23.3703 96.5607 21.559ZM92.5213 44.5547H101.32C101.346 44.5527 101.37 44.5468 101.394 44.5371C101.532 44.789 101.659 45.0611 101.778 45.3357H91.9228C92.0516 45.0409 92.1899 44.7563 92.3377 44.4791C92.3882 44.5271 92.4534 44.554 92.5213 44.5547ZM91.6843 45.9302H102.017C102.11 46.1822 102.191 46.4467 102.255 46.7137H91.4292C91.5103 46.4467 91.5913 46.1847 91.6843 45.9302ZM91.1693 48.0892C91.1979 47.8373 91.2432 47.5652 91.2957 47.3083H102.405C102.458 47.5602 102.501 47.8247 102.532 48.0892H91.1693ZM101.065 43.9577H92.6358C93.7541 42.1694 95.184 40.622 96.8492 39.3978H96.8612C98.523 40.623 99.9496 42.1703 101.065 43.9577ZM96.8516 37.9114C95.7571 37.007 93.5133 35.0093 92.1302 32.7671H101.568C100.171 35.0067 97.9318 37.0095 96.8516 37.9064V37.9114Z" stroke="#787878" stroke-width="0.45" stroke-miterlimit="10"/>
<path d="M11.695 77.7455C12.3508 78.0478 13.9508 78.01 13.9532 78.01C13.9556 78.01 13.6098 76.9015 13.5788 76.836C13.2259 76.0576 12.1171 74.7753 11.211 74.9063C11.0615 74.932 10.9188 74.9907 10.7922 75.0785C10.6656 75.1664 10.5579 75.2815 10.4762 75.4163C10.3946 75.551 10.3407 75.7025 10.3182 75.8607C10.2956 76.019 10.3049 76.1805 10.3454 76.3347C10.4956 76.9973 11.1371 77.4885 11.695 77.7455Z" fill="#263238"/>
<path d="M12.2484 82.6557C12.928 82.7615 14.3563 82.3232 14.4708 82.2879C14.7058 83.152 14.995 83.9987 15.3364 84.8223C15.5343 85.301 15.7465 85.7796 15.9635 86.2558C15.8347 86.0542 15.725 85.8753 15.6964 85.8527C15.1647 85.2002 13.7721 84.2756 12.9327 84.651C12.7952 84.7179 12.6725 84.8145 12.5726 84.9347C12.4727 85.055 12.3979 85.196 12.3529 85.3487C12.3079 85.5015 12.2938 85.6625 12.3116 85.8214C12.3293 85.9802 12.3785 86.1334 12.4558 86.2709C12.7658 86.8679 13.5098 87.1627 14.1107 87.2559C14.7116 87.3491 15.9468 87.004 16.2711 86.9057C16.3569 87.0871 16.4404 87.271 16.5262 87.4524C16.9388 88.3215 17.3561 89.1882 17.74 90.0523C17.8759 90.3571 17.9975 90.6619 18.1215 90.9668C18.007 90.7854 17.9069 90.6367 17.883 90.6166C17.3489 89.9641 15.9587 89.037 15.117 89.4149C14.9792 89.4815 14.8562 89.578 14.7561 89.6981C14.656 89.8183 14.581 89.9594 14.536 90.1123C14.491 90.2651 14.477 90.4263 14.4949 90.5853C14.5129 90.7442 14.5623 90.8974 14.6401 91.0348C14.9501 91.6318 15.6916 91.9266 16.2949 92.0198C16.8982 92.113 18.0118 91.7981 18.3957 91.6873C18.5149 92.0022 18.6342 92.3171 18.7343 92.6295C18.7987 92.8436 18.875 93.0451 18.9275 93.2643C18.9799 93.4835 19.0395 93.6951 19.0968 93.9067C19.1898 94.3199 19.2899 94.7431 19.371 95.1462C19.4282 95.4284 19.4807 95.6954 19.5331 95.9675C19.402 95.6627 19.1325 95.0732 19.1039 95.0253C18.6699 94.2972 17.4347 93.1585 16.5429 93.3953C16.3961 93.438 16.2595 93.513 16.1421 93.6154C16.0247 93.7177 15.929 93.8452 15.8615 93.9893C15.7939 94.1335 15.756 94.2911 15.7501 94.4518C15.7443 94.6126 15.7707 94.7728 15.8276 94.922C16.0469 95.5594 16.7385 95.97 17.3203 96.159C17.9617 96.3655 19.3805 96.1766 19.557 96.159C19.6428 96.6074 19.7215 97.0432 19.7954 97.4564C20.0339 98.8873 20.1817 100.089 20.2723 100.93C20.289 101.079 20.301 101.213 20.3153 101.339H17.5802L17.914 108.201H23.9326L24.2641 101.339H21.7078C21.7269 101.298 21.7436 101.258 21.7627 101.215C22.1156 100.442 22.602 99.3332 23.1266 97.9728C23.2936 97.5445 23.4652 97.0835 23.6345 96.6074C23.8062 96.6452 25.2107 96.9475 25.8665 96.7913C26.4578 96.6477 27.178 96.2874 27.4426 95.6727C27.5098 95.5293 27.5476 95.3726 27.5536 95.2127C27.5596 95.0528 27.5336 94.8934 27.4773 94.7448C27.4211 94.5963 27.3358 94.4619 27.2271 94.3505C27.1185 94.2391 26.9888 94.1531 26.8465 94.0982C25.9833 93.7909 24.6623 94.8288 24.1782 95.5216C24.1496 95.5619 23.8873 96.0405 23.7275 96.3479C23.7967 96.1514 23.8635 95.965 23.9326 95.7634C24.0709 95.3654 24.1973 94.9648 24.3356 94.534L24.5168 93.8941C24.5812 93.6825 24.6241 93.4507 24.679 93.2265C24.7958 92.705 24.8912 92.171 24.9746 91.6293C25.3061 91.7578 26.4817 92.1886 27.0921 92.1332C27.7026 92.0778 28.4608 91.8535 28.8114 91.2842C28.8985 91.153 28.9586 91.0039 28.9876 90.8466C29.0166 90.6893 29.0139 90.5273 28.9797 90.3712C28.9455 90.215 28.8806 90.0682 28.7891 89.9404C28.6977 89.8125 28.5818 89.7064 28.4489 89.629C27.6382 89.1882 26.1836 90.0019 25.6066 90.609C25.5708 90.6468 25.2036 91.133 25.0056 91.4026C25.0533 91.0776 25.1034 90.7526 25.144 90.4226C25.256 89.4653 25.3419 88.4954 25.4301 87.5255C25.4587 87.2307 25.4873 86.936 25.5183 86.6387C25.6352 86.6865 27.023 87.2307 27.7049 87.1803C28.313 87.135 29.0737 86.9007 29.4266 86.3313C29.5141 86.1997 29.5744 86.0501 29.6035 85.8922C29.6325 85.7344 29.6298 85.5718 29.5953 85.4151C29.5609 85.2584 29.4956 85.1112 29.4036 84.983C29.3117 84.8548 29.1952 84.7485 29.0617 84.6711C28.251 84.2303 26.7988 85.044 26.2218 85.6511C26.1765 85.6965 25.6495 86.3943 25.5231 86.5807C25.5875 85.9282 25.659 85.2808 25.7615 84.6459C25.885 83.7858 26.0611 82.9351 26.2885 82.099C26.3434 82.1217 27.7884 82.6986 28.4895 82.6457C29.0951 82.6003 29.8558 82.366 30.2087 81.7967C30.2959 81.6655 30.3559 81.5164 30.3849 81.3591C30.4139 81.2018 30.4113 81.0398 30.3771 80.8836C30.3429 80.7275 30.2779 80.5807 30.1865 80.4529C30.095 80.325 29.9791 80.2189 29.8463 80.1415C29.0355 79.7006 27.5809 80.5144 27.0039 81.1215C26.9586 81.1694 26.3911 81.9201 26.2885 82.0662C26.3028 82.0158 26.3124 81.9655 26.3267 81.9176C26.5762 81.0864 26.8954 80.2804 27.2805 79.5092C27.4879 79.0784 27.7097 78.6829 27.9315 78.2999C28.1914 78.436 29.3813 79.0557 30.0156 79.0734C30.6498 79.091 31.4057 78.9549 31.8135 78.4284C31.9135 78.3082 31.9884 78.1671 32.0334 78.0143C32.0784 77.8614 32.0925 77.7003 32.0747 77.5414C32.057 77.3825 32.0077 77.2292 31.9303 77.0917C31.8528 76.9542 31.7489 76.8354 31.6251 76.743C30.8645 76.209 29.336 76.8488 28.6993 77.3854C28.6635 77.4157 28.3416 77.7533 28.1127 78.0027C28.2152 77.8314 28.3178 77.655 28.4203 77.4988C28.8018 76.8917 29.1881 76.3626 29.5315 75.8941C29.7294 75.6295 29.913 75.3902 30.0871 75.1786C30.409 75.1786 31.699 75.1307 32.2642 74.8511C32.8293 74.5714 33.4564 74.0676 33.5781 73.4025C33.6142 73.2469 33.619 73.085 33.5922 72.9274C33.5653 72.7697 33.5074 72.6197 33.4222 72.4872C33.337 72.3547 33.2264 72.2425 33.0976 72.158C32.9687 72.0736 32.8245 72.0186 32.6743 71.9968C31.7682 71.8935 30.6904 73.2085 30.3589 73.9945C30.3303 74.0626 29.9965 75.1786 30.0132 75.1786H30.0322C29.8606 75.3852 29.6793 75.6069 29.4862 75.8537C29.1309 76.3148 28.7351 76.8388 28.3392 77.4409C27.9043 78.0819 27.5062 78.7498 27.147 79.4412C26.7404 80.2104 26.3997 81.0164 26.1288 81.8496C26.1288 81.8496 26.1288 81.8697 26.1288 81.8798C26.1288 81.5977 26.1288 80.8066 26.1145 80.7461C26.0095 79.8921 25.3323 78.31 24.4453 78.1337C24.2955 78.1087 24.1424 78.1174 23.996 78.1592C23.8497 78.201 23.7133 78.275 23.5958 78.3762C23.4783 78.4775 23.3824 78.6039 23.3143 78.747C23.2462 78.8901 23.2074 79.0468 23.2006 79.2069C23.1481 79.8846 23.6131 80.5622 24.0661 80.9905C24.5788 81.4742 26 81.9428 26.1121 81.9781C25.8576 82.8365 25.6569 83.7118 25.5112 84.5981C25.4253 85.1019 25.3514 85.636 25.287 86.16C25.287 85.9081 25.287 85.6965 25.2751 85.6562C25.1702 84.8021 24.493 83.2201 23.6059 83.0437C23.4562 83.0191 23.3033 83.0281 23.157 83.0701C23.0108 83.112 22.8746 83.186 22.7572 83.2872C22.6398 83.3885 22.5439 83.5146 22.4756 83.6576C22.4074 83.8005 22.3684 83.957 22.3612 84.1169C22.3087 84.7946 22.7737 85.4723 23.2292 85.9005C23.6846 86.3288 24.8983 86.7596 25.2131 86.8679C25.1893 87.0695 25.163 87.271 25.1416 87.4726C25.0319 88.4399 24.927 89.4048 24.7958 90.3495C24.7505 90.6821 24.6933 91.0071 24.636 91.3346C24.636 91.1179 24.636 90.934 24.636 90.9063C24.5311 90.0523 23.8539 88.4702 22.9669 88.2938C22.817 88.2693 22.664 88.2783 22.5176 88.3202C22.3713 88.3621 22.2349 88.4361 22.1173 88.5373C21.9997 88.6385 21.9036 88.7646 21.8351 88.9075C21.7666 89.0505 21.7273 89.207 21.7198 89.367C21.6673 90.0447 22.1347 90.7224 22.5877 91.1507C23.0408 91.5789 24.0876 91.977 24.4596 92.108C24.3928 92.4405 24.3261 92.7731 24.2474 93.093C24.1901 93.3097 24.1472 93.5213 24.0781 93.7354C24.0089 93.9496 23.9469 94.1612 23.8849 94.3703C23.7466 94.7683 23.6083 95.179 23.4652 95.5644C23.3675 95.8314 23.2697 96.0859 23.1719 96.3403C23.222 96.0103 23.3055 95.3629 23.3055 95.3074C23.2965 94.5498 23.1035 93.8073 22.7451 93.151C22.7479 93.0666 22.7423 92.9822 22.7284 92.899C22.7097 92.7402 22.6596 92.5874 22.5812 92.4504C22.5028 92.3134 22.398 92.1955 22.2736 92.1042C22.1492 92.0129 22.0079 91.9504 21.8591 91.9206C21.7102 91.8909 21.5571 91.8947 21.4098 91.9316C20.5275 92.1836 19.979 93.816 19.9266 94.6751C19.9266 94.7255 19.9552 95.2797 19.9814 95.6274C19.9361 95.4258 19.8956 95.2268 19.8479 95.0202C19.7549 94.6071 19.6524 94.199 19.5403 93.7606C19.4807 93.549 19.4211 93.3374 19.3591 93.1232C19.2971 92.9091 19.216 92.6899 19.1468 92.4708C18.9704 91.9669 18.7725 91.4631 18.5602 90.9592C18.9012 90.8735 20.1078 90.5486 20.5943 90.1556C21.0807 89.7626 21.5981 89.1302 21.5981 88.45C21.602 88.2901 21.5739 88.1311 21.5158 87.9834C21.4578 87.8357 21.3709 87.7025 21.261 87.5925C21.151 87.4825 21.0204 87.3982 20.8776 87.345C20.7348 87.2917 20.583 87.2708 20.4321 87.2836C19.5236 87.3869 18.7367 88.9136 18.5722 89.7575C18.5722 89.8104 18.5078 90.4276 18.4863 90.7652C18.3552 90.4654 18.2288 90.1656 18.0881 89.8684C17.6827 89.0043 17.2464 88.1452 16.8148 87.2861L16.4237 86.4951C16.5477 86.4648 17.9903 86.1122 18.534 85.6713C19.0109 85.2808 19.5284 84.6409 19.5236 83.9607C19.5278 83.8006 19.5 83.6413 19.442 83.4933C19.3841 83.3453 19.2973 83.2118 19.1873 83.1015C19.0773 82.9912 18.9466 82.9067 18.8037 82.8533C18.6607 82.8 18.5087 82.779 18.3576 82.7918C17.4491 82.8951 16.6622 84.4217 16.4976 85.2657C16.4976 85.3287 16.4094 86.2205 16.3999 86.4472C16.1161 85.8653 15.8347 85.2833 15.582 84.6989C15.2324 83.911 14.9321 83.0997 14.683 82.2703C14.7378 82.2552 16.2472 81.8949 16.8028 81.444C17.2797 81.051 17.7972 80.4111 17.7924 79.7309C17.7962 79.5709 17.7682 79.4118 17.7101 79.2639C17.652 79.1161 17.5653 78.9828 17.4553 78.8726C17.3454 78.7624 17.2149 78.6778 17.0721 78.6243C16.9293 78.5708 16.7774 78.5496 16.6264 78.5619C15.7203 78.6678 14.9334 80.1944 14.7688 81.0359C14.7545 81.1039 14.6734 82.0612 14.6711 82.235C14.6568 82.1872 14.6377 82.1393 14.6234 82.0914C14.3982 81.2527 14.2442 80.3944 14.1632 79.5268C14.1107 79.0482 14.0892 78.5871 14.0749 78.1387C14.3635 78.1009 15.675 77.917 16.221 77.5694C16.7671 77.2217 17.3179 76.6599 17.3847 75.9822C17.4051 75.8242 17.3939 75.6633 17.3519 75.5101C17.3098 75.3568 17.2378 75.2146 17.1405 75.0926C17.0432 74.9706 16.9228 74.8715 16.787 74.8017C16.6512 74.7319 16.5031 74.6929 16.3522 74.6873C15.4389 74.6873 14.4994 76.1107 14.2466 76.9295C14.2323 76.9748 14.1417 77.4333 14.0797 77.786C14.0797 77.582 14.0797 77.3729 14.0797 77.1789C14.0797 76.4508 14.125 75.7832 14.1679 75.1937C14.1965 74.8561 14.2275 74.5538 14.2585 74.2717C14.5232 74.0802 15.5772 73.2917 15.9015 72.7299C16.2258 72.1681 16.4785 71.3896 16.2401 70.7548C16.1892 70.6041 16.1089 70.4664 16.0043 70.3506C15.8998 70.2348 15.7734 70.1435 15.6333 70.0827C15.4932 70.0219 15.3426 69.9929 15.1912 69.9976C15.0398 70.0022 14.891 70.0405 14.7545 70.1098C13.9438 70.5532 13.7316 72.2764 13.8651 73.133C13.8651 73.206 14.1822 74.3321 14.1965 74.322H14.2132C14.1775 74.5916 14.1417 74.8838 14.1107 75.2038C14.0535 75.7958 13.9962 76.4634 13.9795 77.194C13.9549 77.9821 13.9732 78.7711 14.0344 79.5571C14.0929 80.4327 14.2254 81.3011 14.4302 82.1519C14.4313 82.1619 14.4313 82.1721 14.4302 82.1821C14.2872 81.9428 13.8651 81.2903 13.8269 81.245C13.2952 80.595 11.9026 79.6679 11.0633 80.0433C10.9256 80.1104 10.8029 80.2073 10.703 80.3278C10.6031 80.4482 10.5282 80.5895 10.4833 80.7424C10.4383 80.8954 10.4243 81.0566 10.442 81.2156C10.4598 81.3746 10.509 81.528 10.5864 81.6657C10.9035 82.2577 11.6475 82.5524 12.2484 82.6557ZM21.2953 95.2772C21.7722 95.8113 22.9645 96.4361 23.1123 96.5167C22.9502 96.9399 22.788 97.3506 22.6354 97.7335C22.087 99.0662 21.5838 100.154 21.2214 100.91C21.1475 101.061 21.0831 101.197 21.0211 101.321H20.9543C20.9352 101.175 20.9162 101.014 20.8923 100.832C20.7826 99.9832 20.6086 98.7739 20.3367 97.3329C20.2533 96.8795 20.1531 96.3932 20.0482 95.8969C20.4749 95.716 20.8913 95.5091 21.2953 95.2772Z" fill="#263238"/>
<path d="M27.8931 78.1213C27.9074 78.1213 28.184 76.9952 28.1935 76.9221C28.3056 76.0706 28.0481 74.3525 27.2397 73.9343C27.1015 73.8684 26.9517 73.834 26.8 73.8335C26.6484 73.833 26.4984 73.8662 26.3597 73.9312C26.2211 73.9961 26.097 74.0912 25.9955 74.2102C25.894 74.3293 25.8175 74.4696 25.7708 74.622C25.5491 75.2619 25.8281 76.0454 26.1595 76.5845C26.5363 77.2169 27.8907 78.1213 27.8931 78.1213Z" fill="#263238"/>
<path d="M34.5203 74.9721C34.3702 74.9988 34.2167 74.9938 34.0684 74.9575C33.9202 74.9212 33.7802 74.8543 33.6566 74.7607C33.5329 74.667 33.428 74.5484 33.3479 74.4118C33.2677 74.2751 33.214 74.1231 33.1897 73.9644L31.418 62.8016L33.6928 62.396L35.4645 73.5613C35.4912 73.7196 35.4878 73.8818 35.4547 74.0387C35.4215 74.1956 35.3592 74.3439 35.2714 74.4752C35.1835 74.6064 35.0719 74.7179 34.943 74.8032C34.814 74.8885 34.6704 74.9459 34.5203 74.9721Z" fill="white" stroke="#263238" stroke-width="0.45" stroke-linecap="round" stroke-linejoin="round"/>
<path d="M34.4916 67.4424L32.1309 67.2988L33.1896 73.9723C33.2095 74.1349 33.2603 74.2916 33.3389 74.433C33.4174 74.5744 33.5222 74.6976 33.6469 74.7953C33.7715 74.8929 33.9135 74.963 34.0644 75.0013C34.2153 75.0396 34.372 75.0454 34.525 75.0182C34.6781 74.9911 34.8244 74.9317 34.9552 74.8434C35.086 74.7552 35.1986 74.64 35.2863 74.5047C35.374 74.3695 35.435 74.2169 35.4656 74.0562C35.4962 73.8954 35.4958 73.7298 35.4644 73.5693L34.4916 67.4424Z" fill="#FFD000" stroke="#263238" stroke-width="0.45" stroke-linecap="round" stroke-linejoin="round"/>
<path d="M34.0392 61.9794L30.9609 62.5254L31.3206 64.7888L34.3989 64.2428L34.0392 61.9794Z" fill="white" stroke="#263238" stroke-width="0.45" stroke-linecap="round" stroke-linejoin="round"/>
<path d="M38.4737 87.2838C38.4737 87.2838 30.9791 78.8821 29.6509 77.5821C28.3227 76.2822 27.8983 75.277 27.9459 74.69C27.9936 74.103 29.6604 72.3169 30.5189 72.3925C31.3773 72.468 36.1654 75.6826 37.4078 77.3655C38.36 78.6535 39.0729 80.1203 39.5086 81.6885C39.7852 82.6786 39.7732 82.8398 39.7732 82.8398L41.6928 84.9434L38.4737 87.2838Z" fill="#999999" stroke="#263238" stroke-width="0.45" stroke-linecap="round" stroke-linejoin="round"/>
<path d="M28.294 75.8091C28.294 75.8091 27.593 74.5696 27.9626 73.9272C28.3322 73.2848 32.1689 68.1329 32.808 68.1178C33.447 68.1027 32.6697 69.8812 31.7588 71.3122C30.8479 72.7431 29.8511 74.3353 29.8249 74.5872C29.7987 74.8391 29.7725 75.2573 29.7725 75.2573" fill="#999999"/>
<path d="M28.294 75.8091C28.294 75.8091 27.593 74.5696 27.9626 73.9272C28.3322 73.2848 32.1689 68.1329 32.808 68.1178C33.447 68.1027 32.6697 69.8812 31.7588 71.3122C30.8479 72.7431 29.8511 74.3353 29.8249 74.5872C29.7987 74.8391 29.7725 75.2573 29.7725 75.2573" stroke="#263238" stroke-width="0.45" stroke-linecap="round" stroke-linejoin="round"/>
<path d="M29.7583 76.3C29.7583 76.3 29.7034 74.4156 30.1803 73.5439C30.6572 72.6723 33.6403 68.3669 33.9694 68.0746C34.2984 67.7824 35.195 68.0192 34.5679 69.5232C33.9407 71.0272 32.2334 74.5844 32.2 75.0127C32.1666 75.4409 31.8042 78.0937 31.8042 78.0937" fill="#999999"/>
<path d="M29.7583 76.3C29.7583 76.3 29.7034 74.4156 30.1803 73.5439C30.6572 72.6723 33.6403 68.3669 33.9694 68.0746C34.2984 67.7824 35.195 68.0192 34.5679 69.5232C33.9407 71.0272 32.2334 74.5844 32.2 75.0127C32.1666 75.4409 31.8042 78.0937 31.8042 78.0937" stroke="#263238" stroke-width="0.45" stroke-linecap="round" stroke-linejoin="round"/>
<path d="M31.8516 77.5066C31.8516 77.5066 32.1282 74.6296 32.2855 74.5893C32.4429 74.549 35.147 68.7144 35.147 68.7144C35.147 68.7144 36.077 67.883 35.7956 70.168C35.5142 72.453 34.2361 75.5138 34.2361 75.5138L34.0763 79.4766" fill="#999999"/>
<path d="M31.8516 77.5066C31.8516 77.5066 32.1282 74.6296 32.2855 74.5893C32.4429 74.549 35.147 68.7144 35.147 68.7144C35.147 68.7144 36.077 67.883 35.7956 70.168C35.5142 72.4529 34.2361 75.5138 34.2361 75.5138L34.0763 79.4766" stroke="#263238" stroke-width="0.45" stroke-linecap="round" stroke-linejoin="round"/>
<path d="M34.1411 78.139C34.1411 78.139 34.9375 74.5011 35.1641 74.1988C35.3906 73.8965 36.0368 70.8885 36.4446 70.8709C36.8523 70.8533 37.0455 71.6267 36.6973 72.8284C36.3492 74.03 35.9343 75.3955 35.9343 75.3955L36.1727 78.0508" fill="#999999"/>
<path d="M34.1411 78.139C34.1411 78.139 34.9375 74.5011 35.1641 74.1988C35.3906 73.8965 36.0368 70.8885 36.4446 70.8709C36.8523 70.8533 37.0455 71.6267 36.6973 72.8284C36.3492 74.03 35.9343 75.3955 35.9343 75.3955L36.1727 78.0508" stroke="#263238" stroke-width="0.45" stroke-linecap="round" stroke-linejoin="round"/>
<path d="M56.3506 107.438C58.1151 107.085 64.4437 99.3763 64.4437 99.3763L63.8929 108.315H104.304C103.81 103.984 101.113 66.9182 100.841 66.1523C100.553 65.3386 83.7728 57.8262 83.7728 57.8262L76.1756 58.131C76.1756 58.131 66.6661 64.734 64.1552 66.2581C61.6443 67.7823 60.7906 68.3919 60.7906 69.0016C60.7906 69.6112 55.2489 93.2746 55.2489 93.2746L41.4925 82.9885L36.5732 87.8557L54.5217 107.38C54.5217 107.38 54.586 107.793 56.3506 107.438Z" fill="#FFD000" stroke="#263238" stroke-width="0.45" stroke-linecap="round" stroke-linejoin="round"/>
<path d="M64.4629 95.6782L64.5416 78.3457" stroke="#263238" stroke-width="0.45" stroke-linecap="round" stroke-linejoin="round"/>
<path d="M64.4438 99.3764L64.4558 97.2124" stroke="#263238" stroke-width="0.45" stroke-linecap="round" stroke-linejoin="round"/>
<path d="M64.348 82.6131L62.5215 76.3149" stroke="#263238" stroke-width="0.45" stroke-linecap="round" stroke-linejoin="round"/>
<path d="M55.249 93.2749C55.9784 94.684 56.4027 96.2466 56.4914 97.8499" stroke="#263238" stroke-width="0.45" stroke-linecap="round" stroke-linejoin="round"/>
<path d="M56.4912 98.938C56.4912 98.938 56.4482 99.4771 56.4482 100.565" stroke="#263238" stroke-width="0.45" stroke-linecap="round" stroke-linejoin="round"/>
<path d="M74.2323 61.8196L71.9264 70.637L74.8689 72.6524L71.769 76.6101L75.8228 94.4969L85.8378 76.0232L82.8166 72.3274L87.2685 71.1509L86.2336 60.235C85.2655 57.2648 83.923 56.708 82.4995 57.295C80.9352 57.9298 75.2648 57.8744 74.2323 61.8196Z" fill="#FFD000" stroke="#263238" stroke-width="0.45" stroke-linecap="round" stroke-linejoin="round"/>
<path d="M74.9478 62.9126C74.9478 62.9126 76.6956 75.0982 76.6956 79.6329C76.6956 84.1676 76.6169 85.0921 76.6169 85.0921C76.6169 85.0921 81.3073 72.0751 82.657 65.6939C83.4537 61.7248 83.3721 57.6149 82.4185 53.6846C82.4185 53.6846 78.9228 61.4943 74.9478 62.9126Z" fill="white" stroke="#263238" stroke-width="0.45" stroke-linecap="round" stroke-linejoin="round"/>
<path d="M82.4185 53.6846C82.4185 53.6846 78.9228 61.4943 74.9478 62.9227C74.9478 62.9227 75.0384 63.55 75.1862 64.5678C76.1973 64.4645 78.608 64.1596 80.096 63.5298C81.4313 62.9655 82.3947 58.4913 82.8596 55.7957C82.7511 55.0836 82.6038 54.3787 82.4185 53.6846Z" fill="#263238" stroke="#263238" stroke-width="0.45" stroke-linecap="round" stroke-linejoin="round"/>
<path d="M81.8603 68.8984C79.3017 70.0422 77.1604 69.7096 75.7773 69.1982C76.228 72.8889 76.6954 77.2775 76.6954 79.6229C76.6954 84.1576 76.6167 85.0821 76.6167 85.0821C76.6167 85.0821 80.0194 75.6425 81.8603 68.8984Z" fill="#263238" stroke="#263238" stroke-width="0.45" stroke-linecap="round" stroke-linejoin="round"/>
<path d="M64.8752 47.2731C64.8752 47.2731 62.9676 48.3891 61.7753 44.6934C60.5831 40.9976 64.2815 34.0344 68.1087 32.5606C71.9358 31.0869 76.6238 31.0264 80.1887 34.1629C83.7536 37.2994 83.4889 44.973 83.4889 44.973C83.4889 44.973 86.9227 44.7639 88.9018 49.2255C90.881 53.6871 87.185 57.4559 84.6764 57.3854C82.1679 57.3149 80.8612 54.8661 80.5846 52.7147C80.308 50.5633 75.701 45.1821 73.3904 44.5548C71.0798 43.9275 69.4297 46.1571 67.5817 46.5702C65.7337 46.9834 64.8752 47.2731 64.8752 47.2731Z" fill="#263238"/>
<mask id="mask0_159_13360" style="mask-type:luminance" maskUnits="userSpaceOnUse" x="61" y="31" width="29" height="27">
<path d="M64.8752 47.2731C64.8752 47.2731 62.9676 48.3891 61.7753 44.6934C60.5831 40.9976 64.2815 34.0344 68.1087 32.5606C71.9358 31.0869 76.6238 31.0264 80.1887 34.1629C83.7536 37.2994 83.4889 44.973 83.4889 44.973C83.4889 44.973 86.9227 44.7639 88.9018 49.2255C90.881 53.6871 87.185 57.4559 84.6764 57.3854C82.1679 57.3149 80.8612 54.8661 80.5846 52.7147C80.308 50.5633 75.701 45.1821 73.3904 44.5548C71.0798 43.9275 69.4297 46.1571 67.5817 46.5702C65.7337 46.9834 64.8752 47.2731 64.8752 47.2731Z" fill="white"/>
</mask>
<g mask="url(#mask0_159_13360)">
<path d="M69.8042 38.3174C69.8042 38.3174 72.1887 39.9574 76.531 40.7082C80.8732 41.4589 83.3221 42.5548 84.8101 43.9832" stroke="#616161" stroke-width="0.45" stroke-linecap="round" stroke-linejoin="round"/>
<path d="M70.7744 35.6616C70.7744 35.6616 74.5253 37.7123 78.7936 37.5082C83.0619 37.3042 85.7803 40.7833 85.7803 40.7833" stroke="#616161" stroke-width="0.45" stroke-linecap="round" stroke-linejoin="round"/>
<path d="M72.458 32.9966C74.4883 33.7847 76.6309 34.2013 78.7937 34.2285C80.8404 34.2336 82.8077 35.0655 84.2925 36.5538" stroke="#616161" stroke-width="0.45" stroke-linecap="round" stroke-linejoin="round"/>
<path d="M67.2838 38.874C67.2838 38.874 66.5851 39.4761 64.1839 42.0861C61.7826 44.696 62.5147 46.7996 62.5147 46.7996" stroke="#616161" stroke-width="0.45" stroke-linecap="round" stroke-linejoin="round"/>
<path d="M67.2836 37.3096C67.2836 37.3096 64.954 38.8211 62.753 40.4536C60.5521 42.0861 60.6189 44.2123 60.6189 44.2123" stroke="#616161" stroke-width="0.45" stroke-linecap="round" stroke-linejoin="round"/>
<path d="M68.1871 34.3643C66.7583 34.9173 65.4418 35.7517 64.3074 36.8231C62.302 38.6697 61.2075 39.8991 61.2075 39.8991" stroke="#616161" stroke-width="0.45" stroke-linecap="round" stroke-linejoin="round"/>
<path d="M65.667 33.6137C65.667 33.6137 67.0238 32.5203 68.383 32.1021C69.2491 31.8717 70.1641 31.9679 70.9702 32.3742C70.9702 32.3742 68.1231 36.405 68.3186 39.9597" stroke="#616161" stroke-width="0.45" stroke-linecap="round" stroke-linejoin="round"/>
</g>
<path d="M64.8752 47.2731C64.8752 47.2731 62.9676 48.3891 61.7753 44.6934C60.5831 40.9976 64.2815 34.0344 68.1087 32.5606C71.9358 31.0869 76.6238 31.0264 80.1887 34.1629C83.7536 37.2994 83.4889 44.973 83.4889 44.973C83.4889 44.973 86.9227 44.7639 88.9018 49.2255C90.881 53.6871 87.185 57.4559 84.6764 57.3854C82.1679 57.3149 80.8612 54.8661 80.5846 52.7147C80.308 50.5633 75.701 45.1821 73.3904 44.5548C71.0798 43.9275 69.4297 46.1571 67.5817 46.5702C65.7337 46.9834 64.8752 47.2731 64.8752 47.2731Z" stroke="#263238" stroke-width="0.45" stroke-linecap="round" stroke-linejoin="round"/>
<path d="M64.4126 46.6457C64.4126 46.6457 66.1938 52.5735 67.0523 55.3623C67.9107 58.1511 70.2881 61.9879 72.4652 63.104C74.6423 64.22 78.4718 62.7563 79.0012 62.2676C79.5306 61.7788 82.2346 56.6194 82.6972 55.5034C83.1598 54.3873 82.8284 51.528 82.8284 51.528C82.8284 51.528 84.0826 49.6461 84.0206 47.9028C83.9587 46.1594 83.0287 45.3205 82.5017 45.6707C82.171 45.8936 81.8803 46.1768 81.6433 46.5071C81.6433 46.5071 81.1807 45.6002 79.3994 44.4917C77.6182 43.3832 76.2685 44.6403 73.3642 43.7359C71.7398 43.2465 70.1598 42.6058 68.6428 41.8213C68.6428 41.8213 66.7232 45.6707 64.4126 46.6457Z" fill="white" stroke="#263238" stroke-width="0.45" stroke-linecap="round" stroke-linejoin="round"/>
<path d="M83.4293 47.3034C83.4293 47.3034 83.3625 46.3839 82.7593 46.9507C82.156 47.5175 82.6925 48.4345 82.6925 48.4345C82.6925 48.4345 83.6296 48.2229 83.1694 49.0014" stroke="#263238" stroke-width="0.45" stroke-linecap="round" stroke-linejoin="round"/>
<path d="M67.1714 51.1807V52.4252C67.583 52.5871 68.0252 52.6432 68.4613 52.5889C68.8975 52.5345 69.3152 52.3714 69.6799 52.1128" stroke="#263238" stroke-width="0.45" stroke-linecap="round" stroke-linejoin="round"/>
<path d="M73.8198 49.8828L73.8675 51.3364C74.3765 51.4104 74.8946 51.3698 75.3877 51.2174C75.8808 51.065 76.3379 50.8042 76.729 50.4522" stroke="#263238" stroke-width="0.45" stroke-linecap="round" stroke-linejoin="round"/>
<path d="M66.5825 49.8304C66.5825 49.8304 67.615 49.0519 70.0234 49.7271" stroke="#263238" stroke-width="0.9" stroke-linecap="round" stroke-linejoin="round"/>
<path d="M71.9907 49.2586C71.9907 49.2586 72.9731 48.0644 75.8727 47.7017" stroke="#263238" stroke-width="0.9" stroke-linecap="round" stroke-linejoin="round"/>
<path d="M73.0589 53.619C71.3444 53.2008 71.4756 53.1328 70.2881 54.1783C69.1006 55.2238 66.9879 55.0852 66.9879 55.0852H66.9712C66.9998 55.1759 67.026 55.2666 67.0523 55.3523C67.9107 58.1436 70.2881 61.9779 72.4652 63.0939C74.6422 64.21 78.4718 62.7463 79.0012 62.2575C79.3548 61.8056 79.6677 61.3198 79.9359 60.8064C79.9852 60.6658 80.0258 60.5219 80.0575 60.3757C80.2554 59.3982 80.6513 57.2367 81.4429 55.773C82.2346 54.3093 82.8284 51.5179 82.8284 51.5179C82.8284 51.5179 80.9207 56.8084 80.1219 56.6094C79.3231 56.4103 79.2635 54.7955 79.2635 53.8886C79.2635 52.9816 81.0471 50.8907 81.7076 48.7972C82.3681 46.7037 81.6409 46.4971 81.6409 46.4971C81.245 50.5405 79.3302 52.9136 79.3302 52.9136C76.6238 54.4579 74.7734 54.0397 73.0589 53.619Z" fill="#999999" stroke="#263238" stroke-width="0.45" stroke-linecap="round" stroke-linejoin="round"/>
<path d="M63.6207 49.2257C63.1056 49.1954 65.204 53.2716 65.7977 53.8989C66.3915 54.5262 68.6377 54.8058 69.7585 54.2491C70.8792 53.6923 70.419 51.8079 71.3442 51.7298C72.2694 51.6517 72.7964 53.4026 73.6548 53.7452C74.5132 54.0878 77.4152 53.395 78.9342 52.6997C80.4531 52.0044 80.5175 50.1805 80.5175 50.1805L79.9237 46.3789C79.9237 46.3789 72.7296 49.7849 63.6207 49.2257Z" stroke="#263238" stroke-width="0.45" stroke-linecap="round" stroke-linejoin="round"/>
<path d="M63.6211 49.2256C63.6211 49.2256 71.8716 50.1326 82.3659 45.3208" stroke="#263238" stroke-width="1.35" stroke-linecap="round" stroke-linejoin="round"/>
<path d="M78.0762 47.3438L78.9346 51.3897" stroke="#263238" stroke-width="0.45" stroke-linecap="round" stroke-linejoin="round"/>
<path d="M68.7834 93.4586L65.3091 106.002L65.3687 107.173L66.1532 106.382L69.6943 93.7407C69.7127 93.674 69.718 93.604 69.7096 93.535C69.7013 93.4661 69.6795 93.3997 69.6457 93.3401C69.6118 93.2805 69.5667 93.2289 69.5131 93.1886C69.4595 93.1483 69.3986 93.1201 69.3342 93.1059C69.2173 93.0813 69.0959 93.1039 68.9939 93.1691C68.8919 93.2344 68.8168 93.3377 68.7834 93.4586Z" fill="white" stroke="#263238" stroke-width="0.45" stroke-linecap="round" stroke-linejoin="round"/>
<path d="M81.1543 101.377C81.1543 101.377 75.472 99.8048 74.2058 99.1422C72.9396 98.4797 70.0758 96.7943 69.544 97.6836C69.0123 98.5729 64.5699 103.062 64.8155 103.611C65.0611 104.161 67.7365 106.655 68.3351 106.841C68.9336 107.028 70.0209 107.781 71.3968 107.272C72.7727 106.763 73.376 106.516 73.376 106.516C73.376 106.516 75.8344 107.204 76.5164 107.221C77.1984 107.239 79.3492 106.385 79.3492 106.385L80.9731 106.241L81.1543 101.377Z" fill="#999999" stroke="#263238" stroke-width="0.45" stroke-linecap="round" stroke-linejoin="round"/>
<path d="M65.9004 104.717L70.5264 99.689" stroke="#263238" stroke-width="0.45" stroke-linecap="round" stroke-linejoin="round"/>
<path d="M66.9829 106.004L71.1702 101.596" stroke="#263238" stroke-width="0.45" stroke-linecap="round" stroke-linejoin="round"/>
<path d="M68.8384 107.04L72.234 103.785" stroke="#263238" stroke-width="0.45" stroke-linecap="round" stroke-linejoin="round"/>
<path d="M95.5641 69.9139C95.5641 69.9139 91.4103 75.3051 91.3721 77.2349C91.334 79.1646 94.9012 97.0287 94.9012 97.0287L79.7451 99.8276L80.1624 107.458C80.1624 107.458 104.21 107.305 105.174 107.227C106.137 107.149 108.15 107.499 108.357 106.69C108.565 105.881 101.542 67.4728 101.361 66.9614C101.166 66.5134 100.837 66.1457 100.424 65.9153C100.012 65.6848 99.539 65.6045 99.0789 65.6866" fill="#FFD000"/>
<path d="M95.5641 69.9139C95.5641 69.9139 91.4103 75.3051 91.3721 77.2349C91.334 79.1646 94.9012 97.0287 94.9012 97.0287L79.7451 99.8276L80.1624 107.458C80.1624 107.458 104.21 107.305 105.174 107.227C106.137 107.149 108.15 107.499 108.357 106.69C108.565 105.881 101.542 67.4728 101.361 66.9614C101.166 66.5134 100.837 66.1457 100.424 65.9153C100.012 65.6848 99.539 65.6045 99.0789 65.6866" stroke="#263238" stroke-width="0.45" stroke-linecap="round" stroke-linejoin="round"/>
<path d="M94.9014 97.0287L100.596 96.147" stroke="#263238" stroke-width="0.45" stroke-linecap="round" stroke-linejoin="round"/>
<path d="M95.2876 97.0385L99.4653 95.0029" stroke="#263238" stroke-width="0.45" stroke-linecap="round" stroke-linejoin="round"/>
<path d="M101.519 96.2199C101.519 96.2199 103.228 95.9478 104.084 96.0385" stroke="#263238" stroke-width="0.45" stroke-linecap="round" stroke-linejoin="round"/>
<path d="M90.4993 78.9253H83.6724V89.5389H90.4993V78.9253Z" fill="white" stroke="#263238" stroke-width="0.45" stroke-linecap="round" stroke-linejoin="round"/>
<path d="M87.8191 76.5547H86.355V80.3663H87.8191V76.5547Z" fill="#263238" stroke="#263238" stroke-width="0.45" stroke-linecap="round" stroke-linejoin="round"/>
<path d="M30.2588 95.124H32.567V106.446C32.567 106.606 32.5372 106.764 32.4792 106.912C32.4212 107.06 32.3362 107.195 32.229 107.308C32.1218 107.421 31.9946 107.511 31.8546 107.572C31.7145 107.633 31.5645 107.665 31.4129 107.665C31.1068 107.665 30.8133 107.536 30.5968 107.308C30.3804 107.079 30.2588 106.769 30.2588 106.446V95.124Z" fill="white" stroke="#263238" stroke-width="0.45" stroke-linecap="round" stroke-linejoin="round"/>
<path d="M30.259 99.749V106.445C30.2519 106.61 30.2765 106.774 30.3312 106.929C30.386 107.083 30.4698 107.224 30.5775 107.343C30.6853 107.462 30.8148 107.557 30.9582 107.622C31.1016 107.687 31.256 107.72 31.4119 107.72C31.5679 107.72 31.7223 107.687 31.8657 107.622C32.0091 107.557 32.1386 107.462 32.2463 107.343C32.3541 107.224 32.4379 107.083 32.4926 106.929C32.5474 106.774 32.5719 106.61 32.5649 106.445V99.749H30.259Z" fill="#FFD000" stroke="#263238" stroke-width="0.45" stroke-linecap="round" stroke-linejoin="round"/>
<path d="M32.9724 94.7661H29.8511V97.0586H32.9724V94.7661Z" fill="white" stroke="#263238" stroke-width="0.45" stroke-linecap="round" stroke-linejoin="round"/>
<path d="M35.9056 107.665C35.5995 107.665 35.3059 107.536 35.0895 107.308C34.8731 107.079 34.7515 106.769 34.7515 106.446V95.124H37.0573V106.446C37.0573 106.769 36.936 107.078 36.7201 107.307C36.5042 107.535 36.2113 107.664 35.9056 107.665Z" fill="white" stroke="#263238" stroke-width="0.45" stroke-linecap="round" stroke-linejoin="round"/>
<path d="M34.7439 99.749V106.445C34.7368 106.61 34.7613 106.774 34.8161 106.929C34.8708 107.083 34.9546 107.224 35.0624 107.343C35.1701 107.462 35.2996 107.557 35.443 107.622C35.5865 107.687 35.7408 107.72 35.8968 107.72C36.0528 107.72 36.2071 107.687 36.3505 107.622C36.494 107.557 36.6235 107.462 36.7312 107.343C36.839 107.224 36.9227 107.083 36.9775 106.929C37.0322 106.774 37.0568 106.61 37.0497 106.445V99.749H34.7439Z" fill="#FFD000" stroke="#263238" stroke-width="0.45" stroke-linecap="round" stroke-linejoin="round"/>
<path d="M37.4578 94.7661H34.3364V97.0586H37.4578V94.7661Z" fill="white" stroke="#263238" stroke-width="0.45" stroke-linecap="round" stroke-linejoin="round"/>
<path d="M40.3837 107.665C40.078 107.664 39.785 107.535 39.5691 107.307C39.3532 107.078 39.2319 106.769 39.2319 106.446V95.124H41.5378V106.446C41.5378 106.769 41.4162 107.079 41.1997 107.308C40.9833 107.536 40.6898 107.665 40.3837 107.665Z" fill="white" stroke="#263238" stroke-width="0.45" stroke-linecap="round" stroke-linejoin="round"/>
<path d="M39.2441 99.749V106.445C39.2441 106.768 39.3654 107.078 39.5813 107.307C39.7973 107.535 40.0902 107.664 40.3959 107.665C40.702 107.665 40.9955 107.536 41.212 107.307C41.4284 107.079 41.55 106.769 41.55 106.445V99.749H39.2441Z" fill="#FFD000" stroke="#263238" stroke-width="0.45" stroke-linecap="round" stroke-linejoin="round"/>
<path d="M41.9456 94.7661H38.8242V97.0586H41.9456V94.7661Z" fill="white" stroke="#263238" stroke-width="0.45" stroke-linecap="round" stroke-linejoin="round"/>
<path d="M44.8714 107.665C44.5653 107.665 44.2718 107.536 44.0553 107.308C43.8389 107.079 43.7173 106.769 43.7173 106.446V95.124H46.0231V106.446C46.0231 106.769 45.9019 107.078 45.6859 107.307C45.47 107.535 45.1771 107.664 44.8714 107.665Z" fill="white" stroke="#263238" stroke-width="0.45" stroke-linecap="round" stroke-linejoin="round"/>
<path d="M43.717 99.749V106.445C43.7099 106.61 43.7345 106.774 43.7892 106.929C43.844 107.083 43.9278 107.224 44.0355 107.343C44.1433 107.462 44.2728 107.557 44.4162 107.622C44.5596 107.687 44.714 107.72 44.8699 107.72C45.0259 107.72 45.1803 107.687 45.3237 107.622C45.4671 107.557 45.5966 107.462 45.7044 107.343C45.8121 107.224 45.8959 107.083 45.9506 106.929C46.0054 106.774 46.0299 106.61 46.0229 106.445V99.749H43.717Z" fill="#FFD000" stroke="#263238" stroke-width="0.45" stroke-linecap="round" stroke-linejoin="round"/>
<path d="M46.4309 94.7661H43.3096V97.0586H46.4309V94.7661Z" fill="white" stroke="#263238" stroke-width="0.45" stroke-linecap="round" stroke-linejoin="round"/>
<path d="M48.3813 98.2959H28.2892V99.0164H48.3813V106.539H27.314V108.292H49.7477V107.879V106.539V99.0164V98.2959H48.3813Z" fill="white" stroke="#263238" stroke-width="0.45" stroke-linecap="round" stroke-linejoin="round"/>
<path d="M53.8347 108.292H78.7054V107.362C78.7054 107.362 74.7065 107.466 71.8761 106.858C70.1946 106.518 68.4895 106.324 66.7779 106.279C65.6357 106.234 64.4172 106.43 63.554 107.221C62.698 106.596 61.6774 106.445 60.6616 106.445C58.4177 106.445 55.0031 106.962 52.5661 107.372C51.1466 107.618 49.7122 107.756 48.2739 107.786V108.302L53.8347 108.292Z" fill="#263238" stroke="#263238" stroke-width="0.45" stroke-linecap="round" stroke-linejoin="round"/>
<path d="M97.5118 57.0456L97.1065 56.6299C97.0838 56.6042 97.0599 56.5798 97.0349 56.5568C96.8392 56.3741 96.5876 56.2722 96.3264 56.2701C96.0652 56.2679 95.8121 56.3656 95.6137 56.5451C95.4153 56.7246 95.2851 56.9738 95.2469 57.2468C95.2088 57.5198 95.2654 57.7982 95.4063 58.0306C95.476 58.1388 95.5613 58.2348 95.659 58.3153L96.0191 58.7183L96.1812 58.537C96.2249 58.5395 96.2687 58.5395 96.3124 58.537C96.6001 58.537 96.8761 58.4162 97.0796 58.2012C97.2831 57.9863 97.3974 57.6947 97.3974 57.3907C97.3974 57.3179 97.3902 57.2453 97.3759 57.174L97.5118 57.0456Z" fill="#5E5E5E" stroke="#263238" stroke-width="0.45" stroke-linecap="round" stroke-linejoin="round"/>
<path d="M96.7871 59.0557C97.3863 59.0557 97.8721 58.5425 97.8721 57.9094C97.8721 57.2764 97.3863 56.7632 96.7871 56.7632C96.1879 56.7632 95.7021 57.2764 95.7021 57.9094C95.7021 58.5425 96.1879 59.0557 96.7871 59.0557Z" fill="#263238" stroke="#263238" stroke-width="0.45" stroke-linecap="round" stroke-linejoin="round"/>
<path d="M98.8089 58.0431L98.2653 57.4839L98.1675 57.3856C97.905 57.1388 97.5666 57.001 97.2152 56.9976C96.8638 56.9943 96.5232 57.1257 96.2565 57.3675C95.9898 57.6092 95.8152 57.945 95.7649 58.3124C95.7147 58.6799 95.7923 59.0541 95.9833 59.3657L95.9952 59.3808C96.087 59.5269 96.2015 59.6555 96.3338 59.7613L96.8107 60.3029L97.0277 60.051C97.0862 60.059 97.1451 60.0632 97.2042 60.0636C97.4185 60.0643 97.6303 60.0149 97.8244 59.9189C98.0186 59.8229 98.1902 59.6827 98.3269 59.5083C98.4637 59.334 98.5622 59.1298 98.6155 58.9104C98.6687 58.6911 98.6753 58.462 98.6349 58.2396L98.8089 58.0431Z" fill="#5E5E5E" stroke="#263238" stroke-width="0.45" stroke-linecap="round" stroke-linejoin="round"/>
<path d="M97.8364 60.7385C98.6397 60.7385 99.291 60.0505 99.291 59.2018C99.291 58.3531 98.6397 57.665 97.8364 57.665C97.0331 57.665 96.3818 58.3531 96.3818 59.2018C96.3818 60.0505 97.0331 60.7385 97.8364 60.7385Z" fill="#263238" stroke="#263238" stroke-width="0.45" stroke-linecap="round" stroke-linejoin="round"/>
<path d="M101.735 57.0455L101.329 56.6298C101.308 56.6029 101.284 56.5785 101.258 56.5567C101.102 56.4095 100.909 56.3132 100.703 56.2795C100.496 56.2458 100.285 56.2761 100.094 56.3668C99.9036 56.4574 99.742 56.6046 99.629 56.7903C99.516 56.9761 99.4564 57.1925 99.4575 57.4133C99.4581 57.6321 99.5176 57.8462 99.6292 58.0305C99.6981 58.1394 99.7835 58.2356 99.882 58.3152L100.242 58.7183L100.402 58.5369C100.446 58.5395 100.491 58.5395 100.535 58.5369C100.823 58.5362 101.098 58.4151 101.301 58.2002C101.504 57.9854 101.618 57.6942 101.618 57.3906C101.618 57.3179 101.611 57.2454 101.599 57.174L101.735 57.0455Z" fill="#5E5E5E" stroke="#263238" stroke-width="0.45" stroke-linecap="round" stroke-linejoin="round"/>
<path d="M101.01 59.0557C101.609 59.0557 102.095 58.5425 102.095 57.9094C102.095 57.2764 101.609 56.7632 101.01 56.7632C100.411 56.7632 99.9248 57.2764 99.9248 57.9094C99.9248 58.5425 100.411 59.0557 101.01 59.0557Z" fill="#263238" stroke="#263238" stroke-width="0.45" stroke-linecap="round" stroke-linejoin="round"/>
<path d="M103.032 58.0431L102.488 57.4839L102.393 57.3856C102.131 57.1388 101.792 57.001 101.441 56.9976C101.089 56.9943 100.749 57.1257 100.482 57.3675C100.215 57.6092 100.041 57.945 99.9905 58.3124C99.9403 58.6799 100.018 59.0541 100.209 59.3657L100.221 59.3808C100.313 59.527 100.429 59.6556 100.562 59.7613L101.039 60.3029L101.253 60.051C101.313 60.059 101.372 60.0632 101.432 60.0636C101.646 60.0643 101.858 60.0149 102.052 59.9189C102.247 59.8229 102.418 59.6827 102.555 59.5083C102.692 59.334 102.79 59.1298 102.843 58.9104C102.897 58.6911 102.903 58.462 102.863 58.2396L103.032 58.0431Z" fill="#5E5E5E" stroke="#263238" stroke-width="0.45" stroke-linecap="round" stroke-linejoin="round"/>
<path d="M103.516 59.2018C103.516 59.5057 103.431 59.8028 103.271 60.0556C103.111 60.3083 102.884 60.5052 102.618 60.6216C102.352 60.7379 102.06 60.7683 101.778 60.709C101.496 60.6497 101.236 60.5033 101.033 60.2884C100.83 60.0735 100.691 59.7997 100.635 59.5016C100.579 59.2035 100.608 58.8945 100.718 58.6137C100.828 58.3329 101.014 58.0929 101.253 57.924C101.493 57.7552 101.774 57.665 102.062 57.665C102.447 57.665 102.817 57.8269 103.09 58.1151C103.363 58.4033 103.516 58.7942 103.516 59.2018Z" fill="#263238" stroke="#263238" stroke-width="0.45" stroke-linecap="round" stroke-linejoin="round"/>
<path d="M104.747 59.731C104.67 59.5886 104.572 59.4595 104.458 59.3481L104.423 59.3028C104.15 59.0566 103.803 58.9217 103.445 58.9224H97.5432C97.1435 58.9224 96.7602 59.0901 96.4775 59.3887C96.1949 59.6873 96.0361 60.0923 96.0361 60.5145C96.0365 60.9237 96.1859 61.3171 96.4534 61.6129H96.4343L98.9476 64.5453L107.119 62.4796L104.747 59.731Z" fill="#5E5E5E" stroke="#263238" stroke-width="0.45" stroke-linecap="round" stroke-linejoin="round"/>
<path d="M106.18 65.3513H100.288C99.8881 65.3513 99.5048 65.1836 99.2222 64.885C98.9395 64.5864 98.7808 64.1814 98.7808 63.7592C98.7808 63.3369 98.9395 62.9319 99.2222 62.6333C99.5048 62.3347 99.8881 62.167 100.288 62.167H106.18C106.579 62.169 106.961 62.338 107.242 62.6369C107.523 62.9358 107.68 63.3403 107.68 63.7617C107.679 64.1822 107.521 64.5854 107.24 64.8832C106.959 65.1811 106.578 65.3493 106.18 65.3513Z" fill="#263238" stroke="#263238" stroke-width="0.45" stroke-linecap="round" stroke-linejoin="round"/>
<path d="M108.343 64.137H100.03L100.769 66.1826L100.03 70.5636H108.343C109.13 70.5307 109.874 70.1773 110.419 69.5776C110.965 68.9779 111.27 68.1783 111.27 67.3465C111.27 66.5146 110.965 65.7151 110.419 65.1154C109.874 64.5156 109.13 64.1623 108.343 64.1294V64.137Z" fill="#263238" stroke="#263238" stroke-width="0.45" stroke-linecap="round" stroke-linejoin="round"/>
<path d="M100.03 64.137V70.5636C100.817 70.5307 101.561 70.1773 102.107 69.5776C102.652 68.9779 102.957 68.1783 102.957 67.3465C102.957 66.5146 102.652 65.7151 102.107 65.1154C101.561 64.5156 100.817 64.1623 100.03 64.1294V64.137Z" fill="#5E5E5E" stroke="#263238" stroke-width="0.45" stroke-linecap="round" stroke-linejoin="round"/>
<path d="M103.078 71.3193C103.078 71.3193 100.03 71.7577 97.7195 73.6119C95.4089 75.466 94.9487 77.2723 94.7651 78.2952C94.6478 79.0049 94.5856 79.7236 94.5791 80.4441V97.2274H97.7195V80.041C97.7195 80.041 97.4429 77.7963 98.6447 75.9422C99.8465 74.088 103.078 73.307 103.078 73.307V71.3193Z" fill="#263238" stroke="#263238" stroke-width="0.45" stroke-linecap="round" stroke-linejoin="round"/>
<path d="M100.352 71.3193C100.352 71.3193 97.3041 71.7577 94.9959 73.6119C92.6877 75.466 92.2251 77.2723 92.0391 78.2952C91.9232 79.0051 91.8618 79.7237 91.8555 80.4441V97.2274H94.9959V80.041C94.9959 80.041 94.7193 77.7963 95.9187 75.9422C97.1181 74.088 100.352 73.307 100.352 73.307V71.3193Z" fill="white" stroke="#263238" stroke-width="0.45" stroke-linecap="round" stroke-linejoin="round"/>
<path d="M95.3417 90.8022C95.5443 89.488 94.7001 88.2492 93.4562 88.0351C92.2122 87.8211 91.0396 88.713 90.837 90.0272C90.6344 91.3414 91.4786 92.5802 92.7225 92.7943C93.9665 93.0083 95.1391 92.1164 95.3417 90.8022Z" fill="#263238" stroke="#263238" stroke-width="0.45" stroke-linecap="round" stroke-linejoin="round"/>
<path d="M103.573 79.3584H102.65V79.9932H103.573V79.3584Z" fill="#263238" stroke="#263238" stroke-width="0.45" stroke-linecap="round" stroke-linejoin="round"/>
<path d="M104.198 73.5996H102.028V79.4544H104.198V73.5996Z" fill="#263238" stroke="#263238" stroke-width="0.45" stroke-linecap="round" stroke-linejoin="round"/>
<path d="M109.437 78.5553L108.584 78.9282L108.814 79.5148L109.666 79.1419L109.437 78.5553Z" fill="#263238" stroke="#263238" stroke-width="0.45" stroke-linecap="round" stroke-linejoin="round"/>
<path d="M107.929 72.9859L105.924 73.8628L108.044 79.2723L110.049 78.3953L107.929 72.9859Z" fill="#263238" stroke="#263238" stroke-width="0.45" stroke-linecap="round" stroke-linejoin="round"/>
<path d="M108.805 70.5713H100.03V74.4283H108.805V70.5713Z" fill="#5E5E5E" stroke="#263238" stroke-width="0.45" stroke-linecap="round" stroke-linejoin="round"/>
<path d="M108.805 70.5713H101.94V74.4283H108.805V70.5713Z" fill="#263238" stroke="#263238" stroke-width="0.45" stroke-linecap="round" stroke-linejoin="round"/>
<path d="M107.002 88.9444H106.657V85.7979H105.827V88.9444H105.548V90.922H105.827V96.1167H106.657V90.922H107.002V88.9444Z" fill="#263238" stroke="#263238" stroke-width="0.45" stroke-linecap="round" stroke-linejoin="round"/>
<path d="M113.331 105.851H97.5811V99.4166C97.5811 98.4812 97.9328 97.5841 98.5588 96.9227C99.1849 96.2612 100.034 95.8896 100.919 95.8896H103.914C106.413 95.8896 108.809 96.9383 110.576 98.805C112.343 100.672 113.336 103.203 113.336 105.843L113.331 105.851Z" fill="#263238" stroke="#263238" stroke-width="0.45" stroke-linecap="round" stroke-linejoin="round"/>
<path d="M108.989 105.851H93.251V99.4166C93.251 98.4812 93.6027 97.5841 94.2288 96.9227C94.8548 96.2612 95.7039 95.8896 96.5893 95.8896H99.5724C102.071 95.8896 104.467 96.9383 106.234 98.805C108.001 100.672 108.994 103.203 108.994 105.843L108.989 105.851Z" fill="#5E5E5E" stroke="#263238" stroke-width="0.45" stroke-linecap="round" stroke-linejoin="round"/>
<path d="M105.016 85.4551H98.5518V96.3836H105.016V85.4551Z" fill="#263238" stroke="#263238" stroke-width="0.45" stroke-linecap="round" stroke-linejoin="round"/>
<path d="M105.016 89.0249H98.5518V92.8189H105.016V89.0249Z" fill="#5E5E5E" stroke="#263238" stroke-width="0.45" stroke-linecap="round" stroke-linejoin="round"/>
<path d="M107.188 105.851H91.4385V99.4166C91.4385 98.4812 91.7902 97.5841 92.4163 96.9227C93.0423 96.2612 93.8914 95.8896 94.7768 95.8896H97.7718C100.27 95.8896 102.667 96.9383 104.434 98.805C106.201 100.672 107.193 103.203 107.193 105.843L107.188 105.851Z" fill="#263238" stroke="#263238" stroke-width="0.45" stroke-linecap="round" stroke-linejoin="round"/>
<path d="M88.6464 108.292C88.5863 108.292 88.5284 108.268 88.4842 108.225C88.44 108.182 88.4127 108.123 88.4079 108.06L88.2124 106.143H89.0804L88.8848 108.06C88.88 108.123 88.8528 108.182 88.8086 108.225C88.7644 108.268 88.7065 108.292 88.6464 108.292Z" fill="#263238" stroke="#263238" stroke-width="0.45" stroke-linecap="round" stroke-linejoin="round"/>
<path d="M98.8568 108.292C98.7968 108.292 98.7388 108.268 98.6946 108.225C98.6504 108.182 98.6232 108.123 98.6184 108.06L98.4229 106.143H99.3004L99.1048 108.06C99.0999 108.125 99.0714 108.186 99.0251 108.229C98.9789 108.272 98.9185 108.295 98.8568 108.292Z" fill="#263238" stroke="#263238" stroke-width="0.45" stroke-linecap="round" stroke-linejoin="round"/>
<path d="M102.651 108.292C102.591 108.292 102.533 108.268 102.489 108.225C102.444 108.182 102.417 108.123 102.412 108.06L102.217 106.143H103.094L102.899 108.06C102.894 108.125 102.865 108.186 102.819 108.229C102.773 108.272 102.712 108.295 102.651 108.292Z" fill="#263238" stroke="#263238" stroke-width="0.45" stroke-linecap="round" stroke-linejoin="round"/>
<path d="M112.995 108.292C112.934 108.292 112.877 108.268 112.832 108.225C112.788 108.182 112.761 108.123 112.756 108.06L112.561 106.143H113.438L113.243 108.06C113.238 108.125 113.209 108.186 113.163 108.229C113.117 108.272 113.056 108.295 112.995 108.292Z" fill="#263238" stroke="#263238" stroke-width="0.45" stroke-linecap="round" stroke-linejoin="round"/>
<path d="M102.846 105.851H87.1084V99.4166C87.1084 98.4812 87.4601 97.5841 88.0862 96.9227C88.7122 96.2612 89.5614 95.8896 90.4467 95.8896H93.4417C95.9404 95.8896 98.3368 96.9383 100.104 98.805C101.87 100.672 102.863 103.203 102.863 105.843L102.846 105.851Z" fill="#5E5E5E" stroke="#263238" stroke-width="0.45" stroke-linecap="round" stroke-linejoin="round"/>
<path d="M113.956 105.413H86.7053C86.4379 105.413 86.2212 105.642 86.2212 105.924V105.927C86.2212 106.209 86.4379 106.438 86.7053 106.438H113.956C114.223 106.438 114.44 106.209 114.44 105.927V105.924C114.44 105.642 114.223 105.413 113.956 105.413Z" fill="white" stroke="#263238" stroke-width="0.45" stroke-linecap="round" stroke-linejoin="round"/>
<path d="M114.714 84.3818H94.4409V86.1881H114.714V84.3818Z" fill="white" stroke="#263238" stroke-width="0.45" stroke-linecap="round" stroke-linejoin="round"/>
<path d="M114.716 84.3818H101.408V86.1881H114.716V84.3818Z" fill="#263238" stroke="#263238" stroke-width="0.45" stroke-linecap="round" stroke-linejoin="round"/>
</g>
<defs>
<clipPath id="clip0_159_13360">
<rect width="120" height="120" fill="white" transform="translate(0.5)"/>
</clipPath>
</defs>
</svg>
