<svg width="121" height="120" viewBox="0 0 121 120" fill="none" xmlns="http://www.w3.org/2000/svg">
<g clip-path="url(#clip0_159_13205)">
<path opacity="0.5" d="M120.5 108.857C120.5 108.891 82.7844 108.785 39.7085 108.785C-3.36737 108.785 0.942223 108.891 0.942223 108.857C0.942223 108.823 -3.38359 108.659 39.7085 108.659C82.8007 108.659 120.5 108.82 120.5 108.857Z" fill="#263238"/>
<path d="M100.548 39.7355C100.548 39.7355 83.1564 14.6969 61.4425 12.0471C42.2748 9.69356 24.4828 18.861 22.006 38.6669C21.1234 45.7297 19.5529 53.5322 16.7625 59.9698C13.6324 67.1904 8.29152 73.2018 12.3821 87.0828C16.4726 100.964 33.7476 113.499 46.3048 113.473C58.8619 113.447 70.6576 102.032 80.3897 91.6514C90.1217 81.2704 121.113 71.5081 100.548 39.7355Z" fill="#FFD000"/>
<path opacity="0.7" d="M100.548 39.7355C100.548 39.7355 83.1564 14.6969 61.4425 12.0471C42.2748 9.69356 24.4828 18.861 22.006 38.6669C21.1234 45.7297 19.5529 53.5322 16.7625 59.9698C13.6324 67.1904 8.29152 73.2018 12.3821 87.0828C16.4726 100.964 33.7476 113.499 46.3048 113.473C58.8619 113.447 70.6576 102.032 80.3897 91.6514C90.1217 81.2704 121.113 71.5081 100.548 39.7355Z" fill="white"/>
<g opacity="0.3">
<path d="M30.7974 46.7311H14.5586L14.723 43.5967H30.9618L30.7974 46.7311Z" stroke="black" stroke-width="0.45" stroke-linecap="round" stroke-linejoin="round"/>
<path d="M30.7974 51.1203H14.5586L14.723 47.9858H30.9618L30.7974 51.1203Z" stroke="black" stroke-width="0.45" stroke-linecap="round" stroke-linejoin="round"/>
<path d="M30.7974 55.5094H14.5586L14.723 52.375H30.9618L30.7974 55.5094Z" stroke="black" stroke-width="0.45" stroke-linecap="round" stroke-linejoin="round"/>
<path d="M30.7974 59.8981H14.5586L14.723 56.7637H30.9618L30.7974 59.8981Z" stroke="black" stroke-width="0.45" stroke-linecap="round" stroke-linejoin="round"/>
<path d="M30.7974 64.2894H14.5586L14.723 61.1528H30.9618L30.7974 64.2894Z" stroke="black" stroke-width="0.45" stroke-linecap="round" stroke-linejoin="round"/>
<path d="M30.7974 68.6786H14.5586L14.723 65.542H30.9618L30.7974 68.6786Z" stroke="black" stroke-width="0.45" stroke-linecap="round" stroke-linejoin="round"/>
<path d="M30.7974 73.0677H14.5586L14.723 69.9312H30.9618L30.7974 73.0677Z" stroke="black" stroke-width="0.45" stroke-linecap="round" stroke-linejoin="round"/>
<path d="M30.7974 77.4569H14.5586L14.723 74.3203H30.9618L30.7974 77.4569Z" stroke="black" stroke-width="0.45" stroke-linecap="round" stroke-linejoin="round"/>
<path d="M30.7974 81.8456H14.5586L14.723 78.709H30.9618L30.7974 81.8456Z" stroke="black" stroke-width="0.45" stroke-linecap="round" stroke-linejoin="round"/>
<path d="M30.7974 86.2347H14.5586L14.723 83.0981H30.9618L30.7974 86.2347Z" stroke="black" stroke-width="0.45" stroke-linecap="round" stroke-linejoin="round"/>
<path d="M30.7974 90.6237H14.5586L14.723 87.4893H30.9618L30.7974 90.6237Z" stroke="black" stroke-width="0.45" stroke-linecap="round" stroke-linejoin="round"/>
<path d="M47.9688 46.7311H31.73L31.8944 43.5967H48.1332L47.9688 46.7311Z" stroke="black" stroke-width="0.45" stroke-linecap="round" stroke-linejoin="round"/>
<path d="M47.9688 51.1203H31.73L31.8944 47.9858H48.1332L47.9688 51.1203Z" stroke="black" stroke-width="0.45" stroke-linecap="round" stroke-linejoin="round"/>
<path d="M47.9688 55.5094H31.73L31.8944 52.375H48.1332L47.9688 55.5094Z" stroke="black" stroke-width="0.45" stroke-linecap="round" stroke-linejoin="round"/>
<path d="M47.9688 59.8981H31.73L31.8944 56.7637H48.1332L47.9688 59.8981Z" stroke="black" stroke-width="0.45" stroke-linecap="round" stroke-linejoin="round"/>
<path d="M47.9688 64.2894H31.73L31.8944 61.1528H48.1332L47.9688 64.2894Z" stroke="black" stroke-width="0.45" stroke-linecap="round" stroke-linejoin="round"/>
<path d="M47.9688 68.6786H31.73L31.8944 65.542H48.1332L47.9688 68.6786Z" stroke="black" stroke-width="0.45" stroke-linecap="round" stroke-linejoin="round"/>
<path d="M47.9688 73.0677H31.73L31.8944 69.9312H48.1332L47.9688 73.0677Z" stroke="black" stroke-width="0.45" stroke-linecap="round" stroke-linejoin="round"/>
<path d="M47.9688 77.4569H31.73L31.8944 74.3203H48.1332L47.9688 77.4569Z" stroke="black" stroke-width="0.45" stroke-linecap="round" stroke-linejoin="round"/>
<path d="M47.9688 81.8456H31.73L31.8944 78.709H48.1332L47.9688 81.8456Z" stroke="black" stroke-width="0.45" stroke-linecap="round" stroke-linejoin="round"/>
<path d="M47.9688 86.2347H31.73L31.8944 83.0981H48.1332L47.9688 86.2347Z" stroke="black" stroke-width="0.45" stroke-linecap="round" stroke-linejoin="round"/>
<path d="M47.9688 90.6237H31.73L31.8944 87.4893H48.1332L47.9688 90.6237Z" stroke="black" stroke-width="0.45" stroke-linecap="round" stroke-linejoin="round"/>
</g>
<g opacity="0.3">
<path d="M97.9005 49.9761H76.9395V65.8342H97.9005V49.9761Z" stroke="black" stroke-width="0.45" stroke-linecap="round" stroke-linejoin="round"/>
<path d="M96.7601 51.2871H78.0747V64.5257H96.7601V51.2871Z" stroke="black" stroke-width="0.45" stroke-linecap="round" stroke-linejoin="round"/>
<path d="M84.1685 53.3721H90.6688" stroke="black" stroke-width="0.45" stroke-linecap="round" stroke-linejoin="round"/>
<path d="M79.9595 55.293H94.8788" stroke="black" stroke-width="0.45" stroke-linecap="round" stroke-linejoin="round"/>
<path d="M83.2842 59.1328H91.5539" stroke="black" stroke-width="0.45" stroke-linecap="round" stroke-linejoin="round"/>
<path d="M80.1064 62.9746H83.3577" stroke="black" stroke-width="0.45" stroke-linecap="round" stroke-linejoin="round"/>
<path d="M91.4805 62.9746H94.7295" stroke="black" stroke-width="0.45" stroke-linecap="round" stroke-linejoin="round"/>
</g>
<g opacity="0.3">
<path d="M103.592 69.1782H88.1641V80.8506H103.592V69.1782Z" stroke="black" stroke-width="0.45" stroke-linecap="round" stroke-linejoin="round"/>
<path d="M102.755 70.1431H89.0015V79.8881H102.755V70.1431Z" stroke="black" stroke-width="0.45" stroke-linecap="round" stroke-linejoin="round"/>
<path d="M93.4878 71.6787H98.2705" stroke="black" stroke-width="0.45" stroke-linecap="round" stroke-linejoin="round"/>
<path d="M90.3877 73.0913H101.37" stroke="black" stroke-width="0.45" stroke-linecap="round" stroke-linejoin="round"/>
<path d="M92.834 75.9185H98.9233" stroke="black" stroke-width="0.45" stroke-linecap="round" stroke-linejoin="round"/>
<path d="M90.4961 78.7456H92.8886" stroke="black" stroke-width="0.45" stroke-linecap="round" stroke-linejoin="round"/>
<path d="M98.8677 78.7456H101.26" stroke="black" stroke-width="0.45" stroke-linecap="round" stroke-linejoin="round"/>
</g>
<path d="M85.7201 77.3897L63.3249 76.611C62.402 76.5792 61.479 76.5792 60.5561 76.611L39.6924 77.3897L40.6182 48.0962C40.6528 46.9872 40.6528 45.8768 40.6182 44.7649L39.6924 17.124H85.7201V77.3897Z" fill="#263238" stroke="#263238" stroke-width="0.45" stroke-linecap="round" stroke-linejoin="round"/>
<path d="M86.4599 16.0898H40.4321V76.3555H86.4599V16.0898Z" fill="white" stroke="#263238" stroke-width="0.45" stroke-linecap="round" stroke-linejoin="round"/>
<path d="M83.3989 32.5146H43.4907V72.9139H83.3989V32.5146Z" fill="white" stroke="#263238" stroke-width="0.45" stroke-linecap="round" stroke-linejoin="round"/>
<path d="M43.8652 26.4776V19.0904H46.0284C46.4045 19.0739 46.7782 19.1591 47.11 19.337C47.3872 19.5019 47.6024 19.7535 47.7222 20.053C47.861 20.4151 47.9272 20.801 47.9168 21.1887C47.9341 21.5905 47.8493 21.9901 47.6702 22.3503C47.519 22.6367 47.2771 22.8649 46.9824 22.9992C46.6525 23.1405 46.2962 23.2091 45.9375 23.2004H45.2086V26.4776H43.8652ZM45.215 22.2465H45.7256C45.9215 22.2554 46.1169 22.2191 46.2966 22.1405C46.3642 22.1066 46.424 22.0591 46.4724 22.0011C46.5208 21.943 46.5567 21.8756 46.5778 21.803C46.6362 21.5999 46.6624 21.389 46.6557 21.1779C46.6602 20.96 46.6406 20.7424 46.5973 20.5289C46.5822 20.4531 46.5518 20.3812 46.5079 20.3176C46.464 20.254 46.4076 20.2 46.3421 20.159C46.1501 20.0673 45.9378 20.0263 45.7256 20.04H45.215V22.2465Z" fill="#FFD000"/>
<path d="M45.5068 30.0399L46.9929 26.1202L45.5523 22.6592H46.8112L47.7673 24.9478L48.6066 22.6592H49.7748L48.3449 26.3755L49.8764 30.0399H48.6261L47.577 27.5587L46.6641 30.0377L45.5068 30.0399Z" fill="#FFD000"/>
<path d="M66.2065 21.3682H83.2674" stroke="#263238" stroke-width="0.45" stroke-linecap="round" stroke-linejoin="round"/>
<path d="M66.2065 25.0498H83.2674" stroke="#263238" stroke-width="0.45" stroke-linecap="round" stroke-linejoin="round"/>
<path d="M69.8901 23.4556H83.2671" stroke="#263238" stroke-width="0.45" stroke-linecap="round" stroke-linejoin="round"/>
<path d="M69.8901 26.7695H83.2671" stroke="#263238" stroke-width="0.45" stroke-linecap="round" stroke-linejoin="round"/>
<path d="M44.8496 36.9556H58.2288" stroke="#263238" stroke-width="0.45" stroke-linecap="round" stroke-linejoin="round"/>
<path d="M44.8496 40.4492H58.2288" stroke="#263238" stroke-width="0.45" stroke-linecap="round" stroke-linejoin="round"/>
<path d="M44.8496 38.7617H65.1033" stroke="#263238" stroke-width="0.45" stroke-linecap="round" stroke-linejoin="round"/>
<path d="M44.8496 44.7065H58.2288" stroke="#263238" stroke-width="0.45" stroke-linecap="round" stroke-linejoin="round"/>
<path d="M44.8496 48.1997H58.2288" stroke="#263238" stroke-width="0.45" stroke-linecap="round" stroke-linejoin="round"/>
<path d="M44.8496 46.5127H65.1033" stroke="#263238" stroke-width="0.45" stroke-linecap="round" stroke-linejoin="round"/>
<path d="M44.564 70.7354H57.2466" stroke="#263238" stroke-width="0.45" stroke-linecap="round" stroke-linejoin="round"/>
<path d="M68.6138 70.7354H81.2964" stroke="#263238" stroke-width="0.45" stroke-linecap="round" stroke-linejoin="round"/>
<path d="M46.3527 56.8113C45.5943 57.2925 44.9956 57.9877 44.6322 58.809C44.2687 59.6303 44.1569 60.541 44.3109 61.4258C44.4649 62.3107 44.8777 63.13 45.4971 63.7803C46.1166 64.4307 46.915 64.8827 47.7913 65.0795C48.6676 65.2762 49.5826 65.2087 50.4206 64.8856C51.2586 64.5625 51.9821 63.9982 52.4995 63.264C53.0168 62.5299 53.305 61.6588 53.3275 60.761C53.35 59.8631 53.1059 58.9787 52.6259 58.2196C52.3068 57.7148 51.8913 57.278 51.4032 56.934C50.9151 56.59 50.3639 56.3456 49.7813 56.2148C49.1986 56.084 48.5959 56.0694 48.0076 56.1717C47.4193 56.2741 46.8569 56.4914 46.3527 56.8113ZM50.7115 63.6837C50.112 64.0636 49.4133 64.2571 48.7039 64.2399C47.9944 64.2228 47.3059 63.9956 46.7255 63.5872C46.1451 63.1787 45.6988 62.6074 45.4431 61.9454C45.1874 61.2833 45.1337 60.5604 45.2888 59.8678C45.444 59.1753 45.801 58.5443 46.3147 58.0546C46.8284 57.565 47.4758 57.2386 48.175 57.1168C48.8741 56.9951 49.5937 57.0833 50.2427 57.3705C50.8917 57.6576 51.441 58.1308 51.8212 58.7301C52.0737 59.1282 52.2453 59.5721 52.3262 60.0365C52.4071 60.501 52.3957 60.9768 52.2926 61.4368C52.1896 61.8968 51.9969 62.332 51.7256 62.7176C51.4543 63.1031 51.1097 63.4314 50.7115 63.6837Z" fill="#FFD000"/>
<path d="M50.4761 59.1734L46.6079 61.6245L47.0027 62.2476L50.871 59.7965L50.4761 59.1734Z" fill="#FFD000"/>
<path d="M46.5947 69.3081C46.5947 69.3081 46.6575 70.7488 48.5416 68.179C50.4257 65.6091 50.1726 65.7995 49.6707 67.2402C49.2862 68.2375 48.7775 69.1823 48.1565 70.0523C48.1565 70.0523 50.4149 66.4787 50.4149 67.4803C50.4149 68.4818 48.282 72.7476 48.7211 72.3712C49.1602 71.9948 50.5403 70.115 50.5403 70.115C50.5403 70.115 50.3521 71.3675 50.8518 70.8029C51.3515 70.2383 51.9183 69.1113 51.8555 69.7386C51.7928 70.3659 50.9773 71.1165 51.7928 70.3659C52.6083 69.6153 53.2356 68.6722 53.0474 69.3622C52.8592 70.0523 52.3574 70.3032 52.8592 70.0523C53.3611 69.8013 56.1819 65.0986 55.3036 65.6632C54.4254 66.2278 52.7965 71.1165 53.5493 70.7402C54.3021 70.3638 55.1781 68.484 55.1154 69.425C55.0527 70.3659 55.3036 70.3659 55.548 70.0523" stroke="#263238" stroke-width="0.45" stroke-linecap="round" stroke-linejoin="round"/>
<path d="M108.5 111.016H9.74316" stroke="#263238" stroke-width="0.45" stroke-linecap="round" stroke-linejoin="round"/>
<path d="M103.09 86.1377H82.1506C81.8202 86.1374 81.5008 86.2562 81.2509 86.4724C81.0009 86.6885 80.8373 86.9875 80.79 87.3145L77.6577 108.73H102.558L104.459 87.6303C104.476 87.4405 104.453 87.2494 104.391 87.069C104.33 86.8887 104.232 86.7231 104.103 86.5827C103.974 86.4424 103.818 86.3303 103.643 86.2537C103.469 86.1771 103.28 86.1376 103.09 86.1377Z" fill="#263238" stroke="#263238" stroke-width="0.45" stroke-linecap="round" stroke-linejoin="round"/>
<path d="M74.7353 82.6418C74.7353 82.6418 69.07 85.4539 67.1253 86.2304C65.1806 87.007 64.7026 87.3553 64.5295 87.8312C64.3565 88.3071 56.7897 100.198 55.9266 101.28C55.0635 102.361 53.201 104.695 53.4606 106.294C53.7202 107.892 55.7968 109.279 57.7869 109.236C59.777 109.192 61.0317 108.803 61.248 108.241C61.4643 107.678 66.9566 97.8574 66.9566 97.8574L68.6871 108.797H90.7838C90.7838 108.797 92.5143 93.8361 92.5143 91.6297C92.5143 89.4233 92.947 86.8296 92.0384 86.2672C91.1299 85.7048 87.3682 84.4091 84.5993 83.5005C81.8305 82.592 80.9674 82.4189 80.3206 82.4189C79.6738 82.4189 74.7353 82.6418 74.7353 82.6418Z" fill="white" stroke="#263238" stroke-width="0.45" stroke-linecap="round" stroke-linejoin="round"/>
<path d="M74.1362 82.7199C74.1362 82.7199 73.4007 84.1043 73.3574 85.2292C73.3142 86.354 73.1411 88.4285 72.4922 89.6831C71.8432 90.9377 71.3673 91.63 71.7134 91.498C72.0595 91.366 74.0475 89.164 74.2638 88.6859C74.4801 88.2078 74.8262 89.1185 74.8262 89.1185C74.8262 89.1185 74.1773 90.9767 74.0907 91.2363C74.0042 91.4958 76.8142 95.0845 76.8142 95.0845C76.8142 95.0845 79.2369 93.1831 79.7993 92.7505C80.3617 92.3178 80.1887 91.9717 80.232 91.4093C80.2752 90.8469 80.4483 90.0271 80.7489 89.5512C81.0496 89.0753 81.9192 90.9399 82.5227 91.8052C83.1263 92.6704 83.7341 92.9733 83.6476 92.3243C83.5611 91.6754 83.2582 90.4207 83.0419 88.2143C82.8256 86.0079 82.8688 83.371 82.3064 82.549C81.744 81.727 78.7935 81.5648 76.8574 81.4263C76.3284 81.3673 75.7934 81.4571 75.3126 81.6857C74.8319 81.9142 74.4244 82.2724 74.1362 82.7199Z" fill="white" stroke="#263238" stroke-width="0.45" stroke-linecap="round" stroke-linejoin="round"/>
<path d="M65.401 90.0854L66.9585 97.8642L64.9468 92.6921" stroke="#263238" stroke-width="0.45" stroke-linecap="round" stroke-linejoin="round"/>
<path d="M74.3525 84.8052C74.3525 84.8052 74.9582 88.1776 75.5206 90.7712C75.8299 92.2475 76.2641 93.6948 76.8185 95.0975C76.8185 95.0975 79.6739 90.2975 80.4959 87.7904C80.9628 86.4071 81.3243 84.9905 81.5775 83.5527H74.3525V84.8052Z" stroke="#263238" stroke-width="0.45" stroke-linecap="round" stroke-linejoin="round"/>
<path d="M77.5084 85.9644L75.9531 87.9112L77.0347 89.9878L75.9704 92.5642C76.2051 93.421 76.4882 94.2638 76.8184 95.0886C76.8184 95.0886 77.7096 93.5917 78.6376 91.8438L77.8567 90.0419L78.8085 87.8788L77.5084 85.9644Z" fill="#FFD000" stroke="#263238" stroke-width="0.45" stroke-linecap="round" stroke-linejoin="round"/>
<path d="M74.3525 83.5503V84.8049C74.3525 84.8049 74.77 87.1325 75.2329 89.406L77.4221 87.0957L79.7302 89.6526C80.0189 89.0456 80.2738 88.4231 80.4937 87.7879C80.9606 86.4047 81.3222 84.9881 81.5753 83.5503H74.3525Z" fill="white" stroke="#263238" stroke-width="0.45" stroke-linecap="round" stroke-linejoin="round"/>
<path d="M55.5 102.56C55.5 102.56 59.5386 101.085 61.7169 104.674" stroke="#263238" stroke-width="0.45" stroke-linecap="round" stroke-linejoin="round"/>
<path d="M61.7887 103.566C61.7887 103.566 59.5325 104.076 58.3277 105.999C57.1228 107.923 59.5736 108.137 60.2507 108.137C60.9278 108.137 61.5681 107.682 61.6048 107.447C61.6416 107.211 62.5285 104.931 62.4939 104.399C62.4899 104.2 62.4176 104.009 62.2892 103.857C62.1607 103.705 61.984 103.603 61.7887 103.566Z" fill="white" stroke="#263238" stroke-width="0.45" stroke-linecap="round" stroke-linejoin="round"/>
<path d="M60.7504 104.362C60.7504 104.362 59.5022 105.444 59.5866 105.877C59.671 106.309 61.5226 107.975 61.8796 107.735C61.944 107.702 62.0013 107.657 62.0482 107.602C62.0951 107.547 62.1307 107.483 62.153 107.415C62.1753 107.346 62.1839 107.273 62.1782 107.201C62.1724 107.129 62.1526 107.059 62.1197 106.995C62.018 106.833 60.7504 104.362 60.7504 104.362Z" fill="white" stroke="#263238" stroke-width="0.45" stroke-linecap="round" stroke-linejoin="round"/>
<path d="M59.5928 105.866C59.5928 105.866 58.8595 106.647 59.0996 107.004C59.3397 107.36 61.0161 108.271 61.4509 107.996C61.8857 107.722 61.6045 107.441 61.6045 107.441L59.5928 105.866Z" fill="white" stroke="#263238" stroke-width="0.45" stroke-linecap="round" stroke-linejoin="round"/>
<path d="M63.8889 104.321L62.3877 104.062L62.7403 106.223L64.274 106.27L63.8889 104.321Z" fill="white" stroke="#263238" stroke-width="0.45" stroke-linecap="round" stroke-linejoin="round"/>
<path d="M61.1876 100.923L62.9463 107.085L63.8007 107.862V106.765L61.9404 100.708C61.9252 100.658 61.9 100.611 61.8663 100.571C61.8325 100.53 61.7909 100.497 61.744 100.473C61.6971 100.45 61.6459 100.436 61.5934 100.432C61.5409 100.429 61.4882 100.436 61.4385 100.453C61.3453 100.485 61.2676 100.552 61.221 100.639C61.1745 100.726 61.1626 100.827 61.1876 100.923Z" fill="#263238" stroke="#263238" stroke-width="0.45" stroke-linecap="round" stroke-linejoin="round"/>
<path d="M61.7885 103.566C61.7885 103.566 60.7501 104.174 60.854 104.635C60.9578 105.095 62.0783 107.25 62.4828 107.278C62.8874 107.306 63.1318 107.062 63.0734 106.594C63.015 106.127 62.6408 104.431 62.3877 104.061C62.1346 103.691 62.1065 103.544 61.7885 103.566Z" fill="white" stroke="#263238" stroke-width="0.45" stroke-linecap="round" stroke-linejoin="round"/>
<path d="M63.889 104.321C63.889 104.321 64.9943 104.459 65.1869 104.797C65.3794 105.134 64.6071 106.48 64.3605 106.787C64.1139 107.094 63.6726 107.081 63.6597 106.302C63.6804 105.637 63.7571 104.974 63.889 104.321Z" fill="white" stroke="#263238" stroke-width="0.45" stroke-linecap="round" stroke-linejoin="round"/>
<path d="M57.9103 106.923H70.0392C70.378 106.924 70.7029 107.059 70.9425 107.298C71.1821 107.538 71.317 107.863 71.3176 108.202C71.3176 108.489 71.2036 108.764 71.0008 108.967C70.798 109.169 70.5229 109.283 70.236 109.283H58.079C57.8151 109.283 57.562 109.179 57.3754 108.992C57.1888 108.805 57.084 108.552 57.084 108.288V107.748C57.084 107.639 57.1054 107.532 57.1469 107.432C57.1885 107.331 57.2494 107.241 57.3261 107.164C57.4029 107.087 57.494 107.027 57.5943 106.985C57.6945 106.944 57.8019 106.923 57.9103 106.923Z" fill="white" stroke="#263238" stroke-width="0.45" stroke-linecap="round" stroke-linejoin="round"/>
<path d="M79.4938 104.135C79.4938 104.135 76.3378 103.789 75.5591 103.529C74.7803 103.27 73.5257 103.054 73.0931 103.4C72.6604 103.746 70.5427 106.212 70.4973 106.512C70.4518 106.813 70.0214 107.81 70.2377 108.07C70.419 108.251 70.6418 108.384 70.8866 108.459C70.8866 108.459 73.6987 109.238 73.9994 109.281C74.3001 109.325 77.1987 109.195 77.1987 109.195L78.7129 108.632L80.8307 108.589C80.8307 108.589 80.8739 109.281 80.9172 107.594C80.9605 105.907 79.4938 104.135 79.4938 104.135Z" fill="white" stroke="#263238" stroke-width="0.45" stroke-linecap="round" stroke-linejoin="round"/>
<path d="M70.8936 108.461C70.8936 108.461 70.9368 107.466 71.1531 107.033C71.3695 106.601 73.8333 104.396 73.8333 104.396" stroke="#263238" stroke-width="0.45" stroke-linecap="round" stroke-linejoin="round"/>
<path d="M71.7065 108.717C71.7065 108.717 72.1392 107.635 72.3122 107.548C72.4853 107.462 74.5165 106.164 74.5165 106.164" stroke="#263238" stroke-width="0.45" stroke-linecap="round" stroke-linejoin="round"/>
<path d="M73.1841 109.019C73.1841 109.019 73.2706 108.587 73.4869 108.5C73.7032 108.414 75.5203 107.592 75.5203 107.592" stroke="#263238" stroke-width="0.45" stroke-linecap="round" stroke-linejoin="round"/>
<path d="M75.1312 109.236L75.9533 109.019L75.8667 108.63L75.0015 108.846" stroke="#263238" stroke-width="0.45" stroke-linecap="round" stroke-linejoin="round"/>
<path d="M89.3993 90.2084C89.3993 90.2084 87.1085 95.0085 87.2361 96.6979C87.3637 98.3874 87.9305 101.193 87.9305 101.193C87.9305 101.193 84.2985 102.618 83.0439 103.14C81.7893 103.661 79.4941 104.135 79.4941 104.135L80.6601 108.719L80.4892 109.195H93.0701C93.0701 109.195 94.0219 109.021 94.195 108.805C94.368 108.589 94.5411 108.502 94.6276 107.81C94.7141 107.118 95.2766 101.065 95.1468 99.3738C95.017 97.6822 93.2432 88.9105 93.0269 88.002C92.8106 87.0935 92.4234 86.4878 92.034 86.2715C91.6446 86.0552 89.9573 85.8843 89.9573 85.8843" fill="white"/>
<path d="M89.3993 90.2084C89.3993 90.2084 87.1085 95.0085 87.2361 96.6979C87.3637 98.3874 87.9305 101.193 87.9305 101.193C87.9305 101.193 84.2985 102.618 83.0439 103.14C81.7893 103.661 79.4941 104.135 79.4941 104.135L80.6601 108.719L80.4892 109.195H93.0701C93.0701 109.195 94.0219 109.021 94.195 108.805C94.368 108.589 94.5411 108.502 94.6276 107.81C94.7141 107.118 95.2766 101.065 95.1468 99.3738C95.017 97.6822 93.2432 88.9105 93.0269 88.002C92.8106 87.0935 92.4234 86.4878 92.034 86.2715C91.6446 86.0552 89.9574 85.8843 89.9574 85.8843" stroke="#263238" stroke-width="0.45" stroke-linecap="round" stroke-linejoin="round"/>
<path d="M88.2334 101.28C88.2334 101.28 91.5625 101.453 93.2087 102.489" stroke="#263238" stroke-width="0.45" stroke-linecap="round" stroke-linejoin="round"/>
<path d="M88.8369 100.847C88.8369 100.847 91.1731 100.717 92.4278 101.107" stroke="#263238" stroke-width="0.45" stroke-linecap="round" stroke-linejoin="round"/>
<path d="M88.1903 90.0747C88.1903 90.0747 87.0222 92.8003 86.9789 93.8386C86.9356 94.8769 86.8491 95.4826 86.8491 95.4826" stroke="#263238" stroke-width="0.45" stroke-linecap="round" stroke-linejoin="round"/>
<path d="M82.8711 82.8584C82.8711 82.8584 85.508 86.6136 83.3881 97.0855" stroke="#263238" stroke-width="0.9" stroke-linecap="round" stroke-linejoin="round"/>
<path d="M84.6422 97.3882C84.6422 97.1315 84.5661 96.8806 84.4234 96.6672C84.2808 96.4537 84.0781 96.2874 83.841 96.1891C83.6038 96.0909 83.3428 96.0652 83.0911 96.1153C82.8393 96.1654 82.6081 96.289 82.4265 96.4705C82.245 96.652 82.1214 96.8833 82.0713 97.135C82.0212 97.3868 82.0469 97.6478 82.1452 97.8849C82.2434 98.1221 82.4098 98.3248 82.6232 98.4674C82.8367 98.61 83.0876 98.6861 83.3443 98.6861C83.6885 98.6861 84.0186 98.5494 84.262 98.306C84.5054 98.0626 84.6422 97.7325 84.6422 97.3882Z" fill="white" stroke="#263238" stroke-width="0.45" stroke-linecap="round" stroke-linejoin="round"/>
<path d="M73.8698 83.2476C73.8698 83.2476 72.5308 84.1128 72.3145 87.615" stroke="#263238" stroke-width="0.9" stroke-linecap="round" stroke-linejoin="round"/>
<path d="M74.1746 92.9214C73.848 95.2836 73.4024 97.8209 73.3094 98.3769C73.093 99.5666 71.6805 99.9819 70.772 99.5926" stroke="#263238" stroke-width="0.9" stroke-linecap="round" stroke-linejoin="round"/>
<path d="M70.7876 93.0767C70.4913 91.7529 70.3096 90.6042 70.3745 90.0786C70.6773 87.658 72.3213 87.6147 72.3213 87.6147C72.3213 87.6147 74.2681 87.8743 74.3958 89.951C74.4092 90.9453 74.3368 91.939 74.1795 92.921" stroke="#263238" stroke-width="0.9" stroke-linecap="round" stroke-linejoin="round"/>
<path d="M74.439 99.4195C74.439 99.4195 73.5305 99.9387 72.9248 99.5926C72.516 99.359 71.4106 95.8373 70.7876 93.0771" stroke="#263238" stroke-width="0.9" stroke-linecap="round" stroke-linejoin="round"/>
<path d="M74.7554 98.9507L74.3978 99.1048C74.2256 99.1791 74.1461 99.3789 74.2204 99.5511L74.2247 99.5611C74.2989 99.7333 74.4987 99.8127 74.671 99.7385L75.0285 99.5844C75.2008 99.5101 75.2802 99.3103 75.206 99.138L75.2017 99.1281C75.1274 98.9559 74.9276 98.8764 74.7554 98.9507Z" stroke="#263238" stroke-width="0.45" stroke-linecap="round" stroke-linejoin="round"/>
<path d="M70.8847 99.1849L70.5509 98.9844C70.3901 98.8879 70.1815 98.9399 70.0849 99.1007L70.0793 99.11C69.9828 99.2708 70.0348 99.4794 70.1956 99.576L70.5294 99.7765C70.6902 99.873 70.8988 99.821 70.9954 99.6602L71.001 99.6509C71.0975 99.4901 71.0455 99.2815 70.8847 99.1849Z" stroke="#263238" stroke-width="0.45" stroke-linecap="round" stroke-linejoin="round"/>
<path d="M72.3208 72.784C72.3208 72.784 71.6286 74.4259 71.7584 75.4642C71.8882 76.5025 73.2726 77.6274 73.2726 77.6274C73.2726 77.6274 73.7485 73.0004 73.7485 72.8273C73.7485 72.6542 72.8811 72.2649 72.3208 72.784Z" fill="#263238" stroke="#263238" stroke-width="0.45" stroke-linecap="round" stroke-linejoin="round"/>
<path d="M71.8237 78.6659L72.7431 78.0234" stroke="#263238" stroke-width="0.9" stroke-linecap="round" stroke-linejoin="round"/>
<path d="M72.8383 73.0873C72.8383 73.0873 72.6652 77.671 72.7518 78.5341C72.8383 79.3972 73.1844 82.1661 73.4872 83.0313C73.7901 83.8966 74.7851 86.6633 75.5639 86.9661C76.3426 87.269 77.8979 87.4853 78.4171 87.1392C78.9362 86.7931 80.8377 85.4974 81.3568 84.2427C81.6646 83.5111 81.8685 82.7401 81.9625 81.9519C82.3942 81.7216 82.767 81.395 83.0521 80.9973C83.3372 80.5997 83.5269 80.1417 83.6065 79.659C83.8661 78.015 83.1739 77.5412 83.1739 77.5412L83.2171 74.6859C83.2171 74.6859 82.7412 72.6979 81.4866 71.6163C80.232 70.5348 78.7632 70.4482 77.249 71.2702C75.7348 72.0922 72.8383 73.0873 72.8383 73.0873Z" fill="white" stroke="#263238" stroke-width="0.45" stroke-linecap="round" stroke-linejoin="round"/>
<path d="M80.9672 72.8276C80.9672 72.8276 81.0105 71.7027 79.931 72.0921C78.8516 72.4815 78.5899 73.2169 76.9891 73.8659C75.3884 74.5148 73.2707 73.7794 72.5374 73.3467C71.804 72.9141 71.2827 72.3084 72.2778 71.1836C73.2728 70.0587 75.6069 68.936 78.1183 68.936C80.6297 68.936 82.5723 71.0105 83.3943 71.8758C84.2163 72.741 84.3461 73.8226 84.0432 74.5992C83.7404 75.3758 83.178 77.5411 83.178 77.5411C83.178 77.5411 82.8318 77.4978 82.7021 78.0148C82.5723 78.5318 82.6155 79.0964 82.0531 79.1397C81.4907 79.1829 81.5339 77.6709 81.5339 77.6709C81.5339 77.6709 80.1517 77.2382 79.9786 76.2432C79.8056 75.2481 80.9672 73.7794 80.9672 72.8276Z" fill="#263238" stroke="#263238" stroke-width="0.45" stroke-linecap="round" stroke-linejoin="round"/>
<path d="M75.8166 79.3712L71.8169 78.666L72.0483 80.4593C72.0626 80.5708 72.1124 80.6747 72.1903 80.7558C72.2682 80.8368 72.3701 80.8906 72.481 80.9092L74.9124 81.2921C75.0461 81.3137 75.1829 81.2824 75.2939 81.2049C75.4049 81.1274 75.4814 81.0097 75.5072 80.8768L75.8166 79.3712Z" stroke="#263238" stroke-width="0.9" stroke-linecap="round" stroke-linejoin="round"/>
<path d="M76.5459 79.4471L81.1837 79.313L80.7295 80.9916C80.6903 81.1046 80.6157 81.202 80.5166 81.269C80.4176 81.3361 80.2995 81.3693 80.18 81.3637L77.3679 81.4026C77.2221 81.4127 77.0776 81.3699 76.9608 81.2821C76.844 81.1943 76.7628 81.0674 76.7319 80.9245L76.5459 79.4471Z" stroke="#263238" stroke-width="0.9" stroke-linecap="round" stroke-linejoin="round"/>
<path d="M75.8232 79.3711L76.5457 79.4468" stroke="#263238" stroke-width="0.9" stroke-linecap="round" stroke-linejoin="round"/>
<path d="M81.1836 79.3125L82.6978 78.0146" stroke="#263238" stroke-width="0.9" stroke-linecap="round" stroke-linejoin="round"/>
<path d="M77.1621 78.9233C77.1621 78.9233 78.46 77.9304 79.6714 78.534" stroke="#263238" stroke-width="0.9" stroke-linecap="round" stroke-linejoin="round"/>
<path d="M75.2176 78.7068C75.2176 78.7068 74.2225 77.6253 73.0977 78.3607" stroke="#263238" stroke-width="0.9" stroke-linecap="round" stroke-linejoin="round"/>
<path d="M75.4775 82.4688C75.4775 82.4688 75.2612 83.3773 75.4775 83.5503C75.8457 83.7536 76.2708 83.8296 76.6867 83.7666" stroke="#263238" stroke-width="0.45" stroke-linecap="round" stroke-linejoin="round"/>
<path d="M74.8281 84.2339C74.8281 84.2339 75.6934 84.8828 76.5154 84.9261C77.3374 84.9694 78.287 84.3637 78.287 84.3637" stroke="#263238" stroke-width="0.45" stroke-linecap="round" stroke-linejoin="round"/>
<path d="M78.0278 79.8318C78.0278 79.8318 78.547 80.4375 79.4123 79.7886" stroke="#263238" stroke-width="0.45" stroke-linecap="round" stroke-linejoin="round"/>
<path d="M73.7681 79.5659C73.7681 79.5659 74.2007 80.2365 75.1438 79.7108" stroke="#263238" stroke-width="0.45" stroke-linecap="round" stroke-linejoin="round"/>
<path d="M46.9384 72.8231C46.9384 72.8231 47.2131 76.9439 47.0055 77.2879L46.3976 78.3175C46.3976 78.3175 46.6723 81.2724 46.1229 81.6142C45.6972 81.8422 45.2301 81.9827 44.7493 82.0274C44.7493 82.0274 44.1999 84.2251 43.9922 84.4999C43.7845 84.7746 42.5494 85.668 42.1384 85.7978C41.7274 85.9275 40.4208 86.0141 37.3296 84.1494C34.2385 82.2848 33.0704 81.6769 33.1396 80.6473C33.2088 79.6176 33.3559 78.4495 33.3559 78.4495C33.3559 78.4495 33.6999 73.5023 34.3185 71.9925C34.9372 70.4826 42.7678 69.6562 44.4854 70.0694C46.2029 70.4826 46.9384 72.8231 46.9384 72.8231Z" fill="white" stroke="#263238" stroke-width="0.45" stroke-linecap="round" stroke-linejoin="round"/>
<path d="M38.9697 79.6221L39.4521 79.966C39.4521 79.966 39.0389 81.6143 39.2358 82.3715" stroke="#263238" stroke-width="0.45" stroke-linecap="round" stroke-linejoin="round"/>
<path d="M45.8376 78.2419C45.7684 78.5577 45.6019 78.787 45.4677 78.7567C45.3336 78.7264 45.2795 78.4495 45.3509 78.1337C45.4223 77.8179 45.5867 77.5886 45.7208 77.6189C45.8549 77.6492 45.909 77.9282 45.8376 78.2419Z" fill="#263238"/>
<path d="M45.1367 76.9804C45.1367 76.9804 45.8852 76.232 46.5103 76.9393" stroke="#263238" stroke-width="0.45" stroke-linecap="round" stroke-linejoin="round"/>
<path d="M44.1916 72.2736C44.1916 72.2736 45.0828 73.922 45.0158 74.2659C44.9487 74.6098 42.1301 75.434 42.1301 75.434C42.1301 75.434 41.8554 77.0823 41.4422 77.2878L41.0312 77.4933C40.7017 77.0458 40.4251 76.5617 40.2071 76.0505C39.7268 75.0208 39.039 74.7526 38.284 75.7758C37.5291 76.799 38.1456 79.2109 38.5587 79.4164L38.9697 79.6219C38.9697 79.6219 38.6258 79.9658 37.3214 80.1735C36.017 80.3812 35.0544 80.6537 34.094 80.379C33.1335 80.1043 31.7577 77.4933 31.2819 74.1275C30.806 70.7616 32.3115 67.8781 34.3103 66.989C36.309 66.1 40.8365 66.9198 41.1783 67.1253C41.5201 67.3308 43.8585 66.2341 45.2321 66.9198C46.6057 67.6055 46.53 68.3626 46.8804 68.8428C47.2308 69.3231 49.009 68.7066 49.1474 70.4241C49.2858 72.1417 48.598 73.1713 47.7046 73.3076C46.8112 73.4439 44.1916 72.2736 44.1916 72.2736Z" fill="#263238" stroke="#263238" stroke-width="0.45" stroke-linecap="round" stroke-linejoin="round"/>
<path d="M27.9265 83.057C27.9265 83.057 21.344 86.5678 20.0894 87.2622C18.8348 87.9565 18.6466 88.5795 18.5752 89.209C18.5038 89.8385 18.5752 111.024 18.5752 111.024H54.1311C54.1311 111.024 48.7383 94.8332 48.5609 93.0248C48.3835 91.2164 47.9985 88.0085 47.4967 87.6321C46.9948 87.2557 39.9083 84.1213 39.9083 84.1213C39.9083 84.1213 38.2145 82.3042 34.204 82.3042C30.1935 82.3042 27.9265 83.057 27.9265 83.057Z" fill="#FFD000" stroke="#263238" stroke-width="0.45" stroke-linecap="round" stroke-linejoin="round"/>
<path d="M32.002 95.9561C32.188 96.0296 32.3762 96.0967 32.5644 96.1594" stroke="#263238" stroke-width="0.45" stroke-linecap="round" stroke-linejoin="round"/>
<path d="M24.9824 90.1411C24.9824 90.1411 27.5782 93.7622 31.1236 95.549" stroke="#263238" stroke-width="0.45" stroke-linecap="round" stroke-linejoin="round"/>
<path d="M27.2363 94.3398C27.2363 94.3398 28.677 95.7827 31.686 96.5982" stroke="#263238" stroke-width="0.45" stroke-linecap="round" stroke-linejoin="round"/>
<path d="M45.0999 89.144C44.0983 90.2819 42.6879 92.1011 42.2207 93.7754" stroke="#263238" stroke-width="0.45" stroke-linecap="round" stroke-linejoin="round"/>
<path d="M46.1687 88.0083C46.1687 88.0083 45.9697 88.2008 45.6582 88.5318" stroke="#263238" stroke-width="0.45" stroke-linecap="round" stroke-linejoin="round"/>
<path d="M42.5953 91.77C42.5953 91.77 41.6543 93.5871 41.4683 94.7162" stroke="#263238" stroke-width="0.45" stroke-linecap="round" stroke-linejoin="round"/>
<path d="M27.5503 83.3686C27.5503 83.3686 31.1866 83.2431 34.6346 83.3058C38.0827 83.3686 40.3411 84.435 40.3411 84.435C40.3411 84.435 38.2709 81.9279 37.3321 81.3633C36.3933 80.7987 33.5076 79.8491 31.126 80.6105C29.6588 81.1034 28.3996 82.0747 27.5503 83.3686Z" fill="#FFD000" stroke="#263238" stroke-width="0.45" stroke-linecap="round" stroke-linejoin="round"/>
<path d="M17.2103 111.001L13.8963 98.2943C13.8642 98.14 13.8668 97.9805 13.9041 97.8274C13.9413 97.6742 14.0123 97.5314 14.1118 97.4091C14.2112 97.2868 14.3367 97.1883 14.479 97.1207C14.6214 97.053 14.777 97.018 14.9346 97.0181H41.3014C41.5437 97.0183 41.7786 97.1012 41.9674 97.253C42.1562 97.4048 42.2875 97.6165 42.3397 97.853L45.2665 111.014" fill="#263238"/>
<path d="M17.2103 111.001L13.8963 98.2943C13.8642 98.14 13.8668 97.9805 13.9041 97.8274C13.9413 97.6742 14.0123 97.5314 14.1118 97.4091C14.2112 97.2868 14.3367 97.1883 14.479 97.1207C14.6214 97.053 14.777 97.018 14.9346 97.0181H41.3014C41.5437 97.0183 41.7786 97.1012 41.9674 97.253C42.1562 97.4048 42.2875 97.6165 42.3397 97.853L45.2665 111.014" stroke="#263238" stroke-width="0.45" stroke-linecap="round" stroke-linejoin="round"/>
</g>
<defs>
<clipPath id="clip0_159_13205">
<rect width="120" height="120" fill="white" transform="translate(0.5)"/>
</clipPath>
</defs>
</svg>
