<svg width="210" height="210" viewBox="0 0 210 210" fill="none" xmlns="http://www.w3.org/2000/svg">
<g clip-path="url(#clip0_171_18791)">
<path opacity="0.5" d="M210 190.5C210 190.559 143.998 190.375 68.6147 190.375C-6.76813 190.375 0.773646 190.559 0.773646 190.5C0.773646 190.44 -6.79653 190.154 68.6147 190.154C144.026 190.154 210 190.436 210 190.5Z" fill="#263238"/>
<path d="M175.084 69.5372C175.084 69.5372 144.648 25.7197 106.649 21.0824C73.1056 16.9637 41.9696 33.0068 37.6352 67.6671C36.0907 80.0269 33.3424 93.6813 28.4591 104.947C22.9814 117.583 13.6349 128.103 20.7934 152.395C27.9518 176.687 58.1831 198.624 80.1581 198.578C102.133 198.533 122.776 178.557 139.807 160.39C156.838 142.223 211.073 125.139 175.084 69.5372Z" fill="#FFC100"/>
<path opacity="0.7" d="M175.084 69.5372C175.084 69.5372 144.648 25.7197 106.649 21.0824C73.1056 16.9637 41.9696 33.0068 37.6352 67.6671C36.0907 80.0269 33.3424 93.6813 28.4591 104.947C22.9814 117.583 13.6349 128.103 20.7934 152.395C27.9518 176.687 58.1831 198.624 80.1581 198.578C102.133 198.533 122.776 178.557 139.807 160.39C156.838 142.223 211.073 125.139 175.084 69.5372Z" fill="white"/>
<g opacity="0.3">
<path d="M53.02 81.7797H24.6021L24.8898 76.2944H53.3077L53.02 81.7797Z" stroke="black" stroke-width="0.45" stroke-linecap="round" stroke-linejoin="round"/>
<path d="M53.02 89.4606H24.6021L24.8898 83.9753H53.3077L53.02 89.4606Z" stroke="black" stroke-width="0.45" stroke-linecap="round" stroke-linejoin="round"/>
<path d="M53.02 97.1414H24.6021L24.8898 91.6561H53.3077L53.02 97.1414Z" stroke="black" stroke-width="0.45" stroke-linecap="round" stroke-linejoin="round"/>
<path d="M53.02 104.822H24.6021L24.8898 99.3369H53.3077L53.02 104.822Z" stroke="black" stroke-width="0.45" stroke-linecap="round" stroke-linejoin="round"/>
<path d="M53.02 112.507H24.6021L24.8898 107.018H53.3077L53.02 112.507Z" stroke="black" stroke-width="0.45" stroke-linecap="round" stroke-linejoin="round"/>
<path d="M53.02 120.188H24.6021L24.8898 114.699H53.3077L53.02 120.188Z" stroke="black" stroke-width="0.45" stroke-linecap="round" stroke-linejoin="round"/>
<path d="M53.02 127.869H24.6021L24.8898 122.38H53.3077L53.02 127.869Z" stroke="black" stroke-width="0.45" stroke-linecap="round" stroke-linejoin="round"/>
<path d="M53.02 135.549H24.6021L24.8898 130.06H53.3077L53.02 135.549Z" stroke="black" stroke-width="0.45" stroke-linecap="round" stroke-linejoin="round"/>
<path d="M53.02 143.23H24.6021L24.8898 137.741H53.3077L53.02 143.23Z" stroke="black" stroke-width="0.45" stroke-linecap="round" stroke-linejoin="round"/>
<path d="M53.02 150.911H24.6021L24.8898 145.422H53.3077L53.02 150.911Z" stroke="black" stroke-width="0.45" stroke-linecap="round" stroke-linejoin="round"/>
<path d="M53.02 158.592H24.6021L24.8898 153.107H53.3077L53.02 158.592Z" stroke="black" stroke-width="0.45" stroke-linecap="round" stroke-linejoin="round"/>
<path d="M83.0698 81.7797H54.6519L54.9396 76.2944H83.3575L83.0698 81.7797Z" stroke="black" stroke-width="0.45" stroke-linecap="round" stroke-linejoin="round"/>
<path d="M83.0698 89.4606H54.6519L54.9396 83.9753H83.3575L83.0698 89.4606Z" stroke="black" stroke-width="0.45" stroke-linecap="round" stroke-linejoin="round"/>
<path d="M83.0698 97.1414H54.6519L54.9396 91.6561H83.3575L83.0698 97.1414Z" stroke="black" stroke-width="0.45" stroke-linecap="round" stroke-linejoin="round"/>
<path d="M83.0698 104.822H54.6519L54.9396 99.3369H83.3575L83.0698 104.822Z" stroke="black" stroke-width="0.45" stroke-linecap="round" stroke-linejoin="round"/>
<path d="M83.0698 112.507H54.6519L54.9396 107.018H83.3575L83.0698 112.507Z" stroke="black" stroke-width="0.45" stroke-linecap="round" stroke-linejoin="round"/>
<path d="M83.0698 120.188H54.6519L54.9396 114.699H83.3575L83.0698 120.188Z" stroke="black" stroke-width="0.45" stroke-linecap="round" stroke-linejoin="round"/>
<path d="M83.0698 127.869H54.6519L54.9396 122.38H83.3575L83.0698 127.869Z" stroke="black" stroke-width="0.45" stroke-linecap="round" stroke-linejoin="round"/>
<path d="M83.0698 135.549H54.6519L54.9396 130.06H83.3575L83.0698 135.549Z" stroke="black" stroke-width="0.45" stroke-linecap="round" stroke-linejoin="round"/>
<path d="M83.0698 143.23H54.6519L54.9396 137.741H83.3575L83.0698 143.23Z" stroke="black" stroke-width="0.45" stroke-linecap="round" stroke-linejoin="round"/>
<path d="M83.0698 150.911H54.6519L54.9396 145.422H83.3575L83.0698 150.911Z" stroke="black" stroke-width="0.45" stroke-linecap="round" stroke-linejoin="round"/>
<path d="M83.0698 158.592H54.6519L54.9396 153.107H83.3575L83.0698 158.592Z" stroke="black" stroke-width="0.45" stroke-linecap="round" stroke-linejoin="round"/>
</g>
<g opacity="0.3">
<path d="M170.451 87.458H133.769V115.21H170.451V87.458Z" stroke="black" stroke-width="0.45" stroke-linecap="round" stroke-linejoin="round"/>
<path d="M168.455 89.7522H135.756V112.92H168.455V89.7522Z" stroke="black" stroke-width="0.45" stroke-linecap="round" stroke-linejoin="round"/>
<path d="M146.42 93.4012H157.796" stroke="black" stroke-width="0.45" stroke-linecap="round" stroke-linejoin="round"/>
<path d="M139.054 96.7629H165.163" stroke="black" stroke-width="0.45" stroke-linecap="round" stroke-linejoin="round"/>
<path d="M144.872 103.482H159.344" stroke="black" stroke-width="0.45" stroke-linecap="round" stroke-linejoin="round"/>
<path d="M139.311 110.205H145.001" stroke="black" stroke-width="0.45" stroke-linecap="round" stroke-linejoin="round"/>
<path d="M159.215 110.205H164.901" stroke="black" stroke-width="0.45" stroke-linecap="round" stroke-linejoin="round"/>
</g>
<g opacity="0.3">
<path d="M180.411 121.062H153.412V141.489H180.411V121.062Z" stroke="black" stroke-width="0.45" stroke-linecap="round" stroke-linejoin="round"/>
<path d="M178.946 122.75H154.877V139.804H178.946V122.75Z" stroke="black" stroke-width="0.45" stroke-linecap="round" stroke-linejoin="round"/>
<path d="M162.729 125.438H171.098" stroke="black" stroke-width="0.45" stroke-linecap="round" stroke-linejoin="round"/>
<path d="M157.304 127.91H176.523" stroke="black" stroke-width="0.45" stroke-linecap="round" stroke-linejoin="round"/>
<path d="M161.585 132.858H172.241" stroke="black" stroke-width="0.45" stroke-linecap="round" stroke-linejoin="round"/>
<path d="M157.493 137.806H161.68" stroke="black" stroke-width="0.45" stroke-linecap="round" stroke-linejoin="round"/>
<path d="M172.143 137.806H176.33" stroke="black" stroke-width="0.45" stroke-linecap="round" stroke-linejoin="round"/>
</g>
<path d="M149.134 135.432L109.943 134.069C108.328 134.014 106.713 134.014 105.097 134.069L68.5859 135.432L70.2061 84.1683C70.2667 82.2276 70.2667 80.2843 70.2061 78.3386L68.5859 29.967H149.134V135.432Z" fill="#263238" stroke="#263238" stroke-width="0.45" stroke-linecap="round" stroke-linejoin="round"/>
<path d="M150.429 28.1576H69.8804V133.623H150.429V28.1576Z" fill="white" stroke="#263238" stroke-width="0.45" stroke-linecap="round" stroke-linejoin="round"/>
<path d="M145.073 56.9011H75.2334V127.6H145.073V56.9011Z" fill="white" stroke="#263238" stroke-width="0.45" stroke-linecap="round" stroke-linejoin="round"/>
<path d="M75.8882 46.3358V33.4082H79.6737C80.332 33.3793 80.9858 33.5284 81.5665 33.8398C82.0517 34.1283 82.4282 34.5686 82.6378 35.0928C82.8808 35.7264 82.9965 36.4018 82.9785 37.0802C83.0088 37.7834 82.8603 38.4827 82.5469 39.113C82.2823 39.6143 81.859 40.0136 81.3431 40.2487C80.766 40.4958 80.1424 40.6159 79.5147 40.6007H78.239V46.3358H75.8882ZM78.2504 38.9313H79.1437C79.4867 38.947 79.8286 38.8835 80.1431 38.7458C80.2614 38.6865 80.3661 38.6035 80.4508 38.5018C80.5354 38.4002 80.5982 38.2822 80.6352 38.1553C80.7373 37.7999 80.7833 37.4308 80.7715 37.0612C80.7793 36.6801 80.7451 36.2992 80.6693 35.9256C80.6429 35.7929 80.5897 35.6671 80.5129 35.5557C80.4361 35.4444 80.3373 35.35 80.2226 35.2783C79.8867 35.1177 79.5153 35.046 79.1437 35.07H78.2504V38.9313Z" fill="#FFC100"/>
<path d="M78.7617 52.5705L81.3624 45.7111L78.8412 39.6543H81.0444L82.7176 43.6594L84.1864 39.6543H86.2306L83.7283 46.1578L86.4085 52.5705H84.2205L82.3845 48.2285L80.787 52.5667L78.7617 52.5705Z" fill="#FFC100"/>
<path d="M114.985 37.3943H144.842" stroke="#263238" stroke-width="0.45" stroke-linecap="round" stroke-linejoin="round"/>
<path d="M114.985 43.8373H144.842" stroke="#263238" stroke-width="0.45" stroke-linecap="round" stroke-linejoin="round"/>
<path d="M121.432 41.0474H144.841" stroke="#263238" stroke-width="0.45" stroke-linecap="round" stroke-linejoin="round"/>
<path d="M121.432 46.8469H144.841" stroke="#263238" stroke-width="0.45" stroke-linecap="round" stroke-linejoin="round"/>
<path d="M77.6108 64.6729H101.024" stroke="#263238" stroke-width="0.45" stroke-linecap="round" stroke-linejoin="round"/>
<path d="M77.6108 70.7865H101.024" stroke="#263238" stroke-width="0.45" stroke-linecap="round" stroke-linejoin="round"/>
<path d="M77.6108 67.8337H113.055" stroke="#263238" stroke-width="0.45" stroke-linecap="round" stroke-linejoin="round"/>
<path d="M77.6108 78.2365H101.024" stroke="#263238" stroke-width="0.45" stroke-linecap="round" stroke-linejoin="round"/>
<path d="M77.6108 84.3501H101.024" stroke="#263238" stroke-width="0.45" stroke-linecap="round" stroke-linejoin="round"/>
<path d="M77.6108 81.3972H113.055" stroke="#263238" stroke-width="0.45" stroke-linecap="round" stroke-linejoin="round"/>
<path d="M77.1108 123.788H99.3054" stroke="#263238" stroke-width="0.45" stroke-linecap="round" stroke-linejoin="round"/>
<path d="M119.199 123.788H141.393" stroke="#263238" stroke-width="0.45" stroke-linecap="round" stroke-linejoin="round"/>
<path d="M80.2416 99.4202C78.9145 100.262 77.8667 101.479 77.2307 102.916C76.5947 104.353 76.399 105.947 76.6685 107.496C76.9379 109.044 77.6603 110.478 78.7444 111.616C79.8285 112.754 81.2256 113.545 82.7592 113.889C84.2928 114.234 85.894 114.116 87.3605 113.55C88.827 112.985 90.093 111.997 90.9984 110.712C91.9039 109.428 92.4081 107.903 92.4475 106.332C92.4869 104.761 92.0596 103.213 91.2197 101.885C90.6612 101.001 89.9341 100.237 89.0799 99.6348C88.2258 99.0328 87.2613 98.6052 86.2416 98.3763C85.222 98.1474 84.1672 98.1218 83.1377 98.3009C82.1082 98.48 81.124 98.8604 80.2416 99.4202ZM87.8695 111.447C86.8204 112.112 85.5977 112.45 84.3561 112.42C83.1145 112.39 81.9097 111.993 80.894 111.278C79.8783 110.563 79.0973 109.563 78.6498 108.405C78.2023 107.246 78.1084 105.981 78.3799 104.769C78.6514 103.557 79.2761 102.453 80.1751 101.596C81.0741 100.739 82.207 100.168 83.4306 99.9549C84.6541 99.7417 85.9134 99.8962 87.0492 100.399C88.1849 100.901 89.1462 101.729 89.8115 102.778C90.2534 103.475 90.5537 104.252 90.6952 105.064C90.8368 105.877 90.8168 106.71 90.6365 107.515C90.4561 108.32 90.119 109.081 89.6442 109.756C89.1694 110.431 88.5664 111.005 87.8695 111.447Z" fill="#FFC100"/>
<path d="M87.4579 103.554L80.6885 107.843L81.3794 108.933L88.1488 104.644L87.4579 103.554Z" fill="#FFC100"/>
<path d="M80.6655 121.289C80.6655 121.289 80.7753 123.81 84.0725 119.313C87.3697 114.816 86.9268 115.149 86.0486 117.67C85.3757 119.416 84.4854 121.069 83.3987 122.591C83.3987 122.591 87.3508 116.338 87.3508 118.09C87.3508 119.843 83.6182 127.308 84.3867 126.65C85.1552 125.991 87.5703 122.701 87.5703 122.701C87.5703 122.701 87.241 124.893 88.1155 123.905C88.9899 122.917 89.9817 120.945 89.8719 122.043C89.7622 123.14 88.335 124.454 89.7622 123.14C91.1893 121.827 92.2871 120.176 91.9578 121.384C91.6284 122.591 90.7502 123.031 91.6284 122.591C92.5067 122.152 97.443 113.923 95.9061 114.911C94.3692 115.899 91.5186 124.454 92.836 123.795C94.1534 123.137 95.6865 119.847 95.5767 121.494C95.467 123.14 95.9061 123.14 96.3338 122.591" stroke="#263238" stroke-width="0.45" stroke-linecap="round" stroke-linejoin="round"/>
<path d="M189 194.278H16.1753" stroke="#263238" stroke-width="0.45" stroke-linecap="round" stroke-linejoin="round"/>
<path d="M179.532 150.741H142.888C142.31 150.74 141.751 150.948 141.313 151.326C140.876 151.705 140.59 152.228 140.507 152.8L135.025 190.277H178.601L181.928 153.353C181.957 153.021 181.916 152.686 181.809 152.371C181.702 152.055 181.53 151.765 181.305 151.52C181.079 151.274 180.805 151.078 180.5 150.944C180.195 150.81 179.865 150.741 179.532 150.741Z" fill="#263238" stroke="#263238" stroke-width="0.45" stroke-linecap="round" stroke-linejoin="round"/>
<path d="M129.911 144.623C129.911 144.623 119.997 149.545 116.594 150.904C113.191 152.263 112.354 152.872 112.051 153.705C111.748 154.538 98.5067 175.347 96.9962 177.239C95.4858 179.132 92.2264 183.217 92.6807 186.014C93.135 188.812 96.7691 191.238 100.252 191.163C103.734 191.087 105.93 190.406 106.309 189.421C106.687 188.437 116.299 171.251 116.299 171.251L119.327 190.394H157.996C157.996 190.394 161.025 164.213 161.025 160.352C161.025 156.491 161.782 151.952 160.192 150.968C158.602 149.984 152.019 147.716 147.173 146.126C142.328 144.536 140.818 144.233 139.686 144.233C138.554 144.233 129.911 144.623 129.911 144.623Z" fill="white" stroke="#263238" stroke-width="0.45" stroke-linecap="round" stroke-linejoin="round"/>
<path d="M128.863 144.76C128.863 144.76 127.576 147.182 127.5 149.151C127.424 151.119 127.121 154.75 125.986 156.945C124.85 159.141 124.017 160.352 124.623 160.121C125.229 159.89 128.707 156.037 129.086 155.2C129.465 154.363 130.07 155.957 130.07 155.957C130.07 155.957 128.935 159.209 128.783 159.663C128.632 160.117 133.549 166.398 133.549 166.398C133.549 166.398 137.789 163.07 138.773 162.313C139.757 161.556 139.455 160.95 139.53 159.966C139.606 158.982 139.909 157.547 140.435 156.714C140.961 155.881 142.483 159.145 143.539 160.659C144.595 162.173 145.659 162.703 145.508 161.567C145.356 160.432 144.826 158.236 144.448 154.375C144.069 150.514 144.145 145.899 143.161 144.461C142.176 143.022 137.013 142.738 133.625 142.496C132.699 142.393 131.763 142.55 130.921 142.95C130.08 143.35 129.367 143.976 128.863 144.76Z" fill="white" stroke="#263238" stroke-width="0.45" stroke-linecap="round" stroke-linejoin="round"/>
<path d="M113.577 157.649L116.302 171.262L112.782 162.211" stroke="#263238" stroke-width="0.45" stroke-linecap="round" stroke-linejoin="round"/>
<path d="M129.241 148.409C129.241 148.409 130.301 154.311 131.285 158.849C131.827 161.433 132.586 163.966 133.557 166.42C133.557 166.42 138.554 158.02 139.992 153.633C140.809 151.212 141.442 148.733 141.885 146.217H129.241V148.409Z" stroke="#263238" stroke-width="0.45" stroke-linecap="round" stroke-linejoin="round"/>
<path d="M134.764 150.438L132.042 153.845L133.935 157.479L132.073 161.988C132.483 163.487 132.979 164.962 133.557 166.405C133.557 166.405 135.116 163.786 136.74 160.727L135.374 157.574L137.039 153.788L134.764 150.438Z" fill="#FFC100" stroke="#263238" stroke-width="0.45" stroke-linecap="round" stroke-linejoin="round"/>
<path d="M129.241 146.213V148.409C129.241 148.409 129.972 152.482 130.782 156.461L134.613 152.418L138.652 156.892C139.157 155.83 139.603 154.741 139.988 153.629C140.805 151.208 141.438 148.729 141.881 146.213H129.241Z" fill="white" stroke="#263238" stroke-width="0.45" stroke-linecap="round" stroke-linejoin="round"/>
<path d="M96.25 179.48C96.25 179.48 103.318 176.899 107.13 183.179" stroke="#263238" stroke-width="0.45" stroke-linecap="round" stroke-linejoin="round"/>
<path d="M107.255 181.241C107.255 181.241 103.306 182.134 101.198 185.5C99.0892 188.865 103.378 189.24 104.563 189.24C105.748 189.24 106.869 188.445 106.933 188.032C106.997 187.62 108.549 183.63 108.489 182.698C108.482 182.351 108.355 182.016 108.13 181.751C107.906 181.485 107.596 181.305 107.255 181.241Z" fill="white" stroke="#263238" stroke-width="0.45" stroke-linecap="round" stroke-linejoin="round"/>
<path d="M105.438 182.634C105.438 182.634 103.254 184.527 103.401 185.284C103.549 186.041 106.789 188.956 107.414 188.535C107.527 188.478 107.627 188.399 107.709 188.303C107.791 188.207 107.853 188.096 107.892 187.975C107.931 187.855 107.946 187.728 107.936 187.602C107.926 187.476 107.892 187.353 107.834 187.241C107.656 186.957 105.438 182.634 105.438 182.634Z" fill="white" stroke="#263238" stroke-width="0.45" stroke-linecap="round" stroke-linejoin="round"/>
<path d="M103.412 185.265C103.412 185.265 102.129 186.631 102.549 187.256C102.97 187.881 105.903 189.474 106.664 188.994C107.425 188.513 106.933 188.021 106.933 188.021L103.412 185.265Z" fill="white" stroke="#263238" stroke-width="0.45" stroke-linecap="round" stroke-linejoin="round"/>
<path d="M110.93 182.562L108.303 182.108L108.92 185.889L111.604 185.973L110.93 182.562Z" fill="white" stroke="#263238" stroke-width="0.45" stroke-linecap="round" stroke-linejoin="round"/>
<path d="M106.203 176.615L109.28 187.4L110.776 188.759V186.84L107.52 176.24C107.493 176.152 107.449 176.07 107.39 175.999C107.331 175.929 107.258 175.871 107.176 175.829C107.094 175.787 107.005 175.763 106.913 175.756C106.821 175.75 106.729 175.763 106.642 175.793C106.478 175.85 106.343 175.966 106.261 176.118C106.18 176.27 106.159 176.448 106.203 176.615Z" fill="#263238" stroke="#263238" stroke-width="0.45" stroke-linecap="round" stroke-linejoin="round"/>
<path d="M107.255 181.241C107.255 181.241 105.438 182.304 105.62 183.111C105.801 183.917 107.762 187.687 108.47 187.737C109.178 187.786 109.606 187.358 109.504 186.54C109.401 185.723 108.747 182.755 108.304 182.108C107.861 181.46 107.812 181.203 107.255 181.241Z" fill="white" stroke="#263238" stroke-width="0.45" stroke-linecap="round" stroke-linejoin="round"/>
<path d="M110.931 182.562C110.931 182.562 112.865 182.804 113.202 183.395C113.539 183.985 112.187 186.34 111.756 186.878C111.324 187.415 110.552 187.392 110.529 186.03C110.566 184.865 110.7 183.705 110.931 182.562Z" fill="white" stroke="#263238" stroke-width="0.45" stroke-linecap="round" stroke-linejoin="round"/>
<path d="M100.468 187.116H121.693C122.286 187.117 122.855 187.353 123.274 187.772C123.693 188.192 123.929 188.76 123.93 189.353C123.93 189.855 123.731 190.337 123.376 190.692C123.021 191.047 122.54 191.246 122.038 191.246H100.763C100.301 191.246 99.8581 191.063 99.5315 190.736C99.205 190.409 99.0215 189.966 99.0215 189.505V188.558C99.0215 188.369 99.0589 188.181 99.1316 188.005C99.2044 187.83 99.3109 187.671 99.4453 187.537C99.5796 187.403 99.739 187.297 99.9145 187.225C100.09 187.152 100.278 187.115 100.468 187.116Z" fill="white" stroke="#263238" stroke-width="0.45" stroke-linecap="round" stroke-linejoin="round"/>
<path d="M138.239 182.236C138.239 182.236 132.716 181.631 131.353 181.176C129.99 180.722 127.795 180.344 127.038 180.949C126.281 181.555 122.575 185.871 122.495 186.397C122.416 186.923 121.662 188.668 122.041 189.122C122.358 189.439 122.748 189.673 123.176 189.804C123.176 189.804 128.098 191.167 128.624 191.242C129.15 191.318 134.223 191.091 134.223 191.091L136.873 190.107L140.579 190.031C140.579 190.031 140.654 191.242 140.73 188.29C140.806 185.337 138.239 182.236 138.239 182.236Z" fill="white" stroke="#263238" stroke-width="0.45" stroke-linecap="round" stroke-linejoin="round"/>
<path d="M123.188 189.807C123.188 189.807 123.264 188.066 123.642 187.309C124.021 186.552 128.333 182.694 128.333 182.694" stroke="#263238" stroke-width="0.45" stroke-linecap="round" stroke-linejoin="round"/>
<path d="M124.611 190.254C124.611 190.254 125.368 188.361 125.671 188.21C125.974 188.058 129.529 185.787 129.529 185.787" stroke="#263238" stroke-width="0.45" stroke-linecap="round" stroke-linejoin="round"/>
<path d="M127.197 190.784C127.197 190.784 127.348 190.027 127.727 189.876C128.105 189.724 131.285 188.286 131.285 188.286" stroke="#263238" stroke-width="0.45" stroke-linecap="round" stroke-linejoin="round"/>
<path d="M130.604 191.163L132.043 190.784L131.891 190.103L130.377 190.481" stroke="#263238" stroke-width="0.45" stroke-linecap="round" stroke-linejoin="round"/>
<path d="M155.574 157.865C155.574 157.865 151.565 166.265 151.788 169.222C152.012 172.178 153.003 177.088 153.003 177.088C153.003 177.088 146.647 179.583 144.452 180.495C142.256 181.407 138.24 182.236 138.24 182.236L140.28 190.258L139.981 191.091H161.998C161.998 191.091 163.663 190.788 163.966 190.409C164.269 190.031 164.572 189.879 164.723 188.668C164.875 187.457 165.859 176.865 165.632 173.904C165.405 170.944 162.301 155.594 161.922 154.004C161.543 152.414 160.866 151.354 160.184 150.975C159.503 150.597 156.55 150.298 156.55 150.298" fill="white"/>
<path d="M155.574 157.865C155.574 157.865 151.565 166.265 151.788 169.222C152.012 172.178 153.003 177.088 153.003 177.088C153.003 177.088 146.647 179.583 144.452 180.495C142.256 181.407 138.24 182.236 138.24 182.236L140.28 190.258L139.981 191.091H161.998C161.998 191.091 163.663 190.788 163.966 190.409C164.269 190.031 164.572 189.879 164.723 188.668C164.875 187.457 165.859 176.865 165.632 173.904C165.405 170.944 162.301 155.594 161.922 154.004C161.543 152.414 160.866 151.354 160.184 150.975C159.503 150.597 156.55 150.298 156.55 150.298" stroke="#263238" stroke-width="0.45" stroke-linecap="round" stroke-linejoin="round"/>
<path d="M153.533 177.24C153.533 177.24 159.359 177.542 162.24 179.356" stroke="#263238" stroke-width="0.45" stroke-linecap="round" stroke-linejoin="round"/>
<path d="M154.589 176.482C154.589 176.482 158.677 176.255 160.873 176.937" stroke="#263238" stroke-width="0.45" stroke-linecap="round" stroke-linejoin="round"/>
<path d="M153.457 157.63C153.457 157.63 151.413 162.4 151.337 164.217C151.262 166.034 151.11 167.094 151.11 167.094" stroke="#263238" stroke-width="0.45" stroke-linecap="round" stroke-linejoin="round"/>
<path d="M144.149 145.002C144.149 145.002 148.763 151.574 145.054 169.899" stroke="#263238" stroke-width="0.9" stroke-linecap="round" stroke-linejoin="round"/>
<path d="M147.249 170.429C147.249 169.98 147.115 169.541 146.866 169.167C146.616 168.794 146.262 168.503 145.847 168.331C145.432 168.159 144.975 168.114 144.534 168.202C144.094 168.289 143.689 168.506 143.371 168.823C143.054 169.141 142.837 169.546 142.75 169.986C142.662 170.427 142.707 170.883 142.879 171.298C143.051 171.714 143.342 172.068 143.716 172.318C144.089 172.567 144.528 172.701 144.977 172.701C145.58 172.701 146.157 172.461 146.583 172.035C147.009 171.609 147.249 171.032 147.249 170.429Z" fill="white" stroke="#263238" stroke-width="0.45" stroke-linecap="round" stroke-linejoin="round"/>
<path d="M128.397 145.683C128.397 145.683 126.053 147.197 125.675 153.326" stroke="#263238" stroke-width="0.9" stroke-linecap="round" stroke-linejoin="round"/>
<path d="M128.931 162.612C128.359 166.746 127.579 171.187 127.417 172.159C127.038 174.241 124.566 174.968 122.976 174.287" stroke="#263238" stroke-width="0.9" stroke-linecap="round" stroke-linejoin="round"/>
<path d="M123.003 162.885C122.484 160.568 122.166 158.558 122.28 157.638C122.81 153.402 125.687 153.326 125.687 153.326C125.687 153.326 129.094 153.781 129.317 157.415C129.341 159.155 129.214 160.894 128.939 162.612" stroke="#263238" stroke-width="0.9" stroke-linecap="round" stroke-linejoin="round"/>
<path d="M129.393 173.984C129.393 173.984 127.803 174.892 126.743 174.287C126.028 173.878 124.093 167.715 123.003 162.885" stroke="#263238" stroke-width="0.9" stroke-linecap="round" stroke-linejoin="round"/>
<path d="M129.946 173.163L129.321 173.433C129.019 173.563 128.88 173.913 129.01 174.214L129.018 174.232C129.148 174.533 129.497 174.672 129.799 174.542L130.424 174.272C130.726 174.142 130.865 173.793 130.735 173.491L130.727 173.474C130.598 173.173 130.248 173.034 129.946 173.163Z" stroke="#263238" stroke-width="0.45" stroke-linecap="round" stroke-linejoin="round"/>
<path d="M123.172 173.574L122.588 173.223C122.307 173.054 121.942 173.145 121.773 173.427L121.763 173.443C121.594 173.724 121.685 174.089 121.966 174.258L122.55 174.609C122.832 174.778 123.197 174.687 123.366 174.406L123.376 174.39C123.545 174.108 123.454 173.743 123.172 173.574Z" stroke="#263238" stroke-width="0.45" stroke-linecap="round" stroke-linejoin="round"/>
<path d="M125.686 127.373C125.686 127.373 124.475 130.246 124.702 132.063C124.929 133.88 127.352 135.848 127.352 135.848C127.352 135.848 128.185 127.751 128.185 127.448C128.185 127.145 126.667 126.464 125.686 127.373Z" fill="#263238" stroke="#263238" stroke-width="0.45" stroke-linecap="round" stroke-linejoin="round"/>
<path d="M124.816 137.666L126.425 136.541" stroke="#263238" stroke-width="0.9" stroke-linecap="round" stroke-linejoin="round"/>
<path d="M126.591 127.903C126.591 127.903 126.288 135.924 126.44 137.435C126.591 138.945 127.197 143.791 127.727 145.305C128.257 146.819 129.998 151.661 131.361 152.191C132.724 152.721 135.446 153.099 136.354 152.493C137.263 151.888 140.59 149.62 141.499 147.425C142.037 146.144 142.394 144.795 142.559 143.416C143.314 143.013 143.967 142.441 144.465 141.745C144.964 141.049 145.296 140.248 145.436 139.403C145.89 136.526 144.679 135.697 144.679 135.697L144.754 130.7C144.754 130.7 143.921 127.221 141.726 125.328C139.53 123.436 136.96 123.284 134.31 124.723C131.66 126.161 126.591 127.903 126.591 127.903Z" fill="white" stroke="#263238" stroke-width="0.45" stroke-linecap="round" stroke-linejoin="round"/>
<path d="M140.817 127.448C140.817 127.448 140.893 125.48 139.004 126.161C137.115 126.843 136.657 128.13 133.855 129.265C131.054 130.401 127.348 129.114 126.065 128.357C124.781 127.6 123.869 126.54 125.611 124.571C127.352 122.603 131.436 120.638 135.831 120.638C140.226 120.638 143.626 124.269 145.064 125.783C146.503 127.297 146.73 129.19 146.2 130.549C145.67 131.908 144.686 135.697 144.686 135.697C144.686 135.697 144.08 135.621 143.853 136.526C143.626 137.431 143.702 138.419 142.717 138.495C141.733 138.57 141.809 135.924 141.809 135.924C141.809 135.924 139.39 135.167 139.087 133.426C138.784 131.684 140.817 129.114 140.817 127.448Z" fill="#263238" stroke="#263238" stroke-width="0.45" stroke-linecap="round" stroke-linejoin="round"/>
<path d="M131.804 138.9L124.805 137.666L125.21 140.804C125.235 140.999 125.322 141.181 125.458 141.323C125.594 141.464 125.773 141.559 125.967 141.591L130.222 142.261C130.456 142.299 130.695 142.244 130.889 142.109C131.084 141.973 131.218 141.767 131.263 141.534L131.804 138.9Z" stroke="#263238" stroke-width="0.9" stroke-linecap="round" stroke-linejoin="round"/>
<path d="M133.08 139.032L141.196 138.797L140.401 141.735C140.332 141.933 140.202 142.103 140.028 142.221C139.855 142.338 139.648 142.396 139.439 142.386L134.518 142.454C134.263 142.472 134.01 142.397 133.806 142.243C133.601 142.09 133.459 141.868 133.405 141.618L133.08 139.032Z" stroke="#263238" stroke-width="0.9" stroke-linecap="round" stroke-linejoin="round"/>
<path d="M131.815 138.9L133.08 139.032" stroke="#263238" stroke-width="0.9" stroke-linecap="round" stroke-linejoin="round"/>
<path d="M141.196 138.797L143.846 136.526" stroke="#263238" stroke-width="0.9" stroke-linecap="round" stroke-linejoin="round"/>
<path d="M134.158 138.116C134.158 138.116 136.43 136.379 138.549 137.435" stroke="#263238" stroke-width="0.9" stroke-linecap="round" stroke-linejoin="round"/>
<path d="M130.755 137.737C130.755 137.737 129.014 135.845 127.045 137.132" stroke="#263238" stroke-width="0.9" stroke-linecap="round" stroke-linejoin="round"/>
<path d="M131.21 144.32C131.21 144.32 130.831 145.91 131.21 146.213C131.854 146.569 132.598 146.702 133.326 146.592" stroke="#263238" stroke-width="0.45" stroke-linecap="round" stroke-linejoin="round"/>
<path d="M130.074 147.409C130.074 147.409 131.588 148.545 133.026 148.621C134.465 148.697 136.127 147.637 136.127 147.637" stroke="#263238" stroke-width="0.45" stroke-linecap="round" stroke-linejoin="round"/>
<path d="M135.673 139.706C135.673 139.706 136.581 140.766 138.096 139.63" stroke="#263238" stroke-width="0.45" stroke-linecap="round" stroke-linejoin="round"/>
<path d="M128.219 139.24C128.219 139.24 128.976 140.414 130.627 139.494" stroke="#263238" stroke-width="0.45" stroke-linecap="round" stroke-linejoin="round"/>
<path d="M81.2672 127.441C81.2672 127.441 81.748 134.652 81.3846 135.254L80.3208 137.056C80.3208 137.056 80.8016 142.227 79.8401 142.825C79.0951 143.224 78.2778 143.47 77.4363 143.548C77.4363 143.548 76.4747 147.394 76.1113 147.875C75.7479 148.356 73.5864 149.919 72.8671 150.146C72.1479 150.373 69.8614 150.525 64.4519 147.262C59.0424 143.998 56.9982 142.935 57.1193 141.133C57.2405 139.331 57.4979 137.287 57.4979 137.287C57.4979 137.287 58.0998 128.629 59.1824 125.987C60.2651 123.345 73.9687 121.899 76.9744 122.622C79.9801 123.345 81.2672 127.441 81.2672 127.441Z" fill="white" stroke="#263238" stroke-width="0.45" stroke-linecap="round" stroke-linejoin="round"/>
<path d="M67.3213 139.339L68.1655 139.941C68.1655 139.941 67.4424 142.825 67.7869 144.15" stroke="#263238" stroke-width="0.45" stroke-linecap="round" stroke-linejoin="round"/>
<path d="M79.3406 136.923C79.2195 137.476 78.928 137.877 78.6933 137.824C78.4586 137.771 78.364 137.287 78.4889 136.734C78.6138 136.181 78.9015 135.78 79.1362 135.833C79.3709 135.886 79.4656 136.375 79.3406 136.923Z" fill="#263238"/>
<path d="M78.1143 134.716C78.1143 134.716 79.4241 133.407 80.5181 134.644" stroke="#263238" stroke-width="0.45" stroke-linecap="round" stroke-linejoin="round"/>
<path d="M76.4598 126.479C76.4598 126.479 78.0194 129.364 77.9021 129.966C77.7847 130.568 72.8522 132.01 72.8522 132.01C72.8522 132.01 72.3714 134.894 71.6484 135.254L70.9291 135.614C70.3525 134.831 69.8685 133.983 69.4869 133.089C68.6465 131.287 67.4427 130.817 66.1215 132.608C64.8004 134.399 65.8792 138.619 66.6023 138.979L67.3215 139.339C67.3215 139.339 66.7196 139.941 64.437 140.304C62.1543 140.667 60.4697 141.144 58.7889 140.664C57.1082 140.183 54.7006 135.614 53.8678 129.723C53.0349 123.833 55.6697 118.787 59.1675 117.231C62.6653 115.675 70.5884 117.11 71.1866 117.47C71.7847 117.829 75.8768 115.91 78.2806 117.11C80.6845 118.31 80.552 119.635 81.1652 120.475C81.7785 121.316 84.8902 120.237 85.1325 123.243C85.3747 126.248 84.1709 128.05 82.6075 128.289C81.0441 128.527 76.4598 126.479 76.4598 126.479Z" fill="#263238" stroke="#263238" stroke-width="0.45" stroke-linecap="round" stroke-linejoin="round"/>
<path d="M47.9961 145.35C47.9961 145.35 36.4767 151.494 34.2811 152.709C32.0855 153.924 31.7561 155.014 31.6312 156.116C31.5063 157.218 31.6312 194.293 31.6312 194.293H93.854C93.854 194.293 84.4167 165.958 84.1063 162.794C83.7958 159.629 83.122 154.015 82.2438 153.356C81.3655 152.698 68.9641 147.212 68.9641 147.212C68.9641 147.212 66.0001 144.033 58.9817 144.033C51.9633 144.033 47.9961 145.35 47.9961 145.35Z" fill="#FFC100" stroke="#263238" stroke-width="0.45" stroke-linecap="round" stroke-linejoin="round"/>
<path d="M55.1284 167.923C55.454 168.052 55.7833 168.169 56.1127 168.279" stroke="#263238" stroke-width="0.45" stroke-linecap="round" stroke-linejoin="round"/>
<path d="M42.8442 157.748C42.8442 157.748 47.3869 164.085 53.5914 167.211" stroke="#263238" stroke-width="0.45" stroke-linecap="round" stroke-linejoin="round"/>
<path d="M46.7886 165.095C46.7886 165.095 49.3097 167.62 54.5754 169.047" stroke="#263238" stroke-width="0.45" stroke-linecap="round" stroke-linejoin="round"/>
<path d="M78.0498 156.003C76.2971 157.994 73.8289 161.177 73.0112 164.107" stroke="#263238" stroke-width="0.45" stroke-linecap="round" stroke-linejoin="round"/>
<path d="M79.9198 154.015C79.9198 154.015 79.5715 154.352 79.0264 154.931" stroke="#263238" stroke-width="0.45" stroke-linecap="round" stroke-linejoin="round"/>
<path d="M73.6661 160.598C73.6661 160.598 72.0194 163.778 71.6938 165.754" stroke="#263238" stroke-width="0.45" stroke-linecap="round" stroke-linejoin="round"/>
<path d="M47.3379 145.895C47.3379 145.895 53.7014 145.676 59.7355 145.785C65.7696 145.895 69.7217 147.761 69.7217 147.761C69.7217 147.761 66.099 143.374 64.4561 142.386C62.8131 141.398 57.7632 139.736 53.5954 141.069C51.0278 141.931 48.8242 143.631 47.3379 145.895Z" fill="#FFC100" stroke="#263238" stroke-width="0.45" stroke-linecap="round" stroke-linejoin="round"/>
<path d="M29.2428 194.252L23.4433 172.015C23.387 171.745 23.3917 171.466 23.4569 171.198C23.5221 170.93 23.6463 170.68 23.8203 170.466C23.9944 170.252 24.214 170.08 24.4631 169.961C24.7122 169.843 24.9846 169.782 25.2604 169.782H71.4022C71.8262 169.782 72.2373 169.927 72.5677 170.193C72.8981 170.459 73.128 170.829 73.2193 171.243L78.3411 194.274" fill="#263238"/>
<path d="M29.2428 194.252L23.4433 172.015C23.387 171.745 23.3917 171.466 23.4569 171.198C23.5221 170.93 23.6463 170.68 23.8203 170.466C23.9944 170.252 24.214 170.08 24.4631 169.961C24.7122 169.843 24.9846 169.782 25.2604 169.782H71.4022C71.8262 169.782 72.2373 169.927 72.5677 170.193C72.8981 170.459 73.128 170.829 73.2193 171.243L78.3411 194.274" stroke="#263238" stroke-width="0.45" stroke-linecap="round" stroke-linejoin="round"/>
</g>
<defs>
<clipPath id="clip0_171_18791">
<rect width="210" height="210" fill="white"/>
</clipPath>
</defs>
</svg>
