<svg width="210" height="210" viewBox="0 0 210 210" fill="none" xmlns="http://www.w3.org/2000/svg">
<g clip-path="url(#clip0_171_16189)">
<path opacity="0.5" d="M210 190.5C210 190.559 143.998 190.375 68.6147 190.375C-6.76813 190.375 0.773646 190.559 0.773646 190.5C0.773646 190.44 -6.79653 190.154 68.6147 190.154C144.026 190.154 210 190.436 210 190.5Z" fill="#263238"/>
<path d="M186.38 93.6405C196.633 65.4204 179.33 31.4889 150.225 22.3601C133.275 17.048 113.82 15.6388 94.6698 18.3359C54.3341 24.0277 52.643 63.8037 42.0149 73.5118C31.3869 83.2199 13.7518 94.8188 15.2001 123.227C16.6485 151.635 30.8858 155.432 48.2939 169.638C65.702 183.844 68.1016 196.868 106.022 196.868C143.943 196.868 156.266 189.763 164.96 181.714C173.654 173.666 189.841 157.327 194.186 136.728C198.531 116.13 181.628 113.761 184.525 99.7903C184.997 97.699 185.617 95.6439 186.38 93.6405Z" fill="#FFC100"/>
<path opacity="0.7" d="M186.38 93.6405C196.633 65.4204 179.33 31.4889 150.225 22.3601C133.275 17.048 113.82 15.6388 94.6698 18.3359C54.3341 24.0277 52.643 63.8037 42.0149 73.5118C31.3869 83.2199 13.7518 94.8188 15.2001 123.227C16.6485 151.635 30.8858 155.432 48.2939 169.638C65.702 183.844 68.1016 196.868 106.022 196.868C143.943 196.868 156.266 189.763 164.96 181.714C173.654 173.666 189.841 157.327 194.186 136.728C198.531 116.13 181.628 113.761 184.525 99.7903C184.997 97.699 185.617 95.6439 186.38 93.6405Z" fill="white"/>
<path d="M86.6485 124.89C86.6485 124.89 41.8463 102.632 42.4335 92.8415C43.0206 83.0511 67.3614 91.0604 67.3614 91.0604C67.3614 91.0604 40.6719 76.2241 43.9171 67.0249C47.1623 57.8257 62.018 69.1035 62.018 69.1035C62.018 69.1035 44.5121 43.8898 55.4885 39.1336C66.465 34.3774 77.7468 76.2241 77.7468 76.2241C77.7468 76.2241 76.5724 57.5282 92.2855 60.4954C107.999 63.4626 91.6905 96.9948 91.6905 96.9948C91.6905 96.9948 97.3314 84.2373 105.341 86.312C113.35 88.3867 86.6485 124.89 86.6485 124.89Z" stroke="#B2B2B2" stroke-width="0.44" stroke-miterlimit="10"/>
<path d="M105.341 86.3122C98.2943 84.488 93.0997 94.1061 91.9371 96.4901C93.8944 92.2545 106.859 63.2632 92.2855 60.5113C76.5567 57.544 77.7468 76.24 77.7468 76.24C77.7468 76.24 66.4689 34.3854 55.4885 39.1338L55.1519 39.2943C75.0614 74.4432 86.6485 124.89 86.6485 124.89C86.6485 124.89 113.354 88.3908 105.341 86.3122Z" fill="white" stroke="#B2B2B2" stroke-width="0.44" stroke-miterlimit="10"/>
<path d="M170.717 178.79C170.717 178.79 159.757 159.245 162.426 155.768C165.096 152.292 172.107 161.398 172.107 161.398C172.107 161.398 165.961 149.168 169.488 146.585C173.015 144.001 175.669 151.932 175.669 151.932C175.669 151.932 175.548 138.176 180.813 139.186C186.078 140.196 179.697 158.536 179.697 158.536C179.697 158.536 183.972 151.314 189.049 156.379C194.127 161.445 179.639 169.736 179.639 169.736C179.639 169.736 184.947 166.432 187.39 169.223C189.832 172.014 170.717 178.79 170.717 178.79Z" stroke="#B2B2B2" stroke-width="0.44" stroke-miterlimit="10"/>
<path d="M187.37 169.223C185.225 166.772 180.872 169.019 179.843 169.614C181.643 168.546 193.751 161.073 189.05 156.379C183.961 151.314 179.698 158.536 179.698 158.536C179.698 158.536 186.075 140.188 180.813 139.175L180.645 139.151C179.15 157.186 170.718 178.79 170.718 178.79C170.718 178.79 189.817 172.01 187.37 169.223Z" fill="white" stroke="#B2B2B2" stroke-width="0.44" stroke-miterlimit="10"/>
<path d="M92.9631 188.255C92.9631 188.255 60.1512 185.93 58.0608 179.827C55.9704 173.724 72.7718 172.511 72.7718 172.511C72.7718 172.511 52.8075 170.162 52.506 163.758C52.2046 157.354 64.0344 160.493 64.0344 160.493C64.0344 160.493 47.0805 149.532 52.5687 143.903C58.0569 138.274 75.3789 160.889 75.3789 160.889C75.3789 160.889 69.9807 149.818 80.2838 147.693C90.587 145.567 89.0525 170.033 89.0525 170.033C89.0525 170.033 89.2913 160.865 94.6816 160.121C100.072 159.378 92.9631 188.255 92.9631 188.255Z" stroke="#B2B2B2" stroke-width="0.44" stroke-miterlimit="10"/>
<path d="M94.6929 160.121C89.9563 160.775 89.2125 167.923 89.0833 169.653C89.2242 166.584 89.8662 145.716 80.2951 147.693C69.9919 149.818 75.3901 160.889 75.3901 160.889C75.3901 160.889 58.0682 138.27 52.5799 143.903C52.522 143.962 52.4671 144.023 52.4155 144.087C73.3115 160.482 92.9744 188.255 92.9744 188.255C92.9744 188.255 100.072 159.37 94.6929 160.121Z" fill="white" stroke="#B2B2B2" stroke-width="0.44" stroke-miterlimit="10"/>
<path d="M105.959 157.917C107.611 155.455 107.611 153.302 106.582 151.329C103.971 153.013 100.71 155.032 97.727 156.657C97.0576 157.021 96.4 157.366 95.7697 157.683C89.1149 161.002 72.0631 161.002 69.2172 147.724C66.3713 134.446 75.3826 131.843 76.8036 125.677C77.1951 123.97 77.0072 121.7 76.5335 119.312C72.3528 109.749 71.2958 99.6765 72.7755 95.0964C75.3826 87.0364 82.7303 82.057 90.3167 82.5307C96.7053 82.9221 109.995 86.3278 112.837 86.5627C115.679 86.7976 123.015 86.089 123.015 86.089C123.015 86.089 136.293 88.2225 144.827 83.7168C153.361 79.2111 166.874 77.7901 171.38 85.6114C175.885 93.4328 173.987 97.9423 169.72 106.95C165.453 115.957 172.801 118.091 174.46 127.811C175.67 134.904 169.309 139.472 165.782 141.421C165.061 141.827 164.317 142.191 163.554 142.51L154.308 140.137L150.993 151.991C150.993 151.991 158.101 156.262 168.534 166.216C175.294 172.671 181.26 181.017 184.619 186.091C186.443 188.831 187.5 190.635 187.5 190.635H86.0459C86.0459 190.635 87.6117 187.962 89.9057 184.059C94.3957 176.457 101.739 164.185 105.959 157.917Z" fill="#FFC100" stroke="#B2B2B2" stroke-width="0.44" stroke-miterlimit="10"/>
<path d="M184.63 186.091C180.767 186.744 175.306 187.351 170.518 186.686C161.996 185.511 167.915 177.925 169.571 173.662C171.227 169.399 157.718 177.925 154.195 175.322C150.671 172.719 159.879 164.428 157.745 159.93C155.612 155.432 147.328 159.93 143.304 156.144C139.28 152.359 147.563 149.039 148.749 146.671C149.936 144.303 137.503 141.563 139.041 133.651C140.58 125.74 146.87 136.489 148.276 134.125C149.681 131.76 140.212 126.546 140.685 120.616C141.159 114.685 147.79 118.486 147.79 118.486C147.79 118.486 152.288 130.797 161.758 138.842C162.992 139.86 164.347 140.722 165.793 141.406C165.073 141.812 164.329 142.175 163.566 142.494L154.32 140.122L151.004 151.975C151.004 151.975 158.113 156.246 168.545 166.201C175.306 172.679 181.272 181.017 184.63 186.091Z" fill="white" stroke="#B2B2B2" stroke-width="0.44" stroke-miterlimit="10"/>
<path d="M120.087 160.642C116.301 163.719 107.302 158.509 109.196 164.666C111.091 170.824 117.096 175.913 111.251 177.393C105.407 178.872 102.095 172.48 100.435 176.269C98.7757 180.058 103.751 183.844 100.909 186.212C99.1945 187.641 94.1291 185.625 89.9053 184.059C94.3953 176.457 101.731 164.185 105.955 157.918C107.611 155.455 107.611 153.302 106.581 151.329C103.97 153.013 100.709 155.032 97.7266 156.657C99.6369 152.488 100.592 146.871 98.3059 139.805C98.3059 139.805 94.865 120.506 98.0671 118.024C101.269 115.542 101.383 130.57 103.751 130.335C106.119 130.101 104.225 120.158 111.091 122.283C117.957 124.409 107.54 133.177 109.431 136.963C111.322 140.748 121.981 128.914 124.35 136.254C126.718 143.594 113.459 149.039 115.589 151.408C117.718 153.776 123.876 157.561 120.087 160.642Z" fill="white" stroke="#B2B2B2" stroke-width="0.44" stroke-miterlimit="10"/>
<path d="M112.723 190.635C117.754 179.808 131.513 149.078 129.192 142.271C126.346 133.976 112.125 104.816 112.125 104.816L135.119 101.97C135.119 101.97 133.459 122.831 137.491 141.562C140.701 156.493 154.014 181.225 159.276 190.635H112.723Z" fill="#757575" stroke="#B2B2B2" stroke-width="0.44" stroke-miterlimit="10"/>
<path d="M162.806 130.312C162.806 130.312 165.691 130.829 167.34 130.418C168.988 130.007 169.814 130.418 171.974 130.519C174.135 130.621 176.507 129.075 176.817 130.21C177.126 131.345 176.715 132.477 174.55 133.404C172.385 134.332 172.902 134.332 168.678 134.125C164.454 133.917 160.129 130.93 162.806 130.312Z" fill="white" stroke="#B2B2B2" stroke-width="0.44" stroke-miterlimit="10"/>
<path d="M139.385 143.222C139.385 143.222 146.04 144.643 148.158 144.17C150.276 143.696 157.162 142.271 157.162 142.271L159.769 143.931L164.274 150.096C164.274 150.096 168.541 153.416 170.44 152.942C172.338 152.469 169.489 150.809 167.594 148.91C165.699 147.012 163.562 142.51 163.562 142.51C163.562 142.51 169.727 147.724 170.44 148.671C171.152 149.619 172.808 151.756 174.468 152.942C176.128 154.128 177.905 153.725 177.431 152.77C176.958 151.815 175.654 148.91 175.18 148.198C174.707 147.485 167.112 140.611 167.112 140.611L171.853 142.51C171.853 142.51 176.942 148.742 180.719 148.033C182.497 147.701 175.407 140.596 174.225 139.903C173.043 139.21 169.258 135.882 169.258 135.882L176.116 137.531C176.116 137.531 178.359 139.738 179.067 140.924C179.776 142.111 182.281 142.51 181.569 140.85C180.856 139.19 178.011 134.195 177.063 133.737C176.116 133.279 175.403 133.502 170.663 132.563C165.922 131.623 155.964 127.11 153.83 128.535C151.697 129.96 141.276 135.882 141.276 135.882C141.276 135.882 132.03 137.781 111.878 137.781C91.7256 137.781 89.1185 136.607 83.6655 140.149C78.2125 143.692 77.0303 155.322 92.438 156.27C107.846 157.217 139.385 143.222 139.385 143.222Z" fill="white" stroke="#B2B2B2" stroke-width="0.44" stroke-miterlimit="10"/>
<path d="M134.23 29.0146C134.23 29.0146 109.799 14.7891 106.006 18.5823C102.212 22.3755 106.718 24.7478 105.532 27.8403C104.346 30.9328 90.1242 47.5188 85.1448 55.1053C80.1655 62.6917 90.6252 72.5055 109.807 78.029C128.988 83.5524 149.367 78.7375 152.475 73.9148C161.252 60.2842 140.376 49.6444 141.084 43.7256C141.793 37.8068 139.197 32.5691 134.23 29.0146Z" fill="#757575" stroke="#B2B2B2" stroke-width="0.44" stroke-miterlimit="10"/>
<path d="M126.112 56.6905C126.112 56.6905 123.266 72.8107 125.399 81.3522C126.648 86.3433 130.653 90.0582 133.749 93.9415C136.665 97.6016 137.519 102.894 135.659 107.224C133.862 111.4 129.936 113.452 125.481 113.307C116.086 112.998 102.965 105.086 108.112 94.1568C111.906 86.0967 114.039 76.1498 114.039 72.106C114.039 68.0623 124.444 52.4236 126.112 56.6905Z" fill="white" stroke="#B2B2B2" stroke-width="0.44" stroke-miterlimit="10"/>
<path d="M133.447 64.0382C133.447 64.0382 128.233 66.4104 126.334 67.8314C124.436 69.2524 121.359 69.4912 120.408 71.8634C119.456 74.2357 119.934 78.9762 118.987 81.8182C118.039 84.6602 121.359 81.8182 121.832 80.1584C122.306 78.4986 122.541 75.8915 123.253 74.7093C123.966 73.5271 127.52 71.8634 127.52 71.8634C126.72 73.371 126.085 74.9604 125.626 76.604C124.913 79.2111 123.253 84.4331 122.78 85.1377C122.306 85.8424 124.44 86.3121 125.387 84.9029C126.334 83.4936 128.468 78.025 128.706 77.3164C128.945 76.6079 132.5 71.151 132.5 71.151C132.5 71.151 130.84 76.3691 130.601 79.2111C130.362 82.0531 128.468 85.6114 130.366 84.6641C132.265 83.7167 133.447 81.8182 133.686 80.636C133.925 79.4538 135.58 72.5759 135.58 72.5759L138.187 70.4424C137.859 72.6055 137.384 74.7439 136.767 76.8428C135.819 79.9235 134.633 80.8709 135.592 81.1096C136.551 81.3484 138.912 78.9762 139.385 77.3164C139.859 75.6566 139.503 72.5641 141.045 71.6246C142.22 70.9004 145.566 68.3168 146.733 64.0382C147.637 60.7421 148.632 61.1962 148.632 61.1962C148.632 61.1962 148.393 76.3691 147.457 87.7448C146.522 99.1206 142.717 120.698 144.85 125.677C146.984 130.656 157.651 134.211 162.156 126.624C166.662 119.038 164.051 110.504 160.023 92.959C155.995 75.4139 153.149 54.792 150.777 53.6059C148.405 52.4198 144.126 52.8934 133.447 64.0382Z" fill="white" stroke="#B2B2B2" stroke-width="0.44" stroke-miterlimit="10"/>
<path d="M130.934 52.1105C130.934 64.8603 124.299 75.23 116.058 75.4922C115.953 75.4922 115.843 75.4922 115.734 75.4922C107.329 75.4922 100.518 65.0208 100.518 52.1027C100.518 39.1846 107.329 28.717 115.734 28.717C124.138 28.717 130.934 39.1924 130.934 52.1105Z" fill="white" stroke="#B2B2B2" stroke-width="0.44" stroke-miterlimit="10"/>
<path d="M116.046 75.4844C115.941 75.4844 115.831 75.4844 115.721 75.4844C107.317 75.4844 100.505 65.0129 100.505 52.0949C100.505 39.1768 107.317 28.7092 115.721 28.7092C112.826 31.1998 110.746 34.5031 109.752 38.1903C108.092 44.3558 108.092 59.7635 108.092 59.7635L114.265 60.245C114.265 60.245 114.966 69.2877 116.046 75.4844Z" fill="#FFC100" stroke="#B2B2B2" stroke-width="0.44" stroke-miterlimit="10"/>
<path d="M115.678 48.7518C115.678 48.7518 112.993 46.2308 113.193 44.3166C113.392 42.4024 117.601 40.0106 121.413 40.7308C125.226 41.4511 129.845 45.5379 125.88 48.7518C121.914 51.9657 115.678 48.7518 115.678 48.7518Z" fill="#757575" stroke="#B2B2B2" stroke-width="0.44" stroke-miterlimit="10"/>
<path d="M115.678 48.9788C115.678 48.9788 112.993 46.865 113.193 45.2639C113.392 43.6629 117.601 41.6547 121.413 42.2575C125.226 42.8604 129.837 46.2895 125.872 48.9788C121.907 51.6681 115.678 48.9788 115.678 48.9788Z" fill="#FFC100" stroke="#B2B2B2" stroke-width="0.44" stroke-miterlimit="10"/>
<path d="M125.873 48.9789C125.873 48.9789 123.591 51.4686 120.784 51.4686C117.977 51.4686 115.695 48.9789 115.695 48.9789C115.695 48.9789 117.977 46.4893 120.784 46.4893C123.591 46.4893 125.873 48.9789 125.873 48.9789Z" fill="white" stroke="#B2B2B2" stroke-width="0.44" stroke-miterlimit="10"/>
<path d="M133.729 48.1215C133.729 48.1215 136.727 27.8167 140.622 26.8067C144.517 25.7967 144.478 36.3034 144.478 36.3034C144.478 36.3034 146.878 24.0039 150.882 24.1096C154.887 24.2153 152.366 31.4376 152.366 31.4376C152.366 31.4376 159.987 21.4046 163.233 25.0999C166.478 28.7953 151.583 38.4878 151.583 38.4878C151.583 38.4878 158.727 35.6536 159.565 42.1636C160.402 48.6735 145.249 46.5518 145.249 46.5518C145.249 46.5518 150.945 47.1311 151.148 50.5212C151.352 53.9112 133.729 48.1215 133.729 48.1215Z" fill="white" stroke="#B2B2B2" stroke-width="0.44" stroke-miterlimit="10"/>
<path d="M151.149 50.5211C150.969 47.5421 146.557 46.7318 145.484 46.5791C147.387 46.814 160.34 48.1841 159.577 42.1517C158.739 35.6418 151.595 38.476 151.595 38.476C151.595 38.476 166.49 28.7678 163.245 25.0881L163.139 24.9746C151.951 37.1998 133.741 48.1215 133.741 48.1215C133.741 48.1215 151.356 53.9072 151.149 50.5211Z" fill="#FFC100" stroke="#B2B2B2" stroke-width="0.44" stroke-miterlimit="10"/>
<path d="M188.373 177.682C188.373 177.682 188.549 177.029 188.557 176.986C188.627 176.492 188.467 175.498 187.966 175.255C187.881 175.217 187.79 175.197 187.697 175.196C187.605 175.196 187.513 175.214 187.428 175.251C187.344 175.288 187.267 175.342 187.205 175.41C187.142 175.479 187.095 175.559 187.065 175.647C187.02 175.843 187.018 176.046 187.059 176.243C187.1 176.439 187.184 176.625 187.304 176.786C187.615 177.135 187.975 177.437 188.373 177.682Z" fill="#263238"/>
<path d="M178.465 177.471C178.916 177.588 179.381 177.64 179.847 177.624C179.847 177.624 179.635 176.982 179.616 176.943C179.401 176.492 178.723 175.749 178.167 175.823C178.076 175.838 177.989 175.873 177.911 175.924C177.834 175.975 177.768 176.042 177.718 176.12C177.668 176.199 177.636 176.286 177.622 176.378C177.608 176.47 177.614 176.564 177.639 176.653C177.709 176.841 177.819 177.012 177.962 177.153C178.105 177.294 178.276 177.403 178.465 177.471Z" fill="#263238"/>
<path d="M178.798 180.309C179.259 180.304 179.717 180.232 180.156 180.094C180.3 180.595 180.478 181.085 180.689 181.562C180.806 181.84 180.939 182.118 181.08 182.396C180.998 182.278 180.927 182.172 180.916 182.161C180.591 181.769 179.741 181.245 179.225 181.464C179.14 181.502 179.064 181.558 179.002 181.627C178.941 181.697 178.894 181.779 178.867 181.868C178.839 181.956 178.83 182.05 178.841 182.142C178.852 182.235 178.883 182.324 178.931 182.403C179.049 182.566 179.2 182.702 179.375 182.8C179.55 182.899 179.745 182.959 179.945 182.975C180.392 182.975 180.837 182.906 181.264 182.771C181.319 182.877 181.37 182.983 181.421 183.088C181.675 183.59 181.93 184.094 182.164 184.592C182.251 184.768 182.325 184.948 182.399 185.124C182.329 185.018 182.27 184.932 182.258 184.92C181.93 184.529 181.084 184.004 180.563 184.224C180.479 184.263 180.404 184.319 180.343 184.389C180.282 184.459 180.237 184.54 180.209 184.629C180.182 184.718 180.174 184.811 180.185 184.903C180.196 184.995 180.226 185.084 180.274 185.163C180.391 185.326 180.542 185.462 180.718 185.561C180.893 185.66 181.087 185.719 181.288 185.735C181.723 185.736 182.156 185.67 182.572 185.539C182.646 185.723 182.716 185.907 182.779 186.087C182.842 186.267 182.865 186.33 182.897 186.455L183.002 186.827C183.057 187.066 183.12 187.312 183.171 187.547C183.206 187.708 183.237 187.864 183.268 188.021C183.19 187.845 183.022 187.5 183.006 187.477C182.74 187.054 181.981 186.392 181.44 186.533C181.351 186.558 181.268 186.601 181.196 186.66C181.125 186.719 181.067 186.793 181.026 186.876C180.985 186.959 180.962 187.05 180.958 187.143C180.955 187.236 180.971 187.328 181.006 187.414C181.097 187.593 181.226 187.75 181.384 187.874C181.543 187.998 181.726 188.085 181.922 188.13C182.376 188.201 182.838 188.201 183.292 188.13C183.341 188.391 183.388 188.642 183.433 188.882C183.578 189.712 183.672 190.405 183.726 190.89H184.118V190.847C184.051 190.358 183.946 189.673 183.777 188.823C183.726 188.557 183.664 188.279 183.601 187.989C183.863 187.886 184.118 187.766 184.364 187.629C184.701 187.918 185.075 188.161 185.476 188.35C185.378 188.592 185.28 188.831 185.183 189.054C184.846 189.837 184.537 190.456 184.318 190.89H184.732C184.94 190.456 185.202 189.876 185.488 189.183C185.59 188.933 185.692 188.667 185.797 188.401C186.244 188.507 186.705 188.543 187.163 188.506C187.362 188.475 187.551 188.401 187.718 188.29C187.885 188.178 188.026 188.032 188.13 187.86C188.171 187.777 188.194 187.686 188.197 187.593C188.2 187.501 188.184 187.408 188.149 187.322C188.115 187.236 188.062 187.159 187.996 187.094C187.929 187.03 187.849 186.98 187.762 186.948C187.234 186.768 186.427 187.371 186.13 187.774L185.852 188.252L185.981 187.911C186.063 187.68 186.142 187.449 186.224 187.199C186.263 187.077 186.298 186.956 186.337 186.831C186.377 186.706 186.4 186.572 186.435 186.439C186.506 186.138 186.564 185.829 186.615 185.515C187.03 185.678 187.467 185.778 187.911 185.813C188.112 185.812 188.31 185.767 188.492 185.682C188.673 185.597 188.835 185.473 188.964 185.32C189.018 185.244 189.054 185.158 189.072 185.067C189.09 184.976 189.089 184.882 189.068 184.791C189.047 184.701 189.008 184.616 188.952 184.542C188.897 184.467 188.826 184.406 188.745 184.361C188.248 184.102 187.355 184.576 187.003 184.928C186.983 184.952 186.756 185.23 186.635 185.386C186.666 185.198 186.698 184.995 186.721 184.819C186.788 184.267 186.838 183.703 186.893 183.143C186.913 182.971 186.929 182.799 186.948 182.627C187.376 182.799 187.827 182.905 188.287 182.94C188.488 182.94 188.686 182.896 188.868 182.811C189.051 182.725 189.211 182.601 189.34 182.446C189.393 182.371 189.43 182.285 189.447 182.194C189.465 182.103 189.463 182.009 189.442 181.919C189.421 181.829 189.381 181.744 189.325 181.67C189.269 181.597 189.198 181.536 189.117 181.491C188.62 181.233 187.731 181.707 187.379 182.059C187.351 182.086 187.026 182.49 186.952 182.595C186.991 182.204 187.034 181.844 187.093 181.476C187.168 180.977 187.275 180.484 187.414 180C187.844 180.172 188.298 180.279 188.761 180.317C188.961 180.316 189.159 180.271 189.341 180.186C189.523 180.101 189.684 179.977 189.814 179.824C189.867 179.748 189.903 179.661 189.921 179.57C189.939 179.479 189.937 179.385 189.916 179.294C189.895 179.204 189.855 179.119 189.799 179.045C189.743 178.971 189.672 178.909 189.59 178.865C189.093 178.61 188.205 179.08 187.852 179.432C187.829 179.456 187.582 179.765 187.461 179.914H187.43C187.586 179.431 187.782 178.962 188.017 178.512C188.142 178.266 188.279 178.035 188.408 177.812C188.807 178.028 189.238 178.18 189.684 178.262C189.885 178.281 190.088 178.256 190.278 178.188C190.468 178.121 190.641 178.012 190.784 177.87C190.846 177.801 190.892 177.719 190.919 177.631C190.947 177.542 190.955 177.449 190.944 177.357C190.933 177.265 190.903 177.176 190.855 177.096C190.807 177.017 190.743 176.949 190.667 176.896C190.201 176.586 189.266 176.958 188.878 177.267C188.854 177.267 188.659 177.479 188.518 177.624L188.706 177.33C188.941 176.978 189.175 176.669 189.387 176.398C189.508 176.246 189.622 176.109 189.727 175.984C190.178 175.989 190.627 175.924 191.058 175.792C191.245 175.719 191.414 175.607 191.553 175.462C191.691 175.317 191.797 175.144 191.861 174.954C191.884 174.864 191.887 174.77 191.871 174.678C191.855 174.587 191.82 174.5 191.768 174.423C191.716 174.346 191.648 174.281 191.569 174.232C191.49 174.183 191.401 174.152 191.309 174.14C190.753 174.081 190.095 174.84 189.892 175.314C189.892 175.353 189.673 175.999 189.68 175.999L189.348 176.391C189.129 176.657 188.886 176.962 188.643 177.311C188.378 177.688 188.135 178.08 187.915 178.485C187.668 178.933 187.461 179.402 187.296 179.886V179.906C187.296 179.741 187.296 179.283 187.296 179.248C187.234 178.755 186.819 177.835 186.267 177.733C186.175 177.72 186.082 177.725 185.993 177.75C185.904 177.774 185.821 177.817 185.749 177.876C185.677 177.934 185.619 178.008 185.577 178.09C185.536 178.173 185.512 178.263 185.508 178.356C185.52 178.546 185.572 178.731 185.66 178.899C185.749 179.068 185.871 179.216 186.02 179.334C186.406 179.589 186.828 179.781 187.273 179.906C187.119 180.404 186.996 180.911 186.905 181.425C186.854 181.722 186.807 182.028 186.768 182.329C186.768 182.188 186.768 182.063 186.768 182.043C186.705 181.55 186.29 180.634 185.742 180.532C185.651 180.517 185.556 180.522 185.467 180.546C185.377 180.57 185.293 180.613 185.221 180.672C185.148 180.73 185.09 180.804 185.048 180.887C185.006 180.97 184.983 181.062 184.979 181.155C184.987 181.355 185.039 181.551 185.13 181.729C185.221 181.908 185.35 182.064 185.508 182.188C185.883 182.435 186.293 182.624 186.725 182.748C186.725 182.865 186.694 182.979 186.682 183.096C186.611 183.656 186.549 184.216 186.471 184.764C186.443 184.956 186.408 185.155 186.373 185.335C186.373 185.21 186.373 185.104 186.373 185.089C186.31 184.592 185.895 183.676 185.347 183.574C185.254 183.556 185.158 183.558 185.065 183.581C184.973 183.603 184.887 183.645 184.812 183.705C184.738 183.764 184.677 183.838 184.634 183.923C184.591 184.008 184.567 184.101 184.564 184.196C184.572 184.397 184.623 184.593 184.714 184.771C184.806 184.95 184.935 185.106 185.093 185.23C185.454 185.472 185.85 185.657 186.267 185.778C186.224 185.97 186.185 186.169 186.138 186.349C186.091 186.529 186.075 186.596 186.032 186.721L185.915 187.089C185.829 187.32 185.746 187.559 185.656 187.782L185.48 188.232C185.508 188.04 185.558 187.665 185.562 187.633C185.555 187.195 185.437 186.765 185.218 186.385C185.222 186.335 185.222 186.285 185.218 186.236C185.206 186.144 185.175 186.056 185.127 185.977C185.079 185.898 185.015 185.83 184.939 185.777C184.863 185.724 184.777 185.688 184.686 185.67C184.595 185.653 184.502 185.655 184.411 185.676C183.871 185.821 183.531 186.768 183.503 187.265C183.503 187.297 183.523 187.618 183.539 187.817L183.456 187.465C183.398 187.226 183.335 186.991 183.268 186.737C183.229 186.615 183.194 186.49 183.155 186.365C183.116 186.24 183.069 186.114 183.026 185.973C182.92 185.68 182.795 185.39 182.666 185.101C183.102 185.009 183.521 184.852 183.91 184.635C184.078 184.524 184.219 184.377 184.324 184.205C184.429 184.033 184.495 183.84 184.517 183.64C184.52 183.548 184.503 183.455 184.467 183.369C184.431 183.284 184.378 183.206 184.31 183.143C184.242 183.079 184.162 183.031 184.074 183C183.986 182.97 183.893 182.959 183.801 182.967C183.249 183.026 182.767 183.911 182.666 184.4C182.666 184.431 182.626 184.791 182.611 184.987C182.532 184.811 182.454 184.639 182.368 184.466C182.121 183.965 181.851 183.468 181.585 182.971C181.503 182.818 181.425 182.666 181.346 182.509C181.798 182.418 182.233 182.257 182.634 182.032C182.802 181.921 182.944 181.775 183.048 181.604C183.153 181.433 183.219 181.241 183.241 181.041C183.243 180.948 183.226 180.856 183.191 180.771C183.156 180.685 183.103 180.608 183.035 180.544C182.968 180.48 182.888 180.431 182.801 180.4C182.714 180.369 182.621 180.357 182.529 180.364C181.973 180.427 181.491 181.311 181.389 181.797C181.389 181.836 181.335 182.353 181.331 182.482C181.155 182.145 180.986 181.808 180.83 181.472C180.618 181.014 180.436 180.544 180.285 180.062C180.738 179.967 181.175 179.806 181.581 179.585C181.749 179.474 181.89 179.327 181.995 179.155C182.1 178.983 182.166 178.791 182.188 178.591C182.19 178.498 182.173 178.406 182.138 178.32C182.103 178.235 182.05 178.157 181.982 178.093C181.915 178.03 181.835 177.981 181.748 177.95C181.661 177.919 181.568 177.906 181.476 177.913C180.92 177.976 180.438 178.861 180.336 179.35C180.336 179.381 180.293 179.773 180.282 179.961H180.25C180.112 179.473 180.017 178.974 179.965 178.469C179.933 178.191 179.921 177.925 179.91 177.667C180.361 177.624 180.804 177.511 181.221 177.334C181.4 177.242 181.556 177.112 181.679 176.953C181.803 176.794 181.889 176.61 181.934 176.414C181.946 176.322 181.939 176.229 181.914 176.14C181.888 176.051 181.844 175.968 181.784 175.897C181.724 175.826 181.65 175.769 181.567 175.728C181.483 175.688 181.392 175.665 181.299 175.663C180.74 175.663 180.164 176.488 180.011 176.966C180.011 176.99 179.945 177.264 179.91 177.459C179.91 177.342 179.91 177.221 179.91 177.111C179.91 176.688 179.937 176.301 179.965 175.956C179.965 175.764 180 175.588 180.019 175.424C180.398 175.179 180.737 174.878 181.025 174.531C181.14 174.367 181.218 174.18 181.254 173.982C181.29 173.785 181.283 173.582 181.233 173.388C181.204 173.299 181.156 173.217 181.092 173.148C181.029 173.078 180.951 173.024 180.865 172.986C180.779 172.949 180.686 172.931 180.592 172.933C180.498 172.935 180.406 172.956 180.321 172.997C179.827 173.255 179.694 174.253 179.777 174.747C179.777 174.786 179.972 175.439 179.98 175.435C179.957 175.592 179.937 175.76 179.918 175.948C179.882 176.289 179.847 176.676 179.839 177.099C179.823 177.556 179.833 178.014 179.871 178.469C179.91 178.98 179.995 179.485 180.125 179.98C180.125 179.98 180.125 179.98 180.125 180C180.039 179.859 179.781 179.483 179.757 179.456C179.432 179.064 178.583 178.544 178.062 178.759C177.978 178.798 177.903 178.854 177.842 178.924C177.781 178.994 177.735 179.076 177.708 179.164C177.681 179.253 177.672 179.346 177.683 179.438C177.695 179.53 177.725 179.619 177.772 179.698C177.886 179.871 178.038 180.016 178.215 180.121C178.393 180.227 178.592 180.291 178.798 180.309Z" fill="#263238"/>
<path opacity="0.3" d="M178.465 177.471C178.916 177.588 179.381 177.64 179.847 177.624C179.847 177.624 179.635 176.982 179.616 176.943C179.401 176.492 178.723 175.749 178.167 175.823C178.076 175.838 177.989 175.873 177.911 175.924C177.834 175.975 177.768 176.042 177.718 176.12C177.668 176.199 177.636 176.286 177.622 176.378C177.608 176.47 177.614 176.564 177.639 176.653C177.709 176.841 177.819 177.012 177.962 177.153C178.105 177.294 178.276 177.403 178.465 177.471Z" fill="#263238"/>
<path opacity="0.3" d="M188.373 177.682C188.373 177.682 188.549 177.029 188.557 176.986C188.627 176.492 188.467 175.498 187.966 175.255C187.881 175.217 187.79 175.197 187.697 175.196C187.605 175.196 187.513 175.214 187.428 175.251C187.344 175.288 187.267 175.342 187.205 175.41C187.142 175.479 187.095 175.559 187.065 175.647C187.02 175.843 187.018 176.046 187.059 176.243C187.1 176.439 187.184 176.625 187.304 176.786C187.615 177.135 187.975 177.437 188.373 177.682Z" fill="#263238"/>
<path opacity="0.3" d="M178.798 180.309C179.259 180.304 179.717 180.232 180.156 180.094C180.3 180.595 180.478 181.085 180.689 181.562C180.806 181.84 180.939 182.118 181.08 182.396C180.998 182.278 180.927 182.172 180.916 182.161C180.591 181.769 179.741 181.245 179.225 181.464C179.14 181.502 179.064 181.558 179.002 181.627C178.941 181.697 178.894 181.779 178.867 181.868C178.839 181.956 178.83 182.05 178.841 182.142C178.852 182.235 178.883 182.324 178.931 182.403C179.049 182.566 179.2 182.702 179.375 182.8C179.55 182.899 179.745 182.959 179.945 182.975C180.392 182.975 180.837 182.906 181.264 182.771C181.319 182.877 181.37 182.983 181.421 183.088C181.675 183.59 181.93 184.094 182.164 184.592C182.251 184.768 182.325 184.948 182.399 185.124C182.329 185.018 182.27 184.932 182.258 184.92C181.93 184.529 181.084 184.004 180.563 184.224C180.479 184.263 180.404 184.319 180.343 184.389C180.282 184.459 180.237 184.54 180.209 184.629C180.182 184.718 180.174 184.811 180.185 184.903C180.196 184.995 180.226 185.084 180.274 185.163C180.391 185.326 180.542 185.462 180.718 185.561C180.893 185.66 181.087 185.719 181.288 185.735C181.723 185.736 182.156 185.67 182.572 185.539C182.646 185.723 182.716 185.907 182.779 186.087C182.842 186.267 182.865 186.33 182.897 186.455L183.002 186.827C183.057 187.066 183.12 187.312 183.171 187.547C183.206 187.708 183.237 187.864 183.268 188.021C183.19 187.845 183.022 187.5 183.006 187.477C182.74 187.054 181.981 186.392 181.44 186.533C181.351 186.558 181.268 186.601 181.196 186.66C181.125 186.719 181.067 186.793 181.026 186.876C180.985 186.959 180.962 187.05 180.958 187.143C180.955 187.236 180.971 187.328 181.006 187.414C181.097 187.593 181.226 187.75 181.384 187.874C181.543 187.998 181.726 188.085 181.922 188.13C182.376 188.201 182.838 188.201 183.292 188.13C183.341 188.391 183.388 188.642 183.433 188.882C183.578 189.712 183.672 190.405 183.726 190.89H184.118V190.847C184.051 190.358 183.946 189.673 183.777 188.823C183.726 188.557 183.664 188.279 183.601 187.989C183.863 187.886 184.118 187.766 184.364 187.629C184.701 187.918 185.075 188.161 185.476 188.35C185.378 188.592 185.28 188.831 185.183 189.054C184.846 189.837 184.537 190.456 184.318 190.89H184.732C184.94 190.456 185.202 189.876 185.488 189.183C185.59 188.933 185.692 188.667 185.797 188.401C186.244 188.507 186.705 188.543 187.163 188.506C187.362 188.475 187.551 188.401 187.718 188.29C187.885 188.178 188.026 188.032 188.13 187.86C188.171 187.777 188.194 187.686 188.197 187.593C188.2 187.501 188.184 187.408 188.149 187.322C188.115 187.236 188.062 187.159 187.996 187.094C187.929 187.03 187.849 186.98 187.762 186.948C187.234 186.768 186.427 187.371 186.13 187.774L185.852 188.252L185.981 187.911C186.063 187.68 186.142 187.449 186.224 187.199C186.263 187.077 186.298 186.956 186.337 186.831C186.377 186.706 186.4 186.572 186.435 186.439C186.506 186.138 186.564 185.829 186.615 185.515C187.03 185.678 187.467 185.778 187.911 185.813C188.112 185.812 188.31 185.767 188.492 185.682C188.673 185.597 188.835 185.473 188.964 185.32C189.018 185.244 189.054 185.158 189.072 185.067C189.09 184.976 189.089 184.882 189.068 184.791C189.047 184.701 189.008 184.616 188.952 184.542C188.897 184.467 188.826 184.406 188.745 184.361C188.248 184.102 187.355 184.576 187.003 184.928C186.983 184.952 186.756 185.23 186.635 185.386C186.666 185.198 186.698 184.995 186.721 184.819C186.788 184.267 186.838 183.703 186.893 183.143C186.913 182.971 186.929 182.799 186.948 182.627C187.376 182.799 187.827 182.905 188.287 182.94C188.488 182.94 188.686 182.896 188.868 182.811C189.051 182.725 189.211 182.601 189.34 182.446C189.393 182.371 189.43 182.285 189.447 182.194C189.465 182.103 189.463 182.009 189.442 181.919C189.421 181.829 189.381 181.744 189.325 181.67C189.269 181.597 189.198 181.536 189.117 181.491C188.62 181.233 187.731 181.707 187.379 182.059C187.351 182.086 187.026 182.49 186.952 182.595C186.991 182.204 187.034 181.844 187.093 181.476C187.168 180.977 187.275 180.484 187.414 180C187.844 180.172 188.298 180.279 188.761 180.317C188.961 180.316 189.159 180.271 189.341 180.186C189.523 180.101 189.684 179.977 189.814 179.824C189.867 179.748 189.903 179.661 189.921 179.57C189.939 179.479 189.937 179.385 189.916 179.294C189.895 179.204 189.855 179.119 189.799 179.045C189.743 178.971 189.672 178.909 189.59 178.865C189.093 178.61 188.205 179.08 187.852 179.432C187.829 179.456 187.582 179.765 187.461 179.914H187.43C187.586 179.431 187.782 178.962 188.017 178.512C188.142 178.266 188.279 178.035 188.408 177.812C188.807 178.028 189.238 178.18 189.684 178.262C189.885 178.281 190.088 178.256 190.278 178.188C190.468 178.121 190.641 178.012 190.784 177.87C190.846 177.801 190.892 177.719 190.919 177.631C190.947 177.542 190.955 177.449 190.944 177.357C190.933 177.265 190.903 177.176 190.855 177.096C190.807 177.017 190.743 176.949 190.667 176.896C190.201 176.586 189.266 176.958 188.878 177.267C188.854 177.267 188.659 177.479 188.518 177.624L188.706 177.33C188.941 176.978 189.175 176.669 189.387 176.398C189.508 176.246 189.622 176.109 189.727 175.984C190.178 175.989 190.627 175.924 191.058 175.792C191.245 175.719 191.414 175.607 191.553 175.462C191.691 175.317 191.797 175.144 191.861 174.954C191.884 174.864 191.887 174.77 191.871 174.678C191.855 174.587 191.82 174.5 191.768 174.423C191.716 174.346 191.648 174.281 191.569 174.232C191.49 174.183 191.401 174.152 191.309 174.14C190.753 174.081 190.095 174.84 189.892 175.314C189.892 175.353 189.673 175.999 189.68 175.999L189.348 176.391C189.129 176.657 188.886 176.962 188.643 177.311C188.378 177.688 188.135 178.08 187.915 178.485C187.668 178.933 187.461 179.402 187.296 179.886V179.906C187.296 179.741 187.296 179.283 187.296 179.248C187.234 178.755 186.819 177.835 186.267 177.733C186.175 177.72 186.082 177.725 185.993 177.75C185.904 177.774 185.821 177.817 185.749 177.876C185.677 177.934 185.619 178.008 185.577 178.09C185.536 178.173 185.512 178.263 185.508 178.356C185.52 178.546 185.572 178.731 185.66 178.899C185.749 179.068 185.871 179.216 186.02 179.334C186.406 179.589 186.828 179.781 187.273 179.906C187.119 180.404 186.996 180.911 186.905 181.425C186.854 181.722 186.807 182.028 186.768 182.329C186.768 182.188 186.768 182.063 186.768 182.043C186.705 181.55 186.29 180.634 185.742 180.532C185.651 180.517 185.556 180.522 185.467 180.546C185.377 180.57 185.293 180.613 185.221 180.672C185.148 180.73 185.09 180.804 185.048 180.887C185.006 180.97 184.983 181.062 184.979 181.155C184.987 181.355 185.039 181.551 185.13 181.729C185.221 181.908 185.35 182.064 185.508 182.188C185.883 182.435 186.293 182.624 186.725 182.748C186.725 182.865 186.694 182.979 186.682 183.096C186.611 183.656 186.549 184.216 186.471 184.764C186.443 184.956 186.408 185.155 186.373 185.335C186.373 185.21 186.373 185.104 186.373 185.089C186.31 184.592 185.895 183.676 185.347 183.574C185.254 183.556 185.158 183.558 185.065 183.581C184.973 183.603 184.887 183.645 184.812 183.705C184.738 183.764 184.677 183.838 184.634 183.923C184.591 184.008 184.567 184.101 184.564 184.196C184.572 184.397 184.623 184.593 184.714 184.771C184.806 184.95 184.935 185.106 185.093 185.23C185.454 185.472 185.85 185.657 186.267 185.778C186.224 185.97 186.185 186.169 186.138 186.349C186.091 186.529 186.075 186.596 186.032 186.721L185.915 187.089C185.829 187.32 185.746 187.559 185.656 187.782L185.48 188.232C185.508 188.04 185.558 187.665 185.562 187.633C185.555 187.195 185.437 186.765 185.218 186.385C185.222 186.335 185.222 186.285 185.218 186.236C185.206 186.144 185.175 186.056 185.127 185.977C185.079 185.898 185.015 185.83 184.939 185.777C184.863 185.724 184.777 185.688 184.686 185.67C184.595 185.653 184.502 185.655 184.411 185.676C183.871 185.821 183.531 186.768 183.503 187.265C183.503 187.297 183.523 187.618 183.539 187.817L183.456 187.465C183.398 187.226 183.335 186.991 183.268 186.737C183.229 186.615 183.194 186.49 183.155 186.365C183.116 186.24 183.069 186.114 183.026 185.973C182.92 185.68 182.795 185.39 182.666 185.101C183.102 185.009 183.521 184.852 183.91 184.635C184.078 184.524 184.219 184.377 184.324 184.205C184.429 184.033 184.495 183.84 184.517 183.64C184.52 183.548 184.503 183.455 184.467 183.369C184.431 183.284 184.378 183.206 184.31 183.143C184.242 183.079 184.162 183.031 184.074 183C183.986 182.97 183.893 182.959 183.801 182.967C183.249 183.026 182.767 183.911 182.666 184.4C182.666 184.431 182.626 184.791 182.611 184.987C182.532 184.811 182.454 184.639 182.368 184.466C182.121 183.965 181.851 183.468 181.585 182.971C181.503 182.818 181.425 182.666 181.346 182.509C181.798 182.418 182.233 182.257 182.634 182.032C182.802 181.921 182.944 181.775 183.048 181.604C183.153 181.433 183.219 181.241 183.241 181.041C183.243 180.948 183.226 180.856 183.191 180.771C183.156 180.685 183.103 180.608 183.035 180.544C182.968 180.48 182.888 180.431 182.801 180.4C182.714 180.369 182.621 180.357 182.529 180.364C181.973 180.427 181.491 181.311 181.389 181.797C181.389 181.836 181.335 182.353 181.331 182.482C181.155 182.145 180.986 181.808 180.83 181.472C180.618 181.014 180.436 180.544 180.285 180.062C180.738 179.967 181.175 179.806 181.581 179.585C181.749 179.474 181.89 179.327 181.995 179.155C182.1 178.983 182.166 178.791 182.188 178.591C182.19 178.498 182.173 178.406 182.138 178.32C182.103 178.235 182.05 178.157 181.982 178.093C181.915 178.03 181.835 177.981 181.748 177.95C181.661 177.919 181.568 177.906 181.476 177.913C180.92 177.976 180.438 178.861 180.336 179.35C180.336 179.381 180.293 179.773 180.282 179.961H180.25C180.112 179.473 180.017 178.974 179.965 178.469C179.933 178.191 179.921 177.925 179.91 177.667C180.361 177.624 180.804 177.511 181.221 177.334C181.4 177.242 181.556 177.112 181.679 176.953C181.803 176.794 181.889 176.61 181.934 176.414C181.946 176.322 181.939 176.229 181.914 176.14C181.888 176.051 181.844 175.968 181.784 175.897C181.724 175.826 181.65 175.769 181.567 175.728C181.483 175.688 181.392 175.665 181.299 175.663C180.74 175.663 180.164 176.488 180.011 176.966C180.011 176.99 179.945 177.264 179.91 177.459C179.91 177.342 179.91 177.221 179.91 177.111C179.91 176.688 179.937 176.301 179.965 175.956C179.965 175.764 180 175.588 180.019 175.424C180.398 175.179 180.737 174.878 181.025 174.531C181.14 174.367 181.218 174.18 181.254 173.982C181.29 173.785 181.283 173.582 181.233 173.388C181.204 173.299 181.156 173.217 181.092 173.148C181.029 173.078 180.951 173.024 180.865 172.986C180.779 172.949 180.686 172.931 180.592 172.933C180.498 172.935 180.406 172.956 180.321 172.997C179.827 173.255 179.694 174.253 179.777 174.747C179.777 174.786 179.972 175.439 179.98 175.435C179.957 175.592 179.937 175.76 179.918 175.948C179.882 176.289 179.847 176.676 179.839 177.099C179.823 177.556 179.833 178.014 179.871 178.469C179.91 178.98 179.995 179.485 180.125 179.98C180.125 179.98 180.125 179.98 180.125 180C180.039 179.859 179.781 179.483 179.757 179.456C179.432 179.064 178.583 178.544 178.062 178.759C177.978 178.798 177.903 178.854 177.842 178.924C177.781 178.994 177.735 179.076 177.708 179.164C177.681 179.253 177.672 179.346 177.683 179.438C177.695 179.53 177.725 179.619 177.772 179.698C177.886 179.871 178.038 180.016 178.215 180.121C178.393 180.227 178.592 180.291 178.798 180.309Z" fill="#263238"/>
<g opacity="0.3">
<path d="M36.3857 64.9856H47.2017" stroke="black" stroke-width="0.44" stroke-miterlimit="10"/>
<path d="M41.3027 65.6667V68.7553" stroke="black" stroke-width="0.44" stroke-miterlimit="10"/>
<path d="M31.9858 65.6667V68.7553" stroke="black" stroke-width="0.44" stroke-miterlimit="10"/>
<path d="M33.9976 68.8962H49.8711" stroke="black" stroke-width="0.44" stroke-miterlimit="10"/>
<path d="M47.061 63.9991V61.1924" stroke="black" stroke-width="0.44" stroke-miterlimit="10"/>
<path d="M36.5151 63.9991V61.1924" stroke="black" stroke-width="0.44" stroke-miterlimit="10"/>
<path d="M47.061 73.0614V70.2507" stroke="black" stroke-width="0.44" stroke-miterlimit="10"/>
<path d="M36.6445 73.0614V70.2507" stroke="black" stroke-width="0.44" stroke-miterlimit="10"/>
<path d="M58.6284 64.9856H69.4405" stroke="black" stroke-width="0.44" stroke-miterlimit="10"/>
<path d="M63.541 65.6667V68.7553" stroke="black" stroke-width="0.44" stroke-miterlimit="10"/>
<path d="M54.2241 65.6665V68.7551" stroke="black" stroke-width="0.44" stroke-miterlimit="10"/>
<path d="M56.2402 68.8962H72.1099" stroke="black" stroke-width="0.44" stroke-miterlimit="10"/>
<path d="M69.2998 63.9991V61.1924" stroke="black" stroke-width="0.44" stroke-miterlimit="10"/>
<path d="M58.7539 63.9991V61.1924" stroke="black" stroke-width="0.44" stroke-miterlimit="10"/>
<path d="M69.2998 73.0614V70.2507" stroke="black" stroke-width="0.44" stroke-miterlimit="10"/>
<path d="M58.8828 73.0614V70.2507" stroke="black" stroke-width="0.44" stroke-miterlimit="10"/>
<path d="M58.6284 74.4275H69.4405" stroke="black" stroke-width="0.44" stroke-miterlimit="10"/>
<path d="M63.541 75.1086V78.1972" stroke="black" stroke-width="0.44" stroke-miterlimit="10"/>
<path d="M56.2402 78.3381H72.1099" stroke="black" stroke-width="0.44" stroke-miterlimit="10"/>
<path d="M69.2998 82.5033V79.6926" stroke="black" stroke-width="0.44" stroke-miterlimit="10"/>
<path d="M58.8828 82.5033V79.6926" stroke="black" stroke-width="0.44" stroke-miterlimit="10"/>
<path d="M72.8457 30.8896H83.6617" stroke="black" stroke-width="0.44" stroke-miterlimit="10"/>
<path d="M77.7627 31.5708V34.6594" stroke="black" stroke-width="0.44" stroke-miterlimit="10"/>
<path d="M68.4463 31.5708V34.6594" stroke="black" stroke-width="0.44" stroke-miterlimit="10"/>
<path d="M70.458 34.8003H86.3316" stroke="black" stroke-width="0.44" stroke-miterlimit="10"/>
<path d="M83.521 29.9071V27.0964" stroke="black" stroke-width="0.44" stroke-miterlimit="10"/>
<path d="M72.9751 29.9071V27.0964" stroke="black" stroke-width="0.44" stroke-miterlimit="10"/>
<path d="M83.521 38.9654V36.1548" stroke="black" stroke-width="0.44" stroke-miterlimit="10"/>
<path d="M73.1045 38.9654V36.1548" stroke="black" stroke-width="0.44" stroke-miterlimit="10"/>
<path d="M95.0889 30.8896H105.905" stroke="black" stroke-width="0.44" stroke-miterlimit="10"/>
<path d="M100.005 31.5708V34.6594" stroke="black" stroke-width="0.44" stroke-miterlimit="10"/>
<path d="M90.689 31.5708V34.6594" stroke="black" stroke-width="0.44" stroke-miterlimit="10"/>
<path d="M92.7007 34.8003H108.574" stroke="black" stroke-width="0.44" stroke-miterlimit="10"/>
<path d="M105.764 29.9071V27.0964" stroke="black" stroke-width="0.44" stroke-miterlimit="10"/>
<path d="M95.2178 29.9071V27.0964" stroke="black" stroke-width="0.44" stroke-miterlimit="10"/>
<path d="M105.764 38.9654V36.1548" stroke="black" stroke-width="0.44" stroke-miterlimit="10"/>
<path d="M95.3467 38.9654V36.1548" stroke="black" stroke-width="0.44" stroke-miterlimit="10"/>
<path d="M95.0889 40.3315H105.905" stroke="black" stroke-width="0.44" stroke-miterlimit="10"/>
<path d="M100.005 41.0127V44.1052" stroke="black" stroke-width="0.44" stroke-miterlimit="10"/>
<path d="M92.7007 44.2461H108.574" stroke="black" stroke-width="0.44" stroke-miterlimit="10"/>
<path d="M105.764 48.4073V45.6006" stroke="black" stroke-width="0.44" stroke-miterlimit="10"/>
<path d="M95.3467 48.4073V45.6006" stroke="black" stroke-width="0.44" stroke-miterlimit="10"/>
<path d="M145.277 64.9856H156.093" stroke="black" stroke-width="0.44" stroke-miterlimit="10"/>
<path d="M150.194 65.6667V68.7553" stroke="black" stroke-width="0.44" stroke-miterlimit="10"/>
<path d="M140.874 65.6667V68.7553" stroke="black" stroke-width="0.44" stroke-miterlimit="10"/>
<path d="M142.889 68.8962H158.759" stroke="black" stroke-width="0.44" stroke-miterlimit="10"/>
<path d="M155.952 63.9991V61.1924" stroke="black" stroke-width="0.44" stroke-miterlimit="10"/>
<path d="M145.403 63.9991V61.1924" stroke="black" stroke-width="0.44" stroke-miterlimit="10"/>
<path d="M155.952 73.0614V70.2507" stroke="black" stroke-width="0.44" stroke-miterlimit="10"/>
<path d="M145.536 73.0614V70.2507" stroke="black" stroke-width="0.44" stroke-miterlimit="10"/>
<path d="M167.516 64.9856H178.332" stroke="black" stroke-width="0.44" stroke-miterlimit="10"/>
<path d="M172.433 65.6667V68.7553" stroke="black" stroke-width="0.44" stroke-miterlimit="10"/>
<path d="M163.116 65.6667V68.7553" stroke="black" stroke-width="0.44" stroke-miterlimit="10"/>
<path d="M165.128 68.8962H181.002" stroke="black" stroke-width="0.44" stroke-miterlimit="10"/>
<path d="M178.191 63.9991V61.1924" stroke="black" stroke-width="0.44" stroke-miterlimit="10"/>
<path d="M167.645 63.9991V61.1924" stroke="black" stroke-width="0.44" stroke-miterlimit="10"/>
<path d="M178.191 73.0614V70.2507" stroke="black" stroke-width="0.44" stroke-miterlimit="10"/>
<path d="M167.774 73.0614V70.2507" stroke="black" stroke-width="0.44" stroke-miterlimit="10"/>
<path d="M167.516 74.4275H178.332" stroke="black" stroke-width="0.44" stroke-miterlimit="10"/>
<path d="M172.433 75.1086V78.1972" stroke="black" stroke-width="0.44" stroke-miterlimit="10"/>
<path d="M165.128 78.3381H181.002" stroke="black" stroke-width="0.44" stroke-miterlimit="10"/>
<path d="M178.191 82.5033V79.6926" stroke="black" stroke-width="0.44" stroke-miterlimit="10"/>
<path d="M167.774 82.5033V79.6926" stroke="black" stroke-width="0.44" stroke-miterlimit="10"/>
<path d="M117.938 99.7351H128.754" stroke="black" stroke-width="0.44" stroke-miterlimit="10"/>
<path d="M122.855 100.416V103.505" stroke="black" stroke-width="0.44" stroke-miterlimit="10"/>
<path d="M113.534 100.416V103.505" stroke="black" stroke-width="0.44" stroke-miterlimit="10"/>
<path d="M115.55 103.646H131.419" stroke="black" stroke-width="0.44" stroke-miterlimit="10"/>
<path d="M128.613 98.7526V95.9419" stroke="black" stroke-width="0.44" stroke-miterlimit="10"/>
<path d="M118.063 98.7526V95.9419" stroke="black" stroke-width="0.44" stroke-miterlimit="10"/>
<path d="M128.613 107.811V105" stroke="black" stroke-width="0.44" stroke-miterlimit="10"/>
<path d="M118.192 107.811V105" stroke="black" stroke-width="0.44" stroke-miterlimit="10"/>
<path d="M140.177 99.7351H150.993" stroke="black" stroke-width="0.44" stroke-miterlimit="10"/>
<path d="M145.094 100.416V103.505" stroke="black" stroke-width="0.44" stroke-miterlimit="10"/>
<path d="M135.776 100.416V103.505" stroke="black" stroke-width="0.44" stroke-miterlimit="10"/>
<path d="M137.789 103.646H153.662" stroke="black" stroke-width="0.44" stroke-miterlimit="10"/>
<path d="M150.852 98.7526V95.9419" stroke="black" stroke-width="0.44" stroke-miterlimit="10"/>
<path d="M140.306 98.7526V95.9419" stroke="black" stroke-width="0.44" stroke-miterlimit="10"/>
<path d="M150.852 107.811V105" stroke="black" stroke-width="0.44" stroke-miterlimit="10"/>
<path d="M140.435 107.811V105" stroke="black" stroke-width="0.44" stroke-miterlimit="10"/>
<path d="M140.177 109.177H150.993" stroke="black" stroke-width="0.44" stroke-miterlimit="10"/>
<path d="M145.094 109.858V112.951" stroke="black" stroke-width="0.44" stroke-miterlimit="10"/>
<path d="M137.789 113.092H153.662" stroke="black" stroke-width="0.44" stroke-miterlimit="10"/>
<path d="M150.852 117.253V114.442" stroke="black" stroke-width="0.44" stroke-miterlimit="10"/>
<path d="M140.435 117.253V114.442" stroke="black" stroke-width="0.44" stroke-miterlimit="10"/>
<path d="M134.966 158.082H145.778" stroke="black" stroke-width="0.44" stroke-miterlimit="10"/>
<path d="M139.879 158.763V161.852" stroke="black" stroke-width="0.44" stroke-miterlimit="10"/>
<path d="M130.562 158.763V161.852" stroke="black" stroke-width="0.44" stroke-miterlimit="10"/>
<path d="M132.579 161.992H148.448" stroke="black" stroke-width="0.44" stroke-miterlimit="10"/>
<path d="M145.641 157.099V154.289" stroke="black" stroke-width="0.44" stroke-miterlimit="10"/>
<path d="M135.091 157.099V154.289" stroke="black" stroke-width="0.44" stroke-miterlimit="10"/>
<path d="M145.641 166.158V163.347" stroke="black" stroke-width="0.44" stroke-miterlimit="10"/>
<path d="M135.22 166.158V163.347" stroke="black" stroke-width="0.44" stroke-miterlimit="10"/>
<path d="M157.205 158.082H168.021" stroke="black" stroke-width="0.44" stroke-miterlimit="10"/>
<path d="M162.122 158.763V161.852" stroke="black" stroke-width="0.44" stroke-miterlimit="10"/>
<path d="M152.805 158.763V161.852" stroke="black" stroke-width="0.44" stroke-miterlimit="10"/>
<path d="M154.817 161.992H170.69" stroke="black" stroke-width="0.44" stroke-miterlimit="10"/>
<path d="M167.88 157.099V154.289" stroke="black" stroke-width="0.44" stroke-miterlimit="10"/>
<path d="M157.334 157.099V154.289" stroke="black" stroke-width="0.44" stroke-miterlimit="10"/>
<path d="M167.88 166.158V163.347" stroke="black" stroke-width="0.44" stroke-miterlimit="10"/>
<path d="M157.463 166.158V163.347" stroke="black" stroke-width="0.44" stroke-miterlimit="10"/>
<path d="M157.205 167.524H168.021" stroke="black" stroke-width="0.44" stroke-miterlimit="10"/>
<path d="M162.122 168.205V171.297" stroke="black" stroke-width="0.44" stroke-miterlimit="10"/>
<path d="M154.817 171.438H170.69" stroke="black" stroke-width="0.44" stroke-miterlimit="10"/>
<path d="M167.88 175.599V172.793" stroke="black" stroke-width="0.44" stroke-miterlimit="10"/>
<path d="M157.463 175.599V172.793" stroke="black" stroke-width="0.44" stroke-miterlimit="10"/>
<path d="M70.9121 163.5H81.7281" stroke="black" stroke-width="0.44" stroke-miterlimit="10"/>
<path d="M75.8286 164.181V167.269" stroke="black" stroke-width="0.44" stroke-miterlimit="10"/>
<path d="M66.5083 164.181V167.269" stroke="black" stroke-width="0.44" stroke-miterlimit="10"/>
<path d="M68.5244 167.41H84.3941" stroke="black" stroke-width="0.44" stroke-miterlimit="10"/>
<path d="M81.5874 162.517V159.706" stroke="black" stroke-width="0.44" stroke-miterlimit="10"/>
<path d="M71.0376 162.517V159.706" stroke="black" stroke-width="0.44" stroke-miterlimit="10"/>
<path d="M81.5874 171.575V168.765" stroke="black" stroke-width="0.44" stroke-miterlimit="10"/>
<path d="M71.1709 171.575V168.765" stroke="black" stroke-width="0.44" stroke-miterlimit="10"/>
<path d="M93.1509 163.5H103.967" stroke="black" stroke-width="0.44" stroke-miterlimit="10"/>
<path d="M98.0679 164.181V167.269" stroke="black" stroke-width="0.44" stroke-miterlimit="10"/>
<path d="M88.751 164.181V167.269" stroke="black" stroke-width="0.44" stroke-miterlimit="10"/>
<path d="M90.7627 167.41H106.636" stroke="black" stroke-width="0.44" stroke-miterlimit="10"/>
<path d="M103.826 162.517V159.706" stroke="black" stroke-width="0.44" stroke-miterlimit="10"/>
<path d="M93.2803 162.517V159.706" stroke="black" stroke-width="0.44" stroke-miterlimit="10"/>
<path d="M103.826 171.575V168.765" stroke="black" stroke-width="0.44" stroke-miterlimit="10"/>
<path d="M93.4097 171.575V168.765" stroke="black" stroke-width="0.44" stroke-miterlimit="10"/>
<path d="M93.1509 172.942H103.967" stroke="black" stroke-width="0.44" stroke-miterlimit="10"/>
<path d="M98.0679 173.623V176.715" stroke="black" stroke-width="0.44" stroke-miterlimit="10"/>
<path d="M90.7627 176.856H106.636" stroke="black" stroke-width="0.44" stroke-miterlimit="10"/>
<path d="M103.826 181.017V178.21" stroke="black" stroke-width="0.44" stroke-miterlimit="10"/>
<path d="M93.4097 181.017V178.21" stroke="black" stroke-width="0.44" stroke-miterlimit="10"/>
</g>
<path opacity="0.27" d="M109.776 178.058H98.5962V190.69H109.776V178.058Z" fill="black"/>
<path d="M115.57 176.359H103.278V190.635H115.57V176.359Z" fill="white" stroke="#263238" stroke-width="0.44" stroke-miterlimit="10"/>
<path d="M107.999 179.205H103.278V188.024H107.999V179.205Z" fill="white" stroke="#263238" stroke-width="0.44" stroke-miterlimit="10"/>
<path d="M113.683 176.359V182.791C113.683 182.998 113.6 183.197 113.454 183.344C113.307 183.491 113.108 183.573 112.9 183.573C112.692 183.573 112.493 183.491 112.346 183.344C112.2 183.197 112.117 182.998 112.117 182.791V178.257C112.119 178.143 112.098 178.028 112.056 177.922C112.013 177.815 111.95 177.718 111.869 177.636C111.789 177.554 111.693 177.488 111.587 177.444C111.481 177.4 111.367 177.377 111.252 177.377C111.023 177.377 110.803 177.468 110.64 177.63C110.478 177.792 110.387 178.012 110.387 178.242V180.387C110.387 180.551 110.322 180.708 110.206 180.824C110.09 180.94 109.932 181.005 109.768 181.005C109.604 181.005 109.447 180.94 109.331 180.824C109.215 180.708 109.15 180.551 109.15 180.387V176.359H113.683Z" fill="#FFC100" stroke="#263238" stroke-width="0.44" stroke-miterlimit="10"/>
<path opacity="0.27" d="M106.175 111.612C106.404 110.932 106.457 110.205 106.332 109.498C106.23 108.981 106.073 107.643 105.815 107.177C105.636 106.883 105.424 106.61 105.185 106.363C105.106 106.1 104.648 104.621 104.319 104.292C103.991 103.963 101.744 103.309 101.744 103.309C102.131 103.805 102.492 104.321 102.824 104.855C103.294 105.599 103.732 106.316 103.92 106.613C103.623 106.288 103.278 107.361 103.184 107.643C103.09 107.924 102.01 109.291 101.896 109.6C101.783 109.909 101.998 112.641 101.998 112.641C101.625 113.471 101.177 114.265 100.659 115.014C100.037 115.883 89.9804 122.252 88.7864 123.297C88.5907 121.856 88.1131 118.427 87.796 116.392C87.3811 113.761 88.6729 113.041 87.2793 111.956C85.8857 110.872 81.0395 110.304 81.0395 110.304L80.4719 109.263C80.4719 109.263 79.7516 107.819 79.1331 107.459C79.1331 107.459 79.8025 107.819 80.01 107.924C80.2877 108.031 80.5936 108.037 80.8756 107.943C81.1576 107.849 81.3982 107.66 81.5562 107.408C82.0729 106.625 83.1534 104.879 83.1534 104.879C83.5999 104.726 84.018 104.5 84.3904 104.209C84.7544 103.849 84.3395 103.818 84.0811 103.231C83.8227 102.644 84.1868 101.943 84.4452 101.219C84.5955 100.691 84.6784 100.147 84.6918 99.5981C85.5686 98.9483 86.8135 96.9597 86.7626 95.8558C86.7117 94.6814 84.6487 94.2587 84.6487 94.2587C84.6487 94.2587 81.106 91.0918 78.632 90.7355C76.6271 90.4566 74.5878 90.8902 72.8698 91.9608C70.9321 93.2252 69.3741 97.6291 68.4072 101.07C67.6243 103.896 71.2452 105.4 71.2452 105.4C71.2452 105.4 70.8929 105.995 70.5719 106.64C69.7311 106.965 69.0107 107.54 68.5089 108.288C68.5089 108.288 62.273 109.678 61.7054 110.042C61.1378 110.406 60.8286 110.195 60.2609 111.949C59.6933 113.702 60.1553 119.386 60.1553 119.386C60.1553 119.386 58.7734 123.841 58.0336 126.456C57.6421 126.656 56.8592 127.082 56.9101 127.274C56.961 127.533 56.961 130.989 57.4777 131.451C57.9944 131.913 61.0869 132.895 61.5488 132.794C61.6898 132.762 61.9794 132.688 62.3083 132.598C62.3067 132.611 62.3067 132.624 62.3083 132.637L62.7193 133.357C62.7193 133.357 60.4528 141.578 60.3471 141.711C60.3158 141.762 60.5741 141.93 61.0047 142.157C60.6766 143.531 60.5448 144.943 60.6133 146.354C60.8207 148.777 61.0791 153.623 61.0791 153.623C61.0791 153.623 62.1282 154.038 63.6001 154.457L65.7257 165.555C65.7257 165.555 64.473 171.2 65.3773 174.194C66.2816 177.189 67.1193 185.206 67.1897 186.04C67.1776 186.432 67.0899 186.819 66.9314 187.179C66.8883 187.296 66.8374 187.414 66.7865 187.531C66.7865 187.566 66.7591 187.598 66.7474 187.629C66.7043 187.727 66.6652 187.821 66.6182 187.919L66.583 188.001C66.5282 188.122 66.4695 188.244 66.4107 188.361C66.398 188.382 66.3875 188.404 66.3794 188.428L66.2307 188.713C66.2307 188.749 66.1954 188.78 66.1798 188.811C66.1328 188.905 66.0819 188.999 66.0349 189.085L66.0036 189.136C65.9488 189.242 65.894 189.336 65.8392 189.43L65.8001 189.496C65.757 189.563 65.7218 189.629 65.6826 189.688L65.6435 189.751C65.6004 189.821 65.5534 189.888 65.5182 189.942C65.4633 190.018 65.4173 190.099 65.3812 190.185C65.3557 190.252 65.3399 190.322 65.3342 190.393C65.3296 190.482 65.3528 190.571 65.4008 190.647C65.436 190.698 65.4782 190.744 65.526 190.784C65.6101 190.851 65.7021 190.908 65.8001 190.952L66.031 191.046L66.2855 191.129C66.9139 191.291 67.5502 191.422 68.1919 191.52C68.8691 191.63 75.3947 191.912 75.7626 191.912H75.8997C76.0535 191.902 76.2078 191.902 76.3616 191.912H76.4712C76.6066 191.91 76.7401 191.879 76.8626 191.821C76.9986 191.744 77.1037 191.623 77.1602 191.477C77.215 191.348 71.4057 190.988 71.4331 190.765C71.4331 190.702 71.4331 190.635 71.4331 190.561C71.4331 190.487 71.4331 190.502 71.4331 190.475C71.4331 190.447 71.4331 190.4 71.4331 190.365C71.4331 190.33 71.4331 190.209 71.4331 190.123C71.4331 190.036 71.4331 190.033 71.4331 189.989V189.704C71.4331 189.665 71.4331 189.625 71.4331 189.582C71.4331 189.445 71.4331 189.3 71.4331 189.152V189.089V188.698C71.4331 188.647 71.4331 188.592 71.4331 188.541C71.4331 188.431 71.4331 188.322 71.4331 188.216C71.4331 188.11 71.4331 188.103 71.4331 188.048C71.4331 187.93 71.4331 187.813 71.4136 187.696C71.4136 187.656 71.4136 187.617 71.4136 187.578L71.3901 187.112C71.347 186.329 71.3079 185.676 71.3079 185.339C71.3079 184.435 71.5193 175.725 72.216 173.493C72.9128 171.262 73.32 166.807 73.1634 164.647C73.0577 162.999 72.7054 157.459 72.5488 154.923C72.8267 154.852 72.9794 154.797 72.9794 154.797L73.0851 155.467C73.8065 155.57 74.5332 155.631 75.2616 155.651L80.1313 166.181C80.1313 166.181 78.3189 169.665 78.4598 172.66C78.6007 175.654 79.2427 184.717 79.2936 186.877C79.3114 187.499 79.2878 188.122 79.2231 188.741C79.1644 189.375 79.0861 189.915 79.0548 190.365C79.0548 190.397 79.0548 190.428 79.0548 190.459C79.0449 190.612 79.0449 190.765 79.0548 190.917C79.0531 190.93 79.0531 190.943 79.0548 190.956C79.0595 191.012 79.0686 191.067 79.0822 191.121V191.172C79.0959 191.229 79.117 191.284 79.1448 191.336C79.2181 191.438 79.3162 191.52 79.4298 191.575C79.5435 191.629 79.669 191.653 79.7947 191.645C79.8612 191.645 86.7704 191.673 86.8409 191.673C87.2088 191.673 85.5334 191.399 86.1089 191.356C86.6843 191.313 86.058 191.673 86.8409 191.673C87.4711 191.673 86.9896 191.587 87.5651 191.551C87.8547 191.551 85.8466 191.383 86.1089 191.356C87.432 191.219 88.4302 190.964 88.6886 190.573C88.7943 190.416 88.8686 190.318 88.9156 190.248C88.9443 190.212 88.9644 190.171 88.9743 190.126C88.9743 190.068 88.8608 190.033 88.6846 189.821C88.6202 189.754 88.5447 189.698 88.4615 189.657C88.1709 189.508 87.8715 189.378 87.5651 189.265C87.2832 189.152 86.974 189.023 86.6569 188.874C85.9071 188.577 85.2053 188.17 84.5743 187.668C84.0263 187.179 83.7171 186.932 83.5331 186.764L83.4 186.643C83.2889 186.519 83.2132 186.367 83.1808 186.204C83.0437 185.715 84.2259 179.303 84.7857 177.075C85.3455 174.848 86.5943 169.34 86.8056 168.295C87.017 167.25 87.2245 166.76 87.0131 165.163C86.8448 163.868 85.8113 156.786 85.4199 154.124C86.1174 153.846 86.7829 153.493 87.4046 153.071L84.6409 143.015L85.4238 142.811L83.6192 136.52L83.8267 132.242C83.8267 132.242 86.1441 131.932 86.7665 131.623C87.3889 131.314 89.2914 130.746 89.3932 130.128C89.3932 130.022 89.4441 129.869 89.4832 129.689C90.1291 129.271 90.9942 129.079 91.2056 128.816C91.6715 128.249 94.6113 126.757 95.2298 125.685C95.8483 124.612 103.188 115.253 103.392 114.634C103.533 114.211 104.644 113.229 105.412 112.473C105.492 112.787 105.592 113.096 105.713 113.397C105.873 113.735 106.081 114.047 106.332 114.325C106.332 114.325 106.241 113.009 106.018 111.812C106.08 111.753 106.133 111.686 106.175 111.612ZM74.9014 108.32C75.1962 108.33 75.4902 108.357 75.7822 108.398C75.4886 108.359 75.195 108.335 74.9014 108.312V108.32ZM104.507 107.098C104.574 107.228 104.637 107.345 104.68 107.435C104.887 107.846 105.196 108.609 105.044 108.778L105.012 108.801C104.519 107.744 104.01 106.766 104.01 106.766C104.065 106.853 104.137 106.927 104.223 106.983C104.309 107.039 104.406 107.076 104.507 107.091V107.098ZM103.306 109.85C103.306 109.85 103.767 109.024 103.975 108.563C104.158 108.179 104.229 107.752 104.182 107.329L104.335 107.893C104.335 107.893 104.449 108.382 104.617 109.067C104.088 109.392 103.306 109.85 103.306 109.85Z" fill="black"/>
<path d="M91.9179 95.2726C91.9205 95.9806 91.831 96.6859 91.6517 97.3708C91.3816 98.1224 91.0058 98.874 91.2602 99.469C91.5147 100.064 91.957 100.111 91.5812 100.487C91.1945 100.791 90.759 101.028 90.2933 101.188C90.2933 101.188 89.162 103.016 88.6257 103.822C88.4616 104.085 88.2106 104.283 87.9161 104.381C87.6216 104.479 87.3021 104.471 87.0129 104.358C86.7976 104.253 86.0969 103.877 86.0969 103.877L85.7054 104.468L80.7065 103.121C80.7065 103.121 83.3959 100.275 83.5563 98.3377C83.7168 96.4 87.9955 93.2331 91.9179 95.2726Z" fill="white" stroke="#263238" stroke-width="0.44" stroke-miterlimit="10"/>
<path d="M89.5539 102.264C89.2828 102.237 89.0304 102.113 88.8428 101.916C88.6552 101.718 88.545 101.459 88.5322 101.187" stroke="#263238" stroke-width="0.44" stroke-linecap="round" stroke-linejoin="round"/>
<path d="M90.5756 98.4981C90.4933 98.8504 90.2937 99.1049 90.1293 99.0657C89.9649 99.0266 89.8983 98.7095 89.9805 98.3611C90.0627 98.0127 90.2624 97.7543 90.4268 97.7935C90.5912 97.8326 90.6578 98.1497 90.5756 98.4981Z" fill="#263238"/>
<path d="M91.1706 97.5858C91.1194 97.4748 91.0441 97.3766 90.9503 97.2981C90.8565 97.2197 90.7464 97.1631 90.6281 97.1324C90.5098 97.1017 90.3861 97.0977 90.266 97.1206C90.1459 97.1435 90.0323 97.1927 89.9336 97.2648" stroke="#263238" stroke-width="0.44" stroke-linecap="round" stroke-linejoin="round"/>
<path d="M87.5104 105.74C87.5104 105.74 86.7588 104.237 86.1129 103.861C85.467 103.485 81.1688 102.73 78.6752 102.73C77.9496 102.736 77.2367 102.921 76.5992 103.268C75.9616 103.615 75.419 104.113 75.019 104.718C75.019 104.718 81.4194 104.613 82.6016 104.828C83.7838 105.043 88.082 106.817 88.082 106.817L87.5104 105.74Z" fill="white" stroke="#263238" stroke-width="0.44" stroke-miterlimit="10"/>
<path d="M104.77 106.938C104.77 106.938 104.179 105.971 103.533 104.949C103.186 104.391 102.808 103.853 102.401 103.337C102.401 103.337 104.715 103.983 105.091 104.358C105.466 104.734 106.007 106.562 106.007 106.562C106.007 106.562 105.521 107.909 104.77 106.938Z" fill="#FFC100" stroke="#263238" stroke-width="0.44" stroke-miterlimit="10"/>
<path d="M95.6841 120.811C95.6841 120.811 100.468 116.67 101.274 115.542C101.812 114.76 102.28 113.933 102.672 113.068C102.672 113.068 102.456 110.218 102.566 109.897C102.675 109.576 103.803 108.175 103.909 107.854C104.014 107.533 104.445 106.186 104.77 106.938C104.897 107.237 104.958 107.56 104.948 107.885C104.939 108.21 104.859 108.529 104.715 108.821C104.5 109.306 104.014 110.164 104.014 110.164C104.014 110.164 105.682 109.197 105.842 109.036C106.003 108.876 105.682 108.069 105.451 107.639C105.22 107.208 104.645 106.186 105.02 105.971C105.396 105.756 106.367 106.887 106.633 107.369C106.899 107.85 107.064 109.251 107.173 109.788C107.304 110.524 107.249 111.282 107.013 111.992C106.743 112.583 104.378 114.466 104.163 115.123C103.948 115.781 101.579 120.929 100.937 122.056C100.165 123.357 99.3212 124.615 98.4086 125.822C97.9271 126.413 95.8289 128.081 94.5371 127.81C94.5528 127.799 95.3083 121.939 95.6841 120.811Z" fill="white" stroke="#263238" stroke-width="0.44" stroke-miterlimit="10"/>
<path d="M81.3604 152.527L87.1696 165.093C87.1696 165.093 85.2828 168.725 85.4276 171.849C85.5724 174.973 86.2105 184.419 86.3005 186.67C86.3906 188.921 85.7916 190.667 86.1557 191.32C86.5198 191.974 88.0425 191.465 90.6575 191.465C93.2724 191.465 95.672 191.176 96.1065 190.522C96.5411 189.868 96.4706 190.158 96.1065 189.739C95.7425 189.32 93.1275 188.647 91.8005 187.484C90.4735 186.321 90.493 186.47 90.3482 185.961C90.2034 185.452 91.4365 178.766 92.0197 176.445C92.603 174.124 93.9105 168.373 94.1453 167.273C94.3802 166.173 94.5799 165.676 94.3646 164.004C94.1493 162.333 92.5482 151.435 92.5482 151.435C92.5482 151.435 84.265 153.036 81.3604 152.527Z" fill="white" stroke="#263238" stroke-width="0.44" stroke-miterlimit="10"/>
<path d="M96.1067 189.723C95.7426 189.285 93.1277 188.631 91.8007 187.468C90.4736 186.306 90.4932 186.454 90.3483 185.946C90.2044 186.072 90.0906 186.229 90.0154 186.405C89.9402 186.581 89.9055 186.772 89.9138 186.963C89.9693 187.364 90.0664 187.757 90.2035 188.138C89.4874 188.07 88.781 187.923 88.0975 187.699C87.4437 187.41 86.9231 186.392 86.2811 186.681C86.3516 188.936 85.7722 190.678 86.1363 191.332C86.5003 191.986 88.0231 191.477 90.638 191.477C93.253 191.477 95.6526 191.187 96.0871 190.533C96.5216 189.88 96.4707 190.158 96.1067 189.723Z" fill="white" stroke="#263238" stroke-width="0.44" stroke-miterlimit="10"/>
<path d="M96.1069 190.522C96.3418 190.173 96.424 190.091 96.4005 190.029C94.6454 190.62 92.7919 190.863 90.9436 190.745C89.0607 190.627 87.1778 190.436 86.0504 190.31C85.9937 190.65 86.0302 190.999 86.1561 191.32C86.5162 191.974 88.0429 191.465 90.6579 191.465C93.2728 191.465 95.6724 191.176 96.1069 190.522Z" fill="white" stroke="#263238" stroke-width="0.44" stroke-miterlimit="10"/>
<path d="M69.8091 152.237L72.1343 164.459C72.1343 164.459 70.8269 170.33 71.7703 173.462C72.7137 176.594 73.5866 184.94 73.661 185.813C73.7354 186.685 72.424 189.152 71.9151 189.88C71.4062 190.608 71.9895 190.898 72.698 191.113C73.4066 191.328 75.9667 191.767 76.6126 191.696C77.2585 191.626 77.924 191.915 78.0688 190.678C78.2137 189.441 77.924 185.957 77.924 185.014C77.924 184.071 78.1393 174.985 78.8674 172.663C79.5955 170.342 80.0418 165.758 79.8852 163.507C79.7286 161.256 79.1571 152.03 79.1571 152.03C79.1571 152.03 71.6254 152.237 69.8091 152.237Z" fill="white" stroke="#263238" stroke-width="0.44" stroke-miterlimit="10"/>
<path d="M78.0918 190.686C78.1474 189.413 78.1265 188.137 78.0292 186.866C77.4655 186.396 75.4926 186.545 74.968 186.834C74.3143 187.198 74.7488 187.707 73.8758 187.273C73.7036 187.187 73.5392 187.097 73.3865 187.007C72.9942 188.014 72.5011 188.979 71.9146 189.888C71.4058 190.616 71.989 190.905 72.6976 191.121C73.4061 191.336 75.9662 191.774 76.6121 191.704C77.258 191.634 77.947 191.904 78.0918 190.686Z" fill="white" stroke="#263238" stroke-width="0.44" stroke-miterlimit="10"/>
<path d="M72.7136 191.101C73.4418 191.32 75.9823 191.755 76.6282 191.684C77.2741 191.614 77.9396 191.903 78.0844 190.666C78.0844 190.541 78.1079 190.389 78.1118 190.224C77.2037 190.674 75.3012 190.866 74.5222 190.596C73.4378 190.205 71.9072 189.868 71.9072 189.868C71.4062 190.596 71.9894 190.886 72.7136 191.101Z" fill="white" stroke="#263238" stroke-width="0.44" stroke-miterlimit="10"/>
<path d="M67.5656 138.713C67.5656 138.713 66.5987 141.883 66.814 144.408C67.0293 146.933 67.2916 151.991 67.2916 151.991C67.2916 151.991 70.9478 153.443 74.2791 153.709C77.6104 153.976 79.7086 153.228 79.7086 153.228L79.8182 153.925C82.4437 154.253 85.102 154.217 87.7178 153.819C92.4153 153.173 94.764 151.4 94.764 151.4L91.7537 140.439C90.5606 140.471 89.3732 140.615 88.2071 140.87C86.1637 141.3 77.1876 141.14 73.7976 140.224C70.4076 139.308 67.5656 138.713 67.5656 138.713Z" fill="#FFC100" stroke="#263238" stroke-width="0.44" stroke-miterlimit="10"/>
<path d="M79.7164 153.228L78.9648 149.732L76.436 149.035" stroke="#263238" stroke-width="0.44" stroke-miterlimit="10"/>
<path d="M91.3276 141.668L93.7468 150.217" stroke="#263238" stroke-width="0.44" stroke-miterlimit="10"/>
<path d="M89.5539 142.259L90.6304 146.937L85.9525 150.969L81.9205 149.086L80.7383 144.303" stroke="#263238" stroke-width="0.44" stroke-miterlimit="10"/>
<path d="M73.9658 143.336L74.0715 146.937" stroke="#263238" stroke-width="0.44" stroke-miterlimit="10"/>
<path d="M68.2664 141.363C67.887 142.188 67.7034 143.09 67.7301 143.997C67.8358 145.285 68.1568 147.383 68.1568 147.383L70.7404 149.427L71.813 148.726" stroke="#263238" stroke-width="0.44" stroke-miterlimit="10"/>
<path d="M76.6516 143.175C76.6516 143.175 76.3306 145.054 76.7064 146.346" stroke="#263238" stroke-width="0.44" stroke-miterlimit="10"/>
<path d="M64.3402 123.552C64.3402 123.552 62.8918 124.252 62.9427 124.518C62.9936 124.785 62.9975 128.39 63.5338 128.875C64.0701 129.361 67.2996 130.379 67.7811 130.273C68.2626 130.167 70.4156 129.572 70.4156 129.572L70.5252 127.478C70.5252 127.478 66.2779 125.595 65.3619 124.894C64.4459 124.194 64.3402 123.552 64.3402 123.552Z" fill="white" stroke="#263238" stroke-width="0.44" stroke-miterlimit="10"/>
<path d="M75.0386 104.734C75.0386 104.734 68.5365 106.186 67.9454 106.562C67.3543 106.938 67.0294 106.727 66.4383 108.551C65.8472 110.375 66.3326 116.294 66.3326 116.294C66.3326 116.294 63.6981 124.788 63.6433 125.54C63.5885 126.292 66.7749 128.55 67.7301 128.605C68.2546 128.647 68.7824 128.61 69.2959 128.495C69.2959 128.495 68.3799 129.732 68.5952 130.108L69.0258 130.864C69.0258 130.864 66.6771 139.409 66.5518 139.57C66.4265 139.73 69.2411 141.077 71.445 141.723C73.6489 142.369 75.5123 143.39 80.2097 143.32C84.9072 143.249 88.7552 141.754 89.8866 141.437C91.0179 141.12 92.7324 140.685 92.7324 140.685L90.8535 134.125L91.0688 129.666C91.0688 129.666 93.488 129.341 94.1339 129.02C94.7798 128.699 96.7645 128.104 96.8741 127.454C96.9837 126.804 97.6257 124.44 97.5709 123.688C97.5161 122.937 96.283 121.054 96.283 121.054C96.283 121.054 95.5744 115.918 95.1438 113.178C94.7132 110.438 96.0598 109.682 94.6075 108.551C93.1552 107.419 88.1015 106.832 88.1015 106.832C88.1015 106.832 86.3282 105.219 82.6211 104.844C80.0997 104.621 77.5654 104.584 75.0386 104.734Z" fill="white" stroke="#263238" stroke-width="0.44" stroke-miterlimit="10"/>
<path d="M91.812 115.758C91.812 115.758 91.1113 121.187 90.7903 122.475C90.4693 123.763 91.0604 129.682 91.0604 129.682" stroke="#263238" stroke-width="0.44" stroke-miterlimit="10"/>
<path d="M91.0063 122.099C91.0063 122.099 92.674 123.066 94.1771 122.639" stroke="#263238" stroke-width="0.44" stroke-miterlimit="10"/>
<path d="M90.7358 122.851C90.7358 122.851 92.3486 124.679 93.6953 125.325" stroke="#263238" stroke-width="0.44" stroke-miterlimit="10"/>
<path d="M91.6523 118.012L93.0498 114.896" stroke="#263238" stroke-width="0.44" stroke-miterlimit="10"/>
<path d="M69.2881 128.495C69.2881 128.495 70.5759 125.325 70.7912 124.581C71.0066 123.837 69.9848 120.118 69.8792 118.666C69.7735 117.214 69.0728 112.379 69.0728 112.379" stroke="#263238" stroke-width="0.44" stroke-miterlimit="10"/>
<path d="M69.5032 115.433L68.2114 113.389" stroke="#263238" stroke-width="0.44" stroke-miterlimit="10"/>
<path d="M69.3433 131.024C69.3433 131.024 75.7397 130.915 77.0276 131.185C78.3155 131.455 85.0407 133.874 85.9528 134.089" stroke="#263238" stroke-width="0.44" stroke-miterlimit="10"/>
<path d="M77.0274 131.185L74.9331 130.324" stroke="#263238" stroke-width="0.44" stroke-miterlimit="10"/>
<path d="M90.9517 126.507C90.9517 126.507 94.8232 125.65 95.0385 125.219C95.2538 124.788 95.7901 123.551 95.7901 123.176C95.9098 122.467 96.0719 121.766 96.2755 121.077" fill="white"/>
<path d="M90.9517 126.507C90.9517 126.507 94.8232 125.65 95.0385 125.219C95.2538 124.788 95.7901 123.551 95.7901 123.176C95.9098 122.467 96.0719 121.766 96.2755 121.077" stroke="#263238" stroke-width="0.44" stroke-miterlimit="10"/>
<path d="M95.5234 127.313C96.275 126.922 96.5451 125.325 96.6508 124.252C96.6671 123.309 96.5592 122.368 96.3298 121.453" fill="white"/>
<path d="M95.5234 127.313C96.275 126.922 96.5451 125.325 96.6508 124.252C96.6671 123.309 96.5592 122.368 96.3298 121.453" stroke="#263238" stroke-width="0.44" stroke-miterlimit="10"/>
<path d="M105.091 108.124C105.091 108.124 106.265 113.178 106.598 113.82C106.763 114.172 106.979 114.498 107.24 114.787C107.157 113.535 106.96 112.294 106.649 111.08C106.103 109.664 105.475 108.281 104.77 106.938L105.091 108.124Z" fill="white" stroke="#263238" stroke-width="0.44" stroke-miterlimit="10"/>
<path d="M87.8902 97.1554C87.8902 97.1554 87.8354 99.2536 86.5984 100.487C85.3613 101.72 80.7265 103.121 80.7265 103.121C80.7265 103.121 81.8539 105.165 81.4272 105.811C81.0211 106.334 80.5502 106.803 80.0258 107.208C80.0258 107.208 80.6717 109.146 80.2959 109.522C79.9009 109.883 79.4881 110.224 79.0589 110.543C79.0589 110.543 79.8144 112.109 80.1902 113.068C80.4514 113.803 80.6491 114.558 80.7813 115.327C79.9562 115.628 79.0653 115.703 78.2016 115.542L76.7493 115.272C76.9903 114.484 77.1517 113.673 77.2308 112.853C77.2856 111.831 78.2525 110.543 78.2525 110.543C78.0321 110.208 77.92 109.813 77.9315 109.412C78.0419 108.79 78.2029 108.179 78.413 107.584C78.413 107.584 76.4244 105.004 76.6945 104.143C77.0214 103.307 77.4141 102.498 77.8689 101.724C77.8689 101.724 74.0835 100.158 74.9134 97.2102C75.9233 93.6245 77.544 89.0327 79.5639 87.7135C81.3559 86.5983 83.4818 86.1454 85.5727 86.4334C88.1524 86.8249 91.836 90.1131 91.836 90.1131C91.836 90.1131 93.9851 90.5437 94.0399 91.7807C94.0948 93.0177 92.5876 95.3273 91.6912 95.8127C90.7948 96.2981 87.8902 97.1554 87.8902 97.1554Z" fill="#263238" stroke="#263238" stroke-width="0.44" stroke-miterlimit="10"/>
<path opacity="0.27" d="M55.3253 152.649L55.4075 150.805H55.2666L53.4502 92.9282H32.1119L20.1333 190.761H22.9361L24.2788 178.798H53.4619L53.7125 190.761H56.5192L55.3253 152.649ZM53.321 171.999L49.4065 165.986H53.1997L53.321 171.999ZM53.0118 157.295L50.3186 153.17H52.9257L53.0118 157.295ZM33.6581 95.0851H51.7082L51.8726 102.993H32.7734L33.6581 95.0851ZM32.5581 104.911H51.9118L52.0958 113.523H31.5912L32.5581 104.911ZM31.4151 115.136V115.472H52.1623L52.3698 125.364H30.2681L31.4151 115.136ZM30.0411 127.4H52.3854L52.6086 138.012H28.851L30.0411 127.4ZM28.5849 140.377H52.6555L52.8748 150.825H27.4301L28.5849 140.377ZM27.1482 153.189H29.6653L26.7019 157.174L27.1482 153.189ZM26.4475 159.452L31.098 153.189H48.8936L53.0666 159.586L53.1527 163.641H25.9778L26.4475 159.452ZM25.7116 165.986H29.4226L25.0539 171.858L25.7116 165.986ZM24.5372 176.434L24.7956 174.12L30.8514 165.986H47.9659L53.368 174.265L53.415 176.434H24.5372Z" fill="black"/>
<path d="M32.7145 174.414L31.7202 173.74L37.3298 165.144L38.3241 165.817L32.7145 174.414Z" fill="white" stroke="#263238" stroke-width="0.44" stroke-miterlimit="10"/>
<path d="M61.5922 174.414L62.5239 173.74L56.1353 165.144L55.1997 165.817L61.5922 174.414Z" fill="white" stroke="#263238" stroke-width="0.44" stroke-miterlimit="10"/>
<path d="M32.1076 161.112L31.1133 160.443L36.7229 151.846L37.7172 152.519L32.1076 161.112Z" fill="white" stroke="#263238" stroke-width="0.44" stroke-miterlimit="10"/>
<path d="M60.9897 161.112L61.9213 160.443L55.5288 151.846L54.5972 152.519L60.9897 161.112Z" fill="white" stroke="#263238" stroke-width="0.44" stroke-miterlimit="10"/>
<path d="M54.2994 104.911H32.9728L32.8828 102.992H54.2133L54.2994 104.911Z" fill="white" stroke="#263238" stroke-width="0.44" stroke-miterlimit="10"/>
<path d="M54.7809 115.453H33.4543L33.3643 113.535H54.6908L54.7809 115.453Z" fill="white" stroke="#263238" stroke-width="0.44" stroke-miterlimit="10"/>
<path d="M62.3791 178.798H32.0451L31.9395 176.434H62.2695L62.3791 178.798Z" fill="white" stroke="#263238" stroke-width="0.44" stroke-miterlimit="10"/>
<path d="M61.7961 165.985H31.4621L31.3564 163.621H61.6865L61.7961 165.985Z" fill="white" stroke="#263238" stroke-width="0.44" stroke-miterlimit="10"/>
<path d="M61.2122 153.169H30.8782L30.7725 150.805H61.1026L61.2122 153.169Z" fill="white" stroke="#263238" stroke-width="0.44" stroke-miterlimit="10"/>
<path d="M59.2282 140.357H31.697L31.5874 137.992H59.1186L59.2282 140.357Z" fill="white" stroke="#263238" stroke-width="0.44" stroke-miterlimit="10"/>
<path d="M57.5879 127.38H32.1511L32.061 125.344H57.494L57.5879 127.38Z" fill="white" stroke="#263238" stroke-width="0.44" stroke-miterlimit="10"/>
<path d="M54.0646 92.928H32.7262L29.6611 190.761H32.464L34.4721 95.0849H52.5183L63.2403 190.761H66.0471L54.0646 92.928Z" fill="white" stroke="#263238" stroke-width="0.44" stroke-miterlimit="10"/>
</g>
<defs>
<clipPath id="clip0_171_16189">
<rect width="210" height="210" fill="white"/>
</clipPath>
</defs>
</svg>
