<svg width="121" height="120" viewBox="0 0 121 120" fill="none" xmlns="http://www.w3.org/2000/svg">
<g clip-path="url(#clip0_159_13005)">
<path opacity="0.5" d="M120.5 108.857C120.5 108.891 82.7844 108.785 39.7085 108.785C-3.36737 108.785 0.942223 108.891 0.942223 108.857C0.942223 108.823 -3.38359 108.659 39.7085 108.659C82.8007 108.659 120.5 108.82 120.5 108.857Z" fill="#263238"/>
<path d="M107.003 53.5089C112.861 37.3831 102.974 17.9937 86.3429 12.7773C76.6572 9.74181 65.5398 8.93653 54.5969 10.4778C31.5479 13.7302 30.5816 36.4593 24.5084 42.0068C18.4352 47.5543 8.358 54.1822 9.18566 70.4154C10.0133 86.6486 18.1489 88.8184 28.0964 96.9361C38.0439 105.054 39.4151 112.496 61.0839 112.496C82.7527 112.496 89.7945 108.436 94.7626 103.837C99.7308 99.2378 108.98 89.901 111.463 78.1305C113.946 66.3599 104.287 65.0066 105.943 57.0231C106.212 55.8281 106.567 54.6538 107.003 53.5089Z" fill="#FFD000"/>
<path opacity="0.7" d="M107.003 53.5089C112.861 37.3831 102.974 17.9937 86.3429 12.7773C76.6572 9.74181 65.5398 8.93653 54.5969 10.4778C31.5479 13.7302 30.5816 36.4593 24.5084 42.0068C18.4352 47.5543 8.358 54.1822 9.18566 70.4154C10.0133 86.6486 18.1489 88.8184 28.0964 96.9361C38.0439 105.054 39.4151 112.496 61.0839 112.496C82.7527 112.496 89.7945 108.436 94.7626 103.837C99.7308 99.2378 108.98 89.901 111.463 78.1305C113.946 66.3599 104.287 65.0066 105.943 57.0231C106.212 55.8281 106.567 54.6538 107.003 53.5089Z" fill="white"/>
<path d="M50.0132 71.366C50.0132 71.366 24.4119 58.647 24.7474 53.0525C25.0829 47.458 38.992 52.0347 38.992 52.0347C38.992 52.0347 23.7408 43.5569 25.5952 38.3002C27.4496 33.0434 35.9386 39.4879 35.9386 39.4879C35.9386 39.4879 25.9352 25.0801 32.2075 22.3623C38.4797 19.6444 44.9265 43.5569 44.9265 43.5569C44.9265 43.5569 44.2554 32.8734 53.2343 34.569C62.2132 36.2646 52.8943 55.4258 52.8943 55.4258C52.8943 55.4258 56.1177 48.1358 60.6943 49.3213C65.271 50.5069 50.0132 71.366 50.0132 71.366Z" stroke="#B2B2B2" stroke-width="0.44" stroke-miterlimit="10"/>
<path d="M60.6944 49.3211C56.668 48.2787 53.6996 53.7748 53.0353 55.137C54.1537 52.7167 61.5623 36.1503 53.2343 34.5777C44.2465 32.8822 44.9265 43.5656 44.9265 43.5656C44.9265 43.5656 38.482 19.6487 32.2075 22.362L32.0151 22.4537C43.392 42.5388 50.0132 71.3657 50.0132 71.3657C50.0132 71.3657 65.2733 50.5089 60.6944 49.3211Z" fill="white" stroke="#B2B2B2" stroke-width="0.44" stroke-miterlimit="10"/>
<path d="M98.0529 102.166C98.0529 102.166 91.7896 90.997 93.3151 89.0107C94.8407 87.0243 98.847 92.2273 98.847 92.2273C98.847 92.2273 95.335 85.2393 97.3505 83.7629C99.3659 82.2866 100.883 86.8185 100.883 86.8185C100.883 86.8185 100.813 78.9581 103.822 79.5352C106.83 80.1123 103.184 90.5922 103.184 90.5922C103.184 90.5922 105.627 86.4651 108.528 89.3596C111.43 92.2542 103.151 96.9919 103.151 96.9919C103.151 96.9919 106.184 95.104 107.58 96.6989C108.976 98.2938 98.0529 102.166 98.0529 102.166Z" stroke="#B2B2B2" stroke-width="0.44" stroke-miterlimit="10"/>
<path d="M107.568 96.6985C106.343 95.2982 103.855 96.5822 103.267 96.9222C104.296 96.3115 111.215 92.0413 108.528 89.3592C105.62 86.4647 103.184 90.5918 103.184 90.5918C103.184 90.5918 106.828 80.1074 103.822 79.5281L103.726 79.5146C102.871 89.82 98.0527 102.165 98.0527 102.165C98.0527 102.165 108.967 98.2912 107.568 96.6985Z" fill="white" stroke="#B2B2B2" stroke-width="0.44" stroke-miterlimit="10"/>
<path d="M53.6215 107.575C53.6215 107.575 34.8718 106.246 33.6773 102.759C32.4828 99.2713 42.0836 98.5779 42.0836 98.5779C42.0836 98.5779 30.6754 97.2358 30.5032 93.5762C30.3309 89.9166 37.0908 91.7106 37.0908 91.7106C37.0908 91.7106 27.4028 85.4473 30.539 82.2307C33.6751 79.014 43.5734 91.9366 43.5734 91.9366C43.5734 91.9366 40.4887 85.6106 46.3762 84.396C52.2637 83.1813 51.3868 97.1619 51.3868 97.1619C51.3868 97.1619 51.5233 91.9231 54.6035 91.4981C57.6837 91.0731 53.6215 107.575 53.6215 107.575Z" stroke="#B2B2B2" stroke-width="0.44" stroke-miterlimit="10"/>
<path d="M54.6097 91.4977C51.903 91.8713 51.478 95.9559 51.4042 96.9446C51.4847 95.1908 51.8516 83.266 46.3824 84.3956C40.4948 85.6102 43.5795 91.9362 43.5795 91.9362C43.5795 91.9362 33.6813 79.0114 30.5451 82.2303C30.512 82.2637 30.4807 82.2988 30.4512 82.3354C42.3917 91.7035 53.6277 107.574 53.6277 107.574C53.6277 107.574 57.6832 91.0682 54.6097 91.4977Z" fill="white" stroke="#B2B2B2" stroke-width="0.44" stroke-miterlimit="10"/>
<path d="M61.0478 90.2383C61.9918 88.8313 61.9918 87.601 61.4035 86.4736C59.9115 87.4355 58.0482 88.5898 56.3436 89.5181C55.9611 89.7261 55.5853 89.9229 55.2252 90.1041C51.4225 92.001 41.6785 92.001 40.0523 84.4135C38.4261 76.8259 43.5754 75.3384 44.3874 71.8153C44.6111 70.84 44.5038 69.5426 44.2331 68.1781C41.8441 62.7133 41.2401 56.9578 42.0857 54.3406C43.5754 49.7348 47.7741 46.8895 52.1092 47.1602C55.7598 47.3839 63.3541 49.33 64.9781 49.4642C66.6021 49.5984 70.794 49.1935 70.794 49.1935C70.794 49.1935 78.3816 50.4126 83.258 47.838C88.1344 45.2633 95.8562 44.4513 98.4309 48.9206C101.006 53.3899 99.9206 55.9668 97.4824 61.1139C95.0442 66.261 99.2429 67.4802 100.191 73.0344C100.883 77.0876 97.2475 79.6981 95.2321 80.8121C94.8203 81.0439 94.3953 81.2515 93.9593 81.4339L88.6758 80.0784L86.7811 86.8517C86.7811 86.8517 90.8433 89.2921 96.8046 94.9806C100.668 98.6692 104.077 103.438 105.996 106.337C107.038 107.903 107.642 108.934 107.642 108.934H49.6687C49.6687 108.934 50.5635 107.407 51.8743 105.176C54.44 100.832 58.6365 93.8196 61.0478 90.2383Z" fill="#FFD000" stroke="#B2B2B2" stroke-width="0.44" stroke-miterlimit="10"/>
<path d="M106.003 106.338C103.795 106.711 100.675 107.058 97.9388 106.678C93.0691 106.007 96.4513 101.671 97.3975 99.2355C98.3437 96.7995 90.6242 101.671 88.611 100.184C86.5978 98.6964 91.8589 93.9587 90.6398 91.3885C89.4207 88.8183 84.6874 91.3885 82.3879 89.2254C80.0884 87.0623 84.8217 85.1654 85.4994 83.8121C86.1772 82.4588 79.0728 80.8929 79.9519 76.3722C80.831 71.8514 84.4257 77.9939 85.2288 76.6428C86.0318 75.2917 80.6208 72.3122 80.8914 68.9233C81.1621 65.5344 84.9514 67.7064 84.9514 67.7064C84.9514 67.7064 87.5216 74.7415 92.9327 79.3383C93.6378 79.9202 94.4125 80.4124 95.2389 80.8035C94.8271 81.0353 94.4021 81.243 93.9661 81.4253L88.6825 80.0698L86.7879 86.8431C86.7879 86.8431 90.8501 89.2835 96.8114 94.972C100.675 98.674 104.084 103.439 106.003 106.338Z" fill="white" stroke="#B2B2B2" stroke-width="0.44" stroke-miterlimit="10"/>
<path d="M69.1205 91.7955C66.9574 93.5537 61.8148 90.5764 62.8974 94.095C63.9801 97.6136 67.4115 100.522 64.0718 101.367C60.7321 102.213 58.8397 98.5598 57.8913 100.725C56.9428 102.89 59.7859 105.054 58.1619 106.407C57.1822 107.223 54.2876 106.071 51.874 105.177C54.4397 100.833 58.6317 93.8199 61.0453 90.2386C61.9915 88.8316 61.9915 87.6013 61.4032 86.4739C59.9112 87.4358 58.0479 88.59 56.3433 89.5183C57.4349 87.136 57.9807 83.9261 56.6744 79.8885C56.6744 79.8885 54.7082 68.8606 56.538 67.4424C58.3677 66.0242 58.4326 74.6116 59.7859 74.4774C61.1392 74.3432 60.0566 68.6615 63.9801 69.8761C67.9036 71.0908 61.9512 76.1014 63.0317 78.2645C64.1121 80.4276 70.2032 73.6654 71.5565 77.8596C72.9098 82.0538 65.3334 85.1653 66.5503 86.5186C67.7672 87.872 71.2858 90.035 69.1205 91.7955Z" fill="white" stroke="#B2B2B2" stroke-width="0.44" stroke-miterlimit="10"/>
<path d="M64.913 108.935C67.7875 102.748 75.6502 85.1879 74.3237 81.2979C72.6974 76.5579 64.5708 59.8953 64.5708 59.8953L77.7103 58.269C77.7103 58.269 76.7619 70.1895 79.0659 80.893C80.9001 89.4245 88.5078 103.557 91.5142 108.935H64.913Z" fill="#757575" stroke="#B2B2B2" stroke-width="0.44" stroke-miterlimit="10"/>
<path d="M93.5318 74.4642C93.5318 74.4642 95.1804 74.7595 96.1222 74.5246C97.0639 74.2897 97.5359 74.5246 98.7707 74.5827C100.005 74.6409 101.361 73.7573 101.538 74.406C101.714 75.0547 101.48 75.7012 100.243 76.2313C99.0055 76.7615 99.3008 76.7615 96.8872 76.6429C94.4736 76.5244 92.0018 74.8176 93.5318 74.4642Z" fill="white" stroke="#B2B2B2" stroke-width="0.44" stroke-miterlimit="10"/>
<path d="M80.1488 81.8415C80.1488 81.8415 83.9516 82.6535 85.1617 82.3828C86.3719 82.1121 90.3066 81.2979 90.3066 81.2979L91.7964 82.2463L94.371 85.7694C94.371 85.7694 96.8093 87.6663 97.8941 87.3957C98.979 87.125 97.3506 86.1766 96.2679 85.0917C95.1853 84.0068 93.9639 81.4343 93.9639 81.4343C93.9639 81.4343 97.487 84.4139 97.8941 84.9552C98.3013 85.4966 99.2475 86.7179 100.196 87.3957C101.144 88.0735 102.16 87.8431 101.889 87.2973C101.619 86.7515 100.874 85.0917 100.603 84.6846C100.332 84.2774 95.9928 80.3494 95.9928 80.3494L98.7017 81.4343C98.7017 81.4343 101.61 84.9955 103.768 84.5906C104.784 84.4005 100.733 80.3405 100.057 79.9446C99.3817 79.5486 97.2186 77.6473 97.2186 77.6473L101.138 78.589C101.138 78.589 102.419 79.8506 102.824 80.5284C103.229 81.2062 104.661 81.4343 104.254 80.4859C103.847 79.5375 102.22 76.6832 101.679 76.4215C101.138 76.1597 100.731 76.2872 98.0217 75.7504C95.3128 75.2135 89.6221 72.6344 88.403 73.4486C87.1839 74.2629 81.2293 77.6473 81.2293 77.6473C81.2293 77.6473 75.9457 78.7322 64.4302 78.7322C52.9146 78.7322 51.4249 78.0611 48.3089 80.0855C45.1929 82.1099 44.5173 88.7557 53.3217 89.297C62.1262 89.8384 80.1488 81.8415 80.1488 81.8415Z" fill="white" stroke="#B2B2B2" stroke-width="0.44" stroke-miterlimit="10"/>
<path d="M77.2024 16.5798C77.2024 16.5798 63.242 8.45091 61.0744 10.6185C58.9069 12.786 61.4815 14.1416 60.8037 15.9087C60.126 17.6759 51.9993 27.1536 49.154 31.4887C46.3087 35.8238 52.2856 41.4317 63.2464 44.588C74.2072 47.7442 85.8525 44.9929 87.6286 42.237C92.6437 34.4481 80.7144 28.3682 81.1193 24.9861C81.5241 21.6039 80.0411 18.6109 77.2024 16.5798Z" fill="#757575" stroke="#B2B2B2" stroke-width="0.44" stroke-miterlimit="10"/>
<path d="M72.5636 32.3946C72.5636 32.3946 70.9374 41.6062 72.1565 46.4871C72.8701 49.3391 75.1584 51.4619 76.9278 53.6809C78.5943 55.7724 79.082 58.7967 78.0194 61.2707C76.9927 63.6575 74.7491 64.8296 72.2035 64.7469C66.835 64.5701 59.3369 60.0494 62.2784 53.804C64.4459 49.1982 65.6651 43.5142 65.6651 41.2035C65.6651 38.8928 71.6107 29.9564 72.5636 32.3946Z" fill="white" stroke="#B2B2B2" stroke-width="0.44" stroke-miterlimit="10"/>
<path d="M76.7553 36.5931C76.7553 36.5931 73.7757 37.9487 72.6908 38.7607C71.6059 39.5727 69.8477 39.7091 69.3042 41.0647C68.7606 42.4202 69.0335 45.1291 68.4922 46.7531C67.9508 48.3771 69.8477 46.7531 70.1184 45.8047C70.389 44.8562 70.5233 43.3664 70.9304 42.6909C71.3375 42.0154 73.3686 41.0647 73.3686 41.0647C72.9115 41.9262 72.5485 42.8344 72.2859 43.7736C71.8788 45.2633 70.9304 48.2474 70.6597 48.65C70.3891 49.0526 71.6082 49.3211 72.1495 48.5158C72.6908 47.7105 73.9099 44.5856 74.0464 44.1807C74.1828 43.7758 76.2139 40.6576 76.2139 40.6576C76.2139 40.6576 75.2655 43.6393 75.129 45.2633C74.9926 46.8873 73.9099 48.9207 74.9948 48.3793C76.0797 47.838 76.7553 46.7531 76.8917 46.0776C77.0282 45.402 77.9744 41.4718 77.9744 41.4718L79.4641 40.2527C79.2764 41.4887 79.0052 42.7106 78.6522 43.91C78.1108 45.6704 77.433 46.2118 77.9811 46.3482C78.5291 46.4847 79.878 45.1291 80.1486 44.1807C80.4193 43.2322 80.2157 41.4651 81.0971 40.9282C81.7681 40.5144 83.6807 39.038 84.3473 36.5931C84.864 34.7097 85.4322 34.9691 85.4322 34.9691C85.4322 34.9691 85.2957 43.6393 84.7611 50.1398C84.2265 56.6402 82.0522 68.97 83.2713 71.8153C84.4905 74.6606 90.586 76.6917 93.1607 72.3566C95.7353 68.0215 94.2433 63.1451 91.9416 53.1193C89.6398 43.0935 88.0136 31.3096 86.658 30.6318C85.3024 29.954 82.8575 30.2247 76.7553 36.5931Z" fill="white" stroke="#B2B2B2" stroke-width="0.44" stroke-miterlimit="10"/>
<path d="M75.3192 29.7774C75.3192 37.0629 71.5276 42.9885 66.819 43.1383C66.7586 43.1383 66.6959 43.1383 66.6333 43.1383C61.8307 43.1383 57.9385 37.1546 57.9385 29.7729C57.9385 22.3911 61.8307 16.4097 66.6333 16.4097C71.4359 16.4097 75.3192 22.3956 75.3192 29.7774Z" fill="white" stroke="#B2B2B2" stroke-width="0.44" stroke-miterlimit="10"/>
<path d="M66.8121 43.134C66.7517 43.134 66.6891 43.134 66.6265 43.134C61.8238 43.134 57.9316 37.1503 57.9316 29.7685C57.9316 22.3867 61.8238 16.4053 66.6265 16.4053C64.9721 17.8285 63.7836 19.716 63.2152 21.823C62.2667 25.3462 62.2667 34.1506 62.2667 34.1506L65.7943 34.4257C65.7943 34.4257 66.1947 39.5929 66.8121 43.134Z" fill="#FFD000" stroke="#B2B2B2" stroke-width="0.44" stroke-miterlimit="10"/>
<path d="M66.6018 27.8581C66.6018 27.8581 65.0673 26.4175 65.1814 25.3237C65.2954 24.2299 67.7001 22.8631 69.8788 23.2747C72.0576 23.6863 74.6971 26.0216 72.4311 27.8581C70.1652 29.6946 66.6018 27.8581 66.6018 27.8581Z" fill="#757575" stroke="#B2B2B2" stroke-width="0.44" stroke-miterlimit="10"/>
<path d="M66.6018 27.9878C66.6018 27.9878 65.0673 26.7799 65.1814 25.865C65.2954 24.9501 67.7001 23.8026 69.8788 24.1471C72.0576 24.4916 74.6926 26.4511 72.4267 27.9878C70.1607 29.5246 66.6018 27.9878 66.6018 27.9878Z" fill="#FFD000" stroke="#B2B2B2" stroke-width="0.44" stroke-miterlimit="10"/>
<path d="M72.4268 27.9881C72.4268 27.9881 71.1227 29.4108 69.5188 29.4108C67.915 29.4108 66.6108 27.9881 66.6108 27.9881C66.6108 27.9881 67.915 26.5654 69.5188 26.5654C71.1227 26.5654 72.4268 27.9881 72.4268 27.9881Z" fill="white" stroke="#B2B2B2" stroke-width="0.44" stroke-miterlimit="10"/>
<path d="M76.916 27.4979C76.916 27.4979 78.6295 15.8951 80.8552 15.318C83.0809 14.7409 83.0585 20.7447 83.0585 20.7447C83.0585 20.7447 84.4298 13.7164 86.7181 13.7768C89.0064 13.8372 87.5659 17.9642 87.5659 17.9642C87.5659 17.9642 91.9211 12.2311 93.7755 14.3427C95.6299 16.4543 87.1185 21.9929 87.1185 21.9929C87.1185 21.9929 91.2008 20.3734 91.6795 24.0933C92.1582 27.8133 83.4992 26.6009 83.4992 26.6009C83.4992 26.6009 86.7539 26.9319 86.8702 28.8691C86.9865 30.8063 76.916 27.4979 76.916 27.4979Z" fill="white" stroke="#B2B2B2" stroke-width="0.44" stroke-miterlimit="10"/>
<path d="M86.8703 28.869C86.7674 27.1667 84.2465 26.7037 83.6335 26.6164C84.7207 26.7506 92.1226 27.5336 91.6864 24.0865C91.2077 20.3665 87.1253 21.9861 87.1253 21.9861C87.1253 21.9861 95.6367 16.4385 93.7823 14.3359L93.7219 14.271C87.3289 21.2568 76.9229 27.4978 76.9229 27.4978C76.9229 27.4978 86.9889 30.8039 86.8703 28.869Z" fill="#FFD000" stroke="#B2B2B2" stroke-width="0.44" stroke-miterlimit="10"/>
<path d="M108.141 101.533C108.141 101.533 108.242 101.159 108.247 101.135C108.287 100.853 108.195 100.285 107.909 100.146C107.861 100.124 107.808 100.113 107.756 100.112C107.703 100.112 107.65 100.123 107.602 100.144C107.553 100.165 107.51 100.196 107.474 100.235C107.438 100.274 107.411 100.32 107.394 100.37C107.368 100.482 107.367 100.598 107.391 100.71C107.414 100.823 107.462 100.929 107.531 101.021C107.708 101.22 107.914 101.393 108.141 101.533Z" fill="#263238"/>
<path d="M102.48 101.412C102.738 101.479 103.004 101.508 103.27 101.499C103.27 101.499 103.149 101.132 103.138 101.11C103.015 100.853 102.628 100.428 102.31 100.47C102.258 100.479 102.208 100.499 102.164 100.528C102.119 100.557 102.082 100.595 102.053 100.64C102.025 100.685 102.006 100.735 101.998 100.787C101.99 100.84 101.994 100.893 102.008 100.944C102.048 101.052 102.111 101.149 102.193 101.23C102.274 101.311 102.372 101.373 102.48 101.412Z" fill="#263238"/>
<path d="M102.67 103.034C102.934 103.031 103.195 102.99 103.447 102.911C103.529 103.197 103.63 103.477 103.751 103.75C103.818 103.908 103.894 104.067 103.974 104.226C103.927 104.159 103.887 104.099 103.88 104.092C103.695 103.868 103.209 103.568 102.914 103.694C102.866 103.716 102.822 103.747 102.787 103.787C102.752 103.827 102.725 103.874 102.71 103.924C102.694 103.975 102.689 104.029 102.695 104.081C102.701 104.134 102.719 104.185 102.746 104.231C102.814 104.324 102.9 104.401 103 104.457C103.1 104.514 103.211 104.548 103.326 104.557C103.581 104.557 103.836 104.518 104.08 104.441C104.111 104.501 104.14 104.562 104.169 104.622C104.314 104.908 104.46 105.197 104.594 105.481C104.643 105.582 104.686 105.685 104.728 105.785C104.688 105.725 104.654 105.676 104.648 105.669C104.46 105.445 103.977 105.145 103.679 105.271C103.631 105.293 103.588 105.325 103.553 105.365C103.519 105.405 103.493 105.452 103.477 105.502C103.461 105.553 103.457 105.606 103.463 105.659C103.469 105.711 103.486 105.762 103.514 105.808C103.581 105.901 103.667 105.978 103.767 106.035C103.867 106.091 103.978 106.125 104.093 106.134C104.342 106.135 104.589 106.097 104.827 106.022C104.869 106.127 104.909 106.233 104.945 106.336C104.981 106.438 104.994 106.474 105.012 106.546L105.073 106.758C105.104 106.895 105.14 107.036 105.169 107.17C105.189 107.262 105.207 107.351 105.225 107.441C105.18 107.34 105.084 107.143 105.075 107.13C104.923 106.888 104.489 106.51 104.18 106.591C104.129 106.605 104.082 106.629 104.041 106.663C104 106.697 103.967 106.739 103.943 106.786C103.92 106.834 103.907 106.886 103.905 106.939C103.903 106.992 103.912 107.045 103.932 107.094C103.984 107.196 104.058 107.286 104.148 107.357C104.239 107.427 104.344 107.477 104.455 107.503C104.715 107.544 104.979 107.544 105.238 107.503C105.267 107.652 105.293 107.795 105.319 107.933C105.402 108.407 105.455 108.803 105.487 109.08H105.71V109.056C105.672 108.776 105.612 108.385 105.516 107.899C105.487 107.747 105.451 107.588 105.415 107.423C105.565 107.363 105.71 107.295 105.851 107.217C106.043 107.382 106.257 107.52 106.486 107.628C106.431 107.767 106.375 107.904 106.319 108.031C106.126 108.478 105.95 108.832 105.824 109.08H106.061C106.18 108.832 106.33 108.501 106.493 108.105C106.551 107.962 106.61 107.81 106.67 107.658C106.925 107.718 107.189 107.739 107.451 107.718C107.564 107.7 107.672 107.658 107.768 107.594C107.863 107.531 107.943 107.447 108.003 107.349C108.026 107.301 108.039 107.249 108.041 107.196C108.043 107.143 108.034 107.091 108.014 107.041C107.994 106.992 107.964 106.948 107.926 106.911C107.888 106.874 107.843 106.846 107.793 106.828C107.491 106.725 107.03 107.069 106.86 107.3L106.701 107.573L106.775 107.378C106.822 107.246 106.867 107.114 106.914 106.971C106.936 106.901 106.956 106.832 106.979 106.761C107.001 106.689 107.014 106.613 107.035 106.537C107.075 106.365 107.108 106.188 107.137 106.009C107.375 106.102 107.624 106.159 107.878 106.179C107.993 106.178 108.106 106.153 108.21 106.104C108.313 106.055 108.406 105.985 108.48 105.897C108.51 105.854 108.531 105.804 108.541 105.752C108.552 105.7 108.551 105.647 108.539 105.595C108.527 105.543 108.505 105.495 108.473 105.452C108.441 105.41 108.401 105.375 108.354 105.349C108.07 105.201 107.56 105.472 107.359 105.673C107.348 105.687 107.218 105.846 107.149 105.935C107.167 105.828 107.184 105.711 107.198 105.611C107.236 105.295 107.265 104.973 107.296 104.653C107.307 104.555 107.316 104.457 107.328 104.358C107.572 104.457 107.83 104.517 108.093 104.537C108.207 104.537 108.321 104.512 108.425 104.463C108.529 104.415 108.621 104.344 108.694 104.255C108.725 104.212 108.746 104.163 108.756 104.111C108.766 104.059 108.765 104.005 108.753 103.954C108.741 103.902 108.718 103.854 108.686 103.812C108.654 103.77 108.613 103.735 108.567 103.709C108.283 103.562 107.775 103.832 107.574 104.034C107.558 104.049 107.372 104.28 107.33 104.34C107.352 104.117 107.377 103.911 107.41 103.7C107.453 103.416 107.514 103.134 107.594 102.857C107.84 102.956 108.099 103.017 108.363 103.038C108.478 103.038 108.591 103.012 108.695 102.963C108.799 102.915 108.891 102.844 108.965 102.756C108.995 102.713 109.016 102.664 109.026 102.611C109.037 102.559 109.036 102.506 109.023 102.454C109.011 102.402 108.989 102.354 108.957 102.311C108.925 102.269 108.884 102.234 108.837 102.208C108.553 102.063 108.046 102.331 107.844 102.533C107.831 102.546 107.69 102.723 107.621 102.808H107.603C107.692 102.532 107.804 102.264 107.938 102.007C108.01 101.866 108.088 101.734 108.162 101.607C108.39 101.73 108.636 101.817 108.891 101.864C109.006 101.875 109.122 101.861 109.23 101.822C109.339 101.783 109.438 101.721 109.52 101.64C109.555 101.601 109.581 101.554 109.597 101.503C109.612 101.453 109.617 101.399 109.611 101.347C109.605 101.294 109.587 101.243 109.56 101.198C109.533 101.153 109.496 101.114 109.453 101.083C109.186 100.907 108.652 101.119 108.43 101.296C108.417 101.296 108.305 101.417 108.225 101.499L108.332 101.332C108.466 101.13 108.6 100.954 108.721 100.799C108.79 100.712 108.855 100.634 108.916 100.562C109.173 100.565 109.43 100.528 109.676 100.452C109.783 100.411 109.88 100.347 109.959 100.264C110.038 100.181 110.098 100.082 110.135 99.9738C110.148 99.9223 110.15 99.8686 110.141 99.8163C110.132 99.764 110.112 99.7142 110.082 99.6702C110.052 99.6263 110.013 99.5891 109.968 99.5613C109.923 99.5334 109.872 99.5154 109.819 99.5085C109.502 99.4749 109.126 99.9089 109.01 100.18C109.01 100.202 108.884 100.571 108.889 100.571L108.699 100.795C108.574 100.947 108.435 101.121 108.296 101.32C108.145 101.536 108.006 101.76 107.88 101.991C107.739 102.247 107.62 102.515 107.527 102.792V102.803C107.527 102.709 107.527 102.448 107.527 102.428C107.491 102.146 107.254 101.62 106.938 101.562C106.886 101.554 106.833 101.557 106.782 101.571C106.731 101.585 106.683 101.61 106.642 101.643C106.601 101.677 106.568 101.719 106.544 101.766C106.521 101.813 106.507 101.865 106.504 101.918C106.511 102.026 106.541 102.132 106.592 102.228C106.642 102.325 106.712 102.409 106.797 102.477C107.018 102.622 107.259 102.732 107.513 102.803C107.425 103.088 107.355 103.378 107.303 103.671C107.274 103.841 107.247 104.016 107.225 104.188C107.225 104.108 107.225 104.036 107.225 104.025C107.189 103.743 106.952 103.22 106.639 103.161C106.586 103.153 106.532 103.155 106.481 103.169C106.43 103.183 106.382 103.207 106.34 103.241C106.299 103.275 106.266 103.317 106.242 103.364C106.218 103.412 106.205 103.464 106.202 103.517C106.207 103.631 106.236 103.743 106.289 103.845C106.341 103.947 106.414 104.037 106.504 104.108C106.719 104.249 106.953 104.357 107.2 104.427C107.2 104.495 107.182 104.559 107.175 104.627C107.135 104.946 107.099 105.266 107.055 105.579C107.039 105.689 107.019 105.803 106.999 105.906C106.999 105.834 106.999 105.774 106.999 105.765C106.963 105.481 106.726 104.958 106.413 104.899C106.359 104.889 106.304 104.89 106.252 104.903C106.199 104.916 106.15 104.94 106.107 104.974C106.064 105.008 106.03 105.051 106.005 105.099C105.981 105.148 105.967 105.201 105.965 105.255C105.97 105.37 105.999 105.482 106.051 105.584C106.103 105.686 106.177 105.775 106.267 105.846C106.474 105.984 106.7 106.09 106.938 106.159C106.914 106.268 106.891 106.382 106.865 106.485C106.838 106.588 106.829 106.626 106.804 106.698L106.737 106.908C106.688 107.04 106.641 107.177 106.589 107.304L106.489 107.561C106.504 107.452 106.533 107.237 106.536 107.219C106.532 106.968 106.464 106.723 106.339 106.506C106.341 106.477 106.341 106.449 106.339 106.421C106.332 106.368 106.314 106.318 106.287 106.272C106.26 106.227 106.223 106.188 106.179 106.158C106.136 106.128 106.087 106.107 106.035 106.097C105.983 106.088 105.93 106.089 105.878 106.101C105.569 106.183 105.375 106.725 105.359 107.009C105.359 107.027 105.37 107.21 105.379 107.324L105.332 107.123C105.299 106.986 105.263 106.852 105.225 106.707C105.203 106.637 105.182 106.566 105.16 106.494C105.138 106.423 105.111 106.351 105.086 106.271C105.026 106.103 104.954 105.937 104.88 105.772C105.13 105.72 105.369 105.63 105.592 105.506C105.688 105.442 105.768 105.358 105.828 105.26C105.888 105.162 105.926 105.052 105.938 104.937C105.94 104.884 105.93 104.832 105.91 104.783C105.889 104.734 105.859 104.689 105.82 104.653C105.781 104.617 105.736 104.589 105.685 104.572C105.635 104.554 105.582 104.548 105.529 104.553C105.214 104.586 104.939 105.092 104.88 105.371C104.88 105.389 104.858 105.595 104.849 105.707C104.804 105.606 104.76 105.508 104.71 105.409C104.569 105.123 104.415 104.839 104.263 104.555C104.216 104.468 104.171 104.38 104.127 104.291C104.385 104.239 104.633 104.147 104.862 104.018C104.958 103.955 105.039 103.872 105.099 103.774C105.159 103.676 105.197 103.566 105.209 103.452C105.211 103.399 105.201 103.347 105.181 103.298C105.16 103.249 105.13 103.205 105.092 103.168C105.053 103.132 105.008 103.104 104.958 103.086C104.908 103.068 104.855 103.061 104.802 103.065C104.484 103.101 104.209 103.606 104.151 103.884C104.151 103.906 104.12 104.202 104.118 104.275C104.017 104.083 103.921 103.891 103.831 103.698C103.71 103.437 103.606 103.168 103.52 102.893C103.779 102.838 104.028 102.746 104.261 102.62C104.357 102.556 104.437 102.473 104.497 102.374C104.557 102.276 104.595 102.166 104.607 102.052C104.609 101.999 104.599 101.946 104.579 101.897C104.559 101.848 104.528 101.804 104.49 101.768C104.452 101.731 104.406 101.703 104.356 101.686C104.306 101.668 104.253 101.661 104.2 101.665C103.883 101.701 103.608 102.206 103.549 102.486C103.549 102.504 103.525 102.727 103.518 102.835H103.5C103.421 102.556 103.367 102.271 103.337 101.983C103.319 101.824 103.312 101.672 103.306 101.524C103.564 101.499 103.816 101.435 104.055 101.334C104.157 101.281 104.247 101.207 104.317 101.116C104.387 101.025 104.437 100.92 104.462 100.808C104.469 100.756 104.465 100.702 104.451 100.651C104.436 100.6 104.411 100.553 104.377 100.513C104.342 100.472 104.3 100.439 104.252 100.416C104.205 100.393 104.153 100.38 104.1 100.379C103.78 100.379 103.451 100.851 103.364 101.124C103.364 101.137 103.326 101.294 103.306 101.405C103.306 101.338 103.306 101.269 103.306 101.206C103.306 100.965 103.321 100.743 103.337 100.546C103.337 100.437 103.357 100.336 103.368 100.242C103.585 100.102 103.778 99.9304 103.943 99.7322C104.009 99.6383 104.053 99.5313 104.074 99.4186C104.094 99.3058 104.09 99.19 104.062 99.079C104.045 99.028 104.018 98.9812 103.981 98.9416C103.945 98.9021 103.901 98.8706 103.852 98.8495C103.802 98.8283 103.749 98.8179 103.695 98.8189C103.642 98.8199 103.589 98.8323 103.54 98.8553C103.259 99.003 103.183 99.5734 103.23 99.8552C103.23 99.8776 103.341 100.251 103.346 100.249C103.332 100.338 103.321 100.435 103.31 100.542C103.29 100.737 103.27 100.958 103.265 101.2C103.256 101.461 103.262 101.722 103.283 101.983C103.306 102.274 103.355 102.563 103.429 102.846C103.429 102.846 103.429 102.846 103.429 102.857C103.379 102.777 103.232 102.562 103.218 102.546C103.033 102.323 102.547 102.025 102.25 102.148C102.202 102.17 102.159 102.202 102.124 102.242C102.089 102.282 102.063 102.329 102.048 102.38C102.032 102.43 102.027 102.484 102.033 102.536C102.04 102.589 102.057 102.639 102.084 102.685C102.149 102.783 102.236 102.866 102.337 102.927C102.439 102.987 102.553 103.024 102.67 103.034Z" fill="#263238"/>
<path opacity="0.3" d="M102.48 101.412C102.738 101.479 103.004 101.508 103.27 101.499C103.27 101.499 103.149 101.132 103.138 101.11C103.015 100.853 102.628 100.428 102.31 100.47C102.258 100.479 102.208 100.499 102.164 100.528C102.119 100.557 102.082 100.595 102.053 100.64C102.025 100.685 102.006 100.735 101.998 100.787C101.99 100.84 101.994 100.893 102.008 100.944C102.048 101.052 102.111 101.149 102.193 101.23C102.274 101.311 102.372 101.373 102.48 101.412Z" fill="#263238"/>
<path opacity="0.3" d="M108.141 101.533C108.141 101.533 108.242 101.159 108.247 101.135C108.287 100.853 108.195 100.285 107.909 100.146C107.861 100.124 107.808 100.113 107.756 100.112C107.703 100.112 107.65 100.123 107.602 100.144C107.553 100.165 107.51 100.196 107.474 100.235C107.438 100.274 107.411 100.32 107.394 100.37C107.368 100.482 107.367 100.598 107.391 100.71C107.414 100.823 107.462 100.929 107.531 101.021C107.708 101.22 107.914 101.393 108.141 101.533Z" fill="#263238"/>
<path opacity="0.3" d="M102.67 103.034C102.934 103.031 103.195 102.99 103.447 102.911C103.529 103.197 103.63 103.477 103.751 103.75C103.818 103.908 103.894 104.067 103.974 104.226C103.927 104.159 103.887 104.099 103.88 104.092C103.695 103.868 103.209 103.568 102.914 103.694C102.866 103.716 102.822 103.747 102.787 103.787C102.752 103.827 102.725 103.874 102.71 103.924C102.694 103.975 102.689 104.029 102.695 104.081C102.701 104.134 102.719 104.185 102.746 104.231C102.814 104.324 102.9 104.401 103 104.457C103.1 104.514 103.211 104.548 103.326 104.557C103.581 104.557 103.836 104.518 104.08 104.441C104.111 104.501 104.14 104.562 104.169 104.622C104.314 104.908 104.46 105.197 104.594 105.481C104.643 105.582 104.686 105.685 104.728 105.785C104.688 105.725 104.654 105.676 104.648 105.669C104.46 105.445 103.977 105.145 103.679 105.271C103.631 105.293 103.588 105.325 103.553 105.365C103.519 105.405 103.493 105.452 103.477 105.502C103.461 105.553 103.457 105.606 103.463 105.659C103.469 105.711 103.486 105.762 103.514 105.808C103.581 105.901 103.667 105.978 103.767 106.035C103.867 106.091 103.978 106.125 104.093 106.134C104.342 106.135 104.589 106.097 104.827 106.022C104.869 106.127 104.909 106.233 104.945 106.336C104.981 106.438 104.994 106.474 105.012 106.546L105.073 106.758C105.104 106.895 105.14 107.036 105.169 107.17C105.189 107.262 105.207 107.351 105.225 107.441C105.18 107.34 105.084 107.143 105.075 107.13C104.923 106.888 104.489 106.51 104.18 106.591C104.129 106.605 104.082 106.629 104.041 106.663C104 106.697 103.967 106.739 103.943 106.786C103.92 106.834 103.907 106.886 103.905 106.939C103.903 106.992 103.912 107.045 103.932 107.094C103.984 107.196 104.058 107.286 104.148 107.357C104.239 107.427 104.344 107.477 104.455 107.503C104.715 107.544 104.979 107.544 105.238 107.503C105.267 107.652 105.293 107.795 105.319 107.933C105.402 108.407 105.455 108.803 105.487 109.08H105.71V109.056C105.672 108.776 105.612 108.385 105.516 107.899C105.487 107.747 105.451 107.588 105.415 107.423C105.565 107.363 105.71 107.295 105.851 107.217C106.043 107.382 106.257 107.52 106.486 107.628C106.431 107.767 106.375 107.904 106.319 108.031C106.126 108.478 105.95 108.832 105.824 109.08H106.061C106.18 108.832 106.33 108.501 106.493 108.105C106.551 107.962 106.61 107.81 106.67 107.658C106.925 107.718 107.189 107.739 107.451 107.718C107.564 107.7 107.672 107.658 107.768 107.594C107.863 107.531 107.943 107.447 108.003 107.349C108.026 107.301 108.039 107.249 108.041 107.196C108.043 107.143 108.034 107.091 108.014 107.041C107.994 106.992 107.964 106.948 107.926 106.911C107.888 106.874 107.843 106.846 107.793 106.828C107.491 106.725 107.03 107.069 106.86 107.3L106.701 107.573L106.775 107.378C106.822 107.246 106.867 107.114 106.914 106.971C106.936 106.901 106.956 106.832 106.979 106.761C107.001 106.689 107.014 106.613 107.035 106.537C107.075 106.365 107.108 106.188 107.137 106.009C107.375 106.102 107.624 106.159 107.878 106.179C107.993 106.178 108.106 106.153 108.21 106.104C108.313 106.055 108.406 105.985 108.48 105.897C108.51 105.854 108.531 105.804 108.541 105.752C108.552 105.7 108.551 105.647 108.539 105.595C108.527 105.543 108.505 105.495 108.473 105.452C108.441 105.41 108.401 105.375 108.354 105.349C108.07 105.201 107.56 105.472 107.359 105.673C107.348 105.687 107.218 105.846 107.149 105.935C107.167 105.828 107.184 105.711 107.198 105.611C107.236 105.295 107.265 104.973 107.296 104.653C107.307 104.555 107.316 104.457 107.328 104.358C107.572 104.457 107.83 104.517 108.093 104.537C108.207 104.537 108.321 104.512 108.425 104.463C108.529 104.415 108.621 104.344 108.694 104.255C108.725 104.212 108.746 104.163 108.756 104.111C108.766 104.059 108.765 104.005 108.753 103.954C108.741 103.902 108.718 103.854 108.686 103.812C108.654 103.77 108.613 103.735 108.567 103.709C108.283 103.562 107.775 103.832 107.574 104.034C107.558 104.049 107.372 104.28 107.33 104.34C107.352 104.117 107.377 103.911 107.41 103.7C107.453 103.416 107.514 103.134 107.594 102.857C107.84 102.956 108.099 103.017 108.363 103.038C108.478 103.038 108.591 103.012 108.695 102.963C108.799 102.915 108.891 102.844 108.965 102.756C108.995 102.713 109.016 102.664 109.026 102.611C109.037 102.559 109.036 102.506 109.023 102.454C109.011 102.402 108.989 102.354 108.957 102.311C108.925 102.269 108.884 102.234 108.837 102.208C108.553 102.063 108.046 102.331 107.844 102.533C107.831 102.546 107.69 102.723 107.621 102.808H107.603C107.692 102.532 107.804 102.264 107.938 102.007C108.01 101.866 108.088 101.734 108.162 101.607C108.39 101.73 108.636 101.817 108.891 101.864C109.006 101.875 109.122 101.861 109.23 101.822C109.339 101.783 109.438 101.721 109.52 101.64C109.555 101.601 109.581 101.554 109.597 101.503C109.612 101.453 109.617 101.399 109.611 101.347C109.605 101.294 109.587 101.243 109.56 101.198C109.533 101.153 109.496 101.114 109.453 101.083C109.186 100.907 108.652 101.119 108.43 101.296C108.417 101.296 108.305 101.417 108.225 101.499L108.332 101.332C108.466 101.13 108.6 100.954 108.721 100.799C108.79 100.712 108.855 100.634 108.916 100.562C109.173 100.565 109.43 100.528 109.676 100.452C109.783 100.411 109.88 100.347 109.959 100.264C110.038 100.181 110.098 100.082 110.135 99.9738C110.148 99.9223 110.15 99.8686 110.141 99.8163C110.132 99.764 110.112 99.7142 110.082 99.6702C110.052 99.6263 110.013 99.5891 109.968 99.5613C109.923 99.5334 109.872 99.5154 109.819 99.5085C109.502 99.4749 109.126 99.9089 109.01 100.18C109.01 100.202 108.884 100.571 108.889 100.571L108.699 100.795C108.574 100.947 108.435 101.121 108.296 101.32C108.145 101.536 108.006 101.76 107.88 101.991C107.739 102.247 107.62 102.515 107.527 102.792V102.803C107.527 102.709 107.527 102.448 107.527 102.428C107.491 102.146 107.254 101.62 106.938 101.562C106.886 101.554 106.833 101.557 106.782 101.571C106.731 101.585 106.683 101.61 106.642 101.643C106.601 101.677 106.568 101.719 106.544 101.766C106.521 101.813 106.507 101.865 106.504 101.918C106.511 102.026 106.541 102.132 106.592 102.228C106.642 102.325 106.712 102.409 106.797 102.477C107.018 102.622 107.259 102.732 107.513 102.803C107.425 103.088 107.355 103.378 107.303 103.671C107.274 103.841 107.247 104.016 107.225 104.188C107.225 104.108 107.225 104.036 107.225 104.025C107.189 103.743 106.952 103.22 106.639 103.161C106.586 103.153 106.532 103.155 106.481 103.169C106.43 103.183 106.382 103.207 106.34 103.241C106.299 103.275 106.266 103.317 106.242 103.364C106.218 103.412 106.205 103.464 106.202 103.517C106.207 103.631 106.236 103.743 106.289 103.845C106.341 103.947 106.414 104.037 106.504 104.108C106.719 104.249 106.953 104.357 107.2 104.427C107.2 104.495 107.182 104.559 107.175 104.627C107.135 104.946 107.099 105.266 107.055 105.579C107.039 105.689 107.019 105.803 106.999 105.906C106.999 105.834 106.999 105.774 106.999 105.765C106.963 105.481 106.726 104.958 106.413 104.899C106.359 104.889 106.304 104.89 106.252 104.903C106.199 104.916 106.15 104.94 106.107 104.974C106.064 105.008 106.03 105.051 106.005 105.099C105.981 105.148 105.967 105.201 105.965 105.255C105.97 105.37 105.999 105.482 106.051 105.584C106.103 105.686 106.177 105.775 106.267 105.846C106.474 105.984 106.7 106.09 106.938 106.159C106.914 106.268 106.891 106.382 106.865 106.485C106.838 106.588 106.829 106.626 106.804 106.698L106.737 106.908C106.688 107.04 106.641 107.177 106.589 107.304L106.489 107.561C106.504 107.452 106.533 107.237 106.536 107.219C106.532 106.968 106.464 106.723 106.339 106.506C106.341 106.477 106.341 106.449 106.339 106.421C106.332 106.368 106.314 106.318 106.287 106.272C106.26 106.227 106.223 106.188 106.179 106.158C106.136 106.128 106.087 106.107 106.035 106.097C105.983 106.088 105.93 106.089 105.878 106.101C105.569 106.183 105.375 106.725 105.359 107.009C105.359 107.027 105.37 107.21 105.379 107.324L105.332 107.123C105.299 106.986 105.263 106.852 105.225 106.707C105.203 106.637 105.182 106.566 105.16 106.494C105.138 106.423 105.111 106.351 105.086 106.271C105.026 106.103 104.954 105.937 104.88 105.772C105.13 105.72 105.369 105.63 105.592 105.506C105.688 105.442 105.768 105.358 105.828 105.26C105.888 105.162 105.926 105.052 105.938 104.937C105.94 104.884 105.93 104.832 105.91 104.783C105.889 104.734 105.859 104.689 105.82 104.653C105.781 104.617 105.736 104.589 105.685 104.572C105.635 104.554 105.582 104.548 105.529 104.553C105.214 104.586 104.939 105.092 104.88 105.371C104.88 105.389 104.858 105.595 104.849 105.707C104.804 105.606 104.76 105.508 104.71 105.409C104.569 105.123 104.415 104.839 104.263 104.555C104.216 104.468 104.171 104.38 104.127 104.291C104.385 104.239 104.633 104.147 104.862 104.018C104.958 103.955 105.039 103.872 105.099 103.774C105.159 103.676 105.197 103.566 105.209 103.452C105.211 103.399 105.201 103.347 105.181 103.298C105.16 103.249 105.13 103.205 105.092 103.168C105.053 103.132 105.008 103.104 104.958 103.086C104.908 103.068 104.855 103.061 104.802 103.065C104.484 103.101 104.209 103.606 104.151 103.884C104.151 103.906 104.12 104.202 104.118 104.275C104.017 104.083 103.921 103.891 103.831 103.698C103.71 103.437 103.606 103.168 103.52 102.893C103.779 102.838 104.028 102.746 104.261 102.62C104.357 102.556 104.437 102.473 104.497 102.374C104.557 102.276 104.595 102.166 104.607 102.052C104.609 101.999 104.599 101.946 104.579 101.897C104.559 101.848 104.528 101.804 104.49 101.768C104.452 101.731 104.406 101.703 104.356 101.686C104.306 101.668 104.253 101.661 104.2 101.665C103.883 101.701 103.608 102.206 103.549 102.486C103.549 102.504 103.525 102.727 103.518 102.835H103.5C103.421 102.556 103.367 102.271 103.337 101.983C103.319 101.824 103.312 101.672 103.306 101.524C103.564 101.499 103.816 101.435 104.055 101.334C104.157 101.281 104.247 101.207 104.317 101.116C104.387 101.025 104.437 100.92 104.462 100.808C104.469 100.756 104.465 100.702 104.451 100.651C104.436 100.6 104.411 100.553 104.377 100.513C104.342 100.472 104.3 100.439 104.252 100.416C104.205 100.393 104.153 100.38 104.1 100.379C103.78 100.379 103.451 100.851 103.364 101.124C103.364 101.137 103.326 101.294 103.306 101.405C103.306 101.338 103.306 101.269 103.306 101.206C103.306 100.965 103.321 100.743 103.337 100.546C103.337 100.437 103.357 100.336 103.368 100.242C103.585 100.102 103.778 99.9304 103.943 99.7322C104.009 99.6383 104.053 99.5313 104.074 99.4186C104.094 99.3058 104.09 99.19 104.062 99.079C104.045 99.028 104.018 98.9812 103.981 98.9416C103.945 98.9021 103.901 98.8706 103.852 98.8495C103.802 98.8283 103.749 98.8179 103.695 98.8189C103.642 98.8199 103.589 98.8323 103.54 98.8553C103.259 99.003 103.183 99.5734 103.23 99.8552C103.23 99.8776 103.341 100.251 103.346 100.249C103.332 100.338 103.321 100.435 103.31 100.542C103.29 100.737 103.27 100.958 103.265 101.2C103.256 101.461 103.262 101.722 103.283 101.983C103.306 102.274 103.355 102.563 103.429 102.846C103.429 102.846 103.429 102.846 103.429 102.857C103.379 102.777 103.232 102.562 103.218 102.546C103.033 102.323 102.547 102.025 102.25 102.148C102.202 102.17 102.159 102.202 102.124 102.242C102.089 102.282 102.063 102.329 102.048 102.38C102.032 102.43 102.027 102.484 102.033 102.536C102.04 102.589 102.057 102.639 102.084 102.685C102.149 102.783 102.236 102.866 102.337 102.927C102.439 102.987 102.553 103.024 102.67 103.034Z" fill="#263238"/>
<g opacity="0.3">
<path d="M21.2915 37.1348H27.472" stroke="black" stroke-width="0.44" stroke-miterlimit="10"/>
<path d="M24.1011 37.5239V39.2888" stroke="black" stroke-width="0.44" stroke-miterlimit="10"/>
<path d="M18.7773 37.5239V39.2888" stroke="black" stroke-width="0.44" stroke-miterlimit="10"/>
<path d="M19.9268 39.3696H28.9974" stroke="black" stroke-width="0.44" stroke-miterlimit="10"/>
<path d="M27.3916 36.5711V34.9673" stroke="black" stroke-width="0.44" stroke-miterlimit="10"/>
<path d="M21.3657 36.5711V34.9673" stroke="black" stroke-width="0.44" stroke-miterlimit="10"/>
<path d="M27.3916 41.7496V40.1436" stroke="black" stroke-width="0.44" stroke-miterlimit="10"/>
<path d="M21.4395 41.7496V40.1436" stroke="black" stroke-width="0.44" stroke-miterlimit="10"/>
<path d="M34.0015 37.1348H40.1798" stroke="black" stroke-width="0.44" stroke-miterlimit="10"/>
<path d="M36.8091 37.5239V39.2888" stroke="black" stroke-width="0.44" stroke-miterlimit="10"/>
<path d="M31.4849 37.5239V39.2888" stroke="black" stroke-width="0.44" stroke-miterlimit="10"/>
<path d="M32.6367 39.3696H41.7051" stroke="black" stroke-width="0.44" stroke-miterlimit="10"/>
<path d="M40.0996 36.5711V34.9673" stroke="black" stroke-width="0.44" stroke-miterlimit="10"/>
<path d="M34.0732 36.5711V34.9673" stroke="black" stroke-width="0.44" stroke-miterlimit="10"/>
<path d="M40.0996 41.7496V40.1436" stroke="black" stroke-width="0.44" stroke-miterlimit="10"/>
<path d="M34.147 41.7496V40.1436" stroke="black" stroke-width="0.44" stroke-miterlimit="10"/>
<path d="M34.0015 42.5303H40.1798" stroke="black" stroke-width="0.44" stroke-miterlimit="10"/>
<path d="M36.8091 42.9194V44.6843" stroke="black" stroke-width="0.44" stroke-miterlimit="10"/>
<path d="M32.6367 44.7646H41.7051" stroke="black" stroke-width="0.44" stroke-miterlimit="10"/>
<path d="M40.0996 47.1452V45.5391" stroke="black" stroke-width="0.44" stroke-miterlimit="10"/>
<path d="M34.147 47.1452V45.5391" stroke="black" stroke-width="0.44" stroke-miterlimit="10"/>
<path d="M42.126 17.6514H48.3065" stroke="black" stroke-width="0.44" stroke-miterlimit="10"/>
<path d="M44.9355 18.0405V19.8054" stroke="black" stroke-width="0.44" stroke-miterlimit="10"/>
<path d="M39.6118 18.0405V19.8054" stroke="black" stroke-width="0.44" stroke-miterlimit="10"/>
<path d="M40.7612 19.8862H49.8318" stroke="black" stroke-width="0.44" stroke-miterlimit="10"/>
<path d="M48.2261 17.09V15.4839" stroke="black" stroke-width="0.44" stroke-miterlimit="10"/>
<path d="M42.1997 17.09V15.4839" stroke="black" stroke-width="0.44" stroke-miterlimit="10"/>
<path d="M48.2261 22.2662V20.6602" stroke="black" stroke-width="0.44" stroke-miterlimit="10"/>
<path d="M42.2739 22.2662V20.6602" stroke="black" stroke-width="0.44" stroke-miterlimit="10"/>
<path d="M54.8364 17.6514H61.017" stroke="black" stroke-width="0.44" stroke-miterlimit="10"/>
<path d="M57.6455 18.0405V19.8054" stroke="black" stroke-width="0.44" stroke-miterlimit="10"/>
<path d="M52.3218 18.0405V19.8054" stroke="black" stroke-width="0.44" stroke-miterlimit="10"/>
<path d="M53.4717 19.8862H62.5423" stroke="black" stroke-width="0.44" stroke-miterlimit="10"/>
<path d="M60.936 17.09V15.4839" stroke="black" stroke-width="0.44" stroke-miterlimit="10"/>
<path d="M54.9102 17.09V15.4839" stroke="black" stroke-width="0.44" stroke-miterlimit="10"/>
<path d="M60.936 22.2662V20.6602" stroke="black" stroke-width="0.44" stroke-miterlimit="10"/>
<path d="M54.9839 22.2662V20.6602" stroke="black" stroke-width="0.44" stroke-miterlimit="10"/>
<path d="M54.8364 23.0469H61.017" stroke="black" stroke-width="0.44" stroke-miterlimit="10"/>
<path d="M57.6455 23.436V25.2032" stroke="black" stroke-width="0.44" stroke-miterlimit="10"/>
<path d="M53.4717 25.2837H62.5423" stroke="black" stroke-width="0.44" stroke-miterlimit="10"/>
<path d="M60.936 27.6615V26.0576" stroke="black" stroke-width="0.44" stroke-miterlimit="10"/>
<path d="M54.9839 27.6615V26.0576" stroke="black" stroke-width="0.44" stroke-miterlimit="10"/>
<path d="M83.5151 37.1348H89.6957" stroke="black" stroke-width="0.44" stroke-miterlimit="10"/>
<path d="M86.3247 37.5239V39.2888" stroke="black" stroke-width="0.44" stroke-miterlimit="10"/>
<path d="M80.999 37.5239V39.2888" stroke="black" stroke-width="0.44" stroke-miterlimit="10"/>
<path d="M82.1509 39.3696H91.2193" stroke="black" stroke-width="0.44" stroke-miterlimit="10"/>
<path d="M89.6152 36.5711V34.9673" stroke="black" stroke-width="0.44" stroke-miterlimit="10"/>
<path d="M83.5869 36.5711V34.9673" stroke="black" stroke-width="0.44" stroke-miterlimit="10"/>
<path d="M89.6152 41.7496V40.1436" stroke="black" stroke-width="0.44" stroke-miterlimit="10"/>
<path d="M83.6631 41.7496V40.1436" stroke="black" stroke-width="0.44" stroke-miterlimit="10"/>
<path d="M96.2231 37.1348H102.404" stroke="black" stroke-width="0.44" stroke-miterlimit="10"/>
<path d="M99.0327 37.5239V39.2888" stroke="black" stroke-width="0.44" stroke-miterlimit="10"/>
<path d="M93.7085 37.5239V39.2888" stroke="black" stroke-width="0.44" stroke-miterlimit="10"/>
<path d="M94.8584 39.3696H103.929" stroke="black" stroke-width="0.44" stroke-miterlimit="10"/>
<path d="M102.323 36.5711V34.9673" stroke="black" stroke-width="0.44" stroke-miterlimit="10"/>
<path d="M96.2969 36.5711V34.9673" stroke="black" stroke-width="0.44" stroke-miterlimit="10"/>
<path d="M102.323 41.7496V40.1436" stroke="black" stroke-width="0.44" stroke-miterlimit="10"/>
<path d="M96.3706 41.7496V40.1436" stroke="black" stroke-width="0.44" stroke-miterlimit="10"/>
<path d="M96.2231 42.5303H102.404" stroke="black" stroke-width="0.44" stroke-miterlimit="10"/>
<path d="M99.0327 42.9194V44.6843" stroke="black" stroke-width="0.44" stroke-miterlimit="10"/>
<path d="M94.8584 44.7646H103.929" stroke="black" stroke-width="0.44" stroke-miterlimit="10"/>
<path d="M102.323 47.1447V45.5386" stroke="black" stroke-width="0.44" stroke-miterlimit="10"/>
<path d="M96.3706 47.1452V45.5391" stroke="black" stroke-width="0.44" stroke-miterlimit="10"/>
<path d="M67.8926 56.9917H74.0731" stroke="black" stroke-width="0.44" stroke-miterlimit="10"/>
<path d="M70.7026 57.3809V59.1458" stroke="black" stroke-width="0.44" stroke-miterlimit="10"/>
<path d="M65.376 57.3809V59.1458" stroke="black" stroke-width="0.44" stroke-miterlimit="10"/>
<path d="M66.5283 59.2266H75.5967" stroke="black" stroke-width="0.44" stroke-miterlimit="10"/>
<path d="M73.9927 56.4303V54.8242" stroke="black" stroke-width="0.44" stroke-miterlimit="10"/>
<path d="M67.9644 56.4303V54.8242" stroke="black" stroke-width="0.44" stroke-miterlimit="10"/>
<path d="M73.9927 61.6066V60.0005" stroke="black" stroke-width="0.44" stroke-miterlimit="10"/>
<path d="M68.0381 61.6066V60.0005" stroke="black" stroke-width="0.44" stroke-miterlimit="10"/>
<path d="M80.6006 56.9917H86.7811" stroke="black" stroke-width="0.44" stroke-miterlimit="10"/>
<path d="M83.4102 57.3809V59.1458" stroke="black" stroke-width="0.44" stroke-miterlimit="10"/>
<path d="M78.0864 57.3809V59.1458" stroke="black" stroke-width="0.44" stroke-miterlimit="10"/>
<path d="M79.2363 59.2266H88.307" stroke="black" stroke-width="0.44" stroke-miterlimit="10"/>
<path d="M86.7007 56.4303V54.8242" stroke="black" stroke-width="0.44" stroke-miterlimit="10"/>
<path d="M80.6743 56.4303V54.8242" stroke="black" stroke-width="0.44" stroke-miterlimit="10"/>
<path d="M86.7007 61.6066V60.0005" stroke="black" stroke-width="0.44" stroke-miterlimit="10"/>
<path d="M80.7485 61.6066V60.0005" stroke="black" stroke-width="0.44" stroke-miterlimit="10"/>
<path d="M80.6006 62.3872H86.7811" stroke="black" stroke-width="0.44" stroke-miterlimit="10"/>
<path d="M83.4102 62.7764V64.5435" stroke="black" stroke-width="0.44" stroke-miterlimit="10"/>
<path d="M79.2363 64.624H88.307" stroke="black" stroke-width="0.44" stroke-miterlimit="10"/>
<path d="M86.7007 67.0021V65.396" stroke="black" stroke-width="0.44" stroke-miterlimit="10"/>
<path d="M80.7485 67.0021V65.396" stroke="black" stroke-width="0.44" stroke-miterlimit="10"/>
<path d="M77.6235 90.3325H83.8018" stroke="black" stroke-width="0.44" stroke-miterlimit="10"/>
<path d="M80.4307 90.7217V92.4866" stroke="black" stroke-width="0.44" stroke-miterlimit="10"/>
<path d="M75.1069 90.7217V92.4866" stroke="black" stroke-width="0.44" stroke-miterlimit="10"/>
<path d="M76.2588 92.5674H85.3272" stroke="black" stroke-width="0.44" stroke-miterlimit="10"/>
<path d="M83.7231 89.7711V88.165" stroke="black" stroke-width="0.44" stroke-miterlimit="10"/>
<path d="M77.6948 89.7711V88.165" stroke="black" stroke-width="0.44" stroke-miterlimit="10"/>
<path d="M83.7231 94.9474V93.3413" stroke="black" stroke-width="0.44" stroke-miterlimit="10"/>
<path d="M77.7686 94.9474V93.3413" stroke="black" stroke-width="0.44" stroke-miterlimit="10"/>
<path d="M90.3311 90.3325H96.5116" stroke="black" stroke-width="0.44" stroke-miterlimit="10"/>
<path d="M93.1406 90.7217V92.4866" stroke="black" stroke-width="0.44" stroke-miterlimit="10"/>
<path d="M87.8169 90.7217V92.4866" stroke="black" stroke-width="0.44" stroke-miterlimit="10"/>
<path d="M88.9663 92.5674H98.0369" stroke="black" stroke-width="0.44" stroke-miterlimit="10"/>
<path d="M96.4312 89.7711V88.165" stroke="black" stroke-width="0.44" stroke-miterlimit="10"/>
<path d="M90.4048 89.7711V88.165" stroke="black" stroke-width="0.44" stroke-miterlimit="10"/>
<path d="M96.4312 94.9474V93.3413" stroke="black" stroke-width="0.44" stroke-miterlimit="10"/>
<path d="M90.479 94.9474V93.3413" stroke="black" stroke-width="0.44" stroke-miterlimit="10"/>
<path d="M90.3311 95.728H96.5116" stroke="black" stroke-width="0.44" stroke-miterlimit="10"/>
<path d="M93.1406 96.1172V97.8843" stroke="black" stroke-width="0.44" stroke-miterlimit="10"/>
<path d="M88.9663 97.9648H98.0369" stroke="black" stroke-width="0.44" stroke-miterlimit="10"/>
<path d="M96.4312 100.343V98.7388" stroke="black" stroke-width="0.44" stroke-miterlimit="10"/>
<path d="M90.479 100.343V98.7388" stroke="black" stroke-width="0.44" stroke-miterlimit="10"/>
<path d="M41.021 93.4287H47.2015" stroke="black" stroke-width="0.44" stroke-miterlimit="10"/>
<path d="M43.8306 93.8179V95.5828" stroke="black" stroke-width="0.44" stroke-miterlimit="10"/>
<path d="M38.5044 93.8179V95.5828" stroke="black" stroke-width="0.44" stroke-miterlimit="10"/>
<path d="M39.6567 95.6631H48.7251" stroke="black" stroke-width="0.44" stroke-miterlimit="10"/>
<path d="M47.1211 92.8668V91.2607" stroke="black" stroke-width="0.44" stroke-miterlimit="10"/>
<path d="M41.0923 92.8668V91.2607" stroke="black" stroke-width="0.44" stroke-miterlimit="10"/>
<path d="M47.1211 98.0431V96.437" stroke="black" stroke-width="0.44" stroke-miterlimit="10"/>
<path d="M41.1685 98.0431V96.437" stroke="black" stroke-width="0.44" stroke-miterlimit="10"/>
<path d="M53.729 93.4287H59.9095" stroke="black" stroke-width="0.44" stroke-miterlimit="10"/>
<path d="M56.5386 93.8179V95.5828" stroke="black" stroke-width="0.44" stroke-miterlimit="10"/>
<path d="M51.2144 93.8179V95.5828" stroke="black" stroke-width="0.44" stroke-miterlimit="10"/>
<path d="M52.3643 95.6631H61.4349" stroke="black" stroke-width="0.44" stroke-miterlimit="10"/>
<path d="M59.8291 92.8668V91.2607" stroke="black" stroke-width="0.44" stroke-miterlimit="10"/>
<path d="M53.8027 92.8668V91.2607" stroke="black" stroke-width="0.44" stroke-miterlimit="10"/>
<path d="M59.8291 98.0431V96.437" stroke="black" stroke-width="0.44" stroke-miterlimit="10"/>
<path d="M53.8765 98.0431V96.437" stroke="black" stroke-width="0.44" stroke-miterlimit="10"/>
<path d="M53.729 98.8242H59.9095" stroke="black" stroke-width="0.44" stroke-miterlimit="10"/>
<path d="M56.5386 99.2134V100.981" stroke="black" stroke-width="0.44" stroke-miterlimit="10"/>
<path d="M52.3643 101.061H61.4349" stroke="black" stroke-width="0.44" stroke-miterlimit="10"/>
<path d="M59.8291 103.439V101.835" stroke="black" stroke-width="0.44" stroke-miterlimit="10"/>
<path d="M53.8765 103.439V101.835" stroke="black" stroke-width="0.44" stroke-miterlimit="10"/>
</g>
<path opacity="0.27" d="M63.2289 101.747H56.8403V108.966H63.2289V101.747Z" fill="black"/>
<path d="M66.5395 100.776H59.5156V108.934H66.5395V100.776Z" fill="white" stroke="#263238" stroke-width="0.44" stroke-miterlimit="10"/>
<path d="M62.2133 102.402H59.5156V107.442H62.2133V102.402Z" fill="white" stroke="#263238" stroke-width="0.44" stroke-miterlimit="10"/>
<path d="M65.4614 100.776V104.452C65.4614 104.57 65.4143 104.684 65.3304 104.768C65.2465 104.852 65.1327 104.899 65.014 104.899C64.8954 104.899 64.7816 104.852 64.6977 104.768C64.6138 104.684 64.5667 104.57 64.5667 104.452V101.861C64.5679 101.796 64.5559 101.73 64.5316 101.669C64.5073 101.608 64.4711 101.553 64.4251 101.506C64.379 101.459 64.3241 101.422 64.2636 101.396C64.203 101.371 64.138 101.358 64.0723 101.358C63.9412 101.358 63.8155 101.41 63.7227 101.503C63.63 101.595 63.578 101.721 63.578 101.852V103.078C63.578 103.172 63.5407 103.262 63.4744 103.328C63.4082 103.394 63.3183 103.432 63.2245 103.432C63.1308 103.432 63.0409 103.394 62.9746 103.328C62.9083 103.262 62.8711 103.172 62.8711 103.078V100.776H65.4614Z" fill="#FFD000" stroke="#263238" stroke-width="0.44" stroke-miterlimit="10"/>
<path opacity="0.27" d="M61.1713 63.7783C61.3019 63.3895 61.3327 62.9741 61.2607 62.5703C61.2026 62.2751 61.1131 61.51 60.9655 61.2439C60.8632 61.0758 60.7424 60.9197 60.6053 60.7786C60.5606 60.6287 60.2989 59.7832 60.111 59.5953C59.9231 59.4074 58.6391 59.0338 58.6391 59.0338C58.8606 59.317 59.0667 59.612 59.2565 59.9174C59.5249 60.3424 59.7754 60.7517 59.8828 60.9217C59.7128 60.7361 59.5159 61.349 59.4623 61.51C59.4086 61.6711 58.7912 62.4518 58.7263 62.6285C58.6615 62.8052 58.7845 64.3666 58.7845 64.3666C58.5713 64.8408 58.3152 65.2945 58.0195 65.7221C57.6638 66.2187 51.9172 69.8581 51.235 70.4554C51.1231 69.6322 50.8502 67.6727 50.669 66.5095C50.4319 65.0063 51.1701 64.5947 50.3738 63.9751C49.5774 63.3555 46.8081 63.0311 46.8081 63.0311L46.4838 62.4361C46.4838 62.4361 46.0722 61.6107 45.7188 61.4049C45.7188 61.4049 46.1013 61.6107 46.2198 61.6711C46.3785 61.7318 46.5534 61.7355 46.7145 61.6817C46.8756 61.6278 47.0131 61.5197 47.1034 61.3758C47.3987 60.9284 48.0161 59.9308 48.0161 59.9308C48.2713 59.8433 48.5101 59.7141 48.7229 59.5483C48.931 59.3425 48.6938 59.3246 48.5462 58.9891C48.3986 58.6535 48.6066 58.2531 48.7542 57.8393C48.8402 57.5378 48.8875 57.2266 48.8952 56.9132C49.3962 56.5419 50.1076 55.4056 50.0785 54.7747C50.0494 54.1037 48.8706 53.8621 48.8706 53.8621C48.8706 53.8621 46.8462 52.0524 45.4324 51.8489C44.2868 51.6895 43.1215 51.9373 42.1397 52.549C41.0325 53.2716 40.1422 55.7881 39.5897 57.7543C39.1423 59.3693 41.2114 60.2283 41.2114 60.2283C41.2114 60.2283 41.0101 60.5683 40.8267 60.9374C40.3462 61.1226 39.9346 61.4514 39.6478 61.8791C39.6478 61.8791 36.0845 62.6732 35.7601 62.8813C35.4358 63.0893 35.259 62.9685 34.9347 63.9706C34.6103 64.9728 34.8743 68.2207 34.8743 68.2207C34.8743 68.2207 34.0847 70.7663 33.6619 72.2606C33.4382 72.3747 32.9908 72.6185 33.0199 72.7281C33.049 72.8757 33.049 74.8509 33.3443 75.1148C33.6395 75.3788 35.4067 75.9403 35.6706 75.8821C35.7512 75.8642 35.9167 75.8217 36.1046 75.7703C36.1037 75.7777 36.1037 75.7852 36.1046 75.7926L36.3395 76.2042C36.3395 76.2042 35.0443 80.9017 34.9839 80.9778C34.966 81.0068 35.1136 81.103 35.3597 81.2328C35.1722 82.0175 35.0969 82.8248 35.136 83.6307C35.2546 85.0154 35.4022 87.7846 35.4022 87.7846C35.4022 87.7846 36.0017 88.0218 36.8428 88.2611L38.0574 94.6027C38.0574 94.6027 37.3416 97.8283 37.8583 99.5395C38.375 101.251 38.8537 105.832 38.894 106.308C38.8871 106.533 38.837 106.754 38.7464 106.959C38.7218 107.026 38.6927 107.094 38.6636 107.161C38.6636 107.181 38.6479 107.199 38.6412 107.217C38.6166 107.272 38.5943 107.326 38.5674 107.382L38.5473 107.429C38.516 107.498 38.4824 107.568 38.4489 107.635C38.4416 107.647 38.4356 107.66 38.431 107.673L38.346 107.836C38.346 107.856 38.3258 107.874 38.3169 107.892C38.29 107.946 38.261 107.999 38.2341 108.049L38.2162 108.078C38.1849 108.138 38.1536 108.192 38.1223 108.246L38.0999 108.284C38.0753 108.322 38.0552 108.36 38.0328 108.393L38.0104 108.429C37.9858 108.469 37.959 108.507 37.9388 108.539C37.9075 108.582 37.8812 108.628 37.8605 108.677C37.846 108.715 37.8369 108.755 37.8337 108.796C37.8311 108.847 37.8443 108.898 37.8717 108.941C37.8919 108.97 37.916 108.997 37.9433 109.02C37.9914 109.058 38.0439 109.09 38.0999 109.116L38.2319 109.169L38.3773 109.216C38.7364 109.309 39.1 109.384 39.4666 109.44C39.8536 109.503 43.5825 109.664 43.7928 109.664H43.8711C43.959 109.658 44.0471 109.658 44.135 109.664H44.1977C44.2751 109.663 44.3513 109.645 44.4214 109.612C44.499 109.568 44.5591 109.499 44.5914 109.415C44.6227 109.342 41.3031 109.136 41.3188 109.008C41.3188 108.973 41.3188 108.934 41.3188 108.892C41.3188 108.849 41.3188 108.858 41.3188 108.843C41.3188 108.827 41.3188 108.8 41.3188 108.78C41.3188 108.76 41.3188 108.691 41.3188 108.641C41.3188 108.592 41.3188 108.59 41.3188 108.565V108.402C41.3188 108.38 41.3188 108.357 41.3188 108.333C41.3188 108.254 41.3188 108.172 41.3188 108.087V108.051V107.827C41.3188 107.798 41.3188 107.767 41.3188 107.738C41.3188 107.675 41.3188 107.612 41.3188 107.552C41.3188 107.492 41.3188 107.487 41.3188 107.456C41.3188 107.389 41.3188 107.322 41.3076 107.255C41.3076 107.232 41.3076 107.21 41.3076 107.187L41.2942 106.921C41.2696 106.474 41.2472 106.1 41.2472 105.908C41.2472 105.391 41.368 100.414 41.7662 99.1391C42.1643 97.8641 42.397 95.3185 42.3075 94.0837C42.2471 93.142 42.0458 89.9768 41.9563 88.5273C42.1151 88.487 42.2024 88.4557 42.2024 88.4557L42.2628 88.8382C42.675 88.897 43.0902 88.9321 43.5065 88.9433L46.2892 94.9606C46.2892 94.9606 45.2535 96.9514 45.334 98.6627C45.4145 100.374 45.7814 105.552 45.8105 106.787C45.8206 107.142 45.8072 107.498 45.7702 107.852C45.7367 108.214 45.6919 108.523 45.674 108.78C45.674 108.798 45.674 108.816 45.674 108.834C45.6684 108.921 45.6684 109.008 45.674 109.096C45.673 109.103 45.673 109.111 45.674 109.118C45.6767 109.15 45.6819 109.181 45.6897 109.212V109.241C45.6975 109.274 45.7096 109.305 45.7255 109.335C45.7674 109.393 45.8234 109.44 45.8883 109.471C45.9533 109.502 46.025 109.516 46.0968 109.512C46.1348 109.512 50.083 109.527 50.1232 109.527C50.3335 109.527 49.3761 109.371 49.7049 109.346C50.0337 109.321 49.6758 109.527 50.1232 109.527C50.4834 109.527 50.2082 109.478 50.537 109.458C50.7026 109.458 49.555 109.362 49.7049 109.346C50.461 109.268 51.0314 109.122 51.179 108.899C51.2394 108.809 51.2819 108.753 51.3088 108.713C51.3252 108.693 51.3367 108.669 51.3423 108.644C51.3423 108.61 51.2775 108.59 51.1768 108.469C51.1399 108.431 51.0968 108.399 51.0493 108.375C50.8832 108.29 50.7122 108.216 50.537 108.152C50.376 108.087 50.1993 108.013 50.0181 107.928C49.5896 107.758 49.1886 107.526 48.8281 107.239C48.5149 106.959 48.3382 106.818 48.233 106.722L48.157 106.653C48.0935 106.582 48.0503 106.496 48.0317 106.402C47.9534 106.123 48.629 102.459 48.9488 101.186C49.2687 99.9131 49.9823 96.7658 50.1031 96.1685C50.2239 95.5713 50.3424 95.2917 50.2216 94.379C50.1255 93.6386 49.5349 89.592 49.3112 88.071C49.7098 87.9118 50.0901 87.7101 50.4453 87.4692L48.8661 81.7226L49.3135 81.6063L48.2823 78.0116L48.4008 75.5667C48.4008 75.5667 49.725 75.39 50.0807 75.2133C50.4364 75.0366 51.5235 74.7122 51.5817 74.3588C51.5817 74.2984 51.6108 74.2111 51.6331 74.1082C52.0022 73.8689 52.4966 73.7593 52.6174 73.6094C52.8835 73.2851 54.5635 72.4328 54.9169 71.8199C55.2703 71.207 59.4645 65.8586 59.5808 65.5051C59.6613 65.2636 60.2966 64.7021 60.7351 64.2704C60.7808 64.4499 60.8384 64.6263 60.9073 64.7983C60.9986 64.9913 61.1177 65.1699 61.2607 65.3284C61.2607 65.3284 61.2093 64.5768 61.0818 63.8923C61.117 63.8589 61.1471 63.8204 61.1713 63.7783ZM43.3007 61.897C43.4691 61.9031 43.6371 61.918 43.804 61.9418C43.6362 61.9194 43.4685 61.906 43.3007 61.8926V61.897ZM60.2183 61.1991C60.2564 61.2729 60.2922 61.34 60.3168 61.3915C60.4353 61.6264 60.612 62.0626 60.5248 62.1587L60.5069 62.1722C60.225 61.5682 59.9342 61.009 59.9342 61.009C59.9653 61.0586 60.0069 61.101 60.0559 61.133C60.1049 61.1651 60.1604 61.1861 60.2183 61.1946V61.1991ZM59.5316 62.7717C59.5316 62.7717 59.7956 62.2997 59.9141 62.0357C60.0185 61.8165 60.0595 61.5724 60.0327 61.3311L60.1199 61.6532C60.1199 61.6532 60.1848 61.9328 60.281 62.3243C59.979 62.5099 59.5316 62.7717 59.5316 62.7717Z" fill="black"/>
<path d="M53.0246 54.4417C53.0262 54.8463 52.975 55.2493 52.8725 55.6407C52.7182 56.0702 52.5034 56.4997 52.6488 56.8397C52.7942 57.1797 53.047 57.2065 52.8323 57.4213C52.6113 57.5952 52.3624 57.7306 52.0963 57.8217C52.0963 57.8217 51.4499 58.8663 51.1434 59.3271C51.0496 59.4776 50.9062 59.5906 50.7379 59.6466C50.5696 59.7025 50.3871 59.6979 50.2218 59.6335C50.0988 59.5732 49.6984 59.3584 49.6984 59.3584L49.4747 59.6962L46.6182 58.9267C46.6182 58.9267 48.1549 57.3005 48.2466 56.1932C48.3383 55.0859 50.7833 53.2763 53.0246 54.4417Z" fill="white" stroke="#263238" stroke-width="0.44" stroke-miterlimit="10"/>
<path d="M51.6737 58.4364C51.5187 58.421 51.3745 58.3504 51.2673 58.2375C51.1601 58.1245 51.0971 57.9768 51.0898 57.8213" stroke="#263238" stroke-width="0.44" stroke-linecap="round" stroke-linejoin="round"/>
<path d="M52.2576 56.2848C52.2106 56.4861 52.0965 56.6315 52.0026 56.6091C51.9086 56.5867 51.8706 56.4056 51.9176 56.2065C51.9646 56.0074 52.0787 55.8598 52.1726 55.8821C52.2666 55.9045 52.3046 56.0857 52.2576 56.2848Z" fill="#263238"/>
<path d="M52.5975 55.7635C52.5682 55.7 52.5252 55.6439 52.4716 55.5991C52.418 55.5543 52.3551 55.5219 52.2875 55.5044C52.2199 55.4868 52.1492 55.4845 52.0806 55.4976C52.0119 55.5107 51.9471 55.5388 51.8906 55.58" stroke="#263238" stroke-width="0.44" stroke-linecap="round" stroke-linejoin="round"/>
<path d="M50.5061 60.4228C50.5061 60.4228 50.0766 59.5638 49.7075 59.3491C49.3384 59.1344 46.8823 58.7026 45.4574 58.7026C45.0428 58.7065 44.6354 58.8121 44.2711 59.0103C43.9068 59.2084 43.5967 59.493 43.3682 59.839C43.3682 59.839 47.0255 59.7786 47.701 59.9016C48.3766 60.0246 50.8327 61.038 50.8327 61.038L50.5061 60.4228Z" fill="white" stroke="#263238" stroke-width="0.44" stroke-miterlimit="10"/>
<path d="M60.3685 61.1073C60.3685 61.1073 60.0307 60.5547 59.6616 59.9709C59.4635 59.6519 59.2476 59.3442 59.0151 59.0493C59.0151 59.0493 60.3371 59.4184 60.5519 59.6331C60.7666 59.8479 61.0753 60.8925 61.0753 60.8925C61.0753 60.8925 60.7979 61.662 60.3685 61.1073Z" fill="#FFD000" stroke="#263238" stroke-width="0.44" stroke-miterlimit="10"/>
<path d="M55.1764 69.035C55.1764 69.035 57.9099 66.6684 58.3707 66.0242C58.6782 65.5775 58.9454 65.1044 59.1693 64.6104C59.1693 64.6104 59.0462 62.982 59.1089 62.7986C59.1715 62.6151 59.8157 61.8143 59.8761 61.6309C59.9365 61.4475 60.1826 60.678 60.3682 61.1075C60.4409 61.2785 60.4757 61.4631 60.4703 61.6489C60.4649 61.8346 60.4194 62.0169 60.3369 62.1834C60.2139 62.4608 59.9365 62.9507 59.9365 62.9507C59.9365 62.9507 60.8894 62.3981 60.9812 62.3064C61.0729 62.2147 60.8894 61.7539 60.7575 61.5079C60.6255 61.2618 60.2967 60.678 60.5114 60.5549C60.7261 60.4319 61.2809 61.0784 61.433 61.3535C61.5851 61.6287 61.6791 62.4295 61.7417 62.7359C61.8163 63.1568 61.7848 63.5897 61.65 63.9953C61.4956 64.3331 60.1446 65.409 60.0215 65.7848C59.8985 66.1606 58.5452 69.1021 58.1783 69.7464C57.7372 70.4901 57.2547 71.2085 56.7333 71.8982C56.4581 72.236 55.2592 73.1889 54.521 73.0346C54.5299 73.0279 54.9617 69.6792 55.1764 69.035Z" fill="white" stroke="#263238" stroke-width="0.44" stroke-miterlimit="10"/>
<path d="M46.9917 87.1583L50.3113 94.3387C50.3113 94.3387 49.2331 96.4146 49.3158 98.1996C49.3986 99.9846 49.7632 105.382 49.8147 106.668C49.8661 107.955 49.5239 108.952 49.7319 109.326C49.9399 109.699 50.8101 109.409 52.3043 109.409C53.7986 109.409 55.1698 109.243 55.4181 108.87C55.6664 108.496 55.6261 108.662 55.4181 108.422C55.2101 108.183 53.7158 107.798 52.9575 107.134C52.1992 106.469 52.2104 106.554 52.1276 106.264C52.0448 105.973 52.7495 102.152 53.0828 100.826C53.4161 99.4992 54.1632 96.2132 54.2974 95.5847C54.4316 94.9561 54.5457 94.672 54.4227 93.7169C54.2996 92.7617 53.3848 86.5342 53.3848 86.5342C53.3848 86.5342 48.6515 87.4491 46.9917 87.1583Z" fill="white" stroke="#263238" stroke-width="0.44" stroke-miterlimit="10"/>
<path d="M55.418 108.413C55.2099 108.163 53.7157 107.789 52.9574 107.125C52.1991 106.461 52.2103 106.546 52.1275 106.255C52.0452 106.327 51.9802 106.417 51.9372 106.517C51.8943 106.618 51.8744 106.727 51.8792 106.836C51.9109 107.065 51.9664 107.29 52.0447 107.508C51.6355 107.469 51.2319 107.385 50.8413 107.257C50.4677 107.091 50.1702 106.51 49.8034 106.675C49.8436 107.964 49.5126 108.959 49.7206 109.333C49.9286 109.706 50.7988 109.416 52.293 109.416C53.7873 109.416 55.1585 109.25 55.4068 108.877C55.6551 108.503 55.626 108.662 55.418 108.413Z" fill="white" stroke="#263238" stroke-width="0.44" stroke-miterlimit="10"/>
<path d="M55.4182 108.87C55.5524 108.671 55.5994 108.624 55.5859 108.588C54.583 108.926 53.5238 109.065 52.4677 108.997C51.3918 108.93 50.3158 108.821 49.6716 108.749C49.6392 108.943 49.66 109.143 49.732 109.326C49.9378 109.7 50.8102 109.409 52.3044 109.409C53.7987 109.409 55.1699 109.243 55.4182 108.87Z" fill="white" stroke="#263238" stroke-width="0.44" stroke-miterlimit="10"/>
<path d="M40.3906 86.9931L41.7193 93.9767C41.7193 93.9767 40.9722 97.332 41.5113 99.1215C42.0504 100.911 42.5492 105.68 42.5917 106.179C42.6342 106.678 41.8849 108.087 41.5941 108.503C41.3033 108.919 41.6366 109.085 42.0415 109.208C42.4463 109.331 43.9093 109.581 44.2784 109.541C44.6474 109.501 45.0277 109.666 45.1105 108.959C45.1932 108.253 45.0277 106.262 45.0277 105.723C45.0277 105.184 45.1507 99.9917 45.5668 98.6652C45.9829 97.3387 46.2379 94.7193 46.1484 93.4331C46.0589 92.1469 45.7323 86.8745 45.7323 86.8745C45.7323 86.8745 41.4285 86.9931 40.3906 86.9931Z" fill="white" stroke="#263238" stroke-width="0.44" stroke-miterlimit="10"/>
<path d="M45.1237 108.964C45.1554 108.236 45.1435 107.507 45.0879 106.781C44.7658 106.512 43.6384 106.597 43.3387 106.763C42.9651 106.971 43.2134 107.261 42.7146 107.013C42.6161 106.964 42.5222 106.913 42.4349 106.861C42.2108 107.437 41.929 107.988 41.5939 108.507C41.3031 108.923 41.6364 109.089 42.0413 109.212C42.4461 109.335 43.9091 109.586 44.2781 109.545C44.6472 109.505 45.0409 109.659 45.1237 108.964Z" fill="white" stroke="#263238" stroke-width="0.44" stroke-miterlimit="10"/>
<path d="M42.0504 109.201C42.4664 109.326 43.9182 109.574 44.2873 109.534C44.6564 109.494 45.0366 109.659 45.1194 108.952C45.1194 108.881 45.1328 108.794 45.1351 108.7C44.6161 108.957 43.529 109.066 43.0838 108.912C42.4642 108.688 41.5896 108.496 41.5896 108.496C41.3032 108.912 41.6365 109.078 42.0504 109.201Z" fill="white" stroke="#263238" stroke-width="0.44" stroke-miterlimit="10"/>
<path d="M39.109 79.2646C39.109 79.2646 38.5565 81.0765 38.6795 82.5193C38.8025 83.9621 38.9524 86.8522 38.9524 86.8522C38.9524 86.8522 41.0417 87.6821 42.9453 87.8342C44.8489 87.9863 46.0478 87.5591 46.0478 87.5591L46.1105 87.9572C47.6108 88.1447 49.1298 88.1243 50.6245 87.8968C53.3088 87.5277 54.6509 86.5144 54.6509 86.5144L52.9308 80.2511C52.249 80.2695 51.5705 80.3519 50.9041 80.4972C49.7365 80.7432 44.6073 80.6515 42.6701 80.1281C40.733 79.6047 39.109 79.2646 39.109 79.2646Z" fill="#FFD000" stroke="#263238" stroke-width="0.44" stroke-miterlimit="10"/>
<path d="M46.0523 87.5588L45.6228 85.5613L44.1777 85.1631" stroke="#263238" stroke-width="0.44" stroke-miterlimit="10"/>
<path d="M52.687 80.9531L54.0694 85.8385" stroke="#263238" stroke-width="0.44" stroke-miterlimit="10"/>
<path d="M51.6732 81.291L52.2884 83.9641L49.6153 86.2681L47.3113 85.1922L46.6357 82.4587" stroke="#263238" stroke-width="0.44" stroke-miterlimit="10"/>
<path d="M42.7661 81.9062L42.8265 83.9642" stroke="#263238" stroke-width="0.44" stroke-miterlimit="10"/>
<path d="M39.5091 80.7788C39.2923 81.2503 39.1874 81.7655 39.2026 82.2842C39.263 83.0202 39.4464 84.2192 39.4464 84.2192L40.9228 85.3868L41.5357 84.9864" stroke="#263238" stroke-width="0.44" stroke-miterlimit="10"/>
<path d="M44.3005 81.8145C44.3005 81.8145 44.1171 82.8882 44.3318 83.6263" stroke="#263238" stroke-width="0.44" stroke-miterlimit="10"/>
<path d="M37.2656 70.6011C37.2656 70.6011 36.438 71.0015 36.4671 71.1536C36.4961 71.3057 36.4984 73.3659 36.8048 73.6433C37.1113 73.9206 38.9567 74.5022 39.2319 74.4418C39.507 74.3814 40.7373 74.0414 40.7373 74.0414L40.7999 72.8447C40.7999 72.8447 38.3729 71.7687 37.8495 71.3683C37.326 70.9679 37.2656 70.6011 37.2656 70.6011Z" fill="white" stroke="#263238" stroke-width="0.44" stroke-miterlimit="10"/>
<path d="M43.3792 59.8479C43.3792 59.8479 39.6637 60.6778 39.3259 60.8926C38.9882 61.1073 38.8025 60.9865 38.4647 62.0289C38.127 63.0713 38.4043 66.4535 38.4043 66.4535C38.4043 66.4535 36.8989 71.3075 36.8676 71.737C36.8363 72.1665 38.6571 73.4572 39.2029 73.4885C39.5026 73.5125 39.8042 73.4914 40.0977 73.4259C40.0977 73.4259 39.5742 74.1328 39.6973 74.3475L39.9433 74.7792C39.9433 74.7792 38.6012 79.6624 38.5296 79.7541C38.458 79.8458 40.0664 80.6153 41.3257 80.9844C42.5851 81.3535 43.6499 81.9373 46.3341 81.897C49.0184 81.8568 51.2173 81.0023 51.8637 80.8211C52.5102 80.6399 53.49 80.3916 53.49 80.3916L52.4163 76.6426L52.5393 74.0947C52.5393 74.0947 53.9217 73.9091 54.2908 73.7256C54.6599 73.5422 55.794 73.2022 55.8566 72.8309C55.9192 72.4596 56.2861 71.1085 56.2548 70.679C56.2235 70.2495 55.5188 69.1736 55.5188 69.1736C55.5188 69.1736 55.114 66.2387 54.8679 64.6729C54.6218 63.1071 55.3913 62.6754 54.5614 62.0289C53.7316 61.3824 50.8437 61.0469 50.8437 61.0469C50.8437 61.0469 49.8304 60.1253 47.7121 59.9106C46.2713 59.7833 44.8231 59.7624 43.3792 59.8479Z" fill="white" stroke="#263238" stroke-width="0.44" stroke-miterlimit="10"/>
<path d="M52.9641 66.1475C52.9641 66.1475 52.5637 69.25 52.3803 69.986C52.1968 70.7219 52.5346 74.1041 52.5346 74.1041" stroke="#263238" stroke-width="0.44" stroke-miterlimit="10"/>
<path d="M52.5034 69.771C52.5034 69.771 53.4563 70.3235 54.3153 70.0797" stroke="#263238" stroke-width="0.44" stroke-miterlimit="10"/>
<path d="M52.3491 70.2007C52.3491 70.2007 53.2707 71.2453 54.0402 71.6144" stroke="#263238" stroke-width="0.44" stroke-miterlimit="10"/>
<path d="M52.8726 67.4354L53.6711 65.6548" stroke="#263238" stroke-width="0.44" stroke-miterlimit="10"/>
<path d="M40.0932 73.4261C40.0932 73.4261 40.8292 71.6142 40.9522 71.1892C41.0752 70.7642 40.4914 68.6391 40.431 67.8093C40.3706 66.9794 39.9702 64.2168 39.9702 64.2168" stroke="#263238" stroke-width="0.44" stroke-miterlimit="10"/>
<path d="M40.2162 65.9616L39.478 64.7939" stroke="#263238" stroke-width="0.44" stroke-miterlimit="10"/>
<path d="M40.1245 74.871C40.1245 74.871 43.7796 74.8083 44.5155 74.9627C45.2515 75.117 49.0945 76.4994 49.6157 76.6225" stroke="#263238" stroke-width="0.44" stroke-miterlimit="10"/>
<path d="M44.5156 74.9628L43.3188 74.4707" stroke="#263238" stroke-width="0.44" stroke-miterlimit="10"/>
<path d="M52.4722 72.2896C52.4722 72.2896 54.6845 71.7997 54.8075 71.5536C54.9305 71.3076 55.237 70.6007 55.237 70.386C55.3054 69.9811 55.398 69.5808 55.5143 69.187" fill="white"/>
<path d="M52.4722 72.2896C52.4722 72.2896 54.6845 71.7997 54.8075 71.5536C54.9305 71.3076 55.237 70.6007 55.237 70.386C55.3054 69.9811 55.398 69.5808 55.5143 69.187" stroke="#263238" stroke-width="0.44" stroke-miterlimit="10"/>
<path d="M55.085 72.7505C55.5144 72.5268 55.6688 71.6141 55.7292 71.0012C55.7385 70.4624 55.6768 69.9246 55.5458 69.4019" fill="white"/>
<path d="M55.085 72.7505C55.5144 72.5268 55.6688 71.6141 55.7292 71.0012C55.7385 70.4624 55.6768 69.9246 55.5458 69.4019" stroke="#263238" stroke-width="0.44" stroke-miterlimit="10"/>
<path d="M60.5516 61.7852C60.5516 61.7852 61.2227 64.673 61.4128 65.0399C61.5072 65.2411 61.6308 65.4273 61.7796 65.5924C61.7327 64.8774 61.6196 64.1682 61.4419 63.4741C61.1299 62.6651 60.7714 61.8749 60.3682 61.1074L60.5516 61.7852Z" fill="white" stroke="#263238" stroke-width="0.44" stroke-miterlimit="10"/>
<path d="M50.7225 55.5175C50.7225 55.5175 50.6912 56.7164 49.9844 57.4211C49.2775 58.1257 46.629 58.9265 46.629 58.9265C46.629 58.9265 47.2732 60.0942 47.0294 60.4632C46.7973 60.7622 46.5282 61.0306 46.2286 61.2618C46.2286 61.2618 46.5977 62.3691 46.3829 62.5838C46.1573 62.7901 45.9213 62.985 45.6761 63.1677C45.6761 63.1677 46.1078 64.0624 46.3226 64.6105C46.4718 65.0302 46.5848 65.4621 46.6603 65.9011C46.1888 66.0733 45.6797 66.1158 45.1862 66.0242L44.3563 65.8698C44.4941 65.4194 44.5862 64.9563 44.6315 64.4874C44.6628 63.9036 45.2153 63.1677 45.2153 63.1677C45.0893 62.9761 45.0253 62.7504 45.0319 62.5212C45.0949 62.1661 45.187 61.8167 45.307 61.4766C45.307 61.4766 44.1707 60.0024 44.325 59.5103C44.5118 59.0325 44.7362 58.5703 44.9961 58.1279C44.9961 58.1279 42.833 57.2332 43.3072 55.5488C43.8843 53.4998 44.8104 50.8759 45.9647 50.1221C46.9887 49.4848 48.2034 49.226 49.3983 49.3906C50.8724 49.6143 52.9773 51.4933 52.9773 51.4933C52.9773 51.4933 54.2054 51.7393 54.2367 52.4462C54.268 53.1531 53.4068 54.4728 52.8946 54.7502C52.3823 55.0276 50.7225 55.5175 50.7225 55.5175Z" fill="#263238" stroke="#263238" stroke-width="0.44" stroke-miterlimit="10"/>
<path opacity="0.27" d="M32.1141 87.2281L32.1611 86.1746H32.0805L31.0426 53.1021H18.8493L12.0044 109.007H13.606L14.3733 102.171H31.0493L31.1925 109.007H32.7964L32.1141 87.2281ZM30.9688 98.2851L28.7319 94.8493H30.8995L30.9688 98.2851ZM30.7921 89.8833L29.2531 87.5257H30.7429L30.7921 89.8833ZM19.7329 54.3346H30.0472L30.1412 58.8531H19.2273L19.7329 54.3346ZM19.1043 59.9492H30.1635L30.2687 64.8704H18.5518L19.1043 59.9492ZM18.4511 65.792V65.9843H30.3067L30.4252 71.637H17.7957L18.4511 65.792ZM17.666 72.8002H30.4342L30.5617 78.8644H16.986L17.666 72.8002ZM16.8339 80.2155H30.5885L30.7138 86.1858H16.174L16.8339 80.2155ZM16.0129 87.5368H17.4512L15.7579 89.814L16.0129 87.5368ZM15.6125 91.1159L18.2699 87.5368H28.4389L30.8234 91.1919L30.8726 93.5094H15.3441L15.6125 91.1159ZM15.192 94.8493H17.3126L14.8162 98.2046L15.192 94.8493ZM14.5209 100.82L14.6685 99.4975L18.129 94.8493H27.9087L30.9956 99.5803L31.0225 100.82H14.5209Z" fill="black"/>
<path d="M19.1937 99.6646L18.6255 99.2799L21.831 94.3677L22.3991 94.7524L19.1937 99.6646Z" fill="white" stroke="#263238" stroke-width="0.44" stroke-miterlimit="10"/>
<path d="M35.6953 99.6646L36.2277 99.2799L32.5771 94.3677L32.0425 94.7524L35.6953 99.6646Z" fill="white" stroke="#263238" stroke-width="0.44" stroke-miterlimit="10"/>
<path d="M18.847 92.0638L18.2788 91.6813L21.4843 86.769L22.0525 87.1538L18.847 92.0638Z" fill="white" stroke="#263238" stroke-width="0.44" stroke-miterlimit="10"/>
<path d="M35.3511 92.0638L35.8835 91.6813L32.2306 86.769L31.6982 87.1538L35.3511 92.0638Z" fill="white" stroke="#263238" stroke-width="0.44" stroke-miterlimit="10"/>
<path d="M31.5281 59.9486H19.3415L19.29 58.8525H31.4789L31.5281 59.9486Z" fill="white" stroke="#263238" stroke-width="0.44" stroke-miterlimit="10"/>
<path d="M31.803 65.973H19.6164L19.5649 64.877H31.7516L31.803 65.973Z" fill="white" stroke="#263238" stroke-width="0.44" stroke-miterlimit="10"/>
<path d="M36.1451 102.17H18.8114L18.751 100.819H36.0825L36.1451 102.17Z" fill="white" stroke="#263238" stroke-width="0.44" stroke-miterlimit="10"/>
<path d="M35.8116 94.8486H18.4779L18.4175 93.4976H35.749L35.8116 94.8486Z" fill="white" stroke="#263238" stroke-width="0.44" stroke-miterlimit="10"/>
<path d="M35.4781 87.5254H18.1444L18.084 86.1743H35.4155L35.4781 87.5254Z" fill="white" stroke="#263238" stroke-width="0.44" stroke-miterlimit="10"/>
<path d="M34.3445 80.2036H18.6124L18.5498 78.8525H34.2819L34.3445 80.2036Z" fill="white" stroke="#263238" stroke-width="0.44" stroke-miterlimit="10"/>
<path d="M33.4071 72.7887H18.8718L18.8203 71.6255H33.3534L33.4071 72.7887Z" fill="white" stroke="#263238" stroke-width="0.44" stroke-miterlimit="10"/>
<path d="M31.3935 53.1016H19.2002L17.4487 109.006H19.0503L20.1979 54.3341H30.51L36.6368 109.006H38.2407L31.3935 53.1016Z" fill="white" stroke="#263238" stroke-width="0.44" stroke-miterlimit="10"/>
</g>
<defs>
<clipPath id="clip0_159_13005">
<rect width="120" height="120" fill="white" transform="translate(0.5)"/>
</clipPath>
</defs>
</svg>
