<svg width="210" height="210" viewBox="0 0 210 210" fill="none" xmlns="http://www.w3.org/2000/svg">
<g clip-path="url(#clip0_171_18925)">
<path opacity="0.5" d="M210 190.5C210 190.559 143.998 190.375 68.6147 190.375C-6.76813 190.375 0.773646 190.559 0.773646 190.5C0.773646 190.44 -6.79653 190.154 68.6147 190.154C144.026 190.154 210 190.436 210 190.5Z" fill="#263238"/>
<path d="M182.885 133.379C182.885 133.379 189.672 88.6555 170.855 61.8147C138.198 15.236 82.3411 21.0969 57.6677 34.0567C32.9944 47.0165 29.9097 81.5526 33.9198 98.2181C37.9299 114.884 26.2081 123.817 17.571 138.936C8.9339 154.055 13.2525 171.934 21.5811 181.496C29.9097 191.059 72.1699 208.02 127.694 192.601C183.218 177.182 182.885 133.379 182.885 133.379Z" fill="#FFC100"/>
<path opacity="0.7" d="M182.885 133.379C182.885 133.379 189.672 88.6555 170.855 61.8147C138.198 15.236 82.3411 21.0969 57.6677 34.0567C32.9944 47.0165 29.9097 81.5526 33.9198 98.2181C37.9299 114.884 26.2081 123.817 17.571 138.936C8.9339 154.055 13.2525 171.934 21.5811 181.496C29.9097 191.059 72.1699 208.02 127.694 192.601C183.218 177.182 182.885 133.379 182.885 133.379Z" fill="white"/>
<g opacity="0.3">
<path d="M87.528 93.8594H16.2349V190.92H87.528V93.8594Z" stroke="black" stroke-width="0.44" stroke-linecap="round" stroke-linejoin="round"/>
<path d="M23.2516 97.635H18.2339V103.41H23.2516V97.635Z" stroke="black" stroke-width="0.44" stroke-linecap="round" stroke-linejoin="round"/>
<path d="M30.8971 97.635H25.8794V103.41H30.8971V97.635Z" stroke="black" stroke-width="0.44" stroke-linecap="round" stroke-linejoin="round"/>
<path d="M38.5431 97.635H33.5254V103.41H38.5431V97.635Z" stroke="black" stroke-width="0.44" stroke-linecap="round" stroke-linejoin="round"/>
<path d="M46.1891 97.635H41.1714V103.41H46.1891V97.635Z" stroke="black" stroke-width="0.44" stroke-linecap="round" stroke-linejoin="round"/>
<path d="M53.8346 97.635H48.8169V103.41H53.8346V97.635Z" stroke="black" stroke-width="0.44" stroke-linecap="round" stroke-linejoin="round"/>
<path d="M61.4811 97.635H56.4634V103.41H61.4811V97.635Z" stroke="black" stroke-width="0.44" stroke-linecap="round" stroke-linejoin="round"/>
<path d="M69.1266 97.635H64.1089V103.41H69.1266V97.635Z" stroke="black" stroke-width="0.44" stroke-linecap="round" stroke-linejoin="round"/>
<path d="M76.7726 97.635H71.7549V103.41H76.7726V97.635Z" stroke="black" stroke-width="0.44" stroke-linecap="round" stroke-linejoin="round"/>
<path d="M84.4186 97.635H79.4009V103.41H84.4186V97.635Z" stroke="black" stroke-width="0.44" stroke-linecap="round" stroke-linejoin="round"/>
<path d="M23.2516 107.407H18.2339V113.182H23.2516V107.407Z" stroke="black" stroke-width="0.44" stroke-linecap="round" stroke-linejoin="round"/>
<path d="M30.8971 107.407H25.8794V113.182H30.8971V107.407Z" stroke="black" stroke-width="0.44" stroke-linecap="round" stroke-linejoin="round"/>
<path d="M38.5431 107.407H33.5254V113.182H38.5431V107.407Z" stroke="black" stroke-width="0.44" stroke-linecap="round" stroke-linejoin="round"/>
<path d="M46.1891 107.407H41.1714V113.182H46.1891V107.407Z" stroke="black" stroke-width="0.44" stroke-linecap="round" stroke-linejoin="round"/>
<path d="M53.8346 107.407H48.8169V113.182H53.8346V107.407Z" stroke="black" stroke-width="0.44" stroke-linecap="round" stroke-linejoin="round"/>
<path d="M61.4811 107.407H56.4634V113.182H61.4811V107.407Z" stroke="black" stroke-width="0.44" stroke-linecap="round" stroke-linejoin="round"/>
<path d="M69.1266 107.407H64.1089V113.182H69.1266V107.407Z" stroke="black" stroke-width="0.44" stroke-linecap="round" stroke-linejoin="round"/>
<path d="M76.7726 107.407H71.7549V113.182H76.7726V107.407Z" stroke="black" stroke-width="0.44" stroke-linecap="round" stroke-linejoin="round"/>
<path d="M84.4186 107.407H79.4009V113.182H84.4186V107.407Z" stroke="black" stroke-width="0.44" stroke-linecap="round" stroke-linejoin="round"/>
<path d="M23.2516 117.18H18.2339V122.954H23.2516V117.18Z" stroke="black" stroke-width="0.44" stroke-linecap="round" stroke-linejoin="round"/>
<path d="M30.8971 117.18H25.8794V122.954H30.8971V117.18Z" stroke="black" stroke-width="0.44" stroke-linecap="round" stroke-linejoin="round"/>
<path d="M38.5431 117.18H33.5254V122.954H38.5431V117.18Z" stroke="black" stroke-width="0.44" stroke-linecap="round" stroke-linejoin="round"/>
<path d="M46.1891 117.18H41.1714V122.954H46.1891V117.18Z" stroke="black" stroke-width="0.44" stroke-linecap="round" stroke-linejoin="round"/>
<path d="M53.8346 117.18H48.8169V122.954H53.8346V117.18Z" stroke="black" stroke-width="0.44" stroke-linecap="round" stroke-linejoin="round"/>
<path d="M61.4811 117.18H56.4634V122.954H61.4811V117.18Z" stroke="black" stroke-width="0.44" stroke-linecap="round" stroke-linejoin="round"/>
<path d="M69.1266 117.18H64.1089V122.954H69.1266V117.18Z" stroke="black" stroke-width="0.44" stroke-linecap="round" stroke-linejoin="round"/>
<path d="M76.7726 117.18H71.7549V122.954H76.7726V117.18Z" stroke="black" stroke-width="0.44" stroke-linecap="round" stroke-linejoin="round"/>
<path d="M84.4186 117.18H79.4009V122.954H84.4186V117.18Z" stroke="black" stroke-width="0.44" stroke-linecap="round" stroke-linejoin="round"/>
<path d="M23.2516 126.952H18.2339V132.726H23.2516V126.952Z" stroke="black" stroke-width="0.44" stroke-linecap="round" stroke-linejoin="round"/>
<path d="M30.8971 126.952H25.8794V132.726H30.8971V126.952Z" stroke="black" stroke-width="0.44" stroke-linecap="round" stroke-linejoin="round"/>
<path d="M38.5431 126.952H33.5254V132.726H38.5431V126.952Z" stroke="black" stroke-width="0.44" stroke-linecap="round" stroke-linejoin="round"/>
<path d="M46.1891 126.952H41.1714V132.726H46.1891V126.952Z" stroke="black" stroke-width="0.44" stroke-linecap="round" stroke-linejoin="round"/>
<path d="M53.8346 126.952H48.8169V132.726H53.8346V126.952Z" stroke="black" stroke-width="0.44" stroke-linecap="round" stroke-linejoin="round"/>
<path d="M61.4811 126.952H56.4634V132.726H61.4811V126.952Z" stroke="black" stroke-width="0.44" stroke-linecap="round" stroke-linejoin="round"/>
<path d="M69.1266 126.952H64.1089V132.726H69.1266V126.952Z" stroke="black" stroke-width="0.44" stroke-linecap="round" stroke-linejoin="round"/>
<path d="M76.7726 126.952H71.7549V132.726H76.7726V126.952Z" stroke="black" stroke-width="0.44" stroke-linecap="round" stroke-linejoin="round"/>
<path d="M84.4186 126.952H79.4009V132.726H84.4186V126.952Z" stroke="black" stroke-width="0.44" stroke-linecap="round" stroke-linejoin="round"/>
<path d="M23.2516 136.724H18.2339V142.499H23.2516V136.724Z" stroke="black" stroke-width="0.44" stroke-linecap="round" stroke-linejoin="round"/>
<path d="M30.8971 136.724H25.8794V142.499H30.8971V136.724Z" stroke="black" stroke-width="0.44" stroke-linecap="round" stroke-linejoin="round"/>
<path d="M38.5431 136.724H33.5254V142.499H38.5431V136.724Z" stroke="black" stroke-width="0.44" stroke-linecap="round" stroke-linejoin="round"/>
<path d="M46.1891 136.724H41.1714V142.499H46.1891V136.724Z" stroke="black" stroke-width="0.44" stroke-linecap="round" stroke-linejoin="round"/>
<path d="M53.8346 136.724H48.8169V142.499H53.8346V136.724Z" stroke="black" stroke-width="0.44" stroke-linecap="round" stroke-linejoin="round"/>
<path d="M61.4811 136.724H56.4634V142.499H61.4811V136.724Z" stroke="black" stroke-width="0.44" stroke-linecap="round" stroke-linejoin="round"/>
<path d="M69.1266 136.724H64.1089V142.499H69.1266V136.724Z" stroke="black" stroke-width="0.44" stroke-linecap="round" stroke-linejoin="round"/>
<path d="M76.7726 136.724H71.7549V142.499H76.7726V136.724Z" stroke="black" stroke-width="0.44" stroke-linecap="round" stroke-linejoin="round"/>
<path d="M84.4186 136.724H79.4009V142.499H84.4186V136.724Z" stroke="black" stroke-width="0.44" stroke-linecap="round" stroke-linejoin="round"/>
<path d="M23.2516 146.496H18.2339V152.271H23.2516V146.496Z" stroke="black" stroke-width="0.44" stroke-linecap="round" stroke-linejoin="round"/>
<path d="M30.8971 146.496H25.8794V152.271H30.8971V146.496Z" stroke="black" stroke-width="0.44" stroke-linecap="round" stroke-linejoin="round"/>
<path d="M38.5431 146.496H33.5254V152.271H38.5431V146.496Z" stroke="black" stroke-width="0.44" stroke-linecap="round" stroke-linejoin="round"/>
<path d="M46.1891 146.496H41.1714V152.271H46.1891V146.496Z" stroke="black" stroke-width="0.44" stroke-linecap="round" stroke-linejoin="round"/>
<path d="M53.8346 146.496H48.8169V152.271H53.8346V146.496Z" stroke="black" stroke-width="0.44" stroke-linecap="round" stroke-linejoin="round"/>
<path d="M61.4811 146.496H56.4634V152.271H61.4811V146.496Z" stroke="black" stroke-width="0.44" stroke-linecap="round" stroke-linejoin="round"/>
<path d="M69.1266 146.496H64.1089V152.271H69.1266V146.496Z" stroke="black" stroke-width="0.44" stroke-linecap="round" stroke-linejoin="round"/>
<path d="M76.7726 146.496H71.7549V152.271H76.7726V146.496Z" stroke="black" stroke-width="0.44" stroke-linecap="round" stroke-linejoin="round"/>
<path d="M84.4186 146.496H79.4009V152.271H84.4186V146.496Z" stroke="black" stroke-width="0.44" stroke-linecap="round" stroke-linejoin="round"/>
<path d="M23.2516 156.269H18.2339V162.043H23.2516V156.269Z" stroke="black" stroke-width="0.44" stroke-linecap="round" stroke-linejoin="round"/>
<path d="M30.8971 156.269H25.8794V162.043H30.8971V156.269Z" stroke="black" stroke-width="0.44" stroke-linecap="round" stroke-linejoin="round"/>
<path d="M38.5431 156.269H33.5254V162.043H38.5431V156.269Z" stroke="black" stroke-width="0.44" stroke-linecap="round" stroke-linejoin="round"/>
<path d="M46.1891 156.269H41.1714V162.043H46.1891V156.269Z" stroke="black" stroke-width="0.44" stroke-linecap="round" stroke-linejoin="round"/>
<path d="M53.8346 156.269H48.8169V162.043H53.8346V156.269Z" stroke="black" stroke-width="0.44" stroke-linecap="round" stroke-linejoin="round"/>
<path d="M61.4811 156.269H56.4634V162.043H61.4811V156.269Z" stroke="black" stroke-width="0.44" stroke-linecap="round" stroke-linejoin="round"/>
<path d="M69.1266 156.269H64.1089V162.043H69.1266V156.269Z" stroke="black" stroke-width="0.44" stroke-linecap="round" stroke-linejoin="round"/>
<path d="M76.7726 156.269H71.7549V162.043H76.7726V156.269Z" stroke="black" stroke-width="0.44" stroke-linecap="round" stroke-linejoin="round"/>
<path d="M84.4186 156.269H79.4009V162.043H84.4186V156.269Z" stroke="black" stroke-width="0.44" stroke-linecap="round" stroke-linejoin="round"/>
<path d="M23.2516 166.041H18.2339V171.816H23.2516V166.041Z" stroke="black" stroke-width="0.44" stroke-linecap="round" stroke-linejoin="round"/>
<path d="M30.8971 166.041H25.8794V171.816H30.8971V166.041Z" stroke="black" stroke-width="0.44" stroke-linecap="round" stroke-linejoin="round"/>
<path d="M38.5431 166.041H33.5254V171.816H38.5431V166.041Z" stroke="black" stroke-width="0.44" stroke-linecap="round" stroke-linejoin="round"/>
<path d="M46.1891 166.041H41.1714V171.816H46.1891V166.041Z" stroke="black" stroke-width="0.44" stroke-linecap="round" stroke-linejoin="round"/>
<path d="M53.8346 166.041H48.8169V171.816H53.8346V166.041Z" stroke="black" stroke-width="0.44" stroke-linecap="round" stroke-linejoin="round"/>
<path d="M61.4811 166.041H56.4634V171.816H61.4811V166.041Z" stroke="black" stroke-width="0.44" stroke-linecap="round" stroke-linejoin="round"/>
<path d="M69.1266 166.041H64.1089V171.816H69.1266V166.041Z" stroke="black" stroke-width="0.44" stroke-linecap="round" stroke-linejoin="round"/>
<path d="M76.7726 166.041H71.7549V171.816H76.7726V166.041Z" stroke="black" stroke-width="0.44" stroke-linecap="round" stroke-linejoin="round"/>
<path d="M84.4186 166.041H79.4009V171.816H84.4186V166.041Z" stroke="black" stroke-width="0.44" stroke-linecap="round" stroke-linejoin="round"/>
<path d="M23.2516 175.813H18.2339V181.588H23.2516V175.813Z" stroke="black" stroke-width="0.44" stroke-linecap="round" stroke-linejoin="round"/>
<path d="M30.8971 175.813H25.8794V181.588H30.8971V175.813Z" stroke="black" stroke-width="0.44" stroke-linecap="round" stroke-linejoin="round"/>
<path d="M38.5431 175.813H33.5254V181.588H38.5431V175.813Z" stroke="black" stroke-width="0.44" stroke-linecap="round" stroke-linejoin="round"/>
<path d="M46.1891 175.813H41.1714V181.588H46.1891V175.813Z" stroke="black" stroke-width="0.44" stroke-linecap="round" stroke-linejoin="round"/>
<path d="M53.8346 175.813H48.8169V181.588H53.8346V175.813Z" stroke="black" stroke-width="0.44" stroke-linecap="round" stroke-linejoin="round"/>
<path d="M61.4811 175.813H56.4634V181.588H61.4811V175.813Z" stroke="black" stroke-width="0.44" stroke-linecap="round" stroke-linejoin="round"/>
<path d="M69.1266 175.813H64.1089V181.588H69.1266V175.813Z" stroke="black" stroke-width="0.44" stroke-linecap="round" stroke-linejoin="round"/>
<path d="M76.7726 175.813H71.7549V181.588H76.7726V175.813Z" stroke="black" stroke-width="0.44" stroke-linecap="round" stroke-linejoin="round"/>
<path d="M84.4186 175.813H79.4009V181.588H84.4186V175.813Z" stroke="black" stroke-width="0.44" stroke-linecap="round" stroke-linejoin="round"/>
<path d="M62.9534 87.7271H23.2803V93.8018H62.9534V87.7271Z" stroke="black" stroke-width="0.44" stroke-linecap="round" stroke-linejoin="round"/>
<path d="M66.2724 85.1523H65.166V93.991H66.2724V85.1523Z" stroke="black" stroke-width="0.44" stroke-linecap="round" stroke-linejoin="round"/>
</g>
<g opacity="0.3">
<path d="M59.0791 96.2933V41.97H134.271V78.4556H190.927V196.661" stroke="black" stroke-width="0.44" stroke-linecap="round" stroke-linejoin="round"/>
<path d="M133.922 82.0503V176.182" stroke="black" stroke-width="0.44" stroke-linecap="round" stroke-linejoin="round"/>
<path d="M149.263 82.0503V176.182" stroke="black" stroke-width="0.44" stroke-linecap="round" stroke-linejoin="round"/>
<path d="M153.1 82.0503V176.182" stroke="black" stroke-width="0.44" stroke-linecap="round" stroke-linejoin="round"/>
<path d="M173.167 82.0503V176.182" stroke="black" stroke-width="0.44" stroke-linecap="round" stroke-linejoin="round"/>
<path d="M177 82.0503V176.182" stroke="black" stroke-width="0.44" stroke-linecap="round" stroke-linejoin="round"/>
<path d="M120.641 45.4619V177.363" stroke="black" stroke-width="0.44" stroke-linecap="round" stroke-linejoin="round"/>
<path d="M120.937 54.3127H131.265" stroke="black" stroke-width="0.44" stroke-linecap="round" stroke-linejoin="round"/>
<path d="M120.937 70.2463H131.265" stroke="black" stroke-width="0.44" stroke-linecap="round" stroke-linejoin="round"/>
<path d="M120.937 86.1797H131.265" stroke="black" stroke-width="0.44" stroke-linecap="round" stroke-linejoin="round"/>
<path d="M120.937 102.117H131.265" stroke="black" stroke-width="0.44" stroke-linecap="round" stroke-linejoin="round"/>
<path d="M120.937 118.051H131.265" stroke="black" stroke-width="0.44" stroke-linecap="round" stroke-linejoin="round"/>
<path d="M120.937 133.984H131.265" stroke="black" stroke-width="0.44" stroke-linecap="round" stroke-linejoin="round"/>
<path d="M120.937 149.917H131.265" stroke="black" stroke-width="0.44" stroke-linecap="round" stroke-linejoin="round"/>
<path d="M71.9528 53.1323H61.9214V56.3774H71.9528V53.1323Z" stroke="black" stroke-width="0.44" stroke-linecap="round" stroke-linejoin="round"/>
<path d="M86.1173 53.1323H76.0859V56.3774H86.1173V53.1323Z" stroke="black" stroke-width="0.44" stroke-linecap="round" stroke-linejoin="round"/>
<path d="M100.278 53.1323H90.2466V56.3774H100.278V53.1323Z" stroke="black" stroke-width="0.44" stroke-linecap="round" stroke-linejoin="round"/>
<path d="M114.443 53.1323H104.412V56.3774H114.443V53.1323Z" stroke="black" stroke-width="0.44" stroke-linecap="round" stroke-linejoin="round"/>
<path d="M71.9528 61.2471H61.9214V64.4922H71.9528V61.2471Z" stroke="black" stroke-width="0.44" stroke-linecap="round" stroke-linejoin="round"/>
<path d="M86.1173 61.2471H76.0859V64.4922H86.1173V61.2471Z" stroke="black" stroke-width="0.44" stroke-linecap="round" stroke-linejoin="round"/>
<path d="M100.278 61.2471H90.2466V64.4922H100.278V61.2471Z" stroke="black" stroke-width="0.44" stroke-linecap="round" stroke-linejoin="round"/>
<path d="M114.443 61.2471H104.412V64.4922H114.443V61.2471Z" stroke="black" stroke-width="0.44" stroke-linecap="round" stroke-linejoin="round"/>
<path d="M71.9528 69.3621H61.9214V72.6071H71.9528V69.3621Z" stroke="black" stroke-width="0.44" stroke-linecap="round" stroke-linejoin="round"/>
<path d="M86.1173 69.3621H76.0859V72.6071H86.1173V69.3621Z" stroke="black" stroke-width="0.44" stroke-linecap="round" stroke-linejoin="round"/>
<path d="M100.278 69.3621H90.2466V72.6071H100.278V69.3621Z" stroke="black" stroke-width="0.44" stroke-linecap="round" stroke-linejoin="round"/>
<path d="M114.443 69.3621H104.412V72.6071H114.443V69.3621Z" stroke="black" stroke-width="0.44" stroke-linecap="round" stroke-linejoin="round"/>
<path d="M71.9528 77.4766H61.9214V80.7216H71.9528V77.4766Z" stroke="black" stroke-width="0.44" stroke-linecap="round" stroke-linejoin="round"/>
<path d="M86.1173 77.4766H76.0859V80.7216H86.1173V77.4766Z" stroke="black" stroke-width="0.44" stroke-linecap="round" stroke-linejoin="round"/>
<path d="M100.278 77.4768H90.2466V80.7219H100.278V77.4768Z" stroke="black" stroke-width="0.44" stroke-linecap="round" stroke-linejoin="round"/>
<path d="M114.443 77.4766H104.412V80.7216H114.443V77.4766Z" stroke="black" stroke-width="0.44" stroke-linecap="round" stroke-linejoin="round"/>
<path d="M71.9528 85.5916H61.9214V88.8366H71.9528V85.5916Z" stroke="black" stroke-width="0.44" stroke-linecap="round" stroke-linejoin="round"/>
<path d="M86.1173 85.5916H76.0859V88.8366H86.1173V85.5916Z" stroke="black" stroke-width="0.44" stroke-linecap="round" stroke-linejoin="round"/>
<path d="M100.278 85.5916H90.2466V88.8366H100.278V85.5916Z" stroke="black" stroke-width="0.44" stroke-linecap="round" stroke-linejoin="round"/>
<path d="M114.443 85.5916H104.412V88.8366H114.443V85.5916Z" stroke="black" stroke-width="0.44" stroke-linecap="round" stroke-linejoin="round"/>
<path d="M86.1173 93.7063H76.0859V96.9514H86.1173V93.7063Z" stroke="black" stroke-width="0.44" stroke-linecap="round" stroke-linejoin="round"/>
<path d="M100.278 93.7063H90.2466V96.9514H100.278V93.7063Z" stroke="black" stroke-width="0.44" stroke-linecap="round" stroke-linejoin="round"/>
<path d="M114.443 93.7063H104.412V96.9514H114.443V93.7063Z" stroke="black" stroke-width="0.44" stroke-linecap="round" stroke-linejoin="round"/>
<path d="M100.278 103.001H90.2466V106.247H100.278V103.001Z" stroke="black" stroke-width="0.44" stroke-linecap="round" stroke-linejoin="round"/>
<path d="M114.443 103.001H104.412V106.247H114.443V103.001Z" stroke="black" stroke-width="0.44" stroke-linecap="round" stroke-linejoin="round"/>
<path d="M100.278 111.852H90.2466V115.097H100.278V111.852Z" stroke="black" stroke-width="0.44" stroke-linecap="round" stroke-linejoin="round"/>
<path d="M114.443 111.852H104.412V115.097H114.443V111.852Z" stroke="black" stroke-width="0.44" stroke-linecap="round" stroke-linejoin="round"/>
<path d="M100.278 120.708H90.2466V123.953H100.278V120.708Z" stroke="black" stroke-width="0.44" stroke-linecap="round" stroke-linejoin="round"/>
<path d="M114.443 120.708H104.412V123.953H114.443V120.708Z" stroke="black" stroke-width="0.44" stroke-linecap="round" stroke-linejoin="round"/>
<path d="M100.278 129.558H90.2466V132.803H100.278V129.558Z" stroke="black" stroke-width="0.44" stroke-linecap="round" stroke-linejoin="round"/>
<path d="M114.443 129.558H104.412V132.803H114.443V129.558Z" stroke="black" stroke-width="0.44" stroke-linecap="round" stroke-linejoin="round"/>
<path d="M100.278 138.409H90.2466V141.655H100.278V138.409Z" stroke="black" stroke-width="0.44" stroke-linecap="round" stroke-linejoin="round"/>
<path d="M114.443 138.409H104.412V141.655H114.443V138.409Z" stroke="black" stroke-width="0.44" stroke-linecap="round" stroke-linejoin="round"/>
<path d="M100.278 147.264H90.2466V150.509H100.278V147.264Z" stroke="black" stroke-width="0.44" stroke-linecap="round" stroke-linejoin="round"/>
<path d="M114.443 147.264H104.412V150.509H114.443V147.264Z" stroke="black" stroke-width="0.44" stroke-linecap="round" stroke-linejoin="round"/>
<path d="M100.278 156.115H90.2466V159.361H100.278V156.115Z" stroke="black" stroke-width="0.44" stroke-linecap="round" stroke-linejoin="round"/>
<path d="M114.443 156.115H104.412V159.361H114.443V156.115Z" stroke="black" stroke-width="0.44" stroke-linecap="round" stroke-linejoin="round"/>
<path d="M100.278 164.967H90.2466V168.212H100.278V164.967Z" stroke="black" stroke-width="0.44" stroke-linecap="round" stroke-linejoin="round"/>
<path d="M114.443 164.966H104.412V168.211H114.443V164.966Z" stroke="black" stroke-width="0.44" stroke-linecap="round" stroke-linejoin="round"/>
<path d="M100.278 173.822H90.2466V177.067H100.278V173.822Z" stroke="black" stroke-width="0.44" stroke-linecap="round" stroke-linejoin="round"/>
<path d="M114.443 173.822H104.412V177.067H114.443V173.822Z" stroke="black" stroke-width="0.44" stroke-linecap="round" stroke-linejoin="round"/>
<path d="M134.51 67.2971H163.428V78.2128" stroke="black" stroke-width="0.44" stroke-linecap="round" stroke-linejoin="round"/>
<path d="M62.5093 41.9206V38.6755H117.984V41.9206" stroke="black" stroke-width="0.44" stroke-linecap="round" stroke-linejoin="round"/>
</g>
<path d="M42.9317 67.8444C42.9317 67.8444 42.1502 63.8014 38.6296 62.366C35.1089 60.9306 32.8715 62.7567 32.3656 64.0605C31.8597 65.3643 31.7117 67.5812 29.7581 66.6681C27.8044 65.755 27.0189 64.7145 24.5388 65.755C22.0587 66.7956 22.8401 69.0166 21.014 69.4114C19.1879 69.8062 19.8418 68.7575 17.8841 69.0001C15.9263 69.2428 16.058 70.4643 15.548 71.1347C15.038 71.8051 15.0256 71.2663 13.1995 71.5254C12.0825 71.6941 11.0398 72.1875 10.2012 72.9444H50.5077C50.5077 72.9444 51.5523 70.8592 48.8132 69.2921C46.074 67.7251 43.7173 69.4238 42.9317 67.8444Z" stroke="#ADADAD" stroke-width="0.44" stroke-linecap="round" stroke-linejoin="round"/>
<path d="M57.302 27.3569C57.302 27.3569 56.9647 25.613 55.4429 24.9961C53.9211 24.3792 52.9752 25.1647 52.7448 25.7282C52.5145 26.2917 52.4611 27.2459 51.6179 26.851C50.7748 26.4562 50.4375 26.0284 49.3682 26.4603C48.2988 26.8921 48.6361 27.8669 47.8464 28.0355C47.0567 28.2042 47.3405 27.7517 46.4973 27.8669C45.6542 27.9821 45.7077 28.4838 45.4856 28.7635C45.2635 29.0432 45.2594 28.8211 44.4697 28.9363C43.9877 29.0098 43.5383 29.2245 43.1782 29.5532H60.5635C60.5635 29.5532 61.0159 28.6525 59.8314 27.978C58.6469 27.3034 57.6392 28.0355 57.302 27.3569Z" stroke="#ADADAD" stroke-width="0.44" stroke-linecap="round" stroke-linejoin="round"/>
<path d="M138.77 35.262C138.77 35.262 138.432 33.5181 136.915 32.9012C135.397 32.2843 134.447 33.0698 134.213 33.6292C133.978 34.1885 133.933 35.151 133.086 34.7561C132.238 34.3613 131.905 33.9335 130.836 34.3448C129.767 34.7561 130.104 35.7514 129.318 35.9201C128.533 36.0887 128.812 35.6404 127.965 35.7514C127.118 35.8625 127.18 36.3725 126.953 36.6522C126.727 36.9318 126.727 36.7097 125.942 36.8208C125.458 36.8966 125.008 37.1126 124.646 37.4418H142.035C142.035 37.4418 142.484 36.5411 141.303 35.8666C140.123 35.1921 139.107 35.9365 138.77 35.262Z" stroke="#ADADAD" stroke-width="0.44" stroke-linecap="round" stroke-linejoin="round"/>
<path d="M180.475 58.4956H156.801C156.568 58.507 156.335 58.4709 156.116 58.3896C155.897 58.3082 155.698 58.1833 155.529 58.0223C155.36 57.8613 155.225 57.6677 155.133 57.4532C155.041 57.2387 154.994 57.0077 154.994 56.7743C154.994 56.5409 155.041 56.31 155.133 56.0955C155.225 55.8809 155.36 55.6873 155.529 55.5264C155.698 55.3654 155.897 55.2405 156.116 55.1591C156.335 55.0778 156.568 55.0417 156.801 55.0531H180.475C180.708 55.0417 180.941 55.0778 181.16 55.1591C181.379 55.2405 181.579 55.3654 181.748 55.5264C181.917 55.6873 182.051 55.8809 182.143 56.0955C182.235 56.31 182.282 56.5409 182.282 56.7743C182.282 57.0077 182.235 57.2387 182.143 57.4532C182.051 57.6677 181.917 57.8613 181.748 58.0223C181.579 58.1833 181.379 58.3082 181.16 58.3896C180.941 58.4709 180.708 58.507 180.475 58.4956Z" fill="#263238" stroke="#263238" stroke-width="0.44" stroke-linecap="round" stroke-linejoin="round"/>
<path d="M181.384 88.9188L153.462 60.9962C152.339 59.8734 151.977 58.4174 152.639 57.747C153.301 57.0766 154.766 57.4386 155.888 58.5696L183.811 86.488C184.934 87.6109 185.296 89.0668 184.634 89.7413C183.971 90.4159 182.507 90.0539 181.384 88.9188Z" fill="#263238" stroke="#263238" stroke-width="0.44" stroke-linecap="round" stroke-linejoin="round"/>
<path d="M153.462 86.4799L181.384 58.5615C182.507 57.4387 183.959 57.0726 184.634 57.7389C185.308 58.4052 184.942 59.8653 183.811 60.9881L155.889 88.9107C154.766 90.0335 153.314 90.3954 152.639 89.7332C151.965 89.0711 152.339 87.5863 153.462 86.4799Z" fill="#263238" stroke="#263238" stroke-width="0.44" stroke-linecap="round" stroke-linejoin="round"/>
<path d="M180.475 25.3621H156.801C156.575 25.3621 156.351 25.3176 156.142 25.231C155.933 25.1444 155.743 25.0174 155.583 24.8574C155.423 24.6974 155.296 24.5074 155.209 24.2983C155.123 24.0892 155.078 23.8651 155.078 23.6388C155.078 23.4125 155.123 23.1884 155.209 22.9794C155.296 22.7703 155.423 22.5803 155.583 22.4203C155.743 22.2602 155.933 22.1333 156.142 22.0467C156.351 21.9601 156.575 21.9155 156.801 21.9155H180.475C180.932 21.9155 181.371 22.0971 181.694 22.4203C182.017 22.7435 182.199 23.1818 182.199 23.6388C182.199 24.0959 182.017 24.5342 181.694 24.8574C181.371 25.1806 180.932 25.3621 180.475 25.3621Z" fill="#263238" stroke="#263238" stroke-width="0.44" stroke-linecap="round" stroke-linejoin="round"/>
<path d="M181.384 55.7812L153.462 27.8587C152.339 26.7399 151.977 25.284 152.639 24.6095C153.301 23.9349 154.766 24.301 155.888 25.432L183.811 53.3546C184.934 54.4774 185.296 55.9334 184.634 56.6038C183.971 57.2742 182.507 56.904 181.384 55.7812Z" fill="#263238" stroke="#263238" stroke-width="0.44" stroke-linecap="round" stroke-linejoin="round"/>
<path d="M153.462 53.3462L181.384 25.4237C182.507 24.3009 183.959 23.9389 184.634 24.6011C185.308 25.2633 184.942 26.7316 183.811 27.8503L155.889 55.7729C154.766 56.8957 153.314 57.2617 152.639 56.5954C151.965 55.9291 152.339 54.4691 153.462 53.3462Z" fill="#263238" stroke="#263238" stroke-width="0.44" stroke-linecap="round" stroke-linejoin="round"/>
<path d="M180.475 91.3661H156.801C156.344 91.3661 155.906 91.1845 155.583 90.8613C155.26 90.5381 155.078 90.0998 155.078 89.6427C155.078 89.1857 155.26 88.7474 155.583 88.4242C155.906 88.101 156.344 87.9194 156.801 87.9194H180.475C180.932 87.9194 181.371 88.101 181.694 88.4242C182.017 88.7474 182.199 89.1857 182.199 89.6427C182.199 90.0998 182.017 90.5381 181.694 90.8613C181.371 91.1845 180.932 91.3661 180.475 91.3661Z" fill="#263238" stroke="#263238" stroke-width="0.44" stroke-linecap="round" stroke-linejoin="round"/>
<path d="M181.384 121.785L153.462 93.8626C152.339 92.7438 151.977 91.2879 152.639 90.6134C153.301 89.9388 154.766 90.3049 155.888 91.4359L183.811 119.358C184.934 120.481 185.296 121.933 184.634 122.608C183.971 123.282 182.507 122.908 181.384 121.785Z" fill="#263238" stroke="#263238" stroke-width="0.44" stroke-linecap="round" stroke-linejoin="round"/>
<path d="M153.462 119.35L181.384 91.4279C182.507 90.305 183.959 89.9431 184.634 90.6053C185.308 91.2675 184.942 92.7358 183.811 93.8545L155.889 121.777C154.766 122.9 153.314 123.266 152.639 122.6C151.965 121.933 152.339 120.49 153.462 119.35Z" fill="#263238" stroke="#263238" stroke-width="0.44" stroke-linecap="round" stroke-linejoin="round"/>
<path d="M180.475 124.232H156.801C156.568 124.244 156.335 124.207 156.116 124.126C155.897 124.045 155.698 123.92 155.529 123.759C155.36 123.598 155.225 123.404 155.133 123.19C155.041 122.975 154.994 122.744 154.994 122.511C154.994 122.278 155.041 122.047 155.133 121.832C155.225 121.618 155.36 121.424 155.529 121.263C155.698 121.102 155.897 120.977 156.116 120.896C156.335 120.814 156.568 120.778 156.801 120.79H180.475C180.708 120.778 180.941 120.814 181.16 120.896C181.379 120.977 181.579 121.102 181.748 121.263C181.917 121.424 182.051 121.618 182.143 121.832C182.235 122.047 182.282 122.278 182.282 122.511C182.282 122.744 182.235 122.975 182.143 123.19C182.051 123.404 181.917 123.598 181.748 123.759C181.579 123.92 181.379 124.045 181.16 124.126C180.941 124.207 180.708 124.244 180.475 124.232Z" fill="#263238" stroke="#263238" stroke-width="0.44" stroke-linecap="round" stroke-linejoin="round"/>
<path d="M181.384 154.656L153.462 126.733C152.339 125.61 151.977 124.154 152.639 123.484C153.301 122.813 154.766 123.175 155.888 124.306L183.811 152.229C184.934 153.348 185.296 154.804 184.634 155.478C183.971 156.153 182.507 155.778 181.384 154.656Z" fill="#263238" stroke="#263238" stroke-width="0.44" stroke-linecap="round" stroke-linejoin="round"/>
<path d="M153.462 152.221L181.384 124.298C182.507 123.175 183.959 122.809 184.634 123.476C185.308 124.142 184.942 125.602 183.811 126.725L155.889 154.647C154.766 155.77 153.314 156.132 152.639 155.47C151.965 154.808 152.339 153.339 153.462 152.221Z" fill="#263238" stroke="#263238" stroke-width="0.44" stroke-linecap="round" stroke-linejoin="round"/>
<path d="M180.475 157.095H156.801C156.344 157.095 155.906 156.913 155.583 156.59C155.26 156.267 155.078 155.828 155.078 155.371C155.078 154.914 155.26 154.476 155.583 154.153C155.906 153.83 156.344 153.648 156.801 153.648H180.475C180.932 153.648 181.371 153.83 181.694 154.153C182.017 154.476 182.199 154.914 182.199 155.371C182.199 155.828 182.017 156.267 181.694 156.59C181.371 156.913 180.932 157.095 180.475 157.095Z" fill="#263238" stroke="#263238" stroke-width="0.44" stroke-linecap="round" stroke-linejoin="round"/>
<path d="M181.384 187.53L153.462 159.607C152.339 158.489 151.977 157.033 152.639 156.358C153.301 155.684 154.766 156.05 155.888 157.181L183.811 185.103C184.934 186.226 185.296 187.682 184.634 188.353C183.971 189.023 182.507 188.645 181.384 187.53Z" fill="#263238" stroke="#263238" stroke-width="0.44" stroke-linecap="round" stroke-linejoin="round"/>
<path d="M153.462 185.087L181.384 157.164C182.507 156.042 183.959 155.68 184.633 156.342C185.308 157.004 184.942 158.472 183.811 159.591L155.897 187.53C154.774 188.653 153.322 189.019 152.647 188.353C151.973 187.686 152.339 186.21 153.462 185.087Z" fill="#263238" stroke="#263238" stroke-width="0.44" stroke-linecap="round" stroke-linejoin="round"/>
<path d="M185.428 18H180.126V200.264H185.428V18Z" fill="#263238" stroke="#263238" stroke-width="0.44" stroke-linecap="round" stroke-linejoin="round"/>
<path d="M156.448 18H151.146V200.264H156.448V18Z" fill="#263238" stroke="#263238" stroke-width="0.44" stroke-linecap="round" stroke-linejoin="round"/>
<path d="M101.249 175.138L106.349 200.263H128.9L126.272 162.626L125.067 143.226L79.0889 141.856L77.9784 161.002L77.6699 200.263H99.493L101.249 175.138Z" fill="#263238" stroke="#263238" stroke-width="0.44" stroke-linecap="round" stroke-linejoin="round"/>
<path d="M90.6746 76.3456C90.6746 76.3456 77.8218 83.1278 74.8482 84.5714C71.8745 86.0151 68.3045 87.1873 67.5889 89.0956C66.8732 91.004 60.926 108.492 59.9718 110.894C59.0176 113.296 61.1645 116.488 61.2838 117.199C61.4031 117.911 60.8067 119.7 61.0452 120.177C61.3838 120.759 61.5863 121.41 61.6375 122.081C61.6375 122.793 67.4696 118.984 71.1589 121.259C74.8482 123.533 77.464 127.802 77.8218 128.756C78.5772 131.23 79.018 133.789 79.1338 136.374C79.249 139.586 77.7025 141.963 78.776 143.514C79.8495 145.064 81.8689 145.652 81.8689 145.652C81.8689 145.652 108.882 147.437 114.834 146.475C120.785 145.512 124.47 145.167 125.067 143.263C125.663 141.358 125.54 138.858 125.659 138.381C125.778 137.904 126.852 128.744 127.304 125.631C127.757 122.517 131.006 120.284 131.351 119.918C131.697 119.552 134.448 118.725 138.018 118.491C141.588 118.256 145.87 121.106 145.87 121.106C145.87 121.106 147.893 121.226 148.49 118.014C149.086 114.801 148.013 111.704 146.939 108.254C145.866 104.803 141.23 96.5935 141.23 96.5935C141.23 96.5935 140.753 94.0928 137.899 88.1456C135.045 82.1983 133.971 81.8364 131.73 81.3593C129.488 80.8822 117.701 77.6124 114.237 76.3621C110.774 75.1118 104.469 74.5647 104.469 74.5647C104.469 74.5647 93.4097 74.3221 90.6746 76.3456Z" fill="#FFC100"/>
<g opacity="0.47">
<path d="M61.6121 121.768H62.9447C63.2491 121.653 63.5986 121.522 63.9811 121.386H61.5381C61.5714 121.512 61.5961 121.639 61.6121 121.768Z" fill="white"/>
<path d="M84.1923 79.7717V83.2142H80.647V81.6184L80.2645 81.8199V83.2142H77.5582L76.5546 83.7283V86.9282H73.0093V85.4187L72.6268 85.5874V86.9282H69.8835C69.5494 87.1174 69.2266 87.3262 68.917 87.5533V90.8436H66.9592C66.914 90.967 66.8729 91.0945 66.8235 91.2262H68.9087V94.5576H65.6719C65.6266 94.681 65.5855 94.8085 65.5403 94.9401H68.9087V98.4813H65.3634V95.4501C65.24 95.812 65.1084 96.1822 64.9809 96.5606V98.4813H64.327L64.1912 98.8638H64.9891V102.195H63.0437L62.908 102.578H64.9891V106.094H61.6783C61.6344 106.226 61.5891 106.353 61.5425 106.477H64.9891V109.808H60.3786C60.3292 109.944 60.2799 110.071 60.2387 110.191H65.0056V113.732H59.9673C60.0002 113.864 60.0372 113.991 60.0783 114.119H65.0138V117.446H61.3122C61.3122 117.561 61.3122 117.693 61.2793 117.828H65.0056V121.041L65.3881 120.93V117.828H68.9334V120.498C69.0609 120.498 69.1884 120.522 69.3159 120.539V117.828H72.6433V121.374H71.4423C71.6315 121.497 71.8207 121.621 72.0017 121.756H72.6433V122.242L73.0258 122.562V121.74H76.5711V125.067H75.4688C75.5758 125.193 75.6786 125.321 75.7773 125.45H76.5711V126.519C76.7068 126.716 76.8343 126.906 76.9536 127.091V125.446H80.2809V128.991H77.9448C77.9818 129.102 78.0188 129.229 78.06 129.373H80.2809V132.701H78.7715L78.8332 133.083H80.2809V136.629H79.1334C79.1334 136.756 79.1334 136.884 79.1334 137.011H80.2686V140.338H78.6234C78.5946 140.47 78.57 140.597 78.5453 140.721H80.2604V144.266H79.5283C79.6831 144.402 79.8452 144.53 80.0136 144.649H80.2604V144.813C80.392 144.895 80.5195 144.97 80.6429 145.039V144.649H84.1882V145.718L84.5707 145.739V144.649H87.898V145.932L88.2805 145.957V144.649H91.8259V146.142L92.2084 146.162V144.649H95.5357V146.319H95.9182V144.632H99.4512V146.463H99.8337V144.616H103.161V146.565H103.544V144.603H107.089V146.631H107.471V144.603H110.799V146.619H111.181V144.612H114.727V146.38H114.817L115.109 146.335V144.624H118.436V145.809L118.819 145.747V144.624H122.364V145.011L122.747 144.895V144.624H123.466C123.714 144.517 123.952 144.389 124.178 144.242H122.747V140.696H125.486C125.486 140.565 125.506 140.437 125.515 140.314H122.747V136.986H125.827L125.877 136.604H122.747V133.116H126.074V135.107C126.193 134.173 126.325 133.12 126.457 132.043V129.406H126.794L126.843 129.024H126.457V125.478H127.337C127.361 125.351 127.386 125.219 127.419 125.096H126.473V121.769H129.352C129.475 121.633 129.595 121.505 129.714 121.386H126.465V117.841H130.01V121.09C130.142 120.964 130.269 120.845 130.393 120.732V117.853H133.72V119.087L134.102 119.001V117.837H137.648V118.499L138.026 118.47V117.837H141.354V118.947L141.736 119.071V117.837H145.281V120.716C145.438 120.806 145.569 120.884 145.664 120.946V117.833H148.518C148.543 117.706 148.563 117.579 148.58 117.45H145.664V114.123H148.51L148.448 113.736H145.664V110.207H147.572C147.535 110.08 147.498 109.952 147.457 109.825H145.68V106.506H146.305L146.141 106.123H145.68V105.107C145.557 104.84 145.429 104.568 145.298 104.285V106.094H141.752V102.553H144.455L144.257 102.171H141.752V98.8391H142.509L142.299 98.4566H141.752V97.4572L141.37 96.7703V98.4525H138.043V94.9113H140.774L140.646 94.5288H138.043V91.1974H139.346C139.293 91.074 139.235 90.9465 139.182 90.8149H138.059V88.3677L137.94 88.1127L137.677 87.5698V90.8149H134.131V87.2736H137.528C137.463 87.142 137.401 87.0145 137.335 86.8911H134.131V83.5597H135.386C135.283 83.424 135.184 83.2965 135.085 83.1772H134.131V82.2436C134.009 82.1528 133.881 82.069 133.749 81.9927V83.1772H130.421V81.0097L130.039 80.911V83.1772H126.473V79.965L126.09 79.8622V83.1772H122.763V79.636H125.272L123.902 79.2535H122.763V78.9491L122.381 78.8422V79.274H118.835V77.8098L118.453 77.6947V79.274H115.125V76.6541C114.99 76.613 114.862 76.5677 114.743 76.5266V79.274H111.198V75.5313L110.815 75.4531V79.274H107.488V74.8979L107.105 74.8485V79.2699H103.564V74.5442H103.182V79.2699H99.8625V74.6223L99.48 74.6429V79.2699H95.9347V74.9267L95.5522 74.9719V79.2699H92.2125V75.6588C92.0809 75.6999 91.9534 75.7452 91.83 75.7904V79.2905H88.2847V77.6248L87.9022 77.8263V79.2905H85.1136L84.1923 79.7717ZM84.5748 79.673H87.9022V83.2142H84.5748V79.673ZM114.743 102.203H111.198V98.872H114.743V102.203ZM115.125 98.872H118.453V102.203H115.125V98.872ZM88.2847 102.574H91.83V106.094H88.2847V102.574ZM87.9022 106.115H84.5748V102.574H87.9022V106.115ZM99.8625 121.386V117.841H103.19V121.386H99.8625ZM103.19 121.769V125.096H99.8625V121.769H103.19ZM99.8625 117.458V114.131H103.19V117.458H99.8625ZM95.9347 102.565H99.4512V106.094H95.9059L95.9347 102.565ZM95.5522 106.107H92.2125V102.565H95.5398L95.5522 106.107ZM99.8625 102.565H103.19V106.094H99.8625V102.565ZM99.4512 106.506V109.837H95.9059V106.506H99.4512ZM99.8337 106.506H103.161V109.837H99.8625L99.8337 106.506ZM103.161 110.207V113.748H99.8625V110.207H103.161ZM103.544 114.135H107.089V117.462H103.564L103.544 114.135ZM103.544 113.748V110.207H107.089V113.748H103.544ZM103.544 109.825V106.506H107.089V109.837L103.544 109.825ZM103.544 106.123V102.582H107.089V106.094L103.544 106.123ZM103.544 102.199V98.8679H107.089V102.199H103.544ZM103.161 102.199H99.8625V98.8679H103.19L103.161 102.199ZM99.4594 102.199H95.9141V98.8679H99.4512L99.4594 102.199ZM95.5316 102.199H92.2125V98.8679H95.5398L95.5316 102.199ZM91.83 102.199H88.2847V98.8679H91.83V102.199ZM91.83 106.506V109.837H88.2847V106.506H91.83ZM92.2125 106.506H95.5398V109.837H92.2125V106.506ZM95.5398 110.207V113.748H92.2125V110.207H95.5398ZM95.9223 110.207H99.4512V113.748H95.9059L95.9223 110.207ZM99.4676 114.135V117.462H95.9223V114.135H99.4676ZM99.4676 117.837V121.382H95.9223V117.837H99.4676ZM99.4676 121.764V125.092H95.9223V121.764H99.4676ZM99.4676 125.466V129.011H95.9223V125.466H99.4676ZM99.8502 125.466H103.177V129.011H99.8625L99.8502 125.466ZM103.552 125.466H107.097V129.011H103.564L103.552 125.466ZM103.552 125.084V121.756H107.097V125.084H103.552ZM103.552 121.382V117.837H107.097V121.382H103.552ZM107.48 117.837H110.807V121.382H107.48V117.837ZM107.48 117.454V114.127H110.807V117.454H107.48ZM107.48 113.753V110.207H110.807V113.748L107.48 113.753ZM107.48 109.829V106.506H110.807V109.837L107.48 109.829ZM107.48 106.127V102.586H110.807V106.094L107.48 106.127ZM111.181 102.586H114.727V106.094H111.181V102.586ZM110.799 102.203H107.471V98.872H110.799V102.203ZM107.471 98.5019V94.9607H110.799V98.5019H107.471ZM107.089 98.5019H103.564V94.9607H107.109L107.089 98.5019ZM103.161 98.5019H99.8625V94.9607H103.19L103.161 98.5019ZM99.4594 98.5019H95.9141V94.9607H99.4512L99.4594 98.5019ZM95.5316 98.5019H92.2125V94.9607H95.5398L95.5316 98.5019ZM91.83 98.5019H88.2847V94.9607H91.83V98.5019ZM87.9022 98.5019H84.5748V94.9607H87.9022V98.5019ZM87.9022 98.8844V102.216H84.5748V98.8844H87.9022ZM84.2005 102.216H80.6552V98.8844H84.2005V102.216ZM84.2005 102.598V106.094H80.6552V102.553L84.2005 102.598ZM84.2005 106.522V109.854H80.6552V106.506L84.2005 106.522ZM84.583 106.522H87.9104V109.854H84.583V106.522ZM87.9104 110.224V113.765H84.583V110.207L87.9104 110.224ZM88.2929 110.224H91.8382V113.765H88.2929V110.224ZM91.8382 114.151V117.479H88.2929V114.151H91.8382ZM92.2207 114.151H95.548V117.479H92.2125L92.2207 114.151ZM95.548 117.853V121.398H92.2125V117.853H95.548ZM95.548 121.781V125.108H92.2125V121.781H95.548ZM95.548 125.483V129.028H92.2125V125.483H95.548ZM95.548 129.41V132.738H92.2125V129.41H95.548ZM95.9305 129.41H99.4512V132.738H95.9059L95.9305 129.41ZM99.8584 129.41H103.186V132.738H99.8625L99.8584 129.41ZM103.56 129.41H107.105V132.738H103.564L103.56 129.41ZM107.488 129.41H110.815V132.738H107.488V129.41ZM107.488 129.028V125.483H110.815V129.028H107.488ZM107.488 125.1V121.773H110.815V125.1H107.488ZM111.189 121.773H114.735V125.1H111.189V121.773ZM111.189 121.39V117.845H114.735V121.39H111.189ZM111.189 117.462V114.135H114.735V117.462H111.189ZM111.189 113.761V110.207H114.735V113.748L111.189 113.761ZM111.189 109.837V106.506H114.735V109.837H111.189ZM115.117 106.506H118.445V109.837H115.117V106.506ZM115.117 106.123V102.582H118.445V106.094L115.117 106.123ZM118.819 102.582H122.364V106.094H118.819V102.582ZM122.747 102.582H126.074V106.094H122.747V102.582ZM122.747 102.199V98.8679H126.074V102.199H122.747ZM122.364 102.199H118.819V98.8679H122.364V102.199ZM118.819 98.4978V94.9566H122.364V98.4978H118.819ZM118.436 98.4978H115.109V94.9566H118.436V98.4978ZM114.735 98.4978H111.189V94.9566H114.735V98.4978ZM111.189 94.5741V91.2426H114.735V94.5741H111.189ZM110.807 94.5741H107.48V91.2426H110.807V94.5741ZM107.105 94.5741H103.564V91.2426H107.109L107.105 94.5741ZM103.177 94.5741H99.8625V91.2426H103.19L103.177 94.5741ZM99.4759 94.5741H95.9305V91.2426H99.4512L99.4759 94.5741ZM95.548 94.5741H92.2125V91.2426H95.5398L95.548 94.5741ZM91.8464 94.5741H88.3011V91.2426H91.8464V94.5741ZM87.9186 94.5741H84.5913V91.2426H87.9186V94.5741ZM84.217 94.5741H80.6717V91.2426H84.217V94.5741ZM84.217 94.9566V98.4978H80.6717V94.9566H84.217ZM80.2892 98.4978H76.9618V94.9566H80.2892V98.4978ZM80.2892 98.8803V102.212H76.9618V98.8803H80.2892ZM80.2892 102.582V106.094H76.9618V102.553L80.2892 102.582ZM76.5875 106.123H73.0422V102.582H76.5875V106.123ZM76.5875 106.506V109.837H73.0422V106.506H76.5875ZM76.97 106.506H80.2974V109.837H76.97V106.506ZM80.2974 110.207V113.748H76.97V110.207H80.2974ZM80.6799 110.207H84.2252V113.748H80.6799V110.207ZM84.2252 114.135V117.462H80.6799V114.135H84.2252ZM84.6077 114.135H87.9351V117.462H84.6077V114.135ZM87.9351 117.837V121.382H84.6077V117.837H87.9351ZM88.3176 117.837H91.8629V121.382H88.3176V117.837ZM91.8629 121.764V125.092H88.3176V121.764H91.8629ZM91.8629 125.466V129.011H88.3176V125.466H91.8629ZM91.8629 129.394V132.721H88.3176V129.394H91.8629ZM91.8629 133.096V136.641H88.3176V133.116L91.8629 133.096ZM92.2454 133.096H95.5727V136.641H92.2125L92.2454 133.096ZM95.947 133.096H99.4512V136.641H95.9059L95.947 133.096ZM99.8748 133.096H103.202V136.641H99.8625L99.8748 133.096ZM103.576 133.096H107.122V136.641H103.564L103.576 133.096ZM107.504 133.096H110.832V136.641H107.504V133.096ZM111.206 133.096H114.751V136.641H111.206V133.096ZM111.206 132.713V129.386H114.751V132.713H111.206ZM111.206 129.011V125.466H114.751V129.011H111.206ZM115.134 125.466H118.461V129.011H115.134V125.466ZM115.134 125.084V121.756H118.461V125.084H115.134ZM115.134 121.382V117.837H118.461V121.382H115.134ZM115.134 117.454V114.127H118.461V117.454H115.134ZM115.134 113.753V110.207H118.461V113.748L115.134 113.753ZM118.835 110.211H122.381V113.753H118.835V110.211ZM118.835 109.829V106.506H122.381V109.837L118.835 109.829ZM122.763 106.497H126.09V109.829H122.763V106.497ZM126.465 106.497H130.01V109.829H126.473L126.465 106.497ZM130.393 106.497H133.72V109.829H130.393V106.497ZM130.393 106.115V102.574H133.72V106.094L130.393 106.115ZM130.01 106.115H126.473V102.574H130.018L130.01 106.115ZM126.465 102.191V98.8597H130.01V102.191H126.465ZM126.465 98.4895V94.9483H130.01V98.4895H126.465ZM126.082 98.4895H122.755V94.9483H126.082V98.4895ZM122.755 94.5658V91.2344H126.082V94.5658H122.755ZM122.372 94.5658H118.827V91.2344H122.372V94.5658ZM118.445 94.5658H115.117V91.2344H118.445V94.5658ZM115.117 90.8642V87.323H118.445V90.8642H115.117ZM114.735 90.8642H111.189V87.323H114.735V90.8642ZM110.807 90.8642H107.48V87.323H110.807V90.8642ZM107.105 90.8642H103.564V87.323H107.109L107.105 90.8642ZM103.177 90.8642H99.8625V87.323H103.19L103.177 90.8642ZM99.4759 90.8642H95.9305V87.323H99.4512L99.4759 90.8642ZM95.548 90.8642H92.2125V87.323H95.5398L95.548 90.8642ZM91.8464 90.8642H88.3011V87.323H91.8464V90.8642ZM87.9186 90.8642H84.5913V87.323H87.9186V90.8642ZM84.217 90.8642H80.6717V87.323H84.217V90.8642ZM80.2892 90.8642H76.9618V87.323H80.2892V90.8642ZM80.2892 91.2467V94.5782H76.9618V91.2467H80.2892ZM76.5875 94.5782H73.0422V91.2467H76.5875V94.5782ZM76.5875 94.9607V98.5019H73.0422V94.9607H76.5875ZM76.5875 98.8844V102.216H73.0422V98.8844H76.5875ZM72.6597 102.216H69.3324V98.8844H72.6597V102.216ZM72.6597 102.598V106.094H69.3324V102.553L72.6597 102.598ZM72.6597 106.522V109.854H69.3324V106.506L72.6597 106.522ZM72.6597 110.224V113.765H69.3324V110.207L72.6597 110.224ZM73.0422 110.224H76.5875V113.765H73.0422V110.224ZM76.5875 114.151V117.479H73.0422V114.151H76.5875ZM76.97 114.151H80.2974V117.479H76.97V114.151ZM80.2974 117.853V121.398H76.97V117.853H80.2974ZM80.6799 117.853H84.2252V121.398H80.6799V117.853ZM84.2252 121.781V125.108H80.6799V121.781H84.2252ZM84.6077 121.781H87.9351V125.108H84.6077V121.781ZM87.9351 125.483V129.028H84.6077V125.483H87.9351ZM87.9351 129.41V132.738H84.6077V129.41H87.9351ZM87.9351 133.112V136.657H84.6077V133.116L87.9351 133.112ZM87.9351 137.04V140.367H84.6077V137.04H87.9351ZM88.3176 137.04H91.8629V140.367H88.3176V137.04ZM92.2454 137.04H95.5727V140.367H92.2125L92.2454 137.04ZM95.947 137.04H99.4512V140.367H95.9059L95.947 137.04ZM99.8748 137.04H103.202V140.367H99.8625L99.8748 137.04ZM103.576 137.04H107.122V140.367H103.564L103.576 137.04ZM107.504 137.04H110.832V140.367H107.504V137.04ZM111.206 137.04H114.751V140.367H111.206V137.04ZM115.134 137.04H118.461V140.367H115.134V137.04ZM115.134 136.657V133.116H118.461V136.661L115.134 136.657ZM115.134 132.73V129.402H118.461V132.73H115.134ZM118.835 129.402H122.381V132.73H118.835V129.402ZM118.835 129.02V125.474H122.381V129.02H118.835ZM118.835 125.092V121.764H122.381V125.092H118.835ZM118.835 121.39V117.845H122.381V121.39H118.835ZM118.835 117.462V114.135H122.381V117.462H118.835ZM122.763 114.135H126.09V117.462H122.763V114.135ZM122.763 113.748V110.207H126.09V113.748H122.763ZM126.465 110.207H130.01V113.748H126.473L126.465 110.207ZM130.393 110.207H133.72V113.748H130.393V110.207ZM134.094 110.207H137.64V113.748H134.094V110.207ZM138.022 110.207H141.349V113.748H138.022V110.207ZM138.022 109.825V106.506H141.349V109.837L138.022 109.825ZM137.64 109.825H134.094V106.506H137.64V109.825ZM134.094 106.123V102.582H137.64V106.094L134.094 106.123ZM134.094 102.199V98.8679H137.64V102.199H134.094ZM133.712 102.199H130.384V98.8679H133.712V102.199ZM130.384 98.4978V94.9566H133.712V98.4978H130.384ZM130.384 94.5741V91.2426H133.712V94.5741H130.384ZM130.002 94.5741H126.473V91.2426H130.018L130.002 94.5741ZM126.457 90.8724V87.3312H130.002V90.8724H126.457ZM126.074 90.8724H122.747V87.3312H126.074V90.8724ZM122.372 90.8724H118.827V87.3312H122.372V90.8724ZM118.827 86.9487V83.6173H122.372V86.9487H118.827ZM118.445 86.9487H115.117V83.6173H118.445V86.9487ZM114.743 86.9487H111.198V83.6173H114.743V86.9487ZM110.815 86.9487H107.488V83.6173H110.815V86.9487ZM107.114 86.9487H103.564V83.6173H107.109L107.114 86.9487ZM103.186 86.9487H99.8625V83.6173H103.19L103.186 86.9487ZM99.4841 86.9487H95.9388V83.6173H99.4512L99.4841 86.9487ZM95.5563 86.9487H92.2125V83.6173H95.5398L95.5563 86.9487ZM91.8547 86.9487H88.3093V83.6173H91.8547V86.9487ZM87.9268 86.9487H84.5995V83.6173H87.9268V86.9487ZM84.2252 83.6173V86.9487H80.6799V83.6173H84.2252ZM76.97 83.6173H80.2974V86.9487H76.97V83.6173ZM76.5875 87.3189V90.8601H73.0422V87.3189H76.5875ZM69.3324 87.3189H72.6597V90.8601H69.3324V87.3189ZM69.3324 91.2426H72.6597V94.5741H69.3324V91.2426ZM69.3324 94.9442H72.6597V98.4854H69.3324V94.9442ZM65.4045 98.8679H68.9499V102.199H65.4045V98.8679ZM65.4045 102.57H68.9499V106.094H65.4045V102.57ZM65.4045 106.493H68.9499V109.825H65.4045V106.493ZM65.4045 110.195H68.9499V113.736H65.4045V110.195ZM65.4045 117.45V114.123H68.9499V117.45H65.4045ZM69.3324 117.45V114.123H72.6597V117.45H69.3324ZM73.034 121.378V117.833H76.5793V121.378H73.034ZM76.9618 125.079V121.752H80.2892V125.079H76.9618ZM80.6634 125.462H84.2088V129.007H80.6634V125.462ZM80.6634 129.39H84.2088V132.717H80.6634V129.39ZM80.6634 133.091H84.2088V136.637H80.6634V133.091ZM80.6634 137.019H84.2088V140.347H80.6634V137.019ZM80.6634 144.274V140.729H84.2088V144.274H80.6634ZM84.5913 144.274V140.729H87.9186V144.274H84.5913ZM88.2929 144.274V140.729H91.8382V144.274H88.2929ZM92.2207 144.274V140.729H95.548V144.274H92.2207ZM95.9223 144.274V140.729H99.4512V144.274H95.9223ZM99.8502 144.274V140.729H103.177V144.274H99.8502ZM103.552 144.274V140.729H107.097V144.274H103.552ZM107.48 144.274V140.729H110.807V144.274H107.48ZM111.181 144.274V140.729H114.727V144.274H111.181ZM115.109 144.274V140.729H118.436V144.274H115.109ZM122.364 144.274H118.819V140.729H122.364V144.274ZM122.364 140.347H118.819V137.019H122.364V140.347ZM122.364 136.645H118.819V133.116H122.364V136.645ZM126.066 132.717H122.738V129.39H126.066V132.717ZM126.066 129.016H122.738V125.47H126.066V129.016ZM126.066 125.088H122.738V121.76H126.066V125.088ZM126.066 121.386H122.738V117.841H126.066V121.386ZM126.448 117.458V114.131H129.994V117.458H126.448ZM130.376 117.458V114.131H133.703V117.458H130.376ZM134.078 117.458V114.131H137.623V117.458H134.078ZM138.006 117.458V114.131H141.333V117.458H138.006ZM145.261 117.458H141.715V114.131H145.261V117.458ZM145.261 113.757H141.715V110.207H145.261V113.757ZM145.261 106.501V109.833H141.715V106.506L145.261 106.501ZM141.333 106.119H138.006V102.578H141.333V106.119ZM141.333 98.8638V102.195H138.006V98.8638H141.333ZM137.631 98.4813H134.086V94.9401H137.631V98.4813ZM137.631 91.2262V94.5576H134.086V91.2262H137.631ZM133.703 90.8436H130.376V87.3024H133.703V90.8436ZM133.703 83.5885V86.9199H130.376V83.5885H133.703ZM130.002 83.5885V86.9199H126.473V83.5885H130.002ZM126.074 83.5885V86.9199H122.747V83.5885H126.074ZM122.372 79.6648V83.206H118.827V79.6648H122.372ZM118.445 79.6648V83.206H115.117V79.6648H118.445ZM114.743 79.6648V83.206H111.198V79.6648H114.743ZM110.815 79.6648V83.206H107.488V79.6648H110.815ZM107.114 79.6648V83.206H103.564V79.6648H107.114ZM103.186 79.6648V83.206H99.8625V79.6648H103.186ZM99.4841 79.6648V83.206H95.9388V79.6648H99.4841ZM95.5563 79.6648V83.206H92.2125V79.6648H95.5563ZM91.8547 79.6648V83.206H88.3093V79.6648H91.8547Z" fill="white"/>
</g>
<path d="M79.1332 121.925C79.1332 121.925 78.4176 114.546 77.229 112.284C76.0403 110.022 73.7741 105.979 73.4204 105.621" stroke="#263238" stroke-width="0.44" stroke-linecap="round" stroke-linejoin="round"/>
<path d="M75.2431 100.464C75.1141 99.7925 74.9424 99.1304 74.729 98.4812" stroke="#263238" stroke-width="0.44" stroke-linecap="round" stroke-linejoin="round"/>
<path d="M131.071 90.8025C131.071 90.8025 130.483 91.5428 129.698 92.6739" stroke="#263238" stroke-width="0.44" stroke-linecap="round" stroke-linejoin="round"/>
<path d="M127.95 118.157C127.95 118.157 125.038 116.101 125.519 114.011C126 111.922 130.134 103.914 130.212 103.264" stroke="#263238" stroke-width="0.44" stroke-linecap="round" stroke-linejoin="round"/>
<path d="M136.266 111.058C137.107 110.789 137.966 110.579 138.837 110.429" stroke="#263238" stroke-width="0.44" stroke-linecap="round" stroke-linejoin="round"/>
<path d="M130.558 115.171C130.558 115.171 131.442 113.152 134.716 111.659" stroke="#263238" stroke-width="0.44" stroke-linecap="round" stroke-linejoin="round"/>
<path d="M101.932 128.102L102.047 130.821" stroke="#263238" stroke-width="0.44" stroke-linecap="round" stroke-linejoin="round"/>
<path d="M100.899 103.972L101.887 126.992" stroke="#263238" stroke-width="0.44" stroke-linecap="round" stroke-linejoin="round"/>
<path d="M90.6746 76.3456C90.6746 76.3456 77.8218 83.1278 74.8482 84.5714C71.8745 86.0151 68.3045 87.1873 67.5889 89.0956C66.8732 91.004 60.926 108.492 59.9718 110.894C59.0176 113.296 61.1645 116.488 61.2838 117.199C61.4031 117.911 60.8067 119.7 61.0452 120.177C61.3838 120.759 61.5863 121.41 61.6375 122.081C61.6375 122.793 67.4696 118.984 71.1589 121.259C74.8482 123.533 77.464 127.802 77.8218 128.756C78.5772 131.23 79.018 133.789 79.1338 136.374C79.249 139.586 77.7025 141.963 78.776 143.514C79.8495 145.064 81.8689 145.652 81.8689 145.652C81.8689 145.652 108.882 147.437 114.834 146.475C120.785 145.512 124.47 145.167 125.067 143.263C125.663 141.358 125.54 138.858 125.659 138.381C125.778 137.904 126.852 128.744 127.304 125.631C127.757 122.517 131.006 120.284 131.351 119.918C131.697 119.552 134.448 118.725 138.018 118.491C141.588 118.256 145.87 121.106 145.87 121.106C145.87 121.106 147.893 121.226 148.49 118.014C149.086 114.801 148.013 111.704 146.939 108.254C145.866 104.803 141.23 96.5935 141.23 96.5935C141.23 96.5935 140.753 94.0928 137.899 88.1456C135.045 82.1983 133.971 81.8364 131.73 81.3593C129.488 80.8822 117.701 77.6124 114.237 76.3621C110.774 75.1118 104.469 74.5647 104.469 74.5647C104.469 74.5647 93.4097 74.3221 90.6746 76.3456Z" stroke="#263238" stroke-width="0.44" stroke-linecap="round" stroke-linejoin="round"/>
<path d="M94.0059 85.5298C94.0059 85.5298 95.9101 91.4771 97.0988 94.6892C98.2874 97.9014 100.8 101.476 100.8 101.476C100.8 101.476 105.086 90.6462 105.444 88.9805C105.802 87.3148 106.032 86.3524 106.032 86.3524L94.0059 85.5298Z" fill="#8C8C8C" stroke="#263238" stroke-width="0.44" stroke-linecap="round" stroke-linejoin="round"/>
<path d="M90.6743 82.0583C90.6743 82.0583 89.605 87.767 89.605 90.0291C89.605 92.2912 89.7243 94.3147 89.7243 94.3147C90.0867 94.3669 90.4564 94.3176 90.7926 94.1724C91.1287 94.0272 91.418 93.7917 91.6285 93.4922C92.4511 92.4228 94.2279 91.156 96.3172 90.1237C98.4066 89.0913 103.153 89.4327 103.153 89.4327C103.153 89.4327 106.855 92.0526 108.269 93.1343C109.684 94.216 111.009 94.5656 111.009 93.3729C111.009 92.1801 110.054 86.8292 109.343 83.7363C108.631 80.6434 108.031 79.4507 108.031 79.4507L91.2543 80.1663L90.6743 82.0583Z" fill="#FFC100" stroke="#263238" stroke-width="0.44" stroke-linecap="round" stroke-linejoin="round"/>
<path d="M126.901 122.241C126.901 122.241 127.193 120.415 127.415 119.543C127.637 118.671 127.925 117.137 128.069 116.771C128.213 116.405 133.391 112.761 139.223 113.637C145.055 114.513 150.451 120.415 150.599 121.657C150.748 122.899 148.703 127.707 148.337 129.237C147.971 130.767 146.075 131.644 145.047 131.862C144.174 131.974 143.289 131.951 142.423 131.792C142.423 131.792 144.027 123.566 140.745 121.147C137.463 118.729 132.655 121.365 130.759 122.019C128.863 122.673 127.193 122.957 126.901 122.241Z" fill="#FFC100" stroke="#263238" stroke-width="0.44" stroke-linecap="round" stroke-linejoin="round"/>
<path d="M93.8656 140.968L101.269 153.113C101.269 153.113 99.3522 155.926 94.8774 157.46C90.4025 158.994 83.7725 159.105 81.4487 158.612C79.1249 158.118 79.2771 157.333 81.7078 151.706C84.1386 146.08 90.4025 143.012 93.8656 140.968Z" fill="white" stroke="#263238" stroke-width="0.44" stroke-linecap="round" stroke-linejoin="round"/>
<path d="M98.0862 144.801C98.0862 144.801 96.1655 145.57 95.783 146.335C95.4005 147.1 92.9697 150.682 92.9697 150.682L107.928 140.581L107.163 139.561L98.0862 144.801Z" fill="#263238" stroke="#263238" stroke-width="0.44" stroke-linecap="round" stroke-linejoin="round"/>
<path d="M121.727 134.704C121.727 134.704 132.577 134.745 138.311 133.211C144.044 131.677 146.948 130.665 147.47 129.016C147.992 127.366 143.271 119.667 140.622 118.787C137.973 117.907 132.306 119.058 129.061 120.621C125.815 122.184 117.544 126.836 117.544 126.836L121.727 134.704Z" fill="white" stroke="#263238" stroke-width="0.44" stroke-linecap="round" stroke-linejoin="round"/>
<path d="M114.138 141.465C114.138 141.465 121.303 139.528 121.694 138.915C122.085 138.302 122.64 134.017 121.41 130.381C120.18 126.745 115.381 124.191 114.134 124.138C112.888 124.084 109.261 127.358 109.261 127.358L103.655 134.35C103.655 134.35 97.7403 137.361 97.074 138.434C96.4077 139.508 97.2056 143.982 97.2878 145.072C97.3701 146.162 97.3413 147.7 97.732 148.984C98.1228 150.267 99.0564 151.957 99.7186 151.978C100.381 151.998 100.989 152.389 101.594 151.69C102.199 150.991 101.898 149.913 101.643 149.42C101.388 148.926 101.528 145.989 101.713 145.537C101.898 145.085 101.438 146.73 102.067 147.339C102.696 147.947 103.358 148.922 103.897 149.247C104.436 149.572 104.831 149.029 106.854 148.729C108.878 148.428 109.61 148.445 110.457 148.017C111.305 147.589 111.691 147.849 112.321 146.557C112.881 145.269 113.268 143.912 113.472 142.522L113.509 142.008L114.138 141.465Z" fill="#DBDBDB" stroke="#263238" stroke-width="0.44" stroke-linecap="round" stroke-linejoin="round"/>
<path d="M110.45 141.967C110.45 141.967 110.4 145.187 110.474 146.133C110.515 146.766 110.515 147.401 110.474 148.034" stroke="#263238" stroke-width="0.44" stroke-linecap="round" stroke-linejoin="round"/>
<path d="M106.271 141.844C106.271 141.844 105.448 145.545 106.073 146.907C106.699 148.268 106.855 148.745 106.855 148.745" stroke="#263238" stroke-width="0.44" stroke-linecap="round" stroke-linejoin="round"/>
<path d="M102.186 140.988L101.729 145.553" stroke="#263238" stroke-width="0.44" stroke-linecap="round" stroke-linejoin="round"/>
<path d="M102.433 146.158C102.433 146.158 104.004 144.723 105.9 145.603" stroke="#263238" stroke-width="0.44" stroke-linecap="round" stroke-linejoin="round"/>
<path d="M107.628 145.253C107.628 145.253 109.52 144.155 110.478 145.253C110.478 145.253 111.687 144.797 112.337 146.573" stroke="#263238" stroke-width="0.44" stroke-linecap="round" stroke-linejoin="round"/>
<path d="M105.596 133.926C105.596 133.926 111.095 135.115 113.041 140.453" stroke="#263238" stroke-width="0.44" stroke-linecap="round" stroke-linejoin="round"/>
<path d="M98.7236 160.035C98.7236 160.035 99.3652 159.303 97.1895 157.831C96.6155 157.406 95.9207 157.178 95.207 157.178C94.4934 157.178 93.7986 157.406 93.2246 157.831C93.2246 157.831 92.5871 156.358 91.4355 156.21L90.2839 156.066C90.2839 156.066 90.1564 153.269 88.7498 152.973C87.3432 152.677 86.6933 154.298 86.6933 154.298C86.6933 154.298 84.7767 152.533 83.6251 152.973C83.2941 153.095 82.9953 153.292 82.7516 153.547C82.5078 153.802 82.3255 154.109 82.2185 154.446C82.2185 154.446 80.6844 152.241 79.6603 152.829C78.6361 153.417 78.3811 155.182 78.3811 155.182C78.3811 155.182 77.102 154.446 76.2095 155.478C75.317 156.51 75.4404 157.39 75.4404 157.39C75.4404 157.39 74.1613 155.77 73.0138 156.946C72.6873 157.245 72.4274 157.61 72.2509 158.016C72.0745 158.422 71.9855 158.86 71.9897 159.303C71.9897 159.303 70.7106 158.859 70.5831 159.595L70.4556 160.331H100.373L98.7236 160.035Z" fill="#9E9E9E" stroke="#263238" stroke-width="0.44" stroke-linecap="round" stroke-linejoin="round"/>
<path d="M68.1191 116.685C68.1191 116.685 58.5196 119.021 58.0014 120.448C57.4832 121.876 58.388 128.23 58.7787 129.53C59.1695 130.829 61.2465 131.348 63.1878 131.997C65.1291 132.647 71.2326 134.054 73.178 134.202C75.1234 134.35 77.2004 134.593 78.1135 133.038C79.0266 131.483 78.8909 129.925 79.4091 127.07C79.9273 124.216 82.0043 124.734 77.9819 121.102C73.9595 117.471 69.8054 116.685 68.1191 116.685Z" fill="#FFC100" stroke="#263238" stroke-width="0.44" stroke-linecap="round" stroke-linejoin="round"/>
<path d="M60.9834 126.416L64.6151 142.374L74.737 143.02L76.7934 130.307C76.7934 130.307 75.6253 126.157 70.3074 124.471C64.9894 122.784 60.9834 126.416 60.9834 126.416Z" fill="white" stroke="#263238" stroke-width="0.44" stroke-linecap="round" stroke-linejoin="round"/>
<path d="M76.682 149.51C76.682 149.51 76.4229 139.52 76.5504 138.743C76.6779 137.965 75.6414 135.625 69.5585 135.625C63.4755 135.625 59.4407 140.038 59.6875 141.075C59.9343 142.111 61.6329 148.729 61.6329 148.729C61.4634 149.758 61.3768 150.799 61.3738 151.842C61.3738 153.528 59.9466 154.828 60.4648 156.778C60.983 158.727 63.4467 162.746 64.989 162.096C66.5314 161.446 67.066 161.318 66.5437 159.373C66.0214 157.428 65.6389 156 65.6389 156C65.6389 156 67.1935 161.059 67.9709 162.355C68.2496 162.851 68.6704 163.252 69.1792 163.506C69.688 163.76 70.2613 163.857 70.8252 163.782L71.6067 163.654C72.0113 163.954 72.4851 164.147 72.9842 164.215C73.4832 164.282 73.9913 164.223 74.461 164.041C76.0157 163.395 76.2748 162.355 76.2748 162.355C76.2748 162.355 77.4429 163.005 77.9611 160.409C78.4794 157.814 79.1292 154.832 78.3724 152.496C77.6156 150.16 76.682 149.51 76.682 149.51Z" fill="#DBDBDB" stroke="#263238" stroke-width="0.44" stroke-linecap="round" stroke-linejoin="round"/>
<path d="M61.6328 148.729C61.6328 148.729 62.0194 146.261 67.469 145.747C72.9186 145.233 75.1232 147.561 75.1232 147.561" stroke="#263238" stroke-width="0.44" stroke-linecap="round" stroke-linejoin="round"/>
<path d="M65.0059 152.883C65.0059 152.883 62.1515 151.455 60.856 153.919" stroke="#263238" stroke-width="0.44" stroke-linecap="round" stroke-linejoin="round"/>
<path d="M71.6236 163.65C71.6236 163.65 70.6118 156.679 70.291 155.568L71.6236 163.65Z" fill="white"/>
<path d="M71.6236 163.65C71.6236 163.65 70.6118 156.679 70.291 155.568" stroke="#263238" stroke-width="0.44" stroke-linecap="round" stroke-linejoin="round"/>
<path d="M76.2917 162.35C76.2917 162.35 75.6953 156.123 75.6172 154.774L76.2917 162.35Z" fill="white"/>
<path d="M76.2917 162.35C76.2917 162.35 75.6953 156.123 75.6172 154.774" stroke="#263238" stroke-width="0.44" stroke-linecap="round" stroke-linejoin="round"/>
<path d="M85.147 70.4478C85.147 70.4478 85.4472 74.0465 86.6482 75.0953C87.8492 76.1441 88.0178 76.8927 88.0178 76.8927V70.456L85.147 70.4478Z" fill="white" stroke="#263238" stroke-width="0.44" stroke-linecap="round" stroke-linejoin="round"/>
<path d="M87.672 72.7797C87.672 72.7797 88.7249 80.9273 90.3207 83.3128C91.9165 85.6983 94.2855 90.4693 95.9266 91.0163C97.5676 91.5633 101.047 92.8794 104.93 90.1937C108.812 87.508 110.038 80.6847 110.647 77.8961L111.255 75.1117C111.255 75.1117 114.78 74.3672 115.265 70.6533C115.751 66.9393 114.92 66.7913 114.92 66.7913C114.92 66.7913 113.172 68.2555 103.153 68.4117C93.1339 68.568 90.2467 68.7038 88.7578 68.5105C87.9363 68.3873 87.099 68.4208 86.29 68.6092L87.672 72.7797Z" fill="white" stroke="#263238" stroke-width="0.44" stroke-linecap="round" stroke-linejoin="round"/>
<path d="M100.989 81.3015C100.546 81.8795 99.9851 82.3574 99.3442 82.704C98.3529 83.1975 96.8764 82.8685 96.5392 82.2063C96.2019 81.5441 96.8682 75.856 96.8682 75.856L95.7988 74.0381" fill="white"/>
<path d="M100.989 81.3015C100.546 81.8795 99.9851 82.3574 99.3442 82.704C98.3529 83.1975 96.8764 82.8685 96.5392 82.2063C96.2019 81.5441 96.8682 75.856 96.8682 75.856L95.7988 74.0381" stroke="#263238" stroke-width="0.44" stroke-linecap="round" stroke-linejoin="round"/>
<path d="M94.306 75.6588C94.306 76.3168 93.977 76.8515 93.5657 76.8515C93.1544 76.8515 92.8213 76.3168 92.8213 75.6588C92.8213 75.0007 93.1544 74.4619 93.5657 74.4619C93.977 74.4619 94.306 74.9884 94.306 75.6588Z" fill="#263238" stroke="#263238" stroke-width="0.44" stroke-linecap="round" stroke-linejoin="round"/>
<path d="M103.794 75.9796C103.794 76.6376 103.465 77.1764 103.054 77.1764C102.643 77.1764 102.31 76.6376 102.31 75.9796C102.31 75.3215 102.643 74.7827 103.054 74.7827C103.465 74.7827 103.794 75.3174 103.794 75.9796Z" fill="#263238" stroke="#263238" stroke-width="0.44" stroke-linecap="round" stroke-linejoin="round"/>
<path d="M94.5571 83.9421C94.5571 83.9421 95.5442 85.4269 98.4315 85.6737C100.284 85.7743 102.125 85.3142 103.712 84.3534" stroke="#263238" stroke-width="0.44" stroke-linecap="round" stroke-linejoin="round"/>
<path d="M101.816 77.999C101.816 77.999 103.461 78.9902 104.695 78.6612" stroke="#263238" stroke-width="0.44" stroke-linecap="round" stroke-linejoin="round"/>
<path d="M95.133 76.8433C95.133 76.8433 93.9772 78.0771 92.7393 78.2458" stroke="#263238" stroke-width="0.44" stroke-linecap="round" stroke-linejoin="round"/>
<path d="M95.5521 47.0247C95.5521 47.0247 91.0279 48.3367 88.8562 51.3432C86.6846 54.3498 85.4384 60.441 85.4384 60.441C85.4384 60.441 84.1346 61.0086 84.0935 61.8024C84.0596 62.3136 84.0678 62.8267 84.1182 63.3365C84.1511 63.7108 82.9666 65.1297 83.2956 65.8865C83.6246 66.6433 83.419 68.5434 84.1182 70.168C84.8174 71.7926 85.825 72.9072 88.7164 73.3226C91.6078 73.738 102.12 74.1946 104.461 73.9478C106.801 73.701 109.717 72.7139 110.877 71.8009C112.037 70.8878 116.836 66.2402 116.581 65.0639C116.326 63.8876 116.351 62.4563 115.849 61.9011C115.347 61.3458 114.755 60.5726 114.755 60.5726C114.755 60.5726 113.435 53.0378 110.967 50.6317C109.572 49.2387 107.975 48.0643 106.229 47.1481C105.577 46.6315 104.774 46.3426 103.942 46.3255C102.667 46.3625 101.857 45.6839 100.652 45.832L99.4182 45.98C99.4182 45.98 96.2595 45.6839 95.5521 47.0247Z" fill="white" stroke="#263238" stroke-width="0.44" stroke-linecap="round" stroke-linejoin="round"/>
<path d="M85.4385 60.4409V66.635C85.4385 66.635 89.4403 69.0204 98.0116 69.1562C106.583 69.2919 110.457 68.1238 111.584 67.511C112.711 66.8982 114.052 66.0509 114.052 66.0509C114.052 66.0509 113.748 63.8629 113.912 62.7606C114.063 61.9893 114.352 61.252 114.768 60.5849" stroke="#263238" stroke-width="0.44" stroke-linecap="round" stroke-linejoin="round"/>
<path d="M89.1278 67.7373C89.1278 67.7373 88.9839 64.4469 89.4898 62.9375C89.9956 61.4281 93.031 61.0085 94.0921 59.0014C95.1532 56.9943 95.3054 51.1211 95.4823 49.7556" stroke="#263238" stroke-width="0.44" stroke-linecap="round" stroke-linejoin="round"/>
<path d="M107.447 67.7578C107.447 67.7578 108.311 64.414 106.213 62.2383C104.116 60.0626 101.414 61.8764 100.044 57.8334C98.6743 53.7904 99.7437 48.5506 100.867 46.6504" stroke="#263238" stroke-width="0.44" stroke-linecap="round" stroke-linejoin="round"/>
<path d="M101.965 158.892C101.817 159.462 101.789 160.058 101.883 160.64L84.5513 160.331L55.1605 169.117C55.4402 170.56 53.9719 169.219 54.2186 170.56L54.4613 171.905L41.2671 179.497V181.097V189.883V191.478V200.28H193.132V150.103H101.965V158.892Z" fill="#9E9E9E" stroke="#263238" stroke-width="0.44" stroke-linecap="round" stroke-linejoin="round"/>
<path d="M131.356 150.107H101.965V158.892H131.356V150.107Z" fill="white" stroke="#263238" stroke-width="0.44" stroke-linecap="round" stroke-linejoin="round"/>
<path d="M162.343 150.107H132.952V158.892H162.343V150.107Z" fill="white" stroke="#263238" stroke-width="0.44" stroke-linecap="round" stroke-linejoin="round"/>
<path d="M84.551 160.331H55.1602V169.116H84.551V160.331Z" fill="white" stroke="#263238" stroke-width="0.44" stroke-linecap="round" stroke-linejoin="round"/>
<path d="M115.542 160.331H86.1509V169.116H115.542V160.331Z" fill="white" stroke="#263238" stroke-width="0.44" stroke-linecap="round" stroke-linejoin="round"/>
<path d="M146.689 160.331H117.298V169.116H146.689V160.331Z" fill="white" stroke="#263238" stroke-width="0.44" stroke-linecap="round" stroke-linejoin="round"/>
<path d="M177.676 160.331H148.285V169.116H177.676V160.331Z" fill="white" stroke="#263238" stroke-width="0.44" stroke-linecap="round" stroke-linejoin="round"/>
<path d="M193.136 160.331H178.926V169.116H193.136V160.331Z" fill="white" stroke="#263238" stroke-width="0.44" stroke-linecap="round" stroke-linejoin="round"/>
<path d="M70.6579 170.712H41.2671V179.497H70.6579V170.712Z" fill="white" stroke="#263238" stroke-width="0.44" stroke-linecap="round" stroke-linejoin="round"/>
<path d="M101.644 170.712H72.2534V179.497H101.644V170.712Z" fill="white" stroke="#263238" stroke-width="0.44" stroke-linecap="round" stroke-linejoin="round"/>
<path d="M132.791 170.712H103.4V179.497H132.791V170.712Z" fill="white" stroke="#263238" stroke-width="0.44" stroke-linecap="round" stroke-linejoin="round"/>
<path d="M163.781 170.712H134.391V179.497H163.781V170.712Z" fill="white" stroke="#263238" stroke-width="0.44" stroke-linecap="round" stroke-linejoin="round"/>
<path d="M84.551 181.097H55.1602V189.883H84.551V181.097Z" fill="white" stroke="#263238" stroke-width="0.44" stroke-linecap="round" stroke-linejoin="round"/>
<path d="M53.8067 181.097H41.25V189.883H53.8067V181.097Z" fill="white" stroke="#263238" stroke-width="0.44" stroke-linecap="round" stroke-linejoin="round"/>
<path d="M115.542 181.097H86.1509V189.883H115.542V181.097Z" fill="white" stroke="#263238" stroke-width="0.44" stroke-linecap="round" stroke-linejoin="round"/>
<path d="M146.689 181.097H117.298V189.883H146.689V181.097Z" fill="white" stroke="#263238" stroke-width="0.44" stroke-linecap="round" stroke-linejoin="round"/>
<path d="M177.676 181.097H148.285V189.883H177.676V181.097Z" fill="white" stroke="#263238" stroke-width="0.44" stroke-linecap="round" stroke-linejoin="round"/>
<path d="M193.136 181.097H178.926V189.883H193.136V181.097Z" fill="white" stroke="#263238" stroke-width="0.44" stroke-linecap="round" stroke-linejoin="round"/>
<path d="M70.6579 191.478H41.2671V200.263H70.6579V191.478Z" fill="white" stroke="#263238" stroke-width="0.44" stroke-linecap="round" stroke-linejoin="round"/>
<path d="M101.644 191.478H72.2534V200.263H101.644V191.478Z" fill="white" stroke="#263238" stroke-width="0.44" stroke-linecap="round" stroke-linejoin="round"/>
<path d="M132.791 191.478H103.4V200.263H132.791V191.478Z" fill="white" stroke="#263238" stroke-width="0.44" stroke-linecap="round" stroke-linejoin="round"/>
<path d="M163.781 191.478H134.391V200.263H163.781V191.478Z" fill="white" stroke="#263238" stroke-width="0.44" stroke-linecap="round" stroke-linejoin="round"/>
<path d="M193.136 150.107H163.807V158.892H193.136V150.107Z" fill="white" stroke="#263238" stroke-width="0.44" stroke-linecap="round" stroke-linejoin="round"/>
<path d="M193.132 170.712H165.243V179.497H193.132V170.712Z" fill="white" stroke="#263238" stroke-width="0.44" stroke-linecap="round" stroke-linejoin="round"/>
<path d="M193.132 191.478H165.243V200.263H193.132V191.478Z" fill="white" stroke="#263238" stroke-width="0.44" stroke-linecap="round" stroke-linejoin="round"/>
</g>
<defs>
<clipPath id="clip0_171_18925">
<rect width="210" height="210" fill="white"/>
</clipPath>
</defs>
</svg>
