<svg width="121" height="120" viewBox="0 0 121 120" fill="none" xmlns="http://www.w3.org/2000/svg">
<g clip-path="url(#clip0_159_12779)">
<path opacity="0.5" d="M120.5 108.857C120.5 108.891 82.7844 108.785 39.7085 108.785C-3.36737 108.785 0.942223 108.891 0.942223 108.857C0.942223 108.823 -3.38359 108.659 39.7085 108.659C82.8007 108.659 120.5 108.82 120.5 108.857Z" fill="#263238"/>
<path d="M105.006 76.2169C105.006 76.2169 108.884 50.6605 98.1313 35.3228C79.4705 8.70644 47.552 12.0555 33.4529 19.4611C19.3539 26.8667 17.5912 46.6016 19.8827 56.1247C22.1742 65.6479 15.476 70.7526 10.5405 79.3921C5.60502 88.0315 8.07276 98.248 12.832 103.712C17.5912 109.177 41.7399 118.869 73.468 110.058C105.196 101.247 105.006 76.2169 105.006 76.2169Z" fill="#FFD000"/>
<path opacity="0.7" d="M105.006 76.2169C105.006 76.2169 108.884 50.6605 98.1313 35.3228C79.4705 8.70644 47.552 12.0555 33.4529 19.4611C19.3539 26.8667 17.5912 46.6016 19.8827 56.1247C22.1742 65.6479 15.476 70.7526 10.5405 79.3921C5.60502 88.0315 8.07276 98.248 12.832 103.712C17.5912 109.177 41.7399 118.869 73.468 110.058C105.196 101.247 105.006 76.2169 105.006 76.2169Z" fill="white"/>
<g opacity="0.3">
<path d="M50.5158 53.6338H9.77686V109.097H50.5158V53.6338Z" stroke="black" stroke-width="0.44" stroke-linecap="round" stroke-linejoin="round"/>
<path d="M13.7867 55.791H10.9194V59.0907H13.7867V55.791Z" stroke="black" stroke-width="0.44" stroke-linecap="round" stroke-linejoin="round"/>
<path d="M18.1554 55.791H15.2881V59.0907H18.1554V55.791Z" stroke="black" stroke-width="0.44" stroke-linecap="round" stroke-linejoin="round"/>
<path d="M22.5245 55.791H19.6572V59.0907H22.5245V55.791Z" stroke="black" stroke-width="0.44" stroke-linecap="round" stroke-linejoin="round"/>
<path d="M26.8937 55.791H24.0264V59.0907H26.8937V55.791Z" stroke="black" stroke-width="0.44" stroke-linecap="round" stroke-linejoin="round"/>
<path d="M31.2628 55.791H28.3955V59.0907H31.2628V55.791Z" stroke="black" stroke-width="0.44" stroke-linecap="round" stroke-linejoin="round"/>
<path d="M35.6319 55.791H32.7646V59.0907H35.6319V55.791Z" stroke="black" stroke-width="0.44" stroke-linecap="round" stroke-linejoin="round"/>
<path d="M40.0006 55.791H37.1333V59.0907H40.0006V55.791Z" stroke="black" stroke-width="0.44" stroke-linecap="round" stroke-linejoin="round"/>
<path d="M44.3697 55.791H41.5024V59.0907H44.3697V55.791Z" stroke="black" stroke-width="0.44" stroke-linecap="round" stroke-linejoin="round"/>
<path d="M48.7389 55.791H45.8716V59.0907H48.7389V55.791Z" stroke="black" stroke-width="0.44" stroke-linecap="round" stroke-linejoin="round"/>
<path d="M13.7867 61.3755H10.9194V64.6752H13.7867V61.3755Z" stroke="black" stroke-width="0.44" stroke-linecap="round" stroke-linejoin="round"/>
<path d="M18.1554 61.3755H15.2881V64.6752H18.1554V61.3755Z" stroke="black" stroke-width="0.44" stroke-linecap="round" stroke-linejoin="round"/>
<path d="M22.5245 61.3755H19.6572V64.6752H22.5245V61.3755Z" stroke="black" stroke-width="0.44" stroke-linecap="round" stroke-linejoin="round"/>
<path d="M26.8937 61.3755H24.0264V64.6752H26.8937V61.3755Z" stroke="black" stroke-width="0.44" stroke-linecap="round" stroke-linejoin="round"/>
<path d="M31.2628 61.3755H28.3955V64.6752H31.2628V61.3755Z" stroke="black" stroke-width="0.44" stroke-linecap="round" stroke-linejoin="round"/>
<path d="M35.6319 61.3755H32.7646V64.6752H35.6319V61.3755Z" stroke="black" stroke-width="0.44" stroke-linecap="round" stroke-linejoin="round"/>
<path d="M40.0006 61.3755H37.1333V64.6752H40.0006V61.3755Z" stroke="black" stroke-width="0.44" stroke-linecap="round" stroke-linejoin="round"/>
<path d="M44.3697 61.3755H41.5024V64.6752H44.3697V61.3755Z" stroke="black" stroke-width="0.44" stroke-linecap="round" stroke-linejoin="round"/>
<path d="M48.7389 61.3755H45.8716V64.6752H48.7389V61.3755Z" stroke="black" stroke-width="0.44" stroke-linecap="round" stroke-linejoin="round"/>
<path d="M13.7867 66.9595H10.9194V70.2592H13.7867V66.9595Z" stroke="black" stroke-width="0.44" stroke-linecap="round" stroke-linejoin="round"/>
<path d="M18.1554 66.9595H15.2881V70.2592H18.1554V66.9595Z" stroke="black" stroke-width="0.44" stroke-linecap="round" stroke-linejoin="round"/>
<path d="M22.5245 66.9595H19.6572V70.2592H22.5245V66.9595Z" stroke="black" stroke-width="0.44" stroke-linecap="round" stroke-linejoin="round"/>
<path d="M26.8937 66.9595H24.0264V70.2592H26.8937V66.9595Z" stroke="black" stroke-width="0.44" stroke-linecap="round" stroke-linejoin="round"/>
<path d="M31.2628 66.9595H28.3955V70.2592H31.2628V66.9595Z" stroke="black" stroke-width="0.44" stroke-linecap="round" stroke-linejoin="round"/>
<path d="M35.6319 66.9595H32.7646V70.2592H35.6319V66.9595Z" stroke="black" stroke-width="0.44" stroke-linecap="round" stroke-linejoin="round"/>
<path d="M40.0006 66.9595H37.1333V70.2592H40.0006V66.9595Z" stroke="black" stroke-width="0.44" stroke-linecap="round" stroke-linejoin="round"/>
<path d="M44.3697 66.9595H41.5024V70.2592H44.3697V66.9595Z" stroke="black" stroke-width="0.44" stroke-linecap="round" stroke-linejoin="round"/>
<path d="M48.7389 66.9595H45.8716V70.2592H48.7389V66.9595Z" stroke="black" stroke-width="0.44" stroke-linecap="round" stroke-linejoin="round"/>
<path d="M13.7867 72.5435H10.9194V75.8432H13.7867V72.5435Z" stroke="black" stroke-width="0.44" stroke-linecap="round" stroke-linejoin="round"/>
<path d="M18.1554 72.5435H15.2881V75.8432H18.1554V72.5435Z" stroke="black" stroke-width="0.44" stroke-linecap="round" stroke-linejoin="round"/>
<path d="M22.5245 72.5435H19.6572V75.8432H22.5245V72.5435Z" stroke="black" stroke-width="0.44" stroke-linecap="round" stroke-linejoin="round"/>
<path d="M26.8937 72.5435H24.0264V75.8432H26.8937V72.5435Z" stroke="black" stroke-width="0.44" stroke-linecap="round" stroke-linejoin="round"/>
<path d="M31.2628 72.5435H28.3955V75.8432H31.2628V72.5435Z" stroke="black" stroke-width="0.44" stroke-linecap="round" stroke-linejoin="round"/>
<path d="M35.6319 72.5435H32.7646V75.8432H35.6319V72.5435Z" stroke="black" stroke-width="0.44" stroke-linecap="round" stroke-linejoin="round"/>
<path d="M40.0006 72.5435H37.1333V75.8432H40.0006V72.5435Z" stroke="black" stroke-width="0.44" stroke-linecap="round" stroke-linejoin="round"/>
<path d="M44.3697 72.5435H41.5024V75.8432H44.3697V72.5435Z" stroke="black" stroke-width="0.44" stroke-linecap="round" stroke-linejoin="round"/>
<path d="M48.7389 72.5435H45.8716V75.8432H48.7389V72.5435Z" stroke="black" stroke-width="0.44" stroke-linecap="round" stroke-linejoin="round"/>
<path d="M13.7867 78.1279H10.9194V81.4277H13.7867V78.1279Z" stroke="black" stroke-width="0.44" stroke-linecap="round" stroke-linejoin="round"/>
<path d="M18.1554 78.1279H15.2881V81.4277H18.1554V78.1279Z" stroke="black" stroke-width="0.44" stroke-linecap="round" stroke-linejoin="round"/>
<path d="M22.5245 78.1279H19.6572V81.4277H22.5245V78.1279Z" stroke="black" stroke-width="0.44" stroke-linecap="round" stroke-linejoin="round"/>
<path d="M26.8937 78.1279H24.0264V81.4277H26.8937V78.1279Z" stroke="black" stroke-width="0.44" stroke-linecap="round" stroke-linejoin="round"/>
<path d="M31.2628 78.1279H28.3955V81.4277H31.2628V78.1279Z" stroke="black" stroke-width="0.44" stroke-linecap="round" stroke-linejoin="round"/>
<path d="M35.6319 78.1279H32.7646V81.4277H35.6319V78.1279Z" stroke="black" stroke-width="0.44" stroke-linecap="round" stroke-linejoin="round"/>
<path d="M40.0006 78.1279H37.1333V81.4277H40.0006V78.1279Z" stroke="black" stroke-width="0.44" stroke-linecap="round" stroke-linejoin="round"/>
<path d="M44.3697 78.1279H41.5024V81.4277H44.3697V78.1279Z" stroke="black" stroke-width="0.44" stroke-linecap="round" stroke-linejoin="round"/>
<path d="M48.7389 78.1279H45.8716V81.4277H48.7389V78.1279Z" stroke="black" stroke-width="0.44" stroke-linecap="round" stroke-linejoin="round"/>
<path d="M13.7867 83.7119H10.9194V87.0116H13.7867V83.7119Z" stroke="black" stroke-width="0.44" stroke-linecap="round" stroke-linejoin="round"/>
<path d="M18.1554 83.7119H15.2881V87.0116H18.1554V83.7119Z" stroke="black" stroke-width="0.44" stroke-linecap="round" stroke-linejoin="round"/>
<path d="M22.5245 83.7119H19.6572V87.0116H22.5245V83.7119Z" stroke="black" stroke-width="0.44" stroke-linecap="round" stroke-linejoin="round"/>
<path d="M26.8937 83.7119H24.0264V87.0116H26.8937V83.7119Z" stroke="black" stroke-width="0.44" stroke-linecap="round" stroke-linejoin="round"/>
<path d="M31.2628 83.7119H28.3955V87.0116H31.2628V83.7119Z" stroke="black" stroke-width="0.44" stroke-linecap="round" stroke-linejoin="round"/>
<path d="M35.6319 83.7119H32.7646V87.0116H35.6319V83.7119Z" stroke="black" stroke-width="0.44" stroke-linecap="round" stroke-linejoin="round"/>
<path d="M40.0006 83.7119H37.1333V87.0116H40.0006V83.7119Z" stroke="black" stroke-width="0.44" stroke-linecap="round" stroke-linejoin="round"/>
<path d="M44.3697 83.7119H41.5024V87.0116H44.3697V83.7119Z" stroke="black" stroke-width="0.44" stroke-linecap="round" stroke-linejoin="round"/>
<path d="M48.7389 83.7119H45.8716V87.0116H48.7389V83.7119Z" stroke="black" stroke-width="0.44" stroke-linecap="round" stroke-linejoin="round"/>
<path d="M13.7867 89.2959H10.9194V92.5956H13.7867V89.2959Z" stroke="black" stroke-width="0.44" stroke-linecap="round" stroke-linejoin="round"/>
<path d="M18.1554 89.2959H15.2881V92.5956H18.1554V89.2959Z" stroke="black" stroke-width="0.44" stroke-linecap="round" stroke-linejoin="round"/>
<path d="M22.5245 89.2959H19.6572V92.5956H22.5245V89.2959Z" stroke="black" stroke-width="0.44" stroke-linecap="round" stroke-linejoin="round"/>
<path d="M26.8937 89.2959H24.0264V92.5956H26.8937V89.2959Z" stroke="black" stroke-width="0.44" stroke-linecap="round" stroke-linejoin="round"/>
<path d="M31.2628 89.2959H28.3955V92.5956H31.2628V89.2959Z" stroke="black" stroke-width="0.44" stroke-linecap="round" stroke-linejoin="round"/>
<path d="M35.6319 89.2959H32.7646V92.5956H35.6319V89.2959Z" stroke="black" stroke-width="0.44" stroke-linecap="round" stroke-linejoin="round"/>
<path d="M40.0006 89.2959H37.1333V92.5956H40.0006V89.2959Z" stroke="black" stroke-width="0.44" stroke-linecap="round" stroke-linejoin="round"/>
<path d="M44.3697 89.2959H41.5024V92.5956H44.3697V89.2959Z" stroke="black" stroke-width="0.44" stroke-linecap="round" stroke-linejoin="round"/>
<path d="M48.7389 89.2959H45.8716V92.5956H48.7389V89.2959Z" stroke="black" stroke-width="0.44" stroke-linecap="round" stroke-linejoin="round"/>
<path d="M13.7867 94.8804H10.9194V98.1801H13.7867V94.8804Z" stroke="black" stroke-width="0.44" stroke-linecap="round" stroke-linejoin="round"/>
<path d="M18.1554 94.8804H15.2881V98.1801H18.1554V94.8804Z" stroke="black" stroke-width="0.44" stroke-linecap="round" stroke-linejoin="round"/>
<path d="M22.5245 94.8804H19.6572V98.1801H22.5245V94.8804Z" stroke="black" stroke-width="0.44" stroke-linecap="round" stroke-linejoin="round"/>
<path d="M26.8937 94.8804H24.0264V98.1801H26.8937V94.8804Z" stroke="black" stroke-width="0.44" stroke-linecap="round" stroke-linejoin="round"/>
<path d="M31.2628 94.8804H28.3955V98.1801H31.2628V94.8804Z" stroke="black" stroke-width="0.44" stroke-linecap="round" stroke-linejoin="round"/>
<path d="M35.6319 94.8804H32.7646V98.1801H35.6319V94.8804Z" stroke="black" stroke-width="0.44" stroke-linecap="round" stroke-linejoin="round"/>
<path d="M40.0006 94.8804H37.1333V98.1801H40.0006V94.8804Z" stroke="black" stroke-width="0.44" stroke-linecap="round" stroke-linejoin="round"/>
<path d="M44.3697 94.8804H41.5024V98.1801H44.3697V94.8804Z" stroke="black" stroke-width="0.44" stroke-linecap="round" stroke-linejoin="round"/>
<path d="M48.7389 94.8804H45.8716V98.1801H48.7389V94.8804Z" stroke="black" stroke-width="0.44" stroke-linecap="round" stroke-linejoin="round"/>
<path d="M13.7867 100.464H10.9194V103.764H13.7867V100.464Z" stroke="black" stroke-width="0.44" stroke-linecap="round" stroke-linejoin="round"/>
<path d="M18.1554 100.464H15.2881V103.764H18.1554V100.464Z" stroke="black" stroke-width="0.44" stroke-linecap="round" stroke-linejoin="round"/>
<path d="M22.5245 100.464H19.6572V103.764H22.5245V100.464Z" stroke="black" stroke-width="0.44" stroke-linecap="round" stroke-linejoin="round"/>
<path d="M26.8937 100.464H24.0264V103.764H26.8937V100.464Z" stroke="black" stroke-width="0.44" stroke-linecap="round" stroke-linejoin="round"/>
<path d="M31.2628 100.464H28.3955V103.764H31.2628V100.464Z" stroke="black" stroke-width="0.44" stroke-linecap="round" stroke-linejoin="round"/>
<path d="M35.6319 100.464H32.7646V103.764H35.6319V100.464Z" stroke="black" stroke-width="0.44" stroke-linecap="round" stroke-linejoin="round"/>
<path d="M40.0006 100.464H37.1333V103.764H40.0006V100.464Z" stroke="black" stroke-width="0.44" stroke-linecap="round" stroke-linejoin="round"/>
<path d="M44.3697 100.464H41.5024V103.764H44.3697V100.464Z" stroke="black" stroke-width="0.44" stroke-linecap="round" stroke-linejoin="round"/>
<path d="M48.7389 100.464H45.8716V103.764H48.7389V100.464Z" stroke="black" stroke-width="0.44" stroke-linecap="round" stroke-linejoin="round"/>
<path d="M36.4731 50.1294H13.8027V53.6007H36.4731V50.1294Z" stroke="black" stroke-width="0.44" stroke-linecap="round" stroke-linejoin="round"/>
<path d="M38.3695 48.6582H37.7373V53.7089H38.3695V48.6582Z" stroke="black" stroke-width="0.44" stroke-linecap="round" stroke-linejoin="round"/>
</g>
<g opacity="0.3">
<path d="M34.2593 55.0243V23.9824H77.2262V44.8313H109.601V112.377" stroke="black" stroke-width="0.44" stroke-linecap="round" stroke-linejoin="round"/>
<path d="M77.0264 46.8857V100.676" stroke="black" stroke-width="0.44" stroke-linecap="round" stroke-linejoin="round"/>
<path d="M85.793 46.8857V100.676" stroke="black" stroke-width="0.44" stroke-linecap="round" stroke-linejoin="round"/>
<path d="M87.9854 46.8857V100.676" stroke="black" stroke-width="0.44" stroke-linecap="round" stroke-linejoin="round"/>
<path d="M99.4526 46.8857V100.676" stroke="black" stroke-width="0.44" stroke-linecap="round" stroke-linejoin="round"/>
<path d="M101.643 46.8857V100.676" stroke="black" stroke-width="0.44" stroke-linecap="round" stroke-linejoin="round"/>
<path d="M69.4375 25.978V101.35" stroke="black" stroke-width="0.44" stroke-linecap="round" stroke-linejoin="round"/>
<path d="M69.6064 31.0356H75.5079" stroke="black" stroke-width="0.44" stroke-linecap="round" stroke-linejoin="round"/>
<path d="M69.6064 40.1406H75.5079" stroke="black" stroke-width="0.44" stroke-linecap="round" stroke-linejoin="round"/>
<path d="M69.6064 49.2451H75.5079" stroke="black" stroke-width="0.44" stroke-linecap="round" stroke-linejoin="round"/>
<path d="M69.6064 58.3525H75.5079" stroke="black" stroke-width="0.44" stroke-linecap="round" stroke-linejoin="round"/>
<path d="M69.6064 67.457H75.5079" stroke="black" stroke-width="0.44" stroke-linecap="round" stroke-linejoin="round"/>
<path d="M69.6064 76.562H75.5079" stroke="black" stroke-width="0.44" stroke-linecap="round" stroke-linejoin="round"/>
<path d="M69.6064 85.667H75.5079" stroke="black" stroke-width="0.44" stroke-linecap="round" stroke-linejoin="round"/>
<path d="M41.6155 30.3613H35.8833V32.2157H41.6155V30.3613Z" stroke="black" stroke-width="0.44" stroke-linecap="round" stroke-linejoin="round"/>
<path d="M49.7098 30.3613H43.9775V32.2157H49.7098V30.3613Z" stroke="black" stroke-width="0.44" stroke-linecap="round" stroke-linejoin="round"/>
<path d="M57.8016 30.3613H52.0693V32.2157H57.8016V30.3613Z" stroke="black" stroke-width="0.44" stroke-linecap="round" stroke-linejoin="round"/>
<path d="M65.8958 30.3613H60.1636V32.2157H65.8958V30.3613Z" stroke="black" stroke-width="0.44" stroke-linecap="round" stroke-linejoin="round"/>
<path d="M41.6155 34.998H35.8833V36.8524H41.6155V34.998Z" stroke="black" stroke-width="0.44" stroke-linecap="round" stroke-linejoin="round"/>
<path d="M49.7098 34.998H43.9775V36.8524H49.7098V34.998Z" stroke="black" stroke-width="0.44" stroke-linecap="round" stroke-linejoin="round"/>
<path d="M57.8016 34.998H52.0693V36.8524H57.8016V34.998Z" stroke="black" stroke-width="0.44" stroke-linecap="round" stroke-linejoin="round"/>
<path d="M65.8958 34.998H60.1636V36.8524H65.8958V34.998Z" stroke="black" stroke-width="0.44" stroke-linecap="round" stroke-linejoin="round"/>
<path d="M41.6155 39.6353H35.8833V41.4896H41.6155V39.6353Z" stroke="black" stroke-width="0.44" stroke-linecap="round" stroke-linejoin="round"/>
<path d="M49.7098 39.6353H43.9775V41.4896H49.7098V39.6353Z" stroke="black" stroke-width="0.44" stroke-linecap="round" stroke-linejoin="round"/>
<path d="M57.8016 39.6353H52.0693V41.4896H57.8016V39.6353Z" stroke="black" stroke-width="0.44" stroke-linecap="round" stroke-linejoin="round"/>
<path d="M65.8958 39.6353H60.1636V41.4896H65.8958V39.6353Z" stroke="black" stroke-width="0.44" stroke-linecap="round" stroke-linejoin="round"/>
<path d="M41.6155 44.272H35.8833V46.1263H41.6155V44.272Z" stroke="black" stroke-width="0.44" stroke-linecap="round" stroke-linejoin="round"/>
<path d="M49.7098 44.272H43.9775V46.1263H49.7098V44.272Z" stroke="black" stroke-width="0.44" stroke-linecap="round" stroke-linejoin="round"/>
<path d="M57.8016 44.2725H52.0693V46.1268H57.8016V44.2725Z" stroke="black" stroke-width="0.44" stroke-linecap="round" stroke-linejoin="round"/>
<path d="M65.8958 44.272H60.1636V46.1263H65.8958V44.272Z" stroke="black" stroke-width="0.44" stroke-linecap="round" stroke-linejoin="round"/>
<path d="M41.6155 48.9092H35.8833V50.7635H41.6155V48.9092Z" stroke="black" stroke-width="0.44" stroke-linecap="round" stroke-linejoin="round"/>
<path d="M49.7098 48.9092H43.9775V50.7635H49.7098V48.9092Z" stroke="black" stroke-width="0.44" stroke-linecap="round" stroke-linejoin="round"/>
<path d="M57.8016 48.9092H52.0693V50.7635H57.8016V48.9092Z" stroke="black" stroke-width="0.44" stroke-linecap="round" stroke-linejoin="round"/>
<path d="M65.8958 48.9092H60.1636V50.7635H65.8958V48.9092Z" stroke="black" stroke-width="0.44" stroke-linecap="round" stroke-linejoin="round"/>
<path d="M49.7098 53.5464H43.9775V55.4007H49.7098V53.5464Z" stroke="black" stroke-width="0.44" stroke-linecap="round" stroke-linejoin="round"/>
<path d="M57.8016 53.5464H52.0693V55.4007H57.8016V53.5464Z" stroke="black" stroke-width="0.44" stroke-linecap="round" stroke-linejoin="round"/>
<path d="M65.8958 53.5464H60.1636V55.4007H65.8958V53.5464Z" stroke="black" stroke-width="0.44" stroke-linecap="round" stroke-linejoin="round"/>
<path d="M57.8016 58.8579H52.0693V60.7122H57.8016V58.8579Z" stroke="black" stroke-width="0.44" stroke-linecap="round" stroke-linejoin="round"/>
<path d="M65.8958 58.8579H60.1636V60.7122H65.8958V58.8579Z" stroke="black" stroke-width="0.44" stroke-linecap="round" stroke-linejoin="round"/>
<path d="M57.8016 63.9155H52.0693V65.7699H57.8016V63.9155Z" stroke="black" stroke-width="0.44" stroke-linecap="round" stroke-linejoin="round"/>
<path d="M65.8958 63.9155H60.1636V65.7699H65.8958V63.9155Z" stroke="black" stroke-width="0.44" stroke-linecap="round" stroke-linejoin="round"/>
<path d="M57.8016 68.9756H52.0693V70.8299H57.8016V68.9756Z" stroke="black" stroke-width="0.44" stroke-linecap="round" stroke-linejoin="round"/>
<path d="M65.8958 68.9756H60.1636V70.8299H65.8958V68.9756Z" stroke="black" stroke-width="0.44" stroke-linecap="round" stroke-linejoin="round"/>
<path d="M57.8016 74.0332H52.0693V75.8875H57.8016V74.0332Z" stroke="black" stroke-width="0.44" stroke-linecap="round" stroke-linejoin="round"/>
<path d="M65.8958 74.0332H60.1636V75.8875H65.8958V74.0332Z" stroke="black" stroke-width="0.44" stroke-linecap="round" stroke-linejoin="round"/>
<path d="M57.8016 79.0908H52.0693V80.9452H57.8016V79.0908Z" stroke="black" stroke-width="0.44" stroke-linecap="round" stroke-linejoin="round"/>
<path d="M65.8958 79.0908H60.1636V80.9452H65.8958V79.0908Z" stroke="black" stroke-width="0.44" stroke-linecap="round" stroke-linejoin="round"/>
<path d="M57.8016 84.1509H52.0693V86.0052H57.8016V84.1509Z" stroke="black" stroke-width="0.44" stroke-linecap="round" stroke-linejoin="round"/>
<path d="M65.8958 84.1509H60.1636V86.0052H65.8958V84.1509Z" stroke="black" stroke-width="0.44" stroke-linecap="round" stroke-linejoin="round"/>
<path d="M57.8016 89.2085H52.0693V91.0628H57.8016V89.2085Z" stroke="black" stroke-width="0.44" stroke-linecap="round" stroke-linejoin="round"/>
<path d="M65.8958 89.2085H60.1636V91.0628H65.8958V89.2085Z" stroke="black" stroke-width="0.44" stroke-linecap="round" stroke-linejoin="round"/>
<path d="M57.8016 94.2661H52.0693V96.1204H57.8016V94.2661Z" stroke="black" stroke-width="0.44" stroke-linecap="round" stroke-linejoin="round"/>
<path d="M65.8958 94.2661H60.1636V96.1204H65.8958V94.2661Z" stroke="black" stroke-width="0.44" stroke-linecap="round" stroke-linejoin="round"/>
<path d="M57.8016 99.3267H52.0693V101.181H57.8016V99.3267Z" stroke="black" stroke-width="0.44" stroke-linecap="round" stroke-linejoin="round"/>
<path d="M65.8958 99.3267H60.1636V101.181H65.8958V99.3267Z" stroke="black" stroke-width="0.44" stroke-linecap="round" stroke-linejoin="round"/>
<path d="M77.3623 38.4551H93.8868V44.6926" stroke="black" stroke-width="0.44" stroke-linecap="round" stroke-linejoin="round"/>
<path d="M36.2192 23.9544V22.1001H67.9192V23.9544" stroke="black" stroke-width="0.44" stroke-linecap="round" stroke-linejoin="round"/>
</g>
<path d="M25.0323 38.7682C25.0323 38.7682 24.5857 36.4579 22.5739 35.6377C20.5621 34.8175 19.2836 35.861 18.9945 36.606C18.7054 37.351 18.6208 38.6178 17.5045 38.0961C16.3881 37.5743 15.9392 36.9797 14.522 37.5743C13.1048 38.1689 13.5514 39.438 12.5079 39.6637C11.4644 39.8893 11.838 39.29 10.7193 39.4286C9.60063 39.5673 9.67583 40.2653 9.3844 40.6484C9.09298 41.0315 9.08593 40.7236 8.04242 40.8717C7.40414 40.968 6.80831 41.25 6.3291 41.6825H29.3614C29.3614 41.6825 29.9583 40.4909 28.3931 39.5955C26.8278 38.7001 25.4812 39.6707 25.0323 38.7682Z" stroke="#ADADAD" stroke-width="0.44" stroke-linecap="round" stroke-linejoin="round"/>
<path d="M33.2436 15.6326C33.2436 15.6326 33.0508 14.6361 32.1812 14.2836C31.3117 13.931 30.7711 14.3799 30.6395 14.7019C30.5079 15.0239 30.4773 15.5691 29.9955 15.3435C29.5137 15.1179 29.321 14.8735 28.71 15.1202C28.0989 15.367 28.2916 15.924 27.8404 16.0204C27.3891 16.1167 27.5513 15.8582 27.0695 15.924C26.5877 15.9898 26.6182 16.2765 26.4913 16.4364C26.3644 16.5962 26.3621 16.4693 25.9108 16.5351C25.6354 16.5771 25.3786 16.6998 25.1729 16.8876H35.1073C35.1073 16.8876 35.3658 16.3729 34.6889 15.9875C34.0121 15.602 33.4363 16.0204 33.2436 15.6326Z" stroke="#ADADAD" stroke-width="0.44" stroke-linecap="round" stroke-linejoin="round"/>
<path d="M79.7968 20.1497C79.7968 20.1497 79.6041 19.1532 78.7368 18.8007C77.8696 18.4481 77.3267 18.897 77.1927 19.2167C77.0588 19.5363 77.0329 20.0863 76.5488 19.8606C76.0646 19.635 75.8742 19.3906 75.2632 19.6256C74.6521 19.8606 74.8448 20.4294 74.3959 20.5258C73.947 20.6221 74.1069 20.3659 73.6227 20.4294C73.1386 20.4929 73.1738 20.7843 73.0446 20.9441C72.9153 21.1039 72.9153 20.977 72.4664 21.0405C72.1902 21.0838 71.9328 21.2072 71.7261 21.3953H81.6629C81.6629 21.3953 81.919 20.8806 81.2445 20.4952C80.57 20.1098 79.9895 20.5352 79.7968 20.1497Z" stroke="#ADADAD" stroke-width="0.44" stroke-linecap="round" stroke-linejoin="round"/>
<path d="M103.628 33.4258H90.1002C89.967 33.4324 89.8339 33.4117 89.7089 33.3652C89.5839 33.3188 89.4696 33.2474 89.373 33.1554C89.2764 33.0634 89.1995 32.9528 89.147 32.8302C89.0945 32.7076 89.0674 32.5756 89.0674 32.4423C89.0674 32.3089 89.0945 32.1769 89.147 32.0543C89.1995 31.9318 89.2764 31.8211 89.373 31.7291C89.4696 31.6372 89.5839 31.5658 89.7089 31.5193C89.8339 31.4728 89.967 31.4522 90.1002 31.4587H103.628C103.761 31.4522 103.895 31.4728 104.02 31.5193C104.145 31.5658 104.259 31.6372 104.355 31.7291C104.452 31.8211 104.529 31.9318 104.581 32.0543C104.634 32.1769 104.661 32.3089 104.661 32.4423C104.661 32.5756 104.634 32.7076 104.581 32.8302C104.529 32.9528 104.452 33.0634 104.355 33.1554C104.259 33.2474 104.145 33.3188 104.02 33.3652C103.895 33.4117 103.761 33.4324 103.628 33.4258Z" fill="#263238" stroke="#263238" stroke-width="0.44" stroke-linecap="round" stroke-linejoin="round"/>
<path d="M104.148 50.8107L88.1922 34.8549C87.5506 34.2133 87.3437 33.3813 87.7221 32.9982C88.1005 32.6151 88.9372 32.822 89.5788 33.4683L105.535 49.4217C106.176 50.0633 106.383 50.8953 106.005 51.2807C105.626 51.6661 104.79 51.4593 104.148 50.8107Z" fill="#263238" stroke="#263238" stroke-width="0.44" stroke-linecap="round" stroke-linejoin="round"/>
<path d="M88.1924 49.4171L104.148 33.4637C104.79 32.8221 105.619 32.6129 106.005 32.9937C106.39 33.3744 106.181 34.2087 105.535 34.8504L89.579 50.8061C88.9374 51.4477 88.1078 51.6545 87.7223 51.2761C87.3369 50.8978 87.5508 50.0493 88.1924 49.4171Z" fill="#263238" stroke="#263238" stroke-width="0.44" stroke-linecap="round" stroke-linejoin="round"/>
<path d="M103.628 14.4924H90.1005C89.9712 14.4924 89.8431 14.467 89.7236 14.4175C89.6041 14.368 89.4956 14.2955 89.4042 14.204C89.3127 14.1126 89.2402 14.004 89.1907 13.8845C89.1412 13.7651 89.1157 13.637 89.1157 13.5077C89.1157 13.3784 89.1412 13.2503 89.1907 13.1309C89.2402 13.0114 89.3127 12.9028 89.4042 12.8114C89.4956 12.7199 89.6041 12.6474 89.7236 12.5979C89.8431 12.5484 89.9712 12.5229 90.1005 12.5229H103.628C103.89 12.5229 104.14 12.6267 104.325 12.8114C104.509 12.9961 104.613 13.2465 104.613 13.5077C104.613 13.7689 104.509 14.0193 104.325 14.204C104.14 14.3887 103.89 14.4924 103.628 14.4924Z" fill="#263238" stroke="#263238" stroke-width="0.44" stroke-linecap="round" stroke-linejoin="round"/>
<path d="M104.148 31.8747L88.1922 15.919C87.5506 15.2797 87.3437 14.4477 87.7221 14.0623C88.1005 13.6768 88.9372 13.886 89.5788 14.5323L105.535 30.488C106.176 31.1297 106.383 31.9616 106.005 32.3447C105.626 32.7278 104.79 32.5163 104.148 31.8747Z" fill="#263238" stroke="#263238" stroke-width="0.44" stroke-linecap="round" stroke-linejoin="round"/>
<path d="M88.1924 30.4834L104.148 14.5276C104.79 13.886 105.619 13.6792 106.005 14.0576C106.39 14.436 106.181 15.275 105.535 15.9143L89.579 31.87C88.9374 32.5116 88.1078 32.7208 87.7223 32.34C87.3369 31.9593 87.5508 31.125 88.1924 30.4834Z" fill="#263238" stroke="#263238" stroke-width="0.44" stroke-linecap="round" stroke-linejoin="round"/>
<path d="M103.628 52.2092H90.1005C89.8393 52.2092 89.5888 52.1055 89.4042 51.9208C89.2195 51.7361 89.1157 51.4857 89.1157 51.2245C89.1157 50.9633 89.2195 50.7128 89.4042 50.5282C89.5888 50.3435 89.8393 50.2397 90.1005 50.2397H103.628C103.89 50.2397 104.14 50.3435 104.325 50.5282C104.509 50.7128 104.613 50.9633 104.613 51.2245C104.613 51.4857 104.509 51.7361 104.325 51.9208C104.14 52.1055 103.89 52.2092 103.628 52.2092Z" fill="#263238" stroke="#263238" stroke-width="0.44" stroke-linecap="round" stroke-linejoin="round"/>
<path d="M104.148 69.5915L88.1922 53.6357C87.5506 52.9965 87.3437 52.1645 87.7221 51.7791C88.1005 51.3936 88.9372 51.6028 89.5788 52.2491L105.535 68.2048C106.176 68.8465 106.383 69.6761 106.005 70.0615C105.626 70.447 104.79 70.2331 104.148 69.5915Z" fill="#263238" stroke="#263238" stroke-width="0.44" stroke-linecap="round" stroke-linejoin="round"/>
<path d="M88.1924 68.2002L104.148 52.2444C104.79 51.6028 105.619 51.396 106.005 51.7744C106.39 52.1528 106.181 52.9918 105.535 53.6311L89.579 69.5868C88.9374 70.2284 88.1078 70.4376 87.7223 70.0568C87.3369 69.6761 87.5508 68.8512 88.1924 68.2002Z" fill="#263238" stroke="#263238" stroke-width="0.44" stroke-linecap="round" stroke-linejoin="round"/>
<path d="M103.628 70.9898H90.1002C89.967 70.9963 89.8339 70.9757 89.7089 70.9292C89.5839 70.8827 89.4696 70.8113 89.373 70.7193C89.2764 70.6274 89.1995 70.5167 89.147 70.3942C89.0945 70.2716 89.0674 70.1396 89.0674 70.0062C89.0674 69.8729 89.0945 69.7409 89.147 69.6183C89.1995 69.4957 89.2764 69.3851 89.373 69.2931C89.4696 69.2011 89.5839 69.1297 89.7089 69.0832C89.8339 69.0368 89.967 69.0161 90.1002 69.0227H103.628C103.761 69.0161 103.895 69.0368 104.02 69.0832C104.145 69.1297 104.259 69.2011 104.355 69.2931C104.452 69.3851 104.529 69.4957 104.581 69.6183C104.634 69.7409 104.661 69.8729 104.661 70.0062C104.661 70.1396 104.634 70.2716 104.581 70.3942C104.529 70.5167 104.452 70.6274 104.355 70.7193C104.259 70.8113 104.145 70.8827 104.02 70.9292C103.895 70.9757 103.761 70.9963 103.628 70.9898Z" fill="#263238" stroke="#263238" stroke-width="0.44" stroke-linecap="round" stroke-linejoin="round"/>
<path d="M104.148 88.3746L88.1922 72.4189C87.5506 71.7773 87.3437 70.9453 87.7221 70.5622C88.1005 70.1791 88.9372 70.3859 89.5788 71.0322L105.535 86.988C106.176 87.6273 106.383 88.4592 106.005 88.8447C105.626 89.2301 104.79 89.0162 104.148 88.3746Z" fill="#263238" stroke="#263238" stroke-width="0.44" stroke-linecap="round" stroke-linejoin="round"/>
<path d="M88.1924 86.9829L104.148 71.0272C104.79 70.3856 105.619 70.1764 106.005 70.5572C106.39 70.9379 106.181 71.7722 105.535 72.4138L89.579 88.3696C88.9374 89.0112 88.1078 89.218 87.7223 88.8396C87.3369 88.4612 87.5508 87.6222 88.1924 86.9829Z" fill="#263238" stroke="#263238" stroke-width="0.44" stroke-linecap="round" stroke-linejoin="round"/>
<path d="M103.628 89.7683H90.1005C89.8393 89.7683 89.5888 89.6646 89.4042 89.4799C89.2195 89.2952 89.1157 89.0447 89.1157 88.7836C89.1157 88.5224 89.2195 88.2719 89.4042 88.0873C89.5888 87.9026 89.8393 87.7988 90.1005 87.7988H103.628C103.89 87.7988 104.14 87.9026 104.325 88.0873C104.509 88.2719 104.613 88.5224 104.613 88.7836C104.613 89.0447 104.509 89.2952 104.325 89.4799C104.14 89.6646 103.89 89.7683 103.628 89.7683Z" fill="#263238" stroke="#263238" stroke-width="0.44" stroke-linecap="round" stroke-linejoin="round"/>
<path d="M104.148 107.16L88.1922 91.2041C87.5506 90.5648 87.3437 89.7329 87.7221 89.3474C88.1005 88.962 88.9372 89.1712 89.5788 89.8175L105.535 105.773C106.176 106.415 106.383 107.247 106.005 107.63C105.626 108.013 104.79 107.797 104.148 107.16Z" fill="#263238" stroke="#263238" stroke-width="0.44" stroke-linecap="round" stroke-linejoin="round"/>
<path d="M88.1923 105.764L104.148 89.8084C104.79 89.1668 105.619 88.96 106.005 89.3383C106.39 89.7167 106.181 90.5558 105.535 91.195L89.5837 107.16C88.9421 107.802 88.1124 108.011 87.727 107.63C87.3416 107.249 87.5507 106.406 88.1923 105.764Z" fill="#263238" stroke="#263238" stroke-width="0.44" stroke-linecap="round" stroke-linejoin="round"/>
<path d="M106.458 10.2856H103.429V114.436H106.458V10.2856Z" fill="#263238" stroke="#263238" stroke-width="0.44" stroke-linecap="round" stroke-linejoin="round"/>
<path d="M89.8986 10.2856H86.8691V114.436H89.8986V10.2856Z" fill="#263238" stroke="#263238" stroke-width="0.44" stroke-linecap="round" stroke-linejoin="round"/>
<path d="M58.3562 100.079L61.2705 114.436H74.1568L72.655 92.9292L71.9664 81.8432L45.6932 81.0605L45.0586 92.0009L44.8823 114.436H57.3527L58.3562 100.079Z" fill="#263238" stroke="#263238" stroke-width="0.44" stroke-linecap="round" stroke-linejoin="round"/>
<path d="M52.3137 43.6264C52.3137 43.6264 44.9692 47.5019 43.27 48.3268C41.5707 49.1518 39.5307 49.8216 39.1218 50.9121C38.7129 52.0026 35.3144 61.9958 34.7692 63.3683C34.2239 64.7408 35.4507 66.5646 35.5189 66.9712C35.5871 67.3778 35.2463 68.4002 35.3826 68.6728C35.576 69.0053 35.6917 69.3773 35.721 69.7609C35.721 70.1675 39.0536 67.9912 41.1618 69.2909C43.27 70.5906 44.7647 73.0301 44.9692 73.5754C45.4008 74.989 45.6527 76.4514 45.7189 77.928C45.7847 79.7635 44.901 81.122 45.5144 82.008C46.1278 82.8941 47.2818 83.2301 47.2818 83.2301C47.2818 83.2301 62.7181 84.2501 66.1189 83.7002C69.5197 83.1502 71.6255 82.9528 71.9663 81.8646C72.3071 80.7765 72.2366 79.3475 72.3047 79.0749C72.3729 78.8023 72.9863 73.5683 73.2448 71.7892C73.5034 70.0101 75.36 68.7339 75.5575 68.5247C75.7549 68.3155 77.3272 67.8432 79.3672 67.7092C81.4072 67.5752 83.8538 69.2039 83.8538 69.2039C83.8538 69.2039 85.0101 69.2721 85.3509 67.4366C85.6917 65.601 85.0783 63.8313 84.4649 61.8595C83.8514 59.8876 81.2027 55.1966 81.2027 55.1966C81.2027 55.1966 80.9301 53.7676 79.299 50.3692C77.668 46.9707 77.0546 46.7639 75.7737 46.4913C74.4928 46.2187 67.757 44.3502 65.7782 43.6358C63.7993 42.9213 60.1963 42.6087 60.1963 42.6087C60.1963 42.6087 53.8766 42.47 52.3137 43.6264Z" fill="#FFD000"/>
<g opacity="0.47">
<path d="M35.7064 69.5819H36.4678C36.6418 69.516 36.8415 69.4408 37.0601 69.3633H35.6641C35.6831 69.4351 35.6972 69.5081 35.7064 69.5819Z" fill="white"/>
<path d="M48.6095 45.5838V47.551H46.5836V46.6391L46.365 46.7542V47.551H44.8185L44.2451 47.8448V49.6732H42.2192V48.8107L42.0006 48.9071V49.6732H40.433C40.2421 49.7814 40.0576 49.9007 39.8807 50.0305V51.9107H38.762C38.7361 51.9812 38.7126 52.054 38.6844 52.1292H39.876V54.0329H38.0264C38.0005 54.1034 37.977 54.1763 37.9512 54.2515H39.876V56.275H37.8501V54.5429C37.7796 54.7497 37.7044 54.9613 37.6315 55.1775V56.275H37.2578L37.1803 56.4936H37.6362V58.3973H36.5246L36.447 58.6159H37.6362V60.6253H35.7443C35.7192 60.7005 35.6934 60.7734 35.6667 60.8439H37.6362V62.7476H35.0016C34.9734 62.8251 34.9452 62.898 34.9217 62.9662H37.6456V64.9897H34.7666C34.7854 65.0649 34.8066 65.1378 34.8301 65.2106H37.6503V67.112H35.5351C35.5351 67.1778 35.5351 67.253 35.5163 67.3305H37.6456V69.1661L37.8642 69.1026V67.3305H39.8901V68.8558C39.963 68.8558 40.0358 68.8699 40.1087 68.8793V67.3305H42.01V69.3564H41.3238C41.4319 69.4269 41.54 69.4974 41.6434 69.575H42.01V69.8523L42.2286 70.0357V69.5656H44.2545V71.4669H43.6246C43.6857 71.539 43.7445 71.6119 43.8009 71.6855H44.2545V72.2966C44.332 72.4094 44.4049 72.5175 44.4731 72.6233V71.6832H46.3744V73.7091H45.0395C45.0606 73.7725 45.0818 73.8454 45.1053 73.9276H46.3744V75.829H45.5119L45.5471 76.0476H46.3744V78.0734H45.7187C45.7187 78.1463 45.7187 78.2192 45.7187 78.292H46.3674V80.1934H45.4273C45.4108 80.2686 45.3967 80.3414 45.3826 80.4119H46.3627V82.4378H45.9443C46.0328 82.5156 46.1254 82.5885 46.2216 82.6564H46.3627V82.7504C46.4379 82.7974 46.5107 82.8397 46.5812 82.8797V82.6564H48.6071V83.2675L48.8257 83.2792V82.6564H50.727V83.3897L50.9456 83.4038V82.6564H52.9715V83.5095L53.1901 83.5213V82.6564H55.0914V83.6106H55.31V82.647H57.3288V83.6929H57.5474V82.6376H59.4487V83.7516H59.6673V82.6306H61.6932V83.7892H61.9118V82.6306H63.8131V83.7822H64.0317V82.6353H66.0576V83.6459H66.1093L66.2762 83.62V82.6423H68.1775V83.3192L68.3961 83.2839V82.6423H70.422V82.8632L70.6406 82.7974V82.6423H71.0519C71.1933 82.5811 71.3293 82.508 71.4584 82.4237H70.6406V80.3978H72.2058C72.2058 80.3226 72.2176 80.2498 72.2223 80.1793H70.6406V78.2779H72.4009L72.4291 78.0593H70.6406V76.0664H72.5419V77.2039C72.6101 76.6704 72.6853 76.0687 72.7605 75.4529V73.9464H72.9532L72.9814 73.7279H72.7605V71.702H73.2634C73.2775 71.6291 73.2916 71.5539 73.3104 71.4834H72.7699V69.5821H74.415C74.4855 69.5045 74.5537 69.4316 74.6218 69.3635H72.7652V67.3376H74.7911V69.1943C74.8663 69.1222 74.9391 69.054 75.0096 68.9898V67.3446H76.911V68.0497L77.1296 68.0004V67.3352H79.1555V67.7136L79.3717 67.6972V67.3352H81.273V67.9698L81.4916 68.0403V67.3352H83.5175V68.9804C83.6068 69.0321 83.682 69.0768 83.7361 69.112V67.3329H85.3671C85.3812 67.2608 85.393 67.188 85.4024 67.1143H83.7361V65.213H85.3624L85.3272 64.9921H83.7361V62.9756H84.8266C84.8054 62.9027 84.7843 62.8298 84.7608 62.757H83.7455V60.8603H84.1027L84.0087 60.6418H83.7455V60.0613C83.6749 59.9085 83.6021 59.7534 83.5269 59.5912V60.6253H81.501V58.6018H83.0451L82.9323 58.3832H81.501V56.4795H81.9334L81.8136 56.2609H81.501V55.6898L81.2824 55.2973V56.2586H79.3811V54.235H80.9416L80.8688 54.0165H79.3811V52.1128H80.1261C80.0955 52.0423 80.0626 51.9694 80.0321 51.8942H79.3905V50.4958L79.3223 50.3501L79.1719 50.0399V51.8942H77.146V49.8707H79.0873C79.0497 49.7954 79.0144 49.7226 78.9768 49.6521H77.146V47.7484H77.8628C77.8041 47.6708 77.7477 47.598 77.6913 47.5298H77.146V46.9963C77.0759 46.9445 77.0029 46.8966 76.9274 46.853V47.5298H75.0261V46.2912L74.8075 46.2348V47.5298H72.7699V45.6943L72.5513 45.6355V47.5298H70.65V45.5063H72.0836L71.301 45.2877H70.65V45.1138L70.4314 45.0527V45.2994H68.4055V44.4628L68.1869 44.397V45.2994H66.2856V43.8024C66.208 43.7788 66.1352 43.753 66.067 43.7295V45.2994H64.0411V43.1607L63.8225 43.1161V45.2994H61.9212V42.7988L61.7026 42.7706V45.2971H59.6791V42.5967H59.4605V45.2971H57.5639V42.6413L57.3453 42.6531V45.2971H55.3194V42.8153L55.1008 42.8411V45.2971H53.1924V43.2336C53.1172 43.2571 53.0444 43.283 52.9739 43.3088V45.3089H50.948V44.357L50.7294 44.4722V45.3089H49.1359L48.6095 45.5838ZM48.828 45.5274H50.7294V47.551H48.828V45.5274ZM66.067 58.402H64.0411V56.4983H66.067V58.402ZM66.2856 56.4983H68.1869V58.402H66.2856V56.4983ZM50.948 58.6135H52.9739V60.6253H50.948V58.6135ZM50.7294 60.6371H48.828V58.6135H50.7294V60.6371ZM57.5639 69.3635V67.3376H59.4652V69.3635H57.5639ZM59.4652 69.5821V71.4834H57.5639V69.5821H59.4652ZM57.5639 67.119V65.2177H59.4652V67.119H57.5639ZM55.3194 58.6088H57.3288V60.6253H55.3029L55.3194 58.6088ZM55.1008 60.6324H53.1924V58.6088H55.0938L55.1008 60.6324ZM57.5639 58.6088H59.4652V60.6253H57.5639V58.6088ZM57.3288 60.8603V62.764H55.3029V60.8603H57.3288ZM57.5474 60.8603H59.4487V62.764H57.5639L57.5474 60.8603ZM59.4487 62.9756V64.9991H57.5639V62.9756H59.4487ZM59.6673 65.22H61.6932V67.1214H59.6791L59.6673 65.22ZM59.6673 64.9991V62.9756H61.6932V64.9991H59.6673ZM59.6673 62.757V60.8603H61.6932V62.764L59.6673 62.757ZM59.6673 60.6418V58.6182H61.6932V60.6253L59.6673 60.6418ZM59.6673 58.3996V56.496H61.6932V58.3996H59.6673ZM59.4487 58.3996H57.5639V56.496H59.4652L59.4487 58.3996ZM57.3335 58.3996H55.3076V56.496H57.3288L57.3335 58.3996ZM55.0891 58.3996H53.1924V56.496H55.0938L55.0891 58.3996ZM52.9739 58.3996H50.948V56.496H52.9739V58.3996ZM52.9739 60.8603V62.764H50.948V60.8603H52.9739ZM53.1924 60.8603H55.0938V62.764H53.1924V60.8603ZM55.0938 62.9756V64.9991H53.1924V62.9756H55.0938ZM55.3123 62.9756H57.3288V64.9991H55.3029L55.3123 62.9756ZM57.3382 65.22V67.1214H55.3123V65.22H57.3382ZM57.3382 67.3352V69.3611H55.3123V67.3352H57.3382ZM57.3382 69.5797V71.481H55.3123V69.5797H57.3382ZM57.3382 71.6949V73.7208H55.3123V71.6949H57.3382ZM57.5568 71.6949H59.4581V73.7208H57.5639L57.5568 71.6949ZM59.672 71.6949H61.6979V73.7208H59.6791L59.672 71.6949ZM59.672 71.4764V69.575H61.6979V71.4764H59.672ZM59.672 69.3611V67.3352H61.6979V69.3611H59.672ZM61.9165 67.3352H63.8178V69.3611H61.9165V67.3352ZM61.9165 67.1167V65.2153H63.8178V67.1167H61.9165ZM61.9165 65.0015V62.9756H63.8178V64.9991L61.9165 65.0015ZM61.9165 62.7593V60.8603H63.8178V62.764L61.9165 62.7593ZM61.9165 60.6441V58.6206H63.8178V60.6253L61.9165 60.6441ZM64.0317 58.6206H66.0576V60.6253H64.0317V58.6206ZM63.8131 58.402H61.9118V56.4983H63.8131V58.402ZM61.9118 56.2868V54.2632H63.8131V56.2868H61.9118ZM61.6932 56.2868H59.6791V54.2632H61.705L61.6932 56.2868ZM59.4487 56.2868H57.5639V54.2632H59.4652L59.4487 56.2868ZM57.3335 56.2868H55.3076V54.2632H57.3288L57.3335 56.2868ZM55.0891 56.2868H53.1924V54.2632H55.0938L55.0891 56.2868ZM52.9739 56.2868H50.948V54.2632H52.9739V56.2868ZM50.7294 56.2868H48.828V54.2632H50.7294V56.2868ZM50.7294 56.5054V58.4091H48.828V56.5054H50.7294ZM48.6142 58.4091H46.5883V56.5054H48.6142V58.4091ZM48.6142 58.6276V60.6253H46.5883V58.6018L48.6142 58.6276ZM48.6142 60.8697V62.7734H46.5883V60.8603L48.6142 60.8697ZM48.8327 60.8697H50.7341V62.7734H48.8327V60.8697ZM50.7341 62.985V65.0085H48.8327V62.9756L50.7341 62.985ZM50.9527 62.985H52.9786V65.0085H50.9527V62.985ZM52.9786 65.2294V67.1308H50.9527V65.2294H52.9786ZM53.1971 65.2294H55.0985V67.1308H53.1924L53.1971 65.2294ZM55.0985 67.3446V69.3705H53.1924V67.3446H55.0985ZM55.0985 69.5891V71.4904H53.1924V69.5891H55.0985ZM55.0985 71.7043V73.7302H53.1924V71.7043H55.0985ZM55.0985 73.9488V75.8501H53.1924V73.9488H55.0985ZM55.317 73.9488H57.3288V75.8501H55.3029L55.317 73.9488ZM57.5615 73.9488H59.4629V75.8501H57.5639L57.5615 73.9488ZM59.6767 73.9488H61.7026V75.8501H59.6791L59.6767 73.9488ZM61.9212 73.9488H63.8225V75.8501H61.9212V73.9488ZM61.9212 73.7302V71.7043H63.8225V73.7302H61.9212ZM61.9212 71.4857V69.5844H63.8225V71.4857H61.9212ZM64.0364 69.5844H66.0623V71.4857H64.0364V69.5844ZM64.0364 69.3658V67.3399H66.0623V69.3658H64.0364ZM64.0364 67.1214V65.22H66.0623V67.1214H64.0364ZM64.0364 65.0062V62.9756H66.0623V64.9991L64.0364 65.0062ZM64.0364 62.764V60.8603H66.0623V62.764H64.0364ZM66.2809 60.8603H68.1822V62.764H66.2809V60.8603ZM66.2809 60.6418V58.6182H68.1822V60.6253L66.2809 60.6418ZM68.3961 58.6182H70.422V60.6253H68.3961V58.6182ZM70.6406 58.6182H72.5419V60.6253H70.6406V58.6182ZM70.6406 58.3996V56.496H72.5419V58.3996H70.6406ZM70.422 58.3996H68.3961V56.496H70.422V58.3996ZM68.3961 56.2844V54.2609H70.422V56.2844H68.3961ZM68.1775 56.2844H66.2762V54.2609H68.1775V56.2844ZM66.0623 56.2844H64.0364V54.2609H66.0623V56.2844ZM64.0364 54.0423V52.1386H66.0623V54.0423H64.0364ZM63.8178 54.0423H61.9165V52.1386H63.8178V54.0423ZM61.7026 54.0423H59.6791V52.1386H61.705L61.7026 54.0423ZM59.4581 54.0423H57.5639V52.1386H59.4652L59.4581 54.0423ZM57.3429 54.0423H55.317V52.1386H57.3288L57.3429 54.0423ZM55.0985 54.0423H53.1924V52.1386H55.0938L55.0985 54.0423ZM52.9833 54.0423H50.9574V52.1386H52.9833V54.0423ZM50.7388 54.0423H48.8374V52.1386H50.7388V54.0423ZM48.6236 54.0423H46.5977V52.1386H48.6236V54.0423ZM48.6236 54.2609V56.2844H46.5977V54.2609H48.6236ZM46.3791 56.2844H44.4778V54.2609H46.3791V56.2844ZM46.3791 56.503V58.4067H44.4778V56.503H46.3791ZM46.3791 58.6182V60.6253H44.4778V58.6018L46.3791 58.6182ZM44.2639 60.6418H42.238V58.6182H44.2639V60.6418ZM44.2639 60.8603V62.764H42.238V60.8603H44.2639ZM44.4825 60.8603H46.3838V62.764H44.4825V60.8603ZM46.3838 62.9756V64.9991H44.4825V62.9756H46.3838ZM46.6024 62.9756H48.6283V64.9991H46.6024V62.9756ZM48.6283 65.22V67.1214H46.6024V65.22H48.6283ZM48.8468 65.22H50.7482V67.1214H48.8468V65.22ZM50.7482 67.3352V69.3611H48.8468V67.3352H50.7482ZM50.9668 67.3352H52.9927V69.3611H50.9668V67.3352ZM52.9927 69.5797V71.481H50.9668V69.5797H52.9927ZM52.9927 71.6949V73.7208H50.9668V71.6949H52.9927ZM52.9927 73.9394V75.8407H50.9668V73.9394H52.9927ZM52.9927 76.0546V78.0805H50.9668V76.0664L52.9927 76.0546ZM53.2112 76.0546H55.1126V78.0805H53.1924L53.2112 76.0546ZM55.3264 76.0546H57.3288V78.0805H55.3029L55.3264 76.0546ZM57.5709 76.0546H59.4722V78.0805H57.5639L57.5709 76.0546ZM59.6861 76.0546H61.712V78.0805H59.6791L59.6861 76.0546ZM61.9306 76.0546H63.8319V78.0805H61.9306V76.0546ZM64.0458 76.0546H66.0717V78.0805H64.0458V76.0546ZM64.0458 75.836V73.9347H66.0717V75.836H64.0458ZM64.0458 73.7208V71.6949H66.0717V73.7208H64.0458ZM66.2903 71.6949H68.1916V73.7208H66.2903V71.6949ZM66.2903 71.4764V69.575H68.1916V71.4764H66.2903ZM66.2903 69.3611V67.3352H68.1916V69.3611H66.2903ZM66.2903 67.1167V65.2153H68.1916V67.1167H66.2903ZM66.2903 65.0015V62.9756H68.1916V64.9991L66.2903 65.0015ZM68.4055 62.9779H70.4314V65.0015H68.4055V62.9779ZM68.4055 62.7593V60.8603H70.4314V62.764L68.4055 62.7593ZM70.65 60.8556H72.5513V62.7593H70.65V60.8556ZM72.7652 60.8556H74.7911V62.7593H72.7699L72.7652 60.8556ZM75.0096 60.8556H76.911V62.7593H75.0096V60.8556ZM75.0096 60.6371V58.6135H76.911V60.6253L75.0096 60.6371ZM74.7911 60.6371H72.7699V58.6135H74.7958L74.7911 60.6371ZM72.7652 58.3949V56.4913H74.7911V58.3949H72.7652ZM72.7652 56.2797V54.2562H74.7911V56.2797H72.7652ZM72.5466 56.2797H70.6453V54.2562H72.5466V56.2797ZM70.6453 54.0376V52.1339H72.5466V54.0376H70.6453ZM70.4267 54.0376H68.4008V52.1339H70.4267V54.0376ZM68.1822 54.0376H66.2809V52.1339H68.1822V54.0376ZM66.2809 51.9224V49.8989H68.1822V51.9224H66.2809ZM66.0623 51.9224H64.0364V49.8989H66.0623V51.9224ZM63.8178 51.9224H61.9165V49.8989H63.8178V51.9224ZM61.7026 51.9224H59.6791V49.8989H61.705L61.7026 51.9224ZM59.4581 51.9224H57.5639V49.8989H59.4652L59.4581 51.9224ZM57.3429 51.9224H55.317V49.8989H57.3288L57.3429 51.9224ZM55.0985 51.9224H53.1924V49.8989H55.0938L55.0985 51.9224ZM52.9833 51.9224H50.9574V49.8989H52.9833V51.9224ZM50.7388 51.9224H48.8374V49.8989H50.7388V51.9224ZM48.6236 51.9224H46.5977V49.8989H48.6236V51.9224ZM46.3791 51.9224H44.4778V49.8989H46.3791V51.9224ZM46.3791 52.141V54.0447H44.4778V52.141H46.3791ZM44.2639 54.0447H42.238V52.141H44.2639V54.0447ZM44.2639 54.2632V56.2868H42.238V54.2632H44.2639ZM44.2639 56.5054V58.4091H42.238V56.5054H44.2639ZM42.0194 58.4091H40.1181V56.5054H42.0194V58.4091ZM42.0194 58.6276V60.6253H40.1181V58.6018L42.0194 58.6276ZM42.0194 60.8697V62.7734H40.1181V60.8603L42.0194 60.8697ZM42.0194 62.985V65.0085H40.1181V62.9756L42.0194 62.985ZM42.238 62.985H44.2639V65.0085H42.238V62.985ZM44.2639 65.2294V67.1308H42.238V65.2294H44.2639ZM44.4825 65.2294H46.3838V67.1308H44.4825V65.2294ZM46.3838 67.3446V69.3705H44.4825V67.3446H46.3838ZM46.6024 67.3446H48.6283V69.3705H46.6024V67.3446ZM48.6283 69.5891V71.4904H46.6024V69.5891H48.6283ZM48.8468 69.5891H50.7482V71.4904H48.8468V69.5891ZM50.7482 71.7043V73.7302H48.8468V71.7043H50.7482ZM50.7482 73.9488V75.8501H48.8468V73.9488H50.7482ZM50.7482 76.064V78.0899H48.8468V76.0664L50.7482 76.064ZM50.7482 78.3085V80.2098H48.8468V78.3085H50.7482ZM50.9668 78.3085H52.9927V80.2098H50.9668V78.3085ZM53.2112 78.3085H55.1126V80.2098H53.1924L53.2112 78.3085ZM55.3264 78.3085H57.3288V80.2098H55.3029L55.3264 78.3085ZM57.5709 78.3085H59.4722V80.2098H57.5639L57.5709 78.3085ZM59.6861 78.3085H61.712V80.2098H59.6791L59.6861 78.3085ZM61.9306 78.3085H63.8319V80.2098H61.9306V78.3085ZM64.0458 78.3085H66.0717V80.2098H64.0458V78.3085ZM66.2903 78.3085H68.1916V80.2098H66.2903V78.3085ZM66.2903 78.0899V76.0664H68.1916V78.0923L66.2903 78.0899ZM66.2903 75.8454V73.9441H68.1916V75.8454H66.2903ZM68.4055 73.9441H70.4314V75.8454H68.4055V73.9441ZM68.4055 73.7255V71.6996H70.4314V73.7255H68.4055ZM68.4055 71.481V69.5797H70.4314V71.481H68.4055ZM68.4055 69.3658V67.3399H70.4314V69.3658H68.4055ZM68.4055 67.1214V65.22H70.4314V67.1214H68.4055ZM70.65 65.22H72.5513V67.1214H70.65V65.22ZM70.65 64.9991V62.9756H72.5513V64.9991H70.65ZM72.7652 62.9756H74.7911V64.9991H72.7699L72.7652 62.9756ZM75.0096 62.9756H76.911V64.9991H75.0096V62.9756ZM77.1249 62.9756H79.1508V64.9991H77.1249V62.9756ZM79.3693 62.9756H81.2707V64.9991H79.3693V62.9756ZM79.3693 62.757V60.8603H81.2707V62.764L79.3693 62.757ZM79.1508 62.757H77.1249V60.8603H79.1508V62.757ZM77.1249 60.6418V58.6182H79.1508V60.6253L77.1249 60.6418ZM77.1249 58.3996V56.496H79.1508V58.3996H77.1249ZM76.9063 58.3996H75.0049V56.496H76.9063V58.3996ZM75.0049 56.2844V54.2609H76.9063V56.2844H75.0049ZM75.0049 54.0423V52.1386H76.9063V54.0423H75.0049ZM74.7864 54.0423H72.7699V52.1386H74.7958L74.7864 54.0423ZM72.7605 51.9271V49.9036H74.7864V51.9271H72.7605ZM72.5419 51.9271H70.6406V49.9036H72.5419V51.9271ZM70.4267 51.9271H68.4008V49.9036H70.4267V51.9271ZM68.4008 49.685V47.7813H70.4267V49.685H68.4008ZM68.1822 49.685H66.2809V47.7813H68.1822V49.685ZM66.067 49.685H64.0411V47.7813H66.067V49.685ZM63.8225 49.685H61.9212V47.7813H63.8225V49.685ZM61.7073 49.685H59.6791V47.7813H61.705L61.7073 49.685ZM59.4629 49.685H57.5639V47.7813H59.4652L59.4629 49.685ZM57.3476 49.685H55.3217V47.7813H57.3288L57.3476 49.685ZM55.1032 49.685H53.1924V47.7813H55.0938L55.1032 49.685ZM52.988 49.685H50.9621V47.7813H52.988V49.685ZM50.7435 49.685H48.8421V47.7813H50.7435V49.685ZM48.6283 47.7813V49.685H46.6024V47.7813H48.6283ZM44.4825 47.7813H46.3838V49.685H44.4825V47.7813ZM44.2639 49.8965V51.9201H42.238V49.8965H44.2639ZM40.1181 49.8965H42.0194V51.9201H40.1181V49.8965ZM40.1181 52.1386H42.0194V54.0423H40.1181V52.1386ZM40.1181 54.2538H42.0194V56.2774H40.1181V54.2538ZM37.8736 56.496H39.8995V58.3996H37.8736V56.496ZM37.8736 58.6112H39.8995V60.6253H37.8736V58.6112ZM37.8736 60.8533H39.8995V62.757H37.8736V60.8533ZM37.8736 62.9685H39.8995V64.9921H37.8736V62.9685ZM37.8736 67.1143V65.213H39.8995V67.1143H37.8736ZM40.1181 67.1143V65.213H42.0194V67.1143H40.1181ZM42.2333 69.3588V67.3329H44.2592V69.3588H42.2333ZM44.4778 71.474V69.5727H46.3791V71.474H44.4778ZM46.593 71.6926H48.6189V73.7185H46.593V71.6926ZM46.593 73.937H48.6189V75.8384H46.593V73.937ZM46.593 76.0523H48.6189V78.0782H46.593V76.0523ZM46.593 78.2967H48.6189V80.1981H46.593V78.2967ZM46.593 82.4425V80.4166H48.6189V82.4425H46.593ZM48.8374 82.4425V80.4166H50.7388V82.4425H48.8374ZM50.9527 82.4425V80.4166H52.9786V82.4425H50.9527ZM53.1971 82.4425V80.4166H55.0985V82.4425H53.1971ZM55.3123 82.4425V80.4166H57.3288V82.4425H55.3123ZM57.5568 82.4425V80.4166H59.4581V82.4425H57.5568ZM59.672 82.4425V80.4166H61.6979V82.4425H59.672ZM61.9165 82.4425V80.4166H63.8178V82.4425H61.9165ZM64.0317 82.4425V80.4166H66.0576V82.4425H64.0317ZM66.2762 82.4425V80.4166H68.1775V82.4425H66.2762ZM70.422 82.4425H68.3961V80.4166H70.422V82.4425ZM70.422 80.1981H68.3961V78.2967H70.422V80.1981ZM70.422 78.0829H68.3961V76.0664H70.422V78.0829ZM72.5372 75.8384H70.6359V73.937H72.5372V75.8384ZM72.5372 73.7232H70.6359V71.6973H72.5372V73.7232ZM72.5372 71.4787H70.6359V69.5774H72.5372V71.4787ZM72.5372 69.3635H70.6359V67.3376H72.5372V69.3635ZM72.7558 67.119V65.2177H74.7817V67.119H72.7558ZM75.0002 67.119V65.2177H76.9016V67.119H75.0002ZM77.1155 67.119V65.2177H79.1413V67.119H77.1155ZM79.3599 67.119V65.2177H81.2613V67.119H79.3599ZM83.5057 67.119H81.4798V65.2177H83.5057V67.119ZM83.5057 65.0038H81.4798V62.9756H83.5057V65.0038ZM83.5057 60.858V62.7617H81.4798V60.8603L83.5057 60.858ZM81.2613 60.6394H79.3599V58.6159H81.2613V60.6394ZM81.2613 56.4936V58.3973H79.3599V56.4936H81.2613ZM79.146 56.275H77.1201V54.2515H79.146V56.275ZM79.146 52.1292V54.0329H77.1201V52.1292H79.146ZM76.9016 51.9107H75.0002V49.8871H76.9016V51.9107ZM76.9016 47.7648V49.6685H75.0002V47.7648H76.9016ZM74.7864 47.7648V49.6685H72.7699V47.7648H74.7864ZM72.5419 47.7648V49.6685H70.6406V47.7648H72.5419ZM70.4267 45.5227V47.5463H68.4008V45.5227H70.4267ZM68.1822 45.5227V47.5463H66.2809V45.5227H68.1822ZM66.067 45.5227V47.5463H64.0411V45.5227H66.067ZM63.8225 45.5227V47.5463H61.9212V45.5227H63.8225ZM61.7073 45.5227V47.5463H59.6791V45.5227H61.7073ZM59.4629 45.5227V47.5463H57.5639V45.5227H59.4629ZM57.3476 45.5227V47.5463H55.3217V45.5227H57.3476ZM55.1032 45.5227V47.5463H53.1924V45.5227H55.1032ZM52.988 45.5227V47.5463H50.9621V45.5227H52.988Z" fill="white"/>
</g>
<path d="M45.7191 69.6713C45.7191 69.6713 45.3101 65.455 44.6309 64.1624C43.9517 62.8697 42.6567 60.5595 42.4546 60.355" stroke="#263238" stroke-width="0.44" stroke-linecap="round" stroke-linejoin="round"/>
<path d="M43.4959 57.4082C43.4222 57.0247 43.3241 56.6464 43.2021 56.2754" stroke="#263238" stroke-width="0.44" stroke-linecap="round" stroke-linejoin="round"/>
<path d="M75.3978 51.8872C75.3978 51.8872 75.0617 52.3102 74.6128 52.9566" stroke="#263238" stroke-width="0.44" stroke-linecap="round" stroke-linejoin="round"/>
<path d="M73.614 67.5185C73.614 67.5185 71.95 66.3434 72.225 65.1495C72.5 63.9555 74.862 59.3796 74.9066 59.0083" stroke="#263238" stroke-width="0.44" stroke-linecap="round" stroke-linejoin="round"/>
<path d="M78.3662 63.4621C78.8469 63.3082 79.3377 63.1881 79.8351 63.1025" stroke="#263238" stroke-width="0.44" stroke-linecap="round" stroke-linejoin="round"/>
<path d="M75.104 65.8123C75.104 65.8123 75.6093 64.6583 77.4801 63.8052" stroke="#263238" stroke-width="0.44" stroke-linecap="round" stroke-linejoin="round"/>
<path d="M58.7466 73.2017L58.8124 74.7552" stroke="#263238" stroke-width="0.44" stroke-linecap="round" stroke-linejoin="round"/>
<path d="M58.1567 59.4126L58.7208 72.5669" stroke="#263238" stroke-width="0.44" stroke-linecap="round" stroke-linejoin="round"/>
<path d="M52.3137 43.6264C52.3137 43.6264 44.9692 47.5019 43.27 48.3268C41.5707 49.1518 39.5307 49.8216 39.1218 50.9121C38.7129 52.0026 35.3144 61.9958 34.7692 63.3683C34.2239 64.7408 35.4507 66.5646 35.5189 66.9712C35.5871 67.3778 35.2463 68.4002 35.3826 68.6728C35.576 69.0053 35.6917 69.3773 35.721 69.7609C35.721 70.1675 39.0536 67.9912 41.1618 69.2909C43.27 70.5906 44.7647 73.0301 44.9692 73.5754C45.4008 74.989 45.6527 76.4514 45.7189 77.928C45.7847 79.7635 44.901 81.122 45.5144 82.008C46.1278 82.8941 47.2818 83.2301 47.2818 83.2301C47.2818 83.2301 62.7181 84.2501 66.1189 83.7002C69.5197 83.1502 71.6255 82.9528 71.9663 81.8646C72.3071 80.7765 72.2366 79.3475 72.3047 79.0749C72.3729 78.8023 72.9863 73.5683 73.2448 71.7892C73.5034 70.0101 75.36 68.7339 75.5575 68.5247C75.7549 68.3155 77.3272 67.8432 79.3672 67.7092C81.4072 67.5752 83.8538 69.2039 83.8538 69.2039C83.8538 69.2039 85.0101 69.2721 85.3509 67.4366C85.6917 65.601 85.0783 63.8313 84.4648 61.8595C83.8514 59.8876 81.2027 55.1966 81.2027 55.1966C81.2027 55.1966 80.9301 53.7676 79.299 50.3692C77.668 46.9707 77.0546 46.7639 75.7737 46.4913C74.4928 46.2187 67.757 44.3502 65.7782 43.6358C63.7993 42.9213 60.1963 42.6087 60.1963 42.6087C60.1963 42.6087 53.8766 42.47 52.3137 43.6264Z" stroke="#263238" stroke-width="0.44" stroke-linecap="round" stroke-linejoin="round"/>
<path d="M54.2173 48.874C54.2173 48.874 55.3054 52.2725 55.9847 54.108C56.6639 55.9435 58.0999 57.9859 58.0999 57.9859C58.0999 57.9859 60.5488 51.7977 60.7533 50.8459C60.9578 49.894 61.0894 49.3441 61.0894 49.3441L54.2173 48.874Z" fill="#8C8C8C" stroke="#263238" stroke-width="0.44" stroke-linecap="round" stroke-linejoin="round"/>
<path d="M52.3137 46.8904C52.3137 46.8904 51.7026 50.1526 51.7026 51.4452C51.7026 52.7378 51.7708 53.8941 51.7708 53.8941C51.9779 53.9239 52.1892 53.8958 52.3813 53.8128C52.5733 53.7298 52.7387 53.5953 52.859 53.4241C53.329 52.813 54.3443 52.0892 55.5382 51.4992C56.7321 50.9093 59.4443 51.1044 59.4443 51.1044C59.4443 51.1044 61.5595 52.6015 62.368 53.2196C63.1765 53.8377 63.9333 54.0375 63.9333 53.3559C63.9333 52.6744 63.388 49.6167 62.9814 47.8493C62.5748 46.082 62.2317 45.4004 62.2317 45.4004L52.6451 45.8093L52.3137 46.8904Z" fill="#FFD000" stroke="#263238" stroke-width="0.44" stroke-linecap="round" stroke-linejoin="round"/>
<path d="M73.0146 69.8525C73.0146 69.8525 73.1815 68.809 73.3084 68.3108C73.4353 67.8125 73.5999 66.9359 73.6821 66.7267C73.7644 66.5175 76.7233 64.4352 80.056 64.9358C83.3886 65.4364 86.4721 68.809 86.5567 69.5188C86.6413 70.2286 85.4732 72.976 85.2641 73.8503C85.0549 74.7246 83.9714 75.2252 83.3839 75.3497C82.885 75.4141 82.3792 75.4007 81.8844 75.3098C81.8844 75.3098 82.801 70.6093 80.9255 69.2274C79.05 67.8454 76.3026 69.3519 75.2192 69.7256C74.1357 70.0993 73.1815 70.2615 73.0146 69.8525Z" fill="#FFD000" stroke="#263238" stroke-width="0.44" stroke-linecap="round" stroke-linejoin="round"/>
<path d="M54.1373 80.5532L58.3677 87.4935C58.3677 87.4935 57.2725 89.101 54.7154 89.9777C52.1584 90.8543 48.3698 90.9177 47.0419 90.6357C45.714 90.3537 45.801 89.9048 47.19 86.6897C48.579 83.4746 52.1584 81.7213 54.1373 80.5532Z" fill="white" stroke="#263238" stroke-width="0.44" stroke-linecap="round" stroke-linejoin="round"/>
<path d="M56.5487 82.7432C56.5487 82.7432 55.4511 83.1827 55.2326 83.6199C55.014 84.057 53.625 86.1041 53.625 86.1041L62.1728 80.3319L61.7357 79.749L56.5487 82.7432Z" fill="#263238" stroke="#263238" stroke-width="0.44" stroke-linecap="round" stroke-linejoin="round"/>
<path d="M70.0582 76.9738C70.0582 76.9738 76.2581 76.9973 79.5343 76.1207C82.8105 75.244 84.4698 74.6659 84.7683 73.7234C85.0667 72.781 82.3687 68.3814 80.8551 67.8784C79.3416 67.3755 76.103 68.0335 74.2486 68.9266C72.3943 69.8197 67.668 72.4778 67.668 72.4778L70.0582 76.9738Z" fill="white" stroke="#263238" stroke-width="0.44" stroke-linecap="round" stroke-linejoin="round"/>
<path d="M65.7215 80.8375C65.7215 80.8375 69.8156 79.7305 70.0388 79.3803C70.2621 79.0301 70.5794 76.5812 69.8767 74.5036C69.174 72.426 66.4312 70.9665 65.7191 70.9359C65.007 70.9054 62.9341 72.7762 62.9341 72.7762L59.7307 76.7716C59.7307 76.7716 56.3511 78.4919 55.9704 79.1053C55.5896 79.7187 56.0456 82.2758 56.0926 82.8986C56.1396 83.5214 56.1231 84.4004 56.3464 85.1337C56.5697 85.867 57.1032 86.8329 57.4815 86.8446C57.8599 86.8564 58.2078 87.0797 58.5533 86.6801C58.8987 86.2806 58.7272 85.6648 58.5815 85.3828C58.4357 85.1008 58.5157 83.4227 58.6214 83.1642C58.7272 82.9057 58.4639 83.8457 58.8235 84.1936C59.1831 84.5414 59.5615 85.0984 59.8694 85.2841C60.1773 85.4698 60.4029 85.1595 61.5592 84.988C62.7155 84.8164 63.1339 84.8258 63.618 84.5814C64.1022 84.3369 64.3231 84.485 64.6827 83.747C65.0027 83.0109 65.224 82.2356 65.3407 81.4415L65.3619 81.1477L65.7215 80.8375Z" fill="#DBDBDB" stroke="#263238" stroke-width="0.44" stroke-linecap="round" stroke-linejoin="round"/>
<path d="M63.6137 81.124C63.6137 81.124 63.5855 82.9643 63.6278 83.5048C63.651 83.8664 63.651 84.2291 63.6278 84.5906" stroke="#263238" stroke-width="0.44" stroke-linecap="round" stroke-linejoin="round"/>
<path d="M61.2258 81.0537C61.2258 81.0537 60.7558 83.1689 61.113 83.9468C61.4702 84.7248 61.5596 84.9974 61.5596 84.9974" stroke="#263238" stroke-width="0.44" stroke-linecap="round" stroke-linejoin="round"/>
<path d="M58.8917 80.5649L58.6309 83.1737" stroke="#263238" stroke-width="0.44" stroke-linecap="round" stroke-linejoin="round"/>
<path d="M59.0332 83.519C59.0332 83.519 59.931 82.6988 61.0145 83.2018" stroke="#263238" stroke-width="0.44" stroke-linecap="round" stroke-linejoin="round"/>
<path d="M62.0015 83.002C62.0015 83.002 63.0826 82.3745 63.6302 83.002C63.6302 83.002 64.3211 82.7412 64.6925 83.7565" stroke="#263238" stroke-width="0.44" stroke-linecap="round" stroke-linejoin="round"/>
<path d="M60.8403 76.5293C60.8403 76.5293 63.9826 77.2085 65.0943 80.2591" stroke="#263238" stroke-width="0.44" stroke-linecap="round" stroke-linejoin="round"/>
<path d="M56.9129 91.4485C56.9129 91.4485 57.2796 91.0302 56.0363 90.1888C55.7083 89.9465 55.3113 89.8157 54.9035 89.8157C54.4957 89.8157 54.0986 89.9465 53.7707 90.1888C53.7707 90.1888 53.4064 89.3474 52.7483 89.2628L52.0902 89.1806C52.0902 89.1806 52.0174 87.5824 51.2136 87.4132C50.4098 87.244 50.0385 88.17 50.0385 88.17C50.0385 88.17 48.9433 87.1617 48.2852 87.4132C48.0961 87.4831 47.9253 87.5952 47.7861 87.741C47.6468 87.8868 47.5426 88.0624 47.4814 88.2546C47.4814 88.2546 46.6048 86.9948 46.0196 87.3309C45.4344 87.667 45.2887 88.6753 45.2887 88.6753C45.2887 88.6753 44.5577 88.2546 44.0477 88.8445C43.5377 89.4344 43.6082 89.9373 43.6082 89.9373C43.6082 89.9373 42.8773 89.0114 42.2216 89.6835C42.035 89.8544 41.8865 90.0626 41.7857 90.2946C41.6849 90.5266 41.634 90.7772 41.6364 91.0302C41.6364 91.0302 40.9055 90.7764 40.8326 91.1971L40.7598 91.6178H57.8554L56.9129 91.4485Z" fill="#9E9E9E" stroke="#263238" stroke-width="0.44" stroke-linecap="round" stroke-linejoin="round"/>
<path d="M39.425 66.6772C39.425 66.6772 33.9396 68.0122 33.6434 68.8277C33.3473 69.6432 33.8644 73.2744 34.0876 74.017C34.3109 74.7597 35.4978 75.0558 36.6071 75.4272C37.7164 75.7985 41.2041 76.6023 42.3158 76.6869C43.4275 76.7715 44.6143 76.9102 45.1361 76.0218C45.6578 75.1334 45.5803 74.2426 45.8764 72.6116C46.1725 70.9805 47.3594 71.2766 45.0609 69.2014C42.7623 67.1261 40.3886 66.6772 39.425 66.6772Z" fill="#FFD000" stroke="#263238" stroke-width="0.44" stroke-linecap="round" stroke-linejoin="round"/>
<path d="M35.3472 72.238L37.4224 81.3569L43.2063 81.7259L44.3815 74.4613C44.3815 74.4613 43.714 72.0899 40.6751 71.1263C37.6363 70.1627 35.3472 72.238 35.3472 72.238Z" fill="white" stroke="#263238" stroke-width="0.44" stroke-linecap="round" stroke-linejoin="round"/>
<path d="M44.3184 85.4344C44.3184 85.4344 44.1703 79.7257 44.2432 79.2815C44.316 78.8373 43.7238 77.5 40.2478 77.5C36.7718 77.5 34.4662 80.0218 34.6072 80.6141C34.7482 81.2063 35.7189 84.9878 35.7189 84.9878C35.622 85.576 35.5725 86.1709 35.5708 86.767C35.5708 87.7306 34.7553 88.4732 35.0514 89.5873C35.3475 90.7013 36.7553 92.9974 37.6367 92.6261C38.518 92.2548 38.8235 92.1819 38.525 91.0703C38.2266 89.9586 38.008 89.1431 38.008 89.1431C38.008 89.1431 38.8964 92.0338 39.3406 92.7742C39.4998 93.0575 39.7403 93.2867 40.031 93.432C40.3218 93.5774 40.6494 93.6323 40.9716 93.5897L41.4182 93.5168C41.6494 93.6882 41.9201 93.7984 42.2053 93.837C42.4905 93.8756 42.7808 93.8415 43.0492 93.7378C43.9376 93.3688 44.0857 92.7742 44.0857 92.7742C44.0857 92.7742 44.7532 93.1455 45.0493 91.6625C45.3454 90.1795 45.7168 88.4756 45.2843 87.1407C44.8519 85.8057 44.3184 85.4344 44.3184 85.4344Z" fill="#DBDBDB" stroke="#263238" stroke-width="0.44" stroke-linecap="round" stroke-linejoin="round"/>
<path d="M35.7188 84.988C35.7188 84.988 35.9397 83.5778 39.0537 83.2841C42.1678 82.9903 43.4275 84.3205 43.4275 84.3205" stroke="#263238" stroke-width="0.44" stroke-linecap="round" stroke-linejoin="round"/>
<path d="M37.6458 87.3614C37.6458 87.3614 36.0147 86.5459 35.2744 87.9537" stroke="#263238" stroke-width="0.44" stroke-linecap="round" stroke-linejoin="round"/>
<path d="M41.4275 93.5147C41.4275 93.5147 40.8493 89.531 40.666 88.8965L41.4275 93.5147Z" fill="white"/>
<path d="M41.4275 93.5147C41.4275 93.5147 40.8493 89.531 40.666 88.8965" stroke="#263238" stroke-width="0.44" stroke-linecap="round" stroke-linejoin="round"/>
<path d="M44.0949 92.772C44.0949 92.772 43.7541 89.2137 43.7095 88.4429L44.0949 92.772Z" fill="white"/>
<path d="M44.0949 92.772C44.0949 92.772 43.7541 89.2137 43.7095 88.4429" stroke="#263238" stroke-width="0.44" stroke-linecap="round" stroke-linejoin="round"/>
<path d="M49.1553 40.2559C49.1553 40.2559 49.3268 42.3123 50.0131 42.9116C50.6994 43.5109 50.7957 43.9387 50.7957 43.9387V40.2606L49.1553 40.2559Z" fill="white" stroke="#263238" stroke-width="0.44" stroke-linecap="round" stroke-linejoin="round"/>
<path d="M50.5983 41.5884C50.5983 41.5884 51.1999 46.2443 52.1118 47.6074C53.0237 48.9705 54.3774 51.6968 55.3152 52.0094C56.2529 52.322 58.2412 53.074 60.4599 51.5393C62.6785 50.0046 63.3788 46.1056 63.7267 44.5121L64.0745 42.921C64.0745 42.921 66.0887 42.4956 66.366 40.3734C66.6433 38.2511 66.1686 38.1665 66.1686 38.1665C66.1686 38.1665 65.1697 39.0032 59.4445 39.0925C53.7194 39.1818 52.0695 39.2594 51.2187 39.1489C50.7493 39.0785 50.2709 39.0977 49.8086 39.2053L50.5983 41.5884Z" fill="white" stroke="#263238" stroke-width="0.44" stroke-linecap="round" stroke-linejoin="round"/>
<path d="M58.2082 46.4581C57.9547 46.7884 57.6344 47.0615 57.2681 47.2596C56.7017 47.5416 55.8579 47.3536 55.6652 46.9752C55.4725 46.5968 55.8532 43.3464 55.8532 43.3464L55.2422 42.3076" fill="white"/>
<path d="M58.2082 46.4581C57.9547 46.7884 57.6344 47.0615 57.2681 47.2596C56.7017 47.5416 55.8579 47.3536 55.6652 46.9752C55.4725 46.5968 55.8532 43.3464 55.8532 43.3464L55.2422 42.3076" stroke="#263238" stroke-width="0.44" stroke-linecap="round" stroke-linejoin="round"/>
<path d="M54.389 43.2337C54.389 43.6098 54.2009 43.9153 53.9659 43.9153C53.7309 43.9153 53.5405 43.6098 53.5405 43.2337C53.5405 42.8577 53.7309 42.5498 53.9659 42.5498C54.2009 42.5498 54.389 42.8506 54.389 43.2337Z" fill="#263238" stroke="#263238" stroke-width="0.44" stroke-linecap="round" stroke-linejoin="round"/>
<path d="M59.8108 43.4168C59.8108 43.7929 59.6228 44.1007 59.3878 44.1007C59.1528 44.1007 58.9624 43.7929 58.9624 43.4168C58.9624 43.0408 59.1528 42.7329 59.3878 42.7329C59.6228 42.7329 59.8108 43.0384 59.8108 43.4168Z" fill="#263238" stroke="#263238" stroke-width="0.44" stroke-linecap="round" stroke-linejoin="round"/>
<path d="M54.5327 47.9673C54.5327 47.9673 55.0968 48.8157 56.7466 48.9567C57.8055 49.0142 58.8571 48.7513 59.7643 48.2023" stroke="#263238" stroke-width="0.44" stroke-linecap="round" stroke-linejoin="round"/>
<path d="M58.6802 44.5708C58.6802 44.5708 59.6203 45.1372 60.3253 44.9492" stroke="#263238" stroke-width="0.44" stroke-linecap="round" stroke-linejoin="round"/>
<path d="M54.8615 43.9106C54.8615 43.9106 54.2011 44.6157 53.4937 44.7121" stroke="#263238" stroke-width="0.44" stroke-linecap="round" stroke-linejoin="round"/>
<path d="M55.1007 26.8714C55.1007 26.8714 52.5154 27.6211 51.2745 29.3391C50.0336 31.0572 49.3215 34.5379 49.3215 34.5379C49.3215 34.5379 48.5764 34.8622 48.5529 35.3158C48.5335 35.6079 48.5383 35.9011 48.567 36.1924C48.5858 36.4063 47.909 37.2171 48.097 37.6496C48.285 38.082 48.1675 39.1678 48.567 40.0962C48.9666 41.0245 49.5424 41.6614 51.1946 41.8988C52.8468 42.1362 58.854 42.397 60.1913 42.256C61.5286 42.115 63.1949 41.551 63.8577 41.0292C64.5204 40.5074 67.2631 37.8517 67.1174 37.1795C66.9717 36.5074 66.9858 35.6895 66.6991 35.3722C66.4124 35.0549 66.0739 34.6131 66.0739 34.6131C66.0739 34.6131 65.3195 30.3074 63.9094 28.9326C63.1122 28.1365 62.1994 27.4654 61.2019 26.9419C60.8293 26.6467 60.3704 26.4816 59.8952 26.4719C59.1666 26.493 58.7036 26.1052 58.015 26.1898L57.3099 26.2744C57.3099 26.2744 55.5049 26.1052 55.1007 26.8714Z" fill="white" stroke="#263238" stroke-width="0.44" stroke-linecap="round" stroke-linejoin="round"/>
<path d="M49.3218 34.5376V38.077C49.3218 38.077 51.6086 39.4402 56.5064 39.5177C61.4043 39.5953 63.6182 38.9278 64.2622 38.5776C64.9062 38.2275 65.6724 37.7433 65.6724 37.7433C65.6724 37.7433 65.4984 36.493 65.5924 35.8631C65.6784 35.4224 65.8441 35.0011 66.0813 34.6199" stroke="#263238" stroke-width="0.44" stroke-linecap="round" stroke-linejoin="round"/>
<path d="M51.4298 38.7073C51.4298 38.7073 51.3475 36.8272 51.6366 35.9646C51.9257 35.1021 53.6601 34.8624 54.2665 33.7155C54.8729 32.5685 54.9598 29.2124 55.0609 28.4321" stroke="#263238" stroke-width="0.44" stroke-linecap="round" stroke-linejoin="round"/>
<path d="M61.8983 38.7191C61.8983 38.7191 62.3919 36.8084 61.1932 35.5651C59.9946 34.3218 58.4505 35.3583 57.6679 33.048C56.8853 30.7377 57.4963 27.7435 58.1379 26.6577" stroke="#263238" stroke-width="0.44" stroke-linecap="round" stroke-linejoin="round"/>
<path d="M58.7658 90.7954C58.681 91.1215 58.665 91.4616 58.7188 91.7942L48.8149 91.618L32.0201 96.6381C32.18 97.463 31.3409 96.6968 31.4819 97.463L31.6206 98.2315L24.0811 102.57V103.484V108.504V109.416V114.446H110.861V85.7729H58.7658V90.7954Z" fill="#9E9E9E" stroke="#263238" stroke-width="0.44" stroke-linecap="round" stroke-linejoin="round"/>
<path d="M75.5604 85.7754H58.7656V90.7955H75.5604V85.7754Z" fill="white" stroke="#263238" stroke-width="0.44" stroke-linecap="round" stroke-linejoin="round"/>
<path d="M93.2674 85.7754H76.4727V90.7955H93.2674V85.7754Z" fill="white" stroke="#263238" stroke-width="0.44" stroke-linecap="round" stroke-linejoin="round"/>
<path d="M48.8148 91.6182H32.02V96.6383H48.8148V91.6182Z" fill="white" stroke="#263238" stroke-width="0.44" stroke-linecap="round" stroke-linejoin="round"/>
<path d="M66.5238 91.6182H49.729V96.6383H66.5238V91.6182Z" fill="white" stroke="#263238" stroke-width="0.44" stroke-linecap="round" stroke-linejoin="round"/>
<path d="M84.3221 91.6182H67.5273V96.6383H84.3221V91.6182Z" fill="white" stroke="#263238" stroke-width="0.44" stroke-linecap="round" stroke-linejoin="round"/>
<path d="M102.029 91.6182H85.2339V96.6383H102.029V91.6182Z" fill="white" stroke="#263238" stroke-width="0.44" stroke-linecap="round" stroke-linejoin="round"/>
<path d="M110.863 91.6182H102.743V96.6383H110.863V91.6182Z" fill="white" stroke="#263238" stroke-width="0.44" stroke-linecap="round" stroke-linejoin="round"/>
<path d="M40.8758 97.5498H24.0811V102.57H40.8758V97.5498Z" fill="white" stroke="#263238" stroke-width="0.44" stroke-linecap="round" stroke-linejoin="round"/>
<path d="M58.5824 97.5498H41.7876V102.57H58.5824V97.5498Z" fill="white" stroke="#263238" stroke-width="0.44" stroke-linecap="round" stroke-linejoin="round"/>
<path d="M76.3807 97.5498H59.5859V102.57H76.3807V97.5498Z" fill="white" stroke="#263238" stroke-width="0.44" stroke-linecap="round" stroke-linejoin="round"/>
<path d="M94.0892 97.5498H77.2944V102.57H94.0892V97.5498Z" fill="white" stroke="#263238" stroke-width="0.44" stroke-linecap="round" stroke-linejoin="round"/>
<path d="M48.8148 103.484H32.02V108.504H48.8148V103.484Z" fill="white" stroke="#263238" stroke-width="0.44" stroke-linecap="round" stroke-linejoin="round"/>
<path d="M31.2465 103.484H24.0713V108.504H31.2465V103.484Z" fill="white" stroke="#263238" stroke-width="0.44" stroke-linecap="round" stroke-linejoin="round"/>
<path d="M66.5238 103.484H49.729V108.504H66.5238V103.484Z" fill="white" stroke="#263238" stroke-width="0.44" stroke-linecap="round" stroke-linejoin="round"/>
<path d="M84.3221 103.484H67.5273V108.504H84.3221V103.484Z" fill="white" stroke="#263238" stroke-width="0.44" stroke-linecap="round" stroke-linejoin="round"/>
<path d="M102.029 103.484H85.2339V108.504H102.029V103.484Z" fill="white" stroke="#263238" stroke-width="0.44" stroke-linecap="round" stroke-linejoin="round"/>
<path d="M110.863 103.484H102.743V108.504H110.863V103.484Z" fill="white" stroke="#263238" stroke-width="0.44" stroke-linecap="round" stroke-linejoin="round"/>
<path d="M40.8758 109.417H24.0811V114.437H40.8758V109.417Z" fill="white" stroke="#263238" stroke-width="0.44" stroke-linecap="round" stroke-linejoin="round"/>
<path d="M58.5824 109.416H41.7876V114.436H58.5824V109.416Z" fill="white" stroke="#263238" stroke-width="0.44" stroke-linecap="round" stroke-linejoin="round"/>
<path d="M76.3807 109.416H59.5859V114.436H76.3807V109.416Z" fill="white" stroke="#263238" stroke-width="0.44" stroke-linecap="round" stroke-linejoin="round"/>
<path d="M94.0892 109.416H77.2944V114.436H94.0892V109.416Z" fill="white" stroke="#263238" stroke-width="0.44" stroke-linecap="round" stroke-linejoin="round"/>
<path d="M110.863 85.7754H94.1035V90.7955H110.863V85.7754Z" fill="white" stroke="#263238" stroke-width="0.44" stroke-linecap="round" stroke-linejoin="round"/>
<path d="M110.861 97.5498H94.9243V102.57H110.861V97.5498Z" fill="white" stroke="#263238" stroke-width="0.44" stroke-linecap="round" stroke-linejoin="round"/>
<path d="M110.861 109.417H94.9243V114.437H110.861V109.417Z" fill="white" stroke="#263238" stroke-width="0.44" stroke-linecap="round" stroke-linejoin="round"/>
</g>
<defs>
<clipPath id="clip0_159_12779">
<rect width="120" height="120" fill="white" transform="translate(0.5)"/>
</clipPath>
</defs>
</svg>
