<svg width="210" height="210" viewBox="0 0 210 210" fill="none" xmlns="http://www.w3.org/2000/svg">
<g clip-path="url(#clip0_171_19172)">
<path opacity="0.5" d="M210.001 190.499C210.001 190.559 143.998 190.374 68.6152 190.374C-6.76765 190.374 0.774134 190.559 0.774134 190.499C0.774134 190.44 -6.79604 190.153 68.6152 190.153C144.026 190.153 210.001 190.436 210.001 190.499Z" fill="#263238"/>
<path d="M97.4255 16.0932C97.4255 16.0932 66.845 17.6449 47.1065 43.5464C27.368 69.4479 26.8149 104.819 25.6213 133.466C24.4277 162.113 41.214 183.809 65.8264 186.669C90.4388 189.53 97.0714 167.528 124.68 155.146C152.288 142.764 161.507 143.651 178.019 118.227C194.53 92.8031 182.992 53.716 153.036 33.6871C123.08 13.6582 97.4255 16.0932 97.4255 16.0932Z" fill="#FFD000"/>
<path opacity="0.7" d="M97.4255 16.0932C97.4255 16.0932 66.845 17.6449 47.1065 43.5464C27.368 69.4479 26.8149 104.819 25.6213 133.466C24.4277 162.113 41.214 183.809 65.8264 186.669C90.4388 189.53 97.0714 167.528 124.68 155.146C152.288 142.764 161.507 143.651 178.019 118.227C194.53 92.8031 182.992 53.716 153.036 33.6871C123.08 13.6582 97.4255 16.0932 97.4255 16.0932Z" fill="white"/>
<path d="M37.7335 151.911C35.7077 151.91 33.7271 152.51 32.0423 153.635C30.3575 154.76 29.0442 156.36 28.2686 158.231C27.493 160.103 27.2898 162.162 27.6849 164.149C28.0799 166.136 29.0554 167.962 30.4879 169.394C31.9204 170.827 33.7456 171.802 35.7325 172.197C37.7195 172.592 39.779 172.389 41.6505 171.613C43.522 170.838 45.1215 169.524 46.2465 167.84C47.3715 166.155 47.9716 164.174 47.9708 162.148C47.9708 159.433 46.8922 156.829 44.9724 154.91C43.0525 152.99 40.4486 151.911 37.7335 151.911ZM37.7335 165.837C37.0009 165.837 36.2847 165.619 35.6756 165.212C35.0664 164.805 34.5916 164.227 34.3113 163.55C34.0309 162.873 33.9576 162.128 34.1005 161.41C34.2434 160.691 34.5962 160.031 35.1143 159.513C35.6323 158.995 36.2923 158.642 37.0109 158.499C37.7294 158.357 38.4742 158.43 39.1511 158.71C39.8279 158.991 40.4064 159.465 40.8134 160.075C41.2205 160.684 41.4377 161.4 41.4377 162.132C41.4398 162.62 41.3455 163.104 41.1603 163.555C40.9751 164.006 40.7026 164.416 40.3584 164.762C40.0142 165.108 39.6052 165.382 39.1547 165.569C38.7043 165.756 38.2213 165.853 37.7335 165.853V165.837Z" fill="#263238"/>
<path d="M37.7333 135.789C36.4836 135.789 35.2621 136.16 34.2231 136.854C33.184 137.548 32.3742 138.535 31.896 139.689C31.4178 140.844 31.2927 142.114 31.5364 143.34C31.7802 144.566 32.382 145.691 33.2656 146.575C34.1492 147.459 35.275 148.06 36.5006 148.304C37.7263 148.548 38.9966 148.423 40.1511 147.945C41.3057 147.466 42.2924 146.657 42.9867 145.618C43.6809 144.578 44.0515 143.357 44.0515 142.107C44.0515 140.432 43.3858 138.825 42.2009 137.64C41.016 136.455 39.409 135.789 37.7333 135.789ZM37.7333 144.391C37.2816 144.391 36.84 144.257 36.4645 144.006C36.0889 143.755 35.7962 143.399 35.6233 142.981C35.4505 142.564 35.4052 142.105 35.4934 141.662C35.5815 141.219 35.799 140.812 36.1184 140.492C36.4378 140.173 36.8447 139.956 37.2877 139.867C37.7307 139.779 38.1899 139.824 38.6072 139.997C39.0245 140.17 39.3812 140.463 39.6322 140.838C39.8831 141.214 40.0171 141.656 40.0171 142.107C40.0171 142.713 39.7764 143.294 39.3482 143.722C38.9199 144.15 38.339 144.391 37.7333 144.391Z" fill="#263238"/>
<path d="M49.3188 132.551H26.1467C25.2809 132.551 24.5791 133.253 24.5791 134.118V173.798C24.5791 174.664 25.2809 175.366 26.1467 175.366H49.3188C50.1846 175.366 50.8865 174.664 50.8865 173.798V134.118C50.8865 133.253 50.1846 132.551 49.3188 132.551Z" stroke="#263238" stroke-width="0.45" stroke-miterlimit="10"/>
<path d="M162.649 151.911C160.624 151.911 158.644 152.512 156.959 153.637C155.275 154.763 153.962 156.363 153.187 158.234C152.412 160.106 152.21 162.165 152.605 164.152C153.001 166.139 153.977 167.963 155.409 169.395C156.842 170.828 158.667 171.803 160.654 172.197C162.641 172.592 164.7 172.389 166.571 171.613C168.443 170.837 170.042 169.524 171.167 167.839C172.292 166.155 172.891 164.174 172.891 162.148C172.891 160.804 172.626 159.472 172.111 158.23C171.596 156.988 170.842 155.859 169.891 154.908C168.94 153.957 167.811 153.203 166.568 152.689C165.326 152.175 163.994 151.911 162.649 151.911ZM162.649 165.837C161.917 165.837 161.201 165.619 160.592 165.212C159.982 164.805 159.508 164.227 159.227 163.55C158.947 162.873 158.874 162.128 159.016 161.41C159.159 160.691 159.512 160.031 160.03 159.513C160.548 158.995 161.208 158.642 161.927 158.499C162.645 158.357 163.39 158.43 164.067 158.71C164.744 158.991 165.322 159.465 165.729 160.075C166.136 160.684 166.354 161.4 166.354 162.132C166.356 162.62 166.262 163.104 166.077 163.556C165.892 164.007 165.62 164.417 165.276 164.763C164.931 165.109 164.522 165.383 164.071 165.57C163.621 165.757 163.137 165.853 162.649 165.853V165.837Z" fill="#263238"/>
<path d="M162.649 135.789C161.4 135.789 160.178 136.16 159.139 136.854C158.1 137.548 157.29 138.535 156.812 139.689C156.334 140.844 156.209 142.114 156.452 143.34C156.696 144.566 157.298 145.691 158.182 146.575C159.065 147.459 160.191 148.06 161.417 148.304C162.642 148.548 163.913 148.423 165.067 147.945C166.222 147.466 167.208 146.657 167.903 145.618C168.597 144.578 168.968 143.357 168.968 142.107C168.968 140.432 168.302 138.825 167.117 137.64C165.932 136.455 164.325 135.789 162.649 135.789ZM162.649 144.391C162.198 144.39 161.757 144.256 161.382 144.004C161.007 143.753 160.714 143.396 160.542 142.979C160.37 142.561 160.325 142.102 160.414 141.659C160.502 141.217 160.72 140.81 161.04 140.491C161.359 140.172 161.766 139.955 162.209 139.867C162.652 139.779 163.111 139.825 163.528 139.998C163.945 140.171 164.302 140.463 164.552 140.839C164.803 141.214 164.937 141.656 164.937 142.107C164.937 142.408 164.878 142.705 164.763 142.982C164.648 143.26 164.479 143.511 164.267 143.724C164.054 143.936 163.802 144.104 163.524 144.218C163.247 144.333 162.95 144.392 162.649 144.391Z" fill="#263238"/>
<path d="M174.24 132.551H151.068C150.202 132.551 149.5 133.253 149.5 134.118V173.798C149.5 174.664 150.202 175.366 151.068 175.366H174.24C175.106 175.366 175.807 174.664 175.807 173.798V134.118C175.807 133.253 175.106 132.551 174.24 132.551Z" stroke="#263238" stroke-width="0.45" stroke-miterlimit="10"/>
<path d="M61.9736 33.3203V40.0046" stroke="#263238" stroke-width="0.45" stroke-linecap="round" stroke-linejoin="round"/>
<path d="M65.3162 36.6631H58.6279" stroke="#263238" stroke-width="0.45" stroke-linecap="round" stroke-linejoin="round"/>
<path d="M47.3486 74.2617V78.8572" stroke="#263238" stroke-width="0.45" stroke-linecap="round" stroke-linejoin="round"/>
<path d="M49.6482 76.5615H45.0527" stroke="#263238" stroke-width="0.45" stroke-linecap="round" stroke-linejoin="round"/>
<path d="M148.456 29.9785V34.5739" stroke="#263238" stroke-width="0.45" stroke-linecap="round" stroke-linejoin="round"/>
<path d="M150.752 32.2744H146.156" stroke="#263238" stroke-width="0.45" stroke-linecap="round" stroke-linejoin="round"/>
<path d="M120.88 137.349V141.944" stroke="#263238" stroke-width="0.45" stroke-linecap="round" stroke-linejoin="round"/>
<path d="M123.178 139.648H118.583" stroke="#263238" stroke-width="0.45" stroke-linecap="round" stroke-linejoin="round"/>
<path d="M143.231 70.502V75.9329" stroke="#263238" stroke-width="0.45" stroke-linecap="round" stroke-linejoin="round"/>
<path d="M145.95 73.2197H140.519" stroke="#263238" stroke-width="0.45" stroke-linecap="round" stroke-linejoin="round"/>
<path d="M156.811 32.4854V37.9163" stroke="#263238" stroke-width="0.45" stroke-linecap="round" stroke-linejoin="round"/>
<path d="M159.525 35.1982H154.094" stroke="#263238" stroke-width="0.45" stroke-linecap="round" stroke-linejoin="round"/>
<path d="M37.3215 57.7578C37.3223 58.1304 37.2125 58.4948 37.006 58.8049C36.7995 59.115 36.5056 59.3568 36.1616 59.4997C35.8175 59.6427 35.4388 59.6803 35.0734 59.6078C34.708 59.5353 34.3723 59.356 34.1088 59.0926C33.8454 58.8291 33.6661 58.4934 33.5936 58.128C33.5211 57.7626 33.5587 57.3838 33.7016 57.0398C33.8446 56.6958 34.0864 56.4019 34.3965 56.1954C34.7066 55.9889 35.071 55.8791 35.4435 55.8799C35.9416 55.8799 36.4193 56.0777 36.7715 56.4299C37.1236 56.7821 37.3215 57.2598 37.3215 57.7578Z" stroke="#263238" stroke-width="0.45" stroke-linecap="round" stroke-linejoin="round"/>
<path d="M135.087 129.411C135.087 129.783 134.977 130.147 134.77 130.457C134.563 130.766 134.269 131.007 133.925 131.15C133.581 131.292 133.203 131.33 132.838 131.257C132.473 131.184 132.138 131.005 131.874 130.742C131.611 130.479 131.432 130.143 131.359 129.778C131.287 129.413 131.324 129.035 131.466 128.691C131.609 128.347 131.85 128.053 132.16 127.846C132.469 127.64 132.833 127.529 133.205 127.529C133.452 127.529 133.697 127.578 133.925 127.673C134.154 127.767 134.361 127.906 134.536 128.081C134.711 128.255 134.849 128.463 134.944 128.691C135.038 128.919 135.087 129.164 135.087 129.411Z" stroke="#263238" stroke-width="0.45" stroke-linecap="round" stroke-linejoin="round"/>
<path d="M165.583 66.9532C165.583 67.3254 165.473 67.6893 165.266 67.9988C165.059 68.3083 164.765 68.5495 164.421 68.6919C164.078 68.8344 163.699 68.8716 163.334 68.799C162.969 68.7264 162.634 68.5472 162.371 68.284C162.107 68.0208 161.928 67.6854 161.855 67.3204C161.783 66.9553 161.82 66.5769 161.963 66.233C162.105 65.8892 162.346 65.5952 162.656 65.3885C162.965 65.1817 163.329 65.0713 163.701 65.0713C163.949 65.0708 164.194 65.1191 164.422 65.2135C164.651 65.3079 164.858 65.4465 165.033 65.6213C165.208 65.7962 165.347 66.0039 165.441 66.2324C165.535 66.461 165.584 66.7059 165.583 66.9532Z" stroke="#263238" stroke-width="0.45" stroke-linecap="round" stroke-linejoin="round"/>
<path d="M47.348 26.6364C48.1566 26.6364 48.8121 25.9808 48.8121 25.1722C48.8121 24.3635 48.1566 23.708 47.348 23.708C46.5393 23.708 45.8838 24.3635 45.8838 25.1722C45.8838 25.9808 46.5393 26.6364 47.348 26.6364Z" stroke="#263238" stroke-width="0.45" stroke-linecap="round" stroke-linejoin="round"/>
<path d="M68.6585 130.664C69.4671 130.664 70.1227 130.008 70.1227 129.2C70.1227 128.391 69.4671 127.735 68.6585 127.735C67.8499 127.735 67.1943 128.391 67.1943 129.2C67.1943 130.008 67.8499 130.664 68.6585 130.664Z" stroke="#263238" stroke-width="0.45" stroke-linecap="round" stroke-linejoin="round"/>
<path d="M34.8157 94.736C35.6244 94.736 36.2799 94.0804 36.2799 93.2718C36.2799 92.4631 35.6244 91.8076 34.8157 91.8076C34.0071 91.8076 33.3516 92.4631 33.3516 93.2718C33.3516 94.0804 34.0071 94.736 34.8157 94.736Z" stroke="#263238" stroke-width="0.45" stroke-linecap="round" stroke-linejoin="round"/>
<path d="M27.4639 106.037H31.0049V101.724C31.0049 101.196 31.2145 100.69 31.5876 100.317C31.9607 99.944 32.4667 99.7344 32.9943 99.7344C33.5219 99.7344 34.0279 99.944 34.401 100.317C34.7741 100.69 34.9837 101.196 34.9837 101.724V114.018C34.9837 114.581 35.207 115.121 35.6046 115.519C36.0021 115.917 36.5415 116.142 37.1043 116.143C37.6678 116.143 38.2082 115.919 38.6067 115.52C39.0051 115.122 39.229 114.582 39.229 114.018V91.7371C39.23 91.0541 39.5021 90.3993 39.9855 89.9166C40.4689 89.434 41.1241 89.1629 41.8072 89.1629C42.1452 89.1629 42.48 89.2295 42.7923 89.3589C43.1046 89.4882 43.3884 89.6778 43.6275 89.9169C43.8665 90.1559 44.0561 90.4397 44.1855 90.752C44.3148 91.0644 44.3814 91.3991 44.3814 91.7371V121.578C44.3814 122.221 44.6371 122.839 45.0923 123.294C45.5474 123.749 46.1648 124.005 46.8085 124.005C47.4515 124.004 48.0678 123.747 48.522 123.292C48.9763 122.837 49.2315 122.221 49.2315 121.578V85.1722C49.2315 84.3281 49.5669 83.5185 50.1638 82.9215C50.7607 82.3246 51.5703 81.9893 52.4145 81.9893C53.2587 81.9893 54.0683 82.3246 54.6652 82.9215C55.2621 83.5185 55.5975 84.3281 55.5975 85.1722V121.418C55.5975 122.102 55.8691 122.758 56.3526 123.242C56.8361 123.725 57.4919 123.997 58.1757 123.997C58.8595 123.997 59.5153 123.725 59.9988 123.242C60.4823 122.758 60.7539 122.102 60.7539 121.418V92.5369C60.7539 91.7328 61.0733 90.9616 61.6419 90.3931C62.2105 89.8245 62.9816 89.5051 63.7857 89.5051C64.5898 89.5051 65.3609 89.8245 65.9295 90.3931C66.4981 90.9616 66.8175 91.7328 66.8175 92.5369V113.843C66.8175 114.446 67.0568 115.023 67.4829 115.449C67.909 115.875 68.4868 116.115 69.0893 116.115C69.388 116.115 69.6839 116.057 69.96 115.943C70.2361 115.829 70.487 115.662 70.6984 115.451C70.9097 115.24 71.0774 114.989 71.1919 114.713C71.3063 114.437 71.3652 114.142 71.3652 113.843V102.261C71.3652 101.686 71.5936 101.134 72.0003 100.728C72.4069 100.321 72.9585 100.092 73.5336 100.092C74.1087 100.092 74.6602 100.321 75.0669 100.728C75.4735 101.134 75.702 101.686 75.702 102.261V106.037H79.7364" stroke="#263238" stroke-width="0.45" stroke-miterlimit="10"/>
<path d="M76.8916 106.037H80.4168V101.724C80.4167 101.2 80.6236 100.697 80.9924 100.324C81.3612 99.9515 81.8621 99.7396 82.3862 99.7344C82.9138 99.7344 83.4198 99.944 83.7929 100.317C84.166 100.69 84.3756 101.196 84.3756 101.724V114.018C84.3756 114.582 84.5994 115.122 84.9979 115.52C85.3963 115.919 85.9367 116.143 86.5002 116.143C87.063 116.142 87.6024 115.917 88 115.519C88.3976 115.121 88.6209 114.581 88.6209 114.018V91.7371C88.622 91.0541 88.8941 90.3993 89.3774 89.9166C89.8608 89.434 90.516 89.1629 91.1991 89.1629C91.8818 89.1629 92.5366 89.4341 93.0194 89.9169C93.5021 90.3996 93.7734 91.0544 93.7734 91.7371V121.578C93.7734 122.221 94.0291 122.839 94.4842 123.294C94.9394 123.749 95.5567 124.005 96.2004 124.005C96.8434 124.004 97.4597 123.747 97.914 123.292C98.3683 122.837 98.6234 122.221 98.6234 121.578V85.1722C98.6234 84.3281 98.9588 83.5185 99.5557 82.9215C100.153 82.3246 100.962 81.9893 101.806 81.9893C102.651 81.9893 103.46 82.3246 104.057 82.9215C104.654 83.5185 104.989 84.3281 104.989 85.1722V121.418C104.989 121.757 105.055 122.092 105.184 122.405C105.313 122.718 105.503 123.002 105.742 123.241C105.981 123.481 106.265 123.671 106.578 123.8C106.89 123.93 107.225 123.997 107.564 123.997C107.902 123.997 108.237 123.93 108.55 123.8C108.863 123.671 109.147 123.481 109.387 123.242C109.626 123.002 109.816 122.718 109.946 122.405C110.075 122.092 110.142 121.757 110.142 121.418V92.5369C110.142 91.7328 110.461 90.9616 111.03 90.3931C111.598 89.8245 112.37 89.5051 113.174 89.5051C113.978 89.5051 114.749 89.8245 115.317 90.3931C115.886 90.9616 116.205 91.7328 116.205 92.5369V113.843C116.205 114.446 116.445 115.023 116.871 115.449C117.297 115.875 117.875 116.115 118.477 116.115C118.776 116.115 119.072 116.057 119.348 115.943C119.624 115.829 119.875 115.662 120.086 115.451C120.298 115.24 120.465 114.989 120.58 114.713C120.694 114.437 120.753 114.142 120.753 113.843V102.261C120.753 101.687 120.98 101.137 121.385 100.73C121.79 100.324 122.34 100.095 122.914 100.092C123.489 100.092 124.04 100.321 124.447 100.728C124.854 101.134 125.082 101.686 125.082 102.261V106.037H129.116" stroke="#263238" stroke-width="0.45" stroke-miterlimit="10"/>
<path d="M126.319 106.037H129.844V101.724C129.844 101.2 130.051 100.697 130.42 100.324C130.789 99.9515 131.29 99.7396 131.814 99.7344C132.338 99.7396 132.839 99.9515 133.208 100.324C133.577 100.697 133.783 101.2 133.783 101.724V114.018C133.783 114.582 134.007 115.122 134.406 115.52C134.804 115.919 135.345 116.143 135.908 116.143C136.472 116.143 137.012 115.919 137.41 115.52C137.809 115.122 138.033 114.582 138.033 114.018V91.7371C138.034 91.0541 138.306 90.3993 138.789 89.9166C139.273 89.434 139.928 89.1629 140.611 89.1629C140.949 89.1629 141.284 89.2295 141.596 89.3589C141.908 89.4882 142.192 89.6778 142.431 89.9169C142.67 90.1559 142.86 90.4397 142.989 90.752C143.119 91.0644 143.185 91.3991 143.185 91.7371V121.578C143.185 122.218 143.438 122.832 143.889 123.287C144.34 123.741 144.952 123.999 145.592 124.005C145.911 124.005 146.226 123.942 146.52 123.82C146.815 123.698 147.082 123.519 147.307 123.294C147.532 123.068 147.711 122.801 147.832 122.506C147.954 122.212 148.016 121.896 148.015 121.578V85.1722C148.015 84.3281 148.351 83.5185 148.948 82.9215C149.545 82.3246 150.354 81.9893 151.198 81.9893C152.043 81.9893 152.852 82.3246 153.449 82.9215C154.046 83.5185 154.381 84.3281 154.381 85.1722V121.418C154.381 122.102 154.652 122.757 155.135 123.24C155.618 123.724 156.272 123.996 156.956 123.997C157.294 123.997 157.629 123.93 157.942 123.8C158.255 123.671 158.539 123.481 158.779 123.242C159.018 123.002 159.208 122.718 159.338 122.405C159.467 122.092 159.534 121.757 159.534 121.418V92.5369C159.534 91.7328 159.853 90.9616 160.422 90.3931C160.99 89.8245 161.761 89.5051 162.566 89.5051C163.37 89.5051 164.141 89.8245 164.709 90.3931C165.278 90.9616 165.597 91.7328 165.597 92.5369V113.843C165.597 114.446 165.837 115.023 166.263 115.449C166.689 115.875 167.267 116.115 167.869 116.115C168.168 116.115 168.464 116.057 168.74 115.943C169.016 115.829 169.267 115.662 169.478 115.451C169.69 115.24 169.857 114.989 169.972 114.713C170.086 114.437 170.145 114.142 170.145 113.843V102.261C170.145 101.686 170.374 101.134 170.78 100.728C171.187 100.321 171.738 100.092 172.313 100.092C172.889 100.092 173.44 100.321 173.847 100.728C174.253 101.134 174.482 101.686 174.482 102.261V106.037H178.536" stroke="#263238" stroke-width="0.45" stroke-miterlimit="10"/>
<path d="M98.5321 199.6C119.875 199.6 137.178 195.486 137.178 190.41C137.178 185.334 119.875 181.219 98.5321 181.219C77.1889 181.219 59.8867 185.334 59.8867 190.41C59.8867 195.486 77.1889 199.6 98.5321 199.6Z" fill="#CACACA" stroke="#263238" stroke-width="0.45" stroke-linecap="round" stroke-linejoin="round"/>
<path d="M84.8143 34.5027C84.8143 34.5027 85.4389 32.5531 86.0079 31.0213C86.5768 29.4895 87.5397 28.2362 88.0291 27.886C88.5185 27.5359 90.9534 26.6924 95.6881 27.7468C100.423 28.8011 102.583 30.5319 103.347 31.1605C104.111 31.7892 104.115 32.8316 104.254 34.0849C104.351 34.9047 104.49 35.7188 104.672 36.5238C104.672 36.5238 104.183 35.4774 98.1947 34.6419C92.2067 33.8064 89.8911 33.2494 88.1564 34.0849C86.4217 34.9204 84.3965 35.9668 84.3965 35.9668L84.8143 34.5027Z" fill="#263238" stroke="#263238" stroke-width="0.45" stroke-linecap="round" stroke-linejoin="round"/>
<path d="M86.3097 44.5611C85.3719 44.4768 84.4413 44.3265 83.5246 44.1116C81.2527 43.658 79.3947 41.963 81.4596 39.1421C83.5246 36.3212 84.8654 34.1727 84.8654 34.1727C84.8654 34.1727 85.7208 32.5812 88.9953 31.7337C92.2698 30.8863 99.3719 33.0308 102.157 34.0971C104.942 35.1634 107.166 36.4724 108.193 38.2827C109.219 40.093 108.332 40.6461 106.661 42.3967C104.99 44.1474 103.947 44.6805 101.162 45.4444C98.3772 46.2083 86.3097 44.5611 86.3097 44.5611Z" fill="#263238" stroke="#263238" stroke-width="0.45" stroke-linecap="round" stroke-linejoin="round"/>
<path d="M88.4747 35.2785C88.4747 35.2785 85.7891 37.7573 85.7891 38.9947C85.7891 40.2321 85.996 44.362 86.3063 45.9097C86.6166 47.4574 88.8885 52.208 89.8155 52.9322C90.7426 53.6563 93.9455 52.8287 93.9455 52.8287L95.4972 54.8937L103.852 49.5264C103.852 49.5264 102.508 46.5304 102.404 46.22C102.325 45.5001 102.29 44.7759 102.301 44.0516C102.301 44.0516 103.542 43.4349 103.956 42.4005C104.216 41.6312 104.35 40.8252 104.354 40.0132C104.354 40.0132 100.741 36.4005 96.7147 35.1632C92.6882 33.9258 88.4747 35.2785 88.4747 35.2785Z" fill="white" stroke="#263238" stroke-width="0.45" stroke-linecap="round" stroke-linejoin="round"/>
<path d="M89.1977 39.1104L89.4046 40.7615C89.4046 40.7615 88.3701 41.8955 88.3701 42.723C88.3701 43.5506 89.8144 43.5506 89.8144 43.5506" stroke="#263238" stroke-width="0.45" stroke-linecap="round" stroke-linejoin="round"/>
<path d="M92.1904 38.5927L92.2939 39.3168L94.8761 38.4893" stroke="#263238" stroke-width="0.45" stroke-linecap="round" stroke-linejoin="round"/>
<path d="M87.1338 40.7617L86.8633 41.9116L88.5145 40.9806" stroke="#263238" stroke-width="0.45" stroke-linecap="round" stroke-linejoin="round"/>
<path d="M94.2795 39.6229C94.552 39.6229 94.7729 39.4323 94.7729 39.1972C94.7729 38.9621 94.552 38.7715 94.2795 38.7715C94.007 38.7715 93.7861 38.9621 93.7861 39.1972C93.7861 39.4323 94.007 39.6229 94.2795 39.6229Z" fill="#263238"/>
<path d="M88.3068 41.911C88.5793 41.911 88.8002 41.7204 88.8002 41.4853C88.8002 41.2502 88.5793 41.0596 88.3068 41.0596C88.0344 41.0596 87.8135 41.2502 87.8135 41.4853C87.8135 41.7204 88.0344 41.911 88.3068 41.911Z" fill="#263238"/>
<path d="M90.8018 37.7056C90.8018 37.7056 91.3628 35.7162 93.2367 35.3382C93.6208 35.2595 94.0183 35.2755 94.3948 35.3851C94.7713 35.4946 95.1153 35.6943 95.3972 35.9669" stroke="#263238" stroke-width="0.9" stroke-linecap="round" stroke-linejoin="round"/>
<path d="M88.5022 38.68C88.5022 38.68 87.8815 38.1986 87.3881 38.4015C87.1083 38.5229 86.865 38.7153 86.6822 38.9595C86.4994 39.2037 86.3834 39.4913 86.3457 39.794" stroke="#263238" stroke-width="0.9" stroke-linecap="round" stroke-linejoin="round"/>
<path d="M99.7857 37.9844C100.979 38.9592 100.761 40.4234 101.664 40.0732C102.261 39.8183 102.826 39.4937 103.347 39.1064C101.94 37.8894 100.392 36.8461 98.7354 35.999C98.7499 36.3876 98.8519 36.768 99.0338 37.1117C99.2156 37.4554 99.4726 37.7537 99.7857 37.9844Z" fill="#263238" stroke="#263238" stroke-width="0.45" stroke-linecap="round" stroke-linejoin="round"/>
<path d="M93.9453 52.8408L97.2755 50.3779L95.497 54.9057L93.9453 52.8408Z" fill="#263238" stroke="#263238" stroke-width="0.45" stroke-linecap="round" stroke-linejoin="round"/>
<path d="M92.9979 174.952C92.9979 174.952 87.8455 178.573 87.0099 178.712C86.1744 178.851 82.5538 179.547 82.136 180.383C81.7182 181.219 81.4397 182.333 82.8323 182.611C84.2248 182.89 90.4913 183.307 92.7194 183.307C94.9475 183.307 97.4541 183.447 98.6875 183.168C99.9209 182.89 101.89 183.447 102.587 180.661C103.283 177.876 103.144 175.648 102.726 174.116C102.308 172.585 92.9979 174.952 92.9979 174.952Z" fill="white" stroke="#263238" stroke-width="0.45" stroke-linecap="round" stroke-linejoin="round"/>
<path d="M99.8014 182.038C96.9998 181.745 94.183 181.622 91.3665 181.668C87.8095 181.776 83.0112 181.032 81.9329 180.853C81.6743 181.589 81.6902 182.38 82.8321 182.611C84.2247 182.89 90.4912 183.307 92.7193 183.307C94.9474 183.307 97.454 183.447 98.6874 183.168C99.3518 183.021 100.207 183.105 100.971 182.806L99.8014 182.038Z" stroke="#263238" stroke-width="0.45" stroke-linecap="round" stroke-linejoin="round"/>
<path d="M91.9081 180.395C91.8806 180.395 91.8534 180.39 91.828 180.379C91.8026 180.368 91.7796 180.353 91.7604 180.333C91.7411 180.313 91.726 180.29 91.7158 180.265C91.7056 180.239 91.7007 180.212 91.7012 180.184L91.7211 179.456C91.7211 179.429 91.7266 179.402 91.7373 179.376C91.748 179.351 91.7636 179.329 91.7833 179.31C91.803 179.291 91.8263 179.276 91.8519 179.266C91.8774 179.256 91.9047 179.252 91.932 179.253C91.9876 179.255 92.0402 179.279 92.0788 179.319C92.1174 179.359 92.1389 179.412 92.1389 179.468V180.192C92.1391 180.221 92.1331 180.25 92.1212 180.277C92.1094 180.303 92.0919 180.327 92.07 180.346C92.0481 180.366 92.0223 180.38 91.9943 180.388C91.9664 180.397 91.937 180.399 91.9081 180.395Z" fill="white" stroke="#263238" stroke-width="0.45" stroke-linecap="round" stroke-linejoin="round"/>
<path d="M91.9233 179.882C91.8146 179.874 91.7127 179.826 91.6387 179.746C91.5647 179.666 91.5242 179.561 91.5254 179.452L91.5891 176.647C91.5971 176.539 91.6453 176.438 91.7242 176.365C91.8031 176.291 91.9068 176.25 92.0148 176.249C92.1235 176.254 92.2259 176.302 92.3002 176.381C92.3745 176.461 92.4149 176.566 92.4127 176.675L92.349 179.48C92.3449 179.589 92.2979 179.693 92.2183 179.768C92.1387 179.843 92.0328 179.884 91.9233 179.882Z" fill="white" stroke="#263238" stroke-width="0.45" stroke-linecap="round" stroke-linejoin="round"/>
<path d="M87.0023 179.333C86.8885 179.332 86.777 179.301 86.6801 179.241C86.5832 179.181 86.5047 179.096 86.4533 178.994C86.3731 178.851 86.3311 178.689 86.3311 178.525C86.3311 178.36 86.3731 178.199 86.4533 178.055C86.7716 177.502 87.5753 177.395 87.9095 177.375C88.0702 177.375 88.2249 177.436 88.3418 177.546C88.4587 177.657 88.5289 177.807 88.5381 177.968C88.5473 178.128 88.4947 178.286 88.3911 178.409C88.2875 178.532 88.1408 178.61 87.9811 178.628C87.8629 178.638 87.7457 178.658 87.631 178.688C87.6356 178.808 87.6054 178.927 87.544 179.03C87.4825 179.133 87.3925 179.216 87.2848 179.269C87.1967 179.311 87.1001 179.333 87.0023 179.333Z" fill="white" stroke="#263238" stroke-width="0.45" stroke-linecap="round" stroke-linejoin="round"/>
<path d="M88.5493 178.378C88.4346 178.379 88.3218 178.348 88.224 178.288C88.1262 178.228 88.0472 178.142 87.9962 178.039C87.9161 177.896 87.874 177.734 87.874 177.57C87.874 177.406 87.9161 177.244 87.9962 177.1C88.3185 176.547 89.1222 176.444 89.4525 176.424C89.5345 176.419 89.6167 176.43 89.6944 176.457C89.7721 176.484 89.8437 176.526 89.9052 176.58C89.9667 176.635 90.0169 176.701 90.0529 176.775C90.0889 176.849 90.11 176.929 90.1149 177.011C90.1199 177.093 90.1086 177.175 90.0818 177.253C90.055 177.33 90.0132 177.402 89.9587 177.464C89.9042 177.525 89.8381 177.575 89.7642 177.611C89.6903 177.647 89.6101 177.668 89.5281 177.673C89.4085 177.682 89.2899 177.702 89.1739 177.733C89.1786 177.853 89.1484 177.972 89.0869 178.075C89.0255 178.178 88.9355 178.261 88.8278 178.314C88.741 178.356 88.6458 178.378 88.5493 178.378Z" fill="white" stroke="#263238" stroke-width="0.45" stroke-linecap="round" stroke-linejoin="round"/>
<path d="M90.0938 177.426C89.9794 177.427 89.8672 177.395 89.7696 177.335C89.672 177.276 89.5928 177.19 89.5408 177.088C89.4603 176.945 89.418 176.783 89.418 176.619C89.418 176.454 89.4603 176.293 89.5408 176.149C89.8591 175.592 90.6628 175.489 90.993 175.469C91.1587 175.459 91.3215 175.515 91.4458 175.625C91.57 175.735 91.6454 175.89 91.6555 176.056C91.6655 176.221 91.6093 176.384 91.4992 176.509C91.3892 176.633 91.2343 176.708 91.0686 176.718C90.95 176.727 90.8326 176.748 90.7185 176.782C90.7209 176.901 90.6897 177.018 90.6285 177.12C90.5672 177.222 90.4784 177.305 90.3723 177.359C90.2856 177.402 90.1905 177.425 90.0938 177.426Z" fill="white" stroke="#263238" stroke-width="0.45" stroke-linecap="round" stroke-linejoin="round"/>
<path d="M83.2822 179.813C83.2822 179.813 83.3499 179.949 84.7106 179.949C86.0713 179.949 86.4771 180.561 86.6124 181.035" stroke="#263238" stroke-width="0.45" stroke-linecap="round" stroke-linejoin="round"/>
<path d="M96.1533 179.34C96.4525 179.069 96.8173 178.881 97.2117 178.795" stroke="#263238" stroke-width="0.45" stroke-linecap="round" stroke-linejoin="round"/>
<path d="M94.291 181.581C94.6692 180.975 95.102 180.405 95.5841 179.878" stroke="#263238" stroke-width="0.45" stroke-linecap="round" stroke-linejoin="round"/>
<path d="M87.3209 106.852C87.3209 106.852 87.1816 115.625 87.1816 124.677C87.1816 133.728 87.6472 142.008 88.7731 144.654C89.8991 147.3 92.8712 161.026 93.1497 162.837C93.4282 164.647 93.0105 167.432 93.0105 168.805C93.0139 169.657 93.1549 170.504 93.4282 171.311C93.4282 171.311 92.732 172.425 92.732 173.122C92.732 173.818 91.8964 175.211 92.732 175.628C93.5675 176.046 94.1245 176.464 98.3022 177.16C102.48 177.856 105.126 173.818 105.822 172.704C106.518 171.59 102.559 145.052 102.002 140.178C101.445 135.304 101.815 125.214 102.651 121.315C103.486 117.416 103.069 108.364 102.512 106.554C101.955 104.743 96.5237 103.629 93.5993 103.908C90.675 104.186 87.3209 106.852 87.3209 106.852Z" fill="#263238" stroke="#263238" stroke-width="0.45" stroke-linecap="round" stroke-linejoin="round"/>
<path d="M98.0426 110.751C98.0426 110.751 95.0267 132.121 95.0267 135.603C95.0267 139.084 96.5585 142.983 96.9763 144.654C97.3941 146.325 98.9855 165.204 99.4033 166.458C99.8211 167.711 99.9603 171.053 99.9603 171.053C99.9603 171.053 98.8463 171.471 98.707 172.306C98.5678 173.142 99.2641 173.699 99.2641 174.395C99.2641 175.092 98.5678 176.206 98.2893 177.18C98.1354 177.829 98.184 178.51 98.4285 179.13C98.4285 179.13 95.6434 182.89 94.3901 184.143C93.1368 185.396 89.9339 187.764 88.1236 189.017C86.3133 190.27 82.6926 191.802 82.5534 193.752C82.4141 195.701 83.8067 197.372 87.2881 197.512C90.7695 197.651 97.036 197.79 100.517 197.372C103.999 196.955 110.822 193.055 111.936 191.663C113.05 190.27 113.763 190.131 113.763 186.232C113.763 182.333 113.902 178.573 113.763 178.155C113.623 177.737 113.365 177.041 113.623 174.813C113.805 173.545 113.661 172.251 113.206 171.053C113.434 170.369 113.62 169.671 113.763 168.964C113.902 168.129 112.788 166.179 112.788 166.179C112.788 166.179 113.564 151.756 113.564 148.553C113.564 145.351 109.525 138.388 109.525 138.388C109.525 138.388 110.082 135.463 110.082 134.906C110.082 134.349 109.247 132.957 109.247 132.957C109.247 132.957 113.365 121.474 113.763 119.942C114.16 118.411 115.294 113.397 115.573 111.726C115.851 110.055 114.877 106.574 113.623 104.485C112.37 102.396 106.939 99.8895 104.989 101.561C103.04 103.232 98.0426 110.751 98.0426 110.751Z" fill="#263238" stroke="#263238" stroke-width="0.45" stroke-linecap="round" stroke-linejoin="round"/>
<path d="M86.207 106.991C86.207 106.991 89.9669 113.536 92.4735 114.789C94.9801 116.043 97.4867 114.232 100.968 110.472C104.45 106.713 106.538 103.788 109.045 104.763C111.552 105.738 116.147 115.207 116.843 116.321C117.54 117.435 117.4 107.13 116.008 103.927C114.615 100.725 107.513 99.4713 98.8992 100.585C90.2852 101.699 86.207 106.991 86.207 106.991Z" fill="white" stroke="#263238" stroke-width="0.45" stroke-linecap="round" stroke-linejoin="round"/>
<path d="M85.5139 102.519C85.5139 102.519 85.2354 105.026 85.2354 106.418C85.2354 107.811 87.3242 107.672 87.3242 107.672C87.3242 107.672 93.5907 105.026 100.553 104.608C107.516 104.19 114.479 106.001 115.593 106.001C116.707 106.001 117.264 105.026 117.264 103.912C117.264 102.798 116.011 100.291 116.011 100.291C116.011 100.291 113.086 97.0883 104.453 96.8097C95.8188 96.5312 89.5523 96.6705 87.742 98.2023C85.9316 99.7341 85.5139 102.519 85.5139 102.519Z" fill="#666666" stroke="#263238" stroke-width="0.45" stroke-linecap="round" stroke-linejoin="round"/>
<path d="M103.394 47.9466C103.394 47.9466 95.5762 53.9147 93.9767 55.1441C92.3773 56.3735 93.7101 57.4518 94.0682 57.7184C94.4391 58.0953 94.7662 58.5131 95.043 58.9637C93.2006 60.6116 91.242 62.1248 89.1824 63.4915C85.7169 65.8031 85.0962 66.1572 84.1174 67.3986C83.1387 68.64 79.5021 72.7301 79.5021 72.7301C79.7969 71.4464 79.9754 70.1387 80.0352 68.823C80.0352 67.2315 80.7673 65.2859 79.9676 63.953C79.1679 62.6202 77.2143 60.9332 75.4398 60.9332C73.6653 60.9332 72.0619 61.5538 70.9956 63.2408C69.9293 64.9278 69.1097 68.3774 68.489 72.1094C67.8683 75.8415 65.1349 80.3852 66.2887 82.1597C67.4426 83.9342 69.3086 86.1384 71.7953 86.1384C74.282 86.1384 76.5021 85.9594 77.6599 84.8931C78.8178 83.8268 84.2965 81.5032 84.9172 81.0576C85.6044 80.6309 86.3166 80.2456 87.0497 79.9038C87.0497 79.9038 86.9622 86.7432 86.6081 89.4965C86.254 92.2498 83.9424 98.8226 83.7633 100.239C83.5843 101.655 85.8084 103.08 85.8084 103.08C85.8084 103.08 88.1161 100.693 94.9595 100.06C100.433 99.6352 105.935 99.7245 111.392 100.327C113.079 100.593 115.478 101.751 116.564 100.685C117.65 99.6184 118.338 99.6184 118.155 97.2192C117.972 94.82 117.626 92.2458 117.626 91.1795C117.626 90.1132 118.335 81.5868 118.335 81.3202C118.335 81.0536 120.646 70.9277 120.646 70.9277C120.646 70.9277 125.886 69.3362 129.439 68.6201C132.992 67.9039 134.5 63.026 133.346 60.1812C132.192 57.3364 127.661 54.4081 125.707 53.0752C123.754 51.7423 117.268 51.4837 116.381 51.8338C115.494 52.1839 112.74 51.6548 110.608 51.3882C108.475 51.1216 107.321 51.1216 106.967 51.2091L106.609 51.3007C106.609 51.3007 106.076 48.3683 105.28 47.8352C104.485 47.302 103.394 47.9466 103.394 47.9466Z" fill="#FFD000" stroke="#263238" stroke-width="0.45" stroke-linecap="round" stroke-linejoin="round"/>
<path d="M123.683 67.2236C124.176 67.3224 124.676 67.3862 125.179 67.4146" stroke="#263238" stroke-width="0.45" stroke-linecap="round" stroke-linejoin="round"/>
<path d="M114.432 53.6484C114.432 53.6484 112.12 54.8938 112.741 56.9349C113.361 58.976 117.539 63.6987 119.504 65.2902C120.336 65.965 121.278 66.4901 122.29 66.8419" stroke="#263238" stroke-width="0.45" stroke-linecap="round" stroke-linejoin="round"/>
<path d="M118.692 65.1191C118.692 65.1191 120.204 67.2517 121.712 67.8724C122.582 68.2413 123.521 68.423 124.466 68.4056" stroke="#263238" stroke-width="0.45" stroke-linecap="round" stroke-linejoin="round"/>
<path d="M79.0926 78.9453C78.8962 79.6729 78.5932 80.3674 78.1934 81.0063" stroke="#263238" stroke-width="0.45" stroke-linecap="round" stroke-linejoin="round"/>
<path d="M79.5016 72.7305C79.5016 72.7305 79.2549 76.0328 79.2549 77.7198" stroke="#263238" stroke-width="0.45" stroke-linecap="round" stroke-linejoin="round"/>
<path d="M79.3469 80.5605C79.3469 80.5605 78.6347 82.2475 77.5684 82.5141" stroke="#263238" stroke-width="0.45" stroke-linecap="round" stroke-linejoin="round"/>
<path d="M86.3615 72.5674L87.0498 79.9241L85.1201 74.0793" stroke="#263238" stroke-width="0.45" stroke-linecap="round" stroke-linejoin="round"/>
<path d="M111.145 65.4609C111.145 65.4609 112.032 69.372 115.123 70.2593C118.215 71.1465 120.188 70.88 120.188 70.88" stroke="#263238" stroke-width="0.45" stroke-linecap="round" stroke-linejoin="round"/>
<path d="M90.3563 97.4307C89.9585 98.9466 90.05 99.977 91.0805 100.447" stroke="#263238" stroke-width="0.45" stroke-linecap="round" stroke-linejoin="round"/>
<path d="M92.0077 92.3057C91.8003 93.178 91.5344 94.0353 91.212 94.8719L91.0488 95.3016" stroke="#263238" stroke-width="0.45" stroke-linecap="round" stroke-linejoin="round"/>
<path d="M94.8044 64.2119C94.3194 65.5883 93.9129 66.991 93.5869 68.4135C92.8906 71.7556 92.7513 79.6932 92.7513 84.2886C92.7907 86.5841 92.6229 88.8786 92.25 91.1439" stroke="#263238" stroke-width="0.45" stroke-linecap="round" stroke-linejoin="round"/>
<path d="M95.5362 54.0703C95.5362 54.0703 94.4222 56.0199 94.9792 56.5769C95.5362 57.1339 96.6503 59.2228 96.6503 59.2228C96.6503 59.2228 95.9222 61.0211 95.1543 63.2015" stroke="#263238" stroke-width="0.45" stroke-linecap="round" stroke-linejoin="round"/>
<path d="M93.7342 84.1454C92.9375 84.1688 92.16 83.8983 91.5499 83.3855C90.0022 82.0645 89.473 79.1561 89.8271 73.9559C89.8271 73.749 89.8589 73.5381 89.8828 73.3272C89.9266 67.9201 92.8072 61.7412 92.9544 61.391C93.0419 61.1802 93.4477 60.3407 93.6586 60.4282C93.8695 60.5157 94.0565 60.0303 93.9729 60.2253C93.9729 60.2253 93.9013 60.3964 93.7939 60.6749C94.2793 59.5847 94.6215 58.8844 94.6692 58.785C94.7188 58.6858 94.8055 58.6101 94.9105 58.5743C95.0155 58.5386 95.1304 58.5457 95.2302 58.594C95.2813 58.6163 95.3272 58.6491 95.3648 58.6902C95.4024 58.7314 95.431 58.78 95.4486 58.8329C95.4662 58.8858 95.4725 58.9418 95.4671 58.9973C95.4617 59.0528 95.4447 59.1065 95.4172 59.155C95.3774 59.2385 91.3669 67.4387 90.7183 73.379C90.7135 73.8444 90.7401 74.3096 90.7979 74.7715C90.9292 75.7741 91.3231 76.9956 92.4411 77.1309C94.1639 77.3378 97.0047 75.0023 98.4888 71.1946C100.697 65.5409 105.826 53.7519 105.877 53.6325C105.915 53.527 105.993 53.4407 106.094 53.3925C106.195 53.3444 106.311 53.3384 106.416 53.3759C106.522 53.4134 106.608 53.4912 106.656 53.5923C106.705 53.6934 106.71 53.8095 106.673 53.915C105.374 58.602 104.401 63.3733 103.761 68.1947C102.861 75.2808 99.7819 82.916 94.9437 84.0101C94.5469 84.1002 94.1412 84.1456 93.7342 84.1454ZM90.5512 76.741C90.5512 79.924 91.0446 81.8616 92.083 82.7528C92.7276 83.3019 93.5949 83.4451 94.7408 83.1865C98.5286 82.3311 101.903 76.1203 102.913 68.0674C103.359 64.5661 104.011 61.2478 104.588 58.6815C102.897 62.6324 100.566 68.131 99.2607 71.4731C97.7607 75.3166 94.6573 78.237 92.3337 77.9346C91.9649 77.8892 91.612 77.7574 91.3037 77.55C90.9954 77.3426 90.7403 77.0654 90.5592 76.741H90.5512Z" fill="white" stroke="#263238" stroke-width="0.45" stroke-linecap="round" stroke-linejoin="round"/>
<path d="M94.9793 56.5771L94.5615 59.78L95.8148 59.223L94.9793 56.5771Z" fill="white" stroke="#263238" stroke-width="0.45" stroke-linecap="round" stroke-linejoin="round"/>
<path d="M106.526 54.7148C106.526 54.7148 102.973 56.2268 101.906 56.935" stroke="#263238" stroke-width="0.45" stroke-linecap="round" stroke-linejoin="round"/>
<path d="M112.569 52.6739C112.569 52.6739 112.836 53.6487 114.344 54.9816C115.852 56.3145 118.784 56.0479 119.942 55.4272C121.1 54.8065 121.426 52.8331 121.426 52.8331C121.426 52.8331 119.675 50.8954 118.784 50.8079C117.893 50.7204 112.919 50.1872 112.569 52.6739Z" fill="#666666" stroke="#263238" stroke-width="0.45" stroke-linecap="round" stroke-linejoin="round"/>
<path d="M122.046 51.6783C121.875 51.3561 121.692 51.0457 121.505 50.7433C121.539 50.7015 121.571 50.6577 121.6 50.612C121.716 50.4631 121.793 50.2877 121.825 50.1015C121.856 49.9154 121.84 49.7244 121.779 49.5457C121.6 49.1916 120.801 47.6837 120.534 47.6837C120.395 47.6837 119.778 47.7792 119.217 47.8707L119.114 47.7712C118.862 47.5427 118.635 47.288 118.437 47.0113C118.616 46.4105 119.277 44.7912 119.114 44.2262C118.951 43.6612 117.339 43.0724 116.726 43.1599C116.329 43.2196 115.429 44.3257 114.856 45.0975L114.061 44.9543C113.778 44.1307 113.221 42.6029 112.895 42.5392C112.453 42.4477 111.654 43.4265 111.654 43.8721C111.654 44.0153 111.681 44.3774 111.721 44.7991L110.675 45.4675C110.675 45.4675 109.254 48.933 108.634 49.6452C108.013 50.3574 105.451 51.9529 103.835 52.0325C102.22 52.112 100.461 52.299 100.815 53.3653C101.17 54.4316 102.407 54.5192 104.794 54.7857C107.181 55.0523 109.234 53.8985 110.122 53.3653C111.009 52.8322 112.875 53.0988 114.12 53.0988C115.366 53.0988 117.053 52.6571 117.407 52.6571C117.761 52.6571 118.74 53.4529 119.794 53.7234C120.848 53.994 122.814 53.3653 122.814 53.3653C122.814 53.3653 122.933 53.3653 122.046 51.6783Z" fill="white" stroke="#263238" stroke-width="0.45" stroke-linecap="round" stroke-linejoin="round"/>
<path d="M116.449 44.4852L116.361 46.9719C116.361 46.9719 115.74 49.013 116.095 49.7252C116.449 50.4374 117.869 49.8127 118.048 49.4586C118.227 49.1045 119.56 44.6841 119.468 44.1311C119.377 43.578 118.136 42.8857 117.427 42.8857C117.209 42.892 116.994 42.9424 116.796 43.0341C116.598 43.1257 116.42 43.2566 116.274 43.4189" fill="white"/>
<path d="M116.449 44.4852L116.361 46.9719C116.361 46.9719 115.74 49.013 116.095 49.7252C116.449 50.4374 117.869 49.8127 118.048 49.4586C118.227 49.1045 119.56 44.6841 119.468 44.1311C119.377 43.578 118.136 42.8857 117.427 42.8857C117.209 42.892 116.994 42.9424 116.796 43.0341C116.598 43.1257 116.42 43.2566 116.274 43.4189" stroke="#263238" stroke-width="0.45" stroke-linecap="round" stroke-linejoin="round"/>
<path d="M122.668 49.5459C122.668 49.5459 124.26 50.6122 124.355 50.9663C124.451 51.3204 124.176 53.3535 124.176 54.4318C124.176 55.51 123.822 56.5644 123.201 55.9437C122.581 55.323 122.581 53.2779 122.489 52.9238C122.398 52.5697 121.956 52.3907 121.956 52.3907" fill="white"/>
<path d="M122.668 49.5459C122.668 49.5459 124.26 50.6122 124.355 50.9663C124.451 51.3204 124.176 53.3535 124.176 54.4318C124.176 55.51 123.822 56.5644 123.201 55.9437C122.581 55.323 122.581 53.2779 122.489 52.9238C122.398 52.5697 121.956 52.3907 121.956 52.3907" stroke="#263238" stroke-width="0.45" stroke-linecap="round" stroke-linejoin="round"/>
<path d="M112.454 41.6441C112.454 41.6441 110.234 41.2025 110.067 42.0897C109.9 42.977 109.8 45.9093 110.512 46.0684C111.225 46.2276 112.374 46.335 112.554 46.0684C112.733 45.8019 113.349 42.6905 113.266 42.1573C113.182 41.6242 112.454 41.6441 112.454 41.6441Z" fill="white" stroke="#263238" stroke-width="0.45" stroke-linecap="round" stroke-linejoin="round"/>
<path d="M118.669 47.9471C118.669 47.9471 120.802 46.3556 121.422 46.1726C122.043 45.9896 123.646 47.6129 123.646 47.6129C123.5 48.7848 123.261 49.9435 122.934 51.0784C122.489 52.4112 121.955 52.8529 121.422 52.8529C121.276 52.8483 121.133 52.8147 121 52.7539C120.867 52.6932 120.748 52.6065 120.649 52.4991C120.55 52.3916 120.473 52.2655 120.424 52.1282C120.374 51.9908 120.352 51.8449 120.36 51.699C120.36 50.9869 120.626 48.6792 120.626 48.6792" fill="white"/>
<path d="M118.669 47.9471C118.669 47.9471 120.802 46.3556 121.422 46.1726C122.043 45.9896 123.646 47.6129 123.646 47.6129C123.5 48.7848 123.261 49.9435 122.934 51.0784C122.489 52.4112 121.955 52.8529 121.422 52.8529C121.276 52.8483 121.133 52.8147 121 52.7539C120.867 52.6932 120.748 52.6065 120.649 52.4991C120.55 52.3916 120.473 52.2655 120.424 52.1282C120.374 51.9908 120.352 51.8449 120.36 51.699C120.36 50.9869 120.626 48.6792 120.626 48.6792" stroke="#263238" stroke-width="0.45" stroke-linecap="round" stroke-linejoin="round"/>
<path d="M114.053 45.7266C114.053 45.7266 113.258 46.7929 112.541 46.9719C111.987 47.0885 111.421 47.1485 110.854 47.1509" fill="white"/>
<path d="M114.053 45.7266C114.053 45.7266 113.258 46.7929 112.541 46.9719C111.987 47.0885 111.421 47.1485 110.854 47.1509" stroke="#263238" stroke-width="0.45" stroke-linecap="round" stroke-linejoin="round"/>
<path d="M114.956 46.2598C114.995 46.5289 115.119 46.7783 115.312 46.9705C115.504 47.1628 115.753 47.2875 116.022 47.3261" fill="white"/>
<path d="M114.956 46.2598C114.995 46.5289 115.119 46.7783 115.312 46.9705C115.504 47.1628 115.753 47.2875 116.022 47.3261" stroke="#263238" stroke-width="0.45" stroke-linecap="round" stroke-linejoin="round"/>
<path d="M119.027 49.2041C119.027 49.2041 118.848 50.3579 120.18 50.0914L119.027 49.2041Z" fill="white"/>
<path d="M119.027 49.2041C119.027 49.2041 118.848 50.3579 120.18 50.0914" stroke="#263238" stroke-width="0.45" stroke-linecap="round" stroke-linejoin="round"/>
<path d="M77.836 59.513C78.8039 58.0046 79.6654 56.4305 80.4142 54.8022C81.4805 52.415 82.3678 50.8951 83.5216 49.5622C84.6754 48.2294 87.6993 45.862 87.9619 45.8342C88.7576 45.7427 88.7576 46.7214 88.7576 46.7214C88.7576 46.7214 90.178 45.9257 90.6236 46.2758C91.0692 46.6259 90.8822 47.5132 90.178 48.0543C89.0242 48.9416 87.5162 51.2373 87.4247 51.5158C87.357 51.7033 87.2675 51.8823 87.1582 52.0489C87.1582 52.0489 89.1117 53.2068 89.1117 53.7399C89.0658 54.199 88.9462 54.6477 88.7576 55.0688C88.8427 55.8106 88.6819 56.5598 88.3 57.2014C87.6794 58.1802 87.2377 59.155 86.7086 59.155C86.1794 59.155 85.9128 59.0674 85.9128 58.5343C85.9128 58.0011 86.5335 56.7598 86.5335 56.7598C86.0054 57.2389 85.5293 57.7723 85.1131 58.3513C84.5799 59.147 84.0468 60.1297 83.1595 60.4839C82.2723 60.838 80.6728 61.2796 80.6728 61.2796L79.0575 63.9255C78.2782 64.0791 77.4699 63.9582 76.7697 63.5833C75.7949 62.9626 75.5283 61.6297 75.5283 61.6297L77.836 59.513Z" fill="white" stroke="#263238" stroke-width="0.45" stroke-linecap="round" stroke-linejoin="round"/>
<path d="M77.2145 59.6009C77.2144 59.898 77.2869 60.1907 77.4256 60.4535C77.5642 60.7162 77.7649 60.9412 78.0102 61.1089C78.8975 61.821 80.676 61.9046 80.676 61.9046C80.676 61.9046 81.0301 61.638 81.0301 62.0836C81.0301 62.5293 79.6972 64.8369 79.1641 65.7242C78.6309 66.6114 75.7026 66.7905 74.6363 65.3701C73.57 63.9497 73.6575 62.0836 73.8405 61.8171C74.0235 61.5505 76.4148 59.4298 76.4148 59.4298C76.4148 59.4298 77.1269 58.9802 77.2145 59.6009Z" fill="#666666" stroke="#263238" stroke-width="0.45" stroke-linecap="round" stroke-linejoin="round"/>
<path d="M88.761 46.7217C88.761 46.7217 86.5408 48.2296 85.8286 49.2084C85.1164 50.1872 84.6748 50.7203 84.6748 50.7203" stroke="#263238" stroke-width="0.45" stroke-linecap="round" stroke-linejoin="round"/>
<path d="M86.7197 53.7402L88.7608 55.0691" stroke="#263238" stroke-width="0.45" stroke-linecap="round" stroke-linejoin="round"/>
<path d="M87.162 52.0487C87.162 52.0487 86.5413 51.607 86.0957 51.8736" stroke="#263238" stroke-width="0.45" stroke-linecap="round" stroke-linejoin="round"/>
<path d="M113.787 182.03C113.35 182.417 112.872 182.843 112.355 183.307C109.57 185.813 105.392 185.813 105.392 185.813C105.392 185.813 104 179.547 102.329 179.129C100.658 178.711 98.4295 179.129 98.4295 179.129C98.4295 179.129 95.6444 182.889 94.3911 184.142C93.1378 185.396 89.9349 187.763 88.1246 189.016C86.3143 190.269 82.6936 191.801 82.5544 193.751C82.4151 195.7 82.8886 196.584 86.2347 197.562C89.3341 198.466 97.037 197.789 100.518 197.372C104 196.954 110.823 193.055 111.937 191.662C113.051 190.269 113.764 190.13 113.764 186.231C113.764 184.751 113.764 183.287 113.787 182.03Z" fill="white" stroke="#263238" stroke-width="0.45" stroke-linecap="round" stroke-linejoin="round"/>
<path d="M113.493 188.026C110.303 190.627 106.711 192.691 102.858 194.137C97.7253 196.095 91.1246 196.218 86.3541 195.363C83.9071 194.921 82.9443 194.193 82.5862 193.588C82.5718 193.642 82.5612 193.696 82.5544 193.751C82.4151 195.701 82.8886 196.584 86.2347 197.563C89.3341 198.466 97.037 197.79 100.518 197.372C104 196.954 110.823 193.055 111.937 191.663C112.868 190.501 113.505 190.206 113.692 187.887C113.624 187.934 113.561 187.974 113.493 188.026Z" stroke="#263238" stroke-width="0.45" stroke-linecap="round" stroke-linejoin="round"/>
<path d="M90.3482 187.764C90.3482 187.764 88.7209 188.309 89.5325 189.005C89.9065 189.323 93.6107 191.504 94.5616 190.891C96.0218 189.952 90.3482 187.764 90.3482 187.764Z" stroke="#263238" stroke-width="0.45" stroke-linecap="round" stroke-linejoin="round"/>
<path d="M95.0342 189.737C95.0342 189.737 102.733 184.358 103.712 182.771" stroke="#263238" stroke-width="0.45" stroke-linecap="round" stroke-linejoin="round"/>
<path d="M96.3805 189.876C96.2138 189.876 96.054 189.81 95.9349 189.693C93.5476 187.306 91.5583 187.533 91.4588 187.545C91.2947 187.57 91.1273 187.529 90.9934 187.431C90.8594 187.333 90.77 187.186 90.7446 187.022C90.7193 186.858 90.7602 186.69 90.8583 186.556C90.9564 186.422 91.1037 186.333 91.2678 186.308C91.3753 186.308 93.9415 185.91 96.8381 188.806C96.8966 188.864 96.9431 188.933 96.9749 189.01C97.0066 189.086 97.023 189.167 97.023 189.25C97.023 189.332 97.0066 189.414 96.9749 189.49C96.9431 189.566 96.8966 189.635 96.8381 189.693C96.7778 189.753 96.7063 189.8 96.6277 189.831C96.5491 189.862 96.4651 189.878 96.3805 189.876Z" fill="white" stroke="#263238" stroke-width="0.45" stroke-linecap="round" stroke-linejoin="round"/>
<path d="M98.4572 188.531C98.3703 188.532 98.2844 188.514 98.2049 188.479C98.1254 188.444 98.0541 188.393 97.9956 188.328C95.6721 185.782 92.9347 186.08 92.9108 186.08C92.8293 186.09 92.7466 186.084 92.6675 186.062C92.5884 186.04 92.5145 186.003 92.4498 185.952C92.3851 185.901 92.3311 185.839 92.2907 185.767C92.2504 185.696 92.2245 185.617 92.2145 185.535C92.2046 185.454 92.2108 185.371 92.2329 185.292C92.2549 185.213 92.2923 185.139 92.3429 185.074C92.3935 185.01 92.4564 184.956 92.5279 184.915C92.5994 184.875 92.6781 184.849 92.7596 184.839C92.8989 184.839 96.1654 184.465 98.9187 187.481C99.0019 187.57 99.0571 187.682 99.0775 187.802C99.0979 187.923 99.0826 188.046 99.0335 188.158C98.9844 188.27 98.9037 188.365 98.8012 188.431C98.6988 188.497 98.5792 188.532 98.4572 188.531Z" fill="white" stroke="#263238" stroke-width="0.45" stroke-linecap="round" stroke-linejoin="round"/>
<path d="M100.291 187.186C100.196 187.187 100.103 187.165 100.018 187.124C99.9335 187.082 99.8593 187.022 99.8014 186.948C98.0428 184.743 95.1543 184.56 94.6569 184.711C94.5103 184.774 94.3453 184.779 94.1955 184.724C94.0456 184.67 93.9219 184.561 93.8496 184.419C93.7773 184.276 93.7617 184.112 93.8059 183.959C93.8502 183.806 93.951 183.675 94.088 183.593C94.8638 183.164 98.58 183.406 100.78 186.168C100.855 186.26 100.902 186.371 100.916 186.489C100.93 186.606 100.91 186.725 100.858 186.832C100.807 186.939 100.727 187.029 100.626 187.092C100.526 187.154 100.409 187.187 100.291 187.186Z" fill="white" stroke="#263238" stroke-width="0.45" stroke-linecap="round" stroke-linejoin="round"/>
<path d="M101.759 185.718C101.672 185.719 101.585 185.701 101.505 185.666C101.425 185.631 101.353 185.58 101.294 185.515C99.9599 184.044 98.104 183.152 96.1216 183.029C95.9641 183.016 95.817 182.945 95.7098 182.829C95.6025 182.712 95.543 182.56 95.543 182.402C95.543 182.244 95.6025 182.092 95.7098 181.976C95.817 181.859 95.9641 181.788 96.1216 181.775C98.4537 181.899 100.642 182.94 102.209 184.672C102.291 184.761 102.345 184.873 102.365 184.992C102.384 185.112 102.369 185.235 102.32 185.346C102.271 185.457 102.191 185.551 102.089 185.617C101.987 185.683 101.869 185.718 101.748 185.718H101.759Z" fill="white" stroke="#263238" stroke-width="0.45" stroke-linecap="round" stroke-linejoin="round"/>
<path d="M103.469 190.401C103.36 190.395 103.258 190.347 103.184 190.266C103.109 190.186 103.069 190.08 103.071 189.971L103.095 188.869C103.095 188.815 103.106 188.762 103.127 188.712C103.149 188.662 103.18 188.618 103.219 188.58C103.258 188.543 103.304 188.514 103.355 188.496C103.405 188.477 103.459 188.469 103.513 188.471C103.622 188.476 103.724 188.524 103.798 188.603C103.873 188.683 103.913 188.788 103.911 188.897L103.887 190.003C103.882 190.11 103.836 190.212 103.758 190.286C103.68 190.36 103.577 190.401 103.469 190.401Z" fill="white" stroke="#263238" stroke-width="0.45" stroke-linecap="round" stroke-linejoin="round"/>
<path d="M103.494 189.502C103.328 189.498 103.17 189.428 103.055 189.308C102.94 189.188 102.878 189.028 102.881 188.862L102.976 184.588C102.972 184.502 102.985 184.415 103.015 184.334C103.046 184.253 103.092 184.179 103.153 184.117C103.213 184.055 103.285 184.006 103.365 183.973C103.446 183.94 103.532 183.924 103.618 183.926C103.705 183.928 103.79 183.948 103.869 183.984C103.947 184.02 104.017 184.073 104.075 184.138C104.132 184.202 104.176 184.278 104.202 184.361C104.229 184.443 104.238 184.53 104.23 184.616L104.134 188.889C104.13 189.056 104.06 189.213 103.94 189.328C103.82 189.443 103.66 189.505 103.494 189.502Z" fill="white" stroke="#263238" stroke-width="0.45" stroke-linecap="round" stroke-linejoin="round"/>
<path d="M100.235 193.488C100.433 193.814 100.556 194.18 100.597 194.559" stroke="#263238" stroke-width="0.45" stroke-linecap="round" stroke-linejoin="round"/>
<path d="M85.9308 190.688C85.9308 190.688 84.9123 191.364 86.6788 192.112C88.4454 192.86 93.0687 192.386 96.1243 191.774C97.0209 191.56 97.9642 191.667 98.7901 192.076" stroke="#263238" stroke-width="0.45" stroke-linecap="round" stroke-linejoin="round"/>
<path d="M111.687 185.392C111.842 185.08 112.025 184.782 112.232 184.501" stroke="#263238" stroke-width="0.45" stroke-linecap="round" stroke-linejoin="round"/>
<path d="M110.735 189.653C110.742 188.533 110.924 187.421 111.276 186.358" stroke="#263238" stroke-width="0.45" stroke-linecap="round" stroke-linejoin="round"/>
<path d="M112.333 74.4377C112.463 73.6214 112.347 72.7851 112.001 72.0346C111.655 71.284 111.094 70.653 110.389 70.2214C109.684 69.7898 108.867 69.5769 108.041 69.6097C107.215 69.6426 106.418 69.9196 105.749 70.4058C105.081 70.8921 104.572 71.5656 104.286 72.3412C104.001 73.1169 103.952 73.9598 104.146 74.7632C104.339 75.5667 104.767 76.2947 105.375 76.855C105.982 77.4154 106.742 77.7829 107.559 77.9112C108.652 78.0808 109.768 77.8106 110.663 77.1597C111.557 76.5088 112.158 75.5302 112.333 74.4377Z" fill="#666666" stroke="#263238" stroke-width="0.45" stroke-linecap="round" stroke-linejoin="round"/>
<path d="M129.278 78.751L110.741 77.0561L111.644 71.3506L129.787 75.4487C130.029 75.5024 130.241 75.6464 130.38 75.8512C130.519 76.0561 130.575 76.3063 130.535 76.5508L130.317 77.9433C130.276 78.1833 130.146 78.3993 129.954 78.5488C129.762 78.6982 129.521 78.7704 129.278 78.751Z" fill="#263238" stroke="#263238" stroke-width="0.45" stroke-linecap="round" stroke-linejoin="round"/>
<path d="M112.619 71.5616L111.644 71.3428L110.741 77.0483L111.74 77.1398L112.619 71.5616Z" fill="white" stroke="#263238" stroke-width="0.45" stroke-linecap="round" stroke-linejoin="round"/>
<path d="M106.998 77.7757C107.183 77.8334 107.372 77.8786 107.563 77.911H107.678L108.987 69.679C108.948 69.679 108.912 69.679 108.872 69.6551C108.681 69.6288 108.488 69.6142 108.295 69.6113L106.998 77.7757Z" fill="white" stroke="#263238" stroke-width="0.45" stroke-linecap="round" stroke-linejoin="round"/>
</g>
<defs>
<clipPath id="clip0_171_19172">
<rect width="210" height="210" fill="white"/>
</clipPath>
</defs>
</svg>
