<svg width="121" height="120" viewBox="0 0 121 120" fill="none" xmlns="http://www.w3.org/2000/svg">
<g clip-path="url(#clip0_896_9813)">
<path opacity="0.5" d="M120.5 108.857C120.5 108.891 82.7844 108.785 39.7085 108.785C-3.36737 108.785 0.942223 108.891 0.942223 108.857C0.942223 108.823 -3.38359 108.659 39.7085 108.659C82.8007 108.659 120.5 108.82 120.5 108.857Z" fill="#263238"/>
<path d="M56.1716 9.1963C56.1716 9.1963 38.697 10.083 27.4178 24.8839C16.1387 39.6847 15.8227 59.8967 15.1406 76.2663C14.4586 92.6359 24.0507 105.034 38.1149 106.668C52.1792 108.303 55.9692 95.7303 71.7455 88.6549C87.5217 81.5796 92.7895 82.0866 102.225 67.5586C111.66 53.0305 105.067 30.6951 87.9491 19.25C70.8315 7.80488 56.1716 9.1963 56.1716 9.1963Z" fill="#FFD000"/>
<path opacity="0.7" d="M56.1716 9.1963C56.1716 9.1963 38.697 10.083 27.4178 24.8839C16.1387 39.6847 15.8227 59.8967 15.1406 76.2663C14.4586 92.6359 24.0507 105.034 38.1149 106.668C52.1792 108.303 55.9692 95.7303 71.7455 88.6549C87.5217 81.5796 92.7895 82.0866 102.225 67.5586C111.66 53.0305 105.067 30.6951 87.9491 19.25C70.8315 7.80488 56.1716 9.1963 56.1716 9.1963Z" fill="white"/>
<path d="M22.0615 86.8062C20.9038 86.8057 19.772 87.1486 18.8093 87.7915C17.8466 88.4343 17.0962 89.3483 16.6529 90.4177C16.2097 91.4872 16.0936 92.664 16.3194 93.7994C16.5451 94.9348 17.1025 95.9778 17.9211 96.7964C18.7397 97.615 19.7826 98.1724 20.918 98.3981C22.0535 98.6238 23.2303 98.5078 24.2997 98.0645C25.3692 97.6213 26.2831 96.8709 26.926 95.9082C27.5689 94.9454 27.9118 93.8137 27.9113 92.656C27.9113 91.1045 27.295 89.6166 26.1979 88.5195C25.1009 87.4225 23.6129 86.8062 22.0615 86.8062ZM22.0615 94.7636C21.6428 94.7636 21.2336 94.6395 20.8855 94.4069C20.5374 94.1743 20.2661 93.8437 20.1059 93.4569C19.9457 93.0702 19.9038 92.6446 19.9854 92.234C20.0671 91.8234 20.2687 91.4462 20.5647 91.1502C20.8608 90.8542 21.2379 90.6526 21.6485 90.5709C22.0591 90.4892 22.4847 90.5312 22.8715 90.6914C23.2582 90.8516 23.5888 91.1229 23.8214 91.471C24.054 91.819 24.1781 92.2283 24.1781 92.6469C24.1793 92.9257 24.1255 93.2019 24.0196 93.4597C23.9138 93.7176 23.7581 93.952 23.5614 94.1495C23.3647 94.347 23.131 94.5038 22.8736 94.6107C22.6162 94.7177 22.3402 94.7727 22.0615 94.7727V94.7636Z" fill="#263238"/>
<path d="M22.0616 77.5938C21.3475 77.5938 20.6495 77.8055 20.0557 78.2022C19.462 78.5989 18.9993 79.1628 18.726 79.8225C18.4527 80.4822 18.3812 81.2082 18.5205 81.9085C18.6599 82.6089 19.0037 83.2522 19.5086 83.7571C20.0136 84.262 20.6569 84.6059 21.3572 84.7452C22.0576 84.8845 22.7835 84.813 23.4432 84.5397C24.1029 84.2665 24.6668 83.8037 25.0635 83.21C25.4603 82.6163 25.672 81.9182 25.672 81.2042C25.672 80.2466 25.2916 79.3283 24.6145 78.6512C23.9375 77.9741 23.0191 77.5938 22.0616 77.5938ZM22.0616 82.5092C21.8035 82.5092 21.5512 82.4327 21.3366 82.2893C21.1219 82.1459 20.9547 81.942 20.8559 81.7036C20.7571 81.4651 20.7313 81.2027 20.7816 80.9496C20.832 80.6964 20.9563 80.4639 21.1388 80.2814C21.3213 80.0989 21.5538 79.9746 21.807 79.9242C22.0601 79.8739 22.3225 79.8997 22.561 79.9985C22.7995 80.0973 23.0033 80.2645 23.1467 80.4791C23.2901 80.6937 23.3666 80.9461 23.3666 81.2042C23.3666 81.5503 23.2291 81.8822 22.9844 82.127C22.7396 82.3717 22.4077 82.5092 22.0616 82.5092Z" fill="#263238"/>
<path d="M28.6819 75.7432H15.4407C14.946 75.7432 14.5449 76.1442 14.5449 76.6389V99.3132C14.5449 99.8079 14.946 100.209 15.4407 100.209H28.6819C29.1766 100.209 29.5777 99.8079 29.5777 99.3132V76.6389C29.5777 76.1442 29.1766 75.7432 28.6819 75.7432Z" stroke="#263238" stroke-width="0.45" stroke-miterlimit="10"/>
<path d="M93.442 86.8062C92.2844 86.8062 91.1529 87.1494 90.1905 87.7926C89.228 88.4357 88.478 89.3498 88.0351 90.4193C87.5922 91.4888 87.4765 92.6656 87.7025 93.8008C87.9285 94.9361 88.486 95.9788 89.3047 96.7972C90.1234 97.6155 91.1663 98.1727 92.3017 98.3983C93.437 98.6238 94.6138 98.5076 95.6831 98.0643C96.7524 97.621 97.6662 96.8706 98.309 95.9079C98.9517 94.9452 99.2946 93.8136 99.2941 92.656C99.2941 91.8876 99.1427 91.1267 98.8486 90.4168C98.5545 89.707 98.1234 89.062 97.5799 88.5187C97.0365 87.9755 96.3913 87.5446 95.6813 87.2508C94.9713 86.9569 94.2104 86.8059 93.442 86.8062ZM93.442 94.7636C93.0233 94.7636 92.6141 94.6395 92.266 94.4069C91.9179 94.1743 91.6466 93.8437 91.4864 93.4569C91.3262 93.0702 91.2843 92.6446 91.366 92.234C91.4477 91.8234 91.6492 91.4462 91.9453 91.1502C92.2413 90.8542 92.6185 90.6526 93.029 90.5709C93.4396 90.4892 93.8652 90.5312 94.252 90.6914C94.6388 90.8516 94.9694 91.1229 95.202 91.471C95.4345 91.819 95.5587 92.2283 95.5587 92.6469C95.5602 92.9257 95.5065 93.2021 95.4008 93.4601C95.2951 93.7181 95.1393 93.9526 94.9426 94.1502C94.7459 94.3478 94.512 94.5045 94.2545 94.6113C93.9969 94.7182 93.7208 94.773 93.442 94.7727V94.7636Z" fill="#263238"/>
<path d="M93.4424 77.5938C92.7284 77.5938 92.0303 77.8055 91.4366 78.2022C90.8429 78.5989 90.3801 79.1628 90.1069 79.8225C89.8336 80.4822 89.7621 81.2082 89.9014 81.9085C90.0407 82.6089 90.3846 83.2522 90.8895 83.7571C91.3944 84.262 92.0377 84.6059 92.7381 84.7452C93.4384 84.8845 94.1644 84.813 94.8241 84.5397C95.4838 84.2665 96.0477 83.8037 96.4444 83.21C96.8411 82.6163 97.0529 81.9182 97.0529 81.2042C97.0529 80.2466 96.6725 79.3283 95.9954 78.6512C95.3183 77.9741 94.4 77.5938 93.4424 77.5938ZM93.4424 82.5092C93.1844 82.5087 92.9323 82.4318 92.718 82.2881C92.5037 82.1445 92.3368 81.9405 92.2384 81.702C92.14 81.4635 92.1144 81.2012 92.1651 80.9482C92.2157 80.6952 92.3401 80.4629 92.5227 80.2806C92.7053 80.0983 92.9379 79.9742 93.191 79.9241C93.444 79.8739 93.7063 79.8999 93.9447 79.9987C94.183 80.0975 94.3867 80.2648 94.53 80.4794C94.6733 80.6939 94.7497 80.9462 94.7497 81.2042C94.7497 81.3757 94.7159 81.5456 94.6502 81.7041C94.5845 81.8626 94.4881 82.0065 94.3667 82.1278C94.2453 82.249 94.1012 82.3451 93.9426 82.4105C93.784 82.4759 93.614 82.5095 93.4424 82.5092Z" fill="#263238"/>
<path d="M100.065 75.7432H86.8235C86.3288 75.7432 85.9277 76.1442 85.9277 76.6389V99.3132C85.9277 99.8079 86.3288 100.209 86.8235 100.209H100.065C100.559 100.209 100.961 99.8079 100.961 99.3132V76.6389C100.961 76.1442 100.559 75.7432 100.065 75.7432Z" stroke="#263238" stroke-width="0.45" stroke-miterlimit="10"/>
<path d="M35.9131 19.0405V22.8601" stroke="#263238" stroke-width="0.45" stroke-linecap="round" stroke-linejoin="round"/>
<path d="M37.8228 20.9507H34.001" stroke="#263238" stroke-width="0.45" stroke-linecap="round" stroke-linejoin="round"/>
<path d="M27.5557 42.4355V45.0615" stroke="#263238" stroke-width="0.45" stroke-linecap="round" stroke-linejoin="round"/>
<path d="M28.8701 43.75H26.2441" stroke="#263238" stroke-width="0.45" stroke-linecap="round" stroke-linejoin="round"/>
<path d="M85.3311 17.1309V19.7568" stroke="#263238" stroke-width="0.45" stroke-linecap="round" stroke-linejoin="round"/>
<path d="M86.6435 18.4429H84.0176" stroke="#263238" stroke-width="0.45" stroke-linecap="round" stroke-linejoin="round"/>
<path d="M69.5732 78.4854V81.1113" stroke="#263238" stroke-width="0.45" stroke-linecap="round" stroke-linejoin="round"/>
<path d="M70.8877 79.7993H68.2617" stroke="#263238" stroke-width="0.45" stroke-linecap="round" stroke-linejoin="round"/>
<path d="M82.3467 40.2871V43.3905" stroke="#263238" stroke-width="0.45" stroke-linecap="round" stroke-linejoin="round"/>
<path d="M83.8993 41.8398H80.7959" stroke="#263238" stroke-width="0.45" stroke-linecap="round" stroke-linejoin="round"/>
<path d="M90.1055 18.5635V21.6669" stroke="#263238" stroke-width="0.45" stroke-linecap="round" stroke-linejoin="round"/>
<path d="M91.6561 20.1138H88.5527" stroke="#263238" stroke-width="0.45" stroke-linecap="round" stroke-linejoin="round"/>
<path d="M21.8266 33.0048C21.827 33.2176 21.7643 33.4259 21.6463 33.6031C21.5283 33.7803 21.3604 33.9185 21.1638 34.0001C20.9672 34.0818 20.7508 34.1033 20.5419 34.0619C20.3331 34.0205 20.1413 33.918 19.9908 33.7675C19.8402 33.6169 19.7378 33.4251 19.6963 33.2163C19.6549 33.0075 19.6764 32.791 19.7581 32.5945C19.8398 32.3979 19.9779 32.2299 20.1551 32.1119C20.3323 31.9939 20.5406 31.9312 20.7534 31.9316C21.0381 31.9316 21.311 32.0447 21.5123 32.246C21.7135 32.4472 21.8266 32.7202 21.8266 33.0048Z" stroke="#263238" stroke-width="0.45" stroke-linecap="round" stroke-linejoin="round"/>
<path d="M77.6918 73.9494C77.6918 74.1621 77.6287 74.37 77.5106 74.5469C77.3924 74.7237 77.2244 74.8616 77.0279 74.943C76.8314 75.0244 76.6152 75.0456 76.4066 75.0042C76.198 74.9627 76.0064 74.8602 75.856 74.7098C75.7056 74.5594 75.6032 74.3678 75.5617 74.1592C75.5202 73.9506 75.5415 73.7344 75.6229 73.5379C75.7043 73.3414 75.8421 73.1734 76.019 73.0553C76.1958 72.9371 76.4037 72.874 76.6164 72.874C76.7576 72.874 76.8975 72.9018 77.0279 72.9559C77.1584 73.0099 77.277 73.0891 77.3768 73.189C77.4767 73.2889 77.5559 73.4074 77.6099 73.5379C77.664 73.6684 77.6918 73.8082 77.6918 73.9494Z" stroke="#263238" stroke-width="0.45" stroke-linecap="round" stroke-linejoin="round"/>
<path d="M95.1186 38.259C95.1186 38.4717 95.0555 38.6796 94.9373 38.8564C94.8192 39.0333 94.6512 39.1711 94.4547 39.2525C94.2582 39.3339 94.042 39.3552 93.8334 39.3137C93.6248 39.2722 93.4331 39.1698 93.2827 39.0194C93.1324 38.869 93.0299 38.6774 92.9884 38.4688C92.9469 38.2602 92.9682 38.044 93.0496 37.8475C93.131 37.651 93.2689 37.483 93.4457 37.3648C93.6226 37.2467 93.8305 37.1836 94.0432 37.1836C94.1845 37.1833 94.3245 37.2109 94.4551 37.2648C94.5857 37.3188 94.7043 37.398 94.8043 37.4979C94.9042 37.5978 94.9834 37.7165 95.0373 37.8471C95.0912 37.9777 95.1189 38.1177 95.1186 38.259Z" stroke="#263238" stroke-width="0.45" stroke-linecap="round" stroke-linejoin="round"/>
<path d="M27.5554 15.2212C28.0175 15.2212 28.3921 14.8466 28.3921 14.3845C28.3921 13.9224 28.0175 13.5479 27.5554 13.5479C27.0933 13.5479 26.7188 13.9224 26.7188 14.3845C26.7188 14.8466 27.0933 15.2212 27.5554 15.2212Z" stroke="#263238" stroke-width="0.45" stroke-linecap="round" stroke-linejoin="round"/>
<path d="M39.7332 74.6655C40.1952 74.6655 40.5698 74.2909 40.5698 73.8289C40.5698 73.3668 40.1952 72.9922 39.7332 72.9922C39.2711 72.9922 38.8965 73.3668 38.8965 73.8289C38.8965 74.2909 39.2711 74.6655 39.7332 74.6655Z" stroke="#263238" stroke-width="0.45" stroke-linecap="round" stroke-linejoin="round"/>
<path d="M20.3943 54.1353C20.8564 54.1353 21.231 53.7607 21.231 53.2986C21.231 52.8365 20.8564 52.4619 20.3943 52.4619C19.9322 52.4619 19.5576 52.8365 19.5576 53.2986C19.5576 53.7607 19.9322 54.1353 20.3943 54.1353Z" stroke="#263238" stroke-width="0.45" stroke-linecap="round" stroke-linejoin="round"/>
<path d="M16.1934 60.5925H18.2168V58.1279C18.2168 57.8264 18.3366 57.5373 18.5498 57.3241C18.763 57.1109 19.0521 56.9912 19.3536 56.9912C19.6551 56.9912 19.9442 57.1109 20.1574 57.3241C20.3706 57.5373 20.4904 57.8264 20.4904 58.1279V65.1532C20.4904 65.4748 20.618 65.7833 20.8452 66.0109C21.0724 66.2385 21.3806 66.3667 21.7022 66.3673C22.0242 66.3673 22.333 66.2394 22.5607 66.0117C22.7884 65.784 22.9163 65.4752 22.9163 65.1532V52.4213C22.9169 52.031 23.0724 51.6568 23.3486 51.381C23.6248 51.1052 23.9992 50.9503 24.3895 50.9503C24.5827 50.9503 24.774 50.9884 24.9525 51.0623C25.1309 51.1362 25.2931 51.2446 25.4297 51.3811C25.5663 51.5177 25.6746 51.6799 25.7486 51.8584C25.8225 52.0368 25.8605 52.2281 25.8605 52.4213V69.473C25.8605 69.8408 26.0067 70.1936 26.2667 70.4537C26.5268 70.7138 26.8796 70.8599 27.2474 70.8599C27.6148 70.8593 27.967 70.7129 28.2266 70.4529C28.4862 70.1928 28.632 69.8404 28.632 69.473V48.6699C28.632 48.1875 28.8236 47.7249 29.1647 47.3838C29.5058 47.0427 29.9685 46.8511 30.4509 46.8511C30.9332 46.8511 31.3959 47.0427 31.737 47.3838C32.0781 47.7249 32.2697 48.1875 32.2697 48.6699V69.3821C32.2697 69.7728 32.4249 70.1475 32.7012 70.4238C32.9775 70.7001 33.3522 70.8553 33.743 70.8553C34.1337 70.8553 34.5084 70.7001 34.7847 70.4238C35.061 70.1475 35.2162 69.7728 35.2162 69.3821V52.8783C35.2162 52.4188 35.3988 51.9782 35.7237 51.6533C36.0486 51.3284 36.4892 51.1458 36.9487 51.1458C37.4082 51.1458 37.8488 51.3284 38.1737 51.6533C38.4986 51.9782 38.6811 52.4188 38.6811 52.8783V65.0532C38.6811 65.3975 38.8179 65.7277 39.0614 65.9712C39.3048 66.2146 39.635 66.3514 39.9793 66.3514C40.15 66.3517 40.3191 66.3183 40.4768 66.2532C40.6346 66.1881 40.778 66.0925 40.8988 65.972C41.0196 65.8514 41.1154 65.7082 41.1808 65.5505C41.2462 65.3929 41.2798 65.2239 41.2798 65.0532V58.4349C41.2798 58.1062 41.4104 57.7911 41.6427 57.5587C41.8751 57.3263 42.1903 57.1958 42.5189 57.1958C42.8475 57.1958 43.1627 57.3263 43.3951 57.5587C43.6275 57.7911 43.758 58.1062 43.758 58.4349V60.5925H46.0634" stroke="#263238" stroke-width="0.45" stroke-miterlimit="10"/>
<path d="M44.4375 60.5925H46.4519V58.1279C46.4519 57.8284 46.5701 57.541 46.7808 57.3281C46.9915 57.1152 47.2778 56.9941 47.5773 56.9912C47.8788 56.9912 48.1679 57.1109 48.3811 57.3241C48.5943 57.5373 48.7141 57.8264 48.7141 58.1279V65.1532C48.7141 65.4752 48.842 65.784 49.0697 66.0117C49.2973 66.2394 49.6062 66.3673 49.9281 66.3673C50.2497 66.3667 50.558 66.2385 50.7852 66.0109C51.0124 65.7833 51.14 65.4748 51.14 65.1532V52.4213C51.1406 52.031 51.296 51.6568 51.5723 51.381C51.8485 51.1052 52.2229 50.9503 52.6132 50.9503C53.0034 50.9503 53.3775 51.1053 53.6534 51.3811C53.9292 51.657 54.0842 52.0312 54.0842 52.4213V69.473C54.0842 69.8408 54.2303 70.1936 54.4904 70.4537C54.7505 70.7138 55.1033 70.8599 55.4711 70.8599C55.8385 70.8593 56.1907 70.7129 56.4503 70.4529C56.7099 70.1928 56.8557 69.8404 56.8557 69.473V48.6699C56.8557 48.1875 57.0473 47.7249 57.3884 47.3838C57.7295 47.0427 58.1921 46.8511 58.6745 46.8511C59.1569 46.8511 59.6195 47.0427 59.9606 47.3838C60.3017 47.7249 60.4934 48.1875 60.4934 48.6699V69.3821C60.4931 69.5754 60.5309 69.7669 60.6047 69.9457C60.6785 70.1244 60.7868 70.2868 60.9234 70.4237C61.06 70.5605 61.2223 70.6691 61.4009 70.7431C61.5795 70.8172 61.771 70.8553 61.9644 70.8553C62.1578 70.8553 62.3494 70.8172 62.5282 70.7432C62.7069 70.6691 62.8693 70.5606 63.0061 70.4238C63.1429 70.287 63.2515 70.1246 63.3255 69.9459C63.3995 69.7671 63.4376 69.5755 63.4376 69.3821V52.8783C63.4376 52.4188 63.6202 51.9782 63.9451 51.6533C64.27 51.3284 64.7106 51.1458 65.1701 51.1458C65.6296 51.1458 66.0702 51.3284 66.3951 51.6533C66.72 51.9782 66.9025 52.4188 66.9025 52.8783V65.0532C66.9025 65.3975 67.0393 65.7277 67.2828 65.9712C67.5262 66.2146 67.8564 66.3514 68.2008 66.3514C68.3714 66.3517 68.5405 66.3183 68.6983 66.2532C68.856 66.1881 68.9994 66.0926 69.1202 65.972C69.241 65.8514 69.3368 65.7082 69.4022 65.5505C69.4676 65.3929 69.5012 65.2239 69.5012 65.0532V58.4349C69.5012 58.107 69.6311 57.7925 69.8625 57.5603C70.0939 57.3281 70.4079 57.197 70.7358 57.1958C71.0644 57.1958 71.3796 57.3263 71.6119 57.5587C71.8443 57.7911 71.9749 58.1062 71.9749 58.4349V60.5925H74.2802" stroke="#263238" stroke-width="0.45" stroke-miterlimit="10"/>
<path d="M72.6826 60.5925H74.697V58.1279C74.697 57.8284 74.8152 57.541 75.0259 57.3281C75.2367 57.1152 75.5229 56.9941 75.8224 56.9912C76.1219 56.9941 76.4082 57.1152 76.6189 57.3281C76.8296 57.541 76.9478 57.8284 76.9478 58.1279V65.1532C76.9478 65.4752 77.0757 65.784 77.3034 66.0117C77.5311 66.2394 77.8399 66.3673 78.1619 66.3673C78.4839 66.3673 78.7927 66.2394 79.0204 66.0117C79.2481 65.784 79.376 65.4752 79.376 65.1532V52.4213C79.3766 52.031 79.5321 51.6568 79.8083 51.381C80.0845 51.1052 80.4589 50.9503 80.8492 50.9503C81.0424 50.9503 81.2337 50.9884 81.4122 51.0623C81.5906 51.1362 81.7528 51.2446 81.8894 51.3811C82.026 51.5177 82.1343 51.6799 82.2083 51.8584C82.2822 52.0368 82.3202 52.2281 82.3202 52.4213V69.473C82.3202 69.8389 82.4648 70.1899 82.7224 70.4497C82.9801 70.7094 83.3299 70.8569 83.6957 70.8599C83.8778 70.8599 84.058 70.824 84.2261 70.7543C84.3943 70.6845 84.547 70.5823 84.6756 70.4535C84.8042 70.3247 84.9062 70.1718 84.9756 70.0036C85.045 69.8353 85.0806 69.655 85.0803 69.473V48.6699C85.0803 48.1875 85.272 47.7249 85.6131 47.3838C85.9542 47.0427 86.4168 46.8511 86.8992 46.8511C87.3816 46.8511 87.8442 47.0427 88.1853 47.3838C88.5264 47.7249 88.718 48.1875 88.718 48.6699V69.3821C88.718 69.7724 88.8729 70.1468 89.1487 70.423C89.4245 70.6992 89.7987 70.8547 90.189 70.8553C90.3825 70.8553 90.5741 70.8172 90.7528 70.7432C90.9316 70.6691 91.094 70.5606 91.2308 70.4238C91.3676 70.287 91.4761 70.1246 91.5502 69.9459C91.6242 69.7671 91.6623 69.5755 91.6623 69.3821V52.8783C91.6623 52.4188 91.8448 51.9782 92.1697 51.6533C92.4946 51.3284 92.9353 51.1458 93.3948 51.1458C93.8542 51.1458 94.2949 51.3284 94.6198 51.6533C94.9447 51.9782 95.1272 52.4188 95.1272 52.8783V65.0532C95.1272 65.3975 95.264 65.7277 95.5074 65.9712C95.7509 66.2146 96.0811 66.3514 96.4254 66.3514C96.5961 66.3517 96.7651 66.3183 96.9229 66.2532C97.0807 66.1881 97.2241 66.0926 97.3448 65.972C97.4656 65.8514 97.5615 65.7082 97.6268 65.5505C97.6922 65.3929 97.7259 65.2239 97.7259 65.0532V58.4349C97.7259 58.1062 97.8564 57.7911 98.0888 57.5587C98.3212 57.3263 98.6363 57.1958 98.965 57.1958C99.2936 57.1958 99.6088 57.3263 99.8411 57.5587C100.074 57.7911 100.204 58.1062 100.204 58.4349V60.5925H102.521" stroke="#263238" stroke-width="0.45" stroke-miterlimit="10"/>
<path d="M56.8038 114.058C68.9999 114.058 78.8869 111.706 78.8869 108.806C78.8869 105.905 68.9999 103.554 56.8038 103.554C44.6076 103.554 34.7207 105.905 34.7207 108.806C34.7207 111.706 44.6076 114.058 56.8038 114.058Z" fill="#CACACA" stroke="#263238" stroke-width="0.45" stroke-linecap="round" stroke-linejoin="round"/>
<path d="M48.9653 19.7163C48.9653 19.7163 49.3222 18.6022 49.6474 17.7269C49.9725 16.8516 50.5227 16.1354 50.8023 15.9354C51.082 15.7353 52.4734 15.2533 55.1789 15.8558C57.8845 16.4583 59.119 17.4473 59.5555 17.8065C59.9921 18.1657 59.9943 18.7614 60.0739 19.4776C60.1289 19.946 60.2086 20.4112 60.3126 20.8713C60.3126 20.8713 60.033 20.2733 56.6113 19.7959C53.1896 19.3184 51.8663 19.0001 50.8751 19.4776C49.8838 19.955 48.7266 20.553 48.7266 20.553L48.9653 19.7163Z" fill="#263238" stroke="#263238" stroke-width="0.45" stroke-linecap="round" stroke-linejoin="round"/>
<path d="M49.8195 25.4636C49.2837 25.4154 48.7519 25.3295 48.2281 25.2067C46.9298 24.9475 45.8681 23.9789 47.0481 22.367C48.2281 20.755 48.9942 19.5273 48.9942 19.5273C48.9942 19.5273 49.4831 18.6179 51.3542 18.1336C53.2253 17.6494 57.2836 18.8748 58.8751 19.4841C60.4666 20.0934 61.7376 20.8414 62.3241 21.8759C62.9107 22.9104 62.4037 23.2264 61.4488 24.2268C60.4939 25.2271 59.8982 25.5318 58.3067 25.9683C56.7153 26.4048 49.8195 25.4636 49.8195 25.4636Z" fill="#263238" stroke="#263238" stroke-width="0.45" stroke-linecap="round" stroke-linejoin="round"/>
<path d="M51.0571 20.1599C51.0571 20.1599 49.5225 21.5763 49.5225 22.2834C49.5225 22.9904 49.6407 25.3504 49.818 26.2348C49.9954 27.1192 51.2936 29.8339 51.8233 30.2476C52.353 30.6614 54.1833 30.1885 54.1833 30.1885L55.0699 31.3685L59.8444 28.3015C59.8444 28.3015 59.076 26.5895 59.0168 26.4122C58.9716 26.0007 58.9519 25.5869 58.9577 25.1731C58.9577 25.1731 59.6671 24.8207 59.9035 24.2295C60.0521 23.79 60.1289 23.3294 60.1309 22.8654C60.1309 22.8654 58.0665 20.801 55.7657 20.0939C53.4648 19.3868 51.0571 20.1599 51.0571 20.1599Z" fill="white" stroke="#263238" stroke-width="0.45" stroke-linecap="round" stroke-linejoin="round"/>
<path d="M51.47 22.3491L51.5882 23.2926C51.5882 23.2926 50.9971 23.9406 50.9971 24.4135C50.9971 24.8864 51.8224 24.8864 51.8224 24.8864" stroke="#263238" stroke-width="0.45" stroke-linecap="round" stroke-linejoin="round"/>
<path d="M53.1807 22.0533L53.2398 22.467L54.7153 21.9941" stroke="#263238" stroke-width="0.45" stroke-linecap="round" stroke-linejoin="round"/>
<path d="M50.2903 23.2925L50.1357 23.9495L51.0793 23.4175" stroke="#263238" stroke-width="0.45" stroke-linecap="round" stroke-linejoin="round"/>
<path d="M54.3737 22.6423C54.5294 22.6423 54.6556 22.5334 54.6556 22.399C54.6556 22.2647 54.5294 22.1558 54.3737 22.1558C54.218 22.1558 54.0918 22.2647 54.0918 22.399C54.0918 22.5334 54.218 22.6423 54.3737 22.6423Z" fill="#263238"/>
<path d="M50.9616 23.9499C51.1173 23.9499 51.2435 23.841 51.2435 23.7066C51.2435 23.5723 51.1173 23.4634 50.9616 23.4634C50.8059 23.4634 50.6797 23.5723 50.6797 23.7066C50.6797 23.841 50.8059 23.9499 50.9616 23.9499Z" fill="#263238"/>
<path d="M52.3867 21.5464C52.3867 21.5464 52.7073 20.4096 53.7781 20.1936C53.9976 20.1486 54.2248 20.1578 54.4399 20.2204C54.655 20.283 54.8516 20.3971 55.0127 20.5528" stroke="#263238" stroke-width="0.9" stroke-linecap="round" stroke-linejoin="round"/>
<path d="M51.0731 22.1037C51.0731 22.1037 50.7184 21.8286 50.4365 21.9445C50.2766 22.0139 50.1376 22.1238 50.0331 22.2634C49.9286 22.4029 49.8624 22.5673 49.8408 22.7403" stroke="#263238" stroke-width="0.9" stroke-linecap="round" stroke-linejoin="round"/>
<path d="M57.5201 21.7058C58.2022 22.2628 58.0772 23.0995 58.5933 22.8994C58.9344 22.7537 59.2572 22.5683 59.555 22.3469C58.751 21.6515 57.8663 21.0553 56.9199 20.5713C56.9282 20.7934 56.9865 21.0107 57.0904 21.2071C57.1944 21.4035 57.3412 21.574 57.5201 21.7058Z" fill="#263238" stroke="#263238" stroke-width="0.45" stroke-linecap="round" stroke-linejoin="round"/>
<path d="M54.1836 30.1954L56.0866 28.7881L55.0703 31.3754L54.1836 30.1954Z" fill="#263238" stroke="#263238" stroke-width="0.45" stroke-linecap="round" stroke-linejoin="round"/>
<path d="M53.6414 99.9729C53.6414 99.9729 50.6971 102.042 50.2197 102.121C49.7422 102.201 47.6733 102.599 47.4346 103.076C47.1958 103.554 47.0367 104.19 47.8324 104.35C48.6282 104.509 52.209 104.747 53.4822 104.747C54.7554 104.747 56.1878 104.827 56.8926 104.668C57.5974 104.509 58.7228 104.827 59.1207 103.235C59.5185 101.644 59.439 100.371 59.2002 99.4955C58.9615 98.6202 53.6414 99.9729 53.6414 99.9729Z" fill="white" stroke="#263238" stroke-width="0.45" stroke-linecap="round" stroke-linejoin="round"/>
<path d="M57.5295 104.022C55.9286 103.855 54.319 103.784 52.7096 103.811C50.677 103.872 47.9351 103.447 47.319 103.345C47.1712 103.765 47.1803 104.218 47.8328 104.35C48.6285 104.509 52.2094 104.748 53.4826 104.748C54.7558 104.748 56.1881 104.827 56.8929 104.668C57.2726 104.584 57.7614 104.632 58.1979 104.461L57.5295 104.022Z" stroke="#263238" stroke-width="0.45" stroke-linecap="round" stroke-linejoin="round"/>
<path d="M53.0186 103.083C53.0029 103.083 52.9874 103.08 52.9729 103.074C52.9584 103.068 52.9452 103.059 52.9342 103.048C52.9232 103.037 52.9146 103.023 52.9087 103.009C52.9029 102.994 52.9001 102.978 52.9004 102.963L52.9118 102.547C52.9118 102.531 52.9149 102.516 52.921 102.501C52.9271 102.487 52.9361 102.474 52.9473 102.463C52.9586 102.452 52.9719 102.444 52.9865 102.438C53.0011 102.433 53.0167 102.43 53.0323 102.431C53.064 102.432 53.0941 102.445 53.1162 102.468C53.1382 102.491 53.1505 102.522 53.1505 102.554V102.967C53.1507 102.984 53.1472 103 53.1404 103.016C53.1336 103.031 53.1236 103.044 53.1111 103.055C53.0986 103.066 53.0839 103.075 53.0679 103.079C53.052 103.084 53.0351 103.086 53.0186 103.083Z" fill="white" stroke="#263238" stroke-width="0.45" stroke-linecap="round" stroke-linejoin="round"/>
<path d="M53.0282 102.79C52.966 102.786 52.9078 102.758 52.8655 102.713C52.8233 102.667 52.8001 102.607 52.8008 102.545L52.8372 100.942C52.8417 100.88 52.8693 100.823 52.9144 100.78C52.9595 100.738 53.0187 100.715 53.0804 100.714C53.1426 100.717 53.2011 100.744 53.2435 100.79C53.286 100.835 53.3091 100.895 53.3078 100.958L53.2714 102.56C53.2691 102.623 53.2422 102.682 53.1967 102.725C53.1512 102.768 53.0907 102.791 53.0282 102.79Z" fill="white" stroke="#263238" stroke-width="0.45" stroke-linecap="round" stroke-linejoin="round"/>
<path d="M50.2156 102.476C50.1506 102.476 50.0869 102.458 50.0315 102.424C49.9761 102.39 49.9312 102.341 49.9019 102.283C49.8561 102.201 49.832 102.108 49.832 102.014C49.832 101.921 49.8561 101.828 49.9019 101.746C50.0838 101.43 50.543 101.369 50.734 101.357C50.8258 101.357 50.9142 101.392 50.981 101.455C51.0478 101.518 51.088 101.604 51.0932 101.696C51.0984 101.788 51.0684 101.878 51.0092 101.948C50.95 102.018 50.8662 102.063 50.7749 102.074C50.7074 102.079 50.6404 102.09 50.5748 102.108C50.5775 102.176 50.5602 102.244 50.5251 102.303C50.49 102.362 50.4386 102.409 50.377 102.44C50.3267 102.464 50.2715 102.476 50.2156 102.476Z" fill="white" stroke="#263238" stroke-width="0.45" stroke-linecap="round" stroke-linejoin="round"/>
<path d="M51.0997 101.93C51.0342 101.931 50.9698 101.914 50.9139 101.879C50.8579 101.845 50.8128 101.796 50.7837 101.737C50.7379 101.655 50.7139 101.563 50.7139 101.469C50.7139 101.375 50.7379 101.283 50.7837 101.201C50.9679 100.885 51.4271 100.825 51.6158 100.814C51.6627 100.811 51.7097 100.818 51.7541 100.833C51.7985 100.848 51.8394 100.872 51.8746 100.903C51.9097 100.935 51.9384 100.972 51.9589 101.015C51.9795 101.057 51.9915 101.103 51.9944 101.149C51.9972 101.196 51.9908 101.243 51.9755 101.288C51.9602 101.332 51.9362 101.373 51.9051 101.408C51.874 101.443 51.8362 101.472 51.794 101.493C51.7518 101.513 51.7059 101.525 51.659 101.528C51.5907 101.533 51.523 101.545 51.4567 101.562C51.4593 101.631 51.4421 101.698 51.407 101.757C51.3718 101.816 51.3204 101.864 51.2589 101.894C51.2093 101.918 51.1549 101.931 51.0997 101.93Z" fill="white" stroke="#263238" stroke-width="0.45" stroke-linecap="round" stroke-linejoin="round"/>
<path d="M51.9819 101.387C51.9165 101.387 51.8524 101.369 51.7967 101.335C51.7409 101.301 51.6956 101.252 51.6659 101.194C51.6199 101.112 51.5957 101.02 51.5957 100.926C51.5957 100.832 51.6199 100.739 51.6659 100.657C51.8478 100.339 52.307 100.28 52.4957 100.269C52.5904 100.263 52.6835 100.295 52.7545 100.358C52.8254 100.421 52.8685 100.509 52.8743 100.604C52.88 100.699 52.8479 100.792 52.785 100.863C52.7221 100.934 52.6336 100.977 52.5389 100.983C52.4711 100.988 52.4041 101 52.3388 101.019C52.3402 101.087 52.3224 101.154 52.2874 101.212C52.2524 101.271 52.2017 101.318 52.1411 101.349C52.0915 101.373 52.0371 101.386 51.9819 101.387Z" fill="white" stroke="#263238" stroke-width="0.45" stroke-linecap="round" stroke-linejoin="round"/>
<path d="M48.0898 102.751C48.0898 102.751 48.1285 102.829 48.9061 102.829C49.6836 102.829 49.9155 103.179 49.9928 103.449" stroke="#263238" stroke-width="0.45" stroke-linecap="round" stroke-linejoin="round"/>
<path d="M55.4443 102.481C55.6153 102.326 55.8238 102.219 56.0491 102.169" stroke="#263238" stroke-width="0.45" stroke-linecap="round" stroke-linejoin="round"/>
<path d="M54.3809 103.761C54.5969 103.414 54.8443 103.089 55.1198 102.788" stroke="#263238" stroke-width="0.45" stroke-linecap="round" stroke-linejoin="round"/>
<path d="M50.3979 61.0588C50.3979 61.0588 50.3184 66.072 50.3184 71.2443C50.3184 76.4167 50.5844 81.1479 51.2278 82.6599C51.8712 84.1718 53.5695 92.0156 53.7287 93.05C53.8878 94.0845 53.6491 95.676 53.6491 96.4604C53.6511 96.9476 53.7317 97.4312 53.8878 97.8927C53.8878 97.8927 53.49 98.5293 53.49 98.9272C53.49 99.3251 53.0125 100.121 53.49 100.36C53.9674 100.598 54.2857 100.837 56.673 101.235C59.0602 101.633 60.5721 99.3251 60.97 98.6885C61.3679 98.0519 59.1057 82.8872 58.7874 80.1021C58.4691 77.317 58.6805 71.5512 59.158 69.3232C59.6354 67.0951 59.3967 61.9227 59.0784 60.8883C58.7601 59.8538 55.6567 59.2172 53.9856 59.3763C52.3145 59.5355 50.3979 61.0588 50.3979 61.0588Z" fill="#263238" stroke="#263238" stroke-width="0.45" stroke-linecap="round" stroke-linejoin="round"/>
<path d="M56.5243 63.2866C56.5243 63.2866 54.801 75.4979 54.801 77.4872C54.801 79.4766 55.6763 81.7047 55.915 82.6596C56.1537 83.6145 57.0632 94.4025 57.3019 95.1187C57.5406 95.8349 57.6202 97.7446 57.6202 97.7446C57.6202 97.7446 56.9836 97.9834 56.904 98.4608C56.8244 98.9383 57.2223 99.2566 57.2223 99.6544C57.2223 100.052 56.8244 100.689 56.6653 101.246C56.5773 101.617 56.6051 102.005 56.7449 102.36C56.7449 102.36 55.1534 104.508 54.4372 105.225C53.721 105.941 51.8908 107.294 50.8563 108.01C49.8219 108.726 47.7529 109.601 47.6734 110.715C47.5938 111.829 48.3895 112.784 50.3789 112.864C52.3683 112.943 55.9491 113.023 57.9385 112.784C59.9279 112.546 63.827 110.317 64.4636 109.522C65.1002 108.726 65.5072 108.646 65.5072 106.418C65.5072 104.19 65.5867 102.042 65.5072 101.803C65.4276 101.564 65.2798 101.166 65.4276 99.8932C65.5314 99.1683 65.4493 98.429 65.1889 97.7446C65.3192 97.3536 65.4255 96.955 65.5072 96.551C65.5867 96.0736 64.9501 94.9595 64.9501 94.9595C64.9501 94.9595 65.3935 86.7179 65.3935 84.8877C65.3935 83.0574 63.0858 79.0787 63.0858 79.0787C63.0858 79.0787 63.4041 77.4076 63.4041 77.0893C63.4041 76.771 62.9267 75.9753 62.9267 75.9753C62.9267 75.9753 65.2798 69.4138 65.5072 68.5385C65.7345 67.6632 66.3825 64.7985 66.5416 63.8436C66.7008 62.8887 66.1438 60.8993 65.4276 59.7057C64.7114 58.5121 61.608 57.0797 60.494 58.0346C59.3799 58.9895 56.5243 63.2866 56.5243 63.2866Z" fill="#263238" stroke="#263238" stroke-width="0.45" stroke-linecap="round" stroke-linejoin="round"/>
<path d="M49.7607 61.1383C49.7607 61.1383 51.9093 64.8783 53.3416 65.5945C54.7739 66.3107 56.2063 65.2762 58.1956 63.1277C60.185 60.9792 61.3786 59.3081 62.811 59.8651C64.2433 60.4222 66.8693 65.8332 67.2672 66.4698C67.665 67.1064 67.5855 61.2179 66.7897 59.3877C65.994 57.5575 61.9357 56.8413 57.0134 57.4779C52.0911 58.1145 49.7607 61.1383 49.7607 61.1383Z" fill="white" stroke="#263238" stroke-width="0.45" stroke-linecap="round" stroke-linejoin="round"/>
<path d="M49.3652 58.5829C49.3652 58.5829 49.2061 60.0152 49.2061 60.811C49.2061 61.6067 50.3997 61.5272 50.3997 61.5272C50.3997 61.5272 53.9805 60.0152 57.9593 59.7765C61.938 59.5378 65.9167 60.5723 66.5533 60.5723C67.1899 60.5723 67.5082 60.0152 67.5082 59.3786C67.5082 58.742 66.792 57.3097 66.792 57.3097C66.792 57.3097 65.121 55.4795 60.1874 55.3203C55.2537 55.1612 51.6729 55.2408 50.6384 56.1161C49.6039 56.9914 49.3652 58.5829 49.3652 58.5829Z" fill="#666666" stroke="#263238" stroke-width="0.45" stroke-linecap="round" stroke-linejoin="round"/>
<path d="M59.5825 27.3987C59.5825 27.3987 55.115 30.809 54.201 31.5115C53.287 32.2141 54.0487 32.8302 54.2533 32.9825C54.4652 33.198 54.6521 33.4367 54.8103 33.6942C53.7575 34.6358 52.6383 35.5005 51.4613 36.2815C49.4811 37.6024 49.1264 37.8048 48.5671 38.5141C48.0078 39.2235 45.9298 41.5607 45.9298 41.5607C46.0982 40.8272 46.2002 40.0799 46.2344 39.3281C46.2344 38.4186 46.6528 37.3069 46.1958 36.5452C45.7388 35.7836 44.6225 34.8196 43.6085 34.8196C42.5945 34.8196 41.6782 35.1743 41.0689 36.1382C40.4596 37.1022 39.9912 39.0734 39.6366 41.206C39.2819 43.3386 37.7199 45.935 38.3793 46.949C39.0386 47.963 40.1049 49.2226 41.5259 49.2226C42.9469 49.2226 44.2155 49.1203 44.8771 48.511C45.5387 47.9016 48.6694 46.5739 49.0241 46.3192C49.4168 46.0754 49.8237 45.8552 50.2427 45.6599C50.2427 45.6599 50.1927 49.5682 49.9903 51.1415C49.788 52.7148 48.4671 56.4707 48.3648 57.2801C48.2624 58.0895 49.5334 58.9034 49.5334 58.9034C49.5334 58.9034 50.852 57.5393 54.7626 57.1778C57.8904 56.935 61.0341 56.986 64.1524 57.3301C65.1163 57.4824 66.4873 58.144 67.108 57.5347C67.7287 56.9254 68.122 56.9254 68.0174 55.5544C67.9128 54.1835 67.715 52.7125 67.715 52.1032C67.715 51.4939 68.1197 46.6216 68.1197 46.4693C68.1197 46.317 69.4407 40.5308 69.4407 40.5308C69.4407 40.5308 72.4349 39.6213 74.4652 39.2121C76.4955 38.8029 77.3572 36.0155 76.6979 34.3899C76.0385 32.7643 73.4489 31.0909 72.3326 30.3293C71.2163 29.5677 67.5104 29.4199 67.0034 29.6199C66.4964 29.82 64.9231 29.5176 63.7045 29.3653C62.4858 29.213 61.8265 29.213 61.6242 29.263L61.4195 29.3153C61.4195 29.3153 61.1149 27.6397 60.6602 27.335C60.2055 27.0304 59.5825 27.3987 59.5825 27.3987Z" fill="#FFD000" stroke="#263238" stroke-width="0.45" stroke-linecap="round" stroke-linejoin="round"/>
<path d="M71.1758 38.4141C71.4578 38.4705 71.7435 38.507 72.0306 38.5232" stroke="#263238" stroke-width="0.45" stroke-linecap="round" stroke-linejoin="round"/>
<path d="M65.8891 30.6567C65.8891 30.6567 64.5681 31.3684 64.9228 32.5347C65.2775 33.701 67.6647 36.3998 68.7878 37.3092C69.2629 37.6948 69.8014 37.9948 70.3793 38.1959" stroke="#263238" stroke-width="0.45" stroke-linecap="round" stroke-linejoin="round"/>
<path d="M68.3242 37.2114C68.3242 37.2114 69.1882 38.4301 70.0498 38.7847C70.5471 38.9955 71.0831 39.0993 71.6231 39.0894" stroke="#263238" stroke-width="0.45" stroke-linecap="round" stroke-linejoin="round"/>
<path d="M45.6955 45.1118C45.5832 45.5276 45.4101 45.9245 45.1816 46.2895" stroke="#263238" stroke-width="0.45" stroke-linecap="round" stroke-linejoin="round"/>
<path d="M45.93 41.5605C45.93 41.5605 45.7891 43.4476 45.7891 44.4116" stroke="#263238" stroke-width="0.45" stroke-linecap="round" stroke-linejoin="round"/>
<path d="M45.8415 46.0352C45.8415 46.0352 45.4345 46.9991 44.8252 47.1515" stroke="#263238" stroke-width="0.45" stroke-linecap="round" stroke-linejoin="round"/>
<path d="M49.85 41.4673L50.2433 45.6711L49.1406 42.3312" stroke="#263238" stroke-width="0.45" stroke-linecap="round" stroke-linejoin="round"/>
<path d="M64.0117 37.4067C64.0117 37.4067 64.5187 39.6416 66.2853 40.1487C68.0518 40.6557 69.1795 40.5033 69.1795 40.5033" stroke="#263238" stroke-width="0.45" stroke-linecap="round" stroke-linejoin="round"/>
<path d="M52.1318 55.6748C51.9044 56.541 51.9567 57.1299 52.5456 57.3982" stroke="#263238" stroke-width="0.45" stroke-linecap="round" stroke-linejoin="round"/>
<path d="M53.0753 52.7466C52.9567 53.245 52.8048 53.735 52.6206 54.213L52.5273 54.4586" stroke="#263238" stroke-width="0.45" stroke-linecap="round" stroke-linejoin="round"/>
<path d="M54.6735 36.6929C54.3964 37.4794 54.1641 38.2809 53.9778 39.0938C53.5799 41.0035 53.5003 45.5393 53.5003 48.1653C53.5229 49.477 53.427 50.7881 53.2139 52.0826" stroke="#263238" stroke-width="0.45" stroke-linecap="round" stroke-linejoin="round"/>
<path d="M55.092 30.8975C55.092 30.8975 54.4554 32.0115 54.7737 32.3298C55.092 32.6481 55.7286 33.8417 55.7286 33.8417C55.7286 33.8417 55.3125 34.8694 54.8737 36.1153" stroke="#263238" stroke-width="0.45" stroke-linecap="round" stroke-linejoin="round"/>
<path d="M54.0624 48.0833C53.6071 48.0967 53.1629 47.9421 52.8142 47.649C51.9298 46.8942 51.6274 45.2323 51.8298 42.2607C51.8298 42.1425 51.848 42.022 51.8616 41.9015C51.8866 38.8117 53.5327 35.2809 53.6168 35.0808C53.6668 34.9603 53.8987 34.4806 54.0192 34.5306C54.1397 34.5806 54.2466 34.3032 54.1988 34.4147C54.1988 34.4147 54.1579 34.5124 54.0965 34.6716C54.3739 34.0486 54.5694 33.6485 54.5967 33.5916C54.625 33.5349 54.6746 33.4917 54.7346 33.4713C54.7946 33.4508 54.8602 33.4549 54.9173 33.4825C54.9465 33.4952 54.9727 33.514 54.9942 33.5375C55.0157 33.561 55.032 33.5888 55.0421 33.619C55.0521 33.6492 55.0557 33.6812 55.0526 33.7129C55.0496 33.7446 55.0398 33.7754 55.0241 33.8031C55.0014 33.8508 52.7096 38.5366 52.339 41.931C52.3363 42.197 52.3515 42.4629 52.3845 42.7268C52.4595 43.2997 52.6846 43.9977 53.3235 44.075C54.3079 44.1932 55.9313 42.8587 56.7793 40.6829C58.0411 37.4521 60.9717 30.7156 61.0013 30.6474C61.0227 30.5871 61.0672 30.5377 61.125 30.5102C61.1827 30.4827 61.2491 30.4793 61.3094 30.5007C61.3697 30.5221 61.419 30.5666 61.4465 30.6244C61.474 30.6822 61.4774 30.7485 61.456 30.8088C60.7136 33.4871 60.1575 36.2135 59.7918 38.9686C59.2779 43.0178 57.5182 47.3808 54.7536 48.006C54.5268 48.0575 54.295 48.0834 54.0624 48.0833ZM52.2436 43.8522C52.2436 45.671 52.5255 46.7783 53.1189 47.2875C53.4872 47.6013 53.9828 47.6831 54.6376 47.5354C56.802 47.0466 58.73 43.4975 59.3075 38.8958C59.5621 36.8951 59.935 34.999 60.2647 33.5325C59.2984 35.7902 57.9661 38.9322 57.2204 40.842C56.3632 43.0383 54.5899 44.7071 53.2621 44.5343C53.0514 44.5083 52.8497 44.433 52.6735 44.3145C52.4974 44.196 52.3516 44.0376 52.2481 43.8522H52.2436Z" fill="white" stroke="#263238" stroke-width="0.45" stroke-linecap="round" stroke-linejoin="round"/>
<path d="M54.7739 32.3301L54.5352 34.1603L55.2513 33.842L54.7739 32.3301Z" fill="white" stroke="#263238" stroke-width="0.45" stroke-linecap="round" stroke-linejoin="round"/>
<path d="M61.372 31.2661C61.372 31.2661 59.3417 32.1301 58.7324 32.5348" stroke="#263238" stroke-width="0.45" stroke-linecap="round" stroke-linejoin="round"/>
<path d="M64.8252 30.0995C64.8252 30.0995 64.9775 30.6566 65.8392 31.4182C66.7009 32.1798 68.3765 32.0275 69.0381 31.6728C69.6997 31.3182 69.8861 30.1905 69.8861 30.1905C69.8861 30.1905 68.8858 29.0833 68.3765 29.0332C67.8672 28.9832 65.0253 28.6786 64.8252 30.0995Z" fill="#666666" stroke="#263238" stroke-width="0.45" stroke-linecap="round" stroke-linejoin="round"/>
<path d="M70.241 29.5315C70.1432 29.3473 70.0386 29.17 69.9318 28.9972C69.9514 28.9733 69.9697 28.9482 69.9863 28.9221C70.0526 28.837 70.0966 28.7368 70.1145 28.6304C70.1323 28.524 70.1235 28.4149 70.0886 28.3128C69.9863 28.1105 69.5293 27.2488 69.377 27.2488C69.2974 27.2488 68.945 27.3034 68.6245 27.3557L68.5654 27.2988C68.4214 27.1683 68.2919 27.0227 68.1789 26.8646C68.2812 26.5213 68.6586 25.5959 68.5654 25.2731C68.4721 24.9502 67.5514 24.6137 67.2012 24.6638C66.9739 24.6979 66.46 25.3299 66.1326 25.771L65.6779 25.6891C65.5165 25.2185 65.1982 24.3455 65.0118 24.3091C64.7594 24.2568 64.3024 24.8161 64.3024 25.0707C64.3024 25.1526 64.3183 25.3595 64.3411 25.6005L63.7431 25.9824C63.7431 25.9824 62.9315 27.9627 62.5768 28.3697C62.2221 28.7766 60.758 29.6883 59.8349 29.7338C58.9118 29.7793 57.9069 29.8861 58.1093 30.4954C58.3116 31.1048 59.0187 31.1548 60.3828 31.3071C61.747 31.4594 62.9201 30.8001 63.4271 30.4954C63.9341 30.1908 65.0004 30.3431 65.712 30.3431C66.4237 30.3431 67.3877 30.0908 67.59 30.0908C67.7923 30.0908 68.3516 30.5455 68.9541 30.7001C69.5566 30.8547 70.6798 30.4954 70.6798 30.4954C70.6798 30.4954 70.748 30.4954 70.241 29.5315Z" fill="white" stroke="#263238" stroke-width="0.45" stroke-linecap="round" stroke-linejoin="round"/>
<path d="M67.0421 25.4208L66.9921 26.8418C66.9921 26.8418 66.6374 28.0081 66.8397 28.4151C67.0421 28.8221 67.8537 28.4651 67.956 28.2628C68.0583 28.0604 68.82 25.5345 68.7677 25.2185C68.7154 24.9024 68.0061 24.5068 67.6014 24.5068C67.4766 24.5104 67.3538 24.5392 67.2405 24.5916C67.1271 24.644 67.0256 24.7188 66.942 24.8115" fill="white"/>
<path d="M67.0421 25.4208L66.9921 26.8418C66.9921 26.8418 66.6374 28.0081 66.8397 28.4151C67.0421 28.8221 67.8537 28.4651 67.956 28.2628C68.0583 28.0604 68.82 25.5345 68.7677 25.2185C68.7154 24.9024 68.0061 24.5068 67.6014 24.5068C67.4766 24.5104 67.3538 24.5392 67.2405 24.5916C67.1271 24.644 67.0256 24.7188 66.942 24.8115" stroke="#263238" stroke-width="0.45" stroke-linecap="round" stroke-linejoin="round"/>
<path d="M70.5954 28.3125C70.5954 28.3125 71.5049 28.9218 71.5594 29.1242C71.614 29.3265 71.4571 30.4883 71.4571 31.1044C71.4571 31.7206 71.2548 32.3231 70.9001 31.9684C70.5454 31.6137 70.5454 30.4451 70.4931 30.2428C70.4408 30.0404 70.1885 29.9381 70.1885 29.9381" fill="white"/>
<path d="M70.5954 28.3125C70.5954 28.3125 71.5049 28.9218 71.5594 29.1242C71.614 29.3265 71.4571 30.4883 71.4571 31.1044C71.4571 31.7206 71.2548 32.3231 70.9001 31.9684C70.5454 31.6137 70.5454 30.4451 70.4931 30.2428C70.4408 30.0404 70.1885 29.9381 70.1885 29.9381" stroke="#263238" stroke-width="0.45" stroke-linecap="round" stroke-linejoin="round"/>
<path d="M64.7592 23.7972C64.7592 23.7972 63.4905 23.5448 63.395 24.0518C63.2996 24.5588 63.2427 26.2344 63.6497 26.3254C64.0566 26.4163 64.7137 26.4777 64.816 26.3254C64.9183 26.1731 65.2707 24.3951 65.223 24.0905C65.1752 23.7858 64.7592 23.7972 64.7592 23.7972Z" fill="white" stroke="#263238" stroke-width="0.45" stroke-linecap="round" stroke-linejoin="round"/>
<path d="M68.3105 27.3987C68.3105 27.3987 69.5292 26.4893 69.8839 26.3847C70.2385 26.2801 71.1548 27.2077 71.1548 27.2077C71.0709 27.8774 70.9348 28.5395 70.7478 29.188C70.4932 29.9496 70.1885 30.202 69.8839 30.202C69.8004 30.1994 69.7184 30.1802 69.6425 30.1454C69.5666 30.1107 69.4984 30.0612 69.4419 29.9998C69.3853 29.9384 69.3416 29.8664 69.3133 29.7879C69.2849 29.7094 69.2725 29.626 69.2768 29.5427C69.2768 29.1357 69.4291 27.817 69.4291 27.817" fill="white"/>
<path d="M68.3105 27.3987C68.3105 27.3987 69.5292 26.4893 69.8839 26.3847C70.2385 26.2801 71.1548 27.2077 71.1548 27.2077C71.0709 27.8774 70.9348 28.5395 70.7478 29.188C70.4932 29.9496 70.1885 30.202 69.8839 30.202C69.8004 30.1994 69.7184 30.1802 69.6425 30.1454C69.5666 30.1107 69.4984 30.0612 69.4419 29.9998C69.3853 29.9384 69.3416 29.8664 69.3133 29.7879C69.2849 29.7094 69.2725 29.626 69.2768 29.5427C69.2768 29.1357 69.4291 27.817 69.4291 27.817" stroke="#263238" stroke-width="0.45" stroke-linecap="round" stroke-linejoin="round"/>
<path d="M65.6736 26.1299C65.6736 26.1299 65.2189 26.7392 64.8097 26.8415C64.4926 26.9081 64.1697 26.9424 63.8457 26.9438" fill="white"/>
<path d="M65.6736 26.1299C65.6736 26.1299 65.2189 26.7392 64.8097 26.8415C64.4926 26.9081 64.1697 26.9424 63.8457 26.9438" stroke="#263238" stroke-width="0.45" stroke-linecap="round" stroke-linejoin="round"/>
<path d="M66.1895 26.4346C66.2115 26.5884 66.2828 26.7309 66.3926 26.8407C66.5025 26.9506 66.645 27.0219 66.7988 27.0439" fill="white"/>
<path d="M66.1895 26.4346C66.2115 26.5884 66.2828 26.7309 66.3926 26.8407C66.5025 26.9506 66.645 27.0219 66.7988 27.0439" stroke="#263238" stroke-width="0.45" stroke-linecap="round" stroke-linejoin="round"/>
<path d="M68.5153 28.1172C68.5153 28.1172 68.413 28.7765 69.1747 28.6242L68.5153 28.1172Z" fill="white"/>
<path d="M68.5153 28.1172C68.5153 28.1172 68.413 28.7765 69.1747 28.6242" stroke="#263238" stroke-width="0.45" stroke-linecap="round" stroke-linejoin="round"/>
<path d="M44.9778 34.0079C45.5309 33.146 46.0232 32.2465 46.4511 31.316C47.0604 29.9519 47.5674 29.0834 48.2268 28.3218C48.8861 27.5601 50.614 26.2074 50.7641 26.1914C51.2188 26.1391 51.2188 26.6984 51.2188 26.6984C51.2188 26.6984 52.0304 26.2437 52.2851 26.4438C52.5397 26.6439 52.4328 27.1509 52.0304 27.4601C51.3711 27.9671 50.5094 29.2789 50.4571 29.4381C50.4184 29.5452 50.3673 29.6475 50.3048 29.7427C50.3048 29.7427 51.4211 30.4043 51.4211 30.709C51.3949 30.9713 51.3265 31.2278 51.2188 31.4684C51.2674 31.8923 51.1755 32.3204 50.9573 32.687C50.6026 33.2463 50.3503 33.8033 50.0479 33.8033C49.7455 33.8033 49.5932 33.7533 49.5932 33.4486C49.5932 33.144 49.9478 32.4346 49.9478 32.4346C49.6461 32.7084 49.374 33.0132 49.1362 33.3441C48.8315 33.7988 48.5269 34.3603 48.0199 34.5627C47.5129 34.765 46.5989 35.0174 46.5989 35.0174L45.6758 36.5293C45.2306 36.6171 44.7686 36.548 44.3685 36.3338C43.8115 35.9791 43.6592 35.2175 43.6592 35.2175L44.9778 34.0079Z" fill="white" stroke="#263238" stroke-width="0.45" stroke-linecap="round" stroke-linejoin="round"/>
<path d="M44.6228 34.0578C44.6228 34.2276 44.6642 34.3948 44.7435 34.545C44.8227 34.6951 44.9374 34.8237 45.0775 34.9195C45.5846 35.3265 46.6008 35.3742 46.6008 35.3742C46.6008 35.3742 46.8032 35.2219 46.8032 35.4765C46.8032 35.7311 46.0415 37.0498 45.7369 37.5568C45.4322 38.0638 43.7589 38.1661 43.1496 37.3545C42.5403 36.5428 42.5903 35.4765 42.6949 35.3242C42.7994 35.1718 44.1659 33.96 44.1659 33.96C44.1659 33.96 44.5728 33.7031 44.6228 34.0578Z" fill="#666666" stroke="#263238" stroke-width="0.45" stroke-linecap="round" stroke-linejoin="round"/>
<path d="M51.2207 26.6982C51.2207 26.6982 49.952 27.5599 49.5451 28.1192C49.1381 28.6785 48.8857 28.9832 48.8857 28.9832" stroke="#263238" stroke-width="0.45" stroke-linecap="round" stroke-linejoin="round"/>
<path d="M50.0537 30.709L51.22 31.4684" stroke="#263238" stroke-width="0.45" stroke-linecap="round" stroke-linejoin="round"/>
<path d="M50.3066 29.7427C50.3066 29.7427 49.9519 29.4903 49.6973 29.6426" stroke="#263238" stroke-width="0.45" stroke-linecap="round" stroke-linejoin="round"/>
<path d="M65.5207 104.017C65.2706 104.239 64.9978 104.482 64.7022 104.747C63.1107 106.18 60.7235 106.18 60.7235 106.18C60.7235 106.18 59.9277 102.599 58.9728 102.36C58.0179 102.121 56.7447 102.36 56.7447 102.36C56.7447 102.36 55.1532 104.509 54.4371 105.225C53.7209 105.941 51.8907 107.294 50.8562 108.01C49.8217 108.726 47.7528 109.601 47.6732 110.715C47.5937 111.829 47.8642 112.334 49.7763 112.893C51.5474 113.41 55.949 113.023 57.9384 112.784C59.9277 112.546 63.8269 110.317 64.4635 109.522C65.1001 108.726 65.507 108.646 65.507 106.418C65.507 105.573 65.507 104.736 65.5207 104.017Z" fill="white" stroke="#263238" stroke-width="0.45" stroke-linecap="round" stroke-linejoin="round"/>
<path d="M65.3524 107.444C63.5296 108.93 61.477 110.109 59.2752 110.936C56.3423 112.055 52.5705 112.125 49.8445 111.636C48.4462 111.384 47.896 110.968 47.6914 110.622C47.6832 110.653 47.6771 110.684 47.6732 110.715C47.5937 111.83 47.8642 112.334 49.7763 112.894C51.5474 113.41 55.949 113.023 57.9384 112.784C59.9277 112.546 63.8269 110.318 64.4635 109.522C64.9955 108.858 65.3593 108.69 65.4661 107.364C65.4275 107.392 65.3911 107.414 65.3524 107.444Z" stroke="#263238" stroke-width="0.45" stroke-linecap="round" stroke-linejoin="round"/>
<path d="M52.1279 107.294C52.1279 107.294 51.1981 107.605 51.6619 108.003C51.8756 108.185 53.9923 109.431 54.5356 109.081C55.37 108.544 52.1279 107.294 52.1279 107.294Z" stroke="#263238" stroke-width="0.45" stroke-linecap="round" stroke-linejoin="round"/>
<path d="M54.8057 108.421C54.8057 108.421 59.205 105.348 59.7643 104.44" stroke="#263238" stroke-width="0.45" stroke-linecap="round" stroke-linejoin="round"/>
<path d="M55.5743 108.501C55.479 108.501 55.3877 108.463 55.3197 108.397C53.9555 107.032 52.8187 107.162 52.7619 107.169C52.6681 107.183 52.5725 107.16 52.4959 107.104C52.4194 107.048 52.3683 106.964 52.3538 106.87C52.3393 106.776 52.3627 106.68 52.4188 106.604C52.4748 106.527 52.559 106.476 52.6528 106.462C52.7142 106.462 54.1806 106.234 55.8358 107.89C55.8692 107.923 55.8958 107.962 55.9139 108.006C55.9321 108.049 55.9414 108.096 55.9414 108.143C55.9414 108.19 55.9321 108.237 55.9139 108.28C55.8958 108.324 55.8692 108.363 55.8358 108.397C55.8013 108.43 55.7604 108.457 55.7156 108.475C55.6707 108.493 55.6226 108.502 55.5743 108.501Z" fill="white" stroke="#263238" stroke-width="0.45" stroke-linecap="round" stroke-linejoin="round"/>
<path d="M56.7612 107.733C56.7116 107.733 56.6625 107.723 56.6171 107.703C56.5716 107.683 56.5309 107.653 56.4975 107.617C55.1697 106.162 53.6055 106.332 53.5919 106.332C53.5453 106.338 53.4981 106.334 53.4529 106.322C53.4077 106.309 53.3654 106.288 53.3285 106.259C53.2915 106.23 53.2606 106.194 53.2376 106.153C53.2145 106.112 53.1997 106.067 53.194 106.021C53.1884 105.974 53.1919 105.927 53.2045 105.882C53.2171 105.836 53.2384 105.794 53.2674 105.757C53.2963 105.72 53.3322 105.689 53.3731 105.666C53.4139 105.643 53.4589 105.628 53.5055 105.623C53.5851 105.623 55.4517 105.409 57.025 107.132C57.0725 107.183 57.104 107.247 57.1157 107.316C57.1274 107.385 57.1186 107.455 57.0906 107.519C57.0625 107.583 57.0164 107.637 56.9579 107.675C56.8993 107.713 56.831 107.733 56.7612 107.733Z" fill="white" stroke="#263238" stroke-width="0.45" stroke-linecap="round" stroke-linejoin="round"/>
<path d="M57.8086 106.964C57.7547 106.964 57.7014 106.952 57.6529 106.929C57.6044 106.905 57.562 106.87 57.529 106.828C56.5241 105.568 54.8734 105.464 54.5893 105.55C54.5055 105.586 54.4112 105.589 54.3256 105.557C54.2399 105.526 54.1693 105.464 54.1279 105.383C54.0866 105.302 54.0777 105.208 54.103 105.12C54.1283 105.033 54.1859 104.958 54.2641 104.911C54.7075 104.666 56.831 104.804 58.0883 106.382C58.1309 106.435 58.1578 106.498 58.1657 106.566C58.1736 106.633 58.1623 106.701 58.133 106.762C58.1037 106.823 58.0576 106.874 58.0002 106.91C57.9427 106.946 57.8763 106.965 57.8086 106.964Z" fill="white" stroke="#263238" stroke-width="0.45" stroke-linecap="round" stroke-linejoin="round"/>
<path d="M58.648 106.125C58.598 106.125 58.5486 106.115 58.5028 106.095C58.457 106.075 58.4158 106.046 58.382 106.009C57.6197 105.168 56.5591 104.659 55.4264 104.588C55.3363 104.581 55.2523 104.54 55.191 104.474C55.1297 104.407 55.0957 104.32 55.0957 104.23C55.0957 104.14 55.1297 104.053 55.191 103.986C55.2523 103.92 55.3363 103.879 55.4264 103.872C56.759 103.943 58.0095 104.538 58.9049 105.527C58.9517 105.578 58.9826 105.642 58.9938 105.71C59.0051 105.779 58.9962 105.849 58.9682 105.912C58.9402 105.976 58.8944 106.03 58.8364 106.067C58.7783 106.105 58.7105 106.125 58.6412 106.125H58.648Z" fill="white" stroke="#263238" stroke-width="0.45" stroke-linecap="round" stroke-linejoin="round"/>
<path d="M59.6258 108.801C59.5635 108.798 59.505 108.77 59.4626 108.724C59.4202 108.679 59.3972 108.618 59.3985 108.556L59.4121 107.926C59.4121 107.895 59.4183 107.865 59.4305 107.836C59.4426 107.808 59.4604 107.782 59.4827 107.761C59.505 107.74 59.5314 107.723 59.5604 107.712C59.5893 107.702 59.6201 107.697 59.6508 107.699C59.713 107.701 59.7715 107.729 59.8139 107.774C59.8564 107.819 59.8795 107.88 59.8782 107.942L59.8646 108.574C59.8616 108.635 59.8352 108.693 59.7907 108.735C59.7463 108.778 59.6872 108.801 59.6258 108.801Z" fill="white" stroke="#263238" stroke-width="0.45" stroke-linecap="round" stroke-linejoin="round"/>
<path d="M59.6393 108.287C59.5444 108.285 59.4543 108.245 59.3887 108.176C59.3231 108.108 59.2873 108.016 59.2891 107.921L59.3437 105.479C59.341 105.43 59.3486 105.38 59.3659 105.334C59.3832 105.288 59.4099 105.245 59.4444 105.21C59.4788 105.174 59.5202 105.146 59.566 105.128C59.6117 105.109 59.6609 105.1 59.7104 105.101C59.7598 105.102 59.8086 105.113 59.8535 105.134C59.8983 105.155 59.9385 105.185 59.9713 105.222C60.0041 105.259 60.0289 105.302 60.0441 105.349C60.0594 105.396 60.0647 105.446 60.0599 105.495L60.0053 107.937C60.0029 108.032 59.9631 108.122 59.8945 108.188C59.8259 108.253 59.7342 108.289 59.6393 108.287Z" fill="white" stroke="#263238" stroke-width="0.45" stroke-linecap="round" stroke-linejoin="round"/>
<path d="M57.7773 110.565C57.8901 110.752 57.9608 110.96 57.9842 111.177" stroke="#263238" stroke-width="0.45" stroke-linecap="round" stroke-linejoin="round"/>
<path d="M49.6035 108.965C49.6035 108.965 49.0214 109.351 50.0309 109.779C51.0404 110.206 53.6822 109.936 55.4283 109.586C55.9407 109.463 56.4797 109.524 56.9516 109.758" stroke="#263238" stroke-width="0.45" stroke-linecap="round" stroke-linejoin="round"/>
<path d="M64.3213 105.939C64.4103 105.761 64.5145 105.59 64.6328 105.43" stroke="#263238" stroke-width="0.45" stroke-linecap="round" stroke-linejoin="round"/>
<path d="M63.7773 108.374C63.781 107.734 63.8854 107.099 64.0865 106.491" stroke="#263238" stroke-width="0.45" stroke-linecap="round" stroke-linejoin="round"/>
<path d="M64.6904 42.5356C64.7643 42.0692 64.6982 41.5913 64.5004 41.1624C64.3026 40.7335 63.982 40.373 63.5793 40.1263C63.1765 39.8797 62.7096 39.758 62.2377 39.7768C61.7658 39.7955 61.3101 39.9539 60.9282 40.2317C60.5462 40.5095 60.2553 40.8944 60.0922 41.3376C59.9291 41.7809 59.9011 42.2625 60.0118 42.7216C60.1225 43.1808 60.3669 43.5968 60.714 43.917C61.0612 44.2372 61.4956 44.4472 61.9621 44.5205C62.5869 44.6174 63.2246 44.463 63.7358 44.0911C64.2471 43.7191 64.5903 43.1599 64.6904 42.5356Z" fill="#666666" stroke="#263238" stroke-width="0.45" stroke-linecap="round" stroke-linejoin="round"/>
<path d="M74.3738 45.0003L63.7812 44.0318L64.2973 40.7715L74.6648 43.1133C74.8029 43.1439 74.9241 43.2262 75.0035 43.3433C75.083 43.4603 75.1147 43.6033 75.0922 43.743L74.9672 44.5388C74.9438 44.6759 74.8699 44.7993 74.7601 44.8847C74.6503 44.9701 74.5124 45.0114 74.3738 45.0003Z" fill="#263238" stroke="#263238" stroke-width="0.45" stroke-linecap="round" stroke-linejoin="round"/>
<path d="M64.8544 40.8916L64.2973 40.7666L63.7812 44.0269L64.3519 44.0792L64.8544 40.8916Z" fill="white" stroke="#263238" stroke-width="0.45" stroke-linecap="round" stroke-linejoin="round"/>
<path d="M61.6416 44.4432C61.7474 44.4761 61.8552 44.502 61.9645 44.5205H62.0304L62.7784 39.8165C62.7556 39.8165 62.7352 39.8165 62.7124 39.8028C62.6032 39.7878 62.4931 39.7795 62.3828 39.7778L61.6416 44.4432Z" fill="white" stroke="#263238" stroke-width="0.45" stroke-linecap="round" stroke-linejoin="round"/>
</g>
<defs>
<clipPath id="clip0_896_9813">
<rect width="120" height="120" fill="white" transform="translate(0.5)"/>
</clipPath>
</defs>
</svg>
