<svg width="121" height="120" viewBox="0 0 121 120" fill="none" xmlns="http://www.w3.org/2000/svg">
<g clip-path="url(#clip0_896_14334)">
<path opacity="0.5" d="M120.5 108.857C120.5 108.891 82.7844 108.785 39.7085 108.785C-3.36737 108.785 0.942223 108.891 0.942223 108.857C0.942223 108.823 -3.38359 108.659 39.7085 108.659C82.8007 108.659 120.5 108.82 120.5 108.857Z" fill="#263238"/>
<path d="M111.999 59.1451C111.999 59.1451 111.808 78.2246 96.6624 92.399C81.5168 106.573 60.1768 109.531 42.9098 112.398C25.6429 115.266 12.1471 106.46 9.81924 91.4036C7.49143 76.3473 20.6138 70.6007 27.4081 52.5526C34.2023 34.5044 33.4475 28.8609 48.3898 16.7246C63.332 4.58832 87.1958 8.85867 100.034 25.9512C112.872 43.0438 111.999 59.1451 111.999 59.1451Z" fill="#FFECB2"/>
<path d="M117.643 102.263H3.35742V102.32H117.643V102.263Z" fill="#E0E0E0"/>
<path d="M93.828 104H91.4326V104.057H93.828V104Z" fill="#E0E0E0"/>
<path d="M105.204 105.143H96.0039V105.2H105.204V105.143Z" fill="#E0E0E0"/>
<path d="M67.4053 104.974H64.6533V105.031H67.4053V104.974Z" fill="#E0E0E0"/>
<path d="M63.3364 104.974H48.6758V105.031H63.3364V104.974Z" fill="#E0E0E0"/>
<path d="M35.2822 104.613H23.4971V104.67H35.2822V104.613Z" fill="#E0E0E0"/>
<path d="M86.0686 103.671H76.6309V103.728H86.0686V103.671Z" fill="#E0E0E0"/>
<path d="M21.4691 104.585H18.1982V104.643H21.4691V104.585Z" fill="#E0E0E0"/>
<path d="M57.5285 92.0687H13.3937C13.0479 92.0681 12.7165 91.9303 12.4723 91.6856C12.228 91.4409 12.0908 91.1093 12.0908 90.7636V28.7224C12.0938 28.3787 12.2324 28.05 12.4763 27.8077C12.7202 27.5655 13.0499 27.4293 13.3937 27.4287H57.5285C57.8747 27.4287 58.2066 27.5662 58.4514 27.811C58.6962 28.0557 58.8337 28.3877 58.8337 28.7339V90.7636C58.8337 91.1097 58.6962 91.4417 58.4514 91.6864C58.2066 91.9312 57.8747 92.0687 57.5285 92.0687ZM13.3937 27.4744C13.0631 27.475 12.7462 27.6068 12.5127 27.8408C12.2791 28.0747 12.148 28.3918 12.148 28.7224V90.7636C12.148 91.0942 12.2791 91.4113 12.5127 91.6452C12.7462 91.8792 13.0631 92.011 13.3937 92.0116H57.5285C57.8593 92.011 58.1764 91.8793 58.4103 91.6454C58.6442 91.4115 58.7759 91.0944 58.7765 90.7636V28.7224C58.7759 28.3916 58.6442 28.0745 58.4103 27.8406C58.1764 27.6067 57.8593 27.475 57.5285 27.4744H13.3937Z" fill="#E0E0E0"/>
<path d="M106.972 92.0687H62.8344C62.4885 92.0681 62.1569 91.9304 61.9122 91.6858C61.6676 91.4411 61.5299 91.1095 61.5293 90.7636V28.7224C61.5329 28.3785 61.6719 28.0498 61.9162 27.8076C62.1605 27.5654 62.4904 27.4293 62.8344 27.4287H106.972C107.315 27.4299 107.644 27.5664 107.887 27.8085C108.131 28.0507 108.269 28.3791 108.272 28.7224V90.7636C108.272 91.1089 108.135 91.4402 107.892 91.6848C107.648 91.9295 107.317 92.0675 106.972 92.0687ZM62.8344 27.4744C62.5036 27.475 62.1866 27.6067 61.9526 27.8406C61.7187 28.0745 61.587 28.3916 61.5864 28.7224V90.7636C61.587 91.0944 61.7187 91.4115 61.9526 91.6454C62.1866 91.8793 62.5036 92.011 62.8344 92.0116H106.972C107.302 92.011 107.619 91.8793 107.853 91.6454C108.087 91.4115 108.219 91.0944 108.22 90.7636V28.7224C108.219 28.3916 108.087 28.0745 107.853 27.8406C107.619 27.6067 107.302 27.475 106.972 27.4744H62.8344Z" fill="#E0E0E0"/>
<path d="M98.2371 36.103H78.4268V58.9007H98.2371V36.103Z" fill="#E0E0E0"/>
<path d="M100.487 36.103H79.04V58.9007H100.487V36.103Z" fill="#F0F0F0"/>
<path d="M98.6904 57.104V37.8994H80.8367V57.104H98.6904Z" fill="#FAFAFA"/>
<path d="M90.6479 52.9968C93.6852 52.5076 95.7508 49.6489 95.2616 46.6116C94.7723 43.5744 91.9136 41.5088 88.8764 41.998C85.8391 42.4872 83.7735 45.346 84.2627 48.3832C84.7519 51.4204 87.6107 53.486 90.6479 52.9968Z" fill="#F0F0F0"/>
<path d="M102.153 82.3223H97.127V102.261H102.153V82.3223Z" fill="#E0E0E0"/>
<path d="M101.199 102.263H102.153V99.5474H100.198L101.199 102.263Z" fill="#EBEBEB"/>
<path d="M80.1298 82.3223H75.1035V102.261H80.1298V82.3223Z" fill="#E0E0E0"/>
<path d="M102.153 82.3223H79.2959V100.594H102.153V82.3223Z" fill="#EBEBEB"/>
<path d="M101.414 83.1338H80.0361V88.1441H101.414V83.1338Z" fill="#F5F5F5"/>
<path d="M80.2513 102.263H79.2959V99.5474H81.2525L80.2513 102.263Z" fill="#EBEBEB"/>
<path d="M90.2148 85.6389C90.2148 85.7388 90.2445 85.8365 90.3 85.9196C90.3555 86.0026 90.4344 86.0674 90.5267 86.1056C90.619 86.1439 90.7205 86.1539 90.8185 86.1344C90.9165 86.1149 91.0065 86.0668 91.0772 85.9961C91.1478 85.9255 91.1959 85.8355 91.2154 85.7375C91.2349 85.6395 91.2249 85.5379 91.1867 85.4456C91.1484 85.3533 91.0837 85.2744 91.0006 85.2189C90.9176 85.1634 90.8199 85.1338 90.72 85.1338C90.586 85.1338 90.4575 85.187 90.3628 85.2817C90.2681 85.3765 90.2148 85.505 90.2148 85.6389Z" fill="#E0E0E0"/>
<path d="M101.414 88.9531H80.0361V93.9657H101.414V88.9531Z" fill="#F5F5F5"/>
<path d="M90.2148 91.4606C90.2153 91.5604 90.2453 91.6578 90.3011 91.7406C90.3569 91.8233 90.4359 91.8877 90.5283 91.9256C90.6206 91.9635 90.7221 91.9732 90.8199 91.9534C90.9178 91.9337 91.0076 91.8854 91.078 91.8147C91.1484 91.7439 91.1963 91.6539 91.2156 91.556C91.2349 91.4581 91.2248 91.3566 91.1865 91.2644C91.1482 91.1723 91.0834 91.0935 91.0004 91.0381C90.9174 90.9827 90.8198 90.9531 90.72 90.9531C90.6535 90.9531 90.5876 90.9663 90.5261 90.9918C90.4647 91.0173 90.4089 91.0547 90.362 91.1019C90.3151 91.149 90.2779 91.205 90.2526 91.2665C90.2274 91.3281 90.2145 91.394 90.2148 91.4606Z" fill="#E0E0E0"/>
<path d="M101.414 94.7749H80.0361V99.7852H101.414V94.7749Z" fill="#F5F5F5"/>
<path d="M90.2148 97.28C90.2148 97.38 90.2445 97.4776 90.3 97.5607C90.3555 97.6438 90.4344 97.7085 90.5267 97.7467C90.619 97.785 90.7205 97.795 90.8185 97.7755C90.9165 97.756 91.0065 97.7079 91.0772 97.6372C91.1478 97.5666 91.1959 97.4766 91.2154 97.3786C91.2349 97.2806 91.2249 97.179 91.1867 97.0867C91.1484 96.9944 91.0837 96.9155 91.0006 96.86C90.9176 96.8045 90.8199 96.7749 90.72 96.7749C90.586 96.7749 90.4575 96.8281 90.3628 96.9229C90.2681 97.0176 90.2148 97.1461 90.2148 97.28Z" fill="#E0E0E0"/>
<path d="M61.3845 77.0792C62.5822 78.0552 64.2348 79.8472 65.7502 82.3638C66.7605 84.0415 67.3685 85.7924 67.6337 88.1215C67.6337 85.4929 67.62 82.6678 67.6108 80.0026C67.3068 79.3169 66.612 77.7375 66.1137 76.4872C64.4497 72.3204 63.828 71.2964 62.3354 67.7009C60.34 62.9009 58.2942 57.2186 58.8817 57.6735C60.0725 58.6015 64.6462 67.1615 65.14 68.3866C66.4837 71.6536 67.3156 75.1083 67.6062 78.6289C67.6062 76.1146 67.588 73.8289 67.5788 72.0529C67.5468 66.2678 67.4485 64.4026 67.4005 63.8244C67.2154 63.5318 66.9982 63.1912 66.8702 63.0061C65.796 61.4541 65.3822 60.1306 64.3697 57.8152C62.9365 54.5329 61.7022 48.7066 62.0634 49.0015C63.5651 50.2244 64.7514 52.8552 66.3102 56.2084C67.8691 59.5615 67.4211 61.4861 67.732 64.3501C67.796 64.9124 67.8462 67.0312 67.8805 69.9706C68.2851 66.8392 69.044 64.7775 70.4268 62.9009C72.1274 60.5969 73.7731 59.0381 74.98 58.2266C76.1868 57.4152 72.8954 63.0769 71.3228 65.5409C69.9217 67.7421 68.6302 69.6849 67.8942 71.5981C67.9331 75.5798 67.9514 80.6221 67.9514 85.3124C68.3125 83.1752 68.9022 80.8758 69.6885 79.0952C70.6348 76.9535 72.0885 73.6712 73.2474 72.5581C73.524 72.2906 72.036 78.6746 71.0805 80.3729C70.1251 82.0712 69.4234 83.6712 68.8222 84.6335C68.6828 84.8621 68.2165 85.7238 67.9514 86.2198C67.9514 91.9501 67.9194 97.0084 67.8691 98.7295H67.6222C67.6382 98.2724 67.6405 95.3695 67.636 91.5112C67.0394 89.4175 65.6771 87.0266 64.5525 84.8461C63.3274 82.4872 60.1868 76.1009 61.3845 77.0792Z" fill="#E0E0E0"/>
<path d="M64.1667 102.263H71.3301L71.8719 95.2412H63.625L64.1667 102.263Z" fill="#EBEBEB"/>
<path d="M63.0926 96.0575H72.4046L72.6721 93.6895H62.8252L63.0926 96.0575Z" fill="#EBEBEB"/>
<path d="M33.412 35.5156H20.6006V49.5842H33.412V35.5156Z" fill="#E0E0E0"/>
<path d="M34.8017 35.5156H21.5674V49.5842H34.8017V35.5156Z" fill="#F0F0F0"/>
<path d="M33.6914 48.4755V36.624H22.6743V48.4755H33.6914Z" fill="#FAFAFA"/>
<path d="M31.0215 45.6022V39.4971H25.3461V45.6022H31.0215Z" fill="#F0F0F0"/>
<path d="M46.7218 43.9043H37.2178V54.3409H46.7218V43.9043Z" fill="#E0E0E0"/>
<path d="M47.7527 43.9043H37.9355V54.3409H47.7527V43.9043Z" fill="#F0F0F0"/>
<path d="M46.9297 53.5179V44.7271H38.7583V53.5179H46.9297Z" fill="#FAFAFA"/>
<path d="M42.8428 46.9009L40.6074 50.7706H45.0783L42.8428 46.9009Z" fill="#F0F0F0"/>
<path d="M25.9536 75.3306H19.709V101.049H25.9536V75.3306Z" fill="#EBEBEB"/>
<path d="M64.2947 101.049H20.9072V102.263H64.2947V101.049Z" fill="#EBEBEB"/>
<path d="M25.9513 101.049H65.4941V75.3305H25.9513V101.049Z" fill="#F5F5F5"/>
<path d="M28.4069 91.3306H63.04V85.0494H28.4069V91.3306Z" fill="#EBEBEB"/>
<path d="M28.4069 98.7588H63.04V92.4776H28.4069V98.7588Z" fill="#EBEBEB"/>
<path d="M54.6742 85.7372H36.7748C36.6606 85.7372 36.5511 85.692 36.4701 85.6115C36.3892 85.531 36.3434 85.4217 36.3428 85.3075C36.3428 85.1929 36.3883 85.083 36.4693 85.002C36.5503 84.921 36.6602 84.8755 36.7748 84.8755H54.6742C54.7884 84.8761 54.8977 84.9219 54.9782 85.0028C55.0587 85.0838 55.1039 85.1933 55.1039 85.3075C55.1039 85.4215 55.0586 85.5308 54.9781 85.6113C54.8975 85.6919 54.7882 85.7372 54.6742 85.7372Z" fill="#F5F5F5"/>
<path d="M28.4069 83.9019H63.04V77.6207H28.4069V83.9019Z" fill="#EBEBEB"/>
<path d="M54.6742 78.3109H36.7748C36.6602 78.3109 36.5503 78.2654 36.4693 78.1844C36.3883 78.1034 36.3428 77.9935 36.3428 77.8789C36.3434 77.7648 36.3892 77.6555 36.4701 77.5749C36.5511 77.4944 36.6606 77.4492 36.7748 77.4492H54.6742C54.7882 77.4492 54.8975 77.4945 54.9781 77.5751C55.0586 77.6557 55.1039 77.765 55.1039 77.8789C55.1039 77.9931 55.0587 78.1026 54.9782 78.1836C54.8977 78.2645 54.7884 78.3103 54.6742 78.3109Z" fill="#F5F5F5"/>
<path d="M54.6742 93.1659H36.7748C36.6602 93.1659 36.5503 93.1204 36.4693 93.0394C36.3883 92.9584 36.3428 92.8485 36.3428 92.7339C36.3434 92.6197 36.3892 92.5104 36.4701 92.4299C36.5511 92.3494 36.6606 92.3042 36.7748 92.3042H54.6742C54.7882 92.3042 54.8975 92.3495 54.9781 92.4301C55.0586 92.5107 55.1039 92.6199 55.1039 92.7339C55.1039 92.8481 55.0587 92.9576 54.9782 93.0386C54.8977 93.1195 54.7884 93.1653 54.6742 93.1659Z" fill="#F5F5F5"/>
<path d="M66.329 73.2183H25.9541V75.3303H66.329V73.2183Z" fill="#EBEBEB"/>
<path d="M18.8364 75.3325H25.9541V73.2205H18.8364V75.3325Z" fill="#E0E0E0"/>
<path d="M60.5003 112.585C84.9763 112.585 104.818 111.427 104.818 109.998C104.818 108.569 84.9763 107.41 60.5003 107.41C36.0243 107.41 16.1826 108.569 16.1826 109.998C16.1826 111.427 36.0243 112.585 60.5003 112.585Z" fill="#F5F5F5"/>
<path d="M70.6551 38.0455L70.4268 38.0552L70.4914 39.5784L70.7198 39.5687L70.6551 38.0455Z" fill="#FFD000"/>
<path opacity="0.3" d="M70.6551 38.0455L70.4268 38.0552L70.4914 39.5784L70.7198 39.5687L70.6551 38.0455Z" fill="black"/>
<path d="M70.4569 33.4073L70.2285 33.417L70.3687 36.7214L70.5971 36.7118L70.4569 33.4073Z" fill="#FFD000"/>
<path opacity="0.3" d="M70.4569 33.4073L70.2285 33.417L70.3687 36.7214L70.5971 36.7118L70.4569 33.4073Z" fill="black"/>
<path d="M13.9473 33.7897L15.801 77.5908L18.2101 89.3371L71.929 87.0605L69.5724 31.4331L13.9473 33.7897Z" fill="#787878"/>
<path opacity="0.3" d="M13.9473 33.7897L15.801 77.5908L18.2101 89.3371L71.929 87.0605L69.5724 31.4331L13.9473 33.7897Z" fill="black"/>
<path d="M69.9996 85.2297L69.8945 82.7635L69.7893 80.2972L69.6865 77.8309L69.5813 75.3646L69.4762 72.8983L69.371 70.432L69.2682 67.968L69.163 65.5017L69.0579 63.0354L68.9573 60.5577L68.9048 59.3234L68.8522 58.0914L68.747 55.6252L68.6419 53.1589L68.539 50.6926L68.4316 48.2286L68.3265 45.7623L68.2213 43.296L68.1185 40.8297L68.0133 38.3634L67.9082 35.8857L67.8145 33.4172C67.8139 33.4024 67.8076 33.3885 67.7969 33.3782C67.7863 33.368 67.7721 33.3623 67.7573 33.3623L65.291 33.4674L62.8248 33.5703L60.3562 33.6754L15.9288 35.5566C15.9136 35.5589 15.8994 35.5652 15.8876 35.5749C15.8784 35.5866 15.8735 35.6011 15.8739 35.616L16.971 61.5246L17.8853 82.8983L15.8076 77.5932L18.2145 89.3372L19.147 87.4423L20.603 87.3806L23.0693 87.2754L25.5288 87.1726L27.995 87.0675L30.4613 86.9623L32.9253 86.8595L35.3916 86.7543L37.8556 86.6492L40.3219 86.544L42.7882 86.4412L45.2522 86.336L47.7185 86.2309L50.2145 86.1257L52.6808 86.0229L55.1448 85.9177L57.611 85.8126L60.075 85.7097L62.539 85.6069L65.003 85.5017L67.467 85.3966L69.931 85.2937C69.9462 85.2921 69.9601 85.2847 69.9699 85.2732C69.9782 85.2692 69.9854 85.2631 69.9906 85.2554C69.9958 85.2478 69.9989 85.2389 69.9996 85.2297ZM17.8853 80.08L20.2373 79.9817L20.3379 82.3337L17.9859 82.4343L17.8853 80.08ZM17.7802 77.6137L20.1345 77.5132L20.2328 79.8675L17.8808 79.9657L17.7802 77.6137ZM17.6773 75.1474L20.0293 75.0469L20.1299 77.3989L17.7756 77.4995L17.6773 75.1474ZM17.5608 72.6857L19.9128 72.5852L20.0133 74.9394L17.659 75.04L17.5608 72.6857ZM17.4556 70.2195L19.8099 70.1189L19.9082 72.4572L17.5562 72.5577L17.4556 70.2195ZM17.3505 67.7509L19.7048 67.6526L19.8145 69.9977L17.4625 70.0983L17.3505 67.7509ZM17.2476 65.2846L19.5996 65.184L19.7002 67.5383L17.3459 67.6366L17.2476 65.2846ZM17.1425 62.816L19.4945 62.7177L19.5859 65.0629L17.2339 65.1634L17.1425 62.816ZM17.0876 61.5269L17.0373 60.3429L19.3916 60.2423L19.4396 61.4194L19.4899 62.5966L17.1379 62.6949L17.0876 61.5269ZM16.9322 57.8697L19.2865 57.7714L19.387 60.1234L17.0328 60.224L16.9322 57.8697ZM16.8293 55.4034L19.1813 55.3143L19.2819 57.6686L16.9276 57.7669L16.8293 55.4034ZM16.7242 52.9349L19.0762 52.8366L19.1768 55.1886L16.8248 55.2892L16.7242 52.9349ZM16.6145 50.4732L18.9688 50.3726L19.067 52.7269L16.715 52.8252L16.6145 50.4732ZM16.5162 48L18.8682 47.9017L18.9688 50.2537L16.6145 50.3543L16.5162 48ZM16.411 45.5337L18.763 45.4332L18.8636 47.7874L16.5093 47.8857L16.411 45.5337ZM16.3059 43.0674L18.6716 42.9714L18.7699 45.3234L16.4179 45.424L16.3059 43.0674ZM16.2008 40.5989L18.555 40.4983L18.6533 42.8526L16.3013 42.9532L16.2008 40.5989ZM16.0979 38.1326L18.443 38.0366L18.5436 40.3886L16.1893 40.4892L16.0979 38.1326ZM15.9928 35.664L18.3448 35.5657L18.443 37.9223L16.091 38.0229L15.9928 35.664ZM67.7916 35.8286L65.4396 35.9269L65.339 33.5749L67.6933 33.4743L67.7916 35.8286ZM67.8968 38.2949L65.5425 38.3954L65.4442 36.0412L67.7962 35.9429L67.8968 38.2949ZM68.0019 40.7612L65.6476 40.8617L65.5493 38.5097L67.9013 38.4092L68.0019 40.7612ZM68.1048 43.2297L65.7528 43.328L65.6522 40.976L68.0065 40.8754L68.1048 43.2297ZM68.2099 45.696L65.8579 45.7966L65.7573 43.4423L68.1093 43.344L68.2099 45.696ZM68.315 48.1646L65.9608 48.2629L65.8625 45.9109L68.2145 45.8103L68.315 48.1646ZM68.4202 50.6309L66.0659 50.7314L65.9653 48.3772L68.3196 48.2789L68.4202 50.6309ZM68.523 53.0994L66.171 53.1977L66.0705 50.8457L68.4248 50.7452L68.523 53.0994ZM68.6282 55.5657L66.2762 55.6663L66.1756 53.312L68.5276 53.2137L68.6282 55.5657ZM68.7333 58.0343L66.379 58.1326L66.2808 55.7806L68.6328 55.68L68.7333 58.0343ZM68.7882 59.3234L68.8362 60.5006L66.4842 60.6012L66.443 59.4286L66.3928 58.2514L68.747 58.1532L68.7882 59.3234ZM68.9413 62.9692L66.5893 63.0674L66.4888 60.7154L68.843 60.6149L68.9413 62.9692ZM69.0465 65.4354L66.6922 65.536L66.5939 63.1817L68.9573 63.0857L69.0465 65.4354ZM69.1516 67.9017L66.7973 68.0023L66.699 65.6503L69.051 65.5497L69.1516 67.9017ZM69.2545 70.3703L66.9025 70.4686L66.8019 68.1143L69.1562 68.0137L69.2545 70.3703ZM69.3596 72.8366L67.0076 72.9372L66.907 70.5829L69.2613 70.4846L69.3596 72.8366ZM69.4648 75.3052L67.1105 75.4035L67.0122 73.0515L69.3642 72.9509L69.4648 75.3052ZM69.5699 77.7715L67.2156 77.872L67.1173 75.5177L69.4693 75.4194L69.5699 77.7715ZM69.6728 80.24L67.3208 80.3383L67.2202 77.9863L69.5745 77.8857L69.6728 80.24ZM69.7779 82.7063L67.4259 82.8069L67.3253 80.4526L69.6773 80.3543L69.7779 82.7063ZM19.5539 61.4149L19.5059 60.2377L21.8579 60.1372L21.9082 61.3143L21.9585 62.4914L19.6042 62.592L19.5539 61.4149ZM66.3196 59.4286L66.3699 60.6057L64.0179 60.704L63.9676 59.5292L63.9173 58.352L66.2693 58.2514L66.3196 59.4286ZM22.0225 61.3052L21.9722 60.128L24.3265 60.0297L24.3745 61.2046L24.4248 62.3817L22.0728 62.4823L22.0225 61.3052ZM63.851 59.5337L63.9013 60.7109L61.547 60.8092L61.4968 59.632L61.4465 58.4572L63.8008 58.3566L63.851 59.5337ZM24.4888 61.2046L24.4408 60.0297L26.7928 59.9292L26.843 61.1063L26.8933 62.2812L24.539 62.3817L24.4888 61.2046ZM61.3848 59.6434L61.435 60.8183L59.083 60.9189L59.0328 59.7417L58.9825 58.5646L61.3345 58.4663L61.3848 59.6434ZM26.9573 61.1017L26.907 59.9246L29.259 59.824L29.3093 61.0012L29.3596 62.1783L27.0076 62.2766L26.9573 61.1017ZM58.9185 59.7463L58.9688 60.9234L56.6145 61.0286L56.5642 59.8514L56.5162 58.6743L58.8682 58.576L58.9185 59.7463ZM29.4328 60.9966L29.3825 59.8195L31.7368 59.7212L31.787 60.896L31.8373 62.0732L29.483 62.1737L29.4328 60.9966ZM56.459 59.8537L56.5093 61.0309L54.1573 61.1292L54.107 59.9543L54.0568 58.7772L56.411 58.6766L56.459 59.8537ZM31.8922 60.8914L31.8419 59.7143L34.1939 59.616L34.2442 60.7932L34.2945 61.968L31.9425 62.0686L31.8922 60.8914ZM53.9836 59.9566L54.0339 61.1314L51.6796 61.232L51.6293 60.0549L51.5859 58.88L53.9379 58.7794L53.9836 59.9566ZM34.3585 60.7863L34.3082 59.6114L36.6625 59.5109L36.7128 60.688L36.763 61.8652L34.4088 61.9634L34.3585 60.7863ZM51.515 60.0594L51.5653 61.2366L49.2133 61.3372L49.163 60.16L49.1128 58.9829L51.467 58.8846L51.515 60.0594ZM36.827 60.6834L36.7768 59.5063L39.1288 59.4057L39.179 60.5829L39.2293 61.76L36.8773 61.8583L36.827 60.6834ZM49.0488 60.1646L49.099 61.3417L46.7448 61.4423L46.6968 60.2652L46.6465 59.088L48.9985 58.9874L49.0488 60.1646ZM41.7573 60.4732L41.707 59.2983L44.059 59.1977L44.1093 60.3749L44.1596 61.5497L41.8053 61.6503L41.7573 60.4732ZM41.6019 56.8297L43.9562 56.7292L44.0545 59.0834L41.7025 59.184L41.6019 56.8297ZM41.5928 59.2L39.2385 59.2983L39.1402 56.9463L41.4922 56.8457L41.5928 59.2ZM46.5825 60.2812L46.6305 61.4583L44.2785 61.5566L44.2282 60.3817L44.1779 59.2046L46.5322 59.104L46.5825 60.2812ZM44.1733 59.0903L44.075 56.736L46.427 56.6377L46.5276 58.9897L44.1733 59.0903ZM44.1733 61.6754L44.2739 64.0297L41.9196 64.128L41.8213 61.776L44.1733 61.6754ZM44.2876 61.6754L46.6396 61.5772L46.7402 63.9292L44.3882 64.0297L44.2876 61.6754ZM46.7539 61.5726L49.1082 61.472L49.2088 63.824L46.8545 63.9246L46.7539 61.5726ZM46.6465 58.9897L46.5459 56.6377L48.8979 56.5372L48.9985 58.8892L46.6465 58.9897ZM46.5413 56.5234L46.4408 54.1692L48.795 54.0709L48.8933 56.4229L46.5413 56.5234ZM46.427 56.5234L44.0728 56.6217L43.9745 54.2697L46.3265 54.1692L46.427 56.5234ZM43.9585 56.6263L41.6065 56.7269L41.5059 54.3749L43.8602 54.2743L43.9585 56.6263ZM41.4922 56.7314L39.1379 56.832L39.0396 54.4777L41.3916 54.3794L41.4922 56.7314ZM39.0236 56.8366L36.6716 56.9372L36.571 54.5829L38.9253 54.4823L39.0236 56.8366ZM39.0236 56.9509L39.1219 59.3029L36.7699 59.4034L36.6693 57.0514L39.0236 56.9509ZM39.2933 60.5714L39.243 59.3943L41.5973 59.296L41.6476 60.4709L41.6956 61.648L39.3436 61.7486L39.2933 60.5714ZM41.7025 61.7623L41.8008 64.1166L39.4488 64.2286L39.3482 61.8766L41.7025 61.7623ZM41.8053 64.2309L41.9059 66.5829L39.5516 66.6835L39.4533 64.3292L41.8053 64.2309ZM41.9196 64.2309L44.2739 64.1326L44.3722 66.4846L42.0202 66.5852L41.9196 64.2309ZM44.3882 64.128L46.7402 64.0274L46.8408 66.3817L44.4865 66.48L44.3882 64.128ZM46.8545 64.0229L49.2088 63.9223L49.3002 66.2857L46.9482 66.384L46.8545 64.0229ZM49.323 63.9177L51.675 63.8195L51.7756 66.1715L49.4213 66.272L49.323 63.9177ZM49.323 63.8034L49.2225 61.4514L51.5745 61.3509L51.675 63.7052L49.323 63.8034ZM49.1128 58.8686L49.0122 56.5166L51.3665 56.416L51.467 58.7703L49.1128 58.8686ZM49.0076 56.4023L48.9093 54.048L51.2613 53.9497L51.3619 56.3017L49.0076 56.4023ZM48.9048 53.9337L48.8042 51.5817L51.1562 51.4812L51.2568 53.8354L48.9048 53.9337ZM48.7905 53.9337L46.4362 54.032L46.3288 51.6869L48.6808 51.5863L48.7905 53.9337ZM46.3219 54.0366L43.9699 54.1372L43.8693 51.7829L46.2236 51.6846L46.3219 54.0366ZM43.8556 54.1417L41.5013 54.2423L41.403 51.888L43.755 51.7897L43.8556 54.1417ZM41.387 54.2469L39.035 54.3452L38.9345 51.9932L41.2888 51.8926L41.387 54.2469ZM38.9208 54.3497L36.5665 54.4503L36.4636 52.1143L38.8156 52.0137L38.9208 54.3497ZM36.4522 54.4549L34.1002 54.5554L33.9996 52.2012L36.3539 52.1029L36.4522 54.4549ZM36.4522 54.5692L36.5528 56.9234L34.2008 57.0217L34.1002 54.6697L36.4522 54.5692ZM36.5573 57.0377L36.6579 59.3897L34.3036 59.4903L34.2145 57.1429L36.5573 57.0377ZM36.7676 61.9726L36.8659 64.3246L34.5139 64.4252L34.4133 62.0709L36.7676 61.9726ZM36.8819 61.9726L39.243 61.8743L39.3345 64.2286L36.9802 64.3292L36.8819 61.9726ZM39.339 64.3406L39.4373 66.6949L37.0853 66.7932L36.9848 64.4412L39.339 64.3406ZM39.4442 66.8092L39.5425 69.1612L37.1859 69.2572L37.0853 66.9029L39.4442 66.8092ZM39.5585 66.8092L41.9105 66.7086L42.011 69.0606L39.6568 69.1612L39.5585 66.8092ZM42.0248 66.704L44.3768 66.6035L44.4773 68.9577L42.1253 69.056L42.0248 66.704ZM44.491 66.5989L46.8453 66.5006L46.9459 68.8526L44.5916 68.9532L44.491 66.5989ZM46.9596 66.4937L49.3116 66.3955L49.4122 68.7475L47.0602 68.848L46.9596 66.4937ZM49.4259 66.3909L51.7802 66.2903L51.8785 68.6446L49.5265 68.7429L49.4259 66.3909ZM51.8945 66.2857L54.2465 66.1852L54.347 68.5395L51.9928 68.6377L51.8945 66.2857ZM51.8945 66.1715L51.7939 63.8195L54.1482 63.7189L54.2465 66.0709L51.8945 66.1715ZM51.7893 63.7052L51.6888 61.3509L54.043 61.2503L54.1413 63.6046L51.7893 63.7052ZM51.5859 58.7657L51.4853 56.4114L53.8373 56.3132L53.9379 58.6652L51.5859 58.7657ZM51.4808 56.2972L51.371 53.9429L53.7253 53.8423L53.8236 56.1966L51.4808 56.2972ZM51.3573 53.8309L51.2568 51.4766L53.611 51.3783L53.7116 53.7303L51.3573 53.8309ZM51.2522 51.3623L51.1539 49.0103L53.5059 48.9097L53.6065 51.264L51.2522 51.3623ZM51.1379 51.3623L48.7859 51.4629L48.6853 49.1086L51.0396 49.0103L51.1379 51.3623ZM48.6716 51.4674L46.3173 51.568L46.219 49.2137L48.571 49.1154L48.6716 51.4674ZM46.203 51.5726L43.851 51.6709L43.7505 49.3189L46.1048 49.2183L46.203 51.5726ZM43.7368 51.6777L41.3825 51.776L41.3002 49.4286L43.6522 49.328L43.7368 51.6777ZM41.2682 51.7806L38.9162 51.8812L38.8156 49.5269L41.1699 49.4286L41.2682 51.7806ZM38.8019 51.8857L36.4499 51.9863L36.3493 49.632L38.7013 49.5337L38.8019 51.8857ZM36.3356 51.9909L33.9813 52.0892L33.883 49.7372L36.235 49.6366L36.3356 51.9909ZM33.867 52.0937L31.515 52.1943L31.4145 49.8423L33.7688 49.7417L33.867 52.0937ZM33.867 52.208L33.9676 54.5623L31.6133 54.6606L31.515 52.3086L33.867 52.208ZM33.9722 54.6766L34.0728 57.0286L31.7185 57.1292L31.6202 54.7749L33.9722 54.6766ZM34.0773 57.1429L34.1756 59.4972L31.8236 59.5954L31.723 57.2434L34.0773 57.1429ZM34.2853 62.0777L34.3859 64.432L32.0316 64.5303L31.9333 62.1783L34.2853 62.0777ZM34.3905 64.5463L34.491 66.8983L32.1368 66.9989L32.0362 64.6446L34.3905 64.5463ZM34.5048 64.5463L36.8568 64.4457L36.9573 66.7977L34.6053 66.8983L34.5048 64.5463ZM36.9619 66.912L37.0625 69.2663L34.7082 69.3669L34.6099 67.0126L36.9619 66.912ZM37.067 69.3806L37.1653 71.7326L34.8133 71.8332L34.7265 69.4857L37.067 69.3806ZM37.1813 69.3806L39.5333 69.28L39.6339 71.6343L37.2796 71.7326L37.1813 69.3806ZM39.6476 69.2755L42.0019 69.1749L42.1002 71.5292L39.7482 71.6297L39.6476 69.2755ZM42.1162 69.1703L44.4682 69.072L44.5688 71.424L42.2145 71.5246L42.1162 69.1703ZM44.5825 69.0674L46.9368 68.9669L47.035 71.3189L44.683 71.4195L44.5825 69.0674ZM47.051 68.9623L49.403 68.8617L49.5036 71.216L47.1493 71.3143L47.051 68.9623ZM49.5173 68.8572L51.8716 68.7589L51.9699 71.1109L49.6179 71.2114L49.5173 68.8572ZM51.9859 68.752L54.3379 68.6537L54.4385 71.0057L52.0842 71.1063L51.9859 68.752ZM54.4522 68.6492L56.8065 68.5486L56.9048 70.9029L54.5528 71.0012L54.4522 68.6492ZM54.4522 68.5349L54.3516 66.1806L56.7059 66.0823L56.8042 68.4343L54.4522 68.5349ZM54.347 66.0663L54.2488 63.7143L56.6008 63.6137L56.7013 65.968L54.347 66.0663ZM54.2419 63.6L54.1436 61.2457L56.4956 61.1474L56.5962 63.4994L54.2419 63.6ZM54.0339 58.6652L53.9333 56.3109L56.2876 56.2126L56.3859 58.56L54.0339 58.6652ZM53.9288 56.1966L53.8305 53.8446L56.1825 53.744L56.283 56.0983L53.9288 56.1966ZM53.8259 53.7303L53.7253 51.376L56.0773 51.2777L56.1779 53.6297L53.8259 53.7303ZM53.7208 51.2617L53.6293 48.9143L55.9836 48.8137L56.0819 51.168L53.7208 51.2617ZM53.6156 48.7954L53.515 46.4434L55.8693 46.3429L55.9699 48.6949L53.6156 48.7954ZM53.5013 48.7954L51.1493 48.896L51.0488 46.5417L53.4008 46.4434L53.5013 48.7954ZM51.035 48.9006L48.6808 48.9989L48.5825 46.6469L50.9345 46.5463L51.035 48.9006ZM48.5665 49.0057L46.2145 49.104L46.1139 46.752L48.4682 46.6514L48.5665 49.0057ZM46.1002 49.1086L43.7459 49.2092L43.6476 46.8549L45.9996 46.7566L46.1002 49.1086ZM43.6316 49.2137L41.2796 49.3143L41.179 46.96L43.5333 46.8617L43.6316 49.2137ZM41.1653 49.3189L38.811 49.4172L38.7128 47.0652L41.0648 46.9646L41.1653 49.3189ZM38.6968 49.424L36.3448 49.5223L36.2442 47.1703L38.5985 47.0697L38.6968 49.424ZM36.2305 49.5269L33.8762 49.6274L33.7779 47.2732L36.1299 47.1749L36.2305 49.5269ZM33.7619 49.632L31.4099 49.7326L31.3093 47.3783L33.6636 47.28L33.7619 49.632ZM31.2956 49.7372L28.9573 49.8286L28.859 47.4766L31.211 47.376L31.2956 49.7372ZM31.2956 49.8514L31.3962 52.2034L29.0419 52.304L28.9436 49.9497L31.2956 49.8514ZM31.4008 52.3177L31.499 54.672L29.147 54.7703L29.0465 52.4183L31.4008 52.3177ZM31.5036 54.7863L31.6042 57.1383L29.2522 57.2389L29.1516 54.8846L31.5036 54.7863ZM31.6088 57.2526L31.7093 59.6069L29.355 59.7052L29.2568 57.3532L31.6088 57.2526ZM31.819 62.1875L31.9173 64.5394L29.5653 64.64L29.4648 62.288L31.819 62.1875ZM31.9219 64.6537L32.0225 67.008L29.6705 67.1086L29.5699 64.7543L31.9219 64.6537ZM32.027 67.1223L32.1276 69.4743L29.7733 69.5749L29.675 67.2229L32.027 67.1223ZM32.1413 67.1223L34.4956 67.0217L34.5939 69.376L32.2419 69.4743L32.1413 67.1223ZM34.6122 69.4857L34.7128 71.8377L32.3585 71.9383L32.2602 69.584L34.6122 69.4857ZM34.7173 71.952L34.8179 74.3063L32.4636 74.4046L32.3653 72.0526L34.7173 71.952ZM34.8316 71.952L37.1859 71.8515L37.2842 74.2057L34.9322 74.304L34.8316 71.952ZM37.3002 71.8469L39.6522 71.7486L39.7528 74.1006L37.3985 74.2012L37.3002 71.8469ZM39.7665 71.744L42.1185 71.6435L42.219 73.9955L39.867 74.096L39.7665 71.744ZM42.2328 71.6389L44.587 71.5383L44.6876 73.8926L42.3333 73.9909L42.2328 71.6389ZM44.7013 71.5337L47.0533 71.4332L47.1539 73.7875L44.8019 73.888L44.7013 71.5337ZM47.1676 71.4286L49.5219 71.3303L49.6202 73.6823L47.2682 73.7829L47.1676 71.4286ZM49.6362 71.3257L51.9882 71.2252L52.0888 73.5772L49.7345 73.6777L49.6362 71.3257ZM52.1025 71.2206L54.4568 71.12L54.555 73.4743L52.203 73.5726L52.1025 71.2206ZM54.571 71.1155L56.923 71.0172L57.0236 73.3692L54.6693 73.4697L54.571 71.1155ZM57.0373 71.0103L59.3916 70.912L59.4899 73.264L57.1379 73.3646L57.0373 71.0103ZM57.0373 70.896L56.939 68.544L59.291 68.4435L59.3916 70.7977L57.0373 70.896ZM56.9322 68.4297L56.8339 66.0755L59.1859 65.9772L59.2865 68.3292L56.9322 68.4297ZM56.8293 65.9612L56.7288 63.6092L59.0808 63.5086L59.1813 65.8629L56.8293 65.9612ZM56.7242 63.4949L56.6145 61.1383L58.9688 61.0377L59.067 63.3897L56.7242 63.4949ZM56.5139 58.56L56.4156 56.208L58.7676 56.1074L58.8682 58.4617L56.5139 58.56ZM56.411 56.0937L56.3105 53.7394L58.6648 53.6412L58.763 55.9932L56.411 56.0937ZM56.3059 53.6252L56.2053 51.2732L58.5596 51.1726L58.6579 53.5269L56.3059 53.6252ZM56.2008 51.1589L56.1025 48.8046L58.4545 48.7063L58.555 51.0583L56.2008 51.1589ZM56.0979 48.6903L55.9973 46.3383L58.3493 46.2377L58.4499 48.592L56.0979 48.6903ZM55.9928 46.224L55.8922 43.8697L58.2465 43.7714L58.3448 46.1234L55.9928 46.224ZM55.8785 46.224L53.5242 46.3246L53.4259 43.9703L55.7779 43.872L55.8785 46.224ZM53.4099 46.3292L51.0579 46.4274L50.9573 44.0754L53.3116 43.9749L53.4099 46.3292ZM50.9436 46.432L48.5893 46.5326L48.491 44.1806L50.843 44.08L50.9436 46.432ZM48.475 46.5372L46.123 46.6377L46.0225 44.2834L48.3768 44.1852L48.475 46.5372ZM46.0088 46.6423L43.6545 46.7406L43.5562 44.3886L45.9082 44.288L46.0088 46.6423ZM43.5402 46.7474L41.1882 46.8457L41.0876 44.4937L43.4419 44.3932L43.5402 46.7474ZM41.0716 46.8572L38.7196 46.9577L38.619 44.6034L40.971 44.5052L41.0716 46.8572ZM38.6053 46.9623L36.251 47.0629L36.1528 44.7086L38.5048 44.6103L38.6053 46.9623ZM36.1368 47.0674L33.7848 47.1657L33.6819 44.8L36.0362 44.6994L36.1368 47.0674ZM33.6705 47.1726L31.3162 47.2709L31.2179 44.9189L33.5699 44.8183L33.6705 47.1726ZM31.2019 47.2754L28.8499 47.376L28.7493 45.0217L31.1036 44.9234L31.2019 47.2754ZM28.7356 47.3806L26.3813 47.4812L26.283 45.1269L28.635 45.0286L28.7356 47.3806ZM28.7356 47.4949L28.8339 49.8469L26.4819 49.9474L26.3813 47.5954L28.7356 47.4949ZM28.8408 49.9612L28.939 52.3154L26.587 52.4137L26.4888 50.0572L28.8408 49.9612ZM28.9436 52.4297L29.0442 54.7817L26.6899 54.8823L26.5916 52.528L28.9436 52.4297ZM29.0488 54.896L29.1493 57.2503L26.795 57.3486L26.6968 54.9966L29.0488 54.896ZM29.1539 57.3646L29.2522 59.7166L26.9002 59.8172L26.7996 57.4629L29.1539 57.3646ZM29.3619 62.2994L29.4625 64.6515L27.1082 64.752L27.0099 62.3977L29.3619 62.2994ZM29.467 64.7657L29.5676 67.12L27.2133 67.2183L27.1128 64.8663L29.467 64.7657ZM29.5722 67.2343L29.6705 69.5863L27.3185 69.6869L27.2179 67.3326L29.5722 67.2343ZM29.675 69.7006L29.7756 72.0549L27.4236 72.1532L27.323 69.8012L29.675 69.7006ZM29.7893 69.7006L32.1436 69.6L32.2419 71.9543L29.8899 72.0526L29.7893 69.7006ZM32.2488 72.0686L32.347 74.4206L29.995 74.5212L29.8945 72.1669L32.2488 72.0686ZM32.3516 74.5349L32.4522 76.8892L30.0979 76.9874L29.9996 74.6354L32.3516 74.5349ZM32.4659 74.5349L34.8202 74.4366L34.9185 76.7886L32.5665 76.8892L32.4659 74.5349ZM34.9345 74.4297L37.2865 74.3315L37.387 76.6834L35.0328 76.784L34.9345 74.4297ZM37.4008 74.3269L39.755 74.2263L39.8533 76.5806L37.5013 76.6789L37.4008 74.3269ZM39.8693 74.2217L42.2213 74.1212L42.3219 76.4754L39.9676 76.5737L39.8693 74.2217ZM42.3356 74.1166L44.6899 74.0183L44.7882 76.3703L42.4362 76.4709L42.3356 74.1166ZM44.8042 74.0137L47.1562 73.9132L47.2568 76.2652L44.9025 76.3657L44.8042 74.0137ZM47.2705 73.9086L49.6248 73.808L49.723 76.1623L47.371 76.2606L47.2705 73.9086ZM49.739 73.8035L52.091 73.7029L52.1916 76.0572L49.8373 76.1577L49.739 73.8035ZM52.2053 73.6983L54.5596 73.6L54.6579 75.952L52.3059 76.0526L52.2053 73.6983ZM54.6739 73.5955L57.0259 73.4949L57.1265 75.8469L54.7722 75.9474L54.6739 73.5955ZM57.1402 73.4903L59.4945 73.3714L59.595 75.7257L57.243 75.824L57.1402 73.4903ZM59.6088 73.3714L61.963 73.2732L62.0613 75.6252L59.7093 75.7257L59.6088 73.3714ZM59.6088 73.2572L59.5105 70.9052L61.8625 70.8046L61.963 73.1589L59.6088 73.2572ZM59.5059 70.7909L59.4053 68.4366L61.7573 68.3383L61.8579 70.6903L59.5059 70.7909ZM59.4008 68.3223L59.3002 65.9703L61.6545 65.8697L61.7528 68.224L59.4008 68.3223ZM59.2956 65.856L59.195 63.5017L61.5493 63.4035L61.6499 65.7554L59.2956 65.856ZM59.1905 63.3875L59.0876 61.0286L61.4396 60.928L61.5402 63.2823L59.1905 63.3875ZM58.9825 58.4526L58.8819 56.1006L61.2362 56L61.3345 58.3543L58.9825 58.4526ZM58.8773 55.9863L58.779 53.632L61.131 53.5337L61.2316 55.8857L58.8773 55.9863ZM58.7722 53.5177L58.6716 51.1634L61.0236 51.0629L61.1242 53.4172L58.7722 53.5177ZM58.6716 51.0492L58.571 48.6972L60.9253 48.5966L61.0236 50.9486L58.6716 51.0492ZM58.5665 48.5829L58.4659 46.2286L60.8202 46.1303L60.9185 48.4823L58.5665 48.5829ZM58.4613 46.1143L58.363 43.7623L60.715 43.6617L60.8156 46.016L58.4613 46.1143ZM58.3516 43.6572L58.251 41.3029L60.603 41.2046L60.7036 43.5566L58.3516 43.6572ZM58.2373 43.6572L55.883 43.7554L55.7825 41.4034L58.1368 41.3029L58.2373 43.6572ZM55.7688 43.7623L53.4168 43.8606L53.3162 41.5086L55.6682 41.408L55.7688 43.7623ZM53.3025 43.8652L50.9482 43.9657L50.8499 41.6114L53.2019 41.5132L53.3025 43.8652ZM50.8339 43.9703L48.4819 44.0709L48.3813 41.7166L50.7356 41.6183L50.8339 43.9703ZM48.3676 44.0754L46.0133 44.1737L45.915 41.8286L48.267 41.728L48.3676 44.0754ZM45.899 44.1783L43.547 44.2789L43.4465 41.9269L45.8008 41.8263L45.899 44.1783ZM43.4328 44.2834L41.0785 44.384L40.9802 42.0297L43.3322 41.9314L43.4328 44.2834ZM40.9642 44.3886L38.6122 44.4869L38.5116 42.1349L40.8659 42.0343L40.9642 44.3886ZM38.4979 44.4937L36.1436 44.592L36.043 42.2354L38.395 42.1349L38.4979 44.4937ZM36.0293 44.5966L33.6773 44.6972L33.5768 42.3429L35.931 42.2446L36.0293 44.5966ZM33.563 44.7017L31.2088 44.8023L31.1105 42.448L33.4625 42.3497L33.563 44.7017ZM31.0945 44.8069L28.7425 44.9052L28.6419 42.5532L30.9962 42.4526L31.0945 44.8069ZM28.6282 44.912L26.2762 45.0103L26.1756 42.6583L28.5276 42.5577L28.6282 44.912ZM26.1619 45.0149L23.8076 45.1154L23.7002 42.7566L26.0545 42.6583L26.1619 45.0149ZM26.1619 45.1292L26.2602 47.4834L23.9082 47.5817L23.8076 45.2297L26.1619 45.1292ZM26.2648 47.5977L26.3653 49.9497L24.0179 50.0572L23.9288 47.6914L26.2648 47.5977ZM26.3745 50.0572L26.475 52.4114L24.1208 52.5097L24.0225 50.1577L26.3745 50.0572ZM26.4796 52.5257L26.5779 54.8777L24.2259 54.9783L24.1253 52.624L26.4796 52.5257ZM26.5848 54.992L26.683 57.3463L24.331 57.4446L24.2305 55.0857L26.5848 54.992ZM26.6876 57.4606L26.7882 59.8126L24.4339 59.9132L24.3356 57.5589L26.6876 57.4606ZM26.9002 62.4L26.9985 64.7543L24.6465 64.8549L24.5459 62.5006L26.9002 62.4ZM27.003 64.8686L27.1036 67.2206L24.7516 67.3212L24.651 64.9692L27.003 64.8686ZM27.1082 67.3349L27.2088 69.6892L24.843 69.7829L24.7539 67.4286L27.1082 67.3349ZM27.2133 69.8034L27.3139 72.1554L24.9596 72.256L24.859 69.9017L27.2133 69.8034ZM27.3185 72.2697L27.4168 74.624L25.0716 74.7177L24.971 72.3657L27.3185 72.2697ZM27.4328 72.2697L29.7848 72.1715L29.8853 74.5235L27.531 74.624L27.4328 72.2697ZM29.8899 74.6377L29.9882 76.9897L27.6362 77.0903L27.5356 74.7383L29.8899 74.6377ZM29.995 77.104L30.0933 79.4583L27.7413 79.5589L27.6408 77.2046L29.995 77.104ZM30.1093 77.104L32.4613 77.0057L32.5619 79.3577L30.2076 79.4583L30.1093 77.104ZM32.5756 77.0012L34.9299 76.9006L35.0282 79.2526L32.6762 79.3532L32.5756 77.0012ZM35.0442 76.896L37.3962 76.7955L37.4968 79.1497L35.1425 79.248L35.0442 76.896ZM37.5105 76.7909L39.8625 76.6926L39.963 79.0446L37.611 79.1452L37.5105 76.7909ZM39.9768 76.6857L42.331 76.5875L42.4316 78.9394L40.0773 79.04L39.9768 76.6857ZM42.443 76.5714L44.795 76.4709L44.8956 78.8252L42.5436 78.9235L42.443 76.5714ZM44.9093 76.4663L47.2636 76.3657L47.3619 78.72L45.0099 78.8183L44.9093 76.4663ZM47.3779 76.3612L49.7299 76.2629L49.8305 78.6149L47.4762 78.7155L47.3779 76.3612ZM49.8442 76.2583L52.1985 76.1577L52.2968 78.5097L49.9448 78.6103L49.8442 76.2583ZM52.3128 76.1532L54.6648 76.0526L54.7653 78.4069L52.411 78.5052L52.3128 76.1532ZM54.7859 76.0457L57.1402 75.9452L57.2385 78.2994L54.8865 78.4L54.7859 76.0457ZM57.2545 75.9406L59.6065 75.8423L59.707 78.1943L57.3528 78.2949L57.2545 75.9406ZM59.7208 75.8377L62.075 75.7372L62.1733 78.0892L59.8213 78.1897L59.7208 75.8377ZM62.1893 75.7326L64.5413 75.632L64.6419 77.9863L62.2876 78.0846L62.1893 75.7326ZM62.1893 75.6183L62.091 73.264L64.443 73.1657L64.5436 75.5177L62.1893 75.6183ZM62.0865 73.1497L61.9859 70.7977L64.3402 70.6972L64.4385 73.0515L62.0865 73.1497ZM61.9813 70.6835L61.8808 68.3292L64.235 68.2309L64.3333 70.5829L61.9813 70.6835ZM61.8762 68.2149L61.7779 65.8629L64.1299 65.7623L64.2305 68.1166L61.8762 68.2149ZM61.7733 65.7486L61.6728 63.3966L64.0248 63.296L64.1253 65.648L61.7733 65.7486ZM61.6682 63.2823L61.5676 60.928L63.9219 60.8297L64.0202 63.1817L61.6682 63.2823ZM61.4579 58.3474L61.3459 56L63.6979 55.9017L63.7985 58.2537L61.4579 58.3474ZM61.355 55.8789L61.2545 53.5269L63.6065 53.4263L63.7002 55.7714L61.355 55.8789ZM61.2499 53.4126L61.1493 51.0583L63.5036 50.96L63.6019 53.312L61.2499 53.4126ZM61.1448 50.944L61.0465 48.592L63.3985 48.4914L63.499 50.8457L61.1448 50.944ZM61.0396 48.4777L60.9413 46.1234L63.2933 46.0252L63.3939 48.3772L61.0396 48.4777ZM60.9368 46.0092L60.8225 43.6572L63.1768 43.5566L63.275 45.9109L60.9368 46.0092ZM60.8316 43.5429L60.7288 41.1886L63.083 41.0903L63.1813 43.4423L60.8316 43.5429ZM60.7265 41.0743L60.6282 38.7223L62.9802 38.6217L63.0808 40.976L60.7265 41.0743ZM60.6122 41.0743L58.2602 41.1726L58.1596 38.8206L60.5139 38.72L60.6122 41.0743ZM58.1459 41.1772L55.7916 41.2777L55.6933 38.9234L58.0453 38.8252L58.1459 41.1772ZM55.6773 41.2823L53.3253 41.3829L53.2248 39.0286L55.579 38.9303L55.6773 41.2823ZM53.211 41.3874L50.8568 41.4857L50.7585 39.1337L53.1105 39.0332L53.211 41.3874ZM50.7425 41.4926L48.3859 41.6L48.2853 39.248L50.6396 39.1474L50.7425 41.4926ZM48.2762 41.5954L45.9219 41.696L45.8236 39.3417L48.1756 39.2434L48.2762 41.5954ZM45.8076 41.7006L43.4556 41.8012L43.355 39.4469L45.7093 39.3486L45.8076 41.7006ZM43.3413 41.8057L40.9893 41.904L40.8888 39.552L43.2408 39.4514L43.3413 41.8057ZM40.875 41.9086L38.5208 42.0092L38.4225 39.6572L40.7745 39.5566L40.875 41.9086ZM38.4065 42.0137L36.0545 42.1143L35.9539 39.76L38.3082 39.6617L38.4065 42.0137ZM35.9402 42.1189L33.5859 42.2172L33.4876 39.8652L35.8396 39.7646L35.9402 42.1189ZM33.4716 42.224L31.1196 42.3223L31.0145 39.9772L33.3688 39.8766L33.4716 42.224ZM31.0053 42.3269L28.651 42.4274L28.5528 40.0732L30.9048 39.9749L31.0053 42.3269ZM28.5368 42.432L26.1848 42.5326L26.0842 40.1783L28.4385 40.08L28.5368 42.432ZM26.0705 42.5372L23.7162 42.6354L23.6179 40.2834L25.9699 40.1829L26.0705 42.5372ZM23.6019 42.6423L21.2362 42.7429L21.1356 40.3909L23.4899 40.2903L23.6019 42.6423ZM23.6019 42.7566L23.7002 45.1154L21.3482 45.216L21.2476 42.8617L23.6019 42.7566ZM23.7002 45.2297L23.8008 47.5817L21.4465 47.6823L21.3482 45.3303L23.7002 45.2297ZM23.8053 47.696L23.9059 50.0503L21.5516 50.1486L21.451 47.7966L23.8053 47.696ZM23.9105 50.1646L24.0088 52.5166L21.6568 52.6172L21.5562 50.2629L23.9105 50.1646ZM24.0133 52.6309L24.1139 54.9852L21.7596 55.0857L21.659 52.7337L24.0133 52.6309ZM24.1185 55.0994L24.219 57.4514L21.8648 57.552L21.7665 55.1977L24.1185 55.0994ZM24.2236 57.5657L24.3219 59.92L21.9699 60.0183L21.8716 57.6663L24.2236 57.5657ZM24.4316 62.5006L24.5322 64.8549L22.1779 64.9532L22.0796 62.6012L24.4316 62.5006ZM24.5368 64.9692L24.6373 67.3212L22.283 67.4217L22.1848 65.0674L24.5368 64.9692ZM24.6396 67.4286L24.7379 69.7829L22.3859 69.8812L22.2853 67.5292L24.6396 67.4286ZM24.7425 69.8972L24.843 72.256L22.491 72.3566L22.3905 70.0023L24.7425 69.8972ZM24.843 72.3703L24.9436 74.7223L22.5893 74.8229L22.491 72.4709L24.843 72.3703ZM24.9482 74.8366L25.0488 77.1909L22.6945 77.2914L22.5962 74.9372L24.9482 74.8366ZM25.0625 74.8366L27.4145 74.7383L27.515 77.0903L25.163 77.1909L25.0625 74.8366ZM27.5196 77.2046L27.6202 79.5589L25.2659 79.6572L25.1676 77.3052L27.5196 77.2046ZM27.6248 79.6732L27.723 82.0252L25.371 82.1257L25.275 79.7715L27.6248 79.6732ZM27.739 79.6732L30.091 79.5726L30.1916 81.9246L27.8373 82.0252L27.739 79.6732ZM30.2053 79.568L32.5596 79.4675L32.6579 81.8217L30.3059 81.92L30.2053 79.568ZM32.6739 79.4629L35.0259 79.3623L35.1265 81.7166L32.7722 81.8172L32.6739 79.4629ZM35.1402 79.3577L37.4945 79.2595L37.5973 81.6L35.2453 81.7006L35.1402 79.3577ZM37.6088 79.2549L39.9608 79.1543L40.0613 81.5063L37.707 81.6069L37.6088 79.2549ZM40.075 79.1497L42.4293 79.0492L42.5276 81.4035L40.1756 81.5017L40.075 79.1497ZM42.5436 79.0446L44.8956 78.9463L44.9962 81.2983L42.6419 81.3989L42.5436 79.0446ZM45.0099 78.9394L47.3642 78.8412L47.4625 81.1932L45.1105 81.2937L45.0099 78.9394ZM47.4785 78.8366L49.8305 78.736L49.931 81.0903L47.5768 81.1886L47.4785 78.8366ZM49.9448 78.7315L52.2968 78.6309L52.3973 80.9852L50.0453 81.0834L49.9448 78.7315ZM52.411 78.6263L54.7653 78.528L54.8659 80.88L52.5116 80.9806L52.411 78.6263ZM54.8796 78.5235L57.2316 78.4229L57.3322 80.7749L54.9802 80.8754L54.8796 78.5235ZM57.3459 78.4183L59.7002 78.3177L59.7985 80.672L57.4465 80.7703L57.3459 78.4183ZM59.8145 78.3132L62.1665 78.2126L62.267 80.5669L59.9128 80.6675L59.8145 78.3132ZM62.2808 78.208L64.635 78.1097L64.7333 80.4617L62.3813 80.5623L62.2808 78.208ZM64.7493 78.1052L67.1013 78.0046L67.2019 80.3566L64.843 80.4572L64.7493 78.1052ZM64.7493 77.9909L64.6488 75.6366L67.003 75.5383L67.1013 77.8903L64.7493 77.9909ZM64.6442 75.5223L64.5436 73.1703L66.8979 73.0697L66.9962 75.424L64.6442 75.5223ZM64.539 73.056L64.4408 70.7017L66.7928 70.6035L66.8933 72.9554L64.539 73.056ZM64.4339 70.5875L64.3356 68.2355L66.6876 68.1349L66.7882 70.4892L64.4339 70.5875ZM64.331 68.1143L64.2305 65.76L66.5848 65.6617L66.683 68.0137L64.331 68.1143ZM64.2259 65.6457L64.1253 63.2937L66.4796 63.1932L66.5779 65.5475L64.2259 65.6457ZM64.1208 63.1795L64.0225 60.8252L66.3745 60.7269L66.475 63.0789L64.1208 63.1795ZM63.9128 58.2446L63.8122 55.8926L66.1665 55.792L66.2648 58.144L63.9128 58.2446ZM63.8076 55.776L63.7002 53.4217L66.0545 53.3212L66.155 55.6754L63.8076 55.776ZM63.7002 53.3074L63.6019 50.9554L65.9539 50.8549L66.0545 53.2069L63.7002 53.3074ZM63.5973 50.8412L63.4968 48.4869L65.8488 48.3886L65.9493 50.7406L63.5973 50.8412ZM63.4922 48.3726L63.3916 46.0206L65.7459 45.92L65.8442 48.2743L63.4922 48.3726ZM63.387 45.9063L63.2888 43.552L65.6408 43.4537L65.7413 45.8057L63.387 45.9063ZM63.2819 43.4377L63.1836 41.0857L65.5356 40.9852L65.6362 43.3394L63.2819 43.4377ZM63.179 40.9714L63.0785 38.6172L65.4328 38.5189L65.531 40.8709L63.179 40.9714ZM63.0739 38.5029L62.9733 36.1509L65.3276 36.0503L65.4259 38.4046L63.0739 38.5029ZM62.9596 38.5029L60.6076 38.6034L60.5002 36.256L62.8522 36.1554L62.9596 38.5029ZM60.4933 38.608L58.139 38.7086L58.0385 36.3543L60.3928 36.256L60.4933 38.608ZM58.0248 38.7132L55.6728 38.8114L55.5722 36.4594L57.9242 36.3589L58.0248 38.7132ZM55.5585 38.8183L53.2042 38.9166L53.1082 36.5714L55.4716 36.4686L55.5585 38.8183ZM53.0899 38.9212L50.7379 39.0217L50.6373 36.6674L52.9916 36.5692L53.0899 38.9212ZM50.6236 39.0263L48.2693 39.1269L48.171 36.7726L50.523 36.6743L50.6236 39.0263ZM48.155 39.1314L45.803 39.2297L45.7025 36.8777L48.0568 36.7772L48.155 39.1314ZM45.6888 39.2366L43.3345 39.3349L43.2362 36.9829L45.5882 36.8823L45.6888 39.2366ZM43.2202 39.3394L40.8682 39.44L40.7676 37.0857L43.1219 36.9874L43.2202 39.3394ZM40.7539 39.4446L38.3996 39.5452L38.3013 37.1909L40.6533 37.0926L40.7539 39.4446ZM38.2853 39.5497L35.9333 39.648L35.8328 37.296L38.187 37.1954L38.2853 39.5497ZM35.8145 39.6572L33.4602 39.7577L33.3619 37.4057L35.7139 37.3052L35.8145 39.6572ZM33.3459 39.7623L30.9939 39.8629L30.8933 37.5086L33.2476 37.4103L33.3459 39.7623ZM30.8796 39.8674L28.5276 39.9657L28.427 37.6137L30.7859 37.5132L30.8796 39.8674ZM28.4133 39.9726L26.059 40.0709L25.9653 37.7143L28.3196 37.6137L28.4133 39.9726ZM25.9448 40.0754L23.5928 40.176L23.4922 37.8217L25.851 37.7143L25.9448 40.0754ZM23.4785 40.1806L21.1242 40.2812L21.0259 37.9269L23.3779 37.8286L23.4785 40.1806ZM21.0099 40.2857L18.6716 40.384L18.571 38.032L20.9253 37.9314L21.0099 40.2857ZM21.0099 40.4L21.1219 42.7429L18.7676 42.8434L18.6716 40.4983L21.0099 40.4ZM21.115 42.8663L21.2156 45.2206L18.8613 45.3189L18.7745 42.9714L21.115 42.8663ZM21.2202 45.3349L21.3185 47.6869L18.9665 47.7874L18.8659 45.4332L21.2202 45.3349ZM21.323 47.8012L21.4236 50.1554L19.0716 50.2537L18.971 47.9017L21.323 47.8012ZM21.4282 50.2697L21.5288 52.6217L19.1745 52.7223L19.0762 50.368L21.4282 50.2697ZM21.5333 52.736L21.643 55.0857L19.2888 55.184L19.1882 52.832L21.5333 52.736ZM21.6385 55.2046L21.7368 57.5566L19.3848 57.6572L19.2956 55.3143L21.6385 55.2046ZM21.7413 57.6709L21.8419 60.0229L19.5013 60.1143L19.4008 57.7623L21.7413 57.6709ZM21.9516 62.6057L22.0499 64.9577L19.6979 65.0583L19.5973 62.7063L21.9516 62.6057ZM22.0568 65.072L22.155 67.4263L19.8145 67.5246L19.7139 65.1726L22.0568 65.072ZM22.1596 67.5406L22.2602 69.8926L19.9059 69.9932L19.8145 67.6389L22.1596 67.5406ZM22.2648 70.0069L22.3653 72.3612L20.011 72.4594L19.9128 70.1074L22.2648 70.0069ZM22.3699 72.4754L22.4682 74.8274L20.1162 74.928L20.0156 72.5737L22.3699 72.4754ZM22.4728 74.9417L22.5733 77.296L20.2213 77.3943L20.1208 75.0423L22.4728 74.9417ZM22.5779 77.4103L22.6899 79.7715L20.3356 79.872L20.2373 77.5177L22.5779 77.4103ZM22.6922 77.4103L25.0465 77.3097L25.1448 79.6617L22.7928 79.7623L22.6922 77.4103ZM25.1608 79.7715L25.2613 82.1257L22.9093 82.224L22.8088 79.872L25.1608 79.7715ZM25.2659 82.24L25.3665 84.592L23.0122 84.6926L22.9139 82.3383L25.2659 82.24ZM25.3802 82.24L27.7345 82.1394L27.8328 84.4937L25.4808 84.592L25.3802 82.24ZM27.8488 82.1349L30.2008 82.0343L30.3013 84.3886L27.947 84.4869L27.8488 82.1349ZM30.315 82.0297L32.6693 81.9315L32.7676 84.2834L30.4156 84.384L30.315 82.0297ZM32.7836 81.9269L35.1288 81.8286L35.2293 84.1806L32.875 84.2812L32.7836 81.9269ZM35.2499 81.8217L37.6019 81.7212L37.7025 84.0754L35.3505 84.1737L35.2499 81.8217ZM37.7162 81.7166L40.0705 81.616L40.171 83.9703L37.8168 84.0709L37.7162 81.7166ZM40.1848 81.6114L42.5368 81.5132L42.6373 83.8652L40.2853 83.9657L40.1848 81.6114ZM42.651 81.5086L45.0053 81.408L45.1036 83.76L42.7516 83.8606L42.651 81.5086ZM45.1196 81.4035L47.4716 81.3029L47.5722 83.6572L45.2179 83.7554L45.1196 81.4035ZM47.5859 81.2983L49.9402 81.2L50.0385 83.552L47.6865 83.6526L47.5859 81.2983ZM50.0545 81.1932L52.4065 81.0949L52.507 83.4469L50.1528 83.5474L50.0545 81.1932ZM52.5208 81.0903L54.875 80.9897L54.9733 83.344L52.6213 83.4423L52.5208 81.0903ZM54.9893 80.9852L57.3413 80.8846L57.4419 83.2389L55.0876 83.3372L54.9893 80.9852ZM57.4556 80.88L59.8099 80.7817L59.9082 83.1337L57.5562 83.2343L57.4556 80.88ZM59.9242 80.7772L62.2762 80.6766L62.3768 83.0286L60.0225 83.1292L59.9242 80.7772ZM62.3905 80.672L64.7448 80.5714L64.843 82.9257L62.491 83.024L62.3905 80.672ZM64.859 80.5669L67.211 80.4663L67.3116 82.8206L64.9573 82.9189L64.859 80.5669ZM65.3162 35.9406L62.9619 36.0412L62.8636 33.6869L65.2156 33.5886L65.3162 35.9406ZM62.8476 36.0457L60.5002 36.1417L60.3996 33.7874L62.7539 33.6892L62.8476 36.0457ZM60.3813 36.1509L58.027 36.2492L57.9288 33.8972L60.2808 33.7966L60.3813 36.1509ZM57.9128 36.2537L55.5699 36.3429L55.4716 33.9977L57.8259 33.8972L57.9128 36.2537ZM55.4465 36.3589L53.0922 36.4594L52.9939 34.1052L55.3459 34.0069L55.4465 36.3589ZM52.9779 36.464L50.6259 36.5623L50.5253 34.2103L52.8796 34.1097L52.9779 36.464ZM50.5208 36.5714L48.1688 36.6697L48.0682 34.3177L50.4202 34.2172L50.5208 36.5714ZM48.0545 36.6743L45.7002 36.7749L45.5996 34.4206L47.9539 34.3223L48.0545 36.6743ZM45.5859 36.7794L43.2339 36.88L43.1288 34.5143L45.4808 34.416L45.5859 36.7794ZM43.1288 36.8777L40.7745 36.976L40.6762 34.624L43.019 34.5143L43.1288 36.8777ZM40.6602 36.9829L38.3082 37.0812L38.2076 34.7292L40.5619 34.6286L40.6602 36.9829ZM38.1939 37.0857L35.8396 37.1863L35.7413 34.832L38.0842 34.7429L38.1939 37.0857ZM35.7253 37.1909L33.3733 37.2914L33.2728 34.9372L35.627 34.8366L35.7253 37.1909ZM33.259 37.296L30.9048 37.3943L30.8065 35.0423L33.1585 34.9417L33.259 37.296ZM30.7905 37.3989L28.4385 37.4994L28.3379 35.1474L30.6922 35.0469L30.7905 37.3989ZM28.3242 37.504L25.9699 37.6046L25.8716 35.2572L28.2236 35.1589L28.3242 37.504ZM25.8556 37.6092L23.4945 37.7143L23.3939 35.3714L25.7573 35.2549L25.8556 37.6092ZM23.3802 37.7143L21.0259 37.8126L20.9276 35.472L23.2796 35.3714L23.3802 37.7143ZM20.9116 37.8172L18.5596 37.9177L18.4613 35.5817V35.5634L20.8156 35.4652L20.9116 37.8172ZM20.3402 79.9772L22.6945 79.8766L22.795 82.2309L20.4408 82.3292L20.3402 79.9772ZM22.7996 82.3452L22.8979 84.6972L20.5459 84.8L20.4453 82.4457L22.7996 82.3452ZM22.9025 84.8114L23.0145 87.1634L20.6625 87.264L20.5619 84.912L22.9025 84.8114ZM23.0168 84.8114L25.371 84.7109L25.4693 87.0652L23.1173 87.1634L23.0168 84.8114ZM25.4853 84.7063L27.8373 84.608L27.9379 86.96L25.5836 87.0606L25.4853 84.7063ZM27.9516 84.6012L30.3059 84.5029L30.4042 86.8549L28.0522 86.9554L27.9516 84.6012ZM30.4202 84.4983L32.7722 84.3977L32.8728 86.752L30.5185 86.8503L30.4202 84.4983ZM32.8865 84.3932L35.2408 84.2926L35.339 86.6469L32.987 86.7452L32.8865 84.3932ZM35.355 84.288L37.707 84.1897L37.8076 86.5417L35.4533 86.6423L35.355 84.288ZM37.8213 84.1852L40.1756 84.0846L40.2739 86.4366L37.9219 86.5372L37.8213 84.1852ZM40.2899 84.08L42.6419 83.9795L42.7425 86.3337L40.3882 86.432L40.2899 84.08ZM42.7562 83.9749L45.1105 83.8743L45.2088 86.2286L42.8568 86.3292L42.7562 83.9749ZM45.2248 83.8697L47.5768 83.7715L47.6773 86.1235L45.323 86.224L45.2248 83.8697ZM47.691 83.7669L50.043 83.6663L50.1436 86.0183L47.7916 86.1189L47.691 83.7669ZM50.1573 83.6617L52.5116 83.5612L52.6122 85.9155L50.2579 86.0137L50.1573 83.6617ZM52.6259 83.5566L54.9779 83.4583L55.0785 85.8103L52.7265 85.9109L52.6259 83.5566ZM55.0922 83.4515L57.4465 83.3532L57.5448 85.7052L55.1928 85.8057L55.0922 83.4515ZM57.5608 83.3486L59.9128 83.248L60.0133 85.6023L57.659 85.7006L57.5608 83.3486ZM60.027 83.2435L62.3813 83.1429L62.4796 85.4972L60.1276 85.5955L60.027 83.2435ZM62.4956 83.1383L64.8476 83.04L64.9482 85.392L62.5939 85.4926L62.4956 83.1383ZM64.9619 83.0332L67.3162 82.9349L67.4145 85.2869L65.0625 85.3875L64.9619 83.0332ZM67.4305 82.9303L69.7825 82.8297L69.883 85.184L67.5288 85.2823L67.4305 82.9303ZM17.9859 82.5486L20.3379 82.448L20.4316 84.8L18.6533 84.8754L18.0065 83.2252L17.9859 82.5486ZM18.7036 84.9897L20.443 84.9166L20.5436 87.2686L19.2065 87.3257L19.435 86.8686L18.7036 84.9897Z" fill="#FFC100" fill-opacity="0.2"/>
<path d="M39.7006 45.959C38.992 45.959 38.288 45.9453 37.5932 45.9224C37.5845 45.922 37.576 45.9195 37.5684 45.9151C37.5609 45.9107 37.5545 45.9046 37.5497 45.8973C37.5459 45.8898 37.5439 45.8816 37.5439 45.8733C37.5439 45.8649 37.5459 45.8567 37.5497 45.8493C38.5778 42.294 39.9416 38.8446 41.6229 35.5475C41.6497 35.4974 41.689 35.455 41.7371 35.4245C41.7852 35.3941 41.8403 35.3766 41.8972 35.3738C41.9539 35.3714 42.0103 35.384 42.0605 35.4106C42.1107 35.4371 42.1529 35.4765 42.1829 35.5247C44.1367 38.667 45.7875 41.9878 47.1132 45.4424C47.1172 45.4502 47.1193 45.4588 47.1193 45.4675C47.1193 45.4763 47.1172 45.4849 47.1132 45.4927C47.1091 45.5003 47.1032 45.5068 47.096 45.5115C47.0889 45.5163 47.0806 45.5193 47.072 45.5201C45.5292 45.7053 43.9383 45.8356 42.3475 45.9018C41.4423 45.943 40.5623 45.959 39.7006 45.959ZM37.6709 45.8104C39.2 45.8607 40.7657 45.8538 42.3269 45.7876C43.888 45.7213 45.4537 45.5956 46.9715 45.415C45.6494 41.9937 44.0111 38.7033 42.0777 35.5864C42.0582 35.5553 42.0308 35.5298 41.9983 35.5126C41.9658 35.4953 41.9294 35.4869 41.8926 35.4881C41.8555 35.4902 41.8196 35.5017 41.7884 35.5218C41.7572 35.5418 41.7316 35.5696 41.7143 35.6024C40.049 38.8719 38.6915 42.2893 37.6595 45.8104H37.6709Z" fill="#FAFAFA"/>
<path d="M35.7781 67.5839C35.7639 67.5845 35.75 67.5796 35.7393 67.5702C35.7287 67.5609 35.7221 67.5477 35.7209 67.5336C35.4923 65.721 35.3575 64.105 35.2958 62.6284C35.0672 57.3027 35.8215 51.657 37.5289 45.849C37.5331 45.8371 37.5408 45.8268 37.551 45.8195C37.5613 45.8121 37.5735 45.8081 37.5861 45.8079C39.1381 45.8627 40.7289 45.8559 42.3152 45.7873C43.9015 45.7187 45.4923 45.593 47.0329 45.4079C47.0452 45.406 47.0578 45.4083 47.0687 45.4146C47.0795 45.4208 47.0878 45.4305 47.0923 45.4421C48.3836 48.7333 49.3616 52.1388 50.0135 55.6136C50.0148 55.6211 50.0146 55.6288 50.0129 55.6362C50.0111 55.6437 50.0079 55.6507 50.0035 55.6568C49.999 55.663 49.9933 55.6682 49.9868 55.6722C49.9803 55.6761 49.973 55.6788 49.9655 55.6799C49.9506 55.6825 49.9353 55.6792 49.9229 55.6707C49.9105 55.6621 49.902 55.649 49.8992 55.6341C49.2563 52.1814 48.2906 48.7966 47.0146 45.5244C45.4832 45.7096 43.9083 45.8353 42.3335 45.9016C40.7586 45.9679 39.1792 45.977 37.6363 45.9221C35.9426 51.705 35.1952 57.3233 35.4215 62.6239C35.4832 64.1096 35.6226 65.7096 35.8466 67.5199C35.848 67.5349 35.8435 67.5499 35.8342 67.5618C35.8248 67.5737 35.8113 67.5816 35.7963 67.5839H35.7781ZM50.6718 66.953C50.6643 66.9527 50.6569 66.9509 50.6501 66.9478C50.6433 66.9446 50.6371 66.9402 50.632 66.9347C50.6269 66.9291 50.623 66.9227 50.6204 66.9156C50.6178 66.9086 50.6166 66.9011 50.6169 66.8936C50.6855 65.065 50.6901 63.465 50.6169 61.9793C50.6166 61.9718 50.6178 61.9643 50.6204 61.9572C50.623 61.9502 50.6269 61.9437 50.632 61.9382C50.6371 61.9327 50.6433 61.9282 50.6501 61.9251C50.6569 61.9219 50.6643 61.9202 50.6718 61.9199C50.6794 61.9192 50.687 61.9202 50.6942 61.9226C50.7014 61.9251 50.708 61.9291 50.7136 61.9342C50.7191 61.9394 50.7236 61.9456 50.7266 61.9526C50.7297 61.9596 50.7312 61.9671 50.7312 61.9747C50.7952 63.4627 50.7906 65.0741 50.7312 66.8981C50.7309 66.9057 50.7291 66.913 50.726 66.9199C50.7228 66.9267 50.7184 66.9328 50.7129 66.9379C50.7073 66.943 50.7009 66.947 50.6938 66.9495C50.6868 66.9521 50.6793 66.9533 50.6718 66.953Z" fill="#FAFAFA"/>
<path d="M42.722 60.6585C41.4347 60.6638 40.1943 60.1763 39.255 59.2961C38.3157 58.4159 37.7488 57.2097 37.6706 55.9248V55.8813C37.6706 55.8539 37.6706 55.8265 37.6706 55.7991C37.6424 55.1331 37.7456 54.4682 37.9743 53.8422C38.2031 53.2161 38.5529 52.6413 39.0039 52.1505C39.4548 51.6597 39.998 51.2625 40.6024 50.9816C41.2068 50.7007 41.8607 50.5416 42.5266 50.5133C43.1925 50.4851 43.8574 50.5883 44.4835 50.8171C45.1095 51.0459 45.6843 51.3957 46.1751 51.8466C46.666 52.2976 47.0632 52.8407 47.3441 53.4452C47.625 54.0496 47.7841 54.7034 47.8123 55.3693C47.8123 55.3968 47.8123 55.4265 47.8123 55.4562V55.4951C47.8432 56.8211 47.3506 58.106 46.4411 59.0716C45.5316 60.0371 44.2784 60.6056 42.9529 60.6539C42.8729 60.6585 42.7974 60.6585 42.722 60.6585ZM42.738 50.6219H42.5231C41.872 50.6492 41.2326 50.8046 40.6415 51.0792C40.0505 51.3538 39.5193 51.7421 39.0784 52.2221C38.6375 52.702 38.2956 53.2642 38.072 53.8764C37.8485 54.4885 37.7478 55.1388 37.7757 55.7899C37.7757 55.8151 37.7757 55.8425 37.7757 55.8699V55.9133C37.8309 57.2294 38.4066 58.4697 39.3762 59.3613C39.8563 59.8028 40.4187 60.1454 41.0312 60.3695C41.6437 60.5936 42.2943 60.6949 42.946 60.6676C43.5977 60.6403 44.2375 60.4849 44.8291 60.2103C45.4207 59.9357 45.9525 59.5472 46.3939 59.0671C46.8354 58.587 47.178 58.0247 47.4021 57.4122C47.6263 56.7997 47.7276 56.149 47.7003 55.4973V55.4562C47.7003 55.4288 47.7003 55.4013 47.7003 55.3739C47.6467 54.0964 47.1018 52.8889 46.1793 52.0035C45.2568 51.1181 44.0281 50.6231 42.7494 50.6219H42.738ZM42.738 59.2893C41.7685 59.2683 40.8465 58.8657 40.1721 58.1689C39.4977 57.4722 39.1254 56.5375 39.1359 55.5679C39.1465 54.5983 39.539 53.672 40.2284 52.99C40.9178 52.3081 41.8483 51.9256 42.818 51.9256C43.7877 51.9256 44.7182 52.3081 45.4076 52.99C46.097 53.672 46.4895 54.5983 46.5001 55.5679C46.5106 56.5375 46.1382 57.4722 45.4638 58.1689C44.7894 58.8657 43.8674 59.2683 42.898 59.2893H42.738ZM42.7426 51.9911H42.5894C42.1182 52.011 41.6555 52.1236 41.2277 52.3224C40.8 52.5212 40.4156 52.8023 40.0964 53.1496C39.7773 53.4969 39.5297 53.9037 39.3678 54.3468C39.2059 54.7898 39.1329 55.2604 39.1529 55.7316C39.1728 56.2029 39.2854 56.6656 39.4842 57.0933C39.683 57.5211 39.9641 57.9055 40.3114 58.2246C40.6587 58.5437 41.0655 58.7913 41.5086 58.9532C41.9516 59.1151 42.4222 59.1882 42.8934 59.1682C43.8273 59.1216 44.7062 58.7128 45.3435 58.0287C45.9809 57.3445 46.3264 56.4389 46.3068 55.5041C46.2871 54.5692 45.9039 53.6789 45.2384 53.0221C44.5729 52.3653 43.6776 51.9938 42.7426 51.9865V51.9911Z" fill="#FAFAFA"/>
<path d="M42.7292 59.289C41.7598 59.2679 40.8378 58.8653 40.1634 58.1686C39.489 57.4718 39.1166 56.5372 39.1272 55.5676C39.1377 54.598 39.5303 53.6716 40.2197 52.9897C40.909 52.3078 41.8396 51.9253 42.8092 51.9253C43.7789 51.9253 44.7094 52.3078 45.3988 52.9897C46.0882 53.6716 46.4808 54.598 46.4913 55.5676C46.5018 56.5372 46.1295 57.4718 45.4551 58.1686C44.7807 58.8653 43.8587 59.2679 42.8892 59.289H42.7292ZM42.7361 51.9907H42.5807C42.1094 52.0107 41.6467 52.1233 41.219 52.322C40.7912 52.5208 40.4068 52.8019 40.0877 53.1493C39.7686 53.4966 39.521 53.9034 39.3591 54.3464C39.1972 54.7894 39.1241 55.26 39.1441 55.7313C39.1641 56.2025 39.2766 56.6653 39.4754 57.093C39.6742 57.5207 39.9553 57.9051 40.3026 58.2243C40.65 58.5434 41.0568 58.791 41.4998 58.9529C41.9428 59.1148 42.4134 59.1878 42.8847 59.1679C43.8349 59.1245 44.7292 58.7065 45.3718 58.0052C46.0144 57.3039 46.3529 56.3765 46.3132 55.4261C46.2704 54.5038 45.8743 53.6332 45.2071 52.9949C44.5398 52.3566 43.6526 51.9995 42.7292 51.9976L42.7361 51.9907Z" fill="#FAFAFA"/>
<path d="M33.227 85.6184C33.1005 85.6176 32.9751 85.5944 32.8567 85.5498C32.3722 85.3669 31.9059 84.8024 31.9424 83.9498L32.347 76.2995C32.3561 76.1062 32.3962 75.9155 32.4659 75.7349L35.7139 67.5064C35.7188 67.4944 35.7275 67.4843 35.7386 67.4777C35.7497 67.4711 35.7627 67.4683 35.7756 67.4698C35.788 67.4723 35.7994 67.4784 35.8084 67.4873C35.8173 67.4963 35.8234 67.5077 35.8259 67.5201C36.1344 70.0229 36.555 72.5235 36.9687 74.9395C37.0967 75.6915 37.2224 76.4367 37.3413 77.1681L41.5973 76.9875L41.3687 76.0092C41.3117 75.7648 41.3047 75.5113 41.3482 75.2641C41.4365 74.7551 41.6963 74.2917 42.0844 73.9508C42.4726 73.6099 42.9657 73.4121 43.4818 73.3902C43.9979 73.3683 44.506 73.5236 44.9216 73.8304C45.3372 74.1372 45.6353 74.577 45.7664 75.0767C45.8303 75.3189 45.8443 75.5717 45.8076 75.8195L45.6659 76.8161L49.9219 76.6355C49.9798 75.8949 50.0407 75.1437 50.1047 74.3818C50.3059 71.9407 50.5139 69.4149 50.6099 66.8938C50.6102 66.8811 50.615 66.8689 50.6233 66.8593C50.6317 66.8497 50.6431 66.8433 50.6556 66.8412C50.6677 66.8384 50.6804 66.8399 50.6917 66.8453C50.7029 66.8507 50.7119 66.8597 50.7173 66.8709L54.651 74.7955C54.737 74.9694 54.7934 75.1563 54.8179 75.3487L55.8693 82.9372C55.9859 83.7829 55.5676 84.3841 55.1013 84.6058C54.8874 84.7066 54.6459 84.733 54.4152 84.6809C54.1845 84.6287 53.9779 84.5009 53.8282 84.3178L49.7367 79.9201L45.1927 80.1121L45.0213 81.3075C44.9825 81.5915 44.8451 81.8528 44.6332 82.0458C44.4213 82.2388 44.1484 82.3513 43.862 82.3635C43.5756 82.3758 43.2941 82.287 43.0665 82.1128C42.8389 81.9386 42.6797 81.69 42.6167 81.4104L42.3493 80.2287L37.8053 80.4207L34.1002 85.1544C34.0005 85.294 33.8697 85.4086 33.7182 85.4891C33.5667 85.5696 33.3985 85.6139 33.227 85.6184ZM35.7413 67.7578L32.5756 75.7784C32.5094 75.9471 32.4708 76.1254 32.4613 76.3064L32.059 83.9567C32.0156 84.7521 32.4453 85.2755 32.891 85.4424C33.0901 85.5147 33.3075 85.5187 33.5091 85.4537C33.7107 85.3888 33.8849 85.2585 34.0042 85.0835L37.7253 80.3338C37.7303 80.3276 37.7365 80.3226 37.7436 80.319C37.7507 80.3154 37.7585 80.3135 37.7664 80.3132L42.3836 80.1167C42.3972 80.1163 42.4106 80.1206 42.4214 80.129C42.4322 80.1373 42.4399 80.1491 42.443 80.1624L42.7242 81.3852C42.7822 81.6383 42.927 81.8631 43.1335 82.0205C43.34 82.178 43.5952 82.2581 43.8546 82.2469C44.114 82.2358 44.3614 82.1341 44.5536 81.9596C44.7459 81.785 44.8709 81.5487 44.907 81.2915L45.0853 80.0504C45.0869 80.0372 45.093 80.025 45.1026 80.0158C45.1121 80.0066 45.1246 80.0011 45.1379 80.0001L49.7573 79.8058C49.7655 79.8049 49.7738 79.806 49.7814 79.8092C49.789 79.8125 49.7957 79.8176 49.8007 79.8241L53.915 84.2401C54.0485 84.4057 54.2337 84.5216 54.441 84.5693C54.6482 84.617 54.8655 84.5936 55.0579 84.5029C55.4876 84.2995 55.8716 83.7418 55.7619 82.9532L54.7127 75.3647C54.6891 75.1842 54.6358 75.0089 54.555 74.8458L50.7219 67.1224C50.6236 69.5704 50.4202 72.0207 50.2236 74.3932C50.1596 75.1704 50.0979 75.9376 50.0384 76.6949C50.0373 76.7089 50.0311 76.722 50.021 76.7317C50.0109 76.7414 49.9976 76.747 49.9836 76.7475L45.6087 76.9327C45.6003 76.9328 45.5919 76.9312 45.584 76.9281C45.5762 76.925 45.5691 76.9203 45.563 76.9144C45.5576 76.9082 45.5535 76.9009 45.5512 76.893C45.5488 76.8851 45.5482 76.8768 45.5493 76.8687L45.7024 75.8035C45.7365 75.5709 45.7233 75.3338 45.6636 75.1064C45.5397 74.6312 45.2567 74.2128 44.8618 73.9209C44.467 73.6289 43.984 73.4811 43.4934 73.5019C43.0027 73.5228 42.534 73.711 42.1653 74.0354C41.7966 74.3598 41.5502 74.8007 41.467 75.2847C41.4262 75.5159 41.4324 75.753 41.4853 75.9818L41.7276 77.0287C41.7311 77.0362 41.7329 77.0444 41.7329 77.0527C41.7329 77.061 41.7311 77.0691 41.7276 77.0767C41.7224 77.0833 41.7158 77.0888 41.7083 77.0928C41.7009 77.0967 41.6926 77.099 41.6842 77.0995L37.3093 77.2847C37.3024 77.2853 37.2954 77.2845 37.2888 77.2825C37.2822 77.2804 37.2761 77.277 37.2707 77.2726C37.2654 77.2681 37.2611 77.2626 37.2579 77.2565C37.2547 77.2503 37.2527 77.2436 37.2522 77.2367C37.1287 76.4892 37.0007 75.7281 36.8704 74.9509C36.4636 72.6127 36.0545 70.1875 35.7482 67.7578H35.7413Z" fill="#FAFAFA"/>
<path d="M64.1259 71.7523L56.9236 74.038C56.8772 74.0555 56.8264 74.0575 56.7788 74.0436C56.7312 74.0297 56.6894 74.0007 56.6597 73.9609C56.63 73.9212 56.6141 73.8729 56.6143 73.8233C56.6145 73.7737 56.6308 73.7255 56.6608 73.686L60.9739 67.4346L64.1259 71.7523Z" fill="#FFA8A7"/>
<path d="M61.9204 70.4993L56.9238 74.0467L64.1261 71.7519L62.7547 69.8799L61.9204 70.4993Z" fill="#F28F8F"/>
<path d="M56.6608 73.6949C56.6308 73.7344 56.6145 73.7826 56.6143 73.8322C56.6141 73.8818 56.63 73.9301 56.6597 73.9699C56.6894 74.0096 56.7312 74.0386 56.7788 74.0525C56.8264 74.0664 56.8772 74.0645 56.9236 74.0469L58.3293 73.5898C58.1162 73.4899 57.9346 73.3335 57.804 73.1377C57.6735 72.9419 57.599 72.714 57.5888 72.4789V72.3486L56.6608 73.6949Z" fill="#455A64"/>
<path d="M97.1295 40.6665L96.5673 41.0825L95.8815 41.5831L60.9741 67.4436C60.8301 68.2875 61.0106 69.1547 61.4792 69.8711C62.1444 70.9842 63.2758 71.7911 64.1238 71.7499L99.0244 45.8985L100.318 44.9385C99.445 45.5122 96.261 41.2539 97.1295 40.6665Z" fill="#FFD000"/>
<path opacity="0.3" d="M97.1295 40.6665L96.5673 41.0825L95.8815 41.5831L60.9741 67.4436C60.8301 68.2875 61.0106 69.1547 61.4792 69.8711C62.1444 70.9842 63.2758 71.7911 64.1238 71.7499L99.0244 45.8985L100.318 44.9385C99.445 45.5122 96.261 41.2539 97.1295 40.6665Z" fill="white"/>
<path d="M94.9878 42.2437L93.7352 43.1739C93.3626 43.4322 93.7101 44.3831 94.2998 45.3431C95.0792 46.6162 96.4506 47.7797 96.9444 47.4391L97.8586 46.7534L98.1855 46.5019C97.6918 46.8425 96.3181 45.6791 95.5386 44.4059C94.9764 43.4917 94.6358 42.5774 94.9421 42.2734C94.9529 42.2579 94.9693 42.2473 94.9878 42.2437Z" fill="#EBEBEB"/>
<path d="M94.6764 42.4788C93.8101 43.0754 97.0169 47.3382 97.8764 46.7393L99.1312 45.8114C98.2672 46.4079 95.0604 42.1542 95.9312 41.5508L94.6764 42.4788Z" fill="#FFD000"/>
<path d="M97.1288 40.6665L95.8877 41.5808C95.0351 42.1591 98.0934 46.2985 99.0237 45.8962C99.0423 45.8894 99.06 45.8802 99.0762 45.8688L100.317 44.9362C99.4442 45.5122 96.2602 41.2539 97.1288 40.6665Z" fill="#EBEBEB"/>
<path opacity="0.5" d="M100.231 44.9774C99.7942 45.0986 98.9416 44.4654 98.2376 43.5923L61.9268 70.4951C62.585 71.27 63.4445 71.7843 64.1233 71.75L99.0239 45.8986L100.318 44.9386C100.291 44.9557 100.261 44.9688 100.231 44.9774Z" fill="#FFD000"/>
<path d="M105.678 40.9658C105.694 40.9575 105.709 40.9483 105.724 40.9383C106.266 40.5338 105.991 39.2492 105.109 38.0698C104.227 36.8903 103.075 36.2663 102.531 36.6663L97.1274 40.6641C96.7571 40.9155 97.0954 41.8595 97.676 42.8126C98.4508 44.0903 99.8177 45.2652 100.318 44.9361L105.594 41.0298L105.678 40.9795V40.9658Z" fill="#F28F8F"/>
<path opacity="0.1" d="M105.294 38.3281L98.2314 43.5853C98.988 44.511 99.9229 45.1853 100.318 44.9293L105.594 41.023L105.678 40.9796C105.694 40.9713 105.709 40.9621 105.724 40.9521C106.229 40.5636 106.028 39.4321 105.294 38.3281Z" fill="black"/>
<path d="M105.726 40.9384C105.182 41.343 104.025 40.7098 103.143 39.5372C102.261 38.3647 101.986 37.0732 102.53 36.6687C103.074 36.2641 104.229 36.8972 105.111 38.0698C105.993 39.2424 106.268 40.5338 105.726 40.9384Z" fill="#FFA8A7"/>
<path d="M71.6807 107.172C71.5093 107.156 71.507 107.574 71.6122 107.778C71.9184 108.356 72.771 108.978 74.0167 109.252C75.2625 109.526 77.7013 109.199 78.4419 109.172C79.1824 109.144 80.4556 109.519 81.1847 109.629C82.5264 109.844 83.4453 109.474 83.8842 109.042C83.9563 108.954 84.0097 108.853 84.0412 108.744C84.0726 108.635 84.0814 108.521 84.067 108.408C84.0533 107.899 84.0099 107.796 83.9527 107.8L71.6807 107.172Z" fill="#37474F"/>
<path d="M83.8132 106.321C83.9428 106.926 83.9828 107.546 83.932 108.161C83.7766 108.541 83.3606 108.756 83.0292 108.861C82.1514 109.135 81.292 109.089 80.3274 108.877C79.706 108.715 79.0655 108.638 78.4234 108.648C77.66 108.692 75.9777 108.861 75.212 108.877C74.4976 108.888 73.7887 108.751 73.1297 108.475C72.6246 108.246 71.8566 107.72 71.6874 107.332C71.5206 106.417 71.6143 105.871 72.1446 105.56C72.6749 105.249 73.5 105.167 74.6017 105.085C74.9332 105.06 75.3492 105.041 75.516 105.021C76.1834 104.948 76.8074 104.897 77.3126 104.865C77.7436 104.869 78.17 104.776 78.5606 104.593C78.7395 104.513 78.8843 104.372 78.9697 104.196C79.0749 103.967 79.0726 103.62 79.2783 103.599C79.2783 103.599 83.052 104.241 83.356 104.285C83.7172 104.308 83.4863 104.813 83.8132 106.321Z" fill="#455A64"/>
<path d="M75.2306 104.98C75.1161 105.068 75.0218 105.181 74.9541 105.309C74.8782 105.447 74.8199 105.595 74.7803 105.748C74.7301 105.94 74.9678 105.976 75.0592 105.748C75.1281 105.563 75.2194 105.387 75.3312 105.224C75.4102 105.112 75.5258 105.031 75.6581 104.996L75.8501 104.975C75.7975 104.845 75.3769 104.891 75.2306 104.98Z" fill="#FAFAFA"/>
<path d="M76.9332 104.788C76.8699 104.78 76.8057 104.785 76.7447 104.804C76.6837 104.822 76.6272 104.853 76.5789 104.895C76.4546 105.001 76.3621 105.14 76.3115 105.295C76.245 105.48 76.1945 105.67 76.1606 105.864C76.1469 105.988 76.4372 105.983 76.4692 105.848C76.509 105.673 76.5586 105.499 76.6178 105.329C76.6498 105.245 76.8006 104.918 77.0018 104.886H77.0932C77.0932 104.842 77.0361 104.813 76.9972 104.804L76.9332 104.788Z" fill="#FAFAFA"/>
<path d="M77.9321 104.751C77.8434 104.766 77.7627 104.811 77.7035 104.879C77.6357 104.97 77.5832 105.071 77.5481 105.179C77.487 105.376 77.4577 105.582 77.4612 105.789C77.4612 105.949 77.7469 105.905 77.7561 105.8C77.7479 105.521 77.8141 105.244 77.9481 104.998C78.0131 104.897 78.1007 104.812 78.2041 104.751C78.2041 104.724 78.1538 104.719 78.1264 104.724C78.0612 104.729 77.9963 104.739 77.9321 104.751Z" fill="#FAFAFA"/>
<path d="M83.7359 100.207C83.7359 100.207 83.4113 103.679 83.3291 104.481C83.3016 104.737 82.8171 104.84 82.5679 104.938C82.2569 105.054 81.9672 105.221 81.7108 105.432C81.0753 106.061 80.5976 106.209 80.2159 105.105C80.203 105.052 80.1788 105.002 80.145 104.958C80.1112 104.915 80.0685 104.88 80.0199 104.854C79.9712 104.828 79.9176 104.814 79.8627 104.81C79.8079 104.807 79.7529 104.816 79.7016 104.836C79.4913 104.906 79.2696 104.937 79.0479 104.927C79.0136 104.904 79.0342 104.854 79.0479 104.82C79.146 104.699 79.2171 104.559 79.2565 104.409C79.2959 104.259 79.3027 104.102 79.2765 103.949C79.1668 102.529 79.1073 101.105 79.0273 99.6836L83.7359 100.207Z" fill="#E0CBCB"/>
<path d="M98.0263 97.4209C97.5692 96.7032 96.8835 94.7718 96.3029 92.7261L92.0469 94.6941C92.0469 94.6941 94.6526 99.4232 94.9497 99.8506C95.4389 100.559 98.0263 97.4209 98.0263 97.4209Z" fill="#E0CBCB"/>
<path d="M99.427 98.95C99.427 98.9089 99.4453 98.5706 99.427 98.5295C99.331 98.166 99.107 98.0723 98.8167 97.862C98.5254 97.6648 98.2578 97.4347 98.019 97.1763C97.923 97.0437 97.9047 96.9729 97.7539 96.9135C97.5587 96.8521 97.3524 96.834 97.1495 96.8604C96.9466 96.8869 96.7519 96.9572 96.579 97.0666C95.7493 97.5032 95.4956 98.0289 95.5436 98.598C95.5802 99.0323 95.6144 99.6083 95.2327 99.8666C95.0727 99.974 94.691 99.4415 94.691 99.4415C94.4624 99.8369 94.9196 100.223 95.091 101.025C95.1912 101.469 95.199 101.928 95.1139 102.374C95.0293 103.076 94.9333 103.073 94.5584 103.124C94.2362 103.165 93.3241 103.103 92.7687 103.492C92.003 104.027 92.2087 104.737 92.2087 104.737C92.307 105.007 93.139 106.319 96.179 105.83C97.0613 105.688 98.9219 104.301 98.8853 104.171C98.8705 104.038 98.8705 103.905 98.8853 103.773C98.8967 103.462 98.9104 103.151 98.9242 102.84C98.9121 102.544 98.9289 102.247 98.9744 101.953C99.031 101.712 99.0692 101.467 99.0887 101.22C99.1459 100.596 99.2053 99.9695 99.2624 99.3455C99.2922 99.1695 99.4522 99.1283 99.427 98.95Z" fill="#455A64"/>
<path d="M99.8107 98.8268C100.11 99.117 99.9272 99.9696 99.525 100.971C99.3467 101.428 99.0152 102.189 99.1135 103.01C99.2118 103.83 99.2278 104.216 99.0152 104.61C98.6861 105.211 96.917 105.981 95.877 106.221C96.5061 105.338 96.8729 104.295 96.9352 103.213C97.0404 101.403 97.1775 100.242 98.005 99.4348C99.0495 98.4108 99.8107 98.8268 99.8107 98.8268Z" fill="black"/>
<path d="M92.2154 104.751C92.2154 104.751 92.8257 105.894 95.1868 105.855C96.1126 105.841 96.6063 105.398 96.6291 103.983C96.6566 102.287 96.7937 100.573 97.3423 99.7317C97.8908 98.8905 98.764 98.4814 99.4428 98.5408C99.6003 98.5912 99.7342 98.6967 99.82 98.838C99.82 98.838 99.1343 98.6094 98.0851 99.4917C97.3057 100.139 97.0954 101.489 97.1091 103.165C97.1091 103.887 97.1571 104.705 96.9446 105.254C96.8478 105.495 96.6958 105.71 96.5009 105.882C96.3061 106.054 96.0736 106.178 95.8223 106.244C94.5446 106.603 92.7937 106.015 92.3503 105.471C92.2747 105.369 92.2232 105.251 92.1998 105.127C92.1765 105.002 92.1818 104.873 92.2154 104.751Z" fill="#37474F"/>
<path d="M95.0403 102.817C94.9451 102.885 94.8777 102.985 94.8506 103.099C94.8405 103.243 94.8695 103.388 94.9347 103.517C94.9999 103.647 95.0987 103.756 95.2209 103.835C95.3626 103.924 95.486 103.892 95.2597 103.595C95.1158 103.361 95.0398 103.092 95.0403 102.817Z" fill="#FAFAFA"/>
<path d="M95.164 101.939C95.164 101.939 95.0909 101.987 95.0703 102.223C95.0703 102.349 95.2577 102.858 95.5046 102.979C95.7515 103.101 95.6189 102.815 95.5046 102.675C95.3389 102.458 95.2226 102.207 95.164 101.939Z" fill="#FAFAFA"/>
<path d="M95.0844 100.971C95.0844 100.971 95.0044 100.991 95.0844 101.316C95.1987 101.522 95.3801 101.684 95.5987 101.773C95.7564 101.791 95.8272 101.714 95.6398 101.572C95.489 101.453 95.1141 101.126 95.0844 100.971Z" fill="#FAFAFA"/>
<path d="M93.2099 96.9499C93.2099 96.9499 91.1185 93.3088 87.9779 87.7819C87.4936 87.0074 87.1579 86.1493 86.9882 85.2517C86.7779 84.3374 85.683 79.6905 85.683 79.6905L84.5219 87.2334C84.7478 88.2096 84.8863 89.204 84.9356 90.2048C84.9356 91.4505 84.7779 93.3431 84.4259 95.9077C83.8887 99.8277 83.6373 101.917 83.6373 101.917C83.3607 102.116 83.0179 102.395 81.0865 102.374C80.3986 102.326 79.7276 102.14 79.1139 101.825C79.1139 101.825 78.7733 97.7454 78.6316 94.9019C78.5013 92.2757 78.2865 89.3088 78.1745 87.7248C77.9642 84.7534 77.8979 83.4665 77.8682 78.7808C77.8362 73.9191 78.2065 66.7671 78.2065 66.7671H91.891C91.891 66.7671 92.9059 68.4745 92.627 72.6619C92.7345 76.7534 93.0979 84.2277 93.0979 84.2277C94.0305 85.3042 94.6796 86.6139 95.3196 88.9454C96.0282 91.5374 96.4625 93.0414 97.0247 94.9317C95.9116 94.9065 93.6167 96.1728 93.2099 96.9499Z" fill="#FFD000"/>
<path opacity="0.2" d="M94.3163 95.9556L94.1174 96.0859C92.9746 94.1134 90.0694 89.1145 89.1391 87.2768C88.1791 85.3934 87.4957 82.5316 86.586 78.3625C86.4626 77.8048 86.3391 77.2196 86.2066 76.6185L86.1494 76.3556L86.2454 75.6699L86.4397 76.5636C86.5197 76.9454 86.602 77.3134 86.682 77.6768C87.658 82.1819 88.3597 85.2196 89.3517 87.1739C90.2774 88.9979 93.162 93.9716 94.3163 95.9556Z" fill="black"/>
<path opacity="0.2" d="M79.8016 66.7671H79.5616C79.4153 68.8379 79.3331 71.4208 79.3148 74.3099C78.8256 74.0814 78.3068 73.5808 77.9685 72.5751C77.9685 72.7694 77.9685 72.9659 77.9502 73.1648C78.213 73.7895 78.7032 74.2911 79.3216 74.5682C79.2691 82.7968 79.6645 93.5031 80.2359 102.237C80.3136 102.257 80.3959 102.276 80.4782 102.292C79.6919 90.3717 79.2325 74.7397 79.8016 66.7671Z" fill="black"/>
<path opacity="0.2" d="M85.6738 79.7292L86.435 74.3258C86.435 74.3258 88.2224 74.1886 90.3733 72.3989C90.3733 72.3989 90.0898 73.9989 87.0407 75.0961L86.3093 80.3212L86.8715 84.7486C86.8715 84.7486 85.6875 79.8366 85.6738 79.7292Z" fill="black"/>
<path d="M95.1133 54.8398C94.2782 53.2506 93.3477 51.7133 92.327 50.2364C91.1841 48.5587 87.9636 49.1758 87.959 49.1758L89.4927 53.793L92.1487 58.8215L90.0093 61.9575L91.6893 64.497C91.6893 64.497 95.0561 61.2375 96.0024 60.2181C96.9921 59.1507 96.8801 58.6592 96.4733 57.633C96.1624 56.8512 95.943 56.4695 95.1133 54.8398Z" fill="#E0CBCB"/>
<path d="M94.3566 57.5372C94.7383 57.2881 95.5314 56.5269 95.76 55.9532C94.6514 53.5829 92.8274 50.5063 92.3314 49.9143C91.7349 49.2126 90.9943 48.7715 89.0469 48.7715L89.3326 53.7475L91.7692 58.4629C92.5463 58.4469 93.5863 58.0401 94.3566 57.5372Z" fill="#263238"/>
<path d="M88.5698 49.0319C88.4433 49.0229 88.324 48.9696 88.2329 48.8814C88.1418 48.7932 88.0846 48.6758 88.0715 48.5496C87.9986 47.8951 87.994 47.2348 88.0578 46.5793C88.1606 45.8502 89.2989 44.2753 89.4292 42.2799C89.5595 40.2845 86.8418 37.2239 84.4989 37.4662C82.1561 37.7085 80.9104 38.9862 80.2795 40.7142C79.8932 41.7679 80.2795 41.9736 80.1401 42.5816C79.8475 43.7748 79.4132 44.6959 79.9778 46.977C80.1812 47.8113 80.8921 48.0765 81.5778 48.2388C82.0771 48.3385 82.5872 48.3738 83.0955 48.3439C83.0955 48.3439 83.1435 49.041 83.1435 49.569C83.1528 49.748 83.0971 49.9244 82.9866 50.0655C82.8761 50.2067 82.7183 50.3031 82.5424 50.337C83.4452 50.9839 88.9104 51.1645 88.5698 49.0319Z" fill="#E0CBCB"/>
<path d="M90.51 42.0148C90.3683 42.0582 90.2312 41.9165 90.2037 41.7748C90.1943 41.629 90.2066 41.4827 90.2403 41.3405C90.257 41.0793 90.1773 40.8211 90.0164 40.6147C89.8555 40.4083 89.6245 40.2681 89.3672 40.2205C89.4793 40.2124 89.5883 40.1798 89.6864 40.1248C89.7845 40.0698 89.8693 39.994 89.9347 39.9025C90.0002 39.8111 90.0447 39.7064 90.0651 39.5958C90.0855 39.4853 90.0814 39.3716 90.0529 39.2628C90.0555 39.344 90.0318 39.4238 89.9854 39.4904C89.9389 39.557 89.8722 39.6069 89.7952 39.6326C89.7181 39.6583 89.6349 39.6584 89.5578 39.633C89.4806 39.6075 89.4138 39.5579 89.3672 39.4914C89.292 39.3123 89.2592 39.1183 89.2712 38.9245C89.2433 38.7861 89.1852 38.6555 89.101 38.5421C89.0168 38.4288 88.9086 38.3354 88.7841 38.2688C88.6596 38.2022 88.5219 38.1639 88.3808 38.1568C88.2398 38.1496 88.0989 38.1737 87.9683 38.2274C87.9708 37.9975 87.9076 37.7717 87.7861 37.5765C87.6646 37.3813 87.4899 37.2249 87.2826 37.1257C87.0728 37.0301 86.8405 36.9951 86.6119 37.0246C86.3833 37.0541 86.1675 37.1469 85.9889 37.2925C85.9714 37.0845 85.8812 36.8894 85.734 36.7414C85.5868 36.5934 85.3922 36.502 85.1843 36.4834C84.9744 36.4723 84.7647 36.5075 84.57 36.5865C84.3752 36.6655 84.2003 36.7864 84.0574 36.9405C84.1179 36.8515 84.1502 36.7464 84.1502 36.6388C84.1502 36.5312 84.1179 36.4261 84.0574 36.3371C83.9924 36.2504 83.9035 36.1846 83.8016 36.1477C83.6997 36.1107 83.5892 36.1043 83.4837 36.1291C83.5337 36.1421 83.5807 36.1649 83.6218 36.1961C83.663 36.2272 83.6977 36.2662 83.7238 36.3108C83.7499 36.3554 83.767 36.4047 83.774 36.4559C83.7811 36.507 83.778 36.5591 83.7649 36.6091C83.678 36.8788 83.4129 36.8788 83.198 36.8079C82.8617 36.6972 82.4994 36.6924 82.1603 36.7942C81.9862 36.8451 81.8281 36.9396 81.7008 37.0688C81.5736 37.198 81.4816 37.3577 81.4334 37.5325C81.177 37.4907 80.9141 37.5159 80.6702 37.6056C80.4263 37.6953 80.2097 37.8465 80.0414 38.0445C79.8868 38.2372 79.7835 38.4659 79.7411 38.7093C79.6987 38.9527 79.7187 39.2029 79.7992 39.4365C79.805 39.4559 79.8119 39.475 79.8197 39.4937C79.7819 39.5047 79.7452 39.5193 79.71 39.5371C79.5475 39.6203 79.4167 39.7543 79.3375 39.9188C79.3192 39.9508 79.3077 39.9851 79.294 40.0148C79.2319 40.1878 79.201 40.3704 79.2026 40.5542C79.1837 40.8804 79.2773 41.2031 79.4677 41.4685C79.5448 41.568 79.6425 41.6496 79.7542 41.7077C79.8659 41.7657 79.9889 41.7987 80.1146 41.8045C80.0784 41.4387 80.1334 41.0696 80.2746 40.7302C80.4042 40.3717 80.568 40.0265 80.7637 39.6994C81.3075 39.7213 81.8407 39.5442 82.2632 39.2011C82.3912 39.3519 82.3843 39.5142 82.5786 39.6308C83.15 39.9737 83.8677 39.9279 84.5352 39.8731C84.45 40.0809 84.4443 40.3128 84.5192 40.5245C84.5781 40.6268 84.6603 40.7137 84.7592 40.7782C84.9428 40.9133 85.1464 41.0189 85.3626 41.0914C85.0654 41.3337 84.8735 41.7565 85.0449 42.0971C85.1511 42.2611 85.2822 42.4076 85.4334 42.5314C85.5099 42.5926 85.5705 42.6712 85.6103 42.7607C85.6501 42.8502 85.6678 42.9479 85.662 43.0457C85.6277 43.2262 85.4609 43.3588 85.4334 43.5394C85.3877 43.7817 85.5957 43.9965 85.79 44.1428C85.7532 44.0275 85.7581 43.9029 85.8037 43.7908C85.8792 43.6674 86.0323 43.6422 86.1534 43.5919C86.3203 43.5234 86.3272 43.4617 86.4049 43.3154C86.5544 43.0222 86.8103 42.7973 87.1203 42.6868C87.3673 42.6185 87.631 42.6466 87.8581 42.7654C88.0851 42.8843 88.2585 43.0849 88.3432 43.3268C88.4132 43.6548 88.3838 43.9962 88.2586 44.3074C88.1668 44.6796 87.9654 45.0156 87.6803 45.2719C87.3763 45.5005 86.894 45.5485 86.6289 45.2719C86.6133 45.5988 86.7193 45.9199 86.9266 46.1732C87.1339 46.4265 87.4276 46.594 87.7512 46.6434C87.8723 46.6571 87.9797 46.6777 88.0666 46.5977C88.1914 46.2417 88.3703 45.9072 88.5969 45.6057C88.8254 45.2605 89.2826 44.6914 89.5249 44.3577C89.7672 44.0239 89.8472 43.4937 89.5249 43.2148C89.6716 43.1891 89.8034 43.1094 89.8944 42.9913C89.9853 42.8733 90.0288 42.7256 90.0163 42.5771C89.9787 42.2798 89.8636 41.9976 89.6826 41.7588C89.7757 41.8835 89.906 41.9754 90.0547 42.0214C90.2033 42.0674 90.3628 42.0651 90.51 42.0148Z" fill="#263238"/>
<path d="M81.7256 45.7406C81.7802 45.9228 81.9044 46.0761 82.0713 46.1672C82.2382 46.2584 82.4343 46.28 82.617 46.2275C82.7077 46.2025 82.7924 46.1597 82.8664 46.1017C82.9404 46.0436 83.0022 45.9715 83.0481 45.8894C83.094 45.8074 83.1232 45.717 83.1339 45.6236C83.1447 45.5302 83.1368 45.4356 83.1107 45.3452L81.7256 45.7406Z" fill="#B89596"/>
<path d="M82.2676 46.2365C82.3362 46.0573 82.4542 45.9011 82.6079 45.7862C82.7616 45.6713 82.9448 45.6024 83.1362 45.5874C83.1262 45.7346 83.071 45.875 82.9781 45.9896C82.8852 46.1042 82.7592 46.1872 82.6173 46.2274C82.5032 46.2589 82.3832 46.262 82.2676 46.2365Z" fill="#F28F8F"/>
<path d="M83.2225 43.0207C83.2068 43.0676 83.2005 43.1172 83.2041 43.1666C83.2077 43.216 83.221 43.2642 83.2433 43.3084C83.2657 43.3526 83.2965 43.392 83.3341 43.4242C83.3717 43.4564 83.4153 43.4808 83.4625 43.4961C83.5594 43.5246 83.6638 43.5137 83.7528 43.4658C83.8418 43.4178 83.9083 43.3367 83.9379 43.2401C83.9536 43.1931 83.9598 43.1435 83.9562 43.0941C83.9526 43.0447 83.9393 42.9966 83.917 42.9523C83.8947 42.9081 83.8638 42.8688 83.8262 42.8366C83.7886 42.8044 83.745 42.7799 83.6979 42.7647C83.6499 42.7502 83.5995 42.7454 83.5496 42.7505C83.4997 42.7555 83.4513 42.7704 83.4071 42.7942C83.363 42.8179 83.3239 42.8502 83.2923 42.889C83.2606 42.9279 83.2369 42.9726 83.2225 43.0207Z" fill="#263238"/>
<path d="M83.5889 41.7931L84.382 42.2502C84.441 42.1425 84.4556 42.0161 84.4227 41.8978C84.3898 41.7796 84.3121 41.6788 84.206 41.6171C84.1006 41.5595 83.9768 41.5456 83.8614 41.5786C83.7459 41.6115 83.648 41.6885 83.5889 41.7931Z" fill="#263238"/>
<path d="M80.3524 41.9646L81.2119 41.6332C81.1923 41.5766 81.1615 41.5245 81.1212 41.4801C81.081 41.4356 81.0321 41.3999 80.9776 41.3749C80.9232 41.3499 80.8642 41.3362 80.8043 41.3346C80.7443 41.3331 80.6847 41.3437 80.629 41.3658C80.5144 41.4104 80.4216 41.4978 80.37 41.6095C80.3184 41.7211 80.3121 41.8484 80.3524 41.9646Z" fill="#263238"/>
<path d="M80.6378 42.8445C80.6396 42.9125 80.6614 42.9784 80.7005 43.034C80.7396 43.0895 80.7942 43.1324 80.8576 43.157C80.9209 43.1817 80.9901 43.1871 81.0565 43.1726C81.1229 43.158 81.1835 43.1242 81.2308 43.0754C81.2781 43.0266 81.3099 42.9649 81.3222 42.898C81.3345 42.8312 81.3269 42.7622 81.3001 42.6997C81.2734 42.6372 81.2288 42.584 81.172 42.5467C81.1152 42.5095 81.0486 42.4898 80.9806 42.4902C80.9348 42.4908 80.8895 42.5005 80.8475 42.5186C80.8054 42.5368 80.7673 42.5631 80.7355 42.596C80.7036 42.629 80.6786 42.6679 80.6618 42.7105C80.645 42.7532 80.6369 42.7987 80.6378 42.8445Z" fill="#263238"/>
<path d="M80.3564 44.3669L81.6227 44.9703L82.2673 42.5063C81.7713 42.3303 80.9736 43.3794 80.3564 44.3669Z" fill="#B89596"/>
<path d="M83.0879 48.3438C83.6471 48.3033 84.196 48.1721 84.713 47.9552C85.4144 47.6528 85.9692 47.0874 86.2582 46.3804C86.1887 46.7906 86.0225 47.1783 85.7733 47.5114C85.524 47.8445 85.199 48.1134 84.825 48.2958C84.2936 48.5754 83.713 48.7493 83.1153 48.8078L83.0879 48.3438Z" fill="#B89596"/>
<path d="M91.0081 49.0661C92.2378 49.5895 92.9189 51.4181 92.7543 53.8661C92.6035 56.1289 92.4618 57.5232 92.1646 59.9209C92.0151 61.4109 91.9754 62.9098 92.0458 64.4055C92.1129 65.5925 92.2427 66.7751 92.4343 67.9484C92.4343 67.9484 91.1932 70.0261 86.9098 70.4032C81.7349 70.8604 78.0869 69.1689 78.0869 69.1689C78.0869 69.1689 78.1578 67.7198 78.1692 65.8318C78.1829 63.7632 78.2149 61.9095 78.2743 60.2341C78.4092 56.3895 78.2858 53.3609 78.7315 51.9895C79.0583 51.2329 79.3212 50.8878 80.1875 50.5678C80.5006 50.4512 81.8766 50.0421 82.8092 49.8341C83.9521 49.5781 87.9978 48.7781 88.5235 48.7758C89.0492 48.7735 90.1349 48.6912 91.0081 49.0661Z" fill="#37474F"/>
<path d="M80.5053 50.4902C80.5053 50.4902 79.0287 50.8125 78.3796 51.3885C77.7304 51.9645 76.8938 53.3085 76.0413 54.9794C75.1887 56.6502 72.9921 60.7828 72.9921 60.7828C72.9921 60.7828 71.0996 61.2102 69.9316 61.4365C68.9624 61.624 68.1396 61.8708 67.3853 61.7885C66.6735 61.7095 65.9563 61.6904 65.2413 61.7314C64.5281 61.8159 64.6058 62.2434 64.1396 62.3782C63.6733 62.5131 63.7007 62.8194 63.4653 63.2308C63.2298 63.6422 62.9761 63.2125 62.615 63.8777C62.2538 64.5428 62.4778 66.3279 62.4778 66.3279L63.3556 65.6765C63.6481 65.7034 63.9422 65.7087 64.2356 65.6925C64.9441 65.6605 65.1613 65.1988 66.3293 64.9954C67.4881 64.8834 71.5338 64.9725 73.4881 64.7965C75.4424 64.6205 76.0024 64.5794 76.5944 63.6697C77.1864 62.76 80.3064 57.2445 80.3064 57.2445C83.0493 52.7554 80.5053 50.4902 80.5053 50.4902Z" fill="#E0CBCB"/>
<path d="M80.5048 50.4902C78.8728 50.7462 77.9494 51.0982 76.6031 53.6468C75.8785 55.0182 74.9917 56.6822 74.3174 58.0399C74.3631 58.5474 74.9048 59.4891 75.8785 60.2342C77.0671 61.1485 77.9357 61.0365 78.2762 61.0365C79.4191 59.0548 80.674 56.8239 80.674 56.8239C80.674 56.8239 82.9757 52.9817 80.5048 50.4902Z" fill="#263238"/>
</g>
<defs>
<clipPath id="clip0_896_14334">
<rect width="120" height="120" fill="white" transform="translate(0.5)"/>
</clipPath>
</defs>
</svg>
