<svg width="210" height="210" viewBox="0 0 210 210" fill="none" xmlns="http://www.w3.org/2000/svg">
<g clip-path="url(#clip0_171_19400)">
<path opacity="0.5" d="M210 190.5C210 190.559 143.998 190.375 68.6147 190.375C-6.76813 190.375 0.773646 190.559 0.773646 190.5C0.773646 190.44 -6.79653 190.154 68.6147 190.154C144.026 190.154 210 190.436 210 190.5Z" fill="#263238"/>
<path d="M195.122 103.504C195.122 103.504 194.788 136.893 168.284 161.698C141.779 186.503 104.434 191.678 74.2167 196.697C43.9996 201.715 20.3819 186.305 16.3082 159.956C12.2345 133.608 35.1987 123.551 47.0886 91.9667C58.9785 60.3825 57.6577 50.5063 83.8066 29.2678C109.956 8.02931 151.717 15.5024 174.184 45.4144C196.65 75.3264 195.122 103.504 195.122 103.504Z" fill="#FFECB2"/>
<path d="M205 178.96H5V179.06H205V178.96Z" fill="#E0E0E0"/>
<path d="M163.324 182H159.132V182.1H163.324V182Z" fill="#E0E0E0"/>
<path d="M183.232 184H167.132V184.1H183.232V184Z" fill="#E0E0E0"/>
<path d="M117.084 183.704H112.268V183.804H117.084V183.704Z" fill="#E0E0E0"/>
<path d="M109.964 183.704H84.3076V183.804H109.964V183.704Z" fill="#E0E0E0"/>
<path d="M60.8681 183.072H40.2441V183.172H60.8681V183.072Z" fill="#E0E0E0"/>
<path d="M149.744 181.424H133.228V181.524H149.744V181.424Z" fill="#E0E0E0"/>
<path d="M36.6957 183.024H30.9717V183.124H36.6957V183.024Z" fill="#E0E0E0"/>
<path d="M99.8002 161.12H22.5642C21.9591 161.119 21.3792 160.878 20.9517 160.45C20.5243 160.021 20.2842 159.441 20.2842 158.836V50.264C20.2894 49.6624 20.5319 49.0872 20.9588 48.6633C21.3857 48.2394 21.9626 48.001 22.5642 48H99.8002C100.406 48 100.987 48.2406 101.415 48.669C101.844 49.0973 102.084 49.6782 102.084 50.284V158.836C102.084 159.442 101.844 160.023 101.415 160.451C100.987 160.879 100.406 161.12 99.8002 161.12ZM22.5642 48.08C21.9856 48.0811 21.4312 48.3116 21.0224 48.7211C20.6137 49.1306 20.3842 49.6855 20.3842 50.264V158.836C20.3842 159.415 20.6137 159.969 21.0224 160.379C21.4312 160.788 21.9856 161.019 22.5642 161.02H99.8002C100.379 161.019 100.934 160.789 101.343 160.379C101.753 159.97 101.983 159.415 101.984 158.836V50.264C101.983 49.6851 101.753 49.1302 101.343 48.7208C100.934 48.3115 100.379 48.0811 99.8002 48.08H22.5642Z" fill="#E0E0E0"/>
<path d="M186.324 161.12H109.084C108.478 161.119 107.898 160.878 107.47 160.45C107.042 160.022 106.801 159.441 106.8 158.836V50.264C106.806 49.662 107.049 49.0868 107.477 48.663C107.904 48.2392 108.482 48.001 109.084 48H186.324C186.925 48.0021 187.501 48.2409 187.927 48.6647C188.353 49.0885 188.595 49.6631 188.6 50.264V158.836C188.6 159.44 188.36 160.02 187.934 160.448C187.507 160.876 186.928 161.118 186.324 161.12ZM109.084 48.08C108.505 48.0811 107.95 48.3115 107.541 48.7208C107.131 49.1302 106.901 49.6851 106.9 50.264V158.836C106.901 159.415 107.131 159.97 107.541 160.379C107.95 160.789 108.505 161.019 109.084 161.02H186.324C186.903 161.019 187.458 160.789 187.867 160.379C188.276 159.97 188.507 159.415 188.508 158.836V50.264C188.507 49.6851 188.276 49.1302 187.867 48.7208C187.458 48.3115 186.903 48.0811 186.324 48.08H109.084Z" fill="#E0E0E0"/>
<path d="M171.04 63.1799H136.372V103.076H171.04V63.1799Z" fill="#E0E0E0"/>
<path d="M174.976 63.1799H137.444V103.076H174.976V63.1799Z" fill="#F0F0F0"/>
<path d="M171.832 99.932V66.324H140.588V99.932H171.832Z" fill="#FAFAFA"/>
<path d="M157.758 92.7439C163.074 91.8878 166.688 86.885 165.832 81.5699C164.976 76.2547 159.973 72.6399 154.658 73.496C149.343 74.3521 145.728 79.3549 146.584 84.6701C147.44 89.9853 152.443 93.6001 157.758 92.7439Z" fill="#F0F0F0"/>
<path d="M177.892 144.064H169.096V178.956H177.892V144.064Z" fill="#E0E0E0"/>
<path d="M176.224 178.96H177.892V174.208H174.472L176.224 178.96Z" fill="#EBEBEB"/>
<path d="M139.352 144.064H130.556V178.956H139.352V144.064Z" fill="#E0E0E0"/>
<path d="M177.892 144.064H137.892V176.04H177.892V144.064Z" fill="#EBEBEB"/>
<path d="M176.6 145.484H139.188V154.252H176.6V145.484Z" fill="#F5F5F5"/>
<path d="M139.564 178.96H137.892V174.208H141.316L139.564 178.96Z" fill="#EBEBEB"/>
<path d="M157 149.868C157 150.043 157.052 150.214 157.149 150.359C157.246 150.504 157.384 150.618 157.546 150.685C157.707 150.752 157.885 150.769 158.056 150.735C158.228 150.701 158.385 150.617 158.509 150.493C158.633 150.369 158.717 150.212 158.751 150.04C158.785 149.869 158.768 149.691 158.701 149.53C158.634 149.368 158.52 149.23 158.375 149.133C158.23 149.036 158.059 148.984 157.884 148.984C157.65 148.984 157.425 149.077 157.259 149.243C157.093 149.409 157 149.633 157 149.868Z" fill="#E0E0E0"/>
<path d="M176.6 155.668H139.188V164.44H176.6V155.668Z" fill="#F5F5F5"/>
<path d="M157 160.056C157.001 160.231 157.053 160.401 157.151 160.546C157.249 160.691 157.387 160.804 157.548 160.87C157.71 160.936 157.888 160.953 158.059 160.918C158.23 160.884 158.387 160.799 158.51 160.676C158.634 160.552 158.718 160.394 158.751 160.223C158.785 160.052 158.767 159.874 158.7 159.713C158.633 159.551 158.52 159.414 158.375 159.317C158.229 159.22 158.059 159.168 157.884 159.168C157.768 159.168 157.652 159.191 157.545 159.236C157.437 159.28 157.34 159.346 157.258 159.428C157.175 159.511 157.11 159.609 157.066 159.716C157.022 159.824 156.999 159.94 157 160.056Z" fill="#E0E0E0"/>
<path d="M176.6 165.856H139.188V174.624H176.6V165.856Z" fill="#F5F5F5"/>
<path d="M157 170.24C157 170.415 157.052 170.586 157.149 170.731C157.246 170.876 157.384 170.99 157.546 171.057C157.707 171.124 157.885 171.141 158.056 171.107C158.228 171.073 158.385 170.989 158.509 170.865C158.633 170.741 158.717 170.584 158.751 170.412C158.785 170.241 158.768 170.063 158.701 169.902C158.634 169.74 158.52 169.602 158.375 169.505C158.23 169.408 158.059 169.356 157.884 169.356C157.65 169.356 157.425 169.449 157.259 169.615C157.093 169.781 157 170.006 157 170.24Z" fill="#E0E0E0"/>
<path d="M106.548 134.888C108.644 136.596 111.536 139.732 114.188 144.136C115.956 147.072 117.02 150.136 117.484 154.212C117.484 149.612 117.46 144.668 117.444 140.004C116.912 138.804 115.696 136.04 114.824 133.852C111.912 126.56 110.824 124.768 108.212 118.476C104.72 110.076 101.14 100.132 102.168 100.928C104.252 102.552 112.256 117.532 113.12 119.676C115.472 125.393 116.927 131.439 117.436 137.6C117.436 133.2 117.404 129.2 117.388 126.092C117.332 115.968 117.16 112.704 117.076 111.692C116.752 111.18 116.372 110.584 116.148 110.26C114.268 107.544 113.544 105.228 111.772 101.176C109.264 95.432 107.104 85.236 107.736 85.752C110.364 87.892 112.44 92.496 115.168 98.364C117.896 104.232 117.112 107.6 117.656 112.612C117.768 113.596 117.856 117.304 117.916 122.448C118.624 116.968 119.952 113.36 122.372 110.076C125.348 106.044 128.228 103.316 130.34 101.896C132.452 100.476 126.692 110.384 123.94 114.696C121.488 118.548 119.228 121.948 117.94 125.296C118.008 132.264 118.04 141.088 118.04 149.296C118.672 145.556 119.704 141.532 121.08 138.416C122.736 134.668 125.28 128.924 127.308 126.976C127.792 126.508 125.188 137.68 123.516 140.652C121.844 143.624 120.616 146.424 119.564 148.108C119.32 148.508 118.504 150.016 118.04 150.884C118.04 160.912 117.984 169.764 117.896 172.776H117.464C117.492 171.976 117.496 166.896 117.488 160.144C116.444 156.48 114.06 152.296 112.092 148.48C109.948 144.352 104.452 133.176 106.548 134.888Z" fill="#E0E0E0"/>
<path d="M111.416 178.96H123.952L124.9 166.672H110.468L111.416 178.96Z" fill="#EBEBEB"/>
<path d="M109.536 168.1H125.832L126.3 163.956H109.068L109.536 168.1Z" fill="#EBEBEB"/>
<path d="M57.5963 62.1519H35.1763V86.7719H57.5963V62.1519Z" fill="#E0E0E0"/>
<path d="M60.0282 62.1521H36.8682V86.7721H60.0282V62.1521Z" fill="#F0F0F0"/>
<path d="M58.084 84.832V64.092H38.804V84.832H58.084Z" fill="#FAFAFA"/>
<path d="M53.4121 79.8041V69.1201H43.4801V79.8041H53.4121Z" fill="#F0F0F0"/>
<path d="M80.8879 76.832H64.2559V95.096H80.8879V76.832Z" fill="#E0E0E0"/>
<path d="M82.6922 76.832H65.5122V95.096H82.6922V76.832Z" fill="#F0F0F0"/>
<path d="M81.252 93.656V78.272H66.952V93.656H81.252Z" fill="#FAFAFA"/>
<path d="M74.1 82.0759L70.188 88.8479H78.012L74.1 82.0759Z" fill="#F0F0F0"/>
<path d="M44.5442 131.828H33.6162V176.836H44.5442V131.828Z" fill="#EBEBEB"/>
<path d="M111.64 176.836H35.7119V178.96H111.64V176.836Z" fill="#EBEBEB"/>
<path d="M44.5397 176.836H113.74V131.828H44.5397V176.836Z" fill="#F5F5F5"/>
<path d="M48.8363 159.828H109.444V148.836H48.8363V159.828Z" fill="#EBEBEB"/>
<path d="M48.8363 172.828H109.444V161.836H48.8363V172.828Z" fill="#EBEBEB"/>
<path d="M94.8036 150.04H63.4796C63.2798 150.04 63.0881 149.961 62.9465 149.82C62.8048 149.679 62.7247 149.488 62.7236 149.288C62.7236 149.087 62.8033 148.895 62.9451 148.753C63.0868 148.612 63.2791 148.532 63.4796 148.532H94.8036C95.0034 148.533 95.1947 148.613 95.3356 148.755C95.4765 148.896 95.5556 149.088 95.5556 149.288C95.5556 149.487 95.4764 149.679 95.3354 149.82C95.1943 149.961 95.0031 150.04 94.8036 150.04Z" fill="#F5F5F5"/>
<path d="M48.8363 146.828H109.444V135.836H48.8363V146.828Z" fill="#EBEBEB"/>
<path d="M94.8036 137.044H63.4796C63.2791 137.044 63.0868 136.964 62.9451 136.823C62.8033 136.681 62.7236 136.489 62.7236 136.288C62.7247 136.088 62.8048 135.897 62.9465 135.756C63.0881 135.615 63.2798 135.536 63.4796 135.536H94.8036C95.0031 135.536 95.1943 135.615 95.3354 135.756C95.4764 135.897 95.5556 136.089 95.5556 136.288C95.5556 136.488 95.4765 136.68 95.3356 136.821C95.1947 136.963 95.0034 137.043 94.8036 137.044Z" fill="#F5F5F5"/>
<path d="M94.8036 163.04H63.4796C63.2791 163.04 63.0868 162.96 62.9451 162.819C62.8033 162.677 62.7236 162.484 62.7236 162.284C62.7247 162.084 62.8048 161.893 62.9465 161.752C63.0881 161.611 63.2798 161.532 63.4796 161.532H94.8036C95.0031 161.532 95.1943 161.611 95.3354 161.752C95.4764 161.893 95.5556 162.085 95.5556 162.284C95.5556 162.484 95.4765 162.675 95.3356 162.817C95.1947 162.959 95.0034 163.039 94.8036 163.04Z" fill="#F5F5F5"/>
<path d="M115.2 128.132H44.5439V131.828H115.2V128.132Z" fill="#EBEBEB"/>
<path d="M32.0879 131.832H44.5439V128.136H32.0879V131.832Z" fill="#E0E0E0"/>
<path d="M105 197.024C147.833 197.024 182.556 194.997 182.556 192.496C182.556 189.995 147.833 187.968 105 187.968C62.1673 187.968 27.4443 189.995 27.4443 192.496C27.4443 194.997 62.1673 197.024 105 197.024Z" fill="#F5F5F5"/>
<path d="M122.771 66.5797L122.372 66.5967L122.485 69.2623L122.884 69.2453L122.771 66.5797Z" fill="#FFC100"/>
<path opacity="0.3" d="M122.771 66.5797L122.372 66.5967L122.485 69.2623L122.884 69.2453L122.771 66.5797Z" fill="black"/>
<path d="M122.424 58.4628L122.024 58.4797L122.269 64.2625L122.669 64.2456L122.424 58.4628Z" fill="#FFC100"/>
<path opacity="0.3" d="M122.424 58.4628L122.024 58.4797L122.269 64.2625L122.669 64.2456L122.424 58.4628Z" fill="black"/>
<path d="M23.5322 59.1318L26.7762 135.784L30.9922 156.34L125 152.356L120.876 55.0078L23.5322 59.1318Z" fill="#787878"/>
<path opacity="0.3" d="M23.5322 59.1318L26.7762 135.784L30.9922 156.34L125 152.356L120.876 55.0078L23.5322 59.1318Z" fill="black"/>
<path d="M121.624 149.152L121.44 144.836L121.256 140.52L121.076 136.204L120.892 131.888L120.708 127.572L120.524 123.256L120.344 118.944L120.16 114.628L119.976 110.312L119.8 105.976L119.708 103.816L119.616 101.66L119.432 97.3438L119.248 93.0278L119.068 88.7118L118.88 84.3998L118.696 80.0838L118.512 75.7678L118.332 71.4518L118.148 67.1358L117.964 62.7998L117.8 58.4798C117.799 58.454 117.788 58.4295 117.769 58.4117C117.751 58.3938 117.726 58.3838 117.7 58.3838L113.384 58.5678L109.068 58.7478L104.748 58.9318L27.0001 62.2238C26.9736 62.2278 26.9488 62.2388 26.9281 62.2558C26.9119 62.2763 26.9035 62.3017 26.9041 62.3278L28.8241 107.668L30.4241 145.072L26.7881 135.788L31.0001 156.34L32.6321 153.024L35.1801 152.916L39.4961 152.732L43.8001 152.552L48.1161 152.368L52.4321 152.184L56.7441 152.004L61.0601 151.82L65.3721 151.636L69.6881 151.452L74.0041 151.272L78.3161 151.088L82.6321 150.904L87.0001 150.72L91.3161 150.54L95.6281 150.356L99.9441 150.172L104.256 149.992L108.568 149.812L112.88 149.628L117.192 149.444L121.504 149.264C121.531 149.261 121.555 149.248 121.572 149.228C121.587 149.221 121.599 149.21 121.608 149.197C121.617 149.183 121.623 149.168 121.624 149.152ZM30.4241 140.14L34.5401 139.968L34.7161 144.084L30.6001 144.26L30.4241 140.14ZM30.2401 135.824L34.3601 135.648L34.5321 139.768L30.4161 139.94L30.2401 135.824ZM30.0601 131.508L34.1761 131.332L34.3521 135.448L30.2321 135.624L30.0601 131.508ZM29.8561 127.2L33.9721 127.024L34.1481 131.144L30.0281 131.32L29.8561 127.2ZM29.6721 122.884L33.7921 122.708L33.9641 126.8L29.8481 126.976L29.6721 122.884ZM29.4881 118.564L33.6081 118.392L33.8001 122.496L29.6841 122.672L29.4881 118.564ZM29.3081 114.248L33.4241 114.072L33.6001 118.192L29.4801 118.364L29.3081 114.248ZM29.1241 109.928L33.2401 109.756L33.4001 113.86L29.2841 114.036L29.1241 109.928ZM29.0281 107.672L28.9401 105.6L33.0601 105.424L33.1441 107.484L33.2321 109.544L29.1161 109.716L29.0281 107.672ZM28.7561 101.272L32.8761 101.1L33.0521 105.216L28.9321 105.392L28.7561 101.272ZM28.5761 96.9558L32.6921 96.7998L32.8681 100.92L28.7481 101.092L28.5761 96.9558ZM28.3921 92.6358L32.5081 92.4638L32.6841 96.5798L28.5681 96.7558L28.3921 92.6358ZM28.2001 88.3278L32.3201 88.1518L32.4921 92.2718L28.3761 92.4438L28.2001 88.3278ZM28.0281 83.9998L32.1441 83.8278L32.3201 87.9438L28.2001 88.1198L28.0281 83.9998ZM27.8441 79.6838L31.9601 79.5078L32.1361 83.6278L28.0161 83.7998L27.8441 79.6838ZM27.6601 75.3678L31.8001 75.1998L31.9721 79.3158L27.8561 79.4918L27.6601 75.3678ZM27.4761 71.0478L31.5961 70.8718L31.7681 74.9918L27.6521 75.1678L27.4761 71.0478ZM27.2961 66.7318L31.4001 66.5638L31.5761 70.6798L27.4561 70.8558L27.2961 66.7318ZM27.1121 62.4118L31.2281 62.2398L31.4001 66.3638L27.2841 66.5398L27.1121 62.4118ZM117.76 62.6998L113.644 62.8718L113.468 58.7558L117.588 58.5798L117.76 62.6998ZM117.944 67.0158L113.824 67.1918L113.652 63.0718L117.768 62.8998L117.944 67.0158ZM118.128 71.3318L114.008 71.5078L113.836 67.3918L117.952 67.2158L118.128 71.3318ZM118.308 75.6518L114.192 75.8238L114.016 71.7078L118.136 71.5318L118.308 75.6518ZM118.492 79.9678L114.376 80.1438L114.2 76.0238L118.316 75.8518L118.492 79.9678ZM118.676 84.2878L114.556 84.4598L114.384 80.3438L118.5 80.1678L118.676 84.2878ZM118.86 88.6038L114.74 88.7798L114.564 84.6598L118.684 84.4878L118.86 88.6038ZM119.04 92.9238L114.924 93.0958L114.748 88.9798L118.868 88.8038L119.04 92.9238ZM119.224 97.2398L115.108 97.4158L114.932 93.2958L119.048 93.1238L119.224 97.2398ZM119.408 101.56L115.288 101.732L115.116 97.6158L119.232 97.4398L119.408 101.56ZM119.504 103.816L119.588 105.876L115.472 106.052L115.4 104L115.312 101.94L119.432 101.768L119.504 103.816ZM119.772 110.196L115.656 110.368L115.48 106.252L119.6 106.076L119.772 110.196ZM119.956 114.512L115.836 114.688L115.664 110.568L119.8 110.4L119.956 114.512ZM120.14 118.828L116.02 119.004L115.848 114.888L119.964 114.712L120.14 118.828ZM120.32 123.148L116.204 123.32L116.028 119.2L120.148 119.024L120.32 123.148ZM120.504 127.464L116.388 127.64L116.212 123.52L120.332 123.348L120.504 127.464ZM120.688 131.784L116.568 131.956L116.396 127.84L120.512 127.664L120.688 131.784ZM120.872 136.1L116.752 136.276L116.58 132.156L120.696 131.984L120.872 136.1ZM121.052 140.42L116.936 140.592L116.76 136.476L120.88 136.3L121.052 140.42ZM121.236 144.736L117.12 144.912L116.944 140.792L121.06 140.62L121.236 144.736ZM33.3441 107.476L33.2601 105.416L37.3761 105.24L37.4641 107.3L37.5521 109.36L33.4321 109.536L33.3441 107.476ZM115.184 104L115.272 106.06L111.156 106.232L111.068 104.176L110.98 102.116L115.096 101.94L115.184 104ZM37.6641 107.284L37.5761 105.224L41.6961 105.052L41.7801 107.108L41.8681 109.168L37.7521 109.344L37.6641 107.284ZM110.864 104.184L110.952 106.244L106.832 106.416L106.744 104.356L106.656 102.3L110.776 102.124L110.864 104.184ZM41.9801 107.108L41.8961 105.052L46.0121 104.876L46.1001 106.936L46.1881 108.992L42.0681 109.168L41.9801 107.108ZM106.548 104.376L106.636 106.432L102.52 106.608L102.432 104.548L102.344 102.488L106.46 102.316L106.548 104.376ZM46.3001 106.928L46.2121 104.868L50.3281 104.692L50.4161 106.752L50.5041 108.812L46.3881 108.984L46.3001 106.928ZM102.232 104.556L102.32 106.616L98.2001 106.8L98.1121 104.74L98.0281 102.68L102.144 102.508L102.232 104.556ZM50.6321 106.744L50.5441 104.684L54.6641 104.512L54.7521 106.568L54.8401 108.628L50.7201 108.804L50.6321 106.744ZM97.9281 104.744L98.0161 106.804L93.9001 106.976L93.8121 104.92L93.7241 102.86L97.8441 102.684L97.9281 104.744ZM54.9361 106.56L54.8481 104.5L58.9641 104.328L59.0521 106.388L59.1401 108.444L55.0241 108.62L54.9361 106.56ZM93.5961 104.924L93.6841 106.98L89.5641 107.156L89.4761 105.096L89.4001 103.04L93.5161 102.864L93.5961 104.924ZM59.2521 106.376L59.1641 104.32L63.2841 104.144L63.3721 106.204L63.4601 108.264L59.3401 108.436L59.2521 106.376ZM89.2761 105.104L89.3641 107.164L85.2481 107.34L85.1601 105.28L85.0721 103.22L89.1921 103.048L89.2761 105.104ZM63.5721 106.196L63.4841 104.136L67.6001 103.96L67.6881 106.02L67.7761 108.08L63.6601 108.252L63.5721 106.196ZM84.9601 105.288L85.0481 107.348L80.9281 107.524L80.8441 105.464L80.7561 103.404L84.8721 103.228L84.9601 105.288ZM72.2001 105.828L72.1121 103.772L76.2281 103.596L76.3161 105.656L76.4041 107.712L72.2841 107.888L72.2001 105.828ZM71.9281 99.4518L76.0481 99.2758L76.2201 103.396L72.1041 103.572L71.9281 99.4518ZM71.9121 103.6L67.7921 103.772L67.6201 99.6558L71.7361 99.4798L71.9121 103.6ZM80.6441 105.492L80.7281 107.552L76.6121 107.724L76.5241 105.668L76.4361 103.608L80.5561 103.432L80.6441 105.492ZM76.4281 103.408L76.2561 99.2878L80.3721 99.1158L80.5481 103.232L76.4281 103.408ZM76.4281 107.932L76.6041 112.052L72.4841 112.224L72.3121 108.108L76.4281 107.932ZM76.6281 107.932L80.7441 107.76L80.9201 111.876L76.8041 112.052L76.6281 107.932ZM80.9441 107.752L85.0641 107.576L85.2401 111.692L81.1201 111.868L80.9441 107.752ZM80.7561 103.232L80.5801 99.1158L84.6961 98.9398L84.8721 103.056L80.7561 103.232ZM80.5721 98.9158L80.3961 94.7958L84.5161 94.6238L84.6881 98.7398L80.5721 98.9158ZM80.3721 98.9158L76.2521 99.0878L76.0801 94.9718L80.1961 94.7958L80.3721 98.9158ZM76.0521 99.0958L71.9361 99.2718L71.7601 95.1558L75.8801 94.9798L76.0521 99.0958ZM71.7361 99.2798L67.6161 99.4558L67.4441 95.3358L71.5601 95.1638L71.7361 99.2798ZM67.4161 99.4638L63.3001 99.6398L63.1241 95.5198L67.2441 95.3438L67.4161 99.4638ZM67.4161 99.6638L67.5881 103.78L63.4721 103.956L63.2961 99.8398L67.4161 99.6638ZM67.8881 106L67.8001 103.94L71.9201 103.768L72.0081 105.824L72.0921 107.884L67.9761 108.06L67.8881 106ZM72.1041 108.084L72.2761 112.204L68.1601 112.4L67.9841 108.284L72.1041 108.084ZM72.2841 112.404L72.4601 116.52L68.3401 116.696L68.1681 112.576L72.2841 112.404ZM72.4841 112.404L76.6041 112.232L76.7761 116.348L72.6601 116.524L72.4841 112.404ZM76.8041 112.224L80.9201 112.048L81.0961 116.168L76.9761 116.34L76.8041 112.224ZM81.1201 112.04L85.2401 111.864L85.4001 116L81.2841 116.172L81.1201 112.04ZM85.4401 111.856L89.5561 111.684L89.7321 115.8L85.6121 115.976L85.4401 111.856ZM85.4401 111.656L85.2641 107.54L89.3801 107.364L89.5561 111.484L85.4401 111.656ZM85.0721 103.02L84.8961 98.9038L89.0161 98.7278L89.1921 102.848L85.0721 103.02ZM84.8881 98.7038L84.7161 94.5838L88.8321 94.4118L89.0081 98.5278L84.8881 98.7038ZM84.7081 94.3838L84.5321 90.2678L88.6481 90.0918L88.8241 94.2118L84.7081 94.3838ZM84.5081 94.3838L80.3881 94.5558L80.2001 90.4518L84.3161 90.2758L84.5081 94.3838ZM80.1881 94.5638L76.0721 94.7398L75.8961 90.6198L80.0161 90.4478L80.1881 94.5638ZM75.8721 94.7478L71.7521 94.9238L71.5801 90.8038L75.6961 90.6318L75.8721 94.7478ZM71.5521 94.9318L67.4361 95.1038L67.2601 90.9878L71.3801 90.8118L71.5521 94.9318ZM67.2361 95.1118L63.1161 95.2878L62.9361 91.1998L67.0521 91.0238L67.2361 95.1118ZM62.9161 95.2958L58.8001 95.4718L58.6241 91.3518L62.7441 91.1798L62.9161 95.2958ZM62.9161 95.4958L63.0921 99.6158L58.9761 99.7878L58.8001 95.6718L62.9161 95.4958ZM63.1001 99.8158L63.2761 103.932L59.1561 104.108L59.0001 99.9998L63.1001 99.8158ZM63.4681 108.452L63.6401 112.568L59.5241 112.744L59.3481 108.624L63.4681 108.452ZM63.6681 108.452L67.8001 108.28L67.9601 112.4L63.8401 112.576L63.6681 108.452ZM67.9681 112.596L68.1401 116.716L64.0241 116.888L63.8481 112.772L67.9681 112.596ZM68.1521 116.916L68.3241 121.032L64.2001 121.2L64.0241 117.08L68.1521 116.916ZM68.3521 116.916L72.4681 116.74L72.6441 120.856L68.5241 121.032L68.3521 116.916ZM72.6681 116.732L76.7841 116.556L76.9601 120.676L72.8441 120.848L72.6681 116.732ZM76.9841 116.548L81.1041 116.376L81.2801 120.492L77.1601 120.668L76.9841 116.548ZM81.3041 116.364L85.4201 116.192L85.5961 120.308L81.4801 120.484L81.3041 116.364ZM85.6201 116.184L89.7401 116.008L89.9121 120.128L85.7961 120.3L85.6201 116.184ZM89.9401 116L94.0561 115.824L94.2321 119.944L90.1121 120.116L89.9401 116ZM89.9401 115.8L89.7641 111.684L93.8841 111.508L94.0561 115.624L89.9401 115.8ZM89.7561 111.484L89.5801 107.364L93.7001 107.188L93.8721 111.308L89.7561 111.484ZM89.4001 102.84L89.2241 98.7198L93.3401 98.5478L93.5161 102.664L89.4001 102.84ZM89.2161 98.5198L89.0241 94.3998L93.1441 94.2238L93.3161 98.3438L89.2161 98.5198ZM89.0001 94.2038L88.8241 90.0838L92.9441 89.9118L93.1201 94.0278L89.0001 94.2038ZM88.8161 89.8838L88.6441 85.7678L92.7601 85.5918L92.9361 89.7118L88.8161 89.8838ZM88.6161 89.8838L84.5001 90.0598L84.3241 85.9398L88.4441 85.7678L88.6161 89.8838ZM84.3001 90.0678L80.1801 90.2438L80.0081 86.1238L84.1241 85.9518L84.3001 90.0678ZM79.9801 90.2518L75.8641 90.4238L75.6881 86.3078L79.8081 86.1318L79.9801 90.2518ZM75.6641 90.4358L71.5441 90.6078L71.4001 86.4998L75.5161 86.3238L75.6641 90.4358ZM71.3441 90.6158L67.2281 90.7918L67.0521 86.6718L71.1721 86.4998L71.3441 90.6158ZM67.0281 90.7998L62.9121 90.9758L62.7361 86.8558L66.8521 86.6838L67.0281 90.7998ZM62.7121 90.9838L58.5921 91.1558L58.4201 87.0398L62.5361 86.8638L62.7121 90.9838ZM58.3921 91.1638L54.2761 91.3398L54.1001 87.2238L58.2201 87.0478L58.3921 91.1638ZM58.3921 91.3638L58.5681 95.4838L54.4481 95.6558L54.2761 91.5398L58.3921 91.3638ZM58.5761 95.6838L58.7521 99.7998L54.6321 99.9758L54.4601 95.8558L58.5761 95.6838ZM58.7601 99.9998L58.9321 104.12L54.8161 104.292L54.6401 100.176L58.7601 99.9998ZM59.1241 108.636L59.3001 112.756L55.1801 112.928L55.0081 108.812L59.1241 108.636ZM59.3081 112.956L59.4841 117.072L55.3641 117.248L55.1881 113.128L59.3081 112.956ZM59.5081 112.956L63.6241 112.78L63.8001 116.896L59.6841 117.072L59.5081 112.956ZM63.8081 117.096L63.9841 121.216L59.8641 121.392L59.6921 117.272L63.8081 117.096ZM63.9921 121.416L64.1641 125.532L60.0481 125.708L59.8961 121.6L63.9921 121.416ZM64.1921 121.416L68.3081 121.24L68.4841 125.36L64.3641 125.532L64.1921 121.416ZM68.5081 121.232L72.6281 121.056L72.8001 125.176L68.6841 125.352L68.5081 121.232ZM72.8281 121.048L76.9441 120.876L77.1201 124.992L73.0001 125.168L72.8281 121.048ZM77.1441 120.868L81.2641 120.692L81.4361 124.808L77.3201 124.984L77.1441 120.868ZM81.4641 120.684L85.5801 120.508L85.7561 124.628L81.6361 124.8L81.4641 120.684ZM85.7801 120.5L89.9001 120.328L90.0721 124.444L85.9561 124.62L85.7801 120.5ZM90.1001 120.316L94.2161 120.144L94.3921 124.26L90.2721 124.436L90.1001 120.316ZM94.4161 120.136L98.5361 119.96L98.7081 124.08L94.5921 124.252L94.4161 120.136ZM94.4161 119.936L94.2401 115.816L98.3601 115.644L98.5321 119.76L94.4161 119.936ZM94.2321 115.616L94.0601 111.5L98.1761 111.324L98.3521 115.444L94.2321 115.616ZM94.0481 111.3L93.8761 107.18L97.9921 107.008L98.1681 111.124L94.0481 111.3ZM93.6841 102.664L93.5081 98.5438L97.6281 98.3718L97.8001 102.48L93.6841 102.664ZM93.5001 98.3438L93.3281 94.2278L97.4441 94.0518L97.6201 98.1718L93.5001 98.3438ZM93.3201 94.0278L93.1441 89.9078L97.2601 89.7358L97.4361 93.8518L93.3201 94.0278ZM93.1361 89.7078L92.9761 85.5998L97.0961 85.4238L97.2681 89.5438L93.1361 89.7078ZM92.9521 85.3918L92.7761 81.2758L96.8961 81.0998L97.0721 85.2158L92.9521 85.3918ZM92.7521 85.3918L88.6361 85.5678L88.4601 81.4478L92.5761 81.2758L92.7521 85.3918ZM88.4361 85.5758L84.3161 85.7478L84.1441 81.6318L88.2601 81.4558L88.4361 85.5758ZM84.1161 85.7598L80.0001 85.9318L79.8241 81.8158L83.9441 81.6398L84.1161 85.7598ZM79.8001 85.9398L75.6801 86.1158L75.5081 81.9958L79.6241 81.8238L79.8001 85.9398ZM75.4801 86.1238L71.3641 86.2998L71.1881 82.1798L75.3081 82.0078L75.4801 86.1238ZM71.1641 86.3078L67.0441 86.4798L66.8721 82.3638L70.9881 82.1878L71.1641 86.3078ZM66.8441 86.4918L62.7281 86.6638L62.5521 82.5478L66.6721 82.3718L66.8441 86.4918ZM62.5281 86.6718L58.4081 86.8478L58.2361 82.7278L62.3521 82.5558L62.5281 86.6718ZM58.2081 86.8558L54.0921 87.0318L53.9161 82.9118L58.0361 82.7398L58.2081 86.8558ZM53.8921 87.0398L49.8001 87.1998L49.6281 83.0838L53.7441 82.9078L53.8921 87.0398ZM53.8921 87.2398L54.0681 91.3558L49.9481 91.5318L49.7761 87.4118L53.8921 87.2398ZM54.0761 91.5558L54.2481 95.6758L50.1321 95.8478L49.9561 91.7318L54.0761 91.5558ZM54.2561 95.8758L54.4321 99.9918L50.3161 100.168L50.1401 96.0478L54.2561 95.8758ZM54.4401 100.192L54.6161 104.312L50.4961 104.484L50.3241 100.368L54.4401 100.192ZM54.8081 108.828L54.9801 112.944L50.8641 113.12L50.6881 109.004L54.8081 108.828ZM54.9881 113.144L55.1641 117.264L51.0481 117.44L50.8721 113.32L54.9881 113.144ZM55.1721 117.464L55.3481 121.58L51.2281 121.756L51.0561 117.64L55.1721 117.464ZM55.3721 117.464L59.4921 117.288L59.6641 121.408L55.5481 121.58L55.3721 117.464ZM59.6961 121.6L59.8721 125.716L55.7521 125.892L55.5801 121.772L59.6961 121.6ZM59.8801 125.916L60.0561 130.036L55.9361 130.208L55.7641 126.092L59.8801 125.916ZM60.0801 125.916L64.2001 125.74L64.3721 129.86L60.2561 130.032L60.0801 125.916ZM64.4001 125.732L68.5161 125.56L68.6921 129.676L64.5721 129.852L64.4001 125.732ZM68.7161 125.552L72.8321 125.376L73.0081 129.492L68.8921 129.668L68.7161 125.552ZM73.0321 125.368L77.1521 125.192L77.3281 129.312L73.2081 129.484L73.0321 125.368ZM77.3521 125.184L81.4681 125.008L81.6441 129.128L77.5281 129.304L77.3521 125.184ZM81.6681 125L85.7881 124.828L85.9601 128.944L81.8441 129.12L81.6681 125ZM85.9881 124.82L90.1041 124.644L90.2801 128.76L86.1601 128.936L85.9881 124.82ZM90.3041 124.636L94.4241 124.46L94.5961 128.58L90.4801 128.752L90.3041 124.636ZM94.6241 124.452L98.7401 124.28L98.9161 128.396L94.7961 128.572L94.6241 124.452ZM98.9401 124.268L103.06 124.096L103.232 128.212L99.1161 128.388L98.9401 124.268ZM98.9401 124.068L98.7681 119.952L102.884 119.776L103.06 123.896L98.9401 124.068ZM98.7561 119.752L98.5841 115.632L102.7 115.46L102.876 119.576L98.7561 119.752ZM98.5761 115.432L98.4001 111.316L102.516 111.14L102.692 115.26L98.5761 115.432ZM98.3921 111.116L98.2001 106.992L102.32 106.816L102.492 110.932L98.3921 111.116ZM98.0241 102.48L97.8521 98.3638L101.968 98.1878L102.144 102.308L98.0241 102.48ZM97.8441 98.1638L97.6681 94.0438L101.788 93.8718L101.96 97.9878L97.8441 98.1638ZM97.6601 93.8438L97.4841 89.7278L101.604 89.5518L101.776 93.6718L97.6601 93.8438ZM97.4761 89.5278L97.3041 85.4078L101.42 85.2358L101.596 89.3518L97.4761 89.5278ZM97.2961 85.2078L97.1201 81.0918L101.236 80.9158L101.412 85.0358L97.2961 85.2078ZM97.1121 80.8918L96.9361 76.7718L101.056 76.5998L101.228 80.7158L97.1121 80.8918ZM96.9121 80.8918L92.7921 81.0678L92.6201 76.9478L96.7361 76.7758L96.9121 80.8918ZM92.5921 81.0758L88.4761 81.2478L88.3001 77.1318L92.4201 76.9558L92.5921 81.0758ZM88.2761 81.2558L84.1561 81.4318L83.9841 77.3158L88.1001 77.1398L88.2761 81.2558ZM83.9561 81.4398L79.8401 81.6158L79.6641 77.4958L83.7841 77.3238L83.9561 81.4398ZM79.6401 81.6238L75.5201 81.7958L75.3481 77.6798L79.4641 77.5038L79.6401 81.6238ZM75.3201 81.8078L71.2041 81.9798L71.0281 77.8638L75.1481 77.6878L75.3201 81.8078ZM71.0001 81.9998L66.8841 82.1758L66.7081 78.0558L70.8241 77.8838L71.0001 81.9998ZM66.6841 82.1838L62.5641 82.3598L62.3921 78.2398L66.5081 78.0678L66.6841 82.1838ZM62.3641 82.3678L58.2481 82.5398L58.0681 78.3998L62.1881 78.2238L62.3641 82.3678ZM58.0481 82.5518L53.9281 82.7238L53.7561 78.6078L57.8721 78.4318L58.0481 82.5518ZM53.7281 82.7318L49.6121 82.9078L49.4361 78.7878L53.5561 78.6158L53.7281 82.7318ZM49.4121 82.9158L45.2921 83.0918L45.1201 78.9718L49.2361 78.7998L49.4121 82.9158ZM49.4121 83.1158L49.5841 87.2318L45.4681 87.4078L45.2921 83.2918L49.4121 83.1158ZM49.5961 87.4318L49.7681 91.5518L45.6521 91.7238L45.4801 87.5998L49.5961 87.4318ZM49.7761 91.7518L49.9521 95.8678L45.8321 96.0438L45.6601 91.9238L49.7761 91.7518ZM49.9601 96.0678L50.1361 100.188L46.0161 100.36L45.8441 96.2438L49.9601 96.0678ZM50.1441 100.388L50.3161 104.504L46.2001 104.68L46.0241 100.56L50.1441 100.388ZM50.5081 109.024L50.6841 113.14L46.5641 113.316L46.3921 109.196L50.5081 109.024ZM50.6921 113.34L50.8681 117.46L46.7481 117.632L46.5721 113.516L50.6921 113.34ZM50.8761 117.66L51.0481 121.776L46.9321 121.952L46.7561 117.832L50.8761 117.66ZM51.0561 121.976L51.2321 126.096L47.1161 126.268L46.9401 122.152L51.0561 121.976ZM51.2561 121.976L55.3761 121.8L55.5481 125.92L51.4321 126.092L51.2561 121.976ZM55.5601 126.12L55.7321 130.236L51.6161 130.412L51.4401 126.292L55.5601 126.12ZM55.7401 130.436L55.9161 134.556L51.7961 134.728L51.6241 130.612L55.7401 130.436ZM55.9401 130.436L60.0601 130.264L60.2321 134.38L56.1161 134.556L55.9401 130.436ZM60.2601 130.252L64.3761 130.08L64.5521 134.196L60.4321 134.372L60.2601 130.252ZM64.5761 130.072L68.6961 129.896L68.8681 134.016L64.7521 134.188L64.5761 130.072ZM68.8961 129.888L73.0121 129.712L73.1881 133.832L69.0681 134.004L68.8961 129.888ZM73.2121 129.704L77.3321 129.532L77.5041 133.648L73.3881 133.824L73.2121 129.704ZM77.5321 129.524L81.6481 129.348L81.8241 133.464L77.7041 133.64L77.5321 129.524ZM81.8481 129.34L85.9681 129.164L86.1401 133.284L82.0241 133.456L81.8481 129.34ZM86.1681 129.156L90.2841 128.98L90.4601 133.1L86.3401 133.276L86.1681 129.156ZM90.4841 128.972L94.6041 128.8L94.7761 132.916L90.6601 133.092L90.4841 128.972ZM94.8041 128.792L98.9201 128.616L99.0961 132.732L94.9761 132.908L94.8041 128.792ZM99.1201 128.608L103.24 128.4L103.416 132.52L99.3001 132.692L99.1201 128.608ZM103.44 128.4L107.56 128.228L107.732 132.344L103.616 132.52L103.44 128.4ZM103.44 128.2L103.268 124.084L107.384 123.908L107.56 128.028L103.44 128.2ZM103.26 123.884L103.084 119.764L107.2 119.592L107.376 123.708L103.26 123.884ZM103.076 119.564L102.9 115.448L107.02 115.272L107.192 119.392L103.076 119.564ZM102.892 115.248L102.716 111.128L106.836 110.956L107.012 115.072L102.892 115.248ZM102.708 110.928L102.528 106.8L106.644 106.624L106.82 110.744L102.708 110.928ZM102.344 102.292L102.168 98.1758L106.288 97.9998L106.46 102.12L102.344 102.292ZM102.16 97.9758L101.988 93.8558L106.104 93.6838L106.28 97.7998L102.16 97.9758ZM101.976 93.6558L101.8 89.5358L105.916 89.3598L106.092 93.4798L101.976 93.6558ZM101.8 89.3358L101.624 85.2198L105.744 85.0438L105.916 89.1598L101.8 89.3358ZM101.616 85.0198L101.44 80.8998L105.56 80.7278L105.732 84.8438L101.616 85.0198ZM101.432 80.6998L101.26 76.5838L105.376 76.4078L105.552 80.5278L101.432 80.6998ZM101.24 76.3998L101.064 72.2798L105.18 72.1078L105.356 76.2238L101.24 76.3998ZM101.04 76.3998L96.9201 76.5718L96.7441 72.4558L100.864 72.2798L101.04 76.3998ZM96.7201 76.5838L92.6041 76.7558L92.4281 72.6398L96.5441 72.4638L96.7201 76.5838ZM92.4041 76.7638L88.2841 76.9398L88.1121 72.8198L92.2281 72.6478L92.4041 76.7638ZM88.0841 76.9478L83.9681 77.1238L83.7921 73.0038L87.9121 72.8318L88.0841 76.9478ZM83.7681 77.1318L79.6481 77.3038L79.4761 73.1998L83.5921 73.0238L83.7681 77.1318ZM79.4481 77.3118L75.3321 77.4878L75.1561 73.3718L79.2761 73.1958L79.4481 77.3118ZM75.1321 77.4958L71.0121 77.6718L70.8401 73.5518L74.9561 73.3798L75.1321 77.4958ZM70.8121 77.6798L66.6961 77.8518L66.5201 73.7358L70.6401 73.5598L70.8121 77.6798ZM66.4961 77.8638L62.3761 78.0358L62.2001 73.9118L66.3161 73.7358L66.4961 77.8638ZM62.1761 78.0438L58.0601 78.2198L57.8841 74.0998L62.0041 73.9278L62.1761 78.0438ZM57.8601 78.2278L53.7401 78.4038L53.5681 74.2838L57.6841 74.1118L57.8601 78.2278ZM53.5401 78.4118L49.4241 78.5838L49.2481 74.4678L53.3681 74.2918L53.5401 78.4118ZM49.2241 78.5958L45.1081 78.7678L44.9321 74.6518L49.0481 74.4758L49.2241 78.5958ZM44.9081 78.7758L40.7881 78.9518L40.6001 74.8238L44.7201 74.6518L44.9081 78.7758ZM44.9081 78.9758L45.0801 83.0958L40.9641 83.2678L40.7881 79.1518L44.9081 78.9758ZM45.0881 83.2958L45.2641 87.4118L41.1561 87.5998L41.0001 83.4598L45.0881 83.2958ZM45.2801 87.5998L45.4561 91.7198L41.3361 91.8918L41.1641 87.7758L45.2801 87.5998ZM45.4641 91.9198L45.6361 96.0358L41.5201 96.2118L41.3441 92.0918L45.4641 91.9198ZM45.6481 96.2358L45.8201 100.356L41.7041 100.528L41.5281 96.3998L45.6481 96.2358ZM45.8281 100.556L46.0041 104.672L41.8841 104.848L41.7121 100.728L45.8281 100.556ZM46.2001 109.2L46.3721 113.32L42.2561 113.496L42.0801 109.376L46.2001 109.2ZM46.3801 113.52L46.5561 117.636L42.4401 117.812L42.2641 113.696L46.3801 113.52ZM46.5641 117.836L46.7401 121.956L42.6001 122.12L42.4441 118L46.5641 117.836ZM46.7481 122.156L46.9241 126.272L42.8041 126.448L42.6281 122.328L46.7481 122.156ZM46.9321 126.472L47.1041 130.592L43.0001 130.756L42.8241 126.64L46.9321 126.472ZM47.1321 126.472L51.2481 126.3L51.4241 130.416L47.3041 130.592L47.1321 126.472ZM51.4321 130.616L51.6041 134.732L47.4881 134.908L47.3121 130.792L51.4321 130.616ZM51.6161 134.932L51.7881 139.052L47.6721 139.228L47.4961 135.108L51.6161 134.932ZM51.8161 134.932L55.9321 134.76L56.1081 138.876L51.9881 139.052L51.8161 134.932ZM56.1321 134.752L60.2521 134.576L60.4241 138.692L56.3081 138.868L56.1321 134.752ZM60.4521 134.568L64.5681 134.392L64.7441 138.512L60.6241 138.684L60.4521 134.568ZM64.7681 134.384L68.8841 134.212L69.0601 138.328L64.9441 138.504L64.7681 134.384ZM69.0841 134.2L73.2041 134.028L73.3801 138.144L69.2601 138.32L69.0841 134.2ZM73.4001 134L77.5161 133.824L77.6921 137.944L73.5761 138.116L73.4001 134ZM77.7161 133.816L81.8361 133.64L82.0081 137.76L77.8921 137.932L77.7161 133.816ZM82.0361 133.632L86.1521 133.46L86.3281 137.576L82.2081 137.752L82.0361 133.632ZM86.3521 133.452L90.4721 133.276L90.6441 137.392L86.5281 137.568L86.3521 133.452ZM90.6721 133.268L94.7881 133.092L94.9641 137.212L90.8441 137.384L90.6721 133.268ZM95.0001 133.08L99.1201 132.904L99.2921 137.024L95.1761 137.2L95.0001 133.08ZM99.3201 132.896L103.436 132.724L103.612 136.84L99.4921 137.016L99.3201 132.896ZM103.636 132.716L107.756 132.54L107.928 136.656L103.812 136.832L103.636 132.716ZM107.956 132.532L112.072 132.356L112.248 136.476L108.128 136.648L107.956 132.532ZM107.956 132.332L107.784 128.212L111.9 128.04L112.076 132.156L107.956 132.332ZM107.776 128.012L107.6 123.896L111.72 123.72L111.892 127.84L107.776 128.012ZM107.592 123.696L107.416 119.576L111.536 119.404L111.708 123.52L107.592 123.696ZM107.408 119.376L107.236 115.26L111.352 115.084L111.528 119.204L107.408 119.376ZM107.228 115.06L107.052 110.944L111.168 110.768L111.344 114.884L107.228 115.06ZM107.044 110.744L106.868 106.624L110.988 106.452L111.16 110.568L107.044 110.744ZM106.676 102.108L106.48 97.9998L110.596 97.8278L110.772 101.944L106.676 102.108ZM106.496 97.7878L106.32 93.6718L110.436 93.4958L110.6 97.5998L106.496 97.7878ZM106.312 93.4718L106.136 89.3518L110.256 89.1798L110.428 93.2958L106.312 93.4718ZM106.128 89.1518L105.956 85.0358L110.072 84.8598L110.248 88.9798L106.128 89.1518ZM105.944 84.8358L105.772 80.7158L109.888 80.5438L110.064 84.6598L105.944 84.8358ZM105.764 80.5158L105.564 76.3998L109.684 76.2238L109.856 80.3438L105.764 80.5158ZM105.58 76.1998L105.4 72.0798L109.52 71.9078L109.692 76.0238L105.58 76.1998ZM105.396 71.8798L105.224 67.7638L109.34 67.5878L109.516 71.7078L105.396 71.8798ZM105.196 71.8798L101.08 72.0518L100.904 67.9358L105.024 67.7598L105.196 71.8798ZM100.88 72.0598L96.7601 72.2358L96.5881 68.1158L100.704 67.9438L100.88 72.0598ZM96.5601 72.2438L92.4441 72.4198L92.2681 68.2998L96.3881 68.1278L96.5601 72.2438ZM92.2441 72.4278L88.1241 72.5998L87.9521 68.4838L92.0681 68.3078L92.2441 72.4278ZM87.9241 72.6118L83.8001 72.7998L83.6241 68.6838L87.7441 68.5078L87.9241 72.6118ZM83.6081 72.7918L79.4881 72.9678L79.3161 68.8478L83.4321 68.6758L83.6081 72.7918ZM79.2881 72.9758L75.1721 73.1518L74.9961 69.0318L79.1161 68.8598L79.2881 72.9758ZM74.9721 73.1598L70.8561 73.3318L70.6801 69.2158L74.7961 69.0398L74.9721 73.1598ZM70.6561 73.3398L66.5361 73.5158L66.3641 69.3998L70.4801 69.2238L70.6561 73.3398ZM66.3361 73.5238L62.2201 73.6998L62.0441 69.5798L66.1641 69.4078L66.3361 73.5238ZM62.0201 73.7078L57.9001 73.8798L57.7281 69.7638L61.8441 69.5878L62.0201 73.7078ZM57.7001 73.8918L53.5841 74.0638L53.4001 69.9598L57.5201 69.7838L57.7001 73.8918ZM53.3841 74.0718L49.2641 74.2478L49.0921 70.1278L53.2081 69.9558L53.3841 74.0718ZM49.0641 74.2558L44.9481 74.4318L44.7721 70.3118L48.8921 70.1398L49.0641 74.2558ZM44.7481 74.4398L40.6281 74.6118L40.4561 70.4958L44.5721 70.3198L44.7481 74.4398ZM40.4281 74.6238L36.2881 74.7998L36.1121 70.6838L40.2321 70.5078L40.4281 74.6238ZM40.4281 74.8238L40.6001 78.9518L36.4841 79.1278L36.3081 75.0078L40.4281 74.8238ZM40.6001 79.1518L40.7761 83.2678L36.6561 83.4438L36.4841 79.3278L40.6001 79.1518ZM40.7841 83.4678L40.9601 87.5878L36.8401 87.7598L36.6641 83.6438L40.7841 83.4678ZM40.9681 87.7878L41.1401 91.9038L37.0241 92.0798L36.8481 87.9598L40.9681 87.7878ZM41.1481 92.1038L41.3241 96.2238L37.2041 96.3998L37.0281 92.2838L41.1481 92.1038ZM41.3321 96.4238L41.5081 100.54L37.3881 100.716L37.2161 96.5958L41.3321 96.4238ZM41.5161 100.74L41.6881 104.86L37.5721 105.032L37.4001 100.916L41.5161 100.74ZM41.8801 109.376L42.0561 113.496L37.9361 113.668L37.7641 109.552L41.8801 109.376ZM42.0641 113.696L42.2401 117.812L38.1201 117.988L37.9481 113.868L42.0641 113.696ZM42.2441 118L42.4161 122.12L38.3001 122.292L38.1241 118.176L42.2441 118ZM42.4241 122.32L42.6001 126.448L38.4841 126.624L38.3081 122.504L42.4241 122.32ZM42.6001 126.648L42.7761 130.764L38.6561 130.94L38.4841 126.824L42.6001 126.648ZM42.7841 130.964L42.9601 135.084L38.8401 135.26L38.6681 131.14L42.7841 130.964ZM42.9841 130.964L47.1001 130.792L47.2761 134.908L43.1601 135.084L42.9841 130.964ZM47.2841 135.108L47.4601 139.228L43.3401 139.4L43.1681 135.284L47.2841 135.108ZM47.4681 139.428L47.6401 143.544L43.5241 143.72L43.3561 139.6L47.4681 139.428ZM47.6681 139.428L51.7841 139.252L51.9601 143.368L47.8401 143.544L47.6681 139.428ZM51.9841 139.244L56.1041 139.068L56.2761 143.188L52.1601 143.36L51.9841 139.244ZM56.3041 139.06L60.4201 138.884L60.5961 143.004L56.4761 143.18L56.3041 139.06ZM60.6201 138.876L64.7401 138.704L64.9201 142.8L60.8041 142.976L60.6201 138.876ZM64.9401 138.696L69.0561 138.52L69.2321 142.636L65.1121 142.812L64.9401 138.696ZM69.2561 138.512L73.3761 138.336L73.5481 142.456L69.4321 142.628L69.2561 138.512ZM73.5761 138.328L77.6921 138.156L77.8681 142.272L73.7481 142.448L73.5761 138.328ZM77.8921 138.144L82.0121 137.972L82.1841 142.088L78.0681 142.264L77.8921 138.144ZM82.2121 137.964L86.3281 137.788L86.5041 141.908L82.3841 142.08L82.2121 137.964ZM86.5281 137.78L90.6441 137.604L90.8201 141.724L86.7041 141.896L86.5281 137.78ZM90.8441 137.596L94.9641 137.424L95.1401 141.54L91.0201 141.716L90.8441 137.596ZM95.1641 137.416L99.2801 137.24L99.4561 141.356L95.3401 141.532L95.1641 137.416ZM99.4801 137.232L103.6 137.056L103.772 141.176L99.6561 141.348L99.4801 137.232ZM103.8 137.048L107.916 136.872L108.092 140.992L103.972 141.168L103.8 137.048ZM108.116 136.864L112.236 136.692L112.408 140.808L108.292 140.984L108.116 136.864ZM112.436 136.684L116.552 136.508L116.728 140.624L112.6 140.8L112.436 136.684ZM112.436 136.484L112.26 132.364L116.38 132.192L116.552 136.308L112.436 136.484ZM112.252 132.164L112.076 128.048L116.196 127.872L116.368 131.992L112.252 132.164ZM112.068 127.848L111.896 123.728L116.012 123.556L116.188 127.672L112.068 127.848ZM111.884 123.528L111.712 119.412L115.828 119.236L116.004 123.356L111.884 123.528ZM111.704 119.2L111.528 115.08L115.648 114.908L115.82 119.024L111.704 119.2ZM111.52 114.88L111.344 110.764L115.464 110.588L115.636 114.708L111.52 114.88ZM111.336 110.564L111.164 106.444L115.28 106.272L115.456 110.388L111.336 110.564ZM110.972 101.928L110.796 97.8118L114.916 97.6358L115.088 101.752L110.972 101.928ZM110.788 97.6078L110.6 93.4878L114.72 93.3118L114.896 97.4318L110.788 97.6078ZM110.6 93.2878L110.428 89.1718L114.544 88.9958L114.72 93.1118L110.6 93.2878ZM110.42 88.9718L110.244 84.8518L114.36 84.6798L114.536 88.7958L110.42 88.9718ZM110.236 84.6518L110.06 80.5358L114.18 80.3598L114.352 84.4798L110.236 84.6518ZM110.052 80.3358L109.88 76.2158L113.996 76.0438L114.172 80.1598L110.052 80.3358ZM109.868 76.0158L109.696 71.8998L113.812 71.7238L113.988 75.8438L109.868 76.0158ZM109.688 71.6998L109.512 67.5798L113.632 67.4078L113.804 71.5238L109.688 71.6998ZM109.504 67.3798L109.328 63.2638L113.448 63.0878L113.62 67.2078L109.504 67.3798ZM109.304 67.3798L105.188 67.5558L105 63.4478L109.116 63.2718L109.304 67.3798ZM104.988 67.5638L100.868 67.7398L100.692 63.6198L104.812 63.4478L104.988 67.5638ZM100.668 67.7478L96.5521 67.9198L96.3761 63.8038L100.492 63.6278L100.668 67.7478ZM96.3521 67.9318L92.2321 68.1038L92.0641 63.9998L96.2001 63.8198L96.3521 67.9318ZM92.0321 68.1118L87.9161 68.2878L87.7401 64.1678L91.8601 63.9958L92.0321 68.1118ZM87.7161 68.2958L83.5961 68.4718L83.4241 64.3518L87.5401 64.1798L87.7161 68.2958ZM83.3961 68.4798L79.2801 68.6518L79.1041 64.5358L83.2241 64.3598L83.3961 68.4798ZM79.0801 68.6638L74.9601 68.8358L74.7881 64.7198L78.9041 64.5438L79.0801 68.6638ZM74.7601 68.8438L70.6441 69.0198L70.4681 64.8998L74.5881 64.7278L74.7601 68.8438ZM70.4441 69.0278L66.3241 69.2038L66.1521 65.0838L70.2681 64.9118L70.4441 69.0278ZM66.1241 69.2118L62.0081 69.3838L61.8321 65.2678L65.9521 65.0918L66.1241 69.2118ZM61.8001 69.3998L57.6801 69.5758L57.5081 65.4598L61.6241 65.2838L61.8001 69.3998ZM57.4801 69.5838L53.3641 69.7598L53.1881 65.6398L57.3081 65.4678L57.4801 69.5838ZM53.1641 69.7678L49.0481 69.9398L48.8721 65.8238L53.0001 65.6478L53.1641 69.7678ZM48.8481 69.9518L44.7281 70.1238L44.5641 65.9998L48.6841 65.8238L48.8481 69.9518ZM44.5281 70.1318L40.4121 70.3078L40.2361 66.1878L44.3641 65.9998L44.5281 70.1318ZM40.2121 70.3158L36.0921 70.4918L35.9201 66.3718L40.0361 66.1998L40.2121 70.3158ZM35.8921 70.4998L31.8001 70.6718L31.6241 66.5558L35.7441 66.3798L35.8921 70.4998ZM35.8921 70.6998L36.0881 74.7998L31.9681 74.9758L31.8001 70.8718L35.8921 70.6998ZM36.0761 75.0158L36.2521 79.1358L32.1321 79.3078L31.9801 75.1998L36.0761 75.0158ZM36.2601 79.3358L36.4321 83.4518L32.3161 83.6278L32.1401 79.5078L36.2601 79.3358ZM36.4401 83.6518L36.6161 87.7718L32.5001 87.9438L32.3241 83.8278L36.4401 83.6518ZM36.6241 87.9718L36.8001 92.0878L32.6801 92.2638L32.5081 88.1438L36.6241 87.9718ZM36.8081 92.2878L37.0001 96.3998L32.8801 96.5718L32.7041 92.4558L36.8081 92.2878ZM36.9921 96.6078L37.1641 100.724L33.0481 100.9L32.8921 96.7998L36.9921 96.6078ZM37.1721 100.924L37.3481 105.04L33.2521 105.2L33.0761 101.084L37.1721 100.924ZM37.5401 109.56L37.7121 113.676L33.5961 113.852L33.4201 109.736L37.5401 109.56ZM37.7241 113.876L37.8961 117.996L33.8001 118.168L33.6241 114.052L37.7241 113.876ZM37.9041 118.196L38.0801 122.312L33.9601 122.488L33.8001 118.368L37.9041 118.196ZM38.0881 122.512L38.2641 126.632L34.1441 126.804L33.9721 122.688L38.0881 122.512ZM38.2721 126.832L38.4441 130.948L34.3281 131.124L34.1521 127.004L38.2721 126.832ZM38.4521 131.148L38.6281 135.268L34.5121 135.44L34.3361 131.324L38.4521 131.148ZM38.6361 135.468L38.8321 139.6L34.7121 139.776L34.5401 135.656L38.6361 135.468ZM38.8361 135.468L42.9561 135.292L43.1281 139.408L39.0121 139.584L38.8361 135.468ZM43.1561 139.6L43.3321 143.72L39.2161 143.892L39.0401 139.776L43.1561 139.6ZM43.3401 143.92L43.5161 148.036L39.3961 148.212L39.2241 144.092L43.3401 143.92ZM43.5401 143.92L47.6601 143.744L47.8321 147.864L43.7161 148.036L43.5401 143.92ZM47.8601 143.736L51.9761 143.56L52.1521 147.68L48.0321 147.852L47.8601 143.736ZM52.1761 143.552L56.2961 143.38L56.4681 147.496L52.3521 147.672L52.1761 143.552ZM56.4961 143.372L60.6001 143.2L60.7761 147.316L56.6561 147.492L56.4961 143.372ZM60.8121 143.188L64.9281 143.012L65.1041 147.132L60.9881 147.304L60.8121 143.188ZM65.1281 143.004L69.2481 142.828L69.4241 146.948L65.3041 147.124L65.1281 143.004ZM69.4481 142.82L73.5641 142.648L73.7401 146.764L69.6241 146.94L69.4481 142.82ZM73.7641 142.64L77.8841 142.464L78.0561 146.58L73.9401 146.756L73.7641 142.64ZM78.0841 142.456L82.2001 142.28L82.3761 146.4L78.2561 146.572L78.0841 142.456ZM82.4001 142.272L86.5201 142.1L86.6921 146.216L82.5761 146.392L82.4001 142.272ZM86.7201 142.088L90.8361 141.916L91.0121 146.032L86.8921 146.208L86.7201 142.088ZM91.0361 141.908L95.1561 141.732L95.3281 145.852L91.2121 146.024L91.0361 141.908ZM95.3561 141.724L99.4721 141.548L99.6481 145.668L95.5281 145.84L95.3561 141.724ZM99.6721 141.54L103.792 141.368L103.964 145.484L99.8481 145.66L99.6721 141.54ZM103.992 141.36L108.108 141.184L108.284 145.3L104.164 145.476L103.992 141.36ZM108.308 141.176L112.428 141L112.6 145.12L108.484 145.292L108.308 141.176ZM112.628 140.992L116.744 140.816L116.92 144.936L112.8 145.108L112.628 140.992ZM113.428 62.8958L109.308 63.0718L109.136 58.9518L113.252 58.7798L113.428 62.8958ZM109.108 63.0798L105 63.2478L104.824 59.1278L108.944 58.9558L109.108 63.0798ZM104.792 63.2638L100.672 63.4358L100.5 59.3198L104.616 59.1438L104.792 63.2638ZM100.472 63.4438L96.3721 63.5998L96.2001 59.4958L100.32 59.3198L100.472 63.4438ZM96.1561 63.6278L92.0361 63.8038L91.8641 59.6838L95.9801 59.5118L96.1561 63.6278ZM91.8361 63.8118L87.7201 63.9838L87.5441 59.8678L91.6641 59.6918L91.8361 63.8118ZM87.5361 63.9998L83.4201 64.1718L83.2441 60.0558L87.3601 59.8798L87.5361 63.9998ZM83.2201 64.1798L79.1001 64.3558L78.9241 60.2358L83.0441 60.0638L83.2201 64.1798ZM78.9001 64.3638L74.7841 64.5398L74.6001 60.3998L78.7161 60.2278L78.9001 64.3638ZM74.6001 64.5358L70.4801 64.7078L70.3081 60.5918L74.4081 60.3998L74.6001 64.5358ZM70.2801 64.7198L66.1641 64.8918L65.9881 60.7758L70.1081 60.5998L70.2801 64.7198ZM65.9641 64.8998L61.8441 65.0758L61.6721 60.9558L65.7721 60.7998L65.9641 64.8998ZM61.6441 65.0838L57.5281 65.2598L57.3521 61.1398L61.4721 60.9638L61.6441 65.0838ZM57.3281 65.2678L53.2081 65.4398L53.0361 61.3238L57.1521 61.1478L57.3281 65.2678ZM53.0081 65.4478L48.8921 65.6238L48.7161 61.5078L52.8361 61.3318L53.0081 65.4478ZM48.6921 65.6318L44.5721 65.8078L44.4001 61.6998L48.5161 61.5278L48.6921 65.6318ZM44.3721 65.8158L40.2401 65.9998L40.0641 61.8998L44.2001 61.6958L44.3721 65.8158ZM40.0401 65.9998L35.9201 66.1718L35.7481 62.0758L39.8641 61.8998L40.0401 65.9998ZM35.7201 66.1798L31.6041 66.3558L31.4321 62.2678V62.2358L35.5521 62.0638L35.7201 66.1798ZM34.7201 139.96L38.8401 139.784L39.0161 143.904L34.8961 144.076L34.7201 139.96ZM39.0241 144.104L39.1961 148.22L35.0801 148.4L34.9041 144.28L39.0241 144.104ZM39.2041 148.42L39.4001 152.536L35.2841 152.712L35.1081 148.596L39.2041 148.42ZM39.4041 148.42L43.5241 148.244L43.6961 152.364L39.5801 152.536L39.4041 148.42ZM43.7241 148.236L47.8401 148.064L48.0161 152.18L43.8961 152.356L43.7241 148.236ZM48.0401 148.052L52.1601 147.88L52.3321 151.996L48.2161 152.172L48.0401 148.052ZM52.3601 147.872L56.4761 147.696L56.6521 151.816L52.5321 151.988L52.3601 147.872ZM56.6761 147.688L60.7961 147.512L60.9681 151.632L56.8521 151.804L56.6761 147.688ZM60.9961 147.504L65.1121 147.332L65.2881 151.448L61.1681 151.624L60.9961 147.504ZM65.3121 147.324L69.4321 147.148L69.6041 151.264L65.4881 151.44L65.3121 147.324ZM69.6321 147.14L73.7481 146.964L73.9241 151.084L69.8041 151.256L69.6321 147.14ZM73.9481 146.956L78.0681 146.78L78.2401 150.9L74.1241 151.076L73.9481 146.956ZM78.2681 146.772L82.3841 146.6L82.5601 150.716L78.4401 150.892L78.2681 146.772ZM82.5841 146.592L86.7001 146.416L86.8761 150.532L82.7601 150.708L82.5841 146.592ZM86.9001 146.408L91.0201 146.232L91.1961 150.352L87.0761 150.524L86.9001 146.408ZM91.2201 146.224L95.3361 146.052L95.5121 150.168L91.3961 150.344L91.2201 146.224ZM95.5361 146.04L99.6561 145.868L99.8281 149.984L95.7121 150.16L95.5361 146.04ZM99.8561 145.86L103.972 145.684L104.148 149.804L100.028 149.976L99.8561 145.86ZM104.172 145.676L108.292 145.5L108.464 149.62L104.348 149.792L104.172 145.676ZM108.492 145.492L112.608 145.32L112.784 149.436L108.664 149.612L108.492 145.492ZM112.808 145.308L116.928 145.136L117.1 149.252L112.984 149.428L112.808 145.308ZM117.128 145.128L121.244 144.952L121.42 149.072L117.3 149.244L117.128 145.128ZM30.6001 144.46L34.7161 144.284L34.8801 148.4L31.7681 148.532L30.6361 145.644L30.6001 144.46ZM31.8561 148.732L34.9001 148.604L35.0761 152.72L32.7361 152.82L33.1361 152.02L31.8561 148.732Z" fill="#FFC100" fill-opacity="0.2"/>
<path d="M68.6003 80.4279C67.3603 80.4279 66.1283 80.4038 64.9123 80.3638C64.8971 80.3631 64.8822 80.3587 64.869 80.351C64.8558 80.3434 64.8446 80.3327 64.8363 80.3198C64.8296 80.3069 64.8262 80.2925 64.8262 80.2779C64.8262 80.2632 64.8296 80.2488 64.8363 80.2358C66.6354 74.0141 69.0221 67.9776 71.9643 62.2078C72.0112 62.12 72.0801 62.0458 72.1642 61.9925C72.2484 61.9393 72.3449 61.9087 72.4443 61.9038C72.5436 61.8995 72.6422 61.9217 72.7301 61.9681C72.818 62.0145 72.8919 62.0834 72.9443 62.1678C76.3634 67.6669 79.2524 73.4784 81.5723 79.5238C81.5793 79.5375 81.583 79.5525 81.583 79.5678C81.583 79.5832 81.5793 79.5982 81.5723 79.6118C81.5652 79.6251 81.5549 79.6365 81.5423 79.6448C81.5298 79.6532 81.5153 79.6584 81.5003 79.6598C78.8003 79.9838 76.0163 80.2119 73.2323 80.3279C71.6483 80.3999 70.1083 80.4279 68.6003 80.4279ZM65.0483 80.1678C67.7243 80.2558 70.4643 80.2439 73.1963 80.1279C75.9283 80.0119 78.6683 79.7918 81.3243 79.4758C79.0107 73.4887 76.1437 67.7304 72.7603 62.2758C72.7261 62.2213 72.6781 62.1768 72.6213 62.1466C72.5644 62.1164 72.5006 62.1017 72.4363 62.1038C72.3715 62.1074 72.3086 62.1277 72.254 62.1627C72.1993 62.1978 72.1546 62.2464 72.1243 62.3038C69.21 68.0255 66.8344 74.006 65.0283 80.1678H65.0483Z" fill="#FAFAFA"/>
<path d="M61.7361 118.272C61.7113 118.273 61.687 118.264 61.6684 118.248C61.6497 118.232 61.6382 118.209 61.6361 118.184C61.2361 115.012 61.0001 112.184 60.8921 109.6C60.4921 100.28 61.8121 90.3998 64.8001 80.2358C64.8075 80.215 64.821 80.197 64.8388 80.1841C64.8567 80.1712 64.8781 80.1641 64.9001 80.1638C67.6161 80.2598 70.4001 80.2478 73.1761 80.1278C75.9521 80.0078 78.7361 79.7878 81.4321 79.4638C81.4537 79.4604 81.4757 79.4646 81.4947 79.4755C81.5136 79.4864 81.5282 79.5034 81.5361 79.5238C83.7957 85.2832 85.5073 91.243 86.6481 97.3238C86.6504 97.3369 86.65 97.3504 86.647 97.3634C86.644 97.3764 86.6384 97.3887 86.6306 97.3995C86.6228 97.4103 86.6128 97.4194 86.6014 97.4263C86.59 97.4333 86.5773 97.4378 86.5641 97.4398C86.5381 97.4444 86.5114 97.4386 86.4896 97.4237C86.4679 97.4087 86.453 97.3857 86.4481 97.3598C85.3231 91.3174 83.633 85.394 81.4001 79.6678C78.7201 79.9918 75.9641 80.2118 73.2081 80.3278C70.4521 80.4438 67.6881 80.4598 64.9881 80.3638C62.0241 90.4838 60.7161 100.316 61.1121 109.592C61.2201 112.192 61.4641 114.992 61.8561 118.16C61.8585 118.186 61.8506 118.212 61.8343 118.233C61.8179 118.254 61.7943 118.268 61.7681 118.272H61.7361ZM87.8001 117.168C87.787 117.167 87.7741 117.164 87.7621 117.159C87.7502 117.153 87.7395 117.145 87.7306 117.136C87.7216 117.126 87.7147 117.115 87.7102 117.102C87.7056 117.09 87.7036 117.077 87.7041 117.064C87.8241 113.864 87.8321 111.064 87.7041 108.464C87.7036 108.451 87.7056 108.438 87.7102 108.425C87.7147 108.413 87.7216 108.402 87.7306 108.392C87.7395 108.382 87.7502 108.374 87.7621 108.369C87.7741 108.363 87.787 108.36 87.8001 108.36C87.8134 108.359 87.8267 108.36 87.8393 108.365C87.8519 108.369 87.8635 108.376 87.8732 108.385C87.883 108.394 87.8908 108.405 87.8961 108.417C87.9014 108.429 87.9042 108.442 87.9041 108.456C88.0161 111.06 88.0081 113.88 87.9041 117.072C87.9036 117.085 87.9005 117.098 87.895 117.11C87.8895 117.122 87.8817 117.132 87.872 117.141C87.8624 117.15 87.851 117.157 87.8387 117.162C87.8264 117.166 87.8133 117.168 87.8001 117.168Z" fill="#FAFAFA"/>
<path d="M73.8885 106.152C71.6358 106.161 69.4649 105.308 67.8212 103.768C66.1774 102.227 65.1854 100.116 65.0485 97.8679V97.7919C65.0485 97.7439 65.0485 97.6959 65.0485 97.6479C64.9991 96.4825 65.1798 95.3188 65.5801 94.2233C65.9804 93.1278 66.5926 92.1218 67.3818 91.2629C68.1709 90.4039 69.1214 89.7088 70.1792 89.2172C71.2369 88.7257 72.3811 88.4472 73.5465 88.3979C74.7118 88.3485 75.8755 88.5291 76.971 88.9295C78.0666 89.3298 79.0725 89.942 79.9315 90.7311C80.7904 91.5202 81.4855 92.4708 81.9771 93.5285C82.4687 94.5863 82.7471 95.7305 82.7965 96.8959C82.7965 96.9439 82.7965 96.9959 82.7965 97.0479V97.1159C82.8506 99.4365 81.9886 101.685 80.3969 103.375C78.8053 105.064 76.6122 106.059 74.2925 106.144C74.1525 106.152 74.0205 106.152 73.8885 106.152ZM73.9165 88.5879H73.5405C72.401 88.6357 71.2821 88.9076 70.2477 89.3881C69.2133 89.8686 68.2838 90.5482 67.5123 91.3882C66.7407 92.2281 66.1422 93.2118 65.751 94.2831C65.3599 95.3545 65.1837 96.4924 65.2325 97.6319C65.2325 97.6759 65.2325 97.7239 65.2325 97.7719V97.8479C65.329 100.151 66.3365 102.321 68.0334 103.882C68.8735 104.654 69.8577 105.254 70.9296 105.646C72.0014 106.038 73.1401 106.216 74.2805 106.168C75.4209 106.12 76.5407 105.848 77.576 105.368C78.6113 104.887 79.5418 104.207 80.3144 103.367C81.087 102.527 81.6865 101.543 82.0788 100.471C82.471 99.3989 82.6483 98.2603 82.6005 97.1199V97.0479C82.6005 96.9999 82.6005 96.9519 82.6005 96.9039C82.5067 94.6682 81.5531 92.5552 79.9388 91.0057C78.3244 89.4562 76.1741 88.59 73.9365 88.5879H73.9165ZM73.9165 103.756C72.22 103.719 70.6065 103.014 69.4263 101.795C68.2461 100.576 67.5944 98.9402 67.6129 97.2434C67.6313 95.5465 68.3183 93.9255 69.5247 92.7321C70.7311 91.5387 72.3596 90.8694 74.0565 90.8694C75.7534 90.8694 77.3819 91.5387 78.5883 92.7321C79.7947 93.9255 80.4817 95.5465 80.5001 97.2434C80.5185 98.9402 79.8669 100.576 78.6867 101.795C77.5065 103.014 75.893 103.719 74.1965 103.756H73.9165ZM73.9245 90.9839H73.6565C72.8318 91.0188 72.022 91.2158 71.2735 91.5637C70.5249 91.9116 69.8522 92.4035 69.2938 93.0113C68.7353 93.6192 68.3021 94.3311 68.0187 95.1064C67.7354 95.8816 67.6076 96.7052 67.6425 97.5299C67.6774 98.3546 67.8745 99.1643 68.2223 99.9129C68.5702 100.661 69.0621 101.334 69.67 101.893C70.2778 102.451 70.9897 102.884 71.765 103.168C72.5403 103.451 73.3638 103.579 74.1885 103.544C75.8228 103.462 77.3609 102.747 78.4762 101.55C79.5915 100.352 80.1962 98.7675 80.1619 97.1316C80.1275 95.4957 79.4568 93.9376 78.2922 92.7882C77.1275 91.6388 75.5607 90.9887 73.9245 90.9759V90.9839Z" fill="#FAFAFA"/>
<path d="M73.9002 103.756C72.2037 103.719 70.5901 103.014 69.41 101.795C68.2298 100.576 67.5781 98.9402 67.5966 97.2434C67.615 95.5466 68.302 93.9255 69.5084 92.7321C70.7148 91.5387 72.3433 90.8694 74.0402 90.8694C75.7371 90.8694 77.3656 91.5387 78.572 92.7321C79.7784 93.9255 80.4654 95.5466 80.4838 97.2434C80.5022 98.9402 79.8506 100.576 78.6704 101.795C77.4902 103.014 75.8767 103.719 74.1802 103.756H73.9002ZM73.9122 90.9839H73.6402C72.8155 91.0188 72.0057 91.2158 71.2572 91.5637C70.5086 91.9116 69.8359 92.4035 69.2775 93.0113C68.719 93.6192 68.2858 94.3311 68.0024 95.1064C67.7191 95.8817 67.5913 96.7052 67.6262 97.5299C67.6611 98.3546 67.8581 99.1643 68.206 99.9129C68.5539 100.661 69.0458 101.334 69.6537 101.893C70.2615 102.451 70.9734 102.884 71.7487 103.168C72.524 103.451 73.3475 103.579 74.1722 103.544C75.835 103.468 77.4001 102.736 78.5247 101.509C79.6492 100.282 80.2416 98.659 80.1722 96.9959C80.0972 95.3817 79.4041 93.8583 78.2364 92.7412C77.0687 91.6242 75.5161 90.9993 73.9002 90.9959L73.9122 90.9839Z" fill="#FAFAFA"/>
<path d="M57.272 149.832C57.0506 149.83 56.8312 149.79 56.624 149.712C55.776 149.392 54.96 148.404 55.024 146.912L55.732 133.524C55.7479 133.185 55.8181 132.852 55.94 132.536L61.624 118.136C61.6326 118.115 61.6478 118.097 61.6673 118.086C61.6868 118.074 61.7095 118.069 61.732 118.072C61.7538 118.076 61.7737 118.087 61.7894 118.102C61.8051 118.118 61.8157 118.138 61.82 118.16C62.36 122.54 63.096 126.916 63.82 131.144C64.044 132.46 64.264 133.764 64.472 135.044L71.92 134.728L71.52 133.016C71.4202 132.588 71.408 132.144 71.484 131.712C71.6386 130.821 72.0933 130.01 72.7725 129.413C73.4518 128.817 74.3147 128.471 75.2179 128.432C76.1211 128.394 77.0102 128.666 77.7375 129.203C78.4649 129.74 78.9866 130.509 79.216 131.384C79.3278 131.808 79.3523 132.25 79.288 132.684L79.04 134.428L86.488 134.112C86.5894 132.816 86.696 131.501 86.808 130.168C87.16 125.896 87.524 121.476 87.692 117.064C87.6927 117.041 87.701 117.02 87.7156 117.003C87.7302 116.987 87.7501 116.975 87.772 116.972C87.7933 116.967 87.8155 116.969 87.8352 116.979C87.8548 116.988 87.8706 117.004 87.88 117.024L94.764 130.892C94.9145 131.196 95.0131 131.523 95.056 131.86L96.896 145.14C97.1 146.62 96.368 147.672 95.552 148.06C95.1776 148.236 94.755 148.282 94.3513 148.191C93.9476 148.1 93.586 147.876 93.324 147.556L86.164 139.86L78.212 140.196L77.912 142.288C77.8441 142.785 77.6037 143.242 77.2329 143.58C76.8621 143.917 76.3844 144.114 75.8832 144.136C75.3821 144.157 74.8894 144.002 74.4911 143.697C74.0928 143.392 73.8142 142.957 73.704 142.468L73.236 140.4L65.284 140.736L58.8 149.02C58.6256 149.264 58.3967 149.465 58.1316 149.605C57.8664 149.746 57.5722 149.824 57.272 149.832ZM61.672 118.576L56.132 132.612C56.0162 132.907 55.9487 133.219 55.932 133.536L55.228 146.924C55.152 148.316 55.904 149.232 56.684 149.524C57.0324 149.65 57.4129 149.657 57.7657 149.544C58.1184 149.43 58.4233 149.202 58.632 148.896L65.144 140.584C65.1527 140.573 65.1637 140.564 65.1761 140.558C65.1885 140.552 65.2021 140.548 65.216 140.548L73.296 140.204C73.3199 140.203 73.3433 140.211 73.3622 140.225C73.3812 140.24 73.3945 140.26 73.4 140.284L73.892 142.424C73.9935 142.867 74.247 143.26 74.6084 143.535C74.9698 143.811 75.4163 143.951 75.8703 143.932C76.3243 143.912 76.7571 143.734 77.0936 143.429C77.43 143.123 77.6489 142.71 77.712 142.26L78.024 140.088C78.0268 140.065 78.0374 140.043 78.0542 140.027C78.071 140.011 78.0929 140.001 78.116 140L86.2 139.66C86.2144 139.658 86.2289 139.66 86.2422 139.666C86.2556 139.671 86.2672 139.68 86.276 139.692L93.476 147.42C93.7096 147.709 94.0337 147.912 94.3964 147.996C94.7591 148.079 95.1394 148.038 95.476 147.88C96.228 147.524 96.9 146.548 96.708 145.168L94.872 131.888C94.8307 131.572 94.7375 131.265 94.596 130.98L87.888 117.464C87.716 121.748 87.36 126.036 87.016 130.188C86.904 131.548 86.796 132.89 86.692 134.216C86.6901 134.24 86.6792 134.263 86.6615 134.28C86.6439 134.297 86.6205 134.307 86.596 134.308L78.94 134.632C78.9253 134.632 78.9106 134.629 78.8968 134.624C78.8831 134.618 78.8706 134.61 78.86 134.6C78.8505 134.589 78.8434 134.576 78.8393 134.562C78.8351 134.548 78.834 134.534 78.836 134.52L79.104 132.656C79.1636 132.249 79.1405 131.834 79.036 131.436C78.8192 130.604 78.324 129.872 77.633 129.361C76.9419 128.85 76.0967 128.591 75.2381 128.628C74.3795 128.664 73.5593 128.994 72.9141 129.562C72.2689 130.129 71.8376 130.901 71.692 131.748C71.6206 132.152 71.6315 132.567 71.724 132.968L72.148 134.8C72.1541 134.813 72.1573 134.827 72.1573 134.842C72.1573 134.856 72.1541 134.871 72.148 134.884C72.139 134.895 72.1275 134.905 72.1144 134.912C72.1013 134.919 72.0868 134.923 72.072 134.924L64.416 135.248C64.4039 135.249 64.3918 135.247 64.3802 135.244C64.3686 135.24 64.3578 135.234 64.3486 135.226C64.3393 135.219 64.3316 135.209 64.326 135.198C64.3204 135.188 64.317 135.176 64.316 135.164C64.1 133.856 63.876 132.524 63.648 131.164C62.936 127.072 62.22 122.828 61.684 118.576H61.672Z" fill="#FAFAFA"/>
<path d="M111.346 125.566L98.7416 129.566C98.6604 129.597 98.5714 129.6 98.4881 129.576C98.4048 129.551 98.3316 129.501 98.2797 129.431C98.2278 129.362 98.1999 129.277 98.2002 129.19C98.2005 129.103 98.2291 129.019 98.2816 128.95L105.83 118.01L111.346 125.566Z" fill="#FFA8A7"/>
<path d="M107.486 123.374L98.7417 129.582L111.346 125.566L108.946 122.29L107.486 123.374Z" fill="#F28F8F"/>
<path d="M98.2816 128.966C98.2291 129.035 98.2005 129.119 98.2002 129.206C98.1999 129.293 98.2278 129.377 98.2797 129.447C98.3316 129.517 98.4048 129.567 98.4881 129.592C98.5714 129.616 98.6604 129.613 98.7416 129.582L101.202 128.782C100.829 128.607 100.511 128.333 100.282 127.991C100.054 127.648 99.9236 127.249 99.9056 126.838V126.61L98.2816 128.966Z" fill="#455A64"/>
<path d="M169.102 71.166L168.118 71.894L166.918 72.77L105.83 118.026C105.578 119.503 105.894 121.02 106.714 122.274C107.878 124.222 109.858 125.634 111.342 125.562L172.418 80.322L174.682 78.642C173.154 79.646 167.582 72.194 169.102 71.166Z" fill="#FFC100"/>
<path opacity="0.3" d="M169.102 71.166L168.118 71.894L166.918 72.77L105.83 118.026C105.578 119.503 105.894 121.02 106.714 122.274C107.878 124.222 109.858 125.634 111.342 125.562L172.418 80.322L174.682 78.642C173.154 79.646 167.582 72.194 169.102 71.166Z" fill="white"/>
<path d="M165.353 73.926L163.161 75.554C162.509 76.006 163.117 77.67 164.149 79.35C165.513 81.578 167.913 83.614 168.777 83.018L170.377 81.818L170.949 81.378C170.085 81.974 167.681 79.938 166.317 77.71C165.333 76.11 164.737 74.51 165.273 73.978C165.292 73.951 165.321 73.9324 165.353 73.926Z" fill="#EBEBEB"/>
<path d="M164.81 74.3379C163.294 75.3819 168.906 82.8419 170.41 81.7939L172.606 80.1699C171.094 81.2139 165.482 73.7699 167.006 72.7139L164.81 74.3379Z" fill="#FFC100"/>
<path d="M169.102 71.166L166.93 72.766C165.438 73.778 170.79 81.022 172.418 80.318C172.45 80.3061 172.481 80.2899 172.51 80.27L174.682 78.638C173.154 79.646 167.582 72.194 169.102 71.166Z" fill="#EBEBEB"/>
<path opacity="0.5" d="M174.53 78.7099C173.766 78.9219 172.274 77.8139 171.042 76.2859L107.498 123.366C108.65 124.722 110.154 125.622 111.342 125.562L172.418 80.3219L174.682 78.6419C174.634 78.6719 174.583 78.6948 174.53 78.7099Z" fill="#FFC100"/>
<path d="M184.061 71.69C184.089 71.6755 184.116 71.6594 184.141 71.642C185.089 70.934 184.609 68.686 183.065 66.622C181.521 64.558 179.505 63.466 178.553 64.166L169.097 71.162C168.449 71.602 169.041 73.254 170.057 74.922C171.413 77.158 173.805 79.214 174.681 78.638L183.913 71.802L184.061 71.714V71.69Z" fill="#F28F8F"/>
<path opacity="0.1" d="M183.39 67.074L171.03 76.274C172.354 77.894 173.99 79.074 174.682 78.626L183.914 71.79L184.062 71.714C184.089 71.6995 184.116 71.6834 184.142 71.666C185.026 70.986 184.674 69.006 183.39 67.074Z" fill="black"/>
<path d="M184.146 71.642C183.194 72.35 181.17 71.242 179.626 69.19C178.082 67.138 177.602 64.878 178.554 64.17C179.506 63.462 181.526 64.57 183.07 66.622C184.614 68.674 185.094 70.934 184.146 71.642Z" fill="#FFA8A7"/>
<path d="M124.566 187.55C124.266 187.522 124.262 188.254 124.446 188.61C124.982 189.622 126.474 190.71 128.654 191.19C130.834 191.67 135.102 191.098 136.398 191.05C137.694 191.002 139.922 191.658 141.198 191.85C143.546 192.226 145.154 191.578 145.922 190.822C146.048 190.669 146.141 190.492 146.197 190.301C146.252 190.111 146.267 189.911 146.242 189.714C146.218 188.822 146.142 188.642 146.042 188.65L124.566 187.55Z" fill="#37474F"/>
<path d="M145.798 186.062C146.025 187.119 146.095 188.204 146.006 189.282C145.734 189.946 145.006 190.322 144.426 190.506C142.89 190.986 141.386 190.906 139.698 190.534C138.61 190.251 137.489 190.117 136.366 190.134C135.03 190.21 132.086 190.506 130.746 190.534C129.496 190.553 128.255 190.313 127.102 189.83C126.218 189.43 124.874 188.51 124.578 187.83C124.286 186.23 124.45 185.274 125.378 184.73C126.306 184.186 127.75 184.042 129.678 183.898C130.258 183.854 130.986 183.822 131.278 183.786C132.446 183.658 133.538 183.57 134.422 183.514C135.176 183.52 135.922 183.357 136.606 183.038C136.919 182.897 137.172 182.651 137.322 182.342C137.506 181.942 137.502 181.334 137.862 181.298C137.862 181.298 144.466 182.422 144.998 182.498C145.63 182.538 145.226 183.422 145.798 186.062Z" fill="#455A64"/>
<path d="M130.778 183.714C130.577 183.869 130.412 184.066 130.294 184.29C130.161 184.532 130.059 184.79 129.99 185.058C129.902 185.394 130.318 185.458 130.478 185.058C130.598 184.734 130.758 184.427 130.954 184.142C131.092 183.946 131.294 183.805 131.526 183.742L131.862 183.706C131.77 183.478 131.034 183.558 130.778 183.714Z" fill="#FAFAFA"/>
<path d="M133.758 183.378C133.647 183.364 133.535 183.374 133.428 183.406C133.321 183.439 133.222 183.493 133.138 183.566C132.92 183.752 132.758 183.994 132.67 184.266C132.553 184.59 132.465 184.923 132.406 185.262C132.382 185.478 132.89 185.47 132.946 185.234C133.015 184.927 133.102 184.624 133.206 184.326C133.262 184.178 133.526 183.606 133.878 183.55H134.038C134.038 183.474 133.938 183.422 133.87 183.406L133.758 183.378Z" fill="#FAFAFA"/>
<path d="M135.506 183.314C135.351 183.341 135.21 183.42 135.106 183.538C134.987 183.697 134.896 183.874 134.834 184.062C134.727 184.408 134.676 184.768 134.682 185.13C134.682 185.41 135.182 185.334 135.198 185.15C135.184 184.661 135.3 184.176 135.534 183.746C135.648 183.569 135.801 183.421 135.982 183.314C135.982 183.266 135.894 183.258 135.846 183.266C135.732 183.276 135.619 183.292 135.506 183.314Z" fill="#FAFAFA"/>
<path d="M145.662 175.362C145.662 175.362 145.094 181.438 144.95 182.842C144.902 183.29 144.054 183.47 143.618 183.642C143.074 183.845 142.567 184.137 142.118 184.506C141.006 185.606 140.17 185.866 139.502 183.934C139.479 183.841 139.437 183.753 139.378 183.677C139.319 183.601 139.244 183.539 139.159 183.494C139.074 183.45 138.98 183.424 138.884 183.418C138.788 183.412 138.692 183.427 138.602 183.462C138.234 183.586 137.846 183.64 137.458 183.622C137.398 183.582 137.434 183.494 137.458 183.434C137.629 183.223 137.754 182.978 137.823 182.715C137.892 182.453 137.904 182.178 137.858 181.91C137.666 179.426 137.562 176.934 137.422 174.446L145.662 175.362Z" fill="#E0CBCB"/>
<path d="M170.67 170.486C169.87 169.23 168.67 165.85 167.654 162.27L160.206 165.714C160.206 165.714 164.766 173.99 165.286 174.738C166.142 175.978 170.67 170.486 170.67 170.486Z" fill="#E0CBCB"/>
<path d="M173.122 173.162C173.122 173.09 173.154 172.498 173.122 172.426C172.954 171.79 172.562 171.626 172.054 171.258C171.544 170.913 171.076 170.51 170.658 170.058C170.49 169.826 170.458 169.702 170.194 169.598C169.852 169.491 169.491 169.459 169.136 169.505C168.781 169.552 168.44 169.675 168.138 169.866C166.686 170.63 166.242 171.55 166.326 172.546C166.39 173.306 166.45 174.314 165.782 174.766C165.502 174.954 164.834 174.022 164.834 174.022C164.434 174.714 165.234 175.39 165.534 176.794C165.709 177.57 165.723 178.373 165.574 179.154C165.426 180.382 165.258 180.378 164.602 180.466C164.038 180.538 162.442 180.43 161.47 181.11C160.13 182.046 160.49 183.29 160.49 183.29C160.662 183.762 162.118 186.058 167.438 185.202C168.982 184.954 172.238 182.526 172.174 182.298C172.148 182.067 172.148 181.833 172.174 181.602C172.194 181.058 172.218 180.514 172.242 179.97C172.221 179.451 172.25 178.931 172.33 178.418C172.429 177.996 172.496 177.567 172.53 177.134C172.63 176.042 172.734 174.946 172.834 173.854C172.886 173.546 173.166 173.474 173.122 173.162Z" fill="#455A64"/>
<path d="M173.794 172.946C174.318 173.454 173.998 174.946 173.294 176.698C172.982 177.498 172.402 178.83 172.574 180.266C172.746 181.702 172.774 182.378 172.402 183.066C171.826 184.118 168.73 185.466 166.91 185.886C168.011 184.341 168.653 182.516 168.762 180.622C168.946 177.454 169.186 175.422 170.634 174.01C172.462 172.218 173.794 172.946 173.794 172.946Z" fill="black"/>
<path d="M160.502 183.314C160.502 183.314 161.57 185.314 165.702 185.246C167.322 185.222 168.186 184.446 168.226 181.97C168.274 179.002 168.514 176.002 169.474 174.53C170.434 173.058 171.962 172.342 173.15 172.446C173.425 172.534 173.66 172.719 173.81 172.966C173.81 172.966 172.61 172.566 170.774 174.11C169.41 175.242 169.042 177.606 169.066 180.538C169.066 181.802 169.15 183.234 168.778 184.194C168.609 184.616 168.343 184.992 168.002 185.293C167.661 185.594 167.254 185.811 166.814 185.926C164.578 186.554 161.514 185.526 160.738 184.574C160.606 184.396 160.516 184.189 160.475 183.971C160.434 183.753 160.443 183.528 160.502 183.314Z" fill="#37474F"/>
<path d="M165.446 179.93C165.279 180.048 165.161 180.223 165.114 180.422C165.096 180.675 165.147 180.928 165.261 181.155C165.375 181.382 165.548 181.573 165.762 181.71C166.01 181.866 166.226 181.81 165.83 181.29C165.578 180.881 165.445 180.41 165.446 179.93Z" fill="#FAFAFA"/>
<path d="M165.662 178.394C165.662 178.394 165.534 178.478 165.498 178.89C165.498 179.11 165.826 180.002 166.258 180.214C166.69 180.426 166.458 179.926 166.258 179.682C165.967 179.301 165.764 178.862 165.662 178.394Z" fill="#FAFAFA"/>
<path d="M165.522 176.698C165.522 176.698 165.382 176.734 165.522 177.302C165.722 177.663 166.039 177.946 166.422 178.102C166.698 178.134 166.822 177.998 166.494 177.75C166.23 177.542 165.574 176.97 165.522 176.698Z" fill="#FAFAFA"/>
<path d="M162.242 169.662C162.242 169.662 158.582 163.29 153.086 153.618C152.239 152.263 151.651 150.761 151.354 149.19C150.986 147.59 149.07 139.458 149.07 139.458L147.038 152.658C147.433 154.366 147.676 156.107 147.762 157.858C147.762 160.038 147.486 163.35 146.87 167.838C145.93 174.698 145.49 178.354 145.49 178.354C145.006 178.702 144.406 179.19 141.026 179.154C139.822 179.07 138.648 178.744 137.574 178.194C137.574 178.194 136.978 171.054 136.73 166.078C136.502 161.482 136.126 156.29 135.93 153.518C135.562 148.318 135.446 146.066 135.394 137.866C135.338 129.358 135.986 116.842 135.986 116.842H159.934C159.934 116.842 161.71 119.83 161.222 127.158C161.41 134.318 162.046 147.398 162.046 147.398C163.678 149.282 164.814 151.574 165.934 155.654C167.174 160.19 167.934 162.822 168.918 166.13C166.97 166.086 162.954 168.302 162.242 169.662Z" fill="#FFC100"/>
<path opacity="0.2" d="M164.178 167.922L163.83 168.15C161.83 164.698 156.746 155.95 155.118 152.734C153.438 149.438 152.242 144.43 150.65 137.134C150.434 136.158 150.218 135.134 149.986 134.082L149.886 133.622L150.054 132.422L150.394 133.986C150.534 134.654 150.678 135.298 150.818 135.934C152.526 143.818 153.754 149.134 155.49 152.554C157.11 155.746 162.158 164.45 164.178 167.922Z" fill="black"/>
<path opacity="0.2" d="M138.778 116.842H138.358C138.102 120.466 137.958 124.986 137.926 130.042C137.07 129.642 136.162 128.766 135.57 127.006C135.57 127.346 135.57 127.69 135.538 128.038C135.998 129.131 136.855 130.009 137.938 130.494C137.846 144.894 138.538 163.63 139.538 178.914C139.674 178.95 139.818 178.982 139.962 179.01C138.586 158.15 137.782 130.794 138.778 116.842Z" fill="black"/>
<path opacity="0.2" d="M149.054 139.526L150.386 130.07C150.386 130.07 153.514 129.83 157.278 126.698C157.278 126.698 156.782 129.498 151.446 131.418L150.166 140.562L151.15 148.31C151.15 148.31 149.078 139.714 149.054 139.526Z" fill="black"/>
<path d="M165.574 95.9698C164.112 93.1886 162.484 90.4984 160.698 87.9138C158.698 84.9778 153.062 86.0578 153.054 86.0578L155.738 94.1378L160.386 102.938L156.642 108.426L159.582 112.87C159.582 112.87 165.474 107.166 167.13 105.382C168.862 103.514 168.666 102.654 167.954 100.858C167.41 99.4898 167.026 98.8218 165.574 95.9698Z" fill="#E0CBCB"/>
<path d="M164.25 100.69C164.918 100.254 166.306 98.9219 166.706 97.9179C164.766 93.7699 161.574 88.3859 160.706 87.3499C159.662 86.1219 158.366 85.3499 154.958 85.3499L155.458 94.0579L159.722 102.31C161.082 102.282 162.902 101.57 164.25 100.69Z" fill="#263238"/>
<path d="M154.122 85.806C153.9 85.7902 153.692 85.697 153.532 85.5426C153.373 85.3883 153.273 85.1827 153.25 84.962C153.122 83.8166 153.114 82.661 153.226 81.514C153.406 80.238 155.398 77.482 155.626 73.99C155.854 70.498 151.098 65.142 146.998 65.566C142.898 65.99 140.718 68.226 139.614 71.25C138.938 73.094 139.614 73.454 139.37 74.518C138.858 76.606 138.098 78.218 139.086 82.21C139.442 83.67 140.686 84.1339 141.886 84.4179C142.759 84.5925 143.652 84.6544 144.542 84.602C144.542 84.602 144.626 85.822 144.626 86.746C144.642 87.0592 144.544 87.3678 144.351 87.6148C144.158 87.8618 143.882 88.0305 143.574 88.09C145.154 89.222 154.718 89.5379 154.122 85.806Z" fill="#E0CBCB"/>
<path d="M157.517 73.5259C157.269 73.6019 157.029 73.3539 156.981 73.1059C156.965 72.8508 156.986 72.5947 157.045 72.3459C157.074 71.8888 156.935 71.437 156.653 71.0758C156.372 70.7146 155.968 70.4691 155.517 70.3859C155.714 70.3718 155.904 70.3146 156.076 70.2184C156.248 70.1222 156.396 69.9894 156.511 69.8294C156.625 69.6695 156.703 69.4862 156.739 69.2927C156.774 69.0992 156.767 68.9002 156.717 68.7099C156.722 68.8519 156.68 68.9916 156.599 69.1082C156.518 69.2248 156.401 69.3121 156.266 69.357C156.132 69.402 155.986 69.4022 155.851 69.3577C155.716 69.3131 155.599 69.2262 155.517 69.1099C155.386 68.7965 155.328 68.4571 155.349 68.1179C155.301 67.8756 155.199 67.6471 155.052 67.4487C154.904 67.2504 154.715 67.087 154.497 66.9704C154.279 66.8538 154.038 66.7869 153.791 66.7743C153.544 66.7618 153.298 66.804 153.069 66.8979C153.074 66.4956 152.963 66.1004 152.75 65.7589C152.538 65.4173 152.232 65.1436 151.869 64.9699C151.502 64.8027 151.096 64.7415 150.696 64.7931C150.296 64.8447 149.918 65.0071 149.605 65.2619C149.575 64.8979 149.417 64.5564 149.159 64.2974C148.902 64.0384 148.561 63.8785 148.197 63.8459C147.83 63.8265 147.463 63.8881 147.122 64.0264C146.781 64.1646 146.475 64.3761 146.225 64.6459C146.331 64.4901 146.388 64.3062 146.388 64.1179C146.388 63.9296 146.331 63.7457 146.225 63.5899C146.111 63.4382 145.956 63.323 145.777 63.2584C145.599 63.1937 145.406 63.1825 145.221 63.2259C145.309 63.2487 145.391 63.2885 145.463 63.3431C145.535 63.3977 145.596 63.4659 145.641 63.5439C145.687 63.6219 145.717 63.7082 145.729 63.7978C145.742 63.8873 145.736 63.9784 145.713 64.0659C145.561 64.5379 145.097 64.5379 144.721 64.4139C144.133 64.22 143.499 64.2116 142.905 64.3899C142.601 64.4789 142.324 64.6443 142.101 64.8704C141.879 65.0966 141.717 65.3759 141.633 65.6819C141.184 65.6088 140.724 65.6529 140.298 65.8099C139.871 65.9668 139.492 66.2314 139.197 66.5779C138.927 66.9151 138.746 67.3153 138.672 67.7413C138.598 68.1673 138.632 68.6051 138.773 69.0139C138.784 69.0478 138.796 69.0812 138.809 69.1139C138.743 69.1333 138.679 69.1587 138.617 69.1899C138.333 69.3355 138.104 69.5701 137.965 69.8579C137.933 69.9139 137.913 69.9739 137.889 70.0259C137.781 70.3286 137.726 70.6483 137.729 70.9699C137.696 71.5406 137.86 72.1054 138.193 72.5699C138.328 72.7441 138.499 72.8869 138.695 72.9884C138.89 73.0899 139.105 73.1478 139.325 73.1579C139.262 72.5177 139.358 71.8718 139.605 71.2779C139.832 70.6505 140.119 70.0464 140.461 69.4739C141.413 69.5123 142.346 69.2023 143.085 68.6019C143.309 68.8659 143.297 69.1499 143.637 69.3539C144.637 69.9539 145.893 69.8739 147.061 69.7779C146.912 70.1416 146.902 70.5474 147.033 70.9179C147.136 71.0969 147.28 71.249 147.453 71.3619C147.775 71.5983 148.131 71.7831 148.509 71.9099C147.989 72.3339 147.653 73.0739 147.953 73.6699C148.139 73.9569 148.369 74.2133 148.633 74.4299C148.767 74.537 148.873 74.6746 148.943 74.8312C149.012 74.9878 149.043 75.1588 149.033 75.3299C148.973 75.6459 148.681 75.8779 148.633 76.1939C148.553 76.6179 148.917 76.9939 149.257 77.2499C149.193 77.0481 149.201 76.8301 149.281 76.6339C149.413 76.4179 149.681 76.3739 149.893 76.2859C150.185 76.1659 150.197 76.0579 150.333 75.8019C150.595 75.2889 151.043 74.8953 151.585 74.7019C152.018 74.5824 152.479 74.6316 152.876 74.8395C153.274 75.0475 153.577 75.3986 153.725 75.8219C153.848 76.3959 153.796 76.9934 153.577 77.5379C153.417 78.1892 153.064 78.7773 152.565 79.2259C152.033 79.6259 151.189 79.7099 150.725 79.2259C150.698 79.798 150.884 80.3599 151.246 80.8031C151.609 81.2464 152.123 81.5395 152.689 81.6259C152.901 81.6499 153.089 81.6859 153.241 81.5459C153.46 80.923 153.773 80.3375 154.169 79.8099C154.569 79.2059 155.369 78.2099 155.793 77.6259C156.217 77.0419 156.357 76.1139 155.793 75.6259C156.05 75.5809 156.281 75.4414 156.44 75.2348C156.599 75.0283 156.675 74.7697 156.653 74.5099C156.587 73.9896 156.386 73.4958 156.069 73.0779C156.232 73.2961 156.46 73.457 156.72 73.5374C156.981 73.6179 157.26 73.6139 157.517 73.5259Z" fill="#263238"/>
<path d="M142.146 80.0458C142.241 80.3645 142.458 80.6328 142.75 80.7923C143.043 80.9518 143.386 80.9897 143.706 80.8978C143.864 80.8539 144.012 80.7791 144.142 80.6775C144.271 80.576 144.38 80.4498 144.46 80.3061C144.54 80.1625 144.591 80.0044 144.61 79.8409C144.629 79.6775 144.615 79.5119 144.57 79.3538L142.146 80.0458Z" fill="#B89596"/>
<path d="M143.094 80.9138C143.214 80.6001 143.42 80.3269 143.689 80.1258C143.958 79.9247 144.279 79.8041 144.614 79.7778C144.596 80.0353 144.5 80.2812 144.337 80.4817C144.175 80.6821 143.954 80.8275 143.706 80.8978C143.506 80.9529 143.296 80.9584 143.094 80.9138Z" fill="#F28F8F"/>
<path d="M144.765 75.286C144.738 75.3682 144.727 75.455 144.733 75.5415C144.739 75.6279 144.763 75.7122 144.802 75.7896C144.841 75.867 144.895 75.9358 144.961 75.9922C145.026 76.0486 145.103 76.0913 145.185 76.118C145.355 76.1679 145.538 76.1488 145.693 76.065C145.849 75.9811 145.965 75.8392 146.017 75.67C146.045 75.5878 146.056 75.501 146.049 75.4146C146.043 75.3282 146.02 75.2438 145.981 75.1665C145.942 75.0891 145.888 75.0203 145.822 74.9639C145.756 74.9075 145.68 74.8647 145.597 74.838C145.513 74.8128 145.425 74.8044 145.338 74.8132C145.25 74.8221 145.166 74.8481 145.088 74.8897C145.011 74.9313 144.943 74.9877 144.887 75.0557C144.832 75.1237 144.79 75.202 144.765 75.286Z" fill="#263238"/>
<path d="M145.405 73.138L146.793 73.938C146.896 73.7496 146.922 73.5283 146.865 73.3214C146.807 73.1144 146.671 72.9381 146.485 72.83C146.301 72.7292 146.084 72.705 145.882 72.7626C145.68 72.8202 145.509 72.9551 145.405 73.138Z" fill="#263238"/>
<path d="M139.742 73.438L141.246 72.858C141.212 72.7589 141.158 72.6677 141.087 72.59C141.017 72.5123 140.931 72.4496 140.836 72.4059C140.741 72.3622 140.637 72.3382 140.532 72.3355C140.428 72.3327 140.323 72.3513 140.226 72.39C140.025 72.4682 139.863 72.621 139.772 72.8164C139.682 73.0118 139.671 73.2346 139.742 73.438Z" fill="#263238"/>
<path d="M140.241 74.9779C140.244 75.0968 140.283 75.2121 140.351 75.3094C140.42 75.4067 140.515 75.4816 140.626 75.5248C140.737 75.5679 140.858 75.5774 140.974 75.552C141.09 75.5266 141.196 75.4674 141.279 75.3819C141.362 75.2965 141.417 75.1885 141.439 75.0715C141.461 74.9546 141.447 74.8338 141.4 74.7245C141.354 74.6151 141.276 74.522 141.176 74.4568C141.077 74.3916 140.96 74.3572 140.841 74.3579C140.761 74.359 140.682 74.3759 140.608 74.4076C140.535 74.4394 140.468 74.4854 140.412 74.5431C140.357 74.6007 140.313 74.6688 140.283 74.7434C140.254 74.818 140.24 74.8977 140.241 74.9779Z" fill="#263238"/>
<path d="M139.75 77.6419L141.966 78.6979L143.094 74.3859C142.226 74.0779 140.83 75.9139 139.75 77.6419Z" fill="#B89596"/>
<path d="M144.53 84.6018C145.508 84.5309 146.469 84.3013 147.374 83.9218C148.601 83.3926 149.572 82.4031 150.078 81.1658C149.956 81.8836 149.665 82.5621 149.229 83.1451C148.793 83.728 148.224 84.1986 147.57 84.5178C146.64 85.007 145.624 85.3113 144.578 85.4138L144.53 84.6018Z" fill="#B89596"/>
<path d="M158.39 85.8659C160.542 86.7819 161.734 89.9819 161.446 94.2659C161.182 98.2259 160.934 100.666 160.414 104.862C160.152 107.469 160.083 110.092 160.206 112.71C160.323 114.787 160.55 116.857 160.886 118.91C160.886 118.91 158.714 122.546 151.218 123.206C142.162 124.006 135.778 121.046 135.778 121.046C135.778 121.046 135.902 118.51 135.922 115.206C135.946 111.586 136.002 108.342 136.106 105.41C136.342 98.6819 136.126 93.3819 136.906 90.9819C137.478 89.6579 137.938 89.0539 139.454 88.4939C140.002 88.2899 142.41 87.5739 144.042 87.2099C146.042 86.7619 153.122 85.3619 154.042 85.3579C154.962 85.3539 156.862 85.2099 158.39 85.8659Z" fill="#37474F"/>
<path d="M140.009 88.3579C140.009 88.3579 137.425 88.9219 136.289 89.9299C135.153 90.9379 133.689 93.2899 132.197 96.2139C130.705 99.1379 126.861 106.37 126.861 106.37C126.861 106.37 123.549 107.118 121.505 107.514C119.809 107.842 118.369 108.274 117.049 108.13C115.804 107.992 114.549 107.958 113.297 108.03C112.049 108.178 112.185 108.926 111.369 109.162C110.553 109.398 110.601 109.934 110.189 110.654C109.777 111.374 109.333 110.622 108.701 111.786C108.069 112.95 108.461 116.074 108.461 116.074L109.997 114.934C110.509 114.981 111.024 114.99 111.537 114.962C112.777 114.906 113.157 114.098 115.201 113.742C117.229 113.546 124.309 113.702 127.729 113.394C131.149 113.086 132.129 113.014 133.165 111.422C134.201 109.83 139.661 100.178 139.661 100.178C144.461 92.3219 140.009 88.3579 140.009 88.3579Z" fill="#E0CBCB"/>
<path d="M140.01 88.3579C137.154 88.8059 135.538 89.4219 133.182 93.8819C131.914 96.2819 130.362 99.1939 129.182 101.57C129.262 102.458 130.21 104.106 131.914 105.41C133.994 107.01 135.514 106.814 136.11 106.814C138.11 103.346 140.306 99.4419 140.306 99.4419C140.306 99.4419 144.334 92.7179 140.01 88.3579Z" fill="#263238"/>
</g>
<defs>
<clipPath id="clip0_171_19400">
<rect width="210" height="210" fill="white"/>
</clipPath>
</defs>
</svg>
