<svg width="121" height="120" viewBox="0 0 121 120" fill="none" xmlns="http://www.w3.org/2000/svg">
<g clip-path="url(#clip0_896_1764)">
<path opacity="0.5" d="M120.5 108.857C120.5 108.891 82.7843 108.785 39.7084 108.785C-3.36749 108.785 0.942101 108.891 0.942101 108.857C0.942101 108.823 -3.38371 108.659 39.7084 108.659C82.8005 108.659 120.5 108.82 120.5 108.857Z" fill="#263238"/>
<path d="M59.5542 46.0941L60.3071 45.4219C60.4464 45.2967 60.6139 45.2069 60.7952 45.16C60.9766 45.1132 61.1666 45.1108 61.3491 45.1529L63.0768 45.5462C63.4183 45.6229 63.7364 45.7804 64.0043 46.0056C64.2722 46.2308 64.4821 46.5171 64.6163 46.8403L64.7843 47.2437C63.6112 48.4436 61.4567 48.8739 61.4567 48.8739L60.8583 49.0655C60.7366 49.1088 60.6074 49.1273 60.4784 49.1201C60.3494 49.1128 60.2232 49.0799 60.107 49.0232C59.9909 48.9666 59.8872 48.8873 59.8021 48.7901C59.717 48.6929 59.6521 48.5797 59.6113 48.4571L59.2147 47.2739C59.1519 47.0654 59.1505 46.8433 59.2107 46.634C59.2709 46.4248 59.3902 46.2373 59.5542 46.0941Z" fill="#EBB376"/>
<path d="M76.8681 35.9466C76.4076 39.5364 75.9034 43.133 75.2211 46.7027C73.732 50.4001 65.5641 48.3833 62.6129 47.5934C62.4152 47.5345 62.2462 47.4048 62.1384 47.2289C62.0305 47.0531 61.9913 46.8437 62.0284 46.6408C62.0655 46.4379 62.1762 46.2558 62.3393 46.1295C62.5024 46.0032 62.7063 45.9416 62.9121 45.9564C64.7641 46.1043 66.6767 46.222 68.5288 46.2018C69.4109 46.2031 70.292 46.1368 71.164 46.0035C71.6215 45.9562 72.0619 45.8044 72.4514 45.5598C72.4783 45.5296 72.4077 45.5598 72.3707 45.6607L72.2934 45.9733C72.6295 42.4775 73.0228 38.9852 73.5371 35.5096C73.9236 33.3584 77.063 33.7785 76.8681 35.96V35.9466Z" fill="#E9B376"/>
<path d="M76.6765 30.6289C73.9035 30.9247 72.643 32.9818 71.4598 37.6069C72.4951 39.1296 76.5018 40.1682 76.5018 40.1682C76.5018 40.1682 78.8883 33.2978 76.6765 30.6289Z" fill="#FFD000"/>
<path opacity="0.6" d="M77.6143 34.2658C77.5639 37.0994 76.4984 40.1682 76.4984 40.1682C76.4984 40.1682 76.0782 40.0607 75.4732 39.859C74.2161 39.4455 72.159 38.6355 71.4598 37.6069C72.6363 32.9751 73.9035 30.9247 76.6799 30.6289C77.4127 31.5129 77.6379 32.8608 77.6143 34.2658Z" fill="white"/>
<path opacity="0.1" d="M77.6144 34.2659C77.5639 37.0994 76.4984 40.1683 76.4984 40.1683C76.4984 40.1683 76.0783 40.0607 75.4732 39.859C75.1908 38.8202 75.246 37.7184 75.6309 36.713C76.0158 35.7076 76.7104 34.8506 77.6144 34.2659Z" fill="black"/>
<path d="M87.7183 65.0181C88.1586 66.1945 88.5653 67.371 88.9351 68.5508C90.8039 74.4565 91.7585 81.4782 91.7585 81.4782C96.7534 91.5621 100.259 106.745 100.259 106.745L98.4105 107.37L86.2662 80.369L82.6595 71.0684L87.7183 65.0181Z" fill="#EBB376"/>
<path d="M100.337 105.33C100.226 105.112 97.6039 106.601 97.6039 106.601C97.6039 106.601 96.7602 109.101 95.3283 110.268C93.8964 111.434 95.2712 111.965 97.0795 111.088C98.8879 110.211 100.266 109.538 101.55 108.916C102.834 108.295 101.5 107.589 100.337 105.33Z" fill="#263238"/>
<path d="M96.5148 107.982C96.4342 108.031 96.3387 108.049 96.2459 108.032C96.1719 108.016 96.0778 107.958 96.0408 107.777C96.0314 107.733 96.0313 107.688 96.0406 107.645C96.0498 107.602 96.0683 107.561 96.0946 107.525C96.2496 107.354 96.4483 107.228 96.6694 107.162C96.3938 107.162 96.1316 107.105 96.0543 106.963C96.0039 106.876 96.0274 106.768 96.1215 106.651C96.1613 106.599 96.212 106.556 96.27 106.525C96.3281 106.494 96.3921 106.476 96.4577 106.473C96.8946 106.446 97.4257 106.963 97.466 106.99C97.4753 106.997 97.4823 107.006 97.4862 107.017C97.4878 107.025 97.4878 107.033 97.4862 107.041C97.4879 107.05 97.4879 107.059 97.4862 107.068C97.4826 107.078 97.4769 107.087 97.4694 107.095C97.2069 107.445 96.8836 107.746 96.5148 107.982ZM96.5148 107.4C96.4013 107.446 96.3008 107.519 96.2224 107.612C96.2081 107.631 96.198 107.653 96.1928 107.676C96.1876 107.699 96.1874 107.723 96.1921 107.747C96.2156 107.864 96.2627 107.874 96.2795 107.881C96.4576 107.921 96.8812 107.545 97.1971 107.172C96.9631 107.223 96.7354 107.299 96.5182 107.4H96.5148ZM96.3501 106.661C96.3077 106.682 96.2708 106.713 96.2425 106.752C96.2123 106.785 96.1686 106.853 96.1887 106.886C96.256 107.007 96.7434 107.027 97.2173 106.987C97.0141 106.79 96.752 106.665 96.4711 106.631C96.4302 106.632 96.3901 106.643 96.3534 106.661H96.3501Z" fill="#FFD000"/>
<path d="M79.6311 64.9443C80.1655 68.4437 81.1378 71.862 82.5252 75.1189C84.031 78.6179 85.6948 81.1927 86.8948 83.8582C89.0326 88.564 94.5619 99.7268 94.5619 99.7268L98.2593 96.9336C98.2593 96.9336 92.367 82.6952 91.9569 79.902C91.6981 78.0936 91.4494 68.3694 91.3048 61.7511C91.2275 58.1377 91.1805 55.4453 91.1805 55.4453L80.6092 47.0051C79.0375 52.8515 78.7044 58.9617 79.6311 64.9443Z" fill="#FFD000"/>
<path opacity="0.5" d="M79.6311 64.9443C80.1655 68.4437 81.1378 71.862 82.5252 75.1189C84.031 78.6179 85.6948 81.1927 86.8948 83.8582C89.0326 88.564 94.5619 99.7268 94.5619 99.7268L98.2593 96.9336C98.2593 96.9336 92.367 82.6952 91.9569 79.902C91.6981 78.0936 91.4494 68.3694 91.3048 61.7511C91.2275 58.1377 91.1805 55.4453 91.1805 55.4453L80.6092 47.0051C79.0375 52.8515 78.7044 58.9617 79.6311 64.9443Z" fill="white"/>
<path opacity="0.2" d="M82.5251 75.1188C84.031 78.6179 85.6948 81.1926 86.8948 83.8581C89.0326 88.5639 94.5619 99.7267 94.5619 99.7267L98.2593 96.9335C98.2593 96.9335 92.367 82.6951 91.9569 79.9019C91.6981 78.0935 91.4493 68.3693 91.3048 61.751L88.1755 55.1797L84.1184 56.8099L85.4427 61.9056L82.5251 75.1188Z" fill="black"/>
<path d="M86.3941 85.8884C83.6076 96.5 78.3707 109.081 78.3707 109.081L76.5556 108.375L81.8731 85.8884H86.3941Z" fill="#EBB376"/>
<path d="M79.3319 108.042C79.3824 107.804 76.4144 107.276 76.4144 107.276C76.4144 107.276 74.169 108.664 72.3237 108.648C70.4783 108.631 71.1943 109.918 73.1472 110.395L77.9774 111.575C79.3622 111.925 78.7841 110.533 79.3319 108.042Z" fill="#263238"/>
<path d="M74.6967 107.656C74.6036 107.641 74.5184 107.595 74.4547 107.525C74.4202 107.476 74.4016 107.417 74.4016 107.357C74.4016 107.297 74.4202 107.238 74.4547 107.189C74.4751 107.149 74.5036 107.114 74.5383 107.087C74.5731 107.059 74.6133 107.039 74.6564 107.027C74.8846 106.996 75.1171 107.027 75.3287 107.118C75.1203 106.933 74.9488 106.728 74.9925 106.57C75.0127 106.469 75.0967 106.402 75.2446 106.372C75.3102 106.358 75.3782 106.358 75.4438 106.372C75.5094 106.387 75.571 106.415 75.6245 106.456C75.9807 106.715 76.0581 107.464 76.0614 107.491C76.0647 107.501 76.0647 107.512 76.0614 107.522C76.063 107.525 76.0638 107.529 76.0638 107.533C76.0638 107.537 76.063 107.541 76.0614 107.545L76.0412 107.565C76.0324 107.567 76.0232 107.567 76.0144 107.565C75.5842 107.674 75.1378 107.705 74.6967 107.656ZM75.0698 107.209C74.9534 107.173 74.8299 107.166 74.7102 107.189C74.687 107.193 74.6651 107.203 74.6459 107.217C74.6268 107.231 74.6109 107.249 74.5993 107.269C74.5421 107.377 74.5724 107.417 74.5825 107.427C74.69 107.575 75.2547 107.545 75.7421 107.468C75.5276 107.359 75.3023 107.272 75.0698 107.209ZM75.406 106.537C75.3599 106.523 75.3109 106.523 75.2648 106.537C75.2177 106.537 75.1438 106.567 75.1337 106.607C75.1102 106.742 75.4698 107.071 75.8665 107.34C75.8354 107.061 75.7178 106.799 75.5303 106.59C75.4968 106.564 75.4577 106.546 75.4161 106.537H75.406Z" fill="#FFD000"/>
<path d="M91.8024 45.8589C91.8024 45.8589 95.8998 54.5007 94.4511 62.6653C93.0024 70.8298 88.626 81.2901 87.4461 83.8413C86.2663 86.3925 81.8732 101.401 81.8732 101.401L78.0615 100.16C78.0615 100.16 81.4664 85.2363 82.5353 80.0364C83.0429 77.5793 87.3688 60.0905 87.3688 60.0905C87.3688 60.0905 79.9539 54.5814 80.4782 45.9732L91.8024 45.8589Z" fill="#FFD000"/>
<path opacity="0.5" d="M91.8024 45.8589C91.8024 45.8589 95.8998 54.5007 94.4511 62.6653C93.0024 70.8298 88.626 81.2901 87.4461 83.8413C86.2663 86.3925 81.8732 101.401 81.8732 101.401L78.0615 100.16C78.0615 100.16 81.4664 85.2363 82.5353 80.0364C83.0429 77.5793 87.3688 60.0905 87.3688 60.0905C87.3688 60.0905 79.9539 54.5814 80.4782 45.9732L91.8024 45.8589Z" fill="white"/>
<path d="M83.8159 21.9535C84.255 21.6812 84.7802 21.5829 85.2881 21.6779C86.7267 21.9502 87.0696 23.3586 86.8746 24.4039C86.7936 24.8284 86.5993 25.223 86.3123 25.5461C86.0254 25.8692 85.6564 26.1087 85.2444 26.2392C84.1117 26.5215 83.1134 25.4762 82.8209 24.6863C82.6349 24.1868 82.6329 23.6375 82.8152 23.1367C82.9975 22.6359 83.3523 22.2165 83.8159 21.9535Z" fill="#263238"/>
<path d="M79.184 52.4805L83.8293 54.0503L84.6931 51.2268L85.6309 53.8318L94.0644 51.8688C93.3451 46.6891 90.4544 42.5614 90.004 40.9951C89.3754 38.8304 88.888 34.6859 89.3149 32.007C89.3574 31.7367 89.3438 31.4605 89.2747 31.1957C89.2057 30.931 89.0828 30.6833 88.9137 30.4681C88.7446 30.253 88.533 30.075 88.292 29.9454C88.0511 29.8157 87.786 29.7372 87.5133 29.7146C86.6965 29.6507 85.8797 29.6171 85.0562 29.6171C83.4313 29.5981 81.8072 29.6935 80.1958 29.9028C78.1252 30.239 75.7824 30.8574 75.7824 30.8574C75.7824 30.8574 75.4463 30.9953 75.6076 33.2103C75.7454 35.1599 76.1185 41.2068 80.0949 46.3193L79.184 52.4805Z" fill="#FFD000"/>
<path opacity="0.6" d="M94.0509 51.8688L85.6175 53.8318L84.6763 51.2268L83.8158 54.0502L79.1638 52.4805L80.0848 46.3193C76.1051 41.2001 75.732 35.1531 75.5975 33.2103C75.4496 30.9851 75.7723 30.8574 75.7723 30.8574C75.7723 30.8574 78.1252 30.2289 80.1823 29.9028C81.7937 29.6936 83.4179 29.5982 85.0427 29.6171C85.8673 29.6171 86.6875 29.6496 87.5032 29.7146C87.7756 29.7376 88.0403 29.8164 88.2809 29.9463C88.5215 30.0761 88.7327 30.2541 88.9014 30.4692C89.0702 30.6843 89.1928 30.9319 89.2616 31.1964C89.3304 31.461 89.344 31.7369 89.3014 32.007C89.1334 33.2602 89.0951 34.5274 89.1872 35.7884C89.2774 37.5467 89.5466 39.2913 89.9905 40.995C90.1326 41.414 90.3056 41.8218 90.5081 42.2152C91.4997 44.2353 93.4728 47.7142 94.0509 51.8688Z" fill="white"/>
<path d="M83.8898 33.728C83.8898 33.728 82.0344 35.3381 81.4932 39.4758L79.3991 33.691L77.9605 34.128C77.9605 34.128 79.0664 28.8844 82.6663 28.7869C86.2662 28.6895 85.994 34.1314 85.994 34.1314L83.8898 33.728Z" fill="#FFD000"/>
<path opacity="0.5" d="M83.8898 33.728C83.8898 33.728 82.0344 35.3381 81.4932 39.4758L79.3991 33.691L77.9605 34.128C77.9605 34.128 79.0664 28.8844 82.6663 28.7869C86.2662 28.6895 85.994 34.1314 85.994 34.1314L83.8898 33.728Z" fill="white"/>
<path d="M78.6799 27.8257C78.6799 27.8257 79.9975 28.6794 80.2227 29.2408C80.2373 29.2766 80.2485 29.3138 80.2563 29.3517C80.3215 29.6723 80.3664 29.9968 80.3908 30.3231C79.3824 32.4878 81.3151 36.2221 81.3151 36.2221C82.1018 34.0177 83.2157 31.9441 84.6193 30.071C82.505 29.2408 82.1017 25.1904 82.1017 25.1904L81.0765 25.9803L78.6799 27.8257Z" fill="#EBB376"/>
<path opacity="0.2" d="M78.6799 27.8255C78.6799 27.8255 79.9975 28.6793 80.2227 29.2406C80.2373 29.2765 80.2485 29.3136 80.2563 29.3515C80.8139 28.9241 81.2585 28.3668 81.5514 27.7283C81.8444 27.0897 81.9767 26.3892 81.9369 25.6877L81.0798 25.9802L78.6799 27.8255Z" fill="black"/>
<path d="M73.8967 24.3702C73.8771 24.3695 73.8582 24.3624 73.8429 24.35C73.3118 23.8895 71.6917 22.1887 73.1908 19.6879C74.4984 17.5098 77.2244 18.2392 77.2244 18.2459C77.2438 18.2534 77.2597 18.2678 77.2691 18.2863C77.2785 18.3049 77.2806 18.3262 77.2752 18.3463C77.2698 18.3663 77.2571 18.3837 77.2397 18.3949C77.2222 18.4062 77.2012 18.4106 77.1807 18.4073C77.1538 18.4073 74.5589 17.7014 73.3186 19.7719C71.8833 22.1618 73.4295 23.7853 73.9371 24.2256C73.9451 24.2332 73.9515 24.2423 73.9559 24.2524C73.9603 24.2625 73.9625 24.2734 73.9625 24.2845C73.9625 24.2955 73.9603 24.3064 73.9559 24.3165C73.9515 24.3266 73.9451 24.3357 73.9371 24.3433C73.9263 24.3557 73.9123 24.365 73.8967 24.3702Z" fill="#263238"/>
<path d="M76.1589 18.209C76.1589 18.209 73.9875 18.2762 73.3892 20.1115C72.7909 21.9467 73.2346 24.0038 76.458 26.2256C78.0345 27.3113 81.9504 25.1904 81.9504 25.1904L82.263 26.1382C82.7855 25.7582 83.2605 25.317 83.678 24.824C84.9452 23.3383 84.6192 18.414 81.1033 17.4527C77.4227 16.4477 76.1589 18.209 76.1589 18.209Z" fill="#263238"/>
<path d="M78.2261 18.8207C75.4632 19.1972 74.7775 20.7972 74.9623 23.6677C75.1943 27.2576 76.327 29.6743 79.6681 28.4475C84.226 26.7769 82.8076 18.1989 78.2261 18.8207Z" fill="#EBB376"/>
<path d="M76.7269 23.271C76.5615 23.7133 76.3437 24.1342 76.0782 24.5248C76.1747 24.6273 76.2974 24.7016 76.4331 24.7395C76.5688 24.7774 76.7122 24.7775 76.8479 24.7399L76.7269 23.271Z" fill="#D58745"/>
<path d="M78.3842 22.814C78.411 23.0426 78.5522 23.214 78.7203 23.1972C78.8884 23.1804 78.9724 22.9821 78.9489 22.7535C78.9253 22.525 78.7774 22.3569 78.6127 22.3737C78.448 22.3905 78.3606 22.5888 78.3842 22.814Z" fill="#263238"/>
<path d="M78.6765 22.3771L78.1622 22.2393C78.1622 22.2393 78.4547 22.6258 78.6765 22.3771Z" fill="#263238"/>
<path d="M75.5505 23.0862C75.5774 23.3147 75.722 23.4828 75.8867 23.466C76.0514 23.4492 76.1388 23.2509 76.1152 23.0257C76.0917 22.8005 75.9438 22.6257 75.7791 22.6425C75.6144 22.6593 75.527 22.8576 75.5505 23.0862Z" fill="#263238"/>
<path d="M75.8429 22.6459L75.3286 22.5081C75.3286 22.5081 75.621 22.898 75.8429 22.6459Z" fill="#263238"/>
<path d="M79.4058 21.2778C79.3762 21.2774 79.3477 21.2667 79.3251 21.2476C79.164 21.1261 78.9776 21.0426 78.7798 21.003C78.5819 20.9634 78.3777 20.9689 78.1823 21.019C78.1673 21.023 78.1516 21.0241 78.1362 21.022C78.1208 21.02 78.1059 21.0149 78.0925 21.0071C78.0791 20.9993 78.0673 20.9889 78.0579 20.9765C78.0485 20.9641 78.0417 20.95 78.0378 20.935C78.0337 20.9199 78.0327 20.9043 78.0347 20.8889C78.0367 20.8735 78.0418 20.8586 78.0496 20.8452C78.0574 20.8317 78.0678 20.82 78.0802 20.8106C78.0926 20.8012 78.1067 20.7943 78.1218 20.7904C78.3555 20.7274 78.6007 20.7201 78.8377 20.7691C79.0748 20.8182 79.297 20.9222 79.4865 21.0728C79.4976 21.0837 79.5065 21.0968 79.5126 21.1112C79.5187 21.1257 79.5218 21.1411 79.5218 21.1568C79.5218 21.1724 79.5187 21.1879 79.5126 21.2024C79.5065 21.2168 79.4976 21.2299 79.4865 21.2408C79.4652 21.2629 79.4364 21.2761 79.4058 21.2778Z" fill="#263238"/>
<path d="M75.0598 21.5568C75.0353 21.5573 75.0113 21.5502 74.9911 21.5364C74.9709 21.5227 74.9555 21.503 74.947 21.4801C74.9385 21.4571 74.9373 21.4321 74.9437 21.4085C74.95 21.3849 74.9636 21.3639 74.9825 21.3484C75.1347 21.1967 75.3193 21.0815 75.5226 21.0116C75.7258 20.9418 75.9422 20.919 76.1555 20.945C76.1867 20.9522 76.2137 20.9715 76.2307 20.9985C76.2477 21.0256 76.2533 21.0583 76.2463 21.0895C76.2432 21.1048 76.2369 21.1192 76.228 21.1319C76.2191 21.1447 76.2077 21.1554 76.1945 21.1636C76.1813 21.1718 76.1666 21.1772 76.1512 21.1795C76.1358 21.1818 76.1201 21.1809 76.1051 21.1769C75.9295 21.1583 75.7519 21.1788 75.5851 21.2369C75.4183 21.295 75.2665 21.3893 75.1404 21.5131C75.1203 21.5377 75.0913 21.5533 75.0598 21.5568Z" fill="#263238"/>
<path d="M81.8731 23.0627C81.8731 23.0627 80.2731 20.972 80.2294 19.1939C80.2294 19.1939 74.4548 17.7048 74.9421 23.2913C74.9421 23.2913 73.7354 18.4342 78.4648 17.6813C83.1941 16.9284 84.2865 23.4392 82.1151 25.8391C82.1185 25.8391 82.8815 24.3736 81.8731 23.0627Z" fill="#263238"/>
<path d="M81.5033 23.7081C81.4947 23.5481 81.5177 23.3879 81.5709 23.2368C81.6242 23.0857 81.7067 22.9465 81.8138 22.8273C81.9209 22.708 82.0504 22.6111 82.1949 22.5419C82.3394 22.4727 82.4962 22.4327 82.6562 22.4241C83.5234 22.4005 84.1721 24.1047 82.1016 24.8106C81.8024 24.9148 81.5907 24.6392 81.5033 23.7081Z" fill="#EBB376"/>
<path d="M76.9958 25.5635C77.1139 25.8922 77.2071 26.2292 77.2748 26.5719C77.3364 26.5752 77.3981 26.5752 77.4596 26.5719C78.2932 26.5349 78.6663 26.2357 78.8277 25.9299C78.9028 25.7749 78.9407 25.6046 78.9386 25.4324C78.9397 25.3348 78.9272 25.2375 78.9016 25.1433C78.397 25.3945 77.8448 25.5354 77.2815 25.5568L76.9958 25.5635Z" fill="#263238"/>
<path d="M77.2815 25.5467L77.3689 25.8392C78.1554 25.8022 78.7134 25.6711 78.9386 25.4224C78.9397 25.3248 78.9272 25.2275 78.9016 25.1333C78.397 25.3845 77.8448 25.5254 77.2815 25.5467Z" fill="white"/>
<path d="M77.4598 26.5617C78.2934 26.5247 78.6665 26.2256 78.8278 25.9197C78.511 25.94 78.2004 26.0162 77.9102 26.1449C77.7204 26.2337 77.563 26.3793 77.4598 26.5617Z" fill="#DE5753"/>
<path opacity="0.1" d="M90.5048 42.2153C86.5788 41.8254 86.915 36.5751 86.915 36.5751C87.6437 36.2509 88.3981 35.9878 89.1704 35.7886C89.2606 37.5469 89.5298 39.2914 89.9737 40.9952C90.1202 41.4145 90.2977 41.8224 90.5048 42.2153Z" fill="black"/>
<path d="M76.3707 46.094L77.1236 45.4218C77.2631 45.2968 77.4305 45.2072 77.6118 45.1604C77.7932 45.1136 77.9831 45.111 78.1656 45.1529L79.8967 45.5462C80.2375 45.6233 80.555 45.781 80.8222 46.0062C81.0895 46.2314 81.2989 46.5174 81.4328 46.8402L81.6008 47.2436C80.4277 48.4436 78.2765 48.8738 78.2765 48.8738L77.6749 49.0654C77.5531 49.1087 77.4239 49.1273 77.2949 49.12C77.1659 49.1127 77.0397 49.0798 76.9235 49.0232C76.8074 48.9665 76.7037 48.8873 76.6186 48.79C76.5335 48.6928 76.4686 48.5796 76.4278 48.457L76.0346 47.2739C75.9701 47.0658 75.9675 46.8435 76.0272 46.634C76.0869 46.4245 76.2062 46.2369 76.3707 46.094Z" fill="#EBB376"/>
<path d="M91.2545 34.9414C92.2629 38.6657 92.7099 42.5413 92.115 46.3698C91.0763 50.5142 82.3673 48.3496 79.4295 47.5731C79.2318 47.5143 79.0628 47.3845 78.9549 47.2087C78.8471 47.0328 78.8079 46.8234 78.845 46.6205C78.8821 46.4176 78.9928 46.2355 79.1559 46.1092C79.3189 45.9829 79.5229 45.9213 79.7286 45.9362C81.5807 46.0841 83.4933 46.2017 85.3453 46.1815C86.2286 46.1827 87.1107 46.1164 87.9839 45.9832C88.4402 45.9353 88.8794 45.7835 89.268 45.5395C89.2948 45.5093 89.2243 45.5395 89.1873 45.6404L89.11 45.953C89.267 43.4055 89.0827 40.8484 88.5621 38.3498C88.4108 37.5094 88.226 36.6086 88.0075 35.8019C87.5436 33.6709 90.5923 32.8541 91.2545 34.9347V34.9414Z" fill="#E9B376"/>
<path d="M87.4427 29.8289C90.2191 30.1247 91.4762 32.1818 92.6628 36.8069C91.6275 38.3295 87.6209 39.3682 87.6209 39.3682C87.6209 39.3682 85.2344 32.4977 87.4427 29.8289Z" fill="#FFD000"/>
<path opacity="0.6" d="M87.4427 29.8289C90.2191 30.1247 91.4762 32.1818 92.6628 36.8069C91.6275 38.3295 87.6209 39.3682 87.6209 39.3682C87.6209 39.3682 85.2344 32.4977 87.4427 29.8289Z" fill="white"/>
<path d="M26.0323 105.999C24.7651 105.999 23.7299 107.263 23.7299 108.819C23.7299 110.375 24.7651 111.636 26.0323 111.636C27.2995 111.636 28.3348 110.372 28.3348 108.819C28.3348 107.266 27.3029 105.999 26.0323 105.999Z" fill="#2E353A"/>
<path d="M26.0323 110.631C25.3332 110.631 24.7382 109.801 24.7382 108.819C24.7382 107.838 25.3332 107.007 26.0323 107.007C26.7315 107.007 27.3264 107.834 27.3264 108.819C27.3264 109.804 26.7483 110.631 26.0323 110.631Z" fill="#72716D"/>
<path d="M25.7162 108.953V105.767H27.9986L26.8019 109.128C26.763 109.237 26.6914 109.331 26.5969 109.397C26.5023 109.463 26.3896 109.498 26.2742 109.498C26.1285 109.498 25.9886 109.441 25.8844 109.339C25.7801 109.237 25.7198 109.099 25.7162 108.953Z" fill="#2E353A"/>
<path opacity="0.3" d="M25.7162 108.953V105.767H27.9986L26.8019 109.128C26.763 109.237 26.6914 109.331 26.5969 109.397C26.5023 109.463 26.3896 109.498 26.2742 109.498C26.1285 109.498 25.9886 109.441 25.8844 109.339C25.7801 109.237 25.7198 109.099 25.7162 108.953Z" fill="white"/>
<path d="M34.1431 74.3189H32.7986V69.4148C32.7986 68.8122 33.038 68.2342 33.4641 67.8081C33.8902 67.382 34.4682 67.1426 35.0708 67.1426H58.9863V68.4871H35.0775C34.8318 68.488 34.5963 68.586 34.4225 68.7598C34.2487 68.9336 34.1507 69.169 34.1498 69.4148L34.1431 74.3189Z" fill="#263238"/>
<path d="M47.2016 111.636C40.0185 111.636 34.1733 104.473 34.1733 95.6696C34.1733 86.8664 40.0185 79.7002 47.2016 79.7002C54.3847 79.7002 60.2333 86.8631 60.2333 95.6696C60.2333 104.476 54.388 111.636 47.2016 111.636ZM47.2016 81.3842C40.9429 81.3842 35.8539 87.7942 35.8539 95.673C35.8539 103.552 40.9429 109.958 47.2016 109.958C53.4603 109.958 58.5526 103.552 58.5526 95.673C58.5526 87.7942 53.4603 81.3808 47.2016 81.3808V81.3842Z" fill="#2E353A"/>
<path d="M47.2016 81.2129C40.8521 81.2129 35.6859 87.7002 35.6859 95.6664C35.6859 103.633 40.8521 110.12 47.2016 110.12C53.551 110.12 58.7207 103.636 58.7207 95.6664C58.7207 87.6968 53.5544 81.2129 47.2016 81.2129ZM49.578 93.179L54.1998 87.2632C54.9434 88.3383 55.5265 89.5158 55.9308 90.7589L49.941 93.8748C49.8406 93.6327 49.7191 93.3999 49.578 93.179ZM47.5377 91.7371V83.2431C48.6323 83.2962 49.7023 83.5864 50.6738 84.0935L48.0991 91.8883C47.9185 91.816 47.7301 91.7652 47.5377 91.7371ZM46.8655 91.7371C46.6901 91.7652 46.5179 91.8103 46.3512 91.8715L43.8638 84.0263C44.7989 83.559 45.8213 83.2922 46.8655 83.2431V91.7371ZM44.5126 93.8244L38.5429 90.5976C38.9444 89.413 39.5101 88.2905 40.2236 87.2632L44.8453 93.179C44.7118 93.3839 44.596 93.5999 44.4991 93.8244H44.5126ZM44.3008 94.4731C44.2327 94.7557 44.1888 95.0436 44.1697 95.3336H37.706C37.7305 93.9465 37.9384 92.5688 38.3245 91.2362L44.3008 94.4731ZM44.1697 96.0059C44.1877 96.2763 44.227 96.545 44.2874 96.8092L38.2875 99.9251C37.9355 98.6475 37.7446 97.3309 37.7194 96.0059H44.1697ZM44.5058 97.4613C44.5963 97.7041 44.7088 97.9382 44.842 98.1605L40.1933 104.076C39.4478 103.002 38.8645 101.824 38.4623 100.581L44.5058 97.4613ZM46.8924 99.5991V108.096C45.7988 108.044 44.7297 107.754 43.7596 107.246L46.3344 99.4512C46.5053 99.5204 46.6834 99.57 46.8655 99.5991H46.8924ZM47.5646 99.5991C47.7414 99.5741 47.9149 99.5301 48.0822 99.468L50.5696 107.313C49.6333 107.781 48.6099 108.047 47.5646 108.096V99.5991ZM49.9343 97.5151L55.9006 100.742C55.4992 101.927 54.9335 103.049 54.2199 104.076L49.5982 98.1605C49.719 97.9543 49.8224 97.7384 49.9074 97.5151H49.9343ZM50.1461 96.863C50.2149 96.5818 50.2577 96.2949 50.2738 96.0059H56.6972C56.6726 97.3883 56.4658 98.7615 56.0821 100.09L50.1461 96.863ZM50.2738 95.3336C50.2575 95.0619 50.2181 94.792 50.1562 94.5269L56.1594 91.4144C56.5105 92.6921 56.7002 94.0088 56.7241 95.3336H50.2738ZM53.8065 86.7052L49.1814 92.6244C49.0413 92.4757 48.8883 92.3396 48.7243 92.2177L51.2855 84.4296C52.2397 85.0416 53.083 85.811 53.7796 86.7052H53.8065ZM43.2891 84.3523L45.7731 92.1875C45.5933 92.3152 45.4266 92.4604 45.2756 92.6211L40.6505 86.7019C41.3749 85.771 42.2592 84.9765 43.2622 84.3557L43.2891 84.3523ZM40.6505 104.628L45.2352 98.7151C45.3765 98.8629 45.5306 98.9979 45.6957 99.1184L43.121 106.91C42.1655 106.297 41.321 105.526 40.6236 104.631L40.6505 104.628ZM51.1713 106.98L48.6839 99.1453C48.8644 99.0185 49.0311 98.8731 49.1814 98.7117L53.8065 104.628C53.0689 105.568 52.1669 106.366 51.1444 106.984L51.1713 106.98Z" fill="#72716D"/>
<g opacity="0.2">
<path d="M47.2016 81.2129C40.8521 81.2129 35.6859 87.7002 35.6859 95.6664C35.6859 103.633 40.8521 110.12 47.2016 110.12C53.551 110.12 58.7207 103.636 58.7207 95.6664C58.7207 87.6968 53.5544 81.2129 47.2016 81.2129ZM49.578 93.179L54.1998 87.2632C54.9434 88.3383 55.5265 89.5158 55.9308 90.7589L49.941 93.8748C49.8406 93.6327 49.7191 93.3999 49.578 93.179ZM47.5377 91.7371V83.2431C48.6323 83.2962 49.7023 83.5864 50.6738 84.0935L48.0991 91.8883C47.9185 91.816 47.7301 91.7652 47.5377 91.7371ZM46.8655 91.7371C46.6901 91.7652 46.5179 91.8103 46.3512 91.8715L43.8638 84.0263C44.7989 83.559 45.8213 83.2922 46.8655 83.2431V91.7371ZM44.5126 93.8244L38.5429 90.5976C38.9444 89.413 39.5101 88.2905 40.2236 87.2632L44.8453 93.179C44.7118 93.3839 44.596 93.5999 44.4991 93.8244H44.5126ZM44.3008 94.4731C44.2327 94.7557 44.1888 95.0436 44.1697 95.3336H37.706C37.7305 93.9465 37.9384 92.5688 38.3245 91.2362L44.3008 94.4731ZM44.1697 96.0059C44.1877 96.2763 44.227 96.545 44.2874 96.8092L38.2875 99.9251C37.9355 98.6475 37.7446 97.3309 37.7194 96.0059H44.1697ZM44.5058 97.4613C44.5963 97.7041 44.7088 97.9382 44.842 98.1605L40.1933 104.076C39.4478 103.002 38.8645 101.824 38.4623 100.581L44.5058 97.4613ZM46.8924 99.5991V108.096C45.7988 108.044 44.7297 107.754 43.7596 107.246L46.3344 99.4512C46.5053 99.5204 46.6834 99.57 46.8655 99.5991H46.8924ZM47.5646 99.5991C47.7414 99.5741 47.9149 99.5301 48.0822 99.468L50.5696 107.313C49.6333 107.781 48.6099 108.047 47.5646 108.096V99.5991ZM49.9343 97.5151L55.9006 100.742C55.4992 101.927 54.9335 103.049 54.2199 104.076L49.5982 98.1605C49.719 97.9543 49.8224 97.7384 49.9074 97.5151H49.9343ZM50.1461 96.863C50.2149 96.5818 50.2577 96.2949 50.2738 96.0059H56.6972C56.6726 97.3883 56.4658 98.7615 56.0821 100.09L50.1461 96.863ZM50.2738 95.3336C50.2575 95.0619 50.2181 94.792 50.1562 94.5269L56.1594 91.4144C56.5105 92.6921 56.7002 94.0088 56.7241 95.3336H50.2738ZM53.8065 86.7052L49.1814 92.6244C49.0413 92.4757 48.8883 92.3396 48.7243 92.2177L51.2855 84.4296C52.2397 85.0416 53.083 85.811 53.7796 86.7052H53.8065ZM43.2891 84.3523L45.7731 92.1875C45.5933 92.3152 45.4266 92.4604 45.2756 92.6211L40.6505 86.7019C41.3749 85.771 42.2592 84.9765 43.2622 84.3557L43.2891 84.3523ZM40.6505 104.628L45.2352 98.7151C45.3765 98.8629 45.5306 98.9979 45.6957 99.1184L43.121 106.91C42.1655 106.297 41.321 105.526 40.6236 104.631L40.6505 104.628ZM51.1713 106.98L48.6839 99.1453C48.8644 99.0185 49.0311 98.8731 49.1814 98.7117L53.8065 104.628C53.0689 105.568 52.1669 106.366 51.1444 106.984L51.1713 106.98Z" fill="black"/>
</g>
<path d="M55.961 79.9121H32.7985C32.0621 79.9121 31.3559 80.2046 30.8352 80.7253C30.3146 81.246 30.0221 81.9522 30.0221 82.6885V104.392C30.0221 104.722 29.891 105.038 29.6578 105.272C29.4246 105.505 29.1082 105.636 28.7784 105.636H23.6928C23.5145 105.636 23.3435 105.707 23.2174 105.833C23.0913 105.959 23.0205 106.13 23.0205 106.308C23.0205 106.487 23.0913 106.658 23.2174 106.784C23.3435 106.91 23.5145 106.98 23.6928 106.98H28.7817C29.4679 106.98 30.1257 106.707 30.6109 106.221C31.0961 105.736 31.369 105.078 31.3699 104.392V96.342H55.961C56.1393 96.342 56.3103 96.2712 56.4364 96.1451C56.5625 96.0191 56.6333 95.8481 56.6333 95.6698V80.5844C56.6333 80.4061 56.5625 80.2351 56.4364 80.109C56.3103 79.9829 56.1393 79.9121 55.961 79.9121ZM55.2888 94.9975H31.3699V82.6885C31.3699 82.3088 31.5208 81.9446 31.7893 81.676C32.0579 81.4075 32.4221 81.2566 32.8018 81.2566H55.2888V94.9975Z" fill="#2E353A"/>
<path opacity="0.3" d="M55.961 79.9121H32.7985C32.0621 79.9121 31.3559 80.2046 30.8352 80.7253C30.3146 81.246 30.0221 81.9522 30.0221 82.6885V104.392C30.0221 104.722 29.891 105.038 29.6578 105.272C29.4246 105.505 29.1082 105.636 28.7784 105.636H23.6928C23.5145 105.636 23.3435 105.707 23.2174 105.833C23.0913 105.959 23.0205 106.13 23.0205 106.308C23.0205 106.487 23.0913 106.658 23.2174 106.784C23.3435 106.91 23.5145 106.98 23.6928 106.98H28.7817C29.4679 106.98 30.1257 106.707 30.6109 106.221C31.0961 105.736 31.369 105.078 31.3699 104.392V96.342H55.961C56.1393 96.342 56.3103 96.2712 56.4364 96.1451C56.5625 96.0191 56.6333 95.8481 56.6333 95.6698V80.5844C56.6333 80.4061 56.5625 80.2351 56.4364 80.109C56.3103 79.9829 56.1393 79.9121 55.961 79.9121ZM55.2888 94.9975H31.3699V82.6885C31.3699 82.3088 31.5208 81.9446 31.7893 81.676C32.0579 81.4075 32.4221 81.2566 32.8018 81.2566H55.2888V94.9975Z" fill="white"/>
<path d="M57.514 50.7495V72.413H31.6321C30.9617 72.413 30.3188 72.6793 29.8448 73.1533C29.3707 73.6273 29.1044 74.2702 29.1044 74.9406V86.1606H56.1493C56.5508 86.161 56.9485 86.0823 57.3196 85.929C57.6907 85.7756 58.0279 85.5506 58.312 85.2669C58.596 84.9831 58.8214 84.6461 58.9751 84.2752C59.1289 83.9043 59.208 83.5067 59.208 83.1052V50.7495H57.514Z" fill="#2E353A"/>
<path opacity="0.3" d="M57.514 50.7495V72.413H31.6321C30.9617 72.413 30.3188 72.6793 29.8448 73.1533C29.3707 73.6273 29.1044 74.2702 29.1044 74.9406V86.1606H56.1493C56.5508 86.161 56.9485 86.0823 57.3196 85.929C57.6907 85.7756 58.0279 85.5506 58.312 85.2669C58.596 84.9831 58.8214 84.6461 58.9751 84.2752C59.1289 83.9043 59.208 83.5067 59.208 83.1052V50.7495H57.514Z" fill="white"/>
<path d="M31.3465 80.5405H67.0836V85.4614H28.7953V83.1085C28.7931 82.7721 28.8574 82.4386 28.9846 82.1271C29.1119 81.8156 29.2994 81.5324 29.5365 81.2937C29.7737 81.055 30.0557 80.8656 30.3663 80.7363C30.6769 80.6071 31.01 80.5405 31.3465 80.5405Z" fill="#263238"/>
<path d="M69.6213 84.7622H28.765C28.6732 84.7622 28.5823 84.7803 28.4975 84.8154C28.4126 84.8506 28.3356 84.9021 28.2706 84.967C28.2057 85.0319 28.1542 85.109 28.1191 85.1938C28.0839 85.2786 28.0659 85.3695 28.0659 85.4614C28.0659 85.5532 28.0839 85.6441 28.1191 85.7289C28.1542 85.8137 28.2057 85.8908 28.2706 85.9557C28.3356 86.0207 28.4126 86.0722 28.4975 86.1073C28.5823 86.1424 28.6732 86.1605 28.765 86.1605H69.6213C69.802 86.1598 69.9754 86.0896 70.1056 85.9644C70.2357 85.8392 70.3127 85.6687 70.3205 85.4882C70.3241 85.3942 70.3087 85.3004 70.2752 85.2124C70.2417 85.1245 70.1908 85.0442 70.1255 84.9764C70.0602 84.9086 69.9819 84.8547 69.8953 84.8179C69.8086 84.7811 69.7155 84.7621 69.6213 84.7622Z" fill="#2E353A"/>
<path opacity="0.3" d="M69.6213 84.7622H28.765C28.6732 84.7622 28.5823 84.7803 28.4975 84.8154C28.4126 84.8506 28.3356 84.9021 28.2706 84.967C28.2057 85.0319 28.1542 85.109 28.1191 85.1938C28.0839 85.2786 28.0659 85.3695 28.0659 85.4614C28.0659 85.5532 28.0839 85.6441 28.1191 85.7289C28.1542 85.8137 28.2057 85.8908 28.2706 85.9557C28.3356 86.0207 28.4126 86.0722 28.4975 86.1073C28.5823 86.1424 28.6732 86.1605 28.765 86.1605H69.6213C69.802 86.1598 69.9754 86.0896 70.1056 85.9644C70.2357 85.8392 70.3127 85.6687 70.3205 85.4882C70.3241 85.3942 70.3087 85.3004 70.2752 85.2124C70.2417 85.1245 70.1908 85.0442 70.1255 84.9764C70.0602 84.9086 69.9819 84.8547 69.8953 84.8179C69.8086 84.7811 69.7155 84.7621 69.6213 84.7622Z" fill="white"/>
<path d="M58.1157 51.3882H72.4616V80.3254C72.4616 81.5022 71.9941 82.6307 71.1621 83.4628C70.33 84.2949 69.2014 84.7623 68.0247 84.7623H58.1157V51.3882Z" fill="#263238"/>
<path d="M28.5733 104.503H16.9198C16.4594 104.503 16.0862 104.876 16.0862 105.337V105.807C16.0862 106.268 16.4594 106.641 16.9198 106.641H28.5733C29.0337 106.641 29.4069 106.268 29.4069 105.807V105.337C29.4069 104.876 29.0337 104.503 28.5733 104.503Z" fill="#2E353A"/>
<path opacity="0.2" d="M28.5733 104.503H16.9198C16.4594 104.503 16.0862 104.876 16.0862 105.337V105.807C16.0862 106.268 16.4594 106.641 16.9198 106.641H28.5733C29.0337 106.641 29.4069 106.268 29.4069 105.807V105.337C29.4069 104.876 29.0337 104.503 28.5733 104.503Z" fill="white"/>
<path d="M69.5574 95.1958L56.5459 90.5639L69.5574 85.9355C69.6243 85.9171 69.6866 85.8852 69.7405 85.8417C69.7945 85.7981 69.8388 85.744 69.8709 85.6825C69.903 85.6211 69.922 85.5537 69.9269 85.4846C69.9317 85.4155 69.9223 85.3461 69.8991 85.2808C69.876 85.2154 69.8396 85.1556 69.7923 85.105C69.7449 85.0543 69.6877 85.014 69.6241 84.9865C69.5605 84.959 69.4919 84.9449 69.4226 84.9451C69.3533 84.9453 69.2848 84.9597 69.2213 84.9876L55.0434 90.0295L40.8689 84.9876C40.8055 84.9597 40.737 84.9453 40.6677 84.9451C40.5984 84.9449 40.5298 84.959 40.4661 84.9865C40.4025 85.014 40.3453 85.0543 40.298 85.105C40.2506 85.1556 40.2143 85.2154 40.1911 85.2808C40.1679 85.3461 40.1585 85.4155 40.1634 85.4846C40.1682 85.5537 40.1873 85.6211 40.2193 85.6825C40.2514 85.744 40.2958 85.7981 40.3497 85.8417C40.4036 85.8852 40.466 85.9171 40.5328 85.9355L53.5376 90.5639L40.5294 95.1958C40.4626 95.2141 40.4003 95.2461 40.3464 95.2896C40.2924 95.3331 40.248 95.3873 40.216 95.4487C40.1839 95.5101 40.1648 95.5775 40.16 95.6467C40.1551 95.7158 40.1646 95.7852 40.1877 95.8505C40.2109 95.9158 40.2473 95.9756 40.2946 96.0263C40.3419 96.0769 40.3992 96.1172 40.4628 96.1447C40.5264 96.1723 40.595 96.1863 40.6643 96.1862C40.7336 96.186 40.8021 96.1715 40.8656 96.1437L55.0401 91.1017L69.218 96.1437C69.2814 96.1715 69.3499 96.186 69.4192 96.1862C69.4885 96.1863 69.5571 96.1723 69.6207 96.1447C69.6843 96.1172 69.7416 96.0769 69.7889 96.0263C69.8362 95.9756 69.8726 95.9158 69.8958 95.8505C69.9189 95.7852 69.9284 95.7158 69.9235 95.6467C69.9187 95.5775 69.8996 95.5101 69.8675 95.4487C69.8355 95.3873 69.7911 95.3331 69.7372 95.2896C69.6832 95.2461 69.6209 95.2141 69.5541 95.1958H69.5574Z" fill="#2E353A"/>
<path opacity="0.3" d="M69.5574 95.1958L56.5459 90.5639L69.5574 85.9355C69.6243 85.9171 69.6866 85.8852 69.7405 85.8417C69.7945 85.7981 69.8388 85.744 69.8709 85.6825C69.903 85.6211 69.922 85.5537 69.9269 85.4846C69.9317 85.4155 69.9223 85.3461 69.8991 85.2808C69.876 85.2154 69.8396 85.1556 69.7923 85.105C69.7449 85.0543 69.6877 85.014 69.6241 84.9865C69.5605 84.959 69.4919 84.9449 69.4226 84.9451C69.3533 84.9453 69.2848 84.9597 69.2213 84.9876L55.0434 90.0295L40.8689 84.9876C40.8055 84.9597 40.737 84.9453 40.6677 84.9451C40.5984 84.9449 40.5298 84.959 40.4661 84.9865C40.4025 85.014 40.3453 85.0543 40.298 85.105C40.2506 85.1556 40.2143 85.2154 40.1911 85.2808C40.1679 85.3461 40.1585 85.4155 40.1634 85.4846C40.1682 85.5537 40.1873 85.6211 40.2193 85.6825C40.2514 85.744 40.2958 85.7981 40.3497 85.8417C40.4036 85.8852 40.466 85.9171 40.5328 85.9355L53.5376 90.5639L40.5294 95.1958C40.4626 95.2141 40.4003 95.2461 40.3464 95.2896C40.2924 95.3331 40.248 95.3873 40.216 95.4487C40.1839 95.5101 40.1648 95.5775 40.16 95.6467C40.1551 95.7158 40.1646 95.7852 40.1877 95.8505C40.2109 95.9158 40.2473 95.9756 40.2946 96.0263C40.3419 96.0769 40.3992 96.1172 40.4628 96.1447C40.5264 96.1723 40.595 96.1863 40.6643 96.1862C40.7336 96.186 40.8021 96.1715 40.8656 96.1437L55.0401 91.1017L69.218 96.1437C69.2814 96.1715 69.3499 96.186 69.4192 96.1862C69.4885 96.1863 69.5571 96.1723 69.6207 96.1447C69.6843 96.1172 69.7416 96.0769 69.7889 96.0263C69.8362 95.9756 69.8726 95.9158 69.8958 95.8505C69.9189 95.7852 69.9284 95.7158 69.9235 95.6467C69.9187 95.5775 69.8996 95.5101 69.8675 95.4487C69.8355 95.3873 69.7911 95.3331 69.7372 95.2896C69.6832 95.2461 69.6209 95.2141 69.5541 95.1958H69.5574Z" fill="white"/>
<path d="M58.3443 53.946C58.2106 53.946 58.0823 53.8929 57.9878 53.7984C57.8932 53.7038 57.8401 53.5756 57.8401 53.4418V49.5797C57.8392 48.8399 58.1234 48.1282 58.6335 47.5924C59.1437 47.0566 59.8406 46.7379 60.5795 46.7025L63.8366 46.5445C63.9703 46.5383 64.1011 46.5854 64.2 46.6755C64.299 46.7657 64.3581 46.8914 64.3643 47.0252C64.3706 47.1589 64.3234 47.2896 64.2333 47.3886C64.1432 47.4875 64.0174 47.5466 63.8837 47.5529L60.63 47.7109C60.1496 47.7333 59.6964 47.9401 59.3646 48.2882C59.0328 48.6363 58.8479 49.0989 58.8485 49.5797V53.4418C58.8485 53.5756 58.7954 53.7038 58.7008 53.7984C58.6062 53.8929 58.478 53.946 58.3443 53.946Z" fill="#263238"/>
<path d="M38.8118 105.999C37.5446 105.999 36.5127 107.263 36.5127 108.819C36.5127 110.375 37.5446 111.636 38.8118 111.636C40.079 111.636 41.1143 110.372 41.1143 108.819C41.1143 107.266 40.0824 105.999 38.8118 105.999Z" fill="#2E353A"/>
<path d="M38.8118 110.631C38.1127 110.631 37.5211 109.801 37.5211 108.819C37.5211 107.838 38.1127 107.007 38.8118 107.007C39.511 107.007 40.1059 107.834 40.1059 108.819C40.1059 109.804 39.5211 110.631 38.8118 110.631Z" fill="#72716D"/>
<path d="M38.5128 108.953V105.767H40.7951L39.5951 109.128C39.5568 109.236 39.4857 109.33 39.3918 109.397C39.2979 109.463 39.1857 109.498 39.0707 109.498C38.925 109.498 38.7851 109.441 38.6809 109.339C38.5766 109.237 38.5163 109.099 38.5128 108.953Z" fill="#2E353A"/>
<path opacity="0.6" d="M38.5128 108.953V105.767H40.7951L39.5951 109.128C39.5568 109.236 39.4857 109.33 39.3918 109.397C39.2979 109.463 39.1857 109.498 39.0707 109.498C38.925 109.498 38.7851 109.441 38.6809 109.339C38.5766 109.237 38.5163 109.099 38.5128 108.953Z" fill="white"/>
<path d="M47.1982 66.6988L46.1058 68.6282C46.1058 68.6282 30.0154 68.6517 26.8591 71.8416C23.7029 75.0314 19.5786 84.9506 19.5786 84.9506L25.7163 87.2564L32.5666 77.4549L53.9309 78.8633L56.0182 66.3997L47.1982 66.6988Z" fill="#263238"/>
<path opacity="0.2" d="M56.0216 66.3896L53.9343 78.8533L41.6353 78.0432L32.5599 77.4449L29.686 81.5625L25.7062 87.2766L19.5652 84.9708C19.5652 84.9708 23.6895 75.055 26.8491 71.8618C30.0087 68.6686 46.0958 68.6484 46.0958 68.6484L47.1882 66.7191L56.0216 66.3896Z" fill="white"/>
<path opacity="0.2" d="M41.6353 78.0432L32.5599 77.4449L29.686 81.5625C29.2591 79.2398 28.7952 73.9727 30.0221 72.2047C31.6053 69.9123 41.9479 69.3375 46.7848 69.6635C49.6452 69.8551 46.5798 74.3794 41.6353 78.0432Z" fill="black"/>
<path d="M50.331 47.8387C49.6049 52.4336 48.8453 56.9781 47.494 61.4654C46.6436 64.2183 39.4707 66.5308 36.8489 67.3375C36.6069 67.4092 36.3471 67.3901 36.1183 67.2837C35.8895 67.1774 35.7074 66.9911 35.6062 66.7599C35.5051 66.5287 35.4918 66.2685 35.569 66.0283C35.6462 65.788 35.8085 65.5842 36.0254 65.4552C37.7665 64.4199 39.5379 63.3847 41.2051 62.3225C42.0723 61.7612 43.558 60.7864 43.9714 60.2183C43.9478 60.2639 43.9276 60.311 43.9109 60.3595C43.9109 60.336 43.9512 60.1847 43.958 60.1545C44.8722 55.9058 45.4437 51.4757 46.2302 47.1766C46.7848 44.5245 50.6368 45.1363 50.331 47.8488V47.8387Z" fill="#DD8A7D"/>
<path d="M48.9326 43.5496C46.5797 43.8857 45.2688 45.7546 44.3008 53.7241L50.4183 55.1695C50.4183 55.1695 52.2132 50.3393 52.146 48.0402C52.0788 45.7411 48.9326 43.5496 48.9326 43.5496Z" fill="#72716D"/>
<path opacity="0.2" d="M50.4116 55.1695L49.6486 54.988L46.1058 54.151L44.2975 53.7241C45.2622 45.7546 46.5563 43.8823 48.926 43.5496C48.926 43.5496 52.0755 45.7445 52.1427 48.0402C52.2099 50.336 50.4116 55.1695 50.4116 55.1695Z" fill="white"/>
<path opacity="0.2" d="M49.6486 54.988L46.1058 54.151C46.4218 52.7124 47.3495 49.2705 49.1075 48.7125C50.8654 48.1545 52.4217 53.6872 49.6486 54.988Z" fill="black"/>
<path d="M37.5548 103.088L40.8421 102.288L40.6337 99.0781L40.4321 96.137L36.4254 96.6647L37.0204 100.066L37.5548 103.088Z" fill="#E4897B"/>
<path opacity="0.2" d="M37.037 100.134L40.6471 99.1386L40.442 96.1672L36.4286 96.6781L37.037 100.134Z" fill="black"/>
<path d="M40.9665 101.417C40.9497 101.169 37.0203 101.505 37.0203 101.505C37.0203 101.505 34.6675 103.522 32.3314 104.032C29.9953 104.543 31.3499 105.606 33.9784 105.515L40.4791 105.279C42.348 105.212 41.1346 104.009 40.9665 101.417Z" fill="#2E353A"/>
<path d="M63.05 66.5811C63.05 66.5811 64.5324 76.8363 61.0803 80.5404C57.6283 84.2446 40.0723 78.9237 39.5413 79.1959C39.0102 79.4682 40.8421 97.9586 40.8421 97.9586L35.6859 98.7082C35.6859 98.7082 30.086 79.8077 30.2104 74.3187C30.3347 68.8298 49.0335 69.4449 49.0335 69.4449L50.1125 66.5811H63.05Z" fill="#2E353A"/>
<path opacity="0.2" d="M63.05 66.5811C63.05 66.5811 64.5324 76.8363 61.0803 80.5404C57.6283 84.2446 40.0723 78.9237 39.5413 79.1959C39.0102 79.4682 40.8421 97.9586 40.8421 97.9586L35.6859 98.7082C35.6859 98.7082 30.086 79.8077 30.2104 74.3187C30.3347 68.8298 49.0335 69.4449 49.0335 69.4449L50.1125 66.5811H63.05Z" fill="white"/>
<path d="M63.1205 66.6987C63.5407 57.6603 66.1995 44.8706 66.1995 44.8706C58.8248 43.0925 48.9225 43.5261 48.9225 43.5261C46.9931 50.4268 47.0301 61.5627 47.1982 66.6853L63.1205 66.6987Z" fill="#72716D"/>
<path opacity="0.2" d="M63.1172 66.6987C63.255 63.7845 63.6214 60.4804 64.0584 57.341C64.3071 55.5528 64.5794 53.8183 64.8415 52.2385C65.5508 47.9932 66.1861 44.8706 66.1861 44.8706C58.8114 43.0925 48.9124 43.5261 48.9124 43.5261C46.9831 50.4268 47.0167 61.5627 47.1847 66.6853L63.1172 66.6987Z" fill="white"/>
<path opacity="0.2" d="M64.8416 52.2452C64.5794 53.825 64.3071 55.5594 64.0584 57.3476C63.5613 56.4118 63.2762 55.378 63.2233 54.3196C63.1705 53.2612 63.3511 52.2041 63.7525 51.2234L64.8416 52.2452Z" fill="black"/>
<path d="M60.3611 43.8825C58.9964 45.1228 55.6553 44.6657 55.6553 44.6657C55.6553 44.6657 53.5679 44.0942 54.0049 43.4421C55.2351 43.2371 55.8301 42.6657 56.0755 41.9296C56.2112 41.4756 56.2535 40.9987 56.1998 40.5279C56.1795 40.2642 56.1458 40.0017 56.099 39.7414L60.23 36.6826C59.6888 38.7027 59.0166 42.4203 60.3611 43.8825Z" fill="#E4897B"/>
<path opacity="0.2" d="M59.2619 38.6287C59.0972 41.1059 57.0603 41.7916 56.062 41.9294C56.1977 41.4754 56.24 40.9986 56.1863 40.5278L59.2619 38.6287Z" fill="black"/>
<path d="M52.9359 30.3298C52.9359 30.3298 51.7998 34.1919 53.6855 35.9969C55.5712 37.802 56.5762 30.4542 56.5762 30.4542L52.9359 30.3298Z" fill="#263238"/>
<path d="M59.3526 39.9598C58.8259 40.55 58.1197 40.9507 57.3429 41.1001C56.5661 41.2495 55.7616 41.1394 55.0536 40.7866C54.1302 40.3482 53.4088 39.574 53.0368 38.622C52.9833 38.4902 52.9373 38.3556 52.899 38.2186C52.1965 35.6674 52.4452 31.4053 55.2115 30.1717C55.821 29.8964 56.4908 29.7816 57.1572 29.8383C57.8235 29.895 58.4643 30.1213 59.0185 30.4956C59.5727 30.8699 60.022 31.3798 60.3234 31.9767C60.6249 32.5737 60.7686 33.2379 60.7408 33.9061C60.6434 36.7834 60.7375 38.464 59.3526 39.9598Z" fill="#E4897B"/>
<path d="M56.4014 34.8506C56.425 35.0826 56.2939 35.2775 56.1393 35.2809C55.9846 35.2842 55.8569 35.0994 55.8502 34.8674C55.8435 34.6355 55.9611 34.4439 56.1124 34.4372C56.2636 34.4305 56.3914 34.6153 56.4014 34.8506Z" fill="#263238"/>
<path d="M53.7696 34.938C53.7931 35.1699 53.6587 35.3649 53.5074 35.3683C53.3562 35.3716 53.2251 35.1867 53.215 34.9548C53.2049 34.7229 53.3259 34.5313 53.4772 34.5246C53.6284 34.5179 53.7595 34.7195 53.7696 34.938Z" fill="#263238"/>
<path d="M54.6099 35.0254C54.355 35.7428 54.0021 36.4215 53.5612 37.0422C53.7253 37.1519 53.9115 37.2242 54.1067 37.2538C54.3019 37.2834 54.5013 37.2697 54.6905 37.2136L54.6099 35.0254Z" fill="#DE5753"/>
<path d="M52.7544 33.8458C52.7762 33.8588 52.8012 33.8657 52.8266 33.8657C52.8521 33.8657 52.877 33.8588 52.8989 33.8458C53.0389 33.7474 53.1997 33.6828 53.3689 33.6572C53.538 33.6315 53.7108 33.6454 53.8737 33.6979C53.8899 33.7056 53.9075 33.7098 53.9255 33.7104C53.9435 33.711 53.9614 33.7079 53.9781 33.7013C53.9948 33.6947 54.0099 33.6847 54.0226 33.6719C54.0353 33.6592 54.0452 33.644 54.0518 33.6273C54.059 33.611 54.0629 33.5934 54.0632 33.5756C54.0636 33.5577 54.0604 33.54 54.0538 33.5234C54.0472 33.5069 54.0374 33.4917 54.025 33.479C54.0125 33.4662 53.9976 33.4561 53.9812 33.4491C53.777 33.3761 53.5582 33.3536 53.3434 33.3834C53.1286 33.4133 52.9242 33.4946 52.7476 33.6206C52.7323 33.6295 52.7189 33.6415 52.7083 33.6558C52.6978 33.6701 52.6902 33.6863 52.6861 33.7036C52.682 33.7209 52.6815 33.7389 52.6846 33.7564C52.6876 33.7739 52.6942 33.7906 52.7039 33.8054C52.7183 33.8216 52.7354 33.8353 52.7544 33.8458Z" fill="#263238"/>
<path d="M56.8854 33.7819C56.9135 33.7791 56.9402 33.7686 56.9627 33.7517C56.9742 33.7378 56.9828 33.7219 56.988 33.7047C56.9933 33.6875 56.995 33.6695 56.9931 33.6516C56.9912 33.6337 56.9858 33.6164 56.9771 33.6007C56.9684 33.585 56.9567 33.5712 56.9426 33.5601C56.7749 33.4208 56.5764 33.3237 56.3635 33.2769C56.1506 33.2301 55.9297 33.235 55.7191 33.2912C55.6849 33.3033 55.6568 33.3285 55.6411 33.3613C55.6254 33.394 55.6232 33.4316 55.635 33.4659C55.6472 33.4994 55.6719 33.5268 55.7038 33.5425C55.7358 33.5581 55.7726 33.5608 55.8065 33.55C55.974 33.5109 56.1483 33.5112 56.3157 33.5509C56.4831 33.5905 56.639 33.6685 56.7712 33.7785C56.7888 33.7875 56.8082 33.7924 56.8279 33.793C56.8477 33.7936 56.8673 33.7898 56.8854 33.7819Z" fill="#263238"/>
<path d="M58.4988 30.397L58.3274 31.6575C58.5389 31.7623 58.7031 31.943 58.7872 32.1636C58.8713 32.3841 58.8692 32.6283 58.7812 32.8473C58.3576 33.9028 58.9391 35.5565 59.7425 36.2254C59.7425 36.2254 59.7727 35.7649 60.1593 35.8893C60.5458 36.0137 60.4047 38.3968 59.6316 39.5296C59.6316 39.5296 60.7912 38.5212 61.4735 36.0069C62.1055 33.6944 62.2063 31.7583 61.7425 30.8507L58.4988 30.397Z" fill="#263238"/>
<path d="M62.0417 36.2086C61.8954 36.5347 61.6862 36.8288 61.4261 37.074C61.166 37.3191 60.86 37.5105 60.5257 37.6371C59.6316 37.9733 59.1039 37.1901 59.2821 36.2926C59.4501 35.5061 60.1089 34.3565 61.0434 34.4137C61.9778 34.4708 62.398 35.3985 62.0417 36.2086Z" fill="#E4897B"/>
<path d="M58.3443 31.6676C58.3443 31.6676 51.7797 32.9717 53.0671 28.8374C53.0671 28.8374 56.7208 27.2912 59.6014 28.2458C62.482 29.2004 61.8367 32.2289 61.8367 32.2289L58.3443 31.6676Z" fill="#263238"/>
<path d="M54.9494 38.6052C54.9283 38.6098 54.9065 38.6098 54.8855 38.6052C54.8573 38.5872 54.837 38.5591 54.8289 38.5266C54.8207 38.494 54.8254 38.4597 54.8418 38.4305C54.8653 38.3935 55.4132 37.5364 56.9258 37.4792C56.9441 37.4762 56.9628 37.4772 56.9806 37.4822C56.9985 37.4872 57.015 37.4959 57.0291 37.5079C57.0433 37.5199 57.0546 37.5348 57.0624 37.5516C57.0701 37.5684 57.0742 37.5867 57.0742 37.6053C57.0742 37.6238 57.0701 37.6421 57.0624 37.6589C57.0546 37.6757 57.0433 37.6906 57.0291 37.7026C57.015 37.7146 56.9985 37.7234 56.9806 37.7283C56.9628 37.7333 56.9441 37.7343 56.9258 37.7313C55.5544 37.7817 55.067 38.5313 55.0468 38.5649C55.0345 38.5784 55.0194 38.589 55.0026 38.5959C54.9857 38.6029 54.9676 38.6061 54.9494 38.6052Z" fill="#263238"/>
<path d="M53.2149 39.0556C53.2149 39.0556 54.2233 40.4438 55.6283 40.4774C57.0334 40.511 59.3694 37.9497 60.7207 38.0338L61.0938 38.4808C61.0938 38.4808 60.6938 41.6673 61.0938 42.4202C61.4938 43.1732 62.8215 44.0168 62.8215 44.0168V44.232C62.8215 44.232 59.3661 47.4554 55.1981 46.6218C51.0301 45.7882 51.4604 43.5059 51.4604 43.5059L51.8738 43.2236C51.8738 43.2236 53.1007 42.6421 53.3729 41.8018C53.6452 40.9614 52.8855 39.3312 52.8855 39.3312L53.2149 39.0556Z" fill="#72716D"/>
<path opacity="0.6" d="M53.2149 39.0556C53.2149 39.0556 54.2233 40.4438 55.6283 40.4774C57.0334 40.511 59.3694 37.9497 60.7207 38.0338L61.0938 38.4808C61.0938 38.4808 60.6938 41.6673 61.0938 42.4202C61.4938 43.1732 62.8215 44.0168 62.8215 44.0168V44.232C62.8215 44.232 59.3661 47.4554 55.1981 46.6218C51.0301 45.7882 51.4604 43.5059 51.4604 43.5059L51.8738 43.2236C51.8738 43.2236 53.1007 42.6421 53.3729 41.8018C53.6452 40.9614 52.8855 39.3312 52.8855 39.3312L53.2149 39.0556Z" fill="white"/>
<path opacity="0.1" d="M60.0248 38.1648L60.361 38.753C60.361 38.753 60.2164 41.5093 60.361 42.3966C60.5055 43.284 61.8601 44.4605 61.8601 44.4605V44.9848L61.682 44.5243C61.228 44.2687 60.8422 43.9079 60.5567 43.4721C60.2713 43.0363 60.0946 42.5384 60.0417 42.0202C59.9634 40.9715 60.0142 39.9171 60.1929 38.8807L60.0248 38.1648Z" fill="black"/>
<path d="M59.3863 40.2791L60.7106 39.8052V40.4707L59.3863 40.9581V40.2791Z" fill="white"/>
<path d="M61.4232 43.2168L61.3761 43.2437L60.1795 43.8991L60.5627 44.5243L61.8467 43.684" fill="white"/>
<path d="M36.2439 65.2703L33.4372 65.6064L35.3094 68.6517C35.3094 68.6517 37.6354 67.8484 37.3262 66.5644L36.2439 65.2703Z" fill="#E4897B"/>
<path d="M31.7834 67.2199L33.4506 69.6635L35.3094 68.6383L33.4372 65.593L31.7834 67.2199Z" fill="#E4897B"/>
<path d="M67.7256 47.4219C68.6029 50.8572 70.2667 58.4301 66.8012 60.8234C63.6147 62.7427 58.2165 61.5191 54.8788 60.5074C54.6283 60.4366 54.4138 60.2737 54.2783 60.0514C54.1428 59.8292 54.0964 59.5639 54.1483 59.3088C54.2001 59.0537 54.3465 58.8277 54.558 58.6759C54.7695 58.5242 55.0306 58.458 55.2888 58.4906C56.1829 58.5343 57.1207 58.5848 58.0283 58.5948C60.0988 58.5948 62.3542 58.6822 64.2634 57.9696C64.4113 57.9089 64.5504 57.8287 64.6769 57.731C64.5458 57.8184 64.7172 57.5865 64.7609 57.2436C65.097 54.3764 64.3004 51.2605 63.7021 48.4438C63.1778 45.8052 66.9155 44.8539 67.7356 47.4354L67.7256 47.4219Z" fill="#DD8A7D"/>
<path d="M66.1995 44.8809C68.2734 45.5531 69.1306 48.027 69.7659 54.5983L64.0248 55.1025C64.0248 55.1025 62.3442 50.4135 62.6467 47.9027C62.9492 45.3918 66.1995 44.8809 66.1995 44.8809Z" fill="#72716D"/>
<path opacity="0.2" d="M66.1995 44.8809C68.2734 45.5531 69.1306 48.027 69.7659 54.5983L64.0248 55.1025C64.0248 55.1025 62.3442 50.4135 62.6467 47.9027C62.9492 45.3918 66.1995 44.8809 66.1995 44.8809Z" fill="white"/>
<path d="M50.8553 56.5142C49.5276 56.5881 48.9932 59.0217 49.1276 60.9175C49.2621 62.8132 52.983 62.5443 52.983 62.5443C52.983 62.5443 61.4938 64.4502 65.9239 63.3846C70.3541 62.3191 69.7356 56.1176 69.7356 56.1176C69.7356 56.1176 69.0634 55.7814 66.5021 55.61C63.9408 55.4386 63.7055 55.8957 63.7055 55.8957C63.7055 55.8957 64.0416 56.9948 63.208 57.3511C62.3744 57.7074 54.0452 56.3394 50.8553 56.5142Z" fill="#72716D"/>
<path opacity="0.6" d="M50.8553 56.5142C49.5276 56.5881 48.9932 59.0217 49.1276 60.9175C49.2621 62.8132 52.983 62.5443 52.983 62.5443C52.983 62.5443 61.4938 64.4502 65.9239 63.3846C70.3541 62.3191 69.7356 56.1176 69.7356 56.1176C69.7356 56.1176 69.0634 55.7814 66.5021 55.61C63.9408 55.4386 63.7055 55.8957 63.7055 55.8957C63.7055 55.8957 64.0416 56.9948 63.208 57.3511C62.3744 57.7074 54.0452 56.3394 50.8553 56.5142Z" fill="white"/>
<path d="M51.1511 43.3716C51.1511 43.3716 51.8569 46.985 54.2031 51.8319C56.7409 57.0822 61.8467 60.1511 61.8467 60.1511L60.7206 60.9174C60.7206 60.9174 55.9409 57.3511 53.1141 52.1445C51.6839 49.4327 50.6967 46.5095 50.1898 43.4859L51.1511 43.3716Z" fill="#263238"/>
<path d="M60.976 61.2367L62.2466 60.4031C62.2466 60.4031 64.2331 61.0753 65.6079 60.9174C66.9826 60.7594 67.991 60.7358 68.8549 61.5694C68.2881 62.3634 67.5326 63.0038 66.6565 63.4327C65.7803 63.8617 64.8112 64.0658 63.8365 64.0265C60.3777 63.9627 59.2551 63.7072 59.2551 63.7072C59.2176 63.3824 59.3107 63.0559 59.5139 62.7997C59.8534 62.4333 60.976 61.2367 60.976 61.2367Z" fill="#72716D"/>
<path d="M60.9391 61.6165C60.8801 61.6167 60.8217 61.6038 60.7683 61.5789C60.7148 61.5539 60.6675 61.5174 60.6298 61.4719L60.4214 61.2199C60.3845 61.1775 60.3572 61.1276 60.3416 61.0736C60.3259 61.0196 60.3222 60.9628 60.3307 60.9072C60.3386 60.8519 60.3579 60.7989 60.3875 60.7514C60.417 60.704 60.456 60.6632 60.5021 60.6316L61.5945 59.8753C61.6702 59.8231 61.7614 59.7983 61.8531 59.805C61.9448 59.8118 62.0315 59.8496 62.0987 59.9123L62.3475 60.1442C62.3933 60.1864 62.4285 60.2389 62.4502 60.2973C62.4718 60.3558 62.4792 60.4185 62.4718 60.4804C62.4684 60.5401 62.4511 60.5982 62.4213 60.6501C62.3916 60.702 62.3502 60.7463 62.3004 60.7795L61.1643 61.556C61.097 61.5983 61.0185 61.6193 60.9391 61.6165ZM60.6903 60.9072C60.6828 60.9128 60.6766 60.9198 60.6719 60.9279C60.6673 60.936 60.6644 60.945 60.6635 60.9543C60.6585 60.9708 60.6585 60.9883 60.6635 61.0047L60.8719 61.2568C60.8843 61.2682 60.9004 61.2744 60.9172 61.2744C60.934 61.2744 60.9502 61.2682 60.9626 61.2568L62.0954 60.4837C62.1039 60.4782 62.1111 60.4707 62.1163 60.462C62.1215 60.4533 62.1247 60.4435 62.1256 60.4333C62.1264 60.4234 62.125 60.4135 62.1216 60.4042C62.1181 60.3949 62.1126 60.3865 62.1054 60.3795L61.8567 60.1476C61.8448 60.1381 61.83 60.1329 61.8147 60.1329C61.7994 60.1329 61.7846 60.1381 61.7727 60.1476L60.6903 60.9072Z" fill="white"/>
<path d="M21.4845 78.5002L30.0255 82.6884C30.0255 82.6884 20.2441 100.09 18.6509 101.024C17.0577 101.959 6.33517 98.3587 6.28811 97.0276C6.24106 95.6966 7.47801 93.2899 7.47801 93.2899L13.6863 93.8243L21.4845 78.5002Z" fill="#72716D"/>
<path opacity="0.6" d="M21.4845 78.5002L30.0255 82.6884C30.0255 82.6884 20.2441 100.09 18.6509 101.024C17.0577 101.959 6.33517 98.3587 6.28811 97.0276C6.24106 95.6966 7.47801 93.2899 7.47801 93.2899L13.6863 93.8243L21.4845 78.5002Z" fill="white"/>
<path d="M47.5882 74.3189H46.2437V69.4148C46.2445 68.8119 46.4847 68.2339 46.9113 67.8079C47.338 67.3819 47.9163 67.1426 48.5192 67.1426H72.4616V68.4871H48.5327C48.2863 68.4871 48.05 68.5847 47.8755 68.7586C47.701 68.9325 47.6025 69.1684 47.6016 69.4148L47.5882 74.3189Z" fill="#263238"/>
<g opacity="0.4">
<path d="M47.5882 74.3189H46.2437V69.4148C46.2445 68.8119 46.4847 68.2339 46.9113 67.8079C47.338 67.3819 47.9163 67.1426 48.5192 67.1426H72.4616V68.4871H48.5327C48.2863 68.4871 48.05 68.5847 47.8755 68.7586C47.701 68.9325 47.6025 69.1684 47.6016 69.4148L47.5882 74.3189Z" fill="white"/>
</g>
<path d="M72.4617 53.946C72.3279 53.946 72.1997 53.8929 72.1051 53.7984C72.0106 53.7038 71.9575 53.5756 71.9575 53.4418V49.5797C71.9566 48.8399 72.2408 48.1282 72.7509 47.5924C73.261 47.0566 73.9579 46.7379 74.6969 46.7025L77.954 46.5445C78.0202 46.5414 78.0864 46.5514 78.1487 46.5739C78.2111 46.5964 78.2684 46.6309 78.3174 46.6755C78.3664 46.7202 78.4061 46.774 78.4343 46.834C78.4625 46.894 78.4786 46.9589 78.4817 47.0252C78.4848 47.0914 78.4748 47.1575 78.4523 47.2199C78.4298 47.2822 78.3953 47.3396 78.3507 47.3886C78.306 47.4376 78.2522 47.4773 78.1922 47.5055C78.1322 47.5337 78.0673 47.5498 78.001 47.5529L74.7473 47.7109C74.267 47.7333 73.8138 47.9401 73.482 48.2882C73.1502 48.6363 72.9653 49.0989 72.9658 49.5797V53.4418C72.9658 53.5756 72.9127 53.7038 72.8182 53.7984C72.7236 53.8929 72.5954 53.946 72.4617 53.946Z" fill="#263238"/>
<path d="M71.6313 51.5999V72.413H45.7495C45.0791 72.413 44.4362 72.6793 43.9621 73.1533C43.4881 73.6273 43.2218 74.2702 43.2218 74.9406V86.1606H70.2667C70.6682 86.161 71.0658 86.0823 71.4369 85.929C71.808 85.7756 72.1452 85.5506 72.4293 85.2669C72.7134 84.9831 72.9388 84.6461 73.0925 84.2752C73.2463 83.9043 73.3254 83.5067 73.3254 83.1052V51.5999C73.3245 51.3741 73.2342 51.1578 73.0742 50.9984C72.9141 50.839 72.6975 50.7495 72.4716 50.7495C72.2481 50.753 72.0349 50.8441 71.8778 51.0031C71.7207 51.1621 71.6322 51.3764 71.6313 51.5999Z" fill="#2E353A"/>
<path opacity="0.4" d="M71.6313 51.5999V72.413H45.7495C45.0791 72.413 44.4362 72.6793 43.9621 73.1533C43.4881 73.6273 43.2218 74.2702 43.2218 74.9406V86.1606H70.2667C70.6682 86.161 71.0658 86.0823 71.4369 85.929C71.808 85.7756 72.1452 85.5506 72.4293 85.2669C72.7134 84.9831 72.9388 84.6461 73.0925 84.2752C73.2463 83.9043 73.3254 83.5067 73.3254 83.1052V51.5999C73.3245 51.3741 73.2342 51.1578 73.0742 50.9984C72.9141 50.839 72.6975 50.7495 72.4716 50.7495C72.2481 50.753 72.0349 50.8441 71.8778 51.0031C71.7207 51.1621 71.6322 51.3764 71.6313 51.5999Z" fill="white"/>
<path d="M69.4062 79.9121H46.2436C45.5073 79.9121 44.8011 80.2046 44.2804 80.7253C43.7597 81.246 43.4672 81.9522 43.4672 82.6885V104.392C43.4672 104.722 43.3362 105.038 43.1029 105.272C42.8697 105.505 42.5534 105.636 42.2235 105.636H35.7968C35.6185 105.636 35.4475 105.707 35.3214 105.833C35.1953 105.959 35.1245 106.13 35.1245 106.308C35.1245 106.487 35.1953 106.658 35.3214 106.784C35.4475 106.91 35.6185 106.98 35.7968 106.98H42.2269C42.9131 106.98 43.5709 106.707 44.056 106.221C44.5412 105.736 44.8142 105.078 44.8151 104.392V96.342H69.4062C69.5845 96.342 69.7555 96.2712 69.8816 96.1451C70.0076 96.0191 70.0785 95.8481 70.0785 95.6698V80.5844C70.0785 80.4061 70.0076 80.2351 69.8816 80.109C69.7555 79.9829 69.5845 79.9121 69.4062 79.9121ZM68.7339 94.9975H44.8151V82.6885C44.8151 82.3088 44.9659 81.9446 45.2345 81.676C45.503 81.4075 45.8672 81.2566 46.247 81.2566H68.7339V94.9975Z" fill="#2E353A"/>
<path opacity="0.6" d="M69.4062 79.9121H46.2436C45.5073 79.9121 44.8011 80.2046 44.2804 80.7253C43.7597 81.246 43.4672 81.9522 43.4672 82.6885V104.392C43.4672 104.722 43.3362 105.038 43.1029 105.272C42.8697 105.505 42.5534 105.636 42.2235 105.636H35.7968C35.6185 105.636 35.4475 105.707 35.3214 105.833C35.1953 105.959 35.1245 106.13 35.1245 106.308C35.1245 106.487 35.1953 106.658 35.3214 106.784C35.4475 106.91 35.6185 106.98 35.7968 106.98H42.2269C42.9131 106.98 43.5709 106.707 44.056 106.221C44.5412 105.736 44.8142 105.078 44.8151 104.392V96.342H69.4062C69.5845 96.342 69.7555 96.2712 69.8816 96.1451C70.0076 96.0191 70.0785 95.8481 70.0785 95.6698V80.5844C70.0785 80.4061 70.0076 80.2351 69.8816 80.109C69.7555 79.9829 69.5845 79.9121 69.4062 79.9121ZM68.7339 94.9975H44.8151V82.6885C44.8151 82.3088 44.9659 81.9446 45.2345 81.676C45.503 81.4075 45.8672 81.2566 46.247 81.2566H68.7339V94.9975Z" fill="white"/>
<path d="M41.6857 104.503H31.0439C30.5835 104.503 30.2103 104.876 30.2103 105.337V105.807C30.2103 106.268 30.5835 106.641 31.0439 106.641H41.6857C42.1461 106.641 42.5193 106.268 42.5193 105.807V105.337C42.5193 104.876 42.1461 104.503 41.6857 104.503Z" fill="#2E353A"/>
<path opacity="0.4" d="M41.6857 104.503H31.0439C30.5835 104.503 30.2103 104.876 30.2103 105.337V105.807C30.2103 106.268 30.5835 106.641 31.0439 106.641H41.6857C42.1461 106.641 42.5193 106.268 42.5193 105.807V105.337C42.5193 104.876 42.1461 104.503 41.6857 104.503Z" fill="white"/>
<path d="M69.386 111.636C62.203 111.636 56.3577 104.473 56.3577 95.6696C56.3577 86.8664 62.203 79.7002 69.386 79.7002C76.5691 79.7002 82.4177 86.8631 82.4177 95.6696C82.4177 104.476 76.5725 111.636 69.386 111.636ZM69.386 81.3842C63.1273 81.3842 58.0384 87.7942 58.0384 95.673C58.0384 103.552 63.1273 109.958 69.386 109.958C75.6448 109.958 80.7371 103.552 80.7371 95.673C80.7371 87.7942 75.6448 81.3808 69.386 81.3808V81.3842Z" fill="#2E353A"/>
<path d="M69.386 110.123C63.0366 110.123 57.8703 103.639 57.8703 95.6696C57.8703 87.7 63.0366 81.2161 69.386 81.2161C75.7355 81.2161 80.9051 87.7033 80.9051 95.6696C80.9051 103.636 75.7389 110.123 69.386 110.123ZM69.386 83.2328C64.1492 83.2328 59.8871 88.8126 59.8871 95.6696C59.8871 102.527 64.1492 108.106 69.386 108.106C74.6229 108.106 78.8884 102.527 78.8884 95.6696C78.8884 88.8126 74.6263 83.2295 69.386 83.2295V83.2328Z" fill="#72716D"/>
<path d="M69.3861 99.6258C71.0754 99.6258 72.4449 97.8546 72.4449 95.6696C72.4449 93.4846 71.0754 91.7134 69.3861 91.7134C67.6968 91.7134 66.3273 93.4846 66.3273 95.6696C66.3273 97.8546 67.6968 99.6258 69.3861 99.6258Z" fill="#72716D"/>
<path d="M69.7222 82.2212H69.05V109.115H69.7222V82.2212Z" fill="#72716D"/>
<path d="M79.9001 95.3335H58.8787V96.0058H79.9001V95.3335Z" fill="#72716D"/>
<path d="M62.218 85.9579L61.6884 86.3718L76.5521 105.39L77.0818 104.976L62.218 85.9579Z" fill="#72716D"/>
<path d="M76.5552 85.9517L61.6882 104.967L62.2178 105.381L77.0848 86.3658L76.5552 85.9517Z" fill="#72716D"/>
<path d="M73.1634 83.1844L64.9843 107.959L65.6226 108.17L73.8018 83.3952L73.1634 83.1844Z" fill="#72716D"/>
<path d="M59.8673 90.1409L59.5475 90.7322L78.9094 101.205L79.2292 100.614L59.8673 90.1409Z" fill="#72716D"/>
<path d="M65.7505 83.115L65.1097 83.3181L73.0105 108.24L73.6513 108.037L65.7505 83.115Z" fill="#72716D"/>
<path d="M78.9668 90.3193L59.4901 100.432L59.7998 101.029L79.2766 90.9159L78.9668 90.3193Z" fill="#72716D"/>
</g>
<defs>
<clipPath id="clip0_896_1764">
<rect width="120" height="120" fill="white" transform="translate(0.5)"/>
</clipPath>
</defs>
</svg>
