<svg width="200" height="200" viewBox="0 0 200 200" fill="none" xmlns="http://www.w3.org/2000/svg">
<g clip-path="url(#clip0_172_4276)">
<path opacity="0.5" d="M200 181.428C200 181.485 137.14 181.309 65.3473 181.309C-6.44584 181.309 0.736804 181.485 0.736804 181.428C0.736804 181.372 -6.47289 181.099 65.3473 181.099C137.168 181.099 200 181.367 200 181.428Z" fill="#263238"/>
<path d="M98.4237 76.8238L99.6785 75.7033C99.9107 75.4947 100.19 75.345 100.492 75.267C100.794 75.189 101.111 75.1849 101.415 75.2552L104.295 75.9106C104.864 76.0383 105.394 76.3009 105.841 76.6763C106.287 77.0516 106.637 77.5287 106.86 78.0674L107.141 78.7397C105.185 80.7396 101.594 81.4567 101.594 81.4567L100.597 81.776C100.394 81.8482 100.179 81.8791 99.9641 81.867C99.7491 81.8549 99.5386 81.8001 99.3451 81.7056C99.1516 81.6112 98.9788 81.4791 98.8369 81.3171C98.6951 81.1551 98.5869 80.9664 98.5189 80.7621L97.8578 78.7901C97.7532 78.4426 97.7509 78.0724 97.8513 77.7236C97.9516 77.3749 98.1503 77.0625 98.4237 76.8238Z" fill="#EBB376"/>
<path d="M127.28 59.911C126.513 65.8941 125.672 71.8884 124.535 77.8378C122.053 84.0002 108.44 80.6389 103.522 79.3224C103.192 79.2243 102.91 79.008 102.731 78.715C102.551 78.422 102.486 78.0729 102.547 77.7347C102.609 77.3965 102.794 77.0931 103.066 76.8826C103.337 76.6721 103.677 76.5694 104.02 76.5942C107.107 76.8407 110.295 77.0367 113.381 77.0031C114.852 77.0053 116.32 76.8948 117.773 76.6726C118.536 76.5937 119.27 76.3407 119.919 75.9331C119.964 75.8827 119.846 75.9331 119.785 76.1012L119.656 76.6222C120.216 70.796 120.871 64.9754 121.728 59.1827C122.373 55.5974 127.605 56.2976 127.28 59.9334V59.911Z" fill="#E9B376"/>
<path d="M126.961 51.0483C122.339 51.5413 120.238 54.9698 118.266 62.6784C119.992 65.2161 126.67 66.9472 126.67 66.9472C126.67 66.9472 130.647 55.4964 126.961 51.0483Z" fill="#FFC100"/>
<path opacity="0.6" d="M128.524 57.1098C128.44 61.8324 126.664 66.9472 126.664 66.9472C126.664 66.9472 125.964 66.7679 124.955 66.4318C122.86 65.7427 119.432 64.3926 118.266 62.6784C120.227 54.9586 122.339 51.5413 126.967 51.0483C128.188 52.5217 128.563 54.7682 128.524 57.1098Z" fill="white"/>
<path opacity="0.1" d="M128.524 57.1099C128.44 61.8325 126.664 66.9472 126.664 66.9472C126.664 66.9472 125.964 66.7679 124.955 66.4318C124.485 64.7004 124.577 62.8641 125.218 61.1884C125.86 59.5127 127.017 58.0844 128.524 57.1099Z" fill="black"/>
<path d="M145.364 108.364C146.098 110.325 146.776 112.285 147.392 114.252C150.507 124.095 152.098 135.797 152.098 135.797C160.422 152.604 166.265 177.909 166.265 177.909L163.184 178.951L142.944 133.949L136.933 118.448L145.364 108.364Z" fill="#EBB376"/>
<path d="M166.394 175.55C166.209 175.186 161.84 177.668 161.84 177.668C161.84 177.668 160.434 181.836 158.047 183.78C155.661 185.724 157.952 186.609 160.966 185.147C163.98 183.684 166.277 182.564 168.417 181.528C170.557 180.491 168.333 179.315 166.394 175.55Z" fill="#263238"/>
<path d="M160.025 179.97C159.89 180.051 159.731 180.081 159.577 180.054C159.453 180.026 159.296 179.931 159.235 179.628C159.219 179.556 159.219 179.481 159.234 179.409C159.25 179.336 159.28 179.268 159.324 179.208C159.583 178.923 159.914 178.714 160.282 178.603C159.823 178.603 159.386 178.508 159.257 178.273C159.173 178.127 159.212 177.948 159.369 177.752C159.436 177.665 159.52 177.593 159.617 177.542C159.713 177.49 159.82 177.461 159.929 177.455C160.658 177.41 161.543 178.273 161.61 178.318C161.626 178.329 161.637 178.344 161.644 178.362C161.646 178.375 161.646 178.389 161.644 178.402C161.646 178.416 161.646 178.432 161.644 178.446C161.638 178.463 161.628 178.478 161.616 178.491C161.178 179.075 160.639 179.576 160.025 179.97ZM160.025 179.001C159.836 179.077 159.668 179.198 159.537 179.354C159.514 179.386 159.497 179.422 159.488 179.461C159.479 179.499 159.479 179.539 159.487 179.578C159.526 179.774 159.605 179.791 159.633 179.802C159.929 179.869 160.635 179.242 161.162 178.62C160.772 178.705 160.392 178.833 160.03 179.001H160.025ZM159.75 177.769C159.679 177.804 159.618 177.856 159.571 177.92C159.52 177.976 159.448 178.088 159.481 178.144C159.593 178.346 160.406 178.379 161.196 178.312C160.857 177.984 160.42 177.775 159.952 177.718C159.884 177.721 159.817 177.738 159.756 177.769H159.75Z" fill="#FFC100"/>
<path d="M131.885 108.241C132.776 114.073 134.396 119.77 136.709 125.198C139.218 131.03 141.991 135.321 143.991 139.764C147.554 147.607 156.77 166.211 156.77 166.211L162.932 161.556C162.932 161.556 153.112 137.825 152.428 133.17C151.997 130.156 151.582 113.949 151.341 102.919C151.212 96.8963 151.134 92.409 151.134 92.409L133.515 78.342C130.896 88.086 130.341 98.2696 131.885 108.241Z" fill="#FFC100"/>
<path opacity="0.5" d="M131.885 108.241C132.776 114.073 134.396 119.77 136.709 125.198C139.218 131.03 141.991 135.321 143.991 139.764C147.554 147.607 156.77 166.211 156.77 166.211L162.932 161.556C162.932 161.556 153.112 137.825 152.428 133.17C151.997 130.156 151.582 113.949 151.341 102.919C151.212 96.8963 151.134 92.409 151.134 92.409L133.515 78.342C130.896 88.086 130.341 98.2696 131.885 108.241Z" fill="white"/>
<path opacity="0.2" d="M136.709 125.198C139.218 131.03 141.991 135.321 143.991 139.764C147.554 147.607 156.77 166.211 156.77 166.211L162.932 161.556C162.932 161.556 153.112 137.825 152.428 133.17C151.997 130.156 151.582 113.949 151.341 102.918L146.126 91.9663L139.364 94.6833L141.571 103.176L136.709 125.198Z" fill="black"/>
<path d="M143.157 143.147C138.513 160.833 129.785 181.802 129.785 181.802L126.759 180.626L135.622 143.147H143.157Z" fill="#EBB376"/>
<path d="M131.387 180.071C131.471 179.673 126.524 178.794 126.524 178.794C126.524 178.794 122.782 181.107 119.706 181.079C116.631 181.051 117.824 183.197 121.079 183.992L129.129 185.959C131.437 186.541 130.473 184.222 131.387 180.071Z" fill="#263238"/>
<path d="M123.661 179.427C123.506 179.401 123.364 179.324 123.258 179.208C123.2 179.126 123.169 179.029 123.169 178.928C123.169 178.828 123.2 178.73 123.258 178.648C123.292 178.582 123.339 178.524 123.397 178.478C123.455 178.431 123.522 178.398 123.594 178.379C123.974 178.326 124.362 178.378 124.715 178.531C124.367 178.222 124.081 177.881 124.154 177.617C124.188 177.449 124.328 177.337 124.574 177.287C124.684 177.263 124.797 177.263 124.906 177.287C125.016 177.311 125.118 177.359 125.208 177.427C125.801 177.858 125.93 179.108 125.936 179.152C125.941 179.169 125.941 179.186 125.936 179.203C125.938 179.209 125.94 179.216 125.94 179.222C125.94 179.229 125.938 179.236 125.936 179.242L125.902 179.276C125.887 179.279 125.872 179.279 125.857 179.276C125.14 179.457 124.396 179.509 123.661 179.427ZM124.283 178.682C124.089 178.622 123.883 178.611 123.684 178.648C123.645 178.656 123.609 178.672 123.577 178.695C123.545 178.718 123.518 178.748 123.499 178.783C123.404 178.962 123.454 179.029 123.471 179.046C123.65 179.292 124.591 179.242 125.404 179.113C125.046 178.931 124.671 178.786 124.283 178.682ZM124.843 177.561C124.767 177.539 124.685 177.539 124.608 177.561C124.53 177.561 124.406 177.612 124.39 177.679C124.35 177.903 124.95 178.452 125.611 178.9C125.559 178.436 125.363 177.999 125.051 177.651C124.995 177.607 124.93 177.576 124.86 177.561H124.843Z" fill="#FFC100"/>
<path d="M152.171 76.4316C152.171 76.4316 159 90.8347 156.585 104.442C154.171 118.05 146.877 135.484 144.91 139.736C142.944 143.988 135.622 169.001 135.622 169.001L129.269 166.934C129.269 166.934 134.944 142.061 136.726 133.394C137.571 129.299 144.781 100.151 144.781 100.151C144.781 100.151 132.423 90.9692 133.297 76.6221L152.171 76.4316Z" fill="#FFC100"/>
<path opacity="0.5" d="M152.171 76.4316C152.171 76.4316 159 90.8347 156.585 104.442C154.171 118.05 146.877 135.484 144.91 139.736C142.944 143.988 135.622 169.001 135.622 169.001L129.269 166.934C129.269 166.934 134.944 142.061 136.726 133.394C137.571 129.299 144.781 100.151 144.781 100.151C144.781 100.151 132.423 90.9692 133.297 76.6221L152.171 76.4316Z" fill="white"/>
<path d="M138.86 36.5893C139.592 36.1354 140.467 35.9715 141.314 36.1299C143.711 36.5837 144.283 38.931 143.958 40.6733C143.823 41.3807 143.499 42.0385 143.021 42.5769C142.542 43.1154 141.927 43.5145 141.241 43.732C139.353 44.2026 137.689 42.4604 137.202 41.1439C136.892 40.3115 136.888 39.3959 137.192 38.5613C137.496 37.7266 138.087 37.0275 138.86 36.5893Z" fill="#263238"/>
<path d="M131.14 87.4678L138.882 90.084L140.322 85.3782L141.885 89.7199L155.941 86.4482C154.742 77.8154 149.924 70.9359 149.173 68.3253C148.126 64.7176 147.313 57.8101 148.025 53.3452C148.096 52.8947 148.073 52.4344 147.958 51.9931C147.843 51.5518 147.638 51.139 147.356 50.7804C147.074 50.4219 146.722 50.1253 146.32 49.9092C145.919 49.6931 145.477 49.5622 145.022 49.5246C143.661 49.4181 142.3 49.3621 140.927 49.3621C138.219 49.3303 135.512 49.4895 132.826 49.8383C129.375 50.3985 125.471 51.4293 125.471 51.4293C125.471 51.4293 124.911 51.659 125.179 55.3508C125.409 58.6 126.031 68.6783 132.658 77.1991L131.14 87.4678Z" fill="#FFC100"/>
<path opacity="0.6" d="M155.918 86.4482L141.863 89.7198L140.294 85.3782L138.86 90.084L131.106 87.4678L132.641 77.1991C126.008 68.667 125.387 58.5888 125.163 55.3508C124.916 51.6421 125.454 51.4293 125.454 51.4293C125.454 51.4293 129.375 50.3817 132.804 49.8383C135.49 49.4896 138.196 49.3305 140.905 49.3621C142.279 49.3621 143.646 49.4162 145.005 49.5245C145.459 49.5629 145.901 49.6943 146.302 49.9107C146.702 50.1271 147.055 50.4238 147.336 50.7823C147.617 51.1408 147.821 51.5534 147.936 51.9943C148.051 52.4353 148.073 52.8951 148.002 53.3452C147.722 55.4338 147.659 57.5458 147.812 59.6476C147.962 62.5781 148.411 65.4857 149.151 68.3253C149.388 69.0236 149.676 69.7033 150.014 70.3589C151.666 73.7257 154.955 79.524 155.918 86.4482Z" fill="white"/>
<path d="M138.983 56.2136C138.983 56.2136 135.891 58.897 134.989 65.7932L131.499 56.152L129.101 56.8803C129.101 56.8803 130.944 48.1409 136.944 47.9785C142.944 47.816 142.49 56.8859 142.49 56.8859L138.983 56.2136Z" fill="#FFC100"/>
<path opacity="0.5" d="M138.983 56.2136C138.983 56.2136 135.891 58.897 134.989 65.7932L131.499 56.152L129.101 56.8803C129.101 56.8803 130.944 48.1409 136.944 47.9785C142.944 47.816 142.49 56.8859 142.49 56.8859L138.983 56.2136Z" fill="white"/>
<path d="M130.3 46.3762C130.3 46.3762 132.496 47.7991 132.871 48.7347C132.896 48.7945 132.914 48.8564 132.927 48.9196C133.036 49.454 133.111 49.9947 133.151 50.5386C131.471 54.1464 134.692 60.3703 134.692 60.3703C136.003 56.6962 137.859 53.2403 140.199 50.1184C136.675 48.7347 136.003 41.9841 136.003 41.9841L134.294 43.3006L130.3 46.3762Z" fill="#EBB376"/>
<path opacity="0.2" d="M130.3 46.3762C130.3 46.3762 132.496 47.7991 132.871 48.7347C132.896 48.7944 132.914 48.8563 132.927 48.9196C133.857 48.2072 134.598 47.2784 135.086 46.2141C135.574 45.1498 135.795 43.9823 135.728 42.8132L134.3 43.3006L130.3 46.3762Z" fill="black"/>
<path d="M122.328 40.6173C122.295 40.6161 122.264 40.6043 122.238 40.5837C121.353 39.8162 118.653 36.9815 121.151 32.8135C123.331 29.1833 127.874 30.399 127.874 30.4102C127.906 30.4227 127.933 30.4467 127.948 30.4776C127.964 30.5085 127.968 30.544 127.959 30.5775C127.95 30.6109 127.928 30.6398 127.899 30.6585C127.87 30.6773 127.835 30.6846 127.801 30.6791C127.756 30.6791 123.431 29.5027 121.364 32.9536C118.972 36.9367 121.549 39.6425 122.395 40.3764C122.408 40.389 122.419 40.4042 122.426 40.421C122.434 40.4379 122.437 40.4561 122.437 40.4744C122.437 40.4928 122.434 40.511 122.426 40.5278C122.419 40.5447 122.408 40.5599 122.395 40.5725C122.377 40.5932 122.354 40.6087 122.328 40.6173Z" fill="#263238"/>
<path d="M126.098 30.3485C126.098 30.3485 122.479 30.4605 121.482 33.5193C120.485 36.578 121.224 40.0065 126.597 43.7095C129.224 45.519 135.751 41.9841 135.751 41.9841L136.272 43.5639C137.142 42.9306 137.934 42.1952 138.63 41.3735C140.742 38.8973 140.199 30.6902 134.339 29.088C128.205 27.413 126.098 30.3485 126.098 30.3485Z" fill="#263238"/>
<path d="M129.544 31.3681C124.939 31.9955 123.796 34.6621 124.104 39.4463C124.491 45.4294 126.378 49.4574 131.947 47.4126C139.543 44.6283 137.179 30.3317 129.544 31.3681Z" fill="#EBB376"/>
<path d="M127.045 38.7852C126.769 39.5223 126.406 40.2239 125.964 40.8747C126.125 41.0457 126.329 41.1695 126.555 41.2327C126.781 41.2958 127.02 41.2961 127.246 41.2333L127.045 38.7852Z" fill="#D58745"/>
<path d="M129.807 38.0234C129.852 38.4044 130.087 38.6901 130.367 38.662C130.647 38.634 130.787 38.3035 130.748 37.9226C130.709 37.5416 130.462 37.2615 130.188 37.2895C129.913 37.3175 129.768 37.6481 129.807 38.0234Z" fill="#263238"/>
<path d="M130.294 37.2951L129.437 37.0654C129.437 37.0654 129.924 37.7097 130.294 37.2951Z" fill="#263238"/>
<path d="M125.084 38.4772C125.129 38.8581 125.37 39.1382 125.644 39.1102C125.919 39.0822 126.065 38.7517 126.025 38.3764C125.986 38.001 125.74 37.7097 125.465 37.7377C125.191 37.7657 125.045 38.0962 125.084 38.4772Z" fill="#263238"/>
<path d="M125.571 37.7434L124.714 37.5137C124.714 37.5137 125.202 38.1635 125.571 37.7434Z" fill="#263238"/>
<path d="M131.51 35.4632C131.46 35.4625 131.413 35.4447 131.375 35.4128C131.107 35.2105 130.796 35.0712 130.466 35.0052C130.137 34.9393 129.796 34.9484 129.471 35.0319C129.446 35.0386 129.419 35.0404 129.394 35.037C129.368 35.0336 129.343 35.0251 129.321 35.0121C129.299 34.9991 129.279 34.9817 129.263 34.9611C129.248 34.9405 129.236 34.9169 129.23 34.8918C129.223 34.8668 129.221 34.8407 129.225 34.815C129.228 34.7893 129.236 34.7646 129.249 34.7422C129.262 34.7198 129.28 34.7002 129.3 34.6845C129.321 34.6689 129.345 34.6574 129.37 34.6509C129.759 34.5459 130.168 34.5337 130.563 34.6155C130.958 34.6972 131.328 34.8705 131.644 35.1215C131.663 35.1398 131.678 35.1616 131.688 35.1856C131.698 35.2097 131.703 35.2355 131.703 35.2616C131.703 35.2877 131.698 35.3135 131.688 35.3375C131.678 35.3616 131.663 35.3834 131.644 35.4016C131.609 35.4385 131.561 35.4605 131.51 35.4632Z" fill="#263238"/>
<path d="M124.266 35.9281C124.226 35.929 124.186 35.9171 124.152 35.8942C124.118 35.8713 124.093 35.8385 124.078 35.8003C124.064 35.7621 124.062 35.7204 124.073 35.6811C124.083 35.6417 124.106 35.6067 124.137 35.5808C124.391 35.3279 124.699 35.136 125.038 35.0196C125.376 34.9031 125.737 34.8651 126.093 34.9085C126.145 34.9205 126.19 34.9526 126.218 34.9977C126.246 35.0429 126.256 35.0974 126.244 35.1494C126.239 35.1748 126.228 35.1988 126.213 35.22C126.199 35.2413 126.18 35.2592 126.158 35.2729C126.136 35.2865 126.111 35.2955 126.085 35.2993C126.06 35.3031 126.034 35.3017 126.009 35.2951C125.716 35.264 125.42 35.2981 125.142 35.395C124.864 35.4918 124.611 35.649 124.401 35.8553C124.367 35.8963 124.319 35.9224 124.266 35.9281Z" fill="#263238"/>
<path d="M135.622 38.438C135.622 38.438 132.955 34.9535 132.882 31.99C132.882 31.99 123.258 29.5082 124.07 38.819C124.07 38.819 122.059 30.7239 129.941 29.469C137.824 28.2141 139.644 39.0655 136.025 43.0654C136.031 43.0654 137.303 40.6229 135.622 38.438Z" fill="#263238"/>
<path d="M135.006 39.5135C134.991 39.2468 135.029 38.9799 135.118 38.728C135.207 38.4761 135.345 38.2442 135.523 38.0455C135.701 37.8467 135.917 37.6851 136.158 37.5698C136.399 37.4545 136.66 37.3878 136.927 37.3734C138.372 37.3342 139.454 40.1745 136.003 41.351C135.504 41.5246 135.151 41.0653 135.006 39.5135Z" fill="#EBB376"/>
<path d="M127.493 42.606C127.69 43.1538 127.845 43.7156 127.958 44.2867C128.061 44.2923 128.164 44.2923 128.266 44.2867C129.655 44.225 130.277 43.7265 130.546 43.2167C130.671 42.9584 130.735 42.6745 130.731 42.3875C130.733 42.2249 130.712 42.0627 130.669 41.9058C129.828 42.3244 128.908 42.5593 127.969 42.5948L127.493 42.606Z" fill="#263238"/>
<path d="M127.969 42.578L128.115 43.0654C129.426 43.0037 130.356 42.7853 130.731 42.3707C130.733 42.208 130.712 42.0459 130.669 41.8889C129.828 42.3075 128.908 42.5424 127.969 42.578Z" fill="white"/>
<path d="M128.266 44.2697C129.656 44.2081 130.277 43.7095 130.546 43.1997C130.018 43.2336 129.501 43.3607 129.017 43.5751C128.701 43.723 128.438 43.9658 128.266 44.2697Z" fill="#DE5753"/>
<path opacity="0.1" d="M150.008 70.359C143.465 69.7091 144.025 60.9586 144.025 60.9586C145.239 60.4182 146.497 59.9797 147.784 59.6477C147.934 62.5782 148.383 65.4858 149.123 68.3254C149.367 69.0243 149.663 69.7041 150.008 70.359Z" fill="black"/>
<path d="M126.451 76.8237L127.706 75.7033C127.939 75.495 128.218 75.3456 128.52 75.2677C128.822 75.1897 129.139 75.1854 129.443 75.2551L132.328 75.9106C132.896 76.0391 133.425 76.3021 133.87 76.6774C134.316 77.0527 134.665 77.5293 134.888 78.0674L135.168 78.7397C133.213 80.7396 129.628 81.4567 129.628 81.4567L128.625 81.776C128.422 81.8481 128.207 81.8791 127.992 81.867C127.777 81.8549 127.566 81.8 127.373 81.7056C127.179 81.6112 127.006 81.4791 126.864 81.3171C126.723 81.155 126.614 80.9664 126.546 80.762L125.891 78.7901C125.784 78.4433 125.779 78.0728 125.879 77.7236C125.978 77.3745 126.177 77.0618 126.451 76.8237Z" fill="#EBB376"/>
<path d="M151.258 58.2359C152.938 64.4431 153.683 70.9024 152.692 77.2832C150.961 84.1906 136.445 80.5828 131.549 79.2888C131.22 79.1907 130.938 78.9743 130.758 78.6813C130.578 78.3883 130.513 78.0392 130.575 77.701C130.637 77.3629 130.821 77.0594 131.093 76.8489C131.365 76.6384 131.705 76.5357 132.048 76.5605C135.135 76.807 138.322 77.0031 141.409 76.9695C142.881 76.9714 144.351 76.8609 145.807 76.6389C146.567 76.559 147.299 76.3061 147.947 75.8995C147.991 75.849 147.874 75.8995 147.812 76.0675L147.683 76.5885C147.945 72.3427 147.638 68.0809 146.77 63.9165C146.518 62.516 146.21 61.0146 145.846 59.6701C145.073 56.1183 150.154 54.757 151.258 58.2247V58.2359Z" fill="#E9B376"/>
<path d="M144.905 49.7151C149.532 50.2081 151.627 53.6366 153.605 61.3451C151.879 63.8829 145.201 65.6139 145.201 65.6139C145.201 65.6139 141.224 54.1632 144.905 49.7151Z" fill="#FFC100"/>
<path opacity="0.6" d="M144.905 49.7151C149.532 50.2081 151.627 53.6366 153.605 61.3451C151.879 63.8829 145.201 65.6139 145.201 65.6139C145.201 65.6139 141.224 54.1632 144.905 49.7151Z" fill="white"/>
<path d="M42.5539 176.665C40.4419 176.665 38.7164 178.771 38.7164 181.365C38.7164 183.959 40.4419 186.06 42.5539 186.06C44.6659 186.06 46.3913 183.953 46.3913 181.365C46.3913 178.777 44.6715 176.665 42.5539 176.665Z" fill="#2E353A"/>
<path d="M42.5539 184.385C41.3886 184.385 40.3971 183.001 40.3971 181.365C40.3971 179.729 41.3886 178.345 42.5539 178.345C43.7191 178.345 44.7107 179.724 44.7107 181.365C44.7107 183.006 43.7471 184.385 42.5539 184.385Z" fill="#72716D"/>
<path d="M42.0271 181.589V176.278H45.831L43.8366 181.88C43.7717 182.062 43.6523 182.218 43.4948 182.328C43.3373 182.439 43.1494 182.498 42.9571 182.497C42.7143 182.497 42.481 182.402 42.3073 182.232C42.1335 182.063 42.033 181.832 42.0271 181.589Z" fill="#2E353A"/>
<path opacity="0.3" d="M42.0271 181.589V176.278H45.831L43.8366 181.88C43.7717 182.062 43.6523 182.218 43.4948 182.328C43.3373 182.439 43.1494 182.498 42.9571 182.497C42.7143 182.497 42.481 182.402 42.3073 182.232C42.1335 182.063 42.033 181.832 42.0271 181.589Z" fill="white"/>
<path d="M56.0718 123.865H53.831V115.691C53.831 114.687 54.23 113.723 54.9402 113.013C55.6504 112.303 56.6136 111.904 57.618 111.904H97.4772V114.145H57.6292C57.2196 114.146 56.8272 114.31 56.5376 114.599C56.2479 114.889 56.0845 115.281 56.0831 115.691L56.0718 123.865Z" fill="#263238"/>
<path d="M77.836 186.06C65.8643 186.06 56.1222 174.121 56.1222 159.449C56.1222 144.777 65.8643 132.834 77.836 132.834C89.8078 132.834 99.5555 144.772 99.5555 159.449C99.5555 174.127 89.8134 186.06 77.836 186.06ZM77.836 135.64C67.4049 135.64 58.9232 146.324 58.9232 159.455C58.9232 172.586 67.4049 183.264 77.836 183.264C88.2672 183.264 96.7544 172.586 96.7544 159.455C96.7544 146.324 88.2672 135.635 77.836 135.635V135.64Z" fill="#2E353A"/>
<path d="M77.836 135.355C67.2536 135.355 58.6431 146.167 58.6431 159.444C58.6431 172.721 67.2536 183.533 77.836 183.533C88.4185 183.533 97.0345 172.727 97.0345 159.444C97.0345 146.161 88.4241 135.355 77.836 135.355ZM81.7967 155.298L89.4997 145.439C90.739 147.23 91.7109 149.193 92.3848 151.265L82.4018 156.458C82.2343 156.054 82.0319 155.666 81.7967 155.298ZM78.3962 152.895V138.738C80.2206 138.827 82.0039 139.311 83.623 140.156L79.3318 153.147C79.0309 153.027 78.7169 152.942 78.3962 152.895ZM77.2758 152.895C76.9836 152.942 76.6965 153.017 76.4187 153.119L72.2731 140.044C73.8315 139.265 75.5355 138.82 77.2758 138.738V152.895ZM73.3543 156.374L63.4049 150.996C64.074 149.022 65.0169 147.151 66.206 145.439L73.9089 155.298C73.6864 155.64 73.4934 156 73.3319 156.374H73.3543ZM73.0014 157.455C72.8879 157.926 72.8148 158.406 72.7829 158.889H62.01C62.0508 156.577 62.3975 154.281 63.0408 152.06L73.0014 157.455ZM72.7829 160.01C72.8128 160.461 72.8784 160.908 72.979 161.349L62.9792 166.542C62.3925 164.412 62.0744 162.218 62.0324 160.01H72.7829ZM73.3431 162.435C73.4939 162.84 73.6814 163.23 73.9033 163.601L66.1556 173.46C64.9131 171.671 63.9409 169.707 63.2705 167.634L73.3431 162.435ZM77.3206 165.998V180.161C75.498 180.073 73.7163 179.589 72.0995 178.743L76.3907 165.752C76.6755 165.867 76.9724 165.95 77.2758 165.998H77.3206ZM78.4411 165.998C78.7356 165.957 79.0249 165.883 79.3038 165.78L83.4494 178.855C81.8889 179.634 80.1831 180.079 78.4411 180.161V165.998ZM82.3906 162.525L92.3343 167.903C91.6655 169.878 90.7226 171.748 89.5333 173.46L81.8303 163.601C82.0317 163.257 82.2041 162.897 82.3457 162.525H82.3906ZM82.7435 161.438C82.8582 160.97 82.9295 160.491 82.9564 160.01H93.6621C93.6211 162.314 93.2764 164.602 92.6369 166.816L82.7435 161.438ZM82.9564 158.889C82.9292 158.436 82.8636 157.987 82.7603 157.545L92.7657 152.357C93.3509 154.487 93.6671 156.681 93.7069 158.889H82.9564ZM88.8442 144.509L81.1357 154.374C80.9022 154.126 80.6472 153.899 80.3738 153.696L84.6426 140.716C86.2328 141.736 87.6384 143.018 88.7994 144.509H88.8442ZM71.3152 140.587L75.4551 153.646C75.1555 153.859 74.8778 154.101 74.626 154.368L66.9175 144.503C68.1248 142.952 69.5988 141.627 71.2703 140.593L71.3152 140.587ZM66.9175 174.379L74.5588 164.525C74.7941 164.771 75.051 164.996 75.3263 165.197L71.035 178.183C69.4426 177.162 68.0351 175.877 66.8727 174.385L66.9175 174.379ZM84.4522 178.301L80.3066 165.242C80.6073 165.031 80.8852 164.788 81.1357 164.519L88.8442 174.379C87.6149 175.946 86.1116 177.276 84.4073 178.306L84.4522 178.301Z" fill="#72716D"/>
<g opacity="0.2">
<path d="M77.836 135.355C67.2536 135.355 58.6431 146.167 58.6431 159.444C58.6431 172.721 67.2536 183.533 77.836 183.533C88.4185 183.533 97.0345 172.727 97.0345 159.444C97.0345 146.161 88.4241 135.355 77.836 135.355ZM81.7967 155.298L89.4997 145.439C90.739 147.23 91.7109 149.193 92.3848 151.265L82.4018 156.458C82.2343 156.054 82.0319 155.666 81.7967 155.298ZM78.3962 152.895V138.738C80.2206 138.827 82.0039 139.311 83.623 140.156L79.3318 153.147C79.0309 153.027 78.7169 152.942 78.3962 152.895ZM77.2758 152.895C76.9836 152.942 76.6965 153.017 76.4187 153.119L72.2731 140.044C73.8315 139.265 75.5355 138.82 77.2758 138.738V152.895ZM73.3543 156.374L63.4049 150.996C64.074 149.022 65.0169 147.151 66.206 145.439L73.9089 155.298C73.6864 155.64 73.4934 156 73.3319 156.374H73.3543ZM73.0014 157.455C72.8879 157.926 72.8148 158.406 72.7829 158.889H62.01C62.0508 156.577 62.3975 154.281 63.0408 152.06L73.0014 157.455ZM72.7829 160.01C72.8128 160.461 72.8784 160.908 72.979 161.349L62.9792 166.542C62.3925 164.412 62.0744 162.218 62.0324 160.01H72.7829ZM73.3431 162.435C73.4939 162.84 73.6814 163.23 73.9033 163.601L66.1556 173.46C64.9131 171.671 63.9409 169.707 63.2705 167.634L73.3431 162.435ZM77.3206 165.998V180.161C75.498 180.073 73.7163 179.589 72.0995 178.743L76.3907 165.752C76.6755 165.867 76.9724 165.95 77.2758 165.998H77.3206ZM78.4411 165.998C78.7356 165.957 79.0249 165.883 79.3038 165.78L83.4494 178.855C81.8889 179.634 80.1831 180.079 78.4411 180.161V165.998ZM82.3906 162.525L92.3343 167.903C91.6655 169.878 90.7226 171.748 89.5333 173.46L81.8303 163.601C82.0317 163.257 82.2041 162.897 82.3457 162.525H82.3906ZM82.7435 161.438C82.8582 160.97 82.9295 160.491 82.9564 160.01H93.6621C93.6211 162.314 93.2764 164.602 92.6369 166.816L82.7435 161.438ZM82.9564 158.889C82.9292 158.436 82.8636 157.987 82.7603 157.545L92.7657 152.357C93.3509 154.487 93.6671 156.681 93.7069 158.889H82.9564ZM88.8442 144.509L81.1357 154.374C80.9022 154.126 80.6472 153.899 80.3738 153.696L84.6426 140.716C86.2328 141.736 87.6384 143.018 88.7994 144.509H88.8442ZM71.3152 140.587L75.4551 153.646C75.1555 153.859 74.8778 154.101 74.626 154.368L66.9175 144.503C68.1248 142.952 69.5988 141.627 71.2703 140.593L71.3152 140.587ZM66.9175 174.379L74.5588 164.525C74.7941 164.771 75.051 164.996 75.3263 165.197L71.035 178.183C69.4426 177.162 68.0351 175.877 66.8727 174.385L66.9175 174.379ZM84.4522 178.301L80.3066 165.242C80.6073 165.031 80.8852 164.788 81.1357 164.519L88.8442 174.379C87.6149 175.946 86.1116 177.276 84.4073 178.306L84.4522 178.301Z" fill="black"/>
</g>
<path d="M92.4351 133.187H53.8308C52.6035 133.187 51.4265 133.674 50.5587 134.542C49.6909 135.41 49.2034 136.587 49.2034 137.814V173.987C49.2034 174.537 48.985 175.064 48.5963 175.453C48.2076 175.841 47.6804 176.06 47.1306 176.06H38.6546C38.3575 176.06 38.0725 176.178 37.8623 176.388C37.6522 176.598 37.5342 176.883 37.5342 177.18C37.5342 177.477 37.6522 177.762 37.8623 177.972C38.0725 178.182 38.3575 178.3 38.6546 178.3H47.1362C48.2798 178.299 49.3762 177.844 50.1848 177.035C50.9934 176.227 51.4484 175.13 51.4499 173.987V160.57H92.4351C92.7322 160.57 93.0172 160.452 93.2273 160.242C93.4374 160.031 93.5555 159.746 93.5555 159.449V134.307C93.5555 134.01 93.4374 133.725 93.2273 133.515C93.0172 133.305 92.7322 133.187 92.4351 133.187ZM91.3146 158.329H51.4499V137.814C51.4499 137.181 51.7013 136.574 52.1489 136.126C52.5964 135.679 53.2034 135.427 53.8364 135.427H91.3146V158.329Z" fill="#2E353A"/>
<path opacity="0.3" d="M92.4351 133.187H53.8308C52.6035 133.187 51.4265 133.674 50.5587 134.542C49.6909 135.41 49.2034 136.587 49.2034 137.814V173.987C49.2034 174.537 48.985 175.064 48.5963 175.453C48.2076 175.841 47.6804 176.06 47.1306 176.06H38.6546C38.3575 176.06 38.0725 176.178 37.8623 176.388C37.6522 176.598 37.5342 176.883 37.5342 177.18C37.5342 177.477 37.6522 177.762 37.8623 177.972C38.0725 178.182 38.3575 178.3 38.6546 178.3H47.1362C48.2798 178.299 49.3762 177.844 50.1848 177.035C50.9934 176.227 51.4484 175.13 51.4499 173.987V160.57H92.4351C92.7322 160.57 93.0172 160.452 93.2273 160.242C93.4374 160.031 93.5555 159.746 93.5555 159.449V134.307C93.5555 134.01 93.4374 133.725 93.2273 133.515C93.0172 133.305 92.7322 133.187 92.4351 133.187ZM91.3146 158.329H51.4499V137.814C51.4499 137.181 51.7013 136.574 52.1489 136.126C52.5964 135.679 53.2034 135.427 53.8364 135.427H91.3146V158.329Z" fill="white"/>
<path d="M95.0233 84.5825V120.688H51.8869C50.7696 120.688 49.6981 121.132 48.908 121.922C48.118 122.712 47.6741 123.784 47.6741 124.901V143.601H92.7489C93.4181 143.602 94.0808 143.471 94.6993 143.215C95.3178 142.959 95.8798 142.584 96.3533 142.111C96.8268 141.639 97.2024 141.077 97.4586 140.459C97.7149 139.84 97.8468 139.178 97.8468 138.509V84.5825H95.0233Z" fill="#2E353A"/>
<path opacity="0.3" d="M95.0233 84.5825V120.688H51.8869C50.7696 120.688 49.6981 121.132 48.908 121.922C48.118 122.712 47.6741 123.784 47.6741 124.901V143.601H92.7489C93.4181 143.602 94.0808 143.471 94.6993 143.215C95.3178 142.959 95.8798 142.584 96.3533 142.111C96.8268 141.639 97.2024 141.077 97.4586 140.459C97.7149 139.84 97.8468 139.178 97.8468 138.509V84.5825H95.0233Z" fill="white"/>
<path d="M51.4109 134.234H110.973V142.436H47.1588V138.514C47.1552 137.954 47.2624 137.398 47.4744 136.879C47.6865 136.36 47.9991 135.887 48.3943 135.49C48.7895 135.092 49.2595 134.776 49.7772 134.561C50.2949 134.345 50.8501 134.234 51.4109 134.234Z" fill="#263238"/>
<path d="M115.202 141.271H47.1084C46.9553 141.271 46.8038 141.301 46.6624 141.359C46.5211 141.418 46.3926 141.504 46.2844 141.612C46.1762 141.72 46.0904 141.848 46.0318 141.99C45.9733 142.131 45.9431 142.283 45.9431 142.436C45.9431 142.589 45.9733 142.74 46.0318 142.882C46.0904 143.023 46.1762 143.152 46.2844 143.26C46.3926 143.368 46.5211 143.454 46.6624 143.512C46.8038 143.571 46.9553 143.601 47.1084 143.601H115.202C115.503 143.6 115.792 143.483 116.009 143.274C116.226 143.066 116.355 142.781 116.368 142.481C116.374 142.324 116.348 142.167 116.292 142.021C116.236 141.874 116.151 141.74 116.042 141.627C115.934 141.515 115.803 141.425 115.659 141.363C115.514 141.302 115.359 141.27 115.202 141.271Z" fill="#2E353A"/>
<path opacity="0.3" d="M115.202 141.271H47.1084C46.9553 141.271 46.8038 141.301 46.6624 141.359C46.5211 141.418 46.3926 141.504 46.2844 141.612C46.1762 141.72 46.0904 141.848 46.0318 141.99C45.9733 142.131 45.9431 142.283 45.9431 142.436C45.9431 142.589 45.9733 142.74 46.0318 142.882C46.0904 143.023 46.1762 143.152 46.2844 143.26C46.3926 143.368 46.5211 143.454 46.6624 143.512C46.8038 143.571 46.9553 143.601 47.1084 143.601H115.202C115.503 143.6 115.792 143.483 116.009 143.274C116.226 143.066 116.355 142.781 116.368 142.481C116.374 142.324 116.348 142.167 116.292 142.021C116.236 141.874 116.151 141.74 116.042 141.627C115.934 141.515 115.803 141.425 115.659 141.363C115.514 141.302 115.359 141.27 115.202 141.271Z" fill="white"/>
<path d="M96.0261 85.647H119.936V133.876C119.936 135.837 119.157 137.718 117.77 139.105C116.383 140.491 114.502 141.271 112.541 141.271H96.0261V85.647Z" fill="#263238"/>
<path d="M46.789 174.172H27.3664C26.5991 174.172 25.9771 174.794 25.9771 175.561V176.346C25.9771 177.113 26.5991 177.735 27.3664 177.735H46.789C47.5563 177.735 48.1783 177.113 48.1783 176.346V175.561C48.1783 174.794 47.5563 174.172 46.789 174.172Z" fill="#2E353A"/>
<path opacity="0.2" d="M46.789 174.172H27.3664C26.5991 174.172 25.9771 174.794 25.9771 175.561V176.346C25.9771 177.113 26.5991 177.735 27.3664 177.735H46.789C47.5563 177.735 48.1783 177.113 48.1783 176.346V175.561C48.1783 174.794 47.5563 174.172 46.789 174.172Z" fill="white"/>
<path d="M115.096 158.659L93.4099 150.94L115.096 143.226C115.207 143.195 115.311 143.142 115.401 143.069C115.491 142.997 115.565 142.906 115.618 142.804C115.672 142.702 115.703 142.589 115.712 142.474C115.72 142.359 115.704 142.243 115.665 142.134C115.627 142.026 115.566 141.926 115.487 141.841C115.408 141.757 115.313 141.69 115.207 141.644C115.101 141.598 114.987 141.575 114.871 141.575C114.756 141.575 114.641 141.599 114.536 141.646L90.9058 150.049L67.2816 141.646C67.1758 141.599 67.0616 141.575 66.9461 141.575C66.8306 141.575 66.7163 141.598 66.6103 141.644C66.5043 141.69 66.4089 141.757 66.33 141.841C66.2511 141.926 66.1905 142.026 66.1519 142.134C66.1133 142.243 66.0975 142.359 66.1056 142.474C66.1137 142.589 66.1455 142.702 66.1989 142.804C66.2524 142.906 66.3263 142.997 66.4162 143.069C66.5061 143.142 66.61 143.195 66.7214 143.226L88.396 150.94L66.7158 158.659C66.6044 158.69 66.5005 158.743 66.4106 158.816C66.3207 158.888 66.2468 158.979 66.1933 159.081C66.1399 159.183 66.1081 159.296 66.1 159.411C66.0919 159.526 66.1077 159.642 66.1463 159.751C66.1849 159.859 66.2455 159.959 66.3244 160.044C66.4033 160.128 66.4987 160.195 66.6047 160.241C66.7107 160.287 66.825 160.31 66.9405 160.31C67.056 160.31 67.1702 160.286 67.276 160.239L90.9002 151.836L114.53 160.239C114.636 160.286 114.75 160.31 114.865 160.31C114.981 160.31 115.095 160.287 115.201 160.241C115.307 160.195 115.403 160.128 115.482 160.044C115.56 159.959 115.621 159.859 115.66 159.751C115.698 159.642 115.714 159.526 115.706 159.411C115.698 159.296 115.666 159.183 115.613 159.081C115.559 158.979 115.485 158.888 115.395 158.816C115.305 158.743 115.202 158.69 115.09 158.659H115.096Z" fill="#2E353A"/>
<path opacity="0.3" d="M115.096 158.659L93.4099 150.94L115.096 143.226C115.207 143.195 115.311 143.142 115.401 143.069C115.491 142.997 115.565 142.906 115.618 142.804C115.672 142.702 115.703 142.589 115.712 142.474C115.72 142.359 115.704 142.243 115.665 142.134C115.627 142.026 115.566 141.926 115.487 141.841C115.408 141.757 115.313 141.69 115.207 141.644C115.101 141.598 114.987 141.575 114.871 141.575C114.756 141.575 114.641 141.599 114.536 141.646L90.9058 150.049L67.2816 141.646C67.1758 141.599 67.0616 141.575 66.9461 141.575C66.8306 141.575 66.7163 141.598 66.6103 141.644C66.5043 141.69 66.4089 141.757 66.33 141.841C66.2511 141.926 66.1905 142.026 66.1519 142.134C66.1133 142.243 66.0975 142.359 66.1056 142.474C66.1137 142.589 66.1455 142.702 66.1989 142.804C66.2524 142.906 66.3263 142.997 66.4162 143.069C66.5061 143.142 66.61 143.195 66.7214 143.226L88.396 150.94L66.7158 158.659C66.6044 158.69 66.5005 158.743 66.4106 158.816C66.3207 158.888 66.2468 158.979 66.1933 159.081C66.1399 159.183 66.1081 159.296 66.1 159.411C66.0919 159.526 66.1077 159.642 66.1463 159.751C66.1849 159.859 66.2455 159.959 66.3244 160.044C66.4033 160.128 66.4987 160.195 66.6047 160.241C66.7107 160.287 66.825 160.31 66.9405 160.31C67.056 160.31 67.1702 160.286 67.276 160.239L90.9002 151.836L114.53 160.239C114.636 160.286 114.75 160.31 114.865 160.31C114.981 160.31 115.095 160.287 115.201 160.241C115.307 160.195 115.403 160.128 115.482 160.044C115.56 159.959 115.621 159.859 115.66 159.751C115.698 159.642 115.714 159.526 115.706 159.411C115.698 159.296 115.666 159.183 115.613 159.081C115.559 158.979 115.485 158.888 115.395 158.816C115.305 158.743 115.202 158.69 115.09 158.659H115.096Z" fill="white"/>
<path d="M96.4072 89.9101C96.1843 89.9101 95.9706 89.8215 95.813 89.6639C95.6554 89.5063 95.5668 89.2926 95.5668 89.0697V82.6329C95.5654 81.3999 96.039 80.2137 96.8892 79.3207C97.7395 78.4277 98.901 77.8965 100.133 77.8375L105.561 77.5742C105.784 77.5638 106.002 77.6423 106.167 77.7926C106.332 77.9428 106.43 78.1524 106.441 78.3753C106.451 78.5981 106.372 78.816 106.222 78.9809C106.072 79.1459 105.862 79.2444 105.639 79.2548L100.217 79.5181C99.416 79.5556 98.6607 79.9002 98.1077 80.4803C97.5547 81.0605 97.2466 81.8314 97.2475 82.6329V89.0697C97.2475 89.2926 97.1589 89.5063 97.0013 89.6639C96.8438 89.8215 96.63 89.9101 96.4072 89.9101Z" fill="#263238"/>
<path d="M63.8531 176.665C61.7411 176.665 60.0212 178.771 60.0212 181.365C60.0212 183.959 61.7411 186.06 63.8531 186.06C65.9651 186.06 67.6905 183.953 67.6905 181.365C67.6905 178.777 65.9707 176.665 63.8531 176.665Z" fill="#2E353A"/>
<path d="M63.8531 184.385C62.6878 184.385 61.7018 183.001 61.7018 181.365C61.7018 179.729 62.6878 178.345 63.8531 178.345C65.0183 178.345 66.0099 179.724 66.0099 181.365C66.0099 183.006 65.0351 184.385 63.8531 184.385Z" fill="#72716D"/>
<path d="M63.3546 181.589V176.278H67.1585L65.1585 181.88C65.0946 182.061 64.9762 182.217 64.8197 182.328C64.6631 182.438 64.4761 182.497 64.2846 182.497C64.0418 182.497 63.8086 182.402 63.6348 182.232C63.461 182.063 63.3605 181.832 63.3546 181.589Z" fill="#2E353A"/>
<path opacity="0.6" d="M63.3546 181.589V176.278H67.1585L65.1585 181.88C65.0946 182.061 64.9762 182.217 64.8197 182.328C64.6631 182.438 64.4761 182.497 64.2846 182.497C64.0418 182.497 63.8086 182.402 63.6348 182.232C63.461 182.063 63.3605 181.832 63.3546 181.589Z" fill="white"/>
<path d="M77.8305 111.165L76.0098 114.38C76.0098 114.38 49.1924 114.419 43.932 119.736C38.6716 125.052 31.7978 141.584 31.7978 141.584L42.0272 145.427L53.4444 129.091L89.0515 131.439L92.5305 110.666L77.8305 111.165Z" fill="#263238"/>
<path opacity="0.2" d="M92.536 110.649L89.0571 131.422L68.5589 130.072L53.4332 129.075L48.6434 135.937L42.0104 145.461L31.7753 141.618C31.7753 141.618 38.6491 125.092 43.9152 119.77C49.1812 114.448 75.993 114.414 75.993 114.414L77.8136 111.198L92.536 110.649Z" fill="white"/>
<path opacity="0.2" d="M68.5589 130.072L53.4331 129.075L48.6433 135.937C47.9318 132.066 47.1587 123.288 49.2035 120.341C51.8421 116.52 69.0799 115.562 77.1413 116.106C81.9087 116.425 76.7996 123.965 68.5589 130.072Z" fill="black"/>
<path d="M83.0517 79.731C81.8416 87.3891 80.5755 94.9632 78.3235 102.442C76.9061 107.03 64.9512 110.884 60.5815 112.229C60.1783 112.348 59.7453 112.317 59.3639 112.139C58.9825 111.962 58.679 111.652 58.5104 111.266C58.3418 110.881 58.3198 110.447 58.4484 110.047C58.5771 109.646 58.8475 109.307 59.209 109.092C62.1109 107.366 65.0632 105.641 67.8419 103.871C69.2872 102.935 71.7634 101.31 72.4524 100.364C72.4131 100.44 72.3794 100.518 72.3516 100.599C72.3516 100.56 72.4188 100.308 72.43 100.257C73.9538 93.1761 74.9062 85.7925 76.2171 78.6274C77.1414 74.2073 83.5615 75.2269 83.0517 79.7478V79.731Z" fill="#DD8A7D"/>
<path d="M80.7211 72.5828C76.7996 73.143 74.6148 76.2578 73.0013 89.5404L83.1972 91.9493C83.1972 91.9493 86.1888 83.8991 86.0767 80.0672C85.9647 76.2354 80.7211 72.5828 80.7211 72.5828Z" fill="#72716D"/>
<path opacity="0.2" d="M83.1861 91.9493L81.9144 91.6468L76.0098 90.2519L72.9958 89.5404C74.6037 76.2578 76.7605 73.1374 80.71 72.5828C80.71 72.5828 85.9592 76.241 86.0712 80.0672C86.1833 83.8935 83.1861 91.9493 83.1861 91.9493Z" fill="white"/>
<path opacity="0.2" d="M81.9144 91.6469L76.0098 90.252C76.5364 87.8543 78.0826 82.1177 81.0125 81.1877C83.9424 80.2578 86.5362 89.4789 81.9144 91.6469Z" fill="black"/>
<path d="M61.758 171.813L67.2369 170.48L66.8896 165.13L66.5535 160.228L59.8757 161.108L60.8673 166.777L61.758 171.813Z" fill="#E4897B"/>
<path opacity="0.2" d="M60.8951 166.889L66.9118 165.231L66.5701 160.279L59.8812 161.13L60.8951 166.889Z" fill="black"/>
<path d="M67.4442 169.029C67.4162 168.614 60.8673 169.175 60.8673 169.175C60.8673 169.175 56.9458 172.536 53.0523 173.388C49.1588 174.239 51.4165 176.009 55.7974 175.858L66.6319 175.466C69.7467 175.354 67.7243 173.348 67.4442 169.029Z" fill="#2E353A"/>
<path d="M104.25 110.969C104.25 110.969 106.721 128.061 100.967 134.234C95.2139 140.408 65.954 131.54 65.0689 131.993C64.1837 132.447 67.2369 163.264 67.2369 163.264L58.6432 164.514C58.6432 164.514 49.3101 133.013 49.5173 123.865C49.7246 114.716 80.8893 115.742 80.8893 115.742L82.6876 110.969H104.25Z" fill="#2E353A"/>
<path opacity="0.2" d="M104.25 110.969C104.25 110.969 106.721 128.061 100.967 134.234C95.2139 140.408 65.954 131.54 65.0689 131.993C64.1837 132.447 67.2369 163.264 67.2369 163.264L58.6432 164.514C58.6432 164.514 49.3101 133.013 49.5173 123.865C49.7246 114.716 80.8893 115.742 80.8893 115.742L82.6876 110.969H104.25Z" fill="white"/>
<path d="M104.368 111.165C105.068 96.1004 109.499 74.7843 109.499 74.7843C97.2081 71.8208 80.7042 72.5435 80.7042 72.5435C77.4886 84.0447 77.5502 102.605 77.8303 111.142L104.368 111.165Z" fill="#72716D"/>
<path opacity="0.2" d="M104.362 111.165C104.592 106.308 105.202 100.801 105.931 95.5683C106.345 92.5879 106.799 89.6972 107.236 87.0642C108.418 79.9887 109.477 74.7843 109.477 74.7843C97.1857 71.8208 80.6874 72.5435 80.6874 72.5435C77.4718 84.0447 77.5278 102.605 77.8079 111.142L104.362 111.165Z" fill="white"/>
<path opacity="0.2" d="M107.236 87.0756C106.799 89.7086 106.345 92.5993 105.931 95.5796C105.102 94.0198 104.627 92.2969 104.539 90.5329C104.451 88.7689 104.752 87.0071 105.421 85.3726L107.236 87.0756Z" fill="black"/>
<path d="M99.7685 73.1375C97.4941 75.2046 91.9255 74.4428 91.9255 74.4428C91.9255 74.4428 88.4466 73.4904 89.1749 72.4036C91.2253 72.0619 92.2168 71.1095 92.6258 69.8826C92.8521 69.1259 92.9226 68.3312 92.8331 67.5465C92.7991 67.107 92.7431 66.6695 92.665 66.2356L99.55 61.1377C98.6481 64.5046 97.5277 70.7005 99.7685 73.1375Z" fill="#E4897B"/>
<path opacity="0.2" d="M97.9366 64.3813C97.662 68.5101 94.2672 69.6529 92.6033 69.8826C92.8296 69.126 92.9001 68.3313 92.8106 67.5465L97.9366 64.3813Z" fill="black"/>
<path d="M87.3932 50.5496C87.3932 50.5496 85.4997 56.9864 88.6425 59.9948C91.7853 63.0031 93.4604 50.7568 93.4604 50.7568L87.3932 50.5496Z" fill="#263238"/>
<path d="M98.0877 66.5996C97.2098 67.5833 96.0329 68.2511 94.7381 68.5001C93.4434 68.7492 92.1027 68.5656 90.9226 67.9777C89.3836 67.2471 88.1814 65.9567 87.5613 64.37C87.4722 64.1504 87.3955 63.9259 87.3316 63.6977C86.1608 59.4457 86.5753 52.3422 91.1859 50.2862C92.2017 49.8274 93.318 49.6361 94.4286 49.7305C95.5392 49.825 96.6072 50.2021 97.5308 50.826C98.4545 51.4498 99.2032 52.2996 99.7057 53.2946C100.208 54.2895 100.448 55.3965 100.401 56.5102C100.239 61.3056 100.396 64.1067 98.0877 66.5996Z" fill="#E4897B"/>
<path d="M93.1691 58.0844C93.2083 58.4709 92.9898 58.7958 92.7321 58.8014C92.4744 58.807 92.2615 58.4989 92.2503 58.1124C92.2391 57.7258 92.4352 57.4065 92.6873 57.3953C92.9394 57.3841 93.1523 57.6922 93.1691 58.0844Z" fill="#263238"/>
<path d="M88.7827 58.2301C88.8219 58.6167 88.5978 58.9416 88.3457 58.9472C88.0936 58.9528 87.8751 58.6447 87.8583 58.2581C87.8415 57.8716 88.0432 57.5522 88.2953 57.541C88.5474 57.5298 88.7659 57.866 88.7827 58.2301Z" fill="#263238"/>
<path d="M90.1832 58.3757C89.7585 59.5714 89.1703 60.7026 88.4354 61.737C88.7089 61.9199 89.0193 62.0403 89.3447 62.0897C89.67 62.1391 90.0022 62.1162 90.3177 62.0227L90.1832 58.3757Z" fill="#DE5753"/>
<path d="M87.0906 56.4094C87.1271 56.4311 87.1687 56.4425 87.2111 56.4425C87.2535 56.4425 87.2951 56.4311 87.3315 56.4094C87.5648 56.2454 87.8329 56.1378 88.1148 56.0951C88.3967 56.0523 88.6847 56.0755 88.9561 56.1629C88.9832 56.1757 89.0126 56.1828 89.0426 56.1838C89.0725 56.1848 89.1023 56.1796 89.1301 56.1685C89.158 56.1575 89.1833 56.1409 89.2044 56.1197C89.2256 56.0984 89.2421 56.0731 89.2531 56.0452C89.2651 56.018 89.2715 55.9887 89.2721 55.959C89.2727 55.9293 89.2673 55.8998 89.2564 55.8721C89.2455 55.8445 89.2291 55.8193 89.2083 55.7981C89.1876 55.7768 89.1628 55.7599 89.1354 55.7483C88.7951 55.6266 88.4303 55.589 88.0723 55.6388C87.7143 55.6885 87.3737 55.8241 87.0794 56.034C87.0539 56.049 87.0316 56.0689 87.014 56.0927C86.9963 56.1165 86.9837 56.1436 86.9769 56.1725C86.9701 56.2013 86.9692 56.2312 86.9743 56.2604C86.9794 56.2895 86.9904 56.3173 87.0066 56.3421C87.0306 56.3691 87.059 56.3919 87.0906 56.4094Z" fill="#263238"/>
<path d="M93.9758 56.3031C94.0226 56.2984 94.0671 56.2809 94.1047 56.2527C94.1238 56.2297 94.1382 56.2031 94.1468 56.1744C94.1555 56.1458 94.1584 56.1157 94.1553 56.0859C94.1521 56.0562 94.1431 56.0273 94.1286 56.0011C94.1141 55.9749 94.0946 55.9519 94.0711 55.9334C93.7917 55.7013 93.4607 55.5394 93.1059 55.4615C92.7512 55.3835 92.3829 55.3916 92.0319 55.4852C91.9749 55.5055 91.9282 55.5475 91.902 55.602C91.8757 55.6566 91.8721 55.7193 91.8918 55.7765C91.9122 55.8322 91.9533 55.8779 92.0065 55.904C92.0598 55.9301 92.1211 55.9346 92.1775 55.9166C92.4568 55.8514 92.7473 55.8519 93.0262 55.918C93.3052 55.9841 93.5651 56.114 93.7854 56.2975C93.8148 56.3124 93.8471 56.3206 93.88 56.3215C93.9129 56.3225 93.9456 56.3162 93.9758 56.3031Z" fill="#263238"/>
<path d="M96.6647 50.6616L96.379 52.7624C96.7315 52.9371 97.0052 53.2383 97.1454 53.6059C97.2856 53.9736 97.282 54.3805 97.1353 54.7456C96.4295 56.5046 97.3986 59.2609 98.7375 60.3757C98.7375 60.3757 98.7879 59.6082 99.4322 59.8155C100.076 60.0228 99.8411 63.9947 98.5527 65.8826C98.5527 65.8826 100.485 64.202 101.623 60.0116C102.676 56.1573 102.844 52.9305 102.071 51.4179L96.6647 50.6616Z" fill="#263238"/>
<path d="M102.569 60.3477C102.326 60.8913 101.977 61.3815 101.544 61.79C101.11 62.1986 100.6 62.5176 100.043 62.7286C98.5527 63.2889 97.6732 61.9836 97.9701 60.4878C98.2502 59.1769 99.3482 57.261 100.906 57.3562C102.463 57.4514 103.163 58.9976 102.569 60.3477Z" fill="#E4897B"/>
<path d="M96.4072 52.7793C96.4072 52.7793 85.4662 54.9529 87.6119 48.0623C87.6119 48.0623 93.7014 45.4853 98.5024 47.0763C103.303 48.6673 102.228 53.7148 102.228 53.7148L96.4072 52.7793Z" fill="#263238"/>
<path d="M90.749 64.3422C90.7139 64.3497 90.6776 64.3497 90.6425 64.3422C90.5955 64.3121 90.5617 64.2652 90.5482 64.211C90.5346 64.1568 90.5423 64.0995 90.5697 64.0508C90.6089 63.9892 91.5221 62.5607 94.043 62.4654C94.0735 62.4605 94.1047 62.4621 94.1344 62.4704C94.1642 62.4787 94.1918 62.4933 94.2153 62.5133C94.2388 62.5333 94.2577 62.5581 94.2707 62.5861C94.2836 62.6142 94.2903 62.6447 94.2903 62.6755C94.2903 62.7064 94.2836 62.7369 94.2707 62.7649C94.2577 62.7929 94.2388 62.8178 94.2153 62.8378C94.1918 62.8577 94.1642 62.8724 94.1344 62.8806C94.1047 62.8889 94.0735 62.8906 94.043 62.8856C91.7574 62.9696 90.9451 64.2189 90.9114 64.2749C90.8909 64.2974 90.8658 64.315 90.8377 64.3266C90.8096 64.3382 90.7793 64.3435 90.749 64.3422Z" fill="#263238"/>
<path d="M87.8583 65.0926C87.8583 65.0926 89.5389 67.4063 91.8806 67.4624C94.2223 67.5184 98.1158 63.2495 100.368 63.3896L100.99 64.1347C100.99 64.1347 100.323 69.4455 100.99 70.7004C101.656 71.9553 103.869 73.3614 103.869 73.3614V73.7199C103.869 73.7199 98.1102 79.0924 91.1635 77.703C84.2169 76.3137 84.934 72.5099 84.934 72.5099L85.623 72.0393C85.623 72.0393 87.6678 71.0701 88.1216 69.6696C88.5753 68.2691 87.3093 65.552 87.3093 65.552L87.8583 65.0926Z" fill="#72716D"/>
<path opacity="0.6" d="M87.8583 65.0926C87.8583 65.0926 89.5389 67.4063 91.8806 67.4624C94.2223 67.5184 98.1158 63.2495 100.368 63.3896L100.99 64.1347C100.99 64.1347 100.323 69.4455 100.99 70.7004C101.656 71.9553 103.869 73.3614 103.869 73.3614V73.7199C103.869 73.7199 98.1102 79.0924 91.1635 77.703C84.2169 76.3137 84.934 72.5099 84.934 72.5099L85.623 72.0393C85.623 72.0393 87.6678 71.0701 88.1216 69.6696C88.5753 68.2691 87.3093 65.552 87.3093 65.552L87.8583 65.0926Z" fill="white"/>
<path opacity="0.1" d="M99.2081 63.6082L99.7683 64.5885C99.7683 64.5885 99.5274 69.1823 99.7683 70.6612C100.009 72.1402 102.267 74.1009 102.267 74.1009V74.9749L101.97 74.2074C101.213 73.7814 100.57 73.1799 100.095 72.4537C99.6188 71.7274 99.3244 70.8975 99.2361 70.0338C99.1057 68.2859 99.1904 66.5287 99.4882 64.8014L99.2081 63.6082Z" fill="black"/>
<path d="M98.1439 67.1319L100.351 66.342V67.4513L98.1439 68.2636V67.1319Z" fill="white"/>
<path d="M101.539 72.0281L101.46 72.0729L99.4659 73.1653L100.105 74.2073L102.245 72.8068" fill="white"/>
<path d="M59.5731 108.784L54.8953 109.344L58.0157 114.419C58.0157 114.419 61.8924 113.081 61.377 110.941L59.5731 108.784Z" fill="#E4897B"/>
<path d="M52.1391 112.033L54.9178 116.106L58.0158 114.397L54.8954 109.322L52.1391 112.033Z" fill="#E4897B"/>
<path d="M112.043 79.0365C113.505 84.7619 116.278 97.3835 110.502 101.372C105.191 104.571 96.1942 102.532 90.6313 100.846C90.2138 100.728 89.8564 100.456 89.6306 100.086C89.4048 99.7152 89.3274 99.2731 89.4138 98.8479C89.5003 98.4228 89.7442 98.046 90.0967 97.7931C90.4493 97.5402 90.8843 97.4299 91.3148 97.4843C92.8049 97.5571 94.3679 97.6412 95.8805 97.658C99.3314 97.658 103.09 97.8036 106.272 96.616C106.519 96.5148 106.751 96.381 106.962 96.2182C106.743 96.3639 107.029 95.9773 107.102 95.4059C107.662 90.6273 106.334 85.4341 105.337 80.7396C104.463 76.3419 110.693 74.7565 112.059 79.0589L112.043 79.0365Z" fill="#DD8A7D"/>
<path d="M109.499 74.8013C112.956 75.9217 114.384 80.0449 115.443 90.997L105.875 91.8374C105.875 91.8374 103.074 84.0224 103.578 79.8376C104.082 75.6528 109.499 74.8013 109.499 74.8013Z" fill="#72716D"/>
<path opacity="0.2" d="M109.499 74.8013C112.956 75.9217 114.384 80.0449 115.443 90.997L105.875 91.8374C105.875 91.8374 103.074 84.0224 103.578 79.8376C104.082 75.6528 109.499 74.8013 109.499 74.8013Z" fill="white"/>
<path d="M83.9256 94.1902C81.7127 94.3135 80.822 98.3694 81.0461 101.529C81.2702 104.689 87.4717 104.24 87.4717 104.24C87.4717 104.24 101.656 107.417 109.04 105.641C116.424 103.865 115.393 93.5292 115.393 93.5292C115.393 93.5292 114.272 92.969 110.003 92.6832C105.735 92.3975 105.343 93.1594 105.343 93.1594C105.343 93.1594 105.903 94.9913 104.513 95.5852C103.124 96.179 89.242 93.8989 83.9256 94.1902Z" fill="#72716D"/>
<path opacity="0.6" d="M83.9256 94.1902C81.7127 94.3135 80.822 98.3694 81.0461 101.529C81.2702 104.689 87.4717 104.24 87.4717 104.24C87.4717 104.24 101.656 107.417 109.04 105.641C116.424 103.865 115.393 93.5292 115.393 93.5292C115.393 93.5292 114.272 92.969 110.003 92.6832C105.735 92.3975 105.343 93.1594 105.343 93.1594C105.343 93.1594 105.903 94.9913 104.513 95.5852C103.124 96.179 89.242 93.8989 83.9256 94.1902Z" fill="white"/>
<path d="M84.4185 72.2859C84.4185 72.2859 85.5949 78.3082 89.5052 86.3865C93.7348 95.137 102.244 100.252 102.244 100.252L100.368 101.529C100.368 101.529 92.4015 95.5852 87.6901 86.9074C85.3065 82.3877 83.6611 77.5158 82.8163 72.4764L84.4185 72.2859Z" fill="#263238"/>
<path d="M100.793 102.061L102.911 100.672C102.911 100.672 106.222 101.792 108.513 101.529C110.804 101.266 112.485 101.226 113.925 102.616C112.98 103.939 111.721 105.006 110.261 105.721C108.801 106.436 107.185 106.776 105.561 106.711C99.7962 106.605 97.9251 106.179 97.9251 106.179C97.8628 105.637 98.0179 105.093 98.3565 104.666C98.9223 104.056 100.793 102.061 100.793 102.061Z" fill="#72716D"/>
<path d="M100.732 102.694C100.634 102.695 100.536 102.673 100.447 102.632C100.358 102.59 100.279 102.529 100.216 102.453L99.8691 102.033C99.8076 101.963 99.7621 101.879 99.736 101.789C99.7099 101.699 99.7037 101.605 99.7179 101.512C99.7311 101.42 99.7633 101.332 99.8125 101.252C99.8617 101.173 99.9267 101.105 100.004 101.053L101.824 99.7923C101.95 99.7053 102.102 99.6639 102.255 99.6751C102.408 99.6863 102.553 99.7494 102.665 99.8539L103.079 100.24C103.156 100.311 103.214 100.398 103.25 100.496C103.286 100.593 103.299 100.698 103.286 100.801C103.281 100.9 103.252 100.997 103.202 101.084C103.153 101.17 103.084 101.244 103.001 101.299L101.107 102.593C100.995 102.664 100.864 102.699 100.732 102.694ZM100.317 101.512C100.305 101.521 100.294 101.533 100.287 101.547C100.279 101.56 100.274 101.575 100.272 101.591C100.264 101.618 100.264 101.647 100.272 101.675L100.62 102.095C100.64 102.114 100.667 102.124 100.695 102.124C100.723 102.124 100.75 102.114 100.771 102.095L102.659 100.806C102.673 100.797 102.685 100.785 102.694 100.77C102.703 100.756 102.708 100.739 102.709 100.722C102.711 100.706 102.708 100.689 102.703 100.674C102.697 100.658 102.688 100.644 102.676 100.633L102.261 100.246C102.241 100.23 102.217 100.222 102.191 100.222C102.166 100.222 102.141 100.23 102.121 100.246L100.317 101.512Z" fill="white"/>
<path d="M34.9741 130.834L49.2091 137.814C49.2091 137.814 32.9069 166.816 30.2515 168.374C27.5961 169.931 9.72533 163.931 9.6469 161.713C9.56847 159.494 11.6301 155.483 11.6301 155.483L21.9772 156.374L34.9741 130.834Z" fill="#72716D"/>
<path opacity="0.6" d="M34.9741 130.834L49.2091 137.814C49.2091 137.814 32.9069 166.816 30.2515 168.374C27.5961 169.931 9.72533 163.931 9.6469 161.713C9.56847 159.494 11.6301 155.483 11.6301 155.483L21.9772 156.374L34.9741 130.834Z" fill="white"/>
<path d="M78.4804 123.865H76.2395V115.691C76.241 114.686 76.6412 113.723 77.3523 113.013C78.0634 112.303 79.0272 111.904 80.0321 111.904H119.936V114.145H80.0546C79.644 114.145 79.2501 114.308 78.9592 114.597C78.6684 114.887 78.5042 115.28 78.5028 115.691L78.4804 123.865Z" fill="#263238"/>
<g opacity="0.4">
<path d="M78.4804 123.865H76.2395V115.691C76.241 114.686 76.6412 113.723 77.3523 113.013C78.0634 112.303 79.0272 111.904 80.0321 111.904H119.936V114.145H80.0546C79.644 114.145 79.2501 114.308 78.9592 114.597C78.6684 114.887 78.5042 115.28 78.5028 115.691L78.4804 123.865Z" fill="white"/>
</g>
<path d="M119.936 89.9101C119.713 89.9101 119.5 89.8215 119.342 89.6639C119.184 89.5063 119.096 89.2926 119.096 89.0697V82.6329C119.094 81.3999 119.568 80.2137 120.418 79.3207C121.268 78.4277 122.43 77.8965 123.662 77.8375L129.09 77.5742C129.2 77.569 129.311 77.5856 129.415 77.6231C129.519 77.6606 129.614 77.7182 129.696 77.7926C129.777 77.8669 129.844 77.9567 129.891 78.0567C129.938 78.1567 129.964 78.2649 129.97 78.3753C129.975 78.4856 129.958 78.5959 129.921 78.6998C129.883 78.8037 129.826 78.8993 129.751 78.9809C129.677 79.0626 129.587 79.1288 129.487 79.1758C129.387 79.2228 129.279 79.2496 129.168 79.2548L123.746 79.5181C122.945 79.5556 122.19 79.9002 121.637 80.4803C121.084 81.0605 120.776 81.8314 120.776 82.6329V89.0697C120.776 89.2926 120.688 89.5063 120.53 89.6639C120.373 89.8215 120.159 89.9101 119.936 89.9101Z" fill="#263238"/>
<path d="M118.552 85.9999V120.688H75.4159C74.2986 120.688 73.227 121.132 72.437 121.922C71.6469 122.712 71.2031 123.784 71.2031 124.901V143.601H116.278C116.947 143.602 117.61 143.471 118.228 143.215C118.847 142.959 119.409 142.584 119.882 142.111C120.356 141.639 120.731 141.077 120.988 140.459C121.244 139.84 121.376 139.178 121.376 138.509V85.9999C121.374 85.6234 121.224 85.2629 120.957 84.9973C120.69 84.7317 120.329 84.5825 119.953 84.5825C119.58 84.5884 119.225 84.7401 118.963 85.0051C118.701 85.2701 118.554 85.6273 118.552 85.9999Z" fill="#2E353A"/>
<path opacity="0.4" d="M118.552 85.9999V120.688H75.4159C74.2986 120.688 73.227 121.132 72.437 121.922C71.6469 122.712 71.2031 123.784 71.2031 124.901V143.601H116.278C116.947 143.602 117.61 143.471 118.228 143.215C118.847 142.959 119.409 142.584 119.882 142.111C120.356 141.639 120.731 141.077 120.988 140.459C121.244 139.84 121.376 139.178 121.376 138.509V85.9999C121.374 85.6234 121.224 85.2629 120.957 84.9973C120.69 84.7317 120.329 84.5825 119.953 84.5825C119.58 84.5884 119.225 84.7401 118.963 85.0051C118.701 85.2701 118.554 85.6273 118.552 85.9999Z" fill="white"/>
<path d="M114.844 133.187H76.2395C75.0122 133.187 73.8352 133.674 72.9674 134.542C72.0996 135.41 71.6121 136.587 71.6121 137.814V173.987C71.6121 174.537 71.3937 175.064 71.005 175.453C70.6163 175.841 70.089 176.06 69.5393 176.06H58.828C58.5309 176.06 58.2459 176.178 58.0358 176.388C57.8257 176.598 57.7076 176.883 57.7076 177.18C57.7076 177.477 57.8257 177.762 58.0358 177.972C58.2459 178.182 58.5309 178.3 58.828 178.3H69.5449C70.6885 178.299 71.7848 177.844 72.5935 177.035C73.4021 176.227 73.8571 175.13 73.8586 173.987V160.57H114.844C115.141 160.57 115.426 160.452 115.636 160.242C115.846 160.031 115.964 159.746 115.964 159.449V134.307C115.964 134.01 115.846 133.725 115.636 133.515C115.426 133.305 115.141 133.187 114.844 133.187ZM113.723 158.329H73.8586V137.814C73.8586 137.181 74.11 136.574 74.5575 136.126C75.0051 135.679 75.6121 135.427 76.2451 135.427H113.723V158.329Z" fill="#2E353A"/>
<path opacity="0.6" d="M114.844 133.187H76.2395C75.0122 133.187 73.8352 133.674 72.9674 134.542C72.0996 135.41 71.6121 136.587 71.6121 137.814V173.987C71.6121 174.537 71.3937 175.064 71.005 175.453C70.6163 175.841 70.089 176.06 69.5393 176.06H58.828C58.5309 176.06 58.2459 176.178 58.0358 176.388C57.8257 176.598 57.7076 176.883 57.7076 177.18C57.7076 177.477 57.8257 177.762 58.0358 177.972C58.2459 178.182 58.5309 178.3 58.828 178.3H69.5449C70.6885 178.299 71.7848 177.844 72.5935 177.035C73.4021 176.227 73.8571 175.13 73.8586 173.987V160.57H114.844C115.141 160.57 115.426 160.452 115.636 160.242C115.846 160.031 115.964 159.746 115.964 159.449V134.307C115.964 134.01 115.846 133.725 115.636 133.515C115.426 133.305 115.141 133.187 114.844 133.187ZM113.723 158.329H73.8586V137.814C73.8586 137.181 74.11 136.574 74.5575 136.126C75.0051 135.679 75.6121 135.427 76.2451 135.427H113.723V158.329Z" fill="white"/>
<path d="M68.6429 174.172H50.9065C50.1392 174.172 49.5172 174.794 49.5172 175.561V176.346C49.5172 177.113 50.1392 177.735 50.9065 177.735H68.6429C69.4102 177.735 70.0322 177.113 70.0322 176.346V175.561C70.0322 174.794 69.4102 174.172 68.6429 174.172Z" fill="#2E353A"/>
<path opacity="0.4" d="M68.6429 174.172H50.9065C50.1392 174.172 49.5172 174.794 49.5172 175.561V176.346C49.5172 177.113 50.1392 177.735 50.9065 177.735H68.6429C69.4102 177.735 70.0322 177.113 70.0322 176.346V175.561C70.0322 174.794 69.4102 174.172 68.6429 174.172Z" fill="white"/>
<path d="M114.81 186.06C102.838 186.06 93.0963 174.121 93.0963 159.449C93.0963 144.777 102.838 132.834 114.81 132.834C126.782 132.834 136.53 144.772 136.53 159.449C136.53 174.127 126.787 186.06 114.81 186.06ZM114.81 135.64C104.379 135.64 95.8973 146.324 95.8973 159.455C95.8973 172.586 104.379 183.264 114.81 183.264C125.241 183.264 133.728 172.586 133.728 159.455C133.728 146.324 125.241 135.635 114.81 135.635V135.64Z" fill="#2E353A"/>
<path d="M114.81 183.539C104.228 183.539 95.6172 172.732 95.6172 159.45C95.6172 146.167 104.228 135.36 114.81 135.36C125.393 135.36 134.009 146.172 134.009 159.45C134.009 172.727 125.398 183.539 114.81 183.539ZM114.81 138.722C106.082 138.722 98.9785 148.021 98.9785 159.45C98.9785 170.878 106.082 180.177 114.81 180.177C123.538 180.177 130.647 170.878 130.647 159.45C130.647 148.021 123.544 138.716 114.81 138.716V138.722Z" fill="#72716D"/>
<path d="M114.81 166.043C117.626 166.043 119.908 163.091 119.908 159.449C119.908 155.808 117.626 152.856 114.81 152.856C111.995 152.856 109.712 155.808 109.712 159.449C109.712 163.091 111.995 166.043 114.81 166.043Z" fill="#72716D"/>
<path d="M115.37 137.035H114.25V181.858H115.37V137.035Z" fill="#72716D"/>
<path d="M132.334 158.889H97.2979V160.01H132.334V158.889Z" fill="#72716D"/>
<path d="M102.863 143.263L101.981 143.953L126.754 175.649L127.636 174.959L102.863 143.263Z" fill="#72716D"/>
<path d="M126.759 143.253L101.98 174.945L102.863 175.635L127.641 143.943L126.759 143.253Z" fill="#72716D"/>
<path d="M121.106 138.641L107.474 179.932L108.538 180.284L122.17 138.992L121.106 138.641Z" fill="#72716D"/>
<path d="M98.9456 150.235L98.4125 151.22L130.682 168.676L131.215 167.69L98.9456 150.235Z" fill="#72716D"/>
<path d="M108.751 138.525L107.683 138.863L120.851 180.399L121.919 180.061L108.751 138.525Z" fill="#72716D"/>
<path d="M130.778 150.532L98.3168 167.387L98.8331 168.382L131.294 151.527L130.778 150.532Z" fill="#72716D"/>
</g>
<defs>
<clipPath id="clip0_172_4276">
<rect width="200" height="200" fill="white"/>
</clipPath>
</defs>
</svg>
