<svg width="121" height="120" viewBox="0 0 121 120" fill="none" xmlns="http://www.w3.org/2000/svg">
<g clip-path="url(#clip0_896_1366)">
<path d="M119.929 108.857C119.929 108.891 82.2128 108.785 39.1369 108.785C-3.93896 108.785 0.370629 108.891 0.370629 108.857C0.370629 108.823 -3.95519 108.659 39.1369 108.659C82.2291 108.659 119.929 108.82 119.929 108.857Z" fill="#263238" fill-opacity="0.5"/>
<path d="M107.811 103.423C108.729 102.993 109.76 102.867 110.754 103.064C111.289 103.155 111.847 103.323 112.211 103.715C112.576 104.108 112.643 104.824 112.224 105.168C111.955 105.35 111.631 105.432 111.307 105.4C110.532 105.4 109.666 105.255 109.043 105.723C108.689 105.982 108.452 106.434 108.028 106.566C107.816 106.615 107.593 106.594 107.394 106.505C107.195 106.417 107.03 106.266 106.925 106.075C106.722 105.684 106.678 105.231 106.801 104.808C106.85 104.515 106.967 104.237 107.143 103.997C107.318 103.757 107.547 103.56 107.811 103.423Z" fill="#EBEBEB"/>
<path d="M105.757 99.462C106.304 100.237 107.369 99.9788 107.863 99.5059C108.356 99.0331 108.565 98.338 108.757 97.6765C109.191 96.17 109.628 94.5757 109.305 93.0511C109.227 92.5851 109.022 92.1496 108.713 91.7927C108.557 91.6168 108.357 91.485 108.134 91.4106C107.911 91.3362 107.672 91.3219 107.441 91.3689C106.904 91.511 106.571 92.0382 106.33 92.5369C105.62 94.0143 105.247 95.6314 105.24 97.2708C105.24 98.0331 105.328 98.8212 105.757 99.462Z" fill="#EBEBEB"/>
<path d="M104.253 100.583C104.535 100.216 104.723 99.7852 104.8 99.3285C104.878 98.8718 104.842 98.4032 104.697 97.9633C104.397 97.0851 103.86 96.3066 103.147 95.7126C102.337 94.9902 101.393 94.4337 100.369 94.0743C99.9725 93.9141 99.546 93.8409 99.1185 93.8599C98.9052 93.8728 98.6983 93.9374 98.5155 94.0482C98.3328 94.1589 98.1797 94.3124 98.0694 94.4955C97.7774 95.0537 98.0694 95.7307 98.3614 96.2811C98.8975 97.2537 99.5083 98.1833 100.188 99.0615C100.736 99.7669 101.361 100.462 102.196 100.78C103.031 101.098 103.896 101.061 104.338 100.483" fill="#EBEBEB"/>
<path d="M105.72 111.263C105.749 111.147 105.765 111.029 105.77 110.909C105.795 110.651 105.826 110.325 105.865 109.938C105.912 109.46 105.985 108.984 106.082 108.514C106.21 107.941 106.383 107.38 106.599 106.834C106.811 106.29 107.1 105.778 107.457 105.315C107.747 104.937 108.118 104.629 108.542 104.413C108.83 104.271 109.137 104.176 109.454 104.129C109.574 104.124 109.693 104.107 109.808 104.077C109.689 104.065 109.569 104.065 109.449 104.077C109.118 104.106 108.796 104.194 108.496 104.336C108.05 104.547 107.659 104.858 107.354 105.245C106.981 105.714 106.681 106.237 106.465 106.795C106.243 107.349 106.07 107.92 105.948 108.504C105.855 108.979 105.792 109.46 105.759 109.943C105.728 110.356 105.715 110.69 105.71 110.92C105.701 111.034 105.705 111.149 105.72 111.263Z" fill="#E0E0E0"/>
<path d="M105.788 110.514C105.794 110.459 105.794 110.403 105.788 110.349V109.878C105.788 109.467 105.788 108.876 105.808 108.144C105.845 106.682 105.971 105.106 106.214 102.886C106.444 100.798 106.754 98.3691 107.08 96.7902C107.149 96.4311 107.222 96.108 107.286 95.8238C107.351 95.5396 107.405 95.307 107.457 95.0977C107.509 94.8884 107.537 94.7592 107.568 94.6377C107.584 94.5857 107.594 94.5319 107.597 94.4775C107.57 94.5254 107.551 94.5767 107.54 94.63C107.503 94.7489 107.457 94.8884 107.403 95.0822C107.348 95.276 107.279 95.5215 107.206 95.8057C107.134 96.09 107.056 96.4104 106.979 96.767C106.575 98.6357 106.271 100.525 106.069 102.426C105.811 104.651 105.715 106.677 105.705 108.142C105.705 108.876 105.705 109.47 105.731 109.878C105.731 110.072 105.752 110.227 105.759 110.351C105.761 110.406 105.771 110.461 105.788 110.514Z" fill="#E0E0E0"/>
<path d="M105.798 106.609C105.811 106.446 105.811 106.282 105.798 106.119C105.78 105.801 105.736 105.343 105.648 104.783C105.54 104.126 105.395 103.477 105.214 102.837C105.002 102.05 104.73 101.28 104.4 100.534C103.831 99.1604 103.017 97.9014 101.997 96.8187C101.821 96.6344 101.632 96.4617 101.434 96.3019C101.348 96.2269 101.271 96.1546 101.193 96.0977L100.976 95.9479C100.845 95.8511 100.705 95.7647 100.56 95.6895C101.039 96.065 101.493 96.4706 101.919 96.9039C102.9 97.9976 103.687 99.2508 104.245 100.609C104.568 101.35 104.84 102.111 105.062 102.888C105.249 103.523 105.403 104.166 105.524 104.816C105.628 105.372 105.684 105.824 105.721 106.137C105.735 106.296 105.761 106.454 105.798 106.609Z" fill="#E0E0E0"/>
<path d="M112.744 29.8566L98.7179 34.0763C98.3906 34.1736 98.0382 34.1375 97.7375 33.9757C97.4368 33.814 97.2124 33.5399 97.1132 33.2132L91.4284 14.3138C91.331 13.9865 91.3672 13.6341 91.5289 13.3334C91.6906 13.0327 91.9648 12.8083 92.2914 12.7091L102.111 9.76074L109.157 13.4274L113.617 28.2519C113.714 28.5805 113.677 28.9342 113.513 29.2351C113.349 29.536 113.072 29.7596 112.744 29.8566Z" fill="#E0E0E0"/>
<path d="M102.085 9.71436L103.217 13.4715C103.283 13.6923 103.392 13.8978 103.538 14.0764C103.684 14.255 103.863 14.4032 104.066 14.5123C104.269 14.6215 104.492 14.6896 104.721 14.7128C104.95 14.7359 105.182 14.7137 105.403 14.6472L109.147 13.4302L102.085 9.71436Z" fill="#EBEBEB"/>
<path d="M109.517 26.7586C109.512 26.7428 109.507 26.7272 109.501 26.7121L109.457 26.5854C109.421 26.4666 109.369 26.3012 109.302 26.0893C109.168 25.65 108.971 25.0195 108.723 24.2185C108.232 22.6086 107.532 20.3166 106.692 17.5698L106.765 17.6086L97.2038 20.4949C97.2038 20.513 97.289 20.3373 97.2503 20.4122V20.4277V20.4484L97.2632 20.4872L97.2864 20.5647L97.333 20.7223L97.4286 21.035L97.6146 21.6603L97.9841 22.8877L98.6973 25.265C99.1598 26.8154 99.5965 28.2728 99.9893 29.6165L99.917 29.5777L106.84 27.526L108.798 26.9524L109.315 26.8025L109.449 26.7663C109.466 26.764 109.482 26.764 109.498 26.7663L109.46 26.7818L109.33 26.8232L108.827 26.9808L106.907 27.5674L99.9635 29.6862L99.9066 29.7043L99.8885 29.6475C99.4828 28.3038 99.0436 26.8464 98.5759 25.3012C98.3433 24.5294 98.1039 23.737 97.8575 22.9239L97.488 21.6965L97.3019 21.0712L97.2063 20.7585L97.1598 20.6009L97.1366 20.5234L97.1237 20.4846V20.4639V20.4484C97.0823 20.5234 97.1779 20.3451 97.1676 20.3631L106.728 17.4949L106.785 17.4768L106.801 17.5337C107.622 20.3037 108.305 22.6112 108.785 24.234C109.02 25.0324 109.204 25.6629 109.333 26.1022L109.473 26.5906L109.506 26.7146C109.517 26.7456 109.519 26.7586 109.517 26.7586Z" fill="white"/>
<path d="M104.674 28.3425C104.638 28.3425 103.989 26.3011 103.227 23.761C102.465 21.2209 101.87 19.1486 101.906 19.1382C101.943 19.1279 102.589 21.1796 103.354 23.7223C104.118 26.2649 104.71 28.3218 104.674 28.3425Z" fill="white"/>
<path d="M108.803 24.5129C108.803 24.5465 106.671 25.2235 104.02 26.022C101.369 26.8204 99.2061 27.438 99.1958 27.4018C99.1854 27.3657 101.328 26.6912 103.981 25.8928C106.635 25.0943 108.79 24.4664 108.803 24.5129Z" fill="white"/>
<path d="M108.199 22.1409C108.199 22.177 106.067 22.8515 103.416 23.6499C100.764 24.4484 98.6042 25.0659 98.5913 25.0298C98.5784 24.9936 100.723 24.3192 103.377 23.5207C106.031 22.7223 108.199 22.0969 108.199 22.1409Z" fill="white"/>
<path d="M107.424 19.8152C107.424 19.8514 105.31 20.5206 102.677 21.3139C100.044 22.1072 97.9015 22.7196 97.8912 22.6834C97.8808 22.6472 100.005 21.9754 102.638 21.1847C105.271 20.394 107.424 19.7712 107.424 19.8152Z" fill="white"/>
<path d="M10.2647 49.3013L3.02952 48.0093C2.86191 47.9779 2.71352 47.8815 2.61671 47.7411C2.5199 47.6007 2.48252 47.4278 2.51272 47.2599L4.25692 37.526C4.27216 37.4428 4.30364 37.3635 4.34955 37.2925C4.39547 37.2215 4.45492 37.1603 4.52451 37.1123C4.5941 37.0643 4.67247 37.0305 4.75514 37.0128C4.8378 36.9951 4.92314 36.9939 5.00628 37.0092L10.0632 37.9032L12.3888 41.141L11.0193 48.7767C11.0046 48.861 10.9734 48.9414 10.9275 49.0135C10.8815 49.0856 10.8217 49.1478 10.7515 49.1966C10.6814 49.2454 10.6022 49.2798 10.5186 49.2977C10.4351 49.3157 10.3488 49.3169 10.2647 49.3013Z" fill="#E0E0E0"/>
<path d="M10.0656 37.8826L9.71932 39.818C9.69696 39.9326 9.69767 40.0506 9.72142 40.1649C9.74518 40.2793 9.79149 40.3877 9.85765 40.484C9.92382 40.5802 10.0085 40.6623 10.1068 40.7254C10.205 40.7885 10.3149 40.8314 10.4299 40.8516L12.3808 41.1565L10.0656 37.8826Z" fill="#EBEBEB"/>
<path d="M9.52321 47.1825C9.5207 47.1516 9.5207 47.1205 9.52321 47.0895L9.56197 46.8311C9.60073 46.5934 9.65499 46.2678 9.72218 45.8595C9.8643 45.0197 10.0658 43.844 10.3062 42.4357L10.3527 42.5029L5.43272 41.6243L5.51024 41.5727V41.5882V41.6088V41.6502L5.49474 41.7303L5.46632 41.8905C5.44564 41.999 5.42756 42.105 5.40947 42.2109C5.37071 42.4254 5.33195 42.6373 5.29319 42.844C5.21825 43.2626 5.1459 43.6709 5.07355 44.0688C4.92884 44.8647 4.79189 45.6192 4.66527 46.3066L4.61876 46.2394L8.1666 46.906L9.17178 47.1024L9.43018 47.1567L9.52579 47.18H9.44052L9.18212 47.1412L8.18469 46.9758L4.58 46.3582H4.52057V46.2988C4.6446 45.6063 4.77897 44.8543 4.91592 44.0585C4.98827 43.6605 5.06063 43.2523 5.13556 42.8337C5.17174 42.6243 5.2105 42.415 5.24667 42.2006C5.26735 42.0946 5.28543 41.9887 5.30611 41.8802L5.33453 41.7199L5.34745 41.6373V41.5985V41.5778V41.5623L5.42497 41.5081L10.3527 42.4021H10.4095V42.459C10.1511 43.8776 9.91856 45.0636 9.76094 45.9086C9.68342 46.3091 9.61882 46.6296 9.57489 46.8621C9.55422 46.9629 9.53613 47.043 9.52321 47.1205C9.52517 47.1411 9.52517 47.1619 9.52321 47.1825Z" fill="white"/>
<path d="M7.00128 46.7898C7.0767 45.9896 7.19662 45.1942 7.36046 44.4073C7.48082 43.6125 7.64472 42.8249 7.85142 42.0481C7.776 42.8483 7.65609 43.6437 7.49224 44.4306C7.3734 45.2256 7.20949 46.0133 7.00128 46.7898Z" fill="white"/>
<path d="M9.71184 46.0171C8.87692 45.9372 8.04706 45.8113 7.22603 45.6398C6.39726 45.5124 5.57605 45.3399 4.76605 45.123C5.60078 45.2045 6.43057 45.3304 7.25187 45.5003C8.08037 45.6293 8.90149 45.8018 9.71184 46.0171Z" fill="white"/>
<path d="M9.98548 44.8206C9.15092 44.7378 8.3212 44.6119 7.49967 44.4433C6.6702 44.315 5.84818 44.1425 5.03711 43.9265C5.87189 44.0076 6.70169 44.1335 7.52292 44.3038C8.35266 44.4306 9.17476 44.6031 9.98548 44.8206Z" fill="white"/>
<path d="M10.1638 43.6037C9.33599 43.5243 8.51307 43.4001 7.69868 43.2316C6.87549 43.1016 6.05958 42.9291 5.25421 42.7148C6.0831 42.7926 6.90697 42.9169 7.72194 43.0869C8.54459 43.2153 9.35973 43.3878 10.1638 43.6037Z" fill="white"/>
<path d="M36.5672 25.6732L26.5438 29.1357C26.3101 29.2165 26.0539 29.2012 25.8315 29.0931C25.6091 28.9851 25.4387 28.7931 25.3578 28.5595L20.7066 15.0555C20.6261 14.8234 20.6404 14.569 20.7464 14.3475C20.8523 14.1259 21.0413 13.9551 21.2725 13.872L28.2803 11.4534L33.4871 13.8978L37.146 24.4923C37.2258 24.7256 37.2096 24.9811 37.1011 25.2025C36.9925 25.424 36.8005 25.5933 36.5672 25.6732Z" fill="#FFD000"/>
<path d="M28.2703 11.4172L29.198 14.0994C29.3078 14.418 29.5395 14.68 29.8424 14.8277C30.1452 14.9755 30.4943 14.997 30.813 14.8876L33.4874 13.8953L28.2703 11.4172Z" fill="#FFD000"/>
<g opacity="0.2">
<path d="M28.2703 11.4172L29.198 14.0994C29.3078 14.418 29.5395 14.68 29.8424 14.8277C30.1452 14.9755 30.4943 14.997 30.813 14.8876L33.4874 13.8953L28.2703 11.4172Z" fill="black"/>
</g>
<path d="M34.1438 23.526C34.1239 23.4858 34.1067 23.4444 34.0921 23.402C34.0611 23.3141 34.0172 23.1952 33.9629 23.0479L33.4875 21.712C33.0792 20.557 32.5056 18.9265 31.8156 16.9678L31.8906 17.004L25.0584 19.3735C25.0584 19.3942 25.136 19.2133 25.0998 19.2908V19.3192L25.1179 19.3761L25.1566 19.4872L25.2342 19.712L25.3892 20.1564C25.49 20.4536 25.5907 20.7456 25.6915 21.035C25.8905 21.6138 26.0869 22.1823 26.2755 22.7353C26.6554 23.8387 27.0145 24.8826 27.3427 25.8361L27.2704 25.7999L32.2291 24.1565L33.6348 23.6914L34.0094 23.5673L34.1438 23.5286C34.1056 23.5482 34.0659 23.5646 34.0249 23.5777L33.6658 23.7069L32.2885 24.2082L27.3195 25.942L27.2652 25.9627L27.2471 25.9059C26.9138 24.9472 26.5494 23.9058 26.167 22.8051L25.583 21.1074C25.4822 20.8179 25.3814 20.5234 25.2807 20.2288L25.1256 19.7843L25.0481 19.5595L25.0093 19.4484L24.9913 19.3916V19.3632C24.9551 19.4381 25.0429 19.2572 25.0352 19.2753L31.8725 16.9238L31.9293 16.9058L31.9474 16.96C32.6167 18.9394 33.1774 20.5776 33.5727 21.7559L34.0172 23.0893C34.0637 23.2366 34.1025 23.3477 34.1309 23.4381C34.1593 23.5286 34.1464 23.5286 34.1438 23.526Z" fill="white"/>
<path d="M30.6787 24.8076C30.6451 24.8205 30.1076 23.358 29.4797 21.5414C28.8518 19.7248 28.3711 18.2442 28.4073 18.2313C28.4435 18.2184 28.9784 19.6809 29.6063 21.4975C30.2342 23.314 30.7226 24.7947 30.6787 24.8076Z" fill="white"/>
<path d="M33.5596 21.9237C33.5596 21.9573 32.0453 22.5181 30.1512 23.1718C28.2572 23.8256 26.7094 24.3294 26.6964 24.2933C26.6835 24.2571 28.2107 23.699 30.1073 23.0452C32.004 22.3914 33.5492 21.8824 33.5596 21.9237Z" fill="white"/>
<path d="M33.0584 20.2208C33.0584 20.2544 31.5442 20.8151 29.6501 21.4689C27.756 22.1227 26.2082 22.6265 26.1953 22.5904C26.1824 22.5542 27.7095 21.996 29.6062 21.3423C31.5028 20.6885 33.0481 20.1847 33.0584 20.2208Z" fill="white"/>
<path d="M32.428 18.5619C32.428 18.5955 30.9241 19.1511 29.0456 19.7997C27.167 20.4483 25.6295 20.9496 25.6166 20.9134C25.6037 20.8772 27.1205 20.3242 29.0016 19.6731C30.8828 19.0219 32.4151 18.5232 32.428 18.5619Z" fill="white"/>
<path d="M107.664 86.0073L102.411 88.7748C102.35 88.8074 102.284 88.8277 102.215 88.8343C102.147 88.8409 102.077 88.8338 102.012 88.8133C101.946 88.7929 101.885 88.7595 101.832 88.7151C101.78 88.6708 101.736 88.6164 101.705 88.5551L97.9764 81.4775C97.9437 81.4171 97.9233 81.3508 97.9165 81.2824C97.9097 81.214 97.9166 81.1449 97.9368 81.0792C97.957 81.0135 97.9901 80.9525 98.0342 80.8998C98.0783 80.8471 98.1324 80.8036 98.1935 80.7721L101.868 78.8367L104.969 79.7488L107.894 85.3019C107.926 85.3631 107.946 85.4301 107.952 85.4991C107.958 85.568 107.95 85.6375 107.928 85.7032C107.907 85.769 107.872 85.8298 107.827 85.8821C107.781 85.9343 107.726 85.9769 107.664 86.0073Z" fill="#455A64"/>
<path d="M101.86 78.8186L102.602 80.2243C102.645 80.3072 102.704 80.3808 102.776 80.4408C102.848 80.5007 102.931 80.546 103.02 80.5738C103.11 80.6017 103.203 80.6116 103.297 80.6031C103.39 80.5945 103.48 80.5677 103.563 80.5241L104.958 79.7488L101.86 78.8186Z" fill="#E0E0E0"/>
<path d="M106.131 85.0226C106.077 84.9395 106.028 84.8532 105.984 84.7642L105.599 84.0665L104.263 81.5936L104.343 81.6194L100.762 83.5161L100.79 83.4257V83.4412L100.806 83.4696L100.837 83.529L100.899 83.6453L101.02 83.8804L101.263 84.3404L101.731 85.2319L102.584 86.8624L102.504 86.8391L105.088 85.5058L105.832 85.1337C106.005 85.0458 106.09 85.0019 106.106 85.0019C106.029 85.0549 105.949 85.1024 105.865 85.144L105.15 85.5394L102.547 86.9425L102.498 86.9709L102.47 86.9192C102.212 86.4154 101.912 85.8701 101.607 85.2913C101.452 85.0019 101.297 84.7047 101.134 84.4024L100.891 83.9425L100.77 83.7099L100.708 83.591L100.677 83.5342L100.661 83.5032V83.4877C100.635 83.5678 100.695 83.3766 100.69 83.3972L104.279 81.5161L104.33 81.4902L104.356 81.5419C104.889 82.5755 105.333 83.4463 105.648 84.0717C105.793 84.3637 105.907 84.5885 106 84.7719C106.049 84.8525 106.093 84.9362 106.131 85.0226Z" fill="white"/>
<path d="M104.335 86.0252C103.973 85.4848 103.649 84.9191 103.366 84.3327C103.043 83.7684 102.76 83.1821 102.519 82.5781C102.878 83.1201 103.201 83.6856 103.485 84.2706C103.806 84.8365 104.09 85.4225 104.335 86.0252Z" fill="white"/>
<path d="M105.679 84.1855C105.113 84.5605 104.523 84.8972 103.912 85.1933C103.322 85.5281 102.71 85.825 102.082 86.0822C102.648 85.7068 103.239 85.3701 103.85 85.0744C104.439 84.7383 105.051 84.4413 105.679 84.1855Z" fill="white"/>
<path d="M105.258 83.2861C104.691 83.6589 104.101 83.9947 103.491 84.2913C102.901 84.631 102.29 84.9314 101.661 85.1905C102.817 84.4795 104.018 83.8467 105.258 83.2965V83.2861Z" fill="white"/>
<path d="M104.767 82.4207C103.621 83.1275 102.428 83.756 101.196 84.3018C102.344 83.5964 103.536 82.9679 104.767 82.4207Z" fill="white"/>
<path d="M117.078 27.6475H17.0482V81.8858H117.078V27.6475Z" fill="#F5F5F5"/>
<path d="M117.078 27.6475H17.0482V32.216H117.078V27.6475Z" fill="#263238"/>
<path d="M19.4151 30.5595C19.7276 30.5595 19.981 30.3062 19.981 29.9936C19.981 29.6811 19.7276 29.4277 19.4151 29.4277C19.1025 29.4277 18.8492 29.6811 18.8492 29.9936C18.8492 30.3062 19.1025 30.5595 19.4151 30.5595Z" fill="#FAFAFA"/>
<path d="M21.4743 30.5595C21.7869 30.5595 22.0402 30.3062 22.0402 29.9936C22.0402 29.6811 21.7869 29.4277 21.4743 29.4277C21.1618 29.4277 20.9084 29.6811 20.9084 29.9936C20.9084 30.3062 21.1618 30.5595 21.4743 30.5595Z" fill="#FAFAFA"/>
<path d="M23.5339 30.5595C23.8464 30.5595 24.0998 30.3062 24.0998 29.9936C24.0998 29.6811 23.8464 29.4277 23.5339 29.4277C23.2213 29.4277 22.968 29.6811 22.968 29.9936C22.968 30.3062 23.2213 30.5595 23.5339 30.5595Z" fill="#FAFAFA"/>
<path d="M20.5366 40.0662H16.8983V81.8832H20.5366V40.0662Z" fill="#455A64"/>
<path d="M16.8983 38.4562V42.0945L117.034 42.0945V38.4562L16.8983 38.4562Z" fill="#455A64"/>
<path d="M20.5363 79.5549C20.5001 79.5549 20.4691 70.3559 20.4691 59.0069C20.4691 47.6579 20.5001 38.4563 20.5363 38.4563C20.5725 38.4563 20.6035 47.6554 20.6035 59.0069C20.6035 70.3584 20.5751 79.5549 20.5363 79.5549Z" fill="#E0E0E0"/>
<path d="M34.8415 81.883C34.8054 81.883 34.7744 72.162 34.7744 60.1773C34.7744 48.1927 34.8054 38.4717 34.8415 38.4717C34.8777 38.4717 34.9087 48.1927 34.9087 60.1773C34.9087 72.162 34.8777 81.883 34.8415 81.883Z" fill="#E0E0E0"/>
<path d="M50.0147 81.883C49.9785 81.883 49.9475 72.1929 49.9475 60.2419C49.9475 48.2909 49.9785 38.6008 50.0147 38.6008C50.0509 38.6008 50.0819 48.2883 50.0819 60.2419C50.0819 72.1955 50.0586 81.883 50.0147 81.883Z" fill="#E0E0E0"/>
<path d="M64.8311 81.883C64.7923 81.883 64.7639 72.1929 64.7639 60.2419C64.7639 48.2909 64.7923 38.6008 64.8311 38.6008C64.8699 38.6008 64.8983 48.2883 64.8983 60.2419C64.8983 72.1955 64.8673 81.883 64.8311 81.883Z" fill="#E0E0E0"/>
<path d="M79.9943 81.883C79.9581 81.883 79.9271 72.162 79.9271 60.1773C79.9271 48.1927 79.9581 38.4717 79.9943 38.4717C80.0305 38.4717 80.0615 48.1927 80.0615 60.1773C80.0615 72.162 80.0331 81.883 79.9943 81.883Z" fill="#E0E0E0"/>
<path d="M95.1601 81.883C95.1213 81.883 95.0929 72.162 95.0929 60.1773C95.0929 48.1927 95.1213 38.4717 95.1601 38.4717C95.1988 38.4717 95.2273 48.1927 95.2273 60.1773C95.2273 72.162 95.1963 81.883 95.1601 81.883Z" fill="#E0E0E0"/>
<path d="M110.323 81.883C110.287 81.883 110.256 72.1929 110.256 60.2419C110.256 48.2909 110.287 38.6008 110.323 38.6008C110.359 38.6008 110.39 48.2883 110.39 60.2419C110.39 72.1955 110.362 81.883 110.323 81.883Z" fill="#E0E0E0"/>
<path d="M116.481 45.415C116.481 45.4512 94.1885 45.4822 66.6947 45.4822C39.2009 45.4822 16.9009 45.4512 16.9009 45.415C16.9009 45.3788 39.1905 45.3452 66.6947 45.3452C94.1989 45.3452 116.481 45.3762 116.481 45.415Z" fill="#E0E0E0"/>
<path d="M116.481 42.0945C116.481 42.1333 94.1885 42.1617 66.6947 42.1617C39.2009 42.1617 16.9009 42.1333 16.9009 42.0945C16.9009 42.0558 39.1905 42.0273 66.6947 42.0273C94.1989 42.0273 116.481 42.0584 116.481 42.0945Z" fill="#E0E0E0"/>
<path d="M116.481 48.9085C116.481 48.9473 94.1885 48.9757 66.6947 48.9757C39.2009 48.9757 16.9009 48.9473 16.9009 48.9085C16.9009 48.8697 39.1905 48.8413 66.6947 48.8413C94.1989 48.8413 116.481 48.8723 116.481 48.9085Z" fill="#E0E0E0"/>
<path d="M116.481 52.4048C116.481 52.441 94.1885 52.472 66.6947 52.472C39.2009 52.472 16.9009 52.441 16.9009 52.4048C16.9009 52.3687 39.1905 52.3376 66.6947 52.3376C94.1989 52.3376 116.481 52.3738 116.481 52.4048Z" fill="#E0E0E0"/>
<path d="M116.481 55.9009C116.481 55.9371 94.1885 55.9681 66.6947 55.9681C39.2009 55.9681 16.9009 55.9371 16.9009 55.9009C16.9009 55.8647 39.1905 55.8337 66.6947 55.8337C94.1989 55.8337 116.481 55.8622 116.481 55.9009Z" fill="#E0E0E0"/>
<path d="M116.481 59.3946C116.481 59.4333 94.1885 59.4618 66.6947 59.4618C39.2009 59.4618 16.9009 59.4333 16.9009 59.3946C16.9009 59.3558 39.1905 59.3274 66.6947 59.3274C94.1989 59.3274 116.481 59.3506 116.481 59.3946Z" fill="#E0E0E0"/>
<path d="M116.481 62.8907C116.481 62.9268 94.1885 62.9579 66.6947 62.9579C39.2009 62.9579 16.9009 62.9268 16.9009 62.8907C16.9009 62.8545 39.1905 62.8235 66.6947 62.8235C94.1989 62.8235 116.481 62.8545 116.481 62.8907Z" fill="#E0E0E0"/>
<path d="M116.481 66.3868C116.481 66.4229 94.1885 66.4539 66.6947 66.4539C39.2009 66.4539 16.9009 66.4229 16.9009 66.3868C16.9009 66.3506 39.1905 66.3196 66.6947 66.3196C94.1989 66.3196 116.481 66.348 116.481 66.3868Z" fill="#E0E0E0"/>
<path d="M116.481 69.8804C116.481 69.9192 94.1885 69.9502 66.6947 69.9502C39.2009 69.9502 16.9009 69.9192 16.9009 69.8804C16.9009 69.8417 39.1905 69.8132 66.6947 69.8132C94.1989 69.8132 116.481 69.8442 116.481 69.8804Z" fill="#E0E0E0"/>
<path d="M116.481 73.3765C116.481 73.4153 94.1885 73.4437 66.6947 73.4437C39.2009 73.4437 16.9009 73.4153 16.9009 73.3765C16.9009 73.3378 39.1905 73.3093 66.6947 73.3093C94.1989 73.3093 116.481 73.3403 116.481 73.3765Z" fill="#E0E0E0"/>
<path d="M116.481 76.8726C116.481 76.9088 94.1885 76.9398 66.6947 76.9398C39.2009 76.9398 16.9009 76.9088 16.9009 76.8726C16.9009 76.8364 39.1905 76.8054 66.6947 76.8054C94.1989 76.8054 116.481 76.8364 116.481 76.8726Z" fill="#E0E0E0"/>
<path d="M116.481 80.3689C116.481 80.4051 94.1885 80.4361 66.6947 80.4361C39.2009 80.4361 16.9009 80.4051 16.9009 80.3689C16.9009 80.3328 39.1905 80.3018 66.6947 80.3018C94.1989 80.3018 116.481 80.3302 116.481 80.3689Z" fill="#E0E0E0"/>
<path d="M96.5039 45.0274C96.5039 45.0636 85.1497 45.0946 71.1444 45.0946C57.1391 45.0946 45.785 45.0636 45.785 45.0274C45.785 44.9912 57.1365 44.9602 71.1444 44.9602C85.1523 44.9602 96.5039 44.9886 96.5039 45.0274Z" fill="#FAFAFA"/>
<path d="M101.308 46.9681C101.308 47.0042 87.1085 47.0352 69.5967 47.0352C52.0848 47.0352 37.8806 47.0042 37.8806 46.9681C37.8806 46.9319 52.0771 46.9009 69.5967 46.9009C87.1162 46.9009 101.308 46.9293 101.308 46.9681Z" fill="#FAFAFA"/>
<path d="M64.8314 52.4048H34.8414V55.9009H64.8314V52.4048Z" fill="#FFD000"/>
<path d="M64.8314 55.5132H34.8414V70.2653H64.8314V55.5132Z" fill="#EBEBEB"/>
<path d="M47.529 57.4927C47.529 57.5315 45.0535 57.5599 42.0018 57.5599C38.9501 57.5599 36.4746 57.5315 36.4746 57.4927C36.4746 57.454 38.9501 57.4255 42.0018 57.4255C45.0535 57.4255 47.529 57.4565 47.529 57.4927Z" fill="#263238"/>
<path d="M43.1155 61.3299C43.1155 61.3686 41.6271 61.3971 39.7951 61.3971C37.963 61.3971 36.4746 61.3686 36.4746 61.3299C36.4746 61.2911 37.9604 61.2627 39.7951 61.2627C41.6297 61.2627 43.1155 61.2937 43.1155 61.3299Z" fill="#263238"/>
<path d="M48.5962 64.1258C48.5962 64.162 45.883 64.193 42.5367 64.193C39.1904 64.193 36.4746 64.162 36.4746 64.1258C36.4746 64.0896 39.1878 64.0586 42.5367 64.0586C45.8856 64.0586 48.5962 64.087 48.5962 64.1258Z" fill="#263238"/>
<path d="M43.1155 58.5364C43.1155 58.5726 41.6271 58.6036 39.7951 58.6036C37.963 58.6036 36.4746 58.5726 36.4746 58.5364C36.4746 58.5002 37.9604 58.4692 39.7951 58.4692C41.6297 58.4692 43.1155 58.4977 43.1155 58.5364Z" fill="#263238"/>
<path d="M63.7179 57.4927C63.1331 57.5608 62.5439 57.5832 61.9556 57.5599C61.3673 57.5832 60.7781 57.5608 60.1933 57.4927C60.7782 57.4262 61.3673 57.4037 61.9556 57.4255C62.5439 57.4037 63.133 57.4262 63.7179 57.4927Z" fill="#263238"/>
<path d="M63.7179 60.6425C63.133 60.709 62.5439 60.7315 61.9556 60.7097C61.3673 60.7315 60.7782 60.709 60.1933 60.6425C60.7781 60.5745 61.3673 60.552 61.9556 60.5753C62.5439 60.552 63.1331 60.5745 63.7179 60.6425Z" fill="#263238"/>
<path d="M63.7179 64.1259C63.133 64.1924 62.5439 64.2149 61.9556 64.1931C61.3673 64.2149 60.7782 64.1924 60.1933 64.1259C60.7781 64.0579 61.3673 64.0354 61.9556 64.0587C62.5439 64.0354 63.1331 64.0579 63.7179 64.1259Z" fill="#263238"/>
<path d="M63.5241 68.3946C63.5241 68.4308 62.2761 68.4618 60.736 68.4618C59.1959 68.4618 57.9504 68.4308 57.9504 68.3946C57.9504 68.3584 59.1959 68.3274 60.736 68.3274C62.2761 68.3274 63.5241 68.3584 63.5241 68.3946Z" fill="#263238"/>
<path d="M50.0147 70.0096C49.9785 70.0096 49.9475 66.8209 49.9475 62.8907C49.9475 58.9604 49.9785 55.7717 50.0147 55.7717C50.0509 55.7717 50.0819 58.9578 50.0819 62.8907C50.0819 66.8235 50.0586 70.0096 50.0147 70.0096Z" fill="#E0E0E0"/>
<path d="M64.5808 66.0689C64.5808 66.1051 61.2655 66.1361 57.175 66.1361C53.0845 66.1361 49.7719 66.1051 49.7719 66.0689C49.7719 66.0327 53.0845 66.0017 57.175 66.0017C61.2655 66.0017 64.5808 66.0379 64.5808 66.0689Z" fill="#E0E0E0"/>
<path d="M64.8314 76.7434H34.8414V80.3688H64.8314V76.7434Z" fill="#F5F5F5"/>
<path d="M64.8313 73.3765H34.7922V76.8726H64.8313V73.3765Z" fill="#FFD000"/>
<path d="M48.8493 78.7305C48.8493 78.7693 46.0198 78.7977 42.5314 78.7977C39.043 78.7977 36.2135 78.7693 36.2135 78.7305C36.2135 78.6918 39.0404 78.6633 42.5314 78.6633C46.0224 78.6633 48.8493 78.6969 48.8493 78.7305Z" fill="#263238"/>
<path d="M63.5241 78.555C63.5241 78.5912 62.2761 78.6222 60.736 78.6222C59.1959 78.6222 57.9504 78.5912 57.9504 78.555C57.9504 78.5188 59.1959 78.4878 60.736 78.4878C62.2761 78.4878 63.5241 78.5188 63.5241 78.555Z" fill="#263238"/>
<path d="M83.3201 64.5134H80.7257V73.3146H83.3201V64.5134Z" fill="#FFD000"/>
<path d="M99.0824 66.1104H96.488V73.3146H99.0824V66.1104Z" fill="#FFD000"/>
<path d="M109.592 68.1233H106.997V73.3146H109.592V68.1233Z" fill="#263238"/>
<path d="M88.576 59.1155H85.9817V73.3146H88.576V59.1155Z" fill="#455A64"/>
<path d="M93.8292 59.1155H91.2349V73.3146H93.8292V59.1155Z" fill="#263238"/>
<path d="M104.336 55.8362H101.741V73.3144H104.336V55.8362Z" fill="#455A64"/>
<path d="M22.0426 33.8127H19.7403V36.1151H22.0426V33.8127Z" fill="#FFD000"/>
<path d="M23.3815 37.1281H20.8233V34.5674H23.3815V37.1281ZM21.0817 36.8697H23.1231V34.8258H21.0817V36.8697Z" fill="#FFD000"/>
<path d="M28.9035 34.4226H26.7536V36.5725H28.9035V34.4226Z" fill="#E0E0E0"/>
<path d="M32.3971 34.4226H30.2472V36.5725H32.3971V34.4226Z" fill="#E0E0E0"/>
<path d="M35.8907 34.4226H33.7408V36.5725H35.8907V34.4226Z" fill="#E0E0E0"/>
<path d="M39.3868 34.4226H37.2369V36.5725H39.3868V34.4226Z" fill="#E0E0E0"/>
<path d="M42.8804 34.4226H40.7305V36.5725H42.8804V34.4226Z" fill="#E0E0E0"/>
<path d="M68.803 34.4019H46.0793V36.5957H68.803V34.4019Z" fill="#E0E0E0"/>
<path d="M94.6457 34.4019H71.9219V36.5957H94.6457V34.4019Z" fill="#E0E0E0"/>
<path d="M117.078 81.883C117.078 81.4747 117.057 61.0094 117.026 27.6473L117.078 27.6964L17.0561 27.7144L17.1233 27.6473C17.1233 46.8103 17.1233 65.1567 17.1233 81.883L17.0613 81.821L117.091 81.883L17.0613 81.9476H16.9838V81.883C16.9838 65.1567 16.9838 46.8103 16.9838 27.6473V27.5801H17.0587L117.08 27.5956H117.132V27.6473C117.096 61.0094 117.078 81.4773 117.078 81.883Z" fill="#263238"/>
<path d="M110.413 23.2649H10.3839V77.5032H110.413V23.2649Z" fill="#F5F5F5"/>
<path d="M110.413 23.2649H10.3839V27.8334H110.413V23.2649Z" fill="#263238"/>
<path d="M12.7534 26.177C13.0659 26.177 13.3193 25.9236 13.3193 25.6111C13.3193 25.2985 13.0659 25.0452 12.7534 25.0452C12.4409 25.0452 12.1875 25.2985 12.1875 25.6111C12.1875 25.9236 12.4409 26.177 12.7534 26.177Z" fill="#FAFAFA"/>
<path d="M14.813 26.177C15.1255 26.177 15.3789 25.9236 15.3789 25.6111C15.3789 25.2985 15.1255 25.0452 14.813 25.0452C14.5004 25.0452 14.2471 25.2985 14.2471 25.6111C14.2471 25.9236 14.5004 26.177 14.813 26.177Z" fill="#FAFAFA"/>
<path d="M16.8722 26.177C17.1847 26.177 17.4381 25.9236 17.4381 25.6111C17.4381 25.2985 17.1847 25.0452 16.8722 25.0452C16.5596 25.0452 16.3063 25.2985 16.3063 25.6111C16.3063 25.9236 16.5596 26.177 16.8722 26.177Z" fill="#FAFAFA"/>
<path d="M13.8747 35.6836H10.2364V77.5006H13.8747V35.6836Z" fill="#455A64"/>
<path d="M10.2338 34.0736V37.7119L110.369 37.7119V34.0736L10.2338 34.0736Z" fill="#455A64"/>
<path d="M13.8829 75.1724C13.8467 75.1724 13.8157 65.9707 13.8157 54.6243C13.8157 43.278 13.8467 34.0737 13.8829 34.0737C13.919 34.0737 13.95 43.2728 13.95 54.6243C13.95 65.9759 13.9113 75.1724 13.8829 75.1724Z" fill="#E0E0E0"/>
<path d="M28.1799 77.5007C28.1437 77.5007 28.1127 67.7796 28.1127 55.795C28.1127 43.8104 28.1437 34.0894 28.1799 34.0894C28.2161 34.0894 28.2471 43.8104 28.2471 55.795C28.2471 67.7796 28.2161 77.5007 28.1799 77.5007Z" fill="#E0E0E0"/>
<path d="M43.3533 77.5006C43.3171 77.5006 43.2861 67.8106 43.2861 55.8596C43.2861 43.9085 43.3171 34.2185 43.3533 34.2185C43.3895 34.2185 43.4205 43.906 43.4205 55.8596C43.4205 67.8132 43.3921 77.5006 43.3533 77.5006Z" fill="#E0E0E0"/>
<path d="M58.17 77.5006C58.1313 77.5006 58.1028 67.8106 58.1028 55.8596C58.1028 43.9085 58.1313 34.2185 58.17 34.2185C58.2088 34.2185 58.2372 43.906 58.2372 55.8596C58.2372 67.8132 58.2062 77.5006 58.17 77.5006Z" fill="#E0E0E0"/>
<path d="M73.3329 77.5007C73.2968 77.5007 73.2657 67.7796 73.2657 55.795C73.2657 43.8104 73.2968 34.0894 73.3329 34.0894C73.3691 34.0894 73.4001 43.8104 73.4001 55.795C73.4001 67.7796 73.3691 77.5007 73.3329 77.5007Z" fill="#E0E0E0"/>
<path d="M88.4984 77.5007C88.4597 77.5007 88.4286 67.7796 88.4286 55.795C88.4286 43.8104 88.4597 34.0894 88.4984 34.0894C88.5372 34.0894 88.5656 43.8104 88.5656 55.795C88.5656 67.7796 88.5346 77.5007 88.4984 77.5007Z" fill="#E0E0E0"/>
<path d="M103.661 77.5006C103.625 77.5006 103.594 67.8106 103.594 55.8596C103.594 43.9085 103.625 34.2185 103.661 34.2185C103.697 34.2185 103.728 43.906 103.728 55.8596C103.728 67.8132 103.697 77.5006 103.661 77.5006Z" fill="#E0E0E0"/>
<path d="M109.819 41.0298C109.819 41.0686 87.5266 41.0996 60.0327 41.0996C32.5389 41.0996 10.2389 41.0686 10.2389 41.0298C10.2389 40.9911 32.5285 40.9626 60.0327 40.9626C87.5369 40.9626 109.819 41.004 109.819 41.0298Z" fill="#E0E0E0"/>
<path d="M109.819 37.712C109.819 37.7507 87.5266 37.7791 60.0327 37.7791C32.5389 37.7791 10.2389 37.7507 10.2389 37.712C10.2389 37.6732 32.5285 37.6448 60.0327 37.6448C87.5369 37.6448 109.819 37.6758 109.819 37.712Z" fill="#E0E0E0"/>
<path d="M109.819 44.5262C109.819 44.5649 87.5266 44.5934 60.0327 44.5934C32.5389 44.5934 10.2389 44.5649 10.2389 44.5262C10.2389 44.4874 32.5285 44.459 60.0327 44.459C87.5369 44.459 109.819 44.49 109.819 44.5262Z" fill="#E0E0E0"/>
<path d="M109.819 48.0223C109.819 48.0584 87.5266 48.0894 60.0327 48.0894C32.5389 48.0894 10.2389 48.0584 10.2389 48.0223C10.2389 47.9861 32.5285 47.9551 60.0327 47.9551C87.5369 47.9551 109.819 47.9809 109.819 48.0223Z" fill="#E0E0E0"/>
<path d="M109.819 51.5184C109.819 51.5545 87.5266 51.5855 60.0327 51.5855C32.5389 51.5855 10.2389 51.5545 10.2389 51.5184C10.2389 51.4822 32.5285 51.4512 60.0327 51.4512C87.5369 51.4512 109.819 51.4796 109.819 51.5184Z" fill="#E0E0E0"/>
<path d="M109.819 55.012C109.819 55.0508 87.5266 55.0792 60.0327 55.0792C32.5389 55.0792 10.2389 55.0508 10.2389 55.012C10.2389 54.9733 32.5285 54.9448 60.0327 54.9448C87.5369 54.9448 109.819 54.9758 109.819 55.012Z" fill="#E0E0E0"/>
<path d="M109.819 58.5081C109.819 58.5443 87.5266 58.5753 60.0327 58.5753C32.5389 58.5753 10.2389 58.5443 10.2389 58.5081C10.2389 58.4719 32.5285 58.4409 60.0327 58.4409C87.5369 58.4409 109.819 58.4719 109.819 58.5081Z" fill="#E0E0E0"/>
<path d="M109.819 62.0042C109.819 62.0404 87.5266 62.0714 60.0327 62.0714C32.5389 62.0714 10.2389 62.0404 10.2389 62.0042C10.2389 61.968 32.5285 61.937 60.0327 61.937C87.5369 61.937 109.819 61.9654 109.819 62.0042Z" fill="#E0E0E0"/>
<path d="M109.819 65.4979C109.819 65.5366 87.5266 65.5676 60.0327 65.5676C32.5389 65.5676 10.2389 65.5366 10.2389 65.4979C10.2389 65.4591 32.5285 65.4307 60.0327 65.4307C87.5369 65.4307 109.819 65.4617 109.819 65.4979Z" fill="#E0E0E0"/>
<path d="M109.819 68.9939C109.819 69.0327 87.5266 69.0611 60.0327 69.0611C32.5389 69.0611 10.2389 69.0327 10.2389 68.9939C10.2389 68.9552 32.5285 68.9268 60.0327 68.9268C87.5369 68.9268 109.819 68.9578 109.819 68.9939Z" fill="#E0E0E0"/>
<path d="M109.819 72.4903C109.819 72.5265 87.5266 72.5575 60.0327 72.5575C32.5389 72.5575 10.2389 72.529 10.2389 72.4903C10.2389 72.4515 32.5285 72.4231 60.0327 72.4231C87.5369 72.4231 109.819 72.4541 109.819 72.4903Z" fill="#E0E0E0"/>
<path d="M109.819 75.9864C109.819 76.0226 87.5266 76.0536 60.0327 76.0536C32.5389 76.0536 10.2389 76.0226 10.2389 75.9864C10.2389 75.9502 32.5285 75.9192 60.0327 75.9192C87.5369 75.9192 109.819 75.9476 109.819 75.9864Z" fill="#E0E0E0"/>
<path d="M110.369 37.7119H13.8747V44.5259H110.369V37.7119Z" fill="#FFD000"/>
<path d="M89.8521 40.645C89.8521 40.6811 78.4954 40.7121 64.4927 40.7121C50.49 40.7121 39.1332 40.6811 39.1332 40.645C39.1332 40.6088 50.4848 40.5752 64.4927 40.5752C78.5006 40.5752 89.8521 40.6062 89.8521 40.645Z" fill="#FAFAFA"/>
<path d="M94.6457 42.5855C94.6457 42.6217 80.4466 42.6527 62.9322 42.6527C45.4178 42.6527 31.2186 42.6217 31.2186 42.5855C31.2186 42.5493 45.4152 42.5183 62.9322 42.5183C80.4491 42.5183 94.6457 42.5545 94.6457 42.5855Z" fill="#FAFAFA"/>
<path d="M58.17 48.0222H28.18V51.5184H58.17V48.0222Z" fill="#FFD000"/>
<path d="M58.17 51.1309H28.18V65.883H58.17V51.1309Z" fill="#EBEBEB"/>
<path d="M40.8671 53.1102C40.8671 53.1489 38.3916 53.1773 35.3399 53.1773C32.2882 53.1773 29.8127 53.1489 29.8127 53.1102C29.8127 53.0714 32.2882 53.043 35.3399 53.043C38.3916 53.043 40.8671 53.074 40.8671 53.1102Z" fill="#263238"/>
<path d="M36.451 56.9473C36.451 56.9835 34.9652 57.0145 33.1331 57.0145C31.3011 57.0145 29.8127 56.9835 29.8127 56.9473C29.8127 56.9111 31.2985 56.8801 33.1331 56.8801C34.9678 56.8801 36.451 56.9111 36.451 56.9473Z" fill="#263238"/>
<path d="M41.9343 59.7432C41.9343 59.7794 39.2211 59.8104 35.8748 59.8104C32.5285 59.8104 29.8127 59.7794 29.8127 59.7432C29.8127 59.707 32.5259 59.676 35.8748 59.676C39.2236 59.676 41.9343 59.7045 41.9343 59.7432Z" fill="#263238"/>
<path d="M36.451 54.154C36.451 54.1902 34.9652 54.2212 33.1331 54.2212C31.3011 54.2212 29.8127 54.1902 29.8127 54.154C29.8127 54.1178 31.2985 54.0842 33.1331 54.0842C34.9678 54.0842 36.451 54.1152 36.451 54.154Z" fill="#263238"/>
<path d="M57.056 53.1101C56.4712 53.1781 55.882 53.2006 55.2937 53.1773C54.7045 53.2006 54.1145 53.1781 53.5288 53.1101C54.1146 53.0437 54.7045 53.0212 55.2937 53.0429C55.882 53.0213 56.4711 53.0437 57.056 53.1101Z" fill="#263238"/>
<path d="M57.056 56.2497C56.4711 56.316 55.882 56.3385 55.2937 56.3168C54.7045 56.3386 54.1146 56.3161 53.5288 56.2497C54.1145 56.1817 54.7045 56.1592 55.2937 56.1825C55.882 56.1592 56.4712 56.1817 57.056 56.2497Z" fill="#263238"/>
<path d="M57.056 59.7433C56.4711 59.8097 55.882 59.8322 55.2937 59.8105C54.7045 59.8322 54.1146 59.8098 53.5288 59.7433C54.1145 59.6753 54.7045 59.6528 55.2937 59.6761C55.882 59.6529 56.4712 59.6753 57.056 59.7433Z" fill="#263238"/>
<path d="M56.8622 64.0147C56.8622 64.0509 55.6141 64.0819 54.074 64.0819C52.534 64.0819 51.2859 64.0509 51.2859 64.0147C51.2859 63.9785 52.534 63.9475 54.074 63.9475C55.6141 63.9475 56.8622 63.9759 56.8622 64.0147Z" fill="#263238"/>
<path d="M43.3533 65.627C43.3171 65.627 43.2861 62.4384 43.2861 58.5081C43.2861 54.5778 43.3171 51.3892 43.3533 51.3892C43.3895 51.3892 43.4205 54.5752 43.4205 58.5081C43.4205 62.441 43.3921 65.627 43.3533 65.627Z" fill="#E0E0E0"/>
<path d="M57.9194 61.6941C57.9194 61.7303 54.6016 61.7613 50.5137 61.7613C46.4258 61.7613 43.1079 61.7303 43.1079 61.6941C43.1079 61.658 46.4232 61.627 50.5137 61.627C54.6042 61.627 57.9194 61.6554 57.9194 61.6941Z" fill="#E0E0E0"/>
<path d="M58.17 72.3611H28.18V75.9864H58.17V72.3611Z" fill="#F5F5F5"/>
<path d="M58.1699 68.9941H28.1309V72.4903H58.1699V68.9941Z" fill="#FFD000"/>
<path d="M42.1879 74.3506C42.1879 74.3894 39.3585 74.4178 35.87 74.4178C32.3816 74.4178 29.5496 74.3894 29.5496 74.3506C29.5496 74.3119 32.392 74.2834 35.87 74.2834C39.3481 74.2834 42.1879 74.3144 42.1879 74.3506Z" fill="#263238"/>
<path d="M56.8622 74.1724C56.8622 74.2086 55.6141 74.2396 54.074 74.2396C52.534 74.2396 51.2859 74.2086 51.2859 74.1724C51.2859 74.1362 52.534 74.1052 54.074 74.1052C55.6141 74.1052 56.8622 74.1362 56.8622 74.1724Z" fill="#263238"/>
<path d="M76.6584 60.1309H74.0641V68.932H76.6584V60.1309Z" fill="#FFD000"/>
<path d="M92.4212 61.7278H89.8269V68.932H92.4212V61.7278Z" fill="#FFD000"/>
<path d="M102.928 63.7407H100.333V68.932H102.928V63.7407Z" fill="#263238"/>
<path d="M81.9118 54.7329H79.3175V68.932H81.9118V54.7329Z" fill="#455A64"/>
<path d="M87.1678 54.7329H84.5735V68.932H87.1678V54.7329Z" fill="#263238"/>
<path d="M97.6742 51.4539H95.0798V68.9321H97.6742V51.4539Z" fill="#455A64"/>
<path d="M15.379 29.4302H13.0767V31.7325H15.379V29.4302Z" fill="#FFD000"/>
<path d="M16.7249 32.7352H14.1667V30.177H16.7249V32.7352ZM14.4251 32.4768H16.4665V30.4354H14.4251V32.4768Z" fill="#FFD000"/>
<path d="M22.2393 30.04H20.0894V32.1899H22.2393V30.04Z" fill="#E0E0E0"/>
<path d="M25.7354 30.04H23.5855V32.1899H25.7354V30.04Z" fill="#E0E0E0"/>
<path d="M29.229 30.04H27.0791V32.1899H29.229V30.04Z" fill="#E0E0E0"/>
<path d="M32.7251 30.04H30.5753V32.1899H32.7251V30.04Z" fill="#E0E0E0"/>
<path d="M36.219 30.04H34.0692V32.1899H36.219V30.04Z" fill="#E0E0E0"/>
<path d="M62.1414 30.0195H39.4177V32.2134H62.1414V30.0195Z" fill="#E0E0E0"/>
<path d="M87.984 30.0195H65.2603V32.2134H87.984V30.0195Z" fill="#E0E0E0"/>
<path d="M110.369 30.0195H90.7774V32.2134H110.369V30.0195Z" fill="#E0E0E0"/>
<path d="M110.416 77.5006C110.416 77.0923 110.395 56.627 110.364 23.2648L110.416 23.3139L10.3915 23.332L10.4586 23.2648C10.4586 42.4278 10.4586 60.7743 10.4586 77.5006L10.394 77.4386L110.426 77.5006L10.394 77.5652H10.332V77.5006C10.332 60.7743 10.332 42.4278 10.332 23.2648V23.1951H10.407L110.431 23.2132H110.48V23.2648C110.434 56.627 110.416 77.0923 110.416 77.5006Z" fill="#263238"/>
<path d="M62.9994 83.2786L69.9763 90.7231L80.4105 87.6223L82.2477 91.6895C82.2477 91.6895 70.1391 96.2012 69.0796 95.7852C68.0202 95.3691 61.648 89.9686 61.648 89.9686L62.9994 83.2786Z" fill="#FFD000"/>
<path d="M67.2165 88.0332C67.0666 88.2244 66.9015 88.4033 66.7229 88.5681C66.4128 88.8911 65.9916 89.3433 65.5498 89.8601C64.8263 90.7128 64.2862 91.488 64.1001 91.7232L63.9942 91.8575L64.0666 91.7051C64.1001 91.6327 64.1208 91.5991 64.126 91.6017C64.1312 91.6043 64.126 91.6431 64.1027 91.718L64.0691 91.6999C64.4701 91.0178 64.9311 90.3727 65.4464 89.7722C65.8255 89.3238 66.2292 88.8968 66.6557 88.4932C66.8259 88.3204 67.0138 88.1663 67.2165 88.0332Z" fill="#FAFAFA"/>
<path d="M66.6558 87.1597C66.4792 87.3567 66.2901 87.5423 66.0899 87.7152C65.7385 88.0511 65.2656 88.5292 64.7798 89.0951C64.294 89.661 63.8935 90.1985 63.6144 90.599C63.4753 90.8231 63.3207 91.0372 63.1519 91.2398C63.2536 90.9949 63.3818 90.7618 63.5343 90.5447C63.8794 90.0019 64.2619 89.4839 64.679 88.9943C65.0958 88.5082 65.5465 88.0523 66.0279 87.63C66.2197 87.4512 66.4302 87.2935 66.6558 87.1597Z" fill="#FAFAFA"/>
<path d="M81.4878 109.584L81.3146 108.775L76.8055 109.666L77.1053 111.429L77.3895 111.4C78.6505 111.271 83.7901 110.656 84.586 110.271C85.4723 109.84 81.4878 109.584 81.4878 109.584Z" fill="#FFD000"/>
<g opacity="0.5">
<path d="M78.7412 111.132C78.6255 110.753 78.3743 110.43 78.0358 110.225C77.865 110.117 77.6722 110.05 77.4718 110.028C77.2713 110.005 77.0684 110.028 76.8782 110.095L77.1004 111.362L78.7412 111.132Z" fill="white"/>
</g>
<g opacity="0.5">
<path d="M83.4441 109.778C83.4441 109.778 84.855 109.951 84.7232 110.201C84.5914 110.452 79.4182 111.266 77.1055 111.429V111.325L83.134 110.424C83.134 110.424 83.1831 109.829 83.4441 109.778Z" fill="white"/>
</g>
<path d="M77.0252 111.333H77.1053L77.3301 111.31L78.1596 111.217C78.8573 111.132 79.8237 111 80.8831 110.834C81.9426 110.669 82.9038 110.496 83.5963 110.362L84.4129 110.196L84.6351 110.147C84.6618 110.144 84.6879 110.137 84.7126 110.126H84.6325L84.4103 110.165L83.5886 110.313C82.8961 110.437 81.9374 110.602 80.8754 110.77C79.8134 110.938 78.8521 111.072 78.1544 111.168L77.3275 111.279L77.1027 111.31L77.0252 111.333Z" fill="#263238"/>
<path d="M83.147 110.493C83.1628 110.352 83.1931 110.212 83.2375 110.077C83.3001 109.948 83.3782 109.828 83.47 109.718C83.3444 109.8 83.2463 109.917 83.1887 110.056C83.1311 110.194 83.1165 110.347 83.147 110.493Z" fill="#263238"/>
<path d="M81.7023 110.028C81.7178 110.028 81.7695 109.945 81.8186 109.832C81.8562 109.764 81.8783 109.689 81.8832 109.612C81.8677 109.612 81.816 109.695 81.7669 109.808C81.7292 109.876 81.7071 109.951 81.7023 110.028Z" fill="#263238"/>
<path d="M81.3044 109.891C81.3173 109.891 81.3819 109.842 81.4491 109.759C81.5163 109.677 81.5602 109.602 81.5473 109.592C81.5344 109.581 81.4724 109.641 81.4052 109.723C81.338 109.806 81.2941 109.881 81.3044 109.891Z" fill="#263238"/>
<path d="M81.0075 109.501C81.1684 109.514 81.3302 109.49 81.4804 109.431C81.3195 109.418 81.1577 109.442 81.0075 109.501Z" fill="#263238"/>
<path d="M80.8782 109.222C80.9648 109.261 81.0612 109.273 81.1547 109.256C81.2466 109.256 81.3365 109.229 81.4131 109.178C81.2323 109.194 81.0514 109.209 80.8704 109.222H80.8782Z" fill="#263238"/>
<path d="M81.7954 109.607C81.8939 109.609 81.992 109.594 82.0848 109.56C82.188 109.53 82.2883 109.49 82.3845 109.442C82.444 109.416 82.4997 109.382 82.5499 109.341C82.5657 109.329 82.5789 109.313 82.5887 109.296C82.5984 109.279 82.6046 109.26 82.6068 109.24C82.6082 109.218 82.603 109.196 82.592 109.176C82.581 109.157 82.5646 109.141 82.5448 109.131C82.4253 109.094 82.2966 109.1 82.1806 109.147C82.0647 109.194 81.9687 109.28 81.9091 109.39C81.8742 109.455 81.8523 109.526 81.8445 109.599C81.839 109.626 81.839 109.653 81.8445 109.679C81.8615 109.589 81.8929 109.501 81.9375 109.421C81.9918 109.334 82.0697 109.264 82.1623 109.219C82.2155 109.191 82.2738 109.174 82.3336 109.169C82.3935 109.164 82.4539 109.17 82.5112 109.188C82.5628 109.217 82.5551 109.274 82.5112 109.312C82.4635 109.349 82.4125 109.381 82.3587 109.408C82.2655 109.456 82.1687 109.498 82.0693 109.532C81.9039 109.581 81.7928 109.599 81.7954 109.607Z" fill="#263238"/>
<path d="M81.873 109.609C81.8962 109.543 81.8962 109.47 81.873 109.403C81.8534 109.328 81.8141 109.259 81.7593 109.204C81.7294 109.165 81.6899 109.134 81.6446 109.114C81.5994 109.095 81.5499 109.087 81.5009 109.093C81.4723 109.103 81.4489 109.125 81.4359 109.152C81.4228 109.18 81.4211 109.211 81.4311 109.24C81.4453 109.286 81.4691 109.328 81.5009 109.364C81.5493 109.422 81.6048 109.473 81.6663 109.516C81.7202 109.562 81.7839 109.593 81.8523 109.609C81.8523 109.609 81.7851 109.566 81.6921 109.485C81.6359 109.44 81.5855 109.388 81.5422 109.33C81.4905 109.276 81.4466 109.17 81.519 109.144C81.5913 109.119 81.6766 109.188 81.7283 109.237C81.7787 109.288 81.8175 109.349 81.842 109.416C81.8582 109.479 81.8685 109.544 81.873 109.609Z" fill="#263238"/>
<path d="M76.9324 110.08C76.9324 110.08 77.059 110.046 77.2684 110.039C77.539 110.028 77.8074 110.092 78.0436 110.225C78.2788 110.361 78.472 110.559 78.6017 110.798C78.7025 110.979 78.7283 111.111 78.7387 111.106C78.7389 111.075 78.7337 111.044 78.7231 111.015C78.7022 110.933 78.6727 110.854 78.6353 110.778C78.5122 110.524 78.315 110.315 78.07 110.176C77.8249 110.038 77.5435 109.977 77.2632 110.002C77.1757 110.009 77.0891 110.024 77.0048 110.049C76.979 110.055 76.9545 110.065 76.9324 110.08Z" fill="#263238"/>
<path d="M79.2422 110.599C79.4669 110.617 79.693 110.604 79.9141 110.561C80.1379 110.537 80.3577 110.484 80.5678 110.403C80.5678 110.387 80.2707 110.452 79.9063 110.506C79.542 110.561 79.2422 110.584 79.2422 110.599Z" fill="#263238"/>
<path d="M78.3534 110.739C78.3534 110.752 78.387 110.798 78.4283 110.86C78.4697 110.922 78.4955 110.982 78.511 110.979C78.5265 110.976 78.5239 110.901 78.4748 110.829C78.4257 110.757 78.3611 110.726 78.3534 110.739Z" fill="#263238"/>
<path d="M77.966 110.375C77.966 110.387 77.9944 110.431 78.0487 110.47C78.103 110.509 78.1546 110.532 78.1624 110.522C78.1701 110.511 78.1366 110.465 78.0823 110.426C78.028 110.387 77.966 110.364 77.966 110.375Z" fill="#263238"/>
<path d="M77.4492 110.256C77.4492 110.271 77.5164 110.256 77.5862 110.274C77.6559 110.292 77.7102 110.315 77.7205 110.302C77.7309 110.289 77.6818 110.232 77.5965 110.219C77.5112 110.207 77.4492 110.256 77.4492 110.256Z" fill="#263238"/>
<path d="M77.0899 110.225C77.0899 110.24 77.1157 110.258 77.1571 110.268C77.1984 110.279 77.232 110.268 77.2346 110.256C77.2372 110.243 77.2088 110.222 77.1674 110.214C77.1261 110.206 77.0925 110.209 77.0899 110.225Z" fill="#263238"/>
<path d="M55.0096 104.178L70.5137 89.555C70.9898 89.071 71.5578 88.6871 72.1844 88.4257C72.8109 88.1644 73.4834 88.0308 74.1623 88.033H74.4698C75.6785 88.112 76.8246 88.5991 77.7203 89.4145C78.616 90.2299 79.2083 91.3254 79.4001 92.5214L82.6172 108.628L76.1572 110.436L73.8316 97.3974L66.1751 104.317L55.0096 104.178Z" fill="#263238"/>
<path d="M50.1077 105.708C50.0406 105.894 49.6116 111.258 56.3094 111.258H74.2269C76.493 111.258 78.3329 109.532 78.3329 107.403C78.3329 105.271 76.493 103.545 74.2269 103.545H57.5523C56.9574 103.544 56.3688 103.666 55.8236 103.904L50.1077 105.708Z" fill="#263238"/>
<path d="M75.8185 103.537C75.8185 103.576 72.1182 103.61 67.5496 103.61C62.9811 103.61 59.2808 103.576 59.2808 103.537C59.2808 103.498 62.9811 103.465 67.5496 103.465C72.1182 103.465 75.8185 103.506 75.8185 103.537Z" fill="#455A64"/>
<path d="M73.3587 93.9893C73.4001 93.9893 73.4027 94.7645 73.5422 95.705C73.6817 96.6456 73.9014 97.3872 73.86 97.4027C73.4201 96.322 73.2481 95.1509 73.3587 93.9893Z" fill="#455A64"/>
<path d="M74.1184 93.8782C74.213 95.054 74.1161 96.2373 73.8316 97.3821C73.7902 97.3821 73.8988 96.6069 73.9815 95.6301C74.0642 94.6534 74.09 93.8782 74.1184 93.8782Z" fill="#455A64"/>
<path d="M75.3974 111.106C75.8703 110.916 76.3113 110.654 76.7049 110.331C77.1222 109.973 77.4616 109.533 77.7024 109.039C77.9897 108.432 78.1152 107.762 78.0667 107.093C78.0183 106.423 77.7975 105.778 77.4259 105.219C77.1163 104.767 76.717 104.382 76.2527 104.09C75.8168 103.83 75.3436 103.638 74.8496 103.522C74.8847 103.517 74.9204 103.517 74.9556 103.522C75.0575 103.532 75.1585 103.551 75.2579 103.576C75.6217 103.666 75.9701 103.809 76.2915 104.002C76.7773 104.29 77.1958 104.679 77.5189 105.142C77.9092 105.716 78.141 106.383 78.1909 107.075C78.2408 107.768 78.107 108.461 77.8031 109.085C77.551 109.589 77.1942 110.034 76.7566 110.39C76.462 110.628 76.1337 110.822 75.7824 110.964C75.6879 111.001 75.5913 111.033 75.493 111.059C75.463 111.078 75.4309 111.094 75.3974 111.106Z" fill="#455A64"/>
<path d="M60.5369 69.4541L60.3922 70.2293L58.1415 81.8444C57.8831 83.1933 58.8315 84.493 60.2785 84.7618C61.7385 85.0202 63.1519 84.1519 63.4387 82.7927C63.7411 81.369 64.0822 79.8728 64.0822 79.8728C64.0822 79.8728 65.984 79.9503 66.8626 77.6325C67.2993 76.48 67.6378 74.511 67.8755 72.8934C67.9265 72.5466 67.9064 72.1931 67.8164 71.8543C67.7264 71.5155 67.5685 71.1985 67.3521 70.9227C67.1358 70.6469 66.8656 70.418 66.558 70.2499C66.2504 70.0819 65.9118 69.9781 65.5628 69.9451L60.5369 69.4541Z" fill="#FFBE9D"/>
<path d="M67.2527 74.2424C67.2461 74.2829 67.2315 74.3218 67.2099 74.3567C67.1883 74.3917 67.16 74.422 67.1266 74.446C67.0933 74.47 67.0555 74.4872 67.0155 74.4966C66.9755 74.506 66.934 74.5074 66.8935 74.5008C66.8538 74.4954 66.8157 74.4822 66.7812 74.4619C66.7467 74.4417 66.7166 74.4148 66.6925 74.3829C66.6685 74.3509 66.651 74.3145 66.6412 74.2757C66.6313 74.237 66.6292 74.1966 66.6351 74.1571C66.649 74.0749 66.6949 74.0017 66.7626 73.9533C66.8304 73.9048 66.9146 73.8852 66.9968 73.8987C67.0364 73.904 67.0744 73.9172 67.1088 73.9375C67.1432 73.9578 67.1732 73.9847 67.197 74.0167C67.2208 74.0487 67.238 74.0852 67.2476 74.1239C67.2571 74.1627 67.2589 74.2029 67.2527 74.2424Z" fill="#263238"/>
<path d="M67.24 73.8211C67.1935 73.8547 66.9971 73.6324 66.6664 73.5627C66.3356 73.4929 66.0591 73.6118 66.0307 73.5627C66.0023 73.5136 66.0695 73.4774 66.1935 73.4206C66.3569 73.3525 66.537 73.3354 66.7103 73.3715C66.8831 73.4075 67.0398 73.4981 67.1573 73.6299C67.2426 73.7306 67.2633 73.8211 67.24 73.8211Z" fill="#263238"/>
<path d="M63.9479 73.4905C63.934 73.5726 63.8881 73.6459 63.8203 73.6943C63.7525 73.7427 63.6683 73.7623 63.5861 73.7489C63.5465 73.7441 63.5082 73.7315 63.4735 73.7116C63.4389 73.6917 63.4086 73.6651 63.3845 73.6332C63.3603 73.6014 63.3429 73.565 63.3331 73.5263C63.3234 73.4875 63.3216 73.4472 63.3277 73.4078C63.3343 73.3672 63.3489 73.3283 63.3705 73.2934C63.3921 73.2585 63.4204 73.2281 63.4538 73.2041C63.4871 73.1801 63.5249 73.1629 63.5649 73.1535C63.6049 73.1441 63.6464 73.1427 63.6869 73.1494C63.7666 73.1603 63.8388 73.2023 63.8877 73.2662C63.9365 73.3301 63.9582 73.4107 63.9479 73.4905Z" fill="#263238"/>
<path d="M63.9761 73.2112C63.9296 73.2422 63.7177 73.0225 63.3998 72.9528C63.082 72.883 62.7926 72.9993 62.7667 72.9528C62.7409 72.9063 62.8055 72.8649 62.927 72.8106C63.0902 72.742 63.2705 72.7248 63.4438 72.7615C63.6167 72.7974 63.7734 72.888 63.8908 73.0199C63.9787 73.1181 63.9967 73.1982 63.9761 73.2112Z" fill="#263238"/>
<path d="M64.6663 75.9142C64.8522 75.8959 65.0397 75.9011 65.2244 75.9297C65.3097 75.9297 65.395 75.9297 65.4208 75.8832C65.4456 75.7988 65.4456 75.7091 65.4208 75.6248C65.3846 75.4051 65.3459 75.1726 65.3045 74.9297C65.1855 74.3334 65.1146 73.7285 65.0926 73.1208C65.2592 73.7029 65.3784 74.2974 65.4492 74.8986C65.4854 75.1415 65.5216 75.3741 65.5552 75.5963C65.5855 75.7097 65.5764 75.83 65.5293 75.9374C65.5105 75.9643 65.4858 75.9866 65.4572 76.0027C65.4286 76.0188 65.3967 76.0283 65.3639 76.0304C65.3151 76.0375 65.2655 76.0375 65.2167 76.0304C65.0292 76.0141 64.8443 75.9751 64.6663 75.9142Z" fill="#263238"/>
<path d="M64.0823 79.8755C62.9497 79.6586 61.8996 79.1317 61.0486 78.3535C61.0486 78.3535 61.4879 80.1623 63.9324 80.4362L64.0823 79.8755Z" fill="#EB996E"/>
<path d="M63.6453 75.94C63.6996 75.94 63.6273 76.3069 63.8805 76.6273C64.1337 76.9477 64.5265 76.9839 64.5187 77.0356C64.511 77.0873 64.418 77.0873 64.2603 77.0588C64.05 77.018 63.8607 76.9046 63.7255 76.7384C63.5954 76.5778 63.5325 76.3732 63.5497 76.1673C63.5627 76.0149 63.6221 75.9322 63.6453 75.94Z" fill="#263238"/>
<path d="M64.3303 71.9322C64.2786 72.0149 63.9582 71.9037 63.5551 71.8702C63.152 71.8366 62.8212 71.8702 62.7799 71.7849C62.7669 71.7435 62.8393 71.6686 62.984 71.6092C63.1734 71.5341 63.3784 71.5066 63.5809 71.5291C63.7847 71.5456 63.9815 71.6112 64.1545 71.7203C64.2967 71.8081 64.3535 71.8934 64.3303 71.9322Z" fill="#263238"/>
<path d="M67.3174 72.8418C67.2425 72.9064 67.0332 72.7797 66.7593 72.7203C66.4854 72.6609 66.2425 72.6635 66.2063 72.5756C66.1908 72.5317 66.2425 72.4645 66.3588 72.4154C66.5119 72.3551 66.6802 72.3452 66.8394 72.387C67.0003 72.4217 67.146 72.5068 67.2554 72.6299C67.3355 72.7281 67.351 72.8107 67.3174 72.8418Z" fill="#263238"/>
<path d="M70.4053 70.1518C70.4461 69.9558 70.4225 69.7519 70.3381 69.5704C70.3052 69.4092 70.213 69.2663 70.0797 69.1699C69.91 69.1143 69.7256 69.1245 69.5629 69.1983C68.9764 69.3689 68.2709 69.3404 67.8549 68.8831C67.5371 68.5265 67.4751 67.9787 67.1055 67.6763C66.736 67.374 66.1029 67.4334 65.6042 67.5936C65.1055 67.7538 64.5706 67.9683 64.0719 67.8184C63.7255 67.6686 63.4046 67.4654 63.121 67.2164C62.5513 66.8159 61.8459 66.6579 61.1597 66.7771C60.8215 66.8423 60.5039 66.9882 60.234 67.2023C59.9641 67.4164 59.7498 67.6925 59.6093 68.0071C59.4774 68.3259 59.4394 68.6758 59.4998 69.0156C59.5603 69.3553 59.7166 69.6707 59.9504 69.9244C59.9737 69.9554 59.9969 69.9839 60.0228 70.0123C59.785 71.2578 59.506 73.2423 60.0641 73.3922C60.8884 73.6144 61.183 71.5007 61.183 71.5007C62.2967 71.3637 62.5473 70.2733 62.86 70.1053C63.1727 69.9373 64.3717 70.418 65.3484 71.1389C66.5603 72.033 68.6689 72.1725 69.4053 72.1906C69.4697 72.1971 69.5347 72.1971 69.5991 72.1906H69.6689C69.7176 72.1807 69.7652 72.166 69.811 72.1467C70.0406 72.0045 70.2084 71.7813 70.2813 71.5213C70.3859 71.3043 70.433 71.0641 70.4182 70.8236C70.4065 70.7359 70.3751 70.652 70.3263 70.5782C70.2775 70.5044 70.2127 70.4425 70.1366 70.3973C70.1985 70.3826 70.2557 70.3523 70.3028 70.3094C70.3498 70.2664 70.3851 70.2122 70.4053 70.1518Z" fill="#263238"/>
<path d="M68.9683 70.6452C68.9889 70.602 69.0211 70.5653 69.0614 70.5393C69.1178 70.4977 69.1832 70.4699 69.2523 70.4582C69.3214 70.4466 69.3923 70.4513 69.4593 70.4721C69.567 70.5115 69.6558 70.59 69.708 70.6921C69.7603 70.7941 69.772 70.9121 69.741 71.0225C69.7201 71.092 69.6826 71.1554 69.6317 71.2072C69.5808 71.2589 69.5181 71.2976 69.449 71.3197C69.2982 71.3712 69.1346 71.3712 68.9838 71.3197C68.6531 71.2111 68.467 70.8649 68.3275 70.5445C68.2641 70.3666 68.1872 70.1938 68.0975 70.0277C68.01 69.859 67.8777 69.7177 67.7151 69.6194C67.6278 69.5763 67.5329 69.5509 67.4358 69.5446C67.3386 69.5384 67.2412 69.5515 67.1492 69.5832C66.9502 69.6375 66.7513 69.7357 66.5316 69.8028C66.3044 69.8753 66.0625 69.8886 65.8288 69.8416C65.592 69.7907 65.3662 69.698 65.1621 69.5677C64.7737 69.3082 64.421 68.9989 64.113 68.6478C63.8311 68.333 63.5015 68.0644 63.1362 67.8519C62.8006 67.6758 62.4139 67.6228 62.0432 67.702C61.6428 67.783 61.2881 68.0129 61.0507 68.3453C60.8133 68.6777 60.7108 69.0878 60.7641 69.4928C60.7891 69.6688 60.8315 69.8419 60.8907 70.0096C60.8621 69.9714 60.8387 69.9297 60.821 69.8855C60.7676 69.7618 60.7311 69.6314 60.7124 69.4979C60.6744 69.2497 60.6917 68.996 60.7632 68.7552C60.8346 68.5144 60.9585 68.2924 61.1259 68.1052C61.384 67.8279 61.7256 67.6426 62.0987 67.5773C62.4719 67.512 62.8561 67.5703 63.1931 67.7434C63.5741 67.957 63.9179 68.231 64.2112 68.5548C64.5157 68.8976 64.8631 69.1999 65.2448 69.454C65.4358 69.5757 65.6465 69.6631 65.8675 69.7124C66.0797 69.7548 66.2992 69.7433 66.5058 69.6788C66.7151 69.6168 66.914 69.5186 67.1285 69.4618C67.2363 69.4264 67.3501 69.4127 67.4632 69.4216C67.5763 69.4305 67.6865 69.4617 67.7874 69.5134C68.1802 69.746 68.3042 70.1698 68.4438 70.4954C68.5833 70.8209 68.7487 71.1388 69.0303 71.2344C69.1595 71.283 69.3009 71.2884 69.4335 71.2499C69.4929 71.2348 69.5476 71.2052 69.5927 71.1637C69.6378 71.1222 69.6719 71.0701 69.6919 71.0122C69.7199 70.9181 69.7122 70.817 69.6702 70.7283C69.6282 70.6396 69.555 70.5695 69.4645 70.5315C69.4041 70.511 69.3401 70.5038 69.2767 70.5105C69.2134 70.5172 69.1522 70.5376 69.0975 70.5703C68.9993 70.6065 68.9735 70.6504 68.9683 70.6452Z" fill="#455A64"/>
<path d="M69.9166 71.1105C69.9113 71.145 69.8999 71.1782 69.883 71.2087C69.8404 71.3002 69.7817 71.3833 69.7099 71.4542C69.5947 71.5689 69.4511 71.6509 69.2938 71.6919C69.0826 71.7464 68.859 71.7263 68.6608 71.6351C68.4339 71.5089 68.2441 71.3253 68.1104 71.1028C68.0355 70.9935 67.9429 70.8974 67.8365 70.8185C67.7815 70.7811 67.7194 70.7554 67.654 70.7429C67.5887 70.7305 67.5215 70.7316 67.4566 70.7462C67.309 70.7814 67.1647 70.8289 67.0251 70.8883C66.8659 70.9454 66.698 70.9742 66.5289 70.9736C66.1765 70.9683 65.8303 70.8798 65.5186 70.7152C64.8803 70.3818 64.4049 69.896 63.8933 69.5911C63.4617 69.2849 62.9281 69.158 62.4049 69.2371C62.2333 69.277 62.0724 69.3535 61.9332 69.4614C61.7941 69.5694 61.6799 69.7062 61.5987 69.8624C61.5489 69.9832 61.5159 70.1101 61.5005 70.2397C61.4944 70.2047 61.4944 70.1688 61.5005 70.1338C61.5027 70.0326 61.5237 69.9327 61.5625 69.8392C61.6394 69.6686 61.754 69.5176 61.8977 69.3976C62.0413 69.2777 62.2103 69.1919 62.392 69.1467C62.664 69.0962 62.9434 69.1002 63.2139 69.1583C63.4845 69.2164 63.7408 69.3275 63.9682 69.4852C64.5005 69.7978 64.9785 70.2785 65.5884 70.5937C65.8805 70.7514 66.205 70.8398 66.5367 70.8521C66.6923 70.8537 66.8471 70.8284 66.9941 70.7772C67.1409 70.7174 67.292 70.669 67.4463 70.6325C67.5264 70.6169 67.6089 70.6175 67.6888 70.6344C67.7687 70.6513 67.8444 70.684 67.9114 70.7307C68.028 70.8185 68.1293 70.925 68.2111 71.0459C68.3297 71.2594 68.5026 71.4378 68.7124 71.5627C68.8896 71.6521 69.0922 71.6776 69.2861 71.6351C69.4337 71.6014 69.5706 71.5312 69.684 71.4309C69.7751 71.3347 69.8533 71.227 69.9166 71.1105Z" fill="#455A64"/>
<path d="M60.276 72.5421C60.245 72.5188 58.984 71.7798 58.6817 73.1752C58.3794 74.5705 59.8419 74.5886 59.8523 74.5499C59.8626 74.5111 60.276 72.5421 60.276 72.5421Z" fill="#FFBE9D"/>
<path d="M59.542 73.927C59.542 73.927 59.5136 73.927 59.4697 73.9503C59.4062 73.9615 59.3407 73.9486 59.2862 73.9141C59.2088 73.8373 59.1531 73.7414 59.125 73.636C59.0968 73.5307 59.0972 73.4198 59.126 73.3146C59.148 73.1939 59.1975 73.0798 59.2707 72.9813C59.2931 72.9406 59.325 72.9059 59.3637 72.8802C59.4024 72.8546 59.4467 72.8387 59.4929 72.834C59.5226 72.8326 59.5517 72.8417 59.5753 72.8597C59.5989 72.8776 59.6155 72.9033 59.6221 72.9322C59.6221 72.9761 59.6221 73.0019 59.6221 73.0045C59.6221 73.0071 59.6557 72.989 59.6583 72.927C59.6584 72.891 59.6456 72.8561 59.6221 72.8288C59.59 72.7916 59.5445 72.7684 59.4955 72.7642C59.436 72.7631 59.3773 72.7773 59.3248 72.8053C59.2724 72.8334 59.2279 72.8744 59.1958 72.9244C59.11 73.0321 59.0515 73.1588 59.0252 73.2939C58.9914 73.4169 58.9944 73.5471 59.0339 73.6684C59.0734 73.7897 59.1477 73.8967 59.2475 73.9761C59.2838 73.9932 59.3235 74.002 59.3637 74.002C59.4039 74.002 59.4436 73.9932 59.48 73.9761C59.5317 73.9606 59.5472 73.9322 59.542 73.927Z" fill="#EB996E"/>
<path d="M83.0978 87.6843C83.4983 87.7411 86.0642 88.1287 86.3071 88.32C86.55 88.5112 86.5448 88.7799 86.2554 88.8368C85.966 88.8936 84.3458 88.7851 84.3458 88.7851C84.3458 88.7851 86.4363 88.8342 86.5009 89.0435C86.6017 89.3742 85.8575 89.5603 84.4595 89.3381C84.4595 89.3381 86.5913 89.1107 86.5681 89.6352C86.5681 89.8936 84.6507 89.9169 84.6507 89.9169C84.6068 90.0642 86.5707 89.6585 86.6275 89.9737C86.6533 90.1236 86.3846 90.2761 85.3872 90.4156C84.7851 90.5009 83.7903 90.6249 82.8032 90.7567V90.7696L81.7231 90.9221L80.4569 88.0667C80.5551 87.9711 81.152 87.5964 81.5577 87.3148C81.8102 87.1393 82.1177 87.0613 82.4233 87.0951C82.5795 87.1125 82.7269 87.1762 82.8466 87.2779C82.9663 87.3797 83.0529 87.5149 83.0952 87.6662L83.0978 87.6843Z" fill="#FFBE9D"/>
<path d="M86.1264 88.904C85.4594 88.8624 84.794 88.7969 84.1316 88.7076C84.4646 88.6413 84.8068 88.6351 85.1419 88.6895C85.4805 88.7003 85.8141 88.773 86.1264 88.904Z" fill="#EB996E"/>
<path d="M86.2011 89.3691C85.9057 89.4015 85.6077 89.4015 85.3122 89.3691C85.0147 89.381 84.7167 89.3611 84.4233 89.3096C84.7138 89.2276 85.0173 89.2021 85.3174 89.2347C85.6179 89.2219 85.918 89.2676 86.2011 89.3691Z" fill="#EB996E"/>
<path d="M86.2763 89.8419C85.9852 89.9065 85.6882 89.9403 85.39 89.9427C85.0963 89.991 84.7983 90.0074 84.5011 89.9917C84.7791 89.8735 85.0776 89.8112 85.3797 89.8083C85.6779 89.7618 85.9824 89.7732 86.2763 89.8419Z" fill="#EB996E"/>
<path d="M90.3951 95.4027L83.0384 94.2554C82.9534 94.2425 82.8718 94.2129 82.7983 94.1683C82.7249 94.1237 82.6609 94.065 82.6102 93.9956C82.5596 93.9262 82.5231 93.8474 82.503 93.7638C82.4829 93.6802 82.4796 93.5935 82.4932 93.5086L84.0436 83.5964C84.0568 83.5112 84.0867 83.4295 84.1315 83.3558C84.1763 83.2822 84.2352 83.2181 84.3048 83.1673C84.3744 83.1164 84.4533 83.0797 84.5371 83.0594C84.6208 83.039 84.7078 83.0353 84.793 83.0486L89.9377 83.8496L92.3615 87.0796L91.1444 94.8549C91.1312 94.9401 91.1013 95.0218 91.0565 95.0954C91.0117 95.1691 90.9528 95.2331 90.8832 95.284C90.8136 95.3349 90.7347 95.3715 90.651 95.3919C90.5672 95.4123 90.4803 95.4159 90.3951 95.4027Z" fill="#FFD000"/>
<path d="M89.9328 83.8264L89.6253 85.798C89.5896 86.0316 89.6479 86.2698 89.7873 86.4606C89.9268 86.6514 90.1361 86.7792 90.3695 86.8161L92.354 87.0745L89.9328 83.8264Z" fill="#FFD000"/>
<g opacity="0.2">
<path d="M89.9328 83.8264L89.6253 85.798C89.5896 86.0316 89.6479 86.2698 89.7873 86.4606C89.9268 86.6514 90.1361 86.7792 90.3695 86.8161L92.354 87.0745L89.9328 83.8264Z" fill="black"/>
</g>
<path d="M89.594 93.2708C89.5905 93.239 89.5905 93.207 89.594 93.1752C89.594 93.1054 89.6146 93.0176 89.6301 92.9168C89.6637 92.6739 89.7102 92.3431 89.7671 91.9271C89.8937 91.0718 90.0694 89.8754 90.2839 88.4387L90.333 88.5059L85.3123 87.7307L85.3872 87.6764V87.7126V87.7539V87.8366L85.3613 88.002C85.3433 88.1105 85.3252 88.2191 85.3097 88.3276L85.2089 88.9736C85.1417 89.3974 85.0771 89.8134 85.0125 90.2191C84.8833 91.0279 84.7541 91.7927 84.6507 92.4982L84.6016 92.431L88.2193 93.0253L89.2529 93.201L89.5268 93.2501C89.56 93.2542 89.5929 93.2611 89.625 93.2708H89.5371L89.2787 93.2346L88.2632 93.0925L84.6016 92.5524H84.5448V92.493C84.6533 91.7876 84.7696 91.0227 84.8936 90.2113C84.9582 89.8056 85.0228 89.3896 85.0874 88.9658L85.1882 88.3198C85.2037 88.2113 85.2218 88.1028 85.2373 87.9943L85.2632 87.8289L85.2761 87.7462V87.7048V87.6687L85.3536 87.6118L90.3692 88.387H90.4286V88.4439C90.1909 89.8909 89.9945 91.0976 89.8524 91.9607C89.7826 92.369 89.7257 92.6946 89.6844 92.9297C89.6663 93.0331 89.6508 93.1158 89.6405 93.1881C89.629 93.2177 89.6133 93.2456 89.594 93.2708Z" fill="white"/>
<path d="M87.0305 92.9429C87.0889 92.1298 87.1924 91.3207 87.3405 90.5191C87.4436 89.7105 87.5912 88.9083 87.7824 88.116C87.724 88.929 87.6205 89.7382 87.4723 90.5398C87.3695 91.3484 87.222 92.1506 87.0305 92.9429Z" fill="white"/>
<path d="M89.7618 92.085C88.9135 92.0208 88.0691 91.9121 87.2321 91.7594C86.3885 91.6499 85.551 91.4972 84.723 91.302C85.5716 91.3643 86.4161 91.473 87.2528 91.6276C88.0967 91.7353 88.9342 91.8879 89.7618 92.085Z" fill="white"/>
<path d="M90.01 90.8755C89.1623 90.813 88.3187 90.7043 87.4828 90.5499C86.6391 90.441 85.8016 90.2884 84.9738 90.0925C85.8223 90.1551 86.6668 90.2638 87.5035 90.4181C88.3463 90.5271 89.183 90.6798 90.01 90.8755Z" fill="white"/>
<path d="M90.1649 89.6273C89.3226 89.5633 88.4842 89.4555 87.6532 89.3043C86.8159 89.1979 85.9852 89.0452 85.1648 88.8469C86.0062 88.9108 86.8437 89.0186 87.6739 89.1699C88.512 89.2761 89.3436 89.4288 90.1649 89.6273Z" fill="white"/>
<path d="M62.2114 103.426V102.506L75.3097 102.775L82.8524 90.7229L83.5449 91.2242L75.8188 103.545L62.2114 103.426Z" fill="#455A64"/>
<path d="M71.2732 99.4029L71.9321 100.382V102.393C71.8422 102.415 71.7474 102.409 71.6614 102.374C71.5755 102.339 71.5029 102.278 71.4541 102.199C71.318 101.806 71.2118 101.403 71.1363 100.995L70.8184 101.819C70.7552 101.98 70.6354 102.113 70.4814 102.193C70.3274 102.273 70.1497 102.294 69.9812 102.253L67.5522 101.643L68.5445 98.8008L71.2732 99.4029Z" fill="#FFBE9D"/>
<path d="M82.5215 87.1055L84.754 87.8161C84.7572 87.8687 84.749 87.9214 84.73 87.9705C84.711 88.0197 84.6816 88.0642 84.6438 88.101C84.606 88.1377 84.5608 88.166 84.5111 88.1837C84.4615 88.2014 84.4086 88.2082 84.3561 88.2037C83.9452 88.1882 82.8496 88.0848 82.8496 88.0848C82.8496 88.0848 82.8496 88.86 82.2036 89.0228C82.2036 89.0228 81.3922 87.6171 81.4284 87.5783C81.4646 87.5396 82.5215 87.1055 82.5215 87.1055Z" fill="#FFBE9D"/>
<path d="M82.6869 90.0564C82.6869 90.0564 82.6533 89.9737 82.581 89.8471C82.485 89.6723 82.3356 89.5328 82.1546 89.4491L82.0331 89.3923L82.1598 89.3406C82.412 89.2381 82.6198 89.0495 82.7463 88.8083C82.8571 88.6028 82.9039 88.3688 82.8807 88.1365V88.0615H82.9556C83.2853 88.0718 83.6132 88.1133 83.935 88.1856C83.6058 88.2168 83.2745 88.2168 82.9453 88.1856L83.0099 88.1158C83.0464 88.3735 82.9993 88.6362 82.8755 88.8652C82.735 89.1372 82.4983 89.3472 82.2114 89.4543V89.3458C82.4084 89.4468 82.5631 89.6143 82.6481 89.8187C82.7024 89.9634 82.6972 90.0538 82.6869 90.0564Z" fill="#EB996E"/>
<path d="M57.8599 79.9709C57.8599 79.9709 54.9322 81.6454 53.847 83.2785C52.7617 84.9116 50.834 86.847 49.4877 92.0977C48.3223 96.6817 47.8882 102.899 49.1492 104.615C49.5722 105.233 50.0832 105.785 50.666 106.255L52.9296 105.328C55.6248 104.364 58.077 103.741 60.1907 101.814L64.4827 97.8962L62.2036 96.1029C62.2036 96.1029 63.9323 86.7643 63.4724 83.5033C63.0796 80.6505 57.8599 79.9709 57.8599 79.9709Z" fill="#FFD000"/>
<path d="M56.7382 84.4854L54.3403 95.687C54.1379 96.6335 54.2846 97.6212 54.7533 98.4679C55.222 99.3147 55.9812 99.9634 56.8907 100.294L67.3068 102.292L68.5988 98.4157L60.1517 95.7852L62.6323 84.9634L56.7382 84.4854Z" fill="#FFD000"/>
<path d="M54.2525 97.8162L54.2681 97.8834C54.2784 97.9299 54.2913 97.9945 54.3068 98.0772L54.3352 98.2193L54.3973 98.3873L54.467 98.5811C54.5032 98.6457 54.542 98.7154 54.5807 98.7904C54.7916 99.1459 55.0795 99.4496 55.4231 99.6793C55.8894 99.9906 56.4074 100.216 56.9528 100.346L67.2553 102.232L67.1855 102.271C67.617 101.041 68.0692 99.7413 68.5421 98.395L68.586 98.4803L60.1363 95.842L60.0717 95.8214L60.0898 95.7542C60.2345 95.1779 60.3922 94.5604 60.5524 93.9454C61.0433 91.9841 61.5033 90.0694 61.9038 88.2011C62.1002 87.2683 62.2862 86.351 62.4206 85.444C62.4568 85.2192 62.4568 84.9944 62.4774 84.7721C62.4761 84.5522 62.451 84.333 62.4025 84.1184C62.3041 83.6949 62.1066 83.3008 61.8263 82.9685C61.5544 82.6503 61.2151 82.3966 60.8329 82.2259C60.4508 82.0551 60.0354 81.9716 59.617 81.9814C59.2228 82.0043 58.8376 82.1078 58.4851 82.2856C58.1327 82.4634 57.8204 82.7116 57.5678 83.015C57.0843 83.5842 56.7244 84.2477 56.511 84.9634C56.3106 85.6248 56.1509 86.2979 56.0329 86.9789C55.5161 89.5758 55.1053 91.6792 54.8159 93.1392L54.4799 94.811C54.4412 94.9996 54.4102 95.1443 54.3869 95.2477C54.3637 95.3511 54.3533 95.395 54.3533 95.395C54.3573 95.3447 54.3642 95.2946 54.374 95.2451C54.3921 95.1392 54.4179 94.9867 54.4515 94.8058C54.5239 94.4182 54.6272 93.8523 54.7616 93.1288C55.0381 91.6663 55.4386 89.5603 55.9322 86.9608C56.0476 86.2747 56.2055 85.5963 56.405 84.9298C56.6209 84.1987 56.986 83.5203 57.4774 82.9375C57.7401 82.6197 58.0654 82.3593 58.433 82.1726C58.8006 81.9859 59.2028 81.8768 59.6144 81.8522C60.0525 81.8414 60.4875 81.9286 60.8876 82.1075C61.2877 82.2863 61.6428 82.5522 61.9271 82.8858C62.222 83.2334 62.4302 83.6461 62.5343 84.09C62.586 84.3145 62.612 84.5443 62.6118 84.7747C62.5937 85.0047 62.5937 85.2398 62.555 85.4672C62.4284 86.3794 62.2423 87.2993 62.0382 88.2321C61.6376 90.1004 61.1699 92.0099 60.6867 93.9764C60.5265 94.5991 60.3689 95.2167 60.2216 95.7852L60.1751 95.6999L68.6248 98.3408L68.6894 98.3614L68.6687 98.426L67.3044 102.302L67.2863 102.351H67.2346C62.971 101.553 59.4206 100.902 56.9348 100.413C56.3808 100.278 55.8556 100.044 55.3843 99.7232C55.0375 99.4854 54.7494 99.1717 54.542 98.8059C54.5006 98.7309 54.4644 98.6586 54.4283 98.5914L54.3611 98.3924L54.3042 98.2245C54.3042 98.1711 54.2965 98.122 54.281 98.0772L54.25 97.8808C54.2481 97.8592 54.249 97.8375 54.2525 97.8162Z" fill="#263238"/>
<path d="M58.6995 97.2399C58.684 97.2399 58.6685 97.1081 58.7227 96.9066C58.7962 96.641 58.941 96.4006 59.1414 96.2115C59.3386 96.0191 59.5841 95.8834 59.852 95.8187C60.0587 95.7748 60.1879 95.7955 60.1879 95.8187C60.1879 95.842 60.0638 95.8601 59.8804 95.9247C59.6417 96.0108 59.4237 96.1462 59.2408 96.322C59.0578 96.4979 58.9139 96.7102 58.8184 96.9454C58.7434 97.1185 58.7227 97.2425 58.6995 97.2399Z" fill="#263238"/>
<g opacity="0.2">
<path d="M56.4929 84.3354C55.2803 88.2352 54.4402 92.2411 53.9839 96.2994C53.829 97.2298 53.8107 98.1777 53.9296 99.1134C54.0898 100.044 54.5472 100.958 55.3379 101.47C56.1058 101.919 57.016 102.058 57.8831 101.86C58.7488 101.695 60.1467 101.504 60.94 101.129L56.2888 100.168C56.2888 100.168 53.2836 99.9816 54.5756 94.2244C55.8676 88.4673 56.4929 84.3354 56.4929 84.3354Z" fill="black"/>
</g>
<path d="M62.2034 96.103C62.2067 95.9537 62.2231 95.805 62.2525 95.6586C62.2965 95.3511 62.3533 94.9428 62.4231 94.4492C62.5729 93.4156 62.7771 92.0074 62.9993 90.4595C63.2215 88.9117 63.4127 87.4905 63.5419 86.4672L63.6944 85.2553C63.7035 85.1063 63.726 84.9584 63.7616 84.8135C63.7668 84.9627 63.7616 85.112 63.7461 85.2605C63.7254 85.5499 63.6892 85.9659 63.635 86.4776C63.529 87.5112 63.3533 88.9195 63.1311 90.4802C62.9089 92.0409 62.6918 93.4466 62.5187 94.4622C62.4308 94.979 62.3585 95.3821 62.3042 95.6663C62.2829 95.8144 62.2492 95.9605 62.2034 96.103Z" fill="#263238"/>
<path d="M62.056 87.9529C62.056 87.9735 61.7227 87.8469 61.1904 87.6815C59.8006 87.2446 58.3499 87.0326 56.8932 87.0536C56.335 87.0536 55.9888 87.0898 55.9862 87.0665C56.0639 87.0405 56.1447 87.0248 56.2265 87.02C56.3816 86.9968 56.609 86.9735 56.8906 86.958C58.3618 86.8828 59.8333 87.0979 61.2214 87.5911C61.4798 87.6867 61.6969 87.772 61.839 87.8495C61.9155 87.8744 61.9885 87.9092 62.056 87.9529Z" fill="#FAFAFA"/>
<path d="M61.7772 89.1053C61.7772 89.126 61.4413 88.9968 60.8987 88.8469C59.4835 88.4271 58.0039 88.2669 56.5317 88.3741C55.9684 88.4154 55.6195 88.4697 55.6169 88.4464C55.6939 88.4145 55.7747 88.3927 55.8573 88.3818C56.0123 88.3482 56.2397 88.3121 56.5239 88.281C57.2642 88.1999 58.0111 88.1999 58.7513 88.281C59.4914 88.3621 60.2207 88.5215 60.9271 88.7565C61.1984 88.8495 61.4129 88.9348 61.5576 88.9994C61.7023 89.064 61.7824 89.095 61.7772 89.1053Z" fill="#FAFAFA"/>
<path d="M65.4671 80.8523C65.4678 80.6882 65.4188 80.5278 65.3266 80.3922C65.2343 80.2566 65.1031 80.1521 64.9503 80.0926C64.6671 80.0278 64.373 80.0278 64.0898 80.0926C63.0611 80.1953 62.0279 79.9457 61.1596 79.3845C60.3844 78.8677 59.7513 78.1261 58.8908 77.7747C58.671 77.6764 58.4311 77.6312 58.1905 77.6429C58.07 77.6496 57.9526 77.6839 57.8473 77.743C57.7421 77.8021 57.6517 77.8846 57.5833 77.984C57.374 78.3122 57.5135 78.7592 57.7538 79.0667C57.2913 79.3019 57.0536 79.9091 57.3507 80.3355C59.4667 80.6287 61.3824 81.7425 62.6841 83.4363C62.8806 83.7548 63.1454 84.0258 63.4593 84.2296C64.0717 84.5448 64.8831 84.1701 65.1751 83.5474C65.3006 83.2265 65.3428 82.879 65.2976 82.5373C65.2524 82.1957 65.1214 81.8711 64.9167 81.5939C65.073 81.5409 65.2094 81.4415 65.3077 81.309C65.406 81.1765 65.4616 81.0172 65.4671 80.8523Z" fill="#455A64"/>
<path d="M64.8498 81.5318C64.7725 81.5918 64.6849 81.6373 64.5914 81.6662C64.3524 81.7647 64.1012 81.8307 63.8446 81.8625C63.4613 81.9112 63.0723 81.8885 62.6973 81.7954C62.2409 81.6711 61.8122 81.4616 61.4338 81.1778C61.0281 80.8858 60.6767 80.5705 60.3485 80.3018C60.0617 80.0588 59.7558 79.8393 59.4337 79.6455C59.1307 79.478 58.8101 79.3445 58.4777 79.2475C58.5729 79.2445 58.668 79.2567 58.7593 79.2837C59.0111 79.3438 59.2536 79.4377 59.4803 79.5628C59.814 79.7477 60.1306 79.9621 60.426 80.2036C60.7619 80.462 61.1134 80.7824 61.5113 81.0667C61.8763 81.342 62.2889 81.5478 62.7284 81.6739C63.0885 81.7706 63.4631 81.8021 63.8343 81.7669C64.1804 81.726 64.521 81.6472 64.8498 81.5318Z" fill="#263238"/>
<path d="M63.8832 84.3715C63.9451 84.3527 64.0056 84.3294 64.0641 84.3017C64.221 84.2181 64.3503 84.0906 64.4361 83.9348C64.5629 83.7037 64.6178 83.4401 64.5938 83.1777C64.5713 82.8561 64.5097 82.5385 64.4103 82.2319C64.3824 82.1435 64.3312 82.0642 64.2621 82.0024C64.193 81.9405 64.1085 81.8984 64.0175 81.8805H63.971L64.0124 81.8314C64.1711 81.6335 64.2617 81.3898 64.2708 81.1363C64.2763 80.9359 64.23 80.7374 64.1364 80.5601C64.0496 80.4006 63.9329 80.2594 63.7927 80.144C63.8354 80.168 63.8752 80.1966 63.9116 80.2293C64.015 80.3189 64.1024 80.4256 64.17 80.5446C64.2721 80.7249 64.3247 80.9291 64.3225 81.1363C64.3169 81.4007 64.2263 81.6562 64.0641 81.865L64.0124 81.8314C64.1135 81.8492 64.2078 81.8945 64.2849 81.9625C64.3619 82.0304 64.4188 82.1183 64.4491 82.2164C64.5528 82.5291 64.6154 82.854 64.6351 83.1828C64.6554 83.453 64.5942 83.723 64.4594 83.958C64.3668 84.1161 64.2292 84.243 64.0641 84.3224C64.0071 84.3493 63.9459 84.3659 63.8832 84.3715Z" fill="#FAFAFA"/>
<path d="M62.3249 79.9219C62.4503 80.0426 62.5497 80.1877 62.6169 80.3482C62.7926 80.7369 62.8183 81.1769 62.6892 81.5834L62.6479 81.6945V81.6713C62.7429 81.8463 62.8 82.0393 62.8156 82.2379C62.8312 82.4364 62.8048 82.636 62.7383 82.8237C62.6891 82.9784 62.6051 83.1199 62.4928 83.2372C62.578 83.104 62.6482 82.9619 62.7022 82.8134C62.7615 82.6306 62.7832 82.4376 62.7659 82.2462C62.7486 82.0548 62.6926 81.8688 62.6014 81.6997V81.6868V81.6738L62.6401 81.5679C62.7646 81.1727 62.7454 80.7462 62.5859 80.3637C62.515 80.2075 62.4275 80.0594 62.3249 79.9219Z" fill="#FAFAFA"/>
<path d="M61.2397 79.3794C61.2603 79.4033 61.2769 79.4303 61.2888 79.4595C61.3265 79.5378 61.3551 79.6202 61.3741 79.705C61.4349 79.9886 61.3985 80.2844 61.2707 80.5448C61.2265 80.6374 61.171 80.7242 61.1053 80.8032V80.7877C61.0953 80.8983 61.0629 81.0058 61.01 81.1035C60.9572 81.2013 60.885 81.2872 60.7978 81.3562C60.7481 81.3972 60.6923 81.4303 60.6325 81.4544C60.6126 81.4657 60.5906 81.4727 60.5679 81.475C60.6404 81.4319 60.7103 81.3845 60.7772 81.3329C60.9351 81.1917 61.0339 80.996 61.0537 80.7851C61.1144 80.7107 61.1673 80.6301 61.2113 80.5448C61.3332 80.2938 61.373 80.0108 61.325 79.736C61.3043 79.6154 61.2759 79.4963 61.2397 79.3794Z" fill="#FAFAFA"/>
<path d="M59.8365 78.3713C59.7352 78.456 59.6441 78.5523 59.5652 78.6582C59.4755 78.7879 59.4137 78.9347 59.3834 79.0894C59.3532 79.2442 59.3553 79.4035 59.3895 79.5574V79.6091V79.6349H59.3636C59.2169 79.6706 59.0833 79.747 58.9781 79.8554C58.873 79.9637 58.8006 80.0996 58.7693 80.2473C58.749 80.3714 58.749 80.4979 58.7693 80.622C58.7532 80.5914 58.7427 80.5581 58.7383 80.5238C58.7208 80.4299 58.7208 80.3335 58.7383 80.2396C58.7661 80.0819 58.8394 79.9358 58.9491 79.8192C59.0588 79.7026 59.2002 79.6206 59.3559 79.5832L59.3378 79.6168L59.3223 79.5626C59.2867 79.4015 59.2861 79.2347 59.3204 79.0733C59.3547 78.912 59.4232 78.7598 59.5213 78.6272C59.5808 78.5479 59.6513 78.4774 59.7306 78.4179C59.7631 78.3968 59.7989 78.3811 59.8365 78.3713Z" fill="#FAFAFA"/>
<path d="M57.6686 80.3741C57.6339 80.3485 57.6048 80.316 57.5833 80.2785C57.5196 80.1806 57.4765 80.0707 57.4567 79.9555C57.4275 79.7791 57.4556 79.598 57.5368 79.4387C57.6385 79.2441 57.8103 79.0954 58.0174 79.0227L58.0045 79.0641L57.9632 79.0046C57.8403 78.8113 57.795 78.5787 57.8366 78.3535C57.8705 78.1732 57.961 78.0085 58.095 77.8832C58.1847 77.7982 58.2924 77.7346 58.4102 77.6971C58.4525 77.6811 58.4969 77.6715 58.542 77.6687C58.3853 77.7161 58.2413 77.7982 58.1208 77.909C57.9969 78.033 57.9131 78.1915 57.8805 78.3638C57.8443 78.5754 57.8885 78.7929 58.0045 78.9736C58.0159 78.9936 58.0289 79.0126 58.0433 79.0305L58.064 79.0615H58.0304C57.8355 79.129 57.6732 79.2674 57.5756 79.4491C57.4956 79.5967 57.4657 79.7662 57.4903 79.9323C57.5116 80.0922 57.5729 80.2442 57.6686 80.3741Z" fill="#FAFAFA"/>
<path d="M25.7151 99.7594C26.2213 98.4388 26.8823 97.1828 27.6841 96.0177C27.9257 95.6032 28.2857 95.2703 28.7177 95.0617C29.4593 94.78 30.2681 95.2348 30.9245 95.6715L32.4594 96.6818C32.5075 96.7052 32.5505 96.738 32.5856 96.7784C32.6207 96.8189 32.6472 96.866 32.6635 96.917C32.6894 97.1082 32.4542 97.2167 32.263 97.24C31.6077 97.3152 30.9472 97.1519 30.4025 96.78C29.9891 96.4958 29.586 96.0746 29.0872 96.1263C28.4697 96.1909 28.1932 96.9015 27.9529 97.4854C27.4288 98.7328 26.5054 99.7708 25.3275 100.436" fill="#FFD000"/>
<path d="M25.7124 100.012C25.8312 96.9401 25.9527 93.8445 26.6865 90.8625C27.4204 87.8806 28.8261 84.9787 31.1362 82.9529C30.8313 85.5369 29.8907 88.0046 28.9605 90.4465C27.7046 93.7196 26.4497 96.9927 25.1956 100.266" fill="#FFD000"/>
<path d="M25.1771 101.129C24.7421 98.3322 23.9609 95.6006 22.8515 92.9969C22.7255 92.5986 22.4779 92.2498 22.1435 91.9994C21.6267 91.6842 20.9445 91.8909 20.3838 92.1416C19.0506 92.7383 17.8167 93.5357 16.7249 94.5059C16.6302 94.5734 16.561 94.6708 16.5285 94.7824C16.5242 94.8684 16.5507 94.9531 16.6033 95.0214C16.6558 95.0896 16.731 95.1368 16.8153 95.1545C16.9874 95.1882 17.1652 95.1775 17.3321 95.1235L20.4019 94.4129C20.7058 94.3103 21.0334 94.3013 21.3425 94.3871C21.7017 94.5292 21.9032 94.9039 22.0763 95.2527L25.0919 101.33" fill="#FFD000"/>
<g opacity="0.4">
<path d="M25.7151 99.7594C26.2213 98.4388 26.8823 97.1828 27.6841 96.0177C27.9257 95.6032 28.2857 95.2703 28.7177 95.0617C29.4593 94.78 30.2681 95.2348 30.9245 95.6715L32.4594 96.6818C32.5075 96.7052 32.5505 96.738 32.5856 96.7784C32.6207 96.8189 32.6472 96.866 32.6635 96.917C32.6894 97.1082 32.4542 97.2167 32.263 97.24C31.6077 97.3152 30.9472 97.1519 30.4025 96.78C29.9891 96.4958 29.586 96.0746 29.0872 96.1263C28.4697 96.1909 28.1932 96.9015 27.9529 97.4854C27.4288 98.7328 26.5054 99.7708 25.3275 100.436" fill="black"/>
</g>
<g opacity="0.4">
<path d="M25.7124 100.012C25.8312 96.9401 25.9527 93.8445 26.6865 90.8625C27.4204 87.8806 28.8261 84.9787 31.1362 82.9529C30.8313 85.5369 29.8907 88.0046 28.9605 90.4465C27.7046 93.7196 26.4497 96.9927 25.1956 100.266" fill="black"/>
</g>
<g opacity="0.3">
<path d="M25.1771 101.129C24.7421 98.3322 23.9609 95.6006 22.8515 92.9969C22.7255 92.5986 22.4779 92.2498 22.1435 91.9994C21.6267 91.6842 20.9445 91.8909 20.3838 92.1416C19.0506 92.7383 17.8167 93.5357 16.7249 94.5059C16.6302 94.5734 16.561 94.6708 16.5285 94.7824C16.5242 94.8684 16.5507 94.9531 16.6033 95.0214C16.6558 95.0896 16.731 95.1368 16.8153 95.1545C16.9874 95.1882 17.1652 95.1775 17.3321 95.1235L20.4019 94.4129C20.7058 94.3103 21.0334 94.3013 21.3425 94.3871C21.7017 94.5292 21.9032 94.9039 22.0763 95.2527L25.0919 101.33" fill="black"/>
</g>
<path d="M29.8415 77.9761C27.2776 81.0196 25.7762 84.8162 25.5649 88.7901C25.2755 95.3277 24.8905 100.038 24.8905 100.038H25.6114C25.6114 100.038 27.0533 86.8599 28.0146 84.5601C28.9758 82.2604 30.4668 78.989 29.8415 77.9761Z" fill="#FFD000"/>
<path d="M29.8415 77.9761C29.8185 78.0487 29.7882 78.1189 29.7511 78.1854L29.4746 78.7745C29.2368 79.2913 28.9061 80.0355 28.5392 80.9761C28.1722 81.9167 27.764 83.0433 27.3867 84.3353C26.9628 85.7175 26.627 87.1251 26.3815 88.5498C26.2523 89.307 26.1929 90.0563 26.1386 90.7824C26.0844 91.5085 26.0404 92.2088 26.0017 92.8755C25.9241 94.2114 25.8415 95.4155 25.7303 96.4207C25.6192 97.4259 25.49 98.2295 25.3763 98.7929C25.3247 99.0719 25.2704 99.2838 25.2368 99.4311C25.2244 99.5053 25.2045 99.578 25.1774 99.6482C25.1827 99.5725 25.1939 99.4973 25.211 99.4233C25.2368 99.2786 25.2807 99.0642 25.3272 98.7825C25.4228 98.2269 25.5417 97.4182 25.6373 96.4104C25.7329 95.4026 25.8053 94.2036 25.8776 92.8677C25.9138 92.201 25.9526 91.4982 26.0068 90.7721C26.0502 90.02 26.1313 89.2706 26.2497 88.5266C26.4945 87.0938 26.8346 85.6789 27.2678 84.2914C27.658 82.9994 28.0715 81.8753 28.4513 80.9322C28.8312 79.989 29.1748 79.2474 29.4281 78.7409C29.5521 78.4825 29.658 78.2939 29.7278 78.1621C29.762 78.0979 29.8 78.0358 29.8415 77.9761Z" fill="#263238"/>
<path d="M32.5212 84.0977C32.5212 84.0977 27.6529 88.7489 27.0947 93.1417C26.5366 97.5345 26.2859 99.8627 26.2859 99.8627H26.7666C26.7666 99.8627 27.9087 93.6146 29.3868 91.6507C30.8648 89.6869 32.8597 84.6248 32.5212 84.0977Z" fill="#FFD000"/>
<path d="M32.4644 84.3999C32.4449 84.4511 32.4206 84.5004 32.392 84.5472L32.1646 84.958L31.3171 86.4594C30.6039 87.7255 29.6168 89.4826 28.7331 91.5111C27.956 93.2392 27.3719 95.0477 26.9915 96.9039C26.8519 97.6171 26.7718 98.1959 26.7331 98.6042C26.7072 98.8057 26.6969 98.9634 26.6814 99.0693C26.6783 99.1241 26.6706 99.1786 26.6581 99.2321C26.6519 99.1772 26.6519 99.1217 26.6581 99.0667C26.6581 98.9608 26.6581 98.8083 26.6814 98.599C26.725 98.0244 26.7992 97.4525 26.9036 96.8858C27.2584 95.016 27.8326 93.1946 28.6142 91.4594C29.3965 89.7287 30.2764 88.0437 31.2499 86.4128C31.6168 85.7849 31.9217 85.2811 32.1362 84.9348L32.3946 84.5369C32.4129 84.4888 32.4363 84.4429 32.4644 84.3999Z" fill="#263238"/>
<path d="M23.1125 84.9141C23.1125 84.9141 22.3916 94.095 24.0737 99.5731H24.65C24.65 99.5731 25.035 87.7022 23.1125 84.9141Z" fill="#FFD000"/>
<path d="M23.5106 86.6509C23.5251 86.6924 23.533 86.7361 23.5339 86.7801L23.5726 87.1522C23.6036 87.4958 23.645 87.9584 23.6941 88.5217C23.7871 89.6793 23.9111 91.2788 24.0377 93.0437C24.1644 94.8086 24.2703 96.4029 24.3401 97.5709C24.3737 98.1368 24.3995 98.6045 24.4176 98.9456C24.4176 99.0929 24.4176 99.204 24.4176 99.3177C24.4237 99.3614 24.4237 99.4058 24.4176 99.4495C24.4034 99.4078 24.3956 99.3642 24.3943 99.3203L24.3556 98.9482C24.3246 98.6045 24.2858 98.142 24.2367 97.5786C24.1411 96.421 24.0197 94.8215 23.893 93.054C23.7664 91.2866 23.6579 89.6948 23.5881 88.5269C23.5571 87.9636 23.5313 87.4933 23.5106 87.1548C23.5106 87.0049 23.5106 86.8809 23.5106 86.7801C23.5061 86.7371 23.5061 86.6938 23.5106 86.6509Z" fill="#263238"/>
<path d="M21.968 99.041C21.968 99.041 23.7329 100.31 23.6425 100.899C23.552 101.488 19.3091 104.656 19.5675 107.155C19.8259 109.654 21.8776 111.367 25.3634 111.23C28.8492 111.093 31.2059 108.92 30.888 106.703C30.5702 104.486 27.1102 100.953 27.0611 100.78C26.9474 100.292 28.6115 99.041 28.6115 99.041H21.968Z" fill="#263238"/>
<path d="M28.3144 102.261C28.3144 102.297 27.0224 102.328 25.4435 102.328C23.8647 102.328 22.5727 102.297 22.5727 102.261C22.5727 102.224 23.8647 102.193 25.4435 102.193C27.0224 102.193 28.3144 102.222 28.3144 102.261Z" fill="#FAFAFA"/>
<path d="M28.7201 102.863C28.7201 102.899 27.2059 102.93 25.3376 102.93C23.4694 102.93 21.9526 102.899 21.9526 102.863C21.9526 102.827 23.4694 102.796 25.3376 102.796C27.2059 102.796 28.7201 102.827 28.7201 102.863Z" fill="#FAFAFA"/>
<path d="M29.3299 103.537C29.3299 103.573 27.5418 103.604 25.3325 103.604C23.1232 103.604 21.335 103.573 21.335 103.537C21.335 103.501 23.1257 103.47 25.3325 103.47C27.5392 103.47 29.3299 103.493 29.3299 103.537Z" fill="#FAFAFA"/>
<path d="M29.8699 104.418C29.8699 104.454 27.8027 104.485 25.2626 104.485C22.7226 104.485 20.6528 104.454 20.6528 104.418C20.6528 104.382 22.72 104.351 25.2626 104.351C27.8053 104.351 29.8699 104.38 29.8699 104.418Z" fill="#FAFAFA"/>
</g>
<defs>
<clipPath id="clip0_896_1366">
<rect width="120" height="120" fill="white" transform="translate(0.5)"/>
</clipPath>
</defs>
</svg>
