<svg width="200" height="200" viewBox="0 0 200 200" fill="none" xmlns="http://www.w3.org/2000/svg">
<g clip-path="url(#clip0_172_2783)">
<path d="M199.048 181.428C199.048 181.485 136.188 181.309 64.395 181.309C-7.39821 181.309 -0.215558 181.485 -0.215558 181.428C-0.215558 181.372 -7.42525 181.099 64.395 181.099C136.215 181.099 199.048 181.367 199.048 181.428Z" fill="#263238" fill-opacity="0.5"/>
<path d="M178.851 172.372C180.381 171.654 182.1 171.445 183.757 171.773C184.648 171.924 185.578 172.204 186.186 172.859C186.793 173.513 186.905 174.706 186.207 175.279C185.759 175.583 185.218 175.72 184.678 175.667C183.386 175.667 181.944 175.426 180.906 176.205C180.316 176.636 179.919 177.389 179.213 177.609C178.859 177.692 178.488 177.657 178.156 177.509C177.824 177.361 177.55 177.109 177.374 176.791C177.037 176.14 176.963 175.384 177.167 174.68C177.25 174.192 177.446 173.729 177.738 173.328C178.03 172.928 178.411 172.6 178.851 172.372Z" fill="#EBEBEB"/>
<path d="M175.428 165.77C176.341 167.062 178.115 166.631 178.938 165.843C179.76 165.055 180.109 163.897 180.428 162.794C181.151 160.283 181.879 157.626 181.341 155.085C181.212 154.309 180.87 153.583 180.355 152.988C180.094 152.695 179.762 152.475 179.39 152.351C179.018 152.227 178.62 152.203 178.236 152.282C177.34 152.518 176.784 153.397 176.384 154.228C175.2 156.69 174.579 159.386 174.566 162.118C174.566 163.388 174.713 164.702 175.428 165.77Z" fill="#EBEBEB"/>
<path d="M172.922 167.639C173.391 167.027 173.705 166.309 173.834 165.547C173.963 164.786 173.904 164.005 173.662 163.272C173.161 161.809 172.267 160.511 171.078 159.521C169.728 158.317 168.155 157.389 166.449 156.791C165.787 156.523 165.077 156.402 164.364 156.433C164.009 156.455 163.664 156.562 163.359 156.747C163.055 156.932 162.799 157.187 162.616 157.493C162.129 158.423 162.616 159.551 163.102 160.468C163.996 162.09 165.014 163.639 166.147 165.102C167.06 166.278 168.102 167.437 169.493 167.966C170.884 168.496 172.327 168.436 173.064 167.471" fill="#EBEBEB"/>
<path d="M175.367 185.439C175.414 185.245 175.442 185.047 175.449 184.849C175.492 184.418 175.544 183.875 175.609 183.229C175.687 182.432 175.808 181.64 175.97 180.856C176.183 179.902 176.471 178.966 176.832 178.057C177.186 177.149 177.667 176.297 178.261 175.525C178.745 174.895 179.363 174.382 180.07 174.022C180.549 173.786 181.062 173.626 181.59 173.548C181.79 173.541 181.988 173.512 182.18 173.462C181.981 173.441 181.781 173.441 181.582 173.462C181.031 173.51 180.493 173.656 179.993 173.892C179.25 174.245 178.599 174.764 178.089 175.408C177.468 176.19 176.969 177.061 176.608 177.992C176.237 178.914 175.949 179.867 175.746 180.839C175.591 181.631 175.486 182.432 175.432 183.238C175.38 183.927 175.359 184.482 175.35 184.866C175.335 185.057 175.341 185.249 175.367 185.439Z" fill="#E0E0E0"/>
<path d="M175.479 184.19C175.491 184.098 175.491 184.006 175.479 183.914V183.13C175.479 182.445 175.479 181.459 175.514 180.24C175.574 177.803 175.785 175.176 176.19 171.476C176.573 167.997 177.09 163.948 177.633 161.317C177.749 160.718 177.87 160.18 177.977 159.706C178.085 159.232 178.175 158.845 178.262 158.496C178.348 158.147 178.395 157.932 178.447 157.729C178.473 157.643 178.489 157.553 178.494 157.462C178.451 157.542 178.419 157.628 178.399 157.716C178.339 157.915 178.262 158.147 178.171 158.47C178.081 158.793 177.964 159.202 177.844 159.676C177.723 160.15 177.594 160.684 177.465 161.278C176.791 164.393 176.285 167.541 175.949 170.71C175.518 174.418 175.359 177.794 175.342 180.236C175.342 181.459 175.342 182.45 175.385 183.13C175.385 183.453 175.419 183.712 175.432 183.918C175.436 184.01 175.452 184.102 175.479 184.19Z" fill="#E0E0E0"/>
<path d="M175.497 177.682C175.518 177.41 175.518 177.136 175.497 176.864C175.467 176.334 175.393 175.572 175.247 174.637C175.066 173.544 174.825 172.461 174.523 171.394C174.169 170.083 173.716 168.8 173.167 167.557C172.218 165.267 170.861 163.169 169.162 161.364C168.868 161.057 168.554 160.769 168.223 160.503C168.081 160.378 167.951 160.257 167.822 160.163L167.46 159.913C167.241 159.752 167.009 159.608 166.767 159.482C167.564 160.108 168.321 160.784 169.032 161.506C170.667 163.329 171.978 165.418 172.908 167.682C173.446 168.917 173.901 170.186 174.269 171.481C174.582 172.537 174.839 173.61 175.04 174.693C175.212 175.619 175.307 176.373 175.368 176.894C175.391 177.16 175.434 177.423 175.497 177.682Z" fill="#E0E0E0"/>
<path d="M187.073 49.7611L163.696 56.7939C163.151 56.9562 162.564 56.8959 162.062 56.6264C161.561 56.3569 161.187 55.9 161.022 55.3555L151.547 23.8564C151.385 23.311 151.445 22.7236 151.715 22.2225C151.984 21.7214 152.441 21.3473 152.986 21.182L169.351 16.2681L181.095 22.3792L188.529 47.0867C188.69 47.6343 188.628 48.2238 188.355 48.7253C188.082 49.2269 187.621 49.5994 187.073 49.7611Z" fill="#E0E0E0"/>
<path d="M169.308 16.1904L171.194 22.4523C171.305 22.8203 171.487 23.1629 171.73 23.4606C171.973 23.7582 172.272 24.0051 172.61 24.1871C172.948 24.3691 173.319 24.4826 173.702 24.5211C174.084 24.5597 174.47 24.5226 174.838 24.4119L181.078 22.3834L169.308 16.1904Z" fill="#EBEBEB"/>
<path d="M181.694 44.5973C181.687 44.5709 181.679 44.545 181.668 44.5198L181.595 44.3087C181.535 44.1106 181.449 43.835 181.337 43.4818C181.113 42.7497 180.785 41.6989 180.372 40.3638C179.554 37.6808 178.387 33.8607 176.987 29.2827L177.108 29.3473L161.173 34.1579C161.173 34.188 161.315 33.8952 161.25 34.0201V34.0459V34.0804L161.272 34.145L161.311 34.2742L161.388 34.5369L161.548 35.058L161.858 36.1002L162.473 38.1459L163.662 42.108C164.433 44.692 165.161 47.121 165.815 49.3605L165.695 49.2959L177.232 45.8764L180.497 44.9203L181.358 44.6705L181.582 44.6102C181.609 44.6063 181.637 44.6063 181.664 44.6102L181.599 44.636L181.384 44.7049L180.544 44.9677L177.344 45.9453L165.772 49.4767L165.678 49.5069L165.647 49.4121C164.971 47.1727 164.239 44.7437 163.46 42.1683C163.072 40.8821 162.673 39.5613 162.262 38.2062L161.647 36.1605L161.337 35.1183L161.177 34.5972L161.1 34.3345L161.061 34.2053L161.039 34.1407V34.1062V34.0804C160.97 34.2053 161.13 33.9081 161.113 33.9382L177.047 29.1578L177.142 29.1277L177.168 29.2224C178.537 33.8392 179.674 37.6851 180.475 40.3897C180.867 41.7204 181.173 42.7712 181.388 43.5034L181.621 44.3173L181.677 44.5241C181.694 44.5757 181.698 44.5973 181.694 44.5973Z" fill="white"/>
<path d="M173.623 47.2372C173.563 47.2372 172.482 43.8349 171.212 39.6014C169.941 35.368 168.95 31.914 169.011 31.8968C169.071 31.8796 170.148 35.2991 171.423 39.5368C172.697 43.7746 173.684 47.2027 173.623 47.2372Z" fill="white"/>
<path d="M180.505 40.8549C180.505 40.9109 176.952 42.0392 172.534 43.37C168.115 44.7007 164.51 45.73 164.493 45.6697C164.476 45.6095 168.046 44.4854 172.469 43.1546C176.892 41.8239 180.484 40.7774 180.505 40.8549Z" fill="white"/>
<path d="M179.498 36.9013C179.498 36.9616 175.945 38.0857 171.526 39.4164C167.107 40.7472 163.507 41.7765 163.486 41.7162C163.464 41.6559 167.039 40.5319 171.461 39.2011C175.884 37.8703 179.498 36.8281 179.498 36.9013Z" fill="white"/>
<path d="M178.206 33.0251C178.206 33.0854 174.683 34.2009 170.295 35.523C165.906 36.8452 162.336 37.8658 162.319 37.8055C162.301 37.7453 165.841 36.6255 170.23 35.3077C174.618 33.9898 178.206 32.9519 178.206 33.0251Z" fill="white"/>
<path d="M16.2745 82.1689L4.21582 80.0156C3.93648 79.9632 3.68916 79.8025 3.52781 79.5686C3.36646 79.3346 3.30415 79.0463 3.35449 78.7666L6.2615 62.5434C6.2869 62.4048 6.33935 62.2725 6.41588 62.1542C6.4924 62.0359 6.59149 61.9339 6.70748 61.8539C6.82346 61.7739 6.95408 61.7175 7.09185 61.6881C7.22963 61.6586 7.37187 61.6565 7.51043 61.682L15.9386 63.1721L19.8146 68.5684L17.5321 81.2946C17.5077 81.435 17.4557 81.5691 17.3791 81.6892C17.3025 81.8094 17.2028 81.9131 17.0859 81.9944C16.9689 82.0757 16.837 82.133 16.6977 82.163C16.5584 82.1929 16.4146 82.1949 16.2745 82.1689Z" fill="#E0E0E0"/>
<path d="M15.9426 63.1375L15.3655 66.3632C15.3283 66.5542 15.3295 66.7508 15.369 66.9413C15.4086 67.1319 15.4858 67.3127 15.5961 67.4731C15.7064 67.6335 15.8475 67.7703 16.0113 67.8755C16.175 67.9807 16.3581 68.0522 16.5499 68.0858L19.8014 68.594L15.9426 63.1375Z" fill="#EBEBEB"/>
<path d="M15.0387 78.6374C15.0345 78.5858 15.0345 78.534 15.0387 78.4824L15.1033 78.0517C15.1679 77.6555 15.2583 77.1128 15.3703 76.4324C15.6071 75.0327 15.9431 73.0732 16.3436 70.726L16.4211 70.838L8.22118 69.3737L8.35039 69.2876V69.3134V69.3479V69.4168L8.32455 69.5503L8.27717 69.8173C8.24272 69.9982 8.21257 70.1748 8.18242 70.3513C8.11782 70.7088 8.05322 71.062 7.98862 71.4065C7.86373 72.1042 7.74314 72.7846 7.62256 73.4479C7.38138 74.7743 7.15313 76.0319 6.9421 77.1774L6.86458 77.0655L12.7777 78.1766L14.453 78.5039L14.8836 78.5943L15.043 78.6331H14.9008L14.4702 78.5685L12.8078 78.2929L6.79998 77.2636H6.70093V77.1645C6.90765 76.0103 7.1316 74.7571 7.35985 73.4306C7.48044 72.7674 7.60102 72.0869 7.72592 71.3893C7.78621 71.0404 7.85081 70.6916 7.9111 70.3341C7.94556 70.1576 7.9757 69.981 8.01016 69.8001L8.05753 69.5331L8.07906 69.3953V69.3307V69.2962V69.2704L8.20827 69.1799L16.4211 70.67H16.5159V70.7648C16.0852 73.1292 15.6976 75.1059 15.4349 76.5142C15.3057 77.1817 15.198 77.7158 15.1248 78.1034C15.0903 78.2713 15.0602 78.4048 15.0387 78.534C15.0419 78.5684 15.0419 78.603 15.0387 78.6374Z" fill="white"/>
<path d="M10.8354 77.9828C10.9612 76.6492 11.161 75.3235 11.4341 74.0121C11.6347 72.6874 11.9078 71.3748 12.2523 70.0801C12.1266 71.4137 11.9268 72.7394 11.6537 74.0508C11.4557 75.3759 11.1825 76.6887 10.8354 77.9828Z" fill="white"/>
<path d="M15.3531 76.6949C13.9616 76.5618 12.5784 76.3519 11.2101 76.0662C9.82878 75.8537 8.4601 75.5662 7.11011 75.2048C8.50132 75.3406 9.8843 75.5504 11.2531 75.8336C12.634 76.0485 14.0025 76.336 15.3531 76.6949Z" fill="white"/>
<path d="M15.8091 74.7008C14.4182 74.5629 13.0353 74.353 11.6661 74.072C10.2837 73.8581 8.91362 73.5706 7.56183 73.2107C8.95312 73.3458 10.3361 73.5557 11.7049 73.8395C13.0877 74.0509 14.4579 74.3384 15.8091 74.7008Z" fill="white"/>
<path d="M16.1063 72.6727C14.7266 72.5403 13.3551 72.3333 11.9978 72.0525C10.6258 71.8358 9.26593 71.5483 7.92365 71.1912C9.30512 71.3208 10.6782 71.5279 12.0365 71.8113C13.4076 72.0252 14.7662 72.3127 16.1063 72.6727Z" fill="white"/>
<path d="M60.112 42.7885L43.4064 48.5595C43.0169 48.6941 42.5899 48.6685 42.2192 48.4884C41.8486 48.3083 41.5646 47.9885 41.4296 47.5991L33.6776 25.0924C33.5435 24.7056 33.5673 24.2816 33.7439 23.9124C33.9205 23.5431 34.2356 23.2583 34.6208 23.1199L46.3005 19.0889L54.9784 23.163L61.0767 40.8204C61.2096 41.2093 61.1827 41.6351 61.0018 42.0041C60.8209 42.3732 60.5008 42.6553 60.112 42.7885Z" fill="#FFC100"/>
<path d="M46.2839 19.0286L47.83 23.4989C48.013 24.0299 48.3992 24.4664 48.904 24.7127C49.4087 24.959 49.9905 24.9949 50.5216 24.8124L54.9791 23.1587L46.2839 19.0286Z" fill="#FFC100"/>
<g opacity="0.2">
<path d="M46.2839 19.0286L47.83 23.4989C48.013 24.0299 48.3992 24.4664 48.904 24.7127C49.4087 24.959 49.9905 24.9949 50.5216 24.8124L54.9791 23.1587L46.2839 19.0286Z" fill="black"/>
</g>
<path d="M56.073 39.2097C56.0399 39.1428 56.0111 39.0737 55.9869 39.003C55.9352 38.8566 55.862 38.6585 55.7716 38.413L54.9791 36.1864C54.2987 34.2614 53.3426 31.5439 52.1927 28.2794L52.3176 28.3397L40.9307 32.2889C40.9307 32.3234 41.0599 32.0219 40.9996 32.1511V32.1985L41.0298 32.2932L41.0944 32.4784L41.2236 32.8531L41.482 33.5938C41.65 34.0891 41.8179 34.5758 41.9859 35.0581C42.3175 36.0228 42.6448 36.9703 42.9592 37.8919C43.5923 39.7308 44.1909 41.4707 44.7378 43.0599L44.6173 42.9996L52.8818 40.2606L55.2246 39.4854L55.8491 39.2786L56.073 39.214C56.0094 39.2468 55.9431 39.2741 55.8749 39.2959L55.2763 39.5112L52.9808 40.3467L44.6991 43.2365L44.6086 43.2709L44.5785 43.1762C44.0229 41.5784 43.4157 39.8428 42.7783 38.0082L41.805 35.1787C41.637 34.6963 41.4691 34.2054 41.3011 33.7144L41.0427 32.9737L40.9135 32.599L40.8489 32.4138L40.8188 32.3191V32.2717C40.7585 32.3966 40.9049 32.0951 40.892 32.1253L52.2875 28.2062L52.3822 28.176L52.4123 28.2665C53.5278 31.5654 54.4623 34.2958 55.1212 36.2597L55.862 38.4819C55.9395 38.7274 56.0041 38.9126 56.0515 39.0633C56.0989 39.214 56.0773 39.214 56.073 39.2097Z" fill="white"/>
<path d="M50.2978 41.3456C50.2418 41.3672 49.346 38.9296 48.2995 35.902C47.253 32.8744 46.4519 30.4067 46.5122 30.3852C46.5725 30.3636 47.464 32.8012 48.5105 35.8288C49.557 38.8564 50.371 41.3241 50.2978 41.3456Z" fill="white"/>
<path d="M55.0993 36.5396C55.0993 36.5956 52.5755 37.5301 49.4188 38.6197C46.262 39.7093 43.6823 40.5491 43.6607 40.4888C43.6392 40.4285 46.1844 39.4982 49.3455 38.4087C52.5066 37.3191 55.082 36.4707 55.0993 36.5396Z" fill="white"/>
<path d="M54.2639 33.7013C54.2639 33.7573 51.7402 34.6918 48.5834 35.7814C45.4266 36.871 42.8469 37.7108 42.8254 37.6505C42.8039 37.5902 45.3491 36.66 48.5102 35.5704C51.6713 34.4808 54.2467 33.641 54.2639 33.7013Z" fill="white"/>
<path d="M53.2134 30.9364C53.2134 30.9924 50.7069 31.9183 47.5759 32.9993C44.445 34.0803 41.8825 34.9158 41.861 34.8555C41.8394 34.7952 44.3675 33.8735 47.5027 32.7883C50.638 31.703 53.1918 30.8718 53.2134 30.9364Z" fill="white"/>
<path d="M178.606 143.345L169.851 147.958C169.75 148.012 169.639 148.046 169.525 148.057C169.411 148.068 169.296 148.056 169.186 148.022C169.077 147.988 168.975 147.932 168.887 147.858C168.8 147.784 168.727 147.694 168.675 147.591L162.461 135.795C162.406 135.695 162.372 135.584 162.361 135.47C162.349 135.356 162.361 135.241 162.395 135.132C162.428 135.022 162.484 134.92 162.557 134.833C162.63 134.745 162.721 134.672 162.822 134.62L168.947 131.394L174.115 132.914L178.99 142.169C179.044 142.271 179.076 142.383 179.086 142.498C179.096 142.613 179.083 142.729 179.047 142.838C179.011 142.948 178.954 143.049 178.878 143.136C178.802 143.223 178.71 143.294 178.606 143.345Z" fill="#455A64"/>
<path d="M168.934 131.364L170.17 133.707C170.242 133.845 170.341 133.968 170.46 134.068C170.58 134.168 170.718 134.243 170.867 134.289C171.016 134.336 171.172 134.352 171.328 134.338C171.483 134.324 171.634 134.279 171.772 134.206L174.097 132.914L168.934 131.364Z" fill="#E0E0E0"/>
<path d="M176.053 141.704C175.962 141.566 175.88 141.422 175.807 141.274L175.165 140.111L172.939 135.989L173.072 136.032L167.103 139.194L167.151 139.043V139.069L167.176 139.116L167.228 139.215L167.331 139.409L167.534 139.801L167.939 140.567L168.718 142.053L170.139 144.771L170.006 144.732L174.313 142.51L175.553 141.89C175.841 141.743 175.984 141.67 176.009 141.67C175.882 141.758 175.748 141.837 175.609 141.907L174.416 142.566L170.079 144.904L169.997 144.952L169.95 144.865C169.519 144.026 169.02 143.117 168.512 142.152C168.253 141.67 167.995 141.175 167.723 140.671L167.319 139.904L167.116 139.517L167.013 139.318L166.961 139.224L166.935 139.172V139.146C166.892 139.28 166.991 138.961 166.983 138.995L172.965 135.86L173.051 135.817L173.094 135.903C173.981 137.626 174.722 139.077 175.247 140.12C175.488 140.606 175.678 140.981 175.833 141.287C175.915 141.421 175.989 141.56 176.053 141.704Z" fill="white"/>
<path d="M173.059 143.375C172.454 142.475 171.915 141.532 171.444 140.554C170.905 139.614 170.433 138.637 170.031 137.63C170.631 138.533 171.169 139.476 171.642 140.451C172.177 141.394 172.651 142.371 173.059 143.375Z" fill="white"/>
<path d="M175.299 140.309C174.356 140.934 173.371 141.495 172.353 141.988C171.369 142.546 170.351 143.041 169.304 143.47C170.247 142.844 171.231 142.283 172.25 141.79C173.233 141.23 174.251 140.735 175.299 140.309Z" fill="white"/>
<path d="M174.597 138.81C173.652 139.432 172.668 139.991 171.651 140.486C170.669 141.052 169.65 141.552 168.602 141.984C170.528 140.799 172.53 139.745 174.597 138.828V138.81Z" fill="white"/>
<path d="M173.779 137.367C171.868 138.545 169.879 139.593 167.827 140.503C169.739 139.327 171.727 138.28 173.779 137.367Z" fill="white"/>
<path d="M194.296 46.0789H27.5802V136.476H194.296V46.0789Z" fill="#F5F5F5"/>
<path d="M194.296 46.0789H27.5802V53.6931H194.296V46.0789Z" fill="#263238"/>
<path d="M31.525 50.9325C32.0459 50.9325 32.4682 50.5102 32.4682 49.9893C32.4682 49.4684 32.0459 49.0461 31.525 49.0461C31.0041 49.0461 30.5818 49.4684 30.5818 49.9893C30.5818 50.5102 31.0041 50.9325 31.525 50.9325Z" fill="#FAFAFA"/>
<path d="M34.9571 50.9325C35.478 50.9325 35.9003 50.5102 35.9003 49.9893C35.9003 49.4684 35.478 49.0461 34.9571 49.0461C34.4362 49.0461 34.014 49.4684 34.014 49.9893C34.014 50.5102 34.4362 50.9325 34.9571 50.9325Z" fill="#FAFAFA"/>
<path d="M38.3897 50.9325C38.9106 50.9325 39.3329 50.5102 39.3329 49.9893C39.3329 49.4684 38.9106 49.0461 38.3897 49.0461C37.8688 49.0461 37.4465 49.4684 37.4465 49.9893C37.4465 50.5102 37.8688 50.9325 38.3897 50.9325Z" fill="#FAFAFA"/>
<path d="M33.3942 66.7769H27.3304V136.472H33.3942V66.7769Z" fill="#455A64"/>
<path d="M27.3304 64.0937V70.1575L194.223 70.1575V64.0937L27.3304 64.0937Z" fill="#455A64"/>
<path d="M33.3937 132.591C33.3334 132.591 33.2817 117.26 33.2817 98.3448C33.2817 79.4298 33.3334 64.0938 33.3937 64.0938C33.454 64.0938 33.5057 79.4255 33.5057 98.3448C33.5057 117.264 33.4583 132.591 33.3937 132.591Z" fill="#E0E0E0"/>
<path d="M57.2358 136.472C57.1755 136.472 57.1238 120.27 57.1238 100.296C57.1238 80.3214 57.1755 64.1196 57.2358 64.1196C57.2961 64.1196 57.3478 80.3214 57.3478 100.296C57.3478 120.27 57.2961 136.472 57.2358 136.472Z" fill="#E0E0E0"/>
<path d="M82.5244 136.472C82.4641 136.472 82.4124 120.322 82.4124 100.403C82.4124 80.485 82.4641 64.335 82.5244 64.335C82.5847 64.335 82.6364 80.4807 82.6364 100.403C82.6364 120.326 82.5976 136.472 82.5244 136.472Z" fill="#E0E0E0"/>
<path d="M107.218 136.472C107.154 136.472 107.106 120.322 107.106 100.403C107.106 80.485 107.154 64.335 107.218 64.335C107.283 64.335 107.33 80.4807 107.33 100.403C107.33 120.326 107.279 136.472 107.218 136.472Z" fill="#E0E0E0"/>
<path d="M132.49 136.472C132.43 136.472 132.378 120.27 132.378 100.296C132.378 80.3214 132.43 64.1196 132.49 64.1196C132.551 64.1196 132.602 80.3214 132.602 100.296C132.602 120.27 132.555 136.472 132.49 136.472Z" fill="#E0E0E0"/>
<path d="M157.767 136.472C157.702 136.472 157.655 120.27 157.655 100.296C157.655 80.3214 157.702 64.1196 157.767 64.1196C157.831 64.1196 157.879 80.3214 157.879 100.296C157.879 120.27 157.827 136.472 157.767 136.472Z" fill="#E0E0E0"/>
<path d="M183.038 136.472C182.978 136.472 182.926 120.322 182.926 100.403C182.926 80.485 182.978 64.335 183.038 64.335C183.098 64.335 183.15 80.4807 183.15 100.403C183.15 120.326 183.103 136.472 183.038 136.472Z" fill="#E0E0E0"/>
<path d="M193.301 75.6915C193.301 75.7518 156.147 75.8035 110.324 75.8035C64.5014 75.8035 27.3347 75.7518 27.3347 75.6915C27.3347 75.6312 64.4841 75.5752 110.324 75.5752C156.165 75.5752 193.301 75.6269 193.301 75.6915Z" fill="#E0E0E0"/>
<path d="M193.301 70.1576C193.301 70.2222 156.147 70.2696 110.324 70.2696C64.5014 70.2696 27.3347 70.2222 27.3347 70.1576C27.3347 70.093 64.4841 70.0457 110.324 70.0457C156.165 70.0457 193.301 70.0973 193.301 70.1576Z" fill="#E0E0E0"/>
<path d="M193.301 81.5141C193.301 81.5787 156.147 81.6261 110.324 81.6261C64.5014 81.6261 27.3347 81.5787 27.3347 81.5141C27.3347 81.4495 64.4841 81.4021 110.324 81.4021C156.165 81.4021 193.301 81.4538 193.301 81.5141Z" fill="#E0E0E0"/>
<path d="M193.301 87.3412C193.301 87.4015 156.147 87.4532 110.324 87.4532C64.5014 87.4532 27.3347 87.4015 27.3347 87.3412C27.3347 87.2809 64.4841 87.2292 110.324 87.2292C156.165 87.2292 193.301 87.2895 193.301 87.3412Z" fill="#E0E0E0"/>
<path d="M193.301 93.1681C193.301 93.2284 156.147 93.2801 110.324 93.2801C64.5014 93.2801 27.3347 93.2284 27.3347 93.1681C27.3347 93.1078 64.4841 93.0562 110.324 93.0562C156.165 93.0562 193.301 93.1035 193.301 93.1681Z" fill="#E0E0E0"/>
<path d="M193.301 98.9909C193.301 99.0555 156.147 99.1029 110.324 99.1029C64.5014 99.1029 27.3347 99.0555 27.3347 98.9909C27.3347 98.9263 64.4841 98.8789 110.324 98.8789C156.165 98.8789 193.301 98.9177 193.301 98.9909Z" fill="#E0E0E0"/>
<path d="M193.301 104.818C193.301 104.878 156.147 104.93 110.324 104.93C64.5014 104.93 27.3347 104.878 27.3347 104.818C27.3347 104.757 64.4841 104.706 110.324 104.706C156.165 104.706 193.301 104.757 193.301 104.818Z" fill="#E0E0E0"/>
<path d="M193.301 110.645C193.301 110.705 156.147 110.757 110.324 110.757C64.5014 110.757 27.3347 110.705 27.3347 110.645C27.3347 110.584 64.4841 110.533 110.324 110.533C156.165 110.533 193.301 110.58 193.301 110.645Z" fill="#E0E0E0"/>
<path d="M193.301 116.467C193.301 116.532 156.147 116.583 110.324 116.583C64.5014 116.583 27.3347 116.532 27.3347 116.467C27.3347 116.403 64.4841 116.355 110.324 116.355C156.165 116.355 193.301 116.407 193.301 116.467Z" fill="#E0E0E0"/>
<path d="M193.301 122.294C193.301 122.359 156.147 122.406 110.324 122.406C64.5014 122.406 27.3347 122.359 27.3347 122.294C27.3347 122.23 64.4841 122.182 110.324 122.182C156.165 122.182 193.301 122.234 193.301 122.294Z" fill="#E0E0E0"/>
<path d="M193.301 128.121C193.301 128.182 156.147 128.233 110.324 128.233C64.5014 128.233 27.3347 128.182 27.3347 128.121C27.3347 128.061 64.4841 128.009 110.324 128.009C156.165 128.009 193.301 128.061 193.301 128.121Z" fill="#E0E0E0"/>
<path d="M193.301 133.948C193.301 134.008 156.147 134.06 110.324 134.06C64.5014 134.06 27.3347 134.008 27.3347 133.948C27.3347 133.888 64.4841 133.836 110.324 133.836C156.165 133.836 193.301 133.884 193.301 133.948Z" fill="#E0E0E0"/>
<path d="M160.006 75.0456C160.006 75.1059 141.083 75.1575 117.741 75.1575C94.3985 75.1575 75.4749 75.1059 75.4749 75.0456C75.4749 74.9853 94.3942 74.9336 117.741 74.9336C141.087 74.9336 160.006 74.981 160.006 75.0456Z" fill="#FAFAFA"/>
<path d="M168.013 78.2799C168.013 78.3402 144.347 78.3919 115.161 78.3919C85.9747 78.3919 62.3008 78.3402 62.3008 78.2799C62.3008 78.2196 85.9617 78.168 115.161 78.168C144.36 78.168 168.013 78.2153 168.013 78.2799Z" fill="#FAFAFA"/>
<path d="M107.219 87.3413H57.2355V93.1682H107.219V87.3413Z" fill="#FFC100"/>
<path d="M107.219 92.5222H57.2355V117.109H107.219V92.5222Z" fill="#EBEBEB"/>
<path d="M78.3816 95.821C78.3816 95.8856 74.2558 95.9329 69.1696 95.9329C64.0834 95.9329 59.9576 95.8856 59.9576 95.821C59.9576 95.7564 64.0834 95.709 69.1696 95.709C74.2558 95.709 78.3816 95.7607 78.3816 95.821Z" fill="#263238"/>
<path d="M71.0258 102.216C71.0258 102.281 68.5452 102.328 65.4917 102.328C62.4383 102.328 59.9576 102.281 59.9576 102.216C59.9576 102.152 62.434 102.104 65.4917 102.104C68.5495 102.104 71.0258 102.156 71.0258 102.216Z" fill="#263238"/>
<path d="M80.1603 106.876C80.1603 106.937 75.6383 106.988 70.0611 106.988C64.484 106.988 59.9576 106.937 59.9576 106.876C59.9576 106.816 64.4797 106.764 70.0611 106.764C75.6426 106.764 80.1603 106.812 80.1603 106.876Z" fill="#263238"/>
<path d="M71.0258 97.561C71.0258 97.6212 68.5452 97.6729 65.4917 97.6729C62.4383 97.6729 59.9576 97.6212 59.9576 97.561C59.9576 97.5007 62.434 97.449 65.4917 97.449C68.5495 97.449 71.0258 97.4964 71.0258 97.561Z" fill="#263238"/>
<path d="M105.363 95.8212C104.388 95.9346 103.406 95.972 102.426 95.9332C101.445 95.972 100.463 95.9346 99.4888 95.8212C100.464 95.7103 101.445 95.6729 102.426 95.7092C103.406 95.6729 104.388 95.7103 105.363 95.8212Z" fill="#263238"/>
<path d="M105.363 101.071C104.388 101.182 103.406 101.219 102.426 101.183C101.445 101.219 100.464 101.182 99.4888 101.071C100.463 100.957 101.445 100.92 102.426 100.959C103.406 100.92 104.388 100.957 105.363 101.071Z" fill="#263238"/>
<path d="M105.363 106.876C104.388 106.987 103.406 107.025 102.426 106.988C101.445 107.025 100.464 106.987 99.4888 106.876C100.463 106.763 101.445 106.725 102.426 106.764C103.406 106.725 104.388 106.763 105.363 106.876Z" fill="#263238"/>
<path d="M105.04 113.991C105.04 114.051 102.96 114.103 100.393 114.103C97.8264 114.103 95.7506 114.051 95.7506 113.991C95.7506 113.931 97.8264 113.879 100.393 113.879C102.96 113.879 105.04 113.931 105.04 113.991Z" fill="#263238"/>
<path d="M82.5244 116.683C82.4641 116.683 82.4124 111.368 82.4124 104.818C82.4124 98.2673 82.4641 92.9529 82.5244 92.9529C82.5847 92.9529 82.6364 98.263 82.6364 104.818C82.6364 111.373 82.5976 116.683 82.5244 116.683Z" fill="#E0E0E0"/>
<path d="M106.801 110.115C106.801 110.175 101.276 110.227 94.4583 110.227C87.6408 110.227 82.1196 110.175 82.1196 110.115C82.1196 110.055 87.6408 110.003 94.4583 110.003C101.276 110.003 106.801 110.063 106.801 110.115Z" fill="#E0E0E0"/>
<path d="M107.219 127.906H57.2355V133.948H107.219V127.906Z" fill="#F5F5F5"/>
<path d="M107.219 122.294H57.1537V128.121H107.219V122.294Z" fill="#FFC100"/>
<path d="M80.5821 131.218C80.5821 131.282 75.8663 131.33 70.0523 131.33C64.2383 131.33 59.5225 131.282 59.5225 131.218C59.5225 131.153 64.234 131.106 70.0523 131.106C75.8706 131.106 80.5821 131.162 80.5821 131.218Z" fill="#263238"/>
<path d="M105.04 130.925C105.04 130.985 102.96 131.037 100.393 131.037C97.8264 131.037 95.7506 130.985 95.7506 130.925C95.7506 130.864 97.8264 130.813 100.393 130.813C102.96 130.813 105.04 130.864 105.04 130.925Z" fill="#263238"/>
<path d="M138.033 107.522H133.709V122.191H138.033V107.522Z" fill="#FFC100"/>
<path d="M164.304 110.184H159.98V122.191H164.304V110.184Z" fill="#FFC100"/>
<path d="M181.819 113.539H177.495V122.191H181.819V113.539Z" fill="#263238"/>
<path d="M146.793 98.5256H142.469V122.191H146.793V98.5256Z" fill="#455A64"/>
<path d="M155.549 98.5256H151.225V122.191H155.549V98.5256Z" fill="#263238"/>
<path d="M173.06 93.0603H168.736V122.191H173.06V93.0603Z" fill="#455A64"/>
<path d="M35.9043 56.3547H32.0671V60.192H35.9043V56.3547Z" fill="#FFC100"/>
<path d="M38.1357 61.88H33.8721V57.6121H38.1357V61.88ZM34.3027 61.4493H37.705V58.0427H34.3027V61.4493Z" fill="#FFC100"/>
<path d="M47.3391 57.3711H43.7559V60.9543H47.3391V57.3711Z" fill="#E0E0E0"/>
<path d="M53.1617 57.3711H49.5786V60.9543H53.1617V57.3711Z" fill="#E0E0E0"/>
<path d="M58.9843 57.3711H55.4012V60.9543H58.9843V57.3711Z" fill="#E0E0E0"/>
<path d="M64.8112 57.3711H61.2281V60.9543H64.8112V57.3711Z" fill="#E0E0E0"/>
<path d="M70.6339 57.3711H67.0508V60.9543H70.6339V57.3711Z" fill="#E0E0E0"/>
<path d="M113.838 57.3367H75.9654V60.993H113.838V57.3367Z" fill="#E0E0E0"/>
<path d="M156.909 57.3367H119.036V60.993H156.909V57.3367Z" fill="#E0E0E0"/>
<path d="M194.296 136.472C194.296 135.791 194.262 101.683 194.21 46.079L194.296 46.1608L27.5934 46.191L27.7053 46.079C27.7053 78.0173 27.7053 108.595 27.7053 136.472L27.602 136.369L194.318 136.472L27.602 136.58H27.4728V136.472C27.4728 108.595 27.4728 78.0173 27.4728 46.079V45.967H27.5977L194.301 45.9929H194.387V46.079C194.326 101.683 194.296 135.796 194.296 136.472Z" fill="#263238"/>
<path d="M183.189 38.7747H16.4731V129.172H183.189V38.7747Z" fill="#F5F5F5"/>
<path d="M183.189 38.7747H16.4731V46.3889H183.189V38.7747Z" fill="#263238"/>
<path d="M20.4222 43.6285C20.9431 43.6285 21.3654 43.2062 21.3654 42.6854C21.3654 42.1645 20.9431 41.7422 20.4222 41.7422C19.9013 41.7422 19.4791 42.1645 19.4791 42.6854C19.4791 43.2062 19.9013 43.6285 20.4222 43.6285Z" fill="#FAFAFA"/>
<path d="M23.8548 43.6285C24.3757 43.6285 24.798 43.2062 24.798 42.6854C24.798 42.1645 24.3757 41.7422 23.8548 41.7422C23.3339 41.7422 22.9117 42.1645 22.9117 42.6854C22.9117 43.2062 23.3339 43.6285 23.8548 43.6285Z" fill="#FAFAFA"/>
<path d="M27.2869 43.6285C27.8078 43.6285 28.2301 43.2062 28.2301 42.6854C28.2301 42.1645 27.8078 41.7422 27.2869 41.7422C26.766 41.7422 26.3438 42.1645 26.3438 42.6854C26.3438 43.2062 26.766 43.6285 27.2869 43.6285Z" fill="#FAFAFA"/>
<path d="M22.291 59.4727H16.2272V129.168H22.291V59.4727Z" fill="#455A64"/>
<path d="M16.223 56.7895V62.8533L183.115 62.8533V56.7895L16.223 56.7895Z" fill="#455A64"/>
<path d="M22.3047 125.287C22.2444 125.287 22.1927 109.951 22.1927 91.0406C22.1927 72.1299 22.2444 56.7896 22.3047 56.7896C22.365 56.7896 22.4166 72.1213 22.4166 91.0406C22.4166 109.96 22.352 125.287 22.3047 125.287Z" fill="#E0E0E0"/>
<path d="M46.1331 129.168C46.0728 129.168 46.0211 112.966 46.0211 92.9915C46.0211 73.0172 46.0728 56.8154 46.1331 56.8154C46.1934 56.8154 46.2451 73.0172 46.2451 92.9915C46.2451 112.966 46.1934 129.168 46.1331 129.168Z" fill="#E0E0E0"/>
<path d="M71.4221 129.168C71.3618 129.168 71.3101 113.018 71.3101 93.0992C71.3101 73.1808 71.3618 57.0308 71.4221 57.0308C71.4824 57.0308 71.5341 73.1765 71.5341 93.0992C71.5341 113.022 71.4867 129.168 71.4221 129.168Z" fill="#E0E0E0"/>
<path d="M96.1166 129.168C96.052 129.168 96.0046 113.018 96.0046 93.0992C96.0046 73.1808 96.052 57.0308 96.1166 57.0308C96.1812 57.0308 96.2286 73.1765 96.2286 93.0992C96.2286 113.022 96.1769 129.168 96.1166 129.168Z" fill="#E0E0E0"/>
<path d="M121.388 129.168C121.328 129.168 121.276 112.966 121.276 92.9915C121.276 73.0172 121.328 56.8154 121.388 56.8154C121.448 56.8154 121.5 73.0172 121.5 92.9915C121.5 112.966 121.448 129.168 121.388 129.168Z" fill="#E0E0E0"/>
<path d="M146.664 129.168C146.599 129.168 146.548 112.966 146.548 92.9915C146.548 73.0172 146.599 56.8154 146.664 56.8154C146.729 56.8154 146.776 73.0172 146.776 92.9915C146.776 112.966 146.724 129.168 146.664 129.168Z" fill="#E0E0E0"/>
<path d="M171.935 129.168C171.875 129.168 171.823 113.018 171.823 93.0992C171.823 73.1808 171.875 57.0308 171.935 57.0308C171.996 57.0308 172.047 73.1765 172.047 93.0992C172.047 113.022 171.996 129.168 171.935 129.168Z" fill="#E0E0E0"/>
<path d="M182.198 68.3832C182.198 68.4478 145.044 68.4995 99.2212 68.4995C53.3981 68.4995 16.2314 68.4478 16.2314 68.3832C16.2314 68.3186 53.3809 68.2712 99.2212 68.2712C145.061 68.2712 182.198 68.3401 182.198 68.3832Z" fill="#E0E0E0"/>
<path d="M182.198 62.8534C182.198 62.918 145.044 62.9654 99.2212 62.9654C53.3981 62.9654 16.2314 62.918 16.2314 62.8534C16.2314 62.7888 53.3809 62.7415 99.2212 62.7415C145.061 62.7415 182.198 62.7931 182.198 62.8534Z" fill="#E0E0E0"/>
<path d="M182.198 74.2101C182.198 74.2747 145.044 74.3221 99.2212 74.3221C53.3981 74.3221 16.2314 74.2747 16.2314 74.2101C16.2314 74.1455 53.3809 74.0981 99.2212 74.0981C145.061 74.0981 182.198 74.1498 182.198 74.2101Z" fill="#E0E0E0"/>
<path d="M182.198 80.037C182.198 80.0973 145.044 80.149 99.2212 80.149C53.3981 80.149 16.2314 80.0973 16.2314 80.037C16.2314 79.9767 53.3809 79.925 99.2212 79.925C145.061 79.925 182.198 79.9681 182.198 80.037Z" fill="#E0E0E0"/>
<path d="M182.198 85.8639C182.198 85.9242 145.044 85.9759 99.2212 85.9759C53.3981 85.9759 16.2314 85.9242 16.2314 85.8639C16.2314 85.8036 53.3809 85.752 99.2212 85.752C145.061 85.752 182.198 85.7993 182.198 85.8639Z" fill="#E0E0E0"/>
<path d="M182.198 91.6867C182.198 91.7513 145.044 91.7987 99.2212 91.7987C53.3981 91.7987 16.2314 91.7513 16.2314 91.6867C16.2314 91.6221 53.3809 91.5747 99.2212 91.5747C145.061 91.5747 182.198 91.6264 182.198 91.6867Z" fill="#E0E0E0"/>
<path d="M182.198 97.5136C182.198 97.5739 145.044 97.6256 99.2212 97.6256C53.3981 97.6256 16.2314 97.5739 16.2314 97.5136C16.2314 97.4533 53.3809 97.4016 99.2212 97.4016C145.061 97.4016 182.198 97.4533 182.198 97.5136Z" fill="#E0E0E0"/>
<path d="M182.198 103.34C182.198 103.401 145.044 103.452 99.2212 103.452C53.3981 103.452 16.2314 103.401 16.2314 103.34C16.2314 103.28 53.3809 103.229 99.2212 103.229C145.061 103.229 182.198 103.276 182.198 103.34Z" fill="#E0E0E0"/>
<path d="M182.198 109.163C182.198 109.228 145.044 109.28 99.2212 109.28C53.3981 109.28 16.2314 109.228 16.2314 109.163C16.2314 109.099 53.3809 109.051 99.2212 109.051C145.061 109.051 182.198 109.103 182.198 109.163Z" fill="#E0E0E0"/>
<path d="M182.198 114.99C182.198 115.055 145.044 115.102 99.2212 115.102C53.3981 115.102 16.2314 115.055 16.2314 114.99C16.2314 114.926 53.3809 114.878 99.2212 114.878C145.061 114.878 182.198 114.93 182.198 114.99Z" fill="#E0E0E0"/>
<path d="M182.198 120.817C182.198 120.877 145.044 120.929 99.2212 120.929C53.3981 120.929 16.2314 120.882 16.2314 120.817C16.2314 120.752 53.3809 120.705 99.2212 120.705C145.061 120.705 182.198 120.757 182.198 120.817Z" fill="#E0E0E0"/>
<path d="M182.198 126.644C182.198 126.704 145.044 126.756 99.2212 126.756C53.3981 126.756 16.2314 126.704 16.2314 126.644C16.2314 126.584 53.3809 126.532 99.2212 126.532C145.061 126.532 182.198 126.579 182.198 126.644Z" fill="#E0E0E0"/>
<path d="M183.115 62.8533H22.2911V74.21H183.115V62.8533Z" fill="#FFC100"/>
<path d="M148.92 67.7415C148.92 67.8018 129.992 67.8535 106.654 67.8535C83.3165 67.8535 64.3887 67.8018 64.3887 67.7415C64.3887 67.6812 83.3079 67.6252 106.654 67.6252C130.001 67.6252 148.92 67.6769 148.92 67.7415Z" fill="#FAFAFA"/>
<path d="M156.909 70.9757C156.909 71.036 133.244 71.0877 104.054 71.0877C74.8628 71.0877 51.1976 71.036 51.1976 70.9757C51.1976 70.9154 74.8585 70.8638 104.054 70.8638C133.248 70.8638 156.909 70.9241 156.909 70.9757Z" fill="#FAFAFA"/>
<path d="M96.1165 80.0369H46.1332V85.8638H96.1165V80.0369Z" fill="#FFC100"/>
<path d="M96.1165 85.2183H46.1332V109.805H96.1165V85.2183Z" fill="#EBEBEB"/>
<path d="M67.2783 88.517C67.2783 88.5816 63.1525 88.629 58.0664 88.629C52.9802 88.629 48.8544 88.5816 48.8544 88.517C48.8544 88.4524 52.9802 88.405 58.0664 88.405C63.1525 88.405 67.2783 88.4567 67.2783 88.517Z" fill="#263238"/>
<path d="M59.9182 94.9123C59.9182 94.9726 57.4419 95.0242 54.3885 95.0242C51.335 95.0242 48.8544 94.9726 48.8544 94.9123C48.8544 94.852 51.3307 94.8003 54.3885 94.8003C57.4462 94.8003 59.9182 94.852 59.9182 94.9123Z" fill="#263238"/>
<path d="M69.057 99.5722C69.057 99.6325 64.535 99.6842 58.9578 99.6842C53.3807 99.6842 48.8544 99.6325 48.8544 99.5722C48.8544 99.5119 53.3764 99.4602 58.9578 99.4602C64.5393 99.4602 69.057 99.5076 69.057 99.5722Z" fill="#263238"/>
<path d="M59.9182 90.2569C59.9182 90.3172 57.4419 90.3689 54.3885 90.3689C51.335 90.3689 48.8544 90.3172 48.8544 90.2569C48.8544 90.1966 51.3307 90.1406 54.3885 90.1406C57.4462 90.1406 59.9182 90.1923 59.9182 90.2569Z" fill="#263238"/>
<path d="M94.2598 88.5169C93.2852 88.6302 92.3032 88.6677 91.3227 88.6289C90.3408 88.6677 89.3573 88.6303 88.3812 88.5169C89.3575 88.4062 90.3408 88.3688 91.3227 88.405C92.3032 88.3688 93.285 88.4063 94.2598 88.5169Z" fill="#263238"/>
<path d="M94.2598 93.7496C93.285 93.8602 92.3032 93.8977 91.3227 93.8616C90.3408 93.8978 89.3575 93.8603 88.3812 93.7496C89.3573 93.6363 90.3408 93.5988 91.3227 93.6376C92.3032 93.5988 93.2852 93.6363 94.2598 93.7496Z" fill="#263238"/>
<path d="M94.2598 99.5721C93.285 99.6828 92.3032 99.7202 91.3227 99.6841C90.3408 99.7203 89.3575 99.6828 88.3812 99.5721C89.3573 99.4588 90.3408 99.4213 91.3227 99.4601C92.3032 99.4213 93.2852 99.4588 94.2598 99.5721Z" fill="#263238"/>
<path d="M93.9369 106.691C93.9369 106.751 91.8568 106.803 89.29 106.803C86.7233 106.803 84.6431 106.751 84.6431 106.691C84.6431 106.631 86.7233 106.579 89.29 106.579C91.8568 106.579 93.9369 106.626 93.9369 106.691Z" fill="#263238"/>
<path d="M71.4221 109.378C71.3618 109.378 71.3101 104.064 71.3101 97.5136C71.3101 90.9631 71.3618 85.6487 71.4221 85.6487C71.4824 85.6487 71.5341 90.9588 71.5341 97.5136C71.5341 104.068 71.4867 109.378 71.4221 109.378Z" fill="#E0E0E0"/>
<path d="M95.6989 102.824C95.6989 102.884 90.1692 102.936 83.356 102.936C76.5428 102.936 71.0131 102.884 71.0131 102.824C71.0131 102.763 76.5385 102.712 83.356 102.712C90.1735 102.712 95.6989 102.759 95.6989 102.824Z" fill="#E0E0E0"/>
<path d="M96.1165 120.602H46.1332V126.644H96.1165V120.602Z" fill="#F5F5F5"/>
<path d="M96.1165 114.99H46.0514V120.817H96.1165V114.99Z" fill="#FFC100"/>
<path d="M69.4799 123.918C69.4799 123.982 64.764 124.03 58.95 124.03C53.136 124.03 48.4159 123.982 48.4159 123.918C48.4159 123.853 53.1532 123.806 58.95 123.806C64.7468 123.806 69.4799 123.858 69.4799 123.918Z" fill="#263238"/>
<path d="M93.9369 123.621C93.9369 123.681 91.8568 123.732 89.29 123.732C86.7233 123.732 84.6431 123.681 84.6431 123.621C84.6431 123.56 86.7233 123.509 89.29 123.509C91.8568 123.509 93.9369 123.56 93.9369 123.621Z" fill="#263238"/>
<path d="M126.931 100.218H122.607V114.887H126.931V100.218Z" fill="#FFC100"/>
<path d="M153.202 102.88H148.878V114.887H153.202V102.88Z" fill="#FFC100"/>
<path d="M170.713 106.235H166.389V114.887H170.713V106.235Z" fill="#263238"/>
<path d="M135.686 91.2214H131.362V114.887H135.686V91.2214Z" fill="#455A64"/>
<path d="M144.446 91.2214H140.122V114.887H144.446V91.2214Z" fill="#263238"/>
<path d="M161.957 85.7563H157.633V114.887H161.957V85.7563Z" fill="#455A64"/>
<path d="M24.7982 49.0505H20.961V52.8878H24.7982V49.0505Z" fill="#FFC100"/>
<path d="M27.0414 54.5588H22.7778V50.2952H27.0414V54.5588ZM23.2084 54.1281H26.6107V50.7258H23.2084V54.1281Z" fill="#FFC100"/>
<path d="M36.232 50.0669H32.6489V53.6501H36.232V50.0669Z" fill="#E0E0E0"/>
<path d="M42.0589 50.0669H38.4758V53.6501H42.0589V50.0669Z" fill="#E0E0E0"/>
<path d="M47.8816 50.0669H44.2984V53.6501H47.8816V50.0669Z" fill="#E0E0E0"/>
<path d="M53.7085 50.0669H50.1254V53.6501H53.7085V50.0669Z" fill="#E0E0E0"/>
<path d="M59.5316 50.0669H55.9485V53.6501H59.5316V50.0669Z" fill="#E0E0E0"/>
<path d="M102.736 50.0325H64.8627V53.6888H102.736V50.0325Z" fill="#E0E0E0"/>
<path d="M145.807 50.0325H107.934V53.6888H145.807V50.0325Z" fill="#E0E0E0"/>
<path d="M183.115 50.0325H150.462V53.6888H183.115V50.0325Z" fill="#E0E0E0"/>
<path d="M183.193 129.168C183.193 128.487 183.158 94.3783 183.107 38.7747L183.193 38.8566L16.4857 38.8867L16.5976 38.7747C16.5976 70.7131 16.5976 101.29 16.5976 129.168L16.49 129.064L183.21 129.168L16.49 129.275H16.3866V129.168C16.3866 101.29 16.3866 70.7131 16.3866 38.7747V38.6584H16.5115L183.219 38.6886H183.301V38.7747C183.223 94.3783 183.193 128.487 183.193 129.168Z" fill="#263238"/>
<path d="M104.166 138.797L115.794 151.205L133.184 146.037L136.246 152.815C136.246 152.815 116.065 160.335 114.299 159.641C112.534 158.948 101.913 149.947 101.913 149.947L104.166 138.797Z" fill="#FFC100"/>
<path d="M111.194 146.722C110.944 147.04 110.669 147.339 110.372 147.613C109.855 148.152 109.153 148.905 108.416 149.767C107.21 151.188 106.31 152.48 106 152.872L105.824 153.096L105.944 152.841C106 152.721 106.035 152.665 106.043 152.669C106.052 152.674 106.043 152.738 106.005 152.863L105.949 152.833C106.617 151.696 107.385 150.621 108.244 149.62C108.876 148.873 109.549 148.161 110.26 147.488C110.543 147.2 110.856 146.943 111.194 146.722Z" fill="#FAFAFA"/>
<path d="M110.26 145.266C109.965 145.594 109.65 145.904 109.317 146.192C108.731 146.752 107.943 147.548 107.133 148.492C106.323 149.435 105.656 150.331 105.191 150.998C104.959 151.372 104.701 151.728 104.42 152.066C104.589 151.658 104.803 151.269 105.057 150.908C105.632 150.003 106.27 149.14 106.965 148.324C107.66 147.513 108.411 146.754 109.213 146.05C109.533 145.752 109.884 145.489 110.26 145.266Z" fill="#FAFAFA"/>
<path d="M134.98 182.639L134.691 181.291L127.176 182.777L127.676 185.714L128.149 185.667C130.251 185.452 138.817 184.427 140.143 183.785C141.621 183.066 134.98 182.639 134.98 182.639Z" fill="#FFC100"/>
<g opacity="0.5">
<path d="M130.402 185.219C130.209 184.588 129.791 184.05 129.226 183.708C128.942 183.529 128.621 183.416 128.286 183.379C127.952 183.342 127.614 183.38 127.297 183.492L127.667 185.602L130.402 185.219Z" fill="white"/>
</g>
<g opacity="0.5">
<path d="M138.24 182.962C138.24 182.962 140.592 183.251 140.372 183.668C140.152 184.086 131.53 185.443 127.676 185.714V185.542L137.723 184.039C137.723 184.039 137.805 183.048 138.24 182.962Z" fill="white"/>
</g>
<path d="M127.542 185.555H127.676L128.05 185.516L129.433 185.361C130.595 185.219 132.206 184.999 133.972 184.724C135.738 184.448 137.34 184.16 138.494 183.936L139.855 183.66L140.225 183.578C140.27 183.573 140.313 183.561 140.354 183.544H140.221L139.851 183.608L138.481 183.854C137.327 184.061 135.729 184.336 133.959 184.616C132.189 184.896 130.587 185.12 129.424 185.279L128.046 185.464L127.671 185.516L127.542 185.555Z" fill="#263238"/>
<path d="M137.745 184.155C137.771 183.92 137.822 183.687 137.896 183.462C138 183.247 138.13 183.046 138.283 182.863C138.074 182.999 137.911 183.196 137.815 183.426C137.719 183.657 137.694 183.911 137.745 184.155Z" fill="#263238"/>
<path d="M135.337 183.38C135.363 183.38 135.449 183.242 135.531 183.053C135.594 182.94 135.631 182.815 135.639 182.687C135.613 182.687 135.527 182.825 135.445 183.014C135.382 183.126 135.345 183.252 135.337 183.38Z" fill="#263238"/>
<path d="M134.674 183.152C134.696 183.152 134.803 183.07 134.915 182.932C135.027 182.794 135.1 182.67 135.079 182.652C135.057 182.635 134.954 182.734 134.842 182.872C134.73 183.01 134.657 183.135 134.674 183.152Z" fill="#263238"/>
<path d="M134.179 182.502C134.447 182.523 134.717 182.484 134.967 182.385C134.699 182.363 134.43 182.403 134.179 182.502Z" fill="#263238"/>
<path d="M133.964 182.036C134.108 182.101 134.269 182.121 134.424 182.092C134.578 182.093 134.728 182.048 134.855 181.963C134.554 181.99 134.252 182.015 133.951 182.036H133.964Z" fill="#263238"/>
<path d="M135.492 182.678C135.657 182.682 135.82 182.656 135.975 182.6C136.147 182.549 136.314 182.483 136.474 182.402C136.573 182.359 136.666 182.303 136.75 182.234C136.776 182.214 136.798 182.189 136.814 182.16C136.831 182.131 136.841 182.099 136.845 182.066C136.847 182.029 136.838 181.993 136.82 181.96C136.802 181.928 136.774 181.902 136.741 181.886C136.542 181.823 136.328 181.832 136.134 181.911C135.941 181.99 135.781 182.133 135.682 182.316C135.624 182.424 135.587 182.543 135.574 182.665C135.565 182.709 135.565 182.755 135.574 182.799C135.603 182.648 135.655 182.502 135.729 182.368C135.82 182.223 135.95 182.106 136.104 182.032C136.193 181.985 136.29 181.957 136.389 181.948C136.489 181.939 136.59 181.95 136.685 181.98C136.771 182.028 136.758 182.122 136.685 182.187C136.606 182.248 136.521 182.301 136.431 182.346C136.276 182.427 136.115 182.496 135.949 182.553C135.673 182.635 135.488 182.665 135.492 182.678Z" fill="#263238"/>
<path d="M135.622 182.682C135.66 182.571 135.66 182.449 135.622 182.338C135.589 182.213 135.524 182.098 135.432 182.006C135.382 181.941 135.317 181.89 135.241 181.857C135.166 181.825 135.083 181.812 135.002 181.821C134.954 181.839 134.915 181.874 134.893 181.92C134.871 181.966 134.869 182.019 134.885 182.067C134.909 182.143 134.949 182.213 135.002 182.273C135.082 182.369 135.175 182.455 135.277 182.527C135.367 182.602 135.473 182.656 135.587 182.682C135.587 182.682 135.475 182.609 135.32 182.476C135.226 182.4 135.143 182.314 135.07 182.217C134.984 182.127 134.911 181.95 135.032 181.907C135.152 181.864 135.294 181.98 135.38 182.062C135.464 182.146 135.529 182.248 135.57 182.359C135.597 182.465 135.614 182.573 135.622 182.682Z" fill="#263238"/>
<path d="M127.387 183.466C127.387 183.466 127.598 183.41 127.947 183.397C128.398 183.379 128.846 183.486 129.239 183.707C129.631 183.934 129.953 184.265 130.17 184.663C130.337 184.965 130.381 185.184 130.398 185.176C130.398 185.124 130.389 185.073 130.372 185.025C130.337 184.888 130.288 184.756 130.225 184.629C130.02 184.207 129.692 183.858 129.283 183.627C128.875 183.396 128.406 183.295 127.939 183.337C127.793 183.348 127.648 183.374 127.508 183.414C127.465 183.424 127.424 183.442 127.387 183.466Z" fill="#263238"/>
<path d="M131.237 184.332C131.612 184.362 131.988 184.34 132.357 184.267C132.73 184.228 133.096 184.139 133.446 184.005C133.446 183.979 132.951 184.086 132.344 184.177C131.737 184.267 131.237 184.306 131.237 184.332Z" fill="#263238"/>
<path d="M129.756 184.564C129.756 184.586 129.812 184.663 129.881 184.767C129.95 184.87 129.993 184.969 130.018 184.965C130.044 184.961 130.04 184.836 129.958 184.715C129.876 184.594 129.769 184.543 129.756 184.564Z" fill="#263238"/>
<path d="M129.11 183.957C129.11 183.979 129.157 184.052 129.248 184.117C129.338 184.181 129.424 184.22 129.437 184.203C129.45 184.185 129.394 184.108 129.304 184.043C129.213 183.979 129.11 183.94 129.11 183.957Z" fill="#263238"/>
<path d="M128.249 183.759C128.249 183.785 128.361 183.759 128.477 183.789C128.593 183.819 128.684 183.858 128.701 183.837C128.718 183.815 128.636 183.72 128.494 183.699C128.352 183.677 128.249 183.759 128.249 183.759Z" fill="#263238"/>
<path d="M127.65 183.707C127.65 183.733 127.693 183.763 127.762 183.781C127.831 183.798 127.887 183.781 127.891 183.759C127.895 183.738 127.848 183.703 127.779 183.69C127.71 183.677 127.654 183.682 127.65 183.707Z" fill="#263238"/>
<path d="M90.8494 173.63L116.689 149.258C117.483 148.452 118.43 147.812 119.474 147.376C120.518 146.94 121.639 146.718 122.771 146.721H123.283C125.298 146.853 127.208 147.665 128.701 149.024C130.193 150.383 131.181 152.209 131.5 154.202L136.862 181.046L126.095 184.06L122.219 162.329L109.459 173.862L90.8494 173.63Z" fill="#263238"/>
<path d="M82.6796 176.179C82.5676 176.489 81.8527 185.43 93.0156 185.43H122.878C126.655 185.43 129.721 182.553 129.721 179.005C129.721 175.452 126.655 172.575 122.878 172.575H95.0871C94.0957 172.573 93.1147 172.777 92.206 173.173L82.6796 176.179Z" fill="#263238"/>
<path d="M125.531 172.562C125.531 172.626 119.364 172.682 111.749 172.682C104.135 172.682 97.9681 172.626 97.9681 172.562C97.9681 172.497 104.135 172.441 111.749 172.441C119.364 172.441 125.531 172.51 125.531 172.562Z" fill="#455A64"/>
<path d="M121.431 156.648C121.5 156.648 121.504 157.94 121.737 159.508C121.97 161.076 122.336 162.312 122.267 162.338C121.534 160.536 121.247 158.584 121.431 156.648Z" fill="#455A64"/>
<path d="M122.697 156.463C122.855 158.423 122.694 160.395 122.219 162.303C122.15 162.303 122.331 161.011 122.469 159.383C122.607 157.755 122.65 156.463 122.697 156.463Z" fill="#455A64"/>
<path d="M124.829 185.176C125.617 184.859 126.352 184.423 127.008 183.884C127.704 183.287 128.269 182.554 128.671 181.731C129.149 180.72 129.359 179.603 129.278 178.487C129.197 177.372 128.829 176.296 128.21 175.365C127.694 174.611 127.028 173.97 126.255 173.483C125.528 173.05 124.739 172.73 123.916 172.536C123.975 172.527 124.034 172.527 124.093 172.536C124.263 172.554 124.431 172.584 124.596 172.626C125.203 172.776 125.784 173.015 126.319 173.337C127.129 173.817 127.826 174.464 128.365 175.236C129.015 176.193 129.402 177.304 129.485 178.458C129.568 179.612 129.345 180.768 128.839 181.808C128.418 182.649 127.824 183.39 127.094 183.983C126.603 184.38 126.056 184.702 125.471 184.939C125.313 185.001 125.152 185.055 124.988 185.098C124.938 185.13 124.885 185.156 124.829 185.176Z" fill="#455A64"/>
<path d="M100.062 115.757L99.8203 117.049L96.0692 136.407C95.6386 138.655 97.2191 140.822 99.6308 141.27C102.064 141.7 104.42 140.253 104.898 137.988C105.402 135.615 105.97 133.121 105.97 133.121C105.97 133.121 109.14 133.251 110.604 129.387C111.332 127.467 111.896 124.185 112.292 121.489C112.377 120.911 112.344 120.322 112.194 119.757C112.044 119.192 111.781 118.664 111.42 118.205C111.06 117.745 110.609 117.363 110.097 117.083C109.584 116.803 109.02 116.63 108.438 116.575L100.062 115.757Z" fill="#FFBE9D"/>
<path d="M111.254 123.737C111.243 123.805 111.219 123.869 111.183 123.928C111.147 123.986 111.1 124.036 111.044 124.076C110.989 124.116 110.926 124.145 110.859 124.161C110.793 124.176 110.723 124.179 110.656 124.168C110.59 124.159 110.526 124.137 110.469 124.103C110.411 124.069 110.361 124.024 110.321 123.971C110.281 123.918 110.252 123.857 110.235 123.793C110.219 123.728 110.215 123.661 110.225 123.595C110.248 123.458 110.325 123.336 110.438 123.255C110.551 123.174 110.691 123.142 110.828 123.164C110.894 123.173 110.957 123.195 111.015 123.229C111.072 123.263 111.122 123.308 111.162 123.361C111.201 123.414 111.23 123.475 111.246 123.54C111.262 123.604 111.265 123.671 111.254 123.737Z" fill="#263238"/>
<path d="M111.233 123.035C111.156 123.091 110.829 122.721 110.277 122.604C109.726 122.488 109.265 122.686 109.218 122.604C109.171 122.522 109.282 122.462 109.489 122.367C109.762 122.254 110.062 122.225 110.351 122.286C110.639 122.346 110.9 122.497 111.096 122.716C111.238 122.884 111.272 123.035 111.233 123.035Z" fill="#263238"/>
<path d="M105.747 122.484C105.723 122.621 105.647 122.743 105.534 122.823C105.421 122.904 105.281 122.937 105.144 122.914C105.078 122.907 105.014 122.885 104.956 122.852C104.898 122.819 104.848 122.775 104.807 122.722C104.767 122.669 104.738 122.608 104.722 122.543C104.706 122.479 104.703 122.412 104.713 122.346C104.724 122.278 104.748 122.214 104.784 122.155C104.82 122.097 104.867 122.047 104.923 122.007C104.979 121.967 105.042 121.938 105.108 121.922C105.175 121.907 105.244 121.904 105.312 121.915C105.444 121.934 105.565 122.003 105.646 122.11C105.728 122.216 105.764 122.351 105.747 122.484Z" fill="#263238"/>
<path d="M105.793 122.018C105.716 122.07 105.363 121.704 104.833 121.588C104.303 121.471 103.821 121.665 103.778 121.588C103.735 121.51 103.842 121.441 104.045 121.351C104.317 121.236 104.618 121.208 104.906 121.269C105.194 121.329 105.456 121.48 105.651 121.7C105.798 121.863 105.828 121.997 105.793 122.018Z" fill="#263238"/>
<path d="M106.944 126.523C107.254 126.493 107.566 126.501 107.874 126.549C108.016 126.549 108.158 126.549 108.201 126.472C108.243 126.331 108.243 126.181 108.201 126.041C108.141 125.675 108.076 125.287 108.008 124.882C107.809 123.889 107.691 122.88 107.654 121.868C107.932 122.838 108.131 123.829 108.249 124.831C108.309 125.236 108.369 125.623 108.425 125.993C108.476 126.182 108.461 126.383 108.382 126.562C108.351 126.607 108.31 126.644 108.262 126.671C108.214 126.698 108.161 126.713 108.107 126.717C108.025 126.729 107.943 126.729 107.861 126.717C107.549 126.69 107.241 126.625 106.944 126.523Z" fill="#263238"/>
<path d="M105.97 133.125C104.083 132.764 102.333 131.886 100.914 130.589C100.914 130.589 101.647 133.604 105.721 134.06L105.97 133.125Z" fill="#EB996E"/>
<path d="M105.242 126.566C105.333 126.566 105.212 127.178 105.634 127.712C106.056 128.246 106.711 128.306 106.698 128.392C106.685 128.478 106.53 128.478 106.267 128.431C105.917 128.363 105.601 128.174 105.376 127.897C105.159 127.629 105.054 127.288 105.083 126.945C105.104 126.691 105.204 126.553 105.242 126.566Z" fill="#263238"/>
<path d="M106.384 119.887C106.298 120.024 105.764 119.839 105.092 119.783C104.42 119.727 103.869 119.783 103.8 119.641C103.778 119.572 103.899 119.447 104.14 119.348C104.456 119.223 104.797 119.177 105.135 119.215C105.475 119.242 105.803 119.352 106.091 119.533C106.328 119.68 106.423 119.822 106.384 119.887Z" fill="#263238"/>
<path d="M111.362 121.403C111.238 121.51 110.889 121.299 110.432 121.2C109.976 121.101 109.571 121.105 109.511 120.959C109.485 120.886 109.571 120.774 109.765 120.692C110.02 120.592 110.3 120.575 110.566 120.645C110.834 120.703 111.077 120.844 111.259 121.049C111.393 121.213 111.418 121.351 111.362 121.403Z" fill="#263238"/>
<path d="M116.509 116.919C116.577 116.593 116.538 116.253 116.397 115.95C116.342 115.682 116.188 115.444 115.966 115.283C115.683 115.19 115.376 115.207 115.105 115.33C114.127 115.615 112.952 115.567 112.258 114.805C111.728 114.211 111.625 113.298 111.009 112.794C110.393 112.29 109.338 112.389 108.507 112.656C107.676 112.923 106.784 113.28 105.953 113.031C105.376 112.781 104.841 112.442 104.368 112.027C103.419 111.36 102.243 111.096 101.1 111.295C100.536 111.404 100.006 111.647 99.5566 112.004C99.1068 112.36 98.7497 112.821 98.5156 113.345C98.2956 113.876 98.2323 114.459 98.333 115.026C98.4338 115.592 98.6943 116.118 99.084 116.54C99.1228 116.592 99.1616 116.64 99.2046 116.687C98.8084 118.763 98.3433 122.07 99.2735 122.32C100.647 122.69 101.138 119.168 101.138 119.168C102.995 118.939 103.412 117.122 103.933 116.842C104.454 116.562 106.453 117.363 108.081 118.565C110.101 120.055 113.615 120.287 114.842 120.317C114.95 120.328 115.058 120.328 115.165 120.317H115.281C115.363 120.301 115.442 120.276 115.518 120.244C115.901 120.007 116.181 119.635 116.302 119.202C116.476 118.84 116.555 118.44 116.53 118.039C116.511 117.893 116.458 117.753 116.377 117.63C116.296 117.507 116.188 117.404 116.061 117.329C116.164 117.304 116.26 117.254 116.338 117.182C116.416 117.11 116.475 117.02 116.509 116.919Z" fill="#263238"/>
<path d="M114.114 117.742C114.148 117.67 114.202 117.609 114.269 117.565C114.363 117.496 114.472 117.45 114.587 117.43C114.702 117.411 114.821 117.419 114.932 117.454C115.112 117.519 115.26 117.65 115.347 117.82C115.434 117.99 115.453 118.187 115.402 118.371C115.367 118.487 115.304 118.592 115.22 118.679C115.135 118.765 115.03 118.829 114.915 118.866C114.664 118.952 114.391 118.952 114.14 118.866C113.589 118.685 113.278 118.108 113.046 117.574C112.94 117.278 112.812 116.99 112.663 116.713C112.517 116.432 112.296 116.196 112.025 116.032C111.88 115.96 111.722 115.918 111.56 115.908C111.398 115.897 111.235 115.919 111.082 115.972C110.75 116.062 110.419 116.226 110.053 116.338C109.674 116.459 109.271 116.481 108.881 116.403C108.487 116.318 108.11 116.163 107.77 115.946C107.123 115.514 106.535 114.998 106.022 114.413C105.552 113.888 105.003 113.441 104.394 113.087C103.834 112.793 103.19 112.705 102.572 112.837C101.905 112.972 101.314 113.355 100.918 113.909C100.522 114.463 100.351 115.146 100.44 115.821C100.482 116.115 100.553 116.403 100.651 116.683C100.604 116.619 100.565 116.55 100.535 116.476C100.446 116.27 100.385 116.052 100.354 115.83C100.291 115.416 100.32 114.993 100.439 114.592C100.558 114.191 100.764 113.821 101.043 113.509C101.473 113.047 102.043 112.738 102.665 112.629C103.287 112.52 103.927 112.617 104.488 112.906C105.124 113.262 105.697 113.718 106.185 114.258C106.693 114.829 107.272 115.333 107.908 115.757C108.226 115.959 108.578 116.105 108.946 116.187C109.3 116.258 109.665 116.239 110.01 116.131C110.358 116.028 110.69 115.864 111.048 115.77C111.227 115.711 111.417 115.688 111.605 115.703C111.794 115.717 111.977 115.769 112.146 115.856C112.8 116.243 113.007 116.95 113.24 117.492C113.472 118.035 113.748 118.565 114.217 118.724C114.433 118.805 114.668 118.814 114.889 118.75C114.988 118.725 115.079 118.675 115.155 118.606C115.23 118.537 115.287 118.45 115.32 118.354C115.367 118.197 115.354 118.028 115.284 117.88C115.214 117.733 115.092 117.616 114.941 117.553C114.84 117.518 114.734 117.506 114.628 117.518C114.522 117.529 114.42 117.563 114.329 117.617C114.166 117.677 114.123 117.751 114.114 117.742Z" fill="#455A64"/>
<path d="M115.694 118.517C115.685 118.575 115.667 118.63 115.638 118.681C115.567 118.833 115.47 118.972 115.35 119.09C115.158 119.281 114.919 119.418 114.656 119.486C114.304 119.577 113.932 119.543 113.601 119.391C113.223 119.181 112.907 118.875 112.684 118.504C112.559 118.322 112.405 118.162 112.227 118.03C112.136 117.968 112.032 117.925 111.923 117.904C111.814 117.884 111.702 117.886 111.594 117.91C111.348 117.969 111.108 118.048 110.875 118.147C110.61 118.242 110.33 118.29 110.048 118.289C109.461 118.28 108.884 118.133 108.364 117.858C107.301 117.303 106.508 116.493 105.655 115.985C104.936 115.474 104.047 115.263 103.175 115.395C102.889 115.461 102.621 115.589 102.389 115.769C102.157 115.949 101.967 116.177 101.831 116.437C101.748 116.638 101.693 116.85 101.667 117.066C101.657 117.007 101.657 116.948 101.667 116.889C101.671 116.721 101.706 116.554 101.771 116.398C101.899 116.114 102.09 115.862 102.329 115.662C102.569 115.462 102.851 115.319 103.153 115.244C103.607 115.16 104.072 115.167 104.523 115.263C104.974 115.36 105.401 115.545 105.78 115.808C106.668 116.329 107.464 117.13 108.481 117.656C108.967 117.919 109.508 118.066 110.061 118.086C110.321 118.089 110.578 118.047 110.823 117.962C111.068 117.862 111.32 117.781 111.577 117.72C111.711 117.694 111.848 117.695 111.981 117.724C112.114 117.752 112.241 117.806 112.352 117.884C112.547 118.03 112.716 118.208 112.852 118.409C113.049 118.765 113.338 119.063 113.687 119.271C113.983 119.42 114.32 119.462 114.643 119.391C114.89 119.335 115.118 119.218 115.307 119.051C115.459 118.891 115.589 118.711 115.694 118.517Z" fill="#455A64"/>
<path d="M99.6268 120.903C99.5751 120.864 97.4735 119.633 96.9696 121.958C96.4657 124.284 98.9033 124.314 98.9205 124.249C98.9377 124.185 99.6268 120.903 99.6268 120.903Z" fill="#FFBE9D"/>
<path d="M98.4033 123.212C98.4033 123.212 98.356 123.212 98.2828 123.25C98.1769 123.269 98.0678 123.248 97.977 123.19C97.8479 123.062 97.7551 122.902 97.7082 122.727C97.6613 122.551 97.6619 122.366 97.71 122.191C97.7466 121.99 97.8291 121.799 97.9511 121.635C97.9884 121.567 98.0416 121.51 98.1061 121.467C98.1706 121.424 98.2445 121.398 98.3215 121.39C98.3709 121.388 98.4195 121.403 98.4588 121.433C98.4982 121.463 98.5258 121.505 98.5369 121.553C98.5369 121.627 98.5369 121.67 98.5369 121.674C98.5369 121.678 98.5928 121.648 98.5971 121.545C98.5974 121.485 98.576 121.427 98.5369 121.381C98.4832 121.319 98.4075 121.281 98.3258 121.274C98.2267 121.272 98.1288 121.295 98.0413 121.342C97.9539 121.389 97.8798 121.457 97.8262 121.541C97.6833 121.72 97.5858 121.931 97.542 122.156C97.4856 122.361 97.4906 122.578 97.5565 122.78C97.6223 122.983 97.7461 123.161 97.9124 123.293C97.973 123.322 98.0392 123.337 98.1062 123.337C98.1732 123.337 98.2393 123.322 98.3 123.293C98.3861 123.268 98.412 123.22 98.4033 123.212Z" fill="#EB996E"/>
<path d="M137.663 146.14C138.331 146.235 142.607 146.881 143.012 147.2C143.417 147.518 143.408 147.966 142.926 148.061C142.443 148.156 139.743 147.975 139.743 147.975C139.743 147.975 143.227 148.057 143.335 148.406C143.503 148.957 142.263 149.267 139.933 148.897C139.933 148.897 143.486 148.518 143.447 149.392C143.447 149.823 140.251 149.861 140.251 149.861C140.178 150.107 143.451 149.431 143.546 149.956C143.589 150.206 143.141 150.46 141.479 150.693C140.475 150.835 138.817 151.041 137.172 151.261V151.283L135.372 151.537L133.262 146.778C133.425 146.618 134.42 145.994 135.096 145.524C135.517 145.232 136.03 145.102 136.539 145.158C136.799 145.187 137.045 145.293 137.244 145.463C137.444 145.633 137.588 145.858 137.659 146.11L137.663 146.14Z" fill="#FFBE9D"/>
<path d="M142.711 148.173C141.599 148.104 140.49 147.995 139.386 147.846C139.941 147.735 140.511 147.725 141.07 147.816C141.634 147.833 142.19 147.955 142.711 148.173Z" fill="#EB996E"/>
<path d="M142.835 148.948C142.343 149.002 141.846 149.002 141.354 148.948C140.858 148.968 140.361 148.935 139.872 148.849C140.356 148.712 140.862 148.67 141.362 148.724C141.863 148.703 142.363 148.779 142.835 148.948Z" fill="#EB996E"/>
<path d="M142.961 149.736C142.475 149.844 141.98 149.9 141.483 149.904C140.994 149.985 140.497 150.012 140.002 149.986C140.465 149.789 140.963 149.685 141.466 149.68C141.963 149.603 142.471 149.622 142.961 149.736Z" fill="#EB996E"/>
<path d="M149.825 159.004L137.564 157.092C137.422 157.07 137.286 157.021 137.164 156.947C137.041 156.872 136.935 156.775 136.85 156.659C136.766 156.543 136.705 156.412 136.672 156.273C136.638 156.133 136.633 155.989 136.655 155.847L139.239 139.327C139.261 139.185 139.311 139.049 139.386 138.926C139.461 138.803 139.559 138.696 139.675 138.612C139.791 138.527 139.922 138.466 140.062 138.432C140.201 138.398 140.346 138.392 140.488 138.414L149.063 139.749L153.103 145.132L151.074 158.091C151.052 158.233 151.002 158.369 150.928 158.492C150.853 158.615 150.755 158.721 150.639 158.806C150.523 158.891 150.391 158.952 150.252 158.986C150.112 159.02 149.967 159.026 149.825 159.004Z" fill="#FFC100"/>
<path d="M149.055 139.71L148.542 142.996C148.483 143.386 148.58 143.783 148.812 144.101C149.045 144.419 149.394 144.632 149.783 144.693L153.09 145.124L149.055 139.71Z" fill="#FFC100"/>
<g opacity="0.2">
<path d="M149.055 139.71L148.542 142.996C148.483 143.386 148.58 143.783 148.812 144.101C149.045 144.419 149.394 144.632 149.783 144.693L153.09 145.124L149.055 139.71Z" fill="black"/>
</g>
<path d="M148.49 155.451C148.484 155.398 148.484 155.345 148.49 155.292C148.49 155.176 148.524 155.029 148.55 154.861C148.606 154.456 148.684 153.905 148.779 153.212C148.99 151.786 149.282 149.792 149.64 147.398L149.722 147.51L141.354 146.218L141.479 146.127V146.187V146.256V146.394L141.436 146.67C141.405 146.851 141.375 147.032 141.349 147.212L141.182 148.289C141.07 148.995 140.962 149.689 140.854 150.365C140.639 151.713 140.424 152.988 140.251 154.163L140.169 154.051L146.199 155.042L147.921 155.335L148.378 155.417C148.433 155.423 148.488 155.435 148.542 155.451H148.395L147.965 155.391L146.272 155.154L140.169 154.254H140.075V154.155C140.256 152.979 140.449 151.704 140.656 150.352C140.764 149.676 140.871 148.983 140.979 148.276L141.147 147.2C141.173 147.019 141.203 146.838 141.229 146.657L141.272 146.381L141.294 146.243V146.175V146.114L141.423 146.02L149.782 147.312H149.881V147.406C149.485 149.818 149.158 151.829 148.921 153.268C148.804 153.948 148.71 154.491 148.641 154.883C148.611 155.055 148.585 155.193 148.567 155.313C148.548 155.363 148.522 155.409 148.49 155.451Z" fill="white"/>
<path d="M144.218 154.904C144.315 153.549 144.487 152.201 144.734 150.865C144.906 149.517 145.152 148.18 145.471 146.86C145.373 148.215 145.201 149.563 144.954 150.899C144.783 152.247 144.537 153.584 144.218 154.904Z" fill="white"/>
<path d="M148.77 153.475C147.356 153.368 145.948 153.187 144.554 152.932C143.148 152.749 141.752 152.495 140.372 152.17C141.786 152.273 143.194 152.455 144.588 152.712C145.995 152.892 147.39 153.146 148.77 153.475Z" fill="white"/>
<path d="M149.183 151.459C147.771 151.355 146.365 151.174 144.971 150.916C143.565 150.735 142.169 150.48 140.79 150.154C142.204 150.258 143.611 150.44 145.006 150.697C146.411 150.878 147.805 151.133 149.183 151.459Z" fill="white"/>
<path d="M149.441 149.379C148.038 149.272 146.64 149.092 145.255 148.84C143.86 148.663 142.475 148.409 141.108 148.078C142.51 148.185 143.906 148.364 145.29 148.616C146.687 148.793 148.073 149.048 149.441 149.379Z" fill="white"/>
<path d="M102.852 172.376V170.843L124.683 171.291L137.254 151.205L138.408 152.04L125.531 172.575L102.852 172.376Z" fill="#455A64"/>
<path d="M117.955 165.671L119.054 167.303V170.654C118.904 170.692 118.746 170.681 118.602 170.622C118.459 170.564 118.338 170.462 118.257 170.331C118.03 169.676 117.853 169.005 117.727 168.324L117.197 169.698C117.092 169.967 116.892 170.189 116.636 170.322C116.379 170.455 116.083 170.49 115.802 170.421L111.754 169.405L113.407 164.667L117.955 165.671Z" fill="#FFBE9D"/>
<path d="M136.702 145.176L140.423 146.36C140.429 146.448 140.415 146.535 140.383 146.617C140.352 146.699 140.303 146.773 140.24 146.835C140.177 146.896 140.101 146.943 140.019 146.973C139.936 147.002 139.848 147.013 139.76 147.006C139.075 146.98 137.249 146.808 137.249 146.808C137.249 146.808 137.249 148.1 136.173 148.371C136.173 148.371 134.82 146.028 134.881 145.964C134.941 145.899 136.702 145.176 136.702 145.176Z" fill="#FFBE9D"/>
<path d="M136.978 150.094C136.978 150.094 136.922 149.956 136.802 149.745C136.642 149.454 136.393 149.221 136.091 149.082L135.889 148.987L136.1 148.901C136.52 148.73 136.867 148.416 137.077 148.014C137.262 147.671 137.34 147.281 137.301 146.894V146.769H137.426C137.976 146.786 138.522 146.855 139.058 146.976C138.51 147.028 137.958 147.028 137.409 146.976L137.517 146.859C137.577 147.289 137.499 147.727 137.293 148.108C137.058 148.562 136.664 148.912 136.186 149.09V148.909C136.514 149.078 136.772 149.357 136.914 149.698C137.004 149.939 136.995 150.089 136.978 150.094Z" fill="#EB996E"/>
<path d="M95.5999 133.285C95.5999 133.285 90.7205 136.075 88.9117 138.797C87.1029 141.519 83.8901 144.745 81.6463 153.496C79.704 161.136 78.9805 171.498 81.0821 174.357C81.7871 175.387 82.6387 176.309 83.6102 177.092L87.3828 175.546C91.8747 173.94 95.9617 172.902 99.4846 169.689L106.638 163.16L102.839 160.171C102.839 160.171 105.721 144.607 104.954 139.172C104.299 134.417 95.5999 133.285 95.5999 133.285Z" fill="#FFC100"/>
<path d="M93.7305 140.809L89.7339 159.478C89.3965 161.055 89.641 162.702 90.4223 164.113C91.2035 165.524 92.4687 166.605 93.9845 167.157L111.345 170.486L113.498 164.026L99.4196 159.642L103.554 141.605L93.7305 140.809Z" fill="#FFC100"/>
<path d="M89.5877 163.027L89.6135 163.139C89.6307 163.216 89.6523 163.324 89.6781 163.462L89.7255 163.698L89.8288 163.978L89.9451 164.301C90.0054 164.409 90.07 164.525 90.1346 164.65C90.4861 165.243 90.9658 165.749 91.5386 166.132C92.3157 166.651 93.1791 167.027 94.0881 167.243L111.259 170.387L111.143 170.451C111.862 168.401 112.615 166.235 113.404 163.991L113.477 164.133L99.394 159.736L99.2863 159.702L99.3165 159.59C99.5576 158.629 99.8203 157.6 100.087 156.575C100.906 153.306 101.672 150.115 102.34 147.001C102.667 145.447 102.977 143.918 103.201 142.406C103.261 142.032 103.261 141.657 103.296 141.286C103.294 140.92 103.252 140.555 103.171 140.197C103.007 139.491 102.678 138.834 102.211 138.28C101.757 137.75 101.192 137.327 100.555 137.043C99.918 136.758 99.2257 136.619 98.5283 136.635C97.8715 136.673 97.2294 136.846 96.642 137.142C96.0545 137.439 95.5342 137.852 95.1131 138.358C94.3073 139.307 93.7074 140.412 93.3517 141.605C93.0177 142.708 92.7516 143.829 92.555 144.964C91.6936 149.293 91.0089 152.798 90.5265 155.232L89.9667 158.018C89.9021 158.332 89.8504 158.574 89.8116 158.746C89.7729 158.918 89.7556 158.991 89.7556 158.991C89.7622 158.907 89.7737 158.824 89.7901 158.741C89.8202 158.565 89.8633 158.311 89.9193 158.009C90.0399 157.363 90.2121 156.42 90.4361 155.214C90.8969 152.777 91.5644 149.267 92.387 144.934C92.5794 143.791 92.8426 142.66 93.1751 141.549C93.5349 140.331 94.1434 139.2 94.9624 138.229C95.4002 137.699 95.9424 137.265 96.5551 136.954C97.1678 136.643 97.838 136.461 98.524 136.42C99.2542 136.402 99.9792 136.547 100.646 136.845C101.313 137.143 101.905 137.587 102.378 138.143C102.87 138.722 103.217 139.41 103.391 140.15C103.477 140.524 103.52 140.907 103.52 141.291C103.49 141.674 103.49 142.066 103.425 142.445C103.214 143.965 102.904 145.498 102.564 147.053C101.896 150.167 101.117 153.35 100.311 156.627C100.044 157.665 99.7816 158.694 99.5361 159.642L99.4586 159.499L113.541 163.901L113.649 163.935L113.615 164.043L111.341 170.503L111.311 170.585H111.224C104.118 169.254 98.201 168.169 94.058 167.355C93.1347 167.129 92.2595 166.74 91.474 166.205C90.8959 165.809 90.4158 165.286 90.07 164.676C90.0011 164.551 89.9408 164.431 89.8805 164.319L89.7685 163.987L89.6738 163.707C89.6738 163.618 89.6609 163.536 89.635 163.462L89.5834 163.134C89.5803 163.098 89.5817 163.062 89.5877 163.027Z" fill="#263238"/>
<path d="M96.9992 162.066C96.9733 162.066 96.9475 161.847 97.0379 161.511C97.1603 161.068 97.4016 160.668 97.7356 160.352C98.0643 160.032 98.4735 159.805 98.9199 159.698C99.2645 159.625 99.4798 159.659 99.4798 159.698C99.4798 159.736 99.2731 159.767 98.9673 159.874C98.5694 160.018 98.2062 160.243 97.9013 160.537C97.5963 160.83 97.3565 161.184 97.1973 161.575C97.0724 161.864 97.0379 162.071 96.9992 162.066Z" fill="#263238"/>
<g opacity="0.2">
<path d="M93.3216 140.559C91.3005 147.058 89.9003 153.735 89.1398 160.499C88.8818 162.049 88.8513 163.629 89.0494 165.189C89.3164 166.739 90.0787 168.263 91.3965 169.116C92.6764 169.864 94.1933 170.097 95.6386 169.767C97.0813 169.491 99.4112 169.172 100.733 168.548L92.9814 166.946C92.9814 166.946 87.9727 166.636 90.126 157.04C92.2794 147.445 93.3216 140.559 93.3216 140.559Z" fill="black"/>
</g>
<path d="M102.839 160.171C102.844 159.923 102.872 159.675 102.921 159.431C102.994 158.918 103.089 158.238 103.205 157.415C103.455 155.692 103.795 153.345 104.166 150.766C104.536 148.186 104.855 145.817 105.07 144.112L105.324 142.092C105.339 141.844 105.377 141.597 105.436 141.355C105.445 141.604 105.436 141.853 105.41 142.101C105.376 142.583 105.315 143.276 105.225 144.129C105.048 145.852 104.756 148.199 104.385 150.8C104.015 153.401 103.653 155.744 103.364 157.437C103.218 158.298 103.097 158.97 103.007 159.444C102.971 159.69 102.915 159.934 102.839 160.171Z" fill="#263238"/>
<path d="M102.593 146.588C102.593 146.622 102.038 146.411 101.151 146.136C98.8344 145.408 96.4165 145.054 93.9887 145.089C93.0584 145.089 92.4814 145.15 92.4771 145.111C92.6065 145.067 92.7412 145.041 92.8776 145.033C93.136 144.995 93.515 144.956 93.9844 144.93C96.4363 144.805 98.8889 145.163 101.202 145.985C101.633 146.144 101.995 146.287 102.232 146.416C102.359 146.457 102.481 146.515 102.593 146.588Z" fill="#FAFAFA"/>
<path d="M102.129 148.509C102.129 148.543 101.569 148.328 100.664 148.078C98.3058 147.379 95.84 147.112 93.3862 147.29C92.4473 147.359 91.8659 147.449 91.8616 147.411C91.9898 147.357 92.1245 147.321 92.2622 147.303C92.5206 147.247 92.8995 147.187 93.3733 147.135C94.607 147 95.8519 147 97.0856 147.135C98.319 147.27 99.5345 147.536 100.712 147.928C101.164 148.083 101.522 148.225 101.763 148.332C102.004 148.44 102.137 148.492 102.129 148.509Z" fill="#FAFAFA"/>
<path d="M108.279 134.753C108.28 134.48 108.198 134.213 108.044 133.987C107.891 133.76 107.672 133.586 107.417 133.487C106.945 133.379 106.455 133.379 105.983 133.487C104.268 133.658 102.547 133.242 101.099 132.307C99.8073 131.446 98.7522 130.21 97.318 129.624C96.9517 129.46 96.5518 129.385 96.1509 129.404C95.95 129.416 95.7544 129.473 95.5789 129.571C95.4035 129.67 95.253 129.807 95.1389 129.973C94.79 130.52 95.0226 131.265 95.4231 131.777C94.6522 132.169 94.256 133.181 94.7513 133.892C98.2779 134.381 101.471 136.237 103.64 139.06C103.968 139.591 104.409 140.043 104.932 140.382C105.953 140.908 107.305 140.283 107.792 139.245C108.001 138.71 108.071 138.131 107.996 137.562C107.921 136.992 107.702 136.451 107.361 135.989C107.622 135.901 107.849 135.735 108.013 135.515C108.177 135.294 108.269 135.028 108.279 134.753Z" fill="#455A64"/>
<path d="M107.25 135.886C107.121 135.986 106.975 136.062 106.819 136.11C106.421 136.274 106.002 136.384 105.574 136.437C104.936 136.518 104.287 136.48 103.662 136.325C102.902 136.118 102.187 135.769 101.556 135.296C100.88 134.809 100.295 134.284 99.7476 133.836C99.2696 133.431 98.7597 133.065 98.223 132.742C97.7179 132.463 97.1835 132.241 96.6295 132.079C96.7882 132.074 96.9467 132.094 97.0989 132.139C97.5186 132.239 97.9228 132.396 98.3005 132.604C98.8568 132.912 99.3843 133.27 99.8767 133.672C100.437 134.103 101.022 134.637 101.686 135.111C102.294 135.57 102.982 135.913 103.714 136.123C104.314 136.284 104.939 136.336 105.557 136.278C106.134 136.21 106.702 136.078 107.25 135.886Z" fill="#263238"/>
<path d="M105.639 140.619C105.742 140.588 105.843 140.549 105.94 140.503C106.202 140.363 106.417 140.151 106.56 139.891C106.772 139.506 106.863 139.067 106.823 138.629C106.786 138.093 106.683 137.564 106.517 137.053C106.471 136.906 106.385 136.774 106.27 136.67C106.155 136.567 106.014 136.497 105.863 136.467H105.785L105.854 136.386C106.118 136.056 106.269 135.649 106.285 135.227C106.294 134.893 106.217 134.562 106.061 134.267C105.916 134.001 105.722 133.765 105.488 133.573C105.559 133.613 105.625 133.661 105.686 133.715C105.858 133.865 106.004 134.042 106.117 134.241C106.287 134.541 106.374 134.882 106.371 135.227C106.361 135.668 106.21 136.093 105.94 136.441L105.854 136.386C106.023 136.415 106.18 136.491 106.308 136.604C106.437 136.717 106.531 136.864 106.582 137.027C106.755 137.548 106.859 138.09 106.892 138.638C106.926 139.088 106.824 139.538 106.599 139.93C106.445 140.193 106.215 140.405 105.94 140.537C105.845 140.582 105.743 140.61 105.639 140.619Z" fill="#FAFAFA"/>
<path d="M103.042 133.203C103.251 133.404 103.416 133.646 103.528 133.913C103.821 134.561 103.864 135.295 103.649 135.972L103.58 136.157V136.119C103.738 136.41 103.833 136.732 103.859 137.063C103.885 137.394 103.841 137.726 103.731 138.039C103.649 138.297 103.509 138.533 103.321 138.728C103.463 138.506 103.58 138.27 103.67 138.022C103.769 137.717 103.805 137.396 103.777 137.077C103.748 136.758 103.654 136.448 103.502 136.166V136.144V136.123L103.567 135.946C103.774 135.288 103.742 134.577 103.476 133.939C103.358 133.679 103.212 133.432 103.042 133.203Z" fill="#FAFAFA"/>
<path d="M101.233 132.299C101.267 132.338 101.295 132.383 101.315 132.432C101.378 132.563 101.425 132.7 101.457 132.841C101.558 133.314 101.497 133.807 101.285 134.241C101.211 134.395 101.118 134.54 101.009 134.672V134.646C100.992 134.83 100.938 135.009 100.85 135.172C100.762 135.335 100.642 135.478 100.496 135.593C100.413 135.662 100.321 135.717 100.221 135.757C100.188 135.776 100.151 135.788 100.113 135.791C100.234 135.719 100.351 135.64 100.462 135.554C100.725 135.319 100.89 134.993 100.923 134.641C101.024 134.517 101.112 134.383 101.186 134.241C101.389 133.823 101.455 133.351 101.375 132.893C101.341 132.692 101.293 132.493 101.233 132.299Z" fill="#FAFAFA"/>
<path d="M98.8942 130.619C98.7253 130.76 98.5735 130.921 98.442 131.097C98.2926 131.313 98.1895 131.558 98.1391 131.816C98.0887 132.074 98.0921 132.339 98.1491 132.596V132.682V132.725H98.106C97.8615 132.784 97.6388 132.912 97.4635 133.092C97.2883 133.273 97.1676 133.499 97.1155 133.746C97.0817 133.952 97.0817 134.163 97.1155 134.37C97.0886 134.319 97.0711 134.264 97.0638 134.206C97.0346 134.05 97.0346 133.889 97.0638 133.733C97.1102 133.47 97.2323 133.226 97.4151 133.032C97.598 132.838 97.8336 132.701 98.0931 132.639L98.063 132.695L98.0371 132.604C97.9779 132.336 97.9768 132.058 98.034 131.789C98.0912 131.52 98.2054 131.266 98.3688 131.045C98.468 130.913 98.5855 130.796 98.7176 130.696C98.7719 130.661 98.8315 130.635 98.8942 130.619Z" fill="#FAFAFA"/>
<path d="M95.281 133.957C95.2232 133.914 95.1748 133.86 95.1389 133.797C95.0327 133.634 94.9609 133.451 94.9279 133.259C94.8793 132.965 94.926 132.663 95.0614 132.398C95.2308 132.073 95.5171 131.825 95.8624 131.704L95.8409 131.773L95.772 131.674C95.5671 131.352 95.4917 130.964 95.561 130.589C95.6176 130.288 95.7684 130.014 95.9916 129.805C96.1411 129.663 96.3207 129.557 96.517 129.495C96.5875 129.468 96.6615 129.452 96.7367 129.448C96.4755 129.526 96.2356 129.663 96.0347 129.848C95.8281 130.055 95.6886 130.319 95.6342 130.606C95.5739 130.959 95.6476 131.321 95.8409 131.622C95.8599 131.656 95.8815 131.687 95.9055 131.717L95.9399 131.769H95.884C95.5592 131.881 95.2886 132.112 95.126 132.415C94.9927 132.661 94.9428 132.943 94.9839 133.22C95.0194 133.487 95.1216 133.74 95.281 133.957Z" fill="#FAFAFA"/>
<path d="M42.0252 166.265C42.8688 164.064 43.9704 161.971 45.3068 160.029C45.7095 159.338 46.3094 158.784 47.0295 158.436C48.2655 157.966 49.6135 158.724 50.7074 159.452L53.2656 161.136C53.3459 161.175 53.4174 161.23 53.4759 161.297C53.5344 161.365 53.5786 161.443 53.6058 161.528C53.6489 161.847 53.257 162.028 52.9383 162.066C51.8461 162.192 50.7454 161.92 49.8375 161.3C49.1484 160.826 48.4766 160.124 47.6454 160.21C46.6161 160.318 46.1553 161.502 45.7547 162.475C44.8814 164.554 43.3423 166.284 41.3792 167.394" fill="#FFC100"/>
<path d="M42.0205 166.688C42.2186 161.567 42.421 156.408 43.6441 151.438C44.8672 146.468 47.2101 141.631 51.0602 138.255C50.552 142.562 48.9844 146.674 47.434 150.744C45.341 156.199 43.2494 161.655 41.1592 167.11" fill="#FFC100"/>
<path d="M41.1285 168.548C40.4034 163.887 39.1014 159.334 37.2525 154.995C37.0424 154.331 36.6297 153.75 36.0724 153.332C35.2111 152.807 34.0741 153.151 33.1396 153.569C30.9176 154.564 28.8611 155.893 27.0413 157.51C26.8835 157.622 26.7682 157.785 26.714 157.971C26.7068 158.114 26.751 158.255 26.8387 158.369C26.9263 158.483 27.0516 158.561 27.1921 158.591C27.4789 158.647 27.7753 158.629 28.0534 158.539L33.1697 157.355C33.6762 157.184 34.2223 157.169 34.7374 157.312C35.336 157.549 35.6719 158.173 35.9605 158.754L40.9863 168.884" fill="#FFC100"/>
<g opacity="0.4">
<path d="M42.0252 166.265C42.8688 164.064 43.9704 161.971 45.3068 160.029C45.7095 159.338 46.3094 158.784 47.0295 158.436C48.2655 157.966 49.6135 158.724 50.7074 159.452L53.2656 161.136C53.3459 161.175 53.4174 161.23 53.4759 161.297C53.5344 161.365 53.5786 161.443 53.6058 161.528C53.6489 161.847 53.257 162.028 52.9383 162.066C51.8461 162.192 50.7454 161.92 49.8375 161.3C49.1484 160.826 48.4766 160.124 47.6454 160.21C46.6161 160.318 46.1553 161.502 45.7547 162.475C44.8814 164.554 43.3423 166.284 41.3792 167.394" fill="black"/>
</g>
<g opacity="0.4">
<path d="M42.0205 166.688C42.2186 161.567 42.421 156.408 43.6441 151.438C44.8672 146.468 47.2101 141.631 51.0602 138.255C50.552 142.562 48.9844 146.674 47.434 150.744C45.341 156.199 43.2494 161.655 41.1592 167.11" fill="black"/>
</g>
<g opacity="0.3">
<path d="M41.1285 168.548C40.4034 163.887 39.1014 159.334 37.2525 154.995C37.0424 154.331 36.6297 153.75 36.0724 153.332C35.2111 152.807 34.0741 153.151 33.1396 153.569C30.9176 154.564 28.8611 155.893 27.0413 157.51C26.8835 157.622 26.7682 157.785 26.714 157.971C26.7068 158.114 26.751 158.255 26.8387 158.369C26.9263 158.483 27.0516 158.561 27.1921 158.591C27.4789 158.647 27.7753 158.629 28.0534 158.539L33.1697 157.355C33.6762 157.184 34.2223 157.169 34.7374 157.312C35.336 157.549 35.6719 158.173 35.9605 158.754L40.9863 168.884" fill="black"/>
</g>
<path d="M48.9024 129.96C44.6292 135.033 42.1269 141.36 41.7748 147.983C41.2925 158.879 40.6508 166.73 40.6508 166.73H41.8523C41.8523 166.73 44.2554 144.766 45.8575 140.933C47.4596 137.1 49.9446 131.648 48.9024 129.96Z" fill="#FFC100"/>
<path d="M48.9025 129.96C48.8642 130.081 48.8137 130.198 48.7517 130.309L48.2909 131.291C47.8947 132.152 47.3434 133.392 46.7319 134.96C46.1203 136.528 45.4399 138.405 44.8111 140.559C44.1045 142.862 43.545 145.208 43.1358 147.583C42.9205 148.845 42.8214 150.094 42.731 151.304C42.6406 152.514 42.5673 153.681 42.5027 154.792C42.3735 157.019 42.2357 159.026 42.0505 160.701C41.8653 162.376 41.65 163.716 41.4605 164.655C41.3744 165.12 41.2839 165.473 41.228 165.718C41.2073 165.842 41.1741 165.963 41.1289 166.08C41.1378 165.954 41.1565 165.829 41.1849 165.705C41.228 165.464 41.3012 165.107 41.3787 164.637C41.538 163.711 41.7361 162.363 41.8955 160.684C42.0548 159.004 42.1754 157.006 42.296 154.779C42.3563 153.668 42.4209 152.497 42.5113 151.287C42.5837 150.033 42.7188 148.784 42.9162 147.544C43.3241 145.156 43.8909 142.798 44.613 140.485C45.2633 138.332 45.9524 136.459 46.5855 134.887C47.2185 133.315 47.7913 132.079 48.2134 131.235C48.4201 130.804 48.5967 130.49 48.713 130.27C48.77 130.163 48.8333 130.06 48.9025 129.96Z" fill="#263238"/>
<path d="M53.3685 140.163C53.3685 140.163 45.2547 147.915 44.3245 155.236C43.3942 162.557 42.9765 166.438 42.9765 166.438H43.7775C43.7775 166.438 45.6811 156.024 48.1445 152.751C50.6079 149.478 53.9327 141.041 53.3685 140.163Z" fill="#FFC100"/>
<path d="M53.2739 140.667C53.2413 140.752 53.201 140.834 53.1533 140.912L52.7743 141.597L51.3617 144.099C50.1731 146.209 48.5279 149.138 47.055 152.518C45.7599 155.399 44.7865 158.413 44.1523 161.507C43.9198 162.695 43.7863 163.66 43.7217 164.34C43.6786 164.676 43.6614 164.939 43.6355 165.116C43.6305 165.207 43.6175 165.298 43.5968 165.387C43.5864 165.295 43.5864 165.203 43.5968 165.111C43.5968 164.935 43.5968 164.681 43.6355 164.332C43.7083 163.374 43.8319 162.421 44.0059 161.476C44.5972 158.36 45.5542 155.324 46.8569 152.432C48.1607 149.548 49.6273 146.74 51.2497 144.021C51.8613 142.975 52.3695 142.135 52.7269 141.558L53.1576 140.895C53.188 140.815 53.227 140.738 53.2739 140.667Z" fill="#263238"/>
<path d="M37.6874 141.523C37.6874 141.523 36.4858 156.825 39.2895 165.955H40.2499C40.2499 165.955 40.8916 146.17 37.6874 141.523Z" fill="#FFC100"/>
<path d="M38.351 144.418C38.3752 144.487 38.3883 144.56 38.3898 144.633L38.4544 145.253C38.506 145.826 38.575 146.597 38.6568 147.536C38.8118 149.465 39.0185 152.131 39.2296 155.072C39.4406 158.014 39.6172 160.671 39.7335 162.618C39.7894 163.561 39.8325 164.34 39.8626 164.909C39.8626 165.154 39.8626 165.34 39.8626 165.529C39.8729 165.602 39.8729 165.676 39.8626 165.749C39.8391 165.679 39.826 165.607 39.8239 165.533L39.7593 164.913C39.7076 164.34 39.643 163.57 39.5612 162.631C39.4018 160.701 39.1994 158.035 38.9884 155.09C38.7774 152.144 38.5965 149.491 38.4802 147.544C38.4285 146.606 38.3855 145.822 38.351 145.258C38.351 145.008 38.351 144.801 38.351 144.633C38.3434 144.561 38.3434 144.489 38.351 144.418Z" fill="#263238"/>
<path d="M35.78 165.068C35.78 165.068 38.7215 167.183 38.5707 168.165C38.42 169.147 31.3484 174.427 31.7791 178.591C32.2098 182.756 35.6293 185.611 41.439 185.383C47.2487 185.154 51.1764 181.533 50.6466 177.837C50.1169 174.142 44.3503 168.255 44.2685 167.967C44.079 167.153 46.8525 165.068 46.8525 165.068H35.78Z" fill="#263238"/>
<path d="M46.3572 170.434C46.3572 170.495 44.2038 170.546 41.5724 170.546C38.9411 170.546 36.7877 170.495 36.7877 170.434C36.7877 170.374 38.9411 170.322 41.5724 170.322C44.2038 170.322 46.3572 170.37 46.3572 170.434Z" fill="#FAFAFA"/>
<path d="M47.0334 171.438C47.0334 171.498 44.5097 171.55 41.396 171.55C38.2822 171.55 35.7542 171.498 35.7542 171.438C35.7542 171.377 38.2822 171.326 41.396 171.326C44.5097 171.326 47.0334 171.377 47.0334 171.438Z" fill="#FAFAFA"/>
<path d="M48.0498 172.562C48.0498 172.622 45.0696 172.674 41.3874 172.674C37.7052 172.674 34.725 172.622 34.725 172.562C34.725 172.502 37.7095 172.45 41.3874 172.45C45.0653 172.45 48.0498 172.489 48.0498 172.562Z" fill="#FAFAFA"/>
<path d="M48.9498 174.03C48.9498 174.09 45.5045 174.142 41.271 174.142C37.0375 174.142 33.5879 174.09 33.5879 174.03C33.5879 173.97 37.0332 173.918 41.271 173.918C45.5088 173.918 48.9498 173.966 48.9498 174.03Z" fill="#FAFAFA"/>
</g>
<defs>
<clipPath id="clip0_172_2783">
<rect width="200" height="200" fill="white"/>
</clipPath>
</defs>
</svg>
