<svg width="210" height="210" viewBox="0 0 210 210" fill="none" xmlns="http://www.w3.org/2000/svg">
<g clip-path="url(#clip0_171_19937)">
<path d="M18.4186 194.885L18.6768 195H201.312C202.589 193.799 203.39 191.828 204.045 189.934C212.129 166.451 211.799 135.224 204.171 109.165C200.787 97.6184 195.97 87.0933 189.817 78.7221C179.006 64.0343 163.737 56.0343 148.434 51.0759C131.338 45.5359 112.945 43.3475 96.2666 50.6627C79.5883 57.9779 66.3995 73.7905 50.556 83.2635C43.2168 87.6518 35.3731 89.2319 28.3343 94.791C21.3868 100.269 15.4998 107.676 11.1124 116.457C10.5899 117.511 10.0894 118.581 9.61097 119.667C2.11264 136.964 0.908464 158.516 6.43086 176.995C8.69207 184.555 12.4608 192.085 18.4186 194.885Z" fill="#FFC100"/>
<path opacity="0.7" d="M18.4186 194.885L18.6768 195H201.312C202.589 193.799 203.39 191.828 204.045 189.934C212.129 166.451 211.799 135.224 204.171 109.165C200.787 97.6184 195.97 87.0933 189.817 78.7221C179.006 64.0343 163.737 56.0343 148.434 51.0759C131.338 45.5359 112.945 43.3475 96.2666 50.6627C79.5883 57.9779 66.3995 73.7905 50.556 83.2635C43.2168 87.6518 35.3731 89.2319 28.3343 94.791C21.3868 100.269 15.4998 107.676 11.1124 116.457C10.5899 117.511 10.0894 118.581 9.61097 119.667C2.11264 136.964 0.908464 158.516 6.43086 176.995C8.69207 184.555 12.4608 192.085 18.4186 194.885Z" fill="white"/>
<g opacity="0.3">
<path d="M168.033 81.4655C174.37 81.4655 180.447 83.9826 184.927 88.4632C189.408 92.9438 191.925 99.0208 191.925 105.357V191.294H144.138V105.357C144.138 99.0208 146.655 92.9438 151.136 88.4632C155.617 83.9826 161.694 81.4655 168.03 81.4655H168.033Z" stroke="black" stroke-linecap="round" stroke-linejoin="round"/>
<path d="M149.534 191.036V106.129C149.534 101.223 151.483 96.5178 154.952 93.0487C158.421 89.5796 163.127 87.6306 168.033 87.6306C172.938 87.6314 177.643 89.5807 181.111 93.0498C184.58 96.5188 186.528 101.224 186.528 106.129V191.036" stroke="black" stroke-linecap="round" stroke-linejoin="round"/>
<path d="M168.033 81.4655V191.165" stroke="black" stroke-linecap="round" stroke-linejoin="round"/>
<path d="M144.396 102.598H191.603" stroke="black" stroke-linecap="round" stroke-linejoin="round"/>
<path d="M144.396 117.499H191.603" stroke="black" stroke-linecap="round" stroke-linejoin="round"/>
<path d="M144.396 132.399H191.603" stroke="black" stroke-linecap="round" stroke-linejoin="round"/>
<path d="M144.396 147.297H191.603" stroke="black" stroke-linecap="round" stroke-linejoin="round"/>
<path d="M144.396 162.198H191.603" stroke="black" stroke-linecap="round" stroke-linejoin="round"/>
<path d="M144.396 177.099H191.603" stroke="black" stroke-linecap="round" stroke-linejoin="round"/>
<path d="M150.708 88.9219L154.988 92.8198" stroke="black" stroke-linecap="round" stroke-linejoin="round"/>
<path d="M185.177 88.9219L180.895 92.8198" stroke="black" stroke-linecap="round" stroke-linejoin="round"/>
</g>
<path d="M136.564 103.787C141.089 101.053 145.305 96.6356 145.305 96.6356C145.305 96.6356 142.1 97.6494 138.211 99.1177C143.358 94.6835 148 87.9354 148 87.9354C148 87.9354 144.12 90.1483 139.559 93.0848C141.843 89.9904 143.954 86.6558 145.875 83.11C145.875 83.11 140.363 87.5273 134.986 92.5043C138.818 86.1643 141.71 77.7797 141.71 77.7797C141.71 77.7797 136.765 83.6106 132.135 89.8664C135.256 82.4621 137.083 72.6387 137.083 72.6387C137.083 72.6387 133.419 79.0418 129.911 86.0465C131.772 78.213 132.249 69.0837 132.249 69.0837C132.249 69.0837 129.74 75.6173 127.292 82.9459C128.009 75.1461 127.46 66.9592 127.46 66.9592C127.46 66.9592 125.842 73.64 124.33 81.2C124.114 76.0735 123.564 70.9856 122.685 66C122.685 66 121.467 76.0969 120.852 85.6131C119.952 76.7279 116.234 66.387 116.234 66.387C116.234 66.387 116.462 73.1982 117.005 80.855C115.507 76.3141 113.726 71.9681 111.681 67.8679C111.681 67.8679 112.678 74.6875 114.082 82.2265C112.071 77.9943 109.793 74.025 107.273 70.3669C107.273 70.3669 109.812 79.8285 112.675 88.4319C108.708 81.4356 101.872 75.205 101.872 75.205C101.872 75.205 104.873 81.7006 108.342 88.3898C103.753 83.5517 98.1029 80.1146 98.1029 80.1146C98.1029 80.1146 102.034 86.1474 106.418 92.0836C101.194 88.2636 94.829 86.1559 94.829 86.1559C94.829 86.1559 99.5162 91.2043 104.615 95.975C98.9641 93.4719 92.3504 92.9712 92.3504 92.9712C92.3504 92.9712 96.4224 95.9162 101.236 98.962C97.8317 98.5285 94.4077 98.4976 91 98.8695C91 98.8695 97.3407 101.92 103.672 104.276C100.862 104.545 98.0726 105.144 95.3331 106.063C95.3331 106.063 97.4637 106.581 100.374 107.157C98.6593 107.693 96.9647 108.35 95.2971 109.126C95.2971 109.126 101.65 109.896 107.432 109.938C108.053 109.938 108.699 109.938 109.353 109.905C105.629 111.322 101.794 114.499 101.794 114.499C101.794 114.499 106.634 113.724 110.973 112.53C114.703 111.499 119.354 109.383 120.576 108.811V108.878L120.603 108.798H120.651C120.651 108.882 120.651 108.928 120.651 108.928C120.651 108.928 120.651 108.878 120.684 108.781H120.726C120.741 108.849 120.75 108.899 120.756 108.928L121.092 195L122.115 194.954L121.782 109.093C124.162 110.775 128.867 113.99 132.705 115.702C138.082 118.096 145.788 117.448 145.788 117.448C145.788 117.448 140.483 114.658 135.133 112.399C140.459 112.626 146.593 110.359 146.593 110.359C146.593 110.359 140.456 108.962 134.646 108.255C140.093 107.145 146.35 102.71 146.35 102.71C146.35 102.71 141.614 103.022 136.564 103.787Z" fill="#B2B2B2"/>
<path d="M121.892 155.483C122.63 150.607 122.192 145.366 122.192 145.366C122.192 145.366 121.111 148.471 119.94 152.33C119.979 146.282 118.348 139.796 118.348 139.796C118.348 139.796 117.636 143.925 117 148.91C116.333 145.801 115.43 142.748 114.297 139.778C114.297 139.778 114.048 146.12 114.204 152.558C112.402 146.91 108.853 141.297 108.853 141.297C108.853 141.297 109.769 147.697 111.111 153.991C108.276 148.546 103.303 143.285 103.303 143.285C103.303 143.285 105.249 148.817 107.63 154.45C103.868 149.916 98.5884 146.063 98.5884 146.063C98.5884 146.063 101.219 150.661 104.366 155.504C100.018 151.952 94.7566 149.324 94.7566 149.324C94.7566 149.324 97.9458 153.228 101.724 157.36C98.5052 155.604 95.1327 154.147 91.6485 153.006C91.6485 153.006 97.123 157.856 102.558 161.964C96.7026 159.372 88.4683 158.631 88.4683 158.631C88.4683 158.631 92.7176 161.009 97.6425 163.435C94.0984 162.991 90.5218 162.861 86.9548 163.048C86.9548 163.048 91.6125 164.778 96.9218 166.429C93.2907 166.544 89.6774 166.986 86.126 167.751C86.126 167.751 93.2011 169.162 99.9398 169.982C93.6035 170.709 86.2161 174.15 86.2161 174.15C86.2161 174.15 91.7326 174.066 97.6275 173.631C92.2761 175.718 87.201 179.225 87.201 179.225C87.201 179.225 92.9398 178.156 98.8557 176.673C93.7746 179.67 89.129 184.279 89.129 184.279C89.129 184.279 94.6575 182.195 100.258 179.676C95.7536 183.528 91.9488 188.961 91.9488 188.961C91.9488 188.961 95.8827 186.607 100.279 183.673C98.2162 186.4 96.386 189.296 94.8077 192.33C94.8077 192.33 100.012 188.096 104.787 183.622C103.464 186.109 102.351 188.703 101.459 191.375C101.459 191.375 102.898 189.763 104.79 187.507C104.203 189.166 103.701 190.854 103.288 192.565C103.288 192.565 107.114 187.459 110.195 182.564C110.528 182.036 110.862 181.483 111.192 180.919C110.081 184.616 109.976 189.072 109.976 189.072C109.976 189.072 112.078 184.67 113.639 180.534C114.991 176.976 116.168 172.225 116.471 170.967L116.51 170.997L116.477 170.943V170.895L116.558 170.94L116.486 170.856V170.811L116.588 170.841L122.162 173.595L121.916 171.949L117.261 170.018C119.546 168.637 123.976 165.85 127.042 163.234C131.339 159.571 135.024 152.781 135.024 152.781C135.024 152.781 130.519 156.234 126.336 159.934C129.291 155.495 131.165 149.423 131.165 149.423C131.165 149.423 127.069 154.108 123.57 158.778C125.781 153.733 126.399 146.766 126.399 146.766C126.399 146.766 124.102 150.907 121.892 155.483Z" fill="#B2B2B2"/>
<path d="M135.297 162.249C137.06 164.236 138.949 165.944 140.936 167.348C140.936 167.348 139.514 164.926 137.692 162.066C141.106 164.986 145.289 166.666 145.289 166.666C145.289 166.666 143.169 164.075 140.545 161.141C142.514 162.046 144.524 162.72 146.56 163.155C146.56 163.155 143.044 159.906 139.347 156.967C143.11 158.089 147.398 157.69 147.398 157.69C147.398 157.69 143.485 155.429 139.502 153.571C143.468 153.708 148 151.882 148 151.882C148 151.882 144.261 150.935 140.328 150.312C144.067 149.214 147.893 146.468 147.893 146.468C147.893 146.468 144.469 146.559 140.736 146.981C143.013 145.509 145.193 143.705 147.246 141.594C147.246 141.594 144.046 142.509 140.524 143.813C142.521 141.854 144.397 139.617 146.127 137.131C146.127 137.131 141.663 139.575 137.644 142.349C140.924 138.495 143.906 131.689 143.906 131.689C143.906 131.689 141.237 134.248 138.33 137.369C139.685 134.496 140.872 131.445 141.878 128.252C141.878 128.252 139.448 131.479 136.86 135.305C137.931 132.097 138.813 128.746 139.493 125.295C139.493 125.295 136.49 130.788 133.931 136.234C135.491 130.371 135.84 122.307 135.84 122.307C135.84 122.307 134.173 127.144 132.584 132.476C132.865 128.579 132.89 124.647 132.658 120.741C132.658 120.741 131.465 126.234 130.478 132.092C130.362 126.243 129.196 120 129.196 120C129.196 120 128.656 125.803 128.34 131.9C127.559 126.142 125.657 120.238 125.657 120.238C125.657 120.238 125.767 124.783 126.059 130.01C125.157 126.912 124.086 123.937 122.857 121.117C122.857 121.117 123.638 127.666 124.693 133.959C123.696 131.622 122.572 129.416 121.336 127.364C121.336 127.364 121.801 129.383 122.49 132.106C121.737 130.807 120.94 129.568 120.104 128.394C120.104 128.394 121.807 134.161 123.62 139.182C123.814 139.722 124.026 140.275 124.24 140.834C122.955 138.94 121.532 137.278 120 135.882C120 135.882 121.843 139.804 123.698 143.145C125.126 145.615 126.641 147.963 128.236 150.18H128.209H128.248L128.272 150.216L128.221 150.262H128.293L128.314 150.294L128.266 150.372L122.669 155.576L123.012 156.445L128.522 151.319C128.594 153.965 128.797 159.146 129.321 163.064C130.061 168.556 132.763 175 132.763 175C132.763 175 132.205 169.439 131.412 164.016C133.007 168.707 135.861 173.229 135.861 173.229C135.861 173.229 134.48 167.434 132.927 162.162C135.097 166.492 138.858 170.364 138.858 170.364C138.858 170.364 137.203 166.359 135.297 162.249Z" fill="#B2B2B2"/>
<path d="M121.892 182.649C121.114 184.708 120.545 186.841 120.195 189.015C120.195 189.015 121.342 187.213 122.658 184.937C121.736 188.763 121.808 193.117 121.808 193.117C121.808 193.117 122.871 190.607 124.015 187.54C123.975 189.61 124.093 191.679 124.369 193.73C124.369 193.73 125.471 189.748 126.327 185.643C126.628 189.492 128.048 193.577 128.048 193.577C128.048 193.577 128.417 189.372 128.502 185.195C129.49 189.066 131.871 193.141 131.871 193.141C131.871 193.141 131.459 189.345 130.787 185.423C132.496 188.856 135.27 192.081 135.27 192.081C135.27 192.081 134.285 188.778 133.012 185.24C134.56 187.182 136.291 188.971 138.18 190.583C138.18 190.583 136.736 187.64 134.955 184.453C136.735 186.044 138.657 187.469 140.697 188.709C140.697 188.709 137.946 184.823 135.108 181.411C138.435 183.925 143.547 185.616 143.547 185.616C143.547 185.616 141.207 183.477 138.441 181.207C140.622 182.014 142.87 182.626 145.159 183.036C145.159 183.036 142.456 181.249 139.342 179.411C141.659 179.879 144.013 180.138 146.375 180.183C146.375 180.183 142.099 178.237 137.967 176.721C142.093 177.198 147.276 176.12 147.276 176.12C147.276 176.12 143.784 175.36 139.97 174.76C142.51 174.345 145.002 173.676 147.408 172.763C147.408 172.763 143.613 172.589 139.643 172.649C143.306 171.504 146.937 169.273 146.937 169.273C146.937 169.273 143.123 169.772 139.198 170.54C142.628 168.766 145.844 165.889 145.844 165.889C145.844 165.889 143.003 166.79 139.778 167.991C141.491 166.569 143.081 165.004 144.532 163.315C144.532 163.315 140.607 165.225 136.913 167.36C138.123 165.98 139.216 164.501 140.18 162.94C140.18 162.94 139.027 163.748 137.478 164.898C138.094 163.933 138.661 162.937 139.174 161.913C139.174 161.913 135.991 164.58 133.309 167.225C133.009 167.51 132.727 167.811 132.432 168.126C133.282 166.545 133.948 164.871 134.414 163.138C134.414 163.138 132.435 165.619 130.826 168.006C129.651 169.828 128.578 171.712 127.61 173.652L127.589 173.625V173.664V173.694L127.544 173.655L127.577 173.718L127.562 173.745L127.502 173.709L122.697 178.213L122.24 178.697L126.973 174.129C125.318 174.667 122.099 175.775 119.766 176.979C116.496 178.661 113.159 182.417 113.159 182.417C113.159 182.417 116.523 180.898 119.727 179.174C117.195 181.549 115.108 185.117 115.108 185.117C115.108 185.117 118.411 182.754 121.309 180.312C119.162 183.183 117.733 187.519 117.733 187.519C117.733 187.519 119.811 185.222 121.892 182.649Z" fill="#B2B2B2"/>
<path opacity="0.5" d="M210 190.5C210 190.559 143.998 190.375 68.6147 190.375C-6.76813 190.375 0.773646 190.559 0.773646 190.5C0.773646 190.44 -6.79653 190.154 68.6147 190.154C144.026 190.154 210 190.436 210 190.5Z" fill="#263238"/>
<path d="M24.7568 66.1627V72.7345H23.2553V65.522C23.2553 64.7028 23.0174 63.9172 22.5939 63.338C22.1704 62.7587 21.596 62.4333 20.9971 62.4333C20.7007 62.4333 20.4071 62.5132 20.1333 62.6685C19.8595 62.8238 19.6108 63.0513 19.4013 63.3382C19.1918 63.6251 19.0258 63.9656 18.9126 64.3403C18.7995 64.715 18.7414 65.1166 18.7418 65.522V74.4678H17.3574V69.7156C17.3574 69.4243 17.3155 69.1359 17.234 68.8668C17.1525 68.5977 17.033 68.3532 16.8825 68.1472C16.7319 67.9413 16.5531 67.7779 16.3564 67.6665C16.1596 67.555 15.9488 67.4976 15.7358 67.4976C15.523 67.4976 15.3123 67.555 15.1157 67.6665C14.9191 67.778 14.7406 67.9415 14.5902 68.1475C14.4399 68.3535 14.3207 68.598 14.2395 68.8671C14.1584 69.1362 14.1168 69.4245 14.1172 69.7156V76.9979C14.1172 77.3759 14.227 77.7384 14.4224 78.0057C14.6178 78.273 14.8829 78.4231 15.1592 78.4231H18.7388V83.8242H23.2433V76.8418H26.3664C26.7041 76.8418 27.028 76.6583 27.2668 76.3317C27.5056 76.0051 27.6397 75.5622 27.6397 75.1003V66.1627C27.6397 65.6377 27.4872 65.1341 27.2158 64.7629C26.9443 64.3916 26.5762 64.183 26.1923 64.183C25.8105 64.1873 25.4454 64.3978 25.1765 64.7686C24.9077 65.1394 24.7568 65.6405 24.7568 66.1627Z" fill="#FFC100"/>
<path d="M25.0091 83.3765H17.0752V93.4353H25.0091V83.3765Z" fill="#B2B2B2"/>
<path d="M25.4775 80.9902H16.6006V84.2268H25.4775V80.9902Z" fill="#B2B2B2"/>
<path d="M22.5199 120.749L19.625 114.42L21.5559 114.682L21.3607 110.986L23.4839 114.682L23.6761 103.334L25.2196 110.723L27.1505 101.223L27.7271 112.304L31.586 106.764L28.8863 115.471L31.586 114.153L26.3788 122.072L22.5199 120.749Z" fill="#FFC100"/>
<path d="M28.9764 121.612H21.0425V131.67H28.9764V121.612Z" fill="#B2B2B2"/>
<path d="M29.4447 119.225H20.5679V122.462H29.4447V119.225Z" fill="#B2B2B2"/>
<path d="M63.6121 120.749L60.7202 114.42L62.6481 114.682L62.456 110.986L64.5791 114.682L64.7713 103.334L66.3148 110.723L68.2427 101.223L68.8223 112.304L72.6812 106.764L69.9815 115.471L72.6812 114.153L67.471 122.072L63.6121 120.749Z" fill="#FFC100"/>
<path d="M70.0687 121.612H62.1348V131.67H70.0687V121.612Z" fill="#B2B2B2"/>
<path d="M70.54 119.225H61.6631V122.462H70.54V119.225Z" fill="#B2B2B2"/>
<path d="M43.5498 119.43C42.1914 119.403 40.8367 119.227 39.4987 118.905C37.3756 118.375 36.9882 116.527 37.9552 116.001C38.9222 115.475 42.1984 116.264 42.1984 116.264C42.1984 116.264 37.9552 116.264 37.3756 112.834C36.796 109.404 38.9192 109.667 39.4987 110.46C40.0783 111.253 41.6189 112.834 41.6189 112.834C41.6189 112.834 38.3396 108.349 38.3396 105.708C38.3396 103.067 40.4627 103.334 41.0423 104.919C41.6219 106.505 42.9732 111.249 42.9732 111.249C42.9732 111.249 40.8501 102.808 43.5528 104.127C46.2555 105.445 45.6729 109.404 45.6729 110.193V113.627C45.6729 113.627 48.3756 106.501 49.3396 108.086C50.3035 109.671 47.9882 112.575 47.9882 112.575C47.9882 112.575 49.3396 105.712 52.6189 105.979C55.8981 106.246 52.8141 109.409 52.2345 110.727C51.6549 112.045 49.1474 114.949 49.1474 114.949C49.1474 114.949 54.742 111.52 57.4417 111.52C60.1414 111.52 57.6369 115.742 56.0933 116.005C54.5498 116.268 51.6549 116.798 51.6549 116.798C51.6549 116.798 55.5138 119.172 53.9702 119.697C52.4267 120.223 48.5648 119.172 48.5648 119.172L43.5498 119.43Z" fill="#FFC100"/>
<path d="M49.8109 121.612H41.877V131.67H49.8109V121.612Z" fill="#B2B2B2"/>
<path d="M50.2822 119.225H41.4053V122.462H50.2822V119.225Z" fill="#B2B2B2"/>
<path d="M55.4952 70.73V75.6095H56.6093V70.27C56.6093 69.6632 56.7856 69.0813 57.0992 68.6523C57.4129 68.2232 57.8384 67.9822 58.282 67.9822C58.7256 67.9822 59.1511 68.2232 59.4648 68.6523C59.7784 69.0813 59.9547 69.6632 59.9547 70.27V76.8951H60.9817V73.3792C60.9817 72.9435 61.1083 72.5256 61.3335 72.2175C61.5588 71.9094 61.8643 71.7363 62.1829 71.7363C62.5015 71.7363 62.807 71.9094 63.0323 72.2175C63.2576 72.5256 63.3841 72.9435 63.3841 73.3792V78.7721C63.3841 79.0521 63.3028 79.3206 63.1581 79.5185C63.0133 79.7165 62.817 79.8277 62.6123 79.8277H59.9547V83.8241H56.6033V78.6448H54.294C54.0439 78.6448 53.8041 78.5089 53.6273 78.2671C53.4504 78.0252 53.3511 77.6971 53.3511 77.3551V70.73C53.3511 70.3411 53.464 69.9681 53.6651 69.6931C53.8661 69.4181 54.1388 69.2637 54.4231 69.2637C54.7075 69.2637 54.9802 69.4181 55.1812 69.6931C55.3823 69.9681 55.4952 70.3411 55.4952 70.73Z" fill="#FFC100"/>
<path d="M61.8763 83.3765H53.9424V93.4353H61.8763V83.3765Z" fill="#B2B2B2"/>
<path d="M62.3451 80.9901H53.4683V84.2267H62.3451V80.9901Z" fill="#B2B2B2"/>
<path d="M24.8649 147.311V152.178H25.979V146.839C25.979 146.232 26.1552 145.65 26.4689 145.221C26.7826 144.792 27.208 144.551 27.6516 144.551C27.8712 144.551 28.0885 144.61 28.2913 144.725C28.4941 144.84 28.6783 145.009 28.8333 145.221C28.9884 145.434 29.1113 145.686 29.1951 145.964C29.2788 146.241 29.3217 146.539 29.3213 146.839V153.464H30.3513V149.952C30.3513 149.516 30.4779 149.099 30.7032 148.79C30.9284 148.482 31.234 148.309 31.5525 148.309C31.8711 148.309 32.1766 148.482 32.4019 148.79C32.6272 149.099 32.7537 149.516 32.7537 149.952V155.349C32.7537 155.629 32.6724 155.898 32.5277 156.096C32.383 156.294 32.1867 156.405 31.982 156.405H29.3213V160.393H25.973V155.226H23.6637C23.5397 155.227 23.4169 155.194 23.3023 155.129C23.1878 155.064 23.0836 154.969 22.996 154.849C22.9084 154.73 22.8389 154.587 22.7917 154.43C22.7444 154.274 22.7203 154.106 22.7207 153.936V147.311C22.7207 146.922 22.8337 146.549 23.0347 146.274C23.2358 145.999 23.5084 145.845 23.7928 145.845C24.0771 145.845 24.3498 145.999 24.5508 146.274C24.7519 146.549 24.8649 146.922 24.8649 147.311Z" fill="#FFC100"/>
<path d="M31.2435 159.953H23.3096V170.012H31.2435V159.953Z" fill="#B2B2B2"/>
<path d="M31.7143 157.571H22.8374V160.808H31.7143V157.571Z" fill="#B2B2B2"/>
<path d="M64.2037 147.311V152.178H65.3178V146.839C65.3178 146.232 65.4941 145.65 65.8077 145.221C66.1214 144.792 66.5469 144.551 66.9905 144.551C67.4341 144.551 67.8596 144.792 68.1733 145.221C68.4869 145.65 68.6632 146.232 68.6632 146.839V153.464H69.6902V149.952C69.6902 149.516 69.8168 149.099 70.042 148.79C70.2673 148.482 70.5728 148.309 70.8914 148.309C71.21 148.309 71.5155 148.482 71.7408 148.79C71.966 149.099 72.0926 149.516 72.0926 149.952V155.349C72.0926 155.629 72.0113 155.898 71.8666 156.096C71.7218 156.294 71.5255 156.405 71.3208 156.405H68.6632V160.393H65.3178V155.226H63.0025C62.7524 155.226 62.5126 155.09 62.3357 154.848C62.1589 154.606 62.0596 154.278 62.0596 153.936V147.311C62.0596 146.922 62.1725 146.549 62.3736 146.274C62.5746 145.999 62.8473 145.845 63.1316 145.845C63.416 145.845 63.6887 145.999 63.8897 146.274C64.0908 146.549 64.2037 146.922 64.2037 147.311Z" fill="#FFC100"/>
<path d="M70.5912 159.953H62.6572V170.012H70.5912V159.953Z" fill="#B2B2B2"/>
<path d="M71.06 157.571H62.1831V160.808H71.06V157.571Z" fill="#B2B2B2"/>
<path d="M44.027 159.744C43.2791 158.071 42.3472 156.565 41.2642 155.279C39.5074 153.226 39.0029 148.408 39.0029 148.408C39.0029 148.408 39.7567 148.067 41.2642 150.125C42.2648 151.558 43.1129 153.177 43.7837 154.934C43.7837 154.934 42.7807 149.098 42.7807 147.036C42.7807 144.974 45.2852 139.823 45.2852 139.823C45.2852 139.823 46.036 143.602 46.036 145.319V153.238C46.036 153.238 47.5375 149.131 49.5525 146.711C51.5675 144.292 54.5735 143.278 54.5735 143.278C54.5735 143.278 54.8258 147.385 53.8197 148.773C52.8137 150.162 48.5465 154.955 48.5465 154.955L54.3243 153.583L48.5465 158.388C48.5465 158.388 47.4714 160.315 46.5405 159.764C45.6095 159.214 44.027 159.744 44.027 159.744Z" fill="#FFC100"/>
<path d="M49.5736 159.953H41.6396V170.012H49.5736V159.953Z" fill="#B2B2B2"/>
<path d="M50.0424 157.571H41.1655V160.808H50.0424V157.571Z" fill="#B2B2B2"/>
<path d="M68.8228 81.1667C68.8228 81.1667 66.3153 78.2669 65.5435 77.2113C64.7717 76.1557 62.8408 73.2519 64.3843 74.3074C65.5338 75.1508 66.6306 76.122 67.6636 77.2113C67.6636 77.2113 66.3063 71.6664 66.3063 70.0851C66.3063 68.5038 68.2342 69.5594 69.1982 72.1963C70.1621 74.8332 70.7417 76.6815 70.7417 76.6815C70.7417 76.6815 69.006 66.1257 70.5495 65.5917C72.0931 65.0577 72.4804 72.4509 72.4804 72.4509C72.4804 72.4509 73.8288 59.5211 75.7597 62.425C77.6907 65.3288 74.4084 72.9808 74.4084 72.9808C74.4084 72.9808 78.2672 69.2842 77.4955 72.1881C76.7237 75.0919 74.6006 76.1475 74.6006 76.1475C74.6006 76.1475 80.1982 74.2992 78.6546 77.2031C77.1111 80.107 72.0931 82.481 72.0931 82.481L68.8228 81.1667Z" fill="#FFC100"/>
<path d="M75.5555 83.3765H67.6216V93.4353H75.5555V83.3765Z" fill="#B2B2B2"/>
<path d="M76.0268 80.9901H67.1499V84.2267H76.0268V80.9901Z" fill="#B2B2B2"/>
<path d="M37.955 81.1667C37.955 81.1667 35.4445 78.2669 34.6727 77.2113C33.9009 76.1557 31.97 73.2519 33.5166 74.3074C34.666 75.1508 35.7628 76.122 36.7958 77.2113C36.7958 77.2113 35.4445 71.6664 35.4445 70.0851C35.4445 68.5038 37.3754 69.5594 38.3394 72.1963C39.3033 74.8332 39.8799 76.6815 39.8799 76.6815C39.8799 76.6815 38.1442 66.1257 39.6877 65.5917C41.2313 65.0577 41.6157 72.4509 41.6157 72.4509C41.6157 72.4509 42.967 59.5211 44.8949 62.425C46.8229 65.3288 43.5466 72.9808 43.5466 72.9808C43.5466 72.9808 47.4055 69.2842 46.6337 72.1881C45.8619 75.0919 43.7388 76.1475 43.7388 76.1475C43.7388 76.1475 49.3334 74.2992 47.7898 77.2031C46.2463 80.107 41.2313 82.481 41.2313 82.481L37.955 81.1667Z" fill="#FFC100"/>
<path d="M44.6878 83.3765H36.7539V93.4353H44.6878V83.3765Z" fill="#B2B2B2"/>
<path d="M45.1591 80.9902H36.2822V84.2268H45.1591V80.9902Z" fill="#B2B2B2"/>
<path d="M15.5555 195.309V174.629H81.1411V195.309H83.6336V92.8932H13.063V195.309H15.5555ZM15.5555 97.7891H81.1411V131.346H15.5555V97.7891ZM15.5555 136.221H81.1411V169.774H15.5555V136.221Z" fill="#B2B2B2"/>
<path d="M166.423 153.303C166.423 153.303 166.185 151.36 167.053 147.862C167.514 145.919 168.116 144.012 168.855 142.156C169.67 144.398 170.33 146.692 170.831 149.024C171.206 150.904 171.417 152.813 171.462 154.73C171.462 154.73 170.435 158.486 169.489 159.781C168.543 161.075 167.828 160.429 167.197 158.88C166.567 157.33 166.423 153.303 166.423 153.303Z" fill="#FFC100" stroke="#263238" stroke-linecap="round" stroke-linejoin="round"/>
<path d="M163.66 157.318C163.66 157.318 163.423 156.024 163.423 153.045C163.423 150.066 164.204 145.399 164.204 145.399C165.12 147.045 165.861 148.782 166.414 150.582C167.204 153.303 168.624 158.616 168.624 158.616C168.991 156.767 169.492 154.949 170.126 153.174C171.153 150.321 173.681 146.567 173.681 146.567V152.273C173.689 154.368 173.431 156.456 172.912 158.486C172.912 158.486 172.675 159.781 169.672 160.817C166.669 161.853 164.204 160.688 163.66 157.318Z" fill="#FFC100" stroke="#263238" stroke-linecap="round" stroke-linejoin="round"/>
<path d="M161.447 162.114C161.447 162.114 160.342 160.688 160.342 157.579C160.355 155.584 160.514 153.591 160.817 151.619C160.817 151.619 161.21 151.877 162.318 153.42C163.426 154.964 165.871 158.991 165.871 159.252C165.871 159.513 166.108 158.084 167.054 156.399C168 154.715 170.847 150.694 170.847 150.694C170.847 150.694 171.24 154.321 171.24 155.877C171.24 157.432 171.399 159.634 171.399 159.634C171.399 159.634 172.583 156.655 173.847 154.829C174.703 153.631 175.654 152.504 176.691 151.459C176.691 151.459 176.928 152.36 176.847 154.958C176.766 157.555 175.664 162.342 175.345 163.12C175.027 163.898 173.922 165.453 171.79 166.231C169.658 167.009 166.03 167.552 164.132 166.652C162.234 165.751 161.447 162.114 161.447 162.114Z" fill="#FFC100" stroke="#263238" stroke-linecap="round" stroke-linejoin="round"/>
<path d="M160.342 167.039C160.342 167.039 159.711 166.261 157.972 162.892C156.234 159.522 155.447 155.24 155.447 155.24C155.447 155.24 156.393 155.369 157.972 156.925C159.552 158.48 164.279 164.571 164.279 164.571C163.76 162.804 163.657 160.942 163.978 159.129C164.531 156.276 165.243 155.111 165.243 155.111C165.243 155.111 166.9 157.574 167.453 159.516C168.005 161.459 168.636 164.321 168.636 164.321C168.636 164.321 169.426 160.823 170.768 158.363C171.604 156.849 172.641 155.454 173.849 154.216C173.849 154.216 174.561 157.066 174.086 159.528C173.612 161.991 173.137 163.934 173.137 163.934C173.137 163.934 174.876 159.009 176.297 157.844C177.717 156.679 180.801 155.643 180.801 155.643C180.801 155.643 179.54 160.306 178.513 162.378C177.486 164.45 175.984 166.784 175.984 166.784C175.984 166.784 168.08 169.369 160.342 167.039Z" fill="#FFC100" stroke="#263238" stroke-linecap="round" stroke-linejoin="round"/>
<path d="M175.171 195.33H161.504L159.453 167.324H177.222L175.171 195.33Z" fill="#263238" stroke="#263238" stroke-linecap="round" stroke-linejoin="round"/>
<path d="M177.08 166.577H159.513C159.037 166.577 158.651 166.963 158.651 167.439V167.841C158.651 168.317 159.037 168.703 159.513 168.703H177.08C177.556 168.703 177.942 168.317 177.942 167.841V167.439C177.942 166.963 177.556 166.577 177.08 166.577Z" fill="#A1A1A1" stroke="#263238" stroke-linecap="round" stroke-linejoin="round"/>
<path d="M139.949 179.243V149.129" stroke="#263238" stroke-linecap="round" stroke-linejoin="round"/>
<path d="M146.571 195.309H133.457L130.646 178.099H149.382L146.571 195.309Z" fill="#263238" stroke="#263238" stroke-linecap="round" stroke-linejoin="round"/>
<path d="M141.784 170.336C141.784 170.336 141.718 166.667 145.988 164.697C150.258 162.727 153.874 165.988 155.096 168.366C155.884 169.927 156.566 171.539 157.135 173.192C157.135 173.192 152.865 169.655 148.991 169.655C146.573 169.666 144.161 169.894 141.784 170.336Z" fill="#FFC100" stroke="#263238" stroke-linecap="round" stroke-linejoin="round"/>
<path d="M144.979 169.793L146.817 167.21" stroke="#263238" stroke-linecap="round" stroke-linejoin="round"/>
<path d="M148.991 169.658L151.234 167.823" stroke="#263238" stroke-linecap="round" stroke-linejoin="round"/>
<path d="M139.627 167.928C139.627 167.928 138.579 164.411 133.901 163.832C129.222 163.252 126.777 167.453 126.333 170.09C126.056 171.816 125.896 173.559 125.853 175.306C125.853 175.306 128.856 170.64 132.555 169.465C134.862 168.743 137.229 168.228 139.627 167.928Z" fill="#FFC100" stroke="#263238" stroke-linecap="round" stroke-linejoin="round"/>
<path d="M136.417 168.379L133.886 166.475" stroke="#263238" stroke-linecap="round" stroke-linejoin="round"/>
<path d="M132.556 169.465L129.862 168.396" stroke="#263238" stroke-linecap="round" stroke-linejoin="round"/>
<path d="M135.859 158.775C135.859 158.775 135.045 156.045 131.417 155.595C127.79 155.144 125.892 158.405 125.546 160.451C125.328 161.79 125.201 163.142 125.165 164.499C125.165 164.499 127.498 160.88 130.363 159.967C132.156 159.407 133.995 159.008 135.859 158.775Z" fill="#FFC100" stroke="#263238" stroke-linecap="round" stroke-linejoin="round"/>
<path d="M133.37 159.123L131.406 157.646" stroke="#263238" stroke-linecap="round" stroke-linejoin="round"/>
<path d="M130.373 159.967L128.283 159.138" stroke="#263238" stroke-linecap="round" stroke-linejoin="round"/>
<path d="M143.036 157.072C143.036 157.072 143.85 154.342 147.481 153.892C151.111 153.441 153.006 156.703 153.351 158.751C153.567 160.09 153.691 161.443 153.724 162.799C153.724 162.799 151.39 159.177 148.526 158.264C146.735 157.704 144.898 157.305 143.036 157.072Z" fill="#FFC100" stroke="#263238" stroke-linecap="round" stroke-linejoin="round"/>
<path d="M145.528 157.423L147.492 155.946" stroke="#263238" stroke-linecap="round" stroke-linejoin="round"/>
<path d="M148.525 158.264L150.615 157.435" stroke="#263238" stroke-linecap="round" stroke-linejoin="round"/>
<path d="M141.105 169.997C140.201 169.604 139.197 169.504 138.233 169.712C137.27 169.92 136.396 170.425 135.735 171.156C133.288 173.739 135.327 177.763 137.026 179.865C138.088 181.173 139.223 182.42 140.426 183.601C140.426 183.601 144.504 181.018 145.93 178.096C147.357 175.174 148.032 172.931 146.204 170.958C144.375 168.985 141.105 169.997 141.105 169.997Z" fill="#FFC100" stroke="#263238" stroke-linecap="round" stroke-linejoin="round"/>
<path d="M141.105 169.997C141.105 169.997 139.678 177.805 140.087 182.643" stroke="#263238" stroke-linecap="round" stroke-linejoin="round"/>
<path d="M140.697 173.601L142.126 175.913" stroke="#263238" stroke-linecap="round" stroke-linejoin="round"/>
<path d="M140.357 176.252L138.522 179.108" stroke="#263238" stroke-linecap="round" stroke-linejoin="round"/>
<path d="M140.901 171.631L138.522 172.174" stroke="#263238" stroke-linecap="round" stroke-linejoin="round"/>
<path d="M143.036 157.072C143.036 157.072 140.766 157.628 140.087 159.258" stroke="#263238" stroke-linecap="round" stroke-linejoin="round"/>
<path d="M135.858 158.775C135.858 158.775 139.54 159.529 139.948 161.637" stroke="#263238" stroke-linecap="round" stroke-linejoin="round"/>
<path d="M140.018 163.676C140.018 163.676 141.718 160.48 144.096 160.141C146.475 159.802 149.189 161.847 149.189 161.847C149.189 161.847 144.363 164.703 142.664 164.703C141.682 164.715 140.734 164.347 140.018 163.676Z" fill="#FFC100" stroke="#263238" stroke-linecap="round" stroke-linejoin="round"/>
<path d="M140.018 163.676C140.018 163.676 138.517 161.366 135.871 161.093C133.226 160.82 130.367 164.55 130.367 164.55C130.367 164.55 131.385 165.231 134.105 165.096C136.826 164.961 140.018 163.676 140.018 163.676Z" fill="#FFC100" stroke="#263238" stroke-linecap="round" stroke-linejoin="round"/>
<path d="M139.88 158.171C139.88 158.171 136.819 155.168 136.684 152.189C136.549 149.21 140.222 144.429 140.222 144.429C140.222 144.429 142.465 150.276 142.6 152.724C142.735 155.171 139.88 158.171 139.88 158.171Z" fill="#FFC100" stroke="#263238" stroke-linecap="round" stroke-linejoin="round"/>
<path d="M139.949 155.45L138.862 153.889" stroke="#263238" stroke-linecap="round" stroke-linejoin="round"/>
<path d="M140.087 151.85L140.835 150.555" stroke="#263238" stroke-linecap="round" stroke-linejoin="round"/>
<path d="M28.3995 168.904C28.3995 168.904 28.1923 167.874 28.949 166.018C29.372 164.96 29.9023 163.949 30.5316 163C31.223 164.155 31.7984 165.377 32.2493 166.646C32.5734 167.623 32.7584 168.641 32.7989 169.67C32.7989 169.67 31.898 171.664 31.0812 172.351C30.2643 173.039 29.6367 172.697 29.0872 171.871C28.5376 171.045 28.3995 168.904 28.3995 168.904Z" fill="#FFC100" stroke="#263238" stroke-linecap="round" stroke-linejoin="round"/>
<path d="M25.9944 171.036C25.8278 170.292 25.7582 169.53 25.7872 168.769C25.7872 167.186 26.4748 164.712 26.4748 164.712C27.2373 165.538 27.8848 166.463 28.3998 167.462C29.0875 168.904 30.3247 171.724 30.3247 171.724C30.6548 170.717 31.0928 169.75 31.631 168.838C32.5319 167.336 34.7271 165.33 34.7271 165.33V168.354C34.7223 169.49 34.4884 170.614 34.0394 171.658C34.0394 171.658 33.8322 172.345 31.2196 172.898C28.607 173.45 26.4748 172.826 25.9944 171.036Z" fill="#FFC100" stroke="#263238" stroke-linecap="round" stroke-linejoin="round"/>
<path d="M24.0659 173.582C24.0659 173.582 23.105 172.826 23.105 171.18C23.118 170.114 23.256 169.052 23.5164 168.018C23.5164 168.018 23.8617 168.156 24.8227 168.979C25.7837 169.802 27.9188 171.937 27.9188 172.075C27.9188 172.213 28.123 171.456 28.9488 170.573C29.7747 169.691 32.2521 167.549 32.2521 167.549C32.4207 168.458 32.536 169.375 32.5975 170.297C32.5975 171.123 32.7356 172.291 32.7356 172.291C33.3469 171.366 34.0612 170.512 34.8647 169.748C35.6437 169.085 36.4719 168.483 37.3422 167.946C37.3422 167.946 37.5464 168.426 37.4774 169.802C37.4083 171.177 36.4473 173.721 36.171 174.135C35.8948 174.549 34.9338 175.372 33.078 175.784C31.2221 176.195 28.0569 176.471 26.4083 175.991C24.7596 175.51 24.0659 173.582 24.0659 173.582Z" fill="#FFC100" stroke="#263238" stroke-linecap="round" stroke-linejoin="round"/>
<path d="M23.1051 176.195C23.1051 176.195 22.5555 175.781 21.042 173.994C20.0706 172.785 19.3249 171.41 18.8408 169.937C18.8408 169.937 19.6666 170.006 21.042 170.838C22.4174 171.67 26.5435 174.895 26.5435 174.895C26.095 174 25.9965 172.97 26.2672 172.006C26.7477 170.504 27.3693 169.874 27.3693 169.874C27.3693 169.874 28.8108 171.18 29.2943 172.213C29.7778 173.246 30.3243 174.757 30.3243 174.757C30.769 173.609 31.3956 172.54 32.1802 171.592C32.9712 170.742 33.8732 170.002 34.8618 169.393C34.8618 169.393 35.4805 170.895 35.069 172.213C34.6576 173.531 34.2432 174.549 34.2432 174.549C34.2432 174.549 35.7447 171.937 36.994 171.318C38.2432 170.7 40.9129 170.15 40.9129 170.15C40.9129 170.15 39.8138 172.625 38.9189 173.724C38.2296 174.543 37.4957 175.324 36.7207 176.063C36.7207 176.063 29.8438 177.432 23.1051 176.195Z" fill="#FFC100" stroke="#263238" stroke-linecap="round" stroke-linejoin="round"/>
<path d="M32.9037 189.856H27.282C26.1642 189.856 25.0837 189.454 24.2376 188.723C23.3914 187.993 22.8359 186.983 22.6724 185.877L21.21 176.024H38.9787L37.5193 185.877C37.355 186.983 36.7985 187.994 35.9512 188.724C35.1039 189.455 34.0223 189.856 32.9037 189.856Z" fill="#263238" stroke="#263238" stroke-linecap="round" stroke-linejoin="round"/>
<path d="M38.8376 175.276H21.2701C20.7941 175.276 20.4082 175.662 20.4082 176.138V176.54C20.4082 177.016 20.7941 177.402 21.2701 177.402H38.8376C39.3136 177.402 39.6995 177.016 39.6995 176.54V176.138C39.6995 175.662 39.3136 175.276 38.8376 175.276Z" fill="#A1A1A1" stroke="#263238" stroke-linecap="round" stroke-linejoin="round"/>
<path d="M86.3909 109.252C86.3909 109.252 88.1297 119.523 90.1988 123.832C92.2678 128.141 92.6852 129.381 92.6852 129.381C89.3591 130.206 85.9839 130.819 82.5801 131.216C77.2798 131.796 75.5381 130.886 75.5381 130.886L76.2168 128.213C76.2168 128.213 80.2768 129.622 81.7663 127.799C83.2558 125.976 84.8294 119.351 85.0696 117.778C85.3099 116.204 84.5741 109.414 84.5741 109.414L86.3909 109.252Z" fill="#263238" stroke="#263238" stroke-miterlimit="10"/>
<path d="M77.0304 127.394C77.0304 127.394 76.1294 131.367 76.1294 132.61C76.1294 133.853 76.2766 134.144 76.9553 134.598C78.4568 135.592 81.676 137.331 84.5769 137.745C87.4778 138.159 89.631 138.901 90.2075 139.898C93.5499 145.694 95.676 165.907 95.676 165.907C95.676 165.907 96.7511 166.733 100.147 167.313C103.544 167.892 104.619 167.976 104.619 167.976L105.448 173.195C105.448 173.195 102.385 173.61 97.1655 174.096C91.9463 174.583 88.5529 174.096 88.5529 174.096L92.7751 187.433C93.8532 190.826 94.5138 195.301 94.5138 195.301H51.0243C51.0243 195.301 55.9102 173.186 56.4898 170.535C57.0694 167.883 57.1535 158.523 57.1535 158.523L44.7271 159.018C44.7271 159.018 46.9643 145.601 49.1174 140.385C51.2706 135.168 52.2646 136.078 55.4237 135.58C58.5829 135.081 63.706 134.006 65.7781 132.598C67.8502 131.189 68.5949 123.652 68.5949 123.652L77.0304 127.394Z" fill="#FFC100" stroke="#263238" stroke-linecap="round" stroke-linejoin="round"/>
<path d="M87.4443 171.556C86.8437 174.033 87.8077 175.697 89.4023 176.82L88.5434 174.117C88.5434 174.117 91.9368 174.616 97.156 174.117C102.375 173.619 105.438 173.216 105.438 173.216L104.609 167.997C104.609 167.997 103.534 167.916 100.138 167.334C96.7416 166.751 95.6665 165.928 95.6665 165.928C95.6665 165.928 89.2912 163.799 87.4443 171.556Z" fill="white" stroke="#263238" stroke-linecap="round" stroke-linejoin="round"/>
<path d="M92.7655 187.442L88.5432 174.105C88.5432 174.105 87.8796 169.301 87.9637 168.475C88.0478 167.649 90.4472 163.09 90.4472 159.859C90.4472 156.628 87.5493 146.946 87.3 146.277C87.0718 145.676 83.0387 138.364 82.4141 137.235C82.1318 137.144 81.8496 137.045 81.5733 136.934L85.312 147.015L65.5162 146.601L62.4021 134.039C61.9246 134.186 61.4231 134.34 60.9156 134.46C61.333 136.075 64.2189 147.478 63.8496 149.093C63.4351 150.832 57.1408 158.535 57.1408 158.535C57.1408 158.535 57.0568 167.895 56.4772 170.547C55.8976 173.198 51.0117 195.313 51.0117 195.313H94.5042C94.5042 195.313 93.8435 190.835 92.7655 187.442Z" fill="#263238" stroke="#263238" stroke-linecap="round" stroke-linejoin="round"/>
<path d="M76.2162 131.673C76.4414 130.021 77.045 127.394 77.045 127.394L68.5975 123.664C68.3858 125.658 68.006 127.631 67.4624 129.562L76.2162 131.673Z" fill="white" stroke="#263238" stroke-linecap="round" stroke-linejoin="round"/>
<path d="M85.808 109.595C85.808 109.595 86.0572 113.652 86.0572 116.138C86.0572 118.625 86.4716 121.024 85.3125 124.246C84.1533 127.469 82.4957 129.715 81.5017 130.126C80.5077 130.538 77.859 130.126 76.5317 129.628C75.2044 129.129 68.3335 124.91 68.3335 124.91C68.3335 124.91 70.2374 113.066 70.4867 112.237C70.6864 111.651 70.9652 111.094 71.3155 110.583L85.808 109.595Z" fill="white" stroke="#263238" stroke-linecap="round" stroke-linejoin="round"/>
<path d="M83.3246 113.799C83.3246 113.799 82.6609 115.042 82.745 116.12C82.8291 117.198 84.8981 119.514 84.8981 119.928C84.8981 120.343 83.739 121.087 82.3306 121.087" stroke="#263238" stroke-linecap="round" stroke-linejoin="round"/>
<path d="M81.6216 124.309C81.6216 124.309 80.1661 124.859 79.2192 124.385" stroke="#263238" stroke-linecap="round" stroke-linejoin="round"/>
<path d="M75.292 114.222C75.292 114.222 77.28 112.982 79.0187 113.321" stroke="#263238" stroke-linecap="round" stroke-linejoin="round"/>
<path d="M83.7383 113.229C84.0669 113.02 84.4542 112.923 84.8423 112.953C85.2305 112.983 85.5986 113.137 85.8914 113.394" stroke="#263238" stroke-linecap="round" stroke-linejoin="round"/>
<path d="M79.0993 116.802C79.0993 117.442 78.7839 117.961 78.3965 117.961C78.0092 117.961 77.6938 117.442 77.6938 116.802C77.6938 116.162 78.0092 115.643 78.3965 115.643C78.7839 115.643 79.0993 116.15 79.0993 116.802Z" fill="#263238"/>
<path d="M85.0206 116.607C85.0206 117.258 84.7624 117.784 84.4381 117.784C84.1137 117.784 83.8555 117.258 83.8555 116.607C83.8555 115.955 84.1167 115.427 84.4381 115.427C84.7594 115.427 85.0206 115.955 85.0206 116.607Z" fill="#263238"/>
<path d="M72.8048 110.745C72.8048 110.745 70.6517 123.832 70.3213 127.562C70.1199 129.767 70.1471 131.987 70.4024 134.186C70.4024 134.186 67.7538 132.775 62.7027 131.216C57.6517 129.658 53.7598 126.994 53.7598 126C53.7598 125.006 60.967 111.09 60.967 111.09L72.8048 110.745Z" fill="#263238" stroke="#263238" stroke-miterlimit="10"/>
<path d="M65.1052 152.075C65.1052 152.075 58.3965 154.394 55.6638 155.138C52.931 155.883 46.1382 156.64 44.7298 159.042C43.3214 161.445 43.2283 163.847 43.3244 165.919C43.4205 167.991 45.2283 168.898 46.7178 168.652C48.2073 168.406 53.7599 167.658 58.8109 164.096C63.862 160.535 68.4205 156.559 68.4205 156.559L65.1052 152.075Z" fill="white" stroke="#263238" stroke-linecap="round" stroke-linejoin="round"/>
<path d="M85.0635 139.484H83.2407V142.466H85.0635V139.484Z" fill="white" stroke="#263238" stroke-linecap="round" stroke-linejoin="round"/>
<path d="M87.1351 140.231H84.9819V141.721H87.1351V140.231Z" fill="white" stroke="#263238" stroke-linecap="round" stroke-linejoin="round"/>
<path d="M83.2404 139.484H80.0933V145.033H83.2404V139.484Z" fill="white" stroke="#263238" stroke-linecap="round" stroke-linejoin="round"/>
<path d="M81.5851 165.244C84.7363 165.244 87.2908 161.962 87.2908 157.913C87.2908 153.865 84.7363 150.583 81.5851 150.583C78.4339 150.583 75.8794 153.865 75.8794 157.913C75.8794 161.962 78.4339 165.244 81.5851 165.244Z" stroke="#263238" stroke-linecap="round" stroke-linejoin="round"/>
<path d="M63.604 151.577C63.6585 152.885 63.939 154.175 64.4328 155.388C65.2587 157.457 67.7361 159.03 67.7361 159.03L70.9674 157.21L75.1896 155.967C75.1896 155.967 77.5079 155.138 77.7572 155.066C78.0064 154.994 83.8863 155.397 85.1295 155.231C86.3728 155.066 87.5319 153.73 87.1986 152.994C86.8653 152.258 85.2947 151.916 85.2947 151.916C85.2947 151.916 85.0454 149.018 84.9644 148.688C84.8833 148.357 86.7842 148.439 86.8683 146.781C86.9524 145.123 86.1235 144.547 86.1235 144.547C86.1235 144.547 86.0394 142.475 84.8803 141.979C83.7211 141.484 82.2286 141.078 79.0815 141.646C75.9343 142.213 72.9524 143.147 70.7181 145.706C68.4839 148.264 67.3397 149.835 67.3397 149.835L63.604 151.577Z" fill="white" stroke="#263238" stroke-linecap="round" stroke-linejoin="round"/>
<path d="M85.3124 151.907C85.3124 151.907 82.4145 151.412 80.7568 151.826" stroke="#263238" stroke-linecap="round" stroke-linejoin="round"/>
<path d="M84.9822 148.679C84.9822 148.679 81.835 147.355 80.0933 147.778" stroke="#263238" stroke-linecap="round" stroke-linejoin="round"/>
<path d="M86.1416 144.538C86.1416 144.538 82.8383 142.964 79.7632 144.039" stroke="#263238" stroke-linecap="round" stroke-linejoin="round"/>
<path d="M107.294 146.601C107.294 146.601 112.081 147.82 114.475 155.087" stroke="#263238" stroke-linecap="round" stroke-linejoin="round"/>
<path d="M113.796 140.865C113.796 140.865 115.297 150.256 114.925 155.403" stroke="#263238" stroke-linecap="round" stroke-linejoin="round"/>
<path d="M121.517 143.229C121.517 143.229 116.775 147.607 115.874 155.147" stroke="#263238" stroke-linecap="round" stroke-linejoin="round"/>
<path d="M112.37 138.243C112.37 138.243 111.427 136.826 110.568 137.141C109.709 137.457 109.15 138.796 109.625 139.427C110.099 140.057 111.198 139.189 111.126 139.583C111.054 139.976 109.55 140.685 110.102 141.553C110.655 142.421 111.757 142.655 112.072 142.024C112.388 141.393 112.622 140.607 112.781 141.078C112.94 141.55 112.306 142.496 113.081 142.733C113.856 142.97 115.367 142.97 115.367 142.18C115.367 141.39 114.736 141.315 115.207 141.078C115.679 140.841 116.231 141.946 116.784 141.315C117.337 140.685 117.73 138.796 116.94 138.559C116.15 138.321 116.153 138.952 115.604 138.481C115.054 138.009 116.391 137.063 114.895 136.514C113.4 135.964 111.742 136.433 112.37 138.243Z" fill="white" stroke="#263238" stroke-linecap="round" stroke-linejoin="round"/>
<path d="M120.312 142.451C120.312 142.451 118.64 142.12 118.252 142.958C117.865 143.796 118.426 145.129 119.207 145.237C119.988 145.346 120.15 143.952 120.372 144.286C120.594 144.619 120.045 146.18 121.048 146.388C122.051 146.595 122.997 145.991 122.772 145.325C122.546 144.658 122.153 143.934 122.6 144.156C123.048 144.379 123.273 145.49 123.997 145.096C124.721 144.703 125.772 143.643 125.213 143.087C124.655 142.532 124.156 142.925 124.312 142.424C124.468 141.922 125.649 142.307 125.588 141.472C125.528 140.637 124.465 139.027 123.745 139.418C123.024 139.808 123.468 140.255 122.745 140.319C122.021 140.382 122.294 138.76 120.85 139.436C119.405 140.111 118.582 141.619 120.312 142.451Z" fill="white" stroke="#263238" stroke-linecap="round" stroke-linejoin="round"/>
<path d="M104.405 145.757C104.405 145.757 102.732 145.43 102.345 146.264C101.958 147.099 102.522 148.436 103.3 148.544C104.078 148.652 104.243 147.261 104.468 147.595C104.693 147.928 104.141 149.487 105.144 149.697C106.147 149.907 107.09 149.301 106.865 148.634C106.639 147.967 106.249 147.243 106.693 147.466C107.138 147.688 107.366 148.799 108.09 148.409C108.814 148.018 109.865 146.952 109.306 146.4C108.747 145.847 108.249 146.234 108.405 145.733C108.561 145.231 109.741 145.619 109.681 144.781C109.621 143.943 108.561 142.337 107.838 142.73C107.114 143.123 107.561 143.565 106.838 143.631C106.114 143.697 106.387 142.075 104.943 142.748C103.498 143.421 102.675 144.928 104.405 145.757Z" fill="white" stroke="#263238" stroke-linecap="round" stroke-linejoin="round"/>
<path d="M112.766 155.174C112.766 155.174 112.606 154.703 111.426 154.466C110.836 154.326 110.229 154.273 109.624 154.31C109.624 154.31 108.994 153.916 110.018 153.207L111.042 152.499C110.594 152.216 110.07 152.077 109.54 152.102C109.008 152.165 108.482 152.27 107.967 152.418C107.982 151.951 108.121 151.497 108.369 151.101C108.617 150.706 108.965 150.383 109.378 150.165C110.796 149.457 111.588 149.976 111.588 149.976L109.85 148.403C110.067 148.197 110.332 148.047 110.619 147.965C110.907 147.883 111.211 147.871 111.504 147.931C112.264 148.074 112.987 148.368 113.63 148.796C113.63 148.796 111.267 146.433 111.111 146.12C110.955 145.808 112.528 146.198 113.709 146.985C114.391 147.422 114.958 148.016 115.363 148.718C115.363 148.718 115.519 147.379 115.994 146.592C116.374 146.014 116.823 145.485 117.33 145.015C117.33 145.015 117.174 147.222 117.174 147.85C117.174 148.478 117.679 147.367 118.976 147.006C119.859 146.809 120.777 146.829 121.651 147.063C121.651 147.063 119.85 147.85 119.444 148.403C119.039 148.955 118.501 149.904 118.501 149.904C118.501 149.904 118.423 149.433 119.841 149.67C121.258 149.907 122.91 151.4 122.91 151.4C122.91 151.4 120.706 151.322 119.907 151.715C119.353 152.035 118.871 152.464 118.489 152.976C118.711 152.838 118.958 152.746 119.216 152.705C119.474 152.665 119.737 152.676 119.991 152.739C120.57 152.938 121.126 153.202 121.645 153.526C121.645 153.526 119.519 153.841 118.495 154.316C117.471 154.79 117.156 155.34 117.156 155.34L112.766 155.174Z" fill="#FFC100" stroke="#263238" stroke-linecap="round" stroke-linejoin="round"/>
<path d="M117.733 168.391H112.111C110.993 168.391 109.912 167.989 109.065 167.258C108.219 166.528 107.663 165.518 107.499 164.412L106.039 154.559H123.805L122.345 164.412C122.181 165.518 121.625 166.528 120.778 167.258C119.932 167.989 118.851 168.391 117.733 168.391Z" fill="#263238" stroke="#263238" stroke-linecap="round" stroke-linejoin="round"/>
<path d="M123.667 153.811H106.099C105.623 153.811 105.237 154.197 105.237 154.673V155.075C105.237 155.551 105.623 155.937 106.099 155.937H123.667C124.143 155.937 124.529 155.551 124.529 155.075V154.673C124.529 154.197 124.143 153.811 123.667 153.811Z" fill="#A1A1A1" stroke="#263238" stroke-linecap="round" stroke-linejoin="round"/>
<path d="M101.712 167.147C101.712 167.147 100.541 167.811 100.541 170.556C100.541 173.3 103.688 174.532 104.267 174.697C104.847 174.862 110.892 173.952 115.697 172.958C120.501 171.964 122.24 169.481 122.405 167.988C122.571 166.496 121.661 165.505 120.997 166.249C120.333 166.994 120.336 167.324 118.844 168.237C117.351 169.15 117.105 169.231 115.033 169.138C112.961 169.045 108.408 167.069 108.078 165.91C107.748 164.751 107.177 163.174 105.592 164.583C104.629 165.449 103.767 166.423 103.024 167.484L101.712 167.147Z" fill="white" stroke="#263238" stroke-linecap="round" stroke-linejoin="round"/>
<path d="M105.769 162.177C105.769 162.177 104.114 167.562 104.61 167.976C105.105 168.391 105.937 168.97 106.763 169.054C107.589 169.138 108.006 166.982 108.42 165.243C108.835 163.505 109.58 161.94 108.751 160.853C107.922 159.766 106.018 160.439 105.769 162.177Z" fill="white" stroke="#263238" stroke-linecap="round" stroke-linejoin="round"/>
<path d="M109.249 163.255C109.249 163.255 107.676 169.469 108.006 170.463C108.336 171.457 109.994 172.366 110.823 171.964C111.652 171.562 111.724 169.811 112.231 166.829C112.739 163.847 112.976 163.421 111.652 162.748C110.327 162.075 109.745 162.592 109.249 163.255Z" fill="white" stroke="#263238" stroke-linecap="round" stroke-linejoin="round"/>
<path d="M115.88 165.568C114.814 164.442 112.901 165.072 112.61 166.595C112.24 168.526 111.67 171.79 111.898 172.367C112.231 173.195 115.544 173.94 115.709 172.946C115.874 171.952 116.372 167.976 116.372 166.64C116.349 166.233 116.173 165.85 115.88 165.568Z" fill="white" stroke="#263238" stroke-linecap="round" stroke-linejoin="round"/>
<path d="M61.5408 111.24C61.5408 111.24 59.8862 103.042 60.3817 101.883C60.8771 100.724 66.3456 97.9071 73.718 97.3275C81.0904 96.7479 83.8231 97.823 84.1534 99.3155C84.4838 100.808 86.3907 109.252 86.3907 109.252L77.5258 110.91L69.4928 111.655L61.1264 112.069L61.5408 111.24Z" fill="white" stroke="#263238" stroke-linecap="round" stroke-linejoin="round"/>
<path d="M69.4921 111.655L77.5252 110.91L86.39 109.252C86.39 109.252 85.6423 105.949 85.0026 103.102C76.1108 105.382 65.6333 106.291 60.7144 106.613C61.0777 108.946 61.5402 111.24 61.5402 111.24L61.1258 112.069L69.4921 111.655Z" fill="#FFC100" stroke="#263238" stroke-linecap="round" stroke-linejoin="round"/>
<path d="M53.0122 111.159C53.0122 111.159 52.844 112.153 53.5077 112.153C54.1713 112.153 58.8921 113.147 70.4867 112.234C82.0813 111.322 87.3816 110.165 90.778 109.171C94.1743 108.177 95.2524 107.598 95.0843 106.853C94.9161 106.108 95.9131 106.355 94.9191 106.105C93.9251 105.856 92.9311 106.439 92.1053 106.685C91.6276 106.827 91.1575 106.993 90.6969 107.183L90.4476 106.024H89.4536V107.763L88.2104 108.259L88.3755 107.183L87.3816 106.853L86.8861 108.093L86.6368 108.673L82.5798 109.502V108L81.3365 107.916L81.0873 109.655L79.1834 109.988L77.3605 109.087L76.6158 109.595L77.6939 110.174L74.4626 110.589L72.805 110.754L71.7299 108.847L70.6518 108.931L71.3155 110.589L69.3275 110.919L69.823 109.76L68.2494 109.511L67.2554 110.835L62.6188 111.25L64.0272 110.09L63.6939 109.262L61.0452 110.496L60.7149 108.508H59.2134L59.4626 110.009L56.9972 108.673L56.0032 109.502L57.2464 111.241L53.0122 111.159Z" fill="white" stroke="#263238" stroke-linecap="round" stroke-linejoin="round"/>
<path d="M114.667 58.2126C114.254 58.2073 113.848 58.1397 113.446 58.0455C112.723 57.8757 112.023 57.6404 111.378 57.2614C110.846 56.949 110.383 56.5646 110.086 56.01C109.825 55.5214 109.784 55.008 109.932 54.4797C109.964 54.3673 109.982 54.2786 109.852 54.2153C109.802 54.1914 109.763 54.1362 109.732 54.087C109.68 54.0059 109.639 53.9177 109.591 53.834C109.584 53.822 109.566 53.8143 109.551 53.8087C109.387 53.7455 109.222 53.6829 109.037 53.6126C109.022 53.6747 109.008 53.7283 108.998 53.7825C108.941 54.1027 108.89 54.4239 108.829 54.7435C108.786 54.9743 108.727 55.2019 108.688 55.4334C108.68 55.4774 108.717 55.5561 108.755 55.5774C109.17 55.8035 109.475 56.1547 109.804 56.478C110.195 56.8623 110.588 57.245 110.982 57.6257C111.036 57.6772 111.101 57.72 111.166 57.7559C111.257 57.8054 111.335 57.8477 111.274 57.9759C111.261 58.004 111.298 58.0636 111.323 58.1017C111.414 58.2404 111.528 58.3676 111.469 58.5566C111.458 58.5901 111.488 58.638 111.503 58.6779C111.519 58.7231 111.562 58.7702 111.556 58.8103C111.529 58.9851 111.597 59.1276 111.676 59.2747C111.714 59.3435 111.733 59.4202 111.631 59.495C111.585 59.5294 111.611 59.6728 111.618 59.7659C111.622 59.8149 111.656 59.8618 111.682 59.9224C111.551 59.9526 111.482 59.8804 111.438 59.7993C111.342 59.6185 111.257 59.4305 111.319 59.2159C111.324 59.2005 111.33 59.1824 111.326 59.1686C111.269 58.9732 111.211 58.7778 111.151 58.5835C111.122 58.4922 111.063 58.4032 111.061 58.3119C111.057 58.1335 110.975 58.0102 110.85 57.8972C110.225 57.3296 109.603 56.7591 108.979 56.1912C108.824 56.0501 108.647 55.9295 108.515 55.77C108.425 55.6612 108.367 55.5058 108.347 55.3639C108.273 54.8538 108.365 54.3602 108.526 53.8753C108.567 53.7511 108.588 53.6175 108.598 53.4866C108.61 53.3249 108.49 53.2557 108.337 53.3086C107.885 53.4635 107.428 53.6054 106.978 53.7665C106.82 53.823 106.677 53.9199 106.511 54.0065C106.593 54.1396 106.672 54.2471 106.73 54.3647C106.994 54.9047 107.249 55.4493 107.515 55.9885C107.653 56.2676 107.805 56.5388 107.955 56.812C108.017 56.9266 108.128 57.0264 108.042 57.1786C108.034 57.1937 108.072 57.2385 108.093 57.2667C108.178 57.3833 108.233 57.5041 108.191 57.6556C108.176 57.7074 108.195 57.7693 108.2 57.8266C108.205 57.8895 108.211 57.9526 108.218 58.0155C108.228 58.1004 108.237 58.1858 108.252 58.2699C108.269 58.3701 108.33 58.4622 108.206 58.5563C108.155 58.5951 108.166 58.7216 108.159 58.809C108.156 58.8517 108.178 58.8962 108.189 58.94C108.176 58.9502 108.163 58.9601 108.149 58.9703C108.099 58.925 108.028 58.8891 108.002 58.8326C107.921 58.6602 107.875 58.4784 107.941 58.287C107.951 58.2574 107.964 58.2247 107.961 58.195C107.891 57.525 107.766 56.8807 107.387 56.2922C107.03 55.7385 106.734 55.1446 106.424 54.5618C106.328 54.3833 106.258 54.1874 106.205 53.992C106.187 53.9253 106.232 53.8077 106.289 53.7603C106.716 53.399 107.201 53.1452 107.757 53.039C107.824 53.0263 107.892 53.0185 107.994 53.0028C107.914 52.8859 107.851 52.7928 107.787 52.6989C107.431 52.9064 107.044 52.896 106.66 52.8568C105.877 52.7771 105.113 52.6123 104.377 52.3216C104.311 52.2959 104.223 52.3213 104.147 52.3301C103.879 52.3607 103.61 52.4272 103.343 52.4183C103.028 52.4081 102.714 52.3297 102.398 52.2913C102.342 52.2846 102.276 52.3223 102.221 52.3514C102.151 52.3881 102.088 52.4368 102.021 52.4809C101.93 52.2883 102.099 52.0511 102.32 52.0384C102.495 52.0285 102.66 52.0351 102.826 52.1254C102.925 52.1792 103.057 52.2689 103.183 52.1474C103.191 52.1397 103.214 52.1464 103.23 52.149C103.563 52.2022 103.883 52.1012 104.209 52.0749C104.406 52.0589 104.614 52.0901 104.808 52.1362C105.404 52.2764 105.994 52.4397 106.589 52.5812C106.733 52.6154 106.888 52.609 107.038 52.6087C107.165 52.6087 107.268 52.5626 107.355 52.4533C107.412 52.3839 107.524 52.3603 107.587 52.3292C107.537 51.9705 107.486 51.6029 107.437 51.2391C107.232 51.3842 106.979 51.4418 106.701 51.4404C106.264 51.4381 105.999 51.179 105.779 50.8531C105.666 50.685 105.561 50.5046 105.489 50.3158C105.397 50.0724 105.222 49.9397 104.996 49.8512C104.492 49.653 103.994 49.4444 103.448 49.3677C103.266 49.3421 103.095 49.1946 102.934 49.0816C102.582 48.8341 102.236 48.5749 101.988 48.2139C101.919 48.1131 101.851 48.0036 101.819 47.888C101.799 47.8156 101.824 47.6781 101.872 47.6527C101.939 47.6177 102.072 47.6297 102.132 47.6776C102.237 47.7631 102.31 47.889 102.393 48.0013C102.533 48.192 102.671 48.3842 102.808 48.5766C103.077 48.954 103.411 49.1946 103.893 49.2779C104.271 49.3434 104.628 49.5387 104.993 49.6809C105.198 49.7607 105.243 49.7281 105.227 49.5131C105.218 49.3822 105.196 49.2679 105.111 49.1556C105.065 49.0947 105.091 48.9792 105.084 48.8723C105.33 48.9844 105.366 48.9817 105.526 48.7631C105.56 48.7167 105.517 48.6136 105.508 48.5119C105.587 48.4708 105.683 48.4753 105.809 48.543C105.933 48.6094 106.091 48.6319 106.234 48.6357C106.313 48.6379 106.338 48.5449 106.3 48.4587C106.226 48.2916 106.148 48.1256 106.089 47.9533C105.987 47.6543 105.875 47.3559 105.809 47.0483C105.757 46.8061 105.649 46.6143 105.464 46.4678C105.135 46.2081 104.796 45.9611 104.463 45.7076C104.395 45.6558 104.306 45.6109 104.27 45.5409C104.232 45.4651 104.21 45.3457 104.245 45.2791C104.271 45.2306 104.419 45.1968 104.479 45.2255C104.661 45.3127 104.861 45.4025 104.992 45.5476C105.314 45.9062 105.605 46.2924 105.898 46.6765C105.955 46.7517 105.974 46.8655 105.986 46.9644C106.052 47.5177 106.289 48.0149 106.497 48.5203C106.564 48.6843 106.697 48.8046 106.879 48.8854C107.132 48.9978 107.37 49.1482 107.6 49.3045C108.124 49.6603 108.12 50.3267 107.891 50.7439C107.868 50.7856 107.843 50.8259 107.832 50.8443C108.192 50.8934 108.556 50.9431 108.904 50.9904C108.969 50.9036 109.06 50.8015 109.126 50.6846C109.171 50.6041 109.209 50.5001 109.199 50.4122C109.16 50.0612 109.122 49.7074 109.044 49.364C108.94 48.9091 108.789 48.4652 108.679 48.011C108.643 47.8661 108.662 47.7035 108.677 47.5515C108.705 47.252 108.737 46.953 108.761 46.6534C108.781 46.405 108.695 46.2188 108.628 46.0073C108.545 45.7419 108.672 45.4768 108.902 45.402C108.948 45.387 109 45.3886 109.053 45.3823C109.055 45.4206 109.063 45.4436 109.055 45.451C108.859 45.6455 108.892 45.8769 108.936 46.1182C108.963 46.264 108.956 46.4155 108.964 46.5646C108.975 46.7583 108.998 46.9526 108.992 47.1458C108.988 47.2828 108.939 47.418 108.923 47.5554C108.913 47.6459 108.903 47.7479 108.933 47.8297C109.249 48.6888 109.453 49.5702 109.463 50.4867C109.466 50.7242 109.446 50.9703 109.285 51.1843C109.378 51.2514 109.47 51.3177 109.592 51.4058C109.608 51.309 109.617 51.2433 109.629 51.1782C109.73 50.6272 109.982 50.1486 110.327 49.7144C110.419 49.5985 110.514 49.5815 110.663 49.6324C111.495 49.9156 112.21 50.4216 112.975 50.833C113.197 50.9527 113.42 51.0709 113.645 51.1853C113.702 51.214 113.766 51.2348 113.828 51.2415C114.076 51.267 114.332 51.2577 114.571 51.3156C114.741 51.3567 114.893 51.3271 115.054 51.324C115.169 51.3216 115.29 51.3535 115.397 51.3969C115.463 51.4233 115.508 51.5003 115.562 51.5548L115.53 51.5977C115.486 51.5864 115.439 51.5603 115.398 51.5669C115.306 51.582 115.216 51.6118 115.126 51.6393C115.082 51.6522 115.032 51.6982 115.001 51.6864C114.826 51.6183 114.646 51.6076 114.462 51.6196C114.369 51.6255 114.272 51.629 114.183 51.6089C114.048 51.5785 113.917 51.5267 113.79 51.4771C113.697 51.4612 113.594 51.4658 113.513 51.4256C112.801 51.0751 112.091 50.7192 111.383 50.3597C111.126 50.2289 110.875 50.0844 110.589 49.9283C110.51 50.0881 110.418 50.249 110.349 50.4184C110.238 50.6896 110.135 50.9645 110.04 51.2417C109.975 51.4315 109.912 51.6249 109.88 51.8219C109.866 51.9042 109.915 52.0223 110.048 52.0075C110.184 51.9921 110.324 51.979 110.453 51.9368C110.943 51.776 111.44 51.6846 111.958 51.7498C112.154 51.7744 112.306 51.8577 112.448 52.0169C113.146 52.7994 113.86 53.5668 114.576 54.3329C114.637 54.3992 114.75 54.4201 114.842 54.4542C114.891 54.4725 114.949 54.4675 115 54.4839C115.234 54.5602 115.466 54.6416 115.699 54.7181C115.733 54.7291 115.775 54.7333 115.809 54.7242C116.024 54.666 116.213 54.7475 116.391 54.848C116.459 54.8862 116.499 54.9742 116.551 55.0397C116.538 55.0535 116.525 55.0675 116.511 55.0813C116.474 55.0675 116.438 55.0521 116.401 55.0397C116.276 54.9994 116.161 54.9563 116.04 55.0798C116.003 55.1178 115.857 55.0931 115.793 55.0498C115.687 54.9785 115.588 54.9487 115.465 54.9672C115.426 54.973 115.383 54.9487 115.341 54.9414C115.239 54.9242 115.135 54.9181 115.036 54.8901C114.94 54.8631 114.84 54.8287 114.76 54.7716C114.658 54.6988 114.565 54.6427 114.443 54.7118C113.984 53.9821 113.292 53.4843 112.729 52.8654C112.531 52.6484 112.365 52.4025 112.179 52.1744C112.147 52.135 112.086 52.0933 112.04 52.0945C111.913 52.0976 111.781 52.1063 111.659 52.1417C111.222 52.2682 110.795 52.4381 110.326 52.4069C110.292 52.4048 110.257 52.4288 110.197 52.4494C110.345 52.6866 110.311 53.0185 110.65 53.1259C110.715 53.1467 110.781 53.2107 110.816 53.2721C110.875 53.3742 110.94 53.3756 111.041 53.3471C111.975 53.0833 112.727 53.4047 113.354 54.0935C113.891 54.682 114.199 55.3995 114.45 56.139C114.582 56.528 114.667 56.9351 114.746 57.3396C114.793 57.5794 114.786 57.8293 114.804 58.075L114.667 58.2115L114.667 58.2126Z" fill="#1F1E1E"/>
<path d="M133.145 37.0894C132.925 36.9982 132.722 36.8752 132.528 36.7391C132.177 36.4936 131.854 36.2182 131.59 35.8777C131.372 35.597 131.207 35.2924 131.167 34.9326C131.131 34.6154 131.219 34.3322 131.411 34.0815C131.452 34.0281 131.481 33.9847 131.425 33.923C131.404 33.8997 131.394 33.8617 131.388 33.8287C131.378 33.7743 131.375 33.7184 131.367 33.6634C131.366 33.6555 131.358 33.6474 131.351 33.6414C131.277 33.5724 131.202 33.5037 131.118 33.4265C131.097 33.4566 131.078 33.4821 131.061 33.5091C130.962 33.6682 130.866 33.8288 130.766 33.9868C130.693 34.1009 130.613 34.2101 130.542 34.3254C130.529 34.3473 130.532 34.3972 130.548 34.4168C130.721 34.6263 130.809 34.8792 130.916 35.1225C131.043 35.4115 131.171 35.7001 131.3 35.988C131.318 36.0269 131.343 36.0636 131.371 36.0968C131.409 36.1427 131.442 36.1821 131.382 36.2375C131.369 36.2497 131.376 36.2895 131.381 36.3152C131.4 36.4088 131.434 36.5013 131.361 36.5896C131.349 36.6053 131.354 36.6371 131.354 36.6617C131.353 36.6894 131.366 36.7238 131.354 36.7439C131.302 36.8316 131.308 36.9223 131.319 37.0179C131.324 37.0626 131.318 37.1078 131.248 37.126C131.215 37.1344 131.199 37.2166 131.183 37.268C131.174 37.295 131.183 37.3274 131.183 37.3654C131.107 37.3536 131.085 37.3001 131.08 37.2475C131.067 37.1303 131.061 37.0115 131.14 36.91C131.146 36.9028 131.154 36.8946 131.154 36.8863C131.165 36.7696 131.176 36.6528 131.186 36.5359C131.19 36.481 131.177 36.4207 131.196 36.3715C131.232 36.2753 131.214 36.1919 131.172 36.1048C130.959 35.6678 130.748 35.2298 130.536 34.7928C130.484 34.6843 130.414 34.5818 130.378 34.4683C130.353 34.391 130.356 34.2955 130.375 34.2153C130.444 33.9268 130.599 33.6827 130.789 33.4577C130.837 33.4002 130.877 33.3332 130.91 33.2654C130.952 33.1815 130.902 33.1188 130.809 33.1143C130.534 33.1006 130.26 33.0788 129.985 33.0687C129.888 33.0652 129.791 33.0863 129.683 33.0972C129.699 33.1858 129.718 33.2601 129.724 33.3354C129.75 33.6807 129.77 34.0262 129.797 34.3714C129.811 34.55 129.834 34.7277 129.856 34.9056C129.865 34.9803 129.902 35.0573 129.824 35.1204C129.816 35.1266 129.827 35.1588 129.832 35.1783C129.853 35.2588 129.857 35.3352 129.802 35.4071C129.783 35.4318 129.78 35.4689 129.77 35.5005C129.759 35.5353 129.749 35.5702 129.739 35.6054C129.726 35.6529 129.713 35.7005 129.703 35.7486C129.691 35.8059 129.703 35.8681 129.617 35.892C129.582 35.9018 129.56 35.9717 129.538 36.0171C129.527 36.0392 129.53 36.0678 129.526 36.0935C129.517 36.0961 129.508 36.0986 129.498 36.1012C129.481 36.0662 129.451 36.0319 129.449 35.996C129.443 35.8866 129.457 35.7795 129.533 35.6913C129.545 35.6776 129.559 35.663 129.563 35.6465C129.669 35.2732 129.74 34.9021 129.663 34.5064C129.591 34.134 129.56 33.7533 129.518 33.3754C129.505 33.2595 129.51 33.1399 129.523 33.0241C129.528 32.9845 129.577 32.9314 129.617 32.918C129.923 32.8163 130.237 32.7843 130.556 32.8463C130.595 32.8538 130.633 32.8641 130.691 32.8776C130.673 32.798 130.659 32.7347 130.645 32.6708C130.41 32.7056 130.206 32.6174 130.009 32.5144C129.607 32.3044 129.234 32.0529 128.903 31.7401C128.873 31.7124 128.821 31.7072 128.778 31.6956C128.628 31.6546 128.47 31.6327 128.33 31.571C128.163 31.498 128.012 31.389 127.851 31.301C127.823 31.2853 127.779 31.2914 127.744 31.2952C127.699 31.2999 127.654 31.3125 127.609 31.3218C127.602 31.1994 127.743 31.1087 127.864 31.1492C127.959 31.1812 128.046 31.2201 128.116 31.3037C128.157 31.3536 128.209 31.4299 128.302 31.3919C128.308 31.3895 128.319 31.3981 128.327 31.4028C128.493 31.5024 128.686 31.5168 128.866 31.5723C128.975 31.6059 129.079 31.6671 129.173 31.7333C129.462 31.9356 129.742 32.149 130.03 32.3519C130.1 32.4009 130.184 32.4306 130.264 32.4625C130.332 32.4896 130.397 32.487 130.467 32.4473C130.512 32.4222 130.577 32.4337 130.617 32.4304C130.667 32.2281 130.719 32.0207 130.77 31.8155C130.629 31.8493 130.482 31.8262 130.334 31.7659C130.101 31.6713 130.014 31.4761 129.966 31.2548C129.942 31.1407 129.924 31.0219 129.926 30.9057C129.929 30.7558 129.864 30.6473 129.762 30.5518C129.535 30.3381 129.313 30.1201 129.037 29.9623C128.946 29.9099 128.886 29.7943 128.824 29.6995C128.689 29.492 128.559 29.2794 128.504 29.0335C128.488 28.9648 128.475 28.8917 128.483 28.823C128.488 28.7801 128.531 28.7119 128.562 28.7087C128.605 28.7043 128.674 28.7392 128.695 28.7774C128.733 28.8457 128.746 28.9287 128.766 29.0064C128.8 29.1383 128.832 29.2704 128.865 29.4027C128.928 29.662 129.055 29.8619 129.295 30.0094C129.483 30.1254 129.632 30.3061 129.797 30.4601C129.889 30.5466 129.92 30.5387 129.958 30.4205C129.981 30.3485 129.993 30.2827 129.972 30.2045C129.961 30.1621 129.999 30.106 130.018 30.0473C130.126 30.1598 130.146 30.166 130.278 30.0834C130.306 30.0659 130.305 30.0016 130.322 29.9451C130.373 29.9402 130.423 29.9631 130.476 30.0262C130.528 30.0882 130.608 30.1339 130.684 30.1667C130.725 30.1847 130.759 30.1403 130.757 30.086C130.753 29.981 130.747 29.8756 130.752 29.7708C130.761 29.5891 130.765 29.4056 130.796 29.2271C130.82 29.0866 130.803 28.9609 130.735 28.8429C130.615 28.6338 130.487 28.4294 130.363 28.2225C130.337 28.1803 130.3 28.1374 130.295 28.0923C130.291 28.0436 130.305 27.9752 130.338 27.947C130.362 27.9265 130.448 27.9401 130.474 27.9684C130.553 28.0538 130.641 28.1447 130.68 28.2501C130.775 28.5106 130.848 28.7794 130.923 29.0473C130.937 29.0998 130.923 29.1647 130.908 29.2201C130.825 29.5299 130.846 29.8465 130.849 30.1612C130.85 30.2632 130.895 30.3559 130.975 30.438C131.086 30.5521 131.182 30.6835 131.271 30.8162C131.475 31.1185 131.33 31.4737 131.119 31.6479C131.098 31.6653 131.076 31.6815 131.066 31.6891C131.248 31.7923 131.432 31.8966 131.608 31.9962C131.661 31.9637 131.732 31.9287 131.792 31.8801C131.833 31.8468 131.875 31.7993 131.889 31.7502C131.943 31.5542 131.999 31.357 132.03 31.1567C132.072 30.8913 132.086 30.6216 132.124 30.3552C132.136 30.2702 132.181 30.1874 132.221 30.1092C132.3 29.9551 132.382 29.8021 132.458 29.6471C132.522 29.5186 132.516 29.4005 132.525 29.2732C132.538 29.1135 132.662 28.999 132.801 29.0082C132.829 29.01 132.856 29.0219 132.886 29.03C132.879 29.0508 132.878 29.0648 132.873 29.0671C132.726 29.1291 132.694 29.2598 132.666 29.3983C132.649 29.482 132.614 29.5616 132.586 29.643C132.55 29.7488 132.521 29.8576 132.476 29.9596C132.445 30.032 132.39 30.0938 132.352 30.164C132.327 30.2102 132.3 30.2625 132.299 30.3127C132.284 30.8394 132.205 31.3542 132.014 31.8466C131.965 31.9741 131.902 32.1013 131.77 32.1814C131.805 32.2371 131.841 32.2923 131.887 32.3655C131.916 32.317 131.935 32.2839 131.955 32.2516C132.127 31.9786 132.364 31.7767 132.641 31.6182C132.715 31.5759 132.77 31.5872 132.838 31.6462C133.223 31.9756 133.497 32.399 133.818 32.7824C133.911 32.8939 134.005 33.0047 134.101 33.114C134.125 33.1414 134.155 33.1662 134.187 33.1831C134.314 33.2497 134.452 33.2994 134.568 33.3816C134.65 33.4399 134.738 33.4565 134.824 33.4894C134.886 33.5126 134.944 33.5555 134.992 33.6016C135.022 33.6298 135.029 33.6805 135.047 33.7214L135.02 33.7374C134.999 33.722 134.98 33.6979 134.956 33.6927C134.904 33.6811 134.849 33.6777 134.795 33.6731C134.769 33.6708 134.732 33.6846 134.719 33.6717C134.639 33.5978 134.546 33.5537 134.445 33.5207C134.394 33.5041 134.341 33.4852 134.298 33.4553C134.232 33.4102 134.173 33.3546 134.116 33.301C134.07 33.2725 134.013 33.253 133.979 33.2142C133.673 32.8745 133.369 32.5325 133.068 32.189C132.958 32.0641 132.855 31.9333 132.735 31.7885C132.659 31.8571 132.576 31.9236 132.502 31.9993C132.385 32.1206 132.272 32.2457 132.161 32.3735C132.086 32.461 132.011 32.551 131.952 32.6494C131.927 32.6904 131.928 32.7641 132.002 32.7846C132.078 32.8054 132.156 32.8284 132.233 32.8333C132.53 32.8521 132.815 32.9096 133.078 33.0551C133.178 33.1101 133.241 33.1871 133.283 33.3027C133.489 33.8701 133.707 34.4331 133.925 34.9957C133.944 35.0443 134 35.0796 134.042 35.1175C134.064 35.1378 134.096 35.1474 134.12 35.167C134.229 35.2578 134.335 35.3509 134.444 35.4418C134.459 35.4549 134.481 35.4661 134.501 35.4684C134.629 35.4834 134.712 35.5674 134.786 35.6592C134.814 35.6941 134.816 35.7496 134.83 35.7958C134.82 35.8003 134.81 35.805 134.8 35.8096C134.783 35.7943 134.767 35.7783 134.75 35.7637C134.692 35.7154 134.639 35.6678 134.549 35.708C134.521 35.7205 134.448 35.676 134.423 35.6391C134.381 35.5784 134.335 35.5412 134.265 35.5248C134.243 35.5196 134.225 35.4974 134.205 35.4847C134.154 35.4537 134.099 35.4281 134.052 35.3919C134.007 35.357 133.961 35.3172 133.93 35.2696C133.891 35.209 133.854 35.1591 133.774 35.1699C133.684 34.6817 133.42 34.2676 133.252 33.8164C133.193 33.6581 133.156 33.491 133.105 33.3293C133.097 33.3014 133.073 33.2662 133.048 33.2569C132.98 33.2313 132.907 33.2079 132.835 33.2007C132.574 33.1749 132.309 33.1744 132.065 33.0575C132.047 33.0492 132.024 33.0545 131.987 33.0526C132.015 33.2111 131.926 33.3814 132.085 33.5112C132.115 33.5362 132.136 33.5845 132.142 33.6248C132.152 33.692 132.186 33.7066 132.246 33.7129C132.802 33.7715 133.135 34.1042 133.324 34.6066C133.485 35.0359 133.496 35.4853 133.472 35.9344C133.46 36.1706 133.418 36.4064 133.374 36.6395C133.348 36.7778 133.291 36.91 133.247 37.045L133.145 37.0888L133.145 37.0894Z" fill="#6C5F5F"/>
<path d="M129.19 50.3335C129.03 50.2671 128.883 50.1776 128.741 50.0785C128.486 49.8997 128.25 49.6993 128.058 49.4513C127.899 49.247 127.779 49.0252 127.75 48.7632C127.724 48.5323 127.788 48.3261 127.928 48.1435C127.958 48.1047 127.979 48.073 127.938 48.0281C127.922 48.0111 127.916 47.9835 127.911 47.9595C127.903 47.9198 127.901 47.8791 127.896 47.8391C127.895 47.8334 127.889 47.8275 127.884 47.8231C127.83 47.7729 127.776 47.7228 127.714 47.6667C127.699 47.6886 127.685 47.7072 127.673 47.7267C127.601 47.8426 127.531 47.9595 127.458 48.0746C127.405 48.1577 127.347 48.2372 127.295 48.3211C127.285 48.3371 127.287 48.3734 127.299 48.3877C127.425 48.5402 127.489 48.7243 127.567 48.9015C127.659 49.1119 127.753 49.322 127.847 49.5316C127.86 49.56 127.879 49.5867 127.898 49.6109C127.926 49.6442 127.95 49.6729 127.906 49.7133C127.897 49.7222 127.902 49.7512 127.906 49.7699C127.919 49.838 127.944 49.9053 127.892 49.9697C127.882 49.9811 127.886 50.0043 127.886 50.0221C127.885 50.0423 127.895 50.0674 127.886 50.082C127.848 50.1459 127.853 50.2119 127.861 50.2815C127.864 50.314 127.86 50.347 127.809 50.3602C127.785 50.3663 127.773 50.4262 127.761 50.4636C127.755 50.4832 127.761 50.5068 127.762 50.5345C127.707 50.5259 127.691 50.487 127.686 50.4487C127.677 50.3633 127.673 50.2768 127.731 50.2029C127.735 50.1977 127.74 50.1917 127.741 50.1857C127.749 50.1007 127.757 50.0157 127.764 49.9306C127.767 49.8906 127.757 49.8467 127.771 49.8109C127.797 49.7408 127.784 49.6801 127.753 49.6167C127.599 49.2985 127.445 48.9796 127.291 48.6614C127.252 48.5824 127.202 48.5078 127.175 48.4252C127.157 48.3689 127.159 48.2994 127.173 48.241C127.224 48.0309 127.337 47.8532 127.475 47.6894C127.51 47.6475 127.539 47.5987 127.563 47.5493C127.593 47.4883 127.557 47.4426 127.489 47.4394C127.289 47.4293 127.089 47.4135 126.889 47.4062C126.819 47.4036 126.748 47.419 126.67 47.4269C126.681 47.4914 126.695 47.5455 126.699 47.6003C126.718 47.8517 126.733 48.1033 126.752 48.3546C126.762 48.4847 126.78 48.614 126.795 48.7436C126.802 48.7979 126.829 48.854 126.772 48.8999C126.767 48.9045 126.775 48.9279 126.778 48.9421C126.793 49.0007 126.796 49.0564 126.756 49.1087C126.742 49.1267 126.74 49.1537 126.733 49.1767C126.725 49.202 126.717 49.2274 126.71 49.2531C126.701 49.2876 126.691 49.3223 126.684 49.3573C126.675 49.3991 126.684 49.4443 126.622 49.4617C126.596 49.4689 126.58 49.5198 126.564 49.5528C126.556 49.5689 126.558 49.5897 126.555 49.6085C126.549 49.6104 126.542 49.6121 126.535 49.614C126.523 49.5886 126.501 49.5636 126.499 49.5375C126.495 49.4578 126.505 49.3798 126.56 49.3156C126.569 49.3057 126.579 49.295 126.583 49.283C126.659 49.0112 126.711 48.741 126.655 48.4529C126.602 48.1818 126.58 47.9046 126.549 47.6294C126.54 47.5451 126.543 47.4579 126.553 47.3737C126.557 47.3448 126.592 47.3061 126.622 47.2964C126.844 47.2224 127.073 47.199 127.306 47.2442C127.334 47.2497 127.361 47.2572 127.403 47.267C127.391 47.2091 127.38 47.1629 127.37 47.1164C127.199 47.1418 127.05 47.0775 126.907 47.0026C126.615 46.8497 126.343 46.6665 126.101 46.4388C126.08 46.4186 126.042 46.4149 126.011 46.4064C125.902 46.3765 125.787 46.3606 125.684 46.3157C125.563 46.2625 125.453 46.1832 125.336 46.1191C125.315 46.1077 125.283 46.1121 125.257 46.1148C125.225 46.1183 125.193 46.1275 125.16 46.1343C125.154 46.0451 125.257 45.9791 125.345 46.0086C125.415 46.0318 125.478 46.0602 125.528 46.1211C125.558 46.1574 125.596 46.2129 125.664 46.1853C125.668 46.1835 125.676 46.1898 125.682 46.1932C125.803 46.2657 125.943 46.2762 126.074 46.3166C126.154 46.3411 126.23 46.3856 126.298 46.4338C126.508 46.5811 126.713 46.7365 126.922 46.8842C126.973 46.9199 127.034 46.9416 127.093 46.9648C127.142 46.9845 127.189 46.9826 127.24 46.9537C127.273 46.9354 127.321 46.9438 127.35 46.9414C127.386 46.7941 127.424 46.6431 127.461 46.4937C127.359 46.5183 127.251 46.5015 127.143 46.4576C126.974 46.3887 126.911 46.2466 126.876 46.0855C126.858 46.0024 126.845 45.9159 126.847 45.8313C126.849 45.7221 126.801 45.6432 126.727 45.5736C126.562 45.418 126.4 45.2593 126.2 45.1444C126.133 45.1062 126.089 45.0221 126.044 44.9531C125.946 44.802 125.851 44.6472 125.811 44.4681C125.8 44.4181 125.79 44.3649 125.796 44.3149C125.799 44.2837 125.83 44.234 125.853 44.2317C125.885 44.2284 125.935 44.2539 125.95 44.2817C125.978 44.3314 125.987 44.3918 126.002 44.4484C126.027 44.5444 126.05 44.6407 126.074 44.7369C126.12 44.9258 126.212 45.0713 126.387 45.1787C126.524 45.2631 126.632 45.3947 126.752 45.5068C126.82 45.5698 126.842 45.5641 126.87 45.478C126.886 45.4256 126.896 45.3777 126.88 45.3208C126.872 45.2899 126.9 45.249 126.914 45.2063C126.992 45.2882 127.006 45.2927 127.103 45.2326C127.123 45.2198 127.123 45.173 127.135 45.1319C127.172 45.1283 127.208 45.145 127.247 45.1909C127.285 45.236 127.343 45.2694 127.398 45.2932C127.428 45.3063 127.453 45.274 127.451 45.2345C127.448 45.158 127.444 45.0813 127.448 45.005C127.455 44.8727 127.457 44.739 127.48 44.6091C127.497 44.5068 127.485 44.4153 127.436 44.3294C127.348 44.1772 127.255 44.0283 127.164 43.8777C127.146 43.8469 127.118 43.8157 127.115 43.7829C127.112 43.7474 127.122 43.6976 127.146 43.6771C127.164 43.6622 127.227 43.672 127.246 43.6926C127.303 43.7548 127.367 43.821 127.395 43.8978C127.465 44.0874 127.518 44.2832 127.572 44.4782C127.583 44.5164 127.572 44.5637 127.562 44.604C127.501 44.8296 127.516 45.0601 127.518 45.2892C127.519 45.3635 127.552 45.431 127.61 45.4907C127.691 45.5738 127.761 45.6695 127.826 45.7661C127.974 45.9862 127.869 46.2449 127.715 46.3717C127.7 46.3843 127.684 46.3962 127.676 46.4016C127.809 46.4768 127.943 46.5527 128.071 46.6253C128.11 46.6016 128.161 46.5761 128.205 46.5408C128.235 46.5165 128.266 46.4819 128.276 46.4461C128.315 46.3034 128.356 46.1599 128.378 46.014C128.409 45.8208 128.419 45.6244 128.447 45.4305C128.456 45.3686 128.488 45.3083 128.518 45.2513C128.575 45.1391 128.634 45.0278 128.69 44.9149C128.737 44.8213 128.732 44.7354 128.739 44.6427C128.748 44.5264 128.839 44.443 128.94 44.4497C128.96 44.4511 128.98 44.4597 129.002 44.4656C128.997 44.4808 128.996 44.4909 128.992 44.4926C128.885 44.5378 128.862 44.6329 128.842 44.7338C128.829 44.7947 128.803 44.8526 128.783 44.9119C128.757 44.989 128.736 45.0682 128.703 45.1425C128.681 45.1952 128.64 45.2401 128.613 45.2912C128.595 45.3249 128.575 45.363 128.574 45.3995C128.563 45.783 128.505 46.1579 128.367 46.5163C128.331 46.6091 128.285 46.7018 128.189 46.7601C128.215 46.8007 128.24 46.8409 128.274 46.8941C128.295 46.8588 128.309 46.8347 128.324 46.8112C128.449 46.6125 128.622 46.4654 128.823 46.3501C128.877 46.3192 128.917 46.3275 128.967 46.3704C129.247 46.6102 129.446 46.9185 129.68 47.1977C129.748 47.2789 129.816 47.3595 129.886 47.4391C129.904 47.459 129.925 47.4771 129.949 47.4895C130.041 47.5379 130.142 47.5741 130.226 47.6339C130.286 47.6764 130.35 47.6885 130.413 47.7124C130.458 47.7293 130.5 47.7606 130.535 47.7941C130.557 47.8147 130.562 47.8516 130.575 47.8813L130.556 47.893C130.54 47.8818 130.526 47.8643 130.509 47.8605C130.471 47.852 130.431 47.8495 130.392 47.8462C130.373 47.8445 130.346 47.8546 130.336 47.8452C130.278 47.7914 130.21 47.7593 130.136 47.7352C130.099 47.7232 130.061 47.7094 130.029 47.6876C129.982 47.6548 129.939 47.6143 129.897 47.5753C129.863 47.5545 129.822 47.5403 129.797 47.512C129.574 47.2647 129.354 47.0157 129.134 46.7656C129.054 46.6747 128.979 46.5795 128.892 46.474C128.836 46.524 128.776 46.5724 128.722 46.6275C128.637 46.7158 128.554 46.8069 128.474 46.8999C128.419 46.9636 128.365 47.0292 128.321 47.1008C128.303 47.1307 128.304 47.1844 128.358 47.1992C128.413 47.2145 128.47 47.2312 128.527 47.2348C128.742 47.2485 128.95 47.2903 129.141 47.3962C129.214 47.4363 129.26 47.4923 129.291 47.5765C129.44 47.9896 129.599 48.3995 129.758 48.8091C129.772 48.8446 129.813 48.8702 129.843 48.8978C129.86 48.9126 129.883 48.9196 129.9 48.9339C129.979 49 130.057 49.0678 130.136 49.134C130.147 49.1435 130.163 49.1516 130.177 49.1533C130.27 49.1643 130.331 49.2254 130.385 49.2922C130.405 49.3176 130.407 49.358 130.417 49.3917C130.41 49.395 130.403 49.3984 130.395 49.4017C130.383 49.3906 130.371 49.3789 130.359 49.3683C130.316 49.3332 130.278 49.2985 130.212 49.3278C130.192 49.3368 130.139 49.3044 130.121 49.2776C130.09 49.2334 130.056 49.2063 130.006 49.1944C129.99 49.1906 129.977 49.1744 129.962 49.1652C129.925 49.1426 129.885 49.124 129.851 49.0976C129.818 49.0722 129.784 49.0432 129.762 49.0086C129.734 48.9644 129.706 48.9281 129.648 48.936C129.583 48.5806 129.391 48.279 129.268 47.9505C129.225 47.8352 129.198 47.7136 129.161 47.5959C129.155 47.5755 129.138 47.5499 129.12 47.5432C129.07 47.5246 129.017 47.5075 128.964 47.5023C128.774 47.4835 128.582 47.4831 128.404 47.398C128.391 47.3919 128.374 47.3958 128.347 47.3944C128.368 47.5098 128.303 47.6338 128.418 47.7283C128.44 47.7465 128.456 47.7816 128.46 47.811C128.467 47.8599 128.492 47.8706 128.536 47.8752C128.94 47.9179 129.183 48.1601 129.32 48.5259C129.437 48.8384 129.446 49.1656 129.428 49.4926C129.419 49.6646 129.389 49.8363 129.357 50.006C129.338 50.1067 129.296 50.2029 129.265 50.3013L129.19 50.3331L129.19 50.3335Z" fill="#6C5F5F"/>
<path d="M108.668 25.7082C108.504 25.8813 108.317 26.0268 108.12 26.1601C107.766 26.4003 107.394 26.6049 106.982 26.7302C106.642 26.8336 106.298 26.88 105.948 26.7891C105.639 26.7093 105.405 26.5265 105.24 26.2576C105.204 26.2004 105.174 26.1579 105.096 26.1884C105.067 26.2 105.028 26.1951 104.995 26.1892C104.94 26.1796 104.887 26.1625 104.833 26.1501C104.825 26.1484 104.815 26.1532 104.807 26.157C104.716 26.2021 104.625 26.2475 104.523 26.2985C104.544 26.3288 104.561 26.356 104.58 26.3812C104.693 26.53 104.809 26.6773 104.921 26.8274C105.002 26.9358 105.076 27.0494 105.158 27.1564C105.174 27.1768 105.221 27.1921 105.245 27.1841C105.503 27.0967 105.77 27.1046 106.036 27.0912C106.351 27.0756 106.667 27.0585 106.982 27.0399C107.024 27.0373 107.068 27.0266 107.108 27.0128C107.165 26.9937 107.213 26.9769 107.244 27.0528C107.251 27.0694 107.29 27.0769 107.316 27.0812C107.41 27.0969 107.509 27.0981 107.566 27.197C107.576 27.2145 107.607 27.2207 107.63 27.2299C107.656 27.2405 107.693 27.2407 107.707 27.259C107.771 27.3385 107.858 27.3653 107.951 27.3892C107.994 27.4003 108.034 27.4219 108.026 27.4942C108.023 27.5274 108.094 27.5723 108.136 27.6055C108.158 27.6231 108.191 27.6267 108.227 27.6394C108.189 27.7065 108.131 27.7078 108.08 27.6945C107.966 27.6647 107.853 27.6276 107.786 27.5176C107.782 27.5097 107.777 27.4997 107.769 27.496C107.664 27.4442 107.559 27.3924 107.453 27.3422C107.403 27.3187 107.342 27.3091 107.303 27.2744C107.226 27.2064 107.141 27.193 107.045 27.2018C106.561 27.245 106.077 27.2859 105.593 27.3287C105.473 27.3392 105.352 27.3675 105.233 27.3611C105.152 27.3568 105.064 27.3205 104.996 27.2738C104.751 27.1062 104.578 26.8744 104.435 26.6174C104.398 26.5515 104.35 26.4905 104.299 26.4352C104.235 26.3669 104.159 26.3908 104.121 26.4764C104.011 26.7282 103.893 26.977 103.785 27.2304C103.748 27.3193 103.733 27.4178 103.705 27.5219C103.793 27.5391 103.869 27.5476 103.942 27.569C104.274 27.6676 104.603 27.7722 104.936 27.8698C105.108 27.9203 105.282 27.9614 105.456 28.0048C105.529 28.023 105.614 28.0151 105.645 28.1108C105.648 28.1202 105.683 28.1213 105.702 28.1236C105.785 28.1331 105.858 28.1567 105.905 28.2338C105.922 28.2602 105.955 28.2763 105.981 28.2966C106.01 28.3189 106.039 28.3412 106.068 28.3627C106.108 28.3916 106.148 28.421 106.189 28.4476C106.239 28.4792 106.301 28.4896 106.293 28.5787C106.289 28.6155 106.347 28.6603 106.382 28.6971C106.398 28.7152 106.426 28.723 106.449 28.7353C106.448 28.7449 106.447 28.7546 106.446 28.7642C106.407 28.7678 106.364 28.7837 106.33 28.7729C106.226 28.7397 106.131 28.6885 106.075 28.586C106.067 28.5701 106.058 28.5518 106.044 28.5415C105.733 28.3099 105.411 28.1114 105.014 28.0425C104.641 27.9778 104.274 27.8712 103.906 27.7755C103.793 27.7462 103.683 27.6994 103.579 27.6456C103.544 27.6273 103.512 27.5623 103.514 27.52C103.528 27.1979 103.609 26.8936 103.781 26.6168C103.802 26.5835 103.825 26.5518 103.858 26.5024C103.777 26.4905 103.713 26.4811 103.649 26.4715C103.598 26.7032 103.442 26.863 103.276 27.0103C102.937 27.3108 102.569 27.5703 102.159 27.7685C102.122 27.7862 102.099 27.8334 102.073 27.8692C101.981 27.9946 101.904 28.1344 101.797 28.2438C101.669 28.3737 101.513 28.4759 101.374 28.5948C101.349 28.616 101.339 28.6586 101.33 28.6933C101.319 28.7371 101.315 28.7828 101.307 28.8282C101.19 28.7916 101.156 28.6275 101.237 28.5289C101.3 28.4512 101.368 28.3838 101.471 28.3488C101.532 28.3279 101.622 28.3068 101.619 28.206C101.619 28.1998 101.631 28.1924 101.638 28.1867C101.791 28.0665 101.873 27.8917 101.989 27.7435C102.059 27.6537 102.153 27.5778 102.248 27.5134C102.54 27.3159 102.839 27.1297 103.131 26.9328C103.202 26.8852 103.26 26.8171 103.318 26.7536C103.368 26.6997 103.388 26.6382 103.376 26.5584C103.369 26.5075 103.403 26.4506 103.414 26.4121C103.243 26.2931 103.067 26.1711 102.894 26.0504C102.875 26.1938 102.801 26.3231 102.692 26.4403C102.521 26.6245 102.307 26.6358 102.084 26.6017C101.968 26.5842 101.851 26.5583 101.743 26.5149C101.604 26.459 101.479 26.4816 101.354 26.5425C101.073 26.6788 100.791 26.8084 100.545 27.0098C100.464 27.0766 100.334 27.0917 100.224 27.1158C99.9814 27.1684 99.7367 27.2138 99.4872 27.1779C99.4175 27.1679 99.3445 27.154 99.2831 27.1224C99.2448 27.1026 99.1962 27.0384 99.2044 27.008C99.2156 26.9661 99.2727 26.9143 99.316 26.9079C99.3934 26.8966 99.4753 26.9147 99.5551 26.9234C99.6905 26.9385 99.8256 26.9552 99.9606 26.9721C100.226 27.0053 100.457 26.9579 100.681 26.7863C100.856 26.6516 101.078 26.5765 101.281 26.4775C101.394 26.4219 101.398 26.3901 101.301 26.3128C101.242 26.2657 101.185 26.2304 101.104 26.2225C101.06 26.2183 101.022 26.1621 100.974 26.1235C101.117 26.0631 101.13 26.0468 101.1 25.8937C101.094 25.8611 101.033 25.839 100.986 25.8035C101 25.7539 101.039 25.715 101.117 25.6881C101.193 25.6615 101.264 25.6035 101.322 25.5441C101.354 25.5116 101.324 25.4648 101.273 25.4473C101.173 25.4134 101.073 25.3815 100.977 25.3393C100.81 25.2661 100.64 25.1972 100.484 25.105C100.361 25.0325 100.238 25.0034 100.103 25.0248C99.8652 25.0626 99.6285 25.1098 99.3909 25.1522C99.3425 25.1609 99.289 25.1808 99.2454 25.1686C99.1983 25.1554 99.1394 25.1179 99.1248 25.0771C99.1142 25.0474 99.1576 24.9715 99.1933 24.9572C99.301 24.9143 99.4173 24.8644 99.5296 24.8658C99.807 24.8693 100.084 24.8964 100.361 24.9225C100.415 24.9275 100.471 24.9637 100.517 24.9974C100.777 25.1853 101.081 25.2787 101.376 25.3878C101.472 25.4232 101.574 25.4139 101.679 25.3684C101.826 25.3052 101.982 25.2628 102.138 25.2265C102.493 25.1432 102.774 25.4052 102.861 25.6649C102.87 25.6907 102.877 25.717 102.881 25.7288C103.042 25.5955 103.205 25.4609 103.361 25.332C103.349 25.2707 103.342 25.1919 103.318 25.1187C103.301 25.0682 103.272 25.0116 103.231 24.9815C103.067 24.8611 102.903 24.7389 102.727 24.6382C102.493 24.5047 102.246 24.3957 102.011 24.2652C101.936 24.2236 101.874 24.1521 101.816 24.0867C101.7 23.958 101.586 23.8277 101.468 23.7006C101.371 23.5953 101.258 23.5593 101.143 23.505C100.998 23.4367 100.935 23.2794 100.993 23.1528C101.005 23.1274 101.026 23.1062 101.044 23.0811C101.061 23.0954 101.074 23.1011 101.074 23.1071C101.079 23.2662 101.19 23.3425 101.31 23.4179C101.382 23.4634 101.444 23.5253 101.51 23.58C101.596 23.6511 101.687 23.7172 101.767 23.7951C101.823 23.8501 101.861 23.9237 101.913 23.9839C101.948 24.0235 101.987 24.0676 102.033 24.0867C102.52 24.2882 102.973 24.5455 103.366 24.8986C103.467 24.99 103.564 25.0946 103.592 25.2459C103.656 25.2329 103.72 25.2196 103.805 25.2024C103.77 25.1581 103.746 25.1285 103.723 25.0981C103.529 24.8405 103.425 24.5469 103.375 24.2316C103.362 24.1475 103.392 24.1005 103.472 24.0573C103.916 23.8153 104.41 23.7097 104.882 23.5464C105.019 23.4989 105.156 23.4506 105.293 23.3999C105.327 23.3873 105.361 23.3682 105.388 23.3444C105.495 23.2493 105.591 23.1374 105.709 23.0586C105.793 23.0027 105.839 22.9267 105.901 22.8572C105.945 22.8078 106.006 22.7689 106.066 22.7405C106.103 22.7229 106.153 22.734 106.197 22.7322L106.203 22.7625C106.181 22.7767 106.151 22.7864 106.138 22.8063C106.108 22.8514 106.086 22.9012 106.062 22.95C106.051 22.9734 106.051 23.0127 106.034 23.0211C105.936 23.069 105.862 23.1407 105.795 23.2235C105.762 23.265 105.725 23.3075 105.682 23.3375C105.616 23.3829 105.543 23.4179 105.473 23.4524C105.43 23.4856 105.392 23.531 105.343 23.5497C104.917 23.7146 104.489 23.8763 104.061 24.036C103.905 24.094 103.746 24.1436 103.568 24.2041C103.605 24.2999 103.637 24.4013 103.682 24.4968C103.754 24.6497 103.83 24.8002 103.91 24.9487C103.965 25.0505 104.023 25.1523 104.094 25.243C104.123 25.2809 104.192 25.3061 104.238 25.2441C104.284 25.1804 104.333 25.116 104.366 25.045C104.489 24.7748 104.644 24.5284 104.874 24.3347C104.96 24.2613 105.055 24.2295 105.178 24.2313C105.781 24.241 106.385 24.2378 106.989 24.2336C107.041 24.2333 107.094 24.1937 107.144 24.1682C107.171 24.1544 107.191 24.1279 107.218 24.1129C107.342 24.0436 107.467 23.9771 107.59 23.9079C107.608 23.8981 107.626 23.8819 107.635 23.8641C107.695 23.7499 107.803 23.7018 107.915 23.6656C107.958 23.6518 108.01 23.6694 108.058 23.6728C108.059 23.6838 108.06 23.6948 108.061 23.7058C108.04 23.716 108.02 23.7254 108 23.7364C107.934 23.7736 107.871 23.8055 107.876 23.9047C107.878 23.9352 107.81 23.9875 107.767 23.9978C107.696 24.0149 107.644 24.0453 107.604 24.1045C107.591 24.1234 107.564 24.132 107.545 24.1467C107.498 24.1831 107.455 24.2251 107.404 24.256C107.355 24.2861 107.302 24.3152 107.246 24.3266C107.176 24.3413 107.116 24.3588 107.097 24.4375C106.61 24.3472 106.129 24.4464 105.647 24.4433C105.478 24.4424 105.309 24.4169 105.14 24.4068C105.11 24.4051 105.069 24.4142 105.052 24.4343C105.003 24.4895 104.956 24.5487 104.923 24.6141C104.806 24.8487 104.711 25.0957 104.515 25.2822C104.501 25.2957 104.498 25.32 104.483 25.3534C104.641 25.3833 104.769 25.527 104.946 25.4255C104.98 25.406 105.033 25.4032 105.073 25.4121C105.139 25.4271 105.165 25.4 105.192 25.3463C105.445 24.8478 105.874 24.6546 106.411 24.6575C106.869 24.6599 107.293 24.8092 107.705 24.9914C107.921 25.0871 108.126 25.2099 108.329 25.3342C108.448 25.4079 108.552 25.5083 108.663 25.5967L108.667 25.7078L108.668 25.7082Z" fill="#6C5F5F"/>
<path d="M95.5616 18.1646C83.2722 28.0836 81.3506 46.0869 91.2697 58.3766C101.189 70.666 119.192 72.5878 131.482 62.6684C143.771 52.7495 145.693 34.7461 135.774 22.4565C125.855 10.1671 107.851 8.24529 95.5616 18.1646ZM129.262 59.9191C118.491 68.6125 102.712 66.9284 94.0189 56.1576C85.3256 45.3868 87.0097 29.6076 97.7805 20.9142C108.551 12.2209 124.33 13.905 133.024 24.6758C141.717 35.4466 140.033 51.2258 129.262 59.9191Z" fill="#263238"/>
<path opacity="0.2" d="M137.73 46.903C141.313 33.5332 133.378 19.7907 120.008 16.2082C106.639 12.6258 92.8961 20.5601 89.3137 33.9299C85.7313 47.2997 93.6655 61.0422 107.035 64.6246C120.405 68.2071 134.148 60.2728 137.73 46.903Z" fill="#FFC100"/>
<path d="M160.979 70.2251L159.705 72.167C159.111 73.0742 158.061 73.4227 157.394 72.9344L134.818 56.3985C134.195 55.9416 134.134 54.9146 134.681 54.0596C135.246 53.1762 136.251 52.8003 136.932 53.2171L160.78 67.811C161.477 68.2374 161.567 69.3276 160.978 70.2249L160.979 70.2251Z" fill="#263238"/>
</g>
<defs>
<clipPath id="clip0_171_19937">
<rect width="210" height="210" fill="white"/>
</clipPath>
</defs>
</svg>
