<svg width="121" height="120" viewBox="0 0 121 120" fill="none" xmlns="http://www.w3.org/2000/svg">
<g clip-path="url(#clip0_896_32964)">
<path d="M11.0255 111.363L11.173 111.428H115.536C116.265 110.742 116.724 109.616 117.098 108.534C121.717 95.1147 121.528 77.2705 117.17 62.38C115.236 55.7819 112.483 49.7675 108.967 44.984C102.79 36.591 94.0643 32.0195 85.3198 29.1861C75.5508 26.0205 65.0405 24.7699 55.5101 28.95C45.9796 33.1301 38.4431 42.1659 29.3897 47.5791C25.1959 50.0867 20.7138 50.9896 16.6916 54.1662C12.7216 57.2967 9.35758 61.5289 6.85052 66.547C6.55194 67.1489 6.26595 67.7603 5.99254 68.3812C1.70778 78.2653 1.01968 90.5804 4.17533 101.14C5.46745 105.46 7.62099 109.763 11.0255 111.363Z" fill="#FFD000"/>
<path opacity="0.7" d="M11.0255 111.363L11.173 111.428H115.536C116.265 110.742 116.724 109.616 117.098 108.534C121.717 95.1147 121.528 77.2705 117.17 62.38C115.236 55.7819 112.483 49.7675 108.967 44.984C102.79 36.591 94.0643 32.0195 85.3198 29.1861C75.5508 26.0205 65.0405 24.7699 55.5101 28.95C45.9796 33.1301 38.4431 42.1659 29.3897 47.5791C25.1959 50.0867 20.7138 50.9896 16.6916 54.1662C12.7216 57.2967 9.35758 61.5289 6.85052 66.547C6.55194 67.1489 6.26595 67.7603 5.99254 68.3812C1.70778 78.2653 1.01968 90.5804 4.17533 101.14C5.46745 105.46 7.62099 109.763 11.0255 111.363Z" fill="white"/>
<g opacity="0.3">
<path d="M96.5195 46.5518C100.14 46.5518 103.613 47.9901 106.173 50.5505C108.734 53.1108 110.172 56.5834 110.172 60.2043V109.311H82.8652V60.2043C82.8652 56.5834 84.3036 53.1108 86.864 50.5505C89.4243 47.9901 92.8969 46.5518 96.5177 46.5518H96.5195Z" stroke="black" stroke-linecap="round" stroke-linejoin="round"/>
<path d="M85.9482 109.164V60.6453C85.9482 57.8418 87.0619 55.1531 89.0443 53.1708C91.0266 51.1884 93.7153 50.0747 96.5188 50.0747C99.322 50.0752 102.01 51.189 103.992 53.1714C105.974 55.1537 107.088 57.8421 107.088 60.6453V109.164" stroke="black" stroke-linecap="round" stroke-linejoin="round"/>
<path d="M96.5195 46.5518V109.237" stroke="black" stroke-linecap="round" stroke-linejoin="round"/>
<path d="M83.0127 58.6274H109.988" stroke="black" stroke-linecap="round" stroke-linejoin="round"/>
<path d="M83.0127 67.1421H109.988" stroke="black" stroke-linecap="round" stroke-linejoin="round"/>
<path d="M83.0127 75.6567H109.988" stroke="black" stroke-linecap="round" stroke-linejoin="round"/>
<path d="M83.0127 84.1699H109.988" stroke="black" stroke-linecap="round" stroke-linejoin="round"/>
<path d="M83.0127 92.6846H109.988" stroke="black" stroke-linecap="round" stroke-linejoin="round"/>
<path d="M83.0127 101.2H109.988" stroke="black" stroke-linecap="round" stroke-linejoin="round"/>
<path d="M86.6201 50.8125L89.0654 53.0399" stroke="black" stroke-linecap="round" stroke-linejoin="round"/>
<path d="M106.316 50.8125L103.869 53.0399" stroke="black" stroke-linecap="round" stroke-linejoin="round"/>
</g>
<path d="M78.5366 59.3072C81.1224 57.7446 83.5316 55.2204 83.5316 55.2204C83.5316 55.2204 81.7003 55.7998 79.478 56.6388C82.4187 54.1049 85.0714 50.2489 85.0714 50.2489C85.0714 50.2489 82.8543 51.5134 80.2479 53.1914C81.5529 51.4232 82.7596 49.5176 83.8574 47.4915C83.8574 47.4915 80.7074 50.0157 77.6346 52.8596C79.8243 49.2368 81.4773 44.4456 81.4773 44.4456C81.4773 44.4456 78.6515 47.7776 76.0056 51.3523C77.7889 47.1213 78.8332 41.5079 78.8332 41.5079C78.8332 41.5079 76.7395 45.1668 74.735 49.1695C75.7981 44.6932 76.0708 39.4765 76.0708 39.4765C76.0708 39.4765 74.6373 43.2099 73.238 47.3977C73.6478 42.9407 73.3341 38.2625 73.3341 38.2625C73.3341 38.2625 72.4098 42.08 71.5456 46.4001C71.4223 43.4706 71.1078 40.5632 70.6059 37.7144C70.6059 37.7144 69.9097 43.484 69.5582 48.9219C69.0438 43.8446 66.9192 37.9355 66.9192 37.9355C66.9192 37.9355 67.0495 41.8276 67.3599 46.2029C66.5042 43.6082 65.4862 41.1247 64.318 38.7817C64.318 38.7817 64.8873 42.6786 65.6898 46.9866C64.5408 44.5683 63.2386 42.3001 61.799 40.2097C61.799 40.2097 63.2497 45.6164 64.8855 50.5326C62.6187 46.5347 58.7125 42.9743 58.7125 42.9743C58.7125 42.9743 60.4272 46.6861 62.4095 50.5085C59.7876 47.7439 56.5588 45.7798 56.5588 45.7798C56.5588 45.7798 58.8051 49.2272 61.3103 52.6192C58.325 50.4364 54.688 49.232 54.688 49.232C54.688 49.232 57.3664 52.1168 60.2798 54.843C57.0509 53.4126 53.2716 53.1265 53.2716 53.1265C53.2716 53.1265 55.5985 54.8093 58.349 56.5498C56.4038 56.3021 54.4473 56.2844 52.5 56.4969C52.5 56.4969 56.1232 58.2398 59.7413 59.5861C58.1354 59.7404 56.5415 60.0821 54.9761 60.6078C54.9761 60.6078 56.1935 60.9035 57.8568 61.2328C56.8768 61.5387 55.9084 61.9142 54.9555 62.3579C54.9555 62.3579 58.5856 62.7978 61.8899 62.8219C62.2449 62.8219 62.6135 62.8219 62.9873 62.8026C60.8593 63.6128 58.6679 65.4278 58.6679 65.4278C58.6679 65.4278 61.4338 64.9855 63.9133 64.3027C66.0447 63.7138 68.7026 62.5045 69.4004 62.1776V62.2161L69.4159 62.1704H69.4433C69.4433 62.2185 69.4433 62.2449 69.4433 62.2449C69.4433 62.2449 69.4433 62.2161 69.4622 62.1608H69.4862C69.4948 62.1992 69.4999 62.2281 69.5033 62.2449L69.6954 111.429L70.2801 111.402L70.0898 62.3387C71.4496 63.3003 74.1383 65.1369 76.3314 66.1154C79.4042 67.4833 83.8077 67.113 83.8077 67.113C83.8077 67.113 80.776 65.5192 77.7186 64.2282C80.7623 64.358 84.2672 63.0623 84.2672 63.0623C84.2672 63.0623 80.7606 62.2641 77.4408 61.8603C80.5531 61.2256 84.1283 58.6918 84.1283 58.6918C84.1283 58.6918 81.4225 58.8697 78.5366 59.3072Z" fill="#B2B2B2"/>
<path d="M70.1524 88.8477C70.5746 86.0609 70.324 83.0665 70.324 83.0665C70.324 83.0665 69.7063 84.8409 69.037 87.0459C69.0593 83.5899 68.1275 79.8833 68.1275 79.8833C68.1275 79.8833 67.7209 82.2428 67.3571 85.0914C66.9761 83.3151 66.4598 81.5706 65.8127 79.873C65.8127 79.873 65.6702 83.4972 65.7595 87.1764C64.7299 83.9486 62.7015 80.7413 62.7015 80.7413C62.7015 80.7413 63.2249 84.3981 63.992 87.9949C62.3721 84.8838 59.5304 81.8773 59.5304 81.8773C59.5304 81.8773 60.6423 85.0382 62.0031 88.2574C59.853 85.6663 56.8363 83.4646 56.8363 83.4646C56.8363 83.4646 58.3395 86.0918 60.1378 88.8597C57.6531 86.8297 54.6466 85.3282 54.6466 85.3282C54.6466 85.3282 56.469 87.559 58.6278 89.9202C56.7887 88.9169 54.8616 88.084 52.8706 87.432C52.8706 87.432 55.9988 90.2034 59.1048 92.5509C55.7586 91.07 51.0533 90.6461 51.0533 90.6461C51.0533 90.6461 53.4815 92.0052 56.2957 93.3917C54.2705 93.1378 52.2268 93.0637 50.1885 93.1703C50.1885 93.1703 52.85 94.1588 55.8839 95.1026C53.809 95.1679 51.7442 95.4206 49.7148 95.8576C49.7148 95.8576 53.7577 96.6641 57.6085 97.1326C53.9877 97.5479 49.7663 99.5144 49.7663 99.5144C49.7663 99.5144 52.9186 99.4664 56.2871 99.2175C53.2292 100.41 50.3292 102.414 50.3292 102.414C50.3292 102.414 53.6085 101.804 56.989 100.956C54.0855 102.668 51.4308 105.302 51.4308 105.302C51.4308 105.302 54.59 104.112 57.7903 102.672C55.2163 104.873 53.0422 107.978 53.0422 107.978C53.0422 107.978 55.2901 106.632 57.8024 104.956C56.6236 106.515 55.5777 108.169 54.6758 109.903C54.6758 109.903 57.6496 107.484 60.3781 104.927C59.6222 106.348 58.9863 107.83 58.4767 109.357C58.4767 109.357 59.2987 108.436 60.3798 107.147C60.0443 108.095 59.7579 109.06 59.5218 110.037C59.5218 110.037 61.708 107.12 63.4686 104.323C63.6591 104.021 63.8496 103.705 64.0383 103.382C63.4034 105.495 63.3433 108.041 63.3433 108.041C63.3433 108.041 64.5445 105.526 65.4369 103.163C66.2091 101.129 66.8817 98.4144 67.055 97.6954L67.0774 97.7126L67.0585 97.6817V97.6543L67.1048 97.68L67.0636 97.6319V97.6062L67.122 97.6234L70.3069 99.1969L70.1662 98.2566L67.5063 97.1532C68.8122 96.3638 71.3433 94.7714 73.0954 93.2767C75.551 91.1832 77.6565 87.3033 77.6565 87.3033C77.6565 87.3033 75.0825 89.2767 72.6921 91.3909C74.3807 88.8546 75.4514 85.3848 75.4514 85.3848C75.4514 85.3848 73.1108 88.0618 71.1117 90.7302C72.3746 87.8473 72.7281 83.8662 72.7281 83.8662C72.7281 83.8662 71.4154 86.2325 70.1524 88.8477Z" fill="#B2B2B2"/>
<path d="M77.8125 92.7135C78.8198 93.849 79.8993 94.8252 81.0346 95.627C81.0346 95.627 80.2219 94.2435 79.1808 92.6089C81.1318 94.2775 83.5224 95.2373 83.5224 95.2373C83.5224 95.2373 82.3109 93.757 80.8114 92.0806C81.9363 92.5978 83.0853 92.9825 84.2483 93.2314C84.2483 93.2314 82.2393 91.3745 80.1265 89.6954C82.2768 90.3362 84.7271 90.1086 84.7271 90.1086C84.7271 90.1086 82.4915 88.8167 80.2151 87.7548C82.4813 87.8333 85.0713 86.7898 85.0713 86.7898C85.0713 86.7898 82.9345 86.2484 80.687 85.8927C82.8238 85.265 85.0099 83.6958 85.0099 83.6958C85.0099 83.6958 83.0538 83.7481 80.9205 83.9887C82.2217 83.1478 83.4674 82.117 84.6402 80.9105C84.6402 80.9105 82.8119 81.4335 80.7995 82.1789C81.9407 81.0594 83.0125 79.7812 84.0012 78.3605C84.0012 78.3605 81.4504 79.7571 79.1535 81.342C81.0278 79.1399 82.7318 75.2509 82.7318 75.2509C82.7318 75.2509 81.2067 76.7129 79.5454 78.4965C80.3199 76.8549 80.9984 75.1115 81.5731 73.2868C81.5731 73.2868 80.1844 75.1306 78.7054 77.317C79.3178 75.4836 79.8213 73.5693 80.2099 71.5972C80.2099 71.5972 78.4941 74.7357 77.0321 77.8479C77.9233 74.4977 78.1226 69.8894 78.1226 69.8894C78.1226 69.8894 77.1701 72.6538 76.2619 75.7007C76.423 73.4734 76.4372 71.2267 76.3045 68.995C76.3045 68.995 75.6229 72.1334 75.0589 75.481C74.9925 72.1386 74.3262 68.5713 74.3262 68.5713C74.3262 68.5713 74.0178 71.8875 73.8372 75.3712C73.3908 72.0811 72.3037 68.7073 72.3037 68.7073C72.3037 68.7073 72.3667 71.3043 72.5337 74.291C72.0183 72.5209 71.4061 70.8209 70.7037 69.2094C70.7037 69.2094 71.1501 72.952 71.7533 76.5481C71.183 75.2123 70.5412 73.9517 69.8347 72.7794C69.8347 72.7794 70.1005 73.9327 70.4941 75.4889C70.0636 74.7466 69.6086 74.0386 69.1309 73.3678C69.1309 73.3678 70.1039 76.6632 71.1399 79.5322C71.2506 79.8408 71.3716 80.1573 71.4943 80.4763C70.7598 79.3939 69.9468 78.4444 69.0713 77.6465C69.0713 77.6465 70.1243 79.8879 71.1842 81.7971C72.0004 83.2083 72.8662 84.5503 73.7776 85.8169H73.7622H73.7844L73.798 85.8378L73.7691 85.8639H73.8099L73.8219 85.8822L73.7946 85.9267L70.5963 88.9003L70.7923 89.3973L73.9411 86.4681C73.982 87.9797 74.0979 90.9403 74.3978 93.1791C74.8204 96.3175 76.3641 99.9999 76.3641 99.9999C76.3641 99.9999 76.0455 96.8222 75.5923 93.723C76.5039 96.4038 78.1345 98.9877 78.1345 98.9877C78.1345 98.9877 77.3456 95.6767 76.4579 92.6638C77.6983 95.1379 79.847 97.3505 79.847 97.3505C79.847 97.3505 78.9013 95.0621 77.8125 92.7135Z" fill="#B2B2B2"/>
<path d="M70.1522 104.37C69.7076 105.547 69.3828 106.766 69.1827 108.008C69.1827 108.008 69.8382 106.979 70.5898 105.678C70.063 107.864 70.1042 110.352 70.1042 110.352C70.1042 110.352 70.7117 108.918 71.3655 107.166C71.3424 108.348 71.41 109.531 71.5679 110.703C71.5679 110.703 72.1977 108.427 72.6868 106.081C72.8584 108.281 73.67 110.615 73.67 110.615C73.67 110.615 73.8811 108.213 73.9292 105.826C74.4937 108.038 75.8545 110.366 75.8545 110.366C75.8545 110.366 75.6194 108.197 75.235 105.956C76.2114 107.917 77.797 109.76 77.797 109.76C77.797 109.76 77.2342 107.873 76.5066 105.851C77.3912 106.961 78.3802 107.983 79.4598 108.904C79.4598 108.904 78.6344 107.222 77.6168 105.402C78.6339 106.311 79.7322 107.125 80.8978 107.833C80.8978 107.833 79.326 105.613 77.7044 103.663C79.6057 105.1 82.5263 106.066 82.5263 106.066C82.5263 106.066 81.1896 104.844 79.6091 103.547C80.8553 104.008 82.1399 104.358 83.4478 104.592C83.4478 104.592 81.9034 103.571 80.1239 102.521C81.4476 102.788 82.7926 102.936 84.1428 102.962C84.1428 102.962 81.6992 101.85 79.338 100.983C81.6958 101.256 84.6576 100.64 84.6576 100.64C84.6576 100.64 82.6619 100.206 80.4826 99.8625C81.9341 99.6255 83.3581 99.2432 84.7331 98.7214C84.7331 98.7214 82.5641 98.6219 80.2955 98.6562C82.389 98.0024 84.4637 96.7274 84.4637 96.7274C84.4637 96.7274 82.2844 97.0123 80.0416 97.4516C82.0012 96.4374 83.8391 94.7935 83.8391 94.7935C83.8391 94.7935 82.2157 95.3083 80.3727 95.9947C81.3516 95.1819 82.2603 94.2881 83.0892 93.3229C83.0892 93.3229 80.8464 94.4142 78.7357 95.6343C79.427 94.8456 80.0515 94.0007 80.6027 93.1084C80.6027 93.1084 79.9437 93.57 79.0583 94.2272C79.4108 93.6758 79.7344 93.1065 80.0278 92.5215C80.0278 92.5215 78.2089 94.0453 76.6765 95.5571C76.5049 95.7201 76.3436 95.8917 76.1754 96.0719C76.6611 95.1684 77.0412 94.212 77.308 93.2216C77.308 93.2216 76.1771 94.639 75.2573 96.0033C74.5863 97.0442 73.9727 98.1212 73.4195 99.2293L73.4075 99.2139V99.2362V99.2534L73.3818 99.2311L73.4006 99.2671L73.3921 99.2825L73.3577 99.2619L70.6121 101.836L70.3513 102.112L73.0557 99.5022C72.1102 99.8093 70.2706 100.443 68.9373 101.131C67.0686 102.092 65.1621 104.238 65.1621 104.238C65.1621 104.238 67.084 103.37 68.915 102.385C67.4684 103.742 66.2758 105.781 66.2758 105.781C66.2758 105.781 68.1634 104.431 69.8193 103.035C68.5924 104.676 67.7756 107.154 67.7756 107.154C67.7756 107.154 68.9631 105.841 70.1522 104.37Z" fill="#B2B2B2"/>
<path opacity="0.5" d="M120.5 108.857C120.5 108.891 82.7844 108.785 39.7085 108.785C-3.36737 108.785 0.942223 108.891 0.942223 108.857C0.942223 108.823 -3.38359 108.659 39.7085 108.659C82.8007 108.659 120.5 108.82 120.5 108.857Z" fill="#263238"/>
<path d="M14.6472 37.8074V41.5627H13.7892V37.4412C13.7892 36.9731 13.6532 36.5242 13.4112 36.1932C13.1692 35.8622 12.841 35.6763 12.4987 35.6763C12.3294 35.6763 12.1616 35.7219 12.0052 35.8107C11.8487 35.8994 11.7066 36.0294 11.5869 36.1934C11.4672 36.3573 11.3723 36.5519 11.3076 36.766C11.243 36.9801 11.2098 37.2096 11.21 37.4412V42.5531H10.419V39.8376C10.419 39.6711 10.395 39.5063 10.3484 39.3526C10.3018 39.1988 10.2336 39.0591 10.1475 38.9414C10.0615 38.8237 9.95934 38.7303 9.84692 38.6666C9.73449 38.603 9.614 38.5702 9.49231 38.5702C9.3707 38.5702 9.25029 38.603 9.13796 38.6667C9.02563 38.7304 8.92359 38.8238 8.83768 38.9415C8.75177 39.0593 8.68368 39.199 8.6373 39.3527C8.59092 39.5065 8.56716 39.6712 8.56738 39.8376V43.9989C8.56738 44.2149 8.63012 44.422 8.74179 44.5748C8.85346 44.7275 9.00491 44.8133 9.16284 44.8133H11.2083V47.8997H13.7823V43.9097H15.567C15.7599 43.9097 15.945 43.8049 16.0814 43.6182C16.2179 43.4316 16.2945 43.1785 16.2945 42.9145V37.8074C16.2945 37.5074 16.2074 37.2196 16.0523 37.0075C15.8972 36.7953 15.6868 36.6761 15.4674 36.6761C15.2493 36.6786 15.0406 36.7989 14.887 37.0108C14.7334 37.2226 14.6472 37.509 14.6472 37.8074Z" fill="#FFD000"/>
<path d="M14.7915 47.644H10.2578V53.3919H14.7915V47.644Z" fill="#B2B2B2"/>
<path d="M15.0588 46.2803H9.98633V48.1297H15.0588V46.2803Z" fill="#B2B2B2"/>
<path d="M13.3691 68.9996L11.7148 65.3828L12.8182 65.5331L12.7067 63.4207L13.9199 65.5331L14.0297 59.0482L14.9118 63.2705L16.0151 57.8418L16.3446 64.1741L18.5497 61.008L17.007 65.9837L18.5497 65.2303L15.5741 69.7554L13.3691 68.9996Z" fill="#FFD000"/>
<path d="M17.0581 69.4927H12.5244V75.2406H17.0581V69.4927Z" fill="#B2B2B2"/>
<path d="M17.3254 68.1289H12.2529V69.9784H17.3254V68.1289Z" fill="#B2B2B2"/>
<path d="M36.8498 68.9996L35.1973 65.3828L36.2989 65.5331L36.1891 63.4207L37.4023 65.5331L37.5122 59.0482L38.3942 63.2705L39.4959 57.8418L39.827 64.1741L42.0321 61.008L40.4894 65.9837L42.0321 65.2303L39.0548 69.7554L36.8498 68.9996Z" fill="#FFD000"/>
<path d="M40.5395 69.4927H36.0059V75.2406H40.5395V69.4927Z" fill="#B2B2B2"/>
<path d="M40.8088 68.1289H35.7363V69.9784H40.8088V68.1289Z" fill="#B2B2B2"/>
<path d="M25.3856 68.2459C24.6094 68.2301 23.8353 68.1296 23.0707 67.9455C21.8575 67.6428 21.6361 66.5866 22.1887 66.2862C22.7412 65.9857 24.6134 66.4364 24.6134 66.4364C24.6134 66.4364 22.1887 66.4364 21.8575 64.4766C21.5263 62.5168 22.7395 62.667 23.0707 63.12C23.4019 63.573 24.2822 64.4766 24.2822 64.4766C24.2822 64.4766 22.4083 61.9136 22.4083 60.4045C22.4083 58.8953 23.6215 59.0479 23.9527 59.9538C24.2839 60.8598 25.0561 63.5706 25.0561 63.5706C25.0561 63.5706 23.8429 58.7475 25.3873 59.5009C26.9317 60.2543 26.5988 62.5168 26.5988 62.9674V64.9296C26.5988 64.9296 28.1432 60.8575 28.694 61.7634C29.2449 62.6694 27.9218 64.3287 27.9218 64.3287C27.9218 64.3287 28.694 60.4068 30.5679 60.5594C32.4418 60.7119 30.6795 62.5192 30.3483 63.2726C30.0171 64.026 28.5842 65.6853 28.5842 65.6853C28.5842 65.6853 31.7811 63.7255 33.3238 63.7255C34.8665 63.7255 33.4354 66.1383 32.5533 66.2885C31.6713 66.4387 30.0171 66.7415 30.0171 66.7415C30.0171 66.7415 32.2221 68.0981 31.3401 68.3985C30.4581 68.6989 28.2513 68.0981 28.2513 68.0981L25.3856 68.2459Z" fill="#FFD000"/>
<path d="M28.9634 69.4927H24.4297V75.2406H28.9634V69.4927Z" fill="#B2B2B2"/>
<path d="M29.2327 68.1289H24.1602V69.9784H29.2327V68.1289Z" fill="#B2B2B2"/>
<path d="M32.2116 40.4173V43.2056H32.8482V40.1545C32.8482 39.8078 32.9489 39.4752 33.1281 39.2301C33.3074 38.9849 33.5505 38.8472 33.804 38.8472C34.0575 38.8472 34.3006 38.9849 34.4799 39.2301C34.6591 39.4752 34.7598 39.8078 34.7598 40.1545V43.9403H35.3467V41.9312C35.3467 41.6822 35.419 41.4434 35.5477 41.2673C35.6765 41.0913 35.851 40.9924 36.0331 40.9924C36.2151 40.9924 36.3897 41.0913 36.5184 41.2673C36.6472 41.4434 36.7195 41.6822 36.7195 41.9312V45.0129C36.7195 45.1728 36.673 45.3263 36.5903 45.4394C36.5076 45.5525 36.3954 45.616 36.2785 45.616H34.7598V47.8997H32.8448V44.9401H31.5252C31.3822 44.9401 31.2452 44.8625 31.1441 44.7242C31.0431 44.586 30.9863 44.3986 30.9863 44.2031V40.4173C30.9863 40.1951 31.0509 39.982 31.1658 39.8249C31.2806 39.6677 31.4365 39.5794 31.5989 39.5794C31.7614 39.5794 31.9172 39.6677 32.0321 39.8249C32.147 39.982 32.2116 40.1951 32.2116 40.4173Z" fill="#FFD000"/>
<path d="M35.8579 47.644H31.3242V53.3919H35.8579V47.644Z" fill="#B2B2B2"/>
<path d="M36.1262 46.2803H31.0537V48.1297H36.1262V46.2803Z" fill="#B2B2B2"/>
<path d="M14.7086 84.1778V86.959H15.3453V83.9079C15.3453 83.5612 15.446 83.2287 15.6252 82.9835C15.8045 82.7383 16.0476 82.6006 16.3011 82.6006C16.4265 82.6006 16.5507 82.6344 16.6666 82.7001C16.7825 82.7659 16.8877 82.8622 16.9763 82.9836C17.0649 83.1051 17.1352 83.2492 17.183 83.4078C17.2309 83.5664 17.2554 83.7363 17.2552 83.9079V87.6937H17.8438V85.6869C17.8438 85.438 17.9161 85.1992 18.0448 85.0231C18.1735 84.847 18.3481 84.7481 18.5302 84.7481C18.7122 84.7481 18.8868 84.847 19.0155 85.0231C19.1442 85.1992 19.2166 85.438 19.2166 85.6869V88.771C19.2166 88.9309 19.1701 89.0844 19.0874 89.1975C19.0047 89.3106 18.8925 89.3742 18.7755 89.3742H17.2552V91.6531H15.3418V88.7006H14.0222C13.9514 88.7009 13.8812 88.682 13.8158 88.6451C13.7503 88.6082 13.6908 88.5539 13.6407 88.4854C13.5906 88.4169 13.551 88.3355 13.524 88.246C13.497 88.1564 13.4832 88.0605 13.4834 87.9636V84.1778C13.4834 83.9556 13.5479 83.7425 13.6628 83.5853C13.7777 83.4282 13.9335 83.3399 14.096 83.3399C14.2585 83.3399 14.4143 83.4282 14.5292 83.5853C14.6441 83.7425 14.7086 83.9556 14.7086 84.1778Z" fill="#FFD000"/>
<path d="M18.354 91.4023H13.8203V97.1502H18.354V91.4023Z" fill="#B2B2B2"/>
<path d="M18.6223 90.041H13.5498V91.8905H18.6223V90.041Z" fill="#B2B2B2"/>
<path d="M37.1881 84.1778V86.959H37.8248V83.9079C37.8248 83.5612 37.9255 83.2287 38.1047 82.9835C38.284 82.7383 38.5271 82.6006 38.7806 82.6006C39.0341 82.6006 39.2772 82.7383 39.4564 82.9835C39.6357 83.2287 39.7364 83.5612 39.7364 83.9079V87.6937H40.3233V85.6869C40.3233 85.438 40.3956 85.1992 40.5243 85.0231C40.653 84.847 40.8276 84.7481 41.0097 84.7481C41.1917 84.7481 41.3663 84.847 41.495 85.0231C41.6237 85.1992 41.6961 85.438 41.6961 85.6869V88.771C41.6961 88.9309 41.6496 89.0844 41.5669 89.1975C41.4842 89.3106 41.372 89.3742 41.255 89.3742H39.7364V91.6531H37.8248V88.7006H36.5017C36.3588 88.7006 36.2218 88.6229 36.1207 88.4847C36.0197 88.3465 35.9629 88.159 35.9629 87.9636V84.1778C35.9629 83.9556 36.0274 83.7425 36.1423 83.5853C36.2572 83.4282 36.413 83.3399 36.5755 83.3399C36.738 83.3399 36.8938 83.4282 37.0087 83.5853C37.1236 83.7425 37.1881 83.9556 37.1881 84.1778Z" fill="#FFD000"/>
<path d="M40.8384 91.4019H36.3047V97.1498H40.8384V91.4019Z" fill="#B2B2B2"/>
<path d="M41.1057 90.041H36.0332V91.8905H41.1057V90.041Z" fill="#B2B2B2"/>
<path d="M25.659 91.2826C25.2316 90.3264 24.6991 89.4659 24.0802 88.7313C23.0764 87.5578 22.7881 84.8047 22.7881 84.8047C22.7881 84.8047 23.2188 84.6099 24.0802 85.7858C24.652 86.6051 25.1366 87.5303 25.52 88.5342C25.52 88.5342 24.9468 85.199 24.9468 84.0208C24.9468 82.8426 26.378 79.8994 26.378 79.8994C26.378 79.8994 26.807 82.0587 26.807 83.0398V87.5649C26.807 87.5649 27.665 85.2178 28.8164 83.8354C29.9678 82.453 31.6856 81.8733 31.6856 81.8733C31.6856 81.8733 31.8297 84.2203 31.2548 85.0136C30.68 85.8069 28.2415 88.5459 28.2415 88.5459L31.5431 87.762L28.2415 90.508C28.2415 90.508 27.6272 91.6088 27.0952 91.2943C26.5633 90.9798 25.659 91.2826 25.659 91.2826Z" fill="#FFD000"/>
<path d="M28.8276 91.4023H24.2939V97.1502H28.8276V91.4023Z" fill="#B2B2B2"/>
<path d="M29.0959 90.041H24.0234V91.8905H29.0959V90.041Z" fill="#B2B2B2"/>
<path d="M39.8276 46.3811C39.8276 46.3811 38.3947 44.7241 37.9537 44.1209C37.5127 43.5177 36.4093 41.8583 37.2913 42.4615C37.9482 42.9434 38.5749 43.4984 39.1652 44.1209C39.1652 44.1209 38.3896 40.9524 38.3896 40.0488C38.3896 39.1452 39.4912 39.7484 40.0421 41.2552C40.5929 42.762 40.9241 43.8181 40.9241 43.8181C40.9241 43.8181 39.9323 37.7862 40.8143 37.4811C41.6963 37.176 41.9177 41.4007 41.9177 41.4007C41.9177 41.4007 42.6882 34.0122 43.7916 35.6715C44.8949 37.3309 43.0193 41.7034 43.0193 41.7034C43.0193 41.7034 45.2244 39.5911 44.7834 41.2505C44.3424 42.9098 43.1292 43.513 43.1292 43.513C43.1292 43.513 46.3278 42.4568 45.4458 44.1162C44.5637 45.7756 41.6963 47.1322 41.6963 47.1322L39.8276 46.3811Z" fill="#FFD000"/>
<path d="M43.6753 47.644H39.1416V53.3919H43.6753V47.644Z" fill="#B2B2B2"/>
<path d="M43.9446 46.2803H38.8721V48.1297H43.9446V46.2803Z" fill="#B2B2B2"/>
<path d="M22.189 46.3811C22.189 46.3811 20.7544 44.7241 20.3134 44.1209C19.8724 43.5177 18.769 41.8583 19.6527 42.4615C20.3096 42.9434 20.9363 43.4984 21.5266 44.1209C21.5266 44.1209 20.7544 40.9524 20.7544 40.0488C20.7544 39.1452 21.8578 39.7484 22.4086 41.2552C22.9595 42.762 23.2889 43.8181 23.2889 43.8181C23.2889 43.8181 22.2971 37.7862 23.1791 37.4811C24.0611 37.176 24.2808 41.4007 24.2808 41.4007C24.2808 41.4007 25.053 34.0122 26.1547 35.6715C27.2563 37.3309 25.3842 41.7034 25.3842 41.7034C25.3842 41.7034 27.5892 39.5911 27.1482 41.2505C26.7072 42.9098 25.494 43.513 25.494 43.513C25.494 43.513 28.6909 42.4568 27.8089 44.1162C26.9269 45.7756 24.0611 47.1322 24.0611 47.1322L22.189 46.3811Z" fill="#FFD000"/>
<path d="M26.0366 47.644H21.5029V53.3919H26.0366V47.644Z" fill="#B2B2B2"/>
<path d="M26.3059 46.2803H21.2334V48.1297H26.3059V46.2803Z" fill="#B2B2B2"/>
<path d="M9.38913 111.606V99.7882H46.8666V111.606H48.2909V53.082H7.96484V111.606H9.38913ZM9.38913 55.8797H46.8666V75.0551H9.38913V55.8797ZM9.38913 77.841H46.8666V97.014H9.38913V77.841Z" fill="#B2B2B2"/>
<path d="M95.599 87.6022C95.599 87.6022 95.4634 86.492 95.9593 84.4928C96.2227 83.3824 96.5668 82.2927 96.9889 81.2324C97.4543 82.5133 97.8316 83.8245 98.1181 85.1569C98.3323 86.2312 98.4529 87.3221 98.4784 88.4173C98.4784 88.4173 97.8915 90.564 97.351 91.3036C96.8105 92.0432 96.4021 91.6743 96.0417 90.7888C95.6813 89.9034 95.599 87.6022 95.599 87.6022Z" fill="#FFD000" stroke="#263238" stroke-linecap="round" stroke-linejoin="round"/>
<path d="M94.0203 89.8963C94.0203 89.8963 93.8848 89.1567 93.8848 87.4544C93.8848 85.7521 94.3309 83.0854 94.3309 83.0854C94.8548 84.0256 95.2782 85.0183 95.5939 86.0473C96.0452 87.602 96.8569 90.6376 96.8569 90.6376C97.0663 89.5815 97.3531 88.5422 97.7149 87.5282C98.3017 85.898 99.7466 83.753 99.7466 83.753V87.0134C99.7513 88.2107 99.6037 89.4037 99.3073 90.5638C99.3073 90.5638 99.1718 91.3034 97.4558 91.8954C95.7398 92.4874 94.3309 91.8216 94.0203 89.8963Z" fill="#FFD000" stroke="#263238" stroke-linecap="round" stroke-linejoin="round"/>
<path d="M92.7565 92.6368C92.7565 92.6368 92.125 91.8217 92.125 90.0456C92.1324 88.9051 92.223 87.7667 92.3961 86.6394C92.3961 86.6394 92.6209 86.7869 93.2541 87.669C93.8873 88.551 95.2842 90.8522 95.2842 91.0014C95.2842 91.1507 95.4197 90.3339 95.9603 89.3712C96.5008 88.4086 98.1276 86.1108 98.1276 86.1108C98.1276 86.1108 98.3524 88.1838 98.3524 89.0727C98.3524 89.9615 98.4433 91.2194 98.4433 91.2194C98.4433 91.2194 99.1194 89.5171 99.8419 88.4738C100.331 87.7894 100.874 87.1455 101.467 86.5484C101.467 86.5484 101.602 87.0632 101.556 88.5476C101.51 90.0319 100.88 92.7672 100.698 93.2117C100.516 93.6561 99.8848 94.545 98.6664 94.9894C97.448 95.4339 95.3751 95.7445 94.2906 95.2297C93.2061 94.7149 92.7565 92.6368 92.7565 92.6368Z" fill="#FFD000" stroke="#263238" stroke-linecap="round" stroke-linejoin="round"/>
<path d="M92.1242 95.4513C92.1242 95.4513 91.7639 95.0069 90.7703 93.0816C89.7767 91.1562 89.3271 88.7092 89.3271 88.7092C89.3271 88.7092 89.8677 88.783 90.7703 89.6719C91.6729 90.5607 94.3739 94.0408 94.3739 94.0408C94.0776 93.0314 94.0189 91.9672 94.2023 90.9314C94.518 89.3012 94.9247 88.6354 94.9247 88.6354C94.9247 88.6354 95.872 90.0425 96.1877 91.1528C96.5035 92.263 96.8638 93.8984 96.8638 93.8984C96.8638 93.8984 97.3151 91.8992 98.0822 90.4938C98.56 89.6284 99.1522 88.8313 99.8428 88.124C99.8428 88.124 100.249 89.7525 99.9784 91.1596C99.7072 92.5667 99.4361 93.677 99.4361 93.677C99.4361 93.677 100.43 90.8628 101.241 90.197C102.053 89.5311 103.815 88.9391 103.815 88.9391C103.815 88.9391 103.095 91.6041 102.508 92.7881C101.921 93.9722 101.063 95.3055 101.063 95.3055C101.063 95.3055 96.5464 96.783 92.1242 95.4513Z" fill="#FFD000" stroke="#263238" stroke-linecap="round" stroke-linejoin="round"/>
<path d="M100.598 111.618H92.7882L91.6162 95.6143H101.77L100.598 111.618Z" fill="#263238" stroke="#263238" stroke-linecap="round" stroke-linejoin="round"/>
<path d="M101.689 95.187H91.6507C91.3787 95.187 91.1582 95.4075 91.1582 95.6795V95.9094C91.1582 96.1814 91.3787 96.4019 91.6507 96.4019H101.689C101.961 96.4019 102.182 96.1814 102.182 95.9094V95.6795C102.182 95.4075 101.961 95.187 101.689 95.187Z" fill="#A1A1A1" stroke="#263238" stroke-linecap="round" stroke-linejoin="round"/>
<path d="M80.4707 102.425V85.2168" stroke="#263238" stroke-linecap="round" stroke-linejoin="round"/>
<path d="M84.2543 111.605H76.7605L75.1543 101.771H85.8604L84.2543 111.605Z" fill="#263238" stroke="#263238" stroke-linecap="round" stroke-linejoin="round"/>
<path d="M81.5186 97.335C81.5186 97.335 81.4808 95.2381 83.921 94.1124C86.3612 92.9867 88.4272 94.8503 89.1256 96.2093C89.5761 97.1011 89.9654 98.0224 90.2908 98.9669C90.2908 98.9669 87.8506 96.9455 85.637 96.9455C84.2553 96.9522 82.877 97.0825 81.5186 97.335Z" fill="#FFD000" stroke="#263238" stroke-linecap="round" stroke-linejoin="round"/>
<path d="M83.3447 97.0246L84.3949 95.5488" stroke="#263238" stroke-linecap="round" stroke-linejoin="round"/>
<path d="M85.6377 96.9474L86.9195 95.8989" stroke="#263238" stroke-linecap="round" stroke-linejoin="round"/>
<path d="M80.2863 95.959C80.2863 95.959 79.6875 93.9496 77.0139 93.6184C74.3404 93.2872 72.9436 95.6879 72.6896 97.1945C72.5313 98.1808 72.4396 99.1766 72.415 100.175C72.415 100.175 74.131 97.5086 76.2452 96.8376C77.5633 96.4247 78.9157 96.1306 80.2863 95.959Z" fill="#FFD000" stroke="#263238" stroke-linecap="round" stroke-linejoin="round"/>
<path d="M78.4525 96.2164L77.0059 95.1284" stroke="#263238" stroke-linecap="round" stroke-linejoin="round"/>
<path d="M76.2453 96.8375L74.7061 96.2266" stroke="#263238" stroke-linecap="round" stroke-linejoin="round"/>
<path d="M78.1331 90.7286C78.1331 90.7286 77.6681 89.1687 75.5952 88.9113C73.5222 88.6539 72.4377 90.5175 72.2404 91.6861C72.1158 92.4514 72.043 93.2242 72.0225 93.9993C72.0225 93.9993 73.3558 91.9315 74.9929 91.4098C76.0172 91.0896 77.0682 90.8616 78.1331 90.7286Z" fill="#FFD000" stroke="#263238" stroke-linecap="round" stroke-linejoin="round"/>
<path d="M76.7111 90.9278L75.5889 90.0835" stroke="#263238" stroke-linecap="round" stroke-linejoin="round"/>
<path d="M74.998 91.4097L73.8037 90.936" stroke="#263238" stroke-linecap="round" stroke-linejoin="round"/>
<path d="M82.2344 89.7554C82.2344 89.7554 82.6994 88.1956 84.7741 87.9382C86.8487 87.6808 87.9315 89.5443 88.1288 90.7147C88.2518 91.48 88.3229 92.2529 88.3416 93.0278C88.3416 93.0278 87.0083 90.9583 85.3712 90.4367C84.348 90.1166 83.2982 89.8886 82.2344 89.7554Z" fill="#FFD000" stroke="#263238" stroke-linecap="round" stroke-linejoin="round"/>
<path d="M83.6592 89.9566L84.7814 89.1123" stroke="#263238" stroke-linecap="round" stroke-linejoin="round"/>
<path d="M85.3711 90.437L86.5654 89.9634" stroke="#263238" stroke-linecap="round" stroke-linejoin="round"/>
<path d="M81.1313 97.1415C80.6149 96.9167 80.041 96.8597 79.4905 96.9785C78.94 97.0974 78.4407 97.3861 78.0631 97.8039C76.6646 99.2796 77.8297 101.579 78.801 102.78C79.4078 103.528 80.0563 104.241 80.7435 104.915C80.7435 104.915 83.0738 103.439 83.8889 101.77C84.704 100.1 85.0901 98.818 84.0451 97.6906C83 96.5632 81.1313 97.1415 81.1313 97.1415Z" fill="#FFD000" stroke="#263238" stroke-linecap="round" stroke-linejoin="round"/>
<path d="M81.1306 97.1411C81.1306 97.1411 80.3155 101.603 80.5488 104.367" stroke="#263238" stroke-linecap="round" stroke-linejoin="round"/>
<path d="M80.8975 99.2007L81.7143 100.522" stroke="#263238" stroke-linecap="round" stroke-linejoin="round"/>
<path d="M80.7038 100.716L79.6553 102.348" stroke="#263238" stroke-linecap="round" stroke-linejoin="round"/>
<path d="M81.0143 98.0747L79.6553 98.3853" stroke="#263238" stroke-linecap="round" stroke-linejoin="round"/>
<path d="M82.2349 89.7559C82.2349 89.7559 80.9376 90.0733 80.5498 91.0051" stroke="#263238" stroke-linecap="round" stroke-linejoin="round"/>
<path d="M78.1328 90.7285C78.1328 90.7285 80.2366 91.1592 80.47 92.3639" stroke="#263238" stroke-linecap="round" stroke-linejoin="round"/>
<path d="M80.5098 93.5292C80.5098 93.5292 81.481 91.7034 82.8401 91.5095C84.1992 91.3156 85.7504 92.4842 85.7504 92.4842C85.7504 92.4842 82.9928 94.1161 82.0216 94.1161C81.4607 94.1233 80.9189 93.913 80.5098 93.5292Z" fill="#FFD000" stroke="#263238" stroke-linecap="round" stroke-linejoin="round"/>
<path d="M80.5103 93.5289C80.5103 93.5289 79.6523 92.2093 78.1405 92.0531C76.6287 91.8969 74.9951 94.0282 74.9951 94.0282C74.9951 94.0282 75.5768 94.4178 77.1315 94.3405C78.6862 94.2633 80.5103 93.5289 80.5103 93.5289Z" fill="#FFD000" stroke="#263238" stroke-linecap="round" stroke-linejoin="round"/>
<path d="M80.4304 90.3837C80.4304 90.3837 78.6818 88.6677 78.6046 86.9654C78.5274 85.2631 80.6261 82.5312 80.6261 82.5312C80.6261 82.5312 81.9079 85.8723 81.9851 87.2708C82.0624 88.6694 80.4304 90.3837 80.4304 90.3837Z" fill="#FFD000" stroke="#263238" stroke-linecap="round" stroke-linejoin="round"/>
<path d="M80.4708 88.8288L79.8496 87.9365" stroke="#263238" stroke-linecap="round" stroke-linejoin="round"/>
<path d="M80.5498 86.7713L80.9771 86.0317" stroke="#263238" stroke-linecap="round" stroke-linejoin="round"/>
<path d="M16.7287 96.5167C16.7287 96.5167 16.6103 95.9281 17.0427 94.8676C17.2844 94.2634 17.5875 93.6855 17.9471 93.1431C18.3421 93.8034 18.6709 94.5012 18.9286 95.2263C19.1138 95.7847 19.2195 96.3664 19.2426 96.9543C19.2426 96.9543 18.7278 98.0937 18.2611 98.4867C17.7943 98.8797 17.4357 98.684 17.1217 98.2121C16.8076 97.7402 16.7287 96.5167 16.7287 96.5167Z" fill="#FFD000" stroke="#263238" stroke-linecap="round" stroke-linejoin="round"/>
<path d="M15.3545 97.735C15.2593 97.31 15.2195 96.8746 15.2361 96.4394C15.2361 95.5351 15.629 94.1211 15.629 94.1211C16.0647 94.5932 16.4347 95.1219 16.729 95.6929C17.122 96.5166 17.829 98.128 17.829 98.128C18.0176 97.5529 18.2678 97 18.5754 96.4789C19.0902 95.6209 20.3446 94.4746 20.3446 94.4746V96.2026C20.3418 96.8518 20.2082 97.4938 19.9516 98.0902C19.9516 98.0902 19.8332 98.4832 18.3403 98.7989C16.8474 99.1147 15.629 98.7577 15.3545 97.735Z" fill="#FFD000" stroke="#263238" stroke-linecap="round" stroke-linejoin="round"/>
<path d="M14.2522 99.1901C14.2522 99.1901 13.7031 98.7577 13.7031 97.8173C13.7105 97.2079 13.7894 96.6014 13.9382 96.0104C13.9382 96.0104 14.1356 96.0893 14.6847 96.5595C15.2338 97.0297 16.4539 98.2498 16.4539 98.3287C16.4539 98.4076 16.5706 97.9752 17.0425 97.4707C17.5144 96.9662 18.9301 95.7427 18.9301 95.7427C19.0264 96.2618 19.0923 96.786 19.1274 97.3128C19.1274 97.7847 19.2063 98.4522 19.2063 98.4522C19.5557 97.9233 19.9638 97.4357 20.423 96.9988C20.8681 96.6202 21.3414 96.276 21.8387 95.9692C21.8387 95.9692 21.9554 96.2437 21.9159 97.0297C21.8764 97.8156 21.3273 99.2691 21.1694 99.5059C21.0116 99.7427 20.4625 100.213 19.402 100.448C18.3415 100.683 16.5328 100.841 15.5907 100.566C14.6486 100.292 14.2522 99.1901 14.2522 99.1901Z" fill="#FFD000" stroke="#263238" stroke-linecap="round" stroke-linejoin="round"/>
<path d="M13.7033 100.683C13.7033 100.683 13.3893 100.446 12.5244 99.4253C11.9693 98.7343 11.5432 97.949 11.2666 97.107C11.2666 97.107 11.7385 97.1465 12.5244 97.6218C13.3104 98.0971 15.6681 99.9401 15.6681 99.9401C15.4119 99.4287 15.3556 98.84 15.5103 98.2893C15.7848 97.4313 16.14 97.0709 16.14 97.0709C16.14 97.0709 16.9637 97.8174 17.24 98.4077C17.5163 98.998 17.8286 99.8612 17.8286 99.8612C18.0827 99.2053 18.4408 98.5945 18.8891 98.0525C19.3411 97.5668 19.8565 97.1443 20.4215 96.7964C20.4215 96.7964 20.775 97.6544 20.5399 98.4077C20.3048 99.161 20.068 99.7428 20.068 99.7428C20.068 99.7428 20.926 98.2498 21.6398 97.8963C22.3537 97.5428 23.8792 97.2288 23.8792 97.2288C23.8792 97.2288 23.2512 98.6428 22.7398 99.2709C22.3459 99.7391 21.9265 100.185 21.4837 100.608C21.4837 100.608 17.554 101.39 13.7033 100.683Z" fill="#FFD000" stroke="#263238" stroke-linecap="round" stroke-linejoin="round"/>
<path d="M19.3022 108.489H16.0899C15.4511 108.489 14.8337 108.26 14.3502 107.842C13.8666 107.425 13.5492 106.848 13.4558 106.216L12.6201 100.585H22.7737L21.9397 106.216C21.8459 106.848 21.5279 107.425 21.0437 107.843C20.5595 108.26 19.9415 108.49 19.3022 108.489Z" fill="#263238" stroke="#263238" stroke-linecap="round" stroke-linejoin="round"/>
<path d="M22.6932 100.158H12.6546C12.3826 100.158 12.1621 100.379 12.1621 100.651V100.881C12.1621 101.153 12.3826 101.373 12.6546 101.373H22.6932C22.9652 101.373 23.1857 101.153 23.1857 100.881V100.651C23.1857 100.379 22.9652 100.158 22.6932 100.158Z" fill="#A1A1A1" stroke="#263238" stroke-linecap="round" stroke-linejoin="round"/>
<path d="M49.8657 62.4297C49.8657 62.4297 50.8593 68.2984 52.0416 70.7609C53.2239 73.2233 53.4624 73.9321 53.4624 73.9321C51.5618 74.4034 49.6331 74.7536 47.6881 74.9805C44.6593 75.3117 43.6641 74.7918 43.6641 74.7918L44.0519 73.2645C44.0519 73.2645 46.3719 74.0693 47.2231 73.0277C48.0742 71.9861 48.9734 68.2006 49.1107 67.3014C49.2479 66.4022 48.8275 62.5224 48.8275 62.5224L49.8657 62.4297Z" fill="#263238" stroke="#263238" stroke-miterlimit="10"/>
<path d="M44.5176 72.7963C44.5176 72.7963 44.0028 75.0666 44.0028 75.777C44.0028 76.4875 44.0869 76.6539 44.4747 76.913C45.3327 77.481 47.1723 78.4746 48.8299 78.7114C50.4876 78.9482 51.718 79.3721 52.0474 79.9418C53.9573 83.2537 55.1723 94.8041 55.1723 94.8041C55.1723 94.8041 55.7866 95.276 57.7274 95.6072C59.6682 95.9383 60.2825 95.9864 60.2825 95.9864L60.7561 98.9688C60.7561 98.9688 59.0058 99.2056 56.0234 99.4836C53.041 99.7616 51.1019 99.4836 51.1019 99.4836L53.5146 107.104C54.1307 109.043 54.5082 111.6 54.5082 111.6H29.657C29.657 111.6 32.449 98.9637 32.7802 97.4484C33.1114 95.9332 33.1594 90.5844 33.1594 90.5844L26.0586 90.8676C26.0586 90.8676 27.337 83.2005 28.5674 80.2198C29.7978 77.2391 30.3658 77.759 32.171 77.4742C33.9762 77.1893 36.9037 76.575 38.0878 75.7702C39.2718 74.9654 39.6974 70.6582 39.6974 70.6582L44.5176 72.7963Z" fill="#FFD000" stroke="#263238" stroke-linecap="round" stroke-linejoin="round"/>
<path d="M50.4682 98.0317C50.125 99.4474 50.6758 100.398 51.587 101.04L51.0962 99.4954C51.0962 99.4954 53.0353 99.7803 56.0177 99.4954C59.0001 99.2106 60.7505 98.9806 60.7505 98.9806L60.2768 95.9982C60.2768 95.9982 59.6625 95.9519 57.7217 95.619C55.7809 95.2861 55.1666 94.8159 55.1666 94.8159C55.1666 94.8159 51.5235 93.5993 50.4682 98.0317Z" fill="white" stroke="#263238" stroke-linecap="round" stroke-linejoin="round"/>
<path d="M53.5087 107.109L51.096 99.4886C51.096 99.4886 50.7168 96.743 50.7648 96.2711C50.8129 95.7992 52.184 93.1944 52.184 91.3479C52.184 89.5015 50.528 83.9691 50.3856 83.5865C50.2552 83.2433 47.9506 79.0648 47.5936 78.4196C47.4323 78.3681 47.271 78.3115 47.1132 78.248L49.2496 84.0086L37.9377 83.7718L36.1582 76.5938C35.8854 76.6778 35.5988 76.7654 35.3088 76.834C35.5473 77.7572 37.1964 84.2729 36.9853 85.1961C36.7485 86.1896 33.1518 90.5912 33.1518 90.5912C33.1518 90.5912 33.1037 95.94 32.7725 97.4552C32.4413 98.9704 29.6494 111.607 29.6494 111.607H54.5023C54.5023 111.607 54.1247 109.048 53.5087 107.109Z" fill="#263238" stroke="#263238" stroke-linecap="round" stroke-linejoin="round"/>
<path d="M44.052 75.2416C44.1807 74.2978 44.5256 72.7963 44.5256 72.7963L39.6985 70.665C39.5774 71.8047 39.3604 72.9321 39.0498 74.0353L44.052 75.2416Z" fill="white" stroke="#263238" stroke-linecap="round" stroke-linejoin="round"/>
<path d="M49.5333 62.6255C49.5333 62.6255 49.6757 64.9438 49.6757 66.3647C49.6757 67.7855 49.9125 69.1566 49.2501 70.9979C48.5877 72.8391 47.6405 74.1227 47.0725 74.3578C46.5045 74.5929 44.991 74.3578 44.2325 74.0729C43.4741 73.7881 39.5479 71.3771 39.5479 71.3771C39.5479 71.3771 40.6358 64.6092 40.7782 64.1356C40.8923 63.8003 41.0517 63.4822 41.2518 63.1901L49.5333 62.6255Z" fill="white" stroke="#263238" stroke-linecap="round" stroke-linejoin="round"/>
<path d="M48.1139 65.0278C48.1139 65.0278 47.7347 65.7383 47.7827 66.3543C47.8308 66.9703 49.0131 68.2934 49.0131 68.5302C49.0131 68.767 48.3507 69.1926 47.5459 69.1926" stroke="#263238" stroke-linecap="round" stroke-linejoin="round"/>
<path d="M47.1414 71.0342C47.1414 71.0342 46.3096 71.348 45.7686 71.0776" stroke="#263238" stroke-linecap="round" stroke-linejoin="round"/>
<path d="M43.5234 65.2701C43.5234 65.2701 44.6594 64.5614 45.653 64.7553" stroke="#263238" stroke-linecap="round" stroke-linejoin="round"/>
<path d="M48.3506 64.7021C48.5383 64.5828 48.7597 64.5275 48.9815 64.5445C49.2033 64.5615 49.4136 64.6499 49.581 64.7964" stroke="#263238" stroke-linecap="round" stroke-linejoin="round"/>
<path d="M45.6996 66.7439C45.6996 67.1094 45.5194 67.4063 45.298 67.4063C45.0767 67.4063 44.8965 67.1094 44.8965 66.7439C44.8965 66.3784 45.0767 66.0815 45.298 66.0815C45.5194 66.0815 45.6996 66.3715 45.6996 66.7439Z" fill="#263238"/>
<path d="M49.0828 66.6324C49.0828 67.0048 48.9352 67.3051 48.7499 67.3051C48.5646 67.3051 48.417 67.0048 48.417 66.6324C48.417 66.26 48.5663 65.958 48.7499 65.958C48.9335 65.958 49.0828 66.26 49.0828 66.6324Z" fill="#263238"/>
<path d="M42.1026 63.2827C42.1026 63.2827 40.8722 70.7611 40.6835 72.8923C40.5684 74.1524 40.5839 75.421 40.7298 76.6778C40.7298 76.6778 39.2163 75.8713 36.33 74.9807C33.4437 74.0901 31.2197 72.568 31.2197 72C31.2197 71.432 35.3381 63.4801 35.3381 63.4801L42.1026 63.2827Z" fill="#263238" stroke="#263238" stroke-miterlimit="10"/>
<path d="M37.7028 86.9004C37.7028 86.9004 33.8693 88.2251 32.3077 88.6507C30.7462 89.0763 26.8646 89.5087 26.0598 90.8815C25.255 92.2543 25.2018 93.6271 25.2567 94.8112C25.3116 95.9952 26.3446 96.5134 27.1958 96.3727C28.0469 96.232 31.2198 95.8047 34.1061 93.7695C36.9924 91.7344 39.5973 89.4624 39.5973 89.4624L37.7028 86.9004Z" fill="white" stroke="#263238" stroke-linecap="round" stroke-linejoin="round"/>
<path d="M49.108 79.7051H48.0664V81.4091H49.108V79.7051Z" fill="white" stroke="#263238" stroke-linecap="round" stroke-linejoin="round"/>
<path d="M50.2919 80.1323H49.0615V80.9835H50.2919V80.1323Z" fill="white" stroke="#263238" stroke-linecap="round" stroke-linejoin="round"/>
<path d="M48.0659 79.7051H46.2676V82.8763H48.0659V79.7051Z" fill="white" stroke="#263238" stroke-linecap="round" stroke-linejoin="round"/>
<path d="M47.1198 94.4249C48.9205 94.4249 50.3802 92.5495 50.3802 90.2361C50.3802 87.9227 48.9205 86.0474 47.1198 86.0474C45.3191 86.0474 43.8594 87.9227 43.8594 90.2361C43.8594 92.5495 45.3191 94.4249 47.1198 94.4249Z" stroke="#263238" stroke-linecap="round" stroke-linejoin="round"/>
<path d="M36.8447 86.6154C36.8759 87.3631 37.0361 88.0999 37.3183 88.793C37.7902 89.9753 39.2059 90.8745 39.2059 90.8745L41.0524 89.8346L43.4651 89.1242C43.4651 89.1242 44.7898 88.6506 44.9322 88.6094C45.0747 88.5682 48.4346 88.7982 49.145 88.7038C49.8554 88.6094 50.5178 87.8458 50.3274 87.4253C50.1369 87.0049 49.2394 86.8093 49.2394 86.8093C49.2394 86.8093 49.097 85.1534 49.0506 84.9646C49.0043 84.7758 50.0905 84.8222 50.1386 83.8749C50.1866 82.9277 49.713 82.5982 49.713 82.5982C49.713 82.5982 49.665 81.4142 49.0026 81.1311C48.3402 80.8479 47.4874 80.6163 45.689 80.9406C43.8906 81.2649 42.1866 81.7986 40.9099 83.2606C39.6332 84.7226 38.9794 85.6201 38.9794 85.6201L36.8447 86.6154Z" fill="white" stroke="#263238" stroke-linecap="round" stroke-linejoin="round"/>
<path d="M49.2497 86.8039C49.2497 86.8039 47.5937 86.5207 46.6465 86.7575" stroke="#263238" stroke-linecap="round" stroke-linejoin="round"/>
<path d="M49.0612 84.9595C49.0612 84.9595 47.2629 84.2027 46.2676 84.4447" stroke="#263238" stroke-linecap="round" stroke-linejoin="round"/>
<path d="M49.7239 82.5928C49.7239 82.5928 47.8363 81.6937 46.0791 82.308" stroke="#263238" stroke-linecap="round" stroke-linejoin="round"/>
<path d="M61.8105 83.772C61.8105 83.772 64.5459 84.4687 65.9135 88.6214" stroke="#263238" stroke-linecap="round" stroke-linejoin="round"/>
<path d="M65.5264 80.4941C65.5264 80.4941 66.3844 85.8601 66.1716 88.8013" stroke="#263238" stroke-linecap="round" stroke-linejoin="round"/>
<path d="M69.9382 81.8447C69.9382 81.8447 67.2287 84.3467 66.7139 88.6555" stroke="#263238" stroke-linecap="round" stroke-linejoin="round"/>
<path d="M64.7116 78.9964C64.7116 78.9964 64.1728 78.1865 63.682 78.3666C63.1912 78.5468 62.872 79.3122 63.1432 79.6725C63.4143 80.0329 64.0423 79.5369 64.0012 79.7617C63.96 79.9865 63.1003 80.3915 63.416 80.8874C63.7317 81.3834 64.3615 81.5172 64.5417 81.1569C64.7219 80.7965 64.8557 80.3469 64.9467 80.6163C65.0376 80.8857 64.6755 81.4263 65.1183 81.5618C65.561 81.6974 66.4242 81.6974 66.4242 81.2461C66.4242 80.7948 66.0638 80.7519 66.3332 80.6163C66.6026 80.4808 66.9184 81.1122 67.2341 80.7519C67.5498 80.3915 67.7746 79.3122 67.3233 79.1766C66.872 79.041 66.8737 79.4014 66.5597 79.132C66.2457 78.8626 67.0093 78.322 66.1547 78.008C65.3002 77.694 64.3529 77.9617 64.7116 78.9964Z" fill="white" stroke="#263238" stroke-linecap="round" stroke-linejoin="round"/>
<path d="M69.25 81.4002C69.25 81.4002 68.2942 81.2114 68.0728 81.6902C67.8514 82.1689 68.1723 82.9308 68.6185 82.9926C69.0646 83.0544 69.1573 82.2582 69.2843 82.4486C69.4113 82.6391 69.0973 83.5314 69.6704 83.6498C70.2435 83.7683 70.7841 83.4233 70.6554 83.0424C70.5267 82.6614 70.3019 82.2479 70.5576 82.3749C70.8133 82.5018 70.942 83.1368 71.3555 82.912C71.7691 82.6872 72.3697 82.0814 72.0505 81.764C71.7313 81.4465 71.4465 81.6713 71.5357 81.3847C71.6249 81.0982 72.2993 81.3178 72.265 80.8408C72.2307 80.3637 71.6232 79.4439 71.2114 79.667C70.7995 79.8901 71.0535 80.1458 70.6399 80.1818C70.2264 80.2178 70.3825 79.2912 69.5571 79.6773C68.7317 80.0634 68.2616 80.9248 69.25 81.4002Z" fill="white" stroke="#263238" stroke-linecap="round" stroke-linejoin="round"/>
<path d="M60.1599 83.2896C60.1599 83.2896 59.2041 83.1025 58.9828 83.5796C58.7614 84.0566 59.084 84.8202 59.5284 84.882C59.9729 84.9438 60.0673 84.1493 60.196 84.3398C60.3247 84.5302 60.0089 85.4208 60.5821 85.541C61.1552 85.6611 61.694 85.3144 61.5653 84.9335C61.4366 84.5525 61.2136 84.139 61.4675 84.266C61.7215 84.393 61.8519 85.0279 62.2655 84.8048C62.679 84.5817 63.2796 83.9725 62.9604 83.6568C62.6413 83.341 62.3564 83.5624 62.4456 83.2758C62.5349 82.9893 63.2093 83.2106 63.1749 82.7319C63.1406 82.2531 62.5349 81.335 62.1213 81.5598C61.7078 81.7846 61.9634 82.0369 61.5499 82.0746C61.1363 82.1124 61.2925 81.1857 60.4671 81.5701C59.6417 81.9545 59.1715 82.8159 60.1599 83.2896Z" fill="white" stroke="#263238" stroke-linecap="round" stroke-linejoin="round"/>
<path d="M64.9375 88.6709C64.9375 88.6709 64.8465 88.4015 64.1721 88.266C63.8351 88.1862 63.4883 88.1561 63.1425 88.1767C63.1425 88.1767 62.7822 87.9519 63.3673 87.547L63.9525 87.142C63.6966 86.9801 63.397 86.9011 63.0945 86.9155C62.7904 86.9511 62.4897 87.0114 62.1953 87.0957C62.2041 86.829 62.2833 86.5695 62.425 86.3434C62.5667 86.1173 62.7657 85.9328 63.0018 85.8087C63.8118 85.4037 64.2648 85.7006 64.2648 85.7006L63.2712 84.8014C63.3957 84.684 63.5466 84.5982 63.7111 84.5513C63.8757 84.5044 64.0491 84.4978 64.2168 84.532C64.6508 84.6133 65.0641 84.7814 65.4317 85.0262C65.4317 85.0262 64.0812 83.6757 63.992 83.4972C63.9027 83.3187 64.8019 83.5418 65.4763 83.9914C65.8662 84.241 66.1905 84.5805 66.4218 84.9815C66.4218 84.9815 66.5111 84.2162 66.7822 83.7666C66.9994 83.4366 67.2558 83.1341 67.5458 82.8657C67.5458 82.8657 67.4566 84.127 67.4566 84.4856C67.4566 84.8443 67.7449 84.2093 68.4862 84.0034C68.991 83.8907 69.5156 83.9019 70.0151 84.036C70.0151 84.036 68.9855 84.4856 68.7539 84.8014C68.5222 85.1171 68.215 85.6594 68.215 85.6594C68.215 85.6594 68.1704 85.39 68.9804 85.5255C69.7903 85.6611 70.7341 86.5139 70.7341 86.5139C70.7341 86.5139 69.4746 86.4693 69.0181 86.6941C68.702 86.8768 68.4264 87.122 68.2082 87.4148C68.3349 87.336 68.4761 87.2834 68.6234 87.2601C68.7708 87.2368 68.9214 87.2433 69.0662 87.2793C69.3974 87.3928 69.7146 87.5436 70.0117 87.7289C70.0117 87.7289 68.7968 87.909 68.2116 88.1802C67.6265 88.4513 67.4463 88.7653 67.4463 88.7653L64.9375 88.6709Z" fill="#FFD000" stroke="#263238" stroke-linecap="round" stroke-linejoin="round"/>
<path d="M67.7759 96.2232H64.5635C63.9246 96.2232 63.3069 95.9935 62.8231 95.5762C62.3393 95.1588 62.0215 94.5816 61.9277 93.9495L61.0938 88.3193H71.2456L70.4116 93.9495C70.3178 94.5816 70.0001 95.1588 69.5163 95.5762C69.0325 95.9935 68.4148 96.2232 67.7759 96.2232Z" fill="#263238" stroke="#263238" stroke-linecap="round" stroke-linejoin="round"/>
<path d="M71.1668 87.8921H61.1282C60.8562 87.8921 60.6357 88.1126 60.6357 88.3846V88.6145C60.6357 88.8865 60.8562 89.107 61.1282 89.107H71.1668C71.4388 89.107 71.6593 88.8865 71.6593 88.6145V88.3846C71.6593 88.1126 71.4388 87.8921 71.1668 87.8921Z" fill="#A1A1A1" stroke="#263238" stroke-linecap="round" stroke-linejoin="round"/>
<path d="M58.6214 95.5125C58.6214 95.5125 57.9521 95.8917 57.9521 97.4602C57.9521 99.0286 59.7505 99.7321 60.0817 99.8265C60.4129 99.9209 63.8672 99.401 66.6128 98.833C69.3584 98.265 70.352 96.8458 70.4464 95.993C70.5407 95.1401 70.0208 94.5738 69.6416 94.9994C69.2623 95.425 69.264 95.6137 68.4112 96.1354C67.5583 96.6571 67.4176 96.7034 66.2336 96.6502C65.0495 96.597 62.4481 95.4679 62.2593 94.8055C62.0706 94.1431 61.7445 93.2422 60.8385 94.047C60.2883 94.5423 59.796 95.0984 59.3713 95.7047L58.6214 95.5125Z" fill="white" stroke="#263238" stroke-linecap="round" stroke-linejoin="round"/>
<path d="M60.9389 92.6727C60.9389 92.6727 59.9934 95.7495 60.2765 95.9863C60.5597 96.2231 61.035 96.5543 61.5069 96.6023C61.9788 96.6504 62.2173 95.4183 62.4541 94.4247C62.691 93.4312 63.1165 92.5371 62.6429 91.9159C62.1693 91.2947 61.0813 91.6791 60.9389 92.6727Z" fill="white" stroke="#263238" stroke-linecap="round" stroke-linejoin="round"/>
<path d="M62.9279 93.2888C62.9279 93.2888 62.0287 96.8392 62.2175 97.4072C62.4062 97.9752 63.3534 98.4951 63.8271 98.2652C64.3007 98.0352 64.3419 97.0348 64.6319 95.3308C64.9219 93.6268 65.0574 93.3832 64.3007 92.9988C63.5439 92.6144 63.211 92.9096 62.9279 93.2888Z" fill="white" stroke="#263238" stroke-linecap="round" stroke-linejoin="round"/>
<path d="M66.7174 94.6102C66.1082 93.9667 65.0151 94.327 64.8487 95.197C64.6376 96.3004 64.3116 98.1657 64.442 98.4952C64.6325 98.9688 66.5252 99.3944 66.6196 98.8264C66.714 98.2584 66.9988 95.9864 66.9988 95.2228C66.9854 94.9904 66.885 94.7717 66.7174 94.6102Z" fill="white" stroke="#263238" stroke-linecap="round" stroke-linejoin="round"/>
<path d="M35.6655 63.5659C35.6655 63.5659 34.72 58.8812 35.0031 58.2188C35.2862 57.5564 38.4111 55.9468 42.6239 55.6156C46.8367 55.2845 48.3982 55.8988 48.587 56.7516C48.7757 57.6045 49.8654 62.4299 49.8654 62.4299L44.7998 63.3771L40.2095 63.8027L35.4287 64.0395L35.6655 63.5659Z" fill="white" stroke="#263238" stroke-linecap="round" stroke-linejoin="round"/>
<path d="M40.2102 63.8027L44.8005 63.3771L49.8662 62.4299C49.8662 62.4299 49.4389 60.5423 49.0734 58.9155C43.9923 60.218 38.0051 60.7379 35.1943 60.9215C35.402 62.2549 35.6662 63.5659 35.6662 63.5659L35.4294 64.0395L40.2102 63.8027Z" fill="#FFD000" stroke="#263238" stroke-linecap="round" stroke-linejoin="round"/>
<path d="M30.7931 63.5198C30.7931 63.5198 30.697 64.0878 31.0762 64.0878C31.4555 64.0878 34.153 64.6558 40.7785 64.1341C47.404 63.6125 50.4327 62.9518 52.3735 62.3838C54.3143 61.8158 54.9304 61.4846 54.8343 61.0591C54.7382 60.6335 55.3079 60.7742 54.7399 60.6318C54.1719 60.4894 53.6039 60.8223 53.132 60.963C52.859 61.0441 52.5904 61.1391 52.3272 61.2478L52.1848 60.5854H51.6168V61.579L50.9064 61.8622L51.0007 61.2478L50.4327 61.0591L50.1496 61.7678L50.0072 62.099L47.6889 62.5726V61.7146L46.9784 61.6665L46.836 62.6601L45.7481 62.8506L44.7064 62.3358L44.2809 62.6258L44.8969 62.957L43.0505 63.1938L42.1033 63.2882L41.4889 62.1985L40.8729 62.2465L41.2521 63.1938L40.1161 63.3825L40.3993 62.7202L39.5001 62.5777L38.9321 63.3345L36.2826 63.5713L37.0874 62.9089L36.8969 62.4353L35.3834 63.1406L35.1946 62.0046H34.3366L34.4791 62.8626L33.0702 62.099L32.5022 62.5726L33.2127 63.5661L30.7931 63.5198Z" fill="white" stroke="#263238" stroke-linecap="round" stroke-linejoin="round"/>
<path d="M66.0244 33.2646C65.7881 33.2616 65.5561 33.223 65.3267 33.1691C64.9132 33.0721 64.5134 32.9377 64.1448 32.7211C63.8409 32.5425 63.576 32.3229 63.4067 32.006C63.2573 31.7268 63.2337 31.4334 63.3186 31.1315C63.3366 31.0673 63.3471 31.0166 63.2727 30.9804C63.2445 30.9668 63.222 30.9352 63.2041 30.9072C63.1744 30.8608 63.1511 30.8104 63.1237 30.7626C63.1198 30.7557 63.1092 30.7513 63.1011 30.7481C63.0069 30.712 62.9128 30.6762 62.807 30.636C62.7987 30.6715 62.7903 30.7022 62.7848 30.7331C62.7525 30.9161 62.7229 31.0996 62.6886 31.2823C62.6638 31.4141 62.6303 31.5442 62.6077 31.6765C62.6033 31.7016 62.6242 31.7466 62.6462 31.7588C62.883 31.888 63.0572 32.0887 63.2454 32.2734C63.4688 32.493 63.6934 32.7117 63.9188 32.9293C63.9493 32.9587 63.9863 32.9831 64.0238 33.0036C64.0757 33.0319 64.1205 33.0561 64.0856 33.1293C64.078 33.1454 64.0993 33.1795 64.1135 33.2013C64.1653 33.2805 64.2307 33.3532 64.1967 33.4612C64.1907 33.4803 64.2076 33.5077 64.2161 33.5305C64.2256 33.5563 64.2502 33.5833 64.2466 33.6062C64.2313 33.7061 64.2701 33.7875 64.3154 33.8715C64.3366 33.9109 64.3478 33.9547 64.2896 33.9974C64.2629 34.0171 64.2777 34.099 64.2819 34.1522C64.284 34.1802 64.3038 34.207 64.3186 34.2416C64.244 34.2589 64.2042 34.2177 64.1794 34.1713C64.1245 34.068 64.0757 33.9605 64.1111 33.8379C64.1137 33.8292 64.1177 33.8188 64.1153 33.8109C64.0824 33.6993 64.0495 33.5876 64.0149 33.4766C63.9986 33.4244 63.9646 33.3735 63.9635 33.3214C63.9613 33.2194 63.9144 33.1489 63.8432 33.0844C63.4862 32.76 63.1307 32.4341 62.7741 32.1095C62.6857 32.0289 62.584 31.96 62.5087 31.8689C62.4573 31.8067 62.4244 31.7179 62.4128 31.6368C62.3704 31.3453 62.4234 31.0632 62.515 30.7862C62.5385 30.7152 62.5505 30.6388 62.5563 30.5641C62.5633 30.4716 62.4946 30.4321 62.407 30.4623C62.1487 30.5509 61.8877 30.6319 61.6307 30.724C61.5405 30.7563 61.4585 30.8116 61.3636 30.8612C61.4105 30.9372 61.4555 30.9986 61.4887 31.0658C61.6397 31.3744 61.7853 31.6856 61.9373 31.9937C62.016 32.1532 62.1033 32.3081 62.1886 32.4643C62.2243 32.5298 62.2875 32.5868 62.2386 32.6738C62.2338 32.6824 62.2559 32.708 62.2676 32.7241C62.3162 32.7908 62.3478 32.8597 62.3236 32.9463C62.3153 32.976 62.3262 33.0113 62.3288 33.044C62.3318 33.08 62.3349 33.1161 62.3391 33.152C62.3447 33.2005 62.35 33.2493 62.3584 33.2974C62.3685 33.3546 62.403 33.4073 62.3323 33.461C62.3031 33.4832 62.3092 33.5555 62.3055 33.6054C62.3036 33.6298 62.3165 33.6553 62.3228 33.6803C62.3152 33.6861 62.3075 33.6918 62.2999 33.6976C62.2711 33.6717 62.2308 33.6512 62.2157 33.6189C62.1697 33.5204 62.1431 33.4165 62.1807 33.3071C62.1865 33.2902 62.1941 33.2715 62.1923 33.2546C62.1521 32.8717 62.0809 32.5035 61.8642 32.1673C61.6601 31.8509 61.4913 31.5115 61.3137 31.1785C61.2592 31.0764 61.2193 30.9645 61.189 30.8528C61.1786 30.8147 61.2045 30.7476 61.2366 30.7204C61.4811 30.514 61.758 30.369 62.0756 30.3083C62.1139 30.301 62.1526 30.2966 62.211 30.2876C62.1655 30.2208 62.1291 30.1676 62.0927 30.1139C61.8893 30.2325 61.6681 30.2266 61.4489 30.2042C61.0014 30.1586 60.5646 30.0645 60.1441 29.8983C60.1067 29.8837 60.0565 29.8982 60.0128 29.9032C59.8596 29.9207 59.706 29.9587 59.5537 29.9536C59.3731 29.9478 59.1939 29.9029 59.0133 29.881C58.9812 29.8772 58.9435 29.8988 58.912 29.9154C58.8723 29.9363 58.8363 29.9642 58.7982 29.9894C58.7462 29.8793 58.8428 29.7438 58.9691 29.7365C59.0687 29.7308 59.1632 29.7346 59.2579 29.7862C59.3144 29.817 59.3901 29.8682 59.4622 29.7988C59.4665 29.7944 59.48 29.7982 59.489 29.7997C59.6792 29.8301 59.8619 29.7724 60.0481 29.7574C60.1608 29.7482 60.2796 29.7661 60.3908 29.7924C60.7311 29.8725 61.0682 29.9658 61.4083 30.0467C61.4906 30.0662 61.5791 30.0626 61.6647 30.0624C61.7373 30.0624 61.7961 30.036 61.8462 29.9736C61.8783 29.9339 61.9427 29.9204 61.9783 29.9027C61.9501 29.6977 61.9211 29.4876 61.8926 29.2798C61.7754 29.3627 61.6313 29.3956 61.4724 29.3948C61.2227 29.3935 61.0711 29.2455 60.9455 29.0592C60.8806 28.9631 60.8207 28.86 60.78 28.7522C60.7272 28.6131 60.6269 28.5372 60.4981 28.4867C60.2099 28.3734 59.9253 28.2542 59.6131 28.2104C59.5096 28.1957 59.4116 28.1115 59.3196 28.0469C59.1184 27.9055 58.9207 27.7574 58.7791 27.5511C58.7396 27.4935 58.7007 27.4309 58.6824 27.3648C58.6711 27.3235 58.6853 27.2449 58.713 27.2304C58.7511 27.2104 58.8274 27.2173 58.8612 27.2446C58.9214 27.2935 58.9633 27.3654 59.0106 27.4296C59.0907 27.5386 59.1693 27.6484 59.2477 27.7583C59.4016 27.974 59.5921 28.1115 59.8675 28.1591C60.0837 28.1965 60.2878 28.3081 60.4962 28.3894C60.6133 28.435 60.6389 28.4163 60.6301 28.2935C60.6247 28.2187 60.6122 28.1534 60.5638 28.0892C60.5374 28.0544 60.5525 27.9884 60.5483 27.9273C60.6888 27.9914 60.7094 27.9898 60.8009 27.8649C60.8204 27.8384 60.796 27.7795 60.7903 27.7213C60.8357 27.6979 60.8905 27.7005 60.9624 27.7391C61.0333 27.7771 61.1234 27.7899 61.2055 27.7921C61.2505 27.7933 61.2647 27.7402 61.2429 27.6909C61.2008 27.5955 61.1564 27.5006 61.1227 27.4021C61.0641 27.2313 61 27.0608 60.9625 26.885C60.9329 26.7466 60.8711 26.637 60.7652 26.5533C60.5775 26.4049 60.3839 26.2638 60.1932 26.1189C60.1543 26.0893 60.1039 26.0637 60.0833 26.0236C60.0614 25.9804 60.0491 25.9121 60.0691 25.874C60.0836 25.8463 60.1682 25.827 60.2027 25.8434C60.3065 25.8933 60.421 25.9446 60.4955 26.0275C60.6794 26.2324 60.8461 26.4531 61.0131 26.6726C61.0459 26.7156 61.057 26.7806 61.0636 26.8371C61.1012 27.1532 61.2369 27.4374 61.3557 27.7262C61.3943 27.8199 61.47 27.8886 61.574 27.9348C61.7184 27.999 61.8548 28.085 61.9861 28.1743C62.2857 28.3776 62.2829 28.7584 62.1521 28.9968C62.1392 29.0206 62.1249 29.0437 62.1188 29.0542C62.3245 29.0822 62.5322 29.1106 62.731 29.1377C62.768 29.0881 62.8205 29.0297 62.8578 28.9629C62.8836 28.9169 62.9053 28.8575 62.8996 28.8073C62.8773 28.6067 62.8559 28.4045 62.8111 28.2083C62.7518 27.9484 62.6652 27.6947 62.6023 27.4352C62.5821 27.3523 62.5931 27.2594 62.6013 27.1726C62.6174 27.0014 62.6358 26.8305 62.6495 26.6594C62.661 26.5174 62.6115 26.411 62.5734 26.2902C62.5259 26.1385 62.5987 25.987 62.7301 25.9443C62.7565 25.9357 62.786 25.9366 62.8165 25.933C62.8174 25.9549 62.8218 25.9681 62.8176 25.9723C62.7053 26.0834 62.7241 26.2156 62.7494 26.3536C62.7647 26.4368 62.7609 26.5234 62.7656 26.6086C62.7716 26.7193 62.7846 26.8303 62.7813 26.9408C62.7791 27.019 62.751 27.0963 62.7421 27.1748C62.7363 27.2265 62.7304 27.2848 62.7477 27.3315C62.928 27.8224 63.0446 28.3261 63.0507 28.8498C63.0523 28.9855 63.0406 29.1262 62.9491 29.2484C63.0021 29.2868 63.0548 29.3247 63.1244 29.375C63.1333 29.3197 63.1386 29.2822 63.1454 29.2449C63.203 28.9301 63.3472 28.6566 63.5441 28.4085C63.5966 28.3423 63.6511 28.3326 63.7361 28.3616C64.2118 28.5235 64.6205 28.8126 65.0574 29.0477C65.1845 29.1161 65.3118 29.1837 65.4404 29.249C65.4726 29.2654 65.5092 29.2773 65.5449 29.2812C65.6866 29.2957 65.8326 29.2904 65.9695 29.3235C66.0666 29.347 66.1534 29.33 66.2456 29.3283C66.311 29.3269 66.3803 29.3451 66.4415 29.3699C66.4791 29.385 66.5047 29.429 66.5359 29.4602L66.5175 29.4847C66.4924 29.4782 66.4655 29.4633 66.4421 29.4671C66.3893 29.4757 66.3377 29.4927 66.2863 29.5084C66.2617 29.5158 66.2328 29.5421 66.2153 29.5353C66.1149 29.4965 66.0125 29.4903 65.907 29.4972C65.8541 29.5006 65.7987 29.5025 65.7475 29.4911C65.6704 29.4737 65.5958 29.4441 65.5232 29.4158C65.47 29.4067 65.4112 29.4093 65.3648 29.3863C64.9577 29.186 64.5523 28.9827 64.1476 28.7772C64.0006 28.7025 63.8576 28.6199 63.6937 28.5307C63.6486 28.6221 63.5965 28.714 63.5568 28.8108C63.4933 28.9658 63.4348 29.1229 63.3803 29.2812C63.343 29.3897 63.3074 29.5002 63.2887 29.6128C63.2809 29.6598 63.309 29.7273 63.3848 29.7188C63.4627 29.71 63.5427 29.7026 63.6163 29.6784C63.8962 29.5866 64.1805 29.5343 64.4762 29.5716C64.5883 29.5856 64.675 29.6332 64.7563 29.7242C65.155 30.1713 65.5632 30.6099 65.9721 31.0477C66.0074 31.0856 66.0718 31.0975 66.1243 31.117C66.1525 31.1274 66.1855 31.1245 66.2144 31.1339C66.3481 31.1775 66.4807 31.224 66.6143 31.2678C66.6334 31.2741 66.6574 31.2765 66.6766 31.2712C66.8 31.238 66.9079 31.2846 67.0096 31.342C67.0483 31.3638 67.0709 31.4141 67.1008 31.4515C67.0932 31.4594 67.0857 31.4674 67.0782 31.4753C67.0571 31.4674 67.0364 31.4586 67.015 31.4516C66.9436 31.4285 66.8778 31.4039 66.809 31.4745C66.7878 31.4962 66.7043 31.482 66.6676 31.4573C66.607 31.4166 66.5503 31.3996 66.4801 31.4101C66.4578 31.4134 66.4333 31.3995 66.4097 31.3954C66.3514 31.3855 66.2916 31.3821 66.2351 31.366C66.1803 31.3506 66.123 31.331 66.0775 31.2983C66.0193 31.2567 65.9663 31.2247 65.8964 31.2641C65.6343 30.8472 65.2384 30.5628 64.9169 30.2091C64.8039 30.0851 64.7089 29.9445 64.6025 29.8142C64.5841 29.7917 64.5497 29.7679 64.5233 29.7685C64.4504 29.7703 64.3752 29.7753 64.3055 29.7955C64.0556 29.8679 63.8117 29.9649 63.5437 29.9471C63.5244 29.9459 63.5042 29.9596 63.4699 29.9714C63.5544 30.1069 63.5353 30.2966 63.7288 30.3579C63.766 30.3698 63.8035 30.4064 63.8237 30.4415C63.8572 30.4998 63.8945 30.5006 63.952 30.4843C64.4857 30.3336 64.9156 30.5173 65.2742 30.9109C65.5807 31.2471 65.7568 31.6571 65.9003 32.0797C65.9759 32.302 66.0244 32.5346 66.0695 32.7657C66.0963 32.9028 66.0924 33.0456 66.1024 33.186L66.0244 33.264L66.0244 33.2646Z" fill="#1F1E1E"/>
<path d="M76.5826 21.1943C76.4569 21.1422 76.3411 21.0719 76.23 20.9941C76.0296 20.8538 75.8446 20.6965 75.6939 20.5019C75.5696 20.3415 75.4749 20.1674 75.4521 19.9618C75.4319 19.7806 75.482 19.6188 75.5919 19.4755C75.6153 19.445 75.6318 19.4202 75.5997 19.3849C75.5876 19.3716 75.5823 19.3499 75.5787 19.3311C75.5727 19.2999 75.5711 19.268 75.5666 19.2366C75.566 19.2321 75.5613 19.2275 75.5576 19.224C75.515 19.1846 75.4723 19.1453 75.4244 19.1012C75.4124 19.1184 75.4013 19.133 75.3918 19.1484C75.3354 19.2393 75.2803 19.3311 75.2229 19.4214C75.1815 19.4866 75.1357 19.549 75.0954 19.6149C75.0877 19.6274 75.0892 19.6559 75.0984 19.6671C75.1974 19.7868 75.2476 19.9313 75.3087 20.0703C75.3812 20.2355 75.4545 20.4004 75.5285 20.5649C75.5386 20.5872 75.5531 20.6081 75.5688 20.6271C75.5905 20.6533 75.6093 20.6758 75.5749 20.7075C75.5675 20.7145 75.5715 20.7372 75.5745 20.7519C75.5852 20.8054 75.6047 20.8582 75.5634 20.9087C75.5561 20.9176 75.5593 20.9359 75.559 20.9499C75.5585 20.9657 75.5659 20.9854 75.5591 20.9969C75.5295 21.047 75.5329 21.0988 75.5391 21.1534C75.5421 21.179 75.5387 21.2048 75.4984 21.2152C75.4799 21.22 75.4704 21.267 75.4612 21.2963C75.4564 21.3118 75.4612 21.3303 75.4617 21.352C75.4181 21.3453 75.4057 21.3147 75.4024 21.2846C75.3951 21.2176 75.392 21.1498 75.4371 21.0918C75.4404 21.0877 75.4447 21.083 75.4451 21.0782C75.4514 21.0115 75.4577 20.9448 75.4629 20.878C75.4653 20.8467 75.4581 20.8122 75.4686 20.7841C75.4892 20.7291 75.4793 20.6814 75.455 20.6317C75.3334 20.3819 75.2131 20.1317 75.0918 19.882C75.0617 19.8199 75.0221 19.7614 75.0013 19.6965C74.9872 19.6523 74.9886 19.5978 74.9997 19.552C75.0393 19.3871 75.128 19.2476 75.2362 19.119C75.2639 19.0862 75.2867 19.0479 75.3057 19.0091C75.3292 18.9612 75.3009 18.9254 75.2476 18.9228C75.0907 18.915 74.9338 18.9025 74.7767 18.8968C74.7215 18.8948 74.6659 18.9068 74.6046 18.913C74.6134 18.9637 74.6243 19.0061 74.6277 19.0492C74.6425 19.2464 74.6538 19.4439 74.6692 19.6412C74.6772 19.7432 74.6907 19.8447 74.7029 19.9464C74.708 19.9891 74.7296 20.0331 74.6849 20.0691C74.6805 20.0727 74.6868 20.0911 74.6896 20.1022C74.7013 20.1483 74.7035 20.1919 74.672 20.233C74.6613 20.2471 74.6595 20.2683 74.654 20.2864C74.6479 20.3062 74.6418 20.3262 74.6364 20.3463C74.629 20.3734 74.6214 20.4006 74.6157 20.4281C74.6088 20.4609 74.616 20.4964 74.5667 20.51C74.5463 20.5157 74.5341 20.5556 74.5215 20.5815C74.5153 20.5942 74.5167 20.6105 74.5148 20.6252C74.5095 20.6267 74.5041 20.6281 74.4988 20.6296C74.4889 20.6096 74.4718 20.59 74.4706 20.5695C74.467 20.507 74.475 20.4458 74.5185 20.3954C74.5253 20.3876 74.5333 20.3792 74.536 20.3698C74.5963 20.1565 74.6369 19.9444 74.593 19.7183C74.5515 19.5055 74.5338 19.288 74.5101 19.072C74.5027 19.0058 74.5053 18.9374 74.513 18.8713C74.5156 18.8486 74.5438 18.8183 74.5667 18.8106C74.7416 18.7525 74.9207 18.7342 75.1034 18.7697C75.1254 18.774 75.1471 18.7798 75.1802 18.7875C75.1701 18.7421 75.1621 18.7059 75.1541 18.6694C75.02 18.6893 74.903 18.6389 74.7906 18.58C74.5611 18.46 74.3477 18.3163 74.1584 18.1376C74.1416 18.1217 74.1116 18.1188 74.0872 18.1121C74.0016 18.0887 73.9113 18.0762 73.8309 18.0409C73.7357 17.9992 73.6494 17.9369 73.5576 17.8866C73.5412 17.8777 73.5165 17.8812 73.4961 17.8833C73.4704 17.886 73.4451 17.8932 73.4194 17.8985C73.4151 17.8286 73.4957 17.7768 73.5648 17.7999C73.6193 17.8182 73.669 17.8404 73.7086 17.8882C73.7322 17.9167 73.7618 17.9603 73.8151 17.9386C73.8184 17.9372 73.8248 17.9421 73.8293 17.9448C73.9245 18.0017 74.0344 18.0099 74.1372 18.0417C74.1994 18.0609 74.2591 18.0958 74.3129 18.1337C74.4777 18.2493 74.638 18.3712 74.8026 18.4871C74.8424 18.5152 74.8905 18.5321 74.9363 18.5503C74.9751 18.5658 75.0122 18.5643 75.0523 18.5417C75.0779 18.5273 75.1153 18.5339 75.1381 18.532C75.1668 18.4164 75.1962 18.2979 75.2254 18.1806C75.1451 18.1999 75.061 18.1867 74.9762 18.1523C74.843 18.0982 74.7936 17.9867 74.7662 17.8603C74.7521 17.795 74.7421 17.7271 74.7434 17.6608C74.7449 17.5751 74.7075 17.5131 74.6494 17.4585C74.5196 17.3364 74.3929 17.2119 74.2354 17.1217C74.1831 17.0917 74.1488 17.0257 74.1134 16.9715C74.0361 16.8529 73.962 16.7315 73.9304 16.5909C73.9216 16.5516 73.9142 16.5099 73.9186 16.4707C73.9214 16.4461 73.9457 16.4072 73.9637 16.4053C73.9883 16.4028 74.0276 16.4227 74.0398 16.4446C74.0616 16.4836 74.0686 16.531 74.0801 16.5754C74.0997 16.6508 74.1182 16.7263 74.1367 16.8019C74.1728 16.9501 74.2453 17.0643 74.3823 17.1486C74.4899 17.2148 74.5752 17.3181 74.6692 17.4061C74.7221 17.4555 74.7398 17.451 74.7613 17.3835C74.7744 17.3424 74.7817 17.3048 74.7695 17.2601C74.7629 17.2358 74.785 17.2038 74.7959 17.1703C74.8573 17.2345 74.8686 17.2381 74.9442 17.1909C74.9604 17.1809 74.9599 17.1441 74.9693 17.1119C74.9985 17.109 75.0273 17.1221 75.0575 17.1582C75.0873 17.1936 75.1327 17.2197 75.1761 17.2384C75.1999 17.2487 75.2189 17.2234 75.2177 17.1924C75.2156 17.1323 75.2122 17.0721 75.2152 17.0123C75.2204 16.9084 75.2226 16.8035 75.2401 16.7015C75.2539 16.6212 75.2443 16.5494 75.2056 16.482C75.1369 16.3625 75.0636 16.2457 74.9926 16.1275C74.9781 16.1034 74.9566 16.0789 74.9542 16.0531C74.9517 16.0253 74.9598 15.9862 74.9786 15.9701C74.9923 15.9584 75.0416 15.9661 75.0565 15.9823C75.1014 16.0311 75.1517 16.083 75.1738 16.1433C75.2283 16.2921 75.2702 16.4457 75.3126 16.5988C75.3209 16.6288 75.3129 16.6659 75.3044 16.6976C75.2569 16.8746 75.2687 17.0555 75.2705 17.2353C75.2711 17.2936 75.2969 17.3466 75.3426 17.3935C75.4061 17.4587 75.4606 17.5338 75.5117 17.6096C75.6284 17.7824 75.5456 17.9853 75.4247 18.0849C75.4127 18.0948 75.4001 18.1041 75.3946 18.1084C75.4985 18.1674 75.6035 18.2269 75.7041 18.2839C75.7344 18.2653 75.775 18.2453 75.8092 18.2176C75.8328 18.1985 75.8571 18.1714 75.8648 18.1433C75.8957 18.0313 75.9275 17.9186 75.9455 17.8042C75.9694 17.6525 75.9773 17.4984 75.9992 17.3462C76.0061 17.2976 76.0318 17.2503 76.0548 17.2056C76.1 17.1175 76.1463 17.0301 76.1903 16.9416C76.2267 16.8681 76.223 16.8006 76.2285 16.7279C76.2355 16.6366 76.3068 16.5712 76.3862 16.5764C76.4021 16.5775 76.4177 16.5843 76.4348 16.5889C76.4306 16.6008 76.4301 16.6088 76.427 16.6101C76.3432 16.6455 76.325 16.7202 76.309 16.7994C76.2994 16.8472 76.2789 16.8927 76.2632 16.9392C76.2427 16.9997 76.2259 17.0618 76.2006 17.1201C76.1826 17.1615 76.1511 17.1968 76.1296 17.2369C76.1154 17.2633 76.0998 17.2932 76.0991 17.3219C76.0905 17.6229 76.0452 17.9171 75.9365 18.1984C75.9083 18.2713 75.872 18.344 75.797 18.3897C75.8171 18.4216 75.8372 18.4531 75.8636 18.4949C75.8802 18.4672 75.8911 18.4483 75.9027 18.4298C76.0008 18.2739 76.1363 18.1585 76.2946 18.0679C76.3368 18.0437 76.368 18.0502 76.4073 18.0839C76.627 18.2721 76.7837 18.514 76.967 18.7331C77.0203 18.7969 77.0739 18.8602 77.1287 18.9226C77.1424 18.9383 77.1595 18.9525 77.1777 18.9621C77.2504 19.0002 77.3296 19.0286 77.3957 19.0755C77.4426 19.1089 77.4926 19.1184 77.5423 19.1371C77.5775 19.1504 77.6107 19.1749 77.6381 19.2013C77.655 19.2174 77.6593 19.2464 77.6693 19.2697L77.6542 19.2789C77.6422 19.27 77.631 19.2563 77.6177 19.2533C77.5876 19.2467 77.5564 19.2447 77.5255 19.2421C77.5108 19.2408 77.4897 19.2487 77.4818 19.2413C77.4364 19.1991 77.383 19.1739 77.3252 19.155C77.2962 19.1456 77.2661 19.1347 77.2412 19.1177C77.2037 19.0919 77.1701 19.0601 77.1374 19.0295C77.1109 19.0132 77.0788 19.0021 77.059 18.9799C76.8842 18.7858 76.7109 18.5904 76.5385 18.3941C76.4758 18.3227 76.417 18.2479 76.3485 18.1652C76.3048 18.2044 76.2573 18.2424 76.2154 18.2857C76.1483 18.355 76.0835 18.4264 76.0205 18.4995C75.9773 18.5495 75.9347 18.6009 75.9006 18.6571C75.8864 18.6806 75.887 18.7227 75.9293 18.7344C75.9728 18.7463 76.0172 18.7594 76.0617 18.7623C76.231 18.773 76.3942 18.8058 76.5443 18.889C76.6012 18.9204 76.6374 18.9644 76.6614 19.0304C76.779 19.3547 76.9035 19.6764 77.0285 19.9979C77.0393 20.0257 77.0712 20.0458 77.095 20.0675C77.1079 20.0791 77.1262 20.0846 77.1396 20.0958C77.2018 20.1477 77.2627 20.2009 77.3248 20.2528C77.3336 20.2603 77.3459 20.2667 77.3574 20.268C77.4304 20.2766 77.4781 20.3246 77.5203 20.377C77.5363 20.397 77.5376 20.4287 77.5456 20.4551C77.5398 20.4577 77.5342 20.4604 77.5284 20.463C77.5189 20.4542 77.5096 20.4451 77.4997 20.4368C77.4665 20.4092 77.4366 20.3819 77.3847 20.4049C77.3687 20.412 77.3271 20.3866 77.3128 20.3655C77.2891 20.3308 77.2624 20.3096 77.2226 20.3002C77.21 20.2972 77.1999 20.2846 77.1881 20.2773C77.1591 20.2596 77.1279 20.245 77.1011 20.2243C77.0751 20.2044 77.0486 20.1816 77.0313 20.1544C77.0091 20.1198 76.9876 20.0913 76.9417 20.0974C76.8908 19.8185 76.7399 19.5818 76.6436 19.324C76.6097 19.2335 76.589 19.1381 76.56 19.0457C76.5549 19.0297 76.5416 19.0096 76.5274 19.0043C76.488 18.9897 76.4467 18.9763 76.4052 18.9722C76.2561 18.9574 76.105 18.9572 75.9655 18.8904C75.9554 18.8856 75.9417 18.8886 75.9209 18.8876C75.9371 18.9781 75.8863 19.0754 75.9766 19.1496C75.994 19.1639 76.0062 19.1915 76.0095 19.2145C76.015 19.2529 76.0347 19.2613 76.0689 19.2649C76.3865 19.2984 76.5771 19.4885 76.6846 19.7756C76.7766 20.0209 76.7831 20.2777 76.7695 20.5343C76.7624 20.6693 76.7386 20.804 76.7133 20.9372C76.6983 21.0162 76.6657 21.0918 76.6411 21.1689L76.5827 21.194L76.5826 21.1943Z" fill="#6C5F5F"/>
<path d="M74.3231 28.7622C74.2316 28.7243 74.1473 28.6731 74.0664 28.6165C73.9205 28.5143 73.7858 28.3998 73.6761 28.2581C73.5855 28.1413 73.5166 28.0146 73.5 27.8649C73.4853 27.7329 73.5218 27.6151 73.6018 27.5108C73.6188 27.4886 73.6308 27.4705 73.6075 27.4448C73.5987 27.4351 73.5948 27.4193 73.5922 27.4056C73.5879 27.383 73.5866 27.3597 73.5834 27.3368C73.5829 27.3336 73.5795 27.3302 73.5768 27.3277C73.5458 27.299 73.5148 27.2704 73.4798 27.2383C73.4711 27.2508 73.463 27.2614 73.4561 27.2726C73.415 27.3388 73.3749 27.4057 73.3331 27.4714C73.303 27.5189 73.2697 27.5643 73.2403 27.6123C73.2347 27.6214 73.2358 27.6421 73.2425 27.6503C73.3146 27.7375 73.3511 27.8427 73.3956 27.9439C73.4484 28.0641 73.5018 28.1842 73.5557 28.304C73.563 28.3202 73.5736 28.3355 73.585 28.3493C73.6008 28.3684 73.6145 28.3847 73.5895 28.4078C73.584 28.4129 73.587 28.4295 73.5891 28.4402C73.597 28.4791 73.6111 28.5175 73.581 28.5543C73.5757 28.5608 73.578 28.5741 73.5778 28.5843C73.5775 28.5958 73.5829 28.6101 73.5779 28.6185C73.5564 28.655 73.5588 28.6927 73.5634 28.7325C73.5655 28.7511 73.563 28.7699 73.5337 28.7775C73.5203 28.781 73.5133 28.8152 73.5067 28.8365C73.5031 28.8478 73.5066 28.8613 73.507 28.877C73.4753 28.8722 73.4662 28.8499 73.4638 28.828C73.4585 28.7792 73.4562 28.7298 73.4891 28.6876C73.4915 28.6846 73.4946 28.6812 73.4949 28.6777C73.4995 28.6292 73.5041 28.5806 73.5079 28.532C73.5097 28.5091 73.5044 28.484 73.512 28.4636C73.5271 28.4235 73.5198 28.3888 73.5021 28.3526C73.4136 28.1708 73.326 27.9886 73.2377 27.8067C73.2158 27.7616 73.187 27.7189 73.1718 27.6717C73.1615 27.6396 73.1625 27.5999 73.1706 27.5665C73.1995 27.4464 73.264 27.3449 73.3428 27.2513C73.363 27.2273 73.3796 27.1995 73.3934 27.1713C73.4105 27.1364 73.39 27.1103 73.3512 27.1084C73.2369 27.1027 73.1226 27.0936 73.0082 27.0894C72.9681 27.088 72.9276 27.0968 72.8829 27.1013C72.8893 27.1382 72.8973 27.1691 72.8998 27.2004C72.9105 27.344 72.9188 27.4878 72.93 27.6314C72.9358 27.7057 72.9457 27.7796 72.9546 27.8537C72.9583 27.8847 72.974 27.9168 72.9414 27.943C72.9382 27.9456 72.9428 27.959 72.9449 27.9671C72.9534 28.0006 72.955 28.0324 72.9321 28.0623C72.9242 28.0726 72.923 28.088 72.9189 28.1012C72.9145 28.1156 72.9101 28.1302 72.9061 28.1448C72.9007 28.1646 72.8952 28.1844 72.891 28.2044C72.886 28.2283 72.8913 28.2541 72.8553 28.264C72.8405 28.2681 72.8317 28.2972 72.8224 28.3161C72.8179 28.3253 72.819 28.3372 72.8176 28.3479C72.8137 28.349 72.8098 28.35 72.8059 28.3511C72.7988 28.3365 72.7862 28.3223 72.7854 28.3073C72.7828 28.2618 72.7886 28.2173 72.8203 28.1806C72.8252 28.1749 72.8311 28.1688 72.833 28.1619C72.8769 28.0066 72.9065 27.8522 72.8745 27.6876C72.8443 27.5327 72.8314 27.3743 72.8141 27.217C72.8088 27.1688 72.8107 27.119 72.8163 27.0709C72.8182 27.0544 72.8387 27.0323 72.8554 27.0267C72.9827 26.9844 73.1131 26.9711 73.2461 26.9969C73.2622 27 73.2779 27.0043 73.3021 27.0099C73.2947 26.9768 73.2889 26.9504 73.283 26.9239C73.1854 26.9384 73.1002 26.9017 73.0184 26.8588C72.8513 26.7714 72.6959 26.6668 72.5581 26.5367C72.5458 26.5251 72.524 26.523 72.5062 26.5182C72.4439 26.5011 72.3782 26.492 72.3197 26.4663C72.2503 26.4359 72.1875 26.3906 72.1206 26.354C72.1087 26.3475 72.0907 26.35 72.0759 26.3515C72.0571 26.3535 72.0388 26.3588 72.02 26.3626C72.0169 26.3117 72.0756 26.274 72.1259 26.2908C72.1656 26.3041 72.2018 26.3203 72.2306 26.3551C72.2478 26.3759 72.2693 26.4076 72.3081 26.3918C72.3105 26.3908 72.3152 26.3944 72.3185 26.3963C72.3878 26.4378 72.4678 26.4437 72.5427 26.4669C72.588 26.4808 72.6314 26.5063 72.6706 26.5338C72.7906 26.618 72.9073 26.7068 73.0271 26.7912C73.0561 26.8116 73.0911 26.824 73.1244 26.8372C73.1527 26.8485 73.1797 26.8474 73.2089 26.8309C73.2276 26.8205 73.2548 26.8252 73.2714 26.8239C73.2923 26.7397 73.3137 26.6534 73.335 26.568C73.2765 26.5821 73.2153 26.5725 73.1535 26.5474C73.0565 26.508 73.0206 26.4268 73.0007 26.3348C72.9904 26.2873 72.9831 26.2378 72.984 26.1895C72.9851 26.1271 72.9579 26.082 72.9156 26.0423C72.821 25.9534 72.7288 25.8627 72.6141 25.797C72.5761 25.7752 72.5511 25.7271 72.5253 25.6877C72.469 25.6013 72.4151 25.5129 72.3921 25.4106C72.3857 25.382 72.3803 25.3516 72.3835 25.323C72.3855 25.3052 72.4032 25.2768 72.4163 25.2754C72.4342 25.2736 72.4629 25.2881 72.4717 25.304C72.4876 25.3324 72.4927 25.367 72.5011 25.3993C72.5153 25.4542 72.5288 25.5092 72.5423 25.5642C72.5686 25.6721 72.6213 25.7552 72.7211 25.8166C72.7995 25.8648 72.8615 25.9401 72.93 26.0041C72.9685 26.0401 72.9814 26.0368 72.9971 25.9876C73.0066 25.9577 73.0119 25.9303 73.003 25.8978C72.9982 25.8801 73.0143 25.8568 73.0222 25.8324C73.0669 25.8792 73.0752 25.8818 73.1302 25.8474C73.142 25.8401 73.1416 25.8134 73.1485 25.7899C73.1698 25.7878 73.1907 25.7973 73.2127 25.8236C73.2344 25.8494 73.2675 25.8684 73.2991 25.882C73.3164 25.8895 73.3302 25.871 73.3294 25.8485C73.3279 25.8048 73.3253 25.7609 73.3275 25.7173C73.3313 25.6417 73.3329 25.5654 73.3457 25.4911C73.3557 25.4327 73.3487 25.3804 73.3205 25.3313C73.2705 25.2443 73.2171 25.1592 73.1654 25.0732C73.1549 25.0556 73.1393 25.0378 73.1375 25.019C73.1357 24.9987 73.1416 24.9703 73.1552 24.9585C73.1652 24.95 73.2011 24.9557 73.212 24.9674C73.2447 25.003 73.2813 25.0408 73.2974 25.0846C73.3371 25.193 73.3676 25.3049 73.3984 25.4163C73.4045 25.4381 73.3987 25.4652 73.3925 25.4882C73.3579 25.6171 73.3665 25.7488 73.3678 25.8797C73.3682 25.9222 73.387 25.9608 73.4203 25.9949C73.4665 26.0424 73.5062 26.0971 73.5434 26.1523C73.6284 26.2781 73.5681 26.4258 73.48 26.4983C73.4713 26.5055 73.4621 26.5123 73.4581 26.5154C73.5338 26.5584 73.6103 26.6018 73.6835 26.6432C73.7056 26.6297 73.7351 26.6151 73.76 26.5949C73.7772 26.581 73.7949 26.5613 73.8005 26.5409C73.823 26.4593 73.8462 26.3773 73.8593 26.2939C73.8766 26.1835 73.8824 26.0713 73.8983 25.9605C73.9034 25.9251 73.9221 25.8907 73.9388 25.8581C73.9717 25.794 74.0055 25.7304 74.0375 25.6659C74.064 25.6124 74.0613 25.5633 74.0653 25.5103C74.0704 25.4439 74.1223 25.3962 74.1801 25.4C74.1917 25.4008 74.2031 25.4058 74.2155 25.4091C74.2125 25.4178 74.2121 25.4236 74.2098 25.4246C74.1488 25.4504 74.1355 25.5047 74.1239 25.5624C74.1169 25.5972 74.102 25.6303 74.0905 25.6642C74.0756 25.7082 74.0634 25.7534 74.045 25.7959C74.0319 25.826 74.009 25.8517 73.9933 25.8809C73.983 25.9001 73.9716 25.9219 73.9711 25.9428C73.9648 26.1619 73.9319 26.3761 73.8527 26.581C73.8322 26.634 73.8058 26.6869 73.7511 26.7203C73.7657 26.7435 73.7804 26.7664 73.7997 26.7969C73.8117 26.7767 73.8196 26.7629 73.8281 26.7495C73.8995 26.6359 73.9982 26.5519 74.1135 26.486C74.1442 26.4683 74.1669 26.473 74.1955 26.4976C74.3554 26.6346 74.4695 26.8108 74.603 26.9703C74.6418 27.0167 74.6809 27.0628 74.7208 27.1083C74.7307 27.1197 74.7432 27.13 74.7564 27.137C74.8093 27.1648 74.867 27.1854 74.9151 27.2196C74.9492 27.2439 74.9857 27.2508 75.0218 27.2644C75.0475 27.2741 75.0717 27.292 75.0916 27.3111C75.1039 27.3229 75.107 27.344 75.1143 27.361L75.1033 27.3676C75.0946 27.3612 75.0864 27.3512 75.0767 27.349C75.0548 27.3442 75.0321 27.3428 75.0097 27.3409C74.9989 27.3399 74.9836 27.3457 74.9778 27.3403C74.9448 27.3096 74.9059 27.2912 74.8638 27.2775C74.8427 27.2706 74.8207 27.2627 74.8026 27.2503C74.7753 27.2315 74.7509 27.2084 74.727 27.1861C74.7078 27.1742 74.6844 27.1661 74.67 27.1499C74.5427 27.0086 74.4165 26.8663 74.291 26.7234C74.2454 26.6714 74.2026 26.617 74.1527 26.5568C74.1209 26.5853 74.0863 26.613 74.0558 26.6445C74.0069 26.695 73.9597 26.747 73.9139 26.8002C73.8824 26.8366 73.8514 26.874 73.8266 26.915C73.8162 26.9321 73.8167 26.9627 73.8475 26.9712C73.8792 26.9799 73.9115 26.9894 73.9439 26.9915C74.0672 26.9993 74.186 27.0232 74.2952 27.0838C74.3367 27.1067 74.363 27.1387 74.3805 27.1868C74.4661 27.4229 74.5568 27.6571 74.6478 27.8911C74.6556 27.9114 74.6788 27.9261 74.6962 27.9418C74.7056 27.9503 74.7189 27.9543 74.7287 27.9624C74.7739 28.0002 74.8183 28.039 74.8635 28.0768C74.8699 28.0822 74.8789 28.0869 74.8872 28.0878C74.9404 28.0941 74.9751 28.129 75.0058 28.1672C75.0175 28.1817 75.0185 28.2048 75.0243 28.224C75.0201 28.2259 75.0159 28.2279 75.0118 28.2298C75.0048 28.2234 74.9981 28.2167 74.9909 28.2107C74.9666 28.1906 74.9449 28.1708 74.9071 28.1875C74.8955 28.1927 74.8652 28.1742 74.8547 28.1588C74.8375 28.1336 74.8181 28.1181 74.7891 28.1113C74.7799 28.1091 74.7726 28.0999 74.764 28.0946C74.7428 28.0817 74.7201 28.071 74.7006 28.056C74.6817 28.0415 74.6624 28.0249 74.6498 28.0051C74.6336 27.9799 74.618 27.9591 74.5846 27.9636C74.5475 27.7605 74.4377 27.5882 74.3675 27.4005C74.3429 27.3346 74.3278 27.2651 74.3066 27.1979C74.303 27.1862 74.2933 27.1716 74.2829 27.1677C74.2543 27.1571 74.2242 27.1473 74.194 27.1444C74.0854 27.1336 73.9754 27.1334 73.8738 27.0848C73.8665 27.0813 73.8565 27.0835 73.8413 27.0827C73.8531 27.1487 73.8161 27.2195 73.8819 27.2735C73.8946 27.2839 73.9034 27.304 73.9059 27.3208C73.9098 27.3487 73.9242 27.3548 73.9491 27.3575C74.1804 27.3818 74.3191 27.5202 74.3974 27.7293C74.4644 27.9079 74.4691 28.0949 74.4592 28.2817C74.454 28.38 74.4367 28.4781 74.4183 28.5751C74.4074 28.6326 74.3837 28.6876 74.3657 28.7438L74.3232 28.762L74.3231 28.7622Z" fill="#6C5F5F"/>
<path d="M62.5963 14.6908C62.5028 14.7897 62.396 14.8729 62.2837 14.9491C62.0813 15.0863 61.8684 15.2032 61.6329 15.2748C61.4388 15.3339 61.2424 15.3604 61.0421 15.3085C60.8656 15.2629 60.7322 15.1584 60.6374 15.0047C60.6172 14.9721 60.5999 14.9478 60.5556 14.9652C60.5388 14.9718 60.5166 14.9691 60.4978 14.9657C60.4665 14.9602 60.4361 14.9504 60.4052 14.9433C60.4007 14.9423 60.3947 14.9451 60.3902 14.9473C60.3382 14.9731 60.2863 14.999 60.228 15.0281C60.2398 15.0455 60.2495 15.061 60.2605 15.0754C60.3254 15.1604 60.3916 15.2446 60.4555 15.3304C60.5017 15.3923 60.5437 15.4572 60.5909 15.5184C60.5999 15.53 60.6271 15.5388 60.6408 15.5342C60.7879 15.4843 60.9408 15.4888 61.0925 15.4811C61.2726 15.4722 61.4529 15.4624 61.6329 15.4518C61.6573 15.4503 61.6821 15.4442 61.7054 15.4363C61.7376 15.4254 61.7653 15.4158 61.7827 15.4592C61.7866 15.4686 61.8093 15.4729 61.824 15.4754C61.8778 15.4844 61.9341 15.485 61.9666 15.5416C61.9724 15.5516 61.9905 15.5551 62.0035 15.5604C62.0182 15.5664 62.0392 15.5665 62.0475 15.577C62.0838 15.6224 62.1334 15.6377 62.1867 15.6514C62.2116 15.6577 62.2345 15.6701 62.2299 15.7114C62.2278 15.7304 62.2684 15.756 62.2925 15.775C62.3052 15.7851 62.3242 15.7871 62.3447 15.7944C62.3229 15.8327 62.2899 15.8335 62.2606 15.8259C62.1954 15.8088 62.1309 15.7876 62.0928 15.7247C62.0901 15.7202 62.0872 15.7145 62.083 15.7124C62.0228 15.6828 61.9627 15.6532 61.9022 15.6246C61.8737 15.6111 61.8389 15.6056 61.8164 15.5858C61.7724 15.5469 61.7243 15.5393 61.6692 15.5443C61.3925 15.569 61.1158 15.5924 60.8393 15.6168C60.7706 15.6228 60.7018 15.639 60.6338 15.6353C60.5874 15.6329 60.537 15.6121 60.4981 15.5854C60.3581 15.4897 60.2593 15.3572 60.1777 15.2103C60.1568 15.1727 60.1292 15.1378 60.0997 15.1062C60.0633 15.0672 60.0198 15.0809 59.9984 15.1298C59.9352 15.2737 59.8677 15.4159 59.8064 15.5606C59.7849 15.6114 59.7764 15.6677 59.7603 15.7272C59.8108 15.737 59.8544 15.7419 59.8958 15.7541C60.0854 15.8105 60.274 15.8702 60.4638 15.926C60.562 15.9549 60.6617 15.9784 60.7611 16.0032C60.8028 16.0136 60.8516 16.0091 60.8693 16.0637C60.8711 16.0691 60.8906 16.0697 60.9019 16.0711C60.9491 16.0765 60.9907 16.09 61.0179 16.134C61.0272 16.1491 61.0464 16.1583 61.0613 16.1699C61.0777 16.1827 61.0942 16.1954 61.1111 16.2077C61.1338 16.2242 61.1565 16.241 61.1802 16.2562C61.2083 16.2743 61.2441 16.2802 61.2393 16.3311C61.2373 16.3521 61.2703 16.3777 61.29 16.3988C61.2996 16.4091 61.3154 16.4135 61.3285 16.4206C61.328 16.4261 61.3274 16.4316 61.3269 16.4371C61.3047 16.4392 61.2802 16.4483 61.2607 16.4421C61.201 16.4231 61.1466 16.3939 61.115 16.3353C61.1101 16.3262 61.1051 16.3157 61.0973 16.3099C60.9194 16.1775 60.7357 16.0641 60.5088 16.0247C60.2951 15.9877 60.0856 15.9268 59.8753 15.8721C59.8108 15.8554 59.7478 15.8286 59.6887 15.7979C59.6685 15.7875 59.6502 15.7503 59.6512 15.7261C59.6592 15.5421 59.7058 15.3682 59.8039 15.21C59.8158 15.191 59.829 15.1729 59.848 15.1446C59.8019 15.1379 59.7652 15.1325 59.7283 15.127C59.6991 15.2594 59.6104 15.3507 59.5154 15.4349C59.3216 15.6066 59.1113 15.7549 58.8769 15.8681C58.8561 15.8783 58.8426 15.9052 58.8278 15.9257C58.7754 15.9973 58.7316 16.0772 58.67 16.1398C58.5971 16.2139 58.5082 16.2724 58.4285 16.3403C58.4143 16.3524 58.4088 16.3768 58.4035 16.3966C58.3969 16.4216 58.3946 16.4477 58.3905 16.4737C58.3235 16.4528 58.3038 16.359 58.35 16.3027C58.3865 16.2583 58.425 16.2197 58.4837 16.1997C58.5188 16.1878 58.57 16.1757 58.5687 16.1181C58.5686 16.1146 58.5754 16.1104 58.5796 16.1071C58.6667 16.0384 58.7135 15.9386 58.7797 15.8538C58.8198 15.8025 58.8737 15.7592 58.9282 15.7223C59.0949 15.6095 59.2659 15.5031 59.4328 15.3906C59.4732 15.3634 59.5062 15.3245 59.5395 15.2882C59.5678 15.2574 59.5796 15.2222 59.5727 15.1766C59.5684 15.1476 59.5878 15.115 59.5942 15.093C59.4964 15.025 59.3961 14.9554 59.2969 14.8863C59.2864 14.9683 59.2441 15.0422 59.1818 15.1092C59.0838 15.2144 58.962 15.2209 58.8341 15.2014C58.7681 15.1914 58.7011 15.1766 58.6395 15.1518C58.56 15.1199 58.4888 15.1328 58.4171 15.1676C58.2567 15.2455 58.0953 15.3195 57.9549 15.4346C57.9083 15.4728 57.8344 15.4814 57.7712 15.4952C57.6328 15.5252 57.493 15.5512 57.3504 15.5306C57.3105 15.5249 57.2689 15.517 57.2338 15.499C57.2118 15.4876 57.1841 15.451 57.1888 15.4335C57.1952 15.4096 57.2278 15.38 57.2526 15.3764C57.2968 15.3699 57.3436 15.3802 57.3892 15.3852C57.4666 15.3938 57.5437 15.4034 57.6209 15.413C57.7723 15.432 57.9048 15.4049 58.0324 15.3069C58.1326 15.2299 58.2595 15.187 58.3752 15.1304C58.4401 15.0986 58.4423 15.0805 58.3868 15.0363C58.353 15.0094 58.3205 14.9892 58.2744 14.9847C58.2494 14.9823 58.2273 14.9502 58.1998 14.9281C58.2817 14.8936 58.2891 14.8843 58.2719 14.7968C58.2683 14.7782 58.2338 14.7656 58.207 14.7453C58.2147 14.7169 58.2372 14.6947 58.2816 14.6794C58.3254 14.6641 58.366 14.631 58.3989 14.597C58.417 14.5785 58.4 14.5517 58.3706 14.5418C58.3138 14.5223 58.2563 14.5042 58.2014 14.48C58.1062 14.4382 58.009 14.3988 57.9199 14.3461C57.8498 14.3047 57.7793 14.2881 57.7025 14.3003C57.5664 14.3219 57.4311 14.3489 57.2954 14.3731C57.2677 14.3781 57.2372 14.3894 57.2122 14.3825C57.1853 14.3749 57.1516 14.3535 57.1433 14.3302C57.1372 14.3132 57.162 14.2699 57.1824 14.2617C57.244 14.2371 57.3104 14.2086 57.3746 14.2094C57.5331 14.2115 57.6916 14.2269 57.8497 14.2418C57.8807 14.2447 57.9126 14.2654 57.9391 14.2846C58.0877 14.392 58.2609 14.4454 58.4296 14.5077C58.4843 14.5279 58.543 14.5227 58.603 14.4967C58.6866 14.4606 58.7762 14.4363 58.8652 14.4155C59.0682 14.368 59.2284 14.5177 59.2784 14.6661C59.2834 14.6808 59.2876 14.6959 59.2896 14.7026C59.3818 14.6264 59.4748 14.5495 59.5638 14.4758C59.5572 14.4408 59.553 14.3958 59.5392 14.354C59.5298 14.3251 59.5131 14.2928 59.4896 14.2755C59.396 14.2068 59.302 14.137 59.2014 14.0794C59.0682 14.0031 58.927 13.9408 58.7926 13.8663C58.7496 13.8425 58.7146 13.8016 58.6809 13.7643C58.6147 13.6907 58.5496 13.6162 58.4824 13.5436C58.4268 13.4834 58.3624 13.4629 58.2964 13.4319C58.2136 13.3928 58.1778 13.3029 58.211 13.2306C58.2177 13.2161 58.2296 13.2039 58.2399 13.1896C58.2496 13.1978 58.2569 13.201 58.257 13.2045C58.2603 13.2954 58.3236 13.339 58.3919 13.3821C58.4331 13.4081 58.4683 13.4434 58.5062 13.4747C58.5554 13.5153 58.6075 13.5531 58.653 13.5976C58.6853 13.6291 58.707 13.6711 58.7368 13.7055C58.7565 13.7281 58.7789 13.7533 58.8054 13.7642C59.0836 13.8794 59.3424 14.0264 59.5666 14.2282C59.6247 14.2804 59.6797 14.3402 59.6958 14.4267C59.7327 14.4192 59.7693 14.4116 59.8178 14.4018C59.7978 14.3765 59.784 14.3596 59.7709 14.3422C59.66 14.195 59.6004 14.0272 59.5722 13.847C59.5646 13.799 59.5817 13.7721 59.6272 13.7475C59.8813 13.6091 60.1632 13.5488 60.4332 13.4555C60.5117 13.4284 60.59 13.4008 60.6678 13.3718C60.6873 13.3646 60.7066 13.3537 60.7222 13.3401C60.7836 13.2857 60.8383 13.2218 60.9057 13.1767C60.9535 13.1448 60.9803 13.1014 61.0155 13.0617C61.0404 13.0335 61.0751 13.0112 61.1095 12.995C61.1306 12.985 61.1592 12.9913 61.1846 12.9902L61.1878 13.0076C61.1752 13.0157 61.1584 13.0212 61.1509 13.0326C61.1339 13.0584 61.121 13.0868 61.1076 13.1147C61.1012 13.1281 61.101 13.1505 61.0913 13.1553C61.0357 13.1827 60.9931 13.2237 60.9549 13.271C60.9357 13.2947 60.9149 13.319 60.8901 13.3362C60.8527 13.3621 60.8111 13.3821 60.7707 13.4018C60.7461 13.4207 60.7243 13.4467 60.6965 13.4574C60.4529 13.5516 60.2086 13.644 59.9637 13.7353C59.8747 13.7684 59.784 13.7967 59.6823 13.8313C59.7034 13.8861 59.722 13.944 59.7475 13.9986C59.7884 14.0859 59.8321 14.172 59.8779 14.2568C59.9092 14.315 59.9422 14.3732 59.9826 14.425C59.9994 14.4466 60.039 14.461 60.065 14.4256C60.0916 14.3892 60.1197 14.3524 60.1381 14.3119C60.2084 14.1574 60.2972 14.0167 60.4283 13.906C60.478 13.864 60.532 13.8459 60.6022 13.8469C60.9471 13.8524 61.2921 13.8506 61.637 13.8482C61.6668 13.848 61.697 13.8254 61.7257 13.8108C61.7411 13.8029 61.7528 13.7878 61.768 13.7792C61.8386 13.7396 61.91 13.7016 61.9807 13.6621C61.9908 13.6565 62.0012 13.6472 62.0065 13.637C62.0405 13.5718 62.1023 13.5443 62.1663 13.5236C62.1907 13.5157 62.2208 13.5258 62.2483 13.5277C62.2486 13.534 62.2491 13.5403 62.2495 13.5466C62.238 13.5524 62.2261 13.5578 62.2148 13.5641C62.1772 13.5853 62.1411 13.6036 62.1442 13.6603C62.1451 13.6777 62.1065 13.7076 62.0817 13.7134C62.0409 13.7232 62.0115 13.7406 61.9886 13.7744C61.9813 13.7852 61.9659 13.7901 61.9549 13.7985C61.928 13.8194 61.9032 13.8433 61.8744 13.861C61.8465 13.8782 61.8158 13.8948 61.7842 13.9013C61.7439 13.9098 61.7097 13.9197 61.6991 13.9647C61.4203 13.9131 61.1454 13.9698 60.8702 13.968C60.7736 13.9675 60.677 13.9529 60.5804 13.9471C60.5636 13.9462 60.5401 13.9514 60.5301 13.9629C60.5024 13.9944 60.4752 14.0282 60.4566 14.0656C60.3897 14.1997 60.3357 14.3408 60.2236 14.4474C60.2156 14.4551 60.2135 14.469 60.2051 14.4881C60.2955 14.5052 60.3683 14.5873 60.4698 14.5293C60.4894 14.5181 60.5195 14.5165 60.5422 14.5216C60.58 14.5302 60.5949 14.5147 60.6104 14.484C60.7548 14.1992 61.0002 14.0888 61.3068 14.0904C61.5688 14.0918 61.8111 14.1771 62.0461 14.2812C62.1697 14.3359 62.2871 14.406 62.4026 14.4771C62.4711 14.5192 62.5301 14.5766 62.5934 14.6271L62.596 14.6906L62.5963 14.6908Z" fill="#6C5F5F"/>
<path d="M55.1066 10.3803C48.0841 16.0482 46.9861 26.3359 52.6541 33.3586C58.3221 40.3811 68.6098 41.4792 75.6324 35.811C82.6549 30.1431 83.7529 19.8554 78.0849 12.8328C72.4169 5.81024 62.1292 4.71208 55.1066 10.3803ZM74.3642 34.24C68.2094 39.2076 59.1927 38.2453 54.2251 32.0905C49.2575 25.9358 50.2198 16.9191 56.3746 11.9515C62.5293 6.98386 71.546 7.94619 76.5136 14.1009C81.4812 20.2557 80.5189 29.2724 74.3642 34.24Z" fill="#263238"/>
<path opacity="0.2" d="M79.2032 26.8021C81.2503 19.1622 76.7164 11.3094 69.0765 9.26227C61.4367 7.21517 53.5838 11.749 51.5367 19.3889C49.4896 27.0288 54.0234 34.8817 61.6633 36.9288C69.3032 38.9759 77.1561 34.442 79.2032 26.8021Z" fill="#FFD000"/>
<path d="M92.4882 40.129L91.7606 41.2386C91.4207 41.757 90.8208 41.9562 90.4399 41.6771L77.5395 32.228C77.1831 31.967 77.1487 31.3801 77.4612 30.8916C77.784 30.3868 78.3579 30.172 78.7471 30.4101L92.3749 38.7495C92.7732 38.9931 92.8244 39.6161 92.4881 40.1289L92.4882 40.129Z" fill="#263238"/>
</g>
<defs>
<clipPath id="clip0_896_32964">
<rect width="120" height="120" fill="white" transform="translate(0.5)"/>
</clipPath>
</defs>
</svg>
