<svg width="210" height="210" viewBox="0 0 210 210" fill="none" xmlns="http://www.w3.org/2000/svg">
<g clip-path="url(#clip0_171_19740)">
<path opacity="0.7" d="M23.5779 86.1106C23.5779 86.1106 12.9331 116.465 30.5929 145.967C48.2528 175.47 82.9007 190.108 110.665 202.694C138.428 215.281 166.481 207.595 179.095 184.806C191.709 162.017 172.67 146.799 171.455 115.021C170.241 83.2428 174.783 74.6478 156.287 48.4549C137.792 22.2619 94.694 17.9212 63.0156 39.0481C31.3372 60.1749 23.5779 86.1106 23.5779 86.1106Z" fill="white"/>
<path d="M90.9512 26.0704C143.104 19.542 144.297 48.5959 168.89 74.7977C193.483 101 198.993 113.096 191.271 144.651C183.549 176.206 154.51 201.827 116.93 189.325C79.3488 176.823 58.6191 190.958 34.7809 179.502C10.9426 168.046 1.36028 144.594 17.434 115.909C33.5077 87.2244 26.6281 34.1485 90.9512 26.0704Z" fill="#FFC100"/>
<path opacity="0.7" d="M90.9512 26.0704C143.104 19.542 144.297 48.5959 168.89 74.7977C193.483 101 198.993 113.096 191.271 144.651C183.549 176.206 154.51 201.827 116.93 189.325C79.3488 176.823 58.6191 190.958 34.7809 179.502C10.9426 168.046 1.36028 144.594 17.434 115.909C33.5077 87.2244 26.6281 34.1485 90.9512 26.0704Z" fill="white"/>
<path d="M214.3 174.654H-9.74121V174.766H214.3V174.654Z" fill="#EBEBEB"/>
<path d="M191.851 181.863H177.011V181.975H191.851V181.863Z" fill="#EBEBEB"/>
<path d="M138.673 183.082H134.779V183.194H138.673V183.082Z" fill="#EBEBEB"/>
<path d="M176.562 177.705H167.963V177.817H176.562V177.705Z" fill="#EBEBEB"/>
<path d="M33.1183 178.458H13.7656V178.57H33.1183V178.458Z" fill="#EBEBEB"/>
<path d="M39.9467 178.458H37.1104V178.57H39.9467V178.458Z" fill="#EBEBEB"/>
<path d="M91.1448 180.349H49.1685V180.461H91.1448V180.349Z" fill="#EBEBEB"/>
<path d="M96.4541 154.669H9.93395C9.25616 154.668 8.60653 154.398 8.12768 153.918C7.64883 153.438 7.37988 152.788 7.37988 152.111V30.4877C7.38578 29.8138 7.65733 29.1694 8.13555 28.6946C8.61376 28.2197 9.26002 27.9527 9.93395 27.9515H96.4541C97.1327 27.9515 97.7834 28.2211 98.2633 28.7009C98.7431 29.1807 99.0126 29.8315 99.0126 30.5101V152.111C99.0126 152.789 98.7431 153.44 98.2633 153.92C97.7834 154.4 97.1327 154.669 96.4541 154.669ZM9.93395 28.0412C9.28587 28.0423 8.66473 28.3006 8.20689 28.7593C7.74905 29.218 7.4919 29.8396 7.4919 30.4877V152.111C7.4919 152.759 7.74905 153.38 8.20689 153.839C8.66473 154.298 9.28587 154.556 9.93395 154.557H96.4541C97.1026 154.556 97.7242 154.298 98.1827 153.839C98.6413 153.381 98.8994 152.759 98.9006 152.111V30.4877C98.8994 29.8392 98.6413 29.2176 98.1827 28.759C97.7242 28.3005 97.1026 28.0423 96.4541 28.0412H9.93395Z" fill="#EBEBEB"/>
<path d="M193.379 154.669H106.854C106.176 154.668 105.526 154.398 105.047 153.918C104.567 153.439 104.297 152.789 104.296 152.111V30.4877C104.303 29.8134 104.576 29.169 105.054 28.6943C105.533 28.2195 106.18 27.9527 106.854 27.9515H193.379C194.052 27.9539 194.697 28.2214 195.175 28.6961C195.652 29.1709 195.923 29.8146 195.929 30.4877V152.111C195.929 152.788 195.66 153.437 195.182 153.917C194.705 154.396 194.056 154.667 193.379 154.669ZM106.854 28.0412C106.206 28.0423 105.584 28.3005 105.126 28.759C104.667 29.2176 104.409 29.8392 104.408 30.4877V152.111C104.409 152.759 104.667 153.381 105.126 153.839C105.584 154.298 106.206 154.556 106.854 154.557H193.379C194.028 154.556 194.649 154.298 195.108 153.839C195.566 153.381 195.824 152.759 195.826 152.111V30.4877C195.824 29.8392 195.566 29.2176 195.108 28.759C194.649 28.3005 194.028 28.0423 193.379 28.0412H106.854Z" fill="#EBEBEB"/>
<path d="M76.6399 51.5252H17.9771V116.439H76.6399V51.5252Z" fill="#E9E9E9"/>
<path d="M74.2114 54.0971H20.5581V114.001H74.2114V54.0971Z" fill="#F4F4F4"/>
<path d="M35.7212 54.0971L20.5581 110.887V80.1396L27.4989 54.0971H35.7212Z" fill="white"/>
<path d="M42.5008 54.0971L26.5088 114.001H23.4932L39.4852 54.0971H42.5008Z" fill="white"/>
<path d="M74.2116 70.4343V101.182L70.8152 114.001H62.5884L74.2116 70.4343Z" fill="white"/>
<path d="M48.3487 51.5252H46.2651V116.439H48.3487V51.5252Z" fill="#E9E9E9"/>
<path d="M75.5112 64.6988H18.9946V66.7824H75.5112V64.6988Z" fill="#E9E9E9"/>
<path d="M187.635 74.0771H108.643V174.103H187.635V74.0771Z" fill="#F0F0F0"/>
<path d="M184.843 77.7245H111.434V99.1159H184.843V77.7245Z" fill="#E0E0E0"/>
<path d="M115.606 81.1882H111.434V99.116H115.606V81.1882Z" fill="#EBEBEB"/>
<path d="M135.769 81.1882H131.598V99.116H135.769V81.1882Z" fill="#EBEBEB"/>
<path d="M158.661 80.7371L154.55 81.4457L157.595 99.1129L161.706 98.4043L158.661 80.7371Z" fill="#EBEBEB"/>
<path d="M120.772 83.5496H116.6V99.1159H120.772V83.5496Z" fill="#EBEBEB"/>
<path d="M130.356 83.5496H126.185V99.1159H130.356V83.5496Z" fill="#EBEBEB"/>
<path d="M154.548 83.5496H150.376V99.1159H154.548V83.5496Z" fill="#EBEBEB"/>
<path d="M141.246 83.0045L137.173 83.9095L140.55 99.1052L144.623 98.2001L141.246 83.0045Z" fill="#EBEBEB"/>
<path d="M124.375 80.2965H122.291V99.1115H124.375V80.2965Z" fill="#EBEBEB"/>
<path d="M149.176 80.2965H147.092V99.1115H149.176V80.2965Z" fill="#EBEBEB"/>
<path d="M111.43 123.89L184.839 123.89V102.499L111.43 102.499V123.89Z" fill="#E0E0E0"/>
<path d="M180.667 123.89H184.839V105.963H180.667V123.89Z" fill="#EBEBEB"/>
<path d="M160.503 123.89H164.675V105.963H160.503V123.89Z" fill="#EBEBEB"/>
<path d="M134.571 123.176L138.682 123.885L141.727 106.218L137.616 105.509L134.571 123.176Z" fill="#EBEBEB"/>
<path d="M175.501 123.89H179.672V108.324H175.501V123.89Z" fill="#EBEBEB"/>
<path d="M165.921 123.89H170.092V108.324H165.921V123.89Z" fill="#EBEBEB"/>
<path d="M141.724 123.89H145.896V108.324H141.724V123.89Z" fill="#EBEBEB"/>
<path d="M151.656 122.977L155.729 123.882L159.106 108.686L155.033 107.781L151.656 122.977Z" fill="#EBEBEB"/>
<path d="M171.898 123.886H173.981V105.071H171.898V123.886Z" fill="#EBEBEB"/>
<path d="M147.097 123.886H149.18V105.071H147.097V123.886Z" fill="#EBEBEB"/>
<path d="M115.606 105.963H111.434V123.89H115.606V105.963Z" fill="#EBEBEB"/>
<path d="M120.772 108.324H116.6V123.89H120.772V108.324Z" fill="#EBEBEB"/>
<path d="M130.356 108.324H126.185V123.89H130.356V108.324Z" fill="#EBEBEB"/>
<path d="M124.375 105.075H122.291V123.89H124.375V105.075Z" fill="#EBEBEB"/>
<path d="M184.843 127.278H111.434V148.669H184.843V127.278Z" fill="#E0E0E0"/>
<path d="M157.739 130.742H153.567V148.669H157.739V130.742Z" fill="#EBEBEB"/>
<path d="M180.631 130.288L176.52 130.996L179.565 148.664L183.676 147.955L180.631 130.288Z" fill="#EBEBEB"/>
<path d="M142.741 133.103H138.569V148.669H142.741V133.103Z" fill="#EBEBEB"/>
<path d="M152.325 133.103H148.154V148.669H152.325V133.103Z" fill="#EBEBEB"/>
<path d="M176.518 133.103H172.346V148.669H176.518V133.103Z" fill="#EBEBEB"/>
<path d="M163.218 132.557L159.146 133.462L162.523 148.658L166.595 147.753L163.218 132.557Z" fill="#EBEBEB"/>
<path d="M146.344 129.85H144.26V148.665H146.344V129.85Z" fill="#EBEBEB"/>
<path d="M171.146 129.85H169.062V148.665H171.146V129.85Z" fill="#EBEBEB"/>
<path d="M132.653 130.291L128.542 131L131.587 148.667L135.698 147.958L132.653 130.291Z" fill="#EBEBEB"/>
<path d="M128.547 133.103H124.375V148.669H128.547V133.103Z" fill="#EBEBEB"/>
<path d="M115.242 132.561L111.169 133.466L114.547 148.662L118.619 147.757L115.242 132.561Z" fill="#EBEBEB"/>
<path d="M123.173 129.85H121.09V148.665H123.173V129.85Z" fill="#EBEBEB"/>
<path d="M120.767 74.0772V72.594H123.173C121.681 68.0493 121.373 63.199 122.277 58.5018C122.277 58.5018 122.241 64.654 124.621 64.6988C128.255 64.7615 128.528 58.5018 128.528 58.5018C128.528 58.5018 129.424 67.4635 126.144 72.594H128.635V74.0772H120.767Z" fill="#E0E0E0"/>
<path d="M127.529 62.6062C127.529 63.021 127.406 63.4264 127.176 63.7713C126.945 64.1161 126.618 64.3849 126.234 64.5436C125.851 64.7024 125.43 64.7439 125.023 64.663C124.616 64.5821 124.242 64.3823 123.949 64.0891C123.656 63.7958 123.456 63.4221 123.375 63.0153C123.294 62.6086 123.336 62.1869 123.495 61.8037C123.653 61.4206 123.922 61.093 124.267 60.8626C124.612 60.6322 125.017 60.5092 125.432 60.5092C125.707 60.5092 125.98 60.5635 126.234 60.6688C126.489 60.7742 126.72 60.9287 126.915 61.1234C127.11 61.3181 127.264 61.5493 127.369 61.8037C127.475 62.0582 127.529 62.3309 127.529 62.6062Z" fill="#E0E0E0"/>
<path d="M136.898 74.0771V73.2078L139.439 72.0249L138.171 70.7837L141.308 59.6175V66.5896C141.308 66.5896 140.859 66.5896 140.859 67.5933C140.859 68.597 142.302 68.364 142.302 67.5351C142.302 66.7061 141.827 66.5896 141.827 66.5896V59.3173L144.722 70.367L143.423 72.0204L146.021 73.2033V74.0681L136.898 74.0771Z" fill="#E0E0E0"/>
<path d="M152.464 74.0771V73.3915L154.803 72.8583V62.6062L156.811 59.8012L158.527 61.9968V66.7017L159.414 65.4739L160.651 64.999L161.538 66.9392L159.647 72.8583L161.538 73.3915V74.0771H152.464Z" fill="#E0E0E0"/>
<path d="M168.004 74.3908L170.877 59.8012H179.672L177.589 68.0728L180.672 74.0771L168.004 74.3908Z" fill="#E0E0E0"/>
<path d="M102.28 194.889C150.261 194.889 189.158 192.618 189.158 189.817C189.158 187.015 150.261 184.744 102.28 184.744C54.2978 184.744 15.4009 187.015 15.4009 189.817C15.4009 192.618 54.2978 194.889 102.28 194.889Z" fill="#F5F5F5"/>
<path opacity="0.5" d="M210 190.5C210 190.559 143.998 190.375 68.6147 190.375C-6.76813 190.375 0.773646 190.559 0.773646 190.5C0.773646 190.44 -6.79653 190.154 68.6147 190.154C144.026 190.154 210 190.436 210 190.5Z" fill="#263238"/>
<path d="M164.563 179.99C164.563 179.99 166.494 175.778 164.285 171.625C162.076 167.471 161.44 166.489 162.847 165.638C164.254 164.787 164.899 168.963 164.899 168.963C165.593 167.077 165.665 165.018 165.105 163.089C164.124 160.082 163.51 155.189 164.85 154.66C166.189 154.131 165.105 160.767 166.266 163.026C166.856 161.439 167.237 159.782 167.399 158.097C167.56 155.686 167.31 151.824 168.363 150.842C169.416 149.861 170.097 150.538 169.057 155.865C168.429 159.045 168.08 162.273 168.013 165.513C168.013 165.513 170.303 158.523 171.84 158.343C173.377 158.164 173.377 160.4 172.059 162.376C170.742 164.352 168.206 167.856 167.789 169.666C167.789 169.666 170.303 164.406 172.566 166.019C174.828 167.632 170.599 170.805 168.712 171.952C166.826 173.099 165.513 180.295 165.513 180.295L164.563 179.99Z" fill="#FFC100"/>
<path opacity="0.6" d="M164.563 179.99C164.563 179.99 166.494 175.778 164.285 171.625C162.076 167.471 161.44 166.489 162.847 165.638C164.254 164.787 164.899 168.963 164.899 168.963C165.593 167.077 165.665 165.018 165.105 163.089C164.124 160.082 163.51 155.189 164.85 154.66C166.189 154.131 165.105 160.767 166.266 163.026C166.856 161.439 167.237 159.782 167.399 158.097C167.56 155.686 167.31 151.824 168.363 150.842C169.416 149.861 170.097 150.538 169.057 155.865C168.429 159.045 168.08 162.273 168.013 165.513C168.013 165.513 170.303 158.523 171.84 158.343C173.377 158.164 173.377 160.4 172.059 162.376C170.742 164.352 168.206 167.856 167.789 169.666C167.789 169.666 170.303 164.406 172.566 166.019C174.828 167.632 170.599 170.805 168.712 171.952C166.826 173.099 165.513 180.295 165.513 180.295L164.563 179.99Z" fill="white"/>
<path d="M166.068 181.72C166.068 181.72 164.187 177.477 166.445 173.354C168.703 169.232 169.348 168.268 167.955 167.395C166.561 166.521 165.862 170.688 165.862 170.688C165.188 168.794 165.141 166.733 165.728 164.809C166.741 161.816 167.413 156.932 166.082 156.39C164.751 155.848 165.755 162.488 164.567 164.733C163.996 163.144 163.635 161.487 163.492 159.804C163.362 157.389 163.658 153.531 162.596 152.532C161.534 151.533 160.866 152.205 161.843 157.546C162.422 160.737 162.722 163.972 162.739 167.215C162.739 167.215 160.53 160.194 158.993 159.97C157.456 159.746 157.434 162.004 158.729 164.003C160.024 166.001 162.515 169.541 162.909 171.356C162.909 171.356 160.458 166.059 158.178 167.637C155.897 169.214 160.087 172.454 161.96 173.628C163.833 174.802 165.056 182.016 165.056 182.016L166.068 181.72Z" fill="#FFC100"/>
<path opacity="0.7" d="M166.068 181.72C166.068 181.72 164.187 177.477 166.445 173.354C168.703 169.232 169.348 168.268 167.955 167.395C166.561 166.521 165.862 170.688 165.862 170.688C165.188 168.794 165.141 166.733 165.728 164.809C166.741 161.816 167.413 156.932 166.082 156.39C164.751 155.848 165.755 162.488 164.567 164.733C163.996 163.144 163.635 161.487 163.492 159.804C163.362 157.389 163.658 153.531 162.596 152.532C161.534 151.533 160.866 152.205 161.843 157.546C162.422 160.737 162.722 163.972 162.739 167.215C162.739 167.215 160.53 160.194 158.993 159.97C157.456 159.746 157.434 162.004 158.729 164.003C160.024 166.001 162.515 169.541 162.909 171.356C162.909 171.356 160.458 166.059 158.178 167.637C155.897 169.214 160.087 172.454 161.96 173.628C163.833 174.802 165.056 182.016 165.056 182.016L166.068 181.72Z" fill="white"/>
<path d="M157.394 178.695H172.929L171.669 189.812H158.653L157.394 178.695Z" fill="#FFC100"/>
<path d="M149.337 118.047L143.884 150.614H141.384L146.591 118.37L149.337 118.047Z" fill="#263238"/>
<path opacity="0.4" d="M149.337 118.047L143.884 150.614H141.384L146.591 118.37L149.337 118.047Z" fill="white"/>
<path d="M140.891 118.567L136.688 151.322L134.188 151.416L138.158 118.993L140.891 118.567Z" fill="#263238"/>
<path opacity="0.4" d="M140.891 118.567L136.688 151.322L134.188 151.416L138.158 118.993L140.891 118.567Z" fill="white"/>
<path d="M132.315 117.425L129.698 150.341L127.207 150.556L129.608 117.98L132.315 117.425Z" fill="#263238"/>
<path opacity="0.4" d="M132.315 117.425L129.698 150.341L127.207 150.556L129.608 117.98L132.315 117.425Z" fill="white"/>
<path d="M127.215 151.277L127.377 158.254L128.111 189.812H130.536L131.266 158.254L131.427 151.277H127.215Z" fill="#263238"/>
<path opacity="0.4" d="M127.215 151.277L127.377 158.254L128.111 189.812H130.536L131.266 158.254L131.427 151.277H127.215Z" fill="white"/>
<path opacity="0.2" d="M127.215 151.277L127.377 158.447H131.266L131.427 151.277H127.215Z" fill="black"/>
<path d="M111.811 189.7L114.051 151.77H117.712L114.575 189.7H111.811Z" fill="#263238"/>
<path opacity="0.5" d="M114.58 189.7H111.815L113.845 155.176L114.046 151.725H117.707L117.425 155.176L114.58 189.7Z" fill="white"/>
<path opacity="0.2" d="M117.707 151.725L117.425 155.31H113.845L114.046 151.725H117.707Z" fill="black"/>
<path d="M144.068 189.7L140.931 151.77H144.592L146.832 189.7H144.068Z" fill="#263238"/>
<path opacity="0.5" d="M144.063 189.7L141.218 155.176L140.936 151.725H144.596L144.798 155.176L146.828 189.7H144.063Z" fill="white"/>
<path opacity="0.2" d="M140.936 151.725L141.218 155.31H144.798L144.596 151.725H140.936Z" fill="black"/>
<path d="M146.555 153.078H112.088V150.081C112.088 149.487 112.324 148.917 112.744 148.497C113.165 148.076 113.734 147.84 114.329 147.84H144.314C144.908 147.84 145.478 148.076 145.898 148.497C146.319 148.917 146.555 149.487 146.555 150.081V153.078Z" fill="#FFC100"/>
<path d="M111.555 153.078H147.093C147.59 153.078 147.993 152.675 147.993 152.178V151.362C147.993 150.865 147.59 150.462 147.093 150.462H111.555C111.058 150.462 110.654 150.865 110.654 151.362V152.178C110.654 152.675 111.058 153.078 111.555 153.078Z" fill="#263238"/>
<path opacity="0.6" d="M111.555 153.078H147.093C147.59 153.078 147.993 152.675 147.993 152.178V151.362C147.993 150.865 147.59 150.462 147.093 150.462H111.555C111.058 150.462 110.654 150.865 110.654 151.362V152.178C110.654 152.675 111.058 153.078 111.555 153.078Z" fill="white"/>
<path d="M153.41 110.668L151.865 119.831C151.784 120.305 151.538 120.735 151.171 121.045C150.803 121.355 150.338 121.525 149.857 121.525H128.452C128.168 121.525 127.886 121.465 127.626 121.35C127.366 121.234 127.134 121.066 126.943 120.854C126.752 120.643 126.608 120.394 126.52 120.124C126.432 119.853 126.402 119.567 126.431 119.284L127.426 110.121C127.485 109.627 127.724 109.171 128.096 108.841C128.469 108.511 128.949 108.328 129.447 108.329H151.403C151.696 108.329 151.985 108.393 152.25 108.515C152.516 108.638 152.752 108.816 152.943 109.038C153.133 109.26 153.274 109.521 153.354 109.802C153.435 110.083 153.454 110.378 153.41 110.668Z" fill="#263238"/>
<path opacity="0.5" d="M153.41 110.668L151.865 119.831C151.784 120.305 151.538 120.735 151.171 121.045C150.803 121.355 150.338 121.525 149.857 121.525H128.452C128.168 121.525 127.886 121.465 127.626 121.35C127.366 121.234 127.134 121.066 126.943 120.854C126.752 120.643 126.608 120.394 126.52 120.124C126.432 119.853 126.402 119.567 126.431 119.284L127.426 110.121C127.485 109.627 127.724 109.171 128.096 108.841C128.469 108.511 128.949 108.328 129.447 108.329H151.403C151.696 108.329 151.985 108.393 152.25 108.515C152.516 108.638 152.752 108.816 152.943 109.038C153.133 109.26 153.274 109.521 153.354 109.802C153.435 110.083 153.454 110.378 153.41 110.668Z" fill="white"/>
<path d="M90.2812 173.983L88.274 173.501L89.277 170.002L89.2771 170.001L90.4111 166.056L92.8101 167.081L91.6161 170.332L91.6158 170.333L90.2812 173.983Z" fill="white" stroke="#263238"/>
<path d="M90.8222 174.269L90.8219 174.27L90.8222 174.269ZM83.0036 177.129L83.0035 177.129C82.3785 176.979 81.8646 176.767 81.4852 176.541C81.0932 176.309 80.8898 176.09 80.8187 175.952C80.8085 175.932 80.8025 175.917 80.7991 175.906C80.7991 175.906 80.7991 175.906 80.7991 175.906C80.8815 175.841 81.1478 175.733 81.7504 175.736C83.1194 175.743 84.5926 175.234 85.69 174.751C86.2457 174.506 86.7197 174.261 87.0552 174.077C87.2107 173.992 87.3369 173.919 87.4282 173.866C87.5371 173.886 87.6893 173.914 87.8707 173.948C88.2468 174.019 88.7461 174.117 89.242 174.224C89.7408 174.332 90.2242 174.448 90.5737 174.554C90.6413 174.575 90.7007 174.594 90.7521 174.612C90.6102 175.348 90.5361 176.008 90.4854 176.579C90.4657 176.8 90.4498 177.002 90.4352 177.188C90.4051 177.571 90.3804 177.886 90.3392 178.155C90.2754 178.571 90.1923 178.694 90.1483 178.73C90.1327 178.743 90.0307 178.819 89.5997 178.716L89.5994 178.715L83.0036 177.129Z" fill="#263238" stroke="#263238"/>
<mask id="path-92-inside-1_171_19740" fill="white">
<path d="M84.6563 173.677C84.6102 173.611 84.5854 173.533 84.5854 173.453C84.5854 173.373 84.6102 173.294 84.6563 173.229C84.6852 173.175 84.7248 173.128 84.7726 173.09C84.8203 173.053 84.8753 173.025 84.9341 173.009C85.2378 172.966 85.5477 173.006 85.8302 173.126C85.5479 172.875 85.3149 172.597 85.3508 172.386C85.3777 172.247 85.4942 172.153 85.6958 172.113C85.785 172.092 85.8778 172.091 85.9676 172.109C86.0574 172.128 86.1421 172.166 86.2156 172.221C86.704 172.579 86.8115 173.565 86.8205 173.632C86.8251 173.648 86.8251 173.665 86.8205 173.681V173.708L86.7936 173.735C86.782 173.739 86.7694 173.739 86.7578 173.735C86.3322 173.829 85.8985 173.881 85.4628 173.892C85.3208 173.913 85.1759 173.905 85.0372 173.868C84.8985 173.831 84.7688 173.766 84.6563 173.677ZM85.0013 173.229C84.9702 173.236 84.9409 173.25 84.9155 173.269C84.89 173.288 84.8689 173.313 84.8534 173.341C84.7772 173.489 84.8131 173.542 84.8265 173.56C84.9789 173.762 85.763 173.717 86.4127 173.61C85.9871 173.39 85.3284 173.13 85.0013 173.215V173.229ZM85.7675 172.333C85.7048 172.333 85.6017 172.377 85.5928 172.431C85.5614 172.615 86.0408 173.063 86.592 173.43C86.547 173.046 86.3806 172.687 86.117 172.404C86.0433 172.353 85.9559 172.325 85.8661 172.324L85.7675 172.333Z"/>
</mask>
<path d="M84.6563 173.677C84.6102 173.611 84.5854 173.533 84.5854 173.453C84.5854 173.373 84.6102 173.294 84.6563 173.229C84.6852 173.175 84.7248 173.128 84.7726 173.09C84.8203 173.053 84.8753 173.025 84.9341 173.009C85.2378 172.966 85.5477 173.006 85.8302 173.126C85.5479 172.875 85.3149 172.597 85.3508 172.386C85.3777 172.247 85.4942 172.153 85.6958 172.113C85.785 172.092 85.8778 172.091 85.9676 172.109C86.0574 172.128 86.1421 172.166 86.2156 172.221C86.704 172.579 86.8115 173.565 86.8205 173.632C86.8251 173.648 86.8251 173.665 86.8205 173.681V173.708L86.7936 173.735C86.782 173.739 86.7694 173.739 86.7578 173.735C86.3322 173.829 85.8985 173.881 85.4628 173.892C85.3208 173.913 85.1759 173.905 85.0372 173.868C84.8985 173.831 84.7688 173.766 84.6563 173.677ZM85.0013 173.229C84.9702 173.236 84.9409 173.25 84.9155 173.269C84.89 173.288 84.8689 173.313 84.8534 173.341C84.7772 173.489 84.8131 173.542 84.8265 173.56C84.9789 173.762 85.763 173.717 86.4127 173.61C85.9871 173.39 85.3284 173.13 85.0013 173.215V173.229ZM85.7675 172.333C85.7048 172.333 85.6017 172.377 85.5928 172.431C85.5614 172.615 86.0408 173.063 86.592 173.43C86.547 173.046 86.3806 172.687 86.117 172.404C86.0433 172.353 85.9559 172.325 85.8661 172.324L85.7675 172.333Z" fill="#FFC100"/>
<path d="M84.6563 173.677L83.8379 174.252L83.9214 174.37L84.0353 174.461L84.6563 173.677ZM84.6563 173.229L85.4746 173.803L85.5081 173.756L85.5359 173.704L84.6563 173.229ZM84.9341 173.009L84.7923 172.019L84.7327 172.028L84.6745 172.043L84.9341 173.009ZM85.8302 173.126L85.4401 174.046L86.4946 172.378L85.8302 173.126ZM85.3508 172.386L84.369 172.196L84.3669 172.207L84.365 172.219L85.3508 172.386ZM85.6958 172.113L85.8919 173.094L85.9093 173.09L85.9265 173.086L85.6958 172.113ZM86.2156 172.221L85.6177 173.022L85.6239 173.027L86.2156 172.221ZM86.8205 173.632L85.8293 173.764L85.8389 173.837L85.8591 173.907L86.8205 173.632ZM86.8205 173.681L85.8591 173.406L85.8205 173.541V173.681H86.8205ZM86.8205 173.708L87.5276 174.415L87.8205 174.122V173.708H86.8205ZM86.7936 173.735L87.1013 174.687L87.3304 174.612L87.5007 174.442L86.7936 173.735ZM86.7578 173.735L87.0655 172.784L86.8073 172.7L86.5423 172.759L86.7578 173.735ZM85.4628 173.892L85.4389 172.892L85.3764 172.894L85.3146 172.903L85.4628 173.892ZM85.0013 173.229L85.2296 174.202L86.0013 174.021V173.229H85.0013ZM84.8534 173.341L83.978 172.857L83.971 172.87L83.9644 172.883L84.8534 173.341ZM84.8265 173.56L84.0265 174.16L84.0287 174.163L84.8265 173.56ZM86.4127 173.61L86.576 174.596L89.552 174.104L86.8711 172.721L86.4127 173.61ZM85.0013 173.215L84.7494 172.248L84.0013 172.442V173.215H85.0013ZM85.7675 172.333V173.333H85.8128L85.858 173.328L85.7675 172.333ZM85.5928 172.431L86.5785 172.599L86.5791 172.596L85.5928 172.431ZM86.592 173.43L86.0373 174.262L87.837 175.462L87.5852 173.314L86.592 173.43ZM86.117 172.404L86.8485 171.722L86.7763 171.645L86.6895 171.584L86.117 172.404ZM85.8661 172.324L85.8786 171.324L85.827 171.323L85.7756 171.328L85.8661 172.324ZM85.4746 173.102C85.5467 173.205 85.5854 173.327 85.5854 173.453H83.5854C83.5854 173.739 83.6736 174.018 83.8379 174.252L85.4746 173.102ZM85.5854 173.453C85.5854 173.578 85.5467 173.701 85.4746 173.803L83.8379 172.654C83.6736 172.888 83.5854 173.167 83.5854 173.453H85.5854ZM85.5359 173.704C85.5002 173.77 85.4514 173.828 85.3926 173.875L84.1525 172.306C83.9982 172.428 83.8703 172.58 83.7767 172.753L85.5359 173.704ZM85.3926 173.875C85.3338 173.921 85.2661 173.955 85.1937 173.975L84.6745 172.043C84.4845 172.095 84.3069 172.184 84.1525 172.306L85.3926 173.875ZM85.0758 173.999C85.1993 173.981 85.3253 173.998 85.4401 174.046L86.2204 172.205C85.7701 172.014 85.2763 171.95 84.7923 172.019L85.0758 173.999ZM86.4946 172.378C86.4407 172.33 86.3951 172.286 86.3585 172.248C86.3209 172.208 86.2998 172.181 86.2903 172.167C86.2788 172.151 86.2949 172.169 86.313 172.22C86.3312 172.271 86.3642 172.392 86.3366 172.554L84.365 172.219C84.278 172.729 84.5265 173.135 84.6521 173.315C84.8053 173.533 84.9991 173.725 85.1659 173.873L86.4946 172.378ZM86.3326 172.576C86.2988 172.751 86.2011 172.899 86.0806 172.995C85.9767 173.078 85.8928 173.093 85.8919 173.094L85.4997 171.132C85.0983 171.213 84.5053 171.492 84.369 172.196L86.3326 172.576ZM85.9265 173.086C85.8735 173.099 85.8184 173.099 85.765 173.088L86.1702 171.13C85.9373 171.082 85.6966 171.085 85.4651 171.14L85.9265 173.086ZM85.765 173.088C85.7117 173.077 85.6614 173.055 85.6177 173.022L86.8135 171.419C86.6227 171.277 86.4032 171.178 86.1702 171.13L85.765 173.088ZM85.6239 173.027C85.5891 173.001 85.6014 172.997 85.6381 173.064C85.6723 173.126 85.7076 173.214 85.7393 173.32C85.8029 173.535 85.8239 173.724 85.8293 173.764L87.8117 173.5C87.8143 173.519 87.8066 173.459 87.8024 173.429C87.7963 173.385 87.7876 173.327 87.7757 173.26C87.7521 173.126 87.7146 172.947 87.6564 172.751C87.5573 172.417 87.3327 171.8 86.8073 171.414L85.6239 173.027ZM85.8591 173.907C85.8123 173.743 85.8123 173.57 85.8591 173.406L87.7819 173.956C87.838 173.76 87.838 173.553 87.7819 173.357L85.8591 173.907ZM85.8205 173.681V173.708H87.8205V173.681H85.8205ZM86.1134 173.001L86.0865 173.028L87.5007 174.442L87.5276 174.415L86.1134 173.001ZM86.4859 172.784C86.6743 172.723 86.8771 172.723 87.0655 172.784L86.4501 174.687C86.6618 174.755 86.8896 174.755 87.1013 174.687L86.4859 172.784ZM86.5423 172.759C86.1797 172.839 85.8102 172.883 85.4389 172.892L85.4867 174.892C85.9869 174.88 86.4847 174.819 86.9732 174.712L86.5423 172.759ZM85.3146 172.903C85.308 172.904 85.3013 172.904 85.2949 172.902L84.7795 174.834C85.0506 174.907 85.3336 174.922 85.6111 174.881L85.3146 172.903ZM85.2949 172.902C85.2885 172.9 85.2825 172.897 85.2772 172.893L84.0353 174.461C84.2552 174.635 84.5085 174.762 84.7795 174.834L85.2949 172.902ZM84.7729 172.255C84.6058 172.294 84.4486 172.368 84.3116 172.472L85.5193 174.066C85.4333 174.131 85.3345 174.178 85.2296 174.202L84.7729 172.255ZM84.3116 172.472C84.1746 172.576 84.061 172.707 83.978 172.857L85.7288 173.824C85.6767 173.918 85.6054 174.001 85.5193 174.066L84.3116 172.472ZM83.9644 172.883C83.8795 173.048 83.7983 173.27 83.8069 173.532C83.8169 173.838 83.944 174.05 84.0265 174.16L85.6265 172.96C85.6463 172.987 85.6973 173.057 85.7392 173.159C85.7809 173.26 85.8025 173.365 85.8058 173.466C85.8122 173.66 85.7512 173.782 85.7424 173.799L83.9644 172.883ZM84.0287 174.163C84.298 174.52 84.6925 174.615 84.8382 174.646C85.0394 174.689 85.2497 174.701 85.4312 174.701C85.8015 174.702 86.2187 174.655 86.576 174.596L86.2494 172.623C85.9571 172.671 85.6574 172.701 85.435 172.701C85.3819 172.701 85.339 172.699 85.306 172.696C85.2898 172.695 85.2774 172.693 85.2685 172.692C85.2595 172.691 85.2557 172.69 85.2564 172.69C85.2569 172.69 85.2646 172.692 85.278 172.696C85.291 172.7 85.3141 172.709 85.3438 172.723C85.3958 172.748 85.5162 172.814 85.6244 172.957L84.0287 174.163ZM86.8711 172.721C86.6219 172.592 86.2975 172.448 85.9714 172.345C85.8083 172.293 85.6245 172.245 85.437 172.22C85.2624 172.195 85.0119 172.179 84.7494 172.248L85.2532 174.183C85.1542 174.209 85.1087 174.193 85.163 174.201C85.2042 174.206 85.2731 174.221 85.3687 174.252C85.5602 174.312 85.7779 174.407 85.9543 174.498L86.8711 172.721ZM84.0013 173.215V173.229H86.0013V173.215H84.0013ZM85.7675 171.333C85.5427 171.333 85.3443 171.399 85.2013 171.473C85.1224 171.514 85.0156 171.579 84.9121 171.682C84.8151 171.778 84.6556 171.971 84.6064 172.267L86.5791 172.596C86.5344 172.864 86.3912 173.032 86.3179 173.104C86.2382 173.183 86.1628 173.227 86.1186 173.25C86.0451 173.288 85.9296 173.333 85.7675 173.333V171.333ZM84.607 172.263C84.5631 172.52 84.6204 172.734 84.665 172.856C84.7124 172.985 84.775 173.091 84.8266 173.169C84.9295 173.323 85.0574 173.462 85.1744 173.576C85.4143 173.811 85.7238 174.053 86.0373 174.262L87.1467 172.598C86.909 172.44 86.7032 172.274 86.5734 172.147C86.5056 172.081 86.4851 172.051 86.4897 172.058C86.4921 172.061 86.5181 172.1 86.5431 172.168C86.5654 172.229 86.6146 172.388 86.5785 172.599L84.607 172.263ZM87.5852 173.314C87.5154 172.718 87.2573 172.161 86.8485 171.722L85.3855 173.086C85.5039 173.213 85.5786 173.374 85.5988 173.547L87.5852 173.314ZM86.6895 171.584C86.4514 171.418 86.1689 171.327 85.8786 171.324L85.8536 173.324C85.743 173.322 85.6353 173.288 85.5445 173.224L86.6895 171.584ZM85.7756 171.328L85.677 171.337L85.858 173.328L85.9566 173.319L85.7756 171.328Z" fill="#263238" mask="url(#path-92-inside-1_171_19740)"/>
<path opacity="0.2" d="M92.8105 167.081L91.7633 169.932L89.4282 169.477L90.4115 166.056L92.8105 167.081Z" fill="black" stroke="#263238"/>
<path d="M106.101 113.366L108.808 116.151L106.704 117.259L104.393 114.843L104.111 114.548L103.765 114.766C103.467 114.954 103.128 115.066 102.777 115.092C102.67 115.088 102.367 115.044 101.93 114.948C101.493 114.852 100.967 114.716 100.469 114.553C99.9643 114.388 99.5153 114.206 99.2141 114.025C99.0785 113.944 98.9974 113.877 98.9549 113.832C99.0548 113.437 99.2927 112.829 99.5811 112.352C99.7367 112.094 99.8833 111.915 99.9999 111.823C100.025 111.803 100.044 111.791 100.057 111.783C100.185 111.842 100.365 111.904 100.557 111.964C100.781 112.035 101.057 112.114 101.363 112.198C101.976 112.366 102.723 112.555 103.445 112.733C104.168 112.911 104.868 113.078 105.387 113.2C105.646 113.261 105.861 113.311 106.01 113.345L106.101 113.366ZM100.08 111.773C100.08 111.774 100.077 111.775 100.072 111.776C100.078 111.773 100.08 111.773 100.08 111.773Z" fill="white" stroke="#263238"/>
<path opacity="0.2" d="M106.101 113.366L108.808 116.151L106.704 117.259L104.393 114.843L104.111 114.548L103.765 114.766C103.467 114.954 103.128 115.066 102.777 115.092C102.67 115.088 102.367 115.044 101.93 114.948C101.493 114.852 100.967 114.716 100.469 114.553C99.9643 114.388 99.5153 114.206 99.2141 114.025C99.0785 113.944 98.9974 113.877 98.9549 113.832C99.0548 113.437 99.2927 112.829 99.5811 112.352C99.7367 112.094 99.8833 111.915 99.9999 111.823C100.025 111.803 100.044 111.791 100.057 111.783C100.185 111.842 100.365 111.904 100.557 111.964C100.781 112.035 101.057 112.114 101.363 112.198C101.976 112.366 102.723 112.555 103.445 112.733C104.168 112.911 104.868 113.078 105.387 113.2C105.646 113.261 105.861 113.311 106.01 113.345L106.101 113.366ZM100.08 111.773C100.08 111.774 100.077 111.775 100.072 111.776C100.078 111.773 100.08 111.773 100.08 111.773Z" fill="black" stroke="#263238"/>
<path d="M116.781 95.8025C117.663 95.3334 118.105 94.2608 118.216 93.2235C118.304 92.3963 118.197 91.4814 117.852 90.6944L131.577 87.6305C131.594 87.6713 131.611 87.7153 131.629 87.7626C131.753 88.0804 131.907 88.5382 132.027 89.0916C132.268 90.2025 132.369 91.6699 131.843 93.1604C131.616 93.8025 131.684 94.3457 131.98 94.7991C132.247 95.2081 132.672 95.4971 133.028 95.7264C133.09 95.7665 133.151 95.8051 133.21 95.8428C133.521 96.0411 133.79 96.2118 134.007 96.4193C134.246 96.6471 134.381 96.8829 134.396 97.1948C134.415 97.5941 134.345 97.8779 134.245 98.0999C134.142 98.3293 133.997 98.5154 133.825 98.7211C133.807 98.7423 133.788 98.7643 133.769 98.7869C133.618 98.9652 133.429 99.1876 133.303 99.4408C133.145 99.7587 133.082 100.121 133.18 100.556C133.246 100.852 133.432 101.091 133.619 101.276C133.811 101.466 134.052 101.646 134.299 101.815C134.507 101.958 134.716 102.092 134.925 102.226C135.252 102.435 135.58 102.646 135.915 102.895C136.445 103.29 136.867 103.699 137.092 104.15C137.302 104.572 137.358 105.067 137.08 105.711C136.801 106.357 136.217 106.963 135.326 107.493C134.437 108.021 133.272 108.455 131.888 108.77C129.12 109.398 125.542 109.534 121.708 109.051C117.877 108.569 116.411 107.493 115.849 106.498C115.357 105.625 115.47 104.71 115.575 103.855C115.594 103.698 115.613 103.543 115.628 103.39C115.7 102.658 116.162 101.967 116.702 101.218C116.726 101.185 116.75 101.152 116.774 101.119C117.009 100.794 117.254 100.453 117.441 100.122C117.646 99.7586 117.819 99.3419 117.808 98.8972C117.797 98.4654 117.615 98.0466 117.431 97.6982C117.336 97.518 117.231 97.3397 117.132 97.1732C117.122 97.1554 117.111 97.1377 117.101 97.1203C117.012 96.9703 116.929 96.8309 116.855 96.6951C116.679 96.3743 116.603 96.1637 116.599 96.0274C116.598 95.9751 116.608 95.949 116.62 95.9302C116.634 95.9081 116.673 95.8602 116.781 95.8025Z" fill="#263238" stroke="#263238"/>
<path d="M89.6467 167.39L92.8966 168.598C92.9722 168.41 93.0702 168.168 93.1883 167.877C93.4911 167.131 93.9261 166.065 94.4551 164.785C95.513 162.227 96.9473 158.813 98.4522 155.397C99.9561 151.982 101.534 148.556 102.879 145.975C103.55 144.687 104.171 143.595 104.7 142.818C104.963 142.431 105.215 142.106 105.45 141.87C105.567 141.752 105.692 141.645 105.822 141.564C105.948 141.485 106.113 141.41 106.304 141.403C106.519 141.396 106.799 141.449 107.091 141.52C107.399 141.595 107.773 141.705 108.202 141.84C109.047 142.106 110.133 142.481 111.378 142.912L111.433 142.931C113.978 143.811 117.205 144.926 120.537 145.862C123.874 146.799 127.29 147.548 130.213 147.707C133.169 147.868 135.467 147.417 136.734 146.128C138.043 144.796 138.577 142.973 138.605 140.917C138.633 138.86 138.152 136.619 137.484 134.529C136.817 132.442 135.973 130.531 135.294 129.139C134.955 128.443 134.658 127.879 134.446 127.49C134.358 127.329 134.285 127.197 134.23 127.099C134.139 127.087 134.023 127.072 133.886 127.055C133.511 127.008 132.973 126.944 132.325 126.876C131.027 126.742 129.289 126.594 127.522 126.544C125.749 126.493 123.973 126.54 122.588 126.784C121.895 126.906 121.327 127.073 120.915 127.284C120.507 127.493 120.307 127.716 120.232 127.928C119.985 128.817 119.797 129.722 119.667 130.637L119.665 130.648L119.665 130.648C119.588 131.119 119.522 131.553 119.476 131.869C119.453 132.027 119.434 132.155 119.422 132.244L119.408 132.346L119.404 132.372L119.403 132.379L119.403 132.381L119.403 132.381L119.403 132.381L119.328 132.936L118.785 132.799C118.781 132.798 118.775 132.796 118.767 132.794C118.426 132.708 114.959 131.827 110.9 131.395C108.825 131.174 106.611 131.072 104.589 131.249C102.557 131.426 100.774 131.881 99.5167 132.729L89.6467 167.39ZM89.6467 167.39C89.6815 167.16 89.7312 166.835 89.7952 166.427C89.9317 165.556 90.1331 164.306 90.392 162.795C90.9099 159.773 91.6577 155.706 92.5777 151.525C93.4983 147.34 94.5886 143.053 95.7896 139.586C96.3904 137.852 97.0145 136.336 97.6529 135.145C98.2988 133.939 98.9289 133.126 99.5165 132.729L89.6467 167.39Z" fill="#FFC100" stroke="#263238"/>
<path opacity="0.6" d="M89.6467 167.39L92.8966 168.598C92.9722 168.41 93.0702 168.168 93.1883 167.877C93.4911 167.131 93.9261 166.065 94.4551 164.785C95.513 162.227 96.9473 158.813 98.4522 155.397C99.9561 151.982 101.534 148.556 102.879 145.975C103.55 144.687 104.171 143.595 104.7 142.818C104.963 142.431 105.215 142.106 105.45 141.87C105.567 141.752 105.692 141.645 105.822 141.564C105.948 141.485 106.113 141.41 106.304 141.403C106.519 141.396 106.799 141.449 107.091 141.52C107.399 141.595 107.773 141.705 108.202 141.84C109.047 142.106 110.133 142.481 111.378 142.912L111.433 142.931C113.978 143.811 117.205 144.926 120.537 145.862C123.874 146.799 127.29 147.548 130.213 147.707C133.169 147.868 135.467 147.417 136.734 146.128C138.043 144.796 138.577 142.973 138.605 140.917C138.633 138.86 138.152 136.619 137.484 134.529C136.817 132.442 135.973 130.531 135.294 129.139C134.955 128.443 134.658 127.879 134.446 127.49C134.358 127.329 134.285 127.197 134.23 127.099C134.139 127.087 134.023 127.072 133.886 127.055C133.511 127.008 132.973 126.944 132.325 126.876C131.027 126.742 129.289 126.594 127.522 126.544C125.749 126.493 123.973 126.54 122.588 126.784C121.895 126.906 121.327 127.073 120.915 127.284C120.507 127.493 120.307 127.716 120.232 127.928C119.985 128.817 119.797 129.722 119.667 130.637L119.665 130.648L119.665 130.648C119.588 131.119 119.522 131.553 119.476 131.869C119.453 132.027 119.434 132.155 119.422 132.244L119.408 132.346L119.404 132.372L119.403 132.379L119.403 132.381L119.403 132.381L119.403 132.381L119.328 132.936L118.785 132.799C118.781 132.798 118.775 132.796 118.767 132.794C118.426 132.708 114.959 131.827 110.9 131.395C108.825 131.174 106.611 131.072 104.589 131.249C102.557 131.426 100.774 131.881 99.5167 132.729L89.6467 167.39ZM89.6467 167.39C89.6815 167.16 89.7312 166.835 89.7952 166.427C89.9317 165.556 90.1331 164.306 90.392 162.795C90.9099 159.773 91.6577 155.706 92.5777 151.525C93.4983 147.34 94.5886 143.053 95.7896 139.586C96.3904 137.852 97.0145 136.336 97.6529 135.145C98.2988 133.939 98.9289 133.126 99.5165 132.729L89.6467 167.39Z" fill="white" stroke="#263238"/>
<path d="M111.412 117.002L112.034 117.551L112.229 116.744L112.229 116.744L112.229 116.744L112.229 116.743L112.23 116.738L112.236 116.717L112.257 116.632C112.275 116.557 112.304 116.447 112.341 116.306C112.414 116.023 112.524 115.617 112.666 115.124C112.95 114.138 113.362 112.811 113.877 111.442C114.392 110.07 115.004 108.67 115.684 107.532C116.283 106.531 116.895 105.799 117.487 105.428C117.632 105.567 117.834 105.766 118.07 106.012C118.571 106.535 119.227 107.272 119.85 108.134C120.474 108.997 121.054 109.971 121.418 110.967C121.781 111.964 121.916 112.951 121.693 113.865C121.209 115.845 119.696 118.533 117.817 120.666C116.881 121.728 115.872 122.631 114.882 123.234C113.885 123.841 112.955 124.115 112.154 124.009C111.331 123.899 110.528 123.44 109.768 122.757C109.011 122.076 108.331 121.202 107.757 120.326C107.184 119.453 106.727 118.592 106.413 117.948C106.264 117.643 106.147 117.387 106.066 117.204L108.761 114.66L111.412 117.002Z" fill="#FFC100" stroke="#263238"/>
<path opacity="0.1" d="M111.412 117.002L112.034 117.551L112.229 116.744L112.229 116.744L112.229 116.744L112.229 116.743L112.23 116.738L112.236 116.717L112.257 116.632C112.275 116.557 112.304 116.447 112.341 116.306C112.414 116.023 112.524 115.617 112.666 115.124C112.95 114.138 113.362 112.811 113.877 111.442C114.392 110.07 115.004 108.67 115.684 107.532C116.283 106.531 116.895 105.799 117.487 105.428C117.632 105.567 117.834 105.766 118.07 106.012C118.571 106.535 119.227 107.272 119.85 108.134C120.474 108.997 121.054 109.971 121.418 110.967C121.781 111.964 121.916 112.951 121.693 113.865C121.209 115.845 119.696 118.533 117.817 120.666C116.881 121.728 115.872 122.631 114.882 123.234C113.885 123.841 112.955 124.115 112.154 124.009C111.331 123.899 110.528 123.44 109.768 122.757C109.011 122.076 108.331 121.202 107.757 120.326C107.184 119.453 106.727 118.592 106.413 117.948C106.264 117.643 106.147 117.387 106.066 117.204L108.761 114.66L111.412 117.002Z" fill="black" stroke="#263238"/>
<path d="M111.416 177.436L114.014 177.206L114.474 180.594L114.474 180.595L114.979 184.366L112.977 184.879L112.246 181.389L112.246 181.389L111.416 177.436Z" fill="white" stroke="#263238"/>
<path d="M115.659 184.956C115.727 184.959 115.787 184.962 115.839 184.966C115.883 185.714 115.973 186.371 116.064 186.936C116.098 187.151 116.132 187.348 116.163 187.529C116.228 187.912 116.282 188.226 116.307 188.498C116.347 188.917 116.295 189.053 116.263 189.095C116.252 189.11 116.171 189.209 115.722 189.209V189.209L115.713 189.209L108.958 189.33C108.958 189.33 108.957 189.33 108.957 189.33C108.315 189.338 107.765 189.259 107.343 189.135C106.907 189.006 106.657 188.845 106.555 188.729C106.54 188.712 106.531 188.699 106.525 188.689C106.525 188.689 106.525 188.689 106.525 188.689C106.589 188.606 106.819 188.435 107.401 188.29C108.724 187.959 110.024 187.104 110.967 186.366C111.444 185.992 111.843 185.638 112.122 185.378C112.253 185.257 112.357 185.155 112.433 185.081C112.543 185.072 112.699 185.061 112.885 185.049C113.268 185.023 113.778 184.992 114.286 184.972C114.797 184.951 115.295 184.941 115.659 184.956Z" fill="#263238" stroke="#263238"/>
<mask id="path-104-inside-2_171_19740" fill="white">
<path d="M109.7 185.555C109.638 185.501 109.594 185.429 109.575 185.348C109.557 185.268 109.564 185.183 109.597 185.107C109.612 185.048 109.638 184.993 109.675 184.944C109.712 184.895 109.759 184.855 109.812 184.825C110.102 184.704 110.42 184.667 110.731 184.718C110.394 184.543 110.099 184.328 110.085 184.113C110.085 183.974 110.166 183.857 110.35 183.763C110.433 183.725 110.524 183.705 110.616 183.705C110.708 183.705 110.799 183.725 110.883 183.763C111.439 183.987 111.779 184.937 111.81 184.982C111.815 184.998 111.815 185.015 111.81 185.031C111.811 185.039 111.811 185.046 111.81 185.054C111.805 185.069 111.796 185.083 111.784 185.094C111.775 185.097 111.765 185.097 111.757 185.094C111.224 185.374 110.646 185.556 110.049 185.632C109.928 185.645 109.805 185.619 109.7 185.555ZM109.924 185.027C109.895 185.04 109.87 185.06 109.85 185.085C109.829 185.11 109.815 185.139 109.808 185.17C109.767 185.331 109.808 185.376 109.834 185.39C110.032 185.546 110.78 185.309 111.385 185.045C110.923 184.951 110.215 184.852 109.924 185.027ZM110.444 183.974C110.39 184.001 110.296 184.054 110.3 184.113C110.3 184.296 110.905 184.61 111.515 184.83C111.377 184.469 111.128 184.163 110.802 183.956C110.75 183.937 110.696 183.927 110.641 183.924C110.572 183.926 110.505 183.942 110.444 183.974Z"/>
</mask>
<path d="M109.7 185.555C109.638 185.501 109.594 185.429 109.575 185.348C109.557 185.268 109.564 185.183 109.597 185.107C109.612 185.048 109.638 184.993 109.675 184.944C109.712 184.895 109.759 184.855 109.812 184.825C110.102 184.704 110.42 184.667 110.731 184.718C110.394 184.543 110.099 184.328 110.085 184.113C110.085 183.974 110.166 183.857 110.35 183.763C110.433 183.725 110.524 183.705 110.616 183.705C110.708 183.705 110.799 183.725 110.883 183.763C111.439 183.987 111.779 184.937 111.81 184.982C111.815 184.998 111.815 185.015 111.81 185.031C111.811 185.039 111.811 185.046 111.81 185.054C111.805 185.069 111.796 185.083 111.784 185.094C111.775 185.097 111.765 185.097 111.757 185.094C111.224 185.374 110.646 185.556 110.049 185.632C109.928 185.645 109.805 185.619 109.7 185.555ZM109.924 185.027C109.895 185.04 109.87 185.06 109.85 185.085C109.829 185.11 109.815 185.139 109.808 185.17C109.767 185.331 109.808 185.376 109.834 185.39C110.032 185.546 110.78 185.309 111.385 185.045C110.923 184.951 110.215 184.852 109.924 185.027ZM110.444 183.974C110.39 184.001 110.296 184.054 110.3 184.113C110.3 184.296 110.905 184.61 111.515 184.83C111.377 184.469 111.128 184.163 110.802 183.956C110.75 183.937 110.696 183.927 110.641 183.924C110.572 183.926 110.505 183.942 110.444 183.974Z" fill="#FFC100"/>
<path d="M109.7 185.555L109.045 186.311L109.11 186.368L109.184 186.412L109.7 185.555ZM109.597 185.107L110.516 185.501L110.548 185.427L110.567 185.349L109.597 185.107ZM109.812 184.825L109.428 183.902L109.373 183.924L109.322 183.954L109.812 184.825ZM110.731 184.718L110.571 185.705L111.192 183.83L110.731 184.718ZM110.085 184.113H109.085V184.144L109.087 184.175L110.085 184.113ZM110.35 183.763L109.931 182.855L109.912 182.864L109.894 182.873L110.35 183.763ZM110.883 183.763L110.464 184.671L110.486 184.681L110.509 184.691L110.883 183.763ZM111.81 184.982L112.772 184.707L112.726 184.546L112.63 184.408L111.81 184.982ZM111.81 185.031L110.849 184.756L110.802 184.92L110.812 185.089L111.81 185.031ZM111.81 185.054L112.761 185.363L112.801 185.24L112.809 185.112L111.81 185.054ZM111.784 185.094L112.117 186.037L112.293 185.975L112.435 185.853L111.784 185.094ZM111.757 185.094L112.09 184.151L111.678 184.006L111.291 184.209L111.757 185.094ZM110.049 185.632L110.162 186.625L110.175 186.624L110.049 185.632ZM109.924 185.027L110.354 185.93L110.397 185.909L110.439 185.884L109.924 185.027ZM109.808 185.17L110.778 185.413L110.779 185.406L109.808 185.17ZM109.834 185.39L110.457 184.607L110.375 184.542L110.282 184.495L109.834 185.39ZM111.385 185.045L111.785 185.961L114.68 184.696L111.585 184.065L111.385 185.045ZM110.444 183.974L110.891 184.868L110.9 184.864L110.444 183.974ZM110.3 184.113H111.3V184.074L111.297 184.036L110.3 184.113ZM111.515 184.83L111.176 185.77L113.225 186.509L112.449 184.473L111.515 184.83ZM110.802 183.956L111.339 183.112L111.245 183.052L111.14 183.014L110.802 183.956ZM110.641 183.924L110.681 182.925L110.653 182.924L110.625 182.925L110.641 183.924ZM110.355 184.8C110.453 184.884 110.521 184.998 110.55 185.124L108.601 185.572C108.667 185.859 108.822 186.118 109.045 186.311L110.355 184.8ZM110.55 185.124C110.579 185.25 110.567 185.382 110.516 185.501L108.678 184.714C108.562 184.985 108.535 185.285 108.601 185.572L110.55 185.124ZM110.567 185.349C110.549 185.422 110.516 185.49 110.471 185.55L108.88 184.338C108.76 184.495 108.674 184.674 108.627 184.866L110.567 185.349ZM110.471 185.55C110.425 185.61 110.368 185.66 110.302 185.697L109.322 183.954C109.15 184.05 108.999 184.181 108.88 184.338L110.471 185.55ZM110.196 185.749C110.314 185.699 110.444 185.684 110.571 185.705L110.891 183.73C110.397 183.65 109.89 183.71 109.428 183.902L110.196 185.749ZM111.192 183.83C111.128 183.797 111.073 183.766 111.029 183.737C110.983 183.708 110.956 183.687 110.944 183.676C110.929 183.664 110.95 183.678 110.981 183.725C111.012 183.772 111.073 183.884 111.083 184.05L109.087 184.175C109.12 184.7 109.463 185.039 109.63 185.184C109.833 185.361 110.07 185.501 110.269 185.605L111.192 183.83ZM111.085 184.113C111.085 184.253 111.039 184.399 110.952 184.516C110.914 184.568 110.876 184.602 110.85 184.623C110.824 184.644 110.807 184.653 110.806 184.653L109.894 182.873C109.508 183.071 109.085 183.47 109.085 184.113H111.085ZM110.769 184.671C110.721 184.693 110.669 184.705 110.616 184.705V182.705C110.38 182.705 110.146 182.756 109.931 182.855L110.769 184.671ZM110.616 184.705C110.564 184.705 110.512 184.693 110.464 184.671L111.302 182.855C111.087 182.756 110.853 182.705 110.616 182.705V184.705ZM110.509 184.691C110.46 184.671 110.467 184.659 110.519 184.716C110.567 184.768 110.622 184.846 110.68 184.944C110.736 185.04 110.783 185.137 110.82 185.219C110.839 185.259 110.853 185.293 110.868 185.326C110.874 185.34 110.883 185.361 110.892 185.381C110.897 185.391 110.905 185.408 110.915 185.427C110.919 185.435 110.947 185.492 110.991 185.555L112.63 184.408C112.672 184.469 112.698 184.521 112.698 184.523C112.705 184.536 112.709 184.546 112.71 184.546C112.71 184.547 112.708 184.543 112.701 184.526C112.688 184.497 112.667 184.448 112.64 184.39C112.587 184.273 112.509 184.11 112.407 183.935C112.235 183.642 111.868 183.082 111.257 182.836L110.509 184.691ZM110.849 185.257C110.802 185.093 110.802 184.92 110.849 184.756L112.772 185.306C112.828 185.11 112.828 184.903 112.772 184.707L110.849 185.257ZM110.812 185.089C110.81 185.058 110.81 185.027 110.812 184.995L112.809 185.112C112.811 185.066 112.811 185.019 112.809 184.973L110.812 185.089ZM110.859 184.745C110.911 184.586 111.005 184.444 111.132 184.335L112.435 185.853C112.587 185.722 112.7 185.553 112.761 185.363L110.859 184.745ZM111.45 184.151C111.657 184.078 111.883 184.078 112.09 184.151L111.423 186.037C111.648 186.116 111.893 186.116 112.117 186.037L111.45 184.151ZM111.291 184.209C110.865 184.433 110.402 184.579 109.923 184.64L110.175 186.624C110.891 186.533 111.584 186.315 112.222 185.979L111.291 184.209ZM109.937 184.638C110.034 184.627 110.132 184.648 110.216 184.699L109.184 186.412C109.478 186.589 109.822 186.664 110.162 186.625L109.937 184.638ZM109.494 184.124C109.331 184.202 109.187 184.315 109.073 184.455L110.626 185.716C110.552 185.806 110.459 185.879 110.354 185.93L109.494 184.124ZM109.073 184.455C108.96 184.595 108.878 184.758 108.836 184.934L110.779 185.406C110.752 185.52 110.699 185.625 110.626 185.716L109.073 184.455ZM108.837 184.928C108.798 185.085 108.76 185.322 108.827 185.582C108.906 185.896 109.113 186.147 109.387 186.284L110.282 184.495C110.388 184.548 110.499 184.629 110.592 184.745C110.685 184.861 110.738 184.982 110.765 185.089C110.791 185.191 110.792 185.275 110.789 185.325C110.787 185.375 110.779 185.406 110.778 185.413L108.837 184.928ZM109.212 186.172C109.561 186.45 109.967 186.444 110.115 186.438C110.32 186.43 110.527 186.389 110.702 186.344C111.061 186.254 111.453 186.106 111.785 185.961L110.984 184.128C110.711 184.248 110.427 184.351 110.211 184.406C110.159 184.419 110.117 184.428 110.084 184.433C110.068 184.436 110.056 184.438 110.047 184.439C110.038 184.44 110.034 184.44 110.034 184.44C110.035 184.44 110.043 184.44 110.056 184.44C110.07 184.441 110.094 184.443 110.127 184.45C110.183 184.461 110.316 184.495 110.457 184.607L109.212 186.172ZM111.585 184.065C111.33 184.013 110.984 183.955 110.644 183.936C110.474 183.927 110.282 183.927 110.09 183.95C109.912 183.971 109.655 184.022 109.41 184.169L110.439 185.884C110.339 185.944 110.279 185.942 110.33 185.935C110.368 185.931 110.436 185.928 110.537 185.933C110.739 185.944 110.978 185.982 111.185 186.024L111.585 184.065ZM109.997 183.079C109.953 183.101 109.837 183.16 109.72 183.255C109.662 183.302 109.565 183.389 109.479 183.518C109.392 183.65 109.28 183.884 109.303 184.189L111.297 184.036C111.319 184.312 111.217 184.517 111.147 184.622C111.08 184.724 111.009 184.785 110.98 184.808C110.946 184.835 110.92 184.852 110.91 184.857C110.899 184.864 110.892 184.868 110.891 184.868L109.997 183.079ZM109.3 184.113C109.3 184.407 109.418 184.626 109.496 184.742C109.578 184.865 109.671 184.958 109.741 185.02C109.883 185.145 110.045 185.248 110.186 185.328C110.477 185.492 110.836 185.648 111.176 185.77L111.854 183.889C111.584 183.792 111.336 183.68 111.172 183.588C111.085 183.539 111.059 183.515 111.068 183.523C111.072 183.526 111.113 183.562 111.16 183.632C111.202 183.696 111.3 183.864 111.3 184.113H109.3ZM112.449 184.473C112.235 183.912 111.846 183.435 111.339 183.112L110.265 184.799C110.409 184.891 110.52 185.026 110.58 185.186L112.449 184.473ZM111.14 183.014C110.992 182.962 110.837 182.931 110.681 182.925L110.601 184.924C110.554 184.922 110.509 184.913 110.465 184.897L111.14 183.014ZM110.625 182.925C110.403 182.928 110.185 182.983 109.988 183.084L110.9 184.864C110.825 184.902 110.742 184.923 110.657 184.924L110.625 182.925Z" fill="#263238" mask="url(#path-104-inside-2_171_19740)"/>
<path opacity="0.2" d="M114.434 180.254L112.156 180.944L111.425 177.461L114.023 177.244L114.434 180.254Z" fill="black" stroke="#263238"/>
<path d="M119.939 125.719L133.784 125.022L133.964 126.18L120.177 127.246L119.939 125.719Z" fill="#263238" stroke="#263238"/>
<path opacity="0.2" d="M119.939 125.719L133.784 125.022L133.964 126.18L120.177 127.246L119.939 125.719Z" fill="black" stroke="#263238"/>
<mask id="path-109-inside-3_171_19740" fill="white">
<path d="M129.544 128.08L130.275 128.005L129.892 124.283L129.161 124.359L129.544 128.08Z"/>
</mask>
<path d="M129.544 128.08L130.275 128.005L129.892 124.283L129.161 124.359L129.544 128.08Z" fill="#263238"/>
<path d="M130.275 128.005L130.377 129L131.372 128.898L131.27 127.903L130.275 128.005ZM129.544 128.08L128.549 128.183L128.651 129.177L129.646 129.075L129.544 128.08ZM129.161 124.359L129.059 123.364L128.064 123.466L128.167 124.461L129.161 124.359ZM129.892 124.283L130.887 124.181L130.785 123.186L129.79 123.289L129.892 124.283ZM130.173 127.01L129.442 127.086L129.646 129.075L130.377 129L130.173 127.01ZM130.539 127.978L130.156 124.256L128.167 124.461L128.549 128.183L130.539 127.978ZM129.264 125.353L129.995 125.278L129.79 123.289L129.059 123.364L129.264 125.353ZM128.897 124.386L129.28 128.108L131.27 127.903L130.887 124.181L128.897 124.386Z" fill="#263238" mask="url(#path-109-inside-3_171_19740)"/>
<path d="M125.587 125.582L125.68 127.039L123.441 127.183L123.347 125.726L125.587 125.582Z" fill="white" stroke="#263238"/>
<mask id="path-112-inside-4_171_19740" fill="white">
<path d="M120.472 128.471L121.203 128.396L120.82 124.674L120.089 124.75L120.472 128.471Z"/>
</mask>
<path d="M120.472 128.471L121.203 128.396L120.82 124.674L120.089 124.75L120.472 128.471Z" fill="#263238"/>
<path d="M121.203 128.396L121.305 129.391L122.3 129.289L122.198 128.294L121.203 128.396ZM120.472 128.471L119.477 128.574L119.58 129.568L120.574 129.466L120.472 128.471ZM120.089 124.75L119.987 123.755L118.992 123.857L119.095 124.852L120.089 124.75ZM120.82 124.674L121.815 124.572L121.713 123.577L120.718 123.68L120.82 124.674ZM121.101 127.401L120.37 127.477L120.574 129.466L121.305 129.391L121.101 127.401ZM121.467 128.369L121.084 124.647L119.095 124.852L119.477 128.574L121.467 128.369ZM120.192 125.744L120.923 125.669L120.718 123.68L119.987 123.755L120.192 125.744ZM119.826 124.777L120.208 128.499L122.198 128.294L121.815 124.572L119.826 124.777Z" fill="#263238" mask="url(#path-112-inside-4_171_19740)"/>
<path d="M89.3451 166.376L94.011 167.964L93.0144 169.151L89.1961 167.799L89.3451 166.376Z" fill="#FFC100" stroke="#263238"/>
<path d="M111.882 146.709L111.293 146.683L111.363 147.268L111.86 147.209C111.363 147.268 111.363 147.268 111.363 147.268L111.363 147.269L111.364 147.271L111.365 147.281L111.369 147.32L111.388 147.473C111.404 147.609 111.427 147.809 111.458 148.068C111.519 148.588 111.608 149.345 111.718 150.295C111.938 152.196 112.244 154.871 112.587 157.968C113.257 164.023 114.067 171.686 114.651 178.325L111.209 178.911C111.135 178.703 111.033 178.415 110.907 178.058C110.626 177.259 110.224 176.113 109.742 174.723C108.778 171.943 107.495 168.189 106.214 164.292C104.934 160.394 103.659 156.358 102.711 153.012C102.237 151.339 101.847 149.843 101.579 148.627C101.307 147.395 101.172 146.495 101.184 145.989C101.235 143.912 102.442 142.557 103.697 141.698C104.324 141.269 104.951 140.974 105.422 140.785C105.658 140.692 105.852 140.625 105.986 140.583C105.991 140.581 105.995 140.58 105.999 140.579C106.073 140.62 106.168 140.673 106.283 140.736C106.589 140.904 107.037 141.145 107.607 141.441C108.748 142.031 110.382 142.836 112.358 143.701C115.028 144.87 118.33 146.15 121.887 147.15C119.629 147.054 116.425 146.914 111.882 146.709Z" fill="#FFC100" stroke="#263238"/>
<path opacity="0.6" d="M111.882 146.709L111.293 146.683L111.363 147.268L111.86 147.209C111.363 147.268 111.363 147.268 111.363 147.268L111.363 147.269L111.364 147.271L111.365 147.281L111.369 147.32L111.388 147.473C111.404 147.609 111.427 147.809 111.458 148.068C111.519 148.588 111.608 149.345 111.718 150.295C111.938 152.196 112.244 154.871 112.587 157.968C113.257 164.023 114.067 171.686 114.651 178.325L111.209 178.911C111.135 178.703 111.033 178.415 110.907 178.058C110.626 177.259 110.224 176.113 109.742 174.723C108.778 171.943 107.495 168.189 106.214 164.292C104.934 160.394 103.659 156.358 102.711 153.012C102.237 151.339 101.847 149.843 101.579 148.627C101.307 147.395 101.172 146.495 101.184 145.989C101.235 143.912 102.442 142.557 103.697 141.698C104.324 141.269 104.951 140.974 105.422 140.785C105.658 140.692 105.852 140.625 105.986 140.583C105.991 140.581 105.995 140.58 105.999 140.579C106.073 140.62 106.168 140.673 106.283 140.736C106.589 140.904 107.037 141.145 107.607 141.441C108.748 142.031 110.382 142.836 112.358 143.701C115.028 144.87 118.33 146.15 121.887 147.15C119.629 147.054 116.425 146.914 111.882 146.709Z" fill="white" stroke="#263238"/>
<path opacity="0.3" d="M111.882 146.709L111.293 146.683L111.363 147.268L111.86 147.209C111.363 147.268 111.363 147.268 111.363 147.268L111.363 147.269L111.364 147.271L111.365 147.281L111.369 147.32L111.388 147.473C111.404 147.609 111.427 147.809 111.458 148.068C111.519 148.588 111.608 149.345 111.718 150.295C111.938 152.196 112.244 154.871 112.587 157.968C113.257 164.023 114.067 171.686 114.651 178.325L111.209 178.911C111.135 178.703 111.033 178.415 110.907 178.058C110.626 177.259 110.224 176.113 109.742 174.723C108.778 171.943 107.495 168.189 106.214 164.292C104.934 160.394 103.659 156.358 102.711 153.012C102.237 151.339 101.847 149.843 101.579 148.627C101.307 147.395 101.172 146.495 101.184 145.989C101.235 143.912 102.442 142.557 103.697 141.698C104.324 141.269 104.951 140.974 105.422 140.785C105.658 140.692 105.852 140.625 105.986 140.583C105.991 140.581 105.995 140.58 105.999 140.579C106.073 140.62 106.168 140.673 106.283 140.736C106.589 140.904 107.037 141.145 107.607 141.441C108.748 142.031 110.382 142.836 112.358 143.701C115.028 144.87 118.33 146.15 121.887 147.15C119.629 147.054 116.425 146.914 111.882 146.709Z" fill="black" stroke="#263238"/>
<path d="M111.326 179.892L110.654 178.525L115.323 177.992L115.331 179.376L111.326 179.892Z" fill="#FFC100" stroke="#263238"/>
<path opacity="0.3" d="M119.574 131.214C120.792 131.611 122.122 132.173 123.306 132.72L119.468 131.92C119.47 131.904 119.473 131.887 119.475 131.869C119.502 131.685 119.536 131.462 119.574 131.214Z" fill="black" stroke="#263238"/>
<path d="M119.09 91.3769C119.092 91.3844 119.093 91.3915 119.094 91.3981C119.112 91.4278 119.137 91.4675 119.167 91.5163C119.244 91.6382 119.362 91.8163 119.521 92.034C119.839 92.4698 120.321 93.0618 120.969 93.6793C122.267 94.9153 124.219 96.2396 126.86 96.6411C128.012 96.8162 129.159 96.2365 130.097 95.1134C131.033 93.9941 131.7 92.396 131.87 90.7291C132.04 89.0651 131.711 87.377 130.714 86.0429C129.724 84.7181 128.029 83.6799 125.339 83.3926L119.09 91.3769ZM119.09 91.3769C119.078 91.3117 119.06 91.2142 119.041 91.0894M119.09 91.3769L119.041 91.0894M119.041 91.0894C119.001 90.8395 118.954 90.4815 118.925 90.0542M119.041 91.0894L118.925 90.0542M118.925 90.0542C118.865 89.1947 118.878 88.0781 119.149 87.0036M118.925 90.0542L119.149 87.0036M119.149 87.0036C119.42 85.9312 119.939 84.9348 120.869 84.2551M119.149 87.0036L120.869 84.2551M120.869 84.2551C121.795 83.5782 123.197 83.1643 125.339 83.3925L120.869 84.2551Z" fill="#263238" stroke="#263238"/>
<path d="M123.364 103.618C123.354 103.487 123.363 103.357 123.392 103.23C123.4 103.226 123.408 103.221 123.416 103.217C123.585 103.119 123.782 102.956 123.95 102.693C124.285 102.167 124.462 101.316 124.227 99.9371L124.227 99.9371L124.227 99.9352C124.145 99.4649 124.037 98.9995 123.905 98.5409L126.801 97.5213C126.729 97.9236 126.666 98.4317 126.665 98.985C126.662 100.171 126.946 101.657 128.138 102.692C128.123 102.715 128.108 102.738 128.091 102.761C127.911 103.024 127.645 103.369 127.301 103.701C126.608 104.372 125.657 104.942 124.483 104.799C124.288 104.773 124.103 104.704 123.939 104.596C123.775 104.487 123.638 104.343 123.538 104.173C123.439 104.004 123.379 103.814 123.364 103.618Z" fill="white" stroke="#263238"/>
<path opacity="0.2" d="M123.905 98.5312L125.915 97.8203C125.396 98.3516 124.765 98.9018 124.097 99.2809C124.04 99.0292 123.976 98.7792 123.905 98.5312Z" fill="black" stroke="#263238"/>
<path d="M119.121 92.0871L119.121 92.0872C119.157 94.5389 119.524 96.479 120.365 97.6257C120.771 98.1811 121.287 98.5482 121.949 98.708C122.621 98.8704 123.486 98.8286 124.597 98.4818L119.121 92.0871ZM119.121 92.0871C119.092 90.1373 119.343 88.7474 119.983 87.8106M119.121 92.0871L119.983 87.8106M119.983 87.8106C120.601 86.9068 121.648 86.3319 123.463 86.1761L119.983 87.8106ZM123.463 86.1761C124.863 86.0559 125.981 86.6138 126.805 87.5719C127.64 88.5431 128.174 89.9315 128.333 91.4255C128.655 94.4499 127.441 97.5936 124.597 98.4818L123.463 86.1761Z" fill="white" stroke="#263238"/>
<mask id="path-124-inside-5_171_19740" fill="white">
<path d="M121.063 91.6688C120.806 92.2639 120.48 92.8265 120.09 93.3447C120.215 93.4916 120.379 93.6011 120.562 93.6612C120.746 93.7213 120.942 93.7296 121.13 93.6852L121.063 91.6688Z"/>
</mask>
<path d="M121.063 91.6688C120.806 92.2639 120.48 92.8265 120.09 93.3447C120.215 93.4916 120.379 93.6011 120.562 93.6612C120.746 93.7213 120.942 93.7296 121.13 93.6852L121.063 91.6688Z" fill="#DE5753"/>
<path d="M121.063 91.6688L122.062 91.6355L120.144 91.2727L121.063 91.6688ZM120.09 93.3447L119.291 92.7441L118.81 93.3838L119.329 93.993L120.09 93.3447ZM121.13 93.6852L121.36 94.6584L122.157 94.47L122.129 93.6519L121.13 93.6852ZM120.144 91.2727C119.919 91.7952 119.633 92.2891 119.291 92.7441L120.89 93.9452C121.327 93.3638 121.693 92.7326 121.981 92.0649L120.144 91.2727ZM119.329 93.993C119.574 94.2801 119.893 94.4942 120.251 94.6115L120.873 92.7109C120.865 92.7081 120.857 92.7031 120.852 92.6963L119.329 93.993ZM120.251 94.6115C120.609 94.7289 120.993 94.7451 121.36 94.6584L120.9 92.712C120.891 92.7141 120.882 92.7137 120.873 92.7109L120.251 94.6115ZM122.129 93.6519L122.062 91.6355L120.063 91.7021L120.13 93.7185L122.129 93.6519Z" fill="#263238" mask="url(#path-124-inside-5_171_19740)"/>
<mask id="path-126-inside-6_171_19740" fill="white">
<path d="M123.366 91.158C123.366 91.4717 123.568 91.7136 123.779 91.7002C123.989 91.6868 124.141 91.4224 124.124 91.1132C124.106 90.804 123.917 90.5531 123.707 90.5666C123.496 90.58 123.339 90.8444 123.366 91.158Z"/>
</mask>
<path d="M123.366 91.158C123.366 91.4717 123.568 91.7136 123.779 91.7002C123.989 91.6868 124.141 91.4224 124.124 91.1132C124.106 90.804 123.917 90.5531 123.707 90.5666C123.496 90.58 123.339 90.8444 123.366 91.158Z" fill="#263238"/>
<path d="M123.366 91.158H124.366V91.1152L124.363 91.0726L123.366 91.158ZM122.366 91.158C122.366 91.5235 122.483 91.8829 122.706 92.1682C122.921 92.4434 123.315 92.7318 123.842 92.6982L123.715 90.7022C124.031 90.682 124.219 90.8562 124.281 90.9353C124.351 91.0246 124.366 91.1062 124.366 91.158H122.366ZM123.842 92.6982C124.382 92.6637 124.729 92.3147 124.9 92.022C125.075 91.7234 125.141 91.3793 125.122 91.0553L123.125 91.1711C123.124 91.1563 123.123 91.099 123.173 91.0132C123.22 90.9334 123.386 90.7232 123.715 90.7022L123.842 92.6982ZM125.122 91.0553C125.103 90.725 124.993 90.3894 124.784 90.1146C124.583 89.8497 124.193 89.5335 123.643 89.5686L123.771 91.5645C123.431 91.5862 123.24 91.3887 123.191 91.3232C123.134 91.2478 123.126 91.1922 123.125 91.1711L125.122 91.0553ZM123.643 89.5686C123.107 89.6028 122.757 89.9485 122.583 90.2472C122.405 90.5527 122.341 90.907 122.37 91.2434L124.363 91.0726C124.365 91.0954 124.365 91.1607 124.312 91.2522C124.263 91.3369 124.096 91.5437 123.771 91.5645L123.643 89.5686Z" fill="#263238" mask="url(#path-126-inside-6_171_19740)"/>
<mask id="path-128-inside-7_171_19740" fill="white">
<path d="M123.787 90.5755L123.088 90.3514C123.088 90.3514 123.474 90.9026 123.787 90.5755Z"/>
</mask>
<path d="M123.787 90.5755L123.088 90.3514C123.088 90.3514 123.474 90.9026 123.787 90.5755Z" fill="#263238"/>
<path d="M123.787 90.5755L124.509 91.2676L125.617 90.1119L124.093 89.6232L123.787 90.5755ZM123.088 90.3514L123.394 89.3992L120.569 88.494L122.269 90.9245L123.088 90.3514ZM124.093 89.6232L123.394 89.3992L122.783 91.3037L123.482 91.5278L124.093 89.6232ZM123.088 90.3514C122.269 90.9245 122.269 90.9247 122.269 90.925C122.269 90.9251 122.269 90.9254 122.27 90.9255C122.27 90.9259 122.27 90.9263 122.27 90.9267C122.271 90.9275 122.272 90.9283 122.272 90.9291C122.273 90.9309 122.275 90.9327 122.276 90.9347C122.279 90.9388 122.282 90.9434 122.286 90.9486C122.294 90.9589 122.303 90.9714 122.314 90.9859C122.336 91.0145 122.366 91.0517 122.403 91.0936C122.473 91.1723 122.587 91.2911 122.739 91.3996C122.88 91.5009 123.136 91.652 123.475 91.676C123.871 91.7039 124.238 91.55 124.509 91.2676L123.066 89.8834C123.112 89.8353 123.187 89.7748 123.296 89.7314C123.406 89.6874 123.517 89.6739 123.616 89.681C123.795 89.6936 123.896 89.7683 123.902 89.7726C123.918 89.7842 123.916 89.7857 123.904 89.7713C123.902 89.7691 123.9 89.7671 123.899 89.7656C123.898 89.7648 123.898 89.7642 123.897 89.7638C123.897 89.7633 123.897 89.7631 123.897 89.7631C123.897 89.7631 123.897 89.7634 123.898 89.7639C123.898 89.7645 123.899 89.7653 123.899 89.7665C123.9 89.7677 123.901 89.7693 123.903 89.7713C123.904 89.7723 123.904 89.7733 123.905 89.7745C123.906 89.7751 123.906 89.7757 123.907 89.7764C123.907 89.7767 123.907 89.7771 123.907 89.7774C123.907 89.7776 123.907 89.7778 123.908 89.7779C123.908 89.7782 123.908 89.7784 123.088 90.3514Z" fill="#263238" mask="url(#path-128-inside-7_171_19740)"/>
<mask id="path-130-inside-8_171_19740" fill="white">
<path d="M119.468 91.3372C119.468 91.6509 119.674 91.8929 119.88 91.8794C120.086 91.866 120.243 91.6016 120.225 91.288C120.207 90.9743 120.019 90.7323 119.808 90.7458C119.598 90.7592 119.45 91.0236 119.468 91.3372Z"/>
</mask>
<path d="M119.468 91.3372C119.468 91.6509 119.674 91.8929 119.88 91.8794C120.086 91.866 120.243 91.6016 120.225 91.288C120.207 90.9743 120.019 90.7323 119.808 90.7458C119.598 90.7592 119.45 91.0236 119.468 91.3372Z" fill="#263238"/>
<path d="M119.468 91.3372H120.468V91.3087L120.466 91.2802L119.468 91.3372ZM118.468 91.3372C118.468 91.7082 118.589 92.0677 118.811 92.3502C119.023 92.6187 119.416 92.9118 119.945 92.8773L119.815 90.8815C120.138 90.8605 120.325 91.0394 120.382 91.1118C120.45 91.1983 120.468 91.2799 120.468 91.3372H118.468ZM119.945 92.8773C120.485 92.8421 120.831 92.4891 120.999 92.2021C121.174 91.9048 121.242 91.5599 121.223 91.2309L119.227 91.345C119.226 91.3297 119.225 91.2738 119.274 91.1904C119.317 91.1174 119.481 90.9033 119.815 90.8815L119.945 92.8773ZM121.223 91.2309C121.204 90.8993 121.095 90.5607 120.881 90.2834C120.671 90.012 120.281 89.7136 119.745 89.7478L119.872 91.7437C119.546 91.7645 119.355 91.5804 119.297 91.505C119.234 91.4237 119.228 91.363 119.227 91.345L121.223 91.2309ZM119.745 89.7478C119.201 89.7825 118.853 90.1369 118.684 90.4333C118.512 90.7337 118.451 91.0763 118.469 91.3943L120.466 91.2802C120.466 91.2845 120.47 91.3381 120.421 91.4246C120.374 91.507 120.205 91.7225 119.872 91.7437L119.745 89.7478Z" fill="#263238" mask="url(#path-130-inside-8_171_19740)"/>
<mask id="path-132-inside-9_171_19740" fill="white">
<path d="M119.898 90.7548L119.199 90.5308C119.199 90.5308 119.576 91.0819 119.898 90.7548Z"/>
</mask>
<path d="M119.898 90.7548L119.199 90.5308C119.199 90.5308 119.576 91.0819 119.898 90.7548Z" fill="#263238"/>
<path d="M119.898 90.7548L120.61 91.457L121.752 90.299L120.203 89.8025L119.898 90.7548ZM119.199 90.5308L119.504 89.5785L116.731 88.6895L118.373 91.0947L119.199 90.5308ZM120.203 89.8025L119.504 89.5785L118.894 91.483L119.593 91.7071L120.203 89.8025ZM119.199 90.5308C118.373 91.0947 118.374 91.095 118.374 91.0953C118.374 91.0954 118.374 91.0957 118.374 91.0958C118.374 91.0962 118.375 91.0966 118.375 91.097C118.376 91.0978 118.376 91.0987 118.377 91.0995C118.378 91.1013 118.379 91.1032 118.381 91.1053C118.384 91.1094 118.387 91.1141 118.391 91.1194C118.398 91.1299 118.408 91.1426 118.419 91.1573C118.441 91.1863 118.47 91.224 118.507 91.2665C118.576 91.3462 118.69 91.4667 118.843 91.5767C118.986 91.68 119.242 91.8314 119.583 91.8553C119.976 91.883 120.34 91.7312 120.61 91.457L119.186 90.0526C119.231 90.0077 119.304 89.9502 119.409 89.9088C119.515 89.8667 119.625 89.8533 119.723 89.8603C119.902 89.8729 120.004 89.9478 120.012 89.9542C120.031 89.9673 120.031 89.9704 120.019 89.9571C120.015 89.953 120.013 89.9502 120.013 89.9503C120.014 89.9505 120.015 89.9518 120.016 89.9544C120.017 89.9557 120.018 89.9573 120.02 89.9594C120.021 89.9604 120.021 89.9615 120.022 89.9628C120.023 89.9634 120.023 89.964 120.024 89.9647C120.024 89.965 120.024 89.9654 120.024 89.9657C120.024 89.9659 120.025 89.9662 120.025 89.9663C120.025 89.9665 120.025 89.9668 119.199 90.5308Z" fill="#263238" mask="url(#path-132-inside-9_171_19740)"/>
<mask id="path-134-inside-10_171_19740" fill="white">
<path d="M124.876 89.1237C124.832 89.1229 124.791 89.1052 124.76 89.0744C124.548 88.8975 124.299 88.7706 124.031 88.7031C123.764 88.6356 123.484 88.6293 123.214 88.6846C123.172 88.694 123.129 88.6865 123.093 88.6639C123.056 88.6412 123.031 88.6052 123.021 88.5636C123.012 88.5215 123.019 88.4773 123.042 88.4405C123.064 88.4036 123.1 88.3771 123.142 88.3665C123.467 88.2969 123.803 88.304 124.124 88.3873C124.445 88.4705 124.743 88.6275 124.993 88.8459C125.023 88.877 125.041 88.9188 125.041 88.9624C125.041 89.006 125.023 89.0479 124.993 89.0789C124.96 89.1061 124.919 89.1218 124.876 89.1237Z"/>
</mask>
<path d="M124.876 89.1237C124.832 89.1229 124.791 89.1052 124.76 89.0744C124.548 88.8975 124.299 88.7706 124.031 88.7031C123.764 88.6356 123.484 88.6293 123.214 88.6846C123.172 88.694 123.129 88.6865 123.093 88.6639C123.056 88.6412 123.031 88.6052 123.021 88.5636C123.012 88.5215 123.019 88.4773 123.042 88.4405C123.064 88.4036 123.1 88.3771 123.142 88.3665C123.467 88.2969 123.803 88.304 124.124 88.3873C124.445 88.4705 124.743 88.6275 124.993 88.8459C125.023 88.877 125.041 88.9188 125.041 88.9624C125.041 89.006 125.023 89.0479 124.993 89.0789C124.96 89.1061 124.919 89.1218 124.876 89.1237Z" fill="#263238"/>
<path d="M124.876 89.1237L124.857 90.1235L124.889 90.1242L124.921 90.1227L124.876 89.1237ZM124.76 89.0744L125.464 88.3641L125.433 88.3342L125.401 88.3069L124.76 89.0744ZM123.214 88.6846L123.013 87.7049L123.003 87.7069L122.994 87.7092L123.214 88.6846ZM123.021 88.5636L122.046 88.7835L122.047 88.7891L123.021 88.5636ZM123.142 88.3665L122.933 87.3887L122.914 87.3926L122.896 87.3972L123.142 88.3665ZM124.993 88.8459L125.704 88.1432L125.678 88.1171L125.651 88.0929L124.993 88.8459ZM125.041 88.9624H126.041H125.041ZM124.993 89.0789L125.629 89.8506L125.668 89.8181L125.704 89.7816L124.993 89.0789ZM124.896 88.1239C125.109 88.1281 125.312 88.2142 125.464 88.3641L124.056 89.7848C124.269 89.9963 124.556 90.1176 124.857 90.1235L124.896 88.1239ZM125.401 88.3069C125.074 88.0337 124.689 87.8377 124.276 87.7335L123.787 89.6727C123.909 89.7035 124.022 89.7613 124.119 89.842L125.401 88.3069ZM124.276 87.7335C123.862 87.6292 123.431 87.6195 123.013 87.7049L123.414 89.6643C123.537 89.6391 123.665 89.642 123.787 89.6727L124.276 87.7335ZM122.994 87.7092C123.21 87.6604 123.437 87.6991 123.624 87.817L122.561 89.5108C122.821 89.674 123.135 89.7276 123.434 89.6601L122.994 87.7092ZM123.624 87.817C123.812 87.9349 123.945 88.1223 123.995 88.3382L122.047 88.7891C122.116 89.088 122.301 89.3475 122.561 89.5108L123.624 87.817ZM123.997 88.3438C124.044 88.5557 124.008 88.778 123.894 88.9635L122.189 87.9175C122.03 88.1765 121.979 88.4873 122.046 88.7835L123.997 88.3438ZM123.894 88.9635C123.78 89.1488 123.599 89.2824 123.388 89.3358L122.896 87.3972C122.602 87.4718 122.348 87.6585 122.189 87.9175L123.894 88.9635ZM123.352 89.3443C123.524 89.3073 123.703 89.3111 123.873 89.3553L124.375 87.4192C123.903 87.297 123.409 87.2865 122.933 87.3887L123.352 89.3443ZM123.873 89.3553C124.044 89.3995 124.202 89.4829 124.335 89.5989L125.651 88.0929C125.284 87.7722 124.847 87.5415 124.375 87.4192L123.873 89.3553ZM124.281 89.5486C124.127 89.3925 124.041 89.1818 124.041 88.9624H126.041C126.041 88.6558 125.92 88.3614 125.704 88.1432L124.281 89.5486ZM124.041 88.9624C124.041 88.743 124.127 88.5324 124.281 88.3762L125.704 89.7816C125.92 89.5634 126.041 89.2691 126.041 88.9624H124.041ZM124.357 88.3072C124.491 88.1966 124.657 88.1326 124.831 88.1248L124.921 90.1227C125.18 90.111 125.429 90.0155 125.629 89.8506L124.357 88.3072Z" fill="#263238" mask="url(#path-134-inside-10_171_19740)"/>
<mask id="path-136-inside-11_171_19740" fill="white">
<path d="M118.908 89.2089C118.884 89.2098 118.86 89.2049 118.838 89.1948C118.816 89.1847 118.797 89.1695 118.782 89.1506C118.769 89.1342 118.759 89.1152 118.752 89.0948C118.746 89.0744 118.744 89.0529 118.746 89.0317C118.748 89.0104 118.754 88.9898 118.764 88.971C118.775 88.9522 118.788 88.9356 118.805 88.9221C119.023 88.7232 119.284 88.5769 119.567 88.4946C119.851 88.4123 120.15 88.396 120.44 88.4471C120.461 88.4527 120.48 88.4623 120.497 88.4754C120.514 88.4884 120.528 88.5046 120.539 88.5232C120.549 88.5417 120.556 88.5621 120.559 88.5833C120.562 88.6044 120.56 88.6259 120.555 88.6465C120.549 88.6671 120.539 88.6864 120.526 88.7033C120.513 88.7202 120.497 88.7343 120.479 88.745C120.46 88.7556 120.44 88.7624 120.418 88.7651C120.397 88.7679 120.376 88.7664 120.355 88.7608C120.115 88.7242 119.869 88.7423 119.636 88.8137C119.403 88.885 119.19 89.0079 119.011 89.173C118.982 89.1973 118.946 89.2101 118.908 89.2089Z"/>
</mask>
<path d="M118.908 89.2089C118.884 89.2098 118.86 89.2049 118.838 89.1948C118.816 89.1847 118.797 89.1695 118.782 89.1506C118.769 89.1342 118.759 89.1152 118.752 89.0948C118.746 89.0744 118.744 89.0529 118.746 89.0317C118.748 89.0104 118.754 88.9898 118.764 88.971C118.775 88.9522 118.788 88.9356 118.805 88.9221C119.023 88.7232 119.284 88.5769 119.567 88.4946C119.851 88.4123 120.15 88.396 120.44 88.4471C120.461 88.4527 120.48 88.4623 120.497 88.4754C120.514 88.4884 120.528 88.5046 120.539 88.5232C120.549 88.5417 120.556 88.5621 120.559 88.5833C120.562 88.6044 120.56 88.6259 120.555 88.6465C120.549 88.6671 120.539 88.6864 120.526 88.7033C120.513 88.7202 120.497 88.7343 120.479 88.745C120.46 88.7556 120.44 88.7624 120.418 88.7651C120.397 88.7679 120.376 88.7664 120.355 88.7608C120.115 88.7242 119.869 88.7423 119.636 88.8137C119.403 88.885 119.19 89.0079 119.011 89.173C118.982 89.1973 118.946 89.2101 118.908 89.2089Z" fill="#263238"/>
<path d="M118.908 89.2089L118.939 88.2094L118.905 88.2083L118.871 88.2095L118.908 89.2089ZM118.782 89.1506L119.569 88.5336L119.56 88.5221L119.551 88.5108L118.782 89.1506ZM118.805 88.9221L119.435 89.699L119.457 89.6807L119.479 89.6611L118.805 88.9221ZM120.44 88.4471L120.702 87.482L120.658 87.4701L120.613 87.4622L120.44 88.4471ZM120.355 88.7608L120.617 87.7957L120.562 87.7807L120.505 87.7721L120.355 88.7608ZM119.011 89.173L119.656 89.9372L119.673 89.9228L119.69 89.9075L119.011 89.173ZM118.871 88.2095C119.005 88.2046 119.138 88.2316 119.259 88.2878L118.417 90.1018C118.582 90.1783 118.763 90.2149 118.944 90.2082L118.871 88.2095ZM119.259 88.2878C119.38 88.344 119.487 88.4282 119.569 88.5336L117.995 89.7676C118.108 89.9109 118.252 90.0254 118.417 90.1018L119.259 88.2878ZM119.551 88.5108C119.622 88.5964 119.676 88.695 119.708 88.801L117.796 89.3887C117.842 89.5354 117.915 89.6721 118.014 89.7904L119.551 88.5108ZM119.708 88.801C119.741 88.9069 119.752 89.0185 119.741 89.1292L117.751 88.9341C117.736 89.0874 117.751 89.2419 117.796 89.3887L119.708 88.801ZM119.741 89.1292C119.73 89.2401 119.697 89.3473 119.645 89.4449L117.884 88.4971C117.811 88.6323 117.766 88.7808 117.751 88.9341L119.741 89.1292ZM119.645 89.4449C119.592 89.5427 119.521 89.6291 119.435 89.699L118.175 88.1452C118.056 88.2421 117.957 88.3616 117.884 88.4971L119.645 89.4449ZM119.479 89.6611C119.584 89.5651 119.71 89.4946 119.846 89.4549L119.289 87.5343C118.858 87.6592 118.462 87.8812 118.131 88.1831L119.479 89.6611ZM119.846 89.4549C119.983 89.4152 120.127 89.4074 120.267 89.432L120.613 87.4622C120.172 87.3847 119.719 87.4093 119.289 87.5343L119.846 89.4549ZM120.178 89.4122C120.072 89.3834 119.973 89.3339 119.886 89.2667L121.108 87.684C120.988 87.5907 120.85 87.5221 120.702 87.482L120.178 89.4122ZM119.886 89.2667C119.799 89.1995 119.726 89.1158 119.671 89.0204L121.406 88.026C121.331 87.8935 121.229 87.7773 121.108 87.684L119.886 89.2667ZM119.671 89.0204C119.616 88.9249 119.581 88.8196 119.567 88.7106L121.551 88.456C121.531 88.3046 121.482 88.1585 121.406 88.026L119.671 89.0204ZM119.567 88.7106C119.553 88.6016 119.561 88.4908 119.59 88.3846L121.52 88.9085C121.56 88.761 121.57 88.6073 121.551 88.456L119.567 88.7106ZM119.59 88.3846C119.618 88.2786 119.668 88.1791 119.735 88.092L121.318 89.3146C121.411 89.1937 121.48 89.0557 121.52 88.9085L119.59 88.3846ZM119.735 88.092C119.802 88.005 119.886 87.932 119.981 87.8773L120.976 89.6126C121.108 89.5367 121.224 89.4354 121.318 89.3146L119.735 88.092ZM119.981 87.8773C120.077 87.8226 120.182 87.7873 120.291 87.7733L120.546 89.757C120.697 89.7376 120.843 89.6886 120.976 89.6126L119.981 87.8773ZM120.291 87.7733C120.4 87.7593 120.511 87.7669 120.617 87.7957L120.093 89.7259C120.241 89.7659 120.394 89.7764 120.546 89.757L120.291 87.7733ZM120.505 87.7721C120.116 87.7131 119.719 87.7423 119.343 87.8576L119.929 89.7697C120.019 89.7424 120.113 89.7354 120.205 89.7495L120.505 87.7721ZM119.343 87.8576C118.967 87.973 118.621 88.1715 118.332 88.4385L119.69 89.9075C119.758 89.8442 119.84 89.7971 119.929 89.7697L119.343 87.8576ZM118.366 88.4088C118.526 88.2738 118.73 88.2028 118.939 88.2094L118.876 90.2084C119.161 90.2173 119.438 90.1208 119.656 89.9372L118.366 88.4088Z" fill="#263238" mask="url(#path-136-inside-11_171_19740)"/>
<path d="M128.543 91.4544L128.541 91.4528L128.541 91.4527L128.541 91.4527L128.541 91.4526L128.541 91.4517L128.537 91.4466L128.522 91.424C128.508 91.4035 128.488 91.3723 128.461 91.3313C128.408 91.2494 128.331 91.1283 128.239 90.9751C128.054 90.6681 127.808 90.234 127.564 89.7271C127.068 88.6964 126.616 87.432 126.644 86.3361L126.654 85.9583L126.293 85.8459L126.144 86.3232C126.293 85.8459 126.293 85.8458 126.293 85.8457L126.292 85.8455L126.29 85.8449L126.284 85.8431L126.264 85.837C126.247 85.832 126.222 85.8249 126.191 85.8162C126.129 85.7988 126.04 85.7749 125.927 85.7477C125.702 85.6933 125.383 85.6252 125.002 85.5686C124.245 85.4563 123.217 85.386 122.185 85.5761C121.522 85.698 120.845 85.9299 120.237 86.3352C120.345 86.2088 120.462 86.0867 120.589 85.9698C121.295 85.3198 122.335 84.8006 123.883 84.6291C125.386 84.4625 126.52 84.8856 127.354 85.6317C128.201 86.3896 128.774 87.514 129.069 88.794C129.363 90.0715 129.371 91.4697 129.119 92.7317C129.112 92.7638 129.106 92.7959 129.099 92.8278C129.015 92.3646 128.843 91.8957 128.543 91.4544Z" fill="#263238" stroke="#263238"/>
<path d="M128.281 93.7043C128.281 93.7043 128.281 93.704 128.281 93.7035L128.281 93.7043ZM128.247 93.6461C128.177 93.4983 128.102 93.1789 128.074 92.5814C128.077 92.2738 128.199 91.9792 128.416 91.7606C128.633 91.5416 128.928 91.4165 129.236 91.4117C129.484 91.4223 129.822 91.7171 129.808 92.2132C129.797 92.621 129.498 93.2654 128.247 93.6461Z" fill="white" stroke="#263238"/>
<path d="M123.797 94.1649L123.797 94.1651L123.797 94.1649ZM123.797 94.1649L123.797 94.1647L123.797 94.1649ZM123.803 94.1576L123.803 94.1576L123.803 94.1576ZM121.632 95.3314L121.555 95.4556L121.632 95.3314ZM121.638 95.3225L121.638 95.3225L121.638 95.3225ZM123.797 94.1646L123.796 94.1644L123.797 94.1646Z" fill="#263238" stroke="#263238"/>
<path d="M123.996 85.8003L123.996 85.8001L123.996 85.8L123.864 85.4069L123.453 85.4652C120.495 85.8847 119.12 87.407 118.523 88.8773C118.26 89.5244 118.154 90.1455 118.116 90.6307C117.82 90.3905 117.493 90.0754 117.226 89.6954C116.907 89.2414 116.685 88.7116 116.684 88.1119C116.684 87.5164 116.901 86.7929 117.567 85.9466C118.86 84.3011 121.038 83.8571 123.014 83.867C123.989 83.8718 124.88 83.9873 125.529 84.1023C125.853 84.1596 126.115 84.2165 126.294 84.2587C126.346 84.2709 126.391 84.2818 126.428 84.2912C126.473 84.3421 126.533 84.41 126.606 84.4928C126.78 84.6927 127.025 84.9794 127.308 85.3249C127.874 86.0178 128.582 86.9385 129.166 87.8656C129.762 88.8131 130.18 89.6929 130.248 90.3219C130.28 90.6245 130.224 90.7989 130.143 90.9019C130.063 91.0028 129.886 91.1275 129.474 91.1717C127.803 91.3506 126.453 90.1432 125.463 88.6908C124.98 87.9824 124.611 87.2572 124.364 86.7063C124.24 86.4317 124.147 86.2025 124.086 86.043C124.055 85.9633 124.032 85.9012 124.017 85.8597C124.01 85.8389 124.004 85.8233 124.001 85.8133L123.997 85.8025L123.996 85.8003L123.996 85.8003Z" fill="#263238" stroke="#263238"/>
<mask id="path-142-inside-12_171_19740" fill="white">
<path d="M126.673 91.1715H126.633C123.348 89.9258 123.406 85.5615 123.411 85.5167C123.412 85.4878 123.424 85.4604 123.445 85.4404C123.466 85.4203 123.494 85.4092 123.523 85.4092C123.553 85.4092 123.581 85.421 123.602 85.442C123.623 85.463 123.635 85.4915 123.635 85.5212C123.635 85.566 123.577 89.7735 126.713 90.9609C126.727 90.9663 126.74 90.9745 126.751 90.9849C126.761 90.9953 126.77 91.0078 126.776 91.0216C126.782 91.0354 126.785 91.0502 126.785 91.0652C126.785 91.0802 126.782 91.095 126.776 91.1088C126.767 91.128 126.752 91.1441 126.734 91.1552C126.715 91.1663 126.694 91.172 126.673 91.1715Z"/>
</mask>
<path d="M126.673 91.1715H126.633C123.348 89.9258 123.406 85.5615 123.411 85.5167C123.412 85.4878 123.424 85.4604 123.445 85.4404C123.466 85.4203 123.494 85.4092 123.523 85.4092C123.553 85.4092 123.581 85.421 123.602 85.442C123.623 85.463 123.635 85.4915 123.635 85.5212C123.635 85.566 123.577 89.7735 126.713 90.9609C126.727 90.9663 126.74 90.9745 126.751 90.9849C126.761 90.9953 126.77 91.0078 126.776 91.0216C126.782 91.0354 126.785 91.0502 126.785 91.0652C126.785 91.0802 126.782 91.095 126.776 91.1088C126.767 91.128 126.752 91.1441 126.734 91.1552C126.715 91.1663 126.694 91.172 126.673 91.1715Z" fill="#263238"/>
<path d="M126.673 91.1715L126.695 90.1718L126.684 90.1715H126.673V91.1715ZM126.633 91.1715L126.278 92.1065L126.449 92.1715H126.633V91.1715ZM123.411 85.5167L124.406 85.6162L124.409 85.5865L124.41 85.5567L123.411 85.5167ZM123.523 85.4092L123.522 86.4092H123.523V85.4092ZM126.713 90.9609L127.075 90.0286L127.067 90.0257L126.713 90.9609ZM126.776 91.1088L127.674 91.5485L127.687 91.5229L127.698 91.4965L126.776 91.1088ZM126.673 90.1715H126.633V92.1715H126.673V90.1715ZM126.987 90.2365C125.749 89.767 125.091 88.6998 124.742 87.5927C124.57 87.0472 124.485 86.5279 124.445 86.1406C124.425 85.9482 124.416 85.7922 124.413 85.6866C124.408 85.5442 124.413 85.542 124.406 85.6162L122.416 85.4172C122.407 85.5026 122.41 85.6466 122.414 85.7563C122.419 85.9028 122.431 86.1049 122.456 86.3474C122.506 86.8299 122.612 87.488 122.835 88.1949C123.276 89.5926 124.231 91.3304 126.278 92.1065L126.987 90.2365ZM124.41 85.5567C124.401 85.7859 124.303 86.0028 124.138 86.1618L122.753 84.719C122.545 84.9181 122.423 85.1897 122.412 85.4767L124.41 85.5567ZM124.138 86.1618C123.972 86.3207 123.752 86.4094 123.522 86.4092L123.524 84.4092C123.236 84.409 122.96 84.52 122.753 84.719L124.138 86.1618ZM123.523 86.4092C123.287 86.4092 123.061 86.3155 122.895 86.1491L124.309 84.7349C124.101 84.5264 123.818 84.4092 123.523 84.4092V86.4092ZM122.895 86.1491C122.729 85.9827 122.635 85.7569 122.635 85.5212H124.635C124.635 85.2261 124.518 84.9433 124.309 84.7349L122.895 86.1491ZM122.635 85.5212C122.635 85.5128 122.635 85.5467 122.635 85.5867C122.635 85.6287 122.637 85.6858 122.639 85.7563C122.644 85.8972 122.656 86.0921 122.68 86.3264C122.728 86.7922 122.83 87.4282 123.043 88.1113C123.466 89.4598 124.383 91.148 126.359 91.8961L127.067 90.0257C125.907 89.5864 125.285 88.5771 124.952 87.5138C124.788 86.991 124.708 86.4925 124.669 86.1198C124.65 85.9348 124.642 85.7843 124.638 85.6819C124.634 85.5814 124.635 85.5283 124.635 85.5212H122.635ZM126.351 91.8932C126.241 91.8502 126.14 91.7854 126.055 91.7029L127.447 90.2669C127.34 90.1636 127.214 90.0825 127.075 90.0286L126.351 91.8932ZM126.055 91.7029C125.97 91.6205 125.902 91.5217 125.855 91.4122L127.696 90.6311C127.638 90.4939 127.553 90.3702 127.447 90.2669L126.055 91.7029ZM125.855 91.4122C125.809 91.3025 125.785 91.185 125.785 91.0667L127.785 91.0637C127.784 90.9154 127.755 90.7682 127.696 90.6311L125.855 91.4122ZM125.785 91.0667C125.784 90.9485 125.808 90.8309 125.854 90.7211L127.698 91.4965C127.756 91.3591 127.785 91.2118 127.785 91.0637L125.785 91.0667ZM125.878 90.669C125.952 90.5168 126.069 90.3891 126.214 90.301L127.254 92.0094C127.435 91.8991 127.581 91.7392 127.674 91.5485L125.878 90.669ZM126.214 90.301C126.358 90.2129 126.525 90.168 126.695 90.1718L126.651 92.1713C126.863 92.1759 127.072 92.1198 127.254 92.0094L126.214 90.301Z" fill="#263238" mask="url(#path-142-inside-12_171_19740)"/>
<path d="M119.384 127.932L119.445 127.74L119.357 127.559C116.66 122.07 116.327 116.424 116.675 112.134C116.848 109.991 117.191 108.194 117.491 106.934C117.64 106.304 117.779 105.809 117.879 105.474C117.929 105.306 117.97 105.178 117.998 105.093C118.004 105.076 118.009 105.06 118.013 105.047C118.28 104.72 118.586 104.425 118.923 104.17L118.923 104.17L118.932 104.163C120.021 103.297 122.09 102.111 125.413 101.937C128.164 101.843 130.91 102.217 133.535 103.043L133.539 103.044L134.057 103.204C134.603 103.386 135.041 103.55 135.341 103.668C135.386 103.686 135.428 103.703 135.467 103.719C134.575 112.698 134.64 124.645 138.157 135.515C139.036 138.234 139.499 140.152 139.703 141.498C139.909 142.858 139.843 143.579 139.72 143.941C139.662 144.113 139.599 144.179 139.57 144.202C139.557 144.213 139.544 144.22 139.531 144.225C138.348 138.525 132.82 135.369 127.759 133.637C125.155 132.746 122.618 132.212 120.735 131.9C119.792 131.744 119.011 131.644 118.465 131.582C118.38 131.573 118.301 131.564 118.229 131.557L119.384 127.932Z" fill="#FFC100" stroke="#263238"/>
<path d="M132.765 102.82C132.748 102.837 132.731 102.854 132.714 102.872C132.336 103.256 131.778 103.775 131.06 104.314C129.621 105.394 127.561 106.535 125.042 106.833C122.564 107.126 121.095 106.297 120.239 105.44C119.802 105.003 119.515 104.547 119.337 104.201C119.291 104.113 119.253 104.032 119.222 103.961C120.371 103.126 122.365 102.112 125.414 101.937C127.897 101.853 130.376 102.152 132.765 102.82Z" fill="white" stroke="#263238"/>
<path d="M115.992 117.08L112.011 114.492L111.699 114.289L111.415 114.53L111.415 114.53L111.415 114.53L111.415 114.53L111.415 114.53L111.414 114.531L111.408 114.535L111.385 114.555C111.364 114.572 111.334 114.597 111.296 114.626C111.221 114.687 111.119 114.766 111.009 114.844C110.897 114.924 110.787 114.995 110.694 115.045C110.638 115.076 110.606 115.088 110.595 115.092C110.356 115.091 109.277 115.084 108.128 115.03C107.52 115.001 106.9 114.959 106.376 114.899C105.84 114.837 105.472 114.762 105.308 114.692C105.303 114.685 105.235 114.616 105.223 114.331C105.21 114.022 105.276 113.61 105.414 113.192C105.551 112.774 105.745 112.392 105.956 112.131C106.181 111.852 106.339 111.811 106.402 111.816C106.983 111.858 108.077 112.072 109.169 112.307C109.728 112.428 110.288 112.555 110.755 112.661C111.173 112.755 111.515 112.833 111.714 112.873C111.866 112.905 112.288 113.065 112.898 113.327C113.484 113.578 114.19 113.898 114.872 114.214C115.554 114.529 116.209 114.84 116.694 115.071C116.813 115.128 116.922 115.18 117.018 115.226L115.992 117.08Z" fill="white" stroke="#263238"/>
<path d="M135.858 103.877L135.859 103.877C136.243 103.996 136.642 104.361 137.006 105.047C137.365 105.724 137.652 106.649 137.847 107.755C138.236 109.964 138.237 112.807 137.775 115.62C137.313 118.436 136.393 121.177 134.975 123.208C133.563 125.229 131.685 126.516 129.27 126.545C124.203 126.606 120.527 124.283 118.102 121.923C116.889 120.743 115.994 119.558 115.403 118.669C115.108 118.224 114.889 117.855 114.746 117.598C114.712 117.538 114.682 117.484 114.656 117.437L116.354 114.483C116.372 114.492 116.389 114.502 116.408 114.513C116.72 114.688 117.165 114.934 117.704 115.216C118.779 115.778 120.229 116.487 121.719 117.064C123.196 117.637 124.761 118.1 126.049 118.133C126.695 118.15 127.318 118.06 127.832 117.781C128.366 117.491 128.744 117.018 128.91 116.359C129.441 114.252 130.363 110.784 131.623 107.996C132.255 106.598 132.953 105.415 133.699 104.66C134.439 103.911 135.144 103.655 135.858 103.877Z" fill="#FFC100" stroke="#263238"/>
<path opacity="0.1" d="M135.858 103.877L135.859 103.877C136.243 103.996 136.642 104.361 137.006 105.047C137.365 105.724 137.652 106.649 137.847 107.755C138.236 109.964 138.237 112.807 137.775 115.62C137.313 118.436 136.393 121.177 134.975 123.208C133.563 125.229 131.685 126.516 129.27 126.545C124.203 126.606 120.527 124.283 118.102 121.923C116.889 120.743 115.994 119.558 115.403 118.669C115.108 118.224 114.889 117.855 114.746 117.598C114.712 117.538 114.682 117.484 114.656 117.437L116.354 114.483C116.372 114.492 116.389 114.502 116.408 114.513C116.72 114.688 117.165 114.934 117.704 115.216C118.779 115.778 120.229 116.487 121.719 117.064C123.196 117.637 124.761 118.1 126.049 118.133C126.695 118.15 127.318 118.06 127.832 117.781C128.366 117.491 128.744 117.018 128.91 116.359C129.441 114.252 130.363 110.784 131.623 107.996C132.255 106.598 132.953 105.415 133.699 104.66C134.439 103.911 135.144 103.655 135.858 103.877Z" fill="black" stroke="#263238"/>
<path d="M82.9296 94.1067C83.3054 94.3961 83.6435 94.7294 83.9371 95.0987L77.1174 94.358C77.2877 94.1795 77.4944 93.9853 77.7341 93.8002C78.4823 93.2219 79.5071 92.7609 80.748 93.0598C81.5403 93.2525 82.2835 93.6091 82.9296 94.1067Z" fill="#FFC100" stroke="#263238"/>
<path opacity="0.7" d="M82.9296 94.1067C83.3054 94.3961 83.6435 94.7294 83.9371 95.0987L77.1174 94.358C77.2877 94.1795 77.4944 93.9853 77.7341 93.8002C78.4823 93.2219 79.5071 92.7609 80.748 93.0598C81.5403 93.2525 82.2835 93.6091 82.9296 94.1067Z" fill="white" stroke="#263238"/>
<path d="M77.9761 93.1228C77.2288 93.6817 76.5993 94.4299 76.242 95.256L70.2706 96.0066C70.6955 95.177 71.3114 94.456 72.0715 93.9052C73.6197 93.7472 75.1537 93.4717 76.6602 93.0809C77.3633 92.9058 77.9696 92.8182 78.4818 92.7843C78.307 92.8884 78.1379 93.0018 77.9761 93.1228Z" fill="#FFC100" stroke="#263238"/>
<path opacity="0.8" d="M77.9761 93.1228C77.2288 93.6817 76.5993 94.4299 76.242 95.256L70.2706 96.0066C70.6955 95.177 71.3114 94.456 72.0715 93.9052C73.6197 93.7472 75.1537 93.4717 76.6602 93.0809C77.3633 92.9058 77.9696 92.8182 78.4818 92.7843C78.307 92.8884 78.1379 93.0018 77.9761 93.1228Z" fill="white" stroke="#263238"/>
<path d="M64.997 108.302C64.9453 108.307 64.8924 108.311 64.8382 108.316C63.5399 108.427 61.5229 108.445 58.6915 108.053C57.2601 107.855 56.041 107.483 55.0206 107.042C56.2299 107.144 57.5473 106.989 58.5606 106.811C59.0967 106.716 59.5567 106.614 59.8833 106.535C60.0331 106.499 60.1552 106.467 60.2439 106.444L64.997 108.302Z" fill="#FFC100" stroke="#263238"/>
<path opacity="0.8" d="M64.997 108.302C64.9453 108.307 64.8924 108.311 64.8382 108.316C63.5399 108.427 61.5229 108.445 58.6915 108.053C57.2601 107.855 56.041 107.483 55.0206 107.042C56.2299 107.144 57.5473 106.989 58.5606 106.811C59.0967 106.716 59.5567 106.614 59.8833 106.535C60.0331 106.499 60.1552 106.467 60.2439 106.444L64.997 108.302Z" fill="white" stroke="#263238"/>
<path d="M49.8886 103.342C49.7559 103.148 49.6424 102.967 49.5467 102.806L54.6847 103.527C54.7194 103.613 54.7617 103.715 54.8113 103.832C54.9612 104.187 55.1774 104.673 55.4427 105.203C55.9622 106.239 56.7087 107.519 57.554 108.242C57.5873 108.271 57.6221 108.298 57.6581 108.325C55.5202 107.88 53.8796 107.057 52.6393 106.158C51.3233 105.204 50.4409 104.153 49.8886 103.342Z" fill="#FFC100" stroke="#263238"/>
<path opacity="0.7" d="M49.8886 103.342C49.7559 103.148 49.6424 102.967 49.5467 102.806L54.6847 103.527C54.7194 103.613 54.7617 103.715 54.8113 103.832C54.9612 104.187 55.1774 104.673 55.4427 105.203C55.9622 106.239 56.7087 107.519 57.554 108.242C57.5873 108.271 57.6221 108.298 57.6581 108.325C55.5202 107.88 53.8796 107.057 52.6393 106.158C51.3233 105.204 50.4409 104.153 49.8886 103.342Z" fill="white" stroke="#263238"/>
<path d="M100.487 113.8C100.487 113.8 100.012 106.133 97.2204 102.1H87.0444C87.0444 102.1 90.414 107.925 90.4588 113.401L100.487 113.8Z" fill="#FFC100"/>
<path opacity="0.8" d="M100.487 113.8C100.487 113.8 100.012 106.133 97.2204 102.1H87.0444C87.0444 102.1 90.414 107.925 90.4588 113.401L100.487 113.8Z" fill="white"/>
<path d="M111.761 117.935V116.627L101.746 111.85H89.0923V117.935H111.761Z" fill="#263238"/>
<path opacity="0.1" d="M89.0921 117.935H101.347V112.074H89.0921V117.935Z" fill="white"/>
<path d="M89.2852 113.799H100.805C101.181 113.799 101.542 113.65 101.808 113.385C102.074 113.12 102.225 112.759 102.226 112.384C102.226 112.007 102.076 111.646 101.81 111.379C101.543 111.113 101.182 110.963 100.805 110.963H89.2852C88.9084 110.963 88.5472 111.113 88.2808 111.379C88.0144 111.646 87.8647 112.007 87.8647 112.384C87.8659 112.759 88.0161 113.12 88.2824 113.385C88.5486 113.65 88.9092 113.799 89.2852 113.799Z" fill="#263238"/>
<path opacity="0.2" d="M89.2852 113.799H100.805C101.181 113.799 101.542 113.65 101.808 113.385C102.074 113.12 102.225 112.759 102.226 112.384C102.226 112.007 102.076 111.646 101.81 111.379C101.543 111.113 101.182 110.963 100.805 110.963H89.2852C88.9084 110.963 88.5472 111.113 88.2808 111.379C88.0144 111.646 87.8647 112.007 87.8647 112.384C87.8659 112.759 88.0161 113.12 88.2824 113.385C88.5486 113.65 88.9092 113.799 89.2852 113.799Z" fill="white"/>
<path opacity="0.2" d="M100.487 113.799H100.805C101.181 113.799 101.542 113.65 101.808 113.385C102.075 113.12 102.225 112.759 102.226 112.384C102.226 112.007 102.076 111.646 101.81 111.379C101.543 111.113 101.182 110.963 100.805 110.963H100.487C100.111 110.963 99.7493 111.113 99.4829 111.379C99.2165 111.646 99.0669 112.007 99.0669 112.384C99.0681 112.759 99.2183 113.12 99.4845 113.385C99.7508 113.65 100.111 113.799 100.487 113.799Z" fill="white"/>
<path d="M101.083 111.716H102.875L104.363 116.224H103.785L102.441 113.253H101.069C101.069 113.253 100.379 112.854 100.411 112.357C100.442 111.859 101.083 111.716 101.083 111.716Z" fill="#263238"/>
<path opacity="0.2" d="M101.083 111.716H102.875L104.363 116.224H103.785L102.441 113.253H101.069C101.069 113.253 100.379 112.854 100.411 112.357C100.442 111.859 101.083 111.716 101.083 111.716Z" fill="white"/>
<path d="M94.1826 189.812H91.4359L90.9878 121.144H94.6307L94.1826 189.812Z" fill="#263238"/>
<path opacity="0.4" d="M94.6356 121.256L94.5639 132.332L94.1875 189.812H91.4408L91.0644 132.332L90.9927 121.256H94.6356Z" fill="white"/>
<path opacity="0.2" d="M94.6356 121.256L94.5639 132.458H91.0644L90.9927 121.256H94.6356Z" fill="black"/>
<path d="M123.326 189.812H120.584L115.65 121.144H119.293L123.326 189.812Z" fill="#263238"/>
<path opacity="0.5" d="M123.33 189.812H120.583L115.892 124.553L115.646 121.256H119.288L119.486 124.553L123.33 189.812Z" fill="white"/>
<path opacity="0.2" d="M119.486 124.392H115.892L115.646 121.256H119.288L119.486 124.392Z" fill="black"/>
<path d="M65.0397 189.812H62.293L66.3302 121.144H69.9731L65.0397 189.812Z" fill="#263238"/>
<path opacity="0.5" d="M69.9731 121.256L69.7267 124.553L65.0352 189.812H62.293L66.1286 124.553L66.3257 121.256H69.9731Z" fill="white"/>
<path opacity="0.2" d="M66.3256 121.256H69.973L69.7265 124.392H66.1284L66.3256 121.256Z" fill="black"/>
<path d="M63.4443 119.423H122.179V121.892C122.179 122.149 122.077 122.395 121.895 122.576C121.714 122.758 121.468 122.86 121.211 122.86H64.4122C64.1555 122.86 63.9093 122.758 63.7278 122.576C63.5463 122.395 63.4443 122.149 63.4443 121.892V119.423Z" fill="#263238"/>
<path opacity="0.6" d="M63.4443 119.423H122.179V121.892C122.179 122.149 122.077 122.395 121.895 122.576C121.714 122.758 121.468 122.86 121.211 122.86H64.4122C64.1555 122.86 63.9093 122.758 63.7278 122.576C63.5463 122.395 63.4443 122.149 63.4443 121.892V119.423Z" fill="white"/>
<path opacity="0.2" d="M122.179 119.423H63.4443V121.144H122.179V119.423Z" fill="black"/>
<path d="M123.882 119.871H61.7418C61.6147 119.871 61.4888 119.846 61.3714 119.797C61.254 119.749 61.1473 119.677 61.0574 119.588C60.9675 119.498 60.8962 119.391 60.8476 119.274C60.799 119.156 60.7739 119.03 60.7739 118.903C60.7739 118.646 60.8759 118.4 61.0574 118.219C61.2389 118.037 61.4851 117.935 61.7418 117.935H123.882C124.138 117.935 124.385 118.037 124.566 118.219C124.748 118.4 124.85 118.646 124.85 118.903C124.85 119.03 124.825 119.156 124.776 119.274C124.727 119.391 124.656 119.498 124.566 119.588C124.476 119.677 124.37 119.749 124.252 119.797C124.135 119.846 124.009 119.871 123.882 119.871Z" fill="#263238"/>
<path opacity="0.6" d="M123.882 119.871H61.7418C61.6147 119.871 61.4888 119.846 61.3714 119.797C61.254 119.749 61.1473 119.677 61.0574 119.588C60.9675 119.498 60.8962 119.391 60.8476 119.274C60.799 119.156 60.7739 119.03 60.7739 118.903C60.7739 118.646 60.8759 118.4 61.0574 118.219C61.2389 118.037 61.4851 117.935 61.7418 117.935H123.882C124.138 117.935 124.385 118.037 124.566 118.219C124.748 118.4 124.85 118.646 124.85 118.903C124.85 119.03 124.825 119.156 124.776 119.274C124.727 119.391 124.656 119.498 124.566 119.588C124.476 119.677 124.37 119.749 124.252 119.797C124.135 119.846 124.009 119.871 123.882 119.871Z" fill="white"/>
<path d="M44.4771 189.696H27.1273V185.184H24.4702L27.3066 184.377L28.3685 176.303L24.4702 174.905L28.1938 174.174L28.0145 166.799L24.4702 165.374H28.0145L27.6606 153.079H25.3574L28.9017 151.273L28.5478 142.378H45.7407V145.349L47.6898 145.882L44.6787 146.416L45.0327 159.755L44.4771 189.696Z" fill="#FFC100"/>
<path opacity="0.8" d="M24.4702 174.905L28.373 176.307L27.3066 184.377L24.4702 185.184H27.1318V189.7H44.4771L45.0327 159.759L44.6787 146.416L47.6943 145.882L45.7407 145.354V142.383H28.5478L28.9017 151.277L25.3574 153.079H27.6606V153.092L28.0145 165.374H24.4702L28.0145 166.803L28.1938 174.174L24.4702 174.905Z" fill="white"/>
<path opacity="0.1" d="M28.373 176.307L35.0181 177.521L34.6641 181.792H29.5246L35.4617 182.898L35.0181 183.996H30.9405L36.7925 184.973L33.8665 185.327L34.0412 186.653L27.1318 185.184V189.7H44.4771L45.0327 159.759L44.6787 146.416L47.6943 145.882L45.7407 145.354V142.383H37.8544V145.354H32.0921L37.8544 146.241V147.303L30.9405 147.894L36.9672 148.28L37.1465 149.785L37.8544 152.088L27.6471 152.895L25.3574 153.079L27.6606 153.092L36.08 153.15V156.52H31.6082L37.8544 157.497L37.4108 158.863H39.9514L36.7925 159.71H30.0533L36.08 160.441V163.434H29.435L34.9285 164.231L35.0181 166.042L24.4702 165.374L28.0145 166.803L34.8433 168.13L35.2824 170.791H31.1198L35.3721 171.589V173.538L32.2131 173.892L36.08 174.582L35.0181 175.841L24.4702 174.905L28.373 176.307Z" fill="black"/>
<path d="M53.3894 129.626C52.9674 128.847 52.3869 128.166 51.6853 127.626C50.9838 127.086 50.1768 126.698 49.3164 126.489C46.4307 125.79 44.6025 128.671 44.6025 128.671L53.3894 129.626Z" fill="#FFC100"/>
<path opacity="0.7" d="M53.3894 129.626C52.9674 128.847 52.3869 128.166 51.6853 127.626C50.9838 127.086 50.1768 126.698 49.3164 126.489C46.4307 125.79 44.6025 128.671 44.6025 128.671L53.3894 129.626Z" fill="white"/>
<path d="M49.3166 126.498C47.5243 126.498 45.6244 127.972 45.0509 129.635L37.9219 130.531C38.3655 129.236 39.2138 128.117 40.3415 127.341C41.9091 127.184 43.4625 126.909 44.9881 126.516C47.9141 125.786 49.3166 126.498 49.3166 126.498Z" fill="#FFC100"/>
<path opacity="0.8" d="M49.3166 126.498C47.5243 126.498 45.6244 127.972 45.0509 129.635L37.9219 130.531C38.3655 129.236 39.2138 128.117 40.3415 127.341C41.9091 127.184 43.4625 126.909 44.9881 126.516C47.9141 125.786 49.3166 126.498 49.3166 126.498Z" fill="white"/>
<path d="M46.6723 138.856L40.1034 136.28C40.1034 136.28 37.1013 137.14 34.7264 136.889C32.3516 136.638 30.2456 134.618 30.2456 134.618C30.2456 134.618 32.728 138.113 38.459 138.91C44.1899 139.708 46.6723 138.856 46.6723 138.856Z" fill="#FFC100"/>
<path opacity="0.8" d="M46.6723 138.856L40.1034 136.28C40.1034 136.28 37.1013 137.14 34.7264 136.889C32.3516 136.638 30.2456 134.618 30.2456 134.618C30.2456 134.618 32.728 138.113 38.459 138.91C44.1899 139.708 46.6723 138.856 46.6723 138.856Z" fill="white"/>
<path d="M46.6724 138.856C46.6724 138.856 39.2298 139.533 37.7108 138.229C36.1918 136.925 34.8744 133.444 34.8744 133.444L28.4893 132.547C28.4893 132.547 32.2531 142.141 46.6724 138.856Z" fill="#FFC100"/>
<path opacity="0.7" d="M46.6724 138.856C46.6724 138.856 39.2298 139.533 37.7108 138.229C36.1918 136.925 34.8744 133.444 34.8744 133.444L28.4893 132.547C28.4893 132.547 32.2531 142.141 46.6724 138.856Z" fill="white"/>
<path d="M44.2712 155.023L41.4976 152.433C41.4976 152.433 52.4352 150.99 56.3828 147.894L59.9093 151.555C59.9093 151.555 55.89 157.057 44.2712 155.023Z" fill="#FFC100"/>
<path opacity="0.8" d="M44.2712 155.023L41.4976 152.433C41.4976 152.433 52.4352 150.99 56.3828 147.894L59.9093 151.555C59.9093 151.555 55.89 157.057 44.2712 155.023Z" fill="white"/>
<path d="M57.3502 159.755L60.0118 157.066C60.0118 157.066 49.0204 156.094 44.9428 153.168L41.5732 156.981C41.5732 156.981 45.8211 162.287 57.3502 159.755Z" fill="#FFC100"/>
<path opacity="0.7" d="M57.3502 159.755L60.0118 157.066C60.0118 157.066 49.0204 156.094 44.9428 153.168L41.5732 156.981C41.5732 156.981 45.8211 162.287 57.3502 159.755Z" fill="white"/>
<path d="M40.6011 180.895L42.6443 181.68L42.1962 189.812L59.6266 189.7V186.295L60.8096 186.035L59.1786 185.278L59.6266 173.238L60.2764 172.866L59.1786 172.122L59.6266 163.08L60.8096 162.457L59.6266 162.47V158.863L55.7552 159.056L41.7482 159.759L42.1962 166.445L40.6011 167.242L42.1962 167.045L42.138 168.752L41.7482 180.631L40.6011 180.895Z" fill="#FFC100"/>
<path opacity="0.8" d="M40.6011 180.895L42.6443 181.68L42.1962 189.812L59.6266 189.7V186.295L60.8096 186.035L59.1786 185.278L59.6266 173.238L60.2764 172.866L59.1786 172.122L59.6266 163.08L60.8096 162.457L59.6266 162.47V158.863L55.7552 159.056L41.7482 159.759L42.1962 166.445L40.6011 167.242L42.1962 167.045L42.138 168.752L41.7482 180.631L40.6011 180.895Z" fill="white"/>
<path opacity="0.1" d="M55.7552 189.136L42.1962 189.812L59.6266 189.7V186.295L60.8096 186.035L59.1786 185.278L59.6266 173.238L60.2764 172.866L59.1786 172.122L59.6266 163.08L60.8096 162.457L59.6266 162.47V158.863L55.7552 159.056L55.2892 162.636L43.7914 163.877H55.2892V166.888L42.1962 167.045L42.138 168.752H55.2892V172.315H49.1998L55.2892 173.444L54.5185 180.165L40.6011 180.895L42.6443 181.68L54.5185 181.792L55.2892 185.591H45.6554L55.7552 186.568V188.248L43.7063 187.541L55.7552 189.136Z" fill="black"/>
</g>
<defs>
<clipPath id="clip0_171_19740">
<rect width="210" height="210" fill="white"/>
</clipPath>
</defs>
</svg>
