<svg width="121" height="120" viewBox="0 0 121 120" fill="none" xmlns="http://www.w3.org/2000/svg">
<g clip-path="url(#clip0_896_26185)">
<path opacity="0.5" d="M119.929 100.346C119.929 100.405 82.2129 100.221 39.137 100.221C-3.9389 100.221 0.37069 100.405 0.37069 100.346C0.37069 100.287 -3.95513 100 39.137 100C82.2291 100 119.929 100.282 119.929 100.346Z" fill="#263238"/>
<path d="M105.263 64.3931C104.249 72.992 100.326 82.9918 92.4803 87.5833C80.6332 94.5262 81.6247 105.201 58.4983 109.842C55.1252 110.535 51.6867 110.86 48.2435 110.811C46.5592 110.779 44.8786 110.642 43.2117 110.399C28.5134 108.253 18.6227 98.0377 14.9939 85.7031C10.2192 69.4846 19.7541 58.8574 26.0736 52.4679C32.3932 46.0784 37.0238 26.1365 59.7223 21.405C63.1845 20.662 66.7208 20.321 70.2611 20.3888C78.3374 20.5945 87.1461 23.24 93.2414 28.7737C93.6981 29.1851 94.1438 29.6158 94.5786 30.0656C103.05 38.7653 106.65 52.6695 105.263 64.3931Z" fill="#FFD000"/>
<path opacity="0.7" d="M105.263 64.3931C104.249 72.992 100.326 82.9918 92.4803 87.5833C80.6332 94.5262 81.6247 105.201 58.4983 109.842C55.1252 110.535 51.6867 110.86 48.2435 110.811C46.5592 110.779 44.8786 110.642 43.2117 110.399C28.5134 108.253 18.6227 98.0377 14.9939 85.7031C10.2192 69.4846 19.7541 58.8574 26.0736 52.4679C32.3932 46.0784 37.0238 26.1365 59.7223 21.405C63.1845 20.662 66.7208 20.321 70.2611 20.3888C78.3374 20.5945 87.1461 23.24 93.2414 28.7737C93.6981 29.1851 94.1438 29.6158 94.5786 30.0656C103.05 38.7653 106.65 52.6695 105.263 64.3931Z" fill="white"/>
<g opacity="0.15">
<path d="M51.6543 61.7623C50.8437 62.5604 48.4389 63.408 48.4369 63.408C48.4348 63.408 48.3525 61.6532 48.3628 61.5401C48.4657 60.2461 49.4284 57.8084 50.8437 57.4752C51.8723 57.2366 52.7733 57.9998 52.9009 58.9954C53.0284 59.9911 52.3496 61.0813 51.6543 61.7623Z" fill="black"/>
<path d="M50.2143 94.1188C50.2246 94.1764 50.2369 94.2299 50.2472 94.2875L49.4922 94.9849C49.4511 94.7524 49.4079 94.5159 49.3667 94.2731C49.2474 93.584 49.1343 92.8455 49.0232 92.0843C48.291 92.074 47.5601 92.0197 46.8344 91.9218C46.423 92.9401 44.983 94.5035 44.7958 94.7031C45.2648 95.2071 45.7276 95.6905 46.172 96.1431C46.4764 96.4537 46.7706 96.7499 47.0586 97.0338L46.1576 97.3794C45.9519 97.1737 45.7564 96.968 45.5507 96.7396C45.0714 96.2315 44.5674 95.6782 44.0572 95.1042C43.8227 95.2564 41.8952 96.4804 40.8378 96.6327C39.8771 96.7705 38.6161 96.68 37.8879 95.9579C37.1596 95.2359 37.1164 94.0653 37.9249 93.3988C39.046 92.4752 41.5702 93.1931 42.6563 93.8843C42.7201 93.9255 43.3702 94.4521 43.7754 94.7915C43.5697 94.5549 43.364 94.3287 43.1583 94.0839C42.7468 93.6025 42.3354 93.1108 41.8972 92.5821C41.6956 92.3188 41.4899 92.0535 41.2801 91.786C41.0744 91.5248 40.8831 91.2224 40.6794 90.9385C40.2227 90.2699 39.7928 89.5725 39.3772 88.8587C38.9535 89.2249 37.4353 90.5044 36.4972 90.7863C35.5592 91.0681 34.3105 91.1709 33.4794 90.5682C32.6483 89.9655 32.4303 88.8135 33.1276 88.0317C34.0966 86.9476 36.6988 87.2686 37.8858 87.7931C37.9599 87.826 38.7683 88.3012 39.2086 88.5687C38.9596 88.1387 38.7107 87.7088 38.4742 87.2644C37.7932 85.9828 37.1432 84.6642 36.487 83.3559C36.2812 82.9547 36.0755 82.5556 35.8698 82.1565C35.7196 82.2882 33.9484 83.8475 32.9055 84.1664C31.9777 84.4482 30.7167 84.549 29.8876 83.9463C29.0586 83.3435 28.8385 82.1915 29.5359 81.4098C30.5048 80.3257 33.105 80.6466 34.292 81.1732C34.3825 81.2123 35.5448 81.8953 35.8328 82.0825C35.3843 81.2041 34.9297 80.3298 34.4463 79.4884C33.8005 78.3457 33.081 77.2463 32.2924 76.197C32.2225 76.2587 30.3814 77.8941 29.3116 78.2192C28.3839 78.501 27.1249 78.6039 26.2938 78.0011C25.4627 77.3984 25.2447 76.2464 25.9441 75.4647C26.911 74.3805 29.5132 74.6994 30.7002 75.226C30.7928 75.2672 32.0435 76.0036 32.2616 76.1517C32.2143 76.0921 32.1752 76.0242 32.1279 75.9645C31.3114 74.9354 30.4047 73.9813 29.4186 73.1133C28.8796 72.6279 28.3366 72.1938 27.7976 71.7824C27.487 72.1218 26.0449 73.6605 25.1233 74.0596C24.2326 74.4423 22.99 74.6768 22.0993 74.1728C21.2086 73.6688 20.865 72.5435 21.4822 71.6898C22.3256 70.5069 24.9464 70.5378 26.1827 70.9307C26.2506 70.9533 26.911 71.2455 27.3882 71.4656C27.1434 71.2845 26.8924 71.0932 26.6538 70.9225C25.759 70.2848 24.8991 69.7561 24.1359 69.2932C23.6977 69.034 23.2986 68.8077 22.9201 68.6C22.4408 68.7748 20.4988 69.4516 19.5073 69.3796C18.5158 69.3076 17.3288 68.9476 16.7713 68.0857C16.2138 67.2237 16.4257 66.0717 17.3576 65.5945C18.6515 64.9321 20.9638 66.1684 21.8833 67.088C21.9615 67.1661 23.0579 68.5506 23.0332 68.5609L23.0044 68.5712C23.3706 68.7625 23.7615 68.9826 24.1832 69.213C24.9608 69.6594 25.8289 70.1696 26.7464 70.7908C27.7367 71.4497 28.688 72.1654 29.5955 72.9344C30.6162 73.7905 31.558 74.7365 32.4097 75.7609C32.42 75.7712 32.4282 75.7856 32.4385 75.7979C32.2801 75.4029 31.8707 74.2839 31.8502 74.1954C31.5457 72.9323 31.7 70.3156 32.9404 69.5586C33.8332 69.0114 34.9359 69.4537 35.372 70.3609C35.8081 71.2681 35.4892 72.5065 35.0428 73.3684C34.543 74.3394 32.6812 75.8082 32.5311 75.9234C33.3737 76.9862 34.1442 78.1044 34.8371 79.2704C35.2486 79.9472 35.6332 80.6404 36.0159 81.3419C35.8883 80.9963 35.7772 80.6857 35.767 80.6404C35.4625 79.3794 35.6168 76.7627 36.8572 76.0036C37.75 75.4585 38.8547 75.9008 39.2888 76.8059C39.7228 77.7111 39.406 78.9536 38.9617 79.8135C38.5174 80.6733 36.9478 81.9714 36.5302 82.3067C36.6721 82.5762 36.8202 82.8457 36.9622 83.1152C37.6472 84.4153 38.324 85.7154 39.0193 86.9723C39.2662 87.4146 39.5254 87.8404 39.7846 88.2683C39.6714 87.9618 39.5788 87.7006 39.5788 87.6512C39.2744 86.3901 39.4287 83.7735 40.6691 83.0144C41.564 82.4692 42.6666 82.9115 43.1007 83.8167C43.5347 84.7218 43.2179 85.9643 42.7736 86.8263C42.3292 87.6882 40.9222 88.8567 40.4161 89.2557C40.6938 89.6857 40.9715 90.1177 41.2616 90.5229C41.4673 90.7945 41.6422 91.0681 41.8623 91.3314L42.4794 92.1131C42.8908 92.5945 43.327 93.0964 43.7466 93.5531C44.0367 93.874 44.3185 94.1703 44.6024 94.4809C44.3514 94.0448 43.8762 93.1767 43.8454 93.1005C43.4523 92.0282 43.3404 90.8732 43.5203 89.7453C43.4703 89.6282 43.4324 89.5061 43.4072 89.3812C43.2015 88.3979 43.8083 87.3776 44.8472 87.2665C46.2872 87.1143 48.007 89.0994 48.5315 90.2864C48.5624 90.3563 48.8134 91.1524 48.9635 91.6585C48.9224 91.3479 48.8751 91.0414 48.836 90.7266C48.7516 90.093 48.6858 89.4594 48.6118 88.7764C48.5891 88.4473 48.5644 88.114 48.5398 87.7767C48.5151 87.4393 48.5192 87.0855 48.5068 86.7378C48.4945 85.9273 48.5212 85.1085 48.5665 84.2816C48.0131 84.3556 46.0403 84.584 45.1064 84.3063C44.1724 84.0285 43.0698 83.4196 42.7098 82.4548C42.3498 81.49 42.8044 80.4121 43.8166 80.1467C45.2216 79.7764 47.217 81.4777 47.9164 82.5721C47.9596 82.64 48.3731 83.4813 48.5912 83.9483C48.622 83.4525 48.6508 82.9568 48.7002 82.4548C48.838 81.0148 49.0232 79.5501 49.2001 78.0937C49.2556 77.6473 49.305 77.2029 49.3564 76.7586C49.1507 76.7853 46.82 77.1083 45.775 76.7977C44.8451 76.522 43.7384 75.9111 43.3784 74.9463C43.0184 73.9815 43.471 72.9035 44.4851 72.6381C45.8902 72.2679 47.8835 73.9691 48.583 75.0635C48.6364 75.1458 49.2289 76.3575 49.3647 76.6722C49.4778 75.6909 49.5704 74.7117 49.6424 73.7428C49.7325 72.4348 49.7373 71.1223 49.6568 69.8137C49.5663 69.8281 47.1265 70.1757 46.0547 69.8589C45.127 69.5812 44.0202 68.9723 43.6602 68.0075C43.3002 67.0427 43.7528 65.9668 44.7649 65.6994C46.172 65.3291 48.1654 67.0324 48.8648 68.1248C48.9203 68.2112 49.556 69.5154 49.6547 69.7581C49.6547 69.6841 49.6547 69.6039 49.6547 69.5277C49.5375 68.2178 49.3041 66.9208 48.9574 65.6521C48.7763 64.9485 48.5624 64.2861 48.3402 63.6484C47.8918 63.7595 45.8408 64.2471 44.8431 64.0599C43.8906 63.8871 42.7222 63.4016 42.2593 62.4861C41.7964 61.5707 42.1276 60.4455 43.1048 60.0711C44.4604 59.5485 46.6307 61.0215 47.4454 62.0315C47.4906 62.0871 47.8794 62.6939 48.1551 63.1424C48.0502 62.8544 47.9494 62.5561 47.8424 62.2825C47.4474 61.2539 47.0195 60.3426 46.641 59.5341C46.4188 59.0775 46.209 58.6681 46.0095 58.2875C45.5137 58.1682 43.5203 57.6601 42.7345 57.0532C41.9487 56.4464 41.1546 55.4919 41.1649 54.4653C41.1752 53.4388 41.9878 52.5933 43.0287 52.7106C44.4687 52.8731 45.7194 55.1792 45.9786 56.4505C45.9992 56.5616 46.1514 58.3204 46.1247 58.3143H46.0959C46.3016 58.6763 46.5073 59.0672 46.7254 59.4992C47.1368 60.2994 47.5708 61.2087 47.9905 62.229C48.4532 63.3246 48.8516 64.4463 49.1836 65.5883C49.5629 66.865 49.8273 68.1731 49.9736 69.4969C49.9736 69.5113 49.9736 69.5277 49.9736 69.5442C50.06 69.1328 50.3356 67.9684 50.3686 67.882C50.8108 66.6621 52.3825 64.5639 53.8349 64.6153C54.8819 64.6544 55.5587 65.6315 55.4209 66.6251C55.2831 67.6187 54.3327 68.4765 53.4872 68.9538C52.5327 69.4887 50.1711 69.6861 49.99 69.7005C50.1065 71.0516 50.1319 72.4089 50.0662 73.7634C50.0332 74.5513 49.9756 75.3453 49.9078 76.1415C49.9921 75.7815 50.0703 75.4626 50.0867 75.4194C50.529 74.1975 52.1007 72.1012 53.553 72.1527C54.6001 72.1917 55.2769 73.1689 55.1391 74.1625C55.0013 75.1561 54.0529 76.0139 53.2074 76.4912C52.3619 76.9684 50.3274 77.1803 49.8049 77.2276C49.774 77.5341 49.7494 77.8448 49.7185 78.1431C49.5724 79.6036 49.4182 81.0622 49.3071 82.498C49.27 83.002 49.2515 83.5019 49.231 84.0018C49.3071 83.683 49.3729 83.4155 49.3873 83.3847C49.8296 82.1648 51.4033 80.0665 52.8556 80.12C53.9007 80.157 54.5775 81.1341 54.4396 82.1298C54.3018 83.1255 53.3535 83.9812 52.508 84.4564C51.6625 84.9316 49.8337 85.125 49.2001 85.1847C49.2001 85.6969 49.2001 86.2132 49.2001 86.707C49.2186 87.0464 49.2145 87.3735 49.2536 87.7129C49.2927 88.0523 49.3174 88.3815 49.3482 88.7127C49.4305 89.3442 49.5107 89.9984 49.6074 90.6155C49.6712 91.0434 49.7411 91.4507 49.8131 91.8621C49.844 91.3582 49.9263 90.3728 49.9427 90.2905C50.1958 89.0192 51.4321 86.7069 52.8762 86.5383C53.9048 86.4169 54.7276 87.2809 54.7462 88.2848C54.7647 89.2887 53.9542 90.2823 53.1889 90.8788C52.3475 91.5351 50.134 92.0761 49.8584 92.1419C49.9633 92.8372 50.0826 93.4976 50.2143 94.1188Z" fill="black"/>
<path d="M27.7564 71.5089C27.7399 71.5295 26.7278 70.0895 26.662 69.9928C26.0449 68.8552 25.4935 66.2899 26.4892 65.2326C27.2071 64.4694 28.3879 64.6051 29.0462 65.3642C29.7045 66.1233 29.7271 67.4028 29.5255 68.3512C29.289 69.4661 27.7564 71.5068 27.7564 71.5089Z" fill="black"/>
</g>
<g opacity="0.15">
<path d="M73.1515 23.1435C73.8242 23.8059 75.8258 24.5198 75.8258 24.5198C75.8258 24.5198 75.8957 23.0613 75.8875 22.9687C75.8011 21.8949 75.0008 19.8686 73.8303 19.5929C73.6341 19.5524 73.4315 19.5537 73.2358 19.5967C73.0401 19.6396 72.8556 19.7233 72.6944 19.8422C72.5332 19.9612 72.3987 20.1127 72.2999 20.287C72.2011 20.4614 72.1401 20.6545 72.1208 20.8539C72.0036 21.6994 72.5775 22.5778 73.1515 23.1435Z" fill="black"/>
<path d="M74.359 50.0116C74.359 50.061 74.3404 50.1063 74.3322 50.1536L74.9597 50.7316C74.9946 50.5383 75.0275 50.3428 75.0625 50.1412C75.1613 49.5673 75.2559 48.9543 75.3484 48.3248C75.9568 48.3152 76.564 48.2699 77.167 48.189C77.5043 49.0345 78.7037 50.3326 78.86 50.4971C78.4691 50.9086 78.0845 51.32 77.7162 51.6923C77.4632 51.9515 77.2184 52.1963 76.9798 52.4329L77.7286 52.7188L78.2326 52.1881C78.6317 51.7664 79.0554 51.3056 79.4669 50.8304C79.6623 50.9559 81.2627 51.9721 82.1411 52.0996C82.9373 52.2128 83.9926 52.1387 84.5912 51.538C84.7386 51.4026 84.8559 51.2376 84.9355 51.0539C85.015 50.8701 85.055 50.6717 85.0529 50.4715C85.0507 50.2713 85.0065 50.0738 84.9231 49.8918C84.8396 49.7098 84.7189 49.5474 84.5686 49.4151C83.6367 48.6478 81.5405 49.2361 80.6333 49.8265C80.5798 49.8615 80.0408 50.2976 79.7034 50.5794C79.8762 50.384 80.0449 50.1968 80.2198 49.9931C80.5695 49.594 80.9048 49.1847 81.2689 48.7444L81.777 48.0841C81.9519 47.8681 82.1082 47.6151 82.2769 47.3806C82.6554 46.8251 83.0113 46.245 83.359 45.6526C83.7087 45.957 84.9697 47.0185 85.7453 47.2551C86.5208 47.4916 87.5617 47.5739 88.2509 47.072C88.4157 46.9586 88.5552 46.8122 88.6603 46.6419C88.7655 46.4716 88.8339 46.2813 88.8614 46.0831C88.8889 45.8849 88.8748 45.6832 88.82 45.4908C88.7651 45.2983 88.6708 45.1194 88.543 44.9655C87.7386 44.0665 85.5766 44.3319 84.5912 44.7598C84.5295 44.7886 83.8588 45.1815 83.4927 45.4036C83.6984 45.0457 83.9041 44.6898 84.1098 44.3216C84.6776 43.256 85.2166 42.1616 85.7555 41.0692C85.9228 40.736 86.0909 40.4041 86.2595 40.0736C86.383 40.1826 87.8559 41.4786 88.7281 41.7419C89.4975 41.9764 90.5446 42.0608 91.2337 41.5609C91.3986 41.4475 91.5381 41.3011 91.6432 41.1308C91.7483 40.9606 91.8168 40.7703 91.8443 40.5721C91.8718 40.3739 91.8576 40.1721 91.8028 39.9797C91.748 39.7872 91.6536 39.6083 91.5258 39.4544C90.7215 38.5534 88.5615 38.8187 87.5761 39.2487C87.5021 39.2816 86.5352 39.8494 86.2966 40.0036C86.6689 39.2734 87.0454 38.5492 87.4465 37.8498C87.9834 36.9021 88.5813 35.9903 89.2362 35.12C89.2938 35.1714 90.8243 36.5312 91.7048 36.8007C92.4742 37.0352 93.5213 37.1195 94.2104 36.6196C94.3768 36.5075 94.5178 36.3616 94.624 36.1914C94.7302 36.0211 94.7994 35.8304 94.827 35.6316C94.8545 35.4329 94.8399 35.2305 94.784 35.0378C94.7281 34.8451 94.6322 34.6663 94.5025 34.5131C93.6982 33.6121 91.5382 33.8775 90.5528 34.3074C90.4746 34.3403 89.4358 34.9513 89.2547 35.0768C89.2938 35.0254 89.3288 34.9698 89.3679 34.9204C90.0492 34.0652 90.8065 33.2733 91.6307 32.5547C92.0792 32.1433 92.5297 31.7895 92.9782 31.448C93.2353 31.7298 94.4346 33.0073 95.2061 33.3385C95.9466 33.6574 96.9773 33.8548 97.7178 33.4331C97.8934 33.3384 98.0474 33.2082 98.17 33.0509C98.2927 32.8935 98.3813 32.7124 98.4302 32.519C98.4791 32.3255 98.4873 32.1241 98.4543 31.9273C98.4213 31.7306 98.3477 31.5428 98.2383 31.376C97.5368 30.3927 95.3583 30.4194 94.3297 30.7465C94.2742 30.763 93.7249 31.0078 93.3279 31.1908C93.5336 31.0386 93.7393 30.8802 93.945 30.7383C94.6877 30.2096 95.4015 29.7694 96.0371 29.3867C96.3992 29.181 96.7325 28.9753 97.0451 28.8107C97.4442 28.9547 99.057 29.5163 99.8799 29.4567C100.703 29.397 101.69 29.0987 102.153 28.3828C102.266 28.2177 102.343 28.0308 102.38 27.8341C102.416 27.6375 102.411 27.4353 102.365 27.2406C102.32 27.0459 102.234 26.8629 102.113 26.7033C101.993 26.5436 101.84 26.4108 101.665 26.3134C100.59 25.7641 98.6703 26.7906 97.9091 27.5476C97.8433 27.6135 96.932 28.7634 96.9526 28.7819H96.9773C96.6728 28.9403 96.3478 29.1152 95.9981 29.3147C95.3521 29.685 94.628 30.1108 93.871 30.6251C93.0479 31.1719 92.2573 31.766 91.5032 32.4046C90.6567 33.1167 89.8747 33.9022 89.1663 34.7518L89.1416 34.7847C89.2753 34.4555 89.6127 33.5257 89.6312 33.4516C89.8842 32.4046 89.7567 30.2302 88.7261 29.6007C88.5516 29.5026 88.3586 29.4419 88.1594 29.4225C87.9601 29.4032 87.7591 29.4256 87.569 29.4883C87.3789 29.551 87.204 29.6527 87.0554 29.7868C86.9068 29.9209 86.7878 30.0845 86.7059 30.2672C86.3377 31.0366 86.6093 32.0507 86.9795 32.7646C87.391 33.573 88.942 34.7908 89.0655 34.8875C88.3668 35.7709 87.7271 36.6994 87.1503 37.6667C86.8129 38.2283 86.4899 38.8064 86.1731 39.3886C86.278 39.1006 86.3788 38.8434 86.3788 38.8043C86.6319 37.7572 86.5023 35.5849 85.4737 34.9554C85.2994 34.8572 85.1065 34.7965 84.9074 34.777C84.7082 34.7575 84.5072 34.7797 84.3171 34.8422C84.1271 34.9047 83.9521 35.0062 83.8034 35.1401C83.6548 35.274 83.5356 35.4374 83.4536 35.6199C83.0854 36.3892 83.3569 37.4034 83.7251 38.1193C84.0934 38.8352 85.3976 39.9111 85.7453 40.1888C85.6259 40.413 85.5046 40.6352 85.3853 40.8615C84.8175 41.9394 84.2559 43.0194 83.6717 44.0624C83.4659 44.4306 83.2499 44.7844 83.036 45.1403C83.1286 44.8852 83.2047 44.6692 83.2129 44.6343C83.4659 43.5872 83.3384 41.4128 82.3078 40.7833C82.1333 40.6852 81.9403 40.6245 81.7411 40.6052C81.5418 40.5858 81.3408 40.6082 81.1507 40.6709C80.9606 40.7336 80.7857 40.8353 80.6371 40.9694C80.4885 41.1035 80.3695 41.2671 80.2877 41.4498C79.9194 42.2192 80.191 43.2334 80.5612 43.9472C80.9315 44.661 82.1062 45.6361 82.5176 45.9673C82.2872 46.3252 82.0547 46.6832 81.8161 47.0185C81.6474 47.2427 81.4993 47.4731 81.3162 47.6891L80.7814 48.3659C80.4337 48.7774 80.0778 49.1888 79.7302 49.5652C79.4895 49.8327 79.255 50.0836 79.0205 50.3367C79.2262 49.9726 79.6232 49.2526 79.6499 49.1888C79.9749 48.2983 80.0677 47.3397 79.9194 46.4034C79.9595 46.3057 79.9905 46.2045 80.012 46.101C80.0596 45.9052 80.0657 45.7016 80.0297 45.5033C79.9937 45.3051 79.9165 45.1166 79.803 44.95C79.6896 44.7835 79.5425 44.6426 79.3712 44.5364C79.1999 44.4303 79.0082 44.3613 78.8086 44.3339C77.6072 44.2084 76.1857 45.8562 75.7496 46.8416C75.7229 46.8992 75.5151 47.5616 75.3896 47.9812C75.4246 47.7241 75.4636 47.4731 75.4966 47.2078C75.5665 46.6811 75.622 46.1566 75.6817 45.5888C75.7023 45.3152 75.7208 45.0375 75.7414 44.7659C75.7619 44.4944 75.7599 44.192 75.7702 43.9019C75.7805 43.2313 75.7578 42.5504 75.7187 41.8654C76.1795 41.925 77.817 42.1163 78.5987 41.8839C79.3805 41.6514 80.2897 41.1474 80.5901 40.3513C80.6652 40.1657 80.7008 39.9664 80.6946 39.7662C80.6884 39.566 80.6405 39.3693 80.554 39.1887C80.4674 39.008 80.3442 38.8474 80.192 38.7171C80.0399 38.5869 79.8623 38.4897 79.6705 38.432C78.5041 38.1255 76.8481 39.5387 76.2659 40.448C76.231 40.5035 75.8874 41.203 75.7064 41.5897C75.6797 41.1783 75.655 40.7668 75.6159 40.3554C75.5007 39.154 75.3485 37.9424 75.2045 36.7328C75.1592 36.3625 75.118 35.9922 75.0769 35.624C75.2394 35.6466 77.1814 35.914 78.0515 35.6569C78.823 35.4265 79.7425 34.9204 80.0408 34.1223C80.1176 33.9369 80.1545 33.7375 80.149 33.5369C80.1436 33.3364 80.0959 33.1392 80.0092 32.9583C79.9224 32.7774 79.7985 32.6168 79.6455 32.487C79.4925 32.3572 79.3139 32.2611 79.1212 32.205C77.9548 31.8985 76.2989 33.3118 75.7187 34.219C75.6735 34.2868 75.1818 35.2928 75.0687 35.5561C74.9761 34.7332 74.8918 33.9289 74.8403 33.1225C74.7623 32.0338 74.7554 30.9412 74.8198 29.8516C74.8959 29.864 76.9222 30.152 77.8108 29.8887C78.5823 29.6583 79.5018 29.1522 79.8001 28.354C79.8773 28.1689 79.9145 27.9695 79.9094 27.7689C79.9042 27.5684 79.8568 27.3712 79.7702 27.1902C79.6836 27.0093 79.5598 26.8486 79.4068 26.7188C79.2539 26.5889 79.0752 26.4929 78.8826 26.4368C77.7162 26.1282 76.0602 27.5435 75.478 28.4507C75.4328 28.5227 74.9041 29.6048 74.8218 29.8084C74.8218 29.7447 74.8218 29.6788 74.8218 29.6171C74.9183 28.5289 75.1117 27.4515 75.3999 26.3977C75.55 25.8135 75.729 25.2642 75.9121 24.7314C76.2845 24.824 77.9878 25.2292 78.8147 25.0791C79.6067 24.9371 80.5777 24.5339 80.9603 23.7728C81.0573 23.5972 81.1161 23.4032 81.1329 23.2034C81.1497 23.0035 81.1242 22.8024 81.058 22.6131C80.9918 22.4238 80.8864 22.2506 80.7487 22.1048C80.611 21.959 80.4441 21.844 80.2588 21.7671C79.1315 21.333 77.3315 22.557 76.6547 23.3943C76.6177 23.4416 76.2947 23.9456 76.0643 24.3179C76.1507 24.0793 76.2371 23.8304 76.3256 23.6041C76.6527 22.7524 77.0045 21.9934 77.3233 21.3227C77.5064 20.9422 77.6813 20.6027 77.8458 20.2942C78.2573 20.1954 79.9153 19.7737 80.5674 19.2656C81.2195 18.7575 81.8799 17.9696 81.8696 17.1179C81.8748 16.9178 81.8379 16.7188 81.7613 16.5338C81.6846 16.3489 81.5699 16.1821 81.4246 16.0444C81.2793 15.9066 81.1066 15.801 80.9179 15.7343C80.7291 15.6676 80.5284 15.6414 80.3288 15.6574C79.1295 15.7911 78.0947 17.7145 77.8787 18.7636C77.8602 18.8542 77.7368 20.3147 77.7574 20.3106H77.7821C77.6154 20.611 77.4426 20.9278 77.2595 21.296C76.9263 21.9604 76.556 22.7154 76.2083 23.5588C75.8238 24.4686 75.4927 25.4 75.2168 26.3483C74.9026 27.4089 74.683 28.4952 74.5606 29.5945C74.5616 29.6082 74.5616 29.622 74.5606 29.6356C74.4906 29.288 74.2602 28.3252 74.2335 28.2532C73.8673 27.2411 72.561 25.4987 71.3535 25.5419C71.1532 25.5546 70.9578 25.6093 70.7801 25.7025C70.6023 25.7957 70.4463 25.9254 70.322 26.083C70.1978 26.2406 70.1082 26.4227 70.0591 26.6173C70.0099 26.8119 70.0024 27.0146 70.0369 27.2123C70.1521 28.0558 70.9379 28.7511 71.6415 29.144C72.4335 29.5883 74.396 29.7611 74.5523 29.7611C74.4555 30.883 74.4342 32.0101 74.4886 33.1348C74.5174 33.789 74.5647 34.4494 74.6223 35.1097C74.5503 34.8114 74.4845 34.546 74.4721 34.509C74.1039 33.4969 72.7997 31.7545 71.5921 31.7977C71.3927 31.8122 71.1985 31.8681 71.0219 31.9618C70.8453 32.0555 70.6901 32.1849 70.5663 32.3418C70.4424 32.4988 70.3526 32.6798 70.3026 32.8733C70.2525 33.0669 70.2433 33.2687 70.2755 33.466C70.3928 34.3115 71.1786 35.0068 71.8801 35.3998C72.5816 35.7927 74.2643 35.9716 74.7066 36.0169C74.7313 36.2699 74.7519 36.523 74.7786 36.776C74.9 37.9897 75.0275 39.2014 75.1139 40.3924C75.1469 40.8039 75.1613 41.2276 75.1777 41.6411C75.1139 41.3778 75.0584 41.1556 75.0481 41.1227C74.6799 40.1086 73.3736 38.3662 72.1681 38.4094C71.9685 38.4238 71.7741 38.4798 71.5974 38.5736C71.4206 38.6674 71.2653 38.797 71.1414 38.9542C71.0175 39.1114 70.9278 39.2926 70.8779 39.4864C70.828 39.6802 70.819 39.8823 70.8515 40.0798C70.9688 40.9232 71.7546 41.6206 72.4561 42.0135C73.1576 42.4064 74.6778 42.5668 75.2024 42.6183C75.2024 43.042 75.2024 43.4679 75.2024 43.8814C75.1859 44.1632 75.19 44.4347 75.1571 44.7166C75.1242 44.9984 75.1057 45.272 75.081 45.5394C75.0111 46.066 74.9432 46.6091 74.863 47.1214C74.8115 47.4772 74.7539 47.8146 74.6984 48.1499C74.6716 47.7385 74.6038 46.9156 74.5894 46.8457C74.3836 45.7883 73.3551 43.869 72.1537 43.7291C71.954 43.7115 71.7529 43.7361 71.5633 43.8013C71.3738 43.8665 71.2001 43.971 71.0536 44.1078C70.9071 44.2446 70.791 44.4107 70.713 44.5954C70.6349 44.78 70.5966 44.979 70.6006 45.1794C70.5862 46.0311 71.2589 46.8395 71.8925 47.3332C72.5919 47.8784 74.431 48.3289 74.6593 48.3824C74.5585 48.9502 74.4598 49.4994 74.359 50.0116Z" fill="black"/>
<path d="M93.0028 31.2381C93.0172 31.2545 93.8669 30.0593 93.9121 29.9791C94.4326 29.0349 94.8831 26.8934 94.0561 26.0253C93.9147 25.883 93.745 25.7721 93.5579 25.6999C93.3708 25.6276 93.1706 25.5956 92.9703 25.6059C92.77 25.6162 92.5741 25.6685 92.3954 25.7596C92.2167 25.8506 92.0592 25.9783 91.9331 26.1343C91.3736 26.7782 91.3674 27.8273 91.534 28.6152C91.7295 29.5409 93.0028 31.236 93.0028 31.2381Z" fill="black"/>
</g>
<path d="M58.4819 33.8257L58.1548 37.8927C58.1057 38.505 57.8254 39.0757 57.371 39.489L56.4844 40.2933C55.9362 40.7902 55.6003 41.4789 55.5463 42.2168L54.7913 52.6197C54.7569 53.0884 54.8377 53.5584 55.0267 53.9887C55.2157 54.419 55.5071 54.7965 55.8755 55.0883C56.1846 55.3327 56.4291 55.6491 56.5876 56.0099C56.7462 56.3707 56.8138 56.7648 56.7847 57.1578L53.1168 107.611L100.82 111.086L106.168 37.292L58.4819 33.8257Z" fill="#FFD000"/>
<path d="M100.82 111.189L53.1085 107.72C53.0816 107.718 53.0565 107.706 53.0386 107.686C53.0297 107.676 53.0229 107.664 53.0186 107.651C53.0144 107.638 53.0128 107.625 53.0139 107.611L56.6838 57.1518C56.7109 56.7752 56.6456 56.3977 56.4936 56.0521C56.3416 55.7065 56.1075 55.4033 55.8116 55.1687C55.43 54.867 55.1281 54.4763 54.9323 54.0309C54.7365 53.5855 54.6527 53.099 54.6884 52.6138L55.4434 42.2108C55.4987 41.4462 55.8464 40.7323 56.4144 40.2174L57.301 39.4131C57.7366 39.0177 58.0051 38.4711 58.0518 37.8846L58.3789 33.8176C58.38 33.8041 58.3837 33.7909 58.3898 33.7788C58.396 33.7668 58.4045 33.756 58.4148 33.7472C58.4251 33.7384 58.4371 33.7318 58.45 33.7276C58.4629 33.7234 58.4765 33.7219 58.49 33.723L106.183 37.1914C106.21 37.1935 106.235 37.206 106.253 37.2263C106.271 37.2467 106.281 37.2732 106.28 37.3004L100.912 111.094C100.911 111.118 100.9 111.141 100.883 111.158C100.866 111.176 100.844 111.186 100.82 111.189ZM53.2258 107.523L100.715 110.977L106.063 37.3888L58.5764 33.9349L58.2576 37.9011C58.2067 38.5408 57.9121 39.1365 57.4347 39.5653L56.5481 40.3696C56.0198 40.8474 55.6963 41.5106 55.645 42.2211L54.89 52.624C54.8563 53.076 54.9339 53.5293 55.1161 53.9442C55.2983 54.3592 55.5795 54.7231 55.935 55.0042C56.2573 55.2591 56.5123 55.589 56.6776 55.9652C56.8429 56.3414 56.9136 56.7523 56.8834 57.1621L53.2258 107.523Z" fill="#263238"/>
<path d="M68.5876 35.3248L52.2173 35.4448L52.7239 104.561L69.0942 104.441L68.5876 35.3248Z" fill="white"/>
<path d="M52.7177 104.666C52.6904 104.666 52.6643 104.655 52.645 104.636C52.6257 104.616 52.6149 104.59 52.6149 104.563L52.1129 35.4429C52.1134 35.4158 52.1244 35.3899 52.1436 35.3707C52.1628 35.3515 52.1887 35.3405 52.2158 35.34L68.5865 35.2207C68.613 35.2238 68.638 35.2345 68.6585 35.2516C68.6777 35.2707 68.6888 35.2965 68.6894 35.3236L69.1913 104.444C69.1908 104.471 69.1798 104.497 69.1606 104.516C69.1414 104.535 69.1156 104.546 69.0885 104.546L52.7198 104.666H52.7177ZM52.3207 35.5457L52.8206 104.46L68.9835 104.343L68.4837 35.4285L52.3207 35.5457Z" fill="#263238"/>
<path d="M72.0254 36.236L55.6552 36.356L56.1618 105.472L72.5321 105.352L72.0254 36.236Z" fill="white"/>
<path d="M56.1552 105.577C56.1418 105.577 56.1285 105.575 56.116 105.57C56.1035 105.565 56.0922 105.557 56.0826 105.548C56.073 105.539 56.0654 105.527 56.0602 105.515C56.055 105.503 56.0524 105.489 56.0524 105.476L55.5504 36.356C55.5503 36.3291 55.5606 36.3033 55.5792 36.284C55.5888 36.274 55.6003 36.2662 55.613 36.2608C55.6258 36.2555 55.6395 36.2529 55.6533 36.2531L72.022 36.1338C72.0492 36.1338 72.0754 36.1446 72.0947 36.1639C72.114 36.1832 72.1248 36.2094 72.1248 36.2366L72.637 105.348C72.6373 105.376 72.627 105.402 72.6082 105.422C72.5884 105.442 72.5619 105.453 72.5342 105.453L56.1655 105.571L56.1552 105.577ZM55.7561 36.4568L56.256 105.371L72.421 105.254L71.9212 36.3395L55.7561 36.4568Z" fill="#263238"/>
<path d="M59.3912 33.8916L59.06 37.9586C59.0108 38.5709 58.7306 39.1416 58.2762 39.5549L57.3896 40.3593C56.8423 40.8577 56.5067 41.5466 56.4515 42.2847L55.7006 52.6857C55.6662 53.1544 55.747 53.6243 55.936 54.0546C56.125 54.4849 56.4164 54.8624 56.7848 55.1542C57.0937 55.3989 57.3383 55.7153 57.4971 56.0759C57.6559 56.4366 57.7242 56.8306 57.6961 57.2237L54.0261 107.683L101.719 111.152L107.086 37.3599L59.3912 33.8916Z" fill="#E8E3D3"/>
<path d="M101.719 111.254L54.0179 107.786C53.9909 107.784 53.9659 107.771 53.9479 107.751C53.9307 107.73 53.9218 107.704 53.9232 107.677L57.5932 57.2112C57.6205 56.8349 57.5552 56.4577 57.4032 56.1124C57.2512 55.7671 57.0169 55.4642 56.721 55.2302C56.3411 54.9292 56.0403 54.5402 55.8446 54.0968C55.6489 53.6534 55.5642 53.169 55.5978 52.6855L56.3548 42.2826C56.4087 41.518 56.7558 40.8039 57.3237 40.2892L58.2103 39.4848C58.6463 39.0906 58.915 38.5445 58.9612 37.9584L59.2883 33.8894C59.2893 33.8759 59.293 33.8627 59.2992 33.8506C59.3053 33.8385 59.3138 33.8278 59.3241 33.819C59.3344 33.8102 59.3464 33.8035 59.3593 33.7994C59.3722 33.7952 59.3858 33.7937 59.3994 33.7948L107.092 37.257C107.106 37.2577 107.119 37.2612 107.131 37.2671C107.143 37.273 107.154 37.2813 107.163 37.2914C107.172 37.3015 107.179 37.3133 107.183 37.3261C107.188 37.3389 107.19 37.3525 107.189 37.366L101.822 111.16C101.82 111.186 101.808 111.21 101.789 111.227C101.77 111.245 101.745 111.255 101.719 111.254ZM54.1372 107.589L101.624 111.043L106.973 37.4544L59.4858 34.0005L59.1669 37.9687C59.1155 38.6077 58.821 39.2026 58.344 39.6309L57.4574 40.4352C56.9307 40.9142 56.6075 41.5767 56.5543 42.2867L55.8035 52.6855C55.7697 53.1375 55.8474 53.5908 56.0296 54.0057C56.2118 54.4207 56.493 54.7846 56.8485 55.0656C57.1708 55.3206 57.4257 55.6505 57.591 56.0267C57.7563 56.4029 57.827 56.8138 57.7968 57.2236L54.1372 107.589Z" fill="#263238"/>
<path d="M52.4298 89.4079V84.9932C52.4304 84.3089 52.7026 83.6527 53.1867 83.169C53.6708 82.6853 54.3272 82.4136 55.0116 82.4136H30.6714C29.9867 82.4136 29.3301 82.6856 28.8459 83.1697C28.3617 83.6539 28.0897 84.3106 28.0897 84.9953V89.4079C28.0897 90.0926 28.3617 90.7492 28.8459 91.2334C29.3301 91.7176 29.9867 91.9896 30.6714 91.9896H55.0116C54.3268 91.9896 53.6702 91.7176 53.186 91.2334C52.7018 90.7492 52.4298 90.0926 52.4298 89.4079Z" fill="#FFD000"/>
<path d="M55.0115 92.0821H30.6714C29.9613 92.0788 29.2814 91.7946 28.7803 91.2916C28.2792 90.7885 27.9976 90.1076 27.9971 89.3975V84.9932C27.9981 84.2833 28.2799 83.6026 28.7809 83.0997C29.2819 82.5968 29.9615 82.3124 30.6714 82.3086H55.0115C55.0388 82.3086 55.0649 82.3194 55.0842 82.3387C55.1035 82.358 55.1143 82.3842 55.1143 82.4115C55.1143 82.4387 55.1035 82.4649 55.0842 82.4842C55.0649 82.5035 55.0388 82.5143 55.0115 82.5143C54.3544 82.5154 53.7245 82.7769 53.2599 83.2416C52.7952 83.7062 52.5337 84.3361 52.5326 84.9932V89.4078C52.5359 90.0633 52.7984 90.6908 53.2629 91.1534C53.7273 91.6159 54.356 91.8758 55.0115 91.8764C55.0388 91.8764 55.0649 91.8872 55.0842 91.9065C55.1035 91.9258 55.1143 91.9519 55.1143 91.9792C55.1143 92.0065 55.1035 92.0327 55.0842 92.0519C55.0649 92.0712 55.0388 92.0821 55.0115 92.0821ZM30.6714 82.5143C30.016 82.5181 29.3888 82.7808 28.9264 83.2452C28.464 83.7095 28.2039 84.3378 28.2028 84.9932V89.4078C28.2033 90.0633 28.4632 90.6919 28.9258 91.1564C29.3883 91.6209 30.0159 91.8834 30.6714 91.8866H53.9808C53.4932 91.6811 53.0769 91.3363 52.7842 90.8954C52.4915 90.4545 52.3353 89.937 52.3351 89.4078V84.9932C52.3353 84.4639 52.4915 83.9465 52.7842 83.5056C53.0769 83.0647 53.4932 82.7199 53.9808 82.5143H30.6714Z" fill="#263238"/>
<path d="M76.6856 82.7613L76.9777 82.5721C76.9927 82.5614 77.004 82.5463 77.01 82.5289C77.016 82.5115 77.0165 82.4926 77.0113 82.475C77.0061 82.4573 76.9955 82.4417 76.981 82.4303C76.9665 82.419 76.9488 82.4124 76.9304 82.4116H55.0115C54.3268 82.4116 53.6701 82.6836 53.186 83.1678C52.7018 83.652 52.4298 84.3086 52.4298 84.9933V89.408C52.4298 90.0927 52.7018 90.7493 53.186 91.2335C53.6701 91.7177 54.3268 91.9897 55.0115 91.9897H76.9304C76.9489 91.9896 76.9669 91.9835 76.9817 91.9724C76.9966 91.9613 77.0074 91.9458 77.0127 91.928C77.018 91.9103 77.0175 91.8913 77.0112 91.8739C77.0049 91.8564 76.9931 91.8415 76.9777 91.8313L76.6856 91.64V82.7613Z" fill="#949494"/>
<path d="M76.9303 92.0821H55.0115C54.3016 92.081 53.6209 91.7992 53.118 91.2982C52.6151 90.7972 52.3307 90.1177 52.3269 89.4078V84.9932C52.328 84.2815 52.6112 83.5993 53.1144 83.0961C53.6176 82.5929 54.2998 82.3097 55.0115 82.3086H76.9303C76.971 82.3087 77.0106 82.322 77.0432 82.3464C77.0757 82.3709 77.0996 82.4051 77.1111 82.4442C77.1227 82.4832 77.1213 82.5249 77.1073 82.5631C77.0932 82.6013 77.0673 82.634 77.0332 82.6563L76.7822 82.8249V91.5843L77.027 91.7447C77.0596 91.7668 77.0847 91.7984 77.0986 91.8352C77.1126 91.872 77.1149 91.9123 77.1052 91.9504C77.0935 91.9879 77.0704 92.0208 77.039 92.0445C77.0076 92.0681 76.9696 92.0813 76.9303 92.0821ZM55.0115 82.5143C54.3544 82.5154 53.7245 82.7769 53.2599 83.2416C52.7952 83.7062 52.5337 84.3361 52.5326 84.9932V89.4078C52.5359 90.0633 52.7984 90.6908 53.2629 91.1534C53.7273 91.6159 54.356 91.8758 55.0115 91.8764H76.8748L76.63 91.7159C76.6155 91.7066 76.6036 91.6938 76.5953 91.6787C76.5871 91.6637 76.5827 91.6467 76.5827 91.6295V82.7612C76.5831 82.744 76.5876 82.7272 76.5958 82.7122C76.604 82.6972 76.6158 82.6843 76.63 82.6748L76.8748 82.5143H55.0115Z" fill="#263238"/>
<path d="M55.7171 82.7612H76.6855V91.6316H55.7171C54.9723 91.6316 54.2581 91.3358 53.7315 90.8092C53.2049 90.2826 52.9091 89.5684 52.9091 88.8236V85.5692C52.9091 84.8245 53.2049 84.1103 53.7315 83.5837C54.2581 83.0571 54.9723 82.7612 55.7171 82.7612Z" fill="white"/>
<path d="M76.6856 91.7343H55.7171C54.9453 91.7338 54.2052 91.4269 53.6594 90.8811C53.1137 90.3354 52.8068 89.5953 52.8063 88.8235V85.5691C52.8068 84.7972 53.1137 84.0571 53.6594 83.5114C54.2052 82.9656 54.9453 82.6587 55.7171 82.6582H76.6856C76.7129 82.6582 76.739 82.669 76.7583 82.6883C76.7776 82.7076 76.7884 82.7338 76.7884 82.7611V91.6315C76.7884 91.6587 76.7776 91.6849 76.7583 91.7042C76.739 91.7235 76.7129 91.7343 76.6856 91.7343ZM55.7171 82.8639C55 82.865 54.3126 83.1504 53.8055 83.6574C53.2984 84.1645 53.0131 84.8519 53.012 85.5691V88.8235C53.0131 89.5406 53.2984 90.228 53.8055 90.7351C54.3126 91.2422 55 91.5275 55.7171 91.5286H76.5766V82.8639H55.7171Z" fill="#263238"/>
<path d="M62.2053 84.4972H53.6517C53.6244 84.4972 53.5982 84.4864 53.579 84.4671C53.5597 84.4478 53.5488 84.4216 53.5488 84.3944C53.5488 84.3671 53.5597 84.3409 53.579 84.3216C53.5982 84.3023 53.6244 84.2915 53.6517 84.2915H62.2053C62.2326 84.2915 62.2587 84.3023 62.278 84.3216C62.2973 84.3409 62.3081 84.3671 62.3081 84.3944C62.3081 84.4216 62.2973 84.4478 62.278 84.4671C62.2587 84.4864 62.2326 84.4972 62.2053 84.4972Z" fill="#263238"/>
<path d="M67.9365 85.3102H59.9589C59.9317 85.3102 59.9055 85.2994 59.8862 85.2801C59.8669 85.2608 59.8561 85.2346 59.8561 85.2073C59.8561 85.1801 59.8669 85.1539 59.8862 85.1346C59.9055 85.1153 59.9317 85.1045 59.9589 85.1045H67.9365C67.9638 85.1045 67.99 85.1153 68.0093 85.1346C68.0286 85.1539 68.0394 85.1801 68.0394 85.2073C68.0389 85.2345 68.0279 85.2603 68.0087 85.2795C67.9895 85.2987 67.9636 85.3097 67.9365 85.3102Z" fill="#263238"/>
<path d="M64.7849 86.3219H57.1406C57.1133 86.3219 57.0871 86.3111 57.0678 86.2918C57.0486 86.2725 57.0377 86.2463 57.0377 86.2191C57.0377 86.1918 57.0486 86.1656 57.0678 86.1463C57.0871 86.127 57.1133 86.1162 57.1406 86.1162H64.7849C64.812 86.1167 64.8379 86.1277 64.8571 86.1469C64.8763 86.1661 64.8873 86.192 64.8878 86.2191C64.8878 86.2463 64.8769 86.2725 64.8577 86.2918C64.8384 86.3111 64.8122 86.3219 64.7849 86.3219Z" fill="#263238"/>
<path d="M58.8605 89.3708H53.8431C53.816 89.3702 53.7901 89.3592 53.7709 89.34C53.7518 89.3209 53.7408 89.295 53.7402 89.2679C53.7402 89.2406 53.7511 89.2145 53.7704 89.1952C53.7897 89.1759 53.8158 89.165 53.8431 89.165H58.8605C58.8877 89.165 58.9139 89.1759 58.9332 89.1952C58.9525 89.2145 58.9633 89.2406 58.9633 89.2679C58.9633 89.2952 58.9525 89.3213 58.9332 89.3406C58.9139 89.3599 58.8877 89.3708 58.8605 89.3708Z" fill="#263238"/>
<path d="M65.0709 90.0866H57.5705C57.5432 90.0866 57.5171 90.0757 57.4978 90.0564C57.4785 90.0372 57.4677 90.011 57.4677 89.9837C57.4677 89.9564 57.4785 89.9303 57.4978 89.911C57.5171 89.8917 57.5432 89.8809 57.5705 89.8809H65.0709C65.0981 89.8809 65.1243 89.8917 65.1436 89.911C65.1629 89.9303 65.1737 89.9564 65.1737 89.9837C65.1737 90.011 65.1629 90.0372 65.1436 90.0564C65.1243 90.0757 65.0981 90.0866 65.0709 90.0866Z" fill="#263238"/>
<path d="M58.6794 90.755H56.6634C56.6361 90.755 56.61 90.7442 56.5907 90.7249C56.5714 90.7056 56.5605 90.6795 56.5605 90.6522C56.5605 90.6249 56.5714 90.5987 56.5907 90.5794C56.61 90.5602 56.6361 90.5493 56.6634 90.5493H58.6794C58.7067 90.5493 58.7328 90.5602 58.7521 90.5794C58.7714 90.5987 58.7823 90.6249 58.7823 90.6522C58.7823 90.6795 58.7714 90.7056 58.7521 90.7249C58.7328 90.7442 58.7067 90.755 58.6794 90.755Z" fill="#263238"/>
<path d="M75.0562 88.7023H62.302C62.2747 88.7023 62.2485 88.6915 62.2292 88.6722C62.2099 88.6529 62.1991 88.6267 62.1991 88.5994C62.1991 88.5722 62.2099 88.546 62.2292 88.5267C62.2485 88.5074 62.2747 88.4966 62.302 88.4966H75.0562C75.0835 88.4966 75.1097 88.5074 75.129 88.5267C75.1483 88.546 75.1591 88.5722 75.1591 88.5994C75.1591 88.6267 75.1483 88.6529 75.129 88.6722C75.1097 88.6915 75.0835 88.7023 75.0562 88.7023Z" fill="#263238"/>
<path d="M76.5374 86.6471H73.9022C73.8749 86.6471 73.8487 86.6363 73.8294 86.617C73.8102 86.5977 73.7993 86.5715 73.7993 86.5443C73.7993 86.517 73.8102 86.4908 73.8294 86.4715C73.8487 86.4522 73.8749 86.4414 73.9022 86.4414H76.5291C76.5564 86.4414 76.5826 86.4522 76.6019 86.4715C76.6212 86.4908 76.632 86.517 76.632 86.5443C76.632 86.5715 76.6212 86.5977 76.6019 86.617C76.5826 86.6363 76.5564 86.6471 76.5291 86.6471H76.5374Z" fill="#263238"/>
<path d="M76.1075 85.9787H73.4332C73.4061 85.9781 73.3802 85.9671 73.361 85.948C73.3419 85.9288 73.3308 85.9029 73.3303 85.8758C73.3303 85.8485 73.3412 85.8224 73.3604 85.8031C73.3797 85.7838 73.4059 85.7729 73.4332 85.7729H76.1075C76.1347 85.7729 76.1609 85.7838 76.1802 85.8031C76.1995 85.8224 76.2103 85.8485 76.2103 85.8758C76.2103 85.9031 76.1995 85.9293 76.1802 85.9485C76.1609 85.9678 76.1347 85.9787 76.1075 85.9787Z" fill="#263238"/>
<path d="M76.1075 90.278H69.4177C69.3904 90.278 69.3642 90.2671 69.3449 90.2478C69.3257 90.2286 69.3148 90.2024 69.3148 90.1751C69.3148 90.1478 69.3257 90.1217 69.3449 90.1024C69.3642 90.0831 69.3904 90.0723 69.4177 90.0723H76.1075C76.1348 90.0723 76.1609 90.0831 76.1802 90.1024C76.1995 90.1217 76.2104 90.1478 76.2104 90.1751C76.2104 90.2024 76.1995 90.2286 76.1802 90.2478C76.1609 90.2671 76.1348 90.278 76.1075 90.278Z" fill="#263238"/>
<path d="M60.3818 108.692V104.277C60.3818 103.939 60.3151 103.603 60.1854 103.29C60.0558 102.977 59.8658 102.693 59.6262 102.453C59.3867 102.214 59.1023 102.024 58.7893 101.894C58.4763 101.764 58.1409 101.698 57.8021 101.698H82.1443C82.829 101.698 83.4857 101.97 83.9698 102.454C84.454 102.938 84.726 103.595 84.726 104.279V108.692C84.7238 109.375 84.4509 110.03 83.9669 110.512C83.483 110.995 82.8276 111.266 82.1443 111.266H57.8021C58.4852 111.266 59.1404 110.995 59.624 110.512C60.1076 110.03 60.3801 109.375 60.3818 108.692Z" fill="#263238"/>
<path d="M82.1444 111.366H57.8022C57.7749 111.366 57.7488 111.355 57.7295 111.336C57.7102 111.317 57.6993 111.291 57.6993 111.263C57.6993 111.236 57.7102 111.21 57.7295 111.191C57.7488 111.171 57.7749 111.161 57.8022 111.161C58.4578 111.158 59.0857 110.895 59.5484 110.431C60.011 109.966 60.2708 109.337 60.2708 108.682V104.277C60.2702 103.622 60.0103 102.993 59.5478 102.529C59.0852 102.064 58.4577 101.802 57.8022 101.798C57.7749 101.798 57.7488 101.788 57.7295 101.768C57.7102 101.749 57.6993 101.723 57.6993 101.696C57.6993 101.668 57.7102 101.642 57.7295 101.623C57.7488 101.604 57.7749 101.593 57.8022 101.593H82.1444C82.8542 101.597 83.5338 101.881 84.0348 102.384C84.5358 102.887 84.8176 103.567 84.8187 104.277V108.692C84.8149 109.4 84.5319 110.078 84.0312 110.579C83.5305 111.08 82.8525 111.362 82.1444 111.366ZM58.8328 111.161H82.1444C82.7981 111.157 83.4241 110.896 83.8863 110.434C84.3486 109.972 84.6097 109.346 84.6129 108.692V104.277C84.6119 103.622 84.3518 102.994 83.8893 102.529C83.4269 102.065 82.7997 101.802 82.1444 101.798H58.8308C59.3186 102.004 59.735 102.349 60.0278 102.79C60.3205 103.23 60.4766 103.748 60.4765 104.277V108.692C60.4746 109.22 60.3176 109.735 60.0249 110.174C59.7323 110.613 59.317 110.956 58.8308 111.161H58.8328Z" fill="#263238"/>
<path d="M36.1261 102.046L35.836 101.856C35.8196 101.846 35.8069 101.831 35.8 101.814C35.793 101.796 35.7922 101.776 35.7976 101.758C35.803 101.739 35.8144 101.723 35.8299 101.712C35.8454 101.701 35.8642 101.695 35.8834 101.696H57.8022C58.1412 101.696 58.4768 101.763 58.7899 101.892C59.103 102.022 59.3875 102.212 59.627 102.452C59.8666 102.692 60.0566 102.977 60.1861 103.29C60.3156 103.603 60.3821 103.939 60.3819 104.278V108.692C60.3821 109.031 60.3156 109.367 60.1861 109.68C60.0566 109.993 59.8666 110.278 59.627 110.518C59.3875 110.757 59.103 110.948 58.7899 111.077C58.4768 111.207 58.1412 111.274 57.8022 111.274H35.8834C35.8648 111.274 35.8468 111.268 35.832 111.257C35.8172 111.246 35.8063 111.23 35.801 111.212C35.7957 111.194 35.7963 111.176 35.8026 111.158C35.8089 111.141 35.8206 111.126 35.836 111.116L36.1261 110.924V102.046Z" fill="#949494"/>
<path d="M57.8022 111.366H35.8834C35.8427 111.366 35.8031 111.353 35.7705 111.328C35.738 111.304 35.7141 111.269 35.7026 111.23C35.6911 111.191 35.6924 111.15 35.7064 111.112C35.7205 111.073 35.7464 111.041 35.7805 111.018L36.0233 110.858V102.109L35.7805 101.948C35.7472 101.927 35.7216 101.895 35.7075 101.858C35.6935 101.821 35.6916 101.781 35.7023 101.743C35.7139 101.704 35.7377 101.669 35.7703 101.645C35.8029 101.62 35.8426 101.607 35.8834 101.607H57.8022C58.5123 101.61 59.1921 101.894 59.6933 102.397C60.1944 102.9 60.476 103.581 60.4765 104.292V108.692C60.4733 109.4 60.1905 110.078 59.6896 110.579C59.1888 111.08 58.5105 111.363 57.8022 111.366ZM35.9389 111.16H57.8022C58.4579 111.158 59.0857 110.895 59.5484 110.431C60.0111 109.966 60.2708 109.337 60.2708 108.681V104.277C60.2703 103.622 60.0103 102.993 59.5478 102.529C59.0853 102.064 58.4577 101.802 57.8022 101.798H35.9389L36.1837 101.959C36.1977 101.968 36.2091 101.981 36.217 101.996C36.2249 102.011 36.229 102.028 36.229 102.045V110.916C36.2292 110.933 36.2251 110.949 36.2172 110.964C36.2093 110.979 36.1978 110.992 36.1837 111.002L35.9389 111.16Z" fill="#263238"/>
<path d="M56.7264 110.918H36.1261V102.048H56.7264C57.5693 102.048 58.3777 102.382 58.9738 102.978C59.5698 103.575 59.9047 104.383 59.9047 105.226V107.74C59.9047 108.583 59.5698 109.391 58.9738 109.987C58.3777 110.583 57.5693 110.918 56.7264 110.918Z" fill="white"/>
<path d="M56.7264 111.018H36.1262C36.0989 111.018 36.0727 111.008 36.0534 110.988C36.0342 110.969 36.0233 110.943 36.0233 110.916V102.045C36.0238 102.018 36.0348 101.992 36.054 101.973C36.0732 101.954 36.0991 101.943 36.1262 101.942H56.7264C57.5958 101.945 58.4288 102.292 59.0435 102.906C59.6583 103.521 60.0048 104.354 60.0075 105.224V107.737C60.0048 108.607 59.6583 109.44 59.0435 110.054C58.4288 110.669 57.5958 111.016 56.7264 111.018ZM36.229 110.813H56.7264C57.5412 110.81 58.3219 110.485 58.8981 109.909C59.4742 109.333 59.7991 108.552 59.8018 107.737V105.224C59.7991 104.409 59.4742 103.628 58.8981 103.052C58.3219 102.476 57.5412 102.151 56.7264 102.148H36.229V110.813Z" fill="#263238"/>
<path d="M59.1599 103.781H50.6084C50.5811 103.781 50.5549 103.771 50.5356 103.751C50.5163 103.732 50.5055 103.706 50.5055 103.679C50.5055 103.651 50.5163 103.625 50.5356 103.606C50.5549 103.587 50.5811 103.576 50.6084 103.576H59.1599C59.1872 103.576 59.2133 103.587 59.2326 103.606C59.2519 103.625 59.2628 103.651 59.2628 103.679C59.2628 103.706 59.2519 103.732 59.2326 103.751C59.2133 103.771 59.1872 103.781 59.1599 103.781Z" fill="#263238"/>
<path d="M52.8547 104.594H44.8751C44.848 104.594 44.8221 104.583 44.8029 104.564C44.7837 104.545 44.7727 104.519 44.7722 104.492C44.7722 104.464 44.7831 104.438 44.8023 104.419C44.8216 104.4 44.8478 104.389 44.8751 104.389H52.8547C52.882 104.389 52.9082 104.4 52.9275 104.419C52.9468 104.438 52.9576 104.464 52.9576 104.492C52.9571 104.519 52.9461 104.545 52.9269 104.564C52.9077 104.583 52.8818 104.594 52.8547 104.594Z" fill="#263238"/>
<path d="M55.6731 105.606H48.0288C48.0015 105.606 47.9753 105.595 47.956 105.576C47.9367 105.557 47.9259 105.531 47.9259 105.503C47.9259 105.476 47.9367 105.45 47.956 105.431C47.9753 105.411 48.0015 105.4 48.0288 105.4H55.6731C55.7004 105.4 55.7265 105.411 55.7458 105.431C55.7651 105.45 55.776 105.476 55.776 105.503C55.776 105.531 55.7651 105.557 55.7458 105.576C55.7265 105.595 55.7004 105.606 55.6731 105.606Z" fill="#263238"/>
<path d="M58.9686 108.655H53.9615C53.9342 108.655 53.9081 108.644 53.8888 108.625C53.8695 108.606 53.8586 108.579 53.8586 108.552C53.8586 108.525 53.8695 108.499 53.8888 108.479C53.9081 108.46 53.9342 108.449 53.9615 108.449H58.9768C59.0041 108.449 59.0303 108.46 59.0495 108.479C59.0688 108.499 59.0797 108.525 59.0797 108.552C59.0797 108.566 59.0768 108.58 59.0711 108.593C59.0655 108.606 59.0571 108.618 59.0467 108.628C59.0363 108.638 59.0239 108.645 59.0105 108.65C58.997 108.654 58.9828 108.656 58.9686 108.655Z" fill="#263238"/>
<path d="M55.2431 109.371H47.7427C47.7155 109.371 47.6893 109.36 47.67 109.341C47.6507 109.321 47.6399 109.295 47.6399 109.268C47.6399 109.241 47.6507 109.214 47.67 109.195C47.6893 109.176 47.7155 109.165 47.7427 109.165H55.2431C55.2704 109.165 55.2965 109.176 55.3158 109.195C55.3351 109.214 55.3459 109.241 55.3459 109.268C55.3459 109.295 55.3351 109.321 55.3158 109.341C55.2965 109.36 55.2704 109.371 55.2431 109.371Z" fill="#263238"/>
<path d="M56.1503 110.039H54.1446C54.1173 110.039 54.0912 110.028 54.0719 110.009C54.0526 109.99 54.0417 109.964 54.0417 109.936C54.0417 109.909 54.0526 109.883 54.0719 109.864C54.0912 109.844 54.1173 109.833 54.1446 109.833H56.1503C56.1776 109.833 56.2038 109.844 56.2231 109.864C56.2423 109.883 56.2532 109.909 56.2532 109.936C56.2532 109.964 56.2423 109.99 56.2231 110.009C56.2038 110.028 56.1776 110.039 56.1503 110.039Z" fill="#263238"/>
<path d="M50.5138 107.986H37.7595C37.7322 107.986 37.706 107.976 37.6867 107.956C37.6675 107.937 37.6566 107.911 37.6566 107.884C37.6566 107.856 37.6675 107.83 37.6867 107.811C37.706 107.792 37.7322 107.781 37.7595 107.781H50.5138C50.541 107.781 50.5672 107.792 50.5865 107.811C50.6058 107.83 50.6166 107.856 50.6166 107.884C50.6161 107.911 50.6051 107.937 50.5859 107.956C50.5667 107.975 50.5409 107.986 50.5138 107.986Z" fill="#263238"/>
<path d="M38.9032 105.931H36.2701C36.2428 105.931 36.2167 105.92 36.1974 105.901C36.1781 105.882 36.1672 105.856 36.1672 105.828C36.1672 105.801 36.1781 105.775 36.1974 105.756C36.2167 105.736 36.2428 105.726 36.2701 105.726H38.9032C38.9305 105.726 38.9567 105.736 38.976 105.756C38.9953 105.775 39.0061 105.801 39.0061 105.828C39.0061 105.856 38.9953 105.882 38.976 105.901C38.9567 105.92 38.9305 105.931 38.9032 105.931Z" fill="#263238"/>
<path d="M39.3805 105.263H36.7063C36.679 105.263 36.6528 105.252 36.6335 105.233C36.6142 105.213 36.6034 105.187 36.6034 105.16C36.6034 105.133 36.6142 105.107 36.6335 105.087C36.6528 105.068 36.679 105.057 36.7063 105.057H39.3805C39.4078 105.057 39.434 105.068 39.4533 105.087C39.4726 105.107 39.4834 105.133 39.4834 105.16C39.4834 105.187 39.4726 105.213 39.4533 105.233C39.434 105.252 39.4078 105.263 39.3805 105.263Z" fill="#263238"/>
<path d="M43.394 109.562H36.7063C36.679 109.562 36.6528 109.551 36.6335 109.532C36.6142 109.513 36.6034 109.487 36.6034 109.459C36.6034 109.432 36.6142 109.406 36.6335 109.387C36.6528 109.367 36.679 109.356 36.7063 109.356H43.394C43.4213 109.356 43.4475 109.367 43.4668 109.387C43.486 109.406 43.4969 109.432 43.4969 109.459C43.4969 109.487 43.486 109.513 43.4668 109.532C43.4475 109.551 43.4213 109.562 43.394 109.562Z" fill="#263238"/>
<path d="M41.1662 99.0687V94.6623C41.1662 93.9776 40.8942 93.3209 40.41 92.8367C39.9259 92.3526 39.2692 92.0806 38.5845 92.0806H62.9246C63.6093 92.0806 64.266 92.3526 64.7501 92.8367C65.2343 93.3209 65.5063 93.9776 65.5063 94.6623V99.0687C65.5063 99.7534 65.2343 100.41 64.7501 100.894C64.266 101.378 63.6093 101.65 62.9246 101.65H38.5845C39.2692 101.65 39.9259 101.378 40.41 100.894C40.8942 100.41 41.1662 99.7534 41.1662 99.0687Z" fill="#8C8C8C"/>
<path d="M62.9245 101.753H38.5844C38.5571 101.753 38.531 101.742 38.5117 101.723C38.4924 101.704 38.4816 101.678 38.4816 101.65C38.4816 101.623 38.4924 101.597 38.5117 101.577C38.531 101.558 38.5571 101.547 38.5844 101.547C39.2399 101.547 39.8686 101.287 40.333 100.824C40.7975 100.362 41.06 99.7343 41.0633 99.0788V94.6621C41.0622 94.005 40.8007 93.3751 40.336 92.9105C39.8714 92.4459 39.2415 92.1843 38.5844 92.1833C38.5571 92.1833 38.531 92.1724 38.5117 92.1531C38.4924 92.1338 38.4816 92.1077 38.4816 92.0804C38.4816 92.0531 38.4924 92.027 38.5117 92.0077C38.531 91.9884 38.5571 91.9775 38.5844 91.9775H62.9245C63.6362 91.9786 64.3184 92.2618 64.8216 92.765C65.3248 93.2683 65.608 93.9505 65.6091 94.6621V99.0685C65.6086 99.7803 65.3256 100.463 64.8222 100.966C64.3189 101.47 63.6364 101.753 62.9245 101.753ZM39.6151 101.547H62.9245C63.58 101.547 64.2087 101.287 64.6731 100.824C65.1376 100.362 65.4001 99.7343 65.4034 99.0788V94.6621C65.4023 94.005 65.1408 93.3751 64.6762 92.9105C64.2115 92.4459 63.5816 92.1843 62.9245 92.1833H39.6151C40.1027 92.3888 40.519 92.7336 40.8117 93.1745C41.1044 93.6154 41.2606 94.1329 41.2608 94.6621V99.0685C41.2606 99.5978 41.1044 100.115 40.8117 100.556C40.519 100.997 40.1027 101.342 39.6151 101.547Z" fill="#263238"/>
<path d="M16.9103 92.4403L16.6182 92.2346C16.6028 92.2243 16.5911 92.2094 16.5848 92.192C16.5784 92.1746 16.5779 92.1556 16.5832 92.1378C16.5885 92.1201 16.5994 92.1045 16.6142 92.0934C16.629 92.0823 16.647 92.0763 16.6655 92.0762H38.5844C38.9238 92.0762 39.2598 92.1431 39.5733 92.2731C39.8868 92.4031 40.1716 92.5936 40.4114 92.8338C40.6512 93.074 40.8413 93.3591 40.9708 93.6728C41.1003 93.9865 41.1667 94.3226 41.1661 94.662V99.0684C41.1661 99.7531 40.8941 100.41 40.41 100.894C39.9258 101.378 39.2691 101.65 38.5844 101.65H16.6655C16.647 101.65 16.629 101.644 16.6142 101.633C16.5994 101.622 16.5885 101.606 16.5832 101.588C16.5779 101.571 16.5784 101.552 16.5848 101.534C16.5911 101.517 16.6028 101.502 16.6182 101.492L16.9103 101.3V92.4403Z" fill="#949494"/>
<path d="M38.5844 101.753H16.6656C16.6247 101.753 16.5849 101.74 16.5522 101.716C16.5196 101.691 16.4958 101.657 16.4846 101.617C16.4748 101.579 16.4771 101.539 16.4911 101.502C16.5051 101.465 16.5301 101.434 16.5627 101.412L16.8075 101.251V92.4857L16.5627 92.3252C16.5287 92.3029 16.5027 92.2703 16.4887 92.2321C16.4746 92.1938 16.4733 92.1521 16.4848 92.1131C16.4964 92.0741 16.5202 92.0398 16.5528 92.0154C16.5853 91.991 16.6249 91.9777 16.6656 91.9775H38.5844C39.2961 91.9786 39.9783 92.2618 40.4815 92.765C40.9847 93.2683 41.2679 93.9504 41.269 94.6621V99.0685C41.2679 99.7802 40.9847 100.462 40.4815 100.966C39.9783 101.469 39.2961 101.752 38.5844 101.753ZM16.7273 101.547H38.5844C39.2399 101.547 39.8686 101.287 40.333 100.824C40.7975 100.362 41.06 99.7343 41.0633 99.0788V94.6621C41.0622 94.005 40.8007 93.3751 40.3361 92.9105C39.8714 92.4459 39.2415 92.1843 38.5844 92.1833H16.7273L16.9721 92.3437C16.9863 92.3533 16.9981 92.3661 17.0063 92.3811C17.0145 92.3962 17.019 92.413 17.0194 92.4301V101.301C17.0194 101.318 17.015 101.335 17.0068 101.35C16.9985 101.365 16.9866 101.378 16.9721 101.387L16.7273 101.547Z" fill="#263238"/>
<path d="M37.7308 101.29H16.9104V92.4196H37.7308C38.1198 92.4196 38.5051 92.4964 38.8644 92.6456C39.2237 92.7948 39.5501 93.0135 39.8247 93.2891C40.0993 93.5647 40.3169 93.8918 40.4648 94.2516C40.6128 94.6115 40.6882 94.997 40.6869 95.386V98.3442C40.6842 99.1264 40.3715 99.8757 39.8174 100.428C39.2633 100.98 38.513 101.29 37.7308 101.29Z" fill="white"/>
<path d="M37.7307 101.403H16.9104C16.8831 101.403 16.8569 101.392 16.8376 101.373C16.8183 101.354 16.8075 101.328 16.8075 101.3V92.4403C16.8075 92.413 16.8183 92.3868 16.8376 92.3675C16.8569 92.3482 16.8831 92.3374 16.9104 92.3374H37.7307C38.5409 92.3368 39.3184 92.6574 39.8929 93.2287C40.4674 93.8001 40.792 94.5759 40.7958 95.3861V98.3443C40.7948 99.1563 40.4713 99.9346 39.8965 100.508C39.3217 101.082 38.5427 101.404 37.7307 101.403ZM17.0132 101.198H37.7307C38.1058 101.198 38.4774 101.125 38.8242 100.982C39.1709 100.838 39.4861 100.628 39.7516 100.363C40.0172 100.098 40.2279 99.7837 40.3718 99.4373C40.5157 99.0908 40.5899 98.7194 40.5901 98.3443V95.3861C40.5896 94.6295 40.2888 93.9041 39.7538 93.3691C39.2189 92.8342 38.4934 92.5334 37.7369 92.5328H17.0132V101.198Z" fill="#263238"/>
<path d="M39.9442 94.1662H31.3906C31.3635 94.1656 31.3376 94.1546 31.3184 94.1354C31.2993 94.1163 31.2882 94.0904 31.2877 94.0633C31.2877 94.036 31.2986 94.0099 31.3178 93.9906C31.3371 93.9713 31.3633 93.9604 31.3906 93.9604H39.9442C39.9715 93.9604 39.9976 93.9713 40.0169 93.9906C40.0362 94.0099 40.047 94.036 40.047 94.0633C40.0465 94.0904 40.0355 94.1163 40.0163 94.1354C39.9971 94.1546 39.9713 94.1656 39.9442 94.1662Z" fill="#263238"/>
<path d="M33.637 94.9787H25.6594C25.6321 94.9787 25.6059 94.9678 25.5866 94.9485C25.5674 94.9292 25.5565 94.9031 25.5565 94.8758C25.5565 94.8485 25.5674 94.8224 25.5866 94.8031C25.6059 94.7838 25.6321 94.7729 25.6594 94.7729H33.637C33.6643 94.7729 33.6904 94.7838 33.7097 94.8031C33.729 94.8224 33.7398 94.8485 33.7398 94.8758C33.7398 94.9031 33.729 94.9292 33.7097 94.9485C33.6904 94.9678 33.6643 94.9787 33.637 94.9787Z" fill="#263238"/>
<path d="M36.4553 95.9806H28.811C28.7837 95.9806 28.7575 95.9698 28.7383 95.9505C28.719 95.9312 28.7081 95.905 28.7081 95.8778C28.7087 95.8506 28.7197 95.8248 28.7388 95.8056C28.758 95.7864 28.7839 95.7754 28.811 95.7749H36.4553C36.4826 95.7749 36.5088 95.7857 36.5281 95.805C36.5474 95.8243 36.5582 95.8505 36.5582 95.8778C36.5582 95.905 36.5474 95.9312 36.5281 95.9505C36.5088 95.9698 36.4826 95.9806 36.4553 95.9806Z" fill="#263238"/>
<path d="M39.7529 99.0397H34.7355C34.7083 99.0397 34.6821 99.0289 34.6628 99.0096C34.6435 98.9903 34.6327 98.9641 34.6327 98.9368C34.6327 98.9096 34.6435 98.8834 34.6628 98.8641C34.6821 98.8448 34.7083 98.834 34.7355 98.834H39.7529C39.7802 98.834 39.8064 98.8448 39.8257 98.8641C39.8449 98.8834 39.8558 98.9096 39.8558 98.9368C39.8553 98.964 39.8442 98.9898 39.8251 99.009C39.8059 99.0282 39.78 99.0392 39.7529 99.0397Z" fill="#263238"/>
<path d="M36.0253 99.7555H28.525C28.4977 99.7555 28.4715 99.7447 28.4522 99.7254C28.433 99.7061 28.4221 99.6799 28.4221 99.6527C28.4221 99.6254 28.433 99.5992 28.4522 99.5799C28.4715 99.5606 28.4977 99.5498 28.525 99.5498H36.0253C36.0526 99.5498 36.0788 99.5606 36.0981 99.5799C36.1173 99.5992 36.1282 99.6254 36.1282 99.6527C36.1282 99.6799 36.1173 99.7061 36.0981 99.7254C36.0788 99.7447 36.0526 99.7555 36.0253 99.7555Z" fill="#263238"/>
<path d="M36.9325 100.424H34.9268C34.8996 100.424 34.8734 100.413 34.8541 100.394C34.8348 100.375 34.824 100.348 34.824 100.321C34.824 100.294 34.8348 100.268 34.8541 100.248C34.8734 100.229 34.8996 100.218 34.9268 100.218H36.9325C36.9598 100.218 36.986 100.229 37.0053 100.248C37.0246 100.268 37.0354 100.294 37.0354 100.321C37.0354 100.348 37.0246 100.375 37.0053 100.394C36.986 100.413 36.9598 100.424 36.9325 100.424Z" fill="#263238"/>
<path d="M31.296 98.3712H18.5417C18.5144 98.3712 18.4883 98.3604 18.469 98.3411C18.4497 98.3218 18.4388 98.2957 18.4388 98.2684C18.4388 98.2411 18.4497 98.2149 18.469 98.1957C18.4883 98.1764 18.5144 98.1655 18.5417 98.1655H31.296C31.3233 98.1655 31.3494 98.1764 31.3687 98.1957C31.388 98.2149 31.3988 98.2411 31.3988 98.2684C31.3988 98.2957 31.388 98.3218 31.3687 98.3411C31.3494 98.3604 31.3233 98.3712 31.296 98.3712Z" fill="#263238"/>
<path d="M19.6855 96.3161H17.0585C17.0313 96.3161 17.0051 96.3052 16.9858 96.2859C16.9665 96.2666 16.9557 96.2405 16.9557 96.2132C16.9557 96.1859 16.9665 96.1598 16.9858 96.1405C17.0051 96.1212 17.0313 96.1104 17.0585 96.1104H19.6855C19.7128 96.1104 19.739 96.1212 19.7582 96.1405C19.7775 96.1598 19.7884 96.1859 19.7884 96.2132C19.7884 96.2405 19.7775 96.2666 19.7582 96.2859C19.739 96.3052 19.7128 96.3161 19.6855 96.3161Z" fill="#263238"/>
<path d="M20.1648 95.6476H17.4906C17.4633 95.6476 17.4371 95.6368 17.4178 95.6175C17.3985 95.5982 17.3877 95.572 17.3877 95.5448C17.3877 95.5175 17.3985 95.4913 17.4178 95.472C17.4371 95.4527 17.4633 95.4419 17.4906 95.4419H20.1648C20.1783 95.4419 20.1917 95.4446 20.2042 95.4497C20.2167 95.4549 20.228 95.4625 20.2376 95.472C20.2471 95.4816 20.2547 95.4929 20.2599 95.5054C20.265 95.5179 20.2677 95.5312 20.2677 95.5448C20.2672 95.5719 20.2562 95.5977 20.237 95.6169C20.2178 95.6361 20.192 95.6471 20.1648 95.6476Z" fill="#263238"/>
<path d="M24.1783 99.9469H17.4885C17.4612 99.9469 17.435 99.9361 17.4157 99.9168C17.3965 99.8975 17.3856 99.8713 17.3856 99.8441C17.3856 99.8168 17.3965 99.7906 17.4157 99.7713C17.435 99.752 17.4612 99.7412 17.4885 99.7412H24.1783C24.2056 99.7412 24.2317 99.752 24.251 99.7713C24.2703 99.7906 24.2812 99.8168 24.2812 99.8441C24.2812 99.8713 24.2703 99.8975 24.251 99.9168C24.2317 99.9361 24.2056 99.9469 24.1783 99.9469Z" fill="#263238"/>
<path d="M20.9774 106.748L22.944 104.781L24.9045 106.748V95.5386H20.9774V106.748Z" fill="#263238"/>
<path d="M24.9044 106.851C24.8909 106.851 24.8776 106.848 24.8652 106.843C24.8528 106.838 24.8416 106.83 24.8324 106.82L22.944 104.927L21.0473 106.82C21.0324 106.834 21.0139 106.843 20.9939 106.847C20.9739 106.851 20.9532 106.85 20.9341 106.842C20.9155 106.834 20.8996 106.821 20.8883 106.805C20.8769 106.788 20.8707 106.768 20.8704 106.748V95.5384C20.8704 95.5111 20.8812 95.485 20.9005 95.4657C20.9198 95.4464 20.9459 95.4355 20.9732 95.4355H24.9044C24.9317 95.4355 24.9579 95.4464 24.9772 95.4657C24.9964 95.485 25.0073 95.5111 25.0073 95.5384V106.748C25.0072 106.768 25.0011 106.788 24.9897 106.805C24.9784 106.822 24.9623 106.835 24.9435 106.842C24.931 106.847 24.9178 106.85 24.9044 106.851ZM21.0802 95.6413V106.499L22.8699 104.709C22.89 104.69 22.9163 104.679 22.944 104.678C22.971 104.679 22.9968 104.69 23.016 104.709L24.8016 106.499V95.6413H21.0802Z" fill="#263238"/>
</g>
<defs>
<clipPath id="clip0_896_26185">
<rect width="120" height="120" fill="white" transform="translate(0.5)"/>
</clipPath>
</defs>
</svg>
