<svg width="210" height="210" viewBox="0 0 210 210" fill="none" xmlns="http://www.w3.org/2000/svg">
<g clip-path="url(#clip0_171_21027)">
<path opacity="0.5" d="M209 190.346C209 190.405 142.998 190.221 67.6147 190.221C-7.76813 190.221 -0.226354 190.405 -0.226354 190.346C-0.226354 190.287 -7.79653 190 67.6147 190C143.026 190 209 190.282 209 190.346Z" fill="#263238"/>
<path d="M183.336 112.688C181.561 127.736 174.696 145.235 160.965 153.27C140.233 165.42 141.968 184.101 101.497 192.222C95.594 193.435 89.5767 194.004 83.551 193.918C80.6036 193.863 77.6625 193.623 74.7454 193.198C49.0234 189.443 31.7146 171.566 25.3642 149.98C17.0086 121.598 33.6946 103 44.7538 91.8184C55.813 80.6368 63.9166 45.7384 103.639 37.4584C109.698 36.1582 115.886 35.5615 122.082 35.68C136.215 36.04 151.631 40.6696 162.297 50.3536C163.097 51.0736 163.877 51.8272 164.637 52.6144C179.462 67.8388 185.762 92.1712 183.336 112.688Z" fill="#FFC100"/>
<path opacity="0.7" d="M183.336 112.688C181.561 127.736 174.696 145.235 160.965 153.27C140.233 165.42 141.968 184.101 101.497 192.222C95.594 193.435 89.5767 194.004 83.551 193.918C80.6036 193.863 77.6625 193.623 74.7454 193.198C49.0234 189.443 31.7146 171.566 25.3642 149.98C17.0086 121.598 33.6946 103 44.7538 91.8184C55.813 80.6368 63.9166 45.7384 103.639 37.4584C109.698 36.1582 115.886 35.5615 122.082 35.68C136.215 36.04 151.631 40.6696 162.297 50.3536C163.097 51.0736 163.877 51.8272 164.637 52.6144C179.462 67.8388 185.762 92.1712 183.336 112.688Z" fill="white"/>
<g opacity="0.15">
<path d="M89.5199 108.083C88.1015 109.48 83.8931 110.963 83.8895 110.963C83.8859 110.963 83.7419 107.892 83.7599 107.694C83.9399 105.43 85.6247 101.164 88.1015 100.581C89.9015 100.163 91.4783 101.499 91.7015 103.241C91.9247 104.984 90.7367 106.892 89.5199 108.083Z" fill="black"/>
<path d="M87 164.708C87.018 164.808 87.0396 164.902 87.0576 165.003L85.7364 166.223C85.6644 165.816 85.5888 165.402 85.5168 164.978C85.308 163.772 85.11 162.479 84.9156 161.147C83.6343 161.129 82.3552 161.034 81.0852 160.863C80.3652 162.645 77.8452 165.381 77.5176 165.73C78.3384 166.612 79.1484 167.458 79.926 168.25C80.4588 168.794 80.9736 169.312 81.4776 169.809L79.9008 170.414C79.5408 170.054 79.1988 169.694 78.8388 169.294C78 168.405 77.118 167.436 76.2252 166.432C75.8148 166.698 72.4416 168.84 70.5912 169.107C68.91 169.348 66.7032 169.19 65.4288 167.926C64.1544 166.662 64.0788 164.614 65.4936 163.448C67.4556 161.831 71.8728 163.088 73.7736 164.297C73.8852 164.369 75.0228 165.291 75.732 165.885C75.372 165.471 75.012 165.075 74.652 164.646C73.932 163.804 73.212 162.944 72.4452 162.018C72.0924 161.558 71.7324 161.093 71.3652 160.625C71.0052 160.168 70.6704 159.639 70.314 159.142C69.5148 157.972 68.7624 156.752 68.0352 155.502C67.2936 156.143 64.6368 158.382 62.9952 158.876C61.3536 159.369 59.1684 159.549 57.714 158.494C56.2596 157.439 55.878 155.423 57.0984 154.055C58.794 152.158 63.348 152.72 65.4252 153.638C65.5548 153.695 66.9696 154.527 67.74 154.995C67.3044 154.242 66.8688 153.49 66.4548 152.712C65.2632 150.47 64.1256 148.162 62.9772 145.872C62.6172 145.17 62.2572 144.472 61.8972 143.774C61.6344 144.004 58.5348 146.733 56.7096 147.291C55.086 147.784 52.8792 147.96 51.4284 146.906C49.9776 145.851 49.5924 143.835 50.8128 142.467C52.5084 140.57 57.0588 141.131 59.136 142.053C59.2944 142.121 61.3284 143.316 61.8324 143.644C61.0476 142.107 60.252 140.577 59.406 139.104C58.2758 137.105 57.0168 135.181 55.6368 133.344C55.5144 133.452 52.2924 136.314 50.4204 136.883C48.7968 137.376 46.5936 137.556 45.1392 136.502C43.6848 135.447 43.3032 133.431 44.5272 132.063C46.2192 130.166 50.7732 130.724 52.8504 131.645C53.0124 131.717 55.2012 133.006 55.5828 133.265C55.5 133.161 55.4316 133.042 55.3488 132.938C53.92 131.137 52.3333 129.467 50.6076 127.948C49.6644 127.098 48.714 126.339 47.7708 125.619C47.2272 126.213 44.7036 128.906 43.0908 129.604C41.532 130.274 39.3576 130.684 37.7988 129.802C36.24 128.92 35.6388 126.951 36.7188 125.457C38.1948 123.387 42.7812 123.441 44.9448 124.128C45.0636 124.168 46.2192 124.679 47.0544 125.064C46.626 124.748 46.1868 124.413 45.7692 124.114C44.2032 122.998 42.6984 122.073 41.3628 121.263C40.596 120.809 39.8976 120.413 39.2352 120.05C38.3964 120.356 34.998 121.54 33.2628 121.414C31.5276 121.288 29.4504 120.658 28.4748 119.15C27.4992 117.641 27.87 115.625 29.5008 114.79C31.7652 113.631 35.8116 115.794 37.4208 117.404C37.5576 117.54 39.4764 119.963 39.4332 119.981L39.3828 119.999C40.0236 120.334 40.7076 120.719 41.4456 121.122C42.8064 121.904 44.3256 122.796 45.9312 123.884C47.6643 125.037 49.3291 126.289 50.9172 127.635C52.7033 129.133 54.3515 130.789 55.842 132.581C55.86 132.599 55.8744 132.624 55.8924 132.646C55.6152 131.955 54.8988 129.996 54.8628 129.842C54.33 127.631 54.6 123.052 56.7708 121.727C58.3332 120.77 60.2628 121.544 61.026 123.131C61.7892 124.719 61.2312 126.886 60.45 128.394C59.5752 130.094 56.3172 132.664 56.0544 132.866C57.5291 134.726 58.8773 136.682 60.09 138.723C60.81 139.907 61.4832 141.12 62.1528 142.348C61.9296 141.743 61.7352 141.2 61.7172 141.12C61.1844 138.914 61.4544 134.334 63.6252 133.006C65.1876 132.052 67.1208 132.826 67.8804 134.41C68.64 135.994 68.0856 138.168 67.308 139.673C66.5304 141.178 63.7836 143.45 63.0528 144.036C63.3012 144.508 63.5604 144.98 63.8088 145.451C65.0076 147.726 66.192 150.002 67.4088 152.201C67.8408 152.975 68.2944 153.72 68.748 154.469C68.55 153.933 68.388 153.476 68.388 153.389C67.8552 151.182 68.1252 146.603 70.296 145.275C71.862 144.321 73.7916 145.095 74.5512 146.679C75.3108 148.263 74.7564 150.437 73.9788 151.946C73.2012 153.454 70.7388 155.499 69.8532 156.197C70.3392 156.95 70.8252 157.706 71.3328 158.415C71.6928 158.89 71.9988 159.369 72.384 159.83L73.464 161.198C74.184 162.04 74.9472 162.918 75.6816 163.718C76.1892 164.279 76.6824 164.798 77.1792 165.341C76.74 164.578 75.9084 163.059 75.8544 162.926C75.1666 161.049 74.9708 159.028 75.2856 157.054C75.198 156.849 75.1317 156.635 75.0876 156.417C74.7276 154.696 75.7896 152.91 77.6076 152.716C80.1276 152.45 83.1372 155.924 84.0552 158.001C84.1092 158.123 84.5484 159.516 84.8112 160.402C84.7392 159.858 84.6564 159.322 84.588 158.771C84.4404 157.662 84.3252 156.554 84.1956 155.358C84.156 154.782 84.1128 154.199 84.0696 153.609C84.0264 153.018 84.0336 152.399 84.012 151.791C83.9904 150.372 84.0372 148.94 84.1164 147.492C83.148 147.622 79.6956 148.022 78.0612 147.536C76.4268 147.05 74.4972 145.984 73.8672 144.296C73.2372 142.607 74.0328 140.721 75.804 140.256C78.2628 139.608 81.7548 142.586 82.9788 144.501C83.0544 144.62 83.778 146.092 84.1596 146.909C84.2136 146.042 84.264 145.174 84.3504 144.296C84.5916 141.776 84.9156 139.212 85.2252 136.664C85.3224 135.882 85.4088 135.105 85.4988 134.327C85.1388 134.374 81.06 134.939 79.2312 134.396C77.604 133.913 75.6672 132.844 75.0372 131.156C74.4072 129.467 75.1992 127.581 76.974 127.116C79.4328 126.468 82.9212 129.446 84.1452 131.361C84.2388 131.505 85.2756 133.625 85.5132 134.176C85.7112 132.459 85.8732 130.745 85.9992 129.05C86.1568 126.761 86.1652 124.464 86.0244 122.174C85.866 122.199 81.5964 122.807 79.7208 122.253C78.0972 121.767 76.1604 120.701 75.5304 119.013C74.9004 117.324 75.6924 115.442 77.4636 114.974C79.926 114.326 83.4144 117.306 84.6384 119.218C84.7356 119.369 85.848 121.652 86.0208 122.076C86.0208 121.947 86.0208 121.806 86.0208 121.673C85.8156 119.381 85.4072 117.111 84.8004 114.891C84.4836 113.66 84.1092 112.5 83.7204 111.384C82.9356 111.579 79.3464 112.432 77.6004 112.104C75.9336 111.802 73.8888 110.952 73.0788 109.35C72.2688 107.748 72.8484 105.779 74.5584 105.124C76.9308 104.21 80.7288 106.787 82.1544 108.555C82.2336 108.652 82.914 109.714 83.3964 110.499C83.2128 109.995 83.0364 109.473 82.8492 108.994C82.158 107.194 81.4092 105.599 80.7468 104.184C80.358 103.385 79.9908 102.669 79.6416 102.003C78.774 101.794 75.2856 100.905 73.9104 99.8428C72.5352 98.7808 71.1456 97.1104 71.1636 95.314C71.1816 93.5176 72.6036 92.038 74.4252 92.2432C76.9452 92.5276 79.134 96.5632 79.5876 98.788C79.6236 98.9824 79.89 102.06 79.8432 102.05H79.7928C80.1528 102.683 80.5128 103.367 80.8944 104.123C81.6144 105.524 82.374 107.115 83.1084 108.9C83.9182 110.818 84.6153 112.781 85.1964 114.779C85.8602 117.013 86.3228 119.303 86.5788 121.619C86.5788 121.644 86.5788 121.673 86.5788 121.702C86.73 120.982 87.2124 118.944 87.27 118.793C88.044 116.658 90.7944 112.986 93.336 113.076C95.1684 113.145 96.3528 114.855 96.1116 116.594C95.8704 118.332 94.2072 119.834 92.7276 120.669C91.0572 121.605 86.9244 121.95 86.6076 121.976C86.8114 124.34 86.8559 126.715 86.7408 129.086C86.6832 130.464 86.5824 131.854 86.4636 133.247C86.6112 132.617 86.748 132.059 86.7768 131.984C87.5508 129.845 90.3012 126.177 92.8428 126.267C94.6752 126.335 95.8596 128.045 95.6184 129.784C95.3772 131.523 93.7176 133.024 92.238 133.859C90.7584 134.694 87.198 135.065 86.2836 135.148C86.2296 135.684 86.1864 136.228 86.1324 136.75C85.8768 139.306 85.6068 141.858 85.4124 144.371C85.3476 145.253 85.3152 146.128 85.2792 147.003C85.4124 146.445 85.5276 145.977 85.5528 145.923C86.3268 143.788 89.0808 140.116 91.6224 140.21C93.4512 140.274 94.6356 141.984 94.3944 143.727C94.1532 145.469 92.4936 146.967 91.014 147.798C89.5344 148.63 86.334 148.968 85.2252 149.073C85.2252 149.969 85.2252 150.873 85.2252 151.737C85.2576 152.331 85.2504 152.903 85.3188 153.497C85.3872 154.091 85.4304 154.667 85.4844 155.247C85.6284 156.352 85.7688 157.497 85.938 158.577C86.0496 159.326 86.172 160.038 86.298 160.758C86.352 159.876 86.496 158.152 86.5248 158.008C86.9676 155.783 89.1312 151.737 91.6584 151.442C93.4584 151.229 94.8984 152.741 94.9308 154.498C94.9632 156.255 93.5448 157.994 92.2056 159.038C90.7332 160.186 86.8596 161.133 86.3772 161.248C86.5608 162.465 86.7696 163.62 87 164.708Z" fill="black"/>
<path d="M47.6989 125.14C47.6701 125.176 45.8989 122.656 45.7837 122.487C44.7037 120.496 43.7389 116.007 45.4813 114.156C46.7377 112.821 48.8041 113.058 49.9561 114.387C51.1081 115.715 51.1477 117.954 50.7949 119.614C50.3809 121.565 47.6989 125.136 47.6989 125.14Z" fill="black"/>
</g>
<g opacity="0.15">
<path d="M127.14 40.5004C128.317 41.6596 131.82 42.9088 131.82 42.9088C131.82 42.9088 131.942 40.3564 131.928 40.1944C131.777 38.3152 130.376 34.7692 128.328 34.2868C127.985 34.216 127.63 34.2182 127.288 34.2934C126.945 34.3686 126.622 34.515 126.34 34.7231C126.058 34.9313 125.823 35.1965 125.65 35.5015C125.477 35.8066 125.37 36.1446 125.336 36.4936C125.131 37.9732 126.136 39.5104 127.14 40.5004Z" fill="black"/>
<path d="M129.253 87.52C129.253 87.6064 129.221 87.6856 129.206 87.7684L130.304 88.78C130.366 88.4416 130.423 88.0996 130.484 87.7468C130.657 86.7424 130.823 85.6696 130.985 84.568C132.049 84.5512 133.112 84.4719 134.167 84.3304C134.758 85.81 136.856 88.0816 137.13 88.3696C136.446 89.0896 135.773 89.8096 135.128 90.4612C134.686 90.9148 134.257 91.3432 133.84 91.7572L135.15 92.2576L136.032 91.3288C136.73 90.5908 137.472 89.7844 138.192 88.9528C138.534 89.1724 141.335 90.9508 142.872 91.174C144.265 91.372 146.112 91.2424 147.16 90.1912C147.418 89.9542 147.623 89.6655 147.762 89.3439C147.901 89.0224 147.971 88.6752 147.968 88.3248C147.964 87.9744 147.886 87.6288 147.74 87.3103C147.594 86.9917 147.383 86.7075 147.12 86.476C145.489 85.1332 141.821 86.1628 140.233 87.196C140.14 87.2572 139.196 88.0204 138.606 88.5136C138.908 88.1716 139.204 87.844 139.51 87.4876C140.122 86.7892 140.708 86.0728 141.346 85.3024L142.235 84.1468C142.541 83.7688 142.814 83.326 143.11 82.9156C143.772 81.9436 144.395 80.9284 145.003 79.8916C145.615 80.4244 147.822 82.282 149.179 82.696C150.536 83.11 152.358 83.254 153.564 82.3756C153.853 82.1772 154.097 81.9209 154.281 81.623C154.465 81.325 154.584 80.992 154.632 80.6451C154.681 80.2983 154.656 79.9452 154.56 79.6085C154.464 79.2717 154.299 78.9586 154.075 78.6892C152.668 77.116 148.884 77.5804 147.16 78.3292C147.052 78.3796 145.878 79.0672 145.237 79.456C145.597 78.8296 145.957 78.2068 146.317 77.5624C147.311 75.6976 148.254 73.7824 149.197 71.8708C149.49 71.2876 149.784 70.7068 150.079 70.1284C150.295 70.3192 152.873 72.5872 154.399 73.048C155.746 73.4584 157.578 73.606 158.784 72.7312C159.073 72.5328 159.317 72.2765 159.501 71.9786C159.685 71.6806 159.804 71.3476 159.852 71.0007C159.901 70.6539 159.876 70.3008 159.78 69.9641C159.684 69.6273 159.519 69.3142 159.295 69.0448C157.888 67.468 154.108 67.9324 152.383 68.6848C152.254 68.7424 150.562 69.736 150.144 70.006C150.796 68.728 151.454 67.4608 152.156 66.2368C153.096 64.5784 154.142 62.9826 155.288 61.4596C155.389 61.5496 158.068 63.9292 159.608 64.4008C160.955 64.8112 162.787 64.9588 163.993 64.084C164.284 63.8878 164.531 63.6325 164.717 63.3345C164.903 63.0366 165.024 62.7028 165.072 62.355C165.12 62.0072 165.095 61.653 164.997 61.3158C164.899 60.9785 164.731 60.6657 164.504 60.3976C163.097 58.8208 159.317 59.2852 157.592 60.0376C157.456 60.0952 155.638 61.1644 155.321 61.384C155.389 61.294 155.45 61.1968 155.519 61.1104C156.711 59.6136 158.036 58.228 159.479 56.9704C160.264 56.2504 161.052 55.6312 161.837 55.0336C162.287 55.5268 164.386 57.7624 165.736 58.342C167.032 58.9 168.835 59.2456 170.131 58.5076C170.438 58.3419 170.708 58.1141 170.923 57.8387C171.137 57.5633 171.292 57.2463 171.378 56.9078C171.463 56.5693 171.478 56.2167 171.42 55.8724C171.362 55.5281 171.233 55.1996 171.042 54.9076C169.814 53.1868 166.002 53.2336 164.202 53.806C164.105 53.8348 163.144 54.2632 162.449 54.5836C162.809 54.3172 163.169 54.04 163.529 53.7916C164.828 52.8664 166.078 52.096 167.19 51.4264C167.824 51.0664 168.407 50.7064 168.954 50.4184C169.652 50.6704 172.475 51.6532 173.915 51.5488C175.355 51.4444 177.083 50.9224 177.893 49.6696C178.09 49.3805 178.225 49.0535 178.289 48.7093C178.353 48.3652 178.345 48.0115 178.265 47.6707C178.184 47.33 178.034 47.0098 177.823 46.7304C177.612 46.451 177.345 46.2186 177.04 46.048C175.157 45.0868 171.798 46.8832 170.466 48.208C170.351 48.3232 168.756 50.3356 168.792 50.368H168.835C168.302 50.6452 167.734 50.9512 167.122 51.3004C165.991 51.9484 164.724 52.6936 163.399 53.5936C161.959 54.5504 160.575 55.5902 159.256 56.7076C157.774 57.9539 156.406 59.3284 155.166 60.8152L155.123 60.8728C155.357 60.2968 155.947 58.6696 155.98 58.54C156.422 56.7076 156.199 52.9024 154.396 51.8008C154.09 51.6291 153.753 51.5229 153.404 51.4891C153.055 51.4552 152.703 51.4944 152.371 51.6042C152.038 51.7139 151.732 51.8918 151.472 52.1265C151.212 52.3612 151.004 52.6475 150.86 52.9672C150.216 54.3136 150.691 56.0884 151.339 57.3376C152.059 58.7524 154.774 60.8836 154.99 61.0528C153.767 62.5988 152.647 64.2235 151.638 65.9164C151.048 66.8992 150.482 67.9108 149.928 68.9296C150.112 68.4256 150.288 67.9756 150.288 67.9072C150.731 66.0748 150.504 62.2732 148.704 61.1716C148.399 60.9998 148.061 60.8934 147.713 60.8593C147.364 60.8252 147.013 60.8641 146.68 60.9735C146.347 61.0829 146.041 61.2604 145.781 61.4947C145.521 61.7291 145.312 62.015 145.169 62.3344C144.524 63.6808 145 65.4556 145.644 66.7084C146.288 67.9612 148.571 69.844 149.179 70.33C148.97 70.7224 148.758 71.1112 148.549 71.5072C147.556 73.3936 146.573 75.2836 145.55 77.1088C145.19 77.7532 144.812 78.3724 144.438 78.9952C144.6 78.5488 144.733 78.1708 144.748 78.1096C145.19 76.2772 144.967 72.472 143.164 71.3704C142.858 71.1987 142.521 71.0925 142.172 71.0587C141.823 71.0248 141.471 71.064 141.139 71.1737C140.806 71.2835 140.5 71.4614 140.24 71.6961C139.98 71.9308 139.772 72.2171 139.628 72.5368C138.984 73.8832 139.459 75.658 140.107 76.9072C140.755 78.1564 142.811 79.8628 143.531 80.4424C143.128 81.0688 142.721 81.6952 142.303 82.282C142.008 82.6744 141.749 83.0776 141.428 83.4556L140.492 84.64C139.884 85.36 139.261 86.08 138.653 86.7388C138.232 87.2068 137.821 87.646 137.411 88.0888C137.771 87.4516 138.466 86.1916 138.512 86.08C139.081 84.5217 139.243 82.8441 138.984 81.2056C139.054 81.0346 139.108 80.8574 139.146 80.6764C139.229 80.3338 139.24 79.9774 139.177 79.6305C139.114 79.2835 138.979 78.9536 138.78 78.6621C138.582 78.3707 138.324 78.1241 138.025 77.9384C137.725 77.7527 137.389 77.632 137.04 77.584C134.938 77.3644 132.45 80.248 131.687 81.9724C131.64 82.0732 131.276 83.2324 131.057 83.9668C131.118 83.5168 131.186 83.0776 131.244 82.6132C131.366 81.6916 131.464 80.7736 131.568 79.78C131.604 79.3012 131.636 78.8152 131.672 78.34C131.708 77.8648 131.705 77.3356 131.723 76.828C131.741 75.6544 131.701 74.4628 131.633 73.264C132.439 73.3684 135.305 73.7032 136.673 73.2964C138.041 72.8896 139.632 72.0076 140.158 70.6144C140.289 70.2895 140.351 69.9408 140.341 69.5904C140.33 69.2401 140.246 68.8959 140.094 68.5798C139.943 68.2637 139.727 67.9826 139.461 67.7546C139.195 67.5266 138.884 67.3567 138.548 67.2556C136.507 66.7192 133.609 69.1924 132.59 70.7836C132.529 70.8808 131.928 72.1048 131.611 72.7816C131.564 72.0616 131.521 71.3416 131.453 70.6216C131.251 68.5192 130.985 66.3988 130.733 64.282C130.654 63.634 130.582 62.986 130.51 62.3416C130.794 62.3812 134.192 62.8492 135.715 62.3992C137.065 61.996 138.674 61.1104 139.196 59.7136C139.331 59.3893 139.395 59.0402 139.386 58.6892C139.376 58.3383 139.293 57.9932 139.141 57.6767C138.989 57.3601 138.772 57.0791 138.505 56.8519C138.237 56.6248 137.924 56.4566 137.587 56.3584C135.546 55.822 132.648 58.2952 131.633 59.8828C131.554 60.0016 130.693 61.762 130.495 62.2228C130.333 60.7828 130.186 59.3752 130.096 57.964C129.959 56.0588 129.947 54.1468 130.06 52.24C130.193 52.2616 133.739 52.7656 135.294 52.3048C136.644 51.9016 138.253 51.016 138.775 49.6192C138.91 49.2952 138.975 48.9462 138.966 48.5953C138.957 48.2443 138.874 47.8992 138.723 47.5825C138.571 47.2658 138.355 46.9847 138.087 46.7575C137.819 46.5303 137.507 46.3621 137.17 46.264C135.128 45.724 132.23 48.2008 131.212 49.7884C131.132 49.9144 130.207 51.808 130.063 52.1644C130.063 52.0528 130.063 51.9376 130.063 51.8296C130.232 49.9252 130.571 48.0398 131.075 46.1956C131.338 45.1732 131.651 44.212 131.971 43.2796C132.623 43.4416 135.604 44.1508 137.051 43.888C138.437 43.6396 140.136 42.934 140.806 41.602C140.975 41.2948 141.078 40.9552 141.108 40.6055C141.137 40.2558 141.092 39.9038 140.976 39.5726C140.861 39.2413 140.676 38.9382 140.435 38.6831C140.194 38.428 139.902 38.2266 139.578 38.092C137.605 37.3324 134.455 39.4744 133.271 40.9396C133.206 41.0224 132.641 41.9044 132.238 42.556C132.389 42.1384 132.54 41.7028 132.695 41.3068C133.267 39.8164 133.883 38.488 134.441 37.3144C134.761 36.6484 135.067 36.0544 135.355 35.5144C136.075 35.3416 138.977 34.6036 140.118 33.7144C141.259 32.8252 142.415 31.4464 142.397 29.956C142.406 29.6058 142.341 29.2575 142.207 28.9338C142.073 28.6102 141.872 28.3183 141.618 28.0773C141.364 27.8362 141.062 27.6514 140.731 27.5347C140.401 27.418 140.05 27.3721 139.7 27.4C137.602 27.634 135.791 31 135.413 32.836C135.38 32.9944 135.164 35.5504 135.2 35.5432H135.244C134.952 36.0688 134.65 36.6232 134.329 37.2676C133.746 38.4304 133.098 39.7516 132.49 41.2276C131.817 42.8196 131.237 44.4496 130.754 46.1092C130.205 47.9652 129.82 49.8662 129.606 51.79C129.608 51.814 129.608 51.838 129.606 51.862C129.484 51.2536 129.08 49.5688 129.034 49.4428C128.393 47.6716 126.107 44.6224 123.994 44.698C123.643 44.7201 123.301 44.8159 122.99 44.979C122.679 45.1422 122.406 45.3691 122.189 45.6449C121.971 45.9208 121.814 46.2393 121.728 46.5799C121.642 46.9204 121.629 47.2752 121.69 47.6212C121.891 49.0972 123.266 50.314 124.498 51.0016C125.884 51.7792 129.318 52.0816 129.592 52.0816C129.422 54.0449 129.385 56.0173 129.48 57.9856C129.53 59.1304 129.613 60.286 129.714 61.4416C129.588 60.9196 129.473 60.4552 129.451 60.3904C128.807 58.6192 126.524 55.57 124.411 55.6456C124.062 55.671 123.722 55.7688 123.413 55.9328C123.104 56.0967 122.833 56.3232 122.616 56.5979C122.399 56.8725 122.242 57.1893 122.154 57.528C122.067 57.8667 122.051 58.2199 122.107 58.5652C122.312 60.0448 123.688 61.2616 124.915 61.9492C126.143 62.6368 129.088 62.95 129.862 63.0292C129.905 63.472 129.941 63.9148 129.988 64.3576C130.2 66.4816 130.423 68.602 130.574 70.6864C130.632 71.4064 130.657 72.148 130.686 72.8716C130.574 72.4108 130.477 72.022 130.459 71.9644C129.815 70.1896 127.529 67.1404 125.419 67.216C125.07 67.2414 124.73 67.3393 124.42 67.5034C124.111 67.6676 123.839 67.8944 123.622 68.1695C123.406 68.4445 123.249 68.7617 123.161 69.1009C123.074 69.44 123.058 69.7937 123.115 70.1392C123.32 71.6152 124.696 72.8356 125.923 73.5232C127.151 74.2108 129.811 74.4916 130.729 74.5816C130.729 75.3232 130.729 76.0684 130.729 76.792C130.7 77.2852 130.708 77.7604 130.65 78.2536C130.592 78.7468 130.56 79.2256 130.517 79.6936C130.394 80.6152 130.276 81.5656 130.135 82.462C130.045 83.0848 129.944 83.6752 129.847 84.262C129.8 83.542 129.682 82.102 129.656 81.9796C129.296 80.1292 127.496 76.7704 125.394 76.5256C125.045 76.4947 124.693 76.5377 124.361 76.6519C124.029 76.7661 123.725 76.9488 123.469 77.1882C123.212 77.4277 123.009 77.7184 122.873 78.0415C122.736 78.3646 122.669 78.7129 122.676 79.0636C122.651 80.554 123.828 81.9688 124.937 82.8328C126.161 83.7868 129.379 84.5752 129.779 84.6688C129.602 85.6624 129.43 86.6236 129.253 87.52Z" fill="black"/>
<path d="M161.88 54.6664C161.905 54.6952 163.392 52.6036 163.471 52.4632C164.382 50.8108 165.17 47.0632 163.723 45.544C163.476 45.2951 163.179 45.1011 162.851 44.9746C162.524 44.8482 162.173 44.7921 161.823 44.8101C161.472 44.8281 161.13 44.9198 160.817 45.0791C160.504 45.2384 160.229 45.4618 160.008 45.7348C159.029 46.8616 159.018 48.6976 159.31 50.0764C159.652 51.6964 161.88 54.6628 161.88 54.6664Z" fill="black"/>
</g>
<path d="M101.468 59.1952L100.896 66.3124C100.81 67.384 100.32 68.3827 99.5244 69.106L97.9728 70.5136C97.0136 71.3831 96.4258 72.5884 96.3312 73.8796L95.01 92.0848C94.9498 92.905 95.0912 93.7275 95.4219 94.4805C95.7525 95.2335 96.2625 95.8942 96.9072 96.4048C97.4482 96.8324 97.8761 97.3862 98.1535 98.0176C98.4309 98.6489 98.5493 99.3387 98.4984 100.026L92.0796 188.32L175.56 194.4L184.92 65.2612L101.468 59.1952Z" fill="#FFC100"/>
<path d="M175.56 194.58L92.0651 188.511C92.018 188.507 91.9741 188.485 91.9427 188.45C91.9271 188.432 91.9152 188.412 91.9078 188.389C91.9004 188.367 91.8976 188.343 91.8995 188.32L98.3219 100.016C98.3693 99.3566 98.255 98.696 97.989 98.0912C97.723 97.4863 97.3133 96.9557 96.7955 96.5452C96.1277 96.0171 95.5993 95.3335 95.2567 94.5541C94.914 93.7746 94.7675 92.9231 94.8299 92.074L96.1511 73.8688C96.2479 72.5308 96.8564 71.2815 97.8503 70.3804L99.4019 68.9728C100.164 68.2808 100.634 67.3243 100.716 66.298L101.288 59.1808C101.29 59.1571 101.297 59.1341 101.307 59.1129C101.318 59.0918 101.333 59.073 101.351 59.0576C101.369 59.0422 101.39 59.0305 101.413 59.0232C101.435 59.016 101.459 59.0132 101.483 59.0152L184.945 65.0848C184.993 65.0885 185.037 65.1104 185.068 65.146C185.1 65.1816 185.116 65.2281 185.114 65.2756L175.722 194.415C175.719 194.457 175.701 194.497 175.671 194.527C175.641 194.557 175.602 194.576 175.56 194.58ZM92.2703 188.165L175.376 194.21L184.736 65.4304L101.634 59.386L101.076 66.3268C100.987 67.4463 100.471 68.4888 99.6359 69.2392L98.0843 70.6468C97.1599 71.4829 96.5937 72.6436 96.5039 73.8868L95.1827 92.092C95.1237 92.8829 95.2596 93.6762 95.5784 94.4024C95.8973 95.1285 96.3893 95.7654 97.0115 96.2572C97.5755 96.7033 98.0217 97.2807 98.311 97.939C98.6003 98.5973 98.7239 99.3165 98.6711 100.034L92.2703 188.165Z" fill="#263238"/>
<path d="M119.153 61.8187L90.5054 62.0287L91.392 182.982L120.04 182.772L119.153 61.8187Z" fill="white"/>
<path d="M91.3812 183.165C91.3334 183.165 91.2876 183.146 91.2539 183.112C91.2201 183.078 91.2012 183.033 91.2012 182.985L90.3228 62.0248C90.3237 61.9773 90.3429 61.9321 90.3765 61.8985C90.4101 61.865 90.4553 61.8457 90.5028 61.8448L119.152 61.636C119.198 61.6414 119.242 61.6602 119.278 61.69C119.311 61.7234 119.33 61.7686 119.332 61.816L120.21 182.776C120.209 182.823 120.19 182.869 120.156 182.902C120.123 182.936 120.077 182.955 120.03 182.956L91.3848 183.165H91.3812ZM90.6864 62.2048L91.5612 182.805L119.846 182.6L118.972 61.9996L90.6864 62.2048Z" fill="#263238"/>
<path d="M125.17 63.4125L96.5215 63.6225L97.4081 184.576L126.056 184.366L125.17 63.4125Z" fill="white"/>
<path d="M97.3968 184.76C97.3733 184.76 97.35 184.756 97.3282 184.747C97.3063 184.739 97.2865 184.726 97.2697 184.709C97.253 184.693 97.2396 184.673 97.2305 184.652C97.2215 184.63 97.2168 184.607 97.2168 184.583L96.3384 63.6232C96.3381 63.5763 96.3562 63.5311 96.3888 63.4972C96.4055 63.4798 96.4257 63.4661 96.448 63.4568C96.4703 63.4475 96.4942 63.4429 96.5184 63.4432L125.164 63.2344C125.211 63.2344 125.257 63.2534 125.291 63.2872C125.325 63.3209 125.344 63.3667 125.344 63.4144L126.24 184.36C126.24 184.408 126.222 184.455 126.19 184.49C126.155 184.523 126.108 184.543 126.06 184.544L97.4148 184.749L97.3968 184.76ZM96.6984 63.7996L97.5732 184.4L125.862 184.194L124.987 63.5944L96.6984 63.7996Z" fill="#263238"/>
<path d="M103.06 59.3104L102.48 66.4276C102.394 67.4992 101.904 68.4979 101.109 69.2212L99.5569 70.6288C98.5993 71.501 98.0119 72.7067 97.9153 73.9984L96.6013 92.2C96.5411 93.0202 96.6825 93.8427 97.0132 94.5957C97.3439 95.3488 97.8538 96.0094 98.4985 96.52C99.0392 96.9481 99.4671 97.5019 99.7451 98.133C100.023 98.7642 100.143 99.4537 100.093 100.142L93.6709 188.446L177.133 194.516L186.526 65.38L103.06 59.3104Z" fill="#E8E3D3"/>
<path d="M177.133 194.696L93.6566 188.626C93.6094 188.622 93.5656 188.6 93.5342 188.565C93.504 188.529 93.4885 188.482 93.491 188.435L99.9134 100.12C99.9611 99.4614 99.847 98.8012 99.5809 98.1969C99.3148 97.5927 98.9049 97.0627 98.387 96.6532C97.7222 96.1264 97.1958 95.4457 96.8533 94.6697C96.5108 93.8938 96.3626 93.0461 96.4214 92.2L97.7462 73.9948C97.8405 72.6569 98.448 71.4071 99.4418 70.5064L100.993 69.0988C101.756 68.4088 102.227 67.4531 102.307 66.4276L102.88 59.3068C102.882 59.2831 102.888 59.26 102.899 59.2389C102.91 59.2177 102.924 59.1989 102.943 59.1835C102.961 59.1682 102.982 59.1565 103.004 59.1492C103.027 59.1419 103.051 59.1392 103.074 59.1412L186.537 65.2C186.56 65.2014 186.583 65.2074 186.605 65.2177C186.626 65.2281 186.645 65.2425 186.661 65.2603C186.677 65.278 186.689 65.2986 186.696 65.321C186.704 65.3434 186.707 65.3671 186.706 65.3908L177.313 194.53C177.31 194.575 177.289 194.617 177.256 194.648C177.222 194.679 177.179 194.696 177.133 194.696ZM93.8654 188.28L176.968 194.325L186.328 65.5456L103.225 59.5012L102.667 66.4456C102.577 67.5638 102.062 68.6049 101.227 69.3544L99.6758 70.762C98.754 71.6001 98.1884 72.7596 98.0954 74.002L96.7814 92.2C96.7224 92.9909 96.8582 93.7842 97.1771 94.5103C97.4959 95.2365 97.988 95.8734 98.6102 96.3652C99.1742 96.8113 99.6203 97.3887 99.9096 98.047C100.199 98.7053 100.323 99.4245 100.27 100.142L93.8654 188.28Z" fill="#263238"/>
<path d="M90.8769 156.464V148.738C90.8779 147.54 91.3543 146.392 92.2015 145.546C93.0487 144.699 94.1973 144.224 95.3949 144.224H52.7997C51.6015 144.224 50.4523 144.7 49.605 145.547C48.7577 146.394 48.2817 147.543 48.2817 148.742V156.464C48.2817 157.662 48.7577 158.811 49.605 159.658C50.4523 160.506 51.6015 160.982 52.7997 160.982H95.3949C94.1967 160.982 93.0475 160.506 92.2002 159.658C91.3529 158.811 90.8769 157.662 90.8769 156.464Z" fill="#FFC100"/>
<path d="M95.3948 161.144H52.7996C51.5571 161.138 50.3673 160.641 49.4903 159.76C48.6134 158.88 48.1206 157.688 48.1196 156.446V148.738C48.1215 147.496 48.6146 146.305 49.4914 145.424C50.3681 144.544 51.5574 144.047 52.7996 144.04H95.3948C95.4426 144.04 95.4884 144.059 95.5221 144.093C95.5559 144.127 95.5748 144.172 95.5748 144.22C95.5748 144.268 95.5559 144.314 95.5221 144.347C95.4884 144.381 95.4426 144.4 95.3948 144.4C94.2449 144.402 93.1426 144.86 92.3295 145.673C91.5164 146.486 91.0587 147.588 91.0568 148.738V156.464C91.0625 157.611 91.522 158.709 92.3348 159.518C93.1476 160.328 94.2477 160.783 95.3948 160.784C95.4426 160.784 95.4884 160.803 95.5221 160.836C95.5559 160.87 95.5748 160.916 95.5748 160.964C95.5748 161.011 95.5559 161.057 95.5221 161.091C95.4884 161.125 95.4426 161.144 95.3948 161.144ZM52.7996 144.4C51.6528 144.407 50.5552 144.866 49.7459 145.679C48.9367 146.492 48.4815 147.591 48.4796 148.738V156.464C48.4806 157.611 48.9354 158.711 49.7449 159.524C50.5543 160.336 51.6525 160.796 52.7996 160.802H93.5912C92.7378 160.442 92.0093 159.839 91.4971 159.067C90.9848 158.295 90.7115 157.39 90.7112 156.464V148.738C90.7115 147.812 90.9848 146.906 91.4971 146.135C92.0093 145.363 92.7378 144.76 93.5912 144.4H52.7996Z" fill="#263238"/>
<path d="M133.325 144.832L133.836 144.501C133.862 144.482 133.882 144.456 133.892 144.425C133.903 144.395 133.904 144.362 133.895 144.331C133.885 144.3 133.867 144.273 133.841 144.253C133.816 144.233 133.785 144.221 133.753 144.22H95.395C94.1967 144.22 93.0475 144.696 92.2002 145.543C91.353 146.391 90.877 147.54 90.877 148.738V156.464C90.877 157.662 91.353 158.811 92.2002 159.658C93.0475 160.506 94.1967 160.982 95.395 160.982H133.753C133.785 160.981 133.817 160.971 133.843 160.951C133.869 160.932 133.888 160.905 133.897 160.874C133.906 160.843 133.905 160.809 133.894 160.779C133.883 160.748 133.863 160.722 133.836 160.704L133.325 160.37V144.832Z" fill="#949494"/>
<path d="M133.753 161.144H95.3948C94.1525 161.142 92.9613 160.649 92.0812 159.772C91.2011 158.895 90.7034 157.706 90.6968 156.464V148.738C90.6987 147.493 91.1943 146.299 92.0749 145.418C92.9555 144.538 94.1494 144.042 95.3948 144.04H133.753C133.824 144.04 133.893 144.064 133.95 144.106C134.007 144.149 134.049 144.209 134.069 144.277C134.089 144.346 134.087 144.419 134.062 144.485C134.038 144.552 133.992 144.609 133.933 144.648L133.494 144.944V160.272L133.922 160.553C133.979 160.592 134.023 160.647 134.047 160.712C134.072 160.776 134.076 160.846 134.059 160.913C134.038 160.979 133.998 161.036 133.943 161.078C133.888 161.119 133.822 161.142 133.753 161.144ZM95.3948 144.4C94.2449 144.402 93.1426 144.86 92.3295 145.673C91.5163 146.486 91.0587 147.588 91.0568 148.738V156.464C91.0625 157.611 91.5219 158.709 92.3347 159.518C93.1476 160.328 94.2477 160.783 95.3948 160.784H133.656L133.227 160.503C133.202 160.487 133.181 160.464 133.167 160.438C133.152 160.411 133.144 160.382 133.144 160.352V144.832C133.145 144.802 133.153 144.773 133.167 144.746C133.182 144.72 133.202 144.698 133.227 144.681L133.656 144.4H95.3948Z" fill="#263238"/>
<path d="M96.6298 144.832H133.325V160.355H96.6298C95.3265 160.355 94.0766 159.838 93.1551 158.916C92.2335 157.994 91.7158 156.745 91.7158 155.441V149.746C91.7158 148.443 92.2335 147.193 93.1551 146.271C94.0766 145.35 95.3265 144.832 96.6298 144.832Z" fill="white"/>
<path d="M133.324 160.535H96.6296C95.2789 160.534 93.9838 159.997 93.0287 159.042C92.0736 158.087 91.5366 156.792 91.5356 155.441V149.746C91.5366 148.395 92.0736 147.1 93.0287 146.145C93.9838 145.19 95.2789 144.653 96.6296 144.652H133.324C133.372 144.652 133.418 144.671 133.452 144.705C133.485 144.739 133.504 144.784 133.504 144.832V160.355C133.504 160.403 133.485 160.449 133.452 160.483C133.418 160.516 133.372 160.535 133.324 160.535ZM96.6296 145.012C95.3747 145.014 94.1717 145.513 93.2843 146.401C92.3969 147.288 91.8975 148.491 91.8956 149.746V155.441C91.8975 156.696 92.3969 157.899 93.2843 158.787C94.1717 159.674 95.3747 160.173 96.6296 160.175H133.134V145.012H96.6296Z" fill="#263238"/>
<path d="M107.984 147.87H93.0154C92.9677 147.87 92.9219 147.851 92.8882 147.818C92.8544 147.784 92.8354 147.738 92.8354 147.69C92.8354 147.643 92.8544 147.597 92.8882 147.563C92.9219 147.529 92.9677 147.51 93.0154 147.51H107.984C108.032 147.51 108.078 147.529 108.112 147.563C108.145 147.597 108.164 147.643 108.164 147.69C108.164 147.738 108.145 147.784 108.112 147.818C108.078 147.851 108.032 147.87 107.984 147.87Z" fill="#263238"/>
<path d="M118.014 149.292H104.053C104.005 149.292 103.96 149.273 103.926 149.24C103.892 149.206 103.873 149.16 103.873 149.112C103.873 149.065 103.892 149.019 103.926 148.985C103.96 148.951 104.005 148.932 104.053 148.932H118.014C118.062 148.932 118.107 148.951 118.141 148.985C118.175 149.019 118.194 149.065 118.194 149.112C118.193 149.16 118.174 149.205 118.14 149.239C118.107 149.272 118.061 149.292 118.014 149.292Z" fill="#263238"/>
<path d="M112.499 151.064H99.1209C99.0732 151.064 99.0274 151.045 98.9936 151.011C98.9599 150.977 98.9409 150.931 98.9409 150.884C98.9409 150.836 98.9599 150.79 98.9936 150.756C99.0274 150.723 99.0732 150.704 99.1209 150.704H112.499C112.546 150.705 112.591 150.724 112.625 150.757C112.658 150.791 112.678 150.836 112.679 150.884C112.679 150.931 112.66 150.977 112.626 151.011C112.592 151.045 112.546 151.064 112.499 151.064Z" fill="#263238"/>
<path d="M102.13 156.399H93.3499C93.3025 156.398 93.2572 156.379 93.2237 156.345C93.1901 156.312 93.1708 156.266 93.1699 156.219C93.1699 156.171 93.1889 156.125 93.2226 156.092C93.2564 156.058 93.3022 156.039 93.3499 156.039H102.13C102.178 156.039 102.224 156.058 102.258 156.092C102.291 156.125 102.31 156.171 102.31 156.219C102.31 156.267 102.291 156.312 102.258 156.346C102.224 156.38 102.178 156.399 102.13 156.399Z" fill="#263238"/>
<path d="M112.999 157.652H99.8734C99.8256 157.652 99.7798 157.633 99.7461 157.599C99.7123 157.565 99.6934 157.519 99.6934 157.472C99.6934 157.424 99.7123 157.378 99.7461 157.344C99.7798 157.311 99.8256 157.292 99.8734 157.292H112.999C113.047 157.292 113.092 157.311 113.126 157.344C113.16 157.378 113.179 157.424 113.179 157.472C113.179 157.519 113.16 157.565 113.126 157.599C113.092 157.633 113.047 157.652 112.999 157.652Z" fill="#263238"/>
<path d="M101.813 158.822H98.2855C98.2377 158.822 98.1919 158.803 98.1582 158.769C98.1244 158.735 98.1055 158.689 98.1055 158.642C98.1055 158.594 98.1244 158.548 98.1582 158.514C98.1919 158.481 98.2377 158.462 98.2855 158.462H101.813C101.861 158.462 101.907 158.481 101.941 158.514C101.974 158.548 101.993 158.594 101.993 158.642C101.993 158.689 101.974 158.735 101.941 158.769C101.907 158.803 101.861 158.822 101.813 158.822Z" fill="#263238"/>
<path d="M130.473 155.229H108.153C108.105 155.229 108.06 155.21 108.026 155.176C107.992 155.142 107.973 155.097 107.973 155.049C107.973 155.001 107.992 154.955 108.026 154.922C108.06 154.888 108.105 154.869 108.153 154.869H130.473C130.521 154.869 130.567 154.888 130.6 154.922C130.634 154.955 130.653 155.001 130.653 155.049C130.653 155.097 130.634 155.142 130.6 155.176C130.567 155.21 130.521 155.229 130.473 155.229Z" fill="#263238"/>
<path d="M133.065 151.632H128.453C128.406 151.632 128.36 151.614 128.326 151.58C128.292 151.546 128.273 151.5 128.273 151.452C128.273 151.405 128.292 151.359 128.326 151.325C128.36 151.291 128.406 151.272 128.453 151.272H133.051C133.098 151.272 133.144 151.291 133.178 151.325C133.212 151.359 133.231 151.405 133.231 151.452C133.231 151.5 133.212 151.546 133.178 151.58C133.144 151.614 133.098 151.632 133.051 151.632H133.065Z" fill="#263238"/>
<path d="M132.313 150.462H127.633C127.585 150.461 127.54 150.442 127.506 150.409C127.473 150.375 127.454 150.33 127.453 150.282C127.453 150.235 127.472 150.189 127.505 150.155C127.539 150.121 127.585 150.102 127.633 150.102H132.313C132.36 150.102 132.406 150.121 132.44 150.155C132.474 150.189 132.493 150.235 132.493 150.282C132.493 150.33 132.474 150.376 132.44 150.41C132.406 150.443 132.36 150.462 132.313 150.462Z" fill="#263238"/>
<path d="M132.313 157.986H120.606C120.558 157.986 120.512 157.967 120.478 157.934C120.445 157.9 120.426 157.854 120.426 157.806C120.426 157.759 120.445 157.713 120.478 157.679C120.512 157.645 120.558 157.626 120.606 157.626H132.313C132.361 157.626 132.406 157.645 132.44 157.679C132.474 157.713 132.493 157.759 132.493 157.806C132.493 157.854 132.474 157.9 132.44 157.934C132.406 157.967 132.361 157.986 132.313 157.986Z" fill="#263238"/>
<path d="M104.794 190.21V182.484C104.794 181.892 104.677 181.305 104.45 180.757C104.223 180.209 103.891 179.711 103.471 179.292C103.052 178.873 102.555 178.541 102.007 178.314C101.459 178.087 100.872 177.97 100.279 177.97H142.878C144.076 177.97 145.226 178.446 146.073 179.293C146.92 180.141 147.396 181.29 147.396 182.488V190.21C147.392 191.406 146.915 192.551 146.068 193.395C145.221 194.24 144.074 194.714 142.878 194.714H100.279C101.475 194.714 102.621 194.239 103.468 193.395C104.314 192.551 104.791 191.405 104.794 190.21Z" fill="#263238"/>
<path d="M142.878 194.89H100.279C100.231 194.89 100.186 194.871 100.152 194.837C100.118 194.804 100.099 194.758 100.099 194.71C100.099 194.662 100.118 194.617 100.152 194.583C100.186 194.549 100.231 194.53 100.279 194.53C101.427 194.525 102.525 194.066 103.335 193.253C104.145 192.44 104.599 191.339 104.599 190.192V182.484C104.598 181.337 104.143 180.237 103.334 179.424C102.524 178.612 101.426 178.152 100.279 178.146C100.231 178.146 100.186 178.127 100.152 178.094C100.118 178.06 100.099 178.014 100.099 177.966C100.099 177.919 100.118 177.873 100.152 177.839C100.186 177.805 100.231 177.786 100.279 177.786H142.878C144.12 177.793 145.309 178.291 146.186 179.171C147.063 180.051 147.556 181.242 147.558 182.484V190.21C147.551 191.449 147.056 192.636 146.18 193.512C145.304 194.388 144.117 194.883 142.878 194.89ZM102.083 194.53H142.878C144.022 194.524 145.117 194.067 145.926 193.258C146.735 192.45 147.192 191.354 147.198 190.21V182.484C147.196 181.338 146.741 180.238 145.932 179.425C145.122 178.613 144.025 178.153 142.878 178.146H102.079C102.933 178.506 103.662 179.109 104.174 179.881C104.686 180.652 104.959 181.558 104.959 182.484V190.21C104.956 191.133 104.681 192.035 104.169 192.803C103.657 193.571 102.93 194.172 102.079 194.53H102.083Z" fill="#263238"/>
<path d="M62.3462 178.578L61.8386 178.247C61.8099 178.23 61.7877 178.204 61.7755 178.173C61.7633 178.141 61.7618 178.107 61.7713 178.075C61.7808 178.043 61.8007 178.015 61.8278 177.995C61.855 177.975 61.8879 177.965 61.9214 177.966H100.279C100.873 177.966 101.46 178.083 102.008 178.31C102.556 178.538 103.054 178.87 103.473 179.29C103.892 179.71 104.225 180.208 104.451 180.756C104.678 181.304 104.794 181.891 104.794 182.484V190.21C104.794 190.803 104.678 191.391 104.451 191.939C104.225 192.487 103.892 192.985 103.473 193.405C103.054 193.824 102.556 194.157 102.008 194.384C101.46 194.611 100.873 194.728 100.279 194.728H61.9214C61.889 194.728 61.8575 194.717 61.8315 194.698C61.8056 194.678 61.7866 194.651 61.7773 194.62C61.768 194.589 61.769 194.556 61.78 194.525C61.791 194.495 61.8116 194.469 61.8386 194.451L62.3462 194.116V178.578Z" fill="#949494"/>
<path d="M100.279 194.89H61.9213C61.85 194.89 61.7808 194.866 61.7238 194.824C61.6668 194.781 61.6251 194.721 61.6049 194.653C61.5847 194.584 61.5871 194.511 61.6116 194.445C61.6362 194.378 61.6816 194.321 61.7413 194.282L62.1661 194.001V178.69L61.7413 178.409C61.6829 178.372 61.6382 178.317 61.6136 178.252C61.5889 178.187 61.5857 178.116 61.6045 178.049C61.6246 177.981 61.6664 177.921 61.7234 177.878C61.7805 177.835 61.8499 177.812 61.9213 177.812H100.279C101.522 177.817 102.712 178.315 103.589 179.195C104.466 180.075 104.958 181.267 104.959 182.51V190.21C104.954 191.449 104.459 192.637 103.582 193.513C102.706 194.389 101.519 194.884 100.279 194.89ZM62.0185 194.53H100.279C101.427 194.525 102.525 194.066 103.335 193.253C104.145 192.44 104.599 191.339 104.599 190.192V182.484C104.598 181.337 104.143 180.237 103.334 179.424C102.525 178.612 101.426 178.152 100.279 178.146H62.0185L62.4469 178.427C62.4713 178.444 62.4913 178.467 62.5051 178.493C62.5189 178.519 62.5261 178.549 62.5261 178.578V194.102C62.5264 194.131 62.5193 194.161 62.5055 194.187C62.4917 194.214 62.4715 194.236 62.4469 194.253L62.0185 194.53Z" fill="#263238"/>
<path d="M98.3965 194.105H62.3461V178.582H98.3965C99.8716 178.582 101.286 179.168 102.329 180.211C103.373 181.254 103.958 182.669 103.958 184.144V188.543C103.958 190.018 103.373 191.433 102.329 192.476C101.286 193.519 99.8716 194.105 98.3965 194.105Z" fill="white"/>
<path d="M98.3964 194.282H62.346C62.2983 194.282 62.2525 194.263 62.2187 194.229C62.185 194.195 62.166 194.149 62.166 194.102V178.578C62.1669 178.531 62.1862 178.486 62.2198 178.452C62.2533 178.419 62.2986 178.399 62.346 178.398H98.3964C99.9178 178.403 101.376 179.01 102.451 180.085C103.527 181.161 104.134 182.619 104.138 184.14V188.54C104.134 190.061 103.527 191.519 102.451 192.595C101.376 193.67 99.9178 194.277 98.3964 194.282ZM62.526 193.922H98.3964C99.8223 193.917 101.189 193.348 102.197 192.34C103.205 191.332 103.774 189.966 103.778 188.54V184.14C103.774 182.715 103.205 181.348 102.197 180.34C101.189 179.332 99.8223 178.763 98.3964 178.758H62.526V193.922Z" fill="#263238"/>
<path d="M102.655 181.617H87.6903C87.6425 181.617 87.5967 181.598 87.563 181.564C87.5292 181.53 87.5103 181.485 87.5103 181.437C87.5103 181.389 87.5292 181.343 87.563 181.31C87.5967 181.276 87.6425 181.257 87.6903 181.257H102.655C102.703 181.257 102.749 181.276 102.783 181.31C102.816 181.343 102.835 181.389 102.835 181.437C102.835 181.485 102.816 181.53 102.783 181.564C102.749 181.598 102.703 181.617 102.655 181.617Z" fill="#263238"/>
<path d="M91.6215 183.039H77.6571C77.6096 183.038 77.5643 183.019 77.5308 182.985C77.4972 182.952 77.478 182.906 77.4771 182.859C77.4771 182.811 77.496 182.765 77.5298 182.732C77.5635 182.698 77.6093 182.679 77.6571 182.679H91.6215C91.6692 182.679 91.715 182.698 91.7487 182.732C91.7825 182.765 91.8015 182.811 91.8015 182.859C91.8005 182.906 91.7813 182.952 91.7477 182.985C91.7142 183.019 91.6689 183.038 91.6215 183.039Z" fill="#263238"/>
<path d="M96.5532 184.81H83.1756C83.1279 184.81 83.0821 184.791 83.0483 184.757C83.0146 184.724 82.9956 184.678 82.9956 184.63C82.9956 184.582 83.0146 184.536 83.0483 184.503C83.0821 184.469 83.1279 184.45 83.1756 184.45H96.5532C96.6009 184.45 96.6467 184.469 96.6805 184.503C96.7142 184.536 96.7332 184.582 96.7332 184.63C96.7332 184.678 96.7142 184.724 96.6805 184.757C96.6467 184.791 96.6009 184.81 96.5532 184.81Z" fill="#263238"/>
<path d="M102.32 190.145H93.5579C93.5102 190.145 93.4644 190.126 93.4307 190.093C93.3969 190.059 93.3779 190.013 93.3779 189.965C93.3779 189.918 93.3969 189.872 93.4307 189.838C93.4644 189.804 93.5102 189.785 93.5579 189.785H102.335C102.382 189.785 102.428 189.804 102.462 189.838C102.496 189.872 102.515 189.918 102.515 189.965C102.515 189.99 102.51 190.015 102.5 190.038C102.49 190.06 102.475 190.081 102.457 190.098C102.439 190.115 102.417 190.128 102.394 190.136C102.37 190.144 102.345 190.147 102.32 190.145Z" fill="#263238"/>
<path d="M95.8007 191.398H82.6751C82.6274 191.398 82.5816 191.379 82.5478 191.345C82.5141 191.312 82.4951 191.266 82.4951 191.218C82.4951 191.17 82.5141 191.125 82.5478 191.091C82.5816 191.057 82.6274 191.038 82.6751 191.038H95.8007C95.8485 191.038 95.8942 191.057 95.928 191.091C95.9618 191.125 95.9807 191.17 95.9807 191.218C95.9807 191.266 95.9618 191.312 95.928 191.345C95.8942 191.379 95.8485 191.398 95.8007 191.398Z" fill="#263238"/>
<path d="M97.3882 192.568H93.8782C93.8305 192.568 93.7847 192.549 93.751 192.515C93.7172 192.482 93.6982 192.436 93.6982 192.388C93.6982 192.34 93.7172 192.295 93.751 192.261C93.7847 192.227 93.8305 192.208 93.8782 192.208H97.3882C97.436 192.208 97.4818 192.227 97.5155 192.261C97.5493 192.295 97.5682 192.34 97.5682 192.388C97.5682 192.436 97.5493 192.482 97.5155 192.515C97.4818 192.549 97.436 192.568 97.3882 192.568Z" fill="#263238"/>
<path d="M87.5244 188.975H65.2044C65.1567 188.975 65.1109 188.956 65.0771 188.923C65.0434 188.889 65.0244 188.843 65.0244 188.795C65.0244 188.748 65.0434 188.702 65.0771 188.668C65.1109 188.634 65.1567 188.615 65.2044 188.615H87.5244C87.5722 188.615 87.6179 188.634 87.6517 188.668C87.6854 188.702 87.7044 188.748 87.7044 188.795C87.7035 188.843 87.6842 188.888 87.6507 188.922C87.6171 188.955 87.5719 188.974 87.5244 188.975Z" fill="#263238"/>
<path d="M67.206 185.379H62.598C62.5502 185.379 62.5044 185.36 62.4707 185.326C62.4369 185.292 62.418 185.247 62.418 185.199C62.418 185.151 62.4369 185.105 62.4707 185.072C62.5044 185.038 62.5502 185.019 62.598 185.019H67.206C67.2537 185.019 67.2995 185.038 67.3332 185.072C67.367 185.105 67.386 185.151 67.386 185.199C67.386 185.247 67.367 185.292 67.3332 185.326C67.2995 185.36 67.2537 185.379 67.206 185.379Z" fill="#263238"/>
<path d="M68.0412 184.209H63.3612C63.3134 184.209 63.2676 184.19 63.2339 184.156C63.2001 184.122 63.1812 184.077 63.1812 184.029C63.1812 183.981 63.2001 183.935 63.2339 183.902C63.2676 183.868 63.3134 183.849 63.3612 183.849H68.0412C68.0889 183.849 68.1347 183.868 68.1684 183.902C68.2022 183.935 68.2212 183.981 68.2212 184.029C68.2212 184.077 68.2022 184.122 68.1684 184.156C68.1347 184.19 68.0889 184.209 68.0412 184.209Z" fill="#263238"/>
<path d="M75.0648 191.733H63.3612C63.3134 191.733 63.2676 191.714 63.2339 191.68C63.2001 191.646 63.1812 191.601 63.1812 191.553C63.1812 191.505 63.2001 191.459 63.2339 191.426C63.2676 191.392 63.3134 191.373 63.3612 191.373H75.0648C75.1125 191.373 75.1583 191.392 75.192 191.426C75.2258 191.459 75.2448 191.505 75.2448 191.553C75.2448 191.601 75.2258 191.646 75.192 191.68C75.1583 191.714 75.1125 191.733 75.0648 191.733Z" fill="#263238"/>
<path d="M71.166 173.369V165.658C71.166 164.46 70.6899 163.311 69.8427 162.463C68.9954 161.616 67.8462 161.14 66.6479 161.14H109.243C110.441 161.14 111.591 161.616 112.438 162.463C113.285 163.311 113.761 164.46 113.761 165.658V173.369C113.761 174.567 113.285 175.717 112.438 176.564C111.591 177.411 110.441 177.887 109.243 177.887H66.6479C67.8462 177.887 68.9954 177.411 69.8427 176.564C70.6899 175.717 71.166 174.567 71.166 173.369Z" fill="#8C8C8C"/>
<path d="M109.243 178.067H66.6478C66.6 178.067 66.5543 178.048 66.5205 178.015C66.4867 177.981 66.4678 177.935 66.4678 177.887C66.4678 177.839 66.4867 177.794 66.5205 177.76C66.5543 177.726 66.6 177.707 66.6478 177.707C67.7949 177.706 68.895 177.251 69.7078 176.442C70.5206 175.633 70.9801 174.534 70.9858 173.387V165.658C70.9839 164.508 70.5262 163.406 69.7131 162.593C68.9 161.78 67.7977 161.322 66.6478 161.32C66.6 161.32 66.5543 161.301 66.5205 161.267C66.4867 161.234 66.4678 161.188 66.4678 161.14C66.4678 161.092 66.4867 161.047 66.5205 161.013C66.5543 160.979 66.6 160.96 66.6478 160.96H109.243C110.488 160.962 111.682 161.458 112.563 162.338C113.443 163.219 113.939 164.413 113.941 165.658V173.369C113.94 174.615 113.445 175.809 112.564 176.69C111.683 177.571 110.489 178.066 109.243 178.067ZM68.4514 177.707H109.243C110.39 177.706 111.49 177.251 112.303 176.442C113.116 175.633 113.575 174.534 113.581 173.387V165.658C113.579 164.508 113.121 163.406 112.308 162.593C111.495 161.78 110.393 161.322 109.243 161.32H68.4514C69.3048 161.68 70.0333 162.283 70.5455 163.055C71.0578 163.826 71.3311 164.732 71.3314 165.658V173.369C71.3311 174.295 71.0578 175.201 70.5455 175.973C70.0333 176.744 69.3048 177.348 68.4514 177.707Z" fill="#263238"/>
<path d="M28.7185 161.77L28.2073 161.41C28.1803 161.392 28.1597 161.366 28.1487 161.335C28.1376 161.305 28.1367 161.272 28.146 161.241C28.1553 161.21 28.1743 161.182 28.2002 161.163C28.2262 161.144 28.2577 161.133 28.2901 161.133H66.6481C67.242 161.133 67.8301 161.25 68.3787 161.477C68.9273 161.705 69.4257 162.038 69.8453 162.459C70.265 162.879 70.5976 163.378 70.8242 163.927C71.0509 164.476 71.167 165.064 71.1661 165.658V173.369C71.1661 174.567 70.6901 175.717 69.8428 176.564C68.9955 177.411 67.8463 177.887 66.6481 177.887H28.2901C28.2577 177.887 28.2262 177.876 28.2002 177.857C28.1743 177.838 28.1553 177.81 28.146 177.779C28.1367 177.748 28.1376 177.715 28.1487 177.685C28.1597 177.654 28.1803 177.628 28.2073 177.61L28.7185 177.275V161.77Z" fill="#949494"/>
<path d="M66.6479 178.067H28.2899C28.2184 178.068 28.1487 178.045 28.0915 178.002C28.0343 177.959 27.9928 177.898 27.9731 177.83C27.9561 177.763 27.9601 177.692 27.9846 177.628C28.0091 177.564 28.0528 177.508 28.1099 177.47L28.5383 177.189V161.849L28.1099 161.568C28.0503 161.529 28.0048 161.472 27.9803 161.405C27.9557 161.339 27.9534 161.266 27.9736 161.197C27.9938 161.129 28.0355 161.069 28.0925 161.026C28.1494 160.984 28.2187 160.96 28.2899 160.96H66.6479C67.8933 160.962 69.0872 161.458 69.9678 162.338C70.8484 163.219 71.344 164.413 71.3459 165.658V173.369C71.344 174.615 70.8484 175.808 69.9678 176.689C69.0872 177.57 67.8933 178.065 66.6479 178.067ZM28.3979 177.707H66.6479C67.795 177.706 68.8951 177.251 69.7079 176.442C70.5208 175.633 70.9802 174.534 70.9859 173.387V165.658C70.984 164.508 70.5264 163.406 69.7132 162.593C68.9001 161.78 67.7978 161.322 66.6479 161.32H28.3979L28.8263 161.601C28.8512 161.618 28.8717 161.64 28.8861 161.666C28.9006 161.693 28.9084 161.722 28.9091 161.752V177.275C28.9091 177.305 28.9015 177.335 28.887 177.361C28.8725 177.388 28.8517 177.41 28.8263 177.426L28.3979 177.707Z" fill="#263238"/>
<path d="M65.1539 177.257H28.7183V161.734H65.1539C65.8348 161.734 66.509 161.868 67.1378 162.13C67.7666 162.391 68.3377 162.773 68.8183 163.256C69.2989 163.738 69.6796 164.31 69.9385 164.94C70.1974 165.57 70.3295 166.244 70.3271 166.925V172.102C70.3224 173.471 69.7752 174.782 68.8056 175.748C67.8359 176.715 66.5228 177.257 65.1539 177.257Z" fill="white"/>
<path d="M65.1537 177.455H28.7181C28.6703 177.455 28.6246 177.436 28.5908 177.403C28.5571 177.369 28.5381 177.323 28.5381 177.275V161.77C28.5381 161.722 28.5571 161.677 28.5908 161.643C28.6246 161.609 28.6703 161.59 28.7181 161.59H65.1537C66.5716 161.589 67.9322 162.15 68.9375 163.15C69.9428 164.15 70.511 165.507 70.5177 166.925V172.102C70.5158 173.523 69.9497 174.885 68.9438 175.889C67.938 176.893 66.5747 177.456 65.1537 177.455ZM28.8981 177.095H65.1537C65.8102 177.096 66.4604 176.968 67.0673 176.717C67.6741 176.467 68.2256 176.099 68.6903 175.636C69.1551 175.172 69.5238 174.621 69.7756 174.015C70.0274 173.408 70.1572 172.759 70.1577 172.102V166.925C70.1567 165.601 69.6304 164.332 68.6942 163.396C67.758 162.459 66.4885 161.933 65.1645 161.932H28.8981V177.095Z" fill="#263238"/>
<path d="M69.0277 164.79H54.0589C54.0115 164.789 53.9662 164.77 53.9326 164.737C53.8991 164.703 53.8798 164.658 53.8789 164.61C53.8789 164.563 53.8979 164.517 53.9316 164.483C53.9654 164.449 54.0112 164.43 54.0589 164.43H69.0277C69.0754 164.43 69.1212 164.449 69.155 164.483C69.1887 164.517 69.2077 164.563 69.2077 164.61C69.2068 164.658 69.1875 164.703 69.154 164.737C69.1204 164.77 69.0752 164.789 69.0277 164.79Z" fill="#263238"/>
<path d="M57.9899 166.212H44.0291C43.9814 166.212 43.9356 166.193 43.9018 166.16C43.8681 166.126 43.8491 166.08 43.8491 166.032C43.8491 165.985 43.8681 165.939 43.9018 165.905C43.9356 165.871 43.9814 165.852 44.0291 165.852H57.9899C58.0377 165.852 58.0834 165.871 58.1172 165.905C58.151 165.939 58.1699 165.985 58.1699 166.032C58.1699 166.08 58.151 166.126 58.1172 166.16C58.0834 166.193 58.0377 166.212 57.9899 166.212Z" fill="#263238"/>
<path d="M62.9219 167.966H49.5443C49.4965 167.966 49.4507 167.947 49.417 167.913C49.3832 167.879 49.3643 167.833 49.3643 167.786C49.3652 167.738 49.3844 167.693 49.418 167.659C49.4516 167.626 49.4968 167.607 49.5443 167.606H62.9219C62.9696 167.606 63.0154 167.625 63.0491 167.658C63.0829 167.692 63.1019 167.738 63.1019 167.786C63.1019 167.833 63.0829 167.879 63.0491 167.913C63.0154 167.947 62.9696 167.966 62.9219 167.966Z" fill="#263238"/>
<path d="M68.6928 173.319H59.9124C59.8647 173.319 59.8189 173.3 59.7851 173.266C59.7514 173.232 59.7324 173.187 59.7324 173.139C59.7324 173.091 59.7514 173.045 59.7851 173.012C59.8189 172.978 59.8647 172.959 59.9124 172.959H68.6928C68.7406 172.959 68.7863 172.978 68.8201 173.012C68.8539 173.045 68.8728 173.091 68.8728 173.139C68.8719 173.186 68.8526 173.232 68.8191 173.265C68.7855 173.299 68.7403 173.318 68.6928 173.319Z" fill="#263238"/>
<path d="M62.1694 174.572H49.0438C48.996 174.572 48.9502 174.553 48.9165 174.519C48.8827 174.485 48.8638 174.439 48.8638 174.392C48.8638 174.344 48.8827 174.298 48.9165 174.264C48.9502 174.231 48.996 174.212 49.0438 174.212H62.1694C62.2171 174.212 62.2629 174.231 62.2967 174.264C62.3304 174.298 62.3494 174.344 62.3494 174.392C62.3494 174.439 62.3304 174.485 62.2967 174.519C62.2629 174.553 62.2171 174.572 62.1694 174.572Z" fill="#263238"/>
<path d="M63.7569 175.742H60.2469C60.1992 175.742 60.1534 175.723 60.1196 175.689C60.0859 175.655 60.0669 175.609 60.0669 175.562C60.0669 175.514 60.0859 175.468 60.1196 175.434C60.1534 175.401 60.1992 175.382 60.2469 175.382H63.7569C63.8046 175.382 63.8504 175.401 63.8842 175.434C63.9179 175.468 63.9369 175.514 63.9369 175.562C63.9369 175.609 63.9179 175.655 63.8842 175.689C63.8504 175.723 63.8046 175.742 63.7569 175.742Z" fill="#263238"/>
<path d="M53.8931 172.149H31.5731C31.5253 172.149 31.4795 172.13 31.4458 172.096C31.412 172.062 31.3931 172.017 31.3931 171.969C31.3931 171.921 31.412 171.875 31.4458 171.842C31.4795 171.808 31.5253 171.789 31.5731 171.789H53.8931C53.9408 171.789 53.9866 171.808 54.0203 171.842C54.0541 171.875 54.0731 171.921 54.0731 171.969C54.0731 172.017 54.0541 172.062 54.0203 172.096C53.9866 172.13 53.9408 172.149 53.8931 172.149Z" fill="#263238"/>
<path d="M33.5746 168.552H28.9774C28.9296 168.552 28.8838 168.533 28.8501 168.5C28.8163 168.466 28.7974 168.42 28.7974 168.372C28.7974 168.325 28.8163 168.279 28.8501 168.245C28.8838 168.211 28.9296 168.192 28.9774 168.192H33.5746C33.6223 168.192 33.6681 168.211 33.7018 168.245C33.7356 168.279 33.7546 168.325 33.7546 168.372C33.7546 168.42 33.7356 168.466 33.7018 168.5C33.6681 168.533 33.6223 168.552 33.5746 168.552Z" fill="#263238"/>
<path d="M34.4137 167.382H29.7337C29.686 167.382 29.6402 167.363 29.6064 167.33C29.5727 167.296 29.5537 167.25 29.5537 167.202C29.5537 167.155 29.5727 167.109 29.6064 167.075C29.6402 167.041 29.686 167.022 29.7337 167.022H34.4137C34.4373 167.022 34.4608 167.027 34.4826 167.036C34.5044 167.045 34.5243 167.058 34.541 167.075C34.5577 167.092 34.571 167.112 34.58 167.134C34.5891 167.155 34.5937 167.179 34.5937 167.202C34.5928 167.25 34.5735 167.295 34.54 167.329C34.5064 167.362 34.4612 167.381 34.4137 167.382Z" fill="#263238"/>
<path d="M41.437 174.906H29.7298C29.6821 174.906 29.6363 174.887 29.6025 174.854C29.5688 174.82 29.5498 174.774 29.5498 174.726C29.5498 174.679 29.5688 174.633 29.6025 174.599C29.6363 174.565 29.6821 174.546 29.7298 174.546H41.437C41.4847 174.546 41.5305 174.565 41.5643 174.599C41.598 174.633 41.617 174.679 41.617 174.726C41.617 174.774 41.598 174.82 41.5643 174.854C41.5305 174.887 41.4847 174.906 41.437 174.906Z" fill="#263238"/>
<path d="M35.8354 186.808L39.277 183.366L42.7078 186.808V167.192H35.8354V186.808Z" fill="#263238"/>
<path d="M42.708 186.988C42.6844 186.988 42.661 186.984 42.6393 186.974C42.6176 186.965 42.5981 186.951 42.582 186.934L39.2772 183.622L35.958 186.934C35.932 186.958 35.8997 186.975 35.8647 186.982C35.8297 186.989 35.7934 186.986 35.76 186.974C35.7274 186.96 35.6996 186.937 35.6798 186.907C35.66 186.878 35.6491 186.843 35.6484 186.808V167.192C35.6484 167.144 35.6674 167.098 35.7012 167.064C35.7349 167.031 35.7807 167.012 35.8284 167.012H42.708C42.7558 167.012 42.8016 167.031 42.8353 167.064C42.8691 167.098 42.888 167.144 42.888 167.192V186.808C42.8879 186.844 42.8772 186.878 42.8573 186.908C42.8374 186.937 42.8093 186.96 42.7764 186.974C42.7546 186.982 42.7315 186.987 42.708 186.988ZM36.0156 167.372V186.372L39.1476 183.24C39.1828 183.207 39.2289 183.188 39.2772 183.186C39.3246 183.187 39.3698 183.207 39.4032 183.24L42.528 186.372V167.372H36.0156Z" fill="#263238"/>
</g>
<defs>
<clipPath id="clip0_171_21027">
<rect width="210" height="210" fill="white"/>
</clipPath>
</defs>
</svg>
