<svg width="121" height="120" viewBox="0 0 121 120" fill="none" xmlns="http://www.w3.org/2000/svg">
<g clip-path="url(#clip0_896_26265)">
<path d="M13.3058 113.596L13.4426 113.665H110.184C110.86 112.942 111.285 111.757 111.631 110.618C115.913 96.4939 115.738 77.7124 111.698 62.0397C109.905 55.095 107.354 48.7647 104.095 43.7299C98.3686 34.896 90.2802 30.0844 82.1742 27.1022C73.1187 23.7702 63.376 22.454 54.5416 26.8537C45.7072 31.2534 38.7211 40.7638 30.3289 46.4613C26.4413 49.1006 22.2866 50.051 18.5581 53.3945C14.8781 56.6894 11.7598 61.1439 9.43579 66.4256C9.15902 67.0591 8.89392 67.7027 8.64047 68.3562C4.66864 78.7594 4.03079 91.7215 6.95598 102.836C8.15374 107.383 10.15 111.911 13.3058 113.596Z" fill="#FFD000"/>
<path opacity="0.7" d="M13.3058 113.596L13.4426 113.665H110.184C110.86 112.942 111.285 111.757 111.631 110.618C115.913 96.4939 115.738 77.7124 111.698 62.0397C109.905 55.095 107.354 48.7647 104.095 43.7299C98.3686 34.896 90.2802 30.0844 82.1742 27.1022C73.1187 23.7702 63.376 22.454 54.5416 26.8537C45.7072 31.2534 38.7211 40.7638 30.3289 46.4613C26.4413 49.1006 22.2866 50.051 18.5581 53.3945C14.8781 56.6894 11.7598 61.1439 9.43579 66.4256C9.15902 67.0591 8.89392 67.7027 8.64047 68.3562C4.66864 78.7594 4.03079 91.7215 6.95598 102.836C8.15374 107.383 10.15 111.911 13.3058 113.596Z" fill="white"/>
<path opacity="0.5" d="M120.5 108.857C120.5 108.891 82.7843 108.785 39.7084 108.785C-3.36749 108.785 0.942101 108.891 0.942101 108.857C0.942101 108.823 -3.38371 108.659 39.7084 108.659C82.8005 108.659 120.5 108.82 120.5 108.857Z" fill="#263238"/>
<g opacity="0.3">
<path d="M92.5568 47.8354C95.9131 47.8354 99.1319 49.1687 101.505 51.542C103.878 53.9152 105.212 57.134 105.212 60.4903V106.009H79.9004V60.4903C79.9004 57.134 81.2337 53.9152 83.6069 51.542C85.9802 49.1687 89.199 47.8354 92.5552 47.8354H92.5568Z" stroke="black" stroke-linecap="round" stroke-linejoin="round"/>
<path d="M82.7589 105.872V60.8992C82.7589 58.3006 83.7912 55.8084 85.6287 53.9709C87.4662 52.1334 89.9584 51.1011 92.557 51.1011C95.1554 51.1015 97.6472 52.134 99.4843 53.9714C101.321 55.8089 102.354 58.3009 102.354 60.8992V105.872" stroke="black" stroke-linecap="round" stroke-linejoin="round"/>
<path d="M92.5569 47.8354V105.94" stroke="black" stroke-linecap="round" stroke-linejoin="round"/>
<path d="M80.0372 59.0283H105.042" stroke="black" stroke-linecap="round" stroke-linejoin="round"/>
<path d="M80.0372 66.9209H105.042" stroke="black" stroke-linecap="round" stroke-linejoin="round"/>
<path d="M80.0372 74.8135H105.042" stroke="black" stroke-linecap="round" stroke-linejoin="round"/>
<path d="M80.0372 82.7046H105.042" stroke="black" stroke-linecap="round" stroke-linejoin="round"/>
<path d="M80.0372 90.5972H105.042" stroke="black" stroke-linecap="round" stroke-linejoin="round"/>
<path d="M80.0372 98.4897H105.042" stroke="black" stroke-linecap="round" stroke-linejoin="round"/>
<path d="M83.3808 51.7847L85.6474 53.8493" stroke="black" stroke-linecap="round" stroke-linejoin="round"/>
<path d="M101.638 51.7847L99.3698 53.8493" stroke="black" stroke-linecap="round" stroke-linejoin="round"/>
</g>
<path d="M81.0043 32.3778C85.4809 30.4482 89.6517 27.3313 89.6517 27.3313C89.6517 27.3313 86.4813 28.0467 82.634 29.0827C87.7251 25.9539 92.3174 21.1923 92.3174 21.1923C92.3174 21.1923 88.4791 22.7538 83.9669 24.8258C86.2262 22.6424 88.3152 20.2894 90.2157 17.7874C90.2157 17.7874 84.7625 20.9044 79.4429 24.4162C83.2337 19.9426 86.0953 14.0263 86.0953 14.0263C86.0953 14.0263 81.2032 18.1407 76.6227 22.5549C79.71 17.3302 81.5179 10.3987 81.5179 10.3987C81.5179 10.3987 77.8933 14.9168 74.423 19.8594C76.2635 14.332 76.7355 7.8903 76.7355 7.8903C76.7355 7.8903 74.2538 12.5004 71.8315 17.6716C72.541 12.168 71.9977 6.39118 71.9977 6.39118C71.9977 6.39118 70.3977 11.1052 68.9016 16.4397C68.6882 12.8224 68.1437 9.23224 67.2748 5.71436C67.2748 5.71436 66.0696 12.8388 65.461 19.5537C64.5705 13.2841 60.8925 5.98746 60.8925 5.98746C60.8925 5.98746 61.1181 10.7935 61.6554 16.1963C60.1739 12.9922 58.4116 9.92557 56.3892 7.03239C56.3892 7.03239 57.3747 11.8444 58.764 17.164C56.775 14.1777 54.5206 11.3769 52.0284 8.7957C52.0284 8.7957 54.5398 15.4719 57.3718 21.5426C53.4473 16.6059 46.685 12.2095 46.685 12.2095C46.685 12.2095 49.6536 16.7929 53.0852 21.5129C48.5463 18.0991 42.9565 15.6738 42.9565 15.6738C42.9565 15.6738 46.8453 19.9307 51.1824 24.1193C46.0141 21.4239 39.7179 19.9366 39.7179 19.9366C39.7179 19.9366 44.3547 23.4989 49.3983 26.8652C43.8085 25.0989 37.2658 24.7457 37.2658 24.7457C37.2658 24.7457 41.2941 26.8236 46.0557 28.9729C42.6883 28.667 39.3011 28.6451 35.93 28.9076C35.93 28.9076 42.2025 31.0597 48.4661 32.7221C45.686 32.9126 42.9266 33.3346 40.2166 33.9838C40.2166 33.9838 42.3242 34.3489 45.2037 34.7556C43.507 35.1333 41.8306 35.597 40.1809 36.1448C40.1809 36.1448 46.4653 36.6881 52.1857 36.7178C52.8002 36.7178 53.4384 36.7178 54.0856 36.694C50.4016 37.6944 46.6078 39.9357 46.6078 39.9357C46.6078 39.9357 51.3961 39.3895 55.6886 38.5464C59.3785 37.8191 63.9797 36.3259 65.1879 35.9222V35.9697L65.2146 35.9133H65.2621C65.2621 35.9727 65.2621 36.0053 65.2621 36.0053C65.2621 36.0053 65.2621 35.9697 65.2948 35.9014H65.3364C65.3512 35.9489 65.3601 35.9845 65.366 36.0053L65.6985 96.7387L66.7108 96.706L66.3813 36.1211C68.7353 37.3085 73.39 39.5765 77.1868 40.7847C82.5064 42.4738 90.1296 42.0166 90.1296 42.0166C90.1296 42.0166 84.8812 40.0485 79.5883 38.4544C84.8575 38.6147 90.9252 37.0146 90.9252 37.0146C90.9252 37.0146 84.8545 36.0291 79.1074 35.5304C84.4953 34.7467 90.6847 31.6178 90.6847 31.6178C90.6847 31.6178 86.0004 31.8375 81.0043 32.3778Z" fill="#B2B2B2"/>
<path d="M66.141 57.3106C66.8713 52.4897 66.4379 47.3096 66.4379 47.3096C66.4379 47.3096 65.3692 50.3791 64.2115 54.1937C64.2501 48.215 62.6381 41.803 62.6381 41.803C62.6381 41.803 61.9346 45.8847 61.3053 50.8125C60.6463 47.7396 59.7531 44.7217 58.6336 41.7852C58.6336 41.7852 58.3872 48.0547 58.5416 54.4193C56.7604 48.8354 53.2516 43.2872 53.2516 43.2872C53.2516 43.2872 54.157 49.6132 55.484 55.8353C52.6817 50.4533 47.7658 45.2524 47.7658 45.2524C47.7658 45.2524 49.6894 50.7205 52.0434 56.2894C48.3238 51.8069 43.1051 47.9983 43.1051 47.9983C43.1051 47.9983 45.7056 52.5431 48.8166 57.3314C44.5182 53.8196 39.3173 51.2221 39.3173 51.2221C39.3173 51.2221 42.4699 55.0812 46.2043 59.166C43.0228 57.4302 39.6891 55.9894 36.2449 54.8616C36.2449 54.8616 41.6565 59.6558 47.0296 63.7167C41.2409 61.1549 33.1012 60.4217 33.1012 60.4217C33.1012 60.4217 37.3017 62.7727 42.1701 65.1713C38.6666 64.7321 35.1311 64.6039 31.605 64.7884C31.605 64.7884 36.2092 66.4983 41.4576 68.1309C37.8682 68.244 34.2964 68.6812 30.7857 69.4371C30.7857 69.4371 37.7796 70.8323 44.441 71.6427C38.1774 72.3611 30.8748 75.7631 30.8748 75.7631C30.8748 75.7631 36.328 75.6799 42.1552 75.2495C36.8653 77.3126 31.8484 80.7799 31.8484 80.7799C31.8484 80.7799 37.5213 79.7231 43.3694 78.2566C38.3466 81.2192 33.7542 85.776 33.7542 85.776C33.7542 85.776 39.2193 83.7158 44.7557 81.2252C40.3028 85.0338 36.5417 90.4039 36.5417 90.4039C36.5417 90.4039 40.4305 88.0766 44.7764 85.1763C42.7372 87.8727 40.9279 90.7355 39.3678 93.7346C39.3678 93.7346 44.5122 89.549 49.2322 85.1258C47.9247 87.5849 46.8245 90.1487 45.9431 92.7906C45.9431 92.7906 47.365 91.1965 49.2352 88.9671C48.6548 90.6068 48.1594 92.2754 47.7509 93.9661C47.7509 93.9661 51.5328 88.9196 54.5786 84.0809C54.9081 83.5584 55.2376 83.0122 55.5641 82.4542C54.4657 86.1084 54.3619 90.5137 54.3619 90.5137C54.3619 90.5137 56.4398 86.1619 57.9835 82.0742C59.3193 78.5565 60.483 73.8602 60.7828 72.6164L60.8214 72.6461L60.7887 72.5927V72.5452L60.8689 72.5897L60.7976 72.5066V72.462L60.8986 72.4917L66.4082 75.2139L66.1648 73.5871L61.5635 71.6783C63.8226 70.3128 68.2012 67.558 71.2321 64.9724C75.48 61.3508 79.1224 54.6389 79.1224 54.6389C79.1224 54.6389 74.6696 58.0528 70.5345 61.71C73.4555 57.3225 75.3079 51.3201 75.3079 51.3201C75.3079 51.3201 71.2588 55.951 67.8004 60.5671C69.9853 55.58 70.5968 48.6929 70.5968 48.6929C70.5968 48.6929 68.3259 52.7866 66.141 57.3106Z" fill="#B2B2B2"/>
<path d="M79.7456 68.196C81.5005 69.4849 83.3812 70.5929 85.3591 71.503C85.3591 71.503 83.9431 69.9326 82.1294 68.0773C85.5284 69.9712 89.6932 71.0607 89.6932 71.0607C89.6932 71.0607 87.5826 69.3805 84.9703 67.4777C86.93 68.0646 88.9317 68.5013 90.9578 68.7838C90.9578 68.7838 87.4579 66.6762 83.7769 64.7703C87.5232 65.4976 91.792 65.2394 91.792 65.2394C91.792 65.2394 87.8972 63.7729 83.9313 62.5677C87.8794 62.6567 92.3916 61.4723 92.3916 61.4723C92.3916 61.4723 88.6691 60.8578 84.7536 60.4541C88.4761 59.7416 92.2847 57.9605 92.2847 57.9605C92.2847 57.9605 88.8769 58.0199 85.1603 58.293C87.4272 57.3385 89.5973 56.1685 91.6406 54.799C91.6406 54.799 88.4553 55.3927 84.9495 56.2388C86.9377 54.9681 88.8048 53.5173 90.5274 51.9047C90.5274 51.9047 86.0835 53.4899 82.0819 55.2888C85.3473 52.7893 88.3158 48.3751 88.3158 48.3751C88.3158 48.3751 85.659 50.0345 82.7646 52.0591C84.1139 50.1957 85.296 48.2169 86.2972 46.1457C86.2972 46.1457 83.8778 48.2385 81.3012 50.7202C82.368 48.6393 83.2453 46.4664 83.9224 44.2281C83.9224 44.2281 80.9331 47.7903 78.386 51.3229C79.9386 47.5202 80.2859 42.2896 80.2859 42.2896C80.2859 42.2896 78.6265 45.4273 77.0443 48.8857C77.3249 46.3575 77.3497 43.8075 77.1185 41.2744C77.1185 41.2744 75.9311 44.8366 74.9485 48.6363C74.8327 44.8425 73.672 40.7935 73.672 40.7935C73.672 40.7935 73.1347 44.5576 72.82 48.5117C72.0423 44.7772 70.1483 40.9478 70.1483 40.9478C70.1483 40.9478 70.2582 43.8956 70.5491 47.2857C69.6512 45.2764 68.5846 43.3469 67.3609 41.5178C67.3609 41.5178 68.1386 45.7658 69.1895 49.8475C68.196 48.3313 67.0779 46.9005 65.8469 45.5698C65.8469 45.5698 66.31 46.879 66.9958 48.6452C66.2458 47.8027 65.4532 46.9991 64.6209 46.2378C64.6209 46.2378 66.316 49.9781 68.1208 53.2346C68.3138 53.5849 68.5246 53.9441 68.7383 54.3062C67.4587 53.0776 66.0424 51.9999 64.517 51.0943C64.517 51.0943 66.3516 53.6383 68.198 55.8054C69.62 57.4072 71.1283 58.9303 72.7161 60.368H72.6894H72.728L72.7518 60.3918L72.7013 60.4214H72.7725L72.7933 60.4422L72.7458 60.4927L67.1739 63.8679L67.5153 64.4319L73.0011 61.1072C73.0724 62.823 73.2742 66.1834 73.7967 68.7244C74.5329 72.2867 77.2224 76.4664 77.2224 76.4664C77.2224 76.4664 76.6673 72.8596 75.8776 69.3419C77.4658 72.3847 80.3067 75.3176 80.3067 75.3176C80.3067 75.3176 78.9323 71.5594 77.3857 68.1396C79.5467 70.9479 83.2901 73.4593 83.2901 73.4593C83.2901 73.4593 81.6425 70.8618 79.7456 68.196Z" fill="#B2B2B2"/>
<path d="M66.1411 84.1638C65.3719 86.1998 64.8099 88.3083 64.4638 90.4571C64.4638 90.4571 65.5978 88.676 66.898 86.4258C65.9867 90.2077 66.0579 94.5121 66.0579 94.5121C66.0579 94.5121 67.1088 92.0304 68.2398 88.9995C68.1998 91.0449 68.317 93.0903 68.5901 95.1177C68.5901 95.1177 69.6796 91.1814 70.5256 87.1234C70.8224 90.9291 72.2266 94.9663 72.2266 94.9663C72.2266 94.9663 72.5917 90.8103 72.6748 86.6811C73.6515 90.5076 76.0055 94.5359 76.0055 94.5359C76.0055 94.5359 75.5988 90.7836 74.9339 86.9067C76.623 90.2998 79.3659 93.488 79.3659 93.488C79.3659 93.488 78.3922 90.2226 77.1336 86.7256C78.6639 88.6451 80.3747 90.4136 82.2424 92.0067C82.2424 92.0067 80.8146 89.0975 79.0542 85.9479C80.8137 87.5204 82.7136 88.9285 84.7301 90.1543C84.7301 90.1543 82.0109 86.313 79.2056 82.9407C82.4947 85.4254 87.5472 87.0967 87.5472 87.0967C87.5472 87.0967 85.2347 84.9831 82.5007 82.7389C84.6564 83.5366 86.8787 84.1416 89.1413 84.5467C89.1413 84.5467 86.4696 82.7804 83.3912 80.9637C85.681 81.4264 88.0079 81.6818 90.3436 81.7266C90.3436 81.7266 86.1164 79.803 82.0317 78.3039C86.1104 78.7759 91.2341 77.7102 91.2341 77.7102C91.2341 77.7102 87.7817 76.9591 84.0117 76.3654C86.5226 75.9554 88.986 75.2941 91.3647 74.3914C91.3647 74.3914 87.6125 74.2192 83.6881 74.2785C87.3097 73.1475 90.8987 70.9419 90.8987 70.9419C90.8987 70.9419 87.1286 71.4347 83.2488 72.1946C86.6388 70.4402 89.8181 67.5964 89.8181 67.5964C89.8181 67.5964 87.0099 68.4869 83.8217 69.6743C85.515 68.2683 87.087 66.7221 88.5209 65.0523C88.5209 65.0523 84.641 66.9403 80.9897 69.0509C82.1857 67.6865 83.266 66.2249 84.2195 64.6813C84.2195 64.6813 83.0795 65.4798 81.5478 66.6167C82.1576 65.6629 82.7174 64.678 83.225 63.666C83.225 63.666 80.0784 66.3021 77.4274 68.9174C77.1306 69.1994 76.8516 69.4962 76.5606 69.8079C77.4009 68.245 78.0583 66.5905 78.5199 64.8772C78.5199 64.8772 76.5636 67.3292 74.9725 69.6892C73.8115 71.49 72.7502 73.3531 71.7932 75.27L71.7724 75.2433V75.2819V75.3116L71.7279 75.273L71.7605 75.3353L71.7457 75.3621L71.6863 75.3264L66.9366 79.7792L66.4854 80.2572L71.1638 75.742C69.5282 76.2734 66.3459 77.3688 64.0393 78.5592C60.8066 80.2216 57.5085 83.9352 57.5085 83.9352C57.5085 83.9352 60.8333 82.4331 64.0007 80.7292C61.4983 83.0773 59.4351 86.6039 59.4351 86.6039C59.4351 86.6039 62.7005 84.2677 65.5652 81.8543C63.4427 84.6922 62.0296 88.9788 62.0296 88.9788C62.0296 88.9788 64.0839 86.7078 66.1411 84.1638Z" fill="#B2B2B2"/>
<path d="M16.6675 58.122V60.667H15.8722V57.8739C15.8722 57.5566 15.7462 57.2524 15.5219 57.0281C15.2975 56.8038 14.9933 56.6777 14.6761 56.6777C14.5191 56.6777 14.3636 56.7087 14.2186 56.7688C14.0735 56.8289 13.9418 56.9171 13.8308 57.0282C13.7199 57.1393 13.6319 57.2711 13.572 57.4162C13.5121 57.5614 13.4813 57.7169 13.4815 57.8739V61.3382H12.7482V59.4979C12.7482 59.3851 12.726 59.2734 12.6829 59.1692C12.6397 59.065 12.5764 58.9703 12.4967 58.8905C12.4169 58.8108 12.3222 58.7475 12.218 58.7043C12.1138 58.6612 12.0021 58.639 11.8893 58.639C11.7766 58.639 11.665 58.6612 11.5609 58.7044C11.4567 58.7475 11.3622 58.8108 11.2825 58.8906C11.2029 58.9704 11.1398 59.0651 11.0968 59.1693C11.0538 59.2735 11.0318 59.3852 11.032 59.4979V62.318C11.032 62.4644 11.0901 62.6048 11.1936 62.7083C11.2972 62.8118 11.4375 62.87 11.5839 62.87H13.4799V64.9616H15.8658V62.2576H17.5201C17.6989 62.2576 17.8705 62.1865 17.9969 62.06C18.1234 61.9336 18.1945 61.762 18.1945 61.5832V58.122C18.1945 57.9187 18.1137 57.7237 17.9699 57.5799C17.8261 57.4361 17.6311 57.3553 17.4278 57.3553C17.2256 57.357 17.0322 57.4385 16.8898 57.5821C16.7474 57.7257 16.6675 57.9198 16.6675 58.122Z" fill="#FFD000"/>
<path d="M16.8012 64.7881H12.5988V68.6835H16.8012V64.7881Z" fill="#B2B2B2"/>
<path d="M17.0492 63.8638H12.3474V65.1172H17.0492V63.8638Z" fill="#B2B2B2"/>
<path d="M15.4825 79.261L13.9492 76.8098L14.9719 76.9116L14.8685 75.4801L15.9931 76.9116L16.0949 72.5168L16.9125 75.3783L17.9352 71.6992L18.2406 75.9907L20.2845 73.8449L18.8546 77.217L20.2845 76.7064L17.5264 79.7731L15.4825 79.261Z" fill="#FFD000"/>
<path d="M18.9021 79.5947H14.6997V83.4901H18.9021V79.5947Z" fill="#B2B2B2"/>
<path d="M19.1504 78.6709H14.4485V79.9243H19.1504V78.6709Z" fill="#B2B2B2"/>
<path d="M37.2483 79.261L35.7166 76.8098L36.7377 76.9116L36.6359 75.4801L37.7605 76.9116L37.8623 72.5168L38.6798 75.3783L39.701 71.6992L40.008 75.9907L42.0519 73.8449L40.622 77.217L42.0519 76.7064L39.2922 79.7731L37.2483 79.261Z" fill="#FFD000"/>
<path d="M40.6681 79.5947H36.4657V83.4901H40.6681V79.5947Z" fill="#B2B2B2"/>
<path d="M40.9177 78.6709H36.2159V79.9243H40.9177V78.6709Z" fill="#B2B2B2"/>
<path d="M26.6216 78.7505C25.902 78.7398 25.1845 78.6717 24.4758 78.5469C23.3513 78.3417 23.1461 77.626 23.6583 77.4224C24.1704 77.2188 25.9058 77.5242 25.9058 77.5242C25.9058 77.5242 23.6583 77.5242 23.3513 76.196C23.0443 74.8679 24.1688 74.9697 24.4758 75.2766C24.7828 75.5836 25.5988 76.196 25.5988 76.196C25.5988 76.196 23.8619 74.4591 23.8619 73.4363C23.8619 72.4135 24.9864 72.5169 25.2934 73.1309C25.6004 73.7449 26.3162 75.582 26.3162 75.582C26.3162 75.582 25.1916 72.3133 26.6232 72.8239C28.0547 73.3345 27.7461 74.8679 27.7461 75.1733V76.503C27.7461 76.503 29.1777 73.7433 29.6882 74.3573C30.1988 74.9712 28.9725 76.0958 28.9725 76.0958C28.9725 76.0958 29.6882 73.4379 31.4252 73.5413C33.1621 73.6447 31.5286 74.8694 31.2216 75.38C30.9146 75.8906 29.5864 77.0152 29.5864 77.0152C29.5864 77.0152 32.5497 75.687 33.9797 75.687C35.4097 75.687 34.0831 77.3222 33.2655 77.424C32.4479 77.5258 30.9146 77.7309 30.9146 77.7309C30.9146 77.7309 32.9585 78.6503 32.141 78.8539C31.3234 79.0575 29.2779 78.6503 29.2779 78.6503L26.6216 78.7505Z" fill="#FFD000"/>
<path d="M29.938 79.5947H25.7356V83.4901H29.938V79.5947Z" fill="#B2B2B2"/>
<path d="M30.1876 78.6709H25.4858V79.9243H30.1876V78.6709Z" fill="#B2B2B2"/>
<path d="M32.9488 59.8908V61.7804H33.5389V59.7126C33.5389 59.4777 33.6323 59.2523 33.7984 59.0862C33.9646 58.92 34.1899 58.8267 34.4249 58.8267C34.6599 58.8267 34.8852 58.92 35.0514 59.0862C35.2175 59.2523 35.3109 59.4777 35.3109 59.7126V62.2783H35.8548V60.9167C35.8548 60.748 35.9219 60.5861 36.0412 60.4668C36.1605 60.3475 36.3223 60.2805 36.4911 60.2805C36.6598 60.2805 36.8217 60.3475 36.941 60.4668C37.0603 60.5861 37.1273 60.748 37.1273 60.9167V63.0052C37.1273 63.1136 37.0843 63.2176 37.0076 63.2942C36.9309 63.3709 36.827 63.414 36.7185 63.414H35.3109V64.9616H33.5357V62.9559H32.3126C32.1801 62.9559 32.0531 62.9033 31.9594 62.8096C31.8657 62.7159 31.8131 62.5889 31.8131 62.4564V59.8908C31.8131 59.7402 31.8729 59.5957 31.9794 59.4892C32.0859 59.3828 32.2304 59.3229 32.381 59.3229C32.5316 59.3229 32.676 59.3828 32.7825 59.4892C32.889 59.5957 32.9488 59.7402 32.9488 59.8908Z" fill="#FFD000"/>
<path d="M36.329 64.7881H32.1266V68.6835H36.329V64.7881Z" fill="#B2B2B2"/>
<path d="M36.5773 63.8638H31.8754V65.1172H36.5773V63.8638Z" fill="#B2B2B2"/>
<path d="M16.7249 89.5474V91.4323H17.315V89.3645C17.315 89.1295 17.4083 88.9042 17.5745 88.738C17.7406 88.5719 17.966 88.4785 18.2009 88.4785C18.3172 88.4785 18.4324 88.5014 18.5398 88.546C18.6472 88.5905 18.7447 88.6558 18.8269 88.7381C18.909 88.8204 18.9741 88.9181 19.0185 89.0256C19.0628 89.133 19.0855 89.2482 19.0853 89.3645V91.9301H19.6309V90.5702C19.6309 90.4014 19.6979 90.2396 19.8173 90.1203C19.9366 90.0009 20.0984 89.9339 20.2671 89.9339C20.4359 89.9339 20.5977 90.0009 20.717 90.1203C20.8364 90.2396 20.9034 90.4014 20.9034 90.5702V92.6602C20.9034 92.7686 20.8603 92.8726 20.7837 92.9493C20.707 93.0259 20.603 93.069 20.4946 93.069H19.0853V94.6135H17.3118V92.6125H16.0886C16.023 92.6127 15.9579 92.5999 15.8972 92.5749C15.8366 92.5499 15.7814 92.5131 15.735 92.4667C15.6886 92.4203 15.6518 92.3651 15.6268 92.3044C15.6017 92.2437 15.589 92.1787 15.5892 92.113V89.5474C15.5892 89.3968 15.649 89.2524 15.7555 89.1459C15.862 89.0394 16.0064 88.9796 16.157 88.9796C16.3076 88.9796 16.4521 89.0394 16.5585 89.1459C16.665 89.2524 16.7249 89.3968 16.7249 89.5474Z" fill="#FFD000"/>
<path d="M20.1031 94.4434H15.9008V98.3387H20.1031V94.4434Z" fill="#B2B2B2"/>
<path d="M20.353 93.5205H15.6512V94.7739H20.353V93.5205Z" fill="#B2B2B2"/>
<path d="M37.5619 89.5474V91.4323H38.152V89.3645C38.152 89.1295 38.2454 88.9042 38.4115 88.738C38.5777 88.5719 38.803 88.4785 39.038 88.4785C39.273 88.4785 39.4983 88.5719 39.6645 88.738C39.8306 88.9042 39.9239 89.1295 39.9239 89.3645V91.9301H40.4679V90.5702C40.4679 90.4014 40.535 90.2396 40.6543 90.1203C40.7736 90.0009 40.9354 89.9339 41.1042 89.9339C41.2729 89.9339 41.4347 90.0009 41.5541 90.1203C41.6734 90.2396 41.7404 90.4014 41.7404 90.5702V92.6602C41.7404 92.7686 41.6974 92.8726 41.6207 92.9493C41.544 93.0259 41.4401 93.069 41.3316 93.069H39.9239V94.6135H38.152V92.6125H36.9257C36.7932 92.6125 36.6662 92.5599 36.5725 92.4662C36.4788 92.3725 36.4262 92.2455 36.4262 92.113V89.5474C36.4262 89.3968 36.486 89.2524 36.5925 89.1459C36.699 89.0394 36.8435 88.9796 36.9941 88.9796C37.1447 88.9796 37.2891 89.0394 37.3956 89.1459C37.5021 89.2524 37.5619 89.3968 37.5619 89.5474Z" fill="#FFD000"/>
<path d="M40.945 94.4434H36.7426V98.3387H40.945V94.4434Z" fill="#B2B2B2"/>
<path d="M41.1927 93.5205H36.4909V94.7739H41.1927V93.5205Z" fill="#B2B2B2"/>
<path d="M26.8742 94.3624C26.478 93.7144 25.9844 93.1312 25.4108 92.6334C24.4803 91.8381 24.2131 89.9723 24.2131 89.9723C24.2131 89.9723 24.6123 89.8403 25.4108 90.6372C25.9408 91.1924 26.39 91.8194 26.7453 92.4998C26.7453 92.4998 26.2141 90.2395 26.2141 89.4411C26.2141 88.6426 27.5406 86.6479 27.5406 86.6479C27.5406 86.6479 27.9383 88.1113 27.9383 88.7762V91.8429C27.9383 91.8429 28.7336 90.2523 29.8009 89.3154C30.8682 88.3785 32.4604 87.9856 32.4604 87.9856C32.4604 87.9856 32.594 89.5763 32.0611 90.1139C31.5283 90.6515 29.268 92.5077 29.268 92.5077L32.3283 91.9765L29.268 93.8375C29.268 93.8375 28.6986 94.5835 28.2055 94.3703C27.7124 94.1572 26.8742 94.3624 26.8742 94.3624Z" fill="#FFD000"/>
<path d="M29.8122 94.4434H25.6099V98.3387H29.8122V94.4434Z" fill="#B2B2B2"/>
<path d="M30.0603 93.5205H25.3585V94.7739H30.0603V93.5205Z" fill="#B2B2B2"/>
<path d="M40.0081 63.9323C40.0081 63.9323 38.6799 62.8093 38.2712 62.4005C37.8624 61.9917 36.8396 60.8672 37.6572 61.276C38.266 61.6025 38.847 61.9787 39.3941 62.4005C39.3941 62.4005 38.6752 60.2532 38.6752 59.6408C38.6752 59.0284 39.6963 59.4372 40.2069 60.4584C40.7175 61.4796 41.0245 62.1953 41.0245 62.1953C41.0245 62.1953 40.1051 58.1075 40.9227 57.9007C41.7403 57.6939 41.9455 60.557 41.9455 60.557C41.9455 60.557 42.6596 55.5498 43.6824 56.6743C44.7052 57.7989 42.9666 60.7622 42.9666 60.7622C42.9666 60.7622 45.0106 59.3306 44.6018 60.4552C44.193 61.5798 43.0684 61.9885 43.0684 61.9885C43.0684 61.9885 46.0333 61.2728 45.2157 62.3973C44.3982 63.5219 41.7403 64.4413 41.7403 64.4413L40.0081 63.9323Z" fill="#FFD000"/>
<path d="M43.5741 64.7881H39.3718V68.6835H43.5741V64.7881Z" fill="#B2B2B2"/>
<path d="M43.8238 63.8638H39.1219V65.1172H43.8238V63.8638Z" fill="#B2B2B2"/>
<path d="M23.6583 63.9323C23.6583 63.9323 22.3286 62.8093 21.9198 62.4005C21.511 61.9917 20.4882 60.8672 21.3074 61.276C21.9162 61.6025 22.4972 61.9787 23.0443 62.4005C23.0443 62.4005 22.3286 60.2532 22.3286 59.6408C22.3286 59.0284 23.3513 59.4372 23.8619 60.4584C24.3725 61.4796 24.6779 62.1953 24.6779 62.1953C24.6779 62.1953 23.7585 58.1075 24.5761 57.9007C25.3937 57.6939 25.5973 60.557 25.5973 60.557C25.5973 60.557 26.313 55.5498 27.3342 56.6743C28.3554 57.7989 26.62 60.7622 26.62 60.7622C26.62 60.7622 28.6639 59.3306 28.2552 60.4552C27.8464 61.5798 26.7218 61.9885 26.7218 61.9885C26.7218 61.9885 29.6851 61.2728 28.8675 62.3973C28.05 63.5219 25.3937 64.4413 25.3937 64.4413L23.6583 63.9323Z" fill="#FFD000"/>
<path d="M27.2242 64.7881H23.0219V68.6835H27.2242V64.7881Z" fill="#B2B2B2"/>
<path d="M27.4739 63.8638H22.772V65.1172H27.4739V63.8638Z" fill="#B2B2B2"/>
<path d="M11.7937 108.135V100.127H46.5325V108.135H47.8527V68.4736H10.4735V108.135H11.7937ZM11.7937 70.3696H46.5325V83.3649H11.7937V70.3696ZM11.7937 85.2529H46.5325V98.2466H11.7937V85.2529Z" fill="#B2B2B2"/>
<path d="M91.7044 85.8863C91.7044 85.8863 91.5787 84.8571 92.0384 83.0041C92.2825 81.9748 92.6015 80.9648 92.9927 79.9819C93.4241 81.1692 93.7738 82.3846 94.0394 83.6196C94.238 84.6155 94.3497 85.6266 94.3734 86.6418C94.3734 86.6418 93.8294 88.6316 93.3284 89.3172C92.8273 90.0027 92.4488 89.6608 92.1147 88.84C91.7807 88.0193 91.7044 85.8863 91.7044 85.8863Z" fill="#FFD000" stroke="#263238" stroke-linecap="round" stroke-linejoin="round"/>
<path d="M90.2412 88.0128C90.2412 88.0128 90.1155 87.3273 90.1155 85.7494C90.1155 84.1715 90.5291 81.6997 90.5291 81.6997C91.0147 82.5711 91.4071 83.4914 91.6998 84.4451C92.1181 85.8862 92.8705 88.7 92.8705 88.7C93.0646 87.7211 93.3304 86.7577 93.6658 85.8178C94.2097 84.3067 95.549 82.3185 95.549 82.3185V85.3406C95.5533 86.4504 95.4165 87.5563 95.1418 88.6316C95.1418 88.6316 95.0162 89.3171 93.4256 89.8659C91.835 90.4146 90.5291 89.7975 90.2412 88.0128Z" fill="#FFD000" stroke="#263238" stroke-linecap="round" stroke-linejoin="round"/>
<path d="M89.0686 90.553C89.0686 90.553 88.4832 89.7974 88.4832 88.1512C88.4901 87.094 88.5741 86.0388 88.7345 84.9938C88.7345 84.9938 88.9429 85.1306 89.5298 85.9482C90.1168 86.7657 91.4115 88.8987 91.4115 89.0371C91.4115 89.1755 91.5372 88.4184 92.0382 87.5261C92.5393 86.6337 94.0472 84.5039 94.0472 84.5039C94.0472 84.5039 94.2555 86.4254 94.2555 87.2493C94.2555 88.0732 94.3398 89.2391 94.3398 89.2391C94.3398 89.2391 94.9665 87.6613 95.6362 86.6942C96.0895 86.0598 96.5932 85.463 97.1425 84.9095C97.1425 84.9095 97.2681 85.3867 97.2252 86.7626C97.1822 88.1384 96.5985 90.6739 96.4299 91.0858C96.2613 91.4978 95.6759 92.3217 94.5466 92.7337C93.4173 93.1457 91.4958 93.4336 90.4906 92.9564C89.4853 92.4792 89.0686 90.553 89.0686 90.553Z" fill="#FFD000" stroke="#263238" stroke-linecap="round" stroke-linejoin="round"/>
<path d="M88.4836 93.1615C88.4836 93.1615 88.1496 92.7496 87.2286 90.9649C86.3077 89.1802 85.8909 86.912 85.8909 86.912C85.8909 86.912 86.392 86.9804 87.2286 87.8044C88.0653 88.6283 90.5689 91.854 90.5689 91.854C90.2942 90.9185 90.2398 89.932 90.4098 88.9719C90.7025 87.4608 91.0795 86.8436 91.0795 86.8436C91.0795 86.8436 91.9575 88.1479 92.2502 89.177C92.5428 90.2062 92.8769 91.722 92.8769 91.722C92.8769 91.722 93.2952 89.869 94.0062 88.5663C94.4491 87.7641 94.998 87.0253 95.6382 86.3696C95.6382 86.3696 96.0151 87.8791 95.7638 89.1834C95.5125 90.4877 95.2612 91.5168 95.2612 91.5168C95.2612 91.5168 96.1821 88.9082 96.9345 88.2911C97.6869 87.6739 99.3204 87.1252 99.3204 87.1252C99.3204 87.1252 98.6524 89.5954 98.1084 90.6929C97.5644 91.7904 96.7691 93.0263 96.7691 93.0263C96.7691 93.0263 92.5826 94.3958 88.4836 93.1615Z" fill="#FFD000" stroke="#263238" stroke-linecap="round" stroke-linejoin="round"/>
<path d="M96.3377 108.147H89.0989L88.0125 93.313H97.4241L96.3377 108.147Z" fill="#263238" stroke="#263238" stroke-linecap="round" stroke-linejoin="round"/>
<path d="M97.3495 92.917H88.0445C87.7923 92.917 87.588 93.1214 87.588 93.3735V93.5866C87.588 93.8388 87.7923 94.0431 88.0445 94.0431H97.3495C97.6016 94.0431 97.806 93.8388 97.806 93.5866V93.3735C97.806 93.1214 97.6016 92.917 97.3495 92.917Z" fill="#A1A1A1" stroke="#263238" stroke-linecap="round" stroke-linejoin="round"/>
<path d="M77.6815 99.6259V83.6753" stroke="#263238" stroke-linecap="round" stroke-linejoin="round"/>
<path d="M81.1888 108.136H74.2426L72.7538 99.02H82.6776L81.1888 108.136Z" fill="#263238" stroke="#263238" stroke-linecap="round" stroke-linejoin="round"/>
<path d="M78.6535 94.9082C78.6535 94.9082 78.6185 92.9645 80.8803 91.9211C83.1422 90.8776 85.0572 92.605 85.7046 93.8648C86.1222 94.6913 86.483 95.5453 86.7847 96.4209C86.7847 96.4209 84.5228 94.5471 82.4709 94.5471C81.1902 94.5533 79.9126 94.6742 78.6535 94.9082Z" fill="#FFD000" stroke="#263238" stroke-linecap="round" stroke-linejoin="round"/>
<path d="M80.3459 94.6204L81.3193 93.2524" stroke="#263238" stroke-linecap="round" stroke-linejoin="round"/>
<path d="M82.4709 94.549L83.6591 93.5771" stroke="#263238" stroke-linecap="round" stroke-linejoin="round"/>
<path d="M77.5112 93.6324C77.5112 93.6324 76.9561 91.7698 74.4779 91.4628C71.9997 91.1558 70.705 93.3811 70.4696 94.7776C70.3229 95.6918 70.2379 96.6149 70.2151 97.5405C70.2151 97.5405 71.8057 95.0687 73.7653 94.4468C74.9871 94.064 76.2408 93.7914 77.5112 93.6324Z" fill="#FFD000" stroke="#263238" stroke-linecap="round" stroke-linejoin="round"/>
<path d="M75.8111 93.8712L74.4702 92.8628" stroke="#263238" stroke-linecap="round" stroke-linejoin="round"/>
<path d="M73.7656 94.4471L72.3388 93.8809" stroke="#263238" stroke-linecap="round" stroke-linejoin="round"/>
<path d="M75.5152 88.7844C75.5152 88.7844 75.0841 87.3386 73.1627 87.1C71.2412 86.8614 70.2359 88.5888 70.053 89.672C69.9375 90.3813 69.87 91.0977 69.851 91.8161C69.851 91.8161 71.0869 89.8994 72.6044 89.4159C73.5539 89.1191 74.528 88.9077 75.5152 88.7844Z" fill="#FFD000" stroke="#263238" stroke-linecap="round" stroke-linejoin="round"/>
<path d="M74.1964 88.9686L73.1561 88.186" stroke="#263238" stroke-linecap="round" stroke-linejoin="round"/>
<path d="M72.6089 89.4161L71.5018 88.9771" stroke="#263238" stroke-linecap="round" stroke-linejoin="round"/>
<path d="M79.3167 87.8826C79.3167 87.8826 79.7477 86.4367 81.6707 86.1981C83.5938 85.9595 84.5975 87.6869 84.7804 88.7717C84.8944 89.4812 84.9603 90.1975 84.9776 90.9159C84.9776 90.9159 83.7417 88.9976 82.2243 88.514C81.2758 88.2174 80.3027 88.0061 79.3167 87.8826Z" fill="#FFD000" stroke="#263238" stroke-linecap="round" stroke-linejoin="round"/>
<path d="M80.6371 88.0687L81.6773 87.2861" stroke="#263238" stroke-linecap="round" stroke-linejoin="round"/>
<path d="M82.2243 88.5137L83.3314 88.0747" stroke="#263238" stroke-linecap="round" stroke-linejoin="round"/>
<path d="M78.2942 94.7287C77.8155 94.5203 77.2835 94.4675 76.7733 94.5776C76.263 94.6878 75.8002 94.9554 75.4502 95.3426C74.1538 96.7106 75.2338 98.842 76.1341 99.9554C76.6966 100.648 77.2977 101.309 77.9347 101.934C77.9347 101.934 80.0947 100.566 80.8503 99.0185C81.6058 97.4709 81.9637 96.2827 80.995 95.2377C80.0263 94.1926 78.2942 94.7287 78.2942 94.7287Z" fill="#FFD000" stroke="#263238" stroke-linecap="round" stroke-linejoin="round"/>
<path d="M78.2938 94.7285C78.2938 94.7285 77.5383 98.8641 77.7546 101.427" stroke="#263238" stroke-linecap="round" stroke-linejoin="round"/>
<path d="M78.0777 96.6372L78.8348 97.862" stroke="#263238" stroke-linecap="round" stroke-linejoin="round"/>
<path d="M77.8981 98.0415L76.9262 99.5542" stroke="#263238" stroke-linecap="round" stroke-linejoin="round"/>
<path d="M78.186 95.5938L76.9262 95.8817" stroke="#263238" stroke-linecap="round" stroke-linejoin="round"/>
<path d="M79.3166 87.8823C79.3166 87.8823 78.1141 88.1766 77.7546 89.0403" stroke="#263238" stroke-linecap="round" stroke-linejoin="round"/>
<path d="M75.5153 88.7842C75.5153 88.7842 77.4654 89.1834 77.6817 90.3" stroke="#263238" stroke-linecap="round" stroke-linejoin="round"/>
<path d="M77.7181 91.3801C77.7181 91.3801 78.6184 89.6877 79.8781 89.5079C81.1379 89.3282 82.5758 90.4114 82.5758 90.4114C82.5758 90.4114 80.0197 91.9241 79.1194 91.9241C78.5995 91.9307 78.0973 91.7358 77.7181 91.3801Z" fill="#FFD000" stroke="#263238" stroke-linecap="round" stroke-linejoin="round"/>
<path d="M77.718 91.3804C77.718 91.3804 76.9227 90.1572 75.5214 90.0125C74.1201 89.8677 72.6058 91.8433 72.6058 91.8433C72.6058 91.8433 73.145 92.2043 74.5861 92.1327C76.0272 92.0612 77.718 91.3804 77.718 91.3804Z" fill="#FFD000" stroke="#263238" stroke-linecap="round" stroke-linejoin="round"/>
<path d="M77.6448 88.4646C77.6448 88.4646 76.024 86.874 75.9524 85.2962C75.8809 83.7183 77.8262 81.186 77.8262 81.186C77.8262 81.186 79.0143 84.2829 79.0859 85.5793C79.1575 86.8756 77.6448 88.4646 77.6448 88.4646Z" fill="#FFD000" stroke="#263238" stroke-linecap="round" stroke-linejoin="round"/>
<path d="M77.6815 87.0234L77.1057 86.1963" stroke="#263238" stroke-linecap="round" stroke-linejoin="round"/>
<path d="M77.7546 85.1162L78.1507 84.4307" stroke="#263238" stroke-linecap="round" stroke-linejoin="round"/>
<path d="M18.5969 97.0378C18.5969 97.0378 18.4871 96.4922 18.888 95.5092C19.112 94.9491 19.3929 94.4134 19.7262 93.9106C20.0924 94.5227 20.3972 95.1696 20.636 95.8416C20.8077 96.3593 20.9057 96.8985 20.9271 97.4434C20.9271 97.4434 20.4499 98.4995 20.0173 98.8638C19.5846 99.228 19.2522 99.0467 18.9611 98.6093C18.67 98.1719 18.5969 97.0378 18.5969 97.0378Z" fill="#FFD000" stroke="#263238" stroke-linecap="round" stroke-linejoin="round"/>
<path d="M17.3228 98.1672C17.2346 97.7733 17.1977 97.3696 17.213 96.9663C17.213 96.128 17.5773 94.8174 17.5773 94.8174C17.9812 95.255 18.3241 95.745 18.5969 96.2744C18.9611 97.0379 19.6164 98.5314 19.6164 98.5314C19.7913 97.9985 20.0233 97.486 20.3084 97.0029C20.7855 96.2076 21.9483 95.145 21.9483 95.145V96.7468C21.9457 97.3486 21.8218 97.9436 21.584 98.4964C21.584 98.4964 21.4743 98.8607 20.0904 99.1534C18.7066 99.446 17.5773 99.1152 17.3228 98.1672Z" fill="#FFD000" stroke="#263238" stroke-linecap="round" stroke-linejoin="round"/>
<path d="M16.3017 99.5158C16.3017 99.5158 15.7927 99.115 15.7927 98.2434C15.7996 97.6784 15.8727 97.1163 16.0106 96.5684C16.0106 96.5684 16.1936 96.6416 16.7026 97.0774C17.2115 97.5133 18.3425 98.6442 18.3425 98.7174C18.3425 98.7905 18.4506 98.3897 18.888 97.9221C19.3255 97.4544 20.6377 96.3203 20.6377 96.3203C20.727 96.8015 20.788 97.2874 20.8206 97.7757C20.8206 98.2131 20.8938 98.8319 20.8938 98.8319C21.2176 98.3416 21.5959 97.8897 22.0215 97.4846C22.4341 97.1337 22.8728 96.8147 23.3338 96.5303C23.3338 96.5303 23.4419 96.7848 23.4054 97.5133C23.3688 98.2418 22.8598 99.589 22.7134 99.8085C22.5671 100.028 22.0581 100.464 21.0751 100.682C20.0921 100.9 18.4156 101.046 17.5424 100.792C16.6691 100.537 16.3017 99.5158 16.3017 99.5158Z" fill="#FFD000" stroke="#263238" stroke-linecap="round" stroke-linejoin="round"/>
<path d="M15.7927 100.9C15.7927 100.9 15.5016 100.68 14.7 99.7337C14.1854 99.0932 13.7905 98.3653 13.5341 97.5848C13.5341 97.5848 13.9715 97.6214 14.7 98.062C15.4285 98.5026 17.614 100.211 17.614 100.211C17.3764 99.7368 17.3242 99.1912 17.4676 98.6807C17.7221 97.8854 18.0514 97.5514 18.0514 97.5514C18.0514 97.5514 18.8149 98.2433 19.071 98.7905C19.327 99.3376 19.6165 100.138 19.6165 100.138C19.8521 99.5297 20.184 98.9636 20.5995 98.4612C21.0185 98.011 21.4963 97.6194 22.0199 97.2969C22.0199 97.2969 22.3476 98.0922 22.1297 98.7905C21.9118 99.4887 21.6923 100.028 21.6923 100.028C21.6923 100.028 22.4876 98.6441 23.1493 98.3165C23.811 97.9888 25.225 97.6977 25.225 97.6977C25.225 97.6977 24.6428 99.0084 24.1688 99.5905C23.8037 100.025 23.415 100.438 23.0045 100.83C23.0045 100.83 19.362 101.555 15.7927 100.9Z" fill="#FFD000" stroke="#263238" stroke-linecap="round" stroke-linejoin="round"/>
<path d="M20.9825 108.135H18.0049C17.4128 108.135 16.8405 107.922 16.3923 107.536C15.9441 107.149 15.6499 106.614 15.5633 106.028L14.7887 100.809H24.2003L23.4273 106.028C23.3403 106.614 23.0455 107.149 22.5967 107.536C22.1479 107.923 21.575 108.136 20.9825 108.135Z" fill="#263238" stroke="#263238" stroke-linecap="round" stroke-linejoin="round"/>
<path d="M24.1259 100.413H14.8209C14.5688 100.413 14.3644 100.617 14.3644 100.87V101.083C14.3644 101.335 14.5688 101.539 14.8209 101.539H24.1259C24.378 101.539 24.5824 101.335 24.5824 101.083V100.87C24.5824 100.617 24.378 100.413 24.1259 100.413Z" fill="#A1A1A1" stroke="#263238" stroke-linecap="round" stroke-linejoin="round"/>
</g>
<defs>
<clipPath id="clip0_896_26265">
<rect width="120" height="120" fill="white" transform="translate(0.5)"/>
</clipPath>
</defs>
</svg>
