<svg width="210" height="210" viewBox="0 0 210 210" fill="none" xmlns="http://www.w3.org/2000/svg">
<g clip-path="url(#clip0_171_20930)">
<path d="M22.4102 198.793L22.6496 198.913H191.947C193.13 197.649 193.873 195.575 194.48 193.582C201.973 168.865 201.667 135.997 194.597 108.57C191.46 96.4165 186.995 85.3384 181.291 76.5275C171.27 61.0682 157.115 52.6479 142.93 47.4291C127.083 41.5981 110.033 39.2947 94.5728 46.9941C79.1126 54.6936 66.8869 71.3368 52.2005 81.3075C45.3974 85.9263 38.1265 87.5895 31.6017 93.4406C25.1616 99.2067 19.7046 107.002 15.6376 116.245C15.1533 117.354 14.6894 118.48 14.2458 119.624C7.29512 137.829 6.17889 160.513 11.298 179.963C13.394 187.92 16.8875 195.845 22.4102 198.793Z" fill="#FFC100"/>
<path opacity="0.7" d="M22.4102 198.793L22.6496 198.913H191.947C193.13 197.649 193.873 195.575 194.48 193.582C201.973 168.865 201.667 135.997 194.597 108.57C191.46 96.4165 186.995 85.3384 181.291 76.5275C171.27 61.0682 157.115 52.6479 142.93 47.4291C127.083 41.5981 110.033 39.2947 94.5728 46.9941C79.1126 54.6936 66.8869 71.3368 52.2005 81.3075C45.3974 85.9263 38.1265 87.5895 31.6017 93.4406C25.1616 99.2067 19.7046 107.002 15.6376 116.245C15.1533 117.354 14.6894 118.48 14.2458 119.624C7.29512 137.829 6.17889 160.513 11.298 179.963C13.394 187.92 16.8875 195.845 22.4102 198.793Z" fill="white"/>
<path opacity="0.5" d="M210 190.5C210 190.559 143.998 190.375 68.6147 190.375C-6.76813 190.375 0.773646 190.559 0.773646 190.5C0.773646 190.44 -6.79653 190.154 68.6147 190.154C144.026 190.154 210 190.436 210 190.5Z" fill="#263238"/>
<g opacity="0.3">
<path d="M161.099 83.7122C166.973 83.7122 172.606 86.0454 176.759 90.1986C180.912 94.3517 183.245 99.9847 183.245 105.858V185.515H138.951V105.858C138.951 99.9847 141.284 94.3517 145.437 90.1986C149.59 86.0454 155.223 83.7122 161.097 83.7122H161.099Z" stroke="black" stroke-linecap="round" stroke-linejoin="round"/>
<path d="M143.953 185.276V106.574C143.953 102.026 145.76 97.6647 148.975 94.449C152.191 91.2334 156.552 89.4269 161.1 89.4269C165.647 89.4276 170.008 91.2345 173.223 94.45C176.438 97.6656 178.244 102.026 178.244 106.574V185.276" stroke="black" stroke-linecap="round" stroke-linejoin="round"/>
<path d="M161.1 83.7122V185.396" stroke="black" stroke-linecap="round" stroke-linejoin="round"/>
<path d="M139.19 103.3H182.947" stroke="black" stroke-linecap="round" stroke-linejoin="round"/>
<path d="M139.19 117.112H182.947" stroke="black" stroke-linecap="round" stroke-linejoin="round"/>
<path d="M139.19 130.924H182.947" stroke="black" stroke-linecap="round" stroke-linejoin="round"/>
<path d="M139.19 144.733H182.947" stroke="black" stroke-linecap="round" stroke-linejoin="round"/>
<path d="M139.19 158.545H182.947" stroke="black" stroke-linecap="round" stroke-linejoin="round"/>
<path d="M139.19 172.357H182.947" stroke="black" stroke-linecap="round" stroke-linejoin="round"/>
<path d="M145.042 90.6237L149.008 94.2367" stroke="black" stroke-linecap="round" stroke-linejoin="round"/>
<path d="M176.991 90.6237L173.022 94.2367" stroke="black" stroke-linecap="round" stroke-linejoin="round"/>
</g>
<path d="M140.882 56.661C148.716 53.2843 156.015 47.8296 156.015 47.8296C156.015 47.8296 150.467 49.0816 143.735 50.8946C152.644 45.4191 160.68 37.0864 160.68 37.0864C160.68 37.0864 153.963 39.819 146.067 43.4451C150.021 39.624 153.677 35.5063 157.002 31.1278C157.002 31.1278 147.459 36.5825 138.15 42.7281C144.784 34.8994 149.792 24.5458 149.792 24.5458C149.792 24.5458 141.231 31.746 133.215 39.4709C138.617 30.3278 141.781 18.1976 141.781 18.1976C141.781 18.1976 135.438 26.1043 129.365 34.7539C132.586 25.0809 133.412 13.8079 133.412 13.8079C133.412 13.8079 129.069 21.8756 124.83 30.9252C126.072 21.2938 125.121 11.1844 125.121 11.1844C125.121 11.1844 122.321 19.434 119.703 28.7693C119.329 22.439 118.376 16.1563 116.856 10C116.856 10 114.747 22.4679 113.682 34.2188C112.123 23.2471 105.687 10.4779 105.687 10.4779C105.687 10.4779 106.082 18.8885 107.022 28.3433C104.429 22.7362 101.345 17.3696 97.806 12.3066C97.806 12.3066 99.5307 20.7276 101.962 30.0369C98.4812 24.8109 94.5361 19.9095 90.1746 15.3924C90.1746 15.3924 94.5696 27.0758 99.5255 37.6994C92.6578 29.0603 80.8237 21.3665 80.8237 21.3665C80.8237 21.3665 86.0187 29.3875 92.024 37.6475C84.081 31.6733 74.2989 27.429 74.2989 27.429C74.2989 27.429 81.1043 34.8786 88.6941 42.2087C79.6497 37.4916 68.6312 34.889 68.6312 34.889C68.6312 34.889 76.7457 41.1229 85.5719 47.014C75.7898 43.923 64.3402 43.3048 64.3402 43.3048C64.3402 43.3048 71.3897 46.9412 79.7224 50.7024C73.8294 50.1671 67.9018 50.1288 62.0024 50.5881C62.0024 50.5881 72.9794 54.3544 83.9407 57.2636C79.0754 57.597 74.2465 58.3355 69.5039 59.4715C69.5039 59.4715 73.1924 60.1104 78.2315 60.8221C75.2622 61.4832 72.3285 62.2946 69.4416 63.2534C69.4416 63.2534 80.4393 64.204 90.45 64.256C91.5253 64.256 92.6422 64.256 93.7747 64.2144C87.3278 65.9651 80.6887 69.8873 80.6887 69.8873C80.6887 69.8873 89.0681 68.9314 96.58 67.4561C103.037 66.1833 111.089 63.5703 113.204 62.8638V62.9469L113.251 62.8482H113.334C113.334 62.9521 113.334 63.0092 113.334 63.0092C113.334 63.0092 113.334 62.9469 113.391 62.8274H113.464C113.49 62.9105 113.505 62.9728 113.516 63.0092L114.097 169.293L115.869 169.235L115.292 63.2118C119.412 65.2898 127.557 69.2587 134.202 71.3731C143.511 74.329 156.852 73.529 156.852 73.529C156.852 73.529 147.667 70.0847 138.404 67.295C147.626 67.5756 158.244 64.7755 158.244 64.7755C158.244 64.7755 147.62 63.0508 137.563 62.178C146.992 60.8066 157.823 55.3311 157.823 55.3311C157.823 55.3311 149.626 55.7155 140.882 56.661Z" fill="#B2B2B2"/>
<path d="M114.872 100.293C116.15 91.8564 115.391 82.7913 115.391 82.7913C115.391 82.7913 113.521 88.1628 111.495 94.8383C111.563 84.3757 108.742 73.1547 108.742 73.1547C108.742 73.1547 107.511 80.2977 106.409 88.9213C105.256 83.5438 103.693 78.2624 101.734 73.1235C101.734 73.1235 101.303 84.0952 101.573 95.2332C98.4558 85.4615 92.3153 75.7521 92.3153 75.7521C92.3153 75.7521 93.8998 86.8225 96.2219 97.7111C91.3179 88.2927 82.7151 79.1912 82.7151 79.1912C82.7151 79.1912 86.0814 88.7603 90.201 98.506C83.6917 90.6616 74.559 83.9965 74.559 83.9965C74.559 83.9965 79.1098 91.95 84.5541 100.329C77.0318 94.1838 67.9303 89.6382 67.9303 89.6382C67.9303 89.6382 73.4473 96.3916 79.9825 103.54C74.4149 100.502 68.5809 97.9809 62.5535 96.0072C62.5535 96.0072 72.0239 104.397 81.4267 111.504C71.2966 107.02 57.0521 105.737 57.0521 105.737C57.0521 105.737 64.4029 109.852 72.9226 114.049C66.7915 113.281 60.6044 113.056 54.4338 113.379C54.4338 113.379 62.4912 116.371 71.6758 119.229C65.3944 119.426 59.1437 120.191 53 121.514C53 121.514 65.2393 123.956 76.8967 125.374C65.9354 126.631 53.1558 132.585 53.1558 132.585C53.1558 132.585 62.699 132.439 72.8966 131.686C63.6392 135.297 54.8598 141.364 54.8598 141.364C54.8598 141.364 64.7873 139.515 75.0214 136.949C66.2315 142.133 58.1949 150.107 58.1949 150.107C58.1949 150.107 67.7588 146.502 77.4474 142.144C69.655 148.809 63.073 158.206 63.073 158.206C63.073 158.206 69.8784 154.133 77.4838 149.058C73.9151 153.777 70.7489 158.787 68.0186 164.035C68.0186 164.035 77.0214 156.71 85.2814 148.97C82.9932 153.273 81.0679 157.76 79.5254 162.383C79.5254 162.383 82.0138 159.593 85.2866 155.692C84.2709 158.561 83.4039 161.481 82.6891 164.44C82.6891 164.44 89.3075 155.609 94.6375 147.141C95.2141 146.227 95.7908 145.271 96.3622 144.294C94.4401 150.689 94.2583 158.398 94.2583 158.398C94.2583 158.398 97.8947 150.783 100.596 143.629C102.934 137.473 104.97 129.255 105.495 127.078L105.562 127.13L105.505 127.037V126.953L105.646 127.031L105.521 126.886V126.808L105.698 126.86L115.339 131.624L114.913 128.777L106.861 125.437C110.815 123.047 118.477 118.226 123.781 113.701C131.215 107.363 137.589 95.6176 137.589 95.6176C137.589 95.6176 129.797 101.592 122.56 107.992C127.672 100.314 130.914 89.8096 130.914 89.8096C130.914 89.8096 123.828 97.9137 117.776 105.992C121.599 97.2644 122.669 85.2121 122.669 85.2121C122.669 85.2121 118.695 92.3759 114.872 100.293Z" fill="#B2B2B2"/>
<path d="M138.68 119.343C141.751 121.598 145.042 123.537 148.503 125.13C148.503 125.13 146.025 122.382 142.851 119.135C148.8 122.45 156.088 124.356 156.088 124.356C156.088 124.356 152.394 121.416 147.823 118.086C151.252 119.113 154.755 119.877 158.301 120.372C158.301 120.372 152.176 116.683 145.735 113.348C152.291 114.621 159.761 114.169 159.761 114.169C159.761 114.169 152.945 111.602 146.005 109.493C152.914 109.649 160.81 107.576 160.81 107.576C160.81 107.576 154.296 106.501 147.444 105.795C153.958 104.548 160.623 101.431 160.623 101.431C160.623 101.431 154.66 101.535 148.155 102.013C152.123 100.342 155.92 98.2947 159.496 95.8982C159.496 95.8982 153.922 96.9372 147.787 98.4177C151.266 96.194 154.533 93.6551 157.548 90.8331C157.548 90.8331 149.771 93.6072 142.768 96.7553C148.483 92.3812 153.678 84.6563 153.678 84.6563C153.678 84.6563 149.028 87.5603 143.963 91.1032C146.324 87.8424 148.393 84.3795 150.145 80.7549C150.145 80.7549 145.911 84.4173 141.402 88.7603C143.269 85.1186 144.804 81.3161 145.989 77.399C145.989 77.399 140.758 83.6329 136.301 89.8149C139.018 83.1602 139.625 74.0067 139.625 74.0067C139.625 74.0067 136.721 79.4977 133.952 85.5498C134.443 81.1256 134.487 76.663 134.082 72.23C134.082 72.23 132.004 78.4639 130.285 85.1135C130.082 78.4743 128.051 71.3884 128.051 71.3884C128.051 71.3884 127.111 77.9756 126.56 84.8953C125.199 78.36 121.885 71.6586 121.885 71.6586C121.885 71.6586 122.077 76.8171 122.586 82.7498C121.015 79.2336 119.148 75.857 117.007 72.656C117.007 72.656 118.368 80.09 120.207 87.233C118.468 84.5797 116.511 82.0757 114.357 79.7471C114.357 79.7471 115.168 82.0381 116.368 85.1291C115.055 83.6546 113.668 82.2484 112.212 80.916C112.212 80.916 115.178 87.4616 118.336 93.1604C118.674 93.7734 119.043 94.402 119.417 95.0358C117.178 92.8857 114.699 90.9997 112.03 89.4149C112.03 89.4149 115.24 93.8669 118.472 97.6593C120.96 100.462 123.6 103.128 126.378 105.644H126.331H126.399L126.441 105.685L126.352 105.737H126.477L126.513 105.774L126.43 105.862L116.679 111.769L117.277 112.756L126.877 106.937C127.002 109.94 127.355 115.821 128.269 120.268C129.558 126.502 134.264 133.816 134.264 133.816C134.264 133.816 133.293 127.504 131.911 121.348C134.69 126.673 139.662 131.806 139.662 131.806C139.662 131.806 137.256 125.229 134.55 119.244C138.332 124.159 144.883 128.554 144.883 128.554C144.883 128.554 141.999 124.008 138.68 119.343Z" fill="#B2B2B2"/>
<path d="M114.872 147.286C113.526 150.85 112.543 154.539 111.937 158.3C111.937 158.3 113.921 155.183 116.197 151.245C114.602 157.863 114.727 165.396 114.727 165.396C114.727 165.396 116.566 161.053 118.545 155.749C118.475 159.328 118.68 162.908 119.158 166.456C119.158 166.456 121.064 159.567 122.545 152.466C123.064 159.126 125.522 166.191 125.522 166.191C125.522 166.191 126.161 158.918 126.306 151.692C128.015 158.388 132.135 165.438 132.135 165.438C132.135 165.438 131.423 158.871 130.259 152.087C133.215 158.024 138.016 163.604 138.016 163.604C138.016 163.604 136.312 157.889 134.109 151.77C136.787 155.129 139.781 158.224 143.049 161.011C143.049 161.011 140.551 155.92 137.47 150.409C140.549 153.161 143.874 155.625 147.403 157.77C147.403 157.77 142.644 151.048 137.735 145.146C143.491 149.494 152.333 152.419 152.333 152.419C152.333 152.419 148.286 148.72 143.501 144.793C147.274 146.189 151.163 147.248 155.122 147.957C155.122 147.957 150.447 144.866 145.06 141.686C149.067 142.496 153.139 142.943 157.226 143.021C157.226 143.021 149.829 139.655 142.681 137.032C149.818 137.858 158.785 135.993 158.785 135.993C158.785 135.993 152.743 134.678 146.146 133.639C150.54 132.922 154.851 131.764 159.013 130.185C159.013 130.185 152.447 129.883 145.579 129.987C151.917 128.008 158.198 124.148 158.198 124.148C158.198 124.148 151.6 125.011 144.811 126.34C150.743 123.27 156.307 118.293 156.307 118.293C156.307 118.293 151.392 119.852 145.813 121.93C148.776 119.469 151.527 116.764 154.037 113.841C154.037 113.841 147.247 117.145 140.857 120.839C142.95 118.451 144.841 115.893 146.509 113.192C146.509 113.192 144.514 114.589 141.834 116.579C142.901 114.91 143.881 113.186 144.769 111.415C144.769 111.415 139.262 116.028 134.623 120.605C134.104 121.099 133.615 121.618 133.106 122.164C134.577 119.429 135.727 116.533 136.535 113.535C136.535 113.535 133.111 117.826 130.327 121.956C128.295 125.107 126.438 128.368 124.763 131.722L124.727 131.676V131.743V131.795L124.649 131.728L124.706 131.837L124.68 131.883L124.576 131.821L116.264 139.614L115.475 140.45L123.662 132.548C120.799 133.478 115.23 135.395 111.194 137.478C105.537 140.388 99.7651 146.886 99.7651 146.886C99.7651 146.886 105.583 144.258 111.126 141.276C106.747 145.385 103.137 151.557 103.137 151.557C103.137 151.557 108.851 147.468 113.864 143.245C110.15 148.211 107.677 155.713 107.677 155.713C107.677 155.713 111.272 151.738 114.872 147.286Z" fill="#B2B2B2"/>
<path d="M28.2933 101.713V106.167H26.9015V101.279C26.9015 100.724 26.681 100.192 26.2884 99.7991C25.8959 99.4065 25.3635 99.186 24.8083 99.186C24.5335 99.186 24.2615 99.2401 24.0077 99.3454C23.7539 99.4506 23.5233 99.6048 23.3291 99.7992C23.135 99.9936 22.9811 100.224 22.8762 100.478C22.7713 100.732 22.7175 101.004 22.7178 101.279V107.342H21.4346V104.121C21.4346 103.924 21.3957 103.728 21.3202 103.546C21.2447 103.364 21.1339 103.198 20.9944 103.058C20.8548 102.919 20.6891 102.808 20.5067 102.733C20.3243 102.657 20.1289 102.618 19.9315 102.618C19.7342 102.618 19.5389 102.657 19.3567 102.733C19.1745 102.808 19.009 102.919 18.8696 103.059C18.7303 103.198 18.6198 103.364 18.5446 103.546C18.4693 103.729 18.4308 103.924 18.4312 104.121V109.056C18.4312 109.313 18.5329 109.558 18.7141 109.739C18.8952 109.921 19.1409 110.022 19.3971 110.022H22.7151V113.683H26.8904V108.951H29.7853C30.0983 108.951 30.3985 108.826 30.6198 108.605C30.8412 108.384 30.9655 108.083 30.9655 107.77V101.713C30.9655 101.358 30.8242 101.016 30.5726 100.765C30.3209 100.513 29.9797 100.372 29.6238 100.372C29.2699 100.375 28.9315 100.517 28.6823 100.769C28.4331 101.02 28.2933 101.36 28.2933 101.713Z" fill="#FFC100"/>
<path d="M28.5275 113.379H21.1733V120.196H28.5275V113.379Z" fill="#B2B2B2"/>
<path d="M28.9616 111.762H20.7334V113.955H28.9616V111.762Z" fill="#B2B2B2"/>
<path d="M26.2195 138.707L23.5361 134.417L25.326 134.596L25.145 132.09L27.113 134.596L27.2912 126.905L28.7219 131.912L30.5117 125.474L31.0462 132.984L34.623 129.229L32.1206 135.13L34.623 134.236L29.7964 139.603L26.2195 138.707Z" fill="#FFC100"/>
<path d="M32.2038 139.291H24.8496V146.108H32.2038V139.291Z" fill="#B2B2B2"/>
<path d="M32.6384 137.674H24.4102V139.868H32.6384V137.674Z" fill="#B2B2B2"/>
<path d="M64.31 138.707L61.6294 134.417L63.4164 134.596L63.2383 132.09L65.2063 134.596L65.3844 126.905L66.8152 131.912L68.6022 125.474L69.1394 132.984L72.7163 129.229L70.2139 135.13L72.7163 134.236L67.8868 139.603L64.31 138.707Z" fill="#FFC100"/>
<path d="M70.2946 139.291H62.9404V146.108H70.2946V139.291Z" fill="#B2B2B2"/>
<path d="M70.7311 137.674H62.5029V139.868H70.7311V137.674Z" fill="#B2B2B2"/>
<path d="M45.7129 137.813C44.4538 137.794 43.1981 137.675 41.9579 137.457C39.9899 137.098 39.6309 135.845 40.5272 135.489C41.4235 135.133 44.4603 135.667 44.4603 135.667C44.4603 135.667 40.5272 135.667 39.9899 133.343C39.4527 131.019 41.4207 131.197 41.9579 131.734C42.4951 132.271 43.9231 133.343 43.9231 133.343C43.9231 133.343 40.8835 130.303 40.8835 128.513C40.8835 126.724 42.8514 126.905 43.3887 127.979C43.9259 129.053 45.1785 132.268 45.1785 132.268C45.1785 132.268 43.2105 126.548 45.7157 127.442C48.2209 128.335 47.6809 131.019 47.6809 131.553V133.88C47.6809 133.88 50.1861 129.051 51.0796 130.125C51.9732 131.2 49.827 133.168 49.827 133.168C49.827 133.168 51.0796 128.516 54.1193 128.697C57.1589 128.878 54.3002 131.021 53.763 131.915C53.2258 132.808 50.9015 134.776 50.9015 134.776C50.9015 134.776 56.0873 132.452 58.5897 132.452C61.0921 132.452 58.7706 135.314 57.3399 135.492C55.9091 135.67 53.2258 136.029 53.2258 136.029C53.2258 136.029 56.8026 137.638 55.3719 137.994C53.9411 138.351 50.3615 137.638 50.3615 137.638L45.7129 137.813Z" fill="#FFC100"/>
<path d="M51.5168 139.291H44.1626V146.108H51.5168V139.291Z" fill="#B2B2B2"/>
<path d="M51.9538 137.674H43.7256V139.868H51.9538V137.674Z" fill="#B2B2B2"/>
<path d="M56.7858 104.809V108.116H57.8185V104.497C57.8185 104.086 57.9819 103.691 58.2726 103.401C58.5634 103.11 58.9577 102.947 59.3689 102.947C59.7801 102.947 60.1745 103.11 60.4653 103.401C60.756 103.691 60.9194 104.086 60.9194 104.497V108.987H61.8714V106.604C61.8714 106.309 61.9887 106.026 62.1975 105.817C62.4063 105.608 62.6895 105.491 62.9848 105.491C63.2801 105.491 63.5633 105.608 63.7721 105.817C63.9809 106.026 64.0982 106.309 64.0982 106.604V110.259C64.0982 110.449 64.0228 110.631 63.8887 110.765C63.7545 110.899 63.5726 110.974 63.3828 110.974H60.9194V113.683H57.8129V110.173H55.6724C55.4406 110.173 55.2183 110.081 55.0543 109.917C54.8904 109.753 54.7983 109.53 54.7983 109.299V104.809C54.7983 104.545 54.903 104.292 55.0894 104.106C55.2758 103.92 55.5285 103.815 55.7921 103.815C56.0556 103.815 56.3084 103.92 56.4947 104.106C56.6811 104.292 56.7858 104.545 56.7858 104.809Z" fill="#FFC100"/>
<path d="M62.7008 113.379H55.3467V120.196H62.7008V113.379Z" fill="#B2B2B2"/>
<path d="M63.1354 111.762H54.9072V113.955H63.1354V111.762Z" fill="#B2B2B2"/>
<path d="M28.3937 156.708V160.007H29.4264V156.388C29.4264 155.977 29.5898 155.583 29.8805 155.292C30.1713 155.001 30.5657 154.838 30.9769 154.838C31.1803 154.838 31.3818 154.878 31.5698 154.956C31.7577 155.034 31.9285 155.148 32.0722 155.292C32.216 155.436 32.3299 155.607 32.4075 155.795C32.4851 155.983 32.5249 156.185 32.5245 156.388V160.878H33.4793V158.498C33.4793 158.203 33.5966 157.92 33.8054 157.711C34.0142 157.502 34.2974 157.385 34.5927 157.385C34.888 157.385 35.1712 157.502 35.38 157.711C35.5888 157.92 35.7061 158.203 35.7061 158.498V162.156C35.7061 162.345 35.6308 162.527 35.4966 162.661C35.3624 162.796 35.1805 162.871 34.9907 162.871H32.5245V165.574H29.4208V162.072H27.2803C27.1654 162.072 27.0516 162.05 26.9454 162.006C26.8392 161.963 26.7427 161.898 26.6614 161.817C26.5802 161.736 26.5158 161.639 26.472 161.533C26.4282 161.427 26.4059 161.313 26.4063 161.198V156.708C26.4063 156.445 26.511 156.192 26.6973 156.006C26.8837 155.819 27.1364 155.714 27.4 155.714C27.6635 155.714 27.9163 155.819 28.1027 156.006C28.289 156.192 28.3937 156.445 28.3937 156.708Z" fill="#FFC100"/>
<path d="M34.3058 165.276H26.9517V172.093H34.3058V165.276Z" fill="#B2B2B2"/>
<path d="M34.7428 163.661H26.5146V165.855H34.7428V163.661Z" fill="#B2B2B2"/>
<path d="M64.8586 156.708V160.007H65.8913V156.388C65.8913 155.977 66.0546 155.583 66.3454 155.292C66.6361 155.001 67.0305 154.838 67.4417 154.838C67.8529 154.838 68.2473 155.001 68.538 155.292C68.8288 155.583 68.9921 155.977 68.9921 156.388V160.878H69.9441V158.498C69.9441 158.203 70.0614 157.92 70.2702 157.711C70.479 157.502 70.7622 157.385 71.0575 157.385C71.3528 157.385 71.636 157.502 71.8448 157.711C72.0537 157.92 72.171 158.203 72.171 158.498V162.156C72.171 162.345 72.0956 162.527 71.9614 162.661C71.8273 162.796 71.6453 162.871 71.4556 162.871H68.9921V165.574H65.8913V162.072H63.7451C63.5133 162.072 63.291 161.98 63.1271 161.816C62.9632 161.652 62.8711 161.43 62.8711 161.198V156.708C62.8711 156.445 62.9758 156.192 63.1621 156.006C63.3485 155.819 63.6013 155.714 63.8648 155.714C64.1284 155.714 64.3811 155.819 64.5675 156.006C64.7539 156.192 64.8586 156.445 64.8586 156.708Z" fill="#FFC100"/>
<path d="M70.779 165.276H63.4248V172.093H70.779V165.276Z" fill="#B2B2B2"/>
<path d="M71.2126 163.661H62.9844V165.855H71.2126V163.661Z" fill="#B2B2B2"/>
<path d="M46.1549 165.134C45.4617 164 44.598 162.979 43.5941 162.108C41.9657 160.717 41.498 157.451 41.498 157.451C41.498 157.451 42.1967 157.22 43.5941 158.615C44.5215 159.587 45.3077 160.684 45.9295 161.875C45.9295 161.875 44.9998 157.919 44.9998 156.522C44.9998 155.124 47.3213 151.634 47.3213 151.634C47.3213 151.634 48.0171 154.195 48.0171 155.358V160.725C48.0171 160.725 49.4089 157.941 51.2767 156.302C53.1445 154.662 55.9308 153.975 55.9308 153.975C55.9308 153.975 56.1646 156.758 55.2321 157.699C54.2996 158.64 50.3442 161.888 50.3442 161.888L55.6998 160.959L50.3442 164.215C50.3442 164.215 49.3477 165.521 48.4848 165.148C47.6219 164.775 46.1549 165.134 46.1549 165.134Z" fill="#FFC100"/>
<path d="M51.2965 165.276H43.9424V172.093H51.2965V165.276Z" fill="#B2B2B2"/>
<path d="M51.7306 163.661H43.5024V165.855H51.7306V163.661Z" fill="#B2B2B2"/>
<path d="M69.1395 111.882C69.1395 111.882 66.8153 109.917 66.0999 109.201C65.3845 108.486 63.5947 106.518 65.0254 107.233C66.0909 107.805 67.1075 108.463 68.0651 109.201C68.0651 109.201 66.8069 105.443 66.8069 104.372C66.8069 103.3 68.594 104.015 69.4875 105.802C70.381 107.589 70.9182 108.842 70.9182 108.842C70.9182 108.842 69.3093 101.688 70.7401 101.326C72.1708 100.965 72.5299 105.975 72.5299 105.975C72.5299 105.975 73.7797 97.2123 75.5696 99.1803C77.3594 101.148 74.317 106.334 74.317 106.334C74.317 106.334 77.8938 103.829 77.1785 105.797C76.4631 107.765 74.4951 108.48 74.4951 108.48C74.4951 108.48 79.6837 107.228 78.2529 109.196C76.8222 111.164 72.1708 112.772 72.1708 112.772L69.1395 111.882Z" fill="#FFC100"/>
<path d="M75.38 113.379H68.0259V120.196H75.38V113.379Z" fill="#B2B2B2"/>
<path d="M75.8171 111.762H67.5889V113.955H75.8171V111.762Z" fill="#B2B2B2"/>
<path d="M40.5275 111.882C40.5275 111.882 38.2004 109.917 37.4851 109.201C36.7697 108.486 34.9798 106.518 36.4134 107.233C37.4788 107.805 38.4955 108.463 39.453 109.201C39.453 109.201 38.2004 105.443 38.2004 104.372C38.2004 103.3 39.9903 104.015 40.8838 105.802C41.7773 107.589 42.3117 108.842 42.3117 108.842C42.3117 108.842 40.7028 101.688 42.1336 101.326C43.5643 100.965 43.9206 105.975 43.9206 105.975C43.9206 105.975 45.1732 97.2123 46.9603 99.1803C48.7473 101.148 45.7105 106.334 45.7105 106.334C45.7105 106.334 49.2873 103.829 48.572 105.797C47.8566 107.765 45.8886 108.48 45.8886 108.48C45.8886 108.48 51.0744 107.228 49.6436 109.196C48.2129 111.164 43.5643 112.772 43.5643 112.772L40.5275 111.882Z" fill="#FFC100"/>
<path d="M46.7677 113.379H39.4136V120.196H46.7677V113.379Z" fill="#B2B2B2"/>
<path d="M47.2043 111.762H38.9761V113.955H47.2043V111.762Z" fill="#B2B2B2"/>
<path d="M19.7645 189.237V175.222H80.5574V189.237H82.8677V119.829H17.4541V189.237H19.7645ZM19.7645 123.147H80.5574V145.888H19.7645V123.147ZM19.7645 149.193H80.5574V171.931H19.7645V149.193Z" fill="#B2B2B2"/>
<path d="M159.608 150.3C159.608 150.3 159.388 148.499 160.192 145.257C160.619 143.455 161.178 141.688 161.862 139.968C162.617 142.046 163.229 144.173 163.694 146.334C164.041 148.076 164.237 149.846 164.278 151.623C164.278 151.623 163.326 155.105 162.45 156.304C161.573 157.504 160.91 156.906 160.326 155.469C159.741 154.033 159.608 150.3 159.608 150.3Z" fill="#FFC100" stroke="#263238" stroke-linecap="round" stroke-linejoin="round"/>
<path d="M157.047 154.022C157.047 154.022 156.827 152.822 156.827 150.061C156.827 147.3 157.551 142.974 157.551 142.974C158.401 144.499 159.087 146.109 159.6 147.778C160.332 150.3 161.648 155.224 161.648 155.224C161.988 153.511 162.453 151.826 163.04 150.181C163.992 147.536 166.336 144.057 166.336 144.057V149.346C166.343 151.288 166.104 153.223 165.623 155.105C165.623 155.105 165.403 156.305 162.62 157.265C159.836 158.225 157.551 157.145 157.047 154.022Z" fill="#FFC100" stroke="#263238" stroke-linecap="round" stroke-linejoin="round"/>
<path d="M154.995 158.467C154.995 158.467 153.971 157.145 153.971 154.264C153.983 152.414 154.13 150.568 154.41 148.739C154.41 148.739 154.775 148.978 155.802 150.409C156.829 151.84 159.095 155.573 159.095 155.815C159.095 156.057 159.315 154.732 160.192 153.17C161.069 151.609 163.708 147.882 163.708 147.882C163.708 147.882 164.072 151.244 164.072 152.686C164.072 154.128 164.22 156.168 164.22 156.168C164.22 156.168 165.316 153.407 166.488 151.714C167.282 150.604 168.163 149.56 169.124 148.591C169.124 148.591 169.344 149.426 169.269 151.834C169.194 154.242 168.172 158.679 167.877 159.4C167.582 160.121 166.558 161.563 164.582 162.284C162.605 163.005 159.243 163.508 157.484 162.673C155.724 161.838 154.995 158.467 154.995 158.467Z" fill="#FFC100" stroke="#263238" stroke-linecap="round" stroke-linejoin="round"/>
<path d="M153.971 163.032C153.971 163.032 153.387 162.312 151.775 159.188C150.163 156.065 149.434 152.096 149.434 152.096C149.434 152.096 150.311 152.216 151.775 153.657C153.239 155.099 157.621 160.744 157.621 160.744C157.14 159.107 157.045 157.381 157.342 155.701C157.854 153.056 158.514 151.976 158.514 151.976C158.514 151.976 160.051 154.259 160.563 156.06C161.075 157.861 161.659 160.513 161.659 160.513C161.659 160.513 162.392 157.27 163.636 154.991C164.411 153.587 165.372 152.294 166.492 151.147C166.492 151.147 167.151 153.788 166.712 156.071C166.272 158.353 165.832 160.154 165.832 160.154C165.832 160.154 167.444 155.589 168.76 154.509C170.077 153.429 172.936 152.469 172.936 152.469C172.936 152.469 171.767 156.792 170.815 158.712C169.863 160.633 168.471 162.796 168.471 162.796C168.471 162.796 161.145 165.193 153.971 163.032Z" fill="#FFC100" stroke="#263238" stroke-linecap="round" stroke-linejoin="round"/>
<path d="M167.716 189.256H155.048L153.147 163.297H169.617L167.716 189.256Z" fill="#263238" stroke="#263238" stroke-linecap="round" stroke-linejoin="round"/>
<path d="M169.487 162.604H153.203C152.761 162.604 152.404 162.961 152.404 163.403V163.776C152.404 164.217 152.761 164.575 153.203 164.575H169.487C169.928 164.575 170.285 164.217 170.285 163.776V163.403C170.285 162.961 169.928 162.604 169.487 162.604Z" fill="#A1A1A1" stroke="#263238" stroke-linecap="round" stroke-linejoin="round"/>
<path d="M135.067 174.345V146.431" stroke="#263238" stroke-linecap="round" stroke-linejoin="round"/>
<path d="M141.206 189.237H129.05L126.444 173.284H143.811L141.206 189.237Z" fill="#263238" stroke="#263238" stroke-linecap="round" stroke-linejoin="round"/>
<path d="M136.769 166.089C136.769 166.089 136.707 162.687 140.666 160.861C144.624 159.035 147.975 162.058 149.108 164.263C149.839 165.709 150.47 167.204 150.998 168.736C150.998 168.736 147.04 165.457 143.449 165.457C141.208 165.468 138.972 165.679 136.769 166.089Z" fill="#FFC100" stroke="#263238" stroke-linecap="round" stroke-linejoin="round"/>
<path d="M139.73 165.585L141.434 163.191" stroke="#263238" stroke-linecap="round" stroke-linejoin="round"/>
<path d="M143.449 165.46L145.529 163.759" stroke="#263238" stroke-linecap="round" stroke-linejoin="round"/>
<path d="M134.77 163.856C134.77 163.856 133.798 160.597 129.461 160.06C125.125 159.522 122.859 163.417 122.447 165.861C122.19 167.46 122.041 169.076 122.001 170.696C122.001 170.696 124.785 166.37 128.214 165.282C130.353 164.612 132.546 164.135 134.77 163.856Z" fill="#FFC100" stroke="#263238" stroke-linecap="round" stroke-linejoin="round"/>
<path d="M131.794 164.274L129.448 162.509" stroke="#263238" stroke-linecap="round" stroke-linejoin="round"/>
<path d="M128.215 165.282L125.718 164.291" stroke="#263238" stroke-linecap="round" stroke-linejoin="round"/>
<path d="M131.277 155.372C131.277 155.372 130.522 152.842 127.16 152.424C123.797 152.007 122.038 155.03 121.718 156.925C121.516 158.167 121.397 159.42 121.364 160.678C121.364 160.678 123.527 157.323 126.183 156.477C127.844 155.958 129.549 155.588 131.277 155.372Z" fill="#FFC100" stroke="#263238" stroke-linecap="round" stroke-linejoin="round"/>
<path d="M128.969 155.695L127.148 154.325" stroke="#263238" stroke-linecap="round" stroke-linejoin="round"/>
<path d="M126.191 156.477L124.253 155.709" stroke="#263238" stroke-linecap="round" stroke-linejoin="round"/>
<path d="M137.929 153.794C137.929 153.794 138.684 151.264 142.049 150.846C145.414 150.428 147.171 153.451 147.491 155.35C147.69 156.591 147.806 157.845 147.836 159.102C147.836 159.102 145.673 155.745 143.018 154.899C141.358 154.38 139.655 154.01 137.929 153.794Z" fill="#FFC100" stroke="#263238" stroke-linecap="round" stroke-linejoin="round"/>
<path d="M140.24 154.12L142.06 152.75" stroke="#263238" stroke-linecap="round" stroke-linejoin="round"/>
<path d="M143.018 154.899L144.955 154.131" stroke="#263238" stroke-linecap="round" stroke-linejoin="round"/>
<path d="M136.14 165.774C135.302 165.41 134.371 165.317 133.478 165.51C132.585 165.703 131.775 166.171 131.163 166.849C128.894 169.243 130.784 172.973 132.36 174.921C133.344 176.134 134.396 177.29 135.511 178.384C135.511 178.384 139.291 175.99 140.613 173.282C141.935 170.573 142.561 168.494 140.866 166.665C139.171 164.836 136.14 165.774 136.14 165.774Z" fill="#FFC100" stroke="#263238" stroke-linecap="round" stroke-linejoin="round"/>
<path d="M136.139 165.774C136.139 165.774 134.817 173.012 135.196 177.496" stroke="#263238" stroke-linecap="round" stroke-linejoin="round"/>
<path d="M135.761 169.115L137.086 171.258" stroke="#263238" stroke-linecap="round" stroke-linejoin="round"/>
<path d="M135.446 171.572L133.746 174.22" stroke="#263238" stroke-linecap="round" stroke-linejoin="round"/>
<path d="M135.95 167.289L133.746 167.792" stroke="#263238" stroke-linecap="round" stroke-linejoin="round"/>
<path d="M137.929 153.794C137.929 153.794 135.825 154.309 135.196 155.82" stroke="#263238" stroke-linecap="round" stroke-linejoin="round"/>
<path d="M131.277 155.372C131.277 155.372 134.69 156.071 135.068 158.025" stroke="#263238" stroke-linecap="round" stroke-linejoin="round"/>
<path d="M135.131 159.915C135.131 159.915 136.707 156.953 138.911 156.639C141.116 156.324 143.632 158.22 143.632 158.22C143.632 158.22 139.159 160.867 137.584 160.867C136.674 160.879 135.795 160.537 135.131 159.915Z" fill="#FFC100" stroke="#263238" stroke-linecap="round" stroke-linejoin="round"/>
<path d="M135.131 159.915C135.131 159.915 133.74 157.774 131.287 157.521C128.835 157.268 126.185 160.725 126.185 160.725C126.185 160.725 127.129 161.357 129.651 161.232C132.172 161.106 135.131 159.915 135.131 159.915Z" fill="#FFC100" stroke="#263238" stroke-linecap="round" stroke-linejoin="round"/>
<path d="M135.004 154.813C135.004 154.813 132.167 152.029 132.042 149.268C131.917 146.506 135.321 142.075 135.321 142.075C135.321 142.075 137.4 147.495 137.526 149.763C137.651 152.032 135.004 154.813 135.004 154.813Z" fill="#FFC100" stroke="#263238" stroke-linecap="round" stroke-linejoin="round"/>
<path d="M135.068 152.291L134.06 150.843" stroke="#263238" stroke-linecap="round" stroke-linejoin="round"/>
<path d="M135.196 148.953L135.889 147.753" stroke="#263238" stroke-linecap="round" stroke-linejoin="round"/>
<path d="M31.6696 169.816C31.6696 169.816 31.4775 168.861 32.1789 167.141C32.571 166.161 33.0626 165.223 33.6459 164.344C34.2867 165.415 34.8201 166.547 35.2381 167.723C35.5385 168.629 35.7099 169.572 35.7475 170.526C35.7475 170.526 34.9124 172.374 34.1553 173.012C33.3981 173.649 32.8164 173.332 32.307 172.566C31.7976 171.801 31.6696 169.816 31.6696 169.816Z" fill="#FFC100" stroke="#263238" stroke-linecap="round" stroke-linejoin="round"/>
<path d="M29.4397 171.792C29.2853 171.103 29.2208 170.397 29.2476 169.691C29.2476 168.224 29.8851 165.93 29.8851 165.93C30.5918 166.696 31.192 167.554 31.6693 168.48C32.3068 169.816 33.4536 172.43 33.4536 172.43C33.7595 171.497 34.1655 170.6 34.6644 169.755C35.4995 168.363 37.5343 166.504 37.5343 166.504V169.307C37.5298 170.36 37.313 171.401 36.8968 172.368C36.8968 172.368 36.7048 173.006 34.2831 173.518C31.8614 174.03 29.8851 173.451 29.4397 171.792Z" fill="#FFC100" stroke="#263238" stroke-linecap="round" stroke-linejoin="round"/>
<path d="M27.6529 174.153C27.6529 174.153 26.7622 173.451 26.7622 171.926C26.7742 170.937 26.9022 169.953 27.1436 168.995C27.1436 168.995 27.4637 169.123 28.3544 169.885C29.2451 170.648 31.2243 172.627 31.2243 172.755C31.2243 172.883 31.4135 172.182 32.179 171.364C32.9445 170.545 35.2409 168.56 35.2409 168.56C35.3971 169.403 35.504 170.253 35.561 171.107C35.561 171.873 35.6891 172.956 35.6891 172.956C36.2557 172.098 36.9178 171.307 37.6626 170.598C38.3847 169.984 39.1523 169.426 39.9591 168.928C39.9591 168.928 40.1483 169.373 40.0843 170.648C40.0203 171.923 39.1296 174.281 38.8735 174.665C38.6174 175.049 37.7266 175.812 36.0064 176.193C34.2862 176.574 31.3523 176.83 29.8241 176.385C28.2959 175.94 27.6529 174.153 27.6529 174.153Z" fill="#FFC100" stroke="#263238" stroke-linecap="round" stroke-linejoin="round"/>
<path d="M26.7622 176.574C26.7622 176.574 26.2528 176.19 24.8499 174.534C23.9495 173.413 23.2583 172.139 22.8096 170.773C22.8096 170.773 23.575 170.837 24.8499 171.609C26.1248 172.38 29.9494 175.369 29.9494 175.369C29.5337 174.54 29.4424 173.585 29.6933 172.691C30.1387 171.3 30.7149 170.715 30.7149 170.715C30.7149 170.715 32.051 171.926 32.4991 172.883C32.9473 173.841 33.4539 175.241 33.4539 175.241C33.8661 174.177 34.4469 173.186 35.1741 172.307C35.9073 171.519 36.7434 170.834 37.6599 170.27C37.6599 170.27 38.2333 171.661 37.8519 172.883C37.4706 174.105 37.0864 175.049 37.0864 175.049C37.0864 175.049 38.4782 172.627 39.6362 172.054C40.7941 171.481 43.2687 170.971 43.2687 170.971C43.2687 170.971 42.2499 173.265 41.4204 174.284C40.7815 175.043 40.1013 175.767 39.3829 176.452C39.3829 176.452 33.0085 177.721 26.7622 176.574Z" fill="#FFC100" stroke="#263238" stroke-linecap="round" stroke-linejoin="round"/>
<path d="M35.8445 189.237H30.6337C29.5976 189.237 28.5961 188.864 27.8117 188.187C27.0274 187.51 26.5125 186.574 26.361 185.549L25.0054 176.416H41.4757L40.1229 185.549C39.9706 186.574 39.4548 187.511 38.6694 188.188C37.884 188.865 36.8815 189.237 35.8445 189.237Z" fill="#263238" stroke="#263238" stroke-linecap="round" stroke-linejoin="round"/>
<path d="M41.3454 175.723H25.0616C24.6204 175.723 24.2627 176.08 24.2627 176.522V176.895C24.2627 177.336 24.6204 177.693 25.0616 177.693H41.3454C41.7866 177.693 42.1443 177.336 42.1443 176.895V176.522C42.1443 176.08 41.7866 175.723 41.3454 175.723Z" fill="#A1A1A1" stroke="#263238" stroke-linecap="round" stroke-linejoin="round"/>
</g>
<defs>
<clipPath id="clip0_171_20930">
<rect width="210" height="210" fill="white"/>
</clipPath>
</defs>
</svg>
