<svg width="121" height="120" viewBox="0 0 121 120" fill="none" xmlns="http://www.w3.org/2000/svg">
<g clip-path="url(#clip0_896_28185)">
<path opacity="0.5" d="M120.5 108.857C120.5 108.891 82.7843 108.785 39.7084 108.785C-3.36752 108.785 0.94207 108.891 0.94207 108.857C0.94207 108.823 -3.38374 108.659 39.7084 108.659C82.8005 108.659 120.5 108.82 120.5 108.857Z" fill="#263238"/>
<path d="M76.9855 12.3611C76.9855 12.3611 59.4168 7.91076 42.6592 20.2752C25.9016 32.6396 17.9154 54.2072 11.0173 71.5427C4.11918 88.8781 8.87297 105.12 22.125 111.22C35.377 117.321 43.8953 105.015 62.1477 102.317C80.4001 99.6196 85.3965 101.783 100.232 89.1345C115.068 76.4857 117.04 50.5209 104.514 32.947C91.9876 15.3731 76.9855 12.3611 76.9855 12.3611Z" fill="#FFD000"/>
<path opacity="0.7" d="M76.9855 12.3611C76.9855 12.3611 59.4168 7.91076 42.6592 20.2752C25.9016 32.6396 17.9154 54.2072 11.0173 71.5427C4.11918 88.8781 8.87297 105.12 22.125 111.22C35.377 117.321 43.8953 105.015 62.1477 102.317C80.4001 99.6196 85.3965 101.783 100.232 89.1345C115.068 76.4857 117.04 50.5209 104.514 32.947C91.9876 15.3731 76.9855 12.3611 76.9855 12.3611Z" fill="white"/>
<path d="M51.2367 110.197C63.6233 110.197 73.6647 100.156 73.6647 87.7689C73.6647 75.3822 63.6233 65.3408 51.2367 65.3408C38.85 65.3408 28.8086 75.3822 28.8086 87.7689C28.8086 100.156 38.85 110.197 51.2367 110.197Z" fill="#263238"/>
<mask id="mask0_896_28185" style="mask-type:luminance" maskUnits="userSpaceOnUse" x="27" y="29" width="99" height="79">
<path d="M125.597 29.7144H51.7343V51.6244C47.1578 52.2112 42.7979 53.9227 39.0444 56.606C35.2909 59.2892 32.2605 62.8606 30.2243 67.0009C28.188 71.1412 27.2092 75.7216 27.3753 80.3325C27.5414 84.9435 28.8473 89.4415 31.1762 93.4246C33.5052 97.4077 36.7846 100.752 40.7215 103.158C44.6584 105.564 49.1301 106.957 53.737 107.213C58.3438 107.469 62.9424 106.58 67.1216 104.625C71.3009 102.67 74.9307 99.7097 77.6866 96.0092H125.597V29.7144Z" fill="white"/>
</mask>
<g mask="url(#mask0_896_28185)">
<path d="M24.8427 106.647C24.8427 106.647 32.5752 79.7226 34.0351 73.9673C35.495 68.2119 37.7033 64.4667 42.2591 63.5533C46.815 62.64 55.2261 61.7926 55.2261 61.7926C55.2261 61.7926 62.5368 61.059 67.8336 61.4258C73.1305 61.7926 77.9761 64.6244 80.5329 66.5612C83.0896 68.498 90.4919 75.1484 90.4919 75.1484L89.5786 59.8008L96.2473 60.3473C96.2473 60.3473 101.089 81.7255 101.728 85.6577C102.366 89.59 102.369 91.3251 101.728 91.7799C101.086 92.2348 102.186 92.5136 96.339 90.5914C90.4919 88.6693 83.6398 86.0246 79.8946 84.9278C76.1494 83.831 75.6909 83.6476 75.6909 83.6476C75.6909 83.6476 66.5204 97.4472 63.6042 101.559C61.6026 104.479 59.8222 107.544 58.278 110.73" fill="white"/>
<mask id="mask1_896_28185" style="mask-type:luminance" maskUnits="userSpaceOnUse" x="24" y="59" width="79" height="52">
<path d="M24.8427 106.647C24.8427 106.647 32.5752 79.7226 34.0351 73.9673C35.495 68.2119 37.7033 64.4667 42.2591 63.5533C46.815 62.64 55.2261 61.7926 55.2261 61.7926C55.2261 61.7926 62.5368 61.059 67.8336 61.4258C73.1305 61.7926 77.9761 64.6244 80.5329 66.5612C83.0896 68.498 90.4919 75.1484 90.4919 75.1484L89.5786 59.8008L96.2473 60.3473C96.2473 60.3473 101.089 81.7255 101.728 85.6577C102.366 89.59 102.369 91.3251 101.728 91.7799C101.086 92.2348 102.186 92.5136 96.339 90.5914C90.4919 88.6693 83.6398 86.0246 79.8946 84.9278C76.1494 83.831 75.6909 83.6476 75.6909 83.6476C75.6909 83.6476 66.5204 97.4472 63.6042 101.559C61.6026 104.479 59.8222 107.544 58.278 110.73" fill="white"/>
</mask>
<g mask="url(#mask1_896_28185)">
<path opacity="0.2" d="M101.716 91.7506C102.358 91.2957 102.358 89.5497 101.716 85.6284C101.35 83.2844 99.4605 74.7339 98.0079 68.2119C98.5838 75.915 98.8076 83.4421 97.6411 84.8471C95.0734 87.8843 91.3208 83.8933 91.3208 83.8933L90.6055 77.9729C90.6055 77.9729 77.8183 68.542 73.0203 66.9427C68.2223 65.3434 63.1162 65.0242 58.1532 66.6236C53.1902 68.2229 49.0415 69.8222 46.0042 72.8595C42.967 75.8967 32.432 100.195 32.432 100.195L31.2398 107.41L58.2669 110.682C59.811 107.497 61.5914 104.431 63.5931 101.512C66.5276 97.3995 75.6797 83.5999 75.6797 83.5999C75.6797 83.5999 76.1382 83.7833 79.8834 84.8801C83.6287 85.9768 90.4808 88.6253 96.3279 90.5437C102.175 92.4622 101.078 92.2091 101.716 91.7506Z" fill="#263238"/>
</g>
<path d="M24.8427 106.647C24.8427 106.647 32.5752 79.7226 34.0351 73.9673C35.495 68.2119 37.7033 64.4667 42.2591 63.5533C46.815 62.64 55.2261 61.7926 55.2261 61.7926C55.2261 61.7926 62.5368 61.059 67.8336 61.4258C73.1305 61.7926 77.9761 64.6244 80.5329 66.5612C83.0896 68.498 90.4919 75.1484 90.4919 75.1484L89.5786 59.8008L96.2473 60.3473C96.2473 60.3473 101.089 81.7255 101.728 85.6577C102.366 89.59 102.369 91.3251 101.728 91.7799C101.086 92.2348 102.186 92.5136 96.339 90.5914C90.4919 88.6693 83.6398 86.0246 79.8946 84.9278C76.1494 83.831 75.6909 83.6476 75.6909 83.6476C75.6909 83.6476 66.5204 97.4472 63.6042 101.559C61.6026 104.479 59.8222 107.544 58.278 110.73" stroke="#263238" stroke-width="0.5" stroke-linecap="round" stroke-linejoin="round"/>
<path d="M78.2882 79.3813L75.6802 83.6218L83.398 79.3813" stroke="#263238" stroke-width="0.5" stroke-linecap="round" stroke-linejoin="round"/>
<path d="M90.481 75.1226C90.481 75.1226 90.8478 82.7047 91.3026 83.8932C91.7575 85.0817 93.7713 85.6282 93.7713 85.6282" fill="white"/>
<path d="M90.481 75.1226C90.481 75.1226 90.8478 82.7047 91.3026 83.8932C91.7575 85.0817 93.7713 85.6282 93.7713 85.6282" stroke="#263238" stroke-width="0.5" stroke-linecap="round" stroke-linejoin="round"/>
<path d="M50.2233 74.8912C50.2233 74.8912 49.2256 77.2572 49.7244 77.2572C50.2233 77.2572 53.4623 76.0136 54.9589 76.0136C56.4555 76.0136 58.0732 78.6291 58.0732 78.6291C58.0732 78.6291 62.4347 75.3901 63.8065 75.7642C64.4784 75.9892 65.0948 76.3543 65.615 76.8353C65.7016 76.9109 65.8079 76.9604 65.9215 76.9781C66.0352 76.9958 66.1515 76.9809 66.257 76.9353C66.3626 76.8896 66.453 76.815 66.5179 76.72C66.5828 76.6251 66.6195 76.5137 66.6237 76.3988C66.6494 75.7275 66.6714 74.8105 66.6714 73.644C66.6714 70.9039 64.3054 63.4281 59.944 63.054C55.5825 62.6798 54.8342 65.7941 52.9744 69.532C51.1147 73.2699 50.2233 74.8912 50.2233 74.8912Z" fill="#263238"/>
<path d="M59.6028 58.7695C59.6028 58.7695 55.3991 59.3271 53.4806 61.1612C51.5621 62.9953 52.2004 65.9115 51.1953 68.5599C50.1902 71.2083 48.4552 76.6005 49.3612 76.5088C50.2673 76.4171 53.4733 73.8604 54.3866 74.4987C55.3 75.1369 57.4019 77.8 57.7687 77.9688C58.1355 78.1375 62.7941 74.7738 63.4324 74.4069C64.0706 74.0401 67.1776 78.0751 67.2693 76.9747C67.361 75.8742 67.5444 69.3926 66.9024 65.4639C66.2605 61.5353 61.7046 58.8612 59.6028 58.7695Z" fill="white" stroke="#263238" stroke-width="0.5" stroke-linecap="round" stroke-linejoin="round"/>
<path d="M61.0624 53.6528C61.0624 53.6528 59.5108 58.4031 58.2233 60.0611C56.9357 61.7191 56.3892 61.9796 55.9417 65.8165C55.4942 69.6534 57.4933 78.3323 58.1426 78.1489C58.7918 77.9655 65.0864 67.9184 67.1883 66.2713C69.2902 64.6243 71.4837 62.893 71.4837 62.893C71.4837 62.893 66.3666 61.3377 64.6316 59.1478C63.3204 57.3979 62.128 55.5622 61.0624 53.6528Z" fill="white"/>
<mask id="mask2_896_28185" style="mask-type:luminance" maskUnits="userSpaceOnUse" x="55" y="53" width="17" height="26">
<path d="M61.0624 53.6528C61.0624 53.6528 59.5108 58.4031 58.2233 60.0611C56.9357 61.7191 56.3892 61.9796 55.9417 65.8165C55.4942 69.6534 57.4933 78.3323 58.1426 78.1489C58.7918 77.9655 65.0864 67.9184 67.1883 66.2713C69.2902 64.6243 71.4837 62.893 71.4837 62.893C71.4837 62.893 66.3666 61.3377 64.6316 59.1478C63.3204 57.3979 62.128 55.5622 61.0624 53.6528Z" fill="white"/>
</mask>
<g mask="url(#mask2_896_28185)">
<path opacity="0.2" d="M68.094 65.5634C69.8731 64.1658 71.4798 62.8966 71.4798 62.8966C71.4798 62.8966 66.3627 61.3413 64.6276 59.1514C63.3181 57.405 62.127 55.5729 61.0621 53.6675C60.53 55.2755 59.9092 56.8528 59.2024 58.3921C59.9764 60.56 62.1333 64.0961 68.094 65.5634Z" fill="#263238"/>
<path d="M64.6274 59.1367C63.3179 57.3903 62.1268 55.5583 61.0619 53.6528C61.0619 53.6528 60.5411 55.2485 59.8551 56.9102C60.4237 58.5572 61.5645 61.0075 63.6076 62.4528C65.2598 63.5551 67.0922 64.3595 69.0219 64.8298L71.4795 62.893C71.4795 62.893 66.3624 61.3266 64.6274 59.1367Z" fill="#263238"/>
</g>
<path d="M61.0624 53.6528C61.0624 53.6528 59.5108 58.4031 58.2233 60.0611C56.9357 61.7191 56.3892 61.9796 55.9417 65.8165C55.4942 69.6534 57.4933 78.3323 58.1426 78.1489C58.7918 77.9655 65.0864 67.9184 67.1883 66.2713C69.2902 64.6243 71.4837 62.893 71.4837 62.893C71.4837 62.893 66.3666 61.3377 64.6316 59.1478C63.3204 57.3979 62.128 55.5622 61.0624 53.6528Z" stroke="#263238" stroke-width="0.5" stroke-linecap="round" stroke-linejoin="round"/>
<path d="M80.522 41.5038C80.522 41.5038 80.2506 47.6259 80.4303 49.6324C80.6101 51.6389 81.3437 55.1347 79.6967 58.403C78.0497 61.6714 76.6815 63.7953 75.1298 64.3418C73.5782 64.8884 68.5528 63.7953 64.5325 60.78C60.5122 57.7648 59.7822 51.5546 59.1403 49.5444C58.4983 47.5342 59.232 40.6821 63.344 38.4885C66.6732 36.7748 70.5361 36.4147 74.1248 37.4834C76.322 38.2134 80.522 41.5038 80.522 41.5038Z" fill="white"/>
<mask id="mask3_896_28185" style="mask-type:luminance" maskUnits="userSpaceOnUse" x="58" y="36" width="23" height="29">
<path d="M80.522 41.5038C80.522 41.5038 80.2506 47.6259 80.4303 49.6324C80.6101 51.6389 81.3437 55.1347 79.6967 58.403C78.0497 61.6714 76.6815 63.7953 75.1298 64.3418C73.5782 64.8884 68.5528 63.7953 64.5325 60.78C60.5122 57.7648 59.7822 51.5546 59.1403 49.5444C58.4983 47.5342 59.232 40.6821 63.344 38.4885C66.6732 36.7748 70.5361 36.4147 74.1248 37.4834C76.322 38.2134 80.522 41.5038 80.522 41.5038Z" fill="white"/>
</mask>
<g mask="url(#mask3_896_28185)">
<path opacity="0.2" d="M63.3585 38.4882C62.7721 38.8057 62.2408 39.2157 61.7848 39.7023L63.9014 41.2063C63.9014 41.2063 66.6195 38.4882 72.705 42.3251C75.845 44.3059 78.5521 44.625 80.4412 44.4673C80.4852 42.8386 80.5439 41.5034 80.5439 41.5034C80.5439 41.5034 76.3438 38.2021 74.1503 37.4684C70.5564 36.4012 66.6889 36.7667 63.3585 38.4882Z" fill="#263238"/>
</g>
<path d="M80.522 41.5038C80.522 41.5038 80.2506 47.6259 80.4303 49.6324C80.6101 51.6389 81.3437 55.1347 79.6967 58.403C78.0497 61.6714 76.6815 63.7953 75.1298 64.3418C73.5782 64.8884 68.5528 63.7953 64.5325 60.78C60.5122 57.7648 59.7822 51.5546 59.1403 49.5444C58.4983 47.5342 59.232 40.6821 63.344 38.4885C66.6732 36.7748 70.5361 36.4147 74.1248 37.4834C76.322 38.2134 80.522 41.5038 80.522 41.5038Z" stroke="#263238" stroke-width="0.5" stroke-linecap="round" stroke-linejoin="round"/>
<path d="M71.8944 49.7607C71.8944 50.41 71.6413 50.9382 71.3295 50.9382C71.0178 50.9382 70.7646 50.41 70.7646 49.7607C70.7646 49.1115 71.0178 48.5796 71.3295 48.5796C71.6413 48.5796 71.8944 49.1078 71.8944 49.7607Z" fill="#263238"/>
<path d="M78.567 50.3733C78.567 51.0262 78.3139 51.5544 78.0021 51.5544C77.6903 51.5544 77.4372 51.0262 77.4372 50.3733C77.4372 49.7203 77.6903 49.1958 78.0021 49.1958C78.3139 49.1958 78.567 49.724 78.567 50.3733Z" fill="#263238"/>
<path d="M76.7772 48.6309C76.7772 48.6309 75.0421 50.3659 75.497 51.0959C75.9518 51.8258 77.0156 52.2367 76.6854 53.2968C76.3553 54.3569 73.9453 54.764 73.1237 53.2968" stroke="#263238" stroke-width="0.5" stroke-linecap="round" stroke-linejoin="round"/>
<path d="M67.9149 54.2944C68.5962 55.1211 69.4459 55.7931 70.4073 56.2656C71.3688 56.7381 72.4198 57.0002 73.4905 57.0346C73.4905 57.0346 69.7417 59.4996 68.0983 59.2355C66.455 58.9714 67.9149 54.2944 67.9149 54.2944Z" fill="#263238" stroke="#263238" stroke-width="0.5" stroke-linecap="round" stroke-linejoin="round"/>
<path d="M68.7916 46.276C68.7916 46.276 70.3836 44.0751 73.5602 45.4433" stroke="#263238" stroke-width="0.5" stroke-linecap="round" stroke-linejoin="round"/>
<path d="M77.4154 46.3459C77.4154 46.3459 79.4256 45.8837 80.1555 47.8131" stroke="#263238" stroke-width="0.5" stroke-linecap="round" stroke-linejoin="round"/>
<path d="M59.7855 52.0094C59.7855 52.0094 60.6072 48.4476 62.6173 47.1674C64.6275 45.8872 66.546 46.1623 65.3575 44.4273C64.169 42.6922 63.5234 40.9535 66.0911 40.1318C68.6588 39.3102 73.6732 40.6821 76.5968 41.7788C79.5203 42.8756 85.1839 43.2461 86.6475 39.1267C87.5499 36.5884 84.9088 34.5672 82.9794 33.5291C80.8408 32.3846 78.4418 31.8161 76.0282 32.2416C74.5609 32.4947 73.1633 33.0706 71.6961 33.2173C69.2127 33.4704 67.0228 32.3186 64.5468 32.9165C62.4685 33.4127 60.6081 34.5714 59.2463 36.2179C56.9537 39.035 56.3118 44.1522 59.7855 52.0094Z" fill="#455A64"/>
<mask id="mask4_896_28185" style="mask-type:luminance" maskUnits="userSpaceOnUse" x="57" y="32" width="30" height="21">
<path d="M59.7855 52.0094C59.7855 52.0094 60.6072 48.4476 62.6173 47.1674C64.6275 45.8872 66.546 46.1623 65.3575 44.4273C64.169 42.6922 63.5234 40.9535 66.0911 40.1318C68.6588 39.3102 73.6732 40.6821 76.5968 41.7788C79.5203 42.8756 85.1839 43.2461 86.6475 39.1267C87.5499 36.5884 84.9088 34.5672 82.9794 33.5291C80.8408 32.3846 78.4418 31.8161 76.0282 32.2416C74.5609 32.4947 73.1633 33.0706 71.6961 33.2173C69.2127 33.4704 67.0228 32.3186 64.5468 32.9165C62.4685 33.4127 60.6081 34.5714 59.2463 36.2179C56.9537 39.035 56.3118 44.1522 59.7855 52.0094Z" fill="white"/>
</mask>
<g mask="url(#mask4_896_28185)">
<path d="M80.9398 32.0693C80.9398 32.0693 85.6864 34.6371 82.3631 38.9031C79.0397 43.1692 75.9108 40.2347 68.0279 38.7161C60.145 37.1974 55.4974 41.0894 55.4974 41.0894" stroke="#808080" stroke-width="0.5" stroke-linecap="round" stroke-linejoin="round"/>
<path d="M56.1617 45.7554C56.1617 45.7554 57.6804 42.8208 62.6177 41.9588C67.5551 41.0968 67.8412 41.8635 67.8412 41.8635" stroke="#808080" stroke-width="0.5" stroke-linecap="round" stroke-linejoin="round"/>
</g>
<path d="M59.7855 52.0094C59.7855 52.0094 60.6072 48.4476 62.6173 47.1674C64.6275 45.8872 66.546 46.1623 65.3575 44.4273C64.169 42.6922 63.5234 40.9535 66.0911 40.1318C68.6588 39.3102 73.6732 40.6821 76.5968 41.7788C79.5203 42.8756 85.1839 43.2461 86.6475 39.1267C87.5499 36.5884 84.9088 34.5672 82.9794 33.5291C80.8408 32.3846 78.4418 31.8161 76.0282 32.2416C74.5609 32.4947 73.1633 33.0706 71.6961 33.2173C69.2127 33.4704 67.0228 32.3186 64.5468 32.9165C62.4685 33.4127 60.6081 34.5714 59.2463 36.2179C56.9537 39.035 56.3118 44.1522 59.7855 52.0094Z" stroke="#455A64" stroke-width="0.5" stroke-linecap="round" stroke-linejoin="round"/>
<path d="M61.8508 50.711C61.8508 50.711 59.4812 45.2857 57.394 48.1102C55.3068 50.9347 59.0887 54.5075 61.9279 53.8143" fill="white"/>
<path d="M61.8508 50.711C61.8508 50.711 59.4812 45.2857 57.394 48.1102C55.3068 50.9347 59.0887 54.5075 61.9279 53.8143" stroke="#263238" stroke-width="0.5" stroke-linecap="round" stroke-linejoin="round"/>
<path d="M87.6496 50.091C87.6496 50.091 86.0979 49.9075 85.8155 51.1914C85.533 52.4753 85.2653 54.4928 85.8155 54.4928C86.3657 54.4928 87.3671 54.2213 87.7339 53.3923C88.1008 52.5633 88.4676 50.0103 88.4676 50.0103L87.6496 50.091Z" fill="white" stroke="#263238" stroke-width="0.5" stroke-linecap="round" stroke-linejoin="round"/>
<path d="M90.1145 49.6325C90.1145 49.6325 87.9136 49.2657 87.6495 50.091C87.3854 50.9164 87.0112 53.7592 87.2827 53.8362C87.5541 53.9133 89.2012 53.198 89.2012 53.198L90.1145 49.6325Z" fill="white" stroke="#263238" stroke-width="0.5" stroke-linecap="round" stroke-linejoin="round"/>
<path d="M93.0383 49.8159C93.0383 49.8159 90.4706 48.1726 89.8433 48.9942C89.2161 49.8159 89.2014 53.1979 89.2014 53.1979C89.4285 53.2481 89.6645 53.2409 89.888 53.1768C90.1116 53.1128 90.3156 52.994 90.4816 52.8311C90.9401 52.2846 91.4867 51.5546 91.4867 51.5546C91.4867 51.5546 93.3208 52.0095 93.5886 51.9214C93.8563 51.8334 94.5019 51.9214 94.3222 51.0081C94.1424 50.0947 93.0383 49.8159 93.0383 49.8159Z" fill="white" stroke="#263238" stroke-width="0.5" stroke-linecap="round" stroke-linejoin="round"/>
<path d="M96.5117 51.4629C95.3588 50.6661 94.4181 49.5995 93.7716 48.356C92.8582 46.4376 92.3997 46.5219 91.9375 47.3509C91.4753 48.1799 92.0255 48.9943 92.3924 49.7242C92.7592 50.4542 94.3108 52.1929 94.3108 52.1929L96.5117 51.4629Z" fill="white" stroke="#263238" stroke-width="0.5" stroke-linecap="round" stroke-linejoin="round"/>
<path d="M80.0784 64.2427C80.0784 64.2427 78.7542 75.5517 78.9596 76.1642C79.165 76.7768 81.4026 77.4885 81.9125 77.0813C82.4224 76.6741 82.1179 75.8598 81.9125 75.3499C81.7071 74.84 83.6439 65.3651 83.6439 65.3651L80.0784 64.2427Z" fill="#FFD000" stroke="#263238" stroke-width="0.5" stroke-linecap="round" stroke-linejoin="round"/>
<path d="M46.7161 68.1604L53.4215 89.102C53.4215 89.102 68.8279 80.1296 72.4373 75.4491C76.0468 70.7685 78.1303 65.49 79.4069 64.9948C80.6834 64.4995 85.1879 65.7284 85.8482 66.462C86.5085 67.1957 86.3544 67.999 85.5547 68.7546C84.7551 69.5103 84.3002 69.6166 84.3002 69.6166C84.3002 69.6166 84.2599 71.2637 83.9004 71.5498C83.5409 71.8359 83.6253 71.4654 83.5336 71.8322C83.4712 72.2244 83.3275 72.5993 83.1117 72.9327C82.8476 73.2995 82.7449 73.4902 82.4918 73.5893C81.9663 73.813 81.4194 73.9826 80.8595 74.0955C79.8736 74.3497 78.8709 74.5336 77.8589 74.6457C77.2243 74.7558 73.0903 82.9248 69.2094 87.7925C65.3284 92.6601 53.0694 103.822 51.1436 103.881C49.2178 103.94 37.9052 85.2541 35.4805 80.6652" fill="white"/>
<mask id="mask5_896_28185" style="mask-type:luminance" maskUnits="userSpaceOnUse" x="35" y="64" width="52" height="40">
<path d="M46.7161 68.1604L53.4215 89.102C53.4215 89.102 68.8279 80.1296 72.4373 75.4491C76.0468 70.7685 78.1303 65.49 79.4069 64.9948C80.6834 64.4995 85.1879 65.7284 85.8482 66.462C86.5085 67.1957 86.3544 67.999 85.5547 68.7546C84.7551 69.5103 84.3002 69.6166 84.3002 69.6166C84.3002 69.6166 84.2599 71.2637 83.9004 71.5498C83.5409 71.8359 83.6253 71.4654 83.5336 71.8322C83.4712 72.2244 83.3275 72.5993 83.1117 72.9327C82.8476 73.2995 82.7449 73.4902 82.4918 73.5893C81.9663 73.813 81.4194 73.9826 80.8595 74.0955C79.8736 74.3497 78.8709 74.5336 77.8589 74.6457C77.2243 74.7558 73.0903 82.9248 69.2094 87.7925C65.3284 92.6601 53.0694 103.822 51.1436 103.881C49.2178 103.94 37.9052 85.2541 35.4805 80.6652" fill="white"/>
</mask>
<g mask="url(#mask5_896_28185)">
<path opacity="0.2" d="M83.1116 72.9256C83.3274 72.5922 83.471 72.2174 83.5334 71.8252C83.6141 71.4584 83.5334 71.8252 83.9003 71.5427C84.2671 71.2603 84.3001 69.6096 84.3001 69.6096C84.3001 69.6096 84.7549 69.5032 85.5546 68.7476C86.3543 67.9919 86.512 67.1666 85.8481 66.455C85.1841 65.7433 80.6723 64.5108 79.4067 64.9877C79.0766 65.1161 78.6731 65.5746 78.2329 66.2642C78.9042 67.3647 79.7002 68.036 78.9666 69.9581C77.8661 72.8926 75.2984 76.5608 73.0975 79.6787C70.8966 82.7967 52.5557 100.037 50.3548 99.6703C48.5574 99.3695 43.3376 93.0676 41.4815 90.7823C45.4578 97.1613 50.0063 103.9 51.1618 103.867C53.0803 103.808 65.354 92.6494 69.2276 87.7781C73.1012 82.9067 77.2242 74.734 77.8588 74.6387C78.8707 74.5265 79.8734 74.3427 80.8593 74.0884C81.4192 73.9756 81.9662 73.806 82.4917 73.5822C82.7631 73.4832 82.8475 73.2998 83.1116 72.9256Z" fill="#263238"/>
</g>
<path d="M46.7161 68.1604L53.4215 89.102C53.4215 89.102 68.8279 80.1296 72.4373 75.4491C76.0468 70.7685 78.1303 65.49 79.4069 64.9948C80.6834 64.4995 85.1879 65.7284 85.8482 66.462C86.5085 67.1957 86.3544 67.999 85.5547 68.7546C84.7551 69.5103 84.3002 69.6166 84.3002 69.6166C84.3002 69.6166 84.2599 71.2637 83.9004 71.5498C83.5409 71.8359 83.6253 71.4654 83.5336 71.8322C83.4712 72.2244 83.3275 72.5993 83.1117 72.9327C82.8476 73.2995 82.7449 73.4902 82.4918 73.5893C81.9663 73.813 81.4194 73.9826 80.8595 74.0955C79.8736 74.3497 78.8709 74.5336 77.8589 74.6457C77.2243 74.7558 73.0903 82.9248 69.2094 87.7925C65.3284 92.6601 53.0694 103.822 51.1436 103.881C49.2178 103.94 37.9052 85.2541 35.4805 80.6652" stroke="#263238" stroke-width="0.5" stroke-linecap="round" stroke-linejoin="round"/>
<path d="M53.421 89.1021C53.421 89.1021 51.6639 89.1754 50.1746 93.8707" stroke="#263238" stroke-width="0.5" stroke-linecap="round" stroke-linejoin="round"/>
<path d="M80.8599 74.0879C81.4198 73.9751 81.9667 73.8055 82.4922 73.5817C82.7637 73.4827 82.859 73.2993 83.1121 72.9251C83.3279 72.5917 83.4716 72.2169 83.534 71.8247C83.6147 71.4579 83.8531 71.3332 84.2089 71.047C84.5647 70.7609 84.2896 69.6091 84.2896 69.6091C84.2896 69.6091 84.7445 69.5027 85.5441 68.7471C86.3438 67.9914 86.5015 67.1661 85.8376 66.4545C85.1737 65.7429 80.6618 64.5104 79.3963 64.9872C78.1308 65.4641 76.216 70.3317 72.8963 74.8546L75.9849 77.3856C76.9533 75.7716 77.6429 74.6785 77.8703 74.6382C78.8786 74.5255 79.8776 74.3417 80.8599 74.0879Z" fill="white"/>
<mask id="mask6_896_28185" style="mask-type:luminance" maskUnits="userSpaceOnUse" x="72" y="64" width="15" height="14">
<path d="M80.8599 74.0879C81.4198 73.9751 81.9667 73.8055 82.4922 73.5817C82.7637 73.4827 82.859 73.2993 83.1121 72.9251C83.3279 72.5917 83.4716 72.2169 83.534 71.8247C83.6147 71.4579 83.8531 71.3332 84.2089 71.047C84.5647 70.7609 84.2896 69.6091 84.2896 69.6091C84.2896 69.6091 84.7445 69.5027 85.5441 68.7471C86.3438 67.9914 86.5015 67.1661 85.8376 66.4545C85.1737 65.7429 80.6618 64.5104 79.3963 64.9872C78.1308 65.4641 76.216 70.3317 72.8963 74.8546L75.9849 77.3856C76.9533 75.7716 77.6429 74.6785 77.8703 74.6382C78.8786 74.5255 79.8776 74.3417 80.8599 74.0879Z" fill="white"/>
</mask>
<g mask="url(#mask6_896_28185)">
<path opacity="0.2" d="M83.1117 72.9251C83.3274 72.5917 83.4711 72.2169 83.5335 71.8247C83.6142 71.4579 83.5335 71.8247 83.9003 71.5422C84.2671 71.2598 84.3001 69.6091 84.3001 69.6091C84.3001 69.6091 84.755 69.5027 85.5547 68.7471C86.3543 67.9914 86.5121 67.1661 85.8481 66.4545C85.1842 65.7429 80.6723 64.5104 79.4068 64.9872C79.0767 65.1156 78.6732 65.5741 78.233 66.2637C78.9043 67.3642 79.7003 68.0355 78.9666 69.9576C77.8662 72.8921 75.2985 76.5603 73.0975 79.6783C70.8966 82.7962 52.5558 100.037 50.3549 99.6698C48.5575 99.369 43.3377 93.0671 41.4816 90.7818C45.4579 97.1608 50.0064 103.899 51.1619 103.866C53.0803 103.807 65.354 92.6489 69.2276 87.7776C73.1012 82.9062 77.2242 74.7335 77.8588 74.6382C78.8708 74.526 79.8735 74.3422 80.8594 74.088C81.4193 73.9751 81.9662 73.8055 82.4917 73.5817C82.7632 73.4827 82.8476 73.2993 83.1117 72.9251Z" fill="#263238"/>
</g>
<path d="M80.8599 74.0879C81.4198 73.9751 81.9667 73.8055 82.4922 73.5817C82.7637 73.4827 82.859 73.2993 83.1121 72.9251C83.3279 72.5917 83.4716 72.2169 83.534 71.8247C83.6147 71.4579 83.8531 71.3332 84.2089 71.047C84.5647 70.7609 84.2896 69.6091 84.2896 69.6091C84.2896 69.6091 84.7445 69.5027 85.5441 68.7471C86.3438 67.9914 86.5015 67.1661 85.8376 66.4545C85.1737 65.7429 80.6618 64.5104 79.3963 64.9872C78.1308 65.4641 76.216 70.3317 72.8963 74.8546L75.9849 77.3856C76.9533 75.7716 77.6429 74.6785 77.8703 74.6382C78.8786 74.5255 79.8776 74.3417 80.8599 74.0879Z" stroke="#263238" stroke-width="0.5" stroke-linecap="round" stroke-linejoin="round"/>
<path d="M76.8689 56.8515C75.8601 56.8515 75.0348 58.3187 75.0348 60.0941C75.0348 61.8695 75.8528 63.3368 76.8689 63.3368L99.2447 70.0972V49.8159L76.8689 56.8515Z" fill="#FFD000" stroke="#263238" stroke-width="0.5" stroke-linecap="round" stroke-linejoin="round"/>
<path d="M89.4582 54.1514L80.728 56.6641" stroke="#263238" stroke-width="0.5" stroke-linecap="round" stroke-linejoin="round"/>
<path d="M92.3781 53.3115L90.5514 53.8397" stroke="#263238" stroke-width="0.5" stroke-linecap="round" stroke-linejoin="round"/>
<path d="M79.7337 55.9487L76.8689 56.8511C75.8601 56.8511 75.0348 58.3184 75.0348 60.0938C75.0348 61.8692 75.8528 63.3364 76.8689 63.3364L79.455 64.1178C78.8471 62.8324 78.5552 61.4204 78.6037 59.9994C78.6522 58.5784 79.0397 57.1896 79.7337 55.9487Z" fill="#263238" stroke="#263238" stroke-width="0.5" stroke-linecap="round" stroke-linejoin="round"/>
<path d="M101.171 73.714C105.409 73.714 108.844 67.6161 108.844 60.094C108.844 52.572 105.409 46.4741 101.171 46.4741C96.9324 46.4741 93.4967 52.572 93.4967 60.094C93.4967 67.6161 96.9324 73.714 101.171 73.714Z" fill="#D6D6D6" stroke="#263238" stroke-width="0.5" stroke-linecap="round" stroke-linejoin="round"/>
<path d="M101.17 57.0713L93.8595 55.1162L93.2212 60.325L94.0429 65.6219L101.17 63.1165L101.445 57.2181" fill="#D6D6D6"/>
<path d="M101.17 57.0713L93.8595 55.1162L93.2212 60.325L94.0429 65.6219L101.17 63.1165L101.445 57.2181" stroke="#263238" stroke-width="0.5" stroke-linecap="round" stroke-linejoin="round"/>
<path d="M101.17 45.249C96.552 45.249 92.8068 51.8958 92.8068 60.0941C92.8068 68.2925 96.552 74.9392 101.17 74.9392C105.788 74.9392 109.534 68.2925 109.534 60.0941C109.534 51.8958 105.788 45.249 101.17 45.249ZM101.376 72.8337C97.5277 72.8337 94.4061 67.1297 94.4061 60.0941C94.4061 53.0586 97.5277 47.3582 101.376 47.3582C105.224 47.3582 108.345 53.0586 108.345 60.0941C108.345 67.1297 105.227 72.8337 101.376 72.8337Z" fill="#263238" stroke="#263238" stroke-width="0.5" stroke-linecap="round" stroke-linejoin="round"/>
<path d="M101.17 63.1164C102.11 63.1164 102.873 61.7632 102.873 60.0939C102.873 58.4245 102.11 57.0713 101.17 57.0713C100.23 57.0713 99.4684 58.4245 99.4684 60.0939C99.4684 61.7632 100.23 63.1164 101.17 63.1164Z" fill="#FFD000" stroke="#263238" stroke-width="0.5" stroke-linecap="round" stroke-linejoin="round"/>
<path d="M110.579 48.4583L120.645 45.3403" stroke="#263238" stroke-width="0.5" stroke-linecap="round" stroke-linejoin="round"/>
<path d="M111.9 59.3457L121.136 59.6758" stroke="#263238" stroke-width="0.5" stroke-linecap="round" stroke-linejoin="round"/>
<path d="M119.552 72.9141L121.467 73.5303" stroke="#263238" stroke-width="0.5" stroke-linecap="round" stroke-linejoin="round"/>
<path d="M111.24 70.2329L118.033 72.4265" stroke="#263238" stroke-width="0.5" stroke-linecap="round" stroke-linejoin="round"/>
<path d="M111.57 53.4069L116.518 52.7466" stroke="#263238" stroke-width="0.5" stroke-linecap="round" stroke-linejoin="round"/>
<path d="M109.259 73.8604L112.89 76.8316" stroke="#263238" stroke-width="0.5" stroke-linecap="round" stroke-linejoin="round"/>
</g>
<path d="M17.5097 36.4682C18.5226 36.0904 19.6531 36.5802 20.0702 37.5776L25.2074 49.8611C25.4985 50.5572 25.1839 51.3587 24.4969 51.6708C23.8256 51.9758 23.0329 51.7062 22.6867 51.0552L16.4357 39.2994C15.8645 38.2251 16.3696 36.8934 17.5097 36.4682ZM27.2896 57.7659C26.7735 58.0004 26.2478 58.0195 25.7126 57.8231C25.1774 57.6268 24.7942 57.2743 24.5631 56.7656C24.332 56.257 24.3185 55.7365 24.5227 55.2042C24.7268 54.672 25.087 54.2886 25.6031 54.0541C26.1193 53.8195 26.645 53.8004 27.1802 53.9968C27.7154 54.1931 28.0985 54.5456 28.3296 55.0543C28.4827 55.3911 28.536 55.74 28.4897 56.1011C28.4504 56.4589 28.3267 56.7888 28.1188 57.0906C27.9148 57.3823 27.6384 57.6074 27.2896 57.7659Z" fill="#263238"/>
<path d="M83.4454 8.24901C84.4552 8.63527 84.9795 9.75015 84.6331 10.7743L80.3663 23.3865C80.1245 24.1012 79.3586 24.4945 78.6368 24.2745C77.9315 24.0596 77.515 23.3332 77.6857 22.6159L80.7679 9.66316C81.0496 8.47942 82.3089 7.81428 83.4454 8.24901ZM76.7025 30.6938C76.1601 30.5285 75.7531 30.1953 75.4814 29.6942C75.2096 29.193 75.1552 28.6752 75.3181 28.1408C75.481 27.6064 75.815 27.207 76.32 26.9426C76.8251 26.6782 77.3488 26.6287 77.8911 26.794C78.4334 26.9593 78.8404 27.2925 79.1122 27.7936C79.3839 28.2948 79.4384 28.8126 79.2755 29.347C79.1676 29.7009 78.9769 29.9979 78.7035 30.2382C78.4374 30.4807 78.1265 30.6464 77.771 30.7354C77.4251 30.8194 77.0689 30.8055 76.7025 30.6938Z" fill="#263238"/>
<path d="M28.2738 12.3754C28.7173 12.1826 29.2339 12.3745 29.444 12.8102L32.0305 18.175C32.1771 18.4791 32.0556 18.8446 31.7561 19.0003C31.4635 19.1525 31.103 19.0509 30.9329 18.7683L27.8614 13.6656C27.5807 13.1993 27.7747 12.5924 28.2738 12.3754ZM33.1484 21.6566C32.9234 21.7736 32.6891 21.7946 32.4453 21.7196C32.2016 21.6446 32.0221 21.4963 31.9067 21.2746C31.7914 21.0528 31.773 20.8207 31.8516 20.5781C31.9301 20.3354 32.0819 20.1556 32.3069 20.0386C32.5319 19.9216 32.7662 19.9006 33.01 19.9756C33.2537 20.0505 33.4332 20.1989 33.5486 20.4206C33.6249 20.5674 33.657 20.722 33.6449 20.8844C33.6359 21.0452 33.5885 21.1955 33.5028 21.3352C33.4186 21.4704 33.3004 21.5775 33.1484 21.6566Z" fill="#263238"/>
<path d="M100.731 33.8864C101.295 34.6408 101.162 35.7061 100.43 36.2993L91.4179 43.6046C90.9071 44.0186 90.1598 43.9518 89.7305 43.4539C89.311 42.9673 89.3422 42.2384 89.8017 41.7894L98.1 33.6821C98.8584 32.9412 100.096 33.0373 100.731 33.8864ZM85.3183 47.2825C84.9957 46.9084 84.8509 46.4735 84.884 45.9779C84.917 45.4822 85.1179 45.0755 85.4866 44.7576C85.8553 44.4397 86.2872 44.3009 86.7823 44.3412C87.2774 44.3815 87.6862 44.5887 88.0088 44.9628C88.3313 45.337 88.4761 45.7719 88.4431 46.2675C88.41 46.7631 88.2092 47.1699 87.8405 47.4878C87.5963 47.6983 87.3176 47.8284 87.0044 47.8781C86.6955 47.9329 86.3894 47.9103 86.0861 47.8104C85.7922 47.7113 85.5362 47.5353 85.3183 47.2825Z" fill="#263238"/>
<path d="M52.1492 15.3052C52.9701 15.1652 53.7545 15.6998 53.9245 16.5149L55.9516 26.2373C56.0702 26.8062 55.7156 27.3665 55.1507 27.5028C54.5989 27.6358 54.0387 27.3175 53.8707 26.7753L50.9311 17.2889C50.6542 16.3954 51.2271 15.4624 52.1492 15.3052ZM56.3472 32.3919C55.923 32.4942 55.5237 32.436 55.1495 32.2172C54.7752 31.9985 54.5389 31.6852 54.4405 31.2775C54.3422 30.8697 54.4097 30.4832 54.6431 30.1179C54.8765 29.7525 55.2053 29.5187 55.6295 29.4164C56.0537 29.314 56.453 29.3723 56.8273 29.591C57.2015 29.8098 57.4378 30.123 57.5362 30.5308C57.6013 30.8008 57.5895 31.066 57.5007 31.3265C57.4176 31.5856 57.2751 31.8124 57.0733 32.0068C56.8759 32.1944 56.6339 32.3227 56.3472 32.3919Z" fill="#263238"/>
</g>
<defs>
<clipPath id="clip0_896_28185">
<rect width="120" height="120" fill="white" transform="translate(0.5)"/>
</clipPath>
</defs>
</svg>
