<svg width="210" height="210" viewBox="0 0 210 210" fill="none" xmlns="http://www.w3.org/2000/svg">
<g clip-path="url(#clip0_171_20542)">
<path opacity="0.5" d="M210 190.5C210 190.559 143.998 190.375 68.6147 190.375C-6.76813 190.375 0.773646 190.559 0.773646 190.5C0.773646 190.44 -6.79653 190.154 68.6147 190.154C144.026 190.154 210 190.436 210 190.5Z" fill="#263238"/>
<path d="M133.849 21.6322C133.849 21.6322 103.104 13.8442 73.7783 35.4819C44.4525 57.1196 30.4766 94.863 18.4049 125.2C6.33327 155.537 14.6524 183.96 37.8434 194.636C61.0344 205.311 75.9415 183.777 107.883 179.056C139.825 174.335 148.569 178.121 174.531 155.986C200.493 133.85 203.945 88.4119 182.024 57.6576C160.103 26.9033 133.849 21.6322 133.849 21.6322Z" fill="#FFC100"/>
<path opacity="0.7" d="M133.849 21.6322C133.849 21.6322 103.104 13.8442 73.7783 35.4819C44.4525 57.1196 30.4766 94.863 18.4049 125.2C6.33327 155.537 14.6524 183.96 37.8434 194.636C61.0344 205.311 75.9415 183.777 107.883 179.056C139.825 174.335 148.569 178.121 174.531 155.986C200.493 133.85 203.945 88.4119 182.024 57.6576C160.103 26.9033 133.849 21.6322 133.849 21.6322Z" fill="white"/>
<path d="M88.7891 192.844C110.466 192.844 128.038 175.272 128.038 153.595C128.038 131.919 110.466 114.346 88.7891 114.346C67.1124 114.346 49.54 131.919 49.54 153.595C49.54 175.272 67.1124 192.844 88.7891 192.844Z" fill="#263238"/>
<mask id="mask0_171_20542" style="mask-type:luminance" maskUnits="userSpaceOnUse" x="47" y="52" width="172" height="136">
<path d="M218.919 52H89.6599V90.3425C81.651 91.3695 74.0213 94.3647 67.4526 99.0603C60.8839 103.756 55.5809 110.006 52.0174 117.251C48.4539 124.497 46.741 132.513 47.0317 140.582C47.3224 148.651 49.6077 156.523 53.6833 163.493C57.759 170.463 63.498 176.315 70.3876 180.526C77.2771 184.737 85.1026 187.175 93.1646 187.623C101.227 188.071 109.274 186.515 116.588 183.094C123.901 179.672 130.254 174.492 135.076 168.016H218.919V52Z" fill="white"/>
</mask>
<g mask="url(#mask0_171_20542)">
<path d="M42.6001 186.632C42.6001 186.632 56.132 139.514 58.6869 129.442C61.2418 119.371 65.1062 112.816 73.0789 111.218C81.0517 109.62 95.7712 108.137 95.7712 108.137C95.7712 108.137 108.565 106.853 117.834 107.495C127.104 108.137 135.584 113.093 140.058 116.482C144.532 119.871 157.486 131.509 157.486 131.509L155.888 104.651L167.558 105.608C167.558 105.608 176.032 143.019 177.149 149.901C178.266 156.782 178.272 159.819 177.149 160.615C176.025 161.411 177.951 161.898 167.719 158.535C157.486 155.171 145.495 150.543 138.941 148.623C132.387 146.704 131.584 146.383 131.584 146.383C131.584 146.383 115.536 170.532 110.433 177.728C106.93 182.838 103.814 188.202 101.112 193.777" fill="white"/>
<mask id="mask1_171_20542" style="mask-type:luminance" maskUnits="userSpaceOnUse" x="42" y="104" width="136" height="90">
<path d="M42.6001 186.632C42.6001 186.632 56.132 139.514 58.6869 129.442C61.2418 119.371 65.1062 112.816 73.0789 111.218C81.0517 109.62 95.7712 108.137 95.7712 108.137C95.7712 108.137 108.565 106.853 117.834 107.495C127.104 108.137 135.584 113.093 140.058 116.482C144.532 119.871 157.486 131.509 157.486 131.509L155.888 104.651L167.558 105.608C167.558 105.608 176.032 143.019 177.149 149.901C178.266 156.782 178.272 159.819 177.149 160.615C176.025 161.411 177.951 161.898 167.719 158.535C157.486 155.171 145.495 150.543 138.941 148.623C132.387 146.704 131.584 146.383 131.584 146.383C131.584 146.383 115.536 170.532 110.433 177.728C106.93 182.838 103.814 188.202 101.112 193.777" fill="white"/>
</mask>
<g mask="url(#mask1_171_20542)">
<path opacity="0.2" d="M177.129 160.563C178.252 159.767 178.252 156.712 177.129 149.849C176.487 145.747 173.181 130.784 170.639 119.37C171.647 132.851 172.038 146.023 169.997 148.482C165.504 153.797 158.937 146.813 158.937 146.813L157.685 136.452C157.685 136.452 135.307 119.948 126.911 117.149C118.514 114.351 109.579 113.792 100.893 116.591C92.208 119.39 84.9478 122.189 79.6326 127.504C74.3174 132.819 55.8812 175.34 55.8812 175.34L53.7949 187.967L101.092 193.693C103.795 188.119 106.91 182.754 110.413 177.645C115.549 170.449 131.565 146.299 131.565 146.299C131.565 146.299 132.367 146.62 138.921 148.54C145.475 150.459 157.467 155.094 167.699 158.451C177.931 161.808 176.012 161.366 177.129 160.563Z" fill="#263238"/>
</g>
<path d="M42.6001 186.632C42.6001 186.632 56.132 139.514 58.6869 129.442C61.2418 119.371 65.1062 112.816 73.0789 111.218C81.0517 109.62 95.7712 108.137 95.7712 108.137C95.7712 108.137 108.565 106.853 117.834 107.495C127.104 108.137 135.584 113.093 140.058 116.482C144.532 119.871 157.486 131.509 157.486 131.509L155.888 104.651L167.558 105.608C167.558 105.608 176.032 143.019 177.149 149.901C178.266 156.782 178.272 159.819 177.149 160.615C176.025 161.411 177.951 161.898 167.719 158.535C157.486 155.171 145.495 150.543 138.941 148.623C132.387 146.704 131.584 146.383 131.584 146.383C131.584 146.383 115.536 170.532 110.433 177.728C106.93 182.838 103.814 188.202 101.112 193.777" stroke="#263238" stroke-width="0.5" stroke-linecap="round" stroke-linejoin="round"/>
<path d="M136.13 138.917L131.565 146.338L145.072 138.917" stroke="#263238" stroke-width="0.5" stroke-linecap="round" stroke-linejoin="round"/>
<path d="M157.467 131.465C157.467 131.465 158.109 144.733 158.905 146.813C159.701 148.893 163.225 149.849 163.225 149.849" fill="white"/>
<path d="M157.467 131.465C157.467 131.465 158.109 144.733 158.905 146.813C159.701 148.893 163.225 149.849 163.225 149.849" stroke="#263238" stroke-width="0.5" stroke-linecap="round" stroke-linejoin="round"/>
<path d="M87.0159 131.06C87.0159 131.06 85.2699 135.201 86.1429 135.201C87.0159 135.201 92.6842 133.024 95.3032 133.024C97.9223 133.024 100.753 137.601 100.753 137.601C100.753 137.601 108.386 131.933 110.787 132.588C111.962 132.982 113.041 133.62 113.951 134.462C114.103 134.595 114.289 134.681 114.488 134.712C114.687 134.743 114.89 134.717 115.075 134.637C115.26 134.557 115.418 134.427 115.531 134.261C115.645 134.094 115.709 133.9 115.717 133.698C115.762 132.524 115.8 130.919 115.8 128.877C115.8 124.082 111.66 111 104.027 110.345C96.3945 109.69 95.085 115.14 91.8304 121.681C88.5758 128.223 87.0159 131.06 87.0159 131.06Z" fill="#263238"/>
<path d="M103.43 102.847C103.43 102.847 96.0737 103.823 92.7164 107.033C89.3591 110.242 90.4761 115.346 88.7172 119.98C86.9583 124.615 83.922 134.051 85.5075 133.891C87.0931 133.73 92.7036 129.256 94.302 130.373C95.9004 131.49 99.5787 136.151 100.221 136.446C100.863 136.741 109.015 130.855 110.132 130.213C111.249 129.571 116.686 136.632 116.847 134.706C117.007 132.78 117.328 121.437 116.205 114.562C115.081 107.687 107.109 103.008 103.43 102.847Z" fill="white" stroke="#263238" stroke-width="0.5" stroke-linecap="round" stroke-linejoin="round"/>
<path d="M105.985 93.8925C105.985 93.8925 103.269 102.205 101.016 105.107C98.7629 108.009 97.8065 108.464 97.0233 115.179C96.2402 121.893 99.7387 137.082 100.875 136.761C102.011 136.44 113.027 118.857 116.705 115.975C120.383 113.093 124.222 110.063 124.222 110.063C124.222 110.063 115.267 107.341 112.231 103.509C109.936 100.446 107.849 97.2338 105.985 93.8925Z" fill="white"/>
<mask id="mask2_171_20542" style="mask-type:luminance" maskUnits="userSpaceOnUse" x="96" y="93" width="29" height="44">
<path d="M105.985 93.8925C105.985 93.8925 103.269 102.205 101.016 105.107C98.7629 108.009 97.8065 108.464 97.0233 115.179C96.2402 121.893 99.7387 137.082 100.875 136.761C102.011 136.44 113.027 118.857 116.705 115.975C120.383 113.093 124.222 110.063 124.222 110.063C124.222 110.063 115.267 107.341 112.231 103.509C109.936 100.446 107.849 97.2338 105.985 93.8925Z" fill="white"/>
</mask>
<g mask="url(#mask2_171_20542)">
<path opacity="0.2" d="M118.29 114.736C121.404 112.29 124.215 110.069 124.215 110.069C124.215 110.069 115.26 107.348 112.224 103.515C109.933 100.459 107.848 97.253 105.985 93.9185C105.053 96.7325 103.967 99.4928 102.73 102.187C104.084 105.98 107.859 112.169 118.29 114.736Z" fill="#263238"/>
<path d="M112.224 103.489C109.932 100.433 107.847 97.227 105.984 93.8925C105.984 93.8925 105.072 96.6849 103.872 99.5928C104.867 102.475 106.863 106.763 110.439 109.292C113.33 111.221 116.537 112.629 119.914 113.452L124.215 110.063C124.215 110.063 115.26 107.322 112.224 103.489Z" fill="#263238"/>
</g>
<path d="M105.985 93.8925C105.985 93.8925 103.269 102.205 101.016 105.107C98.7629 108.009 97.8065 108.464 97.0233 115.179C96.2402 121.893 99.7387 137.082 100.875 136.761C102.011 136.44 113.027 118.857 116.705 115.975C120.383 113.093 124.222 110.063 124.222 110.063C124.222 110.063 115.267 107.341 112.231 103.509C109.936 100.446 107.849 97.2338 105.985 93.8925Z" stroke="#263238" stroke-width="0.5" stroke-linecap="round" stroke-linejoin="round"/>
<path d="M140.039 72.6317C140.039 72.6317 139.564 83.3455 139.879 86.8569C140.193 90.3682 141.477 96.4858 138.595 102.205C135.712 107.925 133.318 111.642 130.603 112.598C127.887 113.555 119.093 111.642 112.057 106.365C105.022 101.088 103.744 90.2206 102.621 86.7028C101.498 83.185 102.781 71.1938 109.977 67.355C115.804 64.356 122.564 63.7258 128.844 65.5961C132.689 66.8736 140.039 72.6317 140.039 72.6317Z" fill="white"/>
<mask id="mask3_171_20542" style="mask-type:luminance" maskUnits="userSpaceOnUse" x="102" y="64" width="39" height="49">
<path d="M140.039 72.6317C140.039 72.6317 139.564 83.3455 139.879 86.8569C140.193 90.3682 141.477 96.4858 138.595 102.205C135.712 107.925 133.318 111.642 130.603 112.598C127.887 113.555 119.093 111.642 112.057 106.365C105.022 101.088 103.744 90.2206 102.621 86.7028C101.498 83.185 102.781 71.1938 109.977 67.355C115.804 64.356 122.564 63.7258 128.844 65.5961C132.689 66.8736 140.039 72.6317 140.039 72.6317Z" fill="white"/>
</mask>
<g mask="url(#mask3_171_20542)">
<path opacity="0.2" d="M110.003 67.3548C108.977 67.9105 108.047 68.628 107.249 69.4796L110.953 72.1115C110.953 72.1115 115.71 67.3548 126.359 74.0694C131.854 77.5358 136.592 78.0943 139.898 77.8183C139.975 74.9681 140.077 72.6315 140.077 72.6315C140.077 72.6315 132.727 66.8541 128.889 65.5702C122.599 63.7026 115.831 64.3421 110.003 67.3548Z" fill="#263238"/>
</g>
<path d="M140.039 72.6317C140.039 72.6317 139.564 83.3455 139.879 86.8569C140.193 90.3682 141.477 96.4858 138.595 102.205C135.712 107.925 133.318 111.642 130.603 112.598C127.887 113.555 119.093 111.642 112.057 106.365C105.022 101.088 103.744 90.2206 102.621 86.7028C101.498 83.185 102.781 71.1938 109.977 67.355C115.804 64.356 122.564 63.7258 128.844 65.5961C132.689 66.8736 140.039 72.6317 140.039 72.6317Z" stroke="#263238" stroke-width="0.5" stroke-linecap="round" stroke-linejoin="round"/>
<path d="M124.941 87.0814C124.941 88.2176 124.498 89.142 123.952 89.142C123.406 89.142 122.963 88.2176 122.963 87.0814C122.963 85.9452 123.406 85.0144 123.952 85.0144C124.498 85.0144 124.941 85.9388 124.941 87.0814Z" fill="#263238"/>
<path d="M136.617 88.1535C136.617 89.2961 136.174 90.2205 135.629 90.2205C135.083 90.2205 134.64 89.2961 134.64 88.1535C134.64 87.0109 135.083 86.0929 135.629 86.0929C136.174 86.0929 136.617 87.0173 136.617 88.1535Z" fill="#263238"/>
<path d="M133.485 85.1042C133.485 85.1042 130.449 88.1406 131.245 89.418C132.041 90.6955 133.903 91.4144 133.325 93.2696C132.747 95.1248 128.53 95.8373 127.092 93.2696" stroke="#263238" stroke-width="0.5" stroke-linecap="round" stroke-linejoin="round"/>
<path d="M117.976 95.0155C119.169 96.4622 120.655 97.6382 122.338 98.465C124.02 99.2919 125.86 99.7506 127.734 99.8107C127.734 99.8107 121.173 104.124 118.297 103.662C115.421 103.2 117.976 95.0155 117.976 95.0155Z" fill="#263238" stroke="#263238" stroke-width="0.5" stroke-linecap="round" stroke-linejoin="round"/>
<path d="M119.511 80.9831C119.511 80.9831 122.297 77.1315 127.856 79.5259" stroke="#263238" stroke-width="0.5" stroke-linecap="round" stroke-linejoin="round"/>
<path d="M134.602 81.105C134.602 81.105 138.12 80.2962 139.397 83.6727" stroke="#263238" stroke-width="0.5" stroke-linecap="round" stroke-linejoin="round"/>
<path d="M103.75 91.0165C103.75 91.0165 105.188 84.7834 108.706 82.5431C112.223 80.3027 115.581 80.7842 113.501 77.7478C111.421 74.7115 110.291 71.6687 114.785 70.2308C119.278 68.7929 128.053 71.1937 133.17 73.1131C138.286 75.0325 148.197 75.6808 150.758 68.4719C152.338 64.0298 147.716 60.4927 144.339 58.6761C140.597 56.6733 136.399 55.6783 132.175 56.4229C129.607 56.8658 127.161 57.8737 124.593 58.1304C120.248 58.5734 116.415 56.5577 112.082 57.6041C108.445 58.4723 105.189 60.5001 102.806 63.3814C98.7942 68.3115 97.6709 77.2664 103.75 91.0165Z" fill="#455A64"/>
<mask id="mask4_171_20542" style="mask-type:luminance" maskUnits="userSpaceOnUse" x="99" y="56" width="53" height="36">
<path d="M103.75 91.0165C103.75 91.0165 105.188 84.7834 108.706 82.5431C112.223 80.3027 115.581 80.7842 113.501 77.7478C111.421 74.7115 110.291 71.6687 114.785 70.2308C119.278 68.7929 128.053 71.1937 133.17 73.1131C138.286 75.0325 148.197 75.6808 150.758 68.4719C152.338 64.0298 147.716 60.4927 144.339 58.6761C140.597 56.6733 136.399 55.6783 132.175 56.4229C129.607 56.8658 127.161 57.8737 124.593 58.1304C120.248 58.5734 116.415 56.5577 112.082 57.6041C108.445 58.4723 105.189 60.5001 102.806 63.3814C98.7942 68.3115 97.6709 77.2664 103.75 91.0165Z" fill="white"/>
</mask>
<g mask="url(#mask4_171_20542)">
<path d="M140.77 56.1211C140.77 56.1211 149.076 60.6146 143.261 68.0803C137.445 75.5459 131.969 70.4105 118.174 67.7529C104.379 65.0953 96.2456 71.9062 96.2456 71.9062" stroke="#808080" stroke-width="0.5" stroke-linecap="round" stroke-linejoin="round"/>
<path d="M97.4082 80.0714C97.4082 80.0714 100.066 74.936 108.706 73.4275C117.347 71.9189 117.847 73.2606 117.847 73.2606" stroke="#808080" stroke-width="0.5" stroke-linecap="round" stroke-linejoin="round"/>
</g>
<path d="M103.75 91.0165C103.75 91.0165 105.188 84.7834 108.706 82.5431C112.223 80.3027 115.581 80.7842 113.501 77.7478C111.421 74.7115 110.291 71.6687 114.785 70.2308C119.278 68.7929 128.053 71.1937 133.17 73.1131C138.286 75.0325 148.197 75.6808 150.758 68.4719C152.338 64.0298 147.716 60.4927 144.339 58.6761C140.597 56.6733 136.399 55.6783 132.175 56.4229C129.607 56.8658 127.161 57.8737 124.593 58.1304C120.248 58.5734 116.415 56.5577 112.082 57.6041C108.445 58.4723 105.189 60.5001 102.806 63.3814C98.7942 68.3115 97.6709 77.2664 103.75 91.0165Z" stroke="#455A64" stroke-width="0.5" stroke-linecap="round" stroke-linejoin="round"/>
<path d="M107.364 88.744C107.364 88.744 103.217 79.2498 99.5647 84.1927C95.9121 89.1355 102.53 95.3879 107.499 94.1747" fill="white"/>
<path d="M107.364 88.744C107.364 88.744 103.217 79.2498 99.5647 84.1927C95.9121 89.1355 102.53 95.3879 107.499 94.1747" stroke="#263238" stroke-width="0.5" stroke-linecap="round" stroke-linejoin="round"/>
<path d="M152.512 87.6593C152.512 87.6593 149.796 87.3383 149.302 89.5851C148.808 91.8318 148.339 95.3625 149.302 95.3625C150.265 95.3625 152.017 94.8874 152.659 93.4367C153.301 91.9859 153.943 87.5181 153.943 87.5181L152.512 87.6593Z" fill="white" stroke="#263238" stroke-width="0.5" stroke-linecap="round" stroke-linejoin="round"/>
<path d="M156.825 86.8569C156.825 86.8569 152.974 86.2149 152.512 87.6593C152.049 89.1036 151.395 94.0786 151.87 94.2134C152.345 94.3482 155.227 93.0964 155.227 93.0964L156.825 86.8569Z" fill="white" stroke="#263238" stroke-width="0.5" stroke-linecap="round" stroke-linejoin="round"/>
<path d="M161.942 87.1777C161.942 87.1777 157.449 84.3019 156.351 85.7398C155.253 87.1777 155.228 93.0963 155.228 93.0963C155.625 93.1841 156.038 93.1714 156.429 93.0593C156.82 92.9472 157.177 92.7393 157.468 92.4544C158.27 91.4979 159.227 90.2204 159.227 90.2204C159.227 90.2204 162.436 91.0164 162.905 90.8624C163.374 90.7083 164.503 90.8624 164.189 89.264C163.874 87.6656 161.942 87.1777 161.942 87.1777Z" fill="white" stroke="#263238" stroke-width="0.5" stroke-linecap="round" stroke-linejoin="round"/>
<path d="M168.021 90.0599C166.003 88.6654 164.357 86.7989 163.226 84.6228C161.627 81.2655 160.825 81.4131 160.016 82.8639C159.207 84.3146 160.17 85.7397 160.812 87.0172C161.454 88.2946 164.169 91.3374 164.169 91.3374L168.021 90.0599Z" fill="white" stroke="#263238" stroke-width="0.5" stroke-linecap="round" stroke-linejoin="round"/>
<path d="M139.262 112.425C139.262 112.425 136.945 132.215 137.304 133.287C137.664 134.359 141.58 135.605 142.472 134.892C143.364 134.18 142.831 132.755 142.472 131.862C142.113 130.97 145.502 114.389 145.502 114.389L139.262 112.425Z" fill="#FFC100" stroke="#263238" stroke-width="0.5" stroke-linecap="round" stroke-linejoin="round"/>
<path d="M80.8781 119.281L92.6126 155.928C92.6126 155.928 119.574 140.227 125.89 132.036C132.207 123.845 135.853 114.607 138.087 113.741C140.321 112.874 148.204 115.025 149.359 116.308C150.515 117.592 150.245 118.998 148.846 120.32C147.446 121.643 146.65 121.829 146.65 121.829C146.65 121.829 146.58 124.711 145.951 125.212C145.322 125.713 145.469 125.064 145.309 125.706C145.199 126.393 144.948 127.049 144.57 127.632C144.108 128.274 143.929 128.608 143.486 128.781C142.566 129.173 141.609 129.47 140.629 129.667C138.904 130.112 137.149 130.434 135.378 130.63C134.267 130.822 127.033 145.118 120.241 153.637C113.45 162.155 91.9964 181.689 88.6262 181.792C85.2561 181.894 65.459 149.195 61.2158 141.164" fill="white"/>
<mask id="mask5_171_20542" style="mask-type:luminance" maskUnits="userSpaceOnUse" x="61" y="113" width="90" height="69">
<path d="M80.8781 119.281L92.6126 155.928C92.6126 155.928 119.574 140.227 125.89 132.036C132.207 123.845 135.853 114.607 138.087 113.741C140.321 112.874 148.204 115.025 149.359 116.308C150.515 117.592 150.245 118.998 148.846 120.32C147.446 121.643 146.65 121.829 146.65 121.829C146.65 121.829 146.58 124.711 145.951 125.212C145.322 125.713 145.469 125.064 145.309 125.706C145.199 126.393 144.948 127.049 144.57 127.632C144.108 128.274 143.929 128.608 143.486 128.781C142.566 129.173 141.609 129.47 140.629 129.667C138.904 130.112 137.149 130.434 135.378 130.63C134.267 130.822 127.033 145.118 120.241 153.637C113.45 162.155 91.9964 181.689 88.6262 181.792C85.2561 181.894 65.459 149.195 61.2158 141.164" fill="white"/>
</mask>
<g mask="url(#mask5_171_20542)">
<path opacity="0.2" d="M144.57 127.619C144.948 127.036 145.199 126.38 145.309 125.694C145.45 125.052 145.309 125.694 145.951 125.199C146.593 124.705 146.65 121.816 146.65 121.816C146.65 121.816 147.446 121.63 148.846 120.308C150.245 118.985 150.521 117.541 149.359 116.296C148.197 115.05 140.302 112.893 138.087 113.728C137.509 113.953 136.803 114.755 136.033 115.962C137.207 117.888 138.6 119.062 137.317 122.426C135.391 127.562 130.897 133.981 127.046 139.437C123.194 144.894 91.0977 175.064 87.2461 174.423C84.1006 173.896 74.9659 162.868 71.7178 158.869C78.6763 170.032 86.6362 181.824 88.6583 181.766C92.0156 181.663 113.495 162.136 120.273 153.611C127.052 145.086 134.267 130.784 135.378 130.617C137.149 130.421 138.904 130.099 140.629 129.654C141.609 129.457 142.566 129.16 143.486 128.768C143.961 128.595 144.108 128.274 144.57 127.619Z" fill="#263238"/>
</g>
<path d="M80.8781 119.281L92.6126 155.928C92.6126 155.928 119.574 140.227 125.89 132.036C132.207 123.845 135.853 114.607 138.087 113.741C140.321 112.874 148.204 115.025 149.359 116.308C150.515 117.592 150.245 118.998 148.846 120.32C147.446 121.643 146.65 121.829 146.65 121.829C146.65 121.829 146.58 124.711 145.951 125.212C145.322 125.713 145.469 125.064 145.309 125.706C145.199 126.393 144.948 127.049 144.57 127.632C144.108 128.274 143.929 128.608 143.486 128.781C142.566 129.173 141.609 129.47 140.629 129.667C138.904 130.112 137.149 130.434 135.378 130.63C134.267 130.822 127.033 145.118 120.241 153.637C113.45 162.155 91.9964 181.689 88.6262 181.792C85.2561 181.894 65.459 149.195 61.2158 141.164" stroke="#263238" stroke-width="0.5" stroke-linecap="round" stroke-linejoin="round"/>
<path d="M92.6118 155.928C92.6118 155.928 89.5369 156.057 86.9307 164.274" stroke="#263238" stroke-width="0.5" stroke-linecap="round" stroke-linejoin="round"/>
<path d="M140.63 129.654C141.61 129.457 142.567 129.16 143.487 128.768C143.962 128.595 144.129 128.274 144.572 127.619C144.949 127.036 145.201 126.38 145.31 125.693C145.451 125.052 145.868 124.833 146.491 124.333C147.114 123.832 146.632 121.816 146.632 121.816C146.632 121.816 147.428 121.63 148.828 120.308C150.227 118.985 150.503 117.541 149.341 116.296C148.179 115.05 140.284 112.893 138.069 113.728C135.854 114.562 132.503 123.081 126.694 130.996L132.099 135.425C133.794 132.601 135 130.688 135.398 130.617C137.163 130.42 138.911 130.098 140.63 129.654Z" fill="white"/>
<mask id="mask6_171_20542" style="mask-type:luminance" maskUnits="userSpaceOnUse" x="126" y="113" width="25" height="23">
<path d="M140.63 129.654C141.61 129.457 142.567 129.16 143.487 128.768C143.962 128.595 144.129 128.274 144.572 127.619C144.949 127.036 145.201 126.38 145.31 125.693C145.451 125.052 145.868 124.833 146.491 124.333C147.114 123.832 146.632 121.816 146.632 121.816C146.632 121.816 147.428 121.63 148.828 120.308C150.227 118.985 150.503 117.541 149.341 116.296C148.179 115.05 140.284 112.893 138.069 113.728C135.854 114.562 132.503 123.081 126.694 130.996L132.099 135.425C133.794 132.601 135 130.688 135.398 130.617C137.163 130.42 138.911 130.098 140.63 129.654Z" fill="white"/>
</mask>
<g mask="url(#mask6_171_20542)">
<path opacity="0.2" d="M144.571 127.619C144.948 127.036 145.2 126.38 145.309 125.693C145.45 125.052 145.309 125.693 145.951 125.199C146.593 124.705 146.651 121.816 146.651 121.816C146.651 121.816 147.447 121.63 148.846 120.308C150.246 118.985 150.522 117.541 149.36 116.296C148.198 115.05 140.302 112.893 138.087 113.728C137.51 113.953 136.804 114.755 136.033 115.962C137.208 117.888 138.601 119.062 137.317 122.426C135.391 127.561 130.898 133.981 127.046 139.437C123.195 144.894 91.0981 175.064 87.2466 174.422C84.1011 173.896 74.9664 162.868 71.7183 158.868C78.6768 170.032 86.6367 181.824 88.6588 181.766C92.0161 181.663 113.495 162.136 120.274 153.611C127.053 145.086 134.268 130.784 135.378 130.617C137.149 130.421 138.904 130.099 140.629 129.654C141.609 129.457 142.566 129.16 143.486 128.768C143.961 128.595 144.109 128.274 144.571 127.619Z" fill="#263238"/>
</g>
<path d="M140.63 129.654C141.61 129.457 142.567 129.16 143.487 128.768C143.962 128.595 144.129 128.274 144.572 127.619C144.949 127.036 145.201 126.38 145.31 125.693C145.451 125.052 145.868 124.833 146.491 124.333C147.114 123.832 146.632 121.816 146.632 121.816C146.632 121.816 147.428 121.63 148.828 120.308C150.227 118.985 150.503 117.541 149.341 116.296C148.179 115.05 140.284 112.893 138.069 113.728C135.854 114.562 132.503 123.081 126.694 130.996L132.099 135.425C133.794 132.601 135 130.688 135.398 130.617C137.163 130.42 138.911 130.098 140.63 129.654Z" stroke="#263238" stroke-width="0.5" stroke-linecap="round" stroke-linejoin="round"/>
<path d="M133.646 99.49C131.88 99.49 130.436 102.058 130.436 105.165C130.436 108.272 131.868 110.839 133.646 110.839L172.803 122.67V87.1777L133.646 99.49Z" fill="#FFC100" stroke="#263238" stroke-width="0.5" stroke-linecap="round" stroke-linejoin="round"/>
<path d="M155.677 94.7653L140.399 99.1625" stroke="#263238" stroke-width="0.5" stroke-linecap="round" stroke-linejoin="round"/>
<path d="M160.787 93.2952L157.59 94.2195" stroke="#263238" stroke-width="0.5" stroke-linecap="round" stroke-linejoin="round"/>
<path d="M138.659 97.9106L133.646 99.4898C131.88 99.4898 130.436 102.058 130.436 105.164C130.436 108.271 131.868 110.839 133.646 110.839L138.171 112.206C137.108 109.957 136.597 107.486 136.682 104.999C136.766 102.513 137.445 100.082 138.659 97.9106Z" fill="#263238" stroke="#263238" stroke-width="0.5" stroke-linecap="round" stroke-linejoin="round"/>
<path d="M176.174 128.999C183.591 128.999 189.603 118.328 189.603 105.165C189.603 92.0009 183.591 81.3297 176.174 81.3297C168.757 81.3297 162.745 92.0009 162.745 105.165C162.745 118.328 168.757 128.999 176.174 128.999Z" fill="#D6D6D6" stroke="#263238" stroke-width="0.5" stroke-linecap="round" stroke-linejoin="round"/>
<path d="M176.173 99.8751L163.379 96.4536L162.262 105.569L163.7 114.838L176.173 110.454L176.654 100.132" fill="#D6D6D6"/>
<path d="M176.173 99.8751L163.379 96.4536L162.262 105.569L163.7 114.838L176.173 110.454L176.654 100.132" stroke="#263238" stroke-width="0.5" stroke-linecap="round" stroke-linejoin="round"/>
<path d="M176.173 79.1855C168.091 79.1855 161.537 90.8173 161.537 105.164C161.537 119.512 168.091 131.143 176.173 131.143C184.255 131.143 190.809 119.512 190.809 105.164C190.809 90.8173 184.255 79.1855 176.173 79.1855ZM176.533 127.459C169.799 127.459 164.336 117.477 164.336 105.164C164.336 92.8522 169.799 82.8766 176.533 82.8766C183.266 82.8766 188.729 92.8522 188.729 105.164C188.729 117.477 183.273 127.459 176.533 127.459Z" fill="#263238" stroke="#263238" stroke-width="0.5" stroke-linecap="round" stroke-linejoin="round"/>
<path d="M176.173 110.454C177.818 110.454 179.152 108.086 179.152 105.164C179.152 102.243 177.818 99.875 176.173 99.875C174.528 99.875 173.195 102.243 173.195 105.164C173.195 108.086 174.528 110.454 176.173 110.454Z" fill="#FFC100" stroke="#263238" stroke-width="0.5" stroke-linecap="round" stroke-linejoin="round"/>
<path d="M192.639 84.8024L210.254 79.3459" stroke="#263238" stroke-width="0.5" stroke-linecap="round" stroke-linejoin="round"/>
<path d="M194.95 103.855L211.114 104.433" stroke="#263238" stroke-width="0.5" stroke-linecap="round" stroke-linejoin="round"/>
<path d="M208.341 127.6L211.692 128.679" stroke="#263238" stroke-width="0.5" stroke-linecap="round" stroke-linejoin="round"/>
<path d="M193.794 122.907L205.683 126.746" stroke="#263238" stroke-width="0.5" stroke-linecap="round" stroke-linejoin="round"/>
<path d="M194.373 93.4622L203.032 92.3068" stroke="#263238" stroke-width="0.5" stroke-linecap="round" stroke-linejoin="round"/>
<path d="M190.328 129.256L196.683 134.456" stroke="#263238" stroke-width="0.5" stroke-linecap="round" stroke-linejoin="round"/>
</g>
<path d="M29.7669 63.8196C31.5396 63.1585 33.5179 64.0156 34.2479 65.7611L43.2379 87.2571C43.7474 88.4753 43.1967 89.8779 41.9946 90.4241C40.8198 90.9579 39.4325 90.4861 38.8267 89.3468L27.8875 68.7742C26.8878 66.8941 27.7718 64.5637 29.7669 63.8196ZM46.8818 101.09C45.9786 101.501 45.0586 101.534 44.122 101.191C43.1854 100.847 42.5149 100.23 42.1104 99.3401C41.706 98.45 41.6824 97.5392 42.0396 96.6077C42.3969 95.6762 43.0272 95.0052 43.9305 94.5948C44.8337 94.1844 45.7537 94.151 46.6903 94.4946C47.6269 94.8382 48.2974 95.4551 48.7019 96.3452C48.9697 96.9346 49.0631 97.5453 48.982 98.1771C48.9131 98.8034 48.6968 99.3806 48.3329 99.9087C47.9759 100.419 47.4921 100.813 46.8818 101.09Z" fill="#263238"/>
<path d="M145.154 14.4364C146.921 15.1123 147.839 17.0634 147.233 18.8556L139.766 40.927C139.343 42.1778 138.002 42.866 136.739 42.481C135.505 42.1048 134.776 40.8337 135.075 39.5784L140.469 16.9111C140.962 14.8396 143.166 13.6756 145.154 14.4364ZM133.354 53.7148C132.405 53.4255 131.693 52.8424 131.217 51.9654C130.742 51.0884 130.647 50.1823 130.932 49.247C131.217 48.3118 131.801 47.6128 132.685 47.1502C133.569 46.6875 134.485 46.6008 135.434 46.8901C136.383 47.1793 137.096 47.7625 137.571 48.6395C138.047 49.5165 138.142 50.4226 137.857 51.3579C137.668 51.9771 137.335 52.497 136.856 52.9175C136.39 53.3418 135.846 53.6318 135.224 53.7875C134.619 53.9345 133.995 53.9103 133.354 53.7148Z" fill="#263238"/>
<path d="M48.6043 21.6572C49.3805 21.3198 50.2846 21.6557 50.6521 22.418L55.1785 31.8066C55.435 32.3386 55.2224 32.9782 54.6984 33.2508C54.1863 33.5171 53.5554 33.3393 53.2577 32.8448L47.8825 23.9151C47.3913 23.099 47.7308 22.037 48.6043 21.6572ZM57.1349 37.8992C56.7411 38.104 56.331 38.1408 55.9045 38.0096C55.4779 37.8784 55.1637 37.6187 54.9619 37.2307C54.7601 36.8427 54.7279 36.4364 54.8654 36.0118C55.0029 35.5873 55.2685 35.2726 55.6622 35.0678C56.0559 34.863 56.4661 34.8262 56.8926 34.9575C57.3192 35.0887 57.6333 35.3483 57.8351 35.7363C57.9688 35.9933 58.025 36.2638 58.0038 36.548C57.9879 36.8294 57.905 37.0923 57.755 37.3369C57.6076 37.5734 57.4009 37.7609 57.1349 37.8992Z" fill="#263238"/>
<path d="M175.403 59.3018C176.391 60.6221 176.159 62.4863 174.878 63.5244L159.106 76.3086C158.212 77.0331 156.905 76.9163 156.153 76.0449C155.419 75.1934 155.474 73.9178 156.278 73.1321L170.8 58.9443C172.127 57.6477 174.292 57.8158 175.403 59.3018ZM148.432 82.745C147.867 82.0903 147.614 81.3293 147.672 80.4619C147.73 79.5945 148.081 78.8827 148.726 78.3264C149.372 77.7701 150.127 77.5272 150.994 77.5977C151.86 77.6682 152.576 78.0309 153.14 78.6856C153.705 79.3403 153.958 80.1014 153.9 80.9687C153.842 81.8361 153.491 82.5479 152.846 83.1042C152.418 83.4726 151.931 83.7003 151.383 83.7873C150.842 83.8832 150.306 83.8437 149.776 83.6689C149.261 83.4954 148.813 83.1874 148.432 82.745Z" fill="#263238"/>
<path d="M90.3859 26.7842C91.8223 26.5393 93.1951 27.4747 93.4926 28.9013L97.04 45.9154C97.2476 46.911 96.627 47.8915 95.6384 48.13C94.6729 48.3629 93.6925 47.8057 93.3985 46.857L88.2541 30.2557C87.7696 28.6921 88.7722 27.0594 90.3859 26.7842ZM97.7324 56.6859C96.99 56.865 96.2913 56.7631 95.6363 56.3803C94.9813 55.9975 94.5678 55.4493 94.3957 54.7357C94.2235 54.0221 94.3417 53.3457 94.7501 52.7064C95.1586 52.067 95.734 51.6578 96.4764 51.4788C97.2188 51.2997 97.9174 51.4016 98.5724 51.7844C99.2274 52.1672 99.641 52.7154 99.8131 53.429C99.9271 53.9015 99.9063 54.3656 99.7509 54.8215C99.6055 55.2749 99.3562 55.6718 99.003 56.0121C98.6575 56.3403 98.234 56.5649 97.7324 56.6859Z" fill="#263238"/>
</g>
<defs>
<clipPath id="clip0_171_20542">
<rect width="210" height="210" fill="white"/>
</clipPath>
</defs>
</svg>
