<svg width="121" height="120" viewBox="0 0 121 120" fill="none" xmlns="http://www.w3.org/2000/svg">
<g clip-path="url(#clip0_896_28308)">
<path opacity="0.5" d="M120.5 108.857C120.5 108.891 82.7843 108.785 39.7084 108.785C-3.36749 108.785 0.942101 108.891 0.942101 108.857C0.942101 108.823 -3.38371 108.659 39.7084 108.659C82.8005 108.659 120.5 108.82 120.5 108.857Z" fill="#263238"/>
<path d="M65.5528 84.4691L42.97 97.5081C42.4144 97.8289 42.4144 98.3491 42.97 98.6698L65.5528 111.706C65.8653 111.867 66.2116 111.951 66.563 111.951C66.9144 111.951 67.2607 111.867 67.5732 111.706L90.1509 98.6698C90.7065 98.3491 90.7065 97.8289 90.1509 97.5081L67.5656 84.4691C67.2537 84.311 66.9089 84.2285 66.5592 84.2285C66.2095 84.2285 65.8647 84.311 65.5528 84.4691Z" fill="#E0E0E0"/>
<path d="M31.7648 75.6274C31.929 72.0917 32.3103 68.7733 30.6814 63.6769C29.3126 59.4038 25.2466 55.0575 22.6176 55.1509C20.1754 55.2393 18.7208 57.9289 21.6402 60.9595C22.2589 61.6009 28.2494 66.7681 28.5272 72.6372L29.1686 76.0289C29.1883 76.1232 29.2292 76.2116 29.2884 76.2875C29.3476 76.3634 29.4235 76.4247 29.5101 76.4666C29.5967 76.5086 29.6918 76.5301 29.788 76.5295C29.8842 76.529 29.9791 76.5063 30.0652 76.4633L31.7648 75.6274Z" fill="#FFD000"/>
<path opacity="0.3" d="M31.7648 75.6274C31.929 72.0917 32.3103 68.7733 30.6814 63.6769C29.3126 59.4038 25.2466 55.0575 22.6176 55.1509C20.1754 55.2393 18.7208 57.9289 21.6402 60.9595C22.2589 61.6009 28.2494 66.7681 28.5272 72.6372L29.1686 76.0289C29.1883 76.1232 29.2292 76.2116 29.2884 76.2875C29.3476 76.3634 29.4235 76.4247 29.5101 76.4666C29.5967 76.5086 29.6918 76.5301 29.788 76.5295C29.8842 76.529 29.9791 76.5063 30.0652 76.4633L31.7648 75.6274Z" fill="black"/>
<path d="M30.8025 75.3872C30.7698 75.3781 30.7409 75.3587 30.7199 75.3318C30.699 75.305 30.6873 75.2722 30.6864 75.2382C30.5702 66.2501 27.3452 59.9541 22.5064 57.0801C22.4864 57.0709 22.4686 57.0577 22.4541 57.0412C22.4396 57.0247 22.4288 57.0054 22.4222 56.9844C22.4157 56.9634 22.4137 56.9413 22.4162 56.9195C22.4188 56.8977 22.4259 56.8767 22.4371 56.8578C22.4484 56.839 22.4634 56.8227 22.4813 56.81C22.4993 56.7973 22.5197 56.7885 22.5412 56.7843C22.5627 56.78 22.5849 56.7803 22.6063 56.7851C22.6277 56.79 22.6479 56.7993 22.6655 56.8124C27.5674 59.7218 30.8808 66.1339 30.9995 75.2332C31.0002 75.2538 30.9967 75.2744 30.9893 75.2937C30.9819 75.313 30.9706 75.3305 30.9562 75.3454C30.9419 75.3602 30.9247 75.372 30.9056 75.3801C30.8866 75.3881 30.8661 75.3923 30.8455 75.3923C30.831 75.3931 30.8165 75.3914 30.8025 75.3872Z" fill="white"/>
<path d="M29.671 76.6551C29.528 76.7288 29.371 76.7714 29.2103 76.78C29.0496 76.7886 28.889 76.763 28.7389 76.7051C28.5888 76.6471 28.4527 76.558 28.3396 76.4436C28.2264 76.3292 28.1388 76.1921 28.0825 76.0414C27.4169 74.4415 26.44 72.9899 25.2085 71.7709C22.9734 69.4853 19.8621 68.0306 19.3772 66.4977C18.7963 64.6541 20.4379 63.7348 23.082 64.394C26.2566 65.1844 29.6861 68.9651 30.0448 76.4632L29.671 76.6551Z" fill="#FFD000"/>
<path opacity="0.1" d="M29.671 76.6551C29.528 76.7288 29.371 76.7714 29.2103 76.78C29.0496 76.7886 28.889 76.763 28.7389 76.7051C28.5888 76.6471 28.4527 76.558 28.3396 76.4436C28.2264 76.3292 28.1388 76.1921 28.0825 76.0414C27.4169 74.4415 26.44 72.9899 25.2085 71.7709C22.9734 69.4853 19.8621 68.0306 19.3772 66.4977C18.7963 64.6541 20.4379 63.7348 23.082 64.394C26.2566 65.1844 29.6861 68.9651 30.0448 76.4632L29.671 76.6551Z" fill="black"/>
<path d="M29.161 76.1752C29.1318 76.1666 29.1057 76.1499 29.0856 76.1271C29.0655 76.1043 29.0523 76.0764 29.0473 76.0464C28.0371 69.4675 23.7666 66.3991 21.6477 65.692C21.6087 65.6787 21.5764 65.6506 21.558 65.6137C21.5395 65.5768 21.5364 65.5342 21.5492 65.495C21.5552 65.4752 21.5651 65.4569 21.5784 65.441C21.5916 65.4252 21.6079 65.4121 21.6263 65.4027C21.6447 65.3933 21.6648 65.3877 21.6854 65.3862C21.706 65.3846 21.7266 65.3873 21.7462 65.394C24.0898 66.1743 28.3301 69.2832 29.358 76.0009C29.3612 76.0213 29.3603 76.0422 29.3555 76.0623C29.3506 76.0823 29.3418 76.1013 29.3296 76.1179C29.3174 76.1346 29.302 76.1487 29.2844 76.1594C29.2667 76.1701 29.2471 76.1772 29.2266 76.1802C29.2046 76.1824 29.1824 76.1807 29.161 76.1752Z" fill="white"/>
<path d="M44.0306 82.8705C44.0306 82.8705 35.7647 79.84 34.7444 79.0167C33.8908 78.3247 34.4035 76.668 33.2292 76.3851C31.8679 76.0594 30.8956 76.7892 30.0218 77.5923C29.1935 78.3499 28.1126 78.6959 26.0745 77.9913C24.0365 77.2867 22.0691 76.2841 21.2433 76.6831C20.4175 77.0822 20.9529 77.7262 24.5264 79.3677C26.5746 80.3122 29.1834 81.4133 30.8552 82.0725C32.0617 82.5211 33.1999 83.1357 34.2368 83.8984C36.4163 85.4137 36.8179 85.7496 39.3964 87.2952C44.5508 90.3838 47.5839 91.197 51.6853 90.4192L44.0306 82.8705Z" fill="#D8C0BE"/>
<path d="M36.2925 79.8223C34.6484 80.7693 33.8554 81.8123 33.767 83.6332C33.767 83.6332 34.8757 84.4919 36.6309 85.7066C38.7321 87.1613 43.8184 90.4722 47.2152 90.8182C52.4833 91.3536 54.1526 89.7676 54.1526 89.7676L36.2925 79.8223Z" fill="#455A64"/>
<path d="M34.7672 80.9941C37.4644 85.5399 44.0533 88.3609 46.1318 88.5705C45.4019 87.972 44.3286 85.9339 43.3108 83.7241L36.2925 79.8223C35.7261 80.131 35.2114 80.5264 34.7672 80.9941Z" fill="#37474F"/>
<path d="M19.3061 76.304C19.2655 76.1425 19.2619 75.9739 19.2956 75.8108C19.3293 75.6477 19.3993 75.4943 19.5006 75.362C20.2279 74.5008 21.1573 74.0463 21.7912 73.7255C22.5604 73.368 23.4072 73.2099 24.2535 73.2659C25.8698 73.3619 27.2588 74.5665 28.8751 74.6599C30.0798 74.7307 31.1758 74.117 32.3502 73.8316C32.7202 73.7421 33.1016 73.7089 33.4816 73.7331C33.8048 73.7533 34.315 73.9856 34.4312 74.2508C34.5916 74.573 34.6232 74.9442 34.5196 75.2888C34.4463 75.506 33.9993 75.9202 33.676 76.1475C33.2366 76.4606 32.6861 76.549 32.0294 76.7435C30.3727 77.2208 22.958 77.4051 19.3061 76.304Z" fill="#37474F"/>
<path d="M34.7823 78.5645C34.7823 78.711 34.8076 78.8524 34.8227 79.0015C34.8455 79.201 34.7369 79.254 34.5702 79.3778C33.8909 79.845 33.0322 79.7995 32.2569 79.6656C31.6533 79.5596 31.0396 79.3904 30.436 79.5065C29.7188 79.648 29.1455 80.1733 28.6101 80.6733C28.4928 80.7835 28.3947 80.9123 28.3197 81.0547C28.3197 81.0547 24.1501 79.2742 22.2585 78.2766C21.2989 77.7715 20.1902 77.2968 19.4351 76.4937C19.3921 76.4507 19.6194 76.1679 19.6422 76.1401C19.8972 75.8658 20.2321 75.6785 20.5993 75.6047C21.1974 75.4492 21.8193 75.4072 22.4328 75.4809C23.3647 75.6198 24.2713 75.8648 25.1957 76.0467C26.0246 76.2095 26.8618 76.3276 27.7035 76.4002C28.6205 76.481 29.5421 76.4962 30.4613 76.4457C31.3231 76.4261 32.1737 76.2454 32.9691 75.9128C33.2793 75.7778 33.5691 75.6001 33.8302 75.385C33.9814 75.2331 34.1137 75.0635 34.2242 74.8799C34.353 74.6955 34.4313 74.3748 34.5626 74.6475C34.8808 75.2739 34.9465 76.2386 34.901 76.9407C34.8707 77.423 34.8076 77.9029 34.7899 78.3878C34.7798 78.4458 34.7798 78.5039 34.7823 78.5645Z" fill="#FFD000"/>
<path opacity="0.2" d="M34.7823 78.5645C34.7823 78.711 34.8076 78.8524 34.8227 79.0015C34.8455 79.201 34.7369 79.254 34.5702 79.3778C33.8909 79.845 33.0322 79.7995 32.2569 79.6656C31.6533 79.5596 31.0396 79.3904 30.436 79.5065C29.7188 79.648 29.1455 80.1733 28.6101 80.6733C28.4928 80.7835 28.3947 80.9123 28.3197 81.0547C28.3197 81.0547 24.1501 79.2742 22.2585 78.2766C21.2989 77.7715 20.1902 77.2968 19.4351 76.4937C19.3921 76.4507 19.6194 76.1679 19.6422 76.1401C19.8972 75.8658 20.2321 75.6785 20.5993 75.6047C21.1974 75.4492 21.8193 75.4072 22.4328 75.4809C23.3647 75.6198 24.2713 75.8648 25.1957 76.0467C26.0246 76.2095 26.8618 76.3276 27.7035 76.4002C28.6205 76.481 29.5421 76.4962 30.4613 76.4457C31.3231 76.4261 32.1737 76.2454 32.9691 75.9128C33.2793 75.7778 33.5691 75.6001 33.8302 75.385C33.9814 75.2331 34.1137 75.0635 34.2242 74.8799C34.353 74.6955 34.4313 74.3748 34.5626 74.6475C34.8808 75.2739 34.9465 76.2386 34.901 76.9407C34.8707 77.423 34.8076 77.9029 34.7899 78.3878C34.7798 78.4458 34.7798 78.5039 34.7823 78.5645Z" fill="black"/>
<path d="M23.9226 75.7487C23.1447 76.817 23.1498 78.7085 23.1498 78.7085C23.1498 78.7085 21.8113 78.1479 20.4955 77.413C19.2328 76.7084 19.306 76.3043 19.306 76.3043C19.3695 76.0859 19.4981 75.892 19.6747 75.7487C20.1528 75.3651 20.7619 75.1838 21.3719 75.2436C22.2392 75.3094 23.0956 75.4789 23.9226 75.7487Z" fill="#FAFAFA"/>
<path d="M23.8674 78.0744C23.7713 78.3778 23.7437 78.6986 23.7866 79.0139C23.9091 79.1078 24.0503 79.1742 24.2008 79.2084C24.1937 78.8838 24.2276 78.5597 24.3018 78.2436C24.3877 77.9785 23.9609 77.8143 23.8674 78.0744Z" fill="#FAFAFA"/>
<path d="M25.1352 78.6583C25.0356 78.9608 25.0054 79.2819 25.0468 79.5977C25.1732 79.6887 25.3166 79.7531 25.4685 79.7871C25.4545 79.464 25.4886 79.1406 25.5696 78.8275C25.6554 78.5497 25.2286 78.3956 25.1352 78.6583Z" fill="#FAFAFA"/>
<path d="M26.4028 79.2413C26.3063 79.5411 26.2786 79.8588 26.3219 80.1707C26.4432 80.2681 26.5847 80.3371 26.7361 80.3728C26.7289 80.049 26.7628 79.7257 26.8371 79.4106C26.923 79.1302 26.5088 78.9888 26.4028 79.2413Z" fill="#FAFAFA"/>
<path d="M34.5549 74.6424C34.549 74.5033 34.5063 74.3682 34.4311 74.251C34.4311 74.251 34.0144 75.1071 32.5244 75.6021C31.1101 76.0718 29.0898 76.2991 26.1754 75.6274C23.261 74.9556 21.5765 74.3293 20.2582 74.852C18.9399 75.3748 19.3061 76.3042 19.3061 76.3042C19.3061 76.3042 19.9349 75.145 21.7836 75.3622C23.5666 75.5718 26.188 76.5163 28.6276 76.6047C31.1758 76.7007 33.7493 76.3749 34.5549 74.6424Z" fill="#E0E0E0"/>
<path d="M64.1861 80.1707C62.9233 76.1957 59.4912 73.8798 56.4379 71.319C53.3846 68.7582 48.513 64.4674 48.513 64.4674L31.3398 61.0024C30.269 63.1945 29.1932 67.3843 29.1881 70.5714C29.1881 73.5439 30.0897 77.5266 35.2922 81.388C38.4465 83.7291 40.9644 85.5677 43.2247 87.0047C45.6138 88.5199 50.8869 91.1944 53.9958 90.1438C54.9545 89.8432 55.76 89.1837 56.2438 88.3032C56.7276 87.4226 56.8524 86.3891 56.592 85.4187C56.9582 85.4515 57.3218 85.4717 57.6602 85.4742C58.0542 85.4869 58.4179 85.4742 58.6982 85.4742C59.7277 85.5024 60.7539 85.3467 61.7288 85.0146C63.8855 84.2266 64.9159 82.4765 64.1861 80.1707Z" fill="#455A64"/>
<path d="M57.3347 85.3023C56.9988 85.3023 56.6326 85.2796 56.2689 85.2443C54.3496 81.1505 43.8108 72.7735 43.8108 72.7735C44.6619 72.3593 46.6343 71.3037 47.2959 70.1167C47.0257 71.632 46.157 72.3896 45.316 73.0109C46.609 74.1701 52.0438 78.7513 53.496 80.1277C55.0188 81.5697 56.5998 83.2466 57.3347 85.3023Z" fill="#37474F"/>
<path d="M44.9197 39.2632C47.1623 39.44 48.2306 40.0638 50.4454 42.5109C52.6602 44.9581 56.7591 49.3878 57.4965 50.5369C58.2339 51.686 60.3781 54.171 57.1505 56.0323C53.923 57.8936 47.0209 58.5174 47.0209 58.5174L44.9197 39.2632Z" fill="#C2ACAB"/>
<path d="M48.8592 52.9894C51.857 50.5246 50.8796 47.3097 49.776 45.1453C47.5864 40.8167 45.3084 39.1145 44.3588 39.1297L38.2977 38.3442C35.8571 38.7257 33.4997 39.5217 31.3274 40.698C28.9585 42.0668 29.5899 43.6275 29.9056 45.0468C30.7592 48.9083 31.8376 51.108 32.1583 52.2772C32.479 53.4465 33.07 55.2699 32.5902 57.164C32.4033 57.8964 31.9083 58.6086 31.1582 60.629C30.4982 62.2891 29.991 64.0059 29.6429 65.7582C29.6429 65.7582 34.4615 70.1727 42.9623 68.958C49.2204 68.064 50.0159 65.7784 50.0159 65.7784L48.5486 58.0808C48.6976 55.5275 48.733 54.6007 48.8592 52.9894Z" fill="#FFD000"/>
<g opacity="0.5">
<path d="M48.8592 52.9894C51.857 50.5246 50.8796 47.3097 49.776 45.1453C47.5864 40.8167 45.3084 39.1145 44.3588 39.1297L38.2977 38.3442C35.8571 38.7257 33.4997 39.5217 31.3274 40.698C28.9585 42.0668 29.5899 43.6275 29.9056 45.0468C30.7592 48.9083 31.8376 51.108 32.1583 52.2772C32.479 53.4465 33.07 55.2699 32.5902 57.164C32.4033 57.8964 31.9083 58.6086 31.1582 60.629C30.4982 62.2891 29.991 64.0059 29.6429 65.7582C29.6429 65.7582 34.4615 70.1727 42.9623 68.958C49.2204 68.064 50.0159 65.7784 50.0159 65.7784L48.5486 58.0808C48.6976 55.5275 48.733 54.6007 48.8592 52.9894Z" fill="white"/>
</g>
<path d="M46.9652 19.8148C43.7503 18.0798 39.6111 18.7642 37.9847 21.3629C37.9847 21.3629 36.3456 21.0573 34.7016 22.4918C32.8453 24.1232 32.863 26.583 32.8378 28.8433C32.8075 31.4774 31.8276 32.2679 31.469 34.2933C31.1103 36.3187 32.4791 37.6547 33.9768 37.829C33.9768 37.829 33.4717 35.9753 34.0045 35.1166C34.0045 35.1166 33.8429 37.7709 36.3684 38.2204C38.4014 38.5841 39.9293 37.2102 39.9293 37.2102C39.9293 37.2102 37.3887 36.7683 36.9518 35.2201L37.227 32.6366L41.8284 37.5966C44.4777 39.8948 48.2002 38.4527 48.3088 37.3971C48.3088 37.3971 45.3085 34.2983 49.3569 30.4243C53.4052 26.5502 50.1776 21.5473 46.9652 19.8148Z" fill="#37474F"/>
<path d="M49.2705 31.51C48.6922 36.1341 47.0709 37.1266 46.2854 37.3792C45.5 37.6317 44.0605 37.2832 42.674 36.9069L42.4492 39.1117C42.4492 39.1117 44.6136 41.2457 44.0554 41.7558C43.0149 42.7054 40.2672 42.2609 38.9388 41.526C38.0125 41.0527 37.2334 40.3347 36.6861 39.4501C36.5717 39.2617 36.5329 39.037 36.5775 38.8212L37.2342 32.6338C37.2342 32.6338 36.4942 33.0707 35.3805 32.3207C34.3703 31.6464 34.1556 29.5427 35.0926 28.636C35.7618 27.9945 37.0018 28.0122 37.618 29.1765C37.9438 30.02 37.7493 30.7852 38.3176 30.7599C38.8858 30.7347 39.1283 30.2043 39.2192 29.7649C39.3101 29.3255 39.3631 29.0073 39.4717 28.434C40.8759 28.3027 42.4341 26.4136 42.7548 25.0549C43.6817 25.5954 44.6691 26.0323 45.6515 26.0828C47.1971 26.1585 48.0255 25.9464 48.9094 24.9312C49.0614 25.2037 49.172 25.4974 49.2377 25.8024C49.3784 26.4182 49.4629 27.0454 49.4903 27.6763C49.5219 28.9581 49.4484 30.2403 49.2705 31.51Z" fill="#D8C0BE"/>
<path d="M42.672 36.9023C41.1996 36.5563 38.2221 35.3643 37.8736 34.1016C37.8736 34.1016 37.9544 34.8794 38.7929 35.7583C39.6313 36.6371 42.5811 37.8317 42.5811 37.8317L42.672 36.9023Z" fill="#C2ACAB"/>
<path d="M44.2374 29.9392C44.2263 30.0656 44.1783 30.186 44.0993 30.2853C44.0204 30.3846 43.9139 30.4584 43.7933 30.4977C43.6726 30.5369 43.5431 30.5398 43.4208 30.5059C43.2986 30.4721 43.189 30.403 43.1057 30.3073C43.0224 30.2117 42.9691 30.0936 42.9524 29.9678C42.9357 29.842 42.9564 29.7141 43.0119 29.6001C43.0674 29.486 43.1552 29.3907 43.2645 29.3262C43.3737 29.2617 43.4995 29.2307 43.6262 29.2372C43.7125 29.2429 43.7968 29.2657 43.8743 29.3041C43.9518 29.3426 44.0209 29.396 44.0777 29.4612C44.1345 29.5264 44.1778 29.6023 44.2052 29.6843C44.2326 29.7663 44.2435 29.853 44.2374 29.9392Z" fill="#263238"/>
<path d="M48.5941 30.1795C48.5912 30.2578 48.5728 30.3347 48.5401 30.4059C48.5074 30.4771 48.461 30.5412 48.4036 30.5944C48.3461 30.6477 48.2787 30.6891 48.2052 30.7162C48.1317 30.7434 48.0536 30.7558 47.9753 30.7528C47.8951 30.7529 47.8159 30.7357 47.7429 30.7025C47.6699 30.6692 47.605 30.6206 47.5525 30.5599C47.5 30.4993 47.4612 30.4281 47.4388 30.3511C47.4163 30.2741 47.4107 30.1932 47.4223 30.1138C47.4245 30.0355 47.4423 29.9583 47.4746 29.8868C47.5069 29.8154 47.553 29.751 47.6103 29.6974C47.6676 29.6439 47.7349 29.6023 47.8084 29.5749C47.8819 29.5475 47.9601 29.535 48.0385 29.538C48.1971 29.5497 48.3447 29.6237 48.4488 29.744C48.553 29.8642 48.6052 30.0208 48.5941 30.1795Z" fill="#263238"/>
<path d="M45.8237 28.8433L45.5156 33.2249L47.6294 32.788L45.8237 28.8433Z" fill="#C2ACAB"/>
<path d="M42.0327 27.9747L43.3181 27.0176C43.4428 27.1944 43.4946 27.4125 43.4626 27.6265C43.4306 27.8406 43.3174 28.034 43.1464 28.1667C43.0614 28.2293 42.9647 28.2742 42.862 28.2985C42.7592 28.3229 42.6526 28.3262 42.5486 28.3082C42.4445 28.2903 42.3452 28.2515 42.2565 28.1942C42.1679 28.1369 42.0917 28.0622 42.0327 27.9747Z" fill="#263238"/>
<path d="M43.1289 33.2075L45.1013 34.1192C44.9709 34.3824 44.744 34.5851 44.4679 34.6853C44.1918 34.7855 43.8877 34.7754 43.6189 34.6571C43.4893 34.5966 43.3733 34.5105 43.2779 34.4039C43.1825 34.2974 43.1097 34.1726 43.0639 34.0371C43.0182 33.9016 43.0003 33.7582 43.0115 33.6156C43.0226 33.4731 43.0626 33.3342 43.1289 33.2075Z" fill="#874C4C"/>
<path d="M43.6188 34.657C43.4364 34.573 43.2823 34.4378 43.1751 34.2679C43.068 34.098 43.0124 33.9007 43.0152 33.6999C43.1331 33.6698 43.2555 33.6612 43.3764 33.6746C43.6308 33.708 43.863 33.8371 44.0258 34.0355C44.1885 34.2339 44.2697 34.4868 44.2527 34.7429C44.0376 34.78 43.8163 34.75 43.6188 34.657Z" fill="#C2ACAB"/>
<path d="M48.2 27.25L49.3643 28.3688C49.295 28.448 49.2103 28.5122 49.1154 28.5576C49.0204 28.6031 48.9173 28.6287 48.8121 28.6329C48.707 28.6372 48.6021 28.62 48.5038 28.5824C48.4055 28.5448 48.3159 28.4876 48.2404 28.4142C48.0858 28.2623 47.9955 28.0568 47.9879 27.8402C47.9804 27.6236 48.0563 27.4123 48.2 27.25Z" fill="#263238"/>
<path d="M51.0815 43.9409C50.7854 43.8958 50.492 43.8342 50.2027 43.7566C49.6685 43.5919 49.1089 43.5252 48.551 43.5596C47.9752 43.6101 47.2049 43.85 46.7983 44.2566C46.6291 44.4233 46.566 44.8198 46.8463 44.9183C46.836 44.9841 46.8445 45.0516 46.8709 45.1128C46.8973 45.174 46.9404 45.2265 46.9953 45.2643C47.1274 45.3524 47.2885 45.3859 47.4448 45.3577C47.4448 45.5143 47.6974 45.6103 47.9499 45.5875C48.3029 45.493 48.6682 45.4521 49.0334 45.4663C49.8036 45.489 49.9349 45.782 49.9349 45.782" fill="#455A64"/>
<path d="M48.0484 44.8523C47.8775 44.8213 47.7013 44.8562 47.5551 44.9499C47.4089 45.0436 47.3036 45.1892 47.2604 45.3574C47.3218 45.3612 47.3834 45.3612 47.4448 45.3574C47.4674 45.2145 47.5409 45.0846 47.6519 44.9917C47.7629 44.8989 47.9037 44.8493 48.0484 44.8523Z" fill="#37474F"/>
<path d="M47.47 44.3752C47.3135 44.3668 47.1579 44.405 47.0231 44.485C46.8882 44.565 46.7801 44.6832 46.7124 44.8247C46.7439 44.8669 46.7869 44.8994 46.8362 44.9181C46.8801 44.7772 46.9629 44.6515 47.075 44.5555C47.1871 44.4594 47.324 44.3969 47.47 44.3752Z" fill="#37474F"/>
<path d="M57.8547 42.0342L56.5919 42.3852L54.0665 43.0873L53.8417 43.1429L53.2558 43.2414C52.8429 43.2798 52.4335 43.349 52.031 43.4484H51.9426C51.7815 43.4553 51.622 43.4824 51.4678 43.5293C51.3654 43.6078 51.2676 43.6922 51.1748 43.7818L50.9071 44.0344C50.8768 44.0672 50.8465 44.1 50.8162 44.1379L50.0283 45.5143C49.8561 45.7309 49.623 45.8911 49.359 45.9739C48.9461 46.0617 48.5765 46.2902 48.3135 46.6204C48.2857 46.5786 48.2483 46.5441 48.2043 46.5199C48.1603 46.4957 48.1111 46.4826 48.0609 46.4815C48.0501 46.4096 48.0213 46.3415 47.9771 46.2837C47.933 46.2258 47.8749 46.1801 47.8084 46.1507C47.6473 46.0844 47.4675 46.0799 47.3033 46.1381C47.3033 46.0093 47.0836 45.8426 46.6441 45.9411C45.7754 46.1355 45.2627 46.4815 44.3586 47.0523C43.2322 47.7645 42.8686 48.4135 42.8862 48.9464C42.8818 49.1177 42.9238 49.2871 43.0079 49.4365C43.0919 49.5859 43.2148 49.7098 43.3635 49.7949C43.3635 49.7949 39.8607 53.1437 44.6616 55.9874C49.3237 58.7477 55.4201 55.798 57.3243 51.3784C57.8236 50.2055 58.1346 48.9611 58.2461 47.6912C58.5063 45.2592 58.0239 43.3803 57.8547 42.0342Z" fill="#455A64"/>
<path d="M48.2102 47.4586C48.2102 47.4586 48.9678 47.1202 49.3163 47.5344C49.4047 47.4927 49.5021 47.4739 49.5996 47.4796C49.6971 47.4853 49.7916 47.5155 49.8745 47.5672C49.9426 47.6119 49.9947 47.6771 50.0233 47.7534C50.0519 47.8297 50.0555 47.9131 50.0336 47.9915C50.088 47.9957 50.1402 48.0145 50.1847 48.0461C50.2292 48.0777 50.2643 48.1208 50.2861 48.1708C50.3149 48.2645 50.3212 48.3636 50.3045 48.4601C50.2878 48.5566 50.2486 48.6479 50.1901 48.7264C50.0536 48.9834 49.8671 49.2105 49.6416 49.3943C49.4161 49.5782 49.1561 49.7152 48.8769 49.7972C49.1485 49.9539 49.3789 50.1731 49.5489 50.4366C49.7188 50.7002 49.8235 51.0004 49.8543 51.3125C50.0285 52.5348 49.6371 53.1687 49.6371 53.1687C51.2473 52.7781 52.674 51.8453 53.6778 50.5271C55.8144 47.7844 55.0416 42.9507 55.0416 42.9507L51.4655 43.5543C51.0897 43.7529 50.7644 44.0352 50.5149 44.3794C50.2653 44.7235 50.0981 45.1203 50.026 45.5393C49.2873 45.6087 48.5795 45.8699 47.9728 46.2969C48.0113 46.3593 48.0394 46.4276 48.0561 46.499C48.1054 46.5038 48.1532 46.5186 48.1966 46.5425C48.24 46.5664 48.2782 46.5988 48.3087 46.6379C48.4004 46.7613 48.4412 46.9152 48.4229 47.0679C48.4046 47.2206 48.3285 47.3604 48.2102 47.4586Z" fill="#FFD000"/>
<path opacity="0.3" d="M48.2102 47.4586C48.2102 47.4586 48.9678 47.1202 49.3163 47.5344C49.4047 47.4927 49.5021 47.4739 49.5996 47.4796C49.6971 47.4853 49.7916 47.5155 49.8745 47.5672C49.9426 47.6119 49.9947 47.6771 50.0233 47.7534C50.0519 47.8297 50.0555 47.9131 50.0336 47.9915C50.088 47.9957 50.1402 48.0145 50.1847 48.0461C50.2292 48.0777 50.2643 48.1208 50.2861 48.1708C50.3149 48.2645 50.3212 48.3636 50.3045 48.4601C50.2878 48.5566 50.2486 48.6479 50.1901 48.7264C50.0536 48.9834 49.8671 49.2105 49.6416 49.3943C49.4161 49.5782 49.1561 49.7152 48.8769 49.7972C49.1485 49.9539 49.3789 50.1731 49.5489 50.4366C49.7188 50.7002 49.8235 51.0004 49.8543 51.3125C50.0285 52.5348 49.6371 53.1687 49.6371 53.1687C51.2473 52.7781 52.674 51.8453 53.6778 50.5271C55.8144 47.7844 55.0416 42.9507 55.0416 42.9507L51.4655 43.5543C51.0897 43.7529 50.7644 44.0352 50.5149 44.3794C50.2653 44.7235 50.0981 45.1203 50.026 45.5393C49.2873 45.6087 48.5795 45.8699 47.9728 46.2969C48.0113 46.3593 48.0394 46.4276 48.0561 46.499C48.1054 46.5038 48.1532 46.5186 48.1966 46.5425C48.24 46.5664 48.2782 46.5988 48.3087 46.6379C48.4004 46.7613 48.4412 46.9152 48.4229 47.0679C48.4046 47.2206 48.3285 47.3604 48.2102 47.4586Z" fill="black"/>
<path opacity="0.1" d="M53.5034 46.1581C52.9175 46.1353 52.1119 46.2793 51.6497 46.6354C51.4578 46.7819 51.3467 47.1708 51.6144 47.3072C51.5958 47.3718 51.5957 47.4403 51.614 47.505C51.6323 47.5697 51.6683 47.628 51.7179 47.6734C51.8398 47.7797 51.9984 47.8341 52.1599 47.8249C52.1447 47.984 52.3771 48.1254 52.6347 48.1204C52.9882 48.1204 53.0867 48.0017 53.7408 48.138C54.0874 48.2161 54.4045 48.3913 54.655 48.6431C54.8713 47.9748 55.0177 47.2859 55.0919 46.5874C54.5957 46.3414 54.056 46.1956 53.5034 46.1581Z" fill="black"/>
<path d="M55.1803 46.196C54.6589 45.9282 54.0882 45.7701 53.5034 45.7313C52.9175 45.706 52.1119 45.8525 51.6497 46.2086C51.4578 46.3551 51.3467 46.744 51.6144 46.8804C51.5958 46.945 51.5957 47.0135 51.614 47.0782C51.6323 47.1429 51.6683 47.2012 51.7179 47.2466C51.8403 47.352 51.9986 47.4062 52.1599 47.3981C52.1447 47.5572 52.3771 47.6986 52.6347 47.6936C52.9882 47.6936 53.0867 47.5749 53.7408 47.7113C54.1419 47.801 54.5028 48.0191 54.7687 48.3325L55.9481 46.5142C55.6821 46.4341 55.4249 46.3275 55.1803 46.196Z" fill="#455A64"/>
<path d="M52.7585 46.9816C52.6676 46.9379 52.5666 46.9196 52.4662 46.9285C52.3657 46.9373 52.2695 46.9732 52.1877 47.0321C52.1302 47.0705 52.082 47.1213 52.0466 47.1807C52.0112 47.2402 51.9895 47.3067 51.9832 47.3756C52.0414 47.3875 52.1005 47.3951 52.1599 47.3983C52.1726 47.1281 52.4731 46.9715 52.7585 46.9816Z" fill="#37474F"/>
<path d="M51.4832 46.7415C51.5084 46.8024 51.5552 46.8518 51.6145 46.8804C51.656 46.7888 51.7203 46.7094 51.8012 46.6497C51.8821 46.59 51.977 46.5521 52.0767 46.5395C51.9688 46.5195 51.8575 46.5277 51.7536 46.563C51.6497 46.5984 51.5566 46.6599 51.4832 46.7415Z" fill="#37474F"/>
<path opacity="0.1" d="M58.2918 45.2971C58.2008 43.9838 57.9634 42.8979 57.8548 42.0342L56.5921 42.3852L54.0666 43.0873L53.8419 43.1429L53.256 43.2414C52.8431 43.2798 52.4337 43.349 52.0311 43.4484H51.9427C51.7816 43.454 51.6219 43.4812 51.4679 43.5293C51.3876 43.5686 51.31 43.6133 51.2356 43.6631C51.4023 43.8702 52.0311 44.5369 53.4176 44.84C55.0693 45.2036 56.8219 44.6506 56.8219 44.6506C56.9659 44.9011 57.1862 45.099 57.4506 45.2153C57.7151 45.3316 58.0098 45.3603 58.2918 45.2971Z" fill="black"/>
<path d="M55.3949 36.988C55.2737 36.5359 54.708 36.339 53.8039 36.3213C53.0892 36.3061 52.4073 36.5233 51.3542 36.0511C50.301 35.5788 49.4298 35.7985 49.1444 36.8592C48.859 37.9199 49.1014 39.223 50.2581 39.6751C51.3289 40.0943 53.069 39.8797 54.0463 39.2104C55.0237 38.5412 55.3949 36.988 55.3949 36.988Z" fill="#37474F"/>
<path d="M52.2687 36.5386C52.2926 36.4705 52.3103 36.4003 52.3217 36.329C51.9862 36.2862 51.6592 36.1925 51.3519 36.0512C50.2963 35.5764 49.4275 35.7987 49.1447 36.8594C49.0469 37.2211 49.0153 37.5976 49.0512 37.9706C49.2592 38.0969 49.4916 38.1778 49.7331 38.208C49.8288 38.2269 49.9276 38.2225 50.0212 38.1952C50.1148 38.168 50.2005 38.1187 50.271 38.0514C50.4251 37.8645 50.3695 37.5463 50.5236 37.3771C50.6776 37.2079 51.0287 37.2458 51.304 37.2331C51.5139 37.2203 51.716 37.1483 51.8867 37.0253C52.0575 36.9024 52.1899 36.7337 52.2687 36.5386Z" fill="#FFD000"/>
<path opacity="0.4" d="M52.2687 36.5386C52.2926 36.4705 52.3103 36.4003 52.3217 36.329C51.9862 36.2862 51.6592 36.1925 51.3519 36.0512C50.2963 35.5764 49.4275 35.7987 49.1447 36.8594C49.0469 37.2211 49.0153 37.5976 49.0512 37.9706C49.2592 38.0969 49.4916 38.1778 49.7331 38.208C49.8288 38.2269 49.9276 38.2225 50.0212 38.1952C50.1148 38.168 50.2005 38.1187 50.271 38.0514C50.4251 37.8645 50.3695 37.5463 50.5236 37.3771C50.6776 37.2079 51.0287 37.2458 51.304 37.2331C51.5139 37.2203 51.716 37.1483 51.8867 37.0253C52.0575 36.9024 52.1899 36.7337 52.2687 36.5386Z" fill="black"/>
<path d="M58.2539 39.0062C57.7488 37.9178 57.4634 37.6753 56.0592 37.1803C54.6551 36.6853 53.7863 36.7409 52.5564 37.5011C51.7786 37.9809 51.4654 39.2537 51.4654 39.2537C51.2169 39.2861 50.9773 39.3675 50.7605 39.4932C50.5438 39.6189 50.3541 39.7865 50.2027 39.9861C49.6597 40.8195 50.0739 42.3045 50.4249 42.8046C50.9966 43.6056 51.8516 44.1591 52.8165 44.3527C54.6222 44.7214 56.0794 44.6052 56.9861 43.6834C58.1225 42.5343 58.6226 39.7992 58.2539 39.0062Z" fill="#455A64"/>
<path d="M57.9886 40.7714C58.0141 40.6426 58.026 40.5113 58.0239 40.38C58.0239 39.9658 57.9305 39.4127 57.6502 39.097C57.4329 38.7743 57.1184 38.5292 56.7523 38.3975C56.3863 38.2658 55.9877 38.2543 55.6146 38.3647C55.164 38.4575 54.7642 38.715 54.4933 39.0869C54.2408 39.4683 54.16 39.9052 54.5135 40.2436C54.6476 40.3529 54.7741 40.471 54.8924 40.5972C55.054 40.8017 55.1222 41.0694 55.2737 41.2816C55.4452 41.5141 55.6912 41.6808 55.9707 41.7538C56.2478 41.8257 56.5369 41.8386 56.8193 41.7917C56.9993 41.7807 57.1753 41.7332 57.3364 41.652C57.4974 41.5708 57.6403 41.4577 57.7562 41.3195C57.8713 41.1551 57.9504 40.9684 57.9886 40.7714Z" fill="#FFD000"/>
<path opacity="0.3" d="M57.9886 40.7714C58.0141 40.6426 58.026 40.5113 58.0239 40.38C58.0239 39.9658 57.9305 39.4127 57.6502 39.097C57.4329 38.7743 57.1184 38.5292 56.7523 38.3975C56.3863 38.2658 55.9877 38.2543 55.6146 38.3647C55.164 38.4575 54.7642 38.715 54.4933 39.0869C54.2408 39.4683 54.16 39.9052 54.5135 40.2436C54.6476 40.3529 54.7741 40.471 54.8924 40.5972C55.054 40.8017 55.1222 41.0694 55.2737 41.2816C55.4452 41.5141 55.6912 41.6808 55.9707 41.7538C56.2478 41.8257 56.5369 41.8386 56.8193 41.7917C56.9993 41.7807 57.1753 41.7332 57.3364 41.652C57.4974 41.5708 57.6403 41.4577 57.7562 41.3195C57.8713 41.1551 57.9504 40.9684 57.9886 40.7714Z" fill="black"/>
<path d="M55.7284 39.7814C55.7289 39.864 55.7048 39.9449 55.6592 40.0138C55.6136 40.0827 55.5485 40.1365 55.4723 40.1684C55.396 40.2002 55.3121 40.2087 55.231 40.1927C55.1499 40.1767 55.0754 40.137 55.017 40.0785C54.9586 40.0201 54.9188 39.9456 54.9028 39.8646C54.8868 39.7835 54.8953 39.6995 54.9272 39.6233C54.959 39.547 55.0128 39.482 55.0817 39.4364C55.1506 39.3908 55.2316 39.3667 55.3142 39.3672C55.4238 39.3679 55.5288 39.4117 55.6063 39.4892C55.6838 39.5668 55.7277 39.6717 55.7284 39.7814Z" fill="#263238"/>
<path d="M52.7939 39.006C52.7939 39.0879 52.7696 39.168 52.7241 39.2361C52.6786 39.3042 52.6139 39.3573 52.5382 39.3886C52.4625 39.42 52.3792 39.4282 52.2989 39.4122C52.2185 39.3962 52.1447 39.3568 52.0868 39.2988C52.0289 39.2409 51.9895 39.1671 51.9735 39.0868C51.9575 39.0064 51.9657 38.9232 51.997 38.8475C52.0284 38.7718 52.0815 38.7071 52.1496 38.6616C52.2177 38.6161 52.2978 38.5918 52.3797 38.5918C52.4895 38.5918 52.5949 38.6354 52.6726 38.7131C52.7502 38.7908 52.7939 38.8961 52.7939 39.006Z" fill="#263238"/>
<path d="M51.7912 42.4181H51.7634C51.7506 42.4157 51.7384 42.4107 51.7276 42.4036C51.7167 42.3964 51.7073 42.3872 51.7 42.3763C51.6928 42.3655 51.6877 42.3534 51.6851 42.3406C51.6826 42.3278 51.6826 42.3147 51.6852 42.3019L51.8695 41.3448C51.8745 41.319 51.8896 41.2962 51.9114 41.2816C51.9332 41.2669 51.9599 41.2615 51.9857 41.2665C52.0115 41.2715 52.0342 41.2866 52.0489 41.3083C52.0636 41.3301 52.069 41.3569 52.064 41.3826L51.8796 42.3398C51.875 42.3605 51.8639 42.3792 51.848 42.3932C51.8322 42.4073 51.8123 42.416 51.7912 42.4181Z" fill="#263238"/>
<path d="M52.3846 40.226C51.8795 40.0719 51.4881 40.0972 51.3921 40.2866C51.238 40.6048 51.4679 41.0695 51.627 41.2539C51.7158 41.3325 51.8201 41.3918 51.9332 41.4279C52.0462 41.464 52.1656 41.4761 52.2836 41.4635C52.569 41.4332 53.0261 41.2488 53.1119 40.9584C53.1978 40.6679 52.9276 40.3927 52.3846 40.226Z" fill="#263238"/>
<path d="M51.5867 40.2636C51.5198 40.3037 51.4699 40.367 51.4466 40.4415C51.4233 40.516 51.4282 40.5965 51.4604 40.6676C51.5185 40.7712 51.6195 40.3848 51.8948 40.3848C52.2083 40.4172 52.5104 40.52 52.7787 40.6853C52.9504 40.7964 52.9555 40.5944 52.6146 40.4328C52.1979 40.2105 51.8039 40.1499 51.5867 40.2636Z" fill="#37474F"/>
<path d="M52.3997 42.5112C52.3391 42.5112 52.281 42.5112 52.2204 42.5112C52.0416 42.5089 51.8651 42.4714 51.7008 42.4008C51.5366 42.3301 51.3879 42.2278 51.2633 42.0996C51.2472 42.0788 51.24 42.0525 51.2433 42.0265C51.2467 42.0004 51.2602 41.9767 51.281 41.9607C51.3017 41.9446 51.328 41.9374 51.3541 41.9407C51.3801 41.944 51.4038 41.9576 51.4199 41.9783C51.6398 42.1887 51.9313 42.3078 52.2356 42.3117C52.4324 42.3383 52.6326 42.3246 52.824 42.2717C53.0154 42.2187 53.1941 42.1275 53.3493 42.0036C53.3588 41.9946 53.3699 41.9876 53.382 41.983C53.3942 41.9783 53.4072 41.9761 53.4202 41.9765C53.4332 41.9768 53.446 41.9797 53.4579 41.985C53.4698 41.9903 53.4805 41.9979 53.4895 42.0074C53.4984 42.0168 53.5054 42.028 53.5101 42.0401C53.5147 42.0523 53.517 42.0652 53.5166 42.0783C53.5163 42.0913 53.5133 42.1041 53.508 42.116C53.5027 42.1279 53.4951 42.1386 53.4857 42.1475C53.1814 42.3994 52.7943 42.529 52.3997 42.5112Z" fill="#263238"/>
<path d="M57.4407 37.8239C57.9963 37.8871 59.1024 38.1497 59.4434 38.6775C59.7843 39.2054 60.8652 40.9681 60.5697 42.6223C60.4759 43.2293 60.162 43.7805 59.6878 44.1708C59.2137 44.5611 58.6124 44.7632 57.9988 44.7387C57.0947 44.6478 56.5391 44.2336 56.9886 42.9304C57.4381 41.6273 57.7791 39.7938 57.4482 38.92C57.1502 38.1219 56.8143 37.7583 57.4407 37.8239Z" fill="#37474F"/>
<path d="M60.143 39.9907C59.9126 40.3261 59.6006 40.5973 59.2363 40.7787C59.0626 40.8463 58.898 40.9354 58.7464 41.0438C58.6712 41.0992 58.614 41.1753 58.5817 41.2628C58.5494 41.3504 58.5434 41.4454 58.5645 41.5363C58.6403 41.756 58.9029 41.8343 59.1252 41.8975C59.3474 41.9606 59.6076 42.0919 59.6101 42.3243C59.6101 42.4909 59.4762 42.6324 59.4636 42.799C59.4666 42.859 59.482 42.9177 59.5087 42.9715C59.5354 43.0253 59.5729 43.073 59.6189 43.1116C59.6649 43.1502 59.7183 43.179 59.7759 43.196C59.8335 43.2131 59.8939 43.2181 59.9535 43.2107C60.1788 43.1704 60.3802 43.0458 60.5167 42.8622C60.5369 42.7864 60.5546 42.7107 60.5698 42.6298C60.7339 41.7055 60.4687 40.7484 60.143 39.9907Z" fill="#FFD000"/>
<path opacity="0.4" d="M60.143 39.9907C59.9126 40.3261 59.6006 40.5973 59.2363 40.7787C59.0626 40.8463 58.898 40.9354 58.7464 41.0438C58.6712 41.0992 58.614 41.1753 58.5817 41.2628C58.5494 41.3504 58.5434 41.4454 58.5645 41.5363C58.6403 41.756 58.9029 41.8343 59.1252 41.8975C59.3474 41.9606 59.6076 42.0919 59.6101 42.3243C59.6101 42.4909 59.4762 42.6324 59.4636 42.799C59.4666 42.859 59.482 42.9177 59.5087 42.9715C59.5354 43.0253 59.5729 43.073 59.6189 43.1116C59.6649 43.1502 59.7183 43.179 59.7759 43.196C59.8335 43.2131 59.8939 43.2181 59.9535 43.2107C60.1788 43.1704 60.3802 43.0458 60.5167 42.8622C60.5369 42.7864 60.5546 42.7107 60.5698 42.6298C60.7339 41.7055 60.4687 40.7484 60.143 39.9907Z" fill="black"/>
<path d="M48.2101 47.4585C46.7226 48.1101 45.3033 48.8349 45.0331 49.6885C44.7629 50.5421 45.4877 50.7391 45.4877 50.7391C45.4877 50.7391 44.7452 50.7037 44.7452 50.0244C44.7452 49.345 45.3614 48.2919 48.2101 47.4585Z" fill="#37474F"/>
<path d="M49.2987 48.1785C49.4654 48.1558 49.7709 48.0421 49.8038 47.8401C49.8214 47.7012 49.7002 47.6734 49.584 47.6759C49.4224 47.681 49.2667 47.7376 49.1396 47.8376C48.9401 48.0068 49.0588 48.2113 49.2987 48.1785Z" fill="#37474F"/>
<path d="M49.5637 48.6834C49.7329 48.6834 50.0536 48.6354 50.1142 48.4309C50.1547 48.297 50.0435 48.249 49.9274 48.2288C49.7681 48.2036 49.6049 48.2311 49.4627 48.3071C49.2379 48.446 49.3238 48.6683 49.5637 48.6834Z" fill="#37474F"/>
<path d="M48.5435 47.9258C48.7001 47.9258 48.9905 47.8424 49.0309 47.6606C49.0612 47.5343 48.9526 47.4964 48.8466 47.4889C48.697 47.4772 48.5479 47.5154 48.4223 47.5975C48.2278 47.7313 48.3213 47.9258 48.5435 47.9258Z" fill="#37474F"/>
<path d="M48.6875 48.2769C48.5108 48.1102 48.2532 47.9612 47.4753 48.1835C46.6975 48.4057 46.4272 48.7643 46.6141 48.9285C46.8894 49.1659 47.3415 48.7946 47.2379 49.3477C47.1798 49.6609 47.594 49.8932 48.2986 49.3477C49.0032 48.8022 48.882 48.4587 48.6875 48.2769Z" fill="#37474F"/>
<path d="M47.2175 46.8199C47.3841 46.7997 47.6897 46.6861 47.7226 46.4815C47.7402 46.3452 47.619 46.3174 47.5028 46.3174C47.3412 46.3224 47.1855 46.3791 47.0584 46.479C46.8664 46.6482 46.9851 46.8503 47.2175 46.8199Z" fill="#37474F"/>
<path d="M47.4903 47.3197C47.6595 47.3197 47.9777 47.2717 48.0409 47.0671C48.0813 46.9358 47.9702 46.8853 47.854 46.8676C47.6939 46.8431 47.5301 46.8705 47.3868 46.9459C47.1671 47.0848 47.2504 47.307 47.4903 47.3197Z" fill="#37474F"/>
<path d="M46.46 46.5622C46.6166 46.5622 46.907 46.4814 46.9474 46.3097C46.9777 46.1834 46.8691 46.148 46.763 46.1379C46.6136 46.1274 46.4648 46.1655 46.3388 46.2465C46.1569 46.3703 46.2478 46.5673 46.46 46.5622Z" fill="#37474F"/>
<path d="M46.6138 46.9159C46.437 46.7518 46.1794 46.6002 45.4015 46.8225C44.6237 47.0447 44.3535 47.4059 44.5403 47.5801C44.8156 47.8175 45.2677 47.4463 45.1641 47.9994C45.106 48.315 45.5202 48.5449 46.2248 47.9994C46.9294 47.4538 46.8057 47.0978 46.6138 46.9159Z" fill="#37474F"/>
<path d="M43.3639 53.8078C43.3402 53.849 43.3054 53.8828 43.2634 53.9051C43.2214 53.9275 43.1739 53.9375 43.1265 53.934C41.4774 53.8052 39.2676 52.4188 38.3786 50.4994C37.4669 48.5194 38.2018 46.2061 38.5276 46.1758C38.8534 46.1455 38.1968 47.4739 38.5706 49.1432C38.914 50.6787 40.3384 52.5854 43.172 53.0526C43.2177 53.0593 43.2607 53.0784 43.2963 53.1078C43.3319 53.1371 43.3588 53.1757 43.374 53.2193C43.4476 53.4093 43.4439 53.6205 43.3639 53.8078Z" fill="#37474F"/>
<path opacity="0.1" d="M57.8701 49.8224C57.6175 49.7744 57.4786 49.8982 57.2109 50.1027C56.9432 50.3073 56.6199 50.5548 56.3901 50.7442C55.5883 51.4118 54.612 51.836 53.5768 51.9665C53.1285 52.0379 52.6736 52.0591 52.2206 52.0296C52.12 52.0301 52.0206 52.0075 51.93 51.9638C51.8394 51.92 51.76 51.8562 51.6978 51.7771C51.6592 51.684 51.6412 51.5836 51.6452 51.4829C51.6491 51.3822 51.6748 51.2835 51.7205 51.1937C51.8675 50.8216 51.9841 50.4381 52.0691 50.0472C52.1246 49.7113 52.1574 49.0092 51.8493 48.7693C51.7859 48.7295 51.7117 48.7105 51.6369 48.715C51.5622 48.7195 51.4908 48.7473 51.4326 48.7945C51.2846 48.9327 51.1556 49.0898 51.0488 49.2617C50.6795 49.7285 50.342 50.2195 50.0386 50.7316C49.8999 50.3649 49.6589 50.0458 49.3441 49.8123C50.2709 49.1304 50.2128 48.7162 50.2128 48.7162C49.7077 49.4537 48.5309 49.7971 48.5309 49.7971C48.852 49.9542 49.1247 50.1949 49.3203 50.4941C49.5158 50.7933 49.627 51.1397 49.6421 51.4968C49.4868 51.8452 49.291 52.1741 49.0587 52.4767C48.6064 52.9955 48.0188 53.3784 47.3616 53.5828C46.8994 53.7394 44.6518 53.9541 42.6213 54.1233C43.0026 54.742 43.6491 55.386 44.6821 55.9896C49.3441 58.7499 55.4406 55.8002 57.3448 51.3806C57.5651 50.8732 57.7467 50.3497 57.8877 49.8148L57.8701 49.8224Z" fill="black"/>
<path d="M40.4598 60.3813C41.7882 60.1793 43.109 59.9116 44.4172 59.5984C47.5614 58.8408 50.7839 57.8483 53.6604 56.3532C54.5604 55.8902 55.4167 55.3467 56.2187 54.7293C56.6164 54.4543 56.9676 54.1175 57.2592 53.7318C57.5458 53.3191 57.7927 52.8802 57.9966 52.421C58.2577 51.8361 58.373 51.1965 58.3325 50.5573C58.3148 50.3628 58.2416 50.1304 58.0497 50.0951C57.7971 50.0496 57.6405 50.383 57.4966 50.537C57.2995 50.7581 57.0886 50.9665 56.8652 51.1608C56.0617 51.8259 55.0863 52.2497 54.0519 52.3832C53.6035 52.4546 53.1487 52.4758 52.6957 52.4463C52.5951 52.4465 52.4958 52.4239 52.4052 52.3802C52.3147 52.3364 52.2352 52.2727 52.1729 52.1938C52.1343 52.1007 52.1163 52.0003 52.1202 51.8996C52.1242 51.7989 52.1499 51.7002 52.1956 51.6104C52.3429 51.2383 52.4595 50.8549 52.5441 50.4638C52.5997 50.1304 52.6325 49.4258 52.3244 49.1884C52.261 49.1486 52.1868 49.1297 52.112 49.1342C52.0373 49.1387 51.9659 49.1665 51.9077 49.2137C51.7584 49.3506 51.6292 49.5079 51.5239 49.6809C51.1161 50.184 50.7488 50.7185 50.4253 51.2795C50.1298 51.8225 49.9202 52.416 49.5237 52.8958C49.0719 53.4147 48.4841 53.797 47.8266 53.9995C47.0689 54.252 41.4245 54.6763 39.937 54.7849L36.3584 47.1681C36.3584 47.1681 34.4668 41.2787 31.3428 40.7104C29.7114 41.6348 29.2341 42.4379 28.9941 44.2461C28.7542 46.0543 29.4538 47.5873 30.2569 50.0294C31.06 52.4716 34.8633 58.3155 35.9367 59.4797C37.01 60.644 37.5782 60.644 39.3966 60.5228C39.7526 60.4849 40.1062 60.4344 40.4598 60.3813Z" fill="#D8C0BE"/>
<path d="M87.3348 80.6405L66.5577 68.6445L45.7807 80.6405L66.5577 92.6365L87.3348 80.6405Z" fill="#FFD000"/>
<path opacity="0.4" d="M87.3348 80.6405L66.5577 68.6445L45.7807 80.6405L66.5577 92.6365L87.3348 80.6405Z" fill="white"/>
<path opacity="0.1" d="M87.3348 80.6405L66.5577 68.6445L45.7807 80.6405L66.5577 92.6365L87.3348 80.6405Z" fill="black"/>
<path opacity="0.1" d="M66.5577 86.093V68.6445L45.7807 80.6405V98.089L66.5577 86.093Z" fill="black"/>
<path opacity="0.2" d="M66.5577 86.0928L45.7807 98.0888L66.5577 110.085L87.3348 98.0888L66.5577 86.0928Z" fill="black"/>
<path d="M66.5579 110.085L87.335 98.0891V80.6406L66.5579 92.6366V110.085Z" fill="#FFD000"/>
<path opacity="0.6" d="M66.5579 110.085L87.335 98.0891V80.6406L66.5579 92.6366V110.085Z" fill="white"/>
<path opacity="0.1" d="M66.5579 92.6366L70.3209 100.256L87.335 90.4546V80.6406L66.5579 92.6366Z" fill="black"/>
<path d="M66.5577 110.085L45.7807 98.0891V80.6406L66.5577 92.6366V110.085Z" fill="#FFD000"/>
<path opacity="0.4" d="M66.5577 110.085L45.7807 98.0891V80.6406L66.5577 92.6366V110.085Z" fill="white"/>
<path opacity="0.1" d="M66.5577 92.6366L62.7973 100.256L45.7807 90.4546V80.6406L66.5577 92.6366Z" fill="black"/>
<path opacity="0.1" d="M47.1977 94.2426V96.2782C47.217 96.628 47.3185 96.9683 47.494 97.2716C47.6695 97.5748 47.9141 97.8323 48.2079 98.0233L52.8042 100.678C53.3624 100.998 53.8144 100.738 53.8144 100.097V98.0586C53.795 97.7092 53.6933 97.3693 53.5178 97.0665C53.3423 96.7637 53.0978 96.5066 52.8042 96.316L48.2079 93.6618C47.6498 93.341 47.1977 93.6012 47.1977 94.2426Z" fill="black"/>
<path d="M45.7808 80.6406L41.0607 86.6386L61.8529 98.622L66.5579 92.6366L45.7808 80.6406Z" fill="#FFD000"/>
<path opacity="0.6" d="M45.7808 80.6406L41.0607 86.6386L61.8529 98.622L66.5579 92.6366L45.7808 80.6406Z" fill="white"/>
<path d="M87.335 80.6406L92.0576 86.6386L71.2654 98.622L66.5579 92.6366L87.335 80.6406Z" fill="#FFD000"/>
<path opacity="0.4" d="M87.335 80.6406L92.0576 86.6386L71.2654 98.622L66.5579 92.6366L87.335 80.6406Z" fill="white"/>
<path d="M56.5926 81.6913C57.027 82.954 59.0878 83.5273 60.4793 85.9669C61.0704 87.0292 61.2748 88.2636 61.0576 89.4596L48.9127 82.4464L48.0818 80.5649L56.5926 81.6913Z" fill="#F0F0F0"/>
<path d="M44.326 84.641C44.3487 84.0627 44.6973 83.2874 45.1493 82.6485C45.8773 81.6569 46.9055 80.9263 48.0814 80.5649L50.8973 82.3328C47.8895 82.2317 46.8565 83.8152 46.5762 84.6991C46.3843 85.3078 46.2226 85.78 45.8666 85.78C45.7756 85.7869 45.6853 85.7592 45.6137 85.7026C45.5422 85.646 45.4945 85.5646 45.4802 85.4745C45.434 85.5279 45.3731 85.5666 45.3051 85.5855C45.237 85.6045 45.1649 85.603 45.0978 85.5811C45.0306 85.5593 44.9714 85.5181 44.9275 85.4627C44.8837 85.4074 44.8572 85.3403 44.8513 85.2699C44.7895 85.3019 44.7188 85.3125 44.6503 85.3002C44.5818 85.2879 44.5193 85.2532 44.4725 85.2017C44.4102 85.1237 44.3649 85.0335 44.3397 84.9369C44.3144 84.8404 44.3098 84.7395 44.326 84.641Z" fill="#F0F0F0"/>
<path d="M44.4724 85.1915C44.5016 85.2015 44.5325 85.2054 44.5632 85.2028C44.5939 85.2002 44.6237 85.1913 44.6508 85.1766C44.6779 85.1618 44.7016 85.1416 44.7205 85.1172C44.7393 85.0929 44.7529 85.0648 44.7603 85.0349C44.8024 84.8983 44.8618 84.7675 44.9371 84.646C44.8766 84.8465 44.8493 85.0555 44.8563 85.2647C44.7934 85.2974 44.7213 85.3079 44.6517 85.2947C44.582 85.2814 44.5189 85.245 44.4724 85.1915Z" fill="#E0E0E0"/>
<path d="M45.0663 85.5554C45.1413 85.5479 45.2119 85.5163 45.2675 85.4653C45.323 85.4143 45.3606 85.3467 45.3744 85.2725C45.3974 85.1373 45.4548 85.0104 45.5411 84.9038C45.4895 85.0851 45.469 85.2738 45.4805 85.4619C45.4276 85.5154 45.3604 85.5527 45.287 85.5692C45.2136 85.5858 45.137 85.581 45.0663 85.5554Z" fill="#E0E0E0"/>
<path d="M49.7434 87.1158C49.8547 86.3608 50.1457 85.6437 50.5919 85.0247C51.2069 84.1147 52.036 83.3698 53.0063 82.8553V82.0977C53.0063 82.0977 56.5242 82.8174 56.5899 85.1509C53.5265 84.8681 52.3749 86.4137 52.0441 87.3102C51.8117 87.9214 51.6172 88.3911 51.2536 88.3709C51.1605 88.3727 51.0701 88.3394 51.0004 88.2776C50.9307 88.2159 50.8868 88.1302 50.8773 88.0376C50.8262 88.0885 50.7613 88.1233 50.6906 88.1377C50.6199 88.152 50.5466 88.1454 50.4797 88.1185C50.4127 88.0916 50.3551 88.0457 50.314 87.9864C50.2729 87.9271 50.2501 87.8571 50.2484 87.785C50.1832 87.8135 50.1106 87.82 50.0413 87.8036C49.9721 87.7872 49.9101 87.7488 49.8646 87.6941C49.8052 87.6115 49.7637 87.5174 49.7428 87.4178C49.7219 87.3182 49.7221 87.2153 49.7434 87.1158Z" fill="#F0F0F0"/>
<path d="M49.8621 87.689C49.8914 87.701 49.9228 87.7068 49.9544 87.7061C49.9859 87.7054 50.0171 87.6982 50.0457 87.6849C50.0744 87.6717 50.1 87.6526 50.121 87.629C50.142 87.6054 50.1579 87.5777 50.1677 87.5476C50.2183 87.41 50.2862 87.2793 50.3697 87.1587C50.2952 87.3602 50.255 87.5727 50.251 87.7875C50.1844 87.8164 50.1102 87.8224 50.0398 87.8046C49.9694 87.7868 49.9069 87.7461 49.8621 87.689Z" fill="#E0E0E0"/>
<path d="M50.4481 88.0959C50.5245 88.0931 50.5979 88.0655 50.6571 88.0171C50.7164 87.9688 50.7583 87.9025 50.7764 87.8282C50.8084 87.6906 50.8754 87.5636 50.9708 87.4595C50.907 87.6421 50.8745 87.8342 50.8749 88.0277C50.8179 88.0791 50.7473 88.113 50.6716 88.1251C50.5958 88.1372 50.5182 88.127 50.4481 88.0959Z" fill="#E0E0E0"/>
<path d="M48.0867 80.5649C47.9049 80.6256 47.7205 80.6963 47.5387 80.7746C48.5109 81.7481 49.6951 82.4836 50.9986 82.9237C52.3219 83.3682 54.2968 83.6283 56.0495 82.9944C56.4184 82.8601 56.7511 82.6423 57.0218 82.358C56.8672 82.1916 56.7401 82.0014 56.6455 81.7948" fill="#E0E0E0"/>
<path d="M52.0391 74.5013C51.5971 73.4078 49.9404 72.1148 48.6701 72.6274C47.9554 72.9153 48.4605 75.5974 48.4605 75.5974C48.4605 75.5974 50.8546 75.5949 52.0391 74.5013Z" fill="#E0E0E0"/>
<path d="M50.9733 75.1352C50.1622 75.4255 49.3092 75.5817 48.4478 75.5973C48.4478 75.5973 47.9427 72.9153 48.6575 72.6274C49.1398 72.5188 50.3495 73.1552 50.9733 75.1352Z" fill="#D8C0BE"/>
<path d="M49.357 74.2586C49.3897 74.0207 49.334 73.779 49.2005 73.5793C49.6374 73.5439 50.246 73.9505 50.3546 74.6753C50.3546 74.6753 49.703 75.8901 48.7408 75.39C48.6415 75.2084 48.5116 75.0453 48.357 74.9077C48.3342 74.7208 48.314 74.5112 48.3014 74.2965C48.6471 74.2125 49.0062 74.1996 49.357 74.2586Z" fill="#C2ACAB"/>
<path d="M55.2997 75.4657C56.277 74.8091 58.3732 74.6702 59.1384 75.8092C59.5677 76.4481 57.3251 78.6251 57.3251 78.6251C57.3251 78.6251 55.6608 77.0341 55.2997 75.4657Z" fill="#E0E0E0"/>
<path d="M55.8196 76.5901C56.5293 77.628 57.3223 78.6256 57.3223 78.6256C57.3223 78.6256 59.5649 76.4486 59.1356 75.8097C58.8073 75.4536 57.4511 75.3021 55.8196 76.5901Z" fill="#D8C0BE"/>
<path d="M57.2314 78.0977C57.3435 78.0101 57.47 77.9426 57.6051 77.8981C57.739 77.7567 57.8905 77.5875 58.0446 77.4082C57.8063 77.1439 57.5167 76.9308 57.1935 76.7819C57.2987 76.5676 57.4782 76.3989 57.6986 76.3071C57.3526 76.0318 56.5697 76.0975 56.1833 76.6405C56.1845 76.9185 56.242 77.1934 56.3525 77.4486C56.5217 77.6481 56.6783 77.8224 56.8096 77.9537C56.9383 78.0312 57.0821 78.0803 57.2314 78.0977Z" fill="#C2ACAB"/>
<path d="M51.145 82.454C52.3244 82.8505 54.0847 83.0828 55.6454 82.5171C57.5042 81.8428 57.6077 79.1507 57.1607 77.9309C56.7137 76.7111 55.7818 75.4786 53.6579 74.7665C51.534 74.0543 50.0566 74.476 48.9681 75.1806C47.8796 75.8852 46.3593 78.1001 47.4528 79.7618C48.3493 81.1584 49.9631 82.06 51.145 82.454Z" fill="#F5F5F5"/>
<path d="M51.1551 82.1738C48.7989 81.3833 48.9251 79.9236 49.5211 79.3225C50.1172 78.7215 51.1021 78.5649 52.2285 78.9336C53.3548 79.3023 54.0443 80.0397 54.163 80.8807C54.2817 81.7217 53.5089 82.9642 51.1551 82.1738Z" fill="#E0E0E0"/>
<path d="M51.8141 80.1862L52.3672 80.1029C52.3882 80.0986 52.4068 80.0867 52.4194 80.0694C52.432 80.0521 52.4377 80.0307 52.4354 80.0095C52.4345 79.9993 52.4315 79.9895 52.4266 79.9806C52.4217 79.9717 52.415 79.9639 52.4069 79.9577C52.3988 79.9515 52.3896 79.9471 52.3797 79.9447C52.3698 79.9423 52.3595 79.942 52.3495 79.9438L51.8672 80.017L51.5111 79.6711C51.5042 79.6635 51.4958 79.6574 51.4865 79.6533C51.4771 79.6491 51.467 79.647 51.4568 79.647C51.4465 79.647 51.4364 79.6491 51.4271 79.6533C51.4177 79.6574 51.4093 79.6635 51.4025 79.6711C51.3886 79.6868 51.381 79.707 51.381 79.7279C51.381 79.7488 51.3886 79.769 51.4025 79.7847L51.8141 80.1862Z" fill="#455A64"/>
<path d="M52.2133 81.3783C52.308 81.3743 52.4005 81.3484 52.4836 81.3026C52.6361 81.2197 52.7509 81.0813 52.8043 80.9162C52.811 80.8967 52.81 80.8754 52.8016 80.8566C52.7931 80.8379 52.7778 80.823 52.7588 80.8152C52.7387 80.8096 52.7173 80.812 52.6989 80.8219C52.6806 80.8318 52.6667 80.8483 52.6603 80.8682C52.6165 80.9944 52.5262 81.0992 52.4078 81.1611C52.3531 81.1912 52.2928 81.2097 52.2307 81.2154C52.1685 81.221 52.1058 81.2137 52.0466 81.194C51.9862 81.1736 51.9308 81.1405 51.8842 81.097C51.8376 81.0534 51.8008 81.0004 51.7764 80.9414C51.72 80.8219 51.7128 80.6849 51.7562 80.5601L51.9027 80.1181C51.9064 80.1085 51.9081 80.0983 51.9078 80.088C51.9075 80.0777 51.9051 80.0676 51.9009 80.0582C51.8967 80.0488 51.8907 80.0403 51.8832 80.0333C51.8757 80.0262 51.8669 80.0207 51.8572 80.0171C51.8371 80.0115 51.8157 80.0139 51.7973 80.0238C51.779 80.0337 51.7652 80.0503 51.7587 80.0701L51.6123 80.5121C51.5564 80.6776 51.5654 80.8581 51.6375 81.0172C51.6717 81.0928 51.7208 81.1607 51.782 81.2167C51.8433 81.2727 51.9153 81.3157 51.9936 81.343C52.064 81.3685 52.1385 81.3805 52.2133 81.3783Z" fill="#455A64"/>
<path d="M51.1752 81.0296C51.2701 81.0268 51.3629 81.0008 51.4454 80.9538C51.5984 80.8715 51.7134 80.7329 51.7661 80.5674L51.9126 80.1254C51.9163 80.1158 51.918 80.1056 51.9177 80.0953C51.9174 80.085 51.915 80.0749 51.9108 80.0655C51.9066 80.0561 51.9006 80.0477 51.8931 80.0406C51.8856 80.0336 51.8768 80.0281 51.8672 80.0244C51.8471 80.0189 51.8256 80.0213 51.8072 80.0311C51.7889 80.041 51.7751 80.0576 51.7687 80.0775L51.6222 80.5194C51.5783 80.6456 51.488 80.7504 51.3696 80.8124C51.315 80.8425 51.2547 80.8609 51.1925 80.8666C51.1303 80.8722 51.0677 80.865 51.0085 80.8452C50.8872 80.8003 50.7886 80.7092 50.7342 80.5919C50.6798 80.4746 50.674 80.3405 50.7181 80.2189C50.7221 80.2093 50.7241 80.199 50.724 80.1886C50.7238 80.1782 50.7216 80.168 50.7173 80.1585C50.713 80.149 50.7069 80.1405 50.6992 80.1335C50.6915 80.1265 50.6824 80.1212 50.6726 80.1179C50.6525 80.1123 50.6311 80.1147 50.6127 80.1246C50.5943 80.1345 50.5805 80.1511 50.5741 80.1709C50.5168 80.3317 50.5249 80.5086 50.5967 80.6636C50.6685 80.8185 50.7982 80.939 50.958 80.9993C51.0278 81.0232 51.1015 81.0335 51.1752 81.0296Z" fill="#455A64"/>
<path d="M49.5339 77.7264C49.5061 77.8298 49.5093 77.9392 49.543 78.0409C49.5767 78.1426 49.6395 78.2322 49.7235 78.2985C49.8076 78.3649 49.9093 78.4052 50.0161 78.4144C50.1228 78.4236 50.2299 78.4014 50.3241 78.3503C50.4183 78.2993 50.4955 78.2218 50.5462 78.1274C50.5968 78.033 50.6186 77.9258 50.609 77.8191C50.5993 77.7124 50.5586 77.6108 50.4919 77.527C50.4251 77.4432 50.3353 77.3808 50.2334 77.3475C50.1626 77.3262 50.0883 77.3191 50.0148 77.3266C49.9412 77.3342 49.8698 77.3562 49.8048 77.3914C49.7398 77.4266 49.6824 77.4743 49.6359 77.5318C49.5894 77.5893 49.5547 77.6554 49.5339 77.7264Z" fill="#455A64"/>
<path d="M55.1 79.6026C55.0597 79.7014 54.9914 79.7864 54.9034 79.847C54.8155 79.9076 54.7118 79.9411 54.605 79.9436C54.4982 79.946 54.3931 79.9172 54.3025 79.8607C54.2119 79.8042 54.1398 79.7224 54.095 79.6254C54.0502 79.5285 54.0347 79.4206 54.0505 79.315C54.0662 79.2093 54.1125 79.1106 54.1835 79.0309C54.2546 78.9512 54.3474 78.894 54.4506 78.8664C54.5537 78.8387 54.6627 78.8418 54.7641 78.8752C54.8342 78.9005 54.8986 78.9395 54.9535 78.9899C55.0084 79.0403 55.0527 79.1011 55.084 79.1687C55.1152 79.2364 55.1327 79.3096 55.1355 79.384C55.1382 79.4585 55.1262 79.5328 55.1 79.6026Z" fill="#455A64"/>
<path d="M56.6051 80.4511C56.6363 80.4488 56.6653 80.4343 56.6859 80.4107C56.9314 80.1014 57.2665 79.8755 57.6453 79.7638C58.0241 79.6521 58.4282 79.6602 58.8022 79.7869C58.817 79.7912 58.8325 79.7924 58.8477 79.7906C58.8629 79.7888 58.8777 79.7841 58.8911 79.7765C58.9045 79.769 58.9162 79.7589 58.9257 79.7468C58.9351 79.7348 58.9421 79.7209 58.9462 79.7061C58.9518 79.6919 58.9545 79.6767 58.9541 79.6614C58.9537 79.6461 58.9502 79.631 58.9438 79.6171C58.9375 79.6032 58.9283 79.5907 58.917 79.5804C58.9057 79.5701 58.8925 79.5622 58.878 79.5571C57.7769 79.1909 56.989 79.7314 56.5243 80.2491C56.5022 80.2717 56.4899 80.3021 56.4899 80.3337C56.4899 80.3653 56.5022 80.3957 56.5243 80.4183C56.5349 80.4288 56.5475 80.4371 56.5614 80.4428C56.5753 80.4484 56.5901 80.4512 56.6051 80.4511Z" fill="#455A64"/>
<path d="M56.8576 80.7417C56.8792 80.7404 56.9001 80.7334 56.9182 80.7215C57.1342 80.6001 57.3733 80.5255 57.62 80.5024C57.8666 80.4793 58.1154 80.5084 58.3501 80.5877C58.3644 80.5933 58.3796 80.596 58.3949 80.5956C58.4102 80.5952 58.4253 80.5917 58.4392 80.5853C58.4531 80.5789 58.4656 80.5698 58.4759 80.5585C58.4862 80.5472 58.4941 80.5339 58.4991 80.5195C58.512 80.491 58.5132 80.4586 58.5023 80.4292C58.4914 80.3999 58.4694 80.3761 58.4411 80.3629C58.1721 80.2707 57.8865 80.2369 57.6034 80.2639C57.3203 80.2909 57.0462 80.378 56.7995 80.5195C56.7734 80.5375 56.7551 80.5646 56.7481 80.5954C56.7411 80.6263 56.7459 80.6587 56.7616 80.6862C56.7709 80.7034 56.7848 80.7177 56.8018 80.7275C56.8187 80.7373 56.838 80.7422 56.8576 80.7417Z" fill="#455A64"/>
<path d="M58.6253 81.6911C58.6425 81.6909 58.6595 81.6867 58.6749 81.6788C58.6902 81.6709 58.7035 81.6595 58.7137 81.6456C58.7335 81.6211 58.7433 81.59 58.7409 81.5585C58.7386 81.5271 58.7243 81.4977 58.7011 81.4764C58.4186 81.2326 58.0814 81.0607 57.7182 80.9753C57.3549 80.89 56.9765 80.8938 56.615 80.9865C56.5853 80.9974 56.5606 81.0188 56.5457 81.0468C56.5308 81.0748 56.5267 81.1072 56.5342 81.138C56.538 81.1527 56.5447 81.1665 56.5539 81.1786C56.5631 81.1906 56.5747 81.2007 56.5879 81.2083C56.601 81.2158 56.6156 81.2206 56.6307 81.2224C56.6457 81.2242 56.661 81.223 56.6756 81.2188C57.0012 81.1353 57.3422 81.1323 57.6691 81.2102C57.9961 81.2881 58.2991 81.4445 58.5521 81.6658C58.5723 81.6834 58.5985 81.6925 58.6253 81.6911Z" fill="#455A64"/>
<path d="M48.0512 77.6128C48.082 77.6067 48.1094 77.5893 48.128 77.5641C48.1467 77.5389 48.1553 77.5077 48.1522 77.4765C48.0891 76.7819 47.781 75.8753 46.6824 75.5015C46.6526 75.4937 46.6208 75.4975 46.5937 75.5123C46.5666 75.527 46.5462 75.5515 46.5365 75.5808C46.5268 75.6101 46.5287 75.642 46.5417 75.67C46.5548 75.698 46.578 75.7199 46.6066 75.7314C46.9803 75.8567 47.3068 76.0931 47.5424 76.409C47.7779 76.725 47.9114 77.1053 47.9249 77.4992C47.9244 77.5154 47.9274 77.5314 47.9338 77.5463C47.9401 77.5612 47.9496 77.5745 47.9617 77.5853C47.9737 77.5962 47.9879 77.6042 48.0034 77.609C48.0189 77.6137 48.0352 77.615 48.0512 77.6128Z" fill="#455A64"/>
<path d="M47.6752 77.6937H47.7131C47.7425 77.6813 47.7661 77.6583 47.7792 77.6293C47.7923 77.6002 47.7939 77.5673 47.7838 77.5371C47.6707 77.2755 47.5036 77.0409 47.2933 76.8485C47.0831 76.6561 46.8345 76.5104 46.564 76.4208C46.5329 76.4128 46.4998 76.4175 46.4721 76.4338C46.4444 76.4501 46.4243 76.4768 46.4163 76.508C46.4082 76.5391 46.4129 76.5722 46.4292 76.5999C46.4456 76.6276 46.4722 76.6477 46.5034 76.6557C46.7387 76.7343 46.9551 76.8612 47.1386 77.0281C47.3221 77.1951 47.4688 77.3986 47.5691 77.6255C47.5775 77.6465 47.5922 77.6643 47.6113 77.6766C47.6303 77.6888 47.6526 77.6948 47.6752 77.6937Z" fill="#455A64"/>
<path d="M47.5587 78.2061C47.5829 78.206 47.6063 78.197 47.6243 78.1808C47.6495 78.1613 47.6662 78.1328 47.6709 78.1013C47.6756 78.0697 47.668 78.0376 47.6496 78.0116C47.4175 77.7198 47.1183 77.4884 46.7776 77.3371C46.4368 77.1859 46.0645 77.1192 45.6924 77.1428C45.6609 77.146 45.6318 77.1612 45.6112 77.1851C45.5905 77.2091 45.5798 77.24 45.5812 77.2716C45.5809 77.2867 45.5836 77.3016 45.5892 77.3155C45.5948 77.3295 45.6031 77.3421 45.6138 77.3528C45.6244 77.3634 45.6371 77.3717 45.651 77.3773C45.6649 77.3829 45.6799 77.3856 45.6949 77.3853C46.0303 77.3621 46.3663 77.4205 46.6741 77.5556C46.982 77.6906 47.2526 77.8982 47.4627 78.1606C47.4735 78.1758 47.488 78.1879 47.5048 78.1959C47.5216 78.2038 47.5401 78.2073 47.5587 78.2061Z" fill="#455A64"/>
<path d="M50.4528 74.587C50.3493 74.1122 49.8998 73.5288 49.4603 73.5288C49.5775 73.7384 49.6143 73.9835 49.5639 74.2183C49.5639 74.2183 48.4426 73.9228 48.0486 74.4456C48.2435 74.5094 48.4193 74.6213 48.5596 74.7709C48.7 74.9205 48.8004 75.1031 48.8517 75.3017C49.7583 75.8724 50.4528 74.587 50.4528 74.587Z" fill="#F5F5F5"/>
<path d="M56.3097 76.6378C56.6885 76.3297 57.3199 76.254 57.6684 76.5293C57.4481 76.6211 57.2686 76.7898 57.1633 77.004C57.1633 77.004 58.224 77.4738 58.2164 78.1354C58.0415 78.0719 57.8527 78.0568 57.6699 78.092C57.4872 78.1271 57.3173 78.2111 57.1785 78.335C56.0976 78.2062 56.3097 76.6378 56.3097 76.6378Z" fill="#F5F5F5"/>
<path d="M70.2603 85.5175C70.2542 85.5629 70.2392 85.6067 70.2161 85.6463C70.193 85.686 70.1624 85.7207 70.1259 85.7484C70.0895 85.7762 70.0479 85.7966 70.0036 85.8083C69.9592 85.82 69.913 85.8229 69.8676 85.8167C69.8222 85.8106 69.7784 85.7956 69.7388 85.7725C69.6991 85.7495 69.6644 85.7188 69.6366 85.6824C69.6089 85.6459 69.5885 85.6043 69.5768 85.56C69.5651 85.5157 69.5622 85.4695 69.5683 85.424C69.6997 84.4315 69.3309 83.684 68.5582 83.3784C68.1288 83.2249 67.6609 83.2171 67.2267 83.3563C66.7925 83.4956 66.4164 83.7741 66.1564 84.1487C65.7246 84.7472 65.7625 85.4417 65.8054 86.2473C65.861 87.2575 65.9216 88.399 65.0023 89.5102C64.4877 90.0753 63.8066 90.4618 63.0577 90.6139L62.093 90.0583C62.9743 90.0002 63.9517 89.687 64.4644 89.0658C65.222 88.1642 65.1614 87.2499 65.1084 86.2877C65.0629 85.4291 65.0149 84.5426 65.5882 83.7446C65.94 83.2445 66.447 82.8744 67.0305 82.6918C67.6141 82.5091 68.2416 82.5241 68.8158 82.7344C69.6492 83.0602 70.4649 83.9668 70.2603 85.5175Z" fill="#F0F0F0"/>
<path d="M70.0887 103.402C70.1945 103.258 70.3244 103.134 70.4726 103.034C70.5581 102.973 70.6553 102.931 70.758 102.91C70.7918 102.901 70.8277 102.905 70.8586 102.921C70.8895 102.938 70.9131 102.965 70.9246 102.998C70.9701 103.12 71.0181 103.251 71.0711 103.425C71.1241 103.599 71.1747 103.756 71.2277 103.93C71.2807 104.104 71.3338 104.279 71.3843 104.45C71.4348 104.622 71.4777 104.776 71.5156 104.908C71.488 104.97 71.4504 105.027 71.4045 105.077C71.3508 105.136 71.2897 105.188 71.2226 105.231C71.1831 105.259 71.1397 105.281 71.0938 105.296C71.0652 105.306 71.0341 105.306 71.0054 105.296C70.9855 105.287 70.9688 105.272 70.9575 105.254C70.9398 105.221 70.9254 105.188 70.9145 105.153L70.8463 104.9L70.2655 105.276C70.2503 105.37 70.2377 105.468 70.2251 105.567C70.2125 105.665 70.1973 105.766 70.1821 105.86C70.153 105.893 70.1218 105.926 70.0887 105.956C70.0528 105.991 70.013 106.022 69.97 106.049C69.9355 106.079 69.8954 106.102 69.8521 106.116C69.8087 106.13 69.763 106.136 69.7175 106.132C69.6619 106.117 69.6341 106.067 69.6316 105.981C69.6267 105.939 69.6267 105.897 69.6316 105.855C69.6316 105.809 69.6467 105.759 69.6543 105.698C69.6619 105.637 69.6846 105.506 69.7074 105.377C69.7301 105.248 69.7528 105.11 69.7806 104.958L69.8665 104.493C69.8993 104.334 69.9271 104.183 69.9549 104.041C69.9826 103.9 70.0079 103.771 70.0306 103.66C70.0533 103.549 70.0761 103.46 70.0887 103.402ZM70.4953 103.693C70.47 103.829 70.4423 103.981 70.4094 104.15C70.3766 104.319 70.3514 104.483 70.3261 104.655L70.7226 104.402C70.6872 104.271 70.6519 104.15 70.614 104.019C70.5761 103.887 70.5433 103.786 70.5155 103.688L70.4953 103.693Z" fill="#455A64"/>
<path d="M72.5232 104.421L72.3969 104.496C72.3497 104.525 72.3008 104.55 72.2505 104.572C72.2011 104.597 72.1506 104.62 72.0989 104.64C72.0532 104.658 72.0058 104.671 71.9575 104.678C71.8388 104.696 71.7757 104.63 71.7706 104.486L71.6923 102.534C71.6885 102.479 71.6998 102.424 71.7252 102.375C71.7509 102.323 71.7831 102.275 71.8211 102.231C71.9104 102.138 72.0076 102.054 72.1116 101.978C72.1997 101.908 72.2915 101.842 72.3868 101.781C72.5265 101.686 72.6809 101.613 72.8439 101.567C72.9621 101.53 73.0893 101.538 73.2026 101.587C73.3179 101.642 73.4081 101.738 73.4551 101.857C73.5233 102.029 73.5584 102.213 73.5586 102.398C73.5671 102.61 73.5493 102.823 73.5056 103.032C73.4614 103.226 73.3927 103.413 73.3011 103.59C73.2117 103.762 73.1005 103.921 72.9702 104.064C72.8363 104.201 72.6862 104.32 72.5232 104.421ZM72.3186 103.915L72.407 103.873C72.4402 103.856 72.4722 103.837 72.503 103.817C72.6551 103.718 72.7766 103.579 72.854 103.415C72.899 103.322 72.9305 103.222 72.9475 103.12C72.9695 103.002 72.9772 102.881 72.9702 102.761C72.9702 102.509 72.9096 102.35 72.8136 102.281C72.7177 102.213 72.5964 102.226 72.4474 102.322L72.3565 102.385C72.3262 102.408 72.2934 102.433 72.2631 102.461L72.3186 103.915Z" fill="#455A64"/>
<path d="M75.4503 101.418C75.458 101.587 75.4436 101.757 75.4074 101.923C75.3731 102.078 75.3205 102.229 75.2508 102.372C75.1837 102.51 75.0988 102.638 74.9983 102.754C74.898 102.866 74.7833 102.964 74.6573 103.047C74.5533 103.119 74.4355 103.169 74.3113 103.193C74.2179 103.21 74.1215 103.194 74.0386 103.148C73.954 103.093 73.8893 103.012 73.8542 102.918C73.8033 102.787 73.7768 102.647 73.7759 102.506C73.7687 102.343 73.7831 102.179 73.8189 102.019C73.8532 101.862 73.9066 101.71 73.978 101.567C74.0452 101.428 74.1301 101.298 74.2305 101.18C74.3294 101.066 74.4442 100.967 74.5715 100.885C74.6741 100.811 74.7925 100.762 74.9174 100.741C75.0109 100.724 75.1073 100.74 75.1902 100.786C75.2755 100.84 75.3403 100.921 75.3746 101.016C75.4239 101.144 75.4495 101.28 75.4503 101.418ZM74.329 102.143C74.3195 102.264 74.3516 102.385 74.4199 102.486C74.473 102.544 74.5437 102.544 74.6346 102.486C74.7305 102.42 74.8017 102.324 74.8366 102.213C74.8828 102.073 74.9017 101.926 74.8922 101.779C74.9007 101.659 74.8696 101.539 74.8038 101.438C74.7508 101.38 74.6801 101.38 74.5891 101.438C74.4946 101.504 74.4237 101.599 74.3871 101.708C74.339 101.848 74.3192 101.995 74.329 102.143Z" fill="#455A64"/>
<path d="M76.3595 101.855C76.3367 101.88 76.2988 101.91 76.2509 101.953C76.2029 101.996 76.1498 102.029 76.1019 102.062C76.0599 102.088 76.016 102.111 75.9705 102.13C75.9394 102.14 75.9057 102.14 75.8746 102.13C75.8598 102.124 75.8466 102.114 75.8357 102.103C75.8248 102.091 75.8165 102.077 75.8114 102.062C75.795 102.008 75.7865 101.953 75.7862 101.898L75.7079 99.9302C75.7041 99.8743 75.7154 99.8185 75.7407 99.7686C75.7665 99.7175 75.7988 99.67 75.8367 99.6271C75.9146 99.5424 75.9991 99.4638 76.0892 99.3923C76.1777 99.3186 76.2704 99.2503 76.367 99.1877C76.6625 98.9983 76.8923 98.9351 77.054 98.9983C77.2156 99.0614 77.3065 99.2332 77.3065 99.516C77.3135 99.6507 77.3024 99.7858 77.2737 99.9176C77.243 100.049 77.1972 100.177 77.1373 100.299C77.0677 100.423 76.9828 100.539 76.8847 100.642C76.7824 100.752 76.6671 100.849 76.5413 100.93L76.314 101.077L76.3595 101.855ZM76.4731 100.405C76.5589 100.353 76.6295 100.279 76.6777 100.19C76.7242 100.099 76.7452 99.997 76.7383 99.8948C76.7383 99.7888 76.7105 99.7231 76.6549 99.6978C76.6019 99.6751 76.5287 99.6978 76.4302 99.7559L76.3468 99.8115L76.2786 99.867L76.3039 100.516L76.4731 100.405Z" fill="#455A64"/>
<path d="M78.1372 100.008C78.1372 100.079 78.16 100.119 78.1979 100.127C78.2522 100.13 78.3055 100.112 78.3469 100.076C78.3819 100.054 78.4156 100.029 78.4479 100.003C78.4807 99.9728 78.511 99.945 78.5363 99.9172C78.558 99.9375 78.5759 99.9614 78.5893 99.9879C78.6076 100.026 78.6163 100.067 78.6146 100.109C78.6178 100.221 78.5898 100.331 78.5337 100.427C78.4549 100.556 78.3455 100.662 78.2155 100.738C78.0286 100.859 77.8796 100.897 77.7761 100.852C77.6726 100.806 77.6119 100.657 77.6018 100.405L77.5311 98.6166C77.5623 98.5837 77.5951 98.5525 77.6296 98.5231C77.6736 98.4856 77.72 98.451 77.7685 98.4196C77.8313 98.3685 77.9098 98.3408 77.9908 98.3413C78.0463 98.3413 78.0766 98.4247 78.0817 98.5636V98.8313L78.5009 98.561C78.5182 98.5898 78.5326 98.6203 78.5438 98.6519C78.5577 98.6978 78.5654 98.7454 78.5666 98.7934C78.575 98.8796 78.5611 98.9666 78.5262 99.0459C78.4972 99.1076 78.4518 99.16 78.3948 99.1974L78.1019 99.3869L78.1372 100.008Z" fill="#455A64"/>
<path d="M80.905 98.2958C80.8457 98.4056 80.7587 98.498 80.6525 98.5635C80.5952 98.6053 80.5298 98.6346 80.4605 98.6494C80.4381 98.654 80.4148 98.6497 80.3955 98.6374C80.3762 98.6252 80.3624 98.6059 80.357 98.5837C80.2888 98.3766 80.2307 98.21 80.1853 98.0786C80.1398 97.9473 80.107 97.8387 80.0817 97.7377H80.064C80.064 97.9069 80.064 98.0584 80.064 98.1973C80.064 98.3362 80.064 98.4676 80.064 98.5964C80.064 98.7252 80.064 98.8489 80.064 98.9878C80.064 99.1267 80.064 99.2707 80.064 99.4323C80.031 99.4707 79.9947 99.5062 79.9554 99.5384C79.9133 99.5752 79.8686 99.609 79.8216 99.6394C79.7579 99.6895 79.6803 99.7186 79.5994 99.7227C79.5463 99.7227 79.516 99.6646 79.5135 99.5611V97.369C79.5406 97.3011 79.5772 97.2373 79.6221 97.1796C79.6865 97.091 79.7681 97.0162 79.862 96.9599C79.9401 96.8997 80.034 96.8637 80.1322 96.8563C80.1674 96.8608 80.2003 96.8757 80.2269 96.8991C80.2535 96.9225 80.2724 96.9533 80.2812 96.9876C80.304 97.0432 80.3267 97.1063 80.3545 97.177C80.3822 97.2478 80.405 97.3235 80.4302 97.4018C80.4555 97.4801 80.4833 97.5559 80.5085 97.6342C80.5338 97.7124 80.554 97.7806 80.5742 97.8412H80.5919C80.6323 97.5735 80.6752 97.3134 80.7181 97.0609C80.7611 96.8083 80.8015 96.5962 80.8368 96.4194C80.8742 96.3713 80.9147 96.3258 80.9581 96.283C81.0108 96.2347 81.0674 96.1908 81.1273 96.1517C81.2016 96.0969 81.2884 96.0613 81.3798 96.0482C81.3944 96.0464 81.4092 96.0476 81.4234 96.0516C81.4375 96.0556 81.4508 96.0624 81.4623 96.0715C81.4738 96.0807 81.4834 96.0921 81.4904 96.105C81.4975 96.1179 81.502 96.132 81.5036 96.1467C81.5036 96.1972 81.5263 96.2755 81.5414 96.3992C81.5566 96.5229 81.5692 96.6315 81.5869 96.7704C81.6046 96.9093 81.6197 97.0533 81.6374 97.2099C81.6551 97.3665 81.6702 97.5129 81.6854 97.6569C81.7005 97.8008 81.7132 97.9296 81.7258 98.0509C81.7384 98.1721 81.746 98.263 81.7485 98.3287C81.7162 98.377 81.6789 98.4218 81.6374 98.4625C81.5911 98.5065 81.5403 98.5454 81.4859 98.5787C81.4257 98.624 81.3539 98.6512 81.2788 98.657C81.2207 98.657 81.1904 98.6065 81.1803 98.5029C81.155 98.2074 81.1374 97.9397 81.1247 97.6973C81.1121 97.4548 81.0995 97.2579 81.0868 97.0962H81.0692C81.054 97.22 81.0262 97.3766 80.9934 97.5685C80.9606 97.7604 80.953 98.0029 80.905 98.2958Z" fill="#455A64"/>
<path d="M82.9154 97.7053C82.8085 97.7799 82.6886 97.8339 82.5619 97.8644C82.465 97.8889 82.3626 97.88 82.2714 97.8391C82.1792 97.7902 82.1069 97.7108 82.0669 97.6144C82.0092 97.4732 81.9792 97.3223 81.9785 97.1699C81.9716 96.9958 81.9886 96.8216 82.029 96.6522C82.068 96.498 82.1248 96.3488 82.1982 96.2077C82.2664 96.0792 82.3513 95.9603 82.4507 95.8541C82.537 95.7575 82.6355 95.6726 82.7437 95.6016C82.8372 95.5371 82.9429 95.4924 83.0543 95.4702C83.1393 95.453 83.2276 95.4627 83.3069 95.498C83.3817 95.5372 83.4412 95.6004 83.4761 95.6773C83.5212 95.7774 83.5453 95.8857 83.5468 95.9955C83.55 96.0828 83.5318 96.1695 83.4938 96.2481C83.4532 96.3272 83.3964 96.3969 83.3271 96.4526L82.5416 97.1194C82.5494 97.1532 82.5688 97.1832 82.5966 97.204C82.6243 97.2248 82.6586 97.2351 82.6932 97.233C82.7844 97.2276 82.872 97.1961 82.9457 97.1421C83.0373 97.0835 83.122 97.0149 83.1983 96.9375C83.267 96.8673 83.3296 96.7913 83.3852 96.7102C83.4224 96.7188 83.455 96.7414 83.4761 96.7734C83.5037 96.8126 83.5187 96.8593 83.519 96.9072C83.5209 97.0406 83.4773 97.1707 83.3953 97.2759C83.3292 97.3684 83.253 97.4531 83.168 97.5285C83.0882 97.5935 83.0038 97.6526 82.9154 97.7053ZM82.7614 96.1218C82.7109 96.1533 82.6665 96.1935 82.63 96.2405C82.5937 96.2839 82.564 96.3324 82.5416 96.3845C82.5203 96.4334 82.5034 96.4841 82.4911 96.536C82.4826 96.5844 82.4775 96.6333 82.476 96.6825L83.0215 96.2102C83.0171 96.1858 83.008 96.1625 82.9945 96.1417C82.9811 96.1209 82.9636 96.103 82.9432 96.089C82.9003 96.0587 82.8397 96.0713 82.7614 96.1218Z" fill="#455A64"/>
<path d="M84.3598 95.0103C84.3566 94.8908 84.3817 94.7723 84.4331 94.6643C84.4799 94.5563 84.5571 94.4642 84.6553 94.3991C84.7513 94.336 84.8296 94.3259 84.8877 94.3688C84.9231 94.3999 84.9504 94.4391 84.9671 94.4832C84.9838 94.5272 84.9895 94.5747 84.9836 94.6214C84.9876 94.741 84.9625 94.8597 84.9104 94.9674C84.8626 95.0715 84.7853 95.1593 84.6881 95.2199C84.5922 95.2831 84.5139 95.2932 84.4558 95.2502C84.4224 95.2204 84.3963 95.1832 84.3797 95.1415C84.363 95.0999 84.3562 95.055 84.3598 95.0103ZM84.4129 96.3236C84.4092 96.2035 84.4334 96.0842 84.4836 95.975C84.533 95.8712 84.611 95.7837 84.7083 95.7225C84.8043 95.6594 84.8826 95.6493 84.9407 95.6922C84.9736 95.7218 84.9992 95.7587 85.0154 95.7999C85.0316 95.8411 85.038 95.8855 85.0341 95.9296C85.0393 96.0498 85.0151 96.1694 84.9634 96.2781C84.9149 96.3817 84.8378 96.4693 84.7412 96.5306C84.6427 96.5938 84.5669 96.6039 84.5088 96.5609C84.4756 96.5315 84.4496 96.4947 84.433 96.4535C84.4164 96.4123 84.4095 96.3679 84.4129 96.3236Z" fill="#455A64"/>
<path d="M86.0799 94.6468C86.0929 94.9165 86.0836 95.1868 86.0521 95.455C86.0257 95.6761 85.9818 95.8949 85.9207 96.1091C85.8863 96.2288 85.8398 96.3448 85.7818 96.4551C85.7334 96.5564 85.6594 96.6434 85.5672 96.7076C85.5452 96.7245 85.5198 96.7363 85.4928 96.7424C85.4657 96.7485 85.4377 96.7487 85.4106 96.743C85.3684 96.7331 85.3303 96.7102 85.302 96.6773C85.35 96.5435 85.3904 96.4096 85.4258 96.2758C85.4611 96.1419 85.4889 96.0081 85.5116 95.8717C85.5348 95.7312 85.55 95.5896 85.5571 95.4474C85.5648 95.2943 85.5648 95.1409 85.5571 94.9878C85.5515 94.8423 85.538 94.6973 85.5167 94.5534C85.5014 94.4361 85.476 94.3204 85.4409 94.2074C85.4132 94.1118 85.3751 94.0195 85.3273 93.9321C85.2865 93.8523 85.2374 93.7769 85.1808 93.7074C85.2049 93.6373 85.2371 93.5704 85.2768 93.5078C85.3147 93.4434 85.3664 93.3882 85.4283 93.3462C85.4584 93.3194 85.4955 93.3017 85.5352 93.295C85.575 93.2883 85.6158 93.2929 85.653 93.3083C85.7184 93.3453 85.7731 93.3983 85.8122 93.4624C85.8929 93.6051 85.9516 93.7592 85.9864 93.9195C86.0419 94.1582 86.0732 94.4019 86.0799 94.6468Z" fill="#455A64"/>
</g>
<defs>
<clipPath id="clip0_896_28308">
<rect width="120" height="120" fill="white" transform="translate(0.5)"/>
</clipPath>
</defs>
</svg>
