<svg width="210" height="210" viewBox="0 0 210 210" fill="none" xmlns="http://www.w3.org/2000/svg">
<g clip-path="url(#clip0_171_22515)">
<path opacity="0.5" d="M210 190.5C210 190.559 143.998 190.375 68.6147 190.375C-6.76813 190.375 0.773646 190.559 0.773646 190.5C0.773646 190.44 -6.79653 190.154 68.6147 190.154C144.026 190.154 210 190.436 210 190.5Z" fill="#263238"/>
<path d="M47.0235 198.376C15.2832 185.535 15.2832 164.728 47.0235 151.891C78.7638 139.055 130.231 139.055 161.975 151.891C193.719 164.728 193.715 185.54 161.975 198.376C130.235 211.213 78.7674 211.203 47.0235 198.376Z" fill="#F5F5F5"/>
<path d="M113.842 147.822L74.3225 170.64C73.3502 171.201 73.3502 172.112 74.3225 172.673L113.842 195.487C114.389 195.768 114.995 195.914 115.61 195.914C116.225 195.914 116.831 195.768 117.378 195.487L156.889 172.673C157.861 172.112 157.861 171.201 156.889 170.64L117.365 147.822C116.819 147.545 116.215 147.401 115.603 147.401C114.991 147.401 114.388 147.545 113.842 147.822Z" fill="#E0E0E0"/>
<path d="M54.7133 132.349C55.0005 126.161 55.6679 120.354 52.8173 111.435C50.4218 103.957 43.3063 96.3513 38.7056 96.5148C34.4318 96.6695 31.8862 101.376 36.9952 106.68C38.078 107.802 48.5612 116.845 49.0474 127.116L50.1699 133.051C50.2043 133.216 50.276 133.371 50.3796 133.504C50.4832 133.637 50.6159 133.744 50.7675 133.817C50.919 133.891 51.0854 133.928 51.2538 133.927C51.4223 133.926 51.5882 133.887 51.7389 133.812L54.7133 132.349Z" fill="#FFC100"/>
<path opacity="0.3" d="M54.7133 132.349C55.0005 126.161 55.6679 120.354 52.8173 111.435C50.4218 103.957 43.3063 96.3513 38.7056 96.5148C34.4318 96.6695 31.8862 101.376 36.9952 106.68C38.078 107.802 48.5612 116.845 49.0474 127.116L50.1699 133.051C50.2043 133.216 50.276 133.371 50.3796 133.504C50.4832 133.637 50.6159 133.744 50.7675 133.817C50.919 133.891 51.0854 133.928 51.2538 133.927C51.4223 133.926 51.5882 133.887 51.7389 133.812L54.7133 132.349Z" fill="black"/>
<path d="M53.0295 131.929C52.9722 131.913 52.9215 131.879 52.8849 131.832C52.8484 131.785 52.8278 131.727 52.8262 131.668C52.6229 115.939 46.9791 104.921 38.5112 99.8913C38.4763 99.8753 38.4451 99.8521 38.4198 99.8232C38.3944 99.7943 38.3754 99.7605 38.364 99.7238C38.3525 99.6871 38.3489 99.6484 38.3534 99.6103C38.3579 99.5721 38.3704 99.5353 38.39 99.5023C38.4097 99.4693 38.436 99.4407 38.4674 99.4186C38.4988 99.3964 38.5344 99.381 38.5721 99.3735C38.6098 99.3661 38.6486 99.3666 38.6861 99.3751C38.7236 99.3835 38.7589 99.3998 38.7896 99.4228C47.368 104.514 53.1665 115.735 53.3742 131.659C53.3754 131.695 53.3693 131.731 53.3563 131.765C53.3433 131.799 53.3236 131.83 53.2984 131.856C53.2733 131.882 53.2432 131.902 53.2099 131.916C53.1766 131.93 53.1408 131.938 53.1046 131.938C53.0793 131.939 53.0538 131.936 53.0295 131.929Z" fill="white"/>
<path d="M51.049 134.147C50.7987 134.276 50.524 134.351 50.2428 134.366C49.9617 134.381 49.6805 134.336 49.4179 134.235C49.1552 134.133 48.9171 133.977 48.7191 133.777C48.5211 133.577 48.3677 133.337 48.2691 133.073C47.1044 130.274 45.3948 127.733 43.2397 125.6C39.3283 121.6 33.8834 119.055 33.0349 116.372C32.0184 113.146 34.8911 111.537 39.5184 112.69C45.0738 114.074 51.0755 120.69 51.7031 133.812L51.049 134.147Z" fill="#FFC100"/>
<path opacity="0.1" d="M51.049 134.147C50.7987 134.276 50.524 134.351 50.2428 134.366C49.9617 134.381 49.6805 134.336 49.4179 134.235C49.1552 134.133 48.9171 133.977 48.7191 133.777C48.5211 133.577 48.3677 133.337 48.2691 133.073C47.1044 130.274 45.3948 127.733 43.2397 125.6C39.3283 121.6 33.8834 119.055 33.0349 116.372C32.0184 113.146 34.8911 111.537 39.5184 112.69C45.0738 114.074 51.0755 120.69 51.7031 133.812L51.049 134.147Z" fill="black"/>
<path d="M50.1564 133.308C50.1055 133.293 50.0598 133.263 50.0246 133.224C49.9894 133.184 49.9662 133.135 49.9576 133.082C48.1897 121.569 40.7162 116.199 37.0082 114.962C36.9399 114.939 36.8835 114.89 36.8512 114.825C36.8189 114.761 36.8134 114.686 36.8359 114.617C36.8464 114.583 36.8637 114.551 36.8869 114.523C36.9101 114.495 36.9386 114.472 36.9708 114.456C37.0029 114.439 37.0381 114.43 37.0741 114.427C37.1102 114.424 37.1464 114.429 37.1806 114.441C41.2819 115.806 48.7024 121.247 50.5012 133.003C50.5068 133.038 50.5054 133.075 50.4968 133.11C50.4883 133.145 50.473 133.178 50.4516 133.207C50.4302 133.237 50.4033 133.261 50.3724 133.28C50.3414 133.299 50.3071 133.311 50.2714 133.316C50.2328 133.32 50.1939 133.317 50.1564 133.308Z" fill="white"/>
<path d="M76.1789 145.024C76.1789 145.024 61.7136 139.721 59.9281 138.28C58.4343 137.069 59.3315 134.17 57.2764 133.675C54.8942 133.105 53.1927 134.382 51.6635 135.787C50.2139 137.113 48.3223 137.719 44.7557 136.486C41.1891 135.252 37.7463 133.498 36.3011 134.196C34.8559 134.895 35.7928 136.022 42.0465 138.894C45.6308 140.547 50.1962 142.474 53.122 143.628C55.2334 144.413 57.2251 145.488 59.0398 146.823C62.8539 149.475 63.5566 150.062 68.069 152.767C77.0893 158.172 82.3972 159.595 89.5746 158.234L76.1789 145.024Z" fill="#D8C0BE"/>
<path d="M62.6373 139.69C59.7602 141.347 58.3725 143.172 58.2178 146.359C58.2178 146.359 60.158 147.861 63.2296 149.987C66.9066 152.533 75.8077 158.327 81.752 158.933C90.9712 159.869 93.8925 157.094 93.8925 157.094L62.6373 139.69Z" fill="#455A64"/>
<path d="M59.9678 141.74C64.6879 149.696 76.2185 154.632 79.8558 154.999C78.5786 153.952 76.7003 150.385 74.9192 146.518L62.6372 139.69C61.646 140.23 60.7453 140.922 59.9678 141.74Z" fill="#37474F"/>
<path d="M32.9109 133.533C32.8399 133.251 32.8336 132.956 32.8925 132.67C32.9514 132.385 33.0741 132.116 33.2512 131.885C34.5241 130.378 36.1505 129.582 37.2598 129.021C38.6058 128.395 40.0877 128.119 41.5689 128.217C44.3974 128.384 46.8281 130.493 49.6567 130.656C51.7648 130.78 53.6829 129.706 55.738 129.207C56.3856 129.05 57.0531 128.992 57.718 129.034C58.2837 129.07 59.1764 129.476 59.3797 129.94C59.6605 130.504 59.7158 131.154 59.5344 131.757C59.4062 132.137 58.624 132.861 58.0583 133.259C57.2893 133.807 56.3258 133.962 55.1767 134.302C52.2775 135.138 39.3016 135.46 32.9109 133.533Z" fill="#37474F"/>
<path d="M59.9946 137.489C59.9946 137.745 60.0388 137.993 60.0653 138.253C60.1051 138.602 59.915 138.695 59.6233 138.912C58.4345 139.729 56.9318 139.65 55.575 139.416C54.5187 139.23 53.4448 138.934 52.3885 139.137C51.1334 139.385 50.1301 140.304 49.1932 141.179C48.9879 141.372 48.8162 141.597 48.6849 141.846C48.6849 141.846 41.3882 138.731 38.0779 136.985C36.3985 136.101 34.4583 135.27 33.1369 133.865C33.0617 133.79 33.4595 133.295 33.4993 133.246C33.9457 132.766 34.5316 132.438 35.1743 132.309C36.2209 132.037 37.3092 131.963 38.3829 132.092C40.0137 132.335 41.6003 132.764 43.2179 133.082C44.6686 133.367 46.1336 133.574 47.6065 133.701C49.2113 133.843 50.8241 133.869 52.4327 133.781C53.941 133.746 55.4295 133.43 56.8213 132.848C57.3642 132.612 57.8715 132.301 58.3284 131.924C58.593 131.659 58.8245 131.362 59.0179 131.041C59.2433 130.718 59.3803 130.157 59.6101 130.634C60.167 131.73 60.2819 133.418 60.2023 134.647C60.1493 135.491 60.0388 136.331 60.0078 137.179C59.9902 137.281 59.9902 137.383 59.9946 137.489Z" fill="#FFC100"/>
<path opacity="0.2" d="M59.9946 137.489C59.9946 137.745 60.0388 137.993 60.0653 138.253C60.1051 138.602 59.915 138.695 59.6233 138.912C58.4345 139.729 56.9318 139.65 55.575 139.416C54.5187 139.23 53.4448 138.934 52.3885 139.137C51.1334 139.385 50.1301 140.304 49.1932 141.179C48.9879 141.372 48.8162 141.597 48.6849 141.846C48.6849 141.846 41.3882 138.731 38.0779 136.985C36.3985 136.101 34.4583 135.27 33.1369 133.865C33.0617 133.79 33.4595 133.295 33.4993 133.246C33.9457 132.766 34.5316 132.438 35.1743 132.309C36.2209 132.037 37.3092 131.963 38.3829 132.092C40.0137 132.335 41.6003 132.764 43.2179 133.082C44.6686 133.367 46.1336 133.574 47.6065 133.701C49.2113 133.843 50.8241 133.869 52.4327 133.781C53.941 133.746 55.4295 133.43 56.8213 132.848C57.3642 132.612 57.8715 132.301 58.3284 131.924C58.593 131.659 58.8245 131.362 59.0179 131.041C59.2433 130.718 59.3803 130.157 59.6101 130.634C60.167 131.73 60.2819 133.418 60.2023 134.647C60.1493 135.491 60.0388 136.331 60.0078 137.179C59.9902 137.281 59.9902 137.383 59.9946 137.489Z" fill="black"/>
<path d="M40.99 132.561C39.6288 134.43 39.6376 137.741 39.6376 137.741C39.6376 137.741 37.2953 136.76 34.9927 135.473C32.7829 134.24 32.9111 133.533 32.9111 133.533C33.022 133.151 33.2472 132.812 33.5563 132.561C34.3928 131.89 35.4588 131.572 36.5263 131.677C38.0442 131.792 39.5428 132.089 40.99 132.561Z" fill="#FAFAFA"/>
<path d="M40.8936 136.631C40.7253 137.162 40.677 137.724 40.7522 138.275C40.9664 138.44 41.2137 138.556 41.477 138.616C41.4645 138.048 41.5239 137.481 41.6538 136.927C41.804 136.463 41.0571 136.176 40.8936 136.631Z" fill="#FAFAFA"/>
<path d="M43.1119 137.652C42.9377 138.182 42.8849 138.744 42.9572 139.296C43.1784 139.456 43.4294 139.568 43.6953 139.628C43.6708 139.062 43.7304 138.496 43.8721 137.948C44.0224 137.462 43.2755 137.193 43.1119 137.652Z" fill="#FAFAFA"/>
<path d="M45.33 138.673C45.1612 139.198 45.1128 139.754 45.1886 140.3C45.4008 140.47 45.6485 140.591 45.9134 140.653C45.9008 140.087 45.9602 139.521 46.0902 138.969C46.2405 138.479 45.5157 138.231 45.33 138.673Z" fill="#FAFAFA"/>
<path d="M59.5967 130.625C59.5863 130.382 59.5116 130.145 59.3801 129.94C59.3801 129.94 58.6509 131.438 56.0434 132.305C53.5684 133.127 50.0327 133.524 44.9326 132.349C39.8324 131.173 36.8845 130.077 34.5775 130.992C32.2705 131.907 32.9113 133.533 32.9113 133.533C32.9113 133.533 34.0118 131.505 37.2469 131.885C40.3671 132.252 44.9547 133.904 49.224 134.059C53.6833 134.227 58.1868 133.657 59.5967 130.625Z" fill="#E0E0E0"/>
<path d="M111.451 140.3C109.241 133.343 103.235 129.291 97.8918 124.809C92.5485 120.328 84.0231 112.819 84.0231 112.819L53.9701 106.755C52.0962 110.591 50.2134 117.923 50.2046 123.501C50.2046 128.703 51.7824 135.672 60.8867 142.43C66.4067 146.527 70.813 149.744 74.7686 152.259C78.9495 154.911 88.1775 159.591 93.618 157.753C95.2958 157.227 96.7053 156.072 97.552 154.531C98.3987 152.99 98.617 151.182 98.1613 149.484C98.8022 149.541 99.4386 149.576 100.031 149.581C100.72 149.603 101.357 149.581 101.847 149.581C103.649 149.63 105.445 149.358 107.151 148.776C110.925 147.397 112.728 144.335 111.451 140.3Z" fill="#455A64"/>
<path d="M99.4612 149.28C98.8734 149.28 98.2326 149.24 97.5962 149.178C94.2373 142.014 75.7944 127.355 75.7944 127.355C77.2838 126.63 80.7355 124.782 81.8934 122.705C81.4205 125.357 79.9002 126.683 78.4285 127.77C80.6913 129.799 90.2022 137.816 92.7435 140.224C95.4085 142.748 98.1751 145.683 99.4612 149.28Z" fill="#37474F"/>
<path d="M77.7349 68.7113C81.6594 69.0207 83.5289 70.1123 87.4049 74.3949C91.2808 78.6774 98.4538 86.4294 99.7443 88.4403C101.035 90.4512 104.787 94.8 99.1388 98.0573C93.4906 101.314 81.4119 102.406 81.4119 102.406L77.7349 68.7113Z" fill="#C2ACAB"/>
<path d="M84.6293 92.7316C89.8753 88.4181 88.1649 82.792 86.2336 79.0044C82.4018 71.4293 78.4153 68.4505 76.7536 68.477L66.1466 67.1025C61.8755 67.77 57.75 69.1631 53.9486 71.2216C49.8031 73.617 50.9079 76.3483 51.4604 78.8321C52.9542 85.5896 54.8414 89.439 55.4026 91.4853C55.9639 93.5316 56.9981 96.7225 56.1584 100.037C55.8313 101.319 54.9651 102.565 53.6525 106.101C52.4975 109.006 51.6099 112.011 51.0008 115.077C51.0008 115.077 59.4333 122.802 74.3096 120.677C85.2613 119.112 86.6534 115.112 86.6534 115.112L84.0857 101.641C84.3464 97.1733 84.4083 95.5513 84.6293 92.7316Z" fill="#FFC100"/>
<g opacity="0.5">
<path d="M84.6293 92.7316C89.8753 88.4181 88.1649 82.792 86.2336 79.0044C82.4018 71.4293 78.4153 68.4505 76.7536 68.477L66.1466 67.1025C61.8755 67.77 57.75 69.1631 53.9486 71.2216C49.8031 73.617 50.9079 76.3483 51.4604 78.8321C52.9542 85.5896 54.8414 89.439 55.4026 91.4853C55.9639 93.5316 56.9981 96.7225 56.1584 100.037C55.8313 101.319 54.9651 102.565 53.6525 106.101C52.4975 109.006 51.6099 112.011 51.0008 115.077C51.0008 115.077 59.4333 122.802 74.3096 120.677C85.2613 119.112 86.6534 115.112 86.6534 115.112L84.0857 101.641C84.3464 97.1733 84.4083 95.5513 84.6293 92.7316Z" fill="white"/>
</g>
<path d="M81.3143 34.6762C75.6882 31.64 68.4445 32.8377 65.5983 37.3854C65.5983 37.3854 62.73 36.8507 59.8529 39.361C56.6045 42.216 56.6354 46.5207 56.5912 50.4762C56.5382 55.0858 54.8234 56.4691 54.1958 60.0136C53.5682 63.5581 55.9636 65.8961 58.5845 66.201C58.5845 66.201 57.7005 62.9571 58.6331 61.4544C58.6331 61.4544 58.3502 66.0994 62.7698 66.8861C66.3275 67.5225 69.0014 65.1182 69.0014 65.1182C69.0014 65.1182 64.5553 64.3448 63.7907 61.6356L64.2724 57.1144L72.3249 65.7944C76.961 69.8162 83.4755 67.2927 83.6655 65.4453C83.6655 65.4453 78.4151 60.0225 85.4996 53.2428C92.5842 46.4632 86.936 37.7081 81.3143 34.6762Z" fill="#37474F"/>
<path d="M85.3487 55.1432C84.3366 63.2355 81.4993 64.9724 80.1248 65.4143C78.7503 65.8563 76.2311 65.2464 73.8048 64.5879L73.4115 68.4461C73.4115 68.4461 77.199 72.1807 76.2223 73.0734C74.4014 74.7352 69.5929 73.9573 67.2683 72.6712C65.6472 71.8429 64.2838 70.5865 63.326 69.0384C63.1258 68.7088 63.0579 68.3155 63.136 67.9379L64.285 57.1099C64.285 57.1099 62.9901 57.8745 61.0411 56.5619C59.2732 55.3819 58.8976 51.7004 60.5372 50.1138C61.7084 48.9912 63.8784 49.0221 64.9568 51.0595C65.5269 52.5357 65.1866 53.8748 66.181 53.8306C67.1754 53.7864 67.5997 52.8583 67.7588 52.0893C67.9179 51.3203 68.0107 50.7634 68.2008 49.7602C70.6581 49.5304 73.3849 46.2245 73.9462 43.8468C75.5682 44.7926 77.2963 45.5572 79.0155 45.6456C81.7202 45.7782 83.1699 45.4069 84.7167 43.6302C84.9827 44.1073 85.1763 44.6211 85.2913 45.155C85.5374 46.2325 85.6854 47.3301 85.7332 48.4343C85.7886 50.6774 85.66 52.9212 85.3487 55.1432Z" fill="#D8C0BE"/>
<path d="M73.8015 64.579C71.2249 63.9736 66.0142 61.8875 65.4043 59.6777C65.4043 59.6777 65.5457 61.039 67.013 62.577C68.4803 64.115 73.6424 66.2054 73.6424 66.2054L73.8015 64.579Z" fill="#C2ACAB"/>
<path d="M76.5407 52.3944C76.5214 52.6156 76.4374 52.8262 76.2992 52.9999C76.161 53.1737 75.9747 53.303 75.7636 53.3716C75.5525 53.4403 75.3258 53.4454 75.1118 53.3861C74.8979 53.3269 74.706 53.206 74.5603 53.0386C74.4145 52.8711 74.3212 52.6645 74.292 52.4444C74.2629 52.2243 74.2991 52.0005 74.3962 51.8008C74.4933 51.6012 74.647 51.4345 74.8382 51.3216C75.0293 51.2087 75.2495 51.1545 75.4712 51.1658C75.6222 51.1759 75.7698 51.2157 75.9054 51.283C76.0409 51.3503 76.1619 51.4437 76.2613 51.5578C76.3607 51.672 76.4365 51.8047 76.4845 51.9482C76.5324 52.0918 76.5515 52.2434 76.5407 52.3944Z" fill="#263238"/>
<path d="M84.165 52.8141C84.1599 52.9511 84.1278 53.0858 84.0706 53.2104C84.0133 53.335 83.9321 53.4471 83.8316 53.5403C83.731 53.6334 83.6131 53.7059 83.4845 53.7534C83.3559 53.801 83.2192 53.8227 83.0822 53.8174C82.9418 53.8176 82.8031 53.7876 82.6754 53.7293C82.5477 53.6711 82.4341 53.586 82.3422 53.4799C82.2504 53.3738 82.1825 53.2491 82.1432 53.1144C82.1038 52.9797 82.094 52.8381 82.1143 52.6992C82.1183 52.5621 82.1494 52.427 82.2059 52.3019C82.2624 52.1769 82.3431 52.0642 82.4434 51.9705C82.5436 51.8768 82.6615 51.8039 82.7901 51.7561C82.9187 51.7082 83.0555 51.6863 83.1927 51.6916C83.4703 51.7119 83.7285 51.8415 83.9108 52.052C84.093 52.2624 84.1844 52.5365 84.165 52.8141Z" fill="#263238"/>
<path d="M79.317 50.4762L78.7778 58.1441L82.477 57.3796L79.317 50.4762Z" fill="#C2ACAB"/>
<path d="M72.6826 48.9559L74.9322 47.2809C75.1504 47.5904 75.241 47.9721 75.185 48.3466C75.129 48.7211 74.9308 49.0596 74.6316 49.2918C74.483 49.4015 74.3137 49.48 74.1339 49.5226C73.9541 49.5651 73.7676 49.5709 73.5855 49.5395C73.4034 49.5081 73.2296 49.4403 73.0744 49.34C72.9193 49.2397 72.786 49.109 72.6826 48.9559Z" fill="#263238"/>
<path d="M74.6008 58.1133L78.0525 59.7087C77.8243 60.1693 77.4273 60.5241 76.9441 60.6994C76.4609 60.8748 75.9287 60.8571 75.4582 60.6501C75.2314 60.5443 75.0285 60.3935 74.8616 60.207C74.6946 60.0205 74.5673 59.8021 74.4871 59.565C74.407 59.3279 74.3758 59.077 74.3953 58.8275C74.4148 58.578 74.4848 58.335 74.6008 58.1133Z" fill="#874C4C"/>
<path d="M75.4583 60.65C75.1391 60.5029 74.8693 60.2664 74.6818 59.9691C74.4944 59.6718 74.3972 59.3264 74.402 58.975C74.6083 58.9223 74.8224 58.9074 75.034 58.9308C75.4793 58.9893 75.8856 59.2151 76.1704 59.5623C76.4553 59.9095 76.5973 60.3522 76.5676 60.8003C76.1912 60.8652 75.8039 60.8128 75.4583 60.65Z" fill="#C2ACAB"/>
<path d="M83.4756 47.6875L85.513 49.6454C85.3917 49.784 85.2435 49.8964 85.0774 49.9759C84.9113 50.0553 84.7307 50.1002 84.5467 50.1076C84.3627 50.1151 84.1791 50.085 84.0071 50.0192C83.8352 49.9534 83.6784 49.8533 83.5463 49.7249C83.2757 49.459 83.1176 49.0994 83.1044 48.7203C83.0912 48.3412 83.2241 47.9715 83.4756 47.6875Z" fill="#263238"/>
<path d="M88.5182 76.8963C88 76.8172 87.4865 76.7095 86.9802 76.5736C86.0454 76.2854 85.0662 76.1687 84.0898 76.2289C83.0822 76.3173 81.7342 76.7372 81.0226 77.4487C80.7265 77.7404 80.616 78.4343 81.1066 78.6066C81.0886 78.7219 81.1035 78.8399 81.1496 78.947C81.1958 79.0541 81.2712 79.146 81.3674 79.2121C81.5986 79.3664 81.8805 79.425 82.154 79.3756C82.154 79.6497 82.596 79.8176 83.038 79.7778C83.6557 79.6123 84.2949 79.5408 84.934 79.5657C86.2819 79.6055 86.5117 80.1181 86.5117 80.1181" fill="#455A64"/>
<path d="M83.21 78.4918C82.911 78.4376 82.6025 78.4986 82.3467 78.6626C82.0908 78.8266 81.9066 79.0814 81.8311 79.3758C81.9385 79.3824 82.0462 79.3824 82.1537 79.3758C82.1932 79.1256 82.3219 78.8983 82.5161 78.7358C82.7103 78.5733 82.9568 78.4866 83.21 78.4918Z" fill="#37474F"/>
<path d="M82.1979 77.6565C81.9239 77.6419 81.6517 77.7088 81.4157 77.8488C81.1797 77.9888 80.9905 78.1957 80.8721 78.4432C80.9273 78.5172 81.0024 78.5739 81.0886 78.6067C81.1655 78.3601 81.3104 78.1401 81.5066 77.9721C81.7028 77.804 81.9424 77.6946 82.1979 77.6565Z" fill="#37474F"/>
<path d="M100.371 73.5596L98.1615 74.1739L93.7419 75.4025L93.3486 75.4998L92.3232 75.6721C91.6007 75.7394 90.8842 75.8606 90.1797 76.0345H90.0251C89.7433 76.0465 89.4641 76.094 89.1942 76.176C89.0151 76.3135 88.8439 76.461 88.6815 76.6179L88.213 77.0599C88.16 77.1173 88.107 77.1748 88.0539 77.2411L86.675 79.6497C86.3738 80.0289 85.9659 80.3091 85.5038 80.4541C84.7812 80.6077 84.1344 81.0077 83.6741 81.5855C83.6256 81.5123 83.56 81.4519 83.4831 81.4096C83.4061 81.3673 83.32 81.3442 83.2322 81.3424C83.2133 81.2165 83.1628 81.0974 83.0856 80.9962C83.0083 80.895 82.9067 80.8149 82.7902 80.7635C82.5084 80.6475 82.1936 80.6396 81.9063 80.7414C81.9063 80.516 81.5218 80.2243 80.7528 80.3966C79.2325 80.737 78.3353 81.3424 76.7531 82.3413C74.782 83.5876 74.1456 84.7234 74.1765 85.6559C74.1687 85.9558 74.2423 86.2522 74.3893 86.5136C74.5364 86.7751 74.7515 86.9918 75.0118 87.1409C75.0118 87.1409 68.8818 93.0013 77.2834 97.9777C85.442 102.808 96.1108 97.6462 99.4432 89.912C100.317 87.8593 100.861 85.6817 101.056 83.4594C101.512 79.2034 100.667 75.9152 100.371 73.5596Z" fill="#455A64"/>
<path d="M83.4931 83.0527C83.4931 83.0527 84.8189 82.4605 85.4288 83.1853C85.5834 83.1124 85.7539 83.0794 85.9245 83.0894C86.0952 83.0995 86.2606 83.1522 86.4056 83.2428C86.5248 83.321 86.616 83.4351 86.666 83.5686C86.7161 83.702 86.7224 83.848 86.684 83.9853C86.7792 83.9925 86.8707 84.0256 86.9485 84.0809C87.0264 84.1361 87.0877 84.2116 87.126 84.2991C87.1763 84.4629 87.1873 84.6364 87.1581 84.8053C87.1289 84.9742 87.0604 85.1339 86.958 85.2714C86.7191 85.721 86.3927 86.1184 85.998 86.4402C85.6034 86.762 85.1484 87.0017 84.6598 87.1453C85.1352 87.4195 85.5383 87.8031 85.8358 88.2643C86.1332 88.7254 86.3165 89.2509 86.3702 89.797C86.6752 91.9361 85.9901 93.0454 85.9901 93.0454C88.808 92.3618 91.3048 90.7295 93.0614 88.4225C96.8004 83.6229 95.448 75.1638 95.448 75.1638L89.1899 76.2201C88.5322 76.5678 87.9631 77.0618 87.5263 77.664C87.0896 78.2663 86.7969 78.9607 86.6707 79.6939C85.378 79.8154 84.1395 80.2725 83.0776 81.0197C83.145 81.129 83.1943 81.2484 83.2235 81.3733C83.3098 81.3818 83.3934 81.4078 83.4694 81.4495C83.5453 81.4913 83.612 81.5481 83.6654 81.6164C83.8259 81.8324 83.8975 82.1017 83.8654 82.3689C83.8333 82.6361 83.7001 82.8808 83.4931 83.0527Z" fill="#FFC100"/>
<path opacity="0.3" d="M83.4931 83.0527C83.4931 83.0527 84.8189 82.4605 85.4288 83.1853C85.5834 83.1124 85.7539 83.0794 85.9245 83.0894C86.0952 83.0995 86.2606 83.1522 86.4056 83.2428C86.5248 83.321 86.616 83.4351 86.666 83.5686C86.7161 83.702 86.7224 83.848 86.684 83.9853C86.7792 83.9925 86.8707 84.0256 86.9485 84.0809C87.0264 84.1361 87.0877 84.2116 87.126 84.2991C87.1763 84.4629 87.1873 84.6364 87.1581 84.8053C87.1289 84.9742 87.0604 85.1339 86.958 85.2714C86.7191 85.721 86.3927 86.1184 85.998 86.4402C85.6034 86.762 85.1484 87.0017 84.6598 87.1453C85.1352 87.4195 85.5383 87.8031 85.8358 88.2643C86.1332 88.7254 86.3165 89.2509 86.3702 89.797C86.6752 91.9361 85.9901 93.0454 85.9901 93.0454C88.808 92.3618 91.3048 90.7295 93.0614 88.4225C96.8004 83.6229 95.448 75.1638 95.448 75.1638L89.1899 76.2201C88.5322 76.5678 87.9631 77.0618 87.5263 77.664C87.0896 78.2663 86.7969 78.9607 86.6707 79.6939C85.378 79.8154 84.1395 80.2725 83.0776 81.0197C83.145 81.129 83.1943 81.2484 83.2235 81.3733C83.3098 81.3818 83.3934 81.4078 83.4694 81.4495C83.5453 81.4913 83.612 81.5481 83.6654 81.6164C83.8259 81.8324 83.8975 82.1017 83.8654 82.3689C83.8333 82.6361 83.7001 82.8808 83.4931 83.0527Z" fill="black"/>
<path opacity="0.1" d="M92.7563 80.7767C91.731 80.737 90.3211 80.9889 89.5123 81.612C89.1765 81.8684 88.982 82.549 89.4505 82.7877C89.418 82.9008 89.4178 83.0207 89.4498 83.1339C89.4818 83.2471 89.5448 83.3491 89.6317 83.4285C89.8449 83.6146 90.1225 83.7097 90.4051 83.6937C90.3786 83.9721 90.7852 84.2196 91.236 84.2108C91.8547 84.2108 92.0271 84.003 93.1718 84.2417C93.7782 84.3783 94.3332 84.6849 94.7716 85.1256C95.1501 83.9561 95.4063 82.7504 95.5362 81.5281C94.6679 81.0976 93.7233 80.8424 92.7563 80.7767Z" fill="black"/>
<path d="M95.6909 80.8431C94.7785 80.3745 93.7798 80.0978 92.7563 80.0299C91.731 79.9857 90.3211 80.242 89.5123 80.8652C89.1765 81.1215 88.982 81.8021 89.4505 82.0408C89.418 82.1539 89.4178 82.2738 89.4498 82.387C89.4818 82.5002 89.5448 82.6023 89.6317 82.6816C89.8459 82.8661 90.1228 82.961 90.4051 82.9468C90.3786 83.2252 90.7852 83.4727 91.236 83.4639C91.8547 83.4639 92.0271 83.2562 93.1718 83.4948C93.8736 83.6519 94.5052 84.0336 94.9705 84.582L97.0345 81.3999C96.5691 81.2599 96.1189 81.0733 95.6909 80.8431Z" fill="#455A64"/>
<path d="M91.453 82.2175C91.294 82.141 91.1172 82.1089 90.9414 82.1244C90.7657 82.14 90.5973 82.2027 90.4542 82.3059C90.3535 82.3731 90.2692 82.4619 90.2072 82.5659C90.1453 82.6699 90.1074 82.7864 90.0962 82.9069C90.1982 82.9278 90.3016 82.9411 90.4056 82.9467C90.4277 82.4738 90.9536 82.1998 91.453 82.2175Z" fill="#37474F"/>
<path d="M89.2212 81.7976C89.2653 81.9042 89.3471 81.9907 89.451 82.0407C89.5236 81.8804 89.6361 81.7414 89.7777 81.637C89.9193 81.5325 90.0852 81.4661 90.2598 81.444C90.0709 81.4092 89.8762 81.4234 89.6944 81.4853C89.5125 81.5472 89.3496 81.6547 89.2212 81.7976Z" fill="#37474F"/>
<path opacity="0.1" d="M101.136 79.2697C100.977 76.9715 100.561 75.0711 100.371 73.5596L98.1615 74.1739L93.7419 75.4025L93.3486 75.4998L92.3233 75.6721C91.6007 75.7394 90.8842 75.8606 90.1798 76.0345H90.0251C89.743 76.0443 89.4636 76.0919 89.1942 76.176C89.0536 76.2448 88.9177 76.3231 88.7876 76.4102C89.0793 76.7726 90.1798 77.9394 92.6061 78.4697C95.4965 79.1061 98.5637 78.1382 98.5637 78.1382C98.8156 78.5766 99.2011 78.923 99.6639 79.1265C100.127 79.3301 100.643 79.3803 101.136 79.2697Z" fill="black"/>
<path d="M96.0668 64.7291C95.8546 63.938 94.8646 63.5933 93.2824 63.5624C92.0317 63.5359 90.8384 63.9159 88.9954 63.0895C87.1525 62.263 85.6277 62.6475 85.1283 64.5037C84.6289 66.36 85.0532 68.6405 87.0773 69.4316C88.9512 70.1652 91.9963 69.7895 93.7067 68.6184C95.4171 67.4472 96.0668 64.7291 96.0668 64.7291Z" fill="#37474F"/>
<path d="M90.5956 63.9426C90.6374 63.8233 90.6685 63.7006 90.6885 63.5758C90.1013 63.5009 89.5291 63.3369 88.9913 63.0896C87.144 62.2587 85.6236 62.6476 85.1286 64.5039C84.9576 65.137 84.9022 65.7957 84.9651 66.4485C85.3291 66.6696 85.7358 66.8112 86.1584 66.8639C86.3258 66.897 86.4987 66.8894 86.6625 66.8417C86.8263 66.794 86.9763 66.7076 87.0998 66.5899C87.3693 66.2629 87.2721 65.706 87.5417 65.4099C87.8113 65.1138 88.4256 65.1801 88.9074 65.158C89.2748 65.1355 89.6284 65.0094 89.9272 64.7943C90.226 64.5793 90.4577 64.2839 90.5956 63.9426Z" fill="#FFC100"/>
<path opacity="0.4" d="M90.5956 63.9426C90.6374 63.8233 90.6685 63.7006 90.6885 63.5758C90.1013 63.5009 89.5291 63.3369 88.9913 63.0896C87.144 62.2587 85.6236 62.6476 85.1286 64.5039C84.9576 65.137 84.9022 65.7957 84.9651 66.4485C85.3291 66.6696 85.7358 66.8112 86.1584 66.8639C86.3258 66.897 86.4987 66.8894 86.6625 66.8417C86.8263 66.794 86.9763 66.7076 87.0998 66.5899C87.3693 66.2629 87.2721 65.706 87.5417 65.4099C87.8113 65.1138 88.4256 65.1801 88.9074 65.158C89.2748 65.1355 89.6284 65.0094 89.9272 64.7943C90.226 64.5793 90.4577 64.2839 90.5956 63.9426Z" fill="black"/>
<path d="M101.07 68.2606C100.186 66.3557 99.6865 65.9315 97.2292 65.0652C94.7719 64.199 93.2516 64.2962 91.0992 65.6265C89.738 66.4662 89.19 68.6937 89.19 68.6937C88.7551 68.7503 88.3358 68.8927 87.9565 69.1128C87.5771 69.3328 87.2453 69.626 86.9802 69.9754C86.03 71.4338 86.7548 74.0325 87.3691 74.9076C88.3695 76.3095 89.8659 77.2781 91.5544 77.6168C94.7144 78.2621 97.2645 78.0588 98.8512 76.4456C100.84 74.4347 101.715 69.6483 101.07 68.2606Z" fill="#455A64"/>
<path d="M100.606 71.3498C100.65 71.1242 100.671 70.8946 100.668 70.6647C100.668 69.9399 100.504 68.972 100.013 68.4196C99.6333 67.8548 99.0829 67.4259 98.4422 67.1954C97.8016 66.9649 97.1041 66.9448 96.4513 67.1379C95.6627 67.3004 94.963 67.7511 94.489 68.4019C94.047 69.0693 93.9056 69.8338 94.5243 70.4261C94.7589 70.6173 94.9804 70.824 95.1873 71.0448C95.4701 71.4028 95.5895 71.8713 95.8546 72.2425C96.1547 72.6494 96.5853 72.9411 97.0744 73.069C97.5593 73.1947 98.0652 73.2173 98.5594 73.1353C98.8745 73.1161 99.1824 73.0329 99.4643 72.8908C99.7462 72.7487 99.9962 72.5507 100.199 72.3088C100.4 72.0212 100.539 71.6944 100.606 71.3498Z" fill="#FFC100"/>
<path opacity="0.3" d="M100.606 71.3498C100.65 71.1242 100.671 70.8946 100.668 70.6647C100.668 69.9399 100.504 68.972 100.013 68.4196C99.6333 67.8548 99.0829 67.4259 98.4422 67.1954C97.8016 66.9649 97.1041 66.9448 96.4513 67.1379C95.6627 67.3004 94.963 67.7511 94.489 68.4019C94.047 69.0693 93.9056 69.8338 94.5243 70.4261C94.7589 70.6173 94.9804 70.824 95.1873 71.0448C95.4701 71.4028 95.5895 71.8713 95.8546 72.2425C96.1547 72.6494 96.5853 72.9411 97.0744 73.069C97.5593 73.1947 98.0652 73.2173 98.5594 73.1353C98.8745 73.1161 99.1824 73.0329 99.4643 72.8908C99.7462 72.7487 99.9962 72.5507 100.199 72.3088C100.4 72.0212 100.539 71.6944 100.606 71.3498Z" fill="black"/>
<path d="M96.6503 69.6173C96.6512 69.7619 96.6091 69.9035 96.5293 70.0241C96.4495 70.1447 96.3357 70.2388 96.2022 70.2946C96.0688 70.3503 95.9218 70.3651 95.7799 70.3371C95.6381 70.3091 95.5077 70.2396 95.4055 70.1373C95.3032 70.0351 95.2337 69.9047 95.2057 69.7629C95.1777 69.621 95.1925 69.474 95.2483 69.3406C95.304 69.2072 95.3981 69.0933 95.5187 69.0135C95.6393 68.9337 95.7809 68.8916 95.9255 68.8925C96.1174 68.8936 96.3011 68.9704 96.4368 69.106C96.5724 69.2417 96.6492 69.4254 96.6503 69.6173Z" fill="#263238"/>
<path d="M91.5146 68.2605C91.5146 68.4038 91.472 68.5439 91.3924 68.6631C91.3128 68.7823 91.1996 68.8752 91.0671 68.9301C90.9347 68.985 90.7889 68.9993 90.6483 68.9713C90.5078 68.9434 90.3786 68.8743 90.2772 68.773C90.1759 68.6716 90.1068 68.5425 90.0789 68.4019C90.0509 68.2613 90.0653 68.1155 90.1201 67.9831C90.175 67.8506 90.2679 67.7374 90.3871 67.6578C90.5063 67.5782 90.6464 67.5356 90.7898 67.5356C90.982 67.5356 91.1663 67.612 91.3023 67.7479C91.4382 67.8839 91.5146 68.0682 91.5146 68.2605Z" fill="#263238"/>
<path d="M89.7603 74.2313H89.7117C89.6893 74.2271 89.6679 74.2184 89.6489 74.2059C89.6298 74.1933 89.6135 74.1772 89.6007 74.1582C89.588 74.1393 89.5791 74.1181 89.5746 74.0957C89.5702 74.0734 89.5702 74.0503 89.5747 74.028L89.8973 72.353C89.9061 72.3078 89.9324 72.2681 89.9706 72.2424C90.0087 72.2167 90.0555 72.2072 90.1006 72.216C90.1457 72.2248 90.1855 72.2511 90.2112 72.2892C90.2369 72.3274 90.2464 72.3741 90.2376 72.4193L89.915 74.0943C89.9068 74.1305 89.8875 74.1632 89.8597 74.1877C89.832 74.2123 89.7972 74.2276 89.7603 74.2313Z" fill="#263238"/>
<path d="M90.7986 70.3951C89.9147 70.1255 89.2297 70.1697 89.0618 70.5012C88.7922 71.0581 89.1943 71.8713 89.4728 72.1939C89.6283 72.3315 89.8108 72.4353 90.0086 72.4984C90.2065 72.5616 90.4154 72.5828 90.6219 72.5607C91.1213 72.5077 91.9212 72.185 92.0715 71.6768C92.2217 71.1685 91.7489 70.6868 90.7986 70.3951Z" fill="#263238"/>
<path d="M89.4023 70.4615C89.2852 70.5317 89.1979 70.6426 89.1572 70.7729C89.1164 70.9033 89.125 71.0441 89.1813 71.1686C89.283 71.3498 89.4598 70.6736 89.9415 70.6736C90.4901 70.7304 91.0188 70.9102 91.4884 71.1995C91.7889 71.394 91.7977 71.0404 91.2011 70.7576C90.4719 70.3687 89.7824 70.2626 89.4023 70.4615Z" fill="#37474F"/>
<path d="M90.8249 74.3949C90.7188 74.3949 90.6172 74.3949 90.5111 74.3949C90.1982 74.3909 89.8892 74.3252 89.6018 74.2016C89.3143 74.078 89.0541 73.8989 88.8361 73.6745C88.8079 73.6381 88.7954 73.5921 88.8012 73.5465C88.807 73.501 88.8307 73.4595 88.867 73.4314C88.9033 73.4033 88.9494 73.3907 88.995 73.3965C89.0405 73.4023 89.0819 73.426 89.1101 73.4623C89.4949 73.8305 90.0051 74.039 90.5376 74.0457C90.882 74.0922 91.2323 74.0684 91.5673 73.9757C91.9023 73.883 92.215 73.7234 92.4866 73.5065C92.5032 73.4909 92.5226 73.4786 92.5439 73.4705C92.5652 73.4623 92.5879 73.4584 92.6106 73.459C92.6334 73.4597 92.6559 73.4648 92.6767 73.474C92.6975 73.4833 92.7163 73.4966 92.7319 73.5132C92.7476 73.5297 92.7598 73.5492 92.768 73.5704C92.7761 73.5917 92.78 73.6144 92.7794 73.6372C92.7788 73.66 92.7737 73.6824 92.7644 73.7032C92.7551 73.724 92.7418 73.7428 92.7253 73.7585C92.1928 74.1991 91.5154 74.426 90.8249 74.3949Z" fill="#263238"/>
<path d="M99.6466 66.1921C100.619 66.3026 102.555 66.7623 103.151 67.6859C103.748 68.6096 105.64 71.6945 105.122 74.5893C104.958 75.6515 104.409 76.616 103.579 77.2991C102.749 77.9822 101.697 78.3359 100.623 78.2929C99.0412 78.1338 98.0688 77.409 98.8555 75.1285C99.6422 72.848 100.239 69.6394 99.6599 68.1102C99.1384 66.7136 98.5506 66.0772 99.6466 66.1921Z" fill="#37474F"/>
<path d="M104.376 69.9841C103.973 70.5711 103.427 71.0457 102.789 71.363C102.485 71.4814 102.197 71.6373 101.932 71.8271C101.8 71.9239 101.7 72.0572 101.644 72.2103C101.587 72.3635 101.577 72.5299 101.614 72.6889C101.746 73.0734 102.206 73.2104 102.595 73.3209C102.984 73.4314 103.439 73.6612 103.443 74.0678C103.443 74.3595 103.209 74.607 103.187 74.8987C103.192 75.0036 103.219 75.1064 103.266 75.2005C103.313 75.2946 103.378 75.3781 103.459 75.4457C103.539 75.5133 103.633 75.5635 103.733 75.5934C103.834 75.6232 103.94 75.632 104.044 75.6191C104.438 75.5486 104.791 75.3305 105.03 75.0092C105.065 74.8766 105.096 74.744 105.123 74.6026C105.41 72.985 104.946 71.31 104.376 69.9841Z" fill="#FFC100"/>
<path opacity="0.4" d="M104.376 69.9841C103.973 70.5711 103.427 71.0457 102.789 71.363C102.485 71.4814 102.197 71.6373 101.932 71.8271C101.8 71.9239 101.7 72.0572 101.644 72.2103C101.587 72.3635 101.577 72.5299 101.614 72.6889C101.746 73.0734 102.206 73.2104 102.595 73.3209C102.984 73.4314 103.439 73.6612 103.443 74.0678C103.443 74.3595 103.209 74.607 103.187 74.8987C103.192 75.0036 103.219 75.1064 103.266 75.2005C103.313 75.2946 103.378 75.3781 103.459 75.4457C103.539 75.5133 103.633 75.5635 103.733 75.5934C103.834 75.6232 103.94 75.632 104.044 75.6191C104.438 75.5486 104.791 75.3305 105.03 75.0092C105.065 74.8766 105.096 74.744 105.123 74.6026C105.41 72.985 104.946 71.31 104.376 69.9841Z" fill="black"/>
<path d="M83.4933 83.0527C80.8902 84.193 78.4064 85.4614 77.9335 86.9552C77.4606 88.449 78.729 88.7938 78.729 88.7938C78.729 88.7938 77.4297 88.7319 77.4297 87.543C77.4297 86.3542 78.5081 84.5112 83.4933 83.0527Z" fill="#37474F"/>
<path d="M85.398 84.3123C85.6897 84.2725 86.2245 84.0736 86.282 83.72C86.3129 83.477 86.1008 83.4283 85.8975 83.4328C85.6146 83.4416 85.3421 83.5407 85.1196 83.7156C84.7705 84.0117 84.9782 84.3697 85.398 84.3123Z" fill="#37474F"/>
<path d="M85.8619 85.1962C86.1581 85.1962 86.7193 85.1123 86.8254 84.7543C86.8961 84.5201 86.7017 84.4361 86.4984 84.4007C86.2196 84.3566 85.9341 84.4047 85.6852 84.5377C85.2918 84.7808 85.4421 85.1697 85.8619 85.1962Z" fill="#37474F"/>
<path d="M84.0768 83.8705C84.3508 83.8705 84.8591 83.7246 84.9298 83.4064C84.9828 83.1854 84.7928 83.1191 84.6072 83.1059C84.3455 83.0855 84.0844 83.1523 83.8647 83.2959C83.5244 83.5302 83.6879 83.8705 84.0768 83.8705Z" fill="#37474F"/>
<path d="M84.3286 84.4847C84.0192 84.193 83.5684 83.9323 82.2072 84.3212C80.846 84.7101 80.3731 85.3377 80.7001 85.625C81.1819 86.0404 81.973 85.3907 81.7918 86.3586C81.6901 86.9066 82.4149 87.3132 83.648 86.3586C84.881 85.404 84.6689 84.8029 84.3286 84.4847Z" fill="#37474F"/>
<path d="M81.7562 81.9347C82.0479 81.8993 82.5826 81.7004 82.6401 81.3424C82.671 81.1038 82.4589 81.0552 82.2556 81.0552C81.9728 81.064 81.7002 81.1632 81.4778 81.338C81.1419 81.6341 81.3496 81.9877 81.7562 81.9347Z" fill="#37474F"/>
<path d="M82.2335 82.8097C82.5297 82.8097 83.0865 82.7257 83.197 82.3677C83.2677 82.1379 83.0733 82.0495 82.87 82.0186C82.5898 81.9757 82.3032 82.0237 82.0523 82.1556C81.6678 82.3987 81.8137 82.7876 82.2335 82.8097Z" fill="#37474F"/>
<path d="M80.4306 81.4838C80.7046 81.4838 81.2129 81.3423 81.2836 81.0418C81.3366 80.8208 81.1466 80.759 80.961 80.7413C80.6994 80.7229 80.439 80.7896 80.2185 80.9313C79.9003 81.1479 80.0594 81.4926 80.4306 81.4838Z" fill="#37474F"/>
<path d="M80.6997 82.1026C80.3903 81.8154 79.9395 81.5502 78.5783 81.9391C77.2171 82.328 76.7442 82.96 77.0712 83.265C77.553 83.6804 78.3441 83.0307 78.1629 83.9986C78.0612 84.5511 78.786 84.9532 80.0191 83.9986C81.2521 83.044 81.0356 82.4208 80.6997 82.1026Z" fill="#37474F"/>
<path d="M75.0125 94.1635C74.9711 94.2357 74.9101 94.2948 74.8366 94.3338C74.7631 94.3729 74.6801 94.3905 74.597 94.3844C71.7111 94.159 67.8439 91.7327 66.2883 88.3738C64.6928 84.9089 65.9789 80.8606 66.549 80.8075C67.1191 80.7545 65.97 83.0792 66.6241 86.0005C67.2252 88.6876 69.7178 92.0244 74.6766 92.842C74.7566 92.8537 74.8318 92.887 74.8942 92.9384C74.9565 92.9899 75.0035 93.0574 75.0302 93.1337C75.1589 93.4661 75.1526 93.8357 75.0125 94.1635Z" fill="#37474F"/>
<path opacity="0.1" d="M100.398 87.1894C99.9563 87.1054 99.7132 87.322 99.2447 87.68C98.7763 88.038 98.2106 88.4711 97.8084 88.8026C96.4051 89.971 94.6967 90.7132 92.885 90.9416C92.1005 91.0666 91.3044 91.1037 90.5117 91.0521C90.3356 91.0529 90.1617 91.0134 90.0032 90.9369C89.8447 90.8603 89.7057 90.7485 89.5968 90.6102C89.5292 90.4472 89.4978 90.2716 89.5047 90.0953C89.5115 89.9191 89.5566 89.7464 89.6366 89.5893C89.8938 88.938 90.0978 88.267 90.2465 87.5828C90.3437 86.995 90.4012 85.7663 89.862 85.3465C89.751 85.2768 89.6211 85.2436 89.4903 85.2515C89.3595 85.2594 89.2345 85.3081 89.1328 85.3907C88.8738 85.6324 88.6479 85.9073 88.461 86.2083C87.8147 87.0251 87.2241 87.8844 86.6932 88.7805C86.4505 88.1389 86.0287 87.5805 85.4778 87.1717C87.0998 85.9785 86.9981 85.2537 86.9981 85.2537C86.1142 86.5442 84.0547 87.1452 84.0547 87.1452C84.6166 87.42 85.0938 87.8414 85.4361 88.3649C85.7784 88.8884 85.973 89.4947 85.9993 90.1196C85.7276 90.7293 85.3849 91.3049 84.9784 91.8344C84.1868 92.7423 83.1586 93.4125 82.0084 93.7702C81.1996 94.0442 77.2662 94.4198 73.7129 94.7159C74.3802 95.7987 75.5117 96.9257 77.3193 97.982C85.4778 102.813 96.1466 97.6505 99.479 89.9163C99.8647 89.0283 100.182 88.1123 100.429 87.1762L100.398 87.1894Z" fill="black"/>
<path d="M69.9299 105.668C72.2546 105.314 74.566 104.846 76.8553 104.298C82.3577 102.972 87.9971 101.235 93.0309 98.6186C94.606 97.8083 96.1044 96.8572 97.508 95.7768C98.2039 95.2954 98.8186 94.7061 99.3288 94.0311C99.8304 93.3089 100.263 92.5409 100.619 91.7373C101.076 90.7137 101.278 89.5944 101.207 88.4757C101.176 88.1354 101.048 87.7288 100.712 87.6669C100.27 87.5873 99.9962 88.1707 99.7443 88.4403C99.3994 88.8272 99.0304 89.1918 98.6394 89.532C97.2333 90.6957 95.5262 91.4374 93.716 91.671C92.9314 91.796 92.1354 91.8331 91.3427 91.7815C91.1667 91.7819 90.9929 91.7424 90.8344 91.6658C90.6759 91.5892 90.5369 91.4777 90.4278 91.3396C90.3602 91.1766 90.3288 91.001 90.3357 90.8247C90.3425 90.6485 90.3876 90.4758 90.4676 90.3186C90.7254 89.6676 90.9293 88.9965 91.0775 88.3122C91.1747 87.7288 91.2322 86.4957 90.693 86.0803C90.582 86.0106 90.4521 85.9774 90.3213 85.9853C90.1905 85.9932 90.0655 86.0419 89.9638 86.1245C89.7025 86.3641 89.4764 86.6393 89.292 86.9421C88.5784 87.8225 87.9356 88.7579 87.3695 89.7397C86.8524 90.6899 86.4856 91.7285 85.7917 92.5682C85.0011 93.4763 83.9724 94.1453 82.8217 94.4996C81.4959 94.9415 71.6181 95.684 69.015 95.874L62.7525 82.5446C62.7525 82.5446 59.4422 72.2382 53.9752 71.2438C51.1202 72.8613 50.2849 74.2668 49.865 77.4312C49.4451 80.5956 50.6694 83.2783 52.0748 87.552C53.4802 91.8257 60.1361 102.053 62.0144 104.09C63.8927 106.127 64.8871 106.127 68.0692 105.915C68.6924 105.849 69.3111 105.761 69.9299 105.668Z" fill="#D8C0BE"/>
<path d="M151.961 141.122L115.601 120.129L79.2412 141.122L115.601 162.115L151.961 141.122Z" fill="#FFC100"/>
<path opacity="0.4" d="M151.961 141.122L115.601 120.129L79.2412 141.122L115.601 162.115L151.961 141.122Z" fill="white"/>
<path opacity="0.1" d="M151.961 141.122L115.601 120.129L79.2412 141.122L115.601 162.115L151.961 141.122Z" fill="black"/>
<path opacity="0.1" d="M115.601 150.663V120.129L79.2412 141.122V171.656L115.601 150.663Z" fill="black"/>
<path opacity="0.2" d="M115.601 150.663L79.2412 171.656L115.601 192.649L151.961 171.656L115.601 150.663Z" fill="black"/>
<path d="M115.602 192.649L151.961 171.656V141.122L115.602 162.115V192.649Z" fill="#FFC100"/>
<path opacity="0.6" d="M115.602 192.649L151.961 171.656V141.122L115.602 162.115V192.649Z" fill="white"/>
<path opacity="0.1" d="M115.602 162.115L122.187 175.448L151.961 158.296V141.122L115.602 162.115Z" fill="black"/>
<path d="M115.601 192.649L79.2412 171.656V141.122L115.601 162.115V192.649Z" fill="#FFC100"/>
<path opacity="0.4" d="M115.601 192.649L79.2412 171.656V141.122L115.601 162.115V192.649Z" fill="white"/>
<path opacity="0.1" d="M115.601 162.115L109.02 175.448L79.2412 158.296V141.122L115.601 162.115Z" fill="black"/>
<path opacity="0.1" d="M81.7212 164.925V168.487C81.7549 169.1 81.9326 169.695 82.2398 170.226C82.5469 170.757 82.9749 171.207 83.489 171.541L91.5326 176.186C92.5094 176.748 93.3005 176.292 93.3005 175.17V171.603C93.2664 170.992 93.0886 170.397 92.7814 169.867C92.4742 169.337 92.0464 168.887 91.5326 168.554L83.489 163.909C82.5123 163.348 81.7212 163.803 81.7212 164.925Z" fill="black"/>
<path d="M79.2416 141.122L70.9814 151.618L107.368 172.589L115.601 162.115L79.2416 141.122Z" fill="#FFC100"/>
<path opacity="0.6" d="M79.2416 141.122L70.9814 151.618L107.368 172.589L115.601 162.115L79.2416 141.122Z" fill="white"/>
<path d="M151.961 141.122L160.226 151.618L123.84 172.589L115.602 162.115L151.961 141.122Z" fill="#FFC100"/>
<path opacity="0.4" d="M151.961 141.122L160.226 151.618L123.84 172.589L115.602 162.115L151.961 141.122Z" fill="white"/>
<path d="M98.162 142.96C98.9222 145.17 102.529 146.173 104.964 150.442C105.998 152.301 106.356 154.462 105.976 156.555L84.7221 144.282L83.2681 140.989L98.162 142.96Z" fill="#F0F0F0"/>
<path d="M76.6958 148.122C76.7356 147.11 77.3455 145.753 78.1366 144.635C79.4106 142.9 81.2099 141.621 83.2677 140.989L88.1955 144.083C82.9318 143.906 81.1242 146.677 80.6336 148.224C80.2978 149.289 80.0149 150.115 79.3917 150.115C79.2325 150.127 79.0746 150.079 78.9493 149.98C78.824 149.881 78.7406 149.738 78.7155 149.581C78.6348 149.674 78.5282 149.742 78.4091 149.775C78.2901 149.808 78.1639 149.806 78.0464 149.767C77.9288 149.729 77.8252 149.657 77.7485 149.56C77.6717 149.463 77.6253 149.346 77.6151 149.223C77.5069 149.279 77.3832 149.297 77.2633 149.276C77.1434 149.254 77.034 149.194 76.9521 149.103C76.843 148.967 76.7638 148.809 76.7197 148.64C76.6755 148.471 76.6674 148.295 76.6958 148.122Z" fill="#F0F0F0"/>
<path d="M76.9521 149.086C77.0032 149.103 77.0572 149.11 77.111 149.105C77.1647 149.101 77.217 149.085 77.2643 149.06C77.3117 149.034 77.3532 148.998 77.3862 148.956C77.4192 148.913 77.443 148.864 77.456 148.812C77.5296 148.573 77.6335 148.344 77.7653 148.131C77.6595 148.482 77.6118 148.848 77.6239 149.214C77.5138 149.271 77.3877 149.29 77.2658 149.266C77.144 149.243 77.0335 149.179 76.9521 149.086Z" fill="#E0E0E0"/>
<path d="M77.9912 149.722C78.1225 149.709 78.2461 149.654 78.3433 149.564C78.4405 149.475 78.5062 149.357 78.5304 149.227C78.5706 148.99 78.671 148.768 78.8221 148.582C78.7318 148.899 78.6959 149.229 78.716 149.559C78.6234 149.652 78.506 149.717 78.3775 149.746C78.2491 149.775 78.115 149.767 77.9912 149.722Z" fill="#E0E0E0"/>
<path d="M86.176 152.453C86.3709 151.132 86.8802 149.877 87.661 148.794C88.7372 147.202 90.1881 145.898 91.8861 144.998V143.672C91.8861 143.672 98.0426 144.931 98.1575 149.015C92.7966 148.52 90.7812 151.225 90.2023 152.794C89.7957 153.863 89.4554 154.685 88.8189 154.65C88.656 154.653 88.4979 154.595 88.3759 154.487C88.2539 154.379 88.177 154.229 88.1604 154.066C88.071 154.156 87.9574 154.216 87.8337 154.242C87.7101 154.267 87.5817 154.255 87.4646 154.208C87.3474 154.161 87.2467 154.081 87.1748 153.977C87.1028 153.873 87.0629 153.751 87.06 153.624C86.9459 153.674 86.8187 153.686 86.6975 153.657C86.5764 153.628 86.4678 153.561 86.3882 153.465C86.2842 153.321 86.2117 153.156 86.1751 152.982C86.1386 152.807 86.1389 152.627 86.176 152.453Z" fill="#F0F0F0"/>
<path d="M86.3838 153.457C86.435 153.478 86.4899 153.488 86.5452 153.486C86.6005 153.485 86.6549 153.473 86.7051 153.449C86.7553 153.426 86.8002 153.393 86.8369 153.351C86.8736 153.31 86.9014 153.262 86.9186 153.209C87.0072 152.968 87.126 152.739 87.2721 152.528C87.1416 152.881 87.0714 153.253 87.0644 153.629C86.9479 153.679 86.8178 153.69 86.6947 153.659C86.5716 153.628 86.4622 153.556 86.3838 153.457Z" fill="#E0E0E0"/>
<path d="M87.4092 154.168C87.5429 154.163 87.6714 154.115 87.7751 154.03C87.8788 153.946 87.952 153.83 87.9837 153.7C88.0397 153.459 88.157 153.237 88.324 153.054C88.2123 153.374 88.1555 153.71 88.1561 154.049C88.0565 154.139 87.9329 154.198 87.8003 154.219C87.6677 154.24 87.5319 154.223 87.4092 154.168Z" fill="#E0E0E0"/>
<path d="M83.2769 140.989C82.9587 141.095 82.6361 141.219 82.3179 141.356C84.0193 143.059 86.0915 144.347 88.3727 145.117C90.6885 145.895 94.1446 146.35 97.2118 145.241C97.8573 145.006 98.4396 144.624 98.9134 144.127C98.6427 143.836 98.4204 143.503 98.2548 143.141" fill="#E0E0E0"/>
<path d="M90.1936 130.378C89.4202 128.464 86.521 126.201 84.2979 127.098C83.0472 127.602 83.9311 132.296 83.9311 132.296C83.9311 132.296 88.1209 132.291 90.1936 130.378Z" fill="#E0E0E0"/>
<path d="M88.3287 131.487C86.9093 131.995 85.4165 132.268 83.9091 132.296C83.9091 132.296 83.0252 127.602 84.276 127.098C85.1201 126.908 87.2371 128.022 88.3287 131.487Z" fill="#D8C0BE"/>
<path d="M85.4997 129.953C85.5568 129.537 85.4593 129.114 85.2257 128.764C85.9903 128.703 87.0554 129.414 87.2455 130.683C87.2455 130.683 86.1052 132.808 84.4214 131.933C84.2475 131.616 84.0202 131.33 83.7496 131.089C83.7098 130.762 83.6744 130.395 83.6523 130.02C84.2573 129.873 84.8858 129.85 85.4997 129.953Z" fill="#C2ACAB"/>
<path d="M95.8994 132.066C97.6098 130.917 101.278 130.674 102.617 132.667C103.368 133.785 99.4439 137.595 99.4439 137.595C99.4439 137.595 96.5314 134.81 95.8994 132.066Z" fill="#E0E0E0"/>
<path d="M96.8096 134.033C98.0515 135.849 99.4392 137.595 99.4392 137.595C99.4392 137.595 103.364 133.785 102.612 132.667C102.038 132.044 99.6646 131.779 96.8096 134.033Z" fill="#D8C0BE"/>
<path d="M99.2799 136.671C99.4762 136.518 99.6975 136.4 99.934 136.322C100.168 136.074 100.433 135.778 100.703 135.464C100.286 135.002 99.7793 134.629 99.2136 134.368C99.3978 133.994 99.712 133.698 100.098 133.538C99.4921 133.056 98.122 133.171 97.4458 134.121C97.4478 134.608 97.5486 135.089 97.7419 135.535C98.038 135.884 98.312 136.189 98.5419 136.419C98.7671 136.555 99.0187 136.641 99.2799 136.671Z" fill="#C2ACAB"/>
<path d="M88.629 144.295C90.6929 144.989 93.7734 145.395 96.5047 144.405C99.7575 143.225 99.9387 138.514 99.1564 136.379C98.3742 134.245 96.7433 132.088 93.0265 130.842C89.3096 129.595 86.7242 130.333 84.8193 131.566C82.9145 132.8 80.2539 136.676 82.1676 139.584C83.7365 142.028 86.5606 143.605 88.629 144.295Z" fill="#F5F5F5"/>
<path d="M88.6465 143.804C84.5231 142.421 84.744 139.866 85.7871 138.815C86.8301 137.763 88.5537 137.489 90.5248 138.134C92.496 138.779 93.7025 140.07 93.9102 141.541C94.1179 143.013 92.7656 145.188 88.6465 143.804Z" fill="#E0E0E0"/>
<path d="M89.8 140.326L90.7679 140.18C90.8046 140.173 90.8371 140.152 90.8592 140.122C90.8813 140.091 90.8913 140.054 90.8872 140.017C90.8856 139.999 90.8804 139.982 90.8718 139.966C90.8633 139.951 90.8515 139.937 90.8374 139.926C90.8233 139.915 90.807 139.908 90.7897 139.903C90.7724 139.899 90.7545 139.899 90.7369 139.902L89.8928 140.03L89.2696 139.424C89.2576 139.411 89.243 139.401 89.2266 139.393C89.2102 139.386 89.1925 139.382 89.1746 139.382C89.1567 139.382 89.139 139.386 89.1226 139.393C89.1063 139.401 89.0916 139.411 89.0796 139.424C89.0554 139.452 89.042 139.487 89.042 139.524C89.042 139.561 89.0554 139.596 89.0796 139.623L89.8 140.326Z" fill="#455A64"/>
<path d="M90.4985 142.412C90.6643 142.405 90.8262 142.36 90.9714 142.279C91.2383 142.134 91.4393 141.892 91.5327 141.603C91.5445 141.569 91.5428 141.532 91.528 141.499C91.5132 141.466 91.4864 141.44 91.4532 141.427C91.418 141.417 91.3804 141.421 91.3483 141.438C91.3162 141.456 91.292 141.485 91.2808 141.519C91.2041 141.74 91.046 141.924 90.8388 142.032C90.7432 142.085 90.6376 142.117 90.5289 142.127C90.4201 142.137 90.3104 142.124 90.2068 142.089C90.101 142.054 90.0041 141.996 89.9225 141.92C89.841 141.843 89.7767 141.751 89.734 141.647C89.6353 141.438 89.6226 141.199 89.6986 140.98L89.9549 140.207C89.9613 140.19 89.9643 140.172 89.9638 140.154C89.9633 140.136 89.9592 140.118 89.9518 140.102C89.9444 140.085 89.9339 140.071 89.9207 140.058C89.9076 140.046 89.8922 140.036 89.8754 140.03C89.8402 140.02 89.8027 140.024 89.7705 140.042C89.7384 140.059 89.7142 140.088 89.703 140.123L89.4467 140.896C89.3489 141.186 89.3647 141.502 89.4909 141.78C89.5506 141.912 89.6367 142.031 89.7438 142.129C89.8509 142.227 89.9769 142.302 90.114 142.35C90.2372 142.395 90.3676 142.416 90.4985 142.412Z" fill="#455A64"/>
<path d="M88.6815 141.802C88.8476 141.797 89.01 141.752 89.1544 141.67C89.4221 141.526 89.6234 141.283 89.7157 140.993L89.972 140.22C89.9784 140.203 89.9814 140.185 89.9809 140.167C89.9803 140.149 89.9762 140.131 89.9689 140.115C89.9615 140.099 89.9509 140.084 89.9378 140.071C89.9247 140.059 89.9093 140.049 89.8924 140.043C89.8573 140.033 89.8197 140.038 89.7876 140.055C89.7555 140.072 89.7313 140.101 89.7201 140.136L89.4637 140.909C89.387 141.13 89.229 141.314 89.0218 141.422C88.9261 141.475 88.8206 141.507 88.7118 141.517C88.603 141.527 88.4934 141.514 88.3898 141.479C88.1776 141.401 88.005 141.241 87.9098 141.036C87.8146 140.831 87.8044 140.596 87.8815 140.383C87.8886 140.367 87.8921 140.349 87.8918 140.33C87.8916 140.312 87.8876 140.294 87.8802 140.278C87.8727 140.261 87.8619 140.246 87.8485 140.234C87.835 140.222 87.8192 140.212 87.802 140.207C87.7668 140.197 87.7293 140.201 87.6972 140.218C87.665 140.236 87.6408 140.265 87.6296 140.299C87.5293 140.581 87.5435 140.89 87.6692 141.162C87.7948 141.433 88.0218 141.644 88.3014 141.749C88.4235 141.791 88.5526 141.809 88.6815 141.802Z" fill="#455A64"/>
<path d="M85.8096 136.021C85.761 136.202 85.7666 136.394 85.8256 136.572C85.8846 136.75 85.9944 136.907 86.1416 137.023C86.2887 137.139 86.4667 137.209 86.6535 137.226C86.8403 137.242 87.0277 137.203 87.1926 137.113C87.3575 137.024 87.4925 136.888 87.5811 136.723C87.6697 136.558 87.7079 136.37 87.691 136.184C87.6742 135.997 87.6029 135.819 87.4861 135.673C87.3693 135.526 87.2121 135.417 87.0339 135.358C86.91 135.321 86.7799 135.309 86.6512 135.322C86.5225 135.335 86.3976 135.374 86.2838 135.435C86.17 135.497 86.0695 135.58 85.9882 135.681C85.9068 135.781 85.8461 135.897 85.8096 136.021Z" fill="#455A64"/>
<path d="M95.5503 139.305C95.4797 139.478 95.3602 139.627 95.2063 139.733C95.0524 139.839 94.8709 139.898 94.684 139.902C94.4972 139.906 94.3132 139.856 94.1546 139.757C93.9961 139.658 93.8698 139.515 93.7915 139.345C93.7131 139.176 93.6861 138.987 93.7136 138.802C93.7411 138.617 93.8221 138.444 93.9464 138.305C94.0708 138.165 94.2333 138.065 94.4138 138.017C94.5943 137.968 94.785 137.974 94.9625 138.032C95.0851 138.077 95.1977 138.145 95.2938 138.233C95.3899 138.321 95.4675 138.428 95.5222 138.546C95.5769 138.664 95.6075 138.792 95.6123 138.923C95.6171 139.053 95.596 139.183 95.5503 139.305Z" fill="#455A64"/>
<path d="M98.1841 140.79C98.2387 140.786 98.2895 140.761 98.3255 140.719C98.7552 140.178 99.3415 139.783 100.004 139.587C100.667 139.392 101.374 139.406 102.029 139.628C102.055 139.635 102.082 139.637 102.109 139.634C102.135 139.631 102.161 139.623 102.185 139.61C102.208 139.596 102.229 139.579 102.245 139.558C102.262 139.536 102.274 139.512 102.281 139.486C102.291 139.461 102.296 139.435 102.295 139.408C102.294 139.381 102.288 139.355 102.277 139.331C102.266 139.306 102.25 139.284 102.23 139.266C102.21 139.248 102.187 139.234 102.162 139.226C100.235 138.585 98.8558 139.531 98.0426 140.437C98.004 140.476 97.9824 140.529 97.9824 140.585C97.9824 140.64 98.004 140.693 98.0426 140.733C98.0613 140.751 98.0833 140.766 98.1076 140.775C98.1319 140.785 98.1579 140.79 98.1841 140.79Z" fill="#455A64"/>
<path d="M98.6259 141.298C98.6637 141.296 98.7003 141.284 98.7319 141.263C99.1099 141.05 99.5283 140.92 99.96 140.879C100.392 140.839 100.827 140.89 101.238 141.029C101.263 141.038 101.289 141.043 101.316 141.042C101.343 141.042 101.369 141.036 101.394 141.025C101.418 141.013 101.44 140.997 101.458 140.978C101.476 140.958 101.49 140.935 101.499 140.909C101.521 140.859 101.523 140.803 101.504 140.751C101.485 140.7 101.447 140.658 101.397 140.635C100.926 140.474 100.426 140.415 99.931 140.462C99.4356 140.509 98.956 140.662 98.5242 140.909C98.4786 140.941 98.4465 140.988 98.4342 141.042C98.4219 141.096 98.4304 141.153 98.4579 141.201C98.4742 141.231 98.4985 141.256 98.5282 141.273C98.5578 141.291 98.5916 141.299 98.6259 141.298Z" fill="#455A64"/>
<path d="M101.72 142.96C101.75 142.96 101.779 142.952 101.806 142.939C101.833 142.925 101.856 142.905 101.874 142.881C101.909 142.838 101.926 142.783 101.922 142.728C101.918 142.673 101.893 142.622 101.852 142.584C101.358 142.158 100.768 141.857 100.132 141.708C99.4965 141.558 98.8341 141.565 98.2016 141.727C98.1495 141.746 98.1063 141.784 98.0802 141.833C98.0541 141.882 98.047 141.938 98.0602 141.992C98.0668 142.018 98.0785 142.042 98.0947 142.063C98.1108 142.084 98.131 142.102 98.1541 142.115C98.1771 142.128 98.2026 142.137 98.229 142.14C98.2554 142.143 98.2821 142.141 98.3077 142.134C98.8774 141.987 99.4741 141.982 100.046 142.119C100.618 142.255 101.149 142.529 101.591 142.916C101.627 142.947 101.673 142.963 101.72 142.96Z" fill="#455A64"/>
<path d="M83.2146 135.823C83.2685 135.812 83.3164 135.781 83.3491 135.737C83.3818 135.693 83.3969 135.639 83.3914 135.584C83.2809 134.369 82.7418 132.782 80.8192 132.128C80.767 132.114 80.7115 132.121 80.6641 132.147C80.6166 132.172 80.5808 132.215 80.5639 132.267C80.547 132.318 80.5503 132.374 80.5731 132.423C80.5959 132.472 80.6365 132.51 80.6867 132.53C81.3405 132.749 81.9119 133.163 82.3241 133.716C82.7364 134.269 82.97 134.934 82.9937 135.624C82.9928 135.652 82.998 135.68 83.0091 135.706C83.0202 135.732 83.0369 135.756 83.0579 135.774C83.079 135.793 83.1039 135.808 83.131 135.816C83.158 135.824 83.1866 135.826 83.2146 135.823Z" fill="#455A64"/>
<path d="M82.5571 135.964H82.6234C82.6747 135.942 82.7161 135.902 82.739 135.851C82.762 135.8 82.7649 135.743 82.7471 135.69C82.5492 135.232 82.2567 134.821 81.8888 134.485C81.5209 134.148 81.0859 133.893 80.6124 133.736C80.5579 133.722 80.5001 133.73 80.4516 133.759C80.4031 133.788 80.368 133.834 80.3539 133.889C80.3398 133.943 80.348 134.001 80.3766 134.05C80.4052 134.098 80.4519 134.133 80.5064 134.147C80.9182 134.285 81.2968 134.507 81.618 134.799C81.9391 135.091 82.1958 135.447 82.3714 135.844C82.3861 135.881 82.4119 135.912 82.4452 135.934C82.4784 135.955 82.5175 135.966 82.5571 135.964Z" fill="#455A64"/>
<path d="M82.3528 136.861C82.3953 136.861 82.4362 136.845 82.4677 136.817C82.5118 136.783 82.541 136.733 82.5493 136.678C82.5575 136.623 82.5441 136.566 82.5119 136.521C82.1058 136.01 81.5822 135.605 80.9859 135.34C80.3895 135.076 79.738 134.959 79.0868 135C79.0317 135.006 78.9808 135.033 78.9447 135.074C78.9085 135.116 78.8898 135.171 78.8923 135.226C78.8917 135.252 78.8964 135.278 78.9062 135.303C78.916 135.327 78.9306 135.349 78.9492 135.368C78.9678 135.386 78.99 135.401 79.0144 135.411C79.0388 135.421 79.0649 135.425 79.0912 135.425C79.6781 135.384 80.2661 135.486 80.8049 135.723C81.3437 135.959 81.8172 136.322 82.1849 136.782C82.2037 136.808 82.2291 136.829 82.2585 136.843C82.2879 136.857 82.3204 136.863 82.3528 136.861Z" fill="#455A64"/>
<path d="M87.4174 130.528C87.2362 129.697 86.4495 128.676 85.6805 128.676C85.8856 129.043 85.95 129.472 85.8617 129.883C85.8617 129.883 83.8994 129.365 83.21 130.28C83.5511 130.392 83.8587 130.588 84.1043 130.85C84.3499 131.112 84.5257 131.431 84.6154 131.779C86.202 132.777 87.4174 130.528 87.4174 130.528Z" fill="#F5F5F5"/>
<path d="M97.6672 134.116C98.3301 133.577 99.435 133.445 100.045 133.926C99.6593 134.087 99.3452 134.382 99.161 134.757C99.161 134.757 101.017 135.579 101.004 136.737C100.698 136.626 100.367 136.6 100.048 136.661C99.7277 136.723 99.4305 136.87 99.1875 137.086C97.2959 136.861 97.6672 134.116 97.6672 134.116Z" fill="#F5F5F5"/>
<path d="M122.081 149.656C122.07 149.735 122.044 149.812 122.004 149.881C121.963 149.951 121.91 150.011 121.846 150.06C121.782 150.109 121.709 150.144 121.632 150.165C121.554 150.185 121.473 150.19 121.394 150.18C121.314 150.169 121.238 150.143 121.168 150.102C121.099 150.062 121.038 150.008 120.99 149.944C120.941 149.881 120.905 149.808 120.885 149.73C120.864 149.653 120.859 149.572 120.87 149.492C121.1 147.755 120.455 146.447 119.102 145.912C118.351 145.644 117.532 145.63 116.772 145.874C116.012 146.118 115.354 146.605 114.899 147.26C114.143 148.308 114.21 149.523 114.285 150.933C114.382 152.701 114.488 154.699 112.879 156.643C111.979 157.632 110.787 158.308 109.476 158.575L107.788 157.602C109.331 157.501 111.041 156.953 111.938 155.865C113.264 154.288 113.158 152.688 113.065 151.004C112.986 149.501 112.902 147.95 113.905 146.553C114.52 145.678 115.408 145.03 116.429 144.711C117.45 144.391 118.548 144.417 119.553 144.785C121.011 145.356 122.439 146.942 122.081 149.656Z" fill="#F0F0F0"/>
<path d="M121.78 180.955C121.966 180.703 122.193 180.485 122.452 180.31C122.602 180.204 122.772 180.13 122.952 180.093C123.011 180.078 123.074 180.085 123.128 180.114C123.182 180.142 123.223 180.19 123.243 180.248C123.323 180.46 123.407 180.69 123.5 180.995C123.593 181.3 123.681 181.574 123.774 181.879C123.867 182.184 123.959 182.489 124.048 182.789C124.136 183.09 124.211 183.359 124.278 183.589C124.229 183.698 124.164 183.798 124.083 183.885C123.989 183.989 123.882 184.079 123.765 184.155C123.696 184.204 123.62 184.243 123.539 184.27C123.489 184.287 123.435 184.287 123.385 184.27C123.35 184.254 123.321 184.228 123.301 184.195C123.27 184.139 123.245 184.079 123.226 184.018L123.106 183.576L122.09 184.235C122.063 184.398 122.041 184.57 122.019 184.743C121.997 184.915 121.971 185.092 121.944 185.255C121.893 185.315 121.838 185.371 121.78 185.423C121.718 185.486 121.648 185.54 121.573 185.587C121.512 185.639 121.442 185.679 121.366 185.704C121.291 185.729 121.21 185.739 121.131 185.733C121.034 185.706 120.985 185.618 120.981 185.468C120.972 185.394 120.972 185.32 120.981 185.247C120.981 185.167 121.007 185.079 121.02 184.973C121.034 184.867 121.073 184.637 121.113 184.411C121.153 184.186 121.193 183.943 121.241 183.678L121.392 182.865C121.449 182.586 121.498 182.321 121.546 182.073C121.595 181.826 121.639 181.601 121.679 181.406C121.719 181.212 121.758 181.057 121.78 180.955ZM122.492 181.464C122.448 181.702 122.399 181.967 122.342 182.263C122.284 182.56 122.24 182.847 122.196 183.147L122.89 182.705C122.828 182.476 122.766 182.263 122.7 182.034C122.633 181.804 122.576 181.627 122.527 181.455L122.492 181.464Z" fill="#455A64"/>
<path d="M126.041 182.736L125.82 182.869C125.737 182.918 125.652 182.963 125.563 183.001C125.477 183.046 125.389 183.086 125.298 183.121C125.218 183.152 125.135 183.174 125.051 183.187C124.843 183.218 124.733 183.103 124.724 182.851L124.587 179.435C124.58 179.339 124.6 179.242 124.644 179.156C124.689 179.066 124.746 178.981 124.812 178.905C124.968 178.743 125.138 178.595 125.32 178.463C125.475 178.339 125.635 178.224 125.802 178.118C126.047 177.95 126.317 177.823 126.602 177.742C126.809 177.679 127.031 177.691 127.23 177.778C127.431 177.874 127.589 178.043 127.672 178.25C127.791 178.552 127.852 178.872 127.853 179.196C127.868 179.568 127.836 179.941 127.76 180.306C127.683 180.645 127.562 180.973 127.402 181.282C127.246 181.583 127.051 181.862 126.823 182.113C126.589 182.352 126.326 182.561 126.041 182.736ZM125.683 181.852L125.837 181.777C125.895 181.748 125.952 181.716 126.005 181.68C126.272 181.507 126.484 181.264 126.62 180.977C126.698 180.814 126.754 180.639 126.783 180.46C126.822 180.253 126.835 180.043 126.823 179.833C126.823 179.391 126.717 179.112 126.549 178.993C126.381 178.874 126.169 178.896 125.908 179.064L125.749 179.174C125.696 179.214 125.639 179.258 125.586 179.307L125.683 181.852Z" fill="#455A64"/>
<path d="M131.163 177.481C131.176 177.778 131.151 178.075 131.088 178.365C131.028 178.638 130.936 178.902 130.814 179.152C130.696 179.393 130.548 179.617 130.372 179.819C130.196 180.016 129.996 180.188 129.775 180.332C129.593 180.458 129.387 180.545 129.17 180.588C129.006 180.618 128.837 180.59 128.692 180.509C128.544 180.413 128.431 180.272 128.37 180.107C128.281 179.877 128.234 179.633 128.233 179.386C128.22 179.1 128.245 178.813 128.308 178.533C128.368 178.259 128.461 177.994 128.586 177.742C128.704 177.499 128.852 177.272 129.028 177.066C129.201 176.866 129.402 176.692 129.625 176.549C129.804 176.419 130.012 176.333 130.23 176.297C130.394 176.267 130.563 176.295 130.708 176.377C130.857 176.471 130.97 176.613 131.03 176.779C131.117 177.003 131.161 177.241 131.163 177.481ZM129.201 178.75C129.184 178.962 129.24 179.174 129.36 179.351C129.452 179.453 129.576 179.453 129.735 179.351C129.903 179.236 130.028 179.068 130.089 178.874C130.17 178.629 130.203 178.371 130.186 178.113C130.201 177.903 130.147 177.694 130.031 177.517C129.939 177.415 129.815 177.415 129.656 177.517C129.49 177.632 129.366 177.798 129.302 177.99C129.218 178.234 129.183 178.492 129.201 178.75Z" fill="#455A64"/>
<path d="M132.754 178.246C132.715 178.29 132.648 178.343 132.564 178.418C132.48 178.494 132.387 178.551 132.304 178.608C132.23 178.654 132.153 178.694 132.074 178.728C132.019 178.746 131.96 178.746 131.906 178.728C131.88 178.717 131.857 178.7 131.838 178.68C131.819 178.659 131.804 178.635 131.795 178.608C131.767 178.515 131.752 178.419 131.751 178.321L131.614 174.878C131.607 174.781 131.627 174.683 131.672 174.595C131.717 174.506 131.773 174.423 131.839 174.348C131.976 174.2 132.124 174.062 132.281 173.937C132.436 173.808 132.599 173.689 132.768 173.579C133.285 173.247 133.687 173.137 133.97 173.247C134.253 173.358 134.412 173.659 134.412 174.153C134.424 174.389 134.405 174.626 134.354 174.856C134.3 175.087 134.22 175.311 134.116 175.524C133.994 175.741 133.845 175.943 133.674 176.125C133.495 176.316 133.293 176.486 133.073 176.628L132.675 176.885L132.754 178.246ZM132.953 175.709C133.103 175.618 133.227 175.488 133.311 175.334C133.393 175.174 133.429 174.995 133.417 174.816C133.417 174.631 133.369 174.516 133.271 174.472C133.179 174.432 133.05 174.472 132.878 174.573L132.732 174.671L132.613 174.768L132.657 175.904L132.953 175.709Z" fill="#455A64"/>
<path d="M135.865 175.015C135.865 175.139 135.905 175.21 135.971 175.223C136.066 175.228 136.16 175.196 136.232 175.135C136.293 175.095 136.353 175.052 136.409 175.006C136.466 174.953 136.519 174.905 136.564 174.856C136.602 174.892 136.633 174.934 136.656 174.98C136.689 175.046 136.704 175.119 136.701 175.192C136.706 175.387 136.657 175.58 136.559 175.749C136.421 175.973 136.23 176.16 136.002 176.293C135.675 176.505 135.415 176.571 135.233 176.491C135.052 176.412 134.946 176.151 134.928 175.709L134.805 172.58C134.859 172.523 134.917 172.468 134.977 172.417C135.054 172.351 135.135 172.29 135.22 172.235C135.33 172.146 135.467 172.098 135.609 172.098C135.706 172.098 135.759 172.244 135.768 172.487V172.956L136.502 172.483C136.532 172.533 136.557 172.587 136.577 172.642C136.601 172.722 136.615 172.806 136.617 172.89C136.631 173.04 136.607 173.193 136.546 173.331C136.495 173.439 136.416 173.531 136.316 173.597L135.804 173.928L135.865 175.015Z" fill="#455A64"/>
<path d="M140.709 172.019C140.605 172.211 140.453 172.373 140.267 172.487C140.167 172.56 140.053 172.612 139.931 172.638C139.892 172.646 139.851 172.638 139.817 172.617C139.784 172.595 139.76 172.561 139.75 172.523C139.631 172.16 139.529 171.869 139.45 171.639C139.37 171.409 139.313 171.219 139.268 171.042H139.237C139.237 171.338 139.237 171.603 139.237 171.846C139.237 172.09 139.237 172.319 139.237 172.545C139.237 172.77 139.237 172.987 139.237 173.23C139.237 173.473 139.237 173.725 139.237 174.008C139.18 174.075 139.116 174.137 139.047 174.193C138.974 174.258 138.895 174.317 138.813 174.37C138.702 174.458 138.566 174.509 138.424 174.516C138.331 174.516 138.278 174.414 138.274 174.233V170.397C138.321 170.278 138.385 170.166 138.464 170.065C138.577 169.91 138.719 169.78 138.884 169.681C139.02 169.576 139.185 169.513 139.357 169.5C139.418 169.507 139.476 169.533 139.522 169.574C139.569 169.615 139.602 169.669 139.617 169.729C139.657 169.827 139.697 169.937 139.746 170.061C139.794 170.185 139.834 170.317 139.878 170.454C139.922 170.591 139.971 170.724 140.015 170.861C140.059 170.998 140.095 171.117 140.13 171.223H140.161C140.232 170.755 140.307 170.3 140.382 169.858C140.457 169.416 140.528 169.044 140.59 168.735C140.655 168.651 140.726 168.571 140.802 168.496C140.894 168.412 140.993 168.335 141.098 168.267C141.228 168.171 141.38 168.108 141.54 168.085C141.566 168.082 141.591 168.084 141.616 168.091C141.641 168.098 141.664 168.11 141.684 168.126C141.704 168.142 141.721 168.162 141.734 168.185C141.746 168.207 141.754 168.232 141.757 168.258C141.757 168.346 141.796 168.483 141.823 168.7C141.849 168.916 141.871 169.106 141.902 169.349C141.933 169.592 141.96 169.844 141.991 170.118C142.022 170.392 142.048 170.649 142.075 170.901C142.101 171.153 142.123 171.378 142.145 171.59C142.168 171.802 142.181 171.961 142.185 172.076C142.129 172.161 142.063 172.239 141.991 172.31C141.91 172.387 141.821 172.456 141.726 172.514C141.62 172.593 141.495 172.641 141.363 172.651C141.262 172.651 141.209 172.562 141.191 172.381C141.147 171.864 141.116 171.396 141.094 170.971C141.072 170.547 141.049 170.202 141.027 169.92H140.996C140.97 170.136 140.921 170.41 140.864 170.746C140.806 171.082 140.793 171.506 140.709 172.019Z" fill="#455A64"/>
<path d="M144.227 170.985C144.04 171.115 143.83 171.21 143.608 171.263C143.439 171.306 143.26 171.29 143.1 171.219C142.939 171.133 142.812 170.994 142.742 170.825C142.641 170.579 142.589 170.314 142.588 170.048C142.576 169.743 142.605 169.438 142.676 169.142C142.744 168.872 142.844 168.611 142.972 168.364C143.091 168.139 143.24 167.931 143.414 167.745C143.565 167.576 143.737 167.427 143.927 167.303C144.09 167.19 144.275 167.112 144.47 167.073C144.619 167.043 144.774 167.06 144.912 167.122C145.043 167.191 145.147 167.301 145.208 167.436C145.287 167.611 145.329 167.8 145.332 167.993C145.338 168.145 145.306 168.297 145.239 168.435C145.168 168.573 145.069 168.695 144.948 168.792L143.573 169.959C143.587 170.018 143.621 170.071 143.669 170.107C143.718 170.144 143.778 170.162 143.838 170.158C143.998 170.149 144.151 170.093 144.28 169.999C144.44 169.897 144.589 169.776 144.722 169.641C144.843 169.518 144.952 169.385 145.049 169.243C145.114 169.258 145.171 169.298 145.208 169.354C145.257 169.422 145.283 169.504 145.283 169.588C145.287 169.821 145.21 170.049 145.067 170.233C144.951 170.395 144.818 170.543 144.669 170.675C144.53 170.789 144.382 170.892 144.227 170.985ZM143.958 168.214C143.869 168.269 143.792 168.339 143.728 168.421C143.664 168.497 143.612 168.582 143.573 168.673C143.536 168.759 143.506 168.847 143.485 168.938C143.47 169.023 143.461 169.109 143.458 169.195L144.413 168.368C144.405 168.326 144.389 168.285 144.366 168.248C144.342 168.212 144.312 168.181 144.276 168.156C144.201 168.103 144.095 168.125 143.958 168.214Z" fill="#455A64"/>
<path d="M146.755 166.269C146.749 166.06 146.793 165.852 146.883 165.664C146.965 165.474 147.1 165.313 147.272 165.199C147.44 165.089 147.577 165.071 147.678 165.146C147.74 165.201 147.788 165.269 147.817 165.347C147.847 165.424 147.857 165.507 147.846 165.588C147.853 165.798 147.809 166.005 147.718 166.194C147.634 166.376 147.499 166.53 147.329 166.636C147.161 166.746 147.024 166.764 146.923 166.689C146.864 166.637 146.818 166.572 146.789 166.499C146.76 166.426 146.748 166.347 146.755 166.269ZM146.847 168.567C146.841 168.357 146.883 168.148 146.971 167.957C147.058 167.776 147.194 167.622 147.364 167.515C147.532 167.405 147.669 167.387 147.771 167.462C147.829 167.514 147.873 167.579 147.902 167.651C147.93 167.723 147.941 167.801 147.935 167.878C147.944 168.088 147.901 168.297 147.811 168.488C147.726 168.669 147.591 168.822 147.422 168.93C147.25 169.04 147.117 169.058 147.015 168.983C146.957 168.931 146.912 168.867 146.883 168.795C146.853 168.723 146.841 168.645 146.847 168.567Z" fill="#455A64"/>
<path d="M149.765 165.633C149.788 166.105 149.771 166.578 149.716 167.047C149.67 167.434 149.593 167.817 149.486 168.191C149.426 168.401 149.345 168.604 149.243 168.797C149.158 168.974 149.029 169.127 148.868 169.239C148.829 169.268 148.785 169.289 148.737 169.3C148.69 169.311 148.641 169.311 148.594 169.301C148.52 169.284 148.453 169.243 148.404 169.186C148.488 168.952 148.558 168.717 148.62 168.483C148.682 168.249 148.731 168.015 148.77 167.776C148.811 167.53 148.837 167.282 148.85 167.034C148.863 166.766 148.863 166.497 148.85 166.229C148.84 165.975 148.817 165.721 148.779 165.469C148.752 165.264 148.708 165.061 148.647 164.864C148.598 164.696 148.531 164.535 148.448 164.382C148.376 164.242 148.29 164.11 148.191 163.988C148.234 163.866 148.29 163.749 148.359 163.639C148.426 163.527 148.516 163.43 148.625 163.356C148.677 163.31 148.742 163.279 148.812 163.267C148.881 163.255 148.953 163.263 149.018 163.29C149.132 163.355 149.228 163.448 149.296 163.56C149.438 163.81 149.54 164.079 149.601 164.36C149.698 164.777 149.753 165.204 149.765 165.633Z" fill="#455A64"/>
</g>
<defs>
<clipPath id="clip0_171_22515">
<rect width="210" height="210" fill="white"/>
</clipPath>
</defs>
</svg>
