<svg width="121" height="120" viewBox="0 0 121 120" fill="none" xmlns="http://www.w3.org/2000/svg">
<g clip-path="url(#clip0_896_28456)">
<path opacity="0.5" d="M120.5 108.857C120.5 108.891 82.7843 108.785 39.7084 108.785C-3.36749 108.785 0.942101 108.891 0.942101 108.857C0.942101 108.823 -3.38371 108.659 39.7084 108.659C82.8005 108.659 120.5 108.82 120.5 108.857Z" fill="#263238"/>
<path d="M117.215 104.987H107.865V105.058H117.215V104.987Z" fill="#EBEBEB"/>
<path d="M83.713 105.755H81.2599V105.825H83.713V105.755Z" fill="#EBEBEB"/>
<path d="M107.583 102.368H102.166V102.438H107.583V102.368Z" fill="#EBEBEB"/>
<path d="M17.2149 102.842H5.02301V102.912H17.2149V102.842Z" fill="#EBEBEB"/>
<path d="M21.517 102.842H19.7302V102.912H21.517V102.842Z" fill="#EBEBEB"/>
<path d="M53.7711 104.033H27.3265V104.104H53.7711V104.033Z" fill="#EBEBEB"/>
<path d="M57.1161 87.8553H2.61234C2.18485 87.8553 1.77487 87.6855 1.47259 87.3832C1.17031 87.0809 1.00049 86.671 1.00049 86.2435V9.62264C1.00421 9.1976 1.17567 8.79124 1.47755 8.492C1.77943 8.19277 2.18728 8.02489 2.61234 8.0249H57.1161C57.5436 8.0249 57.9535 8.19472 58.2558 8.497C58.5581 8.79928 58.7279 9.20926 58.7279 9.63675V86.2435C58.7279 86.671 58.5581 87.0809 58.2558 87.3832C57.9535 87.6855 57.5436 87.8553 57.1161 87.8553ZM2.61234 8.08136C2.2038 8.08211 1.8122 8.24473 1.52332 8.53361C1.23443 8.8225 1.07181 9.2141 1.07106 9.62264V86.2435C1.07181 86.652 1.23443 87.0436 1.52332 87.3325C1.8122 87.6214 2.2038 87.784 2.61234 87.7847H57.1161C57.5246 87.784 57.9162 87.6214 58.2051 87.3325C58.494 87.0436 58.6566 86.652 58.6573 86.2435V9.62264C58.6566 9.2141 58.494 8.8225 58.2051 8.53361C57.9162 8.24473 57.5246 8.08211 57.1161 8.08136H2.61234Z" fill="#EBEBEB"/>
<path d="M118.177 87.8553H63.6678C63.2406 87.8546 62.831 87.6845 62.5289 87.3824C62.2268 87.0803 62.0567 86.6707 62.056 86.2435V9.62264C62.0604 9.19783 62.2321 8.79189 62.5338 8.49282C62.8356 8.19374 63.243 8.02562 63.6678 8.0249H118.177C118.601 8.02637 119.008 8.19491 119.308 8.49398C119.609 8.79306 119.78 9.19858 119.783 9.62264V86.2435C119.783 86.67 119.614 87.0791 119.313 87.3812C119.012 87.6833 118.604 87.8538 118.177 87.8553ZM63.6678 8.08136C63.2593 8.08211 62.8677 8.24473 62.5788 8.53361C62.2899 8.8225 62.1273 9.2141 62.1265 9.62264V86.2435C62.1273 86.652 62.2899 87.0436 62.5788 87.3325C62.8677 87.6214 63.2593 87.784 63.6678 87.7847H118.177C118.586 87.784 118.977 87.6214 119.266 87.3325C119.555 87.0436 119.718 86.652 119.718 86.2435V9.62264C119.718 9.2141 119.555 8.8225 119.266 8.53361C118.977 8.24473 118.586 8.08211 118.177 8.08136H63.6678Z" fill="#EBEBEB"/>
<path d="M131.357 100.445H-9.78571V100.516H131.357V100.445Z" fill="#EBEBEB"/>
<path d="M76.2127 16.6118H69.3221V23.5024H76.2127V16.6118Z" fill="#FAFAFA"/>
<path d="M84.1674 16.6118H77.2768V23.5024H84.1674V16.6118Z" fill="#FAFAFA"/>
<path d="M92.1195 16.6118H85.2289V23.5024H92.1195V16.6118Z" fill="#FAFAFA"/>
<path d="M100.074 16.6118H93.1836V23.5024H100.074V16.6118Z" fill="#FAFAFA"/>
<path d="M108.029 16.6118H101.138V23.5024H108.029V16.6118Z" fill="#FAFAFA"/>
<path d="M115.984 16.6118H109.093V23.5024H115.984V16.6118Z" fill="#FAFAFA"/>
<path d="M16.5177 31.6353H12.9778V100.369H16.5177V31.6353Z" fill="#EBEBEB"/>
<path d="M16.5177 31.6353H12.9778V36.1095H16.5177V31.6353Z" fill="#E0E0E0"/>
<path d="M37.2148 13.3208H5.81897V34.6955H37.2148V13.3208Z" fill="#E6E6E6"/>
<path d="M35.8798 14.6558H7.14874V33.3628H35.8798V14.6558Z" fill="#F5F5F5"/>
<path d="M27.5974 28.945H15.2812V18.9888H27.5974V28.945ZM16.1281 28.0981H26.7505V19.8356H16.1281V28.0981Z" fill="#E0E0E0"/>
<path d="M20.1367 31.0508H22.7394V28.4481H20.1367V31.0508Z" fill="#E0E0E0"/>
<path d="M24.3512 39.9455C23.7443 38.3901 24.1592 35.11 25.6215 29.9131L26.0308 30.026C24.5939 35.1326 24.1733 38.3252 24.7435 39.7903L24.3512 39.9455Z" fill="#E0E0E0"/>
<path d="M18.9256 39.9231L18.522 39.7904C18.522 39.7678 18.5446 39.6634 18.5559 39.5787C18.5671 39.494 18.5756 39.4517 18.5784 39.4376C18.6506 39.1413 18.6941 38.8388 18.7083 38.5343C18.7328 38.041 18.7205 37.5465 18.6716 37.0551C18.6716 36.9111 18.6434 36.7728 18.6264 36.6147C18.5643 36.0501 18.4683 35.4489 18.3441 34.746C18.2905 34.4637 18.2312 34.1814 18.1691 33.8822C18.0619 33.3769 17.932 32.8321 17.7909 32.2647C17.6215 31.5929 17.4295 30.8674 17.2263 30.108C17.2263 30.0826 17.2094 30.0488 17.1981 30.0121L17.6074 29.9048C17.6074 29.9302 17.6074 29.9584 17.6328 29.9838C17.8473 30.7573 18.0421 31.4856 18.1974 32.1602C18.3413 32.7248 18.4796 33.2894 18.5813 33.7947C18.6434 34.077 18.7026 34.379 18.7563 34.6669C18.8946 35.3811 18.9934 36.0022 19.0555 36.5667C19.0753 36.7192 19.0894 36.8716 19.1035 37.0184C19.1525 37.5306 19.1648 38.0457 19.1402 38.5597C19.1226 38.8879 19.0754 39.2138 18.999 39.5335C18.999 39.5335 18.999 39.5872 18.9821 39.6408C18.9426 39.8554 18.9341 39.9005 18.9256 39.9231Z" fill="#E0E0E0"/>
<path d="M17.3389 29.6135L16.998 29.8647L24.2999 39.7724L24.6408 39.5212L17.3389 29.6135Z" fill="#E0E0E0"/>
<path d="M19.6572 29.5436L19.3058 29.7808L24.2553 37.1166L24.6067 36.8795L19.6572 29.5436Z" fill="#E0E0E0"/>
<path d="M21.8134 29.6233L21.4513 29.8428L24.4859 34.8495L24.848 34.6301L21.8134 29.6233Z" fill="#E0E0E0"/>
<path d="M24.0475 29.6324L23.6749 29.8335L25.0318 32.3474L25.4044 32.1462L24.0475 29.6324Z" fill="#E0E0E0"/>
<path d="M17.9761 30.3726L17.6333 30.6211L24.3319 39.8613L24.6747 39.6127L17.9761 30.3726Z" fill="#E0E0E0"/>
<path d="M23.0809 40.1295L18.2001 33.9813L18.5304 33.7188L23.414 39.8641L23.0809 40.1295Z" fill="#E0E0E0"/>
<path d="M21.5763 40.0503L18.6772 36.739L18.9962 36.4624L21.8952 39.7736L21.5763 40.0503Z" fill="#E0E0E0"/>
<path d="M19.0036 38.3455L18.7073 38.6479L20.0664 39.9794L20.3627 39.6769L19.0036 38.3455Z" fill="#E0E0E0"/>
<path d="M25.8815 29.665L18.5524 39.7451L18.8949 39.9941L26.2239 29.914L25.8815 29.665Z" fill="#E0E0E0"/>
<path d="M24.6233 33.9903L20.0389 39.6094L20.367 39.8771L24.9514 34.258L24.6233 33.9903Z" fill="#E0E0E0"/>
<path d="M21.8612 40.0133L21.7003 39.8778L21.5507 39.7282L24.1873 36.7388L24.5063 37.0182L21.8612 40.0133Z" fill="#E0E0E0"/>
<path d="M23.3349 40.149L23.0244 39.8611L23.0639 39.8187L24.162 38.667L24.4668 38.9577L23.3349 40.149Z" fill="#E0E0E0"/>
<path d="M23.6075 29.6121L18.7071 36.9268L19.0589 37.1624L23.9593 29.8477L23.6075 29.6121Z" fill="#E0E0E0"/>
<path d="M21.2142 29.7604L18.1874 34.708L18.5474 34.9282L21.5741 29.9806L21.2142 29.7604Z" fill="#E0E0E0"/>
<path d="M19.1374 29.6351L17.783 32.1504L18.1558 32.3511L19.5102 29.8358L19.1374 29.6351Z" fill="#E0E0E0"/>
<path d="M16.8198 29.7354C16.8212 29.6093 16.872 29.4888 16.9611 29.3997C17.0503 29.3105 17.1708 29.2598 17.2968 29.2583H25.74C25.8663 29.259 25.9872 29.3095 26.0765 29.3988C26.1658 29.4882 26.2163 29.6091 26.2171 29.7354C26.2163 29.8614 26.1657 29.982 26.0763 30.0709C25.9869 30.1597 25.866 30.2096 25.74 30.2096H17.2968C17.1708 30.2096 17.0499 30.1597 16.9605 30.0709C16.8711 29.982 16.8205 29.8614 16.8198 29.7354Z" fill="#E0E0E0"/>
<path d="M16.5178 100.369H22.3893L16.5178 92.7642V100.369Z" fill="#E6E6E6"/>
<path d="M12.9779 100.369H7.10913L12.9779 92.7642V100.369Z" fill="#E6E6E6"/>
<path d="M111.473 100.437V98.9856H92.8337V100.437H90.3608L94.5867 80.3237H109.743L113.968 100.437H111.473Z" fill="#F5F5F5"/>
<path d="M110.112 81.4189H94.2167C93.9292 81.4189 93.6535 81.3047 93.4502 81.1014C93.2469 80.8982 93.1327 80.6224 93.1327 80.335C93.1327 80.0475 93.2469 79.7717 93.4502 79.5685C93.6535 79.3652 93.9292 79.251 94.2167 79.251H110.112C110.4 79.251 110.675 79.3652 110.879 79.5685C111.082 79.7717 111.196 80.0475 111.196 80.335C111.196 80.6224 111.082 80.8982 110.879 81.1014C110.675 81.3047 110.4 81.4189 110.112 81.4189Z" fill="#EBEBEB"/>
<path d="M104.294 87.0649H100.023C99.7359 87.0649 99.4602 86.9507 99.2569 86.7474C99.0537 86.5442 98.9395 86.2684 98.9395 85.9809C98.9395 85.6935 99.0537 85.4177 99.2569 85.2145C99.4602 85.0112 99.7359 84.897 100.023 84.897H104.283C104.571 84.897 104.846 85.0112 105.05 85.2145C105.253 85.4177 105.367 85.6935 105.367 85.9809C105.367 86.2665 105.254 86.5405 105.054 86.7435C104.853 86.9464 104.58 87.062 104.294 87.0649Z" fill="#E0E0E0"/>
<path d="M38.2028 96.7925C38.2141 97.2646 38.1309 97.7342 37.9581 98.1736C37.7853 98.6131 37.5264 99.0135 37.1966 99.3515C36.8668 99.6894 36.4728 99.9581 36.0377 100.142C35.6026 100.325 35.1352 100.42 34.663 100.42C33.7068 100.416 32.7889 100.044 32.1005 99.3802C31.4121 98.7166 31.0064 97.8129 30.9678 96.8574C30.9466 96.3838 31.0208 95.9108 31.186 95.4664C31.3513 95.0221 31.6041 94.6155 31.9296 94.2708C32.2551 93.9261 32.6465 93.6503 33.0807 93.4599C33.5148 93.2695 33.9828 93.1683 34.4569 93.1623C35.4337 93.1517 36.3751 93.5271 37.0766 94.2069C37.778 94.8867 38.1828 95.8159 38.2028 96.7925Z" fill="#E0E0E0"/>
<path d="M34.0927 99.7478C34.2795 99.8864 34.4824 100.002 34.6968 100.092C34.9997 100.221 35.3274 100.282 35.6566 100.27C36.1039 100.145 36.5235 99.9361 36.893 99.6546C37.3005 99.3412 37.6356 98.9435 37.8753 98.4888L37.8161 98.5424C37.7681 98.5847 37.7201 98.6271 37.6693 98.6638C37.3804 98.8796 37.0619 99.0527 36.7236 99.1775C36.0866 99.403 35.4218 99.5407 34.7476 99.5869C34.5265 99.6285 34.3079 99.6822 34.0927 99.7478Z" fill="#F0F0F0"/>
<path d="M33.3758 100.228C33.9045 100.421 34.4712 100.487 35.03 100.42C34.8637 100.387 34.701 100.338 34.5445 100.273C34.2843 100.168 34.0409 100.025 33.8218 99.8496C33.687 99.8878 33.5632 99.9575 33.4605 100.053C33.418 100.103 33.3889 100.163 33.3758 100.228Z" fill="#F0F0F0"/>
<path d="M32.1054 99.4179C32.4263 99.7266 32.8027 99.9718 33.2148 100.141C33.2351 100.063 33.2717 99.991 33.3221 99.9289C33.4197 99.8309 33.5385 99.7565 33.6693 99.7115C33.6156 99.6663 33.562 99.6212 33.5112 99.5704C33.3902 99.4529 33.2762 99.3285 33.1696 99.1978C32.8355 99.3489 32.4721 99.4241 32.1054 99.4179Z" fill="#F0F0F0"/>
<path d="M31.7103 98.9803C31.7752 99.065 31.8458 99.1468 31.9164 99.2259C32.1988 99.2897 32.4939 99.2671 32.7632 99.1609C32.8564 99.1327 32.9524 99.0988 33.0455 99.0621C32.8851 98.8482 32.7408 98.6227 32.6136 98.3875C32.3438 98.4792 32.0487 98.4609 31.7922 98.3367C31.4339 98.1156 31.159 97.782 31.0103 97.3882C31.1095 97.9683 31.3499 98.515 31.7103 98.9803Z" fill="#F0F0F0"/>
<path d="M31.8062 98.1221C32.0207 98.2275 32.268 98.2447 32.495 98.1701C32.4696 98.1221 32.447 98.0741 32.4216 98.0233C32.1041 97.4015 31.9023 96.7272 31.826 96.0332C31.7792 95.5582 31.8262 95.0786 31.9643 94.6217C32.0457 94.3636 32.1615 94.1177 32.3087 93.8906C31.6788 94.3734 31.2287 95.0531 31.03 95.8215C30.9435 96.1307 30.9239 96.4548 30.9726 96.7722C31.0213 97.0895 31.137 97.3929 31.3122 97.662C31.4356 97.8544 31.6055 98.0127 31.8062 98.1221Z" fill="#F0F0F0"/>
<path d="M32.6954 98.0739C33.033 97.8515 33.2879 97.5241 33.4209 97.1424C34.4343 94.3195 35.0751 93.4473 35.4195 93.1904C34.5185 92.9658 33.5655 93.1015 32.7631 93.5686C32.4829 93.8632 32.2768 94.2203 32.1619 94.6103C31.9586 95.2652 31.8796 96.3717 32.6135 97.9017C32.6418 97.9666 32.6672 98.0203 32.6954 98.0739Z" fill="#F0F0F0"/>
<path d="M33.2488 98.9379C33.5298 98.8216 33.8032 98.6878 34.0674 98.5371C34.9991 98.0179 35.84 97.3505 36.5572 96.5611C36.9759 96.1211 37.3107 95.6083 37.5452 95.048C37.5741 94.9653 37.5958 94.8803 37.6101 94.7939C37.5564 94.7149 37.5028 94.6387 37.4435 94.5625C36.9934 93.9751 36.372 93.5421 35.6651 93.3232C35.5946 93.343 35.4449 93.4277 35.2106 93.7467C34.7533 94.3705 34.2114 95.5533 33.6016 97.2583C33.4709 97.6105 33.2523 97.9234 32.9665 98.1673C32.9185 98.2057 32.8664 98.2389 32.8112 98.2661C32.939 98.5013 33.0853 98.7259 33.2488 98.9379Z" fill="#F0F0F0"/>
<path d="M33.3758 99.1018C33.5311 99.2882 33.7031 99.4602 33.8896 99.6155C34.1427 99.5334 34.4011 99.4683 34.663 99.4207C36.3398 99.2796 37.2036 98.7997 37.6355 98.4215C37.7757 98.3009 37.8983 98.1612 37.9996 98.0065C38.1755 97.5193 38.2436 96.9997 38.1993 96.4836C38.1549 95.9675 37.9992 95.4672 37.7428 95.0171C37.7428 95.0453 37.7258 95.0792 37.7145 95.1102C37.4751 95.6995 37.1286 96.2393 36.6926 96.7023C36.3108 97.1319 35.8872 97.5225 35.428 97.8682C35.0279 98.1812 34.6052 98.4642 34.1634 98.715C33.9079 98.8578 33.645 98.9868 33.3758 99.1018Z" fill="#F0F0F0"/>
<path d="M72.241 93.1481C72.7131 93.1361 73.1829 93.2186 73.6227 93.3909C74.0625 93.5633 74.4633 93.8218 74.8016 94.1515C75.1399 94.4811 75.4088 94.8751 75.5925 95.3102C75.7762 95.7453 75.8709 96.2128 75.8712 96.6852C75.8676 97.6421 75.4948 98.5607 74.8307 99.2496C74.1665 99.9386 73.2621 100.345 72.3059 100.383C71.8323 100.404 71.3593 100.329 70.9151 100.164C70.4709 99.9982 70.0645 99.7451 69.72 99.4193C69.3756 99.0936 69.1002 98.7019 68.9101 98.2676C68.72 97.8333 68.6192 97.3653 68.6136 96.8912C68.6037 95.9154 68.9791 94.9751 69.6582 94.2743C70.3373 93.5736 71.2653 93.1689 72.241 93.1481Z" fill="#E0E0E0"/>
<path d="M75.1992 97.264C75.3369 97.0771 75.4516 96.8742 75.5408 96.6599C75.6733 96.3569 75.7341 96.0275 75.7186 95.6973C75.5894 95.2256 75.3649 94.7855 75.059 94.4039C74.7532 94.0223 74.3724 93.7074 73.9402 93.4785L73.9939 93.5378C74.0362 93.5858 74.0757 93.6338 74.1153 93.6874C74.3317 93.9759 74.5048 94.2945 74.629 94.6331C74.8547 95.27 74.9924 95.9348 75.0383 96.6091C75.0787 96.8304 75.1324 97.0491 75.1992 97.264Z" fill="#F0F0F0"/>
<path d="M75.679 97.9809C75.8705 97.4518 75.9363 96.8855 75.871 96.3267C75.8383 96.493 75.7891 96.6556 75.7242 96.8122C75.6182 97.072 75.4756 97.3153 75.3008 97.5348C75.338 97.6693 75.4078 97.7924 75.504 97.8933C75.5542 97.9365 75.6144 97.9666 75.679 97.9809Z" fill="#F0F0F0"/>
<path d="M74.8691 99.2514C75.1778 98.9294 75.423 98.5521 75.5917 98.1392C75.5146 98.1197 75.4424 98.0841 75.38 98.0347C75.2823 97.9368 75.208 97.8181 75.1626 97.6875C75.1175 97.7411 75.0695 97.7919 75.0215 97.8428C74.903 97.9638 74.7777 98.0778 74.6461 98.1843C74.7977 98.5194 74.8738 98.8836 74.8691 99.2514Z" fill="#F0F0F0"/>
<path d="M74.4314 99.6433C74.5161 99.5784 74.5979 99.5106 74.677 99.4372C74.7437 99.1553 74.722 98.8596 74.6149 98.5904C74.5866 98.5001 74.5528 98.4041 74.5161 98.3081C74.3012 98.4694 74.0748 98.6147 73.8386 98.7428C73.8851 98.8757 73.9048 99.0164 73.8966 99.157C73.8884 99.2975 73.8523 99.435 73.7906 99.5615C73.5695 99.9197 73.236 100.195 72.8421 100.343C73.4219 100.246 73.9683 100.006 74.4314 99.6433Z" fill="#F0F0F0"/>
<path d="M73.5732 99.5505C73.6784 99.3349 73.6956 99.0869 73.6212 98.8589L73.4885 98.921C72.8667 99.2385 72.1924 99.4403 71.4984 99.5166C71.0234 99.5662 70.5433 99.5191 70.087 99.3783C69.829 99.2977 69.5831 99.1829 69.3558 99.0367C69.8397 99.6649 70.5191 100.114 71.2867 100.313C71.5959 100.399 71.92 100.419 72.2374 100.37C72.5547 100.321 72.8581 100.206 73.1272 100.03C73.3121 99.9084 73.4651 99.7439 73.5732 99.5505Z" fill="#F0F0F0"/>
<path d="M73.5224 98.6582C73.2984 98.3227 72.9715 98.0691 72.5908 97.9356C69.768 96.9194 68.8957 96.2786 68.6388 95.937C68.4147 96.8367 68.5494 97.7883 69.0143 98.5905C69.3099 98.8708 69.6679 99.0769 70.0587 99.1918C70.7136 99.3978 71.8202 99.474 73.3502 98.7401C73.4179 98.7147 73.4716 98.6865 73.5224 98.6582Z" fill="#F0F0F0"/>
<path d="M74.3891 98.1051C74.2711 97.8257 74.1372 97.5534 73.9882 97.2893C73.4698 96.3562 72.8024 95.5143 72.0122 94.7967C71.5712 94.3786 71.0575 94.0447 70.4964 93.8115C70.4152 93.781 70.3309 93.7592 70.2451 93.7466C70.1661 93.7974 70.0899 93.8538 70.0137 93.9103C69.4253 94.3606 68.992 94.9833 68.7744 95.6915C68.7942 95.7621 68.8789 95.9117 69.1978 96.1432C69.8217 96.6005 71.0045 97.1425 72.7067 97.755C73.0599 97.8838 73.374 98.1016 73.6184 98.3874C73.657 98.4363 73.6901 98.4893 73.7172 98.5454C73.9519 98.4158 74.1765 98.2685 74.3891 98.1051Z" fill="#F0F0F0"/>
<path d="M74.55 97.9782C74.7379 97.8245 74.9109 97.6535 75.0666 97.4673C74.9847 97.2131 74.9196 96.9537 74.8718 96.691C74.7307 95.0114 74.2508 94.1504 73.8754 93.7157C73.7541 93.577 73.6145 93.4554 73.4604 93.3544C72.9734 93.1772 72.4537 93.1084 71.9373 93.1527C71.421 93.1971 70.9206 93.3536 70.471 93.6112L70.5642 93.6395C71.1528 93.8784 71.6918 94.2249 72.1534 94.6613C72.584 95.042 72.9755 95.4647 73.3221 95.9232C73.6348 96.3245 73.9178 96.7481 74.169 97.1906C74.311 97.4456 74.4383 97.7086 74.55 97.9782Z" fill="#F0F0F0"/>
<path d="M43.3068 93.1481C43.7789 93.1361 44.2487 93.2186 44.6885 93.3909C45.1283 93.5633 45.5291 93.8218 45.8674 94.1515C46.2057 94.4811 46.4746 94.8751 46.6583 95.3102C46.842 95.7453 46.9367 96.2128 46.937 96.6852C46.9334 97.6421 46.5606 98.5607 45.8965 99.2496C45.2323 99.9386 44.3279 100.345 43.3717 100.383C42.8981 100.404 42.4251 100.329 41.9809 100.164C41.5367 99.9982 41.1303 99.7451 40.7858 99.4193C40.4414 99.0936 40.166 98.7019 39.9759 98.2676C39.7858 97.8333 39.685 97.3653 39.6794 96.8912C39.6695 95.9154 40.0449 94.9751 40.724 94.2743C41.4031 93.5736 42.3311 93.1689 43.3068 93.1481Z" fill="#E0E0E0"/>
<path d="M46.265 97.264C46.4027 97.0771 46.5174 96.8742 46.6065 96.6599C46.7376 96.3565 46.7984 96.0274 46.7844 95.6973C46.6551 95.2256 46.4306 94.7855 46.1248 94.4039C45.8189 94.0223 45.4382 93.7074 45.006 93.4785L45.0596 93.5378C45.102 93.5858 45.1415 93.6338 45.181 93.6874C45.3974 93.9759 45.5705 94.2945 45.6948 94.6331C45.9208 95.2698 46.0576 95.9348 46.1012 96.6091C46.1441 96.8301 46.1987 97.0487 46.265 97.264Z" fill="#F0F0F0"/>
<path d="M46.7448 97.9809C46.9363 97.4518 47.002 96.8855 46.9367 96.3267C46.904 96.493 46.8548 96.6556 46.7899 96.8122C46.6839 97.072 46.5413 97.3153 46.3665 97.5348C46.4037 97.6693 46.4735 97.7924 46.5698 97.8933C46.62 97.9365 46.6801 97.9666 46.7448 97.9809Z" fill="#F0F0F0"/>
<path d="M45.9346 99.2514C46.2424 98.9287 46.4875 98.5515 46.6573 98.1392C46.5801 98.1197 46.508 98.0841 46.4456 98.0347C46.3479 97.9368 46.2735 97.8181 46.2282 97.6875C46.183 97.7411 46.135 97.7919 46.087 97.8428C45.9686 97.9638 45.8432 98.0778 45.7116 98.1843C45.8632 98.5194 45.9394 98.8836 45.9346 99.2514Z" fill="#F0F0F0"/>
<path d="M45.4971 99.6433C45.5818 99.5784 45.6636 99.5106 45.7427 99.4372H45.7286C45.7953 99.1553 45.7736 98.8596 45.6664 98.5904C45.6382 98.5001 45.6043 98.4041 45.5676 98.3081C45.3528 98.4694 45.1264 98.6147 44.8902 98.7428C44.9367 98.8757 44.9564 99.0164 44.9482 99.157C44.9399 99.2975 44.9039 99.435 44.8422 99.5615C44.6205 99.9203 44.2859 100.195 43.8909 100.343C44.4765 100.248 45.0289 100.008 45.4971 99.6433Z" fill="#F0F0F0"/>
<path d="M44.639 99.5505C44.7442 99.3349 44.7614 99.0869 44.687 98.8589L44.5402 98.9323C43.9226 99.2477 43.2532 99.4495 42.5642 99.5279C42.0892 99.5775 41.6091 99.5304 41.1527 99.3896C40.8948 99.309 40.6489 99.1942 40.4216 99.048C40.9049 99.6768 41.5845 100.126 42.3525 100.324C42.6617 100.41 42.9858 100.43 43.3032 100.381C43.6205 100.333 43.9239 100.217 44.193 100.042C44.3793 99.9165 44.5324 99.748 44.639 99.5505Z" fill="#F0F0F0"/>
<path d="M44.5882 98.6582C44.3638 98.322 44.0357 98.0682 43.6538 97.9356C40.8309 96.9194 39.9615 96.2786 39.7159 95.937C39.4918 96.8367 39.6265 97.7883 40.0914 98.5905C40.387 98.8708 40.7449 99.0769 41.1358 99.1918C41.7907 99.3978 42.8973 99.474 44.4273 98.7401L44.5882 98.6582Z" fill="#F0F0F0"/>
<path d="M45.4546 98.1051C45.3355 97.8263 45.2017 97.554 45.0538 97.2893C44.5354 96.3562 43.8679 95.5143 43.0778 94.7967C42.6368 94.3786 42.123 94.0447 41.5619 93.8115C41.4807 93.781 41.3965 93.7592 41.3107 93.7466C41.2316 93.7974 41.1554 93.8538 41.0792 93.9103C40.4908 94.3606 40.0576 94.9833 39.84 95.6915C39.8597 95.7621 39.9444 95.9117 40.2634 96.1432C40.8872 96.6005 42.07 97.1425 43.7722 97.755C44.1255 97.8838 44.4395 98.1016 44.684 98.3874C44.7216 98.437 44.7546 98.4899 44.7828 98.5454C45.0175 98.4158 45.2421 98.2685 45.4546 98.1051Z" fill="#F0F0F0"/>
<path d="M45.6158 97.9782C45.8037 97.8245 45.9766 97.6535 46.1324 97.4673C46.0504 97.2131 45.9854 96.9537 45.9376 96.691C45.7964 95.0114 45.3165 94.1504 44.9411 93.7157C44.8198 93.577 44.6802 93.4554 44.5261 93.3544C44.0392 93.1772 43.5194 93.1084 43.0031 93.1527C42.4868 93.1971 41.9864 93.3536 41.5367 93.6112L41.6299 93.6395C42.2185 93.8784 42.7575 94.2249 43.2192 94.6613C43.6497 95.042 44.0412 95.4647 44.3878 95.9232C44.7005 96.3245 44.9836 96.7481 45.2347 97.1906C45.3768 97.4456 45.504 97.7086 45.6158 97.9782Z" fill="#F0F0F0"/>
<path d="M59.4251 112.106C89.6529 112.106 114.157 110.676 114.157 108.911C114.157 107.146 89.6529 105.715 59.4251 105.715C29.1972 105.715 4.69269 107.146 4.69269 108.911C4.69269 110.676 29.1972 112.106 59.4251 112.106Z" fill="#F5F5F5"/>
<path d="M92.3708 33.7724L92.6362 33.8175C92.893 33.8627 92.9749 33.7329 93.1076 33.5042C93.3447 33.0554 93.1076 32.5981 93.1076 32.0928L91.2897 32.2254L91.9022 33.4336C91.9487 33.5226 92.0152 33.5995 92.0965 33.6583C92.1779 33.7171 92.2718 33.7562 92.3708 33.7724Z" fill="#D8C0BE"/>
<path d="M91.2725 32.2198L93.096 32.0899L92.5004 30.3962C92.4727 30.3163 92.4284 30.2432 92.3703 30.1818C92.3121 30.1204 92.2416 30.0721 92.1634 30.04C92.0851 30.008 92.001 29.993 91.9165 29.996C91.832 29.999 91.7491 30.0199 91.6733 30.0575L91.5886 30.097C91.4912 30.1487 91.41 30.2266 91.3542 30.3218C91.2983 30.417 91.2701 30.5258 91.2725 30.6361V32.2198Z" fill="#D8C0BE"/>
<path d="M93.2147 33.1484L91.9021 33.4307L90.4455 39.8555C90.3891 40.0826 90.3891 40.3201 90.4455 40.5471L92.7348 49.298C92.7348 49.298 95.7412 49.4758 94.8435 46.0066C93.9459 42.5373 93.0849 40.1265 93.0849 40.1265L93.2147 33.1484Z" fill="#D8C0BE"/>
<path d="M93.2147 33.1484L91.9021 33.4307L90.4455 39.8555C90.3891 40.0826 90.3891 40.3201 90.4455 40.5471L92.7348 49.298C92.7348 49.298 95.7412 49.4758 94.8435 46.0066C93.9459 42.5373 93.0849 40.1265 93.0849 40.1265L93.2147 33.1484Z" fill="#D8C0BE"/>
<path opacity="0.1" d="M93.2147 33.1484L91.9021 33.4307L90.4455 39.8555C90.3891 40.0826 90.3891 40.3201 90.4455 40.5471L92.7348 49.298C92.7348 49.298 95.7412 49.4758 94.8435 46.0066C93.9459 42.5373 93.0849 40.1265 93.0849 40.1265L93.2147 33.1484Z" fill="black"/>
<path d="M91.9669 30.2915C91.982 30.8814 91.8788 31.4684 91.6634 32.0179C91.448 32.5673 91.1248 33.068 90.7128 33.4906C90.3008 33.9131 89.8084 34.2488 89.2645 34.478C88.7207 34.7072 88.1365 34.8252 87.5463 34.825C86.3506 34.8209 85.2025 34.3553 84.3416 33.5254C83.4807 32.6955 82.9733 31.5653 82.9253 30.3705C82.8996 29.7786 82.993 29.1876 83.2 28.6325C83.407 28.0774 83.7234 27.5696 84.1305 27.1391C84.5375 26.7086 85.0269 26.3643 85.5695 26.1266C86.1122 25.8888 86.6971 25.7625 87.2895 25.7551C88.5096 25.7422 89.6855 26.2116 90.5614 27.0611C91.4373 27.9106 91.9424 29.0715 91.9669 30.2915Z" fill="#263238"/>
<path d="M86.8267 33.9952C87.059 34.1699 87.3122 34.315 87.5804 34.4271C87.9591 34.5881 88.3688 34.6633 88.7801 34.6473C89.3699 34.4854 89.9203 34.2046 90.3975 33.822C90.8748 33.4395 91.2686 32.9633 91.5549 32.4229L91.4787 32.4934C91.4223 32.5442 91.3602 32.595 91.2952 32.6459C90.9337 32.9143 90.5353 33.1291 90.1125 33.2838C89.3204 33.5668 88.493 33.7388 87.6538 33.7948C87.3746 33.8465 87.0985 33.9134 86.8267 33.9952Z" fill="#FFD000"/>
<path d="M85.929 34.5852C86.5903 34.8265 87.2991 34.9087 87.9981 34.8251C87.7897 34.784 87.5856 34.7235 87.3884 34.6445C87.065 34.5084 86.7613 34.33 86.4851 34.1138C86.3183 34.1623 86.1648 34.2483 86.0362 34.365C85.9848 34.4297 85.9482 34.5048 85.929 34.5852Z" fill="#FFD000"/>
<path d="M84.3427 33.5745C84.7437 33.9595 85.214 34.265 85.7287 34.475C85.7554 34.3792 85.8015 34.2898 85.8642 34.2125C85.9835 34.0853 86.1316 33.9885 86.2961 33.9302C86.2311 33.8738 86.1634 33.8145 86.1013 33.7524C85.9492 33.6066 85.8068 33.451 85.675 33.2866C85.2565 33.4764 84.8022 33.5746 84.3427 33.5745Z" fill="#FFD000"/>
<path d="M83.8485 33.0271C83.9297 33.1331 84.0164 33.2348 84.1082 33.3319V33.3178C84.459 33.3989 84.8263 33.3713 85.1611 33.2388C85.274 33.2021 85.3954 33.1626 85.5196 33.1146C85.3188 32.8457 85.1377 32.5626 84.9776 32.2677C84.6413 32.3835 84.2728 32.3611 83.9529 32.2056C83.5065 31.9278 83.1634 31.5114 82.9762 31.02C83.0956 31.7511 83.3954 32.4409 83.8485 33.0271Z" fill="#FFD000"/>
<path d="M83.967 31.9546C84.1 32.0208 84.2448 32.0601 84.393 32.0703C84.5413 32.0805 84.69 32.0613 84.8308 32.0139L84.7377 31.8304C84.3419 31.0529 84.0895 30.2105 83.9924 29.3434C83.9333 28.7486 83.9928 28.148 84.1675 27.5763C84.2679 27.2541 84.4123 26.9473 84.5965 26.6646C83.8095 27.267 83.247 28.1157 82.9988 29.0753C82.8919 29.4624 82.8688 29.8678 82.9312 30.2646C82.9935 30.6613 83.1397 31.0402 83.3601 31.3759C83.5115 31.616 83.72 31.8148 83.967 31.9546Z" fill="#FFD000"/>
<path d="M85.0793 31.8922C85.483 31.6975 85.8499 31.1018 85.9854 30.7264C87.2529 27.1922 88.0546 26.1082 88.4837 25.8005C87.3578 25.522 86.1678 25.691 85.164 26.2719C84.8147 26.6417 84.5575 27.0884 84.4131 27.5761C84.1562 28.3976 84.0461 29.7751 84.9777 31.689L85.0793 31.8922Z" fill="#FFD000"/>
<path d="M85.7709 32.9736C86.1208 32.8268 86.462 32.6599 86.7928 32.474C87.9557 31.8256 89.0046 30.9912 89.898 30.004C90.4216 29.4534 90.8397 28.8114 91.1316 28.1098C91.1686 28.0084 91.195 27.9034 91.2106 27.7965C91.1485 27.6977 91.0779 27.5989 91.0073 27.5142C90.4437 26.7796 89.6653 26.2389 88.7801 25.9673C88.6926 25.9927 88.4978 26.0943 88.2155 26.4952C87.651 27.2771 86.9678 28.7534 86.2028 30.8819C86.0388 31.3189 85.7669 31.7073 85.4124 32.011C85.3503 32.058 85.2842 32.0996 85.2148 32.1352C85.3787 32.4284 85.5646 32.7086 85.7709 32.9736Z" fill="#FFD000"/>
<path d="M85.9316 33.1768C86.1242 33.4112 86.3388 33.6267 86.5724 33.8204C86.8893 33.7175 87.2128 33.6364 87.5407 33.5776C89.6381 33.4026 90.7192 32.8013 91.2556 32.3299C91.4299 32.1793 91.5828 32.0055 91.71 31.8133C91.933 31.2036 92.0205 30.5527 91.9664 29.9058C91.9123 29.2589 91.7179 28.6315 91.3967 28.0674C91.3967 28.105 91.3854 28.1445 91.3628 28.1859C91.0622 28.9179 90.6287 29.5879 90.0841 30.1619C89.6066 30.6984 89.0782 31.1872 88.5061 31.6214C88.0044 32.0085 87.4751 32.3585 86.9225 32.6686C86.6022 32.8568 86.2714 33.0265 85.9316 33.1768Z" fill="#FFD000"/>
<path d="M86.1379 38.8364C86.0334 38.8138 85.9205 38.9239 85.8867 39.0848C85.8528 39.2457 85.9092 39.3954 86.0137 39.4151C86.1181 39.4349 86.231 39.3248 86.2649 39.1639C86.2988 39.003 86.2452 38.8562 86.1379 38.8364Z" fill="#263238"/>
<path d="M85.8104 40.9535C85.6728 40.9594 85.5355 40.9352 85.4083 40.8825C85.281 40.8298 85.1668 40.75 85.0736 40.6486C85.4796 40.2958 85.8358 39.8893 86.1322 39.4404L85.8104 40.9535Z" fill="#DAA79F"/>
<path d="M86.9734 38.382C86.8974 38.2873 86.7997 38.2123 86.6887 38.1632C86.5777 38.1141 86.4566 38.0923 86.3354 38.0997H86.3016C86.2754 38.0997 86.2502 38.0893 86.2317 38.0707C86.2132 38.0522 86.2028 38.0271 86.2028 38.0009C86.2028 37.9747 86.2132 37.9495 86.2317 37.931C86.2502 37.9125 86.2754 37.9021 86.3016 37.9021C86.4529 37.8879 86.6055 37.9103 86.7465 37.9673C86.8874 38.0242 87.0127 38.1142 87.1117 38.2295C87.1259 38.2474 87.1347 38.2689 87.1371 38.2916C87.1371 38.3178 87.1267 38.343 87.1082 38.3615C87.0897 38.38 87.0645 38.3904 87.0383 38.3904C87.0164 38.3961 86.9931 38.3931 86.9734 38.382Z" fill="#263238"/>
<path d="M88.0348 48.1518C90.7928 48.18 91.2162 46.6783 91.2162 46.6783C90.3976 45.8766 90.3552 44.4059 90.5302 43.0933C90.3081 43.4041 90.0294 43.6703 89.7088 43.878C89.4166 44.0766 89.0859 44.2114 88.7381 44.2737C88.3904 44.3359 88.0334 44.3242 87.6904 44.2393C87.6793 44.2418 87.6677 44.2418 87.6566 44.2393C87.6626 44.2654 87.6674 44.2918 87.6707 44.3184C87.8344 45.3713 87.6904 46.4948 86.5867 46.8251C86.5867 46.8138 84.9974 48.1095 88.0348 48.1518Z" fill="#D8C0BE"/>
<path d="M87.5803 43.8385C87.6086 43.9655 87.6396 44.0925 87.6565 44.228C87.6677 44.2305 87.6793 44.2305 87.6904 44.228C88.0333 44.3129 88.3903 44.3246 88.7381 44.2624C89.0858 44.2001 89.4166 44.0653 89.7088 43.8667C90.0294 43.659 90.3081 43.3928 90.5302 43.0819C90.5726 42.7489 90.6347 42.4242 90.6939 42.125L87.6904 43.7679L87.5803 43.8385Z" fill="#D8C0BE"/>
<path d="M85.0623 46.6418C85.5083 46.5684 86.008 46.5006 86.5189 46.4583C88.0561 46.3849 89.5963 46.4019 91.1315 46.5091C91.8626 46.5628 92.78 46.5769 93.6551 46.6305C93.8714 46.6433 94.083 46.6992 94.2775 46.7948C94.472 46.8905 94.6454 47.024 94.7876 47.1875C94.9299 47.351 95.038 47.5413 95.1058 47.7471C95.1735 47.953 95.1995 48.1703 95.1823 48.3863C94.2592 58.3708 94.9706 63.8528 95.1399 65.3235L84.478 65.0948C83.3488 56.1605 82.2705 51.1019 82.7081 48.9142C82.8238 48.3414 83.111 47.8173 83.5315 47.4115C83.9519 47.0057 84.4858 46.7372 85.0623 46.6418Z" fill="#E4E0D0"/>
<path d="M85.6043 41.5887C85.6134 42.0631 85.7427 42.5274 85.9802 42.9382C86.2177 43.3489 86.5555 43.6927 86.9621 43.9373C87.1731 44.0657 87.4025 44.1609 87.6424 44.2196C87.6536 44.222 87.6652 44.222 87.6763 44.2196C88.0192 44.3045 88.3762 44.3162 88.724 44.2539C89.0717 44.1917 89.4025 44.0568 89.6947 43.8582C90.0153 43.6505 90.294 43.3843 90.5161 43.0735C91.0581 42.3311 91.2811 41.3431 91.6678 39.9514C91.7889 39.5429 91.8121 39.1116 91.7356 38.6924C91.6713 38.3367 91.5376 37.9972 91.342 37.6931C91.1465 37.3891 90.893 37.1266 90.596 36.9206C90.299 36.7145 89.9643 36.569 89.6111 36.4923C89.2579 36.4157 88.893 36.4093 88.5373 36.4736C86.4568 36.866 85.562 39.7256 85.6043 41.5887Z" fill="#D8C0BE"/>
<path opacity="0.2" d="M86.9762 43.9403C87.1871 44.0687 87.4166 44.1639 87.6565 44.2226L87.5803 42.9946C87.5803 42.9946 87.123 43.9431 86.9762 43.9403Z" fill="black"/>
<path d="M86.8097 40.5247C86.849 40.9554 86.9793 41.3729 87.192 41.7495C87.4046 42.1261 87.6948 42.4534 88.0433 42.7096C88.128 42.7741 88.2236 42.8228 88.3256 42.8535C88.6784 42.9297 89.0059 42.6305 89.1724 42.3059C89.3567 41.8753 89.448 41.4107 89.4406 40.9425C89.4801 39.8444 89.3418 38.639 88.5683 37.8571C88.3991 37.6572 88.1596 37.5298 87.8993 37.5014C86.9198 37.4647 86.756 39.8952 86.8097 40.5247Z" fill="#263238"/>
<path d="M86.7561 36.6037C87.0668 36.2927 87.4576 36.0738 87.8852 35.9714C88.4741 35.7721 89.0878 35.6553 89.7088 35.6242C90.3367 35.5961 90.9535 35.7967 91.4448 36.1888C91.967 36.6376 92.2155 37.3179 92.4441 37.9672L92.8591 39.1386C92.9615 39.37 93.0061 39.6229 92.9889 39.8754C92.942 40.0784 92.8557 40.2702 92.7349 40.44L91.5888 42.2918C91.4082 42.5486 91.2745 42.8353 91.1936 43.1386C91.1555 43.2911 91.1576 43.4508 91.1997 43.6022C91.2417 43.7536 91.3223 43.8915 91.4335 44.0024C91.2401 43.9774 91.0539 43.9126 90.8868 43.812C90.7196 43.7114 90.5752 43.5773 90.4625 43.4181C90.447 43.5996 90.4787 43.7819 90.5543 43.9476C90.63 44.1133 90.7471 44.2566 90.8944 44.3637C90.448 44.1999 90.0521 43.9226 89.7455 43.5592C89.8089 43.7583 89.9285 43.9347 90.0898 44.0673C89.4745 44.1605 88.9607 43.6072 88.6191 43.0935C88.1872 42.4583 87.7723 41.6623 88.0884 40.9594C88.1901 40.7279 88.3707 40.5303 88.4611 40.2988C88.5498 40.0397 88.5705 39.7621 88.5211 39.4927C88.4716 39.2233 88.3538 38.9711 88.1788 38.7604C87.8233 38.3429 87.3971 37.9913 86.9198 37.7216C86.9198 37.7216 86.3016 37.1147 86.7561 36.6037Z" fill="#263238"/>
<path d="M87.3206 39.0764C86.7391 39.2457 86.4371 40.1011 86.4145 40.6431C86.3863 41.2443 86.7843 41.6226 87.3093 41.2076C87.7036 40.8999 87.9846 40.47 88.1082 39.9853C88.2409 39.401 87.8852 38.8985 87.3206 39.0764Z" fill="#D8C0BE"/>
<path d="M82.9904 49.758C81.9488 49.8794 78.138 41.6 78.1351 40.9253C78.1351 39.5534 82.1408 35.4236 83.0638 34.413C83.2727 34.1843 83.9672 34.0855 84.4103 35.0227C83.2191 37.2104 81.3504 40.6148 81.4887 41.1766C81.7427 42.2182 85.0963 46.8223 85.2036 47.9514C85.2516 48.4426 85.212 49.504 82.9904 49.758Z" fill="#D8C0BE"/>
<path d="M83.0356 34.6503C83.0214 34.7632 83.9671 33.1824 84.0348 33.0921C84.0926 33.0239 84.1637 32.9682 84.2437 32.9284C84.8422 32.5812 85.1781 32.0392 85.8669 31.9968C85.9169 31.9869 85.9689 31.9949 86.0137 32.0194C86.0504 32.0448 86.9085 32.3215 87.0835 32.6602C87.129 32.7324 87.1552 32.815 87.1598 32.9002C87.1525 32.9843 87.1233 33.0651 87.0751 33.1344L86.4428 34.2636C86.3355 34.4555 85.3362 34.6757 85.0454 34.8479C84.0066 35.4605 83.0468 34.5374 83.0356 34.6503Z" fill="#D8C0BE"/>
<path d="M95.1907 65.1992C95.3895 65.3851 95.5649 65.5946 95.7129 65.8231C96.5048 66.969 97.0031 68.2919 97.164 69.6755C97.325 71.0591 97.1436 72.461 96.636 73.7581L95.9246 75.6014L93.384 90.6303C94.9592 92.6063 98.1095 103.734 98.1095 103.734H95.4871L88.9945 93.4504C88.1928 91.8824 87.8318 90.1263 87.95 88.3692L89.5111 65.202L95.1907 65.1992Z" fill="#D8C0BE"/>
<path opacity="0.8" d="M98.2421 104.002C98.2421 104.002 96.4411 98.2493 96.3141 97.8541C96.1871 97.4589 91.9274 97.4984 92.0798 98.3481L95.71 104.11L98.2421 104.002Z" fill="white"/>
<path d="M98.1095 102.901L99.5859 107.59C99.6226 107.982 99.2753 108.7 98.7757 108.7H95.6706C95.2076 108.7 94.8237 108.417 94.8068 108.05C95.823 106.769 95.3233 104.855 94.8604 103.074C94.8491 103.074 97.5139 101.704 98.1095 102.901Z" fill="#263238"/>
<path opacity="0.1" d="M95.1907 65.1992C95.3895 65.3851 95.5649 65.5946 95.7129 65.8231C96.5048 66.969 97.0031 68.2919 97.164 69.6755C97.325 71.0591 97.1436 72.461 96.636 73.7581L95.9246 75.6014L93.384 90.6303C94.9592 92.6063 98.1095 103.734 98.1095 103.734H95.4645L88.9973 93.4504C88.1956 91.8824 87.8347 90.1263 87.9528 88.3692L89.5139 65.202L95.1907 65.1992Z" fill="black"/>
<path d="M96.0093 106.325C94.3156 107.488 94.3692 107.647 93.1864 107.785C92.8759 107.858 93.0001 108.68 93.7256 108.685C94.9253 108.702 94.8237 108.654 95.8484 108.663C96.7206 108.663 97.9853 108.716 98.6712 108.733H98.6938C98.7744 108.721 98.847 108.678 98.8961 108.613C98.9452 108.548 98.9668 108.467 98.9563 108.386L98.7729 106.325C98.7708 106.29 98.7555 106.256 98.7299 106.231C98.7043 106.206 98.6703 106.191 98.6345 106.19H96.4412C96.2871 106.192 96.1369 106.239 96.0093 106.325Z" fill="#263238"/>
<path d="M89.6015 65.0469C89.7314 65.14 89.3193 64.7646 90.2 66.0716C92.1506 68.9368 89.9177 75.3249 89.9177 75.3249L88.3849 90.0546L88.2946 89.6537C90.008 91.514 89.5366 103.596 89.5366 103.596L87.0102 103.717L84.3877 92.4455C83.4731 90.9353 83.8711 90.303 83.8598 88.5528L84.4978 65.3009L89.6015 65.0469Z" fill="#D8C0BE"/>
<path opacity="0.8" d="M85.7428 98.3225L86.999 103.72L89.5254 103.598C89.6446 101.719 89.6616 99.8342 89.5762 97.9528C88.9515 97.7175 88.2811 97.6285 87.6166 97.6926C86.9521 97.7567 86.3111 97.9722 85.7428 98.3225Z" fill="white"/>
<path d="M86.7562 106.622L88.4866 106.577C88.5152 106.579 88.5421 106.591 88.5627 106.611C88.5833 106.632 88.5963 106.658 88.5995 106.687L88.7971 108.414C88.8081 108.48 88.7935 108.548 88.7563 108.604C88.719 108.659 88.6619 108.699 88.5966 108.714H88.5797C88.0321 108.714 87.0328 108.714 86.344 108.714C85.5367 108.731 85.6185 108.767 84.6729 108.781C84.1083 108.795 83.9813 108.107 84.224 108.039C85.1556 107.895 85.1161 107.757 86.4146 106.746C86.5129 106.67 86.6322 106.627 86.7562 106.622Z" fill="#263238"/>
<path d="M89.5535 102.853C89.6496 102.883 89.7323 102.945 89.787 103.029C89.8418 103.113 89.865 103.214 89.8527 103.314L90.2733 108.033C90.31 108.426 89.9148 108.762 89.4265 108.762L87.4505 108.722C87.2513 108.742 87.0521 108.686 86.8921 108.566C86.7322 108.445 86.6232 108.27 86.5867 108.073C87.092 107 86.375 104.265 86.4512 103.421C86.4582 103.343 86.4867 103.268 86.5335 103.205C86.5804 103.143 86.6437 103.094 86.7165 103.065C87.6172 102.701 88.6088 102.627 89.5535 102.853Z" fill="#263238"/>
<path d="M88.4131 81.5379L89.5141 65.1992H95.1908C95.3897 65.3851 95.565 65.5946 95.7131 65.8231C97.3334 68.1576 98.0645 71.1216 97.0455 73.7581L96.3341 75.6014L96.3059 82.3029L95.459 82.4553C93.0683 82.8846 90.6033 82.5642 88.4019 81.5379H88.4131Z" fill="#E4E0D0"/>
<g opacity="0.1">
<path d="M88.4131 81.5379L89.5141 65.1992H95.1908C95.3897 65.3851 95.565 65.5946 95.7131 65.8231C97.3334 68.1576 98.0645 71.1216 97.0455 73.7581L96.3341 75.6014L96.3059 82.3029L95.459 82.4553C93.0683 82.8846 90.6033 82.5642 88.4019 81.5379H88.4131Z" fill="black"/>
</g>
<path opacity="0.6" d="M88.4187 81.5209C90.6208 82.5454 93.086 82.8629 95.4758 82.4299L96.3227 82.2831V80.7192C95.6887 80.8559 95.0398 80.911 94.3919 80.883C93.3022 80.883 91.9698 80.9281 90.8802 80.9225C90.1433 81.3765 89.2818 81.586 88.4187 81.5209Z" fill="white"/>
<path d="M90.4511 82.4074L90.7786 77.6621C90.9084 75.8047 92.3791 73.4504 92.365 71.0566C92.3481 68.0701 90.8237 65.1992 90.8237 65.1992H84.1759C83.8743 65.5634 83.6288 65.9706 83.4476 66.4074C82.2733 70.0037 83.0326 75.6014 83.0326 75.6014L83.0609 82.3029L84.2465 82.3989C86.2422 82.557 87.7468 83.2147 89.6663 82.6416L90.4511 82.4074Z" fill="#E4E0D0"/>
<path opacity="0.6" d="M83.0554 80.9169V82.3058L84.2438 82.3989C86.2368 82.557 87.7414 83.2147 89.6609 82.6417L90.4457 82.4102L90.5332 81.1371C89.3363 81.7412 87.8515 81.5634 86.5106 81.2924C85.3786 81.0609 84.1846 80.7786 83.0554 80.9169Z" fill="white"/>
<path opacity="0.6" d="M82.8266 53.0525C83.1031 53.3015 83.4379 53.4768 83.8 53.5622C84.1622 53.6475 84.54 53.6402 84.8986 53.5409C85.616 53.2843 86.2211 52.7851 86.6092 52.1295C87.2376 51.2103 87.5696 50.1208 87.5605 49.0074C87.5411 48.0844 87.2221 47.1927 86.6516 46.4668H86.5189C86.008 46.5091 85.5083 46.5769 85.0623 46.6503C84.4875 46.7444 83.9548 47.0107 83.5345 47.4138C83.1142 47.817 82.826 48.3382 82.7081 48.9086C82.5217 49.8034 82.6036 51.1584 82.8266 53.0525Z" fill="white"/>
<path d="M85.2571 46.6982C85.6868 47.043 86.0082 47.5043 86.1829 48.0269C86.3576 48.5494 86.3782 49.1112 86.2423 49.6452C86.0221 50.4497 85.3954 51.8414 84.6135 52.5217C84.5244 52.5999 84.4189 52.6573 84.3048 52.6895C84.1907 52.7217 84.0708 52.7281 83.9539 52.7081C83.837 52.688 83.7261 52.6422 83.6292 52.5738C83.5324 52.5054 83.452 52.4162 83.394 52.3128C82.9775 51.4415 82.643 50.5333 82.3947 49.6C82.2679 49.207 82.2361 48.7894 82.3019 48.3817C82.3676 47.9739 82.5291 47.5876 82.773 47.2543C83.028 46.9295 83.3783 46.6928 83.7747 46.5773C84.1711 46.4619 84.5938 46.4735 84.9833 46.6106" fill="#D8C0BE"/>
<path d="M84.1139 65.2388L95.188 65.0948V63.7935L84.1139 63.9374V65.2388Z" fill="#E4E0D0"/>
<g opacity="0.6">
<path d="M84.6106 53.5314L84.3883 53.5488L85.2055 63.9784L85.4278 63.961L84.6106 53.5314Z" fill="white"/>
</g>
<path opacity="0.6" d="M84.1139 65.2388L95.188 65.0948V63.7935L84.1139 63.9374V65.2388Z" fill="white"/>
<path d="M57.963 49.1229C58.2932 48.9797 58.5743 48.7431 58.7718 48.4422C58.9693 48.1412 59.0745 47.7891 59.0745 47.4292C59.0745 47.0693 58.9693 46.7172 58.7718 46.4163C58.5743 46.1153 58.2932 45.8787 57.963 45.7355L57.8642 45.6931C57.1832 45.4332 56.4549 45.3206 55.7273 45.3629C55.0074 45.3629 54.2791 45.3629 53.5847 45.3346C52.8903 45.3064 52.1733 45.2923 51.5014 45.2415C50.8663 45.2048 51.3659 45.2415 50.7449 45.0919L50.553 45.0354L50.3836 44.979C50.3836 44.979 45.8416 41.9783 44.625 41.1371C44.5393 41.064 44.4402 41.0086 44.3331 40.9739C44.226 40.9392 44.1132 40.9259 44.001 40.9348C43.7744 40.9528 43.5643 41.0601 43.4168 41.233C43.3437 41.3187 43.2883 41.4178 43.2536 41.5249C43.2189 41.632 43.2056 41.7448 43.2145 41.857C43.2325 42.0836 43.3398 42.2937 43.5128 42.4412C44.5741 43.5337 46.7929 46.2323 47.4111 46.7235L48.4076 47.4461C48.5854 47.5675 48.7661 47.6861 48.9552 47.8075L49.2911 47.9966C49.7847 48.3701 50.3439 48.6477 50.9397 48.8152C51.7161 49.0013 52.502 49.1455 53.294 49.2471C54.0674 49.3487 54.8465 49.4165 55.6228 49.456C56.0111 49.4838 56.4011 49.4791 56.7887 49.4419C57.1946 49.4028 57.5924 49.3029 57.9686 49.1455L57.963 49.1229Z" fill="#FBE5C5"/>
<path d="M44.2269 42.644C43.3405 43.0618 42.3074 41.5629 42.3074 41.5629L41.6101 40.8487C41.4899 40.7301 41.4172 40.5717 41.4058 40.4032C41.3943 40.2347 41.4449 40.0678 41.548 39.9341L42.0533 39.2594L42.0702 39.2397C42.1256 39.1686 42.1946 39.1092 42.273 39.0649C42.3515 39.0206 42.438 38.9922 42.5274 38.9814C42.6169 38.9707 42.7076 38.9777 42.7944 39.0022C42.8811 39.0267 42.9622 39.068 43.0328 39.1239L43.6482 39.601C43.8984 39.7934 44.1036 40.0381 44.2495 40.318L44.9552 41.6589L44.2269 42.644Z" fill="#FBE5C5"/>
<path d="M56.7999 44.835C56.114 44.3833 55.3123 44.8011 54.8239 45.456C54.4583 46.1348 54.28 46.8987 54.3074 47.6692C54.3427 48.6229 54.646 49.5474 55.1824 50.3368C55.0752 50.2069 55.1175 49.6339 55.1175 49.6339C54.9952 48.7905 55.0766 47.93 55.3551 47.1246C55.6336 46.3191 56.1009 45.5921 56.7181 45.0044C56.656 44.9479 56.8733 44.883 56.7999 44.835Z" fill="#FFD000"/>
<path opacity="0.6" d="M56.7999 44.835C56.114 44.3833 55.3123 44.8011 54.8239 45.456C54.4583 46.1348 54.28 46.8987 54.3074 47.6692C54.3427 48.6229 54.646 49.5474 55.1824 50.3368C55.0752 50.2069 55.1175 49.6339 55.1175 49.6339C54.9952 48.7905 55.0766 47.93 55.3551 47.1246C55.6336 46.3191 56.1009 45.5921 56.7181 45.0044C56.656 44.9479 56.8733 44.883 56.7999 44.835Z" fill="white"/>
<path d="M68.6193 47.2032C68.1422 52.688 66.3215 55.7762 66.5671 60.1601C66.5671 60.1601 56.5883 59.9907 56.2495 59.9907C56.1055 51.9145 54.8155 52.9166 55.1684 47.8044C55.1063 46.1107 56.3483 44.9533 57.3137 44.7868L61.4718 44.0303L66.8973 44.9646C67.413 45.0533 67.8765 45.3328 68.1955 45.7476C68.5146 46.1623 68.6658 46.682 68.6193 47.2032Z" fill="#FFD000"/>
<path d="M60.3736 41.3967C60.6107 42.5259 60.9918 44.1067 59.3687 44.3692C58.8944 44.962 58.6968 46.1194 60.2155 46.8844C62.1689 46.4186 64.5486 45.5435 64.7773 44.6007C63.1456 44.3184 63.7469 40.931 63.8513 39.5195L60.3736 41.3967Z" fill="#FBE5C5"/>
<path opacity="0.2" d="M63.1598 41.1172C63.0016 41.5037 62.775 41.8585 62.4908 42.1645C62.0899 42.6246 61.3278 42.8278 60.5938 42.8278C60.5707 42.3409 60.4979 41.8575 60.3765 41.3854L60.5317 41.3063L63.1598 41.1172Z" fill="black"/>
<path opacity="0.2" d="M68.5121 48.2276C68.3201 49.7463 68.0181 51.2537 67.6878 52.7442C66.9652 51.7505 66.5535 50.5647 66.505 49.337C66.4401 48.1373 67.1401 47.011 67.5495 46.8359L68.5121 48.2276Z" fill="black"/>
<path d="M58.6884 39.9907C58.9707 41.9667 61.2741 43.1269 62.8973 41.7832C63.8345 41.0126 64.0264 40.0472 64.2551 38.5398C64.2918 38.3111 64.3285 38.0712 64.3708 37.8171C64.4361 37.4199 64.4129 37.0132 64.303 36.6259C64.2584 36.4646 64.1969 36.3085 64.1196 36.1601C63.8402 35.5979 63.3724 35.1516 62.7978 34.8988C62.2232 34.6461 61.5781 34.6029 60.9749 34.7769C58.9904 35.3443 58.4428 38.201 58.6884 39.9907Z" fill="#FBE5C5"/>
<path d="M64.6333 38.4946C64.0123 38.3506 63.4364 39.0338 63.236 39.5504C63.0074 40.1149 63.2812 40.7134 63.922 40.5976C64.1605 40.5526 64.3877 40.4605 64.5903 40.3267C64.7929 40.1929 64.9668 40.0202 65.1019 39.8185C65.1845 39.7071 65.2384 39.5771 65.2589 39.4399C65.2794 39.3028 65.266 39.1627 65.2197 39.0319C65.1734 38.9012 65.0958 38.7838 64.9935 38.6902C64.8913 38.5965 64.7676 38.5293 64.6333 38.4946Z" fill="#FBE5C5"/>
<path d="M59.6341 106.957L57.3589 106.87C57.3589 106.87 58.0872 90.6722 57.3222 82.6355C56.7576 76.6567 56.9214 62.2827 56.9214 62.2827L64.5826 62.7259C64.5826 62.7259 62.1662 72.1486 61.8557 82.0625C62.8691 91.2593 59.6341 106.957 59.6341 106.957Z" fill="#FBE5C5"/>
<path d="M56.8649 106.752C55.4111 107.497 55.2502 107.508 53.661 107.759C53.3109 107.813 53.4097 108.64 54.2255 108.682C55.5607 108.764 55.4478 108.713 56.5911 108.776C57.5621 108.829 58.9679 108.945 59.7414 109.001H59.7696C59.8119 109 59.8534 108.99 59.8919 108.973C59.9304 108.955 59.9651 108.93 59.9939 108.899C60.0228 108.868 60.0452 108.832 60.06 108.792C60.0748 108.753 60.0816 108.711 60.0801 108.668L59.9616 106.904C59.9589 106.866 59.9425 106.831 59.9154 106.804C59.8884 106.778 59.8526 106.762 59.8148 106.76L57.3702 106.633C57.1942 106.627 57.0197 106.668 56.8649 106.752Z" fill="#263238"/>
<path d="M57.0003 106.785C57.0087 106.784 57.0164 106.779 57.0224 106.773C57.0285 106.767 57.0326 106.76 57.0341 106.751C57.0351 106.741 57.0332 106.731 57.0287 106.722C57.0242 106.713 57.0173 106.706 57.0087 106.7C56.924 106.65 56.1619 106.209 55.9078 106.328C55.8848 106.339 55.8649 106.355 55.8501 106.376C55.8352 106.397 55.826 106.421 55.8231 106.446C55.8162 106.488 55.8195 106.531 55.8328 106.571C55.846 106.612 55.8689 106.648 55.8993 106.678C56.1026 106.884 56.6728 106.836 56.9918 106.791L57.0003 106.785ZM55.9671 106.401C56.1167 106.359 56.5317 106.548 56.8422 106.712C56.4046 106.763 56.08 106.712 55.9643 106.61C55.9443 106.591 55.9295 106.566 55.9212 106.54C55.9128 106.513 55.9111 106.485 55.9163 106.458C55.9175 106.448 55.9209 106.438 55.9262 106.43C55.9316 106.422 55.9388 106.415 55.9473 106.41L55.9671 106.401Z" fill="#FFD000"/>
<path d="M57.0003 106.785C57.0073 106.78 57.013 106.774 57.0169 106.767C57.0209 106.759 57.0229 106.751 57.0229 106.743C57.018 106.464 56.9262 106.193 56.7604 105.969C56.6907 105.905 56.5984 105.87 56.5035 105.873C56.3765 105.873 56.3341 105.944 56.3228 105.995C56.2748 106.223 56.7237 106.666 56.9552 106.788C56.9619 106.792 56.97 106.795 56.9782 106.794C56.9864 106.794 56.9942 106.79 57.0003 106.785ZM56.4696 105.978H56.5176C56.5523 105.976 56.5868 105.982 56.6193 105.994C56.6518 106.006 56.6815 106.024 56.7067 106.048C56.844 106.227 56.9228 106.444 56.9326 106.669C56.6983 106.508 56.3962 106.158 56.4245 106.026C56.4245 106.026 56.4245 105.995 56.4696 105.983V105.978Z" fill="#FFD000"/>
<path opacity="0.2" d="M62.169 72.8177C62.0815 73.6646 62.0053 74.5284 61.9403 75.4232C60.9693 73.4303 60.9862 71.5672 61.5564 70.853L62.169 72.8177Z" fill="black"/>
<path d="M60.9071 37.6646C60.8055 37.6646 60.7095 37.7746 60.6926 37.9299C60.6757 38.0852 60.735 38.2122 60.8507 38.2376C60.9664 38.263 61.0624 38.1303 61.0793 37.9553C61.0963 37.7803 61.0116 37.6646 60.9071 37.6646Z" fill="#263238"/>
<path d="M59.1231 37.5347C59.0215 37.5347 58.9255 37.6419 58.9086 37.8C58.8917 37.9581 58.9594 38.0823 59.0667 38.1049C59.1739 38.1275 59.2671 37.9976 59.284 37.8395C59.301 37.6815 59.2248 37.546 59.1231 37.5347Z" fill="#263238"/>
<path d="M59.5889 39.9541C59.4844 39.9541 59.3885 40.0614 59.3715 40.2195C59.3546 40.3775 59.4252 40.5017 59.5296 40.5243C59.6341 40.5469 59.7329 40.4171 59.747 40.259C59.7611 40.1009 59.6905 39.9654 59.5889 39.9541Z" fill="#263238"/>
<path d="M59.5747 39.5193C59.4406 39.5238 59.3071 39.4989 59.1837 39.4462C59.0603 39.3935 58.95 39.3144 58.8605 39.2145C59.2512 38.873 59.5923 38.4787 59.8739 38.043L59.5747 39.5193Z" fill="#EAB6B5"/>
<path d="M61.3504 37.3824C61.2921 37.2801 61.2107 37.1928 61.1127 37.1276C61.0146 37.0624 60.9027 37.0211 60.7858 37.007H60.7576C60.7331 37.0028 60.7111 36.9893 60.6964 36.9693C60.6816 36.9493 60.6752 36.9243 60.6785 36.8997C60.6827 36.8752 60.6962 36.8533 60.7162 36.8385C60.7362 36.8238 60.7611 36.8174 60.7858 36.8207C60.9331 36.834 61.0751 36.8826 61.1999 36.9621C61.3246 37.0417 61.4285 37.15 61.5028 37.278C61.5119 37.2919 61.517 37.308 61.5178 37.3246C61.5185 37.3412 61.5148 37.3577 61.5071 37.3724C61.4993 37.3871 61.4877 37.3994 61.4736 37.4081C61.4594 37.4168 61.4432 37.4216 61.4266 37.4219C61.4118 37.4209 61.3974 37.4169 61.3843 37.4101C61.3712 37.4033 61.3597 37.3939 61.3504 37.3824Z" fill="#263238"/>
<path d="M58.7703 37.2271C58.7605 37.2194 58.7524 37.2098 58.7464 37.1989C58.7404 37.188 58.7366 37.1761 58.7353 37.1637C58.7339 37.1513 58.7351 37.1388 58.7387 37.1269C58.7423 37.115 58.7482 37.104 58.7562 37.0944C58.8445 36.9761 58.9604 36.8812 59.0937 36.8177C59.2269 36.7543 59.3737 36.7243 59.5212 36.7302C59.5454 36.7331 59.5676 36.7453 59.5829 36.7643C59.5982 36.7833 59.6054 36.8076 59.603 36.8319C59.5995 36.8556 59.587 36.877 59.5681 36.8918C59.5492 36.9065 59.5253 36.9133 59.5014 36.9109C59.3843 36.9083 59.2684 36.9339 59.1632 36.9855C59.0581 37.0371 58.9669 37.1131 58.8973 37.2073C58.8885 37.2198 58.8766 37.2297 58.8627 37.2362C58.8488 37.2426 58.8335 37.2453 58.8183 37.244C58.8013 37.2419 58.7849 37.2361 58.7703 37.2271Z" fill="#263238"/>
<path d="M56.6249 59.5869C56.5628 59.5869 55.6849 59.6405 55.6877 59.7055C55.8249 60.0605 55.9881 60.4049 56.176 60.7358H66.6545C66.8427 60.4823 67.0089 60.2131 67.1513 59.9313C67.1513 59.9162 67.1483 59.9013 67.1425 59.8874C67.1366 59.8735 67.128 59.861 67.1172 59.8504C67.1065 59.8399 67.0937 59.8317 67.0796 59.8262C67.0656 59.8207 67.0506 59.818 67.0356 59.8184L56.6333 59.5897L56.6249 59.5869Z" fill="#263238"/>
<path d="M64.2521 60.4255C66.4285 64.5017 64.0263 72.705 64.0263 72.705L61.3051 102.455C61.286 102.658 61.227 102.855 61.1314 103.035C61.0358 103.215 60.9056 103.375 60.7482 103.505C60.5908 103.634 60.4093 103.731 60.2142 103.791C60.0191 103.85 59.8142 103.87 59.6114 103.85C59.0153 103.791 58.4234 103.697 57.8386 103.567C57.5131 103.501 57.2204 103.325 57.0105 103.067C56.8005 102.81 56.6861 102.488 56.6869 102.156C56.749 95.2144 56.2493 59.9287 56.2493 59.9287C56.2493 59.9287 61.7793 60.1884 64.2521 60.4255Z" fill="#263238"/>
<g opacity="0.2">
<path d="M63.5635 76.9026C63.5635 76.9026 63.1203 86.6443 62.7674 86.2971C62.4146 85.9499 61.1217 66.2012 61.1217 66.2012L63.7583 71.8666L63.5635 76.9026Z" fill="black"/>
</g>
<path d="M56.385 54.1783L55.8204 53.6137C55.7676 53.5612 55.7257 53.4987 55.6971 53.4299C55.6685 53.3611 55.6538 53.2873 55.6539 53.2128V52.4281C55.6545 52.2786 55.7144 52.1355 55.8204 52.0301L56.385 51.4655C56.4377 51.4132 56.5003 51.3718 56.5691 51.3437C56.6379 51.3156 56.7115 51.3013 56.7858 51.3018H57.5706C57.6457 51.3065 57.7191 51.3261 57.7864 51.3596C57.8538 51.393 57.9138 51.4396 57.963 51.4965L58.5275 52.0611C58.6325 52.167 58.6914 52.3101 58.6913 52.4591V53.2439C58.6917 53.3182 58.6775 53.3918 58.6494 53.4606C58.6213 53.5294 58.5799 53.592 58.5275 53.6447L57.963 54.2093C57.8576 54.3153 57.7144 54.3752 57.5649 54.3759H56.7802C56.7044 54.3712 56.6304 54.3513 56.5625 54.3173C56.4946 54.2834 56.4342 54.2361 56.385 54.1783Z" fill="#263238"/>
<path d="M59.9389 53.9949C59.5719 54.805 57.977 54.3731 57.977 54.3731L57.068 54.28C56.9194 54.2666 56.7806 54.2002 56.6769 54.0929C56.5733 53.9856 56.5117 53.8446 56.5035 53.6956L56.447 52.9306C56.4456 52.9222 56.4456 52.9136 56.447 52.9052C56.4417 52.7407 56.5016 52.5807 56.6137 52.4602C56.7258 52.3396 56.881 52.2682 57.0455 52.2616L57.754 52.2306C58.0437 52.2157 58.333 52.2659 58.6008 52.3774L59.8768 52.8939L59.9389 53.9949Z" fill="#FBE5C5"/>
<path d="M70.1265 46.5483C70.4217 46.9686 70.6206 47.4489 70.7089 47.9548C70.7972 48.4608 70.7728 48.9801 70.6374 49.4756C70.0729 51.6887 68.6897 56.4988 67.8541 57.0973C66.7814 57.8566 59.5605 54.3817 59.5605 54.3817L59.8739 52.9025L65.8866 53.7014C65.8866 53.7014 65.3926 46.5003 66.8943 45.7437C67.4368 45.4524 68.0682 45.3734 68.6657 45.5221C69.2632 45.6708 69.7839 46.0366 70.1265 46.5483Z" fill="#FBE5C5"/>
<path d="M57.4322 40.3662V40.6231H59.9389L59.2755 39.9569L57.8867 39.9117C57.8267 39.9106 57.7672 39.9213 57.7114 39.9433C57.6557 39.9653 57.6048 39.9981 57.5618 40.0398C57.5188 40.0815 57.4844 40.1313 57.4607 40.1864C57.437 40.2414 57.4244 40.3006 57.4237 40.3605L57.4322 40.3662Z" fill="#FFD000"/>
<path opacity="0.2" d="M57.4322 40.3662V40.6231H59.9389L59.2755 39.9569L57.8867 39.9117C57.8267 39.9106 57.7672 39.9213 57.7114 39.9433C57.6557 39.9653 57.6048 39.9981 57.5618 40.0398C57.5188 40.0815 57.4844 40.1313 57.4607 40.1864C57.437 40.2414 57.4244 40.3006 57.4237 40.3605L57.4322 40.3662Z" fill="white"/>
<path d="M57.4323 40.6034C57.4323 40.6754 57.4536 40.7458 57.4936 40.8057C57.5336 40.8656 57.5905 40.9123 57.657 40.9398C57.7236 40.9674 57.7968 40.9746 57.8674 40.9606C57.9381 40.9465 58.003 40.9118 58.0539 40.8609C58.1048 40.81 58.1395 40.7451 58.1536 40.6744C58.1676 40.6038 58.1604 40.5306 58.1328 40.4641C58.1053 40.3975 58.0586 40.3406 57.9987 40.3006C57.9388 40.2606 57.8684 40.2393 57.7964 40.2393C57.6998 40.2393 57.6072 40.2776 57.5389 40.3459C57.4706 40.4142 57.4323 40.5068 57.4323 40.6034Z" fill="#FFD000"/>
<path opacity="0.4" d="M57.4323 40.6034C57.4323 40.6754 57.4536 40.7458 57.4936 40.8057C57.5336 40.8656 57.5905 40.9123 57.657 40.9398C57.7236 40.9674 57.7968 40.9746 57.8674 40.9606C57.9381 40.9465 58.003 40.9118 58.0539 40.8609C58.1048 40.81 58.1395 40.7451 58.1536 40.6744C58.1676 40.6038 58.1604 40.5306 58.1328 40.4641C58.1053 40.3975 58.0586 40.3406 57.9987 40.3006C57.9388 40.2606 57.8684 40.2393 57.7964 40.2393C57.6998 40.2393 57.6072 40.2776 57.5389 40.3459C57.4706 40.4142 57.4323 40.5068 57.4323 40.6034Z" fill="white"/>
<path opacity="0.2" d="M62.4597 37.6645C62.6363 37.7056 62.8185 37.717 62.9988 37.6984C63.0862 37.6925 63.1736 37.7091 63.2527 37.7466C63.3318 37.7842 63.3999 37.8415 63.4505 37.9129C63.5527 38.3042 63.5814 38.711 63.5352 39.1127L63.6368 39.1324C63.7834 38.8802 63.9975 38.6739 64.255 38.5368C64.2917 38.3081 64.3284 38.0682 64.3707 37.8141C64.436 37.4169 64.4129 37.0102 64.303 36.6229C64.2583 36.4616 64.1968 36.3055 64.1195 36.1571C63.7638 36.1232 63.4081 36.0865 63.0496 36.064C62.9167 36.2209 62.8065 36.3958 62.7222 36.5834C62.6177 36.9419 62.5302 37.3032 62.4597 37.6645Z" fill="black"/>
<path d="M65.0031 35.4459C65.037 35.5278 64.574 36.8207 64.4921 36.8263C64.4103 36.832 62.694 36.6344 62.694 36.6344L62.8013 35.9343L59.6058 35.7536L58.7335 34.6725C58.7335 34.6725 63.3404 34.6019 64.2889 34.6725C65.2374 34.743 65.0031 35.4459 65.0031 35.4459Z" fill="#263238"/>
<path d="M69.3447 45.8057C69.3447 45.8057 70.677 46.4719 70.8944 48.4563C71.1118 50.4408 70.2847 46.8219 68.6192 47.203C66.9537 47.5841 65.8867 49.1508 65.8867 49.1508C65.8867 49.1508 65.8867 46.0202 66.8944 45.7351C67.9022 45.45 67.5747 44.9249 69.3447 45.8057Z" fill="#FFD000"/>
<path opacity="0.6" d="M69.3447 45.8057C69.3447 45.8057 70.677 46.4719 70.8944 48.4563C71.1118 50.4408 70.2847 46.8219 68.6192 47.203C66.9537 47.5841 65.8867 49.1508 65.8867 49.1508C65.8867 49.1508 65.8867 46.0202 66.8944 45.7351C67.9022 45.45 67.5747 44.9249 69.3447 45.8057Z" fill="white"/>
<path d="M59.761 62.7062C59.4787 62.6582 59.363 62.3223 59.3602 62.0457C59.3385 61.7472 59.4148 61.4499 59.5775 61.1988C59.6573 61.0873 59.7651 60.9989 59.89 60.9424C60.0149 60.8859 60.1525 60.8633 60.2889 60.877V60.8008L60.3312 60.8488V60.8064L60.5034 60.8403L60.4893 60.9193C60.774 60.844 61.0767 60.88 61.3358 61.02C61.5949 61.16 61.7909 61.3936 61.8838 61.673C61.9068 61.7485 61.9146 61.8277 61.9069 61.9062C61.8991 61.9847 61.8759 62.0609 61.8386 62.1303C61.8164 62.1686 61.7862 62.2018 61.7502 62.2275C61.7142 62.2533 61.6732 62.2712 61.6297 62.28C61.5412 62.2838 61.4531 62.2648 61.374 62.2248C61.2949 62.1847 61.2274 62.125 61.1781 62.0513L60.5345 61.3399C60.5452 61.6725 60.4755 62.0027 60.3312 62.3025C60.1929 62.5848 59.984 62.7373 59.7667 62.7062H59.761ZM60.3256 61.0633L60.2098 61.0464C60.1149 61.0484 60.0218 61.0728 59.9379 61.1174C59.8541 61.162 59.7819 61.2257 59.7271 61.3033C59.5862 61.523 59.5208 61.7826 59.5408 62.0428C59.5408 62.2094 59.6001 62.5001 59.7949 62.5312C59.9897 62.5622 60.0969 62.39 60.176 62.2263C60.3463 61.876 60.4016 61.4808 60.3341 61.0972V61.0605L60.3256 61.0633ZM60.6079 61.0633V61.0972H60.574L61.3305 61.9299C61.418 62.0259 61.5225 62.1219 61.6128 62.1021C61.6321 62.0986 61.6502 62.0906 61.6659 62.0788C61.6816 62.0671 61.6943 62.0519 61.7031 62.0344C61.7521 61.9372 61.7612 61.8248 61.7285 61.721C61.6513 61.4837 61.4841 61.2861 61.2628 61.1706C61.1588 61.1146 61.0462 61.0765 60.9297 61.0577C60.8159 61.0419 60.7002 61.0467 60.5881 61.0718L60.6079 61.0633Z" fill="#FFD000"/>
<path d="M62.0362 64.9534L62.1774 64.849C61.3486 63.7362 60.8206 62.4285 60.6446 61.0522L60.4695 61.0748C60.6514 62.4804 61.1908 63.8159 62.0362 64.9534Z" fill="#FFD000"/>
<path d="M58.5642 65.2015H58.7392C58.8053 63.6957 59.4268 62.2676 60.4837 61.1931L60.3595 61.0688C59.2703 62.1768 58.6307 63.6493 58.5642 65.2015Z" fill="#FFD000"/>
<path d="M70.1464 84.705L70.1323 84.688L70.3609 84.5215L70.1464 84.705Z" fill="#FFD000"/>
<path d="M78.2141 96.3037C79.9078 98.9995 81.0002 100.916 81.0002 100.916L79.1626 101.884C79.1626 101.884 77.7286 100.211 75.665 97.8281L78.2141 96.3037Z" fill="#FBE5C5"/>
<path d="M78.5951 102.506C78.5359 103.181 78.4145 104.561 77.8076 105.504C77.6184 105.8 78.2423 106.226 78.852 105.699C79.8711 104.832 80.2635 104.143 80.159 104.287C81.1809 103.144 82.1745 102.19 82.1745 102.19L82.1943 102.173C82.2546 102.112 82.2885 102.03 82.2885 101.944C82.2885 101.859 82.2546 101.776 82.1943 101.716L80.8817 100.527C80.8537 100.502 80.8175 100.488 80.78 100.488C80.7425 100.488 80.7064 100.502 80.6784 100.527L78.8774 102.088C78.7339 102.187 78.6331 102.336 78.5951 102.506Z" fill="#263238"/>
<path d="M79.075 102.091C79.0818 102.085 79.0869 102.077 79.0899 102.069C79.0929 102.06 79.0936 102.051 79.092 102.043C79.0905 102.033 79.0862 102.024 79.0797 102.017C79.0731 102.01 79.0646 102.005 79.0553 102.003C78.9565 102.003 78.0729 101.896 77.9035 102.113C77.8858 102.131 77.8736 102.154 77.8681 102.179C77.8626 102.204 77.8641 102.23 77.8725 102.254C77.8842 102.295 77.905 102.333 77.9333 102.365C77.9617 102.397 77.9968 102.421 78.0362 102.438C78.3044 102.539 78.804 102.271 79.0807 102.096L79.075 102.091ZM77.9741 102.153C78.0898 102.048 78.5528 102.054 78.8972 102.082C78.5161 102.305 78.2028 102.398 78.0503 102.345C78.0243 102.335 78.0011 102.319 77.9828 102.299C77.9646 102.278 77.9519 102.253 77.9459 102.226C77.9404 102.217 77.9375 102.207 77.9375 102.196C77.9375 102.186 77.9404 102.176 77.9459 102.167L77.9741 102.153Z" fill="#FFD000"/>
<path d="M79.0749 102.091C79.0784 102.084 79.0802 102.076 79.0802 102.068C79.0802 102.061 79.0784 102.053 79.0749 102.046C79.058 102.029 78.8293 101.543 78.5104 101.442C78.4649 101.424 78.4161 101.416 78.3674 101.419C78.3186 101.422 78.2711 101.436 78.2281 101.459C78.1123 101.515 78.0982 101.589 78.1123 101.642C78.1547 101.862 78.7475 102.094 79.0072 102.111C79.0125 102.115 79.0189 102.118 79.0257 102.12C79.0326 102.121 79.0397 102.121 79.0464 102.119C79.0531 102.117 79.0592 102.114 79.0642 102.109C79.0692 102.104 79.0729 102.098 79.0749 102.091ZM78.262 101.555L78.2987 101.524C78.3299 101.51 78.3635 101.504 78.3975 101.504C78.4314 101.504 78.465 101.51 78.4962 101.524C78.6949 101.632 78.8555 101.798 78.9564 102.001C78.6741 101.947 78.2563 101.749 78.2309 101.617C78.2309 101.617 78.2309 101.589 78.2704 101.56L78.262 101.555Z" fill="#FFD000"/>
<path d="M69.9657 84.0669C75.2133 86.8164 77.147 93.7916 79.0863 96.033C80.797 98.009 78.0108 99.4204 77.5337 99.6067C77.0919 99.7733 76.6076 99.7906 76.155 99.656C75.7023 99.5214 75.3062 99.2424 75.027 98.8615C73.3757 96.6032 69.6834 92.1713 65.6777 87.0252L69.9657 84.0669Z" fill="#263238"/>
<path d="M64.91 85.4103C61.6383 73.272 59.6877 60.7582 59.6877 60.7582C59.6877 60.7582 64.3426 60.5804 66.821 60.6002C68.2607 62.6834 69.2261 74.8302 71.5352 85.7913L64.91 85.4103Z" fill="#263238"/>
<path d="M78.9565 98.788L78.7278 98.6243C79.1174 98.0766 79.0327 97.3032 78.5189 96.7019L76.3736 93.0181C74.6573 90.0625 73.5507 88.7612 71.2162 86.2855L70.2706 85.4528L70.0955 84.5749L68.2692 73.1593C67.953 71.7676 67.7526 70.2178 67.5437 68.5749C67.2106 65.9779 66.869 63.2906 66.0109 61.1508L66.2706 61.0464C67.1428 63.22 67.49 65.9243 67.8231 68.5411C68.032 70.1727 68.2296 71.7168 68.5458 73.1056L70.3835 84.5241L70.5415 85.3032L71.4251 86.0823C73.7709 88.5834 74.9 89.8875 76.6192 92.8769L78.7504 96.5466C79.031 96.8431 79.2039 97.2252 79.2413 97.6317C79.2786 98.0381 79.1783 98.4454 78.9565 98.788Z" fill="#FFD000"/>
<path d="M64.4274 83.542L64.9496 85.6366C65.1359 87.0198 67.0809 88.8885 67.0809 88.8885L69.6214 85.391L64.4274 83.542Z" fill="#263238"/>
<path d="M56.9777 51.6464V51.2456C56.9777 49.7325 56.9777 48.3013 57.452 46.8504C57.6818 46.1292 58.0578 45.4632 58.5567 44.894C59.0555 44.3248 59.6663 43.8645 60.351 43.542L60.4752 43.796C59.8244 44.1024 59.2437 44.5399 58.7697 45.081C58.2956 45.6221 57.9383 46.2552 57.7201 46.9407C57.2713 48.2872 57.2572 49.6365 57.26 51.0564C58.285 50.3266 59.3903 49.7166 60.5543 49.2385C61.6446 48.7817 62.6851 48.2142 63.6594 47.5448C64.1223 47.2316 64.5154 46.826 64.814 46.3536C64.9568 46.1254 65.0514 45.8706 65.0922 45.6046C65.133 45.3386 65.119 45.067 65.0511 44.8066C64.9795 44.5557 64.8331 44.3326 64.6313 44.1671C64.4295 44.0017 64.182 43.9018 63.9219 43.8807V43.5984C64.2393 43.6247 64.5412 43.7468 64.7877 43.9484C65.0342 44.15 65.2137 44.4217 65.3023 44.7276C65.381 45.0251 65.3981 45.3356 65.3525 45.64C65.3068 45.9443 65.1995 46.2362 65.037 46.4975C64.7199 47.0036 64.3018 47.4389 63.809 47.7763C62.8139 48.453 61.7527 49.0271 60.6418 49.4897C59.4421 50.0374 58.2 50.602 57.1781 51.4488L56.9777 51.6464Z" fill="#263238"/>
<path d="M24.1788 99.621C24.7474 99.6067 25.3132 99.7062 25.8427 99.9138C26.3723 100.121 26.855 100.433 27.2624 100.83C27.6699 101.227 27.9938 101.701 28.2151 102.225C28.4365 102.749 28.5508 103.312 28.5514 103.881C28.5473 105.034 28.0986 106.14 27.2988 106.971C26.499 107.801 25.4097 108.291 24.2579 108.338C23.6872 108.363 23.1173 108.273 22.5821 108.074C22.0468 107.874 21.5571 107.569 21.1419 107.177C20.7267 106.785 20.3945 106.313 20.1651 105.79C19.9356 105.267 19.8136 104.703 19.8062 104.132C19.7941 102.956 20.2465 101.822 21.0652 100.978C21.8839 100.133 23.0028 99.6455 24.1788 99.621Z" fill="#263238"/>
<path d="M27.7414 104.567C27.9083 104.342 28.0467 104.097 28.1535 103.838C28.3108 103.474 28.3842 103.078 28.368 102.681C28.2123 102.112 27.9415 101.582 27.5725 101.122C27.2035 100.662 26.7441 100.283 26.2227 100.008L26.2904 100.081C26.3412 100.138 26.3892 100.197 26.4372 100.256C26.6954 100.601 26.9026 100.981 27.0526 101.385C27.3262 102.149 27.4924 102.947 27.5466 103.757C27.5958 104.03 27.6608 104.301 27.7414 104.567Z" fill="#B0AA97"/>
<path d="M28.3228 105.442C28.5542 104.804 28.6335 104.122 28.5543 103.449C28.5144 103.649 28.4548 103.845 28.3765 104.033C28.2488 104.346 28.0778 104.64 27.8683 104.905C27.9127 105.067 27.9961 105.215 28.1111 105.337C28.172 105.389 28.2447 105.425 28.3228 105.442Z" fill="#B0AA97"/>
<path d="M27.3435 106.972C27.7165 106.586 28.0116 106.131 28.213 105.634C28.1208 105.611 28.035 105.567 27.9617 105.507C27.8427 105.39 27.7528 105.247 27.6992 105.089C27.6428 105.151 27.5863 105.216 27.527 105.278C27.3855 105.423 27.2356 105.56 27.0782 105.687C27.2599 106.091 27.3505 106.529 27.3435 106.972Z" fill="#B0AA97"/>
<path d="M26.8155 107.446C26.9187 107.368 27.0176 107.286 27.1119 107.198H27.0978C27.1759 106.86 27.1483 106.506 27.0188 106.184C26.9877 106.074 26.9454 105.958 26.9002 105.837C26.6428 106.031 26.371 106.206 26.0872 106.359C26.1984 106.683 26.1771 107.038 26.028 107.347C25.7605 107.778 25.3588 108.109 24.8847 108.29C25.5888 108.175 26.2527 107.884 26.8155 107.446Z" fill="#B0AA97"/>
<path d="M25.7823 107.333C25.8461 107.205 25.8839 107.065 25.8936 106.922C25.9033 106.78 25.8846 106.636 25.8387 106.5L25.6637 106.591C24.9136 106.973 24.1008 107.215 23.2643 107.308C22.6942 107.366 22.1183 107.309 21.5706 107.141C21.2594 107.044 20.9631 106.904 20.6898 106.726C21.2719 107.485 22.0905 108.027 23.0159 108.268C23.3889 108.37 23.7794 108.392 24.1615 108.331C24.5436 108.271 24.9085 108.13 25.2318 107.918C25.4614 107.772 25.6507 107.571 25.7823 107.333Z" fill="#B0AA97"/>
<path d="M25.723 106.26C25.5366 105.873 24.9608 105.518 24.5938 105.388C21.1866 104.166 20.145 103.392 19.8458 102.98C19.5781 104.065 19.742 105.212 20.3031 106.178C20.6582 106.516 21.0889 106.764 21.5592 106.901C22.3496 107.149 23.6792 107.257 25.5112 106.359L25.723 106.26Z" fill="#B0AA97"/>
<path d="M26.7647 105.594C26.6229 105.257 26.4617 104.928 26.282 104.609C25.6592 103.485 24.8552 102.471 23.9023 101.608C23.3722 101.103 22.7529 100.7 22.0759 100.42C21.9783 100.383 21.877 100.357 21.7739 100.341C21.6779 100.403 21.5847 100.468 21.4916 100.538C20.7831 101.081 20.2612 101.831 19.9983 102.684C20.0237 102.768 20.1225 102.949 20.5092 103.231C21.2601 103.779 22.6828 104.434 24.7435 105.171C25.1678 105.327 25.5449 105.589 25.8388 105.933C25.8849 105.992 25.9247 106.055 25.9573 106.122C26.2392 105.966 26.509 105.79 26.7647 105.594Z" fill="#B0AA97"/>
<path d="M26.9623 105.442C27.187 105.255 27.394 105.048 27.5805 104.824C27.4822 104.518 27.404 104.205 27.3462 103.889C27.174 101.868 26.5981 100.826 26.1408 100.307C25.9967 100.139 25.8295 99.9912 25.644 99.8695C25.0572 99.6563 24.4309 99.5736 23.8088 99.6272C23.1867 99.6808 22.5837 99.8695 22.0421 100.18L22.155 100.214C22.864 100.501 23.5131 100.919 24.0689 101.445C24.5894 101.903 25.0623 102.413 25.4803 102.966C25.8533 103.45 26.191 103.961 26.4909 104.493C26.6647 104.801 26.8221 105.118 26.9623 105.442Z" fill="#B0AA97"/>
<path opacity="0.3" d="M28.3229 105.442C28.5543 104.804 28.6335 104.122 28.5543 103.449C28.5543 103.471 28.5402 103.499 28.5346 103.525C28.4734 102.794 28.23 102.09 27.8267 101.478C27.4233 100.865 26.8728 100.364 26.2255 100.019L26.2932 100.092C26.3107 100.111 26.3268 100.13 26.3412 100.151C25.8943 99.9051 25.4066 99.7416 24.9016 99.6688C23.9199 99.5005 22.9102 99.6781 22.0448 100.171L22.0985 100.185C22.0053 100.236 21.9178 100.295 21.8162 100.352H21.7625C21.6666 100.414 21.5734 100.479 21.4803 100.55C20.7718 101.092 20.2498 101.842 19.987 102.695C19.9906 102.71 19.9963 102.724 20.0039 102.737C19.9672 102.85 19.9362 102.966 19.9107 103.082L19.8345 102.991C19.5669 104.076 19.7308 105.223 20.2918 106.19C20.3172 106.215 20.3596 106.257 20.416 106.305C20.523 106.479 20.6418 106.645 20.7717 106.802C20.735 106.78 20.6983 106.76 20.6673 106.737C21.2494 107.496 22.068 108.038 22.9933 108.278C23.3535 108.371 23.7282 108.394 24.097 108.346H24.2438C24.4772 108.334 24.7093 108.305 24.9383 108.259L24.8705 108.293C25.5748 108.176 26.2387 107.885 26.8013 107.446C26.9045 107.368 27.0034 107.285 27.0977 107.197H27.0836V107.158C27.1655 107.082 27.2445 107.005 27.3207 106.924C27.3222 106.941 27.3222 106.959 27.3207 106.977C27.6937 106.591 27.9888 106.137 28.1902 105.639H28.1676C28.1958 105.574 28.2212 105.506 28.2466 105.439L28.3229 105.442Z" fill="white"/>
<path d="M41.4491 100.804C41.8513 100.402 42.3299 100.084 42.8567 99.8696C43.3835 99.6552 43.948 99.5484 44.5167 99.5555C45.0855 99.5626 45.647 99.6835 46.1683 99.911C46.6897 100.138 47.1602 100.468 47.5521 100.88C48.3438 101.718 48.7816 102.828 48.7742 103.981C48.7669 105.133 48.3149 106.238 47.5126 107.065C47.1166 107.477 46.6418 107.804 46.1167 108.029C45.5915 108.253 45.0265 108.37 44.4554 108.371C43.8843 108.373 43.3186 108.26 42.792 108.039C42.2654 107.818 41.7886 107.494 41.3899 107.085C40.5701 106.241 40.1164 105.108 40.1275 103.932C40.1386 102.756 40.6136 101.632 41.4491 100.804Z" fill="#263238"/>
<path d="M47.445 101.941C47.4124 101.663 47.3451 101.39 47.2445 101.129C47.1048 100.757 46.8862 100.42 46.6037 100.141C46.1235 99.8538 45.5925 99.6621 45.0399 99.5759C44.4275 99.4797 43.8015 99.5173 43.205 99.686H43.3038C43.3772 99.686 43.4534 99.703 43.5325 99.7143C43.96 99.7873 44.3746 99.9224 44.7632 100.115C45.4872 100.481 46.1577 100.945 46.7562 101.493C46.9765 101.656 47.2065 101.806 47.445 101.941Z" fill="#B0AA97"/>
<path d="M48.4611 102.167C48.1896 101.546 47.7757 100.996 47.2529 100.564C47.3656 100.735 47.4602 100.918 47.5352 101.109C47.6582 101.424 47.7361 101.754 47.7667 102.091C47.9112 102.177 48.0735 102.228 48.2409 102.241C48.3191 102.234 48.3946 102.209 48.4611 102.167Z" fill="#B0AA97"/>
<path d="M48.8083 103.948C48.813 103.413 48.7173 102.882 48.526 102.382C48.4387 102.428 48.3424 102.455 48.2437 102.461C48.0773 102.459 47.9136 102.417 47.7666 102.339C47.7666 102.424 47.7666 102.509 47.7666 102.596C47.7662 102.799 47.752 103.002 47.7243 103.203C48.1362 103.369 48.5063 103.623 48.8083 103.948Z" fill="#B0AA97"/>
<path d="M48.7548 104.657C48.7746 104.53 48.7887 104.4 48.7971 104.273H48.7802C48.6044 103.975 48.3414 103.737 48.0265 103.593C47.9213 103.531 47.813 103.474 47.7019 103.423C47.6478 103.741 47.5704 104.054 47.4704 104.361C47.6216 104.439 47.7558 104.546 47.8653 104.676C47.9748 104.807 48.0574 104.957 48.1084 105.12C48.212 105.616 48.1495 106.133 47.9305 106.591C48.3606 106.024 48.6438 105.36 48.7548 104.657Z" fill="#B0AA97"/>
<path d="M47.9247 105.286C47.8396 105.011 47.6487 104.78 47.394 104.646C47.3743 104.708 47.3517 104.77 47.3291 104.829C47.0492 105.623 46.6274 106.359 46.0842 107.003C45.7094 107.44 45.2505 107.798 44.7349 108.056C44.4426 108.2 44.1321 108.303 43.8118 108.363C44.7562 108.512 45.7231 108.34 46.5585 107.875C46.8993 107.692 47.1973 107.439 47.4329 107.133C47.6684 106.826 47.8361 106.473 47.9247 106.096C47.9928 105.831 47.9928 105.552 47.9247 105.286Z" fill="#B0AA97"/>
<path d="M47.143 104.567C46.7421 104.414 46.0788 104.552 45.7316 104.708C42.4204 106.17 41.1331 106.328 40.6335 106.235C41.1872 107.208 42.0986 107.927 43.1741 108.239C43.665 108.239 44.1489 108.122 44.5855 107.898C45.3279 107.533 46.3667 106.692 47.0837 104.77L47.143 104.567Z" fill="#B0AA97"/>
<path d="M47.4392 103.35C47.1045 103.203 46.7614 103.075 46.4117 102.969C45.1849 102.584 43.9032 102.402 42.6178 102.432C41.8853 102.433 41.1592 102.568 40.4752 102.83C40.3766 102.872 40.2821 102.923 40.1929 102.983C40.1675 103.093 40.145 103.206 40.128 103.319C39.9876 104.2 40.1258 105.103 40.5232 105.902C40.7611 105.993 41.0213 106.009 41.2685 105.947C42.1944 105.825 43.6764 105.317 45.6721 104.437C46.0877 104.257 46.5429 104.188 46.9932 104.236C47.0664 104.246 47.1383 104.264 47.2077 104.29C47.3086 103.983 47.386 103.669 47.4392 103.35Z" fill="#B0AA97"/>
<path d="M47.476 103.104C47.5124 102.813 47.52 102.519 47.4986 102.226C47.2159 102.074 46.9443 101.903 46.6856 101.713C45.1669 100.366 44.0321 100.019 43.3434 99.9483C43.1222 99.925 42.8988 99.9336 42.68 99.9737C42.1084 100.225 41.5981 100.597 41.1844 101.064C40.7706 101.531 40.4632 102.083 40.2834 102.681L40.3907 102.627C41.1026 102.346 41.861 102.202 42.6264 102.201C43.3187 102.176 44.0118 102.219 44.6955 102.331C45.299 102.427 45.8951 102.564 46.4796 102.743C46.8184 102.844 47.1511 102.965 47.476 103.104Z" fill="#B0AA97"/>
<path opacity="0.2" d="M48.4612 102.167C48.1889 101.546 47.7752 100.997 47.253 100.564L47.2954 100.634C46.9152 100.296 46.4773 100.029 46.0025 99.8468C45.1156 99.4763 44.1291 99.4185 43.205 99.683H43.3038H43.38C42.6565 99.8839 41.9941 100.261 41.4522 100.781C40.9103 101.301 40.5058 101.947 40.2749 102.661L40.3257 102.636C40.2947 102.735 40.2721 102.836 40.2467 102.938L40.1987 102.969C40.1733 103.079 40.1507 103.192 40.1338 103.305C39.9934 104.186 40.1315 105.089 40.529 105.888L40.5713 105.907C40.6221 106.015 40.6814 106.119 40.7407 106.221L40.6249 106.207C41.1787 107.18 42.0901 107.899 43.1655 108.211H43.3349C43.5314 108.263 43.7314 108.302 43.9333 108.327L43.8148 108.352C44.7592 108.5 45.726 108.328 46.5614 107.864C46.8873 107.684 47.1749 107.442 47.4083 107.152C47.4421 107.118 47.4817 107.09 47.5155 107.054C47.678 106.885 47.8262 106.704 47.9587 106.512L47.9333 106.585C48.3643 106.017 48.6475 105.35 48.7576 104.646C48.7774 104.519 48.7915 104.389 48.7999 104.262H48.783C48.7775 104.25 48.7709 104.238 48.7632 104.228C48.7632 104.115 48.7632 104.005 48.7632 103.892L48.7999 103.931C48.8047 103.396 48.7089 102.865 48.5176 102.365H48.4951C48.4697 102.297 48.4414 102.232 48.4132 102.164L48.4612 102.167Z" fill="white"/>
<path d="M39.9248 100.174C40.451 100.495 40.9076 100.917 41.268 101.417C41.6283 101.917 41.8851 102.484 42.0232 103.084C42.1613 103.685 42.1779 104.307 42.072 104.914C41.9662 105.521 41.74 106.1 41.4068 106.619C40.728 107.666 39.6708 108.411 38.4559 108.699C37.241 108.986 35.9621 108.793 34.886 108.16C34.3519 107.848 33.8858 107.432 33.5154 106.937C33.145 106.442 32.8778 105.877 32.7295 105.277C32.5813 104.676 32.5552 104.052 32.6526 103.441C32.75 102.831 32.9691 102.246 33.2968 101.721C33.9757 100.643 35.0523 99.8758 36.2931 99.5862C37.5339 99.2966 38.8388 99.5078 39.9248 100.174Z" fill="#263238"/>
<path d="M40.2608 106.78C40.5452 106.673 40.8154 106.532 41.0653 106.359C41.4212 106.117 41.7199 105.8 41.9404 105.43C42.1304 104.822 42.1941 104.181 42.1276 103.547C42.0611 102.913 41.8658 102.299 41.5537 101.744L41.5706 101.848C41.5706 101.927 41.5932 102.012 41.6017 102.097C41.6335 102.565 41.5973 103.036 41.4944 103.494C41.2943 104.35 40.9771 105.175 40.5516 105.944C40.4391 106.217 40.342 106.496 40.2608 106.78Z" fill="#B0AA97"/>
<path d="M40.2834 107.903C40.868 107.459 41.3399 106.884 41.6609 106.224C41.5075 106.383 41.3392 106.528 41.1585 106.656C40.858 106.864 40.5303 107.03 40.1846 107.15C40.1309 107.323 40.1193 107.507 40.1507 107.686C40.1752 107.769 40.2209 107.844 40.2834 107.903Z" fill="#B0AA97"/>
<path d="M38.4852 108.728C39.0506 108.592 39.5858 108.351 40.0631 108.019C39.9934 107.942 39.9405 107.852 39.9079 107.754C39.8653 107.578 39.8653 107.396 39.9079 107.22L39.6397 107.291C39.4256 107.34 39.2088 107.377 38.9905 107.401C38.9211 107.875 38.7486 108.328 38.4852 108.728Z" fill="#B0AA97"/>
<path d="M37.7371 108.849C37.8763 108.838 38.0148 108.821 38.1521 108.795V108.781C38.4213 108.52 38.6035 108.182 38.6743 107.813C38.711 107.694 38.7421 107.565 38.7703 107.426C38.4217 107.452 38.0717 107.452 37.723 107.426C37.6797 107.605 37.6012 107.774 37.4922 107.922C37.3831 108.07 37.2457 108.195 37.0879 108.29C36.5927 108.528 36.0328 108.594 35.4958 108.479C36.2006 108.787 36.9709 108.914 37.7371 108.849Z" fill="#B0AA97"/>
<path d="M36.8648 108.14C37.1315 107.979 37.3248 107.719 37.404 107.418L37.1894 107.395C36.2836 107.303 35.4018 107.047 34.5868 106.641C34.03 106.359 33.5357 105.967 33.133 105.49C32.9031 105.221 32.7129 104.92 32.5684 104.598C32.6536 105.629 33.0808 106.603 33.7823 107.364C34.0623 107.676 34.4054 107.925 34.7889 108.094C35.1723 108.264 35.5875 108.35 36.0067 108.346C36.3054 108.35 36.6003 108.279 36.8648 108.14Z" fill="#B0AA97"/>
<path d="M37.4378 107.127C37.4943 106.667 37.181 105.998 36.9241 105.673C34.5388 102.568 34.042 101.247 34.0137 100.696C33.1339 101.528 32.6116 102.668 32.5571 103.878C32.6846 104.392 32.9312 104.87 33.277 105.272C33.8415 105.961 35.0017 106.839 37.2092 107.101L37.4378 107.127Z" fill="#B0AA97"/>
<path d="M38.7676 107.133C38.8363 106.742 38.8815 106.348 38.9031 105.953C38.9943 104.563 38.8569 103.168 38.4966 101.823C38.1381 100.606 37.7739 99.9794 37.5312 99.6718C37.4624 99.5815 37.3848 99.4983 37.2997 99.4233C37.1755 99.4233 37.0541 99.4233 36.9271 99.4375C35.9644 99.5168 35.0506 99.8948 34.3131 100.519C34.278 100.792 34.3283 101.069 34.4571 101.312C34.8184 102.255 35.733 103.683 37.1727 105.546C37.4722 105.938 37.6666 106.399 37.7372 106.887C37.7443 106.967 37.7443 107.047 37.7372 107.127C38.08 107.155 38.4245 107.157 38.7676 107.133Z" fill="#B0AA97"/>
<path d="M39.0498 107.107C39.3642 107.071 39.6743 107.004 39.9757 106.907C40.0655 106.571 40.1767 106.241 40.3088 105.919C41.3391 103.977 41.421 102.69 41.3109 101.95C41.2776 101.711 41.2111 101.479 41.1133 101.258C40.7032 100.721 40.1814 100.279 39.5838 99.9636C38.9863 99.6478 38.3273 99.4654 37.6525 99.4292L37.7343 99.528C38.2129 100.206 38.5605 100.967 38.759 101.772C38.9606 102.494 39.0911 103.235 39.1486 103.982C39.2033 104.64 39.2118 105.3 39.174 105.958C39.1536 106.343 39.1122 106.727 39.0498 107.107Z" fill="#B0AA97"/>
</g>
<defs>
<clipPath id="clip0_896_28456">
<rect width="120" height="120" fill="white" transform="translate(0.5)"/>
</clipPath>
</defs>
</svg>
