<svg width="210" height="210" viewBox="0 0 210 210" fill="none" xmlns="http://www.w3.org/2000/svg">
<g clip-path="url(#clip0_171_20635)">
<path opacity="0.5" d="M210 190.5C210 190.559 143.998 190.375 68.6147 190.375C-6.76813 190.375 0.773646 190.559 0.773646 190.5C0.773646 190.44 -6.79653 190.154 68.6147 190.154C144.026 190.154 210 190.436 210 190.5Z" fill="#263238"/>
<path d="M204.25 183.728H187.889V183.851H204.25V183.728Z" fill="#EBEBEB"/>
<path d="M145.623 185.072H141.33V185.195H145.623V185.072Z" fill="#EBEBEB"/>
<path d="M187.395 179.144H177.915V179.267H187.395V179.144Z" fill="#EBEBEB"/>
<path d="M29.2509 179.974H7.91504V180.097H29.2509V179.974Z" fill="#EBEBEB"/>
<path d="M36.7799 179.974H33.6528V180.097H36.7799V179.974Z" fill="#EBEBEB"/>
<path d="M93.2242 182.058H46.9463V182.182H93.2242V182.058Z" fill="#EBEBEB"/>
<path d="M99.0782 153.747H3.69672C2.94861 153.747 2.23114 153.45 1.70215 152.921C1.17316 152.392 0.875977 151.675 0.875977 150.926V16.84C0.88249 16.0962 1.18255 15.385 1.71083 14.8614C2.23912 14.3377 2.95287 14.0439 3.69672 14.0439H99.0782C99.8263 14.0439 100.544 14.3411 101.073 14.8701C101.602 15.3991 101.899 16.1166 101.899 16.8647V150.926C101.899 151.675 101.602 152.392 101.073 152.921C100.544 153.45 99.8263 153.747 99.0782 153.747ZM3.69672 14.1427C2.98176 14.1441 2.29647 14.4286 1.79092 14.9342C1.28538 15.4397 1.00078 16.125 0.999477 16.84V150.926C1.00078 151.641 1.28538 152.327 1.79092 152.832C2.29647 153.338 2.98176 153.622 3.69672 153.624H99.0782C99.7932 153.622 100.478 153.338 100.984 152.832C101.49 152.327 101.774 151.641 101.775 150.926V16.84C101.774 16.125 101.49 15.4397 100.984 14.9342C100.478 14.4286 99.7932 14.1441 99.0782 14.1427H3.69672Z" fill="#EBEBEB"/>
<path d="M205.935 153.747H110.543C109.796 153.746 109.079 153.448 108.55 152.92C108.022 152.391 107.724 151.674 107.723 150.926V16.84C107.73 16.0966 108.031 15.3862 108.559 14.8628C109.087 14.3394 109.8 14.0452 110.543 14.0439H205.935C206.677 14.0465 207.388 14.3415 207.914 14.8648C208.44 15.3882 208.739 16.0979 208.746 16.84V150.926C208.746 151.673 208.45 152.389 207.923 152.917C207.396 153.446 206.681 153.745 205.935 153.747ZM110.543 14.1427C109.828 14.1441 109.143 14.4286 108.638 14.9342C108.132 15.4397 107.847 16.125 107.846 16.84V150.926C107.847 151.641 108.132 152.327 108.638 152.832C109.143 153.338 109.828 153.622 110.543 153.624H205.935C206.65 153.622 207.335 153.338 207.841 152.832C208.346 152.327 208.631 151.641 208.632 150.926V16.84C208.631 16.125 208.346 15.4397 207.841 14.9342C207.335 14.4286 206.65 14.1441 205.935 14.1427H110.543Z" fill="#EBEBEB"/>
<path d="M229 175.78H-18V175.903H229V175.78Z" fill="#EBEBEB"/>
<path d="M132.498 29.0714H120.439V41.13H132.498V29.0714Z" fill="#FAFAFA"/>
<path d="M146.418 29.0714H134.359V41.13H146.418V29.0714Z" fill="#FAFAFA"/>
<path d="M160.334 29.0714H148.275V41.13H160.334V29.0714Z" fill="#FAFAFA"/>
<path d="M174.255 29.0714H162.196V41.13H174.255V29.0714Z" fill="#FAFAFA"/>
<path d="M188.176 29.0714H176.117V41.13H188.176V29.0714Z" fill="#FAFAFA"/>
<path d="M202.097 29.0714H190.038V41.13H202.097V29.0714Z" fill="#FAFAFA"/>
<path d="M28.0312 55.3621H21.8364V175.646H28.0312V55.3621Z" fill="#EBEBEB"/>
<path d="M28.0312 55.3621H21.8364V63.192H28.0312V55.3621Z" fill="#E0E0E0"/>
<path d="M64.2508 23.3114H9.30811V60.7171H64.2508V23.3114Z" fill="#E6E6E6"/>
<path d="M61.9146 25.6479H11.6353V58.3853H61.9146V25.6479Z" fill="#F5F5F5"/>
<path d="M47.4204 50.6542H25.8672V33.2308H47.4204V50.6542ZM27.3492 49.1722H45.9384V34.7128H27.3492V49.1722Z" fill="#E0E0E0"/>
<path d="M34.3643 54.3395H38.9189V49.7848H34.3643V54.3395Z" fill="#E0E0E0"/>
<path d="M41.7395 69.9054C40.6774 67.1835 41.4036 61.4432 43.9625 52.3486L44.6788 52.5462C42.1644 61.4827 41.4283 67.0698 42.4262 69.6337L41.7395 69.9054Z" fill="#E0E0E0"/>
<path d="M32.245 69.8659L31.5385 69.6337C31.5385 69.5942 31.5781 69.4114 31.5978 69.2632C31.6176 69.115 31.6324 69.0409 31.6373 69.0162C31.7636 68.4978 31.8397 67.9684 31.8646 67.4354C31.9075 66.5722 31.886 65.7069 31.8004 64.8469C31.8004 64.5949 31.751 64.3529 31.7213 64.0762C31.6126 63.0882 31.4447 62.036 31.2273 60.806C31.1335 60.312 31.0297 59.818 30.921 59.2943C30.7333 58.4101 30.5061 57.4566 30.2591 56.4637C29.9627 55.288 29.6268 54.0184 29.2711 52.6895C29.2711 52.6451 29.2414 52.5858 29.2217 52.5216L29.938 52.3339C29.938 52.3783 29.938 52.4277 29.9824 52.4722C30.3579 53.8257 30.6987 55.1003 30.9704 56.2809C31.2224 57.2689 31.4644 58.2569 31.6423 59.1412C31.751 59.6352 31.8547 60.1638 31.9486 60.6676C32.1906 61.9175 32.3635 63.0043 32.4722 63.9923C32.5068 64.259 32.5315 64.5258 32.5562 64.7827C32.642 65.6791 32.6634 66.5804 32.6204 67.4799C32.5897 68.0543 32.507 68.6247 32.3734 69.1842C32.3734 69.1842 32.3734 69.2781 32.3438 69.3719C32.2746 69.7474 32.2598 69.8264 32.245 69.8659Z" fill="#E0E0E0"/>
<path d="M29.4681 51.8239L28.8716 52.2635L41.6498 69.6019L42.2464 69.1623L29.4681 51.8239Z" fill="#E0E0E0"/>
<path d="M33.5252 51.7017L32.9102 52.1167L41.5718 64.9544L42.1868 64.5395L33.5252 51.7017Z" fill="#E0E0E0"/>
<path d="M37.2982 51.8413L36.6646 52.2253L41.9751 60.9872L42.6088 60.6031L37.2982 51.8413Z" fill="#E0E0E0"/>
<path d="M41.2082 51.8566L40.5562 52.2086L42.9309 56.6079L43.5829 56.2559L41.2082 51.8566Z" fill="#E0E0E0"/>
<path d="M30.5833 53.1525L29.9834 53.5874L41.706 69.7577L42.3059 69.3228L30.5833 53.1525Z" fill="#E0E0E0"/>
<path d="M39.5164 70.2265L30.9751 59.4672L31.5531 59.0078L40.0993 69.7622L39.5164 70.2265Z" fill="#E0E0E0"/>
<path d="M36.8834 70.0882L31.8101 64.2936L32.3683 63.8094L37.4417 69.6041L36.8834 70.0882Z" fill="#E0E0E0"/>
<path d="M32.3813 67.1051L31.8628 67.6344L34.2413 69.9644L34.7598 69.4351L32.3813 67.1051Z" fill="#E0E0E0"/>
<path d="M44.4176 51.9144L31.5918 69.5547L32.1911 69.9904L45.0169 52.3502L44.4176 51.9144Z" fill="#E0E0E0"/>
<path d="M42.2156 59.4832L34.1929 69.3165L34.767 69.785L42.7897 59.9517L42.2156 59.4832Z" fill="#E0E0E0"/>
<path d="M37.3823 70.024L37.1007 69.7869L36.8389 69.525L41.4528 64.2936L42.011 64.7826L37.3823 70.024Z" fill="#E0E0E0"/>
<path d="M39.9609 70.2611L39.4175 69.7572L39.4866 69.6831L41.4083 67.6676L41.9418 68.1764L39.9609 70.2611Z" fill="#E0E0E0"/>
<path d="M40.4381 51.8216L31.8623 64.6223L32.4779 65.0347L41.0537 52.234L40.4381 51.8216Z" fill="#E0E0E0"/>
<path d="M36.25 52.0809L30.9531 60.7393L31.583 61.1246L36.8798 52.4662L36.25 52.0809Z" fill="#E0E0E0"/>
<path d="M32.6152 51.8617L30.2451 56.2634L30.8976 56.6147L33.2676 52.213L32.6152 51.8617Z" fill="#E0E0E0"/>
<path d="M28.5596 52.0375C28.5621 51.8169 28.6509 51.606 28.8069 51.45C28.9629 51.294 29.1738 51.2052 29.3944 51.2026H44.17C44.391 51.2039 44.6026 51.2923 44.7589 51.4486C44.9152 51.6049 45.0035 51.8165 45.0048 52.0375C45.0035 52.2581 44.915 52.4691 44.7586 52.6246C44.6021 52.7801 44.3905 52.8674 44.17 52.8674H29.3944C29.1739 52.8674 28.9623 52.7801 28.8058 52.6246C28.6494 52.4691 28.5609 52.2581 28.5596 52.0375Z" fill="#E0E0E0"/>
<path d="M28.0312 175.646H38.3065L28.0312 162.338V175.646Z" fill="#E6E6E6"/>
<path d="M21.8362 175.646H11.5659L21.8362 162.338V175.646Z" fill="#E6E6E6"/>
<path d="M194.203 175.765V173.226H161.584V175.765H157.256L164.652 140.567H191.174L198.57 175.765H194.203Z" fill="#F5F5F5"/>
<path d="M191.822 142.484H164.004C163.501 142.484 163.019 142.284 162.663 141.928C162.307 141.573 162.107 141.09 162.107 140.587C162.107 140.084 162.307 139.601 162.663 139.246C163.019 138.89 163.501 138.69 164.004 138.69H191.822C192.325 138.69 192.807 138.89 193.163 139.246C193.519 139.601 193.718 140.084 193.718 140.587C193.718 141.09 193.519 141.573 193.163 141.928C192.807 142.284 192.325 142.484 191.822 142.484Z" fill="#EBEBEB"/>
<path d="M181.64 152.364H174.166C173.663 152.364 173.18 152.164 172.825 151.808C172.469 151.453 172.269 150.97 172.269 150.467C172.269 149.964 172.469 149.481 172.825 149.126C173.18 148.77 173.663 148.57 174.166 148.57H181.62C182.124 148.57 182.606 148.77 182.962 149.126C183.318 149.481 183.517 149.964 183.517 150.467C183.517 150.967 183.32 151.446 182.969 151.801C182.617 152.157 182.14 152.359 181.64 152.364Z" fill="#E0E0E0"/>
<path d="M65.9799 169.387C65.9997 170.213 65.8541 171.035 65.5517 171.804C65.2493 172.573 64.7962 173.274 64.219 173.865C63.6419 174.457 62.9523 174.927 62.1909 175.248C61.4295 175.569 60.6115 175.735 59.7852 175.735C58.1118 175.729 56.5055 175.077 55.3008 173.916C54.0962 172.754 53.3861 171.173 53.3187 169.501C53.2816 168.672 53.4114 167.844 53.7005 167.067C53.9897 166.289 54.4322 165.577 55.0018 164.974C55.5713 164.371 56.2564 163.888 57.0162 163.555C57.776 163.222 58.595 163.045 59.4245 163.034C61.1339 163.016 62.7814 163.673 64.009 164.862C65.2366 166.052 65.9449 167.678 65.9799 169.387Z" fill="#E0E0E0"/>
<path d="M58.7871 174.559C59.1141 174.802 59.469 175.004 59.8443 175.162C60.3743 175.388 60.9479 175.495 61.5239 175.473C62.3068 175.254 63.041 174.889 63.6876 174.396C64.4007 173.848 64.9871 173.152 65.4067 172.356L65.303 172.45C65.219 172.524 65.135 172.598 65.0461 172.662C64.5406 173.04 63.9832 173.343 63.3912 173.561C62.2763 173.956 61.113 174.197 59.9332 174.278C59.5463 174.351 59.1637 174.445 58.7871 174.559Z" fill="#F0F0F0"/>
<path d="M57.5327 175.399C58.4579 175.737 59.4496 175.852 60.4276 175.735C60.1365 175.678 59.8519 175.592 59.5779 175.478C59.1227 175.294 58.6967 175.044 58.3132 174.737C58.0773 174.804 57.8606 174.926 57.6809 175.093C57.6066 175.181 57.5556 175.286 57.5327 175.399Z" fill="#F0F0F0"/>
<path d="M55.3096 173.981C55.8712 174.522 56.5299 174.951 57.251 175.246C57.2866 175.111 57.3506 174.984 57.4387 174.876C57.6096 174.704 57.8174 174.574 58.0463 174.495C57.9525 174.416 57.8586 174.337 57.7697 174.248C57.558 174.043 57.3584 173.825 57.172 173.596C56.5873 173.861 55.9512 173.992 55.3096 173.981Z" fill="#F0F0F0"/>
<path d="M54.6182 173.216C54.7318 173.364 54.8553 173.507 54.9788 173.645C55.473 173.757 55.9894 173.718 56.4608 173.532C56.6238 173.482 56.7918 173.423 56.9548 173.359C56.6741 172.985 56.4215 172.59 56.199 172.178C55.7267 172.339 55.2103 172.307 54.7614 172.089C54.1345 171.702 53.6533 171.119 53.3931 170.43C53.5668 171.445 53.9875 172.402 54.6182 173.216Z" fill="#F0F0F0"/>
<path d="M54.7858 171.714C55.1612 171.898 55.5939 171.928 55.9912 171.798C55.9467 171.714 55.9072 171.63 55.8628 171.541C55.3072 170.453 54.954 169.273 54.8204 168.058C54.7386 167.227 54.8208 166.388 55.0625 165.588C55.2049 165.137 55.4076 164.706 55.6652 164.309C54.5629 165.154 53.7751 166.343 53.4273 167.688C53.276 168.229 53.2417 168.796 53.3269 169.352C53.4121 169.907 53.6148 170.438 53.9213 170.909C54.1373 171.245 54.4346 171.522 54.7858 171.714Z" fill="#F0F0F0"/>
<path d="M56.3417 171.63C56.9325 171.241 57.3786 170.668 57.6113 170C59.3848 165.06 60.5061 163.533 61.1088 163.084C59.5322 162.691 57.8645 162.928 56.4603 163.746C55.9699 164.261 55.6093 164.886 55.4081 165.569C55.0524 166.715 54.9141 168.651 56.1985 171.329C56.2479 171.442 56.2923 171.536 56.3417 171.63Z" fill="#F0F0F0"/>
<path d="M57.3101 173.142C57.802 172.938 58.2804 172.704 58.7427 172.44C60.3732 171.532 61.8448 170.364 63.0998 168.982C63.8326 168.212 64.4186 167.315 64.8288 166.334C64.8794 166.19 64.9174 166.041 64.9424 165.89C64.8486 165.751 64.7547 165.618 64.651 165.485C63.8633 164.457 62.7758 163.699 61.5388 163.316C61.4153 163.35 61.1535 163.499 60.7434 164.057C59.9432 165.149 58.9947 167.219 57.9276 170.202C57.6989 170.819 57.3163 171.366 56.8161 171.793C56.7321 171.86 56.641 171.918 56.5444 171.966C56.768 172.377 57.0241 172.771 57.3101 173.142Z" fill="#F0F0F0"/>
<path d="M57.5327 173.428C57.8045 173.754 58.1055 174.055 58.4318 174.327C58.8749 174.183 59.3271 174.07 59.7854 173.986C62.7197 173.739 64.2314 172.9 64.9872 172.238C65.2325 172.026 65.447 171.782 65.6244 171.511C65.9322 170.659 66.0514 169.749 65.9738 168.846C65.8962 167.943 65.6236 167.068 65.1749 166.28C65.1749 166.329 65.1453 166.389 65.1255 166.443C64.7065 167.474 64.1002 168.419 63.3372 169.229C62.669 169.981 61.9276 170.664 61.1241 171.269C60.4238 171.817 59.6841 172.312 58.911 172.751C58.4638 173.001 58.0038 173.227 57.5327 173.428Z" fill="#F0F0F0"/>
<path d="M125.546 163.01C126.373 162.988 127.195 163.133 127.965 163.435C128.734 163.736 129.436 164.189 130.028 164.765C130.62 165.342 131.09 166.032 131.412 166.793C131.733 167.555 131.899 168.373 131.899 169.199C131.893 170.874 131.241 172.482 130.078 173.687C128.916 174.893 127.333 175.603 125.66 175.671C124.831 175.707 124.004 175.577 123.226 175.287C122.449 174.997 121.738 174.554 121.135 173.984C120.532 173.414 120.05 172.729 119.717 171.969C119.385 171.209 119.208 170.39 119.199 169.56C119.181 167.852 119.838 166.207 121.027 164.98C122.215 163.754 123.839 163.046 125.546 163.01Z" fill="#E0E0E0"/>
<path d="M130.724 170.212C130.965 169.885 131.165 169.53 131.321 169.155C131.553 168.625 131.66 168.048 131.633 167.47C131.406 166.645 131.014 165.875 130.478 165.207C129.943 164.539 129.277 163.988 128.521 163.588L128.614 163.691C128.688 163.775 128.758 163.859 128.827 163.953C129.206 164.458 129.508 165.016 129.726 165.608C130.121 166.723 130.362 167.886 130.442 169.066C130.513 169.453 130.607 169.836 130.724 170.212Z" fill="#F0F0F0"/>
<path d="M131.563 171.467C131.898 170.541 132.013 169.55 131.899 168.572C131.842 168.863 131.756 169.148 131.642 169.422C131.457 169.876 131.207 170.302 130.901 170.686C130.966 170.922 131.089 171.137 131.257 171.314C131.345 171.389 131.45 171.442 131.563 171.467Z" fill="#F0F0F0"/>
<path d="M130.146 173.69C130.686 173.127 131.115 172.466 131.41 171.744C131.275 171.709 131.149 171.647 131.04 171.561C130.869 171.389 130.739 171.182 130.659 170.953C130.58 171.047 130.496 171.136 130.412 171.225C130.205 171.437 129.986 171.636 129.755 171.823C130.021 172.409 130.154 173.046 130.146 173.69Z" fill="#F0F0F0"/>
<path d="M129.38 174.377C129.528 174.263 129.671 174.144 129.81 174.016C129.926 173.522 129.888 173.005 129.701 172.534C129.652 172.376 129.592 172.208 129.528 172.04C129.152 172.322 128.756 172.577 128.342 172.801C128.424 173.033 128.458 173.279 128.444 173.525C128.43 173.771 128.367 174.012 128.258 174.233C127.872 174.86 127.288 175.341 126.599 175.602C127.613 175.432 128.569 175.01 129.38 174.377Z" fill="#F0F0F0"/>
<path d="M127.878 174.214C128.062 173.836 128.092 173.402 127.962 173.003L127.73 173.112C126.642 173.668 125.461 174.021 124.247 174.154C123.416 174.241 122.576 174.159 121.777 173.912C121.326 173.771 120.895 173.57 120.498 173.315C121.344 174.414 122.533 175.2 123.877 175.547C124.418 175.699 124.985 175.733 125.54 175.648C126.096 175.563 126.627 175.36 127.097 175.053C127.421 174.84 127.689 174.552 127.878 174.214Z" fill="#F0F0F0"/>
<path d="M127.789 172.652C127.397 172.065 126.825 171.621 126.159 171.388C121.219 169.609 119.692 168.488 119.243 167.89C118.851 169.465 119.086 171.13 119.9 172.534C120.417 173.024 121.044 173.385 121.728 173.586C122.874 173.947 124.81 174.08 127.488 172.796C127.606 172.751 127.7 172.702 127.789 172.652Z" fill="#F0F0F0"/>
<path d="M129.306 171.684C129.099 171.195 128.865 170.719 128.604 170.257C127.697 168.624 126.529 167.15 125.146 165.895C124.374 165.163 123.475 164.579 122.493 164.17C122.351 164.117 122.204 164.079 122.054 164.057C121.915 164.146 121.782 164.245 121.649 164.343C120.619 165.131 119.861 166.221 119.48 167.461C119.515 167.584 119.663 167.846 120.221 168.251C121.313 169.051 123.383 170 126.361 171.072C126.98 171.297 127.529 171.678 127.957 172.178C128.024 172.264 128.082 172.357 128.13 172.455C128.541 172.228 128.934 171.97 129.306 171.684Z" fill="#F0F0F0"/>
<path d="M129.588 171.462C129.916 171.193 130.219 170.894 130.492 170.568C130.348 170.123 130.234 169.669 130.151 169.209C129.904 166.27 129.064 164.763 128.407 164.003C128.195 163.76 127.95 163.547 127.681 163.37C126.828 163.06 125.919 162.94 125.015 163.017C124.112 163.095 123.236 163.369 122.449 163.82L122.612 163.869C123.642 164.287 124.586 164.894 125.393 165.657C126.147 166.324 126.832 167.063 127.439 167.866C127.986 168.568 128.481 169.309 128.921 170.084C129.169 170.53 129.392 170.99 129.588 171.462Z" fill="#F0F0F0"/>
<path d="M74.9117 163.01C75.738 162.988 76.5602 163.133 77.3298 163.435C78.0994 163.736 78.8008 164.189 79.3929 164.765C79.9849 165.342 80.4555 166.032 80.7769 166.793C81.0984 167.555 81.2642 168.373 81.2646 169.199C81.2583 170.874 80.606 172.482 79.4437 173.687C78.2813 174.893 76.6986 175.603 75.0253 175.671C74.1965 175.707 73.3688 175.577 72.5914 175.287C71.8141 174.997 71.1029 174.554 70.5001 173.984C69.8973 173.414 69.4153 172.729 69.0827 171.969C68.7501 171.209 68.5736 170.39 68.5638 169.56C68.5465 167.852 69.2034 166.207 70.3918 164.98C71.5802 163.754 73.2044 163.046 74.9117 163.01Z" fill="#E0E0E0"/>
<path d="M80.089 170.212C80.33 169.885 80.5307 169.53 80.6867 169.155C80.916 168.624 81.0224 168.048 80.9979 167.47C80.7717 166.645 80.3788 165.875 79.8436 165.207C79.3084 164.539 78.6421 163.988 77.8857 163.588L77.9796 163.691C78.0537 163.775 78.1229 163.859 78.192 163.953C78.5707 164.458 78.8736 165.016 79.0911 165.608C79.4866 166.722 79.726 167.886 79.8025 169.066C79.8774 169.453 79.9731 169.836 80.089 170.212Z" fill="#F0F0F0"/>
<path d="M80.9286 171.467C81.2637 170.541 81.3787 169.55 81.2645 168.572C81.2072 168.863 81.1211 169.148 81.0076 169.422C80.822 169.876 80.5725 170.302 80.2666 170.686C80.3317 170.922 80.4539 171.137 80.6223 171.314C80.7102 171.389 80.8154 171.442 80.9286 171.467Z" fill="#F0F0F0"/>
<path d="M79.5104 173.69C80.049 173.125 80.4779 172.465 80.775 171.744C80.64 171.709 80.5138 171.647 80.4045 171.561C80.2335 171.389 80.1035 171.182 80.0241 170.953C79.9451 171.047 79.8611 171.136 79.7771 171.225C79.5698 171.437 79.3505 171.636 79.1201 171.823C79.3855 172.409 79.5187 173.046 79.5104 173.69Z" fill="#F0F0F0"/>
<path d="M78.7449 174.377C78.8931 174.263 79.0364 174.144 79.1747 174.016H79.15C79.2668 173.522 79.2288 173.005 79.0413 172.534C78.9919 172.376 78.9327 172.208 78.8684 172.04C78.4925 172.322 78.0962 172.577 77.6828 172.801C77.7643 173.033 77.7988 173.279 77.7844 173.525C77.77 173.771 77.7069 174.012 77.5989 174.233C77.211 174.861 76.6254 175.343 75.9341 175.602C76.959 175.435 77.9256 175.014 78.7449 174.377Z" fill="#F0F0F0"/>
<path d="M77.2432 174.214C77.4273 173.836 77.4575 173.402 77.3271 173.003L77.0703 173.132C75.9894 173.684 74.8181 174.037 73.6123 174.174C72.781 174.261 71.9408 174.178 71.1423 173.932C70.6909 173.791 70.2605 173.59 69.8628 173.334C70.7084 174.435 71.8979 175.221 73.2418 175.567C73.7829 175.719 74.3501 175.753 74.9055 175.668C75.4609 175.582 75.9917 175.38 76.4626 175.073C76.7887 174.854 77.0566 174.559 77.2432 174.214Z" fill="#F0F0F0"/>
<path d="M77.1541 172.652C76.7614 172.064 76.1873 171.62 75.519 171.388C70.579 169.609 69.0574 168.488 68.6277 167.89C68.2355 169.465 68.4711 171.13 69.2847 172.534C69.802 173.024 70.4285 173.385 71.1125 173.586C72.2586 173.947 74.195 174.08 76.8725 172.796L77.1541 172.652Z" fill="#F0F0F0"/>
<path d="M78.6704 171.684C78.4618 171.196 78.2277 170.72 77.9689 170.257C77.0617 168.624 75.8937 167.15 74.5109 165.895C73.7392 165.163 72.8401 164.579 71.8581 164.17C71.716 164.117 71.5686 164.079 71.4185 164.057C71.2801 164.146 71.1468 164.245 71.0134 164.343C69.9837 165.131 69.2256 166.221 68.8447 167.461C68.8793 167.584 69.0275 167.846 69.5857 168.251C70.6775 169.051 72.7473 170 75.7261 171.072C76.3444 171.297 76.894 171.678 77.3218 172.178C77.3875 172.265 77.4454 172.358 77.4947 172.455C77.9054 172.228 78.2984 171.97 78.6704 171.684Z" fill="#F0F0F0"/>
<path d="M78.9528 171.462C79.2816 171.193 79.5843 170.894 79.8568 170.568C79.7134 170.123 79.5996 169.669 79.5159 169.209C79.2689 166.27 78.4291 164.763 77.7721 164.003C77.5598 163.76 77.3155 163.547 77.0459 163.37C76.1937 163.06 75.2841 162.94 74.3805 163.017C73.477 163.095 72.6013 163.369 71.8145 163.82L71.9775 163.869C73.0076 164.287 73.9508 164.894 74.7587 165.657C75.5122 166.324 76.1973 167.063 76.8039 167.866C77.3511 168.568 77.8464 169.309 78.2859 170.084C78.5345 170.53 78.7571 170.99 78.9528 171.462Z" fill="#F0F0F0"/>
<path d="M103.119 196.187C156.018 196.187 198.901 193.683 198.901 190.595C198.901 187.506 156.018 185.003 103.119 185.003C50.2203 185.003 7.3374 187.506 7.3374 190.595C7.3374 193.683 50.2203 196.187 103.119 196.187Z" fill="#F5F5F5"/>
<path d="M160.774 59.1018L161.238 59.1808C161.688 59.2599 161.831 59.0326 162.063 58.6325C162.478 57.847 162.063 57.0467 162.063 56.1625L158.882 56.3947L159.954 58.509C160.035 58.6647 160.152 58.7993 160.294 58.9022C160.436 59.0051 160.601 59.0734 160.774 59.1018Z" fill="#D8C0BE"/>
<path d="M158.852 56.3847L162.043 56.1575L161.001 53.1935C160.952 53.0537 160.875 52.9258 160.773 52.8183C160.671 52.7109 160.548 52.6263 160.411 52.5702C160.274 52.5141 160.127 52.4878 159.979 52.4931C159.831 52.4983 159.686 52.535 159.553 52.6007L159.405 52.6698C159.235 52.7604 159.092 52.8966 158.995 53.0632C158.897 53.2298 158.848 53.4203 158.852 53.6134V56.3847Z" fill="#D8C0BE"/>
<path d="M162.251 58.01L159.954 58.504L157.405 69.7474C157.306 70.1448 157.306 70.5604 157.405 70.9578L161.411 86.2718C161.411 86.2718 166.672 86.583 165.101 80.5117C163.53 74.4405 162.024 70.2217 162.024 70.2217L162.251 58.01Z" fill="#D8C0BE"/>
<path d="M162.251 58.01L159.954 58.504L157.405 69.7474C157.306 70.1448 157.306 70.5604 157.405 70.9578L161.411 86.2718C161.411 86.2718 166.672 86.583 165.101 80.5117C163.53 74.4405 162.024 70.2217 162.024 70.2217L162.251 58.01Z" fill="#D8C0BE"/>
<path opacity="0.1" d="M162.251 58.01L159.954 58.504L157.405 69.7474C157.306 70.1448 157.306 70.5604 157.405 70.9578L161.411 86.2718C161.411 86.2718 166.672 86.583 165.101 80.5117C163.53 74.4405 162.024 70.2217 162.024 70.2217L162.251 58.01Z" fill="black"/>
<path d="M160.067 53.0107C160.093 54.0431 159.913 55.0704 159.536 56.0319C159.159 56.9934 158.593 57.8697 157.872 58.6091C157.151 59.3485 156.289 59.9361 155.338 60.3371C154.386 60.7382 153.364 60.9447 152.331 60.9443C150.238 60.9371 148.229 60.1224 146.723 58.6701C145.216 57.2178 144.328 55.24 144.244 53.149C144.199 52.1132 144.363 51.0789 144.725 50.1075C145.087 49.1361 145.641 48.2473 146.353 47.494C147.065 46.7407 147.922 46.1381 148.872 45.7221C149.821 45.3061 150.845 45.085 151.881 45.0721C154.017 45.0495 156.074 45.8709 157.607 47.3575C159.14 48.8441 160.024 50.8758 160.067 53.0107Z" fill="#263238"/>
<path d="M151.072 59.4921C151.478 59.7978 151.921 60.0517 152.391 60.2479C153.054 60.5297 153.771 60.6612 154.49 60.6332C155.522 60.3499 156.486 59.8585 157.321 59.189C158.156 58.5196 158.845 57.6863 159.346 56.7405L159.213 56.864C159.114 56.9529 159.005 57.0418 158.892 57.1307C158.259 57.6005 157.562 57.9765 156.822 58.2472C155.436 58.7424 153.988 59.0433 152.519 59.1413C152.031 59.2319 151.548 59.349 151.072 59.4921Z" fill="#FFC100"/>
<path d="M149.5 60.5244C150.658 60.9468 151.898 61.0906 153.122 60.9443C152.757 60.8724 152.4 60.7665 152.054 60.6282C151.489 60.3901 150.957 60.0778 150.474 59.6995C150.182 59.7845 149.913 59.9348 149.688 60.1391C149.598 60.2523 149.534 60.3838 149.5 60.5244Z" fill="#FFC100"/>
<path d="M146.725 58.7559C147.426 59.4295 148.249 59.9642 149.15 60.3318C149.197 60.1641 149.278 60.0077 149.387 59.8724C149.596 59.6497 149.855 59.4803 150.143 59.3784C150.029 59.2796 149.911 59.1759 149.802 59.0672C149.536 58.8121 149.287 58.5398 149.056 58.2521C148.324 58.5842 147.529 58.756 146.725 58.7559Z" fill="#FFC100"/>
<path d="M145.859 57.7976C146.002 57.9832 146.153 58.1612 146.314 58.3311V58.3064C146.928 58.4482 147.571 58.4 148.157 58.1681C148.354 58.1039 148.567 58.0347 148.784 57.9508C148.433 57.4801 148.116 56.9849 147.835 56.4688C147.247 56.6713 146.602 56.6322 146.042 56.3601C145.261 55.8739 144.661 55.1451 144.333 54.2853C144.542 55.5647 145.067 56.7719 145.859 57.7976Z" fill="#FFC100"/>
<path d="M146.067 55.9204C146.3 56.0363 146.554 56.1051 146.813 56.1229C147.072 56.1407 147.333 56.1072 147.579 56.0241L147.416 55.703C146.723 54.3424 146.282 52.8682 146.112 51.3509C146.008 50.31 146.112 49.2589 146.418 48.2585C146.594 47.6946 146.847 47.1577 147.169 46.6628C145.792 47.7171 144.807 49.2024 144.373 50.8816C144.186 51.5591 144.146 52.2686 144.255 52.9629C144.364 53.6572 144.62 54.3202 145.005 54.9077C145.27 55.3279 145.635 55.6759 146.067 55.9204Z" fill="#FFC100"/>
<path d="M148.014 55.8117C148.72 55.4708 149.362 54.4285 149.599 53.7715C151.817 47.5866 153.22 45.6896 153.971 45.1512C152.001 44.6638 149.918 44.9595 148.162 45.9761C147.551 46.6231 147.1 47.405 146.848 48.2584C146.398 49.696 146.205 52.1067 147.836 55.456L148.014 55.8117Z" fill="#FFC100"/>
<path d="M149.224 57.7037C149.836 57.4467 150.434 57.1548 151.012 56.8293C153.047 55.6947 154.883 54.2345 156.446 52.5068C157.363 51.5433 158.094 50.4198 158.605 49.1921C158.67 49.0145 158.716 48.8308 158.744 48.6437C158.635 48.4708 158.511 48.2979 158.388 48.1497C157.402 46.8642 156.039 45.918 154.49 45.4426C154.337 45.4871 153.996 45.6649 153.502 46.3664C152.514 47.7348 151.319 50.3184 149.98 54.0432C149.693 54.8079 149.217 55.4876 148.597 56.0192C148.488 56.1015 148.372 56.1742 148.251 56.2365C148.538 56.7495 148.863 57.24 149.224 57.7037Z" fill="#FFC100"/>
<path d="M149.505 58.0593C149.842 58.4697 150.218 58.8468 150.627 59.1856C151.181 59.0057 151.747 58.8637 152.321 58.7608C155.992 58.4545 157.884 57.4023 158.822 56.5773C159.127 56.3137 159.395 56.0095 159.618 55.6733C160.008 54.6064 160.161 53.4672 160.066 52.3351C159.972 51.203 159.631 50.1052 159.069 49.1179C159.069 49.1838 159.049 49.2529 159.01 49.3254C158.484 50.6063 157.725 51.7788 156.772 52.7834C155.937 53.7222 155.012 54.5776 154.011 55.3374C153.133 56.0149 152.206 56.6275 151.239 57.1701C150.679 57.4994 150.1 57.7963 149.505 58.0593Z" fill="#FFC100"/>
<path d="M149.866 67.9641C149.683 67.9246 149.486 68.1173 149.426 68.3988C149.367 68.6804 149.466 68.9422 149.649 68.9768C149.831 69.0114 150.029 68.8187 150.088 68.5372C150.148 68.2556 150.054 67.9987 149.866 67.9641Z" fill="#263238"/>
<path d="M149.293 71.6691C149.052 71.6794 148.812 71.637 148.59 71.5449C148.367 71.4527 148.167 71.313 148.004 71.1356C148.714 70.5181 149.338 69.8068 149.856 69.0212L149.293 71.6691Z" fill="#DAA79F"/>
<path d="M151.329 67.1688C151.196 67.0032 151.025 66.8719 150.83 66.786C150.636 66.7 150.424 66.6619 150.212 66.6748H150.153C150.107 66.6748 150.063 66.6566 150.031 66.6241C149.998 66.5917 149.98 66.5477 149.98 66.5019C149.98 66.456 149.998 66.4121 150.031 66.3796C150.063 66.3472 150.107 66.329 150.153 66.329C150.418 66.3043 150.685 66.3434 150.931 66.4431C151.178 66.5428 151.397 66.7002 151.571 66.902C151.595 66.9334 151.611 66.971 151.615 67.0107C151.615 67.0566 151.597 67.1005 151.564 67.133C151.532 67.1654 151.488 67.1836 151.442 67.1836C151.404 67.1936 151.363 67.1882 151.329 67.1688Z" fill="#263238"/>
<path d="M153.186 84.2661C158.012 84.3155 158.753 81.6874 158.753 81.6874C157.321 80.2844 157.246 77.7107 157.553 75.4136C157.164 75.9575 156.676 76.4234 156.115 76.7869C155.604 77.1344 155.025 77.3704 154.417 77.4793C153.808 77.5883 153.183 77.5678 152.583 77.4192C152.564 77.4235 152.543 77.4235 152.524 77.4192C152.534 77.4649 152.543 77.511 152.549 77.5575C152.835 79.4002 152.583 81.3663 150.652 81.9443C150.652 81.9245 147.87 84.192 153.186 84.2661Z" fill="#D8C0BE"/>
<path d="M152.391 76.7178C152.44 76.9401 152.494 77.1624 152.524 77.3995C152.544 77.4038 152.564 77.4038 152.583 77.3995C153.183 77.5481 153.808 77.5686 154.417 77.4597C155.025 77.3507 155.604 77.1148 156.115 76.7672C156.677 76.4037 157.164 75.9379 157.553 75.3939C157.627 74.811 157.736 74.2429 157.839 73.7192L152.583 76.5943L152.391 76.7178Z" fill="#D8C0BE"/>
<path d="M147.984 81.6231C148.764 81.4947 149.639 81.3761 150.533 81.302C153.223 81.1736 155.918 81.2033 158.605 81.391C159.884 81.4848 161.49 81.5095 163.021 81.6034C163.4 81.6258 163.77 81.7236 164.11 81.891C164.451 82.0584 164.754 82.292 165.003 82.5781C165.252 82.8643 165.441 83.1973 165.56 83.5575C165.678 83.9177 165.724 84.298 165.694 84.6761C164.078 102.149 165.323 111.742 165.62 114.316L146.961 113.916C144.985 98.2808 143.098 89.4283 143.864 85.5998C144.066 84.5975 144.569 83.6804 145.305 82.9701C146.041 82.2599 146.975 81.7902 147.984 81.6231Z" fill="#E4E0D0"/>
<path d="M148.933 72.7806C148.949 73.6108 149.175 74.4234 149.59 75.1423C150.006 75.8611 150.597 76.4627 151.309 76.8907C151.678 77.1155 152.08 77.2821 152.499 77.3847C152.519 77.389 152.539 77.389 152.559 77.3847C153.159 77.5333 153.783 77.5538 154.392 77.4448C155.001 77.3359 155.579 77.0999 156.091 76.7524C156.652 76.3889 157.14 75.923 157.528 75.3791C158.477 74.0799 158.867 72.3509 159.544 69.9154C159.756 69.2005 159.796 68.4457 159.662 67.7122C159.55 67.0897 159.316 66.4955 158.974 65.9635C158.631 65.4315 158.188 64.9721 157.668 64.6115C157.148 64.2509 156.563 63.9963 155.945 63.8621C155.326 63.7279 154.688 63.7168 154.065 63.8294C150.425 64.516 148.859 69.5202 148.933 72.7806Z" fill="#D8C0BE"/>
<path opacity="0.2" d="M151.333 76.8956C151.702 77.1204 152.104 77.287 152.524 77.3896L152.39 75.2407C152.39 75.2407 151.59 76.9006 151.333 76.8956Z" fill="black"/>
<path d="M151.042 70.9182C151.111 71.6719 151.339 72.4025 151.711 73.0616C152.083 73.7207 152.591 74.2934 153.201 74.7417C153.349 74.8546 153.517 74.9399 153.695 74.9937C154.312 75.1271 154.885 74.6034 155.177 74.0353C155.499 73.2818 155.659 72.4688 155.646 71.6493C155.715 69.7276 155.473 67.6182 154.12 66.2499C153.824 65.9 153.405 65.6772 152.949 65.6274C151.235 65.5632 150.948 69.8166 151.042 70.9182Z" fill="#263238"/>
<path d="M150.948 64.0566C151.491 63.5123 152.175 63.1293 152.924 62.9501C153.954 62.6014 155.028 62.3969 156.115 62.3424C157.214 62.2933 158.293 62.6443 159.153 63.3304C160.067 64.1159 160.502 65.3064 160.902 66.4426L161.628 68.4927C161.807 68.8977 161.885 69.3402 161.855 69.7821C161.773 70.1373 161.622 70.473 161.411 70.7701L159.405 74.0107C159.089 74.4602 158.855 74.9619 158.713 75.4927C158.647 75.7595 158.65 76.039 158.724 76.3039C158.798 76.5688 158.939 76.8102 159.133 77.0044C158.795 76.9606 158.469 76.8471 158.176 76.6711C157.884 76.4951 157.631 76.2604 157.434 75.9818C157.407 76.2993 157.462 76.6185 157.595 76.9084C157.727 77.1983 157.932 77.4491 158.19 77.6367C157.409 77.3499 156.716 76.8647 156.179 76.2288C156.29 76.5771 156.499 76.8858 156.782 77.118C155.705 77.281 154.806 76.3128 154.208 75.4137C153.452 74.3022 152.726 72.9091 153.279 71.679C153.457 71.274 153.773 70.9282 153.931 70.5231C154.087 70.0696 154.123 69.5838 154.036 69.1123C153.95 68.6409 153.744 68.1996 153.437 67.8308C152.815 67.1002 152.07 66.4848 151.234 66.0129C151.234 66.0129 150.152 64.9508 150.948 64.0566Z" fill="#263238"/>
<path d="M151.936 68.384C150.919 68.6804 150.39 70.1772 150.351 71.1257C150.301 72.1779 150.998 72.8399 151.917 72.1137C152.607 71.5752 153.098 70.8228 153.315 69.9747C153.547 68.9521 152.924 68.0728 151.936 68.384Z" fill="#D8C0BE"/>
<path d="M144.358 87.0769C142.535 87.2894 135.866 72.8003 135.861 71.6197C135.861 69.2188 142.871 61.9916 144.487 60.2231C144.852 59.823 146.067 59.6501 146.843 61.2901C144.758 65.1186 141.488 71.0763 141.73 72.0593C142.175 73.8822 148.043 81.9393 148.231 83.9153C148.315 84.7749 148.246 86.6323 144.358 87.0769Z" fill="#D8C0BE"/>
<path d="M144.437 60.6381C144.413 60.8357 146.067 58.0693 146.186 57.9112C146.287 57.7918 146.412 57.6943 146.552 57.6247C147.599 57.017 148.187 56.0686 149.392 55.9945C149.48 55.9771 149.571 55.9911 149.649 56.034C149.713 56.0784 151.215 56.5626 151.521 57.1554C151.601 57.2817 151.647 57.4262 151.655 57.5753C151.642 57.7226 151.591 57.8639 151.506 57.9853L150.4 59.9613C150.212 60.2972 148.463 60.6825 147.955 60.9839C146.137 62.0558 144.457 60.4405 144.437 60.6381Z" fill="#D8C0BE"/>
<path d="M165.709 114.099C166.056 114.424 166.363 114.791 166.622 115.19C168.008 117.196 168.88 119.511 169.162 121.932C169.444 124.353 169.126 126.807 168.238 129.077L166.993 132.303L162.547 158.603C165.303 162.061 170.816 181.535 170.816 181.535H166.227L154.865 163.538C153.462 160.794 152.831 157.721 153.037 154.646L155.769 114.104L165.709 114.099Z" fill="#D8C0BE"/>
<path opacity="0.8" d="M171.049 182.004C171.049 182.004 167.897 171.936 167.675 171.245C167.453 170.553 159.998 170.622 160.265 172.109L166.618 182.192L171.049 182.004Z" fill="white"/>
<path d="M170.816 180.077L173.4 188.283C173.464 188.969 172.857 190.224 171.982 190.224H166.548C165.738 190.224 165.066 189.73 165.037 189.088C166.815 186.845 165.941 183.496 165.13 180.379C165.111 180.379 169.774 177.983 170.816 180.077Z" fill="#263238"/>
<path opacity="0.1" d="M165.708 114.099C166.056 114.424 166.363 114.791 166.622 115.19C168.008 117.196 168.88 119.511 169.162 121.932C169.443 124.353 169.126 126.807 168.238 129.077L166.993 132.303L162.547 158.603C165.303 162.061 170.816 181.535 170.816 181.535H166.188L154.87 163.538C153.467 160.794 152.835 157.721 153.042 154.646L155.774 114.104L165.708 114.099Z" fill="black"/>
<path d="M167.141 186.07C164.177 188.105 164.271 188.382 162.201 188.624C161.658 188.752 161.875 190.19 163.145 190.199C165.244 190.229 165.067 190.145 166.86 190.16C168.386 190.16 170.599 190.254 171.8 190.283H171.839C171.98 190.263 172.107 190.187 172.193 190.074C172.279 189.96 172.317 189.817 172.299 189.676L171.978 186.07C171.974 186.007 171.947 185.948 171.902 185.904C171.858 185.86 171.798 185.835 171.736 185.833H167.897C167.627 185.836 167.365 185.918 167.141 186.07Z" fill="#263238"/>
<path d="M155.928 113.832C156.155 113.995 155.434 113.338 156.975 115.625C160.389 120.639 156.481 131.819 156.481 131.819L153.799 157.595L153.64 156.894C156.639 160.149 155.814 181.293 155.814 181.293L151.393 181.505L146.804 161.78C145.203 159.137 145.899 158.03 145.88 154.967L146.996 114.277L155.928 113.832Z" fill="#D8C0BE"/>
<path opacity="0.8" d="M149.175 172.065L151.373 181.51L155.794 181.298C156.003 178.008 156.033 174.71 155.883 171.418C154.79 171.006 153.617 170.85 152.454 170.962C151.291 171.074 150.169 171.452 149.175 172.065Z" fill="white"/>
<path d="M150.948 186.588L153.977 186.509C154.027 186.514 154.074 186.535 154.11 186.57C154.146 186.605 154.169 186.652 154.174 186.702L154.52 189.725C154.539 189.841 154.514 189.959 154.449 190.057C154.383 190.154 154.283 190.223 154.169 190.249H154.14C153.181 190.249 151.432 190.249 150.227 190.249C148.814 190.279 148.958 190.343 147.303 190.367C146.315 190.392 146.092 189.187 146.517 189.068C148.147 188.816 148.078 188.574 150.351 186.806C150.523 186.673 150.731 186.597 150.948 186.588Z" fill="#263238"/>
<path d="M155.843 179.993C156.012 180.044 156.156 180.153 156.252 180.301C156.348 180.448 156.389 180.624 156.367 180.799L157.103 189.058C157.167 189.745 156.476 190.333 155.621 190.333L152.163 190.264C151.815 190.298 151.466 190.2 151.186 189.99C150.906 189.78 150.715 189.472 150.651 189.128C151.536 187.25 150.281 182.463 150.414 180.986C150.427 180.85 150.476 180.719 150.558 180.609C150.64 180.5 150.751 180.415 150.879 180.364C152.455 179.727 154.19 179.598 155.843 179.993Z" fill="#263238"/>
<path d="M153.848 142.691L155.774 114.099H165.709C166.057 114.424 166.364 114.791 166.623 115.19C169.458 119.276 170.738 124.463 168.954 129.077L167.71 132.303L167.66 144.03L166.178 144.297C161.994 145.048 157.681 144.487 153.828 142.691H153.848Z" fill="#E4E0D0"/>
<g opacity="0.1">
<path d="M153.848 142.691L155.774 114.099H165.709C166.057 114.424 166.364 114.791 166.623 115.19C169.458 119.276 170.738 124.463 168.954 129.077L167.71 132.303L167.66 144.03L166.178 144.297C161.994 145.048 157.681 144.487 153.828 142.691H153.848Z" fill="black"/>
</g>
<path opacity="0.6" d="M153.857 142.662C157.711 144.455 162.025 145.01 166.207 144.253L167.689 143.996V141.259C166.58 141.498 165.444 141.594 164.31 141.545C162.404 141.545 160.072 141.624 158.165 141.615C156.876 142.409 155.368 142.776 153.857 142.662Z" fill="white"/>
<path d="M157.415 144.213L157.988 135.909C158.215 132.658 160.789 128.538 160.764 124.349C160.734 119.123 158.067 114.099 158.067 114.099H146.433C145.905 114.736 145.476 115.449 145.159 116.213C143.104 122.507 144.432 132.303 144.432 132.303L144.482 144.03L146.557 144.198C150.049 144.475 152.682 145.626 156.041 144.623L157.415 144.213Z" fill="#E4E0D0"/>
<path opacity="0.6" d="M144.472 141.605V144.035L146.551 144.198C150.039 144.475 152.672 145.626 156.031 144.623L157.405 144.218L157.558 141.99C155.463 143.047 152.865 142.736 150.518 142.262C148.537 141.857 146.448 141.363 144.472 141.605Z" fill="white"/>
<path opacity="0.6" d="M144.072 92.8419C144.555 93.2777 145.141 93.5844 145.775 93.7338C146.409 93.8832 147.07 93.8704 147.698 93.6965C148.953 93.2476 150.012 92.3738 150.691 91.2265C151.791 89.618 152.372 87.7113 152.356 85.7629C152.322 84.1476 151.764 82.5872 150.765 81.3169H150.533C149.639 81.391 148.765 81.5096 147.984 81.638C146.978 81.8027 146.046 82.2686 145.31 82.9742C144.575 83.6798 144.071 84.5919 143.864 85.59C143.538 87.156 143.681 89.5272 144.072 92.8419Z" fill="white"/>
<path d="M148.325 81.722C149.077 82.3256 149.639 83.1328 149.945 84.0473C150.25 84.9618 150.287 85.9449 150.049 86.8794C149.663 88.2873 148.567 90.7227 147.198 91.9132C147.042 92.0501 146.858 92.1504 146.658 92.2069C146.458 92.2633 146.249 92.2744 146.044 92.2394C145.84 92.2043 145.645 92.124 145.476 92.0044C145.306 91.8847 145.166 91.7287 145.064 91.5477C144.335 90.0229 143.75 88.4336 143.315 86.8003C143.094 86.1124 143.038 85.3818 143.153 84.6682C143.268 83.9546 143.551 83.2785 143.977 82.6952C144.424 82.1269 145.037 81.7126 145.73 81.5106C146.424 81.3086 147.164 81.3289 147.845 81.5689" fill="#D8C0BE"/>
<path d="M146.324 114.168L165.704 113.916V111.639L146.324 111.891V114.168Z" fill="#E4E0D0"/>
<g opacity="0.6">
<path d="M147.194 93.68L146.805 93.7104L148.235 111.962L148.624 111.932L147.194 93.68Z" fill="white"/>
</g>
<path opacity="0.6" d="M146.324 114.168L165.704 113.916V111.639L146.324 111.891V114.168Z" fill="white"/>
<path d="M100.56 85.9655C101.138 85.7148 101.63 85.3007 101.976 84.7741C102.321 84.2475 102.505 83.6314 102.505 83.0015C102.505 82.3716 102.321 81.7554 101.976 81.2288C101.63 80.7022 101.138 80.2881 100.56 80.0375L100.387 79.9634C99.1955 79.5085 97.9209 79.3115 96.6476 79.3854C95.3879 79.3854 94.1133 79.3854 92.8981 79.336C91.6829 79.2866 90.4281 79.2619 89.2524 79.173C88.1409 79.1087 89.0153 79.173 87.9285 78.9111L87.5925 78.8123L87.2961 78.7136C87.2961 78.7136 79.3477 73.4623 77.2185 71.9902C77.0687 71.8624 76.8951 71.7654 76.7078 71.7047C76.5204 71.6439 76.3229 71.6207 76.1266 71.6363C75.7301 71.6678 75.3623 71.8555 75.1042 72.1582C74.9764 72.308 74.8794 72.4816 74.8187 72.6689C74.7579 72.8563 74.7347 73.0538 74.7503 73.2501C74.7818 73.6466 74.9695 74.0144 75.2722 74.2725C77.1296 76.1843 81.0125 80.9069 82.0943 81.7665L83.8381 83.0311C84.1494 83.2435 84.4655 83.451 84.7965 83.6634L85.3844 83.9944C86.2481 84.648 87.2266 85.1339 88.2693 85.427C89.6281 85.7526 91.0034 86.0049 92.3893 86.1828C93.7428 86.3607 95.1063 86.4792 96.4648 86.5484C97.1444 86.597 97.8268 86.5887 98.505 86.5237C99.2154 86.4552 99.9115 86.2804 100.57 86.005L100.56 85.9655Z" fill="#FBE5C5"/>
<path d="M76.5218 74.6281C74.9706 75.3592 73.1626 72.736 73.1626 72.736L71.9424 71.4862C71.732 71.2787 71.6048 71.0014 71.5848 70.7065C71.5648 70.4117 71.6533 70.1197 71.8338 69.8857L72.718 68.705L72.7476 68.6704C72.8446 68.546 72.9652 68.4421 73.1026 68.3645C73.2399 68.287 73.3912 68.2373 73.5478 68.2185C73.7043 68.1997 73.8631 68.212 74.0149 68.2548C74.1667 68.2976 74.3085 68.37 74.4322 68.4679L75.5091 69.3027C75.947 69.6394 76.3061 70.0676 76.5613 70.5575L77.7963 72.904L76.5218 74.6281Z" fill="#FBE5C5"/>
<path d="M98.5245 78.4616C97.3241 77.6712 95.9211 78.4023 95.0665 79.5484C94.4266 80.7362 94.1146 82.073 94.1625 83.4214C94.2244 85.0904 94.7551 86.7083 95.6939 88.0897C95.5062 87.8624 95.5803 86.8596 95.5803 86.8596C95.3662 85.3837 95.5087 83.8779 95.996 82.4684C96.4834 81.0588 97.3013 79.7865 98.3813 78.758C98.2726 78.6592 98.653 78.5456 98.5245 78.4616Z" fill="#FFC100"/>
<path opacity="0.6" d="M98.5245 78.4616C97.3241 77.6712 95.9211 78.4023 95.0665 79.5484C94.4266 80.7362 94.1146 82.073 94.1625 83.4214C94.2244 85.0904 94.7551 86.7083 95.6939 88.0897C95.5062 87.8624 95.5803 86.8596 95.5803 86.8596C95.3662 85.3837 95.5087 83.8779 95.996 82.4684C96.4834 81.0588 97.3013 79.7865 98.3813 78.758C98.2726 78.6592 98.653 78.5456 98.5245 78.4616Z" fill="white"/>
<path d="M119.209 82.6063C118.374 92.2047 115.187 97.6091 115.617 105.281C115.617 105.281 98.1543 104.984 97.5615 104.984C97.3096 90.8511 95.052 92.6048 95.6695 83.6585C95.5608 80.6945 97.7344 78.6691 99.4239 78.3776L106.701 77.0537L116.195 78.6888C117.098 78.844 117.909 79.3332 118.467 80.059C119.025 80.7848 119.29 81.6942 119.209 82.6063Z" fill="#FFC100"/>
<path d="M104.779 72.4446C105.194 74.4206 105.861 77.187 103.02 77.6465C102.19 78.6839 101.844 80.7093 104.502 82.048C107.921 81.2329 112.085 79.7015 112.485 78.0515C109.63 77.5575 110.682 71.6295 110.865 69.1595L104.779 72.4446Z" fill="#FBE5C5"/>
<path opacity="0.2" d="M109.655 71.9556C109.378 72.632 108.981 73.2528 108.484 73.7883C107.782 74.5935 106.448 74.9492 105.164 74.9492C105.124 74.097 104.996 73.2512 104.784 72.4249L105.055 72.2865L109.655 71.9556Z" fill="black"/>
<path opacity="0.2" d="M119.021 84.3994C118.685 87.0571 118.157 89.6951 117.579 92.3034C116.314 90.5644 115.594 88.4894 115.509 86.3408C115.395 84.2413 116.62 82.2703 117.337 81.964L119.021 84.3994Z" fill="black"/>
<path d="M101.829 69.9845C102.323 73.4425 106.354 75.4728 109.195 73.1214C110.835 71.7728 111.171 70.0833 111.571 67.4453C111.635 67.0452 111.699 66.6253 111.774 66.1807C111.888 65.4855 111.847 64.7738 111.655 64.096C111.577 63.8138 111.469 63.5406 111.334 63.2809C110.845 62.2971 110.026 61.516 109.021 61.0737C108.015 60.6314 106.886 60.5559 105.831 60.8603C102.358 61.8533 101.4 66.8525 101.829 69.9845Z" fill="#FBE5C5"/>
<path d="M112.233 67.3663C111.146 67.1144 110.139 68.3098 109.788 69.2138C109.388 70.2018 109.867 71.2491 110.988 71.0466C111.406 70.9677 111.803 70.8065 112.158 70.5725C112.512 70.3384 112.817 70.0361 113.053 69.6832C113.198 69.4881 113.292 69.2606 113.328 69.0206C113.364 68.7806 113.34 68.5354 113.259 68.3066C113.178 68.0779 113.043 67.8725 112.864 67.7085C112.685 67.5445 112.468 67.427 112.233 67.3663Z" fill="#FBE5C5"/>
<path d="M103.485 187.176L99.503 187.023C99.503 187.023 100.778 158.677 99.4388 144.613C98.4508 134.15 98.7373 108.996 98.7373 108.996L112.145 109.771C112.145 109.771 107.916 126.261 107.372 143.61C109.146 159.705 103.485 187.176 103.485 187.176Z" fill="#FBE5C5"/>
<path d="M98.6386 186.816C96.0945 188.12 95.8129 188.139 93.0317 188.579C92.4191 188.673 92.592 190.12 94.0197 190.194C96.3563 190.338 96.1587 190.249 98.1594 190.358C99.8588 190.451 102.319 190.654 103.672 190.753H103.722C103.796 190.75 103.869 190.733 103.936 190.702C104.003 190.672 104.064 190.628 104.114 190.574C104.165 190.52 104.204 190.456 104.23 190.387C104.256 190.318 104.268 190.244 104.265 190.17L104.058 187.082C104.053 187.016 104.024 186.954 103.977 186.908C103.93 186.861 103.867 186.834 103.801 186.83L99.5229 186.608C99.2149 186.597 98.9095 186.669 98.6386 186.816Z" fill="#263238"/>
<path d="M98.8753 186.875C98.89 186.872 98.9035 186.865 98.9141 186.854C98.9247 186.844 98.9318 186.83 98.9346 186.816C98.9362 186.798 98.9329 186.78 98.9251 186.765C98.9172 186.749 98.9051 186.736 98.8901 186.727C98.7419 186.638 97.4081 185.867 96.9635 186.075C96.9232 186.094 96.8884 186.123 96.8624 186.159C96.8365 186.195 96.8203 186.238 96.8153 186.282C96.8031 186.355 96.8089 186.43 96.8321 186.501C96.8554 186.571 96.8954 186.635 96.9487 186.687C97.3044 187.048 98.3022 186.964 98.8604 186.885L98.8753 186.875ZM97.0672 186.203C97.329 186.129 98.0552 186.46 98.5986 186.746C97.8329 186.835 97.2648 186.746 97.0623 186.569C97.0274 186.534 97.0015 186.492 96.9869 186.446C96.9722 186.399 96.9693 186.35 96.9783 186.302C96.9804 186.285 96.9863 186.268 96.9957 186.253C97.0052 186.239 97.0178 186.227 97.0327 186.218L97.0672 186.203Z" fill="#FFC100"/>
<path d="M98.8754 186.875C98.8876 186.867 98.8976 186.856 98.9045 186.843C98.9114 186.83 98.915 186.815 98.9149 186.801C98.9063 186.313 98.7457 185.84 98.4555 185.447C98.3336 185.334 98.1721 185.274 98.006 185.279C97.7837 185.279 97.7096 185.403 97.6898 185.492C97.6058 185.892 98.3913 186.667 98.7964 186.88C98.8082 186.888 98.8224 186.892 98.8368 186.891C98.8511 186.89 98.8647 186.884 98.8754 186.875ZM97.9467 185.462H98.0307C98.0913 185.459 98.1518 185.469 98.2087 185.49C98.2655 185.512 98.3175 185.544 98.3617 185.586C98.6019 185.899 98.7398 186.278 98.7569 186.672C98.3468 186.391 97.8183 185.778 97.8677 185.546C97.8677 185.546 97.8677 185.492 97.9467 185.472V185.462Z" fill="#FFC100"/>
<path opacity="0.2" d="M107.921 127.432C107.768 128.914 107.634 130.425 107.521 131.991C105.821 128.504 105.851 125.243 106.849 123.994L107.921 127.432Z" fill="black"/>
<path d="M105.712 65.9139C105.535 65.9139 105.367 66.1066 105.337 66.3783C105.307 66.65 105.411 66.8723 105.614 66.9168C105.816 66.9612 105.984 66.729 106.014 66.4228C106.043 66.1165 105.895 65.9139 105.712 65.9139Z" fill="#263238"/>
<path d="M102.59 65.6868C102.413 65.6868 102.245 65.8745 102.215 66.1511C102.185 66.4278 102.304 66.6451 102.492 66.6846C102.679 66.7242 102.842 66.4969 102.872 66.2203C102.902 65.9436 102.768 65.7065 102.59 65.6868Z" fill="#263238"/>
<path d="M103.405 69.9203C103.222 69.9203 103.055 70.108 103.025 70.3846C102.995 70.6613 103.119 70.8787 103.302 70.9182C103.484 70.9577 103.657 70.7304 103.682 70.4538C103.707 70.1772 103.583 69.94 103.405 69.9203Z" fill="#263238"/>
<path d="M103.381 69.1596C103.146 69.1674 102.912 69.1237 102.697 69.0315C102.481 68.9394 102.287 68.8009 102.131 68.626C102.815 68.0286 103.411 67.3385 103.904 66.5759L103.381 69.1596Z" fill="#EAB6B5"/>
<path d="M106.488 65.42C106.386 65.2409 106.243 65.0882 106.072 64.9741C105.9 64.86 105.704 64.7877 105.5 64.7629H105.45C105.407 64.7556 105.369 64.732 105.343 64.697C105.317 64.662 105.306 64.6183 105.312 64.5752C105.319 64.5323 105.343 64.494 105.378 64.4682C105.413 64.4424 105.457 64.4312 105.5 64.4369C105.758 64.4603 106.006 64.5452 106.224 64.6845C106.443 64.8237 106.625 65.0132 106.754 65.2372C106.77 65.2615 106.779 65.2897 106.781 65.3188C106.782 65.3478 106.776 65.3767 106.762 65.4024C106.748 65.4281 106.728 65.4497 106.703 65.4649C106.679 65.4802 106.65 65.4885 106.621 65.4891C106.595 65.4874 106.57 65.4804 106.547 65.4685C106.524 65.4566 106.504 65.44 106.488 65.42Z" fill="#263238"/>
<path d="M101.973 65.1483C101.956 65.1349 101.942 65.1181 101.931 65.0991C101.92 65.0801 101.914 65.0591 101.912 65.0375C101.909 65.0158 101.911 64.9939 101.918 64.9731C101.924 64.9523 101.934 64.9329 101.948 64.9162C102.103 64.7092 102.305 64.543 102.539 64.432C102.772 64.321 103.029 64.2684 103.287 64.2789C103.329 64.2839 103.368 64.3053 103.395 64.3385C103.422 64.3718 103.434 64.4142 103.43 64.4567C103.424 64.4982 103.402 64.5358 103.369 64.5616C103.336 64.5873 103.294 64.5993 103.252 64.5951C103.047 64.5905 102.845 64.6353 102.661 64.7256C102.477 64.8158 102.317 64.949 102.195 65.1138C102.18 65.1356 102.159 65.153 102.135 65.1643C102.11 65.1756 102.084 65.1803 102.057 65.178C102.027 65.1743 101.998 65.1642 101.973 65.1483Z" fill="#263238"/>
<path d="M98.2182 104.278C98.1095 104.278 96.5732 104.372 96.5781 104.486C96.8182 105.107 97.1039 105.709 97.4328 106.289H115.77C116.099 105.845 116.39 105.374 116.639 104.881C116.639 104.854 116.634 104.828 116.624 104.804C116.614 104.78 116.599 104.758 116.58 104.739C116.561 104.721 116.539 104.706 116.514 104.697C116.49 104.687 116.463 104.682 116.437 104.683L98.233 104.283L98.2182 104.278Z" fill="#263238"/>
<path d="M111.566 105.745C115.375 112.879 111.171 127.234 111.171 127.234L106.409 179.297C106.375 179.652 106.272 179.997 106.105 180.312C105.937 180.628 105.709 180.907 105.434 181.133C105.159 181.36 104.841 181.53 104.5 181.634C104.158 181.738 103.8 181.773 103.445 181.737C102.402 181.634 101.366 181.469 100.342 181.243C99.7726 181.128 99.2605 180.819 98.893 180.368C98.5256 179.918 98.3255 179.354 98.3267 178.773C98.4354 166.626 97.561 104.876 97.561 104.876C97.561 104.876 107.238 105.33 111.566 105.745Z" fill="#263238"/>
<g opacity="0.2">
<path d="M110.361 134.58C110.361 134.58 109.585 151.628 108.968 151.02C108.35 150.413 106.088 115.852 106.088 115.852L110.702 125.767L110.361 134.58Z" fill="black"/>
</g>
<path d="M97.7985 94.8129L96.8105 93.8249C96.718 93.733 96.6447 93.6237 96.5947 93.5033C96.5446 93.3829 96.5189 93.2538 96.519 93.1235V91.7501C96.5201 91.4885 96.625 91.238 96.8105 91.0536L97.7985 90.0656C97.8908 89.974 98.0003 89.9016 98.1207 89.8524C98.2411 89.8032 98.37 89.7783 98.5 89.7791H99.8733C100.005 89.7873 100.133 89.8217 100.251 89.8802C100.369 89.9387 100.474 90.0202 100.56 90.1199L101.548 91.1079C101.732 91.2932 101.835 91.5436 101.834 91.8045V93.1778C101.835 93.3078 101.81 93.4367 101.761 93.5571C101.712 93.6775 101.64 93.787 101.548 93.8793L100.56 94.8673C100.376 95.0528 100.125 95.1576 99.8634 95.1587H98.4901C98.3575 95.1506 98.2279 95.1157 98.1091 95.0563C97.9902 94.9969 97.8846 94.9141 97.7985 94.8129Z" fill="#263238"/>
<path d="M104.018 94.4919C103.376 95.9096 100.585 95.1538 100.585 95.1538L98.9939 94.9908C98.7338 94.9675 98.4909 94.8513 98.3094 94.6635C98.128 94.4757 98.0203 94.2289 98.0059 93.9682L97.9071 92.6295C97.9047 92.6148 97.9047 92.5997 97.9071 92.585C97.8977 92.2971 98.0025 92.0171 98.1987 91.8061C98.3949 91.5952 98.6665 91.4703 98.9543 91.4587L100.194 91.4044C100.701 91.3784 101.208 91.4662 101.676 91.6612L103.909 92.5653L104.018 94.4919Z" fill="#FBE5C5"/>
<path d="M121.846 81.4602C122.363 82.1957 122.711 83.0362 122.866 83.9217C123.02 84.8072 122.977 85.7159 122.741 86.583C121.753 90.4559 119.332 98.8737 117.87 99.921C115.992 101.25 103.356 95.1687 103.356 95.1687L103.904 92.5801L114.426 93.9781C114.426 93.9781 113.562 81.3762 116.19 80.0523C117.139 79.5424 118.244 79.4042 119.29 79.6644C120.336 79.9247 121.247 80.5648 121.846 81.4602Z" fill="#FBE5C5"/>
<path d="M99.631 70.6415V71.0911H104.018L102.857 69.9252L100.426 69.8462C100.322 69.8442 100.217 69.863 100.12 69.9015C100.022 69.94 99.9332 69.9974 99.8579 70.0704C99.7826 70.1434 99.7225 70.2306 99.681 70.3269C99.6395 70.4232 99.6175 70.5268 99.6162 70.6317L99.631 70.6415Z" fill="#FFC100"/>
<path opacity="0.2" d="M99.631 70.6415V71.0911H104.018L102.857 69.9252L100.426 69.8462C100.322 69.8442 100.217 69.863 100.12 69.9015C100.022 69.94 99.9332 69.9974 99.8579 70.0704C99.7826 70.1434 99.7225 70.2306 99.681 70.3269C99.6395 70.4232 99.6175 70.5268 99.6162 70.6317L99.631 70.6415Z" fill="white"/>
<path d="M99.6313 71.0565C99.6313 71.1825 99.6687 71.3057 99.7387 71.4105C99.8088 71.5153 99.9083 71.597 100.025 71.6452C100.141 71.6934 100.269 71.7061 100.393 71.6815C100.517 71.6569 100.63 71.5962 100.719 71.5071C100.808 71.4179 100.869 71.3044 100.894 71.1808C100.918 71.0572 100.906 70.929 100.857 70.8126C100.809 70.6961 100.727 70.5966 100.623 70.5266C100.518 70.4566 100.395 70.4192 100.269 70.4192C100.1 70.4192 99.9375 70.4863 99.818 70.6058C99.6985 70.7254 99.6313 70.8874 99.6313 71.0565Z" fill="#FFC100"/>
<path opacity="0.4" d="M99.6313 71.0565C99.6313 71.1825 99.6687 71.3057 99.7387 71.4105C99.8088 71.5153 99.9083 71.597 100.025 71.6452C100.141 71.6934 100.269 71.7061 100.393 71.6815C100.517 71.6569 100.63 71.5962 100.719 71.5071C100.808 71.4179 100.869 71.3044 100.894 71.1808C100.918 71.0572 100.906 70.929 100.857 70.8126C100.809 70.6961 100.727 70.5966 100.623 70.5266C100.518 70.4566 100.395 70.4192 100.269 70.4192C100.1 70.4192 99.9375 70.4863 99.818 70.6058C99.6985 70.7254 99.6313 70.8874 99.6313 71.0565Z" fill="white"/>
<path opacity="0.2" d="M108.429 65.914C108.738 65.9859 109.057 66.0059 109.373 65.9733C109.526 65.9629 109.679 65.992 109.817 66.0577C109.955 66.1235 110.075 66.2237 110.163 66.3487C110.342 67.0334 110.392 67.7453 110.311 68.4482L110.489 68.4828C110.746 68.0414 111.12 67.6804 111.571 67.4405C111.635 67.0403 111.699 66.6204 111.774 66.1758C111.888 65.4807 111.847 64.7689 111.655 64.0912C111.577 63.8089 111.469 63.5357 111.334 63.2761C110.711 63.2168 110.089 63.1526 109.462 63.113C109.229 63.3877 109.036 63.6937 108.889 64.022C108.706 64.6494 108.553 65.2817 108.429 65.914Z" fill="black"/>
<path d="M112.88 62.0311C112.94 62.1744 112.13 64.4369 111.986 64.4468C111.843 64.4567 108.84 64.1109 108.84 64.1109L109.027 62.8858L103.435 62.5696L101.909 60.6776C101.909 60.6776 109.971 60.5541 111.631 60.6776C113.29 60.8011 112.88 62.0311 112.88 62.0311Z" fill="#263238"/>
<path d="M120.478 80.1609C120.478 80.1609 122.81 81.3268 123.19 84.7996C123.571 88.2724 122.123 81.9393 119.209 82.6062C116.294 83.2731 114.427 86.0148 114.427 86.0148C114.427 86.0148 114.427 80.5364 116.19 80.0374C117.954 79.5385 117.381 78.6196 120.478 80.1609Z" fill="#FFC100"/>
<path opacity="0.6" d="M120.478 80.1609C120.478 80.1609 122.81 81.3268 123.19 84.7996C123.571 88.2724 122.123 81.9393 119.209 82.6062C116.294 83.2731 114.427 86.0148 114.427 86.0148C114.427 86.0148 114.427 80.5364 116.19 80.0374C117.954 79.5385 117.381 78.6196 120.478 80.1609Z" fill="white"/>
<path d="M103.707 109.737C103.213 109.653 103.01 109.065 103.005 108.581C102.967 108.059 103.101 107.538 103.386 107.099C103.525 106.904 103.714 106.749 103.933 106.65C104.151 106.551 104.392 106.512 104.631 106.536V106.402L104.705 106.486V106.412L105.006 106.471L104.981 106.61C105.48 106.478 106.009 106.541 106.463 106.786C106.916 107.031 107.259 107.44 107.422 107.929C107.462 108.061 107.476 108.199 107.462 108.337C107.448 108.474 107.408 108.607 107.343 108.729C107.304 108.796 107.251 108.854 107.188 108.899C107.125 108.944 107.053 108.975 106.977 108.991C106.822 108.998 106.668 108.964 106.53 108.894C106.391 108.824 106.273 108.72 106.187 108.591L105.06 107.346C105.079 107.928 104.957 108.506 104.705 109.03C104.463 109.524 104.097 109.791 103.717 109.737H103.707ZM104.695 106.862L104.492 106.832C104.326 106.836 104.163 106.878 104.016 106.956C103.87 107.034 103.743 107.146 103.648 107.282C103.401 107.666 103.286 108.12 103.321 108.576C103.321 108.867 103.425 109.376 103.766 109.43C104.107 109.485 104.295 109.183 104.433 108.897C104.731 108.284 104.828 107.592 104.71 106.921V106.857L104.695 106.862ZM105.189 106.862V106.921H105.13L106.453 108.378C106.607 108.546 106.789 108.714 106.947 108.68C106.981 108.673 107.013 108.659 107.04 108.639C107.068 108.618 107.09 108.592 107.106 108.561C107.191 108.391 107.207 108.194 107.15 108.013C107.015 107.597 106.722 107.251 106.335 107.049C106.153 106.951 105.956 106.885 105.752 106.852C105.553 106.824 105.35 106.833 105.154 106.876L105.189 106.862Z" fill="#FFC100"/>
<path d="M107.688 113.669L107.935 113.486C106.485 111.539 105.561 109.25 105.253 106.842L104.946 106.881C105.265 109.341 106.209 111.678 107.688 113.669Z" fill="#FFC100"/>
<path d="M101.612 114.104H101.919C102.034 111.468 103.122 108.969 104.971 107.089L104.754 106.871C102.848 108.81 101.729 111.387 101.612 114.104Z" fill="#FFC100"/>
<path d="M121.881 148.234L121.856 148.205L122.257 147.913L121.881 148.234Z" fill="#FFC100"/>
<path d="M135.999 168.533C138.963 173.25 140.875 176.605 140.875 176.605L137.659 178.299C137.659 178.299 135.15 175.37 131.539 171.2L135.999 168.533Z" fill="#FBE5C5"/>
<path d="M136.667 179.386C136.563 180.566 136.35 182.982 135.288 184.632C134.957 185.151 136.049 185.897 137.116 184.973C138.899 183.456 139.586 182.251 139.403 182.503C141.192 180.502 142.93 178.832 142.93 178.832L142.965 178.803C143.071 178.696 143.13 178.553 143.13 178.403C143.13 178.253 143.071 178.109 142.965 178.003L140.668 175.923C140.619 175.879 140.556 175.855 140.49 175.855C140.424 175.855 140.361 175.879 140.312 175.923L137.161 178.655C136.909 178.827 136.733 179.088 136.667 179.386Z" fill="#263238"/>
<path d="M137.506 178.66C137.518 178.649 137.527 178.636 137.532 178.622C137.537 178.607 137.538 178.591 137.536 178.576C137.533 178.559 137.526 178.543 137.514 178.531C137.503 178.519 137.488 178.51 137.471 178.506C137.298 178.506 135.752 178.319 135.456 178.699C135.425 178.731 135.403 178.771 135.394 178.815C135.384 178.858 135.387 178.904 135.401 178.946C135.422 179.018 135.458 179.084 135.508 179.139C135.558 179.195 135.619 179.239 135.688 179.267C136.157 179.445 137.032 178.976 137.516 178.669L137.506 178.66ZM135.579 178.768C135.782 178.585 136.592 178.595 137.195 178.645C136.528 179.035 135.979 179.198 135.713 179.104C135.667 179.088 135.627 179.06 135.595 179.024C135.563 178.988 135.54 178.944 135.53 178.897C135.52 178.881 135.515 178.863 135.515 178.845C135.515 178.826 135.52 178.809 135.53 178.793L135.579 178.768Z" fill="#FFC100"/>
<path d="M137.506 178.66C137.512 178.647 137.515 178.634 137.515 178.62C137.515 178.606 137.512 178.593 137.506 178.581C137.476 178.551 137.076 177.701 136.518 177.523C136.438 177.492 136.353 177.479 136.268 177.484C136.182 177.489 136.099 177.512 136.024 177.553C135.821 177.652 135.797 177.78 135.821 177.874C135.895 178.259 136.933 178.665 137.387 178.694C137.397 178.702 137.408 178.708 137.42 178.71C137.432 178.713 137.444 178.712 137.456 178.709C137.468 178.705 137.478 178.699 137.487 178.69C137.496 178.682 137.502 178.671 137.506 178.66ZM136.083 177.721L136.147 177.667C136.202 177.644 136.261 177.632 136.32 177.632C136.38 177.632 136.438 177.644 136.493 177.667C136.841 177.856 137.122 178.147 137.298 178.502C136.804 178.408 136.073 178.062 136.029 177.83C136.029 177.83 136.029 177.78 136.098 177.731L136.083 177.721Z" fill="#FFC100"/>
<path d="M121.565 147.118C130.748 151.929 134.132 164.136 137.526 168.058C140.52 171.516 135.644 173.986 134.809 174.312C134.036 174.604 133.188 174.634 132.396 174.399C131.604 174.163 130.911 173.675 130.422 173.008C127.532 169.056 121.071 161.3 114.061 152.295L121.565 147.118Z" fill="#263238"/>
<path d="M112.717 149.469C106.992 128.227 103.578 106.328 103.578 106.328C103.578 106.328 111.724 106.017 116.062 106.051C118.581 109.697 120.27 130.954 124.311 150.136L112.717 149.469Z" fill="#263238"/>
<path d="M137.299 172.88L136.899 172.593C137.58 171.635 137.432 170.281 136.533 169.229L132.779 162.782C129.775 157.61 127.839 155.333 123.753 151.001L122.099 149.543L121.792 148.007L118.596 128.03C118.043 125.594 117.692 122.882 117.326 120.007C116.744 115.462 116.146 110.759 114.644 107.015L115.099 106.832C116.625 110.636 117.233 115.368 117.816 119.948C118.181 122.803 118.527 125.505 119.08 127.936L122.296 147.918L122.573 149.281L124.119 150.645C128.224 155.022 130.2 157.304 133.209 162.535L136.938 168.957C137.429 169.476 137.732 170.145 137.797 170.856C137.863 171.568 137.687 172.28 137.299 172.88Z" fill="#FFC100"/>
<path d="M111.873 146.199L112.786 149.864C113.113 152.285 116.516 155.555 116.516 155.555L120.962 149.435L111.873 146.199Z" fill="#263238"/>
<path d="M98.8359 90.3818V89.6804C98.8359 87.0325 98.8359 84.5279 99.6659 81.9888C100.068 80.7268 100.726 79.5613 101.599 78.5651C102.472 77.5689 103.541 76.7635 104.739 76.1991L104.957 76.6437C103.818 77.1799 102.801 77.9454 101.972 78.8923C101.142 79.8392 100.517 80.9472 100.135 82.1469C99.3497 84.5032 99.325 86.8646 99.3299 89.3494C101.124 88.0722 103.058 87.0047 105.095 86.168C107.003 85.3686 108.824 84.3754 110.529 83.204C111.339 82.6558 112.027 81.9461 112.549 81.1193C112.799 80.7201 112.965 80.2741 113.036 79.8086C113.108 79.3431 113.083 78.8679 112.964 78.4122C112.839 77.9731 112.583 77.5826 112.23 77.2931C111.877 77.0036 111.443 76.8287 110.988 76.7919V76.2979C111.544 76.3439 112.072 76.5574 112.503 76.9103C112.935 77.2631 113.249 77.7386 113.404 78.2739C113.542 78.7946 113.572 79.3379 113.492 79.8705C113.412 80.4032 113.224 80.9139 112.94 81.3713C112.385 82.2569 111.653 83.0187 110.791 83.6091C109.049 84.7934 107.192 85.798 105.248 86.6077C103.149 87.566 100.975 88.554 99.1867 90.036L98.8359 90.3818Z" fill="#263238"/>
<path d="M41.4381 174.337C42.4332 174.312 43.4232 174.486 44.35 174.85C45.2767 175.213 46.1214 175.758 46.8344 176.452C47.5474 177.147 48.1143 177.977 48.5017 178.894C48.8891 179.811 49.0892 180.796 49.0902 181.792C49.083 183.809 48.2978 185.746 46.8981 187.199C45.4985 188.652 43.5922 189.509 41.5764 189.592C40.5778 189.636 39.5805 189.478 38.6438 189.129C37.7071 188.78 36.8501 188.247 36.1235 187.56C35.3969 186.874 34.8156 186.048 34.4141 185.133C34.0126 184.217 33.799 183.231 33.7861 182.231C33.7648 180.173 34.5565 178.189 35.9893 176.711C37.422 175.233 39.3801 174.38 41.4381 174.337Z" fill="#263238"/>
<path d="M47.6724 182.992C47.9645 182.599 48.2068 182.171 48.3936 181.717C48.669 181.079 48.7973 180.387 48.7691 179.692C48.4964 178.697 48.0226 177.768 47.3768 176.964C46.7311 176.159 45.9271 175.495 45.0146 175.014L45.1332 175.142C45.2221 175.241 45.3061 175.345 45.3901 175.449C45.8419 176.052 46.2046 176.718 46.467 177.425C46.9458 178.761 47.2367 180.158 47.3315 181.574C47.4176 182.053 47.5314 182.526 47.6724 182.992Z" fill="#B0AA97"/>
<path d="M48.6899 184.523C49.0948 183.408 49.2335 182.214 49.095 181.036C49.0251 181.386 48.9208 181.729 48.7837 182.058C48.5604 182.606 48.2611 183.12 47.8945 183.585C47.9722 183.868 48.1181 184.127 48.3194 184.341C48.426 184.431 48.5532 184.494 48.6899 184.523Z" fill="#B0AA97"/>
<path d="M46.9761 187.201C47.6287 186.525 48.1453 185.73 48.4976 184.859C48.3363 184.819 48.1861 184.743 48.0579 184.637C47.8496 184.433 47.6923 184.182 47.5985 183.906C47.4997 184.015 47.4009 184.128 47.2972 184.237C47.0495 184.491 46.7872 184.73 46.5117 184.953C46.8297 185.659 46.9883 186.427 46.9761 187.201Z" fill="#B0AA97"/>
<path d="M46.0523 188.031C46.2328 187.895 46.406 187.75 46.571 187.596H46.5463C46.6829 187.005 46.6346 186.386 46.408 185.823C46.3536 185.63 46.2795 185.427 46.2005 185.215C45.75 185.555 45.2744 185.861 44.7778 186.129C44.9723 186.696 44.935 187.318 44.674 187.858C44.206 188.612 43.503 189.192 42.6733 189.508C43.9055 189.306 45.0672 188.798 46.0523 188.031Z" fill="#B0AA97"/>
<path d="M44.2438 187.833C44.3555 187.609 44.4217 187.365 44.4387 187.114C44.4556 186.864 44.423 186.613 44.3426 186.376L44.0363 186.534C42.7237 187.202 41.3012 187.627 39.8373 187.789C38.8398 187.891 37.8319 187.792 36.8733 187.497C36.3288 187.327 35.8103 187.082 35.332 186.771C36.3507 188.098 37.7833 189.048 39.4026 189.468C40.0554 189.647 40.7389 189.685 41.4075 189.58C42.0762 189.474 42.7147 189.227 43.2805 188.856C43.6823 188.601 44.0135 188.25 44.2438 187.833Z" fill="#B0AA97"/>
<path d="M44.14 185.956C43.814 185.279 42.8062 184.657 42.164 184.43C36.2015 182.29 34.3786 180.937 33.855 180.216C33.3865 182.115 33.6734 184.121 34.6552 185.813C35.2768 186.403 36.0305 186.837 36.8535 187.077C38.2367 187.512 40.5635 187.7 43.7695 186.129L44.14 185.956Z" fill="#B0AA97"/>
<path d="M45.9632 184.79C45.7151 184.2 45.433 183.624 45.1185 183.066C44.0286 181.099 42.6216 179.324 40.9541 177.815C40.0264 176.93 38.9427 176.225 37.7579 175.735C37.587 175.671 37.4099 175.625 37.2293 175.597C37.0614 175.706 36.8984 175.819 36.7353 175.943C35.4955 176.892 34.5821 178.205 34.1221 179.697C34.1665 179.845 34.3394 180.161 35.0162 180.655C36.3302 181.614 38.82 182.76 42.4262 184.049C43.1687 184.323 43.8287 184.782 44.3429 185.383C44.4236 185.486 44.4932 185.597 44.5504 185.714C45.0436 185.442 45.5159 185.133 45.9632 184.79Z" fill="#B0AA97"/>
<path d="M46.3091 184.523C46.7024 184.197 47.0646 183.835 47.391 183.442C47.219 182.906 47.0821 182.36 46.981 181.806C46.6796 178.269 45.6719 176.447 44.8716 175.538C44.6194 175.243 44.3267 174.985 44.0022 174.772C42.9752 174.399 41.8791 174.254 40.7905 174.348C39.7018 174.442 38.6467 174.772 37.6987 175.315L37.8963 175.375C39.1371 175.878 40.273 176.608 41.2457 177.528C42.1567 178.33 42.9842 179.223 43.7157 180.191C44.3684 181.038 44.9594 181.932 45.4842 182.864C45.7884 183.402 46.0638 183.956 46.3091 184.523Z" fill="#B0AA97"/>
<path opacity="0.3" d="M48.69 184.523C49.095 183.408 49.2337 182.214 49.0951 181.036C49.0951 181.075 49.0704 181.125 49.0605 181.169C48.9535 179.89 48.5276 178.658 47.8217 177.587C47.1157 176.515 46.1523 175.637 45.0196 175.034L45.1382 175.162C45.1688 175.194 45.1969 175.229 45.2221 175.266C44.4401 174.835 43.5866 174.549 42.7027 174.421C40.9848 174.127 39.2178 174.437 37.7035 175.3L37.7973 175.325C37.6343 175.414 37.4812 175.518 37.3033 175.617H37.2095C37.0415 175.725 36.8785 175.839 36.7155 175.962C35.4756 176.912 34.5622 178.224 34.1022 179.717C34.1086 179.743 34.1185 179.768 34.1318 179.791C34.0676 179.988 34.0133 180.191 33.9688 180.394L33.8354 180.235C33.367 182.134 33.6539 184.141 34.6357 185.832C34.6802 185.877 34.7543 185.951 34.8531 186.035C35.0402 186.339 35.2482 186.629 35.4755 186.904C35.4113 186.865 35.3471 186.83 35.2927 186.791C36.3114 188.118 37.744 189.067 39.3633 189.488C39.9937 189.65 40.6493 189.691 41.2948 189.607H41.5517C41.9601 189.586 42.3663 189.535 42.767 189.453L42.6484 189.513C43.881 189.309 45.0428 188.8 46.0274 188.031C46.2079 187.895 46.381 187.75 46.5461 187.596H46.5214V187.527C46.6646 187.394 46.8029 187.26 46.9363 187.117C46.9388 187.148 46.9388 187.18 46.9363 187.211C47.5889 186.535 48.1055 185.74 48.4578 184.869H48.4183C48.4677 184.756 48.5122 184.637 48.5566 184.518L48.69 184.523Z" fill="white"/>
<path d="M71.6608 176.407C72.3646 175.703 73.2021 175.147 74.1241 174.772C75.0461 174.397 76.0338 174.21 77.0291 174.222C78.0244 174.235 79.0071 174.446 79.9194 174.844C80.8317 175.242 81.6551 175.819 82.3411 176.54C83.7265 178.006 84.4926 179.949 84.4798 181.966C84.4669 183.983 83.676 185.916 82.272 187.364C81.5788 188.084 80.7481 188.657 79.829 189.05C78.9099 189.443 77.9213 189.647 76.9218 189.65C75.9224 189.653 74.9325 189.456 74.0109 189.069C73.0893 188.682 72.2549 188.114 71.5571 187.399C70.1225 185.922 69.3286 183.94 69.348 181.881C69.3674 179.823 70.1986 177.856 71.6608 176.407Z" fill="#263238"/>
<path d="M82.1538 178.398C82.0968 177.911 81.979 177.433 81.803 176.975C81.5585 176.325 81.1759 175.735 80.6816 175.246C79.8412 174.744 78.9121 174.409 77.9449 174.258C76.8732 174.09 75.7778 174.156 74.7339 174.451H74.9068C75.0352 174.451 75.1686 174.48 75.3069 174.5C76.0551 174.628 76.7807 174.864 77.4608 175.202C78.7276 175.843 79.901 176.654 80.9484 177.612C81.3339 177.898 81.7365 178.161 82.1538 178.398Z" fill="#B0AA97"/>
<path d="M83.9322 178.793C83.457 177.705 82.7327 176.744 81.8179 175.987C82.0151 176.287 82.1807 176.606 82.3119 176.94C82.527 177.492 82.6634 178.07 82.717 178.66C82.9699 178.809 83.2538 178.899 83.5469 178.921C83.6837 178.91 83.8159 178.866 83.9322 178.793Z" fill="#B0AA97"/>
<path d="M84.5395 181.91C84.5478 180.973 84.3802 180.043 84.0455 179.168C83.8928 179.25 83.7243 179.297 83.5515 179.307C83.2603 179.304 82.9739 179.231 82.7167 179.094C82.7167 179.243 82.7167 179.391 82.7167 179.544C82.7159 179.899 82.6911 180.254 82.6426 180.606C83.3633 180.896 84.0111 181.341 84.5395 181.91Z" fill="#B0AA97"/>
<path d="M84.4459 183.15C84.4805 182.928 84.5052 182.701 84.52 182.478H84.4904C84.1828 181.956 83.7225 181.54 83.1714 181.288C82.9874 181.179 82.7978 181.08 82.6033 180.991C82.5087 181.547 82.3733 182.095 82.1982 182.631C82.4628 182.768 82.6977 182.956 82.8893 183.184C83.0809 183.412 83.2255 183.676 83.3147 183.96C83.4961 184.829 83.3867 185.733 83.0035 186.534C83.7562 185.542 84.2517 184.38 84.4459 183.15Z" fill="#B0AA97"/>
<path d="M82.9935 184.252C82.8444 183.77 82.5105 183.367 82.0648 183.13C82.0302 183.239 81.9907 183.348 81.9511 183.451C81.4612 184.841 80.7231 186.13 79.7726 187.255C79.1166 188.021 78.3136 188.648 77.4113 189.098C76.8998 189.35 76.3563 189.531 75.7959 189.636C77.4486 189.896 79.1406 189.595 80.6025 188.782C81.1989 188.462 81.7205 188.019 82.1327 187.483C82.545 186.946 82.8384 186.328 82.9935 185.67C83.1127 185.204 83.1127 184.717 82.9935 184.252Z" fill="#B0AA97"/>
<path d="M81.625 182.992C80.9236 182.725 79.7627 182.967 79.155 183.239C73.3604 185.798 71.1078 186.075 70.2334 185.912C71.2025 187.615 72.7974 188.873 74.6794 189.419C75.5386 189.419 76.3854 189.214 77.1494 188.821C78.4486 188.184 80.2665 186.712 81.5213 183.348L81.625 182.992Z" fill="#B0AA97"/>
<path d="M82.1439 180.863C81.5581 180.605 80.9577 180.383 80.3457 180.196C78.1989 179.522 75.9559 179.205 73.7063 179.257C72.4245 179.259 71.1538 179.495 69.9569 179.954C69.7843 180.027 69.6189 180.117 69.4629 180.221C69.4184 180.413 69.3789 180.611 69.3493 180.809C69.1036 182.351 69.3454 183.931 70.0409 185.329C70.4572 185.488 70.9125 185.516 71.345 185.408C72.9653 185.195 75.5588 184.306 79.0514 182.765C79.7787 182.45 80.5753 182.329 81.3633 182.414C81.4915 182.432 81.6173 182.463 81.7388 182.508C81.9153 181.971 82.0507 181.421 82.1439 180.863Z" fill="#B0AA97"/>
<path d="M82.2082 180.433C82.2719 179.924 82.2852 179.409 82.2477 178.897C81.7531 178.631 81.2777 178.33 80.825 177.998C78.1673 175.641 76.1814 175.034 74.9761 174.91C74.589 174.869 74.198 174.884 73.8152 174.955C72.8149 175.394 71.9219 176.045 71.1978 176.863C70.4737 177.681 69.9357 178.646 69.6211 179.692L69.8088 179.598C71.0548 179.107 72.3819 178.854 73.7213 178.852C74.9328 178.808 76.1458 178.884 77.3423 179.08C78.3985 179.247 79.4417 179.488 80.4644 179.801C81.0573 179.978 81.6396 180.189 82.2082 180.433Z" fill="#B0AA97"/>
<path opacity="0.2" d="M83.932 178.793C83.4555 177.706 82.7315 176.745 81.8177 175.987L81.8918 176.111C81.2266 175.519 80.4601 175.052 79.6293 174.732C78.0773 174.084 76.3508 173.983 74.7338 174.446H74.9067H75.04C73.7739 174.797 72.6147 175.457 71.6663 176.367C70.718 177.277 70.0101 178.407 69.606 179.658L69.695 179.613C69.6406 179.786 69.6011 179.964 69.5566 180.142L69.4727 180.196C69.4282 180.389 69.3887 180.586 69.359 180.784C69.1134 182.326 69.3551 183.906 70.0506 185.304L70.1247 185.339C70.2137 185.526 70.3174 185.709 70.4211 185.887L70.2186 185.862C71.1877 187.565 72.7826 188.824 74.6646 189.37H74.961C75.305 189.461 75.6549 189.529 76.0083 189.572L75.8008 189.617C77.4535 189.876 79.1455 189.575 80.6074 188.762C81.1776 188.447 81.681 188.025 82.0894 187.517C82.1487 187.458 82.2179 187.408 82.2771 187.344C82.5614 187.05 82.8208 186.733 83.0527 186.396L83.0083 186.524C83.7624 185.53 84.2581 184.364 84.4507 183.13C84.4853 182.908 84.51 182.681 84.5248 182.459H84.4952C84.4855 182.438 84.474 182.418 84.4606 182.399C84.4606 182.202 84.4606 182.009 84.4606 181.811L84.5248 181.881C84.5331 180.944 84.3655 180.014 84.0308 179.139H83.9913C83.9469 179.02 83.8975 178.907 83.8481 178.788L83.932 178.793Z" fill="white"/>
<path d="M68.9934 175.305C69.9141 175.867 70.7133 176.606 71.3439 177.481C71.9745 178.355 72.4239 179.347 72.6655 180.398C72.9072 181.449 72.9362 182.537 72.751 183.6C72.5657 184.662 72.17 185.676 71.5869 186.583C70.3989 188.417 68.5489 189.721 66.4228 190.223C64.2967 190.726 62.0587 190.388 60.1755 189.281C59.2408 188.735 58.4251 188.007 57.7769 187.14C57.1287 186.274 56.661 185.286 56.4016 184.235C56.1423 183.184 56.0965 182.092 56.267 181.023C56.4375 179.954 56.8208 178.93 57.3943 178.012C58.5824 176.126 60.4665 174.783 62.6378 174.277C64.8092 173.77 67.0928 174.139 68.9934 175.305Z" fill="#263238"/>
<path d="M69.5815 186.865C70.0792 186.678 70.5521 186.431 70.9894 186.129C71.6123 185.705 72.1349 185.151 72.5208 184.504C72.8533 183.439 72.9648 182.317 72.8484 181.208C72.732 180.099 72.3903 179.025 71.8441 178.052L71.8737 178.235C71.8737 178.373 71.9132 178.521 71.928 178.67C71.9837 179.489 71.9205 180.313 71.7403 181.115C71.3903 182.613 70.835 184.056 70.0904 185.403C69.8936 185.88 69.7237 186.368 69.5815 186.865Z" fill="#B0AA97"/>
<path d="M69.6207 188.831C70.6438 188.054 71.4697 187.047 72.0314 185.892C71.7629 186.171 71.4685 186.424 71.1521 186.648C70.6262 187.012 70.0528 187.303 69.4478 187.512C69.354 187.816 69.3336 188.137 69.3885 188.451C69.4314 188.596 69.5114 188.727 69.6207 188.831Z" fill="#B0AA97"/>
<path d="M66.4741 190.274C67.4637 190.036 68.4002 189.615 69.2356 189.034C69.1135 188.9 69.0209 188.741 68.9639 188.569C68.8893 188.263 68.8893 187.942 68.9639 187.636L68.4946 187.759C68.1198 187.845 67.7405 187.909 67.3584 187.952C67.237 188.781 66.9351 189.574 66.4741 190.274Z" fill="#B0AA97"/>
<path d="M65.165 190.486C65.4086 190.467 65.651 190.436 65.8912 190.392V190.367C66.3622 189.91 66.6813 189.318 66.8051 188.673C66.8693 188.466 66.9237 188.238 66.9731 187.996C66.363 188.041 65.7504 188.041 65.1403 187.996C65.0645 188.309 64.9272 188.604 64.7363 188.864C64.5455 189.123 64.305 189.342 64.0288 189.508C63.1623 189.923 62.1824 190.04 61.2427 189.839C62.4761 190.377 63.8241 190.599 65.165 190.486Z" fill="#B0AA97"/>
<path d="M63.6383 189.246C64.1049 188.963 64.4433 188.509 64.5819 187.981L64.2064 187.942C62.6211 187.78 61.0781 187.333 59.6517 186.623C58.6775 186.128 57.8123 185.443 57.1076 184.607C56.7053 184.137 56.3726 183.611 56.1196 183.046C56.2687 184.852 57.0163 186.556 58.2438 187.888C58.7338 188.434 59.3343 188.869 60.0054 189.166C60.6765 189.462 61.4029 189.612 62.1366 189.607C62.6593 189.613 63.1754 189.489 63.6383 189.246Z" fill="#B0AA97"/>
<path d="M64.6414 187.473C64.7402 186.667 64.1918 185.497 63.7423 184.929C59.568 179.495 58.6985 177.183 58.6491 176.219C57.1095 177.674 56.1955 179.671 56.1001 181.787C56.3232 182.688 56.7547 183.523 57.3598 184.227C58.3478 185.432 60.3781 186.969 64.2412 187.428L64.6414 187.473Z" fill="#B0AA97"/>
<path d="M66.9681 187.482C67.0883 186.8 67.1675 186.11 67.2053 185.418C67.3648 182.986 67.1245 180.544 66.4939 178.19C65.8665 176.061 65.2293 174.965 64.8044 174.426C64.684 174.268 64.5483 174.123 64.3993 173.991C64.182 173.991 63.9696 173.991 63.7473 174.016C62.0626 174.155 60.4634 174.816 59.1728 175.908C59.1114 176.386 59.1995 176.871 59.4248 177.296C60.0571 178.946 61.6577 181.446 64.1771 184.706C64.7012 185.391 65.0414 186.199 65.1651 187.053C65.1775 187.192 65.1775 187.333 65.1651 187.473C65.765 187.522 66.3677 187.525 66.9681 187.482Z" fill="#B0AA97"/>
<path d="M67.4619 187.438C68.0121 187.374 68.5548 187.257 69.0822 187.087C69.2393 186.499 69.4341 185.922 69.6651 185.358C71.4682 181.96 71.6115 179.707 71.4188 178.413C71.3605 177.995 71.2441 177.588 71.073 177.202C70.3554 176.262 69.4422 175.489 68.3965 174.936C67.3508 174.384 66.1976 174.065 65.0166 174.001L65.1599 174.174C65.9974 175.36 66.6056 176.692 66.9531 178.101C67.3058 179.365 67.5342 180.661 67.6348 181.969C67.7306 183.12 67.7455 184.275 67.6793 185.427C67.6436 186.101 67.5711 186.772 67.4619 187.438Z" fill="#B0AA97"/>
</g>
<defs>
<clipPath id="clip0_171_20635">
<rect width="210" height="210" fill="white"/>
</clipPath>
</defs>
</svg>
