<svg width="121" height="120" viewBox="0 0 121 120" fill="none" xmlns="http://www.w3.org/2000/svg">
<g clip-path="url(#clip0_896_38352)">
<path opacity="0.5" d="M120.5 108.857C120.5 108.891 82.7843 108.785 39.7084 108.785C-3.36749 108.785 0.942101 108.891 0.942101 108.857C0.942101 108.823 -3.38371 108.659 39.7084 108.659C82.8005 108.659 120.5 108.82 120.5 108.857Z" fill="#263238"/>
<path d="M77.0868 109.214C88.2876 106.108 98.5394 98.9004 104.292 88.7569C113.338 72.8097 107.302 47.0372 92.9576 35.9548C87.9825 32.1111 82.1824 30.4907 75.9322 30.7492C69.2422 31.027 62.5968 34.1069 55.8469 32.994C50.0491 32.0365 45.6046 27.4743 39.7852 26.7164C32.8384 25.8116 24.9557 28.8886 21.321 35.0404C16.6628 42.9198 16.9054 55.0683 17.9309 63.8304C21.0595 90.5931 42.5707 114.734 71.6977 110.362C73.5158 110.088 75.3186 109.702 77.0901 109.211L77.0868 109.214Z" fill="#FFECB2"/>
<path d="M59.3644 102.04C59.4657 102.167 63.4474 115.329 63.4474 115.329L99.5313 111.478L93.775 97.7646C93.775 97.7646 58.6082 102.046 58.9853 102.044" fill="#E0E0E0"/>
<path d="M46.3631 97.4888L25.1205 98.5706L60.3191 114.444L83.8344 107.386L46.3631 97.4888Z" fill="#F5F5F5"/>
<path d="M110.651 96.0872H122.604L125.45 78.604H108.315L110.651 96.0872Z" fill="#E0E0E0"/>
<path d="M46.5618 60.1258L52.9923 76.7563L63.98 72.5077L57.5495 55.8772L46.5618 60.1258Z" fill="#EBEBEB"/>
<path d="M48.4732 60.9899C48.4871 60.9641 48.632 61.0177 48.7968 61.107C48.9615 61.1963 49.0826 61.2916 49.0687 61.3174C49.0548 61.3432 48.9099 61.2896 48.7471 61.1983C48.5844 61.107 48.4593 61.0157 48.4732 60.9899Z" fill="#FAFAFA"/>
<path d="M48.4353 60.7198C48.4612 60.7098 49.6978 63.84 51.1944 67.7106C52.691 71.5812 53.882 74.7293 53.8562 74.7392C53.8304 74.7492 52.5938 71.6209 51.0971 67.7484C49.6005 63.8758 48.4095 60.7198 48.4353 60.7198Z" fill="#FAFAFA"/>
<path d="M53.9555 74.2017C53.9794 74.2176 53.9178 74.3545 53.8166 74.5074C53.7154 74.6602 53.6181 74.7733 53.5923 74.7575C53.5665 74.7416 53.63 74.6046 53.7313 74.4518C53.8325 74.2989 53.9317 74.1858 53.9555 74.2017Z" fill="#FAFAFA"/>
<path d="M53.2845 59.1814C53.2965 59.2072 52.2564 59.6439 50.9622 60.154C49.668 60.6641 48.612 61.0591 48.6021 61.0313C48.5922 61.0035 49.6303 60.5708 50.9245 60.0587C52.2186 59.5466 53.2746 59.1556 53.2845 59.1814Z" fill="#FAFAFA"/>
<path d="M53.1278 58.7231C53.2319 58.8549 53.3088 59.0061 53.3541 59.1678C53.4308 59.3177 53.4754 59.482 53.4851 59.6501C53.3805 59.5187 53.3035 59.3674 53.2588 59.2055C53.1821 59.0555 53.1375 58.8913 53.1278 58.7231Z" fill="#FAFAFA"/>
<path d="M52.846 59.1124C52.846 59.0846 53.0445 59.1124 53.2529 59.1739C53.4613 59.2354 53.6399 59.3089 53.632 59.3347C53.6241 59.3605 53.4335 59.3347 53.2251 59.2731C53.0167 59.2116 52.838 59.1322 52.846 59.1124Z" fill="#FAFAFA"/>
<path d="M61.5795 70.7261C61.5795 70.7261 61.5696 70.7062 61.5537 70.6665C61.5378 70.6268 61.516 70.5693 61.4862 70.4978C61.4247 70.345 61.3393 70.1266 61.2262 69.8428L60.2734 67.3874C59.4537 65.2854 58.2885 62.316 56.9388 58.8265L57.0003 58.8543L49.4695 61.7701L49.4993 61.7046L54.0964 73.6141L54.0447 73.5903L59.535 71.4903L61.0515 70.9146L61.4485 70.7658L61.5874 70.7161C61.5874 70.7161 61.5458 70.736 61.4584 70.7697L61.0614 70.9265L59.5589 71.522L54.0626 73.6717L54.0229 73.6856L54.009 73.6479L49.3921 61.7383L49.4199 61.6728L56.9527 58.7649L56.9983 58.7471L57.0142 58.7927C58.3619 62.3001 59.5072 65.2854 60.3171 67.3993C60.7141 68.4474 61.0336 69.2791 61.254 69.8547C61.3592 70.1346 61.4406 70.3529 61.4981 70.5038C61.5239 70.5752 61.5458 70.6288 61.5597 70.6705C61.5686 70.6881 61.5753 70.7068 61.5795 70.7261Z" fill="#FAFAFA"/>
<path d="M54.0469 73.6379C54.0191 73.6379 54.6523 70.3092 55.4602 66.2143C56.268 62.1194 56.9449 58.8046 56.9727 58.8086C57.0005 58.8126 56.3772 62.1393 55.5614 66.2342C54.7456 70.3291 54.0747 73.6439 54.0469 73.6379Z" fill="#FAFAFA"/>
<path d="M49.4398 61.7224C49.4557 61.6986 52.1889 63.6974 55.5394 66.1825C58.89 68.6676 61.5974 70.7022 61.5796 70.726C61.5617 70.7498 58.8324 68.753 55.4779 66.2659C52.1234 63.7788 49.4219 61.7442 49.4398 61.7224Z" fill="#FAFAFA"/>
<path d="M53.7368 56.3825L50.584 57.6016L51.0579 58.8271L54.2107 57.608L53.7368 56.3825Z" fill="#F5F5F5"/>
<path d="M60.5789 73.505L57.426 74.7241L57.8999 75.9497L61.0528 74.7306L60.5789 73.505Z" fill="#F5F5F5"/>
<path d="M39.9459 30.7198C39.932 30.7198 39.9916 30.4757 40.059 30.0787C40.1434 29.5636 40.1846 29.0424 40.1821 28.5205C40.1758 27.9984 40.1246 27.4777 40.0293 26.9643C39.9558 26.5674 39.8903 26.3292 39.9042 26.3252C39.9325 26.3769 39.9532 26.4324 39.9658 26.4899C40.0015 26.5971 40.0432 26.7539 40.0888 26.9504C40.2024 27.4656 40.2623 27.9911 40.2675 28.5185C40.2733 29.0463 40.2234 29.5733 40.1186 30.0906C40.0769 30.2891 40.0372 30.4479 40.0035 30.5551C39.9915 30.6122 39.9721 30.6676 39.9459 30.7198Z" fill="#E0E0E0"/>
<path d="M41.5399 26.3569C41.578 26.4044 41.61 26.4564 41.6352 26.5118C41.6715 26.5756 41.7033 26.642 41.7304 26.7102C41.7642 26.7857 41.8059 26.871 41.8396 26.9703C41.9251 27.2013 41.9915 27.439 42.0381 27.6809C42.0963 27.9772 42.1275 28.2781 42.1314 28.58C42.1324 28.8815 42.1064 29.1824 42.054 29.4792C42.0071 29.7217 41.9407 29.96 41.8555 30.1918C41.8237 30.293 41.7821 30.3784 41.7503 30.4558C41.7235 30.5236 41.693 30.5898 41.659 30.6543C41.6342 30.7101 41.6029 30.7627 41.5657 30.8111C41.5518 30.8111 41.6709 30.5729 41.7979 30.1779C41.8717 29.9468 41.9287 29.7106 41.9686 29.4713C42.016 29.1786 42.0399 28.8825 42.0401 28.586C42.0355 28.2891 42.007 27.993 41.9547 27.7007C41.9104 27.4625 41.8494 27.2277 41.7721 26.9981C41.6491 26.5931 41.526 26.3649 41.5399 26.3569Z" fill="#E0E0E0"/>
<path d="M42.4527 37.1113C42.4289 37.1113 42.4091 36.1506 42.4091 34.9636C42.4091 33.7767 42.4289 32.814 42.4527 32.814C42.4765 32.814 42.4964 33.7767 42.4964 34.9636C42.4964 36.1506 42.4765 37.1113 42.4527 37.1113Z" fill="#F5F5F5"/>
<path d="M42.8637 37.1113C42.8399 37.1113 42.8201 36.1506 42.8201 34.9636C42.8201 33.7767 42.8399 32.814 42.8637 32.814C42.8876 32.814 42.9074 33.7767 42.9074 34.9636C42.9074 36.1506 42.8876 37.1113 42.8637 37.1113Z" fill="#F5F5F5"/>
<path d="M39.0269 35.1978L39.1619 35.3248L39.3425 35.2851L39.2651 35.4538L39.3584 35.6126L39.1738 35.5888L39.0508 35.7277L39.015 35.5451L38.8463 35.4717L39.0091 35.3824L39.0269 35.1978Z" fill="#E0E0E0"/>
<path d="M40.1366 33.5545L40.2835 33.5624L40.3728 33.4473L40.4105 33.5902L40.5475 33.6398L40.4244 33.7192L40.4185 33.8661L40.3053 33.7708L40.1644 33.8125L40.218 33.6755L40.1366 33.5545Z" fill="#E0E0E0"/>
<path d="M40.3408 33.6553C40.3408 33.6553 39.5468 33.6395 38.5544 33.5958C37.5619 33.5521 36.7679 33.5124 36.7679 33.5025C36.7679 33.4926 37.5619 33.5204 38.5544 33.5621C39.5468 33.6037 40.3428 33.6454 40.3408 33.6553Z" fill="#E0E0E0"/>
<path d="M40.2793 32.7961C40.3747 32.4827 40.4307 32.1586 40.446 31.8314C40.4345 31.504 40.3825 31.1793 40.2912 30.8647C40.4656 31.156 40.5499 31.4923 40.5334 31.8314C40.5461 32.171 40.4577 32.5068 40.2793 32.7961Z" fill="#F5F5F5"/>
<path d="M39.8387 32.792C39.8129 32.792 39.9122 32.3692 39.9102 31.8472C39.9082 31.3252 39.8109 30.9063 39.8368 30.9004C39.9554 31.2014 40.0095 31.524 39.9955 31.8472C40.0109 32.1697 39.9575 32.4918 39.8387 32.792Z" fill="#F5F5F5"/>
<path d="M107.193 87.6851L108.472 96.0793H115.893L117.614 87.8061L107.193 87.6851Z" fill="#FFD000"/>
<path d="M116.578 93.0744C116.578 93.0983 114.674 93.1181 112.33 93.1181C109.986 93.1181 108.083 93.0983 108.083 93.0744C108.083 93.0506 109.984 93.0308 112.33 93.0308C114.676 93.0308 116.578 93.0427 116.578 93.0744Z" fill="#FAFAFA"/>
<path d="M116.606 92.6535C116.606 92.6773 114.692 92.6972 112.33 92.6972C109.968 92.6972 108.055 92.6773 108.055 92.6535C108.055 92.6297 109.968 92.6099 112.33 92.6099C114.692 92.6099 116.606 92.6297 116.606 92.6535Z" fill="#FAFAFA"/>
<path d="M116.592 92.1867C116.592 92.2106 114.677 92.2304 112.317 92.2304C109.956 92.2304 108.039 92.2106 108.039 92.1867C108.039 92.1629 109.955 92.1431 112.317 92.1431C114.679 92.1431 116.592 92.1629 116.592 92.1867Z" fill="#FAFAFA"/>
<path d="M109.323 95.601C109.142 94.9024 109.018 94.1901 108.954 93.4712C109.135 94.1692 109.259 94.8808 109.323 95.599V95.601Z" fill="#FAFAFA"/>
<path d="M109.827 95.5116C109.776 95.1703 109.746 94.8263 109.736 94.4814C109.698 94.1381 109.682 93.7926 109.688 93.4473C109.768 93.7846 109.813 94.1291 109.823 94.4755C109.862 94.8197 109.863 95.1671 109.827 95.5116Z" fill="#FAFAFA"/>
<path d="M110.749 95.5117C110.645 95.1671 110.578 94.8124 110.55 94.4537C110.494 94.0994 110.474 93.7402 110.492 93.3818C110.561 93.7327 110.609 94.0873 110.635 94.4438C110.694 94.7972 110.732 95.1538 110.749 95.5117Z" fill="#FAFAFA"/>
<path d="M111.394 95.5555C111.324 95.2018 111.29 94.8421 111.292 94.4816C111.266 94.1222 111.277 93.761 111.324 93.4038C111.364 93.7609 111.382 94.1203 111.378 94.4796C111.405 94.8376 111.41 95.1969 111.394 95.5555Z" fill="#FAFAFA"/>
<path d="M112.539 95.5117C112.482 95.1753 112.456 94.8345 112.459 94.4934C112.437 94.1528 112.443 93.8109 112.477 93.4712C112.531 93.8086 112.557 94.1498 112.555 94.4914C112.578 94.8314 112.573 95.1727 112.539 95.5117Z" fill="#FAFAFA"/>
<path d="M113.372 95.5572C113.322 94.8546 113.327 94.149 113.39 93.4473C113.444 94.1498 113.438 94.8557 113.372 95.5572Z" fill="#FAFAFA"/>
<path d="M114.156 95.4444C114.17 94.7076 114.241 93.9729 114.369 93.2471C114.355 93.9839 114.284 94.7186 114.156 95.4444Z" fill="#FAFAFA"/>
<path d="M115.167 95.3352C115.167 95.0183 115.209 94.7027 115.29 94.3963C115.344 94.0844 115.437 93.7803 115.566 93.4912C115.518 93.8032 115.452 94.1121 115.367 94.4162C115.316 94.7258 115.25 95.0325 115.167 95.3352Z" fill="#FAFAFA"/>
<path d="M106.342 86.0239V87.594C106.342 87.7579 106.407 87.9151 106.522 88.0312C106.638 88.1473 106.795 88.2128 106.959 88.2133H117.707C117.871 88.2128 118.028 88.1473 118.144 88.0312C118.26 87.9151 118.325 87.7579 118.325 87.594V86.0239H106.342Z" fill="#FFD000"/>
<g opacity="0.4">
<path d="M107.273 88.2134L107.362 88.7116L117.279 89.4202L117.531 88.2134H107.273Z" fill="black"/>
</g>
<path d="M107.959 86.0317C107.959 86.0317 103.791 81.2143 104.246 81.0396C104.7 80.865 108.424 83.5347 108.424 83.5347C108.424 83.5347 105.232 76.389 105.871 75.8749C106.51 75.3608 109.875 82.2008 109.875 82.2008C109.875 82.2008 109.353 72.2186 109.875 72.1035C110.397 71.9884 112.312 82.0857 112.312 82.0857C112.312 82.0857 115.157 72.8578 115.969 72.8578C116.78 72.8578 115.097 81.7363 115.097 81.7363C115.097 81.7363 118.472 76.0495 118.986 76.8038C119.5 77.5581 116.604 83.7093 116.604 83.7093C116.604 83.7093 120.843 80.1722 121.012 80.6347C121.181 81.0972 116.429 86.0317 116.429 86.0317H107.959Z" fill="#455A64"/>
<path d="M107.378 78.7828C107.406 78.7709 108.148 80.3588 109.033 82.3318C109.919 84.3048 110.621 85.9047 110.584 85.9265C110.546 85.9483 109.813 84.3505 108.928 82.3775C108.043 80.4045 107.348 78.7828 107.378 78.7828Z" fill="#263238"/>
<path d="M110.752 79.6641C110.784 79.6641 110.907 81.0634 111.028 82.7923C111.149 84.5212 111.227 85.9265 111.189 85.9285C111.151 85.9305 111.034 84.539 110.913 82.8002C110.792 81.0614 110.721 79.666 110.752 79.6641Z" fill="#263238"/>
<path d="M115.409 75.1938C115.405 75.2325 115.396 75.2705 115.383 75.307C115.359 75.3923 115.33 75.5055 115.292 75.6246C115.205 75.9164 115.093 76.3094 114.943 76.7877C114.649 77.7703 114.252 79.128 113.849 80.6405C113.446 82.153 113.112 83.5265 112.874 84.525C112.761 85.0113 112.676 85.4122 112.598 85.7159C112.567 85.8449 112.541 85.9501 112.519 86.0355C112.512 86.0739 112.5 86.1112 112.483 86.1466C112.485 86.108 112.489 86.0695 112.497 86.0315C112.513 85.9442 112.531 85.833 112.555 85.706C112.606 85.4241 112.688 85.0172 112.795 84.515C113.009 83.5226 113.331 82.1331 113.734 80.6186C114.137 79.1041 114.548 77.7484 114.861 76.7719C115.018 76.2836 115.151 75.8886 115.246 75.6186C115.29 75.4936 115.328 75.3923 115.357 75.309C115.37 75.2685 115.387 75.2298 115.409 75.1938Z" fill="#263238"/>
<path d="M117.422 80.3391C117.447 80.3569 116.628 81.5737 115.599 83.0544C114.571 84.5352 113.71 85.7242 113.684 85.7063C113.658 85.6884 114.478 84.4717 115.506 82.9889C116.534 81.5062 117.396 80.3212 117.422 80.3391Z" fill="#263238"/>
<path d="M109.371 85.9286C109.237 85.86 109.113 85.7724 109.004 85.6686C108.791 85.492 108.505 85.2359 108.21 84.9342C107.957 84.6757 107.719 84.404 107.495 84.1204C107.395 84.0087 107.311 83.8838 107.245 83.7492C107.271 83.7274 107.705 84.2534 108.291 84.8528C108.877 85.4523 109.391 85.9028 109.371 85.9286Z" fill="#263238"/>
<path d="M111.908 84.0152C111.995 84.3392 112.045 84.6722 112.057 85.0076C112.106 85.3394 112.117 85.6757 112.09 86.01C111.953 85.3536 111.892 84.6836 111.908 84.0132V84.0152Z" fill="#263238"/>
<path d="M86.8099 101.952C86.2485 102.027 85.6781 101.994 85.1287 101.857C85.4094 101.842 85.6909 101.85 85.9703 101.881C86.2516 101.881 86.5325 101.905 86.8099 101.952Z" fill="white"/>
<path d="M32.1831 88.8045C32.1831 88.8343 30.8671 88.8561 29.2415 88.8561C27.6158 88.8561 26.2998 88.8343 26.2998 88.8045C26.2998 88.7748 27.6158 88.7529 29.2415 88.7529C30.8671 88.7529 32.1831 88.7767 32.1831 88.8045Z" fill="#263238"/>
<path d="M28.8823 92.8878C29.1607 92.4793 29.4671 92.0906 29.7994 91.7246C30.1051 91.3363 30.4367 90.9689 30.7918 90.625C30.5138 91.0344 30.2074 91.4237 29.8748 91.7901C29.5706 92.1793 29.2389 92.5461 28.8823 92.8878Z" fill="#263238"/>
<path d="M28.0565 92.979C28.0347 92.9611 28.6301 92.2168 29.3864 91.3176C30.1426 90.4184 30.7758 89.7039 30.7957 89.7297C30.8155 89.7555 30.222 90.4919 29.4658 91.3911C28.7095 92.2902 28.0783 92.9969 28.0565 92.979Z" fill="#263238"/>
<path d="M17.7133 88.8045C17.7133 88.8343 16.3953 88.8561 14.7716 88.8561C13.1479 88.8561 11.83 88.8343 11.83 88.8045C11.83 88.7748 13.146 88.7529 14.7716 88.7529C16.3973 88.7529 17.7133 88.7767 17.7133 88.8045Z" fill="#263238"/>
<path d="M42.1872 84.313H34.837V96.1054H42.1872V84.313Z" fill="#F5F5F5"/>
<path d="M42.1893 96.105C42.1878 96.0852 42.1878 96.0653 42.1893 96.0455C42.1893 96.0038 42.1893 95.9482 42.1893 95.8768C42.1893 95.7239 42.1893 95.5056 42.1893 95.2257C42.1893 94.6541 42.1893 93.8363 42.1754 92.7902C42.1754 90.7061 42.1615 87.7664 42.1516 84.3126L42.2012 84.3603H34.857C34.8431 84.3702 34.9543 84.263 34.9066 84.3106V87.5858C34.9066 88.6517 34.9066 89.6858 34.9066 90.6803C34.9066 92.6652 34.9066 94.4973 34.9066 96.1011L34.865 96.0594L40.2242 96.0812L41.703 96.0911H42.0901H42.227H42.098H41.7189L40.2501 96.1011L34.8749 96.1229H34.8352V96.0832C34.8352 94.4794 34.8352 92.6493 34.8352 90.6624C34.8352 89.6699 34.8352 88.6338 34.8352 87.5679C34.8352 87.0359 34.8352 86.496 34.8352 85.9482V84.2928C34.7895 84.3384 34.8987 84.2273 34.8888 84.2392H42.233H42.2806V84.2868C42.2707 87.7525 42.2628 90.7041 42.2568 92.7962C42.2568 93.8303 42.2469 94.6521 42.2429 95.2198C42.2429 95.4977 42.2429 95.712 42.2429 95.8609C42.2429 95.9304 42.2429 95.984 42.2429 96.0256C42.2429 96.0673 42.1893 96.105 42.1893 96.105Z" fill="#263238"/>
<path d="M8.47126 89.3882H1.12109V96.1052H8.47126V89.3882Z" fill="#FAFAFA"/>
<path d="M8.46735 96.105C8.46735 96.105 8.46735 96.0593 8.46735 95.9759C8.46735 95.8926 8.46735 95.7675 8.46735 95.6147C8.46735 95.2931 8.46735 94.8306 8.45544 94.2471C8.45544 93.07 8.44155 91.3987 8.43162 89.388L8.47727 89.4317H1.13307L1.18269 89.382V92.9172C1.18269 94.0446 1.18269 95.1105 1.18269 96.0931L1.12314 96.0514L6.43281 96.0732L7.93539 96.0851H8.33237H8.43559H8.4733H8.3423H7.94532L6.45464 96.097L1.1152 96.1189H1.07153V96.0732C1.07153 95.0807 1.07153 94.0208 1.07153 92.8973V91.1645C1.07153 90.8687 1.07153 90.569 1.07153 90.2693V89.3622L1.12513 89.3086H8.46933H8.513V89.3523C8.513 91.3729 8.49514 93.0561 8.48918 94.2391C8.48918 94.8187 8.48918 95.2773 8.48918 95.5968C8.48918 95.7477 8.48918 95.8648 8.48918 95.9501C8.48918 96.0355 8.46735 96.105 8.46735 96.105Z" fill="#263238"/>
<path d="M8.53296 85.8511V96.1052H34.8371V79.6641L8.53296 85.8511ZM17.5584 94.9817H12.0284V87.2405H17.5584V94.9817ZM32.0146 94.9817H26.4846V87.2405H32.0146V94.9817Z" fill="#F5F5F5"/>
<path d="M32.0146 94.9895C32.0137 94.9763 32.0137 94.9631 32.0146 94.9498V94.8387C32.0146 94.7375 32.0146 94.5945 32.0146 94.4139C32.0146 94.0368 32.0146 93.4989 32.0027 92.826C32.0027 91.4604 31.9888 89.531 31.9788 87.2543L32.0265 87.3H26.4965C26.4846 87.3 26.5937 87.2027 26.5481 87.2484V89.3742C26.5481 90.0669 26.5481 90.7418 26.5481 91.3929C26.5481 92.695 26.5481 93.9058 26.5481 94.9876L26.5064 94.9459L30.5179 94.9677L31.6354 94.9776H31.9312C31.9662 94.9748 32.0014 94.9748 32.0364 94.9776C32.0047 94.9808 31.9728 94.9808 31.9411 94.9776H31.6533L30.5437 94.9876L26.5064 95.0094H26.4647V94.9677C26.4647 93.8859 26.4647 92.6751 26.4647 91.373C26.4647 90.722 26.4647 90.0471 26.4647 89.3544V87.2503L26.5163 87.1987H32.0463H32.094V87.2464C32.084 89.537 32.0761 91.4742 32.0701 92.8478C32.0701 93.5227 32.0602 94.0586 32.0582 94.4357C32.0582 94.6117 32.0582 94.7507 32.0582 94.8526V94.9578C32.0452 94.9703 32.0305 94.981 32.0146 94.9895Z" fill="#263238"/>
<path d="M17.5584 94.9898C17.5576 94.9766 17.5576 94.9633 17.5584 94.9501V94.839C17.5584 94.7377 17.5584 94.5948 17.5584 94.4142C17.5584 94.0371 17.5584 93.4992 17.5445 92.8263C17.5445 91.4606 17.5306 89.5313 17.5227 87.2546L17.5683 87.3002H12.0403C12.0264 87.3002 12.1376 87.203 12.0899 87.2486V89.3745C12.0899 90.0672 12.0899 90.7421 12.0899 91.3932C12.0899 92.6953 12.0899 93.9061 12.0899 94.9878L12.0483 94.9462L16.0598 94.968L17.1793 94.9779H17.475C17.5094 94.9749 17.5439 94.9749 17.5782 94.9779C17.5466 94.9812 17.5146 94.9812 17.483 94.9779H17.1952L16.0856 94.9878L12.0483 95.0097H12.0066V94.968C12.0066 93.8862 12.0066 92.6754 12.0066 91.3733C12.0066 90.7222 12.0066 90.0474 12.0066 89.3546C12.0066 89.0073 12.0066 88.6559 12.0066 88.3026V87.2288C11.9609 87.2744 12.0701 87.1653 12.0602 87.1772H17.5882H17.5981V87.2248C17.5981 89.5154 17.5802 91.4527 17.5743 92.8263C17.5743 93.5011 17.5743 94.0371 17.5624 94.4142C17.5624 94.5902 17.5624 94.7291 17.5624 94.831V94.9362C17.5604 94.9799 17.5604 94.9898 17.5584 94.9898Z" fill="#263238"/>
<path d="M8.53295 85.8511L8.65602 85.8193L9.0272 85.728L10.4742 85.3806L15.9129 84.0885L34.8272 79.6164L34.8867 79.6025V79.6641C34.8867 83.6855 34.8867 88.0781 34.8867 92.6494V96.1568H34.8351L8.53097 96.1409H8.49524V96.1072C8.49524 92.8936 8.50913 90.3271 8.5131 88.5645C8.5131 87.6871 8.5131 87.0103 8.52303 86.5478C8.52303 86.3215 8.52303 86.1508 8.52303 86.0297C8.52303 85.9086 8.52303 85.855 8.52303 85.855C8.52303 85.855 8.52303 85.9166 8.52303 86.0357C8.52303 86.1548 8.52303 86.3314 8.52303 86.5597C8.52303 87.0222 8.52303 87.703 8.52303 88.5823C8.52303 90.3429 8.52303 92.9035 8.54089 96.1091L8.50715 96.0734L34.8371 96.0516L34.7855 96.1032V92.6494C34.7855 88.0841 34.7855 83.6855 34.7855 79.6641L34.8451 79.7117L15.9526 84.1421L10.498 85.4104L9.04109 85.73L8.66197 85.8153L8.53295 85.8511Z" fill="#263238"/>
<path d="M24.0965 88.1733H19.9163V96.1051H24.0965V88.1733Z" fill="#FAFAFA"/>
<path d="M24.0967 88.1736C24.0967 88.1736 24.0967 88.1835 24.0967 88.2073C24.0967 88.2312 24.0967 88.2728 24.0967 88.3185C24.0967 88.4217 24.0967 88.5666 24.0967 88.7492C24.0967 89.1462 24.0967 89.6901 24.1106 90.3828C24.1106 91.7981 24.1245 93.783 24.1344 96.1053V96.153H24.0848H19.9045L19.8529 96.0994V93.8683C19.8529 93.1458 19.8529 92.4451 19.8529 91.7762C19.8529 90.4364 19.8529 89.2157 19.8529 88.1676V88.1279H19.8926L22.9613 88.1478L23.789 88.1577H24.0034C24.0264 88.1544 24.0498 88.1544 24.0728 88.1577H23.9954H23.7751H22.9375L19.8926 88.1776L19.9323 88.1398C19.9323 89.1879 19.9323 90.4086 19.9323 91.7484C19.9323 92.4173 19.9323 93.118 19.9323 93.8405V96.0676L19.8807 96.018H24.0609L24.0133 96.0676C24.0232 93.7592 24.0312 91.7842 24.0371 90.3788C24.0371 89.6801 24.0371 89.1224 24.049 88.7333C24.049 88.5448 24.049 88.3979 24.049 88.2907C24.049 88.245 24.049 88.2073 24.049 88.1756C24.0648 88.1737 24.0808 88.173 24.0967 88.1736Z" fill="#263238"/>
<path d="M14.422 92.8878C14.7003 92.4793 15.0068 92.0906 15.339 91.7246C15.6448 91.3363 15.9764 90.9689 16.3315 90.625C16.0535 91.0344 15.747 91.4237 15.4145 91.7901C15.1103 92.1793 14.7786 92.5461 14.422 92.8878Z" fill="#263238"/>
<path d="M13.5846 92.979C13.5627 92.9611 14.1602 92.2168 14.9164 91.3176C15.6727 90.4184 16.3059 89.7039 16.3257 89.7297C16.3456 89.7555 15.7521 90.4919 14.9958 91.3911C14.2396 92.2902 13.6064 92.9969 13.5846 92.979Z" fill="#263238"/>
<path d="M46.4469 90.208C46.4747 90.208 46.4985 91.524 46.4985 93.1477C46.4985 94.7713 46.4747 96.0854 46.4469 96.0854C46.4191 96.0854 46.3953 94.7694 46.3953 93.1477C46.3953 91.526 46.4171 90.208 46.4469 90.208Z" fill="#263238"/>
<path d="M47.7094 91.5072C49.4129 90.81 50.2285 88.8639 49.5313 87.1605C48.8341 85.4571 46.888 84.6414 45.1845 85.3386C43.4811 86.0359 42.6654 87.982 43.3627 89.6854C44.0599 91.3888 46.006 92.2045 47.7094 91.5072Z" fill="#FAFAFA"/>
<path d="M49.7775 88.4256C49.759 88.1527 49.7178 87.8818 49.6545 87.6158C49.576 87.3062 49.4508 87.0104 49.2833 86.7384C49.0645 86.3763 48.7781 86.0595 48.4397 85.8055C48.0018 85.4729 47.4874 85.2553 46.9437 85.1728C46.4 85.0902 45.8442 85.1454 45.3273 85.3331C45.0295 85.4394 44.7497 85.5907 44.4976 85.7817C44.366 85.8787 44.2413 85.9849 44.1245 86.0993C44.0074 86.2201 43.8986 86.3488 43.7989 86.4844C43.3851 87.0466 43.1619 87.7265 43.1619 88.4246C43.1619 89.1228 43.3851 89.8026 43.7989 90.3649C43.9912 90.6332 44.2259 90.8685 44.4937 91.0616C44.7457 91.2526 45.0255 91.4039 45.3234 91.5102C46.0429 91.7702 46.8303 91.7729 47.5515 91.5178C48.2728 91.2626 48.8834 90.7654 49.2793 90.1108C49.4468 89.8389 49.572 89.5431 49.6505 89.2335C49.7136 88.968 49.7548 88.6978 49.7736 88.4256C49.7766 88.4433 49.7766 88.4615 49.7736 88.4792V88.638C49.7737 88.7244 49.7671 88.8107 49.7537 88.896C49.7407 89.0132 49.7195 89.1292 49.6902 89.2434C49.6163 89.5592 49.4944 89.8617 49.3289 90.1406C49.0875 90.5531 48.7607 90.9092 48.3705 91.1851C47.9802 91.461 47.5355 91.6504 47.0661 91.7404C46.4726 91.8525 45.86 91.8039 45.2916 91.5995C44.9837 91.4921 44.6944 91.3374 44.4341 91.141C44.1572 90.9435 43.9151 90.7013 43.7176 90.4244C43.2896 89.8455 43.0587 89.1445 43.0587 88.4246C43.0587 87.7047 43.2896 87.0038 43.7176 86.4248C43.9151 86.1479 44.1572 85.9058 44.4341 85.7083C44.6944 85.5119 44.9837 85.3572 45.2916 85.2497C45.8592 85.0451 46.4713 84.9965 47.0641 85.1088C47.5339 85.1985 47.9791 85.3877 48.3697 85.6636C48.7603 85.9396 49.0874 86.2959 49.3289 86.7087C49.4944 86.9875 49.6163 87.2901 49.6902 87.6058C49.7195 87.72 49.7407 87.8361 49.7537 87.9532C49.7671 88.0386 49.7737 88.1248 49.7736 88.2112V88.37C49.7778 88.3882 49.7791 88.407 49.7775 88.4256Z" fill="#263238"/>
<path d="M51.6713 92.4092C51.7225 93.0204 51.7397 93.6341 51.7229 94.2472C51.7397 94.8604 51.7225 95.474 51.6713 96.0853C51.6202 95.474 51.603 94.8604 51.6197 94.2472C51.603 93.6341 51.6202 93.0204 51.6713 92.4092Z" fill="#263238"/>
<path d="M51.6712 93.3758C52.8223 93.3758 53.7554 92.4427 53.7554 91.2917C53.7554 90.1406 52.8223 89.2075 51.6712 89.2075C50.5201 89.2075 49.587 90.1406 49.587 91.2917C49.587 92.4427 50.5201 93.3758 51.6712 93.3758Z" fill="#FAFAFA"/>
<path d="M53.7554 91.2878C53.7379 91.1182 53.7101 90.9498 53.672 90.7836C53.551 90.3343 53.2826 89.9386 52.9098 89.6601C52.6563 89.4684 52.3612 89.3392 52.0484 89.283C51.6893 89.2183 51.3195 89.2498 50.9765 89.3743C50.792 89.4411 50.6187 89.5355 50.4624 89.6542C50.297 89.7743 50.1522 89.9204 50.0337 90.0869C49.7772 90.4351 49.6388 90.8563 49.6388 91.2888C49.6388 91.7213 49.7772 92.1424 50.0337 92.4906C50.1528 92.6567 50.2975 92.8027 50.4624 92.9233C50.618 93.0426 50.7915 93.1364 50.9765 93.2012C51.2968 93.3194 51.6416 93.3554 51.9793 93.3058C52.3171 93.2562 52.637 93.1226 52.9098 92.9174C53.2827 92.6382 53.5511 92.2419 53.672 91.7919C53.7104 91.6258 53.7383 91.4574 53.7554 91.2878C53.769 91.4605 53.7535 91.6342 53.7097 91.8019C53.6166 92.1953 53.4118 92.5534 53.1198 92.833C52.8279 93.1126 52.4613 93.3018 52.0642 93.3779C51.6901 93.4508 51.3031 93.4206 50.9447 93.2906C50.7507 93.2237 50.5685 93.1266 50.4048 93.0027C50.2307 92.8772 50.0778 92.7244 49.9523 92.5502C49.6816 92.185 49.5354 91.7424 49.5354 91.2878C49.5354 90.8332 49.6816 90.3906 49.9523 90.0254C50.0773 89.8513 50.2302 89.6991 50.4048 89.5748C50.5689 89.4511 50.751 89.3533 50.9447 89.285C51.3035 89.1568 51.6899 89.1267 52.0642 89.1977C52.3883 89.2585 52.6935 89.3944 52.9555 89.5946C53.335 89.8858 53.6016 90.2998 53.7097 90.7657C53.7544 90.9359 53.7698 91.1124 53.7554 91.2878Z" fill="#263238"/>
<path d="M80.4685 53.8391C79.8909 52.5191 78.2612 52.0903 76.844 51.8204C76.8992 51.3466 76.8565 50.8665 76.7187 50.4099C76.5808 49.9532 76.3507 49.5297 76.0426 49.1656C75.7344 48.8015 75.3549 48.5045 74.9273 48.293C74.4997 48.0815 74.0333 47.96 73.5569 47.936C73.0805 47.9121 72.6043 47.9862 72.1577 48.1537C71.7111 48.3212 71.3036 48.5787 70.9605 48.91C70.6174 49.2414 70.3459 49.6397 70.163 50.0802C69.98 50.5207 69.8894 50.9941 69.8968 51.471C70.532 52.795 70.6907 54.3055 71.1334 55.7128C71.6038 57.2075 72.5804 58.7339 74.1108 59.0574C75.0576 59.2559 76.0342 58.9562 76.9373 58.6108C77.9754 58.2138 79.0215 57.7335 79.7698 56.9137C80.5181 56.0939 80.9171 54.8653 80.4685 53.8391Z" fill="#455A64"/>
<path d="M76.8378 51.6439C76.8126 51.7062 76.7792 51.7649 76.7386 51.8185C76.6391 51.9694 76.5304 52.1139 76.4131 52.2512C76.0243 52.7148 75.5671 53.1164 75.0574 53.4422C74.5472 53.7664 73.9902 54.0101 73.4059 54.1647C73.2305 54.2129 73.0522 54.2494 72.872 54.2739C72.807 54.2891 72.74 54.2944 72.6735 54.2898C72.6735 54.2719 72.9514 54.2262 73.388 54.0913C74.5347 53.7466 75.5646 53.0936 76.3654 52.2036C76.6632 51.8701 76.8219 51.6339 76.8378 51.6439Z" fill="#263238"/>
<path d="M74.2139 48.1699C74.2139 48.1699 74.2377 48.1699 74.2814 48.1699C74.3449 48.1893 74.4037 48.2218 74.454 48.2652C74.6262 48.4406 74.7351 48.6682 74.7637 48.9123C74.8272 49.2591 74.8498 49.6122 74.8312 49.9643C74.8021 50.3948 74.7125 50.8191 74.5652 51.2247C74.2977 51.9662 73.8414 52.6251 73.2412 53.1362C73.1388 53.2236 73.0314 53.3051 72.9197 53.3803C72.8363 53.4391 72.7495 53.4928 72.6597 53.5411C72.5863 53.5865 72.5084 53.6244 72.4274 53.6543C72.4155 53.6344 72.751 53.4716 73.1936 53.0806C74.086 52.2723 74.6391 51.156 74.7419 49.9563C74.7652 49.6124 74.7506 49.2669 74.6982 48.9262C74.6755 48.6961 74.5827 48.4785 74.4322 48.3029C74.3681 48.2457 74.2941 48.2006 74.2139 48.1699Z" fill="#263238"/>
<path d="M73.4021 57.9893C73.4021 57.9893 73.5232 58.0409 73.7475 58.0905C74.067 58.1577 74.3943 58.1804 74.7201 58.158C74.944 58.1481 75.1659 58.1114 75.3811 58.0489C75.6253 57.9687 75.8582 57.8573 76.0738 57.7174C76.5676 57.3918 76.9815 56.9589 77.2846 56.451C77.5931 55.9448 77.7995 55.3831 77.892 54.7976C77.9717 54.3202 77.9764 53.8333 77.9059 53.3545C77.8548 53.0315 77.7717 52.7143 77.6578 52.4077C77.6063 52.2991 77.5626 52.187 77.5268 52.0723C77.5268 52.0723 77.5466 52.0981 77.5764 52.1517C77.6062 52.2053 77.6478 52.2866 77.6955 52.3938C77.8254 52.6983 77.92 53.0166 77.9773 53.3426C78.1602 54.4339 77.9491 55.5546 77.3819 56.5046C77.0702 57.0258 76.643 57.4686 76.1333 57.7988C75.9098 57.9411 75.6681 58.0526 75.4148 58.1302C75.1922 58.1917 74.9629 58.2257 74.732 58.2315C74.398 58.248 74.0633 58.2139 73.7395 58.1302C73.6525 58.1061 73.5675 58.0749 73.4855 58.037C73.4556 58.025 73.4276 58.009 73.4021 57.9893Z" fill="#263238"/>
<path d="M69.3329 50.7842C67.2666 48.8985 64.7477 47.2471 61.949 47.1558C59.4559 47.0744 56.7167 48.2673 54.7695 49.8235C53.8088 50.5917 53.0267 51.866 52.5206 52.9855C51.8298 54.5218 52.3221 56.2467 52.6556 57.8962C53.3225 61.2031 55.9188 64.4464 57.3737 64.8057L71.689 62.6937C72.8184 60.4031 73.8585 57.6501 72.8799 55.294C72.2051 53.6901 70.6171 51.9573 69.3329 50.7842Z" fill="#455A64"/>
<path d="M64.5452 50.0993C64.3372 49.7763 64.0156 49.5433 63.6439 49.4462C63.2723 49.3492 62.8777 49.3952 62.5384 49.5753L54.6384 52.4177C52.322 53.6464 52.6793 57.2768 54.0052 59.5376C55.478 62.0505 57.3796 65.0617 58.8723 66.6675C61.8834 69.8969 64.964 68.4876 64.964 68.4876C64.964 68.4876 66.2522 70.2999 66.9092 71.2209C68.4852 73.436 70.879 72.6321 72.8421 70.7604C73.5786 70.061 74.0549 69.1315 74.1923 68.1252C74.3298 67.1189 74.1203 66.0957 73.5984 65.2244L64.5452 50.0993Z" fill="#FFBE9D"/>
<path d="M56.943 61.9892C57.0241 62.1105 57.1491 62.1956 57.2917 62.2263C57.4344 62.2571 57.5834 62.2311 57.7072 62.154C57.7697 62.1192 57.8245 62.0722 57.8684 62.0158C57.9124 61.9594 57.9446 61.8948 57.9631 61.8258C57.9816 61.7567 57.9861 61.6847 57.9762 61.6139C57.9663 61.543 57.9424 61.4749 57.9057 61.4136C57.8253 61.2921 57.7008 61.2067 57.5584 61.1755C57.4161 61.1444 57.2673 61.17 57.1435 61.2468C57.081 61.2819 57.0261 61.329 56.9821 61.3855C56.9381 61.442 56.9058 61.5067 56.8871 61.5759C56.8685 61.645 56.8638 61.7172 56.8734 61.7882C56.883 61.8592 56.9066 61.9275 56.943 61.9892Z" fill="#263238"/>
<path d="M55.6787 60.6411C55.776 60.663 55.9527 60.1667 56.4529 59.8313C56.9531 59.4958 57.4949 59.4998 57.4949 59.3966C57.5049 59.3509 57.3719 59.2815 57.1337 59.2715C56.8173 59.2689 56.5077 59.3631 56.2464 59.5415C55.9861 59.7154 55.7879 59.9678 55.6807 60.262C55.6093 60.4883 55.6311 60.6332 55.6787 60.6411Z" fill="#263238"/>
<path d="M61.5818 58.6903C61.6622 58.8119 61.7868 58.8973 61.9291 58.9284C62.0714 58.9595 62.2203 58.9339 62.344 58.8571C62.4063 58.8221 62.4609 58.775 62.5047 58.7186C62.5485 58.6622 62.5806 58.5976 62.5991 58.5287C62.6176 58.4597 62.6221 58.3877 62.6124 58.317C62.6027 58.2462 62.5789 58.1781 62.5425 58.1167C62.4622 57.9952 62.3376 57.9098 62.1953 57.8787C62.053 57.8475 61.9041 57.8731 61.7803 57.95C61.7179 57.9848 61.663 58.0317 61.6191 58.0881C61.5751 58.1445 61.5429 58.2091 61.5244 58.2782C61.5059 58.3472 61.5015 58.4193 61.5113 58.4901C61.5212 58.5609 61.5452 58.629 61.5818 58.6903Z" fill="#263238"/>
<path d="M60.6469 57.4297C60.7442 57.4496 60.9209 56.9533 61.4211 56.6179C61.9213 56.2824 62.4552 56.2864 62.4671 56.1891C62.477 56.1435 62.3441 56.074 62.1059 56.0661C61.7895 56.0617 61.4796 56.1553 61.2186 56.334C60.9586 56.5084 60.7606 56.7606 60.6529 57.0546C60.5795 57.2769 60.5993 57.4118 60.6469 57.4297Z" fill="#263238"/>
<path d="M61.3297 62.3505C61.3118 62.3208 60.9664 62.4756 60.4206 62.7475C60.2836 62.819 60.1467 62.8746 60.0673 62.8031C59.9669 62.6793 59.9072 62.5275 59.8966 62.3684C59.8092 61.9714 59.7159 61.5744 59.6207 61.1437C59.2118 59.4089 58.8267 58.0175 58.7552 58.0353C58.6838 58.0532 58.9537 59.4724 59.3666 61.2112C59.4718 61.638 59.5651 62.0429 59.6643 62.4319C59.6894 62.6375 59.7856 62.8278 59.9363 62.9698C59.9851 63.0014 60.0403 63.0219 60.0979 63.0298C60.1555 63.0376 60.2142 63.0328 60.2697 63.0155C60.354 62.9873 60.4341 62.9479 60.5079 62.8984C61.0319 62.5887 61.3475 62.3744 61.3297 62.3505Z" fill="#263238"/>
<path d="M64.964 68.4877C66.685 67.3634 68.0594 65.7828 68.9338 63.9224C68.9338 63.9224 69.442 67.261 65.5932 69.361L64.964 68.4877Z" fill="#EB996E"/>
<path d="M63.6065 62.1756C63.4596 62.1129 63.2993 62.0879 63.1402 62.1028C62.9811 62.1177 62.8282 62.1721 62.6955 62.2609C62.5003 62.3715 62.3384 62.5324 62.2266 62.7269C62.1149 62.9213 62.0575 63.1423 62.0603 63.3665C62.0869 63.5597 62.1837 63.7364 62.3322 63.8628C62.4215 63.9183 62.3679 63.8965 62.4672 63.9104C62.8171 63.9838 63.1797 63.9702 63.5232 63.8707C63.7014 63.806 63.856 63.6893 63.9671 63.5357C64.0783 63.3821 64.1407 63.1987 64.1464 63.0093C64.1407 62.8343 64.0874 62.6643 63.9923 62.5174C63.8972 62.3705 63.7638 62.2523 63.6065 62.1756Z" fill="#EB996E"/>
<path d="M63.0309 61.7052C62.9475 61.7568 63.3108 62.3006 63.1063 62.9954C62.9019 63.6901 62.2846 64.0216 62.3322 64.099C62.3461 64.1387 62.5307 64.1188 62.7788 63.96C63.1012 63.752 63.339 63.4361 63.4497 63.0688C63.5559 62.7169 63.521 62.3375 63.3525 62.0108C63.2175 61.7786 63.0666 61.6774 63.0309 61.7052Z" fill="#263238"/>
<path d="M59.0985 56.0484C59.2375 56.1516 59.694 55.7506 60.3252 55.4271C60.9564 55.1036 61.54 54.9428 61.536 54.7701C61.536 54.6887 61.3633 54.6153 61.0834 54.6133C60.7199 54.6231 60.3635 54.7161 60.0414 54.885C59.7194 55.0539 59.4403 55.2944 59.2256 55.5879C59.0688 55.8241 59.033 55.9988 59.0985 56.0484Z" fill="#455A64"/>
<path d="M54.6982 58.8014C54.861 58.857 55.1269 58.5077 55.5358 58.2238C55.9447 57.94 56.3497 57.7852 56.3516 57.6125C56.3516 57.5311 56.2167 57.4537 55.9904 57.4497C55.6985 57.4599 55.4161 57.5564 55.179 57.727C54.9419 57.8977 54.7608 58.1348 54.6585 58.4084C54.591 58.6168 54.6208 58.7657 54.6982 58.8014Z" fill="#455A64"/>
<path d="M66.574 55.1409C66.6077 55.0853 68.1381 53.1282 69.4938 55.1409C70.8495 57.1536 68.541 58.1183 68.5013 58.0528C68.4616 57.9873 66.574 55.1409 66.574 55.1409Z" fill="#FFBE9D"/>
<path d="M68.6105 56.8801C68.6105 56.8682 68.6622 56.8801 68.7396 56.8682C68.8475 56.8477 68.9434 56.7866 69.0075 56.6975C69.1683 56.4752 69.1207 56.0166 68.8845 55.6455C68.7741 55.468 68.6248 55.3179 68.4478 55.2068C68.3864 55.1564 68.3137 55.1215 68.2359 55.1053C68.1582 55.089 68.0776 55.0919 68.0012 55.1135C67.9538 55.1304 67.9137 55.1631 67.8877 55.2061C67.8616 55.2492 67.8512 55.2999 67.8583 55.3497C67.8702 55.4251 67.9099 55.4569 67.9019 55.4668C67.894 55.4767 67.8344 55.4668 67.7947 55.3676C67.7745 55.3097 67.7745 55.2467 67.7947 55.1889C67.8079 55.1495 67.8287 55.1131 67.8559 55.0818C67.8832 55.0505 67.9164 55.0248 67.9535 55.0063C68.0477 54.9666 68.1504 54.9518 68.2519 54.9632C68.3534 54.9747 68.4503 55.0121 68.5331 55.0718C68.7362 55.1901 68.9078 55.3555 69.0333 55.5542C69.2934 55.971 69.341 56.491 69.1048 56.7709C69.0616 56.8235 69.0069 56.8654 68.945 56.8937C68.8831 56.9219 68.8155 56.9356 68.7475 56.9337C68.6383 56.9257 68.5986 56.888 68.6105 56.8801Z" fill="#EB996E"/>
<path d="M69.7239 57.0964C69.7239 57.0806 69.8688 57.1203 69.98 57.3088C70.0155 57.3645 70.0384 57.4273 70.047 57.4929C70.0556 57.5584 70.0496 57.625 70.0296 57.6879C69.997 57.7624 69.9466 57.8277 69.883 57.8782C69.8193 57.9287 69.7443 57.9629 69.6644 57.9777C69.586 58.001 69.5031 58.0045 69.4231 57.9879C69.3431 57.9712 69.2684 57.935 69.2058 57.8825C69.111 57.7921 69.0554 57.668 69.051 57.5371C69.051 57.3128 69.1602 57.2116 69.1661 57.2235C69.14 57.3224 69.1299 57.425 69.1364 57.5272C69.1513 57.6314 69.2027 57.727 69.2813 57.7971C69.3312 57.8344 69.3892 57.8594 69.4506 57.87C69.512 57.8807 69.575 57.8768 69.6346 57.8586C69.6958 57.8475 69.7537 57.8226 69.8039 57.7858C69.8541 57.749 69.8953 57.7013 69.9244 57.6463C69.9409 57.5977 69.9474 57.5463 69.9437 57.4952C69.9399 57.444 69.9259 57.3942 69.9026 57.3485C69.8536 57.2575 69.7936 57.1728 69.7239 57.0964Z" fill="#263238"/>
<path d="M54.2337 60.2184C54.1047 59.4523 54.3409 58.6662 54.6823 57.9675C55.0237 57.2689 55.4763 56.6238 55.8058 55.9211C56.5787 54.2884 56.7201 52.4275 56.2028 50.6968C54.8649 50.8635 53.674 51.7627 53.015 52.9378C52.3787 54.1403 52.1735 55.5245 52.4334 56.86C52.6984 58.1872 53.2491 59.4409 54.0471 60.534" fill="#455A64"/>
<path d="M62.7887 48.6165C60.3373 48.2195 56.9967 49.3608 55.512 51.3477C56.957 52.8424 59.5314 53.8686 61.5422 54.3986C63.5529 54.9285 65.8097 56.7507 67.7371 54.2934C67.8701 54.1226 68.1698 54.1445 68.2611 53.95C68.3196 53.7756 68.3132 53.5861 68.2432 53.416C67.8624 52.1923 67.1519 51.0971 66.1898 50.2505C65.2276 49.4039 64.0509 48.8385 62.7887 48.6165Z" fill="#455A64"/>
<path d="M56.0143 62.5847C55.9122 62.6867 55.7868 62.7623 55.649 62.805C55.2697 62.9311 54.8577 62.917 54.4878 62.7653C53.9462 62.5287 53.503 62.1122 53.2334 61.5863C53.0645 61.2879 52.921 60.9758 52.8046 60.6533C52.6728 60.3122 52.5588 59.9643 52.4632 59.6113C52.1288 58.367 52.0219 57.0726 52.1476 55.7903C52.1869 55.4012 52.2492 55.0148 52.3342 54.6331L52.4136 54.3254C52.4198 54.2887 52.4319 54.2532 52.4493 54.2202C52.4363 54.3618 52.4137 54.5024 52.3818 54.641C52.3402 54.913 52.2727 55.302 52.2389 55.7903C52.1407 57.058 52.2581 58.3332 52.5863 59.5616C52.6875 59.9209 52.7848 60.2683 52.9217 60.5958C53.0353 60.9121 53.174 61.2187 53.3366 61.5128C53.5899 62.0227 54.0102 62.4304 54.5275 62.668C54.8792 62.8199 55.2722 62.8465 55.6411 62.7435C55.77 62.7019 55.8949 62.6488 56.0143 62.5847Z" fill="#455A64"/>
<path d="M72.1714 54.3392C72.1575 54.3392 72.0166 54.1407 71.705 53.8449C71.2621 53.4176 70.7593 53.0571 70.2123 52.7751C69.4002 52.364 68.53 52.0795 67.6319 51.9315C66.526 51.7647 65.4065 51.7062 64.2893 51.7568C63.0983 51.7885 61.961 51.86 60.9149 51.854C59.9946 51.8601 59.0756 51.7811 58.1698 51.6178C57.5566 51.5055 56.9576 51.3264 56.3834 51.0839C56.1849 50.9946 56.03 50.9211 55.9288 50.8656C55.8759 50.8405 55.8254 50.8106 55.778 50.7762C55.778 50.7643 55.9963 50.8795 56.4032 51.0402C56.977 51.2626 57.5714 51.4275 58.1777 51.5325C59.0797 51.6813 59.9929 51.751 60.907 51.7409C61.9391 51.7409 63.0745 51.6655 64.2694 51.6317C65.398 51.5854 66.5284 51.6519 67.6438 51.8302C68.5547 51.9833 69.4356 52.2794 70.254 52.7076C70.8042 52.9996 71.3057 53.3753 71.7407 53.8211C71.8568 53.9427 71.9661 54.0706 72.0682 54.2042C72.1063 54.2462 72.1409 54.2914 72.1714 54.3392Z" fill="white"/>
<path d="M67.6755 50.123C67.634 50.1279 67.592 50.1279 67.5505 50.123L67.1951 50.0674L66.9391 50.0297C66.8458 50.0178 66.7406 50.0139 66.6334 50.0059C66.4131 49.992 66.163 49.9622 65.8851 49.9682H65.4504C65.2995 49.9682 65.1427 49.9821 64.978 49.99C64.6525 49.99 64.3051 50.0377 63.9399 50.0694C63.2094 50.1508 62.4095 50.2679 61.5699 50.3969C60.7303 50.526 59.9244 50.6292 59.188 50.6887C58.8188 50.7086 58.4694 50.7383 58.1399 50.7304C57.9752 50.7304 57.8164 50.7304 57.6655 50.7304L57.2269 50.7006C56.976 50.6837 56.7262 50.6533 56.4786 50.6093C56.3694 50.5915 56.2662 50.5776 56.1729 50.5597L55.9208 50.4942L55.5734 50.4009C55.5322 50.3928 55.4922 50.3794 55.4543 50.3612C55.4965 50.3614 55.5385 50.3667 55.5794 50.3771L55.9307 50.4485L56.1828 50.5021L56.4885 50.5418C56.7352 50.5784 56.9837 50.6022 57.2328 50.6133L57.6675 50.6351C57.8184 50.6351 57.9772 50.6351 58.1399 50.6351C58.4655 50.6351 58.8128 50.6054 59.18 50.5835C59.9105 50.518 60.7124 50.4089 61.552 50.2818C62.3916 50.1548 63.1936 50.0397 63.9339 49.9642C64.3031 49.9345 64.6525 49.8987 64.98 49.8948C65.1447 49.8948 65.3035 49.8809 65.4564 49.8809L65.895 49.8928C66.1749 49.8928 66.425 49.9285 66.6453 49.9483C66.7565 49.9603 66.8597 49.9682 66.953 49.9821L67.209 50.0317L67.5604 50.1052C67.5993 50.1064 67.638 50.1124 67.6755 50.123Z" fill="#263238"/>
<path d="M53.9497 59.6368C53.8852 59.5281 53.8307 59.4139 53.7869 59.2954C53.7239 59.1605 53.6708 59.0212 53.6281 58.8785C53.5609 58.693 53.5033 58.5042 53.4554 58.3128L53.374 57.9794C53.3463 57.8622 53.3304 57.7392 53.3085 57.6121C53.2622 57.3414 53.2297 57.0684 53.2113 56.7944C53.1283 55.5337 53.3248 54.2703 53.7869 53.0945C53.8852 52.8389 53.9965 52.5884 54.1204 52.3442C54.1799 52.231 54.2315 52.1179 54.2931 52.0147L54.4737 51.7229C54.577 51.5544 54.689 51.3914 54.8091 51.2346C54.8945 51.1132 54.9873 50.9972 55.087 50.8872C55.1663 50.7886 55.2533 50.6963 55.3471 50.6113C55.3689 50.6292 54.9957 51.0242 54.5531 51.7685L54.3804 52.0623C54.3228 52.1635 54.2732 52.2767 54.2157 52.3898C54.0946 52.6161 53.9993 52.8702 53.8881 53.1342C53.6736 53.7175 53.5142 54.3195 53.4118 54.9325C53.3219 55.5468 53.2914 56.1683 53.3205 56.7884C53.3352 57.059 53.3637 57.3286 53.4058 57.5963C53.4257 57.7213 53.4376 57.8444 53.4634 57.9615C53.4892 58.0786 53.513 58.1858 53.5368 58.293C53.7413 59.1366 53.9775 59.6268 53.9497 59.6368Z" fill="white"/>
<path d="M69.7836 51.209C69.7836 51.209 69.8153 51.209 69.8709 51.2467C69.9265 51.2844 70.0098 51.3162 70.1111 51.3757C70.4013 51.5408 70.6792 51.7265 70.9428 51.9315C71.3354 52.2372 71.6859 52.5936 71.9848 52.9914C72.1598 53.2276 72.317 53.4764 72.4553 53.7358C72.6015 54.015 72.7295 54.3034 72.8384 54.5992C73.0561 55.1663 73.2234 55.7515 73.3386 56.3479C73.4291 56.8374 73.4511 57.3371 73.4041 57.8327C73.3728 58.165 73.3063 58.493 73.2056 58.8112C73.1698 58.9244 73.1321 59.0097 73.1103 59.0673C73.0885 59.1248 73.0726 59.1546 73.0686 59.1526C73.201 58.7197 73.2914 58.275 73.3386 57.8247C73.3761 57.3361 73.3473 56.8447 73.2532 56.3638C73.1336 55.7745 72.9649 55.1962 72.749 54.635C72.642 54.3435 72.5167 54.0591 72.3739 53.7834C72.2389 53.5279 72.0857 53.2825 71.9154 53.049C71.6247 52.6544 71.2853 52.2983 70.905 51.9891C70.6473 51.7812 70.3783 51.5877 70.0992 51.4095C69.9898 51.3495 69.8844 51.2825 69.7836 51.209Z" fill="#263238"/>
<path d="M61.8439 88.23L69.9821 87.833L66.3834 71.5566C66.3834 71.5566 62.3917 74.3355 62.3203 78.5614C62.2587 82.4102 61.8439 88.23 61.8439 88.23Z" fill="#FFD000"/>
<path d="M90.4446 78.6506C88.9262 73.071 85.0853 67.1024 85.0853 67.1024C85.0853 67.1024 82.9496 62.1043 77.5168 62.8467C77.5168 62.8467 75.3334 63.2437 74.331 64.4843L65.6907 72.1738L66.308 83.206C66.4052 84.9587 67.0563 86.9218 68.3266 88.1326C69.7804 89.518 71.5917 90.4707 73.5569 90.8837C73.025 91.634 73.2473 92.7297 73.8467 93.4264C74.4462 94.1231 75.3314 94.5022 76.2048 94.7861C81.9869 96.6717 88.5967 95.3577 93.5292 91.7987C93.5332 91.7888 91.8738 83.8749 90.4446 78.6506Z" fill="#FFD000"/>
<path d="M86.7646 88.2295C86.7208 88.244 86.6755 88.2533 86.6296 88.2573L86.2445 88.3109L84.8273 88.5094C83.6363 88.6821 81.9849 88.95 80.1766 89.3133C78.3683 89.6765 76.7467 90.0735 75.5775 90.3772L74.1881 90.7444L73.811 90.8437C73.7678 90.8577 73.7232 90.867 73.678 90.8715C73.7182 90.8504 73.7609 90.8344 73.805 90.8238L74.1762 90.7067C74.4997 90.6055 74.9702 90.4685 75.5517 90.3097C76.7169 89.9862 78.3306 89.5813 80.1488 89.214C81.967 88.8468 83.6105 88.5947 84.8094 88.4399C85.4049 88.3625 85.8952 88.3049 86.2326 88.2732L86.6197 88.2375C86.6678 88.2318 86.7161 88.2292 86.7646 88.2295Z" fill="#263238"/>
<path d="M66.3755 71.5583C66.5204 72.4178 66.971 74.224 67.2389 75.3197C67.3342 75.6969 67.8443 76.1435 68.1738 76.3519C68.6978 76.6834 69.2953 76.4749 69.7618 76.07C71.1135 74.9088 71.9591 73.2911 72.5605 70.937C73.0071 69.1923 74.3311 64.4741 74.3311 64.4741L70.1984 67.8008L66.3755 71.5583Z" fill="#FFBE9D"/>
<path d="M66.0934 79.6865C66.1022 79.7188 66.1056 79.7524 66.1033 79.7858C66.1033 79.8632 66.1033 79.9565 66.1133 80.0716C66.1133 80.3356 66.1272 80.6889 66.1351 81.1196C66.1446 82.2713 66.2703 83.4191 66.5103 84.5456C66.7584 85.671 67.2496 86.7284 67.9493 87.6441C68.1658 87.9171 68.4056 88.1707 68.6659 88.4023C68.8505 88.5651 68.9577 88.6504 68.9537 88.6584C68.9232 88.644 68.8945 88.626 68.8683 88.6048C68.8167 88.5651 68.7334 88.5135 68.6381 88.4341C68.3651 88.2115 68.115 87.9622 67.8918 87.6897C67.1672 86.7756 66.6601 85.7086 66.409 84.5694C66.1669 83.4364 66.0504 82.2802 66.0617 81.1216C66.0617 80.677 66.0617 80.3277 66.0736 80.0716C66.0736 79.9565 66.0736 79.8731 66.0736 79.7858C66.0772 79.7522 66.0838 79.7189 66.0934 79.6865Z" fill="#263238"/>
<path d="M66.3079 83.1304C66.282 83.163 66.2527 83.193 66.2206 83.2197C66.13 83.2999 66.0284 83.3667 65.9189 83.4182C65.7448 83.4991 65.5568 83.5463 65.3651 83.5571C65.1118 83.571 64.8581 83.538 64.6168 83.4599C64.322 83.3687 64.0463 83.2248 63.803 83.0351C63.5278 82.8149 63.2911 82.5506 63.1023 82.253C62.8914 81.9258 62.7314 81.5684 62.6279 81.1931C62.5737 80.9907 62.5562 80.7803 62.5763 80.5718C62.6009 80.3552 62.6839 80.1494 62.8165 79.9763C62.9515 79.7969 63.1506 79.6767 63.3722 79.6409C63.586 79.615 63.8022 79.6604 63.9876 79.7699C64.1671 79.8702 64.317 80.016 64.4223 80.1927C64.5211 80.3618 64.5802 80.5512 64.595 80.7465C64.6166 81.1024 64.5483 81.458 64.3965 81.7806C64.2781 82.066 64.1025 82.3241 63.8804 82.5389C63.7813 82.6324 63.6664 82.7077 63.541 82.7612C63.4298 82.8048 63.3149 82.838 63.1976 82.8604C63.0115 82.8993 62.822 82.9199 62.6319 82.9219C62.5117 82.9246 62.3916 82.9119 62.2746 82.8842C62.2329 82.8771 62.193 82.8615 62.1575 82.8386C62.1575 82.8386 62.1992 82.8525 62.2786 82.8644C62.3954 82.8826 62.5139 82.8879 62.6319 82.8803C62.8184 82.8728 63.0039 82.8475 63.1857 82.8048C63.2987 82.7793 63.4096 82.7448 63.5171 82.7016C63.6335 82.6483 63.7396 82.5751 63.8308 82.4853C64.0408 82.2739 64.2068 82.0229 64.3191 81.7469C64.4594 81.4358 64.5208 81.0949 64.4977 80.7544C64.4832 80.5738 64.4282 80.3988 64.3369 80.2423C64.2401 80.0818 64.1033 79.9491 63.9399 79.8572C63.7738 79.7586 63.5799 79.7175 63.3881 79.7401C63.1927 79.7731 63.0177 79.8805 62.8998 80.0398C62.7776 80.1988 62.7014 80.3883 62.6795 80.5877C62.6614 80.7835 62.6775 80.981 62.7271 81.1712C62.8273 81.537 62.9819 81.8856 63.1857 82.2054C63.366 82.4962 63.5934 82.7551 63.8585 82.9716C64.0919 83.1581 64.3568 83.3013 64.6406 83.3943C64.8736 83.4741 65.119 83.5111 65.3651 83.5035C65.5502 83.4972 65.7325 83.4568 65.903 83.3844C66.0476 83.3161 66.1835 83.2308 66.3079 83.1304Z" fill="#263238"/>
<path d="M75.0772 84.0355C75.0772 84.0355 75.0772 84.0514 75.0474 84.0752C75.0177 84.099 74.9879 84.1387 74.9502 84.1824C74.8227 84.3179 74.6868 84.4452 74.5433 84.5635C73.9993 84.9862 73.3669 85.2806 72.6933 85.425C71.6913 85.654 70.6412 85.535 69.7159 85.0875C69.1592 84.8343 68.6916 84.4193 68.3741 83.8966C68.2091 83.6145 68.1253 83.2923 68.132 82.9656C68.1382 82.6271 68.25 82.2989 68.4515 82.0268C68.5531 81.8903 68.6823 81.7768 68.8308 81.6937C68.9792 81.6105 69.1436 81.5597 69.313 81.5444C69.6423 81.5237 69.9691 81.6131 70.2419 81.7985C70.5054 81.9725 70.715 82.2165 70.8473 82.5032C70.9717 82.7752 71.0444 83.068 71.0617 83.3666C71.0866 83.9151 70.989 84.4623 70.7759 84.9684C70.5479 85.5043 70.2115 85.9872 69.788 86.3869C69.3644 86.7865 68.8628 87.0943 68.3146 87.2908C68.2014 87.3345 68.0943 87.3563 68.0049 87.3821C67.9293 87.4031 67.8524 87.419 67.7747 87.4297L67.6318 87.4516H67.5822C67.825 87.3981 68.0648 87.3318 68.3007 87.2531C68.9375 87.0146 69.5059 86.6233 69.9561 86.1137C70.2682 85.7664 70.5186 85.3684 70.6965 84.9367C70.9015 84.4425 70.9938 83.9088 70.9664 83.3745C70.9499 83.0886 70.8791 82.8084 70.758 82.5488C70.6339 82.2783 70.4357 82.0484 70.1864 81.8858C69.9327 81.7133 69.6291 81.6296 69.3229 81.6477C69.1666 81.6609 69.0148 81.7075 68.8779 81.7842C68.741 81.8608 68.622 81.9659 68.529 82.0923C68.34 82.3463 68.2352 82.6531 68.2292 82.9696C68.2221 83.278 68.3004 83.5823 68.4555 83.8489C68.7638 84.3528 69.215 84.7535 69.7517 85.0002C70.6594 85.4439 71.6905 85.5677 72.6774 85.3515C73.3429 85.2156 73.9704 84.9351 74.5155 84.5298C74.6607 84.416 74.7998 84.2948 74.9323 84.1665L75.0375 84.0653L75.0772 84.0355Z" fill="#263238"/>
<path d="M91.183 81.8937C91.0477 82.0819 90.8875 82.2509 90.7066 82.3959C90.1015 82.9114 89.3513 83.2264 88.5595 83.2975C87.7678 83.3686 86.9735 83.1923 86.2862 82.7929C85.7963 82.5203 85.3764 82.1378 85.0595 81.6754C84.8927 81.4268 84.7791 81.1463 84.726 80.8516C84.6729 80.5453 84.7045 80.2302 84.8173 79.9405C84.9293 79.6444 85.1472 79.4004 85.4287 79.2557C85.7033 79.1162 86.0213 79.0884 86.316 79.1783C86.4561 79.226 86.584 79.3041 86.6904 79.4071C86.7968 79.51 86.8791 79.6353 86.9313 79.7738C87.0283 80.0363 87.055 80.3196 87.0087 80.5956C86.974 80.8544 86.8989 81.1062 86.7864 81.3419C86.6846 81.5631 86.5706 81.7784 86.445 81.987C86.2222 82.3654 85.9476 82.7108 85.6292 83.0132C85.1654 83.452 84.5841 83.7465 83.9559 83.8608C83.787 83.8929 83.6157 83.9101 83.4438 83.9124H83.3108C83.2957 83.9153 83.2802 83.9153 83.2651 83.9124C83.2651 83.8985 83.5133 83.9124 83.948 83.823C84.5623 83.6959 85.128 83.3972 85.5796 82.9616C85.8892 82.6605 86.1563 82.3186 86.3735 81.9453C86.6431 81.5319 86.8279 81.069 86.9174 80.5837C86.9579 80.3247 86.932 80.0597 86.842 79.8135C86.7954 79.688 86.7214 79.5745 86.6252 79.4814C86.529 79.3883 86.4131 79.318 86.2862 79.2756C86.0168 79.1955 85.7269 79.2218 85.4763 79.349C85.2172 79.4814 85.0169 79.7058 84.9146 79.9783C84.8094 80.2512 84.78 80.5474 84.8293 80.8357C84.8805 81.116 84.9886 81.3828 85.1468 81.6198C85.4548 82.0697 85.8623 82.4426 86.3378 82.7095C87.1446 83.1759 88.0931 83.3338 89.0075 83.1541C89.6217 83.0264 90.1967 82.7542 90.6848 82.3602C90.8589 82.2135 91.0252 82.0578 91.183 81.8937Z" fill="#263238"/>
<g opacity="0.3">
<path d="M73.6858 90.8715C77.8541 90.9053 82.088 90.0636 85.8196 88.1938C81.7664 88.8528 77.5623 89.5238 73.6858 90.8715Z" fill="black"/>
</g>
<path d="M73.8506 93.4165C73.8506 93.4165 71.6473 96.6698 70.8176 99.1589C69.9879 101.648 70.4663 108.798 70.4663 108.798L95.8435 108.712C97.1664 105.797 97.6661 102.575 97.2885 99.3951C96.6434 94.143 93.5331 91.1001 93.5331 91.1001L73.8506 93.4165Z" fill="#263238"/>
<path d="M79.6963 108.766C79.7137 108.659 79.7416 108.555 79.7797 108.454C79.8392 108.255 79.9345 107.97 80.0556 107.618C80.2977 106.918 80.6749 105.961 81.1195 104.921C81.5641 103.881 81.9531 102.936 82.2171 102.237L82.5268 101.415C82.5606 101.313 82.6024 101.213 82.6518 101.118C82.6318 101.224 82.6025 101.328 82.5645 101.429C82.503 101.628 82.4077 101.912 82.2846 102.263C82.0385 102.964 81.6614 103.918 81.2148 104.96C80.7681 106.003 80.3831 106.945 80.123 107.644C80 107.98 79.8968 108.255 79.8174 108.468C79.7851 108.57 79.7446 108.67 79.6963 108.766Z" fill="#455A64"/>
<path d="M97.4235 99.6905C97.4235 99.6905 97.3997 99.7123 97.3501 99.7421C97.2787 99.7861 97.2052 99.8265 97.1298 99.8632C96.8531 100.002 96.5623 100.111 96.2624 100.189C95.2631 100.461 94.2023 100.399 93.2416 100.012C92.2808 99.6257 91.4728 98.9355 90.9408 98.047C90.7802 97.7827 90.6472 97.5027 90.5438 97.2113C90.5061 97.1081 90.4862 97.0247 90.4704 96.9691C90.4545 96.9136 90.4485 96.8858 90.4525 96.8838C90.6031 97.2747 90.7884 97.6514 91.0063 98.0092C91.5458 98.8689 92.3434 99.5359 93.285 99.9149C94.2265 100.294 95.2638 100.365 96.2485 100.119C96.6524 100.012 97.0457 99.8688 97.4235 99.6905Z" fill="#455A64"/>
<path d="M17.1586 101.143C17.1586 101.143 15.4437 103.182 18.695 104.781C21.9463 106.381 61.9365 119.293 62.387 119.293C63.2922 119.293 64.9932 119.984 66.4522 117.882L84.8663 106.33C84.8663 106.33 81.1406 108.416 79.904 108.279C77.4744 108.009 52.4585 103.209 52.4585 103.209C52.4585 103.209 50.7753 102.675 50.9857 101.143H17.1586Z" fill="#455A64"/>
<path d="M18.8319 103.509L49.1813 103.112L63.6296 105.946L71.5693 107.489L75.6761 108.283L76.7162 108.481L77.2382 108.576L77.7404 108.66C77.7225 108.693 77.7622 108.584 77.8059 108.739L77.788 108.757L77.7722 108.769L77.7444 108.789L77.6868 108.824L77.5756 108.898L77.3494 109.041L76.9047 109.317L75.9877 109.876L63.2485 117.782L63.2286 117.794H63.2068L18.8319 103.509L63.2366 117.691H63.1949L75.9341 109.791L76.8432 109.223L77.3017 108.944L77.528 108.801L77.6392 108.729L77.6947 108.691L77.7205 108.674H77.7325C77.7483 108.674 77.7067 108.654 77.7543 108.699C77.8019 108.745 77.794 108.785 77.7781 108.757C77.6821 108.752 77.5866 108.74 77.4923 108.721L77.2283 108.676L76.7062 108.58L75.6662 108.382L71.5594 107.588L63.6197 106.042L49.1734 103.195L18.8319 103.509Z" fill="#263238"/>
<path d="M26.1045 104.65L49.2645 104.319H49.2745L72.0157 108.922L72.1487 108.948L72.0316 109.017C71.714 109.206 71.3686 109.414 71.0213 109.613L62.6429 114.541L62.6231 114.551H62.6032L48.151 110.452C45.9676 109.829 43.8755 109.287 41.9342 108.787L36.5551 107.419C33.28 106.592 30.6639 105.917 28.8695 105.434C27.9723 105.19 27.2815 105.002 26.8111 104.861L26.1045 104.662L28.8834 105.407C30.6698 105.883 33.2978 106.55 36.5749 107.368L41.9581 108.723C43.8993 109.222 45.9855 109.758 48.1788 110.379L62.631 114.442H62.5913L70.9697 109.509L71.98 108.914L71.9959 109.009L49.2566 104.402H49.2665L26.1045 104.65Z" fill="white"/>
<path d="M73.0736 108.821C73.0895 108.844 70.7493 110.29 67.8473 112.048C64.9454 113.807 62.5813 115.212 62.5674 115.188C62.5535 115.164 64.8918 113.717 67.7937 111.959C70.6957 110.2 73.0597 108.795 73.0736 108.821Z" fill="white"/>
<path d="M62.6686 115.946C62.6117 115.686 62.5883 115.419 62.5991 115.152C62.5778 114.887 62.5898 114.621 62.6349 114.358C62.6917 114.619 62.7144 114.886 62.7024 115.152C62.7249 115.417 62.7136 115.684 62.6686 115.946Z" fill="white"/>
<path d="M81.9431 117.507C81.9213 117.525 81.8101 117.428 81.697 117.289C81.5838 117.15 81.5084 117.021 81.5303 117.003C81.5521 116.985 81.6632 117.084 81.7764 117.223C81.8895 117.362 81.965 117.489 81.9431 117.507Z" fill="white"/>
<path d="M42.1863 104.505C42.2093 104.513 42.2313 104.523 42.2518 104.535L42.4403 104.63L43.1569 105.012L45.7849 106.425L54.4412 111.125L57.8731 112.999H57.8235C60.2729 111.441 62.4384 110.18 63.9926 109.313C64.7687 108.878 65.392 108.541 65.8207 108.32L66.315 108.062L66.444 107.997L66.4877 107.977C66.4877 107.977 66.4758 107.989 66.448 108.005L66.3229 108.076L65.8366 108.35L64.0244 109.374C62.4781 110.258 60.3205 111.528 57.8711 113.09L57.8453 113.106L57.8195 113.092L54.3856 111.222L45.7452 106.496L43.1311 105.053L42.4245 104.656L42.2399 104.549L42.1863 104.505Z" fill="white"/>
<path d="M46.0975 113.041L48.799 114.24L72.7074 112.571L70.8058 111.352L46.0975 113.041Z" fill="#FFD000"/>
<path d="M49.5551 113.569C49.0592 113.409 48.5867 113.184 48.1498 112.9C48.6457 113.06 49.1182 113.285 49.5551 113.569Z" fill="#263238"/>
<path d="M53.1281 113.319C52.6322 113.159 52.1597 112.934 51.7228 112.65C52.2187 112.81 52.6912 113.035 53.1281 113.319Z" fill="#263238"/>
<path d="M56.7167 113.067C56.4637 113.003 56.2202 112.906 55.9922 112.779C55.7492 112.681 55.5203 112.552 55.3114 112.394C55.8073 112.554 56.2798 112.779 56.7167 113.063V113.067Z" fill="#263238"/>
<path d="M60.2975 112.817C59.8016 112.657 59.3291 112.432 58.8922 112.148C59.146 112.211 59.3903 112.308 59.6187 112.436C59.861 112.532 60.0893 112.66 60.2975 112.817Z" fill="#263238"/>
<path d="M63.8804 112.567C63.3836 112.408 62.9108 112.183 62.4751 111.896C62.7283 111.96 62.9719 112.058 63.1996 112.186C63.4421 112.283 63.6709 112.411 63.8804 112.567Z" fill="#263238"/>
<path d="M67.4612 112.315C67.2082 112.251 66.9646 112.154 66.7367 112.027C66.4937 111.931 66.2647 111.803 66.0559 111.646C66.5518 111.806 67.0244 112.031 67.4612 112.315Z" fill="#263238"/>
<path d="M50.7461 113.129C50.7342 113.154 50.5476 113.095 50.3491 112.996C50.1506 112.896 49.9799 112.797 49.9918 112.769C50.0037 112.742 50.1903 112.803 50.3888 112.902C50.5873 113.002 50.7461 113.103 50.7461 113.129Z" fill="#263238"/>
<path d="M54.3387 112.892C54.3268 112.918 54.1402 112.859 53.9417 112.759C53.7432 112.66 53.5725 112.561 53.5845 112.533C53.5964 112.505 53.7829 112.567 53.9814 112.666C54.1799 112.765 54.3506 112.867 54.3387 112.892Z" fill="#263238"/>
<path d="M57.9395 112.656C57.9276 112.682 57.741 112.622 57.5425 112.523C57.344 112.424 57.1753 112.325 57.1872 112.297C57.1991 112.269 57.3857 112.33 57.5842 112.43C57.7827 112.529 57.9514 112.63 57.9395 112.656Z" fill="#263238"/>
<path d="M61.54 112.418C61.5281 112.444 61.3415 112.384 61.143 112.285C60.9445 112.186 60.7758 112.087 60.7877 112.059C60.7996 112.031 60.9862 112.093 61.1847 112.192C61.3832 112.291 61.5519 112.394 61.54 112.418Z" fill="#263238"/>
<path d="M65.1408 112.182C65.1289 112.208 64.9423 112.148 64.7438 112.049C64.5453 111.95 64.3766 111.85 64.3885 111.823C64.4004 111.795 64.587 111.856 64.7855 111.956C64.984 112.055 65.1527 112.156 65.1408 112.182Z" fill="#263238"/>
<path d="M68.7415 111.946C68.7296 111.971 68.543 111.912 68.3445 111.813C68.1461 111.713 67.9773 111.614 67.9892 111.586C68.0012 111.558 68.1877 111.62 68.3862 111.719C68.5847 111.819 68.7534 111.92 68.7415 111.946Z" fill="#263238"/>
<path d="M83.7553 68.2954C83.5747 66.4832 79.9006 62.2215 75.5516 64.7583C75.3869 64.8555 74.7001 67.1679 74.7576 72.3605C74.8152 77.5531 75.8037 90.0144 75.8037 90.0144L73.2372 108.256L77.9772 109.139C77.9772 109.139 82.5425 93.4582 82.7827 91.1001C82.7847 91.1001 83.9359 70.1156 83.7553 68.2954ZM82.8442 90.2645C82.8442 90.197 82.8561 90.1474 82.8601 90.1136C82.8819 90.1514 82.8779 90.203 82.87 90.2645H82.8442Z" fill="#FFBE9D"/>
<path d="M73.662 78.5634L84.0372 78.5138C84.0372 78.5138 84.9642 69.8794 84.3985 67.9937C83.7077 65.7051 79.726 62.5729 76.2285 63.9722C72.7311 65.3716 73.662 78.5634 73.662 78.5634Z" fill="#FFD000"/>
<path d="M75.123 65.4546C75.123 65.4546 75.113 65.4744 75.0872 65.5102L74.9741 65.667C74.9304 65.7384 74.8808 65.8317 74.8193 65.9409C74.7577 66.0501 74.7061 66.1831 74.6525 66.3379C74.3559 67.2187 74.1563 68.1292 74.0571 69.0532C73.7454 71.4074 73.6224 74.746 73.7157 78.563L73.666 78.5154L77.5982 78.4955L84.0392 78.4677L83.9936 78.5134C84.1127 75.3375 84.2139 72.642 84.2854 70.7265C84.3251 69.7758 84.3548 69.0195 84.3767 68.4975C84.3886 68.2414 84.3985 68.0429 84.4045 67.902C84.4045 67.8385 84.4045 67.7889 84.4144 67.7492C84.4119 67.732 84.4119 67.7147 84.4144 67.6976C84.4166 67.7147 84.4166 67.732 84.4144 67.7492V67.902C84.4144 68.0429 84.4144 68.2414 84.4005 68.4975C84.3846 69.0215 84.3628 69.7777 84.335 70.7285C84.2734 72.644 84.1841 75.3474 84.0809 78.5174V78.563H84.0353L77.5922 78.5987L73.6601 78.6166H73.6104V78.567C73.5211 74.742 73.6581 71.4014 73.9876 69.0394C74.0945 68.1128 74.3056 67.2012 74.6168 66.322C74.6744 66.1692 74.7438 66.0401 74.7935 65.925C74.8431 65.8099 74.9106 65.7265 74.9562 65.6531L75.0773 65.5002C75.1071 65.4705 75.123 65.4546 75.123 65.4546Z" fill="#263238"/>
<path d="M77.9793 109.139L73.3286 108.099C73.3286 108.099 72.6934 109.232 72.6577 109.218C72.622 109.204 68.3266 110.756 68.0626 110.887C67.9078 110.967 67.6001 111.447 67.3719 111.83C67.1918 112.137 67.1171 112.494 67.1595 112.847C67.1595 112.847 66.8181 113.539 66.8975 113.641C67.096 113.877 67.5088 113.859 67.9852 113.609C68.535 113.317 69.8491 111.822 69.8491 111.822C69.8491 111.822 68.6839 113.899 68.6462 114.333C68.6085 114.768 68.6978 114.961 69.2893 114.756C69.9463 114.528 71.4866 112.176 71.4866 112.176C71.4866 112.176 71.3913 113.277 71.1095 113.841C70.8276 114.405 70.9249 114.974 71.5462 114.917C72.1674 114.859 72.8959 112.986 72.8959 112.986L73.3862 112.561C73.3246 112.914 73.2087 113.257 73.0428 113.575C72.8066 114 72.0741 114.885 72.9019 114.847C73.7296 114.81 74.9265 112.811 74.9265 112.811C74.9265 112.811 76.7943 111.535 77.2191 110.796C77.5129 110.263 77.767 109.709 77.9793 109.139Z" fill="#FFBE9D"/>
<path d="M71.2981 110.145C71.2351 110.179 71.1685 110.206 71.0996 110.224C70.9745 110.268 70.7899 110.33 70.5617 110.403C70.3334 110.476 70.0535 110.552 69.7479 110.627C69.4176 110.699 69.1042 110.834 68.8249 111.024C68.2294 111.445 67.8801 112.027 67.5525 112.376C67.4299 112.518 67.3153 112.666 67.2092 112.821C67.1758 112.882 67.1365 112.94 67.092 112.993C67.1075 112.923 67.1358 112.855 67.1754 112.795C67.2696 112.629 67.3772 112.471 67.497 112.322C67.6478 112.136 67.8185 111.914 68.017 111.661C68.2321 111.387 68.4831 111.143 68.7633 110.935C69.0546 110.74 69.3819 110.605 69.726 110.538C70.0357 110.465 70.3116 110.405 70.5418 110.34C70.7721 110.274 70.9587 110.224 71.0897 110.191C71.1567 110.166 71.2268 110.15 71.2981 110.145Z" fill="#EB996E"/>
<path d="M70.7165 111.175C70.7344 111.205 70.3493 111.411 69.9821 111.785C69.7701 112.021 69.5831 112.278 69.4243 112.553C69.4919 112.228 69.6616 111.934 69.9086 111.713C70.1281 111.469 70.4061 111.283 70.7165 111.175Z" fill="#EB996E"/>
<path d="M72.4235 111.477C72.4235 111.493 72.3322 111.507 72.1972 111.562C72.0217 111.633 71.8678 111.749 71.7508 111.897C71.6338 112.046 71.5578 112.223 71.5302 112.41C71.5084 112.555 71.5164 112.648 71.4985 112.652C71.4806 112.656 71.4528 112.561 71.4568 112.404C71.4661 112.197 71.5403 111.997 71.6688 111.834C71.7974 111.671 71.9738 111.552 72.1734 111.495C72.3262 111.453 72.4235 111.465 72.4235 111.477Z" fill="#EB996E"/>
<path d="M74.0154 111.949C74.0154 111.963 73.9678 112.009 73.8765 112.074C73.7588 112.156 73.6491 112.248 73.549 112.35C73.4545 112.453 73.3864 112.577 73.3505 112.712C73.3247 112.815 73.3306 112.886 73.3167 112.888C73.3028 112.89 73.2691 112.823 73.279 112.7C73.2971 112.542 73.3669 112.395 73.4775 112.281C73.5825 112.171 73.7062 112.08 73.8427 112.013C73.94 111.961 74.0075 111.937 74.0154 111.949Z" fill="#EB996E"/>
<path d="M84.0928 72.5745C83.8252 72.7217 83.5457 72.8459 83.2571 72.9457C82.4676 73.2223 81.6383 73.3684 80.8018 73.3784C79.5552 73.3986 78.3232 73.108 77.217 72.5328C76.8972 72.3668 76.598 72.1636 76.3258 71.9274C76.0372 71.6803 75.801 71.378 75.631 71.0382C75.4589 70.6805 75.3901 70.2817 75.4326 69.8869C75.4769 69.4752 75.6781 69.0964 75.9943 68.829C76.3171 68.5756 76.7116 68.4304 77.1217 68.4141C77.3214 68.4011 77.5219 68.4165 77.7172 68.4598C77.9097 68.4967 78.0953 68.5637 78.267 68.6583C78.4372 68.7498 78.5909 68.8692 78.7216 69.0116C78.8525 69.1472 78.9623 69.3018 79.0471 69.4701C79.1369 69.6328 79.2037 69.8072 79.2456 69.9882C79.288 70.1636 79.308 70.3437 79.3051 70.5241C79.3039 70.8678 79.226 71.2069 79.0769 71.5166C78.9317 71.809 78.7346 72.0726 78.4953 72.2947C78.065 72.689 77.5441 72.9712 76.9788 73.1164C76.5156 73.2345 76.0361 73.2754 75.5596 73.2375C75.2011 73.2111 74.846 73.1492 74.4996 73.0529C74.2808 72.9933 74.0655 72.9218 73.8545 72.8385C73.7811 72.8107 73.7275 72.7849 73.6918 72.7691C73.6728 72.7622 73.6548 72.7528 73.6382 72.7413C73.6581 72.7446 73.6774 72.7506 73.6957 72.7591L73.8625 72.8187C74.0074 72.8703 74.2237 72.9417 74.5096 73.0172C74.855 73.1046 75.2079 73.1597 75.5636 73.1819C76.0309 73.2117 76.5001 73.1662 76.953 73.0469C77.5042 72.9001 78.0112 72.6207 78.4298 72.2331C78.6592 72.017 78.8481 71.7615 78.9875 71.4789C79.1307 71.1775 79.204 70.8478 79.2019 70.5142C79.2036 70.3417 79.1836 70.1696 79.1424 70.0021C79.1047 69.8297 79.0432 69.6633 78.9598 69.5078C78.8777 69.3479 78.7727 69.2008 78.6481 69.0711C78.524 68.9375 78.3784 68.8255 78.2174 68.7397C78.0546 68.6472 77.8785 68.5803 77.6954 68.5412C77.5097 68.5004 77.3193 68.4864 77.1297 68.4995C76.7408 68.5163 76.3672 68.6552 76.0618 68.8965C75.7652 69.1472 75.5768 69.5027 75.5358 69.8889C75.4986 70.2649 75.5674 70.6437 75.7343 70.9826C76.0618 71.6575 76.6731 72.112 77.2746 72.4376C78.3663 73.0085 79.5817 73.3023 80.8137 73.2931C81.6432 73.2891 82.467 73.1551 83.2551 72.8961C83.533 72.7988 83.7454 72.7174 83.8863 72.6519L84.0491 72.5825L84.0928 72.5745Z" fill="#263238"/>
<path d="M68.7792 88.5276L68.1103 87.9321L62.354 88.208C62.354 89.7761 62.489 95.6376 62.489 95.6376L52.356 104.945L52.9514 109.379C52.9514 109.379 65.8832 102.742 67.3937 99.9647C68.9042 97.1878 68.7792 88.5276 68.7792 88.5276Z" fill="#FFBE9D"/>
<path d="M65.4881 98.569C65.4703 98.569 65.4286 98.3169 65.2738 97.9338C65.0758 97.4345 64.7699 96.985 64.378 96.6175C63.9862 96.25 63.518 95.9736 63.007 95.808C62.61 95.679 62.3559 95.6532 62.3599 95.6353C62.4198 95.6261 62.4807 95.6261 62.5405 95.6353C62.7058 95.6536 62.8692 95.6862 63.0288 95.7326C63.5596 95.8842 64.0465 96.1603 64.449 96.538C64.8516 96.9157 65.1582 97.384 65.3432 97.9041C65.3991 98.0598 65.4422 98.2198 65.4723 98.3824C65.4868 98.4435 65.4922 98.5064 65.4881 98.569Z" fill="#EB996E"/>
<path d="M52.9533 105C52.9533 105 52.2943 104.59 51.9609 104.556C51.6274 104.522 50.7024 104.395 50.7024 104.395H48.4992C48.2067 104.394 47.9241 104.501 47.7052 104.695C47.2328 105.114 46.4428 105.844 46.419 106.058C46.4244 106.294 46.5074 106.522 46.6552 106.705C46.6552 106.705 46.278 107.4 46.2979 107.863C46.3019 108.039 46.3537 108.212 46.4477 108.361C46.5417 108.511 46.6744 108.632 46.8318 108.712C46.8477 109.062 46.9145 109.408 47.0303 109.738V109.75C47.0987 109.91 47.2113 110.046 47.3549 110.143C47.4985 110.24 47.6669 110.294 47.8402 110.298C48.9954 110.328 51.5321 110.376 52.0541 110.272C52.733 110.135 55.1824 107.863 55.1824 107.863L52.9533 105Z" fill="#FFBE9D"/>
<path d="M46.677 108.589C47.2411 109.08 47.8893 109.466 48.5905 109.726C49.2971 109.986 50.0698 110.004 50.7878 109.778C50.9275 109.743 51.0579 109.679 51.1697 109.588C51.2815 109.498 51.3721 109.383 51.4349 109.254C51.481 109.087 51.4664 108.909 51.3937 108.752C51.321 108.595 51.1949 108.469 51.0379 108.396C50.8795 108.331 50.7091 108.301 50.538 108.306C50.3669 108.312 50.1989 108.354 50.0454 108.43" fill="#FFBE9D"/>
<path d="M50.0335 108.424C50.0534 108.408 50.0754 108.396 50.099 108.386C50.1627 108.356 50.2292 108.331 50.2975 108.313C50.5613 108.234 50.8454 108.259 51.0915 108.383C51.2601 108.478 51.3905 108.629 51.4607 108.809C51.4994 108.911 51.5143 109.02 51.5043 109.129C51.4897 109.245 51.4438 109.356 51.3713 109.448C51.2145 109.631 51.0075 109.764 50.7759 109.83C50.5355 109.909 50.2861 109.957 50.0335 109.974C49.5461 110.003 49.0578 109.936 48.5964 109.776C48.2233 109.645 47.8668 109.47 47.5345 109.256C47.311 109.112 47.0963 108.955 46.8914 108.785C46.8128 108.727 46.7409 108.661 46.677 108.587C46.7601 108.637 46.8396 108.693 46.9152 108.754C47.068 108.863 47.2864 109.022 47.5722 109.192C47.9047 109.395 48.2581 109.56 48.6262 109.687C49.0765 109.838 49.5514 109.902 50.0256 109.875C50.27 109.859 50.5114 109.813 50.7441 109.736C50.9599 109.679 51.154 109.56 51.3019 109.393C51.3628 109.317 51.4026 109.226 51.4173 109.129C51.4319 109.033 51.4209 108.934 51.3852 108.843C51.3261 108.677 51.2119 108.537 51.0617 108.446C50.8317 108.326 50.5662 108.292 50.3134 108.351C50.1328 108.394 50.0375 108.44 50.0335 108.424Z" fill="#EB996E"/>
<path d="M49.0669 105.274C48.968 105.673 48.7621 106.037 48.4714 106.326C48.8764 106.723 49.2634 107.141 49.6326 107.579C49.783 107.738 49.9063 107.922 49.9979 108.121C50.0421 108.221 50.0631 108.33 50.0593 108.439C50.0556 108.548 50.0271 108.655 49.976 108.752C49.8848 108.877 49.7569 108.969 49.6102 109.017C49.4635 109.065 49.3054 109.066 49.1582 109.02C48.8672 108.918 48.6007 108.757 48.3762 108.546C47.6894 107.982 47.2527 107.369 46.6572 106.71" fill="#FFBE9D"/>
<path d="M46.6512 106.705C46.6512 106.705 46.677 106.723 46.7187 106.763C46.7604 106.802 46.816 106.864 46.8914 106.945L47.5028 107.634C47.8029 107.975 48.1316 108.289 48.4853 108.573C48.6807 108.75 48.9104 108.885 49.1602 108.97C49.2891 109.01 49.4268 109.013 49.5572 108.978C49.6876 108.942 49.8053 108.871 49.8966 108.771C49.9804 108.657 50.0173 108.515 49.9998 108.374C49.9876 108.237 49.9441 108.105 49.8728 107.987C49.7271 107.761 49.5574 107.552 49.3666 107.362L48.4416 106.346L48.4158 106.318L48.4416 106.294C48.6542 106.088 48.8253 105.843 48.9458 105.572C49.0292 105.373 49.059 105.266 49.0669 105.268C49.0669 105.297 49.0629 105.326 49.055 105.353C49.0347 105.433 49.0102 105.511 48.9815 105.588C48.8721 105.871 48.7052 106.13 48.4913 106.346V106.294L49.4381 107.299C49.636 107.492 49.8118 107.706 49.9621 107.938C50.0407 108.069 50.0889 108.216 50.103 108.369C50.1186 108.531 50.0749 108.693 49.98 108.825C49.8795 108.949 49.7393 109.035 49.583 109.067C49.4354 109.1 49.282 109.096 49.1364 109.055C48.8734 108.967 48.6315 108.826 48.4258 108.64C48.0715 108.349 47.7446 108.027 47.4492 107.676C47.1971 107.378 47.0006 107.134 46.8537 106.965C46.7817 106.882 46.7141 106.795 46.6512 106.705Z" fill="#EB996E"/>
<path d="M49.7102 102.231L49.476 110.511L49.7816 111.777L50.2084 110.457L50.5518 102.243L49.7102 102.231Z" fill="#263238"/>
<path d="M51.2921 104.768C51.2048 104.79 50.1925 104.57 49.861 105.01C49.5295 105.451 48.9142 107.279 48.9142 107.279C48.9142 107.279 49.2 108.027 49.6843 107.831C50.1687 107.634 51.0956 106.662 51.0956 106.662L51.9531 106.64" fill="#FFBE9D"/>
<path d="M51.9529 106.638C51.8791 106.653 51.804 106.661 51.7286 106.662L51.0954 106.694L51.1172 106.684C50.831 106.993 50.5239 107.282 50.1982 107.549C50.0994 107.631 49.9953 107.707 49.8866 107.775C49.8288 107.813 49.7677 107.846 49.704 107.873C49.6337 107.902 49.5575 107.914 49.4817 107.908C49.3295 107.885 49.1922 107.804 49.0986 107.682C49.0006 107.567 48.9221 107.436 48.8663 107.295V107.279V107.261L48.9021 107.158C49.0787 106.652 49.2554 106.176 49.438 105.749C49.5222 105.545 49.6176 105.346 49.7238 105.153C49.7705 105.06 49.8322 104.976 49.9064 104.903C49.9819 104.843 50.0681 104.797 50.1605 104.768C50.4326 104.697 50.7162 104.682 50.9942 104.725L51.2165 104.754C51.2426 104.756 51.2685 104.76 51.2939 104.766C51.1932 104.781 51.0909 104.781 50.9902 104.766C50.7193 104.742 50.4463 104.766 50.1843 104.84C50.1025 104.867 50.0264 104.91 49.96 104.965C49.8944 105.034 49.8395 105.112 49.7973 105.197C49.702 105.374 49.6147 105.576 49.5253 105.792C49.3507 106.217 49.174 106.694 48.9993 107.198L48.9656 107.299V107.265C49.0178 107.394 49.0901 107.514 49.1799 107.621C49.2555 107.725 49.3686 107.796 49.4956 107.819C49.6196 107.82 49.7404 107.779 49.8389 107.704C49.9453 107.637 50.048 107.565 50.1466 107.488C50.4719 107.226 50.7821 106.945 51.0756 106.648L51.0855 106.638H51.7306C51.8045 106.631 51.879 106.631 51.9529 106.638Z" fill="#EB996E"/>
<path d="M50.1508 101.066C50.0795 101.065 50.0107 101.093 49.9594 101.142C49.9081 101.191 49.8784 101.259 49.8769 101.33L49.853 102.506C49.8525 102.577 49.8798 102.645 49.9292 102.696C49.9785 102.748 50.0459 102.777 50.117 102.779C50.1524 102.78 50.1875 102.774 50.2205 102.761C50.2534 102.748 50.2835 102.729 50.309 102.704C50.3344 102.68 50.3548 102.651 50.3689 102.618C50.3829 102.586 50.3904 102.551 50.3909 102.515L50.4148 101.34C50.4158 101.269 50.3887 101.2 50.3392 101.149C50.2898 101.098 50.222 101.068 50.1508 101.066Z" fill="#263238"/>
<path d="M49.2774 104.206C49.2774 104.206 49.2932 104.206 49.3171 104.238H49.2932C49.2932 104.077 49.3151 103.486 49.3726 102.781C49.3905 102.583 49.4084 102.384 49.4242 102.198C49.4326 102.035 49.4565 101.873 49.4957 101.715C49.5169 101.65 49.5595 101.593 49.6168 101.555C49.6614 101.527 49.7135 101.515 49.7657 101.519C49.853 101.529 49.8768 101.582 49.8709 101.582C49.8649 101.582 49.8331 101.555 49.7637 101.559C49.7159 101.563 49.6709 101.583 49.6353 101.615C49.5996 101.648 49.575 101.69 49.5652 101.737C49.5383 101.892 49.523 102.049 49.5195 102.206C49.5056 102.39 49.4917 102.585 49.4759 102.791C49.4183 103.494 49.3548 104.083 49.319 104.24V104.274L49.3052 104.248C49.2793 104.224 49.2734 104.208 49.2774 104.206Z" fill="#263238"/>
<path d="M49.7876 112.172C49.7598 112.172 49.736 112.023 49.736 111.838C49.736 111.654 49.7598 111.503 49.7876 111.503C49.8154 111.503 49.8392 111.652 49.8392 111.838C49.8392 112.025 49.8173 112.172 49.7876 112.172Z" fill="#263238"/>
<path d="M42.8559 20.3301H8.10388V42.2793H42.8559V20.3301Z" fill="#455A64"/>
<path d="M20.6227 34.238C20.593 34.238 20.585 31.7171 20.6009 28.6068C20.6168 25.4964 20.6565 22.9775 20.6843 22.9775C20.7121 22.9775 20.722 25.4984 20.7061 28.6088C20.6902 31.7191 20.6505 34.238 20.6227 34.238Z" fill="#FAFAFA"/>
<path d="M30.0253 40.0344C29.9975 40.0344 29.9816 38.4345 29.9935 36.4615C30.0054 34.4885 30.0372 32.8887 30.065 32.8887C30.0928 32.8887 30.1066 34.4885 30.0967 36.4615C30.0868 38.4345 30.0531 40.0344 30.0253 40.0344Z" fill="#FAFAFA"/>
<path d="M39.6146 35.7012C39.6171 35.7276 39.6171 35.7542 39.6146 35.7806C39.6146 35.8421 39.6146 35.9195 39.6146 36.0168C39.6146 36.2331 39.6146 36.5329 39.6146 36.91C39.6146 37.6881 39.6146 38.7818 39.6146 40.0859V40.1295H39.5689L35.5217 40.1137L29.5669 40.066L27.7606 40.0402L27.2684 40.0263C27.2113 40.0259 27.1543 40.0226 27.0977 40.0164C27.1541 40.0076 27.2113 40.0043 27.2684 40.0065H27.7606H29.5689L35.5236 40.0243L39.5709 40.0541L39.5252 40.0978C39.5391 38.7937 39.553 37.7 39.561 36.9219C39.561 36.5448 39.5749 36.245 39.5788 36.0287C39.5788 35.9314 39.5788 35.854 39.5788 35.7925C39.5878 35.761 39.5998 35.7304 39.6146 35.7012Z" fill="#FAFAFA"/>
<path d="M23.4771 39.9966C23.4771 40.0263 22.4012 40.0422 21.0753 40.0363C19.7494 40.0303 18.6755 39.9985 18.6755 39.9708C18.6755 39.943 19.7494 39.9251 21.0753 39.933C22.4012 39.941 23.4771 39.9688 23.4771 39.9966Z" fill="#FAFAFA"/>
<path d="M18.884 39.9726H18.7371H18.3064H16.6371H10.3806V39.9388C10.3925 35.5303 10.4084 29.5458 10.4283 22.7454V22.6958H10.4779L18.5565 22.7553L39.5054 22.9261H39.5451V22.9658C39.5709 26.882 39.5927 30.0797 39.6066 32.2949C39.6066 33.4025 39.6165 34.2659 39.6185 34.8554V35.5243C39.6185 35.3735 39.6185 35.1472 39.6066 34.8554C39.6066 34.26 39.5887 33.4025 39.5728 32.2949C39.551 30.0738 39.5173 26.876 39.4756 22.9658L39.5153 23.0055L18.5684 22.8586L10.4898 22.795L10.5394 22.7454C10.5096 29.5477 10.4818 35.5303 10.462 39.9388L10.4263 39.9031L16.649 39.9348L18.3183 39.9487H18.749L18.884 39.9726Z" fill="#FAFAFA"/>
<path d="M31.5596 32.8726C31.5838 33.0421 31.5938 33.2134 31.5893 33.3847C31.5893 33.7062 31.5893 34.1568 31.5893 34.6729L31.5377 34.6213C31.7105 34.6084 31.8819 34.5805 32.0498 34.5379C32.3359 34.4669 32.5994 34.3249 32.816 34.125C32.9892 33.957 33.1245 33.754 33.213 33.5296C33.2929 33.3188 33.352 33.1007 33.3897 32.8785C33.4016 32.9395 33.4016 33.0022 33.3897 33.0631C33.3755 33.2322 33.3381 33.3985 33.2785 33.5574C33.1906 33.7955 33.0517 34.0116 32.8716 34.1905C32.6455 34.4064 32.3671 34.5596 32.0637 34.6352C31.8888 34.6797 31.71 34.7076 31.5298 34.7185H31.4762V34.661C31.4762 34.1449 31.4901 33.6963 31.5 33.3747C31.5061 33.206 31.5261 33.0381 31.5596 32.8726Z" fill="#FAFAFA"/>
<path d="M31.5776 32.8724C31.5776 32.8856 31.5723 32.8982 31.563 32.9075C31.5537 32.9168 31.5411 32.922 31.5279 32.922C31.5148 32.922 31.5022 32.9168 31.4928 32.9075C31.4835 32.8982 31.4783 32.8856 31.4783 32.8724C31.478 32.8657 31.4791 32.8591 31.4815 32.8528C31.4839 32.8466 31.4875 32.8408 31.4921 32.836C31.4968 32.8312 31.5023 32.8274 31.5085 32.8248C31.5146 32.8221 31.5212 32.8208 31.5279 32.8208C31.5413 32.8213 31.5539 32.827 31.5632 32.8366C31.5724 32.8462 31.5776 32.8591 31.5776 32.8724Z" fill="#FAFAFA"/>
<path d="M32.2564 32.8764C32.2564 32.9042 32.2048 32.928 32.1413 32.928C32.0778 32.928 32.0302 32.9042 32.0302 32.8745C32.0302 32.8447 32.0798 32.8228 32.1433 32.8248C32.2068 32.8268 32.2564 32.8487 32.2564 32.8764Z" fill="#FAFAFA"/>
<path d="M32.9332 32.8807C32.9332 32.9085 32.8816 32.9324 32.8201 32.9324C32.7585 32.9324 32.7069 32.9085 32.7069 32.8788C32.7069 32.849 32.7585 32.8271 32.8201 32.8271C32.8816 32.8271 32.9332 32.851 32.9332 32.8807Z" fill="#FAFAFA"/>
<path d="M33.4771 32.8827C33.4767 32.8924 33.4735 32.9018 33.4678 32.9097C33.4621 32.9176 33.4543 32.9236 33.4452 32.9271C33.4361 32.9305 33.4262 32.9312 33.4167 32.9291C33.4072 32.927 33.3985 32.9221 33.3918 32.9151C33.385 32.9081 33.3805 32.8992 33.3787 32.8897C33.377 32.8801 33.3781 32.8702 33.3819 32.8613C33.3857 32.8523 33.392 32.8447 33.4002 32.8393C33.4083 32.8339 33.4178 32.8311 33.4275 32.8311C33.4409 32.8316 33.4535 32.8372 33.4627 32.8469C33.472 32.8565 33.4771 32.8693 33.4771 32.8827Z" fill="#FAFAFA"/>
<path d="M21.8455 32.8467C21.8212 32.6764 21.8112 32.5045 21.8157 32.3326C21.8157 32.013 21.8058 31.5624 21.8058 31.0463V30.9888H21.8594C22.0391 31.0017 22.2172 31.0316 22.3913 31.0781C22.6905 31.1581 22.964 31.3139 23.1853 31.5307C23.3627 31.7122 23.4982 31.9303 23.5823 32.1698C23.6395 32.329 23.6749 32.4953 23.6875 32.664C23.6989 32.725 23.6989 32.7876 23.6875 32.8486C23.6518 32.6262 23.5953 32.4075 23.5188 32.1956C23.4289 31.9719 23.2937 31.7692 23.1218 31.6001C22.9057 31.3989 22.6432 31.2543 22.3576 31.1793C22.1905 31.1347 22.0198 31.1048 21.8475 31.09L21.9011 31.0404C21.9011 31.5565 21.8852 32.007 21.8753 32.3266C21.8812 32.5005 21.8712 32.6746 21.8455 32.8467Z" fill="#FAFAFA"/>
<path d="M21.8634 32.8466C21.8637 32.8532 21.8626 32.8597 21.8602 32.8659C21.8578 32.872 21.8542 32.8776 21.8495 32.8823C21.8449 32.8869 21.8393 32.8906 21.8331 32.893C21.827 32.8954 21.8204 32.8965 21.8138 32.8962C21.8071 32.8962 21.8005 32.8948 21.7944 32.8922C21.7882 32.8896 21.7826 32.8858 21.778 32.881C21.7734 32.8761 21.7698 32.8704 21.7674 32.8642C21.765 32.8579 21.7639 32.8513 21.7642 32.8446C21.7642 32.8312 21.7694 32.8184 21.7786 32.8088C21.7879 32.7991 21.8005 32.7935 21.8138 32.793C21.8206 32.7932 21.8273 32.7948 21.8334 32.7976C21.8396 32.8005 21.8451 32.8045 21.8497 32.8095C21.8544 32.8145 21.8579 32.8203 21.8603 32.8267C21.8626 32.833 21.8637 32.8398 21.8634 32.8466Z" fill="#FAFAFA"/>
<path d="M22.5423 32.849C22.5423 32.8787 22.4907 32.9006 22.4292 32.9006C22.3676 32.9006 22.316 32.8768 22.316 32.849C22.316 32.8212 22.3676 32.7974 22.4292 32.7974C22.4907 32.7974 22.5423 32.8212 22.5423 32.849Z" fill="#FAFAFA"/>
<path d="M23.2191 32.8529C23.2191 32.8827 23.1695 32.9045 23.1059 32.9045C23.0424 32.9045 22.9928 32.8807 22.9928 32.8529C22.9928 32.8251 23.0444 32.8013 23.1079 32.8013C23.1714 32.8013 23.2191 32.8251 23.2191 32.8529Z" fill="#FAFAFA"/>
<path d="M23.7709 32.8568C23.7709 32.8699 23.7657 32.8826 23.7564 32.8919C23.7471 32.9012 23.7345 32.9064 23.7213 32.9064C23.7081 32.9064 23.6955 32.9012 23.6862 32.8919C23.6769 32.8826 23.6717 32.8699 23.6717 32.8568C23.6714 32.8501 23.6725 32.8434 23.6749 32.8372C23.6772 32.8309 23.6808 32.8252 23.6855 32.8204C23.6901 32.8156 23.6957 32.8118 23.7018 32.8091C23.708 32.8065 23.7146 32.8052 23.7213 32.8052C23.7346 32.8057 23.7473 32.8114 23.7565 32.821C23.7658 32.8306 23.7709 32.8434 23.7709 32.8568Z" fill="#FAFAFA"/>
<path d="M18.8283 30.3738C18.804 30.2043 18.794 30.0329 18.7986 29.8617C18.7986 29.5401 18.7886 29.0916 18.7886 28.5755L18.8422 28.6251C18.6688 28.638 18.4968 28.6659 18.3281 28.7085C18.0421 28.7795 17.7786 28.9215 17.562 29.1213C17.3892 29.2897 17.254 29.4926 17.165 29.7168C17.0851 29.9274 17.0265 30.1455 16.9903 30.3679C16.9775 30.307 16.9775 30.2441 16.9903 30.1833C17.0052 30.0147 17.0433 29.8491 17.1034 29.691C17.1881 29.453 17.3236 29.2362 17.5004 29.0558C17.7264 28.8402 18.0049 28.6876 18.3083 28.6132C18.4834 28.5691 18.6621 28.5405 18.8422 28.5278H18.8958V28.5854C18.8958 29.1015 18.88 29.5501 18.87 29.8716C18.8711 30.0399 18.8572 30.208 18.8283 30.3738Z" fill="#FAFAFA"/>
<path d="M18.8104 30.3734C18.8104 30.36 18.8156 30.3472 18.8248 30.3376C18.8341 30.328 18.8467 30.3223 18.86 30.3218C18.8734 30.3223 18.886 30.328 18.8953 30.3376C18.9045 30.3472 18.9097 30.36 18.9097 30.3734C18.9097 30.3865 18.9044 30.3992 18.8951 30.4085C18.8858 30.4178 18.8732 30.423 18.86 30.423C18.8469 30.423 18.8343 30.4178 18.825 30.4085C18.8157 30.3992 18.8104 30.3865 18.8104 30.3734Z" fill="#FAFAFA"/>
<path d="M18.1337 30.3696C18.1337 30.3418 18.1833 30.318 18.2468 30.3199C18.3103 30.3219 18.3599 30.3438 18.3599 30.3715C18.3599 30.3993 18.3083 30.4232 18.2448 30.4232C18.1813 30.4232 18.1337 30.3993 18.1337 30.3696Z" fill="#FAFAFA"/>
<path d="M17.4548 30.3655C17.4548 30.3378 17.5064 30.3159 17.568 30.3159C17.6295 30.3159 17.6811 30.3397 17.6811 30.3675C17.6811 30.3953 17.6295 30.4191 17.568 30.4191C17.5064 30.4191 17.4548 30.3953 17.4548 30.3655Z" fill="#FAFAFA"/>
<path d="M16.903 30.3636C16.903 30.3499 16.9084 30.3368 16.9181 30.3271C16.9277 30.3174 16.9409 30.312 16.9546 30.312C16.9682 30.312 16.9814 30.3174 16.9911 30.3271C17.0007 30.3368 17.0062 30.3499 17.0062 30.3636C17.0062 30.3773 17.0007 30.3904 16.9911 30.4001C16.9814 30.4098 16.9682 30.4152 16.9546 30.4152C16.9409 30.4152 16.9277 30.4098 16.9181 30.4001C16.9084 30.3904 16.903 30.3773 16.903 30.3636Z" fill="#FAFAFA"/>
<path d="M15.8351 34.8952C15.6656 34.9196 15.4943 34.9295 15.323 34.925C15.0015 34.925 14.5529 34.9349 14.0368 34.9349H13.9792V34.8813C13.9941 34.7017 14.0246 34.5237 14.0706 34.3493C14.15 34.0499 14.306 33.7763 14.5231 33.5554C14.7036 33.3776 14.9212 33.242 15.1603 33.1584C15.3192 33.0997 15.4856 33.0637 15.6545 33.0512C15.7155 33.0396 15.7781 33.0396 15.8391 33.0512C15.6167 33.0872 15.3981 33.1437 15.1861 33.2199C14.9623 33.3096 14.7595 33.4448 14.5906 33.6169C14.3893 33.833 14.2448 34.0955 14.1698 34.3811C14.1252 34.5489 14.0953 34.7202 14.0805 34.8932L14.0309 34.8396C14.5469 34.8396 14.9955 34.8535 15.3171 34.8634C15.4904 34.8594 15.6637 34.87 15.8351 34.8952Z" fill="#FAFAFA"/>
<path d="M15.8351 34.8755C15.8418 34.8753 15.8485 34.8763 15.8547 34.8787C15.861 34.8811 15.8667 34.8847 15.8715 34.8893C15.8763 34.894 15.8802 34.8995 15.8828 34.9057C15.8854 34.9118 15.8868 34.9185 15.8867 34.9252C15.8871 34.9354 15.8845 34.9456 15.879 34.9543C15.8736 34.9631 15.8657 34.97 15.8563 34.9742C15.8469 34.9784 15.8365 34.9797 15.8263 34.978C15.8162 34.9762 15.8068 34.9715 15.7994 34.9643C15.792 34.9572 15.7869 34.948 15.7847 34.938C15.7826 34.9279 15.7835 34.9174 15.7873 34.9079C15.7911 34.8983 15.7977 34.8901 15.8063 34.8844C15.8148 34.8786 15.8248 34.8755 15.8351 34.8755Z" fill="#FAFAFA"/>
<path d="M15.8391 34.1968C15.8689 34.1968 15.8907 34.2484 15.8907 34.3099C15.8907 34.3715 15.8669 34.4231 15.8391 34.4231C15.8113 34.4231 15.7875 34.3734 15.7875 34.3099C15.7875 34.2464 15.8113 34.1968 15.8391 34.1968Z" fill="#FAFAFA"/>
<path d="M15.843 33.5195C15.8708 33.5195 15.8946 33.5692 15.8946 33.6327C15.8946 33.6962 15.8708 33.7458 15.841 33.7458C15.8112 33.7458 15.7914 33.6942 15.7914 33.6327C15.7914 33.5711 15.8112 33.5195 15.843 33.5195Z" fill="#FAFAFA"/>
<path d="M15.847 32.9678C15.8604 32.9678 15.8732 32.9729 15.8829 32.9822C15.8925 32.9914 15.8981 33.0041 15.8987 33.0174C15.8977 33.0309 15.8916 33.0435 15.8816 33.0527C15.8717 33.062 15.8586 33.0671 15.8451 33.067C15.8317 33.067 15.8189 33.0619 15.8093 33.0526C15.7996 33.0434 15.794 33.0307 15.7935 33.0174C15.7945 33.0039 15.8005 32.9912 15.8105 32.982C15.8204 32.9728 15.8335 32.9677 15.847 32.9678Z" fill="#FAFAFA"/>
<path d="M18.8244 35.9771C18.8487 36.1473 18.8587 36.3193 18.8542 36.4912C18.8542 36.8108 18.8542 37.2614 18.8542 37.7774V37.833H18.8006C18.6209 37.8199 18.4428 37.79 18.2687 37.7437C17.9695 37.6637 17.696 37.5078 17.4747 37.2911C17.2964 37.1103 17.1608 36.8919 17.0777 36.652C17.0191 36.4931 16.983 36.3267 16.9705 36.1577C16.9569 36.097 16.9569 36.0339 16.9705 35.9731C17.0036 36.196 17.0595 36.4148 17.1373 36.6262C17.2352 36.8764 17.3918 37.0995 17.5938 37.2767C17.7959 37.4539 18.0375 37.58 18.2984 37.6444C18.4662 37.6891 18.6376 37.719 18.8105 37.7338L18.757 37.7834C18.757 37.2673 18.7708 36.8167 18.7808 36.4972C18.7807 36.3229 18.7953 36.1489 18.8244 35.9771Z" fill="#FAFAFA"/>
<path d="M18.8066 35.9769C18.8065 35.9635 18.8117 35.9507 18.821 35.9411C18.8302 35.9315 18.8428 35.9258 18.8562 35.9253C18.863 35.9255 18.8696 35.9271 18.8758 35.93C18.882 35.9328 18.8875 35.9368 18.8921 35.9418C18.8967 35.9468 18.9003 35.9526 18.9026 35.959C18.905 35.9653 18.9061 35.9721 18.9058 35.9789C18.9061 35.9855 18.905 35.9921 18.9026 35.9982C18.9002 36.0044 18.8966 36.0099 18.8919 36.0146C18.8872 36.0193 18.8816 36.0229 18.8755 36.0253C18.8694 36.0277 18.8628 36.0288 18.8562 36.0285C18.8495 36.0285 18.8429 36.0272 18.8367 36.0246C18.8306 36.0219 18.825 36.0181 18.8204 36.0133C18.8157 36.0085 18.8121 36.0028 18.8098 35.9965C18.8074 35.9903 18.8063 35.9836 18.8066 35.9769Z" fill="#FAFAFA"/>
<path d="M18.1296 35.973C18.1296 35.9452 18.1792 35.9233 18.2427 35.9233C18.3062 35.9233 18.3559 35.9472 18.3539 35.9749C18.3519 36.0027 18.3043 36.0266 18.2407 36.0266C18.1772 36.0266 18.1276 36.0027 18.1296 35.973Z" fill="#FAFAFA"/>
<path d="M17.4507 35.971C17.4507 35.9413 17.5023 35.9194 17.5638 35.9194C17.6254 35.9194 17.677 35.9433 17.677 35.971C17.677 35.9988 17.6254 36.0226 17.5638 36.0226C17.5023 36.0226 17.4507 35.9988 17.4507 35.971Z" fill="#FAFAFA"/>
<path d="M16.899 35.9671C16.899 35.9538 16.9042 35.941 16.9135 35.9313C16.9227 35.9217 16.9353 35.916 16.9487 35.9155C16.962 35.916 16.9746 35.9217 16.9839 35.9313C16.9931 35.941 16.9983 35.9538 16.9983 35.9671C16.9986 35.9738 16.9975 35.9805 16.9951 35.9867C16.9927 35.993 16.9891 35.9987 16.9845 36.0035C16.9798 36.0083 16.9743 36.0122 16.9681 36.0148C16.962 36.0174 16.9554 36.0188 16.9487 36.0187C16.9353 36.0182 16.9227 36.0126 16.9135 36.0029C16.9042 35.9933 16.899 35.9805 16.899 35.9671Z" fill="#FAFAFA"/>
<path d="M23.4295 39.9965C23.4026 39.8272 23.3926 39.6557 23.3997 39.4844C23.3997 39.1629 23.3878 38.7143 23.3878 38.1982V38.1406H23.4414C23.623 38.1554 23.803 38.186 23.9793 38.2319C24.2785 38.3119 24.552 38.4678 24.7733 38.6845C24.9515 38.8646 25.0871 39.0823 25.1703 39.3216C25.2299 39.4803 25.266 39.6468 25.2775 39.8159C25.2775 39.935 25.2775 40.0025 25.2775 40.0005C25.2439 39.7776 25.1873 39.5587 25.1087 39.3475C25.0191 39.1236 24.8839 38.9208 24.7118 38.752C24.4952 38.5504 24.2319 38.4058 23.9456 38.3312C23.7765 38.2865 23.6038 38.2567 23.4295 38.2419L23.4831 38.1922C23.4831 38.7083 23.4692 39.1589 23.4573 39.4785C23.4631 39.6516 23.4538 39.825 23.4295 39.9965Z" fill="#FAFAFA"/>
<path d="M27.1472 40.0183C27.1229 39.8481 27.1129 39.6761 27.1174 39.5042C27.1174 39.1847 27.1055 38.7341 27.1075 38.218L27.1591 38.2676C26.9844 38.2815 26.8112 38.3094 26.641 38.351C26.3545 38.4237 26.0901 38.5655 25.8709 38.7639C25.695 38.9316 25.5563 39.1345 25.464 39.3593C25.3844 39.5702 25.3252 39.7882 25.2873 40.0104C25.2752 39.9495 25.2752 39.8867 25.2873 39.8258C25.3013 39.6565 25.3394 39.4901 25.4004 39.3316C25.4891 39.0933 25.6286 38.8772 25.8093 38.6984C26.0369 38.4838 26.3158 38.3314 26.6192 38.2557C26.7955 38.2114 26.9756 38.1835 27.1571 38.1724H27.2107V38.2279C27.2107 38.744 27.1968 39.1946 27.1869 39.5162C27.1873 39.6844 27.174 39.8523 27.1472 40.0183Z" fill="#FAFAFA"/>
<path d="M23.4454 39.9964C23.4457 40.0031 23.4446 40.0098 23.4422 40.016C23.4399 40.0223 23.4363 40.028 23.4316 40.0328C23.427 40.0376 23.4214 40.0415 23.4153 40.0441C23.4091 40.0467 23.4025 40.048 23.3958 40.048C23.3825 40.0475 23.3698 40.0419 23.3606 40.0322C23.3513 40.0226 23.3462 40.0098 23.3462 39.9964C23.3462 39.9831 23.3513 39.9702 23.3606 39.9606C23.3698 39.951 23.3825 39.9453 23.3958 39.9448C23.4092 39.9453 23.4218 39.951 23.431 39.9606C23.4403 39.9702 23.4454 39.9831 23.4454 39.9964Z" fill="#FAFAFA"/>
<path d="M24.009 40.0005C24.009 40.0283 23.9674 40.0521 23.9157 40.0521C23.8641 40.0521 23.8205 40.0283 23.8225 39.9985C23.8244 39.9687 23.8641 39.9469 23.9157 39.9489C23.9674 39.9508 24.009 39.9727 24.009 40.0005Z" fill="#FAFAFA"/>
<path d="M24.5727 40.0043C24.5727 40.0321 24.531 40.0539 24.4794 40.0539C24.4278 40.0539 24.3861 40.0301 24.3861 40.0023C24.3861 39.9745 24.4278 39.9507 24.4794 39.9507C24.531 39.9507 24.5727 39.9745 24.5727 40.0043Z" fill="#FAFAFA"/>
<path d="M25.1404 40.0062C25.1404 40.034 25.0988 40.0578 25.0471 40.0578C24.9955 40.0578 24.9539 40.034 24.9539 40.0062C24.9539 39.9784 24.9955 39.9546 25.0471 39.9546C25.0988 39.9546 25.1404 39.9784 25.1404 40.0062Z" fill="#FAFAFA"/>
<path d="M25.7021 40.0106C25.7021 40.0384 25.6584 40.0622 25.6068 40.0602C25.5552 40.0583 25.5135 40.0384 25.5135 40.0086C25.5135 39.9789 25.5552 39.957 25.6068 39.957C25.6584 39.957 25.7021 39.9808 25.7021 40.0106Z" fill="#FAFAFA"/>
<path d="M26.2658 40.0125C26.2658 40.0423 26.2222 40.0642 26.1706 40.0642C26.119 40.0642 26.0773 40.0403 26.0773 40.0125C26.0773 39.9848 26.119 39.9609 26.1725 39.9609C26.2261 39.9609 26.2658 39.9848 26.2658 40.0125Z" fill="#FAFAFA"/>
<path d="M26.8297 40.0165C26.8297 40.0443 26.786 40.0681 26.7344 40.0681C26.6828 40.0681 26.6411 40.0443 26.6411 40.0145C26.6411 39.9847 26.6828 39.9629 26.7364 39.9629C26.79 39.9629 26.8297 39.9867 26.8297 40.0165Z" fill="#FAFAFA"/>
<path d="M27.3038 40.0184C27.3034 40.0281 27.3002 40.0375 27.2945 40.0454C27.2888 40.0533 27.2809 40.0594 27.2718 40.0628C27.2627 40.0663 27.2528 40.067 27.2433 40.0648C27.2338 40.0627 27.2252 40.0578 27.2184 40.0508C27.2117 40.0438 27.2072 40.035 27.2054 40.0254C27.2036 40.0158 27.2047 40.006 27.2085 39.997C27.2124 39.988 27.2187 39.9804 27.2268 39.975C27.2349 39.9697 27.2444 39.9668 27.2542 39.9668C27.2675 39.9673 27.2801 39.973 27.2894 39.9826C27.2986 39.9922 27.3038 40.0051 27.3038 40.0184Z" fill="#FAFAFA"/>
<path d="M23.6378 32.857C23.6378 32.8272 25.4123 32.8133 27.5977 32.8272C29.7831 32.8411 31.5676 32.8709 31.5676 32.9006C31.5676 32.9304 29.795 32.9423 27.5977 32.9304C25.4004 32.9185 23.6378 32.8848 23.6378 32.857Z" fill="#FAFAFA"/>
<path d="M33.354 32.9103C33.354 32.8805 34.7315 32.8646 36.4267 32.8745C38.1218 32.8845 39.4993 32.9142 39.4993 32.944C39.4993 32.9738 38.1238 32.9877 36.4267 32.9777C34.7296 32.9678 33.354 32.9381 33.354 32.9103Z" fill="#FAFAFA"/>
<path d="M20.6306 32.8388C20.8284 32.7895 21.033 32.7734 21.236 32.7912C21.4362 32.7759 21.6376 32.7947 21.8315 32.8468C21.6369 32.8948 21.4358 32.9109 21.236 32.8944C21.0325 32.9108 20.8277 32.892 20.6306 32.8388Z" fill="#FAFAFA"/>
<path d="M18.8065 30.4074C19.1103 30.3592 19.4184 30.3438 19.7255 30.3617C20.0324 30.345 20.3402 30.3644 20.6426 30.4193C20.3394 30.4674 20.032 30.4828 19.7255 30.4649C19.418 30.4815 19.1096 30.4621 18.8065 30.4074Z" fill="#FAFAFA"/>
<path d="M10.2178 30.3616C10.2178 30.3319 11.7382 30.318 13.614 30.3279C15.4897 30.3378 17.0102 30.3696 17.0082 30.3974C17.0062 30.4251 15.4897 30.441 13.612 30.4311C11.7343 30.4212 10.2178 30.3894 10.2178 30.3616Z" fill="#FAFAFA"/>
<path d="M18.7748 35.9791C18.9451 35.9563 19.1171 35.9477 19.2889 35.9533C19.6144 35.9533 20.0729 35.9414 20.6128 35.9414H20.6605V35.989C20.6605 36.3364 20.6605 36.7155 20.6605 37.1125C20.6605 37.9303 20.6466 38.6707 20.6327 39.2046C20.6327 39.4567 20.6188 39.6671 20.6128 39.8398C20.6158 39.9178 20.6084 39.9959 20.591 40.072C20.5777 39.9954 20.5717 39.9176 20.5731 39.8398C20.5731 39.6671 20.5731 39.4547 20.5592 39.2046C20.5592 38.6687 20.5592 37.9283 20.5592 37.1125C20.5592 36.7155 20.5592 36.3364 20.5592 35.989L20.6069 36.0367C20.067 36.0367 19.6144 36.0208 19.2829 36.0109C19.113 36.0128 18.9431 36.0022 18.7748 35.9791Z" fill="#FAFAFA"/>
<path d="M14.9618 39.9509C14.946 39.8732 14.94 39.7938 14.9439 39.7147C14.9439 39.542 14.9439 39.3276 14.9301 39.0735C14.9301 38.5317 14.9301 37.7833 14.9301 36.9576C14.9301 36.6043 14.9301 36.2688 14.94 35.9652V35.9155H14.9876C15.5712 35.9155 16.0694 35.9314 16.4227 35.9413C16.6099 35.9376 16.7971 35.9489 16.9825 35.9751C16.796 35.9966 16.6083 36.0052 16.4207 36.0009C16.0694 36.0009 15.5692 36.0128 14.9876 36.0128L15.0372 35.9632C15.0372 36.2748 15.0372 36.6122 15.0372 36.9556C15.0372 37.7814 15.0233 38.5297 15.0114 39.0716C15.0114 39.3256 14.9975 39.54 14.9916 39.7127C14.991 39.793 14.981 39.8729 14.9618 39.9509Z" fill="#FAFAFA"/>
<path d="M15.8351 34.895C15.8865 35.068 15.9033 35.2494 15.8847 35.429C15.9008 35.6089 15.882 35.7902 15.8292 35.9629C15.7617 35.6101 15.7617 35.2478 15.8292 34.895H15.8351Z" fill="#FAFAFA"/>
<path d="M15.8609 30.3916C15.909 30.8411 15.9236 31.2936 15.9045 31.7453C15.92 32.1974 15.9001 32.65 15.845 33.099C15.7968 32.6495 15.7823 32.197 15.8013 31.7453C15.7858 31.2932 15.8057 30.8406 15.8609 30.3916Z" fill="#FAFAFA"/>
<path d="M40.5612 22.1045C40.4161 22.2943 40.2443 22.4621 40.0511 22.6027C39.8789 22.7684 39.6845 22.9093 39.4735 23.0215C39.6193 22.8323 39.7911 22.6646 39.9836 22.5233C40.1559 22.3576 40.3502 22.2167 40.5612 22.1045Z" fill="#FAFAFA"/>
<path d="M41.1269 22.2372C41.1269 22.2669 34.0765 22.2888 25.3806 22.2888C16.6846 22.2888 9.6322 22.2669 9.6322 22.2372C9.6322 22.2074 16.6826 22.1855 25.3806 22.1855C34.0785 22.1855 41.1269 22.2094 41.1269 22.2372Z" fill="#FAFAFA"/>
<path d="M10.5968 22.835C10.4219 22.6798 10.2713 22.4992 10.1502 22.2991C10.0012 22.1191 9.87882 21.9185 9.78699 21.7036C9.96221 21.8578 10.1128 22.0378 10.2336 22.2376C10.3834 22.4178 10.5058 22.6191 10.5968 22.835Z" fill="#FAFAFA"/>
<path d="M40.4601 32.8766C40.4304 32.8766 40.3907 30.5145 40.3688 27.6007C40.347 24.6868 40.353 22.3228 40.3827 22.3228C40.4125 22.3228 40.4502 24.6848 40.472 27.5987C40.4939 30.5125 40.4879 32.8766 40.4601 32.8766Z" fill="#FAFAFA"/>
<path d="M41.4725 32.9203C40.7795 32.9891 40.0813 32.9891 39.3883 32.9203C40.0813 32.8514 40.7795 32.8514 41.4725 32.9203Z" fill="#FAFAFA"/>
<path d="M40.9285 32.0688C40.7989 32.3248 40.6397 32.5646 40.4541 32.7834C40.2947 33.0219 40.1082 33.241 39.8983 33.4365C40.0258 33.1798 40.1845 32.9398 40.3707 32.7219C40.5304 32.4831 40.7176 32.2639 40.9285 32.0688Z" fill="#FAFAFA"/>
<path d="M9.67002 21.1556C9.37518 20.8108 9.13426 20.4233 8.95544 20.0063C9.11509 20.1668 9.249 20.3509 9.35243 20.5522C9.48958 20.7353 9.59678 20.9389 9.67002 21.1556Z" fill="#263238"/>
<path d="M9.19559 19.784C9.19559 19.8544 9.1747 19.9231 9.13557 19.9816C9.09644 20.0401 9.04083 20.0856 8.97579 20.1125C8.91075 20.1393 8.83921 20.1462 8.77024 20.1323C8.70126 20.1185 8.63796 20.0844 8.58835 20.0345C8.53874 19.9847 8.50506 19.9212 8.49157 19.8521C8.47809 19.7831 8.48541 19.7116 8.5126 19.6467C8.5398 19.5818 8.58565 19.5264 8.64434 19.4876C8.70303 19.4488 8.77192 19.4283 8.84227 19.4287C8.88884 19.4287 8.93494 19.4379 8.97794 19.4558C9.02094 19.4737 9.05997 19.4999 9.09281 19.5329C9.12564 19.5659 9.15163 19.6051 9.16926 19.6482C9.1869 19.6913 9.19585 19.7375 9.19559 19.784Z" fill="#FFD000"/>
<path d="M41.1011 21.3977C41.1574 21.1779 41.2464 20.9678 41.3651 20.7744C41.4539 20.5647 41.5744 20.3699 41.7224 20.1968C41.6658 20.4168 41.5761 20.627 41.4564 20.82C41.3687 21.0299 41.2489 21.2248 41.1011 21.3977Z" fill="#263238"/>
<path d="M42.0361 20.2881C41.9758 20.3242 41.9061 20.3416 41.8359 20.3381C41.7656 20.3346 41.698 20.3103 41.6416 20.2683C41.5852 20.2263 41.5425 20.1685 41.5189 20.1023C41.4954 20.036 41.492 19.9642 41.5093 19.8961C41.5265 19.8279 41.5636 19.7664 41.6159 19.7193C41.6681 19.6722 41.7331 19.6417 41.8027 19.6316C41.8723 19.6215 41.9433 19.6323 42.0068 19.6626C42.0703 19.6929 42.1233 19.7414 42.1592 19.8018C42.1832 19.8418 42.1991 19.8861 42.206 19.9322C42.2128 19.9784 42.2104 20.0254 42.199 20.0706C42.1875 20.1158 42.1672 20.1583 42.1393 20.1956C42.1113 20.233 42.0763 20.2644 42.0361 20.2881Z" fill="#FFD000"/>
</g>
<defs>
<clipPath id="clip0_896_38352">
<rect width="120" height="120" fill="white" transform="translate(0.5)"/>
</clipPath>
</defs>
</svg>
