<svg width="210" height="210" viewBox="0 0 210 210" fill="none" xmlns="http://www.w3.org/2000/svg">
<g clip-path="url(#clip0_171_19518)">
<path opacity="0.5" d="M210 190.5C210 190.559 143.998 190.375 68.6147 190.375C-6.76813 190.375 0.773646 190.559 0.773646 190.5C0.773646 190.44 -6.79653 190.154 68.6147 190.154C144.026 190.154 210 190.436 210 190.5Z" fill="#263238"/>
<path d="M134.027 191.125C153.628 185.689 171.569 173.076 181.636 155.324C197.467 127.417 186.903 82.3148 161.801 62.9206C153.094 56.1942 142.944 53.3584 132.006 53.8108C120.299 54.297 108.669 59.6868 96.8571 57.7392C86.7109 56.0636 78.9331 48.0798 68.7492 46.7535C56.5923 45.17 42.7975 50.5548 36.4368 61.3205C28.2849 75.1094 28.7096 96.3693 30.5042 111.703C35.9793 158.538 73.6237 200.784 124.596 193.133C127.778 192.654 130.933 191.979 134.033 191.12L134.027 191.125Z" fill="#FFECB2"/>
<path d="M103.013 178.57C103.19 178.792 110.158 201.826 110.158 201.826L173.305 195.087L163.232 171.088C163.232 171.088 101.69 178.58 102.35 178.577" fill="#E0E0E0"/>
<path d="M80.2605 170.605L43.0859 172.498L104.683 200.276L145.835 187.924L80.2605 170.605Z" fill="#F5F5F5"/>
<path d="M192.764 168.152H213.682L218.663 137.557H188.676L192.764 168.152Z" fill="#E0E0E0"/>
<path d="M80.6084 105.22L91.8618 134.324L111.09 126.889L99.8368 97.7851L80.6084 105.22Z" fill="#EBEBEB"/>
<path d="M83.9535 106.732C83.9778 106.687 84.2314 106.781 84.5197 106.937C84.808 107.093 85.0199 107.26 84.9956 107.305C84.9713 107.35 84.7177 107.257 84.4329 107.097C84.148 106.937 83.9292 106.777 83.9535 106.732Z" fill="#FAFAFA"/>
<path d="M83.887 106.26C83.9321 106.242 86.0962 111.72 88.7153 118.494C91.3344 125.267 93.4186 130.776 93.3734 130.794C93.3282 130.811 91.1642 125.337 88.5451 118.56C85.926 111.783 83.8418 106.26 83.887 106.26Z" fill="#FAFAFA"/>
<path d="M93.5471 129.852C93.5888 129.88 93.4811 130.12 93.304 130.387C93.1268 130.655 92.9566 130.853 92.9114 130.825C92.8663 130.797 92.9774 130.558 93.1546 130.29C93.3318 130.023 93.5054 129.825 93.5471 129.852Z" fill="#FAFAFA"/>
<path d="M92.3731 103.568C92.3939 103.613 90.5737 104.377 88.309 105.27C86.0442 106.162 84.1962 106.854 84.1788 106.805C84.1615 106.756 85.9782 105.999 88.243 105.103C90.5077 104.207 92.3557 103.522 92.3731 103.568Z" fill="#FAFAFA"/>
<path d="M92.0986 102.765C92.2808 102.996 92.4154 103.26 92.4946 103.543C92.6288 103.806 92.7069 104.093 92.7239 104.387C92.5408 104.157 92.4061 103.893 92.3279 103.609C92.1937 103.347 92.1156 103.059 92.0986 102.765Z" fill="#FAFAFA"/>
<path d="M91.6054 103.446C91.6054 103.397 91.9528 103.446 92.3175 103.554C92.6823 103.661 92.9949 103.79 92.981 103.835C92.9671 103.88 92.6336 103.835 92.2689 103.727C91.9042 103.62 91.5915 103.481 91.6054 103.446Z" fill="#FAFAFA"/>
<path d="M106.889 123.77C106.889 123.77 106.872 123.735 106.844 123.666C106.816 123.596 106.778 123.496 106.726 123.371C106.618 123.103 106.469 122.721 106.271 122.224L104.603 117.928C103.169 114.249 101.13 109.052 98.7677 102.946L98.8754 102.994L85.6965 108.097L85.7486 107.983L93.7935 128.824L93.7032 128.783L103.311 125.107L105.965 124.1L106.66 123.84L106.903 123.753C106.903 123.753 106.83 123.788 106.677 123.847L105.982 124.121L103.353 125.163L93.7344 128.925L93.665 128.949L93.6407 128.883L85.561 108.042L85.6097 107.927L98.792 102.838L98.8719 102.807L98.8997 102.887C101.258 109.025 103.263 114.249 104.68 117.948C105.375 119.782 105.934 121.238 106.319 122.245C106.503 122.735 106.646 123.117 106.747 123.381C106.792 123.506 106.83 123.6 106.854 123.673C106.87 123.704 106.882 123.736 106.889 123.77Z" fill="#FAFAFA"/>
<path d="M93.7071 128.866C93.6585 128.866 94.7666 123.041 96.1803 115.875C97.5941 108.709 98.7786 102.908 98.8272 102.915C98.8758 102.922 97.7851 108.743 96.3575 115.909C94.9298 123.075 93.7557 128.876 93.7071 128.866Z" fill="#FAFAFA"/>
<path d="M85.6447 108.014C85.6725 107.972 90.4556 111.47 96.3191 115.819C102.183 120.168 106.921 123.728 106.889 123.77C106.858 123.812 102.082 120.317 96.2114 115.965C90.341 111.612 85.6134 108.052 85.6447 108.014Z" fill="#FAFAFA"/>
<path d="M93.1644 98.6693L87.647 100.803L88.4763 102.948L93.9937 100.814L93.1644 98.6693Z" fill="#F5F5F5"/>
<path d="M105.138 128.634L99.6206 130.767L100.45 132.912L105.967 130.779L105.138 128.634Z" fill="#F5F5F5"/>
<path d="M69.0303 53.7594C69.006 53.7594 69.1102 53.3322 69.2283 52.6374C69.376 51.7361 69.4481 50.824 69.4437 49.9107C69.4326 48.9969 69.3431 48.0858 69.1762 47.1874C69.0477 46.4926 68.9331 46.0758 68.9574 46.0688C69.0069 46.1593 69.0431 46.2564 69.0651 46.3572C69.1276 46.5447 69.2005 46.8191 69.2804 47.163C69.4792 48.0645 69.584 48.9841 69.593 49.9072C69.6033 50.8308 69.516 51.753 69.3325 52.6583C69.2596 53.0056 69.1901 53.2835 69.1311 53.4711C69.1101 53.5712 69.0762 53.6681 69.0303 53.7594Z" fill="#E0E0E0"/>
<path d="M71.8198 46.1245C71.8864 46.2075 71.9424 46.2985 71.9865 46.3955C72.05 46.5072 72.1057 46.6233 72.1532 46.7428C72.2123 46.8748 72.2852 47.0242 72.3443 47.1979C72.4939 47.6022 72.6101 48.0181 72.6916 48.4414C72.7934 48.9599 72.8481 49.4866 72.8549 50.015C72.8566 50.5425 72.8112 51.0691 72.7194 51.5885C72.6373 52.0128 72.5211 52.4299 72.3721 52.8355C72.3165 53.0127 72.2435 53.162 72.188 53.2975C72.141 53.4161 72.0877 53.5321 72.0282 53.6449C71.9848 53.7425 71.93 53.8346 71.8649 53.9193C71.8406 53.9193 72.049 53.5025 72.2713 52.8112C72.4004 52.4067 72.5002 51.9934 72.5701 51.5746C72.6529 51.0623 72.6947 50.5443 72.6951 50.0254C72.6871 49.5058 72.6372 48.9877 72.5457 48.4761C72.4681 48.0593 72.3614 47.6484 72.2262 47.2465C72.0108 46.5379 71.7954 46.1384 71.8198 46.1245Z" fill="#E0E0E0"/>
<path d="M73.4172 64.9444C73.3756 64.9444 73.3408 63.2632 73.3408 61.186C73.3408 59.1088 73.3756 57.4241 73.4172 57.4241C73.4589 57.4241 73.4937 59.1088 73.4937 61.186C73.4937 63.2632 73.4589 64.9444 73.4172 64.9444Z" fill="#F5F5F5"/>
<path d="M74.1365 64.9444C74.0948 64.9444 74.0601 63.2632 74.0601 61.186C74.0601 59.1088 74.0948 57.4241 74.1365 57.4241C74.1782 57.4241 74.2129 59.1088 74.2129 61.186C74.2129 63.2632 74.1782 64.9444 74.1365 64.9444Z" fill="#F5F5F5"/>
<path d="M67.4221 61.5959L67.6583 61.8183L67.9744 61.7488L67.8389 62.044L68.0022 62.3219L67.6791 62.2802L67.4637 62.5234L67.4012 62.2038L67.106 62.0753L67.3908 61.919L67.4221 61.5959Z" fill="#E0E0E0"/>
<path d="M69.3643 58.7198L69.6213 58.7337L69.7776 58.5322L69.8436 58.7823L70.0833 58.8692L69.8679 59.0081L69.8575 59.2652L69.6595 59.0984L69.4129 59.1714L69.5067 58.9317L69.3643 58.7198Z" fill="#E0E0E0"/>
<path d="M69.7217 58.897C69.7217 58.897 68.3323 58.8692 66.5955 58.7928C64.8587 58.7163 63.4692 58.6469 63.4692 58.6295C63.4692 58.6121 64.8587 58.6608 66.5955 58.7337C68.3323 58.8067 69.7252 58.8796 69.7217 58.897Z" fill="#E0E0E0"/>
<path d="M69.6138 57.3928C69.7807 56.8443 69.8787 56.2772 69.9056 55.7046C69.8854 55.1317 69.7944 54.5635 69.6346 54.0129C69.9398 54.5226 70.0873 55.1112 70.0584 55.7046C70.0807 56.2989 69.926 56.8865 69.6138 57.3928Z" fill="#F5F5F5"/>
<path d="M68.8426 57.3858C68.7975 57.3858 68.9712 56.6459 68.9677 55.7324C68.9642 54.8188 68.794 54.0859 68.8392 54.0754C69.0469 54.6022 69.1416 55.1667 69.117 55.7324C69.144 56.2967 69.0504 56.8604 68.8426 57.3858Z" fill="#F5F5F5"/>
<path d="M186.713 153.448L188.95 168.138H201.938L204.95 153.66L186.713 153.448Z" fill="#FFC100"/>
<path d="M203.137 162.879C203.137 162.921 199.805 162.956 195.703 162.956C191.601 162.956 188.27 162.921 188.27 162.879C188.27 162.838 191.597 162.803 195.703 162.803C199.809 162.803 203.137 162.824 203.137 162.879Z" fill="#FAFAFA"/>
<path d="M203.186 162.143C203.186 162.185 199.837 162.219 195.703 162.219C191.57 162.219 188.221 162.185 188.221 162.143C188.221 162.101 191.57 162.067 195.703 162.067C199.837 162.067 203.186 162.101 203.186 162.143Z" fill="#FAFAFA"/>
<path d="M203.161 161.327C203.161 161.368 199.809 161.403 195.679 161.403C191.549 161.403 188.193 161.368 188.193 161.327C188.193 161.285 191.545 161.25 195.679 161.25C199.813 161.25 203.161 161.285 203.161 161.327Z" fill="#FAFAFA"/>
<path d="M190.441 167.301C190.123 166.079 189.907 164.832 189.794 163.574C190.111 164.795 190.328 166.041 190.441 167.298V167.301Z" fill="#FAFAFA"/>
<path d="M191.323 167.145C191.233 166.548 191.18 165.946 191.163 165.342C191.096 164.741 191.068 164.137 191.08 163.532C191.218 164.123 191.297 164.726 191.316 165.332C191.383 165.934 191.385 166.542 191.323 167.145Z" fill="#FAFAFA"/>
<path d="M192.935 167.145C192.753 166.542 192.637 165.921 192.588 165.293C192.489 164.673 192.456 164.045 192.487 163.418C192.607 164.032 192.691 164.652 192.737 165.276C192.839 165.895 192.905 166.519 192.935 167.145Z" fill="#FAFAFA"/>
<path d="M194.064 167.221C193.942 166.603 193.882 165.973 193.887 165.342C193.84 164.713 193.859 164.081 193.942 163.456C194.013 164.081 194.044 164.71 194.036 165.339C194.084 165.965 194.093 166.594 194.064 167.221Z" fill="#FAFAFA"/>
<path d="M196.068 167.145C195.969 166.556 195.923 165.96 195.929 165.363C195.89 164.767 195.9 164.168 195.96 163.574C196.054 164.164 196.1 164.762 196.096 165.359C196.137 165.954 196.128 166.552 196.068 167.145Z" fill="#FAFAFA"/>
<path d="M197.527 167.225C197.437 165.995 197.448 164.76 197.558 163.532C197.652 164.762 197.641 165.997 197.527 167.225Z" fill="#FAFAFA"/>
<path d="M198.898 167.027C198.923 165.737 199.047 164.452 199.27 163.182C199.246 164.471 199.122 165.757 198.898 167.027Z" fill="#FAFAFA"/>
<path d="M200.667 166.836C200.668 166.281 200.74 165.729 200.882 165.193C200.977 164.647 201.139 164.115 201.365 163.609C201.282 164.155 201.166 164.695 201.018 165.228C200.929 165.769 200.812 166.306 200.667 166.836Z" fill="#FAFAFA"/>
<path d="M185.223 150.541V153.289C185.223 153.575 185.337 153.851 185.539 154.054C185.742 154.257 186.017 154.371 186.303 154.372H205.113C205.4 154.371 205.675 154.257 205.877 154.054C206.08 153.851 206.193 153.575 206.193 153.289V150.541H185.223Z" fill="#FFC100"/>
<g opacity="0.4">
<path d="M186.853 154.373L187.009 155.244L204.363 156.485L204.804 154.373H186.853Z" fill="black"/>
</g>
<path d="M188.054 150.555C188.054 150.555 180.759 142.125 181.555 141.819C182.35 141.513 188.867 146.185 188.867 146.185C188.867 146.185 183.281 133.68 184.4 132.781C185.518 131.881 191.406 143.851 191.406 143.851C191.406 143.851 190.492 126.382 191.406 126.181C192.319 125.979 195.672 143.649 195.672 143.649C195.672 143.649 200.649 127.501 202.07 127.501C203.491 127.501 200.545 143.038 200.545 143.038C200.545 143.038 206.45 133.086 207.35 134.406C208.249 135.726 203.181 146.491 203.181 146.491C203.181 146.491 210.601 140.301 210.896 141.11C211.192 141.92 202.876 150.555 202.876 150.555H188.054Z" fill="#455A64"/>
<path d="M187.036 137.869C187.085 137.848 188.384 140.627 189.933 144.08C191.483 147.533 192.712 150.333 192.646 150.371C192.58 150.409 191.298 147.613 189.749 144.16C188.2 140.707 186.984 137.869 187.036 137.869Z" fill="#263238"/>
<path d="M192.941 139.412C192.997 139.412 193.212 141.861 193.424 144.886C193.636 147.912 193.772 150.371 193.706 150.374C193.64 150.378 193.435 147.943 193.223 144.9C193.011 141.857 192.886 139.415 192.941 139.412Z" fill="#263238"/>
<path d="M201.091 131.589C201.084 131.657 201.069 131.723 201.046 131.787C201.004 131.936 200.952 132.134 200.886 132.343C200.733 132.854 200.538 133.541 200.274 134.378C199.76 136.098 199.066 138.474 198.361 141.121C197.655 143.768 197.072 146.171 196.655 147.919C196.457 148.77 196.308 149.471 196.172 150.003C196.117 150.229 196.071 150.413 196.033 150.562C196.02 150.629 195.999 150.694 195.971 150.756C195.973 150.689 195.981 150.621 195.995 150.555C196.023 150.402 196.054 150.208 196.096 149.985C196.186 149.492 196.328 148.78 196.516 147.901C196.891 146.164 197.454 143.733 198.159 141.082C198.864 138.432 199.583 136.06 200.132 134.351C200.406 133.496 200.639 132.805 200.806 132.332C200.882 132.114 200.948 131.936 201 131.791C201.022 131.72 201.052 131.652 201.091 131.589Z" fill="#263238"/>
<path d="M204.613 140.593C204.658 140.624 203.223 142.753 201.424 145.345C199.625 147.936 198.117 150.017 198.072 149.985C198.027 149.954 199.461 147.825 201.261 145.23C203.06 142.635 204.567 140.561 204.613 140.593Z" fill="#263238"/>
<path d="M190.524 150.375C190.289 150.254 190.073 150.101 189.881 149.919C189.51 149.61 189.009 149.162 188.492 148.634C188.05 148.182 187.633 147.706 187.241 147.21C187.066 147.015 186.919 146.796 186.804 146.56C186.849 146.522 187.61 147.443 188.634 148.492C189.659 149.541 190.559 150.329 190.524 150.375Z" fill="#263238"/>
<path d="M194.963 147.026C195.117 147.593 195.204 148.175 195.224 148.762C195.31 149.343 195.33 149.932 195.283 150.517C195.042 149.368 194.935 148.195 194.963 147.022V147.026Z" fill="#263238"/>
<path d="M151.042 178.417C150.06 178.547 149.062 178.49 148.1 178.25C148.591 178.223 149.084 178.237 149.573 178.292C150.065 178.292 150.557 178.334 151.042 178.417Z" fill="white"/>
<path d="M55.4457 155.408C55.4457 155.46 53.1427 155.498 50.2978 155.498C47.4529 155.498 45.1499 155.46 45.1499 155.408C45.1499 155.356 47.4529 155.317 50.2978 155.317C53.1427 155.317 55.4457 155.359 55.4457 155.408Z" fill="#263238"/>
<path d="M49.6689 162.553C50.1561 161.838 50.6923 161.158 51.2738 160.517C51.8089 159.838 52.3891 159.195 53.0106 158.593C52.524 159.309 51.9878 159.991 51.4058 160.632C50.8734 161.313 50.293 161.955 49.6689 162.553Z" fill="#263238"/>
<path d="M48.2242 162.713C48.186 162.681 49.228 161.379 50.5515 159.805C51.8749 158.232 52.983 156.981 53.0177 157.026C53.0525 157.071 52.0139 158.36 50.6904 159.934C49.367 161.507 48.2624 162.744 48.2242 162.713Z" fill="#263238"/>
<path d="M30.1234 155.408C30.1234 155.46 27.8169 155.498 24.9755 155.498C22.1341 155.498 19.8276 155.46 19.8276 155.408C19.8276 155.356 22.1306 155.317 24.9755 155.317C27.8204 155.317 30.1234 155.359 30.1234 155.408Z" fill="#263238"/>
<path d="M72.9526 147.547H60.0898V168.184H72.9526V147.547Z" fill="#F5F5F5"/>
<path d="M72.9563 168.184C72.9536 168.149 72.9536 168.114 72.9563 168.079C72.9563 168.006 72.9563 167.909 72.9563 167.784C72.9563 167.517 72.9563 167.135 72.9563 166.645C72.9563 165.644 72.9562 164.213 72.9319 162.383C72.9319 158.735 72.9076 153.591 72.8903 147.547L72.9771 147.63H60.1247C60.1004 147.648 60.2949 147.46 60.2116 147.543V153.275C60.2116 155.14 60.2116 156.95 60.2116 158.69C60.2116 162.164 60.2116 165.37 60.2116 168.177L60.1386 168.104L69.5174 168.142L72.1052 168.159H72.7826H73.0222H72.7965H72.133L69.5625 168.177L60.156 168.215H60.0865V168.145C60.0865 165.339 60.0865 162.136 60.0865 158.659C60.0865 156.922 60.0865 155.109 60.0865 153.244C60.0865 152.313 60.0865 151.368 60.0865 150.409V147.512C60.0066 147.592 60.1977 147.397 60.1803 147.418H73.0327H73.116V147.502C73.0987 153.567 73.0848 158.732 73.0744 162.393C73.0744 164.203 73.057 165.641 73.05 166.634C73.05 167.121 73.05 167.496 73.05 167.756C73.05 167.878 73.05 167.972 73.05 168.045C73.05 168.118 72.9563 168.184 72.9563 168.184Z" fill="#263238"/>
<path d="M13.9497 156.429H1.08691V168.184H13.9497V156.429Z" fill="#FAFAFA"/>
<path d="M13.9427 168.184C13.9427 168.184 13.9427 168.104 13.9427 167.958C13.9427 167.812 13.9427 167.593 13.9427 167.326C13.9427 166.763 13.9427 165.954 13.9218 164.932C13.9218 162.873 13.8975 159.948 13.8802 156.429L13.96 156.505H1.10768L1.19452 156.419V162.605C1.19452 164.578 1.19452 166.443 1.19452 168.163L1.09031 168.09L10.3822 168.128L13.0118 168.149H13.7065H13.8871H13.9531H13.7238H13.0291L10.4204 168.17L1.07642 168.208H1V168.128C1 166.391 1 164.536 1 162.57V159.538C1 159.02 1 158.496 1 157.971V156.384L1.09379 156.29H13.9462H14.0226V156.366C14.0226 159.903 13.9913 162.848 13.9809 164.918C13.9809 165.933 13.9809 166.735 13.9809 167.294C13.9809 167.558 13.9809 167.763 13.9809 167.913C13.9809 168.062 13.9427 168.184 13.9427 168.184Z" fill="#263238"/>
<path d="M14.0576 150.239V168.184H60.0899V139.412L14.0576 150.239ZM29.8521 166.217H20.1746V152.67H29.8521V166.217ZM55.1504 166.217H45.473V152.67H55.1504V166.217Z" fill="#F5F5F5"/>
<path d="M55.1507 166.231C55.1492 166.208 55.1492 166.185 55.1507 166.162V165.967C55.1507 165.79 55.1507 165.54 55.1507 165.224C55.1507 164.564 55.1507 163.623 55.1299 162.445C55.1299 160.055 55.1055 156.679 55.0882 152.695L55.1715 152.775H45.4941C45.4732 152.775 45.6643 152.604 45.5844 152.684V156.404C45.5844 157.617 45.5844 158.798 45.5844 159.937C45.5844 162.216 45.5844 164.335 45.5844 166.228L45.5114 166.155L52.5316 166.193L54.4872 166.21H55.0048C55.0661 166.206 55.1276 166.206 55.1889 166.21C55.1335 166.216 55.0776 166.216 55.0222 166.21H54.5185L52.5767 166.228L45.5114 166.266H45.4385V166.193C45.4385 164.3 45.4385 162.181 45.4385 159.902C45.4385 158.763 45.4385 157.582 45.4385 156.37V152.688L45.5288 152.597H55.2063H55.2896V152.681C55.2723 156.689 55.2584 160.08 55.248 162.483C55.248 163.664 55.2306 164.602 55.2271 165.262C55.2271 165.57 55.2271 165.813 55.2271 165.992V166.176C55.2043 166.198 55.1786 166.216 55.1507 166.231Z" fill="#263238"/>
<path d="M29.852 166.231C29.8505 166.208 29.8505 166.185 29.852 166.162V165.967C29.852 165.79 29.852 165.54 29.852 165.224C29.852 164.564 29.852 163.623 29.8277 162.445C29.8277 160.055 29.8034 156.679 29.7895 152.695L29.8694 152.775H20.1954C20.1711 152.775 20.3656 152.604 20.2822 152.684V156.404C20.2822 157.617 20.2822 158.798 20.2822 159.937C20.2822 162.216 20.2822 164.335 20.2822 166.228L20.2093 166.155L27.2294 166.193L29.1886 166.211H29.7061C29.7662 166.205 29.8266 166.205 29.8867 166.211C29.8313 166.216 29.7754 166.216 29.72 166.211H29.2163L27.2746 166.228L20.2093 166.266H20.1363V166.193C20.1363 164.3 20.1363 162.181 20.1363 159.902C20.1363 158.763 20.1363 157.582 20.1363 156.37C20.1363 155.762 20.1363 155.147 20.1363 154.529V152.65C20.0564 152.729 20.2475 152.538 20.2301 152.559H29.9041H29.9215V152.643C29.9215 156.651 29.8902 160.041 29.8798 162.445C29.8798 163.626 29.8798 164.564 29.859 165.224C29.859 165.532 29.859 165.775 29.859 165.953V166.138C29.8555 166.214 29.8555 166.231 29.852 166.231Z" fill="#263238"/>
<path d="M14.0577 150.239L14.2731 150.183L14.9226 150.024L17.4549 149.416L26.9726 147.154L60.0726 139.328L60.1768 139.304V139.412C60.1768 146.449 60.1768 154.136 60.1768 162.136V168.274H60.0865L14.0542 168.246H13.9917V168.187C13.9917 162.563 14.016 158.072 14.023 154.987C14.023 153.452 14.023 152.267 14.0403 151.458C14.0403 151.062 14.0403 150.763 14.0403 150.552C14.0403 150.34 14.0403 150.246 14.0403 150.246C14.0403 150.246 14.0403 150.354 14.0403 150.562C14.0403 150.77 14.0403 151.079 14.0403 151.479C14.0403 152.288 14.0403 153.48 14.0403 155.019C14.0403 158.1 14.0403 162.581 14.0716 168.191L14.0125 168.128L60.09 168.09L59.9997 168.18V162.136C59.9997 154.147 59.9997 146.449 59.9997 139.412L60.1039 139.495L27.0421 147.248L17.4966 149.468L14.9469 150.027L14.2835 150.176L14.0577 150.239Z" fill="#263238"/>
<path d="M41.2939 154.303H33.9785V168.184H41.2939V154.303Z" fill="#FAFAFA"/>
<path d="M41.2943 154.303C41.2943 154.303 41.2943 154.32 41.2943 154.362C41.2943 154.404 41.2943 154.477 41.2943 154.557C41.2943 154.737 41.2943 154.991 41.2943 155.31C41.2943 156.005 41.2943 156.957 41.3186 158.169C41.3186 160.646 41.3429 164.119 41.3603 168.184V168.267H41.2734H33.958L33.8677 168.173V164.269C33.8677 163.004 33.8677 161.778 33.8677 160.608C33.8677 158.263 33.8677 156.127 33.8677 154.293V154.223H33.9371L39.3074 154.258L40.7558 154.275H41.131C41.1713 154.269 41.2123 154.269 41.2526 154.275H41.1171H40.7315H39.2657L33.9371 154.31L34.0066 154.244C34.0066 156.078 34.0066 158.214 34.0066 160.559C34.0066 161.73 34.0066 162.956 34.0066 164.22V168.118L33.9163 168.031H41.2317L41.1484 168.118C41.1657 164.078 41.1796 160.622 41.1901 158.162C41.1901 156.94 41.19 155.963 41.2109 155.283C41.2109 154.953 41.2109 154.696 41.2109 154.508C41.2109 154.428 41.2109 154.362 41.2109 154.307C41.2386 154.303 41.2664 154.302 41.2943 154.303Z" fill="#263238"/>
<path d="M24.3638 162.553C24.8509 161.838 25.3871 161.158 25.9686 160.517C26.5037 159.838 27.084 159.195 27.7054 158.593C27.2189 159.309 26.6826 159.991 26.1006 160.632C25.5683 161.313 24.9878 161.955 24.3638 162.553Z" fill="#263238"/>
<path d="M22.898 162.713C22.8598 162.681 23.9053 161.379 25.2288 159.805C26.5522 158.232 27.6603 156.981 27.695 157.026C27.7298 157.071 26.6912 158.36 25.3677 159.934C24.0443 161.507 22.9362 162.744 22.898 162.713Z" fill="#263238"/>
<path d="M80.4072 157.864C80.4558 157.864 80.4975 160.167 80.4975 163.008C80.4975 165.849 80.4558 168.149 80.4072 168.149C80.3586 168.149 80.3169 165.846 80.3169 163.008C80.3169 160.17 80.3551 157.864 80.4072 157.864Z" fill="#263238"/>
<path d="M82.6164 160.137C85.5974 158.917 87.0248 155.511 85.8047 152.53C84.5845 149.549 81.1788 148.122 78.1978 149.342C75.2169 150.562 73.7894 153.968 75.0096 156.949C76.2297 159.93 79.6354 161.357 82.6164 160.137Z" fill="#FAFAFA"/>
<path d="M86.2359 154.744C86.2035 154.267 86.1315 153.793 86.0206 153.327C85.8832 152.785 85.6642 152.267 85.371 151.792C84.9881 151.158 84.4869 150.603 83.8947 150.159C83.1284 149.577 82.2283 149.196 81.2768 149.052C80.3252 148.907 79.3527 149.004 78.4481 149.332C77.9269 149.518 77.4372 149.783 76.9961 150.117C76.7658 150.287 76.5476 150.473 76.3431 150.673C76.1382 150.885 75.9479 151.11 75.7734 151.347C75.0492 152.331 74.6585 153.521 74.6585 154.742C74.6585 155.964 75.0492 157.154 75.7734 158.138C76.1099 158.607 76.5205 159.019 76.9892 159.357C77.4302 159.691 77.9199 159.956 78.4412 160.142C79.7003 160.597 81.0782 160.602 82.3405 160.155C83.6027 159.709 84.6712 158.839 85.3641 157.693C85.6572 157.217 85.8763 156.7 86.0136 156.158C86.1241 155.693 86.1961 155.22 86.229 154.744C86.2343 154.775 86.2343 154.807 86.229 154.838V155.116C86.2292 155.267 86.2176 155.418 86.1943 155.567C86.1715 155.772 86.1344 155.975 86.0831 156.175C85.9538 156.728 85.7406 157.257 85.4509 157.745C85.0284 158.467 84.4565 159.09 83.7736 159.573C83.0906 160.056 82.3124 160.387 81.491 160.545C80.4524 160.741 79.3802 160.656 78.3856 160.298C77.8468 160.11 77.3406 159.84 76.885 159.496C76.4004 159.15 75.9766 158.727 75.631 158.242C74.8822 157.229 74.478 156.002 74.478 154.742C74.478 153.482 74.8822 152.256 75.631 151.243C75.9766 150.758 76.4004 150.334 76.885 149.989C77.3406 149.645 77.8468 149.374 78.3856 149.186C79.3789 148.828 80.4501 148.743 81.4875 148.94C82.3096 149.097 83.0886 149.428 83.7722 149.911C84.4558 150.393 85.0282 151.017 85.4509 151.739C85.7406 152.227 85.9538 152.757 86.0831 153.309C86.1344 153.509 86.1715 153.712 86.1943 153.917C86.2176 154.067 86.2292 154.218 86.229 154.369V154.647C86.2364 154.679 86.2387 154.712 86.2359 154.744Z" fill="#263238"/>
<path d="M89.5499 161.716C89.6394 162.786 89.6696 163.859 89.6402 164.932C89.6696 166.005 89.6394 167.079 89.5499 168.149C89.4604 167.079 89.4302 166.005 89.4596 164.932C89.4302 163.859 89.4604 162.786 89.5499 161.716Z" fill="#263238"/>
<path d="M89.5496 163.407C91.564 163.407 93.1969 161.774 93.1969 159.76C93.1969 157.746 91.564 156.113 89.5496 156.113C87.5353 156.113 85.9023 157.746 85.9023 159.76C85.9023 161.774 87.5353 163.407 89.5496 163.407Z" fill="#FAFAFA"/>
<path d="M93.197 159.753C93.1664 159.456 93.1177 159.162 93.0511 158.871C92.8393 158.084 92.3696 157.392 91.7172 156.905C91.2736 156.569 90.7571 156.343 90.2097 156.245C89.5813 156.131 88.9341 156.187 88.3339 156.405C88.011 156.521 87.7077 156.687 87.4343 156.894C87.1448 157.104 86.8914 157.36 86.684 157.652C86.2351 158.261 85.993 158.998 85.993 159.755C85.993 160.512 86.2351 161.249 86.684 161.858C86.8924 162.149 87.1456 162.404 87.4343 162.615C87.7065 162.824 88.0102 162.988 88.3339 163.102C88.8944 163.309 89.4978 163.371 90.0889 163.285C90.68 163.198 91.2399 162.964 91.7172 162.605C92.3698 162.116 92.8396 161.423 93.0511 160.635C93.1183 160.345 93.1671 160.05 93.197 159.753C93.2207 160.055 93.1937 160.359 93.1171 160.653C92.9542 161.341 92.5957 161.968 92.0848 162.457C91.5738 162.947 90.9323 163.278 90.2375 163.411C89.5827 163.538 88.9054 163.486 88.2784 163.258C87.9388 163.141 87.6199 162.971 87.3335 162.754C87.0287 162.535 86.7613 162.267 86.5415 161.962C86.0678 161.323 85.812 160.549 85.812 159.753C85.812 158.958 86.0678 158.183 86.5415 157.544C86.7604 157.239 87.028 156.973 87.3335 156.755C87.6206 156.539 87.9393 156.368 88.2784 156.248C88.9062 156.024 89.5825 155.971 90.2375 156.095C90.8045 156.202 91.3387 156.44 91.7971 156.79C92.4613 157.3 92.9278 158.024 93.1171 158.84C93.1952 159.137 93.2223 159.446 93.197 159.753Z" fill="#263238"/>
<path d="M139.945 94.2181C138.934 91.9081 136.082 91.1579 133.602 90.6854C133.699 89.8563 133.624 89.0161 133.383 88.217C133.142 87.4179 132.739 86.6768 132.2 86.0395C131.66 85.4023 130.996 84.8826 130.248 84.5125C129.5 84.1423 128.684 83.9297 127.85 83.8878C127.016 83.8459 126.183 83.9755 125.401 84.2687C124.62 84.5619 123.906 85.0124 123.306 85.5923C122.706 86.1722 122.231 86.8692 121.91 87.6401C121.59 88.411 121.432 89.2394 121.445 90.0741C122.556 92.391 122.834 95.0344 123.609 97.4972C124.432 100.113 126.141 102.784 128.819 103.35C130.476 103.698 132.185 103.173 133.765 102.569C135.582 101.874 137.413 101.033 138.722 99.5987C140.032 98.1641 140.73 96.014 139.945 94.2181Z" fill="#455A64"/>
<path d="M133.591 90.3763C133.547 90.4854 133.489 90.5881 133.418 90.6819C133.244 90.9459 133.053 91.1988 132.848 91.4392C132.168 92.2504 131.368 92.9532 130.476 93.5234C129.583 94.0907 128.608 94.5172 127.585 94.7877C127.279 94.8721 126.966 94.9359 126.651 94.9788C126.537 95.0054 126.42 95.0148 126.304 95.0066C126.304 94.9753 126.79 94.8954 127.554 94.6592C129.561 94.0561 131.363 92.9134 132.765 91.3558C133.286 90.7723 133.564 90.3589 133.591 90.3763Z" fill="#263238"/>
<path d="M128.999 84.2976C128.999 84.2976 129.041 84.2976 129.117 84.2976C129.229 84.3316 129.332 84.3884 129.42 84.4643C129.721 84.7712 129.912 85.1696 129.962 85.5967C130.073 86.2037 130.112 86.8216 130.08 87.4378C130.029 88.1912 129.872 88.9337 129.614 89.6435C129.146 90.9411 128.347 92.0942 127.297 92.9886C127.118 93.1416 126.93 93.2842 126.735 93.4158C126.589 93.5186 126.437 93.6126 126.28 93.6972C126.151 93.7767 126.015 93.843 125.873 93.8952C125.852 93.8605 126.439 93.5756 127.214 92.8913C128.776 91.4767 129.744 89.5233 129.923 87.4239C129.964 86.8219 129.939 86.2173 129.847 85.6211C129.807 85.2184 129.645 84.8376 129.381 84.5303C129.269 84.4302 129.14 84.3514 128.999 84.2976Z" fill="#263238"/>
<path d="M127.579 101.482C127.579 101.482 127.791 101.572 128.184 101.659C128.743 101.776 129.315 101.816 129.886 101.777C130.277 101.759 130.666 101.695 131.042 101.586C131.47 101.446 131.877 101.251 132.255 101.006C133.119 100.436 133.843 99.6783 134.373 98.7895C134.913 97.9037 135.275 96.9207 135.436 95.896C135.576 95.0606 135.584 94.2086 135.461 93.3707C135.371 92.8053 135.226 92.2503 135.027 91.7138C134.937 91.5236 134.86 91.3275 134.797 91.1267C134.797 91.1267 134.832 91.1719 134.884 91.2657C134.936 91.3594 135.009 91.5019 135.093 91.6894C135.32 92.2222 135.485 92.7793 135.586 93.3498C135.906 95.2595 135.536 97.2208 134.544 98.8833C133.998 99.7954 133.251 100.57 132.359 101.148C131.968 101.397 131.545 101.592 131.101 101.728C130.712 101.836 130.31 101.895 129.906 101.905C129.322 101.934 128.736 101.875 128.17 101.728C128.017 101.686 127.869 101.631 127.725 101.565C127.673 101.544 127.624 101.516 127.579 101.482Z" fill="#263238"/>
<path d="M120.458 88.8723C116.842 85.5723 112.434 82.6823 107.536 82.5225C103.173 82.3801 98.3795 84.4677 94.9718 87.191C93.2906 88.5353 91.922 90.7654 91.0363 92.7245C89.8274 95.4131 90.6889 98.4316 91.2725 101.318C92.4396 107.105 96.9831 112.781 99.5292 113.41L124.581 109.714C126.557 105.705 128.378 100.887 126.665 96.7643C125.484 93.9576 122.705 90.9252 120.458 88.8723Z" fill="#455A64"/>
<path d="M112.079 87.6738C111.716 87.1086 111.153 86.7007 110.502 86.5309C109.852 86.361 109.161 86.4416 108.568 86.7568L94.7427 91.731C90.689 93.8811 91.3142 100.234 93.6346 104.191C96.212 108.588 99.5398 113.858 102.152 116.668C107.421 122.32 112.812 119.853 112.812 119.853C112.812 119.853 115.067 123.025 116.217 124.637C118.975 128.513 123.164 127.106 126.599 123.831C127.888 122.607 128.721 120.98 128.962 119.219C129.203 117.458 128.836 115.668 127.923 114.143L112.079 87.6738Z" fill="#FFBE9D"/>
<path d="M98.7754 108.481C98.9172 108.693 99.136 108.842 99.3856 108.896C99.6353 108.95 99.896 108.904 100.113 108.769C100.222 108.708 100.318 108.626 100.395 108.527C100.472 108.429 100.528 108.316 100.561 108.195C100.593 108.074 100.601 107.948 100.583 107.824C100.566 107.7 100.524 107.581 100.46 107.473C100.319 107.261 100.101 107.111 99.8523 107.057C99.6033 107.002 99.3428 107.047 99.1262 107.182C99.0169 107.243 98.9208 107.325 98.8438 107.424C98.7668 107.523 98.7102 107.636 98.6776 107.757C98.6449 107.878 98.6367 108.005 98.6535 108.129C98.6703 108.253 98.7117 108.373 98.7754 108.481Z" fill="#263238"/>
<path d="M96.5633 106.122C96.7335 106.16 97.0426 105.292 97.918 104.705C98.7933 104.118 99.7416 104.125 99.7416 103.944C99.759 103.864 99.5263 103.743 99.1094 103.725C98.5558 103.721 98.014 103.886 97.5567 104.198C97.1011 104.502 96.7543 104.944 96.5668 105.459C96.4417 105.855 96.4799 106.108 96.5633 106.122Z" fill="#263238"/>
<path d="M106.894 102.708C107.034 102.92 107.252 103.07 107.501 103.124C107.75 103.179 108.011 103.134 108.227 103C108.336 102.938 108.432 102.856 108.509 102.757C108.585 102.659 108.641 102.546 108.674 102.425C108.706 102.304 108.714 102.178 108.697 102.054C108.68 101.931 108.638 101.811 108.575 101.704C108.434 101.491 108.216 101.342 107.967 101.287C107.718 101.233 107.457 101.278 107.241 101.412C107.132 101.473 107.036 101.555 106.959 101.654C106.882 101.752 106.825 101.866 106.793 101.986C106.761 102.107 106.753 102.233 106.77 102.357C106.787 102.481 106.829 102.6 106.894 102.708Z" fill="#263238"/>
<path d="M105.258 100.502C105.428 100.537 105.737 99.6682 106.612 99.0812C107.488 98.4941 108.422 98.5011 108.443 98.3309C108.46 98.251 108.228 98.1294 107.811 98.1155C107.257 98.1078 106.715 98.2716 106.258 98.5844C105.803 98.8895 105.456 99.331 105.268 99.8454C105.14 100.234 105.174 100.471 105.258 100.502Z" fill="#263238"/>
<path d="M106.452 109.113C106.421 109.061 105.816 109.332 104.861 109.808C104.621 109.933 104.382 110.03 104.243 109.905C104.067 109.688 103.963 109.423 103.944 109.144C103.791 108.45 103.628 107.755 103.461 107.001C102.746 103.965 102.072 101.53 101.947 101.561C101.822 101.593 102.294 104.076 103.017 107.119C103.201 107.866 103.364 108.575 103.538 109.255C103.582 109.615 103.75 109.948 104.014 110.197C104.099 110.252 104.196 110.288 104.296 110.302C104.397 110.315 104.5 110.307 104.597 110.277C104.745 110.227 104.885 110.158 105.014 110.072C105.931 109.53 106.483 109.155 106.452 109.113Z" fill="#263238"/>
<path d="M112.812 119.853C115.824 117.886 118.229 115.12 119.759 111.864C119.759 111.864 120.648 117.707 113.913 121.382L112.812 119.853Z" fill="#EB996E"/>
<path d="M110.437 108.807C110.179 108.698 109.899 108.654 109.62 108.68C109.342 108.706 109.075 108.801 108.842 108.957C108.501 109.15 108.217 109.432 108.022 109.772C107.826 110.112 107.726 110.499 107.731 110.891C107.777 111.23 107.947 111.539 108.207 111.76C108.363 111.857 108.269 111.819 108.443 111.843C109.055 111.972 109.69 111.948 110.291 111.774C110.603 111.661 110.873 111.456 111.068 111.188C111.262 110.919 111.371 110.598 111.381 110.266C111.371 109.96 111.278 109.663 111.112 109.405C110.945 109.148 110.712 108.942 110.437 108.807Z" fill="#EB996E"/>
<path d="M109.429 107.984C109.284 108.074 109.919 109.026 109.561 110.242C109.204 111.458 108.123 112.038 108.207 112.173C108.231 112.243 108.554 112.208 108.988 111.93C109.552 111.566 109.969 111.013 110.162 110.371C110.348 109.755 110.287 109.091 109.992 108.519C109.756 108.113 109.492 107.936 109.429 107.984Z" fill="#263238"/>
<path d="M102.548 98.0842C102.791 98.2648 103.59 97.5631 104.694 96.9969C105.799 96.4307 106.82 96.1494 106.813 95.8472C106.813 95.7048 106.511 95.5762 106.021 95.5728C105.385 95.59 104.761 95.7526 104.198 96.0483C103.634 96.3439 103.146 96.7647 102.77 97.2783C102.496 97.6917 102.433 97.9973 102.548 98.0842Z" fill="#455A64"/>
<path d="M94.8471 102.902C95.1319 102.999 95.5974 102.388 96.3129 101.891C97.0285 101.395 97.7371 101.124 97.7406 100.821C97.7406 100.679 97.5044 100.544 97.1084 100.537C96.5975 100.554 96.1034 100.723 95.6885 101.022C95.2736 101.321 94.9566 101.736 94.7776 102.214C94.6595 102.579 94.7116 102.84 94.8471 102.902Z" fill="#455A64"/>
<path d="M115.629 96.4969C115.688 96.3997 118.367 92.9747 120.739 96.4969C123.112 100.019 119.072 101.707 119.002 101.593C118.933 101.478 115.629 96.4969 115.629 96.4969Z" fill="#FFBE9D"/>
<path d="M119.194 99.5398C119.194 99.5189 119.284 99.5398 119.419 99.5189C119.608 99.4831 119.776 99.3762 119.888 99.2202C120.17 98.8312 120.086 98.0288 119.673 97.3792C119.48 97.0686 119.218 96.806 118.909 96.6115C118.801 96.5233 118.674 96.4623 118.538 96.4339C118.402 96.4054 118.261 96.4104 118.127 96.4483C118.044 96.4778 117.974 96.5351 117.928 96.6104C117.883 96.6857 117.865 96.7745 117.877 96.8616C117.898 96.9936 117.967 97.0492 117.953 97.0666C117.94 97.0839 117.835 97.0666 117.766 96.8929C117.73 96.7917 117.73 96.6814 117.766 96.5803C117.789 96.5113 117.825 96.4476 117.873 96.3928C117.921 96.3379 117.979 96.293 118.044 96.2607C118.208 96.1912 118.388 96.1652 118.566 96.1853C118.744 96.2054 118.913 96.2708 119.058 96.3753C119.413 96.5823 119.714 96.8718 119.933 97.2194C120.388 97.9489 120.472 98.8589 120.058 99.3487C119.983 99.4407 119.887 99.5142 119.779 99.5635C119.67 99.6129 119.552 99.6368 119.433 99.6336C119.242 99.6197 119.173 99.5537 119.194 99.5398Z" fill="#EB996E"/>
<path d="M121.142 99.9184C121.142 99.8906 121.395 99.9601 121.59 100.29C121.652 100.388 121.692 100.497 121.707 100.612C121.722 100.727 121.712 100.843 121.677 100.954C121.62 101.084 121.532 101.198 121.42 101.286C121.309 101.375 121.178 101.435 121.038 101.461C120.901 101.501 120.756 101.507 120.615 101.478C120.475 101.449 120.345 101.386 120.235 101.294C120.069 101.136 119.972 100.919 119.964 100.69C119.964 100.297 120.155 100.12 120.166 100.141C120.12 100.314 120.102 100.493 120.114 100.672C120.14 100.855 120.23 101.022 120.367 101.145C120.455 101.21 120.556 101.254 120.664 101.272C120.771 101.291 120.881 101.284 120.986 101.252C121.093 101.233 121.194 101.189 121.282 101.125C121.37 101.06 121.442 100.977 121.493 100.881C121.522 100.796 121.533 100.706 121.526 100.616C121.52 100.527 121.495 100.439 121.455 100.36C121.369 100.2 121.264 100.052 121.142 99.9184Z" fill="#263238"/>
<path d="M94.0339 105.382C93.8081 104.042 94.2215 102.666 94.8189 101.443C95.4164 100.221 96.2084 99.0917 96.785 97.862C98.1375 95.0048 98.385 91.7482 97.4797 88.7195C95.1385 89.0113 93.0543 90.5848 91.9011 92.6412C90.7877 94.7457 90.4285 97.168 90.8833 99.505C91.3471 101.828 92.3108 104.022 93.7074 105.935" fill="#455A64"/>
<path d="M109.005 85.0791C104.715 84.3844 98.8693 86.3817 96.271 89.8588C98.7998 92.4744 103.305 94.2703 106.824 95.1977C110.343 96.1252 114.292 99.3139 117.665 95.0136C117.898 94.7149 118.422 94.7531 118.582 94.4127C118.684 94.1076 118.673 93.7758 118.551 93.4783C117.884 91.3368 116.641 89.4202 114.957 87.9386C113.273 86.457 111.214 85.4677 109.005 85.0791Z" fill="#455A64"/>
<path d="M97.1499 109.523C96.9713 109.701 96.7519 109.834 96.5108 109.908C95.8469 110.129 95.1259 110.104 94.4787 109.839C93.5309 109.425 92.7553 108.696 92.2834 107.776C91.9878 107.253 91.7368 106.707 91.5331 106.143C91.3023 105.546 91.1029 104.937 90.9356 104.319C90.3504 102.142 90.1633 99.8766 90.3833 97.6326C90.4521 96.9517 90.5611 96.2755 90.7098 95.6075L90.8488 95.0691C90.8597 95.0048 90.8808 94.9426 90.9113 94.885C90.8885 95.1328 90.849 95.3789 90.7932 95.6214C90.7202 96.0973 90.6021 96.7781 90.5431 97.6326C90.3711 99.8511 90.5767 102.083 91.151 104.233C91.3281 104.861 91.4983 105.469 91.738 106.042C91.9367 106.596 92.1795 107.132 92.464 107.647C92.9073 108.539 93.6428 109.253 94.5482 109.669C95.1635 109.934 95.8513 109.981 96.4969 109.801C96.7225 109.728 96.9411 109.635 97.1499 109.523Z" fill="#455A64"/>
<path d="M125.425 95.0935C125.401 95.0935 125.154 94.7462 124.609 94.2286C123.834 93.4807 122.954 92.85 121.997 92.3563C120.576 91.637 119.053 91.1392 117.481 90.8801C115.546 90.5882 113.587 90.4858 111.632 90.5744C109.547 90.63 107.557 90.755 105.727 90.7446C104.116 90.7552 102.508 90.6169 100.923 90.3312C99.8495 90.1346 98.8012 89.8213 97.7963 89.3968C97.4489 89.2405 97.178 89.112 97.0008 89.0147C96.9082 88.9709 96.8198 88.9185 96.7368 88.8584C96.7368 88.8376 97.1189 89.039 97.831 89.3204C98.8351 89.7096 99.8753 89.9982 100.936 90.1819C102.515 90.4423 104.113 90.5643 105.713 90.5466C107.519 90.5466 109.506 90.4146 111.597 90.3555C113.572 90.2745 115.55 90.3909 117.502 90.7029C119.096 90.9708 120.638 91.489 122.07 92.2382C123.033 92.7493 123.91 93.4067 124.672 94.1869C124.875 94.3997 125.066 94.6235 125.245 94.8573C125.311 94.9309 125.372 95.0099 125.425 95.0935Z" fill="white"/>
<path d="M117.557 87.7155C117.485 87.724 117.411 87.724 117.339 87.7155L116.717 87.6183L116.269 87.5523C116.105 87.5314 115.921 87.5245 115.734 87.5106C115.348 87.4863 114.911 87.4342 114.424 87.4446H113.664C113.4 87.4446 113.125 87.4689 112.837 87.4828C112.267 87.4828 111.659 87.5662 111.02 87.6217C109.742 87.7642 108.342 87.9691 106.873 88.1949C105.403 88.4207 103.993 88.6013 102.704 88.7055C102.058 88.7402 101.447 88.7923 100.87 88.7785C100.582 88.7785 100.304 88.7785 100.04 88.7785L99.2723 88.7264C98.8333 88.6968 98.3961 88.6435 97.9628 88.5666C97.7717 88.5353 97.5911 88.511 97.4279 88.4797L96.9867 88.3651L96.3788 88.2018C96.3067 88.1876 96.2367 88.1643 96.1704 88.1324C96.2442 88.1327 96.3177 88.142 96.3892 88.1602L97.0041 88.2852L97.4452 88.379L97.9802 88.4485C98.4119 88.5124 98.8467 88.5541 99.2828 88.5735L100.043 88.6117C100.307 88.6117 100.585 88.6117 100.87 88.6117C101.44 88.6117 102.048 88.5596 102.69 88.5214C103.969 88.4068 105.372 88.2157 106.841 87.9934C108.311 87.7711 109.714 87.5696 111.01 87.4376C111.656 87.3855 112.267 87.323 112.84 87.3161C113.129 87.3161 113.406 87.2917 113.674 87.2917L114.442 87.3126C114.931 87.3126 115.369 87.3751 115.755 87.4099C115.949 87.4307 116.13 87.4446 116.293 87.4689L116.741 87.5557L117.356 87.6843C117.424 87.6864 117.492 87.6969 117.557 87.7155Z" fill="#263238"/>
<path d="M93.537 104.365C93.4241 104.175 93.3288 103.975 93.2522 103.767C93.1419 103.531 93.049 103.287 92.9743 103.038C92.8567 102.713 92.7558 102.383 92.6721 102.048L92.5297 101.464C92.481 101.259 92.4533 101.044 92.415 100.821C92.3339 100.348 92.2771 99.87 92.2448 99.3904C92.0995 97.1842 92.4435 94.9733 93.2522 92.9156C93.4243 92.4682 93.619 92.03 93.8358 91.6025C93.94 91.4045 94.0303 91.2065 94.138 91.0259L94.4541 90.5153C94.6348 90.2205 94.8308 89.9353 95.0411 89.6608C95.1905 89.4483 95.3529 89.2453 95.5274 89.0529C95.6662 88.8803 95.8183 88.7188 95.9824 88.5701C96.0207 88.6013 95.3676 89.2926 94.593 90.5952L94.2908 91.1093C94.1901 91.2864 94.1032 91.4844 94.0025 91.6824C93.7906 92.0784 93.6239 92.523 93.4293 92.985C93.054 94.0058 92.7749 95.0594 92.5957 96.1321C92.4385 97.2071 92.385 98.2947 92.4359 99.3799C92.4617 99.8534 92.5116 100.325 92.5853 100.794C92.62 101.013 92.6408 101.228 92.686 101.433C92.7311 101.638 92.7728 101.825 92.8145 102.013C93.1723 103.489 93.5857 104.347 93.537 104.365Z" fill="white"/>
<path d="M121.247 89.6157C121.247 89.6157 121.302 89.6157 121.399 89.6817C121.497 89.7477 121.643 89.8033 121.82 89.9075C122.328 90.1963 122.814 90.5214 123.275 90.8801C123.962 91.4151 124.576 92.0388 125.099 92.735C125.405 93.1483 125.68 93.5837 125.922 94.0376C126.178 94.5263 126.402 95.031 126.592 95.5487C126.973 96.5411 127.266 97.5651 127.468 98.6089C127.626 99.4655 127.665 100.34 127.582 101.207C127.528 101.789 127.411 102.363 127.235 102.92C127.173 103.118 127.107 103.267 127.068 103.368C127.03 103.468 127.002 103.521 126.995 103.517C127.227 102.759 127.385 101.981 127.468 101.193C127.533 100.338 127.483 99.4783 127.318 98.6367C127.109 97.6054 126.814 96.5934 126.436 95.6112C126.249 95.1012 126.03 94.6035 125.78 94.121C125.543 93.6738 125.275 93.2443 124.977 92.8358C124.469 92.1452 123.875 91.522 123.209 90.9809C122.758 90.617 122.287 90.2784 121.799 89.9666C121.607 89.8615 121.423 89.7444 121.247 89.6157Z" fill="#263238"/>
<path d="M107.352 154.402L121.594 153.707L115.296 125.224C115.296 125.224 108.311 130.087 108.186 137.482C108.078 144.217 107.352 154.402 107.352 154.402Z" fill="#FFC100"/>
<path d="M157.403 137.638C154.746 127.874 148.025 117.429 148.025 117.429C148.025 117.429 144.287 108.682 134.78 109.981C134.78 109.981 130.959 110.676 129.205 112.847L114.084 126.304L115.164 145.61C115.334 148.677 116.474 152.113 118.697 154.232C121.241 156.656 124.411 158.323 127.85 159.046C126.919 160.359 127.308 162.277 128.357 163.496C129.406 164.715 130.955 165.379 132.484 165.875C142.602 169.175 154.169 166.876 162.801 160.648C162.808 160.63 159.904 146.781 157.403 137.638Z" fill="#FFC100"/>
<path d="M150.963 154.402C150.886 154.427 150.807 154.444 150.727 154.451L150.053 154.544L147.573 154.892C145.489 155.194 142.599 155.663 139.434 156.298C136.27 156.934 133.432 157.629 131.386 158.16L128.954 158.803L128.294 158.977C128.219 159.001 128.141 159.018 128.062 159.025C128.132 158.988 128.207 158.96 128.284 158.942L128.933 158.737C129.5 158.56 130.323 158.32 131.341 158.042C133.38 157.476 136.204 156.767 139.385 156.125C142.567 155.482 145.443 155.041 147.542 154.77C148.584 154.635 149.442 154.534 150.032 154.478L150.709 154.416C150.794 154.406 150.878 154.401 150.963 154.402Z" fill="#263238"/>
<path d="M115.282 125.227C115.536 126.731 116.324 129.892 116.793 131.81C116.96 132.47 117.853 133.251 118.429 133.616C119.346 134.196 120.392 133.831 121.208 133.123C123.574 131.091 125.053 128.26 126.106 124.14C126.888 121.087 129.204 112.83 129.204 112.83L121.972 118.652L115.282 125.227Z" fill="#FFBE9D"/>
<path d="M114.789 139.451C114.804 139.508 114.81 139.567 114.806 139.625C114.806 139.761 114.806 139.924 114.824 140.125C114.824 140.587 114.848 141.206 114.862 141.959C114.878 143.975 115.098 145.984 115.518 147.955C115.953 149.924 116.812 151.775 118.037 153.377C118.416 153.855 118.835 154.299 119.291 154.704C119.614 154.989 119.801 155.138 119.794 155.152C119.741 155.127 119.691 155.095 119.645 155.058C119.555 154.989 119.409 154.899 119.242 154.76C118.764 154.37 118.327 153.934 117.936 153.457C116.668 151.857 115.781 149.99 115.341 147.997C114.917 146.014 114.714 143.99 114.733 141.963C114.733 141.185 114.733 140.573 114.754 140.125C114.754 139.924 114.754 139.778 114.754 139.625C114.76 139.566 114.772 139.508 114.789 139.451Z" fill="#263238"/>
<path d="M115.164 145.478C115.119 145.535 115.068 145.588 115.011 145.634C114.853 145.775 114.675 145.892 114.483 145.982C114.179 146.123 113.85 146.206 113.514 146.225C113.071 146.249 112.627 146.192 112.205 146.055C111.689 145.895 111.206 145.643 110.781 145.311C110.299 144.926 109.885 144.464 109.554 143.943C109.185 143.37 108.905 142.745 108.724 142.088C108.629 141.734 108.599 141.366 108.634 141.001C108.677 140.622 108.822 140.261 109.054 139.959C109.29 139.645 109.639 139.434 110.027 139.372C110.401 139.326 110.779 139.406 111.104 139.597C111.418 139.773 111.68 140.028 111.864 140.337C112.037 140.633 112.141 140.965 112.166 141.306C112.204 141.929 112.085 142.552 111.819 143.116C111.612 143.616 111.305 144.067 110.916 144.443C110.743 144.607 110.541 144.738 110.322 144.832C110.127 144.908 109.926 144.966 109.721 145.006C109.395 145.074 109.064 145.11 108.731 145.113C108.521 145.118 108.311 145.096 108.106 145.047C108.033 145.035 107.963 145.008 107.901 144.968C107.901 144.968 107.974 144.992 108.113 145.013C108.317 145.044 108.525 145.054 108.731 145.04C109.058 145.027 109.382 144.983 109.7 144.908C109.898 144.864 110.092 144.803 110.28 144.728C110.484 144.635 110.67 144.506 110.829 144.349C111.197 143.979 111.487 143.54 111.684 143.057C111.929 142.513 112.037 141.916 111.996 141.32C111.971 141.004 111.875 140.698 111.715 140.424C111.546 140.143 111.306 139.911 111.02 139.75C110.73 139.578 110.39 139.506 110.055 139.545C109.713 139.603 109.406 139.791 109.2 140.07C108.986 140.348 108.853 140.68 108.814 141.028C108.783 141.371 108.811 141.717 108.898 142.05C109.073 142.69 109.344 143.3 109.7 143.859C110.016 144.368 110.414 144.821 110.878 145.2C111.286 145.527 111.75 145.777 112.246 145.94C112.654 146.08 113.084 146.144 113.514 146.131C113.838 146.12 114.157 146.049 114.456 145.923C114.709 145.803 114.946 145.654 115.164 145.478Z" fill="#263238"/>
<path d="M130.51 147.062C130.51 147.062 130.51 147.09 130.458 147.132C130.406 147.173 130.354 147.243 130.288 147.319C130.065 147.556 129.827 147.779 129.576 147.986C128.624 148.726 127.517 149.241 126.339 149.494C124.585 149.895 122.747 149.686 121.128 148.903C120.154 148.46 119.336 147.734 118.78 146.819C118.491 146.326 118.345 145.762 118.356 145.19C118.367 144.597 118.563 144.023 118.915 143.547C119.093 143.308 119.319 143.109 119.579 142.964C119.839 142.819 120.126 142.73 120.423 142.703C120.999 142.667 121.571 142.823 122.049 143.148C122.51 143.452 122.877 143.879 123.108 144.381C123.326 144.857 123.453 145.369 123.483 145.892C123.527 146.852 123.356 147.809 122.983 148.695C122.584 149.633 121.995 150.478 121.254 151.177C120.513 151.877 119.635 152.415 118.676 152.759C118.478 152.835 118.29 152.874 118.134 152.919C118.002 152.955 117.867 152.983 117.731 153.002L117.481 153.04H117.394C117.819 152.947 118.239 152.831 118.651 152.693C119.766 152.276 120.761 151.591 121.548 150.699C122.095 150.091 122.533 149.395 122.844 148.639C123.203 147.775 123.364 146.841 123.317 145.906C123.288 145.405 123.164 144.915 122.952 144.461C122.735 143.987 122.388 143.585 121.951 143.3C121.508 142.998 120.976 142.852 120.44 142.884C120.167 142.907 119.901 142.988 119.662 143.122C119.422 143.257 119.214 143.44 119.051 143.662C118.72 144.106 118.537 144.643 118.526 145.197C118.514 145.737 118.651 146.269 118.922 146.736C119.462 147.617 120.252 148.319 121.191 148.75C122.779 149.527 124.584 149.744 126.311 149.365C127.475 149.127 128.574 148.636 129.527 147.927C129.781 147.728 130.025 147.516 130.257 147.292L130.441 147.114L130.51 147.062Z" fill="#263238"/>
<path d="M158.696 143.314C158.459 143.644 158.178 143.939 157.862 144.193C156.803 145.095 155.49 145.646 154.105 145.771C152.719 145.895 151.329 145.587 150.126 144.888C149.269 144.411 148.534 143.741 147.98 142.932C147.688 142.497 147.489 142.006 147.396 141.49C147.303 140.954 147.358 140.403 147.556 139.896C147.752 139.378 148.133 138.951 148.626 138.698C149.106 138.453 149.663 138.405 150.178 138.562C150.424 138.646 150.647 138.782 150.834 138.962C151.02 139.143 151.164 139.362 151.255 139.604C151.425 140.064 151.472 140.559 151.391 141.042C151.33 141.495 151.199 141.936 151.002 142.348C150.823 142.736 150.624 143.112 150.404 143.477C150.014 144.14 149.534 144.744 148.976 145.273C148.165 146.041 147.147 146.557 146.048 146.756C145.753 146.813 145.453 146.843 145.152 146.847H144.919C144.893 146.852 144.866 146.852 144.839 146.847C144.839 146.822 145.274 146.847 146.034 146.69C147.109 146.468 148.099 145.945 148.89 145.183C149.431 144.656 149.899 144.058 150.279 143.404C150.751 142.681 151.074 141.871 151.231 141.022C151.302 140.568 151.256 140.105 151.099 139.674C151.017 139.454 150.888 139.256 150.719 139.093C150.551 138.93 150.348 138.807 150.126 138.732C149.655 138.592 149.147 138.638 148.709 138.861C148.255 139.093 147.905 139.485 147.726 139.962C147.542 140.44 147.49 140.958 147.577 141.463C147.666 141.953 147.855 142.42 148.132 142.835C148.671 143.622 149.384 144.275 150.217 144.742C151.628 145.558 153.288 145.834 154.889 145.52C155.963 145.296 156.97 144.82 157.824 144.13C158.128 143.874 158.419 143.601 158.696 143.314Z" fill="#263238"/>
<g opacity="0.3">
<path d="M128.075 159.025C135.37 159.084 142.779 157.611 149.309 154.339C142.216 155.493 134.859 156.667 128.075 159.025Z" fill="black"/>
</g>
<path d="M128.364 163.479C128.364 163.479 124.508 169.172 123.056 173.528C121.604 177.884 122.441 190.396 122.441 190.396L166.851 190.246C169.166 185.144 170.041 179.505 169.38 173.941C168.251 164.75 162.808 159.425 162.808 159.425L128.364 163.479Z" fill="#263238"/>
<path d="M138.594 190.34C138.624 190.154 138.673 189.971 138.74 189.795C138.844 189.447 139.011 188.947 139.222 188.332C139.646 187.106 140.306 185.432 141.084 183.611C141.862 181.791 142.543 180.138 143.005 178.915L143.547 177.477C143.606 177.298 143.679 177.124 143.766 176.956C143.731 177.142 143.68 177.324 143.613 177.501C143.505 177.849 143.339 178.345 143.123 178.96C142.693 180.187 142.033 181.857 141.251 183.681C140.469 185.505 139.796 187.155 139.341 188.377C139.125 188.964 138.945 189.447 138.806 189.819C138.749 189.998 138.678 190.172 138.594 190.34Z" fill="#455A64"/>
<path d="M169.616 174.459C169.616 174.459 169.575 174.497 169.488 174.549C169.363 174.626 169.234 174.697 169.102 174.761C168.618 175.004 168.109 175.195 167.584 175.33C165.836 175.807 163.979 175.698 162.298 175.022C160.617 174.345 159.203 173.137 158.272 171.582C157.991 171.12 157.758 170.63 157.577 170.12C157.511 169.939 157.476 169.794 157.448 169.696C157.421 169.599 157.41 169.55 157.417 169.547C157.681 170.231 158.005 170.89 158.386 171.516C159.331 173.021 160.726 174.188 162.374 174.851C164.022 175.514 165.837 175.64 167.56 175.209C168.267 175.022 168.955 174.771 169.616 174.459Z" fill="#455A64"/>
<path d="M29.1528 177C29.1528 177 26.1516 180.568 31.8414 183.367C37.5311 186.167 107.514 208.763 108.302 208.763C109.886 208.763 112.863 209.972 115.416 206.293L147.641 186.077C147.641 186.077 141.121 189.728 138.957 189.488C134.705 189.015 90.9275 180.616 90.9275 180.616C90.9275 180.616 87.9819 179.682 88.3501 177H29.1528Z" fill="#455A64"/>
<path d="M32.0811 181.141L85.1926 180.446L110.477 185.406L124.371 188.105L131.558 189.495L133.379 189.842L134.292 190.009L135.171 190.155C135.14 190.214 135.209 190.023 135.286 190.294L135.254 190.325L135.226 190.346L135.178 190.381L135.077 190.443L134.883 190.572L134.487 190.822L133.709 191.305L132.104 192.284L109.81 206.119L109.775 206.14H109.737L32.0811 181.141L109.789 205.96H109.716L132.01 192.135L133.601 191.141L134.403 190.652L134.799 190.401L134.994 190.276L135.091 190.21L135.136 190.179H135.157C135.185 190.179 135.112 190.144 135.195 190.224C135.279 190.304 135.265 190.374 135.237 190.325C135.069 190.316 134.902 190.295 134.737 190.262L134.275 190.183L133.361 190.016L131.541 189.668L124.354 188.279L110.46 185.573L85.1787 180.592L32.0811 181.141Z" fill="#263238"/>
<path d="M44.8081 183.138L85.3382 182.558H85.3556L125.153 190.613L125.385 190.659L125.181 190.78C124.625 191.11 124.02 191.475 123.412 191.822L108.75 200.447L108.716 200.465H108.681L83.3895 193.292C79.5685 192.201 75.9074 191.253 72.5102 190.377L63.0967 187.984C57.3652 186.535 52.787 185.354 49.6468 184.51C48.0768 184.083 46.868 183.753 46.0447 183.506L44.8081 183.159L49.6712 184.462C52.7974 185.295 57.3965 186.462 63.1314 187.894L72.5518 190.266C75.949 191.138 79.5998 192.076 83.4381 193.163L108.73 200.274H108.66L123.322 191.642L125.09 190.6L125.118 190.766L85.3243 182.704H85.3417L44.8081 183.138Z" fill="white"/>
<path d="M127.004 190.436C127.032 190.478 122.937 193.007 117.858 196.084C112.78 199.162 108.643 201.621 108.618 201.58C108.594 201.538 112.686 199.006 117.764 195.928C122.843 192.85 126.98 190.391 127.004 190.436Z" fill="white"/>
<path d="M108.795 202.906C108.696 202.45 108.655 201.983 108.674 201.517C108.636 201.053 108.657 200.586 108.736 200.127C108.836 200.584 108.875 201.051 108.854 201.517C108.894 201.981 108.874 202.448 108.795 202.906Z" fill="white"/>
<path d="M142.525 205.638C142.487 205.669 142.293 205.499 142.095 205.256C141.897 205.012 141.765 204.787 141.803 204.755C141.841 204.724 142.036 204.898 142.234 205.141C142.432 205.384 142.564 205.606 142.525 205.638Z" fill="white"/>
<path d="M72.9512 182.884C72.9914 182.897 73.0299 182.914 73.0658 182.936L73.3958 183.103L74.6498 183.77L79.2488 186.243L94.3972 194.469L100.403 197.748H100.316C104.603 195.021 108.392 192.815 111.112 191.297C112.47 190.537 113.561 189.946 114.311 189.561L115.176 189.109L115.402 188.994L115.479 188.96C115.479 188.96 115.458 188.98 115.409 189.008L115.19 189.133L114.339 189.613L111.168 191.405C108.462 192.951 104.686 195.174 100.4 197.908L100.354 197.935L100.309 197.911L94.3 194.639L79.1794 186.368L74.6046 183.843L73.368 183.148L73.045 182.961L72.9512 182.884Z" fill="white"/>
<path d="M79.7959 197.822L84.5235 199.92L126.363 196.999L123.035 194.866L79.7959 197.822Z" fill="#FFC100"/>
<path d="M85.8465 198.746C84.9787 198.466 84.1517 198.072 83.3872 197.575C84.255 197.855 85.082 198.249 85.8465 198.746Z" fill="#263238"/>
<path d="M92.0994 198.308C91.2316 198.028 90.4047 197.635 89.6401 197.138C90.508 197.418 91.3349 197.811 92.0994 198.308Z" fill="#263238"/>
<path d="M98.3792 197.867C97.9365 197.755 97.5103 197.586 97.1114 197.364C96.6862 197.193 96.2855 196.966 95.9199 196.69C96.7878 196.97 97.6147 197.363 98.3792 197.86V197.867Z" fill="#263238"/>
<path d="M104.646 197.43C103.778 197.15 102.951 196.756 102.187 196.259C102.631 196.37 103.058 196.539 103.458 196.763C103.882 196.931 104.281 197.155 104.646 197.43Z" fill="#263238"/>
<path d="M110.916 196.992C110.046 196.715 109.219 196.32 108.457 195.818C108.9 195.93 109.326 196.101 109.724 196.325C110.149 196.495 110.549 196.719 110.916 196.992Z" fill="#263238"/>
<path d="M117.182 196.551C116.74 196.439 116.313 196.27 115.915 196.047C115.489 195.879 115.089 195.655 114.723 195.38C115.591 195.66 116.418 196.054 117.182 196.551Z" fill="#263238"/>
<path d="M87.9309 197.975C87.91 198.02 87.5835 197.916 87.2361 197.742C86.8888 197.568 86.5901 197.395 86.6109 197.346C86.6317 197.298 86.9583 197.405 87.3056 197.579C87.653 197.753 87.9309 197.93 87.9309 197.975Z" fill="#263238"/>
<path d="M94.218 197.562C94.1971 197.607 93.8706 197.503 93.5233 197.329C93.1759 197.155 92.8772 196.981 92.898 196.933C92.9188 196.884 93.2454 196.992 93.5927 197.166C93.9401 197.339 94.2388 197.516 94.218 197.562Z" fill="#263238"/>
<path d="M100.519 197.148C100.498 197.193 100.172 197.089 99.8245 196.916C99.4771 196.742 99.1819 196.568 99.2027 196.52C99.2235 196.471 99.5501 196.579 99.8974 196.752C100.245 196.926 100.54 197.103 100.519 197.148Z" fill="#263238"/>
<path d="M106.82 196.731C106.8 196.776 106.473 196.672 106.126 196.499C105.778 196.325 105.483 196.151 105.504 196.103C105.525 196.054 105.851 196.162 106.199 196.335C106.546 196.509 106.841 196.69 106.82 196.731Z" fill="#263238"/>
<path d="M113.121 196.318C113.1 196.363 112.774 196.259 112.427 196.085C112.079 195.912 111.784 195.738 111.805 195.689C111.826 195.641 112.152 195.748 112.499 195.922C112.847 196.096 113.142 196.273 113.121 196.318Z" fill="#263238"/>
<path d="M119.423 195.905C119.402 195.95 119.075 195.846 118.728 195.672C118.38 195.498 118.085 195.325 118.106 195.276C118.127 195.227 118.453 195.335 118.801 195.509C119.148 195.682 119.443 195.859 119.423 195.905Z" fill="#263238"/>
<path d="M145.697 119.516C145.381 116.345 138.951 108.887 131.341 113.326C131.052 113.497 129.851 117.543 129.951 126.63C130.052 135.717 131.782 157.525 131.782 157.525L127.291 189.447L135.586 190.993C135.586 190.993 143.575 163.551 143.995 159.425C143.999 159.425 146.013 122.702 145.697 119.516ZM144.103 157.962C144.103 157.844 144.124 157.757 144.131 157.698C144.169 157.764 144.162 157.855 144.148 157.962H144.103Z" fill="#FFBE9D"/>
<path d="M128.034 137.485L146.19 137.399C146.19 137.399 147.812 122.288 146.822 118.988C145.613 114.983 138.645 109.502 132.525 111.951C126.404 114.4 128.034 137.485 128.034 137.485Z" fill="#FFC100"/>
<path d="M130.59 114.546C130.59 114.546 130.573 114.58 130.528 114.643L130.33 114.917C130.253 115.042 130.166 115.206 130.059 115.397C129.951 115.588 129.861 115.82 129.767 116.091C129.248 117.633 128.898 119.226 128.725 120.843C128.179 124.963 127.964 130.806 128.127 137.485L128.04 137.402L134.922 137.367L146.194 137.319L146.114 137.399C146.322 131.841 146.499 127.124 146.624 123.772C146.694 122.108 146.746 120.784 146.784 119.871C146.805 119.423 146.822 119.075 146.833 118.829C146.833 118.717 146.833 118.631 146.85 118.561C146.846 118.531 146.846 118.501 146.85 118.471C146.854 118.501 146.854 118.531 146.85 118.561V118.829C146.85 119.075 146.85 119.423 146.826 119.871C146.798 120.788 146.76 122.111 146.711 123.775C146.603 127.127 146.447 131.858 146.267 137.405V137.485H146.187L134.911 137.548L128.03 137.579H127.943V137.492C127.787 130.799 128.027 124.953 128.603 120.819C128.79 119.198 129.16 117.602 129.704 116.064C129.805 115.796 129.927 115.57 130.013 115.369C130.1 115.167 130.218 115.022 130.298 114.893L130.51 114.626C130.562 114.573 130.59 114.546 130.59 114.546Z" fill="#263238"/>
<path d="M135.589 190.993L127.45 189.173C127.45 189.173 126.339 191.156 126.276 191.132C126.214 191.108 118.697 193.824 118.235 194.053C117.964 194.192 117.425 195.033 117.026 195.703C116.711 196.239 116.58 196.864 116.654 197.482C116.654 197.482 116.057 198.694 116.196 198.871C116.543 199.285 117.266 199.253 118.099 198.816C119.061 198.305 121.361 195.689 121.361 195.689C121.361 195.689 119.322 199.323 119.256 200.083C119.19 200.844 119.346 201.181 120.381 200.823C121.531 200.424 124.227 196.308 124.227 196.308C124.227 196.308 124.06 198.236 123.567 199.222C123.074 200.209 123.244 201.205 124.331 201.105C125.418 201.004 126.693 197.725 126.693 197.725L127.551 196.982C127.443 197.601 127.24 198.199 126.95 198.757C126.537 199.5 125.255 201.049 126.703 200.983C128.152 200.917 130.247 197.419 130.247 197.419C130.247 197.419 133.515 195.186 134.259 193.893C134.773 192.961 135.217 191.991 135.589 190.993Z" fill="#FFBE9D"/>
<path d="M123.897 192.754C123.787 192.813 123.67 192.86 123.549 192.893C123.331 192.97 123.007 193.077 122.608 193.206C122.209 193.334 121.719 193.466 121.184 193.598C120.606 193.724 120.057 193.96 119.569 194.293C118.527 195.029 117.915 196.047 117.342 196.658C117.127 196.907 116.927 197.166 116.741 197.437C116.683 197.544 116.614 197.645 116.536 197.739C116.563 197.615 116.613 197.497 116.682 197.391C116.847 197.101 117.035 196.825 117.245 196.565C117.509 196.238 117.807 195.849 118.155 195.408C118.531 194.927 118.97 194.5 119.461 194.137C119.971 193.795 120.543 193.559 121.146 193.442C121.687 193.313 122.17 193.209 122.573 193.095C122.976 192.98 123.303 192.893 123.532 192.834C123.649 192.79 123.772 192.764 123.897 192.754Z" fill="#EB996E"/>
<path d="M122.879 194.557C122.91 194.609 122.236 194.97 121.594 195.623C121.223 196.036 120.896 196.487 120.618 196.968C120.736 196.4 121.033 195.885 121.465 195.498C121.849 195.07 122.336 194.746 122.879 194.557Z" fill="#EB996E"/>
<path d="M125.866 195.085C125.866 195.113 125.706 195.137 125.47 195.234C125.163 195.358 124.894 195.56 124.689 195.82C124.484 196.081 124.351 196.39 124.303 196.717C124.265 196.971 124.279 197.134 124.247 197.141C124.216 197.148 124.168 196.981 124.174 196.707C124.191 196.344 124.321 195.995 124.546 195.71C124.77 195.424 125.079 195.217 125.428 195.116C125.696 195.043 125.866 195.064 125.866 195.085Z" fill="#EB996E"/>
<path d="M128.652 195.912C128.652 195.936 128.569 196.016 128.409 196.13C128.203 196.273 128.011 196.434 127.836 196.613C127.671 196.793 127.551 197.01 127.489 197.245C127.443 197.426 127.454 197.551 127.429 197.555C127.405 197.558 127.346 197.44 127.363 197.225C127.395 196.949 127.517 196.691 127.711 196.492C127.895 196.299 128.111 196.14 128.35 196.023C128.52 195.932 128.638 195.891 128.652 195.912Z" fill="#EB996E"/>
<path d="M146.288 127.006C145.82 127.263 145.33 127.48 144.825 127.655C143.444 128.139 141.992 128.395 140.528 128.412C138.347 128.448 136.191 127.939 134.255 126.933C133.695 126.642 133.172 126.286 132.695 125.873C132.19 125.441 131.777 124.912 131.48 124.317C131.178 123.691 131.058 122.993 131.132 122.302C131.21 121.582 131.562 120.919 132.115 120.451C132.68 120.007 133.371 119.753 134.088 119.725C134.438 119.702 134.789 119.729 135.13 119.805C135.467 119.869 135.792 119.987 136.093 120.152C136.391 120.312 136.659 120.521 136.888 120.77C137.117 121.008 137.309 121.278 137.458 121.573C137.615 121.858 137.732 122.163 137.805 122.479C137.879 122.786 137.914 123.102 137.909 123.417C137.907 124.019 137.771 124.612 137.51 125.154C137.256 125.666 136.911 126.127 136.492 126.516C135.739 127.206 134.828 127.7 133.838 127.954C133.028 128.16 132.189 128.232 131.355 128.166C130.727 128.12 130.106 128.011 129.5 127.843C129.117 127.738 128.74 127.613 128.371 127.468C128.242 127.419 128.149 127.374 128.086 127.346C128.053 127.334 128.021 127.318 127.992 127.297C128.027 127.303 128.061 127.314 128.093 127.329L128.385 127.433C128.638 127.523 129.017 127.648 129.517 127.78C130.122 127.933 130.739 128.03 131.362 128.068C132.18 128.121 133.001 128.041 133.793 127.832C134.758 127.575 135.645 127.086 136.377 126.408C136.779 126.03 137.109 125.583 137.354 125.088C137.604 124.561 137.732 123.984 137.729 123.4C137.732 123.098 137.697 122.797 137.625 122.504C137.559 122.202 137.451 121.911 137.305 121.639C137.161 121.359 136.978 121.102 136.76 120.875C136.542 120.641 136.288 120.445 136.006 120.295C135.721 120.133 135.413 120.016 135.092 119.947C134.767 119.876 134.434 119.851 134.102 119.874C133.422 119.904 132.768 120.147 132.233 120.569C131.715 121.008 131.385 121.63 131.313 122.306C131.248 122.964 131.368 123.627 131.66 124.22C132.233 125.401 133.303 126.196 134.356 126.766C136.266 127.765 138.393 128.279 140.549 128.263C142.001 128.256 143.443 128.022 144.822 127.568C145.308 127.398 145.68 127.256 145.926 127.141L146.211 127.019L146.288 127.006Z" fill="#263238"/>
<path d="M119.489 154.923L118.318 153.881L108.245 154.364C108.245 157.108 108.481 167.365 108.481 167.365L90.748 183.653L91.7901 191.413C91.7901 191.413 114.421 179.797 117.064 174.938C119.708 170.078 119.489 154.923 119.489 154.923Z" fill="#FFBE9D"/>
<path d="M113.729 172.496C113.698 172.496 113.625 172.055 113.354 171.384C113.008 170.51 112.472 169.724 111.787 169.081C111.101 168.438 110.282 167.954 109.387 167.664C108.693 167.438 108.248 167.393 108.255 167.362C108.36 167.346 108.466 167.346 108.571 167.362C108.86 167.394 109.146 167.451 109.426 167.532C110.354 167.797 111.206 168.281 111.911 168.942C112.615 169.603 113.152 170.422 113.476 171.332C113.574 171.605 113.649 171.885 113.702 172.169C113.727 172.276 113.736 172.386 113.729 172.496Z" fill="#EB996E"/>
<path d="M91.7934 183.75C91.7934 183.75 90.6401 183.031 90.0566 182.972C89.473 182.913 87.8543 182.691 87.8543 182.691H83.9986C83.4867 182.689 82.9922 182.876 82.6091 183.215C81.7824 183.948 80.3999 185.227 80.3582 185.602C80.3677 186.014 80.513 186.413 80.7716 186.734C80.7716 186.734 80.1116 187.95 80.1463 188.759C80.1534 189.068 80.244 189.37 80.4085 189.632C80.573 189.893 80.8053 190.106 81.0807 190.246C81.1085 190.858 81.2255 191.463 81.4281 192.042V192.063C81.5477 192.341 81.7449 192.58 81.9961 192.75C82.2474 192.92 82.5421 193.014 82.8453 193.021C84.867 193.074 89.3063 193.157 90.2198 192.976C91.4078 192.737 95.6942 188.759 95.6942 188.759L91.7934 183.75Z" fill="#FFBE9D"/>
<path d="M80.8101 190.031C81.7972 190.891 82.9316 191.565 84.1586 192.021C85.3951 192.476 86.7474 192.507 88.0039 192.111C88.2484 192.051 88.4766 191.938 88.6723 191.779C88.868 191.621 89.0264 191.421 89.1363 191.194C89.217 190.903 89.1915 190.592 89.0643 190.317C88.937 190.042 88.7164 189.821 88.4416 189.694C88.1645 189.58 87.8663 189.526 87.5668 189.536C87.2673 189.546 86.9735 189.62 86.7048 189.753" fill="#FFBE9D"/>
<path d="M86.6839 189.743C86.7187 189.715 86.7573 189.693 86.7986 189.677C86.9101 189.623 87.0264 189.58 87.1459 189.548C87.6076 189.41 88.1048 189.453 88.5354 189.67C88.8304 189.837 89.0587 190.1 89.1815 190.416C89.2492 190.595 89.2754 190.786 89.2579 190.976C89.2324 191.18 89.1519 191.373 89.0251 191.535C88.7508 191.855 88.3884 192.087 87.9831 192.202C87.5624 192.341 87.1259 192.426 86.6839 192.455C85.831 192.506 84.9764 192.388 84.169 192.108C83.516 191.879 82.8923 191.573 82.3107 191.198C81.9196 190.946 81.5438 190.671 81.1852 190.375C81.0476 190.273 80.9218 190.157 80.8101 190.027C80.9554 190.115 81.0947 190.213 81.2269 190.319C81.4944 190.51 81.8765 190.788 82.3767 191.087C82.9585 191.441 83.5769 191.731 84.2211 191.952C85.0091 192.216 85.8402 192.328 86.67 192.282C87.0978 192.254 87.5203 192.172 87.9275 192.039C88.3051 191.939 88.6448 191.73 88.9036 191.438C89.0103 191.304 89.0799 191.145 89.1055 190.976C89.1311 190.807 89.1118 190.635 89.0495 190.475C88.946 190.186 88.7461 189.941 88.4833 189.781C88.0807 189.57 87.6161 189.511 87.1737 189.614C86.8576 189.69 86.6909 189.77 86.6839 189.743Z" fill="#EB996E"/>
<path d="M84.9924 184.23C84.8192 184.927 84.4589 185.564 83.9503 186.071C84.6589 186.766 85.3363 187.496 85.9823 188.263C86.2455 188.542 86.4614 188.862 86.6215 189.211C86.6989 189.386 86.7357 189.577 86.7291 189.768C86.7225 189.959 86.6726 190.146 86.5833 190.316C86.4237 190.534 86.1998 190.696 85.9431 190.78C85.6864 190.864 85.4098 190.866 85.1521 190.785C84.6428 190.607 84.1765 190.324 83.7835 189.954C82.5817 188.968 81.8175 187.895 80.7754 186.741" fill="#FFBE9D"/>
<path d="M80.7646 186.734C80.7646 186.734 80.8098 186.766 80.8827 186.835C80.9557 186.905 81.053 187.012 81.185 187.155L82.2548 188.36C82.78 188.956 83.3553 189.505 83.9743 190.003C84.3162 190.313 84.7182 190.55 85.1553 190.698C85.3809 190.768 85.6219 190.773 85.85 190.711C86.0782 190.65 86.2842 190.525 86.444 190.35C86.5906 190.15 86.6552 189.902 86.6246 189.656C86.6032 189.416 86.5272 189.184 86.4023 188.978C86.1474 188.583 85.8504 188.216 85.5165 187.884L83.8979 186.106L83.8527 186.057L83.8979 186.015C84.2697 185.654 84.5692 185.225 84.7801 184.751C84.926 184.404 84.9781 184.216 84.992 184.22C84.9921 184.27 84.9851 184.32 84.9712 184.369C84.9356 184.508 84.8927 184.645 84.8427 184.779C84.6512 185.275 84.3591 185.727 83.9847 186.106V186.015L85.6416 187.773C85.988 188.111 86.2955 188.486 86.5586 188.892C86.6962 189.121 86.7805 189.379 86.8053 189.645C86.8325 189.929 86.756 190.213 86.5899 190.444C86.4141 190.661 86.1687 190.811 85.8952 190.868C85.6369 190.926 85.3684 190.918 85.1136 190.847C84.6535 190.693 84.2301 190.446 83.8701 190.121C83.25 189.612 82.678 189.047 82.161 188.433C81.7199 187.912 81.376 187.485 81.119 187.189C80.993 187.044 80.8747 186.892 80.7646 186.734Z" fill="#EB996E"/>
<path d="M86.1179 178.905L85.708 193.393L86.2429 195.609L86.9898 193.299L87.5907 178.926L86.1179 178.905Z" fill="#263238"/>
<path d="M88.8865 183.344C88.7336 183.382 86.9621 182.997 86.382 183.768C85.8019 184.539 84.7251 187.738 84.7251 187.738C84.7251 187.738 85.2253 189.048 86.0729 188.704C86.9204 188.36 88.5426 186.658 88.5426 186.658L90.0432 186.62" fill="#FFBE9D"/>
<path d="M90.0426 186.616C89.9135 186.643 89.782 186.657 89.6501 186.658L88.542 186.714L88.5802 186.696C88.0792 187.237 87.5419 187.743 86.9719 188.211C86.799 188.355 86.6168 188.487 86.4266 188.607C86.3254 188.673 86.2184 188.73 86.107 188.777C85.984 188.828 85.8507 188.849 85.7179 188.839C85.4517 188.799 85.2114 188.657 85.0475 188.443C84.876 188.241 84.7388 188.012 84.6411 187.766V187.738V187.707L84.7036 187.526C85.0128 186.641 85.3219 185.807 85.6415 185.06C85.7888 184.704 85.9558 184.356 86.1417 184.018C86.2234 183.856 86.3314 183.708 86.4613 183.58C86.5933 183.474 86.7442 183.394 86.9059 183.344C87.382 183.22 87.8784 183.194 88.3648 183.268L88.7539 183.32C88.7996 183.322 88.845 183.329 88.8893 183.341C88.7131 183.366 88.5341 183.366 88.3579 183.341C87.8839 183.297 87.406 183.341 86.9476 183.469C86.8043 183.517 86.6712 183.591 86.5551 183.688C86.4402 183.808 86.3442 183.945 86.2702 184.094C86.1035 184.404 85.9507 184.758 85.7944 185.137C85.4887 185.88 85.1795 186.714 84.8738 187.596L84.8148 187.773V187.714C84.9061 187.94 85.0327 188.15 85.1899 188.336C85.3221 188.519 85.5201 188.643 85.7423 188.683C85.9594 188.684 86.1707 188.614 86.3432 188.482C86.5292 188.365 86.709 188.239 86.8816 188.103C87.4509 187.644 87.9937 187.154 88.5072 186.634L88.5246 186.616H89.6535C89.7829 186.603 89.9132 186.603 90.0426 186.616Z" fill="#EB996E"/>
<path d="M86.8892 176.866C86.7645 176.864 86.6441 176.911 86.5543 176.998C86.4645 177.085 86.4126 177.203 86.4099 177.328L86.3682 179.384C86.3672 179.509 86.415 179.628 86.5014 179.718C86.5878 179.808 86.7058 179.86 86.8302 179.864C86.892 179.865 86.9536 179.854 87.0112 179.831C87.0689 179.809 87.1215 179.775 87.1661 179.732C87.2106 179.689 87.2462 179.638 87.2709 179.581C87.2955 179.524 87.3086 179.463 87.3095 179.402L87.3512 177.345C87.3531 177.22 87.3056 177.1 87.219 177.01C87.1325 176.92 87.0139 176.869 86.8892 176.866Z" fill="#263238"/>
<path d="M85.3604 182.361C85.3604 182.361 85.3881 182.361 85.4298 182.417H85.3881C85.3881 182.135 85.4264 181.1 85.5271 179.867C85.5584 179.52 85.5896 179.172 85.6174 178.846C85.632 178.561 85.6739 178.278 85.7425 178.002C85.7795 177.887 85.8542 177.788 85.9543 177.72C86.0324 177.673 86.1236 177.651 86.2149 177.658C86.3677 177.675 86.4094 177.769 86.399 177.769C86.3885 177.769 86.333 177.72 86.2114 177.727C86.1278 177.736 86.0491 177.771 85.9867 177.827C85.9242 177.883 85.8813 177.958 85.864 178.04C85.8169 178.311 85.7902 178.585 85.7841 178.86C85.7598 179.183 85.7355 179.523 85.7077 179.884C85.607 181.114 85.4958 182.146 85.4333 182.42V182.479L85.409 182.434C85.3638 182.392 85.3534 182.365 85.3604 182.361Z" fill="#263238"/>
<path d="M86.2534 196.301C86.2048 196.301 86.1631 196.04 86.1631 195.717C86.1631 195.394 86.2048 195.13 86.2534 195.13C86.302 195.13 86.3437 195.391 86.3437 195.717C86.3437 196.044 86.3055 196.301 86.2534 196.301Z" fill="#263238"/>
<path d="M74.1226 35.5771H13.3066V73.9884H74.1226V35.5771Z" fill="#455A64"/>
<path d="M35.2148 59.9167C35.1627 59.9167 35.1488 55.5052 35.1766 50.0621C35.2044 44.619 35.2739 40.2109 35.3225 40.2109C35.3711 40.2109 35.3885 44.6224 35.3607 50.0656C35.3329 55.5087 35.2635 59.9167 35.2148 59.9167Z" fill="#FAFAFA"/>
<path d="M51.6695 70.0597C51.6209 70.0597 51.5931 67.26 51.6139 63.8072C51.6348 60.3544 51.6904 57.5547 51.739 57.5547C51.7876 57.5547 51.8119 60.3544 51.7946 63.8072C51.7772 67.26 51.7181 70.0597 51.6695 70.0597Z" fill="#FAFAFA"/>
<path d="M68.4505 62.4768C68.4549 62.523 68.4549 62.5695 68.4505 62.6158C68.4505 62.7234 68.4505 62.8589 68.4505 63.0291C68.4505 63.4077 68.4505 63.9322 68.4505 64.5922C68.4505 65.9539 68.4505 67.8679 68.4505 70.15V70.2264H68.3706L61.2879 70.1986L50.8671 70.1153L47.7061 70.0701L46.8446 70.0458C46.7448 70.0451 46.6451 70.0393 46.5459 70.0284C46.6447 70.013 46.7447 70.0072 46.8446 70.0111H47.7061H50.8705L61.2914 70.0423L68.3741 70.0944L68.2942 70.1709C68.3185 67.8887 68.3428 65.9747 68.3567 64.6131C68.3567 63.9531 68.381 63.4286 68.388 63.05C68.388 62.8797 68.388 62.7443 68.388 62.6366C68.4037 62.5815 68.4246 62.528 68.4505 62.4768Z" fill="#FAFAFA"/>
<path d="M40.2098 69.9936C40.2098 70.0457 38.3271 70.0735 36.0067 70.0631C33.6864 70.0527 31.8071 69.9971 31.8071 69.9485C31.8071 69.8998 33.6864 69.8686 36.0067 69.8825C38.3271 69.8964 40.2098 69.945 40.2098 69.9936Z" fill="#FAFAFA"/>
<path d="M32.172 69.9518H31.9149H31.1611H28.2398H17.291V69.8928C17.3119 62.1779 17.3396 51.705 17.3744 39.8044V39.7175H17.4612L31.5988 39.8217L68.2593 40.1205H68.3288V40.1899C68.374 47.0434 68.4122 52.6394 68.4365 56.5159C68.4365 58.4542 68.4538 59.9652 68.4573 60.9969V62.1675C68.4573 61.9035 68.4573 61.5075 68.4365 60.9969C68.4365 59.9548 68.4052 58.4542 68.3774 56.5159C68.3392 52.6289 68.2802 47.033 68.2072 40.1899L68.2767 40.2594L31.6197 40.0024L17.4821 39.8912L17.5689 39.8044C17.5168 51.7084 17.4682 62.1779 17.4334 69.8928L17.3709 69.8303L28.2607 69.8859L31.182 69.9102H31.9358L32.172 69.9518Z" fill="#FAFAFA"/>
<path d="M54.3544 57.5269C54.3968 57.8236 54.4143 58.1234 54.4065 58.423C54.4065 58.9858 54.4065 59.7743 54.4065 60.6774L54.3162 60.5871C54.6186 60.5645 54.9184 60.5157 55.2124 60.4412C55.7129 60.3169 56.1741 60.0684 56.5532 59.7187C56.8562 59.4247 57.093 59.0694 57.2479 58.6766C57.3877 58.3078 57.4912 57.9262 57.5571 57.5373C57.578 57.6439 57.578 57.7537 57.5571 57.8603C57.5323 58.1562 57.4668 58.4473 57.3625 58.7253C57.2087 59.1421 56.9657 59.5203 56.6504 59.8333C56.2547 60.211 55.7675 60.4792 55.2367 60.6114C54.9305 60.6894 54.6177 60.7383 54.3023 60.7573H54.2085V60.6566C54.2085 59.7534 54.2328 58.9684 54.2502 58.4057C54.2609 58.1104 54.2958 57.8165 54.3544 57.5269Z" fill="#FAFAFA"/>
<path d="M54.3857 57.5268C54.3857 57.5499 54.3765 57.572 54.3602 57.5882C54.3439 57.6045 54.3219 57.6137 54.2988 57.6137C54.2758 57.6137 54.2537 57.6045 54.2374 57.5882C54.2211 57.572 54.212 57.5499 54.212 57.5268C54.2115 57.5151 54.2134 57.5035 54.2176 57.4925C54.2217 57.4816 54.228 57.4716 54.2362 57.4632C54.2443 57.4547 54.254 57.448 54.2648 57.4435C54.2755 57.4389 54.2871 57.4365 54.2988 57.4365C54.3222 57.4374 54.3443 57.4473 54.3605 57.4642C54.3766 57.481 54.3857 57.5035 54.3857 57.5268Z" fill="#FAFAFA"/>
<path d="M55.5737 57.5336C55.5737 57.5823 55.4834 57.624 55.3723 57.624C55.2611 57.624 55.1777 57.5823 55.1777 57.5302C55.1777 57.4781 55.2646 57.4399 55.3757 57.4433C55.4869 57.4468 55.5737 57.485 55.5737 57.5336Z" fill="#FAFAFA"/>
<path d="M56.7583 57.5408C56.7583 57.5894 56.668 57.6311 56.5603 57.6311C56.4526 57.6311 56.3623 57.5894 56.3623 57.5373C56.3623 57.4852 56.4526 57.447 56.5603 57.447C56.668 57.447 56.7583 57.4887 56.7583 57.5408Z" fill="#FAFAFA"/>
<path d="M57.7102 57.5442C57.7096 57.5612 57.7039 57.5776 57.6939 57.5914C57.684 57.6052 57.6702 57.6158 57.6543 57.6219C57.6384 57.6279 57.621 57.6292 57.6044 57.6254C57.5878 57.6217 57.5727 57.6132 57.5609 57.6009C57.5491 57.5886 57.5411 57.5731 57.5381 57.5564C57.535 57.5397 57.5369 57.5224 57.5435 57.5067C57.5502 57.491 57.5613 57.4777 57.5755 57.4683C57.5897 57.4589 57.6064 57.4539 57.6234 57.4539C57.6467 57.4548 57.6688 57.4647 57.685 57.4815C57.7012 57.4983 57.7103 57.5208 57.7102 57.5442Z" fill="#FAFAFA"/>
<path d="M37.3546 57.4818C37.3121 57.1839 37.2947 56.8829 37.3025 56.5821C37.3025 56.0228 37.2852 55.2343 37.2852 54.3312V54.2305H37.3789C37.6935 54.2532 38.0052 54.3055 38.3099 54.3868C38.8335 54.5267 39.3121 54.7995 39.6993 55.1788C40.0097 55.4964 40.2469 55.8782 40.394 56.2973C40.4942 56.5759 40.5561 56.8669 40.5781 57.1622C40.598 57.269 40.598 57.3785 40.5781 57.4852C40.5156 57.0959 40.4168 56.7133 40.2829 56.3424C40.1255 55.9509 39.889 55.5962 39.5882 55.3003C39.2101 54.9481 38.7506 54.6951 38.2508 54.5639C37.9584 54.4858 37.6597 54.4335 37.3581 54.4076L37.4519 54.3208C37.4519 55.2239 37.4241 56.0124 37.4067 56.5717C37.4171 56.876 37.3996 57.1806 37.3546 57.4818Z" fill="#FAFAFA"/>
<path d="M37.3862 57.4817C37.3866 57.4933 37.3847 57.5048 37.3805 57.5155C37.3763 57.5263 37.37 57.5361 37.3618 57.5442C37.3536 57.5524 37.3439 57.5588 37.3331 57.563C37.3224 57.5671 37.3108 57.5691 37.2993 57.5686C37.2876 57.5686 37.276 57.5662 37.2653 57.5616C37.2545 57.5571 37.2448 57.5503 37.2366 57.5419C37.2285 57.5335 37.2222 57.5235 37.2181 57.5125C37.2139 57.5016 37.212 57.4899 37.2125 57.4783C37.2125 57.4549 37.2215 57.4324 37.2377 57.4156C37.2539 57.3987 37.276 57.3888 37.2993 57.3879C37.3112 57.3884 37.3228 57.3912 37.3336 57.3961C37.3444 57.4011 37.3541 57.4081 37.3622 57.4168C37.3702 57.4255 37.3765 57.4358 37.3806 57.4469C37.3847 57.458 37.3866 57.4699 37.3862 57.4817Z" fill="#FAFAFA"/>
<path d="M38.5742 57.4851C38.5742 57.5372 38.4839 57.5754 38.3762 57.5754C38.2685 57.5754 38.1782 57.5337 38.1782 57.4851C38.1782 57.4365 38.2685 57.3948 38.3762 57.3948C38.4839 57.3948 38.5742 57.4365 38.5742 57.4851Z" fill="#FAFAFA"/>
<path d="M39.7583 57.4922C39.7583 57.5443 39.6715 57.5825 39.5603 57.5825C39.4491 57.5825 39.3623 57.5408 39.3623 57.4922C39.3623 57.4435 39.4526 57.4019 39.5638 57.4019C39.6749 57.4019 39.7583 57.4435 39.7583 57.4922Z" fill="#FAFAFA"/>
<path d="M40.724 57.499C40.724 57.522 40.7149 57.5441 40.6986 57.5604C40.6823 57.5767 40.6602 57.5858 40.6372 57.5858C40.6142 57.5858 40.5921 57.5767 40.5758 57.5604C40.5595 57.5441 40.5504 57.522 40.5504 57.499C40.5499 57.4873 40.5518 57.4756 40.5559 57.4647C40.5601 57.4538 40.5664 57.4438 40.5745 57.4353C40.5826 57.4269 40.5924 57.4202 40.6031 57.4156C40.6139 57.411 40.6255 57.4087 40.6372 57.4087C40.6605 57.4096 40.6826 57.4195 40.6988 57.4363C40.715 57.4532 40.7241 57.4756 40.724 57.499Z" fill="#FAFAFA"/>
<path d="M32.0747 53.1536C32.032 52.8568 32.0146 52.557 32.0226 52.2574C32.0226 51.6946 32.0052 50.9096 32.0052 50.0065L32.099 50.0933C31.7954 50.1159 31.4944 50.1647 31.1993 50.2392C30.6987 50.3635 30.2376 50.612 29.8585 50.9617C29.5562 51.2563 29.3195 51.6114 29.1638 52.0038C29.0239 52.3724 28.9215 52.7541 28.8581 53.1431C28.8357 53.0366 28.8357 52.9266 28.8581 52.8201C28.8841 52.5252 28.9508 52.2353 29.0561 51.9586C29.2043 51.5421 29.4413 51.1628 29.7508 50.8471C30.1463 50.4697 30.6337 50.2026 31.1646 50.0725C31.4711 49.9953 31.7837 49.9453 32.099 49.9231H32.1928V50.0238C32.1928 50.927 32.165 51.712 32.1476 52.2747C32.1496 52.5693 32.1251 52.8634 32.0747 53.1536Z" fill="#FAFAFA"/>
<path d="M32.0435 53.1535C32.0434 53.1302 32.0525 53.1077 32.0687 53.0909C32.0849 53.074 32.107 53.0641 32.1303 53.0632C32.1536 53.0641 32.1757 53.074 32.1919 53.0909C32.2081 53.1077 32.2172 53.1302 32.2171 53.1535C32.2171 53.1766 32.208 53.1987 32.1917 53.2149C32.1754 53.2312 32.1533 53.2404 32.1303 53.2404C32.1073 53.2404 32.0852 53.2312 32.0689 53.2149C32.0526 53.1987 32.0435 53.1766 32.0435 53.1535Z" fill="#FAFAFA"/>
<path d="M30.8589 53.1466C30.8589 53.098 30.9457 53.0563 31.0569 53.0598C31.168 53.0632 31.2549 53.1015 31.2549 53.1501C31.2549 53.1987 31.1646 53.2404 31.0534 53.2404C30.9423 53.2404 30.8589 53.1987 30.8589 53.1466Z" fill="#FAFAFA"/>
<path d="M29.6709 53.1396C29.6709 53.0909 29.7612 53.0527 29.8689 53.0527C29.9766 53.0527 30.0669 53.0944 30.0669 53.1431C30.0669 53.1917 29.9766 53.2334 29.8689 53.2334C29.7612 53.2334 29.6709 53.1917 29.6709 53.1396Z" fill="#FAFAFA"/>
<path d="M28.7051 53.1362C28.7051 53.1123 28.7146 53.0893 28.7315 53.0723C28.7485 53.0554 28.7714 53.0459 28.7954 53.0459C28.8193 53.0459 28.8423 53.0554 28.8593 53.0723C28.8762 53.0893 28.8857 53.1123 28.8857 53.1362C28.8857 53.1602 28.8762 53.1831 28.8593 53.2001C28.8423 53.217 28.8193 53.2265 28.7954 53.2265C28.7714 53.2265 28.7485 53.217 28.7315 53.2001C28.7146 53.1831 28.7051 53.1602 28.7051 53.1362Z" fill="#FAFAFA"/>
<path d="M26.8367 61.0665C26.54 61.1091 26.2402 61.1266 25.9405 61.1186C25.3778 61.1186 24.5927 61.136 23.6896 61.136H23.5889V61.0422C23.6148 60.7278 23.6682 60.4163 23.7487 60.1112C23.8877 59.5873 24.1606 59.1084 24.5406 58.7218C24.8564 58.4107 25.2372 58.1735 25.6557 58.0271C25.9338 57.9244 26.2249 57.8613 26.5206 57.8395C26.6273 57.8191 26.7369 57.8191 26.8436 57.8395C26.4544 57.9025 26.0718 58.0013 25.7008 58.1348C25.3091 58.2917 24.9543 58.5283 24.6587 58.8295C24.3065 59.2075 24.0535 59.667 23.9223 60.1668C23.8442 60.4604 23.7919 60.7603 23.766 61.063L23.6792 60.9692C24.5823 60.9692 25.3674 60.9935 25.9301 61.0109C26.2333 61.0038 26.5366 61.0224 26.8367 61.0665Z" fill="#FAFAFA"/>
<path d="M26.8363 61.0318C26.848 61.0313 26.8597 61.0332 26.8706 61.0374C26.8816 61.0415 26.8916 61.0479 26.9 61.056C26.9084 61.0641 26.9152 61.0738 26.9197 61.0846C26.9243 61.0954 26.9267 61.1069 26.9267 61.1186C26.9274 61.1366 26.9226 61.1544 26.9132 61.1697C26.9037 61.185 26.8898 61.1972 26.8734 61.2045C26.8569 61.2119 26.8387 61.2142 26.8209 61.2111C26.8032 61.208 26.7868 61.1997 26.7738 61.1872C26.7608 61.1747 26.7519 61.1587 26.7481 61.1411C26.7443 61.1235 26.7459 61.1051 26.7526 61.0884C26.7593 61.0717 26.7709 61.0574 26.7858 61.0473C26.8007 61.0372 26.8183 61.0318 26.8363 61.0318Z" fill="#FAFAFA"/>
<path d="M26.8432 59.8438C26.8953 59.8438 26.9336 59.9341 26.9336 60.0417C26.9336 60.1494 26.8919 60.2397 26.8432 60.2397C26.7946 60.2397 26.7529 60.1529 26.7529 60.0417C26.7529 59.9306 26.7946 59.8438 26.8432 59.8438Z" fill="#FAFAFA"/>
<path d="M26.8501 58.6592C26.8987 58.6592 26.9404 58.746 26.9404 58.8572C26.9404 58.9683 26.8987 59.0552 26.8466 59.0552C26.7945 59.0552 26.7598 58.9649 26.7598 58.8572C26.7598 58.7495 26.7945 58.6592 26.8501 58.6592Z" fill="#FAFAFA"/>
<path d="M26.8575 57.6936C26.8808 57.6936 26.9033 57.7026 26.9201 57.7188C26.937 57.735 26.9469 57.7571 26.9478 57.7804C26.946 57.8041 26.9354 57.8262 26.918 57.8423C26.9006 57.8584 26.8777 57.8673 26.854 57.8673C26.8306 57.8673 26.8082 57.8583 26.7913 57.8421C26.7745 57.8259 26.7646 57.8038 26.7637 57.7804C26.7654 57.7568 26.7761 57.7347 26.7935 57.7186C26.8109 57.7025 26.8337 57.6935 26.8575 57.6936Z" fill="#FAFAFA"/>
<path d="M32.0679 62.9596C32.1104 63.2575 32.1278 63.5584 32.12 63.8592C32.12 64.4185 32.12 65.207 32.12 66.1102V66.2074H32.0262C31.7117 66.1844 31.4 66.1321 31.0953 66.0511C30.5716 65.9112 30.093 65.6384 29.7058 65.2591C29.3938 64.9427 29.1565 64.5605 29.0111 64.1406C28.9084 63.8625 28.8453 63.5713 28.8235 63.2757C28.7997 63.1693 28.7997 63.059 28.8235 62.9526C28.8815 63.3425 28.9792 63.7255 29.1153 64.0955C29.2867 64.5334 29.5607 64.9238 29.9143 65.2339C30.2679 65.544 30.6908 65.7647 31.1474 65.8774C31.441 65.9556 31.7408 66.0079 32.0435 66.0337L31.9498 66.1206C31.9498 65.2174 31.9741 64.4289 31.9914 63.8697C31.9914 63.5647 32.017 63.2603 32.0679 62.9596Z" fill="#FAFAFA"/>
<path d="M32.0367 62.9595C32.0367 62.9361 32.0457 62.9136 32.0619 62.8968C32.0781 62.8799 32.1002 62.87 32.1235 62.8691C32.1354 62.8696 32.1471 62.8724 32.1578 62.8773C32.1686 62.8823 32.1783 62.8893 32.1864 62.898C32.1945 62.9067 32.2007 62.917 32.2048 62.9281C32.209 62.9392 32.2108 62.9511 32.2104 62.9629C32.2109 62.9745 32.209 62.986 32.2048 62.9967C32.2006 63.0075 32.1942 63.0173 32.186 63.0254C32.1779 63.0336 32.1681 63.04 32.1573 63.0442C32.1466 63.0483 32.1351 63.0503 32.1235 63.0498C32.1118 63.0498 32.1002 63.0474 32.0895 63.0428C32.0787 63.0383 32.069 63.0316 32.0609 63.0231C32.0528 63.0147 32.0464 63.0047 32.0423 62.9938C32.0381 62.9828 32.0362 62.9711 32.0367 62.9595Z" fill="#FAFAFA"/>
<path d="M30.8517 62.9526C30.8517 62.9039 30.9385 62.8657 31.0497 62.8657C31.1608 62.8657 31.2477 62.9074 31.2442 62.956C31.2407 63.0047 31.1573 63.0464 31.0462 63.0464C30.935 63.0464 30.8482 63.0047 30.8517 62.9526Z" fill="#FAFAFA"/>
<path d="M29.6636 62.9492C29.6636 62.8971 29.7539 62.8589 29.8616 62.8589C29.9693 62.8589 30.0596 62.9006 30.0596 62.9492C30.0596 62.9978 29.9693 63.0395 29.8616 63.0395C29.7539 63.0395 29.6636 62.9978 29.6636 62.9492Z" fill="#FAFAFA"/>
<path d="M28.6982 62.9421C28.6982 62.9188 28.7073 62.8963 28.7235 62.8795C28.7396 62.8626 28.7617 62.8527 28.7851 62.8518C28.8084 62.8527 28.8305 62.8626 28.8467 62.8795C28.8629 62.8963 28.8719 62.9188 28.8719 62.9421C28.8724 62.9538 28.8705 62.9655 28.8663 62.9764C28.8622 62.9874 28.8559 62.9974 28.8478 63.0058C28.8396 63.0142 28.8299 63.0209 28.8191 63.0255C28.8084 63.0301 28.7968 63.0324 28.7851 63.0324C28.7617 63.0315 28.7396 63.0216 28.7235 63.0048C28.7073 62.9879 28.6982 62.9655 28.6982 62.9421Z" fill="#FAFAFA"/>
<path d="M40.1267 69.9937C40.0796 69.6974 40.0621 69.3972 40.0746 69.0975C40.0746 68.5348 40.0537 67.7497 40.0537 66.8466V66.7458H40.1475C40.4653 66.7717 40.7803 66.8252 41.0888 66.9056C41.6125 67.0456 42.0911 67.3184 42.4783 67.6976C42.7901 68.0128 43.0275 68.3938 43.173 68.8126C43.2774 69.0903 43.3406 69.3817 43.3606 69.6776C43.3606 69.886 43.3606 70.0041 43.3606 70.0006C43.3018 69.6105 43.2029 69.2275 43.0653 68.8578C42.9084 68.4661 42.6719 68.1112 42.3706 67.8157C41.9916 67.463 41.5308 67.21 41.0298 67.0793C40.7338 67.0012 40.4317 66.9489 40.1267 66.923L40.2204 66.8362C40.2204 67.7393 40.1961 68.5278 40.1753 69.0871C40.1855 69.3901 40.1692 69.6935 40.1267 69.9937Z" fill="#FAFAFA"/>
<path d="M46.6325 70.0317C46.59 69.7338 46.5726 69.4329 46.5804 69.1321C46.5804 68.5728 46.5596 67.7843 46.5631 66.8812L46.6534 66.968C46.3477 66.9923 46.0446 67.041 45.7467 67.1139C45.2453 67.2412 44.7826 67.4892 44.399 67.8364C44.0912 68.13 43.8485 68.485 43.6869 68.8785C43.5476 69.2475 43.4441 69.629 43.3777 70.0178C43.3565 69.9112 43.3565 69.8014 43.3777 69.6948C43.4023 69.3985 43.469 69.1073 43.5757 68.8299C43.7309 68.4129 43.9751 68.0347 44.2913 67.7218C44.6895 67.3464 45.1775 67.0796 45.7085 66.9472C46.0172 66.8697 46.3323 66.8208 46.6499 66.8013H46.7437V66.8985C46.7437 67.8017 46.7194 68.5902 46.702 69.1529C46.7027 69.4472 46.6795 69.7412 46.6325 70.0317Z" fill="#FAFAFA"/>
<path d="M40.1546 69.9936C40.1551 70.0053 40.1532 70.017 40.1491 70.0279C40.1449 70.0389 40.1386 70.0489 40.1305 70.0573C40.1224 70.0657 40.1126 70.0724 40.1019 70.077C40.0911 70.0816 40.0795 70.084 40.0678 70.0839C40.0445 70.083 40.0224 70.0731 40.0062 70.0563C39.99 70.0395 39.9809 70.017 39.981 69.9936C39.9809 69.9703 39.99 69.9478 40.0062 69.931C40.0224 69.9141 40.0445 69.9042 40.0678 69.9033C40.0911 69.9042 40.1132 69.9141 40.1294 69.931C40.1456 69.9478 40.1547 69.9703 40.1546 69.9936Z" fill="#FAFAFA"/>
<path d="M41.1406 70.0004C41.1406 70.0491 41.0677 70.0908 40.9773 70.0908C40.887 70.0908 40.8106 70.0491 40.8141 69.997C40.8176 69.9449 40.887 69.9067 40.9773 69.9101C41.0677 69.9136 41.1406 69.9518 41.1406 70.0004Z" fill="#FAFAFA"/>
<path d="M42.1273 70.0074C42.1273 70.056 42.0544 70.0942 41.964 70.0942C41.8737 70.0942 41.8008 70.0525 41.8008 70.0039C41.8008 69.9553 41.8737 69.9136 41.964 69.9136C42.0544 69.9136 42.1273 69.9553 42.1273 70.0074Z" fill="#FAFAFA"/>
<path d="M43.121 70.011C43.121 70.0596 43.048 70.1013 42.9577 70.1013C42.8674 70.1013 42.7944 70.0596 42.7944 70.011C42.7944 69.9623 42.8674 69.9207 42.9577 69.9207C43.048 69.9207 43.121 69.9623 43.121 70.011Z" fill="#FAFAFA"/>
<path d="M44.1034 70.0179C44.1034 70.0665 44.027 70.1082 43.9367 70.1047C43.8464 70.1012 43.7734 70.0665 43.7734 70.0144C43.7734 69.9623 43.8464 69.9241 43.9367 69.9241C44.027 69.9241 44.1034 69.9658 44.1034 70.0179Z" fill="#FAFAFA"/>
<path d="M45.0902 70.0215C45.0902 70.0736 45.0138 70.1118 44.9235 70.1118C44.8332 70.1118 44.7603 70.0701 44.7603 70.0215C44.7603 69.9728 44.8332 69.9312 44.927 69.9312C45.0208 69.9312 45.0902 69.9728 45.0902 70.0215Z" fill="#FAFAFA"/>
<path d="M46.0771 70.0284C46.0771 70.077 46.0006 70.1187 45.9103 70.1187C45.82 70.1187 45.7471 70.077 45.7471 70.0249C45.7471 69.9728 45.82 69.9346 45.9138 69.9346C46.0076 69.9346 46.0771 69.9762 46.0771 70.0284Z" fill="#FAFAFA"/>
<path d="M46.907 70.0317C46.9063 70.0487 46.9007 70.0652 46.8907 70.079C46.8808 70.0928 46.867 70.1034 46.8511 70.1094C46.8351 70.1155 46.8178 70.1167 46.8012 70.113C46.7846 70.1092 46.7694 70.1007 46.7576 70.0884C46.7458 70.0762 46.7379 70.0607 46.7348 70.044C46.7318 70.0272 46.7337 70.0099 46.7403 69.9943C46.747 69.9786 46.7581 69.9652 46.7723 69.9558C46.7865 69.9464 46.8031 69.9414 46.8202 69.9414C46.8435 69.9423 46.8656 69.9522 46.8818 69.9691C46.898 69.9859 46.907 70.0084 46.907 70.0317Z" fill="#FAFAFA"/>
<path d="M40.4912 57.4991C40.4912 57.447 43.5966 57.4227 47.4211 57.447C51.2455 57.4713 54.3683 57.5234 54.3683 57.5755C54.3683 57.6276 51.2664 57.6484 47.4211 57.6276C43.5758 57.6068 40.4912 57.5477 40.4912 57.4991Z" fill="#FAFAFA"/>
<path d="M57.4946 57.5928C57.4946 57.5407 59.9053 57.5129 62.8718 57.5303C65.8382 57.5477 68.2489 57.5998 68.2489 57.6519C68.2489 57.704 65.8417 57.7283 62.8718 57.7109C59.9018 57.6936 57.4946 57.6415 57.4946 57.5928Z" fill="#FAFAFA"/>
<path d="M35.2285 57.4677C35.5746 57.3814 35.9326 57.3532 36.288 57.3843C36.6383 57.3575 36.9907 57.3904 37.3301 57.4816C36.9895 57.5656 36.6376 57.5938 36.288 57.5649C35.9319 57.5937 35.5734 57.5608 35.2285 57.4677Z" fill="#FAFAFA"/>
<path d="M32.0366 53.2127C32.5683 53.1283 33.1075 53.1015 33.6449 53.1328C34.1819 53.1036 34.7205 53.1374 35.2497 53.2335C34.7192 53.3178 34.1812 53.3446 33.6449 53.3134C33.1067 53.3423 32.567 53.3085 32.0366 53.2127Z" fill="#FAFAFA"/>
<path d="M17.0059 53.1327C17.0059 53.0806 19.6666 53.0563 22.9492 53.0737C26.2318 53.091 28.8926 53.1466 28.8891 53.1952C28.8856 53.2439 26.2318 53.2717 22.9457 53.2543C19.6597 53.2369 17.0059 53.1814 17.0059 53.1327Z" fill="#FAFAFA"/>
<path d="M31.981 62.963C32.2791 62.9231 32.58 62.908 32.8806 62.9178C33.4503 62.9178 34.2527 62.897 35.1975 62.897H35.2809V62.9803C35.2809 63.5882 35.2809 64.2517 35.2809 64.9464C35.2809 66.3775 35.2566 67.6732 35.2323 68.6076C35.2323 69.0487 35.2079 69.4169 35.1975 69.7191C35.2027 69.8557 35.1899 69.9924 35.1593 70.1256C35.136 69.9914 35.1255 69.8553 35.1281 69.7191C35.1281 69.4169 35.1281 69.0453 35.1037 68.6076C35.1037 67.6697 35.1037 66.3741 35.1037 64.9464C35.1037 64.2517 35.1037 63.5882 35.1037 62.9803L35.1871 63.0637C34.2423 63.0637 33.4503 63.0359 32.8702 63.0185C32.5728 63.0219 32.2756 63.0033 31.981 62.963Z" fill="#FAFAFA"/>
<path d="M25.308 69.9137C25.2804 69.7777 25.2699 69.6389 25.2768 69.5003C25.2768 69.1981 25.2768 68.8229 25.2524 68.3783C25.2524 67.43 25.2524 66.1205 25.2524 64.6755C25.2524 64.0571 25.2524 63.4701 25.2698 62.9386V62.8518H25.3532C26.3744 62.8518 27.2463 62.8796 27.8646 62.897C28.1922 62.8905 28.5197 62.9103 28.8442 62.956C28.5179 62.9937 28.1895 63.0088 27.8611 63.0012C27.2463 63.0012 26.3709 63.022 25.3532 63.022L25.44 62.9352C25.44 63.4805 25.44 64.071 25.44 64.672C25.44 66.117 25.4157 67.4266 25.3949 68.3749C25.3949 68.8195 25.3705 69.1946 25.3601 69.4968C25.3591 69.6373 25.3416 69.7772 25.308 69.9137Z" fill="#FAFAFA"/>
<path d="M26.8363 61.0664C26.9262 61.3692 26.9557 61.6867 26.9231 62.0008C26.9513 62.3156 26.9183 62.6329 26.8259 62.9352C26.7078 62.3179 26.7078 61.6837 26.8259 61.0664H26.8363Z" fill="#FAFAFA"/>
<path d="M26.8816 53.1848C26.9658 53.9715 26.9913 54.7634 26.958 55.5538C26.9851 56.345 26.9503 57.1371 26.8538 57.9228C26.7695 57.1361 26.744 56.3443 26.7774 55.5538C26.7502 54.7626 26.7851 53.9706 26.8816 53.1848Z" fill="#FAFAFA"/>
<path d="M70.1072 38.6824C69.8532 39.0145 69.5525 39.3082 69.2144 39.5543C68.9131 39.8442 68.5729 40.0909 68.2036 40.2872C68.4588 39.9561 68.7593 39.6626 69.0963 39.4153C69.3977 39.1254 69.7379 38.8787 70.1072 38.6824Z" fill="#FAFAFA"/>
<path d="M71.0972 38.9153C71.0972 38.9674 58.759 39.0056 43.5411 39.0056C28.3232 39.0056 15.9814 38.9674 15.9814 38.9153C15.9814 38.8632 28.3197 38.825 43.5411 38.825C58.7624 38.825 71.0972 38.8666 71.0972 38.9153Z" fill="#FAFAFA"/>
<path d="M17.6697 39.9607C17.3635 39.6891 17.1 39.3729 16.8881 39.0228C16.6272 38.7078 16.4131 38.3568 16.2524 37.9807C16.5591 38.2505 16.8227 38.5656 17.034 38.9151C17.2962 39.2305 17.5104 39.5828 17.6697 39.9607Z" fill="#FAFAFA"/>
<path d="M69.9303 57.5336C69.8782 57.5336 69.8087 53.4 69.7705 48.3008C69.7323 43.2015 69.7427 39.0645 69.7948 39.0645C69.8469 39.0645 69.9129 43.1981 69.9511 48.2973C69.9893 53.3966 69.9789 57.5336 69.9303 57.5336Z" fill="#FAFAFA"/>
<path d="M71.702 57.6101C70.4892 57.7305 69.2675 57.7305 68.0547 57.6101C69.2675 57.4897 70.4892 57.4897 71.702 57.6101Z" fill="#FAFAFA"/>
<path d="M70.7501 56.1201C70.5233 56.568 70.2446 56.9877 69.9199 57.3706C69.641 57.7879 69.3146 58.1714 68.9473 58.5134C69.1704 58.0642 69.4481 57.6442 69.774 57.2629C70.0535 56.8451 70.3811 56.4615 70.7501 56.1201Z" fill="#FAFAFA"/>
<path d="M16.0474 37.022C15.5314 36.4185 15.1098 35.7404 14.7969 35.0107C15.0763 35.2915 15.3106 35.6137 15.4916 35.966C15.7316 36.2863 15.9192 36.6428 16.0474 37.022Z" fill="#263238"/>
<path d="M15.2172 34.6218C15.2172 34.7449 15.1806 34.8653 15.1122 34.9676C15.0437 35.0699 14.9464 35.1496 14.8325 35.1966C14.7187 35.2435 14.5935 35.2556 14.4728 35.2313C14.3521 35.2071 14.2413 35.1475 14.1545 35.0602C14.0677 34.9729 14.0088 34.8618 13.9852 34.7409C13.9616 34.6201 13.9744 34.495 14.022 34.3814C14.0696 34.2679 14.1498 34.171 14.2525 34.1031C14.3552 34.0352 14.4758 33.9993 14.5989 34C14.6804 34 14.7611 34.0161 14.8363 34.0474C14.9115 34.0787 14.9799 34.1245 15.0373 34.1823C15.0948 34.2401 15.1403 34.3087 15.1711 34.3841C15.202 34.4595 15.2176 34.5403 15.2172 34.6218Z" fill="#FFC100"/>
<path d="M71.0522 37.4458C71.1508 37.0611 71.3066 36.6935 71.5142 36.3551C71.6697 35.9881 71.8806 35.6472 72.1395 35.3442C72.0405 35.7293 71.8836 36.0971 71.674 36.435C71.5207 36.8022 71.3109 37.1433 71.0522 37.4458Z" fill="#263238"/>
<path d="M72.6881 35.5042C72.5825 35.5674 72.4605 35.5978 72.3376 35.5916C72.2147 35.5855 72.0964 35.5429 71.9977 35.4695C71.8989 35.396 71.8242 35.2949 71.783 35.1789C71.7418 35.063 71.7359 34.9374 71.7661 34.8181C71.7963 34.6988 71.8612 34.5912 71.9526 34.5088C72.044 34.4264 72.1578 34.373 72.2796 34.3553C72.4014 34.3377 72.5257 34.3565 72.6367 34.4096C72.7478 34.4626 72.8406 34.5474 72.9035 34.6532C72.9455 34.7231 72.9733 34.8007 72.9853 34.8814C72.9972 34.9621 72.993 35.0444 72.973 35.1235C72.953 35.2027 72.9175 35.277 72.8686 35.3424C72.8197 35.4077 72.7584 35.4627 72.6881 35.5042Z" fill="#FFC100"/>
</g>
<defs>
<clipPath id="clip0_171_19518">
<rect width="210" height="210" fill="white"/>
</clipPath>
</defs>
</svg>
