<svg width="121" height="120" viewBox="0 0 121 120" fill="none" xmlns="http://www.w3.org/2000/svg">
<g clip-path="url(#clip0_896_38199)">
<path opacity="0.5" d="M120.5 108.857C120.5 108.891 82.7843 108.785 39.7084 108.785C-3.36749 108.785 0.942101 108.891 0.942101 108.857C0.942101 108.823 -3.38371 108.659 39.7084 108.659C82.8005 108.659 120.5 108.82 120.5 108.857Z" fill="#263238"/>
<g clip-path="url(#clip1_896_38199)">
<path d="M107.472 59.3569C106.849 47.1175 101.743 34.9101 92.5409 26.6563C78.075 13.6775 49.8945 13.956 35.0458 26.1634C29.8959 30.3975 26.864 35.9922 25.6797 42.4826C24.4133 49.4299 26.0685 56.9764 23.3432 63.6652C21.0007 69.4102 15.2275 72.9329 13.0874 78.7461C10.5325 85.6854 11.8971 94.5043 17.4438 99.6601C24.5476 106.267 37.226 108.814 46.5681 109.775C75.1012 112.717 105.183 96.1414 107.412 65.1661C107.55 63.2324 107.568 61.2886 107.47 59.3529L107.472 59.3569Z" fill="#FFECB2"/>
<path d="M88.54 64.0692V46.9252H91.0168V45.1567H98.4494V46.5715H100.396V75.9101H105.706V81.0353H109.067" stroke="#263238" stroke-width="0.5" stroke-miterlimit="10"/>
<path d="M64.4738 66.365V53.1115H69.6055V56.2925H72.0823V51.6968H77.5682V71.4902H82.1699V78.5596H85.8851V67.604H88.54V65.3061" stroke="#263238" stroke-width="0.5" stroke-miterlimit="10"/>
<path d="M45.1851 57.5293V81.0353H48.192V67.2502H52.4395V78.9132H64.4737V68.4871" stroke="#263238" stroke-width="0.5" stroke-miterlimit="10"/>
<path d="M35.8058 74.8492V45.8643H45.1851V55.5852" stroke="#263238" stroke-width="0.5" stroke-miterlimit="10"/>
<path d="M17.5796 66.3648V69.7238H20.2324V54.5239H30.85V78.03H35.8058V75.7321" stroke="#263238" stroke-width="0.5" stroke-miterlimit="10"/>
<path d="M6.07544 81.0352H9.9688V59.1196H17.5796V64.5985" stroke="#263238" stroke-width="0.5" stroke-miterlimit="10"/>
<path d="M100.75 32.079C100.75 32.079 99.3336 29.2516 96.6808 29.6053C94.0259 29.959 93.6717 32.6106 92.9656 32.7863C92.2595 32.9621 90.6648 31.9032 89.6024 32.4326C88.5399 32.9621 87.8339 34.1989 87.8339 34.1989C87.8339 34.1989 86.4173 33.6695 85.3571 34.1989C84.2968 34.7283 83.7645 35.7894 83.7645 35.7894H105.884C105.884 35.7894 105.708 32.9621 104.116 32.4304C102.523 31.901 101.461 33.4915 100.752 32.0768L100.75 32.079Z" stroke="#263238" stroke-width="0.5" stroke-miterlimit="10"/>
<path d="M70.3071 42.237C70.3071 42.237 69.2601 40.1478 67.298 40.407C65.336 40.6685 65.0742 42.628 64.5507 42.7576C64.0272 42.8873 62.8504 42.1052 62.0651 42.4962C61.2798 42.8873 60.7563 43.8033 60.7563 43.8033C60.7563 43.8033 59.7093 43.4123 58.924 43.8033C58.1387 44.1944 57.7472 44.9786 57.7472 44.9786H74.0993C74.0993 44.9786 73.9695 42.8873 72.7905 42.4962C71.6137 42.1052 70.8285 43.2805 70.3049 42.2348L70.3071 42.237Z" stroke="#263238" stroke-width="0.5" stroke-miterlimit="10"/>
<path d="M14.9092 34.7108C14.9092 34.7108 14.0249 32.9467 12.3686 33.1664C10.7122 33.3861 10.4901 35.0425 10.048 35.1523C9.60582 35.2622 8.61159 34.6009 7.94949 34.9326C7.2874 35.2644 6.84527 36.0355 6.84527 36.0355C6.84527 36.0355 5.96102 35.7037 5.29893 36.0355C4.63683 36.3672 4.30469 37.0284 4.30469 37.0284H18.1118C18.1118 37.0284 18.0019 35.2644 17.0076 34.9326C16.0134 34.6009 15.3513 35.5939 14.9092 34.713V34.7108Z" stroke="#263238" stroke-width="0.5" stroke-miterlimit="10"/>
<path d="M70.7537 24.7434L56.7178 13.957L81.2636 24.8313" stroke="#263238" stroke-width="0.5" stroke-linecap="round" stroke-linejoin="round"/>
<path d="M22.2076 76.7952V30.5015" stroke="#263238" stroke-width="0.5" stroke-linecap="round" stroke-linejoin="round"/>
<path d="M25.2893 76.7952V30.5015" stroke="#263238" stroke-width="0.5" stroke-linecap="round" stroke-linejoin="round"/>
<path d="M27.6627 25.3916H19.6516V29.3437H27.6627V25.3916Z" fill="#263238" stroke="#263238" stroke-width="0.5" stroke-linecap="round" stroke-linejoin="round"/>
<path d="M26.862 31.657H20.4523L19.6516 29.3438H27.6627L26.862 31.657Z" fill="#263238" stroke="#263238" stroke-width="0.5" stroke-linecap="round" stroke-linejoin="round"/>
<path d="M15.5339 21.8634L56.7178 13.957L39.1559 21.8634" stroke="#263238" stroke-width="0.5" stroke-linecap="round" stroke-linejoin="round"/>
<path d="M54.3334 25.2291L58.1981 22.07L55.7257 19.4756L57.2721 16.9756" stroke="#263238" stroke-width="0.5" stroke-linecap="round" stroke-linejoin="round"/>
<path d="M59.155 104.225H54.3334V25.2289L56.7178 13.957L59.155 25.2289V104.225Z" stroke="#263238" stroke-width="0.5" stroke-linecap="round" stroke-linejoin="round"/>
<path d="M59.155 38.3311L54.3663 43.1135H58.8118" stroke="#263238" stroke-width="0.5" stroke-linecap="round" stroke-linejoin="round"/>
<path d="M59.155 33.9634L54.3663 38.7459H58.8118" stroke="#263238" stroke-width="0.5" stroke-linecap="round" stroke-linejoin="round"/>
<path d="M59.155 29.5962L54.3663 34.3765H58.8118" stroke="#263238" stroke-width="0.5" stroke-linecap="round" stroke-linejoin="round"/>
<path d="M59.155 25.229L54.3663 30.0093H58.8118" stroke="#263238" stroke-width="0.5" stroke-linecap="round" stroke-linejoin="round"/>
<path d="M59.155 43.4668L54.3663 48.2471H58.8118" stroke="#263238" stroke-width="0.5" stroke-linecap="round" stroke-linejoin="round"/>
<path d="M59.155 48.603L54.3663 53.3833H58.8118" stroke="#263238" stroke-width="0.5" stroke-linecap="round" stroke-linejoin="round"/>
<path d="M59.155 53.7393L54.3663 58.5196H58.8118" stroke="#263238" stroke-width="0.5" stroke-linecap="round" stroke-linejoin="round"/>
<path d="M59.155 58.8755L54.3663 63.6558H58.8118" stroke="#263238" stroke-width="0.5" stroke-linecap="round" stroke-linejoin="round"/>
<path d="M59.155 64.0117L54.3663 68.792H58.8118" stroke="#263238" stroke-width="0.5" stroke-linecap="round" stroke-linejoin="round"/>
<path d="M59.155 69.1479L54.3663 73.9282H58.8118" stroke="#263238" stroke-width="0.5" stroke-linecap="round" stroke-linejoin="round"/>
<path d="M59.155 74.2817L54.3663 79.0642H58.8118" stroke="#263238" stroke-width="0.5" stroke-linecap="round" stroke-linejoin="round"/>
<path d="M59.155 79.418L54.3663 84.2005H58.8118" stroke="#263238" stroke-width="0.5" stroke-linecap="round" stroke-linejoin="round"/>
<path d="M59.155 84.5542L54.3663 89.3345H58.8118" stroke="#263238" stroke-width="0.5" stroke-linecap="round" stroke-linejoin="round"/>
<path d="M59.155 89.6904L54.3663 94.4707H58.8118" stroke="#263238" stroke-width="0.5" stroke-linecap="round" stroke-linejoin="round"/>
<path d="M59.155 94.8267L54.3663 99.6069H58.8118" stroke="#263238" stroke-width="0.5" stroke-linecap="round" stroke-linejoin="round"/>
<path d="M65.2392 103.423H48.2338V106.092H65.2392V103.423Z" fill="#263238"/>
<path d="M71.1254 105.697H42.3475V108.43H71.1254V105.697Z" fill="#FFD000" stroke="#263238" stroke-width="0.5" stroke-linecap="round" stroke-linejoin="round"/>
<path d="M59.7796 33.1816H53.7064V38.4672H59.7796V33.1816Z" fill="#FFD000" stroke="#263238" stroke-width="0.5" stroke-linecap="round" stroke-linejoin="round"/>
<path d="M60.8245 40.6992H52.6638V42.8609H60.8245V40.6992Z" fill="#FFD000" stroke="#263238" stroke-width="0.5" stroke-linecap="round" stroke-linejoin="round"/>
<path d="M60.8531 40.7012H52.6353L53.7065 38.5396H59.7797L60.8531 40.7012Z" fill="#FFD000" stroke="#263238" stroke-width="0.5" stroke-linecap="round" stroke-linejoin="round"/>
<path d="M60.147 33.2698H53.7064V27.312H60.5781C60.9608 27.312 61.2622 27.6415 61.227 28.0216L60.7959 32.6811C60.7651 33.015 60.4835 33.272 60.147 33.272V33.2698Z" fill="#FFD000" stroke="#263238" stroke-width="0.5" stroke-linecap="round" stroke-linejoin="round"/>
<path d="M56.3086 28.5969V32.0569C56.3086 32.1909 56.4098 32.3051 56.544 32.3205L58.836 32.5687C59.4453 32.6346 59.9754 32.1579 59.9754 31.5472V28.5991C59.9754 28.4541 59.8566 28.3354 59.7114 28.3354H56.5725C56.4274 28.3354 56.3086 28.4541 56.3086 28.5991V28.5969Z" fill="#263238" stroke="#263238" stroke-width="0.5" stroke-linecap="round" stroke-linejoin="round"/>
<path d="M72.7971 25.5677H8.1145L10.8355 22.1099H50.7831L52.5143 25.1986" stroke="#263238" stroke-width="0.5" stroke-linecap="round" stroke-linejoin="round"/>
<path d="M10.8354 22.1099V25.4446L14.0513 22.2329" stroke="#263238" stroke-width="0.5" stroke-linecap="round" stroke-linejoin="round"/>
<path d="M14.1746 22.1099V25.4446L17.3904 22.2329" stroke="#263238" stroke-width="0.5" stroke-linecap="round" stroke-linejoin="round"/>
<path d="M17.5135 22.1099V25.4446L20.7294 22.2329" stroke="#263238" stroke-width="0.5" stroke-linecap="round" stroke-linejoin="round"/>
<path d="M20.8527 22.1099V25.4446L24.0685 22.2329" stroke="#263238" stroke-width="0.5" stroke-linecap="round" stroke-linejoin="round"/>
<path d="M24.1917 22.1099V25.4446L27.4075 22.2329" stroke="#263238" stroke-width="0.5" stroke-linecap="round" stroke-linejoin="round"/>
<path d="M27.5308 22.1099V25.4446L30.7466 22.2329" stroke="#263238" stroke-width="0.5" stroke-linecap="round" stroke-linejoin="round"/>
<path d="M30.8698 22.1099V25.4446L34.0856 22.2329" stroke="#263238" stroke-width="0.5" stroke-linecap="round" stroke-linejoin="round"/>
<path d="M34.2089 22.1099V25.4446L37.4247 22.2329" stroke="#263238" stroke-width="0.5" stroke-linecap="round" stroke-linejoin="round"/>
<path d="M37.5479 22.1099V25.4446L40.7637 22.2329" stroke="#263238" stroke-width="0.5" stroke-linecap="round" stroke-linejoin="round"/>
<path d="M40.8892 22.1099V25.4446L44.1028 22.2329" stroke="#263238" stroke-width="0.5" stroke-linecap="round" stroke-linejoin="round"/>
<path d="M44.2281 22.1099V25.4446L47.4418 22.2329" stroke="#263238" stroke-width="0.5" stroke-linecap="round" stroke-linejoin="round"/>
<path d="M47.5673 22.1099V25.4446L50.7831 22.2329" stroke="#263238" stroke-width="0.5" stroke-linecap="round" stroke-linejoin="round"/>
<path d="M56.7178 15.1919C57.4005 15.1919 57.954 14.6391 57.954 13.9573C57.954 13.2754 57.4005 12.7227 56.7178 12.7227C56.035 12.7227 55.4816 13.2754 55.4816 13.9573C55.4816 14.6391 56.035 15.1919 56.7178 15.1919Z" fill="#FFD000" stroke="#263238" stroke-width="0.5" stroke-linecap="round" stroke-linejoin="round"/>
<path d="M81.2636 24.8315H69.6605V26.2375H81.2636V24.8315Z" fill="#FFD000" stroke="#263238" stroke-width="0.5" stroke-linecap="round" stroke-linejoin="round"/>
<path d="M79.2465 26.2134H71.6797V27.6193H79.2465V26.2134Z" fill="#FFD000" stroke="#263238" stroke-width="0.5" stroke-linecap="round" stroke-linejoin="round"/>
<path d="M75.8459 27.6216H72.4827V31.8395H75.8459V27.6216Z" fill="#949494" stroke="#263238" stroke-width="0.5" stroke-linecap="round" stroke-linejoin="round"/>
<path d="M60.3054 25.1982V21.3691H80.8347V24.8313" stroke="#263238" stroke-width="0.5" stroke-linecap="round" stroke-linejoin="round"/>
<path d="M69.6605 24.8316V21.3584" stroke="#263238" stroke-width="0.5" stroke-linecap="round" stroke-linejoin="round"/>
<path d="M66.4863 25.4225V21.3584" stroke="#263238" stroke-width="0.5" stroke-linecap="round" stroke-linejoin="round"/>
<path d="M63.2332 25.4225V21.3584" stroke="#263238" stroke-width="0.5" stroke-linecap="round" stroke-linejoin="round"/>
<path d="M73.567 24.8316V21.3584" stroke="#263238" stroke-width="0.5" stroke-linecap="round" stroke-linejoin="round"/>
<path d="M77.4736 24.8316V21.3584" stroke="#263238" stroke-width="0.5" stroke-linecap="round" stroke-linejoin="round"/>
<path d="M60.4176 23.3091H80.6785" stroke="#263238" stroke-width="0.5" stroke-linecap="round" stroke-linejoin="round"/>
<path d="M26.7674 24.7944H20.6942V27.8392H26.7674V24.7944Z" fill="#FFD000" stroke="#263238" stroke-width="0.5" stroke-linecap="round" stroke-linejoin="round"/>
<path d="M21.7149 24.7944H20.78L23.8287 27.837H24.7614L21.7149 24.7944Z" fill="#263238"/>
<path d="M21.8974 27.8372H22.8323L20.6942 25.7041V26.6356L21.8974 27.8372Z" fill="#263238"/>
<path d="M23.644 24.7944H22.7113L25.76 27.837H26.6927L23.644 24.7944Z" fill="#263238"/>
<path d="M25.5752 24.7944H24.6426L26.7696 26.9188V25.9851L25.5752 24.7944Z" fill="#263238"/>
<path d="M23.8023 80.5015V81.1188C23.8023 81.5911 23.2436 82.0766 22.9951 82.4391C22.2934 83.4628 22.7113 85.3608 24.1565 85.3872C25.3905 85.4092 25.6852 84.2339 25.5401 83.2387" stroke="#263238" stroke-width="0.5" stroke-linecap="round" stroke-linejoin="round"/>
<path d="M23.8024 78.6143V80.5035" stroke="#263238" stroke-width="0.5" stroke-linecap="round" stroke-linejoin="round"/>
<path d="M25.2563 79.5106V75.3213H22.2076V79.5106H25.2563Z" fill="#FFD000" stroke="#263238" stroke-width="0.5" stroke-linecap="round" stroke-linejoin="round"/>
<path d="M25.2563 76.024V75.3804L22.2076 77.4827V78.1264L25.2563 76.024Z" fill="#263238"/>
<path d="M22.2076 76.1517V76.7954L24.3435 75.3213H23.4108L22.2076 76.1517Z" fill="#263238"/>
<path d="M25.2563 77.3575V76.7139L22.2076 78.8162V79.4599L25.2563 77.3575Z" fill="#263238"/>
<path d="M25.2563 78.6891V78.0454L23.1293 79.5129H24.0619L25.2563 78.6891Z" fill="#263238"/>
<path d="M23.6572 33.008C23.3096 33.008 23.0303 32.7268 23.0303 32.3819V31.3691H24.2841V32.3819C24.2841 32.729 24.0025 33.008 23.6572 33.008Z" fill="#FFD000" stroke="#263238" stroke-width="0.5" stroke-linecap="round" stroke-linejoin="round"/>
<path d="M76.9035 74.6778L72.6973 71.8708C71.2982 71.5409 69.7269 72.5428 69.4357 73.949C68.0455 73.6582 66.5701 74.6317 66.0925 75.9669C65.6149 77.3021 66.0321 78.859 66.9554 79.9389C67.8786 81.0188 69.2387 81.6572 70.6324 81.9338C72.637 82.331 74.9806 81.893 76.1826 80.2404C77.3136 78.6906 77.136 76.5822 76.9035 74.6778Z" fill="#263238"/>
<path d="M94.9335 71.4913C94.9178 70.7796 94.7042 70.0863 94.3167 69.4889C93.9291 68.8914 93.3829 68.4133 92.739 68.108C93.2202 66.4306 93.7493 64.6698 93.3782 62.9657C92.5384 59.1143 89.0637 58.5858 87.3167 58.6107L81.5747 62.2741C80.0371 64.0137 81.9671 73.5642 82.6595 75.779C83.0196 76.8858 83.653 77.8842 84.5014 78.6819C85.3498 79.4796 86.3858 80.051 87.5137 80.3432C89.1117 80.7422 90.9546 80.4886 92.1797 79.3786C93.4048 78.2686 93.7936 76.2258 92.7994 74.9065C93.4367 74.5902 93.9736 74.1035 94.3504 73.5006C94.7271 72.8976 94.929 72.2021 94.9335 71.4913Z" fill="#263238"/>
<path d="M65.4462 87.5086L65.9788 111.02L97.3571 111.142C97.3571 111.142 95.0276 78.1389 94.3583 77.8162C93.8522 77.5768 87.6522 75.5447 87.6522 75.5447L84.8949 74.7432L73.4998 76.9278L69.3664 77.8303L65.4462 87.5086Z" fill="#455A64"/>
<path d="M67.2643 83.5812C67.2643 83.5191 70.2613 77.6338 70.2613 77.6338C67.3247 77.9423 64.7023 78.9779 62.9978 81.2104C62.2042 82.2495 61.8491 83.8241 61.4531 84.9465C61.1868 85.7073 58.8097 111.099 58.8097 111.099H65.9585L67.2643 83.5812Z" fill="#455A64"/>
<path d="M78.3238 92.19L71.7545 77.0591C69.3612 77.591 66.6713 78.1975 64.9562 79.3004L65.8635 90.4221L65.7303 111.142L78.3008 111.208L79.0749 96.4634L78.3238 92.19Z" fill="#FFD000"/>
<path d="M95.0667 96.0451L93.7138 77.3571L86.0899 74.9189L78.3043 92.0624V111.208L97.5453 111.144L95.0667 96.0451Z" fill="#FFD000"/>
<path d="M95.0685 96.0448C95.0685 96.0448 95.0863 96.1352 95.1164 96.3108C95.1466 96.4863 95.191 96.7505 95.2496 97.091C95.365 97.779 95.5337 98.7915 95.7521 100.095C96.1835 102.703 96.8085 106.478 97.579 111.138V111.177H97.5542L78.3132 111.252H78.2688V111.208C78.2688 106.519 78.2688 101.414 78.2688 96.1175V92.0462C81.0741 85.8754 83.7142 80.0681 86.0597 74.9045L86.0756 74.8726L86.1094 74.8832L93.7244 77.3285H93.7475V77.3533C94.1559 83.0772 94.4879 87.7497 94.7187 90.9911C94.8324 92.6118 94.9211 93.8744 94.9797 94.7326C95.0099 95.1599 95.0312 95.488 95.0454 95.7096C95.0596 95.9313 95.0649 96.043 95.0649 96.043C95.0649 96.043 95.0525 95.9313 95.0348 95.7114C95.017 95.4915 94.9921 95.1617 94.9602 94.7344C94.8945 93.8761 94.8004 92.6154 94.6797 90.9964C94.44 87.7532 94.0973 83.0826 93.6747 77.3586L93.6996 77.3905L86.0756 74.9559L86.1253 74.9346C83.7817 80.0982 81.154 85.9073 78.3451 92.0799V92.0604V96.1246C78.3451 101.421 78.3451 106.526 78.3451 111.215L78.3008 111.17L97.5417 111.117L97.508 111.156C96.7499 106.493 96.1356 102.717 95.7094 100.105C95.4999 98.8021 95.3366 97.7896 95.2247 97.1016C95.1715 96.7594 95.1306 96.497 95.1022 96.3196C95.0738 96.1423 95.0685 96.0448 95.0685 96.0448Z" fill="#263238"/>
<path d="M92.9929 95.5537H65.9771V99.0807H92.9929V95.5537Z" fill="white"/>
<path d="M93.8451 77.6245C93.8451 77.6245 95.6011 77.6032 98.1453 82.1693C101.002 87.2956 102.827 93.8016 102.827 93.8016L95.7946 97.6353L93.8451 77.6245Z" fill="#455A64"/>
<path d="M67.5306 78.1479L68.2959 111.144L71.3036 111.16L70.2613 77.373C70.2613 77.373 68.0029 77.9032 67.5306 78.1479Z" fill="white"/>
<path d="M88.8454 75.8003L87.924 111.16H91.8567L92.0413 76.8642L88.8454 75.8003Z" fill="white"/>
<g opacity="0.3">
<path d="M80.7776 85.2425C80.8518 85.9387 81.0865 86.6082 81.4632 87.1986C81.84 87.7889 82.3485 88.2841 82.949 88.6453C83.5225 88.984 84.1759 89.1968 84.6783 89.6348C85.1808 90.0727 85.4613 90.6437 85.7436 91.2182C87.8742 95.4828 90.0048 99.7581 91.6542 104.234C92.0218 105.234 92.3644 106.255 92.9592 107.145C93.554 108.035 94.4187 108.793 95.468 108.995C96.5173 109.197 97.7317 108.715 98.149 107.734L84.8807 83.0029L80.7776 85.2425Z" fill="black"/>
</g>
<path d="M78.3043 92.0622C78.3043 92.0622 78.3043 92.1792 78.3043 92.4168C78.3043 92.6545 78.3043 92.9878 78.3043 93.4329C78.3043 94.3195 78.3043 95.6335 78.315 97.3021C78.315 100.645 78.3256 105.43 78.3327 111.215V111.254H78.2936L65.7019 111.186H65.6575V111.14C65.6806 107.417 65.7054 103.404 65.7303 99.2597C65.7498 96.1867 65.7693 93.1882 65.7889 90.3085C65.4764 86.4074 65.1799 82.7156 64.9011 79.3145V79.2791L64.9224 79.2649C66.0374 78.584 67.2306 78.1655 68.3846 77.8144C69.5387 77.4633 70.6732 77.2097 71.7581 76.9668H71.7883L71.7989 76.9952L76.5483 87.9891C77.1094 89.296 77.5479 90.3138 77.8444 91.0036L78.18 91.7909C78.2564 91.9682 78.2919 92.0604 78.2919 92.0604C78.2919 92.0604 78.2493 91.97 78.1694 91.7927L77.8462 91.0089L76.5306 87.9944L71.7545 77.0129L71.7954 77.0342C70.7141 77.2771 69.5866 77.5413 68.4326 77.8853C67.2785 78.2293 66.0925 78.6549 64.9899 79.3323L65.0094 79.2933C65.2846 82.6961 65.5847 86.3861 65.8972 90.2872C65.8794 93.1687 65.8599 96.1654 65.8404 99.2384C65.8137 103.388 65.7871 107.395 65.764 111.119L65.7196 111.075L78.3096 111.154L78.2706 111.192C78.2706 105.407 78.283 100.622 78.2883 97.279C78.2883 95.6122 78.2883 94.3036 78.299 93.4116C78.299 92.9683 78.299 92.6279 78.299 92.3956C78.299 92.1633 78.3043 92.0622 78.3043 92.0622Z" fill="#263238"/>
<path d="M67.5483 57.9101C67.3401 57.5808 67.2213 57.203 67.2036 56.814C67.186 56.4249 67.2701 56.0379 67.4476 55.6912C67.6252 55.3444 67.8901 55.0498 68.2162 54.8363C68.5424 54.6228 68.9186 54.4978 69.3078 54.4736L72.8588 54.9914L71.8255 60.9831C71.7278 61.5559 71.6106 62.1641 71.2129 62.5879C71.0126 62.7782 70.7758 62.9259 70.5167 63.0222C70.2576 63.1185 69.9817 63.1614 69.7055 63.1482C69.0998 63.1439 68.5088 62.961 68.0067 62.6225C67.5047 62.2839 67.1139 61.8048 66.8835 61.2453C66.6531 60.6858 66.5933 60.0708 66.7115 59.4774C66.8298 58.8841 67.1209 58.3389 67.5483 57.9101Z" fill="#263238"/>
<path d="M78.3043 80.9355C81.2694 80.9355 84.476 77.8093 84.5345 74.8481L84.8506 58.6196C85.0974 53.8319 82.514 49.7038 77.7184 49.5903L77.2746 49.6063C75.1209 49.6807 73.0742 50.5621 71.5418 52.0752C70.0093 53.5882 69.1034 55.6221 69.0043 57.772C68.8144 61.9195 68.9777 65.6663 69.0825 67.8793C69.2991 72.4719 73.594 73.199 73.594 73.199C73.594 73.199 73.2247 77.2419 73.8567 78.4335C75.2771 81.104 76.3992 80.8752 78.3043 80.916V80.9355Z" fill="#FFBF9D"/>
<path d="M73.5584 73.2146C73.5584 73.2146 76.4649 73.2856 79.4868 71.2393C79.4868 71.2393 78.1143 74.7183 73.5105 74.463L73.5584 73.2146Z" fill="#FF9A6C"/>
<path d="M71.1135 61.4548C71.1181 61.6259 71.1893 61.7884 71.312 61.908C71.4346 62.0275 71.5991 62.0946 71.7705 62.095C71.8543 62.0985 71.9379 62.0853 72.0166 62.0562C72.0952 62.027 72.1672 61.9825 72.2284 61.9252C72.2896 61.8679 72.3387 61.799 72.3729 61.7225C72.407 61.6459 72.4256 61.5634 72.4274 61.4796C72.4228 61.3086 72.3516 61.146 72.2289 61.0265C72.1063 60.907 71.9418 60.8399 71.7705 60.8395C71.6866 60.8357 71.6028 60.8487 71.5241 60.8778C71.4453 60.9068 71.3732 60.9514 71.312 61.0087C71.2508 61.0661 71.2016 61.1351 71.1676 61.2117C71.1335 61.2883 71.1151 61.371 71.1135 61.4548Z" fill="#263238"/>
<path d="M70.1442 59.5519C70.2276 59.6335 70.7123 59.2487 71.419 59.2257C72.1256 59.2026 72.6618 59.5395 72.7311 59.4491C72.7666 59.4101 72.6778 59.2594 72.447 59.0945C72.1336 58.8939 71.766 58.7948 71.3941 58.8107C71.0265 58.8219 70.672 58.9499 70.3821 59.176C70.1708 59.3569 70.1016 59.5147 70.1442 59.5519Z" fill="#263238"/>
<path d="M77.5497 61.4549C77.5538 61.6258 77.6247 61.7884 77.747 61.9079C77.8694 62.0275 78.0337 62.0946 78.2048 62.095C78.2887 62.0988 78.3725 62.0858 78.4512 62.0568C78.53 62.0277 78.6021 61.9832 78.6633 61.9258C78.7245 61.8685 78.7737 61.7995 78.8077 61.7228C78.8418 61.6462 78.8602 61.5636 78.8618 61.4797C78.858 61.3076 78.7867 61.1438 78.6631 61.0237C78.5396 60.9036 78.3737 60.8369 78.2013 60.8378C78.1177 60.8348 78.0344 60.8484 77.9561 60.8779C77.8779 60.9074 77.8063 60.9522 77.7457 61.0096C77.685 61.0671 77.6364 61.1361 77.6027 61.2125C77.5691 61.289 77.551 61.3714 77.5497 61.4549Z" fill="#263238"/>
<path d="M77.0773 59.5965C77.1626 59.6781 77.6473 59.2933 78.3539 59.2702C79.0606 59.2472 79.5968 59.5841 79.666 59.4936C79.7015 59.4546 79.6145 59.3021 79.3819 59.139C79.0688 58.9379 78.701 58.8388 78.3291 58.8553C77.9609 58.8665 77.6058 58.9944 77.3153 59.2206C77.1057 59.4032 77.0365 59.561 77.0773 59.5965Z" fill="#263238"/>
<path d="M74.7301 65.1093C74.7301 65.0703 74.2898 65.01 73.5743 64.9426C73.3968 64.9302 73.2192 64.9 73.1872 64.7795C73.1553 64.6589 73.2085 64.4532 73.2884 64.2475C73.4435 63.8054 73.6057 63.3414 73.7749 62.8555C74.4478 60.8766 74.929 59.2506 74.8491 59.224C74.7692 59.1974 74.1584 60.7809 73.4855 62.7615C73.324 63.2492 73.1677 63.7155 73.0221 64.1606C72.96 64.3663 72.8446 64.6039 72.9529 64.8699C72.981 64.9326 73.0232 64.9881 73.0761 65.0321C73.1291 65.076 73.1914 65.1073 73.2583 65.1235C73.3594 65.1477 73.4633 65.1584 73.5672 65.1554C74.2845 65.1625 74.7284 65.1501 74.7301 65.1093Z" fill="#263238"/>
<path d="M75.3801 67.6859C75.5443 67.846 75.7649 67.9352 75.9944 67.9341C76.2368 67.9287 76.4675 67.8288 76.6371 67.6557C76.9425 67.3756 77.0011 66.9216 76.9425 66.5333C76.9335 66.4666 76.9092 66.4029 76.8715 66.3471C76.8697 66.3114 76.8625 66.2761 76.8502 66.2425C76.8095 66.1382 76.7478 66.0434 76.669 65.9638C76.5903 65.8842 76.496 65.8216 76.3921 65.7797C76.1784 65.6966 75.9434 65.6854 75.7228 65.7478C75.5415 65.8088 75.381 65.9195 75.2595 66.0671C75.138 66.2148 75.0605 66.3935 75.0356 66.5829C75.0032 66.7809 75.0174 66.9836 75.0772 67.1751C75.137 67.3666 75.2407 67.5415 75.3801 67.6859Z" fill="#FF9A6C"/>
<path d="M77.0597 65.7388C76.9497 65.7069 76.7721 66.4481 76.0069 66.8311C75.2416 67.2141 74.4657 66.941 74.4356 67.0439C74.4143 67.0882 74.5776 67.2301 74.9132 67.3187C75.3494 67.4273 75.8099 67.3796 76.2146 67.184C76.6028 66.9947 76.902 66.6622 77.0491 66.2566C77.1521 65.9516 77.1112 65.7477 77.0597 65.7388Z" fill="#263238"/>
<path d="M76.8963 57.1583C76.9727 57.348 77.674 57.2328 78.5085 57.3037C79.343 57.3746 80.0194 57.5786 80.1224 57.4012C80.1703 57.3179 80.0461 57.1406 79.7673 56.965C79.3982 56.7508 78.985 56.6235 78.5592 56.5927C78.1334 56.562 77.7062 56.6287 77.31 56.7877C77.01 56.9136 76.8626 57.0696 76.8963 57.1583Z" fill="#263238"/>
<path d="M70.3305 56.9366C70.4601 57.0927 70.9413 56.9083 71.5272 56.8817C72.1131 56.8551 72.612 56.9508 72.7203 56.7788C72.7683 56.6973 72.6848 56.5377 72.4629 56.394C72.1653 56.2225 71.8234 56.1429 71.4806 56.1653C71.1377 56.1877 70.8092 56.3111 70.5365 56.5199C70.3358 56.699 70.2737 56.8675 70.3305 56.9366Z" fill="#263238"/>
<path d="M84.6837 61.9404C84.76 61.905 87.8121 60.8978 87.8209 64.0417C87.8298 67.1856 84.6659 66.5473 84.6606 66.4568C84.6553 66.3664 84.6837 61.9404 84.6837 61.9404Z" fill="#FFBF9D"/>
<path d="M85.6193 65.2708C85.6317 65.2602 85.6743 65.308 85.7667 65.3506C85.8982 65.4035 86.0452 65.4035 86.1768 65.3506C86.5088 65.2282 86.7876 64.6998 86.8018 64.1324C86.8083 63.8628 86.7549 63.5952 86.6455 63.3486C86.6155 63.2507 86.5622 63.1615 86.4901 63.0887C86.4181 63.0158 86.3295 62.9614 86.2318 62.9302C86.1688 62.9132 86.1019 62.9191 86.0428 62.9467C85.9836 62.9742 85.9362 63.0218 85.9087 63.0809C85.8661 63.1695 85.8874 63.2316 85.8696 63.2369C85.8519 63.2422 85.8022 63.1837 85.827 63.0596C85.8443 62.9816 85.8883 62.912 85.9513 62.8628C85.9938 62.83 86.0423 62.806 86.0941 62.792C86.1459 62.778 86.1999 62.7743 86.2532 62.7812C86.3826 62.8064 86.5034 62.8643 86.6041 62.9493C86.7048 63.0344 86.782 63.1438 86.8284 63.2671C86.9635 63.5389 87.0293 63.8397 87.0202 64.143C87.0024 64.7778 86.6793 65.3701 86.2247 65.5031C86.1402 65.5281 86.0512 65.5338 85.9642 65.5196C85.8772 65.5055 85.7945 65.472 85.7223 65.4215C85.6246 65.3382 85.6087 65.2708 85.6193 65.2708Z" fill="#FF9A6C"/>
<path d="M80.7615 54.4542C81.1344 54.0836 81.6759 53.9488 82.1961 53.8868C83.5622 53.7245 84.9464 53.9488 86.191 54.534C86.839 54.8407 87.464 55.2663 87.8138 55.8923C88.1636 56.5182 88.1689 57.3747 87.6753 57.8942C88.142 58.1677 88.4919 58.6029 88.6584 59.1172C88.8249 59.6314 88.7964 60.1888 88.5784 60.6834C88.3603 61.1781 87.9679 61.5755 87.4757 61.8001C86.9835 62.0247 86.4258 62.0608 85.9087 61.9017C85.8849 62.1423 85.8004 62.3729 85.6632 62.5721C85.526 62.7713 85.3405 62.9325 85.124 63.0407C84.9075 63.1489 84.6671 63.2005 84.4253 63.1908C84.1834 63.1811 83.9479 63.1103 83.7408 62.9851C83.5247 62.8478 83.3333 62.6751 83.1744 62.4745C82.5725 61.7031 82.5122 60.2402 82.6773 59.2827C82.3614 59.2709 82.0523 59.1879 81.7731 59.0399C81.4939 58.8918 81.2519 58.6827 81.0652 58.428C80.6956 57.9148 80.4523 57.3219 80.355 56.6973C80.1987 55.91 80.204 55.011 80.7615 54.4542Z" fill="#263238"/>
<path d="M81.9068 46.1306C82.1216 46.1749 87.2848 47.7052 88.3358 51.6932C89.3869 55.6811 88.9235 56.8532 88.9235 56.8532C89.1187 56.9966 89.2926 57.1667 89.4402 57.3586C89.6408 57.6299 89.2396 58.8375 88.5649 58.653C83.5935 56.05 77.5568 55.4187 70.7833 55.1793L65.6167 54.7715C64.159 54.8442 63.676 54.4257 64.3099 54.103C64.7964 53.8565 69.0149 52.4822 69.0149 52.4822L69.8619 51.9503L72.1931 49.1344C72.1931 49.1344 71.9569 48.7053 72.502 48.3985C73.0471 48.0918 77.6687 45.2528 81.9068 46.1306Z" fill="#FFD000"/>
<g opacity="0.3">
<path d="M86.5461 48.7479C86.5461 48.7479 80.9569 47.4605 78.3469 48.5067L78.6505 48.379L76.1897 49.2656C75.7742 49.4164 75.2895 49.56 74.9131 49.3295C74.9131 49.3295 76.266 48.2655 78.6825 47.6272C81.0989 46.9888 84.87 46.8966 86.5461 48.7479Z" fill="black"/>
</g>
<path d="M86.6207 48.7796C86.4688 48.6495 86.3074 48.531 86.1377 48.425C85.6771 48.1185 85.1818 47.8674 84.6623 47.6767C83.8922 47.3922 83.0848 47.2214 82.2654 47.1695C81.2602 47.0792 80.2474 47.2049 79.295 47.5384C78.8088 47.7244 78.3345 47.94 77.8746 48.1838C77.4307 48.4196 76.9869 48.6236 76.5945 48.8612C76.2314 49.0996 75.8489 49.3072 75.4511 49.4818C75.0987 49.6154 74.7201 49.6658 74.3449 49.629C72.9547 49.5563 72.122 49.214 72.1895 49.1289C72.2085 49.1797 72.2459 49.2214 72.2942 49.246C72.4251 49.3228 72.5653 49.3824 72.7115 49.4233C73.2429 49.5745 73.7896 49.666 74.3414 49.6964C74.726 49.738 75.1151 49.6895 75.4777 49.5545C75.8807 49.382 76.268 49.1749 76.6353 48.9357C77.0295 48.7034 77.4698 48.4994 77.9137 48.2654C78.3696 48.0237 78.8398 47.81 79.3216 47.6252C80.2617 47.2913 81.2623 47.1619 82.2565 47.2458C83.0694 47.2914 83.8714 47.4544 84.6374 47.7299C85.1549 47.914 85.6503 48.1549 86.1147 48.448C86.2798 48.5509 86.4041 48.6378 86.4875 48.698C86.571 48.7583 86.6207 48.7796 86.6207 48.7796Z" fill="#263238"/>
<g opacity="0.3">
<path d="M88.7193 53.3545C87.7073 53.28 86.9563 52.9661 85.9655 52.6806C84.9003 52.3757 83.8598 52.1203 82.8212 51.7657C82.0311 51.4961 81.0936 51.2337 80.6071 50.6255C80.5545 50.8205 80.5532 51.0258 80.6033 51.2215C80.6533 51.4172 80.7531 51.5967 80.893 51.7426C81.1806 52.0582 82.1553 52.475 82.5602 52.615C84.8683 53.4094 86.4662 53.945 88.8862 54.2748C88.851 53.9647 88.7952 53.6572 88.7193 53.3545Z" fill="black"/>
</g>
<path d="M88.2009 51.2623C88.8241 51.5832 89.2058 51.7943 89.1881 52.344C89.1739 52.7997 89.0442 53.3494 88.5915 53.399C88.4518 53.4051 88.3121 53.3853 88.1796 53.3405L81.2818 51.4715C81.041 51.4342 80.8207 51.3145 80.6586 51.1328C80.4491 50.8261 80.6444 50.3757 80.9658 50.1877C81.2871 49.9998 81.676 50.0104 82.0506 50.021C84.1616 50.1221 86.1928 50.6062 88.2009 51.2623Z" fill="#FFD000"/>
<path d="M80.7598 51.2338C80.6717 51.1477 80.6101 51.0381 80.5823 50.9182C80.5546 50.7566 80.5722 50.5905 80.6334 50.4384C80.6945 50.2863 80.7966 50.154 80.9285 50.0564C81.2836 49.8223 81.8056 49.7727 82.3489 49.8383C82.8922 49.9039 83.5225 49.9837 84.1634 50.0883C85.2596 50.2573 86.3386 50.5231 87.3877 50.8827C87.789 51.0228 88.0979 51.1575 88.3252 51.2498L88.5773 51.3597C88.6052 51.3748 88.6351 51.3862 88.6661 51.3934C88.6409 51.3742 88.6135 51.3581 88.5844 51.3455L88.3394 51.2196C88.1245 51.1168 87.8067 50.9731 87.409 50.8242C86.3612 50.446 85.279 50.1711 84.1776 50.0032C83.5331 49.8968 82.9188 49.8259 82.356 49.7585C81.7931 49.6911 81.2516 49.7585 80.8859 50.0067C80.7466 50.1109 80.6402 50.2529 80.5794 50.4157C80.5187 50.5786 80.5061 50.7555 80.5432 50.9253C80.5656 51.016 80.6087 51.1004 80.6693 51.1717C80.7314 51.2178 80.758 51.2373 80.7598 51.2338Z" fill="#263238"/>
<path d="M71.4615 50.0156L75.8665 50.216L75.4138 51.4289L70.6377 51.0122L71.4615 50.0156Z" fill="white"/>
<path d="M77.8568 54.3549C77.8568 54.3301 75.9198 53.9223 73.5193 53.44C71.1188 52.9576 69.1676 52.5888 69.1622 52.6119C69.1569 52.6349 71.0993 53.0445 73.5015 53.5268C75.9038 54.0092 77.8462 54.378 77.8568 54.3549Z" fill="#263238"/>
<path d="M72.2729 77.059L73.5158 74.8176L78.3043 80.9352L84.9784 72.7075L85.9549 75.2166L80.7776 84.2618L78.5813 81.2881L78.0593 81.3644L76.2483 84.5083L72.2729 77.059Z" fill="#E0E0E0"/>
<path d="M82.6276 81.5436C82.5867 81.6231 82.5392 81.699 82.4856 81.7705C82.3897 81.9142 82.2512 82.1252 82.0861 82.3841C81.6511 83.0714 81.2637 83.7877 80.9267 84.5279L80.8912 84.6041L80.8451 84.5332L80.7083 84.3169C80.1437 83.4675 79.5685 82.7405 79.1814 82.189C78.9843 81.9177 78.8263 81.6943 78.7304 81.5365C78.6727 81.4576 78.6227 81.3732 78.5813 81.2847C78.6461 81.357 78.7055 81.434 78.7588 81.5152L79.2329 82.1518C79.6342 82.6837 80.2183 83.4072 80.7847 84.2637C80.8326 84.3381 80.8806 84.4109 80.9232 84.48H80.8433C81.1812 83.7362 81.5791 83.021 82.0329 82.3415C82.2104 82.0826 82.3524 81.8787 82.4572 81.7422C82.5083 81.6713 82.5653 81.6048 82.6276 81.5436Z" fill="#263238"/>
<path d="M88.0411 58.4385C88.0899 58.4765 88.1324 58.522 88.1671 58.5732C88.271 58.7066 88.3586 58.8518 88.4281 59.0059C88.6697 59.5187 88.726 60.0992 88.5875 60.6487C88.4489 61.1983 88.1241 61.683 87.6682 62.0204C87.5338 62.1223 87.3878 62.208 87.2332 62.2757C87.1777 62.3052 87.1177 62.3256 87.0557 62.336C87.254 62.2271 87.4444 62.1044 87.6256 61.969C88.0545 61.63 88.3595 61.1593 88.4934 60.6297C88.6272 60.1001 88.5824 59.5412 88.366 59.0396C88.2721 58.8318 88.1636 58.6309 88.0411 58.4385Z" fill="#455A64"/>
<path d="M78.0593 81.3644C78.0593 81.3644 78.0593 81.3875 78.0362 81.4283L77.9563 81.6056C77.8835 81.7634 77.7788 81.9922 77.6261 82.2776C77.2236 83.053 76.7754 83.8038 76.2838 84.5261L76.2483 84.5988L76.2146 84.5367L75.112 82.4993C74.3379 81.0559 73.6383 79.749 73.127 78.7897C72.8802 78.3216 72.6795 77.9368 72.534 77.662L72.3777 77.3516C72.3579 77.3165 72.3413 77.2797 72.328 77.2417C72.3534 77.273 72.3754 77.3069 72.3937 77.3428L72.5712 77.6442L73.1891 78.7596L75.183 82.4479C75.5701 83.1713 75.9411 83.8664 76.2785 84.4888H76.2057C76.6996 83.7711 77.1559 83.0283 77.5728 82.2635L77.9279 81.6038L78.0202 81.4265C78.0303 81.4041 78.0435 81.3832 78.0593 81.3644Z" fill="#263238"/>
<path d="M53.9499 82.2725L46.2069 82.175C46.1694 82.1698 46.1312 82.1768 46.0979 82.1949C46.0646 82.2129 46.038 82.2412 46.0219 82.2755C46.0058 82.3098 46.0011 82.3483 46.0086 82.3854C46.016 82.4225 46.0351 82.4563 46.0631 82.4818L47.7499 84.4536L55.3845 84.6841C55.4199 84.6878 55.4556 84.6808 55.487 84.664C55.5184 84.6472 55.544 84.6213 55.5605 84.5897C55.577 84.5582 55.5836 84.5224 55.5794 84.487C55.5752 84.4517 55.5605 84.4184 55.5372 84.3915L54.0919 82.3506C54.0761 82.3272 54.055 82.308 54.0303 82.2944C54.0056 82.2808 53.978 82.2733 53.9499 82.2725Z" fill="#E0E0E0"/>
<path d="M47.7109 84.5365L45.9993 82.5363C45.9648 82.4969 45.9426 82.4484 45.9353 82.3966C45.9279 82.3448 45.9359 82.292 45.9581 82.2446C45.9803 82.1972 46.0158 82.1573 46.0603 82.1298C46.1049 82.1022 46.1565 82.0882 46.2088 82.0894L53.95 82.187C53.9927 82.1874 54.0348 82.1979 54.0728 82.2176C54.1107 82.2373 54.1435 82.2657 54.1683 82.3004L55.6136 84.3414C55.6422 84.382 55.6591 84.4297 55.6624 84.4792C55.6658 84.5288 55.6554 84.5783 55.6325 84.6224C55.6096 84.6665 55.5751 84.7034 55.5326 84.7292C55.4901 84.755 55.4414 84.7687 55.3917 84.7688L47.7109 84.5365ZM53.9553 82.3572L46.2141 82.2597C46.1947 82.2594 46.1756 82.2648 46.1592 82.2751C46.1427 82.2855 46.1296 82.3003 46.1213 82.3179C46.1131 82.3355 46.1101 82.355 46.1127 82.3743C46.1153 82.3935 46.1234 82.4116 46.136 82.4263L47.7979 84.368L55.4005 84.5985C55.4188 84.5988 55.4368 84.5937 55.4522 84.584C55.4677 84.5742 55.48 84.5602 55.4875 84.5436C55.4975 84.5279 55.5028 84.5098 55.5028 84.4913C55.5028 84.4727 55.4975 84.4546 55.4875 84.4389L54.0441 82.3997C54.0339 82.3859 54.0205 82.3748 54.005 82.3674C53.9895 82.36 53.9724 82.3565 53.9553 82.3572Z" fill="#263238"/>
<path d="M86.7344 89.897C86.7344 89.897 90.5978 99.4529 92.3503 102.9C94.1666 106.473 96.8636 112.459 102.272 109.33C106.694 106.769 102.687 93.3229 102.687 93.3229L98.7065 95.1191L92.819 85.7104L86.7344 89.897Z" fill="#455A64"/>
<path d="M89.0086 74.5128C88.9863 74.4448 88.9498 74.3824 88.9014 74.3296C88.853 74.2768 88.7939 74.2349 88.7281 74.2067C88.6622 74.1785 88.5911 74.1647 88.5195 74.1661C88.4478 74.1675 88.3773 74.1842 88.3126 74.2149C87.9025 74.4082 87.2988 74.871 87.1568 75.9279C86.9349 77.5646 87.2402 78.7207 86.8567 79.148C86.4732 79.5754 81.6545 79.9176 81.2817 80.6198C80.9088 81.322 81.1343 81.9089 81.1183 82.2547C81.1119 82.3788 81.0601 82.4961 80.9728 82.5845C80.7544 82.808 80.3851 83.3116 80.7384 83.9198C80.7829 83.9943 80.808 84.0788 80.8114 84.1655C80.8148 84.2523 80.7964 84.3385 80.7579 84.4163C80.6159 84.7 80.504 85.1912 81.0012 85.6983C81.0487 85.7449 81.0867 85.8003 81.113 85.8614C81.2586 86.1984 81.8232 87.3953 82.624 87.6347C83.2265 87.7972 83.8507 87.8648 84.474 87.835C84.6002 87.831 84.7232 87.8747 84.8185 87.9574C85.2251 88.312 86.5744 89.172 86.9739 89.6934C86.9739 89.6934 91.9453 86.2214 92.2596 86.0583C92.2596 86.0583 90.0189 82.6431 89.9052 81.0773C89.7863 79.4069 88.7334 77.4617 89.0175 75.896C89.14 75.2168 89.0974 74.7841 89.0086 74.5128Z" fill="#FFBF9D"/>
<path d="M86.7344 89.8973C86.7344 89.8973 86.7344 89.8884 86.761 89.8742L86.8445 89.8104L87.1765 89.5745L88.4282 88.6986L92.7941 85.6752L92.8296 85.6504L92.8545 85.6876C93.4955 86.6718 94.1897 87.7534 94.9052 88.8794L99.0953 95.5928C99.628 96.4457 100.068 97.1373 100.374 97.6196L100.729 98.1729L100.818 98.3165C100.828 98.3325 100.837 98.3498 100.844 98.3679C100.832 98.3532 100.821 98.3378 100.81 98.3218L100.715 98.1817C100.628 98.0541 100.507 97.8714 100.359 97.6391C100.049 97.1674 99.6014 96.4812 99.0563 95.6283C97.9626 93.926 96.4907 91.5499 94.843 88.9362C94.1328 87.8031 93.4351 86.7196 92.7977 85.7337L92.858 85.7461L88.4744 88.7429L87.2084 89.5976L86.8693 89.8228L86.7805 89.8795L86.7344 89.8973Z" fill="#263238"/>
<path d="M103.285 100.134C103.248 100.084 103.215 100.031 103.19 99.9742C103.124 99.8501 103.046 99.7029 102.955 99.5292C102.709 99.0361 102.411 98.5702 102.067 98.139C101.718 97.7133 101.274 97.374 100.771 97.1477C100.559 97.0654 100.34 96.9991 100.118 96.9491C100.18 96.9419 100.243 96.9449 100.304 96.958C100.473 96.9827 100.638 97.0261 100.796 97.0874C101.319 97.3013 101.779 97.642 102.137 98.0787C102.49 98.5132 102.788 98.9896 103.024 99.4972C103.117 99.6888 103.186 99.8519 103.232 99.9565C103.258 100.013 103.276 100.073 103.285 100.134Z" fill="#263238"/>
</g>
</g>
<defs>
<clipPath id="clip0_896_38199">
<rect width="120" height="120" fill="white" transform="translate(0.5)"/>
</clipPath>
<clipPath id="clip1_896_38199">
<rect width="105.143" height="98.8571" fill="white" transform="translate(3.92859 12.5713)"/>
</clipPath>
</defs>
</svg>
