<svg width="210" height="210" viewBox="0 0 210 210" fill="none" xmlns="http://www.w3.org/2000/svg">
<g clip-path="url(#clip0_171_20394)">
<path opacity="0.5" d="M210 190.5C210 190.559 143.998 190.375 68.6147 190.375C-6.76813 190.375 0.773646 190.559 0.773646 190.5C0.773646 190.44 -6.79653 190.154 68.6147 190.154C144.026 190.154 210 190.436 210 190.5Z" fill="#263238"/>
<g clip-path="url(#clip1_171_20394)">
<path d="M187.2 103.875C186.11 82.4561 177.174 61.0932 161.071 46.6491C135.756 23.9361 86.4401 24.4235 60.4549 45.7864C51.4425 53.1961 46.1367 62.9868 44.0642 74.3451C41.8479 86.5029 44.7445 99.7092 39.9753 111.415C35.8759 121.468 25.7729 127.633 22.0276 137.806C17.5565 149.95 19.9446 165.383 29.6514 174.406C42.0829 185.967 64.2703 190.424 80.6188 192.108C130.552 197.255 183.196 168.248 187.095 114.041C187.337 110.657 187.369 107.256 187.197 103.868L187.2 103.875Z" fill="#FFECB2"/>
<path d="M154.07 112.121V82.1194H158.404V79.0247H171.411V81.5005H174.818V132.843H184.11V141.812H189.992" stroke="#263238" stroke-width="0.5" stroke-miterlimit="10"/>
<path d="M111.954 116.139V92.9453H120.934V98.5121H125.269V90.4695H134.869V125.108H142.922V137.479H149.423V118.307H154.07V114.286" stroke="#263238" stroke-width="0.5" stroke-miterlimit="10"/>
<path d="M78.1987 100.677V141.812H83.4608V117.688H90.894V138.098H111.954V119.853" stroke="#263238" stroke-width="0.5" stroke-miterlimit="10"/>
<path d="M61.7852 130.986V80.2625H78.1989V97.2741" stroke="#263238" stroke-width="0.5" stroke-miterlimit="10"/>
<path d="M29.8892 116.139V122.017H34.5315V95.4175H53.1124V136.553H61.7851V132.532" stroke="#263238" stroke-width="0.5" stroke-miterlimit="10"/>
<path d="M9.75684 141.812H16.5702V103.46H29.8891V113.048" stroke="#263238" stroke-width="0.5" stroke-miterlimit="10"/>
<path d="M175.438 56.1388C175.438 56.1388 172.959 51.191 168.316 51.8099C163.67 52.4289 163.05 57.0691 161.815 57.3767C160.579 57.6842 157.788 55.8312 155.929 56.7577C154.07 57.6842 152.834 59.8487 152.834 59.8487C152.834 59.8487 150.355 58.9221 148.5 59.8487C146.644 60.7752 145.713 62.632 145.713 62.632H184.422C184.422 62.632 184.114 57.6842 181.327 56.7539C178.54 55.8274 176.681 58.6108 175.442 56.1349L175.438 56.1388Z" stroke="#263238" stroke-width="0.5" stroke-miterlimit="10"/>
<path d="M122.163 73.9155C122.163 73.9155 120.33 70.2594 116.897 70.713C113.463 71.1705 113.005 74.5998 112.089 74.8266C111.173 75.0534 109.113 73.6848 107.739 74.3691C106.365 75.0534 105.449 76.6566 105.449 76.6566C105.449 76.6566 103.616 75.9722 102.242 76.6566C100.868 77.3409 100.183 78.7133 100.183 78.7133H128.799C128.799 78.7133 128.572 75.0534 126.508 74.3691C124.449 73.6848 123.075 75.7416 122.159 73.9116L122.163 73.9155Z" stroke="#263238" stroke-width="0.5" stroke-miterlimit="10"/>
<path d="M25.216 60.7443C25.216 60.7443 23.6686 57.6572 20.77 58.0417C17.8714 58.4261 17.4826 61.3248 16.7089 61.5171C15.9352 61.7093 14.1953 60.5521 13.0366 61.1326C11.878 61.7131 11.1042 63.0625 11.1042 63.0625C11.1042 63.0625 9.55678 62.482 8.39812 63.0625C7.23946 63.643 6.6582 64.8002 6.6582 64.8002H30.8207C30.8207 64.8002 30.6282 61.7131 28.8883 61.1326C27.1484 60.5521 25.9898 62.2898 25.216 60.7482V60.7443Z" stroke="#263238" stroke-width="0.5" stroke-miterlimit="10"/>
<path d="M122.944 43.3022L98.3809 24.426L141.336 43.456" stroke="#263238" stroke-width="0.5" stroke-linecap="round" stroke-linejoin="round"/>
<path d="M37.9883 134.392V53.3784" stroke="#263238" stroke-width="0.5" stroke-linecap="round" stroke-linejoin="round"/>
<path d="M43.3813 134.392V53.3784" stroke="#263238" stroke-width="0.5" stroke-linecap="round" stroke-linejoin="round"/>
<path d="M47.5346 44.4363H33.5151V51.3524H47.5346V44.4363Z" fill="#263238" stroke="#263238" stroke-width="0.5" stroke-linecap="round" stroke-linejoin="round"/>
<path d="M46.1334 55.4007H34.9163L33.5151 51.3525H47.5346L46.1334 55.4007Z" fill="#263238" stroke="#263238" stroke-width="0.5" stroke-linecap="round" stroke-linejoin="round"/>
<path d="M26.3091 38.2622L98.3809 24.426L67.6475 38.2622" stroke="#263238" stroke-width="0.5" stroke-linecap="round" stroke-linejoin="round"/>
<path d="M94.208 44.1518L100.971 38.6235L96.6447 34.0832L99.3508 29.7083" stroke="#263238" stroke-width="0.5" stroke-linecap="round" stroke-linejoin="round"/>
<path d="M102.646 182.394H94.208V44.1519L98.3807 24.426L102.646 44.1519V182.394Z" stroke="#263238" stroke-width="0.5" stroke-linecap="round" stroke-linejoin="round"/>
<path d="M102.646 67.0801L94.2656 75.4494H102.045" stroke="#263238" stroke-width="0.5" stroke-linecap="round" stroke-linejoin="round"/>
<path d="M102.646 59.4375L94.2656 67.8069H102.045" stroke="#263238" stroke-width="0.5" stroke-linecap="round" stroke-linejoin="round"/>
<path d="M102.646 51.7947L94.2656 60.1602H102.045" stroke="#263238" stroke-width="0.5" stroke-linecap="round" stroke-linejoin="round"/>
<path d="M102.646 44.1519L94.2656 52.5174H102.045" stroke="#263238" stroke-width="0.5" stroke-linecap="round" stroke-linejoin="round"/>
<path d="M102.646 76.0684L94.2656 84.4339H102.045" stroke="#263238" stroke-width="0.5" stroke-linecap="round" stroke-linejoin="round"/>
<path d="M102.646 85.0566L94.2656 93.4221H102.045" stroke="#263238" stroke-width="0.5" stroke-linecap="round" stroke-linejoin="round"/>
<path d="M102.646 94.0452L94.2656 102.411H102.045" stroke="#263238" stroke-width="0.5" stroke-linecap="round" stroke-linejoin="round"/>
<path d="M102.646 103.033L94.2656 111.399H102.045" stroke="#263238" stroke-width="0.5" stroke-linecap="round" stroke-linejoin="round"/>
<path d="M102.646 112.022L94.2656 120.387H102.045" stroke="#263238" stroke-width="0.5" stroke-linecap="round" stroke-linejoin="round"/>
<path d="M102.646 121.01L94.2656 129.376H102.045" stroke="#263238" stroke-width="0.5" stroke-linecap="round" stroke-linejoin="round"/>
<path d="M102.646 129.994L94.2656 138.364H102.045" stroke="#263238" stroke-width="0.5" stroke-linecap="round" stroke-linejoin="round"/>
<path d="M102.646 138.983L94.2656 147.352H102.045" stroke="#263238" stroke-width="0.5" stroke-linecap="round" stroke-linejoin="round"/>
<path d="M102.646 147.971L94.2656 156.337H102.045" stroke="#263238" stroke-width="0.5" stroke-linecap="round" stroke-linejoin="round"/>
<path d="M102.646 156.959L94.2656 165.325H102.045" stroke="#263238" stroke-width="0.5" stroke-linecap="round" stroke-linejoin="round"/>
<path d="M102.646 165.948L94.2656 174.313H102.045" stroke="#263238" stroke-width="0.5" stroke-linecap="round" stroke-linejoin="round"/>
<path d="M113.293 180.991H83.5337V185.662H113.293V180.991Z" fill="#263238"/>
<path d="M123.594 184.97H73.2329V189.752H123.594V184.97Z" fill="#FFC100" stroke="#263238" stroke-width="0.5" stroke-linecap="round" stroke-linejoin="round"/>
<path d="M103.739 58.0686H93.1113V67.3183H103.739V58.0686Z" fill="#FFC100" stroke="#263238" stroke-width="0.5" stroke-linecap="round" stroke-linejoin="round"/>
<path d="M105.567 71.2244H91.2861V75.0073H105.567V71.2244Z" fill="#FFC100" stroke="#263238" stroke-width="0.5" stroke-linecap="round" stroke-linejoin="round"/>
<path d="M105.618 71.2282H91.2363L93.111 67.4453H103.739L105.618 71.2282Z" fill="#FFC100" stroke="#263238" stroke-width="0.5" stroke-linecap="round" stroke-linejoin="round"/>
<path d="M104.382 58.2225H93.1113V47.7964H105.137C105.807 47.7964 106.334 48.3731 106.272 49.0381L105.518 57.1922C105.464 57.7766 104.971 58.2264 104.382 58.2264V58.2225Z" fill="#FFC100" stroke="#263238" stroke-width="0.5" stroke-linecap="round" stroke-linejoin="round"/>
<path d="M97.665 50.0454V56.1004C97.665 56.3349 97.8421 56.5348 98.0769 56.5617L102.088 56.9961C103.154 57.1115 104.082 56.2772 104.082 55.2085V50.0492C104.082 49.7955 103.874 49.5879 103.62 49.5879H98.127C97.8729 49.5879 97.665 49.7955 97.665 50.0492V50.0454Z" fill="#263238" stroke="#263238" stroke-width="0.5" stroke-linecap="round" stroke-linejoin="round"/>
<path d="M126.52 44.7438H13.3252L18.0869 38.6926H87.9953L91.0248 44.0979" stroke="#263238" stroke-width="0.5" stroke-linecap="round" stroke-linejoin="round"/>
<path d="M18.0869 38.6926V44.5285L23.7147 38.9079" stroke="#263238" stroke-width="0.5" stroke-linecap="round" stroke-linejoin="round"/>
<path d="M23.9302 38.6926V44.5285L29.558 38.9079" stroke="#263238" stroke-width="0.5" stroke-linecap="round" stroke-linejoin="round"/>
<path d="M29.7734 38.6926V44.5285L35.4012 38.9079" stroke="#263238" stroke-width="0.5" stroke-linecap="round" stroke-linejoin="round"/>
<path d="M35.6172 38.6926V44.5285L41.245 38.9079" stroke="#263238" stroke-width="0.5" stroke-linecap="round" stroke-linejoin="round"/>
<path d="M41.4604 38.6926V44.5285L47.0882 38.9079" stroke="#263238" stroke-width="0.5" stroke-linecap="round" stroke-linejoin="round"/>
<path d="M47.3037 38.6926V44.5285L52.9315 38.9079" stroke="#263238" stroke-width="0.5" stroke-linecap="round" stroke-linejoin="round"/>
<path d="M53.147 38.6926V44.5285L58.7748 38.9079" stroke="#263238" stroke-width="0.5" stroke-linecap="round" stroke-linejoin="round"/>
<path d="M58.9902 38.6926V44.5285L64.618 38.9079" stroke="#263238" stroke-width="0.5" stroke-linecap="round" stroke-linejoin="round"/>
<path d="M64.8335 38.6926V44.5285L70.4613 38.9079" stroke="#263238" stroke-width="0.5" stroke-linecap="round" stroke-linejoin="round"/>
<path d="M70.6807 38.6926V44.5285L76.3046 38.9079" stroke="#263238" stroke-width="0.5" stroke-linecap="round" stroke-linejoin="round"/>
<path d="M76.5244 38.6926V44.5285L82.1483 38.9079" stroke="#263238" stroke-width="0.5" stroke-linecap="round" stroke-linejoin="round"/>
<path d="M82.3677 38.6926V44.5285L87.9955 38.9079" stroke="#263238" stroke-width="0.5" stroke-linecap="round" stroke-linejoin="round"/>
<path d="M98.3811 26.5865C99.5759 26.5865 100.544 25.6192 100.544 24.426C100.544 23.2327 99.5759 22.2654 98.3811 22.2654C97.1863 22.2654 96.2178 23.2327 96.2178 24.426C96.2178 25.6192 97.1863 26.5865 98.3811 26.5865Z" fill="#FFC100" stroke="#263238" stroke-width="0.5" stroke-linecap="round" stroke-linejoin="round"/>
<path d="M141.336 43.4561H121.031V45.9165H141.336V43.4561Z" fill="#FFC100" stroke="#263238" stroke-width="0.5" stroke-linecap="round" stroke-linejoin="round"/>
<path d="M137.806 45.874H124.564V48.3345H137.806V45.874Z" fill="#FFC100" stroke="#263238" stroke-width="0.5" stroke-linecap="round" stroke-linejoin="round"/>
<path d="M131.855 48.3384H125.969V55.7197H131.855V48.3384Z" fill="#949494" stroke="#263238" stroke-width="0.5" stroke-linecap="round" stroke-linejoin="round"/>
<path d="M104.659 44.0981V37.3972H140.585V43.4561" stroke="#263238" stroke-width="0.5" stroke-linecap="round" stroke-linejoin="round"/>
<path d="M121.031 43.456V37.3779" stroke="#263238" stroke-width="0.5" stroke-linecap="round" stroke-linejoin="round"/>
<path d="M115.476 44.4902V37.3779" stroke="#263238" stroke-width="0.5" stroke-linecap="round" stroke-linejoin="round"/>
<path d="M109.783 44.4902V37.3779" stroke="#263238" stroke-width="0.5" stroke-linecap="round" stroke-linejoin="round"/>
<path d="M127.867 43.456V37.3779" stroke="#263238" stroke-width="0.5" stroke-linecap="round" stroke-linejoin="round"/>
<path d="M134.704 43.456V37.3779" stroke="#263238" stroke-width="0.5" stroke-linecap="round" stroke-linejoin="round"/>
<path d="M104.855 40.7917H140.312" stroke="#263238" stroke-width="0.5" stroke-linecap="round" stroke-linejoin="round"/>
<path d="M45.968 43.3906H35.3398V48.719H45.968V43.3906Z" fill="#FFC100" stroke="#263238" stroke-width="0.5" stroke-linecap="round" stroke-linejoin="round"/>
<path d="M37.1257 43.3906H35.4897L40.825 48.7152H42.4571L37.1257 43.3906Z" fill="#263238"/>
<path d="M37.4455 48.7151H39.0814L35.3398 44.9822V46.6122L37.4455 48.7151Z" fill="#263238"/>
<path d="M40.5018 43.3906H38.8696L44.2049 48.7152H45.837L40.5018 43.3906Z" fill="#263238"/>
<path d="M43.8816 43.3906H42.2495L45.9719 47.1082V45.4743L43.8816 43.3906Z" fill="#263238"/>
<path d="M40.7792 140.878V141.958C40.7792 142.785 39.8014 143.635 39.3664 144.269C38.1385 146.06 38.8699 149.382 41.3989 149.428C43.5584 149.467 44.0742 147.41 43.8202 145.668" stroke="#263238" stroke-width="0.5" stroke-linecap="round" stroke-linejoin="round"/>
<path d="M40.7793 137.576V140.882" stroke="#263238" stroke-width="0.5" stroke-linecap="round" stroke-linejoin="round"/>
<path d="M43.3237 139.144V131.813H37.9885V139.144H43.3237Z" fill="#FFC100" stroke="#263238" stroke-width="0.5" stroke-linecap="round" stroke-linejoin="round"/>
<path d="M43.3235 133.043V131.917L37.9883 135.596V136.722L43.3235 133.043Z" fill="#263238"/>
<path d="M37.9883 133.266V134.392L41.726 131.813H40.0939L37.9883 133.266Z" fill="#263238"/>
<path d="M43.3235 135.376V134.25L37.9883 137.929V139.056L43.3235 135.376Z" fill="#263238"/>
<path d="M43.3234 137.706V136.58L39.6011 139.148H41.2332L43.3234 137.706Z" fill="#263238"/>
<path d="M40.5248 57.7649C39.9166 57.7649 39.4277 57.2728 39.4277 56.6693V54.897H41.6219V56.6693C41.6219 57.2767 41.1292 57.7649 40.5248 57.7649Z" fill="#FFC100" stroke="#263238" stroke-width="0.5" stroke-linecap="round" stroke-linejoin="round"/>
<path d="M133.706 130.686L126.345 125.774C123.897 125.197 121.147 126.95 120.637 129.411C118.205 128.902 115.623 130.606 114.787 132.942C113.951 135.279 114.681 138.004 116.297 139.893C117.913 141.783 120.293 142.9 122.732 143.384C126.24 144.079 130.341 143.313 132.444 140.421C134.424 137.709 134.113 134.019 133.706 130.686Z" fill="#263238"/>
<path d="M165.259 125.11C165.231 123.864 164.857 122.651 164.179 121.606C163.501 120.56 162.545 119.723 161.418 119.189C162.26 116.254 163.186 113.172 162.537 110.19C161.067 103.45 154.987 102.525 151.929 102.569L141.881 108.98C139.19 112.024 142.567 128.738 143.779 132.613C144.409 134.55 145.518 136.297 147.002 137.693C148.487 139.089 150.3 140.089 152.274 140.601C155.07 141.299 158.296 140.855 160.439 138.913C162.583 136.97 163.264 133.395 161.524 131.087C162.639 130.533 163.579 129.681 164.238 128.626C164.897 127.571 165.251 126.354 165.259 125.11Z" fill="#263238"/>
<path d="M113.656 153.14L114.588 194.285L169.5 194.499C169.5 194.499 165.423 136.744 164.252 136.179C163.366 135.76 152.516 132.204 152.516 132.204L147.691 130.801L127.75 134.624L120.516 136.204L113.656 153.14Z" fill="#455A64"/>
<path d="M116.837 146.267C116.837 146.159 122.082 135.859 122.082 135.859C116.943 136.399 112.354 138.212 109.371 142.118C107.982 143.937 107.36 146.692 106.668 148.657C106.201 149.988 102.042 194.423 102.042 194.423H114.552L116.837 146.267Z" fill="#455A64"/>
<path d="M136.191 161.333L124.695 134.854C120.507 135.785 115.799 136.846 112.798 138.776L114.386 158.239L114.153 194.499L136.151 194.614L137.506 168.811L136.191 161.333Z" fill="#FFC100"/>
<path d="M165.491 168.079L163.124 135.375L149.782 131.108L136.157 161.109V194.614L169.829 194.502L165.491 168.079Z" fill="#FFC100"/>
<path d="M165.495 168.079C165.495 168.079 165.526 168.237 165.579 168.544C165.631 168.852 165.709 169.314 165.812 169.91C166.014 171.114 166.309 172.886 166.691 175.167C167.446 179.731 168.54 186.338 169.888 194.493V194.561H169.845L136.173 194.691H136.095V194.614C136.095 186.409 136.095 177.475 136.095 168.206V161.081C141.004 150.283 145.625 140.12 149.729 131.083L149.757 131.028L149.816 131.046L163.143 135.325H163.183V135.369C163.898 145.386 164.479 153.563 164.883 159.235C165.081 162.071 165.237 164.281 165.339 165.783C165.392 166.531 165.429 167.105 165.454 167.492C165.479 167.88 165.488 168.076 165.488 168.076C165.488 168.076 165.467 167.88 165.436 167.496C165.405 167.111 165.361 166.534 165.305 165.786C165.19 164.284 165.026 162.078 164.814 159.244C164.395 153.569 163.795 145.395 163.056 135.378L163.099 135.434L149.757 131.173L149.844 131.136C145.743 140.173 141.144 150.338 136.229 161.14V161.106V168.219C136.229 177.488 136.229 186.422 136.229 194.626L136.151 194.549L169.823 194.456L169.764 194.524C168.437 186.363 167.362 179.756 166.616 175.185C166.25 172.904 165.964 171.132 165.768 169.928C165.675 169.33 165.603 168.87 165.554 168.56C165.504 168.25 165.495 168.079 165.495 168.079Z" fill="#263238"/>
<path d="M161.862 167.219H114.584V173.392H161.862V167.219Z" fill="white"/>
<path d="M163.354 135.844C163.354 135.844 166.426 135.807 170.879 143.797C175.878 152.768 179.072 164.154 179.072 164.154L166.765 170.863L163.354 135.844Z" fill="#455A64"/>
<path d="M117.303 136.759L118.642 194.502L123.906 194.53L122.082 135.403C122.082 135.403 118.13 136.331 117.303 136.759Z" fill="white"/>
<path d="M154.604 132.651L152.992 194.53H159.874L160.197 134.513L154.604 132.651Z" fill="white"/>
<g opacity="0.3">
<path d="M140.485 149.175C140.615 150.393 141.026 151.565 141.685 152.598C142.344 153.631 143.234 154.498 144.285 155.13C145.289 155.722 146.432 156.095 147.312 156.861C148.191 157.628 148.682 158.627 149.176 159.632C152.904 167.095 156.633 174.577 159.52 182.409C160.163 184.16 160.762 185.947 161.803 187.505C162.844 189.063 164.357 190.388 166.194 190.741C168.03 191.095 170.155 190.251 170.885 188.535L147.666 145.256L140.485 149.175Z" fill="black"/>
</g>
<path d="M136.157 161.109C136.157 161.109 136.157 161.314 136.157 161.73C136.157 162.146 136.157 162.729 136.157 163.508C136.157 165.06 136.157 167.359 136.176 170.279C136.176 176.129 136.195 184.504 136.207 194.626V194.695H136.139L114.103 194.577H114.025V194.496C114.066 187.979 114.109 180.957 114.153 173.705C114.187 168.327 114.221 163.08 114.255 158.04C113.708 151.213 113.189 144.753 112.702 138.801V138.739L112.739 138.714C114.69 137.522 116.778 136.79 118.798 136.176C120.817 135.561 122.803 135.118 124.701 134.692H124.754L124.773 134.742L133.084 153.981C134.066 156.268 134.834 158.05 135.352 159.257L135.94 160.635C136.073 160.945 136.135 161.106 136.135 161.106C136.135 161.106 136.061 160.948 135.921 160.638L135.356 159.266L133.053 153.991L124.695 134.773L124.767 134.81C122.874 135.235 120.901 135.698 118.882 136.3C116.862 136.902 114.787 137.647 112.857 138.832L112.891 138.764C113.373 144.719 113.898 151.176 114.445 158.003C114.414 163.046 114.38 168.29 114.345 173.668C114.299 180.929 114.252 187.942 114.212 194.459L114.134 194.381L136.167 194.521L136.098 194.586C136.098 184.464 136.12 176.088 136.129 170.239C136.129 167.322 136.129 165.032 136.148 163.471C136.148 162.695 136.148 162.099 136.148 161.693C136.148 161.286 136.157 161.109 136.157 161.109Z" fill="#263238"/>
<path d="M117.335 101.343C116.97 100.767 116.762 100.106 116.731 99.4249C116.7 98.7441 116.848 98.0669 117.158 97.46C117.469 96.8532 117.933 96.3376 118.503 95.964C119.074 95.5904 119.733 95.3717 120.414 95.3293L126.628 96.2355L124.82 106.721C124.649 107.723 124.444 108.788 123.748 109.529C123.397 109.862 122.983 110.121 122.529 110.289C122.076 110.458 121.593 110.533 121.11 110.51C120.05 110.502 119.015 110.182 118.137 109.59C117.258 108.997 116.574 108.159 116.171 107.18C115.768 106.201 115.663 105.124 115.87 104.086C116.077 103.048 116.587 102.093 117.335 101.343Z" fill="#263238"/>
<path d="M136.157 141.637C141.346 141.637 146.957 136.166 147.06 130.984L147.613 102.584C148.045 94.2059 143.524 86.9818 135.132 86.7832L134.355 86.8111C130.586 86.9413 127.004 88.4837 124.323 91.1316C121.641 93.7795 120.055 97.3387 119.882 101.101C119.55 108.359 119.835 114.916 120.019 118.789C120.398 126.826 127.914 128.098 127.914 128.098C127.914 128.098 127.268 135.173 128.374 137.259C130.859 141.932 132.823 141.532 136.157 141.603V141.637Z" fill="#FFBF9D"/>
<path d="M127.852 128.126C127.852 128.126 132.938 128.25 138.227 124.669C138.227 124.669 135.825 130.758 127.768 130.311L127.852 128.126Z" fill="#FF9A6C"/>
<path d="M123.573 107.546C123.581 107.846 123.706 108.13 123.921 108.339C124.135 108.548 124.423 108.666 124.723 108.666C124.87 108.673 125.016 108.65 125.154 108.599C125.291 108.548 125.417 108.47 125.524 108.369C125.631 108.269 125.717 108.148 125.777 108.015C125.837 107.881 125.869 107.736 125.873 107.59C125.864 107.29 125.74 107.006 125.525 106.797C125.311 106.587 125.023 106.47 124.723 106.469C124.576 106.463 124.43 106.486 124.292 106.536C124.154 106.587 124.028 106.665 123.921 106.766C123.813 106.866 123.727 106.987 123.668 107.121C123.608 107.255 123.576 107.399 123.573 107.546Z" fill="#263238"/>
<path d="M121.877 104.217C122.023 104.359 122.871 103.686 124.108 103.646C125.344 103.605 126.283 104.195 126.404 104.037C126.466 103.968 126.311 103.705 125.907 103.416C125.358 103.065 124.715 102.892 124.064 102.919C123.421 102.939 122.801 103.163 122.293 103.559C121.924 103.875 121.802 104.151 121.877 104.217Z" fill="#263238"/>
<path d="M134.837 107.546C134.844 107.845 134.968 108.13 135.182 108.339C135.396 108.548 135.684 108.666 135.983 108.666C136.13 108.673 136.277 108.65 136.415 108.599C136.552 108.549 136.679 108.471 136.786 108.37C136.893 108.27 136.979 108.149 137.039 108.015C137.098 107.881 137.13 107.736 137.133 107.59C137.127 107.288 137.002 107.002 136.785 106.792C136.569 106.581 136.279 106.465 135.977 106.466C135.831 106.461 135.685 106.485 135.548 106.536C135.411 106.588 135.286 106.666 135.18 106.767C135.074 106.868 134.989 106.988 134.93 107.122C134.871 107.256 134.839 107.4 134.837 107.546Z" fill="#263238"/>
<path d="M134.01 104.294C134.159 104.437 135.008 103.763 136.244 103.723C137.481 103.683 138.419 104.272 138.54 104.114C138.603 104.046 138.45 103.779 138.043 103.494C137.495 103.142 136.852 102.968 136.201 102.997C135.556 103.017 134.935 103.24 134.427 103.636C134.06 103.956 133.939 104.232 134.01 104.294Z" fill="#263238"/>
<path d="M129.903 113.942C129.903 113.873 129.132 113.768 127.88 113.65C127.569 113.628 127.258 113.576 127.202 113.365C127.147 113.154 127.24 112.794 127.38 112.434C127.651 111.66 127.935 110.848 128.231 109.998C129.409 106.535 130.251 103.689 130.111 103.642C129.971 103.596 128.902 106.367 127.724 109.833C127.442 110.687 127.168 111.503 126.914 112.282C126.805 112.642 126.603 113.057 126.792 113.523C126.842 113.633 126.915 113.73 127.008 113.807C127.101 113.884 127.21 113.938 127.327 113.967C127.504 114.009 127.685 114.028 127.867 114.022C129.123 114.035 129.899 114.013 129.903 113.942Z" fill="#263238"/>
<path d="M131.04 118.451C131.327 118.731 131.713 118.887 132.115 118.885C132.539 118.876 132.943 118.701 133.24 118.398C133.774 117.908 133.876 117.113 133.774 116.434C133.758 116.317 133.716 116.206 133.65 116.108C133.647 116.045 133.634 115.984 133.612 115.925C133.541 115.742 133.433 115.576 133.295 115.437C133.157 115.298 132.993 115.188 132.811 115.115C132.437 114.97 132.026 114.95 131.639 115.059C131.322 115.166 131.041 115.36 130.829 115.618C130.616 115.876 130.48 116.189 130.437 116.521C130.38 116.867 130.405 117.222 130.51 117.557C130.614 117.892 130.796 118.198 131.04 118.451Z" fill="#FF9A6C"/>
<path d="M133.979 115.043C133.787 114.988 133.476 116.285 132.137 116.955C130.798 117.625 129.44 117.147 129.387 117.327C129.35 117.405 129.636 117.653 130.223 117.808C130.986 117.998 131.792 117.915 132.5 117.573C133.18 117.241 133.703 116.659 133.961 115.95C134.141 115.416 134.069 115.059 133.979 115.043Z" fill="#263238"/>
<path d="M133.693 100.027C133.827 100.359 135.054 100.158 136.515 100.282C137.975 100.406 139.159 100.763 139.339 100.453C139.423 100.307 139.205 99.9964 138.718 99.6892C138.072 99.3143 137.349 99.0914 136.603 99.0377C135.858 98.9839 135.111 99.1006 134.417 99.3788C133.892 99.5992 133.634 99.8722 133.693 100.027Z" fill="#263238"/>
<path d="M122.203 99.6395C122.43 99.9126 123.272 99.5898 124.297 99.5433C125.323 99.4967 126.196 99.6643 126.385 99.3633C126.469 99.2206 126.323 98.9413 125.935 98.6899C125.414 98.3898 124.816 98.2505 124.216 98.2897C123.616 98.3289 123.041 98.5448 122.564 98.9102C122.212 99.2237 122.104 99.5185 122.203 99.6395Z" fill="#263238"/>
<path d="M147.321 108.397C147.455 108.335 152.796 106.572 152.812 112.074C152.827 117.576 147.29 116.459 147.281 116.3C147.272 116.142 147.321 108.397 147.321 108.397Z" fill="#FFBF9D"/>
<path d="M148.959 114.224C148.98 114.206 149.055 114.289 149.216 114.364C149.447 114.457 149.704 114.457 149.934 114.364C150.515 114.15 151.003 113.225 151.028 112.232C151.039 111.76 150.946 111.292 150.755 110.86C150.702 110.689 150.609 110.533 150.483 110.406C150.356 110.278 150.201 110.183 150.031 110.128C149.92 110.099 149.803 110.109 149.7 110.157C149.596 110.205 149.513 110.288 149.465 110.392C149.39 110.547 149.428 110.656 149.397 110.665C149.366 110.674 149.279 110.572 149.322 110.355C149.352 110.218 149.429 110.096 149.54 110.01C149.614 109.953 149.699 109.911 149.79 109.886C149.88 109.862 149.975 109.855 150.068 109.867C150.294 109.912 150.506 110.013 150.682 110.162C150.858 110.311 150.993 110.502 151.075 110.718C151.311 111.193 151.426 111.72 151.41 112.251C151.379 113.362 150.814 114.398 150.018 114.631C149.87 114.675 149.714 114.684 149.562 114.66C149.41 114.635 149.265 114.576 149.139 114.488C148.968 114.342 148.94 114.224 148.959 114.224Z" fill="#FF9A6C"/>
<path d="M140.457 95.2952C141.11 94.6466 142.057 94.4108 142.968 94.3022C145.358 94.0183 147.781 94.4108 149.959 95.4348C151.093 95.9717 152.187 96.7164 152.799 97.8118C153.411 98.9072 153.42 100.406 152.556 101.315C153.373 101.794 153.985 102.555 154.277 103.455C154.568 104.355 154.518 105.331 154.137 106.196C153.755 107.062 153.068 107.757 152.207 108.15C151.346 108.544 150.37 108.607 149.465 108.328C149.423 108.749 149.275 109.153 149.035 109.502C148.795 109.85 148.47 110.132 148.092 110.322C147.713 110.511 147.292 110.601 146.869 110.584C146.446 110.567 146.033 110.443 145.671 110.224C145.293 109.984 144.958 109.682 144.68 109.331C143.627 107.981 143.521 105.421 143.81 103.745C143.257 103.724 142.716 103.579 142.228 103.32C141.739 103.061 141.315 102.695 140.989 102.249C140.342 101.351 139.916 100.314 139.746 99.2206C139.472 97.8429 139.482 96.2696 140.457 95.2952Z" fill="#263238"/>
<path d="M142.462 80.729C142.837 80.8066 151.873 83.4846 153.712 90.4635C155.552 97.4425 154.741 99.4936 154.741 99.4936C155.082 99.7445 155.387 100.042 155.645 100.378C155.996 100.853 155.294 102.966 154.113 102.643C145.413 98.0879 134.849 96.9832 122.996 96.5643L113.954 95.8506C111.403 95.9778 110.558 95.2455 111.667 94.6807C112.518 94.2493 119.901 91.8444 119.901 91.8444L121.383 90.9135L125.463 85.9857C125.463 85.9857 125.049 85.2347 126.003 84.6979C126.957 84.1611 135.045 79.193 142.462 80.729Z" fill="#FFC100"/>
<g opacity="0.3">
<path d="M150.58 85.3091C150.58 85.3091 140.799 83.0562 136.232 84.8871L136.763 84.6637L132.457 86.2152C131.73 86.479 130.881 86.7304 130.223 86.3269C130.223 86.3269 132.59 84.4651 136.819 83.3479C141.048 82.2308 147.647 82.0695 150.58 85.3091Z" fill="black"/>
</g>
<path d="M150.711 85.3652C150.445 85.1375 150.163 84.93 149.866 84.7445C149.06 84.2083 148.193 83.7688 147.284 83.435C145.936 82.9372 144.523 82.6383 143.089 82.5475C141.33 82.3894 139.558 82.6095 137.891 83.193C137.04 83.5186 136.21 83.8958 135.405 84.3225C134.629 84.7352 133.852 85.0921 133.165 85.5079C132.53 85.9251 131.86 86.2884 131.164 86.594C130.547 86.8279 129.885 86.916 129.228 86.8516C126.796 86.7243 125.338 86.1254 125.456 85.9765C125.49 86.0653 125.555 86.1384 125.64 86.1813C125.869 86.3158 126.114 86.4201 126.37 86.4916C127.3 86.7562 128.257 86.9164 129.222 86.9695C129.895 87.0424 130.576 86.9574 131.211 86.7212C131.916 86.4193 132.594 86.057 133.237 85.6382C133.926 85.2317 134.697 84.8749 135.474 84.4653C136.272 84.0424 137.094 83.6683 137.938 83.345C139.583 82.7606 141.334 82.5342 143.074 82.681C144.496 82.7608 145.9 83.0461 147.24 83.5281C148.146 83.8504 149.013 84.2719 149.825 84.7849C150.114 84.9649 150.332 85.1169 150.478 85.2224C150.624 85.3279 150.711 85.3652 150.711 85.3652Z" fill="#263238"/>
<g opacity="0.3">
<path d="M154.384 93.3712C152.613 93.2408 151.299 92.6916 149.565 92.192C147.701 91.6582 145.88 91.2114 144.062 90.5908C142.679 90.1191 141.039 89.6598 140.188 88.5955C140.095 88.9368 140.093 89.296 140.181 89.6385C140.268 89.981 140.443 90.2951 140.688 90.5504C141.191 91.1028 142.897 91.832 143.605 92.0772C147.645 93.4674 150.441 94.4045 154.676 94.9817C154.614 94.439 154.517 93.901 154.384 93.3712Z" fill="black"/>
</g>
<path d="M153.476 89.7094C154.567 90.271 155.235 90.6403 155.204 91.6023C155.179 92.3998 154.952 93.3618 154.16 93.4487C153.915 93.4593 153.671 93.4246 153.439 93.3462L141.368 90.0755C140.946 90.0102 140.561 89.8007 140.277 89.4828C139.911 88.946 140.252 88.1578 140.815 87.8289C141.377 87.4999 142.058 87.5186 142.713 87.5372C146.407 87.7141 149.962 88.5612 153.476 89.7094Z" fill="#FFC100"/>
<path d="M140.455 89.6598C140.3 89.509 140.193 89.3173 140.144 89.1074C140.095 88.8246 140.126 88.534 140.233 88.2678C140.34 88.0015 140.519 87.7701 140.75 87.5993C141.371 87.1897 142.285 87.1028 143.235 87.2176C144.186 87.3324 145.289 87.472 146.411 87.6551C148.329 87.9509 150.218 88.4161 152.053 89.0453C152.756 89.2905 153.296 89.5263 153.694 89.6877L154.135 89.8801C154.184 89.9066 154.236 89.9264 154.291 89.939C154.247 89.9054 154.199 89.8773 154.148 89.8552L153.719 89.6349C153.343 89.4549 152.787 89.2036 152.091 88.9429C150.257 88.2812 148.363 87.8 146.436 87.5062C145.308 87.32 144.233 87.1959 143.248 87.0779C142.263 86.96 141.315 87.0779 140.675 87.5124C140.431 87.6947 140.245 87.9431 140.139 88.2281C140.033 88.5131 140.011 88.8227 140.076 89.1198C140.115 89.2787 140.19 89.4263 140.296 89.5511C140.405 89.6318 140.452 89.666 140.455 89.6598Z" fill="#263238"/>
<path d="M124.182 87.5281L131.891 87.8787L131.099 90.0013L122.741 89.272L124.182 87.5281Z" fill="white"/>
<path d="M135.374 95.1213C135.374 95.0778 131.984 94.3641 127.784 93.52C123.583 92.676 120.168 92.0305 120.159 92.0709C120.149 92.1112 123.549 92.828 127.752 93.6721C131.956 94.5162 135.356 95.1616 135.374 95.1213Z" fill="#263238"/>
<path d="M125.603 134.854L127.778 130.931L136.157 141.637L147.837 127.239L149.546 131.63L140.486 147.459L136.642 142.255L135.729 142.388L132.559 147.89L125.603 134.854Z" fill="#E0E0E0"/>
<path d="M143.723 142.702C143.652 142.841 143.568 142.974 143.475 143.099C143.307 143.35 143.064 143.719 142.776 144.172C142.014 145.375 141.336 146.629 140.747 147.924L140.684 148.058L140.604 147.933L140.364 147.555C139.376 146.068 138.37 144.796 137.692 143.831C137.347 143.356 137.071 142.965 136.903 142.689C136.802 142.551 136.715 142.404 136.642 142.249C136.756 142.375 136.859 142.51 136.953 142.652L137.782 143.766C138.485 144.697 139.507 145.963 140.498 147.462C140.582 147.592 140.666 147.719 140.74 147.84H140.601C141.192 146.539 141.888 145.287 142.682 144.098C142.993 143.645 143.242 143.288 143.425 143.049C143.514 142.925 143.614 142.809 143.723 142.702Z" fill="#263238"/>
<path d="M153.197 102.268C153.282 102.334 153.357 102.414 153.417 102.504C153.599 102.737 153.752 102.991 153.874 103.261C154.297 104.158 154.395 105.174 154.153 106.136C153.91 107.098 153.342 107.946 152.544 108.536C152.309 108.714 152.053 108.864 151.783 108.983C151.686 109.035 151.581 109.07 151.472 109.089C151.819 108.898 152.152 108.683 152.47 108.446C153.22 107.853 153.754 107.029 153.988 106.102C154.222 105.176 154.144 104.198 153.765 103.32C153.601 102.956 153.411 102.605 153.197 102.268Z" fill="#455A64"/>
<path d="M135.728 142.388C135.728 142.388 135.728 142.428 135.688 142.5L135.548 142.81C135.421 143.086 135.238 143.487 134.97 143.986C134.266 145.343 133.482 146.657 132.621 147.921L132.559 148.048L132.5 147.94L130.571 144.374C129.216 141.848 127.992 139.561 127.097 137.882C126.665 137.063 126.314 136.39 126.059 135.909L125.786 135.366C125.751 135.304 125.722 135.24 125.699 135.173C125.743 135.228 125.782 135.287 125.814 135.35L126.124 135.878L127.206 137.83L130.695 144.284C131.372 145.55 132.022 146.767 132.612 147.856H132.485C133.349 146.6 134.148 145.3 134.877 143.961L135.499 142.807L135.66 142.497C135.678 142.458 135.701 142.421 135.728 142.388Z" fill="#263238"/>
<path d="M93.5371 143.977L79.987 143.806C79.9213 143.797 79.8544 143.81 79.7961 143.841C79.7378 143.873 79.6912 143.922 79.6631 143.982C79.635 144.042 79.6268 144.11 79.6398 144.175C79.6528 144.24 79.6863 144.299 79.7353 144.343L82.6871 147.794L96.0476 148.197C96.1096 148.204 96.1722 148.192 96.2272 148.162C96.2821 148.133 96.3269 148.087 96.3557 148.032C96.3846 147.977 96.3961 147.914 96.3888 147.852C96.3815 147.791 96.3557 147.732 96.3148 147.685L93.7857 144.114C93.758 144.073 93.7211 144.039 93.6779 144.015C93.6347 143.992 93.5864 143.978 93.5371 143.977Z" fill="#E0E0E0"/>
<path d="M82.6188 147.94L79.6236 144.439C79.5632 144.37 79.5243 144.285 79.5115 144.195C79.4987 144.104 79.5125 144.012 79.5514 143.929C79.5903 143.846 79.6525 143.776 79.7304 143.728C79.8083 143.68 79.8986 143.655 79.9902 143.657L93.5372 143.828C93.612 143.829 93.6857 143.847 93.7521 143.882C93.8185 143.916 93.8758 143.966 93.9194 144.027L96.4485 147.598C96.4986 147.669 96.5281 147.753 96.534 147.84C96.5398 147.926 96.5217 148.013 96.4817 148.09C96.4416 148.167 96.3811 148.232 96.3068 148.277C96.2325 148.322 96.1472 148.346 96.0602 148.346L82.6188 147.94ZM93.5465 144.126L79.9995 143.955C79.9655 143.955 79.9321 143.964 79.9033 143.982C79.8745 144 79.8515 144.026 79.8371 144.057C79.8227 144.088 79.8174 144.122 79.822 144.156C79.8266 144.189 79.8407 144.221 79.8628 144.247L82.7711 147.645L96.0757 148.048C96.1077 148.049 96.1391 148.04 96.1662 148.023C96.1932 148.006 96.2147 147.981 96.2279 147.952C96.2454 147.925 96.2546 147.893 96.2546 147.861C96.2546 147.828 96.2454 147.796 96.2279 147.769L93.7019 144.2C93.6841 144.176 93.6606 144.157 93.6335 144.144C93.6064 144.131 93.5765 144.125 93.5465 144.126Z" fill="#263238"/>
<path d="M150.91 157.32C150.91 157.32 157.671 174.043 160.737 180.076C163.916 186.328 168.636 196.805 178.1 191.328C185.84 186.847 178.827 163.316 178.827 163.316L171.861 166.459L161.558 149.994L150.91 157.32Z" fill="#455A64"/>
<path d="M154.89 130.398C154.851 130.279 154.787 130.169 154.702 130.077C154.618 129.985 154.514 129.911 154.399 129.862C154.284 129.813 154.159 129.788 154.034 129.791C153.908 129.793 153.785 129.823 153.672 129.876C152.954 130.215 151.898 131.025 151.649 132.874C151.261 135.738 151.795 137.761 151.124 138.509C150.453 139.257 142.02 139.856 141.368 141.085C140.715 142.314 141.11 143.341 141.082 143.946C141.071 144.163 140.98 144.368 140.827 144.523C140.445 144.914 139.799 145.795 140.417 146.86C140.495 146.99 140.539 147.138 140.545 147.29C140.551 147.442 140.519 147.593 140.451 147.729C140.203 148.225 140.007 149.085 140.877 149.972C140.96 150.054 141.026 150.151 141.073 150.258C141.327 150.847 142.315 152.942 143.717 153.361C144.771 153.645 145.863 153.764 146.954 153.712C147.175 153.704 147.39 153.781 147.557 153.926C148.269 154.546 150.63 156.051 151.329 156.964C151.329 156.964 160.029 150.888 160.579 150.602C160.579 150.602 156.658 144.626 156.459 141.886C156.251 138.962 154.408 135.558 154.905 132.818C155.12 131.63 155.045 130.872 154.89 130.398Z" fill="#FFBF9D"/>
<path d="M150.91 157.32C150.91 157.32 150.91 157.305 150.956 157.28L151.102 157.168L151.683 156.756L153.874 155.223L161.514 149.932L161.576 149.888L161.62 149.954C162.742 151.676 163.956 153.569 165.209 155.539L172.541 167.288C173.473 168.78 174.244 169.991 174.778 170.835L175.4 171.803L175.555 172.054C175.574 172.082 175.59 172.112 175.602 172.144C175.581 172.118 175.561 172.091 175.543 172.063L175.375 171.818C175.223 171.595 175.012 171.275 174.754 170.869C174.21 170.043 173.427 168.842 172.473 167.35C170.559 164.371 167.983 160.213 165.1 155.639C163.857 153.656 162.636 151.76 161.52 150.034L161.626 150.056L153.955 155.3L151.739 156.796L151.146 157.19L150.99 157.289L150.91 157.32Z" fill="#263238"/>
<path d="M179.874 175.235C179.808 175.148 179.752 175.055 179.706 174.956C179.591 174.738 179.455 174.481 179.296 174.177C178.865 173.314 178.344 172.499 177.743 171.744C177.13 170.999 176.354 170.405 175.474 170.009C175.102 169.865 174.72 169.749 174.331 169.662C174.44 169.649 174.55 169.654 174.657 169.677C174.952 169.721 175.24 169.796 175.518 169.904C176.432 170.278 177.239 170.874 177.864 171.638C178.482 172.399 179.004 173.233 179.417 174.121C179.579 174.456 179.7 174.742 179.781 174.925C179.826 175.023 179.858 175.128 179.874 175.235Z" fill="#263238"/>
</g>
</g>
<defs>
<clipPath id="clip0_171_20394">
<rect width="210" height="210" fill="white"/>
</clipPath>
<clipPath id="clip1_171_20394">
<rect width="184" height="173" fill="white" transform="translate(6 22)"/>
</clipPath>
</defs>
</svg>
