<svg width="121" height="120" viewBox="0 0 121 120" fill="none" xmlns="http://www.w3.org/2000/svg">
<g clip-path="url(#clip0_896_33510)">
<path opacity="0.5" d="M120.5 108.857C120.5 108.891 82.7843 108.785 39.7084 108.785C-3.36749 108.785 0.942101 108.891 0.942101 108.857C0.942101 108.823 -3.38371 108.659 39.7084 108.659C82.8005 108.659 120.5 108.82 120.5 108.857Z" fill="#263238"/>
<path d="M107.044 62.5546C105.946 72.8818 101.696 84.8848 93.2058 90.4006C80.3805 98.7341 81.4626 111.553 56.4197 117.118C52.769 117.95 49.0475 118.34 45.3208 118.28C43.4973 118.245 41.6778 118.08 39.8734 117.786C23.9621 115.218 13.2553 102.95 9.32794 88.1424C4.15793 68.668 14.4796 55.9173 21.321 48.2374C28.1623 40.5575 33.1741 16.6201 57.7448 10.9263C61.4935 10.0417 65.3215 9.63893 69.1532 9.72596C77.8952 9.96246 87.4305 13.1463 94.0288 19.7938C94.5241 20.3024 95.0055 20.811 95.4755 21.3425C104.646 31.7841 108.544 48.479 107.044 62.5546Z" fill="#FFECB2"/>
<path d="M99.6216 108.039V82.2637" stroke="#263238" stroke-width="0.5" stroke-linecap="round" stroke-linejoin="round"/>
<path d="M97.5315 108.039V95.2578" stroke="#263238" stroke-width="0.5" stroke-linecap="round" stroke-linejoin="round"/>
<path d="M100.275 86.4891C100.275 86.4891 98.1688 86.2493 97.3054 84.5819C96.4421 82.9145 96.3598 78.6136 99.6398 73.8467C102.92 69.0799 104.64 69.0296 105.211 72.9194C105.782 76.8092 105.699 82.4577 104.356 84.5979C103.013 86.7381 100.275 86.4891 100.275 86.4891Z" fill="white" stroke="#263238" stroke-width="0.5" stroke-linecap="round" stroke-linejoin="round"/>
<path d="M101.022 77.5102C101.41 76.1854 101.874 74.9977 102.413 74.1846" stroke="#263238" stroke-width="0.5" stroke-linecap="round" stroke-linejoin="round"/>
<path d="M99.3906 86.2036C99.6796 83.5821 100.137 80.982 100.761 78.4194" stroke="#263238" stroke-width="0.5" stroke-linecap="round" stroke-linejoin="round"/>
<path d="M101.529 94.8555C101.529 94.8555 100.176 93.8071 100.286 92.2996C100.396 90.7921 102.132 87.7885 106.382 85.8836C110.633 83.9787 111.846 84.6548 110.612 87.5738C109.379 90.4929 106.958 94.3552 105.131 95.2689C103.303 96.1825 101.529 94.8555 101.529 94.8555Z" fill="white" stroke="#263238" stroke-width="0.5" stroke-linecap="round" stroke-linejoin="round"/>
<path d="M105.802 88.9766C106.625 88.2274 107.442 87.6061 108.153 87.2681" stroke="#263238" stroke-width="0.5" stroke-linecap="round" stroke-linejoin="round"/>
<path d="M105.256 89.4927C103.752 90.9991 102.347 92.6013 101.049 94.2892C101.049 94.2892 99.9595 95.7556 99.6375 98.6678" stroke="#263238" stroke-width="0.5" stroke-linecap="round" stroke-linejoin="round"/>
<path d="M100.761 103.563C100.761 103.563 99.9778 102.955 100.042 102.083C100.106 101.21 101.111 99.4695 103.575 98.364C106.04 97.2585 106.739 97.6537 106.024 99.3462C105.309 101.039 103.906 103.275 102.851 103.802C101.796 104.33 100.761 103.563 100.761 103.563Z" fill="white" stroke="#263238" stroke-width="0.5" stroke-linecap="round" stroke-linejoin="round"/>
<path d="M103.23 100.166C103.638 99.7729 104.099 99.4399 104.601 99.1772" stroke="#263238" stroke-width="0.5" stroke-linecap="round" stroke-linejoin="round"/>
<path d="M102.915 100.465C102.044 101.337 101.23 102.264 100.478 103.24C100.478 103.24 99.8453 104.09 99.658 105.778" stroke="#263238" stroke-width="0.5" stroke-linecap="round" stroke-linejoin="round"/>
<path d="M97.7119 91.3701C97.7119 91.3701 99.0618 90.3217 98.9545 88.8142C98.8471 87.3067 97.1089 84.3032 92.856 82.3983C88.603 80.4933 87.3948 81.1694 88.6282 84.0885C89.8616 87.0075 92.2827 90.8699 94.1099 91.7835C95.9372 92.6971 97.7119 91.3701 97.7119 91.3701Z" fill="white" stroke="#263238" stroke-width="0.5" stroke-linecap="round" stroke-linejoin="round"/>
<path d="M93.4385 85.4912C92.7385 84.814 91.9465 84.2389 91.0859 83.7827" stroke="#263238" stroke-width="0.5" stroke-linecap="round" stroke-linejoin="round"/>
<path d="M93.9844 86.0073C95.4877 87.5141 96.8923 89.1163 98.1894 90.8039C98.1894 90.8039 99.2789 92.2703 99.6032 95.1824" stroke="#263238" stroke-width="0.5" stroke-linecap="round" stroke-linejoin="round"/>
<path d="M97.0472 103.012C97.0472 103.012 98.4176 103.055 99.1029 102.231C99.7881 101.406 100.199 99.104 98.4862 96.2923C96.7731 93.4806 95.679 93.2842 94.9938 95.3399C94.3086 97.3955 93.9089 100.408 94.5941 101.667C95.2793 102.925 97.0472 103.012 97.0472 103.012Z" fill="white" stroke="#263238" stroke-width="0.5" stroke-linecap="round" stroke-linejoin="round"/>
<path d="M97.262 100.916C97.2825 101.196 97.2962 101.477 97.3031 101.756" stroke="#263238" stroke-width="0.5" stroke-linecap="round" stroke-linejoin="round"/>
<path d="M96.2114 95.2051C96.6772 96.8606 97.0088 98.5509 97.2027 100.26" stroke="#263238" stroke-width="0.5" stroke-linecap="round" stroke-linejoin="round"/>
<path d="M8.68799 86.3635H40.3019V21.8384" stroke="#263238" stroke-width="0.5" stroke-linecap="round" stroke-linejoin="round"/>
<path d="M73.8502 86.3635H42.2363V21.8384" stroke="#263238" stroke-width="0.5" stroke-linecap="round" stroke-linejoin="round"/>
<path d="M55.1392 86.3635H86.753V21.8384" stroke="#263238" stroke-width="0.5" stroke-linecap="round" stroke-linejoin="round"/>
<path d="M80.3028 36.9888L69.2524 49.1994" stroke="#263238" stroke-width="0.5" stroke-linecap="round" stroke-linejoin="round"/>
<path d="M74.1724 46.4355L71.1072 49.8228" stroke="#263238" stroke-width="0.5" stroke-linecap="round" stroke-linejoin="round"/>
<path d="M49.8172 33.7817L43.8489 40.3759" stroke="#263238" stroke-width="0.5" stroke-linecap="round" stroke-linejoin="round"/>
<path d="M51.4297 32.176L55.4634 27.7197" stroke="#263238" stroke-width="0.5" stroke-linecap="round" stroke-linejoin="round"/>
<path d="M39.0114 72.9946L35.1399 77.2727" stroke="#263238" stroke-width="0.5" stroke-linecap="round" stroke-linejoin="round"/>
<path d="M37.7207 67.2915L30.5419 75.2241" stroke="#263238" stroke-width="0.5" stroke-linecap="round" stroke-linejoin="round"/>
<path d="M110.538 42.3226C112.884 36.4543 110.029 29.7952 104.16 27.4492C98.2919 25.1032 91.6328 27.9587 89.2868 33.827C86.9409 39.6954 89.7963 46.3544 95.6647 48.7004C101.533 51.0464 108.192 48.191 110.538 42.3226Z" stroke="#263238" stroke-width="0.5" stroke-linecap="round" stroke-linejoin="round"/>
<path d="M99.9162 48.0664C105.433 48.0664 109.904 43.5945 109.904 38.0781C109.904 32.5617 105.433 28.0898 99.9162 28.0898C94.3999 28.0898 89.928 32.5617 89.928 38.0781C89.928 43.5945 94.3999 48.0664 99.9162 48.0664Z" stroke="#263238" stroke-width="0.5" stroke-linecap="round" stroke-linejoin="round"/>
<path d="M99.9161 38.7609C100.293 38.7609 100.599 38.4551 100.599 38.078C100.599 37.7008 100.293 37.395 99.9161 37.395C99.5389 37.395 99.2332 37.7008 99.2332 38.078C99.2332 38.4551 99.5389 38.7609 99.9161 38.7609Z" stroke="#263238" stroke-width="0.5" stroke-linecap="round" stroke-linejoin="round"/>
<path d="M99.916 38.7607V42.116" stroke="#263238" stroke-width="0.5" stroke-linecap="round" stroke-linejoin="round"/>
<path d="M99.2331 38.0781H91.0881" stroke="#263238" stroke-width="0.5" stroke-linecap="round" stroke-linejoin="round"/>
<path d="M78.5325 84.6431H90.7683C90.7683 84.6431 84.1445 100.931 85.3939 108.206H72.9937C72.9937 108.206 75.3074 89.6041 78.5325 84.6431Z" fill="#263238" stroke="#263238" stroke-width="0.5" stroke-linecap="round" stroke-linejoin="round"/>
<path d="M67.9461 61.2636C67.9461 61.2636 68.0672 63.4677 72.1717 64.7536C76.2762 66.0396 80.4423 64.7536 82.7698 66.5809C85.0973 68.4082 85.0356 71.2358 84.2384 72.6451C83.4413 74.0544 82.1554 75.4614 85.9538 77.115C89.7522 78.7687 87.4841 83.6087 85.8921 85.3857C84.3001 87.1627 81.5524 88.0192 78.4803 87.4071C75.4082 86.795 71.8039 79.3831 67.8845 75.4614C63.965 71.5396 63.4853 64.306 65.9864 62.232C68.4875 60.1581 67.9461 61.2636 67.9461 61.2636Z" fill="#263238" stroke="#263238" stroke-width="0.5" stroke-linecap="round" stroke-linejoin="round"/>
<path d="M67.3158 53.3357C67.3158 53.3357 69.006 52.598 69.4399 54.0209C69.8739 55.4439 70.0018 59.3542 70.0018 59.3542L69.0882 59.1373C69.0882 59.1373 69.3052 54.7153 68.307 54.0209C67.3089 53.3266 66.53 54.8889 66.53 54.8889L67.3158 53.3357Z" fill="#A6A6A6" stroke="#263238" stroke-width="0.5" stroke-linecap="round" stroke-linejoin="round"/>
<path d="M48.3418 100.908L54.1159 97.8199C54.1159 97.8199 53.7162 91.7602 53.7733 91.5318C53.8304 91.3034 55.2762 79.4468 55.2762 79.4468L51.3157 91.1892L48.3418 100.908Z" fill="#263238" stroke="#263238" stroke-width="0.5" stroke-linecap="round" stroke-linejoin="round"/>
<path d="M73.8686 73.3575C73.8686 73.3575 79.5787 76.4684 80.3462 76.7836C81.1136 77.0988 80.6614 81.0663 80.6614 83.6587C80.6614 86.2511 76.7785 108.144 76.7785 108.144H48.022C48.022 108.144 52.8802 100.696 53.0104 98.7519C53.1406 96.8081 52.2978 95.2527 52.1676 93.3751C52.0374 91.4976 54.8239 80.0293 55.2762 79.4423C55.7284 78.8553 57.6745 77.3706 57.6745 77.3706L64.5404 71.3567L67.7153 70.644L73.8686 73.3575Z" fill="#FFD000" stroke="#263238" stroke-width="0.5" stroke-linecap="round" stroke-linejoin="round"/>
<path d="M54.8101 100.858L53.8508 102.831" stroke="#263238" stroke-width="0.5" stroke-linecap="round" stroke-linejoin="round"/>
<path d="M55.7308 95.189C55.7308 95.189 54.3055 96.1597 55.0181 96.6782C55.7308 97.1967 56.0551 98.2976 56.0551 98.2976L55.1415 100.077" stroke="#263238" stroke-width="0.5" stroke-linecap="round" stroke-linejoin="round"/>
<path d="M62.4436 99.9077C62.8296 99.9374 63.2362 99.9603 63.661 99.9717" stroke="#263238" stroke-width="0.5" stroke-linecap="round" stroke-linejoin="round"/>
<path d="M56.311 98.3091C56.311 98.3091 57.8619 99.3461 61.2401 99.7892" stroke="#263238" stroke-width="0.5" stroke-linecap="round" stroke-linejoin="round"/>
<path d="M52.4463 56.8895C52.1732 57.0229 51.9455 57.2337 51.7915 57.4957C51.6375 57.7577 51.5642 58.0593 51.5806 58.3628C51.5806 59.4911 52.4943 61.6998 52.4943 61.6998L53.015 61.5285C53.015 61.5285 52.0626 59.2307 52.1928 58.4062C52.235 58.1657 52.3425 57.9416 52.5037 57.7583C52.6649 57.575 52.8734 57.4396 53.1064 57.3669L52.9328 56.8027L52.4463 56.8895Z" fill="#A6A6A6" stroke="#263238" stroke-width="0.5" stroke-linecap="round" stroke-linejoin="round"/>
<path d="M54.6778 62.6933C54.9062 63.8354 54.5156 64.8655 53.8213 65.0003C53.1269 65.135 52.3869 64.315 52.1676 63.173C51.9483 62.031 52.3298 60.9986 53.0241 60.8661C53.7185 60.7336 54.4585 61.5536 54.6778 62.6933Z" fill="white" stroke="#263238" stroke-width="0.5" stroke-linecap="round" stroke-linejoin="round"/>
<path d="M56.786 62.3255C57.2177 63.7827 56.7129 65.2194 55.6576 65.5232C54.6024 65.827 53.3964 64.9088 52.9624 63.4515C52.5285 61.9943 53.0355 60.5576 54.0908 60.2538C55.146 59.95 56.3543 60.8682 56.786 62.3255Z" fill="#263238" stroke="#263238" stroke-width="0.5" stroke-linecap="round" stroke-linejoin="round"/>
<path d="M60.6985 70.2698L61.7241 73.6045L58.3528 77.8529L57.7909 81.1351C57.7909 81.1351 57.2313 90.4998 57.5511 91.9434C57.8709 93.3869 57.8709 93.7843 57.8709 93.7843C57.8709 93.7843 64.8373 85.6987 68.2794 80.7354C71.7215 75.7721 72.5209 72.7274 72.5209 72.7274L69.1588 70.9002L67.5599 63.4541L60.6985 70.2698Z" fill="white" stroke="#263238" stroke-width="0.5" stroke-linecap="round" stroke-linejoin="round"/>
<path d="M66.016 67.042L61.7242 73.6041L60.5273 69.7418L66.016 67.042Z" fill="#263238" stroke="#263238" stroke-width="0.5" stroke-linecap="round" stroke-linejoin="round"/>
<path d="M57.8207 80.9498L57.7887 81.1348C57.7887 81.1348 57.2291 90.4995 57.5489 91.9431C57.8687 93.3866 57.8687 93.784 57.8687 93.784C57.8687 93.784 64.8351 85.6984 68.2772 80.7351C68.5467 80.3468 68.798 79.9699 69.0378 79.6045C64.7277 81.08 60.3332 81.1051 57.8207 80.9498Z" fill="white" stroke="#263238" stroke-width="0.5" stroke-linecap="round" stroke-linejoin="round"/>
<path d="M56.1327 49.8249C56.1327 49.8249 52.9236 51.7755 52.5764 54.7219C52.2292 57.6684 53.4443 60.8341 53.9217 62.0903C54.3991 63.3466 56.0459 68.2459 56.9116 69.2007C57.7772 70.1554 60.5958 71.5829 61.0731 71.8433C61.5505 72.1037 62.4162 72.0169 63.1539 71.4961C63.8917 70.9754 66.9249 67.2935 67.4023 66.4255C67.8797 65.5576 67.9642 63.6504 67.9642 63.6504C67.9642 63.6504 67.8774 59.836 67.7061 57.3669C67.5348 54.8978 67.6627 52.5109 65.6253 50.4301C63.5879 48.3493 58.1267 48.3059 56.1327 49.8249Z" fill="white" stroke="#263238" stroke-width="0.5" stroke-linecap="round" stroke-linejoin="round"/>
<path d="M67.7061 57.3669C67.5325 54.8955 67.6627 52.5109 65.6253 50.4301C63.5879 48.3493 58.1267 48.3059 56.1327 49.8249C56.1327 49.8249 52.9236 51.7755 52.5764 54.7219C52.3754 56.435 52.702 58.2165 53.1018 59.6601C53.8395 59.2033 56.3291 57.6775 59.1226 55.72C62.4596 53.3789 63.5445 49.7381 63.5445 49.7381C63.5445 49.7381 63.9328 49.5211 63.8483 49.9984C63.7638 50.4758 62.4596 53.2921 61.9845 53.7261L61.5071 54.1577C61.5071 54.1577 61.8977 54.0709 63.6747 56.1951C65.4517 58.3193 66.4476 59.1873 66.9684 59.4477C67.245 59.5476 67.5355 59.6039 67.8295 59.6144C67.7952 58.8355 67.7541 58.0498 67.7061 57.3669Z" fill="#263238" stroke="#263238" stroke-width="0.5" stroke-linecap="round" stroke-linejoin="round"/>
<path d="M62.3684 61.9625C62.4232 62.28 62.3067 62.5678 62.1057 62.6021C61.9047 62.6363 61.6992 62.4079 61.6489 62.0904C61.5987 61.7729 61.7106 61.4851 61.9116 61.4486C62.1126 61.4121 62.3113 61.645 62.3684 61.9625Z" fill="#263238" stroke="#263238" stroke-width="0.5" stroke-linecap="round" stroke-linejoin="round"/>
<path d="M57.5125 62.6546C57.5696 62.9744 57.4531 63.2599 57.2521 63.2964C57.0511 63.333 56.8432 63.1023 56.7953 62.7825C56.7473 62.4627 56.8547 62.1795 57.0557 62.143C57.2567 62.1064 57.4577 62.3371 57.5125 62.6546Z" fill="#263238" stroke="#263238" stroke-width="0.5" stroke-linecap="round" stroke-linejoin="round"/>
<path d="M60.3789 60.0095C60.3789 60.0095 61.811 58.8835 63.1198 59.7925" stroke="#263238" stroke-width="0.5" stroke-linecap="round" stroke-linejoin="round"/>
<path d="M57.476 60.6218C57.476 60.6218 55.7857 59.7972 54.614 61.2727" stroke="#263238" stroke-width="0.5" stroke-linecap="round" stroke-linejoin="round"/>
<path d="M57.7795 60.6606C57.7795 60.6606 58.949 61.2248 59.0358 62.3075" stroke="#263238" stroke-width="0.5" stroke-linecap="round" stroke-linejoin="round"/>
<path d="M59.0793 65.2993C59.0793 65.2993 59.5567 65.6442 60.379 65.3861" stroke="#263238" stroke-width="0.5" stroke-linecap="round" stroke-linejoin="round"/>
<path d="M58.7344 67.1197C59.7059 67.0778 60.6614 66.8571 61.5529 66.4687C63.0695 65.8178 63.6771 64.9087 63.6771 64.9087" stroke="#263238" stroke-width="0.5" stroke-linecap="round" stroke-linejoin="round"/>
<path d="M59.47 67.0764C59.8166 67.3829 60.2635 67.5519 60.7262 67.5515C61.5074 67.5515 62.1994 66.165 62.1994 66.165C62.1994 66.165 60.2054 67.033 59.47 67.0764Z" stroke="#263238" stroke-width="0.5" stroke-linecap="round" stroke-linejoin="round"/>
<path d="M68.4852 63.8674C69.5865 63.8674 70.4792 62.6352 70.4792 61.1151C70.4792 59.595 69.5865 58.3628 68.4852 58.3628C67.384 58.3628 66.4912 59.595 66.4912 61.1151C66.4912 62.6352 67.384 63.8674 68.4852 63.8674Z" fill="#263238" stroke="#263238" stroke-width="0.5" stroke-linecap="round" stroke-linejoin="round"/>
<path d="M69.3301 62.7413C70.0365 62.7413 70.6092 61.8005 70.6092 60.6399C70.6092 59.4794 70.0365 58.5386 69.3301 58.5386C68.6237 58.5386 68.051 59.4794 68.051 60.6399C68.051 61.8005 68.6237 62.7413 69.3301 62.7413Z" fill="white" stroke="#263238" stroke-width="0.5" stroke-linecap="round" stroke-linejoin="round"/>
<path d="M53.8213 64.0479C53.8213 64.0479 53.835 68.552 55.0044 68.9426C56.1739 69.3332 59.383 68.552 59.383 68.552" stroke="#263238" stroke-width="0.5" stroke-linecap="round" stroke-linejoin="round"/>
<path d="M61.0298 68.5339C61.0298 68.8811 60.6026 69.162 60.075 69.162C59.5474 69.162 59.1226 68.8811 59.1226 68.5339C59.1226 68.1867 59.5497 67.9058 60.075 67.9058C60.6004 67.9058 61.0298 68.1867 61.0298 68.5339Z" fill="#263238" stroke="#263238" stroke-width="0.5" stroke-linecap="round" stroke-linejoin="round"/>
<path d="M61.3018 73.812C61.3018 73.812 59.9314 76.208 58.9698 83.3343C58.0082 90.4606 58.6455 91.8836 58.6455 91.8836L57.275 92.7264C57.275 92.7264 54.4268 92.4021 55.3975 85.6664C56.3682 78.9306 56.9073 77.8274 56.9073 77.8274L61.3018 73.812Z" fill="#FFD000" stroke="#263238" stroke-width="0.5" stroke-linecap="round" stroke-linejoin="round"/>
<path d="M69.9811 71.3569C69.9811 71.3569 66.8725 78.7413 63.6336 83.3415C60.3948 87.9416 55.9934 94.5403 55.9934 94.5403C55.9934 94.5403 58.3254 93.4394 63.2499 89.7437C68.1744 86.0481 73.1605 77.565 73.679 76.7245C74.1975 75.884 74.9741 73.9402 74.9741 73.9402L69.9811 71.3569Z" fill="#FFD000" stroke="#263238" stroke-width="0.5" stroke-linecap="round" stroke-linejoin="round"/>
<path d="M43.0723 104.165C42.3125 104.628 41.5157 105.027 40.69 105.358C39.2328 105.954 39.0912 105.849 39.564 106.351C40.0368 106.854 42.4785 105.954 43.1409 105.689C43.8032 105.424 45.0618 105.026 45.0618 105.026C45.0618 105.026 46.5852 105.888 47.5126 106.153C48.4399 106.417 49.5682 106.02 49.5682 106.02C49.5682 106.02 49.6345 104.96 48.8396 104.364C48.0448 103.768 46.3271 102.377 45.7264 102.443C45.1257 102.509 43.0723 104.165 43.0723 104.165Z" fill="white" stroke="#263238" stroke-width="0.5" stroke-linecap="round" stroke-linejoin="round"/>
<path d="M42.6751 102.576C42.6751 102.576 41.8803 102.377 41.3504 102.774C40.8205 103.172 40.2243 104.43 40.1581 104.761C40.0918 105.093 40.2243 105.291 40.7542 104.828C41.2841 104.364 42.2115 103.702 42.2115 103.702L43.0063 103.437L42.6751 102.576Z" fill="white" stroke="#263238" stroke-width="0.5" stroke-linecap="round" stroke-linejoin="round"/>
<path d="M44.7284 101.98C44.7284 101.98 43.1296 101.45 42.8075 101.913C42.4855 102.377 41.3503 105.027 41.6815 105.225C42.0127 105.424 42.4764 105.027 43.0725 104.165C43.6686 103.304 43.9998 102.841 43.9998 102.841L44.7947 102.708L44.7284 101.98Z" fill="white" stroke="#263238" stroke-width="0.5" stroke-linecap="round" stroke-linejoin="round"/>
<path d="M47.5675 102.573C47.5675 102.573 45.4958 100.954 44.9773 101.342C44.4588 101.731 42.7755 104.257 42.5813 104.768C42.3872 105.28 43.294 105.029 44.0043 104.38C44.7147 103.731 45.5598 103.01 45.5598 103.01L47.1792 103.853L47.5675 102.573Z" fill="white" stroke="#263238" stroke-width="0.5" stroke-linecap="round" stroke-linejoin="round"/>
<path d="M55.0183 103.804C55.0183 103.804 52.298 103.674 51.1971 103.286C50.0961 102.898 47.892 102.055 47.2456 102.119C46.5992 102.183 44.1347 104.581 43.6162 105.099C43.0977 105.618 43.1594 105.757 43.6688 105.821C44.1781 105.885 45.4298 105.035 46.0145 104.581C46.3762 104.302 46.7668 104.064 47.1794 103.868C47.6443 104.537 48.1646 105.166 48.7348 105.748C49.3812 106.331 50.9367 106.783 51.5191 106.719C51.8897 106.677 52.2574 106.612 52.62 106.525L54.8242 106.461L55.0183 103.804Z" fill="white" stroke="#263238" stroke-width="0.5" stroke-linecap="round" stroke-linejoin="round"/>
<path d="M73.9324 85.0817C73.9324 85.0817 71.5364 87.866 71.6666 88.839C71.7968 89.812 71.8608 90.7805 71.8608 90.7805L70.1112 101.34C70.1112 101.34 68.622 100.627 68.622 101.21V101.794L54.6229 103.22L54.4927 108.142L76.7761 108.206C76.7761 108.206 77.877 106.977 78.0072 106.522C78.1374 106.068 80.5974 98.2311 81.246 90.0039C81.8947 81.7766 81.5704 78.0856 81.246 77.4415C80.9217 76.7974 77.1004 75.564 77.1004 75.564" fill="#FFD000"/>
<path d="M73.9324 85.0817C73.9324 85.0817 71.5364 87.866 71.6666 88.839C71.7968 89.812 71.8608 90.7805 71.8608 90.7805L70.1112 101.34C70.1112 101.34 68.622 100.627 68.622 101.21V101.794L54.6229 103.22L54.4927 108.142L76.7761 108.206C76.7761 108.206 77.877 106.977 78.0072 106.522C78.1374 106.068 80.5974 98.2311 81.246 90.0039C81.8947 81.7766 81.5704 78.0856 81.246 77.4415C80.9217 76.7974 77.1004 75.564 77.1004 75.564" stroke="#263238" stroke-width="0.5" stroke-linecap="round" stroke-linejoin="round"/>
<path d="M70.6299 101.278C70.6299 101.278 72.7015 102.637 73.9327 102.962L70.6299 101.278Z" fill="white"/>
<path d="M70.6299 101.278C70.6299 101.278 72.7015 102.637 73.9327 102.962" stroke="#263238" stroke-width="0.5" stroke-linecap="round" stroke-linejoin="round"/>
<path d="M51.1971 88.1379L52.796 83.0056C53.4443 82.3703 54.0119 81.6577 54.4862 80.8837C55.1714 79.7257 55.1714 77.5535 55.064 77.1675C54.9567 76.7815 56.4642 75.0456 56.8913 74.4266C57.3184 73.8077 57.5651 72.6885 56.9872 71.8685C56.4094 71.0485 56.1193 72.4007 55.7333 73.0265C55.3473 73.6523 53.9951 74.2805 53.9951 74.2805L52.5675 75.4408C52.5675 75.4408 50.2035 77.5147 50.0551 77.8048C49.9066 78.0949 49.6211 79.0108 49.6211 79.0108L49.8152 81.8088L48.5613 86.6807L51.1971 88.1379Z" fill="white" stroke="#263238" stroke-width="0.5" stroke-linecap="round" stroke-linejoin="round"/>
<path d="M51.592 73.7529C51.592 73.7529 52.7501 71.9257 53.0881 71.3409C53.4262 70.7562 53.9561 68.447 54.2941 68.6C54.6321 68.7531 54.9793 69.5137 54.8743 70.5301C54.7692 71.5465 53.5701 73.858 53.5701 73.858L51.592 73.7529Z" stroke="#263238" stroke-width="0.5" stroke-linecap="round" stroke-linejoin="round"/>
<path d="M48.7939 85.2351L49.8081 81.809L49.3695 76.3089L50.7194 73.7051L54.4333 73.2231C54.4333 73.2231 56.7014 74.4291 56.8956 74.4291C57.0897 74.4291 56.8956 74.959 56.4616 75.055C56.0276 75.1509 55.2053 74.9111 55.2053 74.9111L56.6055 75.8247C56.6055 75.8247 56.5095 76.2587 56.1715 76.3546C55.8377 76.4219 55.4979 76.4548 55.1574 76.4528C55.1574 76.4528 56.3634 77.2248 56.071 77.3665C55.7846 77.4979 55.4724 77.5634 55.1574 77.5583H54.2437L53.5197 77.4624L52.4096 77.8964C52.4096 77.8964 53.1817 79.8744 53.1337 80.8405C53.0857 81.8067 51.8797 82.4394 51.8797 82.4394" fill="white"/>
<path d="M48.7939 85.2351L49.8081 81.809L49.3695 76.3089L50.7194 73.7051L54.4333 73.2231C54.4333 73.2231 56.7014 74.4291 56.8956 74.4291C57.0897 74.4291 56.8956 74.959 56.4616 75.055C56.0276 75.1509 55.2053 74.9111 55.2053 74.9111L56.6055 75.8247C56.6055 75.8247 56.5095 76.2587 56.1715 76.3546C55.8377 76.4219 55.4979 76.4548 55.1574 76.4528C55.1574 76.4528 56.3634 77.2248 56.071 77.3665C55.7846 77.4979 55.4724 77.5634 55.1574 77.5583H54.2437L53.5197 77.4624L52.4096 77.8964C52.4096 77.8964 53.1817 79.8744 53.1337 80.8405C53.0857 81.8067 51.8797 82.4394 51.8797 82.4394" stroke="#263238" stroke-width="0.5" stroke-linecap="round" stroke-linejoin="round"/>
<path d="M55.21 74.9108C55.21 74.9108 54.438 74.2827 54.004 74.2827C53.57 74.2827 50.9182 74.7647 50.9182 74.7647" stroke="#263238" stroke-width="0.5" stroke-linecap="round" stroke-linejoin="round"/>
<path d="M55.162 76.4548C55.162 76.4548 53.9081 75.7695 53.5221 75.7695C53.136 75.7695 50.0959 76.5415 50.0959 76.5415" stroke="#263238" stroke-width="0.5" stroke-linecap="round" stroke-linejoin="round"/>
<path d="M48.8557 84.1592L52.7729 86.7973C52.7729 86.7973 51.0279 96.162 50.8566 96.9637C50.6853 97.7654 49.429 99.8782 48.8009 100.509C48.1728 101.139 47.4305 101.023 45.7151 100.566C43.9998 100.109 42.5174 98.7384 42.57 96.9637C42.6225 95.189 48.8557 84.1592 48.8557 84.1592Z" fill="#FFD000" stroke="#263238" stroke-width="0.5" stroke-linecap="round" stroke-linejoin="round"/>
<path d="M28.6098 106.856H27.4723V107.205H28.6098V106.856Z" fill="white" stroke="#263238" stroke-width="0.5" stroke-linecap="round" stroke-linejoin="round"/>
<path d="M30.1858 106.856H29.0483V107.205H30.1858V106.856Z" fill="white" stroke="#263238" stroke-width="0.5" stroke-linecap="round" stroke-linejoin="round"/>
<path d="M31.7617 106.856H30.6243V107.205H31.7617V106.856Z" fill="white" stroke="#263238" stroke-width="0.5" stroke-linecap="round" stroke-linejoin="round"/>
<path d="M33.3401 106.856H32.2026V107.205H33.3401V106.856Z" fill="white" stroke="#263238" stroke-width="0.5" stroke-linecap="round" stroke-linejoin="round"/>
<path d="M34.916 106.856H33.7786V107.205H34.916V106.856Z" fill="white" stroke="#263238" stroke-width="0.5" stroke-linecap="round" stroke-linejoin="round"/>
<path d="M36.492 106.856H35.3545V107.205H36.492V106.856Z" fill="white" stroke="#263238" stroke-width="0.5" stroke-linecap="round" stroke-linejoin="round"/>
<path d="M38.0681 106.856H36.9307V107.205H38.0681V106.856Z" fill="white" stroke="#263238" stroke-width="0.5" stroke-linecap="round" stroke-linejoin="round"/>
<path d="M39.6443 106.856H38.5068V107.205H39.6443V106.856Z" fill="white" stroke="#263238" stroke-width="0.5" stroke-linecap="round" stroke-linejoin="round"/>
<path d="M41.2202 106.856H40.0828V107.205H41.2202V106.856Z" fill="white" stroke="#263238" stroke-width="0.5" stroke-linecap="round" stroke-linejoin="round"/>
<path d="M42.7959 106.856H41.6584V107.205H42.7959V106.856Z" fill="white" stroke="#263238" stroke-width="0.5" stroke-linecap="round" stroke-linejoin="round"/>
<path d="M44.3745 106.856H43.2371V107.205H44.3745V106.856Z" fill="white" stroke="#263238" stroke-width="0.5" stroke-linecap="round" stroke-linejoin="round"/>
<path d="M45.9505 106.856H44.813V107.205H45.9505V106.856Z" fill="white" stroke="#263238" stroke-width="0.5" stroke-linecap="round" stroke-linejoin="round"/>
<path d="M47.5264 106.856H46.3889V107.205H47.5264V106.856Z" fill="white" stroke="#263238" stroke-width="0.5" stroke-linecap="round" stroke-linejoin="round"/>
<path d="M49.1023 106.856H47.9648V107.205H49.1023V106.856Z" fill="white" stroke="#263238" stroke-width="0.5" stroke-linecap="round" stroke-linejoin="round"/>
<path d="M50.6785 106.856H49.541V107.205H50.6785V106.856Z" fill="white" stroke="#263238" stroke-width="0.5" stroke-linecap="round" stroke-linejoin="round"/>
<path d="M52.2547 106.856H51.1172V107.205H52.2547V106.856Z" fill="white" stroke="#263238" stroke-width="0.5" stroke-linecap="round" stroke-linejoin="round"/>
<path d="M55.0023 107.132H26.8191V108.124H55.0023V107.132Z" fill="white" stroke="#263238" stroke-width="0.5" stroke-linecap="round" stroke-linejoin="round"/>
<path d="M55 107.132H44.1963V108.124H55V107.132Z" fill="white" stroke="#263238" stroke-width="0.5" stroke-linecap="round" stroke-linejoin="round"/>
<path d="M35.6126 98.4507H13.4547L9.00537 74.8882H31.1632L35.6126 98.4507Z" fill="#263238" stroke="white" stroke-width="0.5" stroke-linecap="round" stroke-linejoin="round"/>
<path d="M34.9389 97.8546H13.4435L9.22021 75.4844H30.7134L34.9389 97.8546Z" fill="#263238" stroke="white" stroke-width="0.5" stroke-linecap="round" stroke-linejoin="round"/>
<path d="M30.8001 96.0732H14.8185L11.6779 79.4429H27.6595L30.8001 96.0732Z" fill="#263238" stroke="white" stroke-width="0.5" stroke-linecap="round" stroke-linejoin="round"/>
<path d="M11.6779 79.4427L9.22021 75.4844" stroke="#263238" stroke-width="0.5" stroke-linecap="round" stroke-linejoin="round"/>
<path d="M27.6597 79.4427L30.7135 75.4844" stroke="white" stroke-width="0.5" stroke-linecap="round" stroke-linejoin="round"/>
<path d="M30.8 96.0728L34.9388 97.8543" stroke="white" stroke-width="0.5" stroke-linecap="round" stroke-linejoin="round"/>
<path d="M14.8185 96.0728L13.4435 97.8543" stroke="#263238" stroke-width="0.5" stroke-linecap="round" stroke-linejoin="round"/>
<path d="M21.3166 91.0912H17.6781L19.9942 89.0264H23.6327L21.3166 91.0912Z" fill="#263238" stroke="white" stroke-width="0.5" stroke-linecap="round" stroke-linejoin="round"/>
<path d="M33.388 106.883H20.0764V108.206H33.388V106.883Z" fill="#263238" stroke="white" stroke-width="0.5" stroke-linecap="round" stroke-linejoin="round"/>
<path d="M25.782 108.206H22.1435L17.6781 103.133H21.3166L25.782 108.206Z" fill="#263238" stroke="white" stroke-width="0.5" stroke-linecap="round" stroke-linejoin="round"/>
<path d="M21.3166 91.1758H17.6781V103.08H21.3166V91.1758Z" fill="#263238" stroke="white" stroke-width="0.5" stroke-linecap="round" stroke-linejoin="round"/>
</g>
<defs>
<clipPath id="clip0_896_33510">
<rect width="120" height="120" fill="white" transform="translate(0.5)"/>
</clipPath>
</defs>
</svg>
