<svg width="210" height="210" viewBox="0 0 210 210" fill="none" xmlns="http://www.w3.org/2000/svg">
<g clip-path="url(#clip0_171_22401)">
<path opacity="0.5" d="M210 190.5C210 190.559 143.998 190.375 68.6147 190.375C-6.76813 190.375 0.773646 190.559 0.773646 190.5C0.773646 190.44 -6.79653 190.154 68.6147 190.154C144.026 190.154 210 190.436 210 190.5Z" fill="#263238"/>
<path d="M186.453 109.47C184.531 127.543 177.092 148.548 162.235 158.201C139.791 172.785 141.685 195.218 97.8594 204.956C91.4707 206.413 84.958 207.095 78.4363 206.989C75.2453 206.928 72.061 206.64 68.9033 206.126C41.0587 201.631 22.3217 180.163 15.4489 154.249C6.40135 120.169 24.4643 97.8552 36.4367 84.4153C48.409 70.9755 57.1797 29.085 100.178 19.1208C106.739 17.5728 113.438 16.868 120.143 17.0203C135.442 17.4342 152.128 23.0059 163.675 34.639C164.542 35.529 165.385 36.4191 166.207 37.3492C182.256 55.622 189.077 84.8381 186.453 109.47Z" fill="#FFECB2"/>
<path d="M173.463 189.068V143.961" stroke="#263238" stroke-linecap="round" stroke-linejoin="round"/>
<path d="M169.805 189.068V166.7" stroke="#263238" stroke-linecap="round" stroke-linejoin="round"/>
<path d="M174.606 151.355C174.606 151.355 170.92 150.936 169.409 148.018C167.899 145.1 167.755 137.573 173.495 129.231C179.234 120.889 182.244 120.801 183.244 127.608C184.243 134.415 184.099 144.3 181.749 148.046C179.398 151.791 174.606 151.355 174.606 151.355Z" fill="white" stroke="#263238" stroke-linecap="round" stroke-linejoin="round"/>
<path d="M175.913 135.643C176.593 133.324 177.404 131.246 178.347 129.823" stroke="#263238" stroke-linecap="round" stroke-linejoin="round"/>
<path d="M173.059 150.856C173.564 146.268 174.365 141.718 175.457 137.233" stroke="#263238" stroke-linecap="round" stroke-linejoin="round"/>
<path d="M176.8 165.997C176.8 165.997 174.434 164.162 174.626 161.524C174.818 158.886 177.855 153.63 185.294 150.296C192.733 146.962 194.855 148.146 192.697 153.254C190.538 158.362 186.301 165.121 183.104 166.72C179.906 168.319 176.8 165.997 176.8 165.997Z" fill="white" stroke="#263238" stroke-linecap="round" stroke-linejoin="round"/>
<path d="M184.279 155.708C185.718 154.397 187.149 153.31 188.392 152.718" stroke="#263238" stroke-linecap="round" stroke-linejoin="round"/>
<path d="M183.324 156.612C180.691 159.248 178.232 162.052 175.961 165.006C175.961 165.006 174.054 167.572 173.491 172.668" stroke="#263238" stroke-linecap="round" stroke-linejoin="round"/>
<path d="M175.457 181.234C175.457 181.234 174.086 180.171 174.198 178.644C174.31 177.117 176.069 174.071 180.382 172.136C184.695 170.202 185.918 170.893 184.667 173.855C183.416 176.817 180.962 180.73 179.115 181.654C177.268 182.577 175.457 181.234 175.457 181.234Z" fill="white" stroke="#263238" stroke-linecap="round" stroke-linejoin="round"/>
<path d="M179.778 175.29C180.491 174.602 181.299 174.019 182.177 173.559" stroke="#263238" stroke-linecap="round" stroke-linejoin="round"/>
<path d="M179.226 175.814C177.702 177.339 176.277 178.961 174.961 180.67C174.961 180.67 173.854 182.157 173.526 185.111" stroke="#263238" stroke-linecap="round" stroke-linejoin="round"/>
<path d="M170.121 159.897C170.121 159.897 172.483 158.063 172.295 155.424C172.108 152.786 169.066 147.53 161.623 144.196C154.18 140.863 152.066 142.046 154.224 147.154C156.383 152.263 160.62 159.022 163.817 160.621C167.015 162.22 170.121 159.897 170.121 159.897Z" fill="white" stroke="#263238" stroke-linecap="round" stroke-linejoin="round"/>
<path d="M162.642 149.609C161.417 148.423 160.031 147.417 158.525 146.619" stroke="#263238" stroke-linecap="round" stroke-linejoin="round"/>
<path d="M163.598 150.512C166.229 153.149 168.687 155.953 170.956 158.906C170.956 158.906 172.863 161.472 173.431 166.568" stroke="#263238" stroke-linecap="round" stroke-linejoin="round"/>
<path d="M168.958 180.271C168.958 180.271 171.356 180.346 172.555 178.903C173.754 177.461 174.474 173.431 171.476 168.511C168.478 163.59 166.563 163.247 165.364 166.844C164.165 170.442 163.466 175.714 164.665 177.916C165.864 180.119 168.958 180.271 168.958 180.271Z" fill="white" stroke="#263238" stroke-linecap="round" stroke-linejoin="round"/>
<path d="M169.333 176.601C169.369 177.093 169.393 177.584 169.405 178.072" stroke="#263238" stroke-linecap="round" stroke-linejoin="round"/>
<path d="M167.495 166.608C168.31 169.506 168.89 172.464 169.23 175.454" stroke="#263238" stroke-linecap="round" stroke-linejoin="round"/>
<path d="M14.3291 151.135H69.6534V38.2166" stroke="#263238" stroke-linecap="round" stroke-linejoin="round"/>
<path d="M128.363 151.135H73.0386V38.2166" stroke="#263238" stroke-linecap="round" stroke-linejoin="round"/>
<path d="M95.6187 151.135H150.943V38.2166" stroke="#263238" stroke-linecap="round" stroke-linejoin="round"/>
<path d="M139.655 64.7295L120.317 86.0982" stroke="#263238" stroke-linecap="round" stroke-linejoin="round"/>
<path d="M128.927 81.2617L123.562 87.1895" stroke="#263238" stroke-linecap="round" stroke-linejoin="round"/>
<path d="M86.3053 59.1174L75.8608 70.6571" stroke="#263238" stroke-linecap="round" stroke-linejoin="round"/>
<path d="M89.127 56.3074L96.1859 48.509" stroke="#263238" stroke-linecap="round" stroke-linejoin="round"/>
<path d="M67.3948 127.74L60.6196 135.227" stroke="#263238" stroke-linecap="round" stroke-linejoin="round"/>
<path d="M65.1362 117.76L52.5732 131.642" stroke="#263238" stroke-linecap="round" stroke-linejoin="round"/>
<path d="M192.567 74.0649C196.672 63.7953 191.675 52.142 181.405 48.0365C171.136 43.931 159.482 48.9281 155.377 59.1977C151.272 69.4673 156.269 81.1206 166.538 85.2261C176.808 89.3316 188.461 84.3346 192.567 74.0649Z" stroke="#263238" stroke-linecap="round" stroke-linejoin="round"/>
<path d="M173.978 84.1159C183.632 84.1159 191.458 76.2901 191.458 66.6364C191.458 56.9828 183.632 49.157 173.978 49.157C164.325 49.157 156.499 56.9828 156.499 66.6364C156.499 76.2901 164.325 84.1159 173.978 84.1159Z" stroke="#263238" stroke-linecap="round" stroke-linejoin="round"/>
<path d="M173.978 67.8314C174.638 67.8314 175.173 67.2964 175.173 66.6363C175.173 65.9762 174.638 65.4412 173.978 65.4412C173.318 65.4412 172.783 65.9762 172.783 66.6363C172.783 67.2964 173.318 67.8314 173.978 67.8314Z" stroke="#263238" stroke-linecap="round" stroke-linejoin="round"/>
<path d="M173.978 67.8315V73.7033" stroke="#263238" stroke-linecap="round" stroke-linejoin="round"/>
<path d="M172.783 66.6362H158.529" stroke="#263238" stroke-linecap="round" stroke-linejoin="round"/>
<path d="M136.557 148.126H157.969C157.969 148.126 146.378 176.629 148.564 189.36H126.864C126.864 189.36 130.913 156.807 136.557 148.126Z" fill="#263238" stroke="#263238" stroke-linecap="round" stroke-linejoin="round"/>
<path d="M118.031 107.211C118.031 107.211 118.242 111.068 125.425 113.319C132.608 115.569 139.899 113.319 143.972 116.516C148.045 119.714 147.937 124.663 146.542 127.129C145.147 129.595 142.897 132.057 149.544 134.951C156.191 137.845 152.222 146.315 149.436 149.425C146.65 152.535 141.842 154.034 136.465 152.962C131.089 151.891 124.782 138.92 117.923 132.057C111.064 125.194 110.224 112.535 114.601 108.906C118.978 105.277 118.031 107.211 118.031 107.211Z" fill="#263238" stroke="#263238" stroke-linecap="round" stroke-linejoin="round"/>
<path d="M116.927 93.337C116.927 93.337 119.885 92.0459 120.645 94.5362C121.404 97.0264 121.628 103.869 121.628 103.869L120.029 103.49C120.029 103.49 120.409 95.7513 118.662 94.5362C116.915 93.321 115.552 96.0551 115.552 96.0551L116.927 93.337Z" fill="#A6A6A6" stroke="#263238" stroke-linecap="round" stroke-linejoin="round"/>
<path d="M83.7231 176.589L93.8279 171.185C93.8279 171.185 93.1284 160.581 93.2283 160.181C93.3282 159.781 95.8584 139.032 95.8584 139.032L88.9274 159.581L83.7231 176.589Z" fill="#263238" stroke="#263238" stroke-linecap="round" stroke-linejoin="round"/>
<path d="M128.395 128.376C128.395 128.376 138.387 133.82 139.73 134.372C141.074 134.923 140.282 141.866 140.282 146.403C140.282 150.94 133.487 189.252 133.487 189.252H83.1631C83.1631 189.252 91.665 176.218 91.8928 172.816C92.1207 169.415 90.6457 166.693 90.4179 163.407C90.19 160.121 95.0665 140.052 95.858 139.024C96.6494 137.997 100.055 135.399 100.055 135.399L112.07 124.875L117.626 123.627L128.395 128.376Z" fill="#FFC100" stroke="#263238" stroke-linecap="round" stroke-linejoin="round"/>
<path d="M95.0431 176.501L93.3643 179.955" stroke="#263238" stroke-linecap="round" stroke-linejoin="round"/>
<path d="M96.6534 166.581C96.6534 166.581 94.1592 168.279 95.4063 169.187C96.6534 170.094 97.221 172.021 97.221 172.021L95.6222 175.134" stroke="#263238" stroke-linecap="round" stroke-linejoin="round"/>
<path d="M108.401 174.839C109.077 174.891 109.788 174.931 110.532 174.951" stroke="#263238" stroke-linecap="round" stroke-linejoin="round"/>
<path d="M97.6694 172.041C97.6694 172.041 100.383 173.855 106.295 174.631" stroke="#263238" stroke-linecap="round" stroke-linejoin="round"/>
<path d="M90.9061 99.5567C90.4282 99.79 90.0296 100.159 89.7602 100.617C89.4907 101.076 89.3624 101.604 89.3912 102.135C89.3912 104.109 90.99 107.975 90.99 107.975L91.9014 107.675C91.9014 107.675 90.2346 103.654 90.4624 102.211C90.5363 101.79 90.7245 101.398 91.0065 101.077C91.2886 100.756 91.6535 100.519 92.0613 100.392L91.7575 99.4048L90.9061 99.5567Z" fill="#A6A6A6" stroke="#263238" stroke-linecap="round" stroke-linejoin="round"/>
<path d="M94.8112 109.713C95.211 111.712 94.5274 113.515 93.3123 113.75C92.0972 113.986 90.8021 112.551 90.4184 110.553C90.0347 108.554 90.7022 106.747 91.9173 106.516C93.1324 106.284 94.4275 107.719 94.8112 109.713Z" fill="white" stroke="#263238" stroke-linecap="round" stroke-linejoin="round"/>
<path d="M98.5006 109.07C99.256 111.62 98.3727 114.134 96.526 114.666C94.6793 115.197 92.5688 113.59 91.8094 111.04C91.0499 108.49 91.9373 105.976 93.784 105.444C95.6306 104.913 97.7451 106.52 98.5006 109.07Z" fill="#263238" stroke="#263238" stroke-linecap="round" stroke-linejoin="round"/>
<path d="M105.347 122.972L107.142 128.808L101.242 136.242L100.259 141.986C100.259 141.986 99.2796 158.374 99.8392 160.901C100.399 163.427 100.399 164.122 100.399 164.122C100.399 164.122 112.59 149.972 118.614 141.287C124.637 132.601 126.036 127.273 126.036 127.273L120.153 124.075L117.355 111.044L105.347 122.972Z" fill="white" stroke="#263238" stroke-linecap="round" stroke-linejoin="round"/>
<path d="M114.653 117.324L107.142 128.808L105.048 122.049L114.653 117.324Z" fill="#263238" stroke="#263238" stroke-linecap="round" stroke-linejoin="round"/>
<path d="M100.311 141.662L100.255 141.986C100.255 141.986 99.2757 158.374 99.8353 160.901C100.395 163.427 100.395 164.122 100.395 164.122C100.395 164.122 112.586 149.972 118.61 141.287C119.081 140.607 119.521 139.948 119.941 139.308C112.398 141.89 104.708 141.934 100.311 141.662Z" fill="white" stroke="#263238" stroke-linecap="round" stroke-linejoin="round"/>
<path d="M97.357 87.1935C97.357 87.1935 91.741 90.607 91.1335 95.7633C90.5259 100.92 92.6524 106.46 93.4878 108.658C94.3232 110.856 97.2051 119.43 98.72 121.101C100.235 122.772 105.167 125.27 106.003 125.726C106.838 126.181 108.353 126.03 109.644 125.118C110.935 124.207 116.243 117.764 117.079 116.245C117.914 114.726 118.062 111.388 118.062 111.388C118.062 111.388 117.91 104.713 117.61 100.392C117.311 96.0711 117.535 91.8941 113.969 88.2527C110.404 84.6113 100.847 84.5354 97.357 87.1935Z" fill="white" stroke="#263238" stroke-linecap="round" stroke-linejoin="round"/>
<path d="M117.611 100.392C117.307 96.0671 117.535 91.8941 113.969 88.2527C110.404 84.6113 100.847 84.5354 97.3572 87.1935C97.3572 87.1935 91.7412 90.607 91.1337 95.7633C90.7819 98.7612 91.3535 101.879 92.053 104.405C93.3441 103.606 97.701 100.936 102.589 97.5101C108.429 93.413 110.328 87.0416 110.328 87.0416C110.328 87.0416 111.007 86.6619 110.86 87.4973C110.712 88.3327 108.429 93.2611 107.598 94.0206L106.762 94.776C106.762 94.776 107.446 94.6242 110.556 98.3415C113.665 102.059 115.408 103.578 116.32 104.033C116.804 104.208 117.312 104.307 117.827 104.325C117.767 102.962 117.695 101.587 117.611 100.392Z" fill="#263238" stroke="#263238" stroke-linecap="round" stroke-linejoin="round"/>
<path d="M108.269 108.434C108.365 108.99 108.161 109.494 107.81 109.553C107.458 109.613 107.098 109.214 107.01 108.658C106.922 108.103 107.118 107.599 107.47 107.535C107.822 107.471 108.169 107.879 108.269 108.434Z" fill="#263238" stroke="#263238" stroke-linecap="round" stroke-linejoin="round"/>
<path d="M99.7715 109.645C99.8715 110.205 99.6676 110.705 99.3159 110.769C98.9641 110.833 98.6004 110.429 98.5164 109.869C98.4325 109.31 98.6204 108.814 98.9721 108.75C99.3239 108.686 99.6756 109.09 99.7715 109.645Z" fill="#263238" stroke="#263238" stroke-linecap="round" stroke-linejoin="round"/>
<path d="M104.788 105.017C104.788 105.017 107.294 103.046 109.585 104.637" stroke="#263238" stroke-linecap="round" stroke-linejoin="round"/>
<path d="M99.7076 106.088C99.7076 106.088 96.7497 104.645 94.6992 107.227" stroke="#263238" stroke-linecap="round" stroke-linejoin="round"/>
<path d="M100.239 106.156C100.239 106.156 102.286 107.143 102.438 109.038" stroke="#263238" stroke-linecap="round" stroke-linejoin="round"/>
<path d="M102.514 114.274C102.514 114.274 103.349 114.877 104.788 114.426" stroke="#263238" stroke-linecap="round" stroke-linejoin="round"/>
<path d="M101.91 117.46C103.61 117.387 105.282 117 106.842 116.321C109.496 115.181 110.559 113.591 110.559 113.591" stroke="#263238" stroke-linecap="round" stroke-linejoin="round"/>
<path d="M103.197 117.384C103.804 117.92 104.586 118.216 105.396 118.215C106.763 118.215 107.974 115.789 107.974 115.789C107.974 115.789 104.484 117.308 103.197 117.384Z" stroke="#263238" stroke-linecap="round" stroke-linejoin="round"/>
<path d="M118.974 111.768C120.901 111.768 122.463 109.611 122.463 106.951C122.463 104.291 120.901 102.135 118.974 102.135C117.047 102.135 115.484 104.291 115.484 106.951C115.484 109.611 117.047 111.768 118.974 111.768Z" fill="#263238" stroke="#263238" stroke-linecap="round" stroke-linejoin="round"/>
<path d="M120.453 109.797C121.689 109.797 122.691 108.151 122.691 106.12C122.691 104.089 121.689 102.443 120.453 102.443C119.217 102.443 118.214 104.089 118.214 106.12C118.214 108.151 119.217 109.797 120.453 109.797Z" fill="white" stroke="#263238" stroke-linecap="round" stroke-linejoin="round"/>
<path d="M93.312 112.084C93.312 112.084 93.336 119.966 95.3825 120.65C97.4291 121.333 103.045 119.966 103.045 119.966" stroke="#263238" stroke-width="2" stroke-linecap="round" stroke-linejoin="round"/>
<path d="M105.927 119.934C105.927 120.541 105.179 121.033 104.256 121.033C103.333 121.033 102.589 120.541 102.589 119.934C102.589 119.326 103.337 118.835 104.256 118.835C105.175 118.835 105.927 119.326 105.927 119.934Z" fill="#263238" stroke="#263238" stroke-linecap="round" stroke-linejoin="round"/>
<path d="M106.403 129.171C106.403 129.171 104.005 133.364 102.322 145.835C100.639 158.306 101.754 160.797 101.754 160.797L99.3559 162.272C99.3559 162.272 94.3715 161.704 96.0703 149.916C97.7691 138.129 98.7124 136.198 98.7124 136.198L106.403 129.171Z" fill="#FFC100" stroke="#263238" stroke-linecap="round" stroke-linejoin="round"/>
<path d="M121.592 124.875C121.592 124.875 116.152 137.797 110.484 145.847C104.816 153.898 97.1133 165.445 97.1133 165.445C97.1133 165.445 101.194 163.519 109.812 157.051C118.43 150.584 127.156 135.739 128.063 134.268C128.97 132.797 130.329 129.395 130.329 129.395L121.592 124.875Z" fill="#FFC100" stroke="#263238" stroke-linecap="round" stroke-linejoin="round"/>
<path d="M74.5015 182.289C73.1717 183.099 71.7773 183.796 70.3325 184.376C67.7823 185.419 67.5345 185.235 68.3619 186.115C69.1893 186.994 73.4622 185.419 74.6214 184.955C75.7805 184.492 77.983 183.796 77.983 183.796C77.983 183.796 80.649 185.303 82.2719 185.767C83.8947 186.23 85.8693 185.535 85.8693 185.535C85.8693 185.535 85.9852 183.68 84.5942 182.637C83.2032 181.594 80.1974 179.16 79.1461 179.275C78.0949 179.391 74.5015 182.289 74.5015 182.289Z" fill="white" stroke="#263238" stroke-linecap="round" stroke-linejoin="round"/>
<path d="M73.8064 179.507C73.8064 179.507 72.4154 179.159 71.4881 179.855C70.5607 180.55 69.5175 182.753 69.4016 183.332C69.2856 183.912 69.5175 184.26 70.4448 183.448C71.3722 182.637 72.995 181.478 72.995 181.478L74.386 181.014L73.8064 179.507Z" fill="white" stroke="#263238" stroke-linecap="round" stroke-linejoin="round"/>
<path d="M77.3999 178.464C77.3999 178.464 74.6019 177.537 74.0383 178.348C73.4747 179.159 71.4882 183.796 72.0677 184.144C72.6473 184.492 73.4587 183.796 74.502 182.289C75.5452 180.782 76.1248 179.971 76.1248 179.971L77.5158 179.739L77.3999 178.464Z" fill="white" stroke="#263238" stroke-linecap="round" stroke-linejoin="round"/>
<path d="M82.3681 179.503C82.3681 179.503 78.7427 176.669 77.8353 177.349C76.928 178.028 73.9821 182.449 73.6423 183.345C73.3026 184.24 74.8894 183.8 76.1325 182.665C77.3756 181.53 78.8546 180.267 78.8546 180.267L81.6886 181.742L82.3681 179.503Z" fill="white" stroke="#263238" stroke-linecap="round" stroke-linejoin="round"/>
<path d="M95.4066 181.658C95.4066 181.658 90.646 181.43 88.7194 180.75C86.7928 180.071 82.9355 178.596 81.8043 178.708C80.6731 178.82 76.3602 183.017 75.4529 183.924C74.5455 184.831 74.6535 185.075 75.5448 185.187C76.4362 185.299 78.6266 183.812 79.6499 183.017C80.2829 182.529 80.9663 182.111 81.6884 181.769C82.5021 182.94 83.4126 184.041 84.4105 185.059C85.5416 186.078 88.2637 186.87 89.283 186.758C89.9315 186.684 90.5749 186.571 91.2096 186.418L95.0668 186.306L95.4066 181.658Z" fill="white" stroke="#263238" stroke-linecap="round" stroke-linejoin="round"/>
<path d="M128.507 148.893C128.507 148.893 124.314 153.766 124.542 155.468C124.77 157.171 124.881 158.866 124.881 158.866L121.82 177.345C121.82 177.345 119.214 176.098 119.214 177.117V178.14L94.7151 180.634L94.4873 189.248L133.483 189.36C133.483 189.36 135.41 187.21 135.638 186.414C135.866 185.619 140.171 171.905 141.306 157.507C142.441 143.109 141.873 136.65 141.306 135.523C140.738 134.396 134.051 132.237 134.051 132.237" fill="#FFC100"/>
<path d="M128.507 148.893C128.507 148.893 124.314 153.766 124.542 155.468C124.77 157.171 124.881 158.866 124.881 158.866L121.82 177.345C121.82 177.345 119.214 176.098 119.214 177.117V178.14L94.7151 180.634L94.4873 189.248L133.483 189.36C133.483 189.36 135.41 187.21 135.638 186.414C135.866 185.619 140.171 171.905 141.306 157.507C142.441 143.109 141.873 136.65 141.306 135.523C140.738 134.396 134.051 132.237 134.051 132.237" stroke="#263238" stroke-linecap="round" stroke-linejoin="round"/>
<path d="M122.727 177.237C122.727 177.237 126.352 179.615 128.507 180.183L122.727 177.237Z" fill="white"/>
<path d="M122.727 177.237C122.727 177.237 126.352 179.615 128.507 180.183" stroke="#263238" stroke-linecap="round" stroke-linejoin="round"/>
<path d="M88.7196 154.241L91.5176 145.26C92.6522 144.148 93.6456 142.901 94.4755 141.546C95.6746 139.52 95.6746 135.719 95.4868 135.043C95.2989 134.368 97.937 131.33 98.6845 130.247C99.4319 129.163 99.8636 127.205 98.8523 125.77C97.8411 124.335 97.3334 126.701 96.6579 127.796C95.9824 128.891 93.6161 129.991 93.6161 129.991L91.1179 132.021C91.1179 132.021 86.9809 135.651 86.7211 136.158C86.4612 136.666 85.9616 138.269 85.9616 138.269L86.3014 143.165L84.1069 151.691L88.7196 154.241Z" fill="white" stroke="#263238" stroke-linecap="round" stroke-linejoin="round"/>
<path d="M89.4106 129.067C89.4106 129.067 91.4372 125.87 92.0288 124.846C92.6203 123.823 93.5477 119.782 94.1393 120.05C94.7308 120.318 95.3384 121.649 95.1545 123.427C94.9707 125.206 92.8722 129.251 92.8722 129.251L89.4106 129.067Z" stroke="#263238" stroke-linecap="round" stroke-linejoin="round"/>
<path d="M84.5146 149.161L86.2894 143.165L85.5219 133.54L87.8842 128.984L94.3836 128.14C94.3836 128.14 98.3527 130.251 98.6925 130.251C99.0322 130.251 98.6925 131.178 97.933 131.346C97.1736 131.514 95.7346 131.094 95.7346 131.094L98.1848 132.693C98.1848 132.693 98.017 133.452 97.4254 133.62C96.8412 133.738 96.2465 133.796 95.6507 133.792C95.6507 133.792 97.7611 135.143 97.2495 135.391C96.7483 135.621 96.202 135.736 95.6507 135.727H94.0518L92.7847 135.559L90.8421 136.318C90.8421 136.318 92.1931 139.78 92.1092 141.471C92.0253 143.161 89.9148 144.269 89.9148 144.269" fill="white"/>
<path d="M84.5146 149.161L86.2894 143.165L85.5219 133.54L87.8842 128.984L94.3836 128.14C94.3836 128.14 98.3527 130.251 98.6925 130.251C99.0322 130.251 98.6925 131.178 97.933 131.346C97.1736 131.514 95.7346 131.094 95.7346 131.094L98.1848 132.693C98.1848 132.693 98.017 133.452 97.4254 133.62C96.8412 133.738 96.2466 133.796 95.6507 133.792C95.6507 133.792 97.7611 135.143 97.2495 135.391C96.7483 135.621 96.202 135.736 95.6507 135.727H94.0518L92.7847 135.559L90.8421 136.318C90.8421 136.318 92.1931 139.78 92.1092 141.471C92.0253 143.161 89.9148 144.269 89.9148 144.269" stroke="#263238" stroke-linecap="round" stroke-linejoin="round"/>
<path d="M95.7425 131.094C95.7425 131.094 94.3915 129.995 93.6321 129.995C92.8726 129.995 88.2319 130.838 88.2319 130.838" stroke="#263238" stroke-linecap="round" stroke-linejoin="round"/>
<path d="M95.6586 133.796C95.6586 133.796 93.4642 132.597 92.7887 132.597C92.1131 132.597 86.793 133.948 86.793 133.948" stroke="#263238" stroke-linecap="round" stroke-linejoin="round"/>
<path d="M84.6226 147.278L91.4777 151.895C91.4777 151.895 88.4239 168.283 88.1241 169.686C87.8243 171.089 85.6259 174.787 84.5267 175.89C83.4274 176.993 82.1284 176.789 79.1265 175.99C76.1247 175.19 73.5306 172.792 73.6225 169.686C73.7144 166.58 84.6226 147.278 84.6226 147.278Z" fill="#FFC100" stroke="#263238" stroke-linecap="round" stroke-linejoin="round"/>
<path d="M49.1917 186.998H47.2012V187.609H49.1917V186.998Z" fill="white" stroke="#263238" stroke-linecap="round" stroke-linejoin="round"/>
<path d="M51.95 186.998H49.9595V187.609H51.95V186.998Z" fill="white" stroke="#263238" stroke-linecap="round" stroke-linejoin="round"/>
<path d="M54.7079 186.998H52.7173V187.609H54.7079V186.998Z" fill="white" stroke="#263238" stroke-linecap="round" stroke-linejoin="round"/>
<path d="M57.4701 186.998H55.4795V187.609H57.4701V186.998Z" fill="white" stroke="#263238" stroke-linecap="round" stroke-linejoin="round"/>
<path d="M60.2279 186.998H58.2373V187.609H60.2279V186.998Z" fill="white" stroke="#263238" stroke-linecap="round" stroke-linejoin="round"/>
<path d="M62.9857 186.998H60.9951V187.609H62.9857V186.998Z" fill="white" stroke="#263238" stroke-linecap="round" stroke-linejoin="round"/>
<path d="M65.744 186.998H63.7534V187.609H65.744V186.998Z" fill="white" stroke="#263238" stroke-linecap="round" stroke-linejoin="round"/>
<path d="M68.5023 186.998H66.5117V187.609H68.5023V186.998Z" fill="white" stroke="#263238" stroke-linecap="round" stroke-linejoin="round"/>
<path d="M71.2601 186.998H69.2695V187.609H71.2601V186.998Z" fill="white" stroke="#263238" stroke-linecap="round" stroke-linejoin="round"/>
<path d="M74.0179 186.998H72.0273V187.609H74.0179V186.998Z" fill="white" stroke="#263238" stroke-linecap="round" stroke-linejoin="round"/>
<path d="M76.7801 186.998H74.7896V187.609H76.7801V186.998Z" fill="white" stroke="#263238" stroke-linecap="round" stroke-linejoin="round"/>
<path d="M79.5384 186.998H77.5479V187.609H79.5384V186.998Z" fill="white" stroke="#263238" stroke-linecap="round" stroke-linejoin="round"/>
<path d="M82.2962 186.998H80.3057V187.609H82.2962V186.998Z" fill="white" stroke="#263238" stroke-linecap="round" stroke-linejoin="round"/>
<path d="M85.054 186.998H83.0635V187.609H85.054V186.998Z" fill="white" stroke="#263238" stroke-linecap="round" stroke-linejoin="round"/>
<path d="M87.8123 186.998H85.8218V187.609H87.8123V186.998Z" fill="white" stroke="#263238" stroke-linecap="round" stroke-linejoin="round"/>
<path d="M90.5707 186.998H88.5801V187.609H90.5707V186.998Z" fill="white" stroke="#263238" stroke-linecap="round" stroke-linejoin="round"/>
<path d="M95.3787 187.481H46.0581V189.216H95.3787V187.481Z" fill="white" stroke="#263238" stroke-linecap="round" stroke-linejoin="round"/>
<path d="M95.3747 187.481H76.4683V189.216H95.3747V187.481Z" fill="white" stroke="#263238" stroke-linecap="round" stroke-linejoin="round"/>
<path d="M61.4468 172.288H22.6707L14.8843 131.054H53.6604L61.4468 172.288Z" fill="#263238" stroke="white" stroke-linecap="round" stroke-linejoin="round"/>
<path d="M60.2679 171.245H22.6509L15.2603 132.097H52.8732L60.2679 171.245Z" fill="#263238" stroke="white" stroke-linecap="round" stroke-linejoin="round"/>
<path d="M53.025 168.127H25.0571L19.561 139.024H47.529L53.025 168.127Z" fill="#263238" stroke="white" stroke-linecap="round" stroke-linejoin="round"/>
<path d="M19.5612 139.024L15.2603 132.097" stroke="#263238" stroke-linecap="round" stroke-linejoin="round"/>
<path d="M47.5293 139.024L52.8735 132.097" stroke="white" stroke-linecap="round" stroke-linejoin="round"/>
<path d="M53.0249 168.127L60.2677 171.245" stroke="white" stroke-linecap="round" stroke-linejoin="round"/>
<path d="M25.0572 168.127L22.6509 171.245" stroke="#263238" stroke-linecap="round" stroke-linejoin="round"/>
<path d="M36.429 159.41H30.0615L34.1146 155.796H40.482L36.429 159.41Z" fill="#263238" stroke="white" stroke-linecap="round" stroke-linejoin="round"/>
<path d="M57.5541 187.046H34.2588V189.36H57.5541V187.046Z" fill="#263238" stroke="white" stroke-linecap="round" stroke-linejoin="round"/>
<path d="M44.2433 189.36H37.8759L30.0615 180.482H36.429L44.2433 189.36Z" fill="#263238" stroke="white" stroke-linecap="round" stroke-linejoin="round"/>
<path d="M36.429 159.557H30.0615V180.39H36.429V159.557Z" fill="#263238" stroke="white" stroke-linecap="round" stroke-linejoin="round"/>
</g>
<defs>
<clipPath id="clip0_171_22401">
<rect width="210" height="210" fill="white"/>
</clipPath>
</defs>
</svg>
