<svg width="121" height="120" viewBox="0 0 121 120" fill="none" xmlns="http://www.w3.org/2000/svg">
<g clip-path="url(#clip0_896_34021)">
<path opacity="0.5" d="M120.5 108.857C120.5 108.891 82.7842 108.785 39.7083 108.785C-3.36761 108.785 0.941979 108.891 0.941979 108.857C0.941979 108.823 -3.38384 108.659 39.7083 108.659C82.8004 108.659 120.5 108.82 120.5 108.857Z" fill="#263238"/>
<path opacity="0.7" d="M101.83 15.6571C101.83 15.6571 92.0446 4.94215 79.7513 4.04237C67.458 3.14259 70.4679 16.8389 62.4371 19.817C54.4063 22.7952 52.4033 14.4659 39.8563 14.4659C27.3093 14.4659 23.2979 22.7983 22.5447 35.598C21.7916 48.3977 17.2754 56.7302 8.74519 66.2539C0.21495 75.7776 7.99473 93.637 17.2781 94.8282C21.0171 95.3066 24.9564 96.067 28.4791 97.6796C32.1086 99.3176 34.8621 102.828 38.4809 104.476C41.1676 105.692 44.1187 105.711 46.9951 105.714C53.3086 105.714 56.858 103.24 61.7775 98.8677C65.3989 95.652 69.9659 90.2216 74.7331 89.7717C81.0039 89.1761 87.0183 100.487 97.816 102.866C108.614 105.245 118.38 75.1852 115.379 62.9843C112.377 50.7834 103.836 46.614 105.593 36.4946C107.35 26.3753 105.593 20.1212 101.83 15.6571Z" fill="#FFECB2"/>
<path d="M16.1049 111.355C20.5114 111.355 24.0835 110.458 24.0835 109.353C24.0835 108.247 20.5114 107.351 16.1049 107.351C11.6984 107.351 8.12622 108.247 8.12622 109.353C8.12622 110.458 11.6984 111.355 16.1049 111.355Z" fill="#FFD000"/>
<path opacity="0.5" d="M16.1049 111.355C20.5114 111.355 24.0835 110.458 24.0835 109.353C24.0835 108.247 20.5114 107.351 16.1049 107.351C11.6984 107.351 8.12622 108.247 8.12622 109.353C8.12622 110.458 11.6984 111.355 16.1049 111.355Z" fill="white"/>
<path d="M68.2021 110.475C68.1314 110.475 68.0636 110.447 68.0136 110.397C67.9636 110.347 67.9355 110.279 67.9355 110.208V97.9189H68.4687V110.208C68.4687 110.279 68.4406 110.347 68.3906 110.397C68.3406 110.447 68.2728 110.475 68.2021 110.475Z" fill="#263238"/>
<path d="M69.0124 108.179C68.9417 108.179 68.8739 108.151 68.8239 108.101C68.7739 108.051 68.7458 107.983 68.7458 107.913V95.6235H69.279V107.913C69.279 107.983 69.2509 108.051 69.2009 108.101C69.1509 108.151 69.0831 108.179 69.0124 108.179Z" fill="#263238"/>
<path d="M105.731 110.475C105.801 110.475 105.869 110.447 105.919 110.397C105.969 110.347 105.997 110.279 105.997 110.208V97.9189H105.464V110.208C105.464 110.279 105.492 110.347 105.542 110.397C105.592 110.447 105.66 110.475 105.731 110.475Z" fill="#263238"/>
<path d="M104.921 108.179C104.991 108.179 105.059 108.151 105.109 108.101C105.159 108.051 105.187 107.983 105.187 107.913V95.6235H104.654V107.913C104.654 107.983 104.682 108.051 104.732 108.101C104.782 108.151 104.85 108.179 104.921 108.179Z" fill="#263238"/>
<path d="M107.122 96.3461H67.061L69.063 94.6934H105.118L107.122 96.3461Z" fill="white"/>
<path d="M107.122 96.4821H67.0611C67.034 96.481 67.0079 96.4719 66.986 96.4559C66.9642 96.4399 66.9476 96.4177 66.9384 96.3922C66.9293 96.3667 66.9279 96.3391 66.9346 96.3128C66.9412 96.2866 66.9556 96.2629 66.9758 96.2448L68.9778 94.5921C69.0015 94.5715 69.0318 94.5601 69.0631 94.5601H105.118C105.149 94.5597 105.18 94.5711 105.203 94.5921L107.208 96.2448C107.228 96.2629 107.242 96.2866 107.249 96.3128C107.256 96.3391 107.254 96.3667 107.245 96.3922C107.236 96.4177 107.219 96.4399 107.197 96.4559C107.176 96.4719 107.149 96.481 107.122 96.4821ZM67.4317 96.2155H106.752L105.07 94.8266H69.1111L67.4317 96.2155Z" fill="#263238"/>
<path d="M107.122 96.3804H67.061V98.3717H107.122V96.3804Z" fill="#263238"/>
<path d="M107.123 98.505H67.0613C67.0259 98.505 66.992 98.4909 66.967 98.4659C66.942 98.4409 66.928 98.407 66.928 98.3717V96.3804C66.928 96.345 66.942 96.3111 66.967 96.2861C66.992 96.2611 67.0259 96.2471 67.0613 96.2471H107.123C107.158 96.2471 107.192 96.2611 107.217 96.2861C107.242 96.3111 107.256 96.345 107.256 96.3804V98.3717C107.256 98.407 107.242 98.4409 107.217 98.4659C107.192 98.4909 107.158 98.505 107.123 98.505ZM67.1946 98.2384H106.989V96.5136H67.1946V98.2384Z" fill="#263238"/>
<path d="M87.0251 96.4258C86.9898 96.4258 86.9559 96.4118 86.9309 96.3868C86.9059 96.3618 86.8918 96.3279 86.8918 96.2925V94.8877C86.8918 94.8523 86.9059 94.8184 86.9309 94.7934C86.9559 94.7684 86.9898 94.7544 87.0251 94.7544C87.0605 94.7544 87.0944 94.7684 87.1194 94.7934C87.1444 94.8184 87.1584 94.8523 87.1584 94.8877V96.2925C87.1584 96.3279 87.1444 96.3618 87.1194 96.3868C87.0944 96.4118 87.0605 96.4258 87.0251 96.4258Z" fill="#263238"/>
<path d="M16.2834 92.6591C15.3771 91.5742 14.9506 91.5635 14.7746 91.6462C14.7746 91.0739 14.7746 90.491 14.7746 89.8974C15.4011 90.4306 15.9476 90.8811 15.9476 90.8811C15.7103 89.9414 15.2909 89.0575 14.7133 88.2793C14.676 87.6182 14.6253 86.9464 14.5534 86.3013C14.5 85.8188 14.4547 85.3283 14.4174 84.8378C14.6333 85.6935 14.8439 86.6398 15.521 87.3169C16.0973 87.9299 16.6316 88.5809 17.1205 89.2656C17.1205 89.2656 16.622 87.0717 15.6063 86.1467C15.1254 85.7307 14.7188 85.2357 14.4041 84.6832C14.3214 83.5982 14.2734 82.5079 14.2441 81.4362C14.275 80.9747 14.275 80.5116 14.2441 80.05L14.2148 80.0874C14.2148 79.9194 14.2148 79.7541 14.2148 79.5889C14.24 80.2892 14.4328 80.9732 14.777 81.5836C15.1211 82.194 15.6066 82.713 16.1928 83.097C16.1928 83.097 16.1928 81.0657 15.2624 79.8794C14.3321 78.6932 14.2521 78.9491 14.2521 78.9491C14.2325 79.1012 14.2218 79.2543 14.2201 79.4076C14.2201 77.9041 14.2548 76.4966 14.3054 75.2916C14.3507 75.7644 14.5364 76.2128 14.8386 76.5792C15.6863 77.5096 16.5314 77.5096 16.5314 77.5096C16.5314 77.5096 16.1928 75.5635 15.601 74.9691C15.227 74.5986 14.8191 74.2639 14.3827 73.9694C14.4707 72.3699 14.564 71.3436 14.5667 71.3036C14.5697 71.2708 14.5596 71.2381 14.5386 71.2127C14.5177 71.1872 14.4875 71.1711 14.4547 71.1677C14.4217 71.1653 14.3891 71.1756 14.3634 71.1964C14.3376 71.2171 14.3207 71.2469 14.3161 71.2796C14.3161 71.333 13.9989 74.7452 13.9829 79.0104C13.8732 78.3164 13.6835 77.6375 13.4177 76.9871C12.9086 75.9714 12.0635 76.0567 12.0635 76.0567C12.0283 76.05 11.9927 76.0455 11.9569 76.0434C11.8556 73.7082 11.8103 71.5915 11.7943 69.8401C12.1702 70.9491 13.8416 73.1777 13.8416 73.1777C13.8416 73.1777 13.8416 70.0454 13.1645 69.6215C12.9579 69.5044 12.7282 69.4339 12.4915 69.415C12.2548 69.3961 12.0168 69.4293 11.7943 69.5122C11.7943 68.7738 11.7943 68.102 11.7943 67.5182L11.8956 67.5049L11.7943 67.4356C11.7943 65.7855 11.8369 64.8045 11.8396 64.7698C11.8396 64.7366 11.8264 64.7047 11.8029 64.6812C11.7794 64.6577 11.7475 64.6445 11.7143 64.6445C11.6811 64.6445 11.6492 64.6577 11.6257 64.6812C11.6022 64.7047 11.589 64.7366 11.589 64.7698C11.589 64.7965 11.557 65.7215 11.5464 67.2836C11.1891 67.0837 10.6293 66.8411 10.2135 67.0011C9.53637 67.2677 9.11251 70.1334 9.11251 70.1334C9.11251 70.1334 10.2535 68.0007 11.5544 67.5769C11.5544 69.2643 11.5544 71.6155 11.6557 74.3533C11.3544 74.3133 10.2961 74.2227 9.78962 74.8864C9.19781 75.6488 8.3501 78.2746 8.3501 78.2746L11.6583 74.4706C11.677 75.0037 11.6983 75.5529 11.7223 76.1127C11.6477 76.1927 11.677 76.3473 11.741 76.5286C11.8236 78.3013 11.9409 80.194 12.1035 82.14C11.6227 82.6762 11.1884 83.2523 10.8053 83.8621C9.87492 85.3016 9.78962 87.5035 9.78962 87.5035C9.78962 87.5035 11.8876 85.3229 12.3008 84.3553C12.4687 86.3093 12.5967 88.1433 12.6926 89.8201C12.4589 90.3951 12.129 90.9261 11.717 91.3902C10.8693 92.4059 10.8693 94.6905 10.8693 94.6905C10.8693 94.6905 12.4687 93.9467 12.7593 91.4755C13.0099 96.7351 12.9432 100.078 12.9432 100.126C12.9429 100.142 12.9458 100.159 12.9517 100.174C12.9577 100.189 12.9666 100.203 12.978 100.215C12.9894 100.227 13.003 100.237 13.0181 100.243C13.0332 100.25 13.0494 100.254 13.0659 100.254C13.0986 100.254 13.1301 100.241 13.1535 100.218C13.1769 100.195 13.1904 100.164 13.1911 100.131C13.1911 100.07 13.2951 94.8557 12.7513 87.1863C12.776 87.4978 12.8545 87.8026 12.9832 88.0873C13.1485 88.4152 13.8443 89.0763 14.5187 89.6868C14.5374 90.4146 14.5374 91.1317 14.5187 91.8194C14.1981 92.1044 13.9838 92.4897 13.9109 92.9124C13.7159 93.8356 13.5744 94.7693 13.487 95.7088C13.9434 95.2336 14.2693 94.6487 14.4334 94.0107C14.3121 96.2566 14.0655 98.494 13.695 100.712C13.6895 100.745 13.697 100.779 13.7159 100.806C13.7348 100.834 13.7636 100.853 13.7963 100.859H13.8203C13.8497 100.859 13.878 100.848 13.9005 100.829C13.9229 100.81 13.9379 100.784 13.9429 100.755C14.4274 97.8238 14.7027 94.8618 14.7666 91.8914C14.9239 92.158 15.2598 92.7258 15.689 93.3336C16.2808 94.1813 17.7203 95.4502 17.7203 95.4502C17.7203 95.4502 17.5523 94.184 16.2834 92.6591ZM14.0815 87.6635C12.7273 86.6478 12.7273 86.3093 12.7273 86.3093C12.7188 86.4753 12.7188 86.6417 12.7273 86.8078C12.6473 85.7415 12.5567 84.6325 12.4607 83.4836C12.4771 82.9709 12.4323 82.4581 12.3274 81.9561C12.2021 80.4312 12.1035 78.9464 12.0289 77.5229C12.2954 78.1467 13.4497 79.7275 13.9882 80.4552V80.4846C13.701 81.016 13.4756 81.5786 13.3164 82.1613C13.055 83.0277 13.1156 83.9593 13.487 84.7845C13.7332 84.1729 13.9198 83.5391 14.0442 82.8918C14.0948 84.0434 14.1775 85.2056 14.3108 86.3359C14.3721 86.8851 14.4174 87.4342 14.4521 87.986C14.3357 87.8706 14.2119 87.7628 14.0815 87.6635Z" fill="#263238"/>
<path d="M15.721 109.198H11.2558L10.2988 99.1504H16.678L15.721 109.198Z" fill="#263238"/>
<path d="M62.1697 14.9795H19.9358V48.1897H62.1697V14.9795Z" fill="white"/>
<path d="M62.3032 48.3231H19.8027V14.8569H62.3032V48.3231ZM20.0693 48.0565H62.0366V15.1235H20.0693V48.0565Z" fill="#263238"/>
<path d="M60.4424 16.3232H21.666V46.4625H60.4424V16.3232Z" fill="#FFD000"/>
<path d="M60.4425 26.6879C58.6325 24.254 56.945 23.5929 54.6845 25.7282C51.2189 28.9938 48.7318 36.8631 46.6205 36.2873C44.5092 35.7115 44.5092 32.4486 42.5898 30.156C40.6705 27.8635 37.4076 32.4513 31.4442 37.6309C28.6167 40.0949 25.2713 41.8915 21.6555 42.8878V46.4626H60.4425V26.6879Z" fill="#263238"/>
<path d="M60.5756 46.5958H21.5327V42.7837L21.6313 42.7571C25.2282 41.7699 28.556 39.984 31.3668 37.5322C32.9289 36.1726 34.2991 34.8504 35.52 33.6854C38.1591 31.153 40.0518 29.3216 41.494 29.4042C41.729 29.4208 41.9576 29.488 42.1642 29.6012C42.3708 29.7144 42.5505 29.8709 42.691 30.06C43.5094 31.0383 43.9865 32.1926 44.4104 33.2216C44.9889 34.6265 45.49 35.8421 46.655 36.154C47.7213 36.4419 49.0542 34.1093 50.4537 31.6381C51.6613 29.5055 53.0315 27.1063 54.5936 25.6268C55.612 24.6645 56.545 24.2326 57.4514 24.3126C58.4697 24.4006 59.4533 25.1283 60.549 26.6025L60.5756 26.6371V46.5958ZM21.7993 46.3292H60.3091V26.7331C59.2721 25.3469 58.3577 24.6645 57.43 24.5818C56.6063 24.5125 55.7373 24.9177 54.7643 25.8267C53.2314 27.2743 51.8746 29.6655 50.675 31.7768C49.0915 34.5625 47.8439 36.7617 46.575 36.4152C45.3061 36.0686 44.7596 34.7944 44.1518 33.3229C43.7359 32.3179 43.2668 31.177 42.4777 30.2306C42.3593 30.0703 42.2078 29.9373 42.0335 29.8407C41.8592 29.7441 41.6661 29.6861 41.4674 29.6708C40.1558 29.6015 38.2844 31.3929 35.6933 33.8774C34.4777 35.045 33.0968 36.3672 31.532 37.7321C28.7164 40.1883 25.3875 41.9844 21.7886 42.989L21.7993 46.3292Z" fill="#263238"/>
<path d="M30.5909 28.799C33.294 28.799 35.4853 26.6077 35.4853 23.9046C35.4853 21.2015 33.294 19.0103 30.5909 19.0103C27.8878 19.0103 25.6965 21.2015 25.6965 23.9046C25.6965 26.6077 27.8878 28.799 30.5909 28.799Z" fill="#263238"/>
<path d="M30.5909 28.9347C29.596 28.9347 28.6234 28.6396 27.7962 28.0869C26.9689 27.5342 26.3242 26.7485 25.9435 25.8294C25.5627 24.9102 25.4631 23.8988 25.6572 22.923C25.8513 21.9472 26.3304 21.0509 27.0339 20.3474C27.7374 19.6439 28.6337 19.1648 29.6095 18.9707C30.5853 18.7766 31.5967 18.8762 32.5159 19.2569C33.4351 19.6377 34.2207 20.2824 34.7734 21.1096C35.3262 21.9369 35.6212 22.9094 35.6212 23.9043C35.6198 25.238 35.0893 26.5167 34.1463 27.4598C33.2032 28.4028 31.9246 28.9332 30.5909 28.9347ZM30.5909 19.1433C29.6486 19.1433 28.7274 19.4227 27.944 19.9463C27.1605 20.4699 26.55 21.214 26.1895 22.0846C25.829 22.9552 25.7348 23.9132 25.9189 24.8373C26.1029 25.7615 26.5568 26.6103 27.2233 27.2764C27.8898 27.9425 28.7389 28.396 29.6631 28.5795C30.5874 28.763 31.5453 28.6683 32.4157 28.3074C33.2861 27.9464 34.0299 27.3354 34.5531 26.5517C35.0762 25.7679 35.3551 24.8466 35.3546 23.9043C35.3532 22.6416 34.8508 21.431 33.9576 20.5384C33.0645 19.6457 31.8536 19.144 30.5909 19.1433Z" fill="#263238"/>
<path d="M109.471 14.9795H67.2373V48.1897H109.471V14.9795Z" fill="white"/>
<path d="M109.604 48.3231H67.1038V14.8569H109.604V48.3231ZM67.3703 48.0565H109.338V15.1235H67.3703V48.0565Z" fill="#263238"/>
<path d="M107.499 16.3232H69.1277V46.2039H107.499V16.3232Z" fill="#263238"/>
<path d="M107.744 26.6879C105.934 24.254 104.246 23.5929 101.986 25.7282C98.5203 28.9938 96.0331 36.8631 93.9218 36.2873C91.8105 35.7115 91.8105 32.4486 89.8912 30.156C87.9718 27.8635 84.7063 32.4513 78.7562 37.6309C75.9287 40.0949 72.5833 41.8915 68.9675 42.8878V46.4626H107.744V26.6879Z" fill="#FFD000"/>
<path d="M77.8924 28.799C80.5955 28.799 82.7868 26.6077 82.7868 23.9046C82.7868 21.2015 80.5955 19.0103 77.8924 19.0103C75.1893 19.0103 72.998 21.2015 72.998 23.9046C72.998 26.6077 75.1893 28.799 77.8924 28.799Z" fill="#FFD000"/>
<path d="M62.0444 63.209H19.8105V96.4192H62.0444V63.209Z" fill="white"/>
<path d="M62.1777 96.5527H19.6772V63.0732H62.1777V96.5527ZM19.9438 96.2861H61.9111V63.3398H19.9438V96.2861Z" fill="#263238"/>
<path d="M60.0718 64.5527H21.7007V94.4334H60.0718V64.5527Z" fill="#263238"/>
<path d="M60.3145 74.9173C58.5044 72.4835 56.8196 71.8224 54.5564 73.9603C51.0909 77.2232 48.6064 85.0926 46.4951 84.5168C44.3838 83.941 44.3838 80.6781 42.4644 78.3855C40.5451 76.0929 37.2795 80.6887 31.3295 85.871C28.502 88.335 25.1565 90.1316 21.5408 91.1279V94.7027H60.3145V74.9173Z" fill="#FFD000"/>
<path d="M35.2938 72.9212C35.7292 70.2534 33.9195 67.7378 31.2518 67.3023C28.584 66.8669 26.0683 68.6766 25.6329 71.3444C25.1975 74.0121 27.0071 76.5278 29.6749 76.9632C32.3427 77.3987 34.8584 75.589 35.2938 72.9212Z" fill="#FFD000"/>
<path d="M84.7593 82.8256C84.7593 82.8256 85.2338 83.8466 85.2338 84.2145C85.2338 84.5824 85.0872 85.0995 85.0872 85.5474C85.0872 85.9952 84.9405 86.3471 84.7913 86.0619C84.6849 85.8054 84.6106 85.5368 84.57 85.2622L84.498 86.595C84.498 86.595 84.6446 87.1842 84.2768 87.0349C84.072 86.9467 83.8953 86.8042 83.7656 86.6229C83.6359 86.4415 83.5583 86.2282 83.541 86.0059C83.541 85.5634 83.541 84.3105 83.8343 83.796C84.1275 83.2815 84.3461 82.3165 84.7593 82.8256Z" fill="white"/>
<path d="M84.37 87.1707C84.3169 87.1699 84.2644 87.159 84.2153 87.1387C83.9849 87.0406 83.7861 86.8806 83.6412 86.6763C83.4962 86.4721 83.4108 86.2316 83.3943 85.9817C83.3943 85.2407 83.4289 84.1957 83.7088 83.7078C83.7755 83.5905 83.8395 83.4413 83.9035 83.3026C84.0794 82.9134 84.2313 82.5802 84.4873 82.5482C84.5597 82.5451 84.6316 82.5613 84.6957 82.595C84.7599 82.6287 84.8139 82.6788 84.8525 82.7402L84.8685 82.7668C84.9191 82.8761 85.3563 83.8331 85.3563 84.2143C85.3482 84.4245 85.325 84.6339 85.287 84.8408C85.2422 85.072 85.2164 85.3065 85.2097 85.5419C85.2097 85.6565 85.1963 86.2297 84.9431 86.291C84.8818 86.307 84.7645 86.291 84.6765 86.115L84.6632 86.0857L84.6365 86.5602C84.6632 86.6775 84.7112 86.9734 84.5566 87.1094C84.5314 87.1319 84.5018 87.149 84.4697 87.1595C84.4376 87.1701 84.4036 87.1739 84.37 87.1707ZM84.5246 82.8121C84.4179 82.8255 84.258 83.18 84.154 83.4119C84.0874 83.5585 84.0181 83.7105 83.9434 83.8385C83.6769 84.3236 83.6769 85.5739 83.6769 85.9711C83.6945 86.1671 83.7644 86.3549 83.8793 86.5148C83.9941 86.6747 84.1498 86.8008 84.33 86.8801C84.3493 86.8844 84.3693 86.8844 84.3886 86.8801C84.4061 86.7807 84.4006 86.6786 84.3726 86.5815V86.5602L84.4473 85.214H84.7138C84.7497 85.4666 84.8141 85.7143 84.9058 85.9524C84.9475 85.8151 84.9673 85.672 84.9644 85.5286C84.9714 85.2789 84.9982 85.0302 85.0444 84.7848C85.0809 84.5921 85.1032 84.397 85.111 84.201C85.111 83.9344 84.7885 83.172 84.6552 82.8814C84.5832 82.8335 84.5432 82.8121 84.5246 82.8121Z" fill="#263238"/>
<path d="M97.9974 65.5832C97.9974 65.5832 98.7491 66.5855 98.6238 68.4622C98.4985 70.3389 98.4985 75.4759 98.7491 76.8541C98.9997 78.2323 95.7448 80.7355 95.2436 81.2366C94.7425 81.7378 93.9907 78.7308 93.9907 78.7308L96.2433 76.1023L95.9954 69.8404C95.9954 69.8404 96.8698 65.4579 97.9974 65.5832Z" fill="#FFD000"/>
<path d="M95.1238 81.4259C95.0981 81.4285 95.0722 81.4285 95.0465 81.4259C94.5267 81.282 94.0069 79.36 93.8602 78.7735L93.8442 78.7069L96.1101 76.0651L95.8596 69.8405V69.8245C95.9502 69.3633 96.7979 65.33 98.0082 65.4606H98.0642L98.0988 65.5059C98.1308 65.5486 98.8799 66.5723 98.7519 68.4756C98.6213 70.4403 98.632 75.4999 98.8746 76.8328C99.0958 78.0511 96.8592 79.9944 95.7849 80.9301C95.577 81.1087 95.4144 81.2527 95.3317 81.3326C95.3051 81.3613 95.2729 81.3843 95.2372 81.4003C95.2015 81.4163 95.1629 81.4251 95.1238 81.4259ZM94.1375 78.7602C94.42 79.8691 94.8679 81.0847 95.1185 81.1594C95.1185 81.1594 95.1185 81.1594 95.1478 81.1434C95.2358 81.0554 95.4144 80.9115 95.6143 80.7275C96.5713 79.8958 98.8132 77.9498 98.6186 76.8808C98.3521 75.4493 98.3734 70.2164 98.4907 68.457C98.5947 66.8895 98.0668 65.9431 97.9255 65.7165C97.2111 65.7725 96.4514 68.249 96.1288 69.8538L96.3794 76.1504L94.1375 78.7602Z" fill="#263238"/>
<path d="M94.5933 75.7879C94.5933 73.3247 98.512 66.495 98.512 66.495C98.512 66.495 97.8402 64.3624 97.0565 64.2531C96.2751 64.1761 95.4904 64.1387 94.7052 64.1412L94.4813 61.4541L94.2147 61.5447C94.1534 61.6353 94.3187 61.2381 94.2521 61.3394C94.0761 61.606 93.6016 61.8086 93.0685 61.9126C93.0978 62.4217 92.8472 63.7946 92.466 64.2531C91.9062 64.9276 89.2191 65.3754 89.0005 66.1591C88.7819 66.9429 87.2091 75.7879 87.2091 80.0425C87.2091 81.4527 87.0518 83.5507 86.8599 85.8139L91.1251 86.4937L90.2481 89.7512C90.2481 89.7512 89.5843 94.6483 89.5843 95.1841C89.5843 95.7199 91.2477 100.086 91.2477 100.086L92.3674 107.852L93.9348 107.812C93.9348 107.812 94.0468 102.326 94.0468 100.646C94.0468 98.9668 92.5913 94.6003 92.5913 94.6003C92.5913 94.6003 96.0568 84.409 96.0568 81.9459C96.0568 79.4827 94.5933 78.2511 94.5933 75.7879Z" fill="#263238"/>
<path d="M92.2395 107.988L91.1039 100.121C90.9093 99.6091 89.4378 95.7224 89.4378 95.184C89.4378 94.6455 90.0749 89.9324 90.1016 89.7325L90.9439 86.6028L86.7107 85.9257V85.8004C86.8813 83.7851 87.0599 81.5219 87.0599 80.0424C87.0599 75.7051 88.646 66.8521 88.8566 66.1217C88.9979 65.6232 89.867 65.2953 90.7867 64.9487C91.4451 64.7008 92.1195 64.4423 92.3515 64.1703C92.7034 63.7492 92.9513 62.4029 92.9246 61.9204V61.8031L93.0366 61.7818C93.5697 61.6752 93.9936 61.4779 94.1375 61.2647L94.2015 61.166L94.3215 61.2033C94.348 61.214 94.3699 61.2339 94.3831 61.2593C94.3963 61.2848 94.4 61.3141 94.3935 61.342L94.5934 61.2753L94.8226 64.0104C95.5732 64.0077 96.3233 64.0451 97.0699 64.1224C97.9123 64.2423 98.5627 66.2283 98.6347 66.4549L98.6507 66.5082L98.6214 66.5589C98.584 66.6282 94.7213 73.3886 94.7213 75.7878C94.7213 76.9954 95.0706 77.8804 95.4384 78.8188C95.8063 79.7571 96.1769 80.6848 96.1769 81.9457C96.1769 84.3449 92.9779 93.7871 92.7113 94.6002C92.8713 95.0827 94.1615 99.0333 94.1615 100.646C94.1615 102.307 94.0496 107.761 94.0496 107.814V107.942L92.2395 107.988ZM86.9959 85.7018L91.2772 86.3869L90.3575 89.7858C90.3575 89.8178 89.699 94.6641 89.699 95.184C89.699 95.5572 90.688 98.2922 91.3518 100.038V100.068L92.4554 107.716L93.7883 107.684C93.8043 106.849 93.8976 102.163 93.8976 100.646C93.8976 99.0067 92.4634 94.6855 92.4474 94.6428L92.4341 94.6002L92.4474 94.5575C92.4821 94.4562 95.9129 84.3609 95.9129 81.9457C95.9129 80.7408 95.5637 79.8531 95.1932 78.9174C94.8226 77.9817 94.4574 77.0514 94.4574 75.7878C94.4574 73.4019 97.9763 67.1587 98.3655 66.4789C98.1655 65.8738 97.5924 64.4662 97.0326 64.3863C96.2574 64.3105 95.4789 64.2741 94.7 64.277H94.5774L94.3561 61.6352L94.2948 61.6565L94.2548 61.7152L94.1375 61.6778L94.1082 61.6592C93.8297 61.8335 93.5216 61.9555 93.1992 62.0191C93.1992 62.6135 92.9326 63.8851 92.5621 64.341C92.2955 64.6662 91.6077 64.9248 90.888 65.1967C90.1069 65.4926 89.2219 65.8258 89.1179 66.1937C88.91 66.9214 87.3318 75.7265 87.3318 80.0557C87.3371 81.5032 87.1585 83.7105 86.9959 85.7018Z" fill="#263238"/>
<path d="M93.3828 85.1393C93.37 85.1399 93.3573 85.1367 93.3464 85.13C93.3354 85.1233 93.3268 85.1136 93.3214 85.1019C93.3174 85.0941 93.3151 85.0856 93.3146 85.0768C93.314 85.068 93.3153 85.0592 93.3183 85.051C93.3213 85.0427 93.326 85.0352 93.332 85.0288C93.3381 85.0225 93.3453 85.0174 93.3534 85.014C93.3668 85.014 94.7236 84.3528 95.2461 83.7131C95.2517 83.7062 95.2586 83.7006 95.2664 83.6964C95.2742 83.6923 95.2827 83.6897 95.2915 83.6888C95.3003 83.6879 95.3092 83.6888 95.3176 83.6914C95.3261 83.6939 95.3339 83.6981 95.3408 83.7037C95.3476 83.7093 95.3533 83.7162 95.3574 83.724C95.3616 83.7318 95.3642 83.7403 95.365 83.7491C95.3659 83.7579 95.365 83.7668 95.3625 83.7752C95.3599 83.7837 95.3557 83.7915 95.3501 83.7984C94.8169 84.4595 93.4681 85.1046 93.4094 85.1313L93.3828 85.1393Z" fill="white"/>
<path d="M92.3539 107.852C91.861 108.166 91.3451 108.442 90.8104 108.678C90.4239 108.79 89.0457 108.945 89.0457 109.174C89.0457 109.403 91.085 109.67 91.8581 109.67C92.4646 109.685 93.0715 109.668 93.6761 109.617C94.0626 109.561 93.9214 107.812 93.9214 107.812L92.3539 107.852Z" fill="white"/>
<path d="M91.8583 109.803C91.829 109.803 88.9126 109.659 88.9126 109.174C88.9126 108.931 89.2991 108.835 90.2455 108.66C90.4614 108.62 90.664 108.582 90.7786 108.55C91.3026 108.324 91.808 108.056 92.2901 107.751L92.3195 107.729L94.0495 107.687V107.812C94.1055 108.513 94.1349 109.694 93.6897 109.758C93.0805 109.807 92.4691 109.822 91.8583 109.803ZM89.2512 109.166C90.103 109.39 90.9779 109.514 91.8583 109.537C92.4586 109.552 93.0593 109.534 93.6577 109.483C93.7723 109.438 93.8523 108.782 93.7963 107.95L92.3941 107.985C91.9018 108.3 91.3847 108.575 90.848 108.806C90.728 108.841 90.5281 108.878 90.2961 108.921C89.9424 108.978 89.5932 109.06 89.2512 109.166Z" fill="#263238"/>
<path d="M92.7218 109.278C91.7008 109.278 90.0293 109.097 89.2962 109.011C89.147 109.062 89.0457 109.115 89.0457 109.174C89.0457 109.395 91.085 109.67 91.858 109.67C92.4646 109.685 93.0715 109.667 93.6761 109.616C93.7774 109.6 93.8414 109.472 93.8814 109.288C93.5561 109.283 93.1483 109.278 92.7218 109.278Z" fill="#263238"/>
<path d="M91.8583 109.803C91.829 109.803 88.9126 109.659 88.9126 109.174C88.9126 109.019 89.0859 108.942 89.2538 108.883H89.2831H89.3125C89.9976 108.963 91.7117 109.15 92.722 109.15C93.1485 109.15 93.5431 109.15 93.8843 109.15H94.0469L94.0122 109.31C93.9909 109.408 93.9243 109.707 93.695 109.739C93.0844 109.795 92.4712 109.816 91.8583 109.803ZM89.2538 109.169C90.105 109.39 90.9789 109.514 91.8583 109.536C92.4586 109.552 93.0593 109.534 93.6577 109.483C93.6779 109.466 93.6935 109.444 93.703 109.419C93.4044 109.419 93.0739 109.419 92.722 109.419C91.701 109.419 90.0216 109.238 89.3125 109.153L89.2538 109.169Z" fill="#263238"/>
<path d="M97.0565 64.2531C96.2752 64.1761 95.4904 64.1387 94.7053 64.1412L94.4814 61.4541L94.2148 61.5447C94.1535 61.6353 94.3187 61.2381 94.2521 61.3394C94.0762 61.606 93.6017 61.8086 93.0685 61.9126C93.0978 62.4217 92.8472 63.7946 92.466 64.2531C91.9062 64.9276 89.2191 65.3754 89.0005 66.1591C88.7819 66.9429 87.2091 75.7879 87.2091 80.0425C87.2091 80.2664 87.2091 80.509 87.1958 80.7676C88.9419 81.1835 91.8049 81.4234 95.8542 80.4077C95.457 78.8509 94.5987 77.6833 94.5987 75.7879C94.5987 73.3247 98.5173 66.495 98.5173 66.495C98.5173 66.495 97.8402 64.3677 97.0565 64.2531Z" fill="#FFD000"/>
<path d="M90.472 81.258C89.3571 81.2673 88.2449 81.1456 87.1584 80.8954L87.0544 80.8714V80.7621C87.0544 80.5089 87.0678 80.2663 87.0678 80.0424C87.0678 75.7051 88.6539 66.8521 88.8645 66.1217C89.0058 65.6232 89.8748 65.2953 90.7945 64.9487C91.453 64.7008 92.1274 64.4423 92.3593 64.1703C92.7112 63.7492 92.9591 62.4029 92.9325 61.9204V61.8031L93.0444 61.7818C93.5776 61.6752 94.0014 61.4779 94.1454 61.2647L94.2094 61.166L94.3293 61.2033C94.3559 61.214 94.3778 61.2339 94.391 61.2593C94.4042 61.2848 94.4079 61.3141 94.4013 61.342L94.6013 61.2753L94.8305 64.0104C95.581 64.0077 96.3312 64.0451 97.0778 64.1224C97.9201 64.2423 98.5706 66.2283 98.6426 66.4549L98.6586 66.5082L98.6292 66.5589C98.5919 66.6282 94.7292 73.3886 94.7292 75.7878C94.7292 76.9954 95.0784 77.8831 95.4463 78.8214C95.6571 79.3275 95.8352 79.8466 95.9795 80.3756L96.0114 80.5035L95.8808 80.5382C94.1142 80.9989 92.2976 81.2407 90.472 81.258ZM87.3264 80.6608C88.9951 81.042 91.7675 81.2739 95.6862 80.3116C95.5473 79.8386 95.3836 79.3732 95.1957 78.9174C94.8332 77.9977 94.46 77.0514 94.46 75.7878C94.46 73.4019 97.9788 67.1587 98.368 66.4789C98.1681 65.8738 97.5949 64.4662 97.0351 64.3863C96.2599 64.3105 95.4814 64.2741 94.7025 64.277H94.5799L94.3587 61.6352L94.2974 61.6565L94.2574 61.7152L94.1401 61.6778L94.1107 61.6592C93.8322 61.8335 93.5241 61.9555 93.2017 62.0191C93.2017 62.6135 92.9351 63.8851 92.5646 64.341C92.298 64.6662 91.6103 64.9248 90.8905 65.1967C90.1094 65.4926 89.2244 65.8258 89.1204 66.1937C88.9125 66.9214 87.3344 75.7265 87.3344 80.0557C87.337 80.237 87.3317 80.4449 87.3264 80.6608Z" fill="#263238"/>
<path d="M91.0557 56.3997C91.0557 56.3997 90.6158 58.2284 90.3972 58.3751C90.1786 58.5217 89.5175 58.8122 89.5975 59.0335C89.7656 59.3427 89.961 59.6362 90.1813 59.9106C90.1813 59.9106 90.0587 61.8033 90.2773 62.0218C90.4959 62.2404 90.9144 62.3977 91.7914 62.3977C92.6685 62.3977 93.6948 62.1071 93.988 61.6673C94.2813 61.2274 94.5718 60.7903 94.5718 60.7903C94.5718 60.7903 95.0837 60.7903 95.0837 60.0572C95.0837 59.3241 95.4515 58.3751 94.5718 57.3514C93.6921 56.3277 91.8607 55.8133 91.0557 56.3997Z" fill="white"/>
<path d="M91.7864 62.5309C90.9733 62.5309 90.4535 62.4003 90.1869 62.1177C89.9577 61.8858 90.011 60.5663 90.0483 59.9531C89.8275 59.6808 89.6346 59.387 89.4725 59.0761C89.3819 58.8095 89.7817 58.5776 90.1336 58.3803C90.2109 58.335 90.2829 58.295 90.3309 58.263C90.4455 58.1591 90.7334 57.1967 90.9333 56.3677V56.3197L90.9733 56.2904C91.829 55.6692 93.7271 56.1677 94.6654 57.2634C95.3932 58.1111 95.3105 58.9188 95.2439 59.5693C95.2279 59.7425 95.2092 59.9052 95.2092 60.0571C95.2092 60.7315 94.8147 60.8808 94.6414 60.9128L94.0896 61.7419C93.7511 62.2537 92.6501 62.5309 91.7864 62.5309ZM91.1733 56.4796C91.0293 57.0688 90.7014 58.3323 90.4695 58.4843C90.4189 58.5189 90.3415 58.5643 90.2562 58.6123C90.1149 58.6922 89.7364 58.9028 89.7231 58.9988C89.8849 59.2917 90.0732 59.5692 90.2856 59.8278L90.3149 59.8678V59.9185C90.2589 60.7822 90.2669 61.7845 90.3735 61.9285C90.6001 62.1551 91.064 62.2644 91.7917 62.2644C92.6954 62.2644 93.6284 61.9631 93.8764 61.5926L94.5002 60.6569H94.5721C94.6094 60.6569 94.9507 60.6302 94.9507 60.0571C94.9544 59.8851 94.9668 59.7134 94.988 59.5426C95.052 58.9108 95.1239 58.2097 94.4708 57.4366C93.6364 56.469 91.9383 55.9811 91.1733 56.4796Z" fill="#263238"/>
<path d="M90.9331 58.6897C90.9038 58.887 90.9331 59.0549 91.0077 59.0656C91.0824 59.0763 91.1623 58.927 91.1943 58.7297C91.2263 58.5324 91.1943 58.3618 91.117 58.3512C91.0397 58.3405 90.9624 58.4791 90.9331 58.6897Z" fill="#263238"/>
<path d="M91.6901 58.2072C91.6631 58.2071 91.6368 58.1989 91.6145 58.1837C91.5922 58.1685 91.5749 58.147 91.5648 58.1219C91.5057 57.9586 91.3904 57.8216 91.2396 57.7354C91.2017 57.7228 91.1613 57.7188 91.1216 57.7239C91.082 57.729 91.0439 57.7429 91.0104 57.7647C90.9796 57.782 90.9432 57.7863 90.9093 57.7769C90.8753 57.7674 90.8464 57.7448 90.8291 57.7141C90.8202 57.6989 90.8144 57.6821 90.8121 57.6647C90.8099 57.6473 90.8111 57.6296 90.8159 57.6127C90.8206 57.5957 90.8287 57.5799 90.8397 57.5662C90.8506 57.5525 90.8643 57.5411 90.8797 57.5328C90.9467 57.4922 91.0218 57.4669 91.0996 57.4586C91.1775 57.4503 91.2562 57.4592 91.3303 57.4848C91.5526 57.5953 91.725 57.7857 91.8128 58.018C91.8192 58.0341 91.8224 58.0513 91.8221 58.0686C91.8218 58.0859 91.8181 58.103 91.8112 58.1189C91.8042 58.1348 91.7942 58.1491 91.7816 58.1611C91.7691 58.173 91.7543 58.1824 91.7381 58.1886C91.7239 58.1987 91.7074 58.2051 91.6901 58.2072Z" fill="#263238"/>
<path d="M90.5839 56.773C91.1708 57.4325 91.8318 58.022 92.5539 58.5298C93.7029 59.3295 94.3187 58.9297 94.1401 60.4145C93.9615 61.8993 92.7006 64.1732 93.7962 65.946C94.8918 67.7187 96.9551 69.0809 100.551 67.5454C104.147 66.0099 104.606 62.2139 103.02 60.6997C101.434 59.1856 100.066 59.1003 99.2877 57.8873C98.5093 56.6744 99.0211 54.6458 97.0138 53.942C95.0065 53.2382 93.2817 53.8833 92.7672 53.8194C92.2527 53.7554 92.3274 52.5878 90.7066 52.9796C89.0858 53.3715 89.0245 56.1892 90.5839 56.773Z" fill="#263238"/>
<path d="M97.6617 68.353C95.6411 68.353 94.4122 67.1907 93.6844 66.0151C92.8633 64.6822 93.3165 63.0828 93.6844 61.7792C93.8252 61.3273 93.933 60.8658 94.007 60.3983C94.1216 59.4546 93.935 59.372 93.3805 59.1268C93.0637 58.9948 92.761 58.8313 92.4768 58.6389C91.7545 58.1314 91.0926 57.5429 90.5041 56.8848C89.6218 56.5356 89.2752 55.552 89.3232 54.7309C89.3792 53.7792 89.9123 53.0435 90.6827 52.8649C91.853 52.5796 92.2316 53.0888 92.4795 53.4247C92.6021 53.5873 92.6821 53.6912 92.7914 53.6912C93.0045 53.6917 93.2171 53.6703 93.4258 53.6273C94.6351 53.3781 95.8882 53.4442 97.0646 53.8192C98.4588 54.3044 98.7094 55.4187 98.9306 56.4183C99.01 56.9092 99.1713 57.3832 99.4078 57.8205C99.7997 58.4337 100.346 58.7456 101.037 59.1374C101.789 59.5352 102.486 60.029 103.111 60.6063C103.86 61.3154 104.177 62.4883 103.95 63.7385C103.638 65.4633 102.42 66.8948 100.602 67.6706C99.6778 68.0935 98.6778 68.3256 97.6617 68.353ZM91.3145 53.0381C91.1229 53.0417 90.9323 53.0677 90.7467 53.1154C89.947 53.3074 89.6271 54.1151 89.5898 54.7469C89.5445 55.4826 89.8563 56.3464 90.6294 56.6476H90.6614L90.6854 56.6742C91.2647 57.3251 91.9167 57.9074 92.6288 58.4097C92.8998 58.5922 93.1882 58.7476 93.4898 58.8735C94.1109 59.1401 94.4042 59.3294 94.2709 60.4197C94.1958 60.9008 94.0853 61.3757 93.9403 61.8405C93.5698 63.1494 93.1406 64.6369 93.911 65.8632C94.884 67.4386 96.8194 68.9848 100.498 67.4173C102.231 66.6789 103.393 65.3194 103.697 63.6852C103.902 62.5389 103.612 61.43 102.937 60.7902C102.328 60.2295 101.648 59.7493 100.917 59.3613C100.221 58.9668 99.6211 58.6229 99.1946 57.9538C98.9394 57.4922 98.7663 56.9898 98.6827 56.469C98.4561 55.456 98.2429 54.5016 96.9873 54.0698C95.5558 53.5713 94.2549 53.7712 93.4791 53.8912C93.2459 53.9391 93.0081 53.9606 92.77 53.9552C92.5434 53.9285 92.4128 53.7552 92.2769 53.574C92.1804 53.4055 92.0398 53.2666 91.8702 53.1722C91.7007 53.0777 91.5085 53.0314 91.3145 53.0381Z" fill="#263238"/>
<path d="M97.68 67.972C96.5098 67.8254 95.0862 67.1989 94.9663 65.0396C94.9156 64.1199 95.1342 63.0563 95.3475 62.03C95.6007 60.7957 95.8407 59.6308 95.6327 58.7457C95.3182 57.3969 93.9693 57.1463 92.5404 56.8664C92.2739 56.8131 91.978 56.7571 91.7007 56.6958L91.3542 56.6185C89.936 56.3012 89.6001 56.2266 89.4375 55.2589C89.4128 55.1478 89.4142 55.0324 89.4414 54.9219C89.4687 54.8114 89.5212 54.7087 89.5948 54.6218C89.9546 54.2139 90.7437 54.2406 90.7784 54.2406C90.7871 54.2409 90.7957 54.243 90.8037 54.2467C90.8116 54.2503 90.8188 54.2555 90.8247 54.262C90.8307 54.2684 90.8353 54.276 90.8383 54.2842C90.8413 54.2924 90.8427 54.3011 90.8423 54.3099C90.8416 54.3271 90.8343 54.3434 90.8219 54.3553C90.8095 54.3672 90.7929 54.3739 90.7757 54.3739H90.7384C90.5891 54.3739 89.9733 54.3925 89.696 54.7098C89.6345 54.7824 89.5911 54.8686 89.5693 54.9613C89.5475 55.054 89.548 55.1505 89.5708 55.2429C89.7174 56.1226 89.9706 56.1786 91.3835 56.4932L91.73 56.5705C91.9966 56.6318 92.2898 56.6878 92.5644 56.7411C94.0359 57.021 95.4275 57.2876 95.7634 58.7218C95.9766 59.6361 95.734 60.8144 95.4781 62.062C95.2675 63.0803 95.0516 64.1359 95.0996 65.037C95.1929 66.7004 96.0673 67.6468 97.696 67.852C97.705 67.8526 97.7137 67.8551 97.7216 67.8593C97.7295 67.8635 97.7364 67.8693 97.7419 67.8763C97.7475 67.8834 97.7515 67.8915 97.7536 67.9001C97.7558 67.9088 97.7562 67.9179 97.7547 67.9267C97.7493 67.9416 97.739 67.9543 97.7254 67.9626C97.7118 67.9708 97.6958 67.9741 97.68 67.972Z" fill="white"/>
<path d="M95.1929 62.883C95.184 62.883 95.1752 62.8812 95.1671 62.8777C95.159 62.8741 95.1517 62.8689 95.1457 62.8624C95.1396 62.8559 95.135 62.8482 95.1322 62.8398C95.1293 62.8314 95.1282 62.8225 95.1289 62.8137C95.1822 60.2279 94.0093 59.4521 93.9986 59.4441C93.9838 59.4343 93.9732 59.4191 93.9693 59.4018C93.9653 59.3844 93.9682 59.3661 93.9773 59.3508C93.9819 59.3435 93.9879 59.3372 93.995 59.3322C94.0021 59.3273 94.0101 59.3239 94.0186 59.3221C94.0271 59.3204 94.0358 59.3204 94.0443 59.3221C94.0528 59.3238 94.0608 59.3272 94.0679 59.3322C94.1213 59.3642 95.3155 60.1559 95.2622 62.8163C95.2615 62.8343 95.2539 62.8512 95.241 62.8636C95.2281 62.8761 95.2108 62.883 95.1929 62.883Z" fill="white"/>
<path d="M101.724 65.5087C101.528 65.507 101.334 65.4782 101.146 65.4234C99.0636 64.8369 97.5868 62.4111 96.955 60.5157C96.7901 59.9788 96.6785 59.427 96.6217 58.8682C96.4858 57.8606 96.3552 56.9089 95.4248 56.1198C94.0359 54.9442 91.922 55.8533 91.9007 55.8533C91.8926 55.8568 91.8839 55.8587 91.8752 55.8589C91.8664 55.859 91.8576 55.8575 91.8495 55.8542C91.8413 55.851 91.8338 55.8462 91.8275 55.8401C91.8212 55.834 91.8162 55.8267 91.8127 55.8186C91.8063 55.8023 91.8063 55.7841 91.8127 55.7678C91.8191 55.7515 91.8315 55.7382 91.8473 55.7306C91.8687 55.7306 94.0599 54.7896 95.5101 56.0185C96.4831 56.8396 96.6137 57.8179 96.7524 58.8523C96.8094 59.4018 96.9192 59.9446 97.0803 60.473C97.7014 62.3391 99.1489 64.7223 101.183 65.2954C102.292 65.6073 102.977 64.9356 103.252 64.1998C103.526 63.464 103.409 62.7843 103.017 62.6003C102.809 62.4883 102.573 62.4416 102.338 62.4664C102.104 62.4911 101.882 62.5861 101.703 62.739C101.587 62.8504 101.51 62.9963 101.484 63.1549C101.458 63.3134 101.484 63.4762 101.559 63.6187C101.565 63.635 101.565 63.6531 101.559 63.6695C101.552 63.6858 101.54 63.6991 101.524 63.7066C101.516 63.7106 101.507 63.7128 101.499 63.7131C101.49 63.7135 101.481 63.712 101.472 63.7087C101.464 63.7055 101.457 63.7005 101.45 63.6942C101.444 63.6879 101.439 63.6803 101.436 63.672C101.351 63.5044 101.323 63.3142 101.354 63.129C101.385 62.9439 101.474 62.7736 101.609 62.643C101.809 62.4715 102.055 62.3643 102.316 62.3352C102.577 62.3062 102.841 62.3568 103.073 62.4804C103.587 62.7203 103.63 63.568 103.377 64.2478C103.124 64.9276 102.585 65.5087 101.724 65.5087Z" fill="white"/>
<path d="M91.5346 85.5424L88.2039 94.9305C88.2039 94.9305 91.6416 98.5793 92.0723 100.353C92.503 102.127 93.6775 107.864 93.6775 107.864L92.3398 108.238C92.3398 108.238 90.2478 104.42 88.9583 102.023C87.6688 99.6259 85.4136 97.2236 85.4136 95.4525C85.4136 93.6813 86.3992 79.811 86.6132 78.2476" fill="#263238"/>
<path d="M92.2235 109.001L92.1728 108.907C92.1515 108.867 90.0749 104.959 88.8033 102.526C88.3634 101.681 87.8063 100.833 87.2678 100.012C86.2335 98.4363 85.2551 96.9488 85.2551 95.7199C85.2551 93.8378 85.9056 85.486 86.1135 83.9238L86.3801 83.9585C86.1722 85.5153 85.5244 93.8432 85.5244 95.7199C85.5244 96.8715 86.4814 98.3243 87.4917 99.8652C88.0249 100.692 88.5953 101.545 89.0432 102.4C90.2001 104.624 92.0342 108.07 92.3594 108.686L93.479 108.364C93.3111 107.516 92.2874 102.435 91.8982 100.78C91.485 99.0148 88.1102 95.3093 88.0755 95.272L88.0222 95.216L91.3678 85.5046L91.621 85.5926L88.3314 95.1521C88.7846 95.6532 91.757 98.9908 92.1648 100.721C92.5887 102.52 93.7643 108.374 93.7643 108.433L93.7883 108.553L92.2235 109.001Z" fill="#263238"/>
<path d="M92.3539 107.918C92.3409 107.918 92.3282 107.915 92.3173 107.908C92.3064 107.9 92.2978 107.89 92.2926 107.878C92.2926 107.878 92.1487 107.532 91.9061 106.959C91.9026 106.95 91.9009 106.942 91.9009 106.933C91.9009 106.924 91.9027 106.915 91.9062 106.907C91.9097 106.899 91.9147 106.891 91.9211 106.885C91.9275 106.879 91.9351 106.874 91.9434 106.871C91.9513 106.867 91.9597 106.865 91.9683 106.865C91.9769 106.865 91.9855 106.867 91.9934 106.87C92.0014 106.873 92.0086 106.878 92.0147 106.884C92.0207 106.89 92.0255 106.897 92.0287 106.905C92.2713 107.479 92.4153 107.825 92.4153 107.825C92.4217 107.841 92.4217 107.86 92.4153 107.876C92.4088 107.892 92.3964 107.905 92.3806 107.913L92.3539 107.918Z" fill="white"/>
<path d="M91.6529 106.252C91.6399 106.252 91.6271 106.248 91.6162 106.241C91.6053 106.234 91.5968 106.224 91.5916 106.212C90.4666 103.546 87.7715 97.2844 87.0144 96.3488C86.0041 95.0852 87.8835 87.9063 87.9634 87.5997C87.9684 87.5826 87.9798 87.5681 87.9952 87.5592C88.0106 87.5502 88.0288 87.5476 88.0461 87.5517C88.0628 87.5572 88.0769 87.5687 88.0858 87.5839C88.0946 87.5991 88.0976 87.6171 88.0941 87.6343C88.0727 87.709 86.1507 95.0559 87.1211 96.2661C87.8568 97.1885 90.32 102.867 91.7142 106.169C91.7181 106.177 91.7203 106.186 91.7207 106.195C91.721 106.204 91.7195 106.213 91.7163 106.221C91.713 106.229 91.7081 106.237 91.7017 106.243C91.6954 106.249 91.6878 106.254 91.6795 106.257C91.6703 106.258 91.6611 106.256 91.6529 106.252Z" fill="white"/>
<path d="M91.0636 65.9084C91.0636 65.9084 90.2772 65.33 89.3336 66.7961C88.3899 68.2623 87.3582 73.9111 87.3582 75.3026C87.3582 76.6941 86.1879 78.5015 85.4922 79.5065C84.4819 80.9754 83.5648 82.5029 83.3596 83.6811C83.1543 84.8594 83.1916 87.08 83.5115 87.1893C83.8314 87.2986 84.0447 87.2959 84.0447 86.8667C84.0447 86.4376 83.7781 85.1793 84.2126 84.8594C84.6471 84.5395 84.7458 82.8254 84.7458 82.8254C84.7458 82.8254 89.1336 78.0057 89.7761 76.9367C90.4185 75.8678 91.5968 70.083 91.5968 70.083C91.5968 70.083 91.9194 66.9801 91.0636 65.9084Z" fill="white"/>
<path d="M83.7915 87.3811C83.6802 87.3764 83.5704 87.3539 83.4663 87.3144C82.9811 87.1518 83.0477 84.6353 83.2237 83.657C83.4636 82.3241 84.5726 80.6127 85.3883 79.4291C85.8415 78.768 87.225 76.7633 87.225 75.3025C87.225 73.9296 88.262 68.2115 89.2217 66.724C89.6162 66.1109 90.0374 65.7617 90.4746 65.679C90.7051 65.6312 90.9452 65.6752 91.1437 65.8016L91.1677 65.8256C92.0474 66.9266 91.7462 69.9682 91.7328 70.0909C91.6822 70.3388 90.5412 75.9183 89.8935 76.9952C89.2723 78.0295 85.303 82.4014 84.8765 82.8599C84.8551 83.1825 84.7298 84.6193 84.2927 84.9472C84.0261 85.1472 84.1007 85.9496 84.146 86.4267C84.1647 86.5973 84.178 86.744 84.178 86.8479C84.1876 86.9307 84.1776 87.0146 84.1489 87.0928C84.1202 87.1711 84.0736 87.2415 84.0128 87.2984C83.9495 87.3486 83.8721 87.3775 83.7915 87.3811ZM90.6612 65.9296C90.6121 65.9304 90.5631 65.9349 90.5146 65.9429C90.16 66.0122 89.7922 66.3321 89.4483 66.8706C88.5099 68.3235 87.4943 73.9482 87.4943 75.3025C87.4943 76.6567 86.4279 78.4028 85.6096 79.581C84.7912 80.7593 83.7195 82.4361 83.4903 83.705C83.261 84.9739 83.373 86.9039 83.5649 87.0665C83.7169 87.1145 83.8182 87.1278 83.8581 87.0985C83.8981 87.0692 83.9141 87.0399 83.9141 86.8666C83.9141 86.7733 83.9008 86.6347 83.8848 86.4721C83.8262 85.8696 83.7462 85.0432 84.1354 84.7526C84.402 84.5447 84.5779 83.4544 84.6179 82.8146V82.7693L84.6499 82.7346C84.6925 82.6867 89.0377 77.9149 89.6642 76.8699C90.2907 75.825 91.4583 70.1175 91.4689 70.0589C91.4689 70.0429 91.7702 67.0412 90.9731 66.0122C90.8786 65.9568 90.7707 65.9283 90.6612 65.9296Z" fill="#263238"/>
<path d="M91.0637 65.9084C91.0637 65.9084 90.2773 65.33 89.3336 66.7961C88.39 68.2623 87.3583 73.9111 87.3583 75.3026C87.3583 76.6941 86.188 78.5015 85.4923 79.5065C84.8623 80.3908 84.3043 81.3241 83.8235 82.2976C84.0959 82.5344 84.42 82.7043 84.7698 82.7934C85.1324 82.3936 89.1604 77.9577 89.7735 76.9287C90.4159 75.8624 91.5942 70.075 91.5942 70.075C91.5942 70.075 91.9194 66.9801 91.0637 65.9084Z" fill="#FFD000"/>
<path d="M84.8206 82.9479L84.7406 82.9266C84.3687 82.8293 84.0246 82.6468 83.7356 82.3934L83.6689 82.3268L83.7089 82.2415C84.1909 81.2596 84.7526 80.319 85.3884 79.4291C85.8415 78.768 87.2251 76.7633 87.2251 75.3025C87.2251 73.9296 88.2621 68.2115 89.2217 66.724C89.6163 66.1109 90.0375 65.7617 90.4747 65.679C90.7052 65.6312 90.9452 65.6752 91.1438 65.8016L91.1678 65.8256C92.0475 66.9266 91.7462 69.9682 91.7329 70.0909C91.6823 70.3388 90.5413 75.9183 89.8935 76.9952C89.2751 78.0242 85.3244 82.3801 84.8739 82.8732L84.8206 82.9479ZM83.9942 82.2681C84.2151 82.4384 84.4654 82.5667 84.7326 82.6467C85.2657 82.0602 89.0805 77.8483 89.6643 76.8726C90.2881 75.8329 91.4583 70.1202 91.469 70.0615C91.469 70.0456 91.7702 67.0439 90.9732 66.0149C90.8334 65.9381 90.6705 65.9144 90.5146 65.9483C90.1601 66.0176 89.7922 66.3375 89.4483 66.8759C88.51 68.3288 87.4943 73.9536 87.4943 75.3078C87.4943 76.662 86.428 78.4081 85.6096 79.5864C85.0031 80.4356 84.463 81.3304 83.9942 82.2628V82.2681Z" fill="#263238"/>
<path d="M92.2979 108.843C92.2979 108.843 91.8581 110.176 91.6368 110.387C91.4155 110.597 89.8747 111.104 89.6535 111.325C89.4322 111.546 90.5358 111.821 91.7488 111.592C92.9617 111.362 94.0067 110.435 94.3372 110.259C94.6678 110.083 93.6415 108.441 93.6415 108.441C93.1587 108.399 92.6782 108.543 92.2979 108.843Z" fill="white"/>
<path d="M90.8451 111.813C90.1866 111.813 89.6242 111.688 89.5122 111.477C89.4912 111.437 89.4841 111.391 89.4918 111.346C89.4995 111.301 89.5216 111.26 89.5548 111.229C89.8776 111.02 90.2262 110.853 90.5918 110.733C90.9211 110.616 91.2388 110.469 91.5409 110.294C91.6848 110.15 92.002 109.302 92.17 108.801L92.1833 108.761L92.2153 108.737C92.627 108.421 93.1438 108.274 93.6601 108.326H93.7188L93.7508 108.377C93.9587 108.713 94.6305 109.838 94.5212 110.227C94.5022 110.295 94.4571 110.352 94.3959 110.387C94.2752 110.456 94.1586 110.531 94.0467 110.614C93.5482 110.963 92.7138 111.549 91.7701 111.72C91.4651 111.778 91.1556 111.809 90.8451 111.813ZM89.7921 111.384C90.4173 111.584 91.0845 111.613 91.7248 111.469C92.6098 111.307 93.4149 110.744 93.8974 110.403C94.0197 110.313 94.1469 110.23 94.2786 110.155C94.3293 110.035 94.012 109.302 93.5615 108.582C93.1511 108.564 92.7466 108.684 92.4126 108.923C92.3113 109.219 91.9514 110.256 91.7328 110.48C91.41 110.69 91.0615 110.856 90.6958 110.976C90.3862 111.093 90.0844 111.229 89.7921 111.384Z" fill="#263238"/>
<path d="M91.7488 111.6C92.959 111.379 94.0067 110.443 94.3372 110.267C94.4465 110.214 94.4092 110 94.3106 109.734L94.2812 109.75C93.7907 110.016 92.6818 110.816 91.4742 111.083C90.8798 111.237 90.2675 111.311 89.6535 111.304C89.4322 111.544 90.5358 111.821 91.7488 111.6Z" fill="#263238"/>
<path d="M90.8451 111.813C90.1866 111.813 89.6242 111.688 89.5122 111.477C89.4912 111.437 89.4841 111.391 89.4918 111.346C89.4995 111.301 89.5216 111.26 89.5548 111.229L89.6002 111.187H89.6615C90.2619 111.192 90.8604 111.119 91.4422 110.971C92.289 110.733 93.0926 110.363 93.8228 109.873C93.9747 109.779 94.1053 109.699 94.2093 109.643L94.3639 109.571L94.4279 109.699C94.4865 109.854 94.6412 110.264 94.3906 110.39C94.2699 110.458 94.1533 110.534 94.0414 110.616C93.5429 110.965 92.7085 111.552 91.7648 111.723C91.4615 111.78 91.1537 111.81 90.8451 111.813ZM89.9974 111.456C90.5664 111.576 91.1539 111.581 91.7248 111.469C92.6098 111.307 93.4149 110.744 93.8974 110.403C94.0192 110.313 94.1465 110.23 94.2786 110.155C94.2695 110.084 94.2553 110.014 94.2359 109.944L93.9694 110.104C93.2129 110.611 92.3793 110.992 91.5009 111.232C91.0067 111.348 90.5039 111.423 89.9974 111.456Z" fill="#263238"/>
</g>
<defs>
<clipPath id="clip0_896_34021">
<rect width="120" height="120" fill="white" transform="translate(0.5)"/>
</clipPath>
</defs>
</svg>
