<svg width="210" height="210" viewBox="0 0 210 210" fill="none" xmlns="http://www.w3.org/2000/svg">
<g clip-path="url(#clip0_171_22328)">
<path opacity="0.5" d="M210 190.5C210 190.559 143.998 190.375 68.6147 190.375C-6.76813 190.375 0.773646 190.559 0.773646 190.5C0.773646 190.44 -6.79653 190.154 68.6147 190.154C144.026 190.154 210 190.436 210 190.5Z" fill="#263238"/>
<path opacity="0.7" d="M177.327 27.4C177.327 27.4 160.203 8.64877 138.69 7.07415C117.176 5.49954 122.444 29.468 108.39 34.6798C94.3358 39.8915 90.8305 25.3153 68.8733 25.3153C46.9161 25.3153 39.8961 39.8971 38.5781 62.2965C37.2601 84.696 29.3568 99.2778 14.4289 115.944C-0.499021 132.611 13.1156 163.865 29.3615 165.949C35.9047 166.787 42.7985 168.117 48.9632 170.939C55.3148 173.806 60.1334 179.949 66.4663 182.832C71.1681 184.961 76.3326 184.994 81.3662 185C92.4149 185 98.6263 180.67 107.235 173.019C113.573 167.391 121.565 157.888 129.908 157.101C140.882 156.058 151.407 175.852 170.303 180.016C189.199 184.179 206.291 131.574 201.037 110.222C195.784 88.8709 180.837 81.5745 183.913 63.8656C186.988 46.1567 183.913 35.2121 177.327 27.4Z" fill="#FFECB2"/>
<path d="M27.3084 194.87C35.0197 194.87 41.271 193.302 41.271 191.367C41.271 189.432 35.0197 187.863 27.3084 187.863C19.597 187.863 13.3457 189.432 13.3457 191.367C13.3457 193.302 19.597 194.87 27.3084 194.87Z" fill="#FFC100"/>
<path opacity="0.5" d="M27.3084 194.87C35.0197 194.87 41.271 193.302 41.271 191.367C41.271 189.432 35.0197 187.863 27.3084 187.863C19.597 187.863 13.3457 189.432 13.3457 191.367C13.3457 193.302 19.597 194.87 27.3084 194.87Z" fill="white"/>
<path d="M118.479 193.331C118.355 193.331 118.236 193.281 118.149 193.194C118.061 193.106 118.012 192.988 118.012 192.864V171.358H118.945V192.864C118.945 192.988 118.896 193.106 118.809 193.194C118.721 193.281 118.602 193.331 118.479 193.331Z" fill="#263238"/>
<path d="M119.897 189.314C119.773 189.314 119.654 189.265 119.567 189.177C119.479 189.09 119.43 188.971 119.43 188.847V167.341H120.363V188.847C120.363 188.971 120.314 189.09 120.227 189.177C120.139 189.265 120.02 189.314 119.897 189.314Z" fill="#263238"/>
<path d="M184.154 193.331C184.278 193.331 184.396 193.281 184.484 193.194C184.571 193.106 184.621 192.988 184.621 192.864V171.358H183.688V192.864C183.688 192.988 183.737 193.106 183.824 193.194C183.912 193.281 184.03 193.331 184.154 193.331Z" fill="#263238"/>
<path d="M182.736 189.314C182.86 189.314 182.978 189.265 183.066 189.177C183.153 189.09 183.203 188.971 183.203 188.847V167.341H182.27V188.847C182.27 188.971 182.319 189.09 182.406 189.177C182.494 189.265 182.612 189.314 182.736 189.314Z" fill="#263238"/>
<path d="M186.589 168.606H116.482L119.985 165.713H183.081L186.589 168.606Z" fill="white"/>
<path d="M186.589 168.844H116.482C116.434 168.842 116.389 168.826 116.35 168.798C116.312 168.77 116.283 168.731 116.267 168.686C116.251 168.642 116.249 168.593 116.26 168.547C116.272 168.501 116.297 168.46 116.332 168.428L119.836 165.536C119.877 165.5 119.93 165.48 119.985 165.48H183.081C183.136 165.479 183.189 165.499 183.23 165.536L186.738 168.428C186.773 168.46 186.799 168.501 186.81 168.547C186.822 168.593 186.82 168.642 186.804 168.686C186.787 168.731 186.758 168.77 186.72 168.798C186.682 168.826 186.636 168.842 186.589 168.844ZM117.13 168.377H185.94L182.997 165.947H120.069L117.13 168.377Z" fill="#263238"/>
<path d="M186.589 168.666H116.482V172.151H186.589V168.666Z" fill="#263238"/>
<path d="M186.589 172.384H116.482C116.42 172.384 116.361 172.36 116.317 172.316C116.274 172.272 116.249 172.213 116.249 172.151V168.666C116.249 168.604 116.274 168.545 116.317 168.501C116.361 168.458 116.42 168.433 116.482 168.433H186.589C186.651 168.433 186.711 168.458 186.754 168.501C186.798 168.545 186.823 168.604 186.823 168.666V172.151C186.823 172.213 186.798 172.272 186.754 172.316C186.711 172.36 186.651 172.384 186.589 172.384ZM116.716 171.918H186.356V168.9H116.716V171.918Z" fill="#263238"/>
<path d="M151.419 168.746C151.357 168.746 151.298 168.721 151.254 168.677C151.211 168.634 151.186 168.574 151.186 168.512V166.054C151.186 165.992 151.211 165.933 151.254 165.889C151.298 165.845 151.357 165.821 151.419 165.821C151.481 165.821 151.54 165.845 151.584 165.889C151.628 165.933 151.653 165.992 151.653 166.054V168.512C151.653 168.574 151.628 168.634 151.584 168.677C151.54 168.721 151.481 168.746 151.419 168.746Z" fill="#263238"/>
<path d="M27.6211 162.154C26.035 160.255 25.2886 160.236 24.9807 160.381C24.9807 159.38 24.9807 158.359 24.9807 157.321C26.077 158.254 27.0333 159.042 27.0333 159.042C26.6181 157.398 25.8843 155.851 24.8734 154.489C24.8081 153.332 24.7194 152.156 24.5935 151.027C24.5002 150.183 24.4209 149.325 24.3556 148.466C24.7334 149.964 25.102 151.62 26.2869 152.805C27.2953 153.878 28.2305 155.017 29.086 156.215C29.086 156.215 28.2136 152.376 26.4362 150.757C25.5945 150.029 24.883 149.163 24.3322 148.196C24.1876 146.297 24.1037 144.389 24.0523 142.514C24.1063 141.706 24.1063 140.896 24.0523 140.088L24.001 140.153C24.001 139.859 24.001 139.57 24.001 139.281C24.0451 140.506 24.3825 141.703 24.9848 142.772C25.5871 143.84 26.4368 144.748 27.4625 145.42C27.4625 145.42 27.4625 141.865 25.8344 139.789C24.2063 137.713 24.0663 138.161 24.0663 138.161C24.0319 138.427 24.0132 138.695 24.0104 138.964C24.0104 136.332 24.071 133.869 24.1596 131.761C24.2389 132.588 24.5638 133.373 25.0927 134.014C26.5762 135.642 28.055 135.642 28.055 135.642C28.055 135.642 27.4625 132.236 26.4269 131.196C25.7723 130.548 25.0586 129.962 24.2949 129.447C24.4489 126.648 24.6122 124.852 24.6168 124.782C24.622 124.724 24.6044 124.667 24.5677 124.622C24.531 124.578 24.4783 124.55 24.4209 124.544C24.3632 124.54 24.306 124.558 24.261 124.594C24.216 124.63 24.1864 124.682 24.1783 124.74C24.1783 124.833 23.6231 130.804 23.5952 138.268C23.4032 137.054 23.0713 135.866 22.6062 134.728C21.7151 132.95 20.2363 133.099 20.2363 133.099C20.1747 133.088 20.1123 133.08 20.0497 133.076C19.8724 128.99 19.7931 125.285 19.7651 122.22C20.4229 124.161 23.3479 128.061 23.3479 128.061C23.3479 128.061 23.3479 122.58 22.163 121.838C21.8015 121.633 21.3995 121.51 20.9852 121.476C20.571 121.443 20.1545 121.502 19.7651 121.647C19.7651 120.354 19.7651 119.179 19.7651 118.157L19.9424 118.134L19.7651 118.013C19.7651 115.125 19.8397 113.408 19.8444 113.347C19.8444 113.289 19.8213 113.234 19.7802 113.192C19.7391 113.151 19.6833 113.128 19.6252 113.128C19.567 113.128 19.5112 113.151 19.4701 113.192C19.429 113.234 19.4059 113.289 19.4059 113.347C19.4059 113.394 19.3499 115.013 19.3313 117.747C18.7061 117.397 17.7265 116.972 16.9987 117.252C15.8138 117.719 15.072 122.734 15.072 122.734C15.072 122.734 17.0687 119.002 19.3452 118.26C19.3452 121.213 19.3452 125.327 19.5225 130.118C18.9954 130.049 17.1433 129.89 16.2569 131.052C15.2213 132.386 13.7378 136.981 13.7378 136.981L19.5272 130.324C19.5598 131.257 19.5972 132.218 19.6391 133.197C19.5085 133.337 19.5598 133.608 19.6718 133.925C19.8164 137.028 20.0217 140.34 20.3063 143.745C19.4648 144.684 18.7048 145.692 18.0344 146.759C16.4062 149.278 16.2569 153.131 16.2569 153.131C16.2569 153.131 19.9284 149.315 20.6515 147.622C20.9454 151.041 21.1693 154.251 21.3372 157.185C20.9283 158.192 20.3509 159.121 19.6298 159.933C18.1463 161.711 18.1463 165.709 18.1463 165.709C18.1463 165.709 20.9454 164.407 21.4539 160.082C21.8924 169.287 21.7758 175.137 21.7758 175.221C21.7751 175.25 21.7802 175.278 21.7907 175.305C21.8011 175.332 21.8167 175.356 21.8367 175.377C21.8566 175.398 21.8804 175.415 21.9068 175.426C21.9332 175.438 21.9616 175.444 21.9904 175.445C22.0477 175.445 22.1028 175.422 22.1438 175.382C22.1848 175.342 22.2084 175.287 22.2096 175.23C22.2096 175.123 22.3916 165.998 21.4399 152.576C21.4831 153.121 21.6204 153.655 21.8457 154.153C22.135 154.727 23.3526 155.884 24.5328 156.952C24.5655 158.226 24.5655 159.481 24.5328 160.684C23.9718 161.183 23.5968 161.857 23.4692 162.597C23.128 164.213 22.8804 165.846 22.7274 167.491C23.526 166.659 24.0964 165.636 24.3836 164.519C24.1712 168.449 23.7398 172.365 23.0913 176.247C23.0817 176.304 23.0949 176.363 23.128 176.411C23.161 176.459 23.2115 176.492 23.2686 176.504H23.3106C23.362 176.503 23.4117 176.485 23.4509 176.452C23.4901 176.418 23.5164 176.372 23.5252 176.322C24.3731 171.192 24.8549 166.008 24.9667 160.81C25.2419 161.277 25.8297 162.27 26.5808 163.334C27.6165 164.818 30.1356 167.038 30.1356 167.038C30.1356 167.038 29.8417 164.822 27.6211 162.154ZM23.7678 153.411C21.3979 151.634 21.3979 151.041 21.3979 151.041C21.383 151.332 21.383 151.623 21.3979 151.914C21.2579 150.048 21.0993 148.107 20.9314 146.096C20.96 145.199 20.8817 144.302 20.6981 143.423C20.4789 140.755 20.3063 138.156 20.1756 135.665C20.6421 136.757 22.6621 139.523 23.6045 140.797V140.848C23.1019 141.778 22.7074 142.763 22.4289 143.783C21.9714 145.299 22.0774 146.929 22.7274 148.373C23.1582 147.303 23.4847 146.194 23.7025 145.061C23.7911 147.076 23.9357 149.11 24.169 151.088C24.2763 152.049 24.3556 153.01 24.4162 153.976C24.2126 153.774 23.9959 153.585 23.7678 153.411Z" fill="#263238"/>
<path d="M26.6373 191.096H18.8232L17.1484 173.513H28.312L26.6373 191.096Z" fill="#263238"/>
<path d="M107.922 26.2146H34.0127V84.3325H107.922V26.2146Z" fill="white"/>
<path d="M108.156 84.5657H33.7798V26H108.156V84.5657ZM34.2463 84.0992H107.689V26.4665H34.2463V84.0992Z" fill="#263238"/>
<path d="M104.899 28.5659H37.0405V81.3096H104.899V28.5659Z" fill="#FFC100"/>
<path d="M104.899 46.7038C101.732 42.4445 98.7786 41.2876 94.8226 45.0243C88.758 50.7391 84.4054 64.5105 80.7107 63.5028C77.0159 62.4952 77.0159 56.7851 73.657 52.7731C70.2982 48.7611 64.5881 56.7897 54.1522 65.854C49.2041 70.1661 43.3496 73.3102 37.022 75.0536V81.3095H104.899V46.7038Z" fill="#263238"/>
<path d="M105.132 81.5428H36.8071V74.8717L36.9797 74.825C43.2742 73.0975 49.0978 69.972 54.0167 65.6814C56.7505 63.3022 59.1483 60.9883 61.2849 58.9497C65.9034 54.5178 69.2156 51.3129 71.7394 51.4575C72.1507 51.4865 72.5507 51.6041 72.9123 51.8022C73.2738 52.0002 73.5883 52.2741 73.8341 52.6051C75.2663 54.3172 76.1013 56.3372 76.8431 58.1379C77.8554 60.5964 78.7324 62.7237 80.7711 63.2695C82.6371 63.7734 84.9697 59.6914 87.4188 55.3669C89.5321 51.6348 91.93 47.4362 94.6637 44.847C96.4458 43.1629 98.0786 42.4072 99.6647 42.5471C101.447 42.7011 103.168 43.9747 105.086 46.5545L105.132 46.6151V81.5428ZM37.2736 81.0762H104.666V46.7831C102.851 44.3572 101.251 43.1629 99.6274 43.0183C98.1859 42.897 96.6651 43.6061 94.9623 45.1969C92.2799 47.7301 89.9053 51.9147 87.806 55.6094C85.035 60.4845 82.8517 64.3332 80.6311 63.7267C78.4105 63.1203 77.4542 60.8903 76.3905 58.3152C75.6628 56.5565 74.8417 54.5598 73.4609 52.9037C73.2537 52.6231 72.9886 52.3904 72.6835 52.2213C72.3784 52.0523 72.0405 51.9509 71.6928 51.924C69.3975 51.8027 66.1226 54.9377 61.5882 59.2855C59.4609 61.3289 57.0444 63.6427 54.3059 66.0313C49.3785 70.3297 43.553 73.4728 37.255 75.2309L37.2736 81.0762Z" fill="#263238"/>
<path d="M52.6589 50.3986C57.3893 50.3986 61.224 46.5638 61.224 41.8334C61.224 37.1031 57.3893 33.2683 52.6589 33.2683C47.9285 33.2683 44.0938 37.1031 44.0938 41.8334C44.0938 46.5638 47.9285 50.3986 52.6589 50.3986Z" fill="#263238"/>
<path d="M52.659 50.6364C50.9179 50.6364 49.216 50.1201 47.7683 49.1528C46.3206 48.1855 45.1923 46.8107 44.5261 45.2021C43.8598 43.5936 43.6854 41.8236 44.0251 40.1159C44.3648 38.4083 45.2032 36.8398 46.4343 35.6086C47.6654 34.3775 49.234 33.5391 50.9416 33.1994C52.6493 32.8598 54.4193 33.0341 56.0278 33.7004C57.6363 34.3667 59.0112 35.495 59.9785 36.9426C60.9458 38.3903 61.4621 40.0922 61.4621 41.8333C61.4596 44.1673 60.5313 46.4049 58.881 48.0553C57.2306 49.7057 54.993 50.6339 52.659 50.6364ZM52.659 33.5015C51.01 33.5015 49.398 33.9905 48.027 34.9067C46.656 35.823 45.5874 37.1252 44.9566 38.6488C44.3258 40.1724 44.161 41.8488 44.483 43.4661C44.805 45.0833 45.5995 46.5688 46.7658 47.7345C47.9322 48.9002 49.4181 49.6938 51.0355 50.0149C52.6529 50.3361 54.3293 50.1703 55.8525 49.5386C57.3757 48.9069 58.6774 47.8377 59.5929 46.4661C60.5083 45.0946 60.9965 43.4823 60.9956 41.8333C60.9931 39.6235 60.1138 37.505 58.5508 35.9429C56.9878 34.3808 54.8688 33.5027 52.659 33.5015Z" fill="#263238"/>
<path d="M190.699 26.2146H116.79V84.3325H190.699V26.2146Z" fill="white"/>
<path d="M190.932 84.5657H116.557V26H190.932V84.5657ZM117.023 84.0992H190.466V26.4665H117.023V84.0992Z" fill="#263238"/>
<path d="M187.248 28.5659H120.098V80.8571H187.248V28.5659Z" fill="#263238"/>
<path d="M187.676 46.7038C184.509 42.4445 181.556 41.2876 177.6 45.0243C171.535 50.7391 167.183 64.5105 163.488 63.5028C159.793 62.4952 159.793 56.7851 156.434 52.7731C153.075 48.7611 147.361 56.7897 136.948 65.854C132 70.1661 126.145 73.3102 119.818 75.0536V81.3095H187.676V46.7038Z" fill="#FFC100"/>
<path d="M135.437 50.3986C140.167 50.3986 144.002 46.5638 144.002 41.8334C144.002 37.1031 140.167 33.2683 135.437 33.2683C130.706 33.2683 126.872 37.1031 126.872 41.8334C126.872 46.5638 130.706 50.3986 135.437 50.3986Z" fill="#FFC100"/>
<path d="M107.703 110.616H33.7935V168.734H107.703V110.616Z" fill="white"/>
<path d="M107.936 168.967H33.5601V110.378H107.936V168.967ZM34.0266 168.501H107.469V110.845H34.0266V168.501Z" fill="#263238"/>
<path d="M104.251 112.968H37.1011V165.259H104.251V112.968Z" fill="#263238"/>
<path d="M104.675 131.105C101.508 126.846 98.5593 125.689 94.5986 129.431C88.534 135.141 84.1861 148.912 80.4913 147.904C76.7966 146.897 76.7966 141.187 73.4377 137.175C70.0788 133.163 64.3641 141.205 53.9516 150.274C49.0034 154.586 43.1489 157.73 36.8213 159.474V165.73H104.675V131.105Z" fill="#FFC100"/>
<path d="M60.8888 127.613C61.6508 122.944 58.4839 118.542 53.8153 117.78C49.1467 117.018 44.7443 120.185 43.9823 124.853C43.2203 129.522 46.3872 133.924 51.0558 134.686C55.7244 135.448 60.1268 132.281 60.8888 127.613Z" fill="#FFC100"/>
<path d="M147.454 144.944C147.454 144.944 148.285 146.731 148.285 147.375C148.285 148.019 148.028 148.924 148.028 149.707C148.028 150.491 147.771 151.107 147.51 150.608C147.324 150.159 147.194 149.689 147.123 149.208L146.997 151.541C146.997 151.541 147.254 152.572 146.61 152.311C146.252 152.156 145.942 151.907 145.715 151.59C145.488 151.272 145.352 150.899 145.322 150.51C145.322 149.735 145.322 147.543 145.835 146.642C146.349 145.742 146.731 144.053 147.454 144.944Z" fill="white"/>
<path d="M146.773 152.548C146.68 152.547 146.588 152.528 146.502 152.492C146.099 152.321 145.751 152.041 145.498 151.683C145.244 151.326 145.094 150.905 145.065 150.468C145.065 149.171 145.126 147.342 145.616 146.488C145.733 146.283 145.845 146.022 145.956 145.779C146.264 145.098 146.53 144.515 146.978 144.459C147.105 144.454 147.231 144.482 147.343 144.541C147.455 144.6 147.55 144.688 147.617 144.795L147.645 144.842C147.734 145.033 148.499 146.708 148.499 147.375C148.485 147.743 148.444 148.109 148.378 148.471C148.299 148.876 148.254 149.286 148.242 149.698C148.242 149.899 148.219 150.902 147.776 151.009C147.669 151.037 147.463 151.009 147.309 150.701L147.286 150.65L147.239 151.48C147.286 151.685 147.37 152.203 147.099 152.441C147.055 152.481 147.004 152.51 146.947 152.529C146.891 152.547 146.832 152.554 146.773 152.548ZM147.043 144.921C146.857 144.944 146.577 145.565 146.395 145.971C146.278 146.227 146.157 146.493 146.026 146.717C145.56 147.566 145.56 149.754 145.56 150.449C145.591 150.792 145.713 151.121 145.914 151.401C146.115 151.68 146.388 151.901 146.703 152.04C146.737 152.047 146.772 152.047 146.806 152.04C146.836 151.866 146.826 151.687 146.778 151.517V151.48L146.908 149.124H147.375C147.437 149.566 147.55 150 147.711 150.416C147.784 150.176 147.818 149.926 147.813 149.675C147.825 149.238 147.872 148.803 147.953 148.373C148.017 148.036 148.056 147.694 148.07 147.352C148.07 146.885 147.505 145.551 147.272 145.042C147.146 144.958 147.076 144.921 147.043 144.921Z" fill="#263238"/>
<path d="M170.621 114.77C170.621 114.77 171.936 116.525 171.717 119.809C171.498 123.093 171.498 132.083 171.936 134.495C172.375 136.906 166.679 141.287 165.801 142.164C164.924 143.041 163.609 137.779 163.609 137.779L167.551 133.179L167.117 122.221C167.117 122.221 168.647 114.551 170.621 114.77Z" fill="#FFC100"/>
<path d="M165.592 142.495C165.547 142.5 165.501 142.5 165.457 142.495C164.547 142.243 163.637 138.88 163.381 137.854L163.353 137.737L167.318 133.114L166.879 122.221V122.193C167.038 121.386 168.521 114.327 170.639 114.556H170.737L170.798 114.635C170.854 114.71 172.165 116.501 171.941 119.832C171.712 123.27 171.731 132.125 172.156 134.457C172.543 136.589 168.629 139.99 166.749 141.628C166.385 141.94 166.1 142.192 165.956 142.332C165.909 142.382 165.853 142.422 165.79 142.45C165.728 142.478 165.66 142.494 165.592 142.495ZM163.866 137.83C164.36 139.771 165.144 141.898 165.582 142.029C165.582 142.029 165.582 142.029 165.634 142.001C165.788 141.847 166.1 141.595 166.45 141.273C168.125 139.818 172.048 136.412 171.708 134.541C171.241 132.036 171.279 122.879 171.484 119.8C171.666 117.056 170.742 115.4 170.495 115.004C169.245 115.102 167.915 119.436 167.351 122.244L167.789 133.263L163.866 137.83Z" fill="#263238"/>
<path d="M164.663 132.628C164.663 128.318 171.521 116.366 171.521 116.366C171.521 116.366 170.345 112.634 168.974 112.443C167.607 112.308 166.233 112.242 164.859 112.247L164.467 107.544L164.001 107.703C163.894 107.861 164.183 107.166 164.066 107.344C163.758 107.81 162.928 108.165 161.995 108.347C162.046 109.238 161.608 111.64 160.941 112.443C159.961 113.623 155.258 114.407 154.876 115.778C154.493 117.15 151.741 132.628 151.741 140.074C151.741 142.542 151.466 146.213 151.13 150.174L158.594 151.364L157.059 157.064C157.059 157.064 155.898 165.634 155.898 166.572C155.898 167.509 158.809 175.151 158.809 175.151L160.768 188.74L163.511 188.67C163.511 188.67 163.707 179.07 163.707 176.131C163.707 173.192 161.16 165.55 161.16 165.55C161.16 165.55 167.224 147.715 167.224 143.405C167.224 139.094 164.663 136.939 164.663 132.628Z" fill="#263238"/>
<path d="M160.544 188.978L158.557 175.211C158.216 174.316 155.641 167.514 155.641 166.572C155.641 165.629 156.756 157.381 156.803 157.032L158.277 151.555L150.869 150.37V150.151C151.167 146.624 151.48 142.663 151.48 140.074C151.48 132.484 154.256 116.991 154.624 115.713C154.871 114.84 156.392 114.267 158.002 113.66C159.154 113.226 160.334 112.774 160.74 112.298C161.356 111.561 161.79 109.205 161.743 108.361V108.155L161.939 108.118C162.872 107.931 163.614 107.586 163.866 107.213L163.978 107.04L164.188 107.106C164.234 107.124 164.272 107.159 164.295 107.204C164.318 107.248 164.325 107.299 164.313 107.348L164.663 107.232L165.065 112.018C166.378 112.013 167.691 112.079 168.997 112.214C170.471 112.424 171.61 115.899 171.736 116.296L171.764 116.389L171.712 116.478C171.647 116.599 164.887 128.43 164.887 132.628C164.887 134.742 165.498 136.29 166.142 137.933C166.786 139.575 167.434 141.198 167.434 143.405C167.434 147.603 161.836 164.127 161.37 165.55C161.65 166.394 163.908 173.308 163.908 176.13C163.908 179.037 163.712 188.582 163.712 188.675V188.899L160.544 188.978ZM151.368 149.978L158.86 151.177L157.251 157.125C157.251 157.181 156.098 165.662 156.098 166.572C156.098 167.225 157.829 172.011 158.991 175.067V175.118L160.922 188.502L163.254 188.446C163.282 186.986 163.446 178.785 163.446 176.13C163.446 173.261 160.936 165.699 160.908 165.625L160.885 165.55L160.908 165.475C160.969 165.298 166.973 147.631 166.973 143.405C166.973 141.296 166.361 139.743 165.713 138.105C165.065 136.468 164.425 134.84 164.425 132.628C164.425 128.453 170.583 117.527 171.264 116.338C170.915 115.279 169.912 112.816 168.932 112.676C167.575 112.543 166.213 112.479 164.85 112.484H164.635L164.248 107.861L164.141 107.899L164.071 108.001L163.866 107.936L163.814 107.903C163.327 108.208 162.788 108.422 162.224 108.533C162.224 109.573 161.757 111.799 161.109 112.596C160.642 113.166 159.438 113.618 158.179 114.094C156.812 114.612 155.263 115.195 155.081 115.839C154.717 117.112 151.956 132.521 151.956 140.097C151.965 142.63 151.652 146.493 151.368 149.978Z" fill="#263238"/>
<path d="M162.545 148.994C162.523 148.995 162.501 148.989 162.482 148.978C162.463 148.966 162.447 148.949 162.438 148.928C162.431 148.915 162.427 148.9 162.426 148.884C162.425 148.869 162.427 148.854 162.433 148.839C162.438 148.825 162.446 148.812 162.457 148.8C162.467 148.789 162.48 148.78 162.494 148.774C162.517 148.774 164.892 147.617 165.806 146.498C165.816 146.486 165.828 146.476 165.842 146.469C165.855 146.461 165.87 146.457 165.886 146.455C165.901 146.454 165.917 146.455 165.931 146.46C165.946 146.464 165.96 146.472 165.972 146.482C165.984 146.491 165.994 146.503 166.001 146.517C166.008 146.531 166.013 146.546 166.014 146.561C166.016 146.576 166.014 146.592 166.01 146.607C166.005 146.621 165.998 146.635 165.988 146.647C165.055 147.804 162.695 148.933 162.592 148.98L162.545 148.994Z" fill="white"/>
<path d="M160.744 188.74C159.882 189.29 158.979 189.774 158.043 190.187C157.367 190.383 154.955 190.653 154.955 191.054C154.955 191.455 158.524 191.922 159.877 191.922C160.938 191.949 162 191.918 163.058 191.829C163.735 191.731 163.488 188.67 163.488 188.67L160.744 188.74Z" fill="white"/>
<path d="M159.877 192.155C159.826 192.155 154.722 191.903 154.722 191.054C154.722 190.63 155.399 190.462 157.055 190.154C157.433 190.084 157.787 190.019 157.988 189.963C158.905 189.566 159.789 189.098 160.633 188.563L160.684 188.526L163.712 188.451V188.67C163.81 189.897 163.861 191.964 163.082 192.076C162.016 192.162 160.946 192.189 159.877 192.155ZM155.315 191.04C156.805 191.431 158.336 191.649 159.877 191.689C160.928 191.716 161.979 191.685 163.026 191.595C163.227 191.516 163.367 190.369 163.269 188.913L160.815 188.974C159.953 189.525 159.048 190.006 158.109 190.411C157.899 190.471 157.549 190.536 157.143 190.611C156.524 190.711 155.913 190.854 155.315 191.04Z" fill="#263238"/>
<path d="M161.388 191.236C159.602 191.236 156.677 190.919 155.394 190.77C155.132 190.858 154.955 190.952 154.955 191.054C154.955 191.442 158.524 191.922 159.877 191.922C160.938 191.949 162 191.918 163.058 191.829C163.236 191.801 163.348 191.577 163.418 191.255C162.848 191.246 162.135 191.236 161.388 191.236Z" fill="#263238"/>
<path d="M159.877 192.155C159.826 192.155 154.722 191.903 154.722 191.054C154.722 190.784 155.025 190.648 155.319 190.546H155.371H155.422C156.621 190.686 159.621 191.012 161.389 191.012C162.135 191.012 162.825 191.012 163.423 191.012H163.707L163.647 191.292C163.609 191.465 163.493 191.987 163.091 192.043C162.023 192.141 160.95 192.178 159.877 192.155ZM155.319 191.045C156.809 191.433 158.338 191.649 159.877 191.689C160.928 191.716 161.979 191.685 163.026 191.595C163.062 191.565 163.089 191.527 163.105 191.483C162.583 191.483 162.004 191.483 161.389 191.483C159.602 191.483 156.663 191.166 155.422 191.017L155.319 191.045Z" fill="#263238"/>
<path d="M168.974 112.443C167.607 112.308 166.233 112.242 164.859 112.247L164.467 107.544L164.001 107.703C163.894 107.861 164.183 107.166 164.066 107.344C163.758 107.81 162.928 108.165 161.995 108.347C162.046 109.238 161.608 111.64 160.941 112.443C159.961 113.623 155.259 114.407 154.876 115.778C154.494 117.15 151.741 132.628 151.741 140.074C151.741 140.466 151.741 140.89 151.718 141.343C154.773 142.071 159.784 142.491 166.87 140.713C166.175 137.989 164.673 135.945 164.673 132.628C164.673 128.318 171.53 116.366 171.53 116.366C171.53 116.366 170.346 112.643 168.974 112.443Z" fill="#FFC100"/>
<path d="M157.451 142.201C155.5 142.218 153.554 142.005 151.653 141.567L151.471 141.525V141.333C151.471 140.89 151.494 140.466 151.494 140.074C151.494 132.484 154.27 116.991 154.638 115.713C154.886 114.84 156.406 114.267 158.016 113.66C159.168 113.226 160.348 112.774 160.754 112.298C161.37 111.561 161.804 109.205 161.757 108.361V108.155L161.953 108.118C162.886 107.931 163.628 107.586 163.88 107.213L163.992 107.04L164.202 107.106C164.248 107.124 164.287 107.159 164.31 107.204C164.333 107.248 164.339 107.299 164.328 107.348L164.678 107.232L165.079 112.018C166.392 112.013 167.705 112.079 169.011 112.214C170.486 112.424 171.624 115.899 171.75 116.296L171.778 116.389L171.727 116.478C171.661 116.599 164.902 128.43 164.902 132.628C164.902 134.742 165.513 136.295 166.156 137.937C166.525 138.823 166.837 139.731 167.089 140.657L167.145 140.881L166.917 140.942C163.825 141.748 160.646 142.171 157.451 142.201ZM151.947 141.156C154.867 141.823 159.719 142.229 166.576 140.545C166.333 139.717 166.047 138.903 165.718 138.105C165.083 136.496 164.43 134.84 164.43 132.628C164.43 128.453 170.588 117.527 171.269 116.338C170.92 115.279 169.917 112.816 168.937 112.676C167.58 112.543 166.218 112.479 164.855 112.484H164.64L164.253 107.861L164.146 107.899L164.076 108.001L163.871 107.936L163.819 107.903C163.332 108.208 162.793 108.422 162.228 108.533C162.228 109.573 161.762 111.799 161.113 112.596C160.647 113.166 159.443 113.618 158.184 114.094C156.817 114.612 155.268 115.195 155.086 115.839C154.722 117.112 151.961 132.521 151.961 140.097C151.965 140.414 151.956 140.778 151.947 141.156Z" fill="#263238"/>
<path d="M158.473 98.6992C158.473 98.6992 157.703 101.899 157.32 102.156C156.938 102.413 155.781 102.921 155.921 103.308C156.215 103.849 156.557 104.363 156.943 104.843C156.943 104.843 156.728 108.155 157.11 108.538C157.493 108.92 158.225 109.196 159.76 109.196C161.295 109.196 163.091 108.687 163.604 107.917C164.117 107.148 164.626 106.383 164.626 106.383C164.626 106.383 165.522 106.383 165.522 105.1C165.522 103.817 166.165 102.156 164.626 100.365C163.086 98.5732 159.882 97.6728 158.473 98.6992Z" fill="white"/>
<path d="M159.751 109.429C158.328 109.429 157.419 109.2 156.952 108.706C156.551 108.3 156.644 105.991 156.71 104.918C156.323 104.441 155.986 103.927 155.702 103.383C155.543 102.916 156.243 102.511 156.859 102.165C156.994 102.086 157.12 102.016 157.204 101.96C157.405 101.778 157.909 100.094 158.258 98.6432V98.5592L158.328 98.5079C159.826 97.4209 163.147 98.2933 164.79 100.211C166.063 101.694 165.919 103.108 165.802 104.246C165.774 104.549 165.741 104.834 165.741 105.1C165.741 106.28 165.051 106.541 164.748 106.597L163.782 108.048C163.189 108.944 161.263 109.429 159.751 109.429ZM158.678 98.8391C158.426 99.8701 157.853 102.081 157.447 102.347C157.358 102.408 157.223 102.487 157.074 102.571C156.826 102.711 156.164 103.08 156.141 103.248C156.424 103.76 156.753 104.246 157.125 104.698L157.176 104.768V104.857C157.078 106.369 157.092 108.123 157.279 108.375C157.675 108.771 158.487 108.962 159.761 108.962C161.342 108.962 162.975 108.435 163.409 107.787L164.5 106.149H164.626C164.692 106.149 165.289 106.103 165.289 105.1C165.295 104.799 165.317 104.498 165.354 104.199C165.466 103.094 165.592 101.867 164.449 100.514C162.989 98.8205 160.017 97.9667 158.678 98.8391Z" fill="#263238"/>
<path d="M158.258 102.707C158.207 103.052 158.258 103.346 158.389 103.364C158.52 103.383 158.66 103.122 158.716 102.776C158.772 102.431 158.716 102.133 158.58 102.114C158.445 102.095 158.31 102.338 158.258 102.707Z" fill="#263238"/>
<path d="M159.583 101.862C159.536 101.862 159.49 101.847 159.45 101.821C159.411 101.794 159.381 101.757 159.364 101.713C159.26 101.427 159.058 101.187 158.794 101.036C158.728 101.014 158.657 101.007 158.588 101.016C158.519 101.025 158.452 101.05 158.393 101.088C158.339 101.118 158.276 101.125 158.216 101.109C158.157 101.092 158.106 101.053 158.076 100.999C158.06 100.972 158.05 100.943 158.046 100.913C158.042 100.882 158.045 100.851 158.053 100.822C158.061 100.792 158.075 100.764 158.095 100.74C158.114 100.716 158.138 100.696 158.165 100.682C158.282 100.611 158.413 100.566 158.55 100.552C158.686 100.537 158.824 100.553 158.953 100.598C159.342 100.791 159.644 101.124 159.797 101.531C159.809 101.559 159.814 101.589 159.814 101.619C159.813 101.65 159.807 101.68 159.795 101.707C159.783 101.735 159.765 101.76 159.743 101.781C159.721 101.802 159.695 101.819 159.667 101.829C159.642 101.847 159.613 101.858 159.583 101.862Z" fill="#263238"/>
<path d="M157.647 99.3523C158.674 100.506 159.831 101.538 161.095 102.427C163.105 103.826 164.183 103.126 163.87 105.725C163.558 108.323 161.351 112.303 163.268 115.405C165.186 118.507 168.797 120.891 175.09 118.204C181.383 115.517 182.185 108.874 179.41 106.224C176.634 103.574 174.241 103.425 172.879 101.302C171.516 99.1797 172.412 95.6296 168.899 94.398C165.386 93.1664 162.368 94.2954 161.468 94.1834C160.567 94.0714 160.698 92.0281 157.862 92.7139C155.025 93.3997 154.918 98.3307 157.647 99.3523Z" fill="#263238"/>
<path d="M170.033 119.618C166.497 119.618 164.346 117.584 163.073 115.526C161.636 113.194 162.429 110.395 163.073 108.113C163.319 107.323 163.508 106.515 163.637 105.697C163.838 104.045 163.511 103.901 162.541 103.472C161.987 103.241 161.457 102.955 160.96 102.618C159.695 101.73 158.537 100.7 157.507 99.5482C155.963 98.9371 155.357 97.2157 155.441 95.7788C155.539 94.1134 156.472 92.8258 157.82 92.5132C159.868 92.0141 160.53 92.9051 160.964 93.4929C161.179 93.7775 161.319 93.9594 161.51 93.9594C161.883 93.9603 162.255 93.9228 162.62 93.8475C164.737 93.4114 166.93 93.5271 168.988 94.1834C171.428 95.0324 171.867 96.9824 172.254 98.7318C172.393 99.5908 172.675 100.42 173.089 101.186C173.775 102.259 174.731 102.804 175.939 103.49C177.255 104.186 178.475 105.05 179.569 106.061C180.88 107.302 181.435 109.354 181.038 111.542C180.492 114.561 178.36 117.066 175.179 118.423C173.561 119.163 171.811 119.569 170.033 119.618ZM158.926 92.8165C158.59 92.8228 158.257 92.8682 157.932 92.9518C156.532 93.2877 155.973 94.7012 155.907 95.8068C155.828 97.0944 156.374 98.6059 157.727 99.133H157.783L157.825 99.1797C158.838 100.319 159.979 101.338 161.225 102.217C161.7 102.536 162.205 102.808 162.732 103.028C163.819 103.495 164.332 103.826 164.099 105.734C163.968 106.576 163.774 107.407 163.521 108.221C162.872 110.511 162.121 113.114 163.469 115.26C165.172 118.017 168.559 120.723 174.997 117.98C178.029 116.688 180.063 114.309 180.595 111.449C180.954 109.443 180.446 107.502 179.265 106.383C178.198 105.401 177.01 104.561 175.729 103.882C174.512 103.192 173.462 102.59 172.716 101.419C172.269 100.611 171.966 99.7319 171.82 98.8205C171.423 97.0477 171.05 95.3776 168.853 94.6219C166.348 93.7495 164.071 94.0994 162.714 94.3093C162.306 94.3932 161.889 94.4308 161.473 94.4213C161.076 94.3746 160.848 94.0714 160.61 93.7542C160.441 93.4594 160.195 93.2163 159.898 93.051C159.601 92.8858 159.265 92.8047 158.926 92.8165Z" fill="#263238"/>
<path d="M170.066 118.951C168.018 118.694 165.526 117.598 165.316 113.819C165.228 112.209 165.61 110.348 165.984 108.552C166.427 106.392 166.847 104.353 166.483 102.805C165.932 100.444 163.572 100.006 161.071 99.5157C160.605 99.4224 160.087 99.3244 159.602 99.2171L158.995 99.0818C156.513 98.5267 155.926 98.3961 155.641 96.7026C155.598 96.5081 155.6 96.3063 155.648 96.1129C155.696 95.9195 155.788 95.7397 155.916 95.5877C156.546 94.8739 157.927 94.9205 157.988 94.9205C158.003 94.9211 158.018 94.9248 158.032 94.9312C158.046 94.9376 158.058 94.9467 158.069 94.958C158.079 94.9692 158.087 94.9825 158.092 94.9968C158.098 95.0112 158.1 95.0265 158.1 95.0418C158.098 95.072 158.086 95.1004 158.064 95.1213C158.042 95.1422 158.013 95.1538 157.983 95.1538H157.918C157.656 95.1538 156.579 95.1865 156.094 95.7416C155.986 95.8687 155.91 96.0196 155.872 96.1818C155.834 96.3439 155.835 96.5128 155.874 96.6746C156.131 98.2141 156.574 98.3121 159.047 98.8626L159.653 98.9978C160.12 99.1051 160.633 99.2031 161.113 99.2964C163.688 99.7863 166.124 100.253 166.711 102.763C167.085 104.363 166.66 106.425 166.212 108.608C165.844 110.39 165.466 112.237 165.55 113.814C165.713 116.725 167.243 118.381 170.094 118.741C170.109 118.742 170.124 118.746 170.138 118.753C170.152 118.761 170.164 118.771 170.174 118.783C170.184 118.795 170.191 118.81 170.194 118.825C170.198 118.84 170.199 118.856 170.196 118.871C170.187 118.897 170.169 118.92 170.145 118.934C170.121 118.948 170.093 118.954 170.066 118.951Z" fill="white"/>
<path d="M165.713 110.045C165.697 110.045 165.682 110.041 165.668 110.035C165.653 110.029 165.641 110.02 165.63 110.009C165.62 109.997 165.612 109.984 165.606 109.969C165.601 109.954 165.599 109.939 165.601 109.923C165.694 105.398 163.641 104.041 163.623 104.027C163.597 104.009 163.578 103.983 163.571 103.952C163.564 103.922 163.569 103.89 163.585 103.863C163.593 103.851 163.604 103.839 163.616 103.831C163.629 103.822 163.643 103.816 163.658 103.813C163.673 103.81 163.688 103.81 163.703 103.813C163.718 103.816 163.732 103.822 163.744 103.831C163.837 103.887 165.927 105.272 165.834 109.928C165.833 109.959 165.82 109.989 165.797 110.011C165.774 110.032 165.744 110.045 165.713 110.045Z" fill="white"/>
<path d="M177.142 114.64C176.8 114.637 176.459 114.587 176.13 114.491C172.487 113.464 169.902 109.219 168.796 105.902C168.508 104.963 168.313 103.997 168.213 103.019C167.975 101.256 167.747 99.5902 166.119 98.2093C163.688 96.152 159.989 97.7428 159.951 97.7428C159.937 97.749 159.922 97.7523 159.907 97.7526C159.891 97.7529 159.876 97.7502 159.862 97.7445C159.848 97.7389 159.835 97.7305 159.823 97.7198C159.812 97.7091 159.804 97.6963 159.798 97.6822C159.786 97.6536 159.786 97.6218 159.798 97.5933C159.809 97.5647 159.83 97.5415 159.858 97.5282C159.895 97.5282 163.73 95.8815 166.268 98.0321C167.971 99.4689 168.199 101.181 168.442 102.991C168.542 103.953 168.734 104.903 169.016 105.827C170.103 109.093 172.636 113.264 176.195 114.267C178.136 114.812 179.335 113.637 179.815 112.349C180.296 111.062 180.091 109.872 179.405 109.55C179.042 109.354 178.628 109.273 178.217 109.316C177.807 109.359 177.419 109.525 177.105 109.793C176.902 109.988 176.768 110.243 176.723 110.521C176.677 110.798 176.723 111.083 176.853 111.332C176.864 111.361 176.864 111.393 176.853 111.421C176.842 111.45 176.82 111.473 176.792 111.486C176.779 111.493 176.763 111.497 176.748 111.498C176.732 111.498 176.717 111.496 176.702 111.49C176.688 111.484 176.674 111.476 176.664 111.464C176.653 111.453 176.644 111.44 176.639 111.426C176.49 111.132 176.44 110.799 176.494 110.475C176.549 110.151 176.706 109.853 176.942 109.625C177.29 109.325 177.721 109.137 178.178 109.086C178.635 109.036 179.097 109.124 179.503 109.34C180.403 109.76 180.478 111.244 180.035 112.433C179.592 113.623 178.649 114.64 177.142 114.64Z" fill="white"/>
<path d="M159.311 149.699L153.482 166.128C153.482 166.128 159.498 172.513 160.252 175.617C161.006 178.721 163.061 188.761 163.061 188.761L160.72 189.415C160.72 189.415 157.059 182.734 154.802 178.539C152.546 174.345 148.599 170.141 148.599 167.041C148.599 163.942 150.324 139.669 150.698 136.933" fill="#263238"/>
<path d="M160.516 190.751L160.428 190.588C160.39 190.518 156.756 183.679 154.531 179.42C153.761 177.941 152.786 176.457 151.844 175.02C150.034 172.263 148.322 169.66 148.322 167.51C148.322 164.216 149.46 149.6 149.824 146.866L150.29 146.927C149.927 149.652 148.793 164.225 148.793 167.51C148.793 169.525 150.468 172.067 152.236 174.764C153.169 176.21 154.167 177.703 154.951 179.2C156.976 183.091 160.185 189.123 160.754 190.201L162.714 189.636C162.42 188.153 160.628 179.261 159.947 176.364C159.224 173.276 153.318 166.791 153.257 166.726L153.164 166.628L159.019 149.633L159.462 149.787L153.705 166.516C154.498 167.393 159.7 173.234 160.414 176.261C161.155 179.41 163.213 189.655 163.213 189.757L163.255 189.967L160.516 190.751Z" fill="#263238"/>
<path d="M160.745 188.857C160.722 188.857 160.7 188.85 160.681 188.838C160.662 188.826 160.647 188.808 160.638 188.787C160.638 188.787 160.386 188.18 159.961 187.177C159.955 187.163 159.952 187.148 159.952 187.132C159.952 187.116 159.955 187.101 159.961 187.087C159.968 187.072 159.976 187.059 159.988 187.049C159.999 187.038 160.012 187.029 160.027 187.024C160.04 187.017 160.055 187.014 160.07 187.014C160.085 187.014 160.1 187.016 160.114 187.022C160.128 187.028 160.141 187.036 160.151 187.047C160.162 187.058 160.17 187.07 160.176 187.084C160.6 188.087 160.852 188.694 160.852 188.694C160.864 188.722 160.864 188.754 160.852 188.783C160.841 188.811 160.819 188.834 160.792 188.848L160.745 188.857Z" fill="white"/>
<path d="M159.518 185.941C159.495 185.942 159.472 185.935 159.453 185.922C159.434 185.91 159.419 185.892 159.41 185.871C157.442 181.206 152.725 170.248 151.4 168.611C149.632 166.399 152.921 153.836 153.061 153.3C153.07 153.27 153.09 153.244 153.117 153.229C153.143 153.213 153.175 153.208 153.206 153.216C153.235 153.225 153.26 153.245 153.275 153.272C153.291 153.299 153.296 153.33 153.29 153.36C153.252 153.491 149.889 166.348 151.587 168.466C152.874 170.08 157.185 180.017 159.625 185.797C159.632 185.811 159.636 185.826 159.636 185.842C159.637 185.857 159.634 185.873 159.628 185.887C159.623 185.902 159.614 185.915 159.603 185.926C159.592 185.937 159.579 185.945 159.564 185.951C159.548 185.952 159.532 185.949 159.518 185.941Z" fill="white"/>
<path d="M158.487 115.34C158.487 115.34 157.111 114.327 155.459 116.893C153.808 119.459 152.002 129.344 152.002 131.779C152.002 134.215 149.954 137.377 148.737 139.136C146.969 141.707 145.364 144.38 145.005 146.442C144.645 148.504 144.711 152.39 145.271 152.581C145.83 152.772 146.204 152.768 146.204 152.017C146.204 151.265 145.737 149.064 146.497 148.504C147.258 147.944 147.431 144.944 147.431 144.944C147.431 144.944 155.109 136.51 156.234 134.639C157.358 132.768 159.42 122.645 159.42 122.645C159.42 122.645 159.984 117.215 158.487 115.34Z" fill="white"/>
<path d="M145.76 152.917C145.566 152.909 145.373 152.87 145.191 152.801C144.342 152.516 144.459 148.112 144.767 146.4C145.186 144.067 147.127 141.072 148.555 139.001C149.348 137.844 151.769 134.336 151.769 131.78C151.769 129.377 153.584 119.37 155.263 116.767C155.954 115.694 156.691 115.083 157.456 114.939C157.859 114.855 158.279 114.932 158.627 115.153L158.669 115.195C160.208 117.122 159.681 122.445 159.658 122.659C159.569 123.093 157.572 132.857 156.439 134.742C155.352 136.552 148.405 144.203 147.659 145.005C147.622 145.57 147.402 148.084 146.637 148.658C146.171 149.008 146.301 150.412 146.381 151.247C146.413 151.546 146.437 151.802 146.437 151.984C146.454 152.129 146.436 152.276 146.386 152.413C146.336 152.55 146.254 152.673 146.148 152.773C146.037 152.86 145.901 152.911 145.76 152.917ZM157.782 115.377C157.696 115.378 157.611 115.386 157.526 115.4C156.905 115.522 156.261 116.081 155.66 117.024C154.018 119.566 152.24 129.41 152.24 131.78C152.24 134.149 150.374 137.205 148.942 139.267C147.51 141.329 145.634 144.263 145.233 146.484C144.832 148.705 145.028 152.082 145.364 152.367C145.63 152.451 145.807 152.474 145.877 152.423C145.947 152.371 145.975 152.32 145.975 152.017C145.975 151.853 145.952 151.611 145.924 151.326C145.821 150.272 145.681 148.826 146.362 148.317C146.829 147.953 147.137 146.045 147.206 144.926V144.846L147.262 144.786C147.337 144.702 154.941 136.351 156.038 134.523C157.134 132.694 159.177 122.706 159.196 122.603C159.196 122.575 159.723 117.322 158.328 115.522C158.163 115.425 157.974 115.375 157.782 115.377Z" fill="#263238"/>
<path d="M158.487 115.34C158.487 115.34 157.111 114.327 155.459 116.893C153.808 119.459 152.002 129.344 152.002 131.779C152.002 134.215 149.954 137.377 148.737 139.136C147.634 140.684 146.658 142.317 145.816 144.021C146.293 144.435 146.86 144.732 147.473 144.888C148.107 144.189 155.156 136.426 156.229 134.625C157.353 132.759 159.415 122.631 159.415 122.631C159.415 122.631 159.984 117.215 158.487 115.34Z" fill="#FFC100"/>
<path d="M147.561 145.159L147.421 145.122C146.77 144.952 146.168 144.632 145.662 144.189L145.545 144.072L145.615 143.923C146.459 142.205 147.442 140.559 148.554 139.001C149.347 137.844 151.769 134.336 151.769 131.78C151.769 129.377 153.583 119.37 155.263 116.767C155.953 115.694 156.69 115.083 157.455 114.939C157.859 114.855 158.279 114.932 158.626 115.153L158.668 115.195C160.208 117.122 159.681 122.445 159.657 122.659C159.569 123.093 157.572 132.857 156.438 134.742C155.356 136.543 148.442 144.165 147.654 145.028L147.561 145.159ZM146.115 143.969C146.501 144.267 146.939 144.492 147.407 144.632C148.34 143.606 155.016 136.235 156.037 134.527C157.129 132.708 159.177 122.711 159.196 122.608C159.196 122.58 159.723 117.327 158.328 115.526C158.083 115.392 157.798 115.35 157.525 115.41C156.905 115.531 156.261 116.091 155.659 117.033C154.017 119.576 152.24 129.419 152.24 131.789C152.24 134.159 150.374 137.214 148.942 139.276C147.88 140.763 146.935 142.328 146.115 143.96V143.969Z" fill="#263238"/>
<path d="M160.646 190.476C160.646 190.476 159.877 192.808 159.489 193.177C159.102 193.545 156.406 194.432 156.019 194.819C155.631 195.206 157.563 195.687 159.685 195.286C161.808 194.884 163.637 193.261 164.215 192.953C164.794 192.645 162.998 189.771 162.998 189.771C162.153 189.698 161.312 189.95 160.646 190.476Z" fill="white"/>
<path d="M158.104 195.673C156.952 195.673 155.967 195.454 155.771 195.085C155.735 195.014 155.722 194.934 155.736 194.855C155.749 194.777 155.788 194.705 155.846 194.651C156.411 194.285 157.021 193.993 157.661 193.783C158.237 193.579 158.793 193.321 159.322 193.014C159.574 192.762 160.129 191.278 160.423 190.401L160.446 190.331L160.502 190.289C161.222 189.736 162.127 189.479 163.03 189.571H163.133L163.189 189.659C163.553 190.247 164.728 192.216 164.537 192.897C164.504 193.016 164.425 193.116 164.318 193.177C164.107 193.297 163.903 193.43 163.707 193.573C162.834 194.185 161.374 195.211 159.723 195.51C159.189 195.612 158.647 195.666 158.104 195.673ZM156.261 194.922C157.355 195.272 158.523 195.323 159.644 195.071C161.192 194.786 162.601 193.802 163.446 193.205C163.66 193.048 163.882 192.903 164.113 192.771C164.201 192.561 163.646 191.278 162.858 190.019C162.14 189.987 161.432 190.198 160.847 190.616C160.67 191.134 160.04 192.948 159.657 193.34C159.093 193.707 158.483 193.998 157.843 194.208C157.301 194.412 156.773 194.65 156.261 194.922Z" fill="#263238"/>
<path d="M159.685 195.3C161.803 194.912 163.637 193.275 164.215 192.967C164.406 192.874 164.341 192.5 164.169 192.034L164.117 192.062C163.259 192.528 161.318 193.928 159.205 194.394C158.165 194.664 157.093 194.795 156.019 194.782C155.631 195.202 157.563 195.687 159.685 195.3Z" fill="#263238"/>
<path d="M158.104 195.673C156.952 195.673 155.967 195.453 155.771 195.085C155.735 195.014 155.722 194.934 155.736 194.855C155.749 194.777 155.788 194.705 155.846 194.651L155.925 194.576H156.033C157.083 194.585 158.131 194.458 159.149 194.198C160.631 193.783 162.037 193.134 163.315 192.276C163.581 192.113 163.809 191.973 163.991 191.875L164.262 191.749L164.374 191.973C164.477 192.244 164.747 192.962 164.309 193.181C164.097 193.302 163.893 193.434 163.697 193.578C162.825 194.189 161.365 195.215 159.713 195.514C159.183 195.614 158.644 195.667 158.104 195.673ZM156.621 195.047C157.616 195.258 158.644 195.266 159.644 195.071C161.192 194.786 162.601 193.802 163.446 193.205C163.659 193.047 163.882 192.902 164.113 192.771C164.097 192.646 164.072 192.523 164.038 192.402L163.572 192.682C162.248 193.569 160.789 194.236 159.252 194.656C158.387 194.859 157.507 194.99 156.621 195.047Z" fill="#263238"/>
</g>
<defs>
<clipPath id="clip0_171_22328">
<rect width="210" height="210" fill="white"/>
</clipPath>
</defs>
</svg>
